<?xml version="1.0" encoding="UTF-8" standalone="no"?> <!-- Created with Sodipodi ("http://www.sodipodi.com/") --> <svg xmlns:inkscape="http://www.inkscape.org/namespaces/inkscape" xmlns:rdf="http://www.w3.org/1999/02/22-rdf-syntax-ns#" xmlns="http://www.w3.org/2000/svg" xmlns:cc="http://creativecommons.org/ns#" xmlns:dc="http://purl.org/dc/elements/1.1/" xmlns:sodipodi="http://sodipodi.sourceforge.net/DTD/sodipodi-0.dtd" xmlns:svg="http://www.w3.org/2000/svg" xmlns:ns1="http://sozi.baierouge.fr" xmlns:xlink="http://www.w3.org/1999/xlink" id="svg559" inkscape:version="0.45+devel" viewBox="0 0 464.59 412.65" sodipodi:version="0.32" inkscape:output_extension="org.inkscape.output.svg.inkscape" sodipodi:docname="quay_sign_01.svg" sodipodi:docbase="/home/kaj/pic/"><path id="path569" sodipodi:nodetypes="cccc" style="fill-rule:evenodd;fill:#ffff00" d="m231.34 17.764l-217.79 370.16 437.17 0.8-219.38-370.96z"></path><path id="path563" sodipodi:nodetypes="cccccccccccccccccccc" style="fill-rule:evenodd;fill:#000000" d="m317.5 230.77c2.66 8.24-1.06 19.67-6.38 29.51l-15.16-7.97c-7.38 17.94-36.3 7.17-22.94-13.17l-58.83-33.9c-4.46 15.02-36.03 7.71-23.73-13.96l-18.25-11.37 15.25-20.15 20.35 2.8 24.33-14.76 51.85 31.91 1.6 30.31 31.91 20.75zm-71.8-64.62l-12.76-7.98-19.15 10.37 26.33 15.16 5.58-17.55zm8.78 5.58l21.54 11.97v22.33l-27.13-16.75 5.59-17.55z"></path><path id="path566" sodipodi:nodetypes="ccccc" style="stroke:#000000;stroke-linecap:round;stroke-width:17;fill:none" d="m197.83 293.79c21.12 15.16 31.8 14.01 54.25 1.59 20.05 14.52 31.64 13.75 52.65 0.8 18.33 14.1 32.55 14.33 53.45-0.8 22.08 14.36 35.37 12.77 51.06 0.8"></path><path id="path567" sodipodi:nodetypes="ccccc" style="stroke:#000000;stroke-linecap:round;stroke-width:17;fill:none" d="m197.83 330.49c21.12 15.15 31.8 14 54.25 1.59 20.05 14.52 31.64 13.75 52.65 0.8 18.33 14.1 32.55 14.33 53.45-0.8 22.08 14.36 35.37 12.76 51.06 0.8"></path><path id="path568" sodipodi:nodetypes="ccccc" style="fill-rule:evenodd;stroke:#000000;stroke-width:1pt;fill:#000000" d="m36.688 376.76l82.172-163.55h80.57l-0.8 166.74-161.94-3.19z"></path><path id="path570" sodipodi:nodetypes="csssssscccc" style="fill-rule:evenodd;fill:#ff0003" d="m431.58 411.86l-395.69 0.79c-32.821 0.07-43.671-34.2-30.315-57.43l193.06-335.86c14.97-26.052 52.37-25.573 67-0.001l193.06 337.45c14.1 24.64 2.02 54.99-27.12 55.05zm-198.64-363.78l188.27 323.09-367.77-2.39 179.5-320.7z"></path><metadata></metadata></svg> 