<?xml version="1.0" encoding="UTF-8" standalone="no"?> <!-- Generator: Adobe Illustrator 13.0.2, SVG Export Plug-In . SVG Version: 6.00 Build 14948) --> <svg xmlns:rdf="http://www.w3.org/1999/02/22-rdf-syntax-ns#" xmlns="http://www.w3.org/2000/svg" xmlns:cc="http://web.resource.org/cc/" xmlns:xlink="http://www.w3.org/1999/xlink" xmlns:dc="http://purl.org/dc/elements/1.1/" xmlns:svg="http://www.w3.org/2000/svg" xmlns:inkscape="http://www.inkscape.org/namespaces/inkscape" xmlns:sodipodi="http://sodipodi.sourceforge.net/DTD/sodipodi-0.dtd" xmlns:ns1="http://sozi.baierouge.fr" id="animals_xA0_Image_1_" style="enable-background:new 0 0 219.03 85.071" xml:space="preserve" viewBox="0 0 219.03 85.071" y="0px" x="0px"> <g> <path style="clip-rule:evenodd;fill-rule:evenodd" d="m127.42 25.837c-0.987 0.369-1.566 1.15-3.127 0.938-0.624-2.999-0.961-6.423-1.611-9.851-0.611-3.224-1.862-6.325-2.095-9.375-0.212-2.771 0.115-6.431 1.97-7.187 2.135-0.871 3.999 1.02 4.779 2.913 2.3 5.565 0.12 15.722 0.09 22.562z"></path> <path style="clip-rule:evenodd;fill-rule:evenodd" d="m105.36 22.804c0.948 0.316 0.496-0.787 1.443-0.47 3.017 1.951 4.673 5.243 7.872 7.015 0.658-2.296-1.517-6.115 0.055-7.92 3.098 2.109 4.82 5.574 7.624 7.973 1.584-0.65 3.009-1.461 4.337-2.37 1.713 0.536 2.505 1.979 4.545 2.191 0.323 1.827 1.021 3.285 0.922 5.526 0.983 0.665 1.094-1.623 2.648-1.181 0.613 1.858 1.144 3.798 1.397 6.01-4.197 0.738-5.652 4.257-8.206 6.663-1.295-0.153-1.592-1.29-2.145-2.175-3.628-0.903-7.309-2.942-11.25-4.398-4.437-1.639-11.149-1.956-15.574-3.708-0.598-0.237-1.439-0.861-2.152-1.215-3.565-1.77-5.568-5.279-8.585-7.979-1.702-8.729-3.468-17.396-4.857-26.435 0.778 0.145 1.118-0.155 1.682-0.228 1.204 4.379 3.561 8.333 5.193 12.517 0.524 1.342 0.405 3.115 1.652 4.091 1.063-0.856 0.743-3.113 2.423-3.343 0.913 1.007 1.284 2.547 1.652 4.091 0.974-0.462 1.093-1.792 1.937-2.386 1.431 0.257 2.463 0.908 4.074 0.988 0.635 1.346 1.575 2.397 1.896 3.374 0.072 0.219-0.213 0.539-0.243 0.478 0.127 0.255 0.495-0.044 0.718 0.245 0.48 0.632 0.41 1.897 0.94 2.646z"></path> <path style="clip-rule:evenodd;fill-rule:evenodd" d="m111.17 14.684c-0.29-2.653-2.175-3.734-4.046-4.828-0.626-3.038-1.624-5.708-1.856-9.133 0.278 0.041 0.427-0.05 0.481-0.237 5.169-1.462 9.252 5.845 7.843 11.095-0.31 1.216-1.19 2.709-2.41 3.103z"></path> <path style="clip-rule:evenodd;fill-rule:evenodd" d="m116.79 0.802c1.991 5.268 3.243 11.247 4.68 17.313 0.677 2.862 1.578 5.469 1.38 8.65-3.119-1.611-4.707-4.733-7.636-6.533 0.681-5.276 0.456-12-1.564-16.571-0.516-1.166-1.579-1.964-1.419-3.13 1.45-0.268 3.45-0.419 4.56 0.271z"></path> <path style="clip-rule:evenodd;fill-rule:evenodd" d="m93.753 0.402c1.856 4.208 3.104 9.015 4.706 13.473-0.21 0.916-1.093 1.147-1.93 1.427-0.855-1.064-1.207-2.623-1.893-3.854-1.115 0.694-0.958 2.097-2.413 1.904-1.561-0.208-2.8-5.525-3.55-7.225-0.122-0.276-0.608-0.443-0.715-0.725-0.619-1.624-0.597-3.475-1.412-4.09-0.064-0.388 0.23-0.412 0.246-0.718 2.004-0.325 4.239-0.129 6.961-0.192z"></path> <path style="clip-rule:evenodd;fill-rule:evenodd" d="m47.427 1.042c-0.05 2.897 0.266 4.135 0.674 6.724-1.272 0.241-2.575 0.451-4.083 0.452-0.959-2.573 0.414-6.118 2.215-7.905 0.498 0.144 0.771 0.509 1.194 0.729z"></path> <path style="clip-rule:evenodd;fill-rule:evenodd" d="m182.64 23.34c-0.648-3.894 2.349-6.148 5.33-7.163 0.36-0.682 1.194-0.882 1.451-1.67 6.221-3.199 11.665-7.184 17.595-10.678 4.443-0.358 4.657 7.817 2.09 10.095-0.763 0.677-2.416 0.958-4.091 1.652-1.28 0.529-2.513 1.519-3.614 1.895-0.865 0.295-1.812 0.187-2.643 0.461-0.937 0.31-1.712 0.844-2.649 1.181-1.887 0.681-4.172 0.97-6.25 1.637-2.71 0.863-4.99 2.521-7.23 2.59z"></path> <path style="clip-rule:evenodd;fill-rule:evenodd" d="m197.86 7.605c-1.521 2.054-4.315 3.193-6.754 4.753-3.931 2.514-6.887 5-10.853 7.605-0.906 0.595-3.291 2.827-4.083 0.452 0.478 0.006 0.301 0.657 0.956 0.487 1.22-1.101 2.003-2.643 3.146-3.819 0.701-0.176 1.194-0.562 1.688-0.948 0.378-1.091 1.761-1.327 2.896-2.38 0.68-0.63 1.035-1.79 1.696-2.388 0.115-0.104 0.812-0.152 1.204-0.471 1.367-1.118 4.566-4.601 6.274-4.997 1.89-0.442 3.02 0.45 3.81 1.706z"></path> <path style="clip-rule:evenodd;fill-rule:evenodd" d="m108 22.102c-1.863-0.338-2.164-1.434-3.097-3.381-0.484-1.01-1.2-1.825-1.183-2.408 0.056-1.883 2.305-3.064 2.673-4.782 1.656 0.522 3.665 1.541 4.057 3.389 0.53 2.467-1.21 5.729-2.45 7.182z"></path> <path style="clip-rule:evenodd;fill-rule:evenodd" d="m134.6 27.567c-1.102 0.132-1.113-0.809-1.672-1.212 1.333-3.079 2.16-6.671 3.428-9.816-0.379-1.056-1.337-1.542-1.903-2.413 1.048-1.274 1.928-2.719 4.577-2.369 3.82 4.762-2.05 12.701-4.44 15.81z"></path> <path style="clip-rule:evenodd;fill-rule:evenodd" d="m113.58 13.5c0.315 0.087 0.375 0.425 0.717 0.485-0.317 4.416-1.096 8.298-1.285 12.231-1.086-0.45-3.397-2.186-3.574-3.625-0.125-1.018 0.82-2.469 1.709-4.308 0.96-2.015 1.58-3.468 2.42-4.783z"></path> <path style="clip-rule:evenodd;fill-rule:evenodd" d="m132.22 25.87c-1.059 0.17-0.979-0.784-1.673-0.972 0.467 2.002 2.54 2.421 2.606 4.818-2.278-1.118-6.136-2.724-4.279-5.79 0.788-0.708 0.796 0.8 1.674 0.731-0.408-1.266-1.229-2.125-1.897-3.133 0.033-2.061-0.087-4.277 0.281-5.998 1.208-0.594 2.098-1.917 3.611-1.655 0.671 0.116 2.89 2.448 2.856 3.38-0.028 0.799-0.923 1.825-1.463 3.35-0.7 1.963-0.81 3.633-1.72 5.269z"></path> <path style="clip-rule:evenodd;fill-rule:evenodd" d="m151.97 15.207c1.026 3.715-1.019 6.148-1.979 8.626-3.406 2.04-7.273 3.765-10.843 5.925-1.591 0.964-4.127 3.648-6.736 2.354 0.212-1.639 1.456-2.23 2.423-3.104 3.428-5.949 8.69-10.039 13.54-14.546 1.6-0.145 2.58 0.32 3.6 0.745z"></path> <path style="clip-rule:evenodd;fill-rule:evenodd" d="m153.63 17.858c2.791 1.317 4.852 6.616 2.575 9.378-0.238 1.029 1.177 0.429 1.191 1.208-0.986 0.983-2.503 1.365-3.853 1.893-1.34 0.524-2.772 1.217-4.331 1.411-0.998-1.322-2.59-3.322-2.848-4.58 0.468-0.974 1.779-0.992 2.649-1.421 0.898-0.444 1.652-1.236 2.65-1.422 0.79-2.031 1.08-4.556 1.97-6.467z"></path> <path style="clip-rule:evenodd;fill-rule:evenodd" d="m181.22 20.45c0.295 0.106 0.49 0.311 0.475 0.723-1.592 4.669-2.99 9.535-5.135 13.645 0.471-0.29 2.403-2.341 4.329-1.17-0.403 1.544-3.161 2.666-4.572 1.648-2.184 4.312-5.613 7.359-8.715 10.74-3.547 1.566-5.893 5.617-10.358 5.448 0.69-1.708 1.693-1.492 2.655-2.142 2.907-1.963 4.959-4.88 7.495-7.869 1.228-1.446 2.477-2.588 3.39-4.296 0.466-0.87 0.753-1.798 1.218-2.631 1.225-2.193 2.956-5.495 3.899-8.373 0.396-1.212 0.15-2.363 0.983-3.354 1.03-1.242 3.2-1.41 4.33-2.369z"></path> <path style="clip-rule:evenodd;fill-rule:evenodd" d="m193.93 21.258c0.592 1.293-0.734 2.1-1.7 2.868-2.554 2.031-5.336 4.694-8.446 6.662-1.32 0.834-2.806 2.125-4.333 1.89-0.236-2.835 1.881-5.329 2.457-8.143 4.82-0.111 7.95-3.2 12.02-3.277z"></path> <path style="clip-rule:evenodd;fill-rule:evenodd" d="m148.01 32.7c-3.938 1.404-6.898 3.799-10.837 5.205-0.561-1.591-0.885-3.417-1.404-5.05 3.073-1.477 6.551-3.831 9.631-4.494 1.15 1.167 2.15 2.491 2.61 4.339z"></path> <path style="clip-rule:evenodd;fill-rule:evenodd" d="m154.02 31.542c-2.11 2.292-5.041 3.492-7.478 5.468-2.337 1.894-4.691 3.793-6.761 5.953-1.49 3.607-3.335 6.743-5.351 10.043-0.807 1.321-1.351 3.14-2.671 4.542-0.98-1.033 0.169-2.427 0.503-3.357 0.807-2.246 1.569-4.512 2.448-6.943 0.869-2.403 2.304-5.122 2.937-8.139 5.43-2.389 9.592-6.064 15.654-7.812 0.19 0.128 0.39 0.252 0.72 0.245z"></path> <path style="clip-rule:evenodd;fill-rule:evenodd" d="m103.25 49.189c0.172-0.792 1.45-0.462 1.926-0.946 1.527-4.188-1.805-7.121-6.191-7.003 0.899-1.661 6.562-0.571 7.917 0.535 1.576 1.287 3.874 7.54 0.42 8.643-1.58 0.503-3.58-0.072-4.08-1.229z"></path> <path style="clip-rule:evenodd;fill-rule:evenodd" d="m136.2 40.538c-1.219 3.353-3.536 6.123-5.581 8.841-1.995 2.651-3.613 6.082-6.774 7.633-0.172-4.255 3.119-6.112 2.947-9.58 0.431-0.028 0.504 0.297 0.959 0.246 2.319-2.562 4.833-4.926 7.489-7.148 0.31 0.004 0.63 0.006 0.95 0.008z"></path> <path style="clip-rule:evenodd;fill-rule:evenodd" d="m80.713 46.393c-1.199-0.253-1.836-2.049-3.104-2.181-1.244-0.13-1.345 0.58-2.646 0.941-3.175-0.527-1.071-4.643 2.426-3.824 1.893 0.444 3.166 3.452 3.324 5.064z"></path> <path style="clip-rule:evenodd;fill-rule:evenodd" d="m100.18 42.448c-1.127 1.26-2.727 0.906-4.09 1.412-3.771 1.401-6.526 4.426-10.359 5.688-0.021-1.488-0.284-2.739-0.452-4.083 2.899-1.571 6.177-2.76 9.388-4.015 2.103 0.072 4.703-0.347 5.513 0.998z"></path> <path style="clip-rule:evenodd;fill-rule:evenodd" d="m110.03 41.556c3.779 0.561 7.629 5.549 7.132 9.89-0.146 1.282-0.967 3.327-2.665 3.582-0.325-1.553 0.641-2.34 0.506-3.837-0.248-2.783-3.122-4.85-4.756-6.273 0.33-1.45-0.55-2.677-0.22-3.362z"></path> <path style="clip-rule:evenodd;fill-rule:evenodd" d="m150.1 43.035c-0.565 2.769 0.819 4.478 0.195 6.481-0.639 2.052-4.541 3.283-5.794 5-0.006 0.8-0.012 1.6-0.017 2.4-3.104 2.25-5.929 4.785-9.646 6.413-0.345-1.622 0.49-3.846-1.41-4.33 1.205-4.498 3.584-7.806 5.6-11.481 3.626-1.238 7.069-2.661 10.111-4.49 0.32 0.002 0.64 0.004 0.96 0.007z"></path> <path style="clip-rule:evenodd;fill-rule:evenodd" d="m60.095 43.13c4.809 1.534 8.724 3.949 10.743 8.234-0.808 0.308-1.573 0.661-2.168 1.185-1.111-0.891-2.055-1.945-2.617-3.378-1.69-1.908-3.428-3.77-5.725-5.08-0.13-0.49-0.718-0.475-0.233-0.961z"></path> <path style="clip-rule:evenodd;fill-rule:evenodd" d="m117.21 44.246c1.02 0.584 2.091 1.116 3.833 0.987 1.143 1.575 1.125 4.293 2.603 5.538-0.612 1.056-2.075-0.469-2.634-0.978-0.996-0.288-2.252-0.322-2.874-0.98 0.8-1.929-1.52-2.959-0.93-4.567z"></path> <path style="clip-rule:evenodd;fill-rule:evenodd" d="m101.12 45.095c0.586 0.813 1.125 1.695 0.7 2.885-1.772 1.297-3.647-0.237-5.518-0.278-1.761-0.039-3.172 1.023-5.047 0.925 2.142-2.206 5.478-4.406 9.865-3.532z"></path> <path style="clip-rule:evenodd;fill-rule:evenodd" d="m83.086 50.25c-2.116 0.101-3.048-0.967-5.033-0.995-0.164-1.348-1.144-1.891-1.177-3.369 2.008 0.581 5.871 1.349 6.21 4.364z"></path> <path style="clip-rule:evenodd;fill-rule:evenodd" d="m170.69 50.138c-0.852 3.486-4.281 4.36-7.001 5.952-0.463 1.235 0.319 2.245-0.264 3.358-2.41-0.722-4.392-1.866-7.668-1.733-0.19-2.529 1.038-3.62 1.717-5.269 0.88 0.006 1.76 0.012 2.64 0.019 2.87-1.461 7.95-7.898 10.57-2.327z"></path> <path style="clip-rule:evenodd;fill-rule:evenodd" d="m109.67 58.114c-0.854 1.552-0.319 4.51-1.719 5.508 0.142 0.576 0.338 1.098 0.227 1.921-0.148 1.115-1.797 1.25-0.979 2.633-0.202 0.682-0.55 1.215-1.21 1.432 0.083 1.696-0.292 2.927-1.702 3.108 0.019 1.228-0.786 1.62-1.693 1.908 0.134 0.78-0.171 1.116-0.251 1.679-1.527 0.465-2.051 1.948-2.902 3.1-1.925-0.019-1.824 2.017-3.853 1.893-0.568 0.968-1.003 1.483-2.653 1.901-0.65 0.165-1.186 0.877-1.447 0.95-0.513 0.144-0.634-0.282-0.958-0.247-1.458 0.157-3.351 1.203-4.568 1.168-1.474-0.041-2.873-1.263-4.316-0.51-1.238-0.289-1.034-2-3.11-1.461-0.392-0.806-0.722-1.672-2.15-1.455-0.516-1.318-1.506-2.168-3.103-2.421 0.007-1.914-1.529-2.306-2.618-3.138 0.003-0.48 0.007-0.96 0.01-1.44-1.421-0.689-2.738-1.846-1.892-4.094-1.077-0.289-1.98-0.749-2.388-1.697-0.231-0.958 0.722-0.717 0.491-1.676 0.09-0.963-1.123-0.641-1.432-1.21-0.243-1.254-0.294-2.178 0.5-2.876-0.163-0.634-1.088-0.515-1.191-1.208-0.091-1.06 0.078-1.854 0.497-2.396-0.478-1.486-0.076-3.212 1.463-3.35 0.158-1.129 0.891-1.675 1.457-2.391 0.557-0.072 0.921 0.045 1.199 0.249 0.637-0.562 0.85-1.555 1.693-1.908 0.592-0.027 1.157-0.028 1.438 0.25 0.618-0.919 2.099-2.094 3.128-1.178 0.725-0.546 3.2-1.819 3.842-0.214 2.26-0.784 2.483 0.952 4.318 0.271 0.533-0.129 0.339 0.46 0.717 0.485 1.062 0.01 1.761-1.298 2.883-0.46 0.733-0.384 1.043-1.198 1.93-1.427 2.052 0.708 2.894-0.873 4.56 0.032 0.678-0.118 1.023-0.574 1.685-0.708 0.93-0.202 0.85 0.592 1.435 0.73 1.71-0.93 2.54 0.83 4.321-0.21 0.843-0.037 0.783 0.816 1.433 0.97 1.716-1.229 2.617 1.442 4.067 1.948-0.022 1.481 0.47 1.766 1.421 2.65-0.003 0.48-0.006 0.96-0.01 1.44 0.3 0.653 1.22 0.699 1.42 1.449zm-41.3 3.074c-0.313 4.429 3.068 9.425 4.957 12.035 2.401 3.317 3.49 4.483 7.153 6.77 3.95 2.466 5.391 3.384 9.351 1.265 2.415-1.292 3.917-2.143 5.785-3.56 2.258-1.712 3.411-2.932 5.075-5.005 0.972-1.21 2.16-2.27 2.662-3.102 2.092-3.468 3.233-9.87 2.011-13.186-1.344-3.65-6.389-4.595-11.73-4.402-3.636 0.131-6.103 1.466-9.379 2.815-7.178-3.886-15.417-0.187-15.881 6.37z"></path> <path style="clip-rule:evenodd;fill-rule:evenodd" d="m132.53 49.393c-0.547 2.507-1.521 4.581-1.97 7.187-1.303 0.049-2.339 0.369-3.842 0.213 1.543-2.625 3.724-4.602 5.092-7.405 0.24 0.002 0.48 0.003 0.72 0.005z"></path> <path style="clip-rule:evenodd;fill-rule:evenodd" d="m182.67 53.581c-0.189 1.977-1.97 2.834-3.389 4.057-0.741 0.639-1.358 1.635-2.412 1.664-0.009-1.897-0.801-3.023-1.167-4.568 1.88-0.696 4.7-1.652 6.97-1.153z"></path> <path style="clip-rule:evenodd;fill-rule:evenodd" d="m94.088 55.846c-4.029 1.231-6.729 3.811-9.405 6.415-2.356-1.331-4.978-2.4-7.657-3.414-0.725-0.079-1.868 0.254-1.917-0.493 0.418-1.438 2.44-1.903 3.613-1.895 2.103 0.015 4.394 1.863 5.985 2.202 1.956-0.92 4.991-3.648 7.466-3.788 0.551-0.031 1.907-0.133 1.915 0.973z"></path> <path style="clip-rule:evenodd;fill-rule:evenodd" d="m101.28 57.336c0.013 1.141-1.638 0.594-2.168 1.185-5.226 2.999-10.128 6.326-14.471 10.22-3.764-2.167-8.061-3.809-12.443-5.367-1.012-1.703 0.395-3.54 1.71-4.308 3.564 1.331 7.297 2.497 10.29 4.391 2.471-0.638 4.477-3.704 7.237-5.229 0.51-0.282 1.112-0.613 1.686-0.948 2.252-1.319 6.502-3.032 8.159 0.056z"></path> <path style="clip-rule:evenodd;fill-rule:evenodd" d="m203.24 63.324c-3.818 0.943-7.726 0.502-11.768 1.119-1.97 0.3-4.028 1.147-5.287 0.923-1.092-0.195-1.794-1.142-2.626-1.938-0.679-0.65-1.755-1.437-1.903-2.414 1.029-1.775 4.43-1.147 5.778-2.6 1.84 0.666 3.575-1.507 5.529-1.401 1.155 0.062 2.616 0.783 4.312 1.229 1.414 0.373 2.531 0.196 3.117 0.501 1.52 0.792 2.63 2.831 2.85 4.581z"></path> <path style="clip-rule:evenodd;fill-rule:evenodd" d="m182.64 57.181c0.378 1.599-1.395 2.524-2.188 3.825-1.113 1.827-1.703 4.23-3.398 5.497-2.033-0.733-4.706 0.433-5.753-1 0.007-1.041 0.92-1.162 1.689-1.428 2.189-2.937 6.116-4.111 8.449-6.901 0.4 0.001 0.8 0.004 1.2 0.007z"></path> <path style="clip-rule:evenodd;fill-rule:evenodd" d="m156.95 59.163c1.006 3.21-2.285 6.011-4.825 3.567 0.96-1.941 1.98-4.951 4.83-3.567z"></path> <path style="clip-rule:evenodd;fill-rule:evenodd" d="m165.33 61.141c1.476 4.047-2.704 4.309-5.315 5.003-0.497-1.177-1.619-1.739-2.623-2.418 0.681-1.164 0.294-3.408 1.23-4.312 1.95-0.069 4.76 1.002 6.7 1.727z"></path> <path style="clip-rule:evenodd;fill-rule:evenodd" d="m58.759 62.801c-1.359 0.228-1.287-0.956-1.91-1.454-0.892-0.098-0.634 0.968-1.685 0.709 0.128-0.193 0.253-0.388 0.245-0.719-1.343 0.589-1.97 1.58-2.18 2.865-0.958 5.854 4.991 9.131 8.805 10.862 0.198 1.593 1.657 3.077 1.168 4.568-0.817 0.625-1.818-0.022-2.638-0.259-5.298-1.526-10.725-5.6-11.442-11.359-0.3-2.413 0.553-5.343 1.727-6.708 1.805-2.098 8.349-3.039 7.91 1.495z"></path> <path style="clip-rule:evenodd;fill-rule:evenodd" d="m63.568 61.395c-0.032 0.762 0.812 1.007 0.948 1.687 0.23 1.143-0.708 1.959-0.741 3.115-0.051 1.769 1.06 2.68 1.17 4.329-4.724-0.083-8.858-10.506-1.377-9.131z"></path> <path style="clip-rule:evenodd;fill-rule:evenodd" d="m100.96 68.854c-0.426 0.796-1.049 1.774-1.696 2.388-0.932 0.883-2.172 1.567-3.375 2.137 0.37-1.9 2.477-4.075 5.071-4.525z"></path> <path style="clip-rule:evenodd;fill-rule:evenodd" d="m73.015 83.541c-2.802 0.995-2.913-1.96-3.335-3.623-1.605 1.112-1.366 4.093-3.87 4.293-0.773-6.467-2.302-12.189-7.34-14.451-0.125-0.194-0.247-0.392-0.235-0.721 0.215-0.186 0.544-0.255 0.962-0.234 6.061 3.477 11.878 7.194 13.818 14.736z"></path> <path style="clip-rule:evenodd;fill-rule:evenodd" d="m145.97 84.047c-4.262-0.737-5.272-5.439-8.105-7.976-0.727-0.652-3.037-2.274-4.062-2.668-2.205-0.849-4.667-0.671-8.154-0.777 0.904-2.264 8.148-2.117 11.77-1.358 2.772 0.581 4.521 2.276 6.461 2.685 2.61 1.815 8.16 8.189 2.09 10.094z"></path> <path style="clip-rule:evenodd;fill-rule:evenodd" d="m117.22 76.887c0.452-0.874 2.239-1.412 3.853-1.893 3.938-1.175 11.694-2.169 14.148 1.778 0.769 1.237 1.348 3.764 0.202 5.521-0.745 1.142-2.394 1.054-3.854 1.893-2.358-0.534-3.822-1.951-4.531-4.111-1.233-1.064-2.509-2.555-4.78-2.914-1.89-0.298-3.96 0.899-5.04-0.274z"></path> <path style="clip-rule:evenodd;fill-rule:evenodd" d="m105.17 84.003c-0.01-0.982 1.787-2.276 3.384-3.336 1.286-0.854 3.236-2.057 4.576-2.368 2.985-0.692 8.289 0.388 7.652 3.893-0.212 1.172-2.624 2.663-4.576 2.368-1.239-0.187-2.286-1.954-4.064-2.188-3.28-0.432-4.24 1.818-6.97 1.631z"></path> <path style="clip-rule:evenodd;fill-rule:evenodd" d="m63.898 82.998c-0.281 0.037-0.205 0.436-0.245 0.718-2.604 0.443-6.401 0.955-9.122 0.177 0.596-1.409 4.202-3.392 6.503-3.315 1.454 0.047 2.478 1.013 2.864 2.42z"></path> <path style="clip-rule:evenodd;fill-rule:evenodd" d="m100.4 80.851c0.859 0.821 1.689 1.671 2.623 2.418-1.113 1.415-5.136 0.818-7.207 0.91-0.616-0.991 1.526-0.941 2.17-1.425 0.844-0.593 1.645-1.231 2.417-1.903z"></path> <path style="clip-rule:evenodd;fill-rule:evenodd" d="m103.83 0.472c0.47 1.438 0.653 3.091 0.927 4.807 0.245 1.537 1.011 3.29 0.928 4.566-0.15 2.316-2.151 3.606-3.157 5.258-3.831 0.04-3.763-3.975-4.748-7.473-0.735-2.609-1.984-4.816-1.632-6.972 2.234-0.725 5.77-0.306 7.68-0.186z"></path> <path style="clip-rule:evenodd;fill-rule:evenodd" d="m84.205 27.457c1.25-0.264 2.262-0.768 1.938-2.626 1.669-0.217 1.018 1.857 1.42 2.89 0.61 0.749 0.99 1.725 1.905 2.173 0.134 0.861-0.715 0.725-1.445 0.71-1.042 0.395-1.059 1.827-2.652 1.662 0.363-2.078-0.335-2.557-1.656-3.372-0.856 0.018-0.712 1.051-1.21 1.432 1.427 1.609 3.307 4.234 2.595 6.499 1.355-2.573 2.514-5.347 6.278-5.477-0.876 1.768-2.689 2.782-3.633 4.774 0.008 2.272-0.558 3.187-0.276 5.278 1.227-1.763 0.83-5.734 3.401-5.977 1.184-0.112 2.6 0.858 2.861 2.66-0.916 2.295-3.808 2.583-5.071 4.525-0.633 0.069-0.615-0.505-0.713-0.965-0.691 0.507-0.17 2.245-1.455 2.15-1.759-0.839-0.891-3.038-1.649-4.572-1.254 1.789 0.496 3.479 0.442 5.523-1.586-0.943-0.667-2.883-1.892-4.093 0.709-3.261-0.34-6.584-1.378-8.89-1.216 0.458-1.836 1.521-2.657 2.381 1.027-0.06 1.182 0.741 2.397 0.497 0.509 1.087 0.417 2.767 0.691 4.085-1.321-0.445-1.892-1.63-3.588-1.705-0.024-0.691 0.142-1.57-0.227-1.921-1.136 0.299-1.783 1.093-2.652 1.662 1.327 1.109 2.965 0.818 4.308 1.709 2.225 1.477 4.051 5.354 4.5 8.672 0.151 1.119 0.237 2.74-0.265 3.598-3.262-5.322-5.198-14.824-14.8-11.623 0.437 1.397 2.255 1.431 2.862 2.66 0.197 2.053-0.636 3.062-1.707 3.829-4.069 0.625-4.323-3.585-6.925-5.088-2.75 0.05-4.446 3.136-6.973 1.872-0.116-0.788-0.255-1.721-0.22-2.881 0.029-0.971 1.229-2.724-0.461-2.644-0.632 1.733-0.126 3.363-0.756 5.275-6.975-4.245-14.347-8.097-21.033-12.626-1.538-0.203-2.691 0.628-3.598-0.265 0.746-2.304 3.426-2.648 4.591-4.528 0.321-1.031-0.676-0.763-0.952-1.207 1.85-3.711-0.202-7.479-1.127-10.568 1.7-4.641 4.47-8.196 7.282-11.71 1.28 0.103 1.673-0.393 2.398 0.257-0.948 2.438-0.791 5.43 0.187 7.681 2.118-0.203 4.672-0.878 6.234 0.764 0.652-0.145 0.604-0.999 1.447-0.95 0.941-3.688 4.962-5.98 8.693-7.62 2.314-1.017 5.214-1.761 9.128-1.137 1.586 0.254 4.009 1.345 5.505 2.199 2.184 1.247 3.918 2.87 5.726 4.84 1.61 1.754 2.286 3.028 3.085 5.061 0.233 0.593 1.013 1.549 1.185 2.168 0.505 1.818 0.603 4.352 0.677 6.245 0.086 2.15-0.432 4.349-0.765 6.714zm-24.544 9.19c3.058-1.808 6.135-0.628 8.633 1.02 4.791-0.511 7.66-2.841 10.12-5.69 0.628-0.728 1.661-1.292 2.173-1.905 0.227-0.271 0.274-0.902 0.488-1.197 1.114-1.53 2.032-3.521 2.198-5.505 0.19-2.264-0.514-4.226 0.04-5.76-1.038-1.28-0.581-4.035-1.885-5.053-0.72-2.839-3.557-5.708-5.709-7.24-1.091-0.776-2.152-0.929-3.35-1.463-0.695-0.31-1.281-1.015-1.912-1.213-2.462-0.775-5.194-0.501-7.68-0.053-2.543 0.458-2.772 1.05-4.335 2.129-1.767 1.221-3.931 2.406-5.068 4.045-0.636 0.917-1.562 1.321-1.696 2.388 1.091 0.354 1.731 1.154 2.386 1.937 2.196 0.775 5.047 0.902 6.947 1.968-0.007 0.96-0.013 1.92-0.02 2.88-0.74 0.619-1.934 0.778-3.365 0.697-0.034 0.986 1.599 0.33 1.671 1.211-1.293 1.429-3.368 2.063-5.776 2.36 0.145 2.241 2.201 2.597 2.608 4.578-0.323 0.398-1.36 0.071-1.684 0.469 1.002 1.629 2.599 2.042 2.853 3.86 0.117 0.831-0.847 2.159-0.745 3.595 0.923 0.759 2.03 1.336 3.108 1.942zm-10.882-22.876c0.002-0.32 0.005-0.64 0.007-0.96-1.042 0.454-1.48-0.898-1.918-0.253 0.35 0.686 0.689 1.385 1.911 1.213z"></path> <path style="clip-rule:evenodd;fill-rule:evenodd" d="m146.46 14.449c-1.446 2.186-3.657 3.986-6.038 5.478-0.125-0.194-0.247-0.391-0.235-0.721 0.502-1.75 1.061-4.483 1.964-6.227 1.91-0.739 3.71-0.271 4.32 1.47z"></path> <path style="clip-rule:evenodd;fill-rule:evenodd" d="m208.61 15.6c1.821 5.438-2.132 8.43-6.066 9.558 0.524 0.589 0.053 1.239 0.227 1.922 0.339 1.326 1.394 2.38 1.174 3.848-0.165 1.089-1.853 3.294-2.909 4.06-1.141 0.827-3.051 0.732-3.615 2.135-1.738 0.089-3.463 0.774-4.799-0.033-1.654 1.008-3.999 0.24-4.793-0.993-0.537 0.032 0.306 0.607-0.009 1.2-0.648 0.229-1.235 0.521-1.925 0.707-1.959 2.668-6.376 6.855-10.855 7.845-1.646 0.364-4.221 0.394-5.276-0.517 0.273-1.264 1.658-1.651 2.416-2.383 1.706-1.647 2.786-4.002 4.603-5.968 1.809-0.566 3.704 0.133 5.035 0.755 0.562 0.75 0.254 1.12 0.466 1.923 1.732-1.012-0.229-2.83-0.693-3.845 0.906-1.015 2.212-1.625 3.854-1.893 0.965-1.035 2.497-1.496 4.093-1.892 2.712-2.568 8.54-1.976 10.12-5.69-2.876 1.595-6.663 2.267-9.149 4.256-3.172 0.583-5.497 3.273-8.9 2.819 1.136-1.489 3.075-2.102 4.581-3.088 1.564-1.024 2.885-2.344 4.583-3.088 1.497-1.784 3.122-3.44 5.073-4.765 0.249-1.121-0.958-0.804-0.708-1.925 2.539-1.406 6.163-2.116 8.906-3.539 0.132-0.069 0.624 0.112 0.72 0.005 0.4-0.45 0.397-0.285 1.444-0.71 0.67-0.27 1.01-0.992 2.41-0.704zm-14.28 17.181c0.011-0.805 0.012-1.6-0.949-1.447-0.01 0.805-0.01 1.601 0.95 1.447zm5.03 0.995c0.894 0.02 0.7-1.063 0.733-1.915-0.239-0.002-0.479-0.003-0.72-0.005 0 0.641 0 1.28-0.01 1.92zm-11.28-0.318c-0.119 0.754 0.336 0.94 0.471 1.443 1.381-0.049 1.473-1.407 2.413-1.903 0.545 0.524 1.497 0.097 1.445-0.71-1.88-0.969-2.49 1.281-4.32 1.17zm8.89-0.418c0.477 1.525-0.32 1.943-0.979 2.874 1.722-0.108 1.995-1.684 2.422-3.104-0.59-0.037-1.16-0.045-1.44 0.23zm-2.66 2.861c1.152-0.038 2.418-1.998 1.221-2.872-0.71 0.656-0.64 2.095-1.22 2.872zm-2.16-0.255c1.355 0.247 1.301-0.937 1.93-1.427-1.17-0.887-1.7 0.595-1.93 1.427zm-2.16 0.225l0.48 0.003c0.013 0.146 0.034 0.285 0.238 0.242 0.111-0.756 1.196-1.325 0.733-1.915-1 0.033-0.85 1.237-1.45 1.67z"></path> <path style="clip-rule:evenodd;fill-rule:evenodd" d="m175.69 21.611c0.246 2.908-1.51 5.902-2.7 8.622-1.907 4.357-4.369 8.553-7.282 11.95-0.887 1.032-2.124 2.039-3.142 3.098-2.7 2.809-5.392 4.81-8.93 7.138-0.692 0.456-1.271 1.268-2.169 1.186-1.282-1.076-0.031-3.401 0.033-4.8 0.082-1.778-0.32-3.511-0.205-5.041-0.083-1.052 0.694-1.229 0.734-2.155-1.36 0.087-2.903 0.609-4.327 1.17-1.322 0.521-2.773 1.089-4.092 1.652-1.286 0.548-2.458 1.877-3.85 1.413-0.029-1.721 1.334-2.031 1.465-3.59 3.66-2.531 7.683-5.487 11.338-8.322 0.473-0.366 0.772-0.839 1.448-1.189 0.685-0.355 1.343-1.839 2.177-2.385 1.146-0.751 3.615-1.32 5.053-1.885 4.664-1.831 8.856-4.722 13.25-7.108 0.68-0.195 0.62 0.341 1.2 0.246z"></path> <path style="clip-rule:evenodd;fill-rule:evenodd" d="m50.032 40.66c0.408 0.091 0.454-0.184 0.483-0.477 3.806 1.966 6.946 4.591 10.755 6.555 0.348 1.545 3.104 6.622 2.577 9.138-0.206 0.982-1.739 2.526-2.659 2.622-2.397 0.249-2.284-2.518-4.781-2.673-0.209-0.776 0.785-0.332 0.965-0.713 0.167-1.12 0.393-2.18 0.503-3.356-1.837 0.108-4.211-2.857-6.695-3.647-1.219 2.631-1.103 6.617-2.94 8.62-1.949-0.124-3.578 0.078-4.805 0.687-2.814 3.672-5.943 7.024-8.477 10.981-0.43 0.027-0.503-0.298-0.958-0.247-0.584 0.573 0.579 0.64 0.229 1.682-4.099 4.303-7.587 9.225-10.899 14.325-1.18 0.288-3.226 0.198-5.282 0.204-0.791-2.319-3.139-3.102-3.56-5.785 0.748-0.297 1.789-0.44 2.401-0.223 0.06-1.815 0.161-4.282 0.045-6.48 5.447-8.655 8.137-20.107 13.64-28.706-0.8-0.648-2.269 1.137-3.124 0.458-0.879-1.363 0.977-2.244 1.463-3.35 0.607-1.38 0.211-3.081 1.229-4.312 0.12-0.753-0.292-0.983-0.711-1.205 1.456-2.316 2.848-4.518 5.547-3.801 1.329 0.353 3.422 2.62 4.776 3.393 1.754 1.001 3.588 1.716 5.262 2.677 1.757 1.009 3.411 2.128 5.021 2.675 0.398 0.478-0.022 0.303-0.005 0.958z"></path> <path style="clip-rule:evenodd;fill-rule:evenodd" d="m182.68 51.421c-1.133 0.703-2.555 1.109-4.812 1.646-2.712 0.646-4.322 1.078-6.236-0.523-0.534-0.929 0.291-1.107 0.255-2.158-0.035-1.274-1.501-1.737-0.94-2.887 2.063 0.717 4.369-1.69 6.732-1.633 1.95 0.047 6.35 2.782 5.01 5.555z"></path> <path style="clip-rule:evenodd;fill-rule:evenodd" d="m166.75 64.751c-0.498-1.079 0.009-1.914-0.219-2.882-0.364-1.542-1.552-2.384-2.134-3.855 1.302-4.106 9.005-5.545 11.29-1.362-0.733 1.001-0.101 2.826-0.751 4.315-1.95 2.054-4.11 3.894-8.19 3.784z"></path> <path style="clip-rule:evenodd;fill-rule:evenodd" d="m103.19 58.79c1.281 1.907 0.768 6.43-0.535 7.917-4.453 0.882-6.898 3.8-8.93 7.138-0.373 0.761-0.092 1.055-0.013 1.92-1.281 0.661-2.336 1.543-3.617 2.375-2.007 1.304-3.644 2.835-6.25 1.396-1.176-0.65-2.872-2.498-4.054-3.628-2.876-2.75-5.729-5.842-6.888-10.368 4.436 1.027 8.174 2.744 11.486 4.879 6.005-4.135 10.722-9.584 18.796-11.629z"></path> <path style="clip-rule:evenodd;fill-rule:evenodd" d="m156.03 52.436c0.351 1.455-1.612 2.516-1.472 4.55-1.743 1.162-1.572 3.232-3.151 4.538-2.447 2.025-6.68 1.5-9.861 3.052-0.897 0.249-0.374-0.903-1.195-0.729-0.938 0.211 0.789 0.89-0.007 0.96-4.016 2.123-9.464 1.53-12.229-1.525-0.615 0.902 0.796 1.5 0.943 2.407-0.709 2.182-3.738 2.01-5.065 3.565 2.778 0.479 4.374-2.331 6.741-3.073 1.259 0.161 2.274 1.1 3.353 1.223 4.065 0.466 8.077-3.174 12.018-2.557 1.361-0.643 1.793-1.847 4.57-1.408 0.505 0.08 0.862 0.569 1.435 0.73 1.369 0.386 2.969-0.178 3.84 0.027 1.656 0.39 3.036 2.497 4.542 2.671 1.934 0.224 3.744-1.542 5.771-1.64 1.139-0.055 4.174 0.839 5.028 1.714 2.486 0.252 4.588-0.003 7.439 0.052 0.613-1.393 1.441-2.567 2.187-3.825 2.108 1.02 3.606 2.64 5.494 3.878 1.436-0.388 2.372-0.102 3.114 0.742 0.164 0.892-0.417 1.027-0.253 1.918 0.764 0.518 1.739 0.827 3.114 0.742-0.35-0.846-1.52-0.884-2.392-1.217 0.496-1.085 0.434-2.933-0.939-2.886 0.688-2.175 2.615-0.604 5.048-1.166 1.191 1.922-0.594 4.173-1.478 5.51 1.257 0.031 2.157 0.414 3.598 0.265 0.2 0.915 0.639 1.595 0.46 2.883 6.257-0.142 13.116-1.219 19.454-2.025-0.261-1.018-1.06-0.233-1.678-0.251-4.229-0.124-11.238 0.509-16.806 0.843-0.521-0.441 0.056-1.962-0.464-2.403-0.895 0.025-2.125 0.569-2.642 0.222 0.252-1.92 1.742-2.584 1.236-5.271 7.851-0.477 15.711-2.95 22.802-0.082 0.421 1.934 0.218 3.889 0.441 5.523-0.331 0.792-1.346 0.892-2.169 1.185 0.495 0.222 1.227 0.191 1.915 0.733 0.127 3.841 0.062 7.603-0.322 11.998-1.041 0.65-2.271-0.173-3.36-0.023-0.468 0.064-0.737 0.44-1.204 0.471-15.046 1.025-32.257-3.367-47.023-2.486-5.921-5.232-16.08-4.278-22.497-9.036-0.363-1.788-1.427-2.884-1.406-5.05 0.906-1.016 2.464-1.37 2.9-2.86-1.055-0.046-1.465 0.991-2.169 1.425-0.381 0.235-1.218-0.094-1.206 0.712-1.879-0.238-3.682 1.917-6.496 2.355-1.701 0.265-4.141-0.158-6.24-0.043-3.225 0.176-5.357 1.265-6.717-0.527-0.134-1.022 0.185-1.586 0.257-2.398-1.46-0.111-1.615 1.101-3.126 0.938-0.41-1.593 0.329-3.981 0.758-5.515-1.212-0.497-3.939 2.034-5.042 0.205-0.455 0.344-1.067 0.529-0.97 1.434 0.898 0.601 3.172-0.562 4.08 0.028 0.389 1.298-0.174 2.129-0.028 4.08-0.126 0.677-1.363 0.229-1.446 0.95 0.842 0.073 2.491-0.452 3.115 0.741 0.679 0.044-0.189-1.48 0.489-1.437 0.4 0.003 0.8 0.006 1.2 0.008 0.78 0.584 0.254 1.374 0.224 2.402 0.199 0.567 0.596-0.657 1.441-0.23-1.04 3.134-5.959 2.336-7.951 4.505-2.291-0.754-3.511 0.807-5.056 2.125-2.281 1.946-5.32 4.533-9.154 4.977 0.406-4.906 4.204-6.371 5.592-10.281 0.363-0.357 1.014-0.422 1.207-0.952-0.526-3.769 1.891-6.233 3.899-8.613 1.463-1.734 2.979-3.566 6.026-3.798-0.167 1.845-2.082 1.917-2.425 3.583 1.184-0.414 2.823-2.452 3.866-3.813 4.208-1.535 8.043-0.272 12.48 0.086 0.714 2.314 2.171 3.896 1.869 7.213 1.852-1.086 4.175-3.397 6.512-4.515 0.323-0.154 0.848-0.95 1.208-1.192 1.98-1.329 4.173-1.966 4.358-5.49 1.284-0.471 1.686-1.835 3.611-1.655-0.063 1.374-0.149 1.569-0.261 3.119 2.28 0.193 4.29-3.202 6.26-3.316zm-39.74 20.125c1.823-0.772 3.426 0.635 4.567-1.168-1.04-0.819-1.371 0.753-2.643 0.461-0.763-0.335-1.09-1.361-0.705-2.165-0.24-0.001-0.48-0.003-0.721-0.005-0.03 1.101-0.63 1.626-0.51 2.877zm-5.29 1.163c-0.907-0.564-1.532-2.043-2.388-1.697 0.273 1.717 1.436 2.556 3.583 2.425 0.07-0.814-0.75-0.455-1.19-0.728zm-3.36 0.457c-1.344 2.182-3.209 3.836-4.125 6.452 2.951-1.278 5.437-3.027 7.476-5.228-1.35-0.184-1.88-1.171-3.36-1.224z"></path> <path style="clip-rule:evenodd;fill-rule:evenodd" d="m44.605 61.743c0.997 1.322 1.108 3.516 1.885 5.053-2.26 1.897-2.509 5.834-4.376 8.13 1.596 0.03 2.488-0.442 3.598 0.265-0.245 1.161 0.641 2.054-0.02 2.88 1.586 0.661 4.639-0.126 6.236 0.523 1.255 1.264 0.419 4.32 0.44 5.763-7.532 0.201-15.21-0.114-21.121 0.094-2.198 0.077-5.107 1.507-6.475-0.765 1.882-2.991 4.141-5.754 6.299-8.597 2.083-2.742 3.56-6.201 6.537-8.115-0.686-0.339 0.349-0.66 0.244-0.478 1.061-1.821 2.803-5.046 6.753-4.753z"></path> <path style="clip-rule:evenodd;fill-rule:evenodd" d="m19.673 57.73c-0.002 3.266-0.343 4.701-0.294 7.918-1.993 0.582-3.798-0.781-5.753-1-0.04 4.629-0.142 9.488-0.341 14.638 0.681 1.95 2.544 2.733 3.086 4.821-2.038 0.431-4.549 0.382-6.725 0.674-3.049-2.396-6.125-4.765-9.07-7.264-1.138-6.874 0.225-14.519-0.576-20.884 3.785-1.802 6.995-4.187 10.842-5.925 2.846 2.438 6.364 4.212 8.831 7.022z"></path> </g> <metadata></metadata></svg> 