<?xml version="1.0" encoding="UTF-8" standalone="no"?> <!-- Generator: Adobe Illustrator 13.0.2, SVG Export Plug-In . SVG Version: 6.00 Build 14948) --> <svg xmlns:rdf="http://www.w3.org/1999/02/22-rdf-syntax-ns#" xmlns="http://www.w3.org/2000/svg" xmlns:cc="http://web.resource.org/cc/" xmlns:xlink="http://www.w3.org/1999/xlink" xmlns:dc="http://purl.org/dc/elements/1.1/" xmlns:svg="http://www.w3.org/2000/svg" xmlns:inkscape="http://www.inkscape.org/namespaces/inkscape" xmlns:sodipodi="http://sodipodi.sourceforge.net/DTD/sodipodi-0.dtd" xmlns:ns1="http://sozi.baierouge.fr" id="rooster_with_a_saddle_xA0_Image_1_" style="enable-background:new 0 0 158.511 153.155" xml:space="preserve" viewBox="0 0 158.511 153.155" y="0px" x="0px"> <g> <path style="clip-rule:evenodd;fill-rule:evenodd" d="m156.28 93.463c1.033 0.301 1.191 1.479 2.225 1.779 0.014 4.926 0.119 7.439-1.779 10.674-4.745 1.036-5.862 5.702-8.007 9.341-2.731-2.686-0.816-9.022 0.445-12.008 1.65-3.91 5.36-7.158 7.12-9.787z"></path> <path style="clip-rule:evenodd;fill-rule:evenodd" d="m157.61 109.03c-0.093 2.87-1.405 4.524-2.667 6.229h-1.779c-1.8-3.41 1.75-8.71 4.45-6.23z"></path> <path style="clip-rule:evenodd;fill-rule:evenodd" d="m99.793 68.556c2.175-0.658-0.443-2.197-0.443-3.114 0-3.322-2.604-8.035-1.779-14.233 0.154-1.163 0.768-2.541 1.334-4.002 1.059-2.734 1.687-3.401 3.112-5.782 1.968-3.284 4.599-5.99 8.007-8.451 2.96-2.137 8.924-5.034 14.678-4.447 0.827 0.083 1.733 0.937 3.112 1.333 1.193 0.344 3.076 0.075 4.004 0.445 1.109 0.443 1.909 1.877 3.112 2.224 2.176 0.625 4.562 0.025 6.673 0.444 3.476 0.69 6.917 3.329 9.34 6.227 2.881 3.45 6.757 9.873 6.671 16.013-0.012 0.898-0.703 1.369-0.888 2.224-0.977 4.499-0.39 9.398-1.779 13.788-0.331 1.04-1.356 2.08-1.779 3.112-2.619 6.364-4.643 14.404-7.562 21.351-0.993 2.363-2.575 4.118-1.778 7.562-1.457 0.486-0.994 5.103-1.779 7.561 1.324-0.705 1.444-2.745 1.779-4.004 0.654-2.475 0.476-4.311 1.333-7.561 1.02-3.86 3.262-7.127 4.892-10.674 1.715-3.732 1.633-8.339 4.895-10.676 2.289 0.396 2.08 6.565 1.334 9.785-0.238 1.027-1.258 3.451-2.225 4.448-0.282 0.292-1.109 0.094-1.334 0.443-0.99 1.536-2.526 4.269-3.558 6.673-0.693 1.613-0.691 3.74-1.335 5.337-0.415 1.032-1.492 1.749-1.779 2.668-1.132 3.619-0.339 6.559-2.668 9.785-6.032-2.294-3.849-12.03-3.559-18.681-4.129 3.335-0.285 10.982-2.225 15.123-8.511-0.161-10.145-9.324-9.785-16.902-1.753-3.584-5.012-5.662-7.562-8.449-0.359 2.647 4.254 4.263 4.894 8.004 0.43 2.51-0.41 5.679-1.779 8.007-3.704-1.78-5.697-5.274-9.339-7.116-0.493 2.235 4.768 4.12 3.558 7.116 1.871 1.239 4.374 7.441 3.558 12.01-0.403 2.257-2.494 3.527-2.669 5.337-2.481-1.334-1.904-4.504-2.668-6.672-1.735-4.921-5.303-8.73-9.34-11.12 0.217 2.467 3.536 8.356 0 11.12-2.245-2.205-3.499-5.397-6.673-6.671-1.316 0.463-2.168 1.39-3.113 2.224 1.499 3.167 3.996 9.342 2.225 12.898-2.221-0.004-2.449-1.999-3.114-3.559-2.062 2.219-7.686 7.474-6.671 11.563 0.783 3.162 5.003 3.021 8.006 2.669 0.299 4.431-8.03 4.354-10.23 2.225-1.567 0.895-3.531 2.135-3.559 3.558-0.104 5.653 10.217 1.92 13.789 3.113 1.645-0.312 1.109 1.561 1.779 2.225 1.006 1.81 3.572 2.062 3.112 5.337-4.642 2.361-9.197-0.829-13.787-0.445-3.32 0.279-6.314 2.486-11.12 2.67-3.723 0.141-7.453-0.223-11.12 0-3.467 0.209-7.083 1.318-10.674-0.445-0.513-2.143 2.068-1.193 2.224-2.668-2.232-1.043-4.801 0.745-5.782-1.778 0.053-3.061 3.778-2.449 4.448-4.895-2.957 0.082-6.492-0.783-9.786-0.445-2.193 0.227-4.319 2.019-8.451 1.336-0.689-0.114-1.734-0.85-2.668-0.891-5.811-0.249-10.986 4.204-16.011 2.225-0.445-1.926 0.497-2.469 0.888-3.559-2.015-0.899-3.85 1.69-5.781-1.333 0.728-4.018 4.096-5.394 8.451-5.783 2.128-1.371 4.382-3.281 7.116-3.114 2.096 0.129 3.571 1.941 5.336 2.224 2.731 0.439 7.066-0.108 8.451-1.333 3.452-3.054 6.529-7.622 10.23-12.454-3.696-2.947-8.678-3.598-12.453-6.227-3.751-2.612-6.595-6.293-8.896-10.229-6.913-2.576-12.129-6.849-14.233-14.235-2.446 1.709 0.362 4.658 0.891 6.229-4.641 0.521-7.108-4.668-7.117-10.23-1.696-0.212-0.906 2.059-3.114 1.335-1.482-1.779-1.061-5.462-1.779-8.006-3.369 0.486-1.759 5.95-5.337 6.227-2.982-1.196-1.754-6.703-1.334-8.896 2.654-13.86 13.304-24.531 23.129-31.58 0.712-1.75-1.922-0.155-1.779-1.335 0.507-6.905 7.995-6.829 9.784-12.453 2.469-1.387 5.403-2.307 6.227-5.338 2.99-1.162 5.575-2.729 7.562-4.892-1.408-2.15-4.785-2.332-6.672-4.003 3.057-4.356 10.528-4.298 12.009-10.23-0.016-1.911-2.363-1.491-1.779-4.002 1.942-0.134 3.689-0.462 4.893-1.334 3.812 2.697 9.017-1.012 13.788-0.445 2.078 0.102-0.958 1.324-0.444 2.669 2.768-0.887 3.789 0.029 4.892 1.779 3.649-1.115 6.368 0.526 8.006 2.668 0.703 1.74-1.154 0.921-1.334 1.779 0.754 1.025 2.97 0.589 3.558 1.779 0.174 2.991-2.882 2.75-2.668 5.783-1.779 0.296-3.048 1.103-4.448 1.779-2.284-0.946-6.049-3.208-7.562 0 0.477 6.11-1.604 9.665-2.668 14.233-2.325 0.788-2.989 3.237-4.448 4.892 2.999 4.241 4.632 11.574 3.558 17.346 4.014 0.751 4.395-2.129 6.227-3.559-0.716-1.507-3.708-0.739-4.002-2.668-0.925-6.734 13.047-1.811 13.343 0.889 0.356 3.268-6.422 4.054-6.227 8.007 0.08 1.625 4.098 4.71 6.227 5.782 1.56 0.786 6.62 2.932 8.896 2.669 3.463-0.402 3.592-4.158 8.451-3.559 2.608 0.34 0.908 5.004 2.682 6.196zm-36.025-61.825c1.107-1.56 2.156-3.18 2.668-5.337-0.569-0.024-0.616-0.57-1.335-0.444-0.288 1.801-2.142 4.362-1.333 5.781zm-2.67 0.89c0.681-1.417 3.108-4.747 1.334-5.782-1.297 0.8-3.51 4.344-1.334 5.782zm-10.23 1.779c2.786-0.159 4.939-6.383 1.78-7.116-0.007 2.506-0.769 4.594-1.78 7.116zm6.228-2.224c2.089-0.132 2.679-2.616 2.224-4.003h-1.779c0.136 1.621-0.072 2.895-0.445 4.003zm-1.78 0.445c0.617-0.309 1.916-3.547 0-3.558 0.625 1.556-1.248 2.848 0 3.558zm8.895 3.113c1.729-1.978 4.155-3.258 4.893-6.227-2.428-0.872-6.169 4.842-4.893 6.227zm2.225 0.446c3.434-1.31 8.774-0.715 10.229-4.003-4.069-2.73-9.271 0.697-10.229 4.003zm-3.114 5.337c-3.256 1.488-4.467 5.022-9.34 4.893 0.703 7.668-2.897 17.068-6.227 24.462-1.215-1.305-2.082-2.96-4.448-3.114-1.983 1.28-2.209 4.315-4.449 5.338-2.632-2.064-5.542 1.373-9.784 0.444-0.091-1.392 0.299-3.265-0.445-4.002-9.822 5.479-18.729 22.245-11.119 35.582 1.654 0.17 1.163-1.803 3.114-1.334 1.739 0.188 1.311 2.545 3.114 2.669 0.44-1.948-0.974-2.872 0.889-4.448-1.823-9.089-0.541-21.176 5.783-24.908 0.985 2.947-1.888 5.396-2.669 8.451-1.243 4.861-0.683 10.192-0.89 16.012 0.718 1.3 2.293-0.709 2.669 0.445 0.142 1.18-2.492-0.416-1.779 1.334 1.19 5.063 6.761 8.03 11.564 8.006-1.388-3.654-3.405-6.677-4.893-10.231 1.055-0.874 3.095-0.759 4.003-1.779-2.205-7.353 3.805-5.288 6.227-2.668 1.953-5.223-3.161-6.806-4.448-10.229 5.505-1.241 10.14 1.936 12.454 5.338 0.691-2.781-2.26-4.247-0.89-6.228 1.791-0.307 1.092 1.873 2.669 1.779 0.841-0.79 0.002-3.259 1.779-3.113 1.544 1.569 1.671 4.555 4.002 5.337 0.731-3.256 2.204-7.315 2.224-11.564 0.022-4.479-1.161-10.14-3.558-12.453-1.608 0.764-0.285 4.459-2.668 4.448-1.864-1.412-0.094-4.06 0.444-5.337 2.201-5.219 6.553-8.397 8.006-13.343 1.029-3.504 0.774-7.457 0.89-12.009-2.361-1.346-3.768-3.645-5.782-5.337-2.11 0.262-4.634 0.11-5.782 1.335 0.776 0.409 0.982 1.39 0.89 2.668 2.35-0.601 9.62-2.594 8.45 3.556zm6.227-3.558c3.28-1.521 8.285 2.398 9.34-1.779-2.55-1.187-7.727-0.535-9.34 1.779zm-17.346-0.89c-0.568-0.024-0.617-0.57-1.335-0.445-0.691 1.095 1.511 1.308 1.335 0.445zm-7.561 1.78c0.239 1.36 3.197 1.473 4.003 0.889 0.24-2.183-2.94-1.21-4.003-0.889zm25.352 0.443c-0.517-0.373-1.193-0.586-2.225-0.444-0.259 1.804 1.83 1.413 2.225 0.444zm2.223 0.446c0.977 0.507 1.818 1.147 3.558 0.89 0.242-1.698-3.591-2.111-3.558-0.89zm-10.674-0.446c-1.207 0.276-3.53-0.564-4.003 0.445 0.975 0.443 4.041 1.988 4.003-0.445zm-3.558 3.559c-0.099-1.977-2.802-1.349-3.558-2.668-0.179 2.141 1.697 3.977 3.558 2.668zm-12.898-0.89c3.036 0.225 3.519 3.004 5.781 4.003 0.625-1.84-1.269-3.436 0-4.447 1.629 0.001 0.652 2.609 2.668 2.223 0.218-1.403-0.801-1.57-0.444-3.113-3.303 0.648-5.124 1.007-8.005 1.334zm2.223 7.118c1.173 0.134 1.147-0.93 1.335-1.78-0.569-0.024-0.616-0.57-1.335-0.445v2.225zm-1.334 3.112c0.643-0.772 0.188-3.145-0.889-3.558 0.137 1.345-0.494 3.46 0.889 3.558zm5.782-0.889c0.821-0.874-0.39-2.222-1.334-2.668-0.825 0.877-0.661 3.274 1.334 2.668zm-8.006 2.668c0.978-1.007-0.117-3.716-0.89-4.448-0.436 1.228-0.645 3.957 0.89 4.448zm-3.114-0.889v-0.89c-0.82-1.477-2.168 1.336 0 0.89zm6.672 3.114c0.713-1.239-1.921-1.23-1.779-0.446 0.774-0.033 1.384 0.1 1.779 0.446zm-12.009 1.778c1.925-0.002 2.823-1.032 4.893-0.89-0.424-1.806-4.642-0.373-4.893 0.89zm11.119 0.445c0.713-1.239-1.921-1.23-1.779-0.445 0.775-0.033 1.384 0.1 1.779 0.445zm3.559 1.78c-0.054-1.162-2.199-2.505-3.113-1.335 1.719-0.23 1.753 2.563 3.113 1.335zm-20.46 1.333c1.269-0.026 7.507-1.007 7.117-2.668-1.394 1.868-6.13 0.393-7.117 2.668zm16.457-1.333c-1.296-0.008-2.631-2.25-3.114-0.446 1.537-0.606 2.097 1.999 3.114 0.446zm97.404 8.895c2.068 0.748 1.054 4.581 3.558 4.893-1.112-6.152-2.422-12.108-8.006-13.788 1.09 3.36 4.19 4.713 4.45 8.895zm-110.75-6.227c-1.582 0.512-3.819-0.186-4.447 1.779 2.529 0.157 3.807-0.938 5.337-1.779 2.289-0.529 5.393-0.24 6.227-2.225-2.546-0.074-4.962 1.526-7.117 2.225zm16.457-0.445c0.312-1.646-1.559-1.11-2.223-1.78 0.083 1.253 0.774 1.896 2.223 1.78zm64.491 4.893c2.375-1.316 4.354-3.602 8.007-4.003 4.92-0.541 7.345 1.994 9.783 1.778-3.64-5.496-16.37-5.142-17.79 2.225zm-70.272-4.893c0.712-1.239-1.921-1.23-1.779-0.445 0.6 0.14 0.848 0.633 1.779 0.445zm4.002 1.779c-0.327-0.888-2.473-2.231-3.113-1.333 0.885 0.596 2.116 0.847 3.113 1.333zm-15.567 1.779c2.413-0.998 6.199-0.621 7.562-2.668-2.995 0.416-5.666 1.154-7.562 2.668zm-0.445 3.114c2.328 0.223 6.876-2.002 8.451-3.558-2.808 1.195-7.128 0.876-8.451 3.558zm-2.669-1.779c1.356 0.021 2.265-0.405 2.668-1.335-1.324 0.009-2.708-0.041-2.668 1.335zm6.228 2.668c2.084 0.01 4.541 0.39 4.447-1.779-1.747 0.329-2.976 1.175-4.447 1.779zm37.806 6.227c-0.795 2.852-4.017 3.933-4.893 6.671-0.447 1.399-0.856 5.491-0.444 7.562 1.09 5.491 12.24 11.12 18.68 11.12 3.033 0 7.307-0.619 8.006-3.558-10.262-2.637-21.328-4.469-24.017-14.678 1.393-3.795 4.113-6.265 6.671-8.896-2.02-1.241-4.298-2.225-7.561-2.223 0.497 2.022 3.509 1.531 3.558 4.002zm43.147 22.684c2.299-1.111 3.093-3.727 4.004-6.227 2.387-1.616 3.537-4.467 4.892-7.117 1.877-0.502 2.634-2.5 4.004-3.559 1.614-1.247 3.486-1.56 4.892-3.113-11.37 1.231-13.59 11.603-17.78 20.016zm-112.53 4.003c2.17 0.705 2.636-3.793 5.337-4.003 1.868 0.802 0.041 5.297 1.779 6.227 0.46-1.616 1.972-2.179 2.668-3.558-2.398-7.24-1.074-16.16 3.114-21.349-0.051-0.543-0.133-1.054-0.89-0.89-5.953 5.905-10.2 13.521-12.008 23.573zm108.08-11.564c-0.14 1.578-0.805 4.681 0.891 5.337-0.292-7.259 2.933-11.001 4.892-16.011-0.098-0.346-0.372-0.517-0.891-0.445-2.02 2.689-4.47 6.378-4.89 11.119zm-48.038-5.337c1.717-0.062 1.821-1.737 1.779-3.558-1.458 0.32-1.736 1.821-1.779 3.558zm72.058 8.45c2.25 0.083 3.985-3.956 5.338-6.227-2.87-0.553-3.72 4.123-5.34 6.227zm-52.044-1.335c3.805 1.405 8.403 2.538 12.01 1.779 0.222-1.741 2.286-3.389 0.89-5.337-2.527 0.963-3.056 3.118-5.783 3.558-4.743 0.768-9.789-3.115-13.787-4.003 1.304 1.649 4.111 3.058 6.67 4.003zm44.474 3.115c2.33-0.542 5.133-4.669 3.559-6.228-1.23 2.024-2.99 3.532-3.56 6.228zm19.13 4.447c3.16-1.733 3.835-5.95 6.228-8.451-0.199-0.841 0.604-2.68-0.891-2.225 0.09 5.17-5.89 6.523-5.34 10.676zm-83.172-7.562h0.889c0.025-0.568 0.57-0.616 0.445-1.333h-1.333c-0.001 0.444-0.001 0.89-0.001 1.333zm0.443 4.004c0.689-1.09 2.12-1.44 2.669-2.668-2.027-0.384-4.554 1.903-2.669 2.668zm34.248 3.558c1.301-1.381 1.16-5.258-0.889-5.783-0.531 1.205 0.59 3.992 0.889 5.783zm-36.026 1.334c1.932-1.347 6.917-3.826 5.337-5.782-1.749 1.957-4.864 2.548-5.337 5.782zm-1.78 6.227c3.748-2.628 6.837-5.914 10.23-8.896-0.095-0.499-0.495-0.692-0.89-0.889-3.168 3.207-7.871 4.879-9.34 9.785zm21.35-4.447c1.752 0.833 4.254 1.937 7.116 1.779 3.411-0.189 7.949-2.548 6.227-4.893-2.474 3.089-9.27 2.943-13.343 3.114zm-16.457 2.223c-0.761 3.241-4.997 3.008-4.893 7.117 4.319-1.761 6.133-6.025 9.341-8.896 1.598-0.625 3.172-1.275 3.558-3.114-3.864 0.437-4.944 3.656-8.006 4.893zm75.614-0.889c0.685 2.294 0.527 5.1 0 7.115-0.968 3.682-4.105 8.089-2.67 10.231 3.484-5.764 6.425-12.184 6.672-20.015-0.567-0.024-0.616-0.57-1.333-0.445-0.09 1.843-2.35 1.506-2.67 3.114zm-59.602-2.224c-1.014 0.611-1.671-1.147-1.779 0 0.273 0.13 1.712 1.106 1.779 0zm14.233 6.227c-0.479 0.627-1.567 1.146-2.224 1.779-0.733 0.709-1.123 1.612-1.778 2.225-1.372 1.277-3.456 2.077-4.894 3.558-0.911 0.938-1.332 2.52-2.225 3.559-0.981 1.146-2.781 1.322-2.667 3.112 2.591 0.697 4.148-2.371 5.781-4.004 1.802-1.8 4.059-3.408 5.337-5.337 1.106 0.069 1.378-0.698 2.225-0.888 1.546-3.644 5.633-4.745 5.782-9.786-0.094-0.499-0.494-0.693-0.891-0.89-2.423 1.617-2.794 4.509-4.449 6.672zm-79.615 4.891c0.961-4.946 1.176-9.112-2.669-11.118 0.165 4.431-0.057 9.249 2.669 11.118zm59.599-5.337c0.799-1.275 1.419-2.731 1.335-4.892-0.884-0.006-0.566-1.213-1.779-0.89 0.257 1.544-1.909 5.368 0.444 5.782zm50.705 0.446c1.219-1.061-0.867-2.85 0.445-4.003-1.37 0.331-0.857-1.221-2.225-0.89-1.13 1.808 0.14 4.437 1.78 4.893zm-63.604 5.782c3.79-1.192 5.124-4.654 8.007-7.115 0.257-0.222 1.04 0.175 1.333 0-0.255-0.783 0.538-2.615-0.444-2.67-3.095 3.13-6.245 6.208-8.896 9.785zm16.013-7.562c1.132-0.055 1.725-0.646 1.779-1.778-1.393-0.206-1.985 0.387-1.779 1.778zm0.89 3.114c2.626-0.191 4.237-1.396 4.448-4.002-2.669 0.147-3.906 1.726-4.448 4.002zm13.788-4.002c-0.082 0.657-1.074 0.408-1.778 0.443-0.745 1.479-2.04 2.409-2.669 4.004-1.657 0.877-3.179 2.241-4.449 3.558-1.124 1.168-2.874 2.979-3.113 4.892 2.768-0.732 3.904-3.63 5.783-5.337 2.439-2.215 5.192-3.953 7.116-6.671-0.052-0.544-0.133-1.053-0.89-0.889zm-9.34 4.447c-1.654 0.098-3.925 2.896-1.78 4.003 1.133-3.316 5.17-3.726 6.228-7.115-2.238-1.311-3.791 1.411-4.448 3.112zm49.813 0.445c0.098 1.432-0.787 1.883-0.445 3.558 2.287-1.42 2.071-3.976 3.112-5.782-2.61-0.011-0.66 4.63-2.67 2.224zm-61.823-0.89c-0.697 4.508-6.179 7.914-7.116 12.453-1.922 9.314 6.728 13.976 15.123 10.231 0.013-7.646-1.638-13.557-0.89-20.906-2.32-0.643-4.311-1.618-7.117-1.777zm18.681 8.006c-1.212 1.173-1.966 2.792-3.113 4.003-1.14 1.203-3.395 1.831-3.114 3.559 3.41-0.445 4.011-3.7 6.228-5.337 2.532-1.7 4.628-2.881 6.673-4.895 1.296-1.275 3.258-2.986 2.667-5.337h-1.333c-1.362 4.273-5.314 5.402-8.009 8.012zm8.452-2.67c-1.544 1.971-3.434 3.739-5.339 5.337-1.888 1.588-4.525 2.728-5.337 5.339h2.669c3.001-3.375 7.295-5.455 8.895-10.23-0.1-0.346-0.374-0.519-0.89-0.447zm-4.004 10.677c2.722-0.984 4.962-2.452 5.782-5.339-0.094-0.497-0.494-0.691-0.891-0.888-0.932 2.549-5.179 3.918-4.894 6.227zm-24.018 15.57c2.571 0.199 1.993-2.753 2.225-4.893-0.568-0.024-0.616-0.569-1.335-0.444-0.452 1.5-1.849 3.81-0.89 5.33zm17.346 6.22c-0.394-2.87-2.846-3.679-5.338-4.448-0.581 2.07 2.989 5.27 5.338 4.45zm-21.348 3.56c3.84 0.879 8.336 0.418 11.563 0.89-0.944-3.505-3.065-5.83-4.893-8.451-4.842-0.1-5.734 3.75-6.67 7.56zm-7.118-6.23c-0.535-0.681-3.195-1.51-4.002-0.445 0.62 0.53 3.53 2.65 4.002 0.45zm17.792 0.45c1.246 0.684 0.565 3.291 2.669 3.113 0.168-1.319 1.094-3.224 0.445-4.003-1.406-0.07-2.685-0.02-3.114 0.89zm-18.236 6.67c0.794 2.881 4.317 0.937 5.337 4.002-1.868 2.55-7.237 1.939-9.785 0.446-1.4 0.972-2.452 2.293-3.113 4.003 2.42 1.79 6.472-0.807 8.45 1.334-0.038 2.334-3.006 1.739-3.113 4.003 1.947 1.021 2.868-2.334 4.893-2.67 3.648 1.372 7.127 0.233 11.12 1.337 0.757-4.137 3.548-6.239 4.893-9.786-5.643-0.51-12.061 1.436-13.789-2.225-1.385-2.932 1.522-3.782 1.78-7.561-3.649 0.46-7.505 4.11-6.673 7.13zm-4.892-4.89c0.517 0.373 1.192 0.587 2.224 0.445 0.171-1.38-2.142-1.81-2.224-0.44zm32.023 3.56c-0.148-1.927-2.23-1.921-3.559-2.667-0.076 2.04 2.115 3.56 3.559 2.67zm-30.245-0.89c-0.711-0.772-2.001-0.965-3.558-0.892-0.323 1.46 3.45 2.72 3.558 0.89zm-5.337 1.78v1.334c3.421-0.159 4.707 1.815 7.561 2.225-0.36-3.12-5.941-3.15-7.561-3.55zm31.579 2.66c0.217 0.615 4.011 1.081 3.559-0.444 0.094-1.72-3.985-1.01-3.559 0.44zm-30.689 0.89c-0.791-0.396-1.13-1.242-2.668-0.891-0.178 1.49 2.397 2.49 2.668 0.89zm28.021 1.34c0.158 2.229 4.09 3.764 4.447 0.889-1.463-0.25-2.984-2.03-4.447-0.89zm-30.245 2.22c0.212-1.99-1.332-2.226-3.113-2.224-0.488 2.26 1.442 2.11 3.113 2.22zm37.806-0.44c-0.188-0.85-0.16-1.915-1.334-1.778-0.126 1.16 0.162 1.91 1.334 1.78zm-50.704 2.67c-0.45-1.614-2.682-0.969-4.003-1.336-1.406-0.39-2.922-1.592-4.448-1.334-0.345 0.1-0.877 0.014-0.89 0.445 2.824 0.8 6.679 2.72 9.341 2.23zm41.808 0.89c1.454 0.074 2.876 1.029 3.114-0.889-0.931-0.851-2.125-1.436-3.559-1.779-0.32 1.36 0.455 1.62 0.445 2.67zm-36.916 3.11c0.128-1.055-1.39-3.812-2.224-5.337-2.005 1.83 0.089 4.94 2.224 5.34zm1.335-0.89c2.126-0.201 1.875-0.201 4.002 0-0.709-1.811-3.663-1.377-3.558-4.003h-1.335c-0.234 1.86 0.777 2.48 0.891 4zm6.227-2.22c-0.321-1.459-1.822-1.735-3.559-1.779-0.032 1.81 1.644 1.91 3.559 1.78zm-29.801 1.33c2.497 0.754 2.815-2.052 0.444-1.778-0.139 0.6-0.632 0.85-0.444 1.78zm3.558-1.33c-0.094 1.322 1.586 1.569 2.224 0.891 0.312-1.55-1.558-1.6-2.224-0.89zm5.783 3.55c1.009-0.472 0.169-2.795 0.444-4.003h-1.334c-0.58 0.8-1.122 4.42 0.89 4zm4.447-1.33c0.31-1.645-0.704-1.965-2.224-1.778-0.567 1.96 1.12 2.83 2.224 1.78zm43.144 0.45c1.277 0.694 3.091 1.384 3.558-0.446-1.624-0.007-1.998-1.265-3.113-1.778-0.375 0.52-0.587 1.19-0.445 2.23zm-38.697 0c0.204-1.391-0.95-1.424-2.223-1.337-0.033 1.33 1.309 2.25 2.223 1.34zm14.234-0.45h1.333c0.058-0.798-0.442-1.04-1.333-0.891v0.89zm-29.355 2.67c1.629 0.148 2.471-0.492 3.558-0.889 0.023-0.766-0.343-1.14-0.89-1.333-0.616 1.01-3.269-0.01-2.668 2.22zm39.14 0c0.765 0.025 1.14-0.342 1.334-0.889-0.698 0.04-1.542-0.06-1.334 0.89zm12.899-0.45c-0.052 3.061 6.788 3.86 7.56 0.889-2.371-0.03-6.122-0.46-7.56-0.89zm-8.451 0.89c0.661 0.7 1.987 0.496 1.779-0.889-1.014-0.12-1.672 0.11-1.779 0.89zm3.113 1.34c1.392-0.09 3.266 0.301 4.003-0.442-0.146-2.55-3.906-1.76-4.003 0.44zm-13.788 2.67c1.821 0.479 2.343 0.217 4.003 0-0.116-1.301 1.005-1.366 0.889-2.67-2.316-0.74-4.101 0.66-4.892 2.67zm6.227 3.11h1.78c-0.346-2.42 0.682-3.467 1.333-4.892-3.476-1.69-2.926 3.56-3.113 4.89zm27.576-3.11v-1.778c-1.712-0.35-1.712 2.13 0 1.78zm2.668 0.89c0.591-0.94 1.438-2.468-0.443-2.67-0.613 0.57-0.776 2.66 0.443 2.67zm4.893 0.44c0.535-0.86-0.225-3.396-2.225-3.112-1.119 1.44-0.067 3.69 2.225 3.11zm-11.564-1.33h0.89c0.024-0.568 0.569-0.614 0.444-1.333h-1.334v1.33zm-12.009 2.66c1.547 0.401 2.797-3.371 0.89-3.558-0.869 0.63-1.865 2.46-0.89 3.56zm10.231-3.11c-1.146 0.35-7.71-0.897-7.117 2.67 3.527 0.26 6.66 0.94 7.117-2.67zm-15.124 0.89c-0.059 1.097-0.067 2.142 0.445 2.667h1.779c0.405-0.982 0.988-2.961 0.444-3.559-1.398-0.21-1.738 0.63-2.668 0.89zm-1.779 3.11c0.821-0.874 0.136-2.751-0.444-3.559-0.882 0.51-1.743 3.8 0.444 3.56z"></path> </g> <metadata></metadata></svg> 