<?xml version="1.0" encoding="UTF-8" standalone="no"?> <!-- Created with Inkscape (http://www.inkscape.org/) --> <svg xmlns:inkscape="http://www.inkscape.org/namespaces/inkscape" xmlns:rdf="http://www.w3.org/1999/02/22-rdf-syntax-ns#" xmlns="http://www.w3.org/2000/svg" xmlns:cc="http://web.resource.org/cc/" xmlns:dc="http://purl.org/dc/elements/1.1/" xmlns:sodipodi="http://sodipodi.sourceforge.net/DTD/sodipodi-0.dtd" xmlns:svg="http://www.w3.org/2000/svg" xmlns:ns1="http://sozi.baierouge.fr" xmlns:xlink="http://www.w3.org/1999/xlink" id="svg2" sodipodi:docname="no-smoking.svg" inkscape:export-filename="/home/felix/media/pic/artwork/no-smoking.png" viewBox="0 0 471.05 471.03" sodipodi:version="0.32" inkscape:export-xdpi="22.5" inkscape:output_extension="org.inkscape.output.svg.inkscape" inkscape:export-ydpi="22.5" inkscape:version="0.45.1" sodipodi:docbase="/home/felix/media/pic/artwork"><g id="layer1" inkscape:label="Layer 1" inkscape:groupmode="layer" transform="translate(-13.77 -16.627)"><path id="path2160" sodipodi:rx="175.71428" sodipodi:ry="175.71428" style="stroke-linejoin:round;stroke:#e70000;stroke-linecap:round;stroke-width:32.615;fill:none" sodipodi:type="arc" d="m320.82 397.21a175.71 175.71 0 1 1 0.82 -0.46" sodipodi:open="true" transform="matrix(1.2264 0 0 1.2264 -38.051 -47.458)" sodipodi:cy="244.28572" sodipodi:cx="234.28572" sodipodi:end="7.333688" sodipodi:start="1.055867"></path><path id="path3134" style="stroke:#e70000;stroke-width:40;fill:none" d="m103.43 105.71l305.71 305.72"></path><path id="rect3140" style="fill:#000000" d="m93.719 278c-3.175 0-5.719 1.58-5.719 3.53v35.94c0 1.95 2.544 3.53 5.719 3.53h182.56l-43-43h-139.56zm224.4 0l43 43h2.88v-43h-45.88zm54.88 0v43h9v-43h-9zm18 0v43h4.28c3.18 0 5.72-1.58 5.72-3.53v-35.94c0-1.95-2.54-3.53-5.72-3.53h-4.28z"></path><path id="path3166" sodipodi:nodetypes="ccs" style="stroke-linejoin:round;stroke:#000000;stroke-linecap:round;stroke-width:8;fill:none" d="m396.06 267c-1.4-87.81-26.84-66.1-48.71-79.29 23.72-33.33 14.72-60.37-2.29-72.71"></path><path id="path3168" sodipodi:nodetypes="ccs" style="stroke-linejoin:round;stroke:#000000;stroke-linecap:round;stroke-width:8;fill:none" d="m377 267c0-71.91-69.31-12.08-73-78-59.56-26.32-42.6-91.885-4-98"></path></g><metadata></metadata></svg> 