<?xml version="1.0" encoding="UTF-8" standalone="no"?> <!-- Created with Inkscape (http://www.inkscape.org/) --> <svg xmlns:inkscape="http://www.inkscape.org/namespaces/inkscape" xmlns:rdf="http://www.w3.org/1999/02/22-rdf-syntax-ns#" xmlns="http://www.w3.org/2000/svg" xmlns:cc="http://creativecommons.org/ns#" xmlns:dc="http://purl.org/dc/elements/1.1/" xmlns:sodipodi="http://sodipodi.sourceforge.net/DTD/sodipodi-0.dtd" xmlns:svg="http://www.w3.org/2000/svg" xmlns:ns1="http://sozi.baierouge.fr" xmlns:xlink="http://www.w3.org/1999/xlink" id="svg1385" sodipodi:docname="sexy_lady_01.svg" viewBox="0 0 678.21 1127.4" sodipodi:version="0.32" inkscape:output_extension="org.inkscape.output.svg.inkscape" inkscape:version="0.45+devel" sodipodi:docbase="/home/knoppix/svgarts"><path id="path1463" style="fill:#000000;fill-opacity:.75" d="m391.5 199.49c1.61 3.54 1.58 6.03 4.77 7.44 8.95 3.94-18.16-7.34-27.57-10-27.17-7.68-54.95-12.14-82.87-16.04-54.41-5.97-228.38-28.37-237.4 55.34 13.92 94.17 168.98 261.87 222.08 356.77 43.21 87.62 55.47 174.04-24.03 243.24-14.02 10.49-6.94 5.58-21.22 14.79l-10.76-11.57c13.28-7.96 6.68-3.68 19.79-12.88 76.99-63.14 66.27-147.12 28.2-230.66-52.38-99.69-212.59-271.97-230.1-360.88 10.754-94.39 192.01-71.55 255.62-65.73 24.7 2.78 112.66 1.07 126.35 30.18h-22.86z"></path><path id="path1464" style="fill:#000000;fill-opacity:.75" d="m415.45 248.49c-8.35 6.18 18.53-9.4 27.83-14.05 26.4-13.21 53.32-25.03 80.73-36 27.93-10.51 199.13-69.97 142.95 15.29-75.81 96.57-156.41 178.2-205.26 293.56-40.22 111.08-60.27 238.59-24.4 353.75 4.2 10.6 16.87 48.37 35.05 40.72l5.16 16.55c-34.35 5.52-46.61-27.15-55.16-54.51-28.51-118.28-8.61-245.72 31.72-358.66 47.84-114.98 129.2-196.68 197.55-297.66 33.53-60.8-98.88-6.19-120.67 2.27-36.53 15.41-70.1 33.83-103.6 54.68l-11.9-15.94z"></path><path id="path1465" style="fill:#000000;fill-opacity:.75" d="m277.95 272.52c-9.21-12.12-33.69-15.39-47.17-18.23-23.81-3.93-52.49-3.91-37.65 26.55 35.48 56.45 92.42 96.1 129.39 152.07 19.39 33.53 29.02 66.36 25.72 105.2l-17.75-1.13c3.78-35.93-4.92-66.47-22.44-97.77-36.75-57.46-93.26-97.02-132.16-152.32-25.77-46.64 24.54-54.39 59.84-48.39 20.57 4.3 42.9 9.1 59.87 22.19l-17.65 11.83z"></path><path id="path1466" style="fill:#000000;fill-opacity:.75" d="m337.43 287.53c7.86-11.46 24.51-19.34 35.97-26.17 26.77-15.21 58.37-30.33 89.94-27.75 49.43 12.63 1.06 73.49-14.33 95.45-26.25 36.95-55.01 75.08-70.34 118.2-1.9 6.44-6.17 17.16 1 20.06 4.88 1.91 9.45 4.29 13.96 6.95l-12.82 14.61c-3.5-2.04-7.02-3.8-10.81-5.21-19.24-7.55-16.52-24.98-10.43-41.42 18.39-43.26 47.5-81.85 74.13-120.24 5.33-7.9 46.75-62.58 26.91-71.41-25.2-4.03-54.15 11.83-75.01 24.16-9.48 5.92-33.16 29.2-27.03 19.85l-21.14-7.08z"></path><path id="path1467" style="fill:#000000;fill-opacity:.75" d="m286.92 587.16c18.61 1.98 28.59 28.83 35.6 42.76 26.68 56.57 40.07 117.04 33.95 179.62-6.28 40.41-21.92 90.28-64.75 105.19l-7.38-16.06c36.33-8.34 50.21-59.64 55.7-90.31 7.08-60.36-6.41-118.84-34.7-172.27-5.86-10.23-6.69-31.46-18.42-30.21v-18.72z"></path><path id="path1468" style="fill:#000000;fill-opacity:.75" d="m414.36 596.56c-2.63 16.6-13.08 33.25-16.75 50.23-9.4 55.36-0.05 112.16 15.2 165.62 9.57 29.97 24.29 77.89 58.52 88.86 3.1 0.53 1.69 0.49 4.21 0.33l-2.18 17.45c-7.41-0.94-3.76-0.2-10.94-2.21-39.41-16.53-54.64-63.9-65.87-101.41-14.97-55.44-24.96-113.61-17.53-171.04 1.85-10.8 13.08-44.01 12.48-47.83h22.86z"></path><path id="path1469" style="fill:#000000;fill-opacity:.75" d="m555.58 538.7c-14.87-1.58-19.62 22.85-26.8 35.97-30.14 67.38-9.34 142.58 20.9 206.05 9.72 18.18 20.13 35.26 32.35 51.86l-14.24 6.73c-11.87-17.52-22.11-35.47-31.67-54.35-30.64-67.09-52.7-144.57-24.36-216.17 7.67-15.71 23.08-46.6 43.82-48.81v18.72z"></path><path id="path1470" style="fill:#000000;fill-opacity:.75" d="m285.63 590.38c2.14 8.39-3.03-12.47-3.55-16.17-1.99-18.26 7.78-32.56 21.75-43.44 3.19-2.23 6.39-4.26 9.79-6.17l12.02 14.59c-2.5 1.34-4.85 2.77-7.2 4.37-9.47 7.08-16.2 16.34-14.83 28.52 1.04 6.65 3.73 13.92 4.89 18.3h-22.87z"></path><path id="path1471" style="fill:#000000;fill-opacity:.75" d="m395.52 470.52c-1.06-0.86 10.07 12.22 13.01 17.16 8.09 14.84 11.42 30.82 12.26 47.59 0.42 14.54-0.68 29.07-2.1 43.53-1.32 11.71-4.7 21.06-14.43 28.29-4.55 3-9.31 5.19-14.58 6.59l-6.4-17.42c2.2-0.32 4.34-1.56 6.21-2.7 5.65-3.99 6.71-9.79 7.61-16.36 1.7-13.66 2.83-27.46 2.5-41.23-0.67-14.21-3.31-27.93-10.41-40.4-3.23-5.14-9.05-11.38-11.36-13.2l17.69-11.85z"></path><path id="path1472" style="fill:#000000;fill-opacity:.75" d="m276.67 308.65c-6.73-0.72-13.19-3.51-19.7-5.31-6.01-1.57-24.7-5.04-23.61-5.12 22.37-13.28-6.3-14.89 39.62-0.04 20.87 6.59 44.32 10.41 62.26 23.61 14.9 13.05 20.14 30.25 22.2 49.42 0.61 7.48 0.95 14.85-0.36 22.27l-21.44-2.9c1.43-5.88 1.03-11.94 0.63-17.92-1.36-14.23-4.51-28.03-15.45-37.98-15.2-11.75-37.36-15.13-55.32-20.71-11.18-3.48-64.9-16.15-39.19-33.25 12.34-2.01 25.57 2.57 37.5 5.54 4.31 1.12 8.43 4.14 12.86 3.67v18.72z"></path><path id="path1473" style="fill:#000000;fill-opacity:.75" d="m342.64 386.79c1.08 4.26 1.86-13.2 6.67-21.44 11.03-17.55 24.64-33.59 37.93-49.45 3.86-4.52 14.03-19.16 10.9-14.11-1.87 3.01 8.64 9.28 5.1 9.31-16.59 0.48-32.88 3.11-49.56 2.77-13.9-0.63-29.26-2.28-40.06-11.95-15.88-18.56 14.4-48.65 24.96-62.44 15.81-20.22 43.08-44.06 50.16-69.45 1.17-10.6-15.49-11.07-22.71-12-21.53-2.04-43.85-1.84-65.19 1.96-9 1.94-15.48 4.38-20.01 12.68-4.77 10.05-5.13 20.92-4.65 31.85 0.7 11.67 2.96 22.53 6.85 33.54 1.15 3.1 2.34 6.18 3.57 9.25l-20.08 5.54c-1.36-3.22-2.69-6.45-4-9.68-4.84-12.44-7.06-24.72-7.82-38.01-0.62-13.86 0.25-27.03 6.25-39.74 7.78-14.33 20.23-19.85 35.73-22.66 23.8-3.51 48.41-3.6 72.35-1.71 19.41 2.14 45.97 8.46 40.14 33.63-10.31 27.31-36.64 50.25-54.18 73.08-4.81 6.49-28.38 32.92-24.63 42.26 4.57 5.87 17.57 5.93 23.99 6.34 16.58 0.53 32.51-2.21 48.95-3.36 28.83 0.11 10.77 22.14 1.26 32.78-12.83 14.8-25.93 29.87-35.84 46.85-3.51 6.62-4.46 9.47-3.22 14.16h-22.86z"></path><path id="path1474" style="fill:#000000;fill-opacity:.75" d="m205.16 143.7c-23.43-2.36-49.27 4.74-71.96 9.46-14.3 3.15-28.65 6.32-42.627 10.72-3.668 1.15-11.064 8.08-10.724 4.25 1.744-19.61-9.352-16.4 0.355-18.83 8.366-2.29 3.931-1.05 13.301-3.74l7.285 15c-9.193 3.35-4.842 1.76-13.056 4.79-14.322 5.38-22.205 7.62-17.567-13.7 1.125-5.17 52.863-12.72 58.253-13.89 25.44-5.3 50.89-10.09 76.74-12.69v18.63z"></path><path id="path1475" style="fill:#000000;fill-opacity:.75" d="m297.28 110.8c30.46 3.24 64.37-4.79 94.68-6.93 73.37-4.145 147.75-1.35 219.82 13.82 3.34 0.83 6.68 1.65 10.02 2.47l-5.87 14.67c-3.04-0.88-6.07-1.77-9.1-2.65-69.42-17.27-142.06-19.83-213.13-14.33-32.24 3.12-64.22 8.19-96.42 11.61v-18.66z"></path><path id="path1476" style="fill:#000000;fill-opacity:.75" d="m232.84 104.01c-23.59-12.754-54.23-16.404-79.99-21.697-32.92-6.365-65.982-11.563-99.257-15.658l2.967-14.864c33.575 4.844 67.04 10.308 100.44 16.274 28.96 5.366 57.48 11.347 85.85 19.179l-10.01 16.766z"></path><path id="path1477" style="fill:#000000;fill-opacity:.75" d="m286.96 86.349c-5.24 0.464 29.49-18.043 36.27-22.143 38.87-23.346 79.32-44.797 121.44-61.682 2.25-0.8413 4.51-1.6827 6.76-2.524l7.94 15.055c-2.1 0.699-4.21 1.398-6.32 2.097-41.48 15.187-80.74 36.077-117.97 59.734-13.22 8.567-31.52 26.464-48.12 28.164v-18.701z"></path><path id="path1478" style="fill:#000000;fill-opacity:.75" d="m257.13 93.629c0.76-4.789 0.41-9.925 0.51-14.749 0.3-14.166-1.07-28.405-3.18-42.4-0.17-1.055-0.34-2.109-0.51-3.164l21.11-2.22c0.17 1.101 0.34 2.203 0.5 3.304 2.11 14.71 3.61 29.616 3.92 44.48 0.1 4.824-0.24 9.96 0.52 14.749h-22.87z"></path><path id="path1479" style="fill:#000000;fill-opacity:.75" d="m88.625 963.01c-2.487 9.4-12.805 10.36-20.307 14.89-6.583 4.46-22.208 15.45-17.298 25.1 9.055 13.8 28.637 19.1 23.051 39.2-12.762 22.1-46.864 27-69.733 31.3l-4.338-16.2c16.078-2.7 42.163-6 53.291-19.7 4.188-6.5-19.622-23.4-22.869-29.2-6.721-19.13 10.565-34.45 24.754-44.52 14.469-9.34 13.574-12.61 10.584-0.87h22.865z"></path><path id="path1480" style="fill:#000000;fill-opacity:.75" d="m79.265 1022.8c5.99 0.7 17.719-3 24.835-5.1 9.13-3.1 25.23-14.6 25.73-11.7-15.58-5.1-33.49-5.5-48.779 0.8-22.462 12.7 4.195 40.4 15.664 50.6 19.905 15.7 46.355 32.1 72.645 31.8l-0.8 17.1c-31.73-1.8-61.51-19-86.004-38.2-22.969-20.3-48.417-57.2-10.627-76.75 22.097-8.48 52.541-10.12 73.601 2.19 20.75 20.26-19.33 35.16-33.97 40.26-10.53 3.4-21.282 6.6-32.295 7.8v-18.8z"></path><path id="path1481" style="fill:#000000;fill-opacity:.75" d="m172.79 989.15c-1.55-1.63 2.27 3.87 3.4 5.81 8.59 14.84 17.7 29.24 27.39 43.34 5.36 7.5 10.87 14.8 16.66 22l-16.83 8.8c-5.68-7.6-11.25-15.2-16.73-23-11.21-16-21.46-32.9-33.92-48l20.03-8.95z"></path><path id="path1482" style="fill:#000000;fill-opacity:.75" d="m216.78 1006.6c1.48-0.6-19.5 12-37.24 26.3-10.54 8.7-20.55 17.9-30.1 27.6l-16.38-11.1c10.36-9.9 21.03-19.3 32.11-28.4 13.33-10.7 28.59-26.18 44.95-32.31l6.66 17.91z"></path><path id="path1483" style="fill:#000000;fill-opacity:.75" d="m221.78 982.12c10.88 1.16 17.93 12.44 25.54 19.38 7.52 6.5 35.13 18 25.42 15.7 3.01-8.8-1.35-15.4 4.17-13.2-21.08 11.3-36.62 31.7-51.99 49.5-10.78 12.5-24.7 25.6-31.54 40.9l-19.64-7c9.43-15.9 23.04-29.4 35.11-43.2 17.85-20.7 37.81-50.35 65.48-57.85 25.93-0.76 28.02 28.75 13.1 44.15-20.14 13.2-40.49-4.4-55.67-17.3-5.44-4.7-22.36-18.05-16.26-14.22 1.84 1.12 8.44 1.62 6.28 1.82v-18.68z"></path><path id="path1484" style="fill:#000000;fill-opacity:.75" d="m355.32 977.26c-1.49 9.41 1.94 19.23 0.12 28.54-8.62 31.4-27.93 65.6-54.36 85.2-21.45 12.4-76.54 2.7-41.49-23.7 35.1-19.4 81.16-16.7 119.97-15.2 2.54 0.1 42.79 0.6 39.83-3.5l21.18 4c-8.45 23.7-42.83 16.8-62.11 15.5-32.82-1.8-75.05-5.3-104.7 11.9-10.03 7.4 5.87 2.4 13.94-1.6 23.83-15.9 41.25-47.4 47.49-74.9 1.42-10-1.26-16.95-2.73-26.24h22.86z"></path><path id="path1488" style="fill:#000000;fill-opacity:.75" d="m390.75 1051.3c-15.95 3.9-5.89-3.2-1.7-19.4 5.15-20.5 8.6-45.81 21.25-63.27 25.95-24.45 40.04 27.38 45.17 43.67 7.05 23.4 13.01 47.1 20.28 70.5 1.12 3.7 0.6 1.9 1.58 5.4l-21.28 3.4c-0.61-3.1-0.26-1.4-1.07-4.9-6.02-23.5-11.56-47.1-18.75-70.3-3.32-10.1-6.74-20.34-11.88-29.7-5.3-9.64 4.21-8.12 4.03-8.23-12.78 11.82-15.46 40.63-18.99 56.73-3.04 13.8-2.96 30.9-18.64 34.9v-18.8z"></path><path id="path1489" style="fill:#000000;fill-opacity:.75" d="m402.97 1016.7c8.57 0.9 17.87-0.9 26.41-1.6 4.85-0.4 2.41-0.2 7.34-0.6l1.86 17.5c-4.57 0.3-2.26 0.2-6.93 0.6-9.57 0.8-19.13 1.8-28.68 2.8v-18.7z"></path><path id="path1490" style="fill:#000000;fill-opacity:.75" d="m489.22 1024c0.55-3.5 10.63 3.5 8.48 6.3-8.99 5.3-16.8 17.2-18.25 27.5 0.09 3.3 12.67-8.1 21.38-15.8 27.92-27.2 47.57-61.53 63.1-97.01 1.4-3.49-0.2-12.3 3.25-10.8 6.45 2.79 22.95 1.34 19.69 7.57-8.58 16.39-15.06 33.4-21.18 50.87-6.62 19.77-12.72 39.57-17.61 59.77l-18.76-3.3c5.8-20.3 12.17-40.4 18.73-60.5 1.32-3.98 17.14-59.12 21.32-58.44 26.44 4.33 20.09 7.13 13.09 20.75-18.79 36.38-38.33 72.29-67.02 101.89-12.49 11.7-60.68 42.1-57.3 2.3 3.46-16 14.66-32.5 29-40.8 9.93-4.2 22.99-2.6 24.94 9.7h-22.86z"></path><path id="path1491" style="fill:#000000;fill-opacity:.75" d="m597.59 1013.9c-1.8 9.7-5.32 18.7-5.93 28.9 0.04 16.6 8.47 5.7 20.08-3 14.14-11.7 29.55-39.7 44.84-47.42 9.82-4.93 25.08 1.94 16.12 13.52-31.57 40.7-62.83 81.7-95.61 121.5l-14.01-7.9c32.41-37.9 66.25-78 90.54-121.73 2.9-6.35 13.51 8.63 20.02 6.13 2.71-1-4.42 3.8-6.42 5.9-13.58 14.4-26.82 28.8-41.76 41.8-20.13 16.1-55.5 28-54.96-9.7 0.4-6.3 4.64-30.4 4.22-28h22.87z"></path><metadata></metadata></svg> 