<?xml version="1.0" encoding="UTF-8" standalone="no"?> <!-- Created with Inkscape (http://www.inkscape.org/) --> <svg xmlns:inkscape="http://www.inkscape.org/namespaces/inkscape" xmlns:rdf="http://www.w3.org/1999/02/22-rdf-syntax-ns#" xmlns="http://www.w3.org/2000/svg" xmlns:sodipodi="http://sodipodi.sourceforge.net/DTD/sodipodi-0.dtd" xmlns:cc="http://creativecommons.org/ns#" xmlns:xlink="http://www.w3.org/1999/xlink" xmlns:dc="http://purl.org/dc/elements/1.1/" xmlns:svg="http://www.w3.org/2000/svg" xmlns:ns1="http://sozi.baierouge.fr" id="svg2" sodipodi:docname="felipecaparelli_Plane.svg" viewBox="0 0 399.29 295.71" sodipodi:version="0.32" inkscape:output_extension="org.inkscape.output.svg.inkscape" inkscape:version="0.45+devel" sodipodi:docbase="/home/felipe/Desktop"><defs id="defs4"><linearGradient id="linearGradient3259"><stop id="stop3261" style="stop-color:#fcffff;stop-opacity:0" offset="0"></stop><stop id="stop3263" style="stop-color:#ececec;stop-opacity:.99608" offset="1"></stop></linearGradient><linearGradient id="linearGradient3243"><stop id="stop3245" style="stop-color:#f4f7f7;stop-opacity:0" offset="0"></stop><stop id="stop3247" style="stop-color:#464e3b;stop-opacity:.55782" offset="1"></stop></linearGradient><linearGradient id="linearGradient3421"><stop id="stop3423" style="stop-color:#08100a" offset="0"></stop><stop id="stop3453" style="stop-color:#595b5a" offset="1"></stop></linearGradient><linearGradient id="linearGradient3407" inkscape:collect="always"><stop id="stop3409" style="stop-color:#e8ebeb" offset="0"></stop><stop id="stop3411" style="stop-color:#5f6161;stop-opacity:.96078" offset="1"></stop></linearGradient><linearGradient id="linearGradient3399"><stop id="stop3401" style="stop-color:#fcffff" offset="0"></stop><stop id="stop3403" style="stop-color:#656666;stop-opacity:.99320" offset="1"></stop></linearGradient><linearGradient id="linearGradient3276"><stop id="stop3278" style="stop-color:#cbcce4" offset="0"></stop><stop id="stop3280" style="stop-color:#575f66" offset="1"></stop></linearGradient><linearGradient id="linearGradient3260"><stop id="stop3262" style="stop-color:#a3aebc" offset="0"></stop><stop id="stop3264" style="stop-color:#5a5f66" offset="1"></stop></linearGradient><linearGradient id="linearGradient3405" y2="314.54" xlink:href="#linearGradient3399" gradientUnits="userSpaceOnUse" x2="587.68" y1="312.49" x1="593.04" inkscape:collect="always"></linearGradient><linearGradient id="linearGradient3413" y2="313.92" xlink:href="#linearGradient3407" gradientUnits="userSpaceOnUse" x2="589.64" y1="311.86" x1="593.04" inkscape:collect="always"></linearGradient><radialGradient id="radialGradient3461" xlink:href="#linearGradient3421" gradientUnits="userSpaceOnUse" cy="319.25" cx="598.05" gradientTransform="matrix(.88368 .18076 -.47543 1.8046 219.92 -363.97)" r="6.0268" inkscape:collect="always"></radialGradient><radialGradient id="radialGradient3473" xlink:href="#linearGradient3407" gradientUnits="userSpaceOnUse" cy="325.14" cx="585.39" gradientTransform="matrix(1.291 -.052142 .025659 .63527 -179.42 146.46)" r="10.44" inkscape:collect="always"></radialGradient><radialGradient id="radialGradient3479" xlink:href="#linearGradient3421" gradientUnits="userSpaceOnUse" cy="319.25" cx="598.05" gradientTransform="matrix(-2.392 .34807 -.21170 -1.1295 2094.7 472.69)" r="6.0268" inkscape:collect="always"></radialGradient><radialGradient id="radialGradient3485" xlink:href="#linearGradient3399" gradientUnits="userSpaceOnUse" cy="320.26" cx="595.85" gradientTransform="matrix(-.035003 -.97506 4.5655 -.15601 -845.43 951.21)" r="6.0268" inkscape:collect="always"></radialGradient><radialGradient id="radialGradient3497" xlink:href="#linearGradient3399" gradientUnits="userSpaceOnUse" cy="312.99" cx="534.46" gradientTransform="matrix(-.69364 .11561 -.15014 -.90087 952.19 533.2)" r="3.0893" inkscape:collect="always"></radialGradient><linearGradient id="linearGradient3532" y2="313.68" xlink:href="#linearGradient3260" gradientUnits="userSpaceOnUse" x2="564.34" y1="316.15" x1="565.18" inkscape:collect="always"></linearGradient><linearGradient id="linearGradient3536" y2="313.68" xlink:href="#linearGradient3260" gradientUnits="userSpaceOnUse" x2="564.34" gradientTransform="matrix(.87360 0 0 .83816 49.322 51.072)" y1="316.15" x1="565.18" inkscape:collect="always"></linearGradient><linearGradient id="linearGradient3540" y2="313.68" xlink:href="#linearGradient3260" gradientUnits="userSpaceOnUse" x2="564.34" gradientTransform="matrix(1.4213 .25418 0 1.1312 -188.57 -184.11)" y1="317.09" x1="565.27" inkscape:collect="always"></linearGradient><linearGradient id="linearGradient3360" y2="281.57" xlink:href="#linearGradient3259" gradientUnits="userSpaceOnUse" x2="595.48" y1="279.49" x1="606.79" inkscape:collect="always"></linearGradient><linearGradient id="linearGradient3364" y2="271.6" xlink:href="#linearGradient3259" gradientUnits="userSpaceOnUse" x2="607.73" y1="278.54" x1="603.69" inkscape:collect="always"></linearGradient><linearGradient id="linearGradient3392" y2="388.38" gradientUnits="userSpaceOnUse" x2="418.57" gradientTransform="translate(77.857 12.143)" y1="226.24" x1="387.86" inkscape:collect="always"><stop id="stop3388" style="stop-color:#020d22" offset="0"></stop><stop id="stop3394" style="stop-color:#00366d" offset=".5"></stop><stop id="stop3390" style="stop-color:#1350bf" offset="1"></stop></linearGradient><linearGradient id="linearGradient3472" y2="315.88" xlink:href="#linearGradient3399" gradientUnits="userSpaceOnUse" x2="708.04" gradientTransform="matrix(.88241 0 0 .90346 105.08 26.205)" y1="302.57" x1="722.86" inkscape:collect="always"></linearGradient><linearGradient id="linearGradient3474" y2="303.26" xlink:href="#linearGradient3407" gradientUnits="userSpaceOnUse" x2="737.92" y1="312.51" x1="731.35" inkscape:collect="always"></linearGradient><linearGradient id="linearGradient3476" y2="311.95" xlink:href="#linearGradient3243" gradientUnits="userSpaceOnUse" x2="712.02" gradientTransform="translate(19.193 -3.7881)" y1="318.02" x1="714.7" inkscape:collect="always"></linearGradient><linearGradient id="linearGradient3478" y2="315.88" xlink:href="#linearGradient3399" gradientUnits="userSpaceOnUse" x2="708.04" y1="302.57" x1="722.86" inkscape:collect="always"></linearGradient><linearGradient id="linearGradient3480" y2="299.81" gradientUnits="userSpaceOnUse" x2="724.55" gradientTransform="matrix(1 -.043932 0 1 0 32.416)" y1="299.09" x1="749.55" inkscape:collect="always"><stop id="stop3227" style="stop-color:#cadaf3" offset="0"></stop><stop id="stop3229" style="stop-color:#636b78" offset="1"></stop></linearGradient><linearGradient id="linearGradient3482" y2="319.09" xlink:href="#linearGradient3243" gradientUnits="userSpaceOnUse" x2="715.36" gradientTransform="matrix(1 0 0 -1 -.00005 629.44)" y1="309.45" x1="714.82" inkscape:collect="always"></linearGradient><linearGradient id="linearGradient3484" y2="311.95" xlink:href="#linearGradient3243" gradientUnits="userSpaceOnUse" x2="712.02" y1="318.02" x1="714.7" inkscape:collect="always"></linearGradient><radialGradient id="radialGradient3486" xlink:href="#linearGradient3259" gradientUnits="userSpaceOnUse" cy="310.81" cx="721.68" gradientTransform="matrix(-2.5804 .38371 -.16034 -.82555 2637.3 291.41)" r="7.4107" inkscape:collect="always"></radialGradient><linearGradient id="linearGradient3490" y2="292.02" gradientUnits="userSpaceOnUse" x2="693.93" y1="261.22" x1="685.71" inkscape:collect="always"><stop id="stop3286" style="stop-color:#f6ffff;stop-opacity:.65359" offset="0"></stop><stop id="stop3307" style="stop-color:#faffff;stop-opacity:.60544" offset=".5"></stop><stop id="stop3288" style="stop-color:#a1a1a1;stop-opacity:.67320" offset="1"></stop></linearGradient><linearGradient id="linearGradient3492" y2="257.76" gradientUnits="userSpaceOnUse" x2="711.53" y1="268.19" x1="705.21" inkscape:collect="always"><stop id="stop3378" style="stop-color:#f4f7f7;stop-opacity:0" offset="0"></stop><stop id="stop3380" style="stop-color:#464e3b;stop-opacity:.55782" offset="1"></stop></linearGradient><linearGradient id="linearGradient3494" y2="311.24" xlink:href="#linearGradient3276" gradientUnits="userSpaceOnUse" x2="656.07" gradientTransform="matrix(1.0485 0 0 1.0546 -30.409 -17.239)" y1="305.17" x1="654.64" inkscape:collect="always"></linearGradient><linearGradient id="linearGradient3496" y2="310.26" xlink:href="#linearGradient3276" gradientUnits="userSpaceOnUse" x2="610.54" y1="322.67" x1="610.18" inkscape:collect="always"></linearGradient></defs><g id="layer1" inkscape:label="Layer 1" inkscape:groupmode="layer" transform="translate(-425.71 -200.52)"><rect id="rect3384" style="opacity:.97636;fill:url(#linearGradient3392)" rx=".80475" ry=".45664" height="295.71" width="399.29" y="200.52" x="425.71"></rect><path id="path3500" sodipodi:rx="0" sodipodi:ry="5.3571429" style="fill:none" sodipodi:type="arc" d="m562.32 311.77z" sodipodi:cy="311.77304" sodipodi:cx="562.32141"></path><g id="g3397" transform="translate(12 54.399)"><path id="path3303" sodipodi:nodetypes="cssssssc" style="fill-rule:evenodd;fill:url(#linearGradient3472)" d="m728.75 311.1c0.16 3.55 5.68 5.01 8.2 5.17s5.98 0 7.72-0.49c1.73-0.48 5.2-2.9 4.88-7.74-0.31-4.84-4.72-5.49-6.77-5.81s-5.36 0.32-8.2 1.45c-2.83 1.13-5.04 3.39-5.51 4.84-0.47 1.46-0.32 2.75-0.32 2.58z"></path><path id="path3283" style="fill-rule:evenodd;fill:url(#linearGradient3474)" d="m735.9 300.38l4.04 2.28s-4.55 1.01-6.06 3.03c-1.52 2.02-11.12-3.54-11.12-3.54l5.31-1.26 7.83-0.51z"></path><path id="path3299" sodipodi:nodetypes="csscscc" style="opacity:.70303;fill:url(#linearGradient3476)" d="m736.52 305.65c-4.83 0-9.64 2.37-9.64 5.28s3.92 5.28 8.75 5.28c1.99 0 3.81-0.42 5.28-1.09-3.24-1.34-0.29-0.8-0.29-3.91 0-0.81-5.02-4.82-4.74-5.56h0.64z"></path><path id="path3265" sodipodi:nodetypes="cssssssc" style="fill-rule:evenodd;fill:url(#linearGradient3478)" d="m706.79 315.34c0.17 3.93 6.42 5.54 9.28 5.72s6.79 0 8.75-0.54c1.97-0.53 5.89-3.21 5.54-8.57-0.36-5.36-5.36-6.07-7.68-6.43-2.32-0.35-6.07 0.36-9.29 1.61-3.21 1.25-5.71 3.75-6.25 5.36-0.53 1.6-0.35 3.03-0.35 2.85z"></path><path id="path2253" sodipodi:nodetypes="ccscccc" style="fill-rule:evenodd;fill:url(#linearGradient3480)" d="m721.61 302.76l32.05-3.47s0.98-0.13 0.09-0.71c-0.89-0.59-5.45-6.28-5.45-6.28l0.72 5.95-26.7 1.35-0.71 3.16z"></path><path id="path3275" style="opacity:.70303;fill:url(#linearGradient3482)" d="m716.44 320c-4.83 0-8.75-2.37-8.75-5.28s3.92-5.28 8.75-5.28c1.99 0 3.81 0.42 5.28 1.09-3.25 1.34-5.47 4.02-5.47 7.13 0 0.8 0.16 1.6 0.44 2.34h-0.25z"></path><path id="path3233" sodipodi:nodetypes="csscscc" style="opacity:.70303;fill:url(#linearGradient3484)" d="m717.33 309.44c-4.83 0-9.64 2.37-9.64 5.28s3.92 5.28 8.75 5.28c1.99 0 3.81-0.42 5.28-1.09-3.25-1.34-0.29-0.81-0.29-3.91 0-0.81-5.02-4.83-4.74-5.56h0.64z"></path><path id="path3253" sodipodi:rx="7.4107141" sodipodi:ry="7.4107141" style="stroke-opacity:0;fill:url(#radialGradient3486)" sodipodi:type="arc" d="m732.68 312.58a7.4107 7.4107 0 1 1 -14.82 0 7.4107 7.4107 0 1 1 14.82 0z" transform="matrix(.90215 0 0 .96653 69.705 10.972)" sodipodi:cy="312.57663" sodipodi:cx="725.26788"></path><path id="path3271" sodipodi:rx="7.4107141" sodipodi:ry="7.4107141" style="stroke-opacity:0;fill:#000000" sodipodi:type="arc" d="m732.68 312.58a7.4107 7.4107 0 1 1 -14.82 0 7.4107 7.4107 0 1 1 14.82 0z" transform="matrix(.66265 0 0 .77108 244.49 72)" sodipodi:cy="312.57663" sodipodi:cx="725.26788"></path><path id="path3293" sodipodi:rx="7.4107141" sodipodi:ry="7.4107141" style="fill:url(#radialGradient3486);stroke-opacity:0" sodipodi:type="arc" d="m732.68 312.58a7.4107 7.4107 0 1 1 -14.82 0 7.4107 7.4107 0 1 1 14.82 0z" transform="matrix(0.834 0 0 .83022 138.83 49.539)" sodipodi:cy="312.57663" sodipodi:cx="725.26788"></path><path id="path3295" sodipodi:rx="7.4107141" sodipodi:ry="7.4107141" style="stroke-opacity:0;fill:#000000" sodipodi:type="arc" d="m732.68 312.58a7.4107 7.4107 0 1 1 -14.82 0 7.4107 7.4107 0 1 1 14.82 0z" transform="matrix(.61259 0 0 .66234 300.41 101.96)" sodipodi:cy="312.57663" sodipodi:cx="725.26788"></path><path id="path3282_body_plane" style="fill-rule:evenodd;fill:#fff5ff;fill-opacity:.97386" d="m614.82 292.49l-1.61-1.07s-8.03-18.75-9.82-22.68c-1.78-3.93-4.1-8.22-4.1-8.22l-4.11 2.86h0.89l5.54 34.46s-1.61 0.54-2.32 2.15c-0.72 1.6-0.36 2.32-0.36 2.32l0.89 2.5s8.39 9.82 14.29 12.5c5.89 2.68 13.57 3.57 16.78 3.57 3.22 0 60-5.71 66.25-6.43 6.25-0.71 14.11-3.21 21.61-8.57s13.57-13.93 14.64-16.25 1.43-8.04-1.43-11.25c-2.85-3.21-15.71-14.11-15.71-14.11l-3.04-2.85s-2.85-3.4-7.32-3.93c-4.46-0.54-17.32 3.39-35 10.53-17.68 7.15-25.35 15.18-28.93 16.43-3.57 1.25-21.25 6.97-23.21 7.68s-4.11 0.54-3.93 0.36z"></path><path id="path3296" sodipodi:nodetypes="ccsccccsccssssssccssssc" style="fill-rule:evenodd;fill:url(#linearGradient3490)" d="m614.82 292.49l-1.61-1.07s-8.03-18.75-9.82-22.68c-1.78-3.93-4.1-8.22-4.1-8.22l-4.11 2.86h0.89l5.54 34.46s-1.61 0.54-2.32 2.15c-0.72 1.6-0.36 2.32-0.36 2.32l0.89 2.5s8.33 9.71 14.29 12.25c5.59 2.38 13.56 3.56 16.78 3.57s60-5.46 66.25-6.18c6.25-0.71 14.11-3.21 21.61-8.57s13.57-13.93 14.64-16.25 1.43-8.04-1.43-11.25c-2.85-3.21-15.71-14.11-15.71-14.11l-3.04-2.85s-2.85-3.4-7.32-3.93c-4.46-0.54-17.32 3.39-35 10.53-17.68 7.15-25.35 15.18-28.93 16.43-3.57 1.25-21.25 6.97-23.21 7.68s-4.11 0.54-3.93 0.36z"></path><path id="path3309" sodipodi:nodetypes="ccsscscssccsc" style="fill-rule:evenodd;fill:#1e426e" d="m602.5 306.06l3.04 0.36s39.28-10.18 61.96-15c22.68-4.83 45.89-10 55.54-10.72 9.64-0.71 10.09-0.59 10.09-0.59 0.57 0.2-2.88-4.62-4.74-5.66-1.47-0.82-1.43-0.89-1.43-0.89s-19.1 2.14-39.46 6.43c-20.36 4.28-78.39 22.14-81.07 22.68-2.68 0.53-6.43 0.71-6.43 0.71l-0.89 0.36s0.35 0.89 1.07 1.25c0.71 0.35 2.32 1.25 2.32 1.07z"></path><path id="path3366" sodipodi:nodetypes="ccssscsscc" style="fill-rule:evenodd;fill:url(#linearGradient3492)" d="m726.93 273.87l-10.86-9.22s-5.81-6.44-9.72-6.69c-3.92-0.25-7.32 0.4-14.02 2.92-6.69 2.53-24.62 8.44-28.53 10.84-3.92 2.4-4.93 3.41-4.93 3.41s28.79-10.48 35.61-11.24c6.82-0.75 7.07-1.59 11.11-0.75 6.32 1.3 14.54 7.2 19.7 10.73h1.64z"></path><path id="path3252" style="fill:none" d="m614.82 292.49l-1.61-1.07s-8.03-18.75-9.82-22.68c-1.78-3.93-4.1-8.22-4.1-8.22l-4.11 2.86h0.89l5.54 34.46s-1.61 0.54-2.32 2.15c-0.72 1.6-0.36 2.32-0.36 2.32l0.89 2.5s8.39 9.82 14.29 12.5c5.89 2.68 13.57 3.57 16.78 3.57 3.22 0 60-5.71 66.25-6.43 6.25-0.71 14.11-3.21 21.61-8.57s13.57-13.93 14.64-16.25 1.43-8.04-1.43-11.25c-2.85-3.21-15.71-14.11-15.71-14.11l-3.04-2.85s-2.85-3.4-7.32-3.93c-4.46-0.54-17.32 3.39-35 10.53-17.68 7.15-25.35 15.18-28.93 16.43-3.57 1.25-21.25 6.97-23.21 7.68s-4.11 0.54-3.93 0.36z"></path><path id="path3311" sodipodi:nodetypes="ccscccssc" style="fill-rule:evenodd;fill:#8a1511" d="m733.66 288.6c0.43 0 0.84-4.57 0.61-4.57 0 0-17.84 0.42-47.13 6.14-29.28 5.71-71.6 15.35-71.6 15.35l4.1 0.18 5.54-0.36s46.25-8.39 59.11-10.71c12.85-2.32 30-5.36 38.03-5.71 8.04-0.36 11.69-0.5 11.34-0.32z"></path><path id="path3254" style="fill-rule:evenodd;fill:url(#linearGradient3494)" d="m665 309.49s-1.69-2.45-5.99-4.71c-4.31-2.26-7.3-3.39-11.8-2.64-4.49 0.76-12.54 3.02-12.54 3.02l-8.24 3.95s17.04 5.84 21.53 6.4c4.49 0.57 8.99-0.19 12.36-1.32s4.68-3.38 4.68-3.38v-1.32z"></path><path id="path3256" sodipodi:nodetypes="ccsscssscssssc" style="fill-rule:evenodd;fill:url(#linearGradient3496)" d="m648.75 305.7l-24.64 0.36s-127.32 6.07-136.07 6.61c-5.82 0.35-9.85 0.09-11.3 0.24-0.72 0.07-4.15-6.23-4.15-6.23 0.02 0.05 1.63 5.02 2.26 6.11 0.41 0.74 0.87 1.24 1.31 1.27 0.23 0.02 2.34-0.32 2.59-0.32 1.96 0 147.32 0.35 147.32 0.35s10.36 1.08 13.04 1.08 6.25-1.08 7.32-1.43c1.07-0.36 4.82-1.43 5.71-2.32 0.9-0.9 1.97-2.15-0.18-3.75-2.14-1.61-3.03-2.15-3.21-1.97z"></path><path id="path3258" sodipodi:nodetypes="ccccccccc" style="fill-rule:evenodd;fill:#e8ebeb" d="m653.57 309.81l-177.32 3.39 4.83-0.67 57.29-3.27 84.49-3.56h26.25l3.39 1.79 0.71 2.14 0.36 0.18z"></path><path id="path3317" sodipodi:nodetypes="cccscc" style="fill-rule:evenodd;fill:#28393f" d="m716.16 264.72l-13.39 0.36 0.71-3.49s4.82-0.35 6.52-0.35h2.41l3.75 3.48z"></path><path id="path3319" style="fill-rule:evenodd;fill:#28393f" d="m698.3 266.33l4.11-1.07 0.63-3.49-2.86 0.45-2.23 3.04 0.35 1.07z"></path><rect id="rect3349" ry=".45664" style="opacity:.97636;fill:#10181a" rx=".81845" transform="matrix(.98667 -.16275 0 1 0 0)" height="2.7373" width="1.6458" y="397.81" x="721.39"></rect><rect id="rect3351" ry=".45664" style="opacity:.97636;fill:#10181a" rx=".81845" transform="matrix(.98667 -.16275 0 1 0 0)" height="2.7373" width="1.6458" y="397.81" x="718.86"></rect><rect id="rect3353" ry=".45664" style="opacity:.97636;fill:#10181a" rx=".81845" transform="matrix(.98667 -.16275 0 1 0 0)" height="2.7373" width="1.6458" y="397.81" x="716.33"></rect><rect id="rect3355" ry=".45664" style="opacity:.97636;fill:#10181a" rx=".81845" transform="matrix(.98667 -.16275 0 1 0 0)" height="2.7373" width="1.6458" y="397.81" x="713.8"></rect><rect id="rect3357" ry=".45664" style="opacity:.97636;fill:#10181a" rx=".81845" transform="matrix(.98667 -.16275 0 1 0 0)" height="2.7373" width="1.6458" y="397.81" x="711.28"></rect><rect id="rect3359" ry=".45664" style="opacity:.97636;fill:#10181a" rx=".81845" transform="matrix(.98667 -.16275 0 1 0 0)" height="2.7373" width="1.6458" y="397.81" x="708.75"></rect><rect id="rect3361" ry=".45664" style="opacity:.97636;fill:#10181a" rx=".81845" transform="matrix(.98667 -.16275 0 1 0 0)" height="2.7373" width="1.6458" y="397.81" x="706.22"></rect><rect id="rect3363" ry=".45664" style="opacity:.97636;fill:#10181a" rx=".81845" transform="matrix(.98667 -.16275 0 1 0 0)" height="2.7373" width="1.6458" y="397.81" x="703.69"></rect><rect id="rect3365" ry=".45664" style="opacity:.97636;fill:#10181a" rx=".81845" transform="matrix(.98667 -.16275 0 1 0 0)" height="2.7373" width="1.6458" y="397.81" x="701.16"></rect><rect id="rect3367" ry=".45664" style="opacity:.97636;fill:#10181a" rx=".81845" transform="matrix(.98667 -.16275 0 1 0 0)" height="2.7373" width="1.6458" y="397.81" x="698.64"></rect><rect id="rect3369" ry=".45664" style="opacity:.97636;fill:#10181a" rx=".81845" transform="matrix(.98667 -.16275 0 1 0 0)" height="2.7373" width="1.6458" y="397.81" x="696.11"></rect><rect id="rect3371" ry=".45664" style="opacity:.97636;fill:#10181a" rx=".81845" transform="matrix(.98667 -.16275 0 1 0 0)" height="2.7373" width="1.6458" y="397.81" x="693.58"></rect><rect id="rect3373" ry=".45664" style="opacity:.97636;fill:#10181a" rx=".81845" transform="matrix(.98667 -.16275 0 1 0 0)" height="2.7373" width="1.6458" y="397.81" x="691.05"></rect><rect id="rect3375" ry=".45664" style="opacity:.97636;fill:#10181a" rx=".81845" transform="matrix(.98667 -.16275 0 1 0 0)" height="2.7373" width="1.6458" y="397.81" x="688.53"></rect><rect id="rect3377" ry=".45664" style="opacity:.97636;fill:#10181a" rx=".81845" transform="matrix(.98667 -.16275 0 1 0 0)" height="2.7373" width="1.6458" y="397.81" x="686"></rect><rect id="rect3379" ry=".45664" style="opacity:.97636;fill:#10181a" rx=".81845" transform="matrix(.98667 -.16275 0 1 0 0)" height="2.7373" width="1.6458" y="397.81" x="683.47"></rect><rect id="rect3381" ry=".45664" style="opacity:.97636;fill:#10181a" rx=".81845" transform="matrix(.98667 -.16275 0 1 0 0)" height="2.7373" width="1.6458" y="397.81" x="680.94"></rect><rect id="rect3383" ry=".45664" style="opacity:.97636;fill:#10181a" rx=".81845" transform="matrix(.98667 -.16275 0 1 0 0)" height="2.7373" width="1.6458" y="397.81" x="678.41"></rect><rect id="rect3385" ry=".45664" style="opacity:.97636;fill:#10181a" rx=".81845" transform="matrix(.98667 -.16275 0 1 0 0)" height="2.7373" width="1.6458" y="397.81" x="675.89"></rect><path id="path3487" style="fill-rule:evenodd;fill:url(#radialGradient3497)" d="m536.25 315.34l-2.68-4.28-2.5 0.18 3.75 4.46 1.43-0.36z"></path><path id="path3387" sodipodi:nodetypes="ccscc" style="fill-rule:evenodd;fill:url(#linearGradient3413)" d="m597.41 314.63l-7.5-5.54s-4.11 1.43-4.82 2.15c-0.71 0.71 4.91 3.93 4.91 3.93l7.41-0.54z"></path><path id="path3465" sodipodi:nodetypes="cssssssc" style="fill-rule:evenodd;fill:url(#radialGradient3473)" d="m602.77 322.22s0.31 3.81-4.38 6.7c-5.03 3.09-14.94-1.17-15.26-5-0.14-1.65-0.31-2.17 0.71-4.02 0.69-1.26 3.31-3.63 5.18-4.56 1.96-0.97 5.44-1.55 7.86-0.98 2.37 0.56 4.54 2.25 5.44 4.29 0.8 1.8 0.59 3.64 0.45 3.57z"></path><path id="path3389" style="fill-rule:evenodd;fill:url(#linearGradient3405)" d="m588.75 315.88l-2.14 1.07-5.72-3.75 3.22-1.07 4.64 3.75z"></path><path id="path3415" sodipodi:rx="6.0267859" sodipodi:ry="5.8035712" style="fill:url(#radialGradient3461)" sodipodi:type="arc" d="m601.87 320.26a6.0268 5.8036 0 1 1 -12.05 0 6.0268 5.8036 0 1 1 12.05 0z" transform="matrix(1.037 0 0 1.1769 -21.845 -55.187)" sodipodi:cy="320.25519" sodipodi:cx="595.84821"></path><path id="path3419" sodipodi:rx="6.0267859" sodipodi:ry="5.8035712" style="fill:#000000" sodipodi:type="arc" d="m601.87 320.26a6.0268 5.8036 0 1 1 -12.05 0 6.0268 5.8036 0 1 1 12.05 0z" transform="matrix(.89630 0 0 .93077 62.595 23.734)" sodipodi:cy="320.25519" sodipodi:cx="595.84821"></path><path id="path3489" style="fill-rule:evenodd;fill:#b0b3b3" d="m530.18 317.67l3.03-1.79-1.42-3.57-2.33 1.61 0.72 3.75z"></path><path id="path3481" sodipodi:rx="6.0267859" sodipodi:ry="5.8035712" style="fill:url(#radialGradient3485)" sodipodi:type="arc" d="m601.87 320.26a6.0268 5.8036 0 1 1 -12.05 0 6.0268 5.8036 0 1 1 12.05 0z" transform="matrix(1.3434 0 0 1.3769 -266 -118.43)" sodipodi:cy="320.25519" sodipodi:cx="595.84821"></path><path id="path3477" sodipodi:rx="6.0267859" sodipodi:ry="5.8035712" style="fill:url(#radialGradient3479)" sodipodi:type="arc" d="m601.87 320.26a6.0268 5.8036 0 1 1 -12.05 0 6.0268 5.8036 0 1 1 12.05 0z" transform="matrix(1.0323 0 0 1.0846 -79.822 -25.09)" sodipodi:cy="320.25519" sodipodi:cx="595.84821"></path><path id="path3475" sodipodi:rx="6.0267859" sodipodi:ry="5.8035712" style="fill:#000000" sodipodi:type="arc" d="m601.87 320.26a6.0268 5.8036 0 1 1 -12.05 0 6.0268 5.8036 0 1 1 12.05 0z" transform="matrix(.82222 0 0 .85385 45.348 48.815)" sodipodi:cy="320.25519" sodipodi:cx="595.84821"></path><path id="path3522" sodipodi:nodetypes="csssccc" style="fill-rule:evenodd;fill:url(#linearGradient3532)" d="m561.16 314.27s0.18 1.79 1.79 2.15c1.6 0.35 2.23 0.35 3.3-0.18 1.07-0.54 1.16-2.68 1.25-3.22 0.09-0.53-0.18-1.87-0.18-1.87l-2.41 0.09-3.75 3.03z"></path><path id="path3534" sodipodi:nodetypes="csssccc" style="fill-rule:evenodd;fill:url(#linearGradient3536)" d="m539.55 314.48s0.16 1.5 1.56 1.8c1.41 0.3 1.95 0.3 2.89-0.15s1.01-2.25 1.09-2.7-0.15-1.57-0.15-1.57l-2.11 0.08-3.28 2.54z"></path><path id="path3538" sodipodi:nodetypes="csssccc" style="fill-rule:evenodd;fill:url(#linearGradient3540)" d="m609.02 314.02s0 3.08 2.28 3.89c2.29 0.82 2.92 0.22 4.45-0.12 1.52-0.33 2.15-2.98 2.28-3.57 0.12-0.58-0.26-2.16-0.26-2.16l-3.42-0.52-5.33 2.48z"></path><path id="path3543" style="fill-rule:evenodd;fill:#214079" d="m599.73 285.88l8.13-4.02-2.15-4.91-6.69 4.29 0.71 4.64z"></path><path id="path3545" style="fill-rule:evenodd;fill:#801d22" d="m599.87 287.17l8.34-4.1 0.9 1.87-8.84 4.38-0.4-2.15z"></path><path id="path3547" style="fill-rule:evenodd;fill:#801d22" d="m600.45 290.34l9.39-4.18 1.01 1.86-9.95 4.46-0.45-2.14z"></path><path id="path3307" style="fill-rule:evenodd;fill:#bac3c4" d="m600.79 305.44l-44.7-3.03s-1.26-0.51-0.25-0.76 47.73 0.5 47.73 0.5h4.29l-7.07 3.29z"></path><rect id="rect3323" style="opacity:.97636;fill:#10181a" transform="matrix(.95856 -.28488 0 1 0 0)" rx=".80475" ry=".45664" height="2.095" width="1.3354" y="471.96" x="712.42"></rect><rect id="rect3325" style="opacity:.97636;fill:#10181a" transform="matrix(.95856 -.28488 0 1 0 0)" rx=".80475" ry=".45664" height="2.095" width="1.3354" y="471.96" x="710.37"></rect><rect id="rect3327" style="opacity:.97636;fill:#10181a" transform="matrix(.95856 -.28488 0 1 0 0)" rx=".80475" ry=".45664" height="2.095" width="1.3354" y="471.96" x="708.32"></rect><rect id="rect3329" style="opacity:.97636;fill:#10181a" transform="matrix(.95856 -.28488 0 1 0 0)" rx=".80475" ry=".45664" height="2.095" width="1.3354" y="471.96" x="706.27"></rect><rect id="rect3331" style="opacity:.97636;fill:#10181a" transform="matrix(.95856 -.28488 0 1 0 0)" rx=".80475" ry=".45664" height="2.095" width="1.3354" y="471.96" x="704.22"></rect><rect id="rect3333" style="opacity:.97636;fill:#10181a" transform="matrix(.95856 -.28488 0 1 0 0)" rx=".80475" ry=".45664" height="2.095" width="1.3354" y="471.96" x="702.17"></rect><rect id="rect3335" style="opacity:.97636;fill:#10181a" transform="matrix(.95856 -.28488 0 1 0 0)" rx=".80475" ry=".45664" height="2.095" width="1.3354" y="471.96" x="700.11"></rect><rect id="rect3337" style="opacity:.97636;fill:#10181a" transform="matrix(.95856 -.28488 0 1 0 0)" rx=".80475" ry=".45664" height="2.095" width="1.3354" y="471.96" x="698.06"></rect><rect id="rect3341" style="opacity:.97636;fill:#10181a" transform="matrix(.93605 -.35187 0 1 0 0)" rx=".80117" ry=".45664" height="2.076" width="1.3392" y="524.69" x="709.81"></rect><rect id="rect3343" style="opacity:.97636;fill:#10181a" transform="matrix(.93605 -.35187 0 1 0 0)" rx=".80117" ry=".45664" height="2.076" width="1.3392" y="524.69" x="707.75"></rect><rect id="rect3345" style="opacity:.97636;fill:#10181a" transform="matrix(.93605 -.35187 0 1 0 0)" rx=".80117" ry=".45664" height="2.076" width="1.3392" y="524.69" x="705.69"></rect><rect id="rect3347" style="opacity:.97636;fill:#10181a" transform="matrix(.93605 -.35187 0 1 0 0)" rx=".80117" ry=".45664" height="2.076" width="1.3392" y="524.69" x="703.63"></rect><rect id="rect3350" style="opacity:.97636;fill:#10181a" transform="matrix(.93605 -.35187 0 1 0 0)" rx=".80117" ry=".45664" height="2.076" width="1.3392" y="524.69" x="701.58"></rect><path id="path3352" style="fill-rule:evenodd;fill:url(#linearGradient3360)" d="m612.72 292.49c0-0.5-7.07-15.65-7.07-15.65l-6.63-15.09-2.46 2.4 5.11 31.18 11.05-2.84z"></path><path id="path3362" sodipodi:nodetypes="cccccc" style="fill-rule:evenodd;fill:url(#linearGradient3364)" d="m612.72 292.49c0-0.5-7.07-15.65-7.07-15.65l-6.57-15.47-2.96 1.89 5.55 32.07 11.05-2.84z"></path></g><path id="path3498" style="fill-rule:evenodd;fill:#f5fffa" d="m435.55 258.36c-1.16 0.01-2.28 0.29-4.12 0.75-1.28 0.32-3.12 0.8-5 1.43v99.57c1.03 0.02 2.32 0.01 4.28 0.4 2.61 0.53 7.3 2.79 10 1.44 2.86-1.43 3.55-3.24 7.87-2.16 3.55 0.89 16.93 3.08 20 0 1.16-1.15 5.06-12.84 5.69-12.84 0.56 0 17.6 2.05 18.6 0.72 3.07-4.1 2.82-1.62 7.84-2.88 3.7-0.92 6.54-2.26 9.28-5 1.29-1.28 2.55-5.42 5-6.4 10.77-4.31 7.56-2.39 9.28-9.28 1.95-7.8 15.39-4.32 22.88-4.32 3.33 0 20.58 2.63 17.12-4.28-3.49-6.98-8.72-0.16-13.56-5-5.94-5.93 16.22-2.84 20.72-2.84 10.03 0 21.38 1.79 29.28-2.16 4.61-2.3 12.21-2.76 19.28-2.12 6.26 0.57 9.11 1.55 14.28 2.84 2.99 0.75 19.96 1.81 24.31 0.72 3.09-0.77 14.71-1.7 10.69-5.72-2.24-2.24-8.51 0.96-9.28-2.12-0.72-2.9-10.89-3.61-11.41-7.16-0.71-4.98-16.25-2.03-2.87-8.56 0.43-0.21-3.45-0.98-3.56-1.44-1.63-6.5-22.73-1.44-30.72-1.44h-6.44c-10.76 0-25.84 4.44-37.84 1.44-4.13-1.03-5.51-3.56-9.28-3.56-4.6 0-6.34 4.28-9.29 4.28-3.9 0-29.05 2.36-30-1.44-0.44-1.77-2.45-7.84-5-7.84-6.55 0-10.21 1.22-14.31-2.88-1.1-1.1-5.3-6.17-7.12-5.72-3.97 1-12.46 3.66-15.72-0.68-3.29-4.38-20.31 3.87-16.44 0-4.03-0.81-6.97-4.32-10-4.32-3.75 0-7.1 0.04-10-0.68-2.06-0.52-3.27-0.77-4.44-0.75z"></path><path id="path3503" style="fill-rule:evenodd;fill:#f5fffa" d="m807 389.09c-1.25-0.02-2.41 0.03-3.39 0.28-4.17 1.06-5.14 2.39-11.43 1.59-5.16-0.65-24.65-2.27-29.13 0-1.55 0.8-8.07 4.43-8.33 5.1-0.85-0.56-6.36-2.79-20.11-3.25-7.33-0.25-10.97 1.2-18.27 2.12-5.38 0.69-9.53 1.67-13.51 3.69-1.87 0.95-3.71 3.99-7.27 4.72-15.67 3.18-10.97 1.78-13.47 6.87-2.84 5.76-18.29-1.53-29.17-1.53-4.85 0-14.81-1.95-9.79 3.16 1.59 1.61 1.93 2.24 1.89 2.44 0.43 0.15 1.17 0.47 2.71 1.25 8.64 4.38-23.59 2.12-30.14 2.12-14.59 0-14.62-0.6-26.11 2.31-6.7 1.71-17.77 2.04-28.06 1.57-9.1-0.42-17.33 3.55-24.85 2.59-4.36-0.55-29.04-1.34-35.38-0.53-4.48 0.57-21.39 1.28-15.55 4.25 3.27 1.66 12.4-0.72 13.52 1.56 1.05 2.14 15.83 2.66 16.57 5.28 1.05 3.69 23.64 1.52 4.17 6.35-0.62 0.15 5.01 0.72 5.18 1.06 2.37 4.81 33.05 1.06 44.68 1.06h9.4c12.58 0 13.38 1.13 22.24 2.72-3.35 0.83-6.56 1.6-9.6 1.13-3.51-0.56-23.38-1.34-28.49-0.54-3.61 0.57-17.26 1.26-12.55 4.22 2.64 1.66 10-0.71 10.91 1.57 0.84 2.14 12.77 2.68 13.37 5.31 0.84 3.68 19.05 1.48 3.34 6.31-0.5 0.15 4.08 0.72 4.22 1.06 1.91 4.81 26.62 1.07 36 1.07h7.56c12.62 0 10.38 1.72 24.47 3.93 4.84 0.77 13.11-3.09 17.54-3.09 5.39 0 11.85 2.56 15.31 2.56 4.58 0 20.79 6.13 21.9 8.94 0.52 1.31 10.68-3.5 13.66-3.5 7.69 0 11.96-0.91 16.77 2.12 1.3 0.82 6.24 4.56 8.38 4.22 4.66-0.73 15.71-6.99 19.53-3.78 3.85 3.24 23.83-2.86 19.28 0 4.73 0.6 8.18 3.19 11.73 3.19 4.41 0 8.33-0.04 11.73 0.5 2.42 0.38 3.86 0.57 5.23 0.56s2.68-0.22 4.84-0.56c1.51-0.24 3.66-0.6 5.87-1.06v-22.85-43.59-22.84c-1.5-0.02-3.41-0.03-6.25-0.32-2.85-0.29-7.39-1.27-11.15-1.34zm-161.98 25.19c-0.93-0.33-0.06 0.29 0 0zm109.7-18.19c0.13 0.09 0.21 0.12 0.1 0.09-0.06-0.01-0.11-0.05-0.1-0.09z"></path><path id="path3509" sodipodi:nodetypes="csccssssssssssssssssssssssssssssssssscssc" style="fill-rule:evenodd;fill:#f5fffa" d="m817.49 270.13c0.88-0.09 1.72-0.36 3.12-0.83 0.97-0.32 2.36-0.81 3.78-1.4v-66.44c-0.78 0.05-1.76 0.15-3.24-0.01-1.97-0.21-5.53-1.57-7.56-0.39-2.17 1.26-2.69 2.64-5.96 2.13-2.69-0.42-12.81-1.13-15.14 1.35-0.87 0.93-4.75 5.46-4.3 5.59 0.42 0.13-2.1-2.65-10.5-2.45-3.81 0.1-5.71 1.71-9.51 2.98-2.8 0.93-4.95 2.11-7.02 4.32-0.97 1.04-1.93 4.18-3.78 5.07-8.16 3.92-5.72 2.28-7.03 7.49-1.47 5.89-9.5-0.68-15.16-0.17-2.53 0.22-7.72-1.25-5.1 3.62 2.64 4.93-1.26 0.23 2.4 3.48 4.49 3.98-12.27 3.2-15.68 3.5-7.59 0.68-7.61 0.07-13.58 3.52-3.49 2.02-9.24 2.88-14.59 2.88-4.74 0-9.04 4.37-12.95 3.77-2.27-0.35-15.1 0.01-18.4 1.11-2.33 0.78-11.13 2.26-8.09 4.95 1.7 1.51 6.44-1.28 7.03 0.94 0.54 2.1 8.24 1.93 8.63 4.52 0.54 3.64 12.3 0.4 2.17 6.13-0.32 0.19 2.61 0.49 2.7 0.83 1.23 4.69 17.2-0.48 23.24-1.02 1.62-0.14 3.25-0.29 4.87-0.43 8.14-0.73 6.7 1.12 15.78 2.52 3.13 0.49 8.46-3.83 11.31-4.09 3.48-0.31 7.65 1.87 9.88 1.67 2.95-0.27 13.41 4.91 14.13 7.65 0.34 1.29 6.86-4.1 8.79-4.27 4.95-0.44 7.72-1.6 10.83 1.16 0.83 0.74 4.01 4.2 5.39 3.74 3-1 10.14-7.89 12.61-4.9 2.48 3.01 15.37-4.24 12.44-1.11 3.04 0.32 5.27 2.71 7.56 2.51 2.84-0.26 5.38-0.51 7.57-0.17 1.56 0.24 2.47 0.34 3.36 0.25z"></path></g><metadata></metadata></svg> 