<?xml version="1.0" encoding="UTF-8" standalone="no"?> <!-- Created with Inkscape (http://www.inkscape.org/) --> <svg xmlns:inkscape="http://www.inkscape.org/namespaces/inkscape" xmlns:rdf="http://www.w3.org/1999/02/22-rdf-syntax-ns#" xmlns="http://www.w3.org/2000/svg" xmlns:cc="http://creativecommons.org/ns#" xmlns:dc="http://purl.org/dc/elements/1.1/" xmlns:sodipodi="http://sodipodi.sourceforge.net/DTD/sodipodi-0.dtd" xmlns:svg="http://www.w3.org/2000/svg" xmlns:ns1="http://sozi.baierouge.fr" xmlns:xlink="http://www.w3.org/1999/xlink" id="svg1170" sodipodi:docname="sun_tatiana_coutinho_01.svg" viewBox="0 0 256.81 223.42" sodipodi:version="0.32" inkscape:output_extension="org.inkscape.output.svg.inkscape" inkscape:version="0.45+devel" sodipodi:docbase="/home/tatiana/imagens/geral"><g id="layer1" inkscape:label="Layer 1" inkscape:groupmode="layer" transform="translate(-240.52 -425.28)"><g id="g14904" inkscape:export-ydpi="300.00000" inkscape:export-xdpi="300.00000" inkscape:export-filename="/home/tatiana/imagens/geral/sun.png" transform="matrix(1.2544 0 0 1.2544 -456.03 -594.1)"><g id="g13624" transform="translate(105.86 -100.23)"><path id="path13616" style="fill:#3f331a" d="m565.36 1014.9c0.22-2.6-1-4.9-2.07-7.1-4.51-6.3-13.18-6.6-20.29-7 1.17-2.77-19.58 5-17.18 3.6 20.07-11.45 16.45-10.33 11.2-5.57-2.92 4.87-1.24 9.97 0.47 14.97 2.4 6.3 6.9 10.5 12.81 13.5 8.37 3.2 17.66 4.8 26.52 3.1-0.8 0.8 3.38-1.7 2.55-1.2-21.2 12-8.89 7.7-10.27-5.8-0.98-8.6-5.25-14.5-12.52-18.9-2.37-1.3-4.96-1.9-7.52-2.7l14.1-9.66c2.64 0.87 5.33 1.63 7.76 3.03 7.6 4.78 12.25 11.13 13.4 20.23 1.83 14.6-4.11 21.1-21.25 25.4-9.17 1-18.58-0.6-27.11-4-6.22-3.3-11.02-8-13.63-14.6-1.91-5.4-3.63-10.9-1.26-16.5 8.68-10.78 22.51-15.27 35.8-14.91 7.79 0.63 16.73 1.36 21.51 8.31 1.23 2.5 2.58 4.9 2.79 7.7l-15.81 8.1z"></path><path id="path13617" style="fill:#3f331a" d="m542.88 982.99c0.17-3.72 0.19-7.45 0.23-11.17-0.37-10.22 1.77-19.68 6.24-28.82 8.23-14.91 22.03-22.92 37.23-30.13l-13.44 10.69c-5.32 2.75-13.59 7.58 9.66-5.82 3.82-2.2-22.75 18.32-18.01 18.31-4.53 8.82-6.81 17.96-6.33 27.95 0.04 3.65 0.05 7.3 0.22 10.94l-15.8 8.05z"></path><path id="path13618" style="fill:#3f331a" d="m588.66 974.99c-9.04-0.42-21.89 13.44-10.65 2.12 9.01-9.18 20.26-15.98 32.05-21.05 6.07-2.3 12.56-2.2 18.94-2.03l-13.86 10.02c-6.33-0.04-12.72 0.08-18.61 2.7-5.54 2.68-12.57 7.08 10.52-6.37 0.36-0.21-13.17 10.09-13 10.07-5.59 5.79-13.81 15.81-21.19 12.59l15.8-8.05z"></path><path id="path13619" style="fill:#3f331a" d="m602.94 1002.8c5.33 0.2 10.1 3.1 14.68 5.6 13 7.2 24.43 16.9 33.96 28.2 0.94 1.1 1.71 2.4 2.56 3.6l-14.73 8.6c-0.11-0.1-2.26-3.5-2.39-3.5-9.19-11.3-20.44-20.9-33.45-27.7-4.71-2.4-9.57-4.9-14.98-4.4l14.35-10.4z"></path><path id="path13620" style="fill:#3f331a" d="m584.45 1043.5c4.24 4.6 6.56 10.8 8.68 16.8 2.2 7.1 1.16 14.3-0.96 21.3l-15.22 7.2c2.19-6.6 3.35-13.5 1.28-20.3-1.98-5.4-4.08-11.6-8.59-15.3l14.81-9.7z"></path><path id="path13621" style="fill:#3f331a" d="m523.31 1076.8c10.41-6.1-2.81 1.7-6.91 4 6.5-3.9 10.71-9.8 13.79-16.6 0.86-2 1.34-4 1.88-6.1l15.52-7.5c-0.5 2.2-0.94 4.3-1.77 6.4-2.89 6.9-6.9 13.3-13.29 17.5-6.3 3.7-16.08 10.9-23.57 12.8l14.35-10.5z"></path><path id="path13622" style="fill:#3f331a" d="m467.09 1041.4c4.85-0.7 9.66-1.7 14.48-2.6 9.16-1.6 18.09-4.1 26.75-7.5 4.26-1.5 8.07-3.9 11.76-6.5l-11.26 13.2c-3.81 2.4-7.72 4.6-11.99 6.1-8.75 3.2-17.77 5.5-26.94 7.2-4.97 1-9.95 2-14.89 3.1l12.09-13z"></path><path id="path13623" style="fill:#3f331a" d="m504.23 998.26c-5.51-0.13-11-0.17-16.49-0.59-8.66-0.68-16.04-2.93-20.04-11.03-2.38-6.99-1.55-14.31-0.35-21.44l15.36-7.46c-1.25 6.77-2.17 13.77 0.01 20.46 3.7 7.47 11.1 8.93 18.94 9.52 5.64 0.32 11.28 0.35 16.92 0.12l-14.35 10.42z"></path></g><g id="g14892"><path id="path12986" style="fill:#f5e538" transform="translate(-26.23 1.8735)" d="m691.87 914.92c0.22-2.58-1-4.82-2.08-7.09-4.5-6.24-13.17-6.6-20.29-7 1.17-2.74-19.58 5-17.17 3.63 20.07-11.44 16.45-10.33 11.19-5.57-2.91 4.83-1.23 9.96 0.48 14.93 2.39 6.31 6.9 10.55 12.81 13.53 8.37 3.18 17.65 4.78 26.51 3.1-0.8 0.8 3.38-1.68 2.56-1.21-21.2 12.04-8.89 7.77-10.28-5.8-0.97-8.6-5.24-14.52-12.52-18.87-2.36-1.3-4.96-1.95-7.51-2.71l14.1-9.66c2.64 0.87 5.32 1.63 7.75 3.03 7.61 4.78 12.26 11.1 13.41 20.2 1.83 14.66-4.11 21.17-21.25 25.42-9.17 0.97-18.58-0.56-27.12-4.02-6.21-3.26-11.01-7.95-13.63-14.58-1.91-5.4-3.63-10.91-1.25-16.45 8.68-10.82 22.51-15.31 35.79-14.94 7.8 0.62 16.74 1.36 21.52 8.3 1.22 2.45 2.57 4.92 2.78 7.71l-15.8 8.05z"></path><path id="path12987" style="fill:#f5e538" transform="translate(-26.23 1.8735)" d="m669.39 883.05c0.17-3.72 0.18-7.44 0.22-11.16-0.36-10.23 1.78-19.69 6.24-28.83 8.23-14.91 22.03-22.92 37.23-30.13l-13.43 10.69c-5.32 2.75-13.59 7.59 9.65-5.82 3.83-2.2-22.74 18.33-18 18.31-4.53 8.82-6.81 17.96-6.34 27.95 0.04 3.65 0.05 7.3 0.23 10.94l-15.8 8.05z"></path><path id="path12988" style="fill:#f5e538" transform="translate(-26.23 1.8735)" d="m715.17 875.05c-9.05-0.42-21.89 13.44-10.65 2.13 9-9.19 20.26-15.99 32.05-21.05 6.07-2.31 12.55-2.2 18.94-2.03l-13.87 10.01c-6.32-0.04-12.71 0.08-18.6 2.71-5.55 2.68-12.57 7.08 10.52-6.38 0.36-0.21-13.17 10.1-13.01 10.07-5.58 5.79-13.8 15.81-21.19 12.59l15.81-8.05z"></path><path id="path12989" style="fill:#f5e538" transform="translate(-26.23 1.8735)" d="m729.44 902.89c5.34 0.12 10.11 3.09 14.69 5.57 12.99 7.22 24.42 16.86 33.96 28.22 0.93 1.12 1.7 2.36 2.56 3.54l-14.74 8.65c-0.1-0.15-2.26-3.49-2.39-3.49-9.18-11.37-20.43-20.93-33.44-27.71-4.72-2.36-9.57-4.89-14.99-4.36l14.35-10.42z"></path><path id="path12990" style="fill:#f5e538" transform="translate(-26.23 1.8735)" d="m710.96 943.52c4.23 4.65 6.56 10.89 8.67 16.79 2.2 7.15 1.16 14.36-0.95 21.38l-15.22 7.18c2.18-6.65 3.35-13.5 1.28-20.34-1.98-5.4-4.09-11.58-8.6-15.26l14.82-9.75z"></path><path id="path12991" style="fill:#f5e538" transform="translate(-26.23 1.8735)" d="m649.82 976.89c10.41-6.15-2.82 1.66-6.91 4 6.49-3.9 10.7-9.87 13.79-16.63 0.86-1.95 1.34-4.03 1.87-6.08l15.53-7.48c-0.5 2.14-0.94 4.3-1.77 6.35-2.9 6.96-6.91 13.3-13.3 17.56-6.3 3.7-16.08 10.86-23.56 12.71l14.35-10.43z"></path><path id="path12992" style="fill:#f5e538" transform="translate(-26.23 1.8735)" d="m593.6 941.49c4.84-0.77 9.66-1.73 14.48-2.64 9.16-1.58 18.09-4.13 26.75-7.47 4.26-1.57 8.06-3.93 11.76-6.49l-11.26 13.17c-3.82 2.39-7.72 4.6-11.99 6.09-8.75 3.22-17.77 5.56-26.94 7.23-4.97 0.99-9.95 1.94-14.89 3.07l12.09-12.96z"></path><path id="path12994" style="fill:#f5e538" transform="translate(-26.23 1.8735)" d="m630.74 898.32c-5.51-0.12-11-0.17-16.5-0.59-8.66-0.67-16.04-2.93-20.03-11.03-2.39-6.98-1.55-14.31-0.35-21.43l15.36-7.47c-1.25 6.78-2.18 13.77 0.01 20.46 3.7 7.47 11.1 8.94 18.94 9.52 5.63 0.32 11.27 0.35 16.91 0.12l-14.34 10.42z"></path></g></g></g><metadata></metadata></svg> 