<?xml version="1.0" encoding="UTF-8" standalone="no"?> <!-- Generator: Adobe Illustrator 13.0.2, SVG Export Plug-In . SVG Version: 6.00 Build 14948) --> <svg xmlns:rdf="http://www.w3.org/1999/02/22-rdf-syntax-ns#" xmlns="http://www.w3.org/2000/svg" xmlns:cc="http://web.resource.org/cc/" xmlns:xlink="http://www.w3.org/1999/xlink" xmlns:dc="http://purl.org/dc/elements/1.1/" xmlns:svg="http://www.w3.org/2000/svg" xmlns:inkscape="http://www.inkscape.org/namespaces/inkscape" xmlns:sodipodi="http://sodipodi.sourceforge.net/DTD/sodipodi-0.dtd" xmlns:ns1="http://sozi.baierouge.fr" id="Layer_1" style="enable-background:new -0.258 -0.548 123.547 123.539" xml:space="preserve" viewBox="-0.258 -0.548 123.547 123.539" y="0px" x="0px"> <g> <path d="m108.66 123.2c8.148 0 14.742-6.617 14.742-14.773v-94.02c0-8.156-6.594-14.742-14.742-14.742h-94.027c-8.156 0-14.75 6.586-14.75 14.742v94.016c0 8.156 6.594 14.773 14.75 14.773h94.027z"></path> <path d="m14.633 2.168c-6.75 0-12.25 5.492-12.25 12.242v94.016c0 6.766 5.5 12.273 12.25 12.273h94.023c6.758 0 12.258-5.508 12.258-12.273v-94.02c0-6.75-5.5-12.242-12.258-12.242h-94.027z"></path> <polygon style="fill:#FFFFFF" points="77.797 80.082 82.602 84.16 91 74.277 81.117 65.879 76.992 70.73"></polygon> <polygon style="fill:#FFFFFF" points="105.41 86.387 86.781 86.355 86.758 105.36 99.43 105.36 105.41 98.91"></polygon> <polygon style="fill:#FFFFFF" points="71.742 106.36 78.039 104.47 72.375 85.527 58.93 89.535 56.32 100.86"></polygon> <path style="fill:#FFFFFF" d="m58.781 23.324c-14.547-8.547-22.203-8.812-35.438-10.352l-0.484 2.484c16.43 3.812 20.594 7.672 31.898 14.531l1.562 7.469-37.319 61.478c-0.367 0.734-0.586 1.539-0.609 2.414-0.047 3.055 2.367 5.547 5.391 5.594 2.008 0.023 3.766-1.023 4.766-2.586l36.725-60.08 14.938 9.57 7.688-12.672-29.118-17.844"></path> </g> <metadata></metadata></svg> 