<?xml version="1.0" encoding="UTF-8" standalone="no"?> <!-- Created with Inkscape (http://www.inkscape.org/) --> <svg xmlns:inkscape="http://www.inkscape.org/namespaces/inkscape" xmlns:rdf="http://www.w3.org/1999/02/22-rdf-syntax-ns#" xmlns="http://www.w3.org/2000/svg" xmlns:sodipodi="http://sodipodi.sourceforge.net/DTD/sodipodi-0.dtd" xmlns:cc="http://creativecommons.org/ns#" xmlns:xlink="http://www.w3.org/1999/xlink" xmlns:dc="http://purl.org/dc/elements/1.1/" xmlns:svg="http://www.w3.org/2000/svg" xmlns:ns1="http://sozi.baierouge.fr" id="svg1" sodipodi:docname="various_servers_01.svg" viewBox="0 0 412.5 889.99" sodipodi:version="0.32" inkscape:output_extension="org.inkscape.output.svg.inkscape" inkscape:version="0.45+devel" sodipodi:docbase="/home/deelight"><defs id="defs3"><linearGradient id="linearGradient747"><stop id="stop748" style="stop-color:#caf0fd" offset="0"></stop><stop id="stop749" style="stop-color:#005eff" offset="1"></stop></linearGradient><linearGradient id="linearGradient581"><stop id="stop582" style="stop-color:#cacaca" offset="0"></stop><stop id="stop583" style="stop-color:#ffffff" offset="1"></stop></linearGradient><linearGradient id="linearGradient575"><stop id="stop576" offset="0"></stop><stop id="stop577" style="stop-color:#fff" offset="1"></stop></linearGradient><linearGradient id="linearGradient578" y2="164.38" xlink:href="#linearGradient581" gradientUnits="userSpaceOnUse" y1="300.35" gradientTransform="matrix(.82433 0 0 1.2131 -153.75 -106.12)" x2="334.12" x1="579.37"></linearGradient><linearGradient id="linearGradient580" y2="146.75" xlink:href="#linearGradient581" gradientUnits="userSpaceOnUse" y1="374.61" gradientTransform="matrix(.61315 0 0 1.6309 -177.58 -194.98)" x2="578.26" x1="974.1"></linearGradient><linearGradient id="linearGradient596" y2="446.18" xlink:href="#linearGradient581" gradientUnits="userSpaceOnUse" y1="397.44" gradientTransform="matrix(1.3443 0 0 .74390 -338.79 -213.31)" x2="439.92" x1="537.78"></linearGradient><linearGradient id="linearGradient598" y2="386.65" xlink:href="#linearGradient581" gradientUnits="userSpaceOnUse" y1="414.91" gradientTransform="matrix(2.083 0 0 .48007 -153.75 -106.12)" x2="166.42" x1="191.25"></linearGradient><radialGradient id="radialGradient599" xlink:href="#linearGradient581" gradientUnits="userSpaceOnUse" cy="855.2" cx="181.49" gradientTransform="scale(2.1454 .46610)" r="91.181"></radialGradient><linearGradient id="linearGradient609" y2="173.71" xlink:href="#linearGradient581" gradientUnits="userSpaceOnUse" y1="292.99" gradientTransform="matrix(.79584 0 0 1.2565 -153.75 -106.12)" x2="392.2" x1="458.64"></linearGradient><linearGradient id="linearGradient610" y2="217.79" xlink:href="#linearGradient581" gradientUnits="userSpaceOnUse" y1="230.25" gradientTransform="scale(.98923 1.0109)" x2="281.72" x1="298.61"></linearGradient><linearGradient id="linearGradient615" y2="1237" xlink:href="#linearGradient575" gradientUnits="userSpaceOnUse" y1="1545.5" gradientTransform="matrix(1.9494 0 0 .51297 -153.75 -106.12)" x2="121.41" x1="213.91"></linearGradient><linearGradient id="linearGradient617" y2="-1484.7" xlink:href="#linearGradient575" gradientUnits="userSpaceOnUse" y1="-1517.9" gradientTransform="matrix(1.9553 0 0 .51142 -153.45 106.56)" x2="90.995" x1="129.54"></linearGradient><linearGradient id="linearGradient635" y2="1044" gradientUnits="userSpaceOnUse" y1="955.75" gradientTransform="matrix(1.9281 0 0 .51866 -153.75 -106.12)" x2="142.95" x1="117.73"><stop id="stop637" style="stop-color:#caf0fd" offset="0"></stop><stop id="stop638" style="stop-color:#000000" offset="1"></stop></linearGradient><linearGradient id="linearGradient663" y2="2958.4" xlink:href="#linearGradient575" gradientUnits="userSpaceOnUse" y1="3204.5" gradientTransform="matrix(1.6845 0 0 .59364 -338.31 -212.9)" x2="1033.1" x1="1242.4"></linearGradient><linearGradient id="linearGradient665" y2="1923.4" xlink:href="#linearGradient575" gradientUnits="userSpaceOnUse" y1="2069.6" gradientTransform="matrix(1.6933 0 0 .59057 -178.28 -195.96)" x2="276.82" x1="358.23"></linearGradient><linearGradient id="linearGradient705" y2="800.1" xlink:href="#linearGradient575" gradientUnits="userSpaceOnUse" y1="828.11" x2="352.3" x1="385"></linearGradient><linearGradient id="linearGradient743" y2="2633.5" xlink:href="#linearGradient575" gradientUnits="userSpaceOnUse" y1="2784.8" gradientTransform="matrix(2.9515 0 0 .33881 -153.75 -106.12)" x2="53.838" x1="144.98"></linearGradient><linearGradient id="linearGradient746" y2="1649.1" xlink:href="#linearGradient747" gradientUnits="userSpaceOnUse" y1="1602.8" gradientTransform="matrix(1.7614 0 0 .56773 -153.75 -106.12)" x2="244.97" x1="223.17"></linearGradient><linearGradient id="linearGradient2436" y2="930.24" xlink:href="#linearGradient575" gradientUnits="userSpaceOnUse" x2="423.41" gradientTransform="matrix(1.0889 0 0 .91838 -177.76 -195.17)" y1="1156.9" x1="549.58" inkscape:collect="always"></linearGradient><linearGradient id="linearGradient2438" y2="2253" xlink:href="#linearGradient575" gradientUnits="userSpaceOnUse" x2="814.57" gradientTransform="matrix(1.6845 0 0 .59364 -338.31 -212.9)" y1="2499" x1="1023.9" inkscape:collect="always"></linearGradient><linearGradient id="linearGradient2442" y2="1536.9" xlink:href="#linearGradient575" gradientUnits="userSpaceOnUse" x2="598.42" gradientTransform="matrix(1.6845 0 0 .59364 -338.31 -212.9)" y1="1783" x1="807.77" inkscape:collect="always"></linearGradient><linearGradient id="linearGradient2444" y2="615.25" xlink:href="#linearGradient575" gradientUnits="userSpaceOnUse" x2="473.29" gradientTransform="matrix(.98722 0 0 1.0129 -178.3 -196.28)" y1="866.39" x1="613.09" inkscape:collect="always"></linearGradient><linearGradient id="linearGradient2446" y2="716.19" xlink:href="#linearGradient575" gradientUnits="userSpaceOnUse" x2="135.98" gradientTransform="matrix(1.7667 0 0 .56602 -153.75 -106.12)" y1="1059.8" x1="238.99" inkscape:collect="always"></linearGradient><linearGradient id="linearGradient2448" y2="400.37" xlink:href="#linearGradient581" gradientUnits="userSpaceOnUse" x2="183.43" gradientTransform="matrix(1.9553 0 0 .51142 -153.75 -106.12)" y1="424.48" x1="204.62" inkscape:collect="always"></linearGradient><linearGradient id="linearGradient2450" y2="435.01" xlink:href="#linearGradient581" gradientUnits="userSpaceOnUse" x2="183.43" gradientTransform="matrix(1.9553 0 0 .51142 -153.75 -106.12)" y1="459.12" x1="204.62" inkscape:collect="always"></linearGradient><linearGradient id="linearGradient2452" y2="469.65" xlink:href="#linearGradient581" gradientUnits="userSpaceOnUse" x2="183.43" gradientTransform="matrix(1.9553 0 0 .51142 -153.75 -106.12)" y1="493.77" x1="204.62" inkscape:collect="always"></linearGradient><linearGradient id="linearGradient2454" y2="504.29" xlink:href="#linearGradient581" gradientUnits="userSpaceOnUse" x2="183.43" gradientTransform="matrix(1.9553 0 0 .51142 -153.75 -106.12)" y1="528.41" x1="204.62" inkscape:collect="always"></linearGradient><linearGradient id="linearGradient2456" y2="538.93" xlink:href="#linearGradient581" gradientUnits="userSpaceOnUse" x2="183.43" gradientTransform="matrix(1.9553 0 0 .51142 -153.75 -106.12)" y1="563.05" x1="204.62" inkscape:collect="always"></linearGradient><linearGradient id="linearGradient2458" y2="573.57" xlink:href="#linearGradient581" gradientUnits="userSpaceOnUse" x2="183.43" gradientTransform="matrix(1.9553 0 0 .51142 -153.75 -106.12)" y1="597.69" x1="204.62" inkscape:collect="always"></linearGradient><linearGradient id="linearGradient2460" y2="608.21" xlink:href="#linearGradient581" gradientUnits="userSpaceOnUse" x2="183.43" gradientTransform="matrix(1.9553 0 0 .51142 -153.75 -106.12)" y1="632.33" x1="204.62" inkscape:collect="always"></linearGradient><linearGradient id="linearGradient2462" y2="642.86" xlink:href="#linearGradient581" gradientUnits="userSpaceOnUse" x2="183.43" gradientTransform="matrix(1.9553 0 0 .51142 -153.75 -106.12)" y1="666.97" x1="204.62" inkscape:collect="always"></linearGradient><linearGradient id="linearGradient2464" y2="217.87" xlink:href="#linearGradient581" gradientUnits="userSpaceOnUse" x2="282.21" gradientTransform="scale(.98858 1.0116)" y1="229.62" x1="298.14" inkscape:collect="always"></linearGradient><linearGradient id="linearGradient2466" y2="-825.3" xlink:href="#linearGradient575" gradientUnits="userSpaceOnUse" x2="257.04" gradientTransform="matrix(1.9553 0 0 .51142 -106.12 153.75)" y1="-858.44" x1="295.59" inkscape:collect="always"></linearGradient><linearGradient id="linearGradient2468" y2="-783.73" xlink:href="#linearGradient575" gradientUnits="userSpaceOnUse" x2="257.04" gradientTransform="matrix(1.9553 0 0 .51142 -106.12 153.75)" y1="-816.87" x1="295.59" inkscape:collect="always"></linearGradient><linearGradient id="linearGradient2470" y2="-742.16" xlink:href="#linearGradient575" gradientUnits="userSpaceOnUse" x2="257.04" gradientTransform="matrix(1.9553 0 0 .51142 -106.12 153.75)" y1="-775.3" x1="295.59" inkscape:collect="always"></linearGradient><linearGradient id="linearGradient2472" y2="-700.59" xlink:href="#linearGradient575" gradientUnits="userSpaceOnUse" x2="257.04" gradientTransform="matrix(1.9553 0 0 .51142 -106.12 153.75)" y1="-733.73" x1="295.59" inkscape:collect="always"></linearGradient><linearGradient id="linearGradient2474" y2="-659.02" xlink:href="#linearGradient575" gradientUnits="userSpaceOnUse" x2="257.04" gradientTransform="matrix(1.9553 0 0 .51142 -106.12 153.75)" y1="-692.16" x1="295.59" inkscape:collect="always"></linearGradient><linearGradient id="linearGradient2476" y2="-617.45" xlink:href="#linearGradient575" gradientUnits="userSpaceOnUse" x2="257.04" gradientTransform="matrix(1.9553 0 0 .51142 -106.12 153.75)" y1="-650.59" x1="295.59" inkscape:collect="always"></linearGradient><linearGradient id="linearGradient2478" y2="-575.88" xlink:href="#linearGradient575" gradientUnits="userSpaceOnUse" x2="257.04" gradientTransform="matrix(1.9553 0 0 .51142 -106.12 153.75)" y1="-609.02" x1="295.59" inkscape:collect="always"></linearGradient><linearGradient id="linearGradient2480" y2="-534.31" xlink:href="#linearGradient575" gradientUnits="userSpaceOnUse" x2="257.04" gradientTransform="matrix(1.9553 0 0 .51142 -106.12 153.75)" y1="-567.45" x1="295.59" inkscape:collect="always"></linearGradient><linearGradient id="linearGradient2482" y2="-492.74" xlink:href="#linearGradient575" gradientUnits="userSpaceOnUse" x2="257.04" gradientTransform="matrix(1.9553 0 0 .51142 -106.12 153.75)" y1="-525.88" x1="295.59" inkscape:collect="always"></linearGradient><linearGradient id="linearGradient2484" y2="-451.17" xlink:href="#linearGradient575" gradientUnits="userSpaceOnUse" x2="257.04" gradientTransform="matrix(1.9553 0 0 .51142 -106.12 153.75)" y1="-484.31" x1="295.59" inkscape:collect="always"></linearGradient><linearGradient id="linearGradient2486" y2="-409.6" xlink:href="#linearGradient575" gradientUnits="userSpaceOnUse" x2="257.04" gradientTransform="matrix(1.9553 0 0 .51142 -106.12 153.75)" y1="-442.74" x1="295.59" inkscape:collect="always"></linearGradient><linearGradient id="linearGradient2488" y2="-1490.9" xlink:href="#linearGradient575" gradientUnits="userSpaceOnUse" x2="141.27" gradientTransform="matrix(2.0875 0 0 .47904 -153.75 106.12)" y1="-1543.8" x1="202.73" inkscape:collect="always"></linearGradient><linearGradient id="linearGradient2490" y2="-1401.6" xlink:href="#linearGradient575" gradientUnits="userSpaceOnUse" x2="90.995" gradientTransform="matrix(1.9553 0 0 .51142 -153.45 106.56)" y1="-1434.7" x1="129.54" inkscape:collect="always"></linearGradient><linearGradient id="linearGradient2492" y2="-1443.2" xlink:href="#linearGradient575" gradientUnits="userSpaceOnUse" x2="90.995" gradientTransform="matrix(1.9553 0 0 .51142 -153.45 106.56)" y1="-1476.3" x1="129.54" inkscape:collect="always"></linearGradient><linearGradient id="linearGradient2494" y2="2808.5" xlink:href="#linearGradient747" gradientUnits="userSpaceOnUse" x2="94.514" gradientTransform="matrix(2.9813 0 0 .33543 -153.75 -106.12)" y1="2731.7" x1="72.192" inkscape:collect="always"></linearGradient></defs><path id="path727" sodipodi:rx="195.625" sodipodi:ry="42.5" style="fill:url(#radialGradient599);fill-rule:evenodd" sodipodi:type="arc" d="m585 398.61a195.62 42.5 0 1 1 -391.25 0 195.62 42.5 0 1 1 391.25 0z" transform="matrix(.98083 0 0 1.6765 -183.79 150.48)" sodipodi:cy="398.61218" sodipodi:cx="389.375"></path><path id="path666" sodipodi:rx="195.625" sodipodi:ry="42.5" style="fill:url(#radialGradient599);fill-rule:evenodd" sodipodi:type="arc" d="m585 398.61a195.62 42.5 0 1 1 -391.25 0 195.62 42.5 0 1 1 391.25 0z" transform="matrix(.98083 0 0 1.7353 -190.04 -41.721)" sodipodi:cy="398.61218" sodipodi:cx="389.375"></path><rect id="rect703" style="stroke-linejoin:bevel;fill-rule:evenodd;stroke:#000000;stroke-width:1.2146;fill:url(#linearGradient2436)" transform="matrix(.86549 -.50092 -.00049452 1 0 0)" height="72.863" width="86.615" y="774.27" x="339.16"></rect><rect id="rect702" style="stroke-linejoin:bevel;fill-rule:evenodd;stroke:#000000;stroke-width:1.7705;fill:url(#linearGradient2438)" transform="matrix(1 0 -.86691 .49847 0 0)" height="86.516" width="248.75" y="1125.4" x="1095.6"></rect><path id="path661" sodipodi:rx="195.625" sodipodi:ry="42.5" style="fill:url(#radialGradient599);fill-rule:evenodd" sodipodi:type="arc" d="m585 398.61a195.62 42.5 0 1 1 -391.25 0 195.62 42.5 0 1 1 391.25 0z" transform="matrix(1.0319 0 0 1.6324 -195.57 -191.31)" sodipodi:cy="398.61218" sodipodi:cx="389.375"></path><rect id="rect662" style="stroke-linejoin:bevel;fill-rule:evenodd;stroke:#000000;stroke-width:1.7705;fill:url(#linearGradient2442)" transform="matrix(1 0 -.86691 .49847 0 0)" height="86.515" width="248.75" y="700.37" x="731.53"></rect><rect id="rect664" style="stroke-linejoin:bevel;fill-rule:evenodd;stroke:#000000;stroke-width:1.3459;fill:url(#linearGradient2444)" transform="matrix(.86275 -.50564 -.00040399 1 0 0)" height="89.19" width="86.89" y="567.56" x="345.13"></rect><path id="path613" sodipodi:rx="195.625" sodipodi:ry="42.5" style="fill-rule:evenodd;fill:url(#radialGradient599)" sodipodi:type="arc" d="m585 398.61a195.62 42.5 0 1 1 -391.25 0 195.62 42.5 0 1 1 391.25 0z" transform="translate(-172.5 -148.62)" sodipodi:cy="398.61218" sodipodi:cx="389.375"></path><path id="path718" style="fill-rule:evenodd;stroke:#000000;stroke-width:1.068pt;fill:url(#linearGradient2446)" d="m33.125 392.5v90h283.74l0.01-90h-283.74zm8.312 14.38c1.898 0 3.438 1.68 3.438 3.75s-1.54 3.75-3.438 3.75c-1.897 0-3.437-1.68-3.437-3.75s1.54-3.75 3.437-3.75zm267 0c1.89 0 3.43 1.68 3.43 3.75s-1.54 3.75-3.43 3.75c-1.9 0-3.44-1.68-3.44-3.75s1.54-3.75 3.44-3.75zm-267 53.12c1.898 0 3.438 1.68 3.438 3.75s-1.54 3.75-3.438 3.75c-1.897 0-3.437-1.68-3.437-3.75s1.54-3.75 3.437-3.75zm267.62 0c1.9 0 3.44 1.68 3.44 3.75s-1.54 3.75-3.44 3.75-3.44-1.68-3.44-3.75 1.54-3.75 3.44-3.75z"></path><rect id="rect592" style="fill-rule:evenodd;stroke:#000000;stroke-width:1pt;fill:url(#linearGradient578)" height="223.93" width="151.77" y="42.014" x="108.39"></rect><rect id="rect594" style="stroke-linejoin:bevel;fill-rule:evenodd;stroke:#000000;stroke-linecap:square;stroke-width:1.7722;fill:url(#linearGradient596)" transform="matrix(1 0 -.86746 .49751 0 0)" height="83.194" width="151.77" y="1.6696" x="181.73"></rect><rect id="rect595" style="stroke-linejoin:bevel;fill-rule:evenodd;stroke:#000000;stroke-width:1.3434;fill:url(#linearGradient580)" transform="matrix(.86581 -.50037 0 1 0 0)" height="223.94" width="83.352" y="192.58" x="300.27"></rect><rect id="rect597" style="stroke-opacity:.32510;fill-rule:evenodd;stroke:#000000;stroke-width:.75;fill:url(#linearGradient2448)" height="14.081" width="55.953" y="98.42" x="196.95"></rect><rect id="rect600" style="stroke-opacity:.32510;fill-rule:evenodd;stroke:#000000;stroke-width:.75;fill:url(#linearGradient2450)" height="14.081" width="55.953" y="116.14" x="196.95"></rect><rect id="rect601" style="stroke-opacity:.32510;fill-rule:evenodd;stroke:#000000;stroke-width:.75;fill:url(#linearGradient2452)" height="14.081" width="55.953" y="133.85" x="196.95"></rect><rect id="rect602" style="stroke-opacity:.32510;fill-rule:evenodd;stroke:#000000;stroke-width:.75;fill:url(#linearGradient2454)" height="14.081" width="55.953" y="151.57" x="196.95"></rect><rect id="rect603" style="stroke-opacity:.32510;fill-rule:evenodd;stroke:#000000;stroke-width:.75;fill:url(#linearGradient2456)" height="14.081" width="55.953" y="169.29" x="196.95"></rect><rect id="rect604" style="stroke-opacity:.32510;fill-rule:evenodd;stroke:#000000;stroke-width:.75;fill:url(#linearGradient2458)" height="14.081" width="55.953" y="187" x="196.95"></rect><rect id="rect605" style="stroke-opacity:.32510;fill-rule:evenodd;stroke:#000000;stroke-width:.75;fill:url(#linearGradient2460)" height="14.081" width="55.953" y="204.72" x="196.95"></rect><rect id="rect606" style="stroke-opacity:.32510;fill-rule:evenodd;stroke:#000000;stroke-width:.75;fill:url(#linearGradient2462)" height="14.081" width="55.953" y="222.44" x="196.95"></rect><path id="path726" style="fill-rule:evenodd;stroke:#000000;stroke-width:.95846pt;fill:url(#linearGradient615)" d="m30 604.38v73.12h281.25v-73.12h-281.25zm273.75 6.4c1.72 0 3.12 1.4 3.12 3.13 0 1.72-1.4 3.12-3.12 3.12-1.73 0-3.13-1.4-3.13-3.12 0-1.73 1.4-3.13 3.13-3.13zm-265.62 0.47c1.725 0 3.125 1.4 3.125 3.13 0 1.72-1.4 3.12-3.125 3.12s-3.125-1.4-3.125-3.12c0-1.73 1.4-3.13 3.125-3.13zm-1.375 56.25c1.725 0 3.125 1.4 3.125 3.13 0 1.72-1.4 3.12-3.125 3.12s-3.125-1.4-3.125-3.12c0-1.73 1.4-3.13 3.125-3.13zm267 0c1.72 0 3.12 1.4 3.12 3.13 0 1.72-1.4 3.12-3.12 3.12-1.73 0-3.13-1.4-3.13-3.12 0-1.73 1.4-3.13 3.13-3.13z"></path><rect id="rect607" style="stroke-opacity:.32510;fill-rule:evenodd;stroke:#000000;stroke-width:.75;fill:url(#linearGradient598)" height="15.563" width="70.034" y="79.221" x="182.87"></rect><path id="path608" sodipodi:rx="7.5962758" sodipodi:ry="7.7815509" style="stroke-opacity:.18107;fill-rule:evenodd;stroke:#000000;stroke-width:.75;fill:url(#linearGradient2464)" sodipodi:type="arc" d="m291.62 224.18a7.5963 7.7816 0 1 1 -15.19 0 7.5963 7.7816 0 1 1 15.19 0z" transform="translate(-153.75 -106.12)" sodipodi:cy="224.18283" sodipodi:cx="284.02661"></path><path id="path611" sodipodi:rx="7.5962758" sodipodi:ry="7.7815509" style="stroke-opacity:.18107;fill-rule:evenodd;stroke:#000000;stroke-width:1.729;fill:url(#linearGradient610)" sodipodi:type="arc" d="m291.62 224.18a7.5963 7.7816 0 1 1 -15.19 0 7.5963 7.7816 0 1 1 15.19 0z" transform="matrix(.43902 0 0 .42857 20.889 22.35)" sodipodi:cy="224.18283" sodipodi:cx="284.02661"></path><rect id="rect612" style="stroke-opacity:.20576;fill-rule:evenodd;stroke:#000000;stroke-width:.75;fill:url(#linearGradient609)" height="132.66" width="83.744" y="129.55" x="108.6"></rect><rect id="rect616" style="stroke-opacity:.80658;fill-rule:evenodd;stroke:#000000;stroke-width:.75;fill:url(#linearGradient2466)" transform="rotate(90)" height="14.081" width="55.953" y="-286.55" x="422.75"></rect><rect id="rect624" style="stroke-opacity:.80658;fill-rule:evenodd;stroke:#000000;stroke-width:.75;fill:url(#linearGradient2468)" transform="rotate(90)" height="14.081" width="55.953" y="-265.29" x="422.75"></rect><rect id="rect625" style="stroke-opacity:.80658;fill-rule:evenodd;stroke:#000000;stroke-width:.75;fill:url(#linearGradient2470)" transform="rotate(90)" height="14.081" width="55.953" y="-244.03" x="422.75"></rect><rect id="rect626" style="stroke-opacity:.80658;fill-rule:evenodd;stroke:#000000;stroke-width:.75;fill:url(#linearGradient2472)" transform="rotate(90)" height="14.081" width="55.953" y="-222.77" x="422.75"></rect><rect id="rect627" style="stroke-opacity:.80658;fill-rule:evenodd;stroke:#000000;stroke-width:.75;fill:url(#linearGradient2474)" transform="rotate(90)" height="14.081" width="55.953" y="-201.51" x="422.75"></rect><rect id="rect628" style="stroke-opacity:.80658;fill-rule:evenodd;stroke:#000000;stroke-width:.75;fill:url(#linearGradient2476)" transform="rotate(90)" height="14.081" width="55.953" y="-180.25" x="422.75"></rect><rect id="rect629" style="stroke-opacity:.80658;fill-rule:evenodd;stroke:#000000;stroke-width:.75;fill:url(#linearGradient2478)" transform="rotate(90)" height="14.081" width="55.953" y="-158.99" x="422.75"></rect><rect id="rect630" style="stroke-opacity:.80658;fill-rule:evenodd;stroke:#000000;stroke-width:.75;fill:url(#linearGradient2480)" transform="rotate(90)" height="14.081" width="55.953" y="-137.73" x="422.75"></rect><rect id="rect631" style="stroke-opacity:.80658;fill-rule:evenodd;stroke:#000000;stroke-width:.75;fill:url(#linearGradient2482)" transform="rotate(90)" height="14.081" width="55.953" y="-116.47" x="422.75"></rect><rect id="rect632" style="stroke-opacity:.80658;fill-rule:evenodd;stroke:#000000;stroke-width:.75;fill:url(#linearGradient2484)" transform="rotate(90)" height="14.081" width="55.953" y="-95.213" x="422.75"></rect><rect id="rect633" style="stroke-opacity:.80658;fill-rule:evenodd;stroke:#000000;stroke-width:.75;fill:url(#linearGradient2486)" transform="rotate(90)" height="14.081" width="55.953" y="-73.953" x="422.75"></rect><rect id="rect634" style="fill-rule:evenodd;stroke:#000000;stroke-width:.375;fill:url(#linearGradient635)" height="16.875" width="63.75" y="396.86" x="60"></rect><path id="path639" sodipodi:rx="1.5625" sodipodi:ry="1.875" style="fill-rule:evenodd;fill-opacity:.55144;stroke:#000000;stroke-width:.25;fill:#ff0000" sodipodi:type="arc" d="m86.25 419.86a1.5625 1.875 0 1 1 -3.125 0 1.5625 1.875 0 1 1 3.125 0z" transform="translate(-21.25 -1.7488)" sodipodi:cy="419.86218" sodipodi:cx="84.6875"></path><path id="path640" sodipodi:rx="1.5625" sodipodi:ry="1.875" style="fill-rule:evenodd;fill-opacity:.75;stroke:#000000;stroke-width:.25;fill:#00ff00" sodipodi:type="arc" d="m86.25 419.86a1.5625 1.875 0 1 1 -3.125 0 1.5625 1.875 0 1 1 3.125 0z" transform="translate(-14.163 -1.7488)" sodipodi:cy="419.86218" sodipodi:cx="84.6875"></path><path id="path641" sodipodi:rx="1.5625" sodipodi:ry="1.875" style="fill-rule:evenodd;fill-opacity:.55144;stroke:#000000;stroke-width:.25;fill:#ff0000" sodipodi:type="arc" d="m86.25 419.86a1.5625 1.875 0 1 1 -3.125 0 1.5625 1.875 0 1 1 3.125 0z" transform="translate(.0098338 -1.7488)" sodipodi:cy="419.86218" sodipodi:cx="84.6875"></path><path id="path642" sodipodi:rx="1.5625" sodipodi:ry="1.875" style="fill-rule:evenodd;fill-opacity:.75;stroke:#000000;stroke-width:.25;fill:#00ff00" sodipodi:type="arc" d="m86.25 419.86a1.5625 1.875 0 1 1 -3.125 0 1.5625 1.875 0 1 1 3.125 0z" transform="translate(7.0964 -1.7488)" sodipodi:cy="419.86218" sodipodi:cx="84.6875"></path><path id="path643" sodipodi:rx="1.5625" sodipodi:ry="1.875" style="fill-rule:evenodd;fill-opacity:.55144;stroke:#000000;stroke-width:.25;fill:#ff0000" sodipodi:type="arc" d="m86.25 419.86a1.5625 1.875 0 1 1 -3.125 0 1.5625 1.875 0 1 1 3.125 0z" transform="translate(21.27 -1.7488)" sodipodi:cy="419.86218" sodipodi:cx="84.6875"></path><path id="path644" sodipodi:rx="1.5625" sodipodi:ry="1.875" style="fill-rule:evenodd;fill-opacity:.75;stroke:#000000;stroke-width:.25;fill:#00ff00" sodipodi:type="arc" d="m86.25 419.86a1.5625 1.875 0 1 1 -3.125 0 1.5625 1.875 0 1 1 3.125 0z" transform="translate(28.356 -1.7488)" sodipodi:cy="419.86218" sodipodi:cx="84.6875"></path><path id="path645" sodipodi:rx="1.5625" sodipodi:ry="1.875" style="fill-rule:evenodd;fill-opacity:.55144;stroke:#000000;stroke-width:.25;fill:#ff0000" sodipodi:type="arc" d="m86.25 419.86a1.5625 1.875 0 1 1 -3.125 0 1.5625 1.875 0 1 1 3.125 0z" transform="translate(42.529 -1.7488)" sodipodi:cy="419.86218" sodipodi:cx="84.6875"></path><path id="path646" sodipodi:rx="1.5625" sodipodi:ry="1.875" style="fill-rule:evenodd;fill-opacity:.75;stroke:#000000;stroke-width:.25;fill:#00ff00" sodipodi:type="arc" d="m86.25 419.86a1.5625 1.875 0 1 1 -3.125 0 1.5625 1.875 0 1 1 3.125 0z" transform="translate(49.616 -1.7488)" sodipodi:cy="419.86218" sodipodi:cx="84.6875"></path><path id="path647" sodipodi:rx="1.5625" sodipodi:ry="1.875" style="fill-rule:evenodd;fill-opacity:.55144;stroke:#000000;stroke-width:.25;fill:#ff0000" sodipodi:type="arc" d="m86.25 419.86a1.5625 1.875 0 1 1 -3.125 0 1.5625 1.875 0 1 1 3.125 0z" transform="translate(63.789 -1.7488)" sodipodi:cy="419.86218" sodipodi:cx="84.6875"></path><path id="path648" sodipodi:rx="1.5625" sodipodi:ry="1.875" style="fill-rule:evenodd;fill-opacity:.75;stroke:#000000;stroke-width:.25;fill:#00ff00" sodipodi:type="arc" d="m86.25 419.86a1.5625 1.875 0 1 1 -3.125 0 1.5625 1.875 0 1 1 3.125 0z" transform="translate(70.876 -1.7488)" sodipodi:cy="419.86218" sodipodi:cx="84.6875"></path><path id="path649" sodipodi:rx="1.5625" sodipodi:ry="1.875" style="fill-rule:evenodd;fill-opacity:.55144;stroke:#000000;stroke-width:.25;fill:#ff0000" sodipodi:type="arc" d="m86.25 419.86a1.5625 1.875 0 1 1 -3.125 0 1.5625 1.875 0 1 1 3.125 0z" transform="translate(85.049 -1.7488)" sodipodi:cy="419.86218" sodipodi:cx="84.6875"></path><path id="path650" sodipodi:rx="1.5625" sodipodi:ry="1.875" style="fill-rule:evenodd;fill-opacity:.75;stroke:#000000;stroke-width:.25;fill:#00ff00" sodipodi:type="arc" d="m86.25 419.86a1.5625 1.875 0 1 1 -3.125 0 1.5625 1.875 0 1 1 3.125 0z" transform="translate(92.136 -1.7488)" sodipodi:cy="419.86218" sodipodi:cx="84.6875"></path><path id="path651" sodipodi:rx="1.5625" sodipodi:ry="1.875" style="fill-rule:evenodd;fill-opacity:.55144;stroke:#000000;stroke-width:.25;fill:#ff0000" sodipodi:type="arc" d="m86.25 419.86a1.5625 1.875 0 1 1 -3.125 0 1.5625 1.875 0 1 1 3.125 0z" transform="translate(106.31 -1.7488)" sodipodi:cy="419.86218" sodipodi:cx="84.6875"></path><path id="path652" sodipodi:rx="1.5625" sodipodi:ry="1.875" style="fill-rule:evenodd;fill-opacity:.75;stroke:#000000;stroke-width:.25;fill:#00ff00" sodipodi:type="arc" d="m86.25 419.86a1.5625 1.875 0 1 1 -3.125 0 1.5625 1.875 0 1 1 3.125 0z" transform="translate(113.4 -1.7488)" sodipodi:cy="419.86218" sodipodi:cx="84.6875"></path><path id="path653" sodipodi:rx="1.5625" sodipodi:ry="1.875" style="fill-rule:evenodd;fill-opacity:.55144;stroke:#000000;stroke-width:.25;fill:#ff0000" sodipodi:type="arc" d="m86.25 419.86a1.5625 1.875 0 1 1 -3.125 0 1.5625 1.875 0 1 1 3.125 0z" transform="translate(127.57 -1.7488)" sodipodi:cy="419.86218" sodipodi:cx="84.6875"></path><path id="path654" sodipodi:rx="1.5625" sodipodi:ry="1.875" style="fill-rule:evenodd;fill-opacity:.75;stroke:#000000;stroke-width:.25;fill:#00ff00" sodipodi:type="arc" d="m86.25 419.86a1.5625 1.875 0 1 1 -3.125 0 1.5625 1.875 0 1 1 3.125 0z" transform="translate(134.66 -1.7488)" sodipodi:cy="419.86218" sodipodi:cx="84.6875"></path><path id="path655" sodipodi:rx="1.5625" sodipodi:ry="1.875" style="fill-rule:evenodd;fill-opacity:.55144;stroke:#000000;stroke-width:.25;fill:#ff0000" sodipodi:type="arc" d="m86.25 419.86a1.5625 1.875 0 1 1 -3.125 0 1.5625 1.875 0 1 1 3.125 0z" transform="translate(148.83 -1.7488)" sodipodi:cy="419.86218" sodipodi:cx="84.6875"></path><path id="path656" sodipodi:rx="1.5625" sodipodi:ry="1.875" style="fill-rule:evenodd;fill-opacity:.75;stroke:#000000;stroke-width:.25;fill:#00ff00" sodipodi:type="arc" d="m86.25 419.86a1.5625 1.875 0 1 1 -3.125 0 1.5625 1.875 0 1 1 3.125 0z" transform="translate(155.92 -1.7488)" sodipodi:cy="419.86218" sodipodi:cx="84.6875"></path><path id="path657" sodipodi:rx="1.5625" sodipodi:ry="1.875" style="fill-rule:evenodd;fill-opacity:.55144;stroke:#000000;stroke-width:.25;fill:#ff0000" sodipodi:type="arc" d="m86.25 419.86a1.5625 1.875 0 1 1 -3.125 0 1.5625 1.875 0 1 1 3.125 0z" transform="translate(170.09 -1.7488)" sodipodi:cy="419.86218" sodipodi:cx="84.6875"></path><path id="path658" sodipodi:rx="1.5625" sodipodi:ry="1.875" style="fill-rule:evenodd;fill-opacity:.75;stroke:#000000;stroke-width:.25;fill:#00ff00" sodipodi:type="arc" d="m86.25 419.86a1.5625 1.875 0 1 1 -3.125 0 1.5625 1.875 0 1 1 3.125 0z" transform="translate(177.17 -1.7488)" sodipodi:cy="419.86218" sodipodi:cx="84.6875"></path><path id="path659" sodipodi:rx="1.5625" sodipodi:ry="1.875" style="fill-rule:evenodd;fill-opacity:.55144;stroke:#000000;stroke-width:.25;fill:#ff0000" sodipodi:type="arc" d="m86.25 419.86a1.5625 1.875 0 1 1 -3.125 0 1.5625 1.875 0 1 1 3.125 0z" transform="translate(191.35 -1.7488)" sodipodi:cy="419.86218" sodipodi:cx="84.6875"></path><path id="path660" sodipodi:rx="1.5625" sodipodi:ry="1.875" style="fill-rule:evenodd;fill-opacity:.75;stroke:#000000;stroke-width:.25;fill:#00ff00" sodipodi:type="arc" d="m86.25 419.86a1.5625 1.875 0 1 1 -3.125 0 1.5625 1.875 0 1 1 3.125 0z" transform="translate(198.43 -1.7488)" sodipodi:cy="419.86218" sodipodi:cx="84.6875"></path><rect id="rect675" style="stroke-opacity:.80658;fill-rule:evenodd;stroke:#000000;stroke-width:1.1943;fill:url(#linearGradient2488)" transform="scale(1,-1)" height="20.956" width="95.328" y="-635.27" x="185.84"></rect><rect id="rect676" style="stroke-opacity:.80658;fill-rule:evenodd;stroke:#000000;stroke-width:.75;fill:url(#linearGradient2490)" transform="matrix(1 -.0028230 -.0028230 -1 0 0)" height="14.081" width="55.953" y="-628.47" x="50.751"></rect><rect id="rect677" style="stroke-opacity:.80658;fill-rule:evenodd;stroke:#000000;stroke-width:.75;fill:url(#linearGradient2492)" transform="matrix(1 -.0028230 -.0028230 -1 0 0)" height="14.081" width="55.953" y="-649.73" x="50.751"></rect><rect id="rect678" style="stroke-opacity:.80658;fill-rule:evenodd;stroke:#000000;stroke-width:.75;fill:url(#linearGradient617)" transform="matrix(1 -.0028230 -.0028230 -1 0 0)" height="14.081" width="55.953" y="-670.99" x="50.751"></rect><path id="path680" sodipodi:rx="1.5625" sodipodi:ry="1.875" style="fill-rule:evenodd;fill-opacity:.55144;stroke:#000000;stroke-width:.25;fill:#ff0000" sodipodi:type="arc" d="m86.25 419.86a1.5625 1.875 0 1 1 -3.125 0 1.5625 1.875 0 1 1 3.125 0z" transform="matrix(.0028230 -1 1 .0028230 -306.88 701.32)" sodipodi:cy="419.86218" sodipodi:cx="84.6875"></path><path id="path681" sodipodi:rx="1.5625" sodipodi:ry="1.875" style="fill-rule:evenodd;fill-opacity:.75;stroke:#000000;stroke-width:.25;fill:#00ff00" sodipodi:type="arc" d="m86.25 419.86a1.5625 1.875 0 1 1 -3.125 0 1.5625 1.875 0 1 1 3.125 0z" transform="matrix(.0028230 -1 1 .0028230 -306.9 708.41)" sodipodi:cy="419.86218" sodipodi:cx="84.6875"></path><path id="path682" sodipodi:rx="1.5625" sodipodi:ry="1.875" style="fill-rule:evenodd;fill-opacity:.55144;stroke:#000000;stroke-width:.25;fill:#ff0000" sodipodi:type="arc" d="m86.25 419.86a1.5625 1.875 0 1 1 -3.125 0 1.5625 1.875 0 1 1 3.125 0z" transform="matrix(.0028230 -1 1 .0028230 -306.94 722.58)" sodipodi:cy="419.86218" sodipodi:cx="84.6875"></path><path id="path683" sodipodi:rx="1.5625" sodipodi:ry="1.875" style="fill-rule:evenodd;fill-opacity:.75;stroke:#000000;stroke-width:.25;fill:#00ff00" sodipodi:type="arc" d="m86.25 419.86a1.5625 1.875 0 1 1 -3.125 0 1.5625 1.875 0 1 1 3.125 0z" transform="matrix(.0028230 -1 1 .0028230 -306.96 729.67)" sodipodi:cy="419.86218" sodipodi:cx="84.6875"></path><path id="path684" sodipodi:rx="1.5625" sodipodi:ry="1.875" style="fill-rule:evenodd;fill-opacity:.55144;stroke:#000000;stroke-width:.25;fill:#ff0000" sodipodi:type="arc" d="m86.25 419.86a1.5625 1.875 0 1 1 -3.125 0 1.5625 1.875 0 1 1 3.125 0z" transform="matrix(.0028230 -1 1 .0028230 -307 743.84)" sodipodi:cy="419.86218" sodipodi:cx="84.6875"></path><path id="path685" sodipodi:rx="1.5625" sodipodi:ry="1.875" style="fill-rule:evenodd;fill-opacity:.75;stroke:#000000;stroke-width:.25;fill:#00ff00" sodipodi:type="arc" d="m86.25 419.86a1.5625 1.875 0 1 1 -3.125 0 1.5625 1.875 0 1 1 3.125 0z" transform="matrix(.0028230 -1 1 .0028230 -307.02 750.93)" sodipodi:cy="419.86218" sodipodi:cx="84.6875"></path><path id="path704" sodipodi:rx="8.75" sodipodi:ry="8.75" style="fill-rule:evenodd;stroke:#000000;stroke-width:.75;fill:url(#linearGradient705)" sodipodi:type="arc" d="m385 820.49a8.75 8.75 0 1 1 -17.5 0 8.75 8.75 0 1 1 17.5 0z" transform="translate(-103.75 -157.37)" sodipodi:cy="820.48718" sodipodi:cx="376.25"></path><rect id="rect728" style="stroke-linejoin:bevel;fill-rule:evenodd;stroke:#000000;stroke-width:1.3455;fill:url(#linearGradient665)" transform="matrix(.86376 -.50390 -.0012259 1 0 0)" height="29.393" width="86.788" y="988.12" x="346.59"></rect><rect id="rect729" style="stroke-linejoin:bevel;fill-rule:evenodd;stroke:#000000;stroke-width:1.7705;fill:url(#linearGradient663)" transform="matrix(1 0 -.86691 .49847 0 0)" height="86.516" width="248.75" y="1544.2" x="1463.7"></rect><path id="path789" style="fill-rule:evenodd;stroke:#000000;stroke-width:1pt;fill:url(#linearGradient743)" d="m31.197 812.73v31.25h281.87v-31.25h-281.87zm7.813 5.63c1.552 0 2.812 1.26 2.812 2.81s-1.26 2.81-2.812 2.81c-1.553 0-2.813-1.26-2.813-2.81s1.26-2.81 2.813-2.81zm266.37 0c1.56 0 2.82 1.26 2.82 2.81s-1.26 2.81-2.82 2.81c-1.55 0-2.81-1.26-2.81-2.81s1.26-2.81 2.81-2.81zm-266.37 15.62c1.552 0 2.812 1.26 2.812 2.82 0 1.55-1.26 2.81-2.812 2.81-1.553 0-2.813-1.26-2.813-2.81 0-1.56 1.26-2.82 2.813-2.82zm266.37 0c1.56 0 2.82 1.26 2.82 2.82 0 1.55-1.26 2.81-2.82 2.81-1.55 0-2.81-1.26-2.81-2.81 0-1.56 1.26-2.82 2.81-2.82z"></path><path id="text750" style="stroke:#000000;stroke-width:.25;fill:url(#linearGradient2494)" d="m53.692 827.67c0.469 0 0.836-0.12 1.1-0.36 0.265-0.24 0.397-0.56 0.397-0.98 0-0.27-0.094-0.47-0.281-0.61-0.182-0.14-0.446-0.21-0.793-0.21h-1.469l-0.424 2.16h1.47m-0.78 4.46c0.602 0 1.064-0.14 1.388-0.43s0.485-0.7 0.485-1.24c0-0.34-0.111-0.59-0.335-0.76-0.223-0.16-0.565-0.24-1.025-0.24h-1.552l-0.519 2.67h1.558m3.118-3.67c0.446 0.13 0.79 0.36 1.032 0.7 0.246 0.34 0.369 0.76 0.369 1.26 0 1.1-0.41 1.96-1.231 2.58-0.815 0.61-1.964 0.92-3.445 0.92h-4.368l1.989-10.21h3.945c1.212 0 2.107 0.18 2.686 0.54 0.583 0.35 0.875 0.9 0.875 1.65 0 0.62-0.171 1.17-0.513 1.64-0.341 0.47-0.788 0.78-1.339 0.92m9.604 3.6h-4.074l-1.012 1.86h-2.7l5.769-10.21h3.008l1.805 10.21h-2.502l-0.294-1.86m-3.083-1.85h2.741l-0.615-3.93-2.126 3.93m12.175-1.97c0.597 0 1.048-0.14 1.353-0.42 0.31-0.27 0.465-0.68 0.465-1.22 0-0.34-0.107-0.58-0.321-0.74-0.21-0.16-0.542-0.24-0.998-0.24h-1.087l-0.52 2.62h1.108m-1.456 1.82l-0.759 3.86h-2.632l1.989-10.21h3.89c1.121 0 1.971 0.21 2.55 0.63s0.868 1.04 0.868 1.86-0.228 1.5-0.684 2.03c-0.455 0.54-1.073 0.84-1.852 0.92 0.355 0.07 0.652 0.25 0.889 0.55 0.237 0.28 0.444 0.73 0.622 1.32l0.868 2.9h-2.618l-0.766-2.54c-0.155-0.5-0.344-0.85-0.567-1.03-0.219-0.2-0.538-0.29-0.957-0.29h-0.841m12.229-1.82c0.597 0 1.048-0.14 1.354-0.42 0.31-0.27 0.465-0.68 0.465-1.22 0-0.34-0.108-0.58-0.322-0.74-0.209-0.16-0.542-0.24-0.998-0.24h-1.087l-0.519 2.62h1.107m-1.456 1.82l-0.759 3.86h-2.631l1.989-10.21h3.889c1.122 0 1.971 0.21 2.55 0.63s0.868 1.04 0.868 1.86-0.227 1.5-0.683 2.03c-0.456 0.54-1.073 0.84-1.853 0.92 0.356 0.07 0.652 0.25 0.889 0.55 0.237 0.28 0.444 0.73 0.622 1.32l0.868 2.9h-2.618l-0.766-2.54c-0.155-0.5-0.344-0.85-0.567-1.03-0.219-0.2-0.538-0.29-0.957-0.29h-0.841m13.966 2h-4.074l-1.012 1.86h-2.7l5.769-10.21h3.008l1.8 10.21h-2.497l-0.294-1.86m-3.083-1.85h2.741l-0.615-3.93-2.126 3.93m15.084 3.23c-0.63 0.23-1.24 0.39-1.82 0.51-0.57 0.11-1.12 0.17-1.64 0.17-1.37 0-2.47-0.38-3.29-1.13s-1.23-1.75-1.23-2.99c0-0.81 0.13-1.58 0.39-2.3s0.64-1.39 1.15-1.98c0.59-0.7 1.31-1.24 2.15-1.62s1.75-0.57 2.72-0.57c0.53 0 1.06 0.06 1.59 0.19 0.54 0.12 1.08 0.31 1.63 0.57l-0.42 2.11c-0.44-0.33-0.88-0.58-1.32-0.73-0.44-0.16-0.92-0.23-1.42-0.23-1.06 0-1.94 0.4-2.65 1.21-0.71 0.82-1.07 1.83-1.07 3.05 0 0.78 0.22 1.4 0.66 1.84 0.44 0.45 1.04 0.67 1.81 0.67 0.46 0 0.95-0.08 1.46-0.24 0.52-0.17 1.1-0.43 1.75-0.79l-0.45 2.26m4.08-9.73h2.63l-1.19 6.12c-0.05 0.21-0.08 0.41-0.1 0.58s-0.03 0.31-0.03 0.44c0 0.45 0.12 0.78 0.36 1.01 0.24 0.22 0.59 0.32 1.07 0.32 0.64 0 1.13-0.17 1.47-0.53s0.59-0.96 0.76-1.82l1.19-6.12h2.63l-1.19 6.12c-0.3 1.51-0.86 2.6-1.69 3.28-0.82 0.67-2.01 1.01-3.55 1.01-1.21 0-2.12-0.26-2.75-0.77-0.63-0.52-0.95-1.27-0.95-2.26 0-0.16 0.02-0.35 0.04-0.55s0.06-0.44 0.11-0.71l1.19-6.12m13.63 1.99l-1.23 6.23h0.95c1.22 0 2.19-0.34 2.91-1.03s1.07-1.62 1.07-2.79c0-0.79-0.23-1.39-0.7-1.8-0.47-0.4-1.16-0.61-2.08-0.61h-0.92m-2.26-1.99h2.77c1.32 0 2.31 0.08 2.97 0.24 0.67 0.16 1.21 0.42 1.65 0.79s0.78 0.82 1 1.35c0.22 0.52 0.33 1.12 0.33 1.78 0 0.93-0.19 1.8-0.57 2.62-0.38 0.81-0.91 1.5-1.6 2.06-0.6 0.49-1.3 0.85-2.1 1.06-0.79 0.21-2.01 0.31-3.66 0.31h-2.78l1.99-10.21m16.22 8.35h-4.08l-1.01 1.86h-2.7l5.77-10.21h3.01l1.8 10.21h-2.5l-0.29-1.86m-3.09-1.85h2.75l-0.62-3.93-2.13 3.93"></path><path id="path787" style="fill-rule:evenodd;fill:url(#linearGradient746)" d="m228.16 812.34l-12.88 31.38 97.22 0.03 0.22-31.25-84.56-0.16zm76.65 5.79c1.55 0 2.81 1.26 2.81 2.81s-1.26 2.81-2.81 2.81-2.81-1.26-2.81-2.81 1.26-2.81 2.81-2.81zm0 15.62c1.55 0 2.81 1.26 2.81 2.81 0 1.56-1.26 2.82-2.81 2.82s-2.81-1.26-2.81-2.82c0-1.55 1.26-2.81 2.81-2.81z"></path><rect id="rect744" style="stroke:#000000;stroke-width:1pt;fill:none" height="31.25" width="281.88" y="813.11" x="31.346"></rect><metadata></metadata></svg> 