<?xml version="1.0" encoding="UTF-8" standalone="no"?> <!-- Created with Inkscape (http://www.inkscape.org/) --> <svg xmlns:inkscape="http://www.inkscape.org/namespaces/inkscape" xmlns:rdf="http://www.w3.org/1999/02/22-rdf-syntax-ns#" xmlns="http://www.w3.org/2000/svg" xmlns:cc="http://creativecommons.org/ns#" xmlns:dc="http://purl.org/dc/elements/1.1/" xmlns:sodipodi="http://sodipodi.sourceforge.net/DTD/sodipodi-0.dtd" xmlns:svg="http://www.w3.org/2000/svg" xmlns:ns1="http://sozi.baierouge.fr" xmlns:xlink="http://www.w3.org/1999/xlink" id="svg2" sodipodi:docname="ordre_toscan.svg" viewBox="0 0 553.96 864.6" inkscape:version="0.47 r22583"><g id="layer1" inkscape:label="Calque 1" inkscape:groupmode="layer" transform="translate(-100.13 -109.26)"><path id="path2918" style="fill:#000000" d="m282.72 972.66c-0.62491-0.75296-0.82756-2.1622-0.45035-3.1318 1.3158-3.382 2.5923-32.039 3.1073-69.763 0.28534-20.9 0.71937-40.925 0.96452-44.5 0.75912-11.071 2.4711-39.047 2.9679-48.5 1.108-21.084 1.6413-29.089 2.0317-30.5 0.22833-0.825 0.66389-8.7 0.9679-17.5s0.94055-20.05 1.4146-25c0.67527-7.052 0.56119-9.5845-0.52706-11.7-0.76388-1.4852-1.3889-3.1182-1.3889-3.6288 0-0.51067-1.575-3.544-3.5-6.7408-3.4216-5.682-4.6404-12.336-2.7347-14.93 1.4475-1.9703 7.1877-5.5 8.9442-5.5 1.6167 0.00003 1.785-1.0793 1.7337-11.122-0.0472-9.2531-0.34134-11.33-1.75-12.36-0.93126-0.68096-1.6932-2.4514-1.6932-3.9342 0-2.5312-5.1316-8.5834-7.2777-8.5834-0.4576 0-2.9448-0.96006-5.5271-2.1335-7.7561-3.5244-10.988-7.8027-15.125-20.02l-2.8259-8.3461-4.3106-0.31671c-2.5904-0.19033-4.8016-0.9882-5.541-1.9994-1.5738-2.1523-3.1659-10.989-3.3611-18.654-0.0836-3.2836-0.62997-6.5461-1.2142-7.25-1.3216-1.5925-4.46-1.6669-5.4109-0.12832-0.4931 0.79787-1.1254 0.58562-2.059-0.69113-1.6971-2.3209-1.7514-13.107-0.0826-16.391 1.1329-2.2289 2.4517-2.8668 9.7353-4.709 1.375-0.34776 11.596-0.70034 22.712-0.7835 19.013-0.14223 20.356-0.27638 22.639-2.2608l2.4263-2.1096-0.3397-18.215c-0.18686-10.018-0.47428-32.53-0.63874-50.026l-0.29902-31.811-3-0.60835c-1.65-0.3346-6.4558-0.56461-10.68-0.51115-6.8892 0.0872-7.7981-0.12424-8.831-2.0542-0.63328-1.1833-0.85118-2.4504-0.48423-2.8158 0.36694-0.36539 10.305-0.52615 22.084-0.35724s21.945-0.0195 22.591-0.41864c0.64585-0.39917 8.407-0.67729 17.247-0.61805 55.638 0.37285 62.049 0.29962 62.387-0.71259 0.44717-1.3415 9.451-1.3928 10.782-0.0614 1.5881 1.5881 19.404 2.5752 19.404 1.0751 0-0.95858 9.2119-1.1237 42-0.75264 24.475 0.27695 42 0.10093 42-0.42185 0-1.2324 7.7326-1.1388 8.5 0.1029 0.79525 1.2867 5.196 1.3009 5.9881 0.0192 0.38194-0.61798 10.854-0.83891 28.309-0.59726 23.53 0.32575 27.956 0.15864 29.381-1.1094 1.7261-1.5354 5.8217-1.0044 5.8217 0.75478 0 0.51293 2.0516 0.93261 4.559 0.93261 2.7847 0 4.3185-0.38919 3.941-1-0.3678-0.59512 0.82295-1 2.941-1 1.9575 0 3.559 0.39075 3.559 0.86833 0 1.6594 8.0634 2.0031 11.667 0.49731 1.9609-0.81932 4.02-1.1042 4.67-0.64619 0.63944 0.45062 5.8408 0.58559 11.559 0.29993 12.261-0.61256 13.161-1.276 10.999-8.1105l-1.3946-4.4089-5.4697-0.30988c-3.0083-0.17043-5.9484-0.70719-6.5335-1.1928-0.61803-0.51291-1.6784-0.49424-2.5303 0.0446-0.80655 0.51012-7.564 0.93438-15.016 0.9428-9.4482 0.0107-13.951 0.39371-14.875 1.2653-0.80638 0.76073-1.4718 0.85859-1.6999 0.25-0.38538-1.0279-28.984-1.0598-89.981-0.10042-20.977 0.32993-31.447 0.14817-32.153-0.55822-0.63346-0.63346-3.1608-0.80402-6.3944-0.43154-2.9408 0.33877-19.184 0.59209-36.097 0.56294-20.658-0.0356-30.75 0.28838-30.75 0.98713 0 0.57206-1.575 1.0401-3.5 1.0401s-3.5-0.45298-3.5-1.0066c0-0.65166-5.2012-0.83754-14.75-0.52715-21.783 0.70808-59.932 0.65423-74.546-0.10522-10.592-0.55043-12.953-0.95853-13.708-2.369-0.67998-1.2706-0.30486-2.232 1.4746-3.7792 3.2439-2.8205 3.8752-8.3375 2.4847-21.713-0.62897-6.05-1.0122-12.575-0.85168-14.5 0.16055-1.925 0.22915-6.2 0.15244-9.5-0.0767-3.3-0.40045-23.094-0.71943-43.986-0.53158-34.817-0.72459-38.04-2.3139-38.627-2.8498-1.0542-11.59-10.111-13.622-14.116-1.0407-2.051-2.7265-3.9938-3.7461-4.3174-1.0196-0.32364-1.8538-0.97234-1.8538-1.4416 0-0.46924-1.35-1.1497-3-1.5121s-3-1.0221-3-1.4659c0-0.44385-1.9882-1.1052-4.4182-1.4696s-4.9601-1.3155-5.6224-2.1135c-0.66231-0.79804-2.242-1.451-3.5103-1.451-1.2684 0-2.9811-0.675-3.8061-1.5s-2.152-1.5-2.949-1.5c-0.79694 0-2.0092-0.675-2.6939-1.5-0.68469-0.825-1.812-1.5-2.5052-1.5-2.1369 0-10.441-10.283-11.551-14.303-1.1318-4.1002-4.0932-7.6972-6.3372-7.6972-1.6834 0-2.607-2.1546-2.607-6.0818 0-1.605-0.79829-3.7165-1.774-4.6922-1.5989-1.5989-3.7272-1.747-21.564-1.5009-11.268 0.15548-20.63 0.72249-21.74 1.3167-2.0801 1.1132-8.5788 0.32235-9.492-1.1552-0.30139-0.48765-1.8944-0.88664-3.54-0.88664-2.4673 0-3.2454-0.60643-4.4368-3.4578-1.6358-3.9151-2.2186-23.119-1.2454-41.042 0.67098-12.358-0.11849-15.525-5.0781-20.373-1.6474-1.6104-2.7666-3.1566-2.4871-3.436 0.27946-0.27947-0.5037-0.82926-1.7404-1.2218-3.2966-1.0463-5.4834-3.4938-6.8178-7.6305-1.3635-4.2269-2.4979-4.8384-8.975-4.8384-2.6083 0-5.5972-0.65809-6.6682-1.4682-1.0676-0.80751-2.7428-1.4825-3.7225-1.5-0.97977-0.0175-2.0404-0.70681-2.357-1.5318-0.31659-0.825-1.067-1.5-1.6677-1.5-1.491 0-10.449-9.6535-11.224-12.095-0.34369-1.0829-1.7482-3.0922-3.1212-4.4651-2.9924-2.9924-2.6509-4.8262 0.97857-5.2559 1.4701-0.17403 2.6729-0.73653 2.6729-1.25s2.1949-0.93358 4.8776-0.93358c2.9236 0 5.3357-0.552 6.0211-1.3779 0.62897-0.75786 3.4966-1.6603 6.3724-2.0054 2.8759-0.34513 7.0887-0.89231 9.3618-1.216 2.5337-0.36075 4.3946-0.16517 4.809 0.50542 0.37183 0.60163 1.662 1.1294 2.867 1.1728s1.708 0.2794 1.1178 0.52441c-0.59027 0.245-0.88228 1.7464-0.64891 3.3365 0.41559 2.8316 0.31438 2.9014-4.9268 3.3994-2.9431 0.27964-8.591 0.50221-12.551 0.49459-8.3172-0.016-8.8842 0.21002-9.5736 3.8164-0.41932 2.1935 0.35145 3.5573 4.247 7.5148 2.6176 2.6592 5.247 4.8349 5.8432 4.8349 0.59616 0 1.4438 0.60871 1.8836 1.3527 0.66624 1.127 6.6192 2.3385 14.476 2.9462 0.92212 0.0713 1.4882 0.43443 1.258 0.80692-0.7654 1.2384 7.0248 1.6978 8.0654 0.47556 0.7395-0.86858 10.052-1.0963 35.75-0.87412 22.788 0.19702 34.75-0.0451 34.75-0.70341 0-1.269 2.719-1.3255 3.1667-0.0658 0.33415 0.94035 8.6698 1.0478 64.333 0.82908 28.033-0.11013 38.5 0.47662 38.5 2.1581 0 0.44146-3.4846 0.88346-7.7435 0.9822-4.2589 0.0987-8.1417 0.57773-8.6283 1.0644-0.51313 0.51313-1.6155 0.42857-2.624-0.2013-0.96807-0.60457-2.5739-0.74542-3.6217-0.31768-1.0354 0.42267-11.557 0.71184-23.382 0.64262-51.241-0.29998-71.208-0.0542-72.988 0.8983-1.0267 0.5495-2.5744 0.72755-3.4392 0.39568-1.1233-0.43106-1.5724-0.002-1.5724 1.5036 0 1.8044 0.61044 2.1141 4.25 2.1566 2.3375 0.0273 15.05 0.21271 28.25 0.412 16.456 0.24846 24.417 0.0173 25.326-0.73534 0.98434-0.81474 1.5546-0.72818 2.2122 0.33577 0.70828 1.146 3.6508 1.4006 14.674 1.2697 7.5833-0.0901 14.913-0.57547 16.288-1.0787 3.9798-1.4565 45.163-0.60803 46.126 0.95033 0.62994 1.0193 1.0438 1.027 2.0326 0.0382 0.6829-0.68291 3.6266-1.2416 6.5416-1.2416s5.3-0.41343 5.3-0.91875c0-0.50531 2.539-0.84281 5.6422-0.75 6.6436 0.1987 8.9491 2.2529 6.0829 5.42-1.3408 1.4816-3.3503 1.9175-9.708 2.106-4.4095 0.13076-8.0172-0.17246-8.0172-0.67381 0-1.377-8.8922-2.3114-11.043-1.1605-2.7167 1.4539-18.622 1.5005-20.358 0.0596-0.93907-0.77936-1.6351-0.83376-2.0514-0.16032-0.40142 0.64951-10.683 1.0486-28.339 1.1001-15.24 0.0444-29.959 0.10796-32.709 0.14115-2.75 0.0332-6.2433-0.26525-7.763-0.66322-1.6758-0.43887-3.313-0.26707-4.161 0.43665-0.95722 0.79443-1.6023 0.82964-2.046 0.11167-0.84555-1.3681-12.216-1.365-13.062 0.004-0.42976 0.69537-5.6216 0.88775-15.309 0.56728-8.0623-0.26672-16.373-0.51521-18.468-0.55221-2.2705-0.04-3.5594-0.47114-3.191-1.0672 0.35191-0.5694-0.50929-1-2-1-1.4399 0-2.374 0.3949-2.0757 0.87755 0.64645 1.046-8.5671 1.9377-13.759 1.3316-5.176-0.60427-4.9526-3.2091 0.27534-3.2091 2.1675 0 4.2191-0.45 4.559-1 0.33992-0.55 3.318-1 6.618-1 3.7454 0 5.7678 0.37578 5.382 1-0.33992 0.55 0.30852 1 1.441 1s2.059-0.45 2.059-1 2.25-1 5-1c4.3333 0 5-0.26666 5-2 0-2.0797-0.65613-2.3335-5.25-2.0306-1.5125 0.0997-2.75-0.30259-2.75-0.89404 0-1.4416-6.5503-1.3674-10.666 0.12079-2.7352 0.98907-4.522 0.88126-10.321-0.62271-5.5896-1.4498-7.3127-1.5699-8.4909-0.59211-0.94986 0.78832-3.8628 1.1002-8.1503 0.87272-5.6342-0.29898-6.711-0.0942-6.922 1.3164-0.38573 2.5788 2.4868 5.9674 4.8977 5.7776 5.8953-0.46412 9.6522 0.11408 9.6522 1.4855 0 0.8192-1.1749 1.5692-2.7414 1.75-2.9718 0.343-4.2609 3.214-2.3164 5.1586 1.4076 1.4076 57.205 1.9326 60.784 0.57183 1.5079-0.57332 3.1023-0.54098 4.2751 0.0867 1.0287 0.55055 7.8618 0.96079 15.185 0.91165 7.3228-0.0491 14.439-0.0536 15.814-0.01 1.375 0.0437 4.75 0.0632 7.5 0.0433s24.012-0.0337 47.25-0.0308c26.336 0.003 42.25-0.35631 42.25-0.95481 0-1.4834 7.5865-1.1363 13.642 0.62413 3.9044 1.135 5.8138 1.2823 6.7331 0.5193 0.76197-0.63239 6.3683-1.0522 13.801-1.0334 6.8849 0.0174 12.924-0.0446 13.421-0.13772 0.49657-0.0932 4.3904-0.11608 8.6529-0.051 8.3247 0.1272 10.381 1.5022 3.6059 2.4109-2.2793 0.30571-4.5293 1.1525-5 1.8817-0.70757 1.0961-1.0082 1.0896-1.7348-0.0373-0.65135-1.0102-0.98349-1.0495-1.2827-0.15201-0.31123 0.93369-19.56 1.246-84.025 1.3632-45.992 0.0836-83.413 0.48951-83.158 0.90201 0.2549 0.4125-1.1381 0.75-3.0956 0.75-1.9575-0.00002-3.559-0.45002-3.559-1 0-0.55-0.70156-1-1.559-1-0.85746 0-1.2809 0.45-0.94098 1s-0.27102 1-1.3576 1-2.1257-0.38099-2.309-0.84665c-0.48764-1.2386-10.67-2.2268-11.364-1.1029-0.78271 1.2664-33.197 1.2537-33.636-0.0132-0.20811-0.60112-2.739-0.50721-6.7371 0.25-5.903 1.118-6.5253 1.4865-7.9585 4.7128-1.6905 3.8056-2.4143 28.709-1.2451 42.84l0.60731 7.3403 34.75 0.35363c23.804 0.24224 34.75 0.0232 34.75-0.69522 0-0.6913 2.3011-0.83112 6.75-0.41014 8.4932 0.80369 118.25 1.2724 118.25 0.505-0.00002-0.31138 20.935-0.37732 46.523-0.14657 34.183 0.30829 46.891 0.11401 47.911-0.73242 0.95437-0.79205 1.5911-0.82353 2.0378-0.10071 0.44941 0.72715 1.3056 0.70025 2.7771-0.0873 1.4371-0.76911 5.0677-0.91368 11.189-0.44552 12.777 0.97713 42.994 0.63798 43.395-0.48707 0.50327-1.4106 17.915-1.1896 18.389 0.23333 0.29561 0.88682 1.5413 0.8775 5.18-0.0387 5.2878-1.3315 16.318-0.55081 18.154 1.2848 2.9242 2.9242 0.32463 3.5863-14.081 3.5863-8.4931 0-14.61 0.40846-14.976 1-0.68264 1.1045-5.7933 1.3733-6.8085 0.35812-0.88831-0.88831-95.355-0.68437-96.8 0.20898-1.3143 0.8123-7.4408 0.80921-69.126-0.0347-37.31-0.51044-44.068-0.38439-46 0.85801-1.8017 1.1584-4.1064 1.3011-11.265 0.69756-4.95-0.41733-9.9518-0.41705-11.115 0.00061-1.1634 0.41766-3.866 0.36601-6.0059-0.11479-4.9032-1.1017-21.587-1.0567-26.879 0.0725-2.4146 0.51526-4.3765 0.47708-4.95-0.0963-1.2357-1.2356-8.55-1.2375-8.55-0.002 0 0.52127-2.3625 1.0838-5.25 1.25l-5.25 0.30226 0.11705 3.7837c0.0644 2.081 0.31635 3.983 0.55993 4.2266 0.24358 0.24358 3.9889 0.53442 8.3229 0.64631 5.3255 0.13749 8.0076-0.1791 8.2734-0.97659 0.49062-1.4718 4.8756-1.5571 5.7686-0.11211 0.36301 0.58735 2.0771 0.97609 3.809 0.86386 3.8826-0.2516 8.9015 1.5846 6.649 2.4326-0.825 0.31059-5.9099 0.70292-11.3 0.87185-10.585 0.33175-11.656 0.88077-11.685 5.9903-0.0115 2.0431 1.6361 4.3618 6.5727 9.25 3.6234 3.5879 7.45 6.5234 8.5036 6.5234s3.5948 0.9 5.6472 2 5.2007 2 6.9964 2c1.7956 0 3.2648 0.45 3.2648 1s0.83931 1 1.8651 1 3.0093 0.9 4.4077 2 2.986 2 3.5279 2c0.54191 0 1.2443 0.675 1.5609 1.5 0.31658 0.825 1.0585 1.5 1.6488 1.5 1.3793 0 4.221 2.7492 6.4604 6.25 1.7142 2.6797 1.9991 2.75 11.144 2.75 5.59 0 9.385-0.40437 9.385-1 0-0.55 1.6016-1 3.559-1 2.118 0 3.3088 0.40488 2.941 1s0.82295 1 2.941 1c1.9575 0 3.5591-0.3375 3.5591-0.75 0.00006-0.4125 9.1126-0.80167 20.25-0.86481 11.137-0.0632 23.708-0.46006 27.935-0.88202 4.2266-0.42197 8.5016-0.42363 9.5-0.004 3.0458 1.2811 7.3152 1.5447 7.3152 0.45161 0-0.56765 1.6875-1.0216 3.75-1.0087s4.65-0.0132 5.75-0.058c6.3716-0.25941 67.63-0.35654 115.28-0.18278 34.776 0.12682 55.061-0.15135 54.691-0.75-0.32346-0.52337 0.11344-0.95158 0.9709-0.95158s1.559 0.49923 1.559 1.1094c0 0.7241 1.3024 0.89687 3.75 0.49745 2.0625-0.33658 14.83-0.59595 28.372-0.57639 14.034 0.0203 26.681-0.42588 29.41-1.0375 3.3152-0.74296 5.1083-0.75312 5.8284-0.033 2.3422 2.3422 7.7764-0.19997 7.7172-3.6101-0.18807-10.838-1.2566-35.128-1.5882-36.1-0.53596-1.5718-31.025-1.8101-31.989-0.25-0.80203 1.2977-4.5 1.302-4.5 0.005 0-1.0599-14.174-0.7162-19.5 0.47285-1.9275 0.43036-4.0536 0.12191-5.9473-0.86283-2.3222-1.2076-3.2553-1.277-4.3995-0.32745-1.092 0.90629-10.157 1.11-36.553 0.82149-19.305-0.21104-39.713-0.53178-45.351-0.71277-6.1552-0.19761-10.25 0.0569-10.25 0.6372 0 0.53145-0.9 0.96627-2 0.96627s-2-0.50763-2-1.1281c0-0.80758-3.4802-0.96329-12.25-0.5481-6.7375 0.31898-22.15 0.79417-34.25 1.056-12.1 0.2618-22.9 0.52515-24 0.58521-1.1 0.0601-7.2857-0.18905-13.746-0.55359-8.6116-0.48593-12.138-0.33739-13.215 0.55663-1.6398 1.3609-8.5057 0.67807-12.354-1.2285-1.8083-0.89601-2.4932-0.85883-3.129 0.16984-0.6676 1.0802-0.89632 1.0719-1.2723-0.0462-0.38651-1.1493-0.71891-1.1481-2.1189 0.007-2.302 1.9002-14.347 1.6965-18.191-0.30762-1.9472-1.0154-2.3698-1.5528-1.2239-1.5569 0.9625-0.003 1.75-0.40962 1.75-0.90274 0-0.51229 13.526-0.84703 31.556-0.78097 26.74 0.098 31.703-0.10859 32.518-1.3534 0.82727-1.2624 1.1078-1.2229 1.9941 0.28097 1.1111 1.8852 5.4199 2.3876 6.432 0.75 0.33992-0.55 2.3649-1 4.5-1s4.1601 0.45 4.5 1c0.33992 0.55 3.093 1 6.118 1s5.2783-0.35874 5.0073-0.79721c-0.27099-0.43847 18.224-0.6676 41.1-0.50919 28.928 0.20032 41.992-0.0436 42.905-0.80125 0.7896-0.65531 3.4156-0.86575 6.5914-0.52823 6.6527 0.70704 2.2872 0.64882 44.779 0.59716 22.58-0.0274 37.754-0.44434 39.789-1.0932 2.3758-0.75766 3.6696-0.73265 4.661 0.0901 0.94272 0.78239 1.5751 0.81066 2.0203 0.0903 0.38775-0.62739 5.0156-1.0486 11.522-1.0486 9.9953 0 10.925-0.16154 11.508-2 1.3327-4.1989-0.23864-5.878-5.8014-6.1995-2.8592-0.16526-6.702 0.0695-8.5395 0.52162-1.8375 0.45216-4.0875 0.49322-5 0.0913-0.9125-0.40198-2.1091-0.59813-2.6591-0.43589-2.2246 0.65621-19.5 0.47065-19.5-0.20946 0.00014-0.9173-9.8914-0.75251-10.464 0.17433-0.70089 1.1341-32.385 0.60869-33.55-0.55632-3.4142-3.4142 5.2676-5.9724 15.968-4.705 3.0162 0.35723 5.5994 0.0838 7.1366-0.75549 1.8654-1.0184 8.6904-1.2514 30.233-1.032 30.886 0.3146 30.433 0.40291 32.672-6.3809 0.83252-2.5226 0.72351-4.2694-0.48935-7.8418-1.2026-3.5421-1.5102-8.2761-1.3413-20.641 0.1285-9.4069-0.18436-16.449-0.75621-17.02-1.509-1.5083-23.956-2.551-24.82-1.1522-0.4434 0.71743-3.9661 1.144-9.448 1.144-9.2869 0-12.172-1.1116-9.5895-3.6944 1.1556-1.1556 4.815-1.3504 19.476-1.0372 17.906 0.38264 18.074 0.36629 20.636-2.0078 2.1565-1.9986 2.4085-2.7539 1.5272-4.5771-0.58052-1.201-1.086-1.6211-1.1232-0.93359-0.0813 1.5007-2.0677 1.7007-2.0677 0.20819 0-0.573 0.88444-1.9912 1.9654-3.1514 1.081-1.1603 1.7294-2.4915 1.441-2.9582-0.28844-0.46671-0.0479-0.84856 0.53458-0.84856 1.2682 0 0.96837-2.1992-0.44098-3.2347-1.7296-1.2708-20.346-0.87228-22.644 0.48468-1.6937 1-2.2076 1-2.5698 0-0.5681-1.569-6.286-1.6613-6.286-0.1017 0 0.84156-3.141 0.95109-11.75 0.40976-6.4625-0.40636-12.875-0.6985-14.25-0.64919-9.0624 0.32496-13.46-0.0339-14.157-1.1555-0.42858-0.68952-0.34086-1.4046 0.19495-1.5891 0.5358-0.18447 0.67866-0.81357 0.31747-1.398-0.46012-0.74448 3.6543-0.83664 13.744-0.30784 17.561 0.92037 28.277 0.80078 41.4-0.46207 5.5-0.52924 13.038-1.2308 16.75-1.5591 7.0889-0.62678 7.9621-1.4528 5.2818-4.9965-0.8075-1.0676-1.4825-2.8022-1.5-3.8546s-0.8193-4.3116-1.7818-7.2428c-2.0339-6.1938-2.7174-6.3775-13.938-3.7465-10.5 2.462-22.493 0.44115-18.872-3.1798 1.2594-1.2594 11.348-2.5786 21.886-2.8618 7.661-0.20591 8.6346-0.96112 8.6587-6.7159l0.0153-3.6602-8.25-0.65952c-4.5375-0.36274-13.875-0.58259-20.75-0.48856-6.875 0.094-13.175 0.0975-14 0.008-0.825-0.0897-2.4-0.11738-3.5-0.0614-1.1 0.056-10.536 0.10378-20.968 0.10623-10.433 0.002-19.208 0.36064-19.5 0.79597-0.29241 0.43534-13.691 0.83716-29.776 0.89295-16.084 0.0558-29.654 0.35477-30.155 0.66439-0.50099 0.30963-16.591 0.50681-35.756 0.43819-19.165-0.0686-37.378 0.20136-40.474 0.59996-3.7533 0.48321-5.8557 0.35811-6.309-0.37541-0.84866-1.3732-5.2292-1.4474-6.0603-0.10267-0.38188 0.61791-5.4462 0.82549-13.309 0.54551-6.9809-0.24878-24.618-0.40436-39.193-0.34595-14.575 0.0584-29.16 0.0161-32.411-0.094-3.9504-0.13379-6.1792 0.2305-6.7195 1.0983-0.60906 0.97823-1.2476 1.0268-2.589 0.19699-0.97928-0.60581-2.6101-0.81017-3.624-0.45412-1.0139 0.35606-14.964 0.44493-31 0.19751-35.275-0.54427-52.59-0.2413-54.841 0.95956-2.2776 1.215-14.545 1.1461-15.306-0.0861-0.33468-0.54153 0.87626-1.8898 2.691-2.9963 2.9242-1.7828 5.0341-2.0121 18.55-2.0154 9.4975-0.002 15.25-0.38095 15.25-1.0037 0-0.55 0.9-1 2-1s2 0.43358 2 0.9635c0 0.89718 5.1976 1.3512 11 0.96088 1.375-0.0925 20.275-0.29382 42-0.4474s41.379-0.53558 43.676-0.84889c2.7966-0.38146 4.3659-0.16634 4.75 0.65113 0.4474 0.95222 0.70192 0.94579 1.1569-0.0292 0.32084-0.6875 1.9224-1.25 3.559-1.25 1.7292 0 2.7168 0.41891 2.3576 1-0.33992 0.55 0.0835 1 0.94098 1 0.85746 0 1.559-0.47852 1.559-1.0634 0-1.698 50.203-0.83324 50.771 0.8745 0.34494 1.0372 0.78941 0.99134 2.1271-0.21927 2.3958-2.1682 11.697-3.1728 13.732-1.4832 1.8798 1.5601 14.672 1.4836 15.197-0.0909 0.2161-0.64831 8.9303-1.0539 24.006-1.1174 13.017-0.0548 22.542-0.44303 21.167-0.86268-1.375-0.41966 14.488-0.65798 35.25-0.52962 20.942 0.12948 37.75-0.15428 37.75-0.63731 0-0.47889 2.925-0.87071 6.5-0.87071 3.6667 0 6.5 0.4359 6.5 1 0 0.55 0.675 1 1.5 1s1.5-0.4655 1.5-1.0345c0-0.66832 4.6254-0.97562 13.068-0.86824 8.6032 0.10943 13.455-0.22047 14.2-0.96554 1.3988-1.3988 3.076-1.4978 2.2318-0.13176-0.35912 0.58107 0.55877 0.97056 2.191 0.92972 2.4708-0.0618 2.5682-0.17376 0.80902-0.92972-1.3955-0.59967 0.015-0.88067 4.6667-0.92971 4.4796-0.0472 6.8152 0.3398 7.1193 1.1797 0.36215 1 0.8761 1 2.5698 0 1.364-0.80533 6.2191-1.25 13.648-1.25h11.531l3.3633 3.4633c4.2488 4.3751 4.7848 7.9651 3.7744 25.28-0.6664 11.42-1.0412 13.446-2.7229 14.718-1.7606 1.3314-1.78 1.4779-0.20011 1.5066 1.4653 0.0266 1.7429 0.96728 1.7061 5.7818-0.0241 3.1625-0.69237 7.55-1.485 9.75-1.876 5.2072-1.8475 11.638 0.0843 19.04 1.2506 4.7918 1.6764 15.173 2.1722 52.96 0.74636 56.88 0.76241 59.048 0.50737 68.5-0.23318 8.6421 0.16767 29.875 1.2366 65.5 0.41255 13.75 0.62067 38.95 0.4625 56-0.39242 42.298-0.42803 39.435 0.90174 72.5 0.65251 16.225 1.2771 37.825 1.388 48 0.19459 17.86 0.11862 18.647-2.1953 22.75l-2.3968 4.25h-15.382c-8.4599 0-16.225 0.45122-17.255 1.0027-1.2524 0.67028-2.079 0.67028-2.4933 0-0.678-1.097-33.178-1.19-44.931-0.12849l-6.9289 0.62579-1.1296 5.0357c-1.3415 5.9804-2.1472 7.4643-4.0525 7.4643-1.9858 0-3.1161 4.9765-1.3748 6.0527 1.0696 0.66105 1.1255 1.536 0.26458 4.1427-0.60028 1.8175-1.1635 5.1046-1.2515 7.3046-0.33452 8.3568-2.8098 11.5-9.0565 11.5-2.4804 0-4.1044 0.48289-4.2038 1.25-0.0891 0.6875-0.2428 3.083-0.34158 5.3233-0.20806 4.7184-4.2862 13.553-6.5284 14.143-0.84256 0.22162-2.3511 1.6136-3.3522 3.0934-1.8536 2.7396-7.5155 6.1904-10.157 6.1904-0.8024 0-1.4589 0.45-1.4589 1s-1.0553 1-2.345 1c-3.1666 0-5.655 2.9822-5.655 6.7772 0 1.9746-0.95429 4.1481-2.5998 5.9213-2.3174 2.4972-2.5182 3.2903-1.8488 7.3015 0.78217 4.6872 1.253 9.5618 1.3763 14.25 0.0459 1.7456 0.62017 2.75 1.5723 2.75 0.825 0 1.5 0.45 1.5 1s1.3596 1 3.0214 1c4.7762 0 5.8296 3.5307 2.881 9.6554-1.2828 2.6645-3.1553 6.0667-4.1612 7.5604-3.1727 4.7117-4.9644 12.532-4.2796 18.678 0.34356 3.0833 0.80432 15.794 1.0239 28.247 0.2196 12.452 0.65431 27.077 0.96603 32.5 0.31172 5.4225 0.77865 18.184 1.0376 28.359 0.25898 10.175 0.7192 24.125 1.0227 31 1.6148 36.578 2.1607 58.828 1.7256 70.343-0.53455 14.149 1.1348 37.802 3.241 45.921 0.7425 2.8624 1.1104 5.5921 0.81749 6.066-0.85163 1.378-9.5865-0.35153-10.972-2.1724-1.5804-2.0777-1.7197-11.795-0.1827-12.745 0.82003-0.50681 0.94629-4.3984 0.44802-13.809-0.38154-7.2068-0.89197-18.728-1.1343-25.603-0.24228-6.875-0.72512-15.65-1.073-19.5-0.34786-3.85-0.81215-26.575-1.0318-50.5-0.73237-79.788-1.1806-105.44-1.9838-113.5-0.43816-4.4-0.67731-9.1919-0.53145-10.649l0.26521-2.6486-9.3004-0.37275c-5.1152-0.205-28.988-0.36312-53.05-0.35137-28.238 0.0138-43.9-0.3332-44.174-0.97864-0.23849-0.56255-0.86149-0.37173-1.4242 0.43623-0.74253 1.0662-3.1454 1.4141-9.3261 1.3503-50.732-0.52352-81.415 0.43124-82.74 2.5746-0.43282 0.70031-0.84349 4.3356-0.91261 8.0784-0.0691 3.7428-0.52176 7.8751-1.0059 9.1828-0.48412 1.3077-0.69607 2.8989-0.471 3.536 0.22506 0.6371-0.0645 1.4512-0.64358 1.809-0.61727 0.38148-1.0528 4.5726-1.0528 10.131 0 5.2142-0.44419 13.625-0.98708 18.691-1.0451 9.7516-1.9712 40.876-2.4463 82.211-0.15803 13.75-0.63247 27.7-1.0543 31-0.62302 4.8737-0.7844 39.705-0.24092 52 0.0729 1.65 0.0417 8.9625-0.0694 16.25-0.1929 12.653-0.29501 13.25-2.2649 13.25-1.5558 0-1.986 0.54312-1.75 2.2094 0.26336 1.8598-0.19752 2.2367-2.9128 2.3818-1.7741 0.0948-3.737-0.44369-4.3619-1.1967zm100.28-258c13.402-0.071 20.668-0.50906 22.751-1.3717 2.1016-0.87051 3.451-0.94843 4.309-0.24882 0.68701 0.56023 3.3588 0.83801 5.9374 0.61729s4.9676 0.0507 5.309 0.60309c0.80666 1.3052 5.5027 1.309 5.5027 0.004 0-0.55 1.0984-1 2.441-1 1.3425 0 2.7191 0.45 3.059 1 0.84545 1.368 4.5 1.2685 4.5-0.12244 0-0.77978 0.45404-0.74563 1.4873 0.11187 0.88652 0.73575 2.1993 0.91693 3.25 0.44856 2.7184-1.2114 10.263-1.4646 10.263-0.34411 0 0.60144 1.4146 0.73176 3.5647 0.3284 1.9606-0.36781 13.961-0.7257 26.667-0.79531 14.411-0.0789 23.221-0.50279 23.419-1.1266 0.1743-0.55-0.10918-1.675-0.62993-2.5-0.80184-1.2703-5.4896-1.5324-30.612-1.7117-16.316-0.11645-29.881-0.42747-30.145-0.69114-0.26368-0.26368-1.3197 0.0453-2.3466 0.68668-1.434 0.89555-2.1514 0.88189-3.0922-0.0589-1.6013-1.6013-7.5381-1.5828-8.078 0.025-0.32963 0.98176-0.97382 0.95485-3.0019-0.1254-1.8939-1.0088-4.1367-1.1691-8.4136-0.60164-3.2073 0.42556-22.369 0.67451-42.581 0.55321-23.039-0.13825-36.75 0.13867-36.75 0.74224 0 1.9302-7.4308 1.8733-11.877-0.0909-3.3729-1.49-4.5532-1.649-5.1442-0.69281-0.54636 0.88403-4.2483 1.2202-12.873 1.1692-10.385-0.0615-12.229 0.16762-12.971 1.6122-1.6351 3.1844-0.21395 4.184 5.9484 4.184 3.2778 0 5.9167-0.44601 5.9167-1 0-0.55 0.47656-1 1.059-1 0.58246 0 0.76678 0.47284 0.40961 1.0508-0.82364 1.3327 8.5038 1.0423 10.269-0.31968 0.68049-0.52516 2.0305-0.64128 3-0.25804s9.7502 0.64403 19.513 0.57955c12.229-0.0808 17.75 0.22223 17.75 0.9741 0 0.63788 0.51938 0.75519 1.25 0.28233 0.6875-0.44496 10.111-0.85594 20.941-0.91328zm-24.695-11.389c0.36978-0.59831 1.4814-0.83104 2.4704-0.51717 2.9645 0.94089 107.01 1.0822 107.32 0.1458 0.15848-0.47569 8.0334-0.79624 17.5-0.71233 11.322 0.10036 17.212-0.2025 17.212-0.88511 0-0.57073 0.675-1.0377 1.5-1.0377s1.5 0.41425 1.5 0.92054c0 1.4328 5.7161 2.3377 7.7118 1.2209 2.0478-1.146 2.0102-1.5623-0.35468-3.9271-1.5561-1.5561-5.0655-1.7143-38.036-1.7143-19.977 0-36.321-0.36406-36.321-0.80902 0.00001-0.44496-0.56249-0.44496-1.25 0-0.6875 0.44496-27.35 0.84236-59.25 0.8831-88.55 0.11311-84.199-0.005-85.44 2.314-2.3127 4.3212-0.47943 4.5925 33.175 4.9091 21.98 0.20678 31.793-0.0337 32.261-0.79068zm58.004-10.006c0.39175-0.63386 12.657-1 33.5-1s33.108-0.36614 33.5-1c0.33992-0.55 3.716-1 7.5023-1 8.5378 0 10.075-1.5162 9.3584-9.2303-0.43508-4.6838-0.32576-4.9938 1.585-4.4941 1.1288 0.29518 2.3043 0.12894 2.6123-0.36943 0.56393-0.91246-0.87577-1.3085-3.4482-0.94857-1.041 0.14566-1.2341-0.58604-0.76863-2.9134 0.54468-2.7234 0.28369-3.2376-2.1098-4.1566-1.6005-0.61454-5.3191-0.77542-8.9814-0.38857-4.2149 0.44523-6.25 0.30867-6.25-0.41939 0-0.64193-2.2297-1.0796-5.5-1.0796-3.4 0-5.5 0.42857-5.5 1.1224 0 0.79052-0.43063 0.76506-1.4562-0.0861-0.8359-0.69373-2.0073-0.85961-2.75-0.38941-1.4471 0.91618-83.382 0.67195-97.044-0.28926-5.3961-0.37967-8.75-0.24473-8.75 0.35206 0 0.53224-2.7 0.99314-6 1.0242-3.3 0.0311-6-0.34634-6-0.83872 0-0.49237-0.92656-0.89523-2.059-0.89523-1.1325 0-1.7892 0.43664-1.4593 0.97032 0.38142 0.61716-6.4456 0.89013-18.757 0.75-21.554-0.24533-21.391-0.29106-23.671 6.6164-1.1273 3.4158-0.92749 15.123 0.27875 16.329 1.9024 1.9024 84.667 3.2065 84.667 1.334 0-1.6133 18.055-1.1834 21 0.5 2.9534 1.6883 5.6379 1.8948 6.5 0.5zm18-30.997c56.558-0.0237 68.802-0.57462 69.287-3.1177 0.22521-1.1808-0.71233-1.7757-3.4893-2.214-4.9238-0.77724-90.899-1.0354-92.127-0.27669-0.51392 0.31762-22.138 0.42416-48.052 0.23677-25.915-0.1874-47.118 0.0439-47.118 0.51394 0 0.47006-0.675 0.85466-1.5 0.85466s-1.5-0.45-1.5-1-1.35-1-3-1-3 0.45-3 1-1.125 1-2.5 1c-1.5556 0-2.5 0.56667-2.5 1.5 0 0.825 0.1125 1.5101 0.25 1.5224s14.65 0.28876 32.25 0.61431 32.075 0.65297 32.167 0.7276c0.0921 0.0746 4.592 0.0287 10-0.1021 5.408-0.13079 32.783-0.24742 60.833-0.25918zm-87-10.003c-0.34845-0.56381 0.46184-1 1.8576-1 1.3616 0 2.6257 0.44989 2.809 0.99975 0.21928 0.65769 8.8252 0.74102 25.153 0.24357 13.651-0.4159 40.2-0.41204 58.997 0.009 22.76 0.50926 34.29 0.42789 34.514-0.24357 0.47092-1.4128 12.789-1.2632 15.105 0.18344 1.4002 0.87444 2.8198 0.91199 5.3319 0.14103 1.883-0.5779 7.6472-1.1436 12.809-1.257 5.1622-0.11347 9.6238-0.59125 9.9146-1.0618 0.29078-0.47049 1.7617-1.1649 3.2687-1.5431 1.507-0.37823 2.74-1.0586 2.74-1.5119 0-0.45331 0.97026-1.1322 2.1561-1.5085 3.539-1.1233 7.0512-5.5855 6.5324-8.2995-0.33621-1.7587 0.0563-2.533 1.4717-2.9031 2.119-0.55413 5.8398-7.0152 5.8398-10.141 0-1.0848-0.86836-2.2481-1.9297-2.5849-1.0613-0.33685-33.799-0.34915-72.75-0.0273-38.951 0.32183-94.711 0.77604-123.91 1.0094-33.129 0.26472-54.115 0.81365-55.815 1.4599-1.4982 0.56964-3.2938 1.0357-3.99 1.0357-1.3965 0-3.5466 3.4906-4.0301 6.5428-0.48695 3.0739 2.5649 8.2353 8.6113 14.564 1.9536 2.0447 7.8846 3.8799 12.565 3.888 1.7875 0.003 3.25 0.45558 3.25 1.0056 0 0.55556 2.6667 1 6 1s6-0.44444 6-1c0-1.4838 17.861-1.1289 22 0.43713 4.208 1.5921 16.41 2.0352 15.5 0.56287zm40.5-35.053c0-0.72166 14.396-1.0605 45.75-1.0768 25.162-0.0131 61.275-0.10171 80.25-0.19699l34.5-0.17324 1.6316-4.9194c1.0802-3.2568 1.3615-5.8614 0.83226-7.7066-0.43964-1.5329-0.5631-3.6906-0.27435-4.7948 0.91624-3.5037-1.9994-5.1891-8.9215-5.1571-3.4474 0.016-8.1278-0.22726-10.401-0.54046-2.477-0.3413-4.3988-0.13939-4.7964 0.50394-0.46355 0.75004-1.2611 0.703-2.6475-0.15613-1.59-0.98526-2.1474-0.96724-2.8061 0.0907-0.67013 1.0764-8.5131 1.2-42.469 0.66942-29.57-0.46208-41.648-0.33745-41.648 0.42978 0 0.63003-2.0848 1.0806-5 1.0806-2.75 0-5-0.45-5-1 0-1.3466-4.3238-1.2762-5.6926 0.0926-0.79019 0.79019-1.6817 0.77739-3.2207-0.0462-1.1704-0.62639-2.4784-0.92235-2.9066-0.6577-0.42822 0.26466-34.056 0.75187-74.729 1.0827-45.975 0.37394-74.077 0.96601-74.284 1.565-0.18334 0.52996-1.3083 0.9697-2.5 0.97721-7.1837 0.0453-9.2426 2.891-6.9922 9.6647 1.9223 5.7863 4.3195 8.9495 5.4257 7.1596 0.57091-0.92375 1.1558-0.87029 2.4768 0.22636 1.4101 1.1707 9.5 1.569 43.826 2.1576 39.396 0.6756 56.53 1.0432 72.847 1.563 4.196 0.13367 6.75-0.1834 6.75-0.83798zm-5-26.879c0-0.41981 1.35-0.80167 3-0.84859 1.65-0.0469 3 0.33461 3 0.84782 0 0.51322 0.675 0.93312 1.5 0.93312s1.5-0.39171 1.5-0.87047c0-0.48633 18.535-0.69841 42-0.48058 28.122 0.26106 42 0.053 42-0.62953 0-0.56068 1.125-1.0194 2.5-1.0194s2.5 0.45 2.5 1c0 1.0423 5.2507 1.416 6.2237 0.44295 0.82496-0.82496 46.858-1.2429 57.126-0.51861 10.082 0.71117 12.696-0.27189 12.58-4.731-0.17268-6.6172 0.15317-6.5001-19.253-6.917-11.938-0.25643-17.677-0.0383-17.677 0.67199 0 1.4272-4.3151 1.3366-5.7729-0.12117-0.80578-0.80578-1.8856-0.87505-3.45-0.2213-1.3887 0.58031-39.634 0.94037-98.027 0.92287-52.662-0.0158-95.75 0.3088-95.75 0.7213-0.00005 0.4125-1.1251 0.75-2.5001 0.75s-2.5-0.45-2.5-1-0.675-1-1.5-1-1.5 0.41356-1.5 0.91903c0 0.53223-9.2915 0.90116-22.077 0.87658-15.054-0.0289-22.434 0.31492-23.2 1.081-0.61787 0.61787-4.0709 1.1303-7.6734 1.1387-7.4866 0.0175-9.365 0.82854-8.8875 3.8373 0.33184 2.0908 0.78939 2.1361 27.337 2.7073 14.85 0.3195 38.25 0.88673 52 1.2605 37.389 1.0164 56.5 1.1 56.5 0.24725zm-37.484-16.093c0.82008-1.3269 14.2-1.2434 15.026 0.0938 0.3631 0.5875 1.4022 0.77377 2.309 0.41394 0.90687-0.35984 36.298-0.83789 78.647-1.0623 51.457-0.27273 77.112-0.74889 77.341-1.4355 0.45476-1.3643 40.857-0.2189 43.877 1.2439 1.5968 0.77344 2.5929 0.76043 3.5653-0.0466 0.90906-0.75445 9.4859-1.1515 26.284-1.2167 29.713-0.11537 29.829-0.11357 39.685 0.61794 4.9283 0.36577 7.75 0.20766 7.75-0.43425 0-0.5552 1.0034-1.1533 2.2299-1.329 3.1443-0.45059 4.4041-4.6526 3.1827-10.615-0.53852-2.6289-0.63317-6.3378-0.21033-8.242 0.42283-1.9042 0.51268-9.3123 0.19967-16.462-0.65105-14.871-1.5264-42.027-1.4506-45 0.25522-10.002-0.25451-21.16-1.0081-22.068-0.50922-0.61357-0.69852-1.3429-0.42067-1.6208 0.65474-0.65472-18.292-1.8108-29.678-1.8108-5.2296 0-8.8444 0.40871-8.8444 1 0 0.55-1.4625 0.99311-3.25 0.98469-2.5723-0.0121-2.9372-0.23719-1.75-1.0793 1.0797-0.76585-1.4423-0.90353-9-0.49133-5.775 0.31497-21.963 0.60408-35.974 0.64248-15.652 0.0429-25.945 0.46103-26.696 1.0845-0.73681 0.6115-4.522 0.79283-9.5264 0.45635-10.905-0.73322-7.3326-0.71744-62.804-0.27742-72.243 0.57305-100.25 0.62407-123.25 0.22451-12.03-0.20898-20.75 0.0211-20.75 0.54755 0 0.49941-1.1092 0.90801-2.4648 0.90801-1.4404 0-2.9092 0.83025-3.5339 1.9976-1.2985 2.4264-1.4554 63.567-0.19367 75.502 0.46513 4.4 0.70373 10.925 0.53022 14.5s-0.0776 7.9492 0.2131 9.7204l0.52857 3.2204 12.21 0.27958c6.7156 0.15377 15.453 0.38055 19.417 0.50395 3.9638 0.1234 7.4778-0.2141 7.809-0.75zm57.225-131.23c0.69142-0.54529 2.684-0.6588 4.5-0.25636 3.8353 0.84991 1.4588 0.82804 52.259 0.48095 22-0.15031 41.012 0.0495 42.25 0.44399 1.376 0.43867 2.25 0.30268 2.25-0.3501 0-1.6279 25.695-1.4494 26.286 0.18261 0.34774 0.9602 0.90501 0.98424 2.4037 0.1037 2.4159-1.4194 59.101-2.2574 61.251-0.90552 0.93588 0.58837 1.5785 0.49333 1.8333-0.27113 0.21579-0.64738 1.7314-1.177 3.368-1.177 1.7292 0 2.7168 0.41891 2.3576 1-0.33992 0.55 0.0835 1 0.94098 1 0.85746 0 1.559-0.50074 1.559-1.1128 0-0.79538 5.4228-0.97127 19.013-0.61671 12.13 0.31647 19.237 0.13433 19.631-0.50313 0.95378-1.5432 1.4854-59.89 0.55721-61.152-0.45102-0.61331-0.9375-16.399-1.0811-35.08-0.28963-37.685-0.47733-38.832-6.5384-39.938-5.0702-0.92479-20.945-0.54048-22.245 0.53854-0.81137 0.67337-1.8651 0.65154-3.2067-0.0664-2.5201-1.3487-5.4474-1.3926-4.6297-0.0694 0.33992 0.55-0.33508 1-1.5 1s-1.8399-0.45-1.5-1c0.33992-0.55-0.30852-1-1.441-1s-2.059 0.45-2.059 1-0.675 1-1.5 1-1.5-0.45-1.5-1-1.8-1-4-1-4 0.3375-4 0.75c0.00001 0.89111-41.585 1.4468-94.83 1.2672-27.517-0.0928-38.72 0.1941-39.711 1.0171-0.98383 0.81651-2.3276 0.85644-4.67 0.13878-7.0555-2.1616-66.777-3.9423-74.258-2.2141-3.2213 0.74409-16.841 1.145-38.713 1.1396l-33.743-0.008-2.0742 2.637c-1.1408 1.4503-1.8124 3.3194-1.4923 4.1534 1.0797 2.8137 1.5346 29.578 0.58834 34.619-0.57033 3.039-0.59618 10.883-0.0659 20 0.47986 8.25 1.175 22.875 1.5447 32.5 0.36973 9.625 0.78801 20.425 0.92951 24 0.14149 3.575 0.58463 9.0624 0.98475 12.194 0.68108 5.331 0.92473 5.7376 3.8189 6.3733 5.1138 1.1232 59.065 0.88284 61.129-0.27231 1.3022-0.72874 2.5235-0.67856 4.1609 0.17096 1.2748 0.66135 5.139 1.3043 8.5873 1.4287 3.4483 0.12444 6.4638 0.42047 6.7012 0.65785 0.77305 0.77305 14.579-0.79776 15.855-1.8039zm210.51-332.41c-0.6875-0.27741-1.8125-0.27741-2.5 0-0.6875 0.27742-0.125 0.50439 1.25 0.50439s1.9375-0.22697 1.25-0.50439zm-341.02 344.15c-1.7676-2.0057-2.4804-6.6829-1.2927-8.4816 0.71836-1.0878 2.8489-1.5 7.754-1.5 5.6427 0 6.8209 0.28998 7.1099 1.75 0.22814 1.1523-0.27626 1.7517-1.4768 1.755-1.0028 0.003-3.3493 1.8028-5.2143 4-3.6408 4.2892-4.8872 4.7379-6.88 2.4766zm-7.2289-196.41c0-0.50967-0.7875-1.1325-1.75-1.384-0.9625-0.25153 0.86406-0.50953 4.059-0.57333 3.592-0.0717 5.5731-0.49766 5.191-1.116-0.37686-0.60977 1.1285-1 3.8576-1 2.6434 0 4.6833 0.51174 4.9829 1.25 0.37377 0.92117 0.72452 0.9497 1.3333 0.10845 1.3451-1.8587 17.274-1.7156 19.362 0.1739 1.4673 1.3279 1.7973 1.345 2.2682 0.118 0.41427-1.0796 1.8722-1.3283 5.8736-1.0022 2.9274 0.23858 9.479-0.11393 14.559-0.78334 7.5916-1.0004 9.6842-0.97756 11.75 0.12802 1.3824 0.73983 2.5134 1.9441 2.5134 2.6762 0 1.0525-3.9239 1.3795-18.75 1.5625-23.09 0.28502-29.722 0.14286-34.382-0.737-2.2711-0.42878-3.8856-0.27519-4.309 0.40993-0.92323 1.4938-4.2856 1.3868-4.8508-0.15438-0.36666-1-0.72333-1-1.7833 0-1.5258 1.4394-9.925 1.7131-9.925 0.32332zm165.4-74.069c-0.85148-0.85147-3.3973-1.3778-9.1544-1.8926-1.926-0.17224-1.4796-3.0911 0.5-3.2693 2.1562-0.1941 1.0555-0.22751 18.99 0.5765 9.2599 0.41514 15.902 0.28746 17.545-0.33726 1.6834-0.64002 2.8601-0.65582 3.2385-0.0435 0.73907 1.1959 6.1659 1.2731 6.8921 0.0982 0.29357-0.475 2.3451-0.86364 4.559-0.86364s4.0253 0.38864 4.0253 0.86364 0.675 0.86364 1.5 0.86364 1.5-0.45 1.5-1 0.9-1 2-1 2 0.45 2 1 0.675 1 1.5 1 1.5-0.45 1.5-1 0.70156-1 1.559-1c0.91699 0 1.2674 0.47187 0.85084 1.1458-0.51088 0.82663 0.0995 0.91687 2.191 0.32395 3.266-0.92587 7.6106-0.99407 39.211-0.61543 19.668 0.23567 22.275 0.45369 22 1.8402-0.24841 1.2539-1.9342 1.6111-8.3116 1.7612-4.4 0.10357-8.7814 0.53918-9.7364 0.96802-1.7734 0.79634-7.9631 0.33534-13.162-0.98031-2.0686-0.52347-2.696-0.40565-2.191 0.41149 0.97428 1.5764-5.63 1.5254-7.211-0.0557-0.90309-0.90309-2.006-0.92824-4.45-0.10149-2.1634 0.73182-11.27 0.94718-27.249 0.64441-32.323-0.61244-40.816-0.41025-41.821 0.99556-0.62268 0.87098-0.95795 0.84897-1.3381-0.0878-0.60801-1.4984-3.5436-1.647-4.9405-0.25-0.66369 0.66369-1.3348 0.66519-1.9956 0.004zm126.72-1.908c-2.9861-1.8914 0.15453-3.0767 7.9316-2.9935 5.7016 0.061 7.9465 0.44291 7.9465 1.3517 0 1.9656-13.21 3.3315-15.878 1.6417zm22.128 0.16968c-4.5524-0.40828-5.6972-1.7891-2-2.4123 4.6402-0.78213 15.867 0.29455 15.472 1.4838-0.39907 1.2017-6.0687 1.5924-13.472 0.92845zm-208-9.9953c-2.6056-0.47477-3.0827-3.7373-0.68127-4.6589 0.8628-0.33109 21.225-0.57469 45.25-0.54134 24.025 0.0334 44.423-0.22458 45.33-0.57318 0.90687-0.3486 1.9459-0.15315 2.309 0.43435 0.83526 1.3515 12.212 1.411 13.042 0.0682 0.33992-0.55 1.4915-1 2.559-1s1.941 0.45 1.941 1 1.575 1 3.5 1 3.5-0.50185 3.5-1.1152c0-0.76816 1.7084-0.90178 5.4894-0.42937 3.0192 0.37723 10.32 0.67836 16.224 0.66919 7.2554-0.0113 10.981 0.371 11.495 1.1794 0.5797 0.91187 0.76399 0.89905 0.77567-0.054 0.0112-0.914 2.6519-1.25 9.8242-1.25 6.3768 0 10.42-0.44659 11.554-1.2764 2.4597-1.7986 1.0951-4.7172-2.2203-4.7488-14.887-0.14176-41.042 0.0538-50.878 0.38031-6.9117 0.22948-11.998 0.023-11.691-0.47446 0.29936-0.48437 0.0677-0.88068-0.51472-0.88068-0.58246 0-1.059 0.45-1.059 1 0 1.3601-2.6098 1.2606-4.9292-0.18789-1.4698-0.9179-2.7736-0.91556-5.7364 0.0103-2.5173 0.78662-11.219 1.1715-25.334 1.1206-11.825-0.0427-22.738-0.0473-24.25-0.0103-1.5125 0.037-3.7625 0.0609-5 0.053-1.2375-0.008-4.4427 0.26685-7.1227 0.61045-3.4313 0.43994-5.1049 0.24906-5.6576-0.64528-0.63379-1.0255-1.384-1.0219-3.8962 0.0187-2.0278 0.83992-4.5847 1.0341-7.3424 0.55768-2.3271-0.40207-6.1929-0.88442-8.5906-1.0719-5.2613-0.41137-5.8609-0.87791-3.7898-2.949 1.4074-1.4074 1.9086-1.4236 4.3875-0.14169 2.3842 1.2329 3.0775 1.2432 4.6823 0.0698 1.4513-1.0612 4.6611-1.2632 13.982-0.87993 21.919 0.90136 71.654 1.099 70.364 0.27954-0.74098-0.47034 0.70353-0.80976 3.4843-0.81873 2.6125-0.008 4.75 0.43469 4.75 0.98469s0.9 1 2 1 2-0.39228 2-0.87175c0-0.48166 13.536-0.76597 30.25-0.63537 55.675 0.43504 53.134 0.33915 51.794 1.9546-0.86068 1.0371-3.1857 1.4106-8.2007 1.3176-5.0968-0.0945-7.2456 0.25957-7.9049 1.3026-2.3893 3.7796 2.316 5.9538 11.288 5.2158 3.6991-0.30431 6.485-0.94256 6.191-1.4183-0.29404-0.47578-0.0581-0.86505 0.52439-0.86505 0.58246 0 1.059 0.39357 1.059 0.8746s3.819 1.075 8.4867 1.32c4.6677 0.24499 8.8172 0.77589 9.221 1.1798 2.3647 2.3647-4.3264 2.7755-45.208 2.7755-2.2 0-5.6875-0.30795-7.75-0.68434-2.4911-0.45461-3.75-0.31192-3.75 0.42506 0 0.61017-1.3766 1.1094-3.059 1.1094-1.7847 0-2.8016-0.41657-2.441-1 0.3678-0.59512-0.82295-1-2.941-1-1.9575 0-3.559 0.37854-3.559 0.84121 0 0.46266-17.1 0.66509-38 0.44984-26.561-0.27355-38-0.0694-38 0.67833 0 0.74145-10.049 1.0147-32.75 0.89057-18.012-0.0985-33.762-0.3636-35-0.58908zm216.42-1.9375c-2.3516-2.3516 2.71-3.5031 11.706-2.663 4.8813 0.45583 6.3314 0.93617 5.936 1.9664-0.383 0.99809-2.7265 1.3632-8.7495 1.3632-4.5245 0-8.5264-0.3-8.893-0.66666zm39.604-2.9375c0.33229-0.3323 1.1948-0.36782 1.9167-0.0789 0.79773 0.31922 0.56078 0.55618-0.60417 0.60416-1.0542 0.0434-1.6448-0.19293-1.3125-0.52522zm-296.27-5.2292c-2.1338-0.7139-0.92482-3.1667 1.5609-3.1667 1.4064 0 4.6438-0.52542 7.1941-1.1676 3.535-0.89014 4.7294-0.89014 5.0262 0 0.23406 0.70219 2.4486 1.1396 5.5559 1.0973 3.7168-0.0506 4.6054-0.30232 3.1667-0.89717-1.2882-0.53261 0.49121-0.77451 5-0.67972 5.4902 0.11543 7 0.47071 7 1.6472 0 0.89876-0.73119 1.3754-1.8242 1.1891-1.0033-0.17098-2.4171 0.18123-3.1418 0.78268-1.1962 0.99274-27.02 2.0373-29.538 1.1949zm-113.95-23.95c-4.1004-0.16388-8.0379-0.78148-8.75-1.3724-0.94339-0.78294-1.2947-0.73167-1.2947 0.18896 0 0.98765-2.7831 1.114-12.75 0.57889-7.0125-0.37651-20.092-0.68766-29.067-0.69145-12.238-0.005-16.218-0.30675-15.921-1.2064 0.25404-0.76992 3.7699-1.3786 9.8165-1.6996 5.1814-0.275 10.095-0.93335 10.92-1.463 0.82453-0.52965 6.8995-1.0768 13.5-1.2159s17.997-0.44211 25.325-0.67336c9.5727-0.30207 14.078-0.0578 16 0.86767 2.8019 1.3488 9.1758 0.90531 9.1758-0.63844 0-0.49621 2.1196-0.59748 4.75-0.22694 2.6125 0.36801 13.15 0.54737 23.416 0.39857s19.187 0.0512 19.823 0.44447c1.9462 1.2028 65.362 0.55791 66.122-0.67246 0.45689-0.73927 5.3478-0.88601 15.528-0.4659 8.1736 0.33731 22.961 0.74516 32.861 0.90633 9.9 0.16116 19.785 0.81788 21.966 1.4594 2.5449 0.74844 4.3786 0.82373 5.1179 0.21014 0.68342-0.56719 15.316-0.96269 35.966-0.97216 23.705-0.0109 35.235-0.36496 36.132-1.1096 0.72477-0.60151 1.3178-0.70105 1.3178-0.2212 0.00003 0.48481 19.752 0.83386 44.455 0.7856 24.45-0.0478 45.038 0.28973 45.75 0.75 3.2952 2.1294-2.6216 2.8155-23.205 2.691-11.825-0.0716-22.314 0.21521-23.308 0.63724-0.99454 0.42204-26.082 0.50266-55.75 0.17917s-53.942-0.23738-53.942 0.19137c0 0.42874-20.955 0.60536-46.568 0.39249-31.776-0.26411-46.972-0.0515-47.84 0.6692-0.83002 0.68885-9.4873 0.98693-24.89 0.85698-12.989-0.1096-23.936 0.11994-24.326 0.51008-1.1572 1.1572-4.1732 0.80783-4.6677-0.54065-0.36666-1-0.72333-1-1.7833 0-1.938 1.8283-13.677 1.6412-15.566-0.24801-1.2091-1.2091-1.9186-1.2684-3.6786-0.30746-2.118 1.1564-26.909 1.716-44.636 1.0075zm378.71-3.8583c-2.0594-0.85424-3.5075-1.9364-3.218-2.4048 0.28949-0.4684 1.1414-0.61561 1.8932-0.32714 0.75176 0.28847 1.6639 0.0438 2.027-0.54367 0.36309-0.5875 1.6461-1.0366 2.8512-0.99789 2.1124 0.0678 2.1192 0.10112 0.19098 0.92971-1.676 0.72021-1.4735 0.87082 1.25 0.92972 3.1686 0.0685 4.0051 1.6482 1.75 3.305-1.3974 1.0267-2.4598 0.88634-6.7443-0.8909zm-448.25-5.3323c-0.35034-0.56686 0.0511-0.73451 0.94098-0.39301 1.7324 0.66479 2.0494 1.3816 0.61096 1.3816-0.51754 0-1.2159-0.44484-1.5519-0.98854zm9.4929-1.9441c0-1.223 3.6925-2.3755 5.0074-1.5628 0.5639 0.34851 0.76637 1.0526 0.44993 1.5646-0.74992 1.2134-5.4573 1.2119-5.4573-0.002zm24-3.0674c-1.2195-0.78808-1.0902-0.97223 0.69098-0.98468 1.205-0.008 2.4691 0.43468 2.809 0.98468 0.78687 1.2732-1.5299 1.2732-3.5 0z"></path></g><metadata></metadata></svg> 