<?xml version="1.0" encoding="UTF-8" standalone="no"?> <!-- Created with Inkscape (http://www.inkscape.org/) --> <svg xmlns:rdf="http://www.w3.org/1999/02/22-rdf-syntax-ns#" xmlns="http://www.w3.org/2000/svg" xmlns:cc="http://web.resource.org/cc/" xmlns:dc="http://purl.org/dc/elements/1.1/" xmlns:svg="http://www.w3.org/2000/svg" xmlns:inkscape="http://www.inkscape.org/namespaces/inkscape" xmlns:sodipodi="http://sodipodi.sourceforge.net/DTD/sodipodi-0.dtd" xmlns:ns1="http://sozi.baierouge.fr" xmlns:xlink="http://www.w3.org/1999/xlink" id="svg2" viewBox="0 0 637.86 439.78" inkscape:version="0.91 r13725"><g id="layer1" transform="translate(-45.887 -42.183)"><path id="path1882" style="fill:black" d="m66.359 472.73c0.245-0.73 1.136 0.78 0 0zm496.95-1.55c-1.78-3.08 1.48-7.35 3.59-4.4-4.43 0.21 0.19 2.1-2.08 3.39 4.23-0.13 0.02 2.02-1.51 1.01zm-22.58-0.06c-3.99-1.92 5.24-0.92-0.66-2.7-0.95-3.74 6.32-2.29 1.62-0.5 3.81-0.11 1.59 3.91-0.96 3.2zm6.15 0.03c-4.5-1.36 2.01-8.3 2.27-3.84-3.87 0.22-1.84 2.68 0.06 3.01-0.34 0.85-1.63 0.81-2.33 0.83zm10.64-0.02c-2.65-2.46 1.39-8.24 0.61-1.86 1.37 1.54 4.74 1.64 0.02 1.9l-0.63-0.04zm33.28-0.32c-2.41-3.08 1.69-7.45 1.04-1.58-0.02 0.56 0.01 2.66-1.04 1.58zm3.41 0.04c-4.75-1.94 2.88-7.34 1.98-3.65-5.02-0.48 4.14 2.21-0.62 3.79l-1.36-0.14zm0.82-1.39c-0.15-1.86-1.31 1.06 0 0zm-483.97 1.29c1.84-1.19 8.33-2.34 10.92-3.7 4.25 0.39-4.1 1.54-5.58 2.58-1.74 0.5-3.5 1.24-5.34 1.12zm443.31-0.09c-0.3-3.59-5.68 2.48-3.08-2.27 1.56-6.21 5.22 1.27 3.08 2.27zm-0.85-2.92c-1.05-0.99-0.59 1.35 0 0zm24.16 2.77c-2.34-2 0.56-7.82 1.03-2.77-0.22 0.44 0.49 4.22-1.03 2.77zm21.38-0.03c-3.99-4.21 5.56-6.42 3.16-0.71-0.63 0.91-2.25 1.66-3.16 0.71zm1.9-1.31c1.92-4.41-4.32 0.96 0 0zm2.98 1.23c-3.2-5.09 6.33-5.74 3.16-0.29-0.79 0.78-2.3 1.16-3.16 0.29zm2.02-1.11c3-4.84-4.68 0.34 0 0zm6.46 1.48c-1.15-3.86 3.09 0.14 0 0zm-509.23-0.48c1.96-2.55 3.06-0.38 0 0zm-16.595-0.54c-2.965-0.18-4.171-3.47-0.705-0.78 1.567 0.29 4.151 1.62 0.705 0.78zm498.18-0.16c-1.66-5.05 5.65 1.3 0 0zm-13.47-0.65c0.14-1.87 2.78 0.63 0 0zm-495.53-1.17c-2.443 0.42-10.54-2.79-4.088-1.76-0.012 0.97 7.556 1.85 4.088 1.76zm313.04-0.81c-1.67-3.55 5.43-4.64 3.16-0.35-0.74 0.95-2.2 0.71-3.16 0.35zm2.75-1.78c-1.62-2.04-1.26 2.84 0 0zm24.65 1.58c-3.77-4.57 5.38-2.78 1.09-0.72-1.3-0.79 1.17 2.34-1.09 0.72zm164.78 0.02c-1.03-4.89 7.15 0.78 0 0zm29.12-0.06c0.14-4.59 4.52-0.87 0 0zm-215.28-0.06c-1.04-4.07 3.56-1.26 5-2.2 0.02 4.52-1.11 0.02-5 2.2zm14.69-0.51c-4.67-0.17 2.07-4.5 1.05-0.15 0.01 0.63-0.85 0.59-1.05 0.15zm1.96 0.16c1.43-1.57-0.16 1.43 0 0zm-18.37-0.18c0.37-1.13 1.12 1.03 0 0zm9.33-0.02c2.1-7.27 4.64 2.51 0 0zm17.77 0.08c-3.4-3.8 4.64-3.17 0 0zm5.07-0.23c-0.4-3.23 3.05-2.47 0.84-0.51 2.46-0.33 1.42 1.59-0.84 0.51zm3.2-0.27c0.4-5.36 5.61 2.14 0 0zm1.6-0.52c-0.83-1.97-1.57 1.66 0 0zm2.36 0.79c0.01-1.47 0.93 0.75 0 0zm-367.41-0.79c0.094-2.89 0.989 2.67 0 0zm35.006-2.81c-6.73-2.11 6.95 1.53 8.55-1.99 2.61 1.82 12.83-0.49 4.73 1.17-5.12-1.69-7.97 2.28-13.28 0.82zm36.78-0.25c-5.5-0.58 9.44-2.11 2.78-0.3-0.81 0.62-1.87 0.33-2.78 0.3zm-44.615-0.02c-6.439-1.35-11.387-1.86-17.595-3.21-2.748-0.2-4.864-5.33-1.412-1.36 5.363 2.98 9.747 0.19 14.428 3.41 2.904 1.78 8.534-1.33 8.675 0.44-1.481-1.08-2.593 1.23-4.096 0.72zm297.54-1.21c0.25-4.59-0.09-0.65 1.32-0.84 1.62-4.56 1.09 2.75-1.32 0.84zm4.62 0.07c-2.35-5.37 5.3-0.03 0 0zm4.11-0.03c-0.93-6.49 3.89 0.29 0 0zm14.08 0.03c-0.65-3.1 4.28-2.94 1.54-1.21 1.39 1.63-0.38 1.63-1.54 1.21zm3.54 0c-0.13-6.58 4.89-0.54 0 0zm7.68 0.07c1.49-0.87-0.65-1.9-0.01-3.41 1.02 0.68 5.16 2.91 0.01 3.41zm21.09-0.08c-4.08-0.58 3.23-4.99 0.37-1.2-1.23 0.78 2.63 1.15-0.37 1.2zm-43.76-0.27c-2.04-4.9 7.01 0.21 0 0zm3.8 0.14c-2.61-1.48 2.77-3.64 1.01-1.24 1.36 0.09 0.37 2.76-1.01 1.24zm2.69-0.14c-0.51-5.12 2.26 0.34 0 0zm3.26-0.17c-1.09-1.07-3.11 0.36-1.14-2.15 2.51-1.08 3.17 2.67 1.14 2.15zm8.04 0.34c0.14-5.36 5.93-1.01 2.05-0.27-0.74-0.95-1.39 0.63-2.05 0.27zm10.92-0.04c-3.63-3.52 5.83-3 0.77-0.07l-0.77 0.07zm1.2-1.24c-0.84-1.81-2.02 1.65 0 0zm4.33 1.14c0.71-5.77 4.98-0.58 0 0zm16.39-0.02c-1.95-3.49 3.73-3.72 4.28-1.77 0.25 1.45 1.86-1.19 2.45-0.52 0.67 0.3 1.47 3.56 3.06-0.07-0.51 4.36 3.41-3.18 1.36 1.94-3.71 1.06-7.47-0.31-11.15 0.42zm1.94-0.74c1.6-2.8-2.61 0.08 0 0zm-56.94 0.61c0.73-0.21 0.23-0.12 0 0zm35.71-0.01c-0.28-5.08 6.12-1.36 0 0zm6.33 0.06c0.09-4.22 2.17-0.58 0 0zm2.07 0.02c-1.65-2.33 3.36-2.92 0.41-0.68 2.29-0.04 0.85 1-0.41 0.68zm23.88-0.78c-0.81-3.49 4.19-1.38 0.09 0.9l-0.13-0.22 0.04-0.68zm2.53 0.26c0.45-3.23 5.88-1.88 1.93-0.12-0.77-1.37-1.42 1.12-1.93 0.12zm124.67-0.05c-3.01-2.62 3.44-6.37 2.08-0.84-0.33 0.67-1.27 1.6-2.08 0.84zm1.05-2.71c-0.89 0.11-0.33 0 0 0zm-35.72 2.6c-1.02-1.3 0.43-5.95 2.8-3.54-1.5 0.85-0.73 3.66-2.8 3.54zm20.24-0.23c-2.32-5.91 5.72-2.21 1.91-0.48-0.62-1.14-1.08 1.47-1.91 0.48zm11.44 0.05c-2.57-2.83 1.57-5.92 0.77-1.02 0.04 0.29-0.16 1.7-0.77 1.02zm6.37-0.23c1.05-1.24 1.14-0.81 0.15-3.26 3.6-2.19 2.7 5.43-0.15 3.26zm4.92-0.2c-4.5-3.72 5.75-3.48 0.51 0.59l-0.51-0.59zm-150.59 0.23c-1.81-1.35 2.48-0.03 0 0zm111.03-0.05c-0.73-6.3 6.02-0.91 2.7-0.48-1.05-1.36-1.77 0.47-2.7 0.48zm2.17-2.2c-0.51-0.73-0.51 0.72 0 0zm7.82 1.95c-0.37-3.37 0.38-2.34 1.39-0.62 2.55-5.78 1.98 3.61-1.39 0.62zm-4.67-0.14c-1.21-4.32 2.57-1.23 3.24-1.97 0.73 4.13-2.6 0.25-3.24 1.97zm16.05 0.1c-2.88-3.7 4.96-3.78 0.75-0.24 0.16 0.62-0.69 0.72-0.75 0.24zm-462.73-0.1c1.55-1.09 9.23-1.36 2.84-0.13-0.95-0.12-1.9 0.48-2.84 0.13zm454.93-0.03c-0.33-5.91 4.48 0.4 0.7 0l-0.42 0.11-0.28-0.11zm-456.5-0.3c1.12-0.33 0.21 0.36 0 0zm-26.548-0.75c-5.325-2.14-10.655-1.03-15.854-3.09-1.959-2.39-9.5-1.97-3.151-2.73 3.889 4.76 9.987 2.67 14.779 4.33 5.78 1.71 11.431-0.62 17.314 0.86 4.94-2.25 10.05-1.75 14.88-4.26 5.72 0.25 10.14-3.77 14.99-6.4 5.11-2.59 8.85-4.66 14.27-7.13 2.91-3.98 9.81-1.72 12.74-6.63 4.55-1.08 9.03-4.2 13-6.2 5.78 0.4 7.91-4.96 13.45-5.82 0.42-2.11 4.8-3.96 2.32-5.66-2.63 6.02-9.47 6.71-14.68 9.31-10.7 4.95-21.17 10.46-32.33 14.4-8.41 5.18-16.84 10.66-26.44 13.41-5.83 2.57-12.19 1.64-18.307 2.61-10.126 0.41-20.333-1.43-29.847-4.84-3.989 0.09-4.853-10.22-0.81-4.94 4.8 3.77 11.243 4.85 17.213 5.64 6.925 0.2 13.793 1.35 20.691 0.2 5.63-0.26 11.3-2.09 16.33-4.52 5.49-2.88 11.41-4.62 16.29-8.6 5.77-3.05 11.55-5.82 17.52-8.46 5.82-2.92 11.9-5.45 18-7.8 5.29-2.77 12.7-3.98 14.55-10.58 2.36-5.98 3.25-12.52 6.21-18.34 2.08-5.69 4.63-11.81 3.73-17.96-3.99-4.97-6.35-11.5-1.08-16.7 4.89-5.08 5.7-12.42 9.25-18.33-2.72-4.52-8.43-7.24-13.47-10.05-13.88-7.63-29.22-12.17-44.79-14.67-8.98-1.82-18.12-2.45-27.29-2.19-5.77-1.33-9.92 1.11-9.89 7.28-5.01 17.83-6.03 36.55-4.24 54.93 0.03 5.77 2.18 11.94 1.98 17.29-3.55-17.06-3.99-34.77-2.19-52.09 1.13-9.12 3.4-18.01 5.76-26.87-5.51-1.16-12.356-0.12-18.35-0.39-4.009-0.44-15.396 1.24-15.449-0.79 11.445-0.58 22.929-0.08 34.369-0.7-2.82-2.51-11.2-0.28-16.1-0.93-6.366-0.03-12.769 0.33-19.11 0.12 2.454-2.43 11.443-0.49 16.102-1.25 6.648-0.23 13.418 0.16 19.998-0.48-4.58-2.04-12.64-0.08-18.475-0.68-5.904-0.44-13.069 1.05-18.236-0.76 12.325-0.87 24.781-0.15 37.141-0.82-0.64-2.29-10.27-0.46-14.155-1.05-7.551 0.06-15.102 0.43-22.654 0.25 3.015-2.23 11.214-0.56 16.17-1.2 7.289-0.3 14.869 0.22 21.979-0.63-6.67-0.92-13.78 0.02-20.616-0.27-5.909-0.41-13.202 0.87-18.339-0.67 13.216-0.86 26.535 0.07 39.765-0.67 8.08 0.58 16.6-1.38 24.51-3.6 24.94-7.16 47.41-24.35 58.8-47.93 8.96-18.01 13.89-38.27 12.47-58.42-0.67-4.93 1.85-12.76-1.01-16.06-8.92-0.09-17.86-0.22-26.77 0.15-0.94 7.53 0.51 15.39-0.55 22.91-5.43 1.53-15.33-2.27-12.99 6.97-9.54 0.38-19.11 0.36-28.64-0.06-0.42-9.78 0.16-19.6-0.47-29.36-14.6-0.19-27.4 8.37-38.62 16.83-12.68 8.97-25.08 18.3-37.729 27.32 1.777-4.75 8.861-6.86 12.564-10.72 12.786-8.83 25.045-18.4 37.845-27.19 9.31-4.93 19.58-8.69 30.29-7.97 22.03-0.27 44.07-0.08 66.11-0.46-0.97-4.59-10.16-1.07-14.45-2.18-20.07 0.16-40.15-0.18-60.2 0.55-17.77 2.06-31.05 15.08-45.269 24.58-9.069 6.49-17.954 13.24-26.991 19.76 1.545-4.26 7.267-5.93 10.52-9.12 12.392-8.98 24.79-17.96 37.27-26.81 9.93-6.45 21.64-10.64 33.61-9.93 21.83-0.29 43.68 0.01 65.5-0.52 0.87-15.78 1.85-31.65 4.58-47.23 1.62 3.54-1.3 10.77-1.14 15.65-1.17 10.48-2.37 21.06-1.95 31.6 36.49 0.32 73-0.19 109.49-0.12 3.48-0.77 13.4-0.7 12.66-4.44-3.11-4.31-2.94-2.22-4.8-0.07-3.39-0.35-8.38 0.56-10.63-0.7 3.59-1.24 12.03 2.14 10.73-4.23-1.39-1.92-3.3-2.53-5.61-2.13-2.68 0.43-7.57-0.7-1.94-0.81 9.06 0.8-4.01-6.63-5.96-9.09-3.56-4.33-1.76 4.8-6.93 1.98-2.36 0.24-11.24-0.31-4.07-0.81 3.69 0.74 10.72-0.25 6.37-4.93-2.07-3.35-8.1-1.27-9.47-2.82 5.12 0.63 4.81-1.32 0.81-3.31-4.09-3.84-9.21-4.15-14.57-3.79-3.75 0.46-4.53-1.24-0.16-0.91 2.82 0.15 9.67 0.12 3.27-2.39-4.12-1.57-9.09-7.22-12.91-4.47-3.87-0.18-8.01 0.42-11.69-0.44 2.97-1.84 11.3 1.63 11.68-1.76-20.35-10.11-42.75-16.03-65.36-18.03-29.25-2.68-58.99 2.13-86.25 12.94-5.1 1.17 5.09-2.46 6.21-2.85 36.96-13.67 78.28-14.74 116.1-3.88 10.12 2.6 19.81 6.9 29.36 10.82 0.9-6.25 1.32 5.1 5.98 2.4 4.71-0.4 12.26 1.51 11.92-4.07 3.37 7.96-8.7 3.46-10.55 5.59 3.59 1.88 8.9 5.83 10.84 4.26 0.95 4.69 7.72 6.06 11.14 9.36 3.28 1.62 5.22-0.96 5.4-3.33 2.5 3.98-2.31 4.42-2.69 5.33 4.49 4.05 9.12 7.9 15.53 6.12 4.54 2.43 2.48-5.07 4.28-3.96 2.66 7.63-7.11 3.7-10.19 5.44 3.08 3.04 9.75 10.63 9.94 2.45 1.98 4.36-3.6 5.66 1.68 8.61 4.24 7.94 11.17 0.53 16.56-2.09 30.43-17.87 61.12-35.11 91.42-53.34 8.05-4.59 15.95-9.419 24.14-13.769 16.48-6.082 33.99-8.968 51.53-9.252 8.14-0.311 16.35 0.165 24.46-0.276 20.08-3.779 37.39-15.995 51.29-30.501 5.46-2.659-3.24 4.526-4.2 5.735-13.57 12.799-30.15 23.576-48.94 26.228-24.52-0.658-49.72 0.056-72.89 8.992-11.12 5.333-21.47 12.223-32.21 18.313-18.81 11.03-37.53 22.06-56.43 32.96-12.18 6.87-24.22 14.04-36.25 21.14-5.82 2.25 0.63 3.78 2.87 0.73 7.4-3.41 14.2-8.16 21.41-12.02 26.42-15.34 52.98-30.45 79.18-46.19 10.25-6.03 20.76-11.752 32.27-15.008 19.7-6.145 40.51-6.503 60.96-6.38 13.87-1.114 26.68-7.821 37.98-15.609 7.63-6.019 15.36-12.143 21.68-19.531 4.41-0.518-3.56 5.453-4.56 6.782-13.81 12.868-29.72 24.432-48.41 28.764-5.8 1.976-12.27 0.096-18.34 0.777-15.56-0.124-31.19 1.256-46.2 5.559-10.91 2.948-21.35 7.476-30.94 13.506-29.37 17.33-58.85 34.48-88.41 51.51-6.5 3.97-13.37 7.45-19.77 11.49 6.42 8.49 13.18 16.81 18.7 25.96 1.87-0.73 10.83 1.21 7.91-0.64-3.58-7.95 10.57-5.26 4.89 0.45-4.17 1.28 4.62 5.44 6.83 6.49 4.87-0.66 9.5-1.91 14 0.33 3.65-5.22 5.45-11.77 9.75-16.48 4.85-4.49 2.7-11.25 4.02-16.98-0.94-6.42 0.95-12.57 4.75-17.86 3.18-6 9.74-8.85 13.81-14.13 4.12-5.18 10.89-7.65 17.11-8.91 6.37-0.88 12.67-4.77 19.18-2.29 6.55 0.73 13.84 2.58 19.84-1.14 6.9-4 10.44 4.48 12.06 9.77 4.86 4.74 8.36 10.52 11.44 16.75 4.39 5.2 8.55 10.9 14.55 14.36 5.31 3.11 12.1 2.74 17.6 6.04 6.21 3.25 11.02-3.76 16.36-3.1 6.19 2.01 12.25 4.93 18.85 5.19 6.93 0.81 13.32-2.91 19.95-4.32 6.56-2.03 14.88 1.4 20.21-4.14 6.09-6.12-5.45-10.05-4.36-16.12 0.23-6.01 2.8-12.47-1.33-17.88-4.46-4.05-7.02-10.67-1.93-15.41 4.86-3.22 9.68-10.49 3.48-15.09-4.94-3.653-7.65-10.525-5.76-16.514 0.83-5.424 3.07-10.393 4.98-15.484 1.18-7.025 7.89-10.146 12.44-14.866 2.62-2.152 5.59-2.893 8.86-2.431 5.05-0.391-4.74 3.489-5.96 4.932-4.49 3.673-9.5 7.858-11.82 13.267-3.06 7.142-6.53 14.967-4.6 22.868 3.25 4.988 10.38 9.008 8.49 16.038-1.15 5.08-5.22 8.73-8.75 12.34-0.5 6.09 6.18 9.75 6.17 15.63 1.22 6.55-3.7 14.42 3.11 19.34 4.73 5.07 1.05 12.43-4.69 14.73-7.7 2.38-16.05 1.4-23.66 4.32-7.37 3.02-15.82 4.03-23.39 1.19-5.6-2.58-11.37-5.02-16.69-0.98-6.02 1.91-12.19-0.34-17.71-2.63-6.17-0.71-12.05-2.88-16.4-7.58-4.29-4.47-8.83-8.27-12.1-13.55-2.14-5.8-6.05-9.95-10.13-14.15-1.57-4.99-4.8-13.69-11.02-7.96-7.12 1.75-14.5 0.92-21.6-0.37-6.56 0.02-12.66 2.38-18.96 3.9-6.86 1.26-11.93 6.25-16.33 11.29-5.22 4.39-10.23 9.57-11.82 16.44-0.89 6-0.46 12.33-1.4 18.54 0.46 6.47-5.8 10.05-7.73 15.61-1.39 3.15-5.07 8.07 1.41 5.56 3.89-2.78 7.72-9.27 8.18-14.27 3.54-4.93 3.19-12.04 3.16-17.09 5.15-4.02-1.98-11.07 5.55-13.76 4.66-3.26 6.22-11.14 10.54-12.88 3.73-3.51 6.9-6.13 12.34-6.53 6.49-1.11 13.08-3.41 19.75-2.7 7.04-0.62 15.18 1.31 21.06-3.69 1.58 4.06 3.68 9.52 7.47 12.77 3.03 3.1 5.29 8.24 6.9 12.99-1.89-4.06-4.8-8.96-6.83-12.1-4.27-2.37-6.03-9.74-8.63-11.76-6.1 3.87-13.5 1.72-20.13 2.48-5.92-1.11-11.55 2.36-17.25 1.62-6.46 1.44-11.11 4.07-15.65 8.76-3.82 4.64-7.03 10.55-12.09 14.25-1.3 3.74 2.08 7.92-2.3 11.19 0.1 3 1.61 6.66-0.32 9.58-1.88 6.08-3.33 12.67-7.79 17.47-4.82 4.49 10.47 3.26 6.02 1.1-4.16-3.79 5.87-0.5 5.65-5.45 0.28-6.47 4.31-11.57 4.56-17.93 0.12-5.37-0.21-9.97 3.49-13.94 4.58-4.31 5.88-11.77 11.76-14.09 6.18-2.24 10.82-6.71 18.08-5.54 3.27-0.85 6.36-2.17 9.8-1.5 4.62 0.22 10.86-2.92 14.43-2.08 0.46 5.6 3.89 10.44 8.4 13.71-2.75 4.48 4.5 6.43 5.34 10.32 3.46 2.73 5.36 7.37 9.27 9.78 3.97 2.74 8.08 6.15 12.63 8.34 6.21 3.22 13.36 3.18 20.08 3.78 6.41 1.68 13.09 1.24 19.61 2.1 6.32 0.12 12.86-0.07 18.93 1.88 5.35-2.58 11.19-0.92 16.93-2.23 6-1.28 11.42-4.51 17.87-3.78 7.26-0.48 10.68-5.99 15.63-10.27 3.08-4.58 1.49-11.38-0.53-16.38-1.25-5.55 2.86 4.82 2.26 7.02 3.08 7.04-2.7 10.91-6.61 15.62-4.82 5.07-12.74 4.83-19.32 5.53-5.55 3-11.83 3.89-18.11 3.81-4.82-0.03-9.38 2.57-14.23 0.07-9.76-0.29-19.57-0.49-29.25-1.86-6.35-1.61-12.89-0.8-19.15-2.97-6.25-1.01-10-5.77-15.41-8.32-4.94-3.8-8.18-9.07-12.37-13.38-1.42-3.43-6.38-5.41-4.54-9.59-5.3-1.91-6.62-9.28-9.13-12.26-6.57 1.92-13.47 1.48-20.03 3.03-5.33 1.73-12.1-0.49-15.87 4.45-7.43-0.04-9.14 6.68-13.13 11.32-2.95 5.43-7.83 8.94-5.9 15.6 0.25 6.62-4.26 11.69-4.31 18.19 0.32 3.78-7.42 5.98-0.86 7.19 2.76 0.82 9.17 3.11 2.87 4.36-4.86 0.86-0.29 7.22-3.34 10.58 0.87 4.64-1.62 8.79-0.02 13.19-1.93 5.73-1.8 13.15-6.33 18.15 0.11 5.04-4.91 11.36-1.02 15.5-4.82-2.42 0.15-9.7-0.01-14.12 4.33-4.92 3.43-11.48 6.5-16.85 0.27-5.87-0.49-12.01 0.89-17.93 1.5-3.48 0.74-9.45-4.2-5.59-2.62 2.05-0.72 7.59-2.87 10.85 2.1 6.69-0.91 13.39-2.86 19.61-3.16 5.44-7.34 12.01-5.72 18.36 2.75 4.11-3.78 12.97-0.26 14.33 1.46-1.1 2.05 1.47 3.58-0.64 0.33 2.2-2.17 5.41-3.35 2.17-4.48 4.27 5.77 4.69 3.54 0.51 0.81-6.48 6.41 1.33 3.02 0.76-2.99-2.35-2.57 4.35 1.28 1.96 6.12 0 12.29 0.42 18.38-0.07 0.85-1.67 2.37-11.46 3.15-8.22-0.88 3.61-4.35 11.39 2.52 7.37 2.94-0.09 8.87-4.6 10.19-1.46-3.11 0.96-7.77 2.9-1.58 2.33 2.2 0.2 13.58-0.96 8.8 2.09-3.51 0.78-10.6-0.64-12.25 1.17 3.51 0.08 7.61 5.13 1.75 2.85-4.58-1.3-13.48-7.46-13.42 1.37 1.14 3.24-4.4 7.09-2.15 0.95 2.9-2.29 3.1-8.16-2.44-5.77-7.52-0.1-14.97 0.44-22.41 0.19-1.89 1.47 1.69 1.85 0.51 4.3-2.36 3.88-0.4-6.27-4.14-4.04-3.21 4.38-11.51 6.52-8.25 13.35 1.16 6.5-4.15 11.87-7.23 17.19-1.57 5.79-4.9 11.47-9.59 15.35-5.99 5.14-13.69 8.53-17.95 15.52-3.41 5.29-6.38 10.93-9.51 16.39-3.32 1.34-5.38 3.55-0.37 3.9-3.21 0.52-10.82-0.25-13.25-5.16-3.47-2.76-5.04-9.33-10.6-5.86-0.64-2.2-1.78 1.35-3.04-0.46 0.31 3.75-3.17-0.44-3.8 2.26-4.14 0.71 0.25-3.03 2.38-2.68 4.94-2.27 10.12-4.18 12.08 2.21 1.92 3.85 8.82 10.08 11.43 7.89-5.82-1.8-8.35-7.41-11.04-12.24 0.55-4.38-2.48-10.51-4.07-15.4-1.68-3.54-3.32-11.99-8.08-11.1-4.43 1.43-9.88 8.26-14.12 5.52 1.85-4.15 8.14-5.09 11.63-8.09-0.83-4.24-7.74 3.41-10.24 5.34-2.66 2.12-8.51 10.35-1.41 5.58 1.73 2.54-6.33 5.54-9.01 6.77 0.7-2.91-0.51-9.65 2.11-10.41 0 3.54 0.48 5.6 2.49 1.41 3.7-4.87 8.26-9.03 12.88-13.01-4.84-3.29-8.58-7.7-11.52-12.71-0.85-2.48-6.22-6.59-2.79-1.38 0.96 3.78 10.32 10.89 3.83 12.68-4.39-4.36-6.06-11.22-10.39-15.73-2.89 1.62 4.36 8.61 4.17 12.35 1.17 2.36-0.07 9.61 3.46 4.42 0.37 2.39-1.52 9.58-3.73 9.63-1.73-3.29-5.73-10.93-0.83-7.74 0.62-5.1-5.1 1.56-5.46-3.67-3.2-4.51-5.23-10.28-8.93-14.19-6.8-0.69-13.72-0.34-20.58-0.23-1.65 3.13 9 4.88 2.61 6.53-3.54-1.41-6.45-3.8-7.03-6.55-6.19-0.76-13.34-2.87-18.82 1.3 2.56 3.91 9.97 5.9 14.24 9.16 10.37 5.99 21.09 11.44 31.21 17.88-1.79 6.08-9.05-2.87-13.1-3.71-11.54-6.46-22.98-13.22-34.64-19.38-7.06 6.4 5 8.05 9.06 11.55 11.27 6.47 22.64 12.72 33.86 19.24-0.5 6.73-8.92-2.14-12.52-3.12-11.79-6.52-23.41-13.38-35.27-19.74-4.58 4.33-7.1 10.85-10.8 16.09 1.33 3.04-3.5 3.82-3.87 8.36 2.19 1.02 2.65 3.19-0.22 0.86-4.86 6.31 6.34 7.64 9.95 10.85 8.57 4.99 17.29 9.77 25.79 14.88 0.3 6.74-8.14-1.2-11.38-2.36-9.3-5.14-18.49-10.64-27.8-15.66-4.13 4.26-5.17 10.81-8.03 16.03-2.8 3.88-7.85 7.77-2.69 12.18 4.63 5.61 1.15 13.22-0.6 19.28-2.99 7.56-5.69 15.27-7.36 23.23 4.3-2.49 1.46-7.64 5.25-10.45-0.12-5.64 5.12-9.69 4.08-15.32 3.67-2.92-2.03 2.51 0.38 4.56-2.81 4.97-3.82 11.01-5.86 15.74-1.84 4.79-4.38 9.28-6.63 13.89-5.2 3.02-10.42 6.74-16.52 7.15-4.3 4.55-10.92 4.7-15.69 8.54-6.17 0.75-10.08 5.73-16.2 7.12-3.51 3.24-9.1 4.2-12.41 7.87-4.6 1.63-9.5 1.96-13.84 4.36-6.01 0.63-11.75 3.15-17.982 1.22-1.619 0.41-3.352 1.19-5.046 0.81zm157.27-96.86c-3.86-3.64-9.96-5.9-14.67-9-7.56-3.97-14.7-8.84-22.39-12.44 2.25 3.97 10.02 6.07 14.36 9.26 7.4 4.21 14.72 8.57 22.26 12.51l0.44-0.33zm94.78-7.38c2.47-5.97 5.81-11.51 9.2-17.01 3.42-5.16 9.06-8.13 13.66-12.08 5.49-2.98 11.38-8.3 11.75-14.69 3.22-5.07 6.02-10.16 8.5-15.48-0.68-5.29-2.65-11.62 3.81-14.91 6.77-2.72-3.3-2.07-4.75-0.09-6.24 2.55-5.8-9.35 0.38-6.16 1.08 2.37 10.79 4.18 9.41-0.93-1.03-5.95-0.69-11.79-0.48-17.76-0.84-6.33-0.24-13.14 4.72-17.73 3.25-5.55 4.2-12.45 3.59-18.86 1.89-4.41 2.62-8.95-3.67-8.4-6.05-2.11-11.78-7.6-18.76-4.19-4.55 1.13-10.92-9.96-11.17-0.97-1.7 5.6-1.06 11.18 2.08 16.12 0.9 3.84 9.43 3.38 8.12-1.48 2.82 3.42-1.15 6.63-5.37 5.2-3.76 2.03 4.9 10.14 5.05 3.39 2.52-1.09 1.04 6.45-2.66 3.8-1.78 1.31 2.83 10.68 2.8 3.67 2.24-1.26 0.63 4.76-0.86 4.94 2.98 4.33 2.09 10.97 4.04 16.42 1.07 2.55 1.56 12.25 0.2 4.62-0.49-1.91-1.73-13.45-2.69-6.97-2.85-0.06-9.62 1.08-10.37-0.76 4.89 0.89 13.38-0.37 9.37-6.2-2.45-0.43-9.99 0.86-9.43-1.11 3.75-0.58 12.41 1.67 8.51-4.81 0.69-4.5-11.75-0.48-7.92-3.24 3.67 0.17 8.76 0.51 5.54-4.36 0.89-4.06-11.77-1.46-5.51-3.57 8.72 2.09-0.18-10.86-2.86-4.96-0.9 15.43 0.1 30.91-0.68 46.33-1.57 9.14-7.45 16.73-14.06 22.92-2.46 1.81 10.61-1.46 3.62 1.68-3.9 0.1-9.26 3.61-11.73 3.28 3.93-2.27 4.86-10.86 8.55-10.93-0.96 2.44-4.1 7.68 0.24 3.12 7.6-7.14 13.11-17.1 12.48-27.76-0.07-16.88-0.63-33.79 0.95-50.62-2.15-6.43-4.76-15.62-13.22-13.48-7.03-1.14-10.24-7.84-16.28-10.43-5.43-4.23 6.47-0.01 6.78 2.95 3.07 3.53 11.48 8.3 14.8 5-5.57-8.82-11.52-17.48-18.6-25.17-6.96 2.53-14.29 4.08-21.75 3.68-35.08 0.28-70.16 0.08-105.23 0.75-0.19 16.22 1.69 32.55 5.81 48.25 1.25 4.45 2.6 13.42 7.54 6.22 3.57-2.11 9.46-4.31 11.65-6.32-2.51-2.6 10.37 0.35 9.97-4.96 3.13 3.46 10.46-1.43 15.44-0.44 9.97-0.69 19.86 1.04 29.38 3.87 4.37 2.03 3.02-2.38 4.78-3.61-0.74 4.87 0.52 6.63 5.27 8.2 2.7 1.9 8.62 4.29 10.77 2.01 0.33-7.44 3.31 4.83-2.7 2.02 0.37 2.15-6-1.06-8.71-0.48 0.91-1.41 5.92-0.6 1.39-2.37-5.45-3.56-11.69-5.06-18.15-4.5-2.66-1.68 8.1-0.89 1.11-2.15-3.41-1.29-6.67-2.16-6.66 2.16-2.22-0.35-10.58 1.25-9.48-0.99 2.7-0.65 6.92 0.47 8.99-0.52-1.47-4.95-9.84-2.16-14.21-2.93-5.19 0.91-13.97-0.64-16.55 4.17-5.29 0.89-13.36 0.48-16.4 5.85-0.71 4-6.64 0.65-8.69 4.21-2.2 4.25 3.54 10.15 4.93 14.77 4.66 9.51 10.65 18.94 19.46 25.12 5.63 3.46 12.22 5.22 18.82 4.26 2.16-0.59 10.13 0.24 3.74 0.85-14.76 0.73-29.65-0.75-44.28 2-20.32 3.44-40.56 8.67-59.25 17.5-2.04 2.1 8.29-3.22 11.1-3.94 18.72-6.96 38.38-11.22 58.21-13.56 10.95-1.49 21.95 0.07 32.93-0.39 6.92-2.51 7.63 7.16 11.98 9.38 3.35 3.11 7.56 0.71 10.58-0.97 3.31 3.46 9.56 2.76 10.91 8.72 4.38 4.08 6.77 10.66 12.75 12.58 2.41 1.34 4.94 6.5 7.01 0.74 2.1-3.91-0.06 3.7 2.88 0.05 1.82-1.34 11.66-7.81 7.22-2.91-3.32 2.25-9.49 5.18-6.81 6.9-9.17-0.43 2.16 6.56 1.58 11.06 3.26 7.64 4.55 16.05 8.62 23.37 1.51 1.85 4.3 5.75 6.97 4.02zm-7.44-11.66c-2-4.99 0.39-9.62 6.18-7.61 3.11 1.9 1.87 10.75-3.96 8.11-0.73-0.08-1.73 0.21-2.22-0.5zm4.62-1.12c-0.35-0.9-1.04 0.95 0 0zm1.62-1.12c-0.69-2.37-0.7 2.28 0 0zm-1.91-0.55c0.97-5.71-5.76 1.76 0 0zm1.91-1.89c-1.02-1.93-0.3 2.21 0 0zm-1.04-1.18c0.2-1.65-2.73 0.65 0 0zm-2.51-0.13c-0.43-1.14-1.34 0.71 0 0zm-2.12-19.33c-1.13-4.31-1.79-12.23 0.49-15.73 4.64-1.04 12.58 0.32 9.5 6.77 7.25 6.85-4.1 11.05-9.99 8.96zm8.69-1.83c8.03-5.25-9.4-9.49-7.81-2.53-1.12 4.67 5.35 2.23 7.81 2.53zm-0.7-7.95c3.21-3.84-2.05-5.09-4.91-4.31-3.96-1.22-2.76 6.99 1.24 4.74 1.22-0.08 2.53 0.15 3.67-0.43zm-25.28 4.1c-4.36-3.38 6.73-4.12 2.12-0.13-0.59 0.18-1.73 1.6-2.12 0.13zm4.31-2.96c-2.86-4.87 1.02-0.98 3.31-3.49 3.7 1.93-2.18 5.65-3.31 3.49zm-7.23-1c0.53-2.25 2.32-0.77-0.55-2.24 0.58-5.58 6.64 3.14 0.55 2.24zm13.08-1.42c-3.88-4.25 7.18-4.05 1.89-0.46-0.55 0.05-1.38 1.37-1.89 0.46zm-9.47-0.89c-3.03-2.67 2.53-6.15 1.1-2.17 0.36 1.41 3.35 0.81-0.64 2.57l-0.3-0.08-0.16-0.32zm3.65-2.04c-3.7-3.48 1.46-2.94 1.86-3.76 1.93-3.34 0.77 5.04-1.86 3.76zm3.94-2.13c-2.57-3.25 1.9-5.64 1.36-2.52-1.32 2.19 3.76-0.44-0.21 2.33l-0.76 0.31-0.39-0.12zm3.2-2.45c-4.01-5.05 5.83-3.72 2.28-1.03-1.9-1.58-1.04 3.15-2.28 1.03zm1.13-2.41c-1.05-1.12-1.02 1.3 0 0zm-13.02 1.71c-3.79-5.03-5.35-12.37-11.5-15.14-3.13-1.98-13.87 0.56-13.2-1.69 11.44-0.73 22.97 0.01 34.47-0.36 3.4-0.64 13.11 1.2 12.34-1.48-16.64-0.23-33.32 0.66-49.92 0.21 4.37-1.86 12.44-0.48 18.15-1.03 10.67-0.25 21.39 0.12 32.03-0.57-1.41-6.44-3.69-11.9-6.61-17.87-1.49-7.89-9.95-3.53-15.09-5.43 3.26-1.89 15.61 2.09 8.81-4.5-1.37-3.77-5.5-1.46-8.34-2.52 0.42-1.64 8.69 0.45 3.29-3.48-2.41-1.22-8.22-11.1-8.25-4.34-2.85 0.85-14.95-0.4-6.08-1.01 4.64 1.72 7.32-2.5 3.06-5.08 4.63 2.57 7.92 7.14 14.14 4.97 3.93 1.06 4.78-0.99 5.56-3.7 3.38 7.94-8.52 3.44-10.73 5.7 2.74 2.13 4.29 7.13 8.44 6.07 2.4 0.48 1.76-7.85 2.66-1.48 0.91 4.31-7.62 1.18-2.35 5.77 1.24 3.21 2.06-4.58 2.38 0.71 0.21 5.99 5.54 10.33 6.71 16.2 2.74 1.47 10.33 2.59 9.13-2.86 2.39 3.01-0.85 6.58-4.96 4.87-5.72-1.97-1.94 7.82 0.35 8.19 2.81-0.29 12.33 0.47 5.05 1.04-3.48-0.9-9.13 1.49-2.49 1.43 2.88 1.82-6.93 0.66-8.59 1.11-9.21 0.24-18.45 0.04-27.64 0.45 4.45 4.33 7.07 10.29 10.06 15.65 0.2 0.69-0.72 0.74-0.88 0.17zm17.96-2.85c-3.58-4.16 5.48-3.95 2.08 0.22-0.66 0.31-1.54 0.32-2.08-0.22zm1.49-0.88c-0.27-3.55-2.3 1.36 0 0zm1.98-1c-1.81-3.25-0.23-2.6 1.41-0.59 1.76-1.23-1.43-5.83 1.75-1.3 0.94 1.13-2.63 3.39-3.16 1.89zm-56.58-2.43c-3.96-3.62 2.06-5.47 2.51-0.81-0.53 0.53-1.8 2.12-2.51 0.81zm61.28-0.49c-1.11-2.31-3.66-0.85 0.34-3.37 2.2-2.16 3.69 2.13 5.33 1.23-2.07 4.37-5.46-4.06-5.01 1.25 1.5 0.98-0.36 2.21-0.66 0.89zm28.97 0.04c-0.72-3.83-0.18-10.79-1.69-13.28 5.05-5.92 2.82 6.54 3.37 9.61-0.45 2.07 2.57 4.26-1.68 3.67zm-23.07-3.26c-3.53-1.61 1.45-5.43 1.01-3.16 0.36 0.3-1.11 3.63 1.59 1.78 1.28 0.73-2.5 2.75-2.6 1.38zm-64.45-0.53c1.8-1.83 4.45-5.24 4.53-0.34-1.38-1.76-3.18 1.3-4.53 0.34zm-5.36-0.41c-4.38-3.41 1.78-6.23 2.06-1.04-0.1 0.69-1.43 1.26-2.06 1.04zm74.01-2.13c-3.05-0.8-0.93-3.49 1.15-2.88-1.64 1.04 1.36 5.86-1.15 2.88zm-69.77-0.34c-4.12-4.33 6.32-3.02 2.92-1.89-2.28-2-1.43 2.75-2.92 1.89zm72.84-0.52c0.47-2.5 1.69 1.5 0 0zm-80.12-1.95c-3.77-3.8 2.93-4.94 2.02-0.66-0.59 0.25-1.34 1.2-2.02 0.66zm5.16-1.2c-0.72-2.11 4.08-4.25-1.35-2.39 0.33-2.83 3.95-3.97 4.58 0.25-3.25-0.5-1.02 4.88-3.23 2.14zm-7.85-3.26c-3.68-3.57 1.74-5.87 2.31-1.04-0.58 0.44-1.54 1.96-2.31 1.04zm5.02-1.89c-2.27-3.07 5.81-3.94 0.41-0.7 2.93-0.98 4.23-0.33 0.58 1.31l-0.99-0.61zm-1.82-2.64c-4.06-4.18 7.01-3.82 1.88-0.08l-0.98 0.26-0.9-0.18zm1.8-1.38c0.69-2.43-4.12 1.37 0 0zm74.5-1.01c-0.23-3.07 11.46 1.91 9.14-5.18 2.7 3.58-1.6 6.41-5.7 5.24-1.14 0-2.29 0.04-3.44-0.06zm15.54-0.24c2.03-2.28 10.17 0.68 10.22-3.84 1.95 6.71-6.71 3.44-10.22 3.84zm-94.59-2.17c0.76-2.49-3.01-2.69 1.9-3.92 3.33 3.07 0.85 3.22-1.9 3.92zm2.3-1.66c-1.45-2.26-0.53 1.07 0 0zm-4.53-2.13c-3.07-3.18 5.15-4.21 3.37-0.68-1.77-2.2-1.56 0.63-3.04-0.28 0.62 0.55 1.04 2.75-0.33 0.96zm-31.08-0.69c-7.8-0.64 3.29-1.24 5.7-1.28 1.06-5.39 2.71 3.84-1.63 1.31-1.36 0.01-2.71-0.01-4.07-0.03zm12.55-0.36c2.18-2 9.76 0.92 10.19-3.61 1.95 6.31-7.02 3.27-10.19 3.61zm32.42 0.12c2.43-2.63 11.67 2.02 10.31-5.17 4.03 7.2-5.51 5.29-9.8 5.23l-0.51-0.06zm17.3 0.03c-0.16-3.22 11.77 2.13 9.72-4.41 1.17-4.25 2.73 7.74-2.48 4.54-2.41-0.04-4.83-0.02-7.24-0.13zm16.98-0.04c-1.32-3.22 11.59 2.23 9.38-4.2 1.42-3.22 2.59 6.94-1.71 4.26-2.56 0.03-5.12 0.07-7.67-0.06zm17.52 0.04c-2.15-1.93 5.92-0.85 8.14-1.19-0.53-2.98 1.58-6.26 1.2-1.17 1.54 4.54-7.2 1.48-9.34 2.36zm16.82-0.04c-5.37-2.74 10.58 1.82 7.75-4.64 2.76 2.19-0.51 6.58-4.3 4.71-1.15 0-2.3-0.01-3.45-0.07zm13.96-0.3c2.27-2.49 10.7 1.26 10.46-4.24 2.57 7.13-6.76 4.06-10.46 4.24zm-97.11-2.12c-1.78-0.45-1.24-1.78-2.42-2.55 4.09-4 2.41 1.32 4.86 2.21-0.35 0.88-1.82 0.21-2.44 0.34zm-4.16-4.52c-2.59-3.35 5.96-3.04 3.74-0.13-1.95-4.06-1.66 3-3.74 0.13zm-27.01-0.16c-8.19-0.69 3.9-1.27 6.23-1.34 0.44-3.98 2.24-2.48 1.19 0.87-2.14 1.1-5.07 0.25-7.42 0.47zm15-0.21c-5.73-1.65 7.89 0.21 7.37-2.14 0.71-5.11 3.38 5.17-1.66 2.21-1.9 0.03-3.81 0.03-5.71-0.07zm19.98-0.34c2.87 0.15 3.36-2.6 4.24-4.37 1.36 3.49-0.58 6.03-4.24 4.37zm9.66-0.11c3.84-1.53 11.96 0.75 11.89-4.47 2.65 7.87-7.79 4.09-11.89 4.47zm16.53-0.07c3.64-2.45 13.56 2.56 11.74-5.64 2.32 2.11 0.69 8.05-3.96 5.96-2.56-0.14-5.33 0.33-7.78-0.32zm34.27-0.01c1.8-2.99 12.37 2.61 10.52-4.76 2.1-0.03 1.29 7.6-2.91 4.99-2.54-0.03-5.09 0.06-7.61-0.23zm16.52-0.03c1.95-2.82 11.86 1.92 9.6-4.76 3.54 1.37 0.16 6.94-3.78 4.89-1.94-0.02-3.9 0.09-5.82-0.13zm-86.62-1.87c-1.8-4.3 1.92 1.26 1.51-2.78 4.8 0.84 0.62 3.21-1.51 2.78zm-28.47-4.87c-3.6-1.83 7.83-0.29 9.57-1.41 0.57-6.57 3.11 3.95-2.08 1.44-2.49 0.03-4.99 0.07-7.49-0.03zm15.55-0.19c2.54-1.94 10.72 0.36 11.07-3.68 3 6.88-7.64 2.82-11.07 3.68zm20.03-0.02c0-2.16 8.31 0.66 6.3-5.04 3.07 5.4-2.11 5.65-6.3 5.04zm31.56 0c-6.38-1.23 4.72-1.24 6.76-1.16 2.56 0.88 2.31-6.35 2.95-0.77 0.06 3.8-7.33 1.23-9.71 1.93zm-19.51-0.26c2.05-1.6 6.74-0.48 9.89-0.84 1.82 0.22 1.19-7.78 2.17-1.88 1.14 5.42-9.32 2.21-12.06 2.72zm51.09 0.09c0.72-3.04 12.07 2.24 10.48-5.04 3.96 6.47-5.62 5.37-9.87 5.1l-0.61-0.06zm18.14 0.01c-3.53-2.83 11.07 1.75 8.39-4.87 3.87 6.52-4.64 4.69-8.39 4.87zm-123.77-0.3c-0.83-5.64 2.55-0.78 0 0zm-3.09-7.21c-2.26-1.65 5.66-0.33 3.07-4.6 2.09-2.19 1.84 7.46-3.07 4.6zm10.27 0c-2.07-3.22 10.43 1.57 10.18-3.66 2.7 6.16-7.06 2.87-10.18 3.66zm106.16-0.12c-2.16 0.14-11.84-0.54-4.87-1.53 3.5 0.35 7.56 0.09 8.04-2.89 0.79 2.76 0.44 5.38-3.17 4.42zm10.45-0.12c-6.64-2.59 7.84-0.49 7.86-2.95 1.46-5.05 2.42 6.22-2.56 3-1.77 0.04-3.54 0.05-5.3-0.05zm-98.05-0.65c-4.55-2.75 5.35-4.97 0.16-2.4-1.51 2.3 4.94 1.29-0.16 2.4zm9.17-0.47c-1.36 0.3-2.44 0.31-1.35-2.67 2.01-1.07 2.17 3.81 3.76-0.37 2.56 0.99 0.15 4.39-0.8 2.85-0.34 0.79-1.28 1.34-1.61 0.19zm8.77 0.58c0.75-4.08-2.56 2.28-2.83-2-2.56 5.61-0.96-5.72 1.38 0.1 2.12-5.06 4.01 1.59 1.45 1.9zm-14.62-0.45c-2.27-5.09 6.38-2.91 1.82 0.26-0.59 0.19-1.34 0.21-1.82-0.26zm1.86-0.68c1.07-4.66-3.82 1.13 0 0zm14.73 0.53c-2.12-4.52 7.29-3.31 1.48-1.92 1.18 1.53-0.63 1.28 1.82 2.14-0.6 0.33-3.1 0.81-3.3-0.22zm4.97 0.38c-2.6-5.63 6.21-3.68 2.65-0.13-1.27-2.39-1.64 0.51-2.65 0.13zm2.36-2.48c-1.57-1.58-1.52 1.71 0 0zm3.04 2.21c-3.24-3.76 5.84-3.95 0.73-2.42-1.74 2.5 4.89 2.02-0.05 2.76l-0.68-0.34zm5.88 0.15c-0.64-6.79 6.44-0.97 3.24-0.62-1.48-2.52-2.16 1.54-3.24 0.62zm2.62-2.12c-0.13-1.77-1.92 0.85 0 0zm2.44 2.14c-0.41-3.64 0.79-4.44 1.33-0.84 3.38-0.29 0.74 1.28-1.33 0.84zm-6.77-0.25c-0.91-3.15 3.02-6.57 0 0zm-53.72-6.4c-2.04-3.77 11.33 1.93 10.31-3.77 4.89 5.61-6.09 3.49-10.31 3.77zm17.54 0.04c-6.16-1.48 4.73-1.47 6.66-1.4 2.38 0.93 2.63-5.72 2.92-0.53-0.13 3.44-7.15 1.36-9.58 1.93zm91.67-0.23c-2.24-0.74-11.7 0.75-9.42-1.41 3.73-0.46 9.64 1.4 10.09-3.02 0.14 0.93 1.01 4.87-0.67 4.43zm-77.87-0.16c1.49-3 11.35 1.65 11.25-3.95 2.55 6.87-7.79 3.16-11.25 3.95zm15.89-0.14c1.1-3.45 13.1 2.72 11.77-4.12 2.87-0.44 0.65 6.85-3.2 4.31-2.85-0.03-5.72 0.07-8.57-0.19zm34.38-0.22c1.27-3.02 10.72 1.65 10.98-2.49 0.83-5.78 3 5.48-1.91 2.79-3.02-0.1-6.1 0.27-9.07-0.3zm34.24 0.04c0.4-3.35 11.72 2.07 9.61-5.22 1.79 1.59 1.56 7.28-2.63 5.45-2.32-0.03-4.66 0.04-6.98-0.23zm-127.68-6.58c-6.78-1.1 3.61-0.75 4.99-1.6 0.92-5.92 2.64 3.92-2.15 1.66-0.95-0.01-1.9-0.04-2.84-0.06zm31.55-0.26c-7.01 0.12-0.76-1.92 2.58-1.19 3.59 2.31 4.17-4.77 4.83-0.72 0.44 3.65-5.46 1.34-7.41 1.91zm45.21-0.15c0.57-3.56 13.25 2.61 11.13-4.84 2.26-0.69 1.62 7.29-2.38 4.97-2.92-0.02-5.84-0.01-8.75-0.13zm17.2-0.09c0.37-2.24 6.31-0.63 8.95-1.08 2.84 1.3 1.42-7.21 2.72-1.22 0.66 4.64-8.89 1.65-11.67 2.3zm17.46-0.01c-1.1-3.57 11.77 2.13 9.56-4.66 2.71 1 0.77 6.81-3.23 4.73-2.11 0.01-4.23 0.1-6.33-0.07zm16.38-0.17c1.49-2.82 11.23 1.46 9.57-5.25 4.11 7.51-5.03 5.18-9.57 5.25zm-57.08-8.51c-2.82-0.91-11.84 0.98-11.26-1.16 3.68-0.23 7.37-0.1 11.06-0.16-0.43-3.76 2.08-5.35 1.36-0.31-0.06 0.73 0.14 2.44-1.16 1.63zm-74.58-0.24c1.22-2.08 9.65 0.72 9.67-3.77 2.78 6.61-6.38 3.06-9.67 3.77zm15.89 0.08c-1.6-1.91 6.14-0.85 8.6-1.15 1.84-0.01 1.46-7.49 2.33-1.15 0.14 4.65-8.16 1.41-10.93 2.3zm18.3-0.04c-7.84-1.06 4.9-1.16 7.35-1.29 0.65-6.74 3.16 4.06-2.07 1.37-1.76 0.01-3.52-0.01-5.28-0.08zm15.6 0c-7.55-1.64 6.08-0.14 7.39-1.91-0.26-5.76 2.45-1.95 1.07 1.48-2.51 1.02-5.72 0.29-8.46 0.43zm58.54 0.1c-2.71-0.64-11.57 0.85-10.58-1.2 4.52-0.48 10.88 1.41 11.3-3.91 0.25 0.8 1.28 5.62-0.72 5.11zm-28.24-0.44c1.85-2.59 13.03 2.45 11.99-4.79 4.18 7.65-7.44 4.84-11.99 4.79zm-82.03-8.36c0.66-2.77 10.95 1.27 11.55-3.62 3.95 6.91-8.27 2.44-11.55 3.62zm19.09 0.02c-5.98-1.94 7.23-0.54 8.35-1.81 0.82-6.64 2.9 5.07-2.71 1.83-1.88 0.04-3.76 0.05-5.64-0.02zm16.29-0.05c-5.62-1.61 5.94-1.05 7.76-1.38 0.47-3.38 2.09-4.64 1.63-0.23-0.21 3.29-7.15 1.03-9.39 1.61zm25.4 0.13c-2.96-0.71-11.42 0.95-11.32-1.29 3.94-0.37 9.96 1.18 10.76-3.03-0.18 1.44 1.15 3.24 0.56 4.32zm32.69-0.13c-3.56-0.92-8.6 0.96-11.39-0.98 3.72-0.54 7.52-0.22 11.28-0.35-0.26-7.23 3.5 0.47 0.11 1.33zm-28.3-0.44c2.43-2.5 11.71 1.37 12.15-3.83 3.11 7.13-8.69 3.39-12.15 3.83zm33.88 0.08c0.59-3.39 12.6 2.47 11.88-4.71 2.23 4.21-1.25 5.68-4.66 4.84-2.41-0.02-4.82-0.01-7.22-0.13zm-95.26-6.74c-2.54 0.64-8.71-1.19-2.48-1.16 3.55-0.64 9.58 1.63 10.3-2.47 4.12 6.28-4.67 2.8-7.82 3.63zm17.81 0c-2.55 0.54-7.78-1.12-2.4-1.19 4.04-0.04 8.84 1.13 9.23-3.8 2.56 6.22-2.75 5.03-6.83 4.99zm15.91 0c-2.87 0.54-7.28-1.13-1.94-1.21 4.12 0 9.07 1.08 8.72-4.37 2.48 6.69-1.41 5.85-6.78 5.58zm14.86 0.05c-3.03 0.83-5.88-2.04-1.11-1.31 2.24-0.67 6.69 1.02 7.86-0.8 0.44-6.71 3.71 4.43-1.49 2.12-1.75 0.03-3.51 0.02-5.26-0.01zm12.48-0.25c-0.14-3.39 11.85 1.99 11.49-3.35 0.9-6.29 3.18 5.91-1.55 3.55-3.31-0.04-6.63 0.01-9.94-0.2zm16.83-0.05c1.75-3 12.97 1.53 12.67-4.26 2.17 4.59-2.15 4.81-5.24 4.4-2.47-0.01-4.96 0.04-7.43-0.14zm18.02 0.04c-3.46-2.12 7.05-0.92 9.37-1.29 1.25-0.06 1.66-6.34 2.3-1.62 0.6 5.71-8.42 1.9-11.67 2.91zm-20.66-7.62c-0.14-4.69 1.13-3.95 1.35-0.96 4.23 0.16 0.42 1.92-1.35 0.96zm-80.81-0.3c2.13-2.24 9.34 0.05 12.38-1.47 0.84-5.35 2.83 4-1.55 1.72-3.58-0.09-7.31 0.38-10.83-0.25zm43.71 0.23c-2.42-2.95 3.28-5.71 3.11-3-3.39 0.15 0.7 0.99-2.06 1.97 3.51 0.18 0.87 1.67-1.05 1.03zm4.52 0.04c-1.11-2.11 4.7-0.43-0.07-2.06-0.48-3.28 6.09-0.97 1.19-0.49 4.09-0.17 1.66 3.69-1.12 2.55zm4.69-0.06c-0.77-3.59 2.11-5.12 0.85-0.55 0.19 0.44-0.57 1.07-0.85 0.55zm1.81-0.02c0.87-2.26 0.05-5.7 3.73-3.17 0.97 2.67-1.36 3.97-3.73 3.17zm2.83-1.76c-0.23-3.16-1.79 2.59 0 0zm9.44 1.84c-0.28-5.52-3.78 3.32-2.41-2.76 0.53-1.56 3.25 0.44 3.74-0.39-0.38 0.8 0.24 3.79-1.33 3.15zm6.74-0.13c-0.83-3.05 1.73-5.42 0.92-0.64-0.02 0.24-0.56 1.21-0.92 0.64zm18.31 0.14c-1.71-1.91 4.76-0.53 3.82-4.12 1.43 3.36-0.42 4.78-3.82 4.12zm-73.54-0.42c1.72-3.04 11.39 1.89 11.6-4.2 2.87 7.15-7.77 3.92-11.6 4.2zm19.85 0.1c-1.2-5.43 5.14-3.96 3.67 0.08-2.74-0.51-1.19-1.95-3.67-0.08zm2.44-2.53c-0.76-0.98-1.19 1.04 0 0zm18.84 2.44c-2.05-3.07 3.88-4.98 3.34-2.57-1.7-0.75-1.74 1.99-1.33 1.85 3.45 0.19-1.39 1.8-2.01 0.72zm10.13 0.15c-0.82-2.71 0.16-5.13 2.86-2.93-2.48-0.42-0.93 3.62-2.86 2.93zm9.07-0.05c-0.8-2.68-4.7 2.3-2.18-2.43 2.26-5.09 4.3 3 2.18 2.43zm-0.65-2.39c-0.52-0.73-0.52 0.73 0 0zm23.63 2.43c-2.92-1.96 6.45-1.05 8.32-1.36 2.14 1.28 2.21-5.96 2.98-1.17 0.72 4.84-8.48 1.55-11.3 2.53zm-102.17-7.11c1.95-3.31 12.1 1.99 13.39-3.38 2.47 6.53-9.59 2.49-13.39 3.38zm60.17 0.21c-2.48-0.62-10.87 1.13-9.92-1.28 4.7-0.8 12.76 2.44 11.42-5.09 1.01 0.18 2.34 8.18-1.5 6.37zm-38.81-0.16c-7.89-1.03 5.01-1.42 7.46-1.26 0.58-2.79 2.32-5.73 1.9-0.56 0.09 3.9-7.11 0.93-9.36 1.82zm17.1-0.05c-2.75 0.52-7.07-1.03-1.78-1.21 5.01 0.42 9.56 0.44 9.82-4.61 0.62 3.69 1.52 7.49-3.69 5.93-1.45-0.03-2.9-0.07-4.35-0.11zm27.45 0.06c0.52-4.45 13.02 2.35 12.43-4.04 2.25-3.22 1.69 7.37-2.86 3.98-3.19-0.02-6.39 0.05-9.57 0.06zm18.35-0.28c-1.45-2.33 6.41-0.83 8.94-1.27 3.46 1.84 2.03-7.49 3.45-1.29 0.93 5.14-9.58 1.6-12.39 2.56zm27.5 0.1c-3.58-0.63-9.05 0.87-11.49-0.99 3.88-0.6 7.84-0.19 11.75-0.3-0.47-3.77 1.85-5.62 1.43-0.54 0.38 1.49-0.24 2.16-1.69 1.83zm-6.23 162.66c-1.01-1.47-1.06 2.25 0 0zm-116.19-9.05c-1.33-3.26-2.97 1.3 0 0zm1.07-1.93c5.03-5.26-4.72-7.1-8.15-9.78-11.23-6.04-23.32-10.44-35.86-12.77-7.07-1.35-14.2-2.66-21.36-3.19-9.78 0.2-19.65-0.25-29.37 0.64 3.33 1.98 11.04 0.4 16.03 0.95 10.24-0.2 20.28 2.4 30.26 4.38 16 3.4 30.89 10.55 44.64 19.23 1.44-0.94 2.65 1.29 3.81 0.54zm66.49-3.12c-3.8-3.53-9.68-5.62-14.2-8.64-10.44-5.79-20.71-11.98-31.28-17.45 1.25 3.41 8.15 5.06 11.58 7.75 10.95 6.24 22 12.39 32.99 18.56l0.61 0.08 0.3-0.3zm-64.41-1.38c1.77-3.52-1.95-0.69 0 0zm-1.22-2.74c2.2 1.53 5.46-1.96 1.61-2.51-2.09-4.3-9.29-4.79-13.4-7.27-12.96-5.11-26.86-8.21-40.76-8.31 16.43 2.62 32.49 7.76 47.01 15.99 1.66 0.26 4.11 3.3 5.54 2.1zm4.32-3.18c-1.36-2.5-1.17 3.12 0 0zm66-0.77c-6.88-4.89-14.78-8.49-22.04-12.91-7.77-4.33-15.35-9.04-23.32-12.99 2.33 3.77 9.29 5.61 13.36 8.65 10.37 6.02 20.95 11.64 31.28 17.7 0.29 0.05 0.71-0.09 0.72-0.45zm26.51-0.76c2.67-2.27 10.28-4.29 10.51-6.84-3.52 2.16-10.12 4.48-11.5 7.32l0.99-0.48zm-91.36-0.57c3.57-5.35 5.51-11.68 10.17-16.19-2.03-4.45-8.27-4.47-13.4-5.02-13.03-0.54-26.24-0.22-38.95 2.81-8.32 0.15-16.25 3.29-24.6 2.8-11.23 0.29-22.54-0.07-33.72 0.65 5.34 1.94 14.16 0.09 20.71 0.62 10.87-0.25 21.74-0.24 32.56 0.87 15.48 1.64 30.18 7.53 44.29 13.62 0.99-0.79 2.25 1.31 2.94-0.16zm76.57-12.68c-1.94-4.7-5.22-12.27-9.57-15.07 2.42 4.58 5.35 12.35 9.57 15.07zm10.72-1.54c-2.1-4.54-5.01-10.3-8.43-14.06 0.34 3.6 5.06 11.22 8.43 14.06zm-10.48-4.2c-1.07-2.33-5.43-11.31-6.08-8.33 2.09 3.01 4.52 9.24 6.77 10.4l-0.18-0.81-0.51-1.26zm-148.13 1.66c3.23-0.15 13.11 0.3 11.91-1.26-13.35 0.25-26.71 0.18-40.07 0.47 2.99 2.44 11.85 0.29 16.99 0.92 3.73-0.04 7.45-0.09 11.17-0.13zm82.78-1.3c0.19-3.47-5.19 0.72 0 0zm-93.13-0.92c8.46-0.37 17.35 0.99 25.24-2.86 6.89-3.13 13.49-6.86 20.73-9.21 18.9-7.45 39.06-11.42 59.21-13.62 4.66-0.78 13.28 0.24 15.44-0.91-10.84-3.39-17.5-13.54-23.14-22.76-7.37-13.31-13.31-27.52-15.69-42.61-0.36-1.99-1.94-10.34-2.1-3.68-2.29 20.95-9.51 41.76-22.49 58.53-15.39 19.47-38.67 32.28-63.1 35.99-3.3 0.7-8.83 0.08-10.88 1.05 5.58 0.51 11.19 0 16.78 0.08zm25.98-1.23c6.35-2.95-4.02 0.02-2.49 0.91 0.89-0.12 1.7-0.52 2.49-0.91zm9.94 0.61c9.92-0.68 19.66-3.28 29.68-2.97 8.19-0.12 16.56-0.3 24.51 1.98 3.03 0.54 5.27 1.43 6.12-3.2-1.5-3.89-6.61-3.93-11.51-3.49-18.32 0.38-36.53 3.3-54.29 7.59 1.67 0.55 3.72 0 5.49 0.09zm-1.08-2.45c19.47-3.84 39.21-6.94 59.11-6.56 2.45-2.16 5.71 3.34 7.31-1.5 5.21-3.22 12.07-2.64 17.86-1.33 6.29 0.41 12.51-0.04 18.78 0.16 2.84-0.07 11.54 0.3 6.43-4.1-2.22-8.34-11.11-5.54-17.45-5.98-23.34-1.49-46.65 3.21-68.94 9.76-8.38 2.71-16.76 5.62-24.68 9.46-0.53 0.99 1.58-0.23 1.58 0.09zm93.32-1c-2.55-1.09-6.29-5.66-3.59-1.54 1.16 0.49 2.38 1.6 3.59 1.54zm-30.25-3.04c-0.96-3.79-5.14 0.28 0 0zm49.64-5.4c-0.29-1.51-1.9 0.96 0 0zm11-0.84c-1.76-1.36-0.67 1.15 0 0zm93.74-12.8c2.5-5.68-6.37-3.97-2.61 0.08 0.86 0.03 1.76 0.15 2.61-0.08zm15.81-3.27c0.04-3.27-0.86-5.11 0.49-7.09-2.5-3.6 4.94-8.34 0.62-12.6-0.82-6.3 2.68-12.55 5.85-17.81 2.43-6.44 4.9-13.43 2.95-20.47 3.52-4.8-1.63-12.68 5.92-13.53-5.37-0.22-10.87 0.36-16.05 1.81 2.56 0.65 9.05 4.26 6.62 9.65-2.43 8.39-0.34 18.3-6.01 25.63-5.49 4.15-3.52 11.05-3.93 16.88-0.19 5.84-0.05 12.03 1.21 17.58l1.15 0.1 1.18-0.15zm8.1-3.97c-1.46-0.84 0.09 0.83 0 0zm-178.32-40.66c-1.34-1.8-1.76 2.09 0 0zm16.59-7.05c-0.4-1.45-2.49 0.95 0 0zm122.13-0.39c3.99 0.53-3.05-12.01-2.05-4.54 0.61 2.13-2.13 6.91 2.05 4.54zm-2.53-14.26c2.2-5.65 1.79-12.24-6.12-9.11 1.55 3.29 3.82 8.83 5.87 10.31l0.25-1.2zm-199.8-3.2c4.61-2.15 0.69-11.29 1.9-16.22-0.78-4.98 2.85-15.14-5.87-12.47-6.77 0.08-13.54-0.06-20.3 0.2-0.51 3.74-0.71 13.37 0.19 13.87-0.14-3.41 2.29-0.49 3.14-1.66-0.92 5.93 3.67-4.97 3.54 1.4 0.12 4.71-1.37-2.2-2.98 1.83-2.24 0.28-1.67-2.48-3.75-0.14-1.02 2.61-0.22 7.29-0.41 10.77-1.07 3.33 2.37 2.16 4.45 2.35 6.7 0.02 13.39 0.22 20.09 0.07zm-23.8-6.23c-1.57-3.78 4.39-3.54 0.65-1.11 2.2 0.19 4.97-3.64 7.76-1.71 2.01-1.38 0.35 4.49 1.82-0.24 3.57-1.49 7.52 0.4 3.38 2.88 0.87-4.02-3.61-1.6-1.91 0.15-3.48 0.63-6.72 0.94-6.3-2.53-2.78-0.25 1.6 4.48-3.06 2.41-0.71 0.37-1.6 0.81-2.34 0.15zm20.93 0.22c-1.86-0.22-1.85-1.35-2.19-2.83-0.3 1.89-2.56 4.49-2.64 0.71-0.26-3.06 9.81-1.53 8.71-0.15-1.01 5.51-2.78-3.41-3.18 1.35 0.55 0.53-0.01 1.38-0.7 0.92zm-1.25-7.12c-3.09 1.62-1.69-6.71 1.52-2.74-1.36 2.29 3.46 2.43 0.76-0.2 3.83-3.12 2.34 6.31-2.28 2.94zm0.39-2.4c-0.98-0.44-0.37 0.67 0 0zm-10.65 2.36c-1.94 0.49-2.86-1.93-1.66-3.75 3.77-1.66 3.2 4.73 1.66 3.75zm0-2.25c-0.73-0.21-0.23-0.12 0 0zm1.76 2.38c-1.91-6.41 6.48-2.87 1.54 0.17l-0.91 0.08-0.63-0.25zm1.59-1.17c-0.86-0.36-0.43 0.95 0 0zm2.25 0.6c-1.1-6.39 5.96-0.33 0.41 0.47l-0.41-0.47zm1.43-0.76c0.53-3.04-1.93 1.25 0 0zm-2.39-5.87c-2.3-6.02 6.01-2.53 0.72 0.17l-0.72-0.17zm1.48-1.96c-1.73-1.32-0.48 2.51 0 0zm-10.08 1.6c-1.43-2.69-0.39-5.13 1.96-2.83-1.98-0.22 0.01 3.63-1.96 2.83zm3.27-0.16c-1.76-5.3 2.4-0.86 4.41-3.28-0.44 4.46-2.43 2.54-4.41 3.28zm30.1 13.87c0.31-7.15-0.11-14.61-0.18-21.88-5.41 0.03-14.41-2.12-11.72 6.42 1.3 4.58-2.43 14.02 1.91 15.79 3.32-0.08 6.71 0.25 9.99-0.33zm189.87-3.65c-2.4-5.45-6.06 4.61-0.06 0.86l0.06-0.86zm-78.34-20.2c10.28-0.32 20.6 0.26 30.86-0.34 4.2-0.88 12.05-1.1 13.46-4.52-6.13 0.29-12.93 3.42-19.63 2.75-21.97-0.64-44.01 0.01-66-0.09-13.14 0.14-26.29-0.07-39.42 0.35 0.68 4.56 10.27 0.75 14.22 2.06 22.17 0.01 44.34-0.03 66.51-0.21zm-146.38 282.75c3.08-2.77 10.65-4.28 13.45-5.44-3.99 2.47-9.81 4.11-13.45 5.44zm-21.25-0.23c1.37-1.6 0.3 0.21 0 0zm-61.49-1.19c0.349-1.57 0.626 1.78 0 0zm64.85-0.31c-6.13-0.22 4.84-1.07 0 0zm259.6-1.02c-2.31-4.54 6.41-2.56 1.43 0.03l-1.43-0.03zm1.89-0.66c1.59-3.03-2.75 0.11 0 0zm11.02 0.23c-3.18 0.71-2.72-2.12 0.19-2.23 0.34 0.12 1.19 3.46-0.19 2.23zm-8.8-0.17c1.81-5.74 5.25 2.3 0 0zm13.66 0.15c-2.36-4.78 6.28-0.95 0 0zm1.24-0.72c0.66-2.4-2.56 1.05 0 0zm1.84 0.71c-0.04-6.28 5.79 0.88 0 0zm1.22-0.6c-0.5-0.72-0.24 0.74 0 0zm14.64 0.66c0.65-6.04 5.94 0.08 0 0zm2.1-1.49c-1.88-1.22-1.05 2.81 0 0zm6.61 1.46c-1.68 0.42-0.43-4.97 1.56-1.77-0.58 0.6-0.45 2.11-1.56 1.77zm7.27-0.12c0.15-2.55-4.47 1.37-1.78-2.13 2.3 0.03 3.43-0.07 1.78 2.13zm-44.32-0.5c-1.43-4.29 3.62 0.63 0 0zm16.3-0.12c0.34-4.58 2.23 1.46 0 0zm1.56 0.51c2.22-5.8 4.63 1.77 0 0zm3.05-0.15c0.95-4.54 1.98 0.81 0 0zm1.54 0.19c0.64-4.44 3.23 1.02 5.06-2.56 0.85 0.56-1.47 4.55-4.05 2.02-0.36 0.06-0.58 0.72-1.01 0.54zm10.69-0.07c-0.47-4.66 5.58-1.96 0 0zm5.91-0.11c0.57-5.75 4.57 1.55 0 0zm1.65-0.68c-0.62-2.43-1.8 1.73 0 0zm-304.2 0.47c2.62-2.72 8.17-3.4 2.12-0.84l-1.28 0.66-0.84 0.18zm312.76-0.61c-0.74-1.4 3.71 0.42 0 0zm-378.54-0.32c-3.555-1.36-4.604-4.04-0.468-0.75-0.028-0.48 1.308 1.56 0.468 0.75zm263.4-1.81c-0.47-2.71-6.9-9.18-3.45-10.23 2.54 4.32 4.41 11.49 10.06 5.78 7.39-1.61-5.38 5.87-6.61 4.45zm229.74-0.4c0.4-3.17-0.18-7.7 4.63-4.54 1.53 3.5-1.18 6.38-4.63 4.54zm3.15-0.97c3.68-4.8-5-3.57 0 0zm18.99 1.01c-4.87-2.35 3.2-8.79 3.01-4.33-4.78-0.95-2.65 6.59 0.29 1.91 1.13 1.66-1.84 3.75-3.3 2.42zm18.58 0.13c-1.55-2.72 1.25-9.3 1.04-2.84-0.05 0.44 0.36 3.98-1.04 2.84zm-45.05-1.24c-2.22-4.02-2.72 4.3-3.08-1.32-0.86-7.72 5.61 5.11 4.83-2.43 1.8-1.03 1.49 8.7-1.75 3.75zm15.84 0.8c-2.29-2.47-1.81-8.25 0.18-2.28 0.84 2.21 4.55-6.56 3.21-0.88-0.7 0.81-1.87 5.01-3.39 3.16zm24.31-0.44c-2.19-2.92-2.39-1.41-3.24 0.76-2.49-4.09 0.85-7.69 3.78-2.24 0.06-3.35 2.32-4.59 1.9-0.32 0.28 1.65-0.67 4.11-2.44 1.8zm18.56 0.81c0.1-2.56-4.2-8.36 0.55-4.11 5.35-4.52 1.26 1.96 0.04 4.27l-0.59-0.16zm4.63-0.09c-0.62-4.77 4.4 0.83 0 0zm-73.55-0.22c-0.51-4.31 5.08-7.84 5.37-1.53 0.8 3.74-3.05-1.94-5.37 1.53zm3.55-2.84c-0.2-3.33-2.79 1.48 0 0zm39.65 2.64c-1.08-3.43 1.44-7.79 1.17-1.8 0.14 0.69-0.09 3.33-1.17 1.8zm17.73 0.16c1.58-3.57-5.49-5.98 0.49-5.63 6.16-0.13-1.18 1.63 0.45 5.25 0 0.46-0.67 0.77-0.94 0.38zm-466.64-1.13c2.71-2.66 9-1.43 10.8-6.21 4.04 0.19 9.11-1.62 11.41-5.18 3.66 0.14 2.93 1.37-0.13 0.63-3.83 5.86-11.68 4.41-16.38 9.16-1.35-0.41-8.59 4.91-5.7 1.6zm437.53 0.88c-1.11-2.89 1.4-8.18 1.05-2.09-0.06 0.41 0.26 3.41-1.05 2.09zm-413.71-0.75c1.01-0.88 0.42 0.44 0 0zm2.53-1.65c2.77-0.08 11.42-5.59 11.64-5.38-3.13 2.15-7.71 5.62-11.64 5.38zm178.32-3.73c-2.52-4.24-3.59-17.37 4.29-12.66 2.05 1.1 10.21 9.29 3.87 5.7-3.3-2.57-9.07 2.19-6.96 6.32-0.13 0.45-0.74 0.93-1.2 0.64zm1.97-7.75c6.92-3.18-5.16-6.52-1.61 0.46l0.6-0.03 1.01-0.43zm-269.27 5.55c-2.848 1.18-9.478-5.25-3.648-2.52 4.623 3.98 12.711-3.59 4.788-5.39-4.632-2.24 8.092-1.87 2.726-6.25-1.963-1.8-10.776 2.24-5.787-1.66 5.565-2.97 11.047 2.94 7.423 7.61 3.919 4.11-1.153 8.51-5.502 8.21zm534.79-1.31c-3.69-3.39 2.53-5.42 1.07-0.98 0.34 0.45-0.61 1.66-1.07 0.98zm-431.09-0.92c1.15-1.86 2.45 0.59 0 0zm389.9-1.42c-1.66-4.26-3.82-1.9-4.95-0.01-0.21-3.63-3.06-9.08 3.17-7.31 6.18-0.41 0.19 5.41 3.47 8.07-0.62 0.45-1.49-0.1-1.69-0.75zm-0.4-4.6c0.73-3.27-6.69 1.01-0.62 0.2l0.62-0.2zm-387.36 5.16c5.01-2.47 8.2-6.94 12.75-9.45 0.16-2.24 6.12-9.23 5.49-6.79-4.22 2.64-3.88 9.1-9.45 9.96-1.08 3.41-5.82 5.09-8.79 6.28zm354.48-0.01c-6.61-2.17 0.78-12.6 4.28-5.83 0.59 2.99-0.23 6.97-4.28 5.83zm2.02-2.12c3.1-4.1-3.99-5.99-2.3-0.52 0.18 1.05 1.67 0.69 2.3 0.52zm23.54 2.15c-1.1-5.36-6.02-2.91-7.48-0.88-1.19-7.25 7.51-9.95 7.94-1.52 0.52 0.45 0.81 2.61-0.46 2.4zm-2.4-5.14c-0.82-3.24-4.15 2.03 0 0zm43.15 5.12c-4.38-2.37-0.49-3.61 2.21-2.1 1.3-1.66-7.36-2.12-2.4-5.32 2.56-2.55 6.69 3.18 1.9 1.18-2.76 0.66 6.81 4.11-0.01 6.07l-1.09 0.16-0.61 0.01zm33.47 0c-1.85-2.61-5.6-7.83-4.86-1.31-2.86 4.56-2.36-12.52 2.41-4.52 2.48 6.53 2.44-6.23 3.57 0.13-0.46 1.31 1.07 6.06-1.12 5.7zm-49.54-0.11c-7.39 0.4-2.58-12.85 2.82-6.32 1.27 2.29 0.49 6.53-2.82 6.32zm1.08-2.74c2.4-6.63-7.38-1.21-1.36 0.97l0.76-0.2 0.6-0.77zm9.36 2.21c-2.34-4.01-4.08-1.68-5.19 0.18-1.1-4.35-1.58-9.58 4.6-7.44 3.95 1.75-0.31 5.35 2.21 7.54-0.39 0.57-1.36 0.35-1.62-0.28zm-0.48-4.52c-0.09-3.19-6.05 0.63-1.24 0.23l1.24-0.23zm17.99 4.83c-1.8-3.28 0.73-11.64 3.35-4.69 1.23 4.5 4.71-7.07 5.71-0.67 1.03 2.94-1.8 8.88-1.79 2.42-0.92-0.83-3.4 6.25-4.44 1.17-2.13-5.72-0.57 2.09-2.83 1.77zm11.92 0.15c-1.94-2.86 0.97-11.77 1.16-4.01-0.38 1 0.83 4.32-1.16 4.01zm-110.53-0.3c0.09-3.48-0.7-5.72-3.24-6.8 2.56-1.35 11.65 0.26 4.6 1.39-0.94 1.38 0.91 5.53-1.36 5.41zm36.24 0.05c-0.33-4.18-5.23-1.99-6.21-0.15-1.53-3.26 1.25-11.95 1.58-4.13 4.45 3.74 4.6-7.67 5.69-1.17-0.41 1.19 0.88 5.56-1.06 5.45zm21.43-0.3c0-3.81-1.41-9.06 4.44-7.15 5.62 1.2 1.44 11.52-4.44 7.15zm5.11-1.4c-0.27-3.11-6.11 1.05-0.6 0.14l0.6-0.14zm0.03-3.1c-0.83-3.12-5.85 1.09-0.53 0.19l0.53-0.19zm65.68 4.74c-2-3.29-4.07-5.34-4.16-0.17-2.77-0.37-0.95-11.89 2.5-4.96 2.1 4.35 1.73-6.5 3.1-0.3-0.45 1.2 1.03 6.39-1.44 5.43zm5.55 0.1c-2.95-2.98 5.42-0.39 0 0zm-126.56-1.99c-1.8-2.01-2.36-8.82 0.18-3.6 1.57 5.59 3.1-6.57 4.73 0.79 0.68 4.52 4.9-6.71 3.82-0.41-0.83 2.84-3.81 7.87-4.91 2.09-1.58-0.6-2.59 6.12-3.82 1.13zm-358.9 1.26c2.78-2.59 1.51-0.08 0 0zm2.04-1.39c4.43-2.3 6.1-5.05 11.15-5.23 7.59-2.81-4.26 2.32-5.72 2.82-0.66 1.41-4.8 2.77-5.43 2.41zm194.58-3.33c-0.99-2.63-7.04-7.81-4.15-9.63 1.33 2.98 3.73 5.37 3.99 0.35-0.36-2.95 4.01-8.33 2.56-2.14-4.7 5.12 11 4.88 5.5 7.15-4.02-2.92-10.72-2.01-6.34 3.7 0.22 0.74-1.24 1.69-1.56 0.57zm-179.7-4.61c4.46-1.46 7.48-5.3 9.87-8.74-0.64-3.17 5.28-7.82 1.48-2.41-1.25 5.52-5.6 9.92-11.24 11.33l-0.11-0.18zm341.77-3.58c-0.2-2.48 2.38-6.2 3.67-2.31 0.43 2.36-1.89 2.81-3.67 2.31zm2.52-0.77c2.04-4.58-3.18-0.62 0 0zm53.99 0.42c-0.95-1.29 5.01-0.12 0.88-1.4-2.04-3.01 5.28-2 0.73-0.79 4.09-0.08 0.52 4.52-1.61 2.19zm4.73 0.13c-0.68-6.2 6.78-1.98 3.24-0.47-0.81-2.65-2.24 1-3.24 0.47zm2.77-2.17c0.37-1.78-2.11 0.78 0 0zm5.22 1.74c-1.36-4.57-3.08 4.08-2.61-2.07 0.38-2.5 3.03 1.34 3.82-0.89 0.29 0.52 0.09 4.87-1.21 2.96zm7.63 0.49c-0.88-2.92-2.21-4.88 2.41-3.56-1.61 0.42-1.1 3.3-2.41 3.56zm26.68 0.04c-0.59-1.65 1.63-0.12 0 0zm-98.49-0.37c-0.31-6.93 2.66 0.25 0 0zm3.01-0.3c-1.58-5.23 1.23 0.64 2.57-3.02 1.07 0.44-2.08 4.8-2.57 3.02zm4.02 0.2c-0.72-6.37 3.71-1.48 0 0zm3.27 0.22c-0.05-1.02 3.23-0.65 0.03-2.27 2.35-4.5 4.08 4-0.03 2.27zm7.52-0.33c-1.86-5.82 6.67-1.22 1.21 0.54l-0.68-0.13-0.53-0.41zm1.73-0.75c0.51-2.85-2.36 0.66 0 0zm2.77 1.05c-1.3-5.61 7.22-2.22 2.87-0.07-0.8-3.67-1.93-0.48-2.87 0.07zm45.06-0.1c-0.77-6.52 3.18-2.35 0 0zm7.93 0.04c-0.31-4.89 6.15-3.48 3.59 0.18-1.22-3.4-2.37 0.64-3.59-0.18zm2.72-2.22c-0.59-1.26-0.97 1.35 0 0zm10.39 2.2c-2.12-8.27 8.29-0.44 0 0zm1.82-1.12c2.08-4.5-3.93 1.4 0 0zm6.07 1.17c-1.46-2.84-2.42-2.41-3.36-0.12-0.25-3.29 1.19-3.74 3.28-2.24 1.57-4.54 1.79 2.84 0.08 2.36zm-81.49-0.26c-0.46-6.8 3.67-1.26 0 0zm21.68-0.11c-2.75-7.6 8.27 0.44 0 0zm2.12-0.91c0.99-3.98-4.22 1.77 0 0zm1.8 0.92c-2.28-5.15 7.19-2.49 1.38-2.36 4.23 0.93-0.94 2.25-1.38 2.36zm41.68 0.25c-0.13-2.85-1.77-4.78 2.34-3.22-2.22-0.13-0.92 3.4-2.34 3.22zm3.57-0.05c-0.31-6.12 2.66-1.76 0 0zm-237.39-1.87c-4.47-4.43-7.89-10.82 0.09-13.51 6.98-1.85-4.68 3.91-3.08 6.25 1.05 2.85 7.38-3.45 3.67 1.71-3.71 3.32 3.26 4.86 4.67 0.84 8.29-4.51-3.99 7.07-5.35 4.71zm148.22-5.64c-3-2.05 5.79-0.83-0.37-2.5-0.38-3.15 4.41-1.63 2.28-0.54 2.81 0.5 0.01 4.32-1.91 3.04zm5.53-0.11c1.59-3.28-4.29-4.71 1.59-4.32 3.79 0.12-1.93 2.14-1.18 4.63l-0.41-0.31zm3.25 0.01c-0.21-6.53 6.85-4.11 3.99-0.15-1.45-3.98-2.76 0.75-3.99 0.15zm3.31-2.64c-0.25-2.18-2.42 1.57 0 0zm17.47 2.71c-2.29-3.04 2.56-7.52 4.42-3.31 0.39 2.71-2.17 3.8-4.42 3.31zm2.77-1.1c0.81-1.96-3.83 0.25 0 0zm-0.02-1.88c1.04-2.38-4.16 0.13 0 0zm17.9 2.88c-0.6-2.93 0.23-7 4.21-4.04 2.05 3.22-1.7 4.9-4.21 4.04zm3.53-1.4c1.08-6.75-5.75 1.89 0 0zm5.48 1.61c-4.29-4.63 5.31-7.6 2.59-0.95-0.62 0.73-1.63 1.19-2.59 0.95zm1.85-1.64c1.23-6.2-4.15 1.69 0 0zm-44.76 1.34c0.56-3.29-3.87-5 1.93-4.36 2.35-0.37-2.48 3.68-1.93 4.36zm4.27-0.11c-1.75-2.85 2.24-6.24 3.75-3.49-2.34 0.22-2.69 0.32-1.62 1.63-3.2 0.89 4.92 1.79 0.06 2.09l-1.08 0.01-1.11-0.24zm14.8-0.14c-3.47-5.41 6.38-4.76 2.02 0.19-0.6 0.52-1.5 0.32-2.02-0.19zm1.62-0.85c2.11-4.49-3.61 0.21 0 0zm2.08 0.98c-0.91-6.38 7.07-3.85 3.7-0.13-1.5-2.72-2.18-1.2-3.7 0.13zm2.91-3c-1.01-1.24-1.01 1.23 0 0zm2.82 2.84c-1.34-3.74 1.59-6.26 4.49-3.16-0.78 2.5-0.01 4.37-3.17 2.21-0.17 0.2-1.01 1.95-1.32 0.95zm3.17-2.84c-1.89-2.19-3.2 2.37 0 0zm26.4 2.97c-0.68-4.24-5.23 2.92-3.17-3.11 0.16-3.38 3.1 4.02 3.74-1.47 1.45-0.88 0.72 5.49-0.57 4.58zm2.57-0.13c-2.82-3.15 4.3-6.82 3.46-3.55-4.7-0.29 0.97 1.28-2.41 2.62 4.21-0.15 1.31 2-1.05 0.93zm11.24 0.14c-1.84-2.08 1.48-7.61 0.7-1.87 1.48 1.19 5.29 1.38-0.7 1.87zm-25.09-0.55c-1.27-2.94 2.71-6.17 4.1-3.55-2.81 0.06-3.33 1.01-0.5 1.7-1.62-0.39-2.55 3.23-3.6 1.85zm38.67 0.19c-0.34-4.68-5.59 3.22-3.77-2.51-0.15-3.99 3.49 2.55 4.62-2.21 0.8-0.09 0.53 6.32-0.85 4.72zm-15.93-0.13c-2.8-1.58-5.69 1.14-2.75-3.92 2.33-2.54 4.68 3.65 2.75 3.92zm-0.88-2.8c-0.66-2.31-2.28 1.71 0 0zm8.81 2.77c1.92-2.99-4.37-4.44 0.7-4.37 4.3-0.43-1.23 2.19-0.14 4.6l-0.56-0.23zm11.93-0.07c-0.43-2.39 2.63 0.14 0 0zm-426.47-0.49c1.07-5.53 6.87-9.96 4.87-16.39 0.83-2.94 2.92-10.49 3.16-10.33-1.26 6.43-2.35 12.77-3.35 19.11-0.96 2.43-4.48 6.17-4.68 7.61zm130.39-1.03c1.09-1.51 0.56-6.43 3.23-2.41 0.41 1.11-2.8 3.46-3.23 2.41zm-32.06-0.12c-1.08-2.93 7.58-2 9.9-4.09 3.8-0.61 9.64-4.97 12.45-3.59-5.83 2.49-12.13 4.04-17.74 6.96-1.06 1.16-3.19 0.59-4.61 0.72zm35.86-2.02c-2.11-4.48 2.53-0.68 0 0zm1.19-1.38c-0.01-3.78 7.31-5.44 9.96-7.48 0.08 4.23-1.31 0.82-3.58 3.06 2.58 0.68 0.24 2.77-1.53 1.12 1.06 3.81-2.8 0.9-2.96 3.13-0.88-0.53-1.43 2.04-1.89 0.17zm-142.58-3.33c2.02-2.65 3.9-4.82 1.41-0.55-0.25 0.03-1.07 1.27-1.41 0.55zm153.73-3.61c-1.76-4.18 2.9 2.5 0 0zm1.81-0.76c-2.23-3.88 4.9-1.65 0.73 0.47l-0.73-0.47zm1.13-0.82c-1.32-1.48-0.24 1.39 0 0zm-171.15-0.06c-0.15-4.28-3.22-4.98-6.67-4.44-3.1-1.54-7.14 8.86-5.18 1.64 2.48-3.18 3.65-12.45 7.07-11.68 0.23 3.51 9.2 13.56 4.78 14.48zm-3.38-6.74c-0.73-5.67-4.34-5.2-4.51 0.3 1.48 0.22 3.07 0.12 4.51-0.3zm175.96 5.65c-1.97-3.16 4.59-3.08 1.83-0.57-1.3-0.88-0.77 2.04-1.83 0.57zm49.61 0.1c-3.52-2.48 10.65-6 2.78-7.87-2.2 5.61-11.96 3.3-8.02-2.51 1.52-2.08 7.46-6.53 7.63-2.36-3.52-0.5-8.68 7.2-2.87 4.87 5.02-7.81 12.95 2.41 4.94 5.68-1.27 0.98-2.65 2.75-4.46 2.19zm-44.84-3.22c-2.01-6.04 5.61-0.84 0 0zm1.11-1.35c-0.46-1.23-0.69 1.73 0 0zm-159.31-0.07c-0.44-2.56 4.84-7.3 1.29-1.99-1.02 0.72-1.02 5.76-1.29 1.99zm144.31 0.54c1.96-3.91 7.96-3.76 11.23-7.42 1.8-1.35 10.54-7.96 5.32-2.63-3.69 3.4-8.93 5.34-12.13 8.97-1.24 0.66-3.02 1.36-4.42 1.08zm-64.22-0.71c0.08-4.77-7.13-3.47-7.52 0.05-1.33-2.22 1.74-11.76 6.73-7.48 0.22 0.91 3.72 9.24 0.79 7.43zm-1.71-5.17c-1.73-4.18-5.95 2.26-0.25 0.69 0.6 0.24 0.16-0.46 0.25-0.69zm7.5 5.39c2.41-3.16-7.06-8.36-1.9-7.55 1.24 4.97 8.35-4.07 5.83 1.45-3.7 0.75-1.82 5.92-3.93 6.1zm-22.43-0.51c-1.1-4.82 0.69-11.18 6.35-6.56 0.56 5.58 0.46 8.39-6.35 6.56zm4.79-1.43c-0.81-3.81-5.94 1.92 0 0zm-0.07-3.2c0.83-4.88-6.8 1.32-0.55 0.44l0.55-0.44zm92.3 3.75c-1.21-3.45 3.1-1.71 0.69 0.75l-0.69-0.75zm3.21-2.04c-0.87-3.06 1.86-3.71 0.89-0.48 2.6-1.68 0.4 2.22-0.89 0.48zm147.68-0.79c-2.55-4.1 5.94-1.85 0.69 0.21l-0.69-0.21zm1.37-0.79c0.39-2.21-2.46 0.84 0 0zm3.45 0.61c-0.56-1.68-3.12 1.19-1.2-2.44 1.3 0.99 4.5-0.2 1.2 2.44zm21.87 0.2c-3.87-2.27 4.07-4.56 0.48-0.94 2.28 0.34 1.31 1.27-0.48 0.94zm15.88 0.01c0.16-3.38-4.7 1.61-3.25-2.85 3.25-0.6 6.56 0.55 4.21 3.03l-0.96-0.18zm-1.56-2.26c-1.24-0.32 0.29 1.45 0 0zm6.27 2.01c-4.55-0.21 2.49-5.74 0.78 0.29l-0.23 0.13-0.55-0.42zm3.85 0.13c-2.46-5.36 7.16-1.01 0 0zm1.66-0.96c0.36-2.25-2.58 1.05 0 0zm1.62 0.96c-0.88-4.61 5.67-2.02 1.33 0.26l-0.85 0.05-0.48-0.31zm2.13-1.38c-0.58-2.46-1.71 1.95 0 0zm-48.68 1.1c0.58-5.06 5.56 0.75 2.28-0.33-0.54-1.02-1.91 1.33-2.28 0.33zm8.87 0.14c-1.34-6.53 6.55 0.57 0 0zm1.62-0.87c-0.46-2.39-1.95 1.29 0 0zm-3.38 0.39c-1.79-6.53 3.5 1.8 0 0zm8.05 0.39c-3.17-3.67 5.52-2.94 0.45 0.1l-0.45-0.1zm6.06-0.42c1.71-5.34 4.82 2.07 0.86 0.09 0.18 0.29-1.97 0.82-0.86-0.09zm4.1 0.17c-1.47-4.6 5.58-0.85 1.74 0.08-0.51-0.8-1.41 1.04-1.74-0.08zm16.03 0.13c0.21-4.44 2.31 0.13 0 0zm8.82-0.1c1.54-1.71 1 1.6 0 0zm-203.25-0.93c-1.43-3.35 2.65 1.96 0.96-2.71 2.02-0.21 0.79 4.77-0.96 2.71zm3.2-1.71c-3.7-2.99 3.29-4.27 1.23-1.35-1.37-0.3-0.42 1.17-1.23 1.35zm46.08-0.62c-2.11-1.16-10.57-9.64-4.41-7.69 1.76 4.04 9.06 8.61 8.75 1.2 0.15-2.13-8.44-9.21-2.64-6.58 6.06 3.57 7.59 13.56-1.7 13.07zm-206.92-1.3c-1.61-4.27 3.1-3.43 3.23-2.64 2.64-3.41 3.17 2.84-0.45 1.92-0.78 0.49-1.85 0.9-2.78 0.72zm1.64-1.17c-0.79-0.74-0.79 0.74 0 0zm161.51 0.31c-3.32-3.55 5.1-2.39 0.68-0.06l-0.26 0.54-0.42-0.48zm-156.43-0.46c-2-1.89 1.98-4.38 1.14-0.87 0.93-0.8 2.82-4.01 3.62-0.63 0.47-4.42 5.43-0.17 0.76 0.34-2.05 0.01-3.37 1.08-5.52 1.16zm294.56-0.27c0.6-2.56 0.85-6.48 4.33-3.35-1.45 6.11 4.22-4.3 3.51 3.03-2.24-1.82-4.83 1.79-7.84 0.32zm2.82-0.97c2.19-5.67-3.65 0.41 0 0zm21.88 0.87c-2.71-3.6 2.13-2.26 3.26-2.4 1.72 0.19 6.16-1.79 3.62 2.39-0.22-2.19-4.95 0.62-6.88 0.01zm1.17-0.99c0.8-3.62-3.03 1.62 0 0zm37.45 0.97c1-1.44 1.09-7.21 4.12-3.6 0.97 3.46-1.58 3.98-4.12 3.6zm2.83-1c0.91-1.78-2.22 0.23 0 0zm0.18-2.2c-0.76-1.72-1.41 1.29 0 0zm-378.14 2.77c0.32-2.49 0.34 1.9 0 0zm322.76 0.29c0.03-4.5 5.41-2.09 2.7-0.06-0.78-2.2-1.98 1.02-2.7 0.06zm43.99 0.11c-1.81-2.73 2.97-5.03 1.01-0.92 1.83 1.09 0.05 1.01-1.01 0.92zm-45.61-0.25c-1.46-2.15-0.12-4.18 1.79-2.32-1.38 0.15-0.43 2.99-1.79 2.32zm11.38 0.02c-0.61-6.53 5.7 0.33 1.51-0.53-0.24-0.69-1.05 0.99-1.51 0.53zm14.55-0.07c-0.75-1.92-0.94-5.42 0.79-1.57 1.78-4.55 3.48 2.17 5.26-2.53 2.17 1.41 2.65 1.15 2.39 3.34 1.23-1.65 4.95-3.44 3.48 0.76-2.71-0.41-6.35 0.56-6.4-2-1.58 3.71-1.8 0.9-3.35 0.44-0.7 0.4-1.24 2.1-2.17 1.56zm22.37-0.02c-0.36-5.84 5.67-0.45 1.9-0.43-0.53-1.59-1.43 1.29-1.9 0.43zm11.55 0.06c-1.16-3.59-0.05-2.13 1.15-1.05 1.26-4.47 1.18 2.26-1.15 1.05zm13.1 0.06c-1.62-2.77 0.45-2.5 1.03-0.97 1.4-4.6 1.79 2.29-1.03 0.97zm10.55-0.15c-0.42-1.81-3.88 0.93-1.5-2.42 1.48 0.61 4.86 0.19 1.5 2.42zm3.5-0.05c-4.86 1.13 1.74-6.24 0.75-0.28l-0.11 0.5-0.64-0.22zm9.07 0.22c-2.35-0.92 2.34-4.99 2.27-0.58-0.39 0.88-1.53 0.68-2.27 0.58zm1.25-0.89c-1.69-1.06-0.16 1.14 0 0zm3.61 0.79c-0.7-3.29 3.34-4.75 3.72-0.98 1.63-5.45 5.08 2.19 1.11 0.19-1.57 0.24-3.23 1.35-4.83 0.79zm2.28-0.99c-1.17-0.99-0.39 1.24 0 0zm-95.13 0.89c-1.44-2.98 3.54-3.56 1.83-1.58 1.48 0.54-1.58 1.11-1.83 1.58zm31.31-0.95c-2.1-2.84 3.89-2.38 0.91-0.16 0.64 1.25-1.79 1.83-0.91 0.16zm2.45 0.78c-1.22-4.52 6-1.08 1.06-0.09-0.35 0.04-0.76 0.56-1.06 0.09zm22.55 0.08c-2.79 0.85-2.03-4.5 0.61-1.83 0.05 0.52 0.42 2.34-0.61 1.83zm1.4 0.06c0.52-5.35 3.65-1.36 0.85 0.13l-0.85-0.13zm2.64 0.02c1.6-6.34 5.93 0.88 0 0zm20.54-0.11c-1.55-6.73 6.84 0.2 0 0zm-11.21-0.21c-1.17-3.21 5.39-2.21 0.73-0.8 0.8 0.84 1.44 1.24-0.73 0.8zm15.04-0.01c-2.21-4.33 5.01-2.53 0 0zm15.87-0.14c-0.28-6.05 5.1 1.19 0 0zm3.62 0.23c-2.51-5.57 11.51-2.02 3.98 0.11-0.6-0.37-0.56-3.97-2.52-1.45 1.49 1.47-0.24 1.39-1.46 1.34zm-257.08-1.47c-1.41-5.47 4.54 2.57 0 0zm-150.55-0.08c-0.98-3.21 6.96-1.25 2 0.32-1.06-2.31-0.88 1.48-2-0.32zm4.23-0.29c0.75-5.41 5.79 1.12 0.9 0.09-0.1 0.45-1.01 0.41-0.9-0.09zm4.67-0.42c-2.87-5.07 4.69-2.23 0 0zm-30.11-0.25c-2.16-5.29 7.89-3.1 11.03-5.16 6.2-1.53 12.5-0.97 18.68-2.52 3.37 0.23 13.13-4.82 10.86 1.73-6.53 1.48-13.29 2.61-19.9 3.37-6.81 0.22-13.56 2.39-20.34 2.85l-0.33-0.27zm5.56-1.66c11.21-2.2 22.59-3.12 33.77-5.42-3.7-1.67-11.99 2.1-17.29 1.94-7.12-0.37-13.74 2.66-20.74 3.04-2.24 2.31 3.4 0.33 4.26 0.44zm26.76 1.59c-0.44-3.89 3.43-3.14 1.49-0.15-0.44 0.13-1.06 0.61-1.49 0.15zm4.8-0.79c-4.98 0.9 2.04-5.96 0.88 0.16 0.11 0.72-0.89-0.08-0.88-0.16zm32.73 0.18c-7.81 2.05-6.29-12.54 0.68-7.41 1.39 3.67-5.91-2.39-4.53 3.41 0.38 5.85 3.95-3 5.41 1.42-0.68 0.3-0.17 3.66-1.56 2.58zm104.28-0.08c-2.9 0.68 3.96-8.48 3.38-2.43-3.41-3.19 0.05 2.1-2.74 2.07 0.78 0.58-0.34 1.23-0.64 0.36zm-113.13-0.55c-0.59-5.33-5.67-1.95-6.79 0.18-1.17-7.53 7.63-11.15 7.7-1.86 0.42 0.79 0.31 3.42-0.91 1.68zm-1.72-4.3c0.87-4.72-5.38 1.25 0 0zm15.13 4.44c-1.8-4.44 5.11-12.38 7.45-5.09 1.69 2.84 1.03 7.77-1.17 2.28-3.52-1.11-4.93 0.34-6.28 2.81zm5.75-4.76c-0.8-4.57-6.22 1.79-0.41 0.24l0.41-0.24zm6.88 4.62c0.12-3.3 0.23-6.78-3.03-7.3 2.39-1.2 10.72-0.09 4.45 1.4-0.72 1.08 1.03 7.29-1.42 5.9zm6.59 0.04c-2.69-5.39 2.2-10.72 6.57-6.84-1.77-0.07-7.88 0.91-4.14 2.4 5.78 0.56-6.26 2.91 1.14 3.19 7.63 0.85-1.88 2.14-3.57 1.25zm-54.18-0.17c1.05-2.11 1.32 1.36 0 0zm185.92-2.52c-0.74-2.84-4.25-6.51-6.7-7.09-4.74-0.52 3.79-6.49 5.82-8.1 6.65 0.18 3.15 7.54-0.57 9.69 1.12 3.05 7.77 2.31 2.77 5.73l-0.73 0.34-0.59-0.57zm0.12-9.83c3.84-6.78-9.57 0.53-2.86 2.63 1.15-0.63 1.97-1.7 2.86-2.63zm-85.06 9.6c2.62-2.94 3.72-3.68 0.75 0.13 0.2 0.4-2.69 0.33-0.75-0.13zm-3.76-0.5c-3.22-4.85 3.83 2.9 0 0zm41.97-0.38c-3.32-5.64 4.5-0.5 0 0zm-45.23-1.57c-3.21 0.46-4.01-5.74-5.19-5.66 2.52 1.18 3.45 5.56 5.19 5.66zm208.53-0.13c-3.73-2.81 3.79-3.75 1.1 0.28l-1.1-0.28zm-28.3-0.15c0.54-5.47-2.47 2.56-3.94-2.12-1.75 6.82-2.22-7.08 1.37-0.38 0.88-0.26 4.03-3.81 3.41 0.36-0.16 0.13 0.17 3.02-0.84 2.14zm7.84 0.15c-0.06-4.72 5.51-4.38 3.91 0.05-1.21-2.04-2.57-0.67-3.91-0.05zm2.76-2.24c-0.22-2-1.41 0.91 0 0zm3.52 2.23c-3.94-3.67 5.75-2.68 4.43-2.22 0.87 3.05-2.52 2.17-2.6 0.64-0.73-0.07-0.87 2.13-1.83 1.58zm7.2-0.27c-5.21-0.87 3.02-5.02 0.61 0.4l-0.61-0.4zm-0.08-1.67c-1.44-0.96 0.01 1.03 0 0zm1.78 1.68c1.59-5.46 6.17 0.24 0 0zm8.1-1.17c1-3.4 2.38-0.8 1.51 0.76 1.48 0.74-3.09 1.29-1.51-0.76zm12.02 1.22c-2.34-6.15 4.2 1.37 0 0zm3-0.32c-0.8-5.62 6.32 0.19 0 0zm1.62-0.74c0.14-2.78-2.67 1.6 0 0zm2.35 0.97c-2.87-2.36 4.15-3.1 0.03-1.06 0.98 0.45 2.06 1.16-0.03 1.06zm14.71 0.04c-0.51-5.28 1.99-0.39 0 0zm46.4-0.06c-1.65-0.8-6.65 0.35-2.78-2.78 2.39 0.98 1.99 1.15 3.75 1.84 0.66-4.8 7.37 0.51 3.44 0.5-2.49 0.44-1.27-3.18-3.1 0.42l-1.31 0.02zm-2.39-1.41c0.11-2.2-2.26 1.68 0 0zm-69.01 1.21c0.25-2.71-4.57 1.93-3.02-2.07 1.56 2.14 6.18-2.58 4.76 1.58 0.74 1.11-1.47 0.7-1.74 0.49zm15.91 0.13c-1.04-1.96 0.64-3.85 1.79-2.01-1.55-0.15-0.75 2.23-1.79 2.01zm3.44-0.01c-2.63-3.39 5.36-3.32 0.7-0.32l-0.35 0.42-0.35-0.1zm7.48-0.12c-1.67-4.25 5.45-1.37 1.95 0.13-1.52-3.91-0.76 0.87-1.95-0.13zm5.69-0.15c-0.87-4.44 6.6-1.01 3.34-0.42-1.44 0.53-2.86-0.46-3.31 0.57l-0.03-0.15zm5.26 0.06c-0.56-4.65 2.31-1.02 0 0zm1.63 0.14c-1.55-5.62 4.69 1.75 0 0zm3.08 0.07c-0.02-7.32 4.91 0.56 0 0zm3.48 0c-2.1-5.96 6.53-0.75 0 0zm8.81-0.2c0.8-3.31-5.35 1.73-2.84-2.63 2.47-0.77 8.95 2.12 2.84 2.63zm10.8-0.08c-5.76 0.64 2.86-4.92 0.51 0.31l-0.51-0.31zm12.69 0.01c0.72-1.35 0.72 1.28 0 0zm-115.34 0.05c-0.78-4.64 5.2 0.51 0 0zm50.31-0.03c-0.21-3.82 1.91-0.5 0 0zm46.4-0.14c-5.15-0.59 3.52-5.12 0.91 0.13l-0.16 0.17-0.75-0.3zm-269.23-0.34c1.99-2.46 5.36-3.52 1.06-0.66-0.04 0.23-1.91 1.92-1.06 0.66zm37.97 0.09c-2.85-3.5 2.75-4.24 1.73-1.66-1.48-0.33-0.86 1.99-1.73 1.66zm-31.86-2.66c3.16-4.07 3.4-10.28 9.1-12.17 5.6-2.84 10.89-6.4 13.6-12.16-1.31 7.49-8.98 9.15-13.82 13.3-6.04 1.11-5.8 10.36-8.88 11.03zm34.03-0.22c-1.65-2.65 0.18-2.99 0.74-0.97 1.8-0.55 0.32 2.03-0.74 0.97zm-10.51-0.59c2.5-4.65 7.76-7.79 10.49-12.95 1.36-3.12 6.27-6.56 2.21-1.3-4.3 4.68-6.78 11.5-12.43 14.39l-0.27-0.14zm11.93-1.49c-1.5-5.37 3.49 1.68 0 0zm-59.62-0.26c-0.89-1.1 1.81 1.18 0 0zm252.85-0.31c0.45-2.41 0.98 1.66 0 0zm-69.71-0.02c-1.43-0.9 0.48-3.92-0.76-5.31 6.05-2.99 6.91 7.33 0.76 5.31zm2.73-1.25c2.39-8.68-5.28 0.73 0 0zm28.16 1.29c-0.94-4.84 2.69-1.34 4-1.95 2.62-1.93 3.04 3.35-0.47 1.47-1.18 0.16-2.32 0.97-3.53 0.48zm2.26-1.46c-0.34-2.75-2.12 1.87 0 0zm8.2 1.37c-0.45-0.48 2.21-2.04-1.16-1.62-1.4 3.53-3.37-2.08-0.38-0.72 3.07-2.71 5.49 2.44 1.54 2.34zm14.07-0.48c-0.39-4.19 3.11 0.82 5.23-1.94 1.44 0.8-0.5 3.94-0.56 0.44-1.33 2.23-3.51 1.92-4.67 1.5zm18.91 0.62c-2.72-4.72 3.16-4.65 0 0zm14.47-0.37c-1.74-2.66 2.31-3.2 2.74-1.45 3.74-3.05 2.63 3.18-0.78 1.34-0.48 0.65-1.48 0.69-1.96 0.11zm4.65-0.77c0.73-2.58-2.67 0.86 0 0zm-81.3 0.63c-0.62-3.03 0.96-5.2 3.09-1.89 1.33-5.81 1.58 6.46-1.11 0.51-1.5-2.37-0.74 3.46-1.98 1.38zm5.02 0.05c-1.83-4.76 5.57-0.99 0.72 0.35l-0.72-0.35zm1.51-0.73c0.07-2.27-2.32 1.06 0 0zm4.46 0.73c-1.1-4.02 3.44-0.8 5.22-2.25 0.22 3.08-3.51 2.58-5.22 2.25zm1.41-0.7c0.04-2.08-1.9 0.99 0 0zm22.19 0.9c-1.93-3.76 3.86-0.86 5.36-2.24-0.67 2.51-3.41 2-5.36 2.24zm1.24-0.73c0.95-2.11-2.89 0.33 0 0zm13.96 0.68c-1.24-4.32 5.16-0.79 1.79-0.1-0.6-2.24-1.15 0.93-1.79 0.1zm3.01 0.09c-0.35-3.59 5.7-2.95 2.62 0.05-0.86 0.01-1.78 0.26-2.62-0.05zm3-1.22c-1.85-1.59-0.99 2.25 0 0zm29.78 1.12c-1.24-3.16 1.78-2.94 3.32-1.63 1.76-3.25 4.28 3.93 1.2 0.87-1.48 0.24-2.98 1.45-4.52 0.76zm1.93-1.09c-0.34-3.38-2.05 2.06 0 0zm11.08 1.07c0.29-1.99 1.74 1.59 0 0zm-296.53-0.35c-3.88-1.24-9.06-2.38-9.68-6.67 1.8 4.91 7.92 4.71 10.95 7.03l-1.27-0.36zm206.23 0.3c-0.15-1.63 1.22 0.74 0 0zm63.8-0.23c-4.61-0.44 3.31-4.19 0.58 0.36l-0.58-0.36zm23.57 0.23c-1.23-6.3 6.21 0.45 0 0zm-26.65-0.21c-0.38-3.44 1.69-0.67 0 0zm24.43-0.11c-2.9-3.02 5.16-2.88 0 0zm-227.54-0.45c-0.35-3.16 1.95-1.91 2.04-4.97 4.39-0.15-0.51 5.05-2.04 4.97zm1.17-0.99c-0.77-1.32-1.09 1.22 0 0zm128.7 0.73c-2.35-4.88 6.4 0.23 0 0zm-80.08-1.12c-4.75-3.7-11.48-8.79-3.71-13.41 1.57-3.43 5.49-2.66 1.72 0.66-2.3 1.89-5.99 6.08-1.17 6.61 3.57-4 3.34 0.08 1.61 2.22 2.93 6.52 8.43-8.35 9.21-2.88-2.42 1.9-4.68 7.22-7.66 6.8zm-101.59-0.16c-3.58-1.31 9.69-1.08 2.95-0.52-0.97 0.32-1.88 1.35-2.95 0.52zm251.37-0.28c-0.93-3.63 4.46 0.49 0 0zm-244.84-1.13c6.05-1.56 5.1-9.95 10.97-12.49-0.89 1.82-6.08 6.17-6.69 10.36-0.52 1.87-2.87 1.5-4.28 2.13zm-8.93-0.31c-1-1.47 2.21 1.48 0 0zm-2.13-1.09c-4.08-1.21-1.32-1.72 0.8 0.35l-0.8-0.35zm60.51-0.64c-4.68-4.17 5.97-2.11 0 0zm-106.38-0.75c-1.71-4.09 4.31-10.59 6.32-15.11 9.24-2.61 18.5-5.51 27.81-7.72 4.26 5.22-6.01 4.16-8.76 6-5.55 1.59-11.14 3.06-16.66 4.75-2.45 3.88-4.38 8.11-6.58 12.15-0.71 0-1.42 0.04-2.13-0.07zm2.04-2.95c2.69-5.85 5.2-12.25 12.72-12.31 6.19-1.9 12.68-3.12 18.63-5.63-4.74 0.06-10.69 2.59-15.53 3.95-5.15 1.52-12.18 1.44-13.5 7.93-0.56 1.14-6.17 11.41-2.32 6.06zm39.71 1.53c-5.15-0.42-8.02-5.22-10.37-9.36 2.96 1.93 5.46 8.91 10.96 9.14 0.5 0.66-0.37 0.79-0.59 0.22zm66.58-0.31c-2.2-3.75 2.55 1.08 0 0zm-52.74-2.06c2.03-3.24 2.52-6.93 6.85-8.79 3.38-3.7 2.46-8.82 8.27-10.09 1.94-1.99 4.65-3.42 1.01-0.33-3.1 2.69-6.54 3.57-6.53 8.16-2.73 4.3-7.94 6.14-8.73 11.4-0.82 1.14-3.09 1.21-0.87-0.35zm53.98 0.64c-2.8-3.12 3.92-4.34 1.2-1.07-0.95-0.42-0.28 1.99-1.2 1.07zm-150.95-3.59c-2.36-1.94 3.81-0.84 0.15-3.54 3.84-1.14 2.88 5.19-0.15 3.54zm153.55 0.21c-3.47-6.92 5.95-0.74 0 0zm-103.55-0.74c-1.96-4.55 2.72-2.29 4.53-3.89 0.78 2.94 1.21-2.95 2.54 0.83 1.78-2.84 2.51-0.1 4.2-2.51 2.55 0.59-1.4 4.61-2.5 4.28 1.88-3.13-4.35-0.37-5.41 0.07-1.21-0.02-2.23 1.83-3.36 1.22zm1.43-1.23c-0.81-0.36-0.79 0.66 0 0zm222.42 1.17c7.12-7.96 15.1-15.14 22.75-22.6 2.2 0.17-5.82 6.16-7.44 8.27-5.09 4.85-9.87 10.02-15.11 14.7l-0.2-0.37zm-69.28-0.13c-0.32-4.57-7.6-6.6-8.78-8.64 2.02-4.73 9.93-11.25 11.07-2.45 2.57-0.2 9.77 2.65 3.33 2.18-5.66-3.06-10.12 5.36-2.81 6.24-0.01 1.01-1.73 3.52-2.81 2.67zm-1.71-8.85c4.25-3.05-1.17-7.16-3.01-2.02-2.81 1.9 1.81 5.3 3.01 2.02zm-205.62 7.97c-5.72-3.67 3.55-0.69 0 0zm113.92-2.02c4-1.1 6.98-10.95 9.66-9.05-4.96 0.79-4.52 8.96-9.66 9.05zm-118.15-0.47c-1.94-2.67 3.39 0.79 0 0zm4.39-0.3c-2.94-2.99 3.74 0.53 0 0zm5.57-0.5c-2.56-2.45 3.2-0.22 0.22-3.18 3.16-1.11 2.43 5.02-0.22 3.18zm154.76-0.91c-5.42 0.75 5.27-8.53 2.27-1.57-2.6-1.59-1.96 0.27-1.75 2.06l-0.52-0.49zm2.27-2.79c-0.5-1.98-1.18 0.97 0 0zm-170.63 2.46c-2.11-3.51 4.01 1.54 0 0zm4.87-0.09c-1.66-3.15 3.79 1.23 0 0zm5.47-0.69c-1.38-3.51 3.86 2.21 0 0zm-13.84-1.17c-4.51-3.7 4.91 1.27 0 0zm5.54 0.15c-2.34-2.78 3.34 0.85 0 0zm138.47-0.38c4.1-1.55 8.01-5.46 9.37-9.26 0.74-5.77 10-6.69 9.7-13.54-1.23-2.93 3.18-7.88 4.56-9.55-3.77 5-3.44 10.26-6.32 15.3-5.67 3.06-6.96 8.04-10.33 12.76-1.14 2.21-5.65 4.93-6.98 4.29zm-133.51-0.35c-4.14-4.37 5.87 2.07 0 0zm4.16-0.49c-2.08-3.54 3.5 1.43 0 0zm328.88-0.23c-1.93-2.07 5.45-0.31 1.52-2.04-6.34-1.61 5.34-4.75 1.62-2.06-4.69 0.03 4.74 2.52-0.54 4.34-0.85 0.07-1.83 0.3-2.6-0.24zm-346.88-0.59c-4.62-3.45 4.53 0.61 0 0zm5.18 0.07c-3.13-2.59 3.56-0.25 0 0zm5.22-0.77c-1.49-3.61 3.86 1.98 0 0zm4.35-0.33c-3.42-3.23 4.14 1.1 0 0zm-18.91-1.32c-6.06-4.46 5.89 1.48 0 0zm5.24 0.02c-2.97-3.34 4.66 1.53 0 0zm179.09 0.36c-3.93-3.67 3.25 0.97-0.23-3.41 1.16-2.08 2.93 3.95 0.23 3.41zm-172.91-0.45c-2.62-3.36 4.56 1.22 0 0zm4.07-0.48c-2.11-3.28 4 1.13 0 0zm128.76-0.27c4.71-1.66 3.75-8.24 8.89-8.71 2.34-4.87 6.95-7.89 8.29-13.52 2.96-2.8-2.18 5.05-2.18 6.74-3.37 3.8-6.24 7.69-9.79 10.44 0.51 2.32-5.91 6.76-5.21 5.05zm-136.18-1.11c-3.38-3.79 4.96 2.03 0 0zm-6.18 0.11c-3.9-3.25 4.2 0.45 0 0zm-6.01-0.53c-2.76-3.88 4.18 1.49 0 0zm16.09-0.31c-3.13-3.52 4.23 1.04 0 0zm174.36 0.15c0.55-0.87 0.83 0.83 0 0zm52.08-0.56c-0.73-4.15-6.71-6.87-9.3-7.84 3.17-6.52 5.21 2.94 9.46 4.09 4.32-0.09 3.11 3.45-0.16 3.75zm-234.12-1.06c-2.7-3.92 4.42 1.86 0 0zm183.12 0.39c2.29-1.41-3.37-2.19 0.51-3.34-2.07 2.92 3.58-1.44 1 2.84-0.15 0.26-1.13 1.11-1.51 0.5zm-194.44-0.38c-3.43-2.83 4.09 0.85 0 0zm5.1 0.09c-3.32-2.78 3.75 0.18 0 0zm10.6-0.52c-3.26-3.48 4.46 1.5 0 0zm340.71 0.24c-0.56-2.89 3.74-4.5 1.88-0.98 3.47-0.08-1.07 1.83-1.88 0.98zm4.86-0.02c-1.5-3.84 7.43-3.09 3.63-0.02-0.44-0.76-3.66-1.55-3.63 0.02zm-6.34-0.15c-1.12-4 2.44-3.88 0 0zm-358.09-1.39c-2.96-2.79 3.52 0.57 0 0zm4.97-0.04c-3-3.04 3.9 0.76 0 0zm5.63-0.45c-2.15-3.73 4.75 2.22 0 0zm4.75-0.18c-4.11-4.4 5.11 1.69 0 0zm184.79-0.43c0.52-0.73 0.52 0.72 0 0zm-51.95-0.15c1.15-1.94 1.46-0.68 0 0zm-146.22-0.56c-4.8-3.67 4.09 0.03 0 0zm5.33-0.52c-3.67-4.39 5.39 2.22 0 0zm4.55-0.34c-3.67-2.63 3.96-0.27 1.23 0.5l-1.23-0.5zm189.04-0.49c-2.09-2.61 3.82-3.03 1.77-0.7-1.83-1.16 0.74 3.57-1.77 0.7zm-12.66-0.31c1.29-4.92 5.57-8.54 7.2-13.84 0.58-2.88 4.7-7.15 1.84-1.67-2.53 4.87-4.71 10.1-7.29 14.62-0.06-0.43-1.39 1.9-1.75 0.89zm-190.42-0.66c-3.53-4.19 5.42 2.1 0 0zm6.01-0.27c-3.74-3.42 4.22 1.17 0 0zm360.58-0.05c-0.37-3.24 4.41-5.34 3.83-0.59-0.85 0.71-2.93 1.27-3.83 0.59zm2.85-1.03c1.12-3.73-3.45 1.42 0 0zm-359.09 0.7c-3.15-3.47 4.71 1.28 0 0zm352.36-0.33c-1.11-1.24-2.32 2.3-2.15-1.88 1.53-1.54 2.02 0.57 4.38-0.73-1.84 1.27 3.11 3.16-1.53 3.18l-0.7-0.57zm-209.54-0.01c0.35-0.59 7.61-4.11 1.96-0.42l-1.07 0.38-0.89 0.04zm52.92-0.66c-3.5-0.43 1.92-5.5 1.09-0.59 1.02 0.93-0.61 1.78-1.09 0.59zm-203.51-0.57c-4.2-3.12 4.4 0.86 0 0zm4.71-0.23c-3.94-3.26 4.73 1.16 0 0zm-3.28-1.83c-4.12-4.46 5.94 2.17 0 0zm204.01 0.38c-4.56-5.2 6.07-3.62 0 0zm1-1.38c-0.12-2.88-2.21 1.05 0 0zm125.53 0.99c-1.7-2.46-3.54 2.61-3.27-2.14 1.37-3.31 1.26 2.38 3.55-1.28 2.11 0.25 1.33 5.28-0.28 3.42zm-80.72-1.4c-7.85-4.44 2.58-13.88 7.32-6.93 4.49 3.83 0.5 10.13-4.94 8.79-0.79-0.62-1.59-1.24-2.38-1.86zm6.18-0.29c5.92-6.62-11.14-10.51-6.29-2.04 1.92 1.83 3.5 3.37 6.29 2.04zm82.33 1.9c0.15-2.21-2.43 1.16-2.85-1.42-1.32 4.34-0.87-5.48 1.1-0.3 2.8-2.08 3.2-1.4 1.75 1.72zm22.22-1.86c-0.26-5.22-0.13-10.46-0.18-15.69-5.03-0.72-9.63-5.15-12.93 1.17-1.54 1.96-9.15 8.46-4.05 2.98 3.34-3.98 10.78-7.4 5.07-12.57 0.24-8.29-9.49-3.39-14.71-5.17 3.57-2.11 11.43 1.32 14.23-1.97 2.54-4.2 3.4-7.41-1.63-10.25-2.49-2.12-9.93-10.24-3.37-4.41 4.2 3.14 7.75 11.58 13.21 5.53 8.54-0.09 2.46-11.15 5.16-16 1.95 4.93-3.37 14.9 3.64 15.9 6.23 6.32 10.21-4.43 15.12-7.5 9.97-9.62 19.42-19.88 29.91-28.9-4 5.35-10.21 10.22-15.02 15.37-8.27 8.14-16.49 16.32-24.71 24.51 2.4 4 2.77 9.32 8.98 7.2 6.81 2.13-8.66-1.67-6.29 4.2-1.26 3.83-4.67 6.91 0.46 9.5 4.6 6.89-2.79-3.36-4.83-2.54-6.04 1.88-8.8 4.97-7.27 11.72-0.51 1.48 0.79 6.87-0.79 6.92zm3.36-17.33c8.21-2.01 11.46-13.75 4.89-19.35-5.08-5.55-15.03-3.95-18.44 2.62-4.14 6.42 0.41 16.01 8 17.07 1.84 0.3 3.76 0.2 5.55-0.34zm-157.62 16.2c-3.52-5.78 5.11-1.61 0 0zm179.36-1.56c0.06-3.8-5.14 2.95-2.55-3.03 2.57-0.1 4.99-0.09 2.55 3.03zm-8.59-0.24c-0.37-4.58 2-0.96 0 0zm2.2-0.21c-0.43-5.21 1.98-0.53 0 0zm-181.45-0.49c2.73-4.47 7.6-8.74 11.57-11.75-4.04 3.8-6.23 9.27-10.96 11.96l-0.61-0.21zm10.1 0.09c-1.07-6.68 5.53-0.13 0 0zm1.34-1.04c0.23-2.52-1.85 1.27 0 0zm121.11 0.05c-5.44 2.04-2.45-5.66-0.95-2.53 0.93 4.45 1.44-4.02 3.55-0.11-0.84 0.59-1.37 3.48-2.6 2.64zm3.85-0.24c0.94-2.15 0-5.02 3.69-2.54 0.6 2.35-1.88 3.61-3.69 2.54zm2.6-1.2c0.46-2.84-1.96 1.32 0 0zm-177.64 1.01c5.53-1 4.05-6.47 6.41-9.44 2.1-0.59-2.31 3.56-1.08 5.68-0.59 1.89-3.91 3.64-5.33 3.76zm51.14-1.57c-0.97-6.55 5.58 1.51 0 0zm0.8-0.84c-0.5-1.07-0.5 1.07 0 0zm165.87-0.04c-2.06-4.14 3.15-4.05 0 0zm1.87-0.25c-2.01-7.38 6.13 1.01 0 0zm1.27-1.24c-1.25-1.89-0.5 2.31 0 0zm2.52 1.29c-0.61-2.54 1.89-5.17 4.01-1.72-0.31 1.95-2.49 2.02-4.01 1.72zm2.69-1.15c0.66-3.94-3.67 1.9 0 0zm-120.82-0.25c-1.19-4.46-8.49-5.41-9.01-7.76 1.9-4.21 7.91-8.03 9.03-1.51 2.41-0.33 10.59 1.78 4.25 2.3-2.36-1.19-9.55-0.24-5.18 3.04 2.04 1.24 5.9 2.5 0.91 3.93zm-3.12-7.9c3.42-5.53-4.3-2.57-2.23 0.5 0.8 1.52 1.72 0.03 2.23-0.5zm-48.31 7.41c-3.45-6.02 6.57 0.8 0 0zm2.41-1.46c-3.48-4.18 3.64-3.37 1.62-1.3-1.07-0.59-0.85 2.27-1.62 1.3zm-31.68-2.7c-0.35-2.59 5.94-9.1 5.93-6.93-3.3 0.58-4.65 5.36-5.93 6.93zm-7.86-1.06c0.44-1.99 3.46-8.33 1.66-2.5-0.13 0.08-2.32 5.05-1.66 2.5zm42.03 0.47c-3.61-2.41 4.26-4.66 0.84-0.1 0.14 0.72-0.73 0.73-0.84 0.1zm0.74-1.75c-0.25-0.73-1.14 0.79 0 0zm-51.45 0.58c3.83-4.66 2.75-1.91 0 0zm52.92-1.13c-2.54-2.97 4-3.47 1.68-1.01-2.02-0.76 0.28 2.9-1.68 1.01zm3.47-2.74c-3.29-3.59 1.76-0.69 0 0zm1.23-1.51c-2.21-2.44 1.4-4.27 0.55-1.13 2.15-1.99 1.21 1.78-0.55 1.13zm-54.06-1.14c0.24-3.59 5.06-8.58 2.96-12.44 2.29-3.09-2.15-6.02 2.43-8.65 6.08-5.25-4.46 3.89-1 5.29-1.55 4.4 0.79 9.88-3.47 13.75-1.77 0 1.02 4.71-0.92 2.05zm19.43-0.33c0.53-1.08-0.01 1.26 0 0zm-10.4-0.87c2.83-5.96 0.54-13.38 5.97-18.4 1.08-2.21-0.87-4.67-2.19-2.45-1.12-3.36 0.93-4.13 2.34-3.16 3.22 1.1-1.02 9.2-3.33 11.73-1 4.08 0.47 9.1-2.79 12.28zm146.42-0.96c-1.41-3.37 2.56-5.95 0.91-0.63 0.18 0.43-0.59 1.15-0.91 0.63zm3.68 0.05c-4.38-1.58 2.35-6.55 1.69-1.28-0.59 0.16-0.9 1.88-1.69 1.28zm7.1-0.28c-1.88-1.07-1.64-1.18-3.15-0.17-0.76-4.94 1.72-1.71 3.11-2.76 2.11-3.07 1.37 4.86 0.04 2.93zm48.22 0.07c-2.24-3.83 2.7-5.71 0 0zm2.53-0.21c-2.35-3.97 2.48-4.12 0.25 0.36l-0.25-0.36zm2.81-0.03c-1.67-4.48 6.53-3.86 3.24 0.1-1.24-1.6-2.23-0.3-3.24-0.1zm-161.27-1.39c-2.16-6.77 6.65 0.77 0 0zm1.4-1.19c-1.07-2.21-1.61 1.87 0 0zm173.19 1.32c-3.95-2.24 0.79-10.22 3.75-5.8-3.37-0.48-4.18 1.4-2.17 2.74-5.01 2.06 6.56 2.29 0.78 3.18l-1.27-0.01-1.09-0.11zm-87.99-1.04c-0.97-5.32-2.13-1.64-3.89-0.02-1.44-1.66-2.51-8.96-0.24-3.38 1.13 4.23 2.59-5.81 3.71-0.51 0.58 5.28 3.79-5.6 2.79 0.23-0.68 0.66-1.06 4.99-2.37 3.68zm-83.82-1.93c-1.85-2.45 1.83-3.54 1.09-1.53 1.35-1.62-0.33 4.85-1.09 1.53zm153.87-1.08c-2.64-5.7 6.18-3.02 1.09 0.2l-1.09-0.2zm1.26-1.11c-0.58-0.39-0.47 0.69 0 0zm-152.43 0.77c-2.81-6.86 3.67-1.57 0 0zm155.73 0.22c-1.27-3.14 3.9-5.38 3.01-0.89-0.67 0.95-1.99 0.96-3.01 0.89zm2.1-1.04c1.52-3.18-2.2-0.21 0 0zm-66.67 0.31c-0.13-0.87 0.68-1.53 0.29-3.67 2.56-1.35 2.84 5.25-0.29 3.67zm8 0.09c-1.61-1.77 1.5-6.5 2.94-2.46 0.26 1.88-1.29 2.76-2.94 2.46zm1.99-1.93c-0.11-3.66-1.84 3.12 0 0zm-6.83 1.52c2-0.12-1.31-4.6 2.64-3.16-0.65 1.13 0.1 4.67-2.64 3.16zm-92.66-1.99c-1.36-4.3 2.51 3.1 0 0zm1.78-0.41c-2.71-1.87 1.77-4.73 0.35-1.2 2.39-1.88 0.99 1.92-0.35 1.2zm1.57-2.8c-0.97-5.53 3.64-1.09 0.77 1.11l-0.77-1.11zm-338.42-0.46c0.8-1.4 0.49 0.13 0 0zm343.17-0.42c-2.38-4.07 2.71 0.51 0 0zm-340.21-5.37c1.74-2.37-1.09 2.33 0 0zm342.66-0.18c-1.33-4.06 4.62-1.73 1.6-0.49-1.47-1.03 0.06 3.14-1.6 0.49zm-10.54-0.24c2.66-4.78 8.54-7.1 12.74-11.1-3.02 3.61-7.35 8.19-11.18 10.82l-1.31 0.55-0.25-0.27zm-331.42-0.67c1.29-3.17 4.43-6.69 1.2-1.67-0.34 0.35-0.65 1.86-1.2 1.67zm290.4-0.42c-2.63-4.49 5.18-4.62 1.95-0.47-1.76-1.92-0.5-0.24-1.95 0.47zm-7.05-0.29c-0.81-2.78-0.84-4.84 2.49-3.38-2.18 0.11-0.87 3.66-2.49 3.38zm2.38-0.09c-0.85-5.4 5.98-2.82 2.69-0.14-0.87-3.42-1.48 1.05-2.69 0.14zm9.24 0.14c-3.16-0.39 1.12-6.25 2.04-2.97-3.63-0.03 1.79 3.66-2.04 2.97zm49.55-0.78c0.28-6.54 4.64 2.57 0 0zm2.43-1.91c-1.53-1.2 2.96-4.05 1.02 0.41l-0.39 0.02-0.63-0.43zm2.62-1.71c-3.14-2.12 2.96-3.21 0.41 0.48l-0.41-0.48zm70.85-0.63c-1.85-2.28 1.58-5.98 0.84-1.04-0.02 0.18-0.22 1.64-0.84 1.04zm2.25-0.27c-3.31-3.68 5.63-4.38 0.77-2.49 3.46-0.64 1.51 4.11-0.77 2.49zm1.67-1.02c-0.86-1.44-1.4 1.26 0 0zm5.87 0.78c-0.26-2.17-4.82 2.01-2.47-3.24 1.9 2.04 5.02-1.77 3.32 3.18-0.14 0.26-0.73 0.44-0.85 0.06zm-426.02-0.93c18.92-29.56 47.63-53.05 80.73-64.89-4.01 2.74-9.67 3.93-14.09 6.47-26.93 12.77-50 33.35-66.16 58.37-0.18 0.41-1.66 2.11-0.48 0.05zm349.18-1.22c-2.21-2.12 2.82-3.56 3.9-4.87 0.97 2.44-1.79 5.09-3.9 4.87zm1.44-1.57c0.28-1.43-1.61 1.54 0 0zm-356-0.42c-3.43-3.35 2.76-0.74 1.13 0.82l-1.13-0.82zm288.42 0.31c-0.97-2.85-0.68-5.55 2.42-3.29-2.29-0.1-0.54 3.88-2.42 3.29zm2.58-0.06c-2.15-6.03 11.11-5.43 6.86 0.23-1.06-2.82-3.4 2.21-2.31-2.43-0.11-2.14-4.68-0.63-1.97 0.39-4.44 1.05 3.57 1.45-1.37 2.08l-1.21-0.27zm6.49-3.04c-1.78-0.12 0.2 1.35 0 0zm-296.46 0.74c-1.75-1.61 1.75-2.83 1.33-3.48 2.93 1.97-0.31 3.45-0.5 4.21l-0.83-0.73zm358.24-0.61c-0.03-5.15 3.26 0.49 0.3 0.79l-0.3-0.79zm61.93 0.82c-2.17-4.01 2.55-3.02 3.28-2.09 3.27-4.02 3.28 4.57-0.92 1.91-0.6 0.67-1.65 0.6-2.36 0.18zm1.65-0.85c-1-1.05-1.42 1 0 0zm2.99-0.03c-0.25-0.8-0.73 0.77 0 0zm3.17 1.05c-1.92-3.57 4.11-5.44 3.27-1.07-0.55 1.24-2.22 0.96-3.27 1.07zm2.46-1.5c-0.14-3.5-2.48 1.84 0 0zm-146.66-2.06c0.21-2.34 3.41-8.04 1.28-2.47-0.18 0.6-1.72 6.29-1.28 2.47zm77.47 0.71c-2.86-1.75 2.7-4.25 0.52-0.63 0.97 0.47-0.31 1.6-0.52 0.63zm-358.04-0.72c-4.48-3.15 4.23-5.79 1.56-0.58-0.19 0.45-1.22 1.7-1.56 0.58zm1.08-1.64c-0.12-2.71-2.22 1.09 0 0zm446.23 1.4c-0.98-6.37 2.51-0.39 0 0zm1.49 0c0.82-0.4 0.61-5.59 1.89-1.93 0.66 1.06-0.83 2.96-1.89 1.93zm-89.4-0.05c0.27-1.34 1.48 1.01 0 0zm97.95 0.04c-0.01-2.46-5.02 2.19-2.84-2.76 1.74 1.55 4.79-1.69 3.09 2.87l-0.25-0.11zm-39.62-2.21c-5.27-4.81-10.43-9.79-15.22-15.1 4.75 3.25 8.77 8.39 13.37 12.23 0.85 0.65 6.68 6.79 1.85 2.87zm-415.86-1.61c-2.42-3.09 3.32 1 0.37-2.87 2.8-0.97 2.33 6.12-0.37 2.87zm2.86-2.17c1.28-1.33-3.2-1.81-0.04-3.46 1.37 1.03 3.35 3.82 0.04 3.46zm443.89-0.11c2.24-0.44-1.53-4.2 2.6-2.6-1.47 0.64 0.72 3.73-2.6 2.6zm6.18-0.14c-1.31-4.08 5.65-3.44 2.14 0.01-0.66 0.24-1.53 0.49-2.14-0.01zm2.41-1.68c-1.68-1.97-0.82 3.11 0 0zm-10.2 1.5c-0.81-6.52 2.8 0.3 0 0zm-439.41-3.19c-2.76 0.08-2.12-3.14 0.34-3.12-0.99 1.17 2.54 4.54-0.34 3.12zm444.89-3.32c1.13-5-6.05-1.28-8.5-2.69 0.53-1.66 12.38 1.29 7.9-5.49-6.81 1.86 2.33-13.4 3.72-4.62 3.45 3.91 1.57 4.73-2.03 5.33-2.21 6.95 7.37 2.4 9.92 4.6-4.86 0.47-10.73-0.91-10.85 4.36-0.64 0.32-0.01-1.23-0.16-1.49zm-442.94 0.76c-4-3.87 3.44-3.41 2.16-0.95-3.41-1.8 0.41 2.93-2.16 0.95zm0.38-2.11c-0.52-0.73-0.52 0.73 0 0zm283.22 1.24c0.45-6.15 0.56-13.37 5.72-17.69 1.87-5.09 1.62-10.41 0.62-15.85-1.44-6.07 6.38-10.76 2.99-15.83-0.53-4.06 1.21-9.78-5.14-7.6-1.62-1.15 1.9-4.84-0.13-7.64 3.46-3.45 9.21 5.75 6.12-1 1.98-5.38 2.81-11.94 6.52-16.84 0.41-6.11 5.89-9.97 9.99-14.3 5.06-4.96 12.14-4.95 18.63-6.91 3.67 3.08 9.77-4.91 9.15 2.14-1.85 3.19 6.17 5.56-0.25 3.37-0.43-3.16 0.11-7.59-4.34-4.12-6.31-0.61-13.42 1.21-18.87 3.9-4.88 3.26-9.88 7.48-12.67 12.78-1.67 6.05-5.21 11.85-6.87 18.09 1.47 5.48-3.09 10.68-1.42 16.58 4.09 6-3.94 10.48-2.96 17.21 1.2 5.25 0.81 9.77 0.06 14.93-2.15 3.51-5.95 7.24-5.76 12.08-0.38 1.69 0.36 6.23-1.39 6.7zm8.52-58.97c0.15-3.64-5.26 1.02-0.57 0.45l0.57-0.45zm1.71-2.05c-0.58-0.39-0.47 0.7 0 0zm-1.75-1.12c1.61-3.67-5.72 0.78-0.62 0.32l0.62-0.32zm63.45 61.42c3.2-4.1 8.38-5.07 12.58-8.84 2-2.09 6.97-3.35 2.03-0.33-5.27 2.73-8.67 7.83-14.04 9.46l-0.41-0.07-0.16-0.22zm-352.95-1.01c-4.54-5.55 3.21 0.43 0 0zm1.16-1.59c-3.04-4.53 2.37-2.37 2-3.03-2.85-3.81 2.94 0.03 2.21 0.06-1.76 1.64-3.43 2.36-3.82 3.64l-0.39-0.67zm492.29-5.03c-1.19-6.52 2.86-0.78 0 0zm3.18-0.08c-3.82-2.09 2.46-4.43 1.44-1.1-0.5-0.04-1.13 2.18-1.44 1.1zm7.59 0.12c-1.9-1.59-5.45 1.22-2.87-3.37 1.25 3.35 4.73-2.6 3.53 2.38-0.09 0.08-0.1 1.41-0.66 0.99zm-494.97-2.09c-2.46-3.58 1.75-6.28 2.46-1.81-2.97-1.46-0.8 1.96-2.46 1.81zm2.3-4.2c-2.05-2.49 2.96-4.3 2.19-0.44 1.73 0.42-3 2.84-2.19 0.44zm490.41 0.04c-0.68-2.13 1.98-5.7 3.19-1.6 0.14 1.69-2.06 1.72-3.19 1.6zm2.21-1.38c-0.02-3.72-2.03 1.92 0 0zm-12.47 1.04c-1.75-4.5 3.35-3.59 0 0zm1.69 0.07c-0.48-3.48 3.95-3.88 2.21-0.82 1.98 0.75-1.83 1.38-2.21 0.82zm3.54-0.01c1.5-0.2-0.3-4.41 2.83-2.63-2.14 0.21 1.07 3.94-2.83 2.63zm-482.79-1.77c-1.5-6.06 4.97 0.81 0.38 0.72l-0.38-0.72zm283.17-0.39c-0.24-5.23 2.09-10.53 2.68-16.11 1.82 0.31-1.37 9.08-1.28 12.65 1.65 0.21-0.83 4.63-1.4 3.46zm-280.25-0.61c-1.76-3.39 2.05-5.58 2.85-1.62-2.23-1.68-1.7 2.76-2.85 1.62zm422.54-0.68c-2.96-2.13 7.91-0.55 2.27 0.05l-1.24 0.02-1.03-0.07zm1.02-1.82c-2.57 0.33-10.47-0.61-3.56-1.06 0.99-0.84 1.86-7.44-1.31-6.36-5.5-0.97 5.06-1.2 6.53-0.97 3.09-0.44 8.51 0.59 2.37 1.33-1.12 4.13-0.36 6.84 3.99 6.65-2.48 0.92-5.4 0.2-8.02 0.41zm1.67-1.15c-0.12-3.77-5.02-5.2-3.36-0.01 1.11 0.14 2.25 0.15 3.36 0.01zm0.81-2.96c2.23-4.69-6.51-3.86-1.13-0.39 0.13 0.09 0.92 1.07 1.13 0.39zm-422.27 2.87c0.09-1.59 1.25 1.27 0 0zm486.56-1.31c8.42-8.71 16.86-17.52 25.85-25.61-2.7 4.53-7.8 8.01-11.48 12.09-4.76 4.53-9.15 9.47-14.06 13.83l-0.31-0.31zm-118.32-1.5c3.98-3.4 10.2-4.19 15.44-7.19-2.77 2.65-9.43 5.69-13.98 7.5-0.35-0.08-1.42 0.43-1.46-0.31zm50.84-5.07c-2.81-2.24 8.33 0.09 1.03 0.07l-1.03-0.07zm-50.09-5.43c-0.84-3.58-0.85-8.46 3.71-5.02-0.52 2.59-4.16 1.93-3.71 5.02zm2.48-4.07c0.57-2.6-3.9 1.29 0 0zm9.76 3.65c-3.06-2.36 0.78-8.31 3.22-4.86-3.4-0.17-3.35 1.06-1.61 2.27-5.39 1.65 6.53 2.19-0.79 2.63l-0.82-0.04zm6.5-0.94c-1.62-2.61-0.79-6.7 0.38-1.6 1.27 1.32 3.8-6.61 2.18-0.25-0.08 0.83-2.04 4.79-2.56 1.85zm34.49 0.84c-4.7-2.48 2.7-8.37 2.88-4.09-5.06-2.42-1.79 6.56-0.74 1.34 4.04-1.08 0.23 4.78-2.14 2.75zm-25.47-0.97c-2.28-4.75-6.5 4.55-3.88-2.35 2.26-7.7 6.55 5.8 3.88 2.35zm-1.01-2.43c-0.19-2.62-3.24 1.14 0 0zm7.01 2.99c-1.19-3.01 1.27-7.86 0.68-1.61 1.61 1.53 7.18 1.38 1.14 2.07l-1.32-0.08-0.5-0.38zm9.66 0.3c-1.11-4.88 1.24-6.7 4.47-2.5 0.69-8.33 2.86 7.79-1.57 0.77-3.13-5.41-0.68 2.63-2.9 1.73zm23.46-0.39c-1.69-2.71-0.98-6.52 0.5-1.66 0.89-2.63 3.46-4.71 4.38-0.48 2.53-6.05 2.05 1.38-0.24 2.37-1.48-5.22-1.97-2.63-4.19 0.28l-0.45-0.51zm15.75-0.31c-2.45-3.67-3.28-2.93-3.75 0.66-2.03-3.66 0.86-7.36 3.44-2.68 1.36 0.44 1.67-5.38 1.8 0.35 0.13 1.13 0.18 3.86-1.49 1.67zm3.21 0.6c-0.48-3.57 0.61-7.94 5.13-4.37 1.55 3.76-2.18 5.11-5.13 4.37zm3.95-1.19c3.1-5.77-6.4-1.95-1.19 0.3l1.19-0.3zm-84.53 1.1c-1.71-4.07 0.5-7.16 4.39-3.95-0.87 2.32 1.05 5.94-1.88 2.02-2.26-1.21-1.14 2.2-2.51 1.93zm3.55-3.54c-1.88-2.46-3.98 2.07 0 0zm21.99 3.47c-1-3.41 1.3-7.5 0.82-1.37 0.01 0.35-0.19 1.86-0.82 1.37zm9.77 0.05c-0.78-3.3 1.31-7.39 0.85-1.33 0.02 0.13-0.14 2-0.85 1.33zm53.56-0.16c-4.67-3.62 5.69 1.04 0.84-2.23-5.74-3.03 6.39-2.99 0.82-2.03-3.48 0.91 5.69 1.8 0.72 4.16l-1.23 0.32-1.15-0.22zm-18.52-0.22c-0.98-3.95 1.34-6.21 0.75-0.79 0.07 0.34-0.09 1.83-0.75 0.79zm-126.74-5.9c1.51-3.09-4.41-6.73-2.42-8.12 2.59 5.42 4.49 0.5 7.71 0.24-2.85 1.54-3.49 7.33-5.29 7.88zm-22.52-0.06c2.77-2.4-2.42-10.91 4.78-8.35 4.92 2.85 1.61 11.36-4.78 8.35zm4.42-1.53c3.03-4.8-6.46 0.21 0 0zm0.12-3.86c2.2-4.17-6.18 0.91 0 0zm12.29 4.94c-0.78-6.47-6.49-0.74-7.34-0.11-0.03-3.45 3.27-11.08 6.61-6.63 0.02 0.84 3.49 8.89 0.73 6.74zm-1.61-4.5c-0.19-6.05-6.44 1.85 0 0zm89.24-0.18c-5.83-2.25 2.72-2.69 4.86-1.34 2.18-0.18 12.49 0.53 5.39 0.94-3.74-0.47-7.21 0.18-10.25 0.4zm34.04-0.43c-5.03-1.63 3.42-2.69 5.01-1.62 4.07 0.07 10.91-1.69 13.37-0.71-5.55 1.48-12.34 0.29-17.18 2.66l-1.2-0.33zm-60.14-3.04c-5.73-2.5-11.58-0.27-16.01-3.75 2.99-2.27 9.77 3.15 14.73 2.58 0.46-0.38 3.26 1.08 1.28 1.17zm-148.79-3.28c-8.42 0.25-10.85-12.61-2.87-15.29 3.16-3.31 12.45 3.87 4.75 1.23-7.47-2.68-11.48 9.24-4.24 11.88 3.83 2.45 6.83-2.2 9.03-2.77 0.72 3.48-3.98 5.01-6.67 4.95zm170.88-0.63c-1.17-0.98 3.37 0.5 0 0zm-1.26-0.45c0.73-0.33 0.79 0.58 0 0zm4.36-0.02c0.79-0.66 0.81 0.36 0 0zm-149.37-0.41c0.79-0.66 0.81 0.36 0 0zm143.38 0.01c0.35-0.67 1.52 0.83 0 0zm-1.22-0.3c-3.58-2.18-8.32 0.9-11.47-2.11-2.44-0.36-7.36-1.88-1.74-0.9 3.13 1.72 6.35 2.1 10 1.8 0.44-0.89 6.39 2.25 3.21 1.21zm-73.45-0.97c-1.98-0.57-5.95-0.07-5.58-3.32-2.15-4.51 7.67-7.34 5.62-2.92-5.13-4.34-4.82 8.51-1.08 3.5-3.51-2.36 5.31-2.18 2.03 1.48 0.21 0.47-0.16 2.62-0.99 1.26zm85.58 0.13c0.75-0.23 0.37 0.35 0 0zm-71.28-0.73c-5.68-4.01 3.95-12.55 4.35-4.32 0.48 2.33-1.69 5.88-4.35 4.32zm2.36-1.7c3.26-3.22-2.72-7.86-2.45-1.87 0.15 1.37 0.78 3.18 2.45 1.87zm10.12 1.07c-1.61-2.27-5.56-7.38-4.55-1.49-1.13 7.98-3.29-11.68 2.2-3.49 3.51 5.84 1.82-1.78 3.79-1.61 0.05 0.97 1.33 10.45-1.44 6.59zm-62.36 0.74c-0.07-4.18-2.86-10.2 4.22-7.79 2.89 1.27 0.04 5.73 1.15 7.82-2.26-0.47-2.57-7.75-5.37-0.03zm3.86-5.07c1.96-3.68-7.17 0.35-0.83 0.18l0.83-0.18zm22.88 5.02c-1.73-2.38-5.4-7.94-4.51-1.63-1.34 5.05-2.66-11.29 1.95-4.2 2.77 4.78 1.99 0.11 3.07-1.9 0.68 1.11 1.53 8.01-0.51 7.73zm15.87-0.06c-0.53-3.17 0.87-7.25-3.47-7.32 1.97-1.62 11.54-0.24 4.56 1.14-0.82 1.53 0.92 6.12-1.09 6.18zm-50.94-0.23c-3.13-1.75-0.04-12.05-0.01-4.1 0.39 6.84 5.36 0.09 4.41-3.13 1.53 2.7 0.97 9.73-4.4 7.23zm17.03-0.2c-1.01-2.67 0.58-11.63 1-4.21-3.05 4.91 8.83 2.56 3.02 4.64-1.12-0.27-3.2 0.57-4.02-0.43zm8.75 0.12c-1.16-3.26 1.21-10.98 1-3.29-0.11 0.55 0.4 4.57-1 3.29zm109.02 0.15c-3.75-2.23 3.61 0.79 0 0zm-37.13-0.7c-6.02-2.93 6.59 1.29 0 0zm70.43-0.93c0.72-0.77 0.25 0.8 0 0zm-74.18-0.21c0.79-0.66 0.82 0.37 0 0zm-4.56-1.21c0.25-0.8 0.72 0.78 0 0zm-0.92-0.4c-0.78-0.81 1.64 0.75 0 0zm-1.77-0.53c0.75-0.23 0.37 0.35 0 0zm-3-1.73c-4.97-1.71-12.14 0.31-15.87-5.57-4.19-4.03-10.37-5.02-12.45-10.96-4.34-2.9-10.73-6.55-9.9-12.59 0.33-6.27-0.23 4.7 2.64 5.77 3.9 4.68 9.61 7.14 12.47 12.5 6.36 1.69 9.42 8.63 16.02 9.72 2.56-0.78 8.71-0.4 7.85 1.73l-0.76-0.6zm90.79 0.16c3.07-1.97 5.69-1.33 0.83 0.02 0.21-0.21-1.56 0.68-0.83-0.02zm-239.77-1.3c-2.02-1.06 1.23-10.33 0.93-3.79 1.08 1.26 1.2 3.61-0.93 3.79zm252.58-2.08c0.45-1.62 8.33-4.62 2.67-1.06-0.75 0.28-1.77 1.63-2.67 1.06zm-140.56-4.9c-2.19-2.77-8.29-3.18-7.7-6.85 3.85 2.07 7.72 5.97 10.55 8.64-1.03-0.46-1.92-1.16-2.85-1.79zm89.7-0.21c4.19-1.44 11.34-0.55 16.24-2.93 6.52-0.9 13.05-2 19.63-3.98 5.9-0.36 11.01-2.97 12.96-8.48 1.34-1.92 1.95-5.21 1.33-0.79-2.88 5.28-7.01 10.37-13.89 9.82-5.37 0.56-10.63 4.04-16.06 3.42-4.43-0.41-8.83 3.32-13.59 2.68-2.16-0.37-4.64 0.99-6.62 0.26zm-3.52-0.11c-6.08 0.13-11.99-3.36-17.99-3.04-4.93 4.8-11.71 1.14-17.59 0.42-4.91 0.52-6.34-4.51-10.9-3.2-2.92-0.22-4.94-1.44-0.35-0.49 2.82 1.12 5.04-1.93 6.04 2.03 5.49 1.62 11.47 1.95 16.9 3.24 3.81 0.57 6-5.5 9.63-2.7 5.54 2.06 12.07 2.89 17.25 3.25-0.5 0.72-2.21 1.09-2.99 0.49zm61.69 0.17c1.69-1.88 0.56 0.91 0 0zm-259.07-1.27c-0.1-1.64 1.85 0.71 0 0zm3-0.08c-1.89-1.3 3.56-0.06-0.12-1.87 2.6-2.98 7.98-0.02 3.62 1.59-1.02-5.28-0.8 1.47-3.5 0.28zm-16.49-0.15c-1.82-6.01 5.18-0.08 5.44-2.67 2 3.01-2.32 2.92-3.56 1.77-0.51-0.44-1.5 1.92-1.88 0.9zm7.55-0.07c-2.66 0.02 0.11-3.31 1.47-2.09 2.49-0.82 0.57 3.2-0.54 1.97l-0.54 0.41-0.39-0.29zm3.32 0.12c-1.48-5.48 7.25-1.79 0 0zm10.75-0.04c-0.04-5.1 4.71-1 1.55-0.24-0.52-0.81-1.08 0.78-1.55 0.24zm3.49 0.11c-2.35-3.99 4.53-3.94 0 0zm3.77-0.27c-0.24-3.9 5.2-1.66 5.76-1.77 0 2.71-3.7 1.02-5.76 1.77zm1.17-1.01c-0.52-0.73-0.52 0.72 0 0zm-2.91 1.07c-0.26-4.8 3.02-0.94 0 0zm248.26-3.38c0.49-1.38 0.43 0.76 0 0zm-182.97-1.03c-0.09-4.61 6.7-6.34 10.95-7.6 2.6-1.56 11.97 4.76 4.89 1.6-6.1-2.66-11.84 1.44-14.99 6.04l-0.46 0.12-0.39-0.16zm67.65-1.45c-1.29-3.43-8.85-4.66-7.97-6.98 0.99 2.4 9.18 5 7.97 6.98zm-159.31-0.1c-1.27-2.25 4.21 0.43 0.31-1.79 2.23-4.72 4.79 4.12-0.31 1.79zm2.08-2.01c-0.5-0.73-0.24 0.74 0 0zm1.7 1.74c0.07-4.43 3.59-2.59 0.98-0.65 3 0.34 0.26 1.5-0.98 0.65zm7.43-0.02c0.29-4.81 4.87-1.51 2.33-0.05-0.73-1.52-2.02 1.01-2.33 0.05zm4.37 0.16c-2.53-2.99 3.37-3.71 0.99-1.68 1.79 0.3 0.51 2.82-0.99 1.68zm-8.1-0.31c-1.75-4 2.19-1.06 3.94-2.25-1.47 4.18-2.1 0.84-3.94 2.25zm10.57 0.12c-1.26-3.28 4.22-3.28 1.69-1.69-1.31 0.85 2.28 2.07-1.69 1.69zm257.82-0.66c2.12-3.41 0.51 1.59 0 0zm-59.51-0.78c-1.27-3.11-0.58-7.11 1.69-7.88 1.41 2.46 1.43 6.76-1.69 7.88zm61.72-1.53c1.43-1.49 1.57-0.7 0 0zm2.1-2.99c1.15-4.1-3.45-7.8-2.74-10.57 1.95 2.62 4.83 8.25 2.74 10.57zm-549.88-1.65c2.41-2.95 11.236 1.76 11.785-3.81 2.19 4.03-1.997 4.37-4.77 3.94-2.338-0.01-4.683 0.04-7.015-0.13zm18.035 0.02c-2.31-2.16 7.01-0.85 9.05-1.17 2-0.84 1.36-6.76 2.03-0.58-0.75 3.58-8.4 0.9-11.08 1.75zm23.35 0.08c-2.39 0.59-11.87-0.87-4.75-1.32 3.63 0.62 6.82 0.14 6.9-3.25 0.54 2 1.14 5.31-2.15 4.57zm91.39-1.12c2.19-2.65 12.55 2.34 11.44-4.71 2.86 7.41-7.38 4.33-11.44 4.71zm17.7-0.12c1.72-1.9 10.51 1.21 9.72-4.36 2.49 7.44-5.75 3.64-9.72 4.36zm15.4-0.18c2.07-1.34 6.32-0.49 9.29-0.78 0.48-1.14 1.1-6.37 1.46-1.43 0.97 4.53-8.38 1.74-10.75 2.21zm16.2 0.13c0.74-2.51 11.42 1.95 9.98-4.66 3.32 7.62-6.01 3.89-9.98 4.66zm15.76 0.04c2.37-2.32 11.93 1.57 11.26-4.77 3.21 7.92-7.39 3.73-11.26 4.77zm221.12-0.34c-0.18-1.98 1.21 2.07 0 0zm-204.84-0.05c3.55-1.99 12.05 2.11 11.87-4.04 2.36 7.25-8.19 3.46-11.87 4.04zm203.05-0.89c-5.11-3.76 4 1.28 0 0zm116.45-1.34c-1.88-5.16 0.06-5.6 0 0zm-50.87-1.42c-2.92-5.95 6.56-7.99 9.98-10.71 0.44-7.15-8.86-1.5-9.93-3.07 3.46-4.67 14.22-2.23 11.33 4.43-2.42 2.94-11.05 2.92-9.68 7.72 2.4 1.44 11.45-2.52 9.23 1.63-3.63 0.28-7.3 0.1-10.93 0zm-68.98-1.39c-0.38-1.67 1.11 1.45 0 0zm-396.71-0.92c2.92-2.86 12.6 1.94 11.68-5.01 2.92 7.68-7.46 4.49-11.68 5.01zm17.13 0c-0.34-3.1 10.6 2.01 9.09-4.42 3.52 6.91-5.66 3.86-9.09 4.42zm-34.372-0.12c0.98-3.46 12.682 2.33 11.672-4.59 4.02 7.61-7.862 3.76-11.672 4.59zm140.79-0.21c-2.2 0.24-13.94-0.41-6.26-1.02 4.19-0.34 10.43 1.66 9.77-4.21 1.15 2.89 0.44 6.17-3.51 5.23zm9.23-0.26c-2.28-2.77 12.3 2.53 9.76-4.53 2.34 1.78 0.03 6.66-4.07 4.63-1.9 0-3.8 0.02-5.69-0.1zm15.22-0.14c2.83-2.41 12.38 2.28 10.74-5.18 2.54 3.16-0.64 7.03-5.06 5.37-1.89-0.03-3.8 0.15-5.68-0.19zm247.6-0.28c-1.23-2.6 1.91 2.08 0 0zm-231.5 0.18c4-1.84 11.75 1.45 10.98-5.23 3.03 7.65-6.63 5.25-10.98 5.23zm16.96 0c1.88-2.51 12.28 2.32 10.74-4.97 3.47 7.31-6.36 4.82-10.74 4.97zm21.04 0.09c-2.89 0.57-7.53-0.97-1.91-0.85 4.25 0.34 8.91 0.54 8.7-4.02 2.17 6.38-2.69 4.71-6.79 4.87zm313.72-1.06c-5.47-3.1 3.24 0.49 0 0zm-122.28-1.12c-0.7-1.35 1.41 1.21 0 0zm137.02-1.36c-0.71-4.5-1.61-9.12-4.25-12.86 3.52 2.99 4.29 11.18 4.25 12.86zm-17.38-0.99c-3.43-2.82 1.24-0.37 0 0zm-482.78-0.91c0.37-4.75-2.49-13.62 1.49-15.85 4.79 1.08 14.01-2.81 15.94 2.05-0.67 5.48 3.39 16.73-5.99 14.1-3.79-0.14-7.71 0.32-11.44-0.3zm9.23-0.92c4.5 0.56 8.89 0.39 7.17-5.37 0.63-4.94 0.68-10.56-5.97-8.46-4.84 0.1-12.1-1.79-9.72 5.59 0.93 2.78-2.36 9.74 2.84 8.29 1.9-0.02 3.79-0.04 5.68-0.05zm-8.01-2.18c-0.98-2.72 2.96-2.88 4.44-1.65 1.6-0.51 1.1 0.5 2.86-0.35-0.2 3.84-5.45 0.73-7.3 2zm3.73-1.05c-0.52-0.73-0.52 0.73 0 0zm7.92 1.02c-3.59-1.02 3.46-4.28 0.71-0.88 1.27 0.68 0.17 1.16-0.71 0.88zm-3.85-0.2c-0.5-5.54 6.06 0.4 0 0zm-6.8-5.34c-2.9-5.08 7.38-2.29 7.59-2.03 0.99 2.17-2.46 2.51-2.64 0.29-1.61 4.69-2.11-2.08-4.95 1.74zm9.45-0.34c-2.26-4.57 4.39-2.18 0 0zm476.42 7.45c-5.02-4.35-0.57-10.09-3.58-15 0.44-5.45-6.28-11.72 0.12-16.27 3.79-5.02 4.61-12.72 1.6-18.36-0.12-6.538-6.51-10.263-6.59-16.5 3.57-4.266-0.16-11.715 5.56-15.677 3.18-4.628 8.4-8.158 13.18-10.511-4.99 3.729-10.18 7.55-13.71 12.909-3.42 4.774-1.94 10.902-3.9 15.827 3 4.593 5.64 8.698 6.51 14.502 2.66 5.41 1.78 12.67-1.34 17.77-6.46 3.98-1.1 10.26-0.68 15.21 2.9 5.55-1.48 12.05 3.83 16.72l-0.25-0.04-0.75-0.58zm-536.05-0.36c1.1-2.4 8.849 0.02 11.42-1.48 0.101-7.18 3.534 4.22-2.018 1.65-3.132 0-6.28 0.1-9.402-0.17zm18.724-0.06c-0.15-2.29 6.15-0.69 8.72-1.14 1.96 0.57 1.21-6.48 2.09-1.23 0.24 4.26-4.96 1.88-7.47 2.51-1.11-0.03-2.23 0.01-3.34-0.14zm15.84-0.25c1.58-2.63 10.31 1.59 9.07-4.62 3.76 7.14-5.11 4.56-9.07 4.62zm96.83-0.03c1.66-1.45 6.97-0.48 10.15-0.82 4 2.19 1.46-8.52 3.4-2.89 1.92 6.93-9.85 2.51-13.55 3.71zm21.01-0.02c-8.03-0.8 4.82-0.83 7.18-1.2-0.15-2.45 0.94-7.14 1.22-1.82 1.34 5.13-5.71 2.37-8.4 3.02zm17.76 0.01c-2.25 0.38-8.94-0.56-3.07-0.88 5.02 0.54 10.02 0.29 9.58-4.91 1.47 6.87-0.57 6.13-6.51 5.79zm10.87-0.39c2.81-1.31 7.35-0.42 10.91-0.68-0.57-2.42 1.04-7.02 0.96-1.88 0.98 5.17-9.12 2.2-11.87 2.56zm16.33 0.08c2.98-1.54 12.52 0.86 12.26-4.2 2.21 7.38-8.37 3.36-12.26 4.2zm331.83-0.4c-2.67-1.75 0.51-1.43 0.58 0.23l-0.58-0.23zm-1.12-5.54c1.66-5.49-1.37-9.86-2.91-14.51-1.47-1.98-4.87-7.13-2.31-6.21 2.07 5.13 5.84 10.26 6.49 16.19 0.02 0.6 0.03 5.72-1.27 4.53zm-527.87-0.85c0.64-3.2 12.281 2.29 11.265-3.73 1.556-3.1 2.036 6.41-2.124 3.78-3.047 0.01-6.096 0.06-9.141-0.05zm18.481-0.01c0.44-3.29 12.21 2.16 10.28-5.3 3.41 7.18-5.91 5.21-10.28 5.3zm17.35 0c-4.21-2.79 10.7 1.5 7.43-5.11 2.45 2.37-0.33 6.7-4.34 5.1-1.03 0.01-2.06 0.04-3.09 0.01zm107.92-0.6c-3.06-0.68-12.04 0.72-11.94-0.89 3.16-1.61 11.34 2.25 11.79-1.41-0.53-7.65 2.81 1.88 0.15 2.3zm5.33-0.31c1.41-1.35 6.51-0.47 9.51-0.76 2.06-0.13 0.67-8.45 1.98-1.98 1.22 5.21-8.7 2.04-11.49 2.74zm20.98 0.11c-3.39 0.64-8.01-1.18-1.83-0.9 4.89 0.9 8.13 0.25 8.04-4.53 1.88 6.04-1.03 5.93-6.21 5.43zm11.29-0.26c1.41-2.2 12.2 2.09 10.86-4.87 3.9 8.05-6.91 4.03-10.86 4.87zm17.43 0.04c-3.86-1.28 6.21-0.67 7.96-0.89 2.78 1.23 1.49-7.37 2.82-1.57 0.73 4.77-8.23 1.52-10.78 2.46zm32.94-0.32c2.72-2.19 11.97 2.38 10.78-4.38 2.64 2.79 0 5.99-3.54 4.66-2.41-0.07-4.87 0.21-7.24-0.28zm63.96-6.68c-0.81-3.46-5.51-1.22-0.84-4.11 3.46-1.87-0.18 2.5 1.31 4.23l-0.24 0.03-0.23-0.15zm-151.95-0.19c-3.96-0.81-10.59 0.39-13.14-0.86 3.93-2.33 13.85 3.27 13.16-3.24 1.2-0.81 1.4 4.72-0.02 4.1zm-143.17-0.14c-2.223-2.39 8.909 0.37 10.703-1.67-0.213-7.14 3.998 4.06-1.182 1.8-3.173 0-6.351 0.03-9.521-0.13zm17.711-0.35c2.56-1.95 11.04 0.89 10.79-4.02 3.23 7.48-7.1 3.46-10.79 4.02zm18.01 0.17c-5.01-2.56 9.34 1.21 7-3.82 4.04 4.97-3.76 3.71-7 3.82zm139.28-0.05c-2.26-0.47-11.41 0.42-9.15-0.93 4.17 0.3 9.53 0.3 10.14-2.9-0.13 1 0.9 4.43-0.99 3.83zm-26.11-0.23c3.6-1.66 11.45 1.27 10.76-4.94 3 7.72-6.56 4.51-10.76 4.94zm32.1-0.3c3.21-1.33 11.28 1.21 10.89-4.21 0.91 3.04 0.4 5.48-3.13 4.46-2.58-0.06-5.21 0.24-7.76-0.25zm60.46 0.23c-2.46-0.03-15.15-0.39-7.23-1.13 2.01-0.81 6.89 1.33 7.2-1.19 0.17-5.62 2.85 2.72 0.03 2.32zm-27.35-0.29c2.81-1.95 11.19 1.31 11.48-3.47 1.75 4.66-2.72 3.64-5.48 3.66-1.99-0.03-4.01 0.05-6-0.19zm82.5-0.13c-0.53-2.52 2.91 0.53 0 0zm246.2-1.03c-0.84-2.13-4.36-8.51-0.86-3.11 0.49 0.26 2.27 3.49 0.86 3.11zm-243.59-0.31c-1.51-2.42-2.04-3.93 0.91-3.11 0.33-5.58 4.99 4.05 0.42 1.02-0.98 0.01-0.34 3.04-1.33 2.09zm4.18-2.71c0.2-2.82 2.21 1.73 0 0zm3.26-3.47c-2.5-4.32 4.46 0.35 2.69-3.92 2.63 1.91 1.74 5.78-1.79 3.05 1.26 1.63-0.09 4.06-0.9 0.87zm246.21 1.6c-2.59-2.52 1.02-9.68 0.36-1.99 2.48 4.22 3.26-6.68 3.7 0.17 4.67 1.48 0.44 2.27-2.76 1.9l-1.3-0.08zm-554.06-0.31c2.116-3.31 13.03 2.59 12.024-4.51 4.356 6.52-7.31 4.59-11.398 4.62l-0.626-0.11zm22.17-0.09c-3.36 0.57-7.08-1.26-1.53-1.16 2.37-0.69 6.77 1.04 8.17-0.77 0.11-7.49 3.36 4.82-2.3 1.95-1.45 0.01-2.89-0.01-4.34-0.02zm12.55-0.32c0.73-2.5 9.8 1.2 9.71-3.46 2.01 6.22-6.63 2.89-9.71 3.46zm505.3 0.08c-1.82-2.56 2.33 0.82 0 0zm-401.06-0.11c-2.39-0.11-14.22-0.27-5.91-1.23 3.09-1.28 10.31 2.14 10.97-1.48 0.37-6.26 2.96 5.12-0.81 2.2-1.37 0.39-2.83 0.56-4.25 0.51zm86.99-0.36c-2.78-0.29-16.19-0.46-7.24-1.2 4.08 0.26 8.39 0.54 7.42-4.7 1.05 0.25 1.36 6.43-0.18 5.9zm-77.57-0.08c2.07-3.12 14.06 2.87 11.56-4.98 1.73-2.25 2.34 7.72-2.15 5.02-3.14 0.02-6.28 0.11-9.41-0.04zm20.31-0.07c-6.19-0.03-1.28-1.28 1.94-0.85 3.58 0.58 6.77 0 5.53-4.48 2.55 0.72 1.04 8.13-3.6 5.42-1.29-0.02-2.58-0.05-3.87-0.09zm63.81-0.3c0.12-1.89 6.34-0.56 9.01-0.92 2.23 0.66 0.5-7.65 2.22-2.6 1.63 6.14-7.87 2.91-11.23 3.52zm80.68-1.69c-4.36-5.43 6.57-3.36 1.01 0.34l-0.52-0.06-0.49-0.28zm1.35-1.35c0.62-3.72-2.88 0.67 0 0zm225.37 1.02c1.25-2.93 0.9-0.41 0 0zm-223.31-1.9c0.1-3.28 2.69 1.57 0 0zm225.65-1.54c1-3.18 1.65-0.5 0 0zm26.79-0.02c-3.54-5.89 5.39-9.96 7.79-4.56 1.62 7.69-3.49 3.07-7.79 4.56zm2.43-1.73c1.84-5.46-4.03-3.02-0.87 0.2l0.87-0.2zm3.93-0.06c2.73-6.02-6.03-2.85-1.12 0.25l1.12-0.25zm-256.79 0.29c1.12-2.42 7.15-3.48 2.31-0.7-0.35-0.04-2.13 1.81-2.31 0.7zm235.04-0.28c0.99-2.41 8.55 0.93 6.42-4.83 1.6-3.55 2.29 8.41-2.94 5.04-1.15-0.05-2.38 0.26-3.48-0.21zm-10.02-0.61c2.42-1.96 1.48-12.64 2.59-5.04-0.02 1.35-1.98 5.75-2.59 5.04zm-216.52-1.74c-3.58-2.72 2.79-5.99 1.01-3.47 2.91-0.12 1.28 4.7-1.01 3.47zm1.54-1.87c-1.17-1.94-1.16 2.87 0 0zm199.62 1.03c-0.16-1.52 2.84-2.07 0 0zm-196.96-1.87c-1.99-2.89-0.06-5.36 0.65-1.07 0.29 0.43 0.12 2.72-0.65 1.07zm177.38 0c-3.87 2.06-10.31-2.6-4.7-5.7 5.55-0.38 0.51-0.89-1.52-1.37 4.4-4.58 7.89 2.03 7.7 5.68 2.15 0.62-0.7 2.65-1.48 1.39zm-1.82-1.83c1.24-7.17-7.63 1.38 0 0zm-19.45 1.91c-4.58-4.57 5.69-8.88 9.33-10.48 1.15-6.078-7.16-4.04-9.77-2.67 2.4-7.261 16.9-1.06 9.54 4.9-3.1 0.09-13.01 6.52-5.62 6.59 3.32-0.98 11.24 1.42 3.69 1.68-2.39 0.02-4.78 0.04-7.17-0.02zm42.26-0.7c0.83-2.53 0.1 2.23 0 0zm45.74-0.63c-4.11 0.06-10.15-4.75-3.54-6.53 2.48-1.9 7.74 0.29 2.31 0.83-5.51 2.68 5.69 6.28 1.23 5.7zm-3.18-3.84c-0.96-3.49-4.2 2.2-0.02 0.92l0.02-0.92zm-16.7 1.5c-7.78-4.26 6.75-9.45 5.55-1.64-1.05 1.99-3.68 1.71-5.55 1.64zm2.64-1.27c6.45-3.24-7.94-4.96-2.49-0.02l1.21 0.2 1.28-0.18zm-26.58-0.03c0.77-2.89 0.18 2.36 0 0zm0.07-1.72c-1.41-3.92-0.45-5 0.33-0.41l0.02 0.93-0.35-0.52zm13.61-0.61c-1.57-3.48-0.16-4.89 0.12-0.52l0.02 0.88-0.14-0.36zm23.58-3.25c1.8-2.31 4.2-3.94 0.06-6.029 0.46-1.623 6.5 2.629 7.82 3.569-3.53-1.17-5.14 2-7.88 2.46zm-38.45-0.59c-1.08-1.96 1.34 0.39 0 0zm24.72-0.57c-5.45-3.21 1.91-7.783 4.96-4.823 3.68 3.783-1.66 6.223-4.96 4.823zm4.34-1.34c2.86-5.444-10.2-1.94-3.02 0.29 0.93-0.11 2.23 0.52 3.02-0.29zm-14.42 0.31c0.04-2.65 0.72 0.96 0 0zm-14.78-0.8c0.18-1.07 0.49 1.06 0 0zm13.81-1.41c-0.8-2.135 1.2 1.06 0 0zm-15.9-2.07c-2.25-3.035 2.08-1.563 0 0zm15.84-0.392c-0.9-2.027 0.97-0.147 0 0zm-17.75-1.509c-2.08-2.057-3.14-6.478-0.46-1.525-0.17 0.503 2.51 2.335 0.46 1.525zm17.95-0.322c-1.13-5.406-6.46-9.614-4.52-15.482 2.19-5.689 6.32-9.984 10.88-13.942 2.31-1.329 10.38-9.614 5.24-3.126-5.55 3.271-9.63 8.692-13.47 13.598-4.09 5.22-1.76 11.248 1.44 16.104 0.51 0.844 1.27 1.91 0.43 2.848zm15.89-0.49c-3.79-0.635-9.69 0.951-6.11-5.209 4-4.188 10.57 3.42 6.11 5.209zm-0.46-1.927c2.8-5.489-9.99-1.744-3.61 0.173 1.21-0.02 2.41-0.035 3.61-0.173zm-37.23-2.935c-1.08-2.978-2.05-7.829 1-10.609 1.95-6.218 3.26-12.851 9.53-16.312 4.84-3.999 10-8.608 15.66-10.888-4.29 3.887-9.7 6.159-13.63 10.387-6.99 3.609-8.66 10.731-10.84 17.537-4.24 2.409 0.46 8.718-1.72 9.885zm-518.52-5.888c-3.583-4.475 5.193-7.124 3.333-0.952-0.519 1.334-2.218 1.705-3.333 0.952zm1.894-0.564c3.156-5.4-5.146-2.999 0 0zm3.609 0.731c-4.267-2.866 4.791-0.026 0.747-2.608-5.238-1.867 4.734-3.095-0.01-1.711 0.529 0.893 5.154 3.665-0.737 4.319zm-10.641-0.165c-2.997-4.091 2.171-8.373 3.813-3.257-1.826 1.239-3.653 0.64-3.394 3.445l-0.419-0.188zm2.643-4.176c-4.507-1.341-0.216 2.494 0 0zm11.929 4.121c-2.602-3.424 4.39 1.169 1.26-2.391-3.943-3.384 6.7-2.273 0.11-1.215 3.39 1.379 2.06 4.947-1.37 3.606zm6.07 0.101c-0.86-2.388 0.59-8.041 0.88-2.495-0.14 0.465 0.32 3.131-0.88 2.495zm10.27-0.014c-1.88-2.113 0.58-8.78 0.37-1.719 0.8 1.024 4.59 1.605 0.49 1.805l-0.86-0.086zm4.7-0.071c-1.29-2.917 0.5-7.886 3.47-4.916-4.11 0.093-2.16 1.834-0.75 2.59-5.81 0.578 5.09 2.834-2.16 2.452l-0.56-0.126zm10.84 0.033c-3.08-2.758-0.3-1.246 1.41-1.065 1.01-1.944-5.42-3.11 0-4.413 4.2 0.36-4.68 1.765 0.54 2.046 1.92 1.408 0.16 4.179-1.95 3.432zm4.89-0.003c-3.78-2.674 2.67-7.894 3.1-4.28-3.61-0.151-1.67 0.839-0.77 2.043-5.77 0.922 5.04 2.132-1.43 2.373l-0.9-0.136zm-27.69-0.211c-0.69-3.979 1.1-7.501 4.91-4.032 1.26 3.837-1.84 4.833-4.91 4.032zm3-0.87c3.57-2.143-4.56-0.109 0 0zm0.34-2.361c3.49-2.589-5.59 0.208 0 0zm36.54 3.224c0.87-1.587 3.25-7.635 5-4.123 2.35 4.602 1.22 4.243-2.15 2.053-1 0.158-1.84 3.008-2.85 2.07zm4.06-3.406c-0.85-2.585-1.46 1.977 0 0zm3.92 3.387c-3.32-1.991 1.99-7.53 3.02-4.247-4.99-1.321-1.15 6.555-2.11 1.833 4.4-1.52 2 4.373-0.91 2.414zm5.59 0.032c-2.37-3.435 1.87-7.374 3.97-4.502-3.58-0.226-3.68 1.594-0.84 2.499-6.21 0.402 4.52 2.598-2.43 2.155l-0.7-0.152zm11.07-0.017c1.04-3.135-1.36-4.394-2.69-4.989 4.59-0.701 13.38-1.445 9.61 4.94-1.48-4.218-3.81 2.804-3.36-3.291-3.25-4.095-1.9 3.324-3.56 3.34zm6.37-3.502c0.37-2.749-3.66 1.579 0 0zm2.94 3.547c-1.77-3.747 1.66-7.482 4.4-4.626-3.64-0.571-4.13 1.544-1.7 2.336-5.45 0.83 4.23 2.273-1.05 2.452l-1.09-0.064-0.56-0.098zm-40.38-0.267c-1.09-2.718-1.52-7.053 0.81-2.375 1.45-3.354 2.73-1.393 3.82-0.485 5.18-6.747-1.2 7.831-2.19 0.513-1.02 0.152-1.16 3.271-2.44 2.347zm45.27-0.061c-0.39-4.805 5.05-6.87 4.7-1.064 0.02 2.527-3.1-3.526-4.29 1.301l-0.24 0.024-0.17-0.261zm3.14-2.918c0.58-2.746-2.51 0.657 0 0zm13.95 2.903c0.45-5.295-2.97 3.042-3.81-2.275-1.42 6.835-2.06-8.059 0.94-0.938 0.87 3.399 4.14-5.91 3.77 1.178 0.03 0.009 0.03 3.342-0.9 2.035zm3.06 0.021c-2.45-3.815 2.03-7.142 4.21-4.485-3.93-0.347-3.79 1.453-1.37 2.529-6.04 0.516 4.43 2.071-0.97 2.264l-1.18-0.093-0.69-0.215zm5.73-0.055c-1.3-3.772 1.24-7.24 3.25-2.321 2.01 2.809 1.2-6.443 2.09 0.079 0.33 6.485-5.88-5.472-4.68 2.057 0.05 0.295-0.65 0.947-0.66 0.185zm-17.7 0.024c0.36-2.438-0.33-4.452-2.35-4.664 2.77-0.618 6.81-0.449 3.25 1.577-0.39 0.539 0.51 3.55-0.9 3.087zm44.69-0.09c-1.14-3.11 0.8-7.938 0.58-1.667 2.77 1.358 5.24 1.981-0.58 1.667zm-18.25-0.543c1.36-3.618-4.93-4.882 1.19-4.694 3.17 0.363-2.59 1.821-0.5 4.641 0.1 0.686-0.82 0.821-0.69 0.053zm29.78 0.406c-0.99-3.456 0.74-7.433 2.86-2.259 1.39 1.914 0.91-6.071 1.69-1.026 0.93 4.839-1.99 2.987-3.48 0.486-1.01 0.256 0.6 3.552-1.07 2.799zm8.03-0.013c1.37-2.993-2.2-4.692-1.93-5.437 1.91-0.725 7.37 0.493 2.56 1.182-0.53 1.061 0.47 3.874-0.63 4.255zm9.22-0.19c-3.37-3.255 5.47-0.288 0.83-2.499-4.35-3.554 7.39-2.689 0.76-1.692 1.15 0.838 4.41 3.924-0.59 4.535l-0.56-0.071-0.44-0.273zm14.19 0.203c-1.44-3.762 0.73-8.071 4.47-5.031-3.17-0.389-5.54 2.024-1.14 2.58-7.28 0.994 4.68 2.357-1.31 2.603l-1.34-0.024-0.68-0.128zm20.68-0.042c-0.47-5.577 6.98-8.017 6.12-1.226 0.46 2.388-4.65-3.577-5.62 1.365l-0.27 0.053-0.23-0.192zm4.41-3.103c0.26-4.189-4.68 1.261 0 0zm-74.94 1.09c-1.47-3.451-0.76-3.541 3.17-3.154 4.72 2.427-2.5 4.227-3.11 4.84l-0.05-0.603-0.01-1.083zm3.65-0.927c0.13-3.781-5.7 0.943-0.51 0.226l0.51-0.226zm8.1 2.693c-1.09-3.689 3.56-7.967 4.38-2.537 0.79 6.781-1.17-2.725-4.38 2.537zm3.43-3.161c-2.79-2.921-0.93 2.984 0.01 0.024l-0.01-0.024zm26 2.943c-0.63-3.407 0.95-7.369 0.74-1.563 0.03 0.424 0.12 3.098-0.74 1.563zm15.54 0.225c-3.67-3.36 4.06 1.635 2.35-2.376-6.19 0.909-0.26-6.075 0.82-1.596-2.81-1.652-3.89 1.261-0.19 1.322 1.64 2.065-1.23 3.473-2.98 2.65zm27.29 0.026c2.27-2.122-2.74-6.728 2.4-5.446 6.52-0.63 2.85 8.491-2.4 5.446zm4.61-1.338c-0.39-3.166-5.81 1.931-0.44 0.278l0.44-0.278zm-0.59-1.88c3.32-2.602-6.6-0.148 0 0zm-42.59 3.17c1.65-3.931-4.94-5.888 1.46-5.221 2.35 0.241-2.9 2.473-0.93 5.068l-0.29 0.194-0.24-0.041zm55.73-0.398c-4.45-3.024 4.65-6.99 3.21-3.782-4.92-1.408-3.08 5.873 0.74 2.087-0.03 2.222-2.4 2.188-3.95 1.695zm-21.58-1.811c-1.49-2.202 4.8 0.703 0 0zm15.31-0.237c-0.31-2.142 4.25 1.076 0 0zm-243.41-8.028c-2.094-3.297 0.763-7.305 3.7-3.902 0.227 2.411-3.808 1.921-3.7 3.902zm2.289-2.942c0.708-2.72-3.927 0.543 0 0zm2.693 2.759c-4.04-5.542 7.086-5.372 2.419-0.021-0.713 0.472-1.696 0.479-2.419 0.021zm2.087-1.073c1.481-7.744-5.06 2.451 0 0zm17.093 1.139c-0.63-1.643-1.1-6.979 3.44-4.694 2.66 2.493-0.06 5.952-3.44 4.694zm2.98-1.212c-0.88-1.993-3.51 1.209 0 0zm0.22-2.271c-3.33-2.804-2.36 3.148 0 0zm37.81 3.565c-5.72 1.181-2.34-8.561 0.74-4.4-3.66-0.383-2.24 1.613-1.05 2.294-5.43 1.209 4.78 0.971 0.31 2.106zm-55.173-0.489c-1.456-1.406 5.353-0.755 0.799-1.891-3.107-2.916 5.854-2.746 0.369-1.102 4.445 0.188 1.848 4.861-1.168 2.993zm5.183 0.14c-3.038-1.913 5.46 0.143 1.43-2.08-4.82-1.941 5.76-3.51-0.21-1.094 3.77 0.227 2.15 4.943-1.22 3.174zm15.26 0.1c-1.15-3.709 1.12-6.357 0.99-1.097 5.44 0.666 1.44 1.669-0.99 1.097zm5.24 0.057c-2.37-2.926 2.01-6.961 3.34-4.027-3.25-0.526-3.32 1.827-0.28 1.824-3.27 0.549-2.05 1.717 0.59 1.871-0.85 1.007-2.58 0.336-3.65 0.332zm-15.02-0.305c-1.32-3.288 1.08-6.673 0.85-1.14 0.09 0.432 0.02 1.852-0.85 1.14zm23.2 0.05c-0.64-1.523-0.9-6.628 0.71-2.59 2.29-4.412 2.6 3.143 4.41-1.827 0.98 2.372-2.82 6.059-3.41 2.345-0.53 0.389-0.79 2.56-1.71 2.072zm50.3-0.015c-0.81-4.195-4.28 2.649-3.18-3.216-0.39-3.602 7.27-1.091 3.18 3.216zm-0.38-3.019c0.51-3.115-3.79 1.674 0 0zm-35.65 2.918c1-3.064-4.59-5.237 1.12-4.498 3.92 0.109-2.07 2.032-0.83 4.653l-0.29-0.155zm19.41-0.09c-0.98-2.208-0.9-6.274 0.79-2.181 2.17-4.316 3.02 1.423 5.55-2.142-0.72 3.619-3.28 4.964-4.01 1.995-0.73 0.533-1.21 3.365-2.33 2.328zm8.12-0.235c-3.16-4.655 6.26-5.484 2.8-0.398-0.7 0.693-1.95 1.093-2.8 0.398zm2.04-0.946c2.76-6.328-5.26 1.542 0 0zm9.92 1.3c-0.68-1.549 0.16-6.417 1.69-3.199 3.09-2.197 2.62-1.492 1.41 0.967 1.88 5.017-1.96-2.178-2.78 2.351l-0.32-0.119zm6.67-0.076c-3.05-1.955 6.19-1.125 0.05-2.22-2.62-3.426 7.16-2.13 0.74-1.464-0.26 0.964 5.66 2.023 0.66 3.775l-1.45-0.091zm10.96 0.034c-3.45-2.079 6.57-0.886 0.53-2.2-4.03-3.913 7.17-2.606 0.28-1.86-1.03 1.681 6.03 1.553 1.26 3.883l-1.06 0.246-1.01-0.069zm10.58-0.074c0.23-2.418-0.82-3.948-2.56-4.425 2.48-0.561 8.02-0.457 3.38 1.672-0.24 0.378 0.32 3.485-0.82 2.753zm3.94-0.056c-2.78-3.827 3.56-6.497 4.14-3.881-3.25-0.393-3.68 1.184-1.47 2.098-5.46 0.824 5.12 1.842-0.78 2.081l-1.27-0.092-0.62-0.206zm-79.65-0.251c0.64-5.052 6.44-5.158 5.57 0.239-1.82-2.153-4.45-1.222-5.57-0.239zm3.92-2.486c-1.46-2.707-2.85 2.975 0 0zm14.66 2.713c-1.44-3.548-0.56-5.878 3.34-3.626-0.52 2.724 0.75 4.14-2.35 2.64-0.17 0.393-0.36 1.469-0.99 0.986zm2.37-2.717c-0.58-1.953-2.76 1.602 0 0zm50.01 1.475c-0.85-6.924 2.85 0.189 0.1 1.138l-0.1-1.138zm15.52 1.074c-3.55-2.318 5.41-0.012 0.58-2.022-4.43-2.981 6.22-3.139 0.36-1.648 1.33 0.236 3.94 3.845-0.17 3.915l-0.77-0.245zm18.65 0.052c-1.31-1.344-0.8-7.208 0.9-4.34-0.27 0.775 0.86 5.321-0.9 4.34zm8.5-0.02c-0.58-2.642 4.49-4.354 0.33-4.394 3.46-2.514 3.67 2.239 0.67 3.101 4.25 0.727 4 1.65-1 1.293zm12.92 0.023c-3.08-2.3 5.81-0.718 1.39-2.636-1.43 0.211 0.67-1.968-1.19-2.407 3.67-2.484 5 7.338-0.2 5.043zm-17.81-2.293c0.9-1.742 2.96 1.344 0 0zm12 0.024c1-2.38 2.97 1.519 0 0zm381.28-14.486c1.91-2.651 3.96-3.661 0.87-0.082-1.11 1.439-3.37 2.031-0.87 0.082zm12.94-1.979c2.64-3.239-1.6 3.293 0 0zm-585.97-0.833c0.747-0.23 0.373 0.353 0 0z"></path></g><metadata></metadata></svg> 