<?xml version="1.0" encoding="UTF-8" standalone="no"?> <!-- Generator: Adobe Illustrator 12.0.1, SVG Export Plug-In . SVG Version: 6.00 Build 51448) --> <svg xmlns:rdf="http://www.w3.org/1999/02/22-rdf-syntax-ns#" xmlns="http://www.w3.org/2000/svg" xmlns:cc="http://web.resource.org/cc/" xmlns:xlink="http://www.w3.org/1999/xlink" xmlns:dc="http://purl.org/dc/elements/1.1/" xmlns:svg="http://www.w3.org/2000/svg" xmlns:inkscape="http://www.inkscape.org/namespaces/inkscape" xmlns:sodipodi="http://sodipodi.sourceforge.net/DTD/sodipodi-0.dtd" xmlns:ns1="http://sozi.baierouge.fr" id="Layer_1" xml:space="preserve" overflow="visible" viewBox="0 0 359.477 309.209"> <g> <path clip-rule="evenodd" d="m303.53 265.54s-9.147 5.336-19.055 5.336c-9.906 0-28.962 3.809-37.345 3.809-8.381 0-32.008 1.527-39.63 1.527-7.621 0-25.913-3.049-32.009-3.049-6.098 0-26.675-5.332-26.675-5.332s-5.336 4.57-5.336 9.902c0 5.336 2.29 17.53 2.29 17.53l-3.05 11.422h174.53s0.389-12.9-4.573-16.758c-1.713-1.333-3.237-3.573-4.535-6.168-1.218-2.434 0.752-5.702-0.037-8.31-1.73-5.74-5.35-10.3-4.57-9.91" fill-rule="evenodd"></path> <path stroke="#000000" stroke-width="5.0481" stroke-miterlimit="11.5" d="m303.53 265.54s-9.147 5.336-19.055 5.336c-9.906 0-28.962 3.809-37.345 3.809-8.381 0-32.008 1.527-39.63 1.527-7.621 0-25.913-3.049-32.009-3.049-6.098 0-26.675-5.332-26.675-5.332s-5.336 4.57-5.336 9.902c0 5.336 2.29 17.53 2.29 17.53l-3.05 11.422h174.53s0.389-12.9-4.573-16.758c-1.713-1.333-3.237-3.573-4.535-6.168-1.218-2.434 0.752-5.702-0.037-8.31-1.73-5.74-5.35-10.3-4.57-9.91z" fill="none"></path> <path clip-rule="evenodd" d="m285.47 272.64l58.265-1.637s4.687-4.099 6.446-7.615c1.759-3.519-1.76-44.543-1.76-44.543l-4.103-52.159-11.15-77.935-143.02 7.032-39.86-0.585s-7.619-0.585-8.206 2.343c-0.585 2.93-0.585 16.409-0.585 16.409l83.82 128.94 60.15 29.76" fill-rule="evenodd"></path> <path stroke-linejoin="round" d="m285.47 272.64l58.265-1.637s4.687-4.099 6.446-7.615c1.759-3.519-1.76-44.543-1.76-44.543l-4.103-52.159-11.15-77.935-143.02 7.032-39.86-0.585s-7.619-0.585-8.206 2.343c-0.585 2.93-0.585 16.409-0.585 16.409l83.82 128.94 60.15 29.76z" stroke="#000000" stroke-miterlimit="11.5" stroke-width="5.0481" fill="none"></path> <path clip-rule="evenodd" d="m170.23 108.67s-35.169 23.442-34.582 32.232c0.585 8.791 8.206 40.439 8.206 40.439s-6.448 0.583-3.517 9.375c2.932 8.79 0 11.134-1.172 15.238-1.172 4.102 4.84 7.604 6.011 14.052 1.171 6.444 1.901 9.564 1.901 14.25 0 4.689 0.296 8.62 0.296 12.722 0 4.103-5.588 20.974 3.792 25.663l76.51-0.226 51.814 0.226h18.618c5.275-5.277 10.459-8.081 9.87-18.044-0.584-9.961 8.795-18.169 9.38-24.613 0.587-6.448-2.931-14.65-3.517-25.788-0.586-11.134-3.519-18.169-1.171-22.271 2.345-4.101 5.86-45.712 5.86-45.712l-7.619-26.956-11.724-12.893-92.028-2.933c-0.01-0.002-35.76 16.996-36.93 15.236" fill-rule="evenodd"></path> <path stroke-linejoin="round" d="m170.23 108.67s-35.169 23.442-34.582 32.232c0.585 8.791 8.206 40.439 8.206 40.439s-6.448 0.583-3.517 9.375c2.932 8.79 0 11.134-1.172 15.238-1.172 4.102 4.84 7.604 6.011 14.052 1.171 6.444 1.901 9.564 1.901 14.25 0 4.689 0.296 8.62 0.296 12.722 0 4.103-5.588 20.974 3.792 25.663l76.51-0.226 51.814 0.226h18.618c5.275-5.277 10.459-8.081 9.87-18.044-0.584-9.961 8.795-18.169 9.38-24.613 0.587-6.448-2.931-14.65-3.517-25.788-0.586-11.134-3.519-18.169-1.171-22.271 2.345-4.101 5.86-45.712 5.86-45.712l-7.619-26.956-11.724-12.893-92.028-2.933c-0.01-0.002-35.76 16.996-36.93 15.236z" stroke="#000000" stroke-miterlimit="11.5" stroke-width="5.0481" fill="none"></path> <path clip-rule="evenodd" d="m263.83 102.35s-10.82-10.292-11.611-19.26c-0.792-8.972 2.376-25.859 0.791-33.775-1.583-7.913-6.069-13.982-2.638-16.092s31.401-1.055 34.041-0.264c2.639 0.79 8.705-1.584 11.61 3.431 2.903 5.013 13.192 49.337 13.456 56.197 0.265 6.86-5.012 6.86-13.192 8.97-8.184 2.11-13.988 4.222-13.988 4.222s-4.484-3.165-10.026-2.903c-5.54 0.26-7.91-0.53-8.44-0.53" fill-rule="evenodd"></path> <path stroke-linejoin="round" d="m263.83 102.35s-10.82-10.292-11.611-19.26c-0.792-8.972 2.376-25.859 0.791-33.775-1.583-7.913-6.069-13.982-2.638-16.092s31.401-1.055 34.041-0.264c2.639 0.79 8.705-1.584 11.61 3.431 2.903 5.013 13.192 49.337 13.456 56.197 0.265 6.86-5.012 6.86-13.192 8.97-8.184 2.11-13.988 4.222-13.988 4.222s-4.484-3.165-10.026-2.903c-5.54 0.26-7.91-0.53-8.44-0.53z" stroke="#000000" stroke-miterlimit="11.5" stroke-width="5.0481" fill="none"></path> <path clip-rule="evenodd" d="m150.49 54.004s-1.33 16.621 1.994 27.258c3.324 10.634 7.314 17.948 9.976 21.939 1.329 3.986 7.979 9.969 7.979 9.969l8.645-4.649-12.63-66.483s-15.96 13.296-15.96 11.967" fill-rule="evenodd"></path> <path stroke-linejoin="round" d="m150.49 54.004s-1.33 16.621 1.994 27.258c3.324 10.634 7.314 17.948 9.976 21.939 1.329 3.986 7.979 9.969 7.979 9.969l8.645-4.649-12.63-66.483s-15.96 13.296-15.96 11.967z" stroke="#000000" stroke-miterlimit="11.5" stroke-width="5.0481" fill="none"></path> <polyline points="134.58 34.473 144.8 25.033 158.17 22.675 166.04 44.305 152.28 55.708 134.58 34.473" clip-rule="evenodd" fill-rule="evenodd"></polyline> <polygon stroke-linejoin="round" stroke="#000000" points="134.58 34.473 144.8 25.033 158.17 22.675 166.04 44.305 152.28 55.708" stroke-miterlimit="11.5" stroke-width="5.0481" fill="none"></polygon> <polyline points="136.54 32.112 149.13 29.357 155.82 51.776" clip-rule="evenodd" fill-rule="evenodd"></polyline> <polyline stroke-linejoin="round" stroke="#000000" points="136.54 32.112 149.13 29.357 155.82 51.776" stroke-miterlimit="11.5" stroke-width="5.0481" fill="none"></polyline> <path clip-rule="evenodd" d="m145.98 32.897l-10.618 1.967s-1.179-0.394-1.574 1.572c-0.392 1.968 0.396 2.753 0.396 2.753l4.719 15.731s0 0.785 1.573 1.966c1.574 1.179 3.54 0.395 3.54 0.395l9.047-1.576-7.09-22.808" fill-rule="evenodd"></path> <path stroke-linejoin="round" d="m145.98 32.897l-10.618 1.967s-1.179-0.394-1.574 1.572c-0.392 1.968 0.396 2.753 0.396 2.753l4.719 15.731s0 0.785 1.573 1.966c1.574 1.179 3.54 0.395 3.54 0.395l9.047-1.576-7.09-22.808z" stroke="#000000" stroke-miterlimit="11.5" stroke-width="5.0481" fill="none"></path> <path clip-rule="evenodd" d="m159.74 25.43s6.563-11.913 20.058-17.698c8.259-3.54 15.378-6.385 33.036-4.719 20.845 1.966 35.001 13.766 35.001 13.766l-18.879 11.009s-20.448-16.122-33.819-15.728c-13.374 0.39-21.633 5.503-25.172 9.043-3.539 3.539-8.65 9.831-8.65 9.831l-1.58-5.504" fill-rule="evenodd"></path> <path stroke-linejoin="round" d="m159.74 25.43s6.563-11.913 20.058-17.698c8.259-3.54 15.378-6.385 33.036-4.719 20.845 1.966 35.001 13.766 35.001 13.766l-18.879 11.009s-20.448-16.122-33.819-15.728c-13.374 0.39-21.633 5.503-25.172 9.043-3.539 3.539-8.65 9.831-8.65 9.831l-1.58-5.504z" stroke="#000000" stroke-miterlimit="11.5" stroke-width="5.0481" fill="none"></path> <path clip-rule="evenodd" d="m350.12 143.24v6.599l4.49 0.264s1.583 0 2.112-1.317c0.526-1.321 0-17.684 0-17.684s0.791-3.956-2.377-3.692-4.22 15.83-4.22 15.83" fill-rule="evenodd"></path> <path stroke-linejoin="round" d="m350.12 143.24v6.599l4.49 0.264s1.583 0 2.112-1.317c0.526-1.321 0-17.684 0-17.684s0.791-3.956-2.377-3.692-4.22 15.83-4.22 15.83z" stroke="#000000" stroke-miterlimit="11.5" stroke-width="5.0481" fill="none"></path> <path clip-rule="evenodd" d="m350.91 140.08s-0.526 16.623-0.792 20.051c-0.264 3.431-1.582 9.76-3.165 12.667-1.583 2.898-9.764 16.354-15.833 17.94-6.067 1.582-18.209 3.955-24.014 3.167-5.806-0.793-14.511-8.179-18.206-13.192-3.695-5.017-5.278-12.667-3.695-18.997 1.583-6.334 5.278-7.915 6.596-12.403 1.32-4.484 6.069-10.554 6.069-10.554" fill-rule="evenodd"></path> <path stroke-linejoin="round" d="m350.91 140.08s-0.526 16.623-0.792 20.051c-0.264 3.431-1.582 9.76-3.165 12.667-1.583 2.898-9.764 16.354-15.833 17.94-6.067 1.582-18.209 3.955-24.014 3.167-5.806-0.793-14.511-8.179-18.206-13.192-3.695-5.017-5.278-12.667-3.695-18.997 1.583-6.334 5.278-7.915 6.596-12.403 1.32-4.484 6.069-10.554 6.069-10.554" stroke="#000000" stroke-miterlimit="11.5" stroke-width="5.0481" fill="none"></path> <path clip-rule="evenodd" d="m256.89 8.911l10.619-2.753s1.967-0.392 4.327 0c2.358 0.394 3.934 1.179 3.934 1.179s9.438 3.147 10.619 6.687c1.18 3.54 3.146 22.022 3.146 22.022s0.787 2.36-1.18 4.326c-1.966 1.966-13.766 3.932-13.766 3.932" fill-rule="evenodd"></path> <path stroke-linejoin="round" d="m145.2 33.29l11.799-10.611m99.89-13.768l10.619-2.753s1.967-0.392 4.327 0c2.358 0.394 3.934 1.179 3.934 1.179s9.438 3.147 10.619 6.687c1.18 3.54 3.146 22.022 3.146 22.022s0.787 2.36-1.18 4.326c-1.966 1.966-13.766 3.932-13.766 3.932" stroke="#000000" stroke-miterlimit="11.5" stroke-width="5.0481" fill="none"></path> <path clip-rule="evenodd" d="m242.33 14.422s-1.965-1.97-1.181-3.936c0.788-1.968 5.899-5.115 7.868-4.72 1.966 0.392 9.439 0.392 9.439 0.392l2.754 0.789-8.26 5.115s1.179 2.36-1.574 2.75c-2.75 0.396-9.05-0.784-9.05-0.39" fill-rule="evenodd"></path> <path stroke-linejoin="round" d="m242.33 14.422s-1.965-1.97-1.181-3.936c0.788-1.968 5.899-5.115 7.868-4.72 1.966 0.392 9.439 0.392 9.439 0.392l2.754 0.789-8.26 5.115s1.179 2.36-1.574 2.75c-2.75 0.396-9.05-0.784-9.05-0.39z" stroke="#000000" stroke-miterlimit="11.5" stroke-width="5.0481" fill="none"></path> <path clip-rule="evenodd" d="m245.48 13.633s-0.395-2.36 2.361-4.326c2.753-1.968 5.505-3.149 5.505-3.149" fill-rule="evenodd"></path> <path stroke-linejoin="round" d="m245.48 13.633s-0.395-2.36 2.361-4.326c2.753-1.968 5.505-3.149 5.505-3.149" stroke="#000000" stroke-miterlimit="11.5" stroke-width="5.0481" fill="none"></path> <path clip-rule="evenodd" d="m287.84 87.836s-1.848 5.015 0 9.763c1.849 4.75 4.487 6.332 5.015 8.708 0.529 2.375-2.902 12.929-1.319 19.263 1.583 6.33-2.111 12.923 2.374 17.676 4.487 4.748 11.347 8.968 13.721 10.554 2.378 1.581 8.71 3.956 14.516 3.956s14.515-2.375 18.207-5.014c3.694-2.638 5.278-6.598 8.444-9.496 3.165-2.902 6.332-6.599 6.597-13.456 0.264-6.862 1.058-20.054-0.265-24.802-1.318-4.748 0.265-9.762-1.318-12.137-1.59-2.376-50.14-13.458-65.98-5.017" fill-rule="evenodd"></path> <path stroke-linejoin="round" d="m287.84 87.836s-1.848 5.015 0 9.763c1.849 4.75 4.487 6.332 5.015 8.708 0.529 2.375-2.902 12.929-1.319 19.263 1.583 6.33-2.111 12.923 2.374 17.676 4.487 4.748 11.347 8.968 13.721 10.554 2.378 1.581 8.71 3.956 14.516 3.956s14.515-2.375 18.207-5.014c3.694-2.638 5.278-6.598 8.444-9.496 3.165-2.902 6.332-6.599 6.597-13.456 0.264-6.862 1.058-20.054-0.265-24.802-1.318-4.748 0.265-9.762-1.318-12.137-1.59-2.376-50.14-13.458-65.98-5.017z" stroke="#000000" stroke-miterlimit="11.5" stroke-width="5.0481" fill="none"></path> <path clip-rule="evenodd" d="m276.94 56.491s1.571 2.753 5.506 5.505c3.934 2.753 0 3.145 5.112 6.293 5.113 3.145 4.327 4.324 4.327 4.324s0.392 3.147-1.571 5.898c-1.969 2.753-4.722 1.968-3.54 5.898 1.179 3.932 4.719 10.224 12.977 12.977 8.259 2.752 23.599 7.864 31.072 7.079 7.471-0.789 13.766-1.18 18.483-4.719 4.719-3.54 6.686-3.147 5.506-10.225-1.179-7.079 0-7.472-1.966-11.011-1.968-3.54-7.08-7.47-7.08-7.47h-3.934l-1.573-5.9s1.573 0.395 2.36-4.324 0.395-13.371 0.395-13.371-3.935-10.222-5.9-12.975c-1.967-2.753-11.797-12.975-11.797-12.975s-21.24-0.789-22.42 2.751c-1.181 3.537 2.754 28.707-2.752 30.278-5.507 1.573-18.879-5.506-18.879-5.506s-4.72 7.085-4.33 7.478" fill-rule="evenodd"></path> <path stroke-linejoin="round" d="m276.94 56.491s1.571 2.753 5.506 5.505c3.934 2.753 0 3.145 5.112 6.293 5.113 3.145 4.327 4.324 4.327 4.324s0.392 3.147-1.571 5.898c-1.969 2.753-4.722 1.968-3.54 5.898 1.179 3.932 4.719 10.224 12.977 12.977 8.259 2.752 23.599 7.864 31.072 7.079 7.471-0.789 13.766-1.18 18.483-4.719 4.719-3.54 6.686-3.147 5.506-10.225-1.179-7.079 0-7.472-1.966-11.011-1.968-3.54-7.08-7.47-7.08-7.47h-3.934l-1.573-5.9s1.573 0.395 2.36-4.324 0.395-13.371 0.395-13.371-3.935-10.222-5.9-12.975c-1.967-2.753-11.797-12.975-11.797-12.975s-21.24-0.789-22.42 2.751c-1.181 3.537 2.754 28.707-2.752 30.278-5.507 1.573-18.879-5.506-18.879-5.506s-4.72 7.085-4.33 7.478z" stroke="#000000" stroke-miterlimit="11.5" stroke-width="5.0481" fill="none"></path> <path clip-rule="evenodd" d="m297.4 71.83s-4.328-4.328-5.899-6.292c-1.573-1.966-5.9-4.719-7.475-6.292-1.572-1.572-2.752-3.146-2.752-3.146l-3.539 1.574s-5.506-5.113-5.506-7.866c0-2.752 3.145-4.324 6.685-3.54 3.54 0.787 5.508 1.573 5.508 1.573s2.751-0.786 6.29 1.574c3.54 1.572 3.54 2.751 3.54 2.751s0.789-2.751 2.755-3.538c1.965-0.787 1.178-1.181 1.178-1.181s-1.572-2.753-1.572-5.504c0-2.752 1.968-4.326 1.179-6.687-0.784-2.358-1.964-1.18-1.964-3.93 0-2.755 0.393-3.934 0.393-3.934s-2.753-4.326-3.147-7.077c-0.393-2.753-1.571-10.619 1.18-11.405 2.755-0.785 5.114 0.394 5.114 0.394l2.358 2.358s1.574-3.538 4.719-3.538c1.969 0.785 3.149 0.785 4.722 2.75 1.573 1.969 1.968 4.721 1.968 4.721s1.966-1.179 5.897-0.789c3.934 0.394 7.079 7.079 7.079 7.079l-1.18 2.752 1.967 3.54s0.786-5.113 4.719-5.113c3.935 0 5.901-0.393 7.081 2.36 1.182 2.752 0.787 4.717 0.787 7.471 0 2.753 1.179 3.538 1.179 6.292 0 2.752 0.395 5.898 0.395 5.898s2.751 0.395 1.966 3.146c-0.786 2.753-1.966 3.932-1.966 3.932s0.393 0.395 0 3.146c-0.395 2.751-0.789 5.899-0.789 5.899s-0.784 9.437-7.471 12.192c-6.688 2.75-10.621 5.109-18.485 5.109-7.88 0.004-16.92-6.679-16.92-6.679" fill-rule="evenodd"></path> <path stroke-linejoin="round" d="m297.4 71.83s-4.328-4.328-5.899-6.292c-1.573-1.966-5.9-4.719-7.475-6.292-1.572-1.572-2.752-3.146-2.752-3.146l-3.539 1.574s-5.506-5.113-5.506-7.866c0-2.752 3.145-4.324 6.685-3.54 3.54 0.787 5.508 1.573 5.508 1.573s2.751-0.786 6.29 1.574c3.54 1.572 3.54 2.751 3.54 2.751s0.789-2.751 2.755-3.538c1.965-0.787 1.178-1.181 1.178-1.181s-1.572-2.753-1.572-5.504c0-2.752 1.968-4.326 1.179-6.687-0.784-2.358-1.964-1.18-1.964-3.93 0-2.755 0.393-3.934 0.393-3.934s-2.753-4.326-3.147-7.077c-0.393-2.753-1.571-10.619 1.18-11.405 2.755-0.785 5.114 0.394 5.114 0.394l2.358 2.358s1.574-3.538 4.719-3.538c1.969 0.785 3.149 0.785 4.722 2.75 1.573 1.969 1.968 4.721 1.968 4.721s1.966-1.179 5.897-0.789c3.934 0.394 7.079 7.079 7.079 7.079l-1.18 2.752 1.967 3.54s0.786-5.113 4.719-5.113c3.935 0 5.901-0.393 7.081 2.36 1.182 2.752 0.787 4.717 0.787 7.471 0 2.753 1.179 3.538 1.179 6.292 0 2.752 0.395 5.898 0.395 5.898s2.751 0.395 1.966 3.146c-0.786 2.753-1.966 3.932-1.966 3.932s0.393 0.395 0 3.146c-0.395 2.751-0.789 5.899-0.789 5.899s-0.784 9.437-7.471 12.192c-6.688 2.75-10.621 5.109-18.485 5.109-7.88 0.004-16.92-6.679-16.92-6.679z" stroke="#000000" stroke-miterlimit="11.5" stroke-width="5.0481" fill="none"></path> <path clip-rule="evenodd" d="m151.01 23.332c0.242 1.059-1.362 2.331-3.584 2.841-2.222 0.509-4.223 0.065-4.466-0.994-0.244-1.057 1.364-2.329 3.586-2.838 2.21-0.51 4.21-0.067 4.46 0.991" fill-rule="evenodd"></path> <ellipse stroke-linejoin="round" cy="24.255" rx="4.13" transform="matrix(.9747 -.2237 .2237 .9747 -1.7013 33.492)" ry="1.968" stroke="#000000" cx="146.98" stroke-miterlimit="11.5" stroke-width="5.0481" fill="none"></ellipse> <path clip-rule="evenodd" d="m340.08 61.994s-2.153 5.943-9.462 8.49c-7.314 2.545-15.92 3.395-15.92 3.395l2.582 8.913s4.303 0.424 12.044-1.273c7.743-1.698 12.908-5.944 12.908-5.944s-2.15-14.005-2.15-13.581" fill-rule="evenodd"></path> <path stroke-linejoin="round" d="m340.08 61.994s-2.153 5.943-9.462 8.49c-7.314 2.545-15.92 3.395-15.92 3.395l2.582 8.913s4.303 0.424 12.044-1.273c7.743-1.698 12.908-5.944 12.908-5.944s-2.15-14.005-2.15-13.581z" stroke="#000000" stroke-miterlimit="11.5" stroke-width="5.0481" fill="none"></path> <path clip-rule="evenodd" d="m301.33 11.664s0.392 3.54 0.786 6.294c0.393 2.751 0.786 3.146 0.786 3.146s-0.786 0.785-0.394 3.145c0.394 2.36 1.182 3.934 1.182 3.934s0-1.966 0 2.358c0 4.328 1.572 7.079 1.572 7.079" fill-rule="evenodd"></path> <path stroke-linejoin="round" d="m301.33 11.664s0.392 3.54 0.786 6.294c0.393 2.751 0.786 3.146 0.786 3.146s-0.786 0.785-0.394 3.145c0.394 2.36 1.182 3.934 1.182 3.934s0-1.966 0 2.358c0 4.328 1.572 7.079 1.572 7.079" stroke="#000000" stroke-miterlimit="11.5" stroke-width="5.0481" fill="none"></path> <path clip-rule="evenodd" d="m313.12 15.598s-1.968 4.325-0.788 6.291c1.182 1.967 2.36 3.146 2.36 3.146s-0.391 1.18 0.394 3.54c0.787 2.36 1.577 3.145 1.577 3.145s-1.577 3.54-0.396 5.508c1.18 1.965 0.787 3.145 0.787 3.145" fill-rule="evenodd"></path> <path stroke-linejoin="round" d="m313.12 15.598s-1.968 4.325-0.788 6.291c1.182 1.967 2.36 3.146 2.36 3.146s-0.391 1.18 0.394 3.54c0.787 2.36 1.577 3.145 1.577 3.145s-1.577 3.54-0.396 5.508c1.18 1.965 0.787 3.145 0.787 3.145" stroke="#000000" stroke-miterlimit="11.5" stroke-width="5.0481" fill="none"></path> <path clip-rule="evenodd" d="m326.5 28.963l0.787 3.543s-1.575 2.358-0.787 4.324c0.787 1.966 1.182 2.755 1.182 2.755s-1.182-0.395-1.182 1.966 1.574 3.539 1.574 3.539" fill-rule="evenodd"></path> <path stroke-linejoin="round" d="m326.5 28.963l0.787 3.543s-1.575 2.358-0.787 4.324c0.787 1.966 1.182 2.755 1.182 2.755s-1.182-0.395-1.182 1.966 1.574 3.539 1.574 3.539" stroke="#000000" stroke-miterlimit="11.5" stroke-width="5.0481" fill="none"></path> <path clip-rule="evenodd" d="m157.33 118.63s-9.378 0-14.653 4.689c-5.277 4.689-4.692 7.616-7.037 11.721-2.345 4.102-5.86 6.448-7.034 11.722-1.171 5.272-1.756 7.031-2.93 11.72-1.173 4.689-2.345 9.379-2.345 9.379s-1.173 0-2.344 2.343c-1.174 2.343-8.209 0-13.482 4.688-5.276 4.689-13.481 6.448-13.481 6.448l-6.448 46.297s16.998 1.759 22.86 0c5.861-1.759 11.137 1.175 14.067-2.344 2.933-3.517 1.759-1.759 5.277-4.688 3.516-2.931 14.068-5.86 14.068-5.86s-3.03-32.627 0.37-57.445c3.18-23.33 12.81-38.95 13.09-38.67" fill-rule="evenodd"></path> <path stroke-linejoin="round" d="m157.33 118.63s-9.378 0-14.653 4.689c-5.277 4.689-4.692 7.616-7.037 11.721-2.345 4.102-5.86 6.448-7.034 11.722-1.171 5.272-1.756 7.031-2.93 11.72-1.173 4.689-2.345 9.379-2.345 9.379s-1.173 0-2.344 2.343c-1.174 2.343-8.209 0-13.482 4.688-5.276 4.689-13.481 6.448-13.481 6.448l-6.448 46.297s16.998 1.759 22.86 0c5.861-1.759 11.137 1.175 14.067-2.344 2.933-3.517 1.759-1.759 5.277-4.688 3.516-2.931 14.068-5.86 14.068-5.86s-3.03-32.627 0.37-57.445c3.18-23.33 12.81-38.95 13.09-38.67z" stroke="#000000" stroke-miterlimit="11.5" stroke-width="5.0481" fill="none"></path> <path clip-rule="evenodd" d="m27.233 258.83s0.708 0.777 3.189 0.777c2.477 0 4.248-0.257 4.956-2.587 0.709-2.332-2.832-4.143-2.832-4.143s-4.604 0.257-4.959 1.551c-0.354 1.29 0.354 5.43-0.354 4.4" fill-rule="evenodd"></path> <path stroke-linejoin="round" d="m27.233 258.83s0.708 0.777 3.189 0.777c2.477 0 4.248-0.257 4.956-2.587 0.709-2.332-2.832-4.143-2.832-4.143s-4.604 0.257-4.959 1.551c-0.354 1.29 0.354 5.43-0.354 4.4z" stroke="#000000" stroke-miterlimit="11.5" stroke-width="5.0481" fill="none"></path> <path clip-rule="evenodd" d="m22.276 263.85s0.708 1.065 3.188 1.065c2.479 0 4.25-0.354 4.958-3.541 0.708-3.19-2.833-5.672-2.833-5.672s-4.604 0.358-4.96 2.131c-0.353 1.76 0.355 7.43-0.353 6.01" fill-rule="evenodd"></path> <path stroke-linejoin="round" d="m22.276 263.85s0.708 1.065 3.188 1.065c2.479 0 4.25-0.354 4.958-3.541 0.708-3.19-2.833-5.672-2.833-5.672s-4.604 0.358-4.96 2.131c-0.353 1.76 0.355 7.43-0.353 6.01z" stroke="#000000" stroke-miterlimit="11.5" stroke-width="5.0481" fill="none"></path> <path clip-rule="evenodd" d="m15.903 259.96s-1.416 2.476 1.062 3.541c2.479 1.062 6.021 0.707 6.021 0.707l1.062-3.543-4.604-16.997s-7.436 0-8.146 2.13c-0.706 2.121-1.416 7.435 0.356 9.556 1.773 2.12 4.249 4.95 4.249 4.6" fill-rule="evenodd"></path> <path stroke-linejoin="round" d="m15.903 259.96s-1.416 2.476 1.062 3.541c2.479 1.062 6.021 0.707 6.021 0.707l1.062-3.543-4.604-16.997s-7.436 0-8.146 2.13c-0.706 2.121-1.416 7.435 0.356 9.556 1.773 2.12 4.249 4.95 4.249 4.6z" stroke="#000000" stroke-miterlimit="11.5" stroke-width="5.0481" fill="none"></path> <path clip-rule="evenodd" d="m100.53 187.03s-1.418-3.893-4.25-5.664c-2.831-1.771-3.541-2.834-7.081-1.771-3.541 1.062-13.456 3.894-18.766 6.373-5.311 2.478-5.311 4.248-12.038 7.435-6.729 3.187-11.331 3.187-14.163 6.724-2.833 3.542-4.25 3.542-6.02 7.084-1.771 3.537-2.124 7.079-6.018 8.85-3.896 1.771-4.25 3.187-8.497 4.603-4.252 1.416-7.791 2.477-9.562 6.728-1.771 4.248 1.063 7.08-1.771 7.785-2.832 0.71-2.832 0.354-5.663 3.541-2.833 3.187-4.958 6.019-3.896 9.205 1.063 3.187 2.479 7.789 2.479 7.789s19.12-0.709 20.891-1.06c1.771-0.356 3.187-0.356 5.311-2.127 2.125-1.767 4.251-3.537 7.438-6.373 3.185-2.832 2.477-3.537 4.958-3.187 2.477 0.354 7.434-2.478 12.392-2.121 4.957 0.354 7.434 2.121 13.101 1.06 5.665-1.06 5.664-2.83 11.329-2.83 5.666 0 8.852-2.481 16.288-3.897 7.437-1.412 8.499-1.771 10.976-3.893 2.481-2.126 3.542-1.415 2.481-8.85-1.063-7.435 2.124-12.036-2.127-18.765-4.248-6.729-5.311-10.266-6.017-12.747-0.71-2.44-2.483-3.86-1.77-3.86" fill-rule="evenodd"></path> <path stroke-linejoin="round" d="m100.53 187.03s-1.418-3.893-4.25-5.664c-2.831-1.771-3.541-2.834-7.081-1.771-3.541 1.062-13.456 3.894-18.766 6.373-5.311 2.478-5.311 4.248-12.038 7.435-6.729 3.187-11.331 3.187-14.163 6.724-2.833 3.542-4.25 3.542-6.02 7.084-1.771 3.537-2.124 7.079-6.018 8.85-3.896 1.771-4.25 3.187-8.497 4.603-4.252 1.416-7.791 2.477-9.562 6.728-1.771 4.248 1.063 7.08-1.771 7.785-2.832 0.71-2.832 0.354-5.663 3.541-2.833 3.187-4.958 6.019-3.896 9.205 1.063 3.187 2.479 7.789 2.479 7.789s19.12-0.709 20.891-1.06c1.771-0.356 3.187-0.356 5.311-2.127 2.125-1.767 4.251-3.537 7.438-6.373 3.185-2.832 2.477-3.537 4.958-3.187 2.477 0.354 7.434-2.478 12.392-2.121 4.957 0.354 7.434 2.121 13.101 1.06 5.665-1.06 5.664-2.83 11.329-2.83 5.666 0 8.852-2.481 16.288-3.897 7.437-1.412 8.499-1.771 10.976-3.893 2.481-2.126 3.542-1.415 2.481-8.85-1.063-7.435 2.124-12.036-2.127-18.765-4.248-6.729-5.311-10.266-6.017-12.747-0.71-2.44-2.483-3.86-1.77-3.86z" stroke="#000000" stroke-miterlimit="11.5" stroke-width="5.0481" fill="none"></path> <path clip-rule="evenodd" d="m22.631 237.65l-2.477-2.832s-2.48 0.351-4.957 2.477c-2.48 2.126-2.834 1.061-5.314 4.247-2.477 3.187-4.603 4.606-3.895 6.729 0.71 2.126 1.771 5.312 1.771 5.312l-1.771 2.121s1.063 2.836 2.834 4.957c1.771 2.127 4.604 2.481 6.018 0 1.418-2.476 2.481-3.541 0.71-5.308-1.771-1.771-2.48-5.668-2.48-5.668s2.128-2.121 3.898-2.476c1.769-0.355 1.769 0.354 1.769 0.354s-3.539 3.541-1.769 7.078c1.769 3.543 1.172 3.223 3.187 3.897 4.248 1.416 9.205-4.957 8.143-5.312-3.83-1.278-7.789-2.478-8.143-4.252-0.357-1.77 2.476-11.33 2.476-11.33" fill-rule="evenodd"></path> <path stroke-linejoin="round" d="m22.631 237.65l-2.477-2.832s-2.48 0.351-4.957 2.477c-2.48 2.126-2.834 1.061-5.314 4.247-2.477 3.187-4.603 4.606-3.895 6.729 0.71 2.126 1.771 5.312 1.771 5.312l-1.771 2.121s1.063 2.836 2.834 4.957c1.771 2.127 4.604 2.481 6.018 0 1.418-2.476 2.481-3.541 0.71-5.308-1.771-1.771-2.48-5.668-2.48-5.668s2.128-2.121 3.898-2.476c1.769-0.355 1.769 0.354 1.769 0.354s-3.539 3.541-1.769 7.078c1.769 3.543 1.172 3.223 3.187 3.897 4.248 1.416 9.205-4.957 8.143-5.312-3.83-1.278-7.789-2.478-8.143-4.252-0.357-1.77 2.476-11.33 2.476-11.33z" stroke="#000000" stroke-miterlimit="11.5" stroke-width="5.0481" fill="none"></path> <path clip-rule="evenodd" d="m30.42 216.41s3.895 4.958 8.145 9.56c4.249 4.603 5.665 5.312 8.144 8.5 2.481 3.187 3.187 5.662 3.187 5.662s1.418-0.705-0.354 1.771c-1.771 2.481-3.895 2.481-3.895 2.481s2.124 1.062 6.371-0.71c4.252-1.771 4.604-3.188 4.252-7.083-0.354-3.893-3.895-7.435-5.667-10.621-1.771-3.187-4.602-6.373-7.789-8.85-5.625-4.373-6.728-6.022-6.728-6.022s-1.416 0.355-3.542 1.42c-2.124 1.06-1.063 3.89-2.124 3.89" fill-rule="evenodd"></path> <path stroke-linejoin="round" d="m30.42 216.41s3.895 4.958 8.145 9.56c4.249 4.603 5.665 5.312 8.144 8.5 2.481 3.187 3.187 5.662 3.187 5.662s1.418-0.705-0.354 1.771c-1.771 2.481-3.895 2.481-3.895 2.481s2.124 1.062 6.371-0.71c4.252-1.771 4.604-3.188 4.252-7.083-0.354-3.893-3.895-7.435-5.667-10.621-1.771-3.187-4.602-6.373-7.789-8.85-5.625-4.373-6.728-6.022-6.728-6.022s-1.416 0.355-3.542 1.42c-2.124 1.06-1.063 3.89-2.124 3.89z" stroke="#000000" stroke-miterlimit="11.5" stroke-width="5.0481" fill="none"></path> <path clip-rule="evenodd" d="m19.09 247.92s0.353-0.709 2.124-3.541c1.772-2.832 1.772-1.771 3.188-6.019 1.417-4.247 0.354-9.205 0.354-9.205" fill-rule="evenodd"></path> <path stroke-linejoin="round" d="m324.97 193.06l5.279 79.704m-311.16-24.84s0.353-0.709 2.124-3.541c1.772-2.832 1.772-1.771 3.188-6.019 1.417-4.247 0.354-9.205 0.354-9.205" stroke="#000000" stroke-miterlimit="11.5" stroke-width="5.0481" fill="none"></path> <path fill="#EBEBEB" clip-rule="evenodd" d="m296.67 273.16l47.152-2.031s4.689-4.102 6.448-7.619-1.759-44.538-1.759-44.538l-4.102-52.161-11.14-77.944-143.02 7.037-39.855-0.585s-7.622-0.586-8.207 2.344c-0.587 2.93-0.587 16.407-0.587 16.407l83.82 128.93 71.25 30.16" fill-rule="evenodd"></path> <path stroke="#000000" stroke-width="2.0192" stroke-miterlimit="11.5" d="m296.67 273.16l47.152-2.031s4.689-4.102 6.448-7.619-1.759-44.538-1.759-44.538l-4.102-52.161-11.14-77.944-143.02 7.037-39.855-0.585s-7.622-0.586-8.207 2.344c-0.587 2.93-0.587 16.407-0.587 16.407l83.82 128.93 71.25 30.16z" fill="none"></path> <path fill="#FFFFFF" clip-rule="evenodd" d="m170.32 108.8s-35.17 23.442-34.583 32.232c0.585 8.791 8.207 40.437 8.207 40.437s-6.449 0.587-3.518 9.378c2.93 8.791 0 11.133-1.172 15.239-1.172 4.097 4.841 7.604 6.013 14.047 1.171 6.448 1.899 9.564 1.899 14.254s0.293 8.617 0.293 12.718c0 4.106-5.586 20.975 3.792 25.662l76.829 15.642 51.498-15.642h18.617c5.274-5.276 10.459-8.08 9.873-18.042-0.585-9.962 8.792-18.165 9.379-24.613 0.585-6.445-2.932-14.651-3.519-25.785-0.586-11.137-3.517-18.168-1.172-22.271 2.344-4.102 5.861-45.712 5.861-45.712l-7.619-26.959-11.724-12.892-92.027-2.93c0-0.019-35.76 16.982-36.93 15.222" fill-rule="evenodd"></path> <path stroke="#000000" stroke-width="3.0288" stroke-miterlimit="11.5" d="m170.32 108.8s-35.17 23.442-34.583 32.232c0.585 8.791 8.207 40.437 8.207 40.437s-6.449 0.587-3.518 9.378c2.93 8.791 0 11.133-1.172 15.239-1.172 4.097 4.841 7.604 6.013 14.047 1.171 6.448 1.899 9.564 1.899 14.254s0.293 8.617 0.293 12.718c0 4.106-5.586 20.975 3.792 25.662l76.829 15.642 51.498-15.642h18.617c5.274-5.276 10.459-8.08 9.873-18.042-0.585-9.962 8.792-18.165 9.379-24.613 0.585-6.445-2.932-14.651-3.519-25.785-0.586-11.137-3.517-18.168-1.172-22.271 2.344-4.102 5.861-45.712 5.861-45.712l-7.619-26.959-11.724-12.892-92.027-2.93c0-0.019-35.76 16.982-36.93 15.222z" fill="none"></path> <path fill="#C8C8C8" clip-rule="evenodd" d="m291.36 183.24s-4.903 4.204-7.709 2.103c-2.803-2.103-8.409-4.205-2.803 2.102 5.608 6.306 17.162 15.511 17.162 15.511s-10.854-0.095-15.761-0.095c-4.905 0 29.605 19.132 18.391 19.834-11.21 0.697-22.594 1.187-19.092 4.689 3.504 3.505 20.665 14.875 16.462 17.68-4.204 2.8-16.462 5.445-22.769 4.744-6.306-0.701-11.212 4.906-5.605 5.607 5.605 0.698 16.82 6.307 21.724 6.307 4.905 0 9.812 0.698 4.205 2.801-5.606 2.102-6.307 5.607-6.307 5.607s16.467-1.929 17.17-7.533c0.699-5.607-2.453-10.86 5.605-23.824 4.193-6.747 6.307-9.109 2.452-21.023-2.33-7.193-2.104-23.475-2.104-23.475s-21.71-11.74-21.01-11.04" fill-rule="evenodd"></path> <path fill="#C8C8C8" clip-rule="evenodd" d="m263.93 102.48s-10.819-10.29-11.609-19.259c-0.791-8.97 2.374-25.855 0.79-33.771-1.581-7.914-6.067-13.983-2.638-16.093 3.431-2.11 31.401-1.057 34.042-0.266 2.64 0.792 8.706-1.582 11.611 3.431 2.9 5.014 13.192 49.337 13.456 56.195 0.265 6.86-5.013 6.86-13.193 8.972-8.18 2.11-13.984 4.22-13.984 4.22s-4.486-3.167-10.029-2.903c-5.55 0.26-7.92-0.53-8.45-0.53" fill-rule="evenodd"></path> <path stroke="#000000" stroke-width="2.0192" stroke-miterlimit="11.5" d="m263.93 102.48s-10.819-10.29-11.609-19.259c-0.791-8.97 2.374-25.855 0.79-33.771-1.581-7.914-6.067-13.983-2.638-16.093 3.431-2.11 31.401-1.057 34.042-0.266 2.64 0.792 8.706-1.582 11.611 3.431 2.9 5.014 13.192 49.337 13.456 56.195 0.265 6.86-5.013 6.86-13.193 8.972-8.18 2.11-13.984 4.22-13.984 4.22s-4.486-3.167-10.029-2.903c-5.55 0.26-7.92-0.53-8.45-0.53z" fill="none"></path> <path fill="#FFFFFF" clip-rule="evenodd" d="m150.59 54.131s-1.331 16.617 1.995 27.253c3.323 10.639 7.314 17.951 9.973 21.938 1.331 3.992 7.979 9.975 7.979 9.975l8.645-4.657-12.634-66.477s-15.96 13.295-15.96 11.968" fill-rule="evenodd"></path> <path stroke="#000000" stroke-width="2.0192" stroke-miterlimit="11.5" d="m150.59 54.131s-1.331 16.617 1.995 27.253c3.323 10.639 7.314 17.951 9.973 21.938 1.331 3.992 7.979 9.975 7.979 9.975l8.645-4.657-12.634-66.477s-15.96 13.295-15.96 11.968z" fill="none"></path> <path fill="#FFFFFF" clip-rule="evenodd" d="m292.96 105.38s-5.278-3.431-11.348-3.957c-6.069-0.529-11.347-3.694-14.776-4.75-3.431-1.055-6.597-3.693-6.597-3.693s1.583-1.848 0.792-6.332c-0.792-4.484-1.848-6.86-2.641-8.177-0.791-1.322-1.321-3.167-1.321-3.167s5.543-14.774 4.753-22.691c-0.791-7.916-4.753-19.258-4.753-19.258l-10.554 9.497s1.849 8.179 1.583 13.192c-0.264 5.013-0.792 16.622-3.693 22.427l-3.695 3.693-2.374 6.858s-8.974 11.082-11.348 12.928c-2.374 1.848-8.18 6.069-8.18 6.069" fill-rule="evenodd"></path> <path stroke="#000000" stroke-width="2.0192" stroke-miterlimit="11.5" d="m292.96 105.38s-5.278-3.431-11.348-3.957c-6.069-0.529-11.347-3.694-14.776-4.75-3.431-1.055-6.597-3.693-6.597-3.693s1.583-1.848 0.792-6.332c-0.792-4.484-1.848-6.86-2.641-8.177-0.791-1.322-1.321-3.167-1.321-3.167s5.543-14.774 4.753-22.691c-0.791-7.916-4.753-19.258-4.753-19.258l-10.554 9.497s1.849 8.179 1.583 13.192c-0.264 5.013-0.792 16.622-3.693 22.427l-3.695 3.693-2.374 6.858s-8.974 11.082-11.348 12.928c-2.374 1.848-8.18 6.069-8.18 6.069" fill="none"></path> <polyline points="134.67 34.595 144.9 25.157 158.27 22.799 166.14 44.424 152.37 55.831 134.67 34.595" fill="#FFFFFF" clip-rule="evenodd" fill-rule="evenodd"></polyline> <polygon stroke="#000000" stroke-width="2.0192" stroke-miterlimit="14.3" points="134.67 34.595 144.9 25.157 158.27 22.799 166.14 44.424 152.37 55.831" fill="none"></polygon> <path fill="#C8C8C8" clip-rule="evenodd" d="m260.48 94.746l-7.088 1.29-5.799 4.51s9.019-2.577 9.664 0.645c0.645 3.22 0 5.796 0 5.796s5.155-4.509 7.734-1.289c2.574 3.226 6.441-1.288 6.441 2.579 0 3.865-6.441 10.309-7.088 16.106-0.646 5.797 1.934 14.174 1.934 14.174s1.287-10.305 3.865-14.174c2.579-3.865 6.441-3.865 6.441-3.865s0 5.154 1.29 9.662c1.29 4.512 1.29-3.218 3.223-9.019 1.933-5.798 10.31 2.658 10.31 2.658l1.288-13.61-0.645-4.511-5.154-7.729s-0.162 3.624-3.544 3.948c-7.934 0.753-14.176-3.545-14.176-3.545s-2.744-0.929-5.154-1.933c-1.85-0.805-3.52-1.716-3.52-1.716" fill-rule="evenodd"></path> <path stroke="#000000" stroke-width="3.0288" stroke-miterlimit="11.5" d="m292.75 108.54s-3.289-1.313-7.896-5.262c-4.606-3.948-4.606-1.976-8.557-3.948-3.946-1.975-14.474-5.923-14.474-5.923s0 0.659-0.658-5.919c-0.658-6.579-1.314-7.237-1.314-7.237s3.288-0.659 3.288-4.606 1.974-10.526 0.658-15.789c-1.315-5.265-3.29-17.106-3.29-17.106" fill="none"></path> <polyline points="136.64 32.234 149.22 29.484 155.91 51.896" fill="#FFFFFF" clip-rule="evenodd" fill-rule="evenodd"></polyline> <polyline stroke="#000000" stroke-width="1.5144" stroke-miterlimit="14.3" points="136.64 32.234 149.22 29.484 155.91 51.896" fill="none"></polyline> <path fill="#FFFFFF" clip-rule="evenodd" d="m159.84 42.066s-3.149 0.789-3.542-3.54c-0.394-4.325 1.966-3.932 1.966-3.932l4.331-0.393" fill-rule="evenodd"></path> <path stroke="#000000" stroke-width="2.0192" stroke-miterlimit="11.5" d="m159.84 42.066s-3.149 0.789-3.542-3.54c-0.394-4.325 1.966-3.932 1.966-3.932l4.331-0.393" fill="none"></path> <path fill="#FFFFFF" clip-rule="evenodd" d="m166.82 111.18l1.055 6.065s2.111 2.11 3.695 2.374c1.583 0.264 2.11-0.789 4.485-0.524 2.375 0.26 10.818 1.317 24.803-0.532 13.986-1.846 21.641-4.484 29.291-7.912 7.65-3.431 18.734-10.555 23.221-13.983 4.486-2.639 4.486-6.067 4.486-6.067l-7.127-0.529" fill-rule="evenodd"></path> <path stroke="#000000" stroke-width="1.5144" stroke-miterlimit="14.3" d="m166.82 111.18l1.055 6.065s2.111 2.11 3.695 2.374c1.583 0.264 2.11-0.789 4.485-0.524 2.375 0.26 10.818 1.317 24.803-0.532 13.986-1.846 21.641-4.484 29.291-7.912 7.65-3.431 18.734-10.555 23.221-13.983 4.486-2.639 4.486-6.067 4.486-6.067l-7.127-0.529" fill="none"></path> <path fill="#C8C8C8" clip-rule="evenodd" d="m170.52 108.02s-10.294-13.73-12.93-26.396c-2.64-12.661-2.904-23.998-1.322-31.12 1.583-7.123 5.015-14.509 8.182-18.996 3.165-4.486 17.416-16.885 29.552-15.564 12.14 1.317 29.553 7.65 35.622 13.718 6.863 6.067 15.304 13.983 16.889 20.577 1.584 6.596-0.263 22.952-1.056 25.591-0.79 2.639-3.959 5.013-5.013 7.125-1.057 2.11-2.111 5.276-2.374 7.651-0.267 2.372-5.543 14.511-12.403 17.148-6.86 2.639-38.262 7.916-44.067 7.123-5.805-0.792-10.555-2.638-10.555-2.638s0.01-3.95-0.52-4.21" fill-rule="evenodd"></path> <path stroke="#000000" stroke-width="2.0192" stroke-miterlimit="11.5" d="m170.52 108.02s-10.294-13.73-12.93-26.396c-2.64-12.661-2.904-23.998-1.322-31.12 1.583-7.123 5.015-14.509 8.182-18.996 3.165-4.486 17.416-16.885 29.552-15.564 12.14 1.317 29.553 7.65 35.622 13.718 6.863 6.067 15.304 13.983 16.889 20.577 1.584 6.596-0.263 22.952-1.056 25.591-0.79 2.639-3.959 5.013-5.013 7.125-1.057 2.11-2.111 5.276-2.374 7.651-0.267 2.372-5.543 14.511-12.403 17.148-6.86 2.639-38.262 7.916-44.067 7.123-5.805-0.792-10.555-2.638-10.555-2.638s0.01-3.95-0.52-4.21z" fill="none"></path> <path fill="#FFFFFF" clip-rule="evenodd" d="m232.73 160.75s-1.771-4.401-0.705-9.899c1.062-5.501 2.124-5.135 4.6-8.068 2.481-2.935 5.668-8.803 7.792-13.204 2.124-4.402 6.376-9.532 7.79-11.366 1.415-1.834 3.895-4.401 6.019-5.501s2.481-4.402 6.729-6.604c4.249-2.198 9.562-6.599 9.562-6.599s-6.728 1.467-9.914 3.3c-3.189 1.834-6.376 2.567-7.792 5.134-1.417 2.568-7.081 6.969-10.269 10.636-3.187 3.665-6.372 9.533-9.559 13.2-3.188 3.667-9.209 10.27-9.562 14.305-0.352 4.034-1.062 13.199-1.062 13.199" fill-rule="evenodd"></path> <path stroke-linejoin="round" d="m232.73 160.75s-1.771-4.401-0.705-9.899c1.062-5.501 2.124-5.135 4.6-8.068 2.481-2.935 5.668-8.803 7.792-13.204 2.124-4.402 6.376-9.532 7.79-11.366 1.415-1.834 3.895-4.401 6.019-5.501s2.481-4.402 6.729-6.604c4.249-2.198 9.562-6.599 9.562-6.599s-6.728 1.467-9.914 3.3c-3.189 1.834-6.376 2.567-7.792 5.134-1.417 2.568-7.081 6.969-10.269 10.636-3.187 3.665-6.372 9.533-9.559 13.2-3.188 3.667-9.209 10.27-9.562 14.305-0.352 4.034-1.062 13.199-1.062 13.199" stroke="#000000" stroke-miterlimit="11.5" stroke-width="1.5144" fill="none"></path> <path fill="#FFFFFF" clip-rule="evenodd" d="m239.92 99.573s-9.415 4.965-18.736 8.178c-7.654 2.639-16.098 4.749-33.777 5.806-12.425 0.742-16.887-4.752-16.887-4.752l-3.432 2.378s0.791 3.691 2.638 3.691c1.848 0 3.167-0.264 5.279 0 2.109 0.265 5.277 1.846 17.416 1.058 8.441-0.552 21.637-2.639 28.763-5.017 7.126-2.374 20.847-8.967 24.542-12.398 3.692-3.429 5.012-4.484 5.012-4.484" fill-rule="evenodd"></path> <path stroke="#000000" stroke-width="1.5144" stroke-miterlimit="14.3" d="m239.92 99.573s-9.415 4.965-18.736 8.178c-7.654 2.639-16.098 4.749-33.777 5.806-12.425 0.742-16.887-4.752-16.887-4.752l-3.432 2.378s0.791 3.691 2.638 3.691c1.848 0 3.167-0.264 5.279 0 2.109 0.265 5.277 1.846 17.416 1.058 8.441-0.552 21.637-2.639 28.763-5.017 7.126-2.374 20.847-8.967 24.542-12.398 3.692-3.429 5.012-4.484 5.012-4.484" fill="none"></path> <path fill="#E2E2E2" clip-rule="evenodd" d="m226.99 104.06s5.809-27.437 1.056-38.519c-4.748-11.08-12.4-29.285-25.066-31.13-12.668-1.848-22.958 1.055-28.236 5.276-7.017 5.614-6.596 13.719-6.596 13.719s-1.847-17.676 14.25-27.175c9.048-5.34 19.263-7.387 30.08-5.277 10.82 2.11 27.709 17.414 31.141 24.01 1.579 3.043 3.165 29.019 1.844 31.395-1.316 2.374-12.402 25.062-13.721 26.644-1.31 1.58-4.74-0.26-4.74 1.06" fill-rule="evenodd"></path> <path stroke="#000000" stroke-width="2.0192" stroke-miterlimit="11.5" d="m226.99 104.06s5.809-27.437 1.056-38.519c-4.748-11.08-12.4-29.285-25.066-31.13-12.668-1.848-22.958 1.055-28.236 5.276-7.017 5.614-6.596 13.719-6.596 13.719s-1.847-17.676 14.25-27.175c9.048-5.34 19.263-7.387 30.08-5.277 10.82 2.11 27.709 17.414 31.141 24.01 1.579 3.043 3.165 29.019 1.844 31.395-1.316 2.374-12.402 25.062-13.721 26.644-1.31 1.58-4.74-0.26-4.74 1.06z" fill="none"></path> <path fill="#FFFFFF" clip-rule="evenodd" d="m146.08 33.023l-10.619 1.966s-1.181-0.394-1.574 1.574c-0.392 1.964 0.393 2.75 0.393 2.75l4.72 15.729s0 0.789 1.573 1.968c1.572 1.179 3.54 0.393 3.54 0.393l9.045-1.571-7.08-22.809" fill-rule="evenodd"></path> <path stroke="#000000" stroke-width="2.0192" stroke-miterlimit="14.3" d="m146.08 33.023l-10.619 1.966s-1.181-0.394-1.574 1.574c-0.392 1.964 0.393 2.75 0.393 2.75l4.72 15.729s0 0.789 1.573 1.968c1.572 1.179 3.54 0.393 3.54 0.393l9.045-1.571-7.08-22.809z" fill="none"></path> <path fill="#FFFFFF" clip-rule="evenodd" d="m144.39 39.117c0.438 1.902-0.406 3.725-1.885 4.066-1.482 0.341-3.039-0.927-3.48-2.828-0.438-1.904 0.406-3.725 1.887-4.07 1.49-0.342 3.04 0.926 3.48 2.832" fill-rule="evenodd"></path> <path stroke="#000000" stroke-width="1.5144" stroke-miterlimit="14.3" d="m144.39 39.117c0.438 1.902-0.406 3.725-1.885 4.066-1.482 0.341-3.039-0.927-3.48-2.828-0.438-1.904 0.406-3.725 1.887-4.07 1.49-0.342 3.04 0.926 3.48 2.832z" fill="none"></path> <path fill="#FFFFFF" clip-rule="evenodd" d="m147.44 49.039c0.459 1.989-0.429 3.893-1.979 4.253-1.554 0.356-3.187-0.966-3.645-2.956-0.459-1.985 0.428-3.893 1.979-4.249 1.55-0.357 3.18 0.964 3.64 2.952" fill-rule="evenodd"></path> <path stroke="#000000" stroke-width="1.5144" stroke-miterlimit="14.3" d="m147.44 49.039c0.459 1.989-0.429 3.893-1.979 4.253-1.554 0.356-3.187-0.966-3.645-2.956-0.459-1.985 0.428-3.893 1.979-4.249 1.55-0.357 3.18 0.964 3.64 2.952z" fill="none"></path> <path fill="#FFFFFF" clip-rule="evenodd" d="m159.84 25.552s6.561-11.912 20.057-17.694c8.258-3.542 15.378-6.385 33.036-4.721 20.844 1.968 35.002 13.764 35.002 13.764l-18.879 11.011s-20.451-16.125-33.822-15.73c-13.369 0.395-21.629 5.504-25.169 9.043-3.54 3.542-8.65 9.832-8.65 9.832l-1.58-5.505" fill-rule="evenodd"></path> <path stroke="#000000" stroke-width="2.0192" stroke-miterlimit="14.3" d="m159.84 25.552s6.561-11.912 20.057-17.694c8.258-3.542 15.378-6.385 33.036-4.721 20.844 1.968 35.002 13.764 35.002 13.764l-18.879 11.011s-20.451-16.125-33.822-15.73c-13.369 0.395-21.629 5.504-25.169 9.043-3.54 3.542-8.65 9.832-8.65 9.832l-1.58-5.505z" fill="none"></path> <path fill="#FFFFFF" clip-rule="evenodd" d="m226.7 22.405l18.091-9.043 15.734-0.395 1.181 28.705-16.521 6.687s-10.225-3.934-11.404-7.865c-1.18-3.931-7.08-18.089-7.08-18.089" fill-rule="evenodd"></path> <path stroke="#000000" stroke-width="2.0192" stroke-miterlimit="14.3" d="m226.7 22.405l18.091-9.043 15.734-0.395 1.181 28.705-16.521 6.687s-10.225-3.934-11.404-7.865c-1.18-3.931-7.08-18.089-7.08-18.089z" fill="none"></path> <path fill="#FFFFFF" clip-rule="evenodd" d="m350.22 143.37v6.594l4.485 0.265s1.585 0 2.112-1.317c0.527-1.321 0-17.676 0-17.676s0.79-3.959-2.374-3.695c-3.17 0.28-4.22 15.85-4.22 15.85" fill-rule="evenodd"></path> <path stroke="#000000" stroke-width="2.0192" stroke-miterlimit="11.5" d="m350.22 143.37v6.594l4.485 0.265s1.585 0 2.112-1.317c0.527-1.321 0-17.676 0-17.676s0.79-3.959-2.374-3.695c-3.17 0.28-4.22 15.85-4.22 15.85z" fill="none"></path> <path fill="#FFFFFF" clip-rule="evenodd" d="m351.01 140.2s-0.527 16.618-0.791 20.05c-0.266 3.431-1.583 9.761-3.166 12.663-1.584 2.903-9.764 16.358-15.833 17.94s-18.208 3.96-24.014 3.168c-5.806-0.794-14.513-8.181-18.207-13.193s-5.278-12.663-3.694-18.993c1.583-6.333 5.278-7.915 6.595-12.402 1.321-4.485 6.072-10.551 6.072-10.551" fill-rule="evenodd"></path> <path stroke="#000000" stroke-width="3.0288" stroke-miterlimit="11.5" d="m351.01 140.2s-0.527 16.618-0.791 20.05c-0.266 3.431-1.583 9.761-3.166 12.663-1.584 2.903-9.764 16.358-15.833 17.94s-18.208 3.96-24.014 3.168c-5.806-0.794-14.513-8.181-18.207-13.193s-5.278-12.663-3.694-18.993c1.583-6.333 5.278-7.915 6.595-12.402 1.321-4.485 6.072-10.551 6.072-10.551" fill="none"></path> <polyline points="231.81 20.833 243.22 19.654 248.33 39.313 242.82 41.672 229.06 24.767 231.81 20.833" clip-rule="evenodd" fill-rule="evenodd"></polyline> <polygon stroke="#000000" stroke-width="2.0192" stroke-miterlimit="11.5" points="231.81 20.833 243.22 19.654 248.33 39.313 242.82 41.672 229.06 24.767" fill="none"></polygon> <path fill="#FFFFFF" clip-rule="evenodd" d="m228.27 29.091s-21.452-15.511-38.755-13.15c-17.307 2.358-25.351 16.295-25.351 16.295s-4.327-2.36-2.753-5.898c1.572-3.54 12.979-16.909 32.251-15.729 19.271 1.179 33.821 12.975 33.821 12.975s0 5.507 0.78 5.507" fill-rule="evenodd"></path> <path stroke="#000000" stroke-width="1.5144" stroke-miterlimit="14.3" d="m228.27 29.091s-21.452-15.511-38.755-13.15c-17.307 2.358-25.351 16.295-25.351 16.295s-4.327-2.36-2.753-5.898c1.572-3.54 12.979-16.909 32.251-15.729 19.271 1.179 33.821 12.975 33.821 12.975s0 5.507 0.78 5.507z" fill="none"></path> <path fill="#FFFFFF" clip-rule="evenodd" d="m227.09 23.193l13.374-1.181 5.114 22.022s0.785 3.538-1.182 3.93c-1.967 0.394-8.257 0.394-8.257 0.394s-1.969 0.395-2.361-1.179c-0.38-1.573-6.68-23.986-6.68-23.986" fill-rule="evenodd"></path> <path stroke="#000000" stroke-width="2.0192" stroke-miterlimit="14.3" d="m227.09 23.193l13.374-1.181 5.114 22.022s0.785 3.538-1.182 3.93c-1.967 0.394-8.257 0.394-8.257 0.394s-1.969 0.395-2.361-1.179c-0.38-1.573-6.68-23.986-6.68-23.986z" fill="none"></path> <path fill="#FFFFFF" clip-rule="evenodd" d="m241.95 39.588c0.548 2.425-0.499 4.732-2.339 5.148s-3.777-1.217-4.326-3.642c-0.55-2.425 0.496-4.732 2.337-5.151 1.85-0.415 3.78 1.218 4.33 3.645" fill-rule="evenodd"></path> <ellipse cy="40.341" rx="3.417" transform="matrix(.9754 -.2204 .2204 .9754 -3.0227 53.596)" ry="4.506" stroke="#000000" cx="238.62" stroke-miterlimit="14.3" stroke-width="1.5144" fill="none"></ellipse> <path fill="#FFFFFF" clip-rule="evenodd" d="m238.77 28.074c0.375 2.258-0.706 4.322-2.418 4.608-1.712 0.284-3.403-1.317-3.782-3.577-0.375-2.26 0.708-4.323 2.417-4.608 1.71-0.284 3.4 1.317 3.78 3.577" fill-rule="evenodd"></path> <ellipse cy="28.589" rx="3.143" transform="matrix(.9864 -.1641 .1641 .9864 -1.497 39.054)" ry="4.149" stroke="#000000" cx="235.67" stroke-miterlimit="14.3" stroke-width="1.5144" fill="none"></ellipse> <path fill="#FFFFFF" clip-rule="evenodd" d="m256.98 9.037l10.62-2.752s1.966-0.395 4.325 0c2.36 0.394 3.934 1.179 3.934 1.179s9.439 3.146 10.618 6.685c1.182 3.538 3.148 22.021 3.148 22.021s0.786 2.358-1.182 4.325c-1.967 1.967-13.764 3.931-13.764 3.931" fill-rule="evenodd"></path> <path stroke="#000000" stroke-width="2.0192" stroke-miterlimit="14.3" d="m256.98 9.037l10.62-2.752s1.966-0.395 4.325 0c2.36 0.394 3.934 1.179 3.934 1.179s9.439 3.146 10.618 6.685c1.182 3.538 3.148 22.021 3.148 22.021s0.786 2.358-1.182 4.325c-1.967 1.967-13.764 3.931-13.764 3.931" fill="none"></path> <line y2="22.799" x1="145.29" x2="157.09" stroke="#000000" stroke-miterlimit="14.3" y1="33.416" stroke-width="1.5144" fill="none"></line> <path fill="#FFFFFF" clip-rule="evenodd" d="m242.43 14.543s-1.966-1.966-1.179-3.934c0.788-1.966 5.901-5.109 7.868-4.719 1.966 0.395 9.439 0.395 9.439 0.395l2.753 0.784-8.258 5.113s1.178 2.361-1.574 2.753c-2.76 0.393-9.05-0.787-9.05-0.392" fill-rule="evenodd"></path> <path stroke="#000000" stroke-width="2.0192" stroke-miterlimit="11.5" d="m245.58 13.756s-0.392-2.359 2.36-4.326c2.755-1.966 5.507-3.145 5.507-3.145m-11.02 8.258s-1.966-1.966-1.179-3.934c0.788-1.966 5.901-5.109 7.868-4.719 1.966 0.395 9.439 0.395 9.439 0.395l2.753 0.784-8.258 5.113s1.178 2.361-1.574 2.753c-2.76 0.393-9.05-0.787-9.05-0.392z" fill="none"></path> <path fill="#FFFFFF" clip-rule="evenodd" d="m286.62 95.616s-6.069 6.857-9.765 10.025c-3.692 3.164-9.763 10.555-13.458 11.872-3.695 1.321-7.127 0-7.127 0s4.223 2.639 9.238 2.374c5.014-0.264 10.028-3.691 12.402-4.748 2.373-1.057 4.222-2.639 7.388-4.749 3.168-2.11 6.069-5.804 6.069-5.804s-5.01-8.438-4.75-8.964" fill-rule="evenodd"></path> <path stroke-linejoin="round" d="m286.62 95.616s-6.069 6.857-9.765 10.025c-3.692 3.164-9.763 10.555-13.458 11.872-3.695 1.321-7.127 0-7.127 0s4.223 2.639 9.238 2.374c5.014-0.264 10.028-3.691 12.402-4.748 2.373-1.057 4.222-2.639 7.388-4.749 3.168-2.11 6.069-5.804 6.069-5.804s-5.01-8.438-4.75-8.964z" stroke="#000000" stroke-miterlimit="11.5" stroke-width="2.0192" fill="none"></path> <path fill="#FFFFFF" clip-rule="evenodd" d="m287.94 87.964s-1.847 5.013 0 9.761c1.848 4.748 4.488 6.332 5.015 8.705 0.527 2.374-2.902 12.928-1.321 19.261 1.585 6.33-2.11 12.928 2.379 17.676 4.483 4.749 11.344 8.973 13.72 10.554 2.375 1.582 8.708 3.959 14.514 3.959s14.513-2.377 18.208-5.016c3.692-2.639 5.275-6.594 8.443-9.497 3.168-2.902 6.333-6.594 6.597-13.456 0.262-6.858 1.055-20.051-0.264-24.798-1.319-4.75 0.264-9.76-1.319-12.137-1.59-2.36-50.14-13.442-65.98-4.999" fill-rule="evenodd"></path> <path stroke="#000000" stroke-width="3.0288" stroke-miterlimit="11.5" d="m287.94 87.964s-1.847 5.013 0 9.761c1.848 4.748 4.488 6.332 5.015 8.705 0.527 2.374-2.902 12.928-1.321 19.261 1.585 6.33-2.11 12.928 2.379 17.676 4.483 4.749 11.344 8.973 13.72 10.554 2.375 1.582 8.708 3.959 14.514 3.959s14.513-2.377 18.208-5.016c3.692-2.639 5.275-6.594 8.443-9.497 3.168-2.902 6.333-6.594 6.597-13.456 0.262-6.858 1.055-20.051-0.264-24.798-1.319-4.75 0.264-9.76-1.319-12.137-1.59-2.36-50.14-13.442-65.98-4.999z" fill="none"></path> <path fill="#FFFFFF" clip-rule="evenodd" d="m273.84 32.652l-9.107 10.205s-4.347-2.043-8.885-4.427c-4.54-2.384-11.032-5.011-10.986-7.302 0.045-2.292-0.602-4.417 1.453-8.536 1.267-2.538 2.283-6.295 4.723-6.786 2.44-0.49 7.906 2.72 11.423 5.693 3.54 2.97 11.4 11.153 11.4 11.153" fill-rule="evenodd"></path> <path stroke="#000000" stroke-width="2.0192" stroke-miterlimit="11.5" d="m273.84 32.652l-9.107 10.205s-4.347-2.043-8.885-4.427c-4.54-2.384-11.032-5.011-10.986-7.302 0.045-2.292-0.602-4.417 1.453-8.536 1.267-2.538 2.283-6.295 4.723-6.786 2.44-0.49 7.906 2.72 11.423 5.693 3.54 2.97 11.4 11.153 11.4 11.153z" fill="none"></path> <polyline points="276.88 21.446 284.95 19.504 287.12 35.48 279.05 37.42" fill="#FFFFFF" clip-rule="evenodd" fill-rule="evenodd"></polyline> <polygon stroke="#000000" stroke-width="1.5144" stroke-miterlimit="14.3" points="276.88 21.446 284.95 19.504 287.12 35.48 279.05 37.42" fill="none"></polygon> <path fill="#FFFFFF" clip-rule="evenodd" d="m257.77 12.967s-1.969-2.751 0-3.143c1.966-0.394 10.62 3.932 10.62 3.932s1.966 1.179 3.932 3.54c1.969 2.358 2.361 7.077 2.361 7.077l2.36 16.514s-1.179 3.932-3.147 3.932c-1.966 0-4.327-0.392-4.327-0.392l-7.866-5.899c0.01 0-3.92-26.346-3.92-25.561" fill-rule="evenodd"></path> <path stroke="#000000" stroke-width="1.5144" stroke-miterlimit="14.3" d="m300.87 191.65s-13.446-0.33-21.901-3.43c-15.833-5.806-22.167-11.079-26.124-14.246-3.958-3.166-14.513-7.386-14.513-7.386l0.264 3.166s10.291 3.428 12.93 6.595c2.639 3.166 9.499 10.817 15.832 12.399 6.334 1.581 17.416 6.333 26.388 6.069 8.973-0.265 11.083-1.058 11.083-1.058s-3.96-1.31-3.96-2.1zm-86.75-176.32s0.394-3.146 6.294-5.898c5.899-2.751 9.439-2.751 9.439-2.751m27.92 6.288s-1.969-2.751 0-3.143c1.966-0.394 10.62 3.932 10.62 3.932s1.966 1.179 3.932 3.54c1.969 2.358 2.361 7.077 2.361 7.077l2.36 16.514s-1.179 3.932-3.147 3.932c-1.966 0-4.327-0.392-4.327-0.392l-7.866-5.899c0.01 0-3.92-26.346-3.92-25.561z" fill="none"></path> <path fill="#FFFFFF" clip-rule="evenodd" d="m151.1 23.445c0.243 1.058-1.362 2.332-3.587 2.842-2.221 0.511-4.22 0.065-4.465-0.992-0.242-1.059 1.362-2.331 3.587-2.842 2.23-0.51 4.23-0.064 4.47 0.992" fill-rule="evenodd"></path> <ellipse cy="24.37" rx="4.131" transform="matrix(.9746 -.2239 .2239 .9746 -1.7222 33.555)" ry="1.966" stroke="#000000" cx="147.08" stroke-miterlimit="11.5" stroke-width="2.0192" fill="none"></ellipse> <path fill="#D7D7D7" clip-rule="evenodd" d="m194.76 183.07l22.229 0.946c2.799 0.119 4.995 2.726 4.867 5.774l-2.312 54.302c-0.13 3.049-2.539 5.458-5.338 5.34l-44.459-1.893c-2.801-0.119-4.998-2.726-4.865-5.771l2.309-54.306c0.13-3.049 2.54-5.458 5.338-5.34l22.23 0.95" fill-rule="evenodd"></path> <path stroke="#000000" stroke-width="2.0192" stroke-miterlimit="11.5" d="m194.76 183.07l22.229 0.946c2.799 0.119 4.995 2.726 4.867 5.774l-2.312 54.302c-0.13 3.049-2.539 5.458-5.338 5.34l-44.459-1.893c-2.801-0.119-4.998-2.726-4.865-5.771l2.309-54.306c0.13-3.049 2.54-5.458 5.338-5.34l22.23 0.95z" fill="none"></path> <path fill="#FFFFFF" clip-rule="evenodd" d="m254.03 78.339l-7.276 0.395s-3.146 1.179-2.949 7.077c0.195 5.898 2.556 8.062 2.556 8.062l8.065-0.59s2.753-5.111 1.768-7.864c-0.98-2.753-2.16-7.08-2.16-7.08" fill-rule="evenodd"></path> <path stroke="#000000" stroke-width="1.5144" stroke-miterlimit="14.3" d="m254.03 78.339l-7.276 0.395s-3.146 1.179-2.949 7.077c0.195 5.898 2.556 8.062 2.556 8.062l8.065-0.59s2.753-5.111 1.768-7.864c-0.98-2.753-2.16-7.08-2.16-7.08z" fill="none"></path> <path fill="#787878" clip-rule="evenodd" d="m251.2 57.697l-6.801 0.282s-2.939 0.852-2.757 5.107c0.184 4.257 2.391 5.817 2.391 5.817l7.532-0.426s2.573-3.689 1.655-5.672c-0.92-1.988-2.02-5.108-2.02-5.108" fill-rule="evenodd"></path> <path stroke="#000000" stroke-width="2.0192" stroke-miterlimit="11.5" d="m251.2 57.697l-6.801 0.282s-2.939 0.852-2.757 5.107c0.184 4.257 2.391 5.817 2.391 5.817l7.532-0.426s2.573-3.689 1.655-5.672c-0.92-1.988-2.02-5.108-2.02-5.108z" fill="none"></path> <path fill="#787878" clip-rule="evenodd" d="m255.61 63.231c0 2.974-1.811 5.389-4.043 5.389s-4.042-2.416-4.042-5.389c0-2.978 1.81-5.391 4.042-5.391s4.04 2.413 4.04 5.391" fill-rule="evenodd"></path> <ellipse rx="4.042" cy="63.231" ry="5.389" stroke="#000000" cx="251.56" stroke-miterlimit="11.5" stroke-width="2.0192" fill="none"></ellipse> <polyline points="235.43 108.54 233.58 115.4 228.31 118.56 226.46 117.51 227.78 109.07 234.11 104.85 235.43 108.54" fill="#787878" clip-rule="evenodd" fill-rule="evenodd"></polyline> <polygon stroke="#000000" stroke-width="2.0192" stroke-miterlimit="11.5" points="235.43 108.54 233.58 115.4 228.31 118.56 226.46 117.51 227.78 109.07 234.11 104.85" fill="none"></polygon> <path fill="#FFFFFF" clip-rule="evenodd" d="m258.75 86.008c0 4.123-1.939 7.472-4.328 7.472-2.388 0-4.325-3.349-4.325-7.472 0-4.125 1.938-7.47 4.325-7.47 2.39 0.001 4.33 3.345 4.33 7.47" fill-rule="evenodd"></path> <path stroke="#000000" stroke-width="1.5144" stroke-miterlimit="14.3" d="m258.75 86.008c0 4.123-1.939 7.472-4.328 7.472-2.388 0-4.325-3.349-4.325-7.472 0-4.125 1.938-7.47 4.325-7.47 2.39 0.001 4.33 3.345 4.33 7.47z" fill="none"></path> <rect y="107.22" x="233.58" height="8.972" width="4.225" fill="#C8C8C8"></rect> <rect height="8.972" width="4.225" stroke="#000000" stroke-miterlimit="11.5" y="107.22" x="233.58" stroke-width="2.0192" fill="none"></rect> <path fill="#FFFFFF" clip-rule="evenodd" d="m259.74 54.552l-7.276 0.391s-3.146 1.181-2.95 7.079c0.195 5.898 2.557 8.061 2.557 8.061l8.064-0.589s2.753-5.113 1.77-7.864c-0.98-2.754-2.16-7.078-2.16-7.078" fill-rule="evenodd"></path> <path stroke="#000000" stroke-width="2.0192" stroke-miterlimit="11.5" d="m259.74 54.552l-7.276 0.391s-3.146 1.181-2.95 7.079c0.195 5.898 2.557 8.061 2.557 8.061l8.064-0.589s2.753-5.113 1.77-7.864c-0.98-2.754-2.16-7.078-2.16-7.078z" fill="none"></path> <path fill="#FFFFFF" clip-rule="evenodd" d="m264.46 62.219c0 4.125-1.938 7.47-4.326 7.47s-4.329-3.345-4.329-7.47c0-4.123 1.941-7.472 4.329-7.472 2.39 0.001 4.33 3.349 4.33 7.472" fill-rule="evenodd"></path> <ellipse rx="4.328" cy="62.219" ry="7.47" stroke="#000000" cx="260.13" stroke-miterlimit="11.5" stroke-width="2.0192" fill="none"></ellipse> <path clip-rule="evenodd" d="m179.62 196.86s-9.208 0.356-12.392 0.356c-3.187 0-6.729-1.771-7.437 0.709-0.708 2.477-1.063 14.864-1.063 14.864s-0.708 2.836 1.063 3.542c1.769 0.709 12.037 1.416 12.037 1.416l2.481-2.122 2.476 2.477 4.252-1.771 33.637 1.061v-3.538l2.479-0.354s1.416-3.187 0.354-4.603-4.248-1.416-4.248-1.416l-24.077-0.706c0-0.01-8.85-10.63-9.56-9.92" fill-rule="evenodd"></path> <path stroke="#000000" stroke-width="2.0192" stroke-miterlimit="11.5" d="m179.62 196.86s-9.208 0.356-12.392 0.356c-3.187 0-6.729-1.771-7.437 0.709-0.708 2.477-1.063 14.864-1.063 14.864s-0.708 2.836 1.063 3.542c1.769 0.709 12.037 1.416 12.037 1.416l2.481-2.122 2.476 2.477 4.252-1.771 33.637 1.061v-3.538l2.479-0.354s1.416-3.187 0.354-4.603-4.248-1.416-4.248-1.416l-24.077-0.706c0-0.01-8.85-10.63-9.56-9.92z" fill="none"></path> <path stroke="#000000" stroke-width="1.5144" stroke-miterlimit="14.3" d="m340.98 151.55s2.111-2.11 1.319-7.387c-0.791-5.277-3.432-12.14-2.904-18.204 0.527-6.07 1.058-8.973 0-14.51-1.056-5.542-2.64-7.654-2.64-7.654" fill="none"></path> <path fill="#FFFFFF" clip-rule="evenodd" d="m296.65 190.33s-7.126-3.163-10.821-6.595c-3.693-3.43-11.083-10.553-15.57-13.455" fill-rule="evenodd"></path> <path stroke="#000000" stroke-width="2.0192" stroke-miterlimit="11.5" d="m296.65 190.33s-7.126-3.163-10.821-6.595c-3.693-3.43-11.083-10.553-15.57-13.455" fill="none"></path> <path fill="#FFFFFF" clip-rule="evenodd" d="m255.75 116.99s-8.975-10.819-10.82-13.457c-1.849-2.641-4.486-3.693-3.96-7.651 0.527-3.958 4.752-6.067 4.752-6.067s-1.586 4.484-0.529 7.121c1.057 2.641 10.293 14.774 11.874 17.149 1.585 2.374 7.391 1.85 7.391 1.85s-4.48 3.69-8.7 1.06" fill-rule="evenodd"></path> <path stroke="#000000" stroke-width="2.0192" stroke-miterlimit="11.5" d="m255.75 116.99s-8.975-10.819-10.82-13.457c-1.849-2.641-4.486-3.693-3.96-7.651 0.527-3.958 4.752-6.067 4.752-6.067s-1.586 4.484-0.529 7.121c1.057 2.641 10.293 14.774 11.874 17.149 1.585 2.374 7.391 1.85 7.391 1.85s-4.48 3.69-8.7 1.06z" fill="none"></path> <path fill="#FFFFFF" clip-rule="evenodd" d="m240.71 94.823s1.32-2.637 5.278-5.275c3.96-2.639 6.334-8.444 8.708-11.875 2.376-3.427 5.278-8.178 5.278-8.178l-2.11-3.958-5.278 0.264s0 6.596-2.638 10.554c-2.641 3.957-2.374 6.596-6.336 10.553-3.96 3.957-2.9 7.915-2.9 7.915" fill-rule="evenodd"></path> <path stroke="#000000" stroke-width="2.0192" stroke-miterlimit="11.5" d="m240.71 94.823s1.32-2.637 5.278-5.275c3.96-2.639 6.334-8.444 8.708-11.875 2.376-3.427 5.278-8.178 5.278-8.178l-2.11-3.958-5.278 0.264s0 6.596-2.638 10.554c-2.641 3.957-2.374 6.596-6.336 10.553-3.96 3.957-2.9 7.915-2.9 7.915z" fill="none"></path> <path fill="#FFFFFF" clip-rule="evenodd" d="m252.58 66.331s2.904-1.32 7.125 1.847c2.744 2.057 9.237 2.375 10.555 2.638 1.32 0.262 4.488 0.791 8.71 0.262 4.222-0.526 8.708-2.9 8.708-2.9l-4.486-8.708s-2.111 2.638-7.389 2.11c-5.278-0.527-9.237 0-12.666-1.319-3.432-1.317-2.525-1.556-5.016-0.265-6.58 3.432-5.53 6.335-5.53 6.335" fill-rule="evenodd"></path> <path stroke="#000000" stroke-width="2.0192" stroke-miterlimit="11.5" d="m266.83 69.716s-0.528 1.424 0.527 2.134c1.056 0.711 1.583 0.236 4.224 0.475 2.64 0.236 3.696-0.475 3.696-1.897 0-1.424-0.795-9.718-0.795-9.718s-1.316-0.714-2.901-0.714-3.959 0-3.959 0l-0.528 1.424m-14.51 4.911s2.904-1.32 7.125 1.847c2.744 2.057 9.237 2.375 10.555 2.638 1.32 0.262 4.488 0.791 8.71 0.262 4.222-0.526 8.708-2.9 8.708-2.9l-4.486-8.708s-2.111 2.638-7.389 2.11c-5.278-0.527-9.237 0-12.666-1.319-3.432-1.317-2.525-1.556-5.016-0.265-6.58 3.432-5.53 6.335-5.53 6.335z" fill="none"></path> <path fill="#FFFFFF" clip-rule="evenodd" d="m219.63 158.27l4.252-5.664s1.417-1.416 0.708-3.896c-0.708-2.477-4.96-21.592-4.96-21.592" fill-rule="evenodd"></path> <path stroke="#000000" stroke-width="2.0192" stroke-miterlimit="11.5" d="m219.63 158.27l4.252-5.664s1.417-1.416 0.708-3.896c-0.708-2.477-4.96-21.592-4.96-21.592" fill="none"></path> <rect y="78.468" x="234.11" height="29.283" width="3.694" fill="#919191"></rect> <rect height="29.285" width="3.694" stroke="#000000" stroke-miterlimit="11.5" y="78.466" x="234.11" stroke-width="2.0192" fill="none"></rect> <path fill="#919191" clip-rule="evenodd" d="m240.97 97.463c0 2.185-1.299 3.958-2.902 3.958s-2.904-1.773-2.904-3.958c0-2.186 1.301-3.958 2.904-3.958s2.9 1.774 2.9 3.959" fill-rule="evenodd"></path> <ellipse rx="2.903" cy="97.463" ry="3.958" stroke="#000000" cx="238.07" stroke-miterlimit="11.5" stroke-width="2.0192" fill="none"></ellipse> <path fill="#919191" clip-rule="evenodd" d="m239.65 119.76c0 2.985-2.128 5.407-4.75 5.407-2.623 0-4.75-2.422-4.75-5.407 0-2.986 2.127-5.411 4.75-5.411 2.63 0 4.75 2.42 4.75 5.41" fill-rule="evenodd"></path> <ellipse rx="4.75" cy="119.76" ry="5.407" stroke="#000000" cx="234.9" stroke-miterlimit="11.5" stroke-width="2.0192" fill="none"></ellipse> <polyline points="233.85 115.14 232.27 121.21 235.69 122.52 237.54 116.19 233.85 115.14" clip-rule="evenodd" fill-rule="evenodd"></polyline> <path stroke="#000000" stroke-width="2.0192" stroke-miterlimit="11.5" d="m168.14 52.876s0 7.914 1.055 11.871c1.055 3.958-1.847 9.499 0 14.511 1.846 5.013 14.514 18.731 18.999 21.896 4.485 3.167 0.527 9.235 4.223 10.553 3.692 1.321 6.86 0.529 13.721-0.793 6.861-1.317 18.086-3.813 19.934-6.187 1.846-2.374 1.968-8.057 1.968-8.057m5.81 18.477l-1.582 6.069 3.429 1.317 1.849-6.333-3.7-1.06z" fill="none"></path> <path stroke-linejoin="round" d="m185.3 62.901s3.958 2.375 4.75 3.693c0.794 1.317-0.262 2.901-1.318 5.804s-4.487 1.848-3.165 6.596c1.317 4.75 5.805 3.693 8.443 2.637 2.639-1.053 3.432-4.22 5.013-3.692 1.583 0.529 1.848 1.319 1.848 1.319s1.321 0 1.058-1.847" stroke="#000000" stroke-miterlimit="11.5" stroke-width="1.5144" fill="none"></path> <path fill="#FFFFFF" clip-rule="evenodd" d="m212.34 157.35l12.436 0.531c1.564 0.063 2.796 1.433 2.729 3.029l-1.208 28.42c-0.068 1.592-1.413 2.851-2.979 2.787l-24.87-1.06c-1.567-0.068-2.797-1.433-2.732-3.03l1.211-28.418c0.066-1.598 1.412-2.855 2.978-2.789l12.43 0.53" fill-rule="evenodd"></path> <path stroke="#000000" stroke-width="1.5144" stroke-miterlimit="14.3" d="m212.34 157.35l12.436 0.531c1.564 0.063 2.796 1.433 2.729 3.029l-1.208 28.42c-0.068 1.592-1.413 2.851-2.979 2.787l-24.87-1.06c-1.567-0.068-2.797-1.433-2.732-3.03l1.211-28.418c0.066-1.598 1.412-2.855 2.978-2.789l12.43 0.53z" fill="none"></path> <path fill="#FFFFFF" clip-rule="evenodd" d="m173.13 127.41l12.435 0.529c1.565 0.067 2.798 1.435 2.729 3.028l-0.175 4.138c-0.067 1.593-1.412 2.855-2.976 2.788l-24.874-1.058c-1.565-0.066-2.799-1.439-2.731-3.032l0.177-4.137c0.067-1.597 1.41-2.855 2.977-2.789l12.43 0.53" fill-rule="evenodd"></path> <path stroke="#000000" stroke-width="2.0192" stroke-miterlimit="11.5" d="m173.13 127.41l12.435 0.529c1.565 0.067 2.798 1.435 2.729 3.028l-0.175 4.138c-0.067 1.593-1.412 2.855-2.976 2.788l-24.874-1.058c-1.565-0.066-2.799-1.439-2.731-3.032l0.177-4.137c0.067-1.597 1.41-2.855 2.977-2.789l12.43 0.53z" fill="none"></path> <polyline points="162.94 132.07 188.43 132.74 187.69 160.7 162.21 160.03" fill="#FFFFFF" clip-rule="evenodd" fill-rule="evenodd"></polyline> <rect transform="matrix(-.9997 -.0263 .0263 -.9997 346.73 297.33)" height="27.963" width="25.493" stroke="#000000" stroke-miterlimit="11.5" y="132.4" x="162.57" stroke-width="2.0192" fill="none"></rect> <path fill="#787878" clip-rule="evenodd" d="m195.32 52.346s4.221-2.11 7.916-1.582c3.693 0.529 9.763 2.903 9.763 2.903s-7.389-5.805-10.82-5.805c-3.43 0-7.652 1.057-7.652 1.057s1.06 4.484 0.79 3.427" fill-rule="evenodd"></path> <path stroke-linejoin="round" d="m195.32 52.346s4.221-2.11 7.916-1.582c3.693 0.529 9.763 2.903 9.763 2.903s-7.389-5.805-10.82-5.805c-3.43 0-7.652 1.057-7.652 1.057s1.06 4.484 0.79 3.427z" stroke="#000000" stroke-miterlimit="11.5" stroke-width="1.5144" fill="none"></path> <path fill="#787878" clip-rule="evenodd" d="m181.56 59.062s-3.605-0.941-5.95 0.467c-2.346 1.408-5.687 5.141-5.687 5.141s3.077-7.284 5.422-8.129c2.345-0.849 5.59-0.897 5.59-0.897s0.81 4.477 0.63 3.418" fill-rule="evenodd"></path> <path stroke-linejoin="round" d="m181.56 59.062s-3.605-0.941-5.95 0.467c-2.346 1.408-5.687 5.141-5.687 5.141s3.077-7.284 5.422-8.129c2.345-0.849 5.59-0.897 5.59-0.897s0.81 4.477 0.63 3.418z" stroke="#000000" stroke-miterlimit="11.5" stroke-width="1.5144" fill="none"></path> <path fill="#FFFFFF" clip-rule="evenodd" d="m200.6 64.218v-5.274s1.057-2.11 4.752-1.583c3.695 0.526 7.391 2.638 7.391 2.638" fill-rule="evenodd"></path> <path stroke-linejoin="round" d="m200.6 64.218v-5.274s1.057-2.11 4.752-1.583c3.695 0.526 7.391 2.638 7.391 2.638" stroke="#000000" stroke-miterlimit="11.5" stroke-width="1.5144" fill="none"></path> <path fill="#FFFFFF" clip-rule="evenodd" d="m157.43 118.76s-9.378 0-14.654 4.689c-5.275 4.689-4.689 7.619-7.034 11.721-2.343 4.101-5.86 6.444-7.034 11.72-1.171 5.277-1.759 7.032-2.93 11.722-1.174 4.688-2.345 9.378-2.345 9.378s-1.174 0-2.347 2.343c-1.171 2.347-8.205 0-13.479 4.689-5.277 4.689-13.482 6.444-13.482 6.444l-6.447 46.3s16.998 1.76 22.86 0c5.86-1.759 11.137 1.171 14.067-2.347 2.933-3.514 1.759-1.756 5.277-4.686 3.517-2.93 14.068-5.86 14.068-5.86s-3.03-32.631 0.37-57.445c3.19-23.32 12.82-38.94 13.1-38.66" fill-rule="evenodd"></path> <path stroke="#000000" stroke-width="2.0192" stroke-miterlimit="11.5" d="m157.43 118.76s-9.378 0-14.654 4.689c-5.275 4.689-4.689 7.619-7.034 11.721-2.343 4.101-5.86 6.444-7.034 11.72-1.171 5.277-1.759 7.032-2.93 11.722-1.174 4.688-2.345 9.378-2.345 9.378s-1.174 0-2.347 2.343c-1.171 2.347-8.205 0-13.479 4.689-5.277 4.689-13.482 6.444-13.482 6.444l-6.447 46.3s16.998 1.76 22.86 0c5.86-1.759 11.137 1.171 14.067-2.347 2.933-3.514 1.759-1.756 5.277-4.686 3.517-2.93 14.068-5.86 14.068-5.86s-3.03-32.631 0.37-57.445c3.19-23.32 12.82-38.94 13.1-38.66z" fill="none"></path> <path fill="#646464" clip-rule="evenodd" d="m172.9 188.36s-16.645 0.354-19.476-0.354c-2.832-0.707-5.312-2.123-6.727-4.603-1.417-2.478 1.062-20.887 1.062-20.887s0-6.373 4.602-7.789c4.605-1.416 19.476 0.354 19.476 0.354" fill-rule="evenodd"></path> <path stroke="#000000" stroke-width="2.0192" stroke-miterlimit="11.5" d="m172.9 188.36s-16.645 0.354-19.476-0.354c-2.832-0.707-5.312-2.123-6.727-4.603-1.417-2.478 1.062-20.887 1.062-20.887s0-6.373 4.602-7.789c4.605-1.416 19.476 0.354 19.476 0.354" fill="none"></path> <path fill="#FFFFFF" clip-rule="evenodd" d="m184.24 68.178l-2.374-3.431s-3.432-0.262-5.278 1.584c-1.849 1.847-3.17 5.012-3.17 5.012" fill-rule="evenodd"></path> <path stroke-linejoin="round" d="m184.24 68.178l-2.374-3.431s-3.432-0.262-5.278 1.584c-1.849 1.847-3.17 5.012-3.17 5.012" stroke="#000000" stroke-miterlimit="11.5" stroke-width="1.5144" fill="none"></path> <path clip-rule="evenodd" d="m205.53 57.625s-1.361 3.711 0.68 3.944c2.044 0.233 2.044-2.784 2.044-2.784" fill-rule="evenodd"></path> <path stroke="#000000" stroke-width="2.0192" stroke-miterlimit="11.5" d="m205.53 57.625s-1.361 3.711 0.68 3.944c2.044 0.233 2.044-2.784 2.044-2.784" fill="none"></path> <path clip-rule="evenodd" d="m178.62 65.011s-1.363 3.713 0.68 3.946c2.043 0.232 2.043-3.946 2.043-3.946" fill-rule="evenodd"></path> <path stroke="#000000" stroke-width="2.0192" stroke-miterlimit="11.5" d="m178.62 65.011s-1.363 3.713 0.68 3.946c2.043 0.232 2.043-3.946 2.043-3.946" fill="none"></path> <path fill="#FFFFFF" clip-rule="evenodd" d="m191.1 92.449s5.542 0 7.127-0.263c1.584-0.264 6.07-4.75 8.71-5.541 2.637-0.791 5.539-3.693 5.539-3.693s-7.387 13.983-12.402 14.775c-5.02 0.791-8.98-5.541-8.98-5.278" fill-rule="evenodd"></path> <path stroke-linejoin="round" d="m195.32 99.309s0.789 2.375 4.485 2.375c3.693 0 7.917-5.804 7.917-5.804m-16.62-3.427s5.542 0 7.127-0.263c1.584-0.264 6.07-4.75 8.71-5.541 2.637-0.791 5.539-3.693 5.539-3.693s-7.387 13.983-12.402 14.775c-5.02 0.791-8.98-5.541-8.98-5.278z" stroke="#000000" stroke-miterlimit="11.5" stroke-width="1.5144" fill="none"></path> <path fill="#FFFFFF" clip-rule="evenodd" d="m173.07 181.56l-8.527-14.727 0.776-12.656s1.033-2.843 3.1-3.359 10.08 1.55 10.08 1.55l-5.43 29.2" fill-rule="evenodd"></path> <path stroke="#000000" stroke-width="2.0192" stroke-miterlimit="11.5" d="m173.07 181.56l-8.527-14.727 0.776-12.656s1.033-2.843 3.1-3.359 10.08 1.55 10.08 1.55l-5.43 29.2z" fill="none"></path> <path fill="#FFFFFF" clip-rule="evenodd" d="m208.24 197.02l3.657 0.387s3.662-0.193 4.817-1.543c1.153-1.348 1.927-3.654 1.927-3.654l0.962-33.886s0.19-3.08-2.889-5.585c-3.083-2.5-8.089-1.924-8.089-1.924l-0.39 46.2" fill-rule="evenodd"></path> <path stroke="#000000" stroke-width="2.0192" stroke-miterlimit="11.5" d="m208.24 197.02l3.657 0.387s3.662-0.193 4.817-1.543c1.153-1.348 1.927-3.654 1.927-3.654l0.962-33.886s0.19-3.08-2.889-5.585c-3.083-2.5-8.089-1.924-8.089-1.924l-0.39 46.2z" fill="none"></path> <path fill="#FFFFFF" clip-rule="evenodd" d="m205.89 196.8l5.684 5.17s1.55 1.29 1.293 2.84c-1.033 1.55-3.103 1.033-3.103 1.033l-23.771 0.26s-3.616 0-3.616-1.81c0-1.807 4.133-4.906 4.133-4.906" fill-rule="evenodd"></path> <path stroke="#000000" stroke-width="1.5144" stroke-miterlimit="14.3" d="m205.89 196.8l5.684 5.17s1.55 1.29 1.293 2.84c-1.033 1.55-3.103 1.033-3.103 1.033l-23.771 0.26s-3.616 0-3.616-1.81c0-1.807 4.133-4.906 4.133-4.906" fill="none"></path> <path stroke-linejoin="round" d="m207.99 75.827s0.528 3.167 5.016 5.013c4.486 1.848 5.544 2.374 5.014 5.279" stroke="#000000" stroke-miterlimit="14.3" stroke-width="1.5144" fill="none"></path> <polyline points="197.03 123.14 204.19 123.4 203.76 135.52 196.6 135.26" fill="#FFFFFF" clip-rule="evenodd" fill-rule="evenodd"></polyline> <rect transform="matrix(-.9994 -.0357 .0357 -.9994 396.05 265.73)" height="12.128" width="7.165" stroke="#000000" stroke-miterlimit="11.5" y="123.26" x="196.81" stroke-width="2.0192" fill="none"></rect> <path fill="#FFFFFF" clip-rule="evenodd" d="m188.46 86.645s0.265 1.319 0.794 4.484c0.527 3.167 1.056 5.015 1.056 5.015" fill-rule="evenodd"></path> <path stroke-linejoin="round" d="m188.46 86.645s0.265 1.319 0.794 4.484c0.527 3.167 1.056 5.015 1.056 5.015" stroke="#000000" stroke-miterlimit="11.5" stroke-width="1.5144" fill="none"></path> <path fill="#787878" clip-rule="evenodd" d="m27.331 258.95s0.708 0.776 3.187 0.776 4.249-0.26 4.959-2.588c0.708-2.327-2.833-4.141-2.833-4.141s-4.604 0.26-4.959 1.554c-0.354 1.3 0.354 5.44-0.354 4.4" fill-rule="evenodd"></path> <path stroke="#000000" stroke-width="2.0192" stroke-miterlimit="11.5" d="m27.331 258.95s0.708 0.776 3.187 0.776 4.249-0.26 4.959-2.588c0.708-2.327-2.833-4.141-2.833-4.141s-4.604 0.26-4.959 1.554c-0.354 1.3 0.354 5.44-0.354 4.4z" fill="none"></path> <path fill="#787878" clip-rule="evenodd" d="m22.373 263.98s0.708 1.061 3.187 1.061 4.25-0.354 4.959-3.541c0.708-3.187-2.834-5.663-2.834-5.663s-4.604 0.354-4.959 2.125c-0.353 1.77 0.355 7.43-0.353 6.02" fill-rule="evenodd"></path> <path stroke="#000000" stroke-width="2.0192" stroke-miterlimit="11.5" d="m22.373 263.98s0.708 1.061 3.187 1.061 4.25-0.354 4.959-3.541c0.708-3.187-2.834-5.663-2.834-5.663s-4.604 0.354-4.959 2.125c-0.353 1.77 0.355 7.43-0.353 6.02z" fill="none"></path> <path fill="#787878" clip-rule="evenodd" d="m16 260.08s-1.416 2.48 1.063 3.545c2.479 1.062 6.02 0.707 6.02 0.707l1.063-3.542-4.604-16.994s-7.437 0-8.146 2.126c-0.708 2.122-1.414 7.434 0.355 9.56 1.77 2.11 4.249 4.95 4.249 4.59" fill-rule="evenodd"></path> <path stroke="#000000" stroke-width="2.0192" stroke-miterlimit="11.5" d="m16 260.08s-1.416 2.48 1.063 3.545c2.479 1.062 6.02 0.707 6.02 0.707l1.063-3.542-4.604-16.994s-7.437 0-8.146 2.126c-0.708 2.122-1.414 7.434 0.355 9.56 1.77 2.11 4.249 4.95 4.249 4.59z" fill="none"></path> <path fill="#FFFFFF" clip-rule="evenodd" d="m100.62 187.16s-1.415-3.892-4.249-5.664c-2.832-1.771-3.54-2.83-7.081-1.771-3.54 1.065-13.455 3.897-18.765 6.373-5.312 2.481-5.312 4.248-12.039 7.435-6.729 3.187-11.331 3.187-14.162 6.724-2.834 3.543-4.25 3.543-6.021 7.084s-2.124 7.08-6.018 8.851c-3.896 1.771-4.249 3.187-8.499 4.603-4.249 1.415-7.789 2.476-9.56 6.724-1.771 4.251 1.062 7.078-1.771 7.789-2.834 0.709-2.834 0.354-5.664 3.541-2.833 3.187-4.958 6.019-3.896 9.205 1.063 3.183 2.479 7.789 2.479 7.789s19.119-0.71 20.89-1.065c1.771-0.354 3.187-0.354 5.311-2.121 2.126-1.771 4.25-3.542 7.436-6.373 3.188-2.832 2.479-3.542 4.958-3.187 2.479 0.354 7.436-2.478 12.393-2.127 4.958 0.356 7.435 2.127 13.102 1.065 5.663-1.065 5.663-2.832 11.329-2.832 5.665 0 8.854-2.479 16.288-3.896 7.434-1.416 8.497-1.771 10.976-3.894 2.479-2.125 3.54-1.415 2.479-8.853-1.063-7.431 2.124-12.033-2.124-18.761-4.249-6.729-5.312-10.267-6.02-12.742-0.71-2.47-2.484-3.89-1.78-3.89" fill-rule="evenodd"></path> <path stroke="#000000" stroke-width="3.0288" stroke-miterlimit="11.5" d="m100.62 187.16s-1.415-3.892-4.249-5.664c-2.832-1.771-3.54-2.83-7.081-1.771-3.54 1.065-13.455 3.897-18.765 6.373-5.312 2.481-5.312 4.248-12.039 7.435-6.729 3.187-11.331 3.187-14.162 6.724-2.834 3.543-4.25 3.543-6.021 7.084s-2.124 7.08-6.018 8.851c-3.896 1.771-4.249 3.187-8.499 4.603-4.249 1.415-7.789 2.476-9.56 6.724-1.771 4.251 1.062 7.078-1.771 7.789-2.834 0.709-2.834 0.354-5.664 3.541-2.833 3.187-4.958 6.019-3.896 9.205 1.063 3.183 2.479 7.789 2.479 7.789s19.119-0.71 20.89-1.065c1.771-0.354 3.187-0.354 5.311-2.121 2.126-1.771 4.25-3.542 7.436-6.373 3.188-2.832 2.479-3.542 4.958-3.187 2.479 0.354 7.436-2.478 12.393-2.127 4.958 0.356 7.435 2.127 13.102 1.065 5.663-1.065 5.663-2.832 11.329-2.832 5.665 0 8.854-2.479 16.288-3.896 7.434-1.416 8.497-1.771 10.976-3.894 2.479-2.125 3.54-1.415 2.479-8.853-1.063-7.431 2.124-12.033-2.124-18.761-4.249-6.729-5.312-10.267-6.02-12.742-0.71-2.47-2.484-3.89-1.78-3.89z" fill="none"></path> <path fill="#AAAAAA" clip-rule="evenodd" d="m43.261 243.8s2.125-0.354 3.542-3.187c1.418-2.836 6.729-6.022 8.854-6.728 2.124-0.706 8.145-3.893 7.789-0.706-0.353 3.187 1.418 6.725-2.123 5.663-3.542-1.065-6.376 0-6.376 0" fill-rule="evenodd"></path> <path stroke="#000000" stroke-width="1.5144" stroke-miterlimit="14.3" d="m43.261 243.8s2.125-0.354 3.542-3.187c1.418-2.836 6.729-6.022 8.854-6.728 2.124-0.706 8.145-3.893 7.789-0.706-0.353 3.187 1.418 6.725-2.123 5.663-3.542-1.065-6.376 0-6.376 0" fill="none"></path> <path fill="#AAAAAA" clip-rule="evenodd" d="m22.728 237.78l-2.477-2.83s-2.481 0.354-4.96 2.479c-2.479 2.122-2.833 1.062-5.31 4.248-2.48 3.187-4.604 4.603-3.896 6.728 0.71 2.122 1.771 5.309 1.771 5.309l-1.771 2.126s1.063 2.831 2.833 4.953c1.771 2.126 4.604 2.477 6.021 0 1.414-2.477 2.479-3.538 0.708-5.309s-2.48-5.667-2.48-5.667 2.125-2.121 3.896-2.477c1.771-0.355 1.771 0.355 1.771 0.355s-3.542 3.537-1.771 7.078c1.771 3.542 1.171 3.226 3.188 3.896 4.247 1.416 9.205-4.957 8.142-5.312-3.83-1.277-7.789-2.477-8.142-4.247-0.357-1.78 2.477-11.34 2.477-11.34" fill-rule="evenodd"></path> <path stroke="#000000" stroke-width="2.0192" stroke-miterlimit="11.5" d="m12.458 239.55l3.896 7.434m-9.206 0.71l6.022 1.415m-4.606 4.26l4.959-0.354m9.205-15.23l-2.477-2.83s-2.481 0.354-4.96 2.479c-2.479 2.122-2.833 1.062-5.31 4.248-2.48 3.187-4.604 4.603-3.896 6.728 0.71 2.122 1.771 5.309 1.771 5.309l-1.771 2.126s1.063 2.831 2.833 4.953c1.771 2.126 4.604 2.477 6.021 0 1.414-2.477 2.479-3.538 0.708-5.309s-2.48-5.667-2.48-5.667 2.125-2.121 3.896-2.477c1.771-0.355 1.771 0.355 1.771 0.355s-3.542 3.537-1.771 7.078c1.771 3.542 1.171 3.226 3.188 3.896 4.247 1.416 9.205-4.957 8.142-5.312-3.83-1.277-7.789-2.477-8.142-4.247-0.357-1.78 2.477-11.34 2.477-11.34z" fill="none"></path> <path fill="#FFFFFF" clip-rule="evenodd" d="m30.517 216.54s3.895 4.953 8.142 9.56c4.251 4.599 5.667 5.308 8.146 8.49 2.479 3.187 3.187 5.668 3.187 5.668s1.416-0.71-0.353 1.771c-1.771 2.477-3.895 2.477-3.895 2.477s2.123 1.061 6.371-0.706c4.251-1.771 4.604-3.187 4.251-7.082-0.354-3.894-3.895-7.435-5.665-10.617-1.771-3.187-4.604-6.373-7.791-8.854-5.625-4.373-6.728-6.019-6.728-6.019s-1.418 0.356-3.542 1.416c-2.123 1.06-1.062 3.89-2.123 3.89" fill-rule="evenodd"></path> <path stroke="#000000" stroke-width="1.5144" stroke-miterlimit="14.3" d="m123.28 168.75s4.957 4.43 6.728 8.862 3.897 9.232 4.957 15.878c1.065 6.649 2.481 16.618 2.481 16.618l-0.709 6.65-5.311 2.216s1.415-7.386 0.352-14.402c-1.06-7.02-0.708-6.649-2.831-15.141-2.126-8.495-2.479-7.387-4.25-11.082-1.771-3.691-4.604-7.754-4.604-7.754m-100.91 77.43s0.354-0.706 2.124-3.538c1.771-2.831 1.771-1.771 3.188-6.018 1.418-4.248 0.354-9.205 0.354-9.205m5.665-12.74s3.895 4.953 8.142 9.56c4.251 4.599 5.667 5.308 8.146 8.49 2.479 3.187 3.187 5.668 3.187 5.668s1.416-0.71-0.353 1.771c-1.771 2.477-3.895 2.477-3.895 2.477s2.123 1.061 6.371-0.706c4.251-1.771 4.604-3.187 4.251-7.082-0.354-3.894-3.895-7.435-5.665-10.617-1.771-3.187-4.604-6.373-7.791-8.854-5.625-4.373-6.728-6.019-6.728-6.019s-1.418 0.356-3.542 1.416c-2.123 1.06-1.062 3.89-2.123 3.89z" fill="none"></path> <path clip-rule="evenodd" d="m209.31 104.72c0 1.965-3.547 3.562-7.916 3.562-4.37 0-7.918-1.597-7.918-3.562 0-1.968 3.548-3.563 7.918-3.563 4.37-0.01 7.92 1.59 7.92 3.56" fill-rule="evenodd"></path> <path stroke="#000000" stroke-width="2.0192" stroke-miterlimit="11.5" d="m209.31 104.72c0 1.965-3.547 3.562-7.916 3.562-4.37 0-7.918-1.597-7.918-3.562 0-1.968 3.548-3.563 7.918-3.563 4.37-0.01 7.92 1.59 7.92 3.56z" fill="none"></path> <path clip-rule="evenodd" d="m201.13 103.8s2.64 1.053 10.028-2.374c7.388-3.432 17.153-11.873 17.153-11.873l0.263 3.691s-10.556 9.763-15.569 10.818c-5.01 1.04-11.87-0.54-11.87-0.27" fill-rule="evenodd"></path> <path stroke="#000000" stroke-width="2.0192" stroke-miterlimit="11.5" d="m201.13 103.8s2.64 1.053 10.028-2.374c7.388-3.432 17.153-11.873 17.153-11.873l0.263 3.691s-10.556 9.763-15.569 10.818c-5.01 1.04-11.87-0.54-11.87-0.27z" fill="none"></path> <path clip-rule="evenodd" d="m189.52 33.353s-0.529-5.276 1.847-8.179c2.377-2.903 3.168-3.695 3.168-3.695l-4.225 0.792s-3.167 3.167-3.957 5.806c-0.791 2.638-0.528 6.332-0.528 6.332s4.48-1.321 3.69-1.056" fill-rule="evenodd"></path> <path stroke-linejoin="round" d="m189.52 33.353s-0.529-5.276 1.847-8.179c2.377-2.903 3.168-3.695 3.168-3.695l-4.225 0.792s-3.167 3.167-3.957 5.806c-0.791 2.638-0.528 6.332-0.528 6.332s4.48-1.321 3.69-1.056z" stroke="#000000" stroke-miterlimit="11.5" stroke-width="2.0192" fill="none"></path> <path fill="#AAAAAA" clip-rule="evenodd" d="m195.31 149.8l17.057 0.726c2.149 0.091 3.844 1.881 3.754 3.96l-1.576 37.067c-0.09 2.083-1.929 3.72-4.076 3.629 0 0-7.391 5.86-13.2 8.96-2.644 1.408-4.407 1.538-5.971 1.538-1.878 0-3.487-0.592-5.969-2.694-4.133-3.501-8.974-9.256-8.974-9.256-2.146-0.09-3.84-1.877-3.751-3.959l1.575-37.068c0.088-2.082 1.929-3.719 4.076-3.628l17.05 0.72" fill-rule="evenodd"></path> <path stroke="#000000" stroke-width="2.0192" stroke-miterlimit="11.5" d="m195.31 149.8l17.057 0.726c2.149 0.091 3.844 1.881 3.754 3.96l-1.576 37.067c-0.09 2.083-1.929 3.72-4.076 3.629 0 0-7.391 5.86-13.2 8.96-2.644 1.408-4.407 1.538-5.971 1.538-1.878 0-3.487-0.592-5.969-2.694-4.133-3.501-8.974-9.256-8.974-9.256-2.146-0.09-3.84-1.877-3.751-3.959l1.575-37.068c0.088-2.082 1.929-3.719 4.076-3.628l17.05 0.72z" fill="none"></path> <path fill="#FFFFFF" clip-rule="evenodd" d="m195.72 198.85c0 2.394-1.854 4.334-4.139 4.334-2.288 0-4.142-1.94-4.142-4.334 0-2.39 1.854-4.33 4.142-4.33 2.29 0 4.14 1.94 4.14 4.33" fill-rule="evenodd"></path> <path stroke="#000000" stroke-width="1.5144" stroke-miterlimit="14.3" d="m195.72 198.85c0 2.394-1.854 4.334-4.139 4.334-2.288 0-4.142-1.94-4.142-4.334 0-2.39 1.854-4.33 4.142-4.33 2.29 0 4.14 1.94 4.14 4.33z" fill="none"></path> <path fill="#FFFFFF" clip-rule="evenodd" d="m194.82 155.04l12.435 0.528c1.566 0.067 2.8 1.432 2.731 3.029l-1.208 28.419c-0.068 1.597-1.412 2.854-2.978 2.788l-24.875-1.057c-1.562-0.068-2.797-1.436-2.729-3.028l1.209-28.424c0.066-1.594 1.411-2.852 2.978-2.784l12.44 0.52" fill-rule="evenodd"></path> <path stroke="#000000" stroke-width="1.5144" stroke-miterlimit="14.3" d="m194.82 155.04l12.435 0.528c1.566 0.067 2.8 1.432 2.731 3.029l-1.208 28.419c-0.068 1.597-1.412 2.854-2.978 2.788l-24.875-1.057c-1.562-0.068-2.797-1.436-2.729-3.028l1.209-28.424c0.066-1.594 1.411-2.852 2.978-2.784l12.44 0.52z" fill="none"></path> <path fill="#FFFFFF" clip-rule="evenodd" d="m188.72 129.45s-5.406 3.241-7.135 4.204c-1.646 0.916-2.195 7.502-0.364 8.779 1.828 1.282 5.669 5.305 5.669 5.305l30.013 1.734 0.962-20.022h-29.14" fill-rule="evenodd"></path> <path stroke="#000000" stroke-width="2.0192" stroke-miterlimit="11.5" d="m188.72 129.45s-5.406 3.241-7.135 4.204c-1.646 0.916-2.195 7.502-0.364 8.779 1.828 1.282 5.669 5.305 5.669 5.305l30.013 1.734 0.962-20.022h-29.14z" fill="none"></path> <path fill="#FFFFFF" clip-rule="evenodd" d="m217.67 130.03s-5.304 2.263-7.124 3.273c-1.735 0.962-2.312 7.892-0.387 9.24s6.741 6.354 6.741 6.354l0.77-18.86" fill-rule="evenodd"></path> <path stroke="#000000" stroke-width="1.5144" stroke-miterlimit="14.3" d="m217.67 130.03s-5.304 2.263-7.124 3.273c-1.735 0.962-2.312 7.892-0.387 9.24s6.741 6.354 6.741 6.354l0.77-18.86z" fill="none"></path> <polyline points="228.37 159.32 237.94 160.32 236.68 172.38 227.1 171.38" fill="#FFFFFF" clip-rule="evenodd" fill-rule="evenodd"></polyline> <rect transform="matrix(-.9946 -.1041 .1041 -.9946 446.53 355)" height="12.129" width="9.628" stroke="#000000" stroke-miterlimit="11.5" y="159.78" x="227.71" stroke-width="2.0192" fill="none"></rect> <path fill="#FFFFFF" clip-rule="evenodd" d="m208.98 128.08l11.372 0.773 0.774-7.75s-0.257-3.616-4.393-3.873c-4.135-0.26-6.721 1.034-7.237 2.58-0.51 1.56-0.51 8.27-0.51 8.27" fill-rule="evenodd"></path> <path stroke="#000000" stroke-width="2.0192" stroke-miterlimit="11.5" d="m208.98 128.08l11.372 0.773 0.774-7.75s-0.257-3.616-4.393-3.873c-4.135-0.26-6.721 1.034-7.237 2.58-0.51 1.56-0.51 8.27-0.51 8.27z" fill="none"></path> <path fill="#FFFFFF" clip-rule="evenodd" d="m257.3 211.27s0.517-6.717 0-10.076c-0.514-3.356-1.29-9.3-5.94-12.399-4.652-3.1-11.369-4.649-14.989-2.327-3.616 2.327-5.425 6.2-5.425 11.109 0 4.91 1.29 15.503 1.29 15.503s0 1.029 2.327 2.062c2.327 1.039 6.977 3.877 8.784 3.617 1.811-0.257 5.686-2.323 8.013-3.356 2.34-1.02 6.21-2.83 5.95-4.12" fill-rule="evenodd"></path> <path stroke="#000000" stroke-width="2.0192" stroke-miterlimit="11.5" d="m257.3 211.27s0.517-6.717 0-10.076c-0.514-3.356-1.29-9.3-5.94-12.399-4.652-3.1-11.369-4.649-14.989-2.327-3.616 2.327-5.425 6.2-5.425 11.109 0 4.91 1.29 15.503 1.29 15.503s0 1.029 2.327 2.062c2.327 1.039 6.977 3.877 8.784 3.617 1.811-0.257 5.686-2.323 8.013-3.356 2.34-1.02 6.21-2.83 5.95-4.12z" fill="none"></path> <path fill="#FFFFFF" clip-rule="evenodd" d="m254.22 209.7s0.397-5.569 0-8.349c-0.403-2.785-1.002-7.706-4.609-10.274-3.606-2.567-8.814-3.853-11.618-1.929-2.804 1.929-4.206 5.14-4.206 9.205 0 4.066 1.002 12.842 1.002 12.842s0 0.859 1.802 1.715c1.803 0.855 5.408 3.21 6.811 2.993 1.402-0.213 4.406-1.925 6.21-2.78 1.82-0.86 4.82-2.36 4.62-3.43" fill-rule="evenodd"></path> <path stroke="#000000" stroke-width="1.5144" stroke-miterlimit="14.3" d="m254.22 209.7s0.397-5.569 0-8.349c-0.403-2.785-1.002-7.706-4.609-10.274-3.606-2.567-8.814-3.853-11.618-1.929-2.804 1.929-4.206 5.14-4.206 9.205 0 4.066 1.002 12.842 1.002 12.842s0 0.859 1.802 1.715c1.803 0.855 5.408 3.21 6.811 2.993 1.402-0.213 4.406-1.925 6.21-2.78 1.82-0.86 4.82-2.36 4.62-3.43z" fill="none"></path> <path fill="#FFFFFF" clip-rule="evenodd" d="m142.19 182.64s1.759-14.067 2.93-24.029c1.173-9.962 5.277-16.411 7.619-21.684 2.347-5.276 8.21-9.378 8.21-14.067 0-4.686 5.861-11.721 5.861-11.721s-9.379 3.518-9.965 8.795c-0.588 5.273-8.208 13.476-9.967 19.336-1.759 5.861-4.689 14.067-5.276 22.271-0.58 8.2 1.18 20.5 0.6 21.09" fill-rule="evenodd"></path> <path stroke="#000000" stroke-width="1.5144" stroke-miterlimit="14.3" d="m325.06 193.19l5.274 79.703m-38.09-78.53s0 12.309-1.172 21.687c-1.173 9.375-4.104 10.546-3.518 17.582 0.585 7.031 1.759 11.134 0 19.34-1.759 8.204-3.517 17.582-3.517 17.582l-1.798 2.216c1.675-0.618 6.649 0 6.649 0s-0.75-6.32 1.598-11.01c2.345-4.686 4.102-9.963 2.929-17.582-1.172-7.615-2.344-8.204-0.584-15.823 1.757-7.615 2.929-9.961 2.929-16.993s0-11.137 0-11.137l1.758-5.861m-155.33-11.73s1.759-14.067 2.93-24.029c1.173-9.962 5.277-16.411 7.619-21.684 2.347-5.276 8.21-9.378 8.21-14.067 0-4.686 5.861-11.721 5.861-11.721s-9.379 3.518-9.965 8.795c-0.588 5.273-8.208 13.476-9.967 19.336-1.759 5.861-4.689 14.067-5.276 22.271-0.58 8.2 1.18 20.5 0.6 21.09z" fill="none"></path> <path fill="#FFFFFF" clip-rule="evenodd" d="m183.4 231.08c0 3.431-2.546 6.219-5.683 6.219-3.136 0-5.682-2.788-5.682-6.219 0-3.432 2.546-6.217 5.682-6.217 3.13 0.01 5.68 2.79 5.68 6.22" fill-rule="evenodd"></path> <path stroke="#000000" stroke-width="1.5144" stroke-miterlimit="14.3" d="m183.4 231.08c0 3.431-2.546 6.219-5.683 6.219-3.136 0-5.682-2.788-5.682-6.219 0-3.432 2.546-6.217 5.682-6.217 3.13 0.01 5.68 2.79 5.68 6.22z" fill="none"></path> <path fill="#FFFFFF" clip-rule="evenodd" d="m196.6 232.02c0 2.125-1.808 3.853-4.032 3.853-2.226 0-4.031-1.728-4.031-3.853 0-2.127 1.806-3.854 4.031-3.854 2.23 0 4.03 1.72 4.03 3.85" fill-rule="evenodd"></path> <ellipse rx="4.032" cy="232.02" ry="3.853" stroke="#000000" cx="192.57" stroke-miterlimit="14.3" stroke-width="1.5144" fill="none"></ellipse> <path fill="#FFFFFF" clip-rule="evenodd" d="m213.12 232.18c0 3.431-2.544 6.22-5.682 6.22-3.137 0-5.684-2.789-5.684-6.22s2.547-6.215 5.684-6.215c3.13 0.01 5.68 2.79 5.68 6.22" fill-rule="evenodd"></path> <path stroke="#000000" stroke-width="1.5144" stroke-miterlimit="14.3" d="m213.12 232.18c0 3.431-2.544 6.22-5.682 6.22-3.137 0-5.684-2.789-5.684-6.22s2.547-6.215 5.684-6.215c3.13 0.01 5.68 2.79 5.68 6.22z" fill="none"></path> <path fill="#FFFFFF" clip-rule="evenodd" d="m304.3 266.3s-9.146 5.336-19.055 5.336c-9.905 0-28.959 3.811-37.344 3.811-8.382 0-32.008 1.521-39.631 1.521-7.62 0-25.913-3.049-32.009-3.049-6.097 0-26.673-5.33-26.673-5.33s-5.335 4.57-5.335 9.902c0 5.336 2.286 17.529 2.286 17.529l-3.051 11.426h174.53s0.387-12.9-4.574-16.762c-1.714-1.333-3.238-3.568-4.535-6.167-1.217-2.435 0.753-5.7-0.035-8.31-1.75-5.74-5.37-10.3-4.58-9.91" fill-rule="evenodd"></path> <path stroke="#000000" stroke-width="2.0192" stroke-miterlimit="11.5" d="m304.3 266.3s-9.146 5.336-19.055 5.336c-9.905 0-28.959 3.811-37.344 3.811-8.382 0-32.008 1.521-39.631 1.521-7.62 0-25.913-3.049-32.009-3.049-6.097 0-26.673-5.33-26.673-5.33s-5.335 4.57-5.335 9.902c0 5.336 2.286 17.529 2.286 17.529l-3.051 11.426h174.53s0.387-12.9-4.574-16.762c-1.714-1.333-3.238-3.568-4.535-6.167-1.217-2.435 0.753-5.7-0.035-8.31-1.75-5.74-5.37-10.3-4.58-9.91z" fill="none"></path> <path stroke="#000000" stroke-width="1.5144" stroke-miterlimit="14.3" d="m148.06 273.16s13.851 4.57 24.622 6.857c10.772 2.287 24.626 3.049 36.169 3.049s22.316 0 33.859-0.762c11.542-0.76 26.932-5.336 33.857-5.336 6.928 0 15.391 0.762 19.24 0 3.848-0.76 10.772-3.049 10.772-3.049" fill="none"></path> <path stroke="#000000" stroke-width="2.0192" stroke-miterlimit="11.5" d="m290.57 308.21s0.763-6.851 0-12.187c-0.761-5.336-2.288-8.381-2.288-8.381l5.336 0.762s3.049 2.283 3.049 6.858c0 4.571 0.764 12.947 0.764 12.947m-152.42-23.62s14.385 3.045 25.571 5.333c11.188 2.288 24.935 0.761 36.922 0.761s24.595 0.762 36.582 0c11.987-0.761 27.184-3.809 34.377-3.809 7.19 0 15.982 2.287 19.977 1.525 3.998-0.766 11.188-3.049 11.188-3.049" fill="none"></path> <path fill="#FFFFFF" clip-rule="evenodd" d="m277.04 56.615s1.572 2.752 5.506 5.505c3.932 2.751 0 3.145 5.113 6.29 5.112 3.147 4.324 4.326 4.324 4.326s0.394 3.146-1.572 5.899c-1.968 2.752-4.718 1.965-3.539 5.898 1.181 3.933 4.721 10.222 12.979 12.975 8.258 2.755 23.595 7.866 31.068 7.079s13.766-1.181 18.487-4.719c4.718-3.54 6.684-3.146 5.505-10.223-1.181-7.079 0-7.471-1.966-11.01-1.967-3.538-7.079-7.472-7.079-7.472h-3.935l-1.572-5.898s1.572 0.394 2.361-4.326c0.785-4.719 0.392-13.367 0.392-13.367s-3.934-10.225-5.898-12.977c-1.966-2.751-11.8-12.975-11.8-12.975s-21.239-0.787-22.419 2.753c-1.179 3.537 2.755 28.703-2.751 30.276-5.508 1.571-18.88-5.506-18.88-5.506s-4.73 7.075-4.33 7.469" fill-rule="evenodd"></path> <path stroke="#000000" stroke-width="3.0288" stroke-miterlimit="11.5" d="m277.04 56.615s1.572 2.752 5.506 5.505c3.932 2.751 0 3.145 5.113 6.29 5.112 3.147 4.324 4.326 4.324 4.326s0.394 3.146-1.572 5.899c-1.968 2.752-4.718 1.965-3.539 5.898 1.181 3.933 4.721 10.222 12.979 12.975 8.258 2.755 23.595 7.866 31.068 7.079s13.766-1.181 18.487-4.719c4.718-3.54 6.684-3.146 5.505-10.223-1.181-7.079 0-7.471-1.966-11.01-1.967-3.538-7.079-7.472-7.079-7.472h-3.935l-1.572-5.898s1.572 0.394 2.361-4.326c0.785-4.719 0.392-13.367 0.392-13.367s-3.934-10.225-5.898-12.977c-1.966-2.751-11.8-12.975-11.8-12.975s-21.239-0.787-22.419 2.753c-1.179 3.537 2.755 28.703-2.751 30.276-5.508 1.571-18.88-5.506-18.88-5.506s-4.73 7.075-4.33 7.469z" fill="none"></path> <path fill="#919191" clip-rule="evenodd" d="m297.49 71.951s-4.326-4.324-5.897-6.291c-1.574-1.965-5.899-4.72-7.474-6.29-1.573-1.573-2.753-3.147-2.753-3.147l-3.541 1.574s-5.505-5.113-5.505-7.864c0-2.753 3.146-4.327 6.686-3.54s5.507 1.572 5.507 1.572 2.752-0.785 6.29 1.573c3.54 1.574 3.54 2.753 3.54 2.753s0.79-2.753 2.756-3.537c1.966-0.789 1.179-1.181 1.179-1.181s-1.572-2.753-1.572-5.506 1.966-4.324 1.181-6.683c-0.787-2.36-1.969-1.181-1.969-3.934 0-2.752 0.395-3.931 0.395-3.931s-2.753-4.325-3.147-7.077c-0.393-2.755-1.571-10.617 1.179-11.404 2.756-0.787 5.114 0.393 5.114 0.393l2.36 2.358s1.572-3.538 4.718-3.538c1.969 0.787 3.147 0.787 4.719 2.753 1.575 1.964 1.969 4.719 1.969 4.719s1.966-1.181 5.899-0.787c3.935 0.393 7.08 7.077 7.08 7.077l-1.181 2.755 1.969 3.537s0.784-5.111 4.719-5.111c3.932 0 5.899-0.395 7.079 2.358 1.179 2.752 0.785 4.719 0.785 7.471 0 2.751 1.181 3.54 1.181 6.291 0 2.753 0.395 5.9 0.395 5.9s2.753 0.393 1.965 3.145c-0.786 2.753-1.965 3.932-1.965 3.932s0.391 0.393 0 3.145c-0.395 2.753-0.788 5.898-0.788 5.898s-0.787 9.438-7.472 12.19c-6.687 2.753-10.621 5.113-18.485 5.113-7.88 0-16.93-6.686-16.93-6.686" fill-rule="evenodd"></path> <path stroke="#000000" stroke-width="2.0192" stroke-miterlimit="11.5" d="m289.62 63.692s1.134 0.282 3.155-2.294c2.522-3.21 1.891-8.715 1.891-8.715m-16.85 4.719s1.412 0.241 3.935-1.966c3.147-2.752 2.361-7.471 2.361-7.471m44.04-2.752s2.788 1.966 6.139 1.966c3.353 0 6.057-1.966 6.057-1.966m-12.2-5.507s2.395 1.575 5.747 1.575c3.354 0 6.055-1.968 6.055-1.968m-11.8-5.897s2.395 1.967 5.748 1.967 5.266-0.788 5.266-0.788m-24.78-9.828s0.975 1.964 4.326 1.964c3.353 0 6.688-0.785 6.688-0.785m-9.44 6.288s2.394 1.968 5.745 1.968c3.353 0 5.27-0.786 5.27-0.786m-10.62 7.471s4.515 1.573 7.866 1.573c3.353 0 3.146 0.079 3.146 0.079m-22.43-4.407s1.516 0.395 5.228 0.395c3.708 0 6.966 1.26 6.966 1.26m-12.59-11.09s2.394 2.752 5.746 2.752 5.267-1.1 5.267-1.1m-12.2-9.124s2.138 1.968 5.131 1.968c2.995 0 4.704-0.789 4.704-0.789m-14.94 13.37s1.286 1.179 3.08 1.179c1.796 0 2.821-0.469 2.821-0.469m-8.26-8.966s1.969 1.179 4.722 1.179c2.751 0 4.328-0.472 4.328-0.472m-11.41-8.179s1.968 1.968 4.722 1.968c2.755 0 4.328-0.789 4.328-0.789m-5.12 50.726s-4.326-4.324-5.897-6.291c-1.574-1.965-5.899-4.72-7.474-6.29-1.573-1.573-2.753-3.147-2.753-3.147l-3.541 1.574s-5.505-5.113-5.505-7.864c0-2.753 3.146-4.327 6.686-3.54s5.507 1.572 5.507 1.572 2.752-0.785 6.29 1.573c3.54 1.574 3.54 2.753 3.54 2.753s0.79-2.753 2.756-3.537c1.966-0.789 1.179-1.181 1.179-1.181s-1.572-2.753-1.572-5.506 1.966-4.324 1.181-6.683c-0.787-2.36-1.969-1.181-1.969-3.934 0-2.752 0.395-3.931 0.395-3.931s-2.753-4.325-3.147-7.077c-0.393-2.755-1.571-10.617 1.179-11.404 2.756-0.787 5.114 0.393 5.114 0.393l2.36 2.358s1.572-3.538 4.718-3.538c1.969 0.787 3.147 0.787 4.719 2.753 1.575 1.964 1.969 4.719 1.969 4.719s1.966-1.181 5.899-0.787c3.935 0.393 7.08 7.077 7.08 7.077l-1.181 2.755 1.969 3.537s0.784-5.111 4.719-5.111c3.932 0 5.899-0.395 7.079 2.358 1.179 2.752 0.785 4.719 0.785 7.471 0 2.751 1.181 3.54 1.181 6.291 0 2.753 0.395 5.9 0.395 5.9s2.753 0.393 1.965 3.145c-0.786 2.753-1.965 3.932-1.965 3.932s0.391 0.393 0 3.145c-0.395 2.753-0.788 5.898-0.788 5.898s-0.787 9.438-7.472 12.19c-6.687 2.753-10.621 5.113-18.485 5.113-7.88 0-16.93-6.686-16.93-6.686z" fill="none"></path> <path clip-rule="evenodd" d="m322.27 89.646l-20.844-4.718-3.54-15.728s3.145-1.181 7.469-1.968c4.328-0.787 11.015-0.787 11.015-0.787l5.89 23.201" fill-rule="evenodd"></path> <path stroke="#000000" stroke-width="2.0192" stroke-miterlimit="11.5" d="m304.96 58.188s14.022 3.54 24.435 3.54c10.411 0 9.772-0.71 9.772-0.71m-16.9 28.628l-20.844-4.718-3.54-15.728s3.145-1.181 7.469-1.968c4.328-0.787 11.015-0.787 11.015-0.787l5.89 23.201z" fill="none"></path> <path fill="#FFFFFF" clip-rule="evenodd" d="m340.17 62.121s-2.149 5.941-9.463 8.487c-7.314 2.548-15.916 3.396-15.916 3.396l2.58 8.911s4.301 0.424 12.044-1.272c7.744-1.7 12.907-5.943 12.907-5.943s-2.15-14.005-2.15-13.579" fill-rule="evenodd"></path> <path stroke="#000000" stroke-width="2.0192" stroke-miterlimit="11.5" d="m340.17 62.121s-2.149 5.941-9.463 8.487c-7.314 2.548-15.916 3.396-15.916 3.396l2.58 8.911s4.301 0.424 12.044-1.272c7.744-1.7 12.907-5.943 12.907-5.943s-2.15-14.005-2.15-13.579z" fill="none"></path> <path fill="#FFFFFF" clip-rule="evenodd" d="m300.64 76.277s-0.787 0.785-3.148 0c-2.36-0.789-3.935-1.968-3.935-1.968s0.787 3.934 1.968 6.292c1.182 2.359 6.294 3.54 6.294 3.54s-0.79-8.653-1.18-7.864" fill-rule="evenodd"></path> <path stroke="#000000" stroke-width="2.0192" stroke-miterlimit="11.5" d="m313.22 15.722s-1.969 4.324-0.789 6.291c1.183 1.966 2.361 3.145 2.361 3.145s-0.394 1.181 0.394 3.54c0.788 2.358 1.573 3.147 1.573 3.147s-1.573 3.539-0.393 5.503c1.179 1.966 0.787 3.146 0.787 3.146m-15.73-28.706s0.392 3.54 0.787 6.292c0.394 2.753 0.786 3.145 0.786 3.145s-0.786 0.789-0.393 3.148c0.393 2.358 1.182 3.931 1.182 3.931s0-1.966 0 2.361c0 4.324 1.571 7.077 1.571 7.077m-4.72 38.535s-0.787 0.785-3.148 0c-2.36-0.789-3.935-1.968-3.935-1.968s0.787 3.934 1.968 6.292c1.182 2.359 6.294 3.54 6.294 3.54s-0.79-8.653-1.18-7.864z" fill="none"></path> <path fill="#FFFFFF" clip-rule="evenodd" d="m326.59 29.091l0.787 3.538s-1.576 2.36-0.787 4.324c0.787 1.968 1.181 2.755 1.181 2.755s-1.181-0.395-1.181 1.964c0 2.362 1.575 3.542 1.575 3.542" fill-rule="evenodd"></path> <path stroke="#000000" stroke-width="2.0192" stroke-miterlimit="11.5" d="m278.28 58.538s-8.552-6.578-7.236-9.867 5.921-3.948 8.553-3.289c2.632 0.656 4.607 1.972 4.607 1.972s1.315-0.659 5.261 0.658c3.949 1.315 5.265 1.315 5.265 1.315l2.633-0.656s-2.633-1.976-1.975-5.923c0.659-3.948 0-7.237 0-7.237m31.21-6.42l0.787 3.538s-1.576 2.36-0.787 4.324c0.787 1.968 1.181 2.755 1.181 2.755s-1.181-0.395-1.181 1.964c0 2.362 1.575 3.542 1.575 3.542" fill="none"></path> </g> <metadata></metadata></svg> 