<?xml version="1.0" encoding="UTF-8" standalone="no"?> <!-- Created with Inkscape (http://www.inkscape.org/) --> <svg xmlns:rdf="http://www.w3.org/1999/02/22-rdf-syntax-ns#" xmlns="http://www.w3.org/2000/svg" xmlns:cc="http://web.resource.org/cc/" xmlns:dc="http://purl.org/dc/elements/1.1/" xmlns:svg="http://www.w3.org/2000/svg" xmlns:inkscape="http://www.inkscape.org/namespaces/inkscape" xmlns:sodipodi="http://sodipodi.sourceforge.net/DTD/sodipodi-0.dtd" xmlns:ns1="http://sozi.baierouge.fr" xmlns:xlink="http://www.w3.org/1999/xlink" id="svg2" viewBox="0 0 411.43 223.62" inkscape:version="0.91 r13725"><g id="layer1" transform="translate(13.397 1.0804)"><path id="path1916" style="fill:black" d="m162.23 203.4c-6.04-6.27-14.19-9.93-22.13-13.09-3.73-2.75 2.51-1.04 3.77-0.18 6.29 2.42 12.38 5.35 18.16 8.8 2.92 3.73 7.68 4.81 12.05 5.72 1.88 0.25 8.18 2.93 3.17 2.76-4.68-0.04-10.66 1.34-14.02-2.84l-0.51-0.58-0.49-0.59zm14.54-15.86c3.38-1.16 3.18-7.42-1.14-5.97-4.63-1.45 2.22-4.86 4.48-3.99 6.64-0.7 12.65-4.09 19.29-4.79-2.1 3.32-7.13 2.87-10.27 4.98-3.53 1.2-9.1 2.08-8.78 6.97-0.29 5.42 5.25 1.73 8.11 1.46 4.62-1.04 9.65-1.47 13.68-4.15 2.75-2.73 4.15-6.84 7.67-8.73 2.32 0.9-3.07 3.2-3.15 5.14-2.16 3.02-1.65 8.09-6.15 8.95-7.5 1.48-15.31 0.42-22.77 2.24-1.05 2.64-5.3 0.32-1.94-1.19 0.32-0.32 0.64-0.62 0.97-0.92zm-45.2-0.21c-3.59-1.12 0.37-4.75 1.98-1.91 2.33 0.62 3.4 3.81 0.06 2.45-0.69-0.12-1.38-0.29-2.04-0.54zm-4.3-3.93c3.1-2.85 4.97-7.71 9.05-9.04 6.65-1.58 13.85-1.15 20.1-4.18 2.51-2.91-4.48-4.84-6.7-3.47-2.58 0.34-6.51 2.27-8.5 0.94 0.89-2.64 8.33-2.28 5.19-5.46-6.38-6.26-14.57-10.5-20.33-17.4-3.6-2.77-7.94-4.42-12.06-6.26-6.91-2.58-14.036-4.65-20.681-7.91-5.025-2.11-10.604-2-15.851-0.89-5.788 0.87-11.589 1.95-17.088 4.01-3.043 2.38-7.256 2.88-9.749 6.09-3.602 2.13-7.51 3.85-10.435 6.97-1.626 1.14-5.865 6.2-6.701 2.78 3.202-2.24 3.944-5.93 6.45-8.81 3.405-4.58 8.035-8.2 11.082-13.03 1.52-3.87 4.185-10.61-0.693-13.01-4.077-2.1-8.782-2.44-13.223-1.49-7.102 1.34-14.213 2.86-20.999 5.38-2.33 1.6-6.125 0.18-2.668-2.03 7.658-5.57 16.126-10.05 25.087-13.1 4.158-2.31 7.811-5.932 9.258-10.551 3.383-3.072 7.177-5.66 10.466-8.842 3.348-2.705 7.085-4.861 10.704-7.172 1.653-2.146 4.743-3.148 6.405-4.518 1.856 1.167-0.093 4.187 2.239 1.887 1.655-2.012 3.936 0.625 4.623 0.464 2.39-2.498 6.905 0.022 5.648 3.222 2.303-1.354 4.715-2.866 6.855-0.347 3.88-0.3 5.16 3.888 8.991 3.831 3.08-0.541 4.65 5.001 0.81 3.194-0.52-4.856-5.211 1.749-8.465 0.519-5.627-0.141-10.193 3.844-15.147 5.959-4.028 1.7-7.378 4.624-11.255 6.522-4.853 0.474-4.802 7.152-9.465 6.982-4.305-0.65-9.037-1.64-13.086 0.56-2.798 2.82 2.878 4.21 4.879 5.03 2.665 0.95 5.503 1.93 7.421 4.13 0.954 4.29-1.831 8.18-3.007 12.11-0.94 1.49-5.344 4.24-2.942 5.43 2.567-1.24 4.449-7.67 7.445-3.44 1.675-0.82 2.682-2.86 3.967-0.9 2.987-1.09 6.861-4.57 9.167-0.67 3.301 0.33-1.476-3.21-0.436-3.91 2.435-2.06 5.702-3.25 8.736-4.05 3.148 1.26 2.038-4.33 4.743-2.66 0.108 1.86-1.221 7.39-3.468 6.2-1.925-3.25-2.22 1.78 0.246 2.17 2.68 3.07 8.318 0.39 5.82-3.49-0.66 1.15-2.006 4.44-1.921 1.07-0.043-3.03 1.322-8.3 2.22-9.64-0.371 3.19 0.634 6.12 1.984 8.83-1.059 3.76 0.415 7.23 4.48 7.92 5.614 2.63 11.264 5.29 17.344 6.65 5.27 1.74 9.91 5.02 15.07 6.96 1.83-0.13-1.18-3.09 1.31-1.17 1.47 3.41 2.57 7.03 6.03 9.01 3.38 2.71 6.75 5.43 9.87 8.44 5.02 3.97 11.31 6.24 17.7 6.4 2.84 1.04 6.33 2.59 8.73 3.47-2.8 1.29-6.09 1.47-9.16 1.72-3.18 0.03-6.55 0.48-9.05 2.63-4.81 2.3-10.52 1.53-15.24 4.1-2.19 0.24-5.14 4.87-1 3.79 7.28-0.28 14.47-2.7 21.77-1.86 2.67 2.8-3.91 1.94-5.56 2.11-6.31 0.21-12.72 0.56-18.82 2.28-2.32-0.43-4.79-2.82-6.38 0.2-0.61 0.3-1.82 0.29-1.81-0.66zm-47.626-59.36c-0.076-5.32-3.876 4.34-0.212 1.02 0.183-0.31 0.142-0.68 0.212-1.02zm-40.683-13.42c3.69 1.32 6.891-4.7 1.833-4.7-4.726-0.05-9.37 1.9-13.117 4.66 1.472 2.2 6.711 0.16 9.541 0.3 0.582-0.08 1.163-0.17 1.743-0.26zm124.08 68.87c0.63-2.52 4.67-7.88 6.37-5.95-1.41 2.45-3.84 5.26-6.37 5.95zm-38.59-6.55c1.49-1.09 7.3-2.67 3.27 0.08-1.21 1.2-6.1 2.86-5.38 0.94 0.67-0.41 1.4-0.69 2.11-1.02zm102.21-4.35c-1.61-1.04-2.83-6.06 0.26-3.14 1.43 1.05 4.91 5.35 2.06 5.69-0.95-0.67-1.63-1.63-2.32-2.55zm-94.1 1.09c1.15-1.03 7.13-2.32 5.48-0.11-0.98 1.32-7.72 2.29-5.5 0.13l0.02-0.02zm67.48 0.44c0.62-1.94 5.89-6.3 0.87-5.73-2.8 1.31-4.72-3.53-0.77-2.45 2.4 0.29 9.36 1.21 4.83 3.74-0.96 1.19-3.17 7.16-4.93 4.44zm10.58-1.67c-0.28-3.35 3.97-8.68-0.81-10.35-1.96-0.91-6.64-1.93-6.18-3.65 5.19 0.98 9.88 4.61 15.39 3.64 3.18 0.22 7.52-3.51 9.72-1.79-2.09 2.85-6.45 3.42-9.59 4.87-5.18-0.27-8.07 6.06-3.93 9.46-1.74 0.65-4.94 0.38-4.6-2.18zm27.75-0.2c-1.33-2.82-6.7-4.62-7.07-6.32 3.84-0.49 6.56 3.14 9.2 5.37 2.12 1.07 2.1 5.25-0.59 2.72-0.59-0.53-1.08-1.14-1.54-1.77zm-61.81-0.22c-2.51 0.04-6.3-3.74-1.64-3.75 4.33-0.58 7.35 3.63 10.93 4.96-3.11 0.51-6.31-0.39-9.29-1.21zm71.5 0.03c-1.38-3.57-3.99-6.77-7.74-7.13-0.89-2.03-7.87-2.94-3.13-2.99 4.37-1.01 7.78 4.12 11.67 3.01 3.09-2.94-3.33-2.79-3.03-4.4 4.45-1.29 6.56 5.3 10.92 3.6 1.25-0.17 4.78-0.1 1.79-1.46-3.82-3.14-8.7-3.78-13.13-5.41-5.25-0.91-10.38 1.44-15.65 1.06-4.56 0.75-6.4-3.89-10.87-3.46-3.13-3.26-7.83-2.27-11.95-1.3-10.7 1.45-21.7 2.56-32.37 0.45-1.8-0.29-4.83-3.73-1.12-2.09 9.4 1.47 18.97 0.59 28.42-0.05 4.88-0.5 9.74-1.53 14.35-3.17-9.5 0.46-19.01 1.06-28.48 1.92-2.64 0.31-3.57-3.28-0.2-2.24 6.89 0.07 13.85 0.34 20.63-1.14 10.93-1.77 21.78-4.21 32.22-7.94-3.44 0.26-9.73 1.2-11.39 1.04 5.32-2.06 10.57-4.52 16.24-5.43 3.58-1.97 7.81-3.02 11.11-5.24-1.84-1.72-5.59 1.19-8.12 1.54-3.08 1.24-6.41 1.38-9.63 1.86-4.28 1.31-8.58 2.56-13.07 2.79-1.48 0.45-5.3 0.18-1.87-0.59 12.49-4.04 25.72-6.01 37.55-11.87 3.45-2.51 3.93-6.91 8.04-8.72 3.92-3.46-1.25-6.64-4.7-4.87-2.08 0.44-3.43-0.1-0.85-1.08 3.39-1.83 7.23-3.04 10.01-5.831-1.13-1.398-6.44 3.281-4.37-0.179 2.62-1.71 6.92-4.751 9.55-3.796-1.4 0.99-4.3 4.927-0.59 3.405 2.8-1.137 2.43-5.514 3.88-6.646 1.08 0.764 2.51 3.424 3.37 0.87-4.88-3.068 2.32-5.621 4.99-6.619 2.16 0.326 5.41 1.589 5.29-1.845-3.14 1.847-2.98-1.952-0.64-3.007 2.71-1.315 4.77-3.594 6.83-5.787 1.32-1.961 4.75-4.675 3.69-6.822-1.57 0.236-5.26 5.302-4.44 1.126 1.61-1.279 2.66-5.336-0.48-2.671-2.78 3.107-7.79 3.593-9.84 7.229-1.13 4.127-4.27 7.042-7.57 9.526-1.61 1.664-6.43 2.696-3.27 4.818-2.15 3.608-4.8-2.599-7.51 0.548-1.34 1.383-5.1 1.299-2.57-1.066 3.6-2.607 8.55-2.598 11.79-5.85 3.06-2.413 5.9-5.093 8.85-7.636-5.78 2.781-11.33 6.087-17.44 8.105-2.18-2.395 4.1-4.255 6.07-4.475 2.61-2.615 6.08-3.766 9.03-5.807 2.93-3.534 7.28-4.909 10.87-7.151 1.96-3.475 3.53-7.477 3.59-11.505 0.12-2.866-5.23-1.346-2.51-4.289 2.98-2.649 7.25-3.345 10.15-6.187 3.09-2.718 6.9-4.48 9.71-7.559 2.66-2.505 5.32-5.144 8.67-6.733 3.37 1.094 0.8-3.916 3.72-4.958 3.43-1.967 5.7-4.964 8.13-7.987 3.25-1.785 6.97-6.7349 10.94-4.275 0.65 3.638-1.83 7.142-3.21 10.415-1.88 3.268-3.87 6.758-6.76 9.163-3.53-0.299-1.43 4.428-4.07 6.089-2.8 3.222-3.77 7.546-7.42 9.818 2.99 0.109 5.71-1.804 8.52-2.701 8.31-3.344 16.11-7.753 23.99-11.964 2.79-2.105 7.4 0.312 4.06 3.434-2.87 2.832-6.87 4.042-9.63 7.081-10.19 8.821-22.32 14.803-33.89 21.526-4.45 2.624-8.71 5.563-12.68 8.873 13.8-3.541 27.34-8.05 40.81-12.663 4.56-1.527 8.85-3.766 13.3-5.511 3.64-2.254 9.48 2.943 4.05 4.969-4.22 1.67-9.07-0.294-13.03 2.258-3.2 2.632-7.37 2.565-10.86 4.556-3.34 1.69-6.5 4.318-10.32 4.622-0.23-1.54 0.43-3.555-2.09-1.903-7.53 2.935-15.59 4.199-23.11 7.134-1.88 3.306 5.2 2.261 7.2 1.971 1.47-0.551 4.35 0.205 1.41 0.992-4.2 0.804-8.23 2.238-11.75 4.583-4.5 1.393-9.92 1.786-12.78 6.081-0.28 2.363 5.19-1.569 7.17-1.779 3.26-1.27 6.57-2.47 10.01-3.168-1.69 2.988-6.18 2.577-8.84 4.537-4.2 1.867-8.79 2.832-12.73 5.248-1.49 2.894-5.94 2.355-5.08 5.933-1.77 3.64-7.01 3.1-9.02 6.46 2.49 0.69 6.47-4.35 8.3-1.68-2.52 2.91-7.44 4.35-10.37 7.54-8.83 7.27-17.55 14.76-25.06 23.41-1.29 3.75-5.04 5.48-7.58 8.1-0.47 2.05-3.57 4.87-3.54 5.33 4.69 1.01 9.55 0.51 14.32 0.77 3.9 0.04 7.82 0.06 11.67 0.76-2.6 0.65 1.99 5.24-2.29 3.48-1.57-0.18-5.71-1.58-2.54 0.54 2.65 1.75 7.78 6.64 4.31 9.15-0.3-5.58-6.6-3.89-9.15-0.88-1.06-2.9-6.1-2.47-3.95 1.1 0.4 1.32 2.53 6.19-0.91 2.69zm-22.55-20.42c-1.47-1.26-5.37 0.99-1.66 0.67 0.28-0.04 2.93 0.05 1.66-0.67zm10.84-0.33c-1.3-2.49-7.01 2.17-1.91 1.12 0.73-0.15 1.46-0.5 1.91-1.12zm-10.51-4.09c2.72-2.13-4.92-1.13-6.4-0.5-4.11 2.43 2.68 1.82 4.22 1.18 0.74-0.17 1.47-0.4 2.18-0.68zm9.92-2.64c2.46-2.44-3.99-0.77-4.78 0.45-1.54 1.97 4.36 0.14 4.78-0.45zm7.28 0c0.5-3.84-5.49 2.37-1.11 1.01 0.45-0.24 0.83-0.59 1.11-1.01zm3.3-7.28c2.67-0.9 2.09-2.89-0.4-1.08-1.68 0.17-6.34 3.84-2.42 2.46 0.98-0.38 1.9-0.89 2.82-1.38zm29.11-30.43c2.69-4.688-6.47 1.82-1.95 1.64 0.75-0.42 1.4-0.99 1.95-1.64zm14.58-13.261c2.7-4.2-5.99 2.502-1.22 1.335 0.44-0.409 0.83-0.876 1.22-1.335zm16.96-10.229c-2.62-3.162-7.4 4.743-2.46 3.053 1.33-0.7 7.32-1.825 2.46-3.053zm0.86-15.561c-1.42-2.701-4.95 2.266-1.23 1.345 0.7 0.153 1.84-0.58 1.23-1.345zm3.32-14.652c-3.89-1.5-6.23 3.657-6.06 6.835 2.58-0.563 4.53-4.057 5.94-6.405l0.12-0.43zm22.81 2.3c1.11-2.053-5.4-3.532-6.75-0.952-2.41 3.734 3.69 0.374 5.32 0.677l0.72 0.076 0.71 0.199zm-17.13-6.149c1.65-5.075-3.83 0.72-1.8 2.556 1.05-0.371 1.51-1.578 1.8-2.556zm26.74 1.323c-0.32-4.131-7.27 2.293-1.71 1.146 0.66-0.198 1.3-0.565 1.71-1.146zm6.12-3.524c3.08-3.967-7.68 2.788-2.1 1.872 0.83-0.457 1.47-1.178 2.1-1.872zm-26.63-3.169c-1.73-4.37-4.2 4.632-0.51 1.29 0.28-0.373 0.49-0.816 0.51-1.29zm33.74 0.078c0.5-3.832-5.49 2.374-1.11 1.013 0.45-0.241 0.83-0.588 1.11-1.013zm-24.57-8.395c1.91-1.532-4.88-0.31-4.01 1.99-0.86 1.031-1.02 6.094 0.31 2.594 0.76-1.815 1.79-3.772 3.7-4.584zm4.06-4.174c2.83-3.756-5.65-1.004-2.3 1.825 1.03 0.324 1.58-1.393 2.3-1.825zm10.27-6.378c0.68-2.63 5.23-6.93 2.94-8.686-3.64 2.001-3.07 7.129-5.43 10.209-1.09 1.622-4.69 5.41-2.99 6.285 2.76-1.799 3.76-5.171 5.48-7.808zm-2.71-3.04c-2.98-2.106-6.17 6.069-1.7 3.391 0.92-0.815 2.24-2.015 1.7-3.391zm-158.05 148.1c-2.35-0.36-3.85-5.19-0.31-2.66 2.11 1.66 7.63 1.18 7.49 4.25-2.31 1.48-5.15-0.46-7.18-1.59zm12.9-7.7c-1.51-0.44-6.95-4.1-2.3-2.78 4.14 1.26 8.41 2.49 11.99 5.02-3.21 2.46-6.7-1.16-9.69-2.24zm-21.83 0.66c1.54-4.51 5.35 3.91 0.3 0.39l-0.3-0.39zm8.63-1.27c-3.41-2.99 3.22-2.26 3.92 0.11 1.63 2.27-3.52 0.63-3.92-0.11zm26.46-3.97c-3.77-2.55 2.88-2.1 4.03-0.5 4.84 2.96-2.83 1.56-4.03 0.5zm-75.45-7.33c-0.33-5.19 6.66 3.99 1.06 1.71-0.61-0.34-1.07-0.99-1.06-1.71zm27.35-1.54c-2.63-4.45 3.24-7.51 4.7-11.2 0.51-3.66 3.04-5.95 6.66-5.72 4.07-1.44 4.16-8.53 9.22-6.8 4.56-1.04 8.4-4.16 11.67-7.39 2.04-2.16 3.76-4.59 5.43-7.04-0.7 4.09-2.76 7.84-6.18 10.26-3.22 3.4-7.41 5.5-11.8 6.91-3.39 1.76-5.77 4.79-9.05 6.71-3.65 3.14-6.93 7.14-8.38 11.76 0.08 1.72 0.32 5.12-2.27 2.51zm13.67-0.37c0.35-3.05 4.55 0.21 0.89 0.79-0.45 0.11-1.01-0.28-0.89-0.79zm18.04-3.38c1.34-4.82 3.25 3.1-0.03 1.63-0.35-0.48-0.23-1.15 0.03-1.63zm7.89-3c1.71-0.91 2.92-5.99 3.44-1.62 1.98 2.27 5.54 1.01 7.85 2.19-3.6-0.06-8.4 0.95-11.31-0.55l0.02-0.02zm-81.59-0.64c-0.37-1.85-1.53-6.95 0.55-6.36 0.78 1.36 3.06 7.63-0.55 6.36zm6.04-0.99c-0.5-3.84 5.5 2.37 1.11 1.01-0.45-0.24-0.83-0.59-1.11-1.01zm90.74 0.84c1.68-1.13 7.52-2.8 7.09-0.15-2.23 0.86-4.82 0.89-7.09 0.15zm-84.12-2.17c-0.5-3.83 5.49 2.38 1.1 1.02-0.44-0.24-0.83-0.59-1.1-1.02zm-18.96-3.9c-1.63-1.8 0.1-5.99 1.21-1.87 1.9 2.7 0.34 7.41-1.07 2.27l-0.14-0.4zm24.91 2.58c0.51-3.76 3.78 3.39 0.29 0.77-0.22-0.21-0.22-0.5-0.29-0.77zm71.21 0.65c-3.04-3.67 5.54-5.51 5.48-3.97-2.7-0.11-3.98 3.22-5.48 3.97zm-84.44-3.3c0.51-3.76 3.78 3.4 0.29 0.77-0.22-0.2-0.22-0.49-0.29-0.77zm-23.81-1.98c-0.34-5.19 6.66 3.99 1.06 1.71-0.62-0.34-1.08-0.99-1.06-1.71zm31.09 0.66c-0.51-3.56 4.08 1.86 0.78 0.97-0.31-0.28-0.56-0.62-0.78-0.97zm-12.57-2.64c0.51-3.77 3.77 3.39 0.29 0.76-0.22-0.2-0.22-0.49-0.29-0.76zm97.9-0.59c0.53-5.01 4.89 2.05 0.3 1.1-0.27-0.29-0.34-0.71-0.3-1.1zm-122.38-0.74c-0.513-3.56 4.086 1.86 0.782 0.97-0.309-0.28-0.557-0.62-0.782-0.97zm127.86-2.21c3.32-0.08-0.36-6.83 3.35-5.14-0.12 5 7.19 2.37 8.59 4.15-2.94 2.57-7.37 1.45-10.98 1.56-0.13-0.03-1.76-0.09-0.96-0.57zm24.95-4.6c4.04-0.62 9.26-4.12 12.58-2.88-2.33 2.77-7.19 2.43-10.26 4.57-2.42 0.89-7.21 1.6-8.47 0.52 1.88-1.16 4.12-1.44 6.15-2.21zm-15.87-5.76c0.41-4.98 5.07 2.23 0.81 1.83-0.59-0.4-0.81-1.15-0.81-1.83zm6.61 0.79c2.02-0.55 6.59-3.97 7.38-1.6-0.74 1.96-8.05 4.4-7.38 1.6zm9.86-0.02c3.5-2.62 8.28-2.19 11.87-4.69 1.59-1.15 6.16-2.79 6.45-0.75-4.82 2.57-9.88 4.83-15.13 6.37-0.95 0.2-3.62 0.91-3.19-0.93zm-64.1-8.04c0.63-2.06 6.66-2.39 5.91-1.87-1.3 1.02-4.88 5.09-5.91 1.87zm63.5 0c1.19-2.77 9.09-1.01 3.8 0.78-1.17 0.46-3.54 1.11-3.8-0.78zm-38.36-1.33c1.33-1.71 5.43-1.06 1.81 0.49-1.17 0.76-4.63 1.46-1.81-0.49zm-27.79-1.83c-0.55-3.397 8.58-4.398 3.93-1.07-0.9 0.55-3.77 3.84-3.93 1.07zm100.95-0.06c1.85-1.29 0.4-4.406 3.63-4.596 6.22-3.187 12.72-6.234 19.7-7.14 4.85-1.41 9.15-4.21 14.04-5.524 6.2-2.169 12.46-4.177 18.48-6.8 4.65-0.202 8.96-2.709 12.7-5.07-7.97 0.375-15.96 2.267-23.98 1.464-1.72-3.23 5.47-2.633 7.7-2.938 6.36-0.225 12.79-0.803 18.8-3.017 5.31-1.37 10.81-1.987 16-3.821 3.56 3.134-1.21 7.789-4.85 7.638-8.84 2.828-17.53 6.118-26.41 8.816-11.41 4.189-22.88 8.237-34.33 12.325-6.29 2.549-12.59 5.216-18.28 8.963-0.62 2.04-7.78 2.27-3.2-0.3zm-84.41-0.75c2.49-2.788 7.22-1.2 10-3.953 2.05-1.257 6.99-4.03 5.6-6.209-2.35-0.355-5.68-3.828-1.46-4.316 3.93 0.755 4.34 7.505 0.9 9.252-4.05 2.934-8.8 4.736-13.47 6.386-0.72 0.05-1.34-0.52-1.57-1.16zm22.98-4.422c3.7-3.438 9.43-2.24 13.37-5.283 3.76-1.593 8.07-0.424 11.87-2.014 4.55-0.714 2.18-6.343-1.59-4.818-3.19 2.27-7.59-0.295-9.94 3.038-2.67 3.448 0.39-3.565-3.14-2.187-3.39 0.361-5.24 4.345-8.02 4.639-2.91-1.147-2.53-5.757 1.1-3.733 4.26-0.696 7.99-3.331 12.48-3.348 2.26-0.336 7.64-3.28 5.68-5.274-2.63-1.176-6.49-0.575-6.9 1.999-3.43-0.348-7.11-2.945-9.94 0.224-4.32-0.301 2.25-4.436 4.24-3.112 3.84 1.313 5.16-3.354 9-1.774 2.36 0.753 8.25 0.618 7.84 3.844-1.74 1.275-4.67 3.726-0.52 4.067 4.71 1.9 9.63 0.379 13.65-1.386-1.04 4.196-7.12 3.704-9.1 7.268-1.87 2.5-5.6 3.061-8.55 3.783-3.55 0.807-7.47 0.139-10.63 2.319-3.21 2.179-7.07 2.947-10.87 3.296-1.25 0.028-0.48-1.16-0.03-1.548zm39.28-1.425c1.64-2.805 4.65 0.371 1.37 1.462-2.08 0.898-4.72 0.438-1.37-1.462zm-78.14-2.093c1.21-1.291-0.19-2.981-1.59-1.809 0.33-4.834 6.97-3.668 8.5-7.799 1.45-2.258 3.81-7.864 0.42-8.936-0.87 1.106-4.16 4.268-2.72 0.843 1.6-3.368 7.12-4.819 8.15-0.304 1.31 0.621 4.95-3.483 4.01-0.527-3.33 3.514-6.66 7.05-9.42 11.035-3.44 2.419-4.62 6.486-6.9 9.444-1.39 0.547-0.8-1.396-0.45-1.947zm13.9 0.24c-0.81-2.755 5.55-3.381 2.4-0.615-0.49 0.351-2.16 2.139-2.4 0.615zm-78.3-5.329c-3.39-1.003-9.14-1.637-10.84-3.614 3.79-0.692 7.5 1.435 11.36 1.239 11.81 1.189 24.01 0.655 35.24-3.507 4.35-0.364 6.54-4.241 10.22-5.869 3.7-1.256 5.99-5.475 10.15-5.441 2.47 2.694-3.5 2.923-4.87 4.824-2.4 1.836-4.94 3.456-7.69 4.69-3 2.847-6.72 4.401-10.71 5.283-7.04 1.994-14.26 3.716-21.56 4.231-3.81-0.289-7.57-1.055-11.3-1.836zm46.54 1.198c0.18-4.298 5.03 0.274 1.23 1.244-0.64-0.035-1.24-0.581-1.23-1.244zm3.97-0.475c-0.28-1.831 4.18-2.851 0.76-3.93-2.48-2.14 4.55-6.721 2.69-1.947-0.07 1.93-1.26 8.437-3.43 6.314 0-0.146-0.01-0.291-0.02-0.437zm33.08 0.67c0.84-2.897 4.28-7.215 6.3-7.271-0.86 3.098-3.51 6.127-6.21 7.512l-0.09-0.241zm58.21-4.242c1.5-2.108 6.66-1.913 7.4-2.177-1.73 1.433-5.52 5.358-7.4 2.177zm-44.81-2.2c3.38-1.49-3.74-4.937 0.86-5.525 4.18 0.758 2.13 8.389-1.64 7.514-0.35-0.731 0.35-1.483 0.78-1.989zm-38.95 0.026c-1.09-4.683 5.61-5.023 6.32-8.885 0.08-1.747 3.03-5.139 2.79-1.443-1.46 3.695-3.5 7.777-6.63 10.174-0.75 0.393-1.7 0.602-2.48 0.154zm107.58-0.021c3.15-4.453 7.69-7.625 11.59-11.334 2.79-2.462 4.08 1.683 0.81 2.311-4.3 2.851-7.1 7.655-11.82 9.874-0.39-0.04-0.7-0.461-0.58-0.851zm-33.08-4.42c-3.49-3.16 7.18 0.335 2.21 1.103-0.8-0.237-1.51-0.674-2.21-1.103zm11.91 0.301c3.01-3.345 7.63-4.325 11.3-6.701 1.45-1.544 6.89-1.029 3.09 0.881-4.44 2.461-8.92 4.853-13.6 6.842-0.51-0.012-0.8-0.566-0.79-1.022zm-7.2-4.137c-4.12-2.558-9.28-0.446-13.57-2.433-1.39-1.415 3.36-3.105-0.3-2.897-7.08-0.261-14.28-0.386-21.09-2.504-2.02 0.495-6.88 0.314-3.42-2.459 4.96-3.921 11.51-4.337 17.57-4.69 8.86-1.182 16.68-5.743 24.47-9.793 4.47-1.956 9.35-3.721 14.3-2.935 0.66 4.03-3.66 6.544-5.66 9.533-2.85 2.34-6.16 4.379-8.28 7.005-0.7-1.204-3.27-2.436-2.57 0.074 3.85 0.686-1.79 4.742-2.56 1.277-3.2-0.287-8.88 5.747-2.94 5.778 4.35-0.636 6.85-5.199 11.29-6.027 3.49-2.621 7.6-4.341 10.87-7.209 3.17-3.374 7.51-5.236 10.81-8.485 1.9-1.269 5.09-4.777 0.86-5.091-1.02-0.11-4.99-0.625-1.68-0.791 3.72-0.709 7.21 3.751 3.01 5.939-3.88 3.361-7.52 7.078-11.98 9.651-3.36 2.881-6.7 5.814-10.73 7.739-3.12 1.736-6.31 3.548-8.69 6.282 3.73 1.361 7.06-2.203 10.47-3.282 6.78-3.318 13.3-7.306 18.71-12.621 2.41-1.977 6.9-6.559 8.41-6.423-2.14 3.479-5.34 6.219-8.51 8.725-3.14 1.515-5.38 4.142-8.04 6.285-2.72 2.216-5.54 4.395-8.77 5.827-2.54 3.299-7.12 5.059-11.19 4.118l-0.42-0.244-0.37-0.349zm-11.41-8.071c4.48 0.387 8.06-2.714 11.16-5.447 4.33-0.541 6.76-3.419 10.29-5.403 1.8-2.009 6.04-4.374 5.51-7.095-3.72 0.042-7.34 1.648-10.79 2.94-2.93 1.072 0.86 3.852-2.69 3.876-7.43 2.335-15.33 3.394-22.24 7.178-1.62 0.468-5.96 3.606-6.12 1.695 1.4-1.006 3.85-3.657 0.28-2.937-3.81-0.205-5.15 5.435-0.52 5.258 4.99 1.194 10.08-0.121 15.12-0.065zm-19.13 6.535c2.43-2.021 7.93 1.318 2.48 1.264-1.93 0.133-8.3 0.06-2.48-1.264zm-148.81-3.889c1.081-1.595 6.968-1.337 2.835 0.229-0.777 0.407-5.71 1.908-2.835-0.229zm101.87 0.285c2.02-3.367 6.34-4.619 10.01-4.96 4.52 0.285 8.55-1.669 12.48-3.584 2.21-1.238 9.25-1.886 7.39 2.135-2.57 0.964-5.5 0.036-8.2 1.231-2.74 0.692-5.43 1.67-7.89 3.07-0.89 3.306-5.84 1.187-3.98-1.712-4.12-1.146-6.05 5.332-9.7 4.356-0.04-0.179-0.07-0.358-0.11-0.536zm102.37-0.008c1.05-3.204-7.41 1.231-4.01-1.757 3.79-1.713 10.1-1.096 11.75-5.626 0.7-4.133 6.02-4.125 8.19-7.134 2.72-3.584 2.52 2.194 0.18 2.967-3.94 2.501-6.94 6.053-10.66 8.842-0.6 0.358-6.1 4.709-5.45 2.708zm-69.29-4.246c1.05-3.971 4.44 2.712 0.48 1.017-0.3-0.248-0.49-0.628-0.48-1.017z"></path></g><metadata></metadata></svg> 