<?xml version="1.0" encoding="UTF-8" standalone="no"?> <!-- Created with Inkscape (http://www.inkscape.org/) --> <svg xmlns:rdf="http://www.w3.org/1999/02/22-rdf-syntax-ns#" xmlns="http://www.w3.org/2000/svg" xmlns:cc="http://web.resource.org/cc/" xmlns:dc="http://purl.org/dc/elements/1.1/" xmlns:svg="http://www.w3.org/2000/svg" xmlns:inkscape="http://www.inkscape.org/namespaces/inkscape" xmlns:sodipodi="http://sodipodi.sourceforge.net/DTD/sodipodi-0.dtd" xmlns:ns1="http://sozi.baierouge.fr" xmlns:xlink="http://www.w3.org/1999/xlink" id="Layer_1" xml:space="preserve" viewBox="0 0 517.044 526.13" inkscape:version="0.91 r13725"> <g id="g5"> <path id="path7" style="stroke:black;stroke-width:.036;stroke-miterlimit:10;fill-rule:evenodd" d="m51.258 283.26c0 134.1 88.632 242.85 197.96 242.85 109.3 0 197.93-108.75 197.93-242.85s-88.63-242.86-197.93-242.86c-109.33 0-197.96 108.76-197.96 242.86h-0.002z"></path> <path id="path9" style="fill-rule:evenodd;stroke:black;stroke-width:.036;stroke-miterlimit:10;fill:#e8ccba" d="m55.47 283.69c0 131.87 87.12 238.82 194.58 238.82s194.58-106.95 194.58-238.82c0-131.91-87.12-238.86-194.58-238.86-107.46-0.002-194.58 106.95-194.58 238.86z"></path> <path id="path11" style="stroke:black;stroke-width:.036;stroke-miterlimit:10;fill-rule:evenodd" d="m212.75 239.3c0 6.62 5.98 12.02 13.32 12.02 7.38 0 13.32-5.4 13.32-12.02s-5.94-12.02-13.32-12.02c-7.34 0-13.32 5.4-13.32 12.02z"></path> <path id="path13" style="fill-rule:evenodd;stroke:black;stroke-width:.036;stroke-miterlimit:10;fill:white" d="m219.49 237.1c0 2.02 1.62 3.64 3.6 3.64 2.01 0 3.63-1.62 3.63-3.64 0-1.98-1.62-3.6-3.63-3.6-1.99 0-3.6 1.62-3.6 3.6z"></path> <path id="path15" style="stroke:black;stroke-width:.036;stroke-miterlimit:10;fill-rule:evenodd" d="m206.02 210.46c2.38-1.87 7.24-4.71 11.27-6.15 3.92-1.51 8.71-2.77 11.99-2.81 3.16-0.14 6.37 0.9 6.98 2.02 0.54 1.08-1.19 3.49-3.67 4.46-2.67 0.79-8.03-0.22-11.67 0.86-3.78 1.12-7.52 3.64-10.11 5.33-2.52 1.48-4.07 3.78-5.19 4-1.4 0.07-2.19-1.51-2.23-2.81 0-1.44 0.33-3.02 2.63-4.9z"></path> <path id="path17" style="stroke:black;stroke-width:.036;stroke-miterlimit:10;fill-rule:evenodd" d="m282.45 238.36c0 6.52-5.94 11.78-13.32 11.78-7.34 0-13.32-5.26-13.32-11.78 0-6.48 5.98-11.73 13.32-11.73 7.38 0 13.32 5.25 13.32 11.73z"></path> <path id="path19" style="fill-rule:evenodd;stroke:black;stroke-width:.036;stroke-miterlimit:10;fill:white" d="m271.87 236.2c0 1.98-1.62 3.6-3.64 3.6s-3.64-1.62-3.64-3.6c0-2.01 1.62-3.63 3.64-3.63s3.64 1.62 3.64 3.63z"></path> <path id="path21" style="stroke:black;stroke-width:.036;stroke-miterlimit:10;fill-rule:evenodd" d="m292.71 215.97c-2.59-2.45-8.06-6.33-12.13-8.6-4.29-2.41-9.29-4.47-12.67-5.19-3.39-0.72-6.7-0.36-7.17 0.8-0.57 1.04 1.41 3.92 4.14 5.43 2.63 1.33 8.32 1.33 12.21 3.06 3.92 1.84 7.92 5.26 10.87 7.49 2.81 2.02 4.25 4.72 5.69 5.18 1.22 0.36 2.26-1.18 2.15-2.55-0.17-1.41-0.61-3.28-3.09-5.62z"></path> <path id="path23" style="stroke:black;stroke-width:.036;stroke-miterlimit:10;fill-rule:evenodd" d="m63.138 229.8c-5.652-1.44-11.34-1.19-17.208 0.75-5.976 1.87-13.428 4.43-18.072 10.87-4.824 6.41-9.54 17.28-9.828 27.76-0.324 10.55 4.068 25.63 8.316 34.42 4.176 8.49 9 13.78 16.992 16.84 7.992 2.99 18.072 3.21 30.636 0.94l-10.836-91.58z"></path> <path id="path25" style="fill-rule:evenodd;fill:#e8ccba" d="m59.646 328.18c9.036 2.78 15.408 1.95 19.404-2.48 3.888-4.61 5.22-10.48 4.14-24.26-1.224-14.04-7.488-45.36-11.016-58.4-3.672-12.88-6.912-19.08-10.26-18.72-0.324 3.71-1.08 6.41-2.556 8.25-1.512 1.69-3.312 1.65-6.084 2.52-2.952 0.86-7.416 1.01-10.908 2.77-3.6 1.76-7.056 2.77-10.08 7.6-3.096 4.75-7.02 12.85-7.884 20.84-0.936 7.92 0.756 19.44 2.448 26.21 1.656 6.7 4.824 10.01 7.416 13.68 2.52 3.42 4.932 5.76 7.812 7.45 2.844 1.59 6.228 1.84 8.892 2.56 2.484 0.68 4.752-0.43 6.264 1.65 1.368 2.02 2.304 5.37 2.412 10.33z"></path> <path id="path27" style="stroke:black;stroke-width:.036;stroke-miterlimit:10;fill-rule:evenodd" d="m437 231.38c5.61-1.44 11.3-1.19 17.21 0.76 5.9 1.87 13.32 4.42 18.07 10.87 4.68 6.41 9.54 17.28 9.86 27.75 0.11 10.48-4.07 25.71-8.35 34.46-4.29 8.49-9.07 13.82-16.99 16.81-8.03 2.99-18.11 3.2-30.64 0.93l10.84-91.58z"></path> <path id="path29" style="fill-rule:evenodd;fill:#e8ccba" d="m440.53 329.77c-9.08 2.84-15.45 1.98-19.41-2.45-3.99-4.64-5.29-10.37-4.17-24.26 1.11-14.04 7.38-45.36 11.01-58.4 3.6-12.92 6.88-19.04 10.26-18.75 0.29 3.71 1.05 6.41 2.56 8.24 1.4 1.66 3.24 1.73 6.08 2.56 2.88 0.79 7.27 1.01 10.95 2.73 3.49 1.66 6.98 2.85 10.08 7.6 3.02 4.75 6.84 12.85 7.85 20.84 0.82 7.92-0.83 19.41-2.45 26.25-1.73 6.73-4.9 9.93-7.42 13.64-2.63 3.39-5 5.83-7.81 7.49-2.92 1.62-6.34 1.76-8.89 2.52-2.6 0.65-4.86-0.36-6.27 1.69-1.47 2.02-2.27 5.4-2.37 10.3z"></path> <path id="path31" style="stroke:black;stroke-width:.036;stroke-miterlimit:10;fill-rule:evenodd" d="m243.28 446.01c-8.93-0.93-12.45-0.65-22.64-3.78s-26.64-8.46-37.95-14.83c-11.26-6.37-20.19-13.35-29.16-23.11-8.92-9.79-18.32-23.15-24.12-34.92-5.76-11.81-6.69-27.9-10.29-35.17-3.57-7.31-6.16-4.29-4.03 6.01 2.16 10.3 12.56 35.17 12.56 35.17 6.05 13.83 14.04 25.45 24.66 35.71 10.66 10.16 26.35 18.9 38.2 24.88 11.59 5.83 22.75 7.92 31.14 10.3 8.24 2.3 12.27 2.88 18.61 3.52 6.3 0.58 12.71 0.58 19.08 0 6.23-0.64 10.3-1.22 18.61-3.52 8.39-2.38 19.48-4.47 31.18-10.3 11.7-5.98 27.54-14.72 38.19-24.88 10.44-10.26 18.33-23.83 24.63-35.71 6.23-11.95 10.37-23.4 12.56-35.17 1.15-7.49 1.4-11.48 0.76-12.56-0.69-0.98-2.23 1.11-4.79 6.55-1.15 11.84-4.54 23.36-10.3 35.17-5.79 11.77-15.19 25.13-24.12 34.92-8.96 9.76-17.89 16.74-29.16 23.11-11.3 6.37-27.75 11.7-37.94 14.83-10.15 3.14-13.72 2.85-22.61 3.78-8.93 0.94-4.18 0.94-13.07 0z"></path> <path id="path33" style="stroke:black;stroke-width:.036;stroke-miterlimit:10;fill-rule:evenodd" d="m50.97 252.33c-2.196 1.84-6.768 9.54-8.28 14.65-1.584 5.08-2.736 11.52-0.936 15.59 1.692 3.93 7.128 7.78 11.448 7.96 4.32-0.04 10.116-7.38 14.328-7.31 4.068 0.14 8.388 8.21 10.188 7.96 1.656-0.4 1.476-7.46 0-10.19-1.728-2.85-5.364-6.77-9.54-6.37-4.32 0.43-11.736 8.35-15.3 8.6-3.6-0.04-6.156-3.38-5.724-7.96 0.432-4.71 7.596-15.58 8.28-19.44 0.54-3.92-2.34-5.36-4.464-3.49z"></path> <path id="path35" style="stroke:black;stroke-width:.036;stroke-miterlimit:10;fill-rule:evenodd" d="m449.99 252.33c2.09 1.84 6.7 9.54 8.28 14.65 1.59 5.08 2.56 11.52 0.98 15.59-1.91 3.93-7.13 7.78-11.49 7.96-4.43-0.04-10.22-7.38-14.32-7.31-4.18 0.14-8.5 8.21-10.19 7.96-1.77-0.4-1.59-7.46 0-10.19 1.65-2.85 5.25-6.77 9.54-6.37 4.21 0.43 11.63 8.35 15.3 8.6 3.49-0.04 6.05-3.38 5.72-7.96-0.5-4.71-7.7-15.58-8.28-19.44-0.65-3.92 2.27-5.36 4.46-3.49z"></path> <path id="path37" style="stroke:black;stroke-width:.036;stroke-miterlimit:10;fill-rule:evenodd" d="m253.11 16.676c-6.34-7.416-14.94-12.132-26.35-14.436-11.6-2.268-26.5-3.924-41.66 0.864-15.22 4.68-31.6 13.5-48.16 27.432-16.6 14.004-36.08 34.776-50.367 55.512-14.364 20.662-25.992 48.022-34.74 67.102-8.748 18.9-11.556 35.25-17.46 45.43-6.084 10.01-12.276 10.95-18 14.33-5.796 3.21-13.932 1.12-15.66 5.26-1.8 4.14-0.144 14.15 5.4 19.33 5.616 5 19.044 9.68 27.792 10.69 8.64 0.83 16.308-1.01 23.544-5.51 19.368 4.68 33.876 6.3 43.951 4.86 9.87-1.58 13.83-2.91 15.92-13.71 2.08-11.02-7.06-33.37-3.28-51.09 3.71-17.82 12.06-39.42 25.63-54.64 13.54-15.27 39.31-29.956 55.26-36.148 15.81-6.156 30.6-1.836 39.53-0.792 8.82 0.864 8.39 6.372 13.43 6.408 4.93-0.036 10.26-4.788 16.13-6.336 5.79-1.656 10.15-5.328 18.9-3.24 8.82 1.98 23.25 8.496 33.19 15.228 9.68 6.62 16.7 13.36 25.09 24.52 8.39 11.08 18.4 24.22 24.62 41.9 5.94 17.75 6.52 50.29 11.6 63.47 5.14 12.96 11.73 10.87 18.93 14.15 7.02 3.16 13.76 5.4 23.4 5.04 9.65-0.47 20.81-2.92 34.02-7.49 5.65-0.04 12.21-1.08 19.95-3.28 7.7-2.27 18.75-4.1 26.06-9.83 7.2-5.86 18.47-19.33 17.14-24.84-1.48-5.58-19.08-5.18-25.6-8.13-6.52-2.99-7.09 2.34-13.54-9.58-6.62-12.13-14.76-39.99-25.77-61.92-11.2-21.96-23.33-50.47-40.29-68.866-17.2-18.504-41-32.148-60.98-41.22-20.01-9.072-42.62-11.844-57.42-12.888-14.72-1.044-23.69 4.068-30.38 6.3-6.81 2.016-9.94 4.104-9.83 6.12z"></path> <path id="path39" style="fill-rule:evenodd;fill:#49322a" d="m108.57 65.78c9-10.872 18.79-20.34 29.66-28.944 10.84-8.748 24.12-16.956 35.14-22.248 10.94-5.256 20.3-8.28 30.31-8.928 9.97-0.684 21.31 2.448 29.16 4.824 7.71 2.196 13.75 3.276 17.17 8.928 3.28 5.616 2.27 15.696 2.96 24.696 0.68 8.928 1.51 20.269 0.93 28.477-0.75 8.1-2.37 14.472-5.15 19.692-3.49-2.916-8.96-4.968-16.56-6.3-7.77-1.404-18.86-3.456-29.08-1.692-10.34 1.764-20.09 4.932-31.79 12.132-11.77 7.163-28.19 19.153-38.02 30.273-9.86 11.05-16.27 23.22-20.48 35.53-4.18 12.24-4.86 25.67-4.57 37.08 0.28 11.24 6.69 22.4 5.76 29.88-1.3 7.28-6.02 11.88-12.21 14.12-6.298 2.16-16.342 0.1-24.298-0.76-7.884-0.9-15.444-2.41-22.824-4.54-6.66 5.01-13.572 7.35-20.88 7.02-7.488-0.5-18.072-5.25-23.004-9.25-5.04-4.07-8.064-11.19-6.3-14.58 1.8-3.49 11.628-2.66 17.244-5.83 5.544-3.35 10.656-4.32 15.912-13.18 5.148-9 8.028-23.58 15.048-39.56 6.984-16.13 17.208-39.53 26.64-55.76 9.36-16.24 18.972-29.74 29.232-41.08z"></path> <path id="path41" style="fill-rule:evenodd;fill:#49322a" d="m254.8 19.772c5.58-4.932 13.25-8.028 23.4-9.72 10.01-1.764 22-3.492 36.94-0.18s36.14 10.728 52.38 19.908c16.16 9.072 30.74 18.324 43.88 34.416 13 16.092 24.88 43.414 33.7 61.124 8.64 17.57 13.18 31.5 18.32 43.74 4.97 12.17 6.66 22.18 12.03 28.62 5.47 6.16 14.93 7.2 20.34 8.82 5.18 1.52 8.6-0.57 11.08 0.69 2.38 1.26 5.51 2.81 3.42 6.73-2.34 3.89-9.03 12.13-16.34 16.38-7.45 4.1-19.66 6.73-27.18 8.28-7.56 1.48-13.18 1.62-17.39 0.58-4.68 5.36-11.3 7.95-20.3 8.06-9.08-0.04-20.06-2.56-33.52-7.85-3.46 1.26-6.37 0.43-9.04-2.34-2.66-2.81-4.6-4.32-6.8-14.54-2.3-10.55-1.58-31.21-6.88-47.27-5.43-16.16-15.22-34.56-25.34-48.24-10.3-13.82-24.59-25.38-35.39-33.12-10.76-7.596-19.37-11.808-28.87-12.24-9.65-0.504-18.86 2.628-28.19 9.396 2.52-6.048 4.03-13.392 4.54-22.32 0.43-8.964-0.79-22.932-1.59-31.068-0.86-8.172-1.83-14.076-3.2-17.856z"></path> <path id="path43" style="stroke:black;stroke-width:.036;stroke-miterlimit:10;fill-rule:evenodd" d="m277.3 30.644c3.64-1.98 11.02-8.28 22.97-7.632 11.95 0.576 32.55 2.88 47.88 11.628 15.19 8.784 28.44 22.752 42.52 40.788 13.97 18.072 29.99 46.652 40.71 66.712 10.52 19.9 16.2 40.21 22.32 52.02 5.91 11.62 7.85 13.57 13.76 17.49 5.93 3.6 19.22 3.67 21.81 5.08 2.52 1.47-2.38 3.53-6.77 3.38-4.61-0.32-14.4-0.68-20.19-5.11-5.87-4.54-8.61-9.72-14.44-21.67-5.87-12.1-12.38-33.16-20.66-50.01-8.39-16.99-18.8-35.56-29.13-50.72-10.47-15.156-22.71-29.952-32.97-39.528-10.34-9.648-18.69-13.86-28.55-18.072-10.08-4.392-22.54-6.408-30.86-7.416-8.31-0.972-13.86 0.468-18.43 1.692-4.5 1.08-7.23 4.752-8.78 5.04-1.73 0.108-4.86-1.764-1.19-3.672z"></path> <path id="path45" style="stroke:black;stroke-width:.036;stroke-miterlimit:10;fill-rule:evenodd" d="m275.72 46.52c6.01-1.656 21.56-7.344 34.16-4.284 12.49 2.952 26.71 10.044 40.32 22.392 13.54 12.492 27.87 30.564 40.21 51.442 12.21 20.77 23.91 55.37 32.48 72.25 8.46 16.64 15.84 22.72 17.82 27.4 1.73 4.57-2.24 6.77-6.88 0.22-4.72-6.81-13.61-24.7-20.84-39.93-7.35-15.44-14.3-35.53-22.79-50.97-8.68-15.56-18.79-29.416-28.26-40.756-9.44-11.448-20.13-20.376-27.79-26.496-7.78-6.084-11.6-7.56-18.26-9.432-6.84-1.908-14.72-2.592-21.7-1.908-7.13 0.576-16.67 5.292-19.88 5.4-3.13-0.072-4.6-3.744 1.41-5.328z"></path> <path id="path47" style="stroke:black;stroke-width:.036;stroke-miterlimit:10;fill-rule:evenodd" d="m273.09 61.928c5.98-0.54 25.88-1.368 36.97 1.404 10.88 2.844 18.47 4.788 28.48 15.408 9.97 10.584 22.28 32.4 31.1 47.52 8.68 15.01 12.78 25.6 20.92 42.05 8.14 16.38 23.08 45.86 27.18 55.55 3.85 9.32 1.12 9.39-3.64 1.18-4.93-8.42-16.34-33.26-24.91-50.36-8.57-17.21-16.99-35.82-25.95-51.37-9.08-15.55-18.15-31.322-27.76-40.79-9.68-9.36-19.33-12.636-29.52-15.372-10.3-2.808-25.6-0.792-31.18-1.584-5.54-0.9-7.63-3.312-1.69-3.636z"></path> <path id="path49" style="stroke:black;stroke-width:.036;stroke-miterlimit:10;fill-rule:evenodd" d="m239.97 23.444c-4.28-1.8-12.96-7.416-26.03-6.012-13.28 1.404-36.03 5.184-52.31 14.94-16.23 9.9-30.16 24.552-44.31 43.668-14.44 19.116-30.062 48.6-40.502 69.44-10.404 20.56-15.228 41.3-21.132 53.46-5.94 11.88-7.704 14.26-14.04 18.4-6.444 4.18-21.096 4.9-23.832 6.59-2.736 1.58 2.7 3.38 7.704 2.91 4.896-0.64 15.948-1.72 22.068-6.55 6.012-4.86 8.856-10.4 14.508-22.61 5.652-12.52 11.304-33.84 19.44-51.3 8.064-17.46 18.252-36.86 28.766-52.664 10.44-15.948 23-31.356 33.8-41.76 10.73-10.404 19.62-15.084 30.42-20.016 10.84-5.04 24.48-7.992 33.73-9.54 9.04-1.476 15.38-0.576 20.56 0.36 5.08 0.792 8.17 4.212 10.12 4.428 1.83 0.036 5.14-2.088 1.04-3.744z"></path> <path id="path51" style="stroke:black;stroke-width:.036;stroke-miterlimit:10;fill-rule:evenodd" d="m236.66 44.792c-6.59-1.656-22.68-6.732-36.76-4.248-14.11 2.412-31.89 7.632-46.69 19.008-14.8 11.412-28.73 27.468-41.11 48.848-12.422 21.42-24.518 59.26-32.834 78.38-8.496 18.82-15.156 29.23-17.208 34.7-1.98 5.36 0.396 5.51 5.184-2.34 4.644-8.14 14.904-27.58 22.572-44.71 7.452-17.14 14.006-40.65 22.576-57.06 8.64-16.45 19.51-30.242 28.72-40.538 9.04-10.26 16.96-15.876 25.71-20.88 8.71-5.076 18.25-7.524 26.67-9.288 8.39-1.908 15.74-2.556 23.3-1.944 7.48 0.468 18 5.364 21.42 5.4 3.31-0.072 4.78-3.744-1.55-5.328z"></path> <path id="path53" style="stroke:black;stroke-width:.036;stroke-miterlimit:10;fill-rule:evenodd" d="m228.85 67.436c-5.58-1.44-19.23-5.652-31.07-3.6-11.99 1.979-26.71 6.732-39.46 16.056-12.85 9.36-25.16 21.888-36.36 39.818-11.23 18.03-23.11 50.43-29.95 66.92-6.84 16.13-9.72 25.38-10.728 30.1-1.152 4.68 0.864 5.51 4.392-1.98 3.636-7.85 10.296-28.05 16.916-43.24 6.41-15.19 14.01-33.69 21.68-46.62 7.59-12.99 16.09-22.28 23.83-30.382 7.52-7.992 14.29-13.5 21.71-17.64 7.45-4.356 15.33-6.228 22.53-7.848 7.06-1.656 13.36-2.16 19.73-1.656 6.37 0.432 15.12 4.5 18.07 4.572 2.74-0.108 4.07-3.132-1.29-4.5z"></path> <path id="path55" style="stroke:black;stroke-width:.036;stroke-miterlimit:10;fill-rule:evenodd" d="m262.65 97.604c2.48-1.62 10.91-3.672 16.23-3.672 5.23 0.072 10.84 1.764 14.91 3.708 3.89 1.8 8.53 6.01 8.67 7.09 0.04 0.9-4.28-0.18-7.95-1.29-3.75-1.16-8.89-5.26-13.9-5.368-5.15-0.18-13.14 4.828-16.2 4.748-3.02-0.14-4.21-3.776-1.76-5.216z"></path> <path id="path57" style="stroke:black;stroke-width:.036;stroke-miterlimit:10;fill-rule:evenodd" d="m324.1 120.39c2.45 3.89 12.53 13.61 16.49 20.02 3.89 6.19 5.54 16.31 6.91 17.71 1.26 1.22 2.2-4.86 0.72-9.5-1.58-4.72-6.37-12.89-10.08-18.15-3.92-5.33-10.19-11.66-12.56-13.32-2.45-1.76-3.96-0.68-1.48 3.24z"></path> <path id="path59" style="stroke:black;stroke-width:.036;stroke-miterlimit:10;fill-rule:evenodd" d="m378.97 247.83c1.08 1.37 8.53 6.3 13.46 8.53 4.86 2.13 11.12 3.86 15.44 4.22 4.07 0.18 10.3-1.88 9.4-2.96-1.05-1.15-9.76-2.16-14.9-3.7-5.3-1.7-12.07-4.79-16.03-5.8-3.92-1.08-8.45-1.73-7.37-0.29z"></path> <path id="path61" style="stroke:black;stroke-width:.036;stroke-miterlimit:10;fill-rule:evenodd" d="m348.69 162.55c0.07 1.62 1.04 2.88 2.19 2.84 1.19-0.03 2.09-1.37 2.02-2.95-0.03-1.62-1.04-2.88-2.19-2.84-1.16 0.03-2.06 1.36-2.02 2.95z"></path> <path id="path63" style="stroke:black;stroke-width:.036;stroke-miterlimit:10;fill-rule:evenodd" d="m353.19 170.32c0.03 1.62 1.04 2.88 2.19 2.85 1.16-0.04 2.06-1.37 2.02-2.99-0.07-1.58-1.04-2.84-2.19-2.81-1.19 0.04-2.09 1.37-2.02 2.95z"></path> <path id="path65" style="stroke:black;stroke-width:.036;stroke-miterlimit:10;fill-rule:evenodd" d="m250.62 101.46c0.08 1.58 1.05 2.84 2.24 2.8 1.15-0.03 2.05-1.36 1.98-2.95-0.04-1.618-1.01-2.878-2.2-2.842-1.15 0.036-2.05 1.368-2.02 2.992z"></path> <path id="path67" style="stroke:black;stroke-width:.036;stroke-miterlimit:10;fill-rule:evenodd" d="m421.52 258.31c0.07 1.58 1.04 2.84 2.19 2.81 1.19-0.04 2.09-1.37 2.02-2.96-0.03-1.62-1.04-2.88-2.19-2.84-1.16 0.04-2.06 1.37-2.02 2.99z"></path> <path id="path69" style="stroke:black;stroke-width:.036;stroke-miterlimit:10;fill-rule:evenodd" d="m93.198 254.92c0.072 1.62 1.044 2.88 2.232 2.85 1.152-0.04 2.052-1.37 2.016-2.99-0.072-1.58-1.044-2.84-2.232-2.81-1.152 0.04-2.052 1.37-2.016 2.95z"></path> <path id="path71" style="stroke:black;stroke-width:.036;stroke-miterlimit:10;fill-rule:evenodd" d="m58.782 250.53c1.836 1.23 6.876 3.24 11.232 4.39 4.212 1.08 11.988 2.45 14.292 2.16 2.232-0.36 1.224-3.38-0.648-4.21-2.052-0.97-7.056-0.36-11.124-1.22-4.14-1.01-11.088-4.11-13.356-4.29-2.376-0.25-2.232 1.88-0.396 3.17z"></path> </g> <metadata></metadata></svg> 