<?xml version="1.0" encoding="UTF-8" standalone="no"?> <!-- Generator: Adobe Illustrator 11.0, SVG Export Plug-In . SVG Version: 6.0.0 Build 78) --> <svg xmlns:rdf="http://www.w3.org/1999/02/22-rdf-syntax-ns#" xmlns="http://www.w3.org/2000/svg" xmlns:x="http://ns.adobe.com/Extensibility/1.0/" xmlns:dc="http://purl.org/dc/elements/1.1/" xmlns:i="http://ns.adobe.com/AdobeIllustrator/10.0/" xmlns:cc="http://web.resource.org/cc/" xmlns:xlink="http://www.w3.org/1999/xlink" xmlns:a="http://ns.adobe.com/AdobeSVGViewerExtensions/3.0/" xmlns:graph="http://ns.adobe.com/Graphs/1.0/" xmlns:svg="http://www.w3.org/2000/svg" xmlns:inkscape="http://www.inkscape.org/namespaces/inkscape" xmlns:sodipodi="http://sodipodi.sourceforge.net/DTD/sodipodi-0.dtd" xmlns:ns1="http://sozi.baierouge.fr" i:rulerOrigin="112 -54" overflow="visible" i:viewOrigin="29.1992 479.1216" i:pageBounds="-112 666 680 54" xml:space="preserve" viewBox="0 0 490.513 280.842"> <switch> <g i:extraneous="self"> <g id="Layer_1" i:rgbTrio="#4F008000FFFF" i:layer="yes" i:dimmedPercent="50"> <path d="m73.97 24.433h304.71v156.83h-304.71v-156.83m-7.628-3.924h319.96v164.68h-3.05" i:knockout="Off" stroke="#000000" stroke-linecap="round" stroke-width="1.1304" fill="none"></path> <path d="m68.39 185.19h-2.048v-164.68m0-0.004v-6.728m0 0h319.96" i:knockout="Off" stroke="#000000" stroke-linecap="round" stroke-width=".7056" fill="none"></path> <line y2="13.778" x1="386.3" i:knockout="Off" x2="386.3" stroke="#000000" stroke-linecap="round" y1="20.506" stroke-width="1.1304" fill="none"></line> <line y2="1.318" x1="66.342" i:knockout="Off" x2="66.342" stroke="#000000" stroke-linecap="round" y1="13.778" stroke-width=".7056" fill="none"></line> <line y2=".912" x1="386.3" i:knockout="Off" x2="386.3" stroke="#000000" stroke-linecap="round" y1="13.778" stroke-width="1.1304" fill="none"></line> <path d="m73.97 181.26l-73.12 51.43m377.83-51.43l59.981 51.432" i:knockout="Off" stroke="#000000" stroke-linecap="round" stroke-width="1.6992" fill="none"></path> <line y2="232.69" x1=".85" i:knockout="Off" x2="438.66" stroke="#000000" stroke-linecap="round" y1="232.69" stroke-width=".7056" fill="none"></line> <path d="m0.85 232.69v15.882m0 0h437.81m0-15.88v15.882m3.81-240.52c0-3.975-3.223-7.198-7.197-7.198h-0.01m0 0.001l-384.01 0.487m384.07 192.45c3.944 0 7.142-3.197 7.142-7.142m-7.14 7.14h-42.04m49.19-185.74v178.6m-391.24-185.18c-10.896 91.3-6.177 146.04 1.061 192.32m0 0h3.855" i:knockout="Off" stroke="#000000" stroke-linecap="round" stroke-width="1.6992" fill="none"></path> <path d="m435.13 62.675c0-9.983-8.093-18.076-18.076-18.076s-18.076 8.093-18.076 18.076 8.093 18.076 18.076 18.076 18.08-8.093 18.08-18.076m-18.07-15.35h1.899m0 0c0.67 0.122 1.097 1.28 1.523 2.743 0.35 1.197 1.065 7.047 1.348 12.607m-4.77-15.35h-1.899m0 0c-0.67 0.122-1.097 1.28-1.523 2.743-0.35 1.197-1.065 7.047-1.348 12.607m6.67 15.349c0.67-0.122 1.097-1.28 1.523-2.742 0.35-1.197 1.065-7.048 1.348-12.607m-4.77 15.349h-1.899m0 0c-0.67-0.122-1.097-1.28-1.523-2.742-0.35-1.197-1.065-7.048-1.348-12.607m6.67 15.349h-1.899m18.07 37.296c0-9.983-8.093-18.076-18.076-18.076s-18.076 8.093-18.076 18.076 8.093 18.076 18.076 18.076 18.08-8.09 18.08-18.08m-18.07-15.345h1.899m0 0c0.67 0.122 1.097 1.279 1.523 2.742 0.35 1.197 1.065 7.048 1.348 12.607m-4.77-15.355h-1.899m0 0c-0.67 0.122-1.097 1.279-1.523 2.742-0.35 1.197-1.065 7.048-1.348 12.607m6.67 15.34c0.67-0.122 1.097-1.28 1.523-2.743 0.35-1.197 1.065-7.047 1.348-12.607m-4.77 15.35h-1.899m0 0c-0.67-0.122-1.097-1.28-1.523-2.743-0.35-1.197-1.065-7.047-1.348-12.607m6.67 15.35h-1.899m18.07 38.24c0-9.983-8.093-18.076-18.076-18.076s-18.076 8.093-18.076 18.076c0 9.982 8.093 18.076 18.076 18.076s18.08-8.1 18.08-18.08m-18.07-9.28h1.148m-0.01 0c0.405 0.074 0.663 0.774 0.921 1.658 0.211 0.724 0.645 4.261 0.814 7.622m-2.87-9.28h-1.148m0 0c-0.405 0.074-0.663 0.774-0.921 1.658-0.211 0.724-0.645 4.261-0.814 7.622m4.02 9.28c0.405-0.073 0.663-0.773 0.921-1.658 0.211-0.724 0.645-4.26 0.814-7.621m-2.87 9.28h-1.148m0 0c-0.405-0.073-0.663-0.773-0.921-1.658-0.211-0.724-0.645-4.26-0.814-7.621m4.02 9.28h-1.148" i:knockout="Off" stroke="#000000" stroke-linecap="round" stroke-width="1.1304" fill="none"></path> <path d="m427.38 168.91c0-5.699-4.62-10.32-10.319-10.32s-10.32 4.621-10.32 10.32 4.621 10.319 10.32 10.319 10.32-4.62 10.32-10.32" i:knockout="Off" stroke="#000000" stroke-linecap="round" stroke-width=".7056" fill="none"></path> <path d="m335.9 92.287c-0.136-5.581-4.699-10.014-10.264-10.018-4.956 0-9.092 3.512-10.065 8.25m0.03 4.243c0.796 3.582 3.374 6.307 6.641 7.465m6.55 0.07c2.977-0.967 5.21-3.165 6.325-5.864m-11.22-3.758c0-1.103-0.85-2.007-1.938-2.095m-0.32 4.19c0.058 0.004 0.114 0.007 0.163 0.006 1.16 0 2.102-0.94 2.102-2.101m7.53-1.984c-0.234-0.082-0.473-0.12-0.691-0.117-1.16 0-2.102 0.941-2.102 2.101 0 0.943 0.621 1.741 1.491 2.011" i:knockout="Off" stroke="#000000" stroke-linecap="round" stroke-width="1.1304" fill="none"></path> <path d="m137.86 142.58l-5.318 4.052m-6.18 4.71l-18.283 13.93m-7.22 5.5l-13.769 10.49m249.88-29.92l15.121 13.93" i:knockout="Off" stroke="#000000" stroke-linecap="round" stroke-width=".7056" fill="none"></path> <path d="m358.06 170.77l11.388 10.49m-274.23-150.78h269.44" i:knockout="Off" stroke="#000000" stroke-linecap="round" stroke-width="1.1304" fill="none"></path> <path d="m95.224 30.48c-2.396 0.076-2.444-5.709-0.831-5.947" i:knockout="Off" stroke="#000000" stroke-linecap="round" stroke-width=".7056" fill="none"></path> <path d="m96.147 30.48v2.021m0 0h-7.92m0 0v-8.068" i:knockout="Off" stroke="#000000" stroke-linecap="round" stroke-width="1.1304" fill="none"></path> <path d="m121.95 36.153c-2.127 0.068-2.403-4.484-1.311-5.673" i:knockout="Off" stroke="#000000" stroke-linecap="round" stroke-width=".7056" fill="none"></path> <path d="m122.87 36.153v2.021m0 0h-7.92m0 0v-7.694" i:knockout="Off" stroke="#000000" stroke-linecap="round" stroke-width="1.1304" fill="none"></path> <path d="m364.6 30.48c2.396 0.076 2.444-5.709 0.832-5.947" i:knockout="Off" stroke="#000000" stroke-linecap="round" stroke-width=".7056" fill="none"></path> <path d="m363.67 30.48v2.021m0 0h7.92m0 0v-8.068" i:knockout="Off" stroke="#000000" stroke-linecap="round" stroke-width="1.1304" fill="none"></path> <path d="m343.83 36.153c2.127 0.068 2.403-4.484 1.311-5.673" i:knockout="Off" stroke="#000000" stroke-linecap="round" stroke-width=".7056" fill="none"></path> <path d="m342.9 36.153v2.021m0 0h7.921m0 0v-7.694" i:knockout="Off" stroke="#000000" stroke-linecap="round" stroke-width="1.1304" fill="none"></path> <line y2="165.27" x1="97.218" i:knockout="Off" x2="363.97" stroke="#000000" stroke-linecap="round" y1="165.27" stroke-width=".7056" fill="none"></line> <line y2="170.77" x1="97.177" i:knockout="Off" x2="364.13" stroke="#000000" stroke-linecap="round" y1="170.77" stroke-width="1.1304" fill="none"></line> <path d="m97.218 165.27c-1.612 0.07-1.777 5.439-0.041 5.5" i:knockout="Off" stroke="#000000" stroke-linecap="round" stroke-width=".7056" fill="none"></path> <path d="m97.877 162.99v2.284m0 5.5v1.303m0 0h-8.674" i:knockout="Off" stroke="#000000" stroke-linecap="round" stroke-width="1.1304" fill="none"></path> <path d="m97.877 162.99h-8.674m0 0v9.087m34.447-25.45c-1.38 0.061-1.521 4.656-0.036 4.707" i:knockout="Off" stroke="#000000" stroke-linecap="round" stroke-width=".7056" fill="none"></path> <path d="m124.21 144.68v1.955m0 4.7v1.116m0 0h-7.424" i:knockout="Off" stroke="#000000" stroke-linecap="round" stroke-width="1.1304" fill="none"></path> <path d="m124.21 144.68h-7.424m0 0v7.778" i:knockout="Off" stroke="#000000" stroke-linecap="round" stroke-width=".7056" fill="none"></path> <line y2="151.34" x1="123.61" i:knockout="Off" x2="340.59" stroke="#000000" stroke-linecap="round" y1="151.34" stroke-width="1.1304" fill="none"></line> <path d="m123.65 146.63h216.88m23.49 18.64c1.611 0.07 1.777 5.439 0.041 5.5" i:knockout="Off" stroke="#000000" stroke-linecap="round" stroke-width=".7056" fill="none"></path> <path d="m363.36 162.99v2.284m0 5.5v1.303m0 0h8.674" i:knockout="Off" stroke="#000000" stroke-linecap="round" stroke-width="1.1304" fill="none"></path> <path d="m363.36 162.99h8.674m0 0v9.087m-31.46-25.45c1.38 0.061 1.521 4.656 0.035 4.707" i:knockout="Off" stroke="#000000" stroke-linecap="round" stroke-width=".7056" fill="none"></path> <path d="m340 144.68v1.955m0 4.7v1.116m0 0h7.424" i:knockout="Off" stroke="#000000" stroke-linecap="round" stroke-width="1.1304" fill="none"></path> <path d="m340 144.68h7.424m0.01 0v7.778" i:knockout="Off" stroke="#000000" stroke-linecap="round" stroke-width=".7056" fill="none"></path> <path d="m166.84 36.153c-7.392 0-13.384 5.993-13.384 13.384" i:knockout="Off" stroke="#000000" stroke-linecap="round" stroke-width="1.6992" fill="none"></path> <line y2="36.153" x1="121.95" i:knockout="Off" x2="166.84" stroke="#000000" stroke-linecap="round" y1="36.153" stroke-width="1.1304" fill="none"></line> <path d="m312.4 49.759c0-7.514-6.092-13.606-13.606-13.606" i:knockout="Off" stroke="#000000" stroke-linecap="round" stroke-width=".7056" fill="none"></path> <path d="m166.84 36.153h131.96m0 0h45.032" i:knockout="Off" stroke="#000000" stroke-linecap="round" stroke-width="1.1304" fill="none"></path> <path d="m153.45 136.02c0 1.005 0.112 1.983 0.309 2.836m1.45 3.73c0.958 1.667 2.224 3.045 3.615 4.049" i:knockout="Off" stroke="#000000" stroke-linecap="round" stroke-width=".7056" fill="none"></path> <path d="m153.45 136.02v-4.27m0-2.43v-9.854m0-2.8v-9.88m0-16.91v-40.343" i:knockout="Off" stroke="#000000" stroke-linecap="round" stroke-width="1.6992" fill="none"></path> <path d="m307.02 146.62c1.552-1.143 2.781-2.56 3.625-4.058m1.46-3.79c0.211-0.972 0.309-1.94 0.301-2.806m0 0v-13.579m0-2.28v-0.637m0-2.79v-9.911m0-4.88v-7.133m0-4.247v-40.741m-232.82 11.03c0 1.446 4.997 1.697 5.301 6.265 0.482 7.229-5.301 6.024-5.06 8.674m-1.023-13.879c-3.747 0.75-3.447 11.842 1.022 11.469" i:knockout="Off" stroke="#000000" stroke-linecap="round" stroke-width=".7056" fill="none"></path> <path d="m120.92 59.736c0.241 0.964 4.905 1.06 5.167 5.63 0.286 5.004-4.176 5.058-4.417 6.503" i:knockout="Off" stroke="#000000" stroke-linecap="round" stroke-width="1.1304" fill="none"></path> <path d="m123.67 67.535l-37.829 1.927m37.449-5.378l-36.625 0.723m32.675-4.982l-37.829 0.482m38.549 11.565l-38.793 2.65m293.98-13.149c0 1.161-4.012 1.362-4.256 5.03-0.387 5.804 4.256 4.837 4.063 6.965m0.83-11.143c3.009 0.602 2.769 9.508-0.821 9.208" i:knockout="Off" stroke="#000000" stroke-linecap="round" stroke-width=".7056" fill="none"></path> <path d="m342.06 60.528c-0.193 0.774-3.938 0.851-4.148 4.52-0.23 4.018 3.353 4.062 3.546 5.222" i:knockout="Off" stroke="#000000" stroke-linecap="round" stroke-width="1.1304" fill="none"></path> <path d="m339.85 66.79l30.374 1.547m-30.06-4.318l29.406 0.58m-26.24-4l30.375 0.387m-30.95 9.286l31.148 2.128" i:knockout="Off" stroke="#000000" stroke-linecap="round" stroke-width=".7056" fill="none"></path> <path d="m82.75 129.89c4.334-0.252 5.842 0.628 7.412 3.329 1.725 2.967 0.377 9.233 14.95 9.359m-22.578-16.45c3.01-0.174 5.021 0.181 6.57 0.912 1.764 0.832 3.08 2.151 4.321 4.287 0.449 0.772 0.78 1.692 1.103 2.7 0.296 0.926 0.521 2.066 1.629 2.925 0.501 0.388 1.162 0.714 2.02 0.99 1.665 0.536 3.912 0.842 6.969 0.868m-22.39-8.93c-2.324 0.188-4.02-0.816-4.208-2.262-0.188-1.444-0.314-3.329 6.91-5.402m19.658 20.35h240.88m-240.85-3.77h240.74m22.16-8.92c-4.334-0.252-5.842 0.628-7.412 3.329-1.726 2.967-0.377 9.233-14.95 9.359m22.58-16.45c-3.01-0.174-5.021 0.181-6.57 0.912-1.764 0.832-3.079 2.151-4.321 4.287-0.448 0.772-0.78 1.692-1.103 2.7-0.297 0.926-0.521 2.066-1.63 2.925-0.501 0.388-1.161 0.714-2.02 0.99-1.665 0.536-3.912 0.842-6.969 0.868m22.39-8.93c2.324 0.188 4.02-0.816 4.208-2.262 0.188-1.444-1.064-2.221-6.909-5.402m-279.89 0l34.801-13.343m-34.249 17.27l38.431-15.659" i:knockout="Off" stroke="#000000" stroke-linecap="round" stroke-width="1.1304" fill="none"></path> <path d="m120.25 108.89s2.921-1.302 4.46-1.539m2.67 2.81c1.399 0.279 2.162 1.015 2.947 2.365 1.279 2.199 0.279 6.843 11.08 6.936m-16.7-12.11c2.231-0.129 3.683 0.055 4.831 0.597 1.308 0.617 2.282 1.595 3.203 3.178 0.333 0.572 0.578 1.254 0.817 2.001 0.22 0.686 0.386 1.531 1.208 2.168 0.372 0.287 0.861 0.528 1.497 0.733 1.234 0.397 2.9 0.624 5.165 0.643m-0.03 2.79h178.52m-178.5-2.79h178.41m14.65-6.64c-1.615-0.178-2.549 0.499-3.713 2.5-1.278 2.199-0.279 6.843-11.079 6.936m16.73-12.2c-1.781-0.327-3.722 0.134-4.87 0.676-1.307 0.617-2.282 1.595-3.202 3.178-0.333 0.572-0.578 1.254-0.817 2.001-0.22 0.686-0.386 1.531-1.208 2.168-0.371 0.287-0.86 0.528-1.496 0.733-1.234 0.397-2.899 0.624-5.165 0.643m-195.23-6.17c1.744-0.581 2.345-0.581 3.508-0.225" i:knockout="Off" stroke="#000000" stroke-linecap="round" stroke-width=".7056" fill="none"></path> <path d="m365.34 122.23l-25.954-13.845m0 0c-1.039-0.538-1.604-0.95-2.957-1.116m2.19 4.12c2.597 1.404 26.602 14.94 26.602 14.94m-26.6-14.94c-0.743-0.355-2.391-1.486-4.135-1.357" i:knockout="Off" stroke="#000000" stroke-linecap="round" stroke-width="1.1304" fill="none"></path> <path d="m333.95 138.6l-22.268-19.122m19.36 19.23l-21.667-18.979m2.73 19.04l-16.647-19.54m14.53 19.44l-16.46-19.026m-2.09 19.09l-11.826-19.248m9.32 19.11l-11.255-19.072m-7.49 18.96l-6.416-18.871m4.03 19.12l-5.957-19.401m-12.91 19.53l-1.006-19.248m-1.51 19.12l-0.369-19.636m-18 19.77l4.104-19.584m-6.74 19.58l4.906-19.248m-23.56 19.14l9.572-19.258m-12.3 19.24l10.19-19.248m-28.52 19.48l14.554-19.351m-17.23 19.12l15.222-19.248m-32.83 19.25l18.997-18.996m-22.02 19.13l19.751-19.248m-37.62 19.12l24.532-19.122m-28.43 19.25l26.293-19.5m157.89-0.13l26.167 18.997m-24.65-19.99l27.415 19.236m-218.02-18.75l-35.98 19.5m38.31-19l-34.785 19.374m-15.082 56.39c-4.914 0-9.452 1.609-13.057 4.286m304.28 0.68c-3.531-3.322-8.036-4.966-12.518-4.962m-278.7-0.01h278.7m-311.8 19.04c-1.104 0.813-1.637 1.779-1.631 2.726" i:knockout="Off" stroke="#000000" stroke-linecap="round" stroke-width=".7056" fill="none"></path> <path d="m53.405 216.76c0 2.439 3.424 4.416 7.648 4.416" i:knockout="Off" stroke="#000000" stroke-linecap="round" stroke-width="1.6992" fill="none"></path> <path d="m55.313 214.16c-1.054 0.775-1.064 1.697-1.059 2.6h-1.699c-0.006-0.99 1.048-2.001 2.203-2.852l0.555 0.25" i:knockout="Off"></path> <line y2="214.03" x1="75.082" i:knockout="Off" x2="55.036" stroke="#000000" stroke-linecap="round" y1="199.28" stroke-width=".7056" fill="none"></line> <path d="m387.7 221.17c4.395 0 7.956-2.057 7.956-4.593" i:knockout="Off" stroke="#000000" stroke-linecap="round" stroke-width="1.6992" fill="none"></path> <path d="m395.65 216.58c0-0.89-0.438-1.72-1.176-2.403" i:knockout="Off" stroke="#000000" stroke-linecap="round" stroke-width=".7056" fill="none"></path> <path d="m394.8 216.58c0-0.795 0.033-1.687-0.627-2.297l0.602-0.213c0.816 0.757 1.725 1.525 1.725 2.51h-1.7" i:knockout="Off"></path> <line y2="221.17" x1="61.053" i:knockout="Off" x2="387.7" stroke="#000000" stroke-linecap="round" y1="221.17" stroke-width="1.6992" fill="none"></line> <path d="m379.36 199.96l15.12 14.221m-306.34-15.66c-4.914 0-9.452 1.609-13.057 4.286m304.28 0.67c-3.531-3.322-8.036-4.966-12.518-4.962m-278.7 0h278.7m-291.76 4.29l-21.227 15.442m325.5-14.77l15.765 14.745m-271.5-79.41c0.973-0.631 29.834-19.346 29.834-19.346m-33.89 19.35c1.239-0.784 30.718-19.447 30.718-19.447m-0.39-28.808c-0.959-4.875-5.222-8.259-10.072-8.284-5.619 0-10.184 4.514-10.265 10.121m0.78 4.082c1.629 3.924 5.412 6.302 9.481 6.329 4.862 0 8.935-3.38 10.01-7.988" i:knockout="Off" stroke="#000000" stroke-linecap="round" stroke-width=".7056" fill="none"></path> <path d="m143.49 90.583c-1.1 0.086-1.935 1.003-1.938 2.095 0 1.161 0.94 2.101 2.101 2.101 0.058 0 0.115-0.002 0.164-0.006m-6.99-2.095c0-1.16-0.941-2.101-2.101-2.101-0.248 0-0.486 0.043-0.692 0.117m1.3 3.995c0.902-0.274 1.485-1.1 1.491-2.011m-2.79-1.961l-26.817 9.912s-2.836 1.063-3.014 1.772-0.632 4.443 2.381 4.443c3.014 0 49.281 0.138 53.89-0.217 4.608-0.354 8.505-3.468 11.981-6.343 3.423-2.831 4.571-4.011 6.343-5.074s0.476-4.792-2.537-4.792c-3.014 0-32.859 0.17-32.859 0.17m30.19 3.077c-3.794 2.188-8.907 7.305-12.264 8.034-3.356 0.73-52.108 0.773-52.108 0.773m26.14-7.747s-17.847 6.219-20.559 7.205m206.87-7.191s-24.276 0.136-28.242-0.14" i:knockout="Off" stroke="#000000" stroke-linecap="round" stroke-width="1.1304" fill="none"></path> <line y2="94.658" x1="153.45" i:knockout="Off" x2="153.45" stroke="#000000" stroke-linecap="round" y1="101.57" stroke-width="1.6992" fill="none"></line> <path d="m142.07 88.704c0-0.58-0.235-1.105-0.616-1.486-0.439-0.439-1.024-0.643-1.601-0.612" i:knockout="Off" stroke="#000000" stroke-linecap="round" stroke-dasharray="3.6 1.44 1.44 1.44 1.44 1.44" stroke-width=".7056" fill="none"></path> <path d="m139.85 86.606c-0.253 0.014-0.493 0.072-0.699 0.161" i:knockout="Off" stroke="#000000" stroke-linecap="round" stroke-width=".7056" fill="none"></path> <path d="m140.5 90.735c0.376-0.1 0.702-0.295 0.948-0.545 0.231-0.231 0.397-0.503 0.493-0.78" i:knockout="Off" stroke="#000000" stroke-linecap="round" stroke-dasharray="3.6 1.44 1.44 1.44 1.44 1.44" stroke-width=".7056" fill="none"></path> <path d="m141.94 89.41c0.085-0.238 0.125-0.482 0.123-0.706" i:knockout="Off" stroke="#000000" stroke-linecap="round" stroke-width=".7056" fill="none"></path> <path d="m142.07 97.635c0-0.58-0.235-1.105-0.616-1.485-0.616-0.616-1.52-0.77-2.292-0.455" i:knockout="Off" stroke="#000000" stroke-linecap="round" stroke-dasharray="3.6 1.44 1.44 1.44 1.44 1.44" stroke-width=".7056" fill="none"></path> <path d="m139.16 95.695c-0.234 0.097-0.441 0.232-0.605 0.384" i:knockout="Off" stroke="#000000" stroke-linecap="round" stroke-width=".7056" fill="none"></path> <path d="m141.2 99.336c0.094-0.068 0.181-0.143 0.251-0.215 0.231-0.231 0.397-0.503 0.493-0.779" i:knockout="Off" stroke="#000000" stroke-linecap="round" stroke-dasharray="3.6 1.44 1.44 1.44 1.44 1.44" stroke-width=".7056" fill="none"></path> <path d="m141.94 98.342c0.085-0.239 0.125-0.482 0.123-0.707" i:knockout="Off" stroke="#000000" stroke-linecap="round" stroke-width=".7056" fill="none"></path> <line y2="107.04" x1="140.6" i:knockout="Off" x2="118.9" stroke="#000000" stroke-linecap="round" stroke-dasharray="3.6 1.44 1.44 1.44 1.44 1.44" y1="99.461" stroke-width=".7056" fill="none"></line> <line y2="107.28" x1="118.9" i:knockout="Off" x2="118.22" stroke="#000000" stroke-linecap="round" y1="107.04" stroke-width=".7056" fill="none"></line> <line y2="103.39" x1="139.33" i:knockout="Off" x2="117.63" stroke="#000000" stroke-linecap="round" stroke-dasharray="3.6 1.44 1.44 1.44 1.44 1.44" y1="95.81" stroke-width=".7056" fill="none"></line> <line y2="103.62" x1="117.63" i:knockout="Off" x2="116.95" stroke="#000000" stroke-linecap="round" y1="103.39" stroke-width=".7056" fill="none"></line> <line y2="70.916" x1="112.05" i:knockout="Off" x2="112.05" stroke="#000000" stroke-linecap="round" stroke-dasharray="3.6 1.44 1.44 1.44 1.44 1.44" y1="102.47" stroke-width=".7056" fill="none"></line> <line y2="70.196" x1="112.05" i:knockout="Off" x2="112.05" stroke="#000000" stroke-linecap="round" y1="70.916" stroke-width=".7056" fill="none"></line> <line y2="70.916" x1="115.92" i:knockout="Off" x2="115.92" stroke="#000000" stroke-linecap="round" stroke-dasharray="3.6 1.44 1.44 1.44 1.44 1.44" y1="102.47" stroke-width=".7056" fill="none"></line> <line y2="70.196" x1="115.92" i:knockout="Off" x2="115.92" stroke="#000000" stroke-linecap="round" y1="70.916" stroke-width=".7056" fill="none"></line> <path d="m118.23 107.27c-1.413 0.502-2.787 0.409-3.905-0.236-0.729-0.421-1.335-1.068-1.743-1.945-0.251-0.542-0.429-1.182-0.499-1.917" i:knockout="Off" stroke="#000000" stroke-linecap="round" stroke-dasharray="3.6 1.44 1.44 1.44 1.44 1.44" stroke-width=".7056" fill="none"></path> <path d="m112.09 103.17c-0.021-0.225-0.032-0.458-0.032-0.7" i:knockout="Off" stroke="#000000" stroke-linecap="round" stroke-width=".7056" fill="none"></path> <path d="m116.94 103.63c-0.245 0.087-0.481 0.17-0.674 0.058l-0.169-0.226c-0.041-0.088-0.074-0.184-0.099-0.287" i:knockout="Off" stroke="#000000" stroke-linecap="round" stroke-dasharray="3.6 1.44 1.44 1.44 1.44 1.44" stroke-width=".7056" fill="none"></path> <path d="m115.99 103.17c-0.051-0.207-0.072-0.442-0.072-0.702" i:knockout="Off" stroke="#000000" stroke-linecap="round" stroke-width=".7056" fill="none"></path> <line y2="63.042" x1="116.95" i:knockout="Off" x2="131.35" stroke="#000000" stroke-linecap="round" stroke-dasharray="3.6 1.44 1.44 1.44 1.44 1.44" y1="64.127" stroke-width=".7056" fill="none"></line> <line y2="62.989" x1="131.35" i:knockout="Off" x2="132.07" stroke="#000000" stroke-linecap="round" y1="63.042" stroke-width=".7056" fill="none"></line> <line y2="66.899" x1="117.24" i:knockout="Off" x2="131.64" stroke="#000000" stroke-linecap="round" stroke-dasharray="3.6 1.44 1.44 1.44 1.44 1.44" y1="67.983" stroke-width=".7056" fill="none"></line> <line y2="66.845" x1="131.64" i:knockout="Off" x2="132.36" stroke="#000000" stroke-linecap="round" y1="66.899" stroke-width=".7056" fill="none"></line> <path d="m117.21 68.009c-0.342 0.181-0.898 0.974-0.898 0.974s-0.114 0.249-0.218 0.536" i:knockout="Off" stroke="#000000" stroke-linecap="round" stroke-dasharray="3.6 1.44 1.44 1.44 1.44 1.44" stroke-width=".7056" fill="none"></path> <path d="m116.09 69.519c-0.088 0.241-0.168 0.509-0.168 0.677" i:knockout="Off" stroke="#000000" stroke-linecap="round" stroke-width=".7056" fill="none"></path> <path d="m116.94 64.127c-0.502 0.038-1.027 0.189-1.544 0.462-0.891 0.47-1.79 1.341-2.435 2.447l-0.003 0.006c-0.473 0.819-0.751 1.667-0.858 2.441" i:knockout="Off" stroke="#000000" stroke-linecap="round" stroke-dasharray="3.6 1.44 1.44 1.44 1.44 1.44" stroke-width=".7056" fill="none"></path> <path d="m112.1 69.483c-0.034 0.246-0.051 0.485-0.051 0.712" i:knockout="Off" stroke="#000000" stroke-linecap="round" stroke-width=".7056" fill="none"></path> <line y2="85.888" x1="136.68" i:knockout="Off" x2="136.66" stroke="#000000" stroke-linecap="round" stroke-dasharray="3.6 1.44 1.44 1.44 1.44 1.44" y1="67.921" stroke-width=".7056" fill="none"></line> <line y2="86.608" x1="136.66" i:knockout="Off" x2="136.66" stroke="#000000" stroke-linecap="round" y1="85.888" stroke-width=".7056" fill="none"></line> <line y2="85.884" x1="132.81" i:knockout="Off" x2="132.79" stroke="#000000" stroke-linecap="round" stroke-dasharray="3.6 1.44 1.44 1.44 1.44 1.44" y1="67.917" stroke-width=".7056" fill="none"></line> <line y2="86.604" x1="132.79" i:knockout="Off" x2="132.79" stroke="#000000" stroke-linecap="round" y1="85.884" stroke-width=".7056" fill="none"></line> <path d="m132.04 62.991c0.854-0.076 1.699 0.097 2.437 0.522 0.706 0.408 1.294 1.034 1.689 1.884 0.239 0.514 0.409 1.121 0.477 1.816" i:knockout="Off" stroke="#000000" stroke-linecap="round" stroke-dasharray="3.6 1.44 1.44 1.44 1.44 1.44" stroke-width=".7056" fill="none"></path> <path d="m136.65 67.214c0.022 0.224 0.034 0.457 0.034 0.699" i:knockout="Off" stroke="#000000" stroke-linecap="round" stroke-width=".7056" fill="none"></path> <path d="m132.66 67.026c0.022 0.049 0.042 0.101 0.06 0.155" i:knockout="Off" stroke="#000000" stroke-linecap="round" stroke-dasharray="3.6 1.44 1.44 1.44 1.44 1.44" stroke-width=".7056" fill="none"></path> <path d="m132.72 67.181c0.064 0.203 0.09 0.441 0.091 0.709" i:knockout="Off" stroke="#000000" stroke-linecap="round" stroke-width=".7056" fill="none"></path> <path d="m138.77 91.445c-1.341 0.434-2.645 0.325-3.715-0.293-0.726-0.419-1.33-1.063-1.735-1.937-0.25-0.538-0.426-1.173-0.495-1.903" i:knockout="Off" stroke="#000000" stroke-linecap="round" stroke-dasharray="3.6 1.44 1.44 1.44 1.44 1.44" stroke-width=".7056" fill="none"></path> <path d="m132.83 87.313c-0.021-0.225-0.033-0.458-0.033-0.7" i:knockout="Off" stroke="#000000" stroke-linecap="round" stroke-width=".7056" fill="none"></path> <path d="m137.58 87.766c-0.213 0.069-0.42 0.135-0.59 0.037l-0.162-0.217c-0.034-0.072-0.062-0.15-0.084-0.232" i:knockout="Off" stroke="#000000" stroke-linecap="round" stroke-dasharray="3.6 1.44 1.44 1.44 1.44 1.44" stroke-width=".7056" fill="none"></path> <path d="m136.74 87.354c-0.057-0.208-0.082-0.446-0.083-0.71" i:knockout="Off" stroke="#000000" stroke-linecap="round" stroke-width=".7056" fill="none"></path> <line y2="87.153" x1="137.58" i:knockout="Off" x2="138.54" stroke="#000000" stroke-linecap="round" stroke-dasharray="3.6 1.44 1.44 1.44 1.44 1.44" y1="87.766" stroke-width=".7056" fill="none"></line> <line y2="86.767" x1="138.54" i:knockout="Off" x2="139.15" stroke="#000000" stroke-linecap="round" y1="87.153" stroke-width=".7056" fill="none"></line> <path d="m325.68 86.767c-0.806-0.339-1.704-0.137-2.3 0.451-0.41 0.411-0.615 0.948-0.615 1.486 0 0.58 0.235 1.105 0.615 1.486 0.096 0.096 0.199 0.181 0.297 0.247" i:knockout="Off" stroke="#000000" stroke-linecap="round" stroke-dasharray="3.6 1.44 1.44 1.44 1.44 1.44" stroke-width=".7056" fill="none"></path> <path d="m323.68 90.437c0.209 0.144 0.435 0.244 0.651 0.299" i:knockout="Off" stroke="#000000" stroke-linecap="round" stroke-width=".7056" fill="none"></path> <path d="m326.28 96.08c-0.832-0.756-2.106-0.719-2.897 0.07-0.41 0.41-0.615 0.948-0.615 1.485 0 0.443 0.137 0.855 0.367 1.187" i:knockout="Off" stroke="#000000" stroke-linecap="round" stroke-dasharray="3.6 1.44 1.44 1.44 1.44 1.44" stroke-width=".7056" fill="none"></path> <path d="m323.13 98.822c0.077 0.113 0.163 0.216 0.248 0.299 0.082 0.083 0.17 0.156 0.252 0.215" i:knockout="Off" stroke="#000000" stroke-linecap="round" stroke-width=".7056" fill="none"></path> <line y2="107.04" x1="324.23" i:knockout="Off" x2="345.93" stroke="#000000" stroke-linecap="round" stroke-dasharray="3.6 1.44 1.44 1.44 1.44 1.44" y1="99.461" stroke-width=".7056" fill="none"></line> <line y2="107.28" x1="345.93" i:knockout="Off" x2="346.61" stroke="#000000" stroke-linecap="round" y1="107.04" stroke-width=".7056" fill="none"></line> <line y2="103.39" x1="325.5" i:knockout="Off" x2="347.2" stroke="#000000" stroke-linecap="round" stroke-dasharray="3.6 1.44 1.44 1.44 1.44 1.44" y1="95.81" stroke-width=".7056" fill="none"></line> <line y2="103.62" x1="347.2" i:knockout="Off" x2="347.88" stroke="#000000" stroke-linecap="round" y1="103.39" stroke-width=".7056" fill="none"></line> <line y2="70.916" x1="352.77" i:knockout="Off" x2="352.77" stroke="#000000" stroke-linecap="round" stroke-dasharray="3.6 1.44 1.44 1.44 1.44 1.44" y1="102.47" stroke-width=".7056" fill="none"></line> <line y2="70.196" x1="352.77" i:knockout="Off" x2="352.77" stroke="#000000" stroke-linecap="round" y1="70.916" stroke-width=".7056" fill="none"></line> <line y2="70.916" x1="348.91" i:knockout="Off" x2="348.91" stroke="#000000" stroke-linecap="round" stroke-dasharray="3.6 1.44 1.44 1.44 1.44 1.44" y1="102.47" stroke-width=".7056" fill="none"></line> <line y2="70.196" x1="348.91" i:knockout="Off" x2="348.91" stroke="#000000" stroke-linecap="round" y1="70.916" stroke-width=".7056" fill="none"></line> <path d="m346.6 107.27c1.413 0.502 2.788 0.409 3.905-0.236 0.729-0.421 1.336-1.068 1.743-1.945 0.252-0.542 0.429-1.182 0.498-1.917" i:knockout="Off" stroke="#000000" stroke-linecap="round" stroke-dasharray="3.6 1.44 1.44 1.44 1.44 1.44" stroke-width=".7056" fill="none"></path> <path d="m352.74 103.17c0.021-0.225 0.032-0.458 0.032-0.7" i:knockout="Off" stroke="#000000" stroke-linecap="round" stroke-width=".7056" fill="none"></path> <path d="m347.89 103.63c0.245 0.087 0.481 0.17 0.675 0.058l0.17-0.226c0.041-0.088 0.073-0.184 0.099-0.287" i:knockout="Off" stroke="#000000" stroke-linecap="round" stroke-dasharray="3.6 1.44 1.44 1.44 1.44 1.44" stroke-width=".7056" fill="none"></path> <path d="m348.84 103.17c0.051-0.207 0.071-0.442 0.071-0.702" i:knockout="Off" stroke="#000000" stroke-linecap="round" stroke-width=".7056" fill="none"></path> <line y2="63.042" x1="347.88" i:knockout="Off" x2="333.48" stroke="#000000" stroke-linecap="round" stroke-dasharray="3.6 1.44 1.44 1.44 1.44 1.44" y1="64.127" stroke-width=".7056" fill="none"></line> <line y2="62.989" x1="333.48" i:knockout="Off" x2="332.76" stroke="#000000" stroke-linecap="round" y1="63.042" stroke-width=".7056" fill="none"></line> <line y2="66.899" x1="347.59" i:knockout="Off" x2="333.18" stroke="#000000" stroke-linecap="round" stroke-dasharray="3.6 1.44 1.44 1.44 1.44 1.44" y1="67.983" stroke-width=".7056" fill="none"></line> <line y2="66.845" x1="333.18" i:knockout="Off" x2="332.47" stroke="#000000" stroke-linecap="round" y1="66.899" stroke-width=".7056" fill="none"></line> <path d="m347.62 68.009c0.342 0.181 0.898 0.974 0.898 0.974s0.114 0.249 0.218 0.536" i:knockout="Off" stroke="#000000" stroke-linecap="round" stroke-dasharray="3.6 1.44 1.44 1.44 1.44 1.44" stroke-width=".7056" fill="none"></path> <path d="m348.74 69.519c0.088 0.241 0.169 0.509 0.169 0.677" i:knockout="Off" stroke="#000000" stroke-linecap="round" stroke-width=".7056" fill="none"></path> <path d="m347.88 64.127c0.502 0.038 1.027 0.189 1.544 0.462 0.891 0.47 1.79 1.341 2.435 2.447l0.004 0.006c0.473 0.819 0.751 1.667 0.857 2.441" i:knockout="Off" stroke="#000000" stroke-linecap="round" stroke-dasharray="3.6 1.44 1.44 1.44 1.44 1.44" stroke-width=".7056" fill="none"></path> <path d="m352.72 69.483c0.034 0.246 0.051 0.485 0.051 0.712" i:knockout="Off" stroke="#000000" stroke-linecap="round" stroke-width=".7056" fill="none"></path> <line y2="85.888" x1="328.15" i:knockout="Off" x2="328.17" stroke="#000000" stroke-linecap="round" stroke-dasharray="3.6 1.44 1.44 1.44 1.44 1.44" y1="67.921" stroke-width=".7056" fill="none"></line> <line y2="86.608" x1="328.17" i:knockout="Off" x2="328.17" stroke="#000000" stroke-linecap="round" y1="85.888" stroke-width=".7056" fill="none"></line> <line y2="85.884" x1="332.02" i:knockout="Off" x2="332.04" stroke="#000000" stroke-linecap="round" stroke-dasharray="3.6 1.44 1.44 1.44 1.44 1.44" y1="67.917" stroke-width=".7056" fill="none"></line> <line y2="86.604" x1="332.04" i:knockout="Off" x2="332.04" stroke="#000000" stroke-linecap="round" y1="85.884" stroke-width=".7056" fill="none"></line> <path d="m332.78 62.991c-0.854-0.076-1.698 0.097-2.436 0.522-0.707 0.408-1.295 1.034-1.689 1.884-0.238 0.514-0.408 1.121-0.478 1.816" i:knockout="Off" stroke="#000000" stroke-linecap="round" stroke-dasharray="3.6 1.44 1.44 1.44 1.44 1.44" stroke-width=".7056" fill="none"></path> <path d="m328.18 67.214c-0.021 0.224-0.033 0.457-0.033 0.699" i:knockout="Off" stroke="#000000" stroke-linecap="round" stroke-width=".7056" fill="none"></path> <path d="m332.17 67.026c-0.023 0.049-0.043 0.101-0.06 0.155" i:knockout="Off" stroke="#000000" stroke-linecap="round" stroke-dasharray="3.6 1.44 1.44 1.44 1.44 1.44" stroke-width=".7056" fill="none"></path> <path d="m332.11 67.181c-0.064 0.203-0.09 0.441-0.092 0.709" i:knockout="Off" stroke="#000000" stroke-linecap="round" stroke-width=".7056" fill="none"></path> <path d="m326.06 91.445c1.341 0.434 2.645 0.325 3.715-0.293 0.726-0.419 1.33-1.063 1.735-1.937 0.25-0.538 0.426-1.173 0.495-1.903" i:knockout="Off" stroke="#000000" stroke-linecap="round" stroke-dasharray="3.6 1.44 1.44 1.44 1.44 1.44" stroke-width=".7056" fill="none"></path> <path d="m332 87.313c0.021-0.225 0.032-0.458 0.032-0.7" i:knockout="Off" stroke="#000000" stroke-linecap="round" stroke-width=".7056" fill="none"></path> <path d="m327.25 87.766c0.213 0.069 0.42 0.135 0.59 0.037l0.16-0.217c0.034-0.072 0.062-0.15 0.085-0.232" i:knockout="Off" stroke="#000000" stroke-linecap="round" stroke-dasharray="3.6 1.44 1.44 1.44 1.44 1.44" stroke-width=".7056" fill="none"></path> <path d="m328.08 87.354c0.057-0.208 0.081-0.446 0.083-0.71" i:knockout="Off" stroke="#000000" stroke-linecap="round" stroke-width=".7056" fill="none"></path> <line y2="87.153" x1="327.25" i:knockout="Off" x2="326.28" stroke="#000000" stroke-linecap="round" stroke-dasharray="3.6 1.44 1.44 1.44 1.44 1.44" y1="87.766" stroke-width=".7056" fill="none"></line> <path d="m326.28 87.153l-0.607-0.386m-198.22 59.863v-4.052m0-3.77v-2.482m0-2.51v-8.702m0-22.97v-4.67m0-4.331v-56.996m210.87 110.9v-4.469m0-3.77v-9.738m0-21.25v-3.442m0-3.65v-3.144m0-4.321v-57.112m-258.84 95.517c-3.046 4.188-0.381 13.135 3.807 13.706m7.613-9.71c0.381 4.188-0.38 6.091-2.094 7.804-1.713 1.714-4.568 3.046-4.188 5.33m7.552-22.11l32.169-14.086m3.23 7.66s-0.719 0.72-0.599 1.559m0.6-1.56c1.378-0.861 3.596-2.157 4.272-4.092m-4.15 0.97l-31.643 15.821m275.94-1.36c2.669 4.438-0.766 13.117-4.987 13.321m-6.73-10.34c-0.744 4.139-0.152 6.101 1.405 7.957 1.558 1.855 4.286 3.432 3.707 5.674m-5.6-22.68l-26.239-14.334m-3.62 4.6l25.452 15.637" i:knockout="Off" stroke="#000000" stroke-linecap="round" stroke-width=".7056" fill="none"></path> <path d="m331.45 90.683l26.817 9.912s2.836 1.063 3.014 1.772c0.177 0.709 0.632 4.443-2.381 4.443-3.014 0-49.281 0.138-53.89-0.217s-8.506-3.468-11.981-6.343c-3.423-2.831-4.57-4.011-6.343-5.075s-0.477-4.792 2.537-4.792 32.859 0.17 32.859 0.17m-30.19 3.073c3.794 2.188 8.907 7.305 12.264 8.034 3.356 0.73 52.108 0.773 52.108 0.773m-26.15-7.741s17.848 6.219 20.56 7.206m-206.86-7.127s24.277 0.136 28.243-0.141" i:knockout="Off" stroke="#000000" stroke-linecap="round" stroke-width="1.1304" fill="none"></path> <polygon fill="#FFFFFF" points="79.707 59.328 92.707 59.328 92.707 46.328 79.707 46.328" i:knockout="Off"></polygon> <polygon fill="#FFFFFF" points="173.71 75.227 192.71 75.227 192.71 62.227 173.71 62.227" i:knockout="Off"></polygon> <polygon fill="#FFFFFF" points="186.81 56.557 205.81 56.557 205.81 43.557 186.81 43.557" i:knockout="Off"></polygon> <polygon fill="#FFFFFF" points="199.53 88.133 212.53 88.133 212.53 75.133 199.53 75.133" i:knockout="Off"></polygon> <polygon fill="#FFFFFF" points="197.55 110 210.55 110 210.55 97.003 197.55 97.003" i:knockout="Off"></polygon> <polygon fill="#FFFFFF" points="224.1 100.57 237.1 100.57 237.1 87.57 224.1 87.57" i:knockout="Off"></polygon> <polygon fill="#FFFFFF" points="361.09 100.64 374.09 100.64 374.09 87.636 361.09 87.636" i:knockout="Off"></polygon> <polygon fill="#FFFFFF" points="477.51 193.56 490.51 193.56 490.51 180.56 477.51 180.56" i:knockout="Off"></polygon> <polygon fill="#FFFFFF" points="375.12 280.84 388.12 280.84 388.12 267.84 375.12 267.84" i:knockout="Off"></polygon> <polygon fill="#FFFFFF" points="251.04 111.74 264.04 111.74 264.04 98.737 251.04 98.737" i:knockout="Off"></polygon> <polygon fill="#FFFFFF" points="262.13 54.011 281.13 54.011 281.13 41.011 262.13 41.011" i:knockout="Off"></polygon> <path d="m156.68 41.846c36.196 24.13 119.81 23.289 152.36 0m-153.64 1.917c25.721 17.147 75.012 22 113.62 15.183 5.162-0.912 10.133-2.032 14.832-3.356m5-1.523c8.398-2.752 15.748-6.211 21.529-10.348m-156.69 2.61c3.367 2.245 7.131 4.286 11.216 6.124m8.31 3.313c8.782 3.094 18.622 5.406 28.961 6.939m5.49 0.736c20.49 2.462 42.506 1.964 61.886-1.458 12.12-2.14 23.206-5.426 32.303-9.761m4.03-2.065c2.251-1.237 4.351-2.548 6.282-3.93m-152.71 92.633c1.993-1.186 4.106-2.305 6.327-3.356m4.95-2.16c6.546-2.646 13.835-4.786 21.578-6.427m2.81-0.57c5.405-1.048 11.008-1.86 16.716-2.438m2.37-0.22c5.032-0.451 10.135-0.721 15.244-0.813m1.92-0.03c4.929-0.046 9.856 0.073 14.724 0.357m2 0.12c5.256 0.356 10.433 0.904 15.459 1.643m2.13 0.33c6.177 0.983 12.104 2.259 17.645 3.824m2.67 0.79c7.758 2.379 14.672 5.351 20.332 8.905m-150.94-0.1c4.37-2.913 9.42-5.472 14.982-7.678m4.28-1.6c6.155-2.151 12.838-3.909 19.849-5.275m2.67-0.49c5.178-0.926 10.518-1.645 15.941-2.156m2.28-0.2c4.84-0.403 9.738-0.644 14.638-0.722m1.82-0.02c4.753-0.037 9.502 0.079 14.197 0.345m1.92 0.11c5.034 0.331 9.998 0.837 14.83 1.518m2.04 0.3c1.402 0.213 2.792 0.442 4.169 0.685 4.364 0.771 8.592 1.69 12.635 2.757m2.55 0.69c10.337 2.946 19.344 6.884 26.167 11.766m-156.69-2.61c6.157-4.104 13.637-7.527 21.988-10.273m3.7-1.16c5.688-1.687 11.729-3.077 17.993-4.171m66.38-0.98c1.959 0.281 3.896 0.59 5.808 0.927 3.385 0.598 6.689 1.285 9.892 2.06m2.4 0.6c7.937 2.061 15.196 4.673 21.446 7.801m3.94 2.12c1.746 1.011 3.395 2.067 4.936 3.17" i:knockout="Off" stroke="#000000" stroke-linecap="round" stroke-width=".432" fill="none"></path> </g> </g> </switch> <metadata></metadata></svg> 