<?xml version="1.0" encoding="UTF-8" standalone="no"?> <!-- Created with Inkscape (http://www.inkscape.org/) --> <svg xmlns:rdf="http://www.w3.org/1999/02/22-rdf-syntax-ns#" xmlns="http://www.w3.org/2000/svg" xmlns:cc="http://web.resource.org/cc/" xmlns:xlink="http://www.w3.org/1999/xlink" xmlns:dc="http://purl.org/dc/elements/1.1/" xmlns:svg="http://www.w3.org/2000/svg" xmlns:inkscape="http://www.inkscape.org/namespaces/inkscape" xmlns:sodipodi="http://sodipodi.sourceforge.net/DTD/sodipodi-0.dtd" xmlns:ns1="http://sozi.baierouge.fr" id="svg14824" viewBox="0 0 744.09 1052.4" inkscape:version="0.91 r13725"><defs id="defs14826"><linearGradient id="linearGradient24611"><stop id="stop24613" style="stop-color:#6e9147" offset="0"></stop><stop id="stop24615" style="stop-color:#96ae5c" offset="1"></stop></linearGradient><linearGradient id="linearGradient23653"><stop id="stop23655" style="stop-color:#4d5e47" offset="0"></stop><stop id="stop23657" style="stop-color:#4d7647;stop-opacity:.16760" offset="1"></stop></linearGradient><linearGradient id="linearGradient20135"><stop id="stop20137" style="stop-color:#4d5e47" offset="0"></stop><stop id="stop20139" style="stop-color:#4d7647" offset="1"></stop></linearGradient><linearGradient id="linearGradient19248"><stop id="stop19250" style="stop-color:#ede8ab" offset="0"></stop><stop id="stop19252" style="stop-color:#6e9147" offset="1"></stop></linearGradient><radialGradient id="radialGradient19254" fx="-108.39" fy="513.02" xlink:href="#linearGradient19248" gradientUnits="userSpaceOnUse" cy="556.6" cx="-140.43" gradientTransform="matrix(1 0 0 1.038 1.1657e-15 -21.137)" r="74.458"></radialGradient><radialGradient id="radialGradient19258" fx="-108.39" fy="513.02" xlink:href="#linearGradient19248" gradientUnits="userSpaceOnUse" cy="556.6" cx="-140.43" gradientTransform="matrix(1 0 0 1.038 -4.8067e-13 -21.137)" r="74.458"></radialGradient><linearGradient id="linearGradient20141" y2="295.53" xlink:href="#linearGradient20135" spreadMethod="reflect" gradientUnits="userSpaceOnUse" x2="313.74" gradientTransform="matrix(.43410 0 0 .99175 204.85 2.1265)" y1="295.53" x1="322.34"></linearGradient><linearGradient id="linearGradient21018" y2="295.53" xlink:href="#linearGradient20135" spreadMethod="reflect" gradientUnits="userSpaceOnUse" x2="320.94" gradientTransform="matrix(.43410 0 0 .99175 204.85 2.1265)" y1="295.53" x1="322.34"></linearGradient><linearGradient id="linearGradient22774" y2="292.58" xlink:href="#linearGradient20135" spreadMethod="reflect" gradientUnits="userSpaceOnUse" x2="8.6883" gradientTransform="matrix(1.0451 0 0 1 -.094278 0)" y1="292.58" x1="2.0891"></linearGradient><linearGradient id="linearGradient22778" y2="292.58" xlink:href="#linearGradient23653" spreadMethod="reflect" gradientUnits="userSpaceOnUse" x2="6.8847" gradientTransform="matrix(1.0451 0 0 1 -.094278 0)" y1="292.58" x1="2.0891"></linearGradient><linearGradient id="linearGradient23689" y2="292.58" xlink:href="#linearGradient20135" spreadMethod="reflect" gradientUnits="userSpaceOnUse" x2="8.6883" gradientTransform="matrix(1.0451 0 0 1 -.094278 5.5581e-14)" y1="292.58" x1="2.0891"></linearGradient><linearGradient id="linearGradient23691" y2="292.58" xlink:href="#linearGradient23653" spreadMethod="reflect" gradientUnits="userSpaceOnUse" x2="6.8847" gradientTransform="matrix(1.0451 0 0 1 -.094278 5.5581e-14)" y1="292.58" x1="2.0891"></linearGradient><linearGradient id="linearGradient24639" y2="300.02" xlink:href="#linearGradient24611" spreadMethod="reflect" gradientUnits="userSpaceOnUse" x2="111.07" gradientTransform="translate(-842.53 140.25)" y1="300.02" x1="104.48"></linearGradient><linearGradient id="linearGradient24641" y2="307.16" xlink:href="#linearGradient20135" spreadMethod="reflect" gradientUnits="userSpaceOnUse" x2="126.3" gradientTransform="translate(-842.53 140.25)" y1="300.02" x1="104.48"></linearGradient></defs><g id="layer1"><g id="g23683" transform="matrix(0 -1 1.077 0 43.07 49.796)"><rect id="rect23685" style="stroke-linejoin:round;fill-rule:evenodd;color:#000000;stroke:#1f501f;stroke-linecap:round;stroke-width:.90526;fill:url(#linearGradient23689)" height="580.78" width="42.729" y="2.1905" x="2.5518"></rect><rect id="rect23687" style="stroke-linejoin:round;fill-rule:evenodd;color:#000000;stroke:#1f501f;stroke-linecap:round;stroke-width:.90526;fill:url(#linearGradient23691)" height="580.78" width="42.729" y="2.1905" x="2.5518"></rect></g><g id="g23673" transform="matrix(0 -1 1.077 0 43.07 583.8)"><rect id="rect23675" style="stroke-linejoin:round;fill-rule:evenodd;color:#000000;stroke:#1f501f;stroke-linecap:round;stroke-width:.90526;fill:url(#linearGradient22774)" height="580.78" width="42.729" y="2.1905" x="2.5518"></rect><rect id="rect23677" style="stroke-linejoin:round;fill-rule:evenodd;color:#000000;stroke:#1f501f;stroke-linecap:round;stroke-width:.90526;fill:url(#linearGradient22778)" height="580.78" width="42.729" y="2.1905" x="2.5518"></rect></g><g id="g23663" transform="translate(664)"><rect id="rect23665" style="stroke-linejoin:round;fill-rule:evenodd;color:#000000;stroke:#1f501f;stroke-linecap:round;stroke-width:.90526;fill:url(#linearGradient22774)" height="580.78" width="42.729" y="2.1905" x="2.5518"></rect><rect id="rect23667" style="stroke-linejoin:round;fill-rule:evenodd;color:#000000;stroke:#1f501f;stroke-linecap:round;stroke-width:.90526;fill:url(#linearGradient22778)" height="580.78" width="42.729" y="2.1905" x="2.5518"></rect></g><g id="g23659"><rect id="rect21893" style="stroke-linejoin:round;fill-rule:evenodd;color:#000000;stroke:#1f501f;stroke-linecap:round;stroke-width:.90526;fill:url(#linearGradient22774)" height="580.78" width="42.729" y="2.1905" x="2.5518"></rect><rect id="rect22776" style="stroke-linejoin:round;fill-rule:evenodd;color:#000000;stroke:#1f501f;stroke-linecap:round;stroke-width:.90526;fill:url(#linearGradient22778)" height="580.78" width="42.729" y="2.1905" x="2.5518"></rect></g><rect id="rect19260" style="stroke-linejoin:round;fill-rule:evenodd;color:#000000;stroke:#1f501f;stroke-linecap:round;stroke-width:1.2106;fill:url(#linearGradient20141)" ry="0" height="521.58" width="25.367" y="34.429" x="344.78"></rect><rect id="rect21016" style="opacity:.49438;stroke-linejoin:round;fill-rule:evenodd;color:#000000;stroke:#1f501f;stroke-linecap:round;stroke-width:1.2106;fill:url(#linearGradient21018)" ry="0" height="521.58" width="25.367" y="34.429" x="344.78"></rect><rect id="rect24580" style="opacity:.33146;fill-rule:evenodd;color:#000000;fill:#00000b" ry="4.3306" height="522.86" width="302.86" y="41.017" x="363.55"></rect><rect id="rect23695" style="opacity:.33146;fill-rule:evenodd;color:#000000;fill:#00000b" ry="4.3306" height="522.86" width="302.86" y="41.017" x="37.554"></rect><rect id="rect14832" style="fill-rule:evenodd;color:#000000;fill:#687a0b" ry="4.3306" height="522.86" width="302.86" y="34.377" x="42.892"></rect><path id="rect14834" style="fill-rule:evenodd;color:#000000;fill:#83a36f" d="m119.66 116.84s10.77 127.29-2.08 149.62-27.413-7.7-31.33 28.99c-3.916 36.68 0 200.31 0 200.31 0 16.04 13.98 28.96 31.33 28.96h156.59c17.35 0 31.31-12.92 31.31-28.96 0 0 3.92-163.63 0-200.31-3.91-36.69-18.72-6.66-31.31-28.99s0-149.62 0-149.62c0-16.05-12.99-22.176-31.33-28.963-18.33-6.788-45.93-25.343-45.93-25.343 1.29-0.598-27.59 17.915-46.44 25.339-19.4 7.636-30.81 13.227-30.81 28.967z"></path><path id="path15714" style="fill-rule:evenodd;color:#000000;fill:#66826f" d="m199.41 77.135c-19.57 12.946-41.68 21.263-62.38 32.005-7.46 6.08-5.41 16.31-4.48 24.58 2.64 44.08 6.58 88.84-0.68 132.63-3.03 12.38-14.88 24.19-28.43 21-5.051-0.12-3.14 6.32-4.534 9.47-3.575 23.18-1.384 46.88-2.313 70.28 0.147 46.19 0.031 92.48 2.531 138.57 4.186 12.52 19.346 17.18 31.536 15.05 51.53-0.5 103.14 1.07 154.62-0.87 11.94-2.95 18.77-16.52 16.36-28.25 0.65-66.1 4.08-132.54-1.02-198.43-0.19-3.56-2.82-7.04-6.75-5.38-10.15 0.84-19.76-5.47-23.25-15.03-7.57-17.26-4.92-36.67-6.08-55-0.06-33.9 4.06-67.75 4.96-101.53-5.13-11.95-19.8-13.71-30.26-18.835-13.41-5.815-25.92-13.452-38.3-21.26l-0.84 0.547-0.69 0.453zm-98.66 211.1c0.04-0.06-0.1-0.03 0 0z"></path><rect id="rect18365" style="fill-rule:evenodd;color:#000000;fill:#687a0b" ry="4.3306" height="522.86" width="302.86" y="33.159" x="368.83"></rect><path id="path18367" style="fill-rule:evenodd;color:#000000;fill:#83a36f" d="m445.6 115.62s10.78 127.3-2.08 149.62c-12.85 22.33-27.41-7.7-31.33 28.99-3.91 36.68 0 200.31 0 200.31 0 16.04 13.98 28.96 31.33 28.96h156.6c17.35 0 31.3-12.92 31.3-28.96 0 0 3.92-163.63 0-200.31-3.91-36.69-18.72-6.66-31.3-28.99-12.59-22.32 0-149.62 0-149.62 0-16.047-13-22.173-31.34-28.961-18.33-6.788-45.93-25.342-45.93-25.342 1.29-0.598-27.58 17.914-46.44 25.338-19.4 7.636-30.81 13.231-30.81 28.965z"></path><path id="path18369" style="fill-rule:evenodd;color:#000000;fill:#66826f" d="m525.35 75.917c-19.57 12.946-41.68 21.263-62.38 32.003-7.46 6.08-5.41 16.31-4.47 24.58 2.64 44.08 6.57 88.84-0.68 132.64-3.04 12.38-14.89 24.18-28.44 21-5.05-0.13-3.14 6.31-4.53 9.46-3.58 23.18-1.39 46.88-2.31 70.29 0.14 46.18 0.03 92.48 2.53 138.56 4.19 12.52 19.35 17.19 31.53 15.05 51.53-0.5 103.14 1.07 154.62-0.86 11.94-2.95 18.77-16.53 16.36-28.25 0.65-66.11 4.08-132.54-1.01-198.44-0.19-3.56-2.82-7.04-6.75-5.38-10.15 0.84-19.77-5.47-23.25-15.03-7.57-17.26-4.93-36.66-6.09-55-0.06-33.9 4.07-67.75 4.96-101.53-5.12-11.94-19.8-13.71-30.26-18.833-13.41-5.815-25.92-13.452-38.3-21.26l-0.84 0.547-0.69 0.453zm-98.66 211.09c0.04-0.06-0.1-0.03 0 0z"></path><path id="path18373" style="fill-rule:evenodd;color:#000000;fill:url(#radialGradient19254)" d="m-65.975 556.6a74.458 77.285 0 1 1 -0.564 -9.49" transform="matrix(.30380 0 0 .29268 348.04 48.739)"></path><path id="path19256" style="fill-rule:evenodd;color:#000000;fill:url(#radialGradient19258)" d="m-65.975 556.6a74.458 77.285 0 1 1 -0.564 -9.49" transform="matrix(.30380 0 0 .29268 448.04 48.739)"></path><g id="g24635" transform="translate(842.75 -144.41)"><path id="path24631" style="fill-rule:evenodd;color:#000000;fill:url(#linearGradient24639)" d="m-645.91 230.98c-17.83 11.56-39.11 17.48-56.41 29.53-1.84 11.73 2.74 23.27 1.58 35.06 2.08 41.06 6.18 83.51-5.79 123.44-5.69 11.03-16.66 19.59-29.16 21-4.58 43.05-0.94 86.39-1.84 129.57 0.29 25.17-0.53 50.95 3.68 75.65 9.07 7.61 21.87 2.68 32.6 3.57 46.74-0.81 93.9 2.77 140.37-2.07 8.03-8.19 2.94-20.85 4.14-31.09 0.52-58.48 4.27-117.55-1.42-175.66-20.46-1.96-33.28-22.92-33.87-42.06-5.13-42.63 0.83-85.45 2.28-128.09-0.68-4.66 1.69-11.33-3.94-13.41-11.51-6.66-25.24-8.6-36.09-16.53-5.41-2.69-10.79-7.06-16.13-8.91z"></path><path id="path24627" style="opacity:.20787;fill-rule:evenodd;color:#000000;fill:url(#linearGradient24641)" d="m-645.91 230.98c-17.83 11.56-39.11 17.48-56.41 29.53-1.84 11.73 2.74 23.27 1.58 35.06 2.08 41.06 6.18 83.51-5.79 123.44-5.69 11.03-16.66 19.59-29.16 21-4.58 43.05-0.94 86.39-1.84 129.57 0.29 25.17-0.53 50.95 3.68 75.65 9.07 7.61 21.87 2.68 32.6 3.57 46.74-0.81 93.9 2.77 140.37-2.07 8.03-8.19 2.94-20.85 4.14-31.09 0.52-58.48 4.27-117.55-1.42-175.66-20.46-1.96-33.28-22.92-33.87-42.06-5.13-42.63 0.83-85.45 2.28-128.09-0.68-4.66 1.69-11.33-3.94-13.41-11.51-6.66-25.24-8.6-36.09-16.53-5.41-2.69-10.79-7.06-16.13-8.91z"></path></g><g id="g24643" transform="translate(1166.8 -144.41)"><path id="path24645" style="color:#000000;fill-rule:evenodd;fill:url(#linearGradient24639)" d="m-645.91 230.98c-17.83 11.56-39.11 17.48-56.41 29.53-1.84 11.73 2.74 23.27 1.58 35.06 2.08 41.06 6.18 83.51-5.79 123.44-5.69 11.03-16.66 19.59-29.16 21-4.58 43.05-0.94 86.39-1.84 129.57 0.29 25.17-0.53 50.95 3.68 75.65 9.07 7.61 21.87 2.68 32.6 3.57 46.74-0.81 93.9 2.77 140.37-2.07 8.03-8.19 2.94-20.85 4.14-31.09 0.52-58.48 4.27-117.55-1.42-175.66-20.46-1.96-33.28-22.92-33.87-42.06-5.13-42.63 0.83-85.45 2.28-128.09-0.68-4.66 1.69-11.33-3.94-13.41-11.51-6.66-25.24-8.6-36.09-16.53-5.41-2.69-10.79-7.06-16.13-8.91z"></path><path id="path24647" style="opacity:.20787;color:#000000;fill-rule:evenodd;fill:url(#linearGradient24641)" d="m-645.91 230.98c-17.83 11.56-39.11 17.48-56.41 29.53-1.84 11.73 2.74 23.27 1.58 35.06 2.08 41.06 6.18 83.51-5.79 123.44-5.69 11.03-16.66 19.59-29.16 21-4.58 43.05-0.94 86.39-1.84 129.57 0.29 25.17-0.53 50.95 3.68 75.65 9.07 7.61 21.87 2.68 32.6 3.57 46.74-0.81 93.9 2.77 140.37-2.07 8.03-8.19 2.94-20.85 4.14-31.09 0.52-58.48 4.27-117.55-1.42-175.66-20.46-1.96-33.28-22.92-33.87-42.06-5.13-42.63 0.83-85.45 2.28-128.09-0.68-4.66 1.69-11.33-3.94-13.41-11.51-6.66-25.24-8.6-36.09-16.53-5.41-2.69-10.79-7.06-16.13-8.91z"></path></g></g><metadata></metadata></svg> 