<?xml version="1.0" encoding="UTF-8" standalone="no"?> <!-- Created with Inkscape (http://www.inkscape.org/) --> <svg xmlns:inkscape="http://www.inkscape.org/namespaces/inkscape" xmlns:rdf="http://www.w3.org/1999/02/22-rdf-syntax-ns#" xmlns="http://www.w3.org/2000/svg" xmlns:cc="http://creativecommons.org/ns#" xmlns:dc="http://purl.org/dc/elements/1.1/" xmlns:sodipodi="http://sodipodi.sourceforge.net/DTD/sodipodi-0.dtd" id="svg2" sodipodi:docname="_svgclean2.svg" viewBox="0 0 355.02 449.21" sodipodi:version="0.32" inkscape:version="0.48.3.1 r9886"><g id="layer1" inkscape:label="Calque 1" inkscape:groupmode="layer" transform="translate(-9.0124 -23.337)"><g id="g4026" style="stroke:#000000;fill-opacity:.41779;fill:#000000" transform="matrix(.94056 .16672 -.15449 .96549 238.34 -250.08)"><path id="path4028" style="fill-opacity:.41779;fill:#000000" d="m129.5 251.97c-35.971 0.87-64.719 19.83-64.719 41.03 0 15.62 12.696 29.09 33.657 35.44 5.832 11.31 19.392 24.29 18.592 35.53-73.65 2.05-155.4 77.47-155.4 172.91-0.005 95.43 77.462 172.87 172.9 172.87 95.44 0 172.88-77.44 172.88-172.87 0-56.6-27.35-102.91-62.22-134.48 0.19-0.18 0.36-0.37 0.53-0.57l5.25-6.22 1.37 1.1c2.04 1.66 4.79 1.62 6.22-0.06l3.6-4.22c1.42-1.69 0.94-4.37-1.1-6.03l-17.19-14.04c-0.09-0.07-0.18-0.14-0.28-0.21-2-1.44-4.61-1.36-5.97 0.25l-3.59 4.25c-1.43 1.68-0.94 4.36 1.09 6.03l1.85 1.5-5.28 6.22c-0.42 0.48 2.11 3.26-0.94 1.56-23.8-15.42-55.77-27.94-82.75-28.74-1.5-8.54 10.42-23.09 15.47-36 18.87-6.76 35.97-19.56 35.97-34.22 0-21.71-30.15-41.03-67.32-41.03-0.58 0-1.17-0.01-1.74 0h-0.88zm0.78 10.59c0.22 0 0.46 0.01 0.69 0h1.72c29.43 0 53.31 13.52 53.31 30.16 0 9.24-9.16 20.17-19.83 25.55-2.15-3.7-10.25-9.2-18.71-11.67-14.14 1.32-22.94 0.59-36.34-0.54-8.93 2.71-13.264 6.23-14.714 10.25-10.856-5.52-17.062-14.04-17.062-23.59 0-16.19 22.606-29.45 50.936-30.16zm-19.16 43.5 38.04 1.1c18.08-26.79-10.81-27.06-15.6-26.35-4.27-0.95-39.831-3.85-22.44 25.25z" sodipodi:nodetypes="csccsssccccccccsccccccccssssccssssccccsccccc" inkscape:connector-curvature="0" transform="translate(-84.007,26.897)"></path></g><path id="rect5779" style="stroke-linejoin:round;stroke:#221d1d;stroke-width:.91592;stroke-linecap:round;fill:#5e62c6" inkscape:connector-curvature="0" d="m319.78 162.83c-1.74-1.7-4.32-2.05-5.91-0.74l-4.21 3.46c-1.67 1.38-1.62 4.04 0.11 5.97l1.56 1.73-6.17 5.08c-2.39 1.96-2.64 5.41-0.55 7.73l4.39 4.9c2.09 2.32 5.69 2.6 8.07 0.64l6.17-5.08 1.15 1.28c1.74 1.93 4.45 2.35 6.13 0.97l4.2-3.46c1.67-1.38 1.64-4.01-0.09-5.94l-14.62-16.28c-0.08-0.09-0.15-0.18-0.23-0.26z"></path><path id="path3133" style="stroke-linejoin:round;stroke:#000000;stroke-width:1.2786;stroke-linecap:round;fill:#7974a8" inkscape:connector-curvature="0" d="m223.05 93.392c-3.85 5.313-2.26 12.238 5.61 10.728 18.88 1.93 40.63-0.32 54.32-14.377 8.55-8.578 9.53-22.628 2.7-32.594-12.64-19.303-36.19-28.938-58.55-32.232-21-2.647-44.79-0.235-61.03 14.083-10 8.484-11.18 23.848-4.07 34.553 10.69 16.697 30.98 24.549 49.99 27.857 10.08-1.36 1.98-12.134-5.16-10.532-14.58-3.804-30.88-12.156-34.59-27.725-2.76-11.098 6.27-20.848 16.33-24.364 21.28-7.957 45.95-4.751 66.16 5.103 10.77 5.604 22.64 14.91 22.24 27.965-1.26 13.572-15.74 20.458-28.13 22.096-8.54 1.271-17.3 0.864-25.82-0.561z"></path><path id="path2257" inkscape:connector-curvature="0" sodipodi:nodetypes="csccccsscc" style="stroke-linejoin:round;stroke:#000000;stroke-width:1.2786;stroke-linecap:round;fill:#6b63c3" d="m230.69 83.608c30.11-27.849-14.45-28.829-8.84-27.771 5.62 1.059-42.44-13.118-20.7 22.839 12.96 3.293 16 3.954 30.09 5.025 39.11 18.649-8.56 39.229-8.41 53.199 78.21 15.52 143.84 101.2 128.45 192.54-15.38 91.34-103.88 152.68-197.53 136.9-93.659-15.77-157.19-102.7-141.8-194.05 15.381-91.34 107.78-150 180.38-139.78 4.69-19.21-30.01-48.951 9.37-53.74"></path><path id="path7568" sodipodi:rx="159.1651" sodipodi:ry="159.1651" style="stroke-linejoin:round;fill-opacity:.35310;stroke:#686871;stroke-linecap:round;stroke-width:1.301;fill:#e7e9e7" sodipodi:type="arc" d="m509.33 562.38c0 87.904-71.261 159.17-159.17 159.17-87.904 0-159.17-71.261-159.17-159.17 0-87.904 71.261-159.17 159.17-159.17 87.904 0 159.17 71.261 159.17 159.17z" transform="matrix(1.0254 .17391 -.16843 1.0071 -82.227 -326.09)" sodipodi:cy="562.38336" sodipodi:cx="350.16321"></path><path id="path1382" style="opacity:.97147;stroke-linejoin:round;stroke:#686871;stroke-linecap:round;stroke-width:3.501;fill:#e7e9e7" inkscape:connector-curvature="0" d="m331.14 354.1c-28.86 80.24-119.06 121.34-201.33 91.74-82.272-29.6-125.61-118.74-96.747-198.98 28.867-80.24 119.07-121.33 201.34-91.73 82.27 29.59 125.61 118.74 96.74 198.97m-170.36 73.64-4.38 24.29m-103.65-175.53-24.738-4.47m309.46 55.84-24.74-4.47m-181.19-169.05 8.35 23.22m87.73 244.03 8.34 23.22m-177.52-100.19-23.656 8.51m293.66-104.81-23.66 8.51m-240.7-58.4 18.839 15.94m200.72 170.61 18.84 15.94m-203.9-1.32-16.234 19.2m198.97-235.55-16.23 19.19m-59.86-53.95-4.38 24.28"></path><path id="path13754" style="opacity:.625;stroke-linejoin:round;stroke-opacity:.61456;fill-opacity:.61590;stroke-dashoffset:2.4507;stroke:#4f4c4c;stroke-linecap:round;stroke-width:3.501;fill:#c3c0c0" inkscape:connector-curvature="0" d="m216.83 399.08c-4.63 27.75-30.91 46.52-58.66 41.89-27.76-4.64-46.52-30.92-41.89-58.67 4.63-27.76 30.92-46.52 58.67-41.89s46.52 30.92 41.88 58.67zm-42.84-58.83-2.46 14.73m44.24 44.58-14.73-2.46m-42.45 43.28 2.46-14.73m-44.13-41.27 14.73 2.46m15.99-43.48 5.96 13.69m59.24 14.25-13.69 5.96m-12.03 59.42-5.96-13.7m-59.49-10.57 13.7-5.96m-8.49-45.47 12.46 8.24m57.54-19.19-8.23 12.46m16.5 59.36-12.45-8.24m-55.97 17.56 8.23-12.46"></path><path id="path17471" style="opacity:.625;stroke-linejoin:round;stroke-opacity:.98383;fill-opacity:.61590;stroke-dashoffset:2.4507;stroke:#241f1f;stroke-linecap:round;stroke-width:5.322;fill:#c3c0c0" inkscape:connector-curvature="0" d="m174.67 394.26c0 4.66-3.78 8.44-8.44 8.44s-8.44-3.78-8.44-8.44 3.78-8.44 8.44-8.44 8.44 3.78 8.44 8.44zm-9.09-8.44-1.3-35.72"></path><path id="path18352" style="opacity:.83832;stroke-linejoin:round;stroke-opacity:.99730;stroke-dashoffset:2.4507;stroke:#060505;stroke-linecap:round;stroke-width:7.322;fill:none" inkscape:connector-curvature="0" d="m195.58 292.15c5.65 7.86 3.87 18.82-3.99 24.47-7.85 5.66-18.81 3.88-24.47-3.98-5.65-7.85-3.87-18.81 3.98-24.47 7.86-5.66 18.82-3.87 24.48 3.98zm-24.48-3.98-75.89-105.39"></path></g><metadata id="metadata15"></metadata></svg> 