<?xml version="1.0" encoding="UTF-8" standalone="no"?> <!-- Created with Inkscape (http://www.inkscape.org/) --> <svg xmlns:rdf="http://www.w3.org/1999/02/22-rdf-syntax-ns#" xmlns="http://www.w3.org/2000/svg" xmlns:cc="http://web.resource.org/cc/" xmlns:dc="http://purl.org/dc/elements/1.1/" xmlns:svg="http://www.w3.org/2000/svg" xmlns:inkscape="http://www.inkscape.org/namespaces/inkscape" xmlns:sodipodi="http://sodipodi.sourceforge.net/DTD/sodipodi-0.dtd" xmlns:ns1="http://sozi.baierouge.fr" xmlns:xlink="http://www.w3.org/1999/xlink" id="svg2" viewBox="0 0 204.64 313.21" inkscape:version="0.91 r13725"><g id="layer1" transform="translate(11.248 14.6)"><path id="path1922" style="fill:black" d="m29.994 255.73c-0.577-2.35 1.07-3.83 0.806-0.45 0.013 2.25-0.86 5.09-0.806 0.45zm13.677-2.71c-1.432-4.37 1.359-11.64-1.473-14.31-2.93 3.66-1.528-5.84-1.217-6.41 3.291-1.08 9.294 4.23 9.797-0.94 4.945-0.78 10.004 0.33 14.986 0.44 2.657-0.49 7.133 2.85 2.084 2.47-6.665 0.26-13.884-1.98-20.01 1.69-4.441 0.84-1.282 6.54-1.809 9.64 0.267 3.74 0.443 7.51-0.003 11.25-1.416 2.25-2.155-3.08-2.355-3.83zm2.286-19.31c-2.345-0.74-3.437 3.35-0.699 1.13 0.258-0.21 1.072-0.62 0.699-1.13zm-10.396 17.51c0.654-4.81 0.09-9.93 1.714-14.52 1.717 3.29 0.067 8.04 0.378 11.88 0.426 1.12-1.55 5.7-2.092 2.64zm-7.159-11.13c-0.392-13.73 0.407-27.56-0.835-41.23-0.989-1.31-6.996-4.61-2.832-4.78 5.041 4.57 5.075-5.96 1.819-7.27-0.821 1.04-4.628 3.43-3.444 0.45 2.315-1.96 5.54-2.05 5.736-5.91 2.293-1.74 2.937 2.82 1.456 4.14 3.399 4.78-1.304 11.35 0.588 16.83 0.187 0.87 1.736 4.24-0.276 2.24-1.158 6.12 0.684 12.45-0.938 18.52-2.87 2.75 4.375-0.34 1.467 2.72-3.016 3.96 1.635 8.74-1.02 12.34-0.955 3.17 1.235 9.61-0.985 10.76-0.943-2.84-0.532-5.88-0.736-8.81zm17.02-11.05c1.394-3.68 3.085-9.85 2.829-12.28 0.911 4.59 0.258 9.83-2.527 13.62-0.402-0.33-0.229-0.9-0.302-1.34zm19.143 0.9c2.243-4.08 2.834 2.69 0 0zm6.012-1.4c-2.748-0.5-1.727-0.72 0.505-1.33 1.884-0.47 8.245-0.96 6.94 0.08-2.377 0.52-5.074 2.81-7.445 1.25zm44.493 0.2c2.25-4.08 2.84 2.69 0 0zm-22.847-1.67c0.27-3.47 5.563-1.17 1.298 0.5-0.69 1.1-1.508 0.65-1.298-0.5zm-50.506-1.41c1.141-5.27 3.958 4.24 0.169 0.93l-0.169-0.93zm-5.918-1.1c0.252-4.22 1.525 2.66 0.034 0.34l-0.025-0.24-0.009-0.1zm37.183-0.77c1.587-0.32 6.475-2.08 5.594-1.59-1.003 1.47-4.542 4.69-5.594 1.59zm-31.171-2.84c0.253-4.21 1.526 2.67 0.035 0.35l-0.025-0.25-0.01-0.1zm70.769-1.02c-1.76-2.25 0.55-8.16 1.17-8-0.16 3.16 1.7 8.45 0.08 10.33-0.63-0.66-0.78-1.58-1.25-2.33zm18.08-7.48c-2.92-4.48-8.09-6.91-13.32-7.2-3.23-0.21-6.33-4.77-8.08-4.87-0.67 2.69 4.6 8.51 2.26 8.79-2.81-4.15-4.12-9.51-8.68-12.23-4.372-2.83-5.408-9.94-10.924-10.63-4.556 0.3-9.074 1.69-13.643 0.47-6.501-1.32-13.188-1.75-19.744-0.55-3.63 0.6-7.241 1.68-10.359 3.68-1.368 1.17-0.185 6.87-1.81 2.52-2.341-2.24-1.514 7.21-3.926 1.97-3.124-2.52-3.336-8.08 1.631-8.15 5.263-1.86-0.751-7.45-1.99-8.64 1.298-0.65 4.358-1.03 1.518-2.24 3.561-3.46 4.738 4.96 4.085 7.46 2.835 2.26 6.495-2.16 9.948 0.3 5.029 0.79-5.028-6.45 1.511-5.7 0.377 6.56 7.871 3.98 12.172 5.32 1.589 0.05 7.554-0.46 4.784 2.32 2.666-0.71 6.135-0.8 7.079 1.15 4.674-1.49 9.784-2.56 14.293-0.09 1.802 3.42 4.525 7.18 8.215 9.41 4.47 2.87 9.03 5.75 13.9 7.88 5.37 1.04 8.9 5.17 12.49 8.9 1.66 1.14 4.64 7.1 1.23 3.28-0.94-1-1.77-2.09-2.64-3.15zm-87.594-21.87c-3.299-4.04 1.127 6.96 0.426 0.83l-0.426-0.83zm11.878-5.65c-4.202-0.84-8.697 1.93-10.999 5.22 3.703-1.62 7.281-3.6 10.999-5.22zm-22.906 27.24c-1.069-2.16 0.89-5.93 1.08-1.65 0.469 1.81-0.794 7.61-0.977 2.52-0.035-0.29-0.069-0.58-0.103-0.87zm14.489-1.62c0.232-3.81-6.712-10.39 1.098-10.41 9.415-0.77 18.889-0.38 28.298-1.34 3.214-0.35 9.118 0.24 3.03 1-4.337 0.73-8.94 0.47-13.037 2.24-1.531 1.45 2.315 5.03-0.843 2.39-1.465-6.29-8.631-1.93-12.812-1.5-3.793 0.32-6.204 1.72-4.724 5.74 0.608 2.23-0.547 8.31-0.969 2.81l-0.041-0.93zm3.006-8.34c3.759-3.08-8.035 1.9-1.621 0.63 0.549-0.18 1.089-0.4 1.621-0.63zm-7.722 9.12c0.253-4.21 1.526 2.67 0.035 0.35l-0.025-0.25-0.01-0.1zm13.976-2.78c-0.312-1.82 1.858-6.88 1.555-2.13 1.176 2.27-2.162 8.63-1.684 3.09l0.129-0.96zm-16.803-3.06c-0.325-2.41 1.72-7.64 1.483-2.21 0.792 1.93-1.192 9.23-1.61 4.36 0.003-0.72 0.074-1.43 0.127-2.15zm-3.262 2.04c-0.716-1.88 3.013-6.92 1.653-2.31-0.005 0.94-1.777 6.6-1.653 2.31zm-13.301-8.15c2.341-1.78 6.382 2.63 1.489 1.15-0.465-0.06-2.083-0.28-1.489-1.15zm13.378-0.07c0.252-4.22 1.525 2.66 0.034 0.34l-0.025-0.25-0.009-0.09zm16.74-2.05c-1.87-0.28-5.739-0.95-1.746-0.84 4.522 0.97 6.513-3.22 5.644-7.04 2.571 1.37 1.726 8.68-2.339 8.32l-0.74-0.14-0.819-0.3zm97.551-50.9zm-113.3 41.72c0.418-4.65-1.595-11 0.694-14.62 1.904 1.3 3.553-2.32 2.909 0.91-1.145 0.96-2.785 2.56-0.259 2.94-3.831 3.5-1.27 9.14-2.529 13.49-0.921 0.7-0.68-2.14-0.815-2.72zm57.168-4.45c-4.134-2.34-7.123-7.57-10.94-9.32-0.282 1.45 1.603 6.25-0.16 2.24-2.05-5.78-6.163-10.83-11.864-13.27-4.496-1.96-9.475-2.3-14.317-2.42-3.46 3.75-0.207 9.33-0.694 13.83-0.771 5.42-4.923 0.9-4.582-2.31-2.202-1.02-1.996-0.28 0.054-1.49 4.707-3.85-6.217-5.86-4.944-0.28-4.146 3.28-0.542-9.06 0.212-5.98-0.96 3.87 11.126 1.03 5.652-2.86-3.649-1.44-10.449 4.81-10.301-2.01-1.394-4.4 2.359-5.38 5.622-5.65 1.547-1.19 8.105-3.37 3.738-0.73-1.866 0.28-8.477 4.92-3.398 3.53 1.732-2.03 8.007-1.7 4.082 1.26-3.522 2.83 5.949 0.91 7.881 1.5 4.559 0.45-0.676-4.06 3.359-3.77 3.356 1.54 6.152 4.65 10.606 3.32 5.182-0.49 9.55 2.86 14.251 4.48 7.443 3.4 15.363 5.51 23.383 7.03 2.53 0.51 3.93 1.29 0.62 1.05-5.43-0.19-10.73-1.65-16.041-2.63-2.056-0.72-9.435-4.34-5.603-0.11 3.061 4.67 8.719 5.65 12.824 8.91 3.35 2.41 8.38 3.99 11.73 0.83 3.52-0.66 7.01 1.05 10.52 1.35-0.3 0.86-9.04-0.66-9.28 1.44-0.14 3.1-6.25 0.46-8.56 2.33-3.2 1.12-0.75-3.68-3.61-1.09-3.15 1.9-6.917 3-10.24 0.82zm10.01-2.38c-0.99-5.68-8.501-4.55-11.847-8.1-3.908-3.63-6.234-9.09-11.2-11.47-3.251-1.17-7.52-1.34-10.544-1.26 9.074 6.13 15.735 15.1 24.39 21.69 2.971 1.39 6.321 0.16 9.201-0.86zm-49.502-7.57c-3.777-1.2 0.871 6.08 0.365 0.96-0.052-0.35-0.138-0.68-0.365-0.96zm-14.967 8.09c0.316-4.33 1.195 1.54 0.286 1.47l-0.133-0.55-0.153-0.92zm80.079 1.61c2.99-1.09 3.43 1.36 0.18 0.6-0.25 0.04-0.95-0.63-0.18-0.6zm-91.802-8.51c1.039-2.55-1.204-6.12-1.451-1.76-2.477 2.97-5.918-0.14-1.848-2.22 1.167-2.38 5.163-3.82 6.21-3.3-0.728-7.03 0.556-14.06 0.84-21.07 0.269-4.41 0.673-9.85-2.877-13.09-2.368-1.67-7.896-3.19-4.431-5.85-0.391-1.67-3.195-5.86-0.532-2.41 2.16 3.96 7.967 3.97 9.508 8.07-0.55 2.36 3.894 3.56 2.746 3.48-4.259 3.04-1.655 9.2-2.786 13.61-0.374 7.9-1.2 15.78-2.658 23.55 0.575 1.42 2.246 3.75-0.609 2.69-2.568 3.1-2.539 1.71-2.112-1.7zm32.966-2.42c-1.752-4.03 2.715-4.51 1.883-0.31-0.369 2.72-1.662 4.37-1.883 0.31zm-24.339-2.54c-2.12-4.03 3.994-1.21 0.855 0.92-0.425-0.17-0.592-0.58-0.855-0.92zm2.906-1.3c-2.616-4.51-0.369-10.17-2.644-14.52-2.122-2.35-3.521-8.58-0.123-9.42-0.989 3.54-1.075 6.52 1.84 8.84 1.048 4.71 1.116 9.6 1.825 14.38 0.454 2.36-0.956 3.67-0.898 0.72zm16.836-2.47c-0.508-5.89 3.859 3.61 0.334 1.73-0.261-0.54-0.314-1.15-0.334-1.73zm-21.789-2.67c0.438-5.83 2.749 2.42-0.114 2.6-0.293-0.85 0.031-1.74 0.114-2.6zm0.333-6.95c0.316-4.33 1.195 1.53 0.285 1.46l-0.132-0.54-0.153-0.92zm20.253 0c0.802-4.9 6.632-5.01 10.473-5.66 1.743-0.67 7.308-3.11 6.892-0.7-4.22 1.58-9.038 2.15-12.04 5.49-2.786-1.33-3.993 4.31-5.325 0.87zm-11.581-9.32c-1.403-2.46 0.986-8.64-1.94-8.93 0.708 3.6-3.547 2.47-1.419-0.12 2.656-0.9 4.267-2.21 3.52-5.07 0.721-2.78 4.534-7.06 6.449-6.54-1.415 2.22-7.034 7.67-0.843 7.15 4.077 1.32 6.905-5.32 6.671-6.07-0.561 4.02 1.023 8.48 5.662 7.87 1.8 1.66-2.076 5.07-0.946 1.35-5.38 1.26-2.675 8.69-4.002 12.62 3.557-1.09 7.496-2.44 11.532-2.82 6.547-1.31 13.336-2.02 19.574-4.45 0.941-1 2.966-1.57 1.546 0.53 2.506-1.76 4.999-2.81 7.962-1.98 0.217-2.88 1.905-4.89 4.861-2.85 4.62 3.27-4.99-1.07-2.492 2.39-4.393 3.4-9.963 4.63-15.044 6.6-5.205 0.49-9.893 1.96-14.879 0.83-4.831 0.3-9.121 3.1-13.805 3.47-2.016-1.81 0.602-7.17-4.327-6.14-2.259 0.56-6.466-2.22-2.003-1.19 5.878 1.84 4.375-5.97 1.74-8.34-5.892-3.29-6.755 5.33-6.093 9.3-0.266 2.27 0.781 6.04-0.665 7.46-0.569-1.62-0.721-3.39-1.059-5.07zm40.668-2.33c-3.505-1.21-1.172 2.31 0.507 0.32l-0.191-0.27-0.316-0.05zm-28.395-8.5c-3.393-0.4-0.233 7.18 0.002 6.68 0.091-2.21 0.877-4.55-0.002-6.68zm48.614 7.97c8.24-0.87 16.59-1.53 24.84-0.47-4.37 1.57-9.2 0.36-13.76 0.83-6.3 0.11-12.6 0.43-18.898 0.79 2.605-0.38 5.208-0.77 7.818-1.15zm39.08-1.92c2.1-1.29 7.86-0.77 7.71-2.56-4.57-0.86-8.53-2.73-10.51-7.11-4.17-3.45-8.93-6.43-14.28-7.56-14.25-3.78-29.053-4.57-43.669-5.81-2.391-0.13-4.89-1.15-1.201-1.67 6.266-0.53 13.031-1.3 18.9 1.53 4.94 2.1 11.38-2.01 16 0.34-0.28 4.86 4.63-3.6 4.31 1.62 2.28 1.76 6.39 1.37 9.41 2.21 5.16 0.7 9.97 3.49 15.32 2.59 3.04 0.29 9.38-1.81 10.62 0.85-3.47 1.66-10.88-1.4-12.14 1.95 5.72 1.55 10.86 4.71 15.81 7.87-2.2 0.31-6.71-2.96-9.8-4-4.08-1.78-8.23-3.37-12.38-4.97 2.72 3.77 8.6 6.4 11.65 7.76-1.84-0.39-5.33 0.18-1.71 1.49 2.6 1.29 9.39 0.5 6.39 4.19 1.4 0.98 2.9-0.02 0.44 1.18-3.19 0.8-8.91 0.59-10.87 0.1zm-76.36-2.7c0.737-2.63-6.435-1.32-2.057-3.76 3.651-1.56 5.382 7.96 2.141 4.68-0.028-0.31-0.056-0.61-0.084-0.92zm37.28-2.44c-1.31-2.48 5.18-0.72 6.03-3.49 1.52-1.55 4.92-2.59 1.79 0.1-2.05 1.79-4.79 6.3-7.82 3.39zm-69.345-3.21c-2.058-4.68-3.894-9.56-3.549-14.75-0.481-5.98-2.351-13.13-8.492-15.61-3.576-2.99 0.925-3.816 2.753-1.26 2.021 1.57 6.187 5.25 6.421 1.12 4.177-3.857-6.393 0.02-3.51-5.049 1.777-5.601 7.962-2.814 6.168 2.259 0.193 1.66 4.044 2.04 1.092 3.36-3.478-0.92-5.148 4.58-1.25 4.24-2.182 1.25-3.714 6.46-1.502 7.28 0.241-2.52 2.811-4.83 2.003-0.76-1.908 4.8-2.491 10.31-0.228 15.2 0.625 2.82 3.75 4.08 3.881 0.7 4.355-0.16-1.598 6.62-4.004 3.63l0.217-0.36zm-2.809-35.344c-2.007-2.448-2.768 3.654-0.095 0.494 0.032-0.165 0.064-0.33 0.095-0.494zm19.241 29.124c1.316-4.95-8.41-7.65-6.036-1.08-0.21 3.24-3.45 3.43-2.723-0.04 0.61-4.32 1.793-10.81-4.323-11.07-1.746-1.39 0.521-5.47 1.198-1.97 5.793 1.85 0.756-6.31 1.395-8.97 2.869-2.4 4.313-5.609 3.534-9.428-1.805-3.105 1.072-6.613 0.744-8.336-2.288-1.269-1.059-8.545 0.161-3.403 2.357 3.562 3.385-6.402 0.262-6.027-1.772 4.054-2.524-1.577-0.075-2.816 2.961-4.543-3.611 2.573-3.637-1.396 2.144 0.129 2.732-6.96 4.319-2.525 2.569 5.312 7.252-1.625 9.75-3.613 3.647-1.657 2.578-8.51-1.157-8.68-4.441 2.271-8.11 6.074-11.199 9.972-0.992 2.204-4.148 4.081-2.181 0.319 1.889-2.891 0.965-3.598-0.921-1.539-1.895-1.716 1.073-5.342-1.946-3.051-4.287-1.395-3.27-6.727-1.78-9.418-0.899 0.974-3.061 2.367-2.855-0.098 1.794 3.939-6.897 0.709-3.434 4.965 0.804 2.665 5.64-1.829 4.038 2.919-0.924 2.873 1.709 3.117 1.965 2.46-0.745 2.016-1.006 6.157 2.349 4.707 3.333 3.995 0.876 8.466-1.626 11.773-1.995 3.576-3.063 8.457-0.624 11.463-4.104 1.943-3.013-4.719-7.419-2.917-2.055 0.767-9.188 0.047-3.616-1.007 3.586-0.689 10.669-3.076 9.196-7.542-2.128 0.168-4.822-0.867-1.282-1.763 4.661-2.657 0.968-9.024 0.436-13.103-0.087-1.825-2.059-4.256-2.158-0.919-4.082 2.05 3.934 1.473 0.046 3.064-1.405 2.539 4.832 8.198 2.174 8.184-2.751-6.177-4.274 4.691-6.415 6.646-0.947 1.84-5.148 4.205-2.049 1.018 1.508-4.021 4.602-8.344 4.295-12.51-1.676-0.542-2.361 2.095-4.63 1.002-1.324 0.548-2.833 3.523 0.053 2.022 4.874-0.316-2.911 3.958-2.922-0.206-0.652-2.948-1.232-7.489 2.226-8.428-0.091-2.741-5.552-1.016-1.801-3.931 1.85-1.047 2.151-2.851-0.325-1.702-1.459-3.129-1.298-9.921 0.356-11.146 3.67 4.249 2.271-4.163 0.033-5.438-0.955-2.869 1.953-5.419 0.041-8.639-0.422-2.544-2.147-6.835-0.638-8.521 0.366 2.314 1.111 3.448 1.734 0.391 2.114-3.631 2.684 2.197 0.78 3.371-0.14 3.562-0.465 8.926 3.301 9.667-4.781 3.362 2.521 11.673 5.926 6.279-3.677-4.828 6.143-2.275 3.475 1.621-0.761 1.661-1.44 6.121 0.513 2.297 1.855-1.491 5.28-8.564 2.058-7.699-0.351 3.389-6.347-0.249-8.106-1.605-3.642-4.056-2.307-10.561 0.63-14.665 3.354-4.624 3.922-11.532 9.524-14.36 3.95-1.507 11.14 6.785 4.87 7.243-1.704 1.313-3.15 2.734-3.368-0.67 0.663-2.328 4.406-4.857 0.051-5.549-4.774 0.634-6.653 6.203-7.203 10.372-0.568 4.001 4.259 4.136 2.229-0.155 1.564 1.924 2.947 6.607 4.657 1.795 2.877-4.584 1.993 2.73 5.233 3.073 4.491 1.619 7.253 5.223 9.568 9.171 2.327 2.284 3.996 5.02 0.584 7.035 0.977 1.659 5.06 0.831 1.288 2.619-1.176 2.425 3.253 3.202 5.562 2.931-0.677 1.513-6.857 7.158-4.658 2.253-1.854 0.971-2.982 4.426-5.593 3.292 2.78 5.78 8.258-0.571 11.071-2.562 2.539-0.649 6.222-0.312 2.653 2.025-2.088 1.135-4.311 7.431-0.979 4.922 1.894 1.785 5.17 6.806 4.444 7.715-4.061-1.208-2.647 4.17 0.6 3.577 4.027 1.779 12.52-0.801 14.139 2.533-4.108 0.972-8.622-1.119-12.529 0.858 0.517 0.997 3.181 3.129-0.082 1.855-4.207-2.172-7.484-5.833-5.771-10.865-0.112-2.162-1.807-3.857-1.413-0.83-1.223 1.642-2.519 3.714-1.533 3.439-2.181 1.187-2.927 6.912-3.048 6.846 2.998-3.473 6.265 0.989 4.62 4.153 3.661 2.135-2.694 5.108 1.662 6.546 1.85 0.527 4.79 2.015 1.056 1.903-3.83-0.438-3.31 1.031-1.564 2.31-5.177 0.471-10.59 0.447-15.327 2.973-4.353 1.045-8.699 4.249-7.753 9.373 1.528 4.9 7.932 8.43 6.364 14.16-2.485 2.71-7.897-8.25-6.901-2.21 0.157 2.71 2.564 8.12 4.92 7.23 1.737-5.46 7.796-0.78 11.754-2.72 6.052-0.89 12.298-1.92 17.847-4.51 6.309-4.55 14.076-6.2 21.299-8.68 2.23 0.18 4.66 2.22 1.02 2.33-5.552 1.51-11.463 2.05-16.593 4.84 1.676-0.8 6.417-0.53 2.309 0.85-4.939 2.13-10.257 3.12-15.304 4.94 5.42 1-2.515 2.11-4.194 2.52-3.038 0.12-8.429 3.18-10.031 1.54 0.956-1.45 7.713-1.63 2.832-2.26-2.954-0.43-5.217 2.45-6.307 3.91-0.926-2.07-2.698-4.04-2.238-0.35 0.714 1.65 2.763 8.35-0.517 6.07-0.29-0.77-0.34-1.6-0.36-2.42zm16.512-8.24c-1.832-1.15-5.253 0.97-1.48 0.6 0.351 0.02 3.227-0.09 1.48-0.6zm-18.907-8.77c-1.339-1.89-6.177-7.01-6.721-4.86 2.785 2.95 6.603 8.77 8.626 9.98 0.474-1.91-1.064-3.56-1.905-5.12zm12.015-24.236c2.839 0.27 6.281-3.818 2.87-5.639 1.259 4.46-3.814 1.615-4.784-0.555-2.94-1.601-9.603-7.287-9.508-0.948-0.239 3.035-4.118 8.938 1.456 7.892 3.298 0.14 6.844 0.252 9.966-0.75zm-1.97-11.257c0.346-4.854-3.554 3.55-0.392 0.872l0.392-0.872zm-3.565-2.004c-3.608-3.961-2.999 4.084 0 0zm10.113-10.053c-2.935 0.853-1.163 4.658 0.082 0.79l0.062-0.405-0.144-0.385zm-1.572-4.177c1.781-1.009 3.774-5.093 0.385-2.686-1.882 0.738-7.744 5.258-3.906 5.779 1.342-0.823 2.415-1.992 3.521-3.093zm-23.091 0.401c1.765-2.789 2.421-5.909 3.738-9.479 2.275 0.454 4.126 3.637 7.043 1.33 1.693-1.239 5.584 1.192 2.113-0.631-1.823-3.853 4.311-0.449 4.363-0.804-1.063-1.86-1.425-5.824-4.545-3.025-3.137 3.805-11.377-0.56-12.397 5.849-0.71 2.159-5.227 8.991-0.384 7.878l0.187-0.538-0.118-0.58zm8.761-4.009c4.339-3.65-8.898-0.399-2.461 2.056 0.308-1.085 1.26-2.091 2.461-2.056zm-18.439-0.796c-2.987-1.09-3.427 1.359-0.177 0.596 0.252 0.04 0.948-0.625 0.177-0.596zm-1.503-3.413c-1.604-3.167-4.624-0.478-1.25 1.136 1.364 1.115 2.943 0.676 1.25-1.136zm15.633-4.209c2.807-0.787-2.885-2.083 1.206-2.541 2.811-0.074 4.19-6.496 0.35-4.097 3.853 3.014-8.298 4.705-3.604 7.688 0.761-0.183 1.379-0.677 2.048-1.05zm13.886-5.755c-1.895 0.473-7.777 0.723-6.775 1.934 2.211 0.747 5.744 0.503 6.775-1.934zm-21.101 0.482c-1.512-1.674-5.703-4.199-6.263-4.35 1.49 1.395 4.198 5.897 6.263 4.35zm6.055-1.863c-1.518-1.131-1.325-4.398 1.102-2.94-0.537-1.586-4.9-4.474-2.566-1.006-2.411 0.021-0.903-7.345-3.343-3.003-0.06 3.525 2.163 7.503 5.601 8.654l-0.365-0.867-0.429-0.838zm10.211-1.049c-2.345-0.742-3.437 3.343-0.699 1.122 0.258-0.207 1.072-0.618 0.699-1.122zm-6.646-5.644c-1.353-5.019-2.319 3.795-0.054 0.849l0.054-0.849zm-11.347 93.552c-1.116-4.65 3.799 4.88 0 0zm0.166-16.75c1.129-3.15 0.94-10.276 1.446-11.154 1.497 2.944 2.009 10.304-1.446 11.154zm50.865-2.16c0.469-2.01 7.082-3.53 2.888-0.96-0.925 0.37-1.802 1.3-2.888 0.96zm-47.801-10.902c-2.923-2.106-0.084-4.179 1.553-1.33 3.098 3.259 0.621 3.948-1.553 1.33zm41.184-2.736c-2.671-0.85-11.449-2.826-6.238-6.269 2.091-1.414 3.77 2.142 0.785 1.204-1.695 2.273 4.305 1.295 5.211 0.709 5.005-0.144 10.944 7.274 14.791 3.156 1.99-2.118 7.455 0.941 2.454 0.751-2.218 2.77-4.784 4.876-8.489 2.856-2.896-0.58-5.717-1.47-8.514-2.407zm6.617-0.012c-1.426-2.014-7.835-4.329-7.294-2.443 2.066 0.921 5.057 4.042 7.294 2.443zm-48.574-8.178c-2.403-2.349 1.855-3.858 1.344-0.503 0.589 2.008-0.784 3.306-1.344 0.503zm34.264-6.871c-2.88-5.139 5.034 4.869 0.373 0.578-0.132-0.188-0.247-0.387-0.373-0.578zm-24.78-10.66c0.296-4.619 4.852-4.412 7.59-6.372-1.52 1.539-5.635 8.984-7.59 6.372zm25.862-2.213c-2.261-3.417 5.216 2.831 0.356 0.224l-0.211-0.133-0.145-0.091z"></path></g><metadata></metadata></svg> 