<?xml version="1.0" encoding="UTF-8" standalone="no"?> <!-- Created with Inkscape (http://www.inkscape.org/) --> <svg xmlns:inkscape="http://www.inkscape.org/namespaces/inkscape" xmlns:rdf="http://www.w3.org/1999/02/22-rdf-syntax-ns#" xmlns="http://www.w3.org/2000/svg" xmlns:cc="http://creativecommons.org/ns#" xmlns:dc="http://purl.org/dc/elements/1.1/" xmlns:sodipodi="http://sodipodi.sourceforge.net/DTD/sodipodi-0.dtd" id="svg2" sodipodi:docname="_svgclean2.svg" viewBox="0 0 790.93 714.27" sodipodi:version="0.32" inkscape:version="0.48.3.1 r9886"><g id="layer1" inkscape:label="Calque 1" inkscape:groupmode="layer" transform="translate(-59.428 -91.53)"><path id="path14631" style="color:#000000;fill:#efefef" inkscape:connector-curvature="0" d="m78.218 686.82s268.94 41.79 351.44 36.43c82.51-5.36 408.24-79.29 408.24-79.29l-385.74-47.15-370.73 83.58-3.212 6.43z"></path><rect id="rect11986" style="opacity:.68342;fill-opacity:.99307;fill:#0c0e0a" transform="rotate(1.8197)" rx="17.41" ry="17.48" height="47.438" width="48.686" y="735.93" x="582.31"></rect><rect id="rect12861" ry="17.48" style="opacity:.68342;fill-opacity:.99307;fill:#0c0e0a" rx="17.41" transform="rotate(1.8197)" height="47.438" width="48.686" y="683.39" x="781.73"></rect><path id="path10238" inkscape:connector-curvature="0" sodipodi:nodetypes="cccsccccc" style="stroke-linejoin:round;stroke-opacity:.24238;color:#000000;stroke:#000000;stroke-linecap:round;stroke-width:3.222;fill:#f2f3f3" d="m314.24 631.87-235.49 49.39c-11.166 15.38-17.009 78.31-17.711 82.29 95.971 20.44 325.82 52.43 425.69 36.2 99.87-16.22 362.02-83.64 362.02-83.64l-11.24-76.15-319.57 69.91s-46.98 2.81-64.92 2.5c-21.22 4.06-265.52-4.8-374.12-31.02"></path><g id="g52378" transform="matrix(.99959 .028744 -.028744 .99959 45.628 -226.7)"><rect id="rect15490" ry="17.48" style="stroke-linejoin:round;stroke-opacity:.48753;fill-opacity:.64127;stroke-dashoffset:2.4507;stroke:#000000;stroke-linecap:round;stroke-width:2.8;fill:#38a5b0" rx="17.41" transform="rotate(3.8209)" height="48.686" width="102.36" y="940.97" x="302.69"></rect><path id="path13738" sodipodi:rx="12.483537" sodipodi:ry="13.731891" style="stroke-linejoin:round;stroke-opacity:.55817;fill-opacity:.67867;stroke-dashoffset:2.4507;stroke:#000000;stroke-linecap:round;stroke-width:2.8;fill:#0ca80a" sodipodi:type="arc" d="m184.76 793.95c0 7.5839-5.5891 13.732-12.484 13.732-6.8945 0-12.484-6.148-12.484-13.732 0-7.5839 5.5891-13.732 12.484-13.732 6.8945 0 12.484 6.148 12.484 13.732z" transform="translate(91.779,193.42)" sodipodi:cy="793.95294" sodipodi:cx="172.27281"></path><path id="path12863" sodipodi:rx="12.483537" sodipodi:ry="13.731891" style="stroke-linejoin:round;stroke-opacity:.68560;fill-opacity:.99307;stroke-dashoffset:2.4507;stroke:#000000;stroke-linecap:round;stroke-width:2.8;fill:#0ca80a" sodipodi:type="arc" d="m184.76 793.95c0 7.5839-5.5891 13.732-12.484 13.732-6.8945 0-12.484-6.148-12.484-13.732 0-7.5839 5.5891-13.732 12.484-13.732 6.8945 0 12.484 6.148 12.484 13.732z" transform="translate(87.779,194.67)" sodipodi:cy="793.95294" sodipodi:cx="172.27281"></path><path id="path15488" sodipodi:rx="16.852776" sodipodi:ry="16.852776" style="stroke-linejoin:round;stroke-opacity:.55263;stroke-dashoffset:2.4507;stroke:#000000;stroke-linecap:round;stroke-width:2.8;fill:#ec0604" sodipodi:type="arc" d="m234.69 793.33c0 9.3075-7.5452 16.853-16.853 16.853-9.3075 0-16.853-7.5452-16.853-16.853 0-9.3075 7.5452-16.853 16.853-16.853 9.3075 0 16.853 7.5452 16.853 16.853z" transform="translate(93.027,194.67)" sodipodi:cy="793.3288" sodipodi:cx="217.83772"></path><path id="path14613" sodipodi:rx="16.852776" sodipodi:ry="16.852776" style="stroke-linejoin:round;stroke-opacity:.73407;stroke-dashoffset:2.4507;stroke:#000000;stroke-linecap:round;stroke-width:2.8;fill:#ec0604" sodipodi:type="arc" d="m234.69 793.33c0 9.3075-7.5452 16.853-16.853 16.853-9.3075 0-16.853-7.5452-16.853-16.853 0-9.3075 7.5452-16.853 16.853-16.853 9.3075 0 16.853 7.5452 16.853 16.853z" transform="translate(89.027,197.17)" sodipodi:cy="793.3288" sodipodi:cx="217.83772"></path></g><g id="g15539"><g id="g15535"><path id="path44419" inkscape:connector-curvature="0" sodipodi:nodetypes="cccccccscccc" style="stroke-linejoin:round;stroke-opacity:.078947;color:#000000;stroke:#000000;stroke-linecap:round;stroke-width:3.1902;fill:#fcfcfc" d="m449.77 502.52 1.01 98.1 266.53 33.26 5.81-79.97 67.96-16.98-341.31-34.41zm0.01-0.39c0.8-9.52-59.7-340.1-64.57-350.15-4.8-9.9-41-10.88-41-10.88l5.04 491.28 101.42-31.84-0.89-98.41z"></path><path id="path15512" style="stroke-linejoin:round;stroke-opacity:.078947;color:#000000;stroke:#000000;stroke-linecap:round;stroke-width:3.1902;fill:#fcfcfc" inkscape:connector-curvature="0" d="m349.6 631.36-5.74-489.33-32.3-0.47 1.25 488.58 36.79 1.22z"></path></g><g id="g15531"><path id="path35647" inkscape:connector-curvature="0" sodipodi:nodetypes="ccccc" style="stroke-linejoin:round;stroke-opacity:.078947;color:#000000;stroke:#000000;stroke-linecap:round;stroke-width:3.222;fill:#fafafa" d="m710.18 147.11 7.49 510.57 37.45 1.25-8.73-510.57-36.21-1.25z"></path><path id="path36522" inkscape:connector-curvature="0" sodipodi:nodetypes="ccccc" style="stroke-linejoin:round;stroke-opacity:.078947;color:#000000;stroke:#000000;stroke-linecap:round;stroke-width:3.222;fill:#f3f3f3" d="m753.12 657.94s46.19-11.24 81.15-18.73c-1.25-98.62-33.71-451.9-54.93-494.35-23.72 0-34.96 2.5-34.96 2.5l8.74 510.58z"></path></g></g><g id="g15506" transform="translate(-2.143,5.3574)"><path id="path30373" inkscape:connector-curvature="0" sodipodi:nodetypes="ccccc" style="stroke-linejoin:round;stroke-opacity:.078947;color:#000000;stroke:#000000;stroke-linecap:round;stroke-width:3.2452;fill:#ededed" d="m347.97 522.78-0.35-337.4 365.81 6.43 6.33 360.77-371.79-29.8z"></path><g id="g33873" style="stroke:#000000;stroke-opacity:.078947" transform="translate(-537.42,-36.643)"><path id="path32996" inkscape:connector-curvature="0" sodipodi:nodetypes="ccccc" style="stroke-linejoin:round;stroke-opacity:.078947;color:#000000;stroke:#000000;stroke-linecap:round;stroke-width:3.222;fill:#bcbcbc" d="m910.62 341.14 306.48 17.14v43.69l-306.48-18.38v-42.45z"></path><path id="path33871" inkscape:connector-curvature="0" sodipodi:nodetypes="ccccc" style="stroke-linejoin:round;stroke-opacity:.078947;color:#000000;stroke:#000000;stroke-linecap:round;stroke-width:3.222;fill:#bcbcbc" d="m908.48 451.93 308.62 20.35v43.69l-308.62-21.6v-42.44z"></path></g></g><g id="g6649" transform="translate(25.573,15.001)"><g id="g4891"><path id="path1389" inkscape:connector-curvature="0" sodipodi:nodetypes="cccccccc" style="stroke-linejoin:round;stroke-opacity:.078947;color:#000000;stroke:#000000;stroke-linecap:round;stroke-width:3.222;fill:#e6e6e6" d="m471.75 531.46-36.21 13.63-123.58-12.48-1.25-335.81 17.3-32.1 103.79 0.89 38.7-3.74 1.25 369.61z"></path><path id="path31248" inkscape:connector-curvature="0" sodipodi:nodetypes="ccccc" style="stroke-linejoin:round;stroke-opacity:.078947;color:#000000;stroke:#000000;stroke-linecap:round;stroke-width:3.222;fill:#f0f0f0" d="m437.15 166.84v377l32.09-11.07 1.61-369.68-33.7 3.75z"></path></g><g id="g6641" style="stroke:#000000;stroke-opacity:.078947" transform="matrix(.064305 .99793 -.99793 .064305 686.5 -714.47)"><path id="path6643" inkscape:connector-curvature="0" sodipodi:nodetypes="ccccc" style="stroke-linejoin:round;stroke-opacity:.078947;color:#000000;stroke:#000000;stroke-linecap:round;stroke-width:3.222;fill:#bcbcbc" d="m913.73 326.31 306.47 17.14-4 23.03-304.51-16.11 2.04-24.06z"></path><path id="path6647" inkscape:connector-curvature="0" sodipodi:nodetypes="ccccc" style="stroke-linejoin:round;stroke-opacity:.078947;color:#000000;stroke:#000000;stroke-linecap:round;stroke-width:3.222;fill:#bcbcbc" d="m907.49 392.05 302.51 16.87-4 23.04-300.55-15.85 2.04-24.06z"></path></g></g><g id="g11073"><path id="path35641" inkscape:connector-curvature="0" sodipodi:nodetypes="ccccccc" style="stroke-linejoin:round;stroke-opacity:.058824;color:#000000;stroke:#000000;stroke-linecap:round;stroke-width:3.222;fill:#b5b5b5" d="m134.34 683.3 298.35 23.72 173.67-46.54 0.36-14.44-270.77-25.47-200.99 45.57-0.62 17.16z"></path><path id="path34766" inkscape:connector-curvature="0" sodipodi:nodetypes="ccccc" style="stroke-linejoin:round;stroke-opacity:.058172;color:#000000;stroke:#000000;stroke-linecap:round;stroke-width:3.222;fill:#a3a3a3" d="m134.87 666.05 297.52 25.37 174.02-45.38-270.37-25.47-201.17 45.48z"></path></g><g id="g8441" transform="translate(544.31,47.145)"><path id="path1444" inkscape:connector-curvature="0" sodipodi:nodetypes="ccccc" style="stroke-linejoin:round;stroke-opacity:.27285;fill-opacity:.22438;color:#000000;stroke:#000032;stroke-linecap:round;stroke-width:5.9;fill:#000000" d="m-93.235 661.38c-142.46-2.65-260.9-13.11-372-33.7 0-9.37-3.75-503.09 309.59-577.99 93.624-2.498 205.98-4.994 349.54 3.744-153.55 39.947-275.73 254.82-287.12 607.95z"></path><path id="path1440" inkscape:connector-curvature="0" sodipodi:nodetypes="cccc" style="stroke-linejoin:round;stroke-opacity:.27285;fill-opacity:.22438;color:#000000;stroke:#000032;stroke-linecap:round;stroke-width:5.9;fill:#000000" d="m-25.647 661.18c3.745-184.76 53.679-504.33 262.16-563.01 44.94 133.58 54.92 494.35 54.92 494.35l-317.08 68.66z"></path><path id="path1442" inkscape:connector-curvature="0" sodipodi:nodetypes="ccccc" style="stroke-linejoin:round;stroke-opacity:.14958;fill-opacity:.17729;color:#000000;stroke:#000032;stroke-linecap:round;stroke-width:5.9;fill:#000000" d="m-25.647 659.93s-11.235 3.75-66.163 2.5c2.497-98.62 27.464-530.55 285.87-607.95 11.24 9.988 28.72 27.465 42.45 42.445-89.88 31.205-247.18 132.32-262.16 563z"></path><path id="rect25102" inkscape:connector-curvature="0" sodipodi:nodetypes="ccsccsc" style="stroke-linejoin:round;fill-opacity:.92382;stroke-dashoffset:2.4507;stroke:#c29200;stroke-linecap:round;stroke-width:2.8;fill:#d39a0a" d="m-462.28 624.85c100.99 20.91 224.21 30.82 364.35 32.39 4.196 0.68 4.673 2.95 4.387 6.05-0.287 3.09-0.655 6.18-5.423 5.14-204.26-2.38-316.45-20.68-364.34-33.72-4.64-0.24-4.68-2.94-4.39-6.04s2.42-3.98 5.42-3.82z"></path><g id="g8435"><path id="path26870" inkscape:connector-curvature="0" sodipodi:nodetypes="cccc" style="color:#000000;fill-opacity:.073407;fill:#000000" d="m-462.69 628.94c-6.24-162.28 34.39-449.04 230.38-511.46 1.42 60.76-4.43 449.04-4.43 449.04l-225.95 62.42z"></path><g id="g45335" transform="translate(-651.07,5.4961)"><path id="path1446" inkscape:connector-curvature="0" sodipodi:nodetypes="cscc" style="stroke-linejoin:round;color:#000000;stroke:#1b87da;stroke-linecap:round;stroke-width:3.222;fill:#0088da" d="m851.13 371.83c-51.18-9.98-52.43-106.11-26.21-138.56 26.21-32.46 48.68-32.46 64.91 28.71-4.99 31.21-36.2 108.6-38.7 109.85z"></path><path id="path3194" inkscape:connector-curvature="0" sodipodi:nodetypes="cscc" style="stroke-linejoin:round;color:#000000;stroke:#1b71da;stroke-linecap:round;stroke-width:3.222;fill:#0087da" d="m858.62 371.83c-51.18-9.98-52.43-106.11-26.21-138.56 26.21-32.46 48.68-32.46 64.91 28.71-4.99 31.21-36.2 108.6-38.7 109.85z"></path></g></g></g><g id="g15579"><g id="g15562" transform="translate(9.3699,-15.266)"><path id="rect48839" inkscape:connector-curvature="0" sodipodi:nodetypes="cccsccc" style="stroke-linejoin:round;fill-opacity:.74931;stroke:#000000;stroke-linecap:round;stroke-width:.40138;fill:#4f4e4f" d="m368.36 563.44c1.53 0 2.83-0.35 2.89 0.38v32.25c0 2.56-1.93 2.45-2.68 2.45-0.69 0-2.85 0.11-2.85-2.45v-32.25c-0.06-0.78 1.11-0.38 2.64-0.38z"></path><path id="rect47091" inkscape:connector-curvature="0" sodipodi:nodetypes="ccccccccc" style="fill:#383838" d="m359.92 537.53h17.67c2.86 0 5.16 2.5 5.16 5.61v16.76c0 3.12-8.3 5.62-11.16 5.62h-5.67c-2.86 0-11.16-2.5-11.16-5.62v-16.76c0-3.11 2.3-5.61 5.16-5.61z"></path><path id="path49715" inkscape:connector-curvature="0" sodipodi:nodetypes="cccccccccccccccccc" style="stroke-linejoin:round;stroke-opacity:.92936;color:#000000;stroke:#0e1110;stroke-linecap:round;stroke-width:.34920;fill:none" d="m365.72 596.59 5.56-3.02m-5.56-24.74 5.48-2.89m-5.37 6.31 5.39-2.94m-5.48 6.31 5.51-2.8m-5.51 6.3 5.46-2.89m-5.25 6.26 5.27-2.76m-5.45 6.35 5.48-2.93m-5.53 6.39c0.17 0 5.5-2.93 5.5-2.93m-5.48 6.35 5.48-2.81"></path></g><path id="path5827" inkscape:connector-curvature="0" sodipodi:nodetypes="cccccc" style="stroke-linejoin:round;stroke-opacity:.049861;color:#000000;stroke:#000000;stroke-linecap:round;stroke-width:3.222;fill:#007db4" d="m292.8 518.63 104.86 12.13 65.1-9.09-0.18-241.91s-73.64-5.27-109.85-4.02c-48.68 43.69-63.67 66.88-59.93 242.89z"></path></g><path id="path6702" inkscape:connector-curvature="0" sodipodi:nodetypes="csccc" style="stroke-linejoin:round;stroke-opacity:.049861;color:#000000;stroke:#000000;stroke-linecap:round;stroke-width:3.222;fill:#0077b0" d="m397.7 529.83c1.25-86.14-14.77-173.51 26.36-220.38 8.27-9.43 37.53-28.02 37.53-28.02l-0.19 238.99-63.7 9.41z"></path><g id="g23461" transform="translate(4,-6)"><path id="path11992" inkscape:connector-curvature="0" sodipodi:nodetypes="cczss" style="stroke-linejoin:round;fill-rule:evenodd;stroke:#5a5a5a;stroke-linecap:round;stroke-width:0.932;fill:#b1b1b1" d="m352.64 616.16v18.33c-0.07 4.55-9.17 6.78-13.12 6.78-3.95 0.01-13.12-1.49-13.11-6.78l0.03-18.14"></path><path id="path11989" style="stroke-linejoin:round;fill-rule:evenodd;stroke:#5a5a5a;stroke-linecap:round;stroke-width:.903;fill:#bababa" inkscape:connector-curvature="0" d="m352.67 616.48c0 3.06-5.87 5.53-13.11 5.53s-13.11-2.47-13.11-5.53c0-3.05 5.87-5.53 13.11-5.53s13.11 2.48 13.11 5.53z"></path><path id="path12873" style="stroke-linejoin:round;fill-rule:evenodd;stroke:#646464;stroke-linecap:round;stroke-width:0.621;fill:#8c8c8c" inkscape:connector-curvature="0" d="m346.97 616c0 1.92-3.31 3.47-7.39 3.47s-7.39-1.55-7.39-3.47c0-1.91 3.31-3.47 7.39-3.47s7.39 1.56 7.39 3.47z"></path><path id="path12875" style="stroke-linejoin:round;stroke-opacity:.99861;fill-rule:evenodd;stroke:#646464;stroke-linecap:round;stroke-width:.421;fill:#c1c1c1" inkscape:connector-curvature="0" d="m346.97 615.5c0 1.91-3.31 3.47-7.39 3.47s-7.39-1.56-7.39-3.47c0-1.92 3.31-3.47 7.39-3.47s7.39 1.55 7.39 3.47z"></path></g><g id="g23456" transform="matrix(.99164 0 0 .99164 1.6364 7.5926)"><path id="path21704" inkscape:connector-curvature="0" sodipodi:nodetypes="ccccc" style="stroke-linejoin:round;fill-rule:evenodd;stroke:#be5858;stroke-linecap:round;stroke-width:0.621;fill:#ff8888" d="m264.15 631.03 93.22 8.57-68.07 15-93.22-8.57 68.07-15z"></path><path id="path21706" inkscape:connector-curvature="0" sodipodi:nodetypes="ccccc" style="stroke-linejoin:round;fill-rule:evenodd;stroke:#be5858;stroke-linecap:round;stroke-width:0.621;fill:#ff5858" d="m196.01 659.89 93.22 8.57-0.32-13.73-92.83-8.57-0.07 13.73z"></path><path id="path21708" inkscape:connector-curvature="0" sodipodi:nodetypes="ccccc" style="stroke-linejoin:round;fill-rule:evenodd;stroke:#be5858;stroke-linecap:round;stroke-width:0.621;fill:#ff6c6c" d="m357.14 653.51 0.1-14.02-68.2 15.27 0.03 13.76 68.07-15.01z"></path></g><g id="g13917" transform="translate(-4.143,1.0715)"><path id="text10242" style="stroke-linejoin:round;color:#000000;stroke:#f60000;stroke-linecap:round;stroke-width:3.663;fill:none" inkscape:connector-curvature="0" d="m153.4 636.35c-2.25 0.69-3.81 1.95-4.7 3.8-0.87 1.85-0.93 4.01-0.17 6.5 0.76 2.48 2.02 4.24 3.77 5.28 1.77 1.04 3.78 1.21 6.02 0.53 2.24-0.69 3.8-1.95 4.66-3.79 0.88-1.85 0.94-4.01 0.18-6.49-0.76-2.49-2.02-4.25-3.78-5.29-1.74-1.05-3.74-1.22-5.98-0.54m-0.66-2.16c3.2-0.98 6.04-0.84 8.53 0.43 2.48 1.27 4.2 3.45 5.15 6.57 0.95 3.1 0.75 5.87-0.6 8.31-1.36 2.44-3.64 4.14-6.84 5.12-3.21 0.98-6.06 0.85-8.56-0.41-2.48-1.26-4.2-3.45-5.15-6.56-0.95-3.12-0.75-5.89 0.61-8.32 1.36-2.45 3.64-4.16 6.86-5.14m19.26-3.1 2.26 7.4 3.89-1.19c1.43-0.44 2.45-1.1 3.04-1.98s0.7-1.92 0.34-3.11c-0.36-1.17-1.03-1.97-2.02-2.37-0.98-0.4-2.19-0.38-3.63 0.06l-3.88 1.19m-3.76-1.25 6.98-2.13c2.56-0.78 4.64-0.87 6.25-0.27 1.62 0.59 2.73 1.85 3.32 3.78 0.59 1.94 0.38 3.61-0.63 5.01-1 1.39-2.79 2.48-5.35 3.26l-3.88 1.19 2.42 7.91-3.09 0.95-6.02-19.7"></path><g id="g12893" transform="translate(3.2144,2.143)"><path id="text6689" style="stroke-linejoin:round;color:#000000;stroke:#f60000;stroke-linecap:round;stroke-width:3.822;fill:none" inkscape:connector-curvature="0" d="m155.02 393.48h18.33v2.4l-14.75 18.27h15.11v2.66h-19.05v-2.41l14.75-18.27h-14.39v-2.65"></path><g id="g12878"><g id="g6667" transform="translate(.37028 14.219)"><path id="path2246" inkscape:connector-curvature="0" sodipodi:nodetypes="cc" style="stroke-linejoin:round;color:#000000;stroke:#ff5500;stroke-linecap:round;stroke-width:3.5642;fill:none" d="m194.53 633.51c-1.38-169.39 0.41-240.39 0.41-240.39"></path><path id="path2248" inkscape:connector-curvature="0" sodipodi:nodetypes="csccc" style="stroke-linejoin:round;fill-rule:evenodd;stroke:#be0000;stroke-linecap:round;stroke-width:0.621;fill:#f80403" d="m205.6 409.59c0.9 3.84-2.72 9-11 9s-12.47-4.9-11-9l11.35-32.68 10.65 32.68z"></path></g><path id="path11124" inkscape:connector-curvature="0" sodipodi:nodetypes="csccc" style="fill-rule:evenodd;fill:#f8ba03;fill-opacity:.27701" d="m204.46 421.18c0.93 3.27 0.44 6.76-3.38 8.59-3.22 1.54-5.99 2.55-5.96-1.11l0.14-35.16 9.2 27.68z"></path></g></g><g id="g13911"><path id="path2263" inkscape:connector-curvature="0" sodipodi:nodetypes="cc" style="stroke-linejoin:round;color:#000000;stroke:#ff5500;stroke-linecap:round;stroke-width:3.1442;fill:none" d="m198.72 650.22c174.83 17.79 247.92 27.02 247.92 27.02"></path><path id="path2265" inkscape:connector-curvature="0" sodipodi:nodetypes="csccc" style="stroke-linejoin:round;fill-rule:evenodd;stroke:#be0000;stroke-linecap:round;stroke-width:0.621;fill:#f80403" d="m417.51 684.5c-3.92 0.48-8.66-3.68-7.76-11.92 0.9-8.23 6.22-11.86 10.14-9.95l31.26 14.82-33.64 7.05z"></path><path id="text6694" style="stroke-linejoin:round;color:#000000;stroke:#f60000;stroke-linecap:round;stroke-width:3.822;fill:none" inkscape:connector-curvature="0" d="m436.41 631.87 3.07 1.44 1.56 10.32 8.96-5.38 3.07 1.45-11.55 6.95 2.09 14.38-3.07-1.45-1.72-11.77-10.2 6.18-3.09-1.45 12.83-7.73-1.95-12.94"></path><path id="path12876" inkscape:connector-curvature="0" sodipodi:nodetypes="csccc" style="fill-rule:evenodd;fill:#f8ba03;fill-opacity:.27701" d="m413.77 670.56c-3.35-0.64-1.55-3.35 0.9-5.94 2.62-2.77 4.65-2.77 7.91-1.09l26.05 13.23-34.86-6.2z"></path></g><g id="g13903"><path id="path2259" inkscape:connector-curvature="0" sodipodi:nodetypes="csccc" style="stroke-linejoin:round;fill-rule:evenodd;stroke:#be0000;stroke-linecap:round;stroke-width:.62849;fill:#f80403" d="m351.11 624.49c-3.62 1.79-9.6-0.51-11.51-8.56-1.92-8.06 1.99-13.29 6.41-12.84l35.2 3.28-30.1 18.12z"></path><path id="text6699" style="stroke-linejoin:round;color:#000000;stroke:#f60000;stroke-linecap:round;stroke-width:3.822;fill:none" inkscape:connector-curvature="0" d="m327.7 573.7 3.31-0.72 8.36 8 4.24-10.74 3.31-0.72-5.46 13.69 2.36 10.86-3.1 0.67-2.36-10.85-10.66-10.19"></path><path id="path12874" inkscape:connector-curvature="0" sodipodi:nodetypes="csccc" style="fill-rule:evenodd;fill:#f8ba03;fill-opacity:.27701" d="m356.59 619.85c-2.58 1.52-2.34-0.27-2.43-3.93-0.09-3.5-1.36-4.32 1.7-4.96l26.35-5.23-25.62 14.12z"></path><g id="g13899"><path id="path2278" sodipodi:rx="11.198359" sodipodi:ry="6.8113728" style="stroke-linejoin:round;fill-rule:evenodd;stroke:#be0000;stroke-linecap:round;stroke-width:0.621;fill:#f53603" sodipodi:type="arc" d="m244.98 412.2c0 3.7618-5.0137 6.8114-11.198 6.8114-6.1847 0-11.198-3.0496-11.198-6.8114s5.0137-6.8114 11.198-6.8114c6.1847 0 11.198 3.0496 11.198 6.8114z" transform="matrix(.23172 .97278 -.97278 .23172 693.06 291.59)" sodipodi:cy="412.20264" sodipodi:cx="233.78017"></path><path id="path13024" inkscape:connector-curvature="0" sodipodi:nodetypes="cc" style="stroke-linejoin:round;color:#000000;stroke:#ff5500;stroke-linecap:round;stroke-width:3.3904;fill:none" d="m197.74 649.28c104.29-25.46 148.27-35.32 148.27-35.32"></path></g></g><path id="path1371" sodipodi:rx="15.000696" sodipodi:ry="15.000696" style="stroke-linejoin:round;fill-rule:evenodd;fill-opacity:.72438;stroke:#be0000;stroke-linecap:round;stroke-width:0.621;fill:#f80403" sodipodi:type="arc" d="m211.08 649.32c0 8.2846-6.716 15.001-15.001 15.001-8.2847 0-15.001-6.716-15.001-15.001 0-8.2847 6.716-15.001 15.001-15.001 8.2847 0 15.001 6.716 15.001 15.001z" transform="matrix(.68803 0 0 .68803 63.351 200.87)" sodipodi:cy="649.31586" sodipodi:cx="196.08052"></path></g></g><metadata id="metadata85"></metadata></svg> 