<?xml version="1.0" encoding="UTF-8" standalone="no"?> <!-- Created with Inkscape (http://www.inkscape.org/) --> <svg xmlns:dc="http://purl.org/dc/elements/1.1/" xmlns:inkscape="http://www.inkscape.org/namespaces/inkscape" xmlns:sodipodi="http://sodipodi.sourceforge.net/DTD/sodipodi-0.dtd" xmlns:cc="http://web.resource.org/cc/" xmlns:rdf="http://www.w3.org/1999/02/22-rdf-syntax-ns#" xmlns="http://www.w3.org/2000/svg" xmlns:svg="http://www.w3.org/2000/svg" xmlns:ns1="http://sozi.baierouge.fr" xmlns:xlink="http://www.w3.org/1999/xlink" id="svg2" sodipodi:modified="TRUE" sodipodi:docbase="C:\DOCUME~1\James\デスク~1" inkscape:export-ydpi="16.8937" viewBox="0 0 681.91 528.35" inkscape:export-xdpi="16.8937" inkscape:output_extension="org.inkscape.output.svg.inkscape" sodipodi:docname="MOLUME~1.SVG" inkscape:export-filename="C:\Documents and Settings\James\デスクトップ\face" inkscape:version="0.44+devel" sodipodi:version="0.32" y="0" x="0"><path id="path2234" style="fill:black" d="m24.534 0.019002c-3.126 0.07186-6.034 0.35751-8.656 0.84375-3.495 0.64825-6.5086 1.6458-8.8436 3.0312-10.058 5.9674-9.2127 8.169 1.7812 4.625 7.4274-2.3942 8.7454-2.1161 8.0004 1.531-1.062 5.196 4.516 4.717 10.625-0.906 2.325-2.1402 6.232-3.3854 9.031-2.8437 4.537 0.8779 4.443 1.2555-0.844 4.6567-5.588 3.594-5.39 3.747 5.906 4.937 6.431 0.677 11.655 1.091 11.625 0.906-0.029-0.184 2.944-1.373 6.594-2.687 8.767-3.157 7.873-6.1192-2.781-9.2502-11.705-3.4402-23.058-5.0594-32.438-4.8438z"></path><path id="path2232" style="fill:black" d="m647.82 5.7378c-9.38-0.2156-20.77 1.4348-32.47 4.8752-10.66 3.131-11.52 6.093-2.75 9.25 3.65 1.314 6.62 2.471 6.59 2.656-0.03 0.184 5.2-0.229 11.63-0.906 11.29-1.19-0.78-6.92 24.71-5.813 3.72 0.163 0.58-3.956 8-1.562 11 3.544 11.84 1.342 1.79-4.6252-2.34-1.3855-5.35-2.3831-8.85-3.0313-2.62-0.4862-5.53-0.7719-8.65-0.8437z"></path><path id="path2230" style="fill:black" d="m83.941 17.144c-0.5 0.006-1.013 0.085-1.532 0.25-1.037 0.331-2.037 1.011-2.75 1.844-1.425 1.665-4.699 3.787-7.281 4.812-4.203 1.67-3.705 2.656 5.031 8.875 10.099 7.188 26.861 15.293 30.221 14.625 1.05-0.209 4.57 1.678 7.78 4.219 11.62 9.195 61.76 41.027 63.94 40.594 1.23-0.245 2.34 0.658 2.56 2 0.04 0.248-0.96 0.122-1.41 0.187l28.28 13.63 34.47 10.34c-3.77-3.06-4.76-4.95 0.25-4.38 2.66 0.31 5.84-1.19 7.07-3.34 1.74-3.06-0.57-5.71-10.6-12.093-7.05-4.491-13.65-7.963-14.72-7.75-1.07 0.212-5.03-2.463-8.72-5.969-3.68-3.507-7.83-6.157-9.25-5.875-1.41 0.281-8.47-2.785-15.68-6.75-29.44-16.179-83.46-44.763-89.82-47.563-3.734-1.646-9.615-2.506-13.058-1.843-4.455 0.857-5.362 0.403-3.219-1.594 2.189-2.041 2.122-3.094-0.156-3.969-0.431-0.166-0.907-0.256-1.406-0.25z"></path><path id="path2228" style="fill:black" d="m599.53 17.144c-0.5-0.006-0.97 0.084-1.4 0.25-2.28 0.875-12.36 7.979-16.1 9.625-6.35 2.799-60.72 29.165-90.15 45.344-7.22 3.965-14.27 7.031-15.69 6.75-1.42-0.282-5.57 2.368-9.25 5.875-3.68 3.506-7.62 6.181-8.69 5.969-1.07-0.213-7.69 3.259-14.75 7.75-10.03 6.383-12.3 9.033-10.56 12.093 1.23 2.15 9.05 1.59 7.03 3.34-5.67 4.94 4.02 1.32 0.25 4.38 0 0 1.54 5.09 33.5-11.59 31.97-16.688 43.26-24.319 94.35-55.161 3.5-2.116 6.75-4.428 7.81-4.219 3.35 0.668 20.12-7.437 30.22-14.625 8.73-6.219 9.2-7.205 5-8.875-2.58-1.025-5.86-3.147-7.28-4.812-0.72-0.833-1.69-1.513-2.72-1.844-0.52-0.165-1.07-0.244-1.57-0.25z"></path><path id="path2226" style="fill:black" d="m93.066 76.05c-0.52-0.103-0.949-0.101-1.282 0.032-0.444 0.176-0.751 0.574-0.875 1.156-0.54 2.546-1.624 2.798-4.468 1.031-4.182-2.598-9.658 0.445-6.875 3.813 0.966 1.169 0.623 2.279-0.75 2.468-1.374 0.189-3.369-0.681-4.407-1.937-2.343-2.837-23.404-0.135-24.875 3.187-1.058 2.392-15.699 2.093-21.343-0.406-1.593-0.705-6.886 1.605-11.719 5.125-7.794 5.677-9.1972 6.08-12.156 3.031-2.7683-2.851-3.1801-2.335-2.4066 3.282 0.5296 3.848 3.5121 8.398 6.875 10.498 4.4236 2.77 4.9696 3.86 2.1876 4.38-2.4108 0.44-0.783 2.53 4.625 5.9 6.23 3.88 7.023 4.98 3.156 4.47-2.851-0.37-0.346 1.04 5.531 3.06 7.056 2.43 13.33 2.83 18.438 1.22 4.255-1.34 8.599-1.38 9.687-0.06 1.259 1.52 4.068 0.28 7.657-3.44 3.101-3.21 9.666-7.09 14.562-8.62 4.896-1.54 10.453-3.51 12.438-4.35 2.988-1.26 3.896 1.3 5.031 14.6 1.178 13.81 2.463 17.37 9.313 25.5 20.29 24.09 52.13 20.66 70.28-7.6l7.22-11.25 5.87 5.32c3.25 2.88 9.48 9.22 13.82 14.15l7.84 9.03-4.5 4.82c-2.49 2.65-11.41 7.2-19.84 10.12-13.09 4.54-14.48 5.59-9.25 6.78 3.37 0.77 8.76 0.26 11.97-1.03 6.83-2.75 7.76-0.47 2.81 6.78-5 7.34 1.04 12.25 7.97 6.47 3.59-3 5.64-3.31 8.65-1.44 2.16 1.35 3.4 3.56 2.82 4.88-0.59 1.32 0 2.21 1.31 2.03s2.76-2.09 3.25-4.19c0.67-2.85 4.88-4.22 16.72-5.47 15.45-1.63 15.77-1.83 15.62-8.53-0.08-3.77-1.7-8.98-3.59-11.59-2.78-3.82-2.69-4.79 0.4-5.22 2.11-0.29 3.99 0.65 4.19 2.13 0.44 3.15 5.28 6.78 13.63 10.12 5 2 6.23 1.72 6.97-1.44 0.48-2.09-0.68-5.91-2.54-8.47s-3.79-7.5-4.28-11.03c-0.48-3.52-1.71-6.11-2.72-5.81-4.81 1.46-6.57 0.24-3.5-2.37 4.8-4.08-0.97-10.5-10.53-11.69-4.07-0.51-10.15-3.42-13.53-6.41-8.22-7.27-65.39-33.187-76.4-34.655-5.2-0.692-9-2.735-9.32-5.062-0.36-2.647-2.04-3.303-5.18-2-2.71 1.12-5.42 0.514-6.47-1.406-1.97-3.568-7.11-2.785-9.35 1.437-0.75 1.431-3.27-0.214-5.47-3.687-4.49-7.1-8.47-7.876-7.59-1.5 0.45 3.288-1.33 2.821-8.22-2.063-3.414-2.421-5.846-3.784-7.404-4.094zm12.404 35.78c7.1 0.03 11.39 9.83 5.69 12.97-3.02 1.66-2.85 3.06 0.87 9.34 4.8 8.1 10.04 10.21 22.13 8.82 10.5-1.22 19.43-7.05 20.16-13.13 0.95-8 5.91-6.21 7.03 2.53 1.86 14.58-6.55 22.96-25.75 25.72-10.15 1.46-14.28 0.71-21.6-3.94-9.16-5.81-17.897-23.62-11.97-24.43 1.67-0.23 1.71-3.69 0.04-9.16-1.88-6.12-2.255-7.96 0.09-8.5 0.78-0.18 1.89-0.22 3.31-0.22z"></path><path id="path2224" style="fill:black" d="m590.41 76.05c-1.56 0.31-3.96 1.673-7.38 4.094-6.89 4.884-8.7 5.351-8.25 2.063 0.88-6.376-3.09-5.6-7.59 1.5-2.2 3.473-4.68 5.118-5.44 3.687-2.23-4.222-7.38-5.005-9.34-1.437-1.06 1.92-3.8 2.526-6.5 1.406-3.15-1.303-4.82-0.647-5.19 2-0.32 2.327-4.09 4.37-9.28 5.062-11.01 1.468-68.22 27.385-76.44 34.655-3.38 2.99-9.45 5.9-13.53 6.41-9.55 1.19-15.3 7.61-10.5 11.69 3.08 2.61 1.29 3.83-3.53 2.37-1.01-0.3-2.2 2.29-2.69 5.81-0.48 3.53-2.45 8.47-4.31 11.03s-3.02 6.38-2.53 8.47c0.74 3.16 1.96 3.44 6.97 1.44 8.35-3.34 13.22-6.97 13.65-10.12 0.21-1.48 2.08-2.42 4.19-2.13 3.09 0.43 3.15 1.4 0.38 5.22-1.9 2.61-3.48 7.82-3.57 11.59-0.14 6.7 0.15 6.9 15.6 8.53 11.83 1.25 16.08 2.62 16.75 5.47 0.49 2.1 1.94 4.01 3.25 4.19s1.9-0.71 1.31-2.03c-0.58-1.32 0.65-3.53 2.81-4.88 3.02-1.87 5.03-1.56 8.63 1.44 6.92 5.78 12.97 0.87 7.97-6.47-4.95-7.25-3.99-9.53 2.84-6.78 3.21 1.29 8.57 1.8 11.94 1.03 5.23-1.19 3.84-2.24-9.25-6.78-8.44-2.92-17.35-7.47-19.85-10.12l-4.5-4.82 7.85-9.03c4.34-4.93 10.56-11.27 13.81-14.15l5.91-5.32 7.18 11.25c18.16 28.26 50 31.69 70.29 7.6 6.84-8.13 8.13-11.69 9.31-25.5 1.13-13.3 2.04-15.86 5.03-14.6 1.98 0.84 7.57 2.81 12.47 4.35 4.89 1.53 11.46 5.41 14.56 8.62 3.59 3.72 6.37 4.96 7.63 3.44 1.08-1.32 5.43-1.28 9.68 0.06 5.11 1.61 11.42 1.21 18.47-1.22 5.88-2.02 8.35-3.43 5.5-3.06-3.87 0.51-3.07-0.59 3.16-4.47 5.41-3.37 7.03-5.46 4.62-5.9-2.78-0.52-2.2-1.61 2.22-4.38 3.36-2.1 6.32-6.65 6.85-10.498 0.77-5.617 0.36-6.133-2.41-3.282-2.96 3.049-4.36 2.646-12.16-3.031-4.83-3.52-10.09-5.83-11.68-5.125-5.65 2.499-20.32 2.798-21.38 0.406-1.47-3.322-22.5-6.024-24.84-3.187-1.04 1.256-3.04 2.126-4.41 1.937s-1.75-1.299-0.78-2.468c2.78-3.368-2.69-6.411-6.88-3.813-2.84 1.767-3.92 1.515-4.46-1.031-0.13-0.582-0.44-0.98-0.88-1.156-0.33-0.133-0.76-0.135-1.28-0.032zm-12.38 35.78c1.42 0 2.54 0.04 3.32 0.22 2.34 0.54 1.97 2.38 0.09 8.5-1.68 5.47-1.67 8.93 0 9.16 5.93 0.81-2.77 18.62-11.94 24.43-7.32 4.65-11.47 5.4-21.62 3.94-19.2-2.76-27.58-11.14-25.72-25.72 1.12-8.74 6.07-10.53 7.03-2.53 0.73 6.08 9.63 11.91 20.13 13.13 12.09 1.39 17.32-0.72 22.12-8.82 3.73-6.28 3.92-7.68 0.91-9.34-5.71-3.14-1.41-12.94 5.68-12.97z"></path><path id="path1368" sodipodi:nodetypes="ccccssssssssssssssssssssssssssscccsssssssssssssssssssssscccsssssssssssssssssssssssssssssscccsssssscccsssscccsccssccssccssccsssssssssssssssscccsssssssssssssssssssssssssssssssssssssssssssssssssssssssssssssssssssssssssssssscccsscccssscccsssssccssccssccssc" style="fill:#d40000" d="m334.34 527.29c-1.14-0.68-1.76-2.32-1.8-4.74l-0.05-3.7-1.56 3.75c-2.78 6.71-8.68 3.93-8.2-3.86 0.14-2.38-0.05-4.64-0.44-5.03-0.38-0.38-0.7 1.29-0.71 3.72s-0.41 5.04-0.89 5.8c-1.13 1.79-5.44 0.77-8.12-1.91-1.09-1.08-2.9-1.97-4.03-1.97-3.17 0-7.08-2.41-11.24-6.9-2.08-2.26-4.64-4.1-5.67-4.1-2.46 0-6-4.55-6.15-7.89-0.08-1.69-0.28-1.99-0.58-0.86-0.87 3.35-4.15 2.03-5.27-2.13-0.87-3.21-1.48-3.87-3.59-3.87-2.61 0-3.74-1.06-7.93-7.39-1.32-2.01-3.78-4.62-5.46-5.82-2.03-1.45-3.06-3.03-3.06-4.72 0-1.84-0.41-2.38-1.49-1.96-0.91 0.35-2.1-0.34-3.02-1.74-0.83-1.27-2.69-2.85-4.12-3.5-3.52-1.6-11.29-8.33-11.33-9.81-0.02-0.66 0.9-1.85 2.04-2.65 1.79-1.26 2.45-1.27 4.75-0.07 1.47 0.77 3.24 1.4 3.92 1.4 0.69 0.01 1.25 0.46 1.25 1.01s0.9 1 2 1 2.86 0.85 3.9 1.9c1.37 1.37 2.21 1.6 2.99 0.81 0.79-0.79 2.1-0.61 4.72 0.64 3.53 1.68 3.62 1.85 2.98 5.94l-0.66 4.21 2.57-3.75c2.26-3.3 3.07-3.75 6.64-3.75 2.23 0 6.53-0.72 9.56-1.6 6.62-1.92 9.11-0.72 5.21 2.53-2 1.67-2.11 2.01-0.66 2.04 0.97 0.01 1.75-0.38 1.75-0.87 0-1.28 5.68-3.1 9.65-3.1 2.45 0 3.35 0.44 3.35 1.65 0 1.54 0.13 1.54 1.83 0 2.03-1.83 7.81-2.25 8.36-0.59 0.19 0.58 2.37 1.09 4.83 1.12 5.58 0.08 8.98 1.31 8.98 3.26 0 0.83-0.9 3.1-2 5.06-2.09 3.72-2.58 6.5-1.16 6.5 0.47 0 1.44-1.8 2.16-3.99 1.52-4.61 4.96-7.27 8.81-6.82 2.12 0.24 2.67 0.82 2.6 2.71-0.09 2.25-0.01 2.28 1.25 0.56 0.74-1.02 1.96-1.93 2.72-2.05 0.76-0.11 2.26-0.48 3.33-0.82 2.73-0.86 4.29 2.97 4.29 10.54 0 4.4 0.34 5.92 1.25 5.59 0.69-0.24 1.15-1.29 1.03-2.33-0.13-1.04-0.53-4.25-0.89-7.14l-0.66-5.25h4.06c4.28 0 4.4 0.15 6.61 8.5 0.48 1.78 0.13-2.69-0.62-7.99-0.4-2.85 6.38-4.57 8.95-2.28 1.58 1.41 1.93 1.42 3.16 0.08 0.89-0.98 2.36-1.31 4.19-0.95 2.21 0.45 2.95 0.14 3.43-1.4 0.73-2.28 1.57-2.45 3.42-0.71 1.06 1 1.42 1 1.78 0 0.5-1.37 3.29-1.74 3.29-0.44 0 0.44 0.7 1.68 1.55 2.75 1.4 1.75 1.4 1.63 0.01-1.25-2.18-4.51-1.21-6.06 4.07-6.48 3.35-0.26 4.9 0.1 6.09 1.41 2.04 2.25 3.45 2.25 3.08 0.01-0.37-2.17 5-2.96 8.26-1.22 1.56 0.84 2.46 0.85 3.25 0.06 1.42-1.42 5.98-1.4 7.41 0.02 0.65 0.66 1.66 0.77 2.45 0.27 2.2-1.39 7.15-1.27 10.08 0.25 2.16 1.11 2.76 1.14 2.77 0.14 0.02-1.49 11.27-6.05 13.77-5.58 3.34 0.64 2.58 4.62-1.64 8.57-7.75 7.25-10.41 8.64-11.48 5.99-0.28-0.69-0.55-0.13-0.6 1.25-0.05 1.37-0.43 2.97-0.83 3.55-1.4 2-7.93 6.45-9.47 6.45-0.85 0-1.83 1.12-2.17 2.49-0.35 1.36-1.86 3.28-3.36 4.25-1.51 0.97-5.61 4.59-9.11 8.05-3.51 3.46-6.62 6.05-6.91 5.76s-0.86-2.22-1.26-4.29l-0.73-3.76-0.11 4.53c-0.11 4.13-0.63 5.04-5.9 10.25-3.17 3.15-6.1 5.72-6.5 5.72-0.39 0-0.76-1.24-0.81-2.75-0.09-2.3-0.29-2.07-1.25 1.41-1.9 6.86-7.16 10.95-8.33 6.48-0.43-1.64-0.9-1.46-4.09 1.54-5.36 5.05-6.63 4.24-7.31-4.69l-0.57-7.49-0.18 6.53c-0.23 8.46-1.89 10.97-7.27 10.97-3.11 0-4.14-0.45-4.74-2.09-0.7-1.88-0.91-1.93-2.09-0.5-0.78 0.94-2.87 1.59-5.12 1.59-5.82 0-6.94-0.77-7.06-4.86l-0.1-3.64-0.79 3.34c-0.44 1.84-1.18 3.72-1.65 4.18-1.51 1.48-5.8 2-7.61 0.92zm25.25-12.44c0-4.33-0.42-7.5-1-7.5-1.08 0-1.39 10.81-0.39 13.42 1.11 2.88 1.39 1.66 1.39-5.92zm-52.54-13.57c-0.86-1.39-1.46-1.13-1.46 0.63 0 0.86 0.46 1.27 1.02 0.93 0.56-0.35 0.76-1.05 0.44-1.56zm69.37-23.58c-3.02-6.03-3.58-3.28-0.66 3.2 1.47 3.26 2.36 4.35 2.61 3.2 0.2-0.96-0.68-3.84-1.95-6.4zm-34.18-24.78c-1.36-1.47-3.47-2.57-4.94-2.57-4.15 0-6.68-4.2-6.87-11.39-0.09-3.52-0.31-4.63-0.52-2.61-0.86 8.39-2.64 10.22-5.7 5.87-1.34-1.92-1.65-1.98-3.02-0.61-1.36 1.36-2 1.37-5.81 0.05-3.34-1.15-5.09-1.24-7.9-0.39-5.7 1.7-6.63 1.39-7.93-2.67-1.92-6-2.89-5.98-2.26 0.05 0.55 5.41 0.49 5.61-2.08 6.26-3.18 0.8-5.62-0.93-5.62-3.99 0-1.2-0.57-2.98-1.28-3.94-1.11-1.52-1.23-1.22-0.9 2.2 0.62 6.5-3.11 10.47-6.58 7-0.89-0.89-1.32-0.77-1.81 0.5-1.02 2.66-2.91 1.95-5.52-2.08-2.85-4.4-4.41-4.14-4.41 0.75v3.5l-5.21 0.3c-4.33 0.25-5.42-0.04-6.46-1.71-1.16-1.85-1.4-1.89-3.02-0.41-1.31 1.18-2.11 1.31-3.09 0.5s-2.82-0.54-7.1 1.03c-4.9 1.81-5.92 1.92-6.69 0.71-1.07-1.69-0.57-3.3 2.38-7.66 1.69-2.5 2.92-3.25 5.32-3.25 3.23-0.01 10.37-5.42 10.37-7.86 0-1.6 4.57-3.37 9.5-3.67 3.2-0.2 4.07-0.67 4.32-2.35 0.39-2.55 4.92-5.93 9.07-6.76 1.75-0.35 3.31-1.41 3.65-2.49 0.33-1.03 1.24-1.88 2.03-1.88s1.43-0.45 1.43-1c0-2.45 3.83-0.73 5.57 2.5 1.9 3.53 3.46 4.56 3.4 2.25-0.02-0.69-0.68-2.38-1.47-3.75-2.16-3.78-1.89-4.41 3.25-7.7 7.11-4.55 8.95-5.35 10.68-4.69 0.87 0.33 1.57 0.1 1.57-0.5 0-1.88 1.64-1.23 2.85 1.14 1.06 2.05 1.11 1.97 0.59-0.93-0.45-2.51-0.14-3.41 1.43-4.25 4.89-2.62 6.86-2.92 9.62-1.5 3.4 1.77 3.51 1.77 3.51-0.07 0-1.71 2.55-2.04 3.53-0.45 0.45 0.72 1.05 0.71 1.96-0.04 4.21-3.5 9.74-1.2 11.3 4.69 0.88 3.34 1.02 3.46 1.11 1.05 0.12-3.23 2.65-3.76 3.6-0.75 0.35 1.1 1.51 2 2.57 2 1.17 0 1.94 0.69 1.96 1.75 0.01 1.43 0.39 1.29 2.04-0.75 1.11-1.38 2.46-3.56 2.99-4.86 0.77-1.85 1.49-2.22 3.38-1.75 1.32 0.33 2.55 0.17 2.73-0.37s1.8-1.27 3.58-1.62c2.83-0.57 3.25-0.38 3.25 1.42 0 1.13-0.45 2.34-1 2.68-1.24 0.77-1.31 2.5-0.09 2.5 0.49 0 1.37-1.35 1.94-3 1.27-3.64 4.8-4.12 6.02-0.83 0.48 1.28 1.08 1.73 1.47 1.1 0.86-1.4 10.64 1.74 10.65 3.42 0.01 0.66-0.93 2.8-2.09 4.75-1.15 1.96-1.63 3.56-1.06 3.56 0.56 0 1.3-0.84 1.62-1.87 0.33-1.03 1.48-2.67 2.55-3.64 1.87-1.69 2.18-1.69 6.48-0.05 3.26 1.24 4.51 2.28 4.51 3.71 0 1.56 0.45 1.84 2.09 1.32 1.38-0.44 2.82 0 4.25 1.29 1.19 1.08 4.79 3.22 8.01 4.76 3.21 1.54 6.36 3.63 6.99 4.64s1.85 1.84 2.7 1.84c2.04 0 3.96 1.97 3.96 4.06 0 1.24 0.65 1.54 2.56 1.17 2-0.38 2.69-0.02 3.12 1.64 0.31 1.17 1.22 2.13 2.03 2.13 0.82 0 1.72 0.9 2.01 2.01 0.29 1.12 1.69 2.28 3.15 2.63 1.45 0.34 3.76 1.6 5.13 2.81 1.38 1.2 3.73 2.95 5.23 3.88 3.13 1.94 6.18 7.18 5.38 9.26-0.81 2.1-9.53 1.89-11.11-0.27-1-1.36-2.75-1.63-9.36-1.47-6.57 0.16-8.14-0.08-8.14-1.27 0-0.8 0.45-1.74 1-2.08s1-1.15 1-1.81c0-0.65-1.56 0.5-3.45 2.56-3.59 3.91-6.17 4.58-9.86 2.55-1.2-0.66-3.2-1.08-4.44-0.93-1.74 0.21-2.25-0.23-2.25-1.95 0-2.1-0.11-2.13-1.83-0.58-2.12 1.92-5.56 2.12-10.02 0.56-3.77-1.32-4.06-3.68-1.15-9.4 2.59-5.08 2.53-5.36-0.5-2.1-1.37 1.49-2.5 3.3-2.5 4.04 0 2.94-3.53 5.57-8.34 6.21l-4.84 0.65 0.34-6.65c0.19-3.66 0.1-6.65-0.21-6.65-0.3 0-1.09 2.65-1.76 5.89-1.41 6.82-2.29 7.78-7.95 8.69l-4.16 0.66 0.43-8.87c0.33-6.86 0.22-7.96-0.48-4.87-0.5 2.2-0.94 6.5-0.97 9.55-0.06 6.27-1.37 8.39-4.21 6.87-1.16-0.63-1.88-2.18-1.95-4.21l-0.1-3.21-0.77 3.22c-1.21 5.1-3.83 8.45-6.34 8.09-2.01-0.29-2.2-0.92-2.35-7.81-0.23-10.85-0.24-11-1.3-11-0.53 0-1.09 4.36-1.25 9.75-0.27 9.23-0.41 9.77-2.52 10.07-1.41 0.2-3.12-0.64-4.62-2.25zm-1.99-15.84c-0.27-0.68-0.48 0.12-0.46 1.77s0.24 2.2 0.5 1.23c0.25-0.97 0.23-2.32-0.04-3zm-55.12-5.66c-0.36-0.59-1.13-1.07-1.72-1.07-0.66 0-0.59 0.57 0.2 1.52 1.38 1.66 2.6 1.29 1.52-0.45zm44.07-29.8c-0.33-0.33-0.57 0.26-0.53 1.31 0.05 1.17 0.29 1.4 0.61 0.61 0.29-0.73 0.25-1.59-0.08-1.92z"></path><g id="g2207" transform="translate(901.63 130.4)"><path id="path2182" sodipodi:nodetypes="ccscccsc" style="fill:black" d="m-510.23 98.81c9.68 17.17 17.45 42.47 26.47 60.14l-0.51 8.49c-0.25 4.03-9.97 3.91-10.1-0.12-0.09-2.85-0.19-5.71-0.28-8.56-4.27-17.58-16.48-34.91-13.84-51.41 0.23-1.4-2.5-9.884-1.74-8.54z"></path><path id="path2184" sodipodi:nodetypes="csccsc" style="fill:black" d="m-629.15 177.95c-19.75 14.42-35.24 36.48-2.27 38.6 2.59 0.17-20.02 3.55-21.67 1.42-12.88-16.75-4.17-29.06 15.71-40.48 4.3-2.47 12.03-2.31 8.23 0.46z"></path><path id="path2188" sodipodi:nodetypes="ccscccsc" style="fill:black" d="m-464.09 176.57c12.46 11.25 26.41 28.07 19.84 41.4-2.58 2.13-5.17 4.27-7.75 6.41-3.85 3.19-13.56 3.76-8.88 1.05l-24.44-5.43c3.92-2.28 32.29 0.88 36.21-1.4 0.16-19.19 2.04-27.32-26.16-39.94-6.71-3 6.49-6.33 11.18-2.09z"></path><path id="path2194" sodipodi:nodetypes="ccsccsc" style="fill:black" d="m-606.93 213.69c0.5-1.42 1-7.63 1.5-9.04 7.71 0.3 15.43 5.39 23.14 5.69 3.16 0.12-1.49-0.51-4.48 0.16-22.59 5.02 10.84-9.03-15.49 3.44-2.64 1.25-5.39 1.77-4.67-0.25z"></path><path id="path2196" sodipodi:nodetypes="csccsc" style="fill:black" d="m-497.77 204.99c2.87 0.65-0.03 6.11 2.84 6.77 3.58 0.82-1.76 0.9-5.39 0.15-3.13-0.64-6.26-1.29-9.38-1.93-4.16-0.85 7.83-5.93 11.93-4.99z"></path></g><metadata></metadata></svg> 