<?xml version="1.0" encoding="UTF-8" standalone="no"?> <!-- Created with Inkscape (http://www.inkscape.org/) --> <svg xmlns:inkscape="http://www.inkscape.org/namespaces/inkscape" xmlns:rdf="http://www.w3.org/1999/02/22-rdf-syntax-ns#" xmlns="http://www.w3.org/2000/svg" xmlns:cc="http://creativecommons.org/ns#" xmlns:dc="http://purl.org/dc/elements/1.1/" xmlns:sodipodi="http://sodipodi.sourceforge.net/DTD/sodipodi-0.dtd" xmlns:svg="http://www.w3.org/2000/svg" xmlns:ns1="http://sozi.baierouge.fr" xmlns:xlink="http://www.w3.org/1999/xlink" id="svg3136" sodipodi:docname="jonadab_Earth_with_one_continent.svg" inkscape:export-filename="C:\joanna\Gfx\drawings_vector\admin\thumbs\jonadab_Earth_with_one_continent.png" viewBox="0 0 321.86 321.86" sodipodi:version="0.32" inkscape:export-xdpi="55.924229" inkscape:output_extension="org.inkscape.output.svg.inkscape" inkscape:export-ydpi="55.924229" inkscape:version="0.46dev+devel" sodipodi:docbase="C:\Documents and Settings\Molumen\Desktop"><g id="layer1" inkscape:label="Layer 1" inkscape:groupmode="layer" transform="translate(-123.76 -99.907)"><path id="path3144" sodipodi:rx="331.42856" sodipodi:ry="331.42856" style="stroke-linejoin:round;stroke:#060c61;stroke-linecap:round;stroke-width:6;fill:#000a9f" sodipodi:type="arc" d="m667.86 336.65a331.43 331.43 0 1 1 -662.86 0 331.43 331.43 0 1 1 662.86 0z" transform="matrix(.48122 0 0 .48122 122.8 98.839)" sodipodi:cy="336.64789" sodipodi:cx="336.42856"></path><path id="path5168" style="fill-rule:evenodd;stroke:#000000;stroke-width:2.8873;fill:#00a415" d="m344.3 128c-7.58 0.21-15.67 3.83-22.48 7.45-10.47 5.57-24.9 11.34-29.14 21.24-5.64 13.15-1.8 32.18-0.5 47.92 0.1 1.21 0.27 2.45 0.5 3.69-0.28-0.42-0.6-0.8-0.94-1.16-1.87-1.99-6.57-0.09-9.11-1.4-1.88-0.97-3.43-3.36-4.15-5.47-1.34-3.95-1.26-8.48-2.01-12.69-1.26-6.99-1.6-14.34-4-20.92-2.54-6.92-3.98-19.16-10.83-19.6-19.14-1.21-27.33 32.41-47.66 24.14-19.64-7.99-1.11-22.89-37.94-24.3-1.25-0.05-2.81 0.17-4.57 0.6-17.64 17.6-31.18 39.3-39.07 63.55-0.1 1.53-0.07 2.96 0.11 4.27 2.05 14.82 5.84 37.33 11.22 51.9 4.46 12.11 4.02 23.05 10.99 33.5 9.62 14.42 24.92 37.36 38.77 41.13 9.81 2.67 22.65-11.46 33.12-18.42 2.69-1.78 5.3-3.7 7.85-5.72-1.62 2.11-2.93 4.62-3.57 6.98-0.51 1.83 0.35 4.07 1.09 5.93 2.48 6.15 4.89 12.68 8.56 18.07 2 2.94 5.15 5.78 8.45 6.91 5 1.7 10.96 1.02 16.44 1.59 3.73 0.39 8.5-0.9 11.2 1.29 5.52 4.49 8.96 12.49 13.46 18.73 6.95 9.61 13.02 20.13 20.89 28.79 3.37 3.71 7.97 7.44 12.52 8.95 5.23-1.33 10.35-2.92 15.36-4.75 1.11-2.39 1.47-5.68 2.83-7.99 1.24-2.11 3.62-3.51 4.82-5.64 1.66-2.91 5.55-8.44 3.76-9.47-3.37-1.95-14.72 2.42-19.22 0.54-2.04-0.85 0.9-6.68-0.43-8.74-0.81-1.24-1.92-3.43-3.07-5.21l0.07-2c1.9 0.11 4.14-4.54 6.55-5.52 1.87-0.77 4.71 1 6.42 0 3.07-1.8 5.95-5.19 7.91-8.41 2.15-3.53 2.81-7.96 4.45-11.85 1.49-3.52 2.91-7.16 4.93-10.38 1.6-2.54 4.95-4.19 5.93-6.91 1.32-3.7 1.31-8.33 0.99-12.35-0.18-2.23-3.64-4.76-2.47-6.42 4.43-6.24 13.51-10.98 19.27-17.29 3.11-3.42 8.98-10.12 7.62-12.02 1.62-0.53 3.07-1.28 4.24-2.31 9.75-8.66 12.4-31.99 22.72-36.07 6.59-2.6 18.08 1.19 26.98 6.29-3.26-44.12-24.51-83.26-56.42-110.12-1.53 0.56-3.07 0.95-4.65 1.08-11.5 0.96-23.68-10.59-35.56-11.37-0.74-0.05-1.48-0.07-2.23-0.04z"></path></g><metadata></metadata></svg> 