<?xml version="1.0" encoding="UTF-8" standalone="no"?> <!-- Generator: Adobe Illustrator 13.0.2, SVG Export Plug-In . SVG Version: 6.00 Build 14948) --> <svg xmlns:dc="http://purl.org/dc/elements/1.1/" xmlns:inkscape="http://www.inkscape.org/namespaces/inkscape" xmlns:xlink="http://www.w3.org/1999/xlink" xmlns:sodipodi="http://inkscape.sourceforge.net/DTD/sodipodi-0.dtd" xmlns:cc="http://web.resource.org/cc/" xmlns:graph="http://ns.adobe.com/Graphs/1.0/" xmlns:rdf="http://www.w3.org/1999/02/22-rdf-syntax-ns#" xmlns="http://www.w3.org/2000/svg" xmlns:x="http://ns.adobe.com/Extensibility/1.0/" xmlns:i="http://ns.adobe.com/AdobeIllustrator/10.0/" xmlns:a="http://ns.adobe.com/AdobeSVGViewerExtensions/3.0/" xmlns:svg="http://www.w3.org/2000/svg" xmlns:ns1="http://sozi.baierouge.fr" id="svg2" xml:space="preserve" sodipodi:docbase="C:\Documents and Settings\Molumen\Desktop" viewBox="141.754 148.038 422.188 725.362" sodipodi:docname="catzzzzz.svg" inkscape:version="0.43" sodipodi:version="0.32" y="0px" x="0px"> <g id="layer1" inkscape:label="Layer 1" inkscape:groupmode="layer"> <path id="path1337" sodipodi:nodetypes="csssssssssszsssssssssssssssssscssss" d="m226.84 339.57c-9.639-12.836-11.672-16.173-10.498-32.443 1.538-21.298 1.024-21.297-27.811 0.045-13.26 9.814-15.87 14.593-14.196 25.994 1.62 11.038 0.188 13.969-6.822 13.969-15.075 0-11.852-33.023 5.248-53.768 7.766-9.421 9.417-22.242 13.333-33.052 5.335-14.724 8.15-26.749 7.036-30.187-6.147-18.961-6.688-27.537-20.197-47.293-21.336-31.2-34.369-29.313-30.51-33.972s25.619 11.278 35.709 26.526 17.636 31.579 27.497 36.857c9.862 5.277 96.892 22.977 130.06 11.147 14.092-5.026 32.012-12.343 47.801-10.56 8.627 0.974 14.686-15.681 18.121-12.668 2.727 2.393-4.928 8.999 10.32 20.788 4.213 3.259 5.418 9.542 5.234 14.562-0.635 17.258-10.467 11.468-23.684 11.468-9.891 0-32.421 13.722-31.935 27.833 0.21 6.109 3.907 24.076 11.33 37.549 4.877 8.849 8.348 17.45 11.244 22.694 4.564 8.259 8.219 9.75-1.262 12.076-2.156 0.529-6.838-5.235-10.262-11.633-3.425-6.399-14.584-29.083-22.336-34.815-12.81-9.47-11.025-9.673-13.885-2.219-1.731 4.511-2.138 27.195 0.738 34.814 4.214 11.165 6.1 13.853-1.634 13.853-3.774 0-6.863-4.326-6.863-9.614s-3.914-18.256-7.812-29.139c-4.306-12.021 1.818-14.643-7.812-19.524s-8.97 0.293-32.079 2.056-30.108-0.974-39.381 12.049c-13.218 18.563-12.685 24.647 3.312 37.745 8.597 7.039 8.312 11.446 3.623 11.445-11.57-0.01-15.26-4.13-21.62-12.59z"></path> <path id="path1453" sodipodi:nodetypes="csssssssssszsssssssssssssssssscssss" d="m226.84 602.83c-9.639-12.836-11.672-16.174-10.498-32.443 1.538-21.297 1.024-21.297-27.811 0.045-13.26 9.814-15.87 14.594-14.196 25.994 1.62 11.039 0.188 13.969-6.822 13.969-15.075 0-11.852-33.023 5.248-53.768 7.766-9.422 9.417-22.242 13.333-33.052 5.335-14.724 8.15-26.749 7.036-30.187-6.147-18.961-6.688-27.537-20.197-47.293-21.336-31.2-34.369-29.313-30.51-33.972s25.619 11.278 35.709 26.526 16.297 37.827 27.497 36.856c11.201-0.971 100.67 5.354 130.06 11.147 14.679 2.893 32.012-12.344 47.801-10.561 8.627 0.974 14.686-15.681 18.121-12.668 2.727 2.393-4.928 8.999 10.32 20.788 4.213 3.259 5.418 9.542 5.234 14.562-0.635 17.258-10.467 11.468-23.684 11.468-9.891 0-32.421 13.723-31.935 27.833 0.21 6.109 3.907 24.076 11.33 37.549 4.877 8.85 8.348 17.449 11.244 22.693 4.564 8.26 8.219 9.75-1.262 12.076-2.156 0.529-6.838-5.234-10.262-11.633-3.425-6.398-14.584-29.084-22.336-34.814-12.81-9.471-11.025-9.674-13.885-2.221-1.731 4.512-2.138 27.195 0.738 34.814 4.214 11.166 6.1 13.854-1.634 13.854-3.774 0-6.863-4.326-6.863-9.615 0-5.287-3.914-18.256-7.812-29.137-4.306-12.021 1.818-14.645-7.812-19.525-9.63-4.881-8.298 9.023-31.407 10.787s-30.78-9.705-40.053 3.318c-13.218 18.562-12.685 24.648 3.312 37.744 8.597 7.039 8.312 11.445 3.623 11.445-11.57-0.03-15.26-4.15-21.62-12.61z"></path> <path id="path1455" sodipodi:rx="8.57376" sodipodi:ry="8.57376" sodipodi:type="arc" d="m311.94 519.91c0 15.207-18.341 27.535-40.966 27.535s-40.966-12.328-40.966-27.535c0-15.207 18.341-27.534 40.966-27.534s40.97 12.33 40.97 27.54z" sodipodi:cy="327.4646" sodipodi:cx="-141.05219" fill="#FFFFFF"></path> <path id="path1411" d="m248.82 539.44c-1.891-2.279-0.639-4.381 4.044-6.783 4.173-2.143 4.686-2.777 6.476-8.006 3.218-9.399 5.671-12.015 13.841-14.754 2.783-0.933 4.053-1.834 3.837-2.72-1.794-7.344-1.135-9.212 2.553-7.238 1.239 0.663 2.237 0.431 3.957-0.922 2.591-2.038 2.909-1.788 3.807 2.999 0.413 2.199 0.253 3.867-0.451 4.716-0.676 0.814-0.853 2.392-0.465 4.156 0.51 2.319 0.106 3.566-2.186 6.759-3.425 4.769-3.844 10.29-0.998 13.137 2.264 2.264 2.317 3.625 0.141 3.625-2.204 0-4.673-2.807-4.673-5.312 0-2.691-2.641-3.607-4.211-1.461-1.62 2.217-1.561 4.055 0.131 4.055 0.748 0 1.36 0.611 1.36 1.359 0 1.096-1.404 1.359-7.199 1.359-3.96 0-7.435-0.381-7.723-0.846-0.308-0.498-2.167-0.285-4.53 0.52-4.413 1.504-6.628 3.416-5.07 4.379 0.523 0.324 0.951 0.973 0.951 1.441 0.01 1.31-2.36 1-3.59-0.47z"></path> <path id="path2338" sodipodi:nodetypes="csssssssssszsssssssssssssssssscssss" d="m226.84 860.82c-9.639-12.836-11.672-16.174-10.498-32.443 1.538-21.299 1.024-21.297-27.811 0.045-13.26 9.814-15.87 14.594-14.196 25.994 1.62 11.037 0.188 13.969-6.822 13.969-15.075 0-11.852-33.023 5.248-53.768 7.766-9.422 9.417-22.242 13.333-33.053 5.335-14.725 8.15-26.75 7.036-30.186-6.147-18.963-6.688-27.537-20.197-47.293-21.336-31.201-34.369-29.314-30.51-33.973 3.859-4.658 25.619 11.277 35.709 26.525s16.297 37.828 27.497 36.857c11.201-0.971 100.67 5.355 130.06 11.146 14.679 2.895 32.012-12.342 47.801-10.561 8.627 0.975 14.686-15.68 18.121-12.666 2.727 2.393-4.928 8.998 10.32 20.787 4.213 3.26 5.418 9.541 5.234 14.562-0.635 17.258-10.467 11.467-23.684 11.467-9.891 0-32.421 13.723-31.935 27.834 0.21 6.109 3.907 24.074 11.33 37.549 4.877 8.848 8.348 17.449 11.244 22.693 4.564 8.26 8.219 9.75-1.262 12.076-2.156 0.529-6.838-5.234-10.262-11.635-3.425-6.398-14.584-29.082-22.336-34.814-12.81-9.469-11.025-9.672-13.885-2.219-1.731 4.512-2.138 27.195 0.738 34.814 4.214 11.164 6.1 13.854-1.634 13.854-3.774 0-6.863-4.326-6.863-9.615 0-5.287-3.914-18.256-7.812-29.139-4.306-12.021 1.818-14.643-7.812-19.523-9.63-4.881-8.298 9.023-31.407 10.787s-30.78-9.705-40.053 3.318c-13.218 18.562-12.685 24.646 3.312 37.744 8.597 7.039 8.312 11.445 3.623 11.445-11.57-0.02-15.26-4.14-21.62-12.6z"></path> <path id="path2342" d="m417.87 867.64c-3.32-4-1.121-7.686 7.098-11.904 7.322-3.76 8.223-4.871 11.363-14.049 5.648-16.496 9.953-21.084 24.289-25.893 4.883-1.637 7.113-3.217 6.732-4.771-3.146-12.889-1.992-16.166 4.48-12.701 2.174 1.162 3.926 0.754 6.943-1.619 4.547-3.576 5.105-3.137 6.682 5.264 0.725 3.859 0.443 6.785-0.791 8.273-1.188 1.43-1.496 4.199-0.816 7.295 0.895 4.07 0.186 6.26-3.836 11.861-6.012 8.367-6.746 18.059-1.752 23.053 3.973 3.973 4.066 6.363 0.246 6.363-3.867 0-8.201-4.926-8.201-9.322 0-4.723-4.635-6.33-7.389-2.564-2.844 3.889-2.74 7.115 0.23 7.115 1.312 0 2.385 1.074 2.385 2.387 0 1.92-2.463 2.385-12.633 2.385-6.949 0-13.047-0.668-13.551-1.484-0.543-0.875-3.803-0.502-7.951 0.912-7.744 2.639-11.631 5.996-8.898 7.686 0.918 0.566 1.67 1.703 1.67 2.527 0.01 2.29-4.15 1.75-6.29-0.83z"></path> <path id="path2344" d="m495.96 867.64c-3.318-4-1.121-7.686 7.098-11.904 7.322-3.76 8.223-4.871 11.365-14.049 5.646-16.496 9.951-21.084 24.289-25.893 4.883-1.637 7.111-3.217 6.732-4.771-3.148-12.889-1.992-16.166 4.48-12.701 2.174 1.162 3.924 0.754 6.943-1.619 4.547-3.576 5.105-3.137 6.68 5.264 0.725 3.859 0.445 6.785-0.791 8.273-1.186 1.43-1.496 4.199-0.816 7.295 0.895 4.07 0.186 6.26-3.836 11.861-6.01 8.367-6.746 18.059-1.752 23.053 3.975 3.973 4.066 6.363 0.248 6.363-3.869 0-8.201-4.926-8.201-9.322 0-4.723-4.635-6.33-7.391-2.564-2.844 3.889-2.738 7.115 0.23 7.115 1.312 0 2.387 1.074 2.387 2.387 0 1.92-2.465 2.385-12.635 2.385-6.947 0-13.047-0.668-13.551-1.484-0.541-0.875-3.803-0.502-7.951 0.912-7.744 2.639-11.631 5.996-8.896 7.686 0.916 0.566 1.668 1.703 1.668 2.527 0.01 2.29-4.15 1.75-6.29-0.83z"></path> </g> <metadata></metadata></svg> 