<?xml version="1.0" encoding="UTF-8" standalone="no"?> <!-- Generator: Adobe Illustrator 13.0.0, SVG Export Plug-In . SVG Version: 6.00 Build 14948) --> <svg xmlns:rdf="http://www.w3.org/1999/02/22-rdf-syntax-ns#" xmlns="http://www.w3.org/2000/svg" xmlns:cc="http://web.resource.org/cc/" xmlns:xlink="http://www.w3.org/1999/xlink" xmlns:dc="http://purl.org/dc/elements/1.1/" xmlns:svg="http://www.w3.org/2000/svg" xmlns:inkscape="http://www.inkscape.org/namespaces/inkscape" xmlns:sodipodi="http://sodipodi.sourceforge.net/DTD/sodipodi-0.dtd" xmlns:ns1="http://sozi.baierouge.fr" id="Layer_1" xml:space="preserve" viewBox="0 0 195.821 309.402" y="0px" x="0px"> <g clip-rule="evenodd" fill-rule="evenodd"> <path d="m98.316 21.848c-1.973 0.096-9.232-1.969-13.445 0 0.535-3.34 13.158-4.359 13.445 0z"></path> <path d="m97.477 26.05c-3.466 0.104-5.262-1.461-9.244-0.84 0.266-3.103 9.838-2.376 9.244 0.84z"></path> <path d="m106.72 55.461c0.48 4.102-10.404 3.474-10.083 0 2.049-1.437 6.003 0.843 10.083 0z"></path> <path d="m114.28 61.343c-0.961 4.642-8.244 2.962-13.445 3.362 1.68-3.919 9.77-1.431 13.44-3.362z"></path> <path d="m126.89 70.587c-7.01 1.296-16.784 2.735-24.369 0.84 1.78-2.687 7.576-1.476 11.766-1.68 4.31-0.211 10.59-2.172 12.6 0.84z"></path> <path d="m115.12 93.275c-1.426 3.056-6.495 2.468-7.562 5.882-2.08-3.238 3.54-5.954 7.56-5.882z"></path> <path d="m114.28 97.477c1.439 1.081 3.303 1.738 3.361 4.201-2.942 0.528-3.997-2.715-8.403 0 0.54-2.54 3.82-2.347 5.04-4.203z"></path> <path d="m126.89 102.52c1.48 2.138 2.157 4.099 0 5.883-2.052-1.477-2.117-4.936-5.881-2.521 0.02-3.05 2.47-3.69 5.88-3.36z"></path> <path d="m68.905 105.88c0.739 2.7-2.77 1.152-2.521 3.362 0.715 2.465 2.115-1.093 4.202 0 0.864 1.937 2.893 2.709 2.521 5.882-1.756 0.484-2.397 2.083-5.042 1.681-0.962-2.643 1.32-2.042 1.681-3.361-0.16-0.68-0.843-0.837-0.84-1.68-2.646-0.406-1.902 2.579-5.042 1.68-1.932-3.2 0.967-7.68 5.041-7.56z"></path> <path d="m115.96 106.72c5.071 3.607-1.375 12.525-6.722 8.403 2.14-2.9 4.59-5.49 6.72-8.4z"></path> <path d="m123.52 111.76c3.792 1.673 0.173 7.146 0 10.083-1.947 0.269-3.226-0.135-4.201-0.84 0.64-3.84 2.74-6.22 4.2-9.24z"></path> <path d="m99.157 115.12c5.528 3.895-3.509 11.154-7.563 13.445 3.924 8.915 19.995 15.392 27.73 8.403 1.387 2.429-1.839 6.216-4.202 7.562-2.718 1.039-0.641-2.719-3.361-1.681-4.443-0.104-7.777 4.3-12.604 5.042-11.412 1.755-22.646-5.361-19.327-17.646-1.77-1.871-6.559-0.724-6.723-4.202 8.67 2.49 25.733 2.03 26.051-10.91zm-17.647 15.97v5.882c3.892-1.15 8.335-1.748 8.403-6.722-2.306-1.89-6.097 0.12-8.403 0.84zm2.521 9.24c1.204 1.316 4.38 0.662 4.201 3.361 3.695-0.506 5.365-3.038 8.404-4.201-0.382-3.54-4.107-3.736-5.883-5.882-1.195 3.29-6.227 2.74-6.722 6.72zm7.563 5.04c4.341 1.042 10.71 0.432 12.604-3.361-4.371-4.39-9.771-0.49-12.606 3.36z"></path> <path d="m114.28 120.16h2.52v2.521c-1.83 0.16-2.67-0.68-2.52-2.52z"></path> <path d="m107.56 134.45c-1.619-2.969 0.273-4.6 1.681-6.722 3.701 0.5 3.236 5.166 8.403 4.202 0.785-0.616 1.272-1.528 1.68-2.521 0.761-4.684-6.37-1.474-6.722-5.042 15.84-4.46 10.5 17-5.04 10.08z"></path> <path d="m39.495 137.81c1.507-0.107 1.772 1.028 3.361 0.84 0.384 2.625-1.795 2.687-4.202 2.521-0.356-1.75 0.576-2.22 0.841-3.36z"></path> <path d="m37.814 140.33c0.431 4.423-7.154 4.423-6.723 0 2.808-1.25 4.11-2.15 6.723 0z"></path> <path d="m68.905 142.01c2.415 0.107 3.99 1.052 3.361 4.202-3.181 0.56-5.508-1.95-3.361-4.2z"></path> <path d="m20.167 142.85c0.346 3.428-0.861 5.302-4.202 5.042-2.108-2.52 0.282-5.93 4.202-5.04z"></path> <path d="m30.251 144.53c0.917 3.999-2.733 3.43-5.882 3.361-0.917-3.99 2.734-3.42 5.882-3.36z"></path> <path d="m72.267 151.26c1.93 0.884 4.355 3.801 2.521 5.882-2.541-0.54-4.849-1.313-5.042-4.201 0.677-0.73 2.301-0.5 2.521-1.68z"></path> <path d="m31.931 161.34c-3.027 0.226-5.812 0.21-5.042-3.363 2.696-1.35 6.024-1.15 5.042 3.36z"></path> <path d="m24.369 159.66c1.559 4.578-3.692 5.13-5.882 3.361 0.096-2.98 2.781-3.38 5.882-3.36z"></path> <path d="m83.191 163.86c-1.808 1.561-5.714 0.126-5.042-3.361 1.807-1.56 5.715-0.13 5.042 3.36z"></path> <path d="m89.073 173.1c-2.032 1.735-5.287 1.875-6.722-0.841 0.689-3.69 7.511-4.74 6.722 0.84z"></path> <path d="m97.477 177.3c-2.072 0.111-4.049 0.128-5.042-0.839v-2.521c2.351-2.1 5.86-0.27 5.042 3.36z"></path> <path d="m94.114 183.19c-1.451 1.465-5.194 0.93-5.882-0.839 0.088-4.27 6.558-4.01 5.882 0.84z"></path> <path d="m53.779 194.11c-2.541-0.541-4.849-1.313-5.042-4.202 2.824-2.73 6.93 2.22 5.042 4.2z"></path> <path d="m31.931 196.63c-0.017 2.304-3.963 1.997-5.042 0.841 0.512-2.44 4.027-3.49 5.042-0.84z"></path> <path d="m73.947 213.44c-4.704 1.737-12.541 0.344-17.646 1.681 2.897-3.14 14.723-1.31 17.646-1.68z"></path> <path d="m73.947 219.32c-4.929-0.971-11.342-1.475-15.125 0.841 0.846-3.55 13.282-3.82 15.125-0.84z"></path> <path d="m81.51 247.89c1.624-3.138 2.006-7.518 1.681-12.605-2.862 0.779-4.929 2.354-9.244 1.681-2.028 2.277 2.601 2.988 1.682 6.724-7.147 5.479-9.465-6.19-17.647-5.043-1.363 2.278-1.083 6.2-1.68 9.244 4.583 5.259 16.205 5.786 22.688 2.521-5.276 7.969-20.192 2.817-26.05-0.842 1.01-3.472 2.367-6.597 1.682-11.764-0.691-3.506-7.183-2.822-4.202-7.563 4.312 1.011 5.952 4.693 9.244 6.723 3.773 0.414 6.296-0.426 9.243-0.84 1.694 1.947 0.671 6.611 4.201 6.723 2.669-1.638-3.576-3.963-0.84-5.883 1.775-2.987 9.219-0.305 10.084-4.2-1.21-10.778-21.295-10.045-28.571-5.042 4.975-5.903 17.813-8.405 25.21-4.202 7.54 4.29 9.392 19.03 2.519 24.37z"></path> <path d="m69.746 231.93c1.104 0.298 1.321 1.48 2.521 1.681-0.124 1.838-2.117 1.806-4.202 1.681-0.612-2.3 1.67-1.69 1.681-3.36z"></path> <path d="m100.84 234.45c0.326 3.407-5.237 0.926-7.563 1.681-0.329-3.41 5.235-0.93 7.563-1.68z"></path> <path d="m79.83 263.02c-6.167-1.503-15 2.682-17.646-0.84 3.844-0.82 15.198-2.48 17.646 0.84z"></path> <path d="m76.469 269.74c-7.254-0.74-15.229-0.342-21.848 1.681 1.219-2.329 5.403-2.92 9.243-3.361 3.914-0.45 10.429-1.1 12.605 1.68z"></path> <path d="m73.947 273.94c-2.854 3.838-14.31 0.307-19.326 2.521 4.898-3.31 13.676-2 19.326-2.52z"></path> <path d="m70.586 281.5c-3.878-0.888-10.846-0.964-16.807 0 2.592-2.06 14.443-3.23 16.807 0z"></path> <path d="m136.97 291.59c-1.988 1.934-7.543 0.301-10.924 0.842 1.19-4.03 7.86-0.4 10.92-0.84z"></path> <path d="m26.049 297.47c0.26-1.14 2.104-0.697 3.361-0.841-0.234 1.95-2.243 1.93-3.361 0.84z"></path> <path d="m120.16 297.47c4.871-2.328 12.235 0.074 17.646 0-3.47 3.76-14.36-0.66-17.65 0z"></path> <path d="m15.966 298.31c0.626-1.895 4.714-0.328 6.723-0.84-0.627 1.89-4.714 0.33-6.723 0.84z"></path> <path d="m30.251 301.67c-2.598 3.564-11.508 0.815-16.806 1.681 4.181-2.5 10.083-0.52 16.806-1.68z"></path> <path d="m128.57 304.19c1.33-2.081 5.878-0.344 7.562 0-1.82 2.58-4.73-0.8-7.56 0z"></path> <path d="m96.636 306.72c-5.833 2.329-8.175-0.843-15.126 0 2.188-3.16 10.894-0.21 15.126 0z"></path> <path d="m26.049 307.56c2.395-0.965 12.402-2.343 13.445 0.841-3.306-2.43-11.142 0.57-13.445-0.84z"></path> <path d="m44.536 308.4c0.105-1.856 3.565-0.357 5.042-0.841-0.104 1.85-3.564 0.35-5.042 0.84z"></path> <path d="m121.84 309.24c-5.573 0.602-14.055-0.596-15.966-0.84-7.806-1.004 1.934-0.173 5.043 0 4.1 0.22 8.33-0.88 10.93 0.84z"></path> <path d="m187.39 87.393c0.201 1.478 1.446 1.915 3.361 1.681-0.66 1.861-5.203-0.161-4.203 3.361-6.141-4.539-13.495 2.959-22.688 0.841 6.922 4.399 17.715-0.369 26.049 0-6.009 4.163-15.597 4.373-24.368 3.361-1.857-0.214-3.366-1.601-5.042-1.681-9.418-0.449-19.601 2.842-26.889-1.68-1.713 1.178 0.826 2.895-0.841 5.042-0.256 1.938 2.427 0.933 2.521 2.521 4.033-1.018 8.002-0.437 12.603 0 13.819 1.314 29.975-0.812 39.496-1.68-11.731 4.939-29.781 4.253-46.218 4.201-3.585-0.011-7.345-3.124-9.242 0.84 2.239 3.125 6.212 1.435 9.242 1.681 14.918 1.216 30.471 0.354 43.696-3.361-3.266 4.661-12.106 4.213-19.327 5.042-8.887 1.02-25.265 0.053-34.453 0.84 15.026 6.419 34.317 1.034 50.418-0.84-12.585 6.069-34.518 7.321-51.258 4.202 0.125 6.286 9.683 4.25 15.125 5.042 7.655 1.114 21.794 0.508 29.41-1.681-2.087 2.871-6.961 3.61-10.924 4.202-10.214 1.525-23.083-0.565-33.611-1.681-1.248 0.714-1.807 2.115-1.681 4.201 8.805 1.234 28.234 4.491 39.494 0.84-3.406 5.522-13.272 3.831-21.008 3.361-6.037-0.366-12.417-0.279-17.647-1.681 0.164 9.838 29.552 8.072 36.133 4.202 2.969-1.746 10.905-8.691 13.445-11.765 6.465-7.82 8.296-19.347 14.286-24.369-4.582 31.553-28.865 43.403-57.982 50.418-2.915 0.675-3.231-1.251-5.883-0.84-7.104 6.903-19.811 8.199-27.73 14.285 1.19 4.994 3.147 10.451-2.521 11.766 0.963 4.638 5.742 5.462 5.882 10.923-0.161 3.482-4.438 2.845-5.042 5.883 5.775 9.505-5.996 11.248-9.244 16.807-1.216 3.177 2.309 1.612 1.681 4.201-1.756-0.355-2.225 0.576-3.361 0.841-3.544 0.142 0.015-1.291 0-2.522-2.861-0.06-3.13 2.472-4.201 4.203 4.254 0.381 12.704-3.226 15.125 0.839-5.634 0.25-12.655-0.891-15.966 1.68 6.416 0.949 17.313 1.122 21.008-1.68-2.05-4.392-8.405-4.479-10.925-8.403 9.412-0.448 10.784 7.143 18.488 8.403 4.018 9.206 17.473 18.994 9.242 30.251-11.056 0.412-15.355-5.933-18.486-13.444 6.582 2.662 6.696 11.789 16.806 10.923 1.938 0.258 0.933-2.428 2.521-2.521 0.115-6.838-3.652-9.794-6.722-13.446-4.223 0.147-7.919 2.621-11.766 1.682-2.333-0.571-2.33-2.357-4.201-2.521-4.189-0.368-8.18 1.945-14.285 0.839-0.921 7.644 13.586-0.14 15.125 5.043h-12.605c-0.033 5.354 8.216 2.428 11.765 4.2-0.559 2.929-5.405-0.248-9.244 0.842 1.523 4.638 1.808 10.516 7.563 10.923 0.268 2.229-4.707-0.785-3.362 2.521-1.205 4.006 6.248-0.645 5.042 3.361h-4.202c1.198 12.974-5.571 23.71-10.083 33.612 6.591 4.004 16.118 8.812 24.369 6.723 6.622-1.676 19.789-18.697 19.327-28.571-0.385-8.227-5.626-12.347-5.883-19.327 4.965 4.166 7.719 11.853 8.405 17.646 1.73 14.626-12.041 26.271-21.849 32.773 2.648 2.674 4.337 6.307 9.244 6.722-1.036 1.767-2.327 3.276-3.361 5.042 1.927 1.993 8.157-0.314 10.083 1.681-16.73-1.836-36.559 0.112-52.94-0.841-2.458 0.343-2.727 2.875-4.201 4.202-3.468-0.756-8.867-3.987-12.604-1.681-4.082-1.521-3.169-8.035-7.563-9.244-1.879 0.362-0.34 4.143-0.84 5.883-2.377-3.1-3.58 0.298-6.722 0.84-2.07-4.933-7.114-6.892-8.404-12.604 7.897-2.895 19.675 0.626 27.731-3.361 4.489 0.271 4.154 5.37 8.403 5.881 11.539-2.572 22.571-24.853 24.369-37.813 0.247-1.783-1.595-1.817-1.681-2.521-0.19-1.561 4.956-5.732-0.84-5.041 3.517-3.57-4.116-19.896-9.243-27.73-0.899-1.373-2.465-1.426-3.361-2.521-1.035-1.265-0.866-3.161-1.681-4.201-4.702-5.996-11.098-11.001-16.807-12.605-1.4 1.122-1.305 3.737-2.521 5.042-4.229-2.214-7.285-5.601-10.084-9.244-3.67 8.261 9.851 17.889 1.681 27.731-2.559 0.036-3.267-1.774-5.042-2.521-2.215 0.586-1.776 3.826-4.202 4.202-3.447-2.713-6.424-2.651-9.244 0.84-2.697 0.736-1.742-2.181-3.361-2.521-3.312-0.232-2.569 3.592-5.882 3.361 0.709-2.651 4.332-2.391 5.042-5.042-0.704-3.692-3.302-0.622-5.042-2.521 0.315-4.167 5.32-3.643 5.882-7.563-3.223-3.5-1.112-12.332-7.562-12.605 0.369-6.211 1.383-11.853-1.681-15.964 6.567-1.277 7.797-7.89 15.125-8.404 1.919-3.402 3.226-7.418 5.042-10.923-8.206 1.316-15.667 3.38-21.848 6.722-5.746-2.351-2.104-10.427-2.521-16.807-3.694-3.87-11.067-4.059-13.445-9.244 3.663-1.948 7.111-2.455 10.923-4.201 6.35-2.908 13.188-9.736 18.487-10.083 6.602-0.434 10.116 6.02 18.487 5.882 2.635 0.393 2.369-2.113 3.361-3.361 3.007 2.314 9.004 1.639 14.285 1.68 0.22-2.46-1.9-2.582-1.68-5.042-4.299-0.378-5.542 2.301-9.243 2.521-5.013-1.799-10.67-1.561-15.966-3.361-2.184-0.743-7.114-4.252-10.084-5.883-14.954-8.214-26.214-21.151-22.688-46.217 3.126-22.221 18.584-40.084 36.134-48.738 10.372-1.116 20.888-6.558 31.931-4.202 8.025-11.323 14.68-23.994 33.63-24.373 4.1 1.781 5.999 5.766 10.923 6.723 4.149 9.126 7.866 19.371 10.085 31.091 1.075 5.689-0.446 12.524 0.839 16.806 0.858 2.857 5.705 6.043 8.403 9.243 3.045 3.61 5.274 8.198 9.244 11.765 6.006 5.396 12.073 9.891 22.688 9.243 10.519-0.641 13.897-8.817 23.529-13.445 3.047 4.807-2.809 4.758-4.202 7.562 1.111 3.564 4.218-0.747 6.722-0.84 0.154 0.714-0.328 0.793-0.839 0.84-2.54 2.778-3.71 6.922-7.55 8.405zm-94.116 131.93c2.287-0.082 6.354 2.349 5.882-0.839-3.655-1.947-10.914-0.291-15.966-0.841 0.013 4.65 6.474 1.81 10.084 1.68zm-62.183 5.04c2.172-3.587 5.728-2.089 8.404 0 1.581-4.341 4.12-4.496 8.403-2.521 2.061-4.568 0.555-12.125-1.681-15.125-8.008-2.402-13.645 1.815-17.646 5.881-0.674 2.915 1.251 3.231 0.84 5.883-2.608 0.087-2.398-2.643-5.882-1.681 1.477 3.57 3.997 6.09 7.562 7.56zm22.688-78.99c-0.9-2.46-2.384-4.337-1.681-8.403h-2.521c-2.168 3.44 0.729 7.93 4.202 8.4zm36.134-135.29c3.344-0.917 5.455-3.657 8.403-5.042 1.112-0.523 3.071 0.447 2.521-1.681-4.471 1.415-8.995 2.772-10.927 6.723zm13.447 6.723c-2.234 0.474-4.279-3.457-5.882-0.84 1.833-0.152 2.673 0.688 2.521 2.521-4.168-2.136-11.223 0.637-14.285-0.84 2.274-1.465 3.231-3.376 1.68-5.882-3.33 3.393-5.951 7.494-7.562 12.605 21.196 2.612 33.768 13.85 46.217 25.209 0.716-5.656-2.231-12.735-4.203-20.167-0.347-1.312 0.315-2.882 0-4.202-2.616-11.003-10.916-23.807-16.805-19.327 0.854 3.347-0.096 5.859-1.681 7.562-1.675-1.974-7.24-4.102-9.244-0.84 4.284 0.195 9.634-0.673 9.244 4.201zm-0.84-8.403c-5.384-0.97-1.85 2.566 0 0zm0.84 29.41c5.62 3.31 11.252 10.045 15.966 15.125 2.464 2.656 5.41 4.968 7.562 7.562 3.771 4.543 5.799 10.095 9.244 13.445 2.999 2.915 7.875 6.479 11.764 9.243 10.841 7.704 21.49 10.551 35.294 4.202 1.798-4.088 3.464-2.521 5.041-6.723-1.105-2.225-4.152 1.093-5.041 1.681-1.801 1.192-3.529 3.323-5.882 4.202-10.389 3.883-21.713-0.339-28.57-5.042-6.677-4.578-8.507-10.658-13.445-15.965-2.51-2.697-5.324-4.919-7.563-7.563-14.02-16.563-30.568-32.579-58.815-30.25 13.647 4.272 24.491 4.217 34.455 10.083zm15.12 19.328c-4.534-4.828-11.872-13.808-16.806-16.807-3.812-2.316-10.371-3.635-15.126-5.042-11.951-3.535-19.76-4.211-33.613-3.361-11.864 0.728-23.105 6.84-29.411 14.286-7.737 9.136-15.46 31.005-13.445 46.217 1.592 12.01 9.262 18.616 17.647 25.209 5.255 4.131 11.69 8.706 15.966 10.084 3.239 1.043 9.49 1.87 11.765 1.681 4.447-0.37 7.498-2.058 10.083-5.883-2.335-4.941-7.088-2.919-8.402-8.403-1.497-6.241 4.46-12.68 6.722-17.646-0.005-3.636-1.951-5.333-1.681-9.243 7.215-10.116 16.712-14.017 33.612-12.605 1.217 0.102 1.784 1.459 3.362 1.681 1.575 0.221 3.003-1.106 4.202-0.84 4.931 1.094 9.751 4.772 15.125 5.882 2.836 0.585 6.161 0.657 9.244 0.84 4.086 0.243 10.438 1.208 14.286-1.681-6.252-7.907-24.559 0.068-33.613-5.882h24.369c-4.14-7.585-8.93-12.777-14.29-18.484zm-31.088 26.889c-2.556 1.482 2.293 2.602 0 3.362-2.73 0.071-5.169 0.433-6.722 1.681 1.221 0.459 4.343-0.982 4.202 0.84-3.033 1.606-0.346 2.41 0 5.042-1.652-1.553-5.197-0.259-6.722 0.84 2.084-0.124 4.077-0.156 4.201 1.681-4.013-0.398-4.769 0.356-2.521 2.521-2.915 0.167-6.459-0.296-6.723 2.521 2.152 0.911 4.007-2.552 5.043 0-0.823 1.139-2.833 1.089-3.362 2.521-2.405-2.636-6.94-3.143-10.923-4.202-2.406 3.196-2.491 8.713-3.361 13.445 2.149 4.996 9.45 5.93 14.285 5.882-0.417 3.503-5.476 2.367-7.562 4.201-2.487 7.132 3.135 12.536 8.404 11.765 0.286 13.999 8.715 19.855 23.528 19.327 2.526-0.606 3.513-3.757 5.882-5.042 6.806-3.689 15.942-2.773 20.167-9.244 3.118-4.773 3.409-12.297 0-19.328 2.737-6.227 3.406-14.521 5.883-21.008-1.173-3.564-5.11-4.034-7.563-4.201-0.101-4.408 7.268 0.523 7.563-1.681-10.006-7.639-20.548-14.745-36.134-16.806-0.682 3.809-3.649 5.322-7.564 5.889zm72.268 8.404c-5.459-2.385-11.099-4.587-15.126-8.403-5.454 1.334-15.555 1.334-21.008 0 4.3 9.592 24.46 11.726 36.14 8.403zm-92.435 6.722c1.075 0.046 1.165 1.077 2.521 0.84-0.036-1.156 0.396-1.845 0.84-2.521-1.565 0.116-2.808 0.553-3.361 1.681zm-40.335 36.133c1.833-0.153 2.674 0.688 2.521 2.521-1.306 1.215-3.274 1.768-5.042 2.521-0.264-1.136-1.196-1.604-0.84-3.361-5.111 1.05-7.765 4.56-12.605 5.882 2.125 2.646 1.398 3.767 0 6.723 12.673 3.73 28.502-1.724 35.293-9.244-4.921-2.59-14.575-10.23-19.327-5.04zm104.2 4.2c1.627-1.263-1.469-3.538 1.681-4.202 4.751 0.671 13.87 1.127 17.647-1.68-7.55 0.546-13.269-0.738-20.167-0.84 0.64 3-2.61 5.77 0.84 6.72zm-73.948-2.52c0.776 1.464-0.029 4.51 2.521 4.202-0.886-3.165 3.642-3.827 0-5.042-0.142 0.98-1.329 0.91-2.521 0.84zm42.855 23.53c-3.72 1.198-2.198-2.843-5.042-2.522-2.109 1.532-1.54 5.745-5.042 5.883-7.38-5.505-14.861-10.908-15.966-22.688-2.872-1.329-5.636-2.767-7.562-5.042-1.808 0.713-1.948 3.094-1.68 5.882 4.902 6.302 3.092 19.316 8.402 25.209 0.098-2.144 0.158-4.324 2.522-4.201 4.368 3.13 0.567 11.731 5.882 15.125 0.203-1.479 1.445-1.915 3.361-1.681 0.358 1.602 2.401 1.52 1.68 4.203-1.57 1.645-3.077 0.258-5.042 0 1.603 3.718 2.233 8.409 5.042 10.922 0.157-2.362 1.462-3.58 4.202-3.361 0.705 0.976 1.108 2.253 0.84 4.202-1.104 1.079-3.097 1.079-4.202 0 0.232 1.472-2.366 4.192 0 5.042-0.198-4.523 6.374 0.207 8.403-3.361-1.796-3.137 0.067-4.084 1.682-5.883-1.727-0.234-1.677-2.245-2.522-3.361 2.35-2.132 5.194-3.77 6.723-6.722-1.137-4.399-7.245-6.63-5.883-10.924-2.646-0.405-1.902 2.58-5.042 1.681 0.002-0.843-0.681-1-0.84-1.681-0.272-3.672 6.604-4.802 5.882 0 3.11-0.53 4.683-2.6 4.2-6.72zm33.613-21.01c1.445 0.045 2.154-0.647 2.52-1.681-1.32 0.08-2.91-0.11-2.52 1.68zm-72.267 5.04c-3.194-2.32-3.693 3.09 0 0zm-15.126 15.13c2.187-4.257 3.601-9.286 7.562-11.766-3.44-0.2-4.428-2.854-7.562-3.361-1.353 3.08-3.523 12.57 0 15.13zm-40.335-13.45c2.831 2.56 2.548-3.1 0 0zm34.453 4.21c-9.393 2.652-18.516 5.572-25.209 10.924 0.1 2.419-0.459 5.5 0.84 6.722 3.226 0.027 6.229-1.549 10.083-2.521 6.537-1.648 17.348-1.887 15.966-8.403-0.817-0.911-7.405 3.376-5.882-3.361 3.013-1.626 3.078 0.323 5.882 0.84-0.692-2.108 1.633-7.236-1.681-6.723-0.326 1.19-1.008 1.41 0.001 2.52zm7.562 26.05c0.047 3.968-2.773 5.069-5.042 6.722 2.109 3.744 4.113 3.507 1.68 8.403 5.645 1.64 6.075 8.492 11.765 10.085 7.971-7.696 13.614-20.168 12.604-35.293-0.434-6.507-4.061-12.557-4.201-18.488h-4.202c3.17 8.79 5.778 32-12.604 28.57zm7.564-25.21h1.681c1.306-2.069-2.854-2.471-2.521-0.84 0.512 0.04 0.994 0.12 0.84 0.84zm-2.522 5.88c0.976 0.706 2.253 1.108 4.203 0.839v-4.2h-2.521c-0.438 1.24-1.244 2.12-1.682 3.36zm0 4.2c-0.39 2.629 0.731 3.751 3.362 3.361-0.189-1.59 0.947-1.855 0.84-3.361-2.681 0.5-2.599-1.58-4.202 0zm-7.563 3.36c2.072 0.109 4.048 0.126 5.042-0.841 0.323-4.25-5.685-2.42-5.042 0.84zm14.286 0h1.681v-3.361h-1.681v3.36zm-21.848 5.04c1.495 1.569 2.135-0.684 5.042 0 0.121-2.643-2.155-2.887-4.202-3.361 0.188 1.59-0.947 1.86-0.84 3.36zm10.083 0c0.045-1.446-0.647-2.154-1.681-2.521-1.201 1.23-1.234 3.26 1.681 2.52zm7.564 4.2c1.157-1.082 0.832-3.65 0.84-5.881h-2.522c1.512 2.13-1.597 4.77 1.682 5.88zm18.486-5.88c-3.042 3.97 4.92 1.12 0 0zm-34.452 8.41h3.361v-3.361c-2.316-2.62-5.977 1.04-3.361 3.36zm33.611 2.52c0.896-2.282 0.534-3.934-1.68-5.042-1.293 1.27-1.497 5.76 1.68 5.04zm-37.813 5.04c0.967-0.993 0.95-2.971 0.84-5.043-2.571 0.61-2.472-1.45-5.043-0.839-0.7 4.06 1.063 5.66 4.203 5.88zm4.202-0.84c2.138-0.103 3.259-1.222 3.361-3.361-2.316-2.62-5.977 1.04-3.361 3.36zm-12.605-0.84h1.681v-1.68h-1.681v1.68zm42.856 4.2c1.157-0.036 1.845 0.396 2.521 0.841 1.232-1.332 1.734-6.673-1.681-5.883 0.607 2.57-0.859 3.06-0.84 5.04zm9.243 0.84v-4.203h-2.521c-1.634 1.62-0.879 5.14 2.521 4.2zm-57.141 4.2c2.51-1.41 6.147-1.694 6.722-5.042-0.094-2.147-2.813-1.667-5.042-1.681 0.544 3.34-2.224 3.38-1.68 6.72zm-0.84 6.72c6.108-0.226 3.667 8.099 6.722 10.925 5.191-3.212 8.64-8.167 16.806-8.403-0.499-3.982-0.952-8.011-5.042-8.403-1.136 1.396 0.475 4.691-4.201 4.201 0.32-5.965 4.321-3.891 6.722-8.403-8.851-1.77-18.288 2.92-21.007 10.07zm47.897-5.88c2.406 0.166 4.586 0.104 4.201-2.521-1.463 0.063-2.613-0.188-3.361-0.84-0.264 1.14-1.195 1.61-0.84 3.36zm8.404 0.84c0.201-1.198 1.383-1.417 1.68-2.52-2.072-2.69-5.19 1.96-1.68 2.52zm5.042 1.68c1.332-1.257 0.619-3.437-0.84-4.201 0.458 1.22-0.983 4.34 0.84 4.2zm-11.765 2.52h1.681c1.307-2.068-2.854-2.47-2.521-0.841 0.512 0.05 0.995 0.13 0.84 0.84zm17.646 2.52h1.681v-1.681h-1.681v1.68zm-3.36 1.69c-5.702-0.068-16.68-1.675-21.848-1.682 4.825 2.31 16.942 7.42 21.848 1.68zm-5.042 10.92c1.432-1.809 5.053-4.417 3.361-6.722-2.537 1.132-6.707 1.132-9.244 0 0.301 3.9 2.863 5.54 5.883 6.72zm20.167 0c-7.196-0.474-12.882 0.564-19.327 0.841 1.721 4.19 18.669 4.18 19.327-0.84zm2.523 7.56c5.786 0.744 5.46-4.625 10.924-4.202 0.041-2.841-1.956-3.645-3.361-5.042-5.454-0.971-5.98 2.983-10.083 3.361-0.856 3.66 1.743 3.86 2.523 5.88zm-33.615 74.79c0.067 3.295 1.481 5.242 2.521 7.563 6.703 0.005 14.299-0.236 17.646 0.84 1.859-1.209-1.057-2.05 0.84-2.521 2.577 0.817 9.364 1.797 11.765 0-5.483 0.161-3.214-7.43-8.403-7.563-1.417 2.284 1.333 3.936-1.681 5.042-1.885-3.316-5.583 0.401-7.562-2.521 0.408-4.328-0.64-7.204-3.361-8.402-2.764 3.68-6.158 6.73-11.768 7.56zm-10.924 0h2.521c0.108-1.508-0.834-1.966-2.521-1.681v1.68z"></path> <path d="m26.89 246.21c-3.889-1.646-8.521-5.354-13.444-3.361-3.348-4.969-2.225-9.198 1.681-14.286 7.746 1.486 19.5-1.378 14.285 10.084-4.672 0.815-8.755-2.741-10.083 1.681 1.875 2.888 7.908 1.617 10.083 4.202 1.06 6.382-3.1 7.544-5.882 10.083 3.088 1.052 7.158-0.995 10.084 2.521-1.644 4.999-1.68 5.408-1.682 9.244-8.316-1.526-13.721-3.689-19.326 1.681-0.686-2.349-3.541-13.53 2.521-11.766-1.765 2.633-1.224 2.701-0.84 6.723 3.147-0.213 5.403-1.318 6.722-3.361-0.732-4.311-6.185-3.898-8.403-6.723 4.646-3.48 14.519 5.31 14.284-6.7zm0.84-10.08c2.108-2.528-0.281-5.94-4.202-5.041 0.851 2.23 1.382 4.78 4.202 5.04zm-12.604 2.52c3.977 0.148 5.414-3.173 4.201-5.881-0.975-0.706-2.253-1.11-4.201-0.842-0.535 1.92-1.667 5.07 0 6.72zm10.083 24.37c3.445 1.948 4.67-1.584 5.882-4.201-1.494-0.747-2.135-2.346-5.042-1.681 3.198 2.84 1.962 3.33-0.84 5.88z"></path> <path d="m22.688 269.74c-1.271 3.491-2.845 6.678-7.562 6.722 1.553 5.028 10.996-1.005 10.083 7.562-3.551 4.8-12.006-0.35-13.445 6.724 5.618 5.428 11.565-5.825 17.647-2.521 0.549 4-2.786 1.01-5.042 1.68-4.244 1.262-6.727 5.682-14.286 4.203-3.33-2.796-2.869-11.106-2.521-15.127 2.931-3.231 8.498-3.826 11.765-6.723 0.898-3.139-2.086-2.395-1.681-5.041 1.582-1.47 3.89 1.06 5.042 2.53zm-10.924 18.49c1.588-2.054 3.211-4.072 4.202-6.723-2.054-0.747-3.644-1.959-6.723-1.681-0.137 3.77-0.187 7.46 2.521 8.4zm9.244-3.36c3.834 0.619 1.903-6.121 0-3.361 2.516 0.55-0.804 1.79 0 3.36z"></path> </g> <metadata></metadata></svg> 