<?xml version="1.0" encoding="UTF-8" standalone="no"?> <!-- Created with Inkscape (http://www.inkscape.org/) --> <svg xmlns:inkscape="http://www.inkscape.org/namespaces/inkscape" xmlns:rdf="http://www.w3.org/1999/02/22-rdf-syntax-ns#" xmlns="http://www.w3.org/2000/svg" xmlns:sodipodi="http://sodipodi.sourceforge.net/DTD/sodipodi-0.dtd" xmlns:cc="http://creativecommons.org/ns#" xmlns:xlink="http://www.w3.org/1999/xlink" xmlns:dc="http://purl.org/dc/elements/1.1/" xmlns:svg="http://www.w3.org/2000/svg" xmlns:ns1="http://sozi.baierouge.fr" id="svg2" sodipodi:docname="m.svg" viewBox="0 0 69.502 54.701" sodipodi:version="0.32" inkscape:output_extension="org.inkscape.output.svg.inkscape" inkscape:version="0.46dev+devel" sodipodi:docbase="/media/2GB STICK/Downloaddateien"><defs id="defs4"><linearGradient id="linearGradient2198"><stop id="stop2218" style="stop-color:#767676" offset="0"></stop><stop id="stop2220" style="stop-color:#bbbbbb" offset=".66667"></stop><stop id="stop2202" style="stop-color:#dfdfdf" offset="1"></stop></linearGradient><linearGradient id="linearGradient2463" y2="67.469" xlink:href="#linearGradient2198" spreadMethod="reflect" gradientUnits="userSpaceOnUse" x2="45.681" gradientTransform="translate(299.49 -491.11)" y1="54.347" x1="36.311" inkscape:collect="always"></linearGradient><linearGradient id="linearGradient2465" y2="74.704" xlink:href="#linearGradient2198" spreadMethod="reflect" gradientUnits="userSpaceOnUse" x2="68.138" gradientTransform="translate(286.68 -516.73)" y1="65.935" x1="61.794" inkscape:collect="always"></linearGradient></defs><g id="layer1" inkscape:label="Ebene 1" inkscape:groupmode="layer" transform="translate(-527.6 -98.818)"><path id="path5736" style="stroke-width:2;color:#000000;stroke:url(#linearGradient2465);fill:url(#linearGradient2463)" d="m542.4 100.22v7.5c1.13-2.27 2.73-4.15 4.8-5.65s4.37-2.252 6.9-2.252c4.87 0 8.6 2.032 11.2 6.102 2.07-2 4.22-3.52 6.45-4.55 2.23-1.04 4.75-1.552 7.55-1.552 5.2 0 9.37 1.962 12.5 5.902 2.87 3.6 4.3 7.97 4.3 13.1v31.7l-15 2v-31.7c0-2.14-0.37-3.83-1.1-5.1s-2.1-1.9-4.1-1.9c-1.8 0-3.28 0.68-4.45 2.05-1.16 1.36-1.75 3.01-1.75 4.95v29.7l-15 2v-31.7c0-2.14-0.3-3.74-0.9-4.8-0.8-1.47-2.16-2.2-4.1-2.2-1.73 0-3.18 0.71-4.35 2.15-1.17 1.43-1.75 3.05-1.75 4.85v29.7l-15 2v-50.3l13.8-2z"></path></g><metadata></metadata></svg> 