<?xml version="1.0" encoding="UTF-8" standalone="no"?> <!-- Created with Inkscape (http://www.inkscape.org/) --> <svg xmlns:inkscape="http://www.inkscape.org/namespaces/inkscape" xmlns:rdf="http://www.w3.org/1999/02/22-rdf-syntax-ns#" xmlns="http://www.w3.org/2000/svg" xmlns:sodipodi="http://sodipodi.sourceforge.net/DTD/sodipodi-0.dtd" xmlns:cc="http://web.resource.org/cc/" xmlns:xlink="http://www.w3.org/1999/xlink" xmlns:dc="http://purl.org/dc/elements/1.1/" xmlns:svg="http://www.w3.org/2000/svg" xmlns:ns1="http://sozi.baierouge.fr" id="svg4930" sodipodi:docname="bech.svg" viewBox="0 0 1052.4 744.09" sodipodi:version="0.32" inkscape:version="0.44.1" sodipodi:docbase="/home/kurumin/Desktop/Meus Documentos/Inkscape_Art's"><g id="layer1" inkscape:label="Camada 1" inkscape:groupmode="layer"><rect id="rect15024" style="stroke-opacity:0;fill:#f9f9f9" height="577.19" width="1108.2" y="-2.1997" x="-16.018"></rect><path id="path26732" style="stroke-opacity:0;fill:#ececec" d="m97.532 40.355c20.528-8.687 42.738-13.985 64.838-19.368 18.68-4.177 37.07-9.236 55.27-14.554-8.1 26.693-80.34 45.999-111.99 58.959-31.167 13.765-64.921 23.227-96.31 36.598 59.089-33.773 129.57-15.954 199.23-16.951 135.66-5.937 270.71-19.063 404.79-36.474-38.92 24.516 68.04-19.313 53.93-9.785-42.87 28.933-80.08 21.46-132.42 21.903-132.98 0.23-265.86 4.258-398.28 13.995-39.821 3.884-79.942 7.227-119.2 14.134-5.806 1.022-21.959 6.619-17.22 3.731 33.573-20.464 29.279-18.848 54.595-19.193 129.64 8.96 260.08 8.321 390.1 8.598 108.84-1.007 218-0.062 326.71-5.54-14.41 8.544-27.34 19.012-43.24 25.632-23.76 9.89-207.36 16.79-240.88 20.06-124.67 13.33-249.28 27.71-371.65 51.37-7.79 2.08-29.741 10.37-23.367 6.22 49.277-32.12 147.38-7.94 202.82-5.93 187.98 5.39 376.11 4.42 564.12 1.02 22.85-0.18 192.23-13.69 35.43 21.33-32.13 7.18-66.68-1.13-100.03-1.43-173.78-2.73-347.38-2.12-520.77 8.01-68.12 5.45-136.92 9.53-204.08 20.85-6.952 1.17-26.016 7.97-20.643 4.23 10.827-7.52 25.259-10.81 37.889-16.22 102.42 6.37 207.62 8.07 311.05 9.34 142.56 1.91 285.12-1.13 427.68-1.2 6.34 0.26 13.32-1.47 19.02 0.78 2.44 0.95 1.94 5.5-0.45 6.53-72.57 31.12-147.57 24.16-227.38 26.19-123.86 3.14-247.46 13.26-369.61 30.01-6.53 1.83-25.41 8.47-19.59 5.47 59.62-30.7 150.74-0.93 218.66 4.05 141.66 8.72 283.79 8.78 425.75 7.01 125.1-15.79 47.82 22.3-15.46 22.34-101.15 2.08-201.76 12.51-301.43 26.08-12.83 1.31-112.97 24.8-17.37-4.66 8.73-2.69 75.06 10.17 78.62 10.54 125.93 9.34 252.58 9.5 378.91 7.54 144.93-10.57-2.74 26.71-52.99 32.27-74.7 8.9-150.17 16.36-223.36 31.77-32.56 11.64 25.6-14.93 33.96-19.2l-43.5 23.64c-20.44-16.25 26.94-24.17 47.23-27.45 71.96-8.95 144.23-16.41 215.87-27.03 148.52-23.28 51.62 18.41-5.94 2.77-126.47-4.02-253.01-5.05-379.54-7.45-145.08-5.59-97.91-22.96-1.86-40.84 101.6-10.41 203.36-20.06 305.29-28.02 122.27-10.02-10.7 31.26-47.52 14.64-139.48-5.86-279.15-7.23-418.72-11.24-21.72-0.84-311.46 0.05-144.57-41.73 119.62-9.24 239.38-17.64 359.33-23.59 13.83-0.73 166.3-15.47 174.52-12.53 7.64 2.72-13.55 8.76-16.79 14.95-1.17 2.24 10.88 1.77 9.04-0.16-2.75-2.9-8.52-2.52-12.79-3.78-136.23-11.67-273.69-8.06-410.44-8.69-112.7 0.65-233.59 10.56-343.54-3.06 77.7-35.69 164.05-30.52 252.61-34.72 175.66-6.72 351.4-7.38 527.15-11.67 21.42-0.87 42.86-1.46 64.25-2.61 16.04-0.86 35.09-11.11 48.04-3.45 27.76 16.44-96.24 31.17-92.76 12.56-187.83-4.67-375.77-3.61-563.65-1.33-28.17 0.29-313.77 15.49-127.09-31.68 119.46-16.95 239.81-29.25 359.72-43.9 65.7-7.66 131.46-15.195 196.97-23.827 21.71-2.86 75.61-25.73 64.71-10.369-7.68 10.806-24.34 15.368-36.51 23.052-98.76-16.73-204.44 0.222-304.09-7.445-137.47 0.172-274.92 1.482-412.36 3.92-76.041-10.84 130.04-42.42 144.82-35.227 134.13-6.614 268.39-10.6 402.58-16.424 120.56-6.843 151.48-2.609 21.1 22.05-133.59 11.499-267.11 23.598-400.87 33.822-25.89 1.258-267.91 27.178-135.05-22.983 30.487-11.107 61.95-20.535 91.37-33.497 59.25-24.886-40.578 8.602 35.49-10.81-16.89 4.043-33.78 8.153-50.76 11.976-23.62 5.969-47.155 12.409-68.452 22.803l41.064-26.726z"></path><g id="g16138" transform="matrix(1.0291 0 0 1.0075 188.25 -1033)"><path id="path15000" sodipodi:rx="181.1116" sodipodi:ry="109.25754" style="stroke-opacity:0;fill:black" sodipodi:type="arc" d="m1126 430.1a181.11 109.26 0 1 1 -362.18 0 181.11 109.26 0 1 1 362.18 0z" transform="matrix(.88040 0 0 1.1621 -128.88 1001.2)" sodipodi:cy="430.10208" sodipodi:cx="944.93005"></path><path id="path14928" sodipodi:rx="181.1116" sodipodi:ry="109.25754" style="stroke-opacity:0;fill:#fd5" sodipodi:type="arc" d="m1126 430.1a181.11 109.26 0 1 1 -362.18 0 181.11 109.26 0 1 1 362.18 0z" transform="matrix(.85872 0 0 1.1442 -108.64 1010.9)" sodipodi:cy="430.10208" sodipodi:cx="944.93005"></path><path id="path16011" style="stroke-opacity:0;fill:#a80" d="m790.67 1548.7c18.01 0.3-16.29-0.2 11.52 0.2l-8.96 6.5c-28.28 0.3 6.64-0.1-11.99 0.1l9.43-6.8z"></path><path id="path16025" style="stroke-opacity:0;fill:#a80" d="m758.32 1492.9c1.2-0.2 2.1-1.1 3.14-1.6l-9.05 7.3c-1.08 0.5-2.11 1.2-3.23 1.6l9.14-7.3z"></path><path id="path16027" style="stroke-opacity:0;fill:#a80" d="m824.97 1517.2h0.87l-9.48 6.9h-0.91l9.52-6.9z"></path><path id="path16029" style="stroke-opacity:0;fill:#a80" d="m607.51 1469c3.86-2.2 7.73-4.3 11.59-6.5 0.79-0.4 1.59-0.8 2.38-1.1l-9.04 7.1c-0.83 0.4-1.65 0.8-2.48 1.2 2.8-1.7 5.6-3.5 8.4-5.2l-10.85 4.5z"></path><path id="path16031" style="stroke-opacity:0;fill:#a80" d="m818.84 1458.1c2.57-0.1 5.03-1.3 7.47-2.1l-9.1 7.1c-2.6 0.7-5.15 2-7.91 1.9l9.54-6.9z"></path><path id="path16033" style="stroke-opacity:0;fill:#a80" d="m739.98 1455.5c0.49-0.5 1.98-1.6 2.37-1.9l10.8-4.3c-0.77 0.5-1.44 1.3-2.32 1.7l-10.85 4.5z"></path><path id="path16035" style="stroke-opacity:0;fill:#a80" d="m807.09 1497c1.09-0.1 2.18-0.3 3.27-0.5l-9.28 7c-1.06 0.3-2.19 0.3-3.18 0.9l9.19-7.4z"></path><g id="g16118" transform="translate(405.08 -219.94)"><path id="path16007" style="stroke-opacity:0;fill:#a80" d="m247.74 1735.8c4.1-1.9 8.38-3.4 12.63-4.9l-8.81 6.9c-4.38 1.6-8.79 3.2-12.96 5.3l9.14-7.3z"></path><path id="path16009" style="stroke-opacity:0;fill:#a80" d="m338.36 1753.1c4.16-2.4 8.33-4.8 12.49-7.2l-8.96 7.3c2.45-1.5 4.91-2.9 7.36-4.3l-10.89 4.2z"></path><path id="path16015" style="stroke-opacity:0;fill:#a80" d="m337.37 1706.9c0.02-0.5 0.02-1 0.03-1.5l10.45-5.3c0 0.3 0.01 0.6 0.01 0.9 0.01 0.2 0.01 0.4 0.02 0.5l-10.51 5.4z"></path><path id="path16021" style="stroke-opacity:0;fill:#a80" d="m267.56 1719.5c3.35 2.6 6.8 5.1 10.19 7.7l-9.64 6.1c-3.44-2.5-6.86-5.1-10.43-7.5l9.88-6.3z"></path><path id="path16023" style="stroke-opacity:0;fill:#a80" d="m266.92 1783.7c0.6 1.4 2.31 1.3 3.38 2l-9.62 6.5c-1.13-0.6-2.3-0.9-3.3-1.6l9.54-6.9z"></path><path id="path16037" style="stroke-opacity:0;fill:#a80" d="m375.78 1783.3c1.73-0.2 3.34-0.9 5-1.4l-9.1 7.1c-0.05 0-4.75 1.5-5.2 1.5l9.3-7.2z"></path><path id="path16039" style="stroke-opacity:0;fill:#a80" d="m394.88 1803.4c1.81 0.3 3.52-0.4 5.28-0.5l-9.21 6.9c-1.87 0.2-3.71 0.7-5.61 0.5l9.54-6.9z"></path><path id="path16049" style="stroke-opacity:0;fill:#a80" d="m357.81 1803c1.02 0 4.95-2 5.42-2.2l-8.98 7.1c-1.9 0.8-3.7 1.8-5.71 2.3l9.27-7.2z"></path><path id="path16051" style="stroke-opacity:0;fill:#a80" d="m298.87 1762c0.45-0.1 0.9-0.2 1.36-0.3l-9.33 7c-0.51 0.1-1.02 0.2-1.53 0.2l9.5-6.9z"></path><path id="path16053" style="stroke-opacity:0;fill:#a80" d="m224.44 1802.1c3.66-2.9 7.21-5.8 10.81-8.7l10.46-4.3c-3.51 2.9-7.04 5.7-10.43 8.7l-10.84 4.3z"></path><path id="path16055" style="stroke-opacity:0;fill:#a80" d="m207.74 1773.2c0.47-0.4 0.93-0.8 1.39-1.2l10.79-4.4c-0.44 0.4-0.88 0.7-1.33 1.1l-10.85 4.5z"></path><path id="path16057" style="stroke-opacity:0;fill:#a80" d="m206.4 1720c-2.64 1.4-5.29 2.8-7.93 4.2l10.73-4.3c-3.98 2.5-7.96 5-11.94 7.4l9.14-7.3z"></path></g><g id="g16108" transform="translate(34.8 -20.88)"><path id="path16005" style="stroke-opacity:0;fill:#a80" d="m608.11 1511.7c0.16-2.4-0.23 1.9 0.17-1.4l10.63-5c-0.1 0.4-0.63 0.6-0.3 1.1l-10.5 5.3z"></path><path id="path16017" style="stroke-opacity:0;fill:#a80" d="m637.64 1446.7l0.18-0.9 10.6-5c-0.09 0.2-0.19 0.4-0.28 0.6l-10.5 5.3z"></path><path id="path16019" style="stroke-opacity:0;fill:#a80" d="m689.23 1436.9c0.59 0 2.7 0 3.07 0.1l-9.4 6.8h-3.2l9.53-6.9z"></path><path id="path16059" style="stroke-opacity:0;fill:#a80" d="m646.43 1515c0.51-0.2 1.03-0.4 1.54-0.6l-9.14 7.2c-0.51 0.2-1.03 0.5-1.54 0.7l9.14-7.3z"></path><path id="path16061" style="stroke-opacity:0;fill:#a80" d="m620.33 1442.8c-3.3 1.8-6.61 3.6-9.91 5.4 0.29-0.2 0.58-0.5 0.87-0.7l10.81-4.5c-0.25 0.3-0.49 0.6-0.74 0.9-3.52 1.9-7.04 3.9-10.56 5.8l9.53-6.9z"></path><path id="path16063" style="stroke-opacity:0;fill:#a80" d="m659.7 1480.2c2.58-0.1 5.04-1.3 7.48-2.1l-9.11 7.1c-2.6 0.7-5.15 2-7.9 1.9l9.53-6.9z"></path><path id="path16065" style="stroke-opacity:0;fill:#a80" d="m724.67 1442.8c2.57-0.1 5.03-1.3 7.47-2.1l-9.1 7.1c-2.6 0.7-5.15 2-7.91 1.9l9.54-6.9z"></path><path id="path16067" style="stroke-opacity:0;fill:#a80" d="m636.08 1417.2c2.57-0.1 5.03-1.3 7.47-2.1l-9.1 7.1c-2.6 0.7-5.15 2-7.91 1.9l9.54-6.9z"></path></g><path id="path16132" style="stroke-opacity:0;fill:#a80" d="m607.51 1437c3.86-2.2 7.73-4.4 11.59-6.5 0.79-0.4 1.59-0.8 2.38-1.2l-9.04 7.2c-0.83 0.4-1.65 0.8-2.48 1.2 2.8-1.8 5.6-3.5 8.4-5.2l-10.85 4.5z"></path><path id="path16134" style="stroke-opacity:0;fill:#a80" d="m558.79 1506.6c3.86-2.2 7.73-4.4 11.59-6.5 0.79-0.4 1.58-0.8 2.38-1.2l-9.04 7.2c-0.83 0.4-1.66 0.8-2.48 1.2 2.8-1.8 5.6-3.5 8.4-5.2l-10.85 4.5z"></path><path id="path16136" style="stroke-opacity:0;fill:#a80" d="m697.99 1581.7c3.86-2.1 7.73-4.3 11.59-6.5 0.79-0.3 1.59-0.7 2.38-1.1l-9.04 7.2c-0.82 0.4-1.65 0.8-2.48 1.1 2.8-1.7 5.6-3.4 8.4-5.2l-10.85 4.5z"></path></g><path id="path14037" style="fill-rule:evenodd;stroke-opacity:0;fill:#aef" d="m-13.842 479.34l72.016-25.83 91.566 9.69h73.04l162.56-35.52 58.64 9.69 66.87 45.2 87.51 4.84 151.17-37.13 94.65-3.23 118.32 30.68 98.8-1.62 21.6-1.61 1 51.66-1097.7-46.82z"></path><rect id="rect14035" style="stroke-opacity:0;fill:#aef" height="258.12" width="1108.5" y="489.46" x="-20.933"></rect><path id="path9600" sodipodi:nodetypes="cccccccccccccccc" style="fill-rule:evenodd;fill:#ffdd74;stroke-opacity:0" d="m45.833 465.41l87.097 23.55 130.65 26.05-135.72 48.38 42.54 12.41 322.07-24.82-128.63 69.48 150.91 14.88h113.44l-123.57 48.64 121.54 23.32 72.92 4.96-52.66 36.22-664.4 0.99 1.013-276.11 62.8-7.95z"></path><path id="path12263" sodipodi:nodetypes="ccccccccccccccccccccccccccccccccc" style="stroke-opacity:0;fill:#00aad4" d="m34.691 449.22c14.342-1.38 28.581-0.18 42.801 1.74 20.176 3.45 40.558 5.15 60.968 6.19 23.34 1.44 46.58-0.08 69.68-3.45 25.72-3.26 51.07-8.82 76.52-13.68 25.04-5.64 50.53-8.15 76.1-9.45 21.43-1.36 42.73-1.54 63.83 2.77 14.98 4.96 28.57 13.32 42.72 20.29 20.1 10.73 41.73 15.91 64.03 19.08 26.01 3.31 52.05 3.64 77.83-1.23 26.62-6.51 53.56-11.63 80.54-16.31 39.24-6.64 78.83-10.55 118.49-13.23 21.98-1.43 43.89-1.34 65.24 4.45 27.44 8.51 55.85 12.24 84.26 15.46 37.27 3.61 74.7 4.66 112.1 5.05 10 0.1 19.9 0.07 29.8-0.35l-14.3 10.63c-9.6 0.05-19.2-0.14-28.8-0.46-37.1-1.03-74.26-2.44-111.27-5.84-29-2.79-58.05-5.99-86.08-14.46-20.93-5.29-42.38-5.89-63.87-4.79-39.63 2.21-79.19 5.98-118.26 13.28-27.25 4.98-54.4 10.63-81.38 16.96-25.85 4.44-51.92 3.89-77.92 0.63-22.61-3.16-44.53-8.41-65-19.06-14.15-6.73-27.64-15.06-42.58-19.85-20.73-4.44-41.75-4.21-62.84-2.95-25.52 1.45-50.97 4.02-75.98 9.65-25.47 4.92-50.86 10.3-76.6 13.64-23.29 3.31-46.73 4.86-70.25 3.46-20.5-1.09-40.923-3.07-61.229-6.16-14.264-1.72-28.548-2.42-42.895-1.21 139.78 4.78 87.004 7.69 14.345-10.8z"></path><path id="path9598" sodipodi:nodetypes="ccccccccccccccccccccccccccccccccccccccccccccccccccccccccccc" style="fill:#00aad4" d="m6.4665 461.65c4.4225-1.43 10.43-2.51 15.498-3.67-8.225 1.12-4.51-2.05 39.575-8.56 23.933 31.47 67.551 24.1 99.101 22.25 30.63-1.58 67.57 19.11 98.35 19.7 16.11 0.23 32.04-0.12 44.54 4.55-1.48 8.79-23.9 12.85-38.61 17.39-25.13 8.04-42.4 18.33-67.81 26.18-17.64 5.02-35.6 9.78-48.32 17.54-6.28 4.15-6.78 6.14-2.04 9.45 30.7 3.34 62.77 0.57 93.55-1.14 68.79-4.33 137.27-9.67 205.79-14.83 16.83-0.22 47.94-6.47 58.53 2.66-2.77 9.78-26.58 16.71-41.57 22.93-16.45 7.21-32.77 14.49-48.7 21.95-10.52 5.13-21.46 10.18-26 17.1 3.29 11.91 45.49 11.01 65.22 12.18 50.82 2.34 101.96 1.61 152.92 2.64 25.71 0.57 24.24 7.89 9.89 15.29-20.19 8.53-42.77 15.74-64.5 23.38-13.19 4.68-24.6 9.26-20.71 16.96 14.86 5.18 34.03 5.42 51.82 6.51 26.27 1.01 52.38 2.47 77.6 6.12 12.36 1.81 24.42 4 35.3 7.24 8.11 4.37-0.56 8.28-6.59 12.13-6.95 3.85-11.56 8.23-15.41 12.84-0.88 0.57 4.23 0.12 5.85-0.03 4.31 0.16 8.31-0.25 12.45-0.62 1.63-0.83 4.11-0.98 6.14-1.46l-56.07 20.55c-2.39 0.32-4.57 1.1-7.22 0.98-4.43 0.05-8.89 0.16-13.32-0.07-6.27-0.88-11.4-1.29-11.83-4.96 3.55-5.33 9.97-9.92 16.8-14.52 2.97-2.11 10.01-5.63 9.3-7.32-9.05-3.28-19.44-5.46-30.1-7.44-24.2-3.96-49.74-5.44-75.26-6.11-20.33-0.85-44.02-0.75-59.47-7.87-9.84-9.23 6.04-16.4 21.12-21.88 21.14-7.27 42.6-14.4 62.48-22.41 9.73-4.69 19.16-7.94-0.15-10.12-48.26-4.05-97.43-4.12-146.31-4.77-23.85-0.6-78.76 2.42-81.7-13.41 3.14-7.91 14.51-13.39 26.12-19.05 16.86-7.57 33.93-15.04 50.91-22.55 13.89-5.7 27.52-11.58 39.75-18.07-11.97-3.81-27.82-3.41-43.53-2.73-67.59 2.56-134.61 7.29-201.17 13.31-35.26 2.91-75.49 8.8-111 4.19-11.424-4.29-7.7-9.26-0.728-14.53 12.485-8.78 31.188-14.18 50.638-19.25 25.75-7.56 50.27-16.01 74.91-24.33 12.02-3.89 17.17-10.01 29.65-13.32-10.05-2.53-22.62-3.81-34.98-3.89-30.08-0.67-66.28-21.22-96.23-19.81-32.595 1.85-66.126-29.31-101.48-20.58-72.584 13.26 114.71-26.3-51.181 14.99-6.291 1.3 1.487-0.34-5.419-0.32l53.606-21.39z"></path><path id="path14956" style="stroke-opacity:0;fill:#a80" d="m461.18 722.24c-13.9 7.41-13.55 7.35 0.71-0.79l-9.4 7.44c13.33-7.62 13.04-7.36-1.12 0.33l9.81-6.98z"></path><path id="path14974" style="stroke-opacity:0;fill:#a80" d="m463.81 725.88c2.79-0.33 5.58-0.56 8.37-0.83l-9.51 6.91c-2.82 0.31-5.66 0.48-8.43 1.09l9.57-7.17z"></path><path id="path14976" style="stroke-opacity:0;fill:#a80" d="m523.98 732.16c6.16 0.31 12.3-0.1 18.44-0.41l-9.28 6.68c-6.32 0.33-12.64 0.68-18.97 0.71l9.81-6.98z"></path><g id="g15969" transform="matrix(1.0291 0 0 1.0075 -18.041 -2.1591)"><path id="path14930" style="stroke-opacity:0;fill:#a80" d="m26.246 592.98c0.161-2.39-0.229 1.93 0.167-1.41l10.64-4.96c-0.101 0.34-0.635 0.55-0.304 1.02l-10.503 5.35z"></path><path id="path14932" style="stroke-opacity:0;fill:#a80" d="m62.602 651.38c4.097-1.9 8.378-3.33 12.634-4.82l-8.811 6.87c-4.378 1.61-8.795 3.15-12.964 5.26l9.141-7.31z"></path><path id="path14934" style="stroke-opacity:0;fill:#a80" d="m153.22 668.71c4.16-2.39 8.33-4.77 12.49-7.16l-8.96 7.24c2.46-1.43 4.91-2.85 7.36-4.28l-10.89 4.2z"></path><path id="path14936" style="stroke-opacity:0;fill:#a80" d="m260.31 695.39c18.02 0.27-16.28-0.16 11.52 0.17l-8.96 6.51c-28.27 0.33 6.64-0.09-11.98 0.17l9.42-6.85z"></path><path id="path14938" style="stroke-opacity:0;fill:#a80" d="m359.8 707.18c0.98 0.05 4.79 0.06 5.47 0.07l-9.3 6.76c-1.89 0.02-3.78 0-5.66 0.07l9.49-6.9z"></path><path id="path14940" style="stroke-opacity:0;fill:#a80" d="m152.24 622.51c0.01-0.49 0.02-0.98 0.03-1.46l10.44-5.33c0.01 0.3 0.01 0.59 0.02 0.89 0 0.18 0.01 0.37 0.01 0.55l-10.5 5.35z"></path><path id="path14942" style="stroke-opacity:0;fill:#a80" d="m55.775 528.02c0.063-0.32 0.125-0.64 0.188-0.96l10.599-5.02c-0.095 0.21-0.189 0.42-0.284 0.63l-10.503 5.35z"></path><path id="path14944" style="stroke-opacity:0;fill:#a80" d="m107.37 518.18c0.59 0.03 2.69 0.04 3.07 0.05l-9.41 6.83c-1.062 0.01-2.129 0.01-3.195 0.05l9.535-6.93z"></path><path id="path14946" style="stroke-opacity:0;fill:#a80" d="m82.42 635.1c3.349 2.65 6.801 5.17 10.191 7.77l-9.644 6.1c-3.437-2.57-6.859-5.15-10.423-7.55l9.876-6.32z"></path><path id="path14948" style="stroke-opacity:0;fill:#a80" d="m81.779 699.29c0.599 1.43 2.312 1.36 3.385 1.99l-9.617 6.51c-1.14-0.54-2.304-0.83-3.304-1.57l9.536-6.93z"></path><path id="path14950" style="stroke-opacity:0;fill:#a80" d="m227.96 639.57c1.2-0.21 2.1-1.03 3.14-1.54l-9.05 7.29c-1.07 0.52-2.11 1.13-3.23 1.56l9.14-7.31z"></path><path id="path14952" style="stroke-opacity:0;fill:#a80" d="m294.61 663.86c0.29 0.01 0.58 0.01 0.87 0.01l-9.48 6.89c-0.3 0.01-0.6 0.01-0.9 0.02l9.51-6.92z"></path><path id="path14954" style="stroke-opacity:0;fill:#a80" d="m408.45 700.59c3.87-2.16 7.73-4.33 11.59-6.5 0.79-0.37 1.59-0.74 2.38-1.12l-9.03 7.19-2.49 1.14c2.8-1.74 5.6-3.47 8.4-5.2l-10.85 4.49z"></path><path id="path14958" style="stroke-opacity:0;fill:#a80" d="m288.48 604.8c2.58-0.15 5.03-1.34 7.47-2.11l-9.1 7.11c-2.6 0.7-5.15 1.95-7.9 1.93l9.53-6.93z"></path><path id="path14960" style="stroke-opacity:0;fill:#a80" d="m209.62 602.16c0.49-0.5 1.98-1.56 2.37-1.87l10.8-4.32c-0.77 0.57-1.44 1.28-2.32 1.7l-10.85 4.49z"></path><path id="path14962" style="stroke-opacity:0;fill:#a80" d="m276.73 643.72c1.1-0.12 2.19-0.32 3.28-0.48l-9.28 7c-1.06 0.28-2.19 0.3-3.18 0.83l9.18-7.35z"></path><path id="path14964" style="stroke-opacity:0;fill:#a80" d="m190.64 698.96c1.73-0.25 3.34-0.94 5-1.42l-9.1 7.05c-0.04 0.01-4.75 1.49-5.2 1.49l9.3-7.12z"></path><path id="path14966" style="stroke-opacity:0;fill:#a80" d="m209.74 718.98c1.81 0.39 3.52-0.32 5.28-0.48l-9.21 6.94c-1.87 0.15-3.71 0.66-5.61 0.46l9.54-6.92z"></path><path id="path14968" style="stroke-opacity:0;fill:#a80" d="m310.14 654.01c-3.15 1.7-6.3 3.4-9.44 5.1l10.93-4.21c-3.67 2.01-7.35 4.03-11.03 6.04l9.54-6.93z"></path><path id="path14970" style="stroke-opacity:0;fill:#a80" d="m365.85 667.46c3.56-0.46 7.06-1.19 10.58-1.88l-9.09 6.9c-3.6 0.71-7.2 1.4-10.8 2.1l9.31-7.12z"></path><path id="path14972" style="stroke-opacity:0;fill:#a80" d="m430.11 671.06c0.29-0.24 0.58-0.49 0.87-0.74 3.73-2.16 7.47-4.32 11.21-6.48l-9.1 7.32c2.93-1.71 5.85-3.43 8.77-5.15-0.3 0.19-0.6 0.37-0.9 0.56l-10.85 4.49z"></path><path id="path14978" style="stroke-opacity:0;fill:#a80" d="m290.34 724.22c3.86-2.17 7.72-4.34 11.59-6.5 0.64-0.3 1.28-0.6 1.93-0.9l-9.08 7.21c-0.67 0.29-1.33 0.59-2 0.89 2.8-1.73 5.61-3.47 8.41-5.2l-10.85 4.5z"></path><path id="path14980" style="stroke-opacity:0;fill:#a80" d="m172.67 718.6c1.03 0.07 4.95-2.01 5.42-2.21l-8.97 7.13c-1.91 0.76-3.71 1.79-5.72 2.28l9.27-7.2z"></path><path id="path14982" style="stroke-opacity:0;fill:#a80" d="m113.73 677.65c0.45-0.1 0.91-0.19 1.36-0.29l-9.33 7.01c-0.51 0.06-1.02 0.12-1.53 0.18l9.5-6.9z"></path><path id="path14984" style="stroke-opacity:0;fill:#a80" d="m39.302 717.71c3.659-2.84 7.209-5.81 10.808-8.73l10.461-4.22c-3.505 2.86-7.037 5.71-10.428 8.71l-10.841 4.24z"></path><path id="path14986" style="stroke-opacity:0;fill:#a80" d="m22.606 688.78c0.462-0.4 0.924-0.79 1.386-1.19l10.792-4.35c-0.443 0.35-0.885 0.7-1.327 1.05l-10.851 4.49z"></path><path id="path14988" style="stroke-opacity:0;fill:#a80" d="m21.261 635.63c-2.642 1.41-5.284 2.81-7.926 4.22l10.725-4.3c-3.98 2.46-7.96 4.93-11.94 7.39l9.141-7.31z"></path><path id="path14990" style="stroke-opacity:0;fill:#a80" d="m64.571 596.26c0.511-0.2 1.023-0.4 1.534-0.6l-9.139 7.21c-0.512 0.24-1.024 0.47-1.537 0.7l9.142-7.31z"></path><path id="path14992" style="stroke-opacity:0;fill:#a80" d="m38.47 524.08c-3.305 1.8-6.611 3.6-9.916 5.4 0.29-0.24 0.58-0.49 0.87-0.73l10.81-4.47c-0.245 0.29-0.49 0.58-0.735 0.87-3.522 1.95-7.044 3.91-10.566 5.86l9.537-6.93z"></path><path id="path14994" style="stroke-opacity:0;fill:#a80" d="m77.842 561.49c2.573-0.15 5.032-1.34 7.471-2.11l-9.1 7.11c-2.602 0.7-5.151 1.95-7.908 1.93l9.537-6.93z"></path><path id="path14996" style="stroke-opacity:0;fill:#a80" d="m142.81 524.08c2.57-0.14 5.03-1.33 7.47-2.1l-9.1 7.1c-2.6 0.71-5.15 1.96-7.91 1.93l9.54-6.93z"></path><path id="path14998" style="stroke-opacity:0;fill:#a80" d="m54.219 498.49c2.573-0.14 5.032-1.33 7.471-2.11l-9.101 7.11c-2.601 0.7-5.15 1.95-7.907 1.93l9.537-6.93z"></path></g><path id="path4112" sodipodi:rx="171.42857" sodipodi:ry="178.57143" style="opacity:.73128;fill-rule:evenodd;stroke:#dbd42f;fill:#ffb400" sodipodi:type="arc" d="m-94.286 842.67a171.43 178.57 0 1 1 -342.85 0 171.43 178.57 0 1 1 342.85 0z" transform="matrix(.97523 0 0 .87222 1232 -618.04)" sodipodi:cy="842.66589" sodipodi:cx="-265.71429"></path><g id="g22059" transform="matrix(1.0291 0 0 1.0075 -310.01 -1694.1)"><path id="path20956" style="fill-rule:evenodd;stroke:black;stroke-width:.94447px;fill:#a0892c" d="m1248.6 1857.7l9.3 39 4.9 39.6 1.3 72.5-2.5 44.5 13-1.4 1.9-40.4-2.5-64-4.3-61.3-8.1-27.8-13-0.7z"></path><g id="g17081" style="fill:black" transform="matrix(-.30532 0 0 .42661 1379.8 1395.3)"><path id="path17077" style="stroke-opacity:0;fill:black" d="m411.05 1069.3c-11.18 11.3-19.11 25-26.49 39-23.49 57.3-28.98 119.9-34.61 181-4.91 67.4-7.15 135.2-2.79 202.7 0.7 19.9 5.36 38.5 15.7 55.5l-11.21 6.5c-9.92-17.6-14.37-36.6-14.51-56.8-2.74-68 0.67-136.1 4.97-204 5.05-60.5 9.74-122.4 31.14-179.8 6.99-13.8 14.42-27.5 25.35-38.6l12.45-5.5z"></path><path id="path17079" style="stroke-opacity:0;fill:black" d="m452.39 1073.2c-11.18 11.4-19.11 25-26.49 39-23.49 57.3-28.98 120-34.61 181.1-4.91 67.4-7.15 135.1-2.79 202.6 0.7 19.9 5.36 38.6 15.7 55.5l-11.21 6.5c-9.92-17.6-14.37-36.6-14.51-56.8-2.74-68 0.67-136.1 4.97-203.9 5.05-60.6 9.74-122.5 31.14-179.9 6.99-13.7 14.42-27.5 25.35-38.5l12.45-5.6z"></path></g><path id="path21106" style="fill-opacity:0.94;stroke-opacity:0;fill:black" d="m1253.5 1863.4c0.7 0 1.5-0.1 2.2-0.2 1.5-0.1 2.9-0.4 4.3-0.7 1.4-0.2 2.6-0.5 3.9-0.9 0.1 0.1 1.2-0.3 1.2-0.3l-2.7 1.8s-1.1 0.3-1.2 0.3c-1.3 0.3-2.5 0.7-3.9 0.8-1.4 0.3-2.8 0.6-4.3 0.7-0.8 0.1-1.5 0.2-2.3 0.2l2.8-1.7z"></path><path id="path21108" style="fill-opacity:0.94;stroke-opacity:0;fill:black" d="m1255.5 1878.7c0.7 0 1.5-0.1 2.2-0.2 1.5-0.1 2.9-0.5 4.3-0.7s2.6-0.6 3.9-0.9c0.1 0.1 1.2-0.3 1.2-0.3l-2.7 1.8s-1.1 0.3-1.2 0.3c-1.3 0.3-2.5 0.6-3.9 0.8-1.4 0.3-2.8 0.6-4.3 0.7-0.8 0.1-1.5 0.2-2.3 0.2l2.8-1.7z"></path><path id="path21110" style="fill-opacity:0.94;stroke-opacity:0;fill:black" d="m1257.5 1887.2c0.7 0 1.5-0.1 2.2-0.2 1.5-0.1 2.9-0.5 4.3-0.7s2.6-0.6 3.9-0.9c0.1 0.1 1.2-0.3 1.2-0.3l-2.7 1.8s-1.1 0.3-1.2 0.2c-1.3 0.4-2.5 0.7-3.9 0.9-1.4 0.3-2.8 0.6-4.3 0.7-0.8 0.1-1.5 0.2-2.3 0.2l2.8-1.7z"></path><path id="path21112" style="fill-opacity:0.94;stroke-opacity:0;fill:black" d="m1259.5 1904.5c0.7 0 1.5-0.1 2.2-0.2 1.5-0.2 2.9-0.6 4.3-0.9 1.3-0.2 2.6-0.6 3.9-1 0 0.1 1.1-0.4 1.1-0.4l-2.6 2.1s-1.1 0.4-1.2 0.4c-1.3 0.3-2.5 0.8-3.9 0.9-1.4 0.4-2.8 0.8-4.3 0.9-0.8 0.1-1.5 0.2-2.3 0.2l2.8-2z"></path><path id="path21114" style="fill-opacity:0.94;stroke-opacity:0;fill:black" d="m1261.5 1916.5c0.7 0 1.5-0.1 2.2-0.2 1.5-0.2 2.9-0.6 4.3-0.9 1.3-0.2 2.6-0.6 3.9-1 0 0.1 1.1-0.4 1.1-0.4l-2.6 2.1s-1.1 0.4-1.2 0.4c-1.3 0.3-2.5 0.8-3.9 0.9-1.4 0.4-2.8 0.8-4.3 0.9-0.8 0.1-1.5 0.2-2.3 0.2l2.8-2z"></path><path id="path21116" style="fill-opacity:0.94;stroke-opacity:0;fill:black" d="m1261.5 1926.5c0.7 0 1.5-0.1 2.2-0.2 1.5-0.2 2.9-0.6 4.3-0.9 1.3-0.2 2.6-0.6 3.9-1 0 0.1 1.1-0.4 1.1-0.4l-2.6 2.1s-1.1 0.4-1.2 0.4c-1.3 0.3-2.5 0.8-3.9 0.9-1.4 0.4-2.8 0.8-4.3 0.9-0.8 0.1-1.5 0.2-2.3 0.2l2.8-2z"></path><g id="g17334" transform="translate(711.34 608.03)"><g id="g17117" transform="matrix(.65992 0 0 .89383 163.48 447.82)"><path id="path17085" style="stroke-opacity:0;fill:black" d="m566.28 894.64c-0.08-2.61-1.91-4.56-3.67-6.55-9.02-9.28-22.19-12.48-35.22-15-34.1-5.09-67.06 1.25-99.16 11.1-25.4 8.25-46.98 21.97-66.31 38.35-6.67 5.77-12.29 12.26-17.23 19.2l-5.35 2.08c5.11-7.06 10.85-13.66 17.69-19.51 21.62-18.19 46.55-32.93 74.59-42.45 32.38-9.9 65.66-16.11 100.06-11.39 13.36 2.41 26.77 5.53 36.17 14.87 1.88 2.02 3.88 4.03 4.2 6.72l-5.77 2.58z"></path><path id="path17093" style="stroke-opacity:0;fill:green" d="m566.65 895.88c-6.16-0.25-12.14-0.07-18.17 0.46-16.19 2.26-26.26 8.02-35.89 13.25-9.88 5.56-17.77 11.57-24 17.88-2.11 2.29-1.12 1.22-2.99 3.23l4.19 0.9c1.7-2.05 0.78-0.95 2.74-3.28 5.91-6.35 13.58-12.39 23.46-17.95 9.69-5.21 20.03-10.85 36.3-13 6.11-0.48 12.28-0.67 18.47-0.24l-4.11-1.25z"></path><path id="path17095" style="stroke-opacity:0;fill:green" d="m561.12 891.04c-7.02-0.32-13.81-0.09-20.67 0.58-18.42 2.87-29.87 10.2-40.83 16.85-11.24 7.08-20.21 14.73-27.3 22.74-2.41 2.93-1.27 1.56-3.4 4.12l4.76 1.14c1.93-2.6 0.89-1.21 3.12-4.17 6.72-8.07 15.44-15.76 26.69-22.83 11.01-6.63 22.79-13.8 41.29-16.54 6.96-0.61 13.97-0.85 21.01-0.31l-4.67-1.58z"></path><path id="path17097" style="stroke-opacity:0;fill:green" d="m553.62 886.18c-7.86-0.37-15.48-0.1-23.17 0.67-20.65 3.3-33.49 11.72-45.78 19.37-12.6 8.13-22.65 16.92-30.6 26.14-2.7 3.36-1.43 1.78-3.82 4.72l5.34 1.32c2.17-2.99 1.01-1.39 3.5-4.79 7.53-9.28 17.32-18.12 29.92-26.25 12.35-7.61 25.55-15.86 46.29-19 7.8-0.71 15.66-0.99 23.56-0.36l-5.24-1.82z"></path><path id="path17099" style="stroke-opacity:0;fill:green" d="m545.08 879.38c-8.78-0.46-17.29-0.13-25.87 0.82-23.07 4.04-37.41 14.34-51.13 23.69-14.07 9.96-25.31 20.71-34.18 31.98-3.02 4.12-1.6 2.19-4.26 5.79l5.96 1.61c2.42-3.66 1.12-1.7 3.91-5.87 8.41-11.35 19.34-22.16 33.41-32.1 13.8-9.32 28.54-19.4 51.7-23.26 8.71-0.86 17.49-1.2 26.31-0.44l-5.85-2.22z"></path><path id="path17101" style="stroke-opacity:0;fill:green" d="m536.9 874.51c-9.21-0.51-18.13-0.14-27.13 0.92-24.17 4.53-39.21 16.09-53.59 26.58-14.75 11.17-26.52 23.24-35.83 35.88-3.15 4.62-1.66 2.45-4.46 6.49l6.25 1.81c2.54-4.1 1.17-1.91 4.1-6.58 8.81-12.73 20.27-24.86 35.02-36.02 14.46-10.45 29.91-21.77 54.19-26.09 9.13-0.96 18.33-1.35 27.57-0.49l-6.12-2.5z"></path><path id="path17103" style="stroke-opacity:0;fill:green" d="m522.12 872.56c-9.2-0.53-18.12-0.14-27.12 0.96-24.17 4.72-39.2 16.74-53.58 27.67-14.75 11.62-26.52 24.18-35.82 37.34-3.16 4.8-1.67 2.55-4.47 6.75l6.25 1.89c2.54-4.28 1.18-1.99 4.1-6.85 8.81-13.26 20.27-25.88 35.02-37.5 14.46-10.87 29.9-22.65 54.18-27.14 9.13-1.01 18.33-1.41 27.57-0.52l-6.13-2.6z"></path><path id="path17105" style="stroke-opacity:0;fill:green" d="m510.27 871.57c-9.28-0.52-18.27-0.14-27.34 0.95-24.35 4.65-39.5 16.52-53.99 27.3-14.87 11.47-26.73 23.86-36.11 36.86-3.18 4.73-1.68 2.51-4.49 6.66l6.29 1.86c2.56-4.22 1.19-1.96 4.13-6.76 8.88-13.08 20.43-25.54 35.29-37 14.57-10.74 30.14-22.36 54.6-26.79 9.21-1 18.48-1.39 27.79-0.51l-6.17-2.57z"></path><path id="path17107" style="stroke-opacity:0;fill:green" d="m497.32 872.57c-9.49-0.53-18.68-0.14-27.96 0.98-24.91 4.77-40.41 16.95-55.23 28.02-15.21 11.77-27.34 24.49-36.93 37.83-3.26 4.86-1.72 2.58-4.6 6.83l6.44 1.91c2.62-4.33 1.21-2.01 4.22-6.94 9.09-13.42 20.89-26.21 36.1-37.97 14.9-11.02 30.83-22.95 55.85-27.5 9.42-1.02 18.9-1.43 28.42-0.52l-6.31-2.64z"></path><path id="path17113" style="stroke-opacity:0;fill:green" d="m468.92 876.64c-8.79 0.15-17.26 1.07-25.76 2.61-22.73 5.63-36.32 16.9-49.36 27.19-13.35 10.9-23.81 22.41-31.88 34.27-2.72 4.31-1.44 2.29-3.85 6.07l6.06 1.19c2.17-3.82 1-1.77 3.5-6.12 7.6-11.91 17.75-23.45 31.1-34.35 13.12-10.25 27.12-21.33 49.96-26.78 8.63-1.47 17.37-2.42 26.21-2.27l-5.98-1.81z"></path><path id="path17115" style="stroke-opacity:0;fill:green" d="m445.98 881.49c-8.72 0.88-17.03 2.31-25.3 4.2-21.94 6.19-34.15 15.8-45.91 24.63-12 9.31-21.06 18.82-27.71 28.39-2.2 3.46-1.16 1.84-3.12 4.87l6.17 0.36c1.7-3.04 0.78-1.41 2.76-4.88 6.17-9.56 14.92-19.07 26.92-28.38 11.85-8.81 24.48-18.31 46.56-24.38 8.41-1.85 16.98-3.32 25.79-3.98l-6.16-0.83z"></path></g><g id="g17130" transform="matrix(-.64076 -.15192 -.13083 .74409 1025.7 655.64)"><path id="path17132" style="stroke-opacity:0;fill:black" d="m566.28 894.64c-0.08-2.61-1.91-4.56-3.67-6.55-9.02-9.28-22.19-12.48-35.22-15-34.1-5.09-67.06 1.25-99.16 11.1-25.4 8.25-46.98 21.97-66.31 38.35-6.67 5.77-12.29 12.26-17.23 19.2l-5.35 2.08c5.11-7.06 10.85-13.66 17.69-19.51 21.62-18.19 46.55-32.93 74.59-42.45 32.38-9.9 65.66-16.11 100.06-11.39 13.36 2.41 26.77 5.53 36.17 14.87 1.88 2.02 3.88 4.03 4.2 6.72l-5.77 2.58z"></path><path id="path17134" style="stroke-opacity:0;fill:green" d="m566.65 895.88c-6.16-0.25-12.14-0.07-18.17 0.46-16.19 2.26-26.26 8.02-35.89 13.25-9.88 5.56-17.77 11.57-24 17.88-2.11 2.29-1.12 1.22-2.99 3.23l4.19 0.9c1.7-2.05 0.78-0.95 2.74-3.28 5.91-6.35 13.58-12.39 23.46-17.95 9.69-5.21 20.03-10.85 36.3-13 6.11-0.48 12.28-0.67 18.47-0.24l-4.11-1.25z"></path><path id="path17136" style="stroke-opacity:0;fill:green" d="m561.12 891.04c-7.02-0.32-13.81-0.09-20.67 0.58-18.42 2.87-29.87 10.2-40.83 16.85-11.24 7.08-20.21 14.73-27.3 22.74-2.41 2.93-1.27 1.56-3.4 4.12l4.76 1.14c1.93-2.6 0.89-1.21 3.12-4.17 6.72-8.07 15.44-15.76 26.69-22.83 11.01-6.63 22.79-13.8 41.29-16.54 6.96-0.61 13.97-0.85 21.01-0.31l-4.67-1.58z"></path><path id="path17138" style="stroke-opacity:0;fill:green" d="m553.62 886.18c-7.86-0.37-15.48-0.1-23.17 0.67-20.65 3.3-33.49 11.72-45.78 19.37-12.6 8.13-22.65 16.92-30.6 26.14-2.7 3.36-1.43 1.78-3.82 4.72l5.34 1.32c2.17-2.99 1.01-1.39 3.5-4.79 7.53-9.28 17.32-18.12 29.92-26.25 12.35-7.61 25.55-15.86 46.29-19 7.8-0.71 15.66-0.99 23.56-0.36l-5.24-1.82z"></path><path id="path17140" style="stroke-opacity:0;fill:green" d="m545.08 879.38c-8.78-0.46-17.29-0.13-25.87 0.82-23.07 4.04-37.41 14.34-51.13 23.69-14.07 9.96-25.31 20.71-34.18 31.98-3.02 4.12-1.6 2.19-4.26 5.79l5.96 1.61c2.42-3.66 1.12-1.7 3.91-5.87 8.41-11.35 19.34-22.16 33.41-32.1 13.8-9.32 28.54-19.4 51.7-23.26 8.71-0.86 17.49-1.2 26.31-0.44l-5.85-2.22z"></path><path id="path17142" style="stroke-opacity:0;fill:green" d="m536.9 874.51c-9.21-0.51-18.13-0.14-27.13 0.92-24.17 4.53-39.21 16.09-53.59 26.58-14.75 11.17-26.52 23.24-35.83 35.88-3.15 4.62-1.66 2.45-4.46 6.49l6.25 1.81c2.54-4.1 1.17-1.91 4.1-6.58 8.81-12.73 20.27-24.86 35.02-36.02 14.46-10.45 29.91-21.77 54.19-26.09 9.13-0.96 18.33-1.35 27.57-0.49l-6.12-2.5z"></path><path id="path17144" style="stroke-opacity:0;fill:green" d="m522.12 872.56c-9.2-0.53-18.12-0.14-27.12 0.96-24.17 4.72-39.2 16.74-53.58 27.67-14.75 11.62-26.52 24.18-35.82 37.34-3.16 4.8-1.67 2.55-4.47 6.75l6.25 1.89c2.54-4.28 1.18-1.99 4.1-6.85 8.81-13.26 20.27-25.88 35.02-37.5 14.46-10.87 29.9-22.65 54.18-27.14 9.13-1.01 18.33-1.41 27.57-0.52l-6.13-2.6z"></path><path id="path17146" style="stroke-opacity:0;fill:green" d="m510.27 871.57c-9.28-0.52-18.27-0.14-27.34 0.95-24.35 4.65-39.5 16.52-53.99 27.3-14.87 11.47-26.73 23.86-36.11 36.86-3.18 4.73-1.68 2.51-4.49 6.66l6.29 1.86c2.56-4.22 1.19-1.96 4.13-6.76 8.88-13.08 20.43-25.54 35.29-37 14.57-10.74 30.14-22.36 54.6-26.79 9.21-1 18.48-1.39 27.79-0.51l-6.17-2.57z"></path><path id="path17148" style="stroke-opacity:0;fill:green" d="m497.32 872.57c-9.49-0.53-18.68-0.14-27.96 0.98-24.91 4.77-40.41 16.95-55.23 28.02-15.21 11.77-27.34 24.49-36.93 37.83-3.26 4.86-1.72 2.58-4.6 6.83l6.44 1.91c2.62-4.33 1.21-2.01 4.22-6.94 9.09-13.42 20.89-26.21 36.1-37.97 14.9-11.02 30.83-22.95 55.85-27.5 9.42-1.02 18.9-1.43 28.42-0.52l-6.31-2.64z"></path><path id="path17150" style="stroke-opacity:0;fill:green" d="m468.92 876.64c-8.79 0.15-17.26 1.07-25.76 2.61-22.73 5.63-36.32 16.9-49.36 27.19-13.35 10.9-23.81 22.41-31.88 34.27-2.72 4.31-1.44 2.29-3.85 6.07l6.06 1.19c2.17-3.82 1-1.77 3.5-6.12 7.6-11.91 17.75-23.45 31.1-34.35 13.12-10.25 27.12-21.33 49.96-26.78 8.63-1.47 17.37-2.42 26.21-2.27l-5.98-1.81z"></path><path id="path17152" style="stroke-opacity:0;fill:green" d="m445.98 881.49c-8.72 0.88-17.03 2.31-25.3 4.2-21.94 6.19-34.15 15.8-45.91 24.63-12 9.31-21.06 18.82-27.71 28.39-2.2 3.46-1.16 1.84-3.12 4.87l6.17 0.36c1.7-3.04 0.78-1.41 2.76-4.88 6.17-9.56 14.92-19.07 26.92-28.38 11.85-8.81 24.48-18.31 46.56-24.38 8.41-1.85 16.98-3.32 25.79-3.98l-6.16-0.83z"></path></g><g id="g17154" transform="matrix(-.47014 -.49071 -.50611 .45584 1256.8 1111.2)"><path id="path17156" style="stroke-opacity:0;fill:black" d="m566.28 894.64c-0.08-2.61-1.91-4.56-3.67-6.55-9.02-9.28-22.19-12.48-35.22-15-34.1-5.09-67.06 1.25-99.16 11.1-25.4 8.25-46.98 21.97-66.31 38.35-6.67 5.77-12.29 12.26-17.23 19.2l-5.35 2.08c5.11-7.06 10.85-13.66 17.69-19.51 21.62-18.19 46.55-32.93 74.59-42.45 32.38-9.9 65.66-16.11 100.06-11.39 13.36 2.41 26.77 5.53 36.17 14.87 1.88 2.02 3.88 4.03 4.2 6.72l-5.77 2.58z"></path><path id="path17158" style="stroke-opacity:0;fill:green" d="m566.65 895.88c-6.16-0.25-12.14-0.07-18.17 0.46-16.19 2.26-26.26 8.02-35.89 13.25-9.88 5.56-17.77 11.57-24 17.88-2.11 2.29-1.12 1.22-2.99 3.23l4.19 0.9c1.7-2.05 0.78-0.95 2.74-3.28 5.91-6.35 13.58-12.39 23.46-17.95 9.69-5.21 20.03-10.85 36.3-13 6.11-0.48 12.28-0.67 18.47-0.24l-4.11-1.25z"></path><path id="path17160" style="stroke-opacity:0;fill:green" d="m561.12 891.04c-7.02-0.32-13.81-0.09-20.67 0.58-18.42 2.87-29.87 10.2-40.83 16.85-11.24 7.08-20.21 14.73-27.3 22.74-2.41 2.93-1.27 1.56-3.4 4.12l4.76 1.14c1.93-2.6 0.89-1.21 3.12-4.17 6.72-8.07 15.44-15.76 26.69-22.83 11.01-6.63 22.79-13.8 41.29-16.54 6.96-0.61 13.97-0.85 21.01-0.31l-4.67-1.58z"></path><path id="path17162" style="stroke-opacity:0;fill:green" d="m553.62 886.18c-7.86-0.37-15.48-0.1-23.17 0.67-20.65 3.3-33.49 11.72-45.78 19.37-12.6 8.13-22.65 16.92-30.6 26.14-2.7 3.36-1.43 1.78-3.82 4.72l5.34 1.32c2.17-2.99 1.01-1.39 3.5-4.79 7.53-9.28 17.32-18.12 29.92-26.25 12.35-7.61 25.55-15.86 46.29-19 7.8-0.71 15.66-0.99 23.56-0.36l-5.24-1.82z"></path><path id="path17164" style="stroke-opacity:0;fill:green" d="m545.08 879.38c-8.78-0.46-17.29-0.13-25.87 0.82-23.07 4.04-37.41 14.34-51.13 23.69-14.07 9.96-25.31 20.71-34.18 31.98-3.02 4.12-1.6 2.19-4.26 5.79l5.96 1.61c2.42-3.66 1.12-1.7 3.91-5.87 8.41-11.35 19.34-22.16 33.41-32.1 13.8-9.32 28.54-19.4 51.7-23.26 8.71-0.86 17.49-1.2 26.31-0.44l-5.85-2.22z"></path><path id="path17166" style="stroke-opacity:0;fill:green" d="m536.9 874.51c-9.21-0.51-18.13-0.14-27.13 0.92-24.17 4.53-39.21 16.09-53.59 26.58-14.75 11.17-26.52 23.24-35.83 35.88-3.15 4.62-1.66 2.45-4.46 6.49l6.25 1.81c2.54-4.1 1.17-1.91 4.1-6.58 8.81-12.73 20.27-24.86 35.02-36.02 14.46-10.45 29.91-21.77 54.19-26.09 9.13-0.96 18.33-1.35 27.57-0.49l-6.12-2.5z"></path><path id="path17168" style="stroke-opacity:0;fill:green" d="m522.12 872.56c-9.2-0.53-18.12-0.14-27.12 0.96-24.17 4.72-39.2 16.74-53.58 27.67-14.75 11.62-26.52 24.18-35.82 37.34-3.16 4.8-1.67 2.55-4.47 6.75l6.25 1.89c2.54-4.28 1.18-1.99 4.1-6.85 8.81-13.26 20.27-25.88 35.02-37.5 14.46-10.87 29.9-22.65 54.18-27.14 9.13-1.01 18.33-1.41 27.57-0.52l-6.13-2.6z"></path><path id="path17170" style="stroke-opacity:0;fill:green" d="m510.27 871.57c-9.28-0.52-18.27-0.14-27.34 0.95-24.35 4.65-39.5 16.52-53.99 27.3-14.87 11.47-26.73 23.86-36.11 36.86-3.18 4.73-1.68 2.51-4.49 6.66l6.29 1.86c2.56-4.22 1.19-1.96 4.13-6.76 8.88-13.08 20.43-25.54 35.29-37 14.57-10.74 30.14-22.36 54.6-26.79 9.21-1 18.48-1.39 27.79-0.51l-6.17-2.57z"></path><path id="path17172" style="stroke-opacity:0;fill:green" d="m497.32 872.57c-9.49-0.53-18.68-0.14-27.96 0.98-24.91 4.77-40.41 16.95-55.23 28.02-15.21 11.77-27.34 24.49-36.93 37.83-3.26 4.86-1.72 2.58-4.6 6.83l6.44 1.91c2.62-4.33 1.21-2.01 4.22-6.94 9.09-13.42 20.89-26.21 36.1-37.97 14.9-11.02 30.83-22.95 55.85-27.5 9.42-1.02 18.9-1.43 28.42-0.52l-6.31-2.64z"></path><path id="path17174" style="stroke-opacity:0;fill:green" d="m468.92 876.64c-8.79 0.15-17.26 1.07-25.76 2.61-22.73 5.63-36.32 16.9-49.36 27.19-13.35 10.9-23.81 22.41-31.88 34.27-2.72 4.31-1.44 2.29-3.85 6.07l6.06 1.19c2.17-3.82 1-1.77 3.5-6.12 7.6-11.91 17.75-23.45 31.1-34.35 13.12-10.25 27.12-21.33 49.96-26.78 8.63-1.47 17.37-2.42 26.21-2.27l-5.98-1.81z"></path><path id="path17176" style="stroke-opacity:0;fill:green" d="m445.98 881.49c-8.72 0.88-17.03 2.31-25.3 4.2-21.94 6.19-34.15 15.8-45.91 24.63-12 9.31-21.06 18.82-27.71 28.39-2.2 3.46-1.16 1.84-3.12 4.87l6.17 0.36c1.7-3.04 0.78-1.41 2.76-4.88 6.17-9.56 14.92-19.07 26.92-28.38 11.85-8.81 24.48-18.31 46.56-24.38 8.41-1.85 16.98-3.32 25.79-3.98l-6.16-0.83z"></path></g><g id="g17178" transform="matrix(-.43646 .48727 .38633 .55049 443.07 469.36)"><path id="path17180" style="stroke-opacity:0;fill:black" d="m566.28 894.64c-0.08-2.61-1.91-4.56-3.67-6.55-9.02-9.28-22.19-12.48-35.22-15-34.1-5.09-67.06 1.25-99.16 11.1-25.4 8.25-46.98 21.97-66.31 38.35-6.67 5.77-12.29 12.26-17.23 19.2l-5.35 2.08c5.11-7.06 10.85-13.66 17.69-19.51 21.62-18.19 46.55-32.93 74.59-42.45 32.38-9.9 65.66-16.11 100.06-11.39 13.36 2.41 26.77 5.53 36.17 14.87 1.88 2.02 3.88 4.03 4.2 6.72l-5.77 2.58z"></path><path id="path17182" style="stroke-opacity:0;fill:green" d="m566.65 895.88c-6.16-0.25-12.14-0.07-18.17 0.46-16.19 2.26-26.26 8.02-35.89 13.25-9.88 5.56-17.77 11.57-24 17.88-2.11 2.29-1.12 1.22-2.99 3.23l4.19 0.9c1.7-2.05 0.78-0.95 2.74-3.28 5.91-6.35 13.58-12.39 23.46-17.95 9.69-5.21 20.03-10.85 36.3-13 6.11-0.48 12.28-0.67 18.47-0.24l-4.11-1.25z"></path><path id="path17184" style="stroke-opacity:0;fill:green" d="m561.12 891.04c-7.02-0.32-13.81-0.09-20.67 0.58-18.42 2.87-29.87 10.2-40.83 16.85-11.24 7.08-20.21 14.73-27.3 22.74-2.41 2.93-1.27 1.56-3.4 4.12l4.76 1.14c1.93-2.6 0.89-1.21 3.12-4.17 6.72-8.07 15.44-15.76 26.69-22.83 11.01-6.63 22.79-13.8 41.29-16.54 6.96-0.61 13.97-0.85 21.01-0.31l-4.67-1.58z"></path><path id="path17186" style="stroke-opacity:0;fill:green" d="m553.62 886.18c-7.86-0.37-15.48-0.1-23.17 0.67-20.65 3.3-33.49 11.72-45.78 19.37-12.6 8.13-22.65 16.92-30.6 26.14-2.7 3.36-1.43 1.78-3.82 4.72l5.34 1.32c2.17-2.99 1.01-1.39 3.5-4.79 7.53-9.28 17.32-18.12 29.92-26.25 12.35-7.61 25.55-15.86 46.29-19 7.8-0.71 15.66-0.99 23.56-0.36l-5.24-1.82z"></path><path id="path17188" style="stroke-opacity:0;fill:green" d="m545.08 879.38c-8.78-0.46-17.29-0.13-25.87 0.82-23.07 4.04-37.41 14.34-51.13 23.69-14.07 9.96-25.31 20.71-34.18 31.98-3.02 4.12-1.6 2.19-4.26 5.79l5.96 1.61c2.42-3.66 1.12-1.7 3.91-5.87 8.41-11.35 19.34-22.16 33.41-32.1 13.8-9.32 28.54-19.4 51.7-23.26 8.71-0.86 17.49-1.2 26.31-0.44l-5.85-2.22z"></path><path id="path17190" style="stroke-opacity:0;fill:green" d="m536.9 874.51c-9.21-0.51-18.13-0.14-27.13 0.92-24.17 4.53-39.21 16.09-53.59 26.58-14.75 11.17-26.52 23.24-35.83 35.88-3.15 4.62-1.66 2.45-4.46 6.49l6.25 1.81c2.54-4.1 1.17-1.91 4.1-6.58 8.81-12.73 20.27-24.86 35.02-36.02 14.46-10.45 29.91-21.77 54.19-26.09 9.13-0.96 18.33-1.35 27.57-0.49l-6.12-2.5z"></path><path id="path17192" style="stroke-opacity:0;fill:green" d="m522.12 872.56c-9.2-0.53-18.12-0.14-27.12 0.96-24.17 4.72-39.2 16.74-53.58 27.67-14.75 11.62-26.52 24.18-35.82 37.34-3.16 4.8-1.67 2.55-4.47 6.75l6.25 1.89c2.54-4.28 1.18-1.99 4.1-6.85 8.81-13.26 20.27-25.88 35.02-37.5 14.46-10.87 29.9-22.65 54.18-27.14 9.13-1.01 18.33-1.41 27.57-0.52l-6.13-2.6z"></path><path id="path17194" style="stroke-opacity:0;fill:green" d="m510.27 871.57c-9.28-0.52-18.27-0.14-27.34 0.95-24.35 4.65-39.5 16.52-53.99 27.3-14.87 11.47-26.73 23.86-36.11 36.86-3.18 4.73-1.68 2.51-4.49 6.66l6.29 1.86c2.56-4.22 1.19-1.96 4.13-6.76 8.88-13.08 20.43-25.54 35.29-37 14.57-10.74 30.14-22.36 54.6-26.79 9.21-1 18.48-1.39 27.79-0.51l-6.17-2.57z"></path><path id="path17196" style="stroke-opacity:0;fill:green" d="m497.32 872.57c-9.49-0.53-18.68-0.14-27.96 0.98-24.91 4.77-40.41 16.95-55.23 28.02-15.21 11.77-27.34 24.49-36.93 37.83-3.26 4.86-1.72 2.58-4.6 6.83l6.44 1.91c2.62-4.33 1.21-2.01 4.22-6.94 9.09-13.42 20.89-26.21 36.1-37.97 14.9-11.02 30.83-22.95 55.85-27.5 9.42-1.02 18.9-1.43 28.42-0.52l-6.31-2.64z"></path><path id="path17198" style="stroke-opacity:0;fill:green" d="m468.92 876.64c-8.79 0.15-17.26 1.07-25.76 2.61-22.73 5.63-36.32 16.9-49.36 27.19-13.35 10.9-23.81 22.41-31.88 34.27-2.72 4.31-1.44 2.29-3.85 6.07l6.06 1.19c2.17-3.82 1-1.77 3.5-6.12 7.6-11.91 17.75-23.45 31.1-34.35 13.12-10.25 27.12-21.33 49.96-26.78 8.63-1.47 17.37-2.42 26.21-2.27l-5.98-1.81z"></path><path id="path17200" style="stroke-opacity:0;fill:green" d="m445.98 881.49c-8.72 0.88-17.03 2.31-25.3 4.2-21.94 6.19-34.15 15.8-45.91 24.63-12 9.31-21.06 18.82-27.71 28.39-2.2 3.46-1.16 1.84-3.12 4.87l6.17 0.36c1.7-3.04 0.78-1.41 2.76-4.88 6.17-9.56 14.92-19.07 26.92-28.38 11.85-8.81 24.48-18.31 46.56-24.38 8.41-1.85 16.98-3.32 25.79-3.98l-6.16-0.83z"></path></g><g id="g17202" transform="matrix(.55176 .33605 -.24712 .75032 443.57 372.28)"><path id="path17204" style="stroke-opacity:0;fill:black" d="m566.28 894.64c-0.08-2.61-1.91-4.56-3.67-6.55-9.02-9.28-22.19-12.48-35.22-15-34.1-5.09-67.06 1.25-99.16 11.1-25.4 8.25-46.98 21.97-66.31 38.35-6.67 5.77-12.29 12.26-17.23 19.2l-5.35 2.08c5.11-7.06 10.85-13.66 17.69-19.51 21.62-18.19 46.55-32.93 74.59-42.45 32.38-9.9 65.66-16.11 100.06-11.39 13.36 2.41 26.77 5.53 36.17 14.87 1.88 2.02 3.88 4.03 4.2 6.72l-5.77 2.58z"></path><path id="path17206" style="stroke-opacity:0;fill:green" d="m566.65 895.88c-6.16-0.25-12.14-0.07-18.17 0.46-16.19 2.26-26.26 8.02-35.89 13.25-9.88 5.56-17.77 11.57-24 17.88-2.11 2.29-1.12 1.22-2.99 3.23l4.19 0.9c1.7-2.05 0.78-0.95 2.74-3.28 5.91-6.35 13.58-12.39 23.46-17.95 9.69-5.21 20.03-10.85 36.3-13 6.11-0.48 12.28-0.67 18.47-0.24l-4.11-1.25z"></path><path id="path17208" style="stroke-opacity:0;fill:green" d="m561.12 891.04c-7.02-0.32-13.81-0.09-20.67 0.58-18.42 2.87-29.87 10.2-40.83 16.85-11.24 7.08-20.21 14.73-27.3 22.74-2.41 2.93-1.27 1.56-3.4 4.12l4.76 1.14c1.93-2.6 0.89-1.21 3.12-4.17 6.72-8.07 15.44-15.76 26.69-22.83 11.01-6.63 22.79-13.8 41.29-16.54 6.96-0.61 13.97-0.85 21.01-0.31l-4.67-1.58z"></path><path id="path17210" style="stroke-opacity:0;fill:green" d="m553.62 886.18c-7.86-0.37-15.48-0.1-23.17 0.67-20.65 3.3-33.49 11.72-45.78 19.37-12.6 8.13-22.65 16.92-30.6 26.14-2.7 3.36-1.43 1.78-3.82 4.72l5.34 1.32c2.17-2.99 1.01-1.39 3.5-4.79 7.53-9.28 17.32-18.12 29.92-26.25 12.35-7.61 25.55-15.86 46.29-19 7.8-0.71 15.66-0.99 23.56-0.36l-5.24-1.82z"></path><path id="path17212" style="stroke-opacity:0;fill:green" d="m545.08 879.38c-8.78-0.46-17.29-0.13-25.87 0.82-23.07 4.04-37.41 14.34-51.13 23.69-14.07 9.96-25.31 20.71-34.18 31.98-3.02 4.12-1.6 2.19-4.26 5.79l5.96 1.61c2.42-3.66 1.12-1.7 3.91-5.87 8.41-11.35 19.34-22.16 33.41-32.1 13.8-9.32 28.54-19.4 51.7-23.26 8.71-0.86 17.49-1.2 26.31-0.44l-5.85-2.22z"></path><path id="path17214" style="stroke-opacity:0;fill:green" d="m536.9 874.51c-9.21-0.51-18.13-0.14-27.13 0.92-24.17 4.53-39.21 16.09-53.59 26.58-14.75 11.17-26.52 23.24-35.83 35.88-3.15 4.62-1.66 2.45-4.46 6.49l6.25 1.81c2.54-4.1 1.17-1.91 4.1-6.58 8.81-12.73 20.27-24.86 35.02-36.02 14.46-10.45 29.91-21.77 54.19-26.09 9.13-0.96 18.33-1.35 27.57-0.49l-6.12-2.5z"></path><path id="path17216" style="stroke-opacity:0;fill:green" d="m522.12 872.56c-9.2-0.53-18.12-0.14-27.12 0.96-24.17 4.72-39.2 16.74-53.58 27.67-14.75 11.62-26.52 24.18-35.82 37.34-3.16 4.8-1.67 2.55-4.47 6.75l6.25 1.89c2.54-4.28 1.18-1.99 4.1-6.85 8.81-13.26 20.27-25.88 35.02-37.5 14.46-10.87 29.9-22.65 54.18-27.14 9.13-1.01 18.33-1.41 27.57-0.52l-6.13-2.6z"></path><path id="path17218" style="stroke-opacity:0;fill:green" d="m510.27 871.57c-9.28-0.52-18.27-0.14-27.34 0.95-24.35 4.65-39.5 16.52-53.99 27.3-14.87 11.47-26.73 23.86-36.11 36.86-3.18 4.73-1.68 2.51-4.49 6.66l6.29 1.86c2.56-4.22 1.19-1.96 4.13-6.76 8.88-13.08 20.43-25.54 35.29-37 14.57-10.74 30.14-22.36 54.6-26.79 9.21-1 18.48-1.39 27.79-0.51l-6.17-2.57z"></path><path id="path17220" style="stroke-opacity:0;fill:green" d="m497.32 872.57c-9.49-0.53-18.68-0.14-27.96 0.98-24.91 4.77-40.41 16.95-55.23 28.02-15.21 11.77-27.34 24.49-36.93 37.83-3.26 4.86-1.72 2.58-4.6 6.83l6.44 1.91c2.62-4.33 1.21-2.01 4.22-6.94 9.09-13.42 20.89-26.21 36.1-37.97 14.9-11.02 30.83-22.95 55.85-27.5 9.42-1.02 18.9-1.43 28.42-0.52l-6.31-2.64z"></path><path id="path17222" style="stroke-opacity:0;fill:green" d="m468.92 876.64c-8.79 0.15-17.26 1.07-25.76 2.61-22.73 5.63-36.32 16.9-49.36 27.19-13.35 10.9-23.81 22.41-31.88 34.27-2.72 4.31-1.44 2.29-3.85 6.07l6.06 1.19c2.17-3.82 1-1.77 3.5-6.12 7.6-11.91 17.75-23.45 31.1-34.35 13.12-10.25 27.12-21.33 49.96-26.78 8.63-1.47 17.37-2.42 26.21-2.27l-5.98-1.81z"></path><path id="path17224" style="stroke-opacity:0;fill:green" d="m445.98 881.49c-8.72 0.88-17.03 2.31-25.3 4.2-21.94 6.19-34.15 15.8-45.91 24.63-12 9.31-21.06 18.82-27.71 28.39-2.2 3.46-1.16 1.84-3.12 4.87l6.17 0.36c1.7-3.04 0.78-1.41 2.76-4.88 6.17-9.56 14.92-19.07 26.92-28.38 11.85-8.81 24.48-18.31 46.56-24.38 8.41-1.85 16.98-3.32 25.79-3.98l-6.16-0.83z"></path></g><g id="g17226" transform="matrix(.50813 -.40616 .34929 .59087 -60.404 947.32)"><path id="path17228" style="stroke-opacity:0;fill:black" d="m566.28 894.64c-0.08-2.61-1.91-4.56-3.67-6.55-9.02-9.28-22.19-12.48-35.22-15-34.1-5.09-67.06 1.25-99.16 11.1-25.4 8.25-46.98 21.97-66.31 38.35-6.67 5.77-12.29 12.26-17.23 19.2l-5.35 2.08c5.11-7.06 10.85-13.66 17.69-19.51 21.62-18.19 46.55-32.93 74.59-42.45 32.38-9.9 65.66-16.11 100.06-11.39 13.36 2.41 26.77 5.53 36.17 14.87 1.88 2.02 3.88 4.03 4.2 6.72l-5.77 2.58z"></path><path id="path17230" style="stroke-opacity:0;fill:green" d="m566.65 895.88c-6.16-0.25-12.14-0.07-18.17 0.46-16.19 2.26-26.26 8.02-35.89 13.25-9.88 5.56-17.77 11.57-24 17.88-2.11 2.29-1.12 1.22-2.99 3.23l4.19 0.9c1.7-2.05 0.78-0.95 2.74-3.28 5.91-6.35 13.58-12.39 23.46-17.95 9.69-5.21 20.03-10.85 36.3-13 6.11-0.48 12.28-0.67 18.47-0.24l-4.11-1.25z"></path><path id="path17232" style="stroke-opacity:0;fill:green" d="m561.12 891.04c-7.02-0.32-13.81-0.09-20.67 0.58-18.42 2.87-29.87 10.2-40.83 16.85-11.24 7.08-20.21 14.73-27.3 22.74-2.41 2.93-1.27 1.56-3.4 4.12l4.76 1.14c1.93-2.6 0.89-1.21 3.12-4.17 6.72-8.07 15.44-15.76 26.69-22.83 11.01-6.63 22.79-13.8 41.29-16.54 6.96-0.61 13.97-0.85 21.01-0.31l-4.67-1.58z"></path><path id="path17234" style="stroke-opacity:0;fill:green" d="m553.62 886.18c-7.86-0.37-15.48-0.1-23.17 0.67-20.65 3.3-33.49 11.72-45.78 19.37-12.6 8.13-22.65 16.92-30.6 26.14-2.7 3.36-1.43 1.78-3.82 4.72l5.34 1.32c2.17-2.99 1.01-1.39 3.5-4.79 7.53-9.28 17.32-18.12 29.92-26.25 12.35-7.61 25.55-15.86 46.29-19 7.8-0.71 15.66-0.99 23.56-0.36l-5.24-1.82z"></path><path id="path17236" style="stroke-opacity:0;fill:green" d="m545.08 879.38c-8.78-0.46-17.29-0.13-25.87 0.82-23.07 4.04-37.41 14.34-51.13 23.69-14.07 9.96-25.31 20.71-34.18 31.98-3.02 4.12-1.6 2.19-4.26 5.79l5.96 1.61c2.42-3.66 1.12-1.7 3.91-5.87 8.41-11.35 19.34-22.16 33.41-32.1 13.8-9.32 28.54-19.4 51.7-23.26 8.71-0.86 17.49-1.2 26.31-0.44l-5.85-2.22z"></path><path id="path17238" style="stroke-opacity:0;fill:green" d="m536.9 874.51c-9.21-0.51-18.13-0.14-27.13 0.92-24.17 4.53-39.21 16.09-53.59 26.58-14.75 11.17-26.52 23.24-35.83 35.88-3.15 4.62-1.66 2.45-4.46 6.49l6.25 1.81c2.54-4.1 1.17-1.91 4.1-6.58 8.81-12.73 20.27-24.86 35.02-36.02 14.46-10.45 29.91-21.77 54.19-26.09 9.13-0.96 18.33-1.35 27.57-0.49l-6.12-2.5z"></path><path id="path17240" style="stroke-opacity:0;fill:green" d="m522.12 872.56c-9.2-0.53-18.12-0.14-27.12 0.96-24.17 4.72-39.2 16.74-53.58 27.67-14.75 11.62-26.52 24.18-35.82 37.34-3.16 4.8-1.67 2.55-4.47 6.75l6.25 1.89c2.54-4.28 1.18-1.99 4.1-6.85 8.81-13.26 20.27-25.88 35.02-37.5 14.46-10.87 29.9-22.65 54.18-27.14 9.13-1.01 18.33-1.41 27.57-0.52l-6.13-2.6z"></path><path id="path17242" style="stroke-opacity:0;fill:green" d="m510.27 871.57c-9.28-0.52-18.27-0.14-27.34 0.95-24.35 4.65-39.5 16.52-53.99 27.3-14.87 11.47-26.73 23.86-36.11 36.86-3.18 4.73-1.68 2.51-4.49 6.66l6.29 1.86c2.56-4.22 1.19-1.96 4.13-6.76 8.88-13.08 20.43-25.54 35.29-37 14.57-10.74 30.14-22.36 54.6-26.79 9.21-1 18.48-1.39 27.79-0.51l-6.17-2.57z"></path><path id="path17244" style="stroke-opacity:0;fill:green" d="m497.32 872.57c-9.49-0.53-18.68-0.14-27.96 0.98-24.91 4.77-40.41 16.95-55.23 28.02-15.21 11.77-27.34 24.49-36.93 37.83-3.26 4.86-1.72 2.58-4.6 6.83l6.44 1.91c2.62-4.33 1.21-2.01 4.22-6.94 9.09-13.42 20.89-26.21 36.1-37.97 14.9-11.02 30.83-22.95 55.85-27.5 9.42-1.02 18.9-1.43 28.42-0.52l-6.31-2.64z"></path><path id="path17246" style="stroke-opacity:0;fill:green" d="m468.92 876.64c-8.79 0.15-17.26 1.07-25.76 2.61-22.73 5.63-36.32 16.9-49.36 27.19-13.35 10.9-23.81 22.41-31.88 34.27-2.72 4.31-1.44 2.29-3.85 6.07l6.06 1.19c2.17-3.82 1-1.77 3.5-6.12 7.6-11.91 17.75-23.45 31.1-34.35 13.12-10.25 27.12-21.33 49.96-26.78 8.63-1.47 17.37-2.42 26.21-2.27l-5.98-1.81z"></path><path id="path17248" style="stroke-opacity:0;fill:green" d="m445.98 881.49c-8.72 0.88-17.03 2.31-25.3 4.2-21.94 6.19-34.15 15.8-45.91 24.63-12 9.31-21.06 18.82-27.71 28.39-2.2 3.46-1.16 1.84-3.12 4.87l6.17 0.36c1.7-3.04 0.78-1.41 2.76-4.88 6.17-9.56 14.92-19.07 26.92-28.38 11.85-8.81 24.48-18.31 46.56-24.38 8.41-1.85 16.98-3.32 25.79-3.98l-6.16-0.83z"></path></g></g><g id="g17320" transform="matrix(.44938 -.27557 .30939 .50452 415.11 1519.2)"><path id="path17322" style="stroke-opacity:0;fill:black" d="m666.54 1426.7c-0.16 2-0.12 3.9-0.12 5.9 0.33 5 2.58 9 6.08 12.4 4.73 4.1 10.78 4.8 16.79 4.8 5.58 2 24.87-7.8 12.11-1 5.22-3.9 7.39-9.1 6.48-15.4-2.38-8.2-8.31-13.6-15.2-18.1-6.59-3.8-13.65-4.2-20.89-2.4-13.69 9 4.43-10.9-3.88 4.6-1.44 3.2-1.38 6.3-0.64 9.6 0.3 0.8 0.69 1.4 1.03 2.2l-8.82 5c-0.35-0.8-0.73-1.5-1.04-2.3-0.85-3.6-0.97-6.9 0.45-10.4 3.75-8 12.52-11.9 20.54-14.5 7.45-1.5 14.55-0.9 21.19 3.1 6.97 4.7 13.04 10.5 15.76 18.7 1.24 6.6-0.69 12.1-6 16.4-9.67 5.8-17.33 10.6-28.83 10.1-6.27-0.1-12.54-0.9-17.41-5.2-3.52-3.6-6.11-7.9-6.59-13-0.1-1.9-0.2-3.9-0.29-5.8l9.28-4.7z"></path><path id="path17324" style="stroke-opacity:0;fill:black" d="m690.21 1448.3c-0.16 2.1 0.19 4.3 0.4 6.4 0.57 5.9 0.56 11.9 0.57 17.9 0.14 7.9-0.05 15.9-0.72 23.8-0.49 7-1.48 13.9-2.29 20.8-0.96 6.9-1.96 13.7-3.12 20.5-0.94 4.5-1.46 9.2-1.89 13.8-0.28 2.6-0.48 5.2-0.67 7.9-3.38 6.8-8.22 8.2-12.59 4.2-3.09-3.7-6.01-7.5-8.9-11.4-3.51-5.1-6.88-10.3-10.25-15.5-3.36-5.2-7.11-10.1-11.07-14.7-3.2-3.6-6.32-7.1-9.23-11-5.17-7.3 9.43-8.8 14.03-8.7 22.96 1.2 45.88-0.5 68.73-2.9 16.07-2.1 32.27-4.2 47.94-8.8 3.4-1 5.36-3.9 7.03-0.2-0.18 7.8-0.36 15.6-0.33 23.4 0 4.7-0.01 2.4 0.03 6.8l-8.67 4.8c0.11-4.4 0.06-2.1 0.15-6.8 0.17-7.7 0.35-15.3-0.16-22.9-0.2 0-4.49 0-5.63 1.3-15.09 3.6-30.56 5.1-45.88 7-23.57 2.3-47.16 4.1-70.83 4.4-12.1 0.9-0.46-3.8 2.23-3.1 2.71 4 5.7 7.6 8.93 11.1 3.92 4.7 7.69 9.6 11.06 14.9 3.36 5.2 6.78 10.3 10.3 15.3 2.93 3.8 5.8 7.6 9.06 11.1 4.66 3.4 3.76 1.8-5.15 6.6 0.31-2.6 0.61-5.3 0.92-7.9 0.5-4.7 1.01-9.4 2.1-14 1.26-6.8 2.27-13.6 3.2-20.4 0.83-7 1.81-13.9 2.34-20.8 0.8-7.9 1.08-15.9 0.8-23.8-0.13-5.9-0.22-11.8-0.86-17.6-0.32-2.1-0.74-4.2-0.86-6.3l9.28-5.2z"></path><path id="path17326" sodipodi:nodetypes="ccccccccccscccccccccccccccccccccc" style="stroke-opacity:0;fill:black" d="m674 1563.1c1.43-3.8 4.27-7.1 6.61-10.4 5.33-7 10.32-14.3 15.24-21.6 3.27-5 6.5-10 9.78-14.9 1.49-2 2.57-4.3 3.63-6.5 0.38-1.2 0.9-2.4 1.37-3.6 1.49-3.5 6.79-2.9 10.32-3.8-0.12 5.7-0.15 11.5-0.18 17.3 0.09 7.4-0.26 14.9-1.02 22.3-1.03 7.5-1.49 15.1-1.74 22.6-0.13 6-0.95 12-1.85 17.9-0.58 3.8-0.76 7.7-0.89 11.6-0.18 2 0.16 4 0.45 6.1 0.87 1.7 2.77 2.1 4.43 2.9 3.18 0.9 6.32 1.9 9.5 2.7 0.68 0.2 1.39 0.3 2.08 0.4l-8.66 6.5c-0.69 1.9-1.39-0.3-2.06-0.5-3.16-1-6.32-2-9.5-2.9-2.12-1-4.19-1.4-5.13-3.8-0.31-2.1-0.75-4.2-0.49-6.4 0.25-3.9 0.59-7.9 1.1-11.8 0.89-6 1.99-11.9 2.22-17.9 0.23-7.6 0.53-15.2 1.58-22.7 0.9-7.3 1.25-14.8 1.08-22.2-0.02-5.7 0-11.3-0.29-17 0.84-0.6 11.39-11.7 8.81-5.9-0.58 1.1-1.21 2.2-1.46 3.5-1.12 2.4-2.23 4.7-3.81 6.8-3.47 5-6.96 10.1-10.3 15.2-4.95 7.2-9.83 14.5-15.08 21.5-2.11 3.1-4.22 6.1-6.12 9.4l-9.62 5.2z"></path><path id="path17328" style="stroke-opacity:0;fill:black" d="m694.74 1478.8c-19.19 10.6 3.79-2.2 7.26-4.2 10.16-5.2 16.26-8.8 19.92-11 6.67-4.4 13.3-8.9 18.9-14.7 2.19-1.9 3.46-4.2 4.47-6.8-1.25-1.6-3.3-2-5.1-2.7-2.78-1.4-5.69-2.3-8.54-3.5-3.4-1.1-6.97-1.5-10.48-2-2.36-0.5-4.75-0.5-7.14-0.6-2.63 0.1-5.2-0.6-7.74-1.2-0.48-0.1-0.98-0.3-1.47-0.4l8.47-5.8c0.48 0.2 0.95 0.3 1.43 0.5 2.45 0.5 4.91 1.2 7.45 1 2.44 0.1 4.88 0.1 7.27 0.7 3.52 0.6 7.06 1.2 10.48 2.2 2.9 1.2 5.85 2.1 8.67 3.4 2.26 0.9 4.59 1.5 5.84 3.8-0.88 3-2.02 5.5-4.6 7.7-5.79 5.9-12.58 10.6-19.48 15.1-11.66 7.3-23.71 13.9-35.84 20.3 12.26-7.4-5.88 4.8-8.2 4.3l8.43-6.1z"></path><path id="path17330" style="stroke-opacity:0;fill:black" d="m676.4 1482.8c-3.35-0.3-6.69-0.7-10.03-1.1-6.18-0.5-11.8-2.6-17.35-5.2-5.05-2.8-10.15-5.6-15.34-8.1-2.62-1.1-5.19-2.3-7.63-3.7-1.36-0.8-2.34-1.9-3.41-3-0.92-1.6-0.64-3-0.28-4.7 1.87-4.2 5.24-7.5 8.66-10.6 4.91-3.9 10.15-7.4 15.54-10.7 6.8-4.4 14.25-7.5 21.37-11.3-2.56 1.5-5.12 3-7.68 4.4l9.47-3.6c-3.21 1.8-6.43 3.7-9.65 5.5-3.13 1.6-17.24 8.7-4.53 1.6-5.38 3.1-10.57 6.6-15.49 10.5-3.34 2.8-6.58 5.9-8.49 9.9-0.29 1.4-0.84 2.4-0.06 3.8 0.98 0.9 1.88 1.9 3.09 2.6 2.38 1.4 4.89 2.6 7.36 3.8 5.05 2.8 10.03 5.6 15.12 8.3 5.52 2.5 11.15 4.5 17.26 4.8 3.49 0.4 6.99 0.8 10.5 0.7l-8.43 6.1z"></path></g><path id="path17410" style="fill-rule:evenodd;fill:#00000f;stroke-opacity:0;fill-opacity:0.54" d="m1256.7 2036.3c-7.6 13.8-23.2 19.8-40.4 19.8h-12c-19.4 0-23.5 21.5-54.5 7.4-22.5-10.2 20.6-14.8-17.5-14.8h-16.3c-35.3 0 51.8-3.7 29.4-3.7-25.9 0-76.9 2.4-18.5 2.4 0 0-18.7 5.9-30.6 13.6-28 18.2-2.3-12.5 14.2 6.2 9.8 11.1-95.7 22.3-13.1 22.3h14.2c11.9 0-22.9 7-33.8 12.3-2.7 1.3-5.1 3.3-7.6 5-1.6 1 3.6 0 5.4 0 34.6 0 94.8-3.7 78.6 3.7-26.3 11.9-67.2 9.9-6.6 9.9 111 0-58.6 14.8 17.5 14.8 5.7 0 60.9 5.4 32.7-3.7-44-14.2 30.5-3.8 15.3-21-7.1-8.1-28.1 5.4 0-3.7 2.5-0.8 5.1-1.7 7.6-2.5 0.8-0.2-30.7-7.4-4.4-7.4 9.5 0 20.7-8.6 25.1-18.6 1.3-2.8 19.6-13.5 25.1-19.7 3.4-3.9 8.8-8.9 8.8-14.9 0-7.9-6-3.7-12-3.7-2.5 0-4.4-2.5-6.6-3.7z"></path><path id="path21104" style="fill-opacity:0.94;stroke-opacity:0;fill:black" d="m1255.5 1870.2c0.7 0 1.5-0.1 2.2-0.2 1.5-0.1 2.9-0.5 4.3-0.7s2.6-0.5 3.9-0.9c0.1 0.1 1.2-0.3 1.2-0.3l-2.7 1.8s-1.1 0.3-1.2 0.3c-1.3 0.3-2.5 0.7-3.9 0.8-1.4 0.3-2.8 0.6-4.3 0.7-0.8 0.1-1.5 0.2-2.3 0.2l2.8-1.7z"></path><path id="path21118" style="fill-opacity:0.94;stroke-opacity:0;fill:black" d="m1263.5 1938.5c0.7 0 1.5-0.1 2.2-0.2 1.5-0.2 2.9-0.6 4.3-0.9 1.3-0.2 2.6-0.6 3.9-1 0 0.1 1.1-0.4 1.1-0.4l-2.6 2.1s-1.1 0.4-1.2 0.4c-1.3 0.3-2.5 0.8-3.9 0.9-1.4 0.4-2.8 0.8-4.3 0.9-0.8 0.1-1.5 0.2-2.3 0.2l2.8-2z"></path><path id="path21120" style="fill-opacity:0.94;stroke-opacity:0;fill:black" d="m1263.5 1948.5c0.7 0 1.5-0.1 2.2-0.2 1.5-0.2 2.9-0.6 4.3-0.9 1.3-0.2 2.6-0.6 3.9-1 0 0.1 1.1-0.4 1.1-0.4l-2.6 2.1s-1.1 0.4-1.2 0.4c-1.3 0.3-2.5 0.8-3.9 0.9-1.4 0.4-2.8 0.8-4.3 0.9-0.8 0.1-1.5 0.2-2.3 0.2l2.8-2z"></path><path id="path21122" style="fill-opacity:0.94;stroke-opacity:0;fill:black" d="m1263.5 1958.5c0.7 0 1.5-0.1 2.2-0.2 1.5-0.2 2.9-0.6 4.3-0.9 1.3-0.2 2.6-0.6 3.9-1 0 0.1 1.1-0.4 1.1-0.4l-2.6 2.1s-1.1 0.4-1.2 0.4c-1.3 0.3-2.5 0.8-3.9 0.9-1.4 0.4-2.8 0.8-4.3 0.9-0.8 0.1-1.5 0.2-2.3 0.2l2.8-2z"></path><path id="path21124" style="fill-opacity:0.94;stroke-opacity:0;fill:black" d="m1263.5 1968.5c0.7 0 1.5-0.1 2.2-0.2 1.5-0.2 2.9-0.6 4.3-0.9 1.3-0.2 2.6-0.6 3.9-1 0 0.1 1.1-0.4 1.1-0.4l-2.6 2.1s-1.1 0.4-1.2 0.4c-1.3 0.3-2.5 0.8-3.9 0.9-1.4 0.4-2.8 0.8-4.3 0.9-0.8 0.1-1.5 0.2-2.3 0.2l2.8-2z"></path><path id="path21126" style="fill-opacity:0.94;stroke-opacity:0;fill:black" d="m1263.5 1980.5c0.7 0 1.5-0.1 2.2-0.2 1.5-0.2 2.9-0.6 4.3-0.9 1.3-0.2 2.6-0.6 3.9-1 0 0.1 1.1-0.4 1.1-0.4l-2.6 2.1s-1.1 0.4-1.2 0.4c-1.3 0.3-2.5 0.8-3.9 0.9-1.4 0.4-2.8 0.8-4.3 0.9-0.8 0.1-1.5 0.2-2.3 0.2l2.8-2z"></path><path id="path21128" style="fill-opacity:0.94;stroke-opacity:0;fill:black" d="m1263.5 1988.5c0.7 0 1.5-0.1 2.2-0.2 1.5-0.2 2.9-0.6 4.3-0.9 1.3-0.2 2.6-0.6 3.9-1 0 0.1 1.1-0.4 1.1-0.4l-2.6 2.1s-1.1 0.4-1.2 0.4c-1.3 0.3-2.5 0.8-3.9 0.9-1.4 0.4-2.8 0.8-4.3 0.9-0.8 0.1-1.5 0.2-2.3 0.2l2.8-2z"></path><path id="path21130" style="fill-opacity:0.94;stroke-opacity:0;fill:black" d="m1263.5 2000.5c0.7 0 1.5-0.1 2.2-0.2 1.5-0.2 2.9-0.6 4.3-0.9 1.3-0.2 2.6-0.6 3.9-1 0 0.1 1.1-0.4 1.1-0.4l-2.6 2.1s-1.1 0.4-1.2 0.4c-1.3 0.3-2.5 0.8-3.9 0.9-1.4 0.4-2.8 0.8-4.3 0.9-0.8 0.1-1.5 0.2-2.3 0.2l2.8-2z"></path><path id="path21132" style="fill-opacity:0.94;stroke-opacity:0;fill:black" d="m1263.5 2012.5c0.7 0 1.5-0.1 2.2-0.2 1.5-0.2 2.9-0.6 4.3-0.9 1.3-0.2 2.6-0.6 3.9-1 0 0.1 1.1-0.4 1.1-0.4l-2.6 2.1s-1.1 0.4-1.2 0.4c-1.3 0.3-2.5 0.8-3.9 0.9-1.4 0.4-2.8 0.8-4.3 0.9-0.8 0.1-1.5 0.2-2.3 0.2l2.8-2z"></path><path id="path21134" style="fill-opacity:0.94;stroke-opacity:0;fill:black" d="m1265.5 2022.5c0.7 0 1.5-0.1 2.2-0.2 1.5-0.2 2.9-0.6 4.3-0.9 1.3-0.2 2.6-0.6 3.9-1 0 0.1 1.1-0.4 1.1-0.4l-2.6 2.1s-1.1 0.4-1.2 0.4c-1.3 0.3-2.5 0.8-3.9 0.9-1.4 0.4-2.8 0.8-4.3 0.9-0.8 0.1-1.5 0.2-2.3 0.2l2.8-2z"></path><path id="path21136" style="fill-opacity:0.94;stroke-opacity:0;fill:black" d="m1265.5 2030.5c0.7 0 1.5-0.1 2.2-0.2 1.5-0.2 2.9-0.6 4.3-0.9 1.3-0.2 2.6-0.6 3.9-1 0 0.1 1.1-0.4 1.1-0.4l-2.6 2.1s-1.1 0.4-1.2 0.4c-1.3 0.3-2.5 0.8-3.9 0.9-1.4 0.4-2.8 0.8-4.3 0.9-0.8 0.1-1.5 0.2-2.3 0.2l2.8-2z"></path><g id="g22039" transform="matrix(.84885 0 0 .71662 120.7 167.48)"><path id="path22041" sodipodi:rx="13.780231" sodipodi:ry="14.272382" style="stroke-opacity:0;fill:black" sodipodi:type="arc" d="m1219.6 2216.1a13.78 14.272 0 1 1 -27.6 0 13.78 14.272 0 1 1 27.6 0z" transform="matrix(.79818 0 0 .75428 363.44 681.62)" sodipodi:cy="2216.1184" sodipodi:cx="1205.7701"></path><path id="path22043" sodipodi:rx="13.780231" sodipodi:ry="14.272382" style="stroke-opacity:0;fill:#786721" sodipodi:type="arc" d="m1219.6 2216.1a13.78 14.272 0 1 1 -27.6 0 13.78 14.272 0 1 1 27.6 0z" transform="matrix(.72502 0 0 .68365 451.64 838.15)" sodipodi:cy="2216.1184" sodipodi:cx="1205.7701"></path></g><g id="g22029" transform="matrix(.84885 0 0 .71662 113.03 173.98)"><path id="path22027" sodipodi:rx="13.780231" sodipodi:ry="14.272382" style="stroke-opacity:0;fill:black" sodipodi:type="arc" d="m1219.6 2216.1a13.78 14.272 0 1 1 -27.6 0 13.78 14.272 0 1 1 27.6 0z" transform="matrix(.79818 0 0 .75428 363.44 681.62)" sodipodi:cy="2216.1184" sodipodi:cx="1205.7701"></path><path id="path21140" sodipodi:rx="13.780231" sodipodi:ry="14.272382" style="stroke-opacity:0;fill:#786721" sodipodi:type="arc" d="m1219.6 2216.1a13.78 14.272 0 1 1 -27.6 0 13.78 14.272 0 1 1 27.6 0z" transform="matrix(.72502 0 0 .68365 451.64 838.15)" sodipodi:cy="2216.1184" sodipodi:cx="1205.7701"></path></g><g id="g22045" transform="matrix(.84885 0 0 .71662 133.95 179.89)"><path id="path22047" sodipodi:rx="13.780231" sodipodi:ry="14.272382" style="stroke-opacity:0;fill:black" sodipodi:type="arc" d="m1219.6 2216.1a13.78 14.272 0 1 1 -27.6 0 13.78 14.272 0 1 1 27.6 0z" transform="matrix(.79818 0 0 .75428 363.44 681.62)" sodipodi:cy="2216.1184" sodipodi:cx="1205.7701"></path><path id="path22049" sodipodi:rx="13.780231" sodipodi:ry="14.272382" style="stroke-opacity:0;fill:#786721" sodipodi:type="arc" d="m1219.6 2216.1a13.78 14.272 0 1 1 -27.6 0 13.78 14.272 0 1 1 27.6 0z" transform="matrix(.72502 0 0 .68365 451.64 838.15)" sodipodi:cy="2216.1184" sodipodi:cx="1205.7701"></path></g><g id="g22033" transform="matrix(.84885 0 0 .71662 126.98 173.39)"><path id="path22035" sodipodi:rx="13.780231" sodipodi:ry="14.272382" style="stroke-opacity:0;fill:black" sodipodi:type="arc" d="m1219.6 2216.1a13.78 14.272 0 1 1 -27.6 0 13.78 14.272 0 1 1 27.6 0z" transform="matrix(.79818 0 0 .75428 363.44 681.62)" sodipodi:cy="2216.1184" sodipodi:cx="1205.7701"></path><path id="path22037" sodipodi:rx="13.780231" sodipodi:ry="14.272382" style="stroke-opacity:0;fill:#786721" sodipodi:type="arc" d="m1219.6 2216.1a13.78 14.272 0 1 1 -27.6 0 13.78 14.272 0 1 1 27.6 0z" transform="matrix(.72502 0 0 .68365 451.64 838.15)" sodipodi:cy="2216.1184" sodipodi:cx="1205.7701"></path></g><g id="g22051" transform="matrix(.84885 0 0 .71662 122.79 184.62)"><path id="path22053" sodipodi:rx="13.780231" sodipodi:ry="14.272382" style="stroke-opacity:0;fill:black" sodipodi:type="arc" d="m1219.6 2216.1a13.78 14.272 0 1 1 -27.6 0 13.78 14.272 0 1 1 27.6 0z" transform="matrix(.79818 0 0 .75428 363.44 681.62)" sodipodi:cy="2216.1184" sodipodi:cx="1205.7701"></path><path id="path22055" sodipodi:rx="13.780231" sodipodi:ry="14.272382" style="stroke-opacity:0;fill:#786721" sodipodi:type="arc" d="m1219.6 2216.1a13.78 14.272 0 1 1 -27.6 0 13.78 14.272 0 1 1 27.6 0z" transform="matrix(.72502 0 0 .68365 451.64 838.15)" sodipodi:cy="2216.1184" sodipodi:cx="1205.7701"></path></g></g><g id="g23979" transform="matrix(.94391 0 0 .84982 -51.596 -87.671)"><path id="path23092" style="fill-rule:evenodd;stroke-opacity:0;fill:#d7e3f4" d="m164.38 187.96l-22.15 14.28-10.33 15.25 9.84 30.02 31.5 20.67 32.48 5.42 14.27-2.46 14.27-9.35 17.72-13.78 11.81-3.94 32.48 8.37 35.93 5.41 20.67-3.45 30.52-16.24 33.46-0.98 16.24-6.89 3.45-11.81-15.75-18.21-41.34-20.18-24.61-4.43-25.59 1.97-29.04 9.35-26.08 12.3-22.64 6.89-21.66-5.41-18.7-11.32-21.16-5.91-15.26 0.99-10.33 3.44z"></path><path id="path23090" style="stroke-opacity:0;fill:#59f" d="m239.73 257.98c1.65-3.54 5.03-5.57 8-7.93 12.8-9.42 24.73-7.85 39.14-3.47 17.94 7.82 35.94 11.23 55.36 8.84 10.6-1.16 21.79-7.17 28.48-11.19 7.22-5.99 15.12-6.65 24.02-6.91 12.37 0.17 24.71-0.5 36.16-5.45 4.68-7.75 1.54-15.13-4.95-23.27-15.28-15.95-35.05-23.26-56.08-28.02-23.47-5.52-45.34-2.04-67.33 6.69-16.11 7.31-31.8 15.57-49.14 19.51-13.8 1.96-25.58-5.83-37.2-12.11-13.38-7.55-27.4-10.23-42.49-7.88-14.28 3.13-25.15 10.26-34.56 21.04-9.27 11.9-3.15 24.16 4.04 35.48 10.38 13.55 24.91 20.98 40.97 25.5 11.8 2.63 23.73 4 35.66 1.84 8.08-2.4 5.81-1.71 13.05-8.05 1.77-1.63 3.45-3.34 5.17-5.01l5.02-2.09c-1.74 1.7-3.45 3.42-5.23 5.08-6.53 5.77-13.42 11.46-22.21 13.24-11.94 2.02-23.86 0.49-35.62-2.16-16.13-4.64-30.71-12.19-41.14-25.82-7.31-11.4-13.76-23.9-4.47-36 11.33-13.07 26.65-21.67 43.33-26.06 15.19-2.24 29.3 0.46 42.73 8.11 11.57 6.23 23.3 13.84 37.01 11.8 17.23-3.99 32.85-12.18 48.89-19.41 22.05-8.65 43.98-11.95 67.45-6.42 21.15 4.81 41.01 12.24 56.5 28.13 9.52 11.67 11.74 21.43-3.5 29.12-11.54 4.76-23.88 5.36-36.26 5.28-10.89 0.45-10.22-0.99-14.85 1.89-11.76 7.25-23.42 14.2-37.43 16.1-19.46 2.23-37.53-1.26-55.54-8.97-9.84-2.88-23.14-5-30.04-1.31-2.92 2.24-6.03 4.32-7.98 7.36l-4.96 2.52z"></path></g><g id="g23983" transform="matrix(-.94391 0 0 .84982 897.46 -79.737)"><path id="path23985" style="fill-rule:evenodd;stroke-opacity:0;fill:#d7e3f4" d="m164.38 187.96l-22.15 14.28-10.33 15.25 9.84 30.02 31.5 20.67 32.48 5.42 14.27-2.46 14.27-9.35 17.72-13.78 11.81-3.94 32.48 8.37 35.93 5.41 20.67-3.45 30.52-16.24 33.46-0.98 16.24-6.89 3.45-11.81-15.75-18.21-41.34-20.18-24.61-4.43-25.59 1.97-29.04 9.35-26.08 12.3-22.64 6.89-21.66-5.41-18.7-11.32-21.16-5.91-15.26 0.99-10.33 3.44z"></path><path id="path23987" style="stroke-opacity:0;fill:#59f" d="m239.73 257.98c1.65-3.54 5.03-5.57 8-7.93 12.8-9.42 24.73-7.85 39.14-3.47 17.94 7.82 35.94 11.23 55.36 8.84 10.6-1.16 21.79-7.17 28.48-11.19 7.22-5.99 15.12-6.65 24.02-6.91 12.37 0.17 24.71-0.5 36.16-5.45 4.68-7.75 1.54-15.13-4.95-23.27-15.28-15.95-35.05-23.26-56.08-28.02-23.47-5.52-45.34-2.04-67.33 6.69-16.11 7.31-31.8 15.57-49.14 19.51-13.8 1.96-25.58-5.83-37.2-12.11-13.38-7.55-27.4-10.23-42.49-7.88-14.28 3.13-25.15 10.26-34.56 21.04-9.27 11.9-3.15 24.16 4.04 35.48 10.38 13.55 24.91 20.98 40.97 25.5 11.8 2.63 23.73 4 35.66 1.84 8.08-2.4 5.81-1.71 13.05-8.05 1.77-1.63 3.45-3.34 5.17-5.01l5.02-2.09c-1.74 1.7-3.45 3.42-5.23 5.08-6.53 5.77-13.42 11.46-22.21 13.24-11.94 2.02-23.86 0.49-35.62-2.16-16.13-4.64-30.71-12.19-41.14-25.82-7.31-11.4-13.76-23.9-4.47-36 11.33-13.07 26.65-21.67 43.33-26.06 15.19-2.24 29.3 0.46 42.73 8.11 11.57 6.23 23.3 13.84 37.01 11.8 17.23-3.99 32.85-12.18 48.89-19.41 22.05-8.65 43.98-11.95 67.45-6.42 21.15 4.81 41.01 12.24 56.5 28.13 9.52 11.67 11.74 21.43-3.5 29.12-11.54 4.76-23.88 5.36-36.26 5.28-10.89 0.45-10.22-0.99-14.85 1.89-11.76 7.25-23.42 14.2-37.43 16.1-19.46 2.23-37.53-1.26-55.54-8.97-9.84-2.88-23.14-5-30.04-1.31-2.92 2.24-6.03 4.32-7.98 7.36l-4.96 2.52z"></path></g><path id="path26721" style="stroke-opacity:0;fill:black" d="m37.776 62.635c13.142 4.075 25.601 8.491 38.457 12.719 13.908 4.736 27.127 9.894 43.007 13.401-10.08-0.497-5.03-7.574 0.36-14.919 11.55-11.877 35.07-19.913 59.1-27.535l10.51-1.709c-24 7.548-47.66 15.439-59.28 27.254-5.8 7.929-1.42 15.289-20.63 19.616-15.569-3.766-28.772-8.909-42.719-13.642-12.99-4.245-25.627-8.663-39.216-12.588l10.411-2.597z"></path><path id="path26724" style="stroke-opacity:0;fill:black" d="m54.53 38.952c8.887 3.236 17.312 6.742 26.005 10.1 9.405 3.759 18.34 7.855 29.085 10.639-6.82-0.394-3.4-6.013 0.24-11.845 7.81-9.431 23.71-15.811 39.96-21.863l7.11-1.357c-16.23 5.994-32.23 12.258-40.09 21.64-3.92 6.296-0.96 12.14-13.95 15.575-10.523-2.99-19.451-7.073-28.882-10.831-8.784-3.371-17.328-6.879-26.517-9.996l7.039-2.062z"></path><path id="path26726" style="stroke-opacity:0;fill:black" d="m542.78 84.572c8.89 3.236 17.32 6.742 26.01 10.099 9.4 3.76 18.34 7.859 29.08 10.639-6.82-0.39-3.4-6.013 0.25-11.844 7.8-9.431 23.71-15.811 39.96-21.863l7.1-1.358c-16.22 5.994-32.22 12.259-40.08 21.641-3.93 6.295-0.96 12.144-13.95 15.574-10.53-2.99-19.46-7.07-28.89-10.831-8.78-3.37-17.33-6.879-26.52-9.995l7.04-2.062z"></path><path id="path26734" style="stroke-opacity:0;fill:#00aad4" d="m582.49 534.94c6.89-1.77 14.19-3.53 21.38-5.01 12.21-2.53 24.07-3.76 36.73-3.04 13.59 3.62 27.11 7.06 41.57 9.19 12.31 1.58 24.87 2.13 37.4 2.57l-24.1 10.49c-12.56-0.66-25.14-1.33-37.49-2.9-14.6-2.14-28.21-5.67-42.35-8.66-12.15-0.22-23.81 0.93-35.36 3.54-7.76 1.76-15.37 4.28-23.49 5.17l25.71-11.35z"></path><path id="path26736" style="stroke-opacity:0;fill:#00aad4" d="m720.26 604.36c6.89-1.77 14.19-3.52 21.38-5.01 12.2-2.53 24.07-3.76 36.72-3.04 13.6 3.62 27.11 7.06 41.57 9.2 12.32 1.57 24.87 2.12 37.41 2.57l-24.11 10.48c-12.55-0.66-25.13-1.33-37.49-2.9-14.6-2.14-28.2-5.67-42.34-8.66-12.16-0.22-23.82 0.93-35.36 3.54-7.76 1.76-15.37 4.29-23.5 5.17l25.72-11.35z"></path><path id="path26738" style="stroke-opacity:0;fill:#00aad4" d="m920.83 546.84c6.88-1.77 14.19-3.52 21.38-5.01 12.2-2.53 24.07-3.76 36.72-3.04 13.6 3.62 27.07 7.06 41.57 9.2 12.3 1.57 24.9 2.12 37.4 2.57l-24.1 10.48c-12.6-0.66-25.1-1.33-37.49-2.9-14.6-2.14-28.21-5.67-42.35-8.66-12.15-0.22-23.81 0.93-35.35 3.54-7.76 1.76-15.37 4.28-23.5 5.17l25.72-11.35z"></path><path id="path26740" style="stroke-opacity:0;fill:#00aad4" d="m817.5 681.72c6.89-1.77 14.19-3.53 21.38-5.01 12.21-2.53 24.07-3.76 36.73-3.04 13.59 3.62 27.11 7.06 41.56 9.19 12.32 1.58 24.88 2.13 37.41 2.57l-24.1 10.49c-12.56-0.66-25.14-1.33-37.49-2.9-14.6-2.15-28.21-5.68-42.35-8.66-12.15-0.22-23.81 0.93-35.36 3.54-7.76 1.76-15.37 4.28-23.49 5.17l25.71-11.35z"></path><g id="g30552" transform="translate(-1.6251 -6.6068)"><path id="path29649" style="fill-rule:evenodd;stroke:black;stroke-width:.70918px;fill:black" d="m724.46 345.72l129.23 26.82-119.72-54.45-9.51 27.63z"></path><rect id="rect28748" style="stroke-opacity:0;fill:black" ry="27.251" height="130.33" width="236.59" y="224.07" x="526.46"></rect><rect id="rect28746" style="stroke-opacity:0;fill:white" ry="25.847" height="123.61" width="229.3" y="227.43" x="530.11"></rect><path id="path29645" style="fill-rule:evenodd;stroke-opacity:0;fill:white" d="m729.64 344.46l121.42 26.95-113.39-48.56-8.03 21.61z"></path></g><path id="flowRoot30558" style="fill:black" d="m567.05 287.06c0 1.55-0.47 2.58-1.42 3.08-1.42 0.72-2.68 1.08-3.8 1.08-0.74 0-1.11-0.62-1.11-1.87 0-1.09 0.21-2.31 0.63-3.67 0-1.39-0.42-2.46-1.27-3.21-0.74-0.67-1.65-1-2.75-1-0.85 0-1.87 0.18-3.08 0.54-1.45 0.42-2.37 0.93-2.75 1.54-0.36 0.59-0.58 1.7-0.67 3.34-0.06 1.61-0.3 2.69-0.73 3.25-0.57 0.7-1.26 1.04-2.09 1.04-1.07 0-2.3-0.34-3.67-1.04-1.01-0.53-1.52-1.63-1.52-3.29 0-1.14 0.79-3.27 2.37-6.38 1.59-3.11 2.41-5.28 2.48-6.51 0.02-0.27 0.03-0.68 0.03-1.2 0-0.45-0.01-1.13-0.03-2.05-0.03-0.91-0.04-1.59-0.04-2.04 0-3.7 0.5-6.41 1.49-8.13 1.14-1.92 3.08-2.88 5.8-2.88 1.04 0 1.99 0.16 2.85 0.46 2.49 0.84 4.2 2.62 5.13 5.34 0.68 1.94 1.02 4.79 1.02 8.55 0 0.55-0.01 1.4-0.03 2.54-0.03 1.14-0.04 1.99-0.04 2.54 0 1.11 0.53 2.78 1.59 5 1.07 2.2 1.61 3.85 1.61 4.97m-4.94-13.47c0-1.83-0.37-3.56-1.11-5.17-0.86-1.89-1.94-2.83-3.23-2.83-1.31 0-2.4 0.94-3.26 2.83-0.74 1.61-1.11 3.35-1.11 5.21 0 1.61 0.36 2.68 1.08 3.21 0.57 0.42 1.59 0.63 3.07 0.63 1.46 0 2.48-0.17 3.07-0.5 1-0.59 1.49-1.71 1.49-3.38m33.01-3.88c0 1.17-0.45 3.43-1.34 6.8-1.11 4.22-1.74 6.64-1.86 7.25-0.51 2.59-1.12 4.39-1.84 5.42-0.91 1.34-2.29 2-4.15 2-0.36 0-0.95-0.32-1.78-0.96-0.8-0.64-1.33-1.16-1.58-1.58-0.57-0.92-1.11-2.27-1.62-4.04-0.08-0.31-0.45-1.78-1.1-4.42-0.51-1.73-1.02-3.46-1.53-5.21-0.63-2.23-0.95-3.98-0.95-5.26 0-0.69 0.15-1.3 0.45-1.83 0.29-0.53 0.7-0.79 1.2-0.79 2.64 0 3.96 0.94 3.96 2.83 0 0.75-0.06 1.85-0.19 3.29-0.12 1.45-0.19 2.53-0.19 3.26 0 1.94 0.33 4.01 0.98 6.21 0.85 2.75 1.88 4.13 3.11 4.13 1.73 0 2.94-1.89 3.64-5.67 0.45-2.31 0.67-5.16 0.67-8.55s0.65-5.09 1.96-5.09c1.44 0 2.16 0.74 2.16 2.21m5.35-7.84c0 1.84-0.68 2.76-2.06 2.76-1.43 0-2.15-0.96-2.15-2.88 0-1.72 0.72-2.58 2.15-2.58 1.38 0 2.06 0.9 2.06 2.7m0.67 8.8c0 1.25-0.22 3.1-0.67 5.55-0.44 2.41-0.66 4.25-0.66 5.5 0 1.58 0.19 3.06 0.57 4.42 0.29 1.08 0.44 1.69 0.44 1.83 0 0.73-0.27 1.45-0.82 2.17-0.55 0.7-1.09 1.04-1.62 1.04-0.57 0-1.14-0.34-1.71-1.04-0.57-0.69-0.85-1.42-0.85-2.17 0-0.58 0.18-1.57 0.53-2.96 0.38-1.41 0.57-2.6 0.57-3.54 0-1.22-0.22-3.03-0.66-5.42s-0.67-4.21-0.67-5.46c0-2.25 0.93-3.38 2.79-3.38 1.84 0 2.76 1.15 2.76 3.46m17.14-7.17c0 1.84-0.42 4.64-1.26 8.42-0.83 3.75-1.24 6.46-1.24 8.13 0 0.47 0.41 1.57 1.24 3.29 0.82 1.73 1.23 3.01 1.23 3.84 0 0.75-0.27 1.31-0.82 1.67-0.28 0.19-0.79 0.37-1.55 0.54-0.34 0.08-0.75 0.38-1.24 0.88s-0.9 0.75-1.24 0.75c-0.63 0-0.95-0.55-0.95-1.63 0-0.17 0.07-0.42 0.19-0.75 0.13-0.33 0.19-0.58 0.19-0.75 0-0.31-0.08-0.75-0.25-1.33-0.15-0.62-0.32-0.92-0.51-0.92-0.27 0-0.9 0.92-1.9 2.75-0.97 1.81-1.81 2.71-2.53 2.71-2.18 0-3.94-1.35-5.29-4.04-1.16-2.34-1.74-5.01-1.74-8.01 0-2.95 0.57-5.6 1.71-7.96 1.31-2.7 3.02-4.05 5.13-4.05 0.8 0 1.44 0.39 1.9 1.17s0.95 1.17 1.46 1.17c0.91 0 1.36-0.5 1.36-1.5 0-0.72-0.28-1.88-0.82-3.46-0.53-1.61-0.8-2.84-0.8-3.67 0-0.81 0.29-1.45 0.86-1.92 0.48-0.39 1.05-0.58 1.71-0.58 0.61 0 1.6 0.23 2.98 0.71 1.45 0.5 2.18 2.01 2.18 4.54m-7.47 20.39c0-1.03-0.32-2.59-0.95-4.67-0.51-1.67-0.9-2.77-1.18-3.3-0.61-1.11-1.38-1.66-2.31-1.66-1.14 0-1.99 0.9-2.56 2.71-0.43 1.36-0.64 2.91-0.64 4.67 0 1.89 0.26 3.47 0.76 4.75 0.66 1.64 1.64 2.46 2.95 2.46 1.03 0 1.94-0.49 2.72-1.46 0.81-0.97 1.21-2.14 1.21-3.5m24.37 4.21c0 1.39-0.34 2.3-1.01 2.75-1.19 0.78-2.21 1.17-3.08 1.17-0.93 0-1.39-0.56-1.39-1.67 0-0.14 0.01-0.33 0.03-0.58 0.04-0.25 0.06-0.45 0.06-0.59 0-0.83-0.22-1.25-0.66-1.25-0.32 0-1.04 0.56-2.16 1.67-1.11 1.08-2.01 1.62-2.69 1.62-1.5 0-2.84-0.87-4.02-2.62-1.14-1.67-1.71-3.5-1.71-5.51 0-2.55 1.13-4.65 3.39-6.29 1.88-1.36 3.88-2.04 6.02-2.04 0.17 0 0.41 0.08 0.73 0.25 0.31 0.16 0.54 0.25 0.69 0.25 0.3 0 0.45-0.24 0.45-0.71 0-1.39-0.51-2.49-1.52-3.29-0.85-0.7-1.83-1.05-2.95-1.05-0.63 0-1.37 0.61-2.22 1.84-0.82 1.22-1.5 1.83-2.03 1.83-0.46 0-0.85-0.19-1.17-0.58-0.29-0.42-0.44-0.93-0.44-1.54 0-0.92 0.24-1.94 0.73-3.05 0.57-1.3 1.51-1.96 2.82-1.96 0.61 0 1.71 0.18 3.29 0.54 2.39 0.53 3.88 0.99 4.47 1.38 1.2 0.81 2.09 2.38 2.66 4.71 0.25 1.03 0.38 2.16 0.38 3.38 0 0.55-0.03 1.4-0.1 2.54-0.06 1.11-0.09 1.95-0.09 2.5 0 0.36 0.21 1.06 0.63 2.09 0.47 1.11 0.72 1.85 0.76 2.21 0.09 0.69 0.13 1.36 0.13 2m-7.16-5.01c0-0.72-0.18-1.32-0.54-1.79-0.34-0.47-0.79-0.71-1.36-0.71-1.18 0-2.23 0.23-3.14 0.67-1.29 0.61-1.93 1.56-1.93 2.84 0 1.16 0.39 2.11 1.17 2.83 0.68 0.61 1.48 0.92 2.41 0.92s1.72-0.48 2.38-1.42c0.67-0.97 1.01-2.08 1.01-3.34m34.52-5.96c0 1.28-0.26 2.44-0.79 3.46-0.59 1.14-1.35 1.71-2.28 1.71-0.99 0-2.4-0.47-4.21-1.41-1.8-0.98-3.15-1.46-4.06-1.46-0.57 0-0.94 0.27-1.11 0.83-0.1 0.33-0.16 0.94-0.16 1.83 0 1.64 0.48 2.77 1.43 3.38 0.13 0.08 1.14 0.45 3.04 1.09 0.55 0.16 1.02 0.25 1.4 0.25 0.42 0 1.14-0.55 2.15-1.63 1.03-1.11 1.82-1.67 2.34-1.67 0.47 0 0.84 0.39 1.11 1.17 0.23 0.64 0.35 1.29 0.35 1.96 0 1.42-0.32 2.53-0.95 3.33-0.63 0.81-1.48 1.21-2.53 1.21-0.66 0-1.79-0.15-3.39-0.46-2.71-0.52-4.89-1.73-6.56-3.62-1.92-2.14-2.88-4.91-2.88-8.3 0-3.17 0.79-5.95 2.37-8.34 1.61-2.42 3.59-3.62 5.96-3.62 1.98 0 3.93 1.05 5.83 3.16 1.96 2.2 2.94 4.58 2.94 7.13m-2.59-0.96c0-2.5-1.49-3.75-4.47-3.75-2.35 0-3.52 0.93-3.52 2.8 0 1.14 0.66 2.14 1.97 3 1.12 0.72 2.17 1.08 3.16 1.08 1.91 0 2.86-1.04 2.86-3.13m1.29-15.67c0 0.72-0.43 1.36-1.29 1.92-0.68 0.39-1.36 0.76-2.03 1.12-0.26 0.14-0.53 0.56-0.83 1.25-0.29 0.67-0.59 1-0.88 1-0.34 0-0.72-0.14-1.14-0.41-0.43-0.31-0.64-0.68-0.64-1.13 0-0.3 0.22-0.61 0.67-0.92 0.32-0.16 0.64-0.33 0.98-0.5 0.74-0.41 1.29-1.14 1.65-2.16 0.38-1.06 0.62-1.7 0.73-1.92 0.38-0.72 0.81-1.09 1.3-1.09 0.25 0 0.55 0.38 0.91 1.13 0.38 0.75 0.57 1.32 0.57 1.71m30.4 21.55c0 2.34-1.29 4.24-3.87 5.71-0.99 0.56-3.05 1.35-6.18 2.38-1.96 0.64-3.48 0.96-4.56 0.96-1.46 0-2.53-0.33-3.23-1-0.78-0.78-1.17-2.09-1.17-3.92 0-1.28 0.16-3.2 0.47-5.75 0.32-2.56 0.48-4.49 0.48-5.8 0-1.3-0.17-3.22-0.51-5.75-0.32-2.56-0.47-4.48-0.47-5.75 0-1.84 0.4-3.13 1.2-3.88 0.68-0.67 1.74-1 3.2-1 1.01 0 2.52 0.3 4.53 0.92 1.25 0.36 2.48 0.72 3.71 1.08 1.64 0.58 2.91 1.28 3.8 2.08 1.14 1.09 1.71 2.45 1.71 4.09 0 1.17-0.38 2.15-1.14 2.96-0.7 0.64-1.4 1.28-2.09 1.92-0.76 0.77-1.14 1.69-1.14 2.75 0 1.11 0.45 2.01 1.36 2.71 0.84 0.61 1.69 1.21 2.53 1.79 0.91 0.86 1.37 2.03 1.37 3.5m-8.3-16.42c0-1.23-0.64-2.24-1.91-3.05-1.05-0.69-2.11-1.04-3.16-1.04-0.85 0-1.51 0.43-2 1.29-0.46 0.75-0.7 1.7-0.7 2.84s0.24 2.1 0.7 2.88c0.49 0.86 1.15 1.29 2 1.29 0.33 0 0.86-0.13 1.58-0.38 2.32-0.8 3.49-2.08 3.49-3.83m4.02 17.05c0-1.25-0.53-2.23-1.59-2.92-0.54-0.36-1.48-0.72-2.81-1.08-0.77-0.2-1.27-0.3-1.53-0.3-0.88 0-1.58 0.46-2.09 1.38-0.46 0.81-0.69 1.81-0.69 3 0 1.2 0.24 2.22 0.73 3.09 0.48 0.86 1.17 1.29 2.05 1.29 0.28 0 0.79-0.1 1.53-0.29 1.33-0.36 2.28-0.75 2.85-1.17 1.03-0.7 1.55-1.7 1.55-3m21.9-5.55c0 1.28-0.27 2.44-0.79 3.46-0.6 1.14-1.36 1.71-2.28 1.71-1 0-2.4-0.47-4.22-1.41-1.79-0.98-3.15-1.46-4.05-1.46-0.57 0-0.94 0.27-1.11 0.83-0.11 0.33-0.16 0.94-0.16 1.83 0 1.64 0.47 2.77 1.43 3.38 0.12 0.08 1.14 0.45 3.04 1.09 0.55 0.16 1.01 0.25 1.39 0.25 0.42 0 1.14-0.55 2.15-1.63 1.04-1.11 1.82-1.67 2.35-1.67 0.46 0 0.83 0.39 1.11 1.17 0.23 0.64 0.35 1.29 0.35 1.96 0 1.42-0.32 2.53-0.95 3.33-0.64 0.81-1.48 1.21-2.54 1.21-0.65 0-1.78-0.15-3.39-0.46-2.7-0.52-4.89-1.73-6.56-3.62-1.92-2.14-2.88-4.91-2.88-8.3 0-3.17 0.79-5.95 2.38-8.34 1.6-2.42 3.59-3.62 5.95-3.62 1.99 0 3.93 1.05 5.83 3.16 1.97 2.2 2.95 4.58 2.95 7.13m-2.6-0.96c0-2.5-1.49-3.75-4.47-3.75-2.34 0-3.51 0.93-3.51 2.8 0 1.14 0.65 2.14 1.96 3 1.12 0.72 2.18 1.08 3.17 1.08 1.9 0 2.85-1.04 2.85-3.13m9.91 12.01c0 2-1.14 3-3.42 3-2.41 0-3.61-1.14-3.61-3.42 0-1 0.28-2.41 0.85-4.25 0.57-1.83 0.86-3.22 0.86-4.17 0-1.83-0.3-4.51-0.89-8.04-0.57-3.56-0.86-6.26-0.86-8.09 0-3.7 1.2-5.55 3.58-5.55 2.31 0 3.46 1.67 3.46 5.01 0 1.89-0.35 4.65-1.05 8.29-0.67 3.62-1.01 6.37-1.01 8.26 0 0.78 0.35 2.21 1.04 4.29 0.7 2.06 1.05 3.61 1.05 4.67m16.93-0.08c0 1.39-0.34 2.3-1.02 2.75-1.18 0.78-2.2 1.17-3.07 1.17-0.93 0-1.39-0.56-1.39-1.67 0-0.14 0.01-0.33 0.03-0.58 0.04-0.25 0.06-0.45 0.06-0.59 0-0.83-0.22-1.25-0.66-1.25-0.32 0-1.04 0.56-2.16 1.67-1.12 1.08-2.01 1.62-2.69 1.62-1.5 0-2.84-0.87-4.02-2.62-1.14-1.67-1.71-3.5-1.71-5.51 0-2.55 1.13-4.65 3.39-6.29 1.88-1.36 3.88-2.04 6.01-2.04 0.17 0 0.42 0.08 0.73 0.25 0.32 0.16 0.55 0.25 0.7 0.25 0.3 0 0.44-0.24 0.44-0.71 0-1.39-0.5-2.49-1.52-3.29-0.84-0.7-1.82-1.05-2.94-1.05-0.64 0-1.38 0.61-2.22 1.84-0.82 1.22-1.5 1.83-2.03 1.83-0.46 0-0.85-0.19-1.17-0.58-0.3-0.42-0.44-0.93-0.44-1.54 0-0.92 0.24-1.94 0.73-3.05 0.57-1.3 1.51-1.96 2.81-1.96 0.62 0 1.72 0.18 3.3 0.54 2.39 0.53 3.87 0.99 4.47 1.38 1.2 0.81 2.09 2.38 2.66 4.71 0.25 1.03 0.38 2.16 0.38 3.38 0 0.55-0.03 1.4-0.1 2.54-0.06 1.11-0.09 1.95-0.09 2.5 0 0.36 0.21 1.06 0.63 2.09 0.47 1.11 0.72 1.85 0.76 2.21 0.09 0.69 0.13 1.36 0.13 2m-7.16-5.01c0-0.72-0.18-1.32-0.54-1.79-0.34-0.47-0.79-0.71-1.36-0.71-1.19 0-2.23 0.23-3.14 0.67-1.29 0.61-1.93 1.56-1.93 2.84 0 1.16 0.39 2.11 1.17 2.83 0.68 0.61 1.48 0.92 2.41 0.92s1.72-0.48 2.37-1.42c0.68-0.97 1.02-2.08 1.02-3.34m22.93-3.83c0 1.69-0.91 2.54-2.73 2.54-1.92 0-2.88-0.98-2.88-2.96 0-0.94 0.15-1.98 0.44-3.12 0.32-1.17 0.48-2.24 0.48-3.21 0-0.98-0.15-2.76-0.45-5.34-0.29-2.61-0.44-4.36-0.44-5.25 0-1.89 0.95-2.84 2.85-2.84 1.8 0 2.69 0.85 2.69 2.54 0 0.87-0.19 2.65-0.57 5.34-0.38 2.7-0.57 4.59-0.57 5.67s0.19 2.24 0.57 3.46c0.41 1.22 0.61 2.28 0.61 3.17m0.25 8.71c0 0.98-0.32 1.75-0.95 2.34-0.61 0.55-1.3 0.83-2.06 0.83-0.74 0-1.41-0.29-2.03-0.87-0.61-0.59-0.92-1.35-0.92-2.3 0-1 0.32-1.82 0.95-2.46 0.57-0.61 1.25-0.91 2.03-0.91s1.47 0.32 2.06 0.95c0.61 0.62 0.92 1.42 0.92 2.42"></path><g id="g5693" transform="matrix(.51552 0 0 .60371 328.7 416.65)"><rect id="rect5691" style="stroke-opacity:0;fill:#405" height="111.11" width="124.06" y="414.64" x="1246.1"></rect><rect id="rect7948" style="stroke-opacity:0;fill:#e3d7f4" height="103.1" width="116.05" y="418.64" x="1250.2"></rect><g id="g5587" style="fill:#80a" transform="matrix(.14919 0 0 .14570 1343.4 83.734)"><path id="path5516" style="fill:#80a" d="m-274.91 2439c-13.37 28.6-24.95 58.1-37.2 87.2-16.97 41.9-39.1 81.4-59.89 121.6-13.34 26.9-26.66 54-37.38 82.1-4.12 13.3-8.51 26.8-9.41 40.6 21.28 5 46.58 0.3 68.56-1.6 76.06-7.3 151.71-17.8 227.1-30.2 30.848-8.2 65.481-5.7 94.945-19.1-26.549 17.4-19.615 8.9-37.247-9.4-17.99-17.2-35.248-34.8-50.748-54.3-16.6-21.5-32.61-43.5-49.67-64.7-16.93-20.5-33.65-41-51.32-60.9-12.48-14.4-26.85-26.9-40.59-40.1-9.62-8.7-19.12-17.6-28.39-26.7-3.77-3.6-7.5-7.2-11.24-10.9l24.05-14.8c3.74 3.7 7.49 7.3 11.19 11 9.07 9.2 18.41 18.1 27.8 27 13.69 13.2 27.55 26.2 39.75 40.9 17.61 19.9 34.05 40.7 51.19 61 17.09 21.2 32.97 43.3 49.567 64.9 15.804 19.2 33.024 36.9 51.613 53.4 21.368 20.1 28.36 23.3-7.962 40.9-29.254 8.2-59.918 9.3-89.828 14.5-76.08 11-152.25 21.4-228.51 31.1-22.23 2.7-55.89 13.1-75.78 1.1 1.39-14.5 6.51-28.5 10.93-42.5 11.17-28.5 25.1-55.9 38.81-83.2 21.41-40.2 44.42-79.6 61.35-122 11.32-28 21.89-56.3 31.89-84.7l26.42-12.2z"></path><path id="path5518" style="fill:#80a" d="m-264.44 2529.5c0.82 2.6 5.23 10.1 7.46 14 6.25 11.9 10.54 24.6 15.36 37.2 4.86 12.1 9.41 24.3 13.8 36.6 2.91 9.3 4.55 19 6.82 28.5 2.21 6.6 2.75 13.3 3.2 20.2-0.09 11.1 0.05 22.3 0.08 33.5 0.02 1.6 0.04 3.1 0.06 4.6l-25.27 12.9c0.03-1.6 0.05-3.1 0.07-4.7 0.04-11.1 0.28-22.2-0.37-33.2-0.44-6.7-0.99-13.3-2.83-19.7-2.21-9.6-3.53-19.2-6.39-28.6-4.12-12.3-8.61-24.5-13.32-36.7-4.92-12.3-9.13-25-15.77-36.5-3.06-4.9-6.16-9.8-9.16-14.7l26.26-13.4z"></path><path id="path5520" style="fill:#80a" d="m-306.76 2639.5c4.6-0.8 9.18-3.2 13.66-4.9 14.07-5.4 28.37-9.8 42.83-14 9.39-3.2 19.08-5 28.89-6.2 5.16-0.8 10.27-1.4 15.49-1.9 6.2 0 12.31-0.6 18.45-1.4 3.51-0.5 6.98-1.4 10.41-2.3l-23.15 17.6c-3.44 0.7-6.81 1.8-10.36 1.9-6.17 0.7-12.34 1-18.54 1.4-5.1 0.6-10.19 1.4-15.32 1.8-9.43 1.3-18.72 3.1-27.79 6-14.64 4.1-28.94 8.9-43.08 14.5-4.97 2-9.89 4.7-15.33 4.8l23.84-17.3z"></path><path id="path5522" style="fill:#80a" d="m-209.46 2546.5c2.92 4.9 5.64 9.9 8.23 15 1.31 4.2 3.19 8.3 4.95 12.3 1.57 2.3 3.17 4.6 4.73 6.9 6.74 5.8-14.74 10-22.65 14 0.28-1.1-0.23-2.3-0.34-3.4l25.72-13.7c0.31 1.4 0.68 2.8 0.92 4.3-4.02 2.5-21.61 26.3-28.69 13.8-1.66-2.5-3.38-4.9-4.98-7.5-1.68-4.1-3.54-8.2-4.67-12.6-2.37-4.8-4.77-9.6-8.26-13.8l25.04-15.3z"></path><path id="path5524" style="fill:#80a" d="m-292.67 2699.9c-0.14-2.3 1.23-4.4 1.91-6.5 2.29-4.8 5.04-9.3 7.65-14 2.02-3.2 3.34-6.7 4.81-10.2-0.55-9.2 15.71-9.6 23.89-13.7-1.73 3.3-2 7.1-2.66 10.7-0.71 2.3-0.84 4.7-1.25 7l-26.04 12.9c0.36-2.4 0.34-4.9 1.07-7.3 0.71-3.8 1.54-7.6 2.23-11.4 7.05-4.2 28.22-27.1 29.15-10.5-1.47 3.6-2.79 7.4-4.79 10.8-2.54 4.5-5.16 8.9-7.65 13.4-0.68 1.8-1.43 3.9-2.06 5.4l-26.26 13.4z"></path><path id="path5526" style="fill:#80a" d="m-416.03 2787.4c-0.55 7.7-0.69 15.4-0.25 23 2.82 15.6 8.67 30.4 16.48 44.1 5.17 9.6 12.66 14.8 22 19.6 6.53 4 13.01 5 20.03 5-27.62 19-24.35 14.1-30.8-9.8-4.46-16.4-8.21-32.9-12.1-49.5-1.72-6.7-2.81-13.5-3.7-20.3l25.57-13.3c0.52 6.9 1.21 13.7 2.61 20.5 3.27 16.6 6.82 33.2 11.82 49.4 8.53 25.3 18.03 22.9-16.6 40.5-7.1-1.4-14-3.2-20.48-6.9-9.69-5.2-17.29-11.1-22.35-21.4-7.69-14.1-13.5-29.3-17.29-45-0.7-7.5-0.72-15-1.19-22.5l26.25-13.4z"></path><path id="path5528" style="fill:#80a" d="m-82.337 2724.2c4.98 6 7.96 13.1 11.053 20.1 7.523 16.3 13.966 32.9 17.712 50.4 2.391 11.1 4.768 22.2 6.625 33.5 1.745 16.4 3.212 6-24.269 20.1 3.235-7.1 5.561-14.6 8.146-22 2.698-8.2 5.438-16.4 8.52-24.6 2.655-5.6 3.223-11.6 4.025-17.6 0.315-4.3 0.245-8.6 0.244-12.9 0.258-6-1.395-11.7-2.913-17.4-0.556-6.2-2.774-11.8-5.079-17.4l24.817-14.5c3.052 5.8 4.608 11.7 5.437 18.2 1.566 5.9 3.558 11.8 3.598 17.9-0.006 4.4 0.054 8.8-0.263 13.2-0.789 6.3-1.244 12.7-3.916 18.5-3.336 8.1-6.151 16.3-8.846 24.6-2.519 7.4-5.109 14.7-7.076 22.2-27.693 15.9-26.859 23.5-27.784 5-1.251-11.4-2.991-22.7-5.522-33.8-3.42-17.4-9.338-34-17.409-49.8-2.462-4.9-7.433-14.4-10.943-16.4l23.843-17.3z"></path><path id="path5530" style="fill:#80a" d="m-251.16 2454.5c15.02-17.2 37.17-26.6 56.67-37.4 21.42-8.8 44.1-13.1 67.1-14.6 16.06-1.3 26.78 4.6 38.23 14.6 7.3 11.1 9.199 22.8 5.956 35.6-4.355 12.5-12.086 23.2-19.186 34.2-2.9 2.6-3.96 7.4-5.21 10.2 9.392-2.8 19.165-4.5 28.838-6 19.138-2.7 38.465-3.7 57.762-4.3 11.329-0.8 20.315-1.6 28.382 6 4.044 11.9 5.041 24.5 6.132 37 1.654 13.3-3.129 24.6-8.9679 36.2-4.2784 2.8-5.7112 11.7-6.5262 13.9 5.1289-0.9 9.2146 1.5 13.722 3.5 7.465 4.2 9.459 10.9 11.57 18.6 1.208 7.9 1.309 15.9 1.346 23.9-0.02 8.8-3.424 16.9-6.594 25-3.741 8.1-9.4281 14.9-15.015 21.7-9.7422 10-21.028 18.5-31.77 27.4-14.838 11.7-30.63 23.8-48.872 29.2-0.951 0-1.902-0.1-2.853-0.1l23.263-17.1c0.858-0.1 1.717-0.2 2.575-0.3-5.126 3.3-10.076 6.9-15.378 9.9-5.609 3.2 21.791-13.5 15.721-11.3 10.518-8.7 21.464-17.1 31.094-26.7 5.711-6.5 11.393-13.1 15.342-20.9 3.2794-7.6 6.7942-15.4 7.0334-23.9-0.06248-7.8 0.11581-15.6-1.0733-23.3-1.8103-7-3.3722-12.8-10.395-16.3-4.767-1.8-9.421-2.6-14.313-3.7-2.391-7.6-0.549-10.9 5.479-18.1 6.155-11 11.252-21.7 9.887-34.8-0.824-11.9-1.98-23.9-6.071-35.2-7.92-4-15.857-5.9-25.844-4.4-19.21 0.5-38.468 1.3-57.454 4.5-10.42 2-21.98 6.8-32.22 4.5 0.34-5.1-0.82-9.2 4.39-13.8 7.43-10.7 15.46-21.2 20.1-33.5 3.46-11.8 1.93-22.6-4.86-32.9-10.77-9.3-20.97-14.5-35.92-13.3-22.88 1.5-45.4 6.1-66.46 15.4 32.79-20.3-3.52 0.7-8.75 8.9l-26.86 11.7z"></path><path id="path5532" style="fill:#80a" d="m-305.48 2465.9c-4.96-0.2-9.93-0.3-14.9-0.4-12.01-0.1-24.01-0.1-36.02 0-7.05-1-12.48 1-18.7 3.4 41.83-29.1 8.17-0.7-0.12 10.4-6.52 9-9.12 19.5-11.13 30.2-1.25 8 0.34 13.8 5.33 19.7 5.58 1 7.99 5.2 10.84 7.5-22.95 18.3-37.69 15-63.34 17.4-14.83-0.4-55.86 23.6-10.27-2.1-5.11 3.4-4.92 6.3-5.36 11.6 4.63 9.9 12.08 18.2 20.59 24.9 9.12 6.3 19.1 10.8 29.45 14.5 13.64 12.1-23.29 21.5-35.72 25.4-27.26 16.3 16.12-23-5.67 8-5.39 9.8-5.38 20.4-4.6 31.2 2.18 9.4 6.77 18 10.85 26.7 4.52 9.9 9.98 19.2 15.75 28.4 4.52 6.5 9.73 12.6 14.9 18.6l-24.38 14.7c-5.13-6.2-10.25-12.5-14.86-19.1-5.81-9.3-11.38-18.7-15.87-28.7-4.31-8.9-9.29-17.7-11.48-27.4-0.94-11.2-0.86-22.4 4.03-33 11.95-19.3 31.58-30 53.37-36.6 26.46-9.7-9.39 7.6-10.13 7.8-10.16-4.5-20.07-9.4-29.25-15.7-8.92-7.3-16.86-15.8-22.34-26-1.08-6.5-0.87-10.1 4.08-15 19.96-11.6 35.86-22.7 58.94-24.5 15.65-1.2 63.74-11.5 14.24 10.1-2.75-1.2-5.9-1.8-8.24-3.7-5.31-6.8-7.57-13.2-6.36-22.2 1.98-11.1 4.76-22.1 11.07-31.7 13.52-18.5 25.39-29.6 48.13-39.2 6.31-2.2 12.33-2.9 19.1-2.2 12 0.1 23.99 0.2 35.98 0 5.31-0.1 10.62-0.1 15.93-0.3l-23.84 17.3z"></path><path id="path5534" style="fill:#80a" d="m-336.29 2415.1c-54.32 29.5-10.76 5.9 5.75-3 10.55-1.9 21.11-3.6 31.78-4.6 15.78-0.5 31.34-2.6 46.84-5.4 14.65-1 47.44-21.2 1.76 5 3.94-2.1 3.63-4.8 4.78-8.3-1.42-8.5-8.24-12.2-14.71-17-10.44-5.1-21.85-6.1-33.29-6.8-13.47-0.8-25.6 3.2-37.47 9 36.1-24.1 7.79-2.7 0.79 6.9-2.55 3.5-3.33 7.6-4.72 11.5l-26.02 12.5c1.37-4.2 2.05-8.7 4.72-12.5 11.88-17.7 26.76-26 47.04-35.7 12.21-5.7 24.8-8.9 38.39-8 11.85 0.8 23.62 2.1 34.25 7.9 7.01 5.2 14.89 9.7 16.82 18.9-0.26 4.5 0.08 7.9-3.64 11.1-18.2 10.6-30.56 19.5-50.75 22.1-15.59 2.7-31.25 4.4-47.04 5.3-10.86 1.3-21.81 2.8-32.3 6-29.45 13.3 75.65-42-6.82 2.4l23.84-17.3z"></path><path id="path5536" style="fill:#80a" d="m-393.07 2355.4c-0.14 0.1-1.98-4.1-2.7-5.6l25.24-14.2c1.22 2.1 2.19 4.4 3.72 6.4l-26.26 13.4z"></path><path id="path5538" style="fill:#80a" d="m-288.71 2327.6c0.04-0.3 0.08-2.1 0.09-2.2l26.03-13.2c0.03 0.7 0.03 1.4 0.09 2l-26.21 13.4z"></path><path id="path5540" style="fill:#80a" d="m-209.82 2336.4c3.06-3.8 6.42-7.3 9.67-10.9l26.15-11c-3.02 3.4-5.95 6.8-8.96 10.2l-26.86 11.7z"></path><path id="path5542" style="fill:#80a" d="m-157.14 2363.9c0.39 0.4 0.78 0.8 1.17 1.2l-24.59 15.9c-0.14 0.1-0.28 0.2-0.43 0.2l23.85-17.3z"></path><path id="path5544" style="fill:#80a" d="m-407.85 2402.9c33.07-19.8 27.42-20.7 21.86-7.2l-26.19 12.2c5.9-15.4-1.59-8.8 28.18-22.3l-23.85 17.3z"></path><path id="path5546" style="fill:#80a" d="m-377.42 2684.8c6.86 8 12.63 16.8 18.71 25.4 11.29 15.6 22.15 31.6 33.66 47.2 5.68 7.8 12.19 15.1 18.4 22.5l-24.2 14.6c-6.18-7.5-12.6-14.9-17.85-23.2-11.09-15.8-21.63-32-33.52-47.2-5.81-7.5-11.53-16.4-18.99-22l23.79-17.3z"></path><path id="path5548" style="fill:#80a" d="m-128.3 2666.7c44.598-32.8 17.17-1.8 7.22 10.8-13.73 16-29.95 29.5-45.17 43.9-10.93 10.4-21.4 21.1-31.01 32.6-0.84 1.1-1.68 2.2-2.52 3.4l-26.15 11.2c0.92-1.2 1.84-2.3 2.76-3.5 9.88-11.8 20.61-22.8 31.92-33.4 15.05-14.5 31.43-27.6 45.12-43.5 14.91-18.8 14.91-28.5 41.67-38.8l-23.84 17.3z"></path><g id="g5556" style="fill:#80a" transform="matrix(.44955 0 0 .37215 -39.875 1661.8)"><path id="path5550" style="fill:#80a" d="m-598.11 3143.5c-8.8 1.5-29.04 22.2-10.03 1.5 12.89-18.3 15.98-17.9 40.53-28.6 3.36 8.8 8.05 16.9 13.11 24.8 19.7 6.2-28.16 26.9-7.29 7.6 9.85-9.9 28.25-34.9 38.18-17.7 4.59 13.4 13.97 16.3 27.17 18.5 36.68 1.2 67-14.6 92.41-36.6 17.67-18 33.97-41.5 18.81-65.7-24.46-16.1-17.84-2-47.22 30.5-51.63 56.7-91.18 121.6-125.04 190-0.18 13.1-44.48 104.8-59.09 65.4-7.23-41.4-16.44-82.4-28.77-122.6-12.04-29.1-8.83-23.1 22.97-34.8 19.16 9.8 41.1 9.4 62 7.7 13.62-1.3 26.34-5.9 39-10.7l-20.87 16.3c-12.71 4.5-25.47 8.7-38.99 9.9-21.93 1.6-44.42 1.7-64.87-7.5 16.31-14.3 17.8-25.5 23.27 6.9 9.62 40.6 17.73 81.6 29.88 121.6 6.88 13.4 7.77 9.4-17.59 21.1-0.77 0.3 35.12-65 33.84-64.7 35.08-67.4 73.71-132.6 124.04-190.1 19.07-22.6 57.89-80.2 91.16-52.8 15.11 26.3-0.83 50.9-20.08 70.4-37.56 33-85.51 59.8-136.56 60.9-14.69-1.9-24.78-5.3-30.63-19.6 3.83-2.7 33.59-26.2 12.97-7.3-10.57 11.3-31.47 35-43.19 17.7-4.66-7.7-9.32-15.4-13.11-23.6 43.39-25.3 19.02-13.2 9.81 2-10.31 12.9-21.71 23.7-39.66 26.8l23.84-17.3z"></path><path id="path5552" style="fill:#80a" d="m-435.41 3188.4c-3.17-1.6-6.52-4.6-9.83-6.7-9.75-4.6-18.74-2.8-28.5 0.2 11.68-5.2 19.83-15.8 9.53-0.7-2.72 9.7 0.86 13.2 8.26 18.5 42.48-5.5 3.08 6.8 10.03 0.1 4.86-10.2 37.03-35.3 30.86-14.2-1.47 2.5 0.6 5.8 0.9 8.7-40.9 29.1-7.62-3.6 0.77-14.4 10.6-13 22.87-20 37.58-17.3 6.88 1.1 10.73 5.1 15.41 9.9 13.22 16.7 32.02 23.5 52.36 27 40.87-3.2 31.44 0 53.59-26.1 8.16-11.4 26.34-43.2 0.53-44-19.31 17.2-51.37 64.3-72.17 99.1-15.39 26.8-28.26 55-37.44 84.5-0.31 0.6-1.05 3.7-1.4 4.9l-26.54 12c0.72-1.4 3.37-3.3 2.64-5.1 12.26-29.9 25.57-59.4 42.24-87.3 29.65-48.9 60.11-100.1 115.15-124 27.48 5 10.58 34.8 0.66 49.8-24.23 29.6-59.36 53.3-98.8 51.3-21.01-3.9-40.24-11.1-54.96-27.3-4.74-4-8.68-7.4-15.09-8.2-15.63 1.4 7.01-7.4 12.28-10.3-15.38 18.4-24.57 33.7-49.51 43.3-5.91-4.3-8.11-4.9-4.17-14.3 9.3-6.1 39.96-30.6 20.8-8.6-14.13 14.7-37.7 33-59.35 25.8-8.1-6.1-12.96-10.5-10.65-21.6 6.1-16.1 22.94-22.2 38.91-28.9 10.37-2.3 19.97-3.3 29.97 1.5 3.07 1.9 6.21 4.9 9.79 5l-23.85 17.4z"></path><path id="path5554" style="fill:#80a" d="m-293.98 3245.8c5 7.9 10.19 9.9 18.62 9.9-35.47 24.2-9.33-1.7-5.61-20.5 1.75-11.6-1.6-16.1-12.31-15.3 35.61-21.9 12.92-7.6 11.81 9 14.98 8.3 32.19-0.9 46.51-7.5 14.81-9 26.39-9.6 38.83 2.3 6.58 9 12.65 12.6 23.3 13.4 10.91-1.8 20.9-4.1 31.91-3.1 9.02 2.6 17.5 4.1 26.79 3.3 2.35 0.1 3.95-1.6 5.93-2.4l-22.6 17.9c-2.07 0.5-3.99 1.7-6.23 1.5-9.25-0.1-18.04-1.7-27.07-3.9-10.76-0.3-20.86 2.1-31.57 3.3-10.87-2-17.7-5.7-24.35-15.3-12.49-9.5-21.7-8.8-35.85-0.4-16.34 7.2-35.3 16.3-50.86 4.4 0.2-22.7 14.13-29.4 36.19-39.6 11.85 1.8 16.88 7 14.5 20.3-5.03 27.4-14.26 37.5-42.14 49.6-8.84-1.7-15.23-4.4-21.1-12l25.3-14.9z"></path></g></g></g></g><metadata></metadata></svg> 