<?xml version="1.0" encoding="UTF-8" standalone="no"?> <!-- Created with Inkscape (http://www.inkscape.org/) --> <svg xmlns:inkscape="http://www.inkscape.org/namespaces/inkscape" xmlns:rdf="http://www.w3.org/1999/02/22-rdf-syntax-ns#" xmlns="http://www.w3.org/2000/svg" xmlns:sodipodi="http://sodipodi.sourceforge.net/DTD/sodipodi-0.dtd" xmlns:cc="http://web.resource.org/cc/" xmlns:xlink="http://www.w3.org/1999/xlink" xmlns:dc="http://purl.org/dc/elements/1.1/" xmlns:svg="http://www.w3.org/2000/svg" xmlns:ns1="http://sozi.baierouge.fr" id="svg2160" sodipodi:docname="Light_bulb_classic.svg" viewBox="0 0 500 552.58" sodipodi:version="0.32" inkscape:output_extension="org.inkscape.output.svg.inkscape" inkscape:version="0.45.1" sodipodi:docbase="C:\Documents and Settings\Administrateur\Bureau"><defs id="defs2162"><filter id="filter4367" height="1.6605" width="1.0823" y="-.33026" x="-.041143" inkscape:collect="always"><feGaussianBlur id="feGaussianBlur4369" stdDeviation="1.6504887" inkscape:collect="always"></feGaussianBlur></filter><filter id="filter4393" inkscape:collect="always"><feGaussianBlur id="feGaussianBlur4395" stdDeviation="0.44013031" inkscape:collect="always"></feGaussianBlur></filter><filter id="filter8555" height="1.7073" width="1.6076" y="-.35364" x="-.30379" inkscape:collect="always"><feGaussianBlur id="feGaussianBlur8557" stdDeviation="47.594512" inkscape:collect="always"></feGaussianBlur></filter><linearGradient id="linearGradient2384" y2="267.49" gradientUnits="userSpaceOnUse" x2="232.63" y1="267.49" x1="128.99" inkscape:collect="always"><stop id="stop3146" style="stop-color:#ffffff" offset="0"></stop><stop id="stop3148" style="stop-color:#ffffff;stop-opacity:0" offset="1"></stop></linearGradient><linearGradient id="linearGradient2386" y2="320.49" gradientUnits="userSpaceOnUse" x2="485.07" gradientTransform="translate(48,86)" y1="320.49" x1="415.74" inkscape:collect="always"><stop id="stop4411" style="stop-color:#ffffff" offset="0"></stop><stop id="stop4413" style="stop-color:#ffffff;stop-opacity:0" offset="1"></stop></linearGradient><linearGradient id="linearGradient2388" y2="509.75" gradientUnits="userSpaceOnUse" x2="487.59" gradientTransform="matrix(2.172 0 0 1.4938 -548.57 -260.06)" y1="509.75" x1="458.5" inkscape:collect="always"><stop id="stop5530" style="stop-color:#fffcfc" offset="0"></stop><stop id="stop5532" style="stop-color:#fffcfc;stop-opacity:0" offset="1"></stop></linearGradient><linearGradient id="linearGradient2390" y2="317.4" gradientUnits="userSpaceOnUse" x2="482.2" gradientTransform="translate(10,185)" y1="317.4" x1="643.2" inkscape:collect="always"><stop id="stop5552" style="stop-color:#8b8b8b" offset="0"></stop><stop id="stop5554" style="stop-color:#8b8b8b;stop-opacity:0" offset="1"></stop></linearGradient><linearGradient id="linearGradient2392" y2="496.76" gradientUnits="userSpaceOnUse" x2="466.75" gradientTransform="translate(48,84)" y1="496.76" x1="402.94" inkscape:collect="always"><stop id="stop6533" style="stop-color:#ffffff" offset="0"></stop><stop id="stop6535" style="stop-color:#ffffff;stop-opacity:0" offset="1"></stop></linearGradient></defs><g id="layer1" inkscape:label="Layer 1" inkscape:groupmode="layer" transform="translate(-326,-145)"><g id="g2342" transform="translate(52,74)"><path id="path7512" sodipodi:rx="188" sodipodi:ry="161.5" style="opacity:.29268;filter:url(#filter8555);fill:#ffc500" sodipodi:type="arc" d="m654 220.5a188 161.5 0 1 1 -376 0 188 161.5 0 1 1 376 0z" transform="translate(48,86)" sodipodi:cy="220.5" sodipodi:cx="466"></path><path id="path4141" sodipodi:nodetypes="ccccccccc" style="filter:url(#filter4367);stroke:#e3b919;stroke-width:1px;fill:none" d="m465.35 248.79c4.55 3.17 9.44 8.27 11.91 0 8.08-11.51 8.81-2.43 11.91 0 3.97 7.27 7.94 6.85 11.91 0 6.37-10.42 8.56-2.7 11.91 0 3.97 8.44 7.94 4.3 11.91 0 7.55-10.93 8.21-2.84 11.91 0 3.64 5.03 5.35 8.77 11.91 0 3.75-4.51 6.21-10.17 11.91 0"></path><path id="path4371" sodipodi:nodetypes="ccccccccc" style="filter:url(#filter4367);stroke:#e3b919;stroke-width:1px;fill:none" d="m465.35 248.79c4.55 3.17 9.44 8.27 11.91 0 8.08-11.51 8.81-2.43 11.91 0 3.97 7.27 7.94 6.85 11.91 0 6.37-10.42 8.56-2.7 11.91 0 3.97 8.44 7.94 4.3 11.91 0 7.55-10.93 8.21-2.84 11.91 0 3.64 5.03 5.35 8.77 11.91 0 3.75-4.51 6.21-10.17 11.91 0"></path><path id="path4373" sodipodi:nodetypes="ccccccccc" style="filter:url(#filter4367);stroke:#e3b919;stroke-width:1px;fill:none" d="m465.35 248.79c4.55 3.17 9.44 8.27 11.91 0 8.08-11.51 8.81-2.43 11.91 0 3.97 7.27 7.94 6.85 11.91 0 6.37-10.42 8.56-2.7 11.91 0 3.97 8.44 7.94 4.3 11.91 0 7.55-10.93 8.21-2.84 11.91 0 3.64 5.03 5.35 8.77 11.91 0 3.75-4.51 6.21-10.17 11.91 0"></path><path id="path4375" sodipodi:nodetypes="ccccccccc" style="filter:url(#filter4367);stroke:#e3b919;stroke-width:1px;fill:none" d="m465.35 248.79c4.55 3.17 9.44 8.27 11.91 0 8.08-11.51 8.81-2.43 11.91 0 3.97 7.27 7.94 6.85 11.91 0 6.37-10.42 8.56-2.7 11.91 0 3.97 8.44 7.94 4.3 11.91 0 7.55-10.93 8.21-2.84 11.91 0 3.64 5.03 5.35 8.77 11.91 0 3.75-4.51 6.21-10.17 11.91 0"></path><path id="path4377" sodipodi:nodetypes="ccccccccc" style="filter:url(#filter4367);stroke:#e3b919;stroke-width:1px;fill:none" d="m465.35 248.79c4.55 3.17 9.44 8.27 11.91 0 8.08-11.51 8.81-2.43 11.91 0 3.97 7.27 7.94 6.85 11.91 0 6.37-10.42 8.56-2.7 11.91 0 3.97 8.44 7.94 4.3 11.91 0 7.55-10.93 8.21-2.84 11.91 0 3.64 5.03 5.35 8.77 11.91 0 3.75-4.51 6.21-10.17 11.91 0"></path><path id="path4379" sodipodi:nodetypes="ccccccccc" style="filter:url(#filter4393);stroke:#e37e19;stroke-width:1px;fill:none" d="m465.35 248.79c4.55 3.17 9.44 8.27 11.91 0 8.08-11.51 8.81-2.43 11.91 0 3.97 7.27 7.94 6.85 11.91 0 6.37-10.42 8.56-2.7 11.91 0 3.97 8.44 7.94 4.3 11.91 0 7.55-10.93 8.21-2.84 11.91 0 3.64 5.03 5.35 8.77 11.91 0 3.75-4.51 6.21-10.17 11.91 0"></path><path id="path4139" sodipodi:nodetypes="cccc" style="stroke:#000000;stroke-width:3.1146;fill:none" d="m529.43 440.6v-97.72l27.08-79.2 5.49-16.08"></path><path id="path3168" sodipodi:nodetypes="ccc" style="stroke:#000000;stroke-width:3.1146;fill:none" d="m498.46 440.69v-97.72l-32.58-95.28"></path><path id="path4397" sodipodi:nodetypes="cccc" style="opacity:.57724;fill-rule:evenodd;fill:#d7b117" d="m554.95 445.95l-13.98-58.76c-8.96-32.8-41.71-33.6-53.93 0l-10.99 58.76"></path><path id="path2169" sodipodi:rx="130.13684" sodipodi:ry="135.89511" style="stroke-linejoin:round;fill-opacity:.52195;stroke:#000000;stroke-linecap:round;stroke-width:4.5319;fill:#a0a7a3" sodipodi:type="arc" d="m389.26 267.49a130.14 135.9 0 1 1 -260.27 0 130.14 135.9 0 1 1 260.27 0z" transform="translate(257.6 39.934)" sodipodi:cy="267.48569" sodipodi:cx="259.12204"></path><path id="path2171" sodipodi:rx="130.13684" sodipodi:ry="135.89511" style="fill:url(#linearGradient2384)" sodipodi:type="arc" d="m389.26 267.49a130.14 135.9 0 1 1 -260.27 0 130.14 135.9 0 1 1 260.27 0z" transform="matrix(1 0 0 .93377 266.45 56.998)" sodipodi:cy="267.48569" sodipodi:cx="259.12204"></path><path id="path4399" sodipodi:nodetypes="cccc" style="opacity:.57724;fill-rule:evenodd;fill:url(#linearGradient2386)" d="m524.07 438.04l-6.97-44.32c-4.46-24.74-20.79-25.33-26.88 0l-5.48 44.32"></path><path id="path4419" sodipodi:nodetypes="cc" style="stroke:#ffefef;stroke-width:1px;fill:none" d="m547 189c58.58 23.95 84.72 69.39 84 119"></path><path id="path4423" sodipodi:nodetypes="cc" style="stroke:#fffcfc;stroke-width:1px;fill:none" d="m620.65 277.47c3.68 10.87 3.53 19.34 3.8 30.3"></path><path id="path4425" style="stroke:#ffefef;stroke-width:.68972px;fill:none" d="m546.33 425.72c41.75-13.92 63.31-35.69 74.27-65.78" inkscape:transform-center-x="-67.731998" inkscape:transform-center-y="25.935065" sodipodi:nodetypes="cc"></path><g id="g4475" style="stroke:#000000;stroke-width:2.3461;fill:#bcbcbc" transform="matrix(2.172 0 0 1.5375 -550.97 -281.99)"><path id="path4445" sodipodi:nodetypes="ccccccccc" style="fill-rule:evenodd;stroke:#000000;stroke-width:2.3461;fill:#bcbcbc" d="m501 464h-37l-5.5 11.44 5.5 11.44-5 11.93 5 10.94-5 11.44 5 11.43-4.5 11.44 4.5 11.44h37.5"></path><path id="path4465" sodipodi:nodetypes="ccccccccc" style="fill-rule:evenodd;stroke:#000000;stroke-width:2.3461;fill:#bcbcbc" d="m481 464h37l5.5 11.44-5.5 11.44 5 11.93-5 10.94 5 11.44-5 11.43 4.5 11.44-4.5 11.44h-37.5"></path></g><path id="path5524" sodipodi:nodetypes="ccccccccccc" style="fill-rule:evenodd;fill:url(#linearGradient2388)" d="m539.62 433.06h-81.37l-10.45 15.83 11.45 18.34-10.86 17.83 10.86 16.34-10.86 17.08 11.36 18.59-10.27 17.08 8.77 15.59h82.45"></path><path id="path5496" sodipodi:nodetypes="cc" style="stroke:#000000;stroke-width:1px;fill:none" d="m470 467h102"></path><path id="path5500" sodipodi:nodetypes="cc" style="stroke:#000000;stroke-width:1px;fill:none" d="m482 537l91-1"></path><path id="path5502" sodipodi:nodetypes="cc" style="stroke:#000000;stroke-width:1px;fill:none" d="m471 501h101"></path><path id="path5504" style="stroke:#000000;stroke-width:1px;fill:none" d="m484 545h23 16"></path><path id="path5506" style="stroke:#000000;stroke-width:1px;fill:none" d="m506 551h15"></path><path id="path5508" style="stroke:#000000;stroke-width:1px;fill:none" d="m544 506h-20-17-9"></path><path id="path5512" style="stroke:#000000;stroke-width:1px;fill:none" d="m545 472h17 6"></path><path id="path5514" style="stroke:#000000;stroke-width:1px;fill:none" d="m557 476h9"></path><path id="path5516" style="stroke:#000000;stroke-width:1px;fill:none" d="m554 438h18"></path><path id="path5518" style="stroke:#000000;stroke-width:1px;fill:none" d="m467 438h13"></path><path id="path5520" style="stroke:#000000;stroke-width:1px;fill:none" d="m475 442h19 10"></path><path id="path5546" sodipodi:nodetypes="ccccccccc" style="fill-rule:evenodd;fill:url(#linearGradient2390)" d="m493.28 434.06h80.37l11.94 17.08-11.94 17.09 10.86 17.83-10.86 16.34 10.86 17.08-10.86 17.09 9.77 17.08-9.77 17.09h-81.45"></path><path id="path5558" sodipodi:nodetypes="ccc" style="stroke-linejoin:round;fill-rule:evenodd;stroke:#000000;stroke-width:3.2138;fill:#000000" d="m459.54 576.54h110.42c-43.37 19.51-78.1 13.35-110.42 0z"></path><path id="path6529" sodipodi:nodetypes="ccc" style="stroke-linejoin:round;fill-rule:evenodd;stroke:#000000;stroke-width:3.2138;fill:url(#linearGradient2392)" d="m459.54 574.54h110.42c-43.37 19.51-78.1 13.35-110.42 0z"></path><path id="path8571" sodipodi:rx="16" sodipodi:ry="25" style="fill-opacity:.97706;fill:#000000" sodipodi:type="arc" d="m170 458a16 25 0 1 1 -32 0 16 25 0 1 1 32 0z" transform="matrix(-.625 0 0 .68 656.25 198.56)" sodipodi:cy="458" sodipodi:cx="154"></path><path id="path9542" sodipodi:nodetypes="cc" style="stroke:#000000;stroke-width:1px;fill:none" d="m549 522c1.38 3.25 2.25 8.21 10 9"></path><path id="path9544" sodipodi:nodetypes="cc" style="stroke:#000000;stroke-width:1px;fill:none" d="m553 490c3.67-2.12 7.33-1.62 11-1"></path><path id="path9546" style="stroke:#000000;stroke-width:1px;fill:none" d="m463.5 566.5l57.5 0.5"></path><path id="path9548" style="stroke:#000000;stroke-width:1px;fill:none" d="m535.5 567.5h7.5"></path><path id="flowRoot2281" style="fill:#ffffff" d="m570.41 547.38h-0.03c-0.05 0.38-2.09 1.39-6.11 3.04 1.55-1.04 2.69-2.05 3.4-3.04l0.27-0.6c0.15-0.32 0.27-0.47 0.36-0.47 0.24 0 0.61 0.14 1.12 0.42 0.44 0.23 0.77 0.45 0.99 0.65zm5.41 14.26c-0.44 0.49-1.51 0.89-3.21 1.22-1.38 0.26-2.6 0.4-3.68 0.4-2.08 0-3.55-0.57-4.39-1.69-0.62-0.82-0.97-2.12-1.04-3.9-0.06-1.45-0.12-2.9-0.19-4.35-0.66 0.05-1.64 0.18-2.94 0.4 0.37 0.19 0.63 0.34 0.8 0.47 0.29 0.21 0.46 0.44 0.49 0.67-0.36 1.39-1.63 3.04-3.78 4.96-2.27 2.03-4.18 3.03-5.74 3.01h-0.32c2.72-1.74 4.48-2.99 5.29-3.74 1.7-1.58 2.59-3.32 2.66-5.21-0.37 0.02-0.96 0.1-1.78 0.26-0.75 0.12-1.34 0.19-1.76 0.19-0.68 0-1.47-0.24-2.39-0.73 1.89-0.17 4.69-0.53 8.42-1.07v-6.22c0-1.08-0.35-1.89-1.06-2.43 1.95 0 2.93 0.33 2.93 1 0 0.89-0.13 2.15-0.38 3.77-0.28 1.71-0.43 2.96-0.47 3.74 0.49-0.05 1.63-0.21 3.4-0.49 1.39-0.24 2.52-0.36 3.4-0.36 0.62 0 1.15 0.24 1.59 0.71-0.34 0.25-2.9 0.57-7.68 0.95l1.4 1.13c-0.42 3.05-0.63 4.9-0.63 5.54 0 0.59 0.56 1.08 1.67 1.47 0.9 0.33 1.75 0.49 2.56 0.49 2.24 0 3.75-0.41 4.52-1.22 0.64-0.68 0.99-2 1.04-3.95 0.06 0.63 0.25 1.46 0.58 2.51 0.38 1.19 0.61 2.02 0.69 2.47zm-15.86-11.57c0 0.7-0.18 1.05-0.55 1.05-0.2 0-0.5-0.28-0.9-0.86-0.26-0.37-0.51-0.75-0.77-1.12-0.2-0.27-0.5-0.61-0.91-1.03 0.5 0.01 1.14 0.25 1.94 0.7 0.79 0.45 1.19 0.87 1.19 1.26z"></path></g></g><metadata></metadata></svg> 