<?xml version="1.0" encoding="UTF-8" standalone="no"?> <!-- Created with Inkscape (http://www.inkscape.org/) --> <svg xmlns:inkscape="http://www.inkscape.org/namespaces/inkscape" xmlns:rdf="http://www.w3.org/1999/02/22-rdf-syntax-ns#" xmlns="http://www.w3.org/2000/svg" xmlns:sodipodi="http://sodipodi.sourceforge.net/DTD/sodipodi-0.dtd" xmlns:cc="http://web.resource.org/cc/" xmlns:xlink="http://www.w3.org/1999/xlink" xmlns:dc="http://purl.org/dc/elements/1.1/" xmlns:svg="http://www.w3.org/2000/svg" xmlns:ns1="http://sozi.baierouge.fr" id="svg2777" sodipodi:docname="beaker.svg" viewBox="0 0 92.496 96.247" sodipodi:version="0.32" inkscape:output_extension="org.inkscape.output.svg.inkscape" inkscape:version="0.45.1" sodipodi:docbase="C:\Users\Dave\Desktop"><defs id="defs3"><linearGradient id="linearGradient2650" y2="396.16" gradientUnits="userSpaceOnUse" x2="61.89" y1="442.31" x1="57.228" inkscape:collect="always"><stop id="stop7184" style="stop-color:#b1c9e6" offset="0"></stop><stop id="stop7186" style="stop-color:#b1c9e6;stop-opacity:0" offset="1"></stop></linearGradient><linearGradient id="linearGradient6151" y2="529.47" gradientUnits="userSpaceOnUse" x2="273.15" gradientTransform="translate(-.000023204 -.000021585)" y1="529.47" x1="207.83" inkscape:collect="always"><stop id="stop6147" style="stop-color:#fffcfc" offset="0"></stop><stop id="stop6153" style="stop-color:#ffffff;stop-opacity:0" offset=".5"></stop><stop id="stop6155" style="stop-color:#ffffff;stop-opacity:0" offset=".75"></stop><stop id="stop6149" style="stop-color:#ffffff" offset="1"></stop></linearGradient></defs><g id="layer1" inkscape:label="Layer 1" inkscape:groupmode="layer" transform="translate(-198.43 -481.32)"><g id="g7190" transform="matrix(.81556 0 0 .79295 197.4 457.56)"><g id="g11425" transform="translate(-9.3237 -298.36)"><path id="path6211" sodipodi:nodetypes="cccccccz" style="stroke-linejoin:round;color:#000000;stroke:#000000;stroke-linecap:round;stroke-width:1.3304;fill:url(#linearGradient2650)" d="m60.13 407.46c12.843 0.25 34.316 0.3 44.11-1.28v31.72c0 5.42-3.64 9.77-8.148 9.77h-68.404c-4.512 0-8.144-4.35-8.144-9.77v-31.72s27.744 1.03 40.586 1.28z"></path><path id="rect5190" sodipodi:nodetypes="ccccccccc" style="stroke-linejoin:round;color:#000000;stroke:#000000;stroke-linecap:round;stroke-width:3.9913;fill:none" d="m13.688 330.41h107.72c4.51 0-17.17 18.36-17.17 23.77v83.72c0 5.42-3.64 9.77-8.148 9.77h-68.404c-4.512 0-8.144-4.35-8.144-9.77v-97.72c0-5.41-10.368-9.77-5.856-9.77z"></path><path id="rect6164" sodipodi:nodetypes="ccc" style="stroke-linejoin:round;color:#000000;stroke:#000000;stroke-linecap:round;stroke-width:3.9913;fill:none" d="m95.166 330.34l17.384 5.44-7.66 16.33"></path></g></g><path id="path2170" style="stroke:#000000;stroke-width:1.0117px;fill:none" d="m252.09 527.46h13.16"></path><path id="path2174" style="stroke:#000000;stroke-width:1.0117px;fill:none" d="m252.09 534.55h13.16"></path><path id="path2176" style="stroke:#000000;stroke-width:1.0117px;fill:none" d="m252.09 541.63h13.16"></path><path id="path2178" style="stroke:#000000;stroke-width:1.0117px;fill:none" d="m252.09 548.72h13.16"></path><path id="path2180" style="stroke:#000000;stroke-width:1.0117px;fill:none" d="m252.09 555.8h13.16"></path><path id="path2182" style="stroke:#000000;stroke-width:1.0117px;fill:none" d="m252.09 562.89h13.16"></path><path id="path2184" style="stroke:#000000;stroke-width:1.0117px;fill:none" d="m252.09 506.19h13.16"></path><path id="path2188" style="stroke:#000000;stroke-width:1.0117px;fill:none" d="m252.09 520.38h13.16"></path><path id="path2190" style="stroke:#000000;stroke-width:1.0117px;fill:none" d="m252.09 513.29h13.16"></path><path id="path5174" sodipodi:nodetypes="ccccccccc" style="stroke-linejoin:round;color:#000000;stroke:#000000;stroke-linecap:round;stroke-width:3.2097;fill:url(#linearGradient6151)" d="m200.96 482.97h87.86c3.68 0-14.01 14.56-14.01 18.85v66.39c0 4.29-2.96 7.75-6.64 7.75h-55.79c-3.68 0-6.64-3.46-6.64-7.75v-77.49c0-4.29-8.46-7.75-4.78-7.75z"></path><path id="path2212" sodipodi:nodetypes="ccc" style="stroke-linejoin:round;fill-opacity:0;color:#000000;stroke:#000000;stroke-linecap:round;stroke-width:3.2097" d="m267.07 483.61l14.18 4.31-6.25 12.94"></path></g><metadata></metadata></svg> 