<?xml version="1.0" encoding="UTF-8" standalone="no"?> <!-- Generator: Adobe Illustrator 13.0.1, SVG Export Plug-In . SVG Version: 6.00 Build 14948) --> <svg xmlns:rdf="http://www.w3.org/1999/02/22-rdf-syntax-ns#" xmlns="http://www.w3.org/2000/svg" xmlns:x="http://ns.adobe.com/Extensibility/1.0/" xmlns:dc="http://purl.org/dc/elements/1.1/" xmlns:i="http://ns.adobe.com/AdobeIllustrator/10.0/" xmlns:cc="http://web.resource.org/cc/" xmlns:xlink="http://www.w3.org/1999/xlink" xmlns:a="http://ns.adobe.com/AdobeSVGViewerExtensions/3.0/" xmlns:graph="http://ns.adobe.com/Graphs/1.0/" xmlns:svg="http://www.w3.org/2000/svg" xmlns:inkscape="http://www.inkscape.org/namespaces/inkscape" xmlns:sodipodi="http://sodipodi.sourceforge.net/DTD/sodipodi-0.dtd" xmlns:ns1="http://sozi.baierouge.fr" id="Layer_1_xA0_Image_1_" xml:space="preserve" viewBox="0 0 172.209 346.354" y="0px" x="0px"> <g clip-rule="evenodd" fill-rule="evenodd"> <path d="m155.42 26.536c0.353-1.527 0.629 1.247 0.541 1.625-0.25 1.087-1.01 0.436-0.54-1.625z"></path> <path fill="#FFFFFF" d="m72.566 46.572c-0.591 1.936-3.244 1.811-4.332 3.25-1-1.389 1.249-4.146 4.332-3.25z"></path> <path fill="#FFFFFF" d="m154.34 48.197c0.206-1.031 0.688 0.346 0.541 1.083-0.21 1.031-0.69-0.345-0.54-1.083z"></path> <path fill="#FFFFFF" d="m120.22 110.47c-1.284 0.882-3.132 1.2-4.874 1.625 0.668-1.138 1.499-2.111 2.166-3.25 9.23-0.157 12.008-6.766 17.871-10.289 9.024-12.818 15.142-28.543 18.412-47.114 0.154 5.914-0.703 12.24-2.166 17.871-1.668 6.421-5.851 11.81-5.957 17.33-2.161 1.268-3.47 3.389-3.79 6.498-1.132-0.229-1.435 0.371-2.167 0.542-5.265 8.274-12.373 14.704-21.119 19.496-0.25-1.7 1.46-1.43 1.63-2.71z"></path> <path fill="#FFFFFF" d="m75.815 53.071c-0.15 2.098-5.938 2.479-5.957 0 2.739-0.25 4.213-0.463 5.957 0z"></path> <path fill="#FFFFFF" d="m77.44 56.862c-2.706 0.183-5.524 0.252-7.582 1.083-2.525-3.831 7.863-3.607 7.582-1.083z"></path> <path fill="#FFFFFF" d="m62.277 56.32c2.671-0.465-1.729 5.197 1.083 4.874-3.04 2.054-2.126-3.559-1.083-4.874z"></path> <path fill="#FFFFFF" d="m75.273 58.486c0.077 2.243-3.768 0.564-5.415 1.083 0.034-1.798 5.157-1.306 5.415-1.083z"></path> <path fill="#FFFFFF" d="m66.609 59.028h1.625c-0.333 0.482-0.655 0.968 0 1.083-0.22 1.348-2.1 0.032-1.625-1.083z"></path> <path fill="#FFFFFF" d="m88.271 60.111c0.734 0.167 0.449 1.356 0.541 2.166-0.769-0.046-1.533-0.089-1.625 0.542-1.691-0.875 1.111-1.715 1.084-2.708z"></path> <path fill="#FFFFFF" d="m74.732 61.194c-0.716 3.255-7.178 0.765-9.748 2.166 1.211-2.761 6.079-1.863 9.748-2.166z"></path> <path fill="#FFFFFF" d="m56.32 62.818c1.022-1.506 2.187 1.381 4.332 0.542-0.49 3.521-3.297 0.205-4.332-0.542z"></path> <path fill="#FFFFFF" d="m89.895 62.277c1.671 1.883-0.488 4.543-1.083 5.957-0.948-1.037-1.147-2.823-1.625-4.333 0.811-0.633 2.216-0.672 2.708-1.624z"></path> <path fill="#FFFFFF" d="m72.024 63.901v2.167c0.656 0.166 1.867-1.564 0.542-1.625 1.112-0.813 2.643-0.627 2.708 1.625-4.739 1.126-8.823-0.253-12.997 1.625-0.911-3.32 5.662-4.72 7.582-3.791-0.32-0.154-0.463 1.615 0 1.625 1.312 0.027 0.89-2.444 2.165-1.626z"></path> <path fill="#FFFFFF" d="m76.898 67.692c-2.093 0.458-0.848 1.725-1.625 2.708-2.154-3.077-10.067 0.64-14.622-0.542 0.08-2.143 3.604-1.928 5.416-2.166 3.713-0.487 8.252-0.473 10.831 0z"></path> <path fill="#FFFFFF" d="m73.107 70.4c-0.233 0.851-1.703 0.463-1.083 2.167 2.38-1.156 3.103-0.774 6.499-1.083-3.569 4.487-12.879 1.24-17.329 3.791 0.467-1.675 1.837-1.614-1.083-1.625 0.562-1.604 1.593-2.74 3.791-2.708-0.62 1.704 0.85 1.316 1.083 2.167 2.395-1.216 3.727-3.494 8.122-2.709zm-4.332 2.708c1.234 0.151 2.036-0.13 2.166-1.083-1.234-0.151-2.035 0.13-2.166 1.083z"></path> <path fill="#FFFFFF" d="m55.237 70.941c-0.342 2.147 2.059 1.551 1.625 3.791-3.178-1.447-7.244 1.07-7.04-3.249 1.424-0.561 3.323-0.648 5.415-0.542z"></path> <path d="m70.941 72.025c-0.13 0.953-0.932 1.234-2.166 1.083 0.131-0.953 0.932-1.234 2.166-1.083z"></path> <path fill="#FFFFFF" d="m54.154 74.732c-0.102 1.523-0.942 2.307-2.708 2.166-0.286-0.436-0.565-0.879-0.542-1.625 0.64-0.623 1.915-0.612 3.25-0.541z"></path> <path fill="#FFFFFF" d="m71.483 75.815c-2.752 1.427-4.594 0.433-8.123 1.083 0.693-2.376 5.666-0.47 8.123-1.083z"></path> <path d="m64.443 79.064c0.353-1.527 0.628 1.248 0.542 1.625-0.252 1.088-1.018 0.437-0.542-1.625z"></path> <path d="m72.566 79.064c0.034-0.038-0.038-0.535 0-0.542 2.601-0.458-2.571 3.481 0 0.542z"></path> <path d="m62.277 79.064c0.956-0.172 0.966 3.034-0.542 2.167-0.068-0.972 0.663-1.142 0.542-2.167z"></path> <path d="m66.609 79.064c0.921-0.199 1.022 0.423 1.083 1.083-0.46-0.1-0.511 0.211-0.542 0.542-0.634-0.087-0.456-0.987-0.541-1.625z"></path> <path fill="#FFFFFF" d="m89.354 85.563c0.222 1.305-0.989 1.177-0.542 2.708-1.528-0.276-2.3-1.311-3.791-1.625 0.521-1.293 3.153-2.103 4.333-1.083z"></path> <path fill="#FFFFFF" d="m100.18 87.729c1.303 1.257 2.967-3.958 5.416-1.625-0.845 2.766-3.576 3.645-5.957 4.874-0.507-2.289-0.462-3.438 0.541-5.957 0.482 0.333 0.969 0.654 1.083 0 1.26 0.43-0.27 2.546-1.08 2.708z"></path> <path fill="#FFFFFF" d="m82.855 86.646c-1.537 2.776-5.071 2.094-8.123 2.166-3.987 0.094-7.48 3.704-11.914 3.249 0.065-2.101 1.596-2.736 2.708-3.791 6.293 0.367 12.953-3.549 17.329-1.624z"></path> <path fill="#FFFFFF" d="m107.22 90.437c1.729-0.905 2.136-0.936 3.25-0.542 0.556 0.197-1.697 0.661-1.625 0.542-0.357 0.59 3.416 0.798 1.625 1.625-2.996-0.37-2.219 0.974-2.708 2.166-0.727-0.356-1.009-1.157-1.083-2.166 0.8 0.002 2.94-1.712 0.55-1.625z"></path> <path fill="#FFFFFF" d="m74.732 90.979c0.44 2.787-1.381 3.312-3.791 3.249 0.306-2.042 1.218-3.476 3.791-3.249z"></path> <path fill="#FFFFFF" d="m102.89 90.979c-0.24 0.482-0.476 0.969-1.083 1.083 1.386 0.78 1.235 3.097 1.625 4.874-3.703 0.025-3.542-6.023-0.55-5.957z"></path> <path fill="#FFFFFF" d="m69.317 92.062c0.045 0.857-0.261 2.065 0.542 2.166-1.452 1.798-5.668 0.831-8.123 1.625 1.491-2.299 4.811-2.77 7.581-3.791z"></path> <path fill="#FFFFFF" d="m93.144 94.77c2.791 0.639 4.997 1.862 5.416 4.874-1.45-0.355-2.06-1.551-3.25-2.166-1.277 0.459 1.492 1.333 0.542 3.249-0.635-0.087-0.457-0.987-0.542-1.625-4.6 12.255-15.798 19.648-16.787 34.659-0.226 3.421 0.611 5.762 0 9.206-2.343 0.687-2.9-3.196-1.625-4.333-3.955-12.648 1.685-24.954 8.665-31.409 0.452-6.23 5.118-8.245 7.581-12.46z"></path> <path fill="#FFFFFF" d="m76.898 95.311c-4.726 2.227-9.71 3.306-16.247 4.332 0.088-0.629-0.119-0.963-0.542-1.083 1.758-2.728 7.314-2.098 11.373-2.708 1.149-0.172 3.018-0.896 5.416-0.541z"></path> <path fill="#FFFFFF" d="m74.732 101.27c-0.787 0.838-2.112 1.137-3.791 1.083v-1.625c2.115 0.8 1.689-1.152 3.791 0.55z"></path> <path fill="#FFFFFF" d="m61.735 101.81c1.132-0.229 1.434 0.372 2.166 0.542-0.759 0.865-1.866 1.384-3.25 1.625 0.008-1.08 1.478-0.69 1.084-2.17z"></path> <path fill="#FFFFFF" d="m75.273 102.89c0.119 1.744-0.958 2.291-0.542 4.332-2.041-0.416-2.588 0.661-4.332 0.542-0.746-0.698-0.536-2.352-0.542-3.791 1.582-0.58 3.121-1.21 5.416-1.08z"></path> <path fill="#FFFFFF" d="m75.815 104.52c0.207-1.031 0.689 0.346 0.542 1.083-0.207 1.03-0.69-0.35-0.542-1.08z"></path> <path fill="#FFFFFF" d="m42.781 105.06c0.091 1.675-1.905 2.436-2.708 1.625 0.495-0.95 1.008-1.88 2.708-1.62z"></path> <path fill="#FFFFFF" d="m46.031 105.6c0.666 0.236 1.112 0.693 1.083 1.625-0.629 0.455-1.452 0.714-2.708 0.542 0.159-1.1 1.465-1.06 1.625-2.16z"></path> <path d="m61.194 106.68c-0.546-1.629 1.206-0.959 2.166-1.083v1.625c-1.132 0.23-1.434-0.37-2.166-0.54z"></path> <path fill="#FFFFFF" d="m36.824 111.56c0.087-0.635 0.987-0.457 1.625-0.542v3.249c-1.268-0.18-0.526-2.37-1.625-2.71z"></path> <path fill="#FFFFFF" d="m47.655 111.02c1.378 0.066 2.1 0.788 2.166 2.166-1.585-0.141-1.664 1.224-3.249 1.083 0.481-0.97 1.512-1.38 1.083-3.25z"></path> <path fill="#FFFFFF" d="m70.941 114.81h1.083v1.083h-1.083v-1.08z"></path> <path fill="#FFFFFF" d="m121.3 115.35c-0.471 0.793-0.811 1.717-2.166 1.625 0.48-0.8 0.82-1.72 2.17-1.63z"></path> <path fill="#FFFFFF" d="m124.01 115.35c2.219 1.241-1.728 0.722-1.625 1.625-2.21-1.25 1.74-0.73 1.63-1.63z"></path> <path fill="#FFFFFF" d="m64.984 115.89c1.249 0.557 1.746 1.864 3.791 1.625-2.018-1.813 0.453-0.693 1.625 0-1.088 1.46-4.168 3.136-5.957 2.167 1.44-2.1-0.047-2.15 0.541-3.8z"></path> <path fill="#FFFFFF" d="m72.566 115.89c1.655-0.391 1.974 0.554 3.249 0.542-0.875 0.816-2.605 2.204-3.791 1.083 0.287-0.43 0.565-0.87 0.542-1.62z"></path> <path fill="#FFFFFF" d="m61.194 116.97c0.803 0.46 1.164 1.363 1.083 2.708-0.333 0.75-2.085 0.082-2.167 1.083-1.096-1.39 0.031-2.34 1.084-3.79z"></path> <path fill="#FFFFFF" d="m40.074 118.6c1.113 1.818 1.119 0.381 2.708 0-0.008 1.616-1.408 1.841-1.625 3.249 0.95 1.604 1.124-2.074 2.708-1.625-1.312 1.607-1.227 2.946 1.083 3.249-0.56 1.425-2.147 1.824-2.708 3.25-1.95-1.66-2.569-4.652-3.249-7.582 0.629 0.09 0.963-0.12 1.083-0.54z"></path> <path fill="#FFFFFF" d="m120.76 120.76c-0.448 1.531 0.763 1.403 0.541 2.708-0.971-0.069-1.142 0.663-2.166 0.542-0.1-0.46 0.211-0.511 0.542-0.542-0.016-0.526-0.663-0.42-1.083-0.542 0.333-0.482 0.654-0.968 0-1.083 0.36-0.73 1.16-1.01 2.17-1.09z"></path> <path fill="#FFFFFF" d="m50.904 121.3c2.583 0.072 0.72 1.228 1.083 3.249-3.012-0.202-5.708 4.325-10.289 4.333 2.65-2.94 8.392-2.79 9.206-7.58z"></path> <path fill="#FFFFFF" d="m141.88 126.18c-0.866 0.939-2.438 1.172-4.333 1.083 1-0.8 2.57-1.04 4.33-1.08z"></path> <path fill="#FFFFFF" d="m134.3 127.8c-0.091-1.174 1.921-0.246 2.708-0.542 0.09 1.18-1.92 0.25-2.71 0.54z"></path> <path fill="#FFFFFF" d="m121.85 128.34c1.46-1.248 5.223-0.192 7.581-0.542-1.46 1.25-5.23 0.2-7.58 0.54z"></path> <path fill="#FFFFFF" d="m116.97 130.51c0.59 2.767 0.603 9.621-2.166 10.831 2.26-3.13 0.44-7.07 2.17-10.83z"></path> <path fill="#FFFFFF" d="m59.569 132.14c-5.795 1.786-10.691 4.472-17.329 5.416 5.216-2.1 11.021-6.19 17.329-5.42z"></path> <path fill="#FFFFFF" d="m54.154 136.47c0.735 0.167 0.449 1.356 0.542 2.166 0.666-0.605 1.112-0.471 1.083 0.542-2.674 0.508-3.673-0.659-4.874-1.625 0.903-1.49 2.605 0.92 3.249-1.09z"></path> <path fill="#FFFFFF" d="m121.85 139.18c3.48 0.28 0.81 2.96 0 0z"></path> <path fill="#FFFFFF" d="m73.107 139.72c-0.13 0.953-0.932 1.234-2.166 1.083-0.545-1.63 1.207-0.96 2.166-1.08z"></path> <path fill="#FFFFFF" d="m61.735 140.8c-0.173-0.956 3.034-0.967 2.166 0.542-0.971 0.07-1.142-0.66-2.166-0.54z"></path> <path fill="#FFFFFF" d="m132.14 142.42c4.095-1.151 10.688-1.033 15.163 0-1.823 0.343-5.03-0.698-5.957 0.542-2.11-1.13-6.23-0.26-9.2-0.54z"></path> <path fill="#FFFFFF" d="m59.027 142.97c-0.061 1.383-1.813 1.075-3.249 1.083 0.548-0.9 2.3-0.59 3.249-1.08z"></path> <path fill="#FFFFFF" d="m67.15 143.51c1.879-0.254 0.311 2.938 1.625 3.249-0.356 1.622-1.158-0.518-2.167 0 1.287-1.11-0.743-2.15 0.542-3.25z"></path> <path fill="#FFFFFF" d="m50.363 145.13c-1.13 0.855-2.848 1.123-4.874 1.083 1.131-0.85 2.848-1.12 4.874-1.08z"></path> <path fill="#FFFFFF" d="m72.024 147.84h1.083c0.253 1.156-0.773 1.032-1.625 1.083 0.104-0.44 0.544-0.54 0.542-1.08z"></path> <path fill="#FFFFFF" d="m62.818 149.46c-2.868 1.66-5.201-0.67 0 0z"></path> <path fill="#FFFFFF" d="m76.898 149.46c-0.494 3.492-10.964 0.521-12.456 0.542 2.862 0.1 8.346-0.25 12.456-0.54z"></path> <path fill="#FFFFFF" d="m67.15 152.71c1.878-0.434 2.082 0.807 3.791 0.542-0.479 2.771 0.202 4.449 0 8.123-0.692-0.751-2.557-0.331-3.25-1.083 0.73-3.27-1.27-6.03-0.541-7.58z"></path> <path fill="#FFFFFF" d="m79.606 158.13c8.703 7.729-1.26 19.658-2.166 31.409-0.478 6.194 1.004 11.188-1.625 16.246-2.367-0.392-1.2-4.194-1.083-5.956 0.479-7.215 1.54-19.503 4.333-24.911-0.641-1.345-0.784-3.188-1.083-4.874-0.828-1.676 1.333-1.447 1.625-2.708 0.531-2.31-1.118-5.88-0.001-9.21z"></path> <path fill="#FFFFFF" d="m73.107 158.67h1.625c0.229 1.132-0.371 1.434-0.542 2.166-0.436-0.287-0.879-0.565-1.625-0.542 0.288-0.44 0.566-0.88 0.542-1.63z"></path> <path fill="#FFFFFF" d="m70.941 164.09c-0.354 3.256 0.713 7.934-0.542 10.289-3.417-0.006-1.383-6.98-1.625-9.748-1.848 0.859-4.298 1.118-6.499 1.625 1.566-1.82 5.74-3.48 8.666-2.17z"></path> <path fill="#FFFFFF" d="m73.649 163.54c3.658 1.446 1.264 8.308 2.166 10.831h-2.708c-0.335-3.87-1.008-7.74 0.542-10.83z"></path> <path fill="#FFFFFF" d="m144.59 169.5c-0.091-1.174 1.921-0.245 2.708-0.542 0.09 1.17-1.92 0.25-2.71 0.54z"></path> <path fill="#FFFFFF" d="m148.38 170.04c2.65-1.43 4.08 1.8 0 0z"></path> <path fill="#FFFFFF" d="m93.144 183.04c-2.551-1.961-6.166-2.859-9.206-4.332 1.329-2.281 1.561-5.659 4.333-6.499-1.002 1.58-1.594 4.405-0.542 6.499 0.921 0.199 1.021-0.423 1.083-1.083 8.082 8.344 24.644 8.21 37.366 11.913-6.812 1.174-14.936-3.033-23.286-4.332-1.354-0.211-2.564 0.232-3.791 0-5.06-0.957-10.333-4.203-13.538 0-2.415 0.078 0.483-1.389 0-2.707-3.583 0.797-5.63 6.232-3.25 9.747 1.083-0.599-0.66-2.908 0-4.874 3.285 0.894-0.256 6.304 1.625 9.206-1.655 0.392-1.974-0.554-3.25-0.541-0.133-5.909-0.207-11.76 2.166-15.163 2.574-0.47 6.92 1.63 10.292 2.15z"></path> <path fill="#FFFFFF" d="m76.357 175.46c-0.751 1.235-3.77 0.202-5.416 0.542-2.656-0.45 5.202-1.16 5.416-0.54z"></path> <path fill="#FFFFFF" d="m116.43 175.46c0.722-1.374 2.404 0.794 3.791 0.542-0.89 1.54-2.94-0.26-3.79-0.54z"></path> <path fill="#FFFFFF" d="m69.317 177.08h1.083c1.99-0.045 0.927 2.944 1.083 4.332 0.303 2.698 1.527 5.912-0.542 7.04-3.248-1.08-0.924-7.73-1.624-11.37z"></path> <path fill="#FFFFFF" d="m72.566 177.08c2.892 0.728 1.641 8.456 1.083 10.831-2.434-1.53-0.429-7.51-1.083-10.83z"></path> <path fill="#FFFFFF" d="m124.01 178.17c1.732-1.696 3.504 1.162 5.957 0.542-1.76 1.73-3.82-0.85-5.96-0.54z"></path> <path fill="#FFFFFF" d="m51.446 181.96c-0.787 0.838-2.112 1.137-3.791 1.083 0.787-0.84 2.113-1.14 3.791-1.08z"></path> <path fill="#FFFFFF" d="m43.323 183.58c-0.13 0.952-0.932 1.234-2.166 1.083 0.356-0.72 1.157-1 2.166-1.08z"></path> <path fill="#FFFFFF" d="m37.908 185.21c-1.19 1.65-3.469-0.63 0 0z"></path> <path fill="#FFFFFF" d="m132.14 190.62c-4.52 2-5.68-1.84 0 0z"></path> <path fill="#FFFFFF" d="m70.4 190.62c0.875-0.153 0.932 0.512 1.625 0.541-0.886 9.722-0.722 18.844-1.083 30.868-0.044 1.483 0.963 4.569-1.083 5.415 0.622-3.762 0.922-7.869-4.333-7.04 4.541-1.774 4.925-9.372 3.791-15.163-0.168-0.735-1.356-0.449-2.167-0.542 5.389-1.59 0.19-10.55 3.25-14.08z"></path> <path fill="#FFFFFF" d="m72.566 191.16c0.63-0.088 0.963 0.119 1.083 0.542-1.598 4.37 0.676 13.011-1.083 14.621v-15.16z"></path> <path fill="#FFFFFF" d="m122.93 205.24c-1.784 1.605-6.677 0.001-8.665-0.542-3.76-1.02 3.68 0.12 8.67 0.54z"></path> <path fill="#FFFFFF" d="m79.606 206.33c-0.215-1.051 2.467-0.791 1.625 0.542h-1.083c0.099-0.46-0.211-0.51-0.542-0.54z"></path> <path fill="#FFFFFF" d="m125.64 205.78c-1.19 1.66-3.47-0.62 0 0z"></path> <path fill="#FFFFFF" d="m74.732 206.87c0.875-0.153 0.933 0.512 1.625 0.541 0.65 6.389-0.948 11.465-1.625 18.954-0.922-5.26-0.874-14.22 0-19.49z"></path> <path fill="#FFFFFF" d="m72.566 207.95c1.091 1.243-0.079 10.196-0.542 13.538-0.331-5.03 0.423-8.97 0.542-13.54z"></path> <path fill="#FFFFFF" d="m78.523 207.41h1.625c0.543 2.516-0.379 6.909 2.708 8.123-3.501 1.51-5.018-3.64-4.333-8.12z"></path> <path fill="#FFFFFF" d="m137.55 207.95c-0.091-1.175 1.921-0.246 2.708-0.542 0.09 1.17-1.92 0.24-2.71 0.54z"></path> <path fill="#FFFFFF" d="m77.981 226.36c-2.51-1.614 0.171-6.912 0.542-9.206 2.365-0.38 3.05 0.921 5.416 0.541-0.963 1.203-2.417 1.916-4.333 2.166-0.679 2.03-0.509 4.91-1.625 6.5z"></path> <path fill="#FFFFFF" d="m93.686 218.78c-2.118 1.196-5.773-0.71-9.206 0 1.694-3.18 5.803 0.12 9.206 0z"></path> <path fill="#FFFFFF" d="m94.227 219.86c3.354-1.177 7.953 1.065 11.914 1.084-4.36 1-7.407-0.69-11.913-1.08z"></path> <path fill="#FFFFFF" d="m120.22 223.66c-0.091-1.174 1.921-0.245 2.708-0.541 0.09 1.17-1.92 0.24-2.71 0.54z"></path> <path fill="#FFFFFF" d="m79.064 226.9c-0.522 1.103-2.08 1.17-3.791 1.083 1.104-0.58 2.834-1.97 3.791-1.08z"></path> <path fill="#FFFFFF" d="m76.357 228.53h1.625c0.285 4.048 3.666 4.998 7.04 5.957-1.46 1.248-5.223 0.192-7.582 0.541-0.466-2.06-1.466-3.59-1.083-6.5z"></path> <path fill="#FFFFFF" d="m69.317 229.07c2.917 0.084 2.27 0.368 4.874 0.541-0.327 3.216 0.374 5.402 1.083 7.582-1.806 1.804 0.35 7.569-2.708 8.123 0.111-6.856 0.799-9.088-0.542-15.163 0.434 1.256-0.876 2.938-1.083 5.415-0.279 3.338 1.034 8.264-1.083 10.831-1.932-0.414 0.526-2.567-2.708-2.166 2.456-1.196 5.167-11.119-0.542-10.831 0.657-1.68 3.265-1.42 2.709-4.32z"></path> <path fill="#FFFFFF" d="m102.89 238.28c-5.879 0.64-13.163-1.997-20.037-2.167 6.082-2.33 13.042 2.01 20.037 2.17z"></path> <path fill="#FFFFFF" d="m106.14 239.36c-0.091-1.175 1.921-0.246 2.708-0.542 0.09 1.17-1.92 0.24-2.71 0.54z"></path> <path d="m151.09 238.82c-0.127 1.679-1.921 1.689-3.25 2.166 0.78-1.03 1.21-2.41 3.25-2.17z"></path> <path fill="#FFFFFF" d="m109.39 239.9c0.068-1.196 2.298-0.229 3.25-0.541-0.07 1.2-2.3 0.23-3.25 0.54z"></path> <path fill="#FFFFFF" d="m76.898 240.44c0.352-1.527 0.628 1.247 0.542 1.624-0.251 1.1-1.018 0.44-0.542-1.62z"></path> <path fill="#FFFFFF" d="m69.317 246.94c2.767-0.24 1.224 3.831 1.625 5.957-1.901-0.63-1.661-3.4-1.625-5.96z"></path> <path fill="#FFFFFF" d="m72.566 246.94c3.49 0.806 1.247 6.448 1.083 9.206-0.146 2.454 0.108 4.973 0 7.582-3.002-2.6-1.562-12.51-1.083-16.79z"></path> <path fill="#FFFFFF" d="m75.815 261.56c0.02-3.41-0.345-7.205 1.083-9.206 1.116 0.327 3.762-0.874 3.249 1.083-3.781 0.38-1.298 7.01-4.332 8.13z"></path> <path fill="#FFFFFF" d="m87.187 252.9c-0.232 1.211-2.668 0.22-3.79 0.542 0.493-2.06 2.176-0.4 3.79-0.54z"></path> <path fill="#FFFFFF" d="m69.317 253.44c2.884 1.489 1.98 8.903 2.166 11.372-2.034-0.695-2.207-4.504-1.083-5.957-0.581-1.58-1.537-2.79-1.083-5.41z"></path> <path fill="#FFFFFF" d="m87.729 253.98c2.177-1.433 5.301 0.82 8.123 0.542-1.873 1.13-5.792-0.33-8.123-0.54z"></path> <path fill="#FFFFFF" d="m107.77 257.23c-0.092-1.174 1.921-0.245 2.708-0.541 0.08 1.17-1.93 0.25-2.71 0.54z"></path> <path fill="#FFFFFF" d="m77.44 263.73c2.183-0.197 0.839 3.133 3.249 2.707-1.66 1.973-2.309-1.626-4.332-1.083 0.191-0.72 0.953-0.86 1.083-1.63z"></path> <path fill="#FFFFFF" d="m72.566 266.44c2.639 0.956-0.493 4.704 0.542 7.582-1.38-1.17-1.517-5.79-0.542-7.58z"></path> <path fill="#FFFFFF" d="m75.815 266.98c0.907 0.718 1.815 1.435 3.791 1.083-0.332 1.474-1.488 2.123-3.249 2.166-0.624-0.64-0.613-1.92-0.542-3.25z"></path> <path fill="#FFFFFF" d="m69.858 268.06c0.629-0.088 0.963 0.12 1.083 0.542-0.334 3.614 2.947 10.694-1.083 11.372 0.16-4.99 0.288-7.02 0-11.91z"></path> <path fill="#FFFFFF" d="m85.563 269.69c5.218-0.7 11.28 2.435 17.329 2.707-5.747 1.22-11.869-1.85-17.327-2.71z"></path> <path fill="#FFFFFF" d="m75.273 274.02h1.083v2.166h-1.083v-2.17z"></path> <path fill="#FFFFFF" d="m72.566 274.56c0.746 0.838 1.09 3.25 0.542 3.79-1.212-0.23-0.22-2.67-0.542-3.79z"></path> <path fill="#FFFFFF" d="m72.566 279.98c1.003-1.316 0.365 3.569 0.542 4.874-0.635-0.088-0.457-0.987-0.542-1.625-1.784 0.91-1.125 3.916 0.542 4.332-0.211 8.782 0.788 15.961-1.083 21.662-3.027-0.055-1.062-2.854-1.083-4.333-0.098-6.687 0.176-16.107-0.542-22.744 1.869 0.98 2.517 0.33 2.166-2.16z"></path> <path fill="#FFFFFF" d="m76.357 290.26c1.184 1.343 1.059 3.996 3.249 4.332-1.298 0.732-5.155-0.603-4.333-3.79 0.63 0.1 0.964-0.11 1.084-0.54z"></path> <path fill="#FFFFFF" d="m76.357 307.05c1.531 0.454 3.342 0.628 4.874 1.083-1.58 0.947-4.621 0.434-3.791 3.79-0.613 0.76-1.102-3.19-1.083-4.87z"></path> <path fill="#FFFFFF" d="m71.483 309.76c3.149 1.882-0.63 10.872 1.083 11.373-0.123 0.779-1.616 0.188-1.625 1.083 0.668-1.281-2.944-5.396 0.542-5.957-2.261-2.77 1.114-3.75 0-6.49z"></path> <path fill="#FFFFFF" d="m76.357 324.38h1.083v1.083h-1.083v-1.08z"></path> <path fill="#FFFFFF" d="m70.941 327.09c2.598 0.756 0.802 2.916 1.083 5.416-0.482-0.421-1.223-0.582-2.166-0.542 0.227-2.86 0.827-2.87 1.083-4.88z"></path> <path fill="#FFFFFF" d="m70.941 335.21c0.875-0.152 0.932 0.513 1.625 0.542 0.418 2.109-1.791 3.019-2.708 2.166-0.083-1.35 0.851-1.68 1.083-2.71z"></path> <path fill="#FFFFFF" d="m70.941 343.88c-0.556-2.181 0.843-2.406 1.625-3.249-0.532-1.518-1.445 0.786-2.166-0.542 2.074-5.17 4.756 4.14 0.541 3.79z"></path> <path d="m121.85 26.536c4.738 12.756-0.465 28.527-5.416 38.991-3.202 6.768-8.028 12.27-9.747 18.954 2.405 1.734 3.562-1.629 5.957-1.625-0.342 2.908-3.252 3.247-4.333 5.416 1.98 0.728 4.219 1.197 5.416 2.708-1.378 2.955-4.885 3.78-5.416 7.582 0.92 1.789 2.174 3.242 2.708 5.416 3.231-3.532 7.452 0.038 8.123 3.791 8.234-2.59 13.528-8.794 18.412-15.163 7.527-9.813 13.293-27.634 15.705-42.781 1.036-6.51 1.359-13.012 2.166-19.496 2.838 0.97 1.085 4.05 1.083 6.499-0.016 21.268-3.289 37.047-9.748 51.988-2.01 4.65-5.118 8.981-8.123 12.997-3.413 4.562-7.274 9.165-12.455 11.914 1.037 1.521 2.823-0.744 4.332-0.542-1.118 2.492-3.485 3.735-5.957 4.874 10.667-2.151 18.59-11.736 25.453-19.496-4.402 12.747-14.021 20.276-27.077 24.369v3.25c2.664 1.148 8.094 0.858 11.372 0.542 9.873-0.956 19.873-5.301 27.077-9.748 3.875-2.392 6.517-6.209 10.831-7.04-0.55 3.061-3.972 3.249-4.333 6.498-10.523 7.614-23.88 13.591-39.532 15.705-1.861 0.251-6.312-1.355-7.04 1.625 2.391-0.512 9.108 0.524 12.997 0-2.746 3.03-10.811 0.742-13.538 3.791 8.53 5.061 28.646 4.216 37.366 0-3.885 9.509-20.496 5.165-33.034 5.957-3.405 0.215-8.829-0.279-8.665 3.249 2.243 3.354 7.997 3.195 12.997 3.791-4.019 1.482-9.119-0.622-12.455-1.625-0.166 3.177 5.583 2.201 8.664 2.708 8.839 1.452 22.861 1.495 33.576 1.083-1.032-1.033-6.097-0.422-9.748-0.542-3.504-0.115-7.772-0.277-1.625-0.542h6.499c5.631-0.373 12.906-1.832 17.329-1.625-4.239 3.315-12.137 4.338-19.495 4.874-12.078 0.879-23.299-0.619-34.659-1.083-2.8-0.114-6.363-2.063-8.123 1.083 2.556 3.763 8.414 4.222 12.456 6.499-5.032-0.027-10.758-4.042-15.705-5.957 0.114 2.704 4.974 3.062 8.123 4.332 8.39 3.384 19.045 7.97 29.785 9.206-0.82-0.805-2.377-0.872-3.791-1.083 5.807-1.289 11.523 2.192 17.871 2.166-0.233 1.211-2.669 0.22-3.791 0.542 4.128 1.232 9.739-0.724 15.163 0-3.067 1.427-6.896 2.05-10.289 2.167-19.437 0.666-38.495-8.485-54.154-12.997-1.996 0.351-2.84 1.853-3.249 3.791 4.298 4.933 11.374 8.625 18.954 11.372 9.378 3.399 20.217 6.958 31.409 4.332-1.472 2.22-4.826 2.959-7.04 3.25-13.141 1.724-24.119-2.925-33.034-7.041-3.292-1.52-6.745-3.072-9.748-4.874-2.609-1.565-6.351-5.376-9.206-1.625 1.262 4.516 6.854 4.7 10.831 6.499-4.163 2.249-10.181 0.155-12.455-2.708-4.335 7.562 5.948 9.158 12.455 10.831 10.176 2.614 25.764 6.646 37.908 7.581 7.616 0.587 14.354-1.419 20.036-1.625-22.592 11.236-50.581-2.964-74.19-3.79-0.981 3.123-2.513 7.234-0.542 10.289 15.245 5.321 34.822 9.188 51.988 10.831 5.993 0.573 12.25 0.182 17.871-1.625-3.941 5.688-11.753 3.249-18.413 3.249-2.683 0-5.429 0.693-8.123 0.542-15.248-0.86-30.868-5.64-43.864-7.582-3.185 1.444-3.979 8.511-3.249 10.831 1.924 6.113 13.891 5.636 23.827 7.581 11.039 2.162 17.848 3.417 28.702 3.791 1.498-0.092 1.859 0.832 1.083 1.625 4.583-1.734 11.11-1.525 16.787-2.166-1.295 1.531-5.337 2.931-7.581 3.249-8.877 1.26-20.453-0.965-31.409-1.625-5.215-0.313-11.328-1.875-16.788-2.707-7.749-1.183-12.104-2.71-15.705 0.541 0.404 3.473-0.632 5.506-0.542 8.665 2.173 3.436 6.677 2.51 11.914 3.79 1.3 0.318 2.182 1.395 3.249 1.625 15.769 3.402 34.475 5.237 50.363 3.791-1.148 2.12-3.964 1.32-5.957 1.624-15.491 2.366-33.221-0.787-48.197-2.707-4.016-0.516-8.809-1.19-11.914 1.083 2.429 3.373-1.05 4.354-0.542 8.664 2.385 2.357 5.619 2.534 8.665 3.25 5.604 1.315 12.687 2.021 19.495 3.249 11.328 2.042 21.052 5.283 34.658 3.249-8.054 4.343-17.729 1.467-26.535 1.625-1.062 0.019-2.643-0.323-3.791-0.542-3.488-0.664-7.342-1.188-10.831-1.625-8.975-1.123-15.331-3.59-21.12-1.624-0.357 2.477-0.125 4.704-0.542 8.123 8.47 4.656 22.023 6.668 34.117 8.664 6.362 1.051 12.338 2.573 18.412 1.625 2.284-0.356 4.163-2.047 6.498-1.625-3.945 5.2-13.413 3.453-21.661 2.708-12.622-1.141-26.393-2.763-36.825-4.874-2.378 1.349 0.375 4.733-1.625 5.957 3.847 4.518 14.917 8.338 22.744 10.289 8.478 2.113 16.731 1.853 25.453 2.167-2.033 2.568-9.613 1.963-14.08 1.624-11.665-0.885-23.554-5.102-34.117-6.498-0.713 2.122-1.367 5.516-0.542 7.581 10.332 5.628 27.5 10.355 41.699 7.04-2.576 3.381-7.072 3.664-10.289 3.791-5.115 0.202-11.85-0.746-16.247-2.708-0.539-0.24-1.435-1.594-1.624-1.624-0.428-0.069-2.271 1.059-2.708 1.083-3.431 0.191-8.473-3.02-10.831-0.542 1.941 4.919 9.792 3.927 12.997 7.582-4.411 1.081-11.151-4.697-12.997-1.083 1.056 1.904 3.852 1.518 5.957 2.166 4.313 1.328 10.762 3.362 17.329 2.166-1.865 2.272-5.701 2.337-8.664 2.166-4.408-0.255-9.451-2.276-14.08-2.166-2.081 7.382-0.29 21.456-1.083 28.701-0.608 5.559-3.043 8.328-9.206 7.04-3.546-20.907 0.11-44.369-1.625-64.984-0.214-2.549-1.296-6.629 0-10.289-0.547-1.525-2.3 0.149-3.249 0-0.29-2.637 2.159-2.534 2.708-4.333-0.684-5.483-0.719-12.033 0-19.495-3.736 0.103-11.934 3.168-17.871 1.083 2.168-2.57 6.278-1.857 9.748-2.707 3.135-0.769 6.255-2.19 8.665-3.25-0.403-1.221-3.037-0.211-4.332-0.541 0.617-2.633 5.125-1.373 4.874-4.874-1.704-2.098-4.488-0.097-6.499 0.542-5.935 1.884-13.479 4.709-21.662 4.873 0.895-2.758 4.813-2.512 7.04-3.249 2.394-0.792 4.657-1.892 7.04-2.708 4.764-1.631 10.701-2.17 13.538-5.956-2.877-0.342-8.09 1.65-12.997 1.083 4.067-2.612 9.637-3.722 14.622-5.416 0.024-1.648-1.144-2.105-1.625-3.249-12 2.812-25.948 6.531-37.908 7.582 1.533-2.259 5.354-2.228 8.665-2.708 4.077-2.508 9.781-3.898 15.163-5.415 5.112-1.441 11.452-1.75 14.08-5.957-1.484-0.74-4.79 1.331-8.123 0.541 0.576-1.232 2.461-1.677 3.791-2.166 1.25-0.46 2.805-0.935 4.332-1.083 0.521-1.426 1.047-4.639 0-5.957-14.538 3.333-25.523 10.219-42.781 10.831 1.159-2.182 3.626-1.158 5.416-1.625 13.048-3.401 25.506-9.488 37.366-14.08-0.157-3.272 0.434-7.293-0.542-9.747-6.011 2.104-12.149 4.96-18.954 6.498-1.008 0.228-2.257-0.278-3.25 0-7.299 2.05-14.845 5.661-22.745 4.874 9.883-3.942 20.889-6.521 30.868-10.289 5.177-1.955 10.2-4.351 14.621-7.04-0.029-2.498 0.24-5.295-0.542-7.04-17.185 4.201-35.063 11.63-53.612 9.747 3.938-2.168 8.511-2.398 12.997-3.249 12.578-2.386 25.741-5.916 37.908-9.206 1.579-2.551-4.005-1.95-3.791-4.874 2.455 0.073 3.919 1.135 5.957 1.625 1.609-1.821-0.302-4.729-0.542-6.499-15.046 3.18-32.546 10.853-50.363 9.207-1.706-0.158-4.872 0.942-4.874-1.625 20.801 0.723 37.393-5.946 54.154-11.914-1.118-1.409-4.297-0.757-5.416-2.166 0.989-2.146 3.155 0.114 6.499-0.542 0.129-2.295-0.498-3.834-1.083-5.416-15.991 4.588-32.362 8.795-51.988 9.748 4.065-1.839 8.681-2.258 12.997-3.25 11.476-2.637 22.482-5.841 33.575-8.665-0.162 1.462-2.278 0.971-2.708 2.166 2.364-0.163 3.307-1.747 5.957-1.625-0.899-1.199-2.925 0.104-1.625-2.166-3.895-0.258-7.394-0.91-10.29-2.166 1.676-1.539 9.13-0.334 12.456 0-1.246-4.643-6.983-3.325-12.456-1.625-9.701 3.015-29.774 4.208-41.157 2.708 15.723-2.87 32.789-4.397 48.197-7.582-3.184-0.606-5.811-1.771-9.206-2.166-0.556-1.82 1.684-0.843 2.708-1.083-1.039-2.735-4.259-0.598-6.499 0-5.025 1.343-13.193 3.705-19.495 1.625 9.5-3.316 21.045-4.587 28.702-9.748-0.957-0.672-2.006-0.76-3.25-0.542-2.389 0.42-3.714 2.295-4.874 0.542-0.681 0.134-0.546 1.077 0 1.083-12.083 0.337-24.352 10.773-40.074 8.124 2.241-1.484 7.158-2.178 9.748-1.625 8.005-4.089 16.91-7.278 24.911-11.372-0.877-2.553-2.188-4.672-2.708-7.582-8.874 1.866-18.821 5.065-29.243 3.249-2.327-0.405-5.52 0.038-7.04-2.166 9.296 0.136 24.329-2.36 35.2-5.416 0.119-1.744-0.958-2.292-0.542-4.332-3.347-0.24-7.04-0.464-10.289-1.083-2.735-0.521-6.468-0.942-7.582-3.25 5.882 1.621 9.873 0.495 17.329 0.542 0.28-1.482 0.867-4.478 0.542-5.957-0.684-1.843-3.082-1.973-5.415-2.166-11.352-6.468-25.132-10.558-30.874-22.687 2.356 1.175 4.797 2.933 4.874 4.874 10.966 9.071 25.374 14.7 42.24 17.871 0.391-1.655-0.554-1.974-0.542-3.249-0.85-1.163-2.304 1.631-4.333 1.083-11.691-3.111-22.404-7.2-31.409-12.997 4.162 0.846 8.313 3.495 12.997 5.416 4.603 1.887 9.449 3.902 14.622 4.874 1.008-1.699 1.564-3.851 2.708-5.415-2.695-4.164-7.569-6.15-9.206-11.373 3.785 0.553 7.499 5.855 11.914 7.582-0.687-8.799-6.895-16.792-9.206-27.077-3.427-15.246-3.117-31.947-3.25-50.906-0.016-2.243-0.9-5.215 0.542-7.04 2.061 1.745 1.278 5.504 1.625 9.206 2.167 23.172 3.689 49.459 14.622 64.443 1.196-0.067 0.23-2.297 0.542-3.25 1.744 0.119 2.292-0.958 4.333-0.542-0.981-2.448-3.92-2.94-4.333-5.957 3.125-0.056 3.646 2.491 7.04 2.167 0.127-5.204-5.553-9.56-7.04-15.705-0.719-2.97-0.777-6.671 0-10.29 1.504 1.274 2.047 3.615 2.708 5.416 1.848 5.037 3.205 11.948 8.123 15.163 0.755-2.134 1.525-4.251 2.167-6.499-3.939-3.283-3.928-12.541-2.167-18.412 1.896 3.81-0.198 12.644 3.791 15.705 5.081-3.764 7.257-10.434 12.455-14.08 5.517 2.787 4.93 11.677 11.372 13.539 0.285 2.964 1.212 5.287 3.25 6.499 3.908-3.704 5.363-8.293 7.581-14.622 0.454-1.297 1.834-2.545 2.166-3.791 0.605-2.267 0.267-5.293 0.542-7.582 0.271-2.26-0.201-5.663 2.166-7.04 1.28 10.046-0.757 21.434-4.874 29.785-2.524 5.121-6.524 6.483-3.791 12.456 1.023 0.659 2.188 0.062 4.333 0.542-0.006 3.424-3.803 3.057-4.333 5.957 1.216 1.253 4.322 1.617 7.04 2.708 12.35-10.923 19.73-26.834 20.57-49.28zm-2.71 23.827c-1.698 5.792-4.914 12.524-8.123 17.329-0.496 0.743-2.017 1.289-2.708 2.166-0.782 0.995-0.92 2.507-1.624 3.25-2.124 2.237-4.979 2.853-6.499 5.415 0.927 0.879 1.972 1.64 3.791 1.625 4.284-7.991 9.085-15.465 14.08-22.745-0.721-4.34 4.831-9.962 2.708-15.705-0.87 3.19-0.8 5.822-1.63 8.665zm23.28 75.817c1.095 2.177 3.893-0.399 5.415-1.083 2.98-0.45 4.961-1.899 7.04-3.25-3.94 1.66-8.73 2.46-12.46 4.33zm-51.442 43.32c0.104 1.552 2.86 3.236 3.249 2.708-1.174-0.81-1.261-2.71-3.249-2.71zm5.957 130.51c-3.154-1.93-5.183 0.09 0 0zm-54.695-162.46c6.638-0.944 11.534-3.629 17.329-5.416-6.308-0.76-12.113 3.33-17.329 5.42zm-21.662-0.54c0.021 1.553 3.735-1.843 6.499-1.083 2.421-2.278 8.849-3.418 9.748-5.416-5.577 2.01-10.643 4.52-16.247 6.5zm15.163-83.398c-1.486-9.661-0.755-19.922-3.249-29.785 0.492 8.705 0.652 16.381 1.625 23.828 0.383 2.936 1.139 10.253 2.166 12.456 3.245 6.954 6.542 13.688 8.665 20.579 0.582 1.889 2.37 5.056 0.542 7.04-3.997-0.522-6.869-5.036-9.206-5.416 3.444 3.596 7.798 6.282 10.29 10.831 0.172-1.256-0.087-2.079-0.542-2.708 2.386-1.405 1.622-5.959 3.791-7.582-5.468-8.175-12.215-17.109-14.082-29.243zm86.109-15.163c-0.02 0.286 0.44-1.122 0 0zm-53.616 11.373c1.088-1.439 3.741-1.313 4.332-3.25-3.083-0.896-5.332 1.861-4.332 3.25zm86.646-0.542c0.147-0.737-0.335-2.114-0.541-1.083-0.15 0.738 0.33 2.114 0.54 1.083zm-36.28 63.9c8.746-4.792 15.854-11.222 21.119-19.496 0.732-0.17 1.035-0.771 2.167-0.542 0.32-3.109 1.629-5.23 3.79-6.498 0.106-5.52 4.289-10.909 5.957-17.33 1.463-5.631 2.32-11.957 2.166-17.871-3.271 18.571-9.388 34.296-18.412 47.114-5.863 3.523-8.641 10.132-17.871 10.289-0.667 1.138-1.498 2.112-2.166 3.25 1.742-0.424 3.59-0.743 4.874-1.625-0.18 1.27-1.89 1-1.63 2.7zm-48.742-60.109c0.018 2.479 5.806 2.098 5.957 0-1.744-0.463-3.218-0.25-5.957 0zm0 4.874c2.057-0.831 4.876-0.9 7.582-1.083 0.281-2.524-10.107-2.748-7.582 1.083zm20.579 3.249c0.818-1.903 3.863-4.419 3.249-5.957-0.463 2.26-5.019 3.264-3.249 5.957zm-27.077 0c-2.812 0.323 1.588-5.338-1.083-4.874-1.043 1.315-1.957 6.928 1.083 4.874zm6.498-1.625c1.647-0.519 5.492 1.16 5.415-1.083-0.258-0.223-5.381-0.715-5.415 1.083zm-1.624 0.542c-0.655-0.115-0.333-0.601 0-1.083h-1.625c-0.475 1.115 1.405 2.431 1.625 1.083zm18.953 2.707c0.092-0.631 0.856-0.588 1.625-0.542-0.092-0.81 0.193-1.999-0.541-2.166 0.027 0.994-2.775 1.834-1.084 2.708zm-22.203 0.542c2.57-1.401 9.031 1.089 9.748-2.166-3.669 0.303-8.537-0.595-9.748 2.166zm-4.332 0c-2.146 0.839-3.31-2.048-4.332-0.542 1.035 0.747 3.842 4.063 4.332 0.542zm26.535 0.541c0.478 1.509 0.677 3.295 1.625 4.333 0.595-1.414 2.754-4.074 1.083-5.957-0.492 0.952-1.897 0.991-2.708 1.624zm-17.329 1.625c-0.463-0.01-0.32-1.779 0-1.625-1.919-0.929-8.492 0.471-7.582 3.791 4.174-1.878 8.258-0.498 12.997-1.625-0.065-2.251-1.596-2.438-2.708-1.625 1.326 0.06 0.115 1.79-0.542 1.625v-2.167c-1.274-0.817-0.852 1.654-2.165 1.626zm-14.621 4.332c0.808-2.372 1.71 0.07 2.708 0.542 1.011-0.963-0.44-1.376 0-3.249-0.746 0.023-1.189-0.255-1.625-0.542-0.427 0.708-2.119 2.867-1.083 3.249zm10.83-2.166c-1.812 0.238-5.335 0.023-5.416 2.166 4.555 1.182 12.468-2.536 14.622 0.542 0.777-0.983-0.468-2.25 1.625-2.708-2.579-0.473-7.118-0.487-10.831 0zm24.37 2.708c0.611 1.193 0.622 2.988 2.166 3.25-0.859-3.387 2.451-2.604 3.249-4.333-2.24-0.76-3.102 2.626-4.332 1.083 0.301 0.002 0.614-0.438 0-0.542-0.12 0.422-0.454 0.63-1.083 0.542zm-25.453 2.708c-0.233-0.851-1.703-0.463-1.083-2.167-2.198-0.032-3.229 1.104-3.791 2.708 2.921 0.011 1.551-0.051 1.083 1.625 4.45-2.55 13.76 0.697 17.329-3.791-3.396 0.309-4.118-0.073-6.499 1.083-0.62-1.704 0.85-1.316 1.083-2.167-4.394-0.784-5.726 1.494-8.122 2.709zm-15.163-1.625c-0.204 4.319 3.862 1.802 7.04 3.249 0.435-2.24-1.967-1.644-1.625-3.791-2.091-0.106-3.99-0.019-5.415 0.542zm1.083 3.791c-0.023 0.746 0.255 1.189 0.542 1.625 1.766 0.141 2.606-0.643 2.708-2.166-1.335-0.072-2.61-0.083-3.25 0.541zm33.576 0c-6.645 3.645-18.704 1.875-27.077 3.791 1.839 2.437 0.064 1.799-0.542 3.25-0.612 0.299 0.919 3.016 2.708 2.708 0.715-1.355-2.141-1.695-0.542-2.166 7.201-2.078 15.202-0.004 19.496-4.874 0.049 1.478-0.902 1.09 0 2.167 3.171-0.259 5.571-1.289 8.123-2.167 0.141-1.767-0.643-2.608-2.166-2.709zm14.621 9.747c0.655-1.691 2.339-2.354 2.708-4.332-2.29-2.459-3.371 2.845-4.332 1.625 0.368-1.288 2.45-3.646 1.083-4.874-0.334 1.471-1.074 2.536-2.166 3.25-0.133-2.299 1.416-2.916 1.083-5.416-2.948-0.06-2.841 2.936-2.708 5.957 2.779-0.073 2.404 3.01 4.331 3.79zm-35.741-8.123c3.529-0.65 5.371 0.344 8.123-1.083-2.457 0.613-7.43-1.293-8.123 1.083zm-9.206 1.083c0.29-1.275 2.562-0.331 1.083 0.542 1.75-0.947 2.833-0.949 3.249-2.166-2.095-0.439-5.659 0.437-4.332 1.624zm25.993 6.499c0.244-1.507-2.952 0.425-2.708-1.083 1.395-1.327 7.088-1.195 5.957-3.249-1.965 1.177-9.905 0.38-10.831 4.332 0.661 0.062 1.282 0.162 1.083 1.083 2.726 0.151 7.024-1.234 6.499-1.083zm-10.289-1.625c4.388-1.447 1.058-0.212-1.625 0-2.646 0.209-7.024-0.462-7.582 1.083 3.638-0.463 0.877 3.375 2.167 4.333 0.93-1.055 2.804-1.167 4.874-1.083 1.013-1.153 0.884-3.449 2.166-4.333zm15.163 3.791c1.491 0.314 2.262 1.348 3.791 1.625-0.447-1.531 0.764-1.403 0.542-2.708-1.18-1.02-3.812-0.21-4.333 1.083zm16.249-1.625c-0.114 0.654-0.601 0.333-1.083 0-1.003 2.519-1.048 3.668-0.541 5.957 2.381-1.229 5.112-2.108 5.957-4.874-2.449-2.333-4.113 2.882-5.416 1.625 0.8-0.162 2.33-2.278 1.08-2.708zm-35.744 3.25c-1.112 1.054-2.643 1.689-2.708 3.791 4.433 0.455 7.927-3.155 11.914-3.249 3.052-0.072 6.586 0.61 8.123-2.166-4.376-1.926-11.036 1.99-17.329 1.624zm-25.452 6.499c2.277 0.11 4.527 0.195 4.874-1.625-0.722-1.624-1.215-3.478-3.249-3.791 0.686 1.651-1.852 2.757-0.542 3.249 0.471-0.792 0.811-1.716 2.166-1.625-1.086 1.103-0.141 1.442 0.542 2.166-1.121-0.25-4.062-0.92-3.791 1.626zm66.606-2.708c0.074 1.009 0.356 1.81 1.083 2.166 0.489-1.192-0.288-2.536 2.708-2.166 1.791-0.826-1.982-1.034-1.625-1.625-0.072 0.12 2.181-0.345 1.625-0.542-1.114-0.394-1.521-0.364-3.25 0.542 2.4-0.087 0.26 1.627-0.53 1.625zm-35.739 2.166c2.409 0.063 4.231-0.462 3.791-3.249-2.573-0.227-3.485 1.207-3.791 3.249zm32.489 2.708c-0.39-1.777-0.239-4.094-1.625-4.874 0.607-0.114 0.843-0.601 1.083-1.083-2.982-0.066-3.143 5.982 0.55 5.957zm-41.695-1.083c2.455-0.794 6.671 0.173 8.123-1.625-0.802-0.101-0.497-1.309-0.542-2.166-2.769 1.021-6.089 1.492-7.581 3.791zm23.828 11.367c-6.979 6.456-12.619 18.761-8.665 31.409-1.276 1.137-0.718 5.02 1.625 4.333 0.611-3.444-0.226-5.785 0-9.206 0.989-15.01 12.188-22.404 16.787-34.659 0.085 0.637-0.093 1.537 0.542 1.625 0.95-1.916-1.819-2.79-0.542-3.249 1.19 0.615 1.8 1.811 3.25 2.166-0.419-3.011-2.625-4.234-5.416-4.874-2.463 4.222-7.129 6.237-7.581 12.457zm-14.08-11.367c-4.058 0.609-9.615-0.021-11.373 2.708 0.422 0.12 0.63 0.454 0.542 1.083 6.537-1.026 11.521-2.105 16.247-4.332-2.399-0.356-4.268 0.368-5.416 0.541zm-0.542 4.877v1.625c1.678 0.054 3.004-0.245 3.791-1.083-2.102-1.712-1.676 0.24-3.791-0.55zm-31.95 3.25c-0.268-1.7 1.867-1.431 0.542-2.708-2.926-0.218-1.943 3.473-2.167 5.957 2.674-0.214 2.41-3.367 4.333-4.332-1.589-0.63-2.012 2.59-2.708 1.08zm21.661 0c1.384-0.241 2.49-0.76 3.25-1.625-0.732-0.17-1.034-0.771-2.166-0.542 0.393 1.47-1.077 1.08-1.084 2.16zm9.206 0c0.005 1.438-0.205 3.093 0.542 3.791 1.744 0.119 2.291-0.958 4.332-0.542-0.416-2.041 0.661-2.588 0.542-4.332-2.296-0.14-3.835 0.49-5.416 1.08zm37.912 5.95c0.613 1.94 3.213 6.351 4.874 3.791-4.287-2.934-7.188-7.254-10.831-10.831 1.04 3.29 3.31 5.35 5.96 7.04zm-51.45-2.71c1.6-0.168 1.036 0.201 3.249-1.083v1.625c-1.668-0.709-0.649 1.734-3.791 0.542v3.25c1.58-0.481 1.868-0.691 2.708 0.542 0.884-4.532 9.968-0.863 10.29-5.957 0.16-1.424-2.101-0.426-1.625-2.166-3.208-0.469-5.69 2.339-7.582 0-0.066 1.78-5.058 1.42-3.249 3.26zm20.037-1.62c0.147-0.737-0.335-2.114-0.542-1.083-0.148 0.73 0.335 2.11 0.542 1.08zm-36.283 1.08c0.802 0.811 2.799 0.05 2.708-1.625-1.701-0.26-2.214 0.67-2.708 1.62zm4.332 1.09c1.256 0.173 2.079-0.087 2.708-0.542 0.029-0.932-0.417-1.388-1.083-1.625-0.16 1.1-1.466 1.06-1.625 2.17zm95.854 3.25c1.146-0.161 2.957-2.401 2.166-2.708-0.37 1.26-1.81 1.45-2.17 2.71zm-101.81 3.24v-3.249c-0.638 0.084-1.538-0.093-1.625 0.542 1.099 0.35 0.357 2.54 1.625 2.71zm8.123 0c1.585 0.141 1.664-1.224 3.249-1.083-0.066-1.378-0.788-2.1-2.166-2.166 0.429 1.88-0.602 2.29-1.083 3.25zm78.528 5.42c5.501-1.361 11.963-4.64 13.538-8.123-3.38 3.84-9.11 5.34-13.54 8.12zm-10.84 5.96c1.99-3.637-6.079-5.838-2.166-9.748-3.106 0.218-3.891-1.886-5.415-3.249 0.204 1.648-1.969 0.919-2.166 2.166-0.548-0.897-2.301-0.588-3.25-1.083-0.835 2.279 2.803 0.086 2.708 1.625-2.629-0.084-4.041 0.028-1.625 1.083-0.81 0.092-1.998-0.193-2.166 0.542 2.017 0.751-1.594 0.082-1.083 1.083 5.159 1.701 11.178 2.541 14.08 6.498-0.209-0.627-2.63-0.627-1.083 0 0.81 0.28 1.37 0.8 2.17 1.08zm-43.319-9.75h1.083v-1.083h-1.083v1.08zm-56.861 5.41c-1.061 0.106-7.196-0.397-4.332 0.542 13.037 0.22 22.576-3.056 31.951-6.499-8.241 2.05-19.258 5.13-27.619 5.96zm105.06-4.33c1.355 0.092 1.695-0.832 2.166-1.625-1.36-0.08-1.7 0.84-2.17 1.63zm3.25 0c-0.103-0.902 3.844-0.383 1.625-1.625 0.1 0.91-3.85 0.39-1.63 1.63zm-57.947 2.71c1.789 0.969 4.869-0.706 5.957-2.167-1.172-0.693-3.643-1.813-1.625 0-2.045 0.24-2.542-1.068-3.791-1.625-0.588 1.66 0.899 1.71-0.541 3.8zm7.581-2.17c1.185 1.121 2.915-0.267 3.791-1.083-1.275 0.012-1.594-0.933-3.249-0.542 0.023 0.75-0.255 1.19-0.542 1.62zm-11.914 3.25c0.082-1.001 1.834-0.333 2.167-1.083 0.081-1.345-0.28-2.248-1.083-2.708-1.053 1.45-2.18 2.4-1.084 3.79zm55.24 1.63c-0.134 2.662 0.336 4.718 1.625 5.957-0.141-5.094-1.34-9.13-4.332-11.373-1.7 2.5 2.2 3.36 2.7 5.41zm-76.359-3.25c0.68 2.93 1.299 5.921 3.249 7.582 0.561-1.425 2.147-1.824 2.708-3.25-2.31-0.303-2.396-1.642-1.083-3.249-1.584-0.45-1.757 3.228-2.708 1.625 0.217-1.408 1.616-1.633 1.625-3.249-1.588 0.381-1.595 1.818-2.708 0-0.12 0.43-0.454 0.64-1.083 0.55zm53.612 2.71c1.009 0.075 1.81 0.356 2.166 1.083-1.826 0.52-3.699-1.659-4.874 0 1.848 0.5 4.466 0.228 5.415 1.625-2.228 0.555-4.606-1.847-5.415 0.542 0.96 0.123 2.712-0.546 2.166 1.083-1.345 0.704-2.247-1.589-2.707 0 7.106 1.019 12.383 3.726 17.329 5.957 2.653 1.197 6.477 1.369 7.581 4.333-2.096-0.612-4.392-1.024-5.415-2.708-4.562-1.751-10.698-3.04-15.163-4.874-0.725-0.297-3.19-2.892-4.332-0.542 0.81 0.092 1.998-0.193 2.166 0.542-2.185-0.379-2.5 1.11-3.791 1.625 1.345-0.081 2.247 0.28 2.708 1.083-1.234 0.744-2.036-1.396-2.166 0 0.842 0.142 0.375 1.188 0 1.625 6.659 1.219 11.821 4.085 16.246 6.498 2.37 1.293 5.021 2.164 6.498 4.333-3.086-1.007 0.054 0.411-1.083 1.083-6.025-1.774-12.458-7.445-18.954-8.665-1.318-0.248-3.894-0.911-4.874 0.542 0.936 0.455 1.422 2.058-0.542 2.166 2.97 0.913 4.666 2.269 4.332 4.333 6.47 2.195 12.21 5.119 16.246 9.748-2.506-1.063-0.753 0.512-1.624 1.083-4.04-2.075-9.184-7.482-14.08-8.665-1.084-0.262-3.526-1.177-4.333 0.542 1.45 0.69 2.575 0.864 1.625 2.708-0.712-0.552-1.996-0.531-2.708-1.083 0.724 2.63 3.679 1.815 5.416 2.708 3.477 1.787 5.713 5.122 9.206 6.499 0.228 1.036 0.196 2.331 1.624 2.166 4.728-4.84 9.352-9.784 12.456-16.246-0.359-2.887 0.419-4.635 1.624-5.957-1.538-2.104 0.069-5.688 0.542-7.582-0.783-0.842-1.139-2.11-1.625-3.249-5.776-1.263-9.353-4.728-15.163-5.957-0.272 2.441-6.675-1.091-5.957 0.542 2.68 0.31-0.558 0.29-0.537 1.1zm-2.166 35.2c-1.384 0.583-1.896-2.332-2.708-0.542 2.877 0.34 5.064 4.454 2.166 5.957 3.553 1.432 5.921-2.644 10.289-2.166 0.122-1.024-0.61-1.195-0.541-2.166-4.102 1.826-7.063-5.593-12.456-5.957-0.575 2.02 2.031 0.857 1.625 2.708-0.209-0.627-2.63-0.627-1.083 0 0.817 0.81 2.284 0.97 2.712 2.17zm28.163-35.2c0.654 0.115 0.333 0.601 0 1.083 0.42 0.122 1.067 0.015 1.083 0.542-0.331 0.031-0.642 0.081-0.542 0.542 1.024 0.122 1.195-0.61 2.166-0.542 0.222-1.305-0.989-1.177-0.541-2.708-1.02 0.08-1.82 0.36-2.17 1.09zm-76.902 7.04c4.581-0.007 7.277-4.535 10.289-4.333-0.363-2.021 1.5-3.177-1.083-3.249-0.814 4.78-6.556 4.63-9.206 7.58zm95.852-1.63c1.896 0.089 3.467-0.144 4.333-1.083-1.76 0.04-3.33 0.28-4.33 1.08zm-0.54 0c-0.787 0.296-2.799-0.633-2.708 0.542 0.79-0.29 2.8 0.64 2.71-0.54zm-7.58 0.54c-2.358 0.349-6.121-0.707-7.581 0.542 2.35-0.34 6.12 0.71 7.58-0.54zm-14.62 13.54c2.769-1.21 2.756-8.064 2.166-10.831-1.74 3.76 0.08 7.7-2.17 10.83zm-63.906-3.79c1.201 0.965 2.2 2.133 4.874 1.625 0.029-1.013-0.417-1.146-1.083-0.542-0.092-0.81 0.193-1.999-0.542-2.166-0.643 2.01-2.345-0.4-3.249 1.08zm70.946 1.63c0.81 2.96 3.48 0.28 0 0zm-50.909 1.62c1.234 0.151 2.036-0.131 2.166-1.083-0.959 0.12-2.711-0.55-2.166 1.08zm-7.04 0.54c0.868-1.508-2.339-1.498-2.166-0.542 1.024-0.12 1.195 0.61 2.166 0.54zm77.439 1.63c0.927-1.239 4.134-0.199 5.957-0.542-4.475-1.033-11.068-1.151-15.163 0 2.97 0.27 7.09-0.6 9.2 0.54zm-85.562 1.08c1.436-0.008 3.188 0.3 3.249-1.083-0.949 0.49-2.701 0.18-3.249 1.08zm10.831 2.71c1.009-0.518 1.81 1.622 2.167 0-1.314-0.311 0.254-3.503-1.625-3.249-1.286 1.1 0.744 2.14-0.542 3.25zm-21.12-0.54c2.026 0.04 3.744-0.228 4.874-1.083-2.026-0.05-3.743 0.22-4.874 1.08zm25.994 2.7c0.851-0.052 1.877 0.072 1.625-1.083h-1.083c0.001 0.54-0.439 0.64-0.542 1.08zm-8.665 0.54c-5.201-0.67-2.868 1.66 0 0zm1.625 0.55c1.491-0.02 11.962 2.95 12.456-0.542-4.111 0.28-9.595 0.63-12.456 0.54zm3.249 10.29c0.692 0.752 2.557 0.332 3.25 1.083 0.202-3.674-0.479-5.353 0-8.123-1.709 0.265-1.913-0.976-3.791-0.542-0.73 1.54 1.27 4.3 0.541 7.58zm11.914 7.04c-0.291 1.26-2.452 1.031-1.625 2.708 0.299 1.687 0.442 3.529 1.083 4.874-2.792 5.408-3.854 17.696-4.333 24.911-0.117 1.762-1.284 5.564 1.083 5.956 2.629-5.058 1.147-10.052 1.625-16.246 0.906-11.751 10.869-23.68 2.166-31.409-1.116 3.33 0.533 6.9 0.001 9.21zm-7.04-7.04c0.746-0.023 1.189 0.255 1.625 0.542 0.17-0.732 0.771-1.034 0.542-2.166h-1.625c0.023 0.75-0.255 1.19-0.542 1.63zm31.414 8.12c4.075 2.537 8.027 5.813 11.914 5.957-3.462-1.636-7.176-3.236-10.289-5.416-3.088-2.162-5.292-6.475-9.206-5.957 1.617 2.46 4.786 3.68 7.586 5.42zm-41.703-2.17c2.201-0.507 4.65-0.765 6.499-1.625 0.242 2.767-1.792 9.742 1.625 9.748 1.254-2.355 0.187-7.033 0.542-10.289-2.928-1.3-7.102 0.36-8.666 2.17zm10.83 8.13h2.708c-0.902-2.523 1.492-9.384-2.166-10.831-1.55 3.08-0.877 6.95-0.542 10.83zm74.193-5.42c-0.787 0.296-2.799-0.633-2.708 0.542 0.79-0.29 2.8 0.63 2.71-0.54zm1.08 1.08c4.08 1.8 2.65-1.43 0 0zm-65.525 10.83c-2.373 3.403-2.299 9.254-2.166 15.163 1.276-0.013 1.595 0.933 3.25 0.541-1.881-2.902 1.66-8.312-1.625-9.206-0.66 1.966 1.083 4.275 0 4.874-2.38-3.515-0.333-8.95 3.25-9.747 0.483 1.318-2.415 2.785 0 2.707 3.205-4.203 8.479-0.957 13.538 0 1.227 0.232 2.437-0.211 3.791 0 8.351 1.299 16.474 5.506 23.286 4.332-12.723-3.703-29.284-3.569-37.366-11.913-0.062 0.66-0.162 1.282-1.083 1.083-1.052-2.094-0.46-4.918 0.542-6.499-2.771 0.839-3.003 4.217-4.333 6.499 3.04 1.473 6.655 2.371 9.206 4.332-3.374-0.5-7.72-2.6-10.291-2.15zm-11.914-4.87c1.646-0.34 4.665 0.693 5.416-0.542-0.214-0.62-8.072 0.09-5.416 0.54zm49.279 0c-1.387 0.253-3.069-1.915-3.791-0.542 0.85 0.28 2.9 2.08 3.79 0.54zm-57.943 3.25c1.672-1.396 5.135-1.002 6.499-2.707-2.987-0.26-6.434 1.85-6.499 2.71zm61.193-2.17c-3.14-1.56-1.43 1.34 0 0zm-52.529 11.38c2.068-1.128 0.844-4.342 0.542-7.04-0.156-1.388 0.907-4.377-1.083-4.332h-1.083c0.7 3.63-1.624 10.28 1.624 11.37zm2.708-0.55c0.558-2.375 1.809-10.104-1.083-10.831 0.654 3.32-1.351 9.3 1.083 10.83zm56.321-9.2c-2.453 0.62-4.225-2.238-5.957-0.542 2.14-0.31 4.2 2.27 5.96 0.54zm-82.315 4.33c1.678 0.054 3.004-0.245 3.791-1.083-1.678-0.06-3.004 0.24-3.791 1.08zm-6.498 1.62c1.234 0.151 2.036-0.131 2.166-1.083-1.009 0.08-1.81 0.36-2.166 1.08zm-3.249 0.55c-3.469-0.63-1.19 1.65 0 0zm12.996 10.83c3.995-0.588 6.586-2.355 9.206-3.249 3.85-1.314 7.361-1.374 9.207-3.791-6.793 1.69-12.419 4.55-18.413 7.04zm81.236-5.42c-5.68-1.84-4.52 2 0 0zm-64.99 14.08c0.811 0.093 1.999-0.193 2.167 0.542 1.134 5.791 0.75 13.389-3.791 15.163 5.255-0.829 4.955 3.278 4.333 7.04 2.046-0.846 1.039-3.932 1.083-5.415 0.361-12.024 0.197-21.146 1.083-30.868-0.692-0.029-0.75-0.694-1.625-0.541-3.06 3.54 2.139 12.5-3.25 14.09zm5.416 1.63c1.759-1.61-0.515-10.251 1.083-14.621-0.12-0.423-0.453-0.63-1.083-0.542v15.16zm14.08-8.13c-1.586-0.681-3.237 0.355-5.957 0 0.218 2.484-3.336 5.396-0.542 7.04 0.12-9.431 11.759-4.05 17.33-4.874-4.368-0.512-9.732-2.896-11.914-3.791 0.681 0.22 1.106 0.7 1.083 1.62zm24.914 5.42c-2.708-0.181-4.443-1.333-7.582-1.083-0.684-0.854-5.782-2.141-4.874-1.083 3.664 0.84 8.664 3.23 12.454 2.16zm2.7 1.08c1.988 0.543 6.881 2.147 8.665 0.542-4.98-0.42-12.42-1.56-8.66-0.54zm-34.113 2.17h1.083c0.842-1.333-1.839-1.593-1.625-0.542 0.332 0.03 0.642 0.08 0.542 0.54zm45.493-1.09c-3.47-0.62-1.19 1.66 0 0zm-50.908 20.58c0.677-7.489 2.275-12.565 1.625-18.954-0.692-0.029-0.75-0.694-1.625-0.541-0.874 5.27-0.922 14.23 0 19.49zm-2.708-4.87c0.462-3.342 1.633-12.295 0.542-13.538-0.119 4.57-0.873 8.51-0.542 13.54zm10.831-5.96c-3.087-1.214-2.164-5.607-2.708-8.123h-1.625c-0.684 4.48 0.833 9.63 4.333 8.12zm57.405-8.12c-0.787 0.296-2.799-0.633-2.708 0.542 0.79-0.3 2.8 0.63 2.71-0.54zm-64.987 20.58c1.711 0.087 3.269 0.02 3.791-1.083-0.957-0.9-2.687 0.49-3.791 1.08zm4.333-8.13c1.916-0.25 3.37-0.963 4.333-2.166-2.365 0.38-3.05-0.921-5.416-0.541-0.37 2.294-3.052 7.592-0.542 9.206 1.116-1.59 0.946-4.47 1.625-6.5zm4.874-1.08c3.433-0.71 7.088 1.196 9.206 0-3.403 0.12-7.512-3.18-9.206 0zm21.66 2.17c-3.961-0.019-8.56-2.261-11.914-1.084 4.507 0.38 7.554 2.07 11.914 1.08zm0.54 1.08h4.874c0.53 0.604 3.125 1.859 3.79 0.541-2.37-0.34-6.22-2.05-8.66-0.54zm16.25 1.08c-0.787 0.296-2.799-0.633-2.708 0.541 0.79-0.29 2.8 0.64 2.71-0.54zm-45.49 11.92c2.358-0.349 6.122 0.707 7.582-0.541-3.374-0.959-6.755-1.909-7.04-5.957h-1.625c-0.383 2.91 0.617 4.44 1.083 6.5zm-10.831-1.63c5.709-0.288 2.997 9.635 0.542 10.831 3.234-0.401 0.776 1.752 2.708 2.166 2.117-2.567 0.804-7.493 1.083-10.831 0.207-2.478 1.517-4.159 1.083-5.415 1.34 6.075 0.653 8.307 0.542 15.163 3.057-0.554 0.901-6.319 2.708-8.123-0.709-2.18-1.41-4.366-1.083-7.582-2.604-0.173-1.956-0.457-4.874-0.541 0.555 2.89-2.053 2.63-2.709 4.32zm16.246 2.71c6.874 0.17 14.158 2.807 20.037 2.167-6.995-0.16-13.955-4.5-20.035-2.17zm-4.874 0c0.149 0.949-1.525 2.702 0 3.25-0.842-1.926 1.839-0.327 1.625-1.625-1.784-0.807 0.921-1.528 1.083-2.166-1.305-0.22-1.177 0.99-2.708 0.54zm30.869 2.71c-0.787 0.296-2.799-0.633-2.708 0.542 0.79-0.3 2.8 0.63 2.71-0.54zm3.79 0.54c-0.952 0.312-3.182-0.655-3.25 0.541 0.95-0.31 3.18 0.66 3.25-0.54zm-35.2 2.71c0.087-0.377-0.189-3.151-0.542-1.624-0.476 2.05 0.291 2.71 0.542 1.62zm4.873 9.75c-3.002-0.607-3.846-3.374-5.415-5.415-1.583 1.118-0.675 3.173 0 4.874 1.664-0.12 6.543 1.38 5.415 0.55zm-11.372 1.08c-0.401-2.126 1.143-6.197-1.625-5.957-0.035 2.56-0.275 5.33 1.625 5.96zm2.708 10.83c0.108-2.609-0.146-5.128 0-7.582 0.164-2.758 2.407-8.4-1.083-9.206-0.479 4.28-1.919 14.19 1.083 16.79zm6.498-10.29c0.513-1.957-2.133-0.756-3.249-1.083-1.429 2.001-1.063 5.796-1.083 9.206 3.034-1.13 0.551-7.76 4.332-8.13zm3.25 0c1.122-0.322 3.558 0.669 3.79-0.542-1.614 0.14-3.297-1.52-3.79 0.54zm-12.997 5.42c-1.124 1.453-0.951 5.262 1.083 5.957-0.186-2.469 0.718-9.883-2.166-11.372-0.454 2.61 0.502 3.82 1.083 5.41zm25.452-4.34c-2.822 0.278-5.946-1.975-8.123-0.542 2.331 0.21 6.25 1.67 8.123 0.54zm14.618 2.17c-0.787 0.296-2.8-0.633-2.708 0.541 0.79-0.29 2.8 0.63 2.71-0.54zm-34.113 8.66c2.023-0.543 2.672 3.056 4.332 1.083-2.41 0.426-1.066-2.904-3.249-2.707-0.13 0.78-0.892 0.92-1.083 1.63zm-3.25 8.67c-1.034-2.878 2.098-6.626-0.542-7.582-0.974 1.79-0.837 6.41 0.542 7.58zm3.25-3.79c1.761-0.043 2.917-0.692 3.249-2.166-1.976 0.352-2.884-0.365-3.791-1.083-0.071 1.33-0.082 2.61 0.542 3.25zm-6.499 9.75c4.03-0.678 0.749-7.758 1.083-11.372-0.12-0.422-0.454-0.63-1.083-0.542 0.288 4.88 0.16 6.91 0 11.91zm33.032-7.59c-6.049-0.272-12.111-3.407-17.329-2.707 5.46 0.87 11.582 3.94 17.329 2.71zm2.17 1.63h3.791c-0.233-1.211-2.669-0.22-3.791-0.542-1.08-1.28-1.08 0.05 0 0.54zm-29.787 2.16h1.083v-2.166h-1.083v2.17zm-2.166 2.17c0.549-0.54 0.204-2.952-0.542-3.79 0.323 1.12-0.669 3.56 0.542 3.79zm7.582 4.33c4.374 0.865 9.463 3.889 13.538 3.249-6.725-1.397-12.457-3.789-16.246-8.123h-2.167c1.286 2.205-1.037 4.011 0 5.415 0.94 0.26 2.541 0.24 4.875-0.54zm-10.289-0.54c0.717 6.637 0.444 16.058 0.542 22.744 0.021 1.479-1.944 4.278 1.083 4.333 1.871-5.701 0.872-12.88 1.083-21.662-1.667-0.416-2.326-3.422-0.542-4.332 0.085 0.638-0.093 1.537 0.542 1.625-0.176-1.305 0.462-6.19-0.542-4.874 0.351 2.5-0.297 3.15-2.166 2.17zm4.873 8.67c-0.823 3.188 3.035 4.522 4.333 3.79-2.19-0.336-2.065-2.989-3.249-4.332-0.12 0.42-0.454 0.63-1.084 0.54zm11.373 6.49c-4.02-1.24-6.402-0.794-10.831-1.625 0.186 3.191 0.388 5.433 0.542 7.582 0.75-2.056 1.945 1.97 4.332-0.542-1.474-0.872-3.402-1.291-3.249-3.79 0.697-3.36 7.67-0.52 9.206-1.63zm4.874 1.09c-1.339 0.327-4.812-1.385-3.791 0 1.414-0.45 2.972 1.63 3.791 0zm-14.08 13.54c-0.83-3.356 2.211-2.843 3.791-3.79-1.531-0.455-3.342-0.629-4.874-1.083-0.019 1.67 0.47 5.62 1.083 4.87zm-5.957 4.33c-3.485 0.562 0.127 4.676-0.542 5.957 0.008-0.895 1.502-0.304 1.625-1.083-1.713-0.501 2.066-9.491-1.083-11.373 1.114 2.73-2.261 3.71 0 6.49zm4.874 9.2h1.083v-1.083h-1.083v1.08zm-6.499 6.5c0.943-0.04 1.684 0.121 2.166 0.542-0.281-2.5 1.515-4.66-1.083-5.416-0.256 2.02-0.856 2.03-1.083 4.88zm0 5.96c0.917 0.853 3.125-0.057 2.708-2.166-0.692-0.029-0.75-0.694-1.625-0.542-0.232 1.03-1.166 1.36-1.083 2.71zm0.542 2.17c0.721 1.328 1.634-0.976 2.166 0.542-0.781 0.843-2.181 1.068-1.625 3.249 4.215 0.35 1.533-8.96-0.541-3.79z"></path> <path d="m5.957 81.231c1.119-1.258 2.77 1.531 4.333 1.625-1.12 1.257-2.771-1.532-4.333-1.625z"></path> <path fill="#FFFFFF" d="m120.76 41.699c2.123 5.743-3.429 11.365-2.708 15.705-4.995 7.28-9.796 14.754-14.08 22.745-1.819 0.015-2.864-0.746-3.791-1.625 1.521-2.562 4.375-3.178 6.499-5.415 0.704-0.743 0.842-2.255 1.624-3.25 0.691-0.877 2.212-1.423 2.708-2.166 3.209-4.805 6.425-11.537 8.123-17.329 0.84-2.844 0.77-5.476 1.63-8.665z"></path> <path fill="#FFFFFF" d="m154.88 121.85c-2.079 1.35-4.06 2.799-7.04 3.25-1.522 0.684-4.32 3.26-5.415 1.083 3.73-1.87 8.52-2.67 12.46-4.33z"></path> <path fill="#FFFFFF" d="m94.227 172.21c-0.389 0.528-3.146-1.156-3.249-2.708 1.988 0 2.075 1.9 3.249 2.71z"></path> <path fill="#FFFFFF" d="m96.935 300.01c-5.183 0.09-3.154-1.93 0 0z"></path> <path fill="#FFFFFF" d="m36.824 130.51c-0.899 1.998-7.326 3.137-9.748 5.416-2.763-0.76-6.478 2.636-6.499 1.083 5.605-1.98 10.671-4.49 16.247-6.5z"></path> <path fill="#FFFFFF" d="m49.821 82.855c-2.168 1.622-1.405 6.177-3.791 7.582 0.454 0.628 0.714 1.452 0.542 2.708-2.491-4.549-6.846-7.234-10.29-10.831 2.337 0.379 5.209 4.894 9.206 5.416 1.829-1.984 0.041-5.151-0.542-7.04-2.122-6.89-5.42-13.625-8.665-20.579-1.027-2.203-1.783-9.52-2.166-12.456-0.973-7.446-1.132-15.123-1.625-23.828 2.494 9.862 1.763 20.124 3.249 29.785 1.869 12.134 8.616 21.068 14.082 29.243z"></path> <path fill="#FFFFFF" d="m121.85 38.449c0.44-1.122-0.02 0.286 0 0z"></path> <path fill="#FFFFFF" d="m93.686 55.237c0.614 1.538-2.431 4.054-3.249 5.957-1.77-2.693 2.786-3.697 3.249-5.957z"></path> <path fill="#FFFFFF" d="m56.32 66.609c0.436 0.287 0.879 0.565 1.625 0.542-0.44 1.873 1.011 2.286 0 3.249-0.997-0.472-1.9-2.913-2.708-0.542-1.036-0.382 0.656-2.541 1.083-3.249z"></path> <path fill="#FFFFFF" d="m91.52 69.858c0.614 0.103 0.301 0.543 0 0.542 1.23 1.543 2.092-1.843 4.332-1.083-0.798 1.729-4.108 0.946-3.249 4.333-1.544-0.262-1.555-2.056-2.166-3.25 0.629 0.088 0.963-0.12 1.083-0.542z"></path> <path fill="#FFFFFF" d="m94.769 81.231c-0.133-3.021-0.24-6.017 2.708-5.957 0.333 2.5-1.216 3.116-1.083 5.416 1.092-0.713 1.832-1.778 2.166-3.25 1.367 1.229-0.715 3.586-1.083 4.874 0.961 1.22 2.042-4.083 4.332-1.625-0.369 1.978-2.053 2.641-2.708 4.332-1.928-0.78-1.553-3.863-4.333-3.79z"></path> <path fill="#FFFFFF" d="m58.486 76.357c-0.416 1.217-1.499 1.219-3.249 2.166 1.479-0.872-0.793-1.817-1.083-0.542-1.327-1.187 2.237-2.063 4.332-1.624z"></path> <path fill="#FFFFFF" d="m73.649 85.563c0.199-0.921-0.422-1.021-1.083-1.083 0.926-3.952 8.866-3.155 10.831-4.332 1.131 2.054-4.562 1.922-5.957 3.249-0.244 1.508 2.952-0.424 2.708 1.083 0.524-0.151-3.774 1.234-6.499 1.083z"></path> <path fill="#FFFFFF" d="m67.692 87.188c-2.07-0.084-3.943 0.028-4.874 1.083-1.29-0.958 1.472-4.795-2.167-4.333 0.558-1.545 4.936-0.874 7.582-1.083 2.683-0.212 6.012-1.447 1.625 0-1.282 0.884-1.153 3.18-2.166 4.333z"></path> <path fill="#FFFFFF" d="m43.864 93.145c-0.683-0.724-1.627-1.063-0.542-2.166-1.355-0.092-1.695 0.832-2.166 1.625-1.31-0.492 1.228-1.598 0.542-3.249 2.034 0.313 2.527 2.167 3.249 3.791-0.346 1.82-2.597 1.735-4.874 1.625-0.27-2.547 2.671-1.877 3.791-1.626z"></path> <path fill="#FFFFFF" d="m41.698 102.89c-1.923 0.965-1.659 4.118-4.333 4.332 0.224-2.484-0.759-6.175 2.167-5.957 1.325 1.277-0.809 1.008-0.542 2.708 0.697 1.52 1.12-1.7 2.708-1.08z"></path> <path fill="#FFFFFF" d="m101.81 102.89c3.644 3.577 6.544 7.896 10.831 10.831-1.661 2.56-4.261-1.851-4.874-3.791-2.65-1.69-4.92-3.75-5.96-7.04z"></path> <path fill="#FFFFFF" d="m59.569 103.98c1.891 2.339 4.374-0.469 7.582 0-0.476 1.74 1.785 0.742 1.625 2.166-0.322 5.094-9.406 1.425-10.29 5.957-0.839-1.233-1.128-1.023-2.708-0.542v-3.25c3.141 1.192 2.123-1.251 3.791-0.542v-1.625c-2.213 1.284-1.649 0.915-3.249 1.083-1.809-1.86 3.183-1.5 3.249-3.26zm3.791 3.24v-1.625c-0.96 0.124-2.712-0.546-2.166 1.083 0.732 0.17 1.034 0.77 2.166 0.54z"></path> <path fill="#FFFFFF" d="m142.42 108.31c0.791 0.307-1.021 2.547-2.166 2.708 0.37-1.26 1.81-1.45 2.17-2.71z"></path> <path fill="#FFFFFF" d="m138.63 111.56c-1.575 3.483-8.037 6.762-13.538 8.123 4.44-2.78 10.17-4.28 13.54-8.12z"></path> <path fill="#FFFFFF" d="m112.1 124.55c-1.547-0.627 0.874-0.627 1.083 0-2.902-3.957-8.921-4.797-14.08-6.498-0.511-1.002 3.1-0.333 1.083-1.083 0.168-0.735 1.356-0.449 2.166-0.542-2.416-1.055-1.004-1.167 1.625-1.083 0.095-1.539-3.543 0.655-2.708-1.625 0.949 0.495 2.702 0.186 3.25 1.083 0.197-1.247 2.37-0.518 2.166-2.166 1.524 1.363 2.309 3.467 5.415 3.249-3.913 3.91 4.156 6.111 2.166 9.748-0.81-0.27-1.37-0.79-2.17-1.08z"></path> <path fill="#FFFFFF" d="m41.698 115.35c-9.375 3.442-18.914 6.719-31.951 6.499-2.864-0.938 3.271-0.436 4.332-0.542 8.362-0.84 19.379-3.92 27.619-5.96z"></path> <path fill="#FFFFFF" d="m112.64 116.97c2.992 2.243 4.191 6.278 4.332 11.373-1.289-1.239-1.759-3.295-1.625-5.957-0.49-2.04-4.39-2.9-2.7-5.41z"></path> <path fill="#FFFFFF" d="m93.144 120.76c-0.718-1.632 5.685 1.899 5.957-0.542 5.811 1.229 9.387 4.694 15.163 5.957 0.486 1.139 0.842 2.407 1.625 3.249-0.473 1.893-2.08 5.477-0.542 7.582-1.205 1.322-1.983 3.07-1.624 5.957-3.104 6.462-7.729 11.406-12.456 16.246-1.428 0.165-1.396-1.13-1.624-2.166-3.493-1.376-5.729-4.711-9.206-6.499-1.736-0.893-4.692-0.078-5.416-2.708 0.711 0.552 1.996 0.531 2.708 1.083 0.95-1.844-0.175-2.018-1.625-2.708 0.806-1.718 3.249-0.803 4.333-0.542 4.896 1.183 10.04 6.59 14.08 8.665 0.871-0.571-0.882-2.146 1.624-1.083-4.036-4.628-9.776-7.553-16.246-9.748 0.334-2.064-1.362-3.419-4.332-4.333 1.964-0.108 1.478-1.711 0.542-2.166 0.98-1.453 3.555-0.789 4.874-0.542 6.496 1.22 12.929 6.891 18.954 8.665 1.137-0.672-2.003-2.09 1.083-1.083-1.478-2.169-4.128-3.04-6.498-4.333-4.425-2.413-9.587-5.279-16.246-6.498 0.375-0.437 0.842-1.483 0-1.625 0.13-1.396 0.932 0.744 2.166 0-0.461-0.803-1.363-1.164-2.708-1.083 1.291-0.514 1.606-2.004 3.791-1.625-0.168-0.735-1.356-0.449-2.166-0.542 1.142-2.351 3.607 0.244 4.332 0.542 4.465 1.834 10.601 3.123 15.163 4.874 1.023 1.684 3.319 2.096 5.415 2.708-1.104-2.964-4.928-3.136-7.581-4.333-4.946-2.23-10.223-4.938-17.329-5.957 0.46-1.589 1.362 0.704 2.707 0 0.546-1.629-1.206-0.96-2.166-1.083 0.809-2.389 3.188 0.013 5.415-0.542-0.949-1.396-3.567-1.125-5.415-1.625 1.175-1.659 3.048 0.52 4.874 0-0.356-0.727-1.157-1.008-2.166-1.083 0.002-0.82 3.24-0.8 0.564-1.1z"></path> <path fill="#FFFFFF" d="m87.729 154.88c-1.547-0.627 0.874-0.627 1.083 0 0.406-1.85-2.2-0.688-1.625-2.708 5.393 0.364 8.354 7.783 12.456 5.957-0.069 0.971 0.663 1.142 0.541 2.166-4.368-0.478-6.736 3.598-10.289 2.166 2.898-1.503 0.711-5.616-2.166-5.957 0.812-1.79 1.324 1.125 2.708 0.542-0.424-1.2-1.891-1.36-2.704-2.17z"></path> <path d="m122.93 162.46c1.135-1.36 6.582 1.982 9.747 2.167-3.15 1.33-6.37-1.93-9.75-2.17z"></path> <path fill="#FFFFFF" d="m96.394 163c3.914-0.518 6.118 3.795 9.206 5.957 3.113 2.18 6.827 3.78 10.289 5.416-3.887-0.144-7.839-3.42-11.914-5.957-2.8-1.74-5.969-2.96-7.586-5.42z"></path> <path d="m133.76 165.71c2.48-0.7 4.18 2.27 0 0z"></path> <path fill="#FFFFFF" d="m68.775 176.54c-1.364 1.705-4.827 1.311-6.499 2.707 0.066-0.86 3.513-2.97 6.499-2.71z"></path> <path fill="#FFFFFF" d="m123.47 177.08c-1.43 1.34-3.14-1.56 0 0z"></path> <path fill="#FFFFFF" d="m69.317 189c-1.845 2.417-5.356 2.477-9.207 3.791-2.62 0.894-5.211 2.661-9.206 3.249 5.994-2.49 11.62-5.35 18.413-7.04z"></path> <path fill="#FFFFFF" d="m85.563 196.58c2.182 0.896 7.546 3.279 11.914 3.791-5.57 0.824-17.21-4.557-17.33 4.874-2.794-1.645 0.759-4.556 0.542-7.04 2.72 0.355 4.371-0.681 5.957 0 0.023-0.92-0.402-1.4-1.083-1.62z"></path> <path fill="#FFFFFF" d="m99.101 201.45c-0.908-1.058 4.19 0.229 4.874 1.083 3.139-0.25 4.874 0.902 7.582 1.083-3.79 1.08-8.79-1.31-12.459-2.16z"></path> <path fill="#FFFFFF" d="m115.35 222.57c-0.665 1.318-3.26 0.062-3.79-0.541h-4.874c2.43-1.51 6.28 0.2 8.66 0.54z"></path> <path fill="#FFFFFF" d="m80.689 235.57c-0.162 0.638-2.867 1.359-1.083 2.166 0.215 1.298-2.467-0.301-1.625 1.625-1.525-0.548 0.149-2.301 0-3.25 1.531 0.45 1.403-0.76 2.708-0.54z"></path> <path fill="#FFFFFF" d="m76.898 251.27c-0.675-1.701-1.583-3.756 0-4.874 1.569 2.041 2.413 4.808 5.415 5.415 1.128 0.83-3.751-0.67-5.415-0.55z"></path> <path fill="#FFFFFF" d="m105.06 273.48c1.122 0.322 3.558-0.669 3.791 0.542h-3.791c-1.08-0.49-1.08-1.82 0-0.54z"></path> <path fill="#FFFFFF" d="m75.815 283.22c-1.037-1.404 1.286-3.21 0-5.415h2.167c3.789 4.334 9.521 6.726 16.246 8.123-4.075 0.64-9.164-2.384-13.538-3.249-2.335 0.79-3.936 0.81-4.875 0.55zm5.415-1.62c-0.434-0.694-4.408-2.243-3.249-1.083 0.966 0.17 2.122 2.86 3.249 1.08z"></path> <path d="m77.981 280.52c-1.159-1.16 2.815 0.389 3.249 1.083-1.127 1.78-2.283-0.91-3.249-1.08z"></path> <path fill="#FFFFFF" d="m77.44 298.93c-0.153 2.499 1.775 2.918 3.249 3.79-2.387 2.512-3.582-1.514-4.332 0.542-0.154-2.149-0.356-4.391-0.542-7.582 4.429 0.831 6.811 0.385 10.831 1.625-1.536 1.11-8.509-1.73-9.206 1.63z"></path> <path fill="#FFFFFF" d="m87.729 298.39c-1.021-1.385 2.452 0.327 3.791 0-0.819 1.63-2.377-0.45-3.791 0z"></path> <path fill="#FFFFFF" d="m86.646 77.981c-2.552 0.878-4.952 1.907-8.123 2.167-0.902-1.076 0.049-0.689 0-2.167-4.293 4.87-12.294 2.796-19.496 4.874-1.599 0.471 1.256 0.811 0.542 2.166-1.789 0.309-3.319-2.408-2.708-2.708 0.606-1.451 2.38-0.812 0.542-3.25 8.374-1.916 20.433-0.146 27.077-3.791 1.523 0.103 2.307 0.944 2.166 2.709zm-21.662 2.708c0.087-0.377-0.189-3.152-0.542-1.625-0.475 2.062 0.291 2.713 0.542 1.625zm7.582-2.166c-0.038 0.007 0.034 0.503 0 0.542-2.571 2.938 2.601-1.001 0-0.542zm-10.831 2.708c1.508 0.868 1.498-2.339 0.542-2.167 0.121 1.025-0.61 1.195-0.542 2.167zm5.415-0.542c0.031-0.331 0.081-0.641 0.542-0.542-0.061-0.661-0.162-1.282-1.083-1.083 0.085 0.638-0.093 1.538 0.541 1.625z"></path> </g> <metadata></metadata></svg> 