<?xml version="1.0" encoding="UTF-8" standalone="no"?> <!-- Created with Inkscape (http://www.inkscape.org/) --> <svg xmlns:inkscape="http://www.inkscape.org/namespaces/inkscape" xmlns:rdf="http://www.w3.org/1999/02/22-rdf-syntax-ns#" xmlns="http://www.w3.org/2000/svg" xmlns:cc="http://creativecommons.org/ns#" xmlns:dc="http://purl.org/dc/elements/1.1/" xmlns:sodipodi="http://sodipodi.sourceforge.net/DTD/sodipodi-0.dtd" id="svg2160" sodipodi:docname="_svgclean2.svg" viewBox="0 0 996.2 881.26" sodipodi:version="0.32" inkscape:output_extension="org.inkscape.output.svg.inkscape" inkscape:version="0.48.3.1 r9886"><defs id="defs2162"><filter id="filter8407" height="1.707" width="1.1445" color-interpolation-filters="sRGB" y="-.35351" x="-.072265" inkscape:collect="always"><feGaussianBlur id="feGaussianBlur8409" stdDeviation="21.804124" inkscape:collect="always"></feGaussianBlur></filter><filter id="filter8445" height="1.4308" width="1.3596" color-interpolation-filters="sRGB" y="-.21539" x="-.17982" inkscape:collect="always"><feGaussianBlur id="feGaussianBlur8447" stdDeviation="49.908635" inkscape:collect="always"></feGaussianBlur></filter><filter id="filter3277" height="1.2415" width="1.2203" color-interpolation-filters="sRGB" y="-.12076" x="-.11013" inkscape:collect="always"><feGaussianBlur id="feGaussianBlur3279" stdDeviation="12.058788" inkscape:collect="always"></feGaussianBlur></filter><filter id="filter4268" height="1.3301" width="1.177" color-interpolation-filters="sRGB" y="-.16506" x="-.088475" inkscape:collect="always"><feGaussianBlur id="feGaussianBlur4270" stdDeviation="19.059473" inkscape:collect="always"></feGaussianBlur></filter><radialGradient id="radialGradient5419" gradientUnits="userSpaceOnUse" cy="645" cx="516" gradientTransform="matrix(1 0 0 .20442 0 513.15)" r="362.07" inkscape:collect="always"><stop id="stop8337" style="stop-color:#3b9c2a" offset="0"></stop><stop id="stop8339" style="stop-color:#3b9c2a;stop-opacity:0" offset="1"></stop></radialGradient><linearGradient id="linearGradient5421" y2="457.24" gradientUnits="userSpaceOnUse" x2="416.03" gradientTransform="translate(28)" y1="438.24" x1="242.76" inkscape:collect="always"><stop id="stop8324" style="stop-color:#eecd36" offset="0"></stop><stop id="stop8326" style="stop-color:#eecd36;stop-opacity:0" offset="1"></stop></linearGradient><linearGradient id="linearGradient5423" y2="682.86" gradientUnits="userSpaceOnUse" x2="674.16" gradientTransform="translate(16,-8)" y1="606.86" x1="298.84" inkscape:collect="always"><stop id="stop3375" style="stop-color:#82c54e" offset="0"></stop><stop id="stop3383" style="stop-color:#597a40;stop-opacity:.74902" offset=".25"></stop><stop id="stop3381" style="stop-color:#519919;stop-opacity:.49804" offset=".5"></stop><stop id="stop3377" style="stop-color:#82c54e;stop-opacity:0" offset="1"></stop></linearGradient><linearGradient id="linearGradient5425" y2="528.05" gradientUnits="userSpaceOnUse" x2="460.93" gradientTransform="translate(16,-8)" y1="683.35" x1="496.17" inkscape:collect="always"><stop id="stop5397" style="stop-color:#ad870d" offset="0"></stop><stop id="stop5399" style="stop-color:#ad870d;stop-opacity:0" offset="1"></stop></linearGradient><linearGradient id="linearGradient5427" y2="498.17" gradientUnits="userSpaceOnUse" x2="617.35" gradientTransform="translate(16,-8)" y1="456.17" x1="456.11" inkscape:collect="always"><stop id="stop5407" style="stop-color:#ffc300" offset="0"></stop><stop id="stop5409" style="stop-color:#ffc300;stop-opacity:0" offset="1"></stop></linearGradient><linearGradient id="linearGradient5429" y2="691.54" gradientUnits="userSpaceOnUse" x2="577.85" gradientTransform="translate(16,-8)" y1="597.19" x1="769.85" inkscape:collect="always"><stop id="stop3387" style="stop-color:#82c54e" offset="0"></stop><stop id="stop3393" style="stop-color:#1d4300;stop-opacity:.49804" offset=".5"></stop><stop id="stop3389" style="stop-color:#82c54e;stop-opacity:0" offset="1"></stop></linearGradient><linearGradient id="linearGradient5431" y2="205.4" gradientUnits="userSpaceOnUse" x2="843.74" gradientTransform="translate(28)" y1="205.4" x1="323.19" inkscape:collect="always"><stop id="stop4254" style="stop-color:#faf3f3" offset="0"></stop><stop id="stop4256" style="stop-color:#faf3f3;stop-opacity:0" offset="1"></stop></linearGradient><linearGradient id="linearGradient5433" y2="300.86" gradientUnits="userSpaceOnUse" x2="271.92" gradientTransform="matrix(.98672 0 0 .97976 33.123 .56281)" y1="300.86" x1="109.59" inkscape:collect="always"><stop id="stop9424" style="stop-color:#ffffff" offset="0"></stop><stop id="stop9426" style="stop-color:#ffffff;stop-opacity:0" offset="1"></stop></linearGradient><linearGradient id="linearGradient5435" y2="590.9" gradientUnits="userSpaceOnUse" x2="479.69" gradientTransform="translate(16,-8)" y1="678.9" x1="621.69" inkscape:collect="always"><stop id="stop4402" style="stop-color:#e7ab01" offset="0"></stop><stop id="stop4404" style="stop-color:#e7ab01;stop-opacity:0" offset="1"></stop></linearGradient></defs><g id="layer1" inkscape:label="Layer 1" inkscape:groupmode="layer" transform="translate(23.03 73.918)"><g id="g5305" transform="translate(18,4)"><path id="path8449" sodipodi:rx="333" sodipodi:ry="278" style="opacity:0.44;filter:url(#filter8445);fill:#ffbf06" sodipodi:type="arc" d="m452.27 36.196c179.16 34.707 290.68 184.08 249.11 333.64s-220.5 242.67-399.65 207.96c-179.16-34.7-290.68-184.08-249.11-333.64 41.483-149.24 219.78-242.33 398.67-208.15" sodipodi:open="true" transform="matrix(.69375 0 0 .89211 379.46 3.1229)" sodipodi:cy="307" sodipodi:cx="377" sodipodi:end="11.220559" sodipodi:start="4.9404104"></path><path id="path8411" sodipodi:rx="333" sodipodi:ry="278" style="opacity:0.44;filter:url(#filter8445);fill:#ffbf06" sodipodi:type="arc" d="m452.27 36.196c179.16 34.707 290.68 184.08 249.11 333.64s-220.5 242.67-399.65 207.96c-179.16-34.7-290.68-184.08-249.11-333.64 41.483-149.24 219.78-242.33 398.67-208.15" sodipodi:open="true" transform="matrix(.64013 0 0 .73386 7.5273 119.7)" sodipodi:cy="307" sodipodi:cx="377" sodipodi:end="11.220559" sodipodi:start="4.9404104"></path><path id="path8333" sodipodi:rx="362" sodipodi:ry="74" style="filter:url(#filter8407);fill:url(#radialGradient5419)" sodipodi:type="arc" d="m597.83 572.92c194.75 9.2385 315.99 49.001 270.8 88.812-45.194 39.811-239.71 64.595-434.46 55.357-194.75-9.2385-315.99-49.001-270.8-88.812 45.097-39.726 238.92-64.505 433.39-55.407" sodipodi:open="true" transform="translate(4,32)" sodipodi:cy="645" sodipodi:cx="516" sodipodi:end="11.220559" sodipodi:start="4.9404104"></path><path id="path2183" inkscape:connector-curvature="0" sodipodi:nodetypes="ccccc" style="fill-rule:evenodd;stroke:#000000;stroke-width:6.3142;fill:#f1f4c6" d="m237.82 295.11 50.63-17.98c13.77 137.43 121.75 203.77 250.18 286.88 31.19 57.59-70.79 100.96-85.28 52.25-117.5-87.49-224.84-179.32-215.53-321.15z"></path><path id="path7351" inkscape:connector-curvature="0" sodipodi:nodetypes="ccccc" style="fill-rule:evenodd;fill:url(#linearGradient5421)" d="m238.82 290.11 46.63-12.98c13.77 137.43 120.75 203.27 249.18 286.38 31.19 57.59-68.79 98.46-83.28 49.75-117.5-87.49-221.84-181.32-212.53-323.15z"></path><path id="path2187" inkscape:connector-curvature="0" sodipodi:nodetypes="cccccccccccccc" style="fill-rule:evenodd;stroke:#000000;stroke-width:6.3142;fill:url(#linearGradient5423)" d="m413 612c-18.87-9.79-35.76-47.32-57-24 1.39 22.27 19.07 28.27 36 35l-45-10c-25.62-29.98-61.64-35.55-87-18 3.72 24.95 22.94 54.39 70 46 21.12 2.64 76.83-18.39 53 15-9.89-9.35-21.45-3.61-34 11-12.45 12.89-1.85 14.26 12 14 19 11.99 28.6-4.21 40-15-5.29 16.02 2.26 16.62 10 17 8.04-6.99 13.4-14.37 3-24l25-2-26-45z"></path><path id="path2185" inkscape:connector-curvature="0" sodipodi:nodetypes="ccccccccc" style="fill-rule:evenodd;stroke:#000000;stroke-width:6.3142;fill:#e7ab01" d="m415.69 587.65c-11.73 77.13 46.34 89.45 119.77 87.52 41.8-17.32 45.95-48.92 43.76-82.92-32.81-26.68-79.06-119.71-128.99-76.01 9.7 9.57 19.2 18.99 13.82 34.55-7.24 9.31-21.42 4.75-34.54 2.31 9.58 6.21 12.97 29.54-8.55 16.92-0.07 10.48 4.84 14.75 10.85 17.63h-16.12z"></path><path id="path4416" inkscape:connector-curvature="0" sodipodi:nodetypes="ccccccccc" style="fill-rule:evenodd;fill:url(#linearGradient5425)" d="m415.69 587.65c-6.93 73.7 47.72 88.47 119.77 87.52 41.8-17.32 45.95-48.92 43.76-82.92-32.81-26.68-79.06-119.71-128.99-76.01 9.7 9.57 19.2 18.99 13.82 34.55-7.24 9.31-21.42 4.75-34.54 2.31 9.58 6.21 12.97 29.54-8.55 16.92-0.07 10.48 4.84 14.75 10.85 17.63h-16.12z"></path><path id="path2177" inkscape:connector-curvature="0" sodipodi:nodetypes="ccccc" style="fill-rule:evenodd;stroke:#000000;stroke-width:6.3142;fill:#f1f4c6" d="m560.79 272.09 99.05 11.52 11.51 306.34c-8.13 60.79-170.06 31.98-163.53-18.43l52.97-299.43z"></path><path id="path5403" inkscape:connector-curvature="0" sodipodi:nodetypes="ccccc" style="fill-rule:evenodd;fill:url(#linearGradient5427)" d="m564.68 272.09 95.16 11.52 11.51 306.34c-8.13 60.79-170.06 31.98-163.53-18.43 21.82-97.66 38.5-199.18 56.86-299.43z"></path><path id="path2181" inkscape:connector-curvature="0" sodipodi:nodetypes="ccc" style="fill-rule:evenodd;stroke:#000000;stroke-width:6.3142;fill:#e5522a" d="m147.59 403.67c128.05 37.1 205.55-6.76 266.33-77.44-190.44-252.81-258.51-170.25-266.33 77.44z"></path><path id="path2171" inkscape:connector-curvature="0" sodipodi:nodetypes="ccc" style="fill-rule:evenodd;stroke:#000000;stroke-width:6.3142;fill:#ed1212" d="m351.19 299.73c158.86-223.17 293.37-391.38 520.55 0-142.36 99.25-514.01 8.06-520.55 0z"></path><path id="path2189" inkscape:connector-curvature="0" sodipodi:nodetypes="cccccccccccccccccc" style="fill-rule:evenodd;stroke:#000000;stroke-width:6.3142;fill:url(#linearGradient5429)" d="m692 572c0.27-18.82-12.95-37.65 14.12-56.47l10.88-17.53 18 23c11.17 29.41-5.3 52.67-17 77 16.94-24.45 29.38-57.9 64-47 93.34-45.29 47.81-0.14 33 25-26.99 18.39-45.7 26.18-72 22l29 10c61.62 45.6-20.17 49.68-28.17 11.15l-11.83-13.15-11 14c21.03 15.41 80.44 46.38 84 46-3.63 4.68-13.28 16.69-39 14-15.81-2.16-37.59-16.04-56-39 15.25 14.28-4.94 43.7-20 21l14-45-12-45z"></path><path id="path2179" inkscape:connector-curvature="0" sodipodi:nodetypes="ccccccccc" style="fill-rule:evenodd;stroke:#000000;stroke-width:6.3142;fill:#f1ef1e" d="m512.42 527.76c-32.53 16.4-33.97 56.78-16.12 108.25 31.59 56.11 134.87 103.87 198.09 20.73 26.13-60.18-9.41-78.81-25.34-115.16-1.17 32.99-19.76 58.76-39.16 55.28-0.51-21.76-9.52-35.01-34.55-32.25-39.04-11.66-32.37-30.94-36.85-48.37-8.19 13.32-18.29 18.96-20.73 55.28l-25.34-43.76z"></path><path id="path11883" inkscape:connector-curvature="0" sodipodi:nodetypes="cc" style="stroke:#000000;stroke-width:1px;fill:none" d="m372 629c-26.03-4.06-54.35-0.69-90-24"></path><path id="path11885" inkscape:connector-curvature="0" sodipodi:nodetypes="cc" style="stroke:#000000;stroke-width:1px;fill:none" d="m388 661c-6.5 10.33-18.3 10.06-30 10"></path><path id="path11887" inkscape:connector-curvature="0" sodipodi:nodetypes="cc" style="stroke:#000000;stroke-width:1px;fill:none" d="m754 583c25.96-23.91 37.91-19.82 54-24"></path><path id="path3281" inkscape:connector-curvature="0" sodipodi:nodetypes="ccc" style="opacity:.856;filter:url(#filter4268);fill-rule:evenodd;fill:url(#linearGradient5431)" d="m354.73 299.02c158.86-220.33 289.83-384.37 517.01 0.71-142.36 99.25-510.48 7.35-517.01-0.71z"></path><path id="path14796" sodipodi:rx="38" sodipodi:ry="21" style="stroke-linejoin:round;stroke:#000000;stroke-width:3.78;stroke-linecap:round;fill:#fffad8" sodipodi:type="arc" d="m564.59 217.54c20.444 2.6217 33.171 13.906 28.426 25.203-4.7441 11.298-25.163 18.331-45.606 15.709-20.444-2.6217-33.171-13.906-28.426-25.203 4.7339-11.274 25.08-18.306 45.494-15.724" sodipodi:open="true" transform="matrix(.76645 -.64231 .64231 .76645 -64.014 330.71)" sodipodi:cy="238" sodipodi:cx="556" sodipodi:end="11.220559" sodipodi:start="4.9404104"></path><path id="path14800" sodipodi:rx="38" sodipodi:ry="21" style="stroke-linejoin:round;stroke:#000000;stroke-width:5.5595;stroke-linecap:round;fill:#fffad8" sodipodi:type="arc" d="m564.59 217.54c20.444 2.6217 33.171 13.906 28.426 25.203-4.7441 11.298-25.163 18.331-45.606 15.709-20.444-2.6217-33.171-13.906-28.426-25.203 4.7339-11.274 25.08-18.306 45.494-15.724" sodipodi:open="true" transform="matrix(.29559 -.24051 .76563 .94099 405.73 110.29)" sodipodi:cy="238" sodipodi:cx="556" sodipodi:end="11.220559" sodipodi:start="4.9404104"></path><path id="path14802" sodipodi:rx="38" sodipodi:ry="21" style="stroke-linejoin:round;stroke:#000000;stroke-width:4.092;stroke-linecap:round;fill:#fffad8" sodipodi:type="arc" d="m564.59 217.54c20.444 2.6217 33.171 13.906 28.426 25.203-4.7441 11.298-25.163 18.331-45.606 15.709-20.444-2.6217-33.171-13.906-28.426-25.203 4.7339-11.274 25.08-18.306 45.494-15.724" sodipodi:open="true" transform="matrix(.71357 0 0 1.1958 215.56 -107.08)" sodipodi:cy="238" sodipodi:cx="556" sodipodi:end="11.220559" sodipodi:start="4.9404104"></path><path id="path14804" sodipodi:rx="38" sodipodi:ry="21" style="stroke-linejoin:round;stroke:#000000;stroke-width:2.9866;stroke-linecap:round;fill:#fffad8" sodipodi:type="arc" d="m564.59 217.54c20.444 2.6217 33.171 13.906 28.426 25.203-4.7441 11.298-25.163 18.331-45.606 15.709-20.444-2.6217-33.171-13.906-28.426-25.203 4.7339-11.274 25.08-18.306 45.494-15.724" sodipodi:open="true" transform="matrix(.88412 .88632 -.58648 1.2238 332.31 -645.54)" sodipodi:cy="238" sodipodi:cx="556" sodipodi:end="11.220559" sodipodi:start="4.9404104"></path><path id="path14814" sodipodi:rx="38" sodipodi:ry="21" style="stroke-linejoin:round;stroke:#000000;stroke-width:5.1964;stroke-linecap:round;fill:#fffad8" sodipodi:type="arc" d="m564.59 217.54c20.444 2.6217 33.171 13.906 28.426 25.203-4.7441 11.298-25.163 18.331-45.606 15.709-20.444-2.6217-33.171-13.906-28.426-25.203 4.7339-11.274 25.08-18.306 45.494-15.724" sodipodi:open="true" transform="matrix(.66864 -.27041 .27506 .68014 148.07 88.003)" sodipodi:cy="238" sodipodi:cx="556" sodipodi:end="11.220559" sodipodi:start="4.9404104"></path><path id="path8451" inkscape:connector-curvature="0" sodipodi:nodetypes="ccc" style="opacity:0.804;filter:url(#filter3277);fill-rule:evenodd;fill:url(#linearGradient5433)" d="m151.13 401.95c126.35 36.34 202.82-6.63 262.79-75.88-187.91-247.69-255.08-166.8-262.79 75.88z"></path><path id="path14816" sodipodi:rx="38" sodipodi:ry="21" style="stroke-linejoin:round;stroke:#000000;stroke-width:5.5388;stroke-linecap:round;fill:#fffad8" sodipodi:type="arc" d="m564.59 217.54c20.444 2.6217 33.171 13.906 28.426 25.203-4.7441 11.298-25.163 18.331-45.606 15.709-20.444-2.6217-33.171-13.906-28.426-25.203 4.7339-11.274 25.08-18.306 45.494-15.724" sodipodi:open="true" inkscape:transform-center-x="20.793315" transform="matrix(.46067 .33419 -.33985 .7645 100.05 -136.23)" sodipodi:cy="238" sodipodi:cx="556" sodipodi:end="11.220559" sodipodi:start="4.9404104"></path><path id="path14818" sodipodi:rx="38" sodipodi:ry="21" style="stroke-linejoin:round;stroke:#000000;stroke-width:4.2563;stroke-linecap:round;fill:#fffad8" sodipodi:type="arc" d="m564.59 217.54c20.444 2.6217 33.171 13.906 28.426 25.203-4.7441 11.298-25.163 18.331-45.606 15.709-20.444-2.6217-33.171-13.906-28.426-25.203 4.7339-11.274 25.08-18.306 45.494-15.724" sodipodi:open="true" transform="matrix(.20655 -.68448 1.0561 .31869 -148.89 578.25)" sodipodi:cy="238" sodipodi:cx="556" sodipodi:end="11.220559" sodipodi:start="4.9404104"></path><path id="path14820" sodipodi:rx="38" sodipodi:ry="21" style="stroke-linejoin:round;stroke:#000000;stroke-width:6.8163;stroke-linecap:round;fill:#fffad8" sodipodi:type="arc" d="m564.59 217.54c20.444 2.6217 33.171 13.906 28.426 25.203-4.7441 11.298-25.163 18.331-45.606 15.709-20.444-2.6217-33.171-13.906-28.426-25.203 4.7339-11.274 25.08-18.306 45.494-15.724" sodipodi:open="true" transform="matrix(.41229 0 0 .7459 -13.934 38.004)" sodipodi:cy="238" sodipodi:cx="556" sodipodi:end="11.220559" sodipodi:start="4.9404104"></path><path id="path14822" sodipodi:rx="38" sodipodi:ry="21" style="stroke-linejoin:round;stroke:#000000;stroke-width:8.089;stroke-linecap:round;fill:#fffad8" sodipodi:type="arc" d="m564.59 217.54c20.444 2.6217 33.171 13.906 28.426 25.203-4.7441 11.298-25.163 18.331-45.606 15.709-20.444-2.6217-33.171-13.906-28.426-25.203 4.7339-11.274 25.08-18.306 45.494-15.724" sodipodi:open="true" transform="matrix(.3273 -.054238 .29061 .61904 423.16 108.35)" sodipodi:cy="238" sodipodi:cx="556" sodipodi:end="11.220559" sodipodi:start="4.9404104"></path><path id="path14824" sodipodi:rx="38" sodipodi:ry="21" style="stroke-linejoin:round;stroke:#000000;stroke-width:5.3431;stroke-linecap:round;fill:#fffad8" sodipodi:type="arc" d="m564.59 217.54c20.444 2.6217 33.171 13.906 28.426 25.203-4.7441 11.298-25.163 18.331-45.606 15.709-20.444-2.6217-33.171-13.906-28.426-25.203 4.7339-11.274 25.08-18.306 45.494-15.724" sodipodi:open="true" transform="matrix(.31548 .24407 -.68552 1.0561 524.05 -177.28)" sodipodi:cy="238" sodipodi:cx="556" sodipodi:end="11.220559" sodipodi:start="4.9404104"></path><path id="path2196" style="stroke:#000000;stroke-width:1px;fill:none" inkscape:connector-curvature="0" d="m568.25 342.28-20.51 13.79"></path><path id="path2198" style="stroke:#000000;stroke-width:1px;fill:none" inkscape:connector-curvature="0" d="m561.18 342.28-12.02 6.72"></path><path id="path2200" style="stroke:#000000;stroke-width:1px;fill:none" inkscape:connector-curvature="0" d="m572.49 344.05-25.45 16.97"></path><path id="path2202" style="stroke:#000000;stroke-width:1px;fill:none" inkscape:connector-curvature="0" d="m578.5 345.11-32.52 21.92"></path><path id="path2204" style="stroke:#000000;stroke-width:1px;fill:none" inkscape:connector-curvature="0" d="m587.34 345.82-42.07 30.05"></path><path id="path2206" style="stroke:#000000;stroke-width:1px;fill:none" inkscape:connector-curvature="0" d="m597.6 346.52-54.45 41.02"></path><path id="path2212" style="stroke:#000000;stroke-width:1px;fill:none" inkscape:connector-curvature="0" d="m609.26 346.52-68.94 52.68"></path><path id="path2214" style="stroke:#000000;stroke-width:1px;fill:none" inkscape:connector-curvature="0" d="m619.87 347.59-82.38 65.4"></path><path id="path2222" style="stroke:#000000;stroke-width:1px;fill:none" inkscape:connector-curvature="0" d="m551.99 341.93 69.65 11.67"></path><path id="path2224" style="stroke:#000000;stroke-width:1px;fill:none" inkscape:connector-curvature="0" d="m551.28 344.76 71.77 13.43"></path><path id="path2226" style="stroke:#000000;stroke-width:1px;fill:none" inkscape:connector-curvature="0" d="m549.87 347.94 72.47 14.49"></path><path id="path2228" style="stroke:#000000;stroke-width:1px;fill:none" inkscape:connector-curvature="0" d="m585.93 345.82 36.06 3.89"></path><path id="path2230" style="stroke:#000000;stroke-width:1px;fill:none" inkscape:connector-curvature="0" d="m549.51 351.83 70.36 15.55"></path><path id="path2232" style="stroke:#000000;stroke-width:1px;fill:none" inkscape:connector-curvature="0" d="m549.16 358.19 64.35 18.39"></path><path id="path2234" style="stroke:#000000;stroke-width:1px;fill:none" inkscape:connector-curvature="0" d="m547.04 365.26 57.63 21.57"></path><path id="path2236" style="stroke:#000000;stroke-width:1px;fill:none" inkscape:connector-curvature="0" d="m545.62 371.63 32.18 15.91"></path><path id="path2238" style="stroke:#000000;stroke-width:1px;fill:none" inkscape:connector-curvature="0" d="m544.21 383.65 24.04 12.37"></path><path id="path2240" style="stroke:#000000;stroke-width:1px;fill:none" inkscape:connector-curvature="0" d="m542.79 392.84 13.79 11.67"></path><path id="path2242" style="stroke:#000000;stroke-width:1px;fill:none" inkscape:connector-curvature="0" d="m540.67 404.86 4.95 4.24"></path><path id="path2244" style="stroke:#000000;stroke-width:1px;fill:none" inkscape:connector-curvature="0" d="m271.5 418-3.5 6"></path><path id="path2246" style="stroke:#000000;stroke-width:1px;fill:none" inkscape:connector-curvature="0" d="m277.5 415.75-8 13.5"></path><path id="path2248" style="stroke:#000000;stroke-width:1px;fill:none" inkscape:connector-curvature="0" d="m283 414.75-10.75 19"></path><path id="path2250" style="stroke:#000000;stroke-width:1px;fill:none" inkscape:connector-curvature="0" d="m288.5 414.25-12.5 24.5"></path><path id="path2256" style="stroke:#000000;stroke-width:1px;fill:none" inkscape:connector-curvature="0" d="m296.75 411.5-17.5 33"></path><path id="path2258" style="stroke:#000000;stroke-width:1px;fill:none" inkscape:connector-curvature="0" d="m303.75 409.5-19.5 42.5"></path><path id="path2260" style="stroke:#000000;stroke-width:1px;fill:none" inkscape:connector-curvature="0" d="m266.25 418.5 39.25 8.25"></path><path id="path2262" style="stroke:#000000;stroke-width:1px;fill:none" inkscape:connector-curvature="0" d="m276.75 416.5 29.75 4.75"></path><path id="path2264" style="stroke:#000000;stroke-width:1px;fill:none" inkscape:connector-curvature="0" d="m290.5 413.5 17.5 2"></path><path id="path2266" inkscape:connector-curvature="0" sodipodi:nodetypes="cc" style="stroke:#000000;stroke-width:1px;fill:none" d="m265.5 420.5 35.5 13.25"></path><path id="path2268" style="stroke:#000000;stroke-width:1px;fill:none" inkscape:connector-curvature="0" d="m268.5 426.5 30 15.25"></path><path id="path2270" style="stroke:#000000;stroke-width:1px;fill:none" inkscape:connector-curvature="0" d="m275.5 437.75 19.25 10.5"></path><path id="path2272" style="stroke:#000000;stroke-width:1px;fill:none" inkscape:connector-curvature="0" d="m511.68 661.54-8.48 10.43"></path><path id="path2274" style="stroke:#000000;stroke-width:1px;fill:none" inkscape:connector-curvature="0" d="m506.02 654.82-13.96 16.8"></path><path id="path2276" style="stroke:#000000;stroke-width:1px;fill:none" inkscape:connector-curvature="0" d="m502.86 648.92-19.62 22.1"></path><path id="path2278" inkscape:connector-curvature="0" sodipodi:nodetypes="cc" style="stroke:#000000;stroke-width:1px;fill:none" d="m499.98 646.61-31.64 23.69"></path><path id="path2280" style="stroke:#000000;stroke-width:1px;fill:none" inkscape:connector-curvature="0" d="m516.81 666.49-5.48 6.19"></path><path id="path2282" style="stroke:#000000;stroke-width:1px;fill:none" inkscape:connector-curvature="0" d="m509.03 658.71-10.61 12.91"></path><path id="path2284" inkscape:connector-curvature="0" sodipodi:nodetypes="cc" style="stroke:#000000;stroke-width:1px;fill:none" d="m515.18 663.74-7.63 9.2"></path><path id="path2286" inkscape:connector-curvature="0" sodipodi:nodetypes="cc" style="stroke:#000000;stroke-width:1px;fill:none" d="m519.46 668.79-3.05 4.13"></path><path id="path2288" inkscape:connector-curvature="0" sodipodi:nodetypes="cc" style="stroke:#000000;stroke-width:1px;fill:none" d="m498.32 644.27-19.62 11.84"></path><path id="path2300" style="stroke:#000000;stroke-width:1px;fill:none" inkscape:connector-curvature="0" d="m522.25 671.25c-0.14 0.26-1.07 1.39-1.37 2"></path><path id="path2302" inkscape:connector-curvature="0" sodipodi:nodetypes="ccc" style="stroke:#000000;stroke-width:1px;fill:none" d="m492.75 671.12c-2.25-3.14-4.94-5.96-7.63-8.74-0.27-0.28-8.98-10.58-7.26-8.32"></path><path id="path2304" inkscape:connector-curvature="0" sodipodi:nodetypes="cc" style="stroke:#000000;stroke-width:1px;fill:none" d="m498.12 671.38-15.41-20.45"></path><path id="path2306" inkscape:connector-curvature="0" sodipodi:nodetypes="cc" style="stroke:#000000;stroke-width:1px;fill:none" d="m502.88 671.5-15.32-20.28"></path><path id="path2308" inkscape:connector-curvature="0" sodipodi:nodetypes="cc" style="stroke:#000000;stroke-width:1px;fill:none" d="m508.25 671.75-14.99-20.92"></path><path id="path2310" inkscape:connector-curvature="0" sodipodi:nodetypes="cc" style="stroke:#000000;stroke-width:1px;fill:none" d="m511.5 671.75-13.75-20.25"></path><path id="path2312" inkscape:connector-curvature="0" sodipodi:nodetypes="cc" style="stroke:#000000;stroke-width:1px;fill:none" d="m515.5 673-14.5-21.62"></path><path id="path2314" inkscape:connector-curvature="0" sodipodi:nodetypes="cc" style="stroke:#000000;stroke-width:1px;fill:none" d="m517.62 672.25-6.62-11.13"></path><path id="path2316" inkscape:connector-curvature="0" sodipodi:nodetypes="cc" style="stroke:#000000;stroke-width:1px;fill:none" d="m520.5 672.75-3.5-6.13"></path><path id="path2318" style="stroke:#000000;stroke-width:1px;fill:none" inkscape:connector-curvature="0" d="m521.88 672.12-1.76-2.37"></path><path id="path2320" inkscape:connector-curvature="0" sodipodi:nodetypes="cc" style="stroke:#000000;stroke-width:1px;fill:none" d="m487.12 670.25-18.43-18.59"></path><path id="path2342" style="stroke:#000000;stroke-width:1px;fill:none" inkscape:connector-curvature="0" d="m651 348 5 114"></path><path id="path2350" style="stroke:#000000;stroke-width:1px;fill:none" inkscape:connector-curvature="0" d="m657 470 3 81"></path><path id="path2352" inkscape:connector-curvature="0" sodipodi:nodetypes="cc" style="stroke:#000000;stroke-width:1px;fill:none" d="m650 573 2-59"></path><path id="path2362" style="stroke:#000000;stroke-width:1px;fill:none" inkscape:connector-curvature="0" d="m637 585 2-34"></path><path id="path2366" style="stroke:#000000;stroke-width:1px;fill:none" inkscape:connector-curvature="0" d="m326 409 23 28"></path><path id="path2368" style="stroke:#000000;stroke-width:1px;fill:none" inkscape:connector-curvature="0" d="m336 435 55 55"></path><path id="path2372" style="stroke:#000000;stroke-width:1px;fill:none" inkscape:connector-curvature="0" d="m393 475 41 38"></path><path id="path2374" style="stroke:#000000;stroke-width:1px;fill:none" inkscape:connector-curvature="0" d="m430 521 26 21"></path><path id="path3395" inkscape:connector-curvature="0" sodipodi:nodetypes="cc" style="stroke:#000000;stroke-width:1px;fill:none" d="m716 501c1.79 21.63 9.12 41.41-4 68"></path><path id="path3399" inkscape:connector-curvature="0" sodipodi:nodetypes="cc" style="stroke:#000000;stroke-width:1px;fill:none" d="m746 655c20.69 9.4 40.58 16.41 56 10"></path><path id="path3401" style="stroke:#000000;stroke-width:1px;fill:none" inkscape:connector-curvature="0" d="m642 347 2 70"></path><path id="path3413" inkscape:connector-curvature="0" sodipodi:nodetypes="ccccccccc" style="fill-rule:evenodd;fill:url(#linearGradient5435)" d="m512.42 527.76c-32.53 16.4-33.97 56.78-16.12 108.25 31.59 56.11 133.46 100.69 196.67 17.55 20.01-59.46-3.5-64.6-22.15-102.43-3.7 31.61-19.72 47.75-43.76 49.62-0.11-21.83-2.3-36.47-32.78-32.96-39.04-11.66-31.31-34.12-35.79-51.55-8.19 13.32-18.29 18.96-20.73 55.28l-25.34-43.76z"></path><path id="path5253" style="stroke:#000000;stroke-width:1px;fill:none" inkscape:connector-curvature="0" d="m530 537 8-68"></path><path id="path5255" style="stroke:#000000;stroke-width:1px;fill:none" inkscape:connector-curvature="0" d="m540 525 4-36"></path><path id="path5257" style="stroke:#000000;stroke-width:1px;fill:none" inkscape:connector-curvature="0" d="m408 569-40-38"></path><path id="path5259" style="stroke:#000000;stroke-width:1px;fill:none" inkscape:connector-curvature="0" d="m388 537 14 14"></path><path id="path5265" inkscape:connector-curvature="0" sodipodi:nodetypes="cc" style="stroke:#000000;stroke-width:1px;fill:none" d="m580 681c40.32-4.7 73.63-15.4 106-36"></path><path id="path5267" inkscape:connector-curvature="0" sodipodi:nodetypes="cc" style="stroke:#000000;stroke-width:1px;fill:none" d="m608 686c25.31-1.72 48.02-9.95 68-25"></path><path id="path5269" inkscape:connector-curvature="0" sodipodi:nodetypes="cc" style="stroke:#000000;stroke-width:1px;fill:none" d="m626 691c21.73-3.13 32.63-11.68 44-20"></path><path id="path5271" inkscape:connector-curvature="0" sodipodi:nodetypes="cc" style="stroke:#000000;stroke-width:1px;fill:none" d="m684 637c-15.48 15.58-33.96 16.19-52 19"></path><path id="path5277" inkscape:connector-curvature="0" sodipodi:nodetypes="cc" style="stroke:#000000;stroke-width:1px;fill:none" d="m662 173c16.06 7.85 29.4 23.83 50.61 16.22"></path><path id="path5279" inkscape:connector-curvature="0" sodipodi:nodetypes="cc" style="stroke:#000000;stroke-width:1px;fill:none" d="m579.17 163.24c6.68-11.19 18.94-18.21 37.19-16.58"></path><path id="path5281" inkscape:connector-curvature="0" sodipodi:nodetypes="cc" style="stroke:#000000;stroke-width:1px;fill:none" d="m536 241c15.27-7.33 17.29-14.67 24-22"></path><path id="path5283" inkscape:connector-curvature="0" sodipodi:nodetypes="cc" style="stroke:#000000;stroke-width:1px;fill:none" d="m651.64 232.76c8.19 8.64 22.04 18.65 33.07 9.63"></path><path id="path5285" inkscape:connector-curvature="0" sodipodi:nodetypes="cc" style="stroke:#000000;stroke-width:1px;fill:none" d="m572.76 122.24c12.9 1.05 25.71 1.56 36.77-8.49"></path><path id="path5287" inkscape:connector-curvature="0" sodipodi:nodetypes="cc" style="stroke:#000000;stroke-width:1px;fill:none" d="m694.38 197.9c9.8 3.29 18.44 4.65 22.63-1.41"></path><path id="path5289" inkscape:connector-curvature="0" sodipodi:nodetypes="cc" style="stroke:#000000;stroke-width:1px;fill:none" d="m497.8 193.66c-8.48 5.47-16.97-5.05-25.45-14.14"></path><path id="path5291" inkscape:connector-curvature="0" sodipodi:nodetypes="cc" style="stroke:#000000;stroke-width:1px;fill:none" d="m496.39 202.14c-6.13 3.31-12.26-0.12-18.39-4.24"></path><path id="path5293" inkscape:connector-curvature="0" sodipodi:nodetypes="cc" style="stroke:#000000;stroke-width:1px;fill:none" d="m593.97 139.92c8.16-1.38 19.35-0.53 31.11 4.24"></path><path id="path5295" inkscape:connector-curvature="0" sodipodi:nodetypes="cc" style="stroke:#000000;stroke-width:1px;fill:none" d="m217.79 311.04c17.04-5.41 33.9-10.97 32.53-31.12"></path><path id="path5299" inkscape:connector-curvature="0" sodipodi:nodetypes="cc" style="stroke:#000000;stroke-width:1px;fill:none" d="m222.03 315.28c9.24-1.13 18.48-2.26 24.04-7.07"></path><path id="path5301" inkscape:connector-curvature="0" sodipodi:nodetypes="cc" style="stroke:#000000;stroke-width:1px;fill:none" d="m257.39 203.56c15.95-3.62 38.93 2.73 43.84 21.21"></path></g></g><metadata id="metadata157"></metadata></svg> 