<?xml version="1.0" encoding="UTF-8" standalone="no"?> <!-- Created with Inkscape (http://www.inkscape.org/) --> <svg xmlns:dc="http://purl.org/dc/elements/1.1/" xmlns:inkscape="http://www.inkscape.org/namespaces/inkscape" xmlns:xlink="http://www.w3.org/1999/xlink" xmlns:sodipodi="http://sodipodi.sourceforge.net/DTD/sodipodi-0.dtd" xmlns:cc="http://creativecommons.org/ns#" xmlns:rdf="http://www.w3.org/1999/02/22-rdf-syntax-ns#" xmlns="http://www.w3.org/2000/svg" xmlns:svg="http://www.w3.org/2000/svg" xmlns:ns1="http://sozi.baierouge.fr" id="svg2" sodipodi:modified="TRUE" viewBox="0 0 252.26 251.88" sodipodi:docbase="/home/gioppo/Disegni" inkscape:export-ydpi="90" inkscape:export-xdpi="90" inkscape:output_extension="org.inkscape.output.svg.inkscape" sodipodi:docname="Gioppino_Basketball.svg" inkscape:export-filename="/home/gioppo/Disegni/basketball2.png" inkscape:version="0.46" sodipodi:version="0.32"><defs id="defs4"><radialGradient id="radialGradient2197" gradientUnits="userSpaceOnUse" cy="386" cx="362.18" gradientTransform="matrix(1.1377 .88039 -.61106 .78967 185.99 -237.58)" r="126.13" inkscape:collect="always"><stop id="stop2191" style="stop-color:rgb(255, 213, 42)" offset="0"></stop><stop id="stop2193" style="stop-color:rgb(255, 127, 42)" offset="1"></stop></radialGradient></defs><g id="layer1" inkscape:label="Livello 1" inkscape:groupmode="layer" transform="translate(-274.92 -319.6)"><path id="path2236" style="stroke:#000000;stroke-width:4.9243;fill:url(#radialGradient2197)" d="m290.08 500.01c-30.11-61.16-4.84-135.2 56.42-165.27 61.25-30.07 135.41-4.83 165.52 56.33s4.84 135.2-56.42 165.27c-61.2 30.03-135.27 4.89-165.44-56.18"></path><path id="path9163" style="stroke:#000000;stroke-width:.73246px;fill:none" d="m277.39 430.72z"></path><path id="path9165" sodipodi:nodetypes="cc" style="stroke:#000000;stroke-width:4.3947;fill:none" d="m278.66 433.19c19.45-47.33 235.47-0.82 244.77 24.69"></path><path id="path10136" sodipodi:nodetypes="cc" style="stroke:#000000;stroke-width:4.3947;fill:none" d="m430.85 324.55c104 36.62 55.8 231.28-41.85 243.21"></path><path id="path12150" sodipodi:nodetypes="cc" style="stroke:#000000;stroke-width:4.3947;fill:none" d="m349.68 333.19c59.19 4.94 98.08 93.83 161.07 61.73"></path><path id="path13121" sodipodi:nodetypes="cc" style="stroke:#000000;stroke-width:4.3947;fill:none" d="m295.15 510.97c84.97 12.76 197.85-105.35 205.46 8.64"></path></g><metadata></metadata></svg> 