<?xml version="1.0" encoding="UTF-8" standalone="no"?> <!-- Generator: Adobe Illustrator 10.0, SVG Export Plug-In . SVG Version: 3.0.0 Build 77) --> <svg xmlns:rdf="http://www.w3.org/1999/02/22-rdf-syntax-ns#" xmlns="http://www.w3.org/2000/svg" xmlns:x="http://ns.adobe.com/Extensibility/1.0/" xmlns:dc="http://purl.org/dc/elements/1.1/" xmlns:i="http://ns.adobe.com/AdobeIllustrator/10.0/" xmlns:cc="http://web.resource.org/cc/" xmlns:xlink="http://www.w3.org/1999/xlink" xmlns:a="http://ns.adobe.com/AdobeSVGViewerExtensions/3.0/" xmlns:graph="http://ns.adobe.com/Graphs/1.0/" xmlns:svg="http://www.w3.org/2000/svg" xmlns:inkscape="http://www.inkscape.org/namespaces/inkscape" xmlns:sodipodi="http://sodipodi.sourceforge.net/DTD/sodipodi-0.dtd" xmlns:ns1="http://sozi.baierouge.fr" i:rulerOrigin="0 0" i:viewOrigin="206 462" i:pageBounds="0 792 612 0" viewBox="0 0 199.115 133.234" overflow="visible"><g id="Layer_1" i:layer="yes" i:rgbTrio="#4F008000FFFF" i:dimmedPercent="50"><g stroke-miterlimit="10" stroke="#000000" stroke-width=".036" clip-rule="evenodd" fill-rule="evenodd"><path d="m190.53 67.986c-5.652-3.637-11.627-7.057-18.215-10.405-6.66-3.456-15.338-6.948-21.168-9.648-5.941-2.736-10.225-4.464-13.824-6.732-3.602-2.412-5.797-5.868-7.85-7.308-2.195-1.404-3.852-1.872-5.111-1.26-4.896-4.392-9.828-7.596-14.939-10.044-5.184-2.448-10.26-3.852-15.66-4.356-2.016-1.476-4.464-3.42-7.488-5.832-3.096-2.52-7.812-6.732-10.548-8.748-2.88-2.16-3.96-3.42-6.012-3.636-2.16-0.216-4.968 0.828-6.048 2.16-1.116 1.152-1.044 2.844-0.18 4.932-6.336 1.512-10.764 3.096-13.284 4.752-2.628 1.62-3.204 3.312-2.016 5.076-2.772 0.252-5.328 0.864-7.812 1.836-2.628 0.936-5.472 2.34-7.128 3.636-1.62 1.152-1.08 2.196-2.556 3.672-1.62 1.404-5.58 3.132-6.732 4.896-1.224 1.692-1.404 3.456-0.54 5.292-3.024 0.936-5.508 2.16-7.848 3.816-2.412 1.548-4.824 3.96-5.832 5.832-1.008 1.836-1.008 3.6 0 5.292-1.944 0.792-3.456 1.728-4.932 3.096-1.548 1.332-3.312 3.096-3.636 4.752-0.324 1.548 0.288 3.06 1.836 4.536-1.368 1.512-2.088 3.168-2.556 5.111-0.576 1.873-0.576 4.068 0 6.193 0.612 2.051 1.872 4.248 3.636 6.012 1.728 1.584 4.788 2.916 6.552 3.852 1.692 0.973 1.98 1.619 3.492 1.801 1.404 0.107 2.988-0.504 4.896-1.441 0.108 0.613 1.296 1.908 3.276 4.176 1.98 2.16 5.22 4.824 8.748 9.109 3.384 4.248 6.732 11.52 11.844 16.416 5.076 4.752 11.016 8.928 18.252 12.383l30.6-1.619c-4.212 1.332-6.048 2.412-5.652 3.096 0.324 0.611 5.832 0.324 8.208 1.08 2.304 0.684 1.476 3.133 5.832 3.455 4.285 0.182 18.503-0.684 19.873-1.619 1.152-1.08-10.691-2.881-12.205-4.031-1.475-1.152-0.324-2.053 3.457-2.701 7.379-0.072 14.473-0.324 21.672-0.756 7.164-0.504 14.004-1.115 20.951-1.98-4.5 0.865-6.516 1.693-6.191 2.34 0.396 0.541 6.049 0.9 8.209 1.477 1.943 0.613 2.195 2.629 3.814 2.016 1.584-0.684 3.313-2.807 5.473-6.227 1.836 0.287 5.473 0 10.764-0.721 5.328-0.793 12.168-2.016 20.953-3.816 0.863-2.051 1.043-4.787 0.539-8.207-0.576-3.492-1.801-7.525-3.816-12.385 2.881-2.195 4.752-4.572 5.473-7.127 0.576-2.629-0.217-6.014-1.115-8.354-0.865-2.412-2.09-4.428-3.816-6.047 2.16-0.648 2.951-1.549 2.375-2.701-0.66-1.259-2.53-2.626-5.99-4.39z" i:knockout="Off"></path><path d="m194.88 72.559c-1.008-0.9-2.088-1.514-3.096-1.838-1.115-0.395-2.16-0.467-3.275-0.359-6.588-0.359-13.5-0.359-21.133 0-7.703 0.324-16.379 1.225-24.227 2.016-7.885 0.576-15.625 1.836-22.248 1.98-6.732 0.037-13.141-1.043-17.676-1.439-4.537-0.576-7.093-1.584-9.469-1.477-2.484 0.072-2.952 1.26-5.292 2.016-2.52 0.721-4.824 1.225-9.288 2.197-4.68 0.898-12.924 2.303-17.496 3.096-4.572 0.539-7.2 0.648-9.288 0.9-2.16 0.287-1.656 1.008-3.492 0.898-1.908-0.252-4.644-1.043-7.812-1.799-3.384-0.756-7.272-1.477-11.664-2.736-4.392-1.477-10.44-4.355-14.4-5.293-4.032-0.936-7.524-0.898-9.648-0.18-2.196 0.576-3.024 2.809-3.312 4.176-0.324 1.369 0.216 2.846 1.476 4.033 1.152 0.936 4.14 1.691 5.652 2.555 1.44 0.973 2.16 2.377 3.276 3.098 0.972 0.646 1.872 0.898 3.096 0.898 1.152-0.07 2.592-0.539 4.176-1.26 1.224 1.729 2.808 3.492 4.752 5.438 1.836 1.799 5.004 3.742 6.732 5.832 1.62 2.016 1.656 4.104 3.312 6.406 1.548 2.232 4.716 5.258 6.192 7.273 1.368 1.979 1.044 3.131 2.34 4.572 1.296 1.332 3.708 2.158 5.292 3.455 1.404 1.152 1.152 2.377 3.276 3.816 2.088 1.404 6.66 3.959 9.288 4.752 2.52 0.576 3.888-0.324 6.048-0.359 1.944 0.035 2.268 0.539 6.372 0.539 4.212-0.145 10.152-0.684 18.396-1.477-0.108-1.547-1.008-2.34-2.556-2.916-1.62-0.467-3.456-0.395-6.912-0.18-3.564 0-10.044 0.648-14.04 0.541-4.104-0.109-7.344 0.07-10.008-1.26-2.736-1.477-4.176-5.186-5.832-7.094-1.692-1.871-3.204-3.383-4.392-4.391-1.26-1.189-2.16-1.117-3.276-2.557-1.296-1.549-2.916-4.645-4.176-6.371-1.332-1.908-2.448-2.521-3.492-4.178-1.224-1.727-2.772-3.779-3.096-5.471-0.324-1.801-1.584-3.6 1.476-4.572 3.024-0.973 9.288-0.252 16.56-0.9 7.236-0.828 20.088-2.844 26.46-3.275 6.192-0.361 6.66 1.439 10.728 1.08 3.996-0.469 9.54-3.348 13.141-3.637 3.383-0.396 3.959 1.439 7.992 1.621 3.996 0.18 8.639 0.035 16.416-0.721 7.848-0.863 21.887-3.744 29.879-4.355 7.668-0.613 11.592 0.432 16.775 0.359 5.258-0.359 10.98-1.619 14.4-1.836 3.205-0.217 3.889 0.9 5.113 0.721 1.2-0.25 1.81-1.078 1.99-2.337z" i:knockout="Off" fill="#FFFFFF"></path><path d="m2.25 69.246c0.288-1.621 0.612-2.701 1.116-3.636 0.396-0.9 1.26-1.44 1.62-1.62 0.252-0.288 0.252-0.288 0 0-2.268-1.764-3.132-3.42-2.736-5.112 0.396-1.728 3.6-3.744 5.292-4.932 1.656-1.26 3.024-2.052 4.392-2.376-0.972-1.584-1.332-2.988-0.936-4.356 0.216-1.404 0.756-2.124 3.132-3.816 2.34-1.836 6.084-3.888 11.088-6.588-0.9-1.98-0.972-3.42-0.36-4.716 0.576-1.152 2.52-1.836 4.032-2.736 1.512-1.188 3.744-2.592 4.896-3.672 1.008-1.08 0.432-1.692 1.476-2.52 0.936-0.936 1.98-1.8 4.536-2.736 2.592-0.936 5.94-1.908 10.584-2.916-1.332-1.692-1.404-2.988-0.36-4.032 0.936-1.116 3.96-1.476 6.552-2.34 2.52-1.008 5.544-1.908 8.928-3.132-0.612-1.692-0.864-3.024-0.36-3.996 0.468-1.08 1.584-1.8 2.916-2.016 1.116-0.324 2.556-0.324 4.176 0.576 1.656 0.828 3.492 2.34 5.652 4.536 5.904 5.58 10.548 9.324 14.22 11.664 3.456 2.16 4.464 0.828 7.308 1.836 2.844 0.828 5.905 1.656 10.008 3.996 4.068 2.304 8.928 5.688 14.58 10.008 1.26-0.252 2.592 0 3.996 0.756 1.332 0.72 2.52 2.268 4.391 3.816 1.801 1.512 3.492 3.456 6.732 5.292 3.133 1.62 6.984 2.52 12.385 4.932 5.291 2.484 14.076 6.624 19.691 9.648 5.58 2.844 11.629 6.048 13.68 7.668 1.945 1.44 1.332 1.224-1.836 1.44-3.311 0.145-11.123-0.469-17.316-0.18-6.371 0.215-12.924 1.26-19.654 2.016-6.697 0.684-13.752 2.232-20.053 2.557-6.408 0.18-12.168-0.145-17.676-0.576-5.545-0.396-11.772-1.693-14.94-1.801-3.204-0.252 0.576-0.287-4.212 0.721-5.004 1.008-18 4.318-24.948 5.471-6.984 0.973-12.852 0.865-16.236 1.08-3.42 0.252-1.44 0.936-4.176 0.541-2.88-0.613-8.748-1.98-12.6-3.277-3.924-1.26-7.776-2.916-10.728-3.996-3.06-1.223-4.716-2.662-7.308-2.916-2.7-0.287-6.516 0.973-8.388 1.262-1.897 0.213-2.616 0.321-2.544 0.178z" i:knockout="Off" fill="#FFFFFF"></path><path d="m56.934 15.498c-0.036-1.008 1.188-2.916 2.556-3.636 1.152-0.72 2.988-0.972 4.932-0.36s6.588 3.132 6.732 3.816c-0.108 0.504-4.968-0.036-6.372-0.36-1.332-0.396-1.152-2.052-1.836-1.656-1.008 0.396-2.196 3.348-3.276 3.852-1.152 0.396-2.665-0.901-2.736-1.656z" i:knockout="Off"></path><path d="m68.777 5.273c-0.828-0.72-0.756-2.16 0.36-1.98 1.008 0.072 5.184 2.196 6.012 2.916 0.756 0.684-0.216 1.296-1.26 1.26-1.187-0.216-4.284-1.547-5.112-2.196z" i:knockout="Off"></path><path d="m52.578 20.25c-1.764-0.648-4.248-0.072-6.192 0.18-1.944 0.18-5.004 0.504-5.292 1.26-0.396 0.612 1.656 2.556 3.096 2.916 1.368 0.216 3.024-0.972 5.112-1.08 2.016-0.18 6.264 0.864 6.912 0.36 0.432-0.648-1.944-3.024-3.636-3.636z" i:knockout="Off"></path><path d="m42.894 30.618c-2.088-0.72-7.38-1.512-9.648-1.26-2.16 0.108-2.916 1.548-3.636 2.376-0.828 0.828-2.844 1.44-1.476 2.52 1.332 0.972 8.064 3.42 9.108 3.313 0.828-0.252-3.528-3.528-3.636-4.392-0.072-0.972 0.9-0.9 2.916-0.9 1.98 0 7.38 1.08 8.568 0.9 1.043-0.397-0.289-1.946-2.196-2.557z" i:knockout="Off"></path><path d="m37.998 43.218c-1.584-0.972-7.38-2.916-10.044-3.312-2.844-0.36-4.428-0.036-6.552 1.116-2.304 0.972-7.848 3.6-6.372 5.112 1.584 1.476 13.5 3.708 15.48 3.636 1.692-0.18-4.68-3.492-4.536-4.392 0.108-0.864 3.996-1.332 5.436-1.26 1.296 0 2.16 0.576 3.132 0.9 1.008 0.18 2.16 0.18 2.88 0 0.503-0.36 2.087-1.008 0.576-1.8z" i:knockout="Off"></path><path d="m8.478 58.337c0.684-1.224 3.6-4.104 5.832-4.752 2.196-0.684 4.608 0.36 7.092 0.9 2.412 0.432 6.444 1.044 7.092 1.836 0.504 0.72-1.692 1.836-3.816 2.376-2.232 0.36-6.696-0.288-9.108 0-2.556 0.18-4.248 1.44-5.472 1.44-1.224-0.179-2.412-0.683-1.62-1.8z" i:knockout="Off"></path><path d="m19.206 64.53c1.728-0.252 5.76 0 8.208 0.9 2.34 0.792 5.796 3.492 5.652 4.213-0.396 0.684-5.616 0.504-7.488 0-1.98-0.758-2.412-2.989-3.816-3.493-1.584-0.54-4.176 1.008-4.716 0.756-0.504-0.288 0.395-2.197 2.16-2.376z" i:knockout="Off"></path><path d="m48.366 60.138c1.404-1.98 3.132-6.948 4.752-9.648 1.296-2.7 2.304-4.32 3.996-6.372 1.728-2.16 6.156-4.428 6.192-6.372-0.144-2.088-5.616-5.796-6.552-5.832-0.9-0.036 1.08 3.708 1.08 5.256-0.252 1.512-0.864 3.168-1.98 3.312-1.296-0.108-4.32-3.636-4.752-3.492s2.16 2.628 2.376 4.392c0.072 1.764-0.612 3.744-1.476 5.652-0.972 1.728-2.232 3.816-3.636 4.716-1.548 0.684-4.428-0.684-4.896 0.216-0.504 0.864 1.836 3.78 2.16 5.436 0.18 1.584-1.368 3.636-0.9 4.212 0.432 0.396 2.195 0.36 3.636-1.476z" i:knockout="Off"></path><path d="m66.797 29.538c2.412-0.648 5.004-4.104 7.632-5.652 2.52-1.656 6.588-2.268 7.488-3.636 0.756-1.332-3.06-4.176-2.556-4.212 0.468-0.216 6.192 1.908 5.652 3.456-0.684 1.548-6.264 3.312-9.108 5.832-2.916 2.448-5.904 7.38-7.848 8.568-2.016 1.044-2.7-1.152-3.996-2.16-1.476-1.224-4.68-4.032-4.212-4.392 0.397-0.324 4.464 2.628 6.948 2.196z" i:knockout="Off"></path><path d="m149.17 57.798c-1.656 1.152-3.492 3.276-8.029 3.996-4.643 0.468-18.359 0.036-19.332-0.18-0.971-0.144 9.686-0.324 13.5-0.54 3.602-0.288 6.084-0.108 8.568-1.116 2.592-1.188 5.473-4.896 6.553-5.292 0.68-0.432 0.39 1.908-1.26 3.132z" i:knockout="Off"></path><path d="m107.8 37.386c0.613 0.504 4.682 0.504 6.912 2.34 2.018 1.692 5.148 7.74 5.652 7.848 0.289-0.108-1.332-5.904-2.916-7.668-1.656-1.872-4.752-2.52-6.371-2.916-1.69-0.469-3.88-0.144-3.27 0.396z" i:knockout="Off"></path><path d="m81.558 57.222c-0.288 0.216 7.884-0.18 10.908 0.18 2.772 0.324 3.06 1.944 6.408 2.376 3.384 0.324 13.679 0.432 13.824 0.18-0.107-0.288-10.691-0.828-13.824-1.62-3.132-0.792-1.944-2.988-4.752-3.096-2.955-0.108-12.278 1.476-12.566 1.98z" i:knockout="Off"></path><path d="m158.09 60.318c2.123 0 9.396 1.692 10.008 2.016 0.504 0.18-4.607-0.072-6.732-0.18-2.268-0.144-5.832-0.324-6.371-0.54-0.65-0.468 0.9-1.368 3.09-1.296z" i:knockout="Off"></path><path d="m107.41 82.566c-2.953 0.611-3.602 1.979-4.717 3.814-1.26 1.656-2.7 3.672-2.376 6.193 0.288 2.447 2.089 6.516 3.995 8.748 1.693 2.195 3.926 3.959 6.408 4.031 2.449-0.145 5.689-3.564 8.172-4.572 2.412-1.115 4.752 0.037 6.193-1.799 1.295-1.873 2.555-6.732 1.836-9.324-0.865-2.701-3.529-5.4-6.732-6.553-3.34-1.186-9.82-1.186-12.77-0.538z" i:knockout="Off" fill="#FFFFFF"></path><path d="m112.88 91.674c-0.756-0.289-2.447 0.863-2.736 1.656-0.359 0.719 0.182 2.412 0.938 2.736 0.684 0.07 2.879-0.504 3.275-1.297 0.24-0.72-0.8-2.951-1.48-3.095z" i:knockout="Off"></path><path d="m115.25 90.953c0.18-0.539 1.691-0.107 2.016 0.18 0.18 0.361 0.072 1.045-0.18 1.621-0.359 0.396-1.225 1.367-1.477 1.115-0.39-0.394-0.65-2.519-0.36-2.916z" i:knockout="Off"></path><path d="m93.401 89.297c0.504 2.088 0.576 4.033-0.18 5.832-0.828 1.836-1.944 3.709-4.032 4.934-2.124 1.188-5.292 1.799-8.388 1.836-3.204-0.072-8.244-0.686-10.548-2.377-2.304-1.943-3.312-6.047-3.456-8.568-0.36-2.52 0.18-4.391 1.62-6.012 3.096-0.648 5.796-0.973 8.388-1.115 2.448-0.145 4.644 0.18 6.732 0.395 2.124 0.217 4.392 0.396 5.832 0.541 1.26-0.035 1.98-0.217 2.016-0.541 0.649 1.691 1.332 3.382 2.016 5.074z" i:knockout="Off" fill="#FFFFFF"></path><path d="m76.337 87.678c-1.296-0.396-4.212 0.107-5.004 1.656-0.828 1.477-0.54 6.191 0.18 6.947 0.684 0.541 2.448-2.664 3.78-3.383 1.224-0.721 3.096-0.541 3.384-1.262 0.073-0.863-1.079-3.671-2.34-3.958z" i:knockout="Off"></path><path d="m61.146 86.021c0.54 2.268 0.468 4.283-0.216 6.191-0.72 1.945-1.08 3.637-3.996 4.934-3.024 1.008-7.704 1.691-14.04 1.654-1.62-2.268-2.88-4.139-3.636-5.471-0.828-1.404-1.296-2.268-1.26-2.736 0.072-0.648 0.36-1.26 0.72-1.836 0.36-0.648 0.792-1.26 1.44-1.836 2.7 0.145 5.76 0.145 9.324 0 3.492-0.216 7.379-0.468 11.664-0.9z" i:knockout="Off" fill="#FFFFFF"></path><path d="m62.226 94.23c3.024 2.447 4.68 4.752 5.112 6.912 0.252 2.016-0.936 4.283-2.736 5.832-1.872 1.584-5.58 2.734-7.668 3.311-2.088 0.504-3.672 0.18-4.752-0.576-0.396-0.971-0.936-1.691-1.62-2.16-0.72-0.432-1.62 0-2.556-0.936-1.008-1.152-2.052-2.988-3.276-5.652 2.448-0.107 4.86-0.287 7.092-0.539 2.16-0.289 4.464-0.145 6.228-1.08 1.692-1.068 3.132-2.725 4.176-5.1z" i:knockout="Off" fill="#FFFFFF"></path><path d="m139.48 80.189c-2.27-0.611-6.373-0.576-7.992 0.541-1.729 1.043-2.088 3.814-2.197 5.832-0.143 1.799 0.828 3.49 1.26 5.65 0.289 2.16-0.756 5.4 0.756 7.488 1.514 2.16 5.113 4.393 8.174 4.752 2.986 0.037 8.531-1.439 9.684-3.852 0.971-2.52-3.025-7.596-3.672-10.367-0.865-2.846 0.324-4.537-0.721-6.193-1.15-1.798-3.06-3.274-5.29-3.851z" i:knockout="Off" fill="#FFFFFF"></path><path d="m133.69 95.525c0.035 0.936 0.756 3.527 2.16 3.889 1.439 0.145 6.553-1.439 6.443-2.377-0.359-1.043-6.012-3.203-7.523-3.42-1.48-0.287-1.34 0.865-1.08 1.908z" i:knockout="Off"></path><path d="m150.96 79.83c-2.375 0.648-3.203 2.916-3.455 5.291-0.289 2.16 0.721 5.438 1.656 8.029 0.791 2.555 0.971 6.084 3.455 7.271 2.449 1.152 9.072 1.439 11.125-0.541 1.908-2.268 1.043-9.07 0.719-12.203-0.467-3.061-0.898-5.184-3.096-6.373-2.29-1.473-8.13-2.014-10.4-1.473z" i:knockout="Off" fill="#FFFFFF"></path><path d="m153.7 82.205c-0.971 0.217-1.943 1.332-2.375 2.377-0.541 0.9-0.721 2.268-0.541 3.275 0.037 0.936 0.072 2.053 0.936 2.377 0.938 0.215 3.385-0.469 3.996-0.938 0.252-0.467-1.547-1.223-1.656-1.979-0.107-0.828 1.08-2.305 1.477-2.916 0.324-0.721 1.332-1.008 1.08-1.297-0.36-0.43-2.13-1.151-2.92-0.899z" i:knockout="Off"></path><path d="m153.81 82.566c-0.684 0.252-1.727 1.15-2.158 2.16-0.504 0.863-0.576 2.051-0.504 3.023 0 0.9 0.143 1.799 0.826 2.16 0.686 0.072 2.736-0.396 3.098-0.865 0.252-0.504-1.621-1.008-1.584-1.799-0.072-0.793 0.863-2.232 1.26-2.809 0.324-0.684 0.791-0.936 0.719-1.152-0.3-0.358-0.99-0.97-1.67-0.718z" i:knockout="Off" fill="#FFFFFF"></path><path d="m134.44 95.994c0.072 0.648 0.504 2.807 1.691 3.023 1.008 0.072 5.186-1.043 5.041-1.836-0.252-0.828-4.752-2.52-5.869-2.699-1.11-0.289-1.08 0.719-0.86 1.512z" i:knockout="Off" fill="#FFFFFF"></path><path d="m75.87 88.037c-0.972-0.395-3.456 0.18-3.996 1.332-0.648 1.117-0.396 4.932 0.18 5.473 0.54 0.396 1.908-2.053 2.988-2.629 0.972-0.611 2.412-0.432 2.664-1.008 0.071-0.756-0.865-2.879-1.836-3.168z" i:knockout="Off" fill="#FFFFFF"></path><path d="m191.79 75.654c1.225 0.359 2.268 1.15 3.277 2.916 0.863 1.764 2.482 4.895 2.375 7.451-0.145 2.484-1.043 5.76-3.096 7.309-2.16 1.332-6.805 2.268-9.469 1.26-2.736-1.08-6.119-4.752-6.551-7.271-0.469-2.592 2.303-5.797 3.996-7.668 1.584-1.945 3.779-3.168 5.471-3.816 1.51-0.722 2.7-0.685 4-0.181z" i:knockout="Off" fill="#FFFFFF"></path><path d="m172.31 78.174c-2.197 0.145-3.674 1.008-4.572 2.736-0.973 1.727-0.938 4.68-0.721 7.307 0.145 2.557 0.648 6.014 1.801 7.85 1.08 1.727 2.664 2.555 4.752 2.34 2.016-0.396 4.391-1.801 7.271-4.357-2.016-1.871-3.348-3.527-3.996-5.111-0.611-1.619-0.576-3.023-0.18-4.355 0.252-1.332 0.756-2.484 1.656-3.457-0.434-1.008-1.26-1.691-2.197-2.195-0.96-0.506-2.33-0.758-3.81-0.758z" i:knockout="Off" fill="#FFFFFF"></path><path d="m178.51 98.801c-1.045 0.613-2.088 1.549-3.275 2.521-1.189 0.936-2.412 2.195-3.674 3.492 1.873 0.971 2.953 2.088 3.098 3.635 0.107 1.477-0.613 3.24-2.16 5.293 3.887 0.756 7.164 0.9 9.828 0.719 2.592-0.252 4.463-0.287 6.012-2.195 1.547-2.053 3.564-7.164 3.275-9.648-0.432-2.592-3.275-4.68-5.473-5.291-2.21-0.606-4.8-0.21-7.64 1.482z" i:knockout="Off" fill="#FFFFFF"></path><path d="m164.46 103.88c-4.139-0.072-7.344-0.324-9.467-0.359-2.197-0.072-3.313-0.324-3.492-0.359-0.613 0.684-1.584 1.295-2.916 1.836-1.332 0.432-3.023 0.791-5.076 1.08-0.072 1.691 0.721 3.563 1.98 5.471 1.26 1.945 4.031 4.141 5.832 6.014 1.727 1.764 3.203 3.238 4.572 4.57-0.721 0.396-1.514 0.756-2.377 1.08-0.9 0.217-3.492 0.648-2.916 0.9 0.504 0.359 4.248 0.396 5.832 0.936 1.439 0.396 2.053 1.766 3.096 1.621 1.008-0.289 2.268-2.088 3.096-2.916 0.721-0.9 1.332-1.764 1.297-2.197-0.107-0.467-0.828-0.646-2.016-0.539l-0.9-0.539c1.439 0 2.951-0.686 4.535-2.197 1.512-1.619 4.068-4.896 4.752-6.912 0.576-2.16-0.215-3.816-1.115-5.111-1.02-1.26-2.5-2.05-4.7-2.37z" i:knockout="Off" fill="#FFFFFF"></path><path d="m151.36 109.2c0.037 0.973 0.756 3.492 2.16 3.816 1.332 0.107 6.553-1.367 6.371-2.34-0.287-0.936-6.012-3.275-7.451-3.42-1.48-0.36-1.33 0.94-1.08 1.94z" i:knockout="Off"></path><path d="m152.12 109.64c0 0.648 0.613 2.809 1.691 3.025 1.045 0.072 5.113-1.045 5.006-1.836-0.254-0.828-4.754-2.521-5.869-2.701-1.16-0.28-1.01 0.73-0.83 1.52z" i:knockout="Off" fill="#FFFFFF"></path><path d="m184.37 100.06c0.865 0.215 1.836 1.332 2.377 2.375 0.432 0.9 0.611 2.268 0.539 3.275-0.107 0.938-0.143 2.053-0.936 2.377-1.045 0.215-3.492-0.469-3.996-0.936-0.324-0.469 1.477-1.225 1.656-1.98 0.035-0.828-1.152-2.305-1.477-2.916-0.432-0.721-1.439-1.008-1.08-1.297 0.26-0.43 2.02-1.149 2.92-0.9z" i:knockout="Off"></path><path d="m184.27 100.42c0.576 0.252 1.619 1.152 2.16 2.16 0.432 0.863 0.467 2.051 0.504 3.023-0.072 0.9-0.252 1.801-0.828 2.16-0.793 0.072-2.844-0.396-3.096-0.863-0.359-0.504 1.512-1.008 1.584-1.801 0-0.791-0.973-2.232-1.26-2.809-0.432-0.684-0.865-0.936-0.721-1.15 0.23-0.36 0.87-0.97 1.67-0.72z" i:knockout="Off" fill="#FFFFFF"></path><path d="m187.79 81.09c-1.26-0.396-3.6 0.145-4.391 1.477-0.721 1.295-0.434 5.398 0.18 6.047 0.539 0.469 2.195-2.303 3.311-2.916 1.01-0.719 2.773-0.396 2.953-1.115 0.11-0.794-1.07-3.206-2.05-3.493z" i:knockout="Off"></path><path d="m187.4 81.414c-0.9-0.289-2.988 0.107-3.492 1.188-0.576 0.973-0.396 4.32 0.143 4.787 0.469 0.324 1.656-1.799 2.592-2.34 0.828-0.646 2.125-0.287 2.342-0.863-0.07-0.721-0.65-2.52-1.58-2.772z" i:knockout="Off" fill="#FFFFFF"></path><path d="m118.53 103.88c-1.764 0.938-2.412 1.441-2.916 2.916-0.648 1.441-1.729 3.924-0.721 5.652 0.938 1.656 3.961 3.529 6.553 4.213 2.52 0.539 5.977-0.037 8.568-0.756 2.52-0.938 5.291-2.27 6.371-3.996 0.938-1.873 0.973-4.5-0.719-6.373-1.836-1.98-6.768-4.248-9.648-4.572-2.87-0.36-5.82 1.91-7.48 2.92z" i:knockout="Off" fill="#FFFFFF"></path><path d="m109.78 119.4c2.16-0.506 3.205-1.441 3.275-3.098-0.07-1.727-1.654-4.895-3.096-6.588-1.584-1.764-3.096-2.951-5.652-3.275-2.662-0.324-7.055 0.541-9.827 1.477-2.916 0.863-5.868 2.375-6.912 3.996-1.08 1.475-0.612 3.383 0.72 5.291 1.296 1.873 6.048 4.428 6.912 6.012 0.648 1.549-1.404 2.16-2.556 3.096-1.332 0.758-4.932 1.369-4.536 1.838 0.504 0.287 5.184 0.252 7.092 0.719 1.62 0.576 2.016 1.943 3.276 2.557 1.188 0.432 1.692 0.324 4.571 0.359 2.881-0.107 11.809-0.107 12.744-0.539 0.684-0.541-6.084-1.26-7.811-2.018-1.656-0.756-2.342-1.654-2.197-2.555 0.072-1.008 2.449-2.197 2.557-3.277 0-1.223-0.793-2.23-2.377-3.455 1.26-0.19 2.53-0.37 3.82-0.54z" i:knockout="Off" fill="#FFFFFF"></path><path d="m93.941 110.43c-0.972 0.145-1.944 1.008-2.376 1.764-0.576 0.756-0.612 1.621-0.54 2.449 0.072 0.684 0 1.547 0.9 1.764 0.9 0.143 3.492-0.361 4.032-0.686 0.252-0.359-1.548-0.898-1.656-1.475-0.108-0.684 1.08-1.693 1.476-2.197 0.324-0.539 1.332-0.756 1.08-0.936-0.359-0.35-2.124-0.85-2.916-0.67z" i:knockout="Off"></path><path d="m94.049 110.68c-0.684 0.072-1.728 0.936-2.16 1.619-0.504 0.613-0.576 1.549-0.504 2.27 0 0.576 0.144 1.439 0.828 1.619 0.612 0.145 2.736-0.396 3.06-0.648 0.216-0.324-1.548-0.828-1.548-1.367-0.072-0.721 0.864-1.512 1.26-2.088 0.324-0.469 0.792-0.756 0.72-0.865-0.288-0.36-0.972-0.72-1.656-0.54z" i:knockout="Off" fill="#FFFFFF"></path><path d="m96.102 93.869c0.108 1.945-0.72 3.709-2.34 5.293-1.764 1.512-4.176 2.844-7.668 3.996-0.36 0.9-0.36 1.908 0 2.736 0.252 0.826 0.864 1.619 1.836 2.375 1.224-0.936 3.276-1.729 6.012-2.375 2.772-0.721 6.084-1.225 10.367-1.656-1.691-1.477-3.203-2.953-4.535-4.717-1.405-1.802-2.629-3.638-3.673-5.654z" i:knockout="Off" fill="#FFFFFF"></path><path d="m69.713 104.45c2.52-0.9 4.932-1.043 7.092-0.576 2.088 0.434 4.968 1.584 6.012 3.457 0.972 1.836 0.72 5.688 0.36 7.668-0.396 1.908-1.188 3.131-2.376 3.816-4.248 0.791-7.884 0.971-10.908 0.936-3.168-0.072-5.652-0.252-7.308-1.656-1.62-1.549-2.52-4.031-2.556-7.451 3.564-0.324 6.228-1.045 7.848-2.018 1.621-1.04 2.232-2.48 1.836-4.18z" i:knockout="Off" fill="#FFFFFF"></path><path d="m76.625 105.9c-0.288 0.143-0.072 1.26-0.18 1.836-0.18 0.504-1.332 0.971-0.936 1.26 0.252 0.072 1.764-0.324 2.736-0.361 0.828-0.07 2.52 0.252 2.736 0 0.216-0.359-1.044-1.727-1.44-2.016-0.468-0.324-0.9 0.252-1.296 0.18-0.503-0.26-1.368-1.02-1.62-0.9z" i:knockout="Off"></path><path d="m109.24 120.29c1.871-0.107 4.318-0.504 7.488-0.898 3.131-0.541 8.314-1.621 11.268-1.836 2.807-0.217 4.031 0.107 6.012 0.539 1.98 0.324 2.988 1.619 5.652 1.656 2.52-0.037 5.795-0.648 9.684-1.836l2.736 2.916c-5.545 0.791-10.764 1.404-16.057 1.836-5.4 0.252-10.98 0.432-15.48 0.539-4.535 0.145-8.1 0.217-11.123 0.361 0.971-0.434 1.512-0.865 1.477-1.441-0.07-0.58-0.58-1.19-1.66-1.84z" i:knockout="Off" fill="#FFFFFF"></path><path d="m169.58 116.84c1.295 0.035 3.42-0.072 6.371-0.18 3.023-0.18 7.381-0.109 11.125-0.756 3.492-0.793 6.875-2.018 10.008-3.816l-0.9 4.211c-1.836 0.289-4.104 0.756-6.947 1.262-2.881 0.467-6.084 1.15-10.01 1.654-3.924 0.434-8.424 0.686-13.5 0.9 1.26-1.07 2.55-2.15 3.85-3.26z" i:knockout="Off" fill="#FFFFFF"></path><path d="m141.14 108.45c0.109 0.361 0.721 1.369 1.836 2.736 1.117 1.332 2.594 3.313 4.717 5.652-1.801 0.936-3.744 1.404-5.832 1.26-2.16-0.217-4.355-0.9-6.732-2.195 1.477-0.721 2.844-1.693 3.816-2.916 0.92-1.25 1.74-2.77 2.18-4.53z" i:knockout="Off" fill="#FFFFFF"></path><path d="m190.35 112.8c0.684-1.188 1.188-2.482 1.801-4.176 0.574-1.691 0.971-3.635 1.475-5.832 0.828 1.297 1.369 2.629 1.621 3.996 0.252 1.332 0 2.629-0.361 4.033-1.51 0.66-3.02 1.3-4.53 1.98z" i:knockout="Off" fill="#FFFFFF"></path><path d="m93.762 84.402c0.288 0.18 1.152 0.107 2.736-0.361 1.584-0.504 3.636-1.295 6.551-2.375-1.295 1.512-2.447 3.131-3.456 4.715-1.08 1.584-1.944 3.277-2.736 4.934 0-0.828-0.252-1.801-0.756-2.916-0.577-1.19-1.261-2.522-2.34-3.997z" i:knockout="Off" fill="#FFFFFF"></path></g></g><metadata></metadata></svg> 