<?xml version="1.0" encoding="UTF-8" standalone="no"?> <!-- Created with Inkscape (http://www.inkscape.org/) --> <svg xmlns:rdf="http://www.w3.org/1999/02/22-rdf-syntax-ns#" xmlns="http://www.w3.org/2000/svg" xmlns:cc="http://web.resource.org/cc/" xmlns:dc="http://purl.org/dc/elements/1.1/" xmlns:svg="http://www.w3.org/2000/svg" xmlns:inkscape="http://www.inkscape.org/namespaces/inkscape" xmlns:sodipodi="http://sodipodi.sourceforge.net/DTD/sodipodi-0.dtd" xmlns:ns1="http://sozi.baierouge.fr" xmlns:xlink="http://www.w3.org/1999/xlink" id="svg2780" viewBox="0 0 210.67 246.76" inkscape:version="0.91 r13725"><g id="layer1" transform="translate(-48.62 -790.37)"><path id="path29435" style="fill-rule:evenodd;stroke:#000000;stroke-width:2;fill:#ffffff" d="m49.62 791.37l3.794 159.38c2.71 113.85 198.37 113.85 201.08 0l3.8-159.38h-208.67z"></path><path id="path6864" style="fill-rule:evenodd;color:#000000;stroke:#000000;stroke-width:1pt;fill:#507931" d="m171.72 207.19c-0.47-0.01-0.94 0.01-1.41 0.03-13.15 0.83-23.6 11.58-28.15 23.37-2.03 4.9-2.3 12.37-0.44 17.69 17.02-2.38 33.33-8.22 46.9-17.5 1.34-7.75-0.73-16.48-7.59-20.84-2.78-1.82-6.03-2.69-9.31-2.75z" transform="translate(30.058 786.61)"></path><path id="path3340" style="fill-rule:evenodd;color:#000000;stroke:#000000;stroke-width:1px;fill:#b10d16" d="m124.72 46.875c-5.98-3.053-14.39-5.545-19-5.919-4.61-0.373-5.754-1.176-8.599-3.426-2.845-2.249-5.42-5.17-3.302-7.662s3.5-3.058 3.676-1.184c0.175 1.874 2.925 6.043 7.665 6.541 4.73 0.499 18.44 6.354 20.18 7.974" transform="translate(30.058 786.61)"></path><path id="path3334" style="color:#000000;fill-rule:evenodd;fill:#000000" d="m148.64 18.654c7.2-7.871 18.02-6.932 14.89 7.549" transform="translate(30.058 786.61)"></path><path id="path3361" style="fill-rule:evenodd;color:#000000;stroke:#ffffff;stroke-width:1px;fill:#000000" d="m82.353 813.82c5.98-0.24 9.868 4.56 10.313 8.14 0.445 3.59 0.869 11.64-3.562 11.06-4.419-0.58-3.826-12.01-1.488-11.17 2.31 0.83-1.136-3.1-5.263-8.03z"></path><path id="path3359" style="fill-rule:evenodd;color:#000000;stroke:#ffffff;stroke-width:1px;fill:#000000" d="m85.349 810.3c6.244-0.95 9.868 4.55 10.312 8.14 0.445 3.58-1.862 11.19-5.059 9.12-3.197-2.08-3.111-6.77-1.312-8.35 1.761-1.55 0.186-3.98-3.941-8.91z"></path><path id="path3357" style="fill-rule:evenodd;color:#000000;stroke:#ffffff;stroke-width:1px;fill:#000000" d="m88.961 806.16c6.421-1.48 10.132 4.47 10.577 8.05s-2.039 12.6-5.236 10.53c-3.196-2.08-2.934-8.18-1.135-9.76 1.76-1.55 1.154-3.54-4.206-8.82z"></path><path id="path3355" style="fill-rule:evenodd;color:#000000;stroke:#ffffff;stroke-width:1px;fill:#000000" d="m66.516 16.766c6.554-0.671 9.78 7.048 9.78 10.66s-4.396 11.002-7.313 8.546c-2.916-2.456-2.244-8.605-0.264-9.955 1.938-1.322 2.467-3.348-2.203-9.251z" transform="translate(30.058 786.61)"></path><path id="path3326" style="fill-rule:evenodd;color:#000000;fill:#000000" d="m122.18 889.96c4.61 0.59 8.18-1.55 13.6-4.9-3.42-4.35-12.57-8.26-17.24-10.32 0.55-1.32 16.3-9.91 19.74-12.55-1.07 0.06-2.94 0.68-4.54 1.12 2.19-2.62 4.61-6.65 9.51-8.58-0.66-0.33-2.26-0.35-3.24-1.06 2.24-1.7 4.67-2.97 7.17-3.67-0.5-0.58-1.5-1.1-2-1.68 2.08-0.42 4.33-0.8 6.42-1.38 0.75-2.24 1.38-4.63 10.34-3.98l37.69-20.56c0 11.65-5.18 25.5-4.17 30.09 0.87 3.99 5.73 11.28 5.79 16.2-0.54-0.02-1.64 0.2-2.3 0.12 0 1.66 0.37 2.33 0.37 3.99-0.42-0.17-1.21-0.21-1.68-0.19 0.45 2.6 0.41 5.19 0.25 7.85-0.81-0.29-1.62-0.46-2.37-0.75 0.5 2.52 0.62 5.46 0.87 8.04-0.58-0.25-1.91-1.56-2.49-1.81 1.58 10.8 3.56 20.71 5.2 32.13 5.31 2.18 10.84 5.86 11.57 13.06-2.12-0.08-2.69 0.19-4.81 0.1 0 0 5.93 6.73 5.8 8.85-0.12 2.12 2.73 3.45 3.92 6.23-1.14-0.12-2 0.08-2.99 0.12 2.14 2.19 3.8 4.29 4.75 6.96-0.88-0.04-1.26 0.31-2.14 0.27 2.09 2.53 4.27 4.7 4.91 7.97-0.75 0.63-0.79 1.25-1.54 1.87 2.51 0.84 3.93 5.39 4.9 8.87-0.74 0.02-1.48 0.07-2.23 0.07 2.29 3.52 3.62 11.92 1.43 15.82-2.11 3.77-21.44 18.44-23.49 22.54-1.25-9.4 0.09-7 2.83-11.3-2.49 3.2-7.44 5.7-10.55 10.9-1.66-10.97 4.73-12.61 4.72-13.11-5.23 5.81-5.32 3.51-10.4 6.61 1.57-5.08 2.69-7.25 7.44-10-3.76 2.26-5.55 3.49-6.42 3.12-0.88-0.38-0.43-2.19-2.17-0.82-1.75 1.37-2.48 1.93-5.06 4.1 5.06-15.24 15.43-10.08 20.25-12.64 4.75-2.53 7.99-3.56 3.31-10.47-4.65-6.85-10.1-10.32-23.06-21.91s-15.82-15.45-17.63-26.79c-10.98-8.12-16.8-14.39-18.09-20.29-3.29 1.4-5.73 2.22-8.71 2.45-0.04-0.8-0.13-1.77-0.01-2.52-1.61 1.3-4.09 2.23-6.63 2.73 0-0.94-0.18-1.26-0.18-2.2-1.82 1.56-4.43 1.88-6.34 2.2 0.29-0.76-0.12-1.96 0.08-2.9"></path><path id="path3328" style="stroke-linejoin:round;fill-rule:evenodd;color:#000000;stroke:#ffffff;stroke-linecap:round;stroke-width:1px;fill:#000000" d="m156.47 46.632c-6.43 20.616-26.34 12.687-39.91 4.67-0.5 0.657-0.09 2.085-0.09 2.907-3.7-1.527-7.35-3.396-11.01-5.022 5.41-3.006 12.54-3.802 17.34-4.367 4.62-0.545-3.5-16.892-13.29-17.482-4.28-0.258-6.04-1.976-3.61-4.229 2.46-2.29 3.61-2.29 3.43-3.7-0.18-1.442 0.39-2.488 2.56-1.674 2.11 0.793 9.78 2.555 12.42 3.26s6.42 0.259 8.28-1.674c1.82-1.889 17.89-6.343 30.22 4.053-3.26 2.81-4.32 4.316-4.32 4.316 8.81-12.657 27.2-0.104 11.9 12.247-1.18 0.953-4.14 0.44-4.14 0.44" transform="translate(30.058 786.61)"></path><path id="path3351" style="stroke-linejoin:round;fill-rule:evenodd;color:#000000;stroke:#ffffff;stroke-linecap:round;stroke-width:1px;fill:#000000" d="m101.42 85.619c0.06-2.747 4.3-7.499 6.85-9.997-1.9 0.263-4.19 0.959-7.37 3.067 2.15-1.333 4.71-3.975 6.29-6.745-10.717-8.223-26.176-18.61-28.632-21.36-2.412-2.701-1.656-7.855 0.495-11.834 2.114-3.91 6.391-16.233-2.254-20.427 1.046 2.854 1.882 8.181 0.094 8.012-1.784-0.169-5.326 4.34-5.795 5.849-0.482 1.548-1.155 22.102-4.683 31.941l4.427 4.337c-1.261-0.059-2.273 0.131-3.534 0.072 2.192 2.279 4.82 3.685 7.324 4.78-0.885 0.315-2.005-0.016-2.902 0.26 1.557 2.118 5.483 4.124 5.269 5.384-0.225 1.32 5.233 4.111 5.233 4.111-1.35 0.27-2.022 1.011-2.99 1.495 2.928 1.62 6.105 1.964 9.55 4.852" transform="translate(30.058 786.61)"></path><path id="path3330" style="stroke-linejoin:round;stroke:#ffffff;stroke-linecap:round;stroke-width:1px;fill:none" d="m138.28 28.427c1.6-1.036 2.95-1.077 6.29-0.12-4.83-2.635-7.3-3.028-11.51-3.421 0.79-0.709 1.89-1.482 3.5-2.129" transform="translate(30.058 786.61)"></path><path id="path15622" style="stroke-linejoin:round;color:#000000;stroke:#ffffff;stroke-linecap:round;stroke-width:1px;fill:none" d="m63.609 102.66c-2.273-2.62-1.535-7.909-2.084-8.629-0.507-0.666-5.001-1.239-7.938-1.298 3.814-6.788 16.35-0.993 18.046-1.053m33.177 6.727c12.8-7.924 28.27-22.252 39.98-11.57m1.11 21.823c-5.55 9.89-10.45 7.33-12.69 5.46-3.49 2.97-6.18 4.42-10.02 6.13 0.35-1.09 0.52-1.82 0.68-2.78-3.99 2.86-15.13 6.87-18.29 6.57-0.03-0.8-0.13-1.77 0-2.52-1.62 1.3-4.1 2.22-6.642 2.73 0-0.94-0.177-1.26-0.177-2.2-1.82 1.55-4.434 1.88-6.343 2.2" transform="translate(30.058 786.61)"></path><path id="path3353" style="fill-rule:evenodd;color:#000000;stroke:#ffffff;stroke-width:1px;fill:#000000" d="m71.098 32.184c-0.353 8.105 1.497 21.673 1.057 25.285-0.441 3.612-3.965 11.893-9.163 0.969-3.316-6.971-9.338-15.506 8.106-26.254z" transform="translate(30.058 786.61)"></path><path id="path3363" style="fill-rule:evenodd;color:#000000;stroke:#000000;stroke-width:1px;fill:#efde31" d="m36.298 109.54c0.039 3.98 1.822 7.85 4.229 12.33 23.493-9.63 49.179-21.29 70.483-28.897 21.26-7.592 47.4-17.52 57.09-21.144 9.8-3.664 16.71-4.485 21.14-4.581 4.56-0.096 13.85 0.427 20.9 1.014 1.43-2.637 2.98-6.645 3.42-10.529-7.74-1.328-15.73-2.905-23.97-2.114 6.25-5.553 12.12-13.349 17.62-21.145-3.64-2.584-7.4-4.421-10.92-7.753-5.6 9.124-13.75 17.343-18.8 22.512-5.05 5.168-7.1 6.866-11.26 8.002-4.27 1.167-14.48 5.75-34.22 15.256-19.7 9.481-74.109 26.691-95.712 37.049z" transform="translate(30.058 786.61)"></path><path id="path3332" style="stroke-linejoin:round;color:#000000;stroke:#ffffff;stroke-linecap:round;stroke-width:1pt;fill:none" d="m141.79 29.556a2.5542 2.5542 0 1 1 -5.11 0 2.5542 2.5542 0 1 1 5.11 0z" transform="translate(29.061 785.49)"></path><path id="path3349" style="stroke-linejoin:round;stroke:#ffffff;stroke-linecap:round;stroke-width:1px;fill:none" d="m162.1 30.491c5.6-5.732 14.08-2.118 7.72 4.859" transform="translate(30.058 786.61)"></path><path id="path18543" style="fill-rule:evenodd;color:#000000;fill:#000000" d="m122.56 907.96c-13.71 1.11-21.41-9.73-25.594-9.42-4.175 0.32-3.933-9.86-13.871-4.68 1.321-4.35 7.048-3.05 10.572-4.58-2.007-1.18-4.284-2.34-3.357-2.73 2.772-1.16 1.671-5.38 1.273-5.91-0.507-0.66-5.001-1.23-7.938-1.29 3.814-6.79 16.35-1 18.045-1.06l-0.58-4.02c1.79-1.94-1.305-4.35-4.15-6.4 20.03-1.15 10.34 21.08 25.22 22.09"></path><path id="path18547" style="fill-rule:evenodd;color:#000000;stroke:#ffffff;stroke-linecap:round;stroke-width:1px;fill:#000000" d="m83.706 886.2c4.798-4.8 10.518-2.81 14.629-0.69"></path><path id="path4338" style="fill-rule:evenodd;color:#000000;stroke:#ffffff;stroke-linecap:round;stroke-width:1px;fill:#000000" d="m97.588 890.74c-1.755-0.41-3.17-1.02-4.705-1.48"></path><path id="path4340" style="fill-rule:evenodd;color:#000000;stroke:#ffffff;stroke-linecap:round;stroke-width:1px;fill:#000000" d="m70.769 94.033c-1.893-1.433-3.85-2.887-5.81-4.327-1.401-2.595-5.626-4.105-8.269-6.014 12.03-2.596 17.111 4.527 22.303 11.463" transform="translate(30.058 786.61)"></path><path id="path4342" style="color:#000000;fill-rule:evenodd;fill:#000000" d="m126.51 133.7c-37.753 11.32-34.115 52.88-35.611 59.84-1.521 7.08-11.591 0.34-15.813-2.18-4.168-2.49-6.859-1.49-8.129 1.17 3.106-0.02 4.951-0.24 4.669 0.79-0.264 0.97-0.928 3.39 0.705 4.58s-0.736 2.19-0.264 5.73c0.341 2.56-0.025 2.41-3.507 3.1-3.566 0.71-4.44 3.11-5.48 5.71 3.278-1.9 11.454-4.05 17.621-0.88s10.548 4.87 14.096 3.52c4.405-1.67 8.433-5.51 8.633-8.02 0.49 0.68 1.32 1.91 1.85 2.56 0.21-1.94 0.18-4.05 0.62-5.99 1.05 0.17 2.11 0.35 3.17 0.53-0.32-2.31-0.14-4.87 0-7.4h2.29c-0.32-2.82 0.29-5.64 0.88-8.46 0.76 0.06 1.53 0.12 2.29 0.18 0.35-2.65 0.71-4.86 1.06-7.05 1 0.53 2 1.05 2.99 1.58-0.18-2.52 0.25-5.05 1.24-7.57 1.05 0.52 1.76 0.79 2.38 1.49 0.5-3.2 2.32-6.05 4.14-8.19 0.11 1.26 0.23 2.26 0.53 3.08 2.31-6.45 11.25-10.79 22.73-12.59" transform="translate(30.058 786.61)"></path><path id="path4346" style="fill-rule:evenodd;color:#000000;stroke:#ffffff;stroke-width:1px;fill:#000000" d="m90.026 993.53c0.337-4.11 2.005-4.39 4.41-5.75 3.154-1.77 6.614-1.67 7.724 3.45 1.09 5.03-6.905 3.1-7.474 1.08-0.545-1.94-1.97-0.86-4.66 1.22z"></path><path id="path4344" style="fill-rule:evenodd;color:#000000;stroke:#ffffff;stroke-width:1px;fill:#000000" d="m90.291 985.35c1.729-3.74 3.393-3.44 6.116-3.88 3.573-0.59 8.643 2.83 6.273 6.62-2.39 3.82-7.752-0.19-7.592-2.29 0.154-2-1.557-1.47-4.797-0.45z"></path><path id="path4348" style="color:#000000;fill-rule:evenodd;fill:#000000" d="m168.53 201.68c-4.61-8.5-16.59-2.64-16.77 0.69 6.98-3.09 9.18-0.46 16.77-0.69z" transform="translate(30.058 786.61)"></path><path id="path18551" style="color:#000000;stroke:#ffffff;stroke-width:1px;fill:none" d="m179.57 1000.3c5.06-15.24 15.43-10.08 20.25-12.64 4.75-2.53 7.99-3.56 3.31-10.47-4.65-6.85-10.1-10.32-23.06-21.91s-15.82-15.45-17.63-26.79c-10.98-8.12-16.8-14.39-18.09-20.29"></path><path id="path20491" style="stroke-linejoin:round;stroke:#ffffff;stroke-width:1px;fill:none" d="m128.08 138.51l-7.47 0.88c4.98 1.86 8.59 3.98 12.33 6.72" transform="translate(30.058 786.61)"></path><path id="path21462" style="stroke-linejoin:round;stroke:#ffffff;stroke-linecap:round;stroke-width:1px;fill:none" d="m70.146 193.58c1.745 4.61 5.358 7.36 9.345 7.48s16.446 5.48 18.191 7.6" transform="translate(30.058 786.61)"></path><path id="path25340" style="stroke:#ffffff;stroke-linecap:round;stroke-width:1px;fill:none" d="m166.07 210.76l-4.32 4.41" transform="translate(30.058 786.61)"></path><path id="path25342" style="stroke:#ffffff;stroke-linecap:round;stroke-width:1px;fill:none" d="m171.62 213.14l-3.17 3.7" transform="translate(30.058 786.61)"></path><path id="path25344" style="stroke:#ffffff;stroke-linecap:round;stroke-width:1px;fill:none" d="m162.63 207.33l-6.16 4.32" transform="translate(30.058 786.61)"></path><path id="path3338" style="stroke-linejoin:round;fill-rule:evenodd;color:#000000;stroke:#000000;stroke-width:1px;fill:#ffffff" d="m119.8 32.235c-3.12-3.053-7.23-5.482-10.78-5.794l-0.25 6.043 2.74-5.42 0.56 7.227 3.18-5.482c-0.31 3.364-0.5 5.357 4.55 3.426z" transform="translate(30.058 786.61)"></path><path id="path3336" style="stroke-linejoin:round;fill-rule:evenodd;color:#000000;stroke:#000000;stroke-width:1px;fill:#ffffff" d="m116.06 46.688c-1.5 0.249-5.17 1.433-6.11 1.62-0.06-0.748-0.62-7.227-0.62-7.227l3.55 6.417 0.06-6.355 3.12 5.545z" transform="translate(30.058 786.61)"></path><path id="path3282" style="stroke:#000000;stroke-width:2;fill:none" d="m49.62 791.37l3.794 159.38c2.71 113.85 198.37 113.85 201.08 0l3.8-159.38h-208.67z"></path><path id="path7845" style="fill-rule:evenodd;color:#000000;stroke:#000000;stroke-width:1pt;fill:#507931" d="m77.562 207.19c-10.701 0.34-20.248 10.81-18.624 21.65 0.092 0.69 0.237 1.36 0.374 2.04 13.525 9.2 29.764 14.99 46.688 17.37 1.37-5.39 1.46-12.77-0.12-17.31-3.4-9.83-11.025-18.48-20.63-22.41-2.415-0.91-5.037-1.44-7.688-1.34z" transform="translate(30.058 786.61)"></path><path id="path29415" style="fill-rule:evenodd;color:#000000;stroke:#000000;stroke-width:1pt;fill:#507931" d="m123.84 201.88c-19.9 0-28.371 16.81-28.371 37.53 0 2.4 0.173 4.75 0.5 7.03 18.131 4.09 37.581 4.11 55.721 0.03 0.33-2.29 0.5-4.65 0.5-7.06 0-20.72-8.8-37.53-28.35-37.53z" transform="translate(30.058 786.61)"></path><path id="path29384" style="stroke:#000000;stroke-width:2;fill:none" d="m49.62 791.37l3.794 159.38c2.71 113.85 198.37 113.85 201.08 0l3.8-159.38h-208.67z"></path></g><metadata></metadata></svg> 