<?xml version="1.0" encoding="UTF-8" standalone="no"?> <!-- Created with Inkscape (http://www.inkscape.org/) --> <svg xmlns:inkscape="http://www.inkscape.org/namespaces/inkscape" xmlns:rdf="http://www.w3.org/1999/02/22-rdf-syntax-ns#" xmlns="http://www.w3.org/2000/svg" xmlns:sodipodi="http://sodipodi.sourceforge.net/DTD/sodipodi-0.dtd" xmlns:cc="http://creativecommons.org/ns#" xmlns:xlink="http://www.w3.org/1999/xlink" xmlns:dc="http://purl.org/dc/elements/1.1/" xmlns:svg="http://www.w3.org/2000/svg" xmlns:ns1="http://sozi.baierouge.fr" id="svg2" sodipodi:docname="tree09.svg" inkscape:export-filename="/home/nicu/Desktop/rpg_color.png" viewBox="0 0 128 128" sodipodi:version="0.32" inkscape:export-xdpi="90.000000" inkscape:output_extension="org.inkscape.output.svg.inkscape" inkscape:export-ydpi="90.000000" inkscape:version="0.45+devel" sodipodi:docbase="/home/nicu/Desktop/hats"><defs id="defs3"><radialGradient id="radialGradient1880" gradientUnits="userSpaceOnUse" cy="222.04" cx="14.207" gradientTransform="scale(1.3952 .71673)" r="8.2519" inkscape:collect="always"><stop id="stop2059" style="stop-color:#000000" offset="0"></stop><stop id="stop2061" style="stop-color:#000000;stop-opacity:0" offset="1"></stop></radialGradient><filter id="filter2893" height="1.4243" width="1.218" y="-.21216" x="-.10899" inkscape:collect="always"><feGaussianBlur id="feGaussianBlur2895" stdDeviation="0.72146876" inkscape:collect="always"></feGaussianBlur></filter></defs><g id="layer1" inkscape:label="Layer 1" inkscape:groupmode="layer"><g id="g1911" transform="matrix(2.4697 0 0 2.4697 -10.476 -382.66)"><path id="path2839" style="fill-rule:evenodd;fill:#00b300" d="m33.235 167.13c0.342 0.84 1.173 1.45 1.24 2.4-0.034 1.97 0.066 3.99 0.806 5.84 0.311 0.89 0.392 1.84 0.419 2.78 0.137 1.22 0.326 2.43 0.531 3.63 0.303 0.92 1.037 1.69 1.092 2.69-0.082 0.52-0.652 0.73-1.107 0.82-1.485 0.38-3.048 0.3-4.54 0-1.429-0.15-2.863 0.03-4.281 0.2-0.411 0.02-0.964-0.09-1.057-0.57-0.127-0.59 0.073-1.19 0.111-1.78 0.137-1.06 0.204-2.18 0.803-3.09 0.482-0.82 1.156-1.5 1.768-2.22 0.55-0.82 0.868-1.77 1.066-2.72 0.137-1.05 0.007-2.12 0.128-3.17 0.082-0.94 0.268-1.92 0.845-2.7 0.503-0.55 1.303-0.82 1.616-1.54 0.138-0.23 0.305-0.46 0.56-0.57z"></path><path id="path1325" sodipodi:rx="7.9437737" sodipodi:ry="4.0807056" style="opacity:.5;filter:url(#filter2893);fill-rule:evenodd;fill:url(#radialGradient1880)" sodipodi:type="arc" d="m28.402 158.7a7.9438 4.0807 0 1 1 -15.888 0 7.9438 4.0807 0 1 1 15.888 0z" transform="translate(12.225 32.643)" sodipodi:cy="158.69876" sodipodi:cx="20.457939"></path><path id="path1669" style="fill:#5c2700" d="m33.356 166.93c-0.259 0-0.818 0.41-1.219 0.94s-0.925 0.97-1.187 0.97c-0.648 0-1.46 3.19-1.25 4.97 0.165 1.4-0.418 2.94-1.656 4.28-0.362 0.39-0.657 0.94-0.657 1.22 0 0.53-1.337 3.2-1.75 3.5-0.129 0.09-0.03 0.46 0.219 0.84 0.354 0.54 0.372 0.71 0.094 0.81-0.269 0.1-0.258 0.28-0.031 0.66 0.428 0.73 1.871 0.94 3.343 0.5 0.687-0.21 1.345-0.28 1.469-0.16 0.125 0.13 0.289 0.92 0.375 1.75 0.133 1.29 0.086 1.63-0.406 2.25-0.32 0.41-0.594 0.98-0.594 1.25s-0.131 0.57-0.281 0.66-0.25 0.3-0.25 0.44c0 0.38 1.032 0.28 1.719-0.16 0.49-0.31 0.857-0.31 2.031-0.06 1.056 0.22 1.6 0.22 1.937 0 0.543-0.35 0.479-1.46-0.093-1.78-0.594-0.34-0.972-2-0.657-2.91 0.273-0.78 1.574-1.41 2.969-1.41 0.545 0 0.588-0.08 0.438-0.84-0.094-0.47-0.156-0.99-0.157-1.16 0-0.16-0.304-0.67-0.687-1.12-0.562-0.65-0.691-1-0.563-1.78 0.091-0.56-0.023-1.66-0.281-2.6-0.247-0.9-0.43-2.12-0.406-2.68 0.03-0.71-0.087-1.08-0.375-1.19-0.338-0.13-0.438-0.64-0.438-2.69 0-1.49-0.113-2.64-0.281-2.75-0.158-0.1-0.243-0.3-0.187-0.47 0.145-0.43-0.632-1.28-1.188-1.28zm-0.031 0.47l0.469 0.69c0.34 0.52 0.44 1.32 0.437 3.19-0.003 1.94 0.11 2.61 0.469 3.03 0.253 0.29 0.452 1 0.469 1.56 0.016 0.56 0.172 1.68 0.343 2.47 0.172 0.79 0.246 1.77 0.157 2.22-0.118 0.58 0.042 1.14 0.562 2.03 0.976 1.66 0.921 2.25-0.187 2.5-1.691 0.37-2.779 0.38-3.25 0.03-0.261-0.19-0.428-0.42-0.344-0.5 0.45-0.45-1.085-0.41-2.469 0.06-1.705 0.59-2.777 0.69-3.375 0.31-0.269-0.17-0.29-0.29-0.062-0.43 0.172-0.11 0.248-0.43 0.156-0.72-0.103-0.33 0.138-1.14 0.656-2.1 0.461-0.85 0.844-1.79 0.844-2.12s0.301-0.89 0.656-1.25c1.296-1.31 2.075-3.83 1.594-5.13-0.308-0.83 0.368-2.97 1.062-3.34 0.281-0.15 0.526-0.41 0.532-0.59 0.005-0.19 0.302-0.7 0.656-1.13l0.625-0.78z"></path></g></g><metadata></metadata></svg> 