<?xml version="1.0" encoding="UTF-8" standalone="no"?> <!-- Created with Inkscape (http://www.inkscape.org/) --> <svg xmlns:rdf="http://www.w3.org/1999/02/22-rdf-syntax-ns#" xmlns="http://www.w3.org/2000/svg" xmlns:cc="http://web.resource.org/cc/" xmlns:dc="http://purl.org/dc/elements/1.1/" xmlns:svg="http://www.w3.org/2000/svg" xmlns:inkscape="http://www.inkscape.org/namespaces/inkscape" xmlns:sodipodi="http://sodipodi.sourceforge.net/DTD/sodipodi-0.dtd" xmlns:ns1="http://sozi.baierouge.fr" xmlns:xlink="http://www.w3.org/1999/xlink" id="svg2780" viewBox="0 0 210.67 246.76" inkscape:version="0.91 r13725"><g id="layer1" transform="translate(-71.772 -742.22)"><path id="path3282" style="fill-rule:evenodd;stroke:#000000;stroke-width:2;fill:#feec01" d="m72.772 743.22l3.794 159.38c2.71 113.8 198.36 113.8 201.07 0l3.8-159.38h-208.67z"></path><path id="path16126" style="stroke-linejoin:round;fill-rule:evenodd;color:#000000;stroke:#efd905;stroke-width:1px;fill:#000000" d="m216.02 951.34c-1.72 2.06-7.91 1.63-11.14 1.34-3.33-0.3-5.07-3.54-3.82-3.87 1.23-0.32 2.15-1.64 2.06-2.86-0.09-1.31 4.34-1.6 5.44-1.42 1.01 0.16 1.71 3.01 2.91 4.56 1.25 1.62 3.18 1.97 4.55 2.25z"></path><path id="path16132" style="stroke-linejoin:round;fill-rule:evenodd;color:#000000;stroke:#efd905;stroke-width:1px;fill:#000000" d="m103.43 813.86c2.03 5.89 3.87 11.12 5.1 15.02 0.82-1.35 1.27-2.95 2.1-4.31 1.38 5 3.28 10.15 5.46 12.59 0.41-1.41 1.19-3.32 1.6-4.73 1.12 4.32 3.1 8.76 5.63 11.05 0.12-2.58 0.16-4.76 0.28-7.34 1.14 4.49 3.08 9.51 4.67 12.42 0.88-2.58 1.33-5.34 1.86-8.63 0.85 4.11 3.19 9.22 4.83 12.1 0.97-2.59 1.38-4.84 1.62-7.65 0.47 1.76 2.29 3.91 2.76 5.67l18.41-2.73-4.55-25.43-14.77-4.51c-5.59-2.52-15.39-9.42-19.43-13.2-4.1-3.83-2.32-8.78-1.67-10.84 0.65-2.08 2.52-1.61 3.96-2.46 1.5-0.88 2.14-1.66 2.91-2.65 0.73-0.94-0.79-1.43-1.5-2.29-0.7-0.85-2.64-6.23-6.06-4.91-3.53 1.37-11.32 1.94-11.68-2.42-0.36-4.27-6.043 2.01-7.453 3.06-1.41 1.06-1.124 3.07-0.243 4.04l6.166 28.15z"></path><path id="path16130" style="stroke-linejoin:round;fill-rule:evenodd;color:#000000;stroke:#efd905;stroke-width:1px;fill:#000000" d="m125.76 920.75l-2.61 20.35c-3.3 3.23 2.09 3.76 3.16 5.1 1.08 1.34 3.11 1 6.45 0.07 3.26-0.9 10.01-2.78 16.55-3.18 6.53-0.39 14.06-1.72 18.57-3.35-7.03-1.73-0.42-1.1 6.02-4.48-7.42-1.74 2.45-1.96 9.6-5.6-10.54-1.21 0.21-1.28 8.73-6.99-14.44-0.69-1.65-2.67 5.21-6.09-9.18-1.09-5.04-0.86 0.75-5.5-25.95-5.48-0.29-20.67 2.32-21.29 2.62-0.62 2.57 0.91 2.15-4.32 0.63 8.49 1.65 12.77 3.38 16.92 0.69-0.62 1.09-1.16 2.16-2.03 0.54 3.55 3.37 8.47 6.84 12.98 0.67-1.33 0.81-3.75 1.01-5.88 0 0 5.65 5.61 13.16 11.85 7.57 6.28-9.26 30.61-15.12 32.33-5.83 1.7-8.79 1.62-11.62 0-2.88-1.65-4.72 0.57-4.52 1.75 0.24 1.39 0.24 2.17-0.01 3.37-0.25 1.18-1.14 2.9-0.38 4.03 0.76 1.12 3.47 1.35 5.08 0.23 2.42-1.38 3.62-2.25 6.38-2.67-2.68 0.32-8.29 2.93-8.83 4.92-0.56 2.07 6.91 5.34 8.61 4.89 1.86-0.49 8.77-7.53 8.7-7.52-0.07 0-6.55 5.29-6.43 6.97s3.75 3.2 5.89 3.39 2.75-1.58 6.22-4.38c3.48-2.8 7.72-4.3 9.6-9.08 1.82-4.64 8.78-8.62 12.89-11.55-6.97 0.68-1.25-1.88 5.04-8.9-9.42 2.27-2.27-0.62 3.49-7.88-9.65 2.93-1.95-0.85 2.5-11.9-11.92 8.24-2.12-0.44 1.11-8.7-8.97 5.69-5.25 2.42-3.26-4.91-14.37 10.85-14.4-6.06-19.29-17.86 11.31 7.06 22.76 6.35 24.97-9.68 2.2-15.95-14.71-41.25-18.15-52.95-3.51-11.92-2.03-13.21-0.35-13.74 1.67-0.53 11.03-3.61 15.33-7.58 4.34-4.01 8.19-9.07 5.37-20.79-1.67 11.32-14.68 18.29-19.91 22.82 5.29-4.58 18.28-11.37 20-22.73 0.46-3.07-0.09-12.7-7.39-13.17 2.29 2.04 2.7 8.26 0.91 11.65 1.52-3.13 1.32-9.48-0.97-11.7-2.25-2.17-4.34-2.99-7.49-3.13-3.16-0.13-2.34 1.82 0.02 3 2.94 1.47 4.03 2.95 3.52 7.81-0.5 4.77-7.7 6.42-13.8 14.79s-5.87 22.64-2.99 32.95c2.9 10.42 11.12 23.5 14.3 31.45 3.14 7.84 6.14 15.71 3.46 22.54-2.63 6.72-8.54 4.66-12.09 2.1-3.5-2.52-7.02-5.17-11.39-14.6-4.31-9.31-12.87-20.99-16.26-26.49-3.36-5.45-10.34-15.44-13.95-15.92-34.63 1.34-60.87 29.13-68.61 36.14-7.94 7.17-14.64 13.02-20.38 9.8-4.46-2.51-8.2-3.6-9.12-4.83-1.243-1.63-6.045-1.08-7.807 1.04-1.762 2.11-1.234 6.25-0.881 7.31 0.352 1.06 3.171 3.26 4.229 2.56 1.057-0.71 4.14-1.33 5.899-1.33-7.266 1.14-10.25 2.66-9.952 3.97 0.317 1.39 3.612 5.37 5.022 6.61 1.409 1.23 3.083 1.58 3.96 0.17 0.89-1.41 4.85-4.14 7.32-5.99-4.8 3.86-5.35 4.41-5.99 6.43-0.61 1.92 4.22 4.14 5.81 4.85 1.59 0.7 2.13 0.47 5.29-1.68 3.11-2.11 3.3 0.14 8.19-2.11 4.82-2.22 8.19-3.88 19.38-1.59-0.82-3.75-12.74-5.22 7.23-5.11-5-2.49-5.41-4.37 8.28-4.14-8.14-4.96-1.82-3.31 9.16-3.34-6.75-3.09-15.8-5.29 8.02-3.88 0 0-1.32-1.85-4.14-3.26s3.25-1.5 5.37-1.85c2.11-0.34 3.36-0.45 5.93-3.01 2.61-2.53-0.97-5.46-1.74-6.28 0.62 0.79 4.21 4.12 1.87 6.23-2.3 2.06-1.72 1.52-3.59 2.88 2.97 1.63 4.93 1.68 7.22 2.03s4.1 0.64 5.51-0.6c1.41-1.23 2.31-1.03 3.36-1.73-1.04 0.69-2.55 1.42-3.32 1.89 1.07 2.67 8.07 4.81 11.36 9.49-3.22-4.61-2.53-2.28-4.26-4.24-10.47-0.67-32.04 5.56-39.43 23.16 1.37-0.08 2.04 0.28 3.76-0.51-1.62 3.2-2.2 8.36-1.33 12.43 1.38-1.53 1.94-3.24 3.72-4.29 0 0 1.01 7.45 2.81 7.88 1.82 0.43 0.94 1.34 0.39 2.54-0.69 1.53-10.31 16.98-20.47 17.33-9.71 0.34-11.15 1.71-11.15-1.06 0-2.24 0.57-4.43 0.57-5.55s-0.33-2.79-1.45-2.29-3.35-0.69-5.06-1.01c-1.71-0.33-3.62 0.97-3.62 3.22zm74.23-56.36c0.78 1.46 1.93 7.71 2.56 10.33"></path><path id="path16140" style="stroke-linejoin:round;fill-rule:evenodd;color:#000000;stroke:#efd905;stroke-width:1px;fill:#000000" d="m212.73 835.33c-7.52-5.15-10.03-8.44-16.68-9.73 3.06 5.4 4.14 10.67 4.34 16.82-2.87-4.11-6.98-7.35-12.09-10.22 1.08 5.94 1.67 12.88-1.49 17.7-1.5-3.78-2.99-8.14-5.61-11.22 0 2.2-0.12 4.28-0.25 5.49-9.01-11.43-21.96-10.14-36.88 1.12-1.08-7.46 0.34-16.04 1.87-22-3.28 3.06-4.44 5.24-7.22 9.54-1.21-9.96 1.7-21.66 7.6-30.62-2.66 2.11-6.07 5.59-8.48 6.94 1.42-6.72 5.2-13.83 9.6-19.18-2.18 0.58-6.1 3.15-7.66 3.98 1.31-5.23 7.22-13.7 12.14-18.19-2.16 0.17-5.94 2.08-7.72 2.74 3.64-4.48 8.91-9.84 13.67-13.33-2.06 0.17-3.12 0.8-5.44-0.15 7.23-5.13 14.74-10.57 23.8-12.22 9.15-1.67 8.85-1.35 15.3 4.5l-10.41 21.97 2.56 16.13c0.04 5.6 6.08 9.64 15.46 9.64-0.59 1.84-3.2 3.64-4.85 4.24 4.48 1.91 8.47 2.32 12.83 3.74-2.62 0.91-3.24 2.45-7.85 2.61 5.79 5.24 13.03 13.47 13.46 19.7z"></path><path id="path16124" style="stroke-linejoin:round;fill-rule:evenodd;color:#000000;stroke:#efd905;stroke-width:1px;fill:#000000" d="m125.05 938.2c7.08 5.94 8.74 7.41 15.86 7.03 7.11-0.38 8.45-0.62 5.52-4.72-2.98-4.15-13.79-4.79-17.21-9.23-3.45-4.48-3.6-8.42-3.6-9.54 0-1.13-3.6-2.08-4.49-0.2-0.91 1.92-4.29 1.53-4.33 3.85s-1.04 5.31 3.23 6.18l5.02 6.63z"></path><path id="path16142" style="stroke-linejoin:round;fill-rule:evenodd;color:#000000;stroke:#efd905;stroke-width:1px;fill:#000000" d="m124.61 940.4c-2.81 2.01-3.19 1.26-4.39 0.46-1.2-0.81-2.94-3.19-2.36-5.14 0.57-1.96-1.19-4.14 0.88-4.06 1.68 0.07 5.74-0.05 5.82-1.16 0.14 0.17 0.08 1.89 0.06 2.18-0.13 1.99 2.88 5.65-0.01 7.72z"></path><path id="path16120" style="stroke-linejoin:round;fill-rule:evenodd;color:#000000;stroke:#efd905;stroke-width:1px;fill:#000000" d="m114.12 869.15c-7.05 2.29-10.2-1.52-12.49-3.9-2.288-2.38 0.22-4.55 1.54-5.61s4.64 0.57 6.05 0.31c1.41-0.27 2.42-1.3 3.39 0.02s-0.02 3.96-0.02 5.28 0.82 2.49 1.53 3.9z"></path><path id="path16116" style="stroke-linejoin:round;fill-rule:evenodd;color:#000000;stroke:#efd905;stroke-width:1px;fill:#000000" d="m98.808 799.46l4.252-6.12c-2.61-1.14-4.186-6.22-5.762-7.53s-4.372 4.58-4.372 4.58c0.176 2.53 1.489 6.54 5.882 9.07z"></path><path id="path16118" style="stroke-linejoin:round;fill-rule:evenodd;color:#000000;stroke:#efd905;stroke-width:1px;fill:#000000" d="m103.52 812.89c-6.254-6.25-8.094-12.42-4.883-17.84 3.253-5.49 9.153-8.42 10.513-9.23-1.45 0.87-2.97 1.54-4.2 2.51s-0.39-1.16-0.47-4.02-0.17-6.75 2.15-7.19c2.33-0.44 10.79 2.72 8.68 4.36-2.15 1.68-5.14 8.13-5.54 14.83-0.41 6.93-2.37 13.85-6.25 16.58z"></path><path id="path3598" style="fill-rule:evenodd;color:#000000;stroke:#000000;stroke-width:1px;fill:#b20f18" d="m102.1 896.66c-2.04-5.89-0.52-9.1 1.15-11.65 1.01 0.71 3.43 2.27 3.98 3.47-1.95 1.06-4.96 4.51-5.13 8.18z"></path><path id="path3600" style="fill-rule:evenodd;color:#000000;stroke:#000000;stroke-width:1px;fill:#b20f18" d="m87.626 885.5c1.791-5.97 3.874-7.65 7.072-8.55 0.402 1.16 0.927 3.44 0.493 4.74-2.197 0.16-4.799 1.17-7.565 3.81z"></path><path id="path3602" style="fill-rule:evenodd;color:#000000;stroke:#000000;stroke-width:1px;fill:#b20f18" d="m84.646 864.21c2.742-2.46 8.459-2.04 11.162-0.63-0.157 1.42-1.551 3.23-3.136 3.55-1.579-1.53-4.213-2.61-8.026-2.92z"></path><path id="path3596" style="fill-rule:evenodd;color:#000000;stroke:#000000;stroke-width:1px;fill:#b20f18" d="m101.21 854.08c6.53 0.12 7.98 2.33 9.23 5.93-1.08 0.58-3.05 0.31-4.38 0.26 0.38-2.76-1.45-4.06-4.85-6.19z"></path><path id="path3572" style="fill-rule:evenodd;color:#000000;stroke:#000000;stroke-width:1px;fill:#b20f18" d="m214.09 976.95c-3.84-4.7-2.56-8.02-1.24-9.43 1.15 0.44 2.12 0.88 3.17 2.03-1.23 1.67-1.93 3.96-1.93 7.4z"></path><path id="path3574" style="fill-rule:evenodd;color:#000000;stroke:#000000;stroke-width:1px;fill:#b20f18" d="m197.2 971.4c-0.42-6.05 3.15-7.94 5.04-8.33 0.69 1.02 1.22 1.94 1.43 3.48-1.97 0.66-4.49 2.04-6.47 4.85z"></path><path id="path3576" style="fill-rule:evenodd;color:#000000;stroke:#000000;stroke-width:1px;fill:#b20f18" d="m187.88 957.5c4.09-4.71 7.7-4.2 10.74-4.03-0.11 1.23-0.09 2.63-0.64 4.32-1.95-0.73-6.79-1.24-10.1-0.29z"></path><path id="path3578" style="fill-rule:evenodd;color:#000000;stroke:#000000;stroke-width:1px;fill:#b20f18" d="m195.43 944.13c6.21-2.33 8.67-0.28 11.17 1.46-0.73 0.99-2.06 1.49-3.14 2.03-1.29-1.64-2.78-3.63-8.03-3.49z"></path><path id="path3586" style="fill-rule:evenodd;color:#000000;stroke:#000000;stroke-width:1px;fill:#b20f18" d="m122 952.64c-1.38-6.08-0.06-7.28 1.89-9.62 0.92 0.82 1.62 1.28 2.03 2.54-2.35 0.88-2.81 3.42-3.92 7.08z"></path><path id="path3588" style="fill-rule:evenodd;color:#000000;stroke:#000000;stroke-width:1px;fill:#b20f18" d="m111.18 938.05c3.34-5.26 5.12-5.17 8.15-5.45 0.07 1.23 0.24 2.06-0.36 3.24-2.29-1.05-4.42 0.42-7.79 2.21z"></path><path id="path3592" style="fill-rule:evenodd;color:#000000;stroke:#000000;stroke-width:1px;fill:#b20f18" d="m112.85 919.93c6.09-1.33 7.98 0.09 10.31 2.05-0.47 1.18-2.53 2.23-3.79 2.64-0.86-2.37-2.87-3.55-6.52-4.69z"></path><path id="path3590" style="fill-rule:evenodd;color:#000000;stroke:#000000;stroke-width:1px;fill:#b20f18" d="m129.84 912.14c5.06 3.65 4.59 5.51 4.68 8.55-1.22 0-3.03 0.12-4.17-0.56 0.57-2.12 1.08-4.51-0.51-7.99z"></path><path id="path3612" style="fill-rule:evenodd;color:#000000;stroke:#000000;stroke-width:1px;fill:#b20f18" d="m123.56 777.75c0.84 3.03 1.25 7.78 0.03 9.21-1-0.21-2.34-1.65-2.74-2.92 0.79-0.74 2.63-2.28 2.71-6.29z"></path><path id="path3614" style="fill-rule:evenodd;color:#000000;stroke:#000000;stroke-width:1px;fill:#b20f18" d="m111.85 770.44c3.62 3.69 3.74 7.36 2.66 9.62-1.39 0.04-2.82-0.46-3.7-1.27 1.25-2.3 1.21-4.97 1.04-8.35z"></path><path id="path3616" style="fill-rule:evenodd;color:#000000;stroke:#000000;stroke-width:1px;fill:#b20f18" d="m93.168 774.05c6.533 0.12 8.242 1.89 9.492 5.5-0.46 0.75-2.26 2.24-3.586 2.19-0.062-2.5-2.507-5.55-5.906-7.69z"></path><path id="path3610" style="fill-rule:evenodd;color:#000000;stroke:#000000;stroke-width:1px;fill:#b20f18" d="m84.182 785.95c5.475-1.59 9.887-1.57 12.3 1.39-0.818 0.91-1.105 2.45-2.369 2.85-2.085-2.9-5.037-3.66-9.931-4.24z"></path><path id="path16138" style="stroke-linejoin:round;fill-rule:evenodd;color:#000000;stroke:#efd905;stroke-width:1px;fill:#000000" d="m169.49 764.3c-18.03 22.51-4.66 34.42 8.76 31.31 13.43-3.11 10.33 0.77 13.41 1.32 3.38 0.6 5.88-1.14 7.36-1.51 1.5-0.37 0.67-2.13-1.07-3.01-1.74-0.87-6.39-3.1-9.65-3.87-3.52-0.84-6.09 0.47-4.89-3.45 1.2-3.91 4.89-9.7 7.14-11.44 2.24-1.75 3.6-1.92 5.47 0.08 1.87 1.99 4.49 7.06 8.6 4.7 4.11-2.37 5.64-6.14 4.25-7.64-1.58-1.7-2.83-3.19-0.41-0.79 3.41 3.39 2.83-2.11-0.51-4.86-2.02-1.66-6.56-3.83-9.18-5.57-2.56-1.71-6.35-3.87-12.21-3.74-4.73 0.1-3.43 1.83-7.6-2.12-4.3-4.07-17.82-2.99-9.47 10.59z"></path><path id="path3551" style="fill-rule:evenodd;color:#000000;stroke:#000000;stroke-width:1px;fill:#b20f18" d="m196.52 792.73l1.55-5.11-4.77 3.22 0.1-3.13-3 2.38 6.12 2.64z"></path><path id="path3549" style="fill-rule:evenodd;color:#000000;stroke:#000000;stroke-width:1px;fill:#b20f18" d="m196.09 772.12l-0.15 6.69 3.2-3.62-0.21 6 3.25-3.87-6.09-5.2z"></path><path id="path16144" style="stroke-linejoin:round;fill-rule:evenodd;color:#000000;stroke:#efd905;stroke-width:1px;fill:#000000" d="m203.18 885.12s0.17-7.92-0.21-9.29c-0.39-1.44-1.56-2.94-3.02-3.33-1.65-0.44-6.43-1.45-5.64-0.39s4.99 3.28 4.99 4.96c0 1.67-0.24 4.83 0.33 6.65 0.58 1.84 2.94 1.49 3.55 1.4z"></path><path id="path16134" style="fill-rule:evenodd;color:#000000;fill:#efd905" d="m191 766.48c-1.22-0.13-1.58 0.03-2.39-0.36-1.01-0.49-1.12-0.75-1.22-2.08-0.11-1.33 1.84-2.67 0.08-2.67-1.69 0-1.94-1.21-0.41-1.18 1.52 0.03 4.84 1.44 5.75 1.8 0.89 0.35 0.92 1.42-0.22 1-1.16-0.42-1.29-0.79-2.32-1.02s-1.92 0.93-0.52 1.36c1.3 0.39 1.23 1.52-0.43 0.82-1.63-0.69-0.39 1.27 0.49 1.43 0.88 0.17 0.93 0.21 1.65 0.24 0.73 0.02 0.76 0.8-0.46 0.66z"></path><path id="path16136" style="color:#000000;stroke:#efd905;stroke-linecap:round;stroke-width:1px;fill:none" d="m173.46 755.79c1.3 0.55 3.39 2.52 4.69 3.82"></path><path id="path3553" style="fill-rule:evenodd;color:#000000;stroke:#000000;stroke-width:1px;fill:#b20f18" d="m182.22 785.71c11.25-0.21 17.66 0.78 22.16 3.34 5.03 2.86 12.92 5.16 17.19 3.77 4.59-1.5 3.91-4.84 3.47-7.22s-1.77-2.41-2.72-1.42c-1.15 1.22-8.89 4.02-14.98 1.8-6.94-2.53-8.69-4.49-24.01-3.78-0.66 0.7-0.89 2.11-1.11 3.51z"></path></g><metadata></metadata></svg> 