<?xml version="1.0" encoding="UTF-8" standalone="no"?> <!-- Generator: Adobe Illustrator 13.0.2, SVG Export Plug-In . SVG Version: 6.00 Build 14948) --> <svg xmlns:rdf="http://www.w3.org/1999/02/22-rdf-syntax-ns#" xmlns="http://www.w3.org/2000/svg" xmlns:cc="http://web.resource.org/cc/" xmlns:xlink="http://www.w3.org/1999/xlink" xmlns:dc="http://purl.org/dc/elements/1.1/" xmlns:svg="http://www.w3.org/2000/svg" xmlns:inkscape="http://www.inkscape.org/namespaces/inkscape" xmlns:sodipodi="http://sodipodi.sourceforge.net/DTD/sodipodi-0.dtd" xmlns:ns1="http://sozi.baierouge.fr" id="Layer_1" style="enable-background:new 0 0 449.16 316.232" xml:space="preserve" viewBox="0 0 449.16 316.232" y="0px" x="0px"> <path style="clip-rule:evenodd;fill-rule:evenodd" d="m271.93 33.8c2.29-0.191 3.341 0.859 3.149 3.15-0.98-1.121-3.87-0.326-3.15-3.15z"></path> <path style="clip-rule:evenodd;fill-rule:evenodd" d="m247.78 99.945c0.692-3.145 2.245 1.003 4.2 0-0.199 0.851-1.053 1.046-1.05 2.099h-2.1c0.17-1.22-0.23-1.86-1.05-2.095z"></path> <path style="clip-rule:evenodd;fill-rule:evenodd" d="m223.64 140.89c1.883-0.133 2.215 1.285 4.201 1.051-0.255 1.846-1.808 2.394-4.201 2.099v-3.15z"></path> <path style="clip-rule:evenodd;fill-rule:evenodd" d="m186.89 197.59c3.296-0.496 2.774 2.825 5.25 3.149-0.99 4.11-5.11-0.21-5.25-3.15z"></path> <path style="clip-rule:evenodd;fill-rule:evenodd" d="m283.48 225.94c2.177 2.723 3.208 6.59 4.198 10.5-1.882-0.136-2.213 1.285-4.198 1.049 1.147-4.647-1.779-5.222-2.102-8.398 2.24 0.49 2-1.5 2.1-3.15z"></path> <path style="clip-rule:evenodd;fill-rule:evenodd" d="m284.53 239.59c3.287 1.35 0.541 2.17 2.101 5.249-3.63 0.73-3.76-3.68-2.1-5.25z"></path> <path style="clip-rule:evenodd;fill-rule:evenodd" d="m338.08 255.34c3.18-3.89 3.54 3.18 0 0z"></path> <path style="clip-rule:evenodd;fill-rule:evenodd" d="m402.13 260.58c1.454-2.394 7.307-0.391 10.497-1.048-2.77 3.2-6 1.17-10.5 1.05z"></path> <path style="clip-rule:evenodd;fill-rule:evenodd" d="m319.18 263.73c1.699 1.453 2.584 3.717 6.299 3.152 0.578 2.327-2.004 1.493-2.099 3.149-2.988-0.861-5.33-2.37-6.3-5.251 1.22 0.18 1.87-0.23 2.1-1.05z"></path> <path style="clip-rule:evenodd;fill-rule:evenodd" d="m406.32 267.94c1.117-2.383 6.601-0.4 9.449-1.049-1.11 2.38-6.59 0.4-9.45 1.05z"></path> <path style="clip-rule:evenodd;fill-rule:evenodd" d="m212.09 267.94c1.292 0.459 2.156 1.345 2.1 3.149-1.29-0.46-2.16-1.35-2.1-3.15z"></path> <path style="clip-rule:evenodd;fill-rule:evenodd" d="m411.57 272.14c1.117-2.383 6.601-0.4 9.449-1.051-1.11 2.38-6.6 0.39-9.45 1.05z"></path> <path style="clip-rule:evenodd;fill-rule:evenodd" d="m371.68 277.38c5.13-2.78 7.91 3.48 0 0z"></path> <path style="clip-rule:evenodd;fill-rule:evenodd" d="m408.42 277.38c1.454-2.394 7.307-0.391 10.5-1.048-1.45 2.4-7.3 0.4-10.5 1.05z"></path> <path style="clip-rule:evenodd;fill-rule:evenodd" d="m408.42 293.13h5.249c-1.8 0.58-5.84 6.25-5.25 0z"></path> <path style="clip-rule:evenodd;fill-rule:evenodd" d="m447.27 300.48c4.397-0.67 0.021 8.959-2.1 5.249 1.19-1.26 3-1.9 2.1-5.25z"></path> <path style="clip-rule:evenodd;fill-rule:evenodd" d="m202.64 6.502c1.693-3.958 7.536-0.971 10.499 0 1.123 3.923-2.607 2.993-2.1 6.299 4.573 3.124 8.7 1.201 13.649 0-3.934-7.367 11.531-13.75 12.601-4.2-2.98 0.18-2.05-3.549-6.3-2.099-0.851 0.2-1.048 1.053-2.101 1.05-1.203 4.353 2.208 4.091 2.101 7.348 5.31-0.44-0.066-6.102 4.198-6.299-0.754 6.005 5.249 5.253 3.15 12.599 10.254-4.63 17.615-1.403 26.247-5.249 4.929 2.071 8.274 5.726 15.751 5.249-2.68 3.869-1.317 9.967-1.051 14.7-3.515-2.434-4.164-7.737-10.5-7.35-0.444-2.193 0.72-2.78 1.051-4.198-1.86 0.238-5.257-1.06-4.2 2.099-4.037-1.347 0.7-5.378-4.2-6.3-2.426 2.157-0.726 9.067 0 11.548 2.107 0.359 3.285-0.215 3.149-2.099 2.277-0.176 0.478 3.723 1.051 5.249h-6.299v-5.249c-5.279 0.112-6.271 0.619-11.551 2.099-2.03-3.569-2.507-8.69-9.448-7.348 0.335 2.464 1.658 3.94 1.05 7.348-2.206 0.866-4.093 4.323-6.301 2.101-2.071 0.726-2.798 2.799-3.15 5.249 3.588 0.788 1.337-4.265 5.251-3.15 2.42 2.131 4.931 4.168 7.351 6.299 5.158 0.069 10.25-0.219 14.699 2.101 1.517 0.791 2.424 3.3 4.198 4.198 1.081 0.548 3.174-0.629 4.2 0 3.932 2.415 6.3 6.955 9.449 9.451 1.502 1.188 7.444 3.206 9.449 5.249 0.612 0.623 0.593 2.441 1.051 3.15 1.858 2.879 4.945 4.61 7.35 7.35 8.656 9.863 12.341 22.748 18.897 33.598 1.214 2.007 2.922 3.543 4.2 6.299v7.35c6.85 1.899 10.717 6.783 13.649 12.599 1.242 4.294-1.362 7.55-1.051 9.449 0.819 4.995 4.568 4.396 6.302 7.35 2.8 4.774 2.519 8.77 4.198 15.748 0.275 1.137 0.036 2.789 3.149 3.152-6.347-0.007-1.534 11.713-1.048 17.847 1.47 18.646-0.394 45.836 4.198 56.696 4.222 0.152 2.777-2.692 2.101-5.249 5.023 1.84 9.005 1.079 9.449-4.2 4.062-0.913 3.734 2.565 6.299 3.15 4.652 0.101 4.805-4.295 6.3-7.351 3.813-1.074 1.45 3.582 4.2 5.251 1.001 0.608 3.242-0.661 4.2 0 1.699 1.173 1.672 7.976 6.3 3.149-0.325-1.424-2.63-0.872-4.2-1.05 3.003-2.746 2.711-3.326 3.149-7.351 2.756 2.055 6.714 5.874 3.149 8.4 3.659 0.476 3.917-4.011 10.5-3.149-1.783 5.217-12.36 1.5-14.7 8.398 0.771 0.981 1.91 1.592 3.149 2.102 2.619-6.139 0.58 0.675 5.251 2.099 1.534 0.469 3.797-0.648 5.249 0 8.336 3.722 17.821 8.959 24.148 9.449 0.593 2.034 4.852 6.186 9.449 7.35-4.316 1.068 2.095 4.934 2.102 5.251 0.011 0.696-4.517 5.947-4.2 10.498-7.886 5.766-17.764 9.534-25.197 15.75 1.168 2.679 8.119-0.421 9.448 2.099 4.759 0.911 2.456-5.244 6.3-5.248 2.105 2.138 0.272 2.795-1.051 4.2 1.59 3.173 4.608-0.872 7.35 0 0.387-1.788-0.818-1.981-2.099-2.102-0.475-2.922 5.722 0.823 5.249-2.099 3.218 1.031-1.208 2.799-1.051 4.2 3.457 2.972 8.583 1.233 15.75 2.099-0.605 0.637-2.458 4.98 0 5.249-1.171 2.109-8.121 1.205-9.448 0-5.877 6.128-22.476-0.868-29.4 4.2 0.589 2.372 1.638-1.274 3.149 1.051-0.655 2.243-6.462 0.984-7.35 0 0.03-1.022 1.287-0.816 2.102-1.051-1.799-2.402-8.014-0.385-11.551-1.051 0.454 2.349 5.176 0.426 7.351 1.051-11.469 10.436-33.688-1.726-46.197 6.3 0.046-1.797-0.779-2.718-2.101-3.15-8.062 3.272-11.859-2.911-16.799 3.15-1.983-0.116-0.729-3.47-3.15-3.15-3.939 4.467-3.029-0.202-9.448 3.15 1.712-6.433-12.536-1.681-5.249 0-3.01 3.28-4.626-3.713-7.35-4.2-4.289 10.565-24.697-2.162-33.598 5.25 1.531-5.382-5.877-1.823-6.3-5.25-1.235 1.563-2.636 2.965-4.2 4.2-5.142-2.583-11.773 2.202-14.7-3.15-7.874 4.044-22.031 0.127-28.347 3.15-0.033-3.183 5.282-1.017 5.249-4.2-1.784-4.746-6.818 0.244-9.449 1.05-4.837-2.101-17.653-5.262-22.049-1.05-2.161-2.207-9.637-3.567-11.549 0-2.141-0.308-2.058-2.841-4.2-3.15-11.594 2.054-21 0.211-38.846-2.099-2.909 2.481-6.464 0.428-11.55 2.099 0.556-0.844 1.096-1.703 1.05-3.149-9.557 1.156-18.098-2.612-24.148 1.051-6.196-4.184-19.272-5.116-27.299-4.2-0.085-0.177 0.112-2.082 0-2.1-7.528-1.23-15.367-2.125-25.198-2.099 0.117-1.985 3.472-0.73 3.149-3.152 34.512 5.165 81.95 10.833 122.84 12.602 37.342 1.613 79.44 1.525 119.69-1.051 31.823-2.037 55.776-3.346 82.944-9.449 18.332-4.121 43.817-11.483 47.247-22.05 4.007-12.341-14.034-14.326-21-19.948-2.086 0.015-1.334 2.866-4.197 2.101 4.086-6.089-14.593-5.971-18.9-10.499-1.949 5.398-12.317 2.383-15.748 6.299 2.94 4.028 9.779-1.615 11.548 4.2 4.847-1.452 9.951-2.648 16.799-2.101 0.084 3.934-7.432 0.267-7.348 4.2 2.054 3.695 5.268 0.769 9.448 1.051-1.519 1.63-2.208 4.09-3.149 6.299 0.892 1.558 2.643 2.256 5.249 2.1-0.324 1.424-2.628 0.872-4.2 1.05 1.278 3.623 5.767 4.033 6.302 8.398-1.528 0.576-5.428-1.227-5.251 1.051 2.308 2.972 16.876-0.816 15.748 2.1h-19.948c3.918-1.865-0.196-3.46-4.198-3.15 0.258-1.139 2.086-0.711 2.099-2.099-3.674-2.976-9.782-3.518-12.599-7.35 3.695-0.617 7.853 1.146 14.698 0v-3.15c-1.679-1.821-4.725-2.272-8.398-2.099 0.584-2.143 3.158-2.059 1.048-4.2-2.013-1.944-11.025-1.979-10.497 2.099 4.748-1.352 5.439 4.177 11.548 4.2-3.726 3.657-6.793-2.251-11.548-1.051-0.011 4.923-5.781 9.576-4.2 12.602-4.696 3.801-18.732 7.987-18.9-4.2-1.379 1.069-3.869 1.028-5.249 2.099-0.498 3.998 0.445 6.555 3.15 7.35-7.211 1.317 3.289 3.983 8.4 1.051 0.385 1.785-0.821 1.981-2.102 2.1-0.337 4.066 8.953 0.027 5.251-2.1 4.191-3.613 18.217-1.508 28.347-2.101-0.451 1.649-3.302 0.897-2.099 4.2-3.942-2.007-12.611 0.713-14.7-3.15-4.92 5.58-14.731 6.268-24.148 7.351-0.34 2.793-1.813 5.242-5.249 7.35-0.507-3.113-2.34-5.171-1.051-8.4-4.054 0.146-4.301 4.1-4.198 8.4-4.981 1.132-5.019-2.682-7.35-4.2-1.987 1.862-6.936 0.765-10.499 1.051 0.423-2.026 4.808-0.093 3.149-4.2-5.844-3.709-9.056 4.217-13.649 5.248-10.64-0.67-26.719 0.907-35.697 5.251-1.952-9.509-0.081-19.042 6.3-23.098 2.689 2.777-6.682 6.744-2.102 11.548 3.638-0.72-1.229-7.672 5.251-7.35-0.116 2.612-1.968 3.25 0 5.25 4.4 1.251 1.874-4.426 4.198-5.25-2.514-3.233-4.778-1.26-3.149-7.349-5.215 2.245-3.47 0.814-8.398-1.05-2.694 2.709-0.432 7.272-6.3 8.398 0.295-3.554 1.67-6.029 1.051-10.498-1.577-1.227-2.567-3.033-5.251-3.149-2.941 0.557-1.939 5.058-3.149 7.348-4.216 0.367-2.77-4.931-5.249-6.299-1.396 1.055-3.908 0.992-4.2 3.149 9.997 4.703 16.133 13.265 17.85 26.25-2.63 0.176-3.287-1.613-4.2-3.152-16.552 1.219-36.436 3.217-51.447 0-2.645 1.906-5.014 4.087-5.25 8.401-2.604 1.361-5.095-2.342-5.25 0-2.073-4.227-7.821-4.778-10.5-8.401h-15.749c-0.386-1.785 0.818-1.98 2.1-2.099-0.326-1.425-2.628-0.87-4.2-1.051-1.191 0.2-0.583 1.055 0 1.051-15.972 3.665-34.146-2.582-48.297-1.051-3.209-1.622 4.554-0.924 6.299-1.049-3.616-3.175-3.082-4.799 1.05-7.35-2.56-1.117-7.493 4.374-12.599 4.2-0.295-1.697 0.993-1.809 1.049-3.151-2.53-0.43-2.282 1.918-5.25 1.051 1.455-4.268-9.79-3.942-12.599-7.351 1.215-3.334 0.555-8.544 5.25-8.398 0.295 1.695-0.993 1.808-1.05 3.15 4.818 0.777 6.361-4.783 3.15-6.3 0.765-2.385 3.16-3.141 5.249-4.2-2.231-1.618-3.909-3.79-6.299-5.249 0.742-2.009 4.927 1.272 6.299 2.1-0.054-2.748 2.933-11.922-5.249-14.7-0.199 5.12-5.674 8.257-5.25 16.799h-3.15c3.479 6.065 0.903 9.979-2.1 14.7-3.266-3.335 2.763-6.284 2.1-10.5-4.284 0.267-3.354 5.745-6.3 7.351-0.13 3.628 2.052 4.947 3.15 7.35-0.791 3.407-5.895 2.505-8.4 4.198 6.711 2.612 10.191 2.995 15.75 0-0.555 0.847-1.096 1.706-1.049 3.151 5.286 1.713 15.15-1.151 16.799 4.198-10.574-0.711-26.973-3.509-38.848-6.299 0.139-2.587 0.159-5.058-1.051-6.3-1.883-0.133-2.214 1.285-4.199 1.051 0.913-5.464-1.65-7.451-6.299-7.35 4.54-6.583 13.94 4.38 15.749 10.499 3.41-0.853 3.025-4.75 7.35-2.101-0.011-3.838-2.075-5.625-4.201-7.349 0.17-1.23 1.915-0.887 3.15-1.05 0.561-4.611-6.811-5.021-4.199-8.401-2.328-0.577-1.495 2.007-3.15 2.102 1.028 1.422 3.54 1.36 4.199 3.149-7.538 1.225-15.81-5.878-24.147-7.35 0.171 1.221-0.232 1.869-1.051 2.099 1.795 4.155 4.601 7.299 5.25 12.602-8.949-1.552-18.23-2.77-25.199-6.3 3.357 6.862 13.192 4.522 19.949 6.3 6.484 1.703 11.172 6.222 16.799 6.299-4.034 2.95-11.334 0.284-16.799-1.051-8.363-2.041-17.369-6.048-23.098-9.448-0.499-3.999 0.446-6.556 3.149-7.351 6.384 2.716 13.25 4.95 19.949 7.351 0.76-3.208-1.073-3.827-1.049-6.3-5.597-0.904-8.987 2.514-11.549-1.051 2.608-4.392 6.384-7.614 12.599-8.398 4.31-1.291 2.554-8.647 7.35-9.451-0.293-2.156-2.805-2.095-4.199-3.149-1.072 2.189-0.083 4.277-2.1 7.35-2.241 0.492-2-1.499-2.1-3.149-3.04 0.811-5.104 2.596-4.2 7.35-3.162-2.436-6.412-4.786-11.549-5.25 0.458-1.292 1.344-2.155 3.149-2.1-19.045-2.133-33.941 5.983-49.346 12.599-0.72 3.384-1.857 6.229-1.051 9.451 0.816 3.253 9.298 9.692 12.6 11.548 10.616 5.971 28.55 7.67 36.748 11.551-9.365 4.44-18.011-6.465-26.248-3.15-1.292-0.459-2.157-1.345-2.1-3.149-12.38-0.2-14.303-10.88-25.168-12.62 3.392-3.33-0.563-12.81 4.199-16.799 5.066 0.516 8.514-0.584 8.399-5.249 13.166-0.82 27.372-9.586 49.347-7.35 0.981-0.77 1.591-1.908 2.1-3.149 7.023 1.381 18.172 0.745 24.149-2.1 0.311-2.761-4.073-0.827-3.151-4.2 2.474-0.023 3.092 1.81 6.301 1.051 2.187-0.31-1.559-2.843 2.099-3.149-2.517-2.875-5.828-1.063-7.349-6.302-0.765-4.6 2.086 0.847 2.1-2.099-0.43-3.072-3.593-3.408-5.25-5.249-0.011 4.559 2.09 7.008 3.15 10.497-2.317 1.184-1.632 5.369-4.2 6.302-4.143-1.497 2.117-6.598 0-12.601-0.871-2.628-2.876-4.123-3.15-7.351 5.651 1.352 10.83 3.172 11.549 9.451 5.814-1.265 6.101 3 10.5 3.15-5.506 0.442-6.278 5.62-8.399 9.448 1.46 3.088 3.632 0.325 5.25 4.201 2.028-2.522 0.812-8.289 5.25-8.401 2.03 2.557-2.583 5.191-1.05 10.5 2.007 1.405 3.757-0.303 5.25 3.149 2.865 0.765 2.114-2.086 4.2-2.099-0.83-12.038 5.169-22.819 3.15-32.55 1.792-1.008 2.301-3.298 3.149-5.248-2.233 8.007 10.459 8.761 13.649 14.699 5.451-2.632-3.367-4.531-4.2-7.35 3.438-0.61 9.136 5.541 12.6 8.398-1.311 0.777-4.303 0.958-7.35 0 5.212 3.685 8.766 14.137 16.799 11.55 0.726-4.226-4.421-2.578-4.199-6.299 2.328-0.578 1.494 2.004 3.149 2.099 0.935-0.466 1.878-0.922 2.1-2.099-2.667-1.883-5.602-3.498-6.3-7.351-8.907-1.592-11.168-9.831-18.898-12.599-1.426 0.325-0.871 2.628-1.051 4.198-3.747-0.89-0.125-2.584-1.049-6.299-0.393-4.697-5.582-0.606-5.25-4.198 1.904-3.423 5.87 2.866 8.399 5.249 3.392 3.192 7.407 4.44 10.5 5.248 1.944 1.556 1.572 5.428 5.25 5.251 6.406-1.871 2.529-7.595 9.449-8.4-0.762-3.788-4.406-4.692-9.449-4.198 0.155-2.606 0.196-5.096-2.1-5.251-4.78-0.406 0.005 5.049 0 5.251-0.053 1.973-4.117 7.718 3.15 8.398-6.47-0.191-12.666-9.724-19.949-12.599 4.468-3.444 8.249 7.425 12.599 4.2 1.298-3.398-3.397-0.804-2.099-4.2 2.897 2.995 3.204-1.246 4.199-3.149-1.575-1.225-2.567-3.034-5.25-3.15-0.473-2.924 5.724 0.823 5.25-2.101-1.516-3.034-4.172-4.927-6.299-7.348 2.517-3.457 3.097 3.817 7.35 2.099-0.982-4.619-6.697-4.503-7.35-9.449-5.915 2.02-5.551-7.687-9.449-4.2-1.719-1.45 1.66-6.68 1.05-10.499 1.23 0.17 0.885 1.914 1.049 3.149 0.248 2.902 5.923 0.376 5.25 4.2 0.306 4.191-4.947-1.266-5.25-3.149-4.25 5.004 4.615 5.844 5.25 9.449 4.855-0.293-0.917-4.694 3.149-5.249 3.494-0.725 1.692 2.17 1.051 3.149 4.062-1.164 3.735 3.711 6.299 1.049 0.669-3.818-2.174-4.125-5.25-4.198 0.501-5.752-5.777-4.723-8.399-7.35 3.631-5.649 8.626 9 14.699 4.2 0.386-3.187-3.419-2.181-5.25-3.152 0.52-6.557-7.378-7.601-11.549-6.299 3.635-5.464 2.873-15.328 11.549-15.749-0.169-1.231-1.913-0.885-3.15-1.051 3.243-3.407 9.186-4.112 10.5-9.449-2.828 1.723-5.761 3.338-9.449 4.2-2.49-2.559 5.904-3.144 6.299-6.299-0.726-3.292-2.8-1.369-5.25-1.051 5.895-2.855 8.404-9.094 14.699-11.55-0.192-3.225-5.655-2.202-5.25 1.051-9.811-0.711-11.467 6.731-14.699 12.599 1.18 4.052 2.483 4.854 1.05 9.451-7.418-2.138-1.507-9.101-2.1-15.75 4.884-0.365 3.521-6.978 9.449-6.299 11.732-19.065 19.484-42.112 39.897-52.496 3.858-3.143 6.113-7.887 12.6-8.4-0.584-3.717 5.905-8.551 12.6-8.398 3.867-4.531 11.377-5.42 15.748-9.449-3.733-2.917-7.74-5.561-10.5-9.451 2.09-2.546 4.485 1.772 5.25-2.099 2.56 4.441 4.715 9.286 10.5 10.5 3.905 1.104 2.059-3.541 4.201-4.2-2.814-4.188-11.05-2.95-12.601-8.398-0.645 1.455-4.042 0.157-4.2 2.099-2.073-0.726-2.798-2.802-3.15-5.249-1.723-0.174-1.723 6.471 0 6.299-1.515 1.635-4.227 2.071-3.149 6.299-2.506-1.01-4.077-6.115-2.099-8.401-4.627-1.476-2.845 3.455-3.151 6.299-3.441-7.036-4.565 3.618-10.499 3.152-2.401-2.15-3.707-5.395-7.35-6.301-2.073 0.726-2.799 2.802-3.149 5.251-3.679-0.87-4.915-4.186-6.299-7.35-3.61 0.109-7.541 0.542-8.399-2.099 2.361-1.77 7.428 3.244 10.499-1.05-4.995-1.758-1.199-2.744 3.149-3.15 2.417 4.611 0.45 5.032 1.051 8.398 3.429-3.919 0.388-10.751 5.25-14.698 3.679 0.87 4.914 4.185 6.299 7.35 6.248 1.697 5.803-3.298 8.399-5.251-0.709-2.441-1.89-4.409-5.25-4.2 3.358-2.628 3.666-12.146 2.1-13.649 0.477-3.895 4.764 2.701 7.35 1.051 1.75 2.099-0.1 1.347 0 4.213zm152.24 239.39c0.659 0.58 3.171 4.265 4.197 1.048-1.239-0.507-2.38-1.119-3.149-2.099 4.415 0.215 8.779 0.378 9.449-3.149-3.298-0.531-4.288 2.475-5.249-1.051 2.943-1.255 7.245-1.154 11.551-1.049-2.492-6.295-7.854 1.427-13.649-2.101 0.04 3.89-1.61 6.08-3.15 8.4zm35.7 65.09c-3.82 0.575-9.049-3.462-10.499 1.05 2.82-0.39 12.78 0.97 10.5-1.05zm-110.25-19.95c-1.56-1.652-4.692-1.169-4.2 2.102 5.928-0.021 8.123-3.777 13.649-4.2-1.34-7.15-7.81-0.02-9.45 2.1zm-3.15-20.99c-0.363-2.788-2.757-3.545-5.251-4.2-2.73 3.28 1.87 6.6 5.25 4.2zm-23.1-9.46c2.179-2.084-1.117-2.401-2.1-4.198-0.253 1.846-1.807 2.394-4.2 2.1 1.251-2.25 1.135-5.865 3.15-7.351-4.536 0.338-3.215-5.184-7.349-5.248-0.902 6.752 3.221 8.86 0 13.649 1.975 1.873 4.86 2.838 6.3 5.248-2.684-2.775-2.084 1.438-2.102 4.2 1.985-0.236 2.318 1.185 4.2 1.051 2.563-1.774 6.97-5.654 5.251-8.4h-2.101c-2.852-0.752 0.752 4.95-2.1 4.2 1.552-4.701-3.074-3.225-2.101-7.35h2.101c0.24 0.82 0.03 2.08 1.05 2.1zm-10.5-27.29c-0.058 1.341-1.347 1.452-1.05 3.149 0.101 2.698 4.097 1.5 4.2 4.198h-3.15c-0.118 4.381 2.055 5.722 5.249 4.2 1.441-2.394-2.707-3.947 0-4.2 2.454 2.488 6.175 7.985 10.5 5.251-4.28-5.17-9.03-9.86-15.75-12.6zm-1.04-17.85c0.068 5.928 2.913 4.935 0 9.449 1.656 1.843 4.82 2.178 5.248 5.248-2.086-0.013-1.334-2.863-4.198-2.099-0.795 4.69 5.385 7.853 8.398 5.251-3.478-1.027 1.174-2.078 1.051-3.152-2.358-2.101-1.682-3.065-4.2-6.299 1.42 0.331 2.005 1.495 4.2 1.051 2.08-5.48-4.14-9.2-10.5-9.45zm-1.06-45.15c-0.005 3.854 3.676 4.024 5.251 6.3-1.985 0.236-2.318-1.185-4.2-1.049-1.06 5.258 4.705 3.693 5.248 7.348-2.206-0.689-4.666-2.777-6.299-1.048 2.567 6.514-0.204 12.323 2.101 18.897h-2.101c-0.374 5.975 5.017 6.184 7.35 9.449-4.062 1.164-3.734-3.711-6.299-1.049 1.512 4.809 8.159 10.01 12.599 8.398-2.669-0.481-1.762-4.537-4.2-5.248h3.149c1.384-6.633-5.066-5.432-6.3-9.449 3.043 2.208 8.736 1.762 9.451 6.299-0.097 1.654-2.679 0.821-2.101 3.15 0.33 1.42 1.495 2.004 1.05 4.197h5.249c-3.101-3.751-0.546-3.504 0-8.397-4.14 1.34-2.727-2.873-4.198-4.201 2.007-0.487 4.519 3.238 4.198-1.048-4.701-0.793-10.538 1.173-11.548-5.251 1.867 0.933 2.668 2.931 6.299 2.099-0.169-4.729-6.496-3.302-6.299-8.398 3.307-0.507 2.376 3.223 6.299 2.1 2.522-7.107-8.986-5.663-5.25-10.5 2.095 1.058 1.658 4.644 5.25 4.2 1.221-6.471-6.947-3.551-6.299-9.448 5.771-0.521 4.935 5.562 9.449 6.299 1.848-0.254 2.394-1.807 2.099-4.2-8.16 1.38-11.06-12.06-19.95-9.45zm12.6-2.1c-0.866-2.967 1.48-2.72 1.051-5.251-1.577-1.57-4.422-1.878-5.249-4.198 3.184 0.06 9.342 3.171 10.5-1.051-5.537-0.064-6.486-4.713-11.551-5.25 0.136 1.886-1.042 2.458-3.149 2.101-1.545 3.994 4.694 0.206 3.149 4.2-4.778-3.476-7.509 2.555-6.299 8.398 3.929 0.12 5.517 6.316 9.448 3.149 1.479-3.676-6.359-3.304-3.149-5.248 1.29 1.52 4.01 1.59 5.25 3.15zm4.2 109.19c-0.163 1.237 0.181 2.982-1.049 3.15-1.332-1.878-3.957-7.861-6.301-5.249 0.865 4.385 3.755 6.746 6.301 9.449-2.605-0.155-5.096-0.196-5.251 2.101 0.641 0.059 1.244 0.157 1.051 1.049 1.053-0.002 1.248 0.851 2.1 1.051 1.053-1.399 1.731-3.169 3.149-4.2 4.905-1.352 6.997 5.532 9.449 3.149-1.928-2.972-3.724-6.076-5.249-9.449-1.82 0.08-3.26-0.23-4.2-1.05zm-198.43-27.3c8.101-0.34 0.549-7.9 0 0zm68.244-97.64c-1.71 5.212 3.653 3.347 3.15 7.35h7.35c0.003-3.853-3.676-4.022-5.25-6.3 3.435-1.652 0.745-6.261-2.1-3.149 4.25 1.39 0.32 2.78-3.15 2.1zm10.5 3.15c1.944-1.852-0.271-3.253-2.1-4.201-1.65 1.56-1.17 4.69 2.1 4.2zm60.9-100.79c2.888 1.3 8.945-1.865 11.549-4.198 1.821 1.33 2.752 3.547 6.3 3.15v-4.2c-4.223 0.722-5.993-1.005-9.45-1.051-0.73 4.168-8.04 1.766-8.4 6.299zm-10.5-29.397c-1.87 2.896 0.303 9.008 3.15 10.5-0.55-5.797-1.05-8.249-3.15-10.5zm16.8-14.698h2.099v-4.2h-2.099v4.2zm-3.15 9.449c0.231-4.627 1.643-7.229-1.051-10.5-1.17 4.132-3.21 8.111 1.05 10.5zm-5.25-6.299c0.151-1.242 1.869-2.381 0-3.15-0.15 1.24-1.87 2.379 0 3.15zm28.35 2.099c2.119 1.384 3.553 3.446 4.198 6.299-1.869 2.679-4.804 4.295-9.448 4.201-0.523 6.535 6.17-0.634 8.4 3.149 0.236 1.985-1.184 2.316-1.049 4.2 3.439-0.06 4.014-2.986 8.398-2.101 1.683-4.131-4.535-0.365-4.2-3.15 1.422-1.027 1.36-3.539 3.149-4.198-4.043-2.518 0.479-3.098 0-7.35-6.544 3.521-6.159-4.752-11.549-1.051 0.7 0.001 1.4 0.001 2.1 0.001zm-11.55 5.249c0.13-2.628 2.003-3.285-1.05-4.198 0.18 1.57-0.38 3.873 1.05 4.198zm7.35-4.199c-0.85 6.355 4.81 0.701 0 0zm-12.6 3.15h2.099v-2.101h-2.099v2.101zm46.19 1.049c-4.179 2.397-1.599 3.496-4.2-1.049-5.35 6.506 4.14 10.106 4.2 1.049zm-38.84 3.152c2.008-0.443 4.52-0.38 4.2-3.152-2.75-0.295-4.52 0.384-4.2 3.152zm28.34-2.102c3.54 3.188 3.19-3.882 0 0zm12.6 4.201c1.429-1.336 1.62-5.144-1.051-5.251 0.58 1.527-1.22 5.426 1.05 5.251zm-72.44 0c0.293-2.394-0.252-3.947-2.1-4.201-0.29 2.394 0.25 3.947 2.1 4.201zm18.9-3.15c-0.232 0.818-0.88 1.22-2.1 1.051-0.251-1.141-1.729-2.522-2.1-1.051 0.07 3.349 7.98 4.258 4.2 0zm-7.35 7.35c1.431-1.339 1.622-5.144-1.05-5.251-1.43 1.338-1.62 5.143 1.05 5.251zm17.85 75.589c1.736 5.365 1.394 5.528 1.05 11.55 1.925 1.225 3.555 2.744 5.25 4.2-2.688 1.137-5.005-3.19-6.299 0 5.746 4.748 7.559 1.775 12.599 0-1.241-0.511-2.38-1.122-3.149-2.101 0.732-2.767 4.781-2.219 5.25-5.249-3.8-3.4-8.09-11.22-14.7-8.4zm37.79-53.542c-2.29 0.191-3.341-0.859-3.149-3.149-9.771 0.322-11.29-7.61-19.948-8.398-2.422 3.964-5.295 2.842-9.449 1.048 2.908 6.893 14.042 5.556 16.799 12.599-1.979 3.384-0.552 7.288 2.1 10.5-2.422-0.32-1.167 3.034-3.15 3.15-1.23-1.566-4.361-1.235-4.198-4.198 1.233-0.166 2.979 0.181 3.15-1.051-1.004-1.798-3.485-2.114-4.203-4.2 5.782-1.972-6.35-15.119-8.398-6.299 1.572 0.178 3.875-0.374 4.2 1.051 0.255 4.707-2.993 6.781-1.051 13.649-7.627 2.699-1.628 10.147-5.249 13.649-0.519 3.317 5.21 0.389 4.199 4.198-2.24-2.256-5.718-0.389-6.299 2.101 3.903 1.381 0.139 1.968 0 2.099-3.237 3.087 1.24 10.628-2.1 12.599 4.879 2.471 7.632 7.068 13.649 8.4-0.073-6.576-6.987-6.312-9.449-10.5 5.64 0.31 5.667 6.231 12.599 5.251-0.31-3.541-4.654-3.046-5.25-6.301 1.978 0.872 5.456 3.875 6.299 0-2.398-1.45-6.549-1.147-6.299-5.249 2.792-0.591 5.347 4.318 7.352 1.051-2.671-3.371-8.152-6.83-11.55-6.299 2.72-5.169 7.393 2.121 11.55 2.099 0.238-5.489-6.316-4.186-6.3-9.449 2.084 0.013 1.332 2.864 4.198 2.099 0.326-2.984-3.427-6.233 2.102-6.299-0.619-4.314-8.477-6.881-7.352-9.449 2.208 1.311 5.379 4.811 8.399 2.099 1.874 2.677 2.976 6.125 5.251 8.401-1.957 0.144-3.511 0.689-4.2 2.099 2.071 1.779 7.73-0.03 6.3 5.249-2.003-0.447-1.899-3-5.249-2.099 2.542 5.163 2.084 11.43 2.099 20.999 4.944 1.354 6.192 6.407 12.599 6.299 2.57-2.475-1.568-1.953-1.05-5.249 5.97-0.157 0.124-5.977 6.301-6.301-3.076-0.073-5.921-0.38-5.251-4.198-1.828-0.08-3.266 0.234-4.2 1.048 1.117-3.915-3.936-1.661-3.149-5.249 1.027-1.074 2.075-2.125 3.149-3.15 3.212-0.763 3.09 1.811 6.3 1.051-1.885-5.077-10.869-6.968-7.348-11.55 1.955-1.003 3.508 3.146 4.198 0-1.805 0.056-2.69-0.808-3.15-2.099h4.2c-2.81-5.285-6.181-3.292-8.398-7.35 0.306 0.561 2.478-5.977-1.05-6.299 1.807 0.056 2.691-0.81 3.149-2.102-1.369-2.479-6.667-1.033-6.3-5.249 5.113 0.954 7.374 6.688 12.599 2.099-1.916 0.047-6.718-2.217-4.2-3.15-0.75 1.701 4.96 1.701 4.2-0.003zm-11.54 55.652c-0.419 4.267 4.467 3.229 5.249 6.299-2.967 0.868-2.72-1.48-5.249-1.05 0.125 4.074 3.094 5.305 5.249 7.35-2.612-0.116-3.251-1.968-5.249 0-0.264 3.062 1.977 3.622 3.149 5.249-2.951-0.153-3.029 2.572-3.149 5.251 4.447 0.099 4.882 4.243 2.1 6.299 3.523 2.425 6.939 4.958 11.548 6.299-0.112-4.127-8.094-5.851-6.3-8.398 4.263 4.314 5.043 0.896 10.5 2.099-1.192-4.604 0.006-3.448 1.051-7.35h-4.2c3.182 3.588-3.76 7.715-5.249 3.15 1.805 0.056 2.689-0.808 3.149-2.099-4.026-0.524-6.61-2.49-8.4-5.251 7.075 1.117 3.348-3.103 4.2-4.198 1.219 0.881 2.814 1.384 5.249 1.048 0.514-5.062-6.067-3.031-6.3-7.35 1.983 1.998 4.656-0.675 4.2-4.198-5.76 0.85-6.67-3.15-11.55-3.15zm8.39 19.94c0.976 2.241 7.636 1.433 6.3-2.101-2.16 0.64-7.29-1.69-6.3 2.1zm6.3-11.55c-1.421-0.331-2.005-1.495-4.2-1.05-0.79 3.59 4.01 4.1 4.2 1.05zm-2.1-34.644c-2.086-0.013-1.336-2.864-4.2-2.099-1.1 2.655 3.55 4.653 4.2 2.099zm7.35-19.949c-3.833-2.873-13.886-5.369-15.751 1.05 7.537-0.159 12.173 4.478 10.5 10.5 4.423 2.037 13.181 9.208 16.799 5.249-1.938-3.311-9.254-1.244-9.449-6.299 3.532-1.981 3.441 4.754 5.249 1.051-1.926-1.225-3.554-2.746-5.249-4.201 1.476-0.272 1.196-2.303 2.099-3.149-1.146-2.062-10.024-1.794-7.348-4.2 0.02 1.376 2.92 1.338 3.15-0.001zm-3.15-7.35h3.15v-3.149h-2.102c-0.06 1.343-1.34 1.454-1.05 3.149zm-50.39 2.101c-0.815 6.038-6.38 6.675-8.399 13.649 4.604 0.456 3.448-3.218 7.35-1.051-1.473-5.792 3.407-4.849 4.199-11.548-1.45 0.046-2.31-0.495-3.15-1.05zm8.4-2.101c-2.852-1.117-4.917-0.666-6.299 2.101 1.7 1.717 6.59 1.266 6.3-2.101zm4.2 2.101c2.746 0.296 4.516-0.384 4.199-3.149-2.01 0.442-4.52 0.38-4.2 3.149zm-32.55 9.45c1.085 5.285-6.225 2.174-5.25 7.35 3.296-0.497 2.774 2.825 5.25 3.149 1.267-1.633 3.355-4.091 1.05-6.299 5.575 0.797 8.657-9.376 13.649-12.599-6.298 0.7-11.382 2.615-14.699 6.299 3.677-1.944 3.306 0.945 5.25 3.149-2.53 0.431-2.28-1.918-5.25-1.049zm-3.15 22.049c4.668 3.743-3.035 11.073-4.201 15.748-0.31 2.761 4.074 0.825 3.15 4.201-1.218-0.883-2.814-1.386-5.25-1.051-1.32 3.74 5.259 5.489-1.049 5.249-0.323 4.901 6.201 6.231 0 8.401 3.573 1.205 7.394 1.435 10.5 0-4.996 1.145-4.284-3.416-4.2-7.35 1.807 0.056 2.692-0.808 3.151-2.099-5.08-2.647 2.443-5.219-2.1-8.4 4.91 3.225 1.631-4.458 6.299-4.2 4.389 1.237 8.212 8.553 8.399 10.5-3.235 0.786-1.28-3.62-5.25-2.099 1.387 2.967-1.713 9.019 2.1 11.548-2.29-0.189-3.341 0.862-3.149 3.152 1.177 0.221 1.634 1.165 2.099 2.099 4.169-2.907 5.106-3.266 9.45 0 1.292-5.844-5.967-3.132-6.299-7.35 1.756-1.392 3.518-2.782 7.349-2.099 0.924-3.373-3.46-1.439-3.15-4.2h3.15c-1.736-4.997 0.483-3.875 1.05-8.4-3.923-1.122-2.993 2.608-6.3 2.101 0.016-2.784-0.582-6.183 2.1-6.299 2.561 4.888 8.39-0.552 10.5 0-1.777-2.073-6.061-1.639-5.25-6.299 4.943 0.423 4.256-3.56 2.1-5.25 4.016-2.331 4.723-7.902 4.199-12.599-3.37-0.922-2.177 2.722-4.199 3.149 0.574-1.525-1.227-5.427 1.049-5.249 2.086 1.749 1.335-0.097 4.2 0-0.71-5.01 8.661-8.796 3.15-13.649-1.701 2.447-0.977 5.689-5.25 3.15-1.313 8.263-11.165 13.159-8.399 22.047-2.063-0.313-2.082 1.418-3.149 2.099-0.418 4.269 4.469 3.231 5.25 6.301-3.308 0.507-2.377-3.223-6.3-2.101-1.393 3.856-1.466 9.032-5.25 10.5 0.674-3.824-5.002-1.297-5.249-4.2 2.486-2.604 4.923-1.265 3.15-6.299h5.25c1.372-4.522-2.98-3.319-4.2-5.249 0.887-2.265 6.694 0.393 7.35-2.102-1.232-1.568-4.364-1.235-4.2-4.198 2.968-0.868 2.72 1.478 5.25 1.048v-2.099c0.64-0.06 1.243-0.157 1.051-1.051-4.628 1.128-2.45-4.55-6.3-4.198-2.715 2.606 2.46 6.587-4.199 5.249-0.832 3.631 1.167 4.432 2.099 6.299-6.67 0.071-4.99 6.329-10.5 5.257zm85.04-26.25c2.768 0.318 3.446-1.453 3.15-4.198-2.77-0.32-2.7 2.192-3.15 4.198zm-91.34 8.401c2.436 0.335 4.032-0.17 5.25-1.051-0.165-1.235 0.181-2.98-1.05-3.149-0.1 2.698-4.1 1.501-4.2 4.2zm70.34-1.051c1.396 1.364 3.908 1.384 4.2-1.05-2.62-0.132-3.28-2.003-4.2 1.05zm23.1 5.251c0.816 0.23 1.221 0.879 1.049 2.099 2.752-1.098 4.37-3.33 6.299-5.249-2.333-0.816-4.093-2.207-7.348-2.102 1.1 2.118 5.67 2.446 0 5.252zm-92.39-1.05c-3.97 1.519-2.015-2.886-5.25-2.099-1.462 1.336-0.457 5.141-3.149 5.249-13.622 7.079-20.275 25.365-25.198 37.798 2.967 0.868 2.72-1.48 5.25-1.05-2.471-6.75 7.154-7.543 2.1-10.5 5.393-2.671 14.819-6.86 12.599-13.649 0.449 1.691-3.915 3.523-4.2 1.051 3.803-0.748 5.438-3.663 9.45-4.2-2.507-4.181 2.343-2.843 3.149-6.3-2.393-1.441-3.947 2.708-4.199 0 3.17-2.087 7.86-2.641 9.45-6.304zm38.85 0h2.1v-2.099h-2.1v2.099zm-36.75 8.398c1.342 0.058 1.454 1.347 3.15 1.051 0.45-2 2.261-2.638 2.1-5.249-3.232 0.782-2.019-2.883-5.25-2.102-1.537 0.913-3.328 1.573-3.151 4.2 4.34 0.19 4.22-2.468 3.15 2.1zm86.09 44.094c2.73 3.805 6.404 3.913 4.2 10.5 1.769 1.729 4.718 2.282 6.3 4.2-3.228 0.155-4.723-3.695-7.351-1.05-0.21 4.873 14.481 14.807 15.749 7.35-3.129 2.477-3.99 1.031-7.351-1.05 0.606-2.194 2.604-2.995 2.102-6.299-2.314-0.836-4.191-2.108-4.2-5.249 1.379 1.347 3.869 1.347 5.248 0-3.56-3.21-9.54-13.59-14.7-8.4zm4.2 21c1.407 0.692 1.955 2.245 2.1 4.2 2.773 0.026 6.578-0.979 5.248 3.15 3.479-1.042 9.243 4.499 8.4 1.051-6.96-0.41-9.42-10.85-15.75-8.4zm5.25 7.35c-2.655 1.194-2.365 5.335-4.2 7.35-0.32 2.422 3.033 1.167 3.149 3.15-2.258 0.892-2.435 3.864-2.099 7.35 6.505 0.342-2.626 5.955 5.248 6.299 0.524-2.892-0.084-5.141-2.099-8.4 1.235-0.163 2.979 0.181 3.149-1.048-1.807-0.941-3.296-4.263 1.051-3.152 0.511-4.009-3.715-3.285-5.251-5.249 4.784 0.162 4.121 0.868 8.4 0-1.6-2.95-4.2-4.9-7.35-6.3zm-2.1-40.94c0.148-8.072 0.236-14.973-4.2-24.149 2.003 0.447 1.899 3.001 5.249 2.101 1.051-7.552-6.314-0.894-7.35-5.25-1.12 0.979-0.327 3.874-3.15 3.149 0.005-1.053-0.849-1.248-1.048-2.099 0.02-3.19 8.896-2.922 7.35-4.2-5.268-0.011-8.903-7.159-13.649-4.2 1.985 2.213 6.042 2.357 7.348 5.251-1.869 0.627-4.358-3.079-5.248 0 4.021 2.976 2.077 11.922 7.35 13.649-6.441-0.204 0.992 8.259 0 12.599 2.604-0.154 5.094-0.195 5.249 2.099-2.336-0.456-5.693-2.413-6.3 1.051 1.925 1.225 3.556 2.744 5.251 4.2h-4.2c0.533 5.597 4.761 7.59 9.449 6.299-2.931-5.36-0.417-3.195 1.051-6.299-4.22-0.7 0.76-7.29-3.15-4.2zm-97.64-22.053h2.1c0.058-1.343 1.346-1.455 1.049-3.149h-2.1c-0.06 1.34-1.35 1.452-1.05 3.149zm2.1-10.5c-5.564 1.977-9.466 10.57-8.399 15.749-4.392 1.373-6.711 7.461-5.25 11.55-3.62 0.262-5.22 12.45-2.1 12.599 2.878-0.95-2.048-3.865 2.1-4.201 0.258 3.242 1.065 5.937 2.1 8.401 4.225 0.724 2.578-4.422 6.299-4.2 0.029-3.528-1.446-5.554-3.149-7.35-1.813 0.636 0.081 4.98-2.1 5.249-1.647-1.613 1.755-6.114-2.1-7.348 1.118-2.032 4.836-1.465 6.3-3.149-1.232-1.568-4.364-1.238-4.2-4.201 1.828 0.08 3.266-0.234 4.2-1.05-1.039 5.676 3.138-0.426 2.099 5.251 2.064 0.313 2.082-1.418 3.149-2.102 0.009-4.557-4.604-4.495-7.349-6.299 3.043-1.506 7.171-1.927 8.399-5.249-0.645-1.457-4.042-0.159-4.2-2.101 3.62-3.898 1.99-7.463 4.2-11.554zm103.94 5.249v-3.15c-2.394 1.442-3.946-2.707-4.2 0 2.03 0.428 0.83 4.072 4.2 3.15zm-102.89 0h2.1v-2.099h-2.1v2.099zm67.2 5.251c2.498 1.676 5.008 2.583 7.348 0-1.25-1.706-6.65-3.818-7.35 0zm35.69 3.15c1.513 0.586 2.563 1.637 3.15 3.149 2.449-0.352 4.524-1.076 5.25-3.149-4.576 1.424-3.798-2.503-6.301-3.15 0.32 2.062-1.41 2.082-2.1 3.15zm-6.3 10.503c3.794 0.993 1.465-4.136 2.099-6.301-1.235 0.165-2.979-0.181-3.149 1.05 3.29 0.721 1.37 2.801 1.05 5.251zm8.4-3.16c1.733 0.017 0.589 2.914 2.101 3.152-1.117-3.917 3.938-1.663 3.15-5.251-2.61-0.15-4.36 0.551-5.25 2.101zm-128.09 0c1.396 9.114-5.24 15.74-5.25 19.951 4.413-5.004 10.34-11.273 6.299-16.799 3.292 0.49 2.96-2.641 4.2-4.2-2.44-0.33-4.03 0.17-5.25 1.05zm52.5 3.16c2.394 0.292 3.947-0.253 4.199-2.101-1.419-0.331-2.006-1.493-4.199-1.051v3.15zm-16.8 1.04c0.056-1.805-0.809-2.692-2.1-3.149-1.5 1.54-1.54 4.07 2.1 3.15zm100.79 11.56c-2.782-6.02 1.47-9.06-4.2-13.649 2.33 2.91-4.86 13.17 4.2 13.65zm4.2-12.6c-3.19 3.53 3.88 3.18 0 0zm-85.04 3.15c-1.419-0.331-2.005-1.496-4.2-1.051-0.28 3.06 4.07 4.03 4.2 1.05zm68.24 3.15c0.292-2.394-0.254-3.947-2.102-4.2-0.29 2.39 0.25 3.94 2.1 4.2zm-49.34 0h2.098c1.633-2.584-3.564-3.087-3.15-1.051 0.64 0.05 1.24 0.15 1.05 1.05zm28.34 2.1c-1.343-0.058-1.455-1.345-3.15-1.051-1.63 2.58 3.57 3.08 3.15 1.05zm23.1 10.49c-0.148-4.05 0.821-9.219-2.099-10.5-1.77 2.54-1.34 9.9 2.1 10.5zm-91.34-7.35c-3.54-3.18-3.19 3.89 0 0zm8.4 1.06c1.956-1.005 3.51 3.143 4.2 0-1.85-0.92-3.25-3.52-4.2 0zm89.24 9.44c3.246-1.304 6.51-2.589 8.4-5.249-4.506 0.043-6.938 2.187-9.451-1.05-1.73 1.64 0.36 4.1 1.05 6.3zm-146.99 2.1c2.429 1.903 5.61-2.164 6.299-5.249-2.99 0.87-5.33 2.37-6.3 5.25zm74.55-1.05c1.897-1.8-0.321-4.129-3.149-4.2-0.3 2.75 0.38 4.52 3.15 4.2zm-69.3 8.4c-0.01 5.921 6.576 14.93 10.499 7.35-4.53-2.621-4.218-4.4-3.15-10.5-3.96-0.46-4.93 2.07-7.35 3.15zm9.45-8.4c-1.525-0.576-5.427 1.227-5.25-1.05 1.281-0.118 2.486-0.314 2.1-2.099-3.995 1.603-6.169 5.029-7.35 9.449 4.46-1.14 9.76-1.44 10.5-6.3zm8.4 0c-0.496 3.296 2.825 2.774 3.15 5.249-1.65 0.101-3.641-0.14-3.15 2.101 2.196 2.389 7.534 7.116 10.5 5.249-1.8-1.351-4.129-2.172-4.2-5.249 2.436-0.335 4.032 0.167 5.25 1.048-2.33-3.89-5.41-11.72-11.55-8.4zm16.8 1.05c-4.52 1.373-4.128-2.17-5.25-4.198-1.846 0.604-6.168-1.27-6.299 1.048 1.85 2.55 9.32 7.61 11.55 3.15zm97.64 0c-0.442-2.007-0.38-4.519-3.149-4.198-0.18 2.63 1.62 3.29 3.15 4.2zm-74.54 3.15c-0.832-3.367-0.874-7.524-6.299-6.299 1.21 2.99 2.16 6.24 6.3 6.3zm12.6-4.2c1.52 3.968-2.885 2.013-2.1 5.249 0.335 2.464 3.25 2.35 4.2 4.2-2.449-0.32-4.523-2.241-5.25 1.05 4.784 4.314 10.067 8.13 16.8 10.498-1.404-3.352-3.55-5.988 1.049-7.348-1.403-1.326-2.062-3.156-4.198-1.051-2.57-4.43-0.37-13.49-10.5-12.6zm2.1 16.8c-0.682 5.232 3.292 5.805 5.249 8.398-4.187 0.576-3.161 0.576-7.349 0-0.765 2.866 2.086 2.114 2.1 4.2-4.628-1.128-2.45 4.551-6.3 4.2 0.211 3.287 2.708 4.293 4.2 6.3 3.9 0.401 2.745-4.254 7.349-3.149 2.548 1.336 7.907 7.339 10.5 2.099-2.41-1.484-8.695-4.542-7.348-6.3 1.04 1.94 9.245 6.115 10.498 1.051-5.021 1.899-9.746-2.829-12.599-6.299 1.981-4.953 4.761 2.442 7.348-1.051-5.91-1.79-7.35-8.05-13.65-9.45zm13.64 14.7c0.193-2.291-0.857-3.339-3.15-3.15-0.19 2.29 0.86 3.34 3.15 3.15zm-5.24-27.3c2.062 0.316 2.08-1.416 3.149-2.099 1.341 0.058 1.453 1.345 3.15 1.051-1.176-3.758-9.033-6.325-12.601-4.2 3.16 0.69 3.57 4.13 6.3 5.25zm-31.5 10.5c-5.761-0.187-3.653-8.246-10.499-7.348 0.759 7.088 0.975 13.333 9.449 14.698-2.08-4.02-2.17-4.6 1.05-7.35zm8.4-4.2c0.628-2.729-0.421-3.779-3.15-3.149-2.161-3.089-3.172-7.329-7.35-8.4-1.894 2.305-4.096 4.303-5.249 7.35 6.041 1.309 6.812 7.887 12.599 9.449-2.783 0.015-6.182-0.583-6.299 2.099 1.332 2.356 9.698 2.054 11.549-1.049-4.895 1.966-4.194-1.246-2.1-4.2-3.017 0.217-5.334-0.266-6.299-2.099 1.983-0.118 0.728-3.472 3.149-3.149-0.19 2.3 0.86 3.34 3.15 3.15zm2.1-5.25h2.1v-2.099h-2.1v2.1zm94.49 6.3c2.612 0.116 3.25 1.968 5.251 0 0.315-2.765-1.455-3.446-4.2-3.15 0.05 1.45-0.49 2.31-1.05 3.15zm14.7 1.05c2.465-0.335 3.94-1.659 7.351-1.05-0.17-4.77-8.04-3.6-7.35 1.05zm-178.49 3.15c3.079-0.071 3.899-2.4 5.25-4.2-3.42-0.27-5.05 1.25-5.25 4.2zm21 46.2c0.591 6.904-1.861 10.478 1.05 16.799-8.521 1.517 4.122 13.116-3.15 9.448-1.151 10.203-2.413 17.201-4.199 29.4 5.251 7.348 14.239 10.957 19.949 17.847 0.285-3.68 4.649 1.897 4.199-1.048-7.138-4.134-9.354-10.087-15.75-11.551 2.065 0.314 2.083-1.418 3.151-2.099 0.25 1.62 3.904 5.031 5.25 2.099-1.447-1.085-6.225-4.163-4.2-5.248 0.966 1.832 3.283 2.315 6.299 2.099-1.702-4.947-6.442-6.855-9.449-10.499 2.729 0.421 3.167 3.134 6.299 3.149-0.799-4.449-4.896-5.604-7.35-8.398 3.249 0.951 5.784 2.617 8.4 4.2-1.588-2.675-2.965-4.811-1.05-8.4-3.082-1.504-9.822-4.83-8.399-7.351 2.693 1.894 7.217 7.437 10.5 5.251-1.544-2.009-7.871-4.659-6.299-6.299 3.28 1.27 4.564 4.533 8.399 5.249 0.251-1.498 1.729-1.771 2.099-3.15-2.308-3.291-9.192-2.006-9.449-7.35 2.476 0.324 1.953 3.646 5.25 3.149 1.123-3.921-2.607-2.992-2.1-6.299 2.376-0.177 4.617 5.049 6.299 2.099-4.381-1.912-2.774-6.134 0-8.398-6.931 0.281-8.168-5.13-11.549-8.4 0.014-2.086 2.865-1.334 2.1-4.198-2.2-0.6-3-2.6-6.3-2.1zm-7.35 58.8c-1.208 3.079 5.036 3.899 2.1 5.249-1.446 0.045-2.306-0.494-3.15-1.049-1.441 4.97 1.023 10.895-3.149 10.497-4.841-0.459-0.165-11.047-3.151-14.697 1.343 0.058 1.455 1.345 3.151 1.049-0.596-6.087-4.759-4.08-1.051-7.348-1.181-3.584-4.069 0.33-5.25-2.102 1.22-0.881 2.816-1.384 5.25-1.049 0.224-3.373-3.744-2.557-5.25-4.2-1.568 1.231-1.236 4.363-4.199 4.2 2.041-4.404 4.362-7.251-1.051-9.451 0.688 9.344-9.015 22.392 3.151 27.299-2.731-0.419-3.167-3.133-6.301-3.149 2.414 4.102-1.934 4.157-4.199 6.299-1.021-5.337-0.044-8.974-6.299-10.499 2.13 4.44-1.639 9.339 0 12.601 8.342-2.744 10.415 7.876 5.249 9.449 8.121 2.696 3.134-11.028 8.399-12.599 3.152 1.048 5.252 3.147 6.3 6.299 4.16 0.387 6.417-2.46 8.399 1.051-4.947 1.76-7.434-0.494-13.649 0-0.125 5.5-8.342 8.422-6.3 12.599 5.698-6.241 13.652 3.491 19.949-4.2 3.642-0.843 4.036 1.564 7.349 1.051-2.453-5.668-14.832-1.899-16.799-5.251 7.083-0.082 14.395-0.396 18.899 2.101 0.319-6.269-7.233-4.666-7.349-10.499 0.588-1.513 1.637-2.563 3.15-3.149 1.552 6.58 3.845 11.113 8.399 12.599 0.944 0.307 2.902-2.959 5.25 0 1.487-3.833-0.587-4.716 2.099-7.351-2.879-4.524-8.407 0.062-10.5-5.248 0.645 0.307 4.042 2.61 4.2 0-5.14-2.92-7.12-8.98-13.65-10.5zm23.1-84c-2.672-0.129-4.071-1.528-4.199-4.201 2.729 0.422 3.166 3.133 6.299 3.15 1.498-4.647-3.553-2.746-3.15-6.3 4.426-4.512 4.106-16.642-6.299-16.799-0.449 3.949 3.284 3.715 4.199 6.299-5.49 3.839-1.836 12.637-9.449 12.599 3.676-0.177 3.305 3.695 5.25 5.251-2.865 0.094-2.114-1.749-4.2 0 1.483 5.504-2.474 6.823 2.1 10.499-1.57 0.179-3.875-0.376-4.2 1.049 0.354 4.172 0.616 6.637-1.049 10.499 3.891 2.431 9.608 8.564 13.649 7.351-1.447-1.088-6.224-4.164-4.199-5.249 2.298 1.139 7.44 6.018 8.398 2.099-4.219 0.097-5.979-6.862-10.499-9.448 3.196-0.048 4.083 2.217 6.299 3.149 0.048-2.247-4.647-5.019-2.1-6.3 3.398-1.297 0.803 3.397 4.2 2.1 0.054-5.652-7.741-3.459-8.399-8.398 1.856-1.973 3.065 1.248 5.25-1.051-3.77-6.7 0.79-0.34 2.1-6.3zm69.29-19.95c-2.661 2.886 5.863 7.698 8.398 5.249-4.888-2.033 0.997-1.463 2.1-3.15-4.48-3.35-5.27 1.16-10.5-2.1zm4.2 0c-0.127-2.672-1.527-4.071-4.198-4.2 0.13 2.67 1.53 4.07 4.2 4.2zm65.1 1.05c1.219 0.881 2.814 1.386 5.249 1.05 0.487-3.287-0.911-4.686-4.198-4.2 0.05 1.45-0.49 2.31-1.05 3.15zm-154.34 5.25v-2.101c-1.94-3.49-5.12 3.15 0 2.1zm40.95-1.05h2.1v-2.099h-2.1v2.1zm114.44 10.5c0.154 0.465 2.759-0.029 3.149 1.051 0.451 1.242-2.26 1.964-2.101 3.15 4.134-1.188 7.296 3.166 8.4-1.051-1.672-1.055-4.224-0.993-2.1-3.15-1.572-0.178-3.876 0.374-4.2-1.05 2.108-2.14-0.464-2.059-1.051-4.198 2.087-1.749 1.337 0.094 4.201 0-1.99-2.911-5.727-4.076-7.351-7.35-1.48 4.03-0.31 8.52 1.05 12.6zm-157.49-3.15c1.544-2.569-0.613-8.699-6.299-7.35 1.34 4.14-2.874 2.727-4.2 4.2 2.54 3.543-3.208 4.673 0 8.398-4.53 1.362-4.942 9.641-2.1 12.601-5.112 3.657 0.913 9.189-4.199 14.698 0.595 3.255 4.938 2.761 5.25 6.299-1.867-0.933-2.668-2.931-6.299-2.099v4.2c4.142 0.756 7.08 2.718 8.399 6.299 2.783-0.015 6.182 0.582 6.299-2.099-1.184-2.666-5.274-2.426-6.299-5.251 2.194 0.605 2.996 2.604 6.299 2.099 1.911-5.76-4.375-3.323-4.2-7.348 2.185 0.593 3.393 2.999 5.25 1.049-0.041-3.808-4.325-3.373-5.25-6.3-0.269 2.181-4.613 0.288-5.25 2.102-3.749-7.659 5.964-7.29 1.051-11.55 3.535 0.663 5.384 3.014 10.5 2.099 0.923-3.373-3.461-1.438-3.15-4.198 1.571-0.181 3.874 0.374 4.199-1.051-4.244-1.123-2.476-2.383 0-4.2-3.694-2.007-5.094 0.997-8.399 2.102 0.003-1.055-0.851-1.251-1.049-2.102 3.415-2.544 1.807-4.643 2.099-6.299 0.607 2.544 3.965 2.335 6.3 3.149-3.316-5.049 3.284-0.967 3.149-5.249-1.988-2.911-5.955-3.846-7.35-7.35 3.3-0.49 2.77 2.83 5.25 3.15zm-11.55 27.3c3.018 0.217 5.333-0.267 6.299-2.102-1.648-0.451-0.897-3.302-4.199-2.099 1.3 3.4-3.4 0.8-2.1 4.2zm112.34-34.65c-6.72-1.21-2.3 3.21 0 0zm-67.19 4.2c1.852 4.797 5.616 7.683 10.5 9.449-0.42-6.216 0.839-2.604 4.199-2.1 0.511-4.011-3.713-3.287-5.25-5.25 1.282-0.118 2.487-0.314 2.1-2.099-1.05-5-9.9-3.26-11.55 0zm68.24 1.05c3.287 0.485 4.688-0.913 4.2-4.201h-3.149c0.24 1.99-1.18 2.32-1.05 4.2zm39.9 2.1c-2.377 4.404-1.575 10.21 3.149 12.599h-4.198c3.511 6.944 0.883 7.643 1.049 16.799 1.63 0.241 4.9 4.037 6.301 1.051-1.463-3.928-0.406-6.484-3.151-10.499 2.394 0.294 3.946-0.254 4.2-2.1-4.062-3.063-0.097-5.187-4.2-10.499 1.649-0.102 3.642 0.14 3.151-2.102-2.88-0.97-3.71-3.99-6.3-5.25zm6.3 0c-1.321-0.43-2.146-1.354-2.101-3.149 3.23 0.735 2.017 0.735 5.251 0 0.573-4.295-4.534-3.549-5.251-1.051-0.671-2.565-4.907-0.159-5.249 1.051 1.24 1.63 4.89 6.22 7.35 3.15zm-120.74 8.4c7.065 0.286 6.019 8.68 14.699 7.351 0.305-4.506-4.948-3.451-5.25-7.351 1.445-0.045 2.305 0.496 3.15 1.051-1.967-4.333-3.632-8.968-9.449-9.449-0.53 3.32-3.09 4.61-3.15 8.4zm-42-2.1c0.316-2.766-1.455-3.446-4.2-3.15-0.32 2.77 1.46 3.45 4.2 3.15zm120.74 0h3.149c0.136-1.885-1.042-2.458-3.149-2.1v2.1zm21 4.2c-3.3-2.694 6.422-1.208 5.249-5.251-3.208 0.758-3.826-1.072-6.3-1.049 1.71 2.55-4.15 7.97 1.05 6.3zm-61.94 2.1c3.062 1.545 3.062-4.692 0-3.149v3.15zm36.74-1.05h2.102v-2.102h-2.102v2.1zm12.6-1.05c-1.343-0.059-1.454-1.348-3.151-1.051-1.63 2.59 3.57 3.09 3.15 1.05zm47.25 22.05c0.013 1.388 1.841 0.96 2.102 2.101-1.685 9.269 1.834 19.199 1.05 26.248 4.132 0.284 7.294-0.404 8.398-3.149-2.619-2.02-4.313 1.603-6.299-1.051 2.14-1.833 2.058 0.782 4.2-1.051 0.919-3.369-2.725-2.176-3.149-4.198 2.786-0.362 3.542-2.756 4.197-5.251-1.845-0.604-6.168 1.271-6.299-1.048 7.073 0.973 2.997-3.769 1.051-5.251 3.18 1.309 5.444-3.491 3.149-4.2-2.849 2.021-1.436-2.419 0-4.198-1.82-1.45-8.67-4.4-8.4 1.05zm9.45-4.2c0.872-2.495-5.195-4.888 0-5.251 0.417-4.267-4.469-3.231-5.251-6.3 1.86-0.238 5.257 1.06 4.2-2.099-1.646-2.763-8.318-0.494-5.249-5.251h-5.251c-0.896 7.896 3.378 10.624 5.251 15.748-1.649 0.102-3.642-0.14-3.151 2.102 2.27 1.25 7.27 2.92 9.45 1.05zm-137.54-12.6c-0.97-2.88-3.311-4.39-6.299-5.249 0.65 3.2 2.33 5.37 6.3 5.25zm22.05 5.25c3.914 2.061 9.97 7.498 14.699 5.249-0.627-1.57-5.283-4.381-3.149-5.249 2.007 2.907 7.484 2.639 7.351-2.101-6.607-2.143-10.268-7.232-17.85-8.398 0.81 6.21 0.06 5.42-1.05 10.5zm12.59-7.35c3.839-0.593 5.803 6.71 8.399 1.051-1.87-1.36-7.7-4.81-8.4-1.05zm13.66-1.05c-0.929-0.806-2.998 0.646-3.15 1.051-1.51 4.01 5.22 0.76 3.15-1.05zm14.69 0c-0.84 6.36 4.82 0.7 0 0zm9.45 1.05v2.1c1.446-0.046 2.306 0.494 3.149 1.05-0.178-1.57 0.376-3.873-1.051-4.2-0.23 0.82-0.88 1.22-2.1 1.05zm21 2.1c0.722-2.823-2.17-2.028-3.149-3.15-0.63 2.73 0.42 3.78 3.15 3.15zm-108.14 1.05c0.056-1.807-0.809-2.691-2.1-3.149-1.5 1.54-1.54 4.07 2.1 3.15zm26.25-1.05c1.446-0.046 2.305 0.494 3.15 1.05v-3.149h-2.099c0 1.05-0.85 1.25-1.05 2.1zm55.64 3.15c1.985-0.234 2.316 1.184 4.198 1.051-1.693-3.251-0.908-4.078-2.099-6.3-1.18 1.26-2.99 1.9-2.1 5.25zm79.8-2.1c-2.003-0.446-1.899-2.999-5.251-2.099-2.12 3.99 4.77 4.16 5.25 2.1zm-141.74 9.45c-1.511-6.761 6.447-4.052 7.35-8.398-5.046 1.848-9.006-1.554-11.55 2.1-2.387-1.813-4.055-4.345-8.399-4.2-0.89 4.391 2.843 4.157 4.2 6.299-2.611-0.114-3.25-1.966-5.25 0 0.071 3.079 2.4 3.899 4.201 5.251-0.294-2.394 0.252-3.947 2.099-4.2 2.52 0.98 2.78 4.22 7.35 3.15zm-6.3-1.05c0.293 2.394-0.253 3.949-2.1 4.2-1.856-0.943-3.065-2.533-5.25-3.149 0.923 12.008-4.416 21.642-1.049 33.598-1.32-0.229-2.146-1.635-2.1 1.051 2.585 2.313 4.604 5.195 8.399 6.3 2.57-2.476-1.568-1.953-1.049-5.249 2.343-5.62 7.341-5.48 13.648-3.152-1.464-7.171-9.767-1.275-12.599-6.299 3.893-0.743 4.505 1.794 8.399 1.051 3.302-6.398-0.871-8.01 2.1-13.649-2.865-0.765-2.114 2.086-4.2 2.099-0.773-2.374-4.001-2.296-4.199-5.248 1.829-0.08 3.265 0.233 4.199 1.05 2.07-7.99 1.13-8.51-4.2-12.6zm32.55 33.6c6.086-1.753-1.612-5.319 4.2-7.348-3.023-0.949-3.811-5.953-3.149-8.4 0.417-1.542 4.014-3.382 4.199-5.249 0.17-1.712-1.789-2.773-2.1-4.2 0.041 0.186 2.024-0.188 2.1 0-2.023-4.986-7.569-8.454-14.699-8.4 1.396 1.056 3.907 0.995 4.199 3.152-2.864 0.095-2.113-1.751-4.199 0-0.496 3.296 2.825 2.773 3.15 5.248-1.65 0.102-3.641-0.142-3.15 2.1 1.743 3.158 7.805 1.996 8.399 6.299-3.73-0.118-3.816-3.882-8.399-3.149-0.442 3.595 3.145 3.156 4.199 5.251-2.53 0.43-2.282-1.919-5.25-1.051 2.27 6.155-1.582 6.192 3.15 10.5-1.985 0.236-2.317-1.185-4.2-1.051 0.484 6.342 2.576 4.6-1.049 8.4 0.726 3.292 2.8 1.368 5.25 1.051-0.431 2.528 1.917 2.281 1.05 5.249-1.867-0.933-2.668-2.931-6.299-2.1-0.891 4.39 2.842 4.155 4.199 6.3-3.35 0.623-3.248-1.971-5.25 0 2.453 4.399 0.806 3.244 0 8.398 4.248 1.354 6.341 4.859 9.45 7.35-4.522-0.911-3.32-0.735-5.25 2.099-2.002-0.446-1.9-2.999-5.25-2.099-0.418 4.269 4.469 3.231 5.25 6.299-3.197 0.299-4.083-3.364-6.299-1.05-0.797 4.646 4.09 3.611 5.249 6.301-2.529 0.43-2.282-1.918-5.249-1.051 0.963 3.937 3.413 6.386 7.349 7.351 2.575-1.398-1.892-3.169 1.05-4.2h3.15c-0.467 2.834-0.015 5.973 3.149 7.35-2.851-0.752 0.751 4.95-2.1 4.2-2.962-3.358-8.691-9.479-12.599-8.4 0.87 2.279 3.963 2.335 4.199 5.251-1.118-0.754-4.836-4.102-6.299-1.051 1.16 0.711 5.446 3.489 3.15 4.2-2.486-2.301-8.508-2.224-5.25-7.35-1.84-0.961-5.238-0.361-6.299-2.102 5.371 0.232 5.324-6.237 3.15-7.348-1.067 5.711-13.15 3.88-10.5 0 2.106 2.499 0.274-1.905-1.05-2.102 4.583-1.323 4.668-0.309 8.399 1.051 0.881-1.218 1.385-2.814 1.05-5.251-2.967-0.865-2.72 1.48-5.25 1.051-1.176-3.307-0.095-2.376 0-6.299-4.66 0.81-4.226-3.473-6.299-5.249 1.828 0.077 3.266-0.236 4.2-1.051-0.628 2.729 0.421 3.777 3.15 3.149-1.903-3.781 0.186-3.094 1.049-6.299-3.736-0.902-5.753-5.292-7.349 0 1.742-4.678-2.852-11.445-8.401-10.5 1.566 3.938 2.411 3.854 0 7.351 1.64 2.911 5.655 3.443 6.301 7.35-1.856-0.945-3.066-2.535-5.25-3.149 0.27 2.765 2.163 3.443-2.1 3.149 1.258 5.081 0.06 6.764 0 12.599 5.71 3.038 9.787 7.711 14.699 11.548-8.323-0.775-8.867-9.331-16.799-10.499-0.776 4.627 3.399 4.301 4.2 7.35-1.42-0.329-2.005-1.493-4.2-1.049 3.313 3.685 4.956 9.043 10.5 10.5 1.121-0.979 0.327-3.874 3.15-3.152 2.374 1.597-4.383 6.807 1.05 8.401 4.332-1.212 1.936-7.53 3.15-9.449 2.161 1.338 5.325 1.674 5.25 5.249-0.124 4.428-3.789 5.311-5.25 8.4 4.862 2.604 9.088-4.404 9.449-6.3 3.93-1.059 6.4 4.703 5.25 5.249-6.142-6.383-11.138 8.748-17.849 2.099-2.101 2.628-0.867 8.642 3.15 8.4 3.171-0.679 2.93-4.77 5.25-6.299 2.143 4.011 0.214 8.026 0 12.599 2.195 0.604 2.996 2.604 6.299 2.099-2.916-9.129 3.107-15.806 7.349-20.997-0.012-1.388-1.84-0.96-2.099-2.101 3.731 1.359 3.815 2.374 8.399 1.051-0.229 4.58-2.642 9.947 1.049 12.599-3.289 0.91-5.797 2.602-7.35 5.25 1.097 1.803 7.426 0.021 4.2 3.15 4.292 1.141 5.178-1.124 6.299-3.15 0.286 0.32-0.355 3.011 0 3.15 6.222 2.432 19.001-1.807 26.248 0-2.363-4.041 0.437-4.753 3.15-6.3-4.525-1.395-7.428-0.371-10.498 2.1-7.397 1.796-6.608-4.592-11.55-5.251-0.984 3.949-9.7 5.659-12.6 4.2 1.871-0.58 4.36-0.539 5.25-2.1-0.814-0.236-2.071-0.029-2.099-1.05 4.21-8.04 6.874-17.624 11.55-25.197-4.441 1.157-5.155 6.045-8.4 8.398-1.062-4.912 4.21-3.487 3.149-8.398-3.115 1.381-5.18 0.928-6.299-2.102 7.295-0.286-0.369-3.534 0-6.3 5.648 0.333-3.22-4.855 0-5.248 1.902 0.896 2.895 2.702 5.249 3.149-0.235-1.985 1.184-2.316 1.051-4.2-4.268-2.054-12.229-5.94-11.549-9.449 2.804-0.004 2.282 3.317 5.25 3.149 3.701-4.729-3.489-5.824-5.25-8.4 4.617-0.279 6.704 5.919 10.499 3.152 0.223-3.724-4.925-2.076-4.199-6.302 1.867 0.933 2.668 2.933 6.299 2.102-1.078-4.166-5.325-7.177-9.449-5.251 1.475-3.26-4.445-5.342-3.15-7.351 3.922 1.84 9.949 9.854 13.65 5.251 0.011 1.389 1.839 0.961 2.097 2.1-0.015 1.733-2.911 0.589-3.148 2.101 2.547 1.652 4.485 3.915 9.45 3.15 1.309-4.461-3.491-2.809-4.2-5.251 2.435-0.292 2.413-2.804 1.049-4.198-4.7 3.36-9.03 2.05-11.55-3.15zm40.94-36.75h3.149v-3.149h-3.149v3.15zm-123.89 3.15c0.272-3.422-1.248-5.053-4.201-5.248-2.07 2.19 0.9 5.27 4.2 5.25zm138.59 71.4c-3.006 8.721 9.874 20.922 15.748 10.499-2.357-3.137-6.918 2.016-7.35-2.099 8.344-1.536-4.725-3.702-3.15-8.4 1.053 0.004 1.251-0.851 2.1-1.049 4.716 2.254 6.542 1.622 13.649 2.099 1.723-7.321-7.249-3.948-9.449-7.35 0.236-0.814 0.03-2.071 1.051-2.099 2.021 0.425 0.829 4.069 4.2 3.149 4.834-6.424-6.16-4.651-6.302-9.449 2.965 0.105 4.46 3.955 7.35 1.049-4.537-5.204 0.342-4.551-1.048-9.449-3.376-0.924-1.439 3.461-4.2 3.149 0.781-3.231-2.882-2.017-2.102-5.248 3.305-1.203 2.553 1.647 4.2 2.099 0.616-2.185 2.206-3.393 3.149-5.249-6.256-1.441-13.604-1.796-14.697-8.4 3.971-2.011 1.076-7.047 0-10.499 2.14 0.586 2.058 3.16 4.198 1.051-0.188-5.969-1.815-6.427-4.198-8.401 1.28-0.118 2.485-0.312 2.099-2.099-2.449-0.351-4.522-1.076-5.248-3.149 6.331 0.911 3.355-4.723 2.099-7.351 2.435-0.335 4.03 0.17 5.249 1.051 1.026-4.526-3.945-3.055-4.198-6.299 2.449 0.317 4.522 2.24 5.249-1.051-4.362-2.486-6.287 2.954-10.5-1.051-1.508 17.003 4.976 32.26 0 50.396 3.848 2.279-0.036 6.137 4.2 8.4-1.446-0.045-2.306 0.494-3.149 1.051 2.24 3.507 0.902 5.135 2.099 8.398 3.923 1.124 2.993-2.605 6.3-2.099-0.32 2.421 3.033 1.166 3.149 3.149-2.183-0.351-1.998 5.975-6.3 2.099 1.808 0.057 2.692-0.808 3.15-2.099-6.69 0.81-2.49 5.57-7.35 5.25zm0 9.44c-2.56 1.539 2.795 6.893 4.197 4.201-2.7-0.1-1.5-4.09-4.2-4.2zm12.6-4.19v-2.102h-2.102v2.102h2.1zm1.05-78.75c-0.645-0.308-4.043-2.612-4.2 0 0.65 0.31 4.04 2.61 4.2 0zm-59.84 1.05v2.099c0.641 0.061 1.242 0.157 1.049 1.051h2.102c0.058-0.641 0.154-1.244 1.048-1.051v-2.099c-0.64-0.061-1.241-0.157-1.048-1.051h-2.102c-0.06 0.64-0.16 1.25-1.05 1.05zm-30.45 4.2c4.042 0.827 4.042-5.027 0-4.2v4.2zm8.4 0c0.295-2.748-0.384-4.519-3.15-4.2-1.55 1.45-0.55 4.99 3.15 4.2zm-12.6 0c1.054-0.005 1.249 0.849 2.1 1.048-0.1-1.649 0.141-3.64-2.1-3.149v2.1zm90.29 0c3.765 4.965-2.954 13.177 6.3 14.697-0.104-8.268-0.238-9.385-2.1-15.748-1.83-0.08-3.26 0.23-4.2 1.05zm-135.44 2.1h3.149c0.135-1.887-1.042-2.458-3.149-2.099v2.1zm110.24 3.15c1.652-1.776-0.109-6.061-4.198-5.248-0.27 3.42 1.25 5.05 4.2 5.25zm40.95 39.9c2.607 6.77-2.095 10.871 4.2 15.748-5.176 0.03-0.157 3.663 0 5.251 0.245 2.49-3.876 6.362 0 9.449 0.904-2.814 3.893-4.189 5.248-1.051 1.072-1.379 1.031-3.869 2.102-5.249-3.398-1.297-0.804 3.397-4.2 2.1 0.765-2.864-2.086-2.112-2.099-4.198 6.768 0.009 1.035-7.223 6.299-7.35-2.195-1.305-3.946-3.056-5.251-5.251 3.5-0.83-1.62-9.94-6.3-9.45zm-1.05-21c0.672 5.633 0.89 9.052 2.101 13.649-0.015-0.059-2.348 1.599-2.101 3.149 0.614 3.846 4.812 2.737 7.35 5.251-2.219 0.324 1.104 3.646 3.149 3.149-1.074-3.446-3.184-4.63 0-7.35-1.95-1.214-6.503 1.235-7.348-3.149 1.57-0.179 3.874 0.376 4.198-1.051-1.454-1.693-2.974-3.324-4.198-5.249h3.15c-3.758-6.733 1.182-15.22-4.201-20.999 1.558-0.892 2.259-2.643 2.1-5.249-1.652-0.548-5.623-4.043-7.35-1.051 1.12 5.51 2.41 12.67 3.15 18.9zm-73.49-16.8h2.097v-2.1h-2.097v2.1zm29.39 1.05c2.476 1.542 1.953 2.215 5.249 1.05 0.41-3.25-5.05-4.28-5.25-1.05zm7.35 1.05h2.102c1.633-2.584-3.566-3.087-3.149-1.05 0.64 0.06 1.25 0.16 1.05 1.05zm74.55 1.05c1.683-2.924-4.533-2.902-4.198-1.049 1.83-0.08 3.26 0.23 4.2 1.05zm-111.29-1.05c-1.11 6.09 4.55 0.44 0 0zm56.69 2.1h2.101v-2.1h-2.101v2.1zm-86.09 3.15c2.746 0.297 4.516-0.382 4.2-3.149-2.75-0.3-4.52 0.38-4.2 3.15zm9.45 0c0.317-2.765-1.453-3.446-4.199-3.149-1.06 3.5 1.45 3.44 4.2 3.15zm28.35-1.05h2.1v-2.099h-2.1v2.1zm20.99 1.05c1.805 0.056 2.69-0.808 3.15-2.099-1.65 0.1-3.64-0.14-3.15 2.1zm6.3 0c1.805 0.056 2.689-0.808 3.149-2.099-1.65 0.1-3.64-0.14-3.15 2.1zm70.35 0c1.421 0.331 2.005 1.495 4.2 1.051 0.28-3.07-4.08-4.03-4.2-1.05zm-70.35 6.3c4.041 0.827 4.041-5.027 0-4.198-1.75 2.09 0.1 1.33 0 4.2zm-65.09 0h3.149v-3.15h-3.149v3.15zm4.2-2.1c-0.387 3.187 3.419 2.179 5.249 3.15v-4.201c-2.44-0.34-4.03 0.17-5.25 1.05zm90.29 0c-1.42-0.331-2.005-1.495-4.2-1.051-0.79 3.58 4.01 4.09 4.2 1.05zm46.2 3.15c0.318-2.768-1.452-3.446-4.198-3.15-0.32 2.77 1.45 3.44 4.2 3.15zm-55.65 6.3c0.374 1.497 5.35 3.586 6.3 1.051-5.272-3.631 2.369-2.129 3.149-5.251-2.145-1.003-4.155-2.145-6.3-3.149-0.71 2.79-2.01 4.99-3.15 7.35zm-16.8-1.05v-4.198h-3.149c-0.29 2.74 0.39 4.52 3.15 4.2zm27.3-3.15c3.54 3.19 3.18-3.88 0 0zm-64.05 5.25v-4.2h-4.198c0.13 2.67 1.53 4.07 4.2 4.2zm105-2.1h3.149c0.136-1.884-1.044-2.455-3.149-2.099v2.1zm-100.79 1.05c2 0.447 1.898 2.999 5.248 2.099v-4.197c-2.61-0.16-5.1-0.2-5.25 2.1zm59.84 0c-1.343-0.058-1.455-1.345-3.15-1.051-1.63 2.58 3.57 3.09 3.15 1.05zm-170.09 9.45c-3.043 7.242-1.525 11.732-3.149 18.9 3.245 0.64 6.954 8.293 9.45 3.149-1.395-1.056-3.907-0.993-4.2-3.149 1.445-0.048 2.306 0.494 3.15 1.048-0.144-4.755-2.968-6.83-4.199-10.497 5.243-1.047 3.041 5.355 7.349 5.248 1.878-6.109-1.946-8.196 1.051-10.499-1.757-1.393-3.518-2.782-7.35-2.1 0.33-1.42 1.495-2.006 1.05-4.2-4.572-0.677-5.038-5.461-9.449-6.299-0.67 5.57 5.52 4.28 6.3 8.4zm27.3-5.25c-1.648-0.451-0.897-3.302-4.199-2.102-1.95 3.5 3.77 4.42 4.2 2.1zm187.94-1.05c-4.25-3.7-2.48 3.38 0 0zm-143.84 1.05c-1.6-1.615-7.199-1.871-6.299 2.099 3.346 0.898 3.985-0.912 5.249-2.099-0.01 0.58 0.85 1.19 1.05 0zm32.55 1.05h2.097c1.633-2.585-3.563-3.09-3.148-1.051 0.64 0.06 1.24 0.16 1.05 1.05zm28.34 0c2.834 1.364 2.748 5.65 6.3 6.299-2.273-5.511 0.426-3.304 5.249-3.149 0.335-2.437-0.168-4.032-1.049-5.251-4.19 3.64-6.2-2.08-10.5 2.1zm-56.69 0c-4.25-3.69-2.48 3.38 0 0zm35.69 1.05h2.102v-2.099h-2.102v2.1zm54.6 2.1c-0.198-2.954-1.826-4.473-5.251-4.2 0.2 2.95 1.83 4.47 5.25 4.2zm6.3-1.05c-1.856-0.943-3.065-2.535-5.249-3.149-0.77 2.97 3.45 6.21 5.25 3.15zm16.8 3.15c0.005-2.538-3.676-6.712-5.248-4.201 2.44 0.71 2.81 3.49 5.25 4.2zm16.8-1.05c0.653-7.286-6.252-2.735-8.398-1.049 2.495 5.06 1.74 11.247 2.1 18.898 4.8-1.021 5.828 0.713 9.449-1.051 1.024-4.875-6.274-1.425-5.249-6.3 1.56 1.654 4.69 1.171 4.198-2.099-3.548 0.397-4.479-1.82-6.3-3.149h5.251c1.229-4.102-6.95-4.157-4.2-6.3 0.17 1.22 1.66 1.14 3.15 1.05zm-216.29 15.75c0.128 2.671 1.528 4.071 4.199 4.198 0.49-3.29-0.91-4.69-4.2-4.2zm5.25 0c-1.479-5.337 6.885-16.577-2.099-18.9 0.013 4.534-1.929 5.888 1.049 8.401-4.559-0.359-2.022 6.376-4.199 8.398 2 0.45 2.64 2.26 5.25 2.1zm28.35-14.7c1.053-0.005 1.249 0.851 2.099 1.05-0.003-1.055 0.851-1.25 1.05-2.101-1.054 0.004-1.249-0.849-2.1-1.049 0 1.05-0.85 1.25-1.05 2.1zm43.05 0c0.97 1.83-0.036 5.635 3.149 5.248-1.565-2.926 1.179-9-2.1-6.299 0.641 0.06 1.244 0.156 1.051 1.051h-2.1zm6.3 2.1c3.062 1.545 3.062-4.692 0-3.149v3.15zm57.74-1.05h2.101v-2.101h-2.101v2.1zm9.45 0c1.856 0.922 3.063 3.328 5.248 1.049 1.02-3.86-5.16-4.17-5.25-1.05zm6.3 1.05h2.1v-2.099h-2.1v2.1zm-9.45 0c-3.53-3.19-3.18 3.88 0 0zm76.65 2.1h2.099v-2.102h-2.099v2.1zm-78.75 4.2c5.249-2.258 8.01 4.217 10.499-2.102-6.056-0.068-4.503-1.594-10.499-2.099v4.2zm-22.04 2.1c-0.258-4.292-5.468-3.633-8.398-5.251 0.14 4.41 5.96 3.13 8.4 5.25zm17.84-3.15v2.099c2.584 1.633 3.089-3.566 1.051-3.149-0.06 0.64-0.15 1.24-1.05 1.05zm-55.64 1.05c-3.54-3.19-3.19 3.88 0 0zm27.3 2.1h2.101v-2.099h-2.101v2.1zm31.49 1.05c0.849 1.85 10.184 4.376 10.498 0-2.38-1.06-10.47-2.99-10.5 0zm0 1.05c-2.086-0.014-1.336-2.864-4.2-2.1-1.1 2.65 3.55 4.65 4.2 2.1zm-62.99 1.05h3.15c0.135-1.886-1.043-2.457-3.15-2.099v2.1zm33.6 0c1.652 0.879 5.853 4.533 7.348 2.1-1.534-0.915-4.064-0.834-3.149-4.198-1.96 0.14-3.51 0.69-4.2 2.1zm0 3.15c0.937-3.391-3.426-1.477-4.201-3.15-0.32 2.77 2.19 2.7 4.2 3.15zm-16.8 1.05c0.724-2.823-2.17-2.031-3.15-3.15-0.73 2.82 2.17 2.03 3.15 3.15zm-13.65 2.1c0.295-2.746-0.383-4.517-3.15-4.2-2.28 2.81-0.38 6.62 3.15 4.2zm73.49 0c0.763-2.864-2.088-2.114-2.102-4.2-2.401 0.668-6.333 2.084-8.397 0 0.38 6.91 7.94 6.05 10.5 4.2zm97.65-1.05c4.603 0.054 9.834 0.735 10.498-3.149-5.12-0.57-8.65 0.45-10.5 3.15zm-285.58 15.75c2.607 1.364 4.357-3.081 5.25 0-0.448 2.002-3 1.898-2.1 5.248 5.144-2.372 2.423-7.023 4.199-11.548-4.343-2.51-6.013 1.962-8.399 0 1.558-1.244 1.634-3.968 3.149-5.251 7.677 3.523 10.018 12.382 15.75 17.85 2.676-1.525 0.265-8.134 5.25-7.35 0.85-8.201-9.729-4.972-9.45-12.599-6.5-1.292-12.89-7.025-18.898-1.051 0.341 2.458 4.58 1.021 5.25 3.149-1.056 2.095-4.643 1.656-4.2 5.251 2.988 0.51 3.716 3.28 4.203 6.3zm116.54-13.65c0.06-0.641 0.158-1.244 1.051-1.051-0.119-1.28-0.315-2.485-2.1-2.099 0.16 1.23-0.18 2.98 1.05 3.15zm3.15 0c0.094-1.654 2.677-0.823 2.099-3.149-2.17-0.92-4.72 2.72-2.1 3.15zm120.74-1.05c3.856-0.34 7.197 2.993 9.449 1.051 0.58-4.03-8.95-4.51-9.45-1.05zm-86.09 1.05c-4.417-0.97-4.411-0.269-8.4-2.102-0.65 4.84 7.34 4.85 8.4 2.1zm108.14-1.05c-1.427 6.327 2.442 7.358 2.101 12.599 4.336-1.233 4.529-11.129 4.198-13.649-3.21-0.77-3.09 1.81-6.3 1.05zm-217.34 7.35c-0.844-4.056-5.131-4.668-7.35-7.35 0.85 4.05 5.13 4.66 7.35 7.35zm233.09-4.2c4.903 2.404 13.112 0.105 16.799-2.099-4.12-1.62-13.57-0.56-16.8 2.1zm-111.3 0h2.099v-2.099h-2.099v2.1zm73.5 1.05c2.464 0.335 3.94 1.658 7.35 1.049 1.23-4.31-7.3-4.22-7.35-1.05zm-125.99 0c-0.191 2.29 0.859 3.341 3.15 3.149 1.074-1.026 2.124-2.075 3.149-3.149-3.31 0.52-4.11-2.29-6.3 0zm28.35 0c-0.045 1.446 0.495 2.306 1.049 3.149 2.689-0.111 5.005-0.595 6.299-2.101-2.09-0.99-5-3.42-7.35-1.05zm27.29 0v2.099c2.583 1.633 3.088-3.566 1.049-3.149-0.06 0.64-0.15 1.24-1.05 1.05zm19.95 4.2c-0.202-5.747-7.866-4.032-12.599-5.251-0.75 6.32 8.52 7.14 12.6 5.25zm-199.48 3.15c3.702-0.148 2.991-4.709 4.2-7.35-4.608-0.76-4.199 3.5-4.2 7.35zm260.38 4.19c2.733-2.691-5.96 0.49-5.251 2.102-0.627-1.869 3.079-4.361 0-5.251-1.059 2.091-1.815 4.486-4.197 5.251-0.236-1.985 1.182-2.318 1.048-4.2-4.303 1.946-5.897 1.574-9.449 5.248 0.34-4.909 3.31-7.19 3.15-12.599-3.595-0.962-1.487 2.95-2.1 4.2-1.841 3.752-6.297 6.242-7.35 10.5 5.38 2.318 4.486 10.912 11.55 11.548-0.924 1.856-3.327 3.066-1.05 5.251 4.419-0.129 2.872-6.227 6.299-7.35 1.178 0.221 1.635 1.166 2.099 2.099-0.272 3.228-2.277 4.723-3.149 7.351 4.291 1.311 7.979 3.221 10.5 6.299 1.54-4.037-2.443-10.566-4.2-14.697 1.338 2.679 5.144-0.976 5.251 1.048-0.331 1.421-1.496 2.007-1.051 4.2 6.062-0.915 0.29 3.487 3.149 5.251 5.494 0.243 4.059-6.443 4.2-11.55-8.345 1.695-7.276-6.022-13.649-6.3-0.573 1.525 1.228 5.428-1.051 5.249-1.832-0.965-2.315-3.28-2.099-6.299 13.857 0.135 21.726-8.934 12.599-18.898-1.57 0.179-3.874-0.376-4.198 1.049 1.33 5.55 2.73 6.78-1.05 10.5zm-97.64-2.09c0.174-3.674-0.279-6.721-2.099-8.4-0.12 3.73-5.3 8.64 2.1 8.4zm121.79-7.35c-0.967 3.816 6.929 2.402 6.299 0-2.46-0.33-4.34-2.06-6.3 0zm-31.5 4.2c1.744-4.444 2.819 1.659 6.3-1.05v-3.15c-2.89-0.02-9.46 1.64-6.3 4.2zm-5.25 2.1c0.447-2.002 3-1.899 2.1-5.249-3.12-1.25-4.51 4.42-2.1 5.25zm-128.09-2.1h2.1v-2.099h-2.1v2.1zm34.65 2.1c1.942-1.85-0.271-3.251-2.101-4.198-1.33 1.23-0.85 4.36 2.1 4.2zm47.24-1.05c-6.83-0.707-8.83 1.644-14.697-2.101-3.313 4.902 3.606 7.203 9.448 6.299-1.25-7.12 5.44 3.41 5.25-4.2zm78.75 3.15c6.89-1.749 17.812 2.997 20.999-4.201-5.285-0.734-8.753 0.347-10.5 3.15 0.21-5.61-11.02-3.23-10.5 1.05zm-284.53 0c1.053-0.005 1.249 0.849 2.1 1.048-0.101-1.649 0.14-3.64-2.1-3.149v2.1zm4.199 2.1c2.561 1.01 3.477-4.718 2.1-4.2-0.014 2.08-2.865 1.33-2.1 4.2zm217.34-1.06c2.417 3.283 7.58-2.297 5.249 5.251 2.608 1.364 4.357-3.081 5.249 0 0.178 2.628-1.611 3.287-3.149 4.2-0.89-1.562-3.38-1.521-5.249-2.101-1.981 2.219-4.761 3.639-7.35 5.25 4.477 2.522 7.352 6.647 6.299 14.698 6.388 1.112 16.027-9.735 8.4-15.748 4.007 0.507 6.701-0.299 8.398-2.1-2.33-6.14-12.15-16.56-17.85-9.45zm54.6 4.2c4.315 0.467 3.774-3.925 5.25-6.299-3.53 0.33-4.19 3.52-5.25 6.3zm-113.39-1.05c3.197-0.303 7.167 0.168 7.35-3.149-3.314 0.516-3.708-1.891-7.35-1.048v4.2zm-154.34-1.04h2.099v-2.102h-2.099v2.1zm291.88 8.39c3.33-2.29 0.623-7.363-1.049-10.5h-5.251c0.53 2.22-2.26 11.63 6.3 10.5zm-309.73-7.35c2.007-0.165 7.485 2.656 7.35-2.099-2.659 1.89-5.954-1.99-7.35 2.1zm20.999 0h3.15c0.135-1.884-1.043-2.455-3.15-2.099v2.1zm269.84 4.21c5.829 1.826 4.783-1.586 10.5 1.05 1.03-9.01-10.44-9.26-10.5-1.05zm-79.8-4.21c-0.195-1.553-2.537-0.962-4.2-1.048-2.24 3.87 5.35 4.74 4.2 1.05zm-153.29 8.41c4.107-0.093 7.115-1.285 6.299-6.3-1.218-0.881-2.814-1.386-5.25-1.051-0.33 2.46-1.66 3.93-1.05 7.35zm54.6-5.25v4.198c2.639 0.453 5.031-7.866 3.149-5.249-0.18 1.22-1.66 1.13-3.15 1.05zm57.74 0h3.15c0.137-1.887-1.04-2.458-3.15-2.102v2.1zm10.51 5.25c-1.757-4.441 0.118-6.274-4.2-7.351-2.62 3.14 0.69 7.07 4.2 7.35zm98.69-3.16c0.838 2.312 2.107 4.192 5.251 4.2-2.645-3.298-1.429-4.389 2.099-6.299-2.01-2.9-7.49-2.63-7.35 2.1zm-161.69 3.16h2.1c1.175-1.513 1.132-2.563-1.049-3.15 0.04 1.44-0.49 2.3-1.05 3.15zm179.54 5.24c4.059 0.816 6.089-6.424 2.099-7.348-1.93 1.35-4.62 4.71-2.1 7.35zm-123.9-2.1v-4.2c-4.04-0.82-4.04 5.03 0 4.2zm8.4 3.15c2.53-0.43 2.281 1.919 5.251 1.051 3.008-3.775-0.92-7.632-4.2-8.4-1.44 1.36-1.03 4.56-1.05 7.35zm-69.29-2.09c3.334 1.563 6.262-4.821 2.099-4.2 1.3 3.39-3.4 0.8-2.1 4.2zm8.4-3.16c-0.045 3.894 3.937 3.763 5.25 6.3 0.323-2.478 3.646-1.953 3.149-5.251-3.22-0.06-5.47-3.85-8.4-1.05zm128.09 4.2c3.255 0.406 4.275-5.055 1.051-5.248-0.88 1.22-1.39 2.82-1.05 5.25zm55.65-1.04c3.58 0.79 4.096-4.012 1.049-4.2-0.33 1.42-1.5 2-1.05 4.2zm-250.94 0h2.099c0.058-1.343 1.346-1.455 1.051-3.15h-2.1c-0.06 1.34-1.34 1.45-1.05 3.15zm9.45 4.19c3.398 1.297 0.802-3.397 4.199-2.1 0.207-3.006 0.131-5.729-3.15-5.249-2.277 2.184 0.129 3.393 1.051 5.249-1.18 0.23-1.63 1.17-2.1 2.1zm111.3-3.15c2.82 0.725 2.027-2.17 3.149-3.149-2.3-0.19-3.35 0.86-3.15 3.15zm159.58-2.1c4 2.91 4.62-3.85 0 0zm-215.23 5.25c2.331-0.437 1.008-5.756-1.051-5.249-0.81 0.72-2.74 6.26 1.05 5.25zm-17.85-2.1c-0.043 5.292 3.639 6.862 5.25 10.5 7.251-0.185 10.085-1.221 16.799 0 0.409 1.497 1.26 1.771 0 3.149 4.311-2.623 4.204 1.887 9.45 1.051 1.441-2.394-2.707-3.947 0-4.2 1.47 0.079 4.015-0.234 2.099-1.051-6.865 0.915-8.771-3.128-11.549-6.3-2.287 3.307-3.309 1.346-1.05 5.251-5.279-0.322-6.888-4.312-9.449-7.35-0.125 3.944-1.918 3.552-2.1 5.249-2.442-1.058-3.386-3.614-3.15-7.351-3.21-0.76-3.09 1.82-6.3 1.05zm46.2 8.4c2.964-0.537 4.459-2.541 7.35-3.151 1.49-11.18-9.49-4.26-7.35 3.15zm21-4.2c2.626 0.179 3.285-1.613 4.198-3.149-1.218-0.881-2.814-1.386-5.25-1.051-0.08 1.83 0.23 3.27 1.05 4.2zm11.54 5.25c2.415-2.723-0.038-6.944-1.05-9.449h-3.15c1.36 3.2-0.52 9.62 4.2 9.45zm-103.94-1.05c2.266 1.233 4.822 2.177 7.35 3.149 3.041-5.01 14.629-1.469 18.899-5.25-2.375-4.125-5.681-1.528-8.399-4.2-2.23 6.21-15.33-1.22-17.85 6.3zm108.14-3.15c2.746 0.296 4.517-0.383 4.198-3.149-2.74-0.29-4.51 0.39-4.2 3.15zm63 5.25c0.231-0.819 0.879-1.221 2.099-1.051 0.639-4.138-2.348-4.649-5.249-5.249-2.27 2.41-0.38 6.55 3.15 6.3zm2.1 2.1c4.914 1.932 6.525-8.837 3.149-8.398-0.55 3.3-1.84 5.86-3.15 8.4zm-158.54-2.1c-0.255 3.807 10.164 2.365 11.549 1.05-1.89-2.89-8.27-2.46-11.55-1.05zm179.54 2.1c0.316-2.765-1.454-3.443-4.2-3.149-0.32 2.77 1.45 3.45 4.2 3.15zm-42 2.1c4.415-0.488 10.332 0.53 11.55-3.15-3.16-0.14-9.27-0.78-11.55 3.15zm-25.2-2.1c-3.534 0.666-9.752-1.352-11.55 1.051 3.34 1.47 9.4 1.58 11.55-1.05zm133.34 6.3c2.437 0.564 7.238-1.699 4.2-3.152 0.34 2.79-5.88-0.98-4.2 3.15zm-9.44 3.15c2.394 0.292 3.947-0.254 4.2-2.102-1.86 0.24-5.26-1.05-4.2 2.1zm13.64 2.1c1.807 0.056 2.692-0.809 3.149-2.1-1.65 0.1-3.64-0.14-3.15 2.1zm10.5-1.05c-1.344-0.059-1.455-1.346-3.15-1.049-1.63 2.59 3.57 3.09 3.15 1.05zm11.55 1.05c2.174-0.626 6.896 1.297 7.348-1.051-1.41-1.43-7.33-2-7.35 1.05zm9.45 0c2.174-0.626 6.896 1.297 7.35-1.051-4.13 0.49-5.45-2.2-7.35 1.05zm-80.84 3.15c-1.57 0.178-3.875-0.376-4.2 1.051 1.39 1.36 3.9 1.39 4.2-1.05zm24.15 6.3c3.21 1.013 4.508-5.158 3.149-5.248 0 2.81-3.32 2.28-3.15 5.25z"></path> <path style="clip-rule:evenodd;fill-rule:evenodd" d="m232.04 47.45c0.976-1.582 6.574 1.055 8.4 2.099-1.71 4.662-5.33-1.734-8.4-2.099z"></path> <path style="clip-rule:evenodd;fill-rule:evenodd" d="m241.48 72.647c-2.007-2.828 2.346 1.285 4.2 1.051-1.122 0.979-0.327 3.874-3.149 3.149 1.37-1.396 1.39-3.906-1.05-4.2z"></path> <path style="clip-rule:evenodd;fill-rule:evenodd" d="m268.78 104.15c0.684 1.068 2.415 1.085 2.102 3.15-3.34 0.96-3.55-8.536-2.1-3.15z"></path> <path style="clip-rule:evenodd;fill-rule:evenodd" d="m242.54 131.44v-3.15c4.86 2.06 8.44 5.74 0 3.15z"></path> <path style="clip-rule:evenodd;fill-rule:evenodd" d="m120.74 193.39c-1.853-0.333-1.874 5.883 1.05 4.2-0.325 1.425-2.629 0.872-4.2 1.051-0.494-6.772 1.175-11.048 2.1-19.949 2.708 0.791-0.767 7.765 3.15 7.351-0.771 0.979-1.909 1.59-3.15 2.099 2.483 5.566 7.663 8.438 12.599 11.548-6.07 4.28-8.17-4.4-11.55-6.3z"></path> <path style="clip-rule:evenodd;fill-rule:evenodd" d="m123.89 180.79c0.83-2.415 3.673 1.807 5.25 2.099-1.771 1.309-5.658 5.861-1.05 7.351-7.74 3.12 0.81-7.95-4.2-9.45z"></path> <path style="clip-rule:evenodd;fill-rule:evenodd" d="m216.29 191.29c2.865-0.765 2.114 2.087 4.2 2.1 0.51 1.38-5.21 0.46-4.2-2.1z"></path> <path style="clip-rule:evenodd;fill-rule:evenodd" d="m214.19 208.09c0.955-2.852 3.68 1.069 5.25 1.05-1.58 3.47-2.57-2.18-5.25-1.05z"></path> <path style="clip-rule:evenodd;fill-rule:evenodd" d="m184.79 240.64c0.387 1.787-0.818 1.98-2.1 2.102 1.893 0.906 3.292 2.307 4.2 4.197-1.29 2.54-9.65-5.98-2.1-6.3z"></path> <path style="clip-rule:evenodd;fill-rule:evenodd" d="m383.23 277.38c0.253-2.705 1.807 1.444 4.2 0-0.16 2.62-3.56 0.31-4.2 0z"></path> <metadata></metadata></svg> 