<?xml version="1.0" encoding="UTF-8" standalone="no"?> <!-- Generator: Adobe Illustrator 10.0, SVG Export Plug-In . SVG Version: 3.0.0 Build 77) --> <svg xmlns:rdf="http://www.w3.org/1999/02/22-rdf-syntax-ns#" xmlns="http://www.w3.org/2000/svg" xmlns:x="http://ns.adobe.com/Extensibility/1.0/" xmlns:dc="http://purl.org/dc/elements/1.1/" xmlns:i="http://ns.adobe.com/AdobeIllustrator/10.0/" xmlns:cc="http://web.resource.org/cc/" xmlns:xlink="http://www.w3.org/1999/xlink" xmlns:a="http://ns.adobe.com/AdobeSVGViewerExtensions/3.0/" xmlns:graph="http://ns.adobe.com/Graphs/1.0/" xmlns:svg="http://www.w3.org/2000/svg" xmlns:inkscape="http://www.inkscape.org/namespaces/inkscape" xmlns:sodipodi="http://sodipodi.sourceforge.net/DTD/sodipodi-0.dtd" xmlns:ns1="http://sozi.baierouge.fr" i:rulerOrigin="0 0" i:viewOrigin="238 494.9995" i:pageBounds="0 792 612 0" viewBox="0 0 135.566 198.089" overflow="visible"><g id="Layer_1" i:layer="yes" i:rgbTrio="#4F008000FFFF" i:dimmedPercent="50"><g clip-rule="evenodd" fill-rule="evenodd"><path d="m0.523 171.07c1.368-11.197 2.016-25.561 1.944-44.209-0.072-18.756-0.936-40.536-2.448-66.744 6.732-2.376 16.416-5.976 29.448-10.8 13.068-4.896 28.836-10.908 48.132-18.18l5.4 3.924c1.908-9.576 3.996-16.992 6.408-22.788 2.376-5.868 4.752-10.188 7.812-11.7 2.916-1.476 3.672 0.18 9.9 2.628 6.228 2.304 15.191 5.976 27.288 11.16 1.151 1.692 1.548 3.204 1.044 4.68-0.505 1.44-1.801 2.7-3.889 3.924-6.768-2.124-12.563-4.248-17.676-6.516-5.148-2.376-9.36-4.536-12.78-7.02-3.023 4.428-5.399 9.072-7.271 13.788-1.98 4.788-3.097 9.468-3.889 14.58l24.948 13.5c1.225 12.456 1.836 28.044 1.98 47.592 0.071 19.548-0.468 42.085-1.477 68.724-15.516 7.705-29.268 14.041-42.228 19.152-12.924 5.111-24.444 8.748-34.848 11.305-6.192-3.42-12.276-7.309-18.648-11.809-6.327-4.49-12.663-9.6-19.143-15.18z" i:knockout="Off" stroke="#000000" stroke-miterlimit="10" stroke-width=".036"></path><path d="m2.827 64.761c1.476 2.016 3.456 5.796 5.796 11.628 2.268 5.796 5.04 13.32 8.172 23.004-0.144-3.996 0-7.992 0.288-12.528 0.288-4.572 0.72-9.144 1.44-14.256-2.268-2.268-4.644-3.888-7.272-5.256-2.736-1.332-5.364-2.196-8.424-2.592z" i:knockout="Off" stroke="#000000" stroke-miterlimit="10" stroke-width=".036" fill="#FFFFFF"></path><path d="m22.591 74.049c3.06 1.548 5.544 2.916 7.596 4.392 2.016 1.44 3.564 2.7 4.644 4.068-2.376 3.564-4.752 6.624-7.272 9.324-2.592 2.628-5.076 4.86-7.848 6.696 0.396-8.856 1.008-15.12 1.44-19.224 0.396-4.14 1.008-5.796 1.44-5.256z" i:knockout="Off" stroke="#000000" stroke-miterlimit="10" stroke-width=".036" fill="#FFFFFF"></path><path d="m7.759 61.557c1.188-0.144 5.184-1.476 12.528-4.392 7.344-2.988 21.096-8.82 30.852-12.78 9.576-4.032 18.36-7.524 26.496-10.872l4.824 2.808c-0.576 2.88-1.08 4.968-1.368 6.264-0.324 1.224-0.432 1.08-0.468 1.512-0.072 0.324-0.072 0.756 0 0.9-2.593-0.144-3.924-0.036-3.853 0.468 0 0.396 2.053 1.872 4.068 2.34 1.944 0.504 6.264 0.792 7.56 0.576 1.188-0.36 0.9-1.044-0.575-2.34l1.728-6.696 22.428 12.528c-3.996 2.088-12.096 5.436-24.443 10.188-12.528 4.752-28.656 10.584-49.5 18.036-3.024-2.736-5.544-4.824-7.56-6.408-2.052-1.62-3.564-2.484-4.68-2.88 9.936-4.104 14.4-6.336 13.68-6.696-0.828-0.396-6.84 1.008-18.324 4.356-2.52-2.16-4.716-3.816-6.984-4.968-2.27-1.152-4.358-1.8-6.41-1.944z" i:knockout="Off" stroke="#000000" stroke-miterlimit="10" stroke-width=".036" fill="#FFFFFF"></path><path d="m133.83 14.865c-0.973 0.288-1.656 1.08-2.053 2.376-0.396 1.224-0.647 2.988-0.468 5.148 1.62-0.9 2.7-1.8 3.097-3.096 0.39-1.296 0.25-2.772-0.58-4.428z" i:knockout="Off" stroke="#000000" stroke-miterlimit="10" stroke-width=".036" fill="#FFFFFF"></path><path d="m132.1 14.289c-3.924-1.656-7.74-3.348-11.988-4.932-4.319-1.656-9.611-3.528-13.104-4.788-3.456-1.332-5.508-2.916-7.416-2.952-2.016-0.144-2.448-0.828-4.356 2.268-2.088 3.024-5.039 9.18-7.308 15.984-2.231 6.696-4.212 14.724-5.939 24.228 0.071 0.972 0.287 1.692 1.044 2.16 0.575 0.396 1.691 0.54 2.951 0.432 0.54-2.232 1.332-5.256 2.521-9.216 1.116-4.032 2.196-9.972 4.212-14.616 1.872-4.788 4.356-9.145 7.308-13.5-1.512-0.324-2.483-0.828-3.06-1.116-0.576-0.468-0.792-1.224-0.252-1.152 0.432 0.108 1.512 0.468 3.096 1.476-0.216-1.44-0.288-2.34-0.216-2.844 0-0.576 0.324-0.396 0.54 0 0.108 0.396 0.432 1.188 0.576 2.376 2.016-1.584 3.168-2.34 3.312-2.268 0.145 0.036-0.611 0.864-2.268 2.628-0.072 0.864 2.34 2.34 7.092 4.572 4.824 2.196 11.844 5.004 21.456 8.568-0.18-2.124-0.108-3.852 0.216-5.04 0.24-1.26 0.82-2.016 1.57-2.268z" i:knockout="Off" stroke="#000000" stroke-miterlimit="10" stroke-width=".036" fill="#FFFFFF"></path><path d="m39.295 84.165c-0.936 1.296 4.608-0.504 17.172-5.4 12.6-4.968 31.428-12.852 57.456-24.048 0.144 25.956 0.144 47.628 0 66.276-0.18 18.539-0.504 32.939-0.972 44.172-18.036 8.676-32.725 15.191-45.181 20.123-12.42 4.824-21.636 7.777-28.476 8.857 1.008-28.729 1.404-51.77 1.476-70.236-0.07-18.49-0.466-31.419-1.474-39.735z" i:knockout="Off" stroke="#000000" stroke-miterlimit="10" stroke-width=".036" fill="#FFFFFF"></path><path d="m35.875 87.117c-1.008 1.332-3.096 3.456-6.408 6.372-3.348 2.916-7.668 6.372-13.248 10.799-1.656-3.527-3.312-7.812-5.4-13.248-2.052-5.436-4.392-11.772-6.876-19.152 1.404 12.672 2.016 26.964 1.98 43.704-0.072 16.74-0.936 35.064-2.448 55.943 7.704 5.438 14.148 9.973 19.62 13.752 5.436 3.744 9.648 6.697 12.78 8.857 1.26-12.709 1.908-27.793 1.944-45.686-0.036-18.03-0.684-38.15-1.944-61.333z" i:knockout="Off" stroke="#000000" stroke-miterlimit="10" stroke-width=".036" fill="#FFFFFF"></path><path i:knockout="Off" d="m103.73 91.689c-8.928-5.508-16.596-7.884-23.147-7.668-6.66 0.288-11.448 5.256-16.164 9.36-4.788 3.996-9.216 9.937-12.168 14.472-2.916 4.393-4.644 7.957-5.58 12.061-1.116 4.139-1.044 8.1-0.9 12.275 0.036 3.996 0.108 6.588 1.476 11.52 1.188 4.861 2.34 12.602 6.372 17.389 4.14 4.68 10.008 7.992 18.144 10.332 5.328 0.287 10.225-1.225 15.12-4.535 4.932-3.492 9.828-9.289 13.716-15.445 3.672-6.191 6.444-14.795 8.316-21.096 1.764-6.371 3.24-10.152 2.483-16.596-0.97-6.54-3.34-13.7-7.67-22.051z"></path><path d="m54.919 113.86c2.7-4.607 8.316-11.268 12.42-15.408 3.96-4.248 7.812-7.452 11.412-9.468 3.42-2.016 6.228-2.916 9.684-2.556 3.492 0.216 7.849 2.052 10.836 4.14 2.88 1.98 4.284 4.032 6.156 8.1 1.764 3.959 3.852 10.08 4.032 16.02-0.036 5.904-1.908 13.104-3.816 19.369-2.016 6.227-4.5 12.455-7.452 17.424-3.06 4.787-6.66 8.352-10.224 11.52-3.528 3.061-7.128 6.047-10.8 7.02-3.853 0.793-8.208-0.215-11.7-1.908-3.6-1.799-7.056-4.248-9.252-8.604-2.268-4.5-3.132-11.988-3.96-17.604-0.972-5.76-1.692-11.557-1.188-16.273 0.399-4.72 1.083-7.35 3.855-11.78z" i:knockout="Off" fill="#FFFFFF"></path><path i:knockout="Off" d="m80.119 123.12c-1.225-7.668-2.196-13.715-2.628-18.287-0.576-4.537-1.152-6.625-0.324-9.037 0.792-2.592 2.376-4.968 5.04-5.724 2.592-0.828 9.504-1.224 10.584 1.332 0.863 2.52-2.988 9.684-4.752 14.256-1.908 4.5-3.816 8.82-6.12 12.959-0.576 1.47-1.189 2.98-1.8 4.5z"></path><path i:knockout="Off" d="m85.23 115.34c1.584-2.771 3.132-5.939 4.788-9.504 1.656-3.672 2.809-10.332 4.824-12.06 1.908-1.764 5.076 0.252 6.444 1.728 1.26 1.404 1.62 3.636 1.08 6.695-0.396-0.467-0.396-0.467 0 0 0.323 0.361 2.483 1.369 2.195 2.736-0.359 1.332-0.611 2.34-4.067 5.652-3.601 3.313-9.145 7.848-17.028 14.004-0.144-0.469-0.18-0.793-0.504-0.973-0.216-0.252-0.72-0.359-1.116-0.324 1.121-2.63 2.237-5.3 3.388-7.96z"></path><path i:knockout="Off" d="m85.482 125.75c1.801-1.98 8.46-6.48 11.916-8.785 3.313-2.412 6.229-5.256 7.776-5.076 1.332 0.252 0.612 3.457 0.612 6.014-0.108 2.375 0 6.084-0.937 8.352-1.08 2.16-2.124 4.248-5.076 4.715-3.06 0.361-10.26-1.799-12.708-2.592-2.437-0.83-3.337-0.86-1.574-2.62z"></path><path i:knockout="Off" d="m84.15 129.7c1.044-0.143 3.313 1.297 5.977 2.232 2.664 0.793 7.775 1.656 9.647 2.592 1.62 0.756 1.116 0.9 0.721 2.771-0.433 1.945-1.944 6.553-2.988 8.82-1.116 2.16-2.124 4.393-3.42 3.924-1.44-0.684-2.772-4.463-4.536-7.307-1.872-2.988-4.896-7.525-5.868-9.721-0.941-2.18-0.689-3.19 0.462-3.3z"></path><path i:knockout="Off" d="m81.774 131.76c0.937 0.828 2.772 6.984 4.536 10.115 1.584 3.061 4.608 5.904 5.328 8.244 0.504 2.197-0.252 3.42-1.152 5.076-0.899 1.584-2.483 3.168-3.779 4.32-1.477 1.045-3.204 2.592-4.212 1.729-1.044-1.225-1.584-4.789-1.765-7.777-0.216-2.951 0.288-6.84 0.396-9.576-0.108-2.771-0.685-5.039-0.612-6.947 0.073-2.12 0.216-5.98 1.26-5.18z"></path><path i:knockout="Off" d="m77.635 121.96c0.036-2.303-1.548-9.539-2.232-13.643-0.684-4.176-0.575-9.9-1.619-11.197-1.225-1.332-3.673 1.692-5.256 3.384-1.584 1.584-4.14 4.141-4.068 6.408 0.108 2.232 2.412 4.535 4.284 7.057 1.656 2.482 4.249 6.588 5.833 7.99 1.438 1.26 2.878 2.23 3.058-0.01z"></path><path i:knockout="Off" d="m76.015 128.05c-1.8-2.482-3.888-5.004-6.408-7.631-2.52-2.629-5.147-7.561-8.604-7.992-3.492-0.469-4.104 3.924-5.292 6.191s-1.548 3.852-1.836 7.309c-0.288 3.42-0.648 10.764 0.108 13.104 0.792 2.305 2.052 1.584 4.572 0.684 2.52-0.936 7.488-4.176 10.44-6.154 2.916-1.95 5.22-3.78 7.02-5.51z"></path><path i:knockout="Off" d="m72.307 133.81c-1.872 1.078-4.68 2.951-7.308 4.787-2.7 1.801-7.128 4.248-8.712 6.084-1.62 1.729-1.332 2.377-0.936 4.572 0.36 2.232 1.368 6.084 2.88 8.352 1.404 2.125 3.996 4.031 5.436 4.32 1.368 0.18 1.296-0.072 2.7-3.133 1.296-3.24 3.564-11.412 5.4-15.768 1.8-4.5 4.788-8.604 5.508-10.512 0.612-1.98-0.72-1.115-1.512-0.9-0.792 0.18-1.8 1.01-3.456 2.2z"></path><path i:knockout="Off" d="m77.743 135.57c-1.08 1.799-2.593 4.5-4.104 8.244-1.584 3.672-4.32 10.26-5.004 13.787-0.756 3.42-0.828 5.688 0.756 6.805 1.512 0.9 6.588 0.035 8.28-0.793 1.512-0.936 1.08-1.547 1.332-4.211 0.107-2.773-0.108-9.361 0.036-11.988 0.107-2.592 0.72-1.836 0.863-3.709 0.036-2.088-0.252-6.227-0.288-8.1-0.071-2.016 0.253-2.988 0-3.061-0.359 0.01-0.935 1.02-1.871 3.03z"></path><path d="m75.727 144.1c-0.288-0.287-1.979 3.6-2.592 5.832-0.684 2.232-1.584 7.199-1.296 7.523 0.18 0.109 2.052-3.959 2.7-6.227 0.648-2.29 1.368-6.94 1.188-7.12z" i:knockout="Off" fill="#EAFCD9"></path><path d="m76.986 150.91c0.217 0.215-0.323 7.164-0.792 8.496-0.468 1.188-2.016 0.324-1.871-1.045 0.18-1.55 2.232-7.6 2.663-7.45z" i:knockout="Off" fill="#EAFCD9"></path><path d="m82.711 139.93c-0.181-0.18 0.396 2.016 0.468 3.527 0 1.477-0.468 4.861-0.288 5.148 0.072 0.072 1.08-2.771 1.08-4.211-0.073-1.56-1.188-4.29-1.26-4.47z" i:knockout="Off" fill="#EAFCD9"></path><path d="m85.771 143.96c0.324 0.469 2.844 6.229 3.097 7.129 0.071 0.756-1.368-1.369-1.944-2.484-0.577-1.27-1.478-5.08-1.153-4.65z" i:knockout="Off" fill="#EAFCD9"></path><path d="m89.659 132.94c0.468 0-0.145 0.107 1.512 0.9 1.476 0.756 7.38 3.313 7.848 3.779 0.396 0.396-3.096-0.684-4.932-1.295-1.908-0.756-5.256-2.449-6.012-2.988-0.721-0.64 0.972-0.49 1.584-0.39z" i:knockout="Off" fill="#EAFCD9"></path><path d="m90.522 139.39c0.072 0.396 1.225 1.766 2.196 2.988 0.864 1.045 3.168 4.033 3.168 3.672-0.252-0.504-2.988-4.859-3.888-5.975-0.935-1.23-1.655-1.09-1.476-0.69z" i:knockout="Off" fill="#EAFCD9"></path><path d="m89.299 125.96c-0.036 0.252 3.42 0.865 5.796 1.152 2.232 0.18 7.668 0.252 7.704 0.072-0.108-0.324-5.256-1.404-7.524-1.584-2.269-0.22-6.013 0-5.977 0.36z" i:knockout="Off" fill="#EAFCD9"></path><path d="m98.479 122.94c0.468 0.037 3.853-0.107 4.032-0.287 0.036-0.217-2.52-0.973-3.204-0.865-0.719-0.07-1.368 1.01-0.827 1.16z" i:knockout="Off" fill="#EAFCD9"></path><path d="m99.631 107.2c-0.145 0.252-3.204 3.6-4.716 5.328-1.584 1.621-4.248 4.141-4.248 4.068 0.036-0.324 2.556-3.707 4.212-5.291 1.439-1.66 4.643-4.32 4.752-4.11z" i:knockout="Off" fill="#EAFCD9"></path><path d="m97.867 98.925c-0.396 0.828-4.86 7.885-5.473 8.676-0.576 0.541 0.685-3.133 1.692-4.607 0.9-1.44 3.961-4.929 3.781-4.065z" i:knockout="Off" fill="#EAFCD9"></path><path d="m90.522 109.62c-0.144-0.072-1.332 2.016-2.304 3.781-1.044 1.764-3.888 6.336-3.672 6.479 0.107-0.035 3.204-4.715 4.284-6.408 0.973-1.84 1.765-3.82 1.692-3.85z" i:knockout="Off" fill="#EAFCD9"></path><path d="m87.318 102.13c-0.216 0.938-3.023 6.625-3.96 8.857-1.188 2.016-2.34 4.787-2.195 3.887 0.216-0.971 2.34-7.271 3.456-9.324 0.972-2.21 2.844-4.37 2.699-3.43z" i:knockout="Off" fill="#EAFCD9"></path><path d="m80.767 97.233c-0.18 0.54-0.324 5.723-0.144 6.264 0.036 0.432 0.828-2.484 0.863-3.457-0.107-1.079-0.54-3.455-0.719-2.807z" i:knockout="Off" fill="#EAFCD9"></path><path d="m85.771 93.129c-0.252 0.072-0.611 2.664-0.647 3.204-0.036 0.468 0.576-0.072 0.72-0.504 0.071-0.612-0.001-2.808-0.073-2.7z" i:knockout="Off" fill="#EAFCD9"></path><path d="m87.499 93.561c-0.252 0.324-0.756 4.464-0.685 5.04 0 0.36 0.756-1.08 0.9-1.98 0.073-0.864-0.179-3.456-0.215-3.06z" i:knockout="Off" fill="#EAFCD9"></path><path d="m74.791 114.84c-0.612-1.439-1.836-5.256-2.305-5.904-0.54-0.791-1.403-0.145-0.792 1.367 0.612 1.441 3.673 6.48 4.32 7.346 0.505 0.6-0.683-1.31-1.223-2.82z" i:knockout="Off" fill="#EAFCD9"></path><path d="m66.691 107.57c0.324 0.684 4.14 6.336 4.644 6.695 0.324 0.359-1.44-3.709-2.232-4.717-0.864-1.26-2.772-2.7-2.412-1.97z" i:knockout="Off" fill="#EAFCD9"></path><path d="m61.579 115.09c0.432 0.359 6.588 6.66 7.38 7.813 0.647 0.898-1.656-0.469-2.88-1.729-1.296-1.33-4.968-6.41-4.5-6.08z" i:knockout="Off" fill="#EAFCD9"></path><path d="m68.923 124.99c0.107-0.217-2.916-1.225-4.608-1.908-1.728-0.828-5.544-2.592-5.616-2.377-0.18 0.18 2.952 2.557 4.68 3.385 1.728 0.73 5.292 0.98 5.544 0.91z" i:knockout="Off" fill="#EAFCD9"></path><path d="m70.902 129.45c-0.323 0.541-5.76 5.076-7.704 6.516-1.98 1.225-3.744 1.549-3.636 1.117 0.252-0.541 2.448-2.557 4.5-3.816 1.873-1.23 6.876-4.39 6.84-3.82z" i:knockout="Off" fill="#EAFCD9"></path><path d="m67.159 140.11c-0.432 0-6.552 5.076-7.524 6.049-1.008 0.863 0.396 0.359 1.692-0.541 1.26-1.16 5.976-5.58 5.832-5.51z" i:knockout="Off" fill="#EAFCD9"></path><path d="m70.795 139.03c-0.36 0.145-3.024 3.816-3.96 6.012-0.972 2.018-1.62 6.336-1.368 6.301 0.324-0.252 1.908-4.896 2.952-6.984 0.935-2.13 2.519-5.48 2.376-5.33z" i:knockout="Off" fill="#EAFCD9"></path><path d="m82.927 85.605l-5.04-0.36c-5.94 3.168-10.908 6.66-15.336 11.016-4.572 4.355-8.352 9.18-11.052 14.473-2.628 5.004-4.104 10.584-4.572 15.912-0.576 5.328 0.684 11.482 1.296 15.695 0.468 3.959 1.26 5.977 1.98 8.568 0.684 2.52 1.512 5.039 2.628 7.02 1.008 1.98 2.448 3.455 3.924 4.717-2.232-5.258-3.96-10.404-5.184-15.842-1.332-5.508-2.556-11.23-2.268-16.631 0.252-5.436 1.368-10.369 4.032-15.625 2.628-5.471 7.668-11.592 11.52-15.875 3.744-4.212 7.667-7.272 10.799-9.324 2.989-2.208 5.365-3.504 7.273-3.756z" i:knockout="Off" stroke="#000000" stroke-miterlimit="10" stroke-width=".036" fill="#FFFFFF"></path></g></g><metadata></metadata></svg> 