<?xml version="1.0" encoding="UTF-8" standalone="no"?> <!-- Generator: Adobe Illustrator 10.0, SVG Export Plug-In . SVG Version: 3.0.0 Build 77) --> <svg xmlns:rdf="http://www.w3.org/1999/02/22-rdf-syntax-ns#" xmlns="http://www.w3.org/2000/svg" xmlns:x="http://ns.adobe.com/Extensibility/1.0/" xmlns:dc="http://purl.org/dc/elements/1.1/" xmlns:i="http://ns.adobe.com/AdobeIllustrator/10.0/" xmlns:cc="http://web.resource.org/cc/" xmlns:xlink="http://www.w3.org/1999/xlink" xmlns:a="http://ns.adobe.com/AdobeSVGViewerExtensions/3.0/" xmlns:graph="http://ns.adobe.com/Graphs/1.0/" xmlns:svg="http://www.w3.org/2000/svg" xmlns:inkscape="http://www.inkscape.org/namespaces/inkscape" xmlns:sodipodi="http://sodipodi.sourceforge.net/DTD/sodipodi-0.dtd" xmlns:ns1="http://sozi.baierouge.fr" i:rulerOrigin="0 0" i:viewOrigin="202 447" i:pageBounds="0 792 612 0" viewBox="0 0 206.939 103.811" overflow="visible"><g id="Layer_1" i:layer="yes" i:rgbTrio="#4F008000FFFF" i:dimmedPercent="50"><g stroke-miterlimit="10" stroke="#000000" stroke-width=".036" clip-rule="evenodd" fill-rule="evenodd"><path d="m63.954 85.108c-1.224 0.252-2.268 1.332-3.132 3.24-0.864 1.872-1.656 4.536-2.232 8.136-1.98 0.396-3.672 0.54-5.076 0.288-1.476-0.252-2.556-0.863-3.384-1.836l2.988-6.804-6.156-3.78c-2.016 0.9-3.852 1.98-5.652 3.384-1.836 1.404-3.528 2.952-5.076 4.933-2.628-1.729-4.464-3.637-5.508-5.58-1.116-2.052-1.44-4.141-0.972-6.408l-6.696-0.432c-0.756 0.54-1.872 0.72-3.492 0.54-1.692-0.108-6.156-0.54-6.3-1.584-0.252-1.296 1.512-3.024 5.148-5.616l-5.472-0.685c-3.204 0.396-4.788 0.036-5.184-1.224-0.396-1.224 0.684-3.348 3.096-6.228-0.828-0.721-1.62-1.656-2.376-3.097-0.792-1.439-1.656-3.24-2.448-5.399-3.492-1.225-5.544-2.916-6.012-5.076-0.504-2.16 0.432-4.788 2.952-7.884-0.612 0.252-1.08 0.036-1.26-0.792-0.252-0.9-1.152-3.06-0.072-4.248 1.008-1.26 3.06-2.232 6.156-3.06-0.144-2.987-0.576-4.896-1.296-5.867-0.828-0.9-3.852 0.756-3.384 0.108 0.396-0.828 2.268-2.34 5.76-4.68-1.944-1.188-2.808-2.052-2.988-2.988-0.072-0.936 1.044-2.16 2.232-2.412 1.08-0.324 2.592-0.144 4.392 0.54 0.324-2.34 1.728-3.816 3.816-4.968 2.124-1.08 5.076-1.656 9-1.584-1.656-3.096-2.304-4.824-1.548-5.184 0.684-0.36 2.484 0.648 5.544 3.024 0.828-0.756 2.484-1.368 4.968-1.692 2.52-0.36 5.724-0.576 9.9-0.504l11.7-3.852c7.38-3.024 14.724-4.932 22.176-5.724 7.524-0.828 15.516 0.288 22.32 0.864 6.552 0.468 13.536 0.612 17.497 2.088 3.959 1.476 5.902 3.528 6.119 6.552 0.721-0.612 3.42 0.036 8.1 1.944 4.607 1.908 16.381 6.84 19.764 9.504 3.24 2.556 3.35 4.536 0.037 5.94 1.223 0.252 2.771 1.224 4.5 3.06 1.764 1.836 3.707 4.356 5.975 7.848 3.889 0.36 7.236 1.08 10.477 2.16 3.133 1.008 5.869 2.376 8.352 4.104l16.885 4.176-1.439 3.096c4.031 0.972 6.84 1.98 8.568 3.024 1.691 0.972 2.303 1.98 1.691 3.024l-3.779 2.124c-4.32-1.116-6.805-1.44-7.85-0.828-0.971 0.611-0.504 1.908 1.801 4.284 0.469 0.539-0.145 1.188-2.232 1.548-2.123 0.323-5.328 0.756-10.008 0.899-0.035 2.448 0.289 4.824 0.973 7.272 0.576 2.376 1.512 4.716 2.807 7.02l-4.318 0.756-8.137-9.936c-1.439 1.764-3.061 3.348-4.859 4.896-1.908 1.513-3.816 2.845-6.121 4.141 1.008 1.332 0.936 2.412-0.359 3.24-1.26 0.792-3.744 1.332-7.309 1.619 1.584 1.152 0.756 2.341-2.627 3.564-3.457 1.188-9.324 2.304-17.748 3.492 0.252 1.008 0.898 2.196 1.799 3.42 0.865 1.26 2.125 2.412 3.637 3.888-2.053 3.708-3.924 5.473-5.76 4.896-1.908-0.576-3.492-3.204-5.148-8.028-1.584 0.756-2.844 1.152-4.176 1.332-1.369 0.144-2.412-0.072-3.527-0.504-0.828 2.196-2.018 3.78-3.564 5.04-1.549 1.224-3.457 1.836-5.725 2.124l-5.039-1.656c1.439-0.972 2.412-2.124 3.059-3.456 0.576-1.476 0.793-2.952 0.648-4.824-2.627 1.368-4.896 2.16-6.66 2.521-1.799 0.288-3.24 0.144-4.176-0.576-3.996 0.9-7.56 1.656-11.232 2.268-3.708 0.54-8.46 1.872-10.368 1.225-1.944-0.72-2.34-2.484-1.188-5.292-2.376-0.468-4.752-1.368-7.416-2.844-2.7-1.54-5.436-3.411-8.352-6.004z" i:knockout="Off"></path><path d="m57.546 95.656c-0.036-2.052 0.504-4.319 2.016-7.235 1.404-3.024 4.608-7.272 6.552-9.973 1.836-2.771 3.384-4.571 4.644-5.939-1.152-1.188-2.484-1.98-3.708-2.376-1.26-0.396-2.7-0.432-4.032 0.036-2.808 5.256-5.076 9.792-6.948 13.896-1.872 3.996-3.204 7.416-4.14 10.261 0.432 0.791 1.008 1.188 2.016 1.476 0.972 0.251 2.124 0.107 3.6-0.146z" i:knockout="Off" fill="#A97408"></path><path d="m64.242 83.524l0.972-2.699 1.908 2.304 8.208 4.355-0.54 3.313c-2.052-0.864-4.068-1.729-5.76-2.988-1.728-1.296-3.42-2.592-4.788-4.285z" i:knockout="Off" fill="#E4E877"></path><path d="m76.518 88.061c-0.396 1.44-0.396 2.664 0 3.276 0.288 0.576 0.72 2.231 2.412 0.684 1.692-1.62 4.212-4.859 7.704-10.008l-3.42-2.88c-1.152 1.656-1.98 2.771-2.772 3.888-0.828 0.973-1.152 1.225-1.8 2.124-0.72 0.828-1.332 1.799-2.124 2.916z" i:knockout="Off" fill="#E4E877"></path><path d="m80.55 93.749c-0.108 1.512 0 2.556 0.18 3.275 0.108 0.576 0 0.9 1.08 0.973 1.08 0.035 2.736-0.072 5.256-0.469 2.52-0.432 6.588-1.584 9.432-2.088 2.628-0.611 5.04-1.008 6.84-1.332l-0.756-3.456c-4.356 1.296-8.172 2.269-11.88 2.772-3.778 0.505-7.018 0.613-10.15 0.325z" i:knockout="Off" fill="#A97408"></path><path d="m105.14 91.301c-0.829 2.124-0.937 3.312-0.181 3.852 0.72 0.504 3.097-0.432 4.609-1.008 1.475-0.792 2.664-1.8 3.959-3.312l-2.375-2.952c-1.99 1.116-4.01 2.267-6.02 3.42z" i:knockout="Off" fill="#E4E877"></path><path d="m103.63 78.089c5.94 4.788 9.792 8.567 11.7 11.483 1.836 2.845 0.072 3.816-0.432 5.832-0.648 2.053-1.656 4.032-3.168 6.229l4.139 0.647c2.664-3.168 3.961-6.3 4.176-9.396 0.182-3.204-0.215-6.372-3.275-9.36-3.275-3.204-13.392-7.92-15.624-8.855-2.25-0.864-1.422 0.144 2.47 3.42z" i:knockout="Off" fill="#E4E877"></path><path d="m118.53 101.02c1.332-2.16 2.27-4.284 2.953-6.372 0.576-2.231 0.9-4.248 0.828-6.443l3.527-0.576c0.252 1.872-0.217 3.888-1.404 6.191-1.3 2.269-3.14 4.573-5.91 7.2z" i:knockout="Off" fill="#E4E877"></path><path d="m125.73 95.081c0.828 0.359 1.619 0.54 2.375 0.54 0.684 0 1.369-0.396 1.908-0.792l-1.943-5.616c-0.469 1.764-0.721 3.023-1.152 4.067-0.43 1.009-0.83 1.513-1.19 1.801z" i:knockout="Off" fill="#E4E877"></path><path d="m53.298 86.585l-5.22-2.34 11.16-10.08-5.94 12.42z" i:knockout="Off" fill="#E4E877"></path><path d="m35.55 91.156c1.404-1.151 4.032-3.203 8.172-6.3 4.032-3.132 9.432-7.164 16.2-12.24l-4.176-1.691c-2.808 0.972-5.652 2.16-8.676 3.996-3.24 1.691-6.912 4.212-9.504 6.443-2.52 2.16-4.356 4.248-5.508 6.408 1.152 1.117 2.304 2.233 3.492 3.384z" i:knockout="Off" fill="#A97408"></path><path d="m18.702 74.417c-1.872 1.403-3.06 2.52-3.42 3.348-0.54 0.828-0.432 1.296 0.864 1.548 1.296 0.288 4.752 0.54 7.02-0.359 2.124-1.116 3.888-3.925 6.12-6.192 2.196-2.412 4.68-4.824 7.308-7.668-5.94 3.094-11.916 6.191-17.892 9.323z" i:knockout="Off" fill="#A97408"></path><path d="m30.114 79.709c1.296-3.24 3.708-6.3 7.632-9.324 3.888-3.096 8.892-5.976 15.408-8.928l-2.628-3.925c-3.6 1.98-7.02 4.248-10.404 6.948-3.528 2.628-7.56 6.444-10.008 8.964-2.484 2.412-3.996 4.212-4.68 5.544l4.68 0.721z" i:knockout="Off" fill="#A97408"></path><path d="m31.518 79.889l0.36 6.372c2.16-2.376 3.888-4.104 5.04-5.472 1.116-1.332 1.8-2.16 1.908-2.484l-0.936-7.272c-2.016 2.196-3.384 4.032-4.5 5.509-1.008 1.475-1.764 2.591-1.872 3.347z" i:knockout="Off" fill="#E4E877"></path><path d="m39.474 70.349l0.972 6.732 4.608-1.872-1.728-7.093-3.852 2.233z" i:knockout="Off" fill="#E4E877"></path><path d="m38.394 64.517c-0.504-0.792-0.792-2.268-1.152-4.428-0.36-2.196-1.296-7.2-0.864-8.64 0.396-1.584 2.052-2.304 3.024-0.504 0.828 1.692 1.512 5.4 2.052 10.98-1.008 0.864-2.016 1.727-3.06 2.592z" i:knockout="Off" fill="#E4E877"></path><path d="m84.762 91.769c3.852-3.456 6.984-6.408 9.684-8.855 2.664-2.521 4.608-4.536 6.12-6.049l2.808 2.521c-2.772 3.636-5.328 6.479-7.956 8.676-2.628 2.124-5.148 3.708-7.704 4.464-0.978-0.254-1.95-0.505-2.958-0.757z" i:knockout="Off" fill="#E4E877"></path><path d="m103.52 74.488c0.108-0.287 0.72-0.899 1.835-1.979 1.08-1.188 4.141-4.68 4.717-4.5 0.324 0.18-1.08 4.428-1.836 5.796-0.756 1.26-1.512 1.836-2.412 1.728-0.76-0.324-1.52-0.684-2.31-1.045z" i:knockout="Off" fill="#E4E877"></path><path d="m66.294 79.528c1.26-1.8 2.556-3.527 3.888-5.184 1.296-1.729 2.52-3.24 3.816-4.824 0.108 0.612 0.828 0.72 2.016 0.612 1.116-0.18 2.844-0.72 5.04-1.62-1.044 0.396-2.592 1.728-4.644 4.14-2.16 2.341-4.644 5.688-7.848 10.044-0.756-1.044-1.512-2.088-2.268-3.168z" i:knockout="Off" fill="#E4E877"></path><path d="m137.68 102.86c-1.152-0.72-2.195-1.872-3.42-3.744-1.26-1.943-2.447-3.888-3.707-7.344-1.369-3.563-3.816-12.563-3.854-13.536-0.07-0.936 2.34 5.04 3.781 7.668 1.332 2.376 2.555 5.004 4.355 7.2 1.764 2.232 3.779 4.212 6.191 6.084-0.432 0.937-0.756 1.729-1.367 2.376-0.5 0.58-1.3 1.01-1.98 1.3z" i:knockout="Off" fill="#A97408"></path><path d="m136.02 90.581c1.873-0.324 3.889-0.721 6.336-1.044 2.27-0.54 5.869-0.9 7.885-1.225 1.871-0.288 2.844-0.036 3.889-0.504 0.898-0.504 1.943-2.016 2.158-2.736 0.145-0.827 0.182-1.296-1.008-2.376-1.26-1.332-5.543-4.68-6.336-5.04-0.898-0.359-0.287 0.396 1.441 2.664 1.908 1.729 2.699 2.952 2.23 3.816-0.611 0.72-2.412 0.72-4.967 1.116-2.664 0.359-7.453 0.936-10.08 1.332-2.52 0.359-4.355 0.576-5.221 0.792 0.18 0.647 0.648 1.26 1.26 1.836 0.63 0.505 1.38 1.009 2.42 1.369z" i:knockout="Off" fill="#E4E877"></path><path d="m157.84 82.661c1.332-0.072 2.484-0.036 3.6-0.288 1.045-0.217 2.736 0.216 2.736-0.937-0.145-1.296-1.043-3.24-3.096-6.264 0.9 1.728 1.152 3.06 0.611 4.392-0.61 1.296-1.76 2.197-3.85 3.097z" i:knockout="Off" fill="#E4E877"></path><path d="m175.05 62.213c1.188 3.204 2.412 6.156 4.066 9 1.621 2.771 3.277 5.436 5.365 7.848l3.059-0.18c-2.123-3.132-3.563-5.94-4.318-8.568-0.793-2.664-1.008-5.004-0.504-7.164-2.56-0.289-5.12-0.612-7.67-0.936z" i:knockout="Off" fill="#E4E877"></path><path d="m165.22 78.269c2.23-0.972 4.211-2.231 6.084-3.78 1.871-1.619 3.348-3.527 4.824-5.724l-1.621-5.04c-1.152 2.592-2.809 4.896-4.572 6.912-1.799 1.979-4.104 3.672-6.516 5.076 0.59 0.828 1.2 1.691 1.81 2.556z" i:knockout="Off" fill="#E4E877"></path><path d="m102.4 32.405c3.635 2.988 7.237 5.076 10.944 6.264 3.637 1.188 7.381 1.476 11.088 0.864l-1.691-3.78c-6.121-0.684-10.512-1.476-13.717-2.52-3.203-1.152-4.139-3.6-5.184-3.744-1.15-0.18-1.58 0.792-1.44 2.916z" i:knockout="Off" fill="#A97408"></path><path d="m101.93 42.737c-1.62 1.656-2.376 3.708-2.664 6.156-0.216 2.448 0.36 5.904 1.152 8.424 0.648 2.412 1.548 4.212 2.844 5.796l1.691-2.628c-1.512-2.34-2.412-4.464-2.844-6.516-0.504-2.052-0.216-3.78 0.18-5.58 0.288-2.016 2.088-4.644 2.052-5.652-0.1-0.936-0.86-0.936-2.41 0z" i:knockout="Off" fill="#A97408"></path><path d="m121.95 11.561c0.973-0.792 2.521-0.936 3.961-0.864 1.367-0.036 2.268-0.108 4.5 0.756 2.195 0.792 7.883 3.24 8.459 3.852 0.396 0.396-3.887-0.72-5.902-0.972-2.09-0.252-4.105-0.756-6.193-0.54-2.195 0.144-6.084 1.8-6.803 1.512-0.84-0.396 0.93-2.988 1.97-3.744z" i:knockout="Off" fill="#E4E877"></path><path d="m124.47 15.161c0-0.432 2.807-0.576 5.111-0.432 2.088 0.18 5.291 0.936 7.813 1.584 2.482 0.576 6.623 1.368 6.982 1.944 0.217 0.504-3.238 1.224-5.65 1.044-2.629-0.324-6.445-2.052-8.928-2.7-2.55-0.648-5.25-1.26-5.32-1.44z" i:knockout="Off" fill="#A97408"></path><path d="m142.51 20.741c1.98-1.008 3.816-1.332 5.363-0.828 1.584 0.504 3.061 2.412 3.889 3.492 0.611 0.9 1.045 1.476 0.324 2.16-0.793 0.612-4.141 1.872-4.896 1.44-0.9-0.648 1.584-3.672 0.072-4.356-1.619-0.612-6.947 1.224-9.18 0.792-2.412-0.612-4.537-3.384-4.285-3.744 0.289-0.36 2.521 0.108 6.408 1.548l2.32-0.504z" i:knockout="Off" fill="#E4E877"></path><path d="m122.67 9.329c0.217-0.9-0.611-2.844-2.088-3.888-1.584-1.08-3.961-1.872-7.271-2.376-3.42-0.612-13.393-1.152-12.997-0.792 0.36 0.288 11.627 1.152 14.94 2.592 3.133 1.26 3.023 4.32 4.248 5.148 1.26 0.792 2.92-0.036 3.17-0.684z" i:knockout="Off" fill="#A97408"></path><path d="m73.17 4.253c1.512 0.576 6.84 2.988 7.632 4.752 0.72 1.764-2.772 5.616-3.24 5.724-0.648-0.144 1.044-4.284 0.072-5.904-1.116-1.62-5.256-2.988-6.012-3.708-0.792-0.792 0-1.584 1.548-0.864z" i:knockout="Off" fill="#E4E877"></path><path d="m74.61 2.885c0.036-0.324 1.944-0.432 5.04 0.108 3.06 0.432 11.412 1.728 13.248 2.628 1.656 0.936-0.504 2.52-2.736 2.52-2.376-0.324-8.208-2.556-10.836-3.492-2.664-0.936-4.788-1.476-4.716-1.764z" i:knockout="Off" fill="#A97408"></path><path d="m99.234 3.713c0.828 0 1.512 0.396 3.168 1.044 1.656 0.684 5.833 2.016 6.696 2.88 0.611 0.828-0.504 2.34-2.52 1.908-2.124-0.612-8.136-3.996-9.432-5.004-1.262-1.044 1.15-0.9 2.086-0.828z" i:knockout="Off" fill="#A97408"></path><path d="m84.402 37.157c-2.952 1.62-5.544 4.032-7.632 7.236-2.304 3.24-4.788 9.36-5.22 11.7-0.396 2.052 2.484 1.224 3.096 1.404 0.504 0.18 0.648 0.107 0.288-0.217-0.324-2.304 0.54-4.716 2.304-7.632 1.728-2.952 7.236-7.596 8.46-9.648 1.152-2.051 0.72-3.095-1.296-2.843z" i:knockout="Off" fill="#A97408"></path><path d="m52.218 29.669c1.08 3.744 1.728 6.912 1.548 9.36-0.072 2.412-0.972 4.248-2.304 5.364l-4.392 0.468c0-1.152 0.324-2.88 0.576-5.184 0.252-2.34 0.648-5.256 1.188-8.748 1.116-0.396 2.232-0.828 3.384-1.26z" i:knockout="Off" fill="#A97408"></path><path d="m38.574 36.293c1.692-0.648 3.456-1.548 5.292-2.7 1.764-1.26 3.384-3.168 5.688-4.212 2.268-1.044 6.696-1.08 7.884-1.908 1.08-0.864 0-3.456-1.584-3.312-1.728-0.036-5.508 2.016-8.568 3.636-3.132 1.548-6.444 3.6-9.936 6.012 0.396 0.828 0.792 1.656 1.224 2.484z" i:knockout="Off" fill="#A97408"></path><path d="m8.514 69.809c0.792-0.936 2.376-2.771 5.148-5.652 2.7-2.916 6.3-6.84 10.944-11.771l0.72 4.86c-3.744 4.68-6.624 8.243-9.072 10.691-2.484 2.376-4.104 3.601-5.4 3.96-1.296 0.251-2.124-0.396-2.34-2.088z" i:knockout="Off" fill="#E4E877"></path><path d="m11.106 64.373c-0.648-0.648-1.368-1.548-2.016-2.845-0.72-1.296-1.368-2.987-2.088-4.932l3.636-1.476c0.432 2.304 0.936 3.995 1.512 5.22 0.576 1.188 1.116 1.656 1.764 1.691-0.936 0.758-1.872 1.55-2.808 2.342z" i:knockout="Off" fill="#E4E877"></path><path d="m14.562 61.169c0.576-0.648 1.548-1.765 2.772-3.204 1.116-1.512 4.284-4.645 4.5-5.652 0.144-1.188-1.584-1.512-3.096-0.54-1.584 0.937-3.384 3.097-5.832 6.48 0.54 0.972 1.08 1.943 1.656 2.916z" i:knockout="Off" fill="#E4E877"></path><path d="m13.878 71.393l5.868 1.477c0.612-0.253 1.296-0.576 2.052-0.973 0.684-0.432 1.476-1.044 2.232-1.691-1.728-0.036-3.096-0.252-4.104-0.504-1.044-0.324-1.836-0.792-2.232-1.404-1.26 1.007-2.52 2.051-3.816 3.095z" i:knockout="Off" fill="#E4E877"></path><path d="m18.99 66.965c0.036 0.288 0.648 0.612 1.98 1.116 1.224 0.432 3.168 0.899 5.688 1.548l3.672-2.196c-1.116-1.368-2.196-2.124-3.096-2.268-1.008-0.181-1.62 1.403-2.664 1.26-1.08-0.216-2.304-1.044-3.672-2.484-0.612 1.007-1.26 2.016-1.908 3.024z" i:knockout="Off" fill="#E4E877"></path><path d="m22.41 63.616c0.792-0.936 2.124-2.34 3.6-4.067 1.44-1.729 3.42-3.924 5.544-6.444l0.648 5.4c-2.628 2.483-4.5 4.428-5.76 5.436-1.296 0.973-1.08 0.9-1.692 0.9-0.756-0.109-1.404-0.468-2.34-1.225z" i:knockout="Off" fill="#E4E877"></path><path d="m29.07 64.049l6.444-6.264 1.224 5.615-5.688 3.349c-0.504-0.792-0.792-1.296-1.008-1.513-0.252-0.288-0.036 0.181-0.18 0.036-0.108-0.143-0.504-0.683-0.792-1.223z" i:knockout="Off" fill="#E4E877"></path><path d="m35.478 56.776c-0.576-0.647-0.756-1.691-0.684-2.987 0.036-1.404 0.144-3.205 1.152-5.112 0.936-1.872 2.484-4.14 4.644-6.408l-2.664-1.836c-1.404 1.332-2.52 2.7-3.348 4.392-0.828 1.656-1.512 3.636-1.764 5.4-0.36 1.692-0.54 3.096-0.396 4.608 0 1.476 0.432 2.664 0.9 3.96 0.72-0.648 1.44-1.332 2.16-2.017z" i:knockout="Off" fill="#E4E877"></path><path d="m5.67 55.337c1.836-0.54 3.42-0.973 4.896-1.44 1.368-0.468 1.944-0.684 3.672-1.332 1.692-0.792 3.888-1.8 6.588-3.168l-0.756-2.772c-3.168 1.332-6.228 2.376-9.324 3.42-3.204 0.936-6.084 1.728-9.18 2.376 0.216 1.116 0.684 1.943 1.404 2.483 0.648 0.433 1.548 0.576 2.7 0.433z" i:knockout="Off" fill="#A97408"></path><path d="m1.422 51.772c-0.288-0.9-0.504-1.728-0.504-2.34 0-0.648 0.072-1.08 0.36-1.44 3.06 0 5.976-0.144 8.892-0.576 2.844-0.432 5.688-1.152 8.388-2.016-3.42 1.44-6.552 2.7-9.396 3.78-2.916 1.045-5.4 1.909-7.74 2.592z" i:knockout="Off" fill="#E4E877"></path><path d="m2.178 46.553c0.18-1.116 1.152-2.628 3.06-4.14 1.908-1.656 5.148-4.068 8.172-5.436 2.88-1.512 9.216-3.24 9.144-2.7-0.144 0.576-7.164 3.78-9.972 6.012-2.88 2.088-5.22 4.392-7.164 6.768-1.08-0.144-2.16-0.324-3.24-0.504z" i:knockout="Off" fill="#E4E877"></path><path d="m8.046 46.48c1.224-2.052 2.916-3.78 5.22-5.472 2.232-1.764 8.172-4.68 8.388-4.464 0 0.18-5.94 4.068-7.56 5.832-1.62 1.62-2.304 2.988-2.052 4.104h-3.996z" i:knockout="Off" fill="#E4E877"></path><path d="m14.13 45.688c1.368-0.216 2.772-0.432 4.608-1.044 1.8-0.684 3.96-2.016 5.904-2.34 1.836-0.36 3.384-0.252 4.932 0.324l1.62-2.088c-2.628-0.72-4.968-0.828-7.164-0.324-2.196 0.468-4.572 2.844-6.012 3.384-1.584 0.396-2.664 0.36-3.24-0.504-0.216 0.865-0.432 1.729-0.648 2.592z" i:knockout="Off" fill="#E4E877"></path><path d="m11.862 35.429c-2.124 0.612-3.816 1.188-5.472 1.872-1.692 0.576-3.564 1.188-4.248 1.98-0.792 0.756-0.288 1.764 0 2.448 0.288 0.54 0.72 0.828 1.584 0.864 0.216-0.684 1.224-1.656 3.024-2.772 1.728-1.224 4.248-2.592 7.56-4.248-0.792-0.036-1.62-0.073-2.448-0.144z" i:knockout="Off" fill="#E4E877"></path><path d="m6.102 28.877c-0.216-0.36 0.432-1.008 1.8-1.944 1.368-1.044 5.832-3.996 6.444-3.852 0.432 0.036-2.592 2.988-3.528 4.428-0.972 1.332-1.8 2.484-2.34 3.6 0.072-0.756-0.144-1.188-0.504-1.584-0.432-0.396-1.008-0.612-1.872-0.648z" i:knockout="Off" fill="#A97408"></path><path d="m9.126 31.685l0.9 3.276c1.008-0.324 2.412-0.54 4.356-0.792 1.98-0.288 6.768-0.324 7.128-0.684 0.036-0.468-3.852-1.584-5.976-1.836-2.088-0.288-4.176-0.324-6.408 0.036z" i:knockout="Off" fill="#A97408"></path><path d="m10.35 30.208c0.216-0.144 0.684-0.612 1.404-1.548 0.612-0.972 1.476-2.268 2.592-4.032l0.108 6.048c-1.368-0.143-2.736-0.287-4.104-0.468z" i:knockout="Off" fill="#E4E877"></path><path d="m9.09 24.413c-0.864-0.612-1.332-1.008-1.548-1.584-0.288-0.612-0.504-1.332 0.18-1.584 0.648-0.288 1.728-0.288 3.78-0.144 1.944-0.072 4.608 0.072 7.992 0.144l-7.596 0.972c-0.936 0.72-1.872 1.44-2.808 2.196z" i:knockout="Off" fill="#E4E877"></path><path d="m13.95 19.697c-0.108 0.072 0.036-0.144 0.576-0.648 0.396-0.504 1.008-1.872 2.412-2.448 1.404-0.684 3.06-1.152 6.228-1.548 3.168-0.468 12.6-1.26 12.456-0.972-0.396 0.144-11.16 1.224-14.256 2.268-3.132 1.044-4.428 2.232-4.176 3.852-1.08-0.144-2.16-0.324-3.24-0.504z" i:knockout="Off" fill="#A97408"></path><path d="m26.622 14.153c-1.08-1.26-1.8-2.268-2.016-2.88-0.36-0.72-0.54-1.512 0.432-1.116 0.972 0.324 2.772 1.476 5.4 3.312-1.26 0.216-2.52 0.432-3.816 0.684z" i:knockout="Off" fill="#E4E877"></path><path d="m27.846 15.772c1.26 1.548 2.448 2.952 3.708 4.212 1.152 1.188 3.168 3.456 3.672 3.348 0.432-0.216-0.288-2.844-0.9-4.14-0.684-1.404-1.656-2.484-2.916-3.672-1.188 0.073-2.376 0.145-3.564 0.252z" i:knockout="Off" fill="#A97408"></path><path d="m25.65 16.097c3.816 3.384 6.372 6.048 7.812 7.992 1.404 1.836 1.08 2.808 0.576 3.348-0.648 0.288-3.6-0.216-4.14-0.684-0.684-0.468 1.656-0.252 0.648-1.872-1.044-1.8-3.276-4.356-6.84-8.208 0.648-0.18 1.296-0.36 1.944-0.576z" i:knockout="Off" fill="#A97408"></path><path d="m22.446 17.321c-0.36-0.144-0.756 0-1.332 0.288-0.612 0.252-1.404 0.756-2.232 1.512 2.34 1.044 3.744 1.98 4.356 2.52 0.504 0.504-1.404 0.54-1.008 0.936 0.36 0.288 1.98 0.576 2.916 1.44 0.72 0.828 1.404 3.636 2.052 3.852 0.648 0.144 2.304-1.692 2.196-2.736-0.252-1.152-1.8-2.772-2.988-4.032-1.224-1.332-2.448-2.592-3.96-3.78z" i:knockout="Off" fill="#E4E877"></path><path d="m19.098 22.541l-3.24 1.08-0.396 2.844 7.668-2.196-4.032-1.728z" i:knockout="Off" fill="#E4E877"></path><path d="m16.11 27.905l3.492-1.476 0.432 3.564-4.536-0.072 0.612-2.016z" i:knockout="Off" fill="#E4E877"></path><path d="m20.502 26.573l3.996-1.548 1.476 2.772-5.004 1.62-0.468-2.844z" i:knockout="Off" fill="#E4E877"></path><path d="m19.566 30.965c0.072 0.324 0.972 0.252 2.556-0.216 1.548-0.576 3.924-1.512 6.984-2.952l3.816 0.9c-1.152 0.648-2.448 1.404-4.032 2.124-1.656 0.72-3.312 1.512-5.364 2.376-1.296-0.72-2.628-1.476-3.96-2.232z" i:knockout="Off" fill="#E4E877"></path><path d="m25.398 33.845c0.396-0.072 1.368 0.828 2.916 2.304 1.44 1.476 3.492 3.744 6.012 6.804l1.98-1.98c-1.08-2.556-2.268-4.536-3.708-5.94-1.476-1.44-3.06-2.304-4.896-2.592-0.756 0.468-1.512 0.936-2.304 1.404z" i:knockout="Off" fill="#E4E877"></path><path d="m25.218 35.429c0 0.36-0.612 0.9-1.692 1.764-1.152 0.828-4.032 2.268-5.184 3.204-1.296 0.828-1.944 1.404-2.232 1.728 0.756 0.144 1.656-0.108 2.844-0.468 1.008-0.432 2.124-1.764 3.888-2.052 1.8-0.324 4.104-0.504 6.912-0.144-0.468-1.26-1.08-2.268-1.836-2.88-0.756-0.685-1.656-1.116-2.7-1.152z" i:knockout="Off" fill="#E4E877"></path><path d="m20.898 44.861c-0.072 0.972 0.288 1.98 0.684 3.168 0.36 1.152 1.152 2.232 1.98 3.528l2.34-2.052c-0.684-0.828-1.332-1.8-1.656-2.772-0.468-1.008-0.612-2.16-0.72-3.312-0.864 0.468-1.728 0.936-2.628 1.44z" i:knockout="Off" fill="#E4E877"></path><path d="m25.326 51.701l1.296 4.248 3.672-3.779c-0.18-1.044-0.216-2.16 0.288-3.348 0.396-1.296 1.152-2.484 2.268-3.96-2.484 2.267-5.004 4.534-7.524 6.839z" i:knockout="Off" fill="#E4E877"></path><path d="m25.218 43.241c0.072 0.864 0.216 1.836 0.576 2.628 0.288 0.756 0.792 1.62 1.368 2.304l5.796-5.076-1.26-1.8-1.692 2.448c-0.756-0.396-1.692-0.576-2.412-0.684-0.828-0.108-1.62 0-2.376 0.18z" i:knockout="Off" fill="#E4E877"></path><path d="m37.926 48.245c0.072-0.504 0.36-0.396 0.72 0.18s0.936 1.62 1.584 3.276c0.396-1.26 1.116-2.304 2.016-3.528 0.9-1.26 1.98-2.304 3.384-3.528l1.008-4.032c-2.412 0.972-4.176 1.98-5.688 3.312-1.476 1.26-2.484 2.7-3.024 4.32z" i:knockout="Off" fill="#E4E877"></path><path d="m41.742 56.093l-1.008-3.78c0.72-0.18 1.476-0.72 2.556-1.764 1.044-1.116 2.16-2.556 3.492-4.608l4.464-0.288c-0.18 1.8-0.756 3.348-1.44 4.644-0.828 1.224-1.764 2.124-3.096 3.132-1.368 0.935-3.024 1.872-4.968 2.664z" i:knockout="Off" fill="#E4E877"></path><path d="m42.678 57.245c-0.324 0 0.864-0.433 3.276-1.584 2.484-1.188 7.668-3.96 11.376-5.112 3.636-1.26 7.02-1.908 10.296-2.088l-0.828 3.312c-5.508 0.757-10.044 1.908-14.148 3.456-4.14 1.548-7.308 3.349-10.044 5.688 0-1.225 0.036-2.448 0.072-3.672z" i:knockout="Off" fill="#E4E877"></path><path d="m51.57 51.125c1.548-0.972 4.14-1.764 7.776-2.376 3.6-0.684 8.244-1.08 13.932-1.332l2.808-3.924c-2.448-0.18-5.436 0-9.396 0.684-3.96 0.576-8.604 1.656-14.076 3.096-0.324 1.26-0.684 2.556-1.044 3.852z" i:knockout="Off" fill="#E4E877"></path><path d="m53.694 45.113c0.648-0.504 1.188-1.764 1.224-3.924 0.036-2.196-1.008-8.064-0.756-9 0.072-0.972 0.972 0.9 1.728 3.096 0.684 2.052 1.584 5.112 2.556 9.324-1.584 0.144-3.168 0.324-4.752 0.504z" i:knockout="Off" fill="#E4E877"></path><path d="m46.35 32.873c-0.828 0.288-1.8 0.864-3.06 1.872-1.26 0.936-2.808 2.304-4.5 3.96l2.628 2.52 5.256-2.88c-0.108-1.8-0.216-3.637-0.324-5.472z" i:knockout="Off" fill="#A97408"></path><path d="m37.746 37.193c-0.396-1.656-1.044-3.024-1.944-4.104-0.972-1.116-2.196-1.944-3.672-2.484l-2.808 1.332c1.908 0 3.456 0.684 4.788 2.052 1.368 1.296 2.196 3.276 3.024 5.94 0.18-0.9 0.396-1.8 0.612-2.736z" i:knockout="Off" fill="#E4E877"></path><path d="m33.57 29.957c1.8-0.612 2.952-1.332 3.312-2.304 0.324-0.972 0-2.052-1.116-3.384 0.792 0.432 1.116 0.288 1.116-0.432-0.036-0.828-0.396-2.088-1.224-4.068 2.448 2.376 3.96 4.14 4.68 5.58 0.648 1.368 0.072 1.584-0.612 2.736-0.72 1.008-1.908 2.232-3.564 3.528-0.864-0.54-1.728-1.08-2.592-1.656z" i:knockout="Off" fill="#E4E877"></path><path d="m36.774 32.009c0.684-0.612 1.692-1.512 2.628-2.304 0.972-0.9 1.8-1.62 3.312-2.988 1.44-1.404 3.132-3.276 5.22-5.472l1.476 4.356c-2.304 1.26-4.464 2.304-6.48 3.672-2.052 1.224-3.96 2.556-5.724 3.852-0.144-0.36-0.288-0.72-0.432-1.116z" i:knockout="Off" fill="#E4E877"></path><path d="m41.814 25.708c-0.072-0.144 0-1.188 0.216-2.988 0.216-1.944 1.656-6.372 0.828-7.992-0.936-1.62-3.132-2.232-6.444-1.692l0.684-2.412c2.232-0.18 4.068-0.288 5.508-0.18 1.332 0 2.304-0.648 2.916 0.576 0.54 1.188 0.792 4.536 0.756 6.588-0.144 1.908-0.576 3.672-1.296 5.148-1.044 0.973-2.088 1.945-3.168 2.952z" i:knockout="Off" fill="#A97408"></path><path d="m40.338 22.901c0.576-1.512 0.936-2.916 0.936-4.356 0-1.404 0.072-3.672-0.756-4.176-1.008-0.648-2.448-0.468-4.716 0.54l1.116 2.7c1.476-1.836 2.628-2.304 3.168-1.404 0.504 0.864 0.684 3.096 0.252 6.696z" i:knockout="Off" fill="#E4E877"></path><path d="m37.35 18.869c0.432-1.188 0.828-1.548 1.188-0.936s0.684 2.052 0.972 4.464c-0.72-1.152-1.44-2.34-2.16-3.528z" i:knockout="Off" fill="#E4E877"></path><path d="m35.046 15.413c0.612 1.224 0.864 1.944 0.9 2.556-0.036 0.432-0.468 1.08-0.9 0.576-0.432-0.648-1.152-1.728-1.872-3.78 0.612 0.215 1.224 0.432 1.872 0.648z" i:knockout="Off" fill="#E4E877"></path><path d="m35.55 10.625l-4.608 1.188 1.188 1.44 3.06-0.324 0.36-2.304z" i:knockout="Off" fill="#E4E877"></path><path d="m47.358 9.941c1.764-0.792 3.888-1.728 6.516-2.664 2.556-1.08 7.416-3.024 9.036-3.204 1.512-0.216 3.168 0.828 0.504 2.304-2.664 1.404-8.208 3.492-16.488 6.264l0.432-2.7z" i:knockout="Off" fill="#A97408"></path><path d="m65.322 3.353c0.828 1.116 0.936 2.376 0.324 3.78-0.72 1.368-4.392 3.924-4.068 4.356 0.324 0.324 5.076-0.792 6.084-2.232 0.864-1.512 0.72-3.672-0.576-6.624-0.576 0.216-1.152 0.468-1.764 0.72z" i:knockout="Off" fill="#A97408"></path><path d="m61.974 7.745c-1.62 0.936-3.564 1.8-5.976 2.88-2.448 1.008-5.22 2.088-8.46 3.24l-0.072 3.672c1.44-0.576 3.168-1.548 5.184-2.52 2.016-1.08 5.112-2.664 6.804-3.78 1.584-1.224 2.376-2.341 2.52-3.492z" i:knockout="Off" fill="#E4E877"></path><path d="m60.462 11.885c-1.656 0.216-2.592 0.684-2.952 1.548-0.54 0.792-0.252 2.34 0.72 3.276 1.044 0.828 3.924 0.36 5.436 1.944 1.404 1.548 2.268 6.66 3.132 7.128 0.792 0.288 1.188-1.44 1.476-5.184-1.836-2.664-3.492-4.248-4.968-5.148-1.512-0.936-3.672 0.36-3.996 0-0.396-0.468 1.296-1.692 1.584-2.268 0.144-0.612 0-1.044-0.432-1.296z" i:knockout="Off" fill="#A97408"></path><path d="m62.946 12.208c0.288-0.072 1.152-0.216 2.88-0.288 1.656-0.144 4.968-1.476 7.02-0.504 1.944 0.828 3.276 2.808 4.392 5.796l-2.196 1.008c0.468-2.736-0.432-4.392-2.7-5.112-2.376-0.72-5.94-0.432-11.088 0.864 0.54-0.576 1.116-1.151 1.692-1.764z" i:knockout="Off" fill="#A97408"></path><path d="m64.17 13.865c1.62-0.396 3.204-0.504 4.608-0.324s2.664 0.144 3.78 1.404c1.008 1.188 1.764 2.952 2.268 5.58-0.792-0.396-1.548-1.044-2.124-1.8-0.576-0.9-0.72-2.52-1.692-2.916-1.224-0.432-2.772-0.288-5.076 0.432-0.576-0.792-1.152-1.584-1.764-2.376z" i:knockout="Off" fill="#E4E877"></path><path d="m87.462 0.581l-1.476 2.772 2.7 0.432 1.368-3.24-2.592 0.036z" i:knockout="Off" fill="#A97408"></path><path d="m84.978 7.529c-0.36 0.576-0.72 1.836-1.224 3.924-0.612 2.088-1.908 6.696-1.8 8.388 0.108 1.512 1.584 2.916 2.484 1.008 0.828-1.98 1.584-6.156 2.412-12.672-0.612-0.216-1.224-0.432-1.872-0.648z" i:knockout="Off" fill="#A97408"></path><path d="m99.342 38.885l5.581-3.816 3.384 2.736c-0.828 0.648-1.656 1.368-2.881 2.016-1.188 0.612-2.556 1.152-4.104 1.764-0.65-0.9-1.29-1.8-1.978-2.7z" i:knockout="Off" fill="#A97408"></path><path d="m108.95 32.117c0.252-0.072 0.938-0.612 1.908-1.476 1.045-0.972 2.521-2.52 4.033-3.816 1.367-1.368 2.699-2.664 4.139-4.032l1.152 2.16c-0.9 1.368-1.98 2.808-3.24 4.176-1.367 1.296-2.736 2.664-4.5 3.96-1.15-0.324-2.3-0.648-3.49-0.972z" i:knockout="Off" fill="#A97408"></path><path d="m103.63 3.101l3.456 0.792-1.477 1.188-2.412-0.684 0.43-1.296z" i:knockout="Off" fill="#E4E877"></path><path d="m102.15 8.285l-3.564 6.66 5.184-5.616-1.62-1.044z" i:knockout="Off" fill="#E4E877"></path><path d="m55.746 15.017c-0.828 0.432-1.8 1.008-3.06 1.728-1.368 0.648-3.852 1.62-4.536 2.376-0.72 0.684-0.036 1.368 0.54 1.62 0.504 0.072 1.26-0.18 2.412-0.9l6.012-3.384c-0.432-0.468-0.9-0.936-1.368-1.44z" i:knockout="Off" fill="#A97408"></path><path d="m57.222 17.645l6.228 1.584c0.468 1.476 0 2.16-1.404 2.196-1.476-0.036-3.852-0.72-7.272-2.196 0.792-0.504 1.62-1.044 2.448-1.584z" i:knockout="Off" fill="#E4E877"></path><path d="m50.85 21.137l1.512 2.952 3.276-0.9-2.808-3.384-1.98 1.332z" i:knockout="Off" fill="#E4E877"></path><path d="m56.034 28.841c0.216 0.216 0.576 1.044 1.224 2.484 0.54 1.404 1.332 3.384 2.376 6.084l3.42-2.664-4.32-7.02c-0.504 0.576-1.044 0.972-1.476 1.188-0.468 0.108-0.828 0.216-1.224-0.072z" i:knockout="Off" fill="#E4E877"></path><path d="m54.45 20.165l2.556 2.88c0.684 0.036 1.26 0.324 1.584 0.864 0.36 0.468 0.468 1.188 0.468 2.16l3.924 6.084 1.476-2.052c-1.368-3.276-2.664-5.364-3.744-6.804-1.152-1.476-1.98-0.936-2.916-1.44-1.08-0.54-2.196-1.152-3.348-1.692z" i:knockout="Off" fill="#A97408"></path><path d="m61.686 23.081l2.772-0.792 0.216 5.688-2.988-4.896z" i:knockout="Off" fill="#E4E877"></path><path d="m65.286 25.241c-0.072 2.376 0.396 4.608 1.116 6.696s1.836 3.924 3.348 5.652l3.204-1.908c-1.44-0.396-2.664-1.332-3.96-3.096s-2.484-4.212-3.708-7.344z" i:knockout="Off" fill="#E4E877"></path><path d="m65.142 31.685l-1.404 1.512 1.008 2.196-6.876 5.004 1.116 1.836 8.352-6.876-2.196-3.672z" i:knockout="Off" fill="#E4E877"></path><path d="m67.77 27.797c0.396-0.612 0.756-1.224 1.08-2.124 0.324-0.972 1.08-1.692 0.864-3.132-0.36-1.548-1.188-3.312-2.628-5.688l3.384-0.396c1.8 1.8 2.556 3.744 2.412 6.228-0.252 2.34-1.404 5.04-3.6 8.1-0.504-0.972-1.008-1.98-1.512-2.988z" i:knockout="Off" fill="#A97408"></path><path d="m69.498 9.581c0.36 0.072 0.36-0.468 0.144-1.62-0.252-1.224-0.72-3.024-1.548-5.544l2.304-0.504c-0.216 1.584-0.18 2.772 0.252 3.564 0.396 0.612 1.548 0.288 1.944 0.972 0.252 0.72 0.144 1.692-0.324 3.204-0.9 0-1.836-0.036-2.772-0.072z" i:knockout="Off" fill="#E4E877"></path><path d="m74.358 7.277l-0.576 2.916c0.324-0.144 0.684 0.108 1.224 0.756 0.468 0.576 0.972 1.548 1.656 2.916 0.324-1.836 0.252-3.132-0.072-4.284-0.396-1.044-1.188-1.944-2.232-2.304z" i:knockout="Off" fill="#E4E877"></path><path d="m82.962 8.5c-1.08 3.744-1.872 6.66-2.376 9.036-0.468 2.304-0.144 3.924-0.828 4.86-0.9 0.828-2.268 1.008-4.248 0.396l-0.18-3.24 2.844-2.016-0.252-1.836c0.36-0.072 0.972-0.864 1.836-1.98 0.792-1.151 1.908-3.023 3.204-5.22z" i:knockout="Off" fill="#A97408"></path><path d="m74.106 23.477c0.108 0.216-0.18 1.08-0.864 2.448-0.792 1.332-1.98 3.312-3.564 5.796l1.908 2.376c1.728-1.332 2.88-2.808 3.312-4.572 0.36-1.872 0.144-3.744-0.792-6.048z" i:knockout="Off" fill="#A97408"></path><path d="m67.446 36.545c0.252-0.108-0.18 0.396-1.44 1.368s-3.348 2.412-6.12 4.464l0.36 1.656c0.288 0.252 1.152-0.108 2.736-0.936 1.548-0.936 3.564-2.34 6.336-4.356-0.612-0.72-1.224-1.44-1.872-2.196z" i:knockout="Off" fill="#A97408"></path><path d="m66.222 42.881c0.684-0.828 1.44-1.692 2.412-2.448 0.972-0.828 2.124-1.44 3.312-2.268 1.116-0.9 2.016-1.944 3.132-3.132l-1.368-0.72c0.288-0.324 0.648-0.936 1.08-1.44 0.36-0.54 0.936-1.368 1.44-2.088l3.024 1.944c-0.72 1.296-1.8 2.808-3.384 4.392-1.584 1.548-3.672 3.312-6.12 5.148-1.152 0.18-2.34 0.396-3.528 0.612z" i:knockout="Off" fill="#E4E877"></path><path d="m85.986 1.084c-1.332-0.324-2.808-0.468-4.428-0.432-1.656 0.036-3.42 0.108-5.436 0.504l8.892 1.692c0.324-0.576 0.648-1.151 0.972-1.764z" i:knockout="Off" fill="#E4E877"></path><path d="m64.314 53.177c-0.432 0.648-0.288 2.304 0.432 5.112 0.684 2.735 1.872 6.516 3.708 11.34l2.16 1.943 2.376-2.592c-2.376-3.204-3.672-6.191-4.428-9.107-0.684-2.952-0.648-5.688 0.252-8.353-1.476 0.541-2.988 1.081-4.5 1.657z" i:knockout="Off" fill="#E4E877"></path><path d="m45.774 67.325c1.188-0.9 2.772-1.944 4.896-2.988s4.608-2.232 7.74-3.42l0.216 4.284c-2.988 1.079-5.724 1.979-7.812 3.096-2.124 0.936-3.996 2.088-5.22 3.06 0.036-1.333 0.108-2.665 0.18-4.032z" i:knockout="Off" fill="#E4E877"></path><path d="m46.746 71.789c1.692-1.188 3.096-2.053 4.608-2.736 1.368-0.684 2.664-1.044 3.888-1.224l-0.432 2.016-8.316 3.924c0.072-0.648 0.144-1.296 0.252-1.98z" i:knockout="Off" fill="#E4E877"></path><path d="m52.11 56.74l2.484 5.005 3.96-1.729-0.684-5.4c-1.44 0.396-2.628 0.721-3.564 1.116-1.008 0.361-1.692 0.649-2.196 1.008z" i:knockout="Off" fill="#E4E877"></path><path d="m56.358 66.568l0.288 2.88 2.88 2.124-1.08-5.651-2.088 0.647z" i:knockout="Off" fill="#E4E877"></path><path d="m58.77 54.761c0.072 1.296 0.288 3.276 0.648 6.084 0.324 2.771 0.684 6.12 1.224 10.332 0.648-1.116 1.332-1.872 2.448-2.268 1.044-0.505 2.232-0.612 3.708-0.469-0.828-2.052-1.728-4.212-2.304-6.624-0.756-2.52-1.188-4.932-1.692-7.775-0.9-0.145-1.656-0.145-2.268 0-0.72 0.071-1.26 0.359-1.764 0.72z" i:knockout="Off" fill="#A97408"></path><path d="m133.43 42.521c3.492 1.836 6.084 3.6 7.775 5.436 1.693 1.764 2.342 3.564 2.232 5.4l-2.771 3.456c-0.793-0.864-1.836-2.16-3.275-4.031-1.512-1.909-3.277-4.141-5.438-6.984 0.49-1.081 0.99-2.161 1.49-3.277z" i:knockout="Off" fill="#A97408"></path><path d="m128.65 56.885c0.719-1.764 1.26-3.528 1.764-5.688 0.359-2.232 0.072-4.608 0.936-6.984 0.9-2.52 3.961-5.544 4.176-6.984 0-1.512-2.268-2.376-3.455-1.188-1.225 1.26-2.412 5.22-3.42 8.676-1.008 3.384-1.945 7.02-2.664 11.304 0.85 0.288 1.75 0.576 2.65 0.864z" i:knockout="Off" fill="#A97408"></path><path d="m141.07 73.444c-0.828-0.071-1.693-0.611-2.592-1.619-0.973-1.045-2.197-2.412-2.844-4.393-0.721-2.088-1.117-4.644-1.332-7.812l-3.168 0.611c-0.037 1.872 0.18 3.744 0.791 5.473 0.576 1.764 1.584 3.491 2.629 5.04 0.936 1.403 1.943 2.52 3.023 3.491 1.08 0.9 2.232 1.62 3.455 2.16-0.01-0.97-0.01-1.942 0.03-2.951z" i:knockout="Off" fill="#A97408"></path><path d="m117.63 64.589c0.359-0.396 1.547-0.468 3.707-0.504 2.195 0.036 5.039 0.107 9.072 0.504l-0.037-2.809c-2.555-1.079-4.787-1.584-6.84-1.512-2.088 0.072-3.744 0.504-5.256 1.692-0.21 0.865-0.42 1.728-0.64 2.629z" i:knockout="Off" fill="#E4E877"></path><path d="m130.37 77.116l3.926 2.053-0.109-5.256c-0.863-0.54-1.691-1.44-2.195-2.557-0.648-1.151-0.973-2.664-1.26-4.392-0.12 3.385-0.22 6.768-0.37 10.152z" i:knockout="Off" fill="#E4E877"></path><path d="m124.22 71.285c0.646 0.611 1.512 1.044 2.303 1.439 0.793 0.288 1.656 0.504 2.592 0.648l0.434-7.74-2.16-0.36 0.539 2.952c-0.863 0.216-1.584 0.756-2.16 1.224-0.57 0.469-1.22 1.08-1.54 1.837z" i:knockout="Off" fill="#E4E877"></path><path d="m136.71 65.705c-0.287-0.469-0.07-0.504 0.648-0.396 0.648 0.108 1.801 0.504 3.457 1.188-0.613-1.116-0.9-2.521-1.152-3.925-0.18-1.439-0.324-3.168-0.145-4.896l-2.16-3.528c-1.008 2.305-1.547 4.429-1.619 6.372-0.15 1.909 0.18 3.636 0.97 5.185z" i:knockout="Off" fill="#E4E877"></path><path d="m144.95 68.477l-3.383-1.908c0.432-0.684 0.467-1.584 0.504-3.096-0.145-1.548-0.289-3.312-0.828-5.688l2.916-3.385c1.188 1.404 1.871 2.772 2.34 4.248 0.324 1.404 0.287 2.7 0.035 4.429-0.32 1.619-0.76 3.42-1.59 5.4z" i:knockout="Off" fill="#E4E877"></path><path d="m146.47 68.621c-0.182 0.107 0.252-0.864 1.15-3.456 0.938-2.628 2.521-8.244 4.32-11.7 1.656-3.492 3.564-6.336 5.725-8.82l1.764 2.916c-3.203 4.465-5.725 8.496-7.416 12.528-1.729 3.996-2.771 7.56-2.988 11.124-0.82-0.864-1.68-1.729-2.54-2.592z" i:knockout="Off" fill="#E4E877"></path><path d="m145.53 52.24c0.18-0.899-0.467-2.052-1.943-3.6-1.584-1.728-6.408-4.896-6.984-5.76-0.684-0.792 1.369-0.108 3.385 0.936 1.98 0.936 4.752 2.448 8.459 4.68-0.98 1.225-1.96 2.484-2.93 3.744z" i:knockout="Off" fill="#E4E877"></path><path d="m131.6 48.929c-0.396 0.72-0.611 1.944-0.791 3.528-0.182 1.584-0.289 3.527-0.324 5.976l3.635-0.107 1.621-5.796c-1.37-1.189-2.74-2.377-4.14-3.601z" i:knockout="Off" fill="#E4E877"></path><path d="m128.68 58.108c-1.512-0.899-2.809-1.439-4.283-1.476-1.477-0.108-2.881 0.18-4.357 0.864l-1.043 2.951c1.439-1.367 2.879-1.979 4.859-1.979 1.836 0 3.996 0.612 6.336 1.979-0.51-0.755-1.01-1.547-1.52-2.339z" i:knockout="Off" fill="#E4E877"></path><path d="m135.49 39.208c0.287 0 1.223 0.288 2.664 0.864 1.404 0.504 3.455 1.44 6.012 2.52l0.469-4.284-8.029-1.836c0.072 0.792-0.035 1.476-0.18 1.908-0.18 0.433-0.54 0.757-0.93 0.828z" i:knockout="Off" fill="#E4E877"></path><path d="m170.84 61.493c0.18-0.937-0.539-1.98-2.016-3.564-1.656-1.656-6.408-4.896-7.057-5.688-0.648-0.755 1.332-0.18 3.42 0.9 1.945 0.9 4.789 2.412 8.533 4.536-0.93 1.26-1.9 2.519-2.87 3.816z" i:knockout="Off" fill="#E4E877"></path><path d="m164.61 51.485c0.324 0.036 1.152 0.504 2.484 1.259 1.332 0.757 3.133 1.944 5.545 3.421l1.115-4.176-7.668-3.024c-0.107 0.792-0.217 1.404-0.469 1.836-0.29 0.432-0.58 0.612-1.01 0.684z" i:knockout="Off" fill="#A97408"></path><path d="m165.65 43.457l1.764-2.268 3.564 4.392-5.32-2.124z" i:knockout="Off" fill="#E4E877"></path><path d="m169.83 43.025c1.404 1.908 3.096 3.42 4.932 4.68 1.836 1.188 3.816 1.98 6.084 2.52l1.404-3.456c-1.367 0.54-2.951 0.504-5.041-0.108-2.08-0.684-4.49-1.8-7.37-3.636z" i:knockout="Off" fill="#E4E877"></path><path d="m173.61 48.281l-0.215 2.052 2.16 1.152-2.521 8.136 1.98 0.792 2.557-10.512-3.97-1.62z" i:knockout="Off" fill="#E4E877"></path><path d="m178.36 50.801c0.18-0.252 0.072 0.396-0.324 1.943-0.467 1.513-1.15 3.925-2.195 7.236l1.26 1.116c0.361 0.036 0.9-0.864 1.621-2.412 0.646-1.584 1.512-4.104 2.447-7.272-0.94-0.179-1.87-0.395-2.81-0.611z" i:knockout="Off" fill="#E4E877"></path><path d="m91.566 17.717c-1.656 0.144-2.592 0.648-2.952 1.512-0.54 0.828-0.252 2.304 0.72 3.312 1.044 0.828 3.924 0.36 5.436 1.944 1.404 1.584 2.268 6.588 3.132 7.092 0.792 0.288 1.188-1.44 1.476-5.184-1.836-2.664-3.492-4.248-4.968-5.148-1.512-0.936-3.672 0.36-3.996 0-0.396-0.504 1.296-1.62 1.584-2.232 0.144-0.612 0-1.044-0.432-1.296z" i:knockout="Off" fill="#A97408"></path><path d="m94.05 18.041c0.288-0.072 1.152-0.216 2.88-0.288 1.656-0.144 4.968-1.476 7.02-0.504 1.945 0.828 3.277 2.808 4.392 5.796l-2.195 1.008c0.467-2.736-0.432-4.392-2.701-5.112-2.376-0.72-5.94-0.432-11.088 0.864 0.546-0.576 1.122-1.152 1.698-1.764z" i:knockout="Off" fill="#A97408"></path><path d="m95.274 19.661c1.62-0.396 3.204-0.54 4.608-0.288 1.368 0.18 2.736 0.144 3.816 1.404 1.044 1.188 1.693 2.952 2.232 5.58-0.791-0.396-1.548-1.044-2.124-1.8-0.612-0.9-0.648-2.52-1.656-2.916-1.188-0.432-2.844-0.288-5.112 0.432-0.576-0.792-1.152-1.584-1.764-2.412z" i:knockout="Off" fill="#E4E877"></path><path d="m88.326 23.477l6.228 1.548c0.468 1.44 0 2.232-1.404 2.232-1.476 0-3.852-0.792-7.272-2.232 0.792-0.504 1.62-1.008 2.448-1.548z" i:knockout="Off" fill="#E4E877"></path><path d="m81.954 26.933l1.512 2.952 3.276-0.864-2.808-3.384-1.98 1.296z" i:knockout="Off" fill="#E4E877"></path><path d="m92.79 28.877l2.772-0.756 0.216 5.652-2.988-4.896z" i:knockout="Off" fill="#E4E877"></path><path d="m105.46 13.109l-0.577 2.88c0.323-0.072 0.684 0.144 1.223 0.792 0.469 0.576 0.973 1.548 1.656 2.916 0.324-1.8 0.252-3.24-0.072-4.32-0.39-1.116-1.18-1.872-2.23-2.268z" i:knockout="Off" fill="#E4E877"></path><path d="m86.634 33.881c0.216 0.18 0.576 1.116 1.224 2.52 0.54 1.404 1.332 3.42 2.376 6.048l3.42-2.628-4.32-7.056c-0.504 0.576-1.044 0.972-1.476 1.188-0.468 0.108-0.828 0.216-1.224-0.072z" i:knockout="Off" fill="#E4E877"></path><path d="m93.474 50.081c-0.432 0.648-0.288 2.304 0.432 5.112 0.684 2.772 1.872 6.444 3.708 11.305l2.16 1.979 2.376-2.628c-2.376-3.168-3.672-6.192-4.428-9.072-0.684-2.987-0.648-5.652 0.252-8.388-1.476 0.54-2.988 1.116-4.5 1.692z" i:knockout="Off" fill="#E4E877"></path><path d="m81.954 75.929c0.504 0 1.368 0.684 2.988 2.196 1.512 1.476 3.6 3.636 6.264 6.624l1.908-2.088c-1.152-2.484-2.412-4.465-3.924-5.797-1.512-1.403-3.132-2.159-5.004-2.411-0.72 0.468-1.476 0.972-2.232 1.476z" i:knockout="Off" fill="#E4E877"></path><path d="m80.406 62.933c1.908 4.248 4.284 7.704 7.128 10.368 2.808 2.7 5.976 4.464 9.648 5.58l0.108-4.141c-5.184-3.239-8.892-5.939-11.268-8.243-2.376-2.412-2.232-4.969-3.06-5.58-0.936-0.648-1.836 0.071-2.556 2.016z" i:knockout="Off" fill="#A97408"></path><path d="m90.846 45.293c1.08 3.744 1.728 6.912 1.548 9.359-0.072 2.412-0.972 4.248-2.304 5.364l-4.392 0.432c0-1.188 0.324-2.808 0.576-5.147 0.216-2.34 0.756-5.256 1.224-8.748 1.116-0.396 2.232-0.828 3.348-1.26z" i:knockout="Off" fill="#E4E877"></path><path d="m73.746 66.28c-0.18 0.108 0.216-0.863 1.188-3.455 0.828-2.629 2.628-8.244 4.284-11.701 1.728-3.492 3.456-6.336 5.724-8.82l1.764 2.916c-3.312 4.464-5.652 8.496-7.416 12.528-1.764 3.996-2.7 7.56-2.952 11.124-0.864-0.863-1.728-1.727-2.592-2.592z" i:knockout="Off" fill="#E4E877"></path><path d="m71.946 64.913l2.988-6.049c-1.584 0.612-2.772 0.721-3.708 0.469-0.972-0.36-1.656-1.08-2.052-2.305 0.072 1.692 0.324 3.133 0.756 4.32 0.432 1.116 1.26 2.088 1.656 2.772 0.252 0.505 0.504 0.901 0.36 0.793z" i:knockout="Off" fill="#E4E877"></path><path d="m68.814 55.553c-0.144-0.072 0-0.864 0.288-1.98 0.288-1.224 0.72-2.952 1.44-5.184l1.98 0.252c-0.864 1.728-1.404 3.204-1.764 4.572-0.324 1.368-0.468 2.448-0.288 3.527-0.54-0.395-1.08-0.792-1.656-1.187z" i:knockout="Off" fill="#E4E877"></path><path d="m72.558 41.729c0.18 0 1.008-0.684 2.34-1.908 1.404-1.368 3.132-3.06 5.724-5.616l2.484 2.592c-2.268 1.296-3.888 2.412-5.004 3.348-1.116 0.828-1.656 1.656-1.62 2.088-1.296-0.144-2.592-0.324-3.924-0.504z" i:knockout="Off" fill="#E4E877"></path><path d="m86.058 49.505l-1.872 10.439c-0.792-0.792-1.548-1.08-2.268-0.863-0.756 0.144-1.584 0.828-2.34 1.907 0.576-2.159 1.296-4.248 2.448-6.119 1.116-1.908 2.412-3.744 4.032-5.364z" i:knockout="Off" fill="#E4E877"></path><path d="m81.198 69.125c-1.692 1.655-3.42 3.42-5.328 5.832-1.944 2.304-3.96 4.896-6.048 7.92l2.124 1.8c0.72-1.8 2.124-3.492 4.356-5.472 2.124-1.98 5.076-3.96 8.712-6.084-0.9-0.612-1.728-1.296-2.34-1.908-0.612-0.72-1.152-1.368-1.476-2.088z" i:knockout="Off" fill="#A97408"></path><path d="m81.162 76.937c-1.332 0.36-2.592 1.225-3.924 2.592-1.404 1.404-2.7 3.168-4.176 5.58l2.628 1.692c1.188-1.332 2.34-2.736 3.456-4.068 1.116-1.368 2.196-2.808 3.24-4.176-0.396-0.54-0.792-1.08-1.224-1.62z" i:knockout="Off" fill="#E4E877"></path><path d="m78.714 62.572c-0.684 0.757-0.936 1.692-1.152 2.664-0.252 0.9-0.072 1.98 0.144 3.097l3.456-0.937c-0.72-1.62-1.224-2.592-1.656-3.456-0.432-0.792-0.648-1.295-0.792-1.368z" i:knockout="Off" fill="#E4E877"></path><path d="m87.822 82.769c-1.08 1.044-2.052 2.34-3.456 4.032-1.332 1.656-2.916 3.563-4.608 5.868 0.612-0.216 1.44-0.36 2.196-0.288 0.72 0.036 1.656 0.144 2.52 0.468l-0.828-2.232 5.544-4.717c-0.432-1.044-0.9-2.087-1.368-3.131z" i:knockout="Off" fill="#E4E877"></path><path d="m93.618 81.473l-2.7-4.248 4.752 2.592-2.052 1.656z" i:knockout="Off" fill="#E4E877"></path><path d="m85.23 61.457c0.576 0.252 1.548 0.216 2.916-0.108 1.332-0.432 3.024-1.116 5.22-2.196l1.296 2.664c-2.88 0.937-4.968 1.692-6.264 2.269-1.404 0.54-2.016 0.899-1.836 1.08-0.684-0.396-1.188-0.828-1.368-1.44-0.216-0.614-0.252-1.37 0.036-2.269z" i:knockout="Off" fill="#E4E877"></path><path d="m86.85 66.497l8.352-3.744c0 0.899 0.18 1.728 0.54 2.483 0.36 0.721 0.792 1.261 1.44 1.765-2.52 0.324-4.356 0.756-5.508 1.008-1.224 0.324-1.692 0.468-1.548 0.72-1.08-0.72-2.16-1.476-3.276-2.232z" i:knockout="Off" fill="#E4E877"></path><path d="m92.07 69.665l6.516 4.464c-0.252-0.433-0.144-0.792 0.324-0.937 0.432-0.216 1.116-0.216 2.196-0.144-0.828-0.828-1.8-1.548-2.916-2.304-1.116-0.721-2.376-1.477-3.78-2.124-0.76 0.324-1.552 0.685-2.344 1.045z" i:knockout="Off" fill="#E4E877"></path><path d="m96.462 68.369l6.732 4.571 2.087-1.476-8.818-3.095z" i:knockout="Off" fill="#E4E877"></path><path d="m100.96 68.404c0.216 0.108 0.936-0.504 2.016-1.836 1.044-1.512 2.772-3.743 4.356-6.3 1.439-2.52 3.096-5.364 4.68-8.676l3.385 5.147c-1.836 2.269-3.529 4.5-5.076 6.841-1.656 2.34-2.988 4.5-4.393 6.876-1.66-0.684-3.31-1.367-4.97-2.052z" i:knockout="Off" fill="#E4E877"></path><path d="m93.69 91.337c0.54 0 1.548-0.937 3.42-2.664 1.728-1.872 4.14-4.393 7.236-7.992l3.133 2.412c-0.432 1.116-1.117 2.268-2.197 3.456-1.08 1.08-2.555 2.196-4.283 3.348-2.414 0.467-4.862 0.936-7.31 1.44z" i:knockout="Off" fill="#E4E877"></path><path d="m103.23 89.753c1.728-0.937 3.096-1.8 3.959-2.592 0.865-0.864 0.936-2.017 1.188-2.341 0.072-0.468-0.395-0.468 0 0 0.361 0.396 1.189 1.261 2.484 2.593-2.303 0.899-3.852 1.512-5.076 2.124-1.187 0.575-1.907 0.863-2.015 1.151-0.17-0.288-0.35-0.611-0.53-0.935z" i:knockout="Off" fill="#E4E877"></path><path d="m123.64 72.977c0.324-0.18-0.324 0.216-2.34 1.188-2.018 0.936-5.113 2.34-9.434 4.355l4.682 3.132c0.826-0.359 2.268-1.188 4.318-2.34 1.98-1.224 4.572-2.844 7.777-4.859-1.152-0.324-2.125-0.433-2.916-0.721-0.87-0.288-1.51-0.54-2.09-0.755z" i:knockout="Off" fill="#A97408"></path><path d="m124.79 78.269c0.793 2.088 1.297 3.78 1.514 5.22 0.143 1.368 0.07 2.376-0.361 3.024l-4.066 0.54h-0.002c0.324-0.9 0.648-1.872 0.576-2.916-0.07-1.08-0.322-2.232-0.756-3.456 1.01-0.792 2.06-1.584 3.1-2.412z" i:knockout="Off" fill="#E4E877"></path><path d="m120.55 80.933l-3.025 1.188c0.613 0.396 1.152 1.08 1.621 1.907 0.359 0.828 0.828 1.801 1.008 3.061 0.539-0.792 0.684-1.62 0.828-2.628 0.03-1.08-0.11-2.16-0.43-3.528z" i:knockout="Off" fill="#E4E877"></path><path d="m79.614 23.333l1.332 2.988c-0.972 0.072-2.016 0.396-2.736 0.972-0.756 0.54-1.584 1.224-2.088 2.196 0.252-1.08 0.504-2.088 0.36-3.024-0.18-0.936-0.36-1.944-0.936-2.736 0.972 0.288 1.8 0.288 2.484 0.288 0.612-0.037 1.188-0.36 1.584-0.684z" i:knockout="Off" fill="#E4E877"></path><path d="m81.522 27.257l1.152 2.88-2.412 1.728-2.772-1.656c0.468-0.828 1.116-1.476 1.8-1.944 0.612-0.468 1.404-0.9 2.232-1.008z" i:knockout="Off" fill="#E4E877"></path><path d="m81.45 32.477l2.628 3.24 2.34-0.36c-0.576-0.828-1.188-1.62-1.692-2.232-0.576-0.72-1.116-1.296-1.62-1.728-0.54 0.36-1.08 0.72-1.656 1.08z" i:knockout="Off" fill="#E4E877"></path><path d="m84.078 30.317l3.348-0.54 1.08 2.52c-0.648 0.36-1.224 0.54-1.584 0.684-0.36 0.072-0.648-0.036-0.72-0.18-0.684-0.828-1.404-1.656-2.124-2.484z" i:knockout="Off" fill="#E4E877"></path><path d="m87.966 38.489l1.62 5.04-1.728 1.584-1.836-2.88c0.144-0.144 0.504-0.396 0.792-1.044 0.36-0.648 0.648-1.548 1.152-2.7z" i:knockout="Off" fill="#E4E877"></path><path d="m86.598 26.645c0.612 0.288 1.62 1.584 3.168 4.176 1.548 2.556 4.428 8.172 5.868 11.016 1.296 2.736 1.872 4.464 1.872 5.328-0.216-0.648-0.036-1.44 0.54-2.232s1.44-1.728 2.736-2.664c-2.88-3.492-5.148-6.408-6.804-8.748-1.656-2.412-2.7-4.212-3.132-5.544-1.402-0.432-2.806-0.864-4.246-1.332z" i:knockout="Off" fill="#A97408"></path><path d="m93.69 40.865c0.036 0.18 0.36 0.864 0.972 2.052 0.54 1.116 1.404 2.772 2.448 4.824l-4.068 1.259c-0.036-0.972-0.072-1.872-0.396-2.7s-0.792-1.692-1.404-2.448c0.792-0.971 1.62-1.979 2.448-2.987z" i:knockout="Off" fill="#E4E877"></path><path d="m97.074 34.925c0.216-0.144 0.684-0.36 1.404-0.648 0.684-0.396 1.512-0.828 2.628-1.44l2.628 1.656c-0.612 0.612-1.404 1.188-2.232 1.728-0.864 0.54-1.908 0.936-2.988 1.332-0.476-0.865-0.944-1.728-1.448-2.628z" i:knockout="Off" fill="#E4E877"></path><path d="m105.93 29.525c-0.432 0.324 0.289-0.36 2.16-2.052 1.836-1.728 4.824-4.464 8.965-8.208l0.898 2.592c-0.684 1.008-1.943 2.268-3.635 3.924-1.764 1.584-3.961 3.456-6.732 5.616-0.54-0.612-1.08-1.224-1.66-1.872z" i:knockout="Off" fill="#E4E877"></path><path d="m98.082 22.937c0.468-0.36 0.972-0.576 1.656-0.36 0.54 0 1.404 0.216 2.16 1.224 0.756 0.972 1.332 2.664 2.124 4.932-0.288-0.144-0.756 0.036-1.116 0.396-0.504 0.36-0.9 1.044-1.476 1.908-0.036-1.8-0.324-3.312-0.864-4.68-0.57-1.44-1.398-2.448-2.478-3.42z" i:knockout="Off" fill="#E4E877"></path><path d="m107.08 25.277c0.576-0.324 1.404-1.296 2.771-3.204 1.332-1.944 2.953-4.572 5.004-8.028l0.541 4.896c-0.145 0.54-1.008 1.476-2.449 2.952-1.512 1.476-3.744 3.312-6.551 5.796 0.22-0.793 0.44-1.585 0.69-2.412z" i:knockout="Off" fill="#E4E877"></path><path d="m87.714 8.861c0.18 0.36 0.216 1.332 0.108 2.916-0.18 1.584-0.396 3.78-0.792 6.588l4.068-1.944c-0.324-0.468-0.468-1.404-0.432-2.664 0.036-1.332 0.144-2.988 0.468-5.112-1.116 0.072-2.268 0.144-3.42 0.216z" i:knockout="Off" fill="#E4E877"></path><path d="m90.234 3.785l0.396-2.844 2.016 0.432 0.144 3.06-2.556-0.648z" i:knockout="Off" fill="#E4E877"></path><path d="m91.71 9.005c1.008-0.54 2.088-0.864 3.384-1.26 1.296-0.432 2.628-0.648 4.284-0.936l1.224 1.62-0.504 1.692c-1.008-0.324-2.16-0.288-3.6 0.108-1.512 0.288-3.024 0.936-4.932 1.944 0.034-1.044 0.07-2.089 0.142-3.168z" i:knockout="Off" fill="#E4E877"></path><path d="m94.374 6.881c0.324-0.504 0.36-0.9 0.396-1.332-0.108-0.468-0.216-0.828-0.612-1.224l-0.504-3.024 3.42 0.468c-0.936 0.396-1.368 0.72-1.44 1.368-0.072 0.54 0.576 1.44 0.972 2.016 0.324 0.468 0.684 0.792 1.08 0.972-1.08 0.252-2.196 0.504-3.312 0.756z" i:knockout="Off" fill="#E4E877"></path><path d="m98.838 11.417c-0.9 0.108-1.908 0.288-3.168 0.54-1.368 0.18-2.628 0.54-4.32 0.936l0.864 3.132c0.72 0.36 1.548 0.54 2.196 0.54 0.72-0.072 1.26-0.324 1.908-0.756 0.828-1.44 1.656-2.916 2.52-4.392z" i:knockout="Off" fill="#A97408"></path><path d="m100.35 15.953l3.924-5.868 2.628 0.108c-0.936 0.108-1.693 0.576-2.268 1.548-0.576 0.972-0.972 2.196-1.188 4.068-1 0.036-2.05 0.072-3.09 0.144z" i:knockout="Off" fill="#E4E877"></path><path d="m108.2 4.361c1.404 0.036 2.664 0.216 3.781 0.54 1.043 0.252 1.764 0.648 2.699 1.332 0.863 0.612 1.691 1.692 2.484 2.556 0.791 0.792 1.547 1.656 2.268 2.448l-1.008 3.348c-1.08-2.232-2.484-4.104-4.355-5.616-1.945-1.584-4.104-2.772-6.877-3.708 0.33-0.288 0.66-0.576 1.02-0.9z" i:knockout="Off" fill="#A97408"></path><path d="m106.72 12.641c0.395-0.72 1.115-1.476 1.764-2.268s1.439-1.764 2.375-2.628l3.205 2.772c-1.26 0.612-2.377 1.152-3.205 1.908-0.898 0.612-1.656 1.44-2.123 2.196-0.65-0.648-1.33-1.296-2.02-1.98z" i:knockout="Off" fill="#A97408"></path><path d="m108.95 16.313c0.109-0.396 0.721-0.936 1.693-1.764 1.008-0.9 2.23-1.908 4.104-3.312 0.035 0.972-0.432 2.052-1.404 3.78-1.08 1.62-2.484 3.528-4.607 5.868 0.08-1.512 0.15-3.024 0.22-4.572z" i:knockout="Off" fill="#A97408"></path><path d="m115.72 12.425c1.043 0.504 1.691 1.26 2.23 2.268 0.324 0.936-0.646 2.16 0.576 3.528 1.26 1.296 4.861 2.916 7.057 4.32 2.123 1.224 4.141 2.304 5.904 3.24l-2.268 2.376c-3.457-1.512-6.084-2.952-7.885-4.32-1.871-1.44-2.195-2.88-2.916-3.888-0.756-1.044-1.225-1.008-1.549-2.232-0.46-1.368-0.89-2.952-1.15-5.292z" i:knockout="Off" fill="#E4E877"></path><path d="m120.15 17.681c1.115 0.54 2.916 1.584 5.4 3.132 2.482 1.476 5.436 3.456 9.252 5.94l1.691-1.764c-1.98-1.152-4.068-2.412-6.553-3.924-2.484-1.548-5.184-3.204-8.244-5.112-0.51 0.576-1.01 1.151-1.55 1.728z" i:knockout="Off" fill="#E4E877"></path><path d="m124.86 16.277c0.613 0.756 1.584 1.584 3.205 2.628 1.584 1.044 3.527 2.16 6.119 3.492l-1.691-3.78c-1.26-0.396-2.447-0.72-3.709-1.116-1.32-0.432-2.58-0.793-3.92-1.224z" i:knockout="Off" fill="#E4E877"></path><path d="m137.75 25.097c0.648-0.108 1.656-0.288 3.168-0.54 1.549-0.324 4.824-1.512 5.652-1.08 0.611 0.396 0.107 1.512-1.656 3.492-1.439 0.288-2.844 0.576-4.213 0.576-1.439 0-2.807-0.144-4.248-0.432 0.44-0.648 0.87-1.332 1.3-2.016z" i:knockout="Off" fill="#A97408"></path><path d="m107.48 46.409c1.26 0 3.383 0.216 6.227 0.504 2.881 0.324 6.48 0.72 10.945 1.332l0.756-2.34c-2.305-0.144-4.717-0.468-7.633-0.684-2.916-0.36-6.084-0.612-9.648-1.044-0.23 0.719-0.45 1.476-0.66 2.232z" i:knockout="Off" fill="#E4E877"></path><path d="m111.15 43.097c0.863 0.396 2.051 0.72 3.996 0.972 1.836 0.252 4.139 0.36 7.055 0.468l-3.203-2.664c-1.225 0.18-2.484 0.396-3.779 0.648-1.37 0.216-2.63 0.36-4.07 0.576z" i:knockout="Off" fill="#A97408"></path><path d="m149.6 36.365c0.217 0.216 0.576 1.044 1.225 2.484 0.539 1.404 1.332 3.384 2.375 6.084l3.42-2.664-4.318-7.02c-0.506 0.576-1.045 0.972-1.477 1.188-0.47 0.108-0.83 0.216-1.22-0.072z" i:knockout="Off" fill="#A97408"></path><path d="m144.41 34.925l2.627 3.24 2.342-0.324c-0.576-0.828-1.189-1.62-1.693-2.232-0.539-0.72-1.115-1.296-1.584-1.728-0.54 0.324-1.12 0.683-1.7 1.044z" i:knockout="Off" fill="#E4E877"></path><path d="m147.08 32.801l3.348-0.576 1.08 2.556c-0.648 0.36-1.225 0.54-1.584 0.684-0.432 0.072-0.684-0.036-0.756-0.18-0.69-0.828-1.37-1.656-2.09-2.484z" i:knockout="Off" fill="#E4E877"></path><path d="m159.1 61.745c-0.035 0.359-0.539 1.08-1.367 2.447-0.865 1.332-2.053 3.024-3.709 5.364l4.141 1.332 3.348-7.524c-0.791-0.107-1.439-0.287-1.799-0.539-0.39-0.288-0.64-0.648-0.61-1.08z" i:knockout="Off" fill="#E4E877"></path><path d="m157.37 56.669l-1.223 3.996 1.619 1.764c0.324-1.008 0.613-1.8 0.865-2.664 0.215-0.792 0.395-1.656 0.539-2.304-0.58-0.252-1.19-0.504-1.81-0.792z" i:knockout="Off" fill="#E4E877"></path><path d="m160.61 57.677l2.34 2.448-1.475 2.304c-0.686-0.36-1.225-0.612-1.477-0.9-0.324-0.252-0.359-0.54-0.252-0.72 0.29-1.044 0.58-2.088 0.86-3.132z" i:knockout="Off" fill="#E4E877"></path><path d="m147.51 80.32c0.469 0.072-0.539 0.072-2.627 0.145-2.197 0-5.617 0.072-10.404 0.072l2.988 4.788c0.971-0.036 2.52-0.108 4.932-0.36 2.303-0.324 5.328-0.685 9.072-1.225-0.938-0.647-1.729-1.367-2.377-1.871-0.65-0.54-1.22-1.152-1.58-1.549z" i:knockout="Off" fill="#A97408"></path><path d="m135.88 85.217l-2.701-5.112-5.004-2.195c0.072 0.792 0.432 1.728 1.225 3.203 0.719 1.368 1.799 3.097 3.24 5.185 1.08-0.361 2.16-0.721 3.24-1.081z" i:knockout="Off" fill="#E4E877"></path><path d="m135.45 74.561l0.252 4.284c1.225 0.54 2.736 0.792 4.682 0.9 1.979 0.035 4.066-0.181 6.803-0.648-2.699-0.288-4.967-0.864-6.947-1.584-1.97-0.792-3.52-1.728-4.78-2.952z" i:knockout="Off" fill="#E4E877"></path><path d="m125.62 65.453c-0.756 0.071-2.375-0.036-5.004 0.071-2.664 0.072-6.084-0.036-10.547 0.072 1.332 0.936 1.943 1.98 1.98 2.844 0 0.828-0.721 1.765-2.018 2.521 3.35-0.685 6.336-1.296 9.109-1.836 2.807-0.54 5.076-1.009 7.344-1.404-0.28-0.756-0.57-1.512-0.86-2.268z" i:knockout="Off" fill="#E4E877"></path><path d="m125.48 68.801l-15.373 3.348c0.145 0.468 0.037 0.973-0.324 1.656-0.359 0.576-1.008 1.332-1.799 2.124l2.988 1.764c2.303-0.647 4.355-1.296 6.299-2.231 1.98-0.937 3.529-2.017 5.184-3.24-0.18-0.36 0-0.756 0.541-1.332 0.46-0.614 1.29-1.261 2.48-2.089z" i:knockout="Off" fill="#E4E877"></path><path d="m111.8 64.013c1.584-2.448 2.986-4.932 4.607-7.452 1.477-2.592 2.988-5.076 4.535-7.74l2.844 0.396c-2.303 2.34-4.031 4.608-5.184 7.2-1.26 2.52-1.943 5.111-2.051 7.92-1.58-0.108-3.17-0.216-4.75-0.324z" i:knockout="Off" fill="#E4E877"></path><path d="m119.03 48.857c-1.439-0.288-3.311-0.54-5.902-0.756-2.594-0.288-5.762-0.468-9.505-0.684-0.36 0.72-0.648 1.368-0.72 2.232-0.108 0.792-0.144 1.656 0.036 2.592 5.183-1.439 9-2.268 11.449-2.339 2.447-0.072 3.311 0.468 2.986 1.764 0.54-0.937 1.08-1.873 1.65-2.809z" i:knockout="Off" fill="#E4E877"></path><path d="m117.31 53.608c0-0.792-0.324-1.548-1.117-1.872-0.828-0.36-1.98-0.684-3.6-0.576l3.061 3.672c0.54-0.395 1.08-0.791 1.66-1.224z" i:knockout="Off" fill="#E4E877"></path><path d="m109.39 52.385l-3.529 5.976c-1.007-1.512-1.656-2.592-1.943-3.384-0.396-0.792-0.432-1.188-0.108-1.188 1.83-0.469 3.7-0.936 5.58-1.404z" i:knockout="Off" fill="#E4E877"></path><path d="m104.49 46.517l0.936-5.04c0.541-0.144 1.115-0.396 1.729-0.9 0.504-0.504 1.223-1.26 1.764-2.124 1.764 0.72 3.168 1.26 4.355 1.62 1.152 0.36 2.053 0.468 2.701 0.468l-6.732 1.656c-0.973-0.072-1.656 0.252-2.053 0.972-0.396 0.72-0.648 1.8-0.467 3.384-0.73 0-1.48 0-2.24-0.036z" i:knockout="Off" fill="#E4E877"></path><path d="m115 32.945c1.26 0.072 2.699 0.324 4.32 0.612 1.584 0.216 3.383 0.432 5.256 1.08 1.836 0.576 3.6 1.44 5.58 2.592-0.324-0.648 0-1.26 0.684-1.692 0.684-0.468 1.873-0.9 3.564-1.152-2.268-0.072-4.68-0.504-7.381-1.296-2.736-0.792-5.652-1.944-8.748-3.456-1.07 1.08-2.15 2.196-3.27 3.312z" i:knockout="Off" fill="#E4E877"></path><path d="m119.5 28.841l2.088-3.06c0.648 0.396 2.016 1.116 4.248 2.016 2.16 0.9 5.184 2.088 8.928 3.564-2.123 0.792-4.393 1.152-6.947 0.684-2.59-0.504-5.37-1.441-8.32-3.204z" i:knockout="Off" fill="#A97408"></path><path d="m132.28 32.621c1.441 0.144 2.881-0.108 4.176-0.756 1.297-0.684 2.594-1.872 3.744-3.42l3.889-0.504c-1.404 2.448-2.592 4.068-3.707 5.148-1.045 0.9-1.693 1.044-2.916 0.972-1.36-0.108-3.09-0.54-5.18-1.44z" i:knockout="Off" fill="#E4E877"></path><path d="m130.84 28.409l5.041 2.376 2.879-1.836c-1.439-0.324-2.736-0.684-3.889-1.08-1.223-0.468-2.268-0.972-3.275-1.512-0.25 0.684-0.51 1.368-0.76 2.052z" i:knockout="Off" fill="#E4E877"></path><path d="m123.93 35.645l5.328 2.988-1.008 4.068c-0.469-0.612-1.115-1.62-1.801-2.736-0.76-1.188-1.55-2.628-2.52-4.32z" i:knockout="Off" fill="#E4E877"></path><path d="m125.19 40.577l-3.779 1.008 2.305 3.312 4.535-1.512-3.07-2.808z" i:knockout="Off" fill="#A97408"></path><path d="m126.63 46.337l-1.801 9.252c-0.469-0.18-1.08-0.18-1.691 0-0.686 0.107-1.441 0.396-2.27 0.864 0.182-1.08 0.541-2.196 1.225-3.204 0.648-1.08 1.477-2.088 2.629-3.024l1.871-4.896 0.03 1.008z" i:knockout="Off" fill="#E4E877"></path><path d="m138.04 35.141c0.721 0.036 1.801-0.54 3.24-1.728 1.332-1.188 3.025-3.06 5.076-5.472l4.645-0.828-3.203 4.356-2.557 0.9-2.592 4.032c-1.51-0.396-3.06-0.828-4.61-1.26z" i:knockout="Off" fill="#A97408"></path><path d="m150.97 30.749l1.15-1.8c1.008 0 1.945 0.648 3.098 1.548 1.078 0.864 2.195 2.7 3.348 4.14 0.971 1.404 1.871 2.88 2.699 4.428-0.863 0.9-1.619 0.972-2.557 0.216-0.898-0.972-1.654-3.636-2.844-5.076-1.34-1.44-2.93-2.592-4.9-3.456z" i:knockout="Off" fill="#A97408"></path><path d="m152.44 33.557c0.361 0.144 1.26 1.404 2.557 3.78 1.295 2.34 2.988 5.724 5.221 10.296l2.268-3.096c-1.512-1.26-2.701-2.556-3.852-4.032-1.189-1.656-1.801-3.672-2.809-4.932-1.08-1.224-2.16-1.801-3.39-2.016z" i:knockout="Off" fill="#E4E877"></path><path d="m162.49 38.993c0.396 0.36 0.287 0.756 0.072 1.188-0.324 0.324-0.938 0.684-1.836 1.08l2.627 2.556 2.953-3.24c-1.26-0.504-2.52-1.044-3.81-1.584z" i:knockout="Off" fill="#E4E877"></path><path d="m167.89 39.857c0.287 0.144 1.654 0.72 3.959 1.584 2.305 0.9 5.545 2.088 9.863 3.708-2.23 0.36-4.031 0.468-5.543 0.18-1.584-0.324-2.16-0.936-3.527-1.836-1.41-0.9-2.99-2.16-4.75-3.636z" i:knockout="Off" fill="#E4E877"></path><path d="m182.79 46.301c0.504-0.144 1.945 0.108 4.32 0.612 2.34 0.432 5.58 1.26 9.865 2.34l-1.836 2.664c-3.24-1.548-5.869-2.34-7.885-2.772-2.088-0.432-3.564-0.288-4.428 0.432 0-1.08 0-2.16-0.04-3.276z" i:knockout="Off" fill="#E4E877"></path><path d="m145.82 38.993l3.779-0.144 1.26 3.384c-1.152 0.468-2.232 0.756-3.096 0.864-0.936 0-1.729-0.18-2.375-0.54 0.15-1.188 0.29-2.376 0.44-3.564z" i:knockout="Off" fill="#A97408"></path><path d="m141.46 42.737c0.215 0.36 1.188 0.72 2.771 0.792 1.584 0.144 3.924 0 6.875-0.144l0.721 3.132c-1.225 0.18-2.377 0.252-3.457 0.072-1.188-0.216-2.016-0.432-3.168-1.044-1.21-0.756-2.33-1.512-3.73-2.808z" i:knockout="Off" fill="#E4E877"></path><path d="m150.82 47.597l-4.859 6.3c0.359 0.288 0.719 1.008 0.936 1.872 0.215 0.937 0.359 2.017 0.432 3.528-0.145-0.685 0.18-1.98 1.26-3.744 1.045-1.908 3.492-5.436 4.859-7.128 1.26-1.8 2.018-2.916 2.557-3.348-1.73 0.828-3.46 1.656-5.19 2.52z" i:knockout="Off" fill="#A97408"></path><path d="m137.18 66.749c2.053 0.576 4.068 1.296 6.049 2.304 1.908 0.972 2.951 1.944 5.615 3.456 2.629 1.404 5.797 2.988 9.936 4.896 0.613 0.721 0.721 1.549 0.324 2.196-0.467 0.612-1.439 1.332-2.916 1.872-2.375-2.016-4.787-3.708-7.236-5.364-2.482-1.691-5.004-3.06-7.559-4.392-1.441-0.432-2.449-1.116-3.168-1.908-0.67-0.865-1.07-1.836-1.03-3.06z" i:knockout="Off" fill="#E4E877"></path><path d="m142.36 74.453l5.438 2.771c-2.594-0.144-4.285-0.18-5.076-0.252-0.9-0.072-0.9-0.072 0 0-0.11-0.827-0.21-1.656-0.36-2.519z" i:knockout="Off" fill="#E4E877"></path><path d="m151.58 72.257c0.469-1.116 0.973-2.412 1.908-3.888 0.9-1.549 1.836-3.24 3.203-5.221-0.287-0.18-0.719-0.756-1.152-1.332-0.504-0.684-1.043-1.548-1.619-2.592-0.756 1.548-1.188 2.772-1.691 4.212-0.613 1.225-0.973 2.232-1.08 3.708-0.15 1.477 0 3.132 0.43 5.113z" i:knockout="Off" fill="#E4E877"></path><path d="m154.49 57.893c0.215-0.756 0.973-1.872 1.871-3.348 0.865-1.477 2.27-3.312 3.816-5.508l0.359 4.068c-1.906 0.756-3.168 1.692-4.066 2.809-0.9 1.115-1.26 2.412-1.225 3.888-0.24-0.614-0.49-1.261-0.75-1.909z" i:knockout="Off" fill="#E4E877"></path><path d="m158.45 56.165c0.721-0.36 1.766-0.108 2.736 0.611 0.936 0.576 1.873 1.584 3.385 3.601 1.512 2.088 3.313 4.824 5.543 8.64 0.648-1.008 1.045-1.8 1.332-2.52 0.217-0.721 0.324-1.261 0.182-1.62-0.686-2.557-1.801-4.681-3.492-6.517-1.693-1.872-3.816-3.204-6.518-4.283-1.04 0.684-2.09 1.367-3.17 2.088z" i:knockout="Off" fill="#A97408"></path><path d="m161.08 48.461l3.24-4.176 3.023 1.08c-0.215 1.188-0.791 2.196-1.729 3.168-1.008 0.9-2.34 1.764-4.139 2.448-0.1-0.828-0.24-1.656-0.39-2.52z" i:knockout="Off" fill="#E4E877"></path><path d="m168.32 45.833l4.787 2.088-1.008 2.484-4.645-2.124 0.86-2.448z" i:knockout="Off" fill="#E4E877"></path><path d="m163.49 61.816c-0.541 2.232-1.369 4.536-2.34 6.769-1.008 2.16-2.305 4.392-3.744 6.552l2.123 1.764c-0.107-1.691 0.217-2.771 0.686-3.239 0.432-0.469 1.295 1.584 2.303 0.323 1.045-1.439 2.125-4.355 3.637-8.748-0.87-1.116-1.76-2.268-2.67-3.421z" i:knockout="Off" fill="#E4E877"></path><path d="m153.92 70.349l4.104 1.188-1.98 2.844-3.168-1.729 1.05-2.303z" i:knockout="Off" fill="#E4E877"></path><path d="m164.75 72.293c0.648-2.053 1.297-4.104 1.943-6.156l1.98 3.384c-0.107 1.188-0.539 2.232-1.584 3.132-1.043 0.828-2.557 1.656-4.535 2.196l2.19-2.556z" i:knockout="Off" fill="#E4E877"></path><path d="m179.23 61.493c1.871 0.071 3.24 0.323 4.5 0.756 1.152 0.468 0.576 1.296 2.592 1.655 1.871 0.217 4.896 0.036 8.928-0.396l-1.621-4.32c-2.879 0.756-4.895 0.9-6.443 0.721-1.512-0.253-1.619-1.908-2.557-2.196-1.078-0.36-2.34-0.324-3.779 0.107-0.54 1.225-1.08 2.449-1.62 3.673z" i:knockout="Off" fill="#A97408"></path><path d="m181.31 55.984c0.611-0.504 1.295-0.504 2.195-0.144 0.863 0.36 1.801 1.08 2.953 2.304-0.686-1.044-1.01-2.196-0.973-3.6-0.037-1.368 0.359-2.988 1.043-4.716-1.908-0.54-3.059-0.36-3.996 0.684-0.88 1.045-1.24 2.773-1.21 5.472z" i:knockout="Off" fill="#E4E877"></path><path d="m186.78 50.117c1.584 0.54 3.205 0.9 5.148 1.476 1.729 0.396 3.744 0.685 6.049 1.439 2.303 0.685 7.164 1.98 7.92 2.916 0.684 0.864-0.541 1.549-3.672 2.196-1.08-0.432-2.809-0.899-5.328-1.404-2.52-0.575-5.725-1.151-9.613-1.871-0.359-0.612-0.574-1.368-0.646-2.125-0.07-0.827-0.07-1.655 0.14-2.627z" i:knockout="Off" fill="#A97408"></path><path d="m186.97 55.805l7.811 1.548c-2.771 1.08-4.572 1.62-5.939 1.332-1.33-0.325-1.91-1.188-1.87-2.88z" i:knockout="Off" fill="#E4E877"></path></g></g><metadata></metadata></svg> 