<?xml version="1.0" encoding="UTF-8" standalone="no"?> <!-- Created with Inkscape (http://www.inkscape.org/) --> <svg xmlns:inkscape="http://www.inkscape.org/namespaces/inkscape" xmlns:rdf="http://www.w3.org/1999/02/22-rdf-syntax-ns#" xmlns="http://www.w3.org/2000/svg" xmlns:cc="http://web.resource.org/cc/" xmlns:dc="http://purl.org/dc/elements/1.1/" xmlns:sodipodi="http://sodipodi.sourceforge.net/DTD/sodipodi-0.dtd" xmlns:svg="http://www.w3.org/2000/svg" xmlns:ns1="http://sozi.baierouge.fr" xmlns:xlink="http://www.w3.org/1999/xlink" id="svg2" sodipodi:docname="satnav.svg" viewBox="0 0 524.41 372.05" sodipodi:version="0.32" inkscape:output_extension="org.inkscape.output.svg.inkscape" inkscape:version="0.45.1" sodipodi:docbase="/home/sparrow/SVG"><g id="layer1" inkscape:label="Layer 1" inkscape:groupmode="layer"><g id="g4248" transform="matrix(.52972 0 0 .52972 -19.333 -174.63)"><g id="g4241"><rect id="rect2160" style="stroke-linejoin:round;stroke:#3b649b;stroke-linecap:round;stroke-width:24;fill:#ffffff" ry="91.429" height="411.43" width="648.57" y="598.08" x="51.429"></rect><rect id="rect4191" style="stroke-linejoin:round;stroke:#3b649b;stroke-linecap:round;stroke-width:18.65;fill:none" ry="71.665" height="322.49" width="499.64" y="642.54" x="102.75"></rect><g id="g4205" transform="translate(20 297.14)"><rect id="rect4195" style="stroke-linejoin:round;stroke:#3b649b;stroke-linecap:round;stroke-width:7;fill:none" ry="16.405" height="52.667" width="51.133" y="366.69" x="598.72"></rect><path id="path4197" sodipodi:rx="91.428574" sodipodi:ry="91.428574" style="stroke-linejoin:round;stroke:#3b649b;stroke-linecap:round;stroke-width:39.113;fill:none" sodipodi:type="arc" d="m-71.429 240.93a91.429 91.429 0 1 1 -0.094 -4.16l-91.337 4.16z" transform="matrix(0 -.17897 .17897 0 581.17 363.88)" sodipodi:cy="240.93361" sodipodi:cx="-162.85715" sodipodi:end="6.2376442" sodipodi:start="0"></path></g></g><g id="g4235" transform="translate(84,42)"><path id="path4218" sodipodi:nodetypes="cc" style="stroke:#3b649b;stroke-linecap:round;stroke-width:24;fill:none" d="m536.99 378.94c0 108.31 143.61 196.37 281.13 196.37"></path><path id="path4227" sodipodi:nodetypes="cc" style="stroke:#3b649b;stroke-linecap:round;stroke-width:20;fill:none" d="m627.57 325.02c0 88.65 112.66 160.72 220.55 160.72"></path><path id="path4229" sodipodi:nodetypes="cc" style="stroke:#3b649b;stroke-linecap:round;stroke-width:22;fill:none" d="m584.21 350.91c0 106.45 119.77 176.12 250.04 176.12"></path><path id="path4231" sodipodi:nodetypes="cc" style="stroke:#3b649b;stroke-linecap:round;stroke-width:18;fill:none" d="m667.17 301.57c0 78.16 99.34 141.7 194.47 141.7"></path></g></g></g><metadata></metadata></svg> 