<?xml version="1.0" encoding="UTF-8" standalone="no"?> <!-- Generator: Adobe Illustrator 13.0.2, SVG Export Plug-In . SVG Version: 6.00 Build 14948) --> <svg xmlns:rdf="http://www.w3.org/1999/02/22-rdf-syntax-ns#" xmlns="http://www.w3.org/2000/svg" xmlns:cc="http://web.resource.org/cc/" xmlns:xlink="http://www.w3.org/1999/xlink" xmlns:dc="http://purl.org/dc/elements/1.1/" xmlns:svg="http://www.w3.org/2000/svg" xmlns:inkscape="http://www.inkscape.org/namespaces/inkscape" xmlns:sodipodi="http://sodipodi.sourceforge.net/DTD/sodipodi-0.dtd" xmlns:ns1="http://sozi.baierouge.fr" id="Xmas_toys_xA0_Image_1_" style="enable-background:new 0 0 257.801 258.026" xml:space="preserve" viewBox="0 0 257.801 258.026" y="0px" x="0px"> <g> <path style="clip-rule:evenodd;fill-rule:evenodd" d="m216.8 72.468c-0.744 2.898-3.883 0.264-1.39 3.475-3.276-1.203-4.243 0.427-7.644 0.695 1.08-3.316 4.54-4.262 9.03-4.17z"></path> <path style="clip-rule:evenodd;fill-rule:evenodd" d="m227.22 75.248c-1.182-0.255-1.311 0.542-1.39 1.39-1.803-0.745-4.654-0.442-5.559-2.084 0.09-3.242 7.61-2.843 6.95 0.694z"></path> <path style="clip-rule:evenodd;fill-rule:evenodd" d="m112.57 73.164c1.919-0.298 0.652 2.59 2.085 2.779-1.35 2.391-2.84-0.786-2.09-2.779z"></path> <path style="clip-rule:evenodd;fill-rule:evenodd" d="m116.04 75.943c1.98 1.143-0.333 3.77-0.695 4.864-1.8-0.969 0.52-3.597 0.7-4.864z"></path> <path style="clip-rule:evenodd;fill-rule:evenodd" d="m104.23 93.315c2.626 0.153 6.266-0.707 6.254 2.084 0.622 2.243-2.267 0.977-2.779 2.084-2.11-0.432-3.55-1.542-3.47-4.168z"></path> <path style="clip-rule:evenodd;fill-rule:evenodd" d="m118.13 94.01c0.215-0.943 1.74-0.577 2.78-0.695-0.19 1.611-1.86 1.597-2.78 0.695z"></path> <path style="clip-rule:evenodd;fill-rule:evenodd" d="m119.52 100.96c-2.371 0.099-5.865-1.598-4.864-4.169 2.43-2.053 7.39 1.252 4.86 4.169z"></path> <path style="clip-rule:evenodd;fill-rule:evenodd" d="m108.4 103.04c1.929 0.387 4.7-0.067 4.169 2.78-1.39 1.19-3.53-1.09-4.17-2.78z"></path> <path style="clip-rule:evenodd;fill-rule:evenodd" d="m86.86 104.43c2.13 0.682-0.798 1.854-0.695 2.779-2.13-0.68 0.798-1.85 0.695-2.78z"></path> <path style="clip-rule:evenodd;fill-rule:evenodd" d="m106.32 106.52c2.536-0.451 3.701 0.468 4.864 1.39-0.533 2.385-1.923 3.91-4.169 2.78-0.8-0.82-0.79-2.46-0.69-4.17z"></path> <path style="clip-rule:evenodd;fill-rule:evenodd" d="m89.64 141.26h1.39v1.39h-1.39v-1.39z"></path> <path style="clip-rule:evenodd;fill-rule:evenodd" d="m15.288 144.74c-0.047 5.313 1.131 8.893-0.695 13.203-4.002-0.934 0.262-8.155-2.084-11.813-4.22-1.795-7.133 2.188-12.508 1.39v-2.779c3.743-1.24 11.499-0.99 15.287 0z"></path> <path style="clip-rule:evenodd;fill-rule:evenodd" d="m63.929 148.21c-0.086 1.534-2.947 0.295-4.169 0.694 0.014-1.9 3.278-1.65 4.169-0.69z"></path> <path style="clip-rule:evenodd;fill-rule:evenodd" d="m46.557 150.99c0.529 3.772-1.101 5.385-0.695 9.033h-6.254c-1.122-6.31 0.671-12.3 6.949-9.03zm-6.254 7.64h3.474c1.233-1.314 0.506-4.59 0.695-6.948-4.461-0.75-4.264 3.15-4.169 6.95z"></path> <path style="clip-rule:evenodd;fill-rule:evenodd" d="m40.998 165.58c10.132-0.565 19.189 5.76 18.762 17.372-0.811 22.041-33.052 22.207-36.134 3.474-2.096-12.73 5.936-20.2 17.372-20.84zm-13.898 10.42c-5.142 11.563 3.354 22.448 13.203 22.931 10.396 0.51 18.09-7.204 18.067-18.762-3.547-14.61-25.54-17.05-31.27-4.17z"></path> <path style="clip-rule:evenodd;fill-rule:evenodd" d="m17.372 169.06c1.247-0.089 1.466 0.85 2.779 0.694-0.946 1.602-1.218 3.878-4.169 3.475 0.229-1.62 0.835-2.86 1.39-4.16z"></path> <path style="clip-rule:evenodd;fill-rule:evenodd" d="m29.88 205.88c-1.526 2.13-4.451-0.8 0 0z"></path> <path style="clip-rule:evenodd;fill-rule:evenodd" d="m13.203 208.66c5.66 0.363 11.021 1.023 17.372 0.695 0.52 2.141-2.396 0.847-1.39 3.475-0.913-0.246-1.093-1.224-2.085-1.391-3.652 2.603-2.411 10.098-4.864 13.898-4.081-4.132 2.777-10.991 1.39-14.593-3.938-0.464-1.983 4.966-3.475 6.948-1.954 0.102-2.004-1.701-2.084-3.474-0.727-2.76-4.649-2.32-4.864-5.58z"></path> <path style="clip-rule:evenodd;fill-rule:evenodd" d="m85.47 208.66c0.55 2.403-0.772 2.934-1.39 4.17 0.698 2.192 4.748 3.989 6.254 1.39 2.112 1.49-2.448 2.13-2.78 3.474-3.806-4.532-16.396-0.28-17.372-7.644 4.763 4.75 9.126-1.51 15.288-1.39z"></path> <path style="clip-rule:evenodd;fill-rule:evenodd" d="m146.62 213.53c-1.999 1.476-1.284 5.665-4.864 5.56-1.03-2.07 0.9-6.26 4.86-5.56z"></path> <path style="clip-rule:evenodd;fill-rule:evenodd" d="m119.52 229.51c-2.623-1.461-3.849 0.761-4.169 3.475-1.41-0.443-0.458-3.249-2.085-3.475 0.8-1.78 6.74-5.01 6.26 0.01z"></path> <path style="clip-rule:evenodd;fill-rule:evenodd" d="m68.793 230.9c1.123 0.683 1.599 1.854 0.695 2.779-0.943-0.22-0.576-1.74-0.695-2.78z"></path> <path style="clip-rule:evenodd;fill-rule:evenodd" d="m233.48 57.181c-0.702-1.151-2.951-0.755-4.169-1.39 1.738-1.504 5.708-0.777 6.254-3.475-1.105-0.011-3.257-0.774-4.169-2.779 0.668-1.879 1.123-3.972 2.084-5.559 2.74-0.887 1.805 1.901 2.78 2.779 2.304-0.244 1.09-4.005 1.39-6.254-0.574-0.881-2.435-3.962-3.475-2.084-0.879-3.059-4.115-3.76-4.864-6.949 3.696-6.405 4.185-15.442 0-21.542-2.228-0.606-2.173 1.07-2.779 2.085-2.055-1.584-3.734-5.098-6.949-3.475 0.182-2.034-1.571-2.135-1.39-4.169-3.339 0.03 0.837 4.933-2.085 4.169 0.156-4.557-3.005-5.796-7.644-5.559-1.775 0.078-1.379 2.327-1.39 4.169-2.541 0.457-2.665-1.504-4.864-1.39-2.099 0.475-3.848 2.22-4.169 3.474-1.048 4.086 2.939 4.332 3.475 6.949 2.918-0.787 1.965-5.447 5.559-5.559 3.102 7.168-3.775 18.456 4.864 22.236 2.139 0.518 1.336-1.907 3.475-1.39 0.402 2.256-0.474 3.232-0.695 4.864 2.656-0.586 2.671-3.815 2.78-6.949 2.246-0.117 3.636 4.194 4.169 0 0.398 7.555 10.35 4.122 11.812 11.812-2.355 0.152-7.206-6.359-11.118-2.779-0.298-1.323-1.497-1.746-1.39-3.475-2.082 0.466-1.052 4.043-2.779 4.864-2.081-0.457 0.665-1.485 0-2.779-5.002 1.946-7.682 6.215-11.118 9.728 0.68 1.694 6.546 6.76 1.39 7.644 0.157 1 2.074 0.242 2.085 1.39 3.411-4.773 8.987-14.574 14.593-6.254 2.783 4.132 1.553 12.411 3.474 18.067 0.788 2.318 3.641 3.438 3.475 5.559 0.126 1.516-0.568 2.21-2.084 2.084 0.866 4.693 3.535 7.583 8.338 8.338 0 3.475-1.091 5.857-2.779 7.644 3.615 2.714 4.699 4.45 11.118 3.475 3.729-5.768 2.042-16.952 11.118-17.372 0.054 3.528-3.411 3.538-4.864 5.559-4.244 7.204-3.473 20.674 2.085 25.71-7.117-1.269-9.405 9.264-17.372 6.949-0.064 3.539 3.689 3.259 4.169 6.254-0.075 5.484-4.689 6.429-4.169 12.508 2.655 1.977 9.819-0.555 12.508 1.39-1.142 5.729 2.315 18.341-0.695 23.626-2.231-1.485-1.709-8.81-1.39-13.203 0.12-1.656 0.591-3.734 0.695-4.864-6.782 1.102-9.302 15.087-4.864 22.236 0.274-1.062-4.301-2.141-2.78-0.694-2.514-2.391-1.147-5.43-3.474-9.034-1.446 0.407-2.246 1.46-3.475 2.085-1.575 6.389 7.508 12.345 0.694 15.287-0.282-4.581-2.091-7.637-2.779-11.812-5.52 2.124-9.923 5.363-15.287 7.644-0.81 6.585 6.768 11.464 3.475 15.982-3.663-3.055-4.371-9.063-6.254-13.897-6.554 1.553-10.981 5.231-18.067 6.254-0.255 8.13 4.172 11.579 4.864 18.762 5.3 1.417 5.497 7.937 5.56 14.592-0.807 0.583-1.863 0.917-3.475 0.695-1.264 6.823 1.989 18.192 0 25.71 1.479 2.155 4.425-1.986 5.559 0-1.987 2.964-7.438 3.04-11.812 4.17-9.854 2.543-30.621 6.033-38.219-2.085-0.386 13.713 27.046 12.555 41.693 9.729 11.091-2.141 20.775-8.36 27.795-7.644-0.911 2.536-4.797 4.513-7.644 5.559-7.426 2.729-16.25 3.351-25.711 4.864-6.522 1.044-17.221 1.4-25.71 1.39-2.045-4.21-8.892-3.616-11.118-7.644-2.605-7.486-1.449-14.873-4.17-21.541-7.645 3.05-15.397 8.046-24.32 12.508-3.45 1.725-13.277 8.512-17.372 9.033-5.446 0.694-13.083-1.594-19.457-2.085-6.011-0.463-11.62-1.791-18.067-0.694-6.834 1.162-9.158 6.399-18.762 5.559-6.91-0.604-15.305-2.422-21.541-3.475-3.865-0.651-8.488-0.684-11.118-4.169 8.891-0.556 20.934 4.367 31.27 5.56 10.319 1.189 14.771-6.802 20.151-11.813-3.256-1.84-5.802-4.39-6.949-8.339-1.746 1.346 0.816 4.233 0.695 6.254-0.648-0.425-2.563-1.616-2.084 0.695-2.764-4.88-4.387-10.9-6.949-15.982 0.303-1.031 0.889 0.274 2.084 0 0.117-3.39-2.445-0.855-3.475-2.084 1.451 8.74 5.7 14.683 6.949 23.625-3.455-2.734-3.488-8.279-4.864-12.508-1.713-5.262-3.616-10.1-6.254-13.897-1.392 1.489-1.723 3.112-2.085 6.949-0.83-2.645-1.985-4.964-3.474-6.949-3.609-0.176-1.653 4.356-0.695 5.56-2.941 6.896 1.081 17.562 2.779 24.32-7.152 1.627-4.127-10.179-4.864-15.287-0.521-3.613-2.262-10.432-2.084-14.593-3.449 0.99-0.74 3.854-1.39 7.644-1.033-0.588-1.006-2.237-1.39-3.474-3.014 4.865-2.519 16.931-1.39 23.626-4.162 1.569-2.701-4.573-2.779-7.645-0.156-6.102 3.082-15.46 1.39-20.151-7.332 3.787-6.327 15.909-8.338 25.016 0.891 2.787 3.308-2.062 3.474 0 0.098 3.688-4.025 1.322-5.559 0.695 0.312-9.842 5.511-17.85 4.864-26.405 8.623 0.096 19.747 0.177 27.795-0.695 2.473-0.268 6.988 1.6 7.644-2.084-0.089-3.471-2.275 0.209-3.475 0-2.127-0.371-2.541-2.805-7.644-1.391 3.625-2.166 6.64-4.941 5.559-11.812-2.048 2.227-8.747 6.07-6.254 8.339-0.766 0.396-4.841-0.232-6.949 0.694 8.762-4.269 15.122-13.659 12.508-27.1 4.47 6.739 1.051 13.8 2.084 22.235 1.782 4.009 5.269 6.312 6.254 11.118-0.674 1.179-1.92 1.785-4.169 1.39 0.032 7.612 2.471 12.817 5.559 17.372 7.362-3.756 15.83-6.406 22.236-11.118-0.371-9.462 0.338-11.954-0.695-20.151-3.053-4.306-5.972-11.85-5.559-17.372-2.456-2.535-3.965-9.296-2.779-13.202-7.25-2.82-3.914-10.693-4.864-18.067 2.404-3.605 5.176-6.539 4.864-11.118 5.562 0.656 11.732 4.251 16.677 1.39 1.339 1.687-0.944 4.201-1.39 6.254 0.269 2.742 2.825 3.198 4.169 4.864 5.877-0.553 11.254 2.017 18.067-0.694 2.078-3.311-3.822-4.212-2.78-2.779-3.362-4.619 3.171-9.47 0-18.067-2.864 4.085-3.312 10.586-10.423 10.423 0.605-2.921-2.308-2.324-3.475-3.474 0.354 2.062 4.129 5.381 0.695 6.948-2.981-2.577-3.043-8.074-4.864-11.812-2.625 0.154-1.986 3.572-4.169 4.169-4.616-1.175-5.6-5.982-8.339-9.033-5.481 3.852-5.503-4.501-8.338-5.559-0.403-0.15-4.555 1.699-6.254 1.39-2.413-0.439-1.382-1.55-4.169-2.084-5.414 4.314-7.799 11.657-10.423 18.762 0.523 1.793 5.14-0.508 4.864 2.085 0.334 3.345-2.718 3.303-4.864 4.169-1.276 3.055-2.295 9.528-0.695 13.202 3.397-0.308 5.981-1.431 9.728-1.39 0.337-3.348-1.23-4.792-3.474-5.559 0.632-1.887 2.435 0.708 3.474 0.694 0.751-2.028 1.556-4.003 1.39-6.948 2.289-3.227 6.096-5.764 7.644-10.423 0.973-2.929-1.094-6.947 2.084-9.034 2.985 5.773-2.825 16.979-7.644 20.151-2.07 3.609-1.173 9.391-2.085 12.508 2.957 1.908 2.493 7.235 3.475 11.118-1.913 1.924-2.903-0.624-4.864-0.694 0.199 3.234 2.142 3.867 0 6.254-4.805 1.199-7.478-5.397-11.118-7.644-1.736 2.598 2.968 3.692 2.78 6.948-2.437-1.965-4.192-4.609-6.949-6.254 0.194-1.458 1.856 1.007 2.779-0.694-0.592-8.659-1.716-22.722 6.254-25.016-2.127-3.478-6.68-0.589-11.118-2.085-2.656 0.587-2.914 3.571-2.779 6.949-0.117 2.433 2.445 2.188 3.474 3.474-2.251 2.149-1.048 7.754-3.474 9.729 1.243-2.463 0.147-7.265 1.39-9.729-2.282-0.42-9.531-0.441-11.813 1.39 0.029 4.198 0.338 8.677-1.39 11.118 1.541 2.022 2.823 0.273 6.254 0.695-11.001 1.673-24.958 11.02-20.151 27.101 1.664 5.567 9.345 12.825 14.592 13.897 2.892 0.591 7.392 0.025 11.118-0.695-1.778 0.882-3.104 3.046 0.695 2.779-1.691 1.32-5.548 0.475-7.644 1.391-0.701-2.091 1.548-1.231 2.779-1.391-1.442-2.655-4.295-0.993-6.254-1.39-6.181-1.25-10.144-4.863-13.897-8.338v6.254c2.484 1.368 3.708-0.323 6.949 0-0.396 2.846-4.256 2.229-5.559 4.169-1.108-0.514 0.159-3.401-2.084-2.779-2.337-0.021-1.416 3.217-2.78 4.169-2.754-0.256-6.659 0.637-8.338-0.694 0.358-2.422 4.54-1.02 6.949-1.391 3.938-1.39 1.5-9.155 4.169-11.812-6.658-11.001 0.388-25.697 9.033-29.88-2.277-2.005-4.625 1.83-7.644 1.39 2.338-2.526 7.048-2.68 9.729-4.864 1.333-5.6-1.091-8.881-1.39-14.592h-2.779c-1.719 0.974-1.226 2.394-0.695 4.169-6.316 1.79-6.317 9.896-8.339 15.982-3.189-0.025 1.022-1.977 0-4.17-8.331 0.886-12.641 8.145-13.897 16.678-0.526 3.571 1.517 8.132-1.39 11.118-2.5-1.03-1.513-4.806-1.39-6.949 0.225-3.91 2.159-8.387 2.779-11.118 0.529-2.613-3.689-0.479-2.779-3.475 6.451-1.655 8.958-7.256 15.982-8.338 1.266-2.904 1.836-6.503 4.169-8.339-0.953-2.916-1.814-5.057 0-7.644h3.475c-1.566 2.907-3.107 2.358-2.78 6.254 2.194-0.354 1.922-3.174 2.78-4.864 2.672-0.107 4.021-1.538 5.559-2.779-0.708-0.913-0.681-2.562-1.39-3.475-4.771 0.165-11.311 0.647-17.372 0.695-2.37 0.019-6.478 2.136-6.254-1.391 7.78-1.463 16.374-1.109 24.321-1.39 0.97-3.98-1.409-4.613-2.779-6.254 0.765-9.11 19.348-9.155 20.846-0.694-1.22 1.791-3.38 2.642-3.474 5.559 1.118 2.357 4.849 2.1 8.338 2.085 2.486-7.474 5.729-14.19 10.423-19.457-4.306-1.717-4.939-7.105-6.254-11.813 1.711-3.152 3.478-6.25 6.949-7.644 2.82 0.654 2.274 4.674 4.864 5.559 3.445-1.693-0.15-5.618-0.695-7.644 0.477-5.776 4.963-7.544 8.338-10.423 7.28 4.375 9.447-3.035 7.644-10.423 3.571-6.211 11.186-14.824 20.151-11.118 3.215-2.149 6.533-2.836 9.034-4.169 0.943 0.215 0.576 1.74 0.695 2.78 10.045-0.548 10.378 8.615 14.592 13.897-1.023 5.518 0.933 9.827 2.085 13.897 0.421 1.489-1.276 5.906 2.084 4.864-1.685-12.149 14.166-13.658 24.32-12.508 0.571-2.655-3.35-0.819-2.779-3.474 3.137-0.922 5.19-2.986 9.033-1.39 6.243-3.022 12.444-6.085 16.678-11.118 2.78-0.643 5.605-1.038 7.644-2.085 5.912-3.039 7.373-10.124 13.202-13.203-0.712-4.186 1.557-5.393 2.78-7.644-6.617-2.257-6.867-11.944-6.949-18.762-0.669-2.522 3.122-0.583 2.779-2.78-0.604-2.639-5.888-0.598-7.644-2.084-0.596-4.268-3.63-6.098-2.779-11.813 3.201-3.052 5.607-6.9 12.508-6.254 2.115 0.031 2.702-1.467 4.169-2.084 8.686-1.273 10.922 3.902 18.067 4.169 1.593 2.112 3.379 4.032 4.864 6.254 1.663-0.884 2.559-2.538 5.559-2.085 0.4 1.453 1.723 1.983 1.39 4.169 2.568 0.443 6.922-0.9 8.339 0.695 2.771-2.326 1.996-8.195 8.339-6.949 0.624 1.229 1.677 2.028 2.084 3.474-10.319 17.244-17.957 37.17-24.32 58.37-0.354 3.364 3.185 2.838 2.084 6.949-4.42-4.265-4.93-12.636-1.4-18.127zm-167.47 163.99c0.708-2.163-1.438-4.959-2.085-3.475 1.41 0.44 0.458 3.25 2.085 3.47zm186.23-209.85h2.085c-0.158-1.231 0.7-3.48-1.39-2.78-0.21 0.94-0.98 1.328-0.69 2.78zm-17.37 1.39h1.391c-0.003-0.697 0.562-0.827 0.694-1.39-0.889-0.039-0.962-0.891-2.085-0.695 0.01 0.695 0.01 1.39 0.01 2.085zm-0.7 2.779c0.952 3.414 0.952 8.399 0 11.813 2.795-0.478 3.967 0.666 6.254 0.695 1.694-4.791 4.457-8.514 6.254-13.203-4.93-0.538-7.74 1.051-12.5 0.695zm12.51 2.085c-2.24 7.596-7.603 15.413-8.339 22.236 3.353-2.464 5.213-7.667 6.949-11.813 1.55-3.703 2.252-7.244 4.169-10.423h-2.78zm-45.86 12.508c-0.688 8.781 10.203 15.221 11.118 4.864-5.256-1.229-8.006-4.965-8.339-11.118 0.88 2.517-2.53 3.068-2.78 6.254zm31.27 3.474c1.71 1.301 3.85 2.173 5.56 3.475 0.688-1.859 1.432-3.664 1.39-6.254-1.726-0.822-4.09-1.006-6.254-1.39-0.81 0.821-0.79 2.456-0.7 4.169zm5.56 14.593h-4.17c-0.76 3.875 4.02 1.433 4.17 0zm-31.97 34.744c4.691 0.29 4.343-4.459 9.033-4.169-2.477 4.704-8.929 5.433-14.592 6.949-0.305 2.389 0.274 3.895 0.694 5.559 6.146-0.838 15.898 4.54 23.626 3.475 4.755-0.655 7.094-4.224 9.729-7.644-1.601-3.958-8.084-3.035-11.118-5.559-2.164 1.557-6.869 3.75-6.949-1.39 3.602 1.401 3.702 0.844 6.949-0.695 2.115 0.664 2.796 2.763 6.254 2.084-1.299-6.157 0.415-6.857-2.085-11.813-11.55-4.389-21.84-0.547-21.54 13.203zm6.95-18.067c3.908 1.713 9.991 1.922 14.592 1.39-1.244-6.862-2.663-13.55-6.948-17.372-7.634 2.327-8.396 11.524-10.424 19.457 0.154 0.542 0.582 0.808 1.391 0.695 0.97-0.89 0.43-3.282 1.39-4.17zm-11.81 6.254c0.533 1.592 2.769 5.053 0.695 6.949-1.612-1.167 0.667-6.226-2.779-5.559-1.875 1.971 2.736 5.217-0.695 6.949-2.046-1.197-1.972-4.514-6.254-3.475 1.182 4.817-0.26 5.938-1.39 9.729 1.964 0.574 1.8-0.979 3.475-0.695-1.293 1.454-1.801 2.612-2.085 3.475-2.688 0.372-3.393-1.24-6.254-0.695-0.938 5.107 3.006 5.333 4.169 8.338 1.665-0.42 3.171-0.999 5.56-0.695 0.353-2.195 2.045-3.05 2.084-5.559-2.488 0.404-2.112-2.057-2.084-4.169 2.892-1.046 5.447-2.428 8.338-3.475 1.16-3.884 0.633-9.298 1.391-11.813h2.779c0.068-4.564 1.19-8.074 2.084-11.813-3.106-0.136-4.31-2.176-6.254-3.474-2.996 6.175-9.967 10.824-8.338 19.457 4.877-2.303 6.791-7.57 11.118-10.423-0.18 4.005-3.53 4.828-5.58 6.948zm-94.5-4.169c-9.376-1.91-17.575 6.29-16.68 14.592 2.374 0.521 0.883-2.823 3.474-2.084 0.962 5.015-4.284 9.529-9.728 10.423-1.205-1.948-1.821-0.653-4.169-0.695-1.534 1.246-1.696 3.863-2.78 5.559-1.229-0.61-2.028-2.203-3.474-0.695 1.896 3.905 5.931 12.369-3.475 11.118-0.617-1.467-2.115-2.054-2.084-4.169-4.871 0.419-2.715 4.159-2.084 7.644-1.191 0.119-2.732-3.94-2.78-0.695 0.379 2.401 4.341 1.219 4.864 3.475h-2.779c1.221 2.414 0.606 2.638 1.39 4.864 6.891 1.333 7.905-3.213 12.508-4.169 0.039 3.977-4.037 3.838-5.559 6.254 4.294 3.483 12.377-3.123 11.813-8.339-1.01-0.38-3.592 0.812-3.475-0.695 3.659-0.527 8.415-2.027 7.644-4.864 4.377 0.439 6.617-1.259 6.949-4.864-5.191-0.688-10.044 4.704-13.898 7.644-0.101-4.502 4.564-4.238 6.254-6.949-0.817-0.109-1.972 0.12-2.084-0.695 4.233-0.727 6.352-7.123 9.729-2.78 5.468-2.269 0.818-16.885 9.728-14.592-0.666 2.114-4.152 1.407-3.474 4.864 5.914 0.586 7.84-2.814 11.813-4.169 0.119 1.191-3.941 2.732-0.695 2.78 3.131-2.66 7.167-4.415 7.644-9.729-3.179-0.229-1.476-10.284-5.559-11.813-4.86-0.913-5.57 2.306-9.02 2.794zm55.59 12.507c-1.524 1.607 1.781 2.302 0.695 5.559 2.26 0.056 3.743 0.889 4.169 2.78-4.762-1.152-14.416-5.428-22.236-2.78-3.426 1.161-7.245 4.697-7.644 8.339 4.29 0.584 4.236-3.176 6.949-4.169 6.978-3.751 17.64-1.732 23.626 1.39 2.503-6.342 5.47-14.79 12.508-13.203 4.944 1.116 2.302 8.495 8.338 9.729 0.002-4.627 1.637-4.515 0.695-9.034 4.034-1.988 3.833-8.211 5.559-12.508-12.59 2.532-19.34 14.427-32.67 13.897zm-41-8.338c1.04 0.119 2.564-0.248 2.779 0.695-2.865 8.64-3.995 19.092 2.78 25.016-4.145 0.255-2.692 6.344 0.695 6.254 3.746-3.293 6.373-15.2 0-15.287 1.795-1.87 3.786-9.52 0.695-11.813-0.765 2.015-0.86 4.699-3.475 4.864 3.85-4.547 2.235-16.725-4.864-13.897 1.21 0.642 1.53 2.175 1.39 4.172zm62.54 18.067c-0.068-2.027-1.653-1.014-2.084-3.474 0.08 0.458 1.49-0.884 1.39-2.085-0.016-0.184-1.363-1.047-0.695-2.084-2.177-0.371-2.233-2.862-5.559-2.084-1.47 1.371-2.534 3.689-3.475 4.864-3.314 4.139-4.17 10.128-3.475 18.762 8.56 8.46 14.24-4.126 13.91-13.894zm-84.777 7.643c-0.704 1.375-0.153 3.146-0.695 4.169-1.206 2.278-3.475 2.788-3.475 5.559 0 6.115 7.218 9.62 13.203 9.033 6.784-0.665 13.741-9.913 14.592-14.592 0.948-5.214-1.875-6.878-2.084-14.592-5.878 2.57-12.325 0.956-19.457 2.779 1.03 4.985-1.169 5.849-2.087 7.642zm52.807-8.338c-1.421 2.604 0.818 7.501 0.694 11.118 2.575 0.417 4.029 1.144 5.56-0.695 0.16-2.708-1.493-3.603-2.085-5.559 0.647-1.669 2.793-1.84 2.085-4.864-2.36-1.093-4.38-0.54-6.24 0zm-9.03 3.474c-3.148 1.716-4.572 5.156-9.729 4.864 0.073 3.788-5.979 5.599-4.169 9.729 1.771 4.042 5.839 7.348 5.559 11.813-0.249 3.959-2.531 6.757-8.339 9.728-2.125 0.504-2.044-1.199-4.169-0.695 1.861 7.302-2.25 13.239 1.39 18.762 3.883-0.408 5.356 1.593 9.033 1.39 2.804-7.851 8.211-13.099 7.644-24.32 1.603-0.213 0.772 2.007 2.085 2.084 0.95-4.193-2.081-4.405-4.169-5.559-0.274 1.195 1.031 1.781 0 2.084-2.534-4.396 1.055-8.034 3.474-9.728-5.507-2.724-5.012-17.217 4.17-15.288 0.17-2.681-0.72-4.342-2.76-4.847zm5.56 18.065c2.611-4.334 3.757-17.595-0.695-20.846-1.313-0.156-1.532 0.783-2.779 0.695 1.86 5.723 4.45 13.841 3.47 20.151zm11.12-19.455c-2.145 2.824 1.821 4.342 1.39 7.644-0.635 3.766-5.904 2.897-8.339 4.864 1.371 15.678 22.09 12.044 35.439 9.729-3.418-1.215-6.163-3.102-7.644-6.254-3.491-0.48-3.23 2.792-6.949 2.084-5.892-1.587-7.572-9.28-5.559-16.677-3.08 0.012-5.08-3.793-8.34-1.388zm66.71 6.949c-4.709 0.33-9.645-2.113-15.287-0.695-1.215-0.821-1.738-1.532-3.475-2.084-5.013-1.596-10.391-0.405-11.812 4.169-1.314 0.156-1.533-0.783-2.779-0.695-0.381 1.01 0.812 3.591-0.695 3.474-3.709-0.692-3.914-4.888-7.644-5.559 0.462 4.399-2.506 5.37-2.779 9.034 2.28 2.352 3.513 5.751 8.338 5.559 1.536-1.042 4.408-4.354 6.949-2.085-0.561 2.348-4.241-0.543-4.169 3.475 10.04-1.594 4.431 9.914 4.863 13.203 3.062 0.891 2.847-3.325 4.864-1.39 0.315 3.558-3.373 3.112-4.864 4.864 0.588 1.498 4.43-0.26 4.864 1.39 0.445 5.173-3.761 0.79-4.864 2.085 0.182 2.136 1.508 3.125 2.085 4.864-2.332 0.216-2.771 2.324-3.475 4.169 5.945-1.698 12.705-2.582 17.372-5.559 6.861 2.53 15.851-3.121 22.932 2.084 0.604-1.596-1.642-4.498 0-7.644-1.726-0.903-2.884 2.039-3.475 0-0.657-3.899 3.628-2.857 5.559-4.169-0.871-2.115-0.53-2.702 0.695-4.169-1.473-3.16-5.265-4.001-4.864-9.033 0.697 0.002 0.827-0.563 1.39-0.695 6.316 2.792 12.665-0.688 13.897-6.949-0.96-2.986-3.209-1.526-4.169-3.475-0.027-2.29 0.284-4.917-2.085-4.864 0.156 2.473-0.469 4.164-2.085 4.864-0.653-3.284-2.994-4.88-4.169-7.644-5.97 0.45-7.93 0.601-11.13 3.488zm-82 16.676c3.654-3.772 2.624-14.424-2.085-15.982-3.2 5.052-1.2 13.922 2.08 15.982zm-17.37 0.7c-0.265-3.21-3.469-3.48-4.169-6.254-2.435 0.576-3.252 2.77-4.169 4.864 1.657 0.891 3.766 1.331 4.169 3.475-1.128 3.272-4.69 4.111-4.169 9.033 3.591 0.812 0.728-4.831 3.475-4.864 2.07 0.014 0.891 3.278 2.084 4.169 6.586 0.564 6.439-5.605 7.644-10.423-3.189-2.602-4.116-7.465-6.254-11.118h-2.084c-1.22 5.64 5.53 6.96 3.48 11.12zm-36.83-6.26c-6.011 1.516-3.381 7.615-5.559 13.203 5.948 4.08 9.423-3.81 11.813-7.644-1.869-2.07-3.968-3.91-6.254-5.56zm58.37 5.56c1.362 1.285 7.794 1.965 8.339-1.39-2.96-0.607-4.135-0.426-6.254-2.78-0.67 1.42-1.43 2.75-2.09 4.17zm46.56 0c-15.735 2.927-32.411 2.286-46.557 2.084-2.973-0.042-6.209-2.48-8.339 1.39 0.069 2.955 3.643 3.127 5.56 3.474 12.004 2.171 28.294-0.235 39.607-1.39 3.023-0.309 7.535-1.979 9.729 0.695-11.229 2.401-28.817 2.254-41.692 2.78-0.929 3.24-3.062 5.277-2.779 9.729 14.71 0.392 28.371-2.033 45.861-2.085-3.45-5.71 3.34-11.93-1.39-16.66zm-98.676 16.68c5.012-1.474 3.688-9.282 5.559-13.897-6.056-3.82-15.36 11.46-5.556 13.9zm6.946-13.2c0.539 2.704 3.247 3.238 3.474 6.254-0.896 1.883-1.7 3.858-1.39 6.949 1.073 2.401 3.679 3.27 5.559 4.864 7.277-2.22 6.138-12.855 8.338-20.152-5.64 0.38-10.73 1.31-15.98 2.09zm0.7 13.2c-1.064-3.038 2.848-7.319-0.695-8.339-1.1 1.78-1.29 7.45 0.7 8.34zm30.57 17.37c1.502 0.582 2.37 1.799 4.864 1.39 1.051-2.411 1.706-3.148 4.864-2.085-0.674-10.633 4.352-15.567 5.559-24.32-2.193 0.34-2.454-1.252-4.864-0.695-2.69 9.35-5.18 18.91-10.42 25.71zm-102.15-18.76c4.858-1.236 13.053-0.199 16.677-0.695-3.019-3.78-14.419-3.99-16.677 0.69zm2.78 1.39c1.186 5.344-0.555 9.593-0.695 16.677h11.812c0.595-5.334-0.547-11.39 0.695-17.372-2.249-0.19-8.765-0.45-11.812 0.69zm109.8 71.57c-0.206-1.827 2.696-0.547 2.085-2.779-0.58-4.611-4.149-8.83-2.779-13.203-4.667-2.977-6.933-8.354-8.339-14.592 0.896-2.579 2.921-4.027 2.779-7.644 6.125-1.519 11.562-3.726 13.897-9.034-2.458-0.611-3.58 1.785-4.169-0.694 4.069 0.032 5.686-1.215 8.339 0.694 7.143-2.354 11.767-7.226 20.846-7.644 3.087-3.868 5.518-12.078 12.508-9.729-4.629 0.467-5.727 4.465-7.644 7.645 4.254 0.316 4.522-3.354 6.949-4.864 3.09 0.311 5.064-0.494 6.948-1.39-1.158-2.249-1.016-1.483-0.694-4.864-1.294-0.665-2.322 2.081-2.779 0-0.222-1.843 3.893 0.649 2.779-2.085-3.124-0.443-5.934 1.897-8.339 0 0.117 1.507-2.465 0.314-3.475 0.695-7.362 1.187 5.99-0.093 6.949 1.39-16.169 1.258-30.242 1.584-42.388 2.084-1.79 4.695-2.751 10.221-4.169 15.288 1.406 3.018 2.582 7.486-1.39 9.033 1.167-5.021-1.168-5.842 0-9.729-2.597-0.743-1.981 1.726-4.17 1.39-10.244-8.605-22.02 4.061-31.964-1.39 4.937 10.972 0.905 26.632-10.423 27.795 0.477 2.33-1.166 2.54-2.78 2.78-2.342 0.171-2.015-4.157-4.169-2.085 2.164 6.869 2.525 15.541 10.423 16.677-0.194-1.584 0.167-2.612 1.39-2.779 1.801 2.108 2.583 0.711 4.864 0 0.205 1.417 1.88 1.362 2.085 2.779-3.371 11.08 6.288 27.099-3.475 32.659 2.228-7.2 5.204-14.755 0.695-21.541 1.052-1.959 1.679-4.344 1.39-7.644-2.452-0.096-3.107-1.988-5.559-2.085-2.566 6.042 1.889 11.881-2.779 16.678 3.138-0.337 4.729-2.221 7.644-2.78-1.637 3.228-6.837 2.892-8.338 6.254 1.764 2.636 1.138 7.897-1.39 6.949 1.586-3.042-0.053-6.205 0-9.729 4.428-3.554 1.153-11.117 3.474-15.982-2.018-0.53-1.802-3.293-4.864-2.779-0.862 5.832 1.403 11.867 1.39 15.982-0.012 3.791-2.517 7.046-3.475 11.118-0.416 1.768 1.667 5.741-2.084 6.254 1.136-3.88-0.593-6.502 1.39-9.729-4.134 1.193-7.733 2.922-10.423 5.56 1.843 0.01 4.092-0.386 4.169 1.39-5.242-1.536-2.124 5.288-6.949 4.169-0.41-2.494 0.808-3.361 1.39-4.864-3.312-0.069-3.804 2.682-6.949 2.779-0.142 2.227 3.036 1.134 2.779 3.475-0.393 1.446-1.985 2.246-0.695 3.475 15.082-0.582 25.738 2.455 38.218 3.475-1.997-0.145-3.53 0.176-4.169 1.39 3.79 0.623 5.583-1.52 5.559-2.779 4.377-0.161 8.866-6.657 15.287-4.864 4.374-7.208 13.63-9.532 20.846-13.897 0.402-5.498-3.071-7.121-4.169-11.118-3.857 0.312-9.515-1.177-10.423 2.084-0.081-1.772-0.131-3.575-2.084-3.474-1.294 4.992 1.448 9.754-2.085 12.508 0.31-3.583-0.435-5.369-0.695-11.118h-4.169v5.559c-4.603-1.591-1.022 5-4.169 4.864-0.381-6.437 4.94-10.604 4.864-18.762-4.277-0.348-3.126 6.079-4.169 9.033-0.373 1.057-1.796 1.941-2.084 2.779-0.569 1.652 0.48 5.18-2.085 5.56 0.419-8.694 6.648-13.748 1.39-22.236-6.745 0.048-10.419 6.619-8.339 13.203 2.807 0.001 5.881-3.349 8.339-1.39-2.418 1.52-5.547 2.328-8.339 3.474-0.27 2.818 4.601 0.495 3.475 4.17-1.625-0.215-2.871-1.36-4.169 0 0.721 5.188 3.082 11.903-2.084 13.202 3.423-12.46-2.353-21.572 2.779-33.354 3.128 2.624 4.528-4.423 6.949-0.695 1.038-0.815 0.819-2.888 2.78-2.779 0.918 0.008 0.635 1.218 1.39 1.39 1.189-0.664 1.4-2.307 2.78-2.779 2.862 2.377 5.325 1.05 6.949 0.694-1.652 1.044-1.854 6.721 0 9.033 1.759-0.788 3.94-1.155 4.864-2.779-3.092-2.473-0.025-10.603 2.085-9.729-2.938 3.293-1.32 5.879-0.695 10.424-3.507 1.572-2.897 7.053-1.39 10.423 2.579-0.432 7.152 1.13 7.644-1.39-1.04-0.6-1.5-1.75-1.39-3.48zm-16.68 4.17h4.169c0.033-4.71 1.292-7.159-2.084-9.034-1.66 2.05-2.09 5.32-2.09 9.03zm18.76 0.7c2.604 0.483 1.693-5.258-0.695-4.169-0.5 2.12 0.72 2.53 0.7 4.17zm33.35-38.22c6.806-1.894 13.586-3.842 20.151-6.254 5.982-2.199 11.202-5.819 17.372-9.034 7.859-4.096 18.382-7.443 16.677-15.982-22.639 0.55-46.465 5.864-63.234 14.593-5.596-0.268-12.256 3.788-16.677 6.949-8.134 1.363-12.179 6.814-15.982 12.508 1.782 1.461 4.372 2.113 6.949 2.779 0.875-1.673 1.402-3.693 2.779-4.864 16.049-10.059 37.268-15.845 57.675-20.847 6.614-1.621 14.547-4.877 21.541-2.084-19.461 1.689-41.214 8.428-56.979 14.592-3.085 1.206-6.645 1.519-9.033 2.78-3.2 1.689-5.667 4.206-7.645 4.864-3.468 1.153-4.548 3.156-6.254 5.559 12.65 0.78 21.39-2.44 32.66-5.57zm59.76-15.29c0.593-3.194 2.905-4.021 1.39-7.644 3.077-1.787 4.686-5.043 5.56-9.033-2.539-0.472-5.053-0.97-8.339-0.695-0.9 3.448 4.115 0.981 4.864 2.78-0.474 3.695-3.887 4.451-4.864 7.644-1.115-1.201-0.336-4.296-2.084-4.864-1.378 1.401-2.768 2.791-4.17 4.169 0.385 2.858 1.991 4.494 2.085 7.644 3.422-0.283 2.825-4.587 5.559-5.559 1.27 3.31-3.05 4.58-0.01 5.56zm-157.73-5.56c1.908 3.363-1.781 4.477-1.39 8.338 3.105 1.064 2.909 5.43 6.949 5.56 0.603-2.707 0.016-4.028 4.169-2.779 0.533-2.247 1.923-3.637 4.169-4.17-0.274 5.054-5.083 5.572-6.949 9.034 1.411 2.06 2.012 6.261 0.695 9.033 11.085 4.855 16.184-15.765 11.812-24.321-3.583 0.109-4.795-2.152-6.254-4.169-0.74 2.753-1.795 8.834-5.559 6.254-0.017-3.285 6.398-2.974 3.474-6.949-2.268-0.35-1.473 3.456-3.474 1.391 0.967-2.045 3.393-2.63 3.474-5.56-3.176-3.12-4 0.653-7.644 0.695-0.662 2.36-3.287 5.793-0.695 5.559-1.335 0.29-0.545 2.7-2.776 2.09zm15.982-4.86c0.298-1.323 1.497-1.746 1.39-3.475-3.008-1.07-3.75 3.17-1.39 3.47zm116.04 14.59c0.568 2.211 0.443 5.115 1.39 6.948 7.317-1.484 11.271-6.331 17.372-9.033-0.463-2.78-1.724-4.762-2.779-6.949-5.48 2.85-9.96 6.71-15.98 9.03zm-118.82 18.76c10.232-0.688 12.777-12.658 10.423-23.626-0.153-0.542-0.582-0.809-1.39-0.695 0.58 11.7-2.65 19.59-9.032 24.32zm-34.049-20.15c-4.989 4.922 0.352 13.378 5.559 14.593 1.725-3.375-1.354-4.343 0-7.644 2.124 0.502 2.532-0.71 4.169-0.694 0.599-5.93-6.036-4.63-9.728-6.26zm132.03 11.12c-0.641 3.189 1.738 3.357 1.39 6.254 6.994-1.808 13.047-4.557 18.762-7.644-0.544-2.234-0.953-4.605-2.084-6.254-6.61 1.96-11.81 5.33-18.07 7.64zm-106.32 3.47c0.888-0.038 0.962-0.891 2.084-0.694-0.119-1.966 0.598-4.768-1.39-4.864-1.121 2.023-0.362 3.445 0 4.864-0.738-0.03-1.764 0.32-0.694 0.69zm84.78 2.09c-0.507 3.286 0.991 4.567 2.085 6.254 7.115-0.296 12.134-2.69 18.066-4.169-0.149-3.094-0.164-6.322-2.779-6.949-5.46 1.96-11.55 3.28-17.37 4.87zm-83.39 4.17c2.113 0.028 4.574 0.404 4.169-2.084-3.842 0.599-2.704-3.782-6.254-3.475-0.16 2.7 1.493 3.6 2.085 5.56zm65.32-1.4c0.261 2.75 0.977 5.046 2.085 6.949 2.889-1.07 9.603-1.167 14.593-2.085 1.05-10.72-9.45-4.72-16.68-4.86zm-15.29-0.69c0.887 6.293 6.243 8.118 13.897 7.644-0.033-2.979-0.748-5.274-2.084-6.949-3.43 1.32-8.8-1.84-11.82-0.69zm54.2 1.39c-5.695 2.18-12.251 3.5-18.067 5.559 0.824 7.052 3.968 11.782 4.864 18.762 3.309 0.861 5.344 2.994 6.949 5.56-0.151 2.541-0.955 2.665 0 4.863 4.154 7.427 7.972 15.191 13.897 20.847-0.22-12.057 0.592-25.145-4.17-32.659 0.5-1.816 2.503-2.13 2.78-4.169-2.7-5.63-3.56-13.11-6.25-18.76zm-100.06 2.78c0.697-0.002 0.827 0.562 1.39 0.694-0.066-1.092 0.093-2.409-1.39-2.084v1.39zm65.321 5.56c2.04 7.92 3.033 16.887 9.729 20.151v9.034c4.442 6.443 7.292 14.479 12.508 20.151 0.309-9.478 0.882-20.951-4.17-27.101 2.681-8.196-2.775-16.665-4.864-24.32-5.08 0.03-8.66 1.55-13.21 2.09zm6.95 28.49c2.416-1.925 1.832-8.604-1.39-9.033-4.37 1.82-2.37 7.89 1.39 9.03zm-6.26-6.25c1.061-1.256 2.505-2.128 2.085-4.864-3.506-5.063-3.183-13.958-7.644-18.066h-7.644c2.85 7.341 3.321 17.062 6.948 23.626-1.561 0.292-0.019 3.687-1.39 4.169 4.996 6.449 5.257 13.332 9.033 20.847-0.69-7.61 5.05-20.4-1.4-25.72zm-35.44-13.9c0.164 3.078 1.523 4.962 4.169 5.559 0.458-2.089 2.67-2.425 2.084-5.559-1.54-1.47-3.34 0.73-6.25 0zm75.05 5.56c0.464 4.169 2.234 7.031 6.254 7.645 0.501-3.401 0.202-5.606-0.695-9.034-2.55-0.23-3.86 0.77-5.56 1.39zm-14.59 14.59c1.398-4.012 1.517-11.33-4.169-10.423-3.33 3.63 0.33 9.61 4.17 10.42zm-120.22 0c-0.38-1.01 0.812-3.592-0.695-3.475-1.101 1.03-0.512 2.84 0.695 3.47zm120.91 26.4c4.84-0.95 9.578-2.003 14.593-2.779-1.581-3.891-4.664-7.127-6.949-10.423-2.493-3.597-4.568-7.359-7.644-10.424h-2.085c0.7 7.99 1.83 17.25 2.08 23.62zm-20.15-22.23c-1.246 5.624-0.765 15.377-0.695 20.152 4.912 1.371 11.236 2.544 15.287 2.779 0.406-3.972-3.327-7.372-5.559-11.118-2.299-3.858-3.704-8.985-6.949-11.813h-2.09zm-67.402 20.84c-1.44 0.413-4.565-0.858-4.864 0.695 2.472-0.59 4.164 2.01 4.864-0.7z"></path> <path style="clip-rule:evenodd;fill-rule:evenodd" d="m88.25 144.74c1.792 0.167-0.954 1.195 0 2.779-1.729-0.11-0.204-2.36 0-2.78z"></path> <path style="clip-rule:evenodd;fill-rule:evenodd" d="m49.336 163.5c-6.072 1.41-4.747-1.78 0 0z"></path> <path style="clip-rule:evenodd;fill-rule:evenodd" d="m46.557 179.48c1.056 4.056 0.246 6.771-2.085 9.033-13.434 1.89-5.87-17.27 2.085-9.03zm-5.559 2.08c1.831 0.209 2.28-0.963 2.084-2.78-2.874-0.18-2.795 0.83-2.084 2.78zm-0.695 3.48c1.127 4.836 5.969-0.321 4.864-4.169-3.979 1.44 0.02 5.15-4.864 4.17zm-1.39-4.17c-0.955 0.892-1.209 4.155 0.695 4.169 0.154-0.541 0.582-0.808 1.39-0.694 0.33-2.19-0.867-2.85-2.085-3.48z"></path> <path style="clip-rule:evenodd;fill-rule:evenodd" d="m137.59 211.44c-0.974-0.834-0.061-0.271 0.694 0 0.094 2.915-1.263 3.882 0 6.254-3.6-1.27-0.28-2.72-0.69-6.25z"></path> <path style="clip-rule:evenodd;fill-rule:evenodd" d="m54.896 219.78c-2.307 0.226 1.83 3.031-0.695 3.475-2.766 0.218-1.058-4.038-2.78-4.864 0.622-1.231 2.821-0.886 2.085-3.475 2.229 4.479 5.243 11.64 6.949 17.372 0.884 2.974 1.999 6.413 0.695 8.339-0.559-0.368-1.128-0.726-2.084-0.695-0.45-6.035-4.894-8.077-4.169-15.287h2.084c-1.736-1.83-0.463-2.64-2.085-4.87z"></path> <path style="clip-rule:evenodd;fill-rule:evenodd" d="m27.1 220.48c0.172 0.545 0.057 12.46-4.169 13.202 0.871-4.92 3.628-7.95 4.169-13.2z"></path> <path style="clip-rule:evenodd;fill-rule:evenodd" d="m48.642 222.56c0.812 2.344 4.218 7.045 4.864 11.813 0.425 3.134 2 8.089-2.78 6.948 5.332-4.94-1.432-13.14-2.084-18.76z"></path> <path style="clip-rule:evenodd;fill-rule:evenodd" d="m41.693 235.07c2.019 0.969-0.197 3.43-0.695 4.17-1.681-0.63 1.575-2.05 0.695-4.17z"></path> <path style="clip-rule:evenodd;fill-rule:evenodd" d="m157.04 254.53c-1.816 2.518-5.14 0.771-7.644 0.694-4.904-0.147-14.515 3.119-22.236 2.78-1.653-0.073-3.087-1.074-4.864-1.39-9.901-1.759-21.61-0.379-32.659 0-22.037 0.755-43.335-0.783-61.844 0.694 3.6-8.388 15.533-2.354 22.236-2.779 2.531-0.161 4.871-1.879 7.644-2.085 3.665-0.272 7.677 1.833 11.813 2.085 9.462 0.577 19.982-2.438 28.49-2.085 3.886 0.161 6.9 0.74 11.813 0.695 7.193-0.066 15.385 1.168 22.236 0.694 1.984-0.137 3.676-1.327 5.56-1.39 1.976-0.065 4.157 0.653 6.254 0.695 4.2 0.08 10.34-3.16 13.2 1.39zm-32.66 1.39c5.48 1.77 5.61-2.56 0 0z"></path> </g> <metadata></metadata></svg> 