<?xml version="1.0" encoding="UTF-8" standalone="no"?> <!-- Generator: Adobe Illustrator 13.0.2, SVG Export Plug-In . SVG Version: 6.00 Build 14948) --> <svg xmlns:rdf="http://www.w3.org/1999/02/22-rdf-syntax-ns#" xmlns="http://www.w3.org/2000/svg" xmlns:cc="http://web.resource.org/cc/" xmlns:xlink="http://www.w3.org/1999/xlink" xmlns:dc="http://purl.org/dc/elements/1.1/" xmlns:svg="http://www.w3.org/2000/svg" xmlns:inkscape="http://www.inkscape.org/namespaces/inkscape" xmlns:sodipodi="http://sodipodi.sourceforge.net/DTD/sodipodi-0.dtd" xmlns:ns1="http://sozi.baierouge.fr" id="santa_xA0_Image_1_" style="enable-background:new 0 0 137.28 121.92" xml:space="preserve" viewBox="0 0 137.28 121.92" y="0px" x="0px"> <g> <path style="clip-rule:evenodd;fill-rule:evenodd" d="m71.04 8.88c0.698 0.004 0.567 1.356 0.24 1.68-0.367-0.334-0.682-1.242-0.24-1.68z"></path> <path style="clip-rule:evenodd;fill-rule:evenodd" d="m72.48 8.88c-0.278 1.173 1.287 1.468 2.4 1.92-1.307 0.925-3.391-0.528-2.4-1.92z"></path> <path style="clip-rule:evenodd;fill-rule:evenodd" d="m64.8 9.12h0.48c-0.044 0.204 0.094 0.226 0.24 0.24v0.48c-0.204-0.044-0.227 0.094-0.24 0.24h-0.48c0.044-0.204-0.093-0.227-0.24-0.24v-0.48c0.204 0.044 0.227-0.093 0.24-0.24z"></path> <path style="clip-rule:evenodd;fill-rule:evenodd" d="m63.36 9.36c0.388-0.067 0.413 0.227 0.72 0.24-0.046 0.194-0.241 0.239-0.24 0.48h-0.48v-0.72z"></path> <path style="clip-rule:evenodd;fill-rule:evenodd" d="m66 9.36c0.914-0.179 0.519 1.554-0.24 1.2-0.076-0.557 0.038-0.921 0.24-1.2z"></path> <path style="clip-rule:evenodd;fill-rule:evenodd" d="m68.88 9.6c0.371-0.734 0.211 1.041 0.24 1.44-0.371 0.733-0.211-1.041-0.24-1.44z"></path> <path style="clip-rule:evenodd;fill-rule:evenodd" d="m68.4 10.08c0.077 0.557-0.039 0.921-0.24 1.2-0.352-0.208-0.761-0.359-0.72-0.96 0.214-0.186 0.542-0.258 0.96-0.24z"></path> <path style="clip-rule:evenodd;fill-rule:evenodd" d="m72.48 10.8c-0.036 0.827-1.076 1.444-1.68 0.96 0.128-0.92 0.936-1.303 1.68-0.96z"></path> <path style="clip-rule:evenodd;fill-rule:evenodd" d="m87.84 11.28c0.61 0.029 0.931 0.35 0.96 0.96-1.074-0.034-0.69 1.39-1.2 1.92-1.423-0.721-0.169-1.992 0.24-2.88z"></path> <path style="clip-rule:evenodd;fill-rule:evenodd" d="m73.44 12.48c-0.502 0.102-0.636-0.165-0.96-0.24 0.127-0.193 0.25-0.39 0.24-0.72 0.632-0.072 0.787 0.333 0.72 0.96z"></path> <path style="clip-rule:evenodd;fill-rule:evenodd" d="m75.12 12h0.721c0.466 0.913-0.457 1.775 1.199 1.2 0.268 1.227-1.036 0.884-1.68 1.2 0.168-1.048-0.408-1.352-0.24-2.4z"></path> <path style="clip-rule:evenodd;fill-rule:evenodd" d="m74.4 12.24c0.072 0.632-0.332 0.788-0.96 0.72-0.072-0.632 0.332-0.788 0.96-0.72z"></path> <path style="clip-rule:evenodd;fill-rule:evenodd" d="m77.76 12.24c0.61 0.024 0.566 0.894 0.239 1.2-0.351-0.208-0.76-0.359-0.72-0.96 0.28 0.039 0.428-0.053 0.481-0.24z"></path> <path style="clip-rule:evenodd;fill-rule:evenodd" d="m61.92 12.48c0.388-0.067 0.413 0.227 0.72 0.24 0.095 0.466-1.093 0.351-0.72-0.24z"></path> <path style="clip-rule:evenodd;fill-rule:evenodd" d="m58.08 13.2c-0.044 0.737-1.292 0.503-1.2-0.24 0.499-0.521 0.776 0.029 1.2 0.24z"></path> <path style="clip-rule:evenodd;fill-rule:evenodd" d="m54.72 12.96h0.72c0.068 0.388-0.227 0.413-0.24 0.72h-0.48v-0.72z"></path> <path style="clip-rule:evenodd;fill-rule:evenodd" d="m73.68 13.2c1.577-0.091 1.132 1.544 0.72 2.4-0.755 0.035-0.824-0.616-0.96-1.2 0.431-0.03 0.506 0.294 0.96 0.24-0.134-0.586-0.929-0.512-0.72-1.44z"></path> <path style="clip-rule:evenodd;fill-rule:evenodd" d="m78.96 13.2c1.067-0.336 1.299 1.101 0.239 0.96 0.031-0.431-0.293-0.506-0.239-0.96z"></path> <path style="clip-rule:evenodd;fill-rule:evenodd" d="m76.32 16.56c1.291-0.409 0.785-1.799 1.2-2.64 0.193 0.127 0.39 0.25 0.72 0.24-0.382 1.572-0.034 1.498-0.96 2.88 0.8 0.323 1.685-0.953 2.641-0.72 0.175 1.432-1.653 1.687-2.881 1.92-0.554 0.105-1.846 1.026-1.68-0.24 0.557 0.077 0.922-0.039 1.2-0.24-0.073-0.629-1.693-0.23-0.96-0.96-1.042 0.654-2.676 0.489-3.36-0.48-1.464 0.376-2.864 0.815-4.32 1.2 0.673-0.921 0.097-0.519-0.24-1.44 0.771 0.21 0.498-0.623 0.96-0.72 0.512-0.112 0.457 0.343 0.48 0.72 2.455-1.094 4.263-0.008 6.48-0.24 0.554-0.073 0.267 0.693 0.72 0.72z"></path> <path style="clip-rule:evenodd;fill-rule:evenodd" d="m63.36 14.16c0.623-0.07 0.834 1.623-0.24 1.2-0.198-0.678 0.338-0.622 0.24-1.2z"></path> <path style="clip-rule:evenodd;fill-rule:evenodd" d="m67.44 14.64c-0.107 0.773-0.366 1.394-1.44 1.2-0.278-1.141 0.647-1.873 1.44-1.2z"></path> <path style="clip-rule:evenodd;fill-rule:evenodd" d="m57.84 14.88c0.502-0.102 0.636 0.165 0.96 0.24 0.076 0.423-1.344 0.428-0.96-0.24z"></path> <path style="clip-rule:evenodd;fill-rule:evenodd" d="m75.84 15.84c-0.472-0.449-0.14-1.156 0.72-0.96 0.067 0.628-0.088 1.032-0.72 0.96z"></path> <path style="clip-rule:evenodd;fill-rule:evenodd" d="m78.96 14.88c0.465-0.095 0.351 1.093-0.24 0.72v-0.48c0.204 0.044 0.227-0.094 0.24-0.24z"></path> <path style="clip-rule:evenodd;fill-rule:evenodd" d="m55.68 15.12c0.213 0.187 0.542 0.258 0.96 0.24-0.198 0.678 0.338 0.622 0.24 1.2h-0.96c0.173-0.733-0.245-0.874-0.24-1.44z"></path> <path style="clip-rule:evenodd;fill-rule:evenodd" d="m51.12 15.36c-0.316 0.564-0.576 1.185-1.44 1.2-0.032-0.912 0.628-1.132 1.44-1.2z"></path> <path style="clip-rule:evenodd;fill-rule:evenodd" d="m53.76 15.84c0.458 0.101 1.033 0.087 0.96 0.72-1.241-0.121-1.208 1.033-2.64 0.72 0.212-0.829 1.866-0.214 1.68-1.44z"></path> <path style="clip-rule:evenodd;fill-rule:evenodd" d="m85.2 17.52c-0.073 0.806 0.32 2.081-0.72 1.92 1.08 0.759 2.819-0.125 3.84 1.2 0.407-0.473 1.67-0.09 1.68-0.96-0.457-0.748-1.042 0.375-1.68 0.24-0.55-0.444 1.061-1.414-0.72-1.2-0.222-1.125-0.718-1.503-0.48-2.4 0.798-0.078 0.261 1.18 1.44 0.72-0.513 0.49 0.067 0.95 0.24 1.44 1.272-0.312 1.225 0.695 2.399 0.48-0.324 2.163 3.021 2.305 3.12 4.8-0.563 0.389-1.453-0.5-1.439-1.44-0.583 0.038-1.854-0.861-2.641-0.48-0.296 0.134 0.179 0.929-0.96 0.72 0.003-1.037 0.921-1.159 1.44-1.68-0.599-0.66-1.732 0.174-1.92 0.72-0.581-0.299-1.166-0.594-1.92-0.72-0.983 0.457-1.345 1.535-3.12 1.2-0.346 0.134-0.586 0.374-0.721 0.72-0.051 1.011 1.075 0.846 1.44 1.44 1.227-0.693 1.511-2.329 3.84-1.92 0.072 0.632-0.332 0.788-0.96 0.72 0.736 0.144 0.951 0.809 1.68 0.96 0.843-0.066-0.602-0.894 0.24-0.96 1.097-0.008 0.013 0.842 0.24 1.44-1.543 0.343-1.552-0.848-2.64-0.96-0.245 1.275-1.935 1.106-2.881 1.68-0.86-0.704-2.01-1.416-3.359-0.96-0.619 0.021-0.253 1.027-1.2 0.72v-1.68c2.696 0.457 3.376-1.104 4.32-2.4-0.389-0.733-1.155 0.798-1.681 0 0.059-0.982 1.002-1.079 1.92-1.2 0.849-0.553-0.077-1.472 0.721-2.16-0.027-0.454-0.794-0.167-0.721-0.72-0.399 0.24-0.17 1.11-0.72 1.2-0.961 0.128-0.014-1.736-0.479-0.96-0.992-0.909 2.333-1.066 2.399-0.24 0.326-0.074 0.199-0.601 0.24-0.96 0.733-0.173 0.875 0.246 1.44 0.24-0.037 1-1.24 0.837-1.677 1.44zm-0.72 4.08c0.1-0.541 1.316 0.036 1.2-0.72-0.717-0.213-1.965 0.245-1.2 0.72z"></path> <path style="clip-rule:evenodd;fill-rule:evenodd" d="m65.76 16.32c-0.199 0.665-1.411 1.109-1.92 0.72 0.187-0.546 1.322-1.38 1.92-0.72z"></path> <path style="clip-rule:evenodd;fill-rule:evenodd" d="m59.76 17.28h-0.96c-0.189-0.924 1.149-0.924 0.96 0z"></path> <path style="clip-rule:evenodd;fill-rule:evenodd" d="m57.6 18.24c1.58-1.073 3.751-0.725 5.04 0.48 1.743-0.859 3.573-1.21 5.52-0.72-0.831 0.904-0.137 1.87-1.44 2.16 1.584 1.009 2.49-0.535 3.84-0.48-0.245 0.955-1.214 1.186-1.92 1.68-1.624-0.933-3.189 0.832-5.04-0.24-0.198-0.678 0.338-0.622 0.24-1.2 1.339-0.021 2.843 0.124 3.36-0.72-1.141-1.09-3.734-0.259-4.32 0.72-1.094-0.746-2.37-1.31-4.08-1.44-0.52-0.041-0.108 0.851-0.24 1.2-1.391-1.303-6.739-1.552-6.48 0.72-0.896 0.022-0.684 0.269-1.44 0-0.041-0.989 1.073-0.451 0.48-1.44 1.506-1.234 5.106-1.956 6.48-0.72z"></path> <path style="clip-rule:evenodd;fill-rule:evenodd" d="m85.92 17.52h0.72v0.96c-0.801 0.241-0.787-0.333-0.72-0.96z"></path> <path style="clip-rule:evenodd;fill-rule:evenodd" d="m72.24 18.24c0.091 1.098-0.766 1.248-1.439 0.96 0.031-0.768 0.543-1.056 1.439-0.96z"></path> <path style="clip-rule:evenodd;fill-rule:evenodd" d="m83.76 18.48c0.061 1.247-1.505 0.571-1.92 0.24 0.272-0.984 1.064-0.057 1.92-0.24z"></path> <path style="clip-rule:evenodd;fill-rule:evenodd" d="m46.32 18.72c0.193 0.127 0.39 0.25 0.72 0.24-0.133 0.427-0.124 0.997-0.48 1.2-0.97-0.063-0.706-1.081-0.24-1.44z"></path> <path style="clip-rule:evenodd;fill-rule:evenodd" d="m55.68 19.68c-0.738 0.862-2.403 0.796-3.12 1.68-0.031 0.431 0.294 0.506 0.24 0.96-1.432 1.208-1.269 4.011-4.08 3.84-0.209 0.929 1.048 0.392 0.72 1.44-0.679-0.296-1.481-0.296-2.16 0-0.01 0.411 0.179 0.622 0.48 0.72-0.104 0.537-1.183 0.097-1.68 0.24-0.219-1.019 0.392-1.208 0.96-1.44-0.7-0.771 0.547-1.049 0.72-1.68-0.929-0.128-1.172 0.428-2.16 0.24 0.104-0.937 0.986-1.094 2.16-0.96 0.739-0.911 0.992-3.146 2.64-2.4 0.587-0.566-0.358-0.446-0.24-1.2 0.716-0.287 0.816-0.066 1.44 0.24 1.18-0.583 2.315-2.481 4.08-1.68zm-6.72 5.04c1.12 0 1.949-0.291 1.92-1.44-1.081-0.783-1.894 0.407-1.92 1.44z"></path> <path style="clip-rule:evenodd;fill-rule:evenodd" d="m81.84 19.44v0.72c-0.7 0.353-0.7-1.073 0-0.72z"></path> <path style="clip-rule:evenodd;fill-rule:evenodd" d="m59.52 19.68c0.862 0.098 1.859 0.061 2.16 0.72-0.257 1.34-2.225 0.379-2.16-0.72z"></path> <path style="clip-rule:evenodd;fill-rule:evenodd" d="m59.04 19.92c-0.139 0.779 0.164 1.117 0.24 1.68-0.761-0.12-2.064-1.722-0.24-1.68z"></path> <path style="clip-rule:evenodd;fill-rule:evenodd" d="m44.4 20.64c0.482-0.082 0.751 0.049 0.72 0.48h-0.72v-0.48z"></path> <path style="clip-rule:evenodd;fill-rule:evenodd" d="m56.4 20.64c0.295 0.104 0.493 0.307 0.48 0.72-0.962 0.718-2.437 0.923-3.36 1.68-0.791-0.676 0.874-1.841 1.44-1.2v-0.96c0.422-0.138 1.41 0.29 1.44-0.24z"></path> <path style="clip-rule:evenodd;fill-rule:evenodd" d="m77.52 25.92c-1.277-0.083-1.097-1.624-1.92-2.16-0.729 0.296 0.26 0.826 0 1.44-1.077 0.327-1.165-0.967-0.72-1.44-0.73 0.01-1.58 0.14-1.44-0.72 0.726-0.075 1.866 0.267 1.92-0.48-0.185-1.048-1.84 0.617-1.68-0.96-1.567 0.686-1.646-0.06-3.601 0.24-0.168-0.888 0.842-0.599 1.2-0.96 0.408-0.088 0.453 0.188 0.48 0.48 1.28-0.857 3.252-0.817 4.319 0.24 0.101 1.821 1.839 2.003 1.442 4.32z"></path> <path style="clip-rule:evenodd;fill-rule:evenodd" d="m86.64 21.36h0.72v0.72h-0.72v-0.72z"></path> <path style="clip-rule:evenodd;fill-rule:evenodd" d="m84.48 22.56h0.96c0.28 0.833-1.341 1.116-0.96 0z"></path> <path style="clip-rule:evenodd;fill-rule:evenodd" d="m56.4 23.04c-0.54 1.21-1.749 1.057-2.64 1.44 0.139-1.221 1.231-1.489 2.64-1.44z"></path> <path style="clip-rule:evenodd;fill-rule:evenodd" d="m90.72 23.04c0.497 0.143 1.576-0.297 1.68 0.24 0.146 0.882-2.063 0.642-1.68-0.24z"></path> <path style="clip-rule:evenodd;fill-rule:evenodd" d="m57.6 24.96c-0.877 0.049-1.771 0.934-2.4 0.48 0.071-0.831 2.329-1.859 2.4-0.48z"></path> <path style="clip-rule:evenodd;fill-rule:evenodd" d="m87.6 24.72c0.565-0.005 0.706 0.413 1.439 0.24 0.039 0.979-1.712 0.913-1.439-0.24z"></path> <path style="clip-rule:evenodd;fill-rule:evenodd" d="m78.96 28.08c-1.88 0.711-3.707-0.578-3.601-2.64 1.124-0.519 0.686 0.848 0.96 1.2 0.767 0.983 1.573 1.219 3.12 0.72 0.274 0.926 1.034 1.366 1.2 2.4h1.2c-1.326 1.089 0.88 0.661 0.72 1.92-2.176-0.223-3.004-1.795-3.599-3.6z"></path> <path style="clip-rule:evenodd;fill-rule:evenodd" d="m65.52 27.12c-1.439 0.667-1.479-0.093-3.12 0.24-0.127-0.193-0.25-0.39-0.24-0.72 0.666-0.235 3.414-0.775 3.36 0.48z"></path> <path style="clip-rule:evenodd;fill-rule:evenodd" d="m40.8 26.88v0.72c-0.655 0.175-0.483-0.477-0.96-0.48 0.209-0.698 0.359-0.27 0.96-0.24z"></path> <path style="clip-rule:evenodd;fill-rule:evenodd" d="m51.36 26.64c0.153 0.873-0.497 0.943-1.2 0.96v-0.72c0.278-0.201 0.643-0.317 1.2-0.24z"></path> <path style="clip-rule:evenodd;fill-rule:evenodd" d="m69.12 26.64c0.831-0.168 0.861 0.841 0.48 1.2-0.831 0.168-0.861-0.841-0.48-1.2z"></path> <path style="clip-rule:evenodd;fill-rule:evenodd" d="m83.04 28.08c-0.005-0.565 0.414-0.707 0.24-1.44 1.404 0.246 1.748 0.609 2.88 0.72-0.575 0.67-1.059 0.336-0.96 1.68-0.706-0.744-1.315-0.811-2.16-0.96z"></path> <path style="clip-rule:evenodd;fill-rule:evenodd" d="m90.72 26.64c0.627-0.068 1.032 0.087 0.96 0.72-0.627 0.067-1.201 0.081-0.96-0.72z"></path> <path style="clip-rule:evenodd;fill-rule:evenodd" d="m88.08 27.36h0.48c-0.044 0.204 0.094 0.227 0.24 0.24v0.48c-0.204-0.044-0.227 0.094-0.24 0.24h-0.48c0.045-0.204-0.093-0.226-0.239-0.24v-0.48c0.203 0.044 0.225-0.094 0.239-0.24z"></path> <path style="clip-rule:evenodd;fill-rule:evenodd" d="m65.76 27.6c-0.144 0.624 0.096 0.864 0.72 0.72 0.102 0.502-0.165 0.636-0.24 0.96-0.866 0.066-0.651-0.949-1.44-0.96 0.209-0.351 0.359-0.761 0.96-0.72z"></path> <path style="clip-rule:evenodd;fill-rule:evenodd" d="m67.92 27.6c0.632-0.072 0.788 0.332 0.72 0.96-1.048-0.328-0.511 0.929-1.44 0.72-0.759-0.83 0.696-0.9 0.72-1.68z"></path> <path style="clip-rule:evenodd;fill-rule:evenodd" d="m48.48 27.84h0.48c-0.044 0.204 0.094 0.227 0.24 0.24v0.48c-0.204-0.044-0.227 0.094-0.24 0.24h-0.48c0.044-0.204-0.094-0.226-0.24-0.24v-0.48c0.204 0.044 0.226-0.094 0.24-0.24z"></path> <path style="clip-rule:evenodd;fill-rule:evenodd" d="m56.16 28.56c-0.019 0.781-1.088 0.512-1.68 0.72-0.03 0.431 0.294 0.506 0.24 0.96-1.152 0.495-2.554 1.861-3.6 1.68 0.488-1.111 1.614-1.586 2.88-1.92 0.03-0.431-0.294-0.506-0.24-0.96 0.432-0.38 1.673-1.191 2.4-0.48z"></path> <path style="clip-rule:evenodd;fill-rule:evenodd" d="m44.64 28.56h0.72v0.96c-0.801 0.241-0.787-0.333-0.72-0.96z"></path> <path style="clip-rule:evenodd;fill-rule:evenodd" d="m77.04 28.8c0.335-0.624 1.242 0.175 1.681 0.24-0.336 0.624-1.243-0.175-1.681-0.24z"></path> <path style="clip-rule:evenodd;fill-rule:evenodd" d="m88.8 29.04c0.227 0.867-0.945 0.335-1.44 0.48v-0.72c0.388-0.409 1.237-0.22 1.44 0.24z"></path> <path style="clip-rule:evenodd;fill-rule:evenodd" d="m46.08 29.52c0.708 0.346-0.286 0.966-0.96 0.72-0.103-0.663 0.895-0.225 0.96-0.72z"></path> <path style="clip-rule:evenodd;fill-rule:evenodd" d="m48 29.76c0.255 0.676-0.604 0.679-1.2 1.2-0.9 0.786-0.843 0.854-2.16 1.44-0.409 0.182-0.494 0.627-0.72 0.72-0.344 0.14-0.853-0.133-1.2 0-0.776 0.298-2.311 1.547-2.4 0 0.743-0.538 2.404-0.156 2.4-1.44 0.836 0.445 1.727-0.639 2.16-0.72 0.291-0.055 0.654 0.399 0.48 0.48 1.044-0.488 1.063-2.119 2.64-1.68z"></path> <path style="clip-rule:evenodd;fill-rule:evenodd" d="m42 30.72c0.556 0.067 0.552 0.641 0.24 0.96-0.556-0.067-0.552-0.641-0.24-0.96z"></path> <path style="clip-rule:evenodd;fill-rule:evenodd" d="m78.48 31.2c-0.506 1.094-2.593 0.607-3.6 1.2-0.706-1.255 2.736-1.532 3.6-1.2z"></path> <path style="clip-rule:evenodd;fill-rule:evenodd" d="m81.36 32.16c-0.975 0.094-1.672-0.088-1.68-0.96 0.886-0.006 1.653 0.108 1.68 0.96z"></path> <path style="clip-rule:evenodd;fill-rule:evenodd" d="m53.52 31.68c-0.332 1.028-1.595 1.125-2.64 1.44 0.381-0.979 1.616-1.104 2.64-1.44z"></path> <path style="clip-rule:evenodd;fill-rule:evenodd" d="m56.64 31.68c0.305 0.808-1.217 0.992-1.44 0.48-0.227-0.868 0.945-0.335 1.44-0.48z"></path> <path style="clip-rule:evenodd;fill-rule:evenodd" d="m61.2 32.16c0.088 0.728-0.782 0.498-1.2 0.72-0.369-0.871 0.88-1.33 1.2-0.72z"></path> <path style="clip-rule:evenodd;fill-rule:evenodd" d="m94.56 31.92c1.072-0.112 1.321 0.599 1.68 1.2-0.638-0.002-1.37 0.09-1.68-0.24v-0.96z"></path> <path style="clip-rule:evenodd;fill-rule:evenodd" d="m80.4 32.4c0.431-0.03 0.506 0.294 0.96 0.24 0.313 2.807 2.259 3.981 4.561 4.8-2.937 0.374-4.944-2.256-5.521-5.04z"></path> <path style="clip-rule:evenodd;fill-rule:evenodd" d="m46.56 32.88c-0.526 2.141-1.534 5.998-4.56 4.08 1.42-0.34 3.351-0.169 2.88-2.4-0.404-0.677-1.102 0.922-1.68 0 0.584-0.936 2.318-0.722 2.64-1.92 0.388-0.068 0.413 0.227 0.72 0.24z"></path> <path style="clip-rule:evenodd;fill-rule:evenodd" d="m54.96 32.64c-0.194 1.006-0.507 1.893-1.68 1.92 0.219-0.981 0.736-1.664 1.68-1.92z"></path> <path style="clip-rule:evenodd;fill-rule:evenodd" d="m76.8 32.88c-0.219 0.502-0.709 0.732-1.44 0.72v-0.72c0.307-0.328 1.133-0.328 1.44 0z"></path> <path style="clip-rule:evenodd;fill-rule:evenodd" d="m78 32.64c0.769 0.272 1.682 0.399 1.681 1.44-0.898-0.142-1.706-0.375-1.681-1.44z"></path> <path style="clip-rule:evenodd;fill-rule:evenodd" d="m52.56 33.36c0.034 0.995-1.19 0.729-1.92 0.96-0.186-1.146 0.981-0.939 1.92-0.96z"></path> <path style="clip-rule:evenodd;fill-rule:evenodd" d="m68.4 34.8c-0.388 0.068-0.413-0.227-0.72-0.24-0.072-0.632 0.332-0.788 0.96-0.72 0.102 0.502-0.164 0.636-0.24 0.96z"></path> <path style="clip-rule:evenodd;fill-rule:evenodd" d="m104.88 34.32c0.501-0.102 0.635 0.165 0.96 0.24-0.271 1.966-2.921 2.573-5.04 1.92-0.891-0.027-1.405 1.115-2.16 0.48-0.431-1.311 1.282-0.478 0.96-1.68 1.51 0.453 4.88 1.419 5.28-0.96z"></path> <path style="clip-rule:evenodd;fill-rule:evenodd" d="m48 34.56c-0.238 0.961-1.282 1.118-1.68 1.92 0.158 0.719 0.513-0.229 0.96 0-0.858 1.259-0.99 3.359-2.16 4.08-1.707 1.052-2.72-0.509-4.8-0.96-0.864-0.145-0.707 0.732-1.44 0.72 0.556-1.356-1.065-0.535-0.96-1.44 2.366-0.429 4.425 0.176 5.52 1.44 0.561-0.079 0.992-0.288 1.44-0.48-0.053-0.747-1.194-0.405-1.92-0.48 0.734-0.865 2.914-0.286 3.12-1.68-0.979 0.25-4.276 1.83-4.56-0.24 1.184 0.034 1.612 0.567 2.4 0.48 2.114-0.234 1.783-3.191 4.08-3.36z"></path> <path style="clip-rule:evenodd;fill-rule:evenodd" d="m52.32 34.8c-0.035 0.525-0.604 0.516-1.2 0.48-0.168-0.831 0.841-0.861 1.2-0.48z"></path> <path style="clip-rule:evenodd;fill-rule:evenodd" d="m33.84 35.52h1.2c0.103 1.063-0.4 1.52-1.2 1.68-0.25-0.68-0.25-1 0-1.68z"></path> <path style="clip-rule:evenodd;fill-rule:evenodd" d="m83.04 42.96c0.175-0.886 1.369 0.749 1.2-0.48 0.663-0.103 0.226 0.895 0.721 0.96 0.799-0.893-0.453-1.777-0.721-2.4-0.682-0.042 0.29 1.57-0.72 1.2-0.239-1.142-1.284-2.141-0.72-3.36 0.505-0.527 1.066-0.049 1.439 0.24-0.135-1.625-2.937-0.584-2.64-2.64 1.261 0.179 1.735 1.144 2.88 1.44 0.44 1.88 2.601 2.039 3.12 3.84-1.208-0.072-1.082-1.478-2.4-1.44-0.153 1.274 1.216 1.025 1.681 1.68-0.039 0.281-0.438 0.203-0.721 0.24 1.802 1.384 6.045 0.728 7.2-0.72 1.37-0.031 2.321-0.191 4.08 0 0.933 0.101 1.106 0.761 2.16 0.96 1.511 0.285 8.054-0.014 8.16-2.4 0.088-1.972-1.853-0.744-2.16-2.64 1.822-0.514 3.4 1 3.12 2.88-0.361 2.423-4.821 3.446-9.12 2.88-1.112-0.146-1.596-0.907-3.36-0.72-2.624 0.278-6.249 3.439-9.6 1.2 1.821 3.293 7.475-0.695 9.84 0 0.592 0.174 2.169 1.48 0.72 2.16-0.889 0.009-0.268-1.492-1.2-1.44-2.612 0.587-5.193 1.206-7.199 2.4 2.456 1.223 4.713-0.804 7.439-0.48 0.482 0.49-0.105 0.471-0.24 0.96 1.34 0.98 3.852 0.789 4.32 2.64 1.373 0.707 2.793 1.367 4.08 2.16 2.377 0.246 6.544 0.417 7.2-1.92 0.011-0.731-0.507-0.934-0.72-1.44 0.033-0.847 0.687-1.073 0.72-1.92 1.51-0.665 3.089 0.174 5.04 0 1.371-0.122 2.914-0.955 4.56-0.72 0.847 0.121 1.35 0.688 2.16 0.72 2.154 0.085 4.83-0.926 4.561-3.36-0.21-1.893-2.377-1.568-2.881-3.6 0.894-1.959 3.478-2.273 5.761-2.88 1.552-0.412 3.293-1.455 4.8-0.96-0.451 1.354-2.235 0.955-3.36 1.2-2.452 0.535-4.898 1.254-6.24 2.64 0.104 0.857 0.604 1.317 1.2 1.68 1.339-0.008 2.665-1.083 3.601-0.72-0.072 1.208-1.797 0.763-2.641 1.2 1.009 2.048 5.291 2.047 4.801 4.8-1.127-0.553-1.229-2.131-2.641-2.4-0.627 4.021-5.737 4.812-9.84 4.56 0.639-1.438 2.63-0.502 4.08-0.72 2.657-0.398 5.956-2.136 4.56-4.56-1.078-0.039-0.649 1.43-0.96 2.16-1.095 1.105-2.332 1.645-4.319 1.68-2.308 0.042-5.459-1.549-6.48 0.72-1.637-0.697-3.378 0.418-4.56 0.96-0.267-1.226 1.028-0.892 1.439-1.44-0.38-0.594-1.679-0.098-2.16 0 0.039 0.279-0.053 0.427-0.239 0.48 3.245 5.286-4.595 7.199-9.12 5.76 0.355-1.135 1.8-0.239 2.64-0.24 1.77-0.002 3.587-0.146 4.8-0.72-2.15-0.341-3.446 0.275-5.279 0-2.524-0.378-4.51-2.389-6.96-2.88-0.868-0.174-1.979-0.23-2.881-0.24-1.889-0.021-4.514 0.898-5.76-0.96 0.834-0.783 1.442 0.432 2.4 0.48 1.769 0.089 3.89-0.94 5.76 0-2.424-3.977-12.364 1.319-12.96-5.04 0.073-0.291-0.693-0.828-0.72-0.24-0.681 0.042 0.291-1.57-0.719-1.2zm1.44-2.4c0.453-0.481-0.295-1.116-0.96-1.2-0.473 0.501 0.206 1.204 0.96 1.2zm6.48 3.12c1.032-0.248 1.96-0.6 2.64-1.2-0.982 0.298-2.205 0.355-2.64 1.2zm-0.72-0.24c-2.289-0.204-1.476 1.026 0 0zm-4.8 0.96c0.029 1.602 2.72 2.584 3.6 1.2-1.841 0.346-2.572-1.512-3.6-1.2zm13.68 5.28c0.112-0.752-0.604-0.677-0.96-0.96-0.113 0.752 0.603 0.676 0.96 0.96z"></path> <path style="clip-rule:evenodd;fill-rule:evenodd" d="m52.8 36.48c0.628-0.068 1.033 0.088 0.96 0.72-0.627 0.067-1.201 0.081-0.96-0.72z"></path> <path style="clip-rule:evenodd;fill-rule:evenodd" d="m62.4 36.96c0.502-0.102 0.636 0.165 0.96 0.24-0.882 2.361-3.944 2.592-6.24 1.44-1.03 0.235-2.956 0.338-3.36-1.2 1.135 0.095 2.003-0.077 2.88-0.24-0.105 0.295-0.307 0.493-0.72 0.48 0.256 0.949 0.728-0.061 1.44 0 0.779 0.494 2.374 1.06 3.12 0.24 0.477 0.003 0.305 0.655 0.96 0.48 0.349-0.659 1.605-0.409 0.96-1.44z"></path> <path style="clip-rule:evenodd;fill-rule:evenodd" d="m68.16 37.44c0.768 0.032 1.056 0.544 0.96 1.44-0.891 0.087-1.414-0.916-0.96-1.44z"></path> <path style="clip-rule:evenodd;fill-rule:evenodd" d="m48.48 37.68c-0.733 1.196 0.332 1.282-0.48 2.4-0.592 0.032-1.156 0.036-1.44-0.24 0.516-0.844 0.554-2.166 1.92-2.16z"></path> <path style="clip-rule:evenodd;fill-rule:evenodd" d="m81.36 37.68c0.193 0.127 0.39 0.25 0.72 0.24 0.021 2.375 0.861 3.776-0.239 5.52 0.536 0.167 1.515 1.118 0.479 1.44 1.074 0.286 1.407 1.313 1.68 2.4 0.693 0.715 1.283 0.602 2.4 0.48 1.401 1.639 2.849 3.232 4.561 4.56 1.133 0.147 3.056-0.496 2.88 0.96-2.98-0.14-5.364-0.875-6.24-3.12-0.88-0.178-1.334 0.59-1.92 0-0.215-0.775 0.782-0.337 0.96-0.72-1.498-1.222-4.873-0.566-5.521-2.64-0.281 0.039-0.202 0.438-0.239 0.72-0.605-0.229-0.956-0.794-1.44 0-0.436-0.879-0.807-0.573-1.92-0.48-0.228-0.769-0.14-1.333-0.24-2.64 1.197 0.003 0.414 1.986 1.44 2.16 1.626-0.793-1.665-4.687 1.2-4.56-0.429 1.423 0.217 2.897 0 4.8 0.893 0.014 0.691-1.068 0.72-1.92 0.766 0.915 1.184 2.177 2.399 2.64-0.247-1.198-1.114-3.039-1.92-2.88-0.429-1.225 0.056-2.811 0.96-3.84-0.133-0.986-0.606-1.633-1.199-2.16-0.175-0.655 0.476-0.483 0.479-0.96z"></path> <path style="clip-rule:evenodd;fill-rule:evenodd" d="m99.84 37.68c0.699 0.336-0.426 0.827-0.24 1.44-0.683-0.32 0.185-1.067 0.24-1.44z"></path> <path style="clip-rule:evenodd;fill-rule:evenodd" d="m33.84 38.16h0.72v0.72h-0.72v-0.72z"></path> <path style="clip-rule:evenodd;fill-rule:evenodd" d="m76.08 39.12c-0.716 0.287-0.815 0.066-1.439-0.24 0.009-0.722 1.703-0.697 1.439 0.24z"></path> <path style="clip-rule:evenodd;fill-rule:evenodd" d="m45.6 40.32c0.696 0.043 0.579 1.141-0.24 0.96-0.102-0.502 0.164-0.635 0.24-0.96z"></path> <path style="clip-rule:evenodd;fill-rule:evenodd" d="m33.84 40.8c0.7-0.353 0.7 1.073 0 0.72v-0.72z"></path> <path style="clip-rule:evenodd;fill-rule:evenodd" d="m68.4 41.04c0.897-0.196 0.444 1.479 0.24 1.68-0.698-0.004-0.567-1.356-0.24-1.68z"></path> <path style="clip-rule:evenodd;fill-rule:evenodd" d="m42.72 42.96c-0.899 0.019-0.726-1.035-1.92-0.72 0.883 0.557 1.15 1.729 2.64 1.68 1.126 0.086 0.728-1.352 1.92-1.2 0.48 1.517-1.505 2.221-3.6 1.92-0.215-1.545-1.901-1.619-2.4-2.88 1.225-0.709 3.28-0.507 3.36 1.2z"></path> <path style="clip-rule:evenodd;fill-rule:evenodd" d="m69.84 41.28h0.72c0.067 0.628-0.088 1.033-0.72 0.96v-0.96z"></path> <path style="clip-rule:evenodd;fill-rule:evenodd" d="m92.16 41.52c-0.599 0.846-2.94 1.213-4.08 0.72-0.122-0.858 1.011-0.401 1.44-0.48 0.962-0.178 2.119-0.726 2.64-0.24z"></path> <path style="clip-rule:evenodd;fill-rule:evenodd" d="m64.08 41.76c-0.87 1.21-2.218 1.942-2.16 4.08-1.538 0.263-2.785 1.959-3.84 1.92 0.392-1.448 1.813-1.866 3.12-2.4-0.295-0.505-1.445-0.155-1.68-0.72 0.511-1.287 2.453-1.176 2.16-2.64 0.916 0.129 1.521-0.634 2.4-0.24z"></path> <path style="clip-rule:evenodd;fill-rule:evenodd" d="m87.36 42h0.48v0.48h-0.48v-0.48z"></path> <path style="clip-rule:evenodd;fill-rule:evenodd" d="m72.72 44.88c-0.577-0.865 2.157-0.995 2.88-0.48-0.438 0.916-2.275 0.337-1.44 1.92-0.835-0.444-1.769-0.791-3.12-0.72-0.358-0.387 0.207-1.204 0-2.16 0.071-0.631-0.931-0.189-0.72-0.96 1.599-0.634 2.496 1.24 2.4 2.4z"></path> <path style="clip-rule:evenodd;fill-rule:evenodd" d="m70.32 44.88c-1.129 0.791-2.072 1.768-3.36 2.4-0.663-0.137-1.346-0.254-1.2-1.2 0.933-0.334 1.827-0.337 2.4-0.48 0.154-1.339 1.81-2.86 2.16-0.72z"></path> <path style="clip-rule:evenodd;fill-rule:evenodd" d="m63.36 43.92c1.362-0.002 2.373 0.348 2.64 1.44-0.557 0.34-1.877-0.721-2.88 0-0.032-0.591-0.037-1.156 0.24-1.44z"></path> <path style="clip-rule:evenodd;fill-rule:evenodd" d="m51.6 45.36c0.047 0.688 0.03 1.31-0.72 1.2-0.498-0.494 0.001-1.217 0.72-1.2z"></path> <path style="clip-rule:evenodd;fill-rule:evenodd" d="m49.92 45.6c0.102 0.501-0.165 0.635-0.24 0.96-0.224-0.256-0.886-0.075-0.72-0.72 0.213-0.186 0.542-0.258 0.96-0.24z"></path> <path style="clip-rule:evenodd;fill-rule:evenodd" d="m58.8 45.6c-0.132 1.063-1.155 0.521-0.96 1.44-1.333 0.213-1.779-0.461-2.88-0.48-0.044-0.204 0.094-0.227 0.24-0.24v-0.48c1.529 0.938 2.027-0.047 3.6-0.24z"></path> <path style="clip-rule:evenodd;fill-rule:evenodd" d="m71.52 46.8c0.791 0.009 1.698-0.098 1.68 0.72-0.487 0.416-2.049 0.453-1.68-0.72z"></path> <path style="clip-rule:evenodd;fill-rule:evenodd" d="m118.8 48.24c-0.17 0.532-1.127 0.797-1.44 0.48 0.19-0.509 0.99-0.936 1.44-0.48z"></path> <path style="clip-rule:evenodd;fill-rule:evenodd" d="m36.72 48.96c-0.359 0.381-1.369 0.351-1.2-0.48 0.358-0.381 1.368-0.351 1.2 0.48z"></path> <path style="clip-rule:evenodd;fill-rule:evenodd" d="m58.8 48.24c-0.745 1.53-2.89 3.829-5.04 2.4-1.326 0.594-2.375 1.465-3.6 2.16 0.296-1.783 2.007-2.152 3.12-3.12 2.623 1.628 3.437-1.115 5.52-1.44z"></path> <path style="clip-rule:evenodd;fill-rule:evenodd" d="m41.76 48.48c-0.284 1.906-2.605 2.955-4.56 2.4-0.255-0.895 0.9-0.38 0.72-1.2 2.126 0.735 2.446-0.633 3.84-1.2z"></path> <path style="clip-rule:evenodd;fill-rule:evenodd" d="m74.88 48.48c1.271-0.004 1.396 0.769 2.64 0.24 0.023 1.144-0.884 1.355-0.96 2.4-0.08-1.04-0.982-1.257-1.92-1.44-0.077-0.556 0.038-0.921 0.24-1.2z"></path> <path style="clip-rule:evenodd;fill-rule:evenodd" d="m116.88 49.44c0.111 1.072-1.875 0.045-2.16 0.72-0.69 1.682 0.184 3.947-0.96 5.52-1.636 2.248-5.401 1.72-8.16 2.88-0.345 0.671-0.665 1.396-1.68 1.92 2.349 2.242 5.576-1.763 7.92-0.24 1.227-0.51 3.521-1.758 5.52-1.92 0.897-0.073 2.694-0.498 3.12 0.72-2.654-0.096-5.996 0.554-8.4 1.92-2.405-0.866-4.095 0.792-5.04 2.16-1.259 0.021-2.144 0.416-3.119 0.72 0.313-1.033-0.497-0.943-0.96-1.2-0.96 0.001-1.043 0.877-1.681 1.2-2.537 0.191-6.488 0.223-7.2-2.16 1.956 1.285 5.824 2.253 7.92 0.72-0.41-0.55-1.831-0.089-2.64-0.24-1.479-0.68-2.013-2.308-4.08-2.4 1.074-1.083 3.283 0.449 3.601 1.68 1.049-0.166 3.423 0.24 4.319-0.72-0.181-1.052-1.736 0.342-2.399-0.48 0.081-1.599 3.422 0.062 3.6-1.44-0.379-0.518-2.087 0.932-2.88 0 1.917-1.904 6.037-1.192 8.88-2.16 1.331-0.453 2.486-1.356 3.12-2.64-1.32-2.37 0.85-6.158 3.36-4.56zm-14.16 12.48c1.223 0.28 3.823 1.131 4.56-0.24-1.93 0.888-3.6-1.233-4.56 0.24z"></path> <path style="clip-rule:evenodd;fill-rule:evenodd" d="m47.76 49.2c0.299 1.019-0.798 0.642-0.96 1.2 0.495 0.475 1.974-1.095 2.64-0.48-0.455 1.909-3.073 1.352-4.56 1.44 0.045-0.675 0.417-1.022 1.2-0.96 0.066-0.362 0.573-1.213 1.68-1.2z"></path> <path style="clip-rule:evenodd;fill-rule:evenodd" d="m66.96 49.2c0.033 0.847 0.687 1.073 0.72 1.92-0.624 0.096-0.724 0.716-1.44 0.72-0.263-0.697-0.216-1.703-0.479-2.4 0.278-0.201 0.642-0.316 1.199-0.24z"></path> <path style="clip-rule:evenodd;fill-rule:evenodd" d="m67.92 49.44c1.147 0.212 1.328 1.392 1.44 2.64-1.028-0.332-1.313-1.407-1.44-2.64z"></path> <path style="clip-rule:evenodd;fill-rule:evenodd" d="m77.76 49.92c0.727 0.074 0.857 0.743 1.92 0.48-0.006 0.565 0.413 0.707 0.24 1.44 1.205 0.154 1.194 1.526 2.399 1.68 0.165 0.646-0.496 0.464-0.72 0.72-0.786-0.894-2.209-1.151-2.4-2.64-0.37-0.668-1.854-0.225-1.439-1.68z"></path> <path style="clip-rule:evenodd;fill-rule:evenodd" d="m35.76 50.4c-0.486 0.795-1.824 0.736-2.88 0.96 0.085-1.042 2.089-1.422 2.88-0.96z"></path> <path style="clip-rule:evenodd;fill-rule:evenodd" d="m70.8 51.12c0.006-0.233 0.293-0.187 0.479-0.24 1.04 0.08 0.911 1.329 1.44 1.92h0.96c0.193 1.967 2.337 1.983 3.12 3.36-1.996 0.529-2.543-2.181-4.561-2.4-0.44-0.918-0.912-1.806-1.438-2.64z"></path> <path style="clip-rule:evenodd;fill-rule:evenodd" d="m42.48 51.12c0.7-0.353 0.7 1.073 0 0.72v-0.72z"></path> <path style="clip-rule:evenodd;fill-rule:evenodd" d="m61.68 51.12h0.72c0.215 1.095-0.399 1.36-0.48 2.16 1.028-0.092 0.681-1.559 1.92-1.44 0.181 1.272-1.494 2.628-2.88 3.12 0.141-0.5 0.504-0.775 0.72-1.2-2.379 0.741-3.243 2.998-5.52 3.84 0.875-3.125 5.015-2.985 5.52-6.48z"></path> <path style="clip-rule:evenodd;fill-rule:evenodd" d="m85.44 51.84c0.325 1.576-2.384 1.117-1.92-0.24 0.574-0.546 0.884 0.526 1.92 0.24z"></path> <path style="clip-rule:evenodd;fill-rule:evenodd" d="m53.52 51.6c0.722-0.242 0.425 0.535 0.48 0.96-0.422-0.058-0.547-0.413-0.48-0.96z"></path> <path style="clip-rule:evenodd;fill-rule:evenodd" d="m46.8 52.08c-0.361 0.688-2.335 1.014-3.12 0.48 0.445-1.073 2.213-0.515 3.12-0.48z"></path> <path style="clip-rule:evenodd;fill-rule:evenodd" d="m60.96 51.84c-0.187 0.693-0.521 1.239-0.96 1.68-0.571-0.51-0.046-1.953 0.96-1.68z"></path> <path style="clip-rule:evenodd;fill-rule:evenodd" d="m66 52.08c-0.349 0.852-0.484 1.916-1.68 1.92 0.348-0.852 0.484-1.916 1.68-1.92z"></path> <path style="clip-rule:evenodd;fill-rule:evenodd" d="m34.8 53.52c-0.5-0.528 0.286-1.124 1.2-0.96 0.035 0.754-0.616 0.824-1.2 0.96z"></path> <path style="clip-rule:evenodd;fill-rule:evenodd" d="m70.08 52.56h0.96c0.475 1.339 0.722 1.504 0.96 2.88-1.035-0.004-0.884-1.195-1.92-1.2 0.404-0.946 0.404-0.734 0-1.68z"></path> <path style="clip-rule:evenodd;fill-rule:evenodd" d="m112.32 52.8h0.72v0.96c-0.63 0.073-0.79-0.332-0.72-0.96z"></path> <path style="clip-rule:evenodd;fill-rule:evenodd" d="m85.2 53.04h0.721c0.651 1.828 2.574 2.385 4.079 3.36 1.438-0.285 2.438-1.518 3.841-0.48-0.387 0.591-2.512 1.23-3.36 1.2-2.324-0.082-4.663-2.188-5.281-4.08z"></path> <path style="clip-rule:evenodd;fill-rule:evenodd" d="m34.8 53.52c-0.262 1.098-0.008 2.711-1.68 2.4 0.632-0.728 0.128-2.592 1.68-2.4z"></path> <path style="clip-rule:evenodd;fill-rule:evenodd" d="m97.68 53.76c3.115 1.07 8.069 2.646 11.76 1.44 1.177-0.385 1.611-1.472 2.88-1.44-0.83 2.242-3.658 2.624-6 2.64-3.155 0.022-6.096-1.052-8.399-1.68-0.187-0.214-0.259-0.542-0.241-0.96z"></path> <path style="clip-rule:evenodd;fill-rule:evenodd" d="m32.64 54.24c-0.312 1.127-1.515 1.365-2.64 1.68-0.145-1.585 1.656-1.224 2.64-1.68z"></path> <path style="clip-rule:evenodd;fill-rule:evenodd" d="m40.8 56.4c-0.983-0.212-0.418-1.258-1.68-0.72-0.077-0.557 0.039-0.921 0.24-1.2 1.035-0.155 0.754 1.006 1.68 0.96 0.03 0.431-0.294 0.506-0.24 0.96z"></path> <path style="clip-rule:evenodd;fill-rule:evenodd" d="m56.4 54.72c-0.808 1.432-2.684 1.795-4.08 2.64-0.239 1.97-1.007 2.26-2.64 3.36-0.88 0.592-1.523 1.302-2.16 1.44-1.862 0.402-4.311-0.495-6.48 0.24 0.667-1.303 2.622-0.941 4.08-1.2 2.359-0.419 4.676-0.896 6-2.4-0.032-0.591-0.037-1.156 0.24-1.44 1.252-1.228 3.229-1.731 4.56-2.88 0.279-0.039 0.427 0.053 0.48 0.24z"></path> <path style="clip-rule:evenodd;fill-rule:evenodd" d="m85.44 55.68c0.111 0.751-0.209 1.071-0.96 0.96-0.747-0.661 0.299-1.707 0.96-0.96z"></path> <path style="clip-rule:evenodd;fill-rule:evenodd" d="m35.28 55.68c0.349 0.131 1.241-0.281 1.2 0.24 0.179 0.914-1.554 0.519-1.2-0.24z"></path> <path style="clip-rule:evenodd;fill-rule:evenodd" d="m78 55.68c3.102 0.259 4.274 2.446 6.721 3.36-0.987 1.162-2.58-1.053-4.08-0.96-0.579-0.781-1.111-1.609-2.641-1.44v-0.96z"></path> <path style="clip-rule:evenodd;fill-rule:evenodd" d="m28.08 55.92c-0.189 1.651-2.062 1.618-2.16 3.36-1.692 1.549-4.844 0.87-5.76-0.96 0.671-0.551 1.354 0.424 1.92 0.72 1.076-0.364 2.31-0.57 3.36-0.96 1.079-0.521 0.796-2.404 2.64-2.16zm-5.04 3.84h0.72c0.031-0.431-0.239-0.562-0.72-0.48v0.48z"></path> <path style="clip-rule:evenodd;fill-rule:evenodd" d="m34.8 56.4c-0.292 1.188-1.489 0.568-2.16 0.72-2.267 0.512-3.777 1.663-5.28 2.88-1.331-1.874 2.676-1.964 3.36-3.36 1.29 0.005 3.144-0.688 4.08-0.24z"></path> <path style="clip-rule:evenodd;fill-rule:evenodd" d="m85.68 56.4c1.077 0.202 1.349 1.211 1.92 1.92 1.213-0.077 1.358 0.301 2.16 1.2 0.55 0.617 2.016 2.035 2.16 2.88 0.147 0.866-0.48 1.781-0.24 2.64 0.6 2.142 2.765 1.607 4.08 3.12-1.945-0.156-3.897-0.247-5.04-1.681-0.59-0.739-0.521-2.003-0.96-2.88-0.256-0.511-1.079-0.426-0.721-1.199 1.701-0.102 1.261 1.938 1.921 2.88 0.877-2.342-0.704-6.045-3.12-5.76-0.362-1.398-2.061-1.458-2.16-3.12zm6.48 10.079c-0.342-0.057-0.404-0.395-0.72-0.479-0.21 0.494 0.622 1.078 0.72 0.479z"></path> <path style="clip-rule:evenodd;fill-rule:evenodd" d="m97.2 56.4c1.005 0.276 1.355 1.205 2.4 1.44-0.833 1.287-3.209-0.287-2.4-1.44z"></path> <path style="clip-rule:evenodd;fill-rule:evenodd" d="m10.56 59.28c-0.221-0.654-0.75 0.335-1.44 0 0.889-1.227 2.938-1.476 4.08-1.2 0.497 0.12 1.322 0.547 1.68 0.96 0.182 0.21 0.183 1.005 0.48 1.2 1.157 0.758 2.243 0.764 3.36 0.24-0.183-1.398-1.707-2.256-3.12-1.68 0.343-1.144-1.003-0.596-0.72-1.68 1.27-0.038 1.984-0.409 3.12 0-0.341 1.695 1.986 2.167 2.4 3.84 1.279-0.159 2.138 0.102 2.64 0.72 0.931-0.669 2.269-0.931 3.12-1.68 0.106 0.214 0.21 0.429 0.48 0.48-0.476 1.444-2.508 1.333-3.6 2.16-0.948 1.293-2.605 1.875-3.6 3.12 0.033 0.847 0.687 1.073 0.72 1.92-0.155 0.885-0.821 1.259-1.68 1.44-0.016 1.072 1.232-0.489 1.2 0.72-1.542 0.572-2.933-0.626-5.04-0.24-0.757 0.203-0.683 1.237-1.44 1.44-0.88-0.24-2.363 0.123-2.4-0.96 0.882-0.496 1.328 0.064 2.16 0.24 0.896-3.106 4.675-0.607 6.48-2.4-0.188-0.932-0.672-1.568-1.2-2.16 1.413-1.066 2.375-2.584 4.08-3.359-1.437-1.444-5.248-0.512-7.2-1.44-0.442-0.998-1.15-1.729-2.16-2.16-2.337 0.205-3.346 2.81-5.76 2.16 0.041 1.399 1.386 1.494 1.68 2.64-0.156 2.429-6.938 2.179-5.04-0.479 1.142-0.021 0.794 1.445 1.92 1.439 1.062 0.021 1.732-0.348 2.16-0.96-0.732-1.476-3.675-2.035-2.16-4.32 1.984-1.354 5.196-3.414 7.68-2.16-0.545 0.766-1.965 0.376-3.12 0.72-1.196 0.356-2.314 1.106-2.88 1.92 1.416-0.105 1.738 0.258 3.12-0.481z"></path> <path style="clip-rule:evenodd;fill-rule:evenodd" d="m13.68 58.08v-0.72h0.72v0.72h-0.72z"></path> <path style="clip-rule:evenodd;fill-rule:evenodd" d="m35.28 57.84c0.14 0.86-0.71 0.73-1.44 0.72-1.741 1.219-2.486 3.434-3.84 5.04-0.817 0.042-3.084 0.886-3.12-0.479 0.921-0.103 1.55-0.51 2.4-0.24 1.699-1.856 2.869-5.405 6-5.041z"></path> <path style="clip-rule:evenodd;fill-rule:evenodd" d="m39.36 58.8c-0.438 0.65-3.091-0.134-3.6-0.96 1.413-0.638 2.896 0.151 3.6 0.96z"></path> <path style="clip-rule:evenodd;fill-rule:evenodd" d="m92.16 57.6c1.109-0.069 1.58 0.5 1.92 1.2-0.609 0.374-1.9-0.228-1.92-1.2z"></path> <path style="clip-rule:evenodd;fill-rule:evenodd" d="m65.28 57.84c0.388-0.067 0.414 0.227 0.72 0.24-0.038 2.307-0.432 4.045-0.96 5.28-1.113-0.759 0.137-2.516 0.24-3.84 0.055-0.708-0.526-1.181 0-1.68z"></path> <path style="clip-rule:evenodd;fill-rule:evenodd" d="m57.36 58.08c-0.104 0.295-0.307 0.493-0.72 0.48-0.112-0.512 0.343-0.457 0.72-0.48z"></path> <path style="clip-rule:evenodd;fill-rule:evenodd" d="m61.68 59.52c-0.359 0.381-1.368 0.351-1.2-0.48 0.358-0.381 1.368-0.351 1.2 0.48z"></path> <path style="clip-rule:evenodd;fill-rule:evenodd" d="m68.4 58.8h0.72c-0.384 1.478 0.021 2.611 0.24 4.08-1.622 0.051-1.355-2.896-0.96-4.08z"></path> <path style="clip-rule:evenodd;fill-rule:evenodd" d="m31.2 59.04c-0.055 0.825-0.714 1.046-1.44 1.2-0.12-1 0.608-1.152 1.44-1.2z"></path> <path style="clip-rule:evenodd;fill-rule:evenodd" d="m16.08 59.52c0.586-0.724 1.49 0.254 1.92 0.48-0.332 0.471-1.557-0.187-1.92-0.48z"></path> <path style="clip-rule:evenodd;fill-rule:evenodd" d="m84.96 61.44c-1.357-0.323-2.411-0.949-3.601-1.44 0.416-0.971 3.644 0.368 3.601 1.44z"></path> <path style="clip-rule:evenodd;fill-rule:evenodd" d="m36.72 61.44c-0.415 0.385-1.484 0.116-1.68 0.72 0.521 0.735 1.351-0.23 2.16 0 0.467 0.412 0.727 1.033 1.44 1.2 0.566-0.93-0.853-1.619-0.72-2.88 1.633-0.033 0.755 2.445 2.16 2.64-0.177 1.021-3.279 1.151-3.12-0.24-2.167-0.326-3.043 0.637-4.08 1.44-0.505-1.445 1.376-2.42 2.4-3.12-1.346-0.621-1.854 1.66-3.36 1.68 0.018-2.115 4.179-4.247 4.8-1.44z"></path> <path style="clip-rule:evenodd;fill-rule:evenodd" d="m51.6 60.72c-0.045 0.915-1.339 0.581-1.44 1.44 0.416 0.778 0.629-0.624 1.44-0.24-0.206 1.314-1.964 1.076-2.88 1.68 0.082-0.481-0.049-0.751-0.48-0.72 1.093-0.59 2.443-2.192 3.36-2.16z"></path> <path style="clip-rule:evenodd;fill-rule:evenodd" d="m66.48 60.48c0.388-0.067 0.413 0.227 0.72 0.24-0.292 0.428-0.044 1.396-0.48 1.68-1.02 0.046-0.273-1.504-0.24-1.92z"></path> <path style="clip-rule:evenodd;fill-rule:evenodd" d="m92.88 60.48c0.751-0.111 1.071 0.208 0.96 0.96-0.752 0.111-1.071-0.209-0.96-0.96z"></path> <path style="clip-rule:evenodd;fill-rule:evenodd" d="m69.84 61.92h0.72c0.266 1.014 0.864 1.695 1.2 2.64 0.513 0.527 1.801 0.28 1.68 1.44-2.161-0.398-2.957-2.163-3.6-4.08z"></path> <path style="clip-rule:evenodd;fill-rule:evenodd" d="m123.84 62.4c0.278-0.039 0.427 0.053 0.479 0.239 0.331 0.694-0.524 1.946-0.96 2.641-4.099-0.792-5.644 0.871-6.96 3.359-0.943-0.441-0.027-1.752 0.24-2.16 0.853-1.299 2.912-1.994 4.32-2.399 0.988 0.644 1.404-0.001 2.159 0.24 0.35-0.531 0.16-1.598 0.72-1.92z"></path> <path style="clip-rule:evenodd;fill-rule:evenodd" d="m41.04 62.64c0.388-0.067 0.413 0.228 0.72 0.24-0.03 0.61-0.35 0.931-0.96 0.96-0.446-0.424 0.104-0.7 0.24-1.2z"></path> <path style="clip-rule:evenodd;fill-rule:evenodd" d="m26.64 63.84c-1.423 0.179-3.667 0.749-4.32 2.4 0.042 1.272 0.156 1.225 0 2.399-0.608 0.432-1.088 0.992-2.16 0.96 0.528-0.752 0.546-2.014 0.48-3.359 1.247-0.486 2.907-2.986 4.56-3.12 0.286-0.023 1.474-0.317 1.44 0.72zm-4.8 4.32c-0.145-0.495 0.387-1.667-0.48-1.44 0.004 0.636-0.133 1.413 0.48 1.44z"></path> <path style="clip-rule:evenodd;fill-rule:evenodd" d="m111.36 63.12c-0.955 4.027-8.313 4.611-11.76 2.64-1.922 0.434-4.764 0.272-5.28-1.439 1.492 0.331 3.463 1.702 5.04 0.479 1.36 0.809 3.674 1.492 5.04 0.96-0.231-1.262-2.496 0.138-2.88-0.479 0.797-1.469 3.371-0.864 4.08 0.239 1.396-0.019 2.354 0.162 3.12-0.479 0.225-0.188 0.201-0.759 0.479-0.96 0.388-0.28 0.928 0.013 1.2-0.24 0.25-0.236-0.02-1.016 0.96-0.721z"></path> <path style="clip-rule:evenodd;fill-rule:evenodd" d="m19.44 63.36h0.48c0.112 0.512-0.343 0.457-0.72 0.479 0.046-0.193 0.241-0.238 0.24-0.479z"></path> <path style="clip-rule:evenodd;fill-rule:evenodd" d="m51.6 63.6c-0.126 0.914-1.414 0.667-2.4 0.721 0.151-0.741 1.942-1.085 2.4-0.721z"></path> <path style="clip-rule:evenodd;fill-rule:evenodd" d="m102.24 63.36c0.388-0.068 0.413 0.227 0.721 0.239 0.1 0.466-1.09 0.351-0.72-0.239z"></path> <path style="clip-rule:evenodd;fill-rule:evenodd" d="m43.92 64.32c-0.158 0.882-0.885 1.195-1.44 1.68-0.412 0.948-0.105 2.614-1.68 2.4 0.803-1.597 1.063-3.737 3.12-4.08z"></path> <path style="clip-rule:evenodd;fill-rule:evenodd" d="m45.6 64.32c0.008 1.287-1.363 1.196-1.68 2.159 0.216 1.496-0.441 2.119-1.2 2.641 1.747 0.862 1.58-2.256 2.88-2.641 0.15 2.575-2.554 4.501-4.8 3.12 0.499-0.86 1.75-0.969 2.4-1.68-0.084-2.083 0.853-3.147 2.4-3.599z"></path> <path style="clip-rule:evenodd;fill-rule:evenodd" d="m92.4 64.32c1.528 1.032 2.703 2.417 5.28 2.399-2.006 1.284-4.877-0.501-5.28-2.399z"></path> <path style="clip-rule:evenodd;fill-rule:evenodd" d="m29.52 65.04v0.96c-0.899 0.02-1.942 0.182-1.68-0.96 0.744 0.081 1.147-0.556 1.68 0z"></path> <path style="clip-rule:evenodd;fill-rule:evenodd" d="m27.36 65.28c0.031 0.43-0.293 0.506-0.24 0.96-1.202-0.206-1.679-0.206-2.88 0 0.348-1.407 2.199-1.238 3.12-0.96z"></path> <path style="clip-rule:evenodd;fill-rule:evenodd" d="m32.88 65.04c-0.223 1.342-1.8 1.625-3.12 1.2 0.691-0.749 2.235-0.645 3.12-1.2z"></path> <path style="clip-rule:evenodd;fill-rule:evenodd" d="m33.36 65.28c0.99-0.321 0.211 0.804 0.24 0.96 0.23 1.244 0.335 1.068 0 2.64-1.089 1.865-5.228 2.118-6.72 0.96 0.139-0.791 0.906-0.344 1.44-0.24 0.105-1.163-1.268-1.794-0.48-2.88 1.371 0.217 4.991 0.904 5.52-1.44zm-4.8 3.12c0.609 1.571 2.507 1.601 3.84 0.72 0.253-1.128-0.809 0.395-0.96-0.48 0.146-0.812 1.535-0.385 1.44-1.439-1.136 1.229-3.477-0.227-4.32 1.199z"></path> <path style="clip-rule:evenodd;fill-rule:evenodd" d="m116.4 66c-1.716 0.339-4.577 1.634-6.24 0.479 0.084-1.226 0.649-0.201 1.2-0.239 1.65-0.114 4.5-1.539 5.04-0.24z"></path> <path style="clip-rule:evenodd;fill-rule:evenodd" d="m54.96 65.52c-0.037 1.323-1.244 1.477-1.68 2.4-0.602 3.349-2.102 6.489-5.52 6.72-1.296 0.088-2.58-0.855-4.32-0.479-0.722-1.438-3.582-0.738-4.08-2.4 2.325 0.039 4.606 2.285 6.96 1.92 1.383-0.214 1.642-1.27 2.88-1.92 0.053 1.253-0.836 1.564-1.44 2.16 5.006-0.195 3.459-6.942 7.2-8.401z"></path> <path style="clip-rule:evenodd;fill-rule:evenodd" d="m120.24 65.52c0.048 0.688 0.03 1.311-0.72 1.2-0.36-0.356-0.02-1.241 0.72-1.2z"></path> <path style="clip-rule:evenodd;fill-rule:evenodd" d="m23.28 66.479c0.502-0.102 0.636 0.165 0.96 0.24 0.062 0.783-0.285 1.155-0.96 1.2v-1.44z"></path> <path style="clip-rule:evenodd;fill-rule:evenodd" d="m38.64 66.96h0.72c-0.042 0.758-0.168 1.432-0.96 1.44-0.529-0.506 0.308-0.71 0.24-1.44z"></path> <path style="clip-rule:evenodd;fill-rule:evenodd" d="m94.56 77.52c-1.483-0.108-3.297-2.016-3.6-3.84-0.223-1.339 0.539-2.781 0.239-4.08-0.241-1.046-1.193-1.354-1.439-2.159 0.213-0.187 0.542-0.259 0.96-0.24 0.269 0.879 1.286 1.552 1.439 2.64 0.151 1.071-0.556 2.113-0.479 3.12 0.175 2.314 1.56 2.804 2.88 4.559z"></path> <path style="clip-rule:evenodd;fill-rule:evenodd" d="m101.04 67.68c-0.898 1.393-3.95 2.191-5.76 1.2 0.938-1.142 4.379 0.219 4.8-1.439 0.5-0.102 0.64 0.163 0.96 0.239z"></path> <path style="clip-rule:evenodd;fill-rule:evenodd" d="m34.8 67.68c0.068 0.628-0.087 1.032-0.72 0.96 0.101-0.459 0.087-1.033 0.72-0.96z"></path> <path style="clip-rule:evenodd;fill-rule:evenodd" d="m117.6 67.68c0.388 0.701 0.591 0.264 1.439 0.24-1 1.319-2.547 2.093-2.88 4.08-1.278 1.078-3.293 0.807-5.279 1.2-1.271 0.251-2.349 0.938-3.601 0.96-1.382 0.024-2.943-0.396-4.08-0.96 1.307-1.486 4.29 1.041 6 0-1.543-0.856-4.656-0.144-5.52-1.681 2.745 0.407 7.435 1.628 10.56 0.721 0.52-0.151 0.953-0.553 1.44-0.721 0.17-0.89-0.41-1.029-0.24-1.92 0.94-0.425 1.68-1.036 2.16-1.919z"></path> <path style="clip-rule:evenodd;fill-rule:evenodd" d="m45.84 67.92c0.95-0.31 0.49 0.79 1.44 0.48-0.142 1.137-0.668 1.891-0.96 2.88 2.095 0.175 0.834-3.006 2.64-3.12 0.046 1.246-0.677 1.723-1.2 2.399 0.893 0.394 1.137-1.67 2.88-1.199-0.206 0.754-0.907 1.013-0.96 1.92-0.295-0.105-0.493-0.308-0.48-0.721-1.141 1.305-3.497 2.04-6 1.681-1.071-0.154-2.205-0.896-2.88-1.2 0.221-1.327 1.412 0.123 1.92 0.24 1.1 0.253 2.176 0.081 3.12 0.479 0.878-0.846 1.244-2.669 0.48-3.839z"></path> <path style="clip-rule:evenodd;fill-rule:evenodd" d="m114.24 68.16c-1.058 2.286-5.744 2.316-8.16 1.2-0.337 1.058 0.79 0.65 1.44 0.72 0.246 0.807-0.746 0.373-1.2 0.479 0.488 0.553 1.437 0.645 2.4 0.721 0.413-1.348 3.113-0.407 4.319-0.96 0.068 0.388-0.227 0.413-0.239 0.72 0.053 0.343 1.194-0.223 1.92 0-0.062-0.498-1.055-0.065-1.2-0.48 0.221-0.419 0.75-0.529 1.44-0.479 0.155 0.876-0.162 1.278-0.48 1.68-3.537-0.523-7.447 0.76-9.6-1.2 0.208-0.351 0.359-0.76 0.96-0.72-0.438-0.763-2.22-0.18-1.92-1.68 3.083 0.308 7.574 2.548 9.6-0.24 0.39-0.068 0.41 0.225 0.72 0.239z"></path> <path style="clip-rule:evenodd;fill-rule:evenodd" d="m46.08 69.12c-0.498 0.622-0.211 2.029-1.44 1.92 0.143-0.977 0.382-1.858 1.44-1.92z"></path> <path style="clip-rule:evenodd;fill-rule:evenodd" d="m67.92 69.36c1.244-0.037 0.75 2.922 0.48 3.6-0.756-0.517-0.833-2.747-0.48-3.6z"></path> <path style="clip-rule:evenodd;fill-rule:evenodd" d="m94.32 69.6c0.843-0.042 0.789 0.812 1.44 0.96 1.522 0.103 3.767-0.149 4.56 0-0.945 1.614-6.422 1.326-6-0.96z"></path> <path style="clip-rule:evenodd;fill-rule:evenodd" d="m82.32 69.84c1.375 0.306 0.675 2.686 1.92 3.12-0.854 0.985-0.673 3.007-1.439 4.08-1.144-0.674 0.141-2.833 0.479-3.6-0.179-1.242-1.413-2.503-0.96-3.6z"></path> <path style="clip-rule:evenodd;fill-rule:evenodd" d="m108.72 70.56c-0.53 0.733-1.54-0.277 0 0z"></path> <path style="clip-rule:evenodd;fill-rule:evenodd" d="m57.12 72h0.48c1.368 0.072 0.859 2.021 0.96 3.36-0.926 0.046-0.256-1.505-0.72-1.92-0.096-0.624-0.716-0.724-0.72-1.44z"></path> <path style="clip-rule:evenodd;fill-rule:evenodd" d="m68.88 72.72h0.72c0.904 5.054-4.584 6.252-2.64 11.04-0.655 0.021-0.483-0.399-0.96 0 0.014 2.066 1.811 2.35 2.16 4.08-2.94-1.019-2.751-4.461-2.16-7.92 1.269-2.091 3.301-3.419 2.88-7.2z"></path> <path style="clip-rule:evenodd;fill-rule:evenodd" d="m85.68 72.72c1.226 0.295 1.182 1.858 1.68 2.88 0.244-0.155 0.248-0.552 0.72-0.479-0.071 3.309 1.424 6.812 4.32 7.92-0.856-1.624-2.504-2.456-2.88-4.561 1.274-0.234 0.886 1.194 1.44 1.681 2.193 3.9 7.99 6.479 12.96 3.6-0.182 1.265-2.018 1.59-3.12 1.2 2.21 2.693 3.824-2.061 6-1.92-0.107 1.413-2.121 0.919-1.92 2.64-2.775 1.591-4.796 0.009-8.16 0.48 0.624 1.009 2.129 1.314 3.359 1.439 1.469 0.15 4.013 0.108 5.28-0.479 1.414-0.656 1.707-2.297 3.12-2.641-0.065 3.652-8.62 5.537-12 2.641-1.013-0.868-1.145-2.192-1.92-2.88-4.366-0.514-6.481-3.279-7.2-7.44-0.166 1.834-0.874 3.126-1.2 4.8-0.439-0.385-0.812 0.222-1.199-0.479-0.104-1.161 0.507-0.236 0.96-0.96 0.415-1.504 0.938-2.901 0.72-5.04-0.154-0.908-1.569-1.496-0.961-2.402z"></path> <path style="clip-rule:evenodd;fill-rule:evenodd" d="m80.64 72.96c0.279-0.039 0.427 0.053 0.479 0.24 0.117 1.583 0.187 2.397 0.24 3.6-1.31 1.49-1.629 3.971-1.439 6.96-1.194-0.698-0.901-2.802-0.721-3.84 0.261-1.492 1.145-2.874 1.681-3.84-0.647-0.413-0.658-2.405-0.24-3.12z"></path> <path style="clip-rule:evenodd;fill-rule:evenodd" d="m21.84 74.16c-0.366 0.369-1.646 0.428-1.44-0.48 0.366-0.369 1.645-0.427 1.44 0.48z"></path> <path style="clip-rule:evenodd;fill-rule:evenodd" d="m67.68 73.44h0.72c-0.511 4.376-5.356 7.083-2.88 12.72-1.28-0.16-1.132-1.748-1.44-2.88-0.319-0.882-1.102-1.299-1.44-2.16 0.137-2.983 0.114-6.126 2.4-6.96-0.72 1.359-1.228 2.932-1.68 4.56 1.009 0.283 0.843-2.673 2.4-2.64-0.572 1.763-2.725 3.629-1.44 5.76 0.286-3.634 2.95-4.89 3.36-8.4z"></path> <path style="clip-rule:evenodd;fill-rule:evenodd" d="m25.92 73.92c0.279-0.039 0.427 0.053 0.48 0.24-0.588 0.931-0.69 2.35-1.92 2.64 0.218 0.871 0.708 0.146 1.44 0.24 0.258 0.968-0.81 0.51-1.44 0.72-1.915 0.64-6.785 2.106-7.44-1.439 1.418 0.581 2.17 1.829 4.32 1.68-0.039-1.081-1.754-0.486-1.68-1.68 1.082-0.274 2.679-0.215 4.56-0.24 0.709-0.571 1.142-1.419 1.68-2.161zm-4.8 3.36c0.901 0.469 2.295 0.722 2.64-0.48-0.891 0.149-2.47-0.39-2.64 0.48z"></path> <path style="clip-rule:evenodd;fill-rule:evenodd" d="m8.4 76.08c-0.2 2.386-3.108 0.438-4.08 0-1.34 0.34-1.64 1.72-3.12 1.92 0.427-2.751 3.739-3.382 5.52-1.68 0.832 0.193 0.923-0.357 1.68-0.24z"></path> <path style="clip-rule:evenodd;fill-rule:evenodd" d="m36.48 75.36c-0.188 1.171-1.252 1.468-2.64 1.439 0.454-1.398 1.526-0.701 2.64-1.439z"></path> <path style="clip-rule:evenodd;fill-rule:evenodd" d="m84.24 75.36h0.721c-0.078 1.762-0.183 3.497-1.44 4.08 0.281-1.318 0.437-2.761 0.719-4.08z"></path> <path style="clip-rule:evenodd;fill-rule:evenodd" d="m90.72 75.84c1.327 0.136 0.485 1.104 0.72 1.68 1.37 3.368 6.715 4.006 10.32 3.601-2.515 2.608-12.298-0.652-11.04-5.281z"></path> <path style="clip-rule:evenodd;fill-rule:evenodd" d="m49.68 76.8c-0.518 1.003-2.123 0.918-3.6 0.96-0.408-0.088-0.453 0.188-0.48 0.48-1.218 0.171-2.104-1.127-3.12-1.2-1.849-0.133-2.489 1.068-4.08 1.68-0.113-0.753 0.646-0.634 0.72-1.2-1-0.12-1.059 0.702-2.16 0.48-0.151 1.499-0.554 1.803-0.24 3.36-1.26-0.458-1.468-2.336-0.72-3.36 0.891-1.222 3.536-1.905 6-1.68 2.021 0.185 2.99 1.008 5.52 0.72 0.838-0.096 1.327-0.666 2.16-0.24z"></path> <path style="clip-rule:evenodd;fill-rule:evenodd" d="m10.32 77.04c1.181-0.049 2.038 1.076 1.2 1.68-0.651-0.309-1.207-0.713-1.2-1.68z"></path> <path style="clip-rule:evenodd;fill-rule:evenodd" d="m25.68 78.24c0.645-0.166 0.464 0.496 0.72 0.72 1.079-0.491 1.322-0.907 2.4-0.48-1.843 2.48-7.02 0.604-9.36 3.12-1.172-0.181-1.489-1.122-2.88-0.479-0.21-0.771 0.623-0.498 0.72-0.96-1.094 0.396-4.37 1.746-4.56-0.48 0.864-0.063 1.156 0.443 1.92 0.48 1.154-0.126 2.013-0.548 2.88-0.96 0.798 0.241 2.611-0.531 2.64 0.479-0.815 0.065-1.946-0.186-2.4 0.24 0.4 0.399 1.155 0.445 1.44 0.96 1.387-1.197 3.296-2.241 5.76-1.68 0.493-0.067 0.479-0.641 0.72-0.96z"></path> <path style="clip-rule:evenodd;fill-rule:evenodd" d="m60.96 78.72c1.018 0.407 0.181 2.821-0.96 2.641 0.285-0.916 0.638-1.763 0.96-2.641z"></path> <path style="clip-rule:evenodd;fill-rule:evenodd" d="m35.28 85.92c-0.067-0.388 0.227-0.413 0.24-0.72-1.219 0.105-0.281 0.506-0.24 1.2-0.878 0.881-2.19 1.329-4.08 1.199 0.051-1.469 2.899-0.14 3.12-1.439-0.5-1.416-1.589 1.03-2.4 0 0.362-0.679 1.292-0.789 1.92-1.2 0.224-0.976 0.388-2.013 0.72-2.88 1.196 0.324 0.002 1.96 0 2.64 0.819 0.173 2.497-0.857 3.36-1.439 0.182-1.438-0.652-2.399-0.24-3.36 1.837 1.335 0.71 4.734-1.2 5.04 1.074 0.294 2.311-0.768 2.64-1.92 0.377-1.318-0.629-3.005-0.48-3.84 1.106-0.146 0.856 1.063 1.44 1.439 0.025 0.745-0.755 0.686-0.48 1.681 0.242 0.604 0.6-0.653 0.96-0.721 0.156 0.802-1.641 3.576-2.88 4.08-0.69 0.281-1.578 0.143-2.4 0.24z"></path> <path style="clip-rule:evenodd;fill-rule:evenodd" d="m68.4 79.2c0.112 0.747-0.604 0.857-0.96 0.479 0.058-0.421 0.413-0.546 0.96-0.479z"></path> <path style="clip-rule:evenodd;fill-rule:evenodd" d="m108.72 80.64c-0.952 1.368-3.563 1.077-4.561 2.4-3.34-0.035-6.417 1.803-8.88 0 0.506-0.876 2.176 0.233 4.08 0 0.869-0.106 1.511-0.512 2.16-0.72 1.193 0.073 2.202-0.038 3.12-0.24 0.102-0.981-1.631-0.13-1.68-0.96 0.231-0.978 2.351-0.048 3.119 0 0.63-0.258 1.96-1.07 2.64-0.48z"></path> <path style="clip-rule:evenodd;fill-rule:evenodd" d="m12.72 80.88c0.768 0.032 1.056 0.544 0.96 1.44 0.335 1.024 2.932-0.212 2.64 1.439-1.657-0.397-4.32-0.433-3.6-2.879z"></path> <path style="clip-rule:evenodd;fill-rule:evenodd" d="m22.8 80.88c0.154 1.079-1.215 1.49-1.68 1.2 0.101-0.859 0.765-1.155 1.68-1.2z"></path> <path style="clip-rule:evenodd;fill-rule:evenodd" d="m18.48 81.84c-0.498 0.94-3.367 0.71-4.08 0.24 1.012-0.41 3.264-1.106 4.08-0.24z"></path> <path style="clip-rule:evenodd;fill-rule:evenodd" d="m124.32 82.32c0.097 1.424-2.513 2.714-3.12 1.199 0.727-0.293 1.286 0.201 2.16-0.239 0.257-0.896-0.596-0.685-0.479-1.44 0.51-0.516 1.31-0.089 1.44 0.48z"></path> <path style="clip-rule:evenodd;fill-rule:evenodd" d="m59.76 81.84c0.73 0.02 0.562 1.569 0.24 1.92-0.73-0.019-0.562-1.57-0.24-1.92z"></path> <path style="clip-rule:evenodd;fill-rule:evenodd" d="m19.68 82.32c-0.283 1.317-1.635 1.564-1.44 3.359-0.896-0.464-2.147-0.573-3.6-0.479-0.107-1.759 1.485-0.446 2.64-0.721 0.931-0.587 0.972-2.067 2.4-2.159z"></path> <path style="clip-rule:evenodd;fill-rule:evenodd" d="m41.04 82.56h0.72c0.222 1.822-1.253 1.947-1.44 3.36h-1.44c0.829-1.011 1.667-2.013 2.16-3.36z"></path> <path style="clip-rule:evenodd;fill-rule:evenodd" d="m88.56 82.56c0.747 0.454 0.645 1.756 1.439 2.16 1.311 0.37 2.771 0.591 4.08 0.96 1.342 3.299 5.507 3.774 8.881 5.04-0.577 0.956-2.255 0.133-3.36-0.24-2.669-0.898-4.939-1.855-6-4.319-2.675 0.064-6.196-1.417-5.04-3.601z"></path> <path style="clip-rule:evenodd;fill-rule:evenodd" d="m43.92 84.479c-0.242-0.154-0.826-0.146-1.68-0.239-0.102-0.502 0.165-0.636 0.24-0.96 0.512-0.112 0.457 0.343 0.48 0.72 0.648-0.072 0.431-1.01 0.96-1.2 1.666 0.603 0.063 3.157-0.24 4.08-0.037 0.938 1.161 3.028-0.24 3.12 0.061-1.125-0.436-2.828-0.24-3.84-1.626 0.107 0.197 2.204-0.96 2.64 0.414 1.33 2.073 4.272-0.479 4.561-0.129-0.93 0.611-0.988 0.72-1.681-0.14-0.899-0.483-1.597-1.2-1.92 0.073-0.56 0.513-1.034-0.24-1.2 0.585-0.954 0.997-1.588 0.96-2.64 0.45-0.669 1.909-0.33 1.919-1.441z"></path> <path style="clip-rule:evenodd;fill-rule:evenodd" d="m56.4 83.52v0.96h-0.96c-0.111-0.751 0.208-1.072 0.96-0.96z"></path> <path style="clip-rule:evenodd;fill-rule:evenodd" d="m63.36 83.52c0.356 0.204 0.516 0.604 0.48 1.2-0.714 0.051-0.846-0.856-0.48-1.2z"></path> <path style="clip-rule:evenodd;fill-rule:evenodd" d="m120.48 84h-2.4c0.25-0.363 2.32-1.014 2.4 0z"></path> <path style="clip-rule:evenodd;fill-rule:evenodd" d="m73.68 84h0.72c-0.17 1.789 0.887 3.096 1.44 4.8-1.557-0.632-2.434-3.126-2.16-4.8z"></path> <path style="clip-rule:evenodd;fill-rule:evenodd" d="m31.44 86.16c-0.049 0.831-1.323 0.437-1.92 0.72 0.524 2.515 3.75 0.716 5.04 1.68-1.374 1.564-4.084 0.639-5.76 0 0.352-0.734 0.065-1.25-0.24-1.92-1.043-1.041-4.715-0.825-5.04 0.96 0.382 0.974 3.291-0.396 4.32 0.48-0.923 1.022-2.644 0.405-4.08 0.479-0.499 0.062-0.066 1.055-0.48 1.2-1.779-0.947-0.41-3.597 0.96-4.319 1.818-0.959 4.127-0.261 5.28 0.72 0.449-0.054 1.59-0.619 1.92 0z"></path> <path style="clip-rule:evenodd;fill-rule:evenodd" d="m36.96 88.56c0.256 1.119-0.627 1.894 0 2.641-0.322 3.113-8.825 4.564-9.6 0.72 1.023-0.062 0.958 0.963 1.68 1.2 2.726 0.333 5.6 0.513 6.96-1.92 0.293-1.094-0.658-0.941-0.48-1.92 1.183-2.178 5.119-1.602 6-4.08 0.315-0.288 0.377-0.094 0.72 0-0.782 2.098-2.767 2.991-5.28 3.359z"></path> <path style="clip-rule:evenodd;fill-rule:evenodd" d="m80.64 84.96c0.422 0.058 0.547 0.413 0.479 0.96-0.746 0.112-0.857-0.604-0.479-0.96z"></path> <path style="clip-rule:evenodd;fill-rule:evenodd" d="m48.72 85.44c1.593 0.086 2.37 0.989 2.64 2.399-0.747-0.932-2.305-1.054-2.64-2.399z"></path> <path style="clip-rule:evenodd;fill-rule:evenodd" d="m51.36 85.44h0.96c-0.004 2.563 1.718 3.401 2.16 5.52-1.026-0.63-0.649 0.322-1.44 0.48 0.039-0.279-0.053-0.428-0.24-0.48-0.165-0.646 0.497-0.464 0.72-0.72-0.631-1.669-2.594-2.809-2.16-4.8z"></path> <path style="clip-rule:evenodd;fill-rule:evenodd" d="m58.32 86.16c0.388-0.067 0.414 0.227 0.72 0.24 0.072 0.632-0.333 0.787-0.96 0.72-0.101-0.502 0.165-0.636 0.24-0.96z"></path> <path style="clip-rule:evenodd;fill-rule:evenodd" d="m38.88 86.64c-0.515 0.525-1.322 0.759-2.4 0.721-0.871-0.009-1.307 1.213-1.92 0.72 0.425-1.377 2.908-1.837 4.32-1.441z"></path> <path style="clip-rule:evenodd;fill-rule:evenodd" d="m27.36 86.88c-0.058 0.422-0.413 0.547-0.96 0.48-0.242-0.722 0.535-0.425 0.96-0.48z"></path> <path style="clip-rule:evenodd;fill-rule:evenodd" d="m48.24 87.36c0.93-0.131 0.208 1.392 0.96 1.439-0.628 0.921-1.798-0.893-0.96-1.439z"></path> <path style="clip-rule:evenodd;fill-rule:evenodd" d="m54 88.08c0.295 0.104 0.493 0.307 0.48 0.72-0.295-0.105-0.493-0.307-0.48-0.72z"></path> <path style="clip-rule:evenodd;fill-rule:evenodd" d="m100.08 90.72c0.127 0.193 0.251 0.39 0.24 0.721-3.389 0.028-5.075-1.645-6.72-3.36 2.426 0.612 3.292 2.786 6.48 2.639z"></path> <path style="clip-rule:evenodd;fill-rule:evenodd" d="m77.52 88.32c-0.076 1.184-1.086 0.174 0 0z"></path> <path style="clip-rule:evenodd;fill-rule:evenodd" d="m99.12 92.64c-0.361 1.041-2.269-0.203-3.359 0-0.777-0.902-1.597-1.763-2.16-2.88-0.763-0.277-1.953-0.127-1.92-1.2 2.262-0.681 2.739 2.192 4.319 3.12 1.021 0.599 2.07 0.084 3.12 0.96z"></path> <path style="clip-rule:evenodd;fill-rule:evenodd" d="m38.64 88.56h0.48c0.112 0.513-0.343 0.458-0.72 0.48 0.046-0.194 0.241-0.239 0.24-0.48z"></path> <path style="clip-rule:evenodd;fill-rule:evenodd" d="m73.2 95.52c0.037 0.598-0.377 0.743-0.479 1.2 1.639-1.321 3.729-2.191 5.279-3.6-0.941-1.192 0.643-2.818-0.239-4.561 2.205 0.727 0.223 3.163 0.96 5.28-1.375 1.105-3.171 1.789-4.561 2.88-0.255 1.06 0.475 1.855 0 2.4-0.647-0.072-0.43-1.01-0.96-1.2-0.842 1.251 0.754 2.119 0.96 3.12-1.822-0.13-3.313-4.952-0.96-5.52z"></path> <path style="clip-rule:evenodd;fill-rule:evenodd" d="m49.68 88.8c0.424 0.216 0.701 0.579 1.2 0.72-0.145 0.575-0.345 1.096-0.24 1.921-0.814-0.387-0.887-1.514-1.92-1.681 0.217-0.423 0.884-0.397 0.96-0.96z"></path> <path style="clip-rule:evenodd;fill-rule:evenodd" d="m58.32 88.8c0.794 0.406 1.574 1.835 1.2 2.641-0.653-0.548-1.743-1.668-1.2-2.641z"></path> <path style="clip-rule:evenodd;fill-rule:evenodd" d="m56.16 89.04h0.72c0.262 1.578 1.579 2.102 1.68 3.84-1.193-0.887-1.93-2.23-2.4-3.84z"></path> <path style="clip-rule:evenodd;fill-rule:evenodd" d="m44.64 89.28c1.624 0.239 0.902 3.325-0.48 3.359-0.239-0.898 1.158-1.84 0.48-3.359z"></path> <path style="clip-rule:evenodd;fill-rule:evenodd" d="m107.76 89.76c0.214 0.106 0.429 0.211 0.479 0.48-0.863 0.896-1.407 2.112-2.399 2.88-1.717-0.364-4.957 0.796-5.521-0.72 1.631-0.563 3.473 0.299 5.28-0.24 0.78-0.74 1.16-1.88 2.16-2.4z"></path> <path style="clip-rule:evenodd;fill-rule:evenodd" d="m77.04 90c1.385 0.043 0.443 2.021-0.479 1.92-0.18-0.979 0.772-0.826 0.479-1.92z"></path> <path style="clip-rule:evenodd;fill-rule:evenodd" d="m34.08 90.479h0.96c0.111 0.752-0.208 1.072-0.96 0.961v-0.961z"></path> <path style="clip-rule:evenodd;fill-rule:evenodd" d="m51.36 90.479c0.914 0.287 0.476 1.925 1.44 2.16-0.34 1.34-1.307 2.054-2.64 2.4 0.398-1.736 1.492-2.748 1.2-4.56z"></path> <path style="clip-rule:evenodd;fill-rule:evenodd" d="m37.2 90.96c0.7-0.353 0.7 1.073 0 0.72v-0.72z"></path> <path style="clip-rule:evenodd;fill-rule:evenodd" d="m54.96 90.96c0.84 0.52 1.313 1.407 1.44 2.64-0.38 0.021-0.916-0.115-0.96 0.24-0.417-0.623-0.11-1.97-1.2-1.92 0.072-0.488 0.481-0.64 0.72-0.96z"></path> <path style="clip-rule:evenodd;fill-rule:evenodd" d="m86.88 92.88c-1.242 0.878-3.844-0.063-4.08-1.68 0.213-0.187 0.542-0.258 0.96-0.24 0.166 2.019 2.495 0.665 3.12 1.92z"></path> <path style="clip-rule:evenodd;fill-rule:evenodd" d="m33.12 91.44h0.72v0.96c-0.801 0.241-0.787-0.333-0.72-0.96z"></path> <path style="clip-rule:evenodd;fill-rule:evenodd" d="m86.4 91.68c2.386-0.842 4.046 2.324 3.84 4.08-0.939-0.452-0.828-1.656-1.439-2.399-0.689-0.837-1.355-1.106-2.401-1.681z"></path> <path style="clip-rule:evenodd;fill-rule:evenodd" d="m46.08 92.16h0.72c0.039 1.318-1.052 1.508-1.2 2.64-2.77 0.597-4.923 0.164-7.2 0.24-0.186-1.146 1.979 0.06 2.16-0.72-0.342-0.698-2.447 0.366-2.16-0.96 2.446-0.183 6.801 2.931 7.68-1.2z"></path> <path style="clip-rule:evenodd;fill-rule:evenodd" d="m49.68 92.16h0.72c0.047 0.688 0.03 1.31-0.72 1.2-0.308-0.315-0.308-0.884 0-1.2z"></path> <path style="clip-rule:evenodd;fill-rule:evenodd" d="m53.28 92.16h0.72c0.151 2.871-2.046 3.394-3.36 4.8-0.157 1.949 1.865 2.618 0.96 4.56-0.544-0.106-1.101-1.032-0.24-1.199-1.071-0.743-1.81-2.364-1.2-4.08 1.181-1.219 3.328-1.472 3.12-4.08z"></path> <path style="clip-rule:evenodd;fill-rule:evenodd" d="m76.32 92.16c0.225 0.176 0.363 0.437 0.48 0.72-0.276 0.844-1.183 1.058-1.681 1.68-0.727-0.979 1.012-1.54 1.201-2.4z"></path> <path style="clip-rule:evenodd;fill-rule:evenodd" d="m80.16 92.4h0.721c0.121 2.082 0.057 5.877 2.159 6.72-0.479 0.401-0.798 0.961-0.96 1.68-1.548-0.452-2.362-1.637-3.359-2.64-0.633-2.85 0.839-3.619 1.439-5.76zm0.48 5.52c-0.062-1.297 0.298-3.019-0.72-3.36-0.68 0.967-0.599 3.086 0.72 3.36zm-0.48 1.2c0.458 0.103 0.435 0.686 1.2 0.479 0.076-0.748-1.11-1.281-1.2-0.479z"></path> <path style="clip-rule:evenodd;fill-rule:evenodd" d="m43.92 92.88c0.4 0.477-0.021 0.306 0 0.96-0.924 0.189-0.924-1.15 0-0.96z"></path> <path style="clip-rule:evenodd;fill-rule:evenodd" d="m59.04 92.88c0.908 0.019 1.759 0.945 1.2 1.68-0.817-0.109-1.532-1.173-1.2-1.68z"></path> <path style="clip-rule:evenodd;fill-rule:evenodd" d="m74.4 93.36c0.286 1.035-0.692 1.438-1.2 0.96 0.045-0.675 0.418-1.022 1.2-0.96z"></path> <path style="clip-rule:evenodd;fill-rule:evenodd" d="m47.28 93.6c0.102 0.502-0.164 0.636-0.24 0.96-0.696-0.043-0.579-1.141 0.24-0.96z"></path> <path style="clip-rule:evenodd;fill-rule:evenodd" d="m57.6 93.6c-0.515 1.565-1.491 2.67-2.88 3.36 0.374-0.986 1.118-1.602 1.92-2.16 0.017-0.703 0.087-1.353 0.96-1.2z"></path> <path style="clip-rule:evenodd;fill-rule:evenodd" d="m55.68 93.84c1.071 0.675-0.877 2.263-1.92 2.4 0.003-1.437 1.88-1 1.92-2.4z"></path> <path style="clip-rule:evenodd;fill-rule:evenodd" d="m73.2 95.52c-0.109-0.749 0.513-0.767 1.2-0.72-0.298 0.404-0.698 1.225-1.2 0.72z"></path> <path style="clip-rule:evenodd;fill-rule:evenodd" d="m38.16 95.28c0.067 0.627-0.088 1.032-0.72 0.96-0.127-0.193-0.25-0.39-0.24-0.721 0.214-0.185 0.542-0.257 0.96-0.239z"></path> <path style="clip-rule:evenodd;fill-rule:evenodd" d="m51.36 96.72c0.794 0.406 0.573 1.827 0.96 2.641-0.739-0.462-1.116-1.285-0.96-2.641z"></path> <path style="clip-rule:evenodd;fill-rule:evenodd" d="m88.56 97.2c1.188 0.412 1.071 2.128 2.64 2.16-0.991 1.37-3.357-1.023-2.64-2.16z"></path> <path style="clip-rule:evenodd;fill-rule:evenodd" d="m69.36 101.28c0.612 0.027 1.235 0.045 1.2 0.72-0.634-0.01-1.504 0.22-1.2-0.72z"></path> <path style="clip-rule:evenodd;fill-rule:evenodd" d="m54 102.96c-0.852-0.027-1.934 0.174-1.92-0.72 0.946 0.06 2.066-0.79 1.92 0.72z"></path> <path style="clip-rule:evenodd;fill-rule:evenodd" d="m66 102c-0.316 0.564-0.669 1.091-0.48 2.16 0.232 0.808 1.645 0.436 1.44 1.68-1.819-0.29-3.475-3.16-0.96-3.84z"></path> <path style="clip-rule:evenodd;fill-rule:evenodd" d="m70.08 105.12c-0.867-0.148-3.355-0.604-4.08-1.68 1.171-0.16 3.542 0.42 4.08 1.68z"></path> <path style="clip-rule:evenodd;fill-rule:evenodd" d="m70.8 110.4c0.938 0.057 0.868-0.892 1.199-1.44 0.678 0.123 1.02 0.581 1.681 0.72-0.201 0.279-0.316 0.644-0.24 1.2-4.188 0.612-7.8 6.87-0.72 6.96-0.985 1.824-4.684 0.005-5.04-1.92-0.237-1.28 0.956-1.879 0.72-3.36 0.538-0.262 1.203-0.397 1.68-0.72 0.681-2.92-2.073-2.406-2.64-4.08 1.524-0.43 2.641 1.48 3.36 2.64z"></path> <path style="clip-rule:evenodd;fill-rule:evenodd" d="m60 108.24c0.388-0.067 0.413 0.227 0.72 0.239 0.072 0.633-0.333 0.788-0.96 0.721-0.102-0.5 0.164-0.64 0.24-0.96z"></path> <path style="clip-rule:evenodd;fill-rule:evenodd" d="m73.68 109.2c0.241-0.604 1.062 0.19 0.96 0.72-0.489-0.07-0.471-0.65-0.96-0.72z"></path> <path style="clip-rule:evenodd;fill-rule:evenodd" d="m60.96 110.4c0.792 0.008 0.917 0.683 0.96 1.439-0.891 0.09-1.414-0.92-0.96-1.44z"></path> <path style="clip-rule:evenodd;fill-rule:evenodd" d="m76.08 110.4c-0.308 1.451-1.59 1.93-2.88 2.399 0.428-1.33 1.653-1.87 2.88-2.4z"></path> <path style="clip-rule:evenodd;fill-rule:evenodd" d="m72.24 111.6c0.837 1.12-1.211 0.97 0 0z"></path> <path style="clip-rule:evenodd;fill-rule:evenodd" d="m92.4 28.56c-0.143-1.502 1.348-1.373 1.92-2.16-0.601-0.215-1.821 0.368-2.64 0.24-0.411-0.947-0.708-2.047 0-2.64 0.868 0.363-0.047 1.44 0.72 2.16 0.214-0.187 0.542-0.258 0.96-0.24 0.042-0.602-0.537-0.583-0.72-0.96 0.385-0.85 2.021 0.259 2.16-1.2 1.818 0.997-0.71 3.216 0.72 3.6-0.325 0.907-1.65-0.256-2.4 0.48 0.288 0.315 0.094 0.377 0 0.72 1.026-0.014 1.759-0.322 2.641-0.48-0.101 1.189 0.072 0.782 0.96 0.72 0.002 2.21 2.36 3.427 0.72 5.04 0.454 0.606 0.842-0.221 1.44 0.24-1.051 0.95-1.243 2.757-1.681 4.32-1.417 0.263-1.877 1.483-2.64 2.4-1.863 0.244-3.194-0.787-5.04-1.2-0.168-0.739-0.168-0.461 0-1.2-1.228-1.173-4.105-0.694-4.56-2.64 1.493 0.385 3.006 1.902 5.039 0.96-1.052-1.268-4.864 0.224-4.8-2.16-0.428-0.772-2.09-0.31-1.92-1.68 1.578 0.183 2.376 1.145 2.88 2.4 1.819 0.101 3.245 0.596 5.04 0.72-0.126-0.914-1.413-0.667-2.399-0.72-0.966-1.434-3.323-1.477-4.32-2.88 0.729-0.609 1.12 0.657 2.4 0.24 0.542-0.207 0.882-1.25 0.479-1.68-1.022 0.018-1.679 0.401-2.88 0.24-0.457-0.663-0.672-1.568-0.96-2.4 0.923 0.197 2.053 0.188 2.16 1.2h-0.96c1.521 1.083 2.789-0.445 4.8-0.48-0.417-0.878-0.209-2.185 1.2-1.92-0.043 1.077-0.415 1.825-0.96 2.4 1.123 0.74 2.571-1.125 3.6-0.48 0.181 0.901-0.917 0.523-0.96 1.2 0.423 0.25 1.771-0.621 2.4-0.96-0.691-0.508-1.494-0.906-2.399-1.2zm4.32 2.88c-0.003-0.877-0.475-1.286-0.96-1.68-0.432 0.553 0.558 1.219 0.96 1.68zm-8.64 0.24c0.178 0.383 1.175-0.055 0.96 0.72-0.755-0.115-0.938 0.342-1.439 0.48 0.479 0.961 1.235 1.645 2.64 1.68-0.036-1.164-1.804-0.596-1.92-1.68 1.606-0.152 2.219 1.364 4.08 1.2-0.004 0.396-0.666 0.134-0.72 0.48 0.84 0.04 1.536-0.064 1.92-0.48-0.936-1.438-2.892-0.446-3.84-1.68 0.652-0.563-0.241-1.184 0.96-1.2-0.237 1.062-0.037 0.628 0.24 1.44 0.598-0.202 1.285-0.314 2.159-0.24 0.745 0.696 1.143 1.738 2.16 2.16 0.18-0.74-0.827-0.292-0.479-1.2 0.389 0.361 1.771 0.361 2.16 0 0.124-1.242-0.733-1.103-1.2-1.44-0.112-0.081-0.129-0.608-0.24-0.72-1.014-1.014-3.168 0.737-4.08 0.96 0.021-0.897 0.27-0.684 0-1.44-1.532-0.092-2.842 0.039-3.361 0.96zm8.16 2.64c-0.709 0.209 0.557 0.359 0.24 0.96-0.241 0-0.285 0.195-0.48 0.24-2.7-0.937-3.543 1.835-6 1.92-0.207 1.625 1.08 0.327 1.681 0.96-1.119-1.542 2.079-1.542 0.96 0 0.454-0.054 0.529 0.271 0.96 0.24 0.646-0.624-0.294-0.724-0.24-1.44 0.241 0 0.286-0.194 0.48-0.24 0.358-0.004 0.981 0.892 1.199 0.24-0.367-0.433-0.88-0.72-1.439-0.96 2.082 0.288 3.505 0.233 3.6-1.92-0.356-0.278-0.606-0.278-0.961 0zm-4.56 5.28c0.385-0.668-1.037-0.664-0.96-0.24 0.453-0.054 0.53 0.27 0.96 0.24z"></path> <path style="clip-rule:evenodd;fill-rule:evenodd" d="m87.12 24.96v0.96c-0.783-0.664-1.591 0.186-1.68 0.96-0.791-0.008-0.917-0.683-0.96-1.44 1.095 0.89 1.487-0.197 2.64-0.48z"></path> <path style="clip-rule:evenodd;fill-rule:evenodd" d="m87.6 26.88c-0.183 0.617-0.583 1.018-1.2 1.2-0.332 0.597 0.384-1.399 1.2-1.2z"></path> <path style="clip-rule:evenodd;fill-rule:evenodd" d="m50.4 39.12c0.043-0.523-0.196-0.764-0.72-0.72 0.592-1.248 0.985-2.694 2.64-2.88 0.332 0.958-0.886 1.021-1.2 1.68-0.782 1.64-0.3 4.03-2.16 4.8-1.007 0.032-1.341-0.437-2.16 0 0.571 1.521 0.784 3.678-1.44 3.6 0.023-0.938 1.172-0.749 1.2-1.68-0.425-1.189-0.865-1.626-0.24-2.88 1.667 0.352 2.769-0.774 3.12-2.4 0.981 0.376-0.296 1.696-0.48 2.4-0.044 0.204 0.094 0.227 0.24 0.24 0.384-0.735 0.795-1.445 1.2-2.16z"></path> <path style="clip-rule:evenodd;fill-rule:evenodd" d="m52.32 40.56c0.006 0.886-0.107 1.652-0.96 1.68-0.098 0.578 0.438 0.521 0.24 1.2 0.851 0.051 0.474-1.126 1.44-0.96 0.178 0.979-0.773 0.827-0.48 1.92 0.461 0.579 2.064 3.205 0 3.36 0.975-1.924-0.897-1.997-0.96-4.08-0.532 0.508-0.598 1.482-1.68 1.44-0.328-1.048 0.929-0.511 0.72-1.44-0.062-0.562-1.055-0.139-1.2 0-0.711 2.875-5.169 4.339-8.64 2.88-1.418 0.382-2.82 1.924-3.84 1.92-0.14-0.564 0.722-1.93-0.96-1.92-0.005-0.565 0.414-0.707 0.24-1.44-1.181 0.178-1.925 0.795-1.68 2.4-1.225 1.012-4.013 1.481-6 0.96-0.595-0.765-0.952-1.768-1.92-2.16-0.822 0.378-1.608 0.792-2.16 1.44-0.116 0.756 0.737 0.543 0.48 1.44-2.746-0.787 0.032-3.554 1.44-3.84 1.922 0.98 2.857 2.036 5.04 0.96 0.484-1.546-0.623-1.821-0.48-3.6 0.722-0.159 0.838-0.922 1.92-0.72 0.076 0.956-1.11 0.65-1.2 1.44 1.036-0.244 1.357-1.202 2.64-1.2 0.508-1.493 2.232-1.769 3.36-2.64-0.328 1.048 0.929 0.511 0.72 1.44-0.996 0.052-1.707 0.532-1.2 1.44-2.075-0.655-3.803 0.521-4.56 1.92 0.061 0.819 0.606 1.153 0.48 2.16-0.583 0.458-1.451 0.629-2.16 0.96 0.792 1.13 2.531-0.351 3.12-0.96 0.005-0.565-0.414-0.707-0.24-1.44 0.963-0.877 2.737-1.335 4.32-1.2 0.844 0.072 2.534 0.364 2.88 1.2-1.004 0.288-1.863 0.25-2.64-0.24-0.575-0.095 0.133 1.093-0.72 0.72-0.037 0.597 0.377 0.743 0.48 1.2 1.251-0.588 2.581-1.099 4.08-1.44v0.96c3.223 0.13 5.358-0.464 6.72-2.64 0.103-0.674-0.895 0.602-0.96-0.24-0.007-0.807 1.111-0.489 1.44-0.96 0.704-0.656 1.126-1.594 1.68-2.4 0.644 0.974-0.793 1.92-1.2 2.64 1.572 1.005 1.069-2.126 2.4-2.16zm-21.84 7.44c-0.049-0.831-1.323-0.437-1.92-0.72-0.014 0.893 1.068 0.692 1.92 0.72z"></path> <path style="clip-rule:evenodd;fill-rule:evenodd" d="m54.48 44.88c-0.336-0.021 2.079-0.536 2.64-0.24-0.034 1.006-1.1 0.98-2.16 0.96 0.011-0.411-0.178-0.621-0.48-0.72z"></path> <path style="clip-rule:evenodd;fill-rule:evenodd" d="m84 45.36c1.156 0.601 0.284 1.473 0 0z"></path> <path style="clip-rule:evenodd;fill-rule:evenodd" d="m32.64 73.44c-0.113-1.12-1.632 0.408-2.16-0.48 0.905-1.088 3.828-0.381 4.08-2.16-1.188 0.172-1.794 0.926-3.36 0.72 0.114-1.165 1.903-0.656 2.64-1.199 0.856-1.225 1.653-2.508 2.88-3.36-0.316-0.605-0.788 0.629-1.44 0.48 0.124-1.077 1.418-0.982 1.92-1.681-0.238-0.299-1.878 0.028-2.4 0.24 0.039 0.281 0.438 0.202 0.72 0.24-0.309 0.411-0.496 0.943-1.2 0.96 0.315-0.745-0.065-0.686 0-1.681 0.608-0.752 2.433-0.287 3.12-0.96 1.823 3.003-2.505 3.418-2.64 6 1.569 0.152 0.121-1.286 1.44-1.199 0.299 1.361-1.02 1.424-1.44 2.64 0.692 0.695 0.751-0.468 1.68-0.24-0.345 1.335-1.899 1.461-2.88 2.16-1.584 1.536-2.387 3.854-3.12 6.24 0.131 0.968 0.799 2.078 0 2.64 0.284 0.591 0.907-0.491 1.2 0.24-0.893 0.941-1.622 0.026-3.12 0.479 0.469 1.02 1.828 0.602 3.36 0.96 1.452-0.631 1.999-3.777 0.72-5.039 0.037-0.764 0.544-1.057 0.48-1.921 0.734-0.174 0.706 0.415 1.44 0.24-0.263 3.097-0.255 7.989-3.6 7.44-2.277-0.374-5.377-1.662-6.96-3.12 1.09-1.984 1.894 1.728 3.6 1.439 0.803-0.557 2.055-0.664 2.88-1.199-0.559-0.697-1.293 0.45-2.16 0.239-0.301-1.341 1.339-0.74 1.68-1.439-0.074-0.566-0.833-0.446-0.72-1.2 1.64-0.35-0.067-1.438 1.2-2.16-0.923 0.189-2.127 0.042-3.84 0.24-0.375-0.404 0.289-1.078-0.48-1.44 0.489-0.551 1.993-0.086 2.88-0.239-0.067 0.627-0.081 1.201 0.72 0.96 0.708-0.209-0.557-0.359-0.24-0.96 1.377-0.063 2.308-0.572 2.64-1.681-0.864 0.085-1.157 0.367-1.92 0 0.026-1.173 1.877-0.522 2.4-1.199zm-0.48 0.96c0.694-0.106 1.094-0.507 1.2-1.2-0.817-0.017-0.894 0.706-1.2 1.2zm1.68-1.68c0.702 0.063 0.922-0.931 0.24-0.96-0.076 0.325-0.342 0.459-0.24 0.96zm0 6.96c-0.001-0.429 0.646-1.396 0-1.68-0.154 0.519-0.899 1.493 0 1.68z"></path> <path style="clip-rule:evenodd;fill-rule:evenodd" d="m99.36 79.92c-0.423 0.212-0.396 1.064-0.96 0.48 0.238-1.951 3.334 0.497 4.8-0.721-0.218-0.871-0.708-0.146-1.439-0.239 0.326-0.874 1.712-0.688 2.399-1.2-0.471-0.221-2.319 0.232-2.64 0.96-1.604 0.163-2.215-0.666-3.36-0.96-0.314-0.745 0.065-0.686 0-1.681-1.739-1.221-5.657-1.541-5.04-4.319 0.824 0.759 1.031 1.712 2.16 2.16 0.264 0.104 0.971-0.269 1.2-0.24 1.326 0.164 2.847 0.817 3.84-0.24 0.342-0.778 0.101-2.14 1.2-2.16 0.241 1.105-0.68 2.953-1.92 3.36 1.035 0.653 1.835-2.084 3.36-0.96-1.005 1.1-2.652 1.925-4.08 1.92-0.153 1.113 0.435 1.484 0.96 1.92 1.505 0.31 2.97-0.787 4.319-0.72 1.514 0.075 2.39 1.123 3.84 1.439 1.201-1.455 3.084-0.975 4.801-0.96 0.021 0.341 0.039 0.68-0.24 0.72 1.782 1.046 3.088 3.507 5.28 3.841 1.065 0.162 1.572-0.639 2.64-0.24-0.094 1.426-2.208 0.831-3.6 0.96-1.816-1.145-3.302-2.619-4.801-4.08-0.82 0.219-1.486 0.593-2.399 0.72-0.206-1.005 1.074-0.525 1.439-0.96-0.43-1.074-1.856-0.052-1.92 0.721-1.857 0.337-2.558-0.482-3.84-0.721-1.54 0.672-4.06 3.206-6 1.2zm-0.72-4.8c-1.528 0.694 0.913-0.415 0 0z"></path> <path style="clip-rule:evenodd;fill-rule:evenodd" d="m111.6 81.12c-0.917 0.037-1.748-0.013-2.16-0.48 0.881-1.204 2.788 0.516 3.6 0.96 0.068 0.388-0.227 0.413-0.239 0.721 1.936 3.057 8.283 2.656 11.76 1.68-1.043 1.403-3.307 1.703-5.76 1.68-3.661-0.034-7.366-2.646-10.08-2.16-1.203 0.216-1.694 1.429-2.88 1.681 0.726-2.42 4.519-3.007 6.96-1.681 0.6-0.851-1.47-1.082-1.2-2.401z"></path> <path style="clip-rule:evenodd;fill-rule:evenodd" d="m53.04 71.52c0.388-0.067 0.413 0.228 0.72 0.24-0.311 3.69-0.451 7.55-4.08 7.92 0.054 0.346 0.716 0.084 0.72 0.48-0.187 1.013-1.676 0.724-2.64 0.96-1.971 0.829 0.225 5.824-2.64 5.76-0.294-1.095 0.841-0.758 0.96-1.439-0.13-1.57 0.148-2.732 0.24-4.08-0.794 0.246-0.113 1.967-1.2 1.92-0.745-5.385 6.66-2.62 7.2-6.721-0.902 0.622-3.128 3.268-5.76 2.16 0.346-1.025 1.449-0.298 2.16-0.479 1.424-0.364 2.718-1.388 3.12-2.641-0.309-0.671-0.496 0.757-1.2 0.48 0.897-1.068-4.906 1.148-5.28-0.96 3.041 0.663 7.273-0.196 7.68-3.6zm-0.48 4.32c0.03-0.526 1.019-2.122 0-2.16-0.419 0.504-0.787 1.76 0 2.16z"></path> <path style="clip-rule:evenodd;fill-rule:evenodd" d="m66.96 100.08c-0.979 0.144-0.972 1.081-1.92 1.439-1.629 0.616-3.758-0.225-4.56 1.2v1.681c-2.001 0.881-1.135 2.093-2.64 2.88-0.875 0.457-2.616 0.534-3.6 0.479-1.684-0.094-3.869-1.808-4.56 0.24 0.045 0.194 0.241 0.239 0.24 0.479 0.919 0.162 0.907-0.548 1.92-0.479 1.454 0.098 2.133 2.004 3.6 2.16 0.885-0.235 1.189-1.051 1.92-1.44-0.103-0.536-1.183-0.097-1.68-0.24-0.113-0.54 1.302-0.739 1.44-0.239 0.51-0.689 1.62-0.78 2.64-0.96 0.615-0.505 0.252-1.988 0.96-2.4 0.742-0.013 0.456 1.714 0.24 2.16-0.312 0.645-1.321 0.634-2.16 1.2-1.744 1.177-2.034 2.742-3.84 2.64-1.756-0.1-2.066-2.483-3.84-1.92-0.28 1.08 1.341 0.259 0.96 1.44-1.154 0.193-0.867-1.054-2.16-0.721 0.573 1.366 2.062 1.034 2.16 2.4 0.138 1.935-3.133 3.513-4.8 1.68v-1.68c1.137-0.018 0.458 1.782 1.68 1.68 0.941-0.118 2.08-0.461 2.16-1.439 0.136-1.655-2.063-1.104-2.88-2.4-1.259-1.999 0.759-4.034 3.36-3.84 0.56-4.64-4.468-3.692-4.8-7.44 0.589-1.091 1.363-1.997 2.64-2.399 0.036 1.155-1.222 1.018-1.44 1.92-0.316 4.077 5.461 3.338 4.08 7.68 0.706 1.134 2.292 1.388 4.32 1.2-0.444-1.034 0.971-1.517 1.68-2.64-1.01-1.557-3.311-3.189-2.88-5.761 0.25-1.49 1.497-2.315 3.12-2.88-0.039 1.641-2.154 1.206-2.4 2.641 0.297 1.921 0.755 3.704 2.4 4.8 0.003-0.899-0.033-3.423 1.68-3.36-0.436 1.128-1.721 3.269-0.72 4.32 1.076-0.561 0.045-3.307 2.4-3.12 0.095-0.575-1.093 0.133-0.72-0.72 1.15-0.883 2.303-0.765 2.64-2.16 0.3-1.241-1.27-2.191-0.24-3.12 0.77 0.395 0.612 0.803 0.48 1.68 0.193-0.127 0.39-0.25 0.72-0.24 0.613-1.259-0.719-2.636-1.92-2.88-0.126-1.472-2.488-2.325-3.12-3.84-0.795-1.904-0.273-4.456 1.92-5.28-0.043 1.077-0.842 1.398-1.2 2.16-1.001 4.645 3.923 5.345 5.28 7.92 0.471 0.895 0.183 1.956 0.48 2.881 0.538 1.676 1.736 2.91 3.12 3.6-0.837 1.4-1.352-0.82-2.16-0.96zm-1.92-0.96c-0.951-0.074 0.269-0.834-0.72-0.72-0.049 1.391-1.241 1.639-1.92 2.399 1.828-0.172 3.815-0.185 3.6-2.399-0.307-0.014-0.333-0.308-0.72-0.24-0.041 0.359 0.086 0.885-0.24 0.959zm-7.2 7.2c0.149-0.502 1.231-0.902 0.24-1.2-0.07 0.28-0.967 0.91-0.24 1.2zm-8.4 3.12c0.383-0.361-0.007-1.011-0.48-1.2-0.035 0.6-0.044 1.16 0.48 1.2z"></path> <path style="clip-rule:evenodd;fill-rule:evenodd" d="m47.52 90c-0.739 0.168-0.461 0.168-1.2 0 0.631-1.379-0.406-1.601-0.96-2.4 0.36-0.279 0.587-0.692 1.2-0.72-0.33 1.365 0.949 1.305 0.96 2.88 0.32 0.4 1.067 0.373 1.44 0.72 0.022 1.383 0.052 2.772-1.2 2.881-0.536-0.606 0.524-1.072 0.479-1.92 0.21-0.93-1.047-0.393-0.719-1.441z"></path> <path style="clip-rule:evenodd;fill-rule:evenodd" d="m70.32 102.48c1.273-0.153 1.248 0.992 2.16 1.2 0.693-0.631-0.145-1.761-1.2-1.439 0.919-0.917-0.79-0.991-1.439-1.44-1.323-0.913-2.83-3.12-2.64-5.04 0.138-1.402 2.034-5.17 4.08-4.319 0.067 0.867-1.051 0.549-1.439 0.96-0.031 0.43 0.294 0.506 0.239 0.96-1.56 0.52-1.872 2.287-1.68 4.56 0.971 0.011 0.283-1.637 1.44-1.44-0.03 0.851-0.395 1.366-0.72 1.921 0.549 1.131 1.184 2.176 2.64 2.399-0.667-0.588-3.335-4.38 0.239-5.28-3.525 4.107 3.121 6.007 4.32 9.12-0.217 1.703 0.206 4.047-1.2 4.561-0.006-0.233-0.293-0.187-0.479-0.24 1.313-2.271-0.361-4.209-2.16-4.8-0.468 1.116 1.322 3.31 0.72 4.56-1.409 0.449-0.157-1.763-1.2-1.68-0.879 0.241-0.441 1.799-1.68 1.68-0.372-0.803 0.788-1.852 1.68-2.16-0.787-0.93-0.063-2.096-0.479-3.119-0.19-0.53-1.487 0.04-1.202-0.96zm3.36 1.92c1.073 0.047 1.362 0.877 2.16 1.199-0.29-1.71-1.871-2.129-2.641-3.359 0.203 0.68 0.28 1.48 0.481 2.16z"></path> <path style="clip-rule:evenodd;fill-rule:evenodd" d="m85.68 81.84c0.162 1.748 1.102 1.928 0.96 4.32 1.07 1.752 2.844 1.949 4.08 3.84 1.079 1.649 0.939 3.979 1.92 5.52 1.213 1.908 4.101 2.688 6.96 1.921 0.479-0.578-0.419-1.162 0.24-1.681 1.04-0.16 0.646 1.114 0.72 1.92-1.63 2.029-7.566 0.879-9.12-1.2-0.692-0.926-0.344-2.505-0.96-3.6-0.852-1.512-2.581-1.265-3.84-2.16-1.035-0.736-1.849-2.193-1.92-3.359 1.155 0.124 1.123 1.437 1.68 2.159 1.271 0.811 2.848 1.313 4.08 2.16-0.423-2.773-3.872-3.336-4.8-5.76-0.51-1.332 0.364-2.903-1.2-3.84 0.22-0.806 0.446-0.119 1.2-0.24z"></path> <path style="clip-rule:evenodd;fill-rule:evenodd" d="m78.24 99.36c0.993-0.113 0.638 1.122 0.96 1.68 1.357 0.496 2.344 0.892 4.08 0.479 1.638 1.592 3.33 3.89 7.2 2.4-0.178 1.583-2.124 1.396-3.84 1.44-1.4-0.84-2.562-1.919-3.601-3.12-1.119 0.399-2.028 1.011-3.84 0.72-0.472-0.728-1.287-1.112-1.68-1.92-0.128-0.93 0.612-0.99 0.721-1.68z"></path> <path style="clip-rule:evenodd;fill-rule:evenodd" d="m84 14.16c-0.757-0.118-0.847 0.432-1.68 0.24 0.187-0.213 0.258-0.542 0.24-0.96-1.446 0.167-2.112-0.447-2.64-1.2-0.757-0.116-0.544 0.736-1.44 0.48 0.1-1.366-0.939-1.224-1.92-0.96-0.209-0.769 0.369-0.75 0.72-0.96-2.021-1.292-3.878-3.228-6.96-2.16 0.234 0.62 0.508 1.9-0.479 1.92 0.003-1.036-0.441-1.345 0.239-1.92-0.059-0.261-0.477-0.163-0.479-0.48-0.771 0.189-1.049 0.871-1.68 1.2-0.716-0.164-1.469-0.291-1.68-0.96-1.594 0.813-2.402 0.28-3.84 0.48-0.098 0.578 0.438 0.522 0.24 1.2-1.035-1.19-2.032 0.043-4.08-0.24-0.451 0.458 0.143 0.435 0 1.2-1.754-0.074-3.164 0.197-3.6 1.44-1.189-0.149-1.271 0.809-2.64 0.48-1.75 1.53-4.143 2.417-4.8 5.04-2.62-0.7-1.595 2.245-3.6 2.16-0.159 1.194-0.723 1.888-0.24 3.12-0.631 0.41-1.499 0.582-2.16 0.96-0.036 0.756 1.339 0.101 0.96 1.2-1.757-1.102-1.317 1.206-3.36 1.44 0.584 1.243 1.991 3.28 0.96 4.08 0.078 0.562 1.047 0.233 1.2 0.72-0.612 0.835-2.967 0.733-3.6 0.96 0.368 0.912 2.126 0.433 2.16 1.68-0.875 0.156-1.278-0.162-1.68-0.48-0.121 0.309-0.254 0.497-0.48 1.2 0.084 0.315 0.422 0.377 0.48 0.72 1.239 0.133 2.401-2.602 3.12-0.72-0.76 0.28-1.889 0.19-2.16 0.96 0.196 0.583 1.265-0.476 1.68 0.24 0.019 1.152-3.21 1.435-2.4 0-0.947-0.308-0.581 0.699-1.2 0.72-0.074 0.554 0.693 0.267 0.72 0.72 0.095 1.271-1.749 2.418-1.92 0.72 0.38-0.02 0.916 0.116 0.96-0.24-0.045-1.044-0.417-0.437-1.2-0.48-0.004-1.386-0.288-3.758 1.2-5.04-0.218-0.657-0.841 0.426-1.2-0.24 0.872-0.905-0.014-2.317 0.479-3.6 0.755-0.115 0.938 0.342 1.44 0.48-0.563 0.965 0.086 1.506 0.72 1.92 0.651-0.149 0.598-1.003 1.44-0.96-0.973-0.627-1.351-1.849-2.64-2.16-0.005-0.565 0.413-0.707 0.24-1.44 0.501 0.102 0.636-0.165 0.96-0.24-0.342-0.32-0.342-1.36 0-1.68 0.853-0.374 0.145 0.815 0.72 0.72 1.341-0.259 0.852-2.348 2.4-2.4-0.344-1.084 0.157-1.866-0.48-2.88 1.579-0.367 0.834-2.215 1.92-2.64-1.156-2.137 0.289-3.25 0.24-5.76 3.13-2.389 7.944-3.095 9.6-6.96 1.494 0.292 3-1.303 4.8-1.44 0.374-0.028 0.44 0.289 0.72 0.24 0.61-0.107 1.183-0.586 1.92-0.72 1.25-0.227 3.025 0.481 3.84-0.72 1.805 1.155 3.949 1.971 6.72 2.16 3.726 1.875 6.93 4.271 9.359 7.44 1.682 0.399 3.437 0.724 3.841 2.4zm-19.2-10.08c-1.979-0.237-4.119 0.493-6 0.72-1.359 0.164-3.229-0.44-3.84 0.96 2.223 0.355 4.614-0.791 6.72-0.48 0.999 0.147 1.425 1.02 2.4 1.2-0.007-0.001 0.576-0.491 0.72-0.48 0.093 0.007 0.502 0.509 0.72 0.48 0.405-0.053 0.965-0.69 1.44-0.72-1.239-0.041-1.348-1.212-2.16-1.68zm-11.76 5.28c0.377-0.023 0.832 0.032 0.72-0.48h-0.48c0.001 0.241-0.195 0.286-0.24 0.48zm-6.48 4.32c-0.999 0.281-1.839 0.721-1.92 1.92 2.595-1.485 4.175-3.985 6.72-5.52 0.133 0 0.272-0.194 0-0.24-2.51 0.37-3.514 2.246-4.8 3.84zm5.52-2.4h0.72c0.067-0.547-0.058-0.902-0.48-0.96 0.054 0.454-0.271 0.53-0.24 0.96zm-7.68 1.92c0.771-0.35 1.562-0.679 1.68-1.68-1.059 0.061-1.251 0.988-1.68 1.68zm1.92 2.64c0.988-0.457 2.977-1.176 2.88-1.92-1.01 0.59-2.161 1.038-2.88 1.92zm-7.92 15.84c-0.284-0.276-0.848-0.272-1.44-0.24-0.338 0.766 1.436 0.606 1.44 0.24z"></path> <path style="clip-rule:evenodd;fill-rule:evenodd" d="m82.08 21.36c0.19 2.082-3.05-0.219-2.88 1.44-0.82 0.101-1.367-0.072-1.2-0.96 0.429-0.352 0.94 0.151 1.44-0.48-0.429-0.321-1.865-0.266-0.96-1.2-1.47 0.173-2.716 0.196-4.08-0.24-0.146-1.344 0.785-0.425 1.44-0.48 1.82-0.153 3.747-0.587 4.8-1.92-0.153-0.549-0.477-1.448 0-1.92-0.309-0.671-0.496 0.756-1.2 0.48-0.28-1.24 0.67-1.25 1.44-1.44-0.068 0.388 0.227 0.413 0.239 0.72 0.695-0.825 3.132 0.092 3.12-1.44 0.983 0.233 1.538-0.594 2.16 0-1.476 1.78-3.421 1.124-5.52 2.4 1.379 0.753 0.428 3.011-1.2 2.88 1.839 0.109 1.012 2.038 2.401 2.16z"></path> <path style="clip-rule:evenodd;fill-rule:evenodd" d="m55.68 32.64c1.557 0.546 2.947-0.115 3.84 1.2 1.217-0.857 2.987-0.108 4.32-0.48-0.232 1.032 0.936 0.665 1.2 1.2 0.732 0.013 0.576-0.864 1.44-0.72-0.068 1.519-1.58 1.224-2.64 1.2 0.041 0.68 0.44 1 0.48 1.68-2.019-1.079-5.711 0.87-7.2-0.96-0.836 0.549-3 1.327-3.36-0.24 0.679 0.205 1.041-0.609 1.68-0.72 1.08-0.188 2.543 0.751 3.6-0.48-1.307-0.901-2.919-0.017-3.36-1.68zm4.56 2.4c-0.212-0.185-0.685 0.147-0.72 0.24-0.339 0.905 1.194 0.172 0.72-0.24z"></path> <path style="clip-rule:evenodd;fill-rule:evenodd" d="m74.88 32.88c0.22 1.02-0.575 1.025-1.44 0.96 0.56 1.276 2.284 0.327 2.88 1.2 1.192-0.922 2.292 0.082 3.36-0.24-0.572 1.296 0.412 0.792 0.72 1.68-1.63-0.027-2.987 0.619-3.84-0.48-1.339 0.256-4.121 1.252-4.561-0.72-0.866 0.014-1.161 0.599-1.92 0.72 0.775 0.505 1.334 1.227 2.16 1.68 1.383-0.378 3.385-0.136 4.561-0.72v0.96c-0.769 0.228-1.418 0.056-2.641 0.24-0.626 0.791-0.661 0.746-1.439 1.2-0.804-0.217-0.21-0.537 0-0.96-2.112-0.391-4.683-1.526-4.56-3.36 1.083-1.127 2.26-2.358 3.839-1.2 1.356 0.075 1.541-1.021 2.881-0.96z"></path> <path style="clip-rule:evenodd;fill-rule:evenodd" d="m41.28 52.32c0.068 0.388-0.227 0.414-0.24 0.72h0.96c0.187-0.209-0.091-1.062 0.96-0.96 0.844 0.543-0.772 1.055 0 1.44-1.207 0.643-2.511-0.137-3.84 0-1.305 0.134-2.34 1.223-3.36 0.72 0.39-0.97 1.708-1.012 2.88-1.2-0.753-0.814-3.196 0.212-3.6-1.44 1.734-0.334 3.746 1.025 6.24 0.72z"></path> <path style="clip-rule:evenodd;fill-rule:evenodd" d="m41.76 54.48h0.72c0.304 1.583-0.984 1.576-1.2 2.64 0.534 0.672 1.334-0.41 1.44-0.96 0.806-0.247 0.374 0.746 0.48 1.2-0.717 0.029-0.711 0.286-1.68 0.48 2.075 2.451 3.036-1.708 5.04-2.16-0.662 1.258-1.418 2.421-2.4 3.36 0.41 0.7 0.874-0.544 1.68-0.24 0.175 0.655-0.477 0.483-0.48 0.96 1.391-0.689 2.567-1.593 3.84-2.4-0.492-1.597 0.353-3.113 1.92-3.36-0.001 0.959-0.877 1.043-1.2 1.68 0.215 1.318-0.038 1.624 0.24 2.88-1.796 2.37-9.466 2.993-10.56-0.48 0.284-0.276 0.848-0.271 1.44-0.24 0.112-0.512-0.343-0.457-0.72-0.48 0.495-0.944 1.154-1.726 1.44-2.88zm5.52 5.04c0.967-0.002 2.284-0.904 1.92-1.44-0.262 0.858-1.438 0.802-1.92 1.44zm-5.04-0.48c-0.808-0.729-0.728 0.887 0 0z"></path> <path style="clip-rule:evenodd;fill-rule:evenodd" d="m26.64 69.6c0.175 0.995-2.553 2.043-0.48 2.641-0.807 0.794-0.64 2.56-2.4 2.399-0.175-0.654 0.477-0.482 0.479-0.96-0.508-0.669-0.697-0.166-1.44-0.479-0.083-0.964 1.127-0.633 1.44-1.2 0.075-1.527 1.036-2.166 2.401-2.401z"></path> <path style="clip-rule:evenodd;fill-rule:evenodd" d="m59.28 73.68c1.279 2.761 1.088 6.849-1.2 8.4-0.497-1.287 1.402-2.067 1.2-3.84-0.54 0.26-0.091 1.509-1.2 1.2 0.529-1.791 1.012-3.628 1.2-5.76z"></path> </g> <metadata></metadata></svg> 