<?xml version="1.0" encoding="UTF-8" standalone="no"?> <!-- Generator: Adobe Illustrator 12.0.1, SVG Export Plug-In . SVG Version: 6.00 Build 51448) --> <svg xmlns:rdf="http://www.w3.org/1999/02/22-rdf-syntax-ns#" xmlns="http://www.w3.org/2000/svg" xmlns:cc="http://web.resource.org/cc/" xmlns:xlink="http://www.w3.org/1999/xlink" xmlns:dc="http://purl.org/dc/elements/1.1/" xmlns:svg="http://www.w3.org/2000/svg" xmlns:inkscape="http://www.inkscape.org/namespaces/inkscape" xmlns:sodipodi="http://sodipodi.sourceforge.net/DTD/sodipodi-0.dtd" xmlns:ns1="http://sozi.baierouge.fr" id="Layer_1" xml:space="preserve" overflow="visible" viewBox="0 0 186.129 377.54"> <g clip-rule="evenodd" fill-rule="evenodd"> <path fill="#A99A6F" d="m10.08 115.68c2.064 7.76 2.226 17.761-1.92 22.8 0.989-4.021 3.087-7.964 2.64-14.64-0.206-3.065-1.209-5.772-1.2-7.68 0 0-0.443-0.001-0.48 0 0.058-0.42 0.413-0.54 0.96-0.48z"></path> <path fill="#A99A6F" d="m9.36 121.68c-0.655 3.321-2.124 8.448-1.2 13.44-2.039-3.6-0.96-10.16 1.2-13.44z"></path> <path fill="#A28800" d="m13.68 124.8c4.601 1.66 1.056 7.006 0 11.52-1.053 4.506-0.527 8.884-0.96 13.2-0.098 0.982 0.098 2.632-1.2 3.36 1.042-5.464 0.107-11.129 1.2-16.56 0.903-4.48 5.005-8.48 0.96-11.52z"></path> <path fill="#A28800" d="m9.84 126.72c0.133 0.901 0.482 2.196-0.48 3.12 0.264-0.93 0.165-2.23 0.48-3.12z"></path> <path fill="#A28800" d="m12.48 131.76h0.72c-0.218 1.702-0.921 2.919-1.2 4.56-1.198-1.12 0.585-2.97 0.48-4.56z"></path> <path fill="#A28800" d="m10.56 137.52c1.617 5.244 0.498 11.811-0.24 18.24-2.542 22.153-3.409 45.223-4.56 68.4-0.462 9.299 0.737 20.062-0.96 28.08-0.331 1.562-1.836 3.541-1.92 5.279-0.083 1.718 0.91 2.094 0.72 3.36-3.097-2.731 0.202-6.766 0.72-10.8 0.543-4.229 0.165-9.006 0.24-13.681 0.454-28.039 2.428-57.729 5.28-84 0.551-5.07 1.029-9.8 0.72-14.88z"></path> <path fill="#A28800" d="m9.36 139.92c0.214 0.106 0.429 0.211 0.48 0.48-0.187 6.702-2.928 12.049-5.52 16.8-0.745 1.367-1.207 3.163-2.64 3.84 3.01-6.58 7.023-12.17 7.68-21.12z"></path> <path fill="#A28800" d="m6.48 239.04c0.835 1.938-0.256 6.577 0.24 10.56 0.549 4.409 3.421 8.486 1.44 11.28 0.864-2.923-1.406-5.649-1.92-8.88-0.548-3.44 0.203-8.9 0.24-12.96z"></path> <path fill="#A28800" d="m178.8 239.29c0.279-0.039 0.427 0.053 0.479 0.239 0.208 6.062 1.096 11.772-0.239 16.08-0.348 1.122-1.366 2.096-1.44 3.36-0.061 1.04 0.783 1.951 0.48 2.88-2.982-2.175 0.653-7.386 0.96-11.76 0.3-4.32-0.52-7.34-0.24-10.8z"></path> <path fill="#A28800" d="m99.6 240.72c-3.863 0.455-7.873 0.655-11.28 0 2.52-0.3 8.227-0.35 11.28 0z"></path> <path fill="#A28800" d="m83.52 241.21c-24.26 1.253-44.772 0.898-69.84 1.68 22.593-1.74 42.372-1.34 69.84-1.68z"></path> <path fill="#A28800" d="m100.08 241.92c-1.053 1.314-3.795 0.728-6 0.72-2.981-0.011-6.65 0.512-7.68-0.72 5.656-0.12 8.293-0.04 13.68 0z"></path> <path fill="#A28800" d="m83.52 242.88c-0.602 0.866-2.184 0.713-3.12 0.72-19.578 0.151-47.327 0.694-67.2 0.96 0.312-1.105 2.095-0.933 2.88-0.96 5.91-0.202 15.214-0.281 22.56-0.479 9.975-0.27 20.735-0.376 28.56-0.48 5.989-0.08 12.085-0.22 16.32 0.24z"></path> <path fill="#A28800" d="m172.08 244.8c-22.054-0.753-42.87-1.416-68.16-1.68-0.039-0.279 0.053-0.428 0.24-0.48 0.213-0.147 0.429-0.29 0.479 0 16.93-0.062 34.657 0.204 51.601 0.96 5.6 0.26 11.27-0.01 15.84 1.2z"></path> <path fill="#A28800" d="m99.84 243.6v0.721c-4.091 0.881-11.234 0.681-15.36 0v-0.721c0.423-0.444 0.743 0.062 0.96 0.48 3.89-1.46 11.565-0.5 14.4-0.48z"></path> <path fill="#A28800" d="m101.04 243.6h0.72v0.96c-0.8 0.25-0.79-0.33-0.72-0.96z"></path> <path fill="#A99A6F" d="m2.88 244.08c1.053 0.307 0.208 2.511 0.48 3.6-1.202-0.55-0.87-2.56-0.48-3.6z"></path> <path fill="#A28800" d="m173.52 245.76c1.095 3.065-3.31 1.504-5.04 1.44-20.46-0.75-42.088-1.224-64.8-1.2v-1.2c-0.011-0.41 0.179-0.621 0.48-0.72 23.469-0.014 42.592 0.291 67.199 1.68 1.099-0.379 0.444 0.996 1.2 0.96 1.01 0.38-0.05-1.33 0.96-0.96z"></path> <path fill="#A99A6F" d="m182.16 244.8c0.902 0.227 0.915 2.321 0.479 3.12-0.73-0.91-0.72-2.13-0.48-3.12z"></path> <path fill="#A28800" d="m101.76 246v1.439c-5.062 0.585-9.792 0.091-15.36 0.24-0.341-0.538-0.179-1.581-0.96-1.68-0.613 0.026-0.477 0.804-0.48 1.439-0.747-0.053-0.406-1.194-0.48-1.92 5.144 0 14.192-0.18 17.28 0.48z"></path> <path fill="#A28800" d="m11.52 248.17c0.818 0.309 0.578 2.933 0.24 3.6-0.692-0.43-0.536-2.18-0.24-3.6z"></path> <path fill="#A28800" d="m99.84 248.64c0.533 1.522-0.505 2.683 0.72 3.84 1.145-0.375-0.062-3.102 0.721-3.84 1.065 0.455 0.199 2.841 0.479 4.08-2.389-0.852-11.985 1.09-14.88 0.24-0.587-0.172-0.896-0.857-1.2-1.2-0.691 0.028-0.417 1.023-1.2 0.96-0.204-0.858 0.127-2.571 0-4.08 1.068 0.132-0.075 2.475 1.44 2.16 0.698-0.183-0.218-1.978 0.48-2.16 3.645-0.18 8.41-0.18 13.44 0z"></path> <path fill="#A28800" d="m173.04 248.4h0.72c-0.12 1.32 0.265 3.146-0.24 4.08-0.89-0.62-0.32-2.72-0.48-4.08z"></path> <path d="m172.32 254.64c0.388-0.067 0.414 0.227 0.721 0.24-0.7 1.685 0.228 3.557-1.2 4.56 0.03-1.73 0.14-3.37 0.48-4.8z"></path> <path fill="#A99A6F" d="m5.76 254.88c0.419 0.221 0.53 0.75 0.48 1.439h-0.96c0.079-0.56 0.288-0.99 0.48-1.44z"></path> <path fill="#A99A6F" d="m180.48 255.12c0.993-0.113 0.638 1.122 0.96 1.68-0.278 0.201-0.644 0.316-1.199 0.24-0.17-0.88 0.41-1.02 0.24-1.92z"></path> <path d="m166.32 258.25c-19.114-0.308-40.191-0.954-60.239-0.96-0.279 0.039-0.428-0.054-0.48-0.24-0.039-0.279 0.053-0.428 0.24-0.48 19.64 0.8 40.36-0.18 60.48 1.68z"></path> <path d="m80.64 257.04c-8.97 0.652-19.577 0.401-30.48 0.72-11.581 0.338-22.888 0.259-32.4 0.24 20.064-0.84 41.818-1.19 62.88-0.96z"></path> <path d="m85.2 258.25h0.72c0.393 1.484 0.393 4.515 0 6-1.859-0.75-0.69-4.6-0.72-6z"></path> <path d="m97.68 258.72c-0.568 1.2-2.079 0.482-3.12 0.48-2.412-0.005-4.733 0.344-6.96 0-0.279 0.039-0.427-0.054-0.48-0.24 3.714-0.89 7.118-0.3 10.56-0.24z"></path> <path d="m100.32 258.72c1.394 0.688 0.648 4.787 0.479 6.24-1.784-0.95-0.838-4.95-0.48-6.24z"></path> <path d="m13.44 261.12c1.178 1.073 1.675 3.627 1.68 5.52-1.37-0.89-1.809-3.91-1.68-5.52z"></path> <path fill="#A99A6F" d="m4.8 261.36c0.913-0.192 0.305 1.136 0.48 1.681-0.488-0.23-0.518-0.92-0.48-1.68z"></path> <path d="m171.6 261.36c0.357 1.802-0.32 4.638-1.68 5.521 0.53-1.87 0.62-4.18 1.68-5.52z"></path> <path fill="#A28800" d="m176.4 261.36c2.099 1.345 2.377 5.817 1.44 8.16-1.07-2.9-0.78-5.29-1.44-8.16z"></path> <path fill="#A28800" d="m11.52 262.32c0.279-0.038 0.427 0.054 0.48 0.24-3.01 17.714-4.268 35.886-4.32 54.96-0.908-19.034 0.755-36.062 3.6-54.479 0.127-0.19 0.25-0.38 0.24-0.72z"></path> <path fill="#A28800" d="m174.24 263.04c3.053 14.947 4.389 32.471 4.56 48.96-0.948-3.738-0.723-7.715-0.96-11.76-0.701-11.937-1.782-24.451-3.84-36.24-0.09-0.5 0.15-0.63 0.24-0.96z"></path> <path fill="#A99A6F" d="m6.24 264v2.88c-0.489 0.419-0.47-0.179-0.96 0.24 0.167 1.567-0.408 2.415 0 3.6-1.055-0.419-0.417-3.026-0.72-4.8h1.2c-0.009-1.246-0.988-0.132-1.2-0.96-0.143-1.18 1.053-1.18 1.68-0.96z"></path> <path fill="#A99A6F" d="m179.28 264c0.484 0.251 0.812 1.261 0.961 0 0.612 0.026 0.476 0.804 0.479 1.439-0.558 0.269-0.643-0.051-1.2 0.48 0.062 0.498 1.055 0.065 1.2 0.479-1.12 0.64-0.729 2.791-0.96 4.32-1.15-2.05-0.58-4.69-0.48-6.72z"></path> <path d="m85.2 265.44c0.388-0.067 0.414 0.228 0.72 0.24 0.163 1.255 0.906 5.028-0.48 5.521-0.885-0.99-0.523-4.38-0.24-5.76z"></path> <path fill="#A28800" d="m12.48 265.92c1.934 5.186 3.748 10.492 6.72 14.64-3.331 7.983-5.855 15.894-8.4 24.24-0.175-6.622 0.382-13.408 0.96-20.16 0.367-4.286 1.696-8.565 0.96-12.72-1.982 9.689-2.637 22.609-3.12 33.36 0.309 0.516-0.258 0.849 0.96 0.72-0.957 2.375-0.895 4.366-1.92 6.479-0.129-13.99 1.131-32.09 3.84-46.56zm0 30.72c1.283-6.66 1.89-16.233 2.4-23.28-1.453 7.13-2.249 16.3-2.4 23.28zm3.6-9.12c0.391-2.851 0.405-4.989 0.96-7.92-0.307-0.013-0.333-0.308-0.72-0.24 0.082 1.92-1.359 6.07-0.24 8.16z"></path> <path d="m100.08 266.4h0.96c-0.158 1.763 0.317 4.157-0.24 5.521-1.765-1.02-0.44-3.29-0.72-5.52z"></path> <path fill="#A28800" d="m173.04 267.6c2.662 11.242 3.224 23.966 3.84 36.72-0.844-3.951-3.589-8.178-4.32-12.479-0.908-5.342 0.188-12.245-1.68-17.04-0.604 4.5 1.3 10.637 1.439 15.36-2.509-2.973-2.382-7.065-3.119-11.761-1.143 0.804 0.323 2.56 0 4.08-0.991-0.609-0.953-2.247-1.681-3.12 1.657-2.662 3.027-5.612 4.32-8.64 1.515 7.578 2.253 15.736 2.88 23.521 0.087 1.08-0.46 2.84 0.72 3.6 0.007-8.825-1.1-19.693-3.12-29.04 0.42-0.21 0.44-0.84 0.72-1.2z"></path> <path d="m15.6 268.32c1.299 1.126 2.313 3.734 2.4 5.28-1.518-0.9-2.559-3.48-2.4-5.28z"></path> <path d="m168.96 269.04c0.278-0.039 0.427 0.053 0.479 0.24-0.154 2.005-1.215 3.104-1.92 4.56-1.01-1.28 1.05-3.34 1.44-4.8z"></path> <path fill="#A28800" d="m3.12 270.72c0.941 0.629 0.049 1.315 0.24 2.4 0.247 1.397 1.435 2.46 1.92 4.08 0.507 1.693 0.407 4.153 0.48 6.239 0.167 4.783 0.034 10.403-0.24 15.36-1.447-0.869-0.453-2.799-0.48-4.32-0.089-5.011 0.427-12.797-0.96-17.279-0.776-2.5-3.142-4.18-0.96-6.48z"></path> <path fill="#A28800" d="m7.92 272.64c0.954 3.036 0.191 7.646-0.72 10.32 0.677-4.23 0.105-7.2 0.72-10.32z"></path> <path d="m14.88 273.36c-0.51 7.047-1.117 16.62-2.4 23.28 0.151-6.98 0.947-16.15 2.4-23.28z"></path> <path d="m85.44 273.84c1.159 0.889 0.618 3.086 0.48 5.04-1.571-0.08-1.153-4.25-0.48-5.04z"></path> <path d="m100.32 273.84c0.387-0.067 0.413 0.227 0.72 0.24-0.258 1.798 0.492 3.966-0.24 4.8-1.237-0.79-1.11-4.43-0.48-5.04z"></path> <path fill="#A28800" d="m182.16 274.08c-0.237 1.701-0.886 4.581-1.681 6-1.19-1.86 0.85-4.56 1.68-6z"></path> <path d="m18.96 275.76c1.696 0.863 2.391 2.729 3.12 4.56-1.856-0.7-2.48-2.63-3.12-4.56z"></path> <path d="m16.32 279.36c0.388-0.067 0.413 0.228 0.72 0.24-0.555 2.931-0.569 5.069-0.96 7.92-1.119-2.09 0.322-6.24 0.24-8.16z"></path> <path d="m100.08 280.56h0.72c0.393 1.408 0.393 4.352 0 5.76-1.656-0.37-0.917-4.31-0.72-5.76z"></path> <path fill="#A28800" d="m180.72 280.56c0.497 2.197 0.197 3.754 0.48 6-1.514-1.25-0.424-3.695-1.2-5.76 0.34 0.03 0.68 0.04 0.72-0.24z"></path> <path d="m85.2 280.8h0.72c0.218 1.324 0.642 4.107-0.24 5.04-1.244-0.48-0.737-3.84-0.48-5.04z"></path> <path d="m161.76 281.04h0.72c-0.046 1.587-1.924 3.331-3.359 4.319-0.25-1.65 2.28-2.48 2.64-4.32z"></path> <path d="m22.8 281.29c1.571 1.229 2.949 2.651 3.84 4.56-1.919-0.75-3.768-2.77-3.84-4.56z"></path> <path fill="#A28800" d="m6.96 285.36c1.098 0.777 0.015 1.716 0.24 3.12-0.66-0.98-0.127-1.66-0.24-3.12z"></path> <path d="m157.92 286.32c-0.862 1.799-2.928 3.604-4.561 3.841 1.26-1.54 2.69-2.9 4.56-3.84z"></path> <path d="m27.36 286.56c1.618 1.022 3.629 1.651 4.08 3.84-1.649-0.85-3.867-2.34-4.08-3.84z"></path> <path d="m85.2 287.52c0.193 0.127 0.39 0.251 0.72 0.24 0.377 1.546 0.416 4.7 0 6.24-1.678 0.34-0.911-4.95-0.72-6.48z"></path> <path d="m100.32 287.52c1.276 0.602 0.717 4.191 0.479 5.521-1.575-0.29-1.126-4.52-0.48-5.52z"></path> <path d="m163.44 287.52c0.315 0.085 0.378 0.423 0.721 0.48 6.273 14.648 12.824 33.4 8.88 52.8-1.117-1.588-0.028-4.225 0.239-6.72 1.739-16.204-4.358-33.665-9.84-45.84v-0.72z"></path> <path d="m167.28 287.52h0.721c0.225 1.935 1.444 2.875 1.439 5.04-1.7-0.56-2.28-3.44-2.16-5.04z"></path> <path fill="#A28800" d="m180.72 287.52c1.061 2.358 0.573 6.794 0.72 9.36-1.03-2.61-0.54-5.64-0.72-9.36z"></path> <path d="m21.6 290.4c0.233 0.007 0.186 0.294 0.24 0.48-5.226 13.855-10.057 26.063-11.04 42.479-0.438-15.8 5.738-30.05 10.8-42.96z"></path> <path d="m32.64 290.64c1.468 1.092 3.686 1.436 4.32 3.36-1.718-0.7-4.341-1.7-4.32-3.36z"></path> <path d="m152.4 290.88c-0.157 1.242-2.252 2.518-4.08 2.88 0.89-1.42 2.51-2.13 4.08-2.88z"></path> <path d="m163.2 293.29c5.396 11.002 9.35 25.195 8.64 40.8-1.244-1.533-0.483-3.816-0.48-5.521 0.027-12.737-4.118-24.316-8.159-34.56v-0.72z"></path> <path d="m37.44 293.76c1.847 0.793 4.08 1.2 5.04 2.88-1.825 0.12-4.358-1.05-5.04-2.88z"></path> <path d="m147.12 293.76c0.295 0.104 0.492 0.308 0.479 0.72-1.563 0.836-2.852 1.949-5.04 2.16 0.63-1.84 3.35-1.6 4.56-2.88z"></path> <path d="m169.68 294c1.452 0.771 2.699 4.093 1.92 5.52-1-1.48-1.63-3.32-1.92-5.52z"></path> <path d="m15.84 294.96c0.388-0.067 0.413 0.227 0.72 0.24-0.39 2.17-0.665 4.455-2.16 5.52-0.306-1.84 0.879-4 1.44-5.76z"></path> <path d="m85.44 295.21c1.277 0.601 0.717 4.19 0.48 5.52-1.575-0.3-1.127-4.53-0.48-5.52z"></path> <path d="m100.08 295.21h0.72c0.424 1.515 0.351 4.473 0 6-1.745-0.45-0.78-4.8-0.72-6z"></path> <path d="m142.32 296.88c-1.401 0.679-2.623 1.538-4.561 1.68 0.7-1.22 3-2.48 4.56-1.68z"></path> <path d="m43.92 296.88c1.985 0.814 4.871 0.729 5.76 2.64-2.305-0.49-5.093-0.5-5.76-2.64z"></path> <path d="m50.88 299.04c1.997 0.471 4.549 0.311 4.8 1.92-1.682-0.55-4.352-0.12-4.8-1.92z"></path> <path d="m132.72 299.04c-0.039 0.278 0.053 0.427 0.24 0.479-2.092 0.94-3.947 1.863-6 1.92 1.4-1.84 3.41-1.73 5.76-2.4z"></path> <path d="m20.16 299.29c0.279-0.039 0.427 0.053 0.479 0.239-3.28 8.479-5.821 17.699-7.92 27.36 0.804-9.32 4.078-18.91 7.441-27.6z"></path> <path d="m56.64 300.25c1.252 1.004 3.476 0.567 4.32 2.399-1.16 0.018-2.755-0.917-4.56-1.439-0.102-0.51 0.164-0.64 0.24-0.96z"></path> <path d="m172.08 300.72c1.222 0.622 2.238 3.726 1.439 4.8-0.9-1.06-1.67-3.4-1.44-4.8z"></path> <path d="m125.76 301.44c-0.792 1.688-2.726 2.234-4.56 2.88 0.21-1.34 2.61-2.48 4.56-2.88z"></path> <path d="m85.2 302.4c0.388-0.067 0.414 0.228 0.72 0.24 0.367 1.157 0.422 3.892 0 5.04-1.664-0.21-0.906-4-0.72-5.28z"></path> <path d="m62.16 303.12c1.625-0.011 3.564 1.486 4.8 2.64-1.356 0.77-4.012-1.24-4.8-2.64z"></path> <path d="m100.08 302.88h0.72c0.074 1.047 0.762 4.58-0.24 6.24-1.373-0.73-0.655-4.74-0.48-6.24z"></path> <path d="m146.4 304.08c0.279-0.039 0.428 0.053 0.48 0.239-0.226 8.266-0.425 20.715-0.24 31.681 0.018 1.048 0.598 2.635-0.479 3.12 0.232-10.21-0.009-21.547 0-34.32 0.13-0.19 0.25-0.38 0.24-0.72z"></path> <path d="m120.72 304.32c-0.976 1.528-2.845 3.363-4.8 3.12 1.01-1.62 2.67-2.61 4.8-3.12z"></path> <path d="m174 306.72c1.021 1.203 2.269 4.523 1.439 6-1.09-1.25-1.8-4.08-1.44-6z"></path> <path d="m68.64 306.96c1.388 0.452 2.786 0.894 3.36 2.16-0.923-0.01-3.188-0.6-3.36-2.16z"></path> <path d="m33.84 307.44c0.279-0.039 0.427 0.054 0.48 0.24 0.142 10.348-0.434 21.238 0 29.04-1.125-8.629-0.167-18.528-0.48-28.56v-0.72z"></path> <path d="m114.24 307.68c0.213 0.106 0.429 0.211 0.479 0.48-1.134 1.586-3.473 1.967-5.52 2.64 0.78-1.93 3.62-1.81 5.04-3.12z"></path> <path d="m73.44 309.36c1.434 0.489 4.14 0.977 4.32 1.921-0.724 0.52-3.999-0.44-4.32-1.92z"></path> <path d="m34.8 311.52c0.279-0.039 0.427 0.053 0.48 0.24 0.063 10.162-0.221 16.456-0.24 23.28-0.56-7.36-0.08-15.75-0.24-23.52z"></path> <path d="m62.64 311.76c0.279-0.039 0.427 0.053 0.48 0.24-0.354 6.438-0.32 15.456-0.24 23.04 0.085 8.13 0.281 12.033 0.24 20.64-0.975-3.827-0.476-7.726-0.48-11.52-0.014-12.46-0.463-20.79 0-32.4z"></path> <path d="m114.48 312.25c0.261 0.059 0.163 0.477 0.48 0.479-0.623 14.104-0.329 23.205-0.24 35.04-0.88-11.97-0.64-26.19-0.24-35.52z"></path> <path d="m175.68 313.92c1.542 0.979 1.74 4.21 1.2 5.52-1.13-0.98-1.5-3.89-1.2-5.52z"></path> <path d="m147.36 314.64c0.279-0.039 0.428 0.053 0.48 0.24-0.857 10.604 0.539 23.728-0.72 34.32 0.05-10-0.18-25.73 0.24-34.56z"></path> <path d="m148.56 318c0.279-0.039 0.427 0.053 0.48 0.24-0.3 6.136 0.612 14.642-0.48 19.199 0.09-6.05-0.05-12.32 0-19.44z"></path> <path d="m177.12 321.12c0.941 0.943 1.381 3.97 0.72 5.04-0.95-0.85-1.38-4.09-0.72-5.04z"></path> <path d="m63.6 321.6c0.699 13.14 0.834 28.603 0.48 42.48-0.582-14.11-0.377-27.01-0.48-42.48z"></path> <path d="m115.2 321.84c0.295 0.104 0.492 0.307 0.479 0.72-0.608 12.409-0.084 24.07 0.24 36.24-1.312-2.651-0.72-6.155-0.72-9.36 0-10.661-0.249-16.302-0.24-26.88-0.07-0.38 0.23-0.41 0.24-0.72z"></path> <path d="m85.2 322.56c1.244-0.037 0.75 2.922 0.48 3.601-1.277 0.01-0.703-2.87-0.48-3.6z"></path> <path d="m8.16 322.8h0.72c-0.241 1.679-0.174 3.666-0.96 4.8-1.104-0.92 0.05-3.58 0.24-4.8z"></path> <path d="m36 324.96c0.279-0.039 0.427 0.053 0.48 0.24-0.701 7.905 0.415 23.272-0.72 33.84-0.072-13.65 0.105-23.51 0.24-34.08z"></path> <path d="m64.56 326.64c0.279-0.039 0.427 0.053 0.48 0.24 0.082 14.314 0.202 27.729 0.48 42.96-1.396-12.421-0.403-30.343-0.96-42.48v-0.72z"></path> <path d="m177.6 326.64c1.342 0.697 0.78 3.303 0.48 4.561-1.27-0.91-0.57-3.06-0.48-4.56z"></path> <path d="m84.96 326.88c2.089 0.289 0.797 2.933 0.96 3.84-1.767 0.17-0.643-2.55-0.96-3.84z"></path> <path d="m7.44 328.56c0.388-0.067 0.413 0.227 0.72 0.24-0.114 0.979 0.419 4.542-0.48 5.52-0.909-0.96-0.505-4.4-0.24-5.76z"></path> <path d="m100.08 330.96h0.72c0.367 1.157 0.423 3.892 0 5.04-1.424-0.61-0.51-3.88-0.72-5.04z"></path> <path d="m85.2 332.17c1.41 0.46 0.866 2.928 0.48 4.08-1.314-0.11-0.684-3.24-0.48-4.08z"></path> <path d="m177.36 332.4h0.96c0 1.68 0.134 3.494-0.72 4.32-1.24-0.77 0.21-2.76-0.24-4.32z"></path> <path d="m116.4 332.64c0.279-0.039 0.428 0.053 0.48 0.24-0.184 14.654 0.43 24.723 0 34.08-0.865-10.903-0.227-19.347-0.48-33.601v-0.72z"></path> <path d="m7.68 335.29c0.388-0.068 0.414 0.227 0.72 0.239-0.627 2.29 1.714 5.143-0.24 5.761-0.054-1.57-1.114-3.92-0.48-6z"></path> <path d="m34.8 335.29c0.964 3.403-0.01 7.725 0.48 11.039-0.861-0.196-0.48-3.251-0.48-5.039v-6z"></path> <path d="m100.08 337.21h0.72c0.389 1.031 0.389 3.527 0 4.56-1.667-0.45-0.67-3.02-0.72-4.56z"></path> <path d="m85.44 337.68c0.74 1.155 0.849 4.04 0.24 4.561-1.042-0.4-1.035-3.85-0.24-4.56z"></path> <path d="m148.56 337.92c0.783 4.639 0.516 12.51 0.24 19.68-0.64-5.14-0.02-13.22-0.24-19.68z"></path> <path d="m177.36 337.92c0.503 1.486-0.246 2.896-0.72 3.6-1.04-0.64-0.16-3.29 0.72-3.6z"></path> <path d="m8.88 341.76c1.057 0.977 1.584 3.65 1.68 4.8-1.369-0.66-2.157-3.07-1.68-4.8z"></path> <path d="m175.68 342.72c0.388-0.067 0.413 0.227 0.72 0.24-0.526 1.873-0.521 4.279-2.399 4.8 0.36-2.39 1.29-2.95 1.68-5.04z"></path> <path d="m10.8 347.52c1.137 0.975 2.318 3.08 2.16 4.561-1.257-0.85-2.203-3.19-2.16-4.56z"></path> <path d="m94.08 348.25c-0.31 1.546-3.266 0.246-3.84 0.479 0.535-1.66 2.201-0.68 3.84-0.48z"></path> <path d="m98.88 348.25c-0.239 1.126-3.166 0.826-4.08 0.479 0.314-1.17 3.314-1.25 4.08-0.48z"></path> <path d="m102.72 348.25c0.141 1.105-3.588 1.225-3.12-0.24 1.15-0.2 2.84-0.54 3.12 0.24z"></path> <path d="m173.76 348.48c0.39 2.152-1.395 4.204-2.88 5.28-0.02-1.81 1.89-3.69 2.88-5.28z"></path> <path fill="#A28800" d="m85.44 352.56c4.604-0.021 10.339 0.03 14.16 0 0.286 0.515 0.26 1.341 0.721 1.681 1.215-0.202 0.186-1.221 0.96-1.681 1.146 1.47 0.483 3.911 0.239 5.76-0.979 7.435-4.198 14.126-8.4 18.24-4.937-3.558-8.075-10.953-8.88-19.439 0.532 0.188-0.045 1.485 0.96 1.199 0.929-1.21-0.341-3.91 0.24-5.76zm14.64 6.24c0.827-0.508 1.159-3.612 0.24-4.32-0.529 0.73-1.113 3.78-0.24 4.32zm-13.92 4.32c0.788-0.643-0.257-3.138-0.72-4.08-0.644 0.7-0.02 3.28 0.72 4.08zm12.239 1.2c1.456-0.166 2.04-3.419 1.2-4.319-0.792 1.05-0.873 2.81-1.2 4.32zm-10.319 3.85c0.277-1.454-0.651-3.411-1.68-4.32-0.247 1.33 0.568 3.55 1.68 4.32zm8.399 0.95c1.703-0.298 1.666-2.335 2.16-3.841-0.053-0.187-0.201-0.278-0.479-0.239-0.765 1.16-1.171 2.67-1.681 4.08zm-6.239 2.88c0.275-1.14-0.786-2.847-1.92-3.36 0.135 1.63 0.894 2.63 1.92 3.36zm4.32 0.72c1.318-0.441 1.762-1.759 2.16-3.12h-0.72c-0.344 1.18-1.182 1.86-1.44 3.12zm-1.92 2.64c0.905-0.615 2.213-0.827 2.16-2.399-1.361-0.241-1.224 1.016-1.92 1.439-1-0.601-1.074-2.126-2.4-2.399-0.253 1.2 1.22 2.58 2.16 3.36z"></path> <path d="m13.68 352.8c1.333 0.987 2.241 2.399 2.88 4.08-1.62-0.56-2.943-2.61-2.88-4.08z"></path> <path fill="#A28800" d="m84.24 354c0.214 0.147 0.429 0.29 0.48 0 0.779 0.416-0.624 0.629-0.24 1.439-0.371 0.74-0.211-1.04-0.24-1.44z"></path> <path d="m100.32 354.48c0.919 0.708 0.587 3.812-0.24 4.32-0.873-0.54-0.289-3.59 0.24-4.32z"></path> <path d="m167.04 358.32c0.824-1.495 1.847-2.792 3.12-3.84-0.01 2.23-1.76 3.64-3.12 3.84z"></path> <path d="m17.28 357.6c1.637 1.182 3.876 2.979 4.32 4.561-1.846-1.11-3.804-2.11-4.32-4.56z"></path> <path d="m85.44 359.04c0.463 0.942 1.508 3.438 0.72 4.08-0.74-0.8-1.364-3.38-0.72-4.08z"></path> <path d="m165.84 359.76c-0.503 1.817-1.912 2.728-3.6 3.36 0.12-1.28 2.09-2.68 3.6-3.36z"></path> <path d="m99.6 360c0.84 0.9 0.256 4.153-1.2 4.319 0.326-1.51 0.407-3.27 1.2-4.32z"></path> <path d="m22.32 362.64c1.824 0.655 3.328 1.633 4.32 3.12-1.384-0.17-3.758-1.33-4.32-3.12z"></path> <path d="m86.4 363.84c1.029 0.909 1.957 2.866 1.68 4.32-1.112-0.76-1.927-2.98-1.68-4.32z"></path> <path d="m160.8 364.08c-0.805 1.306-2.624 2.772-4.32 2.399 0.97-1.13 2.92-2.47 4.32-2.4z"></path> <path d="m98.16 365.04c0.278-0.039 0.427 0.053 0.479 0.239-0.494 1.506-0.457 3.543-2.16 3.841 0.51-1.41 0.916-2.92 1.681-4.08z"></path> <path d="m27.84 366.24c2.038 0.604 3.716 1.564 5.52 2.4-1.262 1.23-4.689-0.87-5.52-2.4z"></path> <path d="m155.52 367.21c-0.895 1.294-3.397 2.162-5.04 1.92 0.89-1.09 3.2-2.04 5.04-1.92z"></path> <path d="m88.32 368.64c1.134 0.514 2.195 2.221 1.92 3.36-1.026-0.73-1.785-1.73-1.92-3.36z"></path> <path d="m38.88 370.8c-1.688 0.442-3.88-0.566-5.04-1.44 1.041-0.69 4.103 0.46 5.04 1.44z"></path> <path d="m149.52 369.6c-0.893 1.243-3.597 1.523-5.52 1.44 0.85-1.28 4.58-1.8 5.52-1.44z"></path> <path d="m96 369.6h0.72c-0.398 1.361-0.842 2.679-2.16 3.12 0.258-1.26 1.096-1.94 1.44-3.12z"></path> <path d="m45.84 371.76c-1.286 1.157-4.176-0.108-5.76-0.24 0.933-1.6 3.799-0.05 5.76 0.24z"></path> <path d="m142.8 371.52c-1.194-0.168-4.438 1.232-4.8-0.479 1.27 0.04 4.84-1.26 4.8 0.48z"></path> <path d="m137.28 371.28c-1.769 1.343-2.93 0.666-5.521 0.96 0.35-2.15 4.64-1.26 5.52-0.96z"></path> <path d="m122.88 371.04c0.214 0.106 0.429 0.21 0.479 0.479-0.736 1.671-5.246 0.993-6.479 0.72 0.37-2.02 4.55-0.25 6-1.2z"></path> <path d="m130.56 371.28c-0.361 1.642-4.339 0.938-5.76 0.721 0.59-1.73 3.9-0.81 5.76-0.72z"></path> <path d="m58.08 372c-0.714 1.516-4.922 0.465-5.76 0.479v-0.72c1.794-0.31 4.75-0.55 5.76 0.24z"></path> <path d="m65.76 372c-0.821 1.702-3.858 0.275-6.24 0.72 0.687-2.36 4.719-0.65 6.24-0.72z"></path> <path d="m109.2 372c-0.429 1.491-3.468 0.373-5.04 0.72-0.37-1.97 3.76-1.05 5.04-0.72z"></path> <path d="m115.92 371.76c-0.361 1.642-4.339 0.938-5.76 0.72-0.5-1.61 4.42-0.95 5.76-0.72z"></path> <path d="m73.44 372.24c-1.366 1.163-6.204 1.18-6.24-0.239 1.557-0.31 5.05-0.6 6.24 0.24z"></path> <path d="m80.64 372.24c-0.721 1.624-4.275 0.201-5.52 0.721 0.021-0.341 0.04-0.68-0.24-0.721 0.913-0.78 4.846-0.78 5.76 0z"></path> <path d="m87.84 372.24c-0.669 1.365-4.574 0.661-6 0.48 1.024-1.63 4.32-0.69 6-0.48z"></path> <path d="m90.48 372c1.326 0.273 1.4 1.799 2.4 2.399 0.696-0.424 0.559-1.681 1.92-1.439 0.053 1.572-1.255 1.784-2.16 2.399-0.94-0.78-2.413-2.16-2.16-3.36z"></path> <path fill="#A28800" d="m12.48 117.84c-0.639-2.44 0.693-4.617 0.96-6.96 2.112-18.542 4.703-36.861 7.44-53.76 1.69-10.439 3.444-19.422 8.16-26.64 4.293-6.571 10.783-12.212 17.76-16.32 14.788-8.703 34.314-14.71 54.72-12.954 9.926 0.854 18.913 3.632 27.601 7.2 16.456 6.758 30.283 16.477 35.04 35.28 2.23 8.818 3.481 19.759 4.8 29.04 2.911 20.492 4.364 38.901 6.24 57.36 2.086 20.542 3.015 41.775 4.079 61.68 0.448 8.361 0.746 20.331 0.961 28.561 0.132 5.067 0.21 10.384 0.479 16.079 0.273 5.787-0.035 11.546 1.2 16.32 0.783 3.027 4.059 6.526 0.479 9.36 1.782-3.375-0.803-6.913-1.439-9.84-0.544-2.5-0.536-5.771-0.72-8.4-0.782-11.147-0.518-22.566-0.961-33.84-0.441-11.245-1.023-22.42-1.68-33.6-1.281-21.846-2.361-43.332-4.56-63.12-0.066-0.595-0.22-0.188-0.24-0.72-0.354-8.987-1.876-17.924-2.88-26.64-0.993-8.622-2.237-17.073-3.601-25.44-1.936-11.886-2.967-20.329-7.92-28.56-2.2-3.658-5.188-7.946-9.359-11.28-3.062-2.447-7.105-4.621-10.8-6.72-11.372-6.46-23.806-10.635-37.2-11.76-21.225-1.783-38.971 3.917-54 12.96-7.681 4.622-13.678 9.498-18 17.04-4.264 7.439-5.972 17.161-7.68 27.12-1.737 10.13-3.574 20.046-4.8 30.24-1.075 8.93-1.252 18.9-4.08 28.31z"></path> <path fill="#A28800" d="m7.92 117.36c0.022 0.533 0.311 3.268 0 4.56-0.799-1.21-0.819-3.54 0-4.56z"></path> <path fill="#A28800" d="m103.92 241.68c12.06-0.965 22.04-0.403 33.36 0 11.177 0.398 22.302 0.874 34.56 1.2-22.1 0.35-42.93-1.6-67.92-1.2z"></path> <path fill="#A28800" d="m11.52 252.25c6.348 0.176 13.444-0.24 19.92-0.24 21.144 0 36.064-0.895 52.08-0.72-0.066 20.615 0.021 39.529 0 61.68-0.938-0.94-3.367-1.542-4.8-1.2 0.716 1.524 3.755 0.725 4.8 1.92-6.694-0.428-12.356-3.723-18-7.439-4.831-3.182-10.895-4.42-17.28-6-9.45-2.34-19.744-10.037-25.44-17.04-6.447-7.93-10.654-17.47-11.28-30.96zm55.44 53.51c-1.236-1.153-3.175-2.65-4.8-2.64 0.788 1.4 3.444 3.41 4.8 2.64zm-53.52-46.32c0.092-1.414 0.204-4.812-0.96-5.76-0.348 1.68-0.466 5.08 0.96 5.76zm4.32-1.44c9.512 0.019 20.819 0.098 32.4-0.24 10.903-0.318 21.51-0.067 30.48-0.72-21.062-0.23-42.816 0.12-62.88 0.96zm-2.64 8.64c-0.005-1.893-0.502-4.446-1.68-5.52-0.129 1.61 0.31 4.63 1.68 5.52zm2.88 6.96c-0.087-1.546-1.101-4.154-2.4-5.28-0.159 1.8 0.882 4.38 2.4 5.28zm4.08 6.72c-0.729-1.831-1.424-3.696-3.12-4.56 0.64 1.93 1.264 3.86 3.12 4.56zm4.56 5.52c-0.891-1.908-2.269-3.331-3.84-4.56 0.072 1.8 1.921 3.82 3.84 4.56zm4.8 4.56c-0.451-2.188-2.462-2.817-4.08-3.84 0.213 1.5 2.431 2.99 4.08 3.84zm5.52 3.6c-0.635-1.925-2.852-2.269-4.32-3.36-0.021 1.66 2.602 2.66 4.32 3.36zm5.52 2.64c-0.96-1.68-3.193-2.087-5.04-2.88 0.682 1.83 3.215 3 5.04 2.88zm7.2 2.88c-0.889-1.91-3.774-1.825-5.76-2.64 0.667 2.14 3.455 2.15 5.76 2.64zm6 1.44c-0.251-1.609-2.803-1.449-4.8-1.92 0.448 1.8 3.118 1.37 4.8 1.92zm0.72 0.25c1.805 0.522 3.4 1.457 4.56 1.439-0.845-1.832-3.068-1.396-4.32-2.399-0.076 0.32-0.342 0.45-0.24 0.96zm15.6 7.91c-0.574-1.267-1.973-1.708-3.36-2.16 0.172 1.56 2.437 2.15 3.36 2.16zm5.76 2.17c-0.18-0.944-2.886-1.432-4.32-1.921 0.321 1.47 3.596 2.43 4.32 1.92z"></path> <path d="m163.68 279.36c0.851-1.789 1.469-3.811 3.12-4.8-0.48 1.83-0.99 3.61-3.12 4.8z"></path> <path fill="#A28800" d="m19.92 282c1.172 1.089-1.657 3.168-0.72 4.8 1.426-0.254 1.18-2.18 1.92-3.12 6.702 8.47 16.552 14.896 27.12 18.72 4.842-0.005 8.899 2.102 12 2.641 6.462 4.469 11.942 8.463 20.64 10.56-0.814 5.01-0.493 15.189-0.48 22.32 0.007 3.854-0.462 6.63 1.44 8.64-1.65 0.512-0.844 4.483-0.96 5.76 0.333 0.628 2.037-0.116 2.4 0.48-0.484 9.64 2.394 14.524 5.28 20.88-15.21-0.202-24.726 0.161-40.56-0.72-0.57-0.946 2.771 0.508 3.12-0.721-0.855-1.499-2.985-0.463-4.8-0.72-0.342 1.062 0.812 0.628 0.72 1.44-11.644-0.407-21.074-4.734-28.08-11.521-8.36-8.096-13.5-20.348-12.48-35.04 3.581-15.379 7.286-30.634 13.2-43.68-0.068-0.38 0.227-0.41 0.24-0.72zm-10.8 54.72c0.37-14.979 4.432-29.732 9.36-41.28 1.187-2.78 3.231-5.735 2.88-8.88-2.919 5.48-4.585 12.215-7.44 17.76 0.317-0.768 0.868-2.141-0.24-2.399-0.73 1.75-1.435 3.524-1.68 5.76 1.4 0.36 0.922-1.158 1.68-1.439-0.438 1.321-0.527 2.992-1.44 3.84 0.073-0.633-0.332-0.788-0.96-0.721-0.353 1.888-1.125 3.354-1.2 5.521 0.478 0.582 1.025-0.405 1.2 0.479-0.576 0.544-0.235 2.006-0.96 2.4-0.083-0.558-0.155-1.125-0.96-0.96 0.043 1.611-1.773 4.214-0.24 5.04 0.865-0.575 0.479-2.4 1.2-3.12-0.747 6.16-2.28 11.87-1.2 18zm7.44-43.2c1.809-0.655 2.285-3.705 2.4-5.279-0.307-0.014-0.333-0.308-0.72-0.24-0.403 2-1.597 3.21-1.68 5.52zm-5.76 39.84c0.983-16.416 5.814-28.624 11.04-42.479-0.054-0.187-0.006-0.474-0.24-0.48-5.062 12.91-11.238 27.16-10.8 42.96zm3.6-32.64c1.495-1.064 1.771-3.35 2.16-5.52-0.307-0.014-0.333-0.308-0.72-0.24-0.561 1.76-1.746 3.92-1.44 5.76zm-1.68 26.16c2.099-9.661 4.64-18.881 7.92-27.36-0.053-0.187-0.201-0.278-0.479-0.239-3.364 8.7-6.638 18.29-7.441 27.6zm21.12-18.71c0.312 10.031-0.646 19.931 0.48 28.56-0.434-7.802 0.142-18.692 0-29.04-0.053-0.187-0.201-0.279-0.48-0.24v0.72zm1.2 26.87c0.019-6.824 0.303-13.118 0.24-23.28-0.053-0.188-0.201-0.279-0.48-0.24 0.16 7.77-0.32 16.16 0.24 23.52zm27.6 9.13c0.004 3.794-0.495 7.692 0.48 11.52 0.041-8.606-0.155-12.51-0.24-20.64-0.08-7.584-0.114-16.602 0.24-23.04-0.053-0.188-0.201-0.279-0.48-0.24-0.463 11.6-0.014 19.93 0 32.4zm1.44 19.91c0.354-13.878 0.218-29.341-0.48-42.48 0.103 15.47-0.102 28.37 0.48 42.48zm-56.16-36.48c0.786-1.134 0.719-3.121 0.96-4.8h-0.72c-0.19 1.22-1.344 3.88-0.24 4.8zm27.84 31.44c1.135-10.567 0.019-25.935 0.72-33.84-0.053-0.188-0.201-0.279-0.48-0.24-0.135 10.57-0.312 20.43-0.24 34.08zm28.8-31.68c0.557 12.138-0.436 30.06 0.96 42.48-0.278-15.231-0.398-28.646-0.48-42.96-0.053-0.188-0.201-0.279-0.48-0.24v0.72zm-56.88 6.96c0.9-0.978 0.367-4.541 0.48-5.52-0.307-0.014-0.333-0.308-0.72-0.24-0.265 1.36-0.669 4.8 0.24 5.76zm0.48 6.97c1.954-0.618-0.387-3.471 0.24-5.761-0.307-0.013-0.333-0.308-0.72-0.239-0.634 2.08 0.426 4.43 0.48 6zm26.64 0c0 1.788-0.381 4.843 0.48 5.039-0.49-3.314 0.484-7.636-0.48-11.039v6zm-24.24 5.27c-0.096-1.149-0.624-3.823-1.68-4.8-0.477 1.73 0.311 4.14 1.68 4.8zm2.4 5.52c0.158-1.48-1.023-3.586-2.16-4.561-0.043 1.37 0.903 3.71 2.16 4.56zm3.6 4.8c-0.639-1.681-1.547-3.093-2.88-4.08-0.063 1.47 1.26 3.52 2.88 4.08zm5.04 5.29c-0.444-1.582-2.683-3.379-4.32-4.561 0.516 2.44 2.474 3.44 4.32 4.56zm5.04 3.59c-0.992-1.487-2.496-2.465-4.32-3.12 0.562 1.79 2.936 2.95 4.32 3.12zm6.72 2.88c-1.804-0.836-3.482-1.797-5.52-2.4 0.831 1.53 4.258 3.63 5.52 2.4zm0.48 0.72c1.16 0.874 3.353 1.883 5.04 1.44-0.937-0.98-3.999-2.13-5.04-1.44zm6.24 2.16c1.584 0.132 4.474 1.397 5.76 0.24-1.961-0.29-4.827-1.84-5.76-0.24zm12.24 0.24v0.72c0.838-0.015 5.046 1.036 5.76-0.479-1.01-0.79-3.966-0.55-5.76-0.24zm7.2 0.96c2.382-0.444 5.418 0.982 6.24-0.72-1.521 0.07-5.553-1.64-6.24 0.72zm7.68-0.72c0.037 1.419 4.874 1.402 6.24 0.239-1.19-0.84-4.683-0.55-6.24-0.24zm7.68 0.24c0.28 0.041 0.261 0.38 0.24 0.721 1.244-0.52 4.799 0.903 5.52-0.721-0.914-0.78-4.847-0.78-5.76 0zm6.96 0.48c1.426 0.181 5.331 0.885 6-0.48-1.68-0.21-4.976-1.15-6 0.48z"></path> <path fill="#A28800" d="m97.439 350.88c-0.07-0.631 0.932-0.189 0.721-0.96-0.754-0.503-2.802-0.25-3.601 0-0.143 0.766 0.45 0.742 0 1.2-0.646-0.394-1.23 0.326-1.92-0.24 0.027-0.453 0.793-0.167 0.72-0.72-0.651-0.753-2.395-0.523-3.6-0.24-0.072 0.632 0.333 0.787 0.96 0.72-0.459 0.75-2.267 0.133-2.88 0.24-0.103-0.663 0.895-0.226 0.96-0.72-1.155-0.824-2.794-0.983-3.6 0-0.072 1.111 2.28-0.2 2.16 0.96-1.815-0.536-2.501 0.192-4.32-0.24-0.649-0.435 1.541-0.04 1.44-0.72 0.176-1.376-2.128-0.272-2.64-0.96 0.285-1.076 2.706-0.015 3.36-0.721 0.011-0.41-0.178-0.621-0.48-0.72 0.852-0.556 1.553-0.331 2.64-0.24-0.217 0.503-1.354 0.086-1.44 0.721 0.702 1.123 1.779 0.469 3.12 0.479 0.347-0.907-0.66-0.461-0.48-1.2 6.14-0.046 10.525-0.052 16.32 0-0.229 1.188-1.376 0.031-1.68 0.96 0.022 1.018 2.202-0.123 1.92 1.2-0.818 0.513-1.262-0.092-2.16 0.24-0.198 0.678 0.338 0.622 0.24 1.2h-2.16c-0.231-0.871 1.078-0.202 0.96-0.96-0.285-0.845-2.706-0.531-3.36-0.24-0.182 0.896 3.121 1.076 1.681 0.96-0.94 0.08-1.829 0.44-2.881 0zm-7.199-2.16c0.574-0.233 3.531 1.066 3.84-0.479-1.639-0.19-3.305-1.17-3.84 0.48zm4.56 0c0.914 0.347 3.841 0.646 4.08-0.479-0.766-0.76-3.766-0.68-4.08 0.48zm4.8-0.72c-0.468 1.465 3.261 1.346 3.12 0.24-0.28-0.77-1.97-0.43-3.12-0.24z"></path> <path fill="#A28800" d="m165.6 281.76h0.72c5.383 13.679 11.912 28.531 12.721 46.32 0.254 5.604-0.836 10.389-1.44 14.88-6.661 19.877-24.328 30.393-44.64 30-9.601-0.186-23.147 1.189-34.561 0.24 0.524-1.429 3.506 0.836 4.561-0.961-0.845-1.047-2.343-0.488-3.84-0.479 3.229-5.055 5.286-12.104 4.8-18.96 0.854-0.142 1.686 0.016 2.88-0.24 0.376-0.789 0.199-3.439 0.24-5.28-0.16-0.96-1.544-0.696-2.641-0.72 3.468-2.955 2.523-8.833 2.4-15.12-0.104-5.317 0.76-9.363 0.24-12.479-0.334-1.998-1.338-2.967-3.12-3.36 10.358-1.574 17.777-9.718 26.64-12.72 2.174-0.736 4.566-0.854 6.721-1.44 10.992-2.99 19.516-8.771 26.159-16.8 8.471 16.928 15.411 39.532 9.84 60.48 1.513-0.891 1.893-3.467 2.16-5.04 3.377-19.876-4.219-40.661-11.04-56.641 1.185 0.576 1.092 2.429 2.16 3.12 1.26-1.39-1.19-2.87-0.96-4.8zm4.56 72.72c-1.273 1.048-2.296 2.345-3.12 3.84 1.36-0.2 3.11-1.61 3.12-3.84zm-6.72-66.23c5.481 12.175 11.579 29.636 9.84 45.84-0.268 2.495-1.356 5.132-0.239 6.72 3.944-19.399-2.606-38.151-8.88-52.8-0.343-0.058-0.405-0.396-0.721-0.48v0.72zm6 4.31c0.005-2.165-1.215-3.105-1.439-5.04h-0.721c-0.12 1.6 0.46 4.48 2.16 5.04zm-6.24 1.44c4.041 10.243 8.187 21.822 8.159 34.56-0.003 1.704-0.764 3.987 0.48 5.521 0.71-15.604-3.243-29.798-8.64-40.8v0.72zm8.4 5.52c0.779-1.427-0.468-4.748-1.92-5.52 0.29 2.2 0.92 4.04 1.92 5.52zm1.92 6c0.799-1.074-0.218-4.178-1.439-4.8-0.23 1.4 0.54 3.74 1.44 4.8zm-27.36-0.72c-0.009 12.773 0.232 24.11 0 34.32 1.077-0.485 0.497-2.072 0.479-3.12-0.185-10.966 0.015-23.415 0.24-31.681-0.053-0.187-0.201-0.278-0.48-0.239 0.01 0.34-0.11 0.53-0.24 0.72zm29.28 7.92c0.829-1.477-0.419-4.797-1.439-6-0.36 1.92 0.35 4.75 1.44 6zm-60.72 35.04c-0.089-11.835-0.383-20.936 0.24-35.04-0.317-0.003-0.22-0.421-0.48-0.479-0.4 9.34-0.64 23.56 0.24 35.52zm62.16-28.32c0.54-1.31 0.342-4.541-1.2-5.52-0.3 1.63 0.07 4.54 1.2 5.52zm-29.76 29.77c1.259-10.593-0.138-23.717 0.72-34.32-0.053-0.188-0.201-0.279-0.48-0.24-0.42 8.82-0.19 24.55-0.24 34.56zm1.44-11.77c1.093-4.558 0.181-13.063 0.48-19.199-0.054-0.188-0.201-0.279-0.48-0.24-0.05 7.12 0.09 13.39 0 19.44zm29.28-11.27c0.661-1.07 0.222-4.097-0.72-5.04-0.66 0.94-0.23 4.18 0.72 5.04zm-62.88-3.61c-0.009 10.578 0.24 16.219 0.24 26.88 0 3.205-0.593 6.709 0.72 9.36-0.324-12.17-0.849-23.831-0.24-36.24 0.013-0.413-0.185-0.615-0.479-0.72-0.01 0.31-0.31 0.34-0.24 0.72zm63.12 8.65c0.3-1.258 0.861-3.863-0.48-4.561-0.09 1.49-0.79 3.64 0.48 4.56zm-0.48 5.51c0.854-0.826 0.72-2.641 0.72-4.32h-0.96c0.45 1.56-1 3.55 0.24 4.32zm-61.2-3.36c0.254 14.254-0.385 22.697 0.48 33.601 0.43-9.357-0.184-19.426 0-34.08-0.053-0.188-0.201-0.279-0.48-0.24v0.72zm32.4 24.24c0.275-7.17 0.543-15.041-0.24-19.68 0.22 6.46-0.4 14.54 0.24 19.68zm27.84-16.08c0.474-0.703 1.223-2.113 0.72-3.6-0.88 0.31-1.76 2.96-0.72 3.6zm-2.64 6.24c1.879-0.521 1.873-2.927 2.399-4.8-0.307-0.014-0.332-0.308-0.72-0.24-0.39 2.09-1.32 2.65-1.68 5.04zm-3.12 6c1.485-1.076 3.27-3.128 2.88-5.28-0.99 1.59-2.9 3.47-2.88 5.28zm-8.64 9.36c1.688-0.633 3.097-1.543 3.6-3.36-1.51 0.68-3.48 2.08-3.6 3.36zm-5.76 3.36c1.696 0.373 3.516-1.094 4.32-2.399-1.4-0.07-3.35 1.27-4.32 2.4zm-6 2.64c1.643 0.242 4.146-0.626 5.04-1.92-1.84-0.11-4.15 0.84-5.04 1.92zm-6.48 1.92c1.923 0.083 4.627-0.197 5.52-1.44-0.94-0.36-4.67 0.16-5.52 1.44zm-6 0c0.362 1.712 3.605 0.312 4.8 0.479 0.04-1.74-3.53-0.44-4.8-0.48zm-6.24 1.2c2.591-0.294 3.752 0.383 5.521-0.96-0.88-0.3-5.17-1.19-5.52 0.96zm-14.88 0c1.233 0.273 5.743 0.951 6.479-0.72-0.051-0.27-0.266-0.373-0.479-0.479-1.45 0.95-5.63-0.82-6 1.2zm7.92-0.24c1.421 0.217 5.398 0.921 5.76-0.721-1.86-0.09-5.17-1.01-5.76 0.72zm-20.64 0.72c1.572-0.347 4.611 0.771 5.04-0.72-1.28-0.33-5.41-1.25-5.04 0.72zm6-0.24c1.421 0.218 5.398 0.922 5.76-0.72-1.34-0.23-6.26-0.89-5.76 0.72z"></path> <path d="m182.4 264.72c0.29 1.887-0.395 2.921 0 4.561 0.406 1.683 1.954 2.102 2.16 3.6 0.334 2.419-2.052 4.876-1.92 7.439 0.063 1.229 1.169 2.354 1.2 3.601 0.03 1.225-0.803 1.991-0.96 3.12-0.159 1.144-0.157 3.258 0 4.319 0.145 0.978 0.914 2.082 0.96 3.12 0.086 1.939-1.466 3.953-0.72 6-0.177 1.253-1.474 0.236-2.16 1.2-0.479 17.205 2.279 36.089-4.8 49.92-2.353 4.596-5.832 8.189-9.36 11.521-3.684 3.477-7.895 5.935-12.72 7.92-9.642 3.966-21.252 3.766-33.84 4.319-3.788 0.167-7.705 0.221-11.28 0.24-3.261 0.018-8.183-0.924-11.76 0-1.548 0.399-2.022 1.81-3.36 1.92-2.248 0.187-2.532-1.486-4.32-1.92-3.546-0.86-8.5 0-12.48 0-4.343 0-8.686 0.02-12.24 0-7.347-0.039-15.092 0.417-21.84-0.479-18.398-2.445-31.068-15.248-35.76-31.2-1.733-5.893-1.24-11.812-0.96-18.96 0.307-7.825-0.504-14.12 0.24-24-0.643-1.119-1.928 0.346-2.4-0.72 0.83-2.762-1.726-4.993-1.68-7.44 0.023-1.253 1.395-2.343 1.44-3.84 0.049-1.628-1.377-2.734-1.44-4.32-0.05-1.27 1.06-2.299 1.2-3.84 0.392-4.316-5.587-9.284 0-11.52-0.033-2.426 0.021-4.791 0.24-5.761-1.299-1.572-2.681-2.412-2.88-4.56-0.256-2.763 2.302-5.863 2.16-8.4-0.096-1.703-1.676-2.893-1.68-4.56-0.005-1.928 0.931-2.854 1.92-4.08 0.303-31.274 2.539-58.252 5.28-89.04-1.852 1.541-4.318 13.133-8.64 9.12 3.242-6.358 7.231-11.969 8.16-20.64 0.096-1.296-1.865-0.535-1.92-1.68 1.781-3.937-1.462-11.058 0.96-15.84-1.698-2.942-0.869-7.722 1.68-9.12 1.6-0.829 1.687 1.015 2.64 0.48 0.75-0.421 0.88-5.259 1.2-8.16 1.738-15.785 4.078-30.453 6.48-45.12 0.966-5.9 1.592-11.865 2.88-17.52 2.153-9.457 7.963-18.722 13.92-23.76 3.296-2.788 7.212-4.79 10.8-6.96 3.017-1.825 6.103-3.855 10.08-5.76 10.762-5.155 24.786-8.065 38.16-7.92 9.544 0.104 17.481 1.655 25.439 4.08 15.329 4.67 30.979 13.624 39.12 25.68 8.966 13.277 9.702 31.964 12.24 50.64 0.922 6.785 1.723 13.35 2.64 20.88 0.265 2.172-0.124 4.704 1.2 6.72-0.307 5.882 0.544 11.807 0.96 17.52 2.921 40.101 6.225 79.426 6 117.6 0.581 1.273 1.55 2.163 1.68 3.6 0.134 1.472-0.805 2.238-0.96 3.601-0.119 1.05 0.372 2.829 0.721 3.84 0.658 1.908 2.557 3.046 1.92 6.72-0.78 1.71-2.11 2.85-3.6 3.84zm-165.84-175.2c1.226-10.194 3.062-20.11 4.8-30.24 1.708-9.958 3.417-19.68 7.68-27.12 4.322-7.542 10.319-12.418 18-17.04 15.029-9.043 32.775-14.743 54-12.96 13.395 1.125 25.828 5.299 37.2 11.76 3.694 2.099 7.738 4.273 10.8 6.72 4.172 3.334 7.159 7.622 9.359 11.28 4.953 8.231 5.984 16.674 7.92 28.56 1.363 8.367 2.607 16.818 3.601 25.44 1.004 8.716 2.525 17.653 2.88 26.64 0.021 0.532 0.174 0.125 0.24 0.72 2.198 19.788 3.278 41.274 4.56 63.12 0.656 11.18 1.238 22.355 1.68 33.6 0.443 11.273 0.179 22.692 0.961 33.84 0.184 2.63 0.176 5.9 0.72 8.4 0.637 2.927 3.222 6.465 1.439 9.84 3.579-2.834 0.304-6.333-0.479-9.36-1.235-4.774-0.927-10.533-1.2-16.32-0.27-5.695-0.348-11.012-0.479-16.079-0.215-8.229-0.513-20.199-0.961-28.561-1.064-19.904-1.993-41.138-4.079-61.68-1.876-18.459-3.329-36.869-6.24-57.36-1.318-9.281-2.569-20.222-4.8-29.04-4.757-18.804-18.584-28.522-35.04-35.28-8.688-3.567-17.675-6.346-27.601-7.2-20.406-1.75-39.932 4.257-54.72 12.966-6.977 4.108-13.467 9.749-17.76 16.32-4.716 7.218-6.47 16.201-8.16 26.64-2.737 16.899-5.328 35.217-7.44 53.76-0.267 2.343-1.599 4.52-0.96 6.96 2.828-9.42 3.005-19.39 4.08-28.325zm161.28 161.52c-0.115-1.574-1.287-2.753-1.2-4.32 0.067-1.212 0.996-2.148 1.2-3.36 0.278-1.656-0.306-3.036 0-4.8-0.084-0.964 1.885 0.125 1.439-1.199-2.481-59.315-3.782-111.83-12.239-166.32-1.328-8.553-2.293-17.674-4.08-25.92-1.819-8.393-6.202-14.214-10.08-19.92-16.461-11.906-34.665-23.4-63.12-21.6-3.778 0.239-7.122 0.289-9.6 0.96-2.729 0.551-5.417 0.934-8.16 1.68-2.819 0.767-5.616 1.856-8.4 2.88-16.41 6.03-31.001 15.036-36.479 31.92-1.852 5.705-2.759 12.156-3.84 18.72-2.191 13.311-4.284 25.861-5.76 38.4-0.801 6.803-0.691 13.824-2.88 19.44-0.549 1.408-2.491 3.292-1.92 5.04 0.306 0.937 2.05 1.422 2.88 2.16 4.164 3.701-0.487 9.198-0.96 14.88-0.456 5.476 0.16 10.397-0.96 15.36-0.004 0.716-1.778-0.339-1.44 0.72-2.478 27.61-4.715 53.902-4.8 81.84 1.977 1.119 0.644 3.079 0.96 5.28 0.193 1.344 0.98 2.221 0.96 3.12-0.022 1.023-0.631 1.984-0.72 2.88-0.49 4.971 5.048 11.978-0.72 14.64 0.352 3.303-0.998 5.985 0.96 7.681-0.112-3.81 2.307-7.813 2.4-12.24 0.033-1.551-0.601-3.073-0.72-4.561-0.356-4.463-0.175-8.807 0.24-12.72 24.384-1.259 47.97-1.263 72.24-1.439 0.624-0.45 0.536-1.519 1.68-1.92 1.306-0.459 3.537 0.24 5.28 0.239 1.682-0.001 4.216-0.148 4.8-0.239 3.944-0.616 6.212 0.712 8.64 0 0.465 0.415-0.205 1.966 0.721 1.92 27.844 0.035 46.335 0.801 71.04 2.159 1.213 4.86-0.57 12.415 0.96 15.841 0.3-2.78 1.87-4.59 1.68-7.2zm-168.72-134.87c0.037-0.001 0.48 0 0.48 0-0.01 1.908 0.994 4.614 1.2 7.68 0.448 6.676-1.651 10.619-2.64 14.64 4.146-5.04 3.984-15.041 1.92-22.8-0.547-0.07-0.902 0.05-0.96 0.48zm-1.2 5.75c0.311-1.292 0.022-4.027 0-4.56-0.819 1.02-0.799 3.35 0 4.56zm0.24 13.2c-0.924-4.992 0.545-10.119 1.2-13.44-2.16 3.28-3.239 9.84-1.2 13.44zm4.56 1.2c-1.092 5.431-0.157 11.096-1.2 16.56 1.297-0.728 1.102-2.377 1.2-3.36 0.433-4.316-0.093-8.694 0.96-13.2 1.056-4.514 4.601-9.86 0-11.52 4.045 3.04-0.057 7.04-0.96 11.52zm-3.36-6.48c0.962-0.924 0.613-2.219 0.48-3.12-0.315 0.89-0.216 2.19-0.48 3.12zm2.64 6.48c0.279-1.641 0.982-2.858 1.2-4.56h-0.72c0.105 1.59-1.678 3.44-0.48 4.56zm-2.16 16.08c-2.852 26.271-4.826 55.96-5.28 84-0.076 4.675 0.303 9.452-0.24 13.681-0.518 4.034-3.817 8.068-0.72 10.8 0.19-1.267-0.803-1.643-0.72-3.36 0.083-1.738 1.589-3.717 1.92-5.279 1.697-8.019 0.498-18.781 0.96-28.08 1.151-23.178 2.018-46.247 4.56-68.4 0.738-6.429 1.857-12.996 0.24-18.24 0.309 5.08-0.169 9.81-0.72 14.88zm-8.16 8.64c1.434-0.677 1.895-2.474 2.64-3.84 2.592-4.751 5.333-10.098 5.52-16.8-0.051-0.269-0.266-0.374-0.48-0.48-0.657 8.95-4.67 14.54-7.68 21.12zm4.56 90.96c0.514 3.23 2.784 5.957 1.92 8.88 1.98-2.794-0.892-6.871-1.44-11.28-0.496-3.982 0.596-8.621-0.24-10.56-0.037 4.06-0.788 9.52-0.24 12.96zm172.8-1.92c-0.307 4.374-3.942 9.585-0.96 11.76 0.303-0.929-0.541-1.84-0.48-2.88 0.074-1.265 1.093-2.238 1.44-3.36 1.335-4.308 0.447-10.018 0.239-16.08-0.053-0.187-0.2-0.278-0.479-0.239-0.28 3.47 0.54 6.49 0.24 10.8zm-90.72-9.36c3.407 0.655 7.417 0.455 11.28 0-3.053-0.35-8.76-0.3-11.28 0zm83.52 2.16c-12.258-0.326-23.383-0.802-34.56-1.2-11.32-0.403-21.301-0.965-33.36 0 24.99-0.4 45.82 1.55 67.92 1.2zm-158.16 0c25.068-0.781 45.581-0.427 69.84-1.68-27.468 0.35-47.247-0.05-69.84 1.68zm72.72-0.96c1.03 1.231 4.699 0.709 7.68 0.72 2.205 0.008 4.947 0.595 6-0.72-5.387-0.04-8.024-0.12-13.68 0zm-19.2 0.72c-7.825 0.104-18.585 0.211-28.56 0.48-7.345 0.198-16.65 0.277-22.56 0.479-0.786 0.027-2.569-0.146-2.88 0.96 19.874-0.266 47.622-0.809 67.2-0.96 0.937-0.007 2.518 0.146 3.12-0.72-4.235-0.46-10.331-0.32-16.32-0.24zm89.04 0.96c-16.943-0.756-34.671-1.021-51.601-0.96-0.051-0.29-0.267-0.147-0.479 0-0.188 0.053-0.279 0.201-0.24 0.48 25.29 0.264 46.106 0.927 68.16 1.68-4.57-1.21-10.24-0.94-15.84-1.2zm-70.8 0.48c-0.217-0.418-0.537-0.925-0.96-0.48v0.721c4.125 0.681 11.269 0.881 15.36 0v-0.721c-2.835-0.02-10.51-0.98-14.4 0.48zm16.32 0.48v-0.96h-0.72c-0.07 0.63-0.08 1.21 0.72 0.96zm-98.4 3.12c-0.271-1.089 0.573-3.293-0.48-3.6-0.39 1.04-0.722 3.05 0.48 3.6zm34.56-2.88c-0.85 0.026 0.51 0.794-0.24 0.72-0.462-0.098-0.189-0.93-0.96-0.72-6.755 0.342-12.938 0.424-19.68 0.72-2.021 0.089-6.023-1.127-5.76 1.92 0.955 0.78 0.486-1.468 1.68-1.199 0.106 0.453-0.327 1.446 0.48 1.199 25.013-0.697 47.254-0.843 70.08-1.439v-1.92c-11.642 0.16-28.956 0.5-45.6 0.72zm134.64 1.92c-0.756 0.036-0.102-1.339-1.2-0.96-24.607-1.389-43.73-1.693-67.199-1.68-0.302 0.099-0.491 0.31-0.48 0.72v1.2c22.712-0.023 44.34 0.45 64.8 1.2 1.73 0.063 6.135 1.625 5.04-1.44-1.01-0.37 0.05 1.34-0.96 0.96zm10.08 1.2c0.436-0.799 0.423-2.894-0.479-3.12-0.24 0.99-0.25 2.21 0.48 3.12zm-98.16-2.4c0.074 0.726-0.267 1.867 0.48 1.92 0.003-0.636-0.133-1.413 0.48-1.439 0.781 0.099 0.619 1.142 0.96 1.68 5.568-0.149 10.297 0.345 15.36-0.24v-1.439c-3.088-0.66-12.136-0.48-17.28-0.48zm19.44 1.2c-0.387 0.887-0.387 3.193 0 4.08 8.331 0.275 15.332-0.581 20.4 0.72-8.049-0.091-14.031 0.002-20.641-0.239-0.002 21.002-0.095 45.976 0.24 60.239 2.064 0.087 2.465-1.306 4.08-0.72-0.489 1.511-2.971 1.029-3.84 2.16 12.737-2.204 19.521-11.435 31.92-13.2 0.047-1.241-2.688 0.762-2.641-0.479 0.585-1.096 2.602-0.759 3.841-1.2 0.335 0.689-0.654 1.219 0 1.439 21.123-6.898 34.114-21.764 36.479-46.319-16.653-1.356-32.997-1.196-49.2-1.92 16.367-0.512 31.134 0.417 47.76 1.199-0.119-1.32 0.265-3.145-0.239-4.08-24.7-1.44-43.23-1.62-68.16-1.68zm-64.32 0.96c-8.882 0.241-16.859 0.244-26.64 0.48v3.6c11.949-0.044 24.74-0.72 37.44-0.72 4.979 0 9.831 0.429 12-0.72 5.188 1.223 13.868 0.097 21.12 0.479v-3.84c-16.956-0.01-30.23 0.35-43.92 0.72zm-27.84 4.08c0.338-0.667 0.579-3.291-0.24-3.6-0.296 1.43-0.452 3.18 0.24 3.6zm74.64-3.12c-0.698 0.183 0.218 1.978-0.48 2.16-1.515 0.314-0.372-2.028-1.44-2.16 0.127 1.509-0.204 3.222 0 4.08 0.783 0.063 0.509-0.932 1.2-0.96 0.304 0.343 0.613 1.028 1.2 1.2 2.895 0.85 12.491-1.092 14.88-0.24-0.28-1.239 0.586-3.625-0.479-4.08-0.782 0.738 0.424 3.465-0.721 3.84-1.225-1.157-0.187-2.317-0.72-3.84-5.03-0.18-9.795-0.18-13.44 0zm87.12 3.84c0.505-0.935 0.12-2.76 0.24-4.08h-0.72c0.16 1.36-0.41 3.46 0.48 4.08zm-150.72 30.73c5.696 7.003 15.99 14.7 25.44 17.04 6.386 1.58 12.45 2.818 17.28 6 5.644 3.717 11.306 7.012 18 7.439-1.045-1.195-4.084-0.396-4.8-1.92 1.434-0.342 3.863 0.26 4.8 1.2 0.021-22.15-0.066-41.064 0-61.68-16.016-0.175-30.936 0.72-52.08 0.72-6.476 0-13.572 0.416-19.92 0.24 0.626 13.49 4.833 23.03 11.28 30.96zm63.36-29.53c-0.297 1.242 0.548 3.132-0.24 3.36-1.368-0.072-0.86-2.021-0.96-3.36-1.004 1.867-0.458 4.165-0.48 6.24-0.19 17.371-0.02 33.832 0 52.8 1.403-0.781-0.333-2.758 1.2-2.88 0.93 0.35 0.11 2.45 0.72 3.12 1.173 0.187 3.251-0.532 3.36 0.72-1.134 0.84-3.155-0.631-3.6 0.72 1.482 0.551 3.213-0.369 5.52-0.239-0.073-0.561-0.512-1.034 0.24-1.2 1.603 0.343 3.769-0.72 4.08 0.479 0.042 0.683-1.57-0.29-1.2 0.721 1.539-0.421 3.918 1.021 5.04 0 0.019-1.219-2.621 0.221-2.64-0.96 0.417-0.623 1.594-0.486 2.64-0.48 0.23-0.729-0.514-2.434 0.48-2.4 1.908 0.702-0.608 4.449 1.439 4.801 0.263-22.346-0.439-37.8-0.24-56.4 0.018-1.655 1.092-3.899-0.479-5.28-0.234 1.366 0.519 3.72-0.48 4.32-1.285-0.778-0.288-3.213-0.72-4.32-5.67 0.15-9.477-0.45-13.68 0.24zm-80.88 2.64h0.96c0.05-0.689-0.061-1.219-0.48-1.439-0.192 0.45-0.401 0.88-0.48 1.44zm174.96 0.72c0.556 0.076 0.921-0.039 1.199-0.24-0.322-0.558 0.033-1.793-0.96-1.68 0.17 0.9-0.41 1.04-0.24 1.92zm-174.96 6c-0.175-0.545 0.433-1.873-0.48-1.681-0.038 0.76-0.008 1.45 0.48 1.68zm172.56 6.48c0.937-2.343 0.658-6.815-1.44-8.16 0.66 2.87 0.37 5.26 1.44 8.16zm-166.56-6.48c-2.845 18.417-4.508 35.445-3.6 54.479 0.053-19.074 1.31-37.246 4.32-54.96-0.053-0.187-0.201-0.278-0.48-0.24 0.01 0.34-0.113 0.53-0.24 0.72zm162.72 0.96c2.058 11.789 3.139 24.304 3.84 36.24 0.237 4.045 0.012 8.021 0.96 11.76-0.171-16.489-1.507-34.013-4.56-48.96-0.09 0.33-0.33 0.46-0.24 0.96zm-169.44 0.96c0.211 0.828 1.19-0.286 1.2 0.96h-1.2c0.302 1.773-0.335 4.381 0.72 4.8-0.408-1.185 0.167-2.032 0-3.6 0.49-0.419 0.471 0.179 0.96-0.24v-2.88c-0.627-0.22-1.823-0.22-1.68 0.96zm175.2 5.76c0.23-1.529-0.16-3.681 0.96-4.32-0.146-0.414-1.139 0.019-1.2-0.479 0.558-0.531 0.643-0.212 1.2-0.48-0.004-0.636 0.133-1.413-0.479-1.439-0.148 1.261-0.477 0.251-0.961 0-0.1 2.03-0.67 4.67 0.48 6.72zm-171.12 41.76c1.026-2.113 0.963-4.104 1.92-6.479-1.218 0.129-0.651-0.204-0.96-0.72 0.483-10.751 1.138-23.671 3.12-33.36 0.736 4.154-0.593 8.434-0.96 12.72-0.578 6.752-1.135 13.538-0.96 20.16 2.545-8.347 5.069-16.257 8.4-24.24-2.972-4.147-4.786-9.454-6.72-14.64-2.709 14.47-3.969 32.57-3.84 46.56zm163.68-43.68c2.021 9.347 3.127 20.215 3.12 29.04-1.18-0.76-0.633-2.52-0.72-3.6-0.627-7.784-1.365-15.942-2.88-23.521-1.293 3.027-2.663 5.978-4.32 8.64 0.728 0.873 0.689 2.511 1.681 3.12 0.323-1.521-1.143-3.276 0-4.08 0.737 4.695 0.61 8.788 3.119 11.761-0.14-4.724-2.043-10.86-1.439-15.36 1.868 4.795 0.771 11.698 1.68 17.04 0.731 4.302 3.477 8.528 4.32 12.479-0.616-12.754-1.178-25.478-3.84-36.72-0.28 0.36-0.3 0.99-0.72 1.2zm4.8 2.16c0.214 10.141 2.243 18.884 2.159 28.08 1.366-1.27 0.798-3.718 0.721-5.521-0.326-7.6-1.613-14.866-1.92-22.8-0.014-0.146-0.036-0.284-0.24-0.24-0.06 0.34-0.53 0.28-0.72 0.48zm-173.04 6.25c1.387 4.482 0.871 12.269 0.96 17.279 0.027 1.521-0.967 3.451 0.48 4.32 0.273-4.957 0.407-10.577 0.24-15.36-0.073-2.086 0.027-4.546-0.48-6.239-0.485-1.62-1.673-2.683-1.92-4.08-0.191-1.085 0.701-1.771-0.24-2.4-2.182 2.29 0.184 3.97 0.96 6.48zm3.12 5.75c0.912-2.674 1.674-7.284 0.72-10.32-0.615 3.12-0.043 6.09-0.72 10.32zm173.28-2.88c0.795-1.419 1.443-4.299 1.681-6-0.83 1.44-2.87 4.14-1.68 6zm-0.48 0.72c0.776 2.064-0.313 4.51 1.2 5.76-0.283-2.246 0.017-3.803-0.48-6-0.04 0.28-0.38 0.27-0.72 0.24zm-13.44 5.76c-1.068-0.691-0.976-2.544-2.16-3.12 6.821 15.979 14.417 36.765 11.04 56.641-0.268 1.573-0.647 4.149-2.16 5.04 5.571-20.948-1.369-43.553-9.84-60.48-6.644 8.029-15.167 13.81-26.159 16.8-2.154 0.586-4.547 0.704-6.721 1.44-8.862 3.002-16.281 11.146-26.64 12.72 1.782 0.394 2.786 1.362 3.12 3.36 0.52 3.116-0.344 7.162-0.24 12.479 0.123 6.287 1.067 12.165-2.4 15.12 1.097 0.023 2.48-0.24 2.641 0.72-0.041 1.841 0.136 4.491-0.24 5.28-1.194 0.256-2.026 0.099-2.88 0.24 0.486 6.856-1.57 13.905-4.8 18.96 1.497-0.009 2.995-0.567 3.84 0.479-1.055 1.797-4.036-0.468-4.561 0.961 11.413 0.949 24.96-0.426 34.561-0.24 20.312 0.393 37.979-10.123 44.64-30 0.604-4.491 1.694-9.276 1.44-14.88-0.809-17.789-7.338-32.642-12.721-46.32h-0.72c-0.23 1.93 2.22 3.41 0.96 4.8zm-146.88-3.84c-5.914 13.046-9.619 28.301-13.2 43.68-1.02 14.692 4.12 26.944 12.48 35.04 7.006 6.786 16.437 11.113 28.08 11.521 0.092-0.812-1.062-0.378-0.72-1.44 1.815 0.257 3.945-0.779 4.8 0.72-0.35 1.229-3.69-0.226-3.12 0.721 15.834 0.881 25.35 0.518 40.56 0.72-2.887-6.355-5.764-11.24-5.28-20.88-0.363-0.597-2.067 0.147-2.4-0.48 0.116-1.276-0.69-5.248 0.96-5.76-1.902-2.01-1.433-4.786-1.44-8.64-0.013-7.131-0.334-17.311 0.48-22.32-8.698-2.097-14.178-6.091-20.64-10.56-3.101-0.539-7.158-2.646-12-2.641-10.567-3.823-20.418-10.25-27.12-18.72-0.74 0.94-0.494 2.866-1.92 3.12-0.937-1.632 1.893-3.711 0.72-4.8-0.013 0.31-0.308 0.34-0.24 0.72zm-12.48 5.76c-0.225-1.404 0.858-2.343-0.24-3.12 0.113 1.46-0.42 2.14 0.24 3.12zm174.24 8.4c-0.146-2.566 0.341-7.002-0.72-9.36 0.18 3.72-0.31 6.75 0.72 9.36zm-99.6 19.68c-0.808 7.993-0.771 20.75 0 27.84 0.372 0.331 1.44 0.483 1.68 0.24-0.923-7.2-0.355-17.76-0.48-24.24 0.049-0.769-1.049-0.392-0.96-1.199 2.452-0.908 5.361-1.359 8.64-1.44 1.043-2.844 4.332-2.589 5.28 0.24 2.77 0.176 5.65 0.444 7.92 1.92-0.813 7.432-0.053 14.417-0.24 24.479 1.874-1.268 1.2-4.278 1.2-6.479 0-8.575 0.616-13.219-0.24-20.88-5.87-2.98-17.28-2.6-22.8-0.48zm10.56 0.24c-1.563 1.182-0.625 5.907 0.96 6.72 0.362-2.27 1.947-5.579-0.48-6.72h-0.48zm-6.48 3.12c-0.149 0.651 0.305 1.904-0.24 2.16-1.112 0.152-0.607-1.312-0.72-2.16-1.083 3.273-0.638 7.23-0.48 11.04 0.204 4.922-0.791 10.285 0.48 15.12 0.233-1.127-0.671-3.391 0.96-3.12-0.298 1.447 0.335 1.558 0 3.359 4.548 0.389 8.264-0.019 13.92 0.24 0.766-0.834-0.519-3.719 0.96-3.84 0.491 0.789 0.13 2.431 0.24 3.6 1.386-0.931 0.513-2.628 0.479-3.84-0.15-5.604 0.021-10.655 0-17.76-0.005-1.612 0.608-3.604-0.479-4.56-0.889 1.208 0.828 3.015-0.72 3.12-0.943-0.338-0.284-2.276-0.48-3.36-1.178-0.146-2.525-0.183-4.08-0.48-0.228 1.223-0.228 1.897 0 3.12-1.344 3.51-7.661 1.439-4.8-2.64-0.869-1.35-3.435-0.08-5.04 0zm14.4 30.96c1.44 0.116-1.862-0.064-1.681-0.96 0.654-0.291 3.075-0.604 3.36 0.24 0.118 0.758-1.191 0.089-0.96 0.96h2.16c0.098-0.578-0.438-0.522-0.24-1.2 0.898-0.332 1.342 0.272 2.16-0.24 0.282-1.323-1.897-0.183-1.92-1.2 0.304-0.929 1.45 0.228 1.68-0.96-5.795-0.052-10.18-0.046-16.32 0-0.18 0.739 0.827 0.293 0.48 1.2-1.341-0.011-2.418 0.644-3.12-0.479 0.085-0.635 1.223-0.218 1.44-0.721-1.087-0.091-1.789-0.315-2.64 0.24 0.302 0.099 0.491 0.31 0.48 0.72-0.654 0.706-3.075-0.355-3.36 0.721 0.512 0.688 2.816-0.416 2.64 0.96 0.101 0.68-2.089 0.285-1.44 0.72 1.819 0.433 2.505-0.296 4.32 0.24 0.12-1.16-2.232 0.151-2.16-0.96 0.806-0.983 2.445-0.824 3.6 0-0.065 0.494-1.062 0.057-0.96 0.72 0.613-0.107 2.421 0.51 2.88-0.24-0.627 0.067-1.032-0.088-0.96-0.72 1.206-0.283 2.949-0.513 3.6 0.24 0.073 0.553-0.693 0.267-0.72 0.72 0.689 0.566 1.274-0.153 1.92 0.24 0.45-0.458-0.143-0.435 0-1.2 0.799-0.25 2.847-0.503 3.601 0 0.211 0.771-0.791 0.329-0.721 0.96 1.051 0.44 1.94 0.08 2.88 0zm-15.12 7.44c-1.005 0.286-0.428-1.011-0.96-1.199 0.805 8.486 3.943 15.882 8.88 19.439 4.202-4.114 7.421-10.806 8.4-18.24 0.244-1.849 0.907-4.29-0.239-5.76-0.774 0.46 0.255 1.479-0.96 1.681-0.461-0.34-0.435-1.166-0.721-1.681-3.82 0.03-9.556-0.021-14.16 0-0.58 1.85 0.69 4.55-0.239 5.76zm-0.72-2.88c-0.384-0.811 1.019-1.023 0.24-1.439-0.051 0.29-0.266 0.147-0.48 0 0.029 0.4-0.131 2.18 0.24 1.44z"></path> <path fill="#A28800" d="m83.52 244.08v1.92c-22.826 0.597-45.067 0.742-70.08 1.439-0.807 0.247-0.374-0.746-0.48-1.199-1.194-0.269-0.725 1.979-1.68 1.199-0.263-3.047 3.74-1.831 5.76-1.92 6.742-0.296 12.924-0.378 19.68-0.72 0.771-0.21 0.498 0.622 0.96 0.72 0.75 0.074-0.61-0.693 0.24-0.72 16.644-0.22 33.958-0.56 45.6-0.72z"></path> <path fill="#A28800" d="m83.52 246.96v3.84c-7.252-0.383-15.932 0.743-21.12-0.479-2.169 1.148-7.021 0.72-12 0.72-12.7 0-25.491 0.676-37.44 0.72v-3.6c9.781-0.236 17.758-0.239 26.64-0.48 13.69-0.37 26.964-0.73 43.92-0.72z"></path> <path fill="#A28800" d="m172.08 248.4c0.504 0.936 0.12 2.76 0.239 4.08-16.626-0.782-31.393-1.711-47.76-1.199 16.203 0.724 32.547 0.563 49.2 1.92-2.365 24.556-15.356 39.421-36.479 46.319-0.654-0.221 0.335-0.75 0-1.439-1.239 0.441-3.256 0.104-3.841 1.2-0.047 1.241 2.688-0.762 2.641 0.479-12.399 1.766-19.183 10.996-31.92 13.2 0.869-1.131 3.351-0.649 3.84-2.16-1.615-0.586-2.016 0.807-4.08 0.72-0.335-14.264-0.242-39.237-0.24-60.239 6.609 0.241 12.592 0.148 20.641 0.239-5.068-1.301-12.069-0.444-20.4-0.72-0.387-0.887-0.387-3.193 0-4.08 24.93 0.06 43.46 0.24 68.16 1.68zm-0.24 11.04c1.428-1.003 0.5-2.875 1.2-4.56-0.307-0.014-0.333-0.308-0.721-0.24-0.34 1.43-0.45 3.07-0.48 4.8zm-66-2.88c-0.188 0.053-0.279 0.201-0.24 0.48 0.053 0.187 0.201 0.279 0.48 0.24 20.048 0.006 41.125 0.652 60.239 0.96-20.12-1.85-40.84-0.87-60.48-1.68zm64.08 10.32c1.359-0.883 2.037-3.719 1.68-5.521-1.06 1.34-1.15 3.65-1.68 5.52zm-2.4 6.96c0.705-1.455 1.766-2.555 1.92-4.56-0.053-0.188-0.201-0.279-0.479-0.24-0.39 1.46-2.45 3.52-1.44 4.8zm-0.72 0.72c-1.651 0.989-2.27 3.011-3.12 4.8 2.13-1.19 2.64-2.97 3.12-4.8zm-7.68 10.8c1.436-0.988 3.313-2.732 3.359-4.319h-0.72c-0.36 1.84-2.89 2.67-2.64 4.32zm-5.76 4.81c1.633-0.236 3.698-2.042 4.561-3.841-1.87 0.93-3.3 2.29-4.56 3.84zm-5.04 3.59c1.828-0.362 3.923-1.638 4.08-2.88-1.57 0.75-3.19 1.46-4.08 2.88zm-5.76 2.88c2.188-0.211 3.477-1.324 5.04-2.16 0.013-0.412-0.185-0.615-0.479-0.72-1.21 1.28-3.93 1.04-4.56 2.88zm-4.8 1.92c1.938-0.142 3.159-1.001 4.561-1.68-1.56-0.8-3.86 0.46-4.56 1.68zm-10.8 2.88c2.053-0.057 3.908-0.979 6-1.92-0.188-0.053-0.279-0.201-0.24-0.479-2.35 0.67-4.36 0.56-5.76 2.4zm-5.76 2.88c1.834-0.646 3.768-1.191 4.56-2.88-1.95 0.4-4.35 1.54-4.56 2.88zm-5.28 3.12c1.955 0.243 3.824-1.592 4.8-3.12-2.13 0.51-3.79 1.5-4.8 3.12zm-6.72 3.36c2.047-0.673 4.386-1.054 5.52-2.64-0.051-0.27-0.267-0.374-0.479-0.48-1.42 1.31-4.26 1.19-5.04 3.12z"></path> <path d="m12.48 253.68c1.164 0.947 1.052 4.346 0.96 5.76-1.426-0.68-1.308-4.08-0.96-5.76z"></path> <path fill="#A28800" d="m99.84 253.44c0.432 1.107-0.565 3.542 0.72 4.32 0.999-0.601 0.246-2.954 0.48-4.32 1.571 1.381 0.497 3.625 0.479 5.28-0.199 18.601 0.503 34.055 0.24 56.4-2.048-0.352 0.469-4.099-1.439-4.801-0.994-0.033-0.25 1.671-0.48 2.4-1.046-0.006-2.223-0.143-2.64 0.48 0.019 1.181 2.658-0.259 2.64 0.96-1.122 1.021-3.501-0.421-5.04 0-0.37-1.011 1.242-0.038 1.2-0.721-0.312-1.199-2.477-0.137-4.08-0.479-0.752 0.166-0.313 0.64-0.24 1.2-2.307-0.13-4.038 0.79-5.52 0.239 0.445-1.351 2.466 0.12 3.6-0.72-0.108-1.252-2.187-0.533-3.36-0.72-0.61-0.67 0.21-2.771-0.72-3.12-1.533 0.122 0.203 2.099-1.2 2.88-0.02-18.968-0.19-35.429 0-52.8 0.022-2.075-0.524-4.373 0.48-6.24 0.1 1.34-0.408 3.288 0.96 3.36 0.788-0.229-0.057-2.118 0.24-3.36 4.203-0.69 8.01-0.09 13.68-0.24zm-13.92 10.81c0.393-1.485 0.393-4.516 0-6h-0.72c0.03 1.4-1.139 5.25 0.72 6zm1.2-5.29c0.053 0.187 0.201 0.279 0.48 0.24 2.227 0.344 4.548-0.005 6.96 0 1.041 0.002 2.552 0.72 3.12-0.48-3.442-0.06-6.846-0.65-10.56 0.24zm13.68 6c0.169-1.453 0.914-5.552-0.479-6.24-0.358 1.29-1.304 5.29 0.48 6.24zm-15.36 6.25c1.386-0.492 0.643-4.266 0.48-5.521-0.307-0.013-0.333-0.308-0.72-0.24-0.283 1.37-0.645 4.76 0.24 5.76zm15.36 0.71c0.558-1.363 0.082-3.758 0.24-5.521h-0.96c0.28 2.23-1.045 4.5 0.72 5.52zm-14.88 6.96c0.138-1.954 0.679-4.151-0.48-5.04-0.673 0.79-1.091 4.96 0.48 5.04zm14.88 0c0.732-0.834-0.018-3.002 0.24-4.8-0.307-0.014-0.333-0.308-0.72-0.24-0.63 0.61-0.757 4.25 0.48 5.04zm0 7.44c0.393-1.408 0.393-4.352 0-5.76h-0.72c-0.197 1.45-0.936 5.39 0.72 5.76zm-15.12-0.48c0.882-0.933 0.458-3.716 0.24-5.04h-0.72c-0.257 1.2-0.764 4.56 0.48 5.04zm0.24 8.16c0.416-1.54 0.377-4.694 0-6.24-0.331 0.011-0.527-0.113-0.72-0.24-0.191 1.53-0.958 6.82 0.72 6.48zm14.88-0.96c0.237-1.329 0.797-4.919-0.479-5.521-0.646 1-1.095 5.23 0.48 5.52zm-14.88 7.68c0.237-1.329 0.797-4.919-0.48-5.52-0.647 1-1.095 5.23 0.48 5.52zm14.88 0.49c0.351-1.527 0.424-4.485 0-6h-0.72c-0.06 1.2-1.025 5.55 0.72 6zm-14.88 6.47c0.422-1.148 0.367-3.883 0-5.04-0.307-0.013-0.333-0.308-0.72-0.24-0.186 1.28-0.944 5.07 0.72 5.28zm14.64 1.44c1.002-1.66 0.314-5.193 0.24-6.24h-0.72c-0.175 1.5-0.893 5.51 0.48 6.24z"></path> <path fill="#A28800" d="m177.84 270.48c0.204-0.044 0.227 0.094 0.24 0.24 0.307 7.934 1.594 15.2 1.92 22.8 0.077 1.803 0.646 4.251-0.721 5.521 0.084-9.196-1.945-17.939-2.159-28.08 0.19-0.2 0.66-0.14 0.72-0.48z"></path> <path d="m18.24 288c0.388-0.067 0.414 0.227 0.72 0.24-0.115 1.574-0.591 4.624-2.4 5.279 0.083-2.31 1.277-3.52 1.68-5.52z"></path> <path d="m10.32 318.72c-0.72 0.72-0.334 2.545-1.2 3.12-1.533-0.826 0.283-3.429 0.24-5.04 0.805-0.165 0.877 0.402 0.96 0.96 0.725-0.395 0.384-1.856 0.96-2.4-0.175-0.885-0.722 0.103-1.2-0.479 0.074-2.166 0.847-3.633 1.2-5.521 0.628-0.067 1.033 0.088 0.96 0.721 0.913-0.848 1.001-2.519 1.44-3.84-0.758 0.281-0.279 1.8-1.68 1.439 0.245-2.235 0.95-4.01 1.68-5.76 1.108 0.259 0.557 1.632 0.24 2.399 2.855-5.545 4.521-12.279 7.44-17.76 0.351 3.145-1.693 6.1-2.88 8.88-4.928 11.548-8.99 26.301-9.36 41.28-1.08-6.13 0.453-11.84 1.2-18z"></path> <path fill="#A99A6F" d="m104.64 317.04c0.856 7.661 0.24 12.305 0.24 20.88 0 2.201 0.674 5.212-1.2 6.479 0.188-10.062-0.573-17.048 0.24-24.479-2.27-1.476-5.15-1.744-7.92-1.92-0.948-2.829-4.237-3.084-5.28-0.24-3.279 0.081-6.188 0.532-8.64 1.44-0.089 0.808 1.009 0.431 0.96 1.199 0.125 6.48-0.443 17.04 0.48 24.24-0.24 0.243-1.309 0.091-1.68-0.24-0.771-7.09-0.808-19.847 0-27.84 5.52-2.12 16.93-2.5 22.8 0.48z"></path> <path fill="#A99A6F" d="m92.88 316.8c2.427 1.141 0.842 4.45 0.48 6.72-1.584-0.812-2.523-5.538-0.96-6.72h0.48z"></path> <path d="m100.08 324.25h0.72c0.358 1.551 0.162 2.867 0.24 5.04-2.062 0.12-1.076-3.75-0.96-5.04z"></path> <path fill="#A28800" d="m90.96 319.92c-2.861 4.079 3.456 6.149 4.8 2.64-0.228-1.223-0.228-1.897 0-3.12 1.555 0.298 2.902 0.334 4.08 0.48 0.196 1.084-0.463 3.022 0.48 3.36 1.548-0.105-0.169-1.912 0.72-3.12 1.088 0.955 0.475 2.947 0.479 4.56 0.021 7.104-0.15 12.156 0 17.76 0.033 1.212 0.906 2.909-0.479 3.84-0.11-1.169 0.251-2.811-0.24-3.6-1.479 0.121-0.194 3.006-0.96 3.84-5.656-0.259-9.372 0.148-13.92-0.24 0.335-1.802-0.298-1.912 0-3.359-1.631-0.271-0.727 1.993-0.96 3.12-1.271-4.835-0.276-10.198-0.48-15.12-0.158-3.81-0.604-7.767 0.48-11.04 0.112 0.848-0.393 2.312 0.72 2.16 0.545-0.256 0.091-1.509 0.24-2.16 1.605-0.08 4.171-1.35 5.04 0zm-5.28 6.25c0.27-0.679 0.764-3.638-0.48-3.601-0.223 0.72-0.797 3.6 0.48 3.6zm15.36 3.12c-0.078-2.173 0.118-3.489-0.24-5.04h-0.72c-0.116 1.29-1.102 5.16 0.96 5.04zm-15.12 1.43c-0.163-0.907 1.129-3.551-0.96-3.84 0.317 1.29-0.807 4.01 0.96 3.84zm14.88 5.28c0.423-1.148 0.367-3.883 0-5.04h-0.72c0.21 1.16-0.704 4.43 0.72 5.04zm-15.12 0.25c0.386-1.152 0.93-3.62-0.48-4.08-0.204 0.84-0.834 3.97 0.48 4.08zm15.12 5.51c0.389-1.032 0.389-3.528 0-4.56h-0.72c0.05 1.55-0.947 4.12 0.72 4.56zm-15.12 0.49c0.609-0.521 0.5-3.405-0.24-4.561-0.795 0.7-0.802 4.15 0.24 4.56z"></path> </g> <metadata></metadata></svg> 