<?xml version="1.0" encoding="UTF-8" standalone="no"?> <!-- Generator: Adobe Illustrator 11.0, SVG Export Plug-In --> <svg xmlns:rdf="http://www.w3.org/1999/02/22-rdf-syntax-ns#" xmlns="http://www.w3.org/2000/svg" xmlns:cc="http://web.resource.org/cc/" xmlns:xlink="http://www.w3.org/1999/xlink" xmlns:a="http://ns.adobe.com/AdobeSVGViewerExtensions/3.0/" xmlns:dc="http://purl.org/dc/elements/1.1/" xmlns:svg="http://www.w3.org/2000/svg" xmlns:inkscape="http://www.inkscape.org/namespaces/inkscape" xmlns:sodipodi="http://sodipodi.sourceforge.net/DTD/sodipodi-0.dtd" xmlns:ns1="http://sozi.baierouge.fr" xml:space="preserve" viewBox="-0.88 -0.032 511 453"> <g> <path d="m290.66 20.52c-7.41-12.672-21.02-20.52-35.71-20.52-14.616 0-28.224 7.776-35.568 20.52l-213.84 370.3c-3.668 6.26-5.54 13.39-5.54 20.59 0 22.752 18.432 41.256 41.184 41.256h427.54c22.824-0.072 41.256-18.504 41.256-41.256 0-7.2-1.944-14.256-5.544-20.52l-213.78-370.37z" fill="#ED171F"></path> <polygon points="52.056 405.22 457.7 405.22 254.81 53.928 134.42 262.58 92.304 335.52 61.416 389.02" fill="#FEB82F"></polygon> <path d="m170.93 199.37h5.184c2.736 0 5.112 1.8 5.976 4.32l20.592 59.688c11.592 10.728 18.216 25.848 18.216 41.616 0 1.296-0.072 2.52-0.144 3.816-0.216 16.344-3.312 32.688-9.144 48.168l-0.072 13.032c0 10.512-8.496 19.008-19.008 19.008s-19.008-8.496-19.008-19.008v-12.312h-93.97l12.816-22.248h71.352v-12.672h-64.08l34.776-60.192h37.512l-10.296-29.736c-0.72-2.16-2.736-3.672-5.04-3.672h-2.808l17.14-29.82z"></path> <path d="m199.51 293.18c0-8.208-6.624-14.904-14.832-14.904s-14.904 6.696-14.904 14.904 6.696 14.904 14.904 14.904 14.83-6.69 14.83-14.9z" fill="#FEB82F"></path> <polygon points="217.01 383.33 349.99 377.57 348.12 357.34 233.5 376.92 313.92 342.07 300.6 321.19 225.29 375.7 303.12 275.4 284.76 262.08 215.78 381.1"></polygon> <polygon points="302.83 259.92 290.09 252.65 292.03 230.18 304.99 221.33 308.81 232.34 327.82 239.33 329.69 252 326.52 265.25 308.16 264.96"></polygon> <polygon points="316.15 293.33 341.14 290.45 347.83 299.3 358.27 311.33 359.5 334.51 336.38 329.69 324.94 334.51 314.5 323.06 317.66 309.17"></polygon> <polygon points="388.66 378.29 385.78 376.06 369.65 370.01 370.22 362.38 372.82 348.77 388.94 344.3 392.47 348.19 395.93 353.52 401.33 355.46 398.81 366.84 396.22 376.99"></polygon> <polygon points="448.49 389.09 457.78 405.22 52.2 405.22 61.488 389.09"></polygon> </g> <metadata></metadata></svg> 