<?xml version="1.0" encoding="UTF-8" standalone="no"?> <!-- Created with Inkscape (http://www.inkscape.org/) --> <svg xmlns:inkscape="http://www.inkscape.org/namespaces/inkscape" xmlns:rdf="http://www.w3.org/1999/02/22-rdf-syntax-ns#" xmlns="http://www.w3.org/2000/svg" xmlns:cc="http://creativecommons.org/ns#" xmlns:dc="http://purl.org/dc/elements/1.1/" xmlns:sodipodi="http://sodipodi.sourceforge.net/DTD/sodipodi-0.dtd" id="svg2" sodipodi:docname="_svgclean2.svg" viewBox="0 0 1750.9 911.88" sodipodi:version="0.32" inkscape:version="0.48.3.1 r9886"><g id="layer1" inkscape:label="Capa 1" inkscape:groupmode="layer" transform="translate(-52.895 -70.241)"><text id="text1886" y="481.41507" x="162.16849" xml:space="preserve" style="font-size:115.71px;font-family:Bitstream Vera Sans;fill:#000000"> <tspan id="tspan1888" sodipodi:role="line" x="162.16849" style="font-family:MS Gothic" y="481.41507">土</tspan> <tspan id="tspan1890" sodipodi:role="line" x="162.16849" style="font-family:MS Gothic" y="481.41507">足</tspan> <tspan id="tspan1885" sodipodi:role="line" x="162.16849" style="font-family:MS Gothic" y="481.41507">厳</tspan> <tspan id="tspan1883" sodipodi:role="line" x="162.16849" style="font-family:MS Gothic" y="481.41507">禁</tspan> </text><g id="g2182" inkscape:label="Capa 1" transform="translate(-48.267,56.834)"><path id="path2026" inkscape:connector-curvature="0" sodipodi:nodetypes="cssssssssscccccsssssccssssssssssssccsssccssssccssssssssssscccccssccssccsscccccsccssccssccssccsssccssccsssccsssccsssccssccscccssccsssccssccsssccsssccssccsssccssccssccssssccsssccssccsssc" style="fill:#000000" d="m238.5 302.83c-35.92-8.74-67.8-35.18-85.44-70.87-9.07-18.35-11.15-26.04-12.27-45.34-1.91-32.99 0.04-36.36 12.67-21.89 5.55 6.36 10.96 16.02 12.01 21.47 1.88 9.69 2.28 9.2 17.67-21.78 15.24-30.69 21-48.93 10.83-34.35-2.54 3.63-5.86 6.6-7.4 6.6-1.53 0-0.04-3.49 3.31-7.75 4.69-5.97 5.33-8.68 2.76-11.78-6.45-7.77-17.21 7.5-24.01 34.06l-3.75 14.66-11.07-9.57-11.08-9.57 6.04-16.03c11.95-31.704 40.87-60.763 73.59-73.937 13.19-5.31 22.05-6.514 48.43-6.583 30.32-0.078 33.49 0.488 52.12 9.313 52.74 24.982 83.27 78.557 75.59 132.68-1.6 11.3-5.13 26.23-7.85 33.16-23.01 58.78-89.63 92.71-152.15 77.51zm67.84-28.68c4.99-2.48 13.07-3.93 17.96-3.21s9.79-0.14 10.89-1.91c1.29-2.09-1.46-3.22-7.81-3.22-5.38 0-13.06-2.29-17.05-5.08-3.99-2.8-7.92-4.45-8.72-3.67-2.52 2.42-17.61-30.05-17.66-38-0.04-5.36-6.08-13.71-20.86-28.8-11.45-11.7-21.99-20.53-23.43-19.64s-2.64 9.13-2.65 18.32c-0.05 25.67-13.8 50.99-33.34 61.37-5.05 2.68-4.69 3.52 4.4 10.31 18.63 13.92 39.7 20.01 65.69 18.98 13.49-0.53 27.38-2.85 32.58-5.45zm-4.73-23.02c-1.73-3.22-3.8-5.87-4.61-5.87s-0.06 2.65 1.67 5.87c1.73 3.23 3.8 5.87 4.61 5.87s0.06-2.64-1.67-5.87zm-97.59-5.83c5.25-3.2 9.54-6.57 9.54-7.5 0-0.92-2.94 0.38-6.53 2.9-3.58 2.51-11.59 4.56-17.78 4.56-6.76 0-10.53 1.18-9.44 2.94 2.9 4.7 13.9 3.38 24.21-2.9zm167.91-44.81c7.37-34.33-1.23-66.93-24.31-92.19-13.52-14.785-31.45-27.605-31.25-22.335 0.05 1.252 3.16 11.522 6.92 22.825 6.93 20.86 7.86 21.61 21.61 17.45 5.23-1.58 6.6-0.84 6.6 3.56 0 3.06-2.08 8.54-4.62 12.17-4.29 6.12-4.2 6.97 1.21 11.66 5.25 4.54 11.56 18.26 8.4 18.26-0.7 0-4.85-5.4-9.22-12.01s-8.45-11.51-9.07-10.89c-0.61 0.62 2.06 11.41 5.94 23.99 3.88 12.57 7.97 32.18 9.09 43.57l2.04 20.71 6.81-11.28c3.74-6.2 8.18-17.67 9.85-25.49zm-153.77 23.91c1.09-1.77-1.47-0.95-5.71 1.82-4.23 2.77-7.7 5.6-7.7 6.28 0 2.12 11.31-4.71 13.41-8.1zm-17.69 0.12c1.06-1.72 1.2-3.86 0.31-4.75-2.5-2.5-16.57 1.75-16.57 5.01 0 3.89 13.83 3.67 16.26-0.26zm-31.93-15.21c-0.81-2.02-1.48-0.37-1.48 3.67 0 4.03 0.67 5.69 1.48 3.67 0.82-2.02 0.82-5.32 0-7.34zm166.82-2.2c-1-1.62-5.37-2.78-9.71-2.59l-7.9 0.35 8.8 2.24c4.85 1.23 9.22 2.4 9.72 2.59s0.09-0.98-0.91-2.59zm-124.74-8.98c0-1.52-1.98-2.76-4.4-2.76-4.54 0-5.83 3.46-2.53 6.77 2.35 2.34 6.93-0.31 6.93-4.01zm-26.04-2.03c3.65-4.65 3.55-4.76-1.11-1.11-4.89 3.84-6.44 6.25-4.02 6.25 0.61 0 2.92-2.31 5.13-5.14zm130.54-2.87c-2.98-2.98-5.44 1.51-3 5.47 1.85 2.99 2.54 2.99 3.54 0.01 0.68-2.04 0.44-4.51-0.54-5.48zm15.84-5.37c0-2.52-1.32-3.76-2.94-2.76-1.61 0.99-2.93 3.05-2.93 4.57s1.32 2.76 2.93 2.76c1.62 0 2.94-2.05 2.94-4.57zm-118.8-3.11c-2.61-2.62-5.64-3.87-6.73-2.78s-0.03 3.21 2.34 4.71c6.94 4.38 9.55 3.23 4.39-1.93zm4.56-25.92c3.48-3.58 3.48-7.49 0-7.49-4.04 0-9.82 19.86-7.04 24.16 1.61 2.48 2.73 0.79 3.37-5.08 0.53-4.84 2.18-10.06 3.67-11.59zm114.24 14.35c0-0.71-1.32-1.29-2.94-1.29-1.61 0-2.93 1.4-2.93 3.11s1.32 2.29 2.93 1.29c1.62-1 2.94-2.39 2.94-3.11zm-17.61-4.4c0-1.71-1.32-2.29-2.94-1.29-1.61 0.99-2.93 2.39-2.93 3.1 0 0.72 1.32 1.3 2.93 1.3 1.62 0 2.94-1.4 2.94-3.11zm-113.41-4.23c-1.84-4.8-6.93-6.05-6.93-1.71 0 2.23 2.06 3.74 7.98 5.88 0.35 0.13-0.12-1.75-1.05-4.17zm79.98-7.93c-1.04-5.17-4.35-12.1-7.37-15.41-3.02-3.3-6.53-9.31-7.81-13.35l-2.32-7.33-2.13 7.33c-1.17 4.04-2.25 8.68-2.41 10.31-0.27 2.72 20.3 27.82 22.82 27.84 0.6 0 0.25-4.22-0.78-9.39zm33.43-0.87c0-2.42-0.52-4.41-1.16-4.41-0.63 0-1.91 1.99-2.84 4.41s-0.41 4.4 1.15 4.4c1.57 0 2.85-1.98 2.85-4.4zm17.61-7.34c0-3.68-3.12-3.68-8.81 0-3.56 2.3-3.14 2.85 2.2 2.89 3.64 0.02 6.61-1.28 6.61-2.89zm-17.61-2.94c0-1.61-1.25-2.93-2.76-2.93-1.52 0-3.58 1.32-4.58 2.93-1 1.62 0.25 2.94 2.76 2.94 2.52 0 4.58-1.32 4.58-2.94zm-105.66-7.33c0-4.04-1.14-7.34-2.53-7.34s-1.9 3.3-1.13 7.34c0.78 4.03 1.91 7.33 2.53 7.33s1.13-3.3 1.13-7.33zm137.86 0.1c1.96-2.37 3.12-5.51 2.56-6.99-1.61-4.25-14.22 1.77-14.22 6.79 0 5.71 6.98 5.83 11.66 0.2zm-69.3-3.04c-0.93-2.42-2.2-4.4-2.84-4.4-0.63 0-1.15 1.98-1.15 4.4s1.28 4.4 2.84 4.4 2.08-1.98 1.15-4.4zm30.53 2.39c-2.81-0.74-8.09-0.76-11.74-0.06s-1.36 1.3 5.1 1.33c6.46 0.04 9.44-0.54 6.64-1.27zm3.5-15.85c-1.8-3.36-3.86-5.53-4.58-4.82-2.05 2.05 2.11 10.94 5.13 10.94 1.5 0 1.25-2.75-0.55-6.12zm1.41-8.55c10.12 0 9.72-5.79-2.05-29.351-6.79-13.605-11.36-19.339-15.92-19.989-10.1-1.441-13.31 7.944-9.91 29.032 3.44 21.348 7.28 27.298 14.98 23.178 2.95-1.58 8.76-2.87 12.9-2.87zm-63.5-6.46c7.04-7.032 3.47-28.761-4.72-28.761-5.39 0-24.04 17.125-24.04 22.071 0 2.65 9.43 6.58 23.62 9.84 0.89 0.21 3.2-1.21 5.14-3.15zm-22.45-20.78c3-5.606 2.89-5.612-6.03-0.342-9.26 5.468-10.59 7.495-7.16 10.924 2.4 2.4 9.13-2.997 13.19-10.582zm41.9 0.373c2.54-5.09 4.62-10.373 4.62-11.74 0-3.351-16.83-3.181-18.92 0.192-1.29 2.088 6.92 20.705 9.16 20.786 0.29 0.01 2.6-4.147 5.14-9.238z"></path></g><g id="g2429" transform="matrix(.39858 0 0 .39858 -243.76 11.941)"><path id="path2315" sodipodi:rx="400" sodipodi:ry="400" style="stroke:#d62619;stroke-width:81.721;fill:none" sodipodi:type="arc" d="m985.89 440.21c0 220.91-179.09 400-400 400s-400-179.09-400-400 179.09-400 400-400 400 179.09 400 400z" transform="matrix(.7342 0 0 .7342 734.87 228.64)" sodipodi:cy="440.20975" sodipodi:cx="585.88849"></path><path id="path3075" style="stroke:#d62619;stroke-width:60;fill:none" inkscape:connector-curvature="0" d="m957.42 325.25 406.08 443.26"></path></g><rect id="rect2215" style="stroke:#000000;stroke-width:6;fill:none" height="905.88" width="370.06" y="73.241" x="55.895"></rect></g><metadata id="metadata16"></metadata></svg> 