<?xml version="1.0" encoding="UTF-8" standalone="no"?> <!-- Generator: Adobe Illustrator 11.0, SVG Export Plug-In --> <svg xmlns:rdf="http://www.w3.org/1999/02/22-rdf-syntax-ns#" xmlns="http://www.w3.org/2000/svg" xmlns:cc="http://web.resource.org/cc/" xmlns:xlink="http://www.w3.org/1999/xlink" xmlns:a="http://ns.adobe.com/AdobeSVGViewerExtensions/3.0/" xmlns:dc="http://purl.org/dc/elements/1.1/" xmlns:svg="http://www.w3.org/2000/svg" xmlns:inkscape="http://www.inkscape.org/namespaces/inkscape" xmlns:sodipodi="http://sodipodi.sourceforge.net/DTD/sodipodi-0.dtd" xmlns:ns1="http://sozi.baierouge.fr" xml:space="preserve" viewBox="-0.384 -0.168 512 454"> <g> <path d="m219.6 20.592l-214.13 370.8c-3.598 6.27-5.47 13.39-5.47 20.67 0 22.752 18.432 41.256 41.256 41.256h428.11c22.824-0.072 41.256-18.504 41.256-41.256 0-7.2-1.872-14.328-5.472-20.592l-214.2-370.87c-7.35-12.752-20.96-20.6-35.72-20.6-14.688 0-28.224 7.848-35.568 20.592h-0.07z" fill="#ED171F"></path> <polygon points="458.42 405.65 52.2 405.65 255.31 53.856" fill="#FEB82F"></polygon> <polygon points="347.33 389.88 347.33 307.37 309.24 256.68 309.24 193.18 267.98 193.18 267.98 269.28 309.24 320.04 309.24 389.88"></polygon> <rect y="193.03" x="201.38" height="196.7" width="41.184"></rect> </g> <metadata></metadata></svg> 