<?xml version="1.0" encoding="UTF-8" standalone="no"?> <!-- Generator: Adobe Illustrator 12.0.1, SVG Export Plug-In . SVG Version: 6.00 Build 51448) --> <svg xmlns:rdf="http://www.w3.org/1999/02/22-rdf-syntax-ns#" xmlns="http://www.w3.org/2000/svg" xmlns:cc="http://web.resource.org/cc/" xmlns:xlink="http://www.w3.org/1999/xlink" xmlns:dc="http://purl.org/dc/elements/1.1/" xmlns:svg="http://www.w3.org/2000/svg" xmlns:inkscape="http://www.inkscape.org/namespaces/inkscape" xmlns:sodipodi="http://sodipodi.sourceforge.net/DTD/sodipodi-0.dtd" xmlns:ns1="http://sozi.baierouge.fr" id="Layer_1" xml:space="preserve" overflow="visible" viewBox="0 0 480.474 389.988"> <g clip-rule="evenodd" fill-rule="evenodd"> <path d="m111.04 33.458c0.978 1.63 2.743 4.672 0.834 6.679-4.871 0.975-4.782-3.01-7.514-4.174 0.88-2.184 3.4-2.731 6.68-2.505z"></path> <path d="m76.811 39.302c1.676-0.284 2.612 0.171 2.505 1.67h-2.505v-1.67z"></path> <path fill="#FFFFFF" d="m223.75 101.08c9.126-2.717 15.859 4.172 17.533 11.688-4.33-5.4-7.22-12.25-17.53-11.69z"></path> <path fill="#FFFFFF" d="m17.533 121.12c-2.589-5.29-8.397-12.186-10.019-17.533 7.817-4.577 10.622 13.75 10.019 17.53z"></path> <path fill="#FFFFFF" d="m35.066 112.77c2.805-0.857 1.299 2.597 1.67 4.175-1.239-0.7-1.796-2.09-1.67-4.17z"></path> <path fill="#FFFFFF" d="m227.09 113.61c-0.201 1.469-1.437 1.903-3.34 1.67-0.84-2.51 1.87-1.48 3.34-1.67z"></path> <path fill="#FFFFFF" d="m227.09 116.95c2.88 2.16-4.29 2.01 0 0z"></path> <path fill="#FFFFFF" d="m222.92 122.79h2.505c1.001 22.317 0.157 49.01-1.67 71.802-1.308 16.315-2.646 29.363 13.358 30.057-12.564 2.778-15.863-7.965-15.863-21.708 0-24.07 4.21-60.69 1.67-80.15z"></path> <path d="m231.27 123.63c1.42-0.307 1.575 0.651 1.67 1.67-0.71-0.154-0.788 0.325-0.835 0.834-0.98-0.13-0.7-1.52-0.83-2.5z"></path> <path fill="#FFFFFF" d="m228.76 129.47c0.671 0.442 1.355 0.871 2.504 0.835-1.975 3.541-1.637 4.918 1.67 5.009-3.046 5.794-2.062 12.273-0.835 19.203-1.498-0.106-1.761 1.022-3.339 0.834-1.502-5.039 0.755-7.29-1.67-12.523 0.982-1.244 2.096-2.357 3.339-3.339-3.6-0.07-2.98-7.66-1.67-10.01z"></path> <path d="m237.95 130.31c4.035 2.366 5.838 6.964 8.35 10.854-3.89 1.23-9.02-7.49-8.35-10.85z"></path> <path fill="#FFFFFF" d="m158.63 134.48c2.297 2.156 2.014 6.892 2.505 10.854-3.36-1.09-2.38-6.52-2.51-10.85z"></path> <path fill="#FFFFFF" d="m252.98 148.67c2.012-0.342 1.814 1.525 4.175 0.835 2.651 0.701-1.482 1.102-2.505 0.835-1.886 0.467 1.013 1.302-0.835 2.505-1.82 0.15-0.39-2.95-0.84-4.17z"></path> <path fill="#FFFFFF" d="m256.32 152.85c0.358-2.31 2.626-0.043 1.67 1.67 0.135 0.978 1.521 0.704 2.505 0.834-0.187 2.597-4.155 1.411-6.68 1.67-1.18-2.92 5.05-2.62 2.5-4.17z"></path> <path d="m238.78 161.2c-1.076 1.15-3.626 0.826-5.844 0.835-2.48-6.37 7.36-6.75 5.84-0.84z"></path> <path fill="#FFFFFF" d="m137.76 157.86c-0.986 1.24-0.723 3.73-3.34 3.34 0.136-0.971-0.184-1.486-0.835-1.67 1.08-2.62 1.73-0.43 4.18-1.67z"></path> <path fill="#FFFFFF" d="m130.24 158.69c1.967 0.447 0.51 3.95-0.835 1.67 0.17-0.67 0.85-0.83 0.84-1.67z"></path> <path fill="#FFFFFF" d="m145.27 158.69c2.079 0.339 0.049 3.237-1.67 2.505 0.3-1.1 1.47-1.32 1.67-2.51z"></path> <path fill="#FFFFFF" d="m254.65 159.53c-0.141-1.811 2.961-0.378 4.175-0.835 0.387 2.614-0.727 3.727-3.34 3.34 1.4-0.8 2.92-3.09-0.83-2.51z"></path> <path fill="#FFFFFF" d="m353.16 159.53c-19.677 3.352-33.354-0.223-51.764 1.67 0.022-0.812 1.021-0.648 1.67-0.835 15.08-1.89 33.64-0.31 50.09-0.83z"></path> <path fill="#FFFFFF" d="m354.83 159.53c2.711-0.484 3.885 0.569 5.845 0.835-0.2 1.21-6.87 1.94-5.85-0.83z"></path> <path fill="#FFFFFF" d="m156.96 161.2c0.052-0.059-0.058-0.825 0-0.835 4.01-0.7-3.96 5.37 0 0.84z"></path> <path fill="#FFFFFF" d="m363.18 161.2c6.685-1.942 16.972-0.283 25.047-0.835-6.68 1.95-16.97 0.29-25.05 0.84z"></path> <path fill="#FFFFFF" d="m178.67 162.03c-0.201 1.469-1.437 1.903-3.339 1.669-0.39-2.6 2.1-2.98 3.34-1.67z"></path> <path fill="#FFFFFF" d="m254.65 164.54c3.78-2.79 5.5 2.07 0 0z"></path> <path fill="#FFFFFF" d="m441.66 167.04c3.902-1.929 8.964 2.149 9.185 6.679-4.12-1.16-4.05-6.52-9.18-6.68z"></path> <path d="m157.8 167.88c0.971-0.136 1.485 0.184 1.67 0.835 0.128 6.529-0.679 12.123-1.67 17.533-5.88-2.67-1.24-12.73 0-18.37z"></path> <path fill="#FFFFFF" d="m257.99 172.05c-2.53 3.09-2.82-2.53 0 0z"></path> <path d="m115.22 209.62c2.36-0.69 2.163 1.177 4.174 0.835-1.392 6.958 5.262 5.87 4.175 12.523-6.76 2.6-10.37-7.33-8.34-13.36z"></path> <path fill="#FFFFFF" d="m240.45 223.82c0.234-2.287 1.269-9.922-4.175-10.854-3.116 1.076 2.365 4.685 0 5.009-2.626 0.956-2.028-1.311-3.339-1.67 0.74-15.21 18.17 1.85 7.51 7.51z"></path> <path fill="#FFFFFF" d="m102.69 210.46h1.669v1.67h-1.669v-1.67z"></path> <path fill="#FFFFFF" d="m152.79 212.13c1.097 0.295 1.313 1.47 2.505 1.67-0.35 2.08-3.24 0.05-2.51-1.67z"></path> <path fill="#FFFFFF" d="m153.62 222.98c2.075 0.03 1.208 3.936 0.835 5.844-1.014 5.182-4.973 9.95-7.514 13.358-0.33-5.61 3.73-14.06 6.67-19.2z"></path> <path fill="#FFFFFF" d="m145.27 232.16c-0.365 1.027-1.068 1.715-2.505 1.67 0.37-1.02 1.08-1.71 2.51-1.67z"></path> <path fill="#FFFFFF" d="m146.11 243.02c-1.841 2.056-2.328 5.466-5.844 5.845 1.64-2.25 2.57-5.22 5.84-5.84z"></path> <path fill="#FFFFFF" d="m136.09 251.37c-1.802 1.497-3.834 1.467-5.844 0.835 1.24-2.78 3.74-2.47 5.84-0.83z"></path> <path fill="#FFFFFF" d="m107.7 254.71c2.125 0.102 3.238 1.215 3.34 3.339h-3.34v-3.34z"></path> <path fill="#FFFFFF" d="m77.646 285.6c0.318-1.589 1.062 0.533 0.835 1.67-0.318 1.59-1.063-0.53-0.835-1.67z"></path> <path fill="#FFFFFF" d="m61.783 307.31c2.565 0.218 3.755 1.812 5.844 2.505-0.755 1.471-3.073 1.379-3.339 3.34 1.145 1.916 3.438 2.684 5.009 4.174 4.967-1.109-0.234-4.884 0.835-5.844 16.537 4.815 40.56 8.977 62.618 10.019 9.588 0.453 21.474 1.395 26.717-3.34 3.199 3.798-6.21 2.106-5.009 6.68-6.38-0.297-15.784-4.596-17.533 1.67 4.437-1.469 6.863 5.887 10.854 2.504-2.61 6.811-5.795-0.243-10.854 0-0.893 3.119 2.073 2.38 1.67 5.01-0.971-1.048-5.449-1.909-4.175 1.67-3.522-2.344-8.067-5.172-12.523-4.175v-2.505c-7.455 0.306-10.078-3.778-16.698-3.339 2.03 5.292 7.587 8.336 11.689 9.184-1.707 4.069-6.345 0.383-9.184 0-2.165-0.292-4.716 0.372-6.679 0-2.153-0.408-3.471-1.826-5.844-2.505-7.784-2.225-17.205-2.499-24.212-5.009-0.181-0.065 0.181-1.602 0-1.67-4.568-1.735-9.473-1.857-12.523-5.01 0.972-4.59 1.605-9.52 3.332-13.36z"></path> <path fill="#FFFFFF" d="m132.75 317.32c3.11-2.91 4.24 2.28 0 0z"></path> <path fill="#FFFFFF" d="m157.8 324c0.135-0.979 1.522-0.704 2.505-0.835-0.893 3.16 2.972 15.633-3.34 15.863-0.8-5.67 4.72-11.69 0.84-15.02z"></path> <path fill="#FFFFFF" d="m66.792 329.01c0.135-0.978 1.522-0.704 2.505-0.834-0.072 1.185-0.138 2.364 0.835 2.504 0.153 0.711-0.326 0.788-0.835 0.835h-1.67c0.934-1.2 0.9-2.04-0.835-2.51z"></path> <path fill="#FFFFFF" d="m148.61 336.53v1.67c-4.07 0.83-1.54-4.44 0-1.67z"></path> <path fill="#FFFFFF" d="m173.66 340.7c-1.56-1.635-3.058-0.258-5.009 0-0.5-1.91 5.78-3.03 5.01 0z"></path> <path fill="#FFFFFF" d="m163.64 341.54c-0.354 3.877-4.461-1.179-5.844 1.67-3.1-2.35 3.89-1.61 5.84-1.67z"></path> <path fill="#FFFFFF" d="m171.99 345.71c1.821-0.151 2.656 0.684 2.505 2.505h-2.505c-0.01-0.84-0.01-1.67-0.01-2.51z"></path> <path fill="#FFFFFF" d="m157.8 346.55c1.735 0.468 1.769 1.303 0.835 2.505h-1.67c-0.24-1.36 0.78-1.45 0.83-2.51z"></path> <path d="m56.773 347.38c5.337 3.63 6.067 10.962 5.844 17.533 1.128 1.605 4.073 6.631 0.835 7.515 0.898 2.163 3.019 3.104 3.339 5.844-0.588 2.473-2.162 3.96-5.009 4.175-0.342-2.012 1.525-1.814 0.835-4.175-2.491-0.186-2.839 3.083-5.009 0.835 2.057-6.531-1.222-11.836 0.835-18.368-2.768-3.72-4.02-8.97-1.67-13.35z"></path> <path fill="#FFFFFF" d="m106.03 348.22c2.67 0.113 6.389-0.823 5.844 2.505-1.42 0.307-1.575-0.651-1.669-1.67-1.93 0.63-3.88 3.33-4.17-0.83z"></path> <path fill="#FFFFFF" d="m112.71 348.22c0.971-0.136 1.486 0.185 1.67 0.835 11.89-1.4-1.92 4.14-1.67-0.84z"></path> <path fill="#FFFFFF" d="m121.9 349.05c2.133 0.094 1.657 2.796 1.67 5.01-1.659-1.391-1.062 0.075-3.34 0 0.74-1.48 2.33-2.12 1.67-5.01z"></path> <path fill="#FFFFFF" d="m125.24 350.72c1.415-2.162 4.208 1.293 3.339 4.175-4.64 0.26-0.04-3.87-3.34-4.18z"></path> <path fill="#FFFFFF" d="m131.92 352.39h1.669c0.39 1.781-1.192 1.59-2.504 1.67 0.15-0.68 0.83-0.83 0.83-1.67z"></path> <path fill="#FFFFFF" d="m144.44 356.57c1.825 0.122 1.792 2.104 1.67 4.174-2.43 0.13-2.54-3.38-1.67-4.17z"></path> <path fill="#FFFFFF" d="m168.65 358.24c-0.259 1.134-2.09 0.693-3.34 0.835 0.23-1.94 2.23-1.93 3.34-0.84z"></path> <path fill="#FFFFFF" d="m173.66 357.4c-1.83 2.55-5.35-0.96 0 0z"></path> <path fill="#FFFFFF" d="m121.9 359.07c0.907 0.207 0.566 1.66 1.67 1.67-0.36 2.31-2.63 0.04-1.67-1.67z"></path> <path fill="#FFFFFF" d="m154.46 359.07c1.781-0.39 1.59 1.193 1.669 2.505-0.676-0.158-0.832-0.837-1.669-0.835v-1.67z"></path> <path fill="#FFFFFF" d="m152.79 364.08c-1.247 0.979-0.983 3.47-3.34 3.34 0.98-1.24 0.72-3.73 3.34-3.34z"></path> <path d="m116.89 378.27c2.835-0.053 4.587 0.979 5.844 2.505-1.207 1.576-1.865 3.701-5.009 3.34-0.9-2.55 1.39-2.62-0.83-5.85z"></path> <path d="m135.25 379.11c2.484 0.073 2.234 4.979-0.835 4.175-0.27-1.93 0.13-3.2 0.83-4.17z"></path> <path d="m140.26 379.11c2.403 0.937 2.598 4.081 3.339 6.68-1.837 1.592-4.442-1.111-5.844-2.505 0.26-1.97 2.9-1.55 2.5-4.17z"></path> <path fill="#FFFFFF" d="m131.08 288.1c8.734-7.266 1.965-21.596 9.184-28.387-0.156-2.349-1.453-3.557-4.175-3.34 1.171-2.064 2.876-1.473 5.009-0.835 0.827 16.884 0.186 38.379 3.34 54.27-4.79-0.777-3.082-8.051-5.009-11.688-3.737 0.671-2.512 5.016-3.34 6.679h-3.34c-1.246 5.989-5.32 9.151-9.184 12.523-5.48-2.033-12.984-2.044-19.203-3.34-0.009-5.287 2.614-5.812 0-10.019 4.403 0.059 1.276-6.881 1.67-10.854 0.183-1.846 1.298-1.142 1.67-2.505 1.371-5.029 0.764-11.296 1.67-15.863-4.885 0.142-6.01 8.439-5.01 11.688-5.033 7.604-4.913 16.01-5.844 26.718-3.356-1.622-9.622-1.728-15.028-3.34 0.421-16.988-4.441-34.036-10.019-49.26 2.531 4.561 13.62 1.021 16.698-1.67-2.345-5.087-12.883-0.139-14.193 0-2.235-1.44-3.174 0.589-5.009-1.67-3.371 5.057 1.093 13.702 3.339 18.368-1.749 5.357 1.116 11.85 2.505 16.698 0.459 1.851-1.594 1.188-1.67 2.505 0.198 3.896 2.323 0.68 3.34 3.34 0.918 3.256 0.574 7.775 1.67 10.854-7.117-0.119-10.134-4.338-15.863-5.845 2.451-8.548 0.464-18.366 4.174-24.212-2.682-7.407-3.481-17.296-2.504-24.212 6.136 0.259 22 3.857 24.212-2.505-6.594-3.181-13.628-2.811-22.542-1.67 1.317-4.604-6.412-6.39-7.514-3.34-2.202-2.528-4.372-5.09-8.349-5.845-4.011-6.008-6.265-13.772-11.689-18.368v-5.009c-3.938-7.217-7.278-13.163-8.349-23.377-0.463-4.421-2.814-8.675-3.339-12.523-0.544-3.988 1.081-6.566 0-10.019-0.432-1.377-2.076-2.539-2.505-4.174-0.502-1.916 0.493-3.975 0-5.844-0.497-1.886-1.769-1.603-2.505-3.34-0.513-1.211 0.966-1.538 0.835-2.505-0.22-1.626-4.303-8.709-5.009-10.854-1.948-5.918-2.738-12.076-4.175-18.368 1.746-2.429 5.323-3.026 7.514-5.009-0.358-3.23-0.914-2.97 0.835-5.009-4.668-4.237-3.376-14.436-10.019-16.698 7.77-3.734 12.031 9.374 17.533 13.358-1.02 6.029 3.235 6.784 4.175 10.854 2.638 0.412 0.31-4.143 3.339-3.34 0.59 4.208-1.498 5.738-2.504 8.349 0.76 3.172 3.355 0.611 5.844 0.835 1.96 9.728 8.697 14.681 12.523 22.542-2.993 3.13-1.27 10.975-5.844 12.523-0.459 1.851 1.594 1.189 1.67 2.505 4.894 0.441 4.776-4.13 8.349-5.009 8.824 5.091 14.385 13.445 22.542 19.203 1.096-0.295 1.313-1.47 2.504-1.67-4.571-7.396-10.173-13.76-17.533-18.368-0.106-1.498 1.022-1.761 0.834-3.34-1.865-0.428-7.226 2.255-7.514-3.34 1.96 0.267 1.869 2.584 3.34 3.34 5.531-1.088 4.46-10.139-0.835-10.854 1.572-3.321-0.489-7.03-2.505-9.184 2.478-6.985-1.609-20.534 4.175-24.212 0.945 5.142-4.144 8.628-1.67 12.523 3.79-3.724 4.129-10.899 5.009-17.533-0.092-0.664-2.76-2.531-2.504-0.835-0.607-2.717-1.326-5.851-3.34-7.514 2.221-23.135 3.688-56.693 8.349-79.316 5.079-1.384 7.265 1.237 10.854 3.339 0.631 7.257 1.283 18.624 0.835 24.212-2.405 0.1-5.466-0.456-6.68 0.835 0.477 3.698 5.712 2.637 7.514 5.009 2.035 6.435 1.39 12.49 1.67 19.203-2.782-0.28-3.704-2.419-7.514-1.67 0.136 0.971-0.184 1.485-0.835 1.67 0.418 3.757 4.702 3.647 7.514 5.009 1.178 7.348 3.443 18.589-0.835 25.882 0.678 3.775 7.234 1.671 9.184 4.175 2.415-0.369 3.806-1.76 4.175-4.175-0.718-2.9-4.337-2.899-5.845-5.009 2.528-15.354 3.369-33.888 6.68-48.425 0.778-3.416-0.029-8.179 3.339-10.019-0.645-12.181 3.773-26.191 8.349-35.901 3.041-0.258 5.433 0.132 7.514 0.835-0.284 1.675 0.171 2.612 1.67 2.504 1.839 10.667-1.821 19.025-2.505 27.552-0.83 10.346 2.671 21.154-0.835 33.396-4.558-0.863-9.387-0.885-10.854 3.34 0.631 5.257 6.416 0.219 10.854 1.669 1.476 5.081-0.007 18.564-2.504 26.717-1.499 0.95-7.402-3.199-7.515 2.504 1.971 4.844 6.66-2.018 8.349 0 3.261-0.199 3.021 3.102 4.175 5.01 3.187 0.404 5.329-0.237 6.679-1.67-9.703-9.368-3.423-25.044-5.009-37.571 1.185 0.072 2.364 0.138 2.504-0.835 0.46-1.851-1.594-1.188-1.67-2.505 0.121-8.215-0.2-17.679 0.835-27.552 0.664-6.331 4.381-14.899 5.845-20.038 1.175-4.128 1.071-9.097 6.679-9.184 11.963-0.186 6.409 25.908 5.844 33.396-2.994 0.211-3.059-2.507-5.844-2.505-0.907 0.207-0.566 1.66-1.67 1.67 2.098 3.189 3.719 6.856 8.349 7.514-1.23 9.803-1.243 15.984-2.505 25.047-2.467-2.328-7.669-3.513-10.019 0 0.967 3.765 7.666 1.797 10.019 4.175 0.876 9.291 1.61 23.986-4.174 29.222 1.413 4.153 7.074 4.058 9.184 7.514 1.476-0.75 2.438-2.016 4.175-2.505-0.72-2.063-3.096-2.471-4.175-4.174-0.036-8.107 3.714-12.428 7.514-16.698-3.308-7.556 2.41-18.089 6.68-23.377 0.622-2.57-2.292-1.604-1.67-4.174 3.854-6.721 2.76-18.391 10.019-21.708 8.415 0.907 4.842 8.661 4.175 14.193-0.353 2.927 0.41 5.793 0 8.349-0.396 2.465-2.106 4.661-2.505 7.514-1.064 7.622 1.728 16.992-2.505 22.542 1 2.341 0.918 5.761 0.835 9.184-7.949 0.957-6.685 11.126-10.854 15.863-0.087 4.284 7.271 5.501 5.844 8.349 0.211 3.591-2.507-1.095-2.505-2.505-4.941 3.384 0.688 13.601-0.834 18.368-4.546-1.243-16.792 0.834-21.708-2.505-4.073 2.141-12.035 0.979-19.203 0-0.218-2.444 1.888-2.565 1.67-5.009-2.616 1.752-2.684 1.215-6.679 0.835 0.554 12.368-6.403 22.88 0 30.892 3.09 0.585 2.082-2.927 3.339-4.175 18.365 0.27 30.579 1.256 49.26 2.505-2.829 10.965-0.824 21.748-1.67 30.892-0.226 2.444-1.846 4.321-2.505 6.679-0.438 1.566 1.612 5.078-1.67 5.009 0.323-3.21 3.247-20.833 0.835-20.873-5.266-0.088 0.325 11.83-5.844 12.523 2.043 1.889 0.295 3.671 1.67 5.01-0.198 2.584-2.323 3.243-3.34 5.009 0.763 1.463 0.287 4.166 1.67 5.009-1.846 0.303-7.064 4.516-2.505 5.844-3.817 1.209-7.786 6.663-6.679 10.019-1.007 2.364-7.194 3.895-5.009 6.68-2.089 1.528-4.668 2.567-5.009 5.844-2.888-0.661-3.525 0.929-5.01 1.67 0.365 1.027 1.068 1.715 2.505 1.67-3.228 1.503-5.834 3.628-8.349 5.845-0.815-1.968-0.27-5.297-3.339-5.01-1.211 5.676 7.621 8.511 9.184 14.193 1.097-0.295 1.313-1.47 2.505-1.67 1.286 0.441 0.053 0.871-0.835 0.835-0.5 2.169 0.335 3.004 2.505 2.505 0.1 7.74-0.93 14.48 0 22.6zm-26.72-252.14c2.732 1.164 2.643 5.149 7.514 4.174 1.908-2.007 0.143-5.049-0.834-6.679-3.28-0.225-5.8 0.322-6.68 2.505zm-27.549 5.01h2.505c0.107-1.499-0.829-1.954-2.505-1.67v1.67zm80.989 145.27c0.991-5.41 1.798-11.003 1.67-17.533-0.185-0.651-0.699-0.971-1.67-0.835-1.24 5.64-5.88 15.7 0 18.36zm-44.25 22.55c0.628-9.948 5.584-15.566 10.019-21.708 0.036-1.149-0.394-1.833-0.835-2.505-5.468-0.18-4.43 6.146-8.349 7.515-0.243-3.654-1.46-6.333-5.844-5.845-1.634 1.56-0.258 3.058 0 5.01-4.593 0.695-3.949 6.626-7.514 8.349-0.668-2.393-2.251-3.871-4.175-5.009 1.579 0.187 1.842-0.941 3.34-0.835-2.206-7.535 2.794-22.275-5.844-23.377-3 6.729 4.125 16.595 0.835 22.542-0.443-5.401-3.664-8.025-7.514-10.019-0.792 10.865 8.377 18.855 8.349 31.726 2.608 1.01 3.63 3.605 6.679 4.175 2.939-1.83 1.604-4.638 1.669-5.844 0.889 4.023 3.538-0.508 5.01 0 1.592 0.549 1.297 5.386 4.174 3.339-0.963-2.825-1.659-1.313-0.835-5.009-2.128-2.828-6.272 0.826-4.174-3.34-2.09-1.102-2.614 3.301-3.34 0.835 3.18-4.3 5.09 2 8.34-0.01zm10.02 14.19c1.087-6.653-5.567-5.565-4.175-12.523-2.011 0.342-1.814-1.525-4.174-0.835-2.04 6.03 1.57 15.96 8.34 13.36zm-30.061 28.39c0.926 5.753 10.312 3.046 12.523 7.514 1.714 5.263-2.496 12.334 5.01 12.523 0.612-5.788 4.625-8.176 6.679-12.523-1.747-2.347-3.138 0.135-4.175-2.505 1.454 0.063 2.597-0.186 3.34-0.835-2.65-9.08-17.382-11.72-23.371-4.17z"></path> <path fill="#FFFFFF" d="m33.396 107.76c-4.02-2.09-0.988-5.12 0 0z"></path> <path fill="#FFFFFF" d="m224.59 117.78c-8.108 2.004-11.422-11.448-2.505-13.359 8.159-1.748 14.278 6.818 17.533 11.689-0.427 11.232 3.539 18.085 9.184 25.047-0.548 7.086 3.297 14.333 0 19.203-4.825-2.117 1.15-15.671-5.844-17.533-4.411 1.155-8.169 2.963-7.514 9.184-6.441-6.275 2.789-17.209-1.67-24.212-2.218-0.008-4.768 0.315-5.844-0.835-1.02-6.029 3.234-6.784 4.174-10.854-1.423-4.552-3.087-4.426-6.679-5.844 8.839-2.708 10.042 9.432 10.854 17.533 2.961-1.769 1.967-6.994 1.67-9.184-1.018-7.512-14.308-18.24-17.533-8.349-0.91 2.79 0.46 7.37 4.18 7.51zm7.51 8.35c0.047-0.509 0.125-0.988 0.835-0.834-0.095-1.019-0.25-1.977-1.67-1.67 0.13 0.98-0.15 2.37 0.83 2.5zm14.2 15.03c-2.512-3.89-4.314-8.487-8.35-10.854-0.67 3.36 4.46 12.08 8.35 10.85z"></path> <path fill="#FFFFFF" d="m161.97 109.43c2.794 0.754 0.729 1.868 0 3.339-2.15-0.2 1.15-1.43 0-3.34z"></path> <path fill="#FFFFFF" d="m239.62 157.02c-1.426-4.115-3.058-10.675 2.505-11.688 0.611 0.779 1.518 1.265 2.505 1.67-1.922 3.471-1.007 2.947 0 6.679 0.542 3.325-4.926 0.641-4.175 4.174 1.073 1.152 1.727 0.223 4.175 0-3.584 5.205 0.673 8.384-0.835 14.193h-4.175c-1.255-1.354-1.255-6.161 0-7.514-4.097-0.959-7.156-0.016-10.019-3.339-2.664 3.811 3.548 5.889 6.679 6.679-0.959 5.968 2.749 7.271 7.515 7.514-0.991 13.759-10.746 18.754-10.854 33.396-1.854 0.929-2.262 3.304-4.174 4.175 1.036 2.582 2.059 5.177 4.174 6.679-9.504 0.788-7.312-15.554-6.679-25.882 13.88 6.205 5.178-15.729 7.514-24.212-3.233-0.729-1.364 3.645-5.009 2.504 2.635 5.381 3.451 14.356 3.339 20.038-1.475-0.851-2.853-4.432-5.009 0-1.425-1.211-0.935-7.566 2.504-6.68-5.625-5.98-0.698-19.125-1.669-28.387 2.9 1.34 7.31-2.41 11.71 0zm-6.68 5.01c2.218-0.009 4.768 0.315 5.844-0.835 1.52-5.91-8.32-5.53-5.84 0.83z"></path> <path fill="#FFFFFF" d="m113.55 157.02c-2.098-1.564 1.389-0.091 2.505 0-0.011 1.659-2.278 1.062-1.67 3.34-3.86-0.56 1.27-2.77-0.84-3.34z"></path> <path fill="#FFFFFF" d="m180.34 160.36c0.579-1.593 1.299 0.901 0 0.835 0.542 0.849 1.92 0.863 1.67 2.504-2.6 0.39-2.99-2.1-1.67-3.34z"></path> <path fill="#FFFFFF" d="m190.36 161.2c1.661-2.047-0.277 4.007-2.505 3.339 0.24-1.7 2.25-1.64 2.5-3.34z"></path> <path fill="#FFFFFF" d="m197.04 162.03c1.57-1.86-4.19 4.98 0 0z"></path> <path fill="#FFFFFF" d="m200.38 161.2c2.56 0.82-0.959 2.228-0.834 3.339-1.98-0.24 0.95-2.23 0.83-3.34z"></path> <path fill="#FFFFFF" d="m202.88 165.37c-2.267-0.76 0.851-2.925 0.835-4.174 1.133 0.258 0.692 2.09 0.835 3.339 0.71 0.154 0.788-0.326 0.835-0.835 2.22 2.26-2.19 0.15-2.52 1.67z"></path> <path fill="#FFFFFF" d="m248.8 161.2c5.266 20.852-8.913 29.49-11.688 45.085-1.811-8.532 6.122-15.71 8.35-24.212 1.8-6.87-0.35-14.27 3.34-20.87z"></path> <path fill="#FFFFFF" d="m217.91 164.54c2.7 0.17-4.69-0.3 0 0z"></path> <path fill="#FFFFFF" d="m257.15 166.21c-0.648 0.743-0.897 1.885-0.835 3.34-1.185-0.072-2.364-0.138-2.505 0.834-2.311-0.359-0.043-2.626 1.67-1.669-0.295-0.958-1.47-2.116-1.67-0.835-2.26-0.74 1.44-2.33 3.33-1.67z"></path> <path fill="#FFFFFF" d="m100.19 205.45c0.659-2.93 2.92-0.964 4.174 0-0.547 2.235-2.391 3.174-3.339 5.009-2.08-0.339-0.05-3.237 1.67-2.505 0.17-3.37 0.11-3.43-2.5-2.51z"></path> <path fill="#FFFFFF" d="m140.26 238.84c1.12 0.549 1.555 1.784 1.669 3.339-3.024 1.15-3.942 4.407-6.679 5.845-0.42-1.83 5.16-4.83 5.01-9.18z"></path> <path fill="#FFFFFF" d="m130.24 259.72c0.39-1.781-1.193-1.59-2.505-1.67 1.983-1.356 5.058-1.621 7.514-2.505-0.627 2.991-4 3.235-5.844 5.01-1.29-0.44-0.05-0.87 0.83-0.83z"></path> <path fill="#FFFFFF" d="m142.77 313.15c2.767 0.815-0.933 1.65-0.835 2.504-2.42-0.46 1.27-1.3 0.83-2.5z"></path> <path fill="#FFFFFF" d="m141.93 335.69c-2.19 2.06-4.83-2.41 0 0z"></path> <path fill="#FFFFFF" d="m151.95 344.04c-3.989-2.755-14.821-1.958-20.038-0.834 0.136-0.971-0.185-1.486-0.835-1.67-2.51 0.94 19.39-2.5 20.87 2.5z"></path> <path fill="#FFFFFF" d="m118.56 347.38c-1.967-0.95 2.617-6.748 3.34-5.009 0.17 2.96-3.92 1.65-3.34 5.01z"></path> <path d="m120.23 18.429c3.908-6.111 5.963-14.075 15.028-15.028 2.435 1.74 5.555 2.794 7.514 5.009 3.381 12.223-1.516 25.837-1.67 39.241-0.198 17.246-1.45 34.385-1.669 51.764 4.041-1.818 2.633-6.988 4.174-13.358 1.157-4.782 4.3-10.298 5.844-15.863 3.146-11.336 3.638-33.268 16.698-32.562 8.911 0.482 7.845 10.311 10.854 16.698-8.336 15.929-6.21 34.575-9.184 51.764-1.131 6.54-4.696 13.071-5.01 20.038-0.245 5.452 2.183 11.039 0.835 16.698 17.429 3.317 36.876 5.249 56.774 4.175-3.229-8.812 2.064-16.166 0-23.377-1.158-4.046-6.402-5.167-8.349-9.184-1.166-2.405 0.967-3.968-1.67-5.844 4.003-7.528 11.466-13.926 21.708-11.689 7.416 1.62 8.961 9.722 13.359 14.193-1.646 12.125 1.723 20.08 5.844 28.387 1.527 3.204-0.883 10.346 5.845 8.349-1.903-1.437-4.455-2.224-4.175-5.845 2.87-0.365 4.68 0.33 6.68 0.835 1.391 1.114 0.279 4.73 1.67 5.844 11.033-0.882 26.484 0.763 35.9 0 2.593-0.21 5.097-1.617 7.515-1.669 18.226-0.397 37.448 3.03 56.773 1.669 15.644-1.101 31.531-4.135 46.755-4.174 20.705-0.054 40.136 7.811 51.764 20.038 15.79-7.754 26.465 8.942 16.698 20.038-5.46-0.3-10.996 3.832-15.028 0-7.644 6.169-11.552 11.195-24.212 12.524-22.776 2.39-47.661-1.698-72.638-5.844-14.918-2.477-30.47-0.92-43.415-5.01-2.353-0.743-3.609-2.817-5.844-3.339-5.633-1.317-12.72-1.819-18.368-2.505-12.352-1.5-24.193-2.979-35.066-4.174-3.228 1.225-3.062 5.844-9.184 4.174-3.085 0.811-2.555 5.238-3.34 8.349-4.474 4.153-5.934 11.32-9.184 16.698 3.543 1.745 6.513 4.062 9.184 6.679-2.076 2.059-1.321 2.885-0.835 8.349-4.781 2.875-5.111 7.946-10.019 9.184-11.604 2.927-20.746-6.46-21.708-15.863-1.295-12.662 3.687-32.107 1.67-43.416-12.948-0.806-28.837-0.191-41.746-1.669-4.776-0.547-8.527-2.802-12.523 0 2.743 8.652-2.609 20.913 0.835 27.552-3.753 6.822-2.269 18.882-6.679 25.047-0.368 4.798-0.077 9.873-2.505 13.358-0.312 0.448-2.336 0.506-2.504 0.835-0.702 1.375-0.047 3.707-0.835 5.01-2.604 4.304-6.589 7.423-8.349 12.523 0.996 19.397 2.04 34.125 3.339 49.259 4.844 4.725 21.553 7.074 15.863 19.203 1.781 5.733 11.477 3.552 13.358 9.184 2.402-2.156 4.925 0.628 6.68 1.67 0.861 13.242-3.023 26.999-4.175 42.58-3.589 2.497-7.069 2.693-12.523 1.67-1.675 0.83-3.38 1.629-5.009 2.505-5.943-2.188-11.981 1.474-17.533-3.34-2.489 4.69-10.225-1.786-12.523 5.01-1.925 0.256-0.928-2.412-2.505-2.505-3.057 0.005-1.225 4.897-5.009 4.175-0.217-2.72-3.095-4.38 0-5.845-3.405-3.338-4.689 0.9-10.019 0-1.559 1.485 0.678 2.122 0 5.01-2.623-0.16-4.015-1.552-4.174-4.175-4.617 3.888-3.426-0.322-10.019 0-2.924 3.057 5.715 2.939 2.505 6.68-4.729 3.278-8.993-2.766-6.679-6.68-3.481 0.972-4.557 4.35-5.845 7.515-2.072-0.989-5.239-0.884-4.174-5.01-3.585 0.033-3.55 3.686-6.679 4.175-1.571-1.936-3.452-3.556-1.67-6.68-0.098-3.291-3.629-2.553-1.67-5.844 1.655-0.761 8.834 3.709 10.854 2.504 3.03 0.759 0.508 2.465 0.835 5.01 3.479-0.139 3.216-4.02 5.844-5.01 8.475 1.276 16.553-4.422 27.552-3.339 1.619-1.999 4.272-2.964 5.009-5.845-3.196 1.024-6.856-1.399-11.688-2.505-1-4.618 4.323-2.912 4.174-6.679-4.849 0.484-3.938 1.582-6.679 4.174-5.686-3.409-12.758-2.071-18.368-4.174-0.4-2.627 1.189-3.264 1.67-5.01 5.033-0.404 1.117 2.951 5.009 3.34 0.436-0.997-0.418-2.858-0.835-5.01-9.578-1.039-20.302 5.041-27.552 0.835 1.433-5.262 9.902-3.584 15.028-3.34 3.893 0.186 9.958 0.345 14.193 0 1.452-0.118 2.73-1.631 4.174-1.67 3.458-0.091 7.649 2.119 10.854 0-0.258-1.951-1.634-3.449 0-5.009-6.96 5.133-27.642-5.66-35.066 0-6.379-7.249-17.426-6.104-24.212-11.688-0.875-3.181 3.359-2.562 0.835-5.01-4.542 0.165-4.338 4.747-3.34 8.349-2.433 4.803-3.034 11.438-5.844 15.863-0.233 1.903 0.201 3.139 1.67 3.34-1.231 2.109-2.95 3.729-3.34 6.68-0.597 2.267 3.937-0.598 3.34 1.669 0.799 3.009-3.604 1.48-4.175 0.835-0.354 7.995-3.778 12.921-5.009 20.038 1.786 4.4 4.09 4.212 3.34 10.019-4.613 0.289-4.938-1.848-10.019-2.504-2.477-10.987 6.356-22.516 9.184-35.066 3.069-13.621 1.819-27.093 10.019-32.562 1.991-7.192 3.064-15.304 7.514-20.038 0.493-16.462 1.669-30.027-1.67-45.084-4.169-4.737-10.5-7.312-15.028-11.689-2.566-7.174-6.619-12.862-10.854-18.368 0.763-6.932-4.603-11.391-6.679-17.533-2.481-7.34-2.655-15.97-4.175-24.212-0.217-1.181-1.539-2.968-1.669-4.175-0.502-4.643 0.896-9.46 0-14.193-0.911-4.812-5.33-11.509-6.679-18.368-1.757-8.93-2.669-17.956-5.01-25.882-1.952-6.61-6.097-12.517-9.184-17.533 2.958-14.671 22.23-14.595 32.561-5.01 0.527 0.489 0.726 2.291 1.67 3.34 3.611 4.011 7.838 13.949 8.349 20.873 0.891 0.779 0.26 3.08 2.504 2.505 1.017 4.549 1.491 9.642 5.845 10.854-1.854 3.34 0.493 5.721 1.669 8.349 5.288-3.743 1.965-8.26 2.505-13.358 0.523-4.935 3.198-10.083 3.34-15.028 0.123-4.268-1.78-9.004-1.67-13.358 0.144-5.705 2.172-11.47 1.67-16.698-0.102-1.059-1.66-2.91-1.67-4.174-0.033-3.929 2.177-7.777 2.504-11.689 0.282-3.368-0.964-6.568-0.834-10.019 0.369-9.836 4.859-19.676 3.339-30.057 3.46-7.116 5.558-15.593 16.698-15.028 4.239 2.44 4.694 8.665 8.349 11.688-4.446 18.996-0.004 42.654 0 62.618 4.282-12.83 3.841-35.058 7.514-51.764 0.809-3.679 3.204-6.662 3.339-10.019 0.048-1.175-1.032-2.971-0.835-4.175 0.551-3.354 3.917-16.499 6.679-19.203 3.015-2.951 7.999-3.629 12.524-3.339 4.15 3.264 6.78 13.501 4.23 18.318zm10.85 247.13c-2.169 0.499-3.004-0.336-2.505-2.505 0.888 0.036 2.121-0.394 0.835-0.835-1.191 0.2-1.408 1.375-2.505 1.67-1.563-5.683-10.395-8.518-9.184-14.193 3.069-0.287 2.524 3.042 3.339 5.01 2.515-2.217 5.121-4.342 8.349-5.845-1.437 0.045-2.14-0.643-2.505-1.67 1.485-0.741 2.122-2.331 5.01-1.67 0.341-3.276 2.92-4.315 5.009-5.844-2.185-2.785 4.002-4.315 5.009-6.68-1.107-3.356 2.862-8.81 6.679-10.019-4.559-1.328 0.659-5.542 2.505-5.844-1.383-0.844-0.907-3.546-1.67-5.009 1.017-1.767 3.142-2.425 3.34-5.009-1.375-1.338 0.373-3.121-1.67-5.01 6.169-0.693 0.579-12.611 5.844-12.523 2.412 0.04-0.512 17.663-0.835 20.873 3.282 0.068 1.232-3.443 1.67-5.009 0.659-2.358 2.279-4.235 2.505-6.679 0.846-9.144-1.159-19.926 1.67-30.892-18.681-1.249-30.895-2.235-49.26-2.505-1.257 1.248-0.25 4.76-3.339 4.175-6.403-8.011 0.554-18.523 0-30.892 3.996 0.38 4.063 0.917 6.679-0.835 0.218 2.444-1.888 2.565-1.67 5.009 7.168 0.979 15.129 2.141 19.203 0 4.916 3.339 17.162 1.262 21.708 2.505 1.523-4.767-4.107-14.984 0.834-18.368-0.002 1.41 2.716 6.096 2.505 2.505 1.426-2.848-5.931-4.065-5.844-8.349 4.168-4.737 2.904-14.907 10.854-15.863 0.083-3.423 0.165-6.843-0.835-9.184 4.233-5.55 1.44-14.92 2.505-22.542 0.398-2.853 2.109-5.049 2.505-7.514 0.41-2.556-0.353-5.422 0-8.349 0.667-5.532 4.24-13.286-4.175-14.193-7.259 3.316-6.164 14.987-10.019 21.708-0.622 2.57 2.292 1.604 1.67 4.174-4.27 5.289-9.987 15.821-6.68 23.377-3.8 4.271-7.55 8.591-7.514 16.698 1.079 1.704 3.455 2.111 4.175 4.174-1.737 0.489-2.699 1.754-4.175 2.505-2.11-3.456-7.771-3.361-9.184-7.514 5.785-5.236 5.05-19.931 4.174-29.222-2.353-2.378-9.052-0.41-10.019-4.175 2.35-3.513 7.552-2.328 10.019 0 1.262-9.062 1.274-15.244 2.505-25.047-4.63-0.658-6.251-4.325-8.349-7.514 1.104-0.01 0.763-1.463 1.67-1.67 2.785-0.002 2.85 2.716 5.844 2.505 0.564-7.489 6.119-33.582-5.844-33.396-5.608 0.087-5.504 5.056-6.679 9.184-1.463 5.139-5.181 13.707-5.845 20.038-1.035 9.873-0.714 19.337-0.835 27.552 0.076 1.316 2.13 0.654 1.67 2.505-0.14 0.973-1.32 0.907-2.504 0.835 1.586 12.527-4.694 28.203 5.009 37.571-1.35 1.433-3.492 2.074-6.679 1.67-1.153-1.908-0.914-5.209-4.175-5.01-1.689-2.018-6.378 4.844-8.349 0 0.112-5.703 6.016-1.555 7.515-2.504 2.497-8.153 3.98-21.636 2.504-26.717-4.438-1.45-10.223 3.587-10.854-1.669 1.466-4.225 6.295-4.203 10.854-3.34 3.506-12.242 0.005-23.05 0.835-33.396 0.684-8.527 4.344-16.885 2.505-27.552-1.499 0.108-1.954-0.829-1.67-2.504-2.081-0.703-4.473-1.093-7.514-0.835-4.576 9.71-8.994 23.72-8.349 35.901-3.368 1.84-2.562 6.603-3.339 10.019-3.311 14.537-4.151 33.071-6.68 48.425 1.508 2.11 5.127 2.109 5.845 5.009-0.369 2.415-1.76 3.806-4.175 4.175-1.95-2.503-8.506-0.399-9.184-4.175 4.278-7.292 2.013-18.534 0.835-25.882-2.812-1.362-7.096-1.252-7.514-5.009 0.651-0.185 0.971-0.699 0.835-1.67 3.811-0.75 4.732 1.39 7.514 1.67-0.28-6.713 0.365-12.769-1.67-19.203-1.802-2.373-7.038-1.311-7.514-5.009 1.214-1.291 4.274-0.735 6.68-0.835 0.448-5.588-0.204-16.956-0.835-24.212-3.589-2.103-5.775-4.723-10.854-3.339-4.661 22.623-6.128 56.181-8.349 79.316 2.014 1.663 2.733 4.797 3.34 7.514-0.256-1.696 2.412 0.171 2.504 0.835-0.88 6.634-1.219 13.809-5.009 17.533-2.474-3.896 2.615-7.381 1.67-12.523-5.784 3.679-1.697 17.228-4.175 24.212 2.016 2.154 4.077 5.863 2.505 9.184 5.295 0.714 6.366 9.765 0.835 10.854-1.471-0.755-1.379-3.073-3.34-3.34 0.289 5.595 5.649 2.912 7.514 3.34 0.188 1.579-0.941 1.842-0.834 3.34 7.359 4.607 12.962 10.972 17.533 18.368-1.191 0.2-1.408 1.375-2.504 1.67-8.158-5.758-13.719-14.112-22.542-19.203-3.573 0.879-3.455 5.45-8.349 5.009-0.076-1.316-2.129-0.654-1.67-2.505 4.574-1.548 2.852-9.394 5.844-12.523-3.827-7.862-10.563-12.814-12.523-22.542-2.489-0.224-5.084 2.337-5.844-0.835 1.006-2.611 3.094-4.142 2.504-8.349-3.03-0.803-0.701 3.751-3.339 3.34-0.94-4.07-5.194-4.825-4.175-10.854-5.501-3.985-9.763-17.092-17.533-13.358 6.643 2.263 5.35 12.461 10.019 16.698-1.749 2.039-1.193 1.779-0.835 5.009-2.191 1.983-5.768 2.581-7.514 5.009 1.437 6.292 2.227 12.45 4.175 18.368 0.706 2.145 4.79 9.228 5.009 10.854 0.131 0.967-1.348 1.294-0.835 2.505 0.736 1.737 2.008 1.454 2.505 3.34 0.493 1.869-0.502 3.929 0 5.844 0.429 1.636 2.073 2.797 2.505 4.174 1.081 3.453-0.544 6.031 0 10.019 0.525 3.849 2.876 8.102 3.339 12.523 1.071 10.215 4.412 16.161 8.349 23.377v5.009c5.424 4.595 7.678 12.36 11.689 18.368 3.977 0.755 6.146 3.316 8.349 5.845 1.103-3.05 8.832-1.265 7.514 3.34 8.914-1.141 15.949-1.511 22.542 1.67-2.212 6.362-18.076 2.764-24.212 2.505-0.977 6.916-0.177 16.805 2.504 24.212-3.71 5.846-1.724 15.664-4.174 24.212 5.729 1.507 8.746 5.726 15.863 5.845-1.096-3.078-0.752-7.598-1.67-10.854-1.017-2.66-3.142 0.556-3.34-3.34 0.076-1.316 2.129-0.654 1.67-2.505-1.389-4.849-4.254-11.341-2.505-16.698-2.246-4.666-6.71-13.312-3.339-18.368 1.835 2.259 2.774 0.229 5.009 1.67 1.31-0.139 11.849-5.087 14.193 0-3.078 2.69-14.167 6.23-16.698 1.67 5.578 15.224 10.44 32.271 10.019 49.26 5.407 1.612 11.672 1.718 15.028 3.34 0.931-10.708 0.811-19.114 5.844-26.718-1-3.249 0.125-11.547 5.01-11.688-0.906 4.567-0.299 10.834-1.67 15.863-0.372 1.363-1.487 0.659-1.67 2.505-0.394 3.973 2.733 10.912-1.67 10.854 2.614 4.207-0.009 4.731 0 10.019 6.219 1.296 13.723 1.307 19.203 3.34 3.863-3.372 7.938-6.534 9.184-12.523h3.34c0.828-1.663-0.397-6.008 3.34-6.679 1.927 3.638 0.22 10.911 5.009 11.688-3.154-15.891-2.513-37.386-3.34-54.27-2.133-0.638-3.838-1.229-5.009 0.835 2.722-0.217 4.019 0.991 4.175 3.34-7.219 6.791-0.45 21.121-9.184 28.387-0.93-8.15 0.1-14.89 0-22.57zm110.21-152.79c-1.674-7.516-8.407-14.406-17.533-11.688 10.3-0.56 13.19 6.29 17.53 11.69zm-233.78-9.18c1.621 5.347 7.43 12.243 10.019 17.533 0.603-3.78-2.202-22.107-10.019-17.53zm25.882 4.17c-0.988-5.12-4.02-2.09 0 0zm187.02 2.51c3.225-9.891 16.515 0.837 17.533 8.349 0.297 2.189 1.291 7.415-1.67 9.184-0.811-8.101-2.015-20.24-10.854-17.533 3.592 1.418 5.256 1.292 6.679 5.844-0.94 4.069-5.194 4.824-4.174 10.854 1.076 1.15 3.626 0.827 5.844 0.835 4.458 7.003-4.771 17.938 1.67 24.212-0.655-6.221 3.103-8.029 7.514-9.184 6.994 1.862 1.019 15.416 5.844 17.533 3.297-4.87-0.548-12.117 0-19.203-5.645-6.962-9.61-13.815-9.184-25.047-3.255-4.871-9.374-13.437-17.533-11.689-8.917 1.911-5.604 15.363 2.505 13.359-3.73-0.14-5.1-4.72-4.18-7.51zm-58.45 2.5c0.729-1.472 2.794-2.585 0-3.339 1.15 1.91-2.15 3.14 0 3.34zm-125.23 4.18c-0.371-1.578 1.135-5.032-1.67-4.175-0.126 2.07 0.431 3.46 1.67 4.17zm187.01-1.67c1.903 0.233 3.139-0.201 3.34-1.67-1.47 0.19-4.18-0.84-3.34 1.67zm3.34 1.67c-4.29 2.01 2.88 2.16 0 0zm-5.84 85.99c0 13.742 3.299 24.486 15.863 21.708-16.005-0.694-14.666-13.741-13.358-30.057 1.827-22.792 2.671-49.484 1.67-71.802h-2.505c2.54 19.46-1.67 56.08-1.67 80.15zm9.18-63.45c-1.244 0.982-2.357 2.096-3.339 3.339 2.425 5.234 0.168 7.485 1.67 12.523 1.578 0.188 1.842-0.941 3.339-0.834-1.227-6.93-2.211-13.409 0.835-19.203-3.307-0.091-3.645-1.468-1.67-5.009-1.149 0.036-1.833-0.393-2.504-0.835-1.32 2.34-1.94 9.93 1.66 10.01zm-69.29 5.85c-0.491-3.962-0.208-8.698-2.505-10.854 0.12 4.32-0.86 9.75 2.5 10.85zm66.79 11.68c0.972 9.262-3.956 22.406 1.669 28.387-3.439-0.886-3.93 5.468-2.504 6.68 2.157-4.432 3.534-0.851 5.009 0 0.112-5.682-0.705-14.657-3.339-20.038 3.645 1.141 1.776-3.233 5.009-2.504-2.336 8.483 6.366 30.417-7.514 24.212-0.632 10.329-2.825 26.67 6.679 25.882-2.116-1.502-3.138-4.098-4.174-6.679 1.913-0.871 2.32-3.246 4.174-4.175 0.108-14.642 9.863-19.637 10.854-33.396-4.766-0.244-8.474-1.546-7.515-7.514-3.131-0.791-9.343-2.868-6.679-6.679 2.863 3.324 5.922 2.38 10.019 3.339-1.255 1.354-1.255 6.161 0 7.514h4.175c1.508-5.81-2.749-8.988 0.835-14.193-2.448 0.223-3.102 1.152-4.175 0-0.751-3.534 4.717-0.849 4.175-4.174-1.007-3.732-1.922-3.208 0-6.679-0.987-0.405-1.894-0.891-2.505-1.67-5.563 1.014-3.931 7.573-2.505 11.688-4.42-2.41-8.83 1.34-11.71 0zm-114.38-9.18c-1.825 0.123-1.792 2.104-1.67 4.174 37.828 3.607 75.507 4.399 109.37 6.679v-6.679c-38.69-2.45-72.53-3.57-107.7-4.17zm140.26 5.01c1.848-1.203-1.051-2.038 0.835-2.505 1.022 0.267 5.156-0.134 2.505-0.835-2.36 0.69-2.163-1.177-4.175-0.835 0.47 1.23-0.96 4.33 0.85 4.19zm0 4.17c2.524-0.259 6.493 0.927 6.68-1.67-0.983-0.13-2.37 0.144-2.505-0.834 0.956-1.713-1.312-3.98-1.67-1.67 2.56 1.55-3.67 1.25-2.5 4.17zm-139.43 3.34c-0.608-2.278 1.659-1.681 1.67-3.34-1.116-0.091-4.603-1.564-2.505 0 2.12 0.57-3.01 2.78 0.84 3.34zm19.2-0.83c0.651 0.184 0.971 0.699 0.835 1.67 2.617 0.391 2.354-2.1 3.34-3.34-2.45 1.24-3.1-0.95-4.18 1.67zm-4.17 0.83c1.345 2.28 2.802-1.223 0.835-1.67 0.01 0.84-0.67 1-0.83 1.67zm14.19 0.84c1.719 0.732 3.749-2.166 1.67-2.505-0.2 1.18-1.37 1.4-1.67 2.5zm111.88 0.83c2.613 0.387 3.727-0.726 3.34-3.34-1.214 0.457-4.315-0.976-4.175 0.835 3.76-0.57 2.24 1.72 0.84 2.51zm-73.47 1.67c0.25-1.641-1.127-1.656-1.67-2.504 1.299 0.066 0.579-2.428 0-0.835-1.32 1.24-0.93 3.73 1.67 3.34zm121.06-3.34c-0.648 0.187-1.647 0.023-1.67 0.835 18.409-1.893 32.087 1.682 51.764-1.67-16.45 0.52-35.01-1.06-50.09 0.83zm57.61 0c-1.96-0.266-3.134-1.319-5.845-0.835-1.03 2.78 5.64 2.05 5.84 0.84zm-203.72 0c-0.058 0.01 0.052 0.776 0 0.835-3.96 4.53 4.01-1.54 0-0.84zm30.89 4.18c2.228 0.667 4.166-5.387 2.505-3.339-0.25 1.7-2.26 1.64-2.51 3.34zm200.38-4.18c-8.075 0.552-18.362-1.107-25.047 0.835 8.08-0.55 18.37 1.11 25.05-0.84zm-212.9 3.34c1.903 0.233 3.138-0.201 3.339-1.669-1.24-1.31-3.73-0.93-3.34 1.67zm21.71-1.67c-4.19 4.98 1.57-1.86 0 0zm2.5 2.51c-0.125-1.112 3.395-2.52 0.834-3.339 0.13 1.11-2.8 3.1-0.83 3.34zm5.85-0.84c-0.047 0.509-0.125 0.989-0.835 0.835-0.143-1.249 0.298-3.081-0.835-3.339 0.016 1.249-3.102 3.415-0.835 4.174 0.33-1.52 4.74 0.59 2.51-1.67zm40.07 18.37c-2.228 8.502-10.16 15.68-8.35 24.212 2.775-15.595 16.954-24.233 11.688-45.085-3.69 6.6-1.54 14-3.34 20.87zm-27.55-17.53c-4.69-0.3 2.7 0.17 0 0zm36.74 0c5.5 2.07 3.78-2.79 0 0zm-0.84 3.34c0.2-1.281 1.375-0.123 1.67 0.835-1.713-0.957-3.98 1.311-1.67 1.669 0.141-0.973 1.32-0.906 2.505-0.834-0.062-1.455 0.187-2.597 0.835-3.34-1.9-0.67-5.6 0.92-3.35 1.66zm197.04 5.84c-0.221-4.53-5.282-8.608-9.185-6.679 5.13 0.16 5.06 5.52 9.19 6.68zm-192.86-1.67c-2.82-2.53-2.53 3.09 0 0zm-25.05 44.25c1.311 0.359 0.713 2.626 3.339 1.67 2.365-0.324-3.116-3.934 0-5.009 5.443 0.931 4.409 8.567 4.175 10.854 10.65-5.65-6.78-22.71-7.52-7.51zm-77.65-2.5c-1.192-0.2-1.408-1.375-2.505-1.67-0.72 1.72 2.17 3.75 2.51 1.67zm-8.35 28.38c2.541-3.408 6.5-8.177 7.514-13.358 0.374-1.908 1.24-5.814-0.835-5.844-2.94 5.14-7 13.59-6.68 19.2zm-4.17-8.34c1.437 0.045 2.14-0.643 2.505-1.67-1.44-0.05-2.15 0.64-2.51 1.67zm-7.52 14.19c2.737-1.438 3.655-4.694 6.679-5.845-0.115-1.555-0.549-2.79-1.669-3.339 0.15 4.35-5.43 7.35-5.01 9.19zm5.01 0.83c3.517-0.379 4.003-3.789 5.844-5.845-3.26 0.62-4.19 3.59-5.84 5.84zm-10.02 3.34c2.01 0.632 4.042 0.662 5.844-0.835-2.09-1.63-4.59-1.94-5.84 0.84zm-0.83 8.35c1.844-1.774 5.217-2.019 5.844-5.01-2.457 0.884-5.531 1.148-7.514 2.505 1.312 0.08 2.895-0.111 2.505 1.67-0.88-0.03-2.12 0.4-0.83 0.84zm-50.929 26.72c0.228-1.137-0.517-3.259-0.835-1.67-0.228 1.14 0.517 3.26 0.835 1.67zm-20.038 33.39c3.05 3.152 7.955 3.274 12.523 5.01 0.181 0.068-0.181 1.604 0 1.67 7.008 2.51 16.429 2.784 24.212 5.009 2.374 0.679 3.691 2.097 5.844 2.505 1.963 0.372 4.515-0.292 6.679 0 2.839 0.383 7.477 4.069 9.184 0-4.102-0.848-9.659-3.892-11.689-9.184 6.621-0.439 9.243 3.645 16.698 3.339v2.505c4.456-0.997 9.001 1.831 12.523 4.175-1.274-3.579 3.204-2.718 4.175-1.67 0.403-2.63-2.562-1.891-1.67-5.01 5.059-0.243 8.244 6.811 10.854 0-3.99 3.383-6.417-3.973-10.854-2.504 1.749-6.266 11.153-1.967 17.533-1.67-1.201-4.573 8.208-2.882 5.009-6.68-5.244 4.734-17.129 3.793-26.717 3.34-22.058-1.042-46.081-5.203-62.618-10.019-1.069 0.96 4.132 4.734-0.835 5.844-1.571-1.49-3.865-2.258-5.009-4.174 0.266-1.961 2.584-1.869 3.339-3.34-2.089-0.693-3.279-2.287-5.844-2.505-1.707 3.83-2.34 8.76-3.32 13.34zm83.487-5c-0.098-0.854 3.602-1.688 0.835-2.504 0.45 1.19-3.24 2.03-0.83 2.5zm-9.18 1.66c4.24 2.28 3.11-2.91 0 0zm24.21 21.71c6.312-0.23 2.447-12.703 3.34-15.863-0.982 0.131-2.37-0.144-2.505 0.835 3.88 3.33-1.64 9.35-0.84 15.03zm-89.333-7.51h1.67c0.509-0.047 0.988-0.124 0.835-0.835-0.973-0.14-0.907-1.319-0.835-2.504-0.982 0.13-2.37-0.144-2.505 0.834 1.735 0.47 1.769 1.31 0.835 2.51zm74.303 4.17c-4.83-2.41-2.19 2.06 0 0zm6.68 2.51v-1.67c-1.54-2.77-4.07 2.5 0 1.67zm20.04 2.5c1.951-0.258 3.449-1.635 5.009 0 0.77-3.03-5.51-1.91-5.01 0zm-37.57 0.84c0.65 0.184 0.971 0.699 0.835 1.67 5.217-1.124 16.049-1.921 20.038 0.834-1.49-5-23.39-1.56-20.88-2.5zm-9.18 0.83c-0.723-1.739-5.307 4.059-3.34 5.009-0.58-3.36 3.51-2.05 3.34-5.01zm-0.84 5.01h3.34c-0.431-2.124-1.423-3.237 1.669-3.34 0.799 1.556-2.5 2.791 0 3.34 0.233-1.254 3.59-3.516 1.67-4.174-1.66-0.15-6.65-1.18-6.68 4.17zm36.74-4.17c1.383-2.849 5.49 2.207 5.844-1.67-1.95 0.06-8.94-0.68-5.84 1.67zm-10.86 8.35c0.342-2.012-1.525-1.814-0.835-4.175-2.626 0.956-2.029-1.311-3.34-1.67 1.06 2.29 1.9 4.79 4.18 5.85zm25.05-3.34h2.505c0.151-1.821-0.684-2.656-2.505-2.505-0.01 0.83-0.01 1.66-0.01 2.5zm-15.03 0.83h1.67c0.934-1.202 0.9-2.037-0.835-2.505-0.05 1.07-1.07 1.16-0.84 2.51zm-46.75 0c0.094 1.019 0.25 1.977 1.669 1.67 0.545-3.328-3.174-2.392-5.844-2.505 0.28 4.16 2.23 1.46 4.17 0.83zm4.17 0c-0.184-0.65-0.699-0.971-1.67-0.835-0.25 4.98 13.56-0.56 1.67 0.83zm5.85 5.01c2.278 0.075 1.681-1.391 3.34 0-0.013-2.214 0.463-4.916-1.67-5.01 0.66 2.89-0.93 3.53-1.67 5.01zm8.35 0.84c0.868-2.882-1.924-6.337-3.339-4.175 3.3 0.31-1.3 4.44 3.34 4.18zm2.5-0.84c1.312-0.08 2.895 0.111 2.504-1.67h-1.669c0.01 0.84-0.67 0.99-0.83 1.67zm-6.68 2.51c3.67 5.13-2.97-4.16 0 0zm21.71 4.17c0.123-2.07 0.155-4.052-1.67-4.174-0.87 0.79-0.76 4.3 1.67 4.17zm19.2-1.67c1.25-0.142 3.081 0.299 3.34-0.835-1.11-1.09-3.11-1.1-3.34 0.83zm8.35-1.67c-5.35-0.96-1.83 2.55 0 0zm-40.91 4.18c2.448-0.057 3.101-1.908 4.175-3.34-3.38-1.153-2.641 1.812-5.009 1.67-0.187-0.647-0.023-1.646-0.835-1.67-0.61 2.27 1.66 1.68 1.67 3.34zm-9.18-0.84c-1.104-0.01-0.763-1.463-1.67-1.67-0.96 1.71 1.31 3.98 1.67 1.67zm30.89 0c0.837-0.002 0.993 0.677 1.669 0.835-0.08-1.312 0.112-2.895-1.669-2.505v1.66zm5.84 0.84c2.303 1.07 4.084-2.433 2.504-2.505 0.34 1.99-3.8-0.47-2.5 2.5zm-10.85 5.84c2.356 0.13 2.093-2.36 3.34-3.34-2.62-0.39-2.36 2.1-3.34 3.34z"></path> <path fill="#FFFFFF" d="m127.74 343.21c1.92 0.658-1.437 2.92-1.67 4.174-2.5-0.549 0.799-1.784 0-3.34-3.092 0.103-2.1 1.216-1.669 3.34h-3.34c0.03-5.35 5.02-4.32 6.68-4.17z"></path> <path fill="#FFFFFF" d="m142.77 345.71c1.311 0.359 0.713 2.626 3.34 1.67-0.69 2.36 1.177 2.163 0.835 4.175-2.28-1.06-3.12-3.56-4.17-5.85z"></path> <path fill="#FFFFFF" d="m124.4 356.57c-2.97-4.16 3.67 5.13 0 0z"></path> <path fill="#FFFFFF" d="m131.08 358.24c0.812 0.023 0.648 1.022 0.835 1.67 2.369 0.143 1.629-2.823 5.009-1.67-1.074 1.432-1.727 3.283-4.175 3.34-0.02-1.66-2.29-1.07-1.68-3.34z"></path> <path fill="#FFFFFF" d="m162.81 359.07c1.58 0.072-0.202 3.575-2.504 2.505-1.31-2.97 2.83-0.51 2.5-2.51z"></path> <path fill="#FFFFFF" d="m221.25 152.01v6.679c-33.865-2.28-71.544-3.072-109.37-6.679-0.123-2.071-0.155-4.052 1.67-4.174 35.17 0.6 69.01 1.72 107.7 4.17z"></path> <path d="m105.2 208.79c0.726 2.466 1.25-1.937 3.34-0.835-2.098 4.166 2.046 0.512 4.174 3.34-0.824 3.696-0.128 2.184 0.835 5.009-2.877 2.047-2.582-2.79-4.174-3.339-1.472-0.508-4.121 4.023-5.01 0-0.066 1.207 1.27 4.015-1.669 5.844-3.049-0.569-4.071-3.165-6.679-4.175 0.028-12.871-9.141-20.861-8.349-31.726 3.851 1.993 7.071 4.618 7.514 10.019 3.29-5.947-3.835-15.813-0.835-22.542 8.638 1.103 3.639 15.842 5.844 23.377-1.498-0.106-1.761 1.022-3.34 0.835 1.923 1.139 3.506 2.617 4.175 5.009 3.565-1.722 2.921-7.654 7.514-8.349-0.258-1.952-1.634-3.45 0-5.01 4.384-0.488 5.602 2.191 5.844 5.845 3.919-1.368 2.881-7.694 8.349-7.515 0.441 0.672 0.871 1.355 0.835 2.505-4.435 6.141-9.391 11.76-10.019 21.708-3.24 2.01-5.15-4.29-8.34 0zm-2.51-0.84c-1.72-0.732-3.75 2.166-1.67 2.505 0.948-1.835 2.792-2.774 3.339-5.009-1.254-0.964-3.516-2.93-4.174 0 2.61-0.92 2.67-0.86 2.5 2.5zm0 4.18h1.669v-1.67h-1.669v1.67z"></path> <path d="m116.89 255.54c-0.743 0.649-1.886 0.898-3.34 0.835 1.037 2.64 2.428 0.158 4.175 2.505-2.054 4.348-6.067 6.735-6.679 12.523-7.506-0.189-3.296-7.261-5.01-12.523-2.211-4.468-11.597-1.761-12.523-7.514 5.991-7.55 20.723-4.91 23.383 4.17zm-9.19 2.51h3.34c-0.102-2.124-1.215-3.237-3.34-3.339v3.34z"></path> <path d="m52.599 373.26c-1.348-0.234-1.437 0.79-2.504 0.835 1.819 0.964 3.04 2.527 5.009 3.34 0.255 1.926-2.412 0.928-2.505 2.505 1.391 1.949 4.535 2.145 6.679 3.34-1.069 6.238-11.7 3.828-13.358-0.835 1.573-1.211 4.339-1.228 5.01-3.34-1.195-0.861-5.166 0.163-6.679-0.835 1.967-3.877 2.146-9.542 7.514-10.019 0.733 1.476 2.646 2.438 0.834 4.175 3.732-0.057 1.064-1.909 2.505-3.34 3.192 0.712 0.621 4.852-0.835 5.844-1.42 0.32-1.576-0.64-1.67-1.66z"></path> </g> <metadata></metadata></svg> 