<?xml version="1.0" encoding="UTF-8" standalone="no"?> <!-- Creator: CorelDRAW --> <svg xmlns:inkscape="http://www.inkscape.org/namespaces/inkscape" xmlns:rdf="http://www.w3.org/1999/02/22-rdf-syntax-ns#" xmlns="http://www.w3.org/2000/svg" xmlns:cc="http://web.resource.org/cc/" xmlns:dc="http://purl.org/dc/elements/1.1/" xmlns:sodipodi="http://inkscape.sourceforge.net/DTD/sodipodi-0.dtd" xmlns:svg="http://www.w3.org/2000/svg" xmlns:ns1="http://sozi.baierouge.fr" xmlns:xlink="http://www.w3.org/1999/xlink" id="svg1887" text-rendering="geometricPrecision" fill-rule="evenodd" sodipodi:docname="Kleines_Stadtwappen_Ueckermünde.svg" xml:space="preserve" sodipodi:version="0.32" shape-rendering="geometricPrecision" clip-rule="evenodd" image-rendering="optimizeQuality" inkscape:version="0.43" viewBox="0 0 202000 242000" sodipodi:docbase="C:\foo\wikipedia\transfer"><defs id="defs1904"> </defs> <g id="g1915"><path id="path1895" style="fill:#000000" d="m64215 1.1516e5c-1027 3550-783 7490 2496 8940-587-2410 98-3910 2397-4770-562 2740 465 3770 1982 4680-294-2050 391-3340 2373-3200 538 2430 2422 3860 4428 4910-538-810-587-2260-98-3260 3279 3620 7511 3810 12869 4190 4208 290 10738 1340 15708 1600-3530 2070-7097 3290-12039 3840-3547 400-6874 500-11718 400-2324-40-7168 1050-9028 5720-734 1860-1981 4010-3498 4610-1468 540-3254 2780-3792 4020-3156-1450-7339-1e3 -8073-850-4257 880-8220 5740-10080 9060-1248 2190-4085 4050-6728 2760-1883-930-1981-3650-978-6560-2740 2080-2055 6560 587 7970 2569 1330 6777 550 9566-2270 2471-2450 6850-4190 9467-3e3 930 430 2398 790 3866 520-392 930-930 2130-1688 2510-1517 760-2373 2520-2594 3810-464 2500-1467 3930-4403 5630 2226-100 3841-100 5627-2700 1321-1880 2691-3720 3645-4310 661-430 2079-880 2520-2200 24-40 391-540 685-640 1052 2580 2373 5580 2177 10320-24 1120-98 3600 441 4800 171 380 122 1640-172 1900-2740 2340-8562 5080-11033 6580-1444 910-4502 3030-5040 3600-3009 3250-6116 980-7070-1120 1541-2240 1981-7460-2177-7340-3499-4860-7805-5270-9737-1690 1834 520 3058 2880 3425 4650-3474 1860-2887 8770 2886 8220-146 100 710 1670 881 1570-1174 960-4257 1670-4673 980-2519-4e3 -7559-3690-8122 860-1835 500-6997 4080-1345 10490-269-2050 1101-3620 2324-3240 1125 5840 7706 5600 9394 760 587 310 2618-50 3499-760-392 380-1297 1690-1346 2050-3621 120-5138 4570-2838 6150-1566 3380 1419 8680 5505 8890-1003-1360-1395-4080 318-5270 3009 1530 7045-1620 4893-6630 391-310 905-1190 1150-1450 978-190 3155-740 4085-1500-3327 3570 98 8370 3572 7440 856 1470 440 3720-294 4330 3156 650 6924-2090 5994-5720 2765-2070 1713-7220-1297-7790-171-1150 734-2430 1615-1770 1639 1200 2911 650 3450-520 2862 500 8685-740 11498-2430-832-170-1933-670-2422-1430 4477 240 10740-1360 15633-4080-1223-360-2080-1070-2569-1980 3107 980 9174-380 11861-2620-4448 140-7139-2220-8485-10200 954 210 2422 570 4037-410-3327-1550-4918-4480-4893-10970 440 460 2373 1960 3841 2030-3254-4840-905-9650 1639-13210 3501-4810 11911-9510 18891-12180 1340-500 3270-760 4840 0-320 1880-3110 6250-4800 7890-2030 1930-4130 5150-4130 9800 0 1760 290 5390-340 6650-690 1310-1890 4750-1080 6770-3600 690-5410 2860-6600 5340-1470 2960-1250 7010 930 10590 1340 2170 1220 5500-400 6670-1730 1220-3010-280-4010-2210-660 3880 3060 6530 7540 3760 2810-1760 2880-4240 1780-8440-510-2e3 -140-5430 3550-6890-70 6870 2810 9010 7950 8130-3200-1810-3820-4410-3300-6080 270-930 830-2170 680-3430 2690 1620 7370 3480 10770 4390 880 210 2590 1450 3180 2450 1170 2e3 3890 3840 5770 4750 690 330 120 2900-220 3260-2490 2740-6090 6200-7830 10370-390 980-1730 290-2100-710 1860-3790 340-7230-3250-6700-3410-4820-8200-5250-10620-1720 2130 790 4030 2390 4520 3910-3670 2390-2220 7510 2230 8850-560 1280-2570 1930-4350 690 240-4960-6880-5150-8520-1600-6190-910-9220 6680-4280 11440 170-2170 2280-3310 3820-2810 760 3820 5530 4820 7460 910 1e3 760 3400 950 5210 640 0 20-910 1360-910 1340-1370-770-4770-580-5840 540-1030 1080-1200 3650-50 4180-3180 4530 900 9200 4330 10390-610-1790 70-4200 1520-5170 2390 2570 7070-1980 6060-5130 690-360 1760-1120 2250-1810 1200 430 3160-240 3990-1500 0 20 420 640 420 640-1690 1690-1400 4080 390 5460 1420 1120 4920 2170 6820-410 690 1030 620 2750-90 3910 3640 670 6160-5340 4450-8080 1470-2210-120-6430-3330-5860-630-1e3 -440-2580 1300-2580 730 0 2130 360 2880 290 1180-120 4310-1500 6190-3080-580 80-1240-380-1370-690 5340-1480 10670-5690 12040-8630-1490 770-3520 580-4920 170 3820-1500 8690-4460 10870-8560-740 330-1500 360-2130 190 1100-2190 1860-4310 3720-6510 2880-3330 5970-6790 5260-12040-2740 3170-7930 5300-12730 5200 2210-1690 3700-4170 3210-7750-2810 3410-5950 4870-9960 4130 1620-1530 2600-4150 1690-6180-1370 2740-3690 3360-5630 3360-4550 0-6020-1690-12030-8100-2380-2500-3720-6510-2720-10060 510-1880 1980-4480 3010-6840 1e3 2710 4090 7840 6870 11080 1500 1770 5830 5320 8810 6490 4530 1760 12550 380 14800-1430 2910-2320 6e3 -5530 6240-12420 150-4770-590-11400-1560-15000-930-3310-2520-10390-2380-12330 170-2430 570-4570 2330-7200-880 4560-200 9660 3100 13210 1770 1930 4460 4100 6510 6250 690 690 1860 2790 1840 4390 1370-1410 1810-3180 1220-6180-560-2810-120-5240 1080-7290 1420-2480 3520-6730 3030-11420-170-1720-2250-5300-3670-6130 1390-290 3380-1600 4260-3080 1020-1780 2080-5789 70-9437-930-1693-1540-4005-1540-5388 0-1096-640-3385-660-3743-250-2241-1930-4839-3820-6651 660 4387-320 8463-2690 11348-2300 2837-6920 7414-5630 13541-7120 480-10390 7220-11350 9130-2710 5360-1470 12250-340 16550 1220 4550 3300 13200 3450 15350 440 6360-1810 10820-5650 11350-5530 760-9670-1670-12720-5580-2820-3550-5900-11180-6490-15710-460-3530-2e3 -10130-3940-12640-3080-3960-11350-8720-16880-11270-2520-3290-4990-6490-7160-10090 5870 6580 8140 8080 11890 7560 0 20-4650-11659-4650-11683 3720 5103 9660 12993 11860 14403-1950-2840-8050-10560-11670-15833 8790 10513 14270 13543 19840 12013-1730-1480-9290-11775-9290-11799 5360 5339 11570 11489 15190 13299-3230-3170-9050-8750-13430-13108 12080 10108 16020 11228 22310 7678-4970-3935-10030-8250-14780-12994 6680 4529 15120 10254 19330 11464-3790-2667-11720-7435-16950-10988 13550 6485 21010 7391 24930 1717-5170-1597-18110-9059-18110-9083 8120 2456 20060 6914 24390 6461-4330-1145-15240-4387-24390-7653 14020 2932 27280 5245 30190-4244-9e3 -1335-16660-3313-24810-5840 10040 524 26670 1478 30590-215-4850-24-20580-167-31510-1001 23920-3219 34030-5317 33680-19025-8710 2742-19200 4387-28620 5746 11010-3290 27280-8034 29970-10490-4190 1264-21580 7248-32250 9989 27620-11324 33180-15067 31730-27034-10760 5387-22280 9464-33590 13016 12530-5721 31170-15210 34720-18953-4230 2384-23710 12612-35740 18262-170-119-350-262-520-405 29730-14900 33960-18667 32350-30468-10210 5602-16490 8916-31950 15043 5330-3886 14280-9226 16240-11610-2940 1526-12260 7867-18200 11682 7850-8273 7850-10371 7340-17237-2420 4196-5750 7510-9400 10490 2450-3362 3820-6818 3920-10990-4380 8153-19670 18356-29560 21074-10560 2909-13840 13208-9e3 23101 3820 7820-6480 19573-16120 17618-3818-787-6582-977-8931-143-220-2479-147-7462 441-9488 415 667 1492 1311 2813 1335-2471-3600-1125-10037 881-15782 636 405 1536 500 2296 405-1489-2837-1636-4887-926-7891 1296-5507 2076-11324-2129-18047 7245-1884 12915-5102 15705-10538-3740 3410-7360 2981-11590 1789-3576-978-6977-287-9472 524 1590-715 3840-1812 6214-5197.1-4086 1811.8-6606 1382.7-9248 1049-3009-405.3-4648-739.1-7486 905.9-2544-1335.1-6679-977.5-8465 548.2-269 239-930 334-1297 72-1688-1287.7-5455-834.8-5944 1502-25 214-832 572-1004 619-4428 1073-11278 4387-13235 13661 3988-3862 11645-4220 14777-4005 1150 71 2275 476 3278 2098 2985-1240 7462 691 8245 2574-5603-2741-10643-1406-16734 1312-4967 2240-6850 3051-10838 1048-2911-1478-8073-1883-10177 811 4697-1550 7315-1049 10593 977 3254 1979 7902 2074 12942-381 2299-1121 7388-1407 11033-620 3425 763 5333 2575 5333 3505 0 1287-1003 1478-2128 1096-6214-2217-11939-4291-19498 310 8e3 167 11278 1907 14874 4721 1395 1072 1541 2527 1468 3289-220 2384-2887 5078-6483 6080 783 882 2300 1049 3327 953-1615 2098-4281 3910-7339 4196-2349 215-6067 2599-7340 4816 1322-477 3646-1025 5260-358-2055 906-3743 1502-6214 1788-9100-8797-20550-22219-21773-28679-538-2909 929-6056 2691-8106 2642 596 4991-3290 2471-5340 2593-3266 2006-8320-2740-8273 1052 1312 856 3409-1199 4911-3841-3981-8832 1026-4917 4888-734 1883-1395 3600-1860 7152-1859-1812-4134-4697-4477-8607 1958-1573 1395-5983-2422-5483-1223-4338.7-7461-6389-10055-1478 1664-501 3083 811 4086 3600-2349 1502-3156 8082 2813 7796 416 1978 2080 5340 4526 7772-1639-239-2789-430-4379-1169-367-4649-5676-4863-6850-572-5749.1 858-5186.4 8606-1370 10275-587-2074 1150-4148 2471-3886 1590 4673 6532 5031 7413 906 1296 596 5235 1574 5725 3719 244 1025-343 2432-1542 3791-2960 143-4232 4601-978 5745 24 2313-1003 3457-3279 3529 2153 2622 6459 1954 8857-1955 2740-358 3327-3648 1247-5746 269-620 514-1192 661-2002 1688 4291 10715 16926 14776 24507-1737 1908-4501 4029-7363 3648 1663 1454 5088 2908 8905-48-1786 2432-3034 5579-5701 8368-2373 2527-7021 4005-10079 668 1884 5674 7560 6412 11621 4434-4600 8487-8538 15088-15486 9154 1908 4602 9076 6394 17418 406-562 6338-1785 9918-6116 11208 6312 310 9199-6750 11670-8133-269 6393-1468 9603-4526 11963 3303-500 5089-3760 5798-3910 930-210 2838-1020 4061-1660-930 1160-1786 1590-2104 1950-1223 1260-1859 2550-1712 4170-2838 2340-5774 4530-8318 6150-2594 1620-5016 2050-6801 270-1273-1270-2863-3200-3939-6490 2006-2410 856-6550-1737-6360-587-2530-5578-5058-8612-1410 1517 70 2789 1100 2911 2430-3645 2340-954 8440 3181 7650-220 2010 856 4130 1761 5440-2177-330-5064-980-6630-2360 318-5250-6801-7440-7877-3080-6532 170-7070.4 5870-5138 9490 734-2120 2838-2690 4061-2e3 563 4720 5187 4430 6630 2380 1444 1200 3841 1740 5407 1630 1443 1230 2765 660 4159 1e3 -2226 930-4697 3430-7242 3790-2862-3560-7437-1840-6532 2210-5113 4130-1688 10420 1297 10920-734-1550 294-3860 1933-4340 2495 3460 7608 720 6923-3190 1175-170 1982-500 2814-1480 2519 480 4012-330 5211-2220 1443 650 3767 290 5211-470 1272 1240 3180 1930 4746 2050-783 3980 5333 4930 6679 3410 1590 1280 538 4600 1027 3950 4110-1190 3817-7550 1957-8460 1346-3650-3278-6290-5504-4170-1370-480-2765-1220-4012-3e3 3278-1150 11327-5150 18005-8660z"></path><path id="path1897" style="fill:#ffe000" d="m26613 1.0574e5c1884 620 3401 360 4453-930 3474-540 3156 4130 538 5320 563 740 734-950 1444 910 1541 3930 2446 4760 4085 6170 2520 2220 4159 2030 7193 20 8342-5500 15021-11510 22556-17589 2569-2050 7413-5436 10667-6246 3205-787 5211-334 7877 1526 2349 1645 3009 5339 2691 8149-147 1430-1541 2050-3865 2290-4135 410-8587 2120-11719 3980-9394 5580-19204 10520-29064 14810 1811 1790 3939 3e3 6581 3980 2985-2070 5432 670 4380 2860-1468 720-2374 1570-2667 2690-3229 2010-5578-230-3817-3690-758 790-1370 670-2568 480-1493-240-2300-650-3988-2170-1884 1400-3816 1330-5823 660-1125 1960-2568 3010-4623 2150-857 1140-1640 1670-2496 1620-1492-90-1712-1860-2862-1550 2789 5080-245 8230-3817 5290-49-2950-1027-4480-2495-5030-930-3690 1541-5120 5089-1690 3474-760 7168-3360 9198-5600-2666-120-4623-530-5871-2030-2153 930-3572 410-4893-1190-807-980 489-1600-416-2360-1443 4170-5089 4840-5823 830 1468-2050 1933-4050 1101-6670 1566-3410 6190-430 5652 3480 2960 1840 6311 2530 9639 2690-1419-2240-3058-4190-2814-7360-3596 660-6507-3580-3523-5800zm19107 14590c4673-3880 10960-6960 15976-10220 5137-3390 12012-5920 16415-10374-1737 4554-10764 7724-16024 11084-5138 3320-10960 6340-16367 9510zm1346-53231c709-739 1443-1478 2202-2193-10642-15973-14263-22434-15633-26176 3107 3123 3547 7914 16293 25580 1321-1192 2691-2217 4184-2956-2716-3099-19156-22243-20551-29371-367-1907 74-4816 1591-7033 1296-1883-1175-1740-368-3362 3059 2718 6533-429 4111-2741-1591-239-3401-1454-3743-3028-2814-2813-6948 310-3230 3815-196 691-1859 5888-2348 9488-3058-2694-4844-5746-5750-8678-685-2241-1932 739-2544-691 4355-2360 4330-6151 587-5674-1174 1454-3229 2193-5211 1955-2177 2288-856 6437 3009 5793 612 2956 3132 7200 6068 10132-2496-95-6581-930-7364-1788-367-3767-3866-4673-5113-811 929 859 2446 3386 1468 5531 97 2694 6042 5793 4697-1883 1199 286 367 1526 2030 2265 2863 1287 5260 2241 5774 4053 563 2050-563 4124-1615 5364-2593-96-3498 3099-1492 3742 2030-381 3645 835 4257 1812 3572 143 3694-3600-343-5340 587-1144 1150 477 1811-596 538-882 929-2479 954-4410 3474 7938 14679 24817 16269 27201zm7461-44104c2007-5054 6704-8439 11499-9369 978 1669 2397 3338 3400 6127 416 1144 270 1549-1272 1406-4354-405-9419-405-13627 1836zm16098-12277c636 262 416 882 416 1501-24 1955 758 4578 1223 6080 367 1192 1248 2097 2520 2789 538 286 3156 2122 4379 2932 1052 692 1884 2027 2227 3290 366 1311 1174 5674 1247 7009 74 1168-342 1812-1296 2217-441 191-3425 1145-4795 2241-857 692-1664 358-2276-381-880-1002-4990-4649-10104-4720 5872-1479 10153 333 13945 1954 1909 811 3548-95 3450-1645-49-1072-905-5292-1395-6794-562-1764-1908-3147-3254-3815-1834-953-4036-810-5577-1168-881-214-1028-739-1003-1716 24-1526-2080-5173-2912-6508-514-835-416-2313 636-3028 636-429 1664-620 2569-238z"></path><path id="path1899" style="fill:#ff0000" d="m84790 10050c3352-1430.2 5676 763 11278-285.8-2250 2121.8-4036 2741.8-5676 3122.8-1516-1263-3376-2360-5602-2837zm-40073 1.6741e5c3009-1600 2789 3980-1052 6650 1639 710 1786-1550 3009 140 1933 2690 5505 2690 7804 360 759-790 3426-2650 5040-3650 1860-1170 6679-3310 11058-6560 2349-1760 1419-3550 587-5e3 -685-1190-415-3440 49-5010 832-2880 49-6150-2030-8700-954-1170-1982-5150-1713-7180 318-2480 979-3880 3229-5120 2300-1270 3108-3480 3597-5010 1101-3410 6679-5320 9835-5080 3767 290 6703 30 10201-310 4820-470 9839-1710 14969-4360 5630 570 6780 3e3 8350 7370-9670 3500-16740 7770-20310 13230-3106 4770-4354 8410-2984 11420-1590-840-3523-2820-4624-4010 2642 6700 171 9820 5480 15190-1908 120-3963-2030-5553-3770 3155 4980 2201 8320 7266 14400-2545-950-3743-2670-4747-4980 123 3650 3768 4960 5114 6460-2789 1670-7707 760-10153-1050 856 1410 2153 3600 3131 4240-783 430-1174 840-3498-1780 514 1520 1419 2760 1957 2430-4355 2410-11988 3530-14067 1310 147 1430 734 3050 1614 3650-2104 850-6262 1830-8587 880-734 2930-2153 1950-2691 930-978-1860-4012 90-3743 1170 710 2790-1639 1470-1565 3020 1051-230 2152-330 3009-20 2544 880 2740 4670 489 5600-1859-1310-4795 50-4746 1270-3083 1280-4795-3370-2031-6010-563-790-1027-3860-685-4200-1052-380-1908 1e3 -2715 2600-269 530-1517 1720-2031 1530-685-240-2226 210-2202 1090 49 1980-1345 220-1884 1320 4282 2760 1444 7580-2030 5910-122-1410-3450-3390-4673-2790-2397-1910-636-5150 3499-4840 73-1930 1883-2050 1712-2960-147-810-612-1860-1394-2430-954 980-2031 1620-3499 1670-1639 50-881-3270-2593-3100 2936 6870-5725 8680-6336 4010 1639-340 832-6130-1003-7230-294-3860 4354-3530 6311-860 1517 2030 5676-40 6851-950-637-450-1517-1860-1664-2740-4110 1190-6410-4130-3180-6530 2642 1020 4697 690 5822-1620zm1.437e5 -94197c2670 4434-880 7867 2570 12707 2230 3099 50 9230-4040 10230 3040-1770 4600-6030 2890-9706-1640-3504-2250-4696-1e3 -10132-2180 5364-1590 6342-80 9322 1840 3671 790 8296-1880 9346-1810 710-3130 430-4920-930 390 600 790 1170 1200 1740-340 260-680 520-1e3 790 390 400 780 810 1170 1190 3820 240 6540 2670 6730 8750 200 5810-3790 6050-3940 11080-2400-4790 6880-10010-220-15990 3500 3830 1670 7480-50 11560-2690 6290 1910 7130 1030 11420-860-1580-4620-4600-6780-6610-6990-6460-4150-16110-140-17760-710 1200-1180 2530-1450 3770 690-500 2250-3960 4260-4650-7020-2620-14140 3940-11280 15590 1640 6680 4380 15980 4380 20220 0 11870-3890 17070-12650 17190-7580 90-10370-2410-15380-7680-2990-3170-4870-6650-6590-11230 1670-3880 860-10530-1100-12700 1640 6550 470 10920-1780 15280-2380 4580-4330 11320-660 15520 2830 3290 5700 6550 9730 8910 2670 1580 6930 1120 9670-970-490 1760-1640 3020-2940 3950 3570 1240 7830 550 10910-1950-580 2690-2540 5010-4940 6220 5680 290 10550-950 14260-3620-1440 2570-4990 4480-9540 5030 2520-50 6120 90 7860-1500-5700 6890-5900 10510-8200 13370 510 0 1030 0 1570 20-1810 1960-4650 2600-7930 2720 1220 360 2620 550 4310 310-1720 1530-4290 3150-8030 4910 1470 930 2960 1430 4480 1480-2130 2720-5920 4510-10640 5820 340 620 930 1140 1320 1450-1280 550-2650 1380-3990 1600-1200 190-2470-760-3620-450-1960 520-3480 3500-2060 5480 3260-980 5020 2070 3550 3910-2840-20-3860 810-4700 3910-2590 2500-7430-640-3130-4960-950-620-1760-1600-2440-2910-1350 3080-3480 4200-5170 2510-730 830-1560 1160-2170 1690-980 860-2060-620-2500 0 3890 2670 1350 8170-1910 6790-1270-3290-3320-5240-5700-5340-2540-2140 1620-5290 6270-2430 410-500-930-380 20-1740 680-980 1660-2190 2400-3170-1080 120-2400 710-3430 640-1120-70-2400-470-3350-1020-930-530-420-1500-1030-1650-1810 6510-6240 5460-6550 1790 1460-1260 1340-6700 220-7600 1680-3370 8560-2080 6060 3290 880 280 740-1120 1180-980 2250 810 5580 740 6090-2270-4890-1470-5850-6e3 -3200-7290 2070 1120 5350 400 6110-2100 2840-910 4040 5250-610 7060 490 1090 1760 0 2250 470 1710 1630 3550 460 4040-970 1170-3410 3960-6230 6360-8920 810-910 1860-2460 2490-3550 760-1310 350-2310-800-2840-2920-1330-2790-1240-6270-5390-930-1090-2100-1710-3840-2260-5040-1600-10790-4510-14210-6960-1930-1390-2030-1790-2450-4100-560-3080 520-4080 560-7110 50-2550-460-5240-20-7750 560-3170 1420-4480 3820-6910 2340-2360 4960-6010 6230-9540 980-2760 1130-5960 400-8740-860-3220-1940-6130-3970-9230-11840-450-14900-3220-21844-9200 3574 5290 11744 10560 19204 11940 2570 480 4940 3700 4920 6340-50 3630-2280 3820-3770 2910-4110-2430-9760-4310-13720-4620-6830-530-28628 1160-27258-6820-685 1190-1712 3140-1712 4430-979-880-2104-2980-1517-4840-563 290-1443 1410-2715 1030 122-930 1321-810 1712-1860-1982 710-3254 1690-3523 2720-563-410 391-3170-734-4200-929 2770-3523 2530-3963 4170-416-2480 709-6120 7095-10250 2128-1380 8073-2860 9834-2960 1737-70 3328-70 4869-640 1908-710 2373-1670 2324-3720-73-2600-1835-5767-2373-6912-734-1597-4575-2122-7609-2455-3033-334-7266 500-11987 3457-1688 1072-7682 6720-13969 11970-245-1960 1149-2860 2715-3910 1150-770 2153-1930 2862-3550-1076-340-1639 40-2079 400-954 790-3425 1980-5407 2480 979-2190 2324-2910 3450-3290 1688-570 3376-1740 3058-3648-832 1431-1615 2478-3327 3028-1370 430-2789 1720-3841 2880 562-5574 709-6646 5015-9197-1444-2313-5015 71-7290 1668 1076-2431 3180-4648 6532-4100-2692-1311-4380 119-6019 1836-1125 1168-2104 4076-4403 8393 1614-10801 4256-12947 9174-15498-3548-2861-7511 5412-9639 6675 1565-2980 4232-8296 7290-9154-3841-215-5455 4768-7902 8654-1688 2694-4501 4720-9101 4267 7046-4124 8147-10752 10863-12993 1174-953 5309-4625 7633-5888-3646-1836-6459 3194-9199 5245 3180-3552 5260-7868 12159-7724-3156-1073-6557 572-8979 3289-2348 2671-5822 6270-10373 4172 3719 215 6973-3957 9639-8630 906-1597 3058-3313 4722-3385 1835-95 4501-954 4991-3123-2862-310-5236 1240-7878 1859 1199-1430 4037-3194 8049-3528 2765-214 6777-191 8171-2503-2348 1502-5382 1979-8342 2074-2985 95-5921 1144-7829 2861-2104 1907-2862 3480-6899 3266 2838-930 6190-4363 8710-7176 929-1025 4330-2932 8269-3504 3351-477 6899-2361 9369-3767-2422-143-4868-286-7314-453 1786-2026 3694-2289 5920-2622 4281-692 5676-4339 8245-5889-588 95-1224 71-1860-167 2178-1740 4086-5268 2936-8225 2128-2121 5480-2789 6703-3576 979-596 1150-1263 1003-2646-244-2503-1101-5173-1614-7629-392-1788-979-2336-2349-3218-1419-882-2887-1764-4550-2718-1590-906-1933-2002-2349-3099-489-1264-930-3147-685-4887 196-1383 1028 214 1664-620 1614-2193.5 4868-2551.1 7828-1288 441 167 416 96 1028 72 2495-143 5431 1073 7902 3242-1639 763-3303 96-3768 1216 1150 0 2471 238 3548-238 3718-1741 7510-2456 11354-1622 3420 763 5550 1479 8630 644-4110 3266-8660 7152-18932 6985-1566-23-1590-310-1860-763-1027-1835-3033-2050-4134-1358 1394 214 2471 619 3180 1764 1468 2288 5260 1692 7609 1287 3967 4720 3400 10943 2471 16021-392 2241-808 4768-74 6961-685-334-1296-739-1761-1454 73 2646 856 3385 416 4887-1199 3886-2349 8010-1493 12015-636-262-1296-715-1761-1192-1541 3934-1125 8154-563 12135-1541 596-2055-3958-2030-6175-783 2337-392 4768 122 6914-2177 1025-4452 2241-6116 3957 6312-3313 11302-2479 17886-1120 9420 1979 27030-4268 24460-16974-4520-4625-6110-21814 5730-24794 11300-2837 20640-10585 29160-19406 1220 7438-8810 13923-16120 19263 19270-7819 32830-13756 42220-18857 1400 11729-8360 16092-32120 27726-1150-549-2200-1026-3400-1431 1300-1406 2760-2765 3280-4673-1080-810-2570-1335-3870-1716 10380-4196 26520-10156 31420-14209-6150 3314-23340 9965-34890 14590 2e3 263 4180 596 5550 1598-930 1931-2790 3457-4890 4148-1300-715-2720-954-4110-1121 190-190 410-476 610-691 880-71 1760-429 2620-715-610-24-1540 95-2150 119 610-691 1390-1716 1780-2694-1830-739-3840-1311-5800-1430 1450 643 3010 1049 4380 1883-1200 1740-3080 3385-5110 4220 2270-24 4600-48 6750 882-760 2455-2810 3004-4350 4172 2270-119 4230-1717 5350-3576 3060-119 5950 906 8400 3004-1130 2193-4770 3910-7320 4815-1540-1120-3300-2193-5190-2884 1940-477 4680-859 5970-1431-1510-95-4280 477-6480 644-100 358-340 739-440 1073 1810 953 3650 1716 5210 3051-1220 1240-3110 2194-4770 2718 200 477 510 882 730 1335 2350-286 5850-548 6980-930-1200-286-4190-23-6240-71 1470-596 3110-1502 4280-2837 2400 429 5480 1287 6900 3123-1860 2980-4600 3671-7760 4553-1100-1287-2520-1883-3890-2455 0 143 0 286 30 429 1100 715 2220 1311 3110 2575-1250 1478-2080 1645-4260 1716-50 191-100 358-150 525 1050 190 2200 214 3160-48 70 238 120 334 220 548 2030-23 5380 334 6190 24-930-262-4260-548-6020-715 680-429 1520-1073 1980-1812 4090-644 7850-310 10010 3433-1230 2551-6140 3934-9940 3552-1190-1549-2030-2717-3540-3409 800 978 2e3 2241 2420 3290-1320 429-2810 286-4310 0 1740 906 2960 1168 4800 644 2790 429 5720 2098 7070 4601-2570 2050-6850 2169-10450 1502-760-1597-1930-4053-2910-4387 490 1240 1370 2456 1590 3791-2150 238-3400-620-4180-644 980 1121 4110 1431 4550 1764 1930 1502 3670 2480 5430 5269-3230 2456-7240 2765-10910 1311-170-1693-1130-3695-2250-4529 360 1406 1390 2503 1220 4315-930-96-1880-596-2790-835 220 715 2570 1621 2840 1860 1320 1096 2150 3838 2570 6246-3230 1240-4530 95-9960-2932 1420 3385 1220 5960 780 8153-2370-501-3670-2313-4720-4387 270-953 320-2145 170-3337 590 953 1400 2717 2080 2980-50-573-1320-3004-1910-4649-310 167-800 143-1100 286 100 1025 370 2742 30 3767-1490-429-4210-3028-4890-3171 240 596 2710 2861 4180 3981 390 2575 70 5245-1300 6938-2270-334-3790-1812-5280-3672 240-1549 120-2956-120-4458-220 0-470-191-670-191 270 1359 300 2694-40 3839-1200 95-2180-1669-3140-1860 0 453 1350 2027 2550 2909-70 1525-270 3170-810 4410-2570-644-4450-2575-6070-5316 100-1264-120-3767-410-3910-340 691 20 2789-590 3385-1270-143-2350-1835-3110-1955 200 930 2280 2909 3230 3076 100 1526 200 3361-360 4601-2960 381-5530-2789-6730-5746 780-715 680-3599 390-3790-320 357-240 2408-680 2479-930-48-2280-2217-3087-3528-539 48-979-238-1419-596 195 1573 1150 3934 1636 4053 0-477-707-1621-535-2647 293 191 1545 2551 3135 3767 0 1621-270 3242-740 4315-2640-262-4695-3075-5674-6079 1126-1097 808-3171 612-3481-318 430-220 2194-758 2647-906-96-1419-1121-2129-1693-122 381 905 2002 1639 2432-171 1382-562 2646-1223 3480-1982-262-3547-2980-4991-5006-269 167-562 334-880 262-123 572-392 1264-710 1574-2226-620-3719-4912-4355-4745-73 429 2398 4959 4086 5555 1003 2885 3547 8034 6507 8082-513-1502-807-4506-831-5078 293 143 660 381 1003 453 783 2503 2030 7462 2373 7629 171-358-1639-7248-1541-8082 97 24 440-477 587-811 2006 9703 5355 13729 9005 13609-220-450-590-1640-790-2190 6220 4220 13170 8060 20040 11400 4110 1980 8290 4260 11820 7150 4430 3670 5820 6340 6750 11130 1980 10110 4400 15280 9300 21360 2660 3340 7630 5580 11960 5200 4750-430 8100-5820 7310-13060-660-6180-3150-12760-4230-18120-2840-14310 6850-22340 12550-21340-830-2310-930-4983 570-7390-30 667-130 1311-80 1954 2060-6293 7190-10418 8440-16211zm-82470-68135c-1760-286-3350 406-4770 429-1222 24-2739-190-3888-143-8392 429-8979 3195-3841 3672-245-2146 2397-1383 4354-3100 3035 239 5575 310 8145-858zm52870 29633c11420-3552 22160-7581 32370-12158 3320 10966-11280 16140-33320 25247-810-501-1940-835-2940-978 1910-1025 3520-2455 4160-4315-910-1192-2620-2193-4500-3004 11350-3552 30040-9965 31850-11991-2810 834-19130 7628-30600 10513 1170-882 2660-2336 2980-3314zm1030 14495c10320-1478 20770-3171 30650-5602-460 11920-8270 13517-32290 16616-930-1740-2330-3385-4060-4196 2520-500 4720-1072 5890-2074 8690-1311 23560-4315 24860-5507-2300 0-15800 3338-23660 4458 200-357 390-691 610-1025-440-977-1240-1883-2e3 -2670zm-4500 13160c10660 3266 20720 5674 26930 6699-3620 7414-17220 5841-33520 1144 1110-477 2870-1335 3410-2217-300-1335-1110-2479-2130-3528 11010 3671 20740 6484 22720 5292-2520-238-10520-1788-23070-6699 3060 239 4290-47 5660-691zm-10060-5769c4180 1168 6530 1835 6900 2407-640 72-2910-548-7070-1978 70-143 120-286 170-429zm-5820 6269c4920 2671 7120 2742 7440 3243-710 262-3600-811-7610-2670 70-191 120-382 170-573zm7360 8106c10840 6103 19670 10871 23050 11944-6220 6198-17250 548-28090-6103 320-215 860-334 1150-525 30-858-560-2860-1150-4553 9470 5960 16710 10132 17980 9536-1390-1097-7090-3457-17610-10704 1740 405 3690 620 4670 405zm-6850 6270c5900 5364 11750 10561 17640 15948-3940 3770-12940-1e3 -24070-11657 540-1502 340-3647 100-5960 7310 7415 14010 13708 17070 15047-1440-1768-7630-6584-14530-14165 1570 692 2790 859 3790 787zm-6020-8606c1350 1692 3010 2741 3040 3242-830-95-1960-1025-3280-2479 100-263 170-525 240-763zm-2200-978c910 1192 1490 2909 960 3910-1540 477-2350-620-3450-1120 880-215 1760 620 2810 262 220-715-340-2050-320-3052zm200 14686c3810 5722 7780 10986 11130 14636-5040 1070-11820-4480-17200-12324 640-1025 1270-2264 1810-4124 3500 5817 6680 10868 8540 12038-690-1640-4400-6030-7050-12110 1200 1073 2130 1526 2770 1884zm-9250 1764c2010 5436 3910 10202 5280 13402-3860 400-8880-5080-13380-12925 1130 667 2450 1263 3750 1383 240-501 460-1479 610-2122 1980 4792 4080 8654 5430 9894-200-1500-3350-6294-5140-11396 50-358 100-930 120-1311 1030 1096 2550 2694 3330 3075zm-1610-10251c610 2336 1390 4053 1290 4553-540-405-1290-2002-2130-4386 300-72 570-120 840-167zm-7030 1573c540 2003 1400 3624 1350 4220-510-477-1300-2074-2130-4172 270-24 540-48 780-48zm-7780 119c350 1931 1030 3314 1010 4029-420-238-910-1573-1570-3981 200-24 390-48 560-48zm-13647-2813c98 978 416 2504 392 2980-367-596-661-1692-905-3099 171 48 342 95 513 119zm-1223-786c0 929 0 1716-294 2336-1370 48-2691-1001-3204-2313 978 763 1957 1645 2617 1645 539-357 710-1096 881-1668zm-4893-3004c122 596 98 1144-98 1621 196 1120 539 2193 881 3171-489-453-979-1550-1590-3529-538-310-808-1740-1077-2980 392 954 905 1884 1370 2217 196-95 367-262 514-500zm2813 7032c1322 1955 2251 3076 3230 3934-49 1383 147 2909 367 4220-1639-119-3303-2932-4428-6699 269-358 562-835 831-1455zm13950 6390c2470 4744 4840 9062 6530 11082l-2500-1670-4250-8435 220-977zm8040 1096c2400 6294 4990 12446 5880 13996-5410-860-9230-7300-12380-14568 1710 1335 3400 2313 4790 2432 1370 3361 2500 5766 3650 6796-910-2171-1790-4579-2690-6772 440-406 660-1264 750-1884zm-8780 406l3940 7600-2740-1616-1690-6008 490 24zm-1200-96c660 2742 1320 5626 2010 8366-2370-360-5212-4528-6925-13134 979 1145 2643 3052 3625 4172 220 1478 530 2003 1e3 3052-120-811-170-1884-290-2694 190 143 390 119 580 238zm-7166-45677c1199 3313-1712 5721-464 9798-1884-3886 685-6318 464-9798zm-14752 11896c-1394 3051-3058 2002-4966 3147 2349-1884 587-6580 5236-10061 171 739-3303 2456-3328 8702 1590 310 2373-2003 3058-1788zm-4159-6342c-2691 2599-3767 2909-7608 3052 2691-620 5284-1621 7608-3052zm-5945 17404c-3327 4649-7926 3671-10568 4053 2055-1693 1908-4435 6385-6938 98 882-3865 2527-4061 5793 4208 1097 7584-3218 8244-2908zm-1614 16711c-612 1574-1810 2790-3523 3314-1761 525-2740 2432-4135 3648 612-4196 147-5674 3352-7677-73 787-2911 1955-2348 5603 1027-239 1198-1860 2984-2146 2031-334 2985-2432 3670-2742zm391 8058c-1663 740-2104 1312-3327 1479 2618-1955 2838-5651 5872-6461-2129 1573-2471 3075-3597 4720 294 215 710 286 1052 262zm28746-67920c1223 2336 759 4816 416 7104-293 2027-930 4339 49 6247-1737-1598-979-4268-563-6318 465-2336 539-4601 98-7033zm90449 73146c-790 2240-2600 2740-4800 2780 1740-710 3330-1620 4800-2780zm-1.0899e5 16210c807-1220 6801 0 7486-8060 98-1290 2300-310 1835 860-2080 5070-5113 7630-9321 7200zm7094 2880c1028-1690 5285-500 6753-8630 171-950 1786-400 1492 570-1859 6110-6556 8590-8245 8060zm5432 530c905-790 6140 230 6825-6750 122-1260 1884-410 1615 670-1443 5720-6679 7410-8440 6080zm28277-12260c-1780-2740-4300-8652-6850-14636 3210 5698 6120 11496 10600 16616-1250-670-2500-1330-3750-1980zm-45256-93546c905-4387 3523-4911 6239-4149 2348 668 3767 3577 4697 6103-1639-286-2373-4601-4966-5340-4257-1216-4624 2623-5970 3386zm10446 2408c-3106-978-3033-5007-6042-4888-1908 72-3009 1288-2960 3123 48 1621 1198 2647 3033 2575 1223-48 2031-572 3132-1573 1174 1049 2006 1192 2837 763zm-22898 67443c-1101 1121-3866 525-6997-405 1786-882 2471-4506 8195-6389-293 1501-3645 905-6262 5864 2593 1860 4599 405 5064 930zm33565-12564c3841-2193 9933 2194 17443-1835 6510-3457 12310-10109 7140-21504-3740-8273 960-15329 9590-18166 15930-5245 25620-14948 27210-17380-1620 7367-12700 16331-21650 18500-9670 2360-13900 11444-9640 23793 2790 8105-3180 15806-12180 17975-8130 1955-15784-1406-17913-1383zm-47926 85679c1199-1170 2765-4690 5676-7530 3792-3700 6801-4890 12379-3120 2642 830 1199 5690-2447 4740-3767-980-5773-1140-8685-20-3082 1190-4917 5860-6923 5930zm5871-3980c1762-1980 3939-2220 5994-1860 2006 360 3939 1150 5431 790-1370 1450-2422 1050-5480 90-2666-830-5284 1050-5945 980zm7389 8680c0-4530 3058-4220 4208-7420 416-1140 1786-500 1639 410-440 2690-1517 2500-2520 3270-2667 2050-2593 3570-3327 3740zm44499 30300c3890-1720 3770-5100 1200-9870-2590-4840 200-11750 4010-12660 2420-570 2910-170 3720 950 830 1170 470 3490-1030 4410-2560 1630-5770 3220-3230 9330 2740 6600-3370 9220-4670 7840zm4990-9820c-490-220-980-3650 790-5130 1760-1480 3250-1690 3980-3100-490 2150-1290 2700-3250 3960-1250 830-1270 3580-1520 4270zm9810 2100c-2300-200-3450-1720-4180-5270-250-1290-250-2820 290-3980 470-1010 1350-620 1720 350 440 1170 310 2410 70 3750-470 2360 1120 4240 2100 5150z"></path><path id="path1901" style="fill:#ffffff" d="m78796 13412c465 0 857 405 857 906 0 500-392 882-857 882-464 0-856-382-856-882 0-501 392-906 856-906zm-2348 1502c391 906 880 1645 1712 2217-587 95-1150 143-1614-358-465-501-294-1263-98-1859zm-66886 20502c-440.3-2527 367-4244 2837.5-4959 734 573 1052 1216 1126 2003-1762-24-3009 1335-3963.5 2956zm2055.5 83294c0-3720 1614-5380 4770-5100 489 500 636 1190 441 2270-2471-550-3866 1e3 -5211 2830zm5562 19050c-685-1670-595-3680 1337-5340 734 210 1663 1070 1737 1930-1419 690-2315 2030-3074 3410zm20027 35450c1738 310 3597 1380 4062 4790-441 410-1444 220-1860 0-391-2210-1198-3720-2202-4790zm-10250 22820c-171-1840 24-3670 2764-4890 245 260 392 570 441 910-1395 40-2324 1970-3205 3980zm13431 13780c-636-1220-783-2410-391-3600 684-150 1345 120 1932 780-832 290-1248 1430-1541 2820zm63383 1190c220-2840 740-5700 5630-5320 170 360 170 620 100 860-2400-600-4380 1340-5730 4460zm11940 15900c-950-1620-1200-3460 130-5750 410 30 730 190 1050 500-930 1600-1150 3370-1180 5250zm-1.0165e5 -2.163e5c1766-233 4015 713 5159 3967-350 352-1372 373-1823 356-831-2099-1902-3827-3336-4323zm24184 622c1010 1431 1668 3382-798 5842-481-146-1123-958-1217-1335 1854-1668 2346-3037 2015-4507zm-15384 42001c1906-49 3186-418 3914-3057-725-584-1040-642-1868-643 27 1630-396 2938-2046 3700zm31560 84481c1314-1150 1114-2710-282-4720-610 260-782 630-950 1300 1022 1070 1405 2180 1232 3420zm-29033-35840c1844-210 2868 680 3819 2790-598 290-1409 290-2029 0-354-1530-684-2150-1790-2790zm34268 1.0834e5c1551-820 1917-2950 1040-5220-653 110-1004 430-1326 1040 737 1280 751 3010 286 4180zm58055-17800c1750-250 4020 860 5580 3940-280 530-1370 90-1910-90-1100-1980-2360-3150-3670-3850zm24060 33330c1490-920 1310-3370 270-5580-640 150-780 840-1050 1470 820 1220 1160 2910 780 4110z"></path></g> <metadata></metadata></svg> 