<?xml version="1.0" encoding="UTF-8" standalone="no"?> <!-- Generator: Adobe Illustrator 12.0.1, SVG Export Plug-In . SVG Version: 6.00 Build 51448) --> <svg xmlns:rdf="http://www.w3.org/1999/02/22-rdf-syntax-ns#" xmlns="http://www.w3.org/2000/svg" xmlns:cc="http://web.resource.org/cc/" xmlns:xlink="http://www.w3.org/1999/xlink" xmlns:dc="http://purl.org/dc/elements/1.1/" xmlns:svg="http://www.w3.org/2000/svg" xmlns:inkscape="http://www.inkscape.org/namespaces/inkscape" xmlns:sodipodi="http://sodipodi.sourceforge.net/DTD/sodipodi-0.dtd" xmlns:ns1="http://sozi.baierouge.fr" id="Layer_1" xml:space="preserve" overflow="visible" viewBox="0 0 543.458 352.71"> <g clip-rule="evenodd" fill-rule="evenodd"> <path fill="#FFFFFF" d="m113.08 29.22c1.716-0.299 1.829 1.004 3.187 1.062 0.42 2.062-4.84 1.551-3.19-1.062z"></path> <path fill="#FFFFFF" d="m160.88 35.594c1.715-0.299 1.83 1.004 3.188 1.062-0.203 0.861-1.066 1.06-1.063 2.125h-2.125v-3.187z"></path> <path fill="#FFFFFF" d="m71.646 52.592c5.663-0.705 9.465 0.451 11.685 3.187-1.203 2.484-7.008 0.735-7.436-1.062-2.45-0.325-1.18 3.069-3.187 3.187-11.273 1.836-22.311 9.551-28.685 12.748 1.267-7.442 13.747-18.582 27.623-14.873v-3.187z"></path> <path d="m90.769 65.34c4.274 0.33 9.753-0.546 10.623 3.187-4.272-0.329-9.752 0.547-10.621-3.187z"></path> <path d="m81.207 67.465c-0.13 3.935-1.546 2.673-4.249 2.125 0.256-1.869 1.828-2.423 4.249-2.125z"></path> <path d="m103.52 68.527c-0.339-1.875 5.951-1.896 4.25 1.062-1.91 0.135-2.24-1.299-4.25-1.062z"></path> <path d="m114.14 68.527c0.186 1.733-6.95 2.145-5.312-1.062 2.46-0.339 4.08 0.17 5.31 1.062z"></path> <path d="m88.645 68.527c2.707 1.542 9.19-0.691 9.561 3.187-3.337-0.912-10.984 2.484-9.561-3.187z"></path> <path d="m83.332 73.839c-1.268 0.386-16.032-0.375-15.936-2.125 0.118-2.106 13.192-1.583 15.936 2.125z"></path> <path d="m103.52 70.651c3.042-0.208 5.798-0.131 5.312 3.188-1.85-0.982-5.7 0.036-5.31-3.188z"></path> <path fill="#FFFFFF" d="m138.58 70.651c2.318-0.192 3.38 0.87 3.188 3.188-2.33 0.192-3.39-0.87-3.19-3.188z"></path> <path d="m54.648 72.777h2.125v2.125h-2.125v-2.125z"></path> <path d="m90.769 72.777h2.125v2.125h-2.125v-2.125z"></path> <path d="m64.209 73.839c1.092 3.57-3.303 1.654-5.312 2.125-1.09-3.57 3.305-1.654 5.312-2.125z"></path> <path fill="#FFFFFF" d="m141.76 75.964c6.675 5.453 18.574 11.052 15.936 22.31-4.817-1.818-5.89-8.045-8.5-11.687-2.49-3.473-7.38-5.581-7.44-10.623z"></path> <path fill="#FFFFFF" d="m33.401 78.088c2.847 0.828 4.239 0.352 1.062 3.188-1.246-0.172-0.897-1.938-1.062-3.188z"></path> <path d="m62.084 82.338c-2.456 2.386-10.006 0.852-12.749 0 1.336-4.013 9.304-0.484 12.749 0z"></path> <path fill="#FFFFFF" d="m136.45 122.71c-5.63 0.833-3.1-3.894-4.25-6.374-4.476-9.655-11.569-17.626-20.185-23.373-1.807-0.39-2.004 0.83-2.125 2.126-2.964-1.641-7.162-2.045-7.438-6.375-8.087-0.844-14.405-2.631-22.31-1.062-1.964 0.16-0.652 3.598-2.125 4.25-3.555-4.659-8.193 1.15-11.687-1.062 11.669-14.587 44.691-6.102 55.245 4.25 1.887 1.851 5.507 5.937 7.436 8.499 5.98 7.96 7.38 12.03 7.43 19.12z"></path> <path fill="#FFFFFF" d="m125.83 84.463c4.545-1.119 12.983-2.903 13.812 2.125-2.72-2.598-11.1 0.473-13.81-2.125z"></path> <path fill="#FFFFFF" d="m490.22 83.4c2.061-0.421 1.553 4.839-1.062 3.187v-2.125c0.9 0.196 1-0.413 1.06-1.062z"></path> <path d="m51.461 84.463c-0.256 1.869-1.828 2.421-4.25 2.125-1.071-3.196 2.368-1.883 4.25-2.125z"></path> <path d="m59.96 87.649c-3.246 0.768-3.872-1.085-6.374-1.062 0.045-3.195 7.541-3.085 6.374 1.062z"></path> <path fill="#FFFFFF" d="m523.16 84.463h3.188c-1.074 9.045 4.227 16.773 2.123 23.372-3.99-5.58-3.65-15.479-5.31-23.377z"></path> <path d="m54.648 90.836c-5.899-0.121-9.778-2.262-15.936-2.125 2.155-3.65 14.722-1.962 15.936 2.125z"></path> <path d="m142.82 90.836c1.09 3.57-3.304 1.655-5.312 2.125 0.593 2.167 3.195 2.083 1.062 4.25 0.678 2.155 4.967 0.699 5.312 3.187 1.353-0.241 1.392-3.171 0-3.187 1.376-2.433 6.451 3.934 4.249 5.312-4.967-1.761-12.948-0.509-16.998-3.187 0.329-1.442 2.66-0.881 4.25-1.062-0.02-3.522-6.003-1.079-7.436-3.187-0.391-1.807 0.828-2.005 2.125-2.126-1.088-2.452-7.113 0.03-6.374-4.249 6.42 0.68 12.53 1.651 19.13 2.127zm-6.37 2.125c-1.436-0.334-2.029-1.512-4.25-1.062-1.7 2.958 4.59 2.937 4.25 1.062z"></path> <path d="m52.523 94.023c0.031-0.457-15.789-0.276-15.936-2.125-0.114-1.45 13.051-1.754 15.936 2.125z"></path> <path fill="#FFFFFF" d="m318.12 92.961c-0.129 3.284-7.334 1.951-7.439-1.062 2.28-2.293 5.94-0.544 7.44 1.062z"></path> <path fill="#FFFFFF" d="m62.084 91.899c3.608 0.458 2.473 6.929-2.125 5.312-0.91-3.389 1.673-3.285 2.125-5.312z"></path> <path fill="#FFFFFF" d="m132.2 91.899c2.221-0.45 2.813 0.728 4.25 1.062 0.34 1.875-5.95 1.896-4.25-1.062z"></path> <path d="m50.398 96.148c-2.434 4.692-10.525 0.101-14.873 0 2.378-3.888 8.761-0.451 14.873 0z"></path> <path fill="#FFFFFF" d="m310.68 98.274c-14.752 3.307-19.906 16.212-29.744 24.434-1.928 4.094-3.295 8.745-8.5 9.562 1.342-5.742 7.336-6.831 6.373-14.874 2.9-0.096 2.139 1.769 4.25 0 0.137-1.905-1.299-2.241-1.061-4.249h4.248c-1.223-1.256-1.201-3.756-1.062-6.375 8.39-1.71 18.28-19.091 25.49-8.506zm-24.44 12.746h2.125c0.059-1.358 1.361-1.47 1.062-3.187h-3.188c0.01 1.07 0.01 2.13 0.01 3.19z"></path> <path fill="#FFFFFF" d="m88.645 97.211c-0.149 3.039-4.432 1.942-7.438 2.125 1.025-2.162 4.08-2.294 7.438-2.125z"></path> <path fill="#FFFFFF" d="m371.24 97.211c1.307 0.463 2.182 1.359 2.125 3.187-3.69 0.92-3.64-1.636-2.12-3.189z"></path> <path fill="#FFFFFF" d="m79.083 99.336c-1.133 2.408-3.222 3.86-6.374 4.25 1.398-2.15 3.488-3.599 6.374-4.254z"></path> <path fill="#FFFFFF" d="m403.11 128.02c-8.061-7.52-12.717-18.446-24.436-22.31-0.561-0.854-1.107-1.725-1.061-3.187 1.889-1.983 2.699 0.863 6.373 0v3.187c11.45 2.74 18.69 11.63 19.13 22.31z"></path> <path d="m134.33 102.52c2.132-0.361 3.324 0.218 3.188 2.125h-3.188v-2.12z"></path> <path d="m139.64 102.52c2.82 1.78 6.043-2.041 6.374 3.187-3.969-0.096-3.028-1.191-6.374 0v-3.19z"></path> <path d="m327.68 102.52c2.318-0.193 3.381 0.87 3.188 3.187-2.32 0.19-3.39-0.87-3.19-3.19z"></path> <path d="m150.26 106.77c-0.854-0.562-1.725-1.108-3.187-1.062 0.33-2.92 3.69-2.24 3.19 1.06z"></path> <path d="m340.43 103.58c1.418 1.769 6.02 0.356 7.438 2.125 0.37 2.73-8.67 2.4-7.44-2.12z"></path> <path d="m348.92 104.65c1.854 0.981 5.703-0.036 5.312 3.187-3.03 0.2-5.79 0.13-5.31-3.19z"></path> <path d="m31.276 105.71c4.236 1.077 11.258-0.634 12.748 3.187-4.996-0.32-11.542 0.92-12.748-3.19z"></path> <path fill="#FFFFFF" d="m121.58 105.71c2.462 0.297 2.441 2.838 1.062 4.249-2.46-0.3-2.44-2.84-1.06-4.25z"></path> <path d="m136.45 105.71c2.317-0.193 3.379 0.87 3.188 3.187-2.32 0.19-3.38-0.87-3.19-3.19z"></path> <path d="m317.05 105.71h6.375c-0.35 3.19-1.625 5.459-4.25 6.374 1.48-4.3-2.3-3.36-2.12-6.37z"></path> <path fill="#FFFFFF" d="m16.403 107.83c-3.221 3.93-3.579-3.22 0 0z"></path> <path d="m140.7 106.77h2.125v2.125h-2.125v-2.13z"></path> <path d="m152.39 108.9c-3.23 3.92-3.58-3.23 0 0z"></path> <path d="m286.24 107.83h3.188c0.299 1.717-1.004 1.829-1.062 3.187h-2.125v-3.19z"></path> <path d="m343.61 108.9h6.375c0.22 4.07-6.15 3.56-6.37 0z"></path> <path d="m32.338 109.96c4.274 0.33 9.754-0.546 10.624 3.188-4.274-0.33-9.754 0.54-10.624-3.19z"></path> <path d="m355.3 109.96c1.715-0.299 1.83 1.004 3.188 1.062 0.42 2.06-4.84 1.55-3.19-1.06z"></path> <path d="m370.17 126.96c-1.521-1.554-0.814-3.367 2.125-3.187-2.705-2.253-8.693-1.224-11.686-3.187 3.896-3.978 10.018 0.896 16.998 0-2.434-5.002-14.652-0.221-16.998-5.312 5.174-0.715 7.045 1.87 10.623 0-0.271-2.207-4.668-0.291-5.311-2.125 0.799-3.957 5.963-0.582 8.498 0 0.299 1.715-1.006 1.828-1.062 3.187 6.785-0.411 7.611 5.138 12.75 6.374 0.178 2.304-3.77 0.482-5.314 1.062 1.09 2.452 7.113-0.03 6.375 4.249-3.895 0-8.203 0.415-7.436-4.249-2.465 0.339-4.08-0.17-5.312-1.062-3.182 0.699 1.016 2.271 0 4.25-1.42 0.01-2.84 0.01-4.26 0.01z"></path> <path fill="#FFFFFF" d="m7.904 112.08c2.36 2.459 4.143-0.36 7.437 0-1.405 6.413-0.104 9.583-3.188 14.874-3.234 0.047-4.131-2.243-6.374-3.187 2.758-1.84 2.153-7.04 2.125-11.68z"></path> <path d="m358.49 116.33c-3.473 0.943-12.176-0.988-16.998-2.125 2.1-2.57 14.01-1.53 17 2.13z"></path> <path d="m39.775 115.27c-2.513 3.044-6.018-1.057-8.499 1.062-0.701-4.01 7.443-1.99 8.499-1.06z"></path> <path d="m110.95 119.52c-4.847-0.597-4.494 4.006-9.562 3.187-0.27-5.03 10.03-13.74 9.56-3.19z"></path> <path fill="#FFFFFF" d="m222.5 118.46c1.256-2.861 5.54 0.004 7.438 0-0.691 1.08-2.444 1.098-2.126 3.187-1.535-1.266-1.611-5.233-3.188-1.062-1.15-0.27-0.71-2.12-2.12-2.13z"></path> <path d="m33.401 119.52c0.913-2.194 7.394-1.121 8.499 0-0.913 2.2-7.395 1.12-8.499 0z"></path> <path d="m294.74 122.71c4.574 1.388 4.178-2.197 5.311-4.249 0.945 0.825 2.4 1.143 4.25 1.062-2.98 4.078-0.428 2.296 1.062 6.374-3.94-0.65-11.21 2.01-10.62-3.18z"></path> <path d="m140.7 119.52c2.619-0.14 5.119-0.161 6.374 1.062-0.01 1.63-7.87 2.33-6.37-1.06z"></path> <path fill="#FFFFFF" d="m381.86 174.76c-4.156-1.402-0.385-4.578-4.25-5.311 6.514-18.924-6.703-35.521-20.186-41.434-2.857-1.893-2.053 4.679-3.188 1.062-2.268 0.497-2.023-1.518-2.123-3.187-6.023-0.545-17.854-5.437-21.25 1.062-4.469-1.802-5.09-1.135-9.561-2.125 30.08-15.98 68.94 10.81 60.56 49.94z"></path> <path d="m150.26 120.58h4.249c1.071 3.195-2.367 1.882-4.249 2.125v-2.12z"></path> <path fill="#FFFFFF" d="m231 120.58c1.715-0.299 1.829 1.004 3.188 1.062-0.203 0.86-1.066 1.059-1.063 2.125h-2.125v-3.18z"></path> <path d="m29.151 121.65c4.902 0.41 11.283-0.66 12.748 3.187-4.902-0.42-11.283 0.65-12.748-3.19z"></path> <path fill="#FFFFFF" d="m462.6 121.65c1.154 0.263 0.723 2.113 2.125 2.125-0.328 1.441-2.658 0.881-4.25 1.062 0.38-1.4 1.88-1.68 2.13-3.19z"></path> <path d="m142.82 122.71c2.647 0.541 6.409-0.035 6.374 3.187-2.87-0.31-7.86 1.49-6.37-3.19z"></path> <path d="m308.56 125.9h-2.125v-2.125h2.125v2.12z"></path> <path d="m153.45 124.83h3.187c0.14 3.682-0.915 6.168-5.312 5.312-0.8-3.27 3.66-1.29 2.12-5.31z"></path> <path fill="#FFFFFF" d="m319.18 124.83c-1.186 2.468 0.229 2.845-2.125 5.312-2.559 0.436-2.309-1.94-5.311-1.062 2.21-1.68 4.32-3.46 7.43-4.25z"></path> <path d="m31.276 126.96c2.34-2.953 7.57 0.149 10.624 0-0.435 3.63-2.869 1.351-1.062 5.312-4.719-0.594-12.474 1.851-12.748-3.188 4.11-0.568 5.186 1.897 9.562 1.062-0.023-3.16-5.014-1.36-6.376-3.18z"></path> <path fill="#FFFFFF" d="m133.26 125.9h4.25c1.07 3.195-2.368 1.883-4.25 2.125v-2.12z"></path> <path d="m374.42 131.21v-3.188c2.221-0.449 2.814 0.729 4.248 1.062-0.25 1.87-1.83 2.42-4.25 2.13z"></path> <path d="m380.8 129.08c1.717-0.299 1.83 1.004 3.188 1.062 0.41 2.07-4.85 1.56-3.19-1.06z"></path> <path d="m289.43 130.14h7.438c1.09 3.57-3.305 1.655-5.312 2.126 0.432 2.046 4.117 0.838 3.188 4.249-3.25 0.771-3.125-1.833-6.375-1.062-0.391-1.808 0.828-2.004 2.125-2.125-0.57-0.86-1.12-1.73-1.07-3.2z"></path> <path d="m301.12 133.33c-0.494 0.493-3.158-0.988-3.188-1.062-1.7-4.05 5.15-0.89 3.19 1.06z"></path> <path d="m142.82 131.21c5.344-0.74 7.404 1.802 12.749 1.062-0.955 3.11-0.955 3.264 0 6.374-4.145-1.168-9.894-0.729-13.811-2.125 1.56-2.51 2.24-1.98 1.06-5.31zm2.13 4.25h3.187c0.137-1.908-1.055-2.486-3.187-2.125v2.12z"></path> <path fill="#FFFFFF" d="m343.61 133.33c-0.33 1.442-2.66 0.881-4.25 1.062 0.3-2.46 2.84-2.44 4.25-1.06z"></path> <path d="m394.61 136.52c-4.039-1.982-12.279 0.238-15.938-2.125 2.15-4.23 13.79-0.63 15.94 2.12z"></path> <path d="m30.213 133.33c2.132-0.361 3.324 0.217 3.188 2.125h-3.188v-2.13z"></path> <path d="m35.525 133.33c2.032 0.447 4.572 0.385 4.25 3.187-2.778 0.3-4.57-0.39-4.25-3.19z"></path> <path fill="#FFFFFF" d="m144.95 133.33c2.132-0.361 3.324 0.217 3.187 2.125h-3.187v-2.13z"></path> <path fill="#FFFFFF" d="m185.32 133.33h2.125c0.496 2.267-1.518 2.023-3.188 2.125 0.21-0.86 1.07-1.06 1.07-2.13z"></path> <path fill="#FFFFFF" d="m311.74 135.46c-0.018 1.622-7.873 2.329-6.375-1.062 2.18-2.27 4.21 0.29 6.38 1.06z"></path> <path fill="#FFFFFF" d="m344.67 133.33c1.717-0.299 1.83 1.004 3.189 1.062 0.42 2.07-4.84 1.56-3.19-1.06z"></path> <path fill="#FFFFFF" d="m403.11 134.4c0.17-1.245 1.938-0.896 3.188-1.062 0.846 1.985 1.775 3.891 2.125 6.374-3.79 0.24-1.09-6-5.31-5.31z"></path> <path fill="#FFFFFF" d="m19.59 136.52c1.869 0.256 2.421 1.828 2.125 4.25-1.427-0.7-1.979-2.27-2.125-4.25z"></path> <path d="m30.213 136.52c2.995 1.963 9.94-0.024 12.749 2.125-0.458 2.72-12.848 2.42-12.749-2.12z"></path> <path d="m289.43 136.52c4.203 0.475-1.281 4.571 3.188 5.312-0.734 3.331-2.834 1.385-5.312 1.062 2.174-3.839 1.715-2.43-2.125-4.25 0.34-4.2 3.29 0.79 4.25-2.12z"></path> <path d="m394.61 141.83c-0.779-0.991-1.932-1.609-3.188-2.125 0.256-1.869 1.828-2.422 4.25-2.125 2.576 2.115-1.793 4.537 2.125 5.312-1.473 2.423-7.396 0.396-10.625 1.062-0.773-2.898 2.111-2.138 2.123-4.25-3.447 0.616-4.941-0.724-7.434-1.062 3.52-5.54 8.53 2.67 12.74 3.19z"></path> <path fill="#FFFFFF" d="m124.76 137.58h2.125v2.125h-2.125v-2.12z"></path> <path fill="#FFFFFF" d="m303.24 138.64h2.125v2.125h-2.125v-2.12z"></path> <path d="m147.08 139.71h7.436c0.852 4.039-5.022 1.351-7.436 2.125v-2.13z"></path> <path d="m41.899 143.96c-5.343 0.74-7.404-1.803-12.748-1.062 1.306-3.79 11.572-1.95 12.748 1.06z"></path> <path d="m140.7 143.96c1.185-2.134 8.217-1.219 9.561 0-3.23 2.07-7.01 0.54-9.56 0z"></path> <path d="m286.24 146.08c-2.008-0.471-6.402 1.445-5.311-2.125 2.53-0.63 4.95-1.63 5.31 2.12z"></path> <path d="m342.55 142.89c4.934 0.216 0.406 5.857 1.062 8.499-4.82 0.97-3.86-7.99-1.06-8.5z"></path> <path d="m44.024 147.14c-3.925 2.173-13.667 0.284-13.811-1.062-0.263-2.49 8.604-0.04 13.811 1.06z"></path> <path d="m352.11 145.02c0.199 0.861 1.064 1.06 1.061 2.125 0.342 4.729-5.119 7.651-7.436 6.374 0.26-4.7 2.34-7.58 6.38-8.49z"></path> <path d="m138.58 146.08h4.25c1.071 3.195-2.368 1.882-4.25 2.125v-2.12z"></path> <path d="m148.14 147.14c1.906-0.135 2.241 1.301 4.25 1.062-1.559 2.506-2.242 1.978-1.062 5.312-5.62-0.704-6.525-1.037-13.81-1.062-0.412-4.308 6.621-1.171 9.561-2.125 2.4-0.58-1.29-1.65 1.06-3.18z"></path> <path fill="#FFFFFF" d="m269.25 147.14c1.893 0.779 0.154 1.932 0 3.188-1.9-0.78-0.16-1.93 0-3.19z"></path> <path d="m277.75 147.14c4.639-0.037 8.283 0.923 11.686 2.125-2.49 2.07-11.58 1.71-11.69-2.12z"></path> <path d="m47.211 150.33c-1.998 3.662-1.998 2.711 0 6.374-3.805-1.507-10.395-0.228-13.81-2.125 0.725-3.875 4.23 0.227 8.499-1.063-1.698-1.842-4.782-2.3-8.499-2.125 1.745-5.34 9.42 0.01 13.81-1.07z"></path> <path d="m395.67 150.33h2.125v2.125h-2.125c-0.01-0.71-0.01-1.42-0.01-2.13z"></path> <path d="m283.06 153.52c-3.967-0.096-3.027-1.191-6.373 0-1.53-3.32 7.89-3.32 6.37 0z"></path> <path d="m393.54 155.64c0.898 1.58 3.42 1.538 5.311 2.125 0.498 2.267-1.516 2.024-3.186 2.125-0.525 3.358 5.271 0.395 4.25 4.249-3.947-0.5-4.861-0.792-10.627-1.062 3.467-3.044 3.049-7.071-2.123-8.499-0.496-2.614 15.604-2.002 11.686 2.125-2.55 0.44-2.3-1.94-5.31-1.06z"></path> <path d="m134.33 153.52c5.813-0.146 10.58 0.753 14.874 2.125-3.345 2.098-8.481 0.043-7.436 4.25-2.179 0.585-2.535-2.028-1.062-2.125-0.21-3.32-6.95-0.13-6.37-4.24z"></path> <path d="m346.8 155.64c9.469 9.502-0.371 25.897-15.936 19.123-9.97-10.59 2.16-26.19 15.94-19.12z"></path> <path fill="#FFFFFF" d="m352.11 158.83c3.121-2.059 7.145-7.642 10.623-3.188-3.95 0.44-7.86 4.91-10.62 3.19z"></path> <path fill="#FFFFFF" d="m373.36 156.7c-0.42-2.062 4.84-1.551 3.188 1.062h-2.125c0.2-0.9-0.41-1-1.06-1.06z"></path> <path d="m51.461 160.95c-6.159 0.137-10.038-2.002-15.936-2.125 1.301-2.79 13.868-1.1 15.936 2.13z"></path> <path d="m132.2 156.7c3.246-0.767 3.872 1.086 6.374 1.062 0.23 2.93-6.41 1.96-6.37-1.06z"></path> <path d="m143.89 158.83h4.249c1.071 3.195-2.366 1.883-4.249 2.125v-2.13z"></path> <path d="m275.62 158.83c2.199 0.632 6.979-1.312 7.436 1.062 1.03 3.52-7.82 1.53-7.44-1.06z"></path> <path d="m129.01 159.89c5.265 1.108 10.865 1.884 16.998 2.125-0.14 4.85-15.39 1.69-17-2.13z"></path> <path d="m55.71 163.08c-1.845 3.923-12.544-0.619-18.06 0 2.976-4.48 11.89 0.87 18.06 0z"></path> <path fill="#FFFFFF" d="m410.54 160.95c2.221-0.45 2.812 0.728 4.248 1.062 0.34 1.88-5.95 1.9-4.25-1.06z"></path> <path d="m275.62 162.02c2.977 1.271 7.33 1.169 11.686 1.063-0.232 3.403 2.428 4.713 2.125 10.624-4.016-0.234-9.578 1.08-9.561-3.188 3.449-0.616 4.941 0.724 7.436 1.063 1.119-2.757-7.135-3.067-1.062-4.25-1.023-2.162-4.078-2.295-7.438-2.125 0.465 1.306 1.361 2.181 3.189 2.125 0.178 2.303-3.77 0.481-5.312 1.062 2.2-4.1-1.6-1.72-1.08-6.36z"></path> <path fill="#FFFFFF" d="m28.089 163.08c1.307 0.464 2.182 1.359 2.125 3.188-1.308-0.47-2.182-1.36-2.125-3.19z"></path> <path d="m127.95 170.52c-1.091-3.57 3.303-1.654 5.312-2.125 0.638-4.179-7.353 0.27-6.374-4.25 4.771-0.521 7.96 0.54 11.686 1.064-2.983 3.557-3.762 4.406-2.125 9.56-6.33 2.07-2.58-5.93-8.51-4.25z"></path> <path fill="#FFFFFF" d="m28.089 167.33h-2.125v-2.125c1.807-0.39 2.004 0.83 2.125 2.13z"></path> <path fill="#FFFFFF" d="m421.17 166.27c2.945 4.49 2.152 10.301-1.062 14.872-4.707-1.495-1.559-10.939-3.188-12.748-0.76-2.88 5.01 0.76 4.25-2.12z"></path> <path fill="#FFFFFF" d="m32.338 168.39c-3.221 3.93-3.578-3.23 0 0z"></path> <path d="m130.08 174.76c-1.834-0.943-6.292-1.354-3.187 1.063-0.791 2.396-5.959 0.416-8.5 1.062 0.432 2.048 4.119 0.84 3.188 4.249-5.344-3.299-5.185 3.563-11.687 2.126-1.071-3.196 2.366-1.883 4.249-2.126-1.833-3.188 1.568-4.419 1.062-7.436 2.544 0.643 4.847 1.527 8.5 1.062-0.149-3.038-4.432-1.942-7.437-2.124-1.157-5.053 8.841 1.05 6.375-5.312 4.57 0.39 6.35 3.57 7.44 7.44z"></path> <path fill="#FFFFFF" d="m49.335 169.45c1.31-3.228 3.654 1.152 6.375 0-0.446 2.37-5.637 0.83-6.375 0z"></path> <path d="m392.48 172.64c2.201 0.632 6.98-1.313 7.438 1.062 0.57 3.98-7.79 1.5-7.44-1.06z"></path> <path d="m47.211 173.7c2.465-0.339 4.079 0.171 5.312 1.062-0.941 2.32-5.932 3.25-5.312-1.06z"></path> <path d="m64.209 175.83c1.314 3.437-3.438 0.812-2.125 4.249-1.702-1.839-3.216-3.867-7.436-3.188 1.128-4.59 8.081-0.53 9.561-1.06z"></path> <path d="m283.06 174.76c2.496 0.34 3.988 1.68 7.438 1.063-1.521 3.169 0.867 3.612-1.062 6.374-4.338 0.68-7.391-3.312-5.311 2.125-3.404 0.217-1.734-4.641-5.314-4.25 1.119-4.268 4.318 0.141 8.5-1.062-0.35-2.49-5.05-0.63-4.26-4.25z"></path> <path fill="#FFFFFF" d="m377.61 174.76c1.715-0.299 1.828 1.005 3.186 1.063 0.137 1.904-1.301 2.241-1.061 4.249-2.33-0.15-2.29-2.67-2.13-5.31z"></path> <path d="m389.29 175.83h2.127v3.187c-0.854-0.562-1.725-1.108-3.188-1.062 0.2-0.87 1.07-1.07 1.06-2.13z"></path> <path d="m73.771 177.95c2.208 0.304 16.354-2.213 16.998 3.187-4.248 0.354-5.897-1.893-10.625-1.062 0.7 1.427 2.271 1.979 4.25 2.125-1.589 3.488-7.144 0.658-10.623 0-1.799-0.341-6.521 1.835-6.375-2.125 4.641-0.744 5.984 1.808 10.624 1.062-0.296-2.18-2.838-2.12-4.249-3.19z"></path> <path d="m110.95 176.89c1.091 3.57-3.304 1.655-5.312 2.125-1.09-3.58 3.31-1.66 5.31-2.13z"></path> <path d="m63.146 180.08c0.153-0.409 2.249-1.878 3.187-1.062 2.1 1.82-4.688 5.06-3.187 1.06z"></path> <path d="m91.831 179.01c3.652-0.465 5.955 0.42 8.499 1.062-0.422 3.53-8.289 2.02-8.499-1.06z"></path> <path d="m107.77 180.08c0.575 2.802-6.164 3.617-6.375 2.125-1.01-3.84 4.18-1.48 6.37-2.12z"></path> <path d="m277.75 182.2c2.131-0.362 3.324 0.217 3.188 2.125h-3.188v-2.12z"></path> <path d="m366.98 183.26c3.23-3.92 3.58 3.23 0 0z"></path> <path d="m91.831 186.45c-6.317 4.77-18.358-1.828-27.622-1.062 5.2-3.65 19.284 0.9 27.622 1.06z"></path> <path d="m287.31 183.26c2.463-0.339 4.08 0.171 5.312 1.062-0.2 3.27-5.72 2.23-5.31-1.06z"></path> <path d="m101.39 184.33h4.25c1.07 3.195-2.367 1.883-4.25 2.125v-2.13z"></path> <path d="m279.87 186.45c3.449-0.617 4.941 0.725 7.436 1.062-0.13 3.29-7.33 1.95-7.44-1.06z"></path> <path d="m294.74 187.51c1.092 3.57-3.305 1.654-5.312 2.125-1.09-3.57 3.31-1.66 5.31-2.13z"></path> <path fill="#FFFFFF" d="m126.89 189.64c1.245 0.172 0.896 1.936 1.062 3.188h-3.187c-0.58-2.36 2.03-1.52 2.13-3.19z"></path> <path d="m282 190.7c2.463-0.34 4.076 0.17 5.311 1.061 0.18 1.74-6.95 2.15-5.31-1.06z"></path> <path fill="#FFFFFF" d="m168.32 191.76c0.991 1.135 3.919 0.33 3.187 3.188-0.99-1.13-3.92-0.33-3.19-3.19z"></path> <path d="m294.74 191.76c0.859 0.203 1.059 1.066 2.125 1.064-0.203 0.859-1.066 1.057-1.062 2.123-0.861-0.203-1.061-1.066-2.127-1.062 0.21-0.85 1.08-1.05 1.07-2.12z"></path> <path fill="#FFFFFF" d="m119.45 194.95c-6.478 6.316-21.761 13.361-31.87 6.375 8.137-4.256 22.917-1.871 29.746-7.438 1.23-0.17 1.89 0.24 2.12 1.07z"></path> <path fill="#FFFFFF" d="m240.56 193.89c-0.156 2.324-2.677 2.281-5.312 2.125 0.9-1.59 3.42-1.55 5.31-2.13z"></path> <path d="m300.06 197.07c-4.188 1.951 1.396 2.648-1.061 5.312-2.621 0.141-5.119 0.162-6.375-1.062-0.391-1.807 0.828-2.004 2.125-2.125-2.219-1.678-5.588-2.203-9.562-2.125 2.81-4.32 12.77-1.13 14.88-0.01z"></path> <path fill="#FFFFFF" d="m78.02 198.14h4.25c-0.296 2.422 0.256 3.994 2.125 4.25-2.248 2.86-8.394 0.67-6.375-4.25z"></path> <path d="m385.04 199.2h4.248c1.072 3.195-2.365 1.883-4.248 2.125v-2.12z"></path> <path fill="#FFFFFF" d="m243.75 201.32c-0.255 1.869-1.828 2.42-4.25 2.125 0.26-1.86 1.83-2.41 4.25-2.12z"></path> <path d="m371.24 201.32h2.125v2.125h-2.125v-2.12z"></path> <path d="m383.98 208.76c-3.244 0.77-3.871-1.084-6.373-1.061-0.496-2.268 1.516-2.025 3.186-2.125-0.25-2.938-5.992-0.381-5.311-4.25 3.939-0.752 4.559 1.814 8.498 1.062-0.96 3.11-0.96 3.26-0.01 6.37z"></path> <path d="m291.56 203.45c2.131-0.361 3.324 0.219 3.188 2.125h-3.188v-2.13z"></path> <path d="m301.12 204.51h2.123v2.125h-2.123v-2.13z"></path> <path d="m376.55 207.7c-2.465 0.338-4.078-0.172-5.312-1.062 0.09-3.17 6.33-2.85 5.31 1.06z"></path> <path d="m311.74 205.57c1.561 3.098-4.75 3.098-3.188 0h3.19z"></path> <path d="m292.62 208.76c-0.34-1.873 5.951-1.895 4.25 1.064-2.22 0.45-2.81-0.72-4.25-1.06z"></path> <path d="m305.37 208.76c1.092 3.57-3.303 1.654-5.312 2.125-1.1-3.57 3.3-1.65 5.31-2.12z"></path> <path d="m310.68 209.82c2.133-0.361 3.326 0.217 3.189 2.123h-3.189v-2.12z"></path> <path fill="#FFFFFF" d="m392.48 210.88c3.787 0.793-0.092 7.055-4.25 6.375 1.1-2.44 2.2-4.89 4.25-6.38z"></path> <path d="m297.93 211.95c6.676 0.053 12.436 1.02 18.061 2.125-0.377 1.396-1.871 1.672-2.125 3.188 3.596 0.299 6.1 1.689 10.623 1.062-1.678 3.295-12.887 2.127-16.998 1.062-1.078-0.279-4.76-0.639-4.25-3.188 4.004-0.816 5.078 1.297 8.5 1.062-1.57-4.79-13.05 0.31-13.8-5.31z"></path> <path fill="#FFFFFF" d="m249.06 213.01c-2.105 2.5-7.398 1.811-10.624 3.188 1.49-3.12 5.94-3.27 10.62-3.19z"></path> <path d="m344.67 215.13c-0.338-1.875 5.953-1.896 4.25 1.062-2.21 0.46-2.81-0.72-4.25-1.06z"></path> <path fill="#FFFFFF" d="m249.06 216.2c-1.733 3.225-7.32 2.596-10.624 4.25 1.55-3.41 6.49-3.43 10.62-4.25z"></path> <path fill="#FFFFFF" d="m155.57 218.32c1.042-3.258 2.834 1.221 4.249 1.062-1.04 3.26-2.83-1.22-4.25-1.06z"></path> <path fill="#FFFFFF" d="m386.11 217.26c2.557 5.771-8.076 7.486-8.5 13.811-7.021 1.291-14.096 7.631-21.248 5.311-2.047 0.434-0.84 4.121-4.248 3.189-3.191-0.352-5.459-1.625-6.375-4.25 17.08-2.4 31.58-7.38 40.37-18.06z"></path> <path fill="#FFFFFF" d="m249.06 220.45c-1.543 3.414-7.13 2.787-10.624 4.25 1.92-3.04 6.49-3.43 10.62-4.25z"></path> <path d="m311.74 221.51h4.25c1.07 3.195-2.367 1.883-4.25 2.125v-2.13z"></path> <path fill="#FFFFFF" d="m255.44 239.57c-0.133 2.658-2.028 3.324 1.062 4.25-2.035 1.859-5.539 2.25-8.499 3.188v-4.252c4.6 2.58 0.43-4.48 7.44-3.19z"></path> <path fill="#FFFFFF" d="m260.75 250.19c3.068 2.455-4.639 3.08-7.437 3.188-0.42-3.96 6.64-0.44 7.44-3.19z"></path> <path fill="#FFFFFF" d="m251.19 253.38c0.248 4.143-6.566 1.227-7.436 4.25-2.87-2.6 4.45-3.99 7.44-4.25z"></path> <path fill="#FFFFFF" d="m260.75 255.5c-2.873 3.146-9.667 2.373-13.811 4.248 2.15-3.86 8.32-3.71 13.81-4.25z"></path> <path d="m207.63 260.82c-1.717 0.301-1.829-1.004-3.188-1.062 0.203-0.859 1.066-1.059 1.062-2.123h2.126v3.18z"></path> <path fill="#FFFFFF" d="m129.01 262.94c2.355-0.584 1.512 2.029 3.187 2.125-0.43 2.65-4.86 0.82-3.19-2.12z"></path> <path d="m253.31 264c-1.802 2.092-4.941 2.852-8.5 3.188-0.15-3.97 6.16-5 8.5-3.19z"></path> <path fill="#FFFFFF" d="m266.06 266.13c-0.254 1.869-1.826 2.422-4.248 2.125 0.26-1.88 1.83-2.43 4.25-2.13z"></path> <path fill="#FFFFFF" d="m260.75 267.19c-1.572 4.447-8.867 3.174-12.749 5.311 2.87-3.15 7.63-4.41 12.75-5.31z"></path> <path fill="#FFFFFF" d="m260.75 271.44c-4.191 5.016-13.46 4.955-19.124 8.498 4.81-4.4 11.67-6.74 19.12-8.5z"></path> <path fill="#FFFFFF" d="m90.769 274.63c-0.409 2.779-3.407 2.969-2.125 7.438 1.234 0.174 1.89-0.234 2.125-1.061 2.884 0.965-1.083 3.721-1.062 5.311-2.29-0.318 1.162-5.625-2.125-2.125-2.467-2.55-0.94-10.1 3.187-9.57z"></path> <path fill="#FFFFFF" d="m265 274.63c-2.1 4.275-8.832 3.918-13.812 5.312 3.77-2.61 8.27-4.47 13.81-5.31z"></path> <path fill="#FFFFFF" d="m95.018 276.75c-0.375 1.396-1.87 1.672-2.125 3.188-2.645-0.44-0.062-4.12 2.125-3.19z"></path> <path d="m203.38 286.31c-0.595 2.207-1.657 2.25-3.187 1.062v-2.125c1.72-0.29 1.83 1.02 3.19 1.07z"></path> <path d="m227.81 311.81c2.062-0.422 1.553 4.84-1.062 3.189v-2.127c0.91 0.2 1.01-0.41 1.06-1.06z"></path> <path fill="#FFFFFF" d="m208.69 318.18c1.426 0.699 1.979 2.273 2.125 4.25-3.2 1.07-1.88-2.36-2.13-4.25z"></path> <path d="m152.39 320.31c1.807-0.389 2.005 0.83 2.125 2.125-0.903-0.195-1.002 0.414-1.062 1.064-1.26-0.17-0.91-1.94-1.07-3.19z"></path> <path d="m154.51 324.56v3.188c-3.1 1.56-3.1-4.75 0-3.19z"></path> <path d="m160.88 325.62h2.125v3.186h-3.187c-0.29-1.72 1.02-1.83 1.07-3.19z"></path> <path d="m188.51 329.87c3.1-1.562 3.099 4.748 0 3.188v-3.19z"></path> <path fill="#FFFFFF" d="m171.51 338.37c-2.51 3.42-4.29-3.74 0 0z"></path> <path fill="#FFFFFF" d="m109.89 35.594c-0.024-0.04-1.065 0.017-1.062 0 0.59-3.553 4.46 5.662 1.06 0z"></path> <path d="m177.88 82.338c-12.708-2.807-13.095-17.898-16.998-28.684-4.218-11.657-7.929-23.462-12.749-32.934-15.956 6-24.849 19.062-39.308 26.56 4.187 3.695 10.004 3.321 14.874 5.312 18.521 7.569 33.208 24.988 42.495 42.495 4.86 9.164 7.692 17.07 9.562 29.746 13.245-6.787 28.909-15.881 45.682-13.811 16.437 2.03 25.101 15.554 36.12 23.373 15.709-16.504 20.658-37.49 40.371-46.745 52.848-24.814 125.03 10.514 123.23 73.304 8.525-7.35 15.797-17.283 23.373-26.559 8.035-9.842 14.352-20.116 21.248-30.809 0.369-0.575 2.838-0.345 3.186-1.062 5.004-10.281 12.221-19.326 19.123-28.684 7.15-9.695 15.189-19.604 24.436-26.559 7.246-0.519 13.281 0.174 16.996 3.187 4.135 8.9 4.688 21.265 6.375 33.996 1.531 11.561 5.053 23.245 6.375 32.934 1.383 10.143 3.871 29.824-8.5 29.746-12.5-0.079-9.955-20.444-11.686-32.933-1.936-13.977-4.994-26.298-5.312-39.308-2.477-0.695-5.023 2.72-6.373 4.25-8.504 9.622-16.182 24.458-24.436 36.121-15.582 22.014-38.598 43.024-54.18 65.866-3.537 1.066-7.301 1.909-10.625 3.188-10.115 46.688-61.266 74.889-115.8 57.369-8.225-4.525-15.51-9.986-23.371-14.873-3.209-7.383-10.391-10.219-14.873-16.998-10.842-16.395-13.144-38.991-25.499-54.183-4.576 24.403 9.579 47.737 18.061 66.931 3.252 7.359 4.811 15.354 7.438 22.309 1.254 3.322 4.156 6.279 5.311 9.562 2.736 7.783 1.562 15.023 5.312 21.248 4.525 7.51 11.939 6.383 18.061 11.686 21.172 18.344-0.459 46.266-25.498 49.932-17.539 2.566-37.938-5.811-55.242-2.125-9.421 2.006-16.054 7.068-23.373 11.686-9.799 6.182-29.768 9.248-40.371 0-6.196-5.406-7.616-15.111-14.873-21.246-6.811-5.762-20.01-11.125-28.684-14.875-14.604-6.312-28.035-8.855-26.56-29.744 1.276-18.07 19.365-35.354 39.308-24.438 10.581-18.139 20.1-35.424 31.872-52.055 11.497-16.242 23.814-32.707 31.871-52.056-5.32-0.443-6.558 5.479-9.561 8.499-9.651 9.704-19.465 20.126-30.809 29.747-15.134 12.834-34.249 21.525-59.494 20.184-34.675-1.842-70.167-32.659-75.428-66.929-0.916-5.96-1.894-12.498 2.125-14.874-2.428-0.793-8.46 0.44-10.623-3.187-1.397-5.685 0.864-14.889 0-23.372 4.631-2.451 7.599-6.565 12.748-8.5 10.622-27.623 32.684-43.806 65.867-48.868 16.081-9.208 42.569-38.229 62.681-44.621 7.926-2.519 20.233 4.389 23.372 9.562 2.87 4.729 3.207 13.494 5.312 20.185 1.886 5.996 4.478 12.121 6.374 18.061 3.84 11.96 13.65 28.063 1.08 33.989zm-61.61-52.056c-1.358-0.059-1.471-1.362-3.187-1.062-1.65 2.613 3.61 3.124 3.19 1.062zm-7.44 5.312c-0.002 0.017 1.038-0.04 1.062 0 3.4 5.662-0.47-3.553-1.06 0zm52.05 3.187h2.125c-0.003-1.065 0.86-1.264 1.063-2.125-1.358-0.059-1.472-1.362-3.188-1.062 0.01 1.062 0.01 2.124 0.01 3.187zm-89.234 16.998c-13.876-3.709-26.355 7.431-27.623 14.873 6.374-3.197 17.412-10.912 28.685-12.748 2.007-0.118 0.737-3.512 3.187-3.187 0.428 1.798 6.233 3.546 7.436 1.062-2.22-2.736-6.022-3.892-11.685-3.187v3.187zm3.187 8.499c1.296 0.121 2.515 0.317 2.125 2.125-2.026-0.452-1.922-3.035-5.312-2.125-23.393 8.833-43.014 21.438-43.558 53.119 1.669 0.101 3.683-0.143 3.187 2.125-3.387-0.908-4.032 0.925-5.312 2.125 0.527 38.781 17.67 60.946 48.869 69.055 1.674-0.096 0.832-2.711 3.187-2.125 7.982 1.789 13.578-0.578 16.998 5.311 4.861-4.227-3.041-4.27 0-8.498-2.647-0.539-6.409 0.035-6.374-3.187 3.323 1.634 10.379-0.465 11.685 3.187-1.25 0.166-3.016-0.182-3.187 1.062 1.892 0.588 4.412 0.545 5.312 2.125 0.422 2.547-4.838-0.59-3.187 3.186 9.053 3.084 14.356-3.891 20.185-5.311 5.765-1.404 19.344-10.772 22.311-13.811 0.574-0.588 0.852-3.641 2.125-5.312 1.048-1.377 3.497-1.965 4.249-3.188 7.789-12.656 11.201-29.277 8.499-45.681-5.97-0.05-12.629 0.589-15.935-2.125-0.339-2.818 5.951 0.994 4.25-3.187-2.341 0.586-5.861 1.559-6.375-2.126 4.004-0.816 5.078 1.296 8.5 1.062 0.096 2.899-1.77 2.139 0 4.25 4.578 1.392 1.316-5.058 5.312-4.25 5.453 0.811-3.862 5.036 3.188 4.25-1.244-9.034-7.75-21.992-14.874-28.685-6.186 0.858-19.692-0.126-25.498-3.187 0.23-1.996 9.651-0.129 6.375-2.125-8.958-0.483-13.342-1.303-20.186-2.125 4.428 5.173 11.859 4.149 16.998 7.436 8.911 5.698 14.79 15.855 18.061 26.56 4.256 3.537 3.853 16.468 3.188 22.31-2.053 18.002-19.711 34.733-36.121 37.183-2.577 2.114 1.792 4.537-2.125 5.312-2.505-0.327-1.976-3.689-5.312-3.187-18.458 0.832-29.748-2.725-52.057-4.25 2.305-4.059-0.975-3.326-3.187-5.312 4.501-1.331 13.79 0.836 20.185 1.062 1.77 2.11-0.096 1.351 0 4.25 3.211-0.986 8.263 1.518 8.5 0-9.848-5.432-20.807-13.358-24.435-26.56-4.79-17.431 2.058-35.787 7.437-49.931 5.261-5.717 14.661-7.295 19.123-13.811-6.893-1.607-16.356-0.643-21.249-4.25 8.439-0.067 12.131 0.404 18.062 1.062 1.651-3.776-3.608-0.641-3.188-3.187 2.63-2.099 8.109-0.244 10.624 1.062 0.76 2.885-5.009-0.76-4.249 2.125 3.752 1.885 9.917 5.285 13.811 1.063-1.836-1.706-6.568-0.515-7.438-3.188 7.918 1.34 5.684-1.611 8.5-4.25 1.23 1.573 1.23 2.678 0 4.25 5.137-0.888 5.39 3.109 8.499 4.25 3.573 0.74 3.482-2.184 5.312-3.188-0.726-2.106-6.329 0.663-5.312-3.187 5.318-0.714 8.223 0.984 12.749 1.062-1.087 2.988-1.208 4.526 3.187 4.25 1.243-0.452-0.428-5.676 2.125-7.438 3.718-1.491 6.8 2.979 8.5 0-9.21-7.809-31.699-12.453-46.787-7.416zm448.33 7.436c-1.016-0.554-3.525-4.767-4.25-2.125 1.87-0.304 3.28 5.003 4.25 2.125zm-381.4 2.125c0.192-2.317-0.87-3.38-3.188-3.188-0.19 2.318 0.87 3.38 3.19 3.188zm-8.5 6.374c3.309 4.831 0.801-1.583-2.125-2.125-2.2 1.438-13.573 2.99-12.749-2.125 5.083 0.334 7.774 2.021 11.687 0-3.318-2.449-10.077-1.683-14.874 0 5.296 0.451-0.423 2.279-1.062 3.188 7.14 1.327 11.52 3.036 19.11 1.062zm390.96-2.125c-2.885 0.76 0.76-5.01-2.125-4.25-2.26 0.917 1.24 6.841 2.12 4.25zm-375.02 8.499c2.609 3.641 3.683 9.868 8.5 11.687 2.639-11.258-9.261-16.857-15.936-22.31 0.06 5.042 4.95 7.15 7.44 10.623zm-114.74-5.311c3.177-2.835 1.785-2.36-1.062-3.188 0.165 1.25-0.184 3.016 1.062 3.188zm94.547 22.304c-1.929-2.562-5.549-6.648-7.436-8.499-10.554-10.352-43.576-18.838-55.245-4.25 3.494 2.212 8.132-3.597 11.687 1.062 1.473-0.652 0.16-4.089 2.125-4.25 7.904-1.569 14.222 0.219 22.31 1.062 0.275 4.33 4.474 4.734 7.438 6.375 0.121-1.296 0.318-2.516 2.125-2.126 8.616 5.747 15.709 13.718 20.185 23.373 1.15 2.48-1.381 7.207 4.25 6.374-0.05-7.08-1.45-11.15-7.44-19.12zm10.63-16.993c-0.828-5.027-9.267-3.243-13.812-2.125 2.71 2.599 11.09-0.472 13.81 2.125zm349.52-2.124v2.125c2.615 1.652 3.123-3.608 1.062-3.187-0.06 0.648-0.16 1.257-1.06 1.062zm39.3 23.367c2.104-6.599-3.197-14.326-2.123-23.372h-3.188c1.67 7.903 1.33 17.802 5.31 23.372zm-217.78-15.931c0.105 3.013 7.311 4.346 7.439 1.062-1.5-1.606-5.16-3.355-7.44-1.062zm-250.72 5.312c4.598 1.617 5.733-4.854 2.125-5.312-0.453 2.027-3.036 1.923-2.125 5.312zm225.22 9.559c-0.139 2.619-0.16 5.119 1.062 6.375h-4.248c-0.238 2.008 1.197 2.344 1.061 4.249-2.111 1.769-1.35-0.096-4.25 0 0.963 8.043-5.031 9.132-6.373 14.874 5.205-0.817 6.572-5.468 8.5-9.562 9.838-8.222 14.992-21.127 29.744-24.434-7.2-10.577-17.09 6.804-25.49 8.504zm-228.41-9.559c-4.419 5.959 1.763 3.039 0 0zm24.434 2.125c3.006-0.182 7.289 0.914 7.438-2.125-3.358-0.169-6.413-0.037-7.438 2.125zm12.749 59.494c-9.164 0.62-15.835-3.183-23.372-6.374-4.227-6.037-8.661-12.025-9.562-20.185-1.191-10.806 4.977-16.986 5.312-24.436-2.585 4.605-4.125 11.888-9.561 10.625-0.569 5.096-4.159 7.173-3.187 13.811-1.463 0.046-2.333-0.501-3.188-1.062-2.391 27.533 17.089 33.197 33.996 41.432-0.344-3.63 3.738-0.821 6.375-2.125 1.224-0.605 1.413-2.638 3.187-3.187 2.189-0.678 5.312 0.555 7.436 0 5.41-1.413 7.015-2.715 4.25-5.313 4.703-0.253 6.624-3.29 7.436-7.436 4.467 2.76 4.461-1.701 8.5-2.125-3.514-10.883 3.736-23.02 2.125-36.121-6.786-3.484-9.852-10.687-15.936-14.873 0.311-0.652 2.642-4.089 0-4.25-1.878 7.883-11.403-3.123-15.936 1.062 39.456 1.502 36.716 58.208 2.132 60.548zm279.4-58.43c0.057-1.828-0.818-2.724-2.125-3.187-1.52 1.551-1.57 4.107 2.12 3.187zm-300.65 3.18c3.152-0.389 5.241-1.841 6.374-4.25-2.885 0.661-4.975 2.11-6.374 4.25zm324.02 88.18c8.939-17.056 7.701-39.161 0-58.429-8.463-9.271-17.953-22.178-32.934-28.685-22.525-9.781-54.154-3.387-69.055 12.749-2.004 2.169-4.795 5.679-4.25 8.499 4.523 0.434 9.424 0.491 12.748 2.125-3.941 2.483-12.895 0.887-14.873-2.125-35.468 41.086-2.725 103.38 46.746 104.11 1.59 0.023 2.85-1.984 5.311-2.125 5.322-0.301 7.004-0.287 10.623-1.061 2.162-0.463 5.465 2.021 6.375-2.125-3.686 0.85-4.084-1.582-7.436-1.062 3.119-4.816-2.766-2.486-3.189-6.375 3.857-1.295 8.389 2.123 9.562 0-1.979-0.146-3.551-0.699-4.248-2.125 2.391-3.426 7.955 1.846 9.561-1.062-0.785-1.693-5.201 0.242-4.25-3.188 3.855-1.293 8.387 2.125 9.561 0-3.137-3.846 6.35-3.209 8.5-1.061-2.111 4.904-5.025-2.684-6.375 2.123 1.668 0.102 3.686-0.143 3.188 2.125-2.541 0.646-7.707-1.334-8.498 1.062 1.826-0.057 2.723 0.816 3.186 2.125-2.883 0.658-8.432-1.35-9.561 1.062 0.887 2.654 8.303-1.221 7.436 3.188-4.174 1.271-7.984-3.252-10.623 0 2.822 0.719 5.053 2.031 7.438 3.188 14.3-5.69 27.67-18.86 35.05-32.94zm-12.75-86.05v-3.187c-3.674 0.863-4.484-1.983-6.373 0-0.047 1.462 0.5 2.333 1.061 3.187 11.719 3.863 16.375 14.79 24.436 22.31-0.44-10.68-7.68-19.57-19.13-22.31zm-309.15 42.49c1.985 0.849 3.891 1.775 6.374 2.125-0.086-4.337 0.809-7.692 4.25-8.5 3.82 2.212-2.664 9.903 2.125 9.562 2.879-1.016-1.002-8.792 3.187-8.499 3.713 0.735 2.73 14.399 7.436 7.437-3.851-0.044-2.155-5.636-4.249-7.437 1.066 0.004 1.265-0.86 2.125-1.062 5.111-0.153 3.174 6.742 7.437 7.437 3.103-2.872-7.469-7.717-1.063-10.624 3.484 0.905 4.651 8.121 8.5 5.312-0.423-4.534-7.615-2.3-6.374-8.499 4.252-0.433 6.313 4.84 9.561 2.125 0.224-4.474-6.878-1.621-8.498-4.25v-3.188c2.707-1.541 9.19 0.692 9.561-3.187-0.622-2.581-7.895 2.563-9.561-1.062 0.567-4.036 4.525-4.68 8.498-5.312-0.681-5.692-4.804-7.943-8.498-10.625-0.319 4.285-1.569 7.64-6.375 7.438 0.704-2.991 4.992-9.547 1.062-10.624-2.271 2.332 0.189 9.396-4.249 9.562-0.51-4.13 0.103-14.928-5.312-10.624 2.171 2.074 4.292 8.05 1.062 9.562-4.082-1.584-2.256-9.076-6.374-10.625-2.962 2.495 6.787 9.602 1.062 11.687-4.48-1.098-6.699-13.166-10.624-5.312 4.676-0.735 8.354 5.042 5.312 8.5-4.289-0.668-4.704-5.21-8.499-6.374-4.053 6.485 7.167 3.206 6.374 9.561-5.995 1.118-9.774-4.76-11.687 1.062 3.772 0.123 8.559-0.768 8.5 3.187-2.642 1.253-8.283-0.492-8.5 3.187 3.438 0.458 9.189-1.397 9.562 2.126-1.632 2.551-12.562 3.726-6.374 7.436 0.13-2.773 5.253-5.983 7.436-3.187 0.776 5.024-5.042 3.457-5.312 7.437 3.24 2.709 2.843-5.024 7.436-4.25 5.259 2.76-1.737 7.86-5.32 8.46zm47.807-38.24c1.379-1.411 1.4-3.952-1.062-4.249-1.38 1.41-1.4 3.95 1.06 4.25zm-106.24-2.13c-3.579-3.22-3.221 3.93 0 0zm-10.624 15.94c2.243 0.944 3.14 3.234 6.374 3.187 3.083-5.291 1.783-8.461 3.188-14.874-3.294-0.36-5.077 2.459-7.437 0 0.028 4.63 0.633 9.83-2.125 11.68zm195.48 2.13c3.917-0.2 2.069-3.466 3.187-4.25 3.438-1.312 0.812 3.438 4.25 2.125-0.998-2.774 2.69-4.356 6.375-5.312-1.493-0.278-1.211-2.331-2.125-3.187-12.079 1.731-22.576 5.046-29.747 11.686 5.221-2.81 1.525 2.438 3.187 3.187 5.089-4.871 10.543-4.375 15.936-7.436 1.87 2.84-4.7 2.04-1.08 3.18zm23.37-5.32c1.576-4.171 1.653-0.204 3.188 1.062-0.318-2.089 1.435-2.106 2.126-3.187-1.898 0.004-6.182-2.861-7.438 0 1.4 0.02 0.96 1.87 2.12 2.13zm6.37 3.19h2.125c-0.003-1.066 0.86-1.265 1.063-2.125-1.358-0.058-1.472-1.361-3.188-1.062 0.01 1.07 0.01 2.13 0.01 3.19zm229.47 1.06c1.592-0.181 3.922 0.379 4.25-1.062-1.402-0.012-0.971-1.862-2.125-2.125-0.25 1.52-1.75 1.8-2.13 3.19zm-327.21 3.19c1.882-0.241 5.32 1.071 4.25-2.125h-4.25v2.12zm112.62 6.38c0.132-2.659 2.028-3.326-1.063-4.25 0.51 5.827-7.955-4.754-5.312-1.062 1.05 2.82 4.28 3.49 6.37 5.31zm-61.62 1.06c1.669-0.102 3.684 0.142 3.188-2.125h-2.125c0 1.06-0.86 1.26-1.06 2.12zm224.16 4.25c-0.35-2.483-1.279-4.389-2.125-6.374-1.25 0.166-3.018-0.182-3.188 1.062 4.22-0.69 1.52 5.55 5.31 5.31zm-156.17 1.06c-0.058-1.358-1.362-1.472-1.063-3.187 0.825-0.238 2.096-0.029 2.125-1.062-2.113-2.564-5.058 1.767-7.437-1.062 0.238 2.008-1.198 2.344-1.063 4.249 1.154 0.414 2.551 1.275 1.063 0 0.238-0.824 0.029-2.096 1.062-2.125 2.76-0.55 6.92 6.12 5.31 3.19zm-230.54 0c0.297-2.422-0.256-3.993-2.125-4.25 0.147 1.98 0.699 3.55 2.125 4.25zm103.05-1.06h2.125v-2.125h-2.125v2.13zm107.3 15.93c-1.336-0.435-2.172-1.37-2.125-3.186 2.883-0.305 2.485-3.888 5.311-4.25-2.684-1.778-4.746-4.17-8.499-2.125 0.502-3.335-2.86-2.806-3.188-5.312-9.87 0.749-19.121-3.056-23.373 4.249 0.012 1.405 1.862 0.971 2.125 2.125-2.844 6.853-1.627 13.946-6.374 16.997 2.531 4.817-4.656 8.996-2.125 13.812-5.222 2.651-0.919 9.646-6.374 10.625-0.319 2.088 1.435 2.107 2.125 3.186-4.684 1.588-0.59 6.248-5.312 8.5 4.43 0.248-0.478 3.768 2.125 6.375-4.526 1.574-3.567 6.686-2.125 9.561-2.479 0.355-4.577 1.09-5.311 3.188 0.758 0.234 2.178 0.033 2.125 1.062-0.365 7.041-6.115 11.225-2.125 19.123-6.092 0.178-1.303 5.531-6.375 7.438 2.643 0.158 0.311 3.596 0 4.248 5.242 0.088-0.008 4.025 0 4.25 0.007 0.201 2.622 1.229 2.125 2.125-0.964 1.734-4.248 0.486-4.25 3.186 1.296 0.121 2.516 0.318 2.125 2.125-5.092 3.67-7.102 13.023-6.374 20.186-2.111 0.014-1.352 2.898-4.249 2.125-0.238 2.008 1.197 2.344 1.062 4.25-6.368 3.547-7.394 12.436-13.811 15.936 1.363 5.562-8.629 24.457 1.062 25.496-1.723 0.76-1.723-5.01 0-4.25 1.862 0.971 3.691 1.977 3.187 5.312 2.635-1.379 5.156 2.371 5.312 0-1.562-0.008-5.335-2.957-2.125-4.25 3.917 2.195 5.524 3.758 9.562 1.062 1.77 2.111-0.096 1.352 0 4.25 1.587 0.051 6.057 4.145 5.312 0 0.325-3.32-3.07 2.699-3.187-1.062 0.238-0.824 0.029-2.098 1.062-2.125 5.597 2.734 12.021 1.975 16.998 1.062 1.679 1.684-1.222 7.209 1.063 5.312-0.951-3.711 3.465-1.814 4.25-1.062-2.223-5.545 3.902-2.889 4.25-3.188 1.85-1.594-1.198-5.793 3.187-4.25 1.984 1.891-0.862 2.701 0 6.375 5.198 0.199 1.306-13.023 6.374-9.562 2.461-8.873-5.579-16.049-1.062-20.186-3.299-4.9-2.337-8.385-3.187-14.871h3.187c-0.297-7.689-2.78-14.686-1.062-20.186 2.089-0.318 2.106 1.434 3.188 2.125-2.897-6.924 1.041-7.9 2.125-14.875-2.421 0.297-3.994-0.256-4.25-2.123 7.707 2.26-0.508-5.242 6.375-4.25 1.562-4.041-4.749-0.209-3.187-4.25 5.759-1.609 5.842-5.123 2.125-6.373 0.652-1.475 4.09-0.16 4.249-2.125-1.979-0.146-3.551-0.699-4.249-2.125 0.652-1.475 4.09-0.16 4.249-2.125-3.561-2.256 1.712-7.82-1.062-9.561 2.11-1.771 1.35 0.096 4.249 0-5.37-7.002 2.938-13.139 0-20.186 1.416-2.605 3.207 1.914 4.25-1.062-2.551-2.562-1.529-6.268 2.125-8.5-0.824-0.236-2.096-0.029-2.125-1.061-0.479-9.852 7.002-15.167 4.25-25.498 4.231-3.481 3.926-7.363 2.124-11.687 2.39-1.48 3.96 2.72 4.21-0.02zm37.19-5.31c0.154-1.255 1.893-2.409 0-3.188-0.16 1.26-1.9 2.41 0 3.19zm145.54 11.69c-1.436-0.333-2.027-1.511-4.248-1.062-1.7 2.95 4.59 2.93 4.25 1.06zm-388.83 3.18v2.125h2.125c-0.121-1.29-0.318-2.51-2.125-2.12zm4.249 1.07c0.057-1.828-0.818-2.724-2.125-3.188-0.056 1.83 0.818 2.72 2.125 3.19zm386.71 2.12c1.629 1.808-1.52 11.252 3.188 12.748 3.215-4.571 4.008-10.382 1.062-14.872 0.76 2.88-5.01-0.76-4.25 2.12zm-384.58 0c-3.578-3.23-3.221 3.93 0 0zm23.372 1.06c-2.721 1.152-5.065-3.228-6.375 0 0.738 0.83 5.929 2.37 6.375 0zm69.05 23.38h3.187c-0.167-1.252 0.182-3.016-1.062-3.188-0.1 1.67-2.71 0.83-2.13 3.19zm46.75 2.12c0.732-2.857-2.196-2.053-3.187-3.188-0.73 2.86 2.2 2.06 3.19 3.19zm-54.18-1.06c-6.829 5.566-21.608 3.182-29.746 7.438 10.109 6.986 25.393-0.059 31.87-6.375-0.23-0.84-0.89-1.25-2.12-1.07zm117.92 2.12c2.635 0.156 5.156 0.199 5.312-2.125-1.89 0.59-4.41 0.55-5.31 2.13zm7.44 2.13c-10.21 1.53 4.53 0 0 0zm-158.3 4.25c-1.869-0.256-2.421-1.828-2.125-4.25h-4.25c-2.018 4.92 4.128 7.11 6.375 4.25zm155.11 1.06c2.422 0.295 3.995-0.256 4.25-2.125-2.42-0.29-3.99 0.26-4.25 2.13zm-73.3 1.06c-1.415 0.158-3.207-4.32-4.249-1.062 1.41-0.16 3.95 3.57 4.25 1.06zm222.03 12.75c4.158 0.68 8.037-5.582 4.25-6.375-2.05 1.49-3.15 3.94-4.25 6.38zm-226.28-1.06c-1.554-0.912-7.993-5.914-6.374-3.188 1.99 0.56 4.91 5.59 6.37 3.19zm76.49 0c3.226-1.377 8.519-0.688 10.624-3.188-4.68-0.08-9.13 0.07-10.62 3.19zm0 4.25c3.304-1.654 8.891-1.025 10.624-4.25-4.13 0.82-9.07 0.84-10.62 4.25zm-78.62-1.07c-1.415 0.158-3.207-4.32-4.249-1.062 1.42-0.16 3.21 4.32 4.25 1.06zm185.92 15.94c0.916 2.625 3.184 3.898 6.375 4.25 3.408 0.932 2.201-2.756 4.248-3.189 7.152 2.32 14.227-4.02 21.248-5.311 0.424-6.324 11.057-8.039 8.5-13.811-8.8 10.68-23.3 15.66-40.38 18.06zm-189.1-12.75c-1.999-0.564-4.917-5.594-6.374-3.188 2.08 0.48 5.3 5.2 6.37 3.19zm81.8 2.13c3.494-1.463 9.081-0.836 10.624-4.25-4.13 0.82-8.7 1.21-10.62 4.25zm-82.87 2.12c-2.449-0.801-5.396-6.564-7.438-4.25 2.45 0.8 5.4 6.56 7.44 4.25zm86.05 1.06c4.895-1.34 6.151-0.084 3.188 3.188 3.838-0.412 7.09-1.41 9.562-3.188-1.543-0.58-5.491 1.242-5.311-1.061 1.106-0.533 6.217-3.984 3.187-2.125-4.69-0.08-9.13 0.07-10.63 3.18zm-91.36 0c-1.416 0.158-3.206-4.318-4.25-1.061 1.41-0.15 3.95 3.57 4.25 1.06zm2.13 2.13c5.43 7.6-1.6-2.23 0 0zm-2.13 3.19c9.087 6.535-5.398-5.246-4.25-2.125 1.38 1.7 3.5 1.58 4.25 2.12zm91.36 3.18c3.338 0.021 5.927-3.506 8.5-1.061-0.045-1.463 0.501-2.334 1.062-3.188-2.95 1.65-7.95 1.25-9.56 4.25zm-92.42 1.06c-2-0.564-4.917-5.594-6.374-3.188 2.08 0.48 5.31 5.21 6.37 3.19zm92.42 3.19c4.091-2.639 11.774-1.684 14.874-5.312-5.67 1.05-11.91 1.54-14.87 5.31zm-92.42 7.44c-4.031-1.311-6.647-9.604-10.624-7.436 4.19 1.15 7.9 8.35 10.62 7.44zm98.8-5.31v4.252c2.96-0.938 6.464-1.328 8.499-3.188-3.09-0.926-1.195-1.592-1.062-4.25-7.01-1.29-2.84 5.77-7.44 3.19zm-106.24 5.31c0.28-2.174-4.123-4.92-4.25-3.188 2.17 0.31 2.09 2.88 4.25 3.19zm0 4.25c-1.575-2.02-5.774-6.904-7.438-5.311 2.93 0.66 5.41 7.27 7.44 5.31zm99.86 1.06c3.591-2.102 13.809-3.154 12.749-6.373-3.94 2.43-9.98 2.76-12.75 6.37zm11.69 0c2.798-0.107 10.505-0.732 7.437-3.188-0.8 2.75-7.86-0.77-7.44 3.19zm-9.56 4.25c0.87-3.023 7.683-0.107 7.436-4.25-2.99 0.26-10.31 1.65-7.44 4.25zm-108.36 5.31c-2.882-2.775-1.452-3.256 0-6.375-2.837-2.932-2.308 1.256-5.312 1.064-0.51 3.25 7.95 6.79 5.31 5.32zm111.55-3.19c4.144-1.875 10.938-1.102 13.811-4.248-5.49 0.54-11.66 0.39-13.81 4.25zm-5.32 7.44c0.458-2.939 3.343-0.053 2.126 2.125 6.726-2.129 14.951-2.756 20.185-6.375-3.293-1.398-5.893 3.148-7.438 0 1.369-2.172 5.963-1.119 6.375-4.25-7.41 1.81-20.76 3.31-21.26 8.5zm-122.17 31.87c1.84-2.111 4.652 3.787 6.375 5.311 0.312-0.941 2.875-4.648 3.187-2.123-1.474 1.357-0.65 5.016-2.125 6.373 3.149-3.512 8.258-6.076 11.686-2.125 2.404-2.553 3.953-5.961 7.437-7.436 0.318-2.088-1.435-2.105-2.125-3.188 1.169-11.439-7.731-12.807-9.562-21.248-8.924-9.299-35.517-24.564-43.557-4.25h7.436c1.678 4.215 0.777 4.4 4.249 6.375 0.916 5.205-7.094 7.018-4.249 10.625 1.583-2.666 2.648-5.854 5.312-7.438 0.824 6.109 2.679 1.42 5.312 3.188-0.096 1.674-2.71 0.832-2.125 3.188 1.81 0.668 1.749 3.209 3.187 4.248 0.436-1.334 1.37-2.17 3.187-2.123 1.378 2.637-2.37 5.154 0 5.311 3.24-1.11 6.45 2.72 6.37 5.32zm12.75-33.99c-1.675-0.096-0.832-2.709-3.187-2.125-1.67 2.94 2.76 4.77 3.19 2.13zm129.61 3.18c2.422 0.297 3.994-0.256 4.248-2.125-2.42-0.29-3.99 0.26-4.25 2.13zm-13.81 4.25c3.881-2.137 11.176-0.863 12.749-5.311-5.12 0.9-9.88 2.16-12.75 5.31zm-6.38 7.44c5.664-3.543 14.932-3.482 19.124-8.498-7.44 1.76-14.3 4.1-19.12 8.5zm-154.04 4.25c3.287-3.5-0.166 1.807 2.125 2.125-0.021-1.59 3.947-4.346 1.062-5.311-0.234 0.826-0.89 1.234-2.125 1.061-1.283-4.469 1.715-4.658 2.125-7.438-4.127-0.53-5.654 7.02-3.187 9.56zm163.61-4.25c4.98-1.395 11.712-1.037 13.812-5.312-5.54 0.84-10.04 2.7-13.81 5.31zm-158.3 0c0.254-1.516 1.75-1.791 2.125-3.188-2.188-0.93-4.771 2.75-2.125 3.19zm163.61 6.37c-0.414-1.516-1.275-1.793 0-3.188-5.305 0.141-0.424 4.309-5.312 5.312-16.32 4.572-28.632 13.152-40.37 22.309-1.517-0.254-1.792-1.748-3.187-2.125-0.177 3.719 0.281 6.801 2.125 8.5 0.242-1.883-1.071-5.322 2.125-4.25 1.542 2.707-0.691 9.189 3.188 9.561 0.148-3.051-2.953-8.283 0-10.623 3.925 0.166 0.241 10.334 3.187 9.562-0.21-14.121 3.853-2.273 4.249-1.064 0.632-2.199-1.312-6.977 1.063-7.436 2.5 1.039 0.951 6.131 3.188 7.436 0.785-6.1 2.568-0.498 4.249 1.064 0.647-2.541-1.334-7.709 1.063-8.5 3.649 2.17-0.537 6.646 3.187 7.436 0.182-1.588-0.379-3.918 1.062-4.248 2.19 0.289 0.253 4.705 3.187 4.248 0.582-1.541-1.241-5.49 1.063-5.309 2.006 0.115 0.737 3.51 3.188 3.184 0.1-1.668-0.143-3.682 2.125-3.184 0.165 1.248-0.183 3.014 1.062 3.184 0.515-1.254 1.133-2.406 2.125-3.184 0.514 1.254 1.132 2.406 2.124 3.184 2-1.871-1.452-3.289 2.125-4.248 2.776 0.676 3.255 0.24 6.374 2.125-0.805-5.371 2.781-2.162 4.25-1.061 1.625-5.131 7.227-3.879 11.686-4.252-0.635-7.305 3.143 1.357 4.25-2.125-1.572-4.396 7.863-3.82 8.498-7.436 3.262 5.309 2.25 13.73 4.25 16.996 12.654-17.332-4.537-37.348-26.561-36.119 0.46 5.06-5.57 3.63-9.55 4.25zm-48.87 1.07c-1.313-3.438 3.437-0.812 2.125-4.25h-2.125c-0.648 0.061-1.258 0.158-1.063 1.062 3.31-0.33-2.71 3.07 1.05 3.19zm3.19 35.05c-0.146-1.977-0.699-3.551-2.125-4.25 0.24 1.89-1.08 5.32 2.12 4.25zm-39.31 15.94c-4.29-3.74-2.51 3.42 0 0z"></path> <path fill="#FFFFFF" d="m121.58 71.714c-1.7 2.979-4.782-1.491-8.5 0-2.553 1.761-0.881 6.986-2.125 7.438-4.395 0.276-4.274-1.262-3.187-4.25-4.526-0.079-7.431-1.777-12.749-1.062-1.017 3.85 4.585 1.081 5.312 3.187-1.829 1.004-1.739 3.928-5.312 3.188-3.109-1.141-3.362-5.137-8.499-4.25 1.23-1.572 1.23-2.677 0-4.25-2.815 2.639-0.582 5.59-8.5 4.25 0.869 2.673 5.602 1.481 7.438 3.188-3.894 4.222-10.059 0.822-13.811-1.063-0.76-2.884 5.009 0.76 4.249-2.125-2.515-1.306-7.994-3.161-10.624-1.062-0.42 2.546 4.839-0.589 3.188 3.187-5.93-0.658-9.622-1.129-18.062-1.062 4.892 3.607 14.355 2.643 21.249 4.25-4.462 6.516-13.862 8.094-19.123 13.811-5.379 14.144-12.227 32.5-7.437 49.931 3.628 13.202 14.587 21.128 24.435 26.56-0.237 1.518-5.288-0.986-8.5 0-0.096-2.898 1.77-2.139 0-4.25-6.396-0.226-15.684-2.393-20.185-1.062 2.212 1.986 5.492 1.253 3.187 5.312 22.309 1.525 33.599 5.082 52.057 4.25 3.336-0.503 2.807 2.859 5.312 3.187 3.918-0.774-0.452-3.197 2.125-5.312 16.41-2.45 34.068-19.181 36.121-37.183 0.665-5.841 1.068-18.772-3.188-22.31-3.271-10.705-9.15-20.862-18.061-26.56-5.139-3.287-12.57-2.263-16.998-7.436 6.844 0.821 11.228 1.641 20.186 2.125 3.276 1.996-6.145 0.129-6.375 2.125 5.806 3.06 19.312 4.044 25.498 3.187 7.124 6.692 13.629 19.651 14.874 28.685-7.05 0.786 2.265-3.439-3.188-4.25-3.996-0.808-0.733 5.642-5.312 4.25-1.77-2.111 0.096-1.351 0-4.25-3.422 0.234-4.495-1.879-8.5-1.062 0.514 3.685 4.034 2.712 6.375 2.126 1.702 4.181-4.588 0.369-4.25 3.187 3.306 2.714 9.965 2.075 15.935 2.125 2.702 16.403-0.71 33.024-8.499 45.681-0.752 1.224-3.201 1.812-4.249 3.188-1.272 1.671-1.551 4.724-2.125 5.312-2.967 3.039-16.546 12.407-22.311 13.811-5.829 1.42-11.132 8.395-20.185 5.311-1.651-3.775 3.608-0.639 3.187-3.186-0.899-1.58-3.42-1.537-5.312-2.125 0.171-1.244 1.938-0.896 3.187-1.062-1.306-3.652-8.362-1.553-11.685-3.187-0.035 3.222 3.727 2.648 6.374 3.187-3.041 4.229 4.861 4.271 0 8.498-3.42-5.889-9.016-3.521-16.998-5.311-2.355-0.586-1.513 2.029-3.187 2.125-31.199-8.109-48.342-30.274-48.869-69.055 1.28-1.199 1.925-3.032 5.312-2.125 0.496-2.267-1.518-2.023-3.187-2.125 0.543-31.681 20.165-44.286 43.558-53.119 3.389-0.911 3.286 1.672 5.312 2.125 0.39-1.807-0.829-2.004-2.125-2.125 15.116-5.06 37.605-0.416 46.775 7.413zm-12.75-4.249c-1.638 3.207 5.497 2.795 5.312 1.062-1.23-0.892-2.85-1.401-5.31-1.062zm-75.429 83.925c3.717-0.175 6.8 0.282 8.499 2.125-4.269 1.29-7.773-2.812-8.499 1.063 3.415 1.897 10.005 0.618 13.81 2.125-1.998-3.663-1.998-2.712 0-6.374-4.39 1.08-12.065-4.27-13.81 1.06zm4.249 11.69c5.516-0.619 16.215 3.923 18.06 0-6.17 0.87-15.084-4.48-18.06 0zm108.36-1.06c-6.133-0.241-11.733-1.016-16.998-2.125 1.61 3.81 16.86 6.97 17 2.12zm-22.31-73.308c-0.739 4.279 5.286 1.797 6.374 4.249-1.296 0.121-2.515 0.319-2.125 2.126 1.433 2.108 7.416-0.335 7.436 3.187-1.589 0.181-3.921-0.38-4.25 1.062 4.05 2.678 12.031 1.426 16.998 3.187 2.202-1.377-2.873-7.745-4.249-5.312 1.392 0.016 1.353 2.946 0 3.187-0.346-2.488-4.635-1.032-5.312-3.187 2.134-2.167-0.469-2.083-1.062-4.25 2.007-0.47 6.402 1.446 5.312-2.125-6.6-0.478-12.71-1.449-19.12-2.126zm-69.052-13.811h2.125v-2.125h-2.125v2.125zm46.742-6.374c-0.87-3.733-6.349-2.857-10.623-3.187 0.871 3.734 6.351 2.858 10.623 3.187zm-24.432 1.062c2.703 0.548 4.119 1.811 4.249-2.125-2.421-0.297-3.993 0.257-4.249 2.125zm30.812 0c1.702-2.958-4.588-2.937-4.25-1.062 2.01-0.237 2.34 1.197 4.25 1.062zm-9.565 2.125c-0.371-3.878-6.854-1.645-9.561-3.187-1.422 5.671 6.225 2.275 9.561 3.187zm-30.809 0c-0.097 1.75 14.667 2.511 15.936 2.125-2.744-3.708-15.818-4.231-15.936-2.125zm41.434 2.125c0.486-3.319-2.27-3.396-5.312-3.188-0.39 3.224 3.46 2.206 5.31 3.188zm-18.061 1.062h2.125v-2.125h-2.125v2.125zm-31.872 1.063c2.008-0.471 6.403 1.445 5.312-2.125-2.007 0.471-6.402-1.445-5.312 2.125zm-9.562 6.374c2.743 0.852 10.293 2.386 12.749 0-3.445-0.484-11.413-4.013-12.749 0zm-2.124 4.249c2.422 0.296 3.995-0.256 4.25-2.125-1.882 0.243-5.321-1.07-4.25 2.125zm6.375 0c2.502-0.023 3.128 1.83 6.374 1.062 1.167-4.147-6.329-4.257-6.374-1.062zm-14.874 2.125c6.158-0.137 10.037 2.004 15.936 2.125-1.214-4.088-13.781-5.776-15.936-2.125zm-2.124 3.187c0.147 1.848 15.967 1.667 15.936 2.125-2.886-3.88-16.051-3.576-15.936-2.125zm-1.063 4.249c4.348 0.101 12.438 4.692 14.873 0-6.112-0.451-12.495-3.888-14.873 0zm5.312 6.372c-4.917 0.972-7.667-2.491-9.561 1.062 3.965 1.701 10.312 1.02 14.873 2.125-0.767-3.246 1.087-3.871 1.062-6.374-5.438 0.834-7.716-1.49-12.748-1.062-0.979 4.526 7.012 0.08 6.374 4.256zm93.493 2.13h3.188c0.136-1.907-1.056-2.486-3.188-2.125v2.13zm5.31 1.06c3.346-1.191 2.405-0.096 6.374 0-0.331-5.228-3.554-1.407-6.374-3.187v3.19zm7.44 0c1.462-0.046 2.333 0.501 3.187 1.062 0.49-3.3-2.87-3.98-3.19-1.06zm-103.06 3.19c-1.49-3.821-8.512-2.11-12.748-3.187 1.206 4.11 7.752 2.87 12.748 3.19zm95.616 0c0.191-2.317-0.871-3.38-3.188-3.187-0.19 2.32 0.87 3.38 3.19 3.19zm1.06 0h2.125v-2.125h-2.125v2.12zm11.69 0c-3.58-3.23-3.23 3.92 0 0zm-109.43 4.25c-0.87-3.735-6.35-2.858-10.624-3.188 0.87 3.73 6.35 2.86 10.624 3.19zm-11.686 3.18c2.481-2.119 5.986 1.982 8.499-1.062-1.056-0.93-9.2-2.95-8.499 1.06zm10.623 3.19c-1.104-1.121-7.585-2.194-8.499 0 1.105 1.12 7.587 2.2 8.499 0zm105.18 1.06c-1.255-1.223-3.755-1.202-6.374-1.062-1.51 3.39 6.35 2.69 6.37 1.06zm3.18 2.13c1.882-0.242 5.32 1.071 4.249-2.125h-4.249v2.13zm-108.36 2.12c-1.465-3.847-7.846-2.777-12.748-3.187 1.465 3.85 7.846 2.78 12.748 3.19zm107.3 1.07c0.035-3.222-3.727-2.646-6.374-3.187-1.5 4.68 3.49 2.88 6.37 3.19zm2.12 4.24c4.397 0.857 5.452-1.629 5.312-5.312h-3.187c1.55 4.02-2.91 2.04-2.12 5.31zm-113.67 0c-4.375 0.835-5.452-1.63-9.562-1.062 0.274 5.039 8.029 2.594 12.748 3.188-1.806-3.962 0.628-1.683 1.062-5.312-3.053 0.149-8.284-2.953-10.624 0 1.364 1.82 6.355 0.02 6.376 3.18zm104.11 6.38c3.917 1.395 9.667 0.956 13.811 2.125-0.955-3.11-0.955-3.264 0-6.374-5.345 0.739-7.405-1.803-12.749-1.062 1.18 3.33 0.5 2.8-1.06 5.31zm-111.55-1.06h3.188c0.137-1.908-1.056-2.486-3.188-2.125v2.12zm9.562 1.06c0.323-2.802-2.218-2.74-4.25-3.187-0.32 2.8 1.472 3.49 4.25 3.19zm3.187 2.12c-2.809-2.149-9.754-0.162-12.749-2.125-0.099 4.54 12.291 4.84 12.749 2.12zm104.12 3.19c2.414-0.773 8.288 1.914 7.436-2.125h-7.436v2.13zm-117.93 1.06c5.344-0.741 7.405 1.803 12.748 1.062-1.176-3-11.442-4.84-12.748-1.06zm121.11 1.07c-1.344-1.219-8.376-2.134-9.561 0 2.55 0.54 6.33 2.07 9.56 0zm-120.05 2.12c0.143 1.346 9.886 3.235 13.811 1.062-5.207-1.1-14.074-3.55-13.811-1.06zm108.37 2.12c1.882-0.242 5.321 1.071 4.25-2.125h-4.25v2.12zm8.5 2.13c-2.94 0.954-9.973-2.183-9.561 2.125 7.285 0.024 8.19 0.358 13.81 1.062-1.18-3.334-0.497-2.806 1.062-5.312-2.008 0.239-2.344-1.197-4.25-1.062-2.35 1.52 1.34 2.59-1.06 3.18zm-6.38 7.44c-1.473 0.097-1.117 2.71 1.062 2.125-1.045-4.206 4.091-2.151 7.436-4.25-4.294-1.372-9.061-2.271-14.874-2.125-0.58 4.11 6.16 0.92 6.37 4.25zm-105.18 1.06c5.898 0.123 9.777 2.262 15.936 2.125-2.068-3.24-14.635-4.93-15.936-2.13zm103.06-1.06c-2.502 0.024-3.128-1.829-6.374-1.062-0.05 3.01 6.59 3.98 6.37 1.06zm5.31 3.18c1.883-0.242 5.32 1.07 4.249-2.125h-4.249v2.13zm-21.25 6.38c2.466 6.361-7.532 0.259-6.375 5.312 3.005 0.182 7.288-0.914 7.437 2.124-3.652 0.466-5.956-0.419-8.5-1.062 0.505 3.017-2.895 4.248-1.062 7.436-1.883 0.243-5.32-1.07-4.249 2.126 6.501 1.437 6.342-5.425 11.687-2.126 0.931-3.409-2.756-2.201-3.188-4.249 2.541-0.646 7.708 1.334 8.5-1.062-3.104-2.418 1.353-2.007 3.187-1.063-1.09-3.88-2.87-7.06-7.44-7.44zm13.81 7.43c-1.637-5.154-0.858-6.003 2.125-9.56-3.725-0.524-6.915-1.584-11.686-1.064-0.979 4.521 7.012 0.071 6.374 4.25-2.008 0.471-6.402-1.445-5.312 2.125 5.93-1.68 2.18 6.32 8.5 4.24zm-83.927 0c-1.233-0.891-2.848-1.4-5.312-1.062-0.62 4.31 4.371 3.38 5.312 1.06zm2.125 2.13c4.22-0.68 5.734 1.349 7.436 3.188-1.313-3.438 3.438-0.812 2.125-4.249-1.48 0.53-8.433-3.53-9.561 1.06zm23.372 4.25c-4.64 0.746-5.983-1.806-10.624-1.062-0.146 3.96 4.576 1.784 6.375 2.125 3.479 0.658 9.034 3.488 10.623 0-1.978-0.146-3.55-0.698-4.25-2.125 4.728-0.831 6.376 1.415 10.625 1.062-0.644-5.399-14.79-2.883-16.998-3.187 1.411 1.07 3.953 1.01 4.249 3.19zm27.62-2.13c2.008-0.47 6.402 1.445 5.312-2.125-2 0.48-6.4-1.44-5.31 2.13zm-39.307 0c-0.938-0.815-3.034 0.653-3.187 1.062-1.501 4.01 5.287 0.77 3.187-1.06zm33.997 1.07c-2.544-0.643-4.846-1.527-8.499-1.062 0.21 3.07 8.077 4.58 8.499 1.06zm1.06 2.12c0.211 1.492 6.95 0.677 6.375-2.125-2.18 0.64-7.37-1.72-6.37 2.12zm-37.181 3.19c9.264-0.766 21.305 5.832 27.622 1.062-8.338-0.16-22.422-4.71-27.622-1.06zm37.181 1.06c1.883-0.242 5.321 1.07 4.25-2.125h-4.25v2.13z"></path> <path fill="#FFFFFF" d="m518.9 69.589c0.725-2.642 3.234 1.571 4.25 2.125-0.96 2.878-2.37-2.429-4.25-2.125z"></path> <path fill="#FFFFFF" d="m114.14 79.151c0.64-0.908 6.359-2.736 1.062-3.188 4.797-1.683 11.556-2.449 14.874 0-3.913 2.021-6.604 0.334-11.687 0-0.824 5.115 10.549 3.562 12.749 2.125 2.926 0.542 5.434 6.956 2.125 2.125-7.59 1.974-11.97 0.265-19.12-1.062z"></path> <path fill="#FFFFFF" d="m522.09 73.839c2.885-0.76-0.76 5.01 2.125 4.25-0.88 2.59-4.38-3.334-2.13-4.25z"></path> <path fill="#FFFFFF" d="m56.773 97.211c1.763 3.039-4.419 5.959 0 0z"></path> <path fill="#FFFFFF" d="m91.831 98.274c4.533-4.185 14.058 6.821 15.936-1.062 2.642 0.16 0.311 3.598 0 4.25 6.083 4.186 9.15 11.389 15.936 14.873 1.612 13.101-5.639 25.238-2.125 36.121-4.038 0.424-4.032 4.885-8.5 2.125-0.812 4.146-2.733 7.183-7.436 7.436 2.764 2.598 1.159 3.9-4.25 5.313-2.124 0.555-5.247-0.678-7.436 0-1.774 0.549-1.963 2.581-3.187 3.187-2.637 1.304-6.719-1.505-6.375 2.125-16.907-8.235-36.387-13.899-33.996-41.432 0.855 0.562 1.725 1.109 3.188 1.062-0.972-6.638 2.618-8.715 3.187-13.811 5.436 1.264 6.976-6.02 9.561-10.625-0.334 7.45-6.502 13.629-5.312 24.436 0.901 8.16 5.335 14.148 9.562 20.185 7.537 3.19 14.208 6.994 23.372 6.374 34.586-2.34 37.326-59.046-2.123-60.556z"></path> <path fill="#FFFFFF" d="m361.67 224.7c-2.385-1.156-4.615-2.469-7.438-3.188 2.639-3.252 6.449 1.271 10.623 0 0.867-4.408-6.549-0.533-7.436-3.188 1.129-2.412 6.678-0.404 9.561-1.062-0.463-1.309-1.359-2.182-3.186-2.125 0.791-2.396 5.957-0.416 8.498-1.062 0.498-2.268-1.52-2.023-3.188-2.125 1.35-4.807 4.264 2.781 6.375-2.123-2.15-2.148-11.637-2.785-8.5 1.061-1.174 2.125-5.705-1.293-9.561 0-0.951 3.43 3.465 1.494 4.25 3.188-1.605 2.908-7.17-2.363-9.561 1.062 0.697 1.426 2.27 1.979 4.248 2.125-1.174 2.123-5.705-1.295-9.562 0 0.424 3.889 6.309 1.559 3.189 6.375 3.352-0.52 3.75 1.912 7.436 1.062-0.91 4.146-4.213 1.662-6.375 2.125-3.619 0.773-5.301 0.76-10.623 1.061-2.461 0.141-3.721 2.148-5.311 2.125-49.471-0.734-82.214-63.026-46.746-104.11 1.979 3.011 10.932 4.608 14.873 2.125-3.324-1.633-8.225-1.691-12.748-2.125-0.545-2.82 2.246-6.33 4.25-8.499 14.9-16.136 46.529-22.53 69.055-12.749 14.98 6.507 24.471 19.413 32.934 28.685 7.701 19.268 8.939 41.373 0 58.429-7.36 14.05-20.73 27.22-35.04 32.91zm22.31-22.31c-3.939 0.752-4.559-1.814-8.498-1.062-0.682 3.869 5.061 1.312 5.311 4.25-1.67 0.1-3.682-0.143-3.186 2.125 2.502-0.023 3.129 1.83 6.373 1.061-0.94-3.11-0.94-3.26 0.01-6.37zm-78.61-76.49c-1.49-4.078-4.043-2.296-1.062-6.374-1.85 0.081-3.305-0.237-4.25-1.062-1.133 2.052-0.736 5.637-5.311 4.249-0.6 5.18 6.67 2.52 10.62 3.18zm19.12-13.82c4.969 3.158 12.305-0.747 13.811 4.25-5.309 0.582-5.199-0.023-9.561 1.062 0.771-3.507-8.613-6.122-8.5-2.125 1.205 2.337 7.01 0.074 7.436 3.187-4.352 1.151-6.584 1.254-9.559-1.062 1.957 3.652-0.619 4.629-4.25 5.312-0.055-4.624 1.594-4.884-1.064-7.436 1.908-0.306 7.43-5.621 3.189-5.313-2.488-3.768-1.359 4.917-6.375 2.125 1.945 5.115-4.596 2.545-6.375 6.375 2.541 0.646 7.709-1.334 8.5 1.062-1.99 2.023-0.117 2.668 0 5.312-11.652 7.592-19.928 20.58-21.248 35.058-2.611 28.656 18.035 50.722 46.744 53.119v3.188c-3.471-0.779-9.135 0.639-8.498-4.25-3.777-1.65-0.643 3.609-3.188 3.188-1.861 0.295-5.301-2.992-6.375 0 2.637 3.385 11.91 0.131 13.812 4.25-2.201 0.631-6.98-1.314-7.438 1.062 2.002 1.311 8.709 0.174 11.686 3.188-7.326-0.01-9.1-1.387-18.061-1.062 4.76 5.23 15.557 2.338 25.496 4.25 1.035-4.221-5.936-0.438-5.311-4.25 2.01-0.238 2.344 1.197 4.25 1.062 0.828-5.787-8.727-1.189-9.562-5.312 4.057-0.949 6.781 1.734 8.5 0 1.701-4.182-4.59-0.369-4.25-3.188 0.414-1.516 1.275-1.791 0-3.188 20.904 0.012 32.367-9.418 41.434-21.246 0.338-2.465-0.172-4.078-1.064-5.312 4.848 1.305 3.357-3.726 6.375-4.25 8.256-35.551-11.396-58.643-39.307-64.804-0.133 2.346-4.508 0.451-6.375 1.062 1.736-3.491 0.92-5.222-2.125-6.375 2.188-2.49 5.389 2.099 5.312-3.187-7.71 1.42-19.29-6.8-18.06 4.25zm-15.93 11.69h-2.125v2.125h2.125v-2.13zm-10.63 8.5c0.029 0.074 2.693 1.555 3.188 1.062 1.96-1.95-4.89-5.11-3.19-1.06zm10.63 73.3c-1.562 3.098 4.748 3.098 3.188 0h-3.19zm62.68-2.12h2.125v-2.125h-2.125v2.13zm7.43-74.37c-1.434-0.334-2.027-1.512-4.248-1.062v3.188c2.42 0.29 4-0.26 4.25-2.13zm-4.25-2.12c1.016-1.979-3.182-3.55 0-4.25 1.232 0.892 2.848 1.401 5.312 1.062-0.768 4.664 3.541 4.249 7.436 4.249 0.738-4.279-5.285-1.797-6.375-4.249 1.545-0.581 5.492 1.241 5.314-1.062-5.139-1.236-5.965-6.785-12.75-6.374 0.057-1.358 1.361-1.471 1.062-3.187-2.535-0.582-7.699-3.957-8.498 0 0.643 1.834 5.039-0.082 5.311 2.125-3.578 1.87-5.449-0.715-10.623 0 2.346 5.091 14.564 0.309 16.998 5.312-6.98 0.896-13.102-3.978-16.998 0 2.992 1.963 8.98 0.934 11.686 3.187-2.939-0.18-3.646 1.633-2.125 3.187 1.41-0.01 2.83-0.01 4.24-0.01zm-43.56-21.25c0.193-2.317-0.869-3.38-3.188-3.187-0.19 2.32 0.88 3.38 3.19 3.19zm17 0c-1.418-1.769-6.02-0.356-7.438-2.125-1.22 4.52 7.82 4.85 7.44 2.13zm6.38 2.12c0.391-3.223-3.459-2.206-5.312-3.187-0.49 3.33 2.27 3.4 5.31 3.19zm-35.06 4.25c2.625-0.915 3.9-3.184 4.25-6.374h-6.375c-0.19 3.01 3.59 2.07 2.12 6.37zm30.81-3.18h-6.375c0.21 3.56 6.58 4.07 6.37 0zm8.5 2.12c-1.357-0.058-1.473-1.361-3.188-1.062-1.65 2.61 3.61 3.12 3.19 1.06zm-17 3.19c4.822 1.137 13.525 3.068 16.998 2.125-2.99-3.67-14.9-4.71-17-2.13zm42.49 15.93c-1.357-0.058-1.471-1.361-3.188-1.062-1.65 2.62 3.61 3.13 3.19 1.06zm-93.48 3.19c-1.297 0.121-2.516 0.317-2.125 2.125 3.25-0.771 3.125 1.833 6.375 1.062 0.93-3.411-2.756-2.203-3.188-4.249 2.008-0.471 6.402 1.444 5.312-2.126h-7.438c-0.06 1.47 0.49 2.34 1.06 3.19zm88.17 1.07c3.658 2.363 11.898 0.142 15.938 2.125-2.15-2.75-13.79-6.35-15.94-2.12zm-93.49 4.24c3.84 1.82 4.299 0.411 2.125 4.25 2.479 0.323 4.578 2.268 5.312-1.062-4.469-0.74 1.016-4.836-3.188-5.312-0.95 2.91-3.9-2.08-4.24 2.12zm96.68 0c2.492 0.339 3.986 1.679 7.434 1.062-0.012 2.111-2.896 1.351-2.123 4.25 3.229-0.667 9.152 1.36 10.625-1.062-3.918-0.774 0.451-3.196-2.125-5.312-2.422-0.297-3.994 0.256-4.25 2.125 1.256 0.516 2.408 1.133 3.188 2.125-4.22-0.51-9.23-8.72-12.76-3.18zm-100.93 5.32c-1.092 3.57 3.303 1.654 5.311 2.125-0.36-3.75-2.78-2.75-5.31-2.12zm8.5 5.31c-3.402-1.202-7.047-2.162-11.686-2.125 0.12 3.83 9.21 4.19 11.69 2.13zm106.24 3.19h2.125v-2.125h-2.125c-0.01 0.7-0.01 1.41-0.01 2.12zm-118.99 1.06c3.346-1.191 2.406-0.096 6.373 0 1.53-3.32-7.89-3.32-6.37 0zm10.63 6.37c-1.295 0.12-2.516 0.319-2.125 2.125h3.188c0.117-6.208-1.006-4.566 1.062-9.56-1.85 0.08-3.305-0.238-4.25-1.063 0.984 4.622-4.32 4.791-9.561 3.188 1.71 5.95 9.45-0.43 11.69 5.3zm111.55-3.19c3.918-4.126-12.182-4.739-11.686-2.125 5.172 1.428 5.59 5.455 2.123 8.499 5.766 0.27 6.68 0.562 10.627 1.062 1.021-3.854-4.775-0.891-4.25-4.249 1.67-0.101 3.684 0.143 3.186-2.125-1.891-0.587-4.412-0.545-5.311-2.125 3-0.88 2.75 1.5 5.31 1.06zm-115.8 3.19c-0.457-2.375-5.236-0.43-7.436-1.062-0.38 2.59 8.47 4.58 7.44 1.06zm-6.38 8.5c1.543-0.581 5.49 1.241 5.312-1.062-1.828 0.056-2.725-0.818-3.189-2.125 3.359-0.17 6.414-0.038 7.438 2.125-6.072 1.183 2.182 1.493 1.062 4.25-2.494-0.339-3.986-1.679-7.436-1.063-0.018 4.268 5.545 2.953 9.561 3.188 0.303-5.911-2.357-7.221-2.125-10.624-4.355 0.106-8.709 0.208-11.686-1.063-0.51 4.64 3.29 2.26 1.07 6.37zm112.61-2.12c7.822 0.901-1.504 1.402-1.061 4.249 5.346-0.74 7.404 1.803 12.748 1.063-2.328-2.69 1.945-6.024 0-7.438-2.89 4.09-10.66-3.12-11.69 2.13zm10.63 7.43c-0.457-2.375-5.236-0.431-7.438-1.062-0.35 2.56 8.01 5.04 7.44 1.06zm-112.61 5.31c-4.182 1.203-7.381-3.205-8.5 1.062 3.58-0.392 1.91 4.466 5.314 4.25-2.08-5.437 0.973-1.445 5.311-2.125 1.93-2.762-0.459-3.205 1.062-6.374-3.449 0.616-4.941-0.724-7.438-1.063-0.78 3.61 3.92 1.75 4.26 4.24zm100.92-1.06c1.463-0.046 2.334 0.501 3.188 1.062v-3.187h-2.127c0.01 1.07-0.86 1.27-1.06 2.13zm0 5.31c-0.932 3.41 2.756 2.201 3.188 4.25h-5.311c3.055 4.088 4.754 1.492 1.061 6.373h5.312c-2.811-4.562 2.438-1.861 3.188-5.311-1.256-0.516-2.408-1.133-3.188-2.125 2.287-1.609 5.205-2.586 6.373-5.313-3.119 0.103-11.779-3.761-12.746 1.063 3.715-0.176 6.801 0.281 8.498 2.125-3.24 0.78-3.12-1.83-6.37-1.06zm-110.48 1.07h3.188c0.137-1.908-1.057-2.487-3.188-2.125v2.13zm14.87 0c-1.232-0.891-2.85-1.401-5.312-1.062-0.41 3.28 5.11 4.32 5.31 1.06zm-5.31 3.18c-2.494-0.338-3.986-1.68-7.436-1.062 0.11 3.01 7.31 4.35 7.44 1.06zm2.12 2.13c2.008-0.471 6.404 1.445 5.312-2.125-2 0.46-6.4-1.45-5.31 2.12zm-2.12 2.12c-1.234-0.891-2.848-1.4-5.311-1.061-1.64 3.21 5.49 2.8 5.31 1.06zm6.37 2.13c1.066-0.004 1.266 0.859 2.127 1.062-0.004-1.066 0.859-1.264 1.062-2.123-1.066 0.002-1.266-0.861-2.125-1.064 0.01 1.06-0.86 1.26-1.06 2.12zm-8.5 3.18c3.975-0.078 7.344 0.447 9.562 2.125-1.297 0.121-2.516 0.318-2.125 2.125 1.256 1.225 3.754 1.203 6.375 1.062 2.457-2.664-3.127-3.361 1.061-5.312-2.11-1.12-12.07-4.31-14.88 0zm99.86 4.25c1.883-0.242 5.32 1.07 4.248-2.125h-4.248v2.12zm-93.48 4.25h3.188c0.137-1.906-1.057-2.486-3.188-2.125v2.13zm9.56 1.07h2.123v-2.125h-2.123v2.12zm70.12 0c1.234 0.891 2.848 1.4 5.312 1.062 1.02-3.91-5.22-4.23-5.31-1.06zm-74.37 3.18c1.701-2.959-4.59-2.938-4.25-1.064 1.44 0.34 2.03 1.51 4.25 1.06zm3.19 1.06c2.01-0.471 6.404 1.445 5.312-2.125-2.01 0.47-6.41-1.45-5.31 2.12zm10.62 1.07h3.189c0.137-1.906-1.057-2.484-3.189-2.123v2.12zm1.06 5.31c-3.422 0.234-4.496-1.879-8.5-1.062-0.51 2.549 3.172 2.908 4.25 3.188 4.111 1.064 15.32 2.232 16.998-1.062-4.523 0.627-7.027-0.764-10.623-1.062 0.254-1.516 1.748-1.791 2.125-3.188-5.625-1.105-11.385-2.072-18.061-2.125 0.74 5.61 12.22 0.51 13.8 5.3zm37.18-1.06c1.703-2.959-4.588-2.938-4.25-1.062 1.44 0.33 2.04 1.51 4.25 1.06zm-37.18 7.43c1.883-0.242 5.32 1.07 4.25-2.125h-4.25v2.13z"></path> <path fill="#FFFFFF" d="m80.145 139.71c-4.593-0.774-4.196 6.958-7.436 4.25 0.27-3.979 6.087-2.412 5.312-7.437-2.183-2.796-7.306 0.414-7.436 3.187-6.188-3.71 4.742-4.885 6.374-7.436-0.373-3.523-6.124-1.667-9.562-2.126 0.216-3.679 5.857-1.933 8.5-3.187 0.059-3.955-4.727-3.064-8.5-3.187 1.912-5.822 5.692 0.056 11.687-1.062 0.792-6.355-10.427-3.076-6.374-9.561 3.794 1.163 4.21 5.706 8.499 6.374 3.042-3.458-0.635-9.234-5.312-8.5 3.925-7.854 6.144 4.215 10.624 5.312 5.725-2.085-4.024-9.192-1.062-11.687 4.118 1.548 2.292 9.04 6.374 10.625 3.229-1.512 1.109-7.488-1.062-9.562 5.414-4.304 4.802 6.494 5.312 10.624 4.438-0.166 1.978-7.229 4.249-9.562 3.93 1.077-0.358 7.633-1.062 10.624 4.806 0.203 6.056-3.152 6.375-7.438 3.694 2.682 7.817 4.932 8.498 10.625-3.973 0.631-7.931 1.276-8.498 5.312 1.666 3.626 8.939-1.518 9.561 1.062-0.371 3.878-6.854 1.646-9.561 3.187v3.188c1.62 2.629 8.722-0.224 8.498 4.25-3.247 2.716-5.309-2.558-9.561-2.125-1.241 6.199 5.951 3.965 6.374 8.499-3.849 2.809-5.016-4.407-8.5-5.312-6.405 2.907 4.166 7.752 1.063 10.624-4.263-0.695-2.326-7.59-7.437-7.437-0.86 0.203-1.059 1.066-2.125 1.062 2.094 1.801 0.398 7.393 4.249 7.437-4.706 6.962-3.723-6.702-7.436-7.437-4.189-0.293-0.308 7.483-3.187 8.499-4.789 0.341 1.695-7.349-2.125-9.562-3.442 0.808-4.337 4.163-4.25 8.5-2.483-0.35-4.389-1.277-6.374-2.125 3.591-0.58 10.587-5.68 5.32-8.47zm21.245-17c5.068 0.819 4.715-3.784 9.562-3.187 0.47-10.55-9.83-1.84-9.56 3.19zm-22.307 6.37c-0.931 15.227 22.016 15.555 24.435 4.25 1.301-6.085-3.639-8.451-5.312-13.811-13.161-3.82-18.712 2.82-19.125 9.56z"></path> <path fill="#FFFFFF" d="m326.62 109.96c1.994-2.606 8.477-0.756 9.561 1.062-0.2 0.82-7.85 0.13-9.56-1.06z"></path> <path fill="#FFFFFF" d="m202.32 122.71c-5.392 3.061-10.847 2.565-15.936 7.436-1.661-0.749 2.034-5.996-3.187-3.187 7.171-6.64 17.668-9.954 29.747-11.686 0.913 0.856 0.631 2.909 2.125 3.187-3.685 0.955-7.373 2.538-6.375 5.312-3.438 1.312-0.812-3.438-4.25-2.125-1.117 0.783 0.731 4.05-3.187 4.25-3.6-1.13 2.97-0.33 1.08-3.18z"></path> <path fill="#FFFFFF" d="m239.5 129.08c-2.643-3.692 5.822 6.889 5.312 1.062 3.091 0.924 1.195 1.592 1.063 4.25-2.08-1.81-5.31-2.48-6.37-5.31z"></path> <path fill="#FFFFFF" d="m337.24 133.33c-5.875 1.587-11.289 2.947-15.936 6.374-2.689 1.985-7.84 6.352-9.561 9.562-8.768 16.36 0.268 42.064 18.059 46.744 15.775 4.15 33.07-5.139 39.309-19.123 1.439-0.182 1.377 6.149 3.188 2.125 0.85 8.259-14.732 10.152-11.686 21.248-5.465-2.307-10.182 2.543-13.812 5.312-5.783-0.826-8.283 1.631-11.684 3.186-15.451-2.963-25.961-10.867-33.996-21.246 2.164-5.593-2.588-10.905-3.188-16.999 5.887 1.285 2.135-7.072 3.188-10.624 11.54-8.66 17.14-28.83 36.12-26.55zm29.74 49.93c3.58 3.23 3.23-3.92 0 0z"></path> <path fill="#FFFFFF" d="m349.99 135.46c6.891-0.149 14.27 8.383 19.121 13.811-4.49-2.25-12.46-10.2-19.12-13.81z"></path> <path fill="#FFFFFF" d="m246.94 137.58c-1.033 0.029-0.824 1.3-1.062 2.125 1.488 1.275 0.091 0.414-1.063 0-0.135-1.905 1.301-2.241 1.063-4.249 2.379 2.829 5.323-1.502 7.437 1.062-0.03 1.034-1.3 0.824-2.125 1.062-0.299 1.715 1.005 1.829 1.063 3.187 1.6 2.94-2.56-3.73-5.32-3.18z"></path> <path fill="#FFFFFF" d="m227.81 155.64c1.802 4.324 2.108 8.206-2.124 11.687 2.752 10.331-4.729 15.646-4.25 25.498 0.029 1.031 1.3 0.824 2.125 1.061-3.654 2.232-4.675 5.938-2.125 8.5-1.043 2.977-2.834-1.543-4.25 1.062 2.938 7.047-5.37 13.184 0 20.186-2.899 0.096-2.139-1.771-4.249 0 2.773 1.74-2.5 7.305 1.062 9.561-0.159 1.965-3.597 0.65-4.249 2.125 0.698 1.426 2.271 1.979 4.249 2.125-0.159 1.965-3.597 0.65-4.249 2.125 3.717 1.25 3.635 4.764-2.125 6.373-1.562 4.041 4.749 0.209 3.187 4.25-6.883-0.992 1.332 6.51-6.375 4.25 0.256 1.867 1.829 2.42 4.25 2.123-1.083 6.975-5.022 7.951-2.125 14.875-1.081-0.691-1.099-2.443-3.188-2.125-1.718 5.5 0.765 12.496 1.062 20.186h-3.187c0.85 6.486-0.113 9.971 3.187 14.871-4.516 4.137 3.523 11.312 1.062 20.186-5.068-3.461-1.176 9.762-6.374 9.562-0.862-3.674 1.984-4.484 0-6.375-4.385-1.543-1.336 2.656-3.187 4.25-0.347 0.299-6.473-2.357-4.25 3.188-0.785-0.752-5.201-2.648-4.25 1.062-2.285 1.896 0.616-3.629-1.063-5.312-4.977 0.912-11.401 1.672-16.998-1.062-1.033 0.027-0.825 1.301-1.062 2.125 0.117 3.762 3.512-2.258 3.187 1.062 0.745 4.145-3.725 0.051-5.312 0-0.096-2.898 1.77-2.139 0-4.25-4.038 2.695-5.644 1.133-9.562-1.062-3.21 1.293 0.562 4.242 2.125 4.25-0.156 2.371-2.677-1.379-5.312 0 0.504-3.336-1.325-4.342-3.187-5.312-1.723-0.76-1.723 5.01 0 4.25-9.692-1.039 0.301-19.934-1.062-25.496 6.417-3.5 7.443-12.389 13.811-15.936 0.135-1.906-1.3-2.242-1.062-4.25 2.897 0.773 2.138-2.111 4.249-2.125-0.728-7.162 1.282-16.516 6.374-20.186 0.392-1.807-0.828-2.004-2.125-2.125 0.001-2.699 3.286-1.451 4.25-3.186 0.497-0.896-2.118-1.924-2.125-2.125-0.008-0.225 5.242-4.162 0-4.25 0.311-0.652 2.643-4.09 0-4.248 5.072-1.906 0.283-7.26 6.375-7.438-3.99-7.898 1.76-12.082 2.125-19.123 0.054-1.029-1.366-0.828-2.125-1.062 0.734-2.098 2.833-2.832 5.311-3.188-1.442-2.875-2.401-7.986 2.125-9.561-2.603-2.607 2.305-6.127-2.125-6.375 4.722-2.252 0.628-6.912 5.312-8.5-0.69-1.078-2.443-1.098-2.125-3.186 5.455-0.979 1.152-7.973 6.374-10.625-2.531-4.815 4.656-8.995 2.125-13.812 4.746-3.051 3.529-10.145 6.374-16.997-0.262-1.154-2.112-0.72-2.125-2.125 4.252-7.305 13.502-3.5 23.373-4.249 0.328 2.505 3.689 1.977 3.188 5.312 3.753-2.045 5.815 0.347 8.499 2.125-2.826 0.362-2.428 3.946-5.311 4.25-0.048 1.816 0.789 2.751 2.125 3.186-0.25 2.78-1.82-1.42-4.25 0.04zm-20.18 101.99h-2.126c0.004 1.064-0.86 1.264-1.062 2.123 1.359 0.059 1.472 1.363 3.188 1.062v-3.18zm-7.44 27.62v2.125c1.53 1.188 2.592 1.145 3.187-1.062-1.36-0.06-1.47-1.37-3.19-1.07zm-45.68 42.5v-3.188c-3.1-1.56-3.1 4.75 0 3.19zm-1.06-4.25c0.06-0.65 0.159-1.26 1.062-1.064-0.12-1.295-0.317-2.514-2.125-2.125 0.17 1.24-0.18 3.01 1.07 3.18zm6.37 5.31h3.187v-3.186h-2.125c-0.05 1.36-1.36 1.47-1.06 3.19zm28.69 4.25c3.099 1.561 3.1-4.75 0-3.188v3.19z"></path> <path fill="#FFFFFF" d="m358.49 149.27c-2.756 2.203-7.029 2.886-8.498 6.374-0.111 3.298 3.342 3.033 2.125 7.437 3.631-0.168 12.08-5.49 12.746 1.062-3.605 0.289-8.611-0.822-10.623 1.064 2.371 2.469 7.309 3.549 10.623 2.125 0.465 8.047-7.201 0.614-12.746 2.125-0.17 6.188 8.914 3.123 9.561 8.498-3.633 3.101-3.881-3.987-9.561-2.124-0.477 4.294 7.121 4.03 3.186 8.499-3.861-0.74-2.434-6.775-7.436-6.375-2.797 2.184 0.412 7.308 3.186 7.437-1.98 2.977-5.818 4.096-9.561 5.312-0.033-3.221 5.346-1.029 5.311-4.25-0.422-3.474-0.922-6.869-4.248-7.437-3.508 1.096 1.965 11.173-3.188 10.625-0.289-3.607 0.822-8.614-1.062-10.625-4.768-0.163-4.434 4.775-4.25 9.562h-5.311c1.463-2.172 5.379-3.732 3.188-9.562-5.361-0.973-4.365 8.408-9.562 4.25 2.275-1.976 6.338-2.161 6.375-6.375-3.859-4.365-7.346 4.673-10.623 1.062 2.545-2.057 6.879-2.326 8.498-5.312-2.111-4.791-8.984-0.165-11.686 1.062v-4.249c4.609 0.359 7.73-0.769 9.561-3.188-0.623-3.628-7.895-0.604-9.561-3.188-0.676-3.876 5.809 0.479 9.561-1.063 0.008-3.548-4.268-2.815-5.312-5.311-3.27-0.792-2.041 2.916-5.311 2.125 0.326-2.505 3.689-1.977 3.186-5.312 2.879 1.373 3.777 4.722 8.5 4.25 0.688-5.075-8.217-4.556-5.312-8.499 3.945 0.307 2.879 5.621 7.436 5.312 3.117-2.845-2.842-5.595-2.123-9.562 3.873 0.731 2.715 6.494 6.375 7.438 4.275-2.648-3.137-8.056 0-9.562 3.959 0.289 1.395 7.104 4.248 8.499 1.754-0.472 1.754-8.027 0-8.499 9.33-4.03 17.71 2.08 22.28 6.38zm-12.75 4.25c2.316 1.277 7.777-1.645 7.436-6.374 0.004-1.065-0.861-1.264-1.061-2.125-4.05 0.91-6.13 3.79-6.38 8.5zm-2.13-2.13c-0.656-2.642 3.871-8.283-1.062-8.499-2.8 0.51-3.76 9.47 1.06 8.5zm-12.75 23.37c15.564 6.774 25.404-9.62 15.936-19.123-13.78-7.07-25.91 8.53-15.94 19.12z"></path> <path d="m342.55 107.83c0.076 5.286-3.125 0.697-5.312 3.187 3.045 1.153 3.861 2.884 2.125 6.375 1.867-0.612 6.242 1.284 6.375-1.062 27.91 6.161 47.562 29.253 39.307 64.804-3.018 0.524-1.527 5.555-6.375 4.25 0.893 1.234 1.402 2.848 1.064 5.312-9.066 11.828-20.529 21.258-41.434 21.246 1.275 1.396 0.414 1.672 0 3.188-0.34 2.818 5.951-0.994 4.25 3.188-1.719 1.734-4.443-0.949-8.5 0 0.836 4.123 10.391-0.475 9.562 5.312-1.906 0.135-2.24-1.301-4.25-1.062-0.625 3.812 6.346 0.029 5.311 4.25-9.939-1.912-20.736 0.98-25.496-4.25 8.961-0.324 10.734 1.053 18.061 1.062-2.977-3.014-9.684-1.877-11.686-3.188 0.457-2.377 5.236-0.432 7.438-1.062-1.902-4.119-11.176-0.865-13.812-4.25 1.074-2.992 4.514 0.295 6.375 0 2.545 0.422-0.59-4.838 3.188-3.188-0.637 4.889 5.027 3.471 8.498 4.25v-3.188c-28.709-2.396-49.355-24.463-46.744-53.119 1.32-14.479 9.596-27.466 21.248-35.058-0.117-2.643-1.99-3.288 0-5.312-0.791-2.396-5.959-0.416-8.5-1.062 1.779-3.83 8.32-1.26 6.375-6.375 5.016 2.792 3.887-5.893 6.375-2.125 4.24-0.308-1.281 5.007-3.189 5.313 2.658 2.552 1.01 2.812 1.064 7.436 3.631-0.682 6.207-1.66 4.25-5.312 2.975 2.316 5.207 2.213 9.559 1.062-0.426-3.113-6.23-0.85-7.436-3.187-0.113-3.997 9.271-1.382 8.5 2.125 4.361-1.086 4.252-0.48 9.561-1.062-1.506-4.997-8.842-1.092-13.811-4.25-1.25-11.06 10.33-2.84 18.04-4.26zm-6.37 35.06c1.754 0.472 1.754 8.027 0 8.499-2.854-1.395-0.289-8.21-4.248-8.499-3.137 1.506 4.275 6.914 0 9.562-3.66-0.944-2.502-6.707-6.375-7.438-0.719 3.967 5.24 6.717 2.123 9.562-4.557 0.309-3.49-5.005-7.436-5.312-2.904 3.942 6 3.424 5.312 8.499-4.723 0.473-5.621-2.876-8.5-4.25 0.504 3.335-2.859 2.807-3.186 5.312 3.27 0.791 2.041-2.917 5.311-2.125 1.045 2.496 5.32 1.763 5.312 5.311-3.752 1.542-10.236-2.813-9.561 1.063 1.666 2.583 8.938-0.44 9.561 3.188-1.83 2.419-4.951 3.546-9.561 3.188v4.249c2.701-1.228 9.574-5.853 11.686-1.062-1.619 2.985-5.953 3.255-8.498 5.312 3.277 3.61 6.764-5.428 10.623-1.062-0.037 4.214-4.1 4.399-6.375 6.375 5.197 4.158 4.201-5.223 9.562-4.25 2.191 5.83-1.725 7.39-3.188 9.562h5.311c-0.184-4.787-0.518-9.725 4.25-9.562 1.885 2.011 0.773 7.017 1.062 10.625 5.152 0.549-0.32-9.529 3.188-10.625 3.326 0.568 3.826 3.963 4.248 7.437 0.035 3.221-5.344 1.029-5.311 4.25 3.742-1.217 7.58-2.336 9.561-5.312-2.773-0.129-5.982-5.253-3.186-7.437 5.002-0.4 3.574 5.634 7.436 6.375 3.936-4.468-3.662-4.205-3.186-8.499 5.68-1.863 5.928 5.225 9.561 2.124-0.646-5.375-9.73-2.31-9.561-8.498 5.545-1.511 13.211 5.922 12.746-2.125-3.314 1.424-8.252 0.345-10.623-2.125 2.012-1.886 7.018-0.775 10.623-1.064-0.666-6.551-9.115-1.23-12.746-1.062 1.217-4.404-2.236-4.139-2.125-7.437 1.469-3.487 5.742-4.171 8.498-6.374-4.56-4.32-12.94-10.43-22.3-6.4zm0-31.87c-1.084-1.818-7.566-3.668-9.561-1.062 1.71 1.19 9.36 1.88 9.56 1.06zm-14.88 13.81c4.471 0.99 5.092 0.323 9.561 2.125 3.396-6.499 15.227-1.607 21.25-1.062 0.1 1.669-0.145 3.684 2.123 3.187 1.135 3.617 0.33-2.956 3.188-1.062 13.482 5.912 26.699 22.509 20.186 41.434 3.865 0.732 0.094 3.908 4.25 5.311 8.38-39.14-30.48-65.93-60.56-49.94zm-9.56 4.25c3.002-0.878 2.752 1.498 5.311 1.062 2.354-2.467 0.939-2.843 2.125-5.312-3.11 0.79-5.22 2.57-7.44 4.25zm-10.62 30.81c-1.053 3.552 2.699 11.909-3.188 10.624 0.6 6.094 5.352 11.405 3.188 16.999 8.035 10.379 18.545 18.283 33.996 21.246 3.4-1.555 5.9-4.012 11.684-3.186 3.631-2.77 8.348-7.619 13.812-5.312-3.047-11.096 12.535-12.988 11.686-21.248-1.811 4.024-1.748-2.307-3.188-2.125-6.238 13.984-23.533 23.273-39.309 19.123-17.791-4.68-26.826-30.384-18.059-46.744 1.721-3.21 6.871-7.577 9.561-9.562 4.646-3.427 10.061-4.787 15.936-6.374-18.98-2.28-24.58 17.89-36.12 26.56zm38.24-25.49c1.59-0.182 3.92 0.379 4.25-1.062-1.41-1.39-3.95-1.41-4.25 1.06zm-33.99 0c-1.498 3.391 6.357 2.685 6.375 1.062-2.17-0.77-4.2-3.33-6.37-1.06zm42.49 0c-1.359-0.059-1.473-1.362-3.189-1.062-1.65 2.61 3.61 3.12 3.19 1.06zm21.25 14.87c-4.852-5.427-12.23-13.96-19.121-13.811 6.66 3.61 14.63 11.56 19.12 13.81zm-65.87-8.5h2.125v-2.125h-2.125v2.13zm59.5 14.87c-3.479-4.454-7.502 1.129-10.623 3.188 2.75 1.72 6.66-2.75 10.62-3.19zm11.68 2.13h2.125c1.652-2.613-3.607-3.124-3.188-1.062 0.66 0.05 1.27 0.15 1.07 1.06zm5.32 22.31c-0.24-2.008 1.197-2.345 1.061-4.249-1.357-0.059-1.471-1.362-3.186-1.063-0.16 2.63-0.2 5.15 2.13 5.31z"></path> <path d="m275.62 154.58c5.24 1.604 10.545 1.434 9.561-3.188 0.945 0.825 2.4 1.143 4.25 1.063-2.068 4.994-0.945 3.353-1.062 9.56h-3.188c-0.391-1.806 0.83-2.004 2.125-2.125-2.23-5.72-9.97 0.66-11.68-5.3z"></path> <path d="m400.98 164.14c1.945 1.414-2.328 4.748 0 7.438-5.344 0.74-7.402-1.803-12.748-1.063-0.443-2.847 8.883-3.348 1.061-4.249 1.03-5.25 8.8 1.96 11.69-2.13z"></path> <path d="m394.61 184.33c-1.697-1.843-4.783-2.3-8.498-2.125 0.967-4.824 9.627-0.961 12.746-1.063-1.168 2.727-4.086 3.704-6.373 5.313 0.779 0.992 1.932 1.609 3.188 2.125-0.75 3.449-5.998 0.748-3.188 5.311h-5.312c3.693-4.881 1.994-2.285-1.061-6.373h5.311c-0.432-2.049-4.119-0.84-3.188-4.25 3.24-0.78 3.12 1.83 6.37 1.06z"></path> <path fill="#FFFFFF" d="m242.69 198.14c4.53 0-10.21 1.53 0 0z"></path> <path fill="#FFFFFF" d="m161.95 203.45c1.042-3.258 2.834 1.221 4.249 1.062-0.3 2.51-2.84-1.22-4.25-1.06z"></path> <path fill="#FFFFFF" d="m155.57 213.01c-1.619-2.727 4.82 2.275 6.374 3.188-1.45 2.4-4.37-2.63-6.37-3.19z"></path> <path fill="#FFFFFF" d="m150.26 219.38c1.457-2.406 4.375 2.623 6.374 3.188-1.06 2.01-4.28-2.71-6.37-3.19z"></path> <path fill="#FFFFFF" d="m148.14 222.57c2.042-2.314 4.989 3.449 7.438 4.25-2.05 2.31-5-3.45-7.44-4.25z"></path> <path fill="#FFFFFF" d="m252.25 224.7c3.03-1.859-2.08 1.592-3.187 2.125-0.18 2.303 3.768 0.48 5.311 1.061-2.472 1.777-5.724 2.775-9.562 3.188 2.963-3.271 1.708-4.527-3.188-3.188 1.5-3.11 5.94-3.26 10.63-3.18z"></path> <path fill="#FFFFFF" d="m146.01 226.82c1.043-3.258 2.834 1.219 4.25 1.061-0.3 2.51-2.84-1.21-4.25-1.06z"></path> <path fill="#FFFFFF" d="m152.39 230.01c-1.6-2.23 5.43 7.6 0 0z"></path> <path fill="#FFFFFF" d="m146.01 231.07c-1.149-3.121 13.337 8.66 4.25 2.125-0.75-0.54-2.87-0.42-4.25-2.13z"></path> <path fill="#FFFFFF" d="m251.19 232.13c-0.561 0.854-1.107 1.725-1.062 3.188-2.573-2.445-5.161 1.082-8.5 1.061 1.6-3 6.6-2.6 9.56-4.25z"></path> <path fill="#FFFFFF" d="m142.82 234.26c1.457-2.406 4.375 2.623 6.374 3.188-1.05 2.01-4.28-2.72-6.37-3.19z"></path> <path fill="#FFFFFF" d="m256.5 235.32c-3.099 3.629-10.783 2.674-14.874 5.312 2.95-3.77 9.19-4.26 14.87-5.31z"></path> <path fill="#FFFFFF" d="m138.58 240.63c3.977-2.168 6.593 6.125 10.624 7.436-2.72 0.91-6.43-6.29-10.62-7.44z"></path> <path fill="#FFFFFF" d="m137.51 244.88c0.127-1.732 4.53 1.014 4.25 3.188-2.16-0.31-2.08-2.88-4.25-3.19z"></path> <path fill="#FFFFFF" d="m134.33 247.01c1.664-1.594 5.862 3.291 7.438 5.311-2.04 1.96-4.52-4.65-7.44-5.31z"></path> <path fill="#FFFFFF" d="m254.37 247.01c1.06 3.219-9.158 4.271-12.749 6.373 2.77-3.61 8.81-3.94 12.75-6.37z"></path> <path fill="#FFFFFF" d="m130.08 257.63c3.003 0.191 2.475-3.996 5.312-1.064-1.452 3.119-2.882 3.6 0 6.375 2.64 1.47-5.82-2.07-5.31-5.31z"></path> <path fill="#FFFFFF" d="m262.87 258.69c-0.412 3.131-5.006 2.078-6.375 4.25 1.545 3.148 4.145-1.398 7.438 0-5.234 3.619-13.459 4.246-20.185 6.375 1.217-2.178-1.668-5.064-2.126-2.125 0.49-5.2 13.84-6.7 21.24-8.51zm-18.06 8.5c3.558-0.336 6.697-1.096 8.5-3.188-2.34-1.81-8.65-0.78-8.5 3.19z"></path> <path fill="#FFFFFF" d="m113.08 293.75c-2.37-0.156 1.378-2.674 0-5.311-1.817-0.047-2.751 0.789-3.187 2.123-1.438-1.039-1.377-3.58-3.187-4.248-0.585-2.355 2.029-1.514 2.125-3.188-2.632-1.768-4.487 2.922-5.312-3.188-2.665 1.584-3.73 4.771-5.312 7.438-2.845-3.607 5.165-5.42 4.249-10.625-3.472-1.975-2.571-2.16-4.249-6.375h-7.436c8.04-20.314 34.633-5.049 43.557 4.25 1.831 8.441 10.731 9.809 9.562 21.248 0.69 1.082 2.442 1.1 2.125 3.188-3.484 1.475-5.033 4.883-7.437 7.436-3.428-3.951-8.537-1.387-11.686 2.125 1.475-1.357 0.65-5.016 2.125-6.373-0.312-2.525-2.875 1.182-3.187 2.123-1.723-1.523-4.535-7.422-6.375-5.311 0.09-2.6-3.12-6.43-6.36-5.31z"></path> <path fill="#FFFFFF" d="m206.57 284.19c-0.195-0.904 0.415-1.002 1.063-1.062h2.125c1.312 3.438-3.438 0.812-2.125 4.25-3.77-0.12 2.25-3.52-1.07-3.19z"></path> <path d="m34.463 98.274c5.032-0.428 7.31 1.896 12.748 1.062 0.024 2.503-1.829 3.128-1.062 6.374-4.56-1.104-10.908-0.423-14.873-2.125 1.894-3.554 4.644-0.09 9.561-1.062 0.638-4.176-7.353 0.27-6.374-4.246z"></path> <path d="m98.205 119.52c1.674 5.36 6.614 7.726 5.312 13.811-2.419 11.305-25.366 10.977-24.435-4.25 0.411-6.74 5.962-13.38 19.12-9.56z"></path> <path fill="#FFFFFF" d="m266.06 282.06c22.023-1.229 39.215 18.787 26.561 36.119-2-3.266-0.988-11.688-4.25-16.996-0.635 3.615-10.07 3.039-8.498 7.436-1.107 3.482-4.885-5.18-4.25 2.125-4.459 0.373-10.061-0.879-11.686 4.252-1.469-1.102-5.055-4.311-4.25 1.061-3.119-1.885-3.598-1.449-6.374-2.125-3.578 0.959-0.126 2.377-2.125 4.248-0.992-0.777-1.609-1.93-2.124-3.184-0.993 0.777-1.61 1.93-2.125 3.184-1.245-0.17-0.897-1.936-1.062-3.184-2.268-0.498-2.024 1.516-2.125 3.184-2.45 0.326-1.181-3.068-3.188-3.184-2.304-0.182-0.481 3.768-1.063 5.309-2.933 0.457-0.996-3.959-3.187-4.248-1.442 0.33-0.881 2.66-1.062 4.248-3.723-0.789 0.463-5.266-3.187-7.436-2.397 0.791-0.416 5.959-1.063 8.5-1.681-1.562-3.464-7.164-4.249-1.064-2.236-1.305-0.687-6.396-3.188-7.436-2.375 0.459-0.431 5.236-1.063 7.436-0.396-1.209-4.459-13.057-4.249 1.064-2.946 0.771 0.738-9.396-3.187-9.562-2.953 2.34 0.148 7.572 0 10.623-3.879-0.371-1.646-6.854-3.188-9.561-3.195-1.072-1.883 2.367-2.125 4.25-1.843-1.699-2.302-4.781-2.125-8.5 1.395 0.377 1.67 1.871 3.187 2.125 11.738-9.156 24.05-17.736 40.37-22.309 4.888-1.004 0.007-5.172 5.312-5.312-1.275 1.395-0.414 1.672 0 3.188 3.97-0.62 10 0.81 9.55-4.25zm-39.31 30.81v2.127c2.614 1.65 3.124-3.611 1.062-3.189-0.05 0.65-0.15 1.26-1.06 1.06z"></path> </g> <metadata></metadata></svg> 