<?xml version="1.0" encoding="UTF-8" standalone="no"?> <!-- Generator: Adobe Illustrator 12.0.1, SVG Export Plug-In . SVG Version: 6.00 Build 51448) --> <svg xmlns:rdf="http://www.w3.org/1999/02/22-rdf-syntax-ns#" xmlns="http://www.w3.org/2000/svg" xmlns:cc="http://web.resource.org/cc/" xmlns:xlink="http://www.w3.org/1999/xlink" xmlns:dc="http://purl.org/dc/elements/1.1/" xmlns:svg="http://www.w3.org/2000/svg" xmlns:inkscape="http://www.inkscape.org/namespaces/inkscape" xmlns:sodipodi="http://sodipodi.sourceforge.net/DTD/sodipodi-0.dtd" xmlns:ns1="http://sozi.baierouge.fr" id="Layer_1" xml:space="preserve" overflow="visible" viewBox="0 0 695.788 108.132"> <g> <g> <g> <path d="m560.57 42.089l-2.579-1.064-14.211-5.681c-23.969-9.518-40.067-14.733-66.772-18.722-23.243-3.477-36.014 0.475-45.335 3.36-1.423 0.436-2.769 0.854-4.03 1.205-9.449 2.614-20.104 13.286-20.554 13.738l1.254 1.242c0.104-0.11 10.772-10.795 19.767-13.286 1.294-0.352 2.652-0.775 4.09-1.222 9.152-2.837 21.697-6.72 44.544-3.304 26.531 3.966 42.76 8.797 66.597 18.255 6.991 2.776 11.281 4.343 16.418 6.474l0.914 0.198c1.365 0.508 0.718 1.082 1.044 0.234 0.3-0.812-0.4-1.116-1.15-1.427z" fill="#DEB407"></path> <path stroke="#DEB407" stroke-width=".7648" d="m448.33 17.262s26.22-8.662 52.664-6.996c26.444 1.66 133.04 14.635 158.37 23.25" fill="none"></path> <path stroke="#DEB407" stroke-width=".7648" d="m452.46 16.475s23.236-8.637 72.393-6.155c49.164 2.471 143.48 22.827 143.48 22.827" fill="none"></path> <path stroke="#DEB407" stroke-width=".7648" d="m469.92 11.929s46.242-1.562 71.226 1.329c24.982 2.912 87.459 11.651 93.138 11.851 5.676 0.205 29.67 1.934 29.67 1.934" fill="none"></path> <path stroke="#DEB407" stroke-width=".7648" d="m655.2 27.933s-49.471-5.212-61.611-5.956c-12.149-0.741-52.175-5.437-81.063-7.036-28.89-1.594-55.175 4.615-55.175 4.615s61.435 21.132 93.981 34.158c32.547 13.026 95.472 42.414 110.12 45.539 14.654 3.118 25.406 7.547 25.406 7.547s-89.466-32.96-112.08-44.888c-22.599-11.922-55.327-22.792-85.492-31.814-30.17-9.037-50.284-8.55-53.56-8.281" fill="none"></path> <path stroke="#DEB407" stroke-width=".7648" d="m438.78 24.249s36.7 5.503 57.396 11.032c20.696 5.521 73.019 25.353 93.11 34.902 20.091 9.538 53.081 23.68 65.793 27.455 12.698 3.777 24.528 8.279 24.528 8.279" fill="none"></path> <path stroke="#DEB407" stroke-width=".7648" d="m450.43 24.405s14.999 2.343 30.189 5.505c15.2 3.177 44.941 14.056 60.79 19.181 15.852 5.123 86.419 37.046 91.178 38.535 4.757 1.481 38.183 13.766 42.601 16.032 4.423 2.26 7.078 3.033 7.078 3.033" fill="none"></path> <path stroke="#DEB407" stroke-width=".7648" d="m651.88 23.82s-49.477-5.212-61.62-5.961c-12.143-0.741-52.166-5.434-81.058-7.039-28.887-1.597-55.178 4.624-55.178 4.624s61.435 21.129 93.984 34.149c32.548 13.023 95.459 42.419 110.12 45.539 14.661 3.125 25.412 7.552 25.412 7.552s-89.472-32.97-112.08-44.887c-22.602-11.928-55.336-22.798-85.5-31.824-30.168-9.028-50.282-8.543-53.558-8.267" fill="none"></path> <path stroke="#DEB407" stroke-width=".7648" d="m435.46 26.097s36.697 5.505 57.394 11.034c20.696 5.525 73.027 25.346 93.112 34.896 20.089 9.545 53.082 23.687 65.788 27.463 12.707 3.771 24.534 8.285 24.534 8.285" fill="none"></path> <path stroke="#DEB407" stroke-width=".7648" d="m447.1 23.269s15.004 2.347 30.192 5.506c15.196 3.168 44.936 14.061 60.787 19.178 15.852 5.122 86.422 37.049 91.178 38.53 4.763 1.494 38.18 13.768 42.604 16.039 4.42 2.267 7.072 3.021 7.072 3.021" fill="none"></path> <path stroke="#DEB407" stroke-width=".7648" d="m690.57 85.14s-25.973 2.444-80.741-17.312c-54.774-19.768-83.998-27.09-90.373-28.708-6.37-1.617-76.074-19.134-76.074-19.134" fill="none"></path> <path stroke="#DEB407" stroke-width=".7648" d="m695.74 71.972s-51.788-6.771-99.644-24.873c-47.854-18.094-84.871-32.847-105.88-34.6-21.011-1.758-51.562 3.127-51.562 3.127" fill="none"></path> <path stroke="#DEB407" stroke-width=".7648" d="m692.5 71.699s-61.592-15.989-98.156-29.618c-36.565-13.635-69.969-22.931-83.753-26.796-13.784-3.86-40.066-4.157-40.066-4.157" fill="none"></path> <path stroke="#DEB407" stroke-width=".7648" d="m694.6 71.69s-51.781-6.773-99.644-24.87c-47.857-18.097-84.868-32.853-105.88-34.608-21.002-1.753-51.543 3.128-51.543 3.128" fill="none"></path> <path stroke="#DEB407" stroke-width=".7648" d="m691.37 71.414s-61.598-15.987-98.168-29.622c-36.562-13.628-69.966-22.928-83.744-26.793-13.781-3.868-40.069-4.157-40.069-4.157" fill="none"></path> <path stroke="#DEB407" stroke-width=".7648" d="m679.46 72.001s-42.017-16.52-76.114-27.237-69.561-21.27-69.561-21.27-13.825-3.321-34.998-6.446c-21.164-3.125-43.255-4.963-43.255-4.963" fill="none"></path> <path stroke="#DEB407" stroke-width=".7648" d="m677.82 72.821s-42.021-16.528-76.117-27.246c-34.1-10.712-69.558-21.271-69.558-21.271s-13.837-3.318-35.001-6.442c-21.169-3.127-43.258-4.967-43.258-4.967" fill="none"></path> <g fill="#C49F06"> <path d="m571.38 42.648s-4.131-4.186-6.728-3.75c-2.591 0.415-5.004 2.456-5.004 2.456s1.961 3.361 5.679 2.871c3.72-0.496 6.05-1.577 6.05-1.577z"></path> <path d="m561.75 51.464s0.064-5.878-2.063-7.415c-2.127-1.55-5.274-1.824-5.274-1.824s-1.003 3.752 1.959 6.053c2.96 2.298 5.37 3.186 5.37 3.186z"></path> <path d="m553.76 47.592s0.066-5.874-2.067-7.414c-2.125-1.545-5.269-1.816-5.269-1.816s-1.01 3.753 1.96 6.056c2.97 2.289 5.38 3.174 5.38 3.174z"></path> <path d="m544.88 44.773s0.062-5.872-2.066-7.417c-2.125-1.551-5.269-1.822-5.269-1.822s-1.016 3.761 1.953 6.056c2.98 2.304 5.39 3.183 5.39 3.183z"></path> <path d="m536.95 42.034s0.062-5.877-2.062-7.425c-2.134-1.537-5.278-1.819-5.278-1.819s-1.006 3.765 1.959 6.059c2.96 2.292 5.38 3.185 5.38 3.185z"></path> <path d="m528.7 39.271s0.058-5.875-2.064-7.426c-2.129-1.548-5.271-1.816-5.271-1.816s-1.009 3.756 1.964 6.053c2.96 2.297 5.37 3.189 5.37 3.189z"></path> <path d="m519.34 36.563s0.063-5.883-2.07-7.422c-2.124-1.539-5.269-1.822-5.269-1.822s-1.009 3.761 1.955 6.062c2.96 2.294 5.38 3.182 5.38 3.182z"></path> <path d="m510.23 34.526s0.057-5.875-2.068-7.426c-2.129-1.539-5.269-1.813-5.269-1.813s-1.006 3.75 1.958 6.056c2.97 2.298 5.38 3.183 5.38 3.183z"></path> <path d="m500.39 31.626s0.063-5.878-2.062-7.423c-2.129-1.545-5.284-1.816-5.284-1.816s-1 3.756 1.97 6.053c2.96 2.298 5.37 3.186 5.37 3.186z"></path> <path d="m491.02 28.924s0.069-5.877-2.059-7.417c-2.129-1.547-5.274-1.825-5.274-1.825s-1.009 3.756 1.961 6.054c2.96 2.298 5.37 3.188 5.37 3.188z"></path> <path d="m482.16 27.864s0.058-5.88-2.062-7.425c-2.131-1.537-5.276-1.816-5.276-1.816s-1.009 3.765 1.961 6.057c2.96 2.291 5.38 3.184 5.38 3.184z"></path> <path d="m472.97 26.46s-0.588-5.849-2.875-7.148c-2.285-1.297-5.444-1.226-5.444-1.226s-0.576 3.849 2.62 5.794c3.19 1.964 5.69 2.58 5.69 2.58z"></path> <path d="m455.94 27.282s-0.582-5.854-2.872-7.154c-2.292-1.292-5.441-1.226-5.441-1.226s-0.582 3.849 2.611 5.806c3.21 1.951 5.7 2.574 5.7 2.574z"></path> <path d="m447.99 28.686s-0.586-5.849-2.878-7.14c-2.279-1.297-5.441-1.228-5.441-1.228s-0.585 3.848 2.617 5.808c3.21 1.945 5.7 2.56 5.7 2.56z"></path> <path d="m464.63 26.722s-0.588-5.84-2.878-7.148c-2.286-1.297-5.442-1.219-5.442-1.219s-0.585 3.84 2.618 5.797c3.2 1.948 5.7 2.57 5.7 2.57z"></path> <path d="m440.6 29.034s-0.585-5.845-2.874-7.146c-2.276-1.302-5.433-1.225-5.433-1.225s-0.583 3.846 2.616 5.799c3.19 1.953 5.68 2.572 5.68 2.572z"></path> <path d="m563.76 37.517s-4.762-3.447-7.252-2.603c-2.488 0.842-4.535 3.254-4.535 3.254s2.487 2.995 6.073 1.897c3.59-1.097 5.71-2.548 5.71-2.548z"></path> <path d="m555.56 34.119s-4.763-3.45-7.253-2.603c-2.491 0.842-4.525 3.249-4.525 3.249s2.483 2.986 6.07 1.9c3.59-1.099 5.71-2.546 5.71-2.546z"></path> <path d="m547.05 30.677s-4.759-3.439-7.252-2.594c-2.482 0.841-4.526 3.25-4.526 3.25s2.484 3.001 6.073 1.909c3.59-1.103 5.71-2.565 5.71-2.565z"></path> <path d="m538.54 27.247s-4.769-3.445-7.255-2.594c-2.483 0.839-4.532 3.249-4.532 3.249s2.49 2.998 6.076 1.903c3.59-1.099 5.71-2.558 5.71-2.558z"></path> <path d="m530.04 23.823s-4.768-3.445-7.257-2.6c-2.489 0.851-4.533 3.257-4.533 3.257s2.49 2.983 6.079 1.891c3.58-1.098 5.71-2.548 5.71-2.548z"></path> <path d="m520.85 20.958s-4.763-3.436-7.253-2.6c-2.491 0.851-4.531 3.254-4.531 3.254s2.488 3.001 6.073 1.9c3.59-1.096 5.71-2.554 5.71-2.554z"></path> <path d="m511.77 18.614s-4.762-3.45-7.256-2.609c-2.487 0.842-4.528 3.252-4.528 3.252s2.487 2.989 6.073 1.902c3.6-1.101 5.72-2.545 5.72-2.545z"></path> <path d="m502.69 16.253s-4.766-3.457-7.249-2.603c-2.495 0.841-4.529 3.251-4.529 3.251s2.487 2.989 6.073 1.893c3.59-1.093 5.71-2.541 5.71-2.541z"></path> <path d="m493.24 14.5s-4.756-3.451-7.246-2.603c-2.492 0.841-4.529 3.263-4.529 3.263s2.484 2.989 6.073 1.885c3.59-1.086 5.71-2.545 5.71-2.545z"></path> <path d="m483.08 12.563s-5.005-3.073-7.431-2.043c-2.418 1.043-4.271 3.598-4.271 3.598s2.706 2.793 6.197 1.427c3.5-1.37 5.5-2.982 5.5-2.982z"></path> <path d="m472.4 10.367s-5.68-1.487-7.694 0.205c-2.012 1.694-3.046 4.675-3.046 4.675s3.397 1.882 6.347-0.441c2.95-2.312 4.39-4.439 4.39-4.439z"></path> <path d="m463.09 10.866s-5.69-1.484-7.705 0.207c-2.009 1.689-3.042 4.679-3.042 4.679s3.401 1.885 6.349-0.438c2.95-2.318 4.4-4.448 4.4-4.448z"></path> <path d="m453.77 11.367s-5.693-1.484-7.708 0.21c-2.012 1.686-3.041 4.667-3.041 4.667s3.404 1.9 6.348-0.438c2.96-2.311 4.4-4.439 4.4-4.439z"></path> <path d="m443.43 13.391s-5.725-1.317-7.691 0.438c-1.953 1.75-2.898 4.762-2.898 4.762s3.461 1.785 6.338-0.625c2.88-2.411 4.25-4.575 4.25-4.575z"></path> </g> </g> </g> <g> <g> <path d="m135.22 42.089l2.58-1.064 14.211-5.681c23.969-9.518 40.068-14.733 66.772-18.722 23.244-3.477 36.014 0.475 45.335 3.36 1.421 0.436 2.769 0.854 4.03 1.205 9.449 2.614 20.104 13.286 20.554 13.738l-1.254 1.242c-0.104-0.11-10.772-10.795-19.766-13.286-1.295-0.352-2.653-0.775-4.09-1.222-9.152-2.837-21.698-6.72-44.544-3.304-26.531 3.966-42.76 8.797-66.595 18.255-6.994 2.776-11.283 4.343-16.419 6.474l-0.914 0.198c-1.367 0.508-0.718 1.082-1.043 0.234-0.32-0.812 0.38-1.116 1.13-1.427z" fill="#DEB407"></path> <path stroke="#DEB407" stroke-width=".7648" d="m247.46 17.262s-26.22-8.662-52.665-6.996c-26.444 1.66-133.04 14.635-158.37 23.25" fill="none"></path> <path stroke="#DEB407" stroke-width=".7648" d="m243.33 16.475s-23.236-8.637-72.393-6.155c-49.17 2.471-143.49 22.827-143.49 22.827" fill="none"></path> <path stroke="#DEB407" stroke-width=".7648" d="m225.87 11.929s-46.242-1.562-71.225 1.329c-24.983 2.912-87.46 11.651-93.138 11.851-5.676 0.205-29.67 1.934-29.67 1.934" fill="none"></path> <path stroke="#DEB407" stroke-width=".7648" d="m40.587 27.933s49.47-5.212 61.611-5.956c12.15-0.741 52.174-5.437 81.063-7.036 28.89-1.594 55.175 4.615 55.175 4.615s-61.44 21.132-93.99 34.158c-32.547 13.026-95.47 42.414-110.12 45.539-14.653 3.117-25.405 7.547-25.405 7.547s89.466-32.96 112.08-44.888c22.599-11.922 55.327-22.792 85.492-31.814 30.17-9.037 50.284-8.55 53.558-8.281" fill="none"></path> <path stroke="#DEB407" stroke-width=".7648" d="m257 24.249s-36.7 5.503-57.396 11.032c-20.697 5.521-73.018 25.353-93.109 34.902-20.091 9.538-53.083 23.68-65.794 27.455-12.698 3.777-24.527 8.279-24.527 8.279" fill="none"></path> <path stroke="#DEB407" stroke-width=".7648" d="m245.36 24.405s-14.999 2.343-30.189 5.505c-15.201 3.177-44.942 14.056-60.791 19.181-15.852 5.123-86.418 37.046-91.178 38.535-4.756 1.481-38.183 13.766-42.601 16.032-4.422 2.26-7.077 3.033-7.077 3.033" fill="none"></path> <path stroke="#DEB407" stroke-width=".7648" d="m43.913 23.82s49.476-5.212 61.621-5.961c12.141-0.741 52.165-5.434 81.057-7.039 28.887-1.597 55.179 4.624 55.179 4.624s-61.436 21.129-93.986 34.149c-32.54 13.023-95.455 42.418-110.12 45.538-14.661 3.125-25.413 7.552-25.413 7.552s89.472-32.97 112.08-44.887c22.602-11.928 55.336-22.798 85.498-31.824 30.17-9.028 50.284-8.543 53.558-8.267" fill="none"></path> <path stroke="#DEB407" stroke-width=".7648" d="m260.33 26.097s-36.697 5.505-57.394 11.034c-20.697 5.525-73.027 25.346-93.112 34.896-20.093 9.545-53.086 23.686-65.793 27.463-12.706 3.771-24.533 8.285-24.533 8.285" fill="none"></path> <path stroke="#DEB407" stroke-width=".7648" d="m248.68 23.269s-15.003 2.347-30.192 5.506c-15.198 3.168-44.937 14.061-60.788 19.178-15.851 5.122-86.421 37.049-91.178 38.53-4.762 1.494-38.179 13.768-42.604 16.039-4.418 2.267-7.071 3.021-7.071 3.021" fill="none"></path> <path stroke="#DEB407" stroke-width=".7648" d="m5.215 85.14s25.972 2.444 80.741-17.312c54.774-19.768 83.998-27.09 90.374-28.708 6.37-1.617 76.074-19.134 76.074-19.134" fill="none"></path> <path stroke="#DEB407" stroke-width=".7648" d="m0.05 71.972s51.788-6.771 99.644-24.873c47.854-18.094 84.872-32.847 105.88-34.6 21.011-1.758 51.561 3.127 51.561 3.127" fill="none"></path> <path stroke="#DEB407" stroke-width=".7648" d="m3.284 71.699s61.591-15.989 98.156-29.618c36.565-13.635 69.968-22.931 83.753-26.796 13.784-3.86 40.067-4.157 40.067-4.157" fill="none"></path> <path stroke="#DEB407" stroke-width=".7648" d="m1.191 71.69s51.783-6.773 99.645-24.87c47.855-18.097 84.868-32.853 105.88-34.608 21.002-1.753 51.543 3.128 51.543 3.128" fill="none"></path> <path stroke="#DEB407" stroke-width=".7648" d="m4.419 71.414s61.598-15.987 98.168-29.622c36.562-13.628 69.965-22.928 83.744-26.793 13.781-3.868 40.07-4.157 40.07-4.157" fill="none"></path> <path stroke="#DEB407" stroke-width=".7648" d="m16.328 72.001s42.016-16.52 76.113-27.237c34.098-10.717 69.562-21.27 69.562-21.27s13.825-3.321 34.997-6.446c21.163-3.125 43.255-4.963 43.255-4.963" fill="none"></path> <path stroke="#DEB407" stroke-width=".7648" d="m17.967 72.821s42.022-16.528 76.117-27.246c34.101-10.712 69.559-21.271 69.559-21.271s13.837-3.318 35-6.442c21.17-3.127 43.259-4.967 43.259-4.967" fill="none"></path> <g fill="#C49F06"> <path d="m124.41 42.648s4.13-4.186 6.727-3.75c2.592 0.415 5.004 2.456 5.004 2.456s-1.96 3.361-5.679 2.871c-3.72-0.496-6.05-1.577-6.05-1.577z"></path> <path d="m134.04 51.464s-0.063-5.878 2.064-7.415c2.127-1.55 5.275-1.824 5.275-1.824s1.004 3.752-1.96 6.053c-2.97 2.298-5.38 3.186-5.38 3.186z"></path> <path d="m142.03 47.592s-0.066-5.874 2.067-7.414c2.124-1.545 5.269-1.816 5.269-1.816s1.009 3.753-1.96 6.056c-2.97 2.289-5.38 3.174-5.38 3.174z"></path> <path d="m150.91 44.773s-0.06-5.872 2.066-7.417c2.125-1.551 5.27-1.822 5.27-1.822s1.014 3.761-1.954 6.056c-2.98 2.304-5.39 3.183-5.39 3.183z"></path> <path d="m158.84 42.034s-0.061-5.877 2.063-7.425c2.133-1.537 5.278-1.819 5.278-1.819s1.006 3.765-1.96 6.059c-2.96 2.292-5.38 3.185-5.38 3.185z"></path> <path d="m167.08 39.271s-0.058-5.875 2.064-7.426c2.13-1.548 5.272-1.816 5.272-1.816s1.009 3.756-1.963 6.053c-2.95 2.297-5.37 3.189-5.37 3.189z"></path> <path d="m176.45 36.563s-0.064-5.883 2.069-7.422c2.125-1.539 5.27-1.822 5.27-1.822s1.009 3.761-1.955 6.062c-2.97 2.294-5.39 3.182-5.39 3.182z"></path> <path d="m185.56 34.526s-0.057-5.875 2.068-7.426c2.129-1.539 5.269-1.813 5.269-1.813s1.006 3.75-1.958 6.056c-2.97 2.298-5.38 3.183-5.38 3.183z"></path> <path d="m195.4 31.626s-0.063-5.878 2.062-7.423c2.129-1.545 5.282-1.816 5.282-1.816s1.001 3.756-1.968 6.053c-2.96 2.298-5.37 3.186-5.37 3.186z"></path> <path d="m204.77 28.924s-0.069-5.877 2.059-7.417c2.129-1.547 5.275-1.825 5.275-1.825s1.009 3.756-1.961 6.054c-2.96 2.298-5.37 3.188-5.37 3.188z"></path> <path d="m213.63 27.864s-0.057-5.88 2.064-7.425c2.129-1.537 5.275-1.816 5.275-1.816s1.009 3.765-1.961 6.057c-2.96 2.291-5.37 3.184-5.37 3.184z"></path> <path d="m222.82 26.46s0.588-5.849 2.875-7.148c2.285-1.297 5.445-1.226 5.445-1.226s0.576 3.849-2.621 5.794c-3.2 1.964-5.7 2.58-5.7 2.58z"></path> <path d="m239.85 27.282s0.582-5.854 2.872-7.154c2.292-1.292 5.441-1.226 5.441-1.226s0.582 3.849-2.612 5.806c-3.21 1.951-5.7 2.574-5.7 2.574z"></path> <path d="m247.8 28.686s0.585-5.849 2.876-7.14c2.281-1.297 5.443-1.228 5.443-1.228s0.585 3.848-2.618 5.808c-3.21 1.945-5.7 2.56-5.7 2.56z"></path> <path d="m231.16 26.722s0.588-5.84 2.878-7.148c2.286-1.297 5.441-1.219 5.441-1.219s0.585 3.84-2.618 5.797c-3.21 1.948-5.7 2.57-5.7 2.57z"></path> <path d="m255.19 29.034s0.586-5.845 2.875-7.146c2.277-1.302 5.433-1.225 5.433-1.225s0.582 3.846-2.617 5.799c-3.19 1.953-5.68 2.572-5.68 2.572z"></path> <path d="m132.03 37.517s4.762-3.447 7.253-2.603c2.488 0.842 4.534 3.254 4.534 3.254s-2.488 2.995-6.074 1.897c-3.59-1.097-5.71-2.548-5.71-2.548z"></path> <path d="m140.23 34.119s4.762-3.45 7.253-2.603c2.49 0.842 4.525 3.249 4.525 3.249s-2.485 2.986-6.07 1.9c-3.58-1.099-5.7-2.546-5.7-2.546z"></path> <path d="m148.74 30.677s4.759-3.439 7.253-2.594c2.482 0.841 4.525 3.25 4.525 3.25s-2.485 3.001-6.073 1.909c-3.59-1.103-5.71-2.565-5.71-2.565z"></path> <path d="m157.24 27.247s4.767-3.445 7.255-2.594c2.482 0.839 4.531 3.249 4.531 3.249s-2.491 2.998-6.076 1.903c-3.58-1.099-5.71-2.558-5.71-2.558z"></path> <path d="m165.75 23.823s4.768-3.445 7.255-2.6c2.491 0.851 4.534 3.257 4.534 3.257s-2.491 2.983-6.079 1.891c-3.58-1.098-5.7-2.548-5.7-2.548z"></path> <path d="m174.94 20.958s4.762-3.436 7.252-2.6c2.49 0.851 4.532 3.254 4.532 3.254s-2.489 3.001-6.074 1.9c-3.59-1.096-5.71-2.554-5.71-2.554z"></path> <path d="m184.02 18.614s4.762-3.45 7.257-2.609c2.487 0.842 4.527 3.252 4.527 3.252s-2.487 2.989-6.073 1.902c-3.6-1.101-5.72-2.545-5.72-2.545z"></path> <path d="m193.1 16.253s4.765-3.457 7.249-2.603c2.495 0.841 4.529 3.251 4.529 3.251s-2.487 2.989-6.073 1.893c-3.59-1.093-5.71-2.541-5.71-2.541z"></path> <path d="m202.55 14.5s4.756-3.451 7.246-2.603c2.492 0.841 4.529 3.263 4.529 3.263s-2.486 2.989-6.074 1.885c-3.59-1.086-5.71-2.545-5.71-2.545z"></path> <path d="m212.7 12.563s5.007-3.073 7.431-2.043c2.418 1.043 4.271 3.598 4.271 3.598s-2.706 2.793-6.198 1.427c-3.49-1.37-5.5-2.982-5.5-2.982z"></path> <path d="m223.39 10.367s5.679-1.487 7.694 0.205c2.012 1.694 3.046 4.675 3.046 4.675s-3.398 1.882-6.347-0.441c-2.95-2.312-4.39-4.439-4.39-4.439z"></path> <path d="m232.7 10.866s5.69-1.484 7.705 0.207c2.009 1.689 3.042 4.679 3.042 4.679s-3.401 1.885-6.348-0.438c-2.94-2.318-4.39-4.448-4.39-4.448z"></path> <path d="m242.01 11.367s5.693-1.484 7.708 0.21c2.012 1.686 3.041 4.667 3.041 4.667s-3.404 1.9-6.347-0.438c-2.95-2.311-4.4-4.439-4.4-4.439z"></path> <path d="m252.36 13.391s5.724-1.317 7.691 0.438c1.953 1.75 2.899 4.762 2.899 4.762s-3.461 1.785-6.338-0.625c-2.88-2.411-4.25-4.575-4.25-4.575z"></path> </g> </g> </g> </g> <g fill="#5C8727"> <g> <path d="m328.92 27.166s-5.293-3.279 0.526-8.253c5.821-4.976 11.429-8.467 11.429-8.467l-1.479-2.01s-11.641 7.197-11.855 7.512c-0.212 0.32-7.619 4.446-7.619 4.446l2.962 6.458 6.04 0.314z"></path> <g stroke-linejoin="round" stroke="#B4CC95" stroke-linecap="round" stroke-width="1.1807"> <path d="m305.43 14.025s-2.027-0.747-4.698-0.428c-2.667 0.321-4.377 0.428-5.123 1.067-0.747 0.642-5.657 2.882-5.657 2.882s-1.281 1.068-1.495 1.708c-0.213 0.641-0.213 2.348-0.213 2.348l8.111 1.603 9.07-9.18z"></path> <path d="m284.83 57.9s-3.31 2.243-3.738 4.482c-0.427 2.24-0.854 5.658-0.212 6.402 0.641 0.749 3.628 1.603 5.765 0.214 2.132-1.384 0.534-5.76 0.534-5.76l-2.34-5.338z"></path> <path d="m306.39 66.758s-1.493 4.482-4.271 4.912c-2.774 0.424-6.404 1.066-6.938 0.533-0.532-0.533-1.39-2.456-1.067-3.096 0.321-0.641 4.271-3.203 5.231-3.949 0.961-0.75 2.881-2.992 2.881-2.992l4.17 4.592z"></path> <path d="m288.88 52.028s-2.989 3.629-3.417 5.872-2.028 9.605 0 10.994c2.027 1.387 5.658 1.28 6.404 1.173 0.749-0.106 0.855-0.854 3.417-1.6 2.561-0.749 6.938-6.301 6.938-6.301l-3.63-6.405-6.403-5.014-3.31 1.281z"></path> <path d="m278.53 41.673s-3.203 3.096-4.375 5.445c-1.176 2.347-1.493 7.256-1.069 7.684 0.427 0.428 3.31-0.64 4.377-1.813s2.882-8.541 2.882-8.541l-1.82-2.775z"></path> <path d="m278.63 45.407s-4.482 9.075-3.842 12.81c0.641 3.738 0.641 4.378 0.641 4.378l3.736 2.137s2.56-0.749 3.842-1.177c1.281-0.426 7.473-11.74 7.473-11.74l0.64-1.814-12.49-4.594z"></path> <path d="m281.2 32.278s-9.03 8.491-0.856 15.693c4.486 3.949 10.036 2.562 10.036 2.562l0.426-12.81-9.61-5.445z"></path> <path d="m307.99 52.349s-1.815 5.655-3.201 7.151c-1.388 1.493-3.736 3.095-5.872 2.455-2.135-0.643-2.027-6.726-1.388-9.606 0.64-2.884 10.46 0 10.46 0z"></path> <path d="m298.17 21.39s-10.354-1.173-11.527-0.854c-1.176 0.32-5.98 1.71-6.621 6.297-0.637 4.59 2.351 7.261 2.351 7.261s3.094 3.202 4.908 3.308c1.815 0.108 4.591-0.748 4.591-0.748l6.3-15.264z"></path> <path d="m309.59 48.72s-6.726 11.637-16.333 4.802c-9.607-6.831-6.616-12.169-3.094-18.574 3.523-6.404 6.083-5.443 6.083-5.443l14.624 1.601 1.389 12.062-2.67 5.552z"></path> <path d="m331.69 38.792s0.642 6.831-0.853 9.18c-1.493 2.347-3.31 4.377-6.941 3.843-3.627-0.535 0.215-15.585 0.215-15.585l7.57 2.562z"></path> <path d="m326.35 39.43s0.214 10.57-1.603 13.131c-1.815 2.563-7.791 3.63-7.791 3.63l-0.854-12.597 10.24-4.164z"></path> <path d="m319.41 46.796s1.28 9.287 0.212 11.634c-1.068 2.353-1.707 3.952-4.908 5.553-3.203 1.602-5.019 2.029-6.619 2.139-1.603 0.104-2.562 0.53-3.523-0.109-0.962-0.641-2.881-3.203-2.457-5.869 0.428-2.67 6.193-11.959 6.193-11.959l11.11-1.389z"></path> <path d="m325.71 37.617s-0.641 5.124-3.735 8.967c-3.098 3.841-5.553 4.803-7.687 5.336-2.135 0.533-7.473 0.429-7.473 0.429s-1.92-10.354 1.068-16.333c2.988-5.978 4.482-8.434 4.482-8.434l8.434 0.641 4.91 9.394z"></path> <path d="m310.98 13.383l-7.048-0.105-1.922 1.281-1.918 1.708s-0.641-0.108-1.388 0.32c-0.747 0.426-1.815 0.64-2.562 1.814-0.748 1.174-1.708 2.028-2.562 3.31-0.854 1.281-2.67 3.736-2.67 3.736h-0.641s-1.921 1.601-1.921 2.029c0 0.425-0.533 2.562 0.215 3.094 0.748 0.535 2.347 2.135 2.347 2.135s2.456 2.777 10.143 2.456c7.685-0.32 11.634-4.591 11.634-4.591l2.777-2.988-4.48-14.199z"></path> <path d="m325.6 24.166s9.075 0 9.607 7.045c0.535 7.046-3.203 10.036-3.203 10.036l-8.859 0.426s-4.375-4.163-4.698-7.686c-0.32-3.523 0.54-8.967 7.15-9.821z"></path> <path d="m321.65 20.536s1.174-3.843 0.747-5.229c-0.425-1.389-1.918-3.417-4.165-5.126-2.24-1.706-4.694-2.453-6.082-2.346s-3.095 0.212-3.095 0.212-0.854 4.269-0.748 5.231c0.104 0.961 6.616 5.977 6.616 5.977l6.72 1.281z"></path> <g> <path d="m322.4 19.362s-3.201-4.484-5.443-4.803c-2.24-0.319-7.475 0-7.475 0l-2.988 3.736s0.215 4.804 1.388 6.404c1.176 1.602 0.854 3.95 2.988 4.059 2.137 0.104 4.057 1.067 4.485 1.173 0.427 0.108 1.816 0.534 1.816 0.534h4.375s1.174-0.213 1.707-0.96c0.535-0.747 1.493-1.708 1.493-2.774 0-1.07-0.105-1.923-0.426-3.312-0.322-1.385-1.28-2.135-1.28-2.135l-0.65-1.922z"></path> <line x1="323.04" y2="20.217" x2="322.93" y1="24.699"></line> </g> </g> <path stroke-linejoin="round" d="m332.82 15.29s-0.877 3.357-0.072 6.06c0.801 2.699 2.117 5.036 2.117 5.036s-5.623-4.745-5.474-5.913c0.145-1.167 0.145-3.285 0.145-3.285" stroke="#B4CC95" stroke-linecap="round" stroke-width="1.1807"></path> </g> <g> <path d="m343.67 20.994s6.143 1.021 5.045-6.556c-1.098-7.578-3.012-13.902-3.012-13.902l2.43-0.536s4.01 13.086 3.961 13.464c-0.051 0.381 2.803 8.367 2.803 8.367l-6.487 2.903-4.74-3.74z"></path> <g stroke-linejoin="round" stroke="#B4CC95" stroke-linecap="round" stroke-width="1.1807"> <path d="m331.7 26.6s-2.018 0.772-3.813 2.775c-1.797 1.999-3.012 3.205-3.151 4.179-0.14 0.975-2.354 5.896-2.354 5.896s-0.26 1.649 0.004 2.269c0.26 0.624 1.385 1.908 1.385 1.908l7.156-4.144 0.76-12.883z"></path> <path d="m345.13 73.172s-1.013 3.868 0.143 5.834c1.159 1.966 3.09 4.816 4.063 4.958 0.973 0.138 3.786-1.191 4.478-3.644 0.686-2.447-3.401-4.684-3.401-4.684l-5.28-2.464z"></path> <path d="m367.18 65.62s1.833 4.355 0.025 6.506c-1.808 2.153-4.112 5.024-4.863 4.979-0.754-0.053-2.663-0.935-2.845-1.626-0.181-0.692 1.099-5.223 1.329-6.417 0.23-1.196 0.196-4.15 0.196-4.15l6.15 0.708z"></path> <path d="m344.31 66.081s0.141 4.701 1.299 6.671c1.158 1.965 4.809 8.561 7.248 8.267 2.44-0.298 5.099-2.768 5.592-3.341 0.49-0.573 0.08-1.202 1.509-3.456 1.436-2.249 1.066-9.311 1.066-9.311l-6.949-2.421-8.124 0.449-1.65 3.142z"></path> <path d="m329.69 65.124s-0.367 4.439 0.299 6.976c0.667 2.543 3.661 6.445 4.263 6.486 0.603 0.038 2.068-2.664 2.095-4.249 0.029-1.588-3.461-8.324-3.461-8.324l-3.19-0.889z"></path> <path d="m332.24 67.862s2.61 9.777 5.555 12.165c2.946 2.387 3.368 2.871 3.368 2.871l4.218-0.86s1.433-2.25 2.116-3.418c0.68-1.164-2.123-13.752-2.123-13.752l-0.714-1.787-12.44 4.781z"></path> <path d="m325.51 56.297s-1.194 12.338 9.703 12.366c5.977 0.011 9.234-4.69 9.234-4.69l-8.123-9.914-10.81 2.238z"></path> <path d="m358.89 53.726s2.364 5.454 2.307 7.489c-0.059 2.038-0.767 4.793-2.797 5.719-2.028 0.925-5.955-3.725-7.375-6.31-1.42-2.591 7.87-6.898 7.87-6.898z"></path> <path d="m331.09 36.922s-8.557 5.943-9.229 6.957c-0.674 1.017-3.371 5.226-0.829 9.1 2.546 3.872 6.553 3.912 6.553 3.912s4.438 0.366 5.873-0.749c1.436-1.117 2.959-3.591 2.959-3.591l-5.32-15.629z"></path> <path d="m357.7 49.941s2.612 13.185-9.114 14.378c-11.73 1.195-12.998-4.788-14.575-11.924-1.571-7.139 0.988-8.106 0.988-8.106l12.054-8.436 8.993 8.154 1.65 5.934z"></path> <path d="m367.77 27.914s4.987 4.712 5.408 7.464c0.426 2.751 0.397 5.473-2.681 7.463-3.084 1.992-10.115-11.86-10.115-11.86l7.39-3.067z"></path> <path d="m364.18 31.909s7.126 7.808 7.447 10.931c0.329 3.122-3.464 7.865-3.464 7.865l-8.946-8.91 4.96-9.886z"></path> <path d="m363.82 42.023s7.085 6.14 7.83 8.61c0.748 2.471 1.323 4.095-0.03 7.411-1.354 3.316-2.435 4.832-3.568 5.968-1.136 1.136-1.573 2.09-2.72 2.242-1.145 0.15-4.278-0.507-5.717-2.796-1.438-2.288-3.226-13.07-3.226-13.07l7.44-8.365z"></path> <path d="m362.5 30.967s2.895 4.277 3.103 9.207c0.207 4.931-1.009 7.272-2.26 9.078-1.254 1.809-5.34 5.248-5.34 5.248s-8.27-6.521-9.963-12.983c-1.693-6.466-2.188-9.297-2.188-9.297l6.765-5.081 9.88 3.828z"></path> <path d="m335.45 22.457l-5.37 4.564-0.598 2.23-0.319 2.55s-0.552 0.341-0.833 1.156c-0.28 0.814-0.943 1.677-0.728 3.055 0.209 1.374 0.05 2.649 0.253 4.174 0.201 1.529 0.453 4.572 0.453 4.572l-0.48 0.422s-0.388 2.471-0.108 2.793c0.281 0.319 1.29 2.277 2.203 2.186 0.914-0.091 3.173 0.057 3.173 0.057s3.676 0.469 9.243-4.839c5.569-5.307 5.724-11.121 5.724-11.121l0.118-4.077-12.71-7.722z"></path> <path d="m353.56 20.923s6.822-5.981 11.87-1.033c5.045 4.945 4.205 9.657 4.205 9.657l-6.38 6.162s-6.039-0.248-8.601-2.687c-2.57-2.435-5.52-7.093-1.1-12.099z"></path> <path d="m348.19 20.797s-1.651-3.662-2.887-4.425c-1.235-0.761-3.696-1.301-6.51-1.108-2.812 0.195-5.147 1.248-6.121 2.244-0.973 0.997-2.188 2.204-2.188 2.204s2.171 3.771 2.885 4.423c0.714 0.653 8.917 0.134 8.917 0.134l5.91-3.472z"></path> <g> <path d="m347.98 19.424s-5.364-1.261-7.26-0.024c-1.896 1.236-5.619 4.928-5.619 4.928l0.216 4.779s3.328 3.472 5.265 3.898c1.938 0.434 3.246 2.41 4.921 1.083 1.676-1.328 3.753-1.872 4.146-2.074 0.396-0.199 1.716-0.794 1.716-0.794l3.294-2.887s0.74-0.931 0.648-1.844c-0.088-0.917 0-2.272-0.707-3.073-0.702-0.804-1.346-1.375-2.505-2.206-1.152-0.833-2.366-0.762-2.366-0.762l-1.75-1.024z"></path> <line x1="351.98" y2="19.714" x2="348.94" y1="23.014"></line> </g> </g> <path stroke-linejoin="round" d="m348.56 9.49s-1.553 3.102-3.938 4.604c-2.385 1.501-4.913 2.392-4.913 2.392s7.354 0.138 8.013-0.837c0.66-0.975 2.057-2.565 2.057-2.565" stroke="#B4CC95" stroke-linecap="round" stroke-width="1.1807"></path> </g> <g> <path d="m367.07 27.166s5.293-3.279-0.527-8.253c-5.819-4.976-11.431-8.467-11.431-8.467l1.484-2.01s11.64 7.197 11.853 7.512c0.211 0.32 7.621 4.446 7.621 4.446l-2.963 6.458-6.03 0.314z"></path> <g stroke-linejoin="round" stroke="#B4CC95" stroke-linecap="round" stroke-width="1.1807"> <path d="m390.57 14.025s2.026-0.747 4.695-0.428c2.669 0.321 4.376 0.428 5.125 1.067 0.744 0.642 5.655 2.882 5.655 2.882s1.282 1.068 1.493 1.708c0.213 0.641 0.213 2.348 0.213 2.348l-8.11 1.603-9.06-9.18z"></path> <path d="m411.17 57.9s3.308 2.243 3.734 4.482c0.428 2.24 0.854 5.658 0.214 6.402-0.641 0.749-3.628 1.603-5.765 0.214-2.134-1.384-0.534-5.76-0.534-5.76l2.36-5.338z"></path> <path d="m389.61 66.758s1.494 4.482 4.267 4.912c2.779 0.424 6.407 1.066 6.941 0.533 0.53-0.533 1.387-2.456 1.066-3.096-0.32-0.641-4.27-3.203-5.229-3.949-0.964-0.75-2.883-2.992-2.883-2.992l-4.17 4.592z"></path> <path d="m407.11 52.028s2.99 3.629 3.418 5.872c0.427 2.243 2.026 9.605 0 10.994-2.028 1.387-5.658 1.28-6.404 1.173-0.75-0.106-0.854-0.854-3.416-1.6-2.562-0.749-6.938-6.301-6.938-6.301l3.629-6.405 6.402-5.014 3.31 1.281z"></path> <path d="m417.47 41.673s3.203 3.096 4.379 5.445c1.171 2.347 1.493 7.256 1.067 7.684-0.427 0.428-3.31-0.64-4.376-1.813-1.07-1.174-2.882-8.541-2.882-8.541l1.81-2.775z"></path> <path d="m417.36 45.407s4.484 9.075 3.842 12.81c-0.644 3.738-0.644 4.378-0.644 4.378l-3.734 2.137s-2.56-0.749-3.841-1.177c-1.282-0.426-7.473-11.74-7.473-11.74l-0.65-1.815 12.49-4.593z"></path> <path d="m414.8 32.278s9.034 8.491 0.86 15.693c-4.485 3.949-10.037 2.562-10.037 2.562l-0.427-12.81 9.61-5.445z"></path> <path d="m388.01 52.349s1.814 5.655 3.201 7.151c1.388 1.493 3.736 3.095 5.872 2.455 2.134-0.643 2.026-6.726 1.389-9.606-0.64-2.884-10.46 0-10.46 0z"></path> <path d="m397.83 21.39s10.354-1.173 11.527-0.854c1.176 0.32 5.979 1.71 6.619 6.297 0.639 4.59-2.348 7.261-2.348 7.261s-3.096 3.202-4.912 3.308c-1.815 0.108-4.588-0.748-4.588-0.748l-6.3-15.264z"></path> <path d="m386.4 48.72s6.728 11.637 16.333 4.802c9.61-6.831 6.618-12.169 3.095-18.574-3.521-6.404-6.081-5.443-6.081-5.443l-14.626 1.601-1.39 12.062 2.68 5.552z"></path> <path d="m364.31 38.792s-0.644 6.831 0.853 9.18c1.493 2.347 3.31 4.377 6.939 3.843 3.629-0.535-0.213-15.585-0.213-15.585l-7.58 2.562z"></path> <path d="m369.64 39.43s-0.213 10.57 1.604 13.131c1.816 2.563 7.792 3.63 7.792 3.63l0.853-12.597-10.24-4.164z"></path> <path d="m376.58 46.796s-1.281 9.287-0.21 11.634c1.065 2.353 1.705 3.952 4.904 5.553 3.206 1.602 5.022 2.029 6.619 2.139 1.604 0.104 2.562 0.53 3.521-0.109 0.964-0.641 2.886-3.203 2.457-5.869-0.427-2.67-6.188-11.959-6.188-11.959l-11.1-1.389z"></path> <path d="m370.28 37.617s0.643 5.124 3.735 8.967c3.096 3.841 5.553 4.803 7.686 5.336 2.138 0.533 7.475 0.429 7.475 0.429s1.923-10.354-1.069-16.333c-2.986-5.978-4.479-8.434-4.479-8.434l-8.436 0.641-4.91 9.394z"></path> <path d="m385.02 13.383l7.051-0.105 1.92 1.281 1.918 1.708s0.641-0.108 1.39 0.32c0.744 0.426 1.813 0.64 2.561 1.814 0.749 1.174 1.709 2.028 2.562 3.31 0.855 1.281 2.672 3.736 2.672 3.736h0.64s1.92 1.601 1.92 2.029c0 0.425 0.534 2.562-0.214 3.094-0.748 0.535-2.346 2.135-2.346 2.135s-2.455 2.777-10.144 2.456c-7.686-0.32-11.634-4.591-11.634-4.591l-2.775-2.988 4.48-14.199z"></path> <path d="m370.39 24.166s-9.072 0-9.609 7.045c-0.532 7.046 3.206 10.036 3.206 10.036l8.858 0.426s4.379-4.163 4.699-7.686-0.54-8.967-7.16-9.821z"></path> <path d="m374.34 20.536s-1.173-3.843-0.746-5.229c0.426-1.389 1.919-3.417 4.165-5.126 2.242-1.706 4.694-2.453 6.084-2.346 1.388 0.107 3.096 0.212 3.096 0.212s0.854 4.269 0.748 5.231c-0.107 0.961-6.622 5.977-6.622 5.977l-6.73 1.281z"></path> <g> <path d="m373.59 19.362s3.204-4.484 5.445-4.803c2.238-0.319 7.475 0 7.475 0l2.986 3.736s-0.214 4.804-1.39 6.404c-1.172 1.602-0.852 3.95-2.986 4.059-2.134 0.104-4.06 1.067-4.485 1.173-0.427 0.108-1.816 0.534-1.816 0.534h-4.376s-1.173-0.213-1.706-0.96c-0.536-0.747-1.493-1.708-1.493-2.774 0-1.07 0.104-1.923 0.427-3.312 0.323-1.385 1.279-2.135 1.279-2.135l0.64-1.922z"></path> <line x1="372.95" y2="20.217" x2="373.06" y1="24.699"></line> </g> </g> <path stroke-linejoin="round" d="m363.17 15.29s0.875 3.357 0.075 6.06c-0.808 2.699-2.121 5.036-2.121 5.036s5.625-4.745 5.475-5.913c-0.145-1.167-0.145-3.285-0.145-3.285" stroke="#B4CC95" stroke-linecap="round" stroke-width="1.1807"></path> </g> </g> <metadata></metadata></svg> 