<?xml version="1.0" encoding="UTF-8" standalone="no"?> <!-- Created with Inkscape (http://www.inkscape.org/) --> <svg xmlns:inkscape="http://www.inkscape.org/namespaces/inkscape" xmlns:rdf="http://www.w3.org/1999/02/22-rdf-syntax-ns#" xmlns="http://www.w3.org/2000/svg" xmlns:cc="http://web.resource.org/cc/" xmlns:dc="http://purl.org/dc/elements/1.1/" xmlns:sodipodi="http://sodipodi.sourceforge.net/DTD/sodipodi-0.dtd" xmlns:svg="http://www.w3.org/2000/svg" xmlns:ns1="http://sozi.baierouge.fr" xmlns:xlink="http://www.w3.org/1999/xlink" id="svg1896" sodipodi:docname="ring.svg" viewBox="0 0 173.47 190.67" sodipodi:version="0.32" inkscape:version="0.44.1" sodipodi:docbase="C:\Documents and Settings\ryan\Desktop"><g id="layer1" inkscape:label="Layer 1" inkscape:groupmode="layer" transform="translate(-6.9579 -5.5741)"><g id="g1937"><path id="path1928" style="fill:#cbcbcb" d="m81.031 195.42c-27.193-3.98-52.281-22.17-64.825-47-12.491-24.72-12.322-53.476 0.465-78.907 4.469-8.889 13.671-20.774 20.39-26.335 11.273-9.331 26.163-16.475 39.299-18.855l7.145-1.295 0.504-3.755c1.136-8.472 9.094-14.397 18.311-13.633 9.06 0.7517 15.51 7.475 15.64 16.301 0.07 4.102 0.22 4.305 4.16 5.485 14.97 4.48 33.5 18.61 43.27 32.997 17.76 26.143 19.94 59.967 5.71 88.227-12.49 24.81-37.52 42.84-64.88 46.74-7.947 1.13-17.573 1.14-25.189 0.03zm34.649-10.98c32.92-11.24 53.02-39.05 53.14-73.52 0.09-29.567-15.87-55.941-41.66-68.823-10.52-5.255-14.49-6.22-18.04-4.384-5.6 2.896-12.914 2.532-17.961-0.892-3.322-2.255-4.491-2.516-8.738-1.953-7.78 1.032-19.657 5.179-26.55 9.27-34.017 20.189-47.126 64.552-29.743 100.66 9.503 19.74 26.82 34.26 48.088 40.32 10.827 3.08 31.434 2.75 41.464-0.68z"></path><path id="path1924" style="fill:#fd0000" d="m94.197 38.03c-1.66-0.724-4.442-2.937-6.182-4.919-10.545-12.01 1.607-31.054 17.055-26.728 4.84 1.3558 9.89 5.87 11.58 10.356 5.07 13.428-9.28 27.031-22.453 21.291z"></path></g></g><metadata></metadata></svg> 