<?xml version="1.0" encoding="UTF-8" standalone="no"?> <!-- Created with Inkscape (http://www.inkscape.org/) --> <svg xmlns:inkscape="http://www.inkscape.org/namespaces/inkscape" xmlns:rdf="http://www.w3.org/1999/02/22-rdf-syntax-ns#" xmlns="http://www.w3.org/2000/svg" xmlns:cc="http://creativecommons.org/ns#" xmlns:dc="http://purl.org/dc/elements/1.1/" xmlns:sodipodi="http://sodipodi.sourceforge.net/DTD/sodipodi-0.dtd" id="svg1658" sodipodi:docname="_svgclean2.svg" viewBox="0 0 269.43 380.89" sodipodi:version="0.32" inkscape:version="0.48.3.1 r9886"><g id="g18286" transform="matrix(1.3719 0 0 1.3719 -52.955 18.177)"><path id="path17122" style="fill:#000000" inkscape:connector-curvature="0" d="m127.19 263.41c-12.21-3.3-16.02-4.73-18.81-7.06-4.6-3.84-7.72-8.77-8.18-12.92-0.227-2.07-0.954-4.12-1.615-4.56-0.884-0.58-0.725-1.16 0.601-2.17 1.334-1.03 1.464-1.51 0.5-1.86-1-0.37-1.03-0.77-0.131-1.72 0.645-0.69 0.935-1.87 0.645-2.63-0.355-0.92 0.25-1.4 1.83-1.46 1.4-0.04 1.75-0.28 0.85-0.57-0.82-0.28-2.17-0.73-2.997-1-1.198-0.4-1.037-0.87 0.797-2.37 1.27-1.03 2.84-1.67 3.5-1.42 1.3 0.5 1.41 4.83 0.19 7.76-1.12 2.69 1.03 4.46 3.52 2.91 1.08-0.68 4.9-1.23 8.48-1.23 3.67 0 6.51-0.43 6.51-1 0-0.55 0.68-1 1.5-1 3.11 0 1.3-1.68-4.66-4.33-4.31-1.91-5.85-3.05-5.12-3.79 0.74-0.73 2.07-0.52 4.42 0.71 2.11 1.11 6.47 1.93 11.73 2.22 6.88 0.38 9.57 0.05 15.23-1.84 3.79-1.26 7.77-3.12 8.85-4.13 2.36-2.2 3.43-2.3 4.96-0.44 0.9 1.07 0.81 1.74-0.37 2.93-0.85 0.84-1.54 1.95-1.54 2.47s-2.13 1.52-4.75 2.23c-6.22 1.68-6.55 1.9-5.21 3.52 1.14 1.37 6.89 0.96 7.96-0.58 0.28-0.39 2.46-0.71 4.86-0.7 4.29 0.01 7.86-2.38 4.62-3.09-1.65-0.36-2.04-2.18-0.48-2.18 0.55 0 1-1.15 1-2.56 0-1.45 0.44-2.29 1-1.94 0.55 0.34 1-0.08 1-0.94 0-0.85 0.37-1.56 0.82-1.56 1.46 0 5.23 7.78 5.16 10.68-0.03 1.55 0.14 4.06 0.39 5.57s0.04 3-0.47 3.32c-0.51 0.31-0.58 1.1-0.16 1.75s0.76 2.08 0.76 3.18c0 1.35 0.57 1.91 1.75 1.71 0.97-0.16 1.75 0.23 1.75 0.87 0 0.89 0.34 0.89 1.41 0 0.95-0.79 1.63-0.83 2.05-0.15 0.78 1.27 4.54-0.85 4.54-2.55 0-0.63 1.09-1.86 2.43-2.73 1.33-0.88 2.73-2.62 3.11-3.87s1.64-3.31 2.8-4.58c1.16-1.26 2.12-3.17 2.13-4.23 0.04-2.49 1.66-2.74 3-0.47 0.75 1.28 0.69 1.88-0.22 2.22-0.68 0.25-1.25 1.43-1.25 2.62 0 4.82-18.44 23.54-23.28 23.63-0.98 0.02-2.04 0.71-2.36 1.53-0.31 0.83-1.09 1.5-1.73 1.5s-2.84 0.9-4.89 2-4.61 2-5.67 2c-1.07 0-2.19 0.4-2.49 0.87-1.4 2.28-23.31 3.31-30.27 1.43zm50.69-16.3c0-0.55-0.45-1-1-1s-1 0.45-1 1 0.45 1 1 1 1-0.45 1-1zm-76.45-28.25c0.37-1.23 1.08-2.67 1.57-3.2 1.15-1.24 1.15-11.26-0.01-11.98-1.41-0.87 0.42-7.16 3.03-10.44 1.3-1.64 3.59-3.51 5.08-4.16s2.98-2.01 3.3-3.02c0.76-2.38 6.52-5.95 9.62-5.95 1.31 0 4.11 0.92 6.2 2.05l3.82 2.04 4.54-3.01c4.32-2.86 11.3-4.04 11.3-1.91 0 0.46 0.51 0.83 1.14 0.83 0.62 0 2.09 1.02 3.26 2.25 1.17 1.24 3.67 3.38 5.55 4.75 1.88 1.38 4.96 3.97 6.85 5.77 3.35 3.18 3.41 3.4 2.74 9-0.71 6-2.34 8.25-5.98 8.22-1.19-0.01-1.6-0.33-0.98-0.75 1.36-0.94 2.61-4.24 1.59-4.24-0.42 0-1.3-1.48-1.96-3.29-1.64-4.55-6.32-6.19-17.71-6.2-4.95 0-9.53-0.35-10.18-0.77-0.65-0.43-3.11-0.11-5.46 0.7-3.23 1.11-5.34 1.24-8.58 0.51-3.73-0.83-4.74-0.66-7.74 1.3-4.37 2.86-5.55 5.4-4.24 9.16 0.78 2.24 0.68 3.15-0.44 4-0.79 0.6-1.51 2.15-1.59 3.43-0.18 2.76-2.86 7.16-4.36 7.16-0.62 0-0.76-0.92-0.36-2.25zm35.45-2.57c0-0.5-2.81-1.15-6.25-1.44-6.07-0.53-12.21-2.83-14.25-5.34-0.55-0.67-1.9-1.38-3-1.58-3.07-0.53-1.93-2.17 2.53-3.66 3.89-1.3 4.11-1.25 6.08 1.25 1.12 1.43 2.68 2.59 3.47 2.59 0.78 0 1.42 0.46 1.42 1.01 0 1.61 11.84 0.9 17.37-1.04 2.76-0.98 5.57-2.53 6.25-3.46 1.08-1.47 1.72-1.53 5.06-0.46 2.1 0.68 4.45 1.41 5.22 1.62 1.1 0.3 0.99 0.78-0.5 2.21-1.45 1.39-1.97 1.5-2.22 0.47-0.18-0.74-0.77-1.35-1.32-1.35-0.54 0-0.73 0.84-0.4 1.87 0.5 1.56 0.17 1.79-1.97 1.38-1.59-0.31-3.28 0.16-4.46 1.23-1.05 0.95-2.39 1.42-2.99 1.04-0.61-0.37-3.11 0.51-5.57 1.95s-4.47 2.21-4.47 1.71zm-67.524-20.34c-2.634-1.23-7.214-11.09-7.822-16.84-0.261-2.47-1.215-9-2.119-14.5s-1.917-12.47-2.251-15.5c-0.334-3.02-1.415-6.85-2.402-8.5-3.589-5.99-4.706-9.11-5.381-15-0.379-3.3-0.95-7.8-1.271-10-1.44-9.89-0.609-23.605 2.334-38.496 0.816-4.125 1.608-8.205 1.762-9.067 0.244-1.371 5.039-10.693 7.681-14.933 0.514-0.825 1.774-3.3 2.8-5.5 3.21-6.885 12.51-16.848 20.157-21.593 12.646-7.847 21.256-11.87 25.636-11.98 3.03-0.077 5.19-1.243 12.39-6.6774 5.48-4.1311 8.82-4.1664 13.13-0.1387 3.1 2.8921 3.7 3.0681 8.53 2.4999 11.93-1.4011 31.5 4.2832 40.32 11.709 1.51 1.268 6.32 4.167 10.7 6.443 9.23 4.803 16.61 12.006 20.74 20.24 1.51 3.023 3.35 6.172 4.07 6.997 0.73 0.825 1.79 3.075 2.35 5 0.57 1.925 2.18 6.235 3.57 9.579 2.82 6.737 5.45 21.421 5.63 31.417 0.15 8.4-1.09 22-2 22-0.96 0-3.23 5.13-2.56 5.8 0.29 0.3 0.53 0.04 0.53-0.56 0-1.62 3.02-4.34 4.08-3.69 1.05 0.65 1.04 13.4 0 17.95-0.62 2.71-0.76 2.8-1.4 0.92-1.25-3.69-1.49-11.85-0.4-13.92 0.94-1.79 0.88-1.85-0.61-0.62-0.92 0.75-1.71 2.55-1.77 4l-0.1 2.62-0.72-2.5-0.72-2.5-0.78 2.36c-0.43 1.3-0.93 4.45-1.11 7-0.19 2.56-0.62 6.67-0.97 9.14-0.59 4.21-0.53 4.38 0.94 2.56 1.79-2.22 3.09-1.41 4.06 2.54 0.51 2.07 0.06 3.1-2.18 5.01-3.9 3.33-7.29 11.66-7.33 18.01-0.01 1.31-1.32 3.86-2.9 5.66-1.87 2.11-2.71 3.97-2.37 5.25 0.31 1.17 0.02 1.97-0.71 1.97-0.67 0-0.97-0.66-0.66-1.47 0.32-0.81-0.14-1.87-1-2.35-1.24-0.69-1.63-3.15-1.88-11.77-0.17-5.98 0.04-11.34 0.48-11.89 2.77-3.53 3.9-14.64 2.54-25.02-0.29-2.2-0.71-8.9-0.95-14.9-0.23-6-0.86-11.18-1.4-11.51-0.53-0.33-0.85-2.17-0.71-4.09 0.35-4.57-0.24-6-2.48-6-1 0-2.11-0.45-2.45-1-0.34-0.546-0.16-0.996 0.4-0.996 1.39 0-2.98-4.497-5.15-5.293-1.86-0.684-2.42-2.707-0.76-2.707 0.55 0 0.93-1.013 0.87-2.25-0.07-1.238 0.19-2.992 0.58-3.899 0.38-0.907 0.28-1.909-0.23-2.226-0.52-0.317-0.75-3.625-0.53-7.351 0.35-5.768 0.21-6.528-0.93-5.118-0.97 1.205-1.8 1.395-3.05 0.696-0.94-0.528-2.16-0.685-2.71-0.347-0.54 0.337-0.99-0.062-0.99-0.887 0-1.657-1.8-3.149-2.71-2.243-0.31 0.317-0.03 1.227 0.63 2.022 0.99 1.2 0.84 1.351-0.94 0.887-1.17-0.307-2.52-1.594-3.01-2.86-0.48-1.267-1.78-2.791-2.9-3.387-1.66-0.891-1.92-0.813-1.44 0.44 0.81 2.092-0.3 1.908-2.86-0.477-2.56-2.383-3.77-2.544-3.77-0.5 0 0.825 0.53 1.5 1.17 1.5s0.86 0.301 0.5 0.67c-0.37 0.369-1.69-0.239-2.92-1.351-3.73-3.361-5.2-3.944-4.36-1.733 0.59 1.535 0.48 1.666-0.53 0.664-0.69-0.688-2.1-1.25-3.12-1.25-1.48 0-1.73 0.469-1.17 2.25 0.39 1.237 1.2 2.58 1.82 2.984 0.76 0.502 0.69 0.74-0.23 0.75-1.51 0.017-6.71-2.691-9.46-4.93-1-0.808-3.02-1.621-4.5-1.807-1.49-0.186-3.26-1.078-3.95-1.984-1.05-1.38-1.25-1.403-1.25-0.143 0 0.826 0.92 2.487 2.04 3.691s1.79 2.189 1.49 2.189c-1.08 0-4.95-2.531-7.27-4.75-2.65-2.541-3.39-2.714-4.95-1.157-0.75 0.754-0.79 2.182-0.13 4.594 1.24 4.495 0.16 5.668-1.4 1.523-1.22-3.218-3.96-5.174-4.59-3.276-0.24 0.729-0.96 0.722-2.35-0.022-1.56-0.832-2.42-0.698-3.85 0.6-1.75 1.579-1.82 1.556-1.3-0.42 0.65-2.479-0.63-2.638-7.44-0.925-3.33 0.839-4.74 0.86-5 0.073-0.41-1.223-7.14-0.534-8.7 0.89-0.52 0.478-3.281 0.87-6.133 0.87-7.734 0-15.465 4.799-18.495 11.48-1.451 3.201-1.938 3.633-2.486 2.207-0.626-1.633-0.821-1.646-2.453-0.169-1.159 1.048-1.902 1.216-2.146 0.486-0.568-1.705-3.662-0.099-4.504 2.338-1.412 4.085-1.611 73.034-0.233 80.954 0.555 3.19 2.805 12.16 5 19.92 3.247 11.5 3.75 14.35 2.697 15.35-0.888 0.84-1.931 0.92-3.321 0.27zm63.334-186.31c0.29-0.2916-0.87-0.5302-2.58-0.5302s-3.37 0.4181-3.68 0.9293c-0.59 0.95 5.28 0.576 6.26-0.3991zm-10.78 164.51c-0.81-0.51-1.21-1.19-0.89-1.51 0.79-0.78 3.86 0.47 3.86 1.58 0 1.14-1.1 1.12-2.97-0.07zm19.97-0.12c0-1.13 4.16-3.92 5.85-3.92 1.17 0 1.15 0.37-0.1 2.25-1.41 2.14-5.75 3.4-5.75 1.67zm16-36.48c0-0.79-0.66-1.44-1.47-1.44-0.89 0-1.24-0.58-0.89-1.5 0.44-1.13-0.18-1.5-2.53-1.5-3.42 0-3.58-0.24-2.06-3.08 0.76-1.42 0.72-1.87-0.13-1.68-2.56 0.58-1.82-2.2 1.54-5.76 1.95-2.07 3.54-3.88 3.54-4.02 0-0.15-2.21-0.57-4.92-0.95-4.95-0.68-9.25-3.67-7.14-4.97 0.58-0.36 1.06 0.05 1.06 0.9 0 0.86 0.45 1.56 1 1.56s1-0.35 1-0.78c0-1.11 5.72-4.35 7.24-4.1 2.43 0.39 13.81-1.39 14.34-2.25 0.3-0.48 1.78-0.87 3.29-0.87s3.59-0.61 4.61-1.36c1.03-0.75 2.69-1.14 3.7-0.88s2.48-0.05 3.26-0.71c1.04-0.86 1.98-0.89 3.43-0.12 1.1 0.59 2.68 1.07 3.52 1.07 0.83 0 2.71 1.12 4.19 2.48 1.47 1.37 3.12 2.21 3.66 1.88 0.58-0.36 0.72 0.2 0.34 1.4-0.43 1.36 0.18 2.99 1.88 5.02l2.53 2.99-2.22 0.58c-1.43 0.38-2.93-0.09-4.24-1.32-4.34-4.06-5.94-4.2-23.03-1.93-12.57 1.66-13.37 2.58-2.93 3.36 8.86 0.67 14.43 2.05 14.43 3.58 0 0.44-0.54 0.98-1.2 1.2-0.81 0.27-0.5 1.38 0.99 3.47 2.49 3.5 1.46 5.34-2.85 5.07-1.34-0.08-7.37-0.06-13.41 0.04-10.24 0.17-10.82 0.29-8.75 1.74 2.76 1.94 2.87 3.97 0.22 4.17-1.14 0.08-2-0.47-2-1.29zm18.88-7.34c0.76-0.48 1.07-1.37 0.69-1.98-1.1-1.79-3.29-1.29-3.86 0.88-0.55 2.12 0.82 2.59 3.17 1.1zm-15.57-2.03c-0.43-1.65-0.86-1.77-2.91-0.84-3.25 1.49-3.02 2.77 0.51 2.77 2.38 0 2.81-0.35 2.4-1.93zm18.56-5.17c-0.75-0.47-2.49-0.85-3.87-0.84-2.32 0.03-2.25 0.16 1 1.9 2.12 1.13 3.65 1.47 3.87 0.84 0.21-0.56-0.24-1.42-1-1.9zm-71.31 11.32c-0.27-0.27-5.91-0.41-12.527-0.32-7.021 0.1-12.03-0.23-12.03-0.78 0-1.61 9.626-8.11 14.688-9.91l4.809-1.71-3.935-0.32c-2.165-0.17-5.852 0.16-8.192 0.75-2.341 0.59-5.542 1.07-7.113 1.07s-3.285 0.42-3.807 0.92c-1.188 1.15-10.45 2.57-10.45 1.6 0-1.19 3.385-6.52 4.144-6.52 0.392 0 1.308-0.59 2.034-1.31 2.394-2.39 10.179-3.94 19.322-3.86 4.947 0.04 11.927 0.11 15.497 0.14 4.06 0.04 5.99 0.39 5.14 0.93-1.09 0.69-1.1 0.95-0.07 1.29 2.17 0.72-0.01 2.81-2.94 2.81-1.51 0-3.54 0.59-4.52 1.3-1.66 1.21-1.6 1.38 0.81 2.48 1.42 0.65 2.58 1.72 2.58 2.39 0 0.66 0.97 2.23 2.15 3.49 1.7 1.81 1.9 2.58 0.97 3.7-1.22 1.47-5.69 2.74-6.56 1.86zm-11.374-3.12c1.536-1.79 1.478-1.93-1.027-2.42-2.897-0.58-7.591 1.81-6.629 3.37 1.02 1.65 5.956 1.04 7.656-0.95zm12.674-0.99c0.95-0.6 1.02-1.06 0.25-1.54-1.27-0.78-3.11 0.1-3.11 1.49 0 1.17 1.07 1.18 2.86 0.05zm118.07-30.11c-1.44-1.68-4.16-3.476-6.03-3.992s-5.79-2.927-8.7-5.358-5.86-4.42-6.56-4.42-3.78-2.367-6.84-5.261c-3.07-2.893-7.65-6.365-10.2-7.715-2.54-1.351-7.64-4.534-11.32-7.075-13.42-9.244-17.55-11.454-23.47-12.568-3.31-0.624-8.74-2.001-12.06-3.059-3.55-1.131-14.88-1.98-27.48-2.061-18.955-0.12-22.578 0.281-31.092 3.442-10.527 3.908-20.458 11.242-21.511 15.887-0.368 1.623-1.202 2.951-1.853 2.951-0.652 0-1.185 0.81-1.185 1.799 0 0.99-1.021 4.468-2.269 7.73-1.712 4.475-3.049 5.93-5.45 5.93-5.27 0-8.368-2.793-8.368-7.544 0-2.389-1.191-5.587-2.647-7.106-2.093-2.184-2.502-4.091-1.955-9.117 0.381-3.495 1.271-7.02 1.977-7.835 0.706-0.814 1.284-4.168 1.284-7.452 0-8.651 6.826-23.724 15.408-34.022 4.059-4.8717 8.024-8.8572 8.812-8.8572 0.787 0 3.351-1.6059 5.699-3.5688 2.347-1.9629 8.49-5.1927 13.652-7.1773 24.238-9.3187 45.498-9.2217 76.418 0.3472 12.33 3.8161 18.53 7.667 34.85 21.639 6.71 5.741 23.11 25.996 25.71 31.753 1.35 2.973 3.81 7.007 5.46 8.963 2.03 2.392 3.04 5.476 3.07 9.423 0.02 3.228 0.91 7.607 1.96 9.733 3.25 6.558 1.98 28.051-1.64 27.731-0.57-0.05-2.22-1.46-3.67-3.14z"></path><path id="path18129" style="fill:#ff0000" sodipodi:type="star" d="m340.7-170.01 17.693 49.638 52.676 1.4879-41.741 32.166 14.863 50.558-43.49-29.758-43.49 29.758 14.863-50.558-41.741-32.166 52.676-1.4879z" sodipodi:r1="73.990036" sodipodi:r2="30.100828" transform="matrix(.25438 0 0 .25438 20.889 47.031)" sodipodi:arg2="-0.94247782" sodipodi:arg1="-1.5707964" inkscape:randomized="0" sodipodi:cy="-96.016273" sodipodi:cx="340.6983" inkscape:rounded="0" inkscape:flatsided="false" sodipodi:sides="5"></path></g><metadata id="metadata7"></metadata></svg> 