<?xml version="1.0" encoding="UTF-8" standalone="no"?> <!-- Created with Inkscape (http://www.inkscape.org/) --> <svg xmlns:rdf="http://www.w3.org/1999/02/22-rdf-syntax-ns#" xmlns="http://www.w3.org/2000/svg" xmlns:cc="http://web.resource.org/cc/" xmlns:dc="http://purl.org/dc/elements/1.1/" xmlns:svg="http://www.w3.org/2000/svg" xmlns:inkscape="http://www.inkscape.org/namespaces/inkscape" xmlns:sodipodi="http://sodipodi.sourceforge.net/DTD/sodipodi-0.dtd" xmlns:ns1="http://sozi.baierouge.fr" xmlns:xlink="http://www.w3.org/1999/xlink" id="svg2" viewBox="0 0 468 549" inkscape:version="0.91 r13725"><g id="g1921"><g id="g6" style="fill:black" transform="matrix(.12251 0 0 -.12251 0 549)"><path id="path8" d="m0 2240v-2240h1910 1910v2240 2240h-1910-1910v-2240zm3810 0v-2230h-1900-1900v2230 2230h1900 1900v-2230z"></path><path id="path10" d="m1878 4390c-977-3-1779-8-1783-12-6-5-7-1006-2-1356 1-78-1-150-4-159s1-30 9-45c7-16 11-36 7-46-9-23-5-631 5-652 1-3 1-9 0-15-6-31-5-95 3-95 5 0 6-22 2-49s-2-65 3-84 6-39 1-44c-4-4-4-28 2-52 5-24 9-60 8-80-2-20 4-47 11-61s13-40 11-57c-1-18 6-47 15-64s16-51 17-76c0-24 4-46 9-49 4-3 8-14 8-25 0-10 5-19 10-19 6 0 10-6 9-12-4-21 13-72 28-90 8-9 12-21 9-27-4-5-2-12 4-16 5-3 21-30 35-60 14-29 36-69 49-88s36-56 52-83c79-137 309-389 439-482 224-159 400-245 616-301 82-22 87-23 249-46 319-45 690 21 1010 180 92 46 262 157 313 204 21 20 49 42 62 51 28 18 153 147 210 216 128 155 258 389 320 579 27 84 65 264 75 360 11 107 12 2626 1 2642-3 5-13 11-21 14-8 2-815 2-1792-1zm1794-575c2-300 3-545 3-545 0 1-263 52-270 52-5 1-59-2-120-6-112-6-166-12-385-41-139-19-338-21-445-6-38 6-124 19-190 28-77 11-180 18-290 18-181-1-256-10-545-65-95-18-316-8-390 18-8 3-19 4-23 3-8-1-64 4-242 23-128 14-171 16-270 15-61 0-121-1-135-1-25-1-175-31-217-44l-23-6v163c0 183-9 903-11 916-1 4-1 11 0 15 0 4 800 7 1776 8l1775 1 2-546zm-3007-540c66-4 210-20 320-36 118-17 241-29 301-29 97 0 247 20 308 40 40 14 293 35 401 34 101-1 183-8 334-30 197-27 415-29 611-5 96 12 199 26 229 31 121 22 318 10 449-26l52-15v-305c0-167-2-304-5-304s-16 6-28 14c-34 22-159 37-288 35-125-1-363-32-383-49-7-5-15-8-18-5s-38 1-79-5c-118-17-260-12-464 16-276 38-546 43-760 15-88-12-198-27-245-33-110-14-312-5-515 23-283 39-524 28-692-31l-53-18v31c-1 18-2 161-4 319l-3 286 66 18c85 22 232 41 296 38 28-2 104-6 170-9zm2918-646c34-6 67-17 74-23 14-13 20-611 6-611-4 1-26 6-49 13-129 38-359 54-456 32-105-23-211-41-274-46-80-6-373-6-424 0-19 3-62 7-95 11-33 3-85 10-115 16-51 9-275 24-345 22-72-2-288-23-323-32-39-11-276-30-402-32-41-1-113 3-160 10-303 42-545 54-647 30-94-22-119-28-168-43-27-8-50-14-51-13s-4 136-7 299l-6 297 67 20c90 26 110 30 232 47 95 14 120 14 275-2 94-9 202-21 240-25 39-5 151-12 250-15 149-5 197-3 275 11 300 56 560 54 1044-5 122-15 272-12 397 9 104 17 238 36 314 45 59 6 287-3 348-15zm-136-624c136-18 199-33 214-52 25-29-19-393-64-543-17-53-32-59-90-32-54 25-174 42-257 38-106-6-193-18-225-32-97-40-388-59-513-34-50 10-55 11-252 36-133 17-432 14-575-5-38-6-149-18-245-27l-175-17-205 27c-113 15-223 30-245 33-22 2-113 4-201 4-155 0-165-1-250-31-49-17-95-32-103-33-29-4-76 192-96 407-16 158-13 192 13 200 147 40 321 60 462 51 140-8 286-24 332-36 50-13 324-12 423 1 44 6 100 13 125 15 371 39 514 44 681 21 57-8 142-17 189-20s117-9 157-15c123-18 217-13 493 30 209 32 261 34 407 14zm-18-631c36-9 83-25 103-35l37-19-19-42c-10-24-35-76-54-116-20-40-36-74-36-77 0-2-15-25-32-52-18-26-37-57-43-68-21-43-143-192-225-275-73-73-332-270-356-270-4 0-16-7-26-17-80-72-386-186-578-215-99-14-449-22-474-9-12 6-50 12-86 14s-85 8-110 15c-25 6-70 16-100 22s-64 15-75 20-51 21-90 36c-81 30-243 109-265 128-8 8-31 21-51 30s-45 25-55 34c-11 9-46 37-79 61-76 56-265 249-304 310-17 25-44 62-61 81-17 20-41 54-53 76-67 125-100 190-118 236l-21 53 21 16c46 37 171 60 348 62 92 1 179-1 193-5 14-5 63-13 109-18 47-6 108-16 135-23 93-21 342-14 586 16 322 39 474 37 810-12 261-38 338-33 615 33 123 29 260 33 354 10z"></path></g><path id="path1885" style="fill:#0084ff" d="m14.579 15.823c-0.122 0.49-0.122 1.348 0 1.838 0.245 1.593 1.348 89.799 1.348 112.22v19.97l2.817-0.73c5.146-1.6 23.523-5.27 26.586-5.39 1.715 0 9.066-0.13 16.539-0.13 12.129-0.12 17.397 0.13 33.079 1.84 21.802 2.33 28.672 2.94 29.652 2.82 0.49-0.12 1.83 0 2.81 0.37 9.07 3.18 36.14 4.41 47.78 2.2 35.41-6.74 44.6-7.84 66.77-7.96 13.48 0 26.1 0.86 35.53 2.2 8.09 1.11 18.62 2.7 23.28 3.43 13.11 1.84 37.49 1.6 54.52-0.73 26.83-3.55 33.44-4.29 47.17-5.02 7.47-0.49 14.08-0.86 14.7-0.74 0.85 0 33.08 6.25 33.08 6.37 0 0-0.13-30.01-0.37-66.767l-0.25-66.892-217.46 0.122c-119.57 0.123-217.58 0.49-217.58 0.98z"></path><path id="path1887" style="fill:#ccc" d="m43.492 147.77c-6.003 0.86-14.701 2.45-19.112 3.55l-8.086 2.21 0.368 35.04c0.245 19.35 0.367 36.87 0.49 39.08v3.8l6.493-2.21c20.582-7.23 50.108-8.57 84.775-3.8 24.87 3.43 49.62 4.54 63.1 2.82 5.76-0.73 19.23-2.57 30.01-4.04 26.22-3.43 59.3-2.82 93.11 1.84 25 3.43 42.39 4.04 56.85 1.96 5.02-0.74 9.31-0.98 9.68-0.62 0.37 0.37 1.35 0 2.2-0.61 2.45-2.08 31.61-5.88 46.93-6 15.8-0.25 31.11 1.59 35.28 4.29 1.47 0.98 3.06 1.71 3.43 1.71s0.61-16.78 0.61-37.24v-37.37l-6.37-1.84c-16.05-4.41-40.18-5.88-55.01-3.18-3.67 0.61-16.29 2.33-28.05 3.8-24.01 2.94-50.72 2.69-74.86-0.62-18.5-2.69-28.54-3.55-40.92-3.67-13.23-0.13-44.22 2.45-49.12 4.16-7.48 2.45-25.85 4.9-37.74 4.9-7.35 0-22.42-1.47-36.87-3.55-21.444-3.18-31.613-4.04-60.036-5.51-3.308-0.13-11.026 0.36-17.152 1.1z"></path><path id="path1889" style="fill:#e73121" d="m396.33 225.08c-9.31 1.1-25.73 3.43-38.47 5.51-15.31 2.57-33.69 2.94-48.64 1.1-59.29-7.23-91.15-7.47-127.9-0.61-9.56 1.71-15.44 1.96-33.69 1.35-12.13-0.37-25.85-1.23-30.63-1.84-4.66-0.49-17.887-1.96-29.403-3.06-18.99-1.96-22.053-1.96-33.691-0.25-14.947 2.08-17.397 2.57-28.423 5.76l-8.209 2.45 0.735 36.39c0.368 19.97 0.735 36.5 0.858 36.63 0.123 0.12 2.94-0.62 6.248-1.6 6.003-1.83 9.066-2.57 20.582-5.26 12.497-2.94 42.145-1.47 79.263 3.67 5.76 0.86 14.58 1.35 19.61 1.23 15.43-0.25 44.47-2.58 49.25-3.92 4.28-1.11 30.75-3.68 39.57-3.92 8.57-0.25 36.02 1.59 42.26 2.69 3.68 0.74 10.05 1.59 14.09 1.96 4.05 0.49 9.31 0.98 11.64 1.35 6.25 0.73 42.15 0.73 51.95 0 7.72-0.61 20.7-2.82 33.57-5.64 11.88-2.69 40.06-0.73 55.86 3.92 2.82 0.86 5.52 1.47 6.01 1.6 1.71 0 0.98-73.27-0.74-74.86-2.45-2.33-15.93-4.29-32.34-4.65-8.7-0.25-17.28-0.13-19.36 0z"></path><path id="path1891" style="fill:#ccc" d="m392.65 302.38c-2.69 0.25-11.76 1.47-20.21 2.7-33.81 5.26-45.33 5.88-60.4 3.67-4.9-0.73-13.48-1.47-19.23-1.84-5.76-0.36-16.18-1.47-23.16-2.45-20.46-2.81-37.98-2.2-83.43 2.58-3.06 0.24-9.92 1.1-15.31 1.83-12.13 1.6-45.7 1.72-51.83 0.13-5.63-1.47-23.52-3.43-40.672-4.41-17.274-1.11-38.591 1.34-56.601 6.24-3.185 0.98-3.553 5.15-1.592 24.51 2.45 26.34 8.208 50.35 11.761 49.86 0.98-0.12 6.616-1.96 12.619-4.04 10.413-3.68 11.638-3.8 30.628-3.8 10.781 0 21.93 0.24 24.625 0.49 2.692 0.37 16.172 2.2 30.012 4.04l25.12 3.31 21.44-2.08c11.76-1.11 25.36-2.58 30.01-3.31 17.52-2.33 54.16-2.7 70.45-0.61 24.13 3.06 24.75 3.18 30.87 4.41 15.32 3.06 50.97 0.73 62.85-4.17 3.92-1.71 14.58-3.18 27.57-3.92 10.17-0.49 24.87 1.59 31.48 4.66 7.11 3.3 8.95 2.57 11.03-3.92 5.51-18.38 10.9-62.98 7.84-66.53-1.84-2.33-9.56-4.16-26.22-6.37-12.86-1.71-18.62-1.96-29.65-0.98z"></path><path id="path1893" style="fill:#0084ff" d="m376.73 381.89c-33.94 8.09-43.37 8.7-75.35 4.05-41.16-6.01-59.78-6.25-99.23-1.47-29.9 3.67-60.4 4.53-71.8 1.96-3.3-0.86-10.78-2.09-16.54-2.82-5.63-0.62-11.63-1.6-13.35-2.21-1.715-0.49-12.373-0.73-23.644-0.61-21.685 0.24-36.999 3.06-42.635 7.6l-2.573 1.96 2.573 6.49c2.205 5.63 6.248 13.6 14.457 28.91 1.47 2.7 4.41 6.86 6.493 9.31 2.083 2.33 5.39 6.86 7.473 9.93 4.778 7.47 27.933 31.11 37.244 37.98 4.042 2.94 8.332 6.37 9.682 7.47 1.22 1.1 4.28 3.06 6.73 4.16 2.46 1.11 5.27 2.7 6.25 3.68 2.7 2.33 22.55 12.01 32.47 15.68 4.78 1.84 9.68 3.8 11.03 4.41 1.34 0.61 5.51 1.72 9.18 2.45 3.68 0.74 9.19 1.96 12.25 2.7 3.07 0.85 9.07 1.59 13.48 1.83 4.41 0.25 9.07 0.99 10.54 1.72 3.06 1.59 45.94 0.61 58.07-1.1 23.52-3.56 61.01-17.52 70.81-26.34 1.23-1.23 2.7-2.09 3.19-2.09 2.94 0 34.67-24.13 43.61-33.07 10.05-10.17 24.99-28.43 27.57-33.7 0.73-1.34 3.06-5.14 5.26-8.33 2.09-3.3 3.92-6.12 3.92-6.37 0-0.36 1.97-4.53 4.42-9.43 2.32-4.9 5.39-11.27 6.61-14.21l2.33-5.15-4.53-2.32c-13.6-6.87-35.29-7.97-55.99-3.07z"></path></g><metadata></metadata></svg> 