<?xml version="1.0" encoding="UTF-8" standalone="no"?> <!-- Created with Inkscape (http://www.inkscape.org/) --> <svg xmlns:inkscape="http://www.inkscape.org/namespaces/inkscape" xmlns:rdf="http://www.w3.org/1999/02/22-rdf-syntax-ns#" xmlns="http://www.w3.org/2000/svg" xmlns:cc="http://web.resource.org/cc/" xmlns:dc="http://purl.org/dc/elements/1.1/" xmlns:sodipodi="http://sodipodi.sourceforge.net/DTD/sodipodi-0.dtd" xmlns:svg="http://www.w3.org/2000/svg" xmlns:ns1="http://sozi.baierouge.fr" xmlns:xlink="http://www.w3.org/1999/xlink" id="svg2" sodipodi:docname="a_bit_suprised.png.svg" viewBox="0 0 161 274" sodipodi:version="0.32" inkscape:version="0.44" sodipodi:docbase="C:\Documents and Settings\James\Desktop"><path id="path1873" style="fill:black" d="m80.5 273.5c-13.369-1.98-22.218-14.33-35.575-16.76-9.939-3.9-22.581-9.33-24.655-21.03 0.909-13.19 4.865-26.12 4.558-39.48-0.453-10.03 2.117-23.59-8.814-28.84-12.023-10.74-20.977-29.92-12.576-45.3 3.5515-9.15 15.782-8.03 21.287-10.21-6.529-14.813-15.1-29.487-16.588-45.862-0.8057-16.824 18.294-29.81 33.733-24.698 4.379-9.245 7.277-20.934 15.343-28.654 8.041-10.53 21.956-12.443 34.003-9.1059 11.744-5.1125 25.214-1.2911 34.744 6.6799 12.21 10.254 14.17 27.177 21.53 40.571 1.94 4.872 5.25 9.657 6.4 14.573-4.23 14.835-12.81 28.206-15.89 43.336 3.54 4.1 17.78-3.54 19.51 8 3.67 9.87 4.41 21.59 0.96 31.57-4.1 10.11-13.2 17.8-16.29 28.01-1.37 17.68 2.69 35.15 2.51 52.77-1.96 15.19-17.58 22.32-28.02 31.3-7.34 7.09-15.67 15.34-26.888 13.55-3.093-0.08-6.209-0.02-9.282-0.42zm24.8-6.29c15.04-8.62 16.67-27.73 19.79-43.05 1.96-10.61 2.56-21.51 5.14-31.98 3.81 9.75 0.45 21.49-0.28 31.86-1.53 10.58-5.68 20.54-10.44 29.96 10.48-5.01 18.71-15.66 22.34-26.63-2.93-21.75-2.28-43.83-4.16-65.68-1.65-2.31-1.87-16.25-6.24-10.68-8.4 7.85-21.84 8.47-32.307 4.96-11.945-5.43-16.675-19.39-15.017-31.72 0.951-8.14-12.151-3.89-7.424 3.61 0.427 11.06-1.111 25.13-12.581 30.22-11.514 5.18-23.232-2.51-33.508-7.08-5.775 15.4-4.407 32.01-2.912 48.04 1.082 13.75-8.191 28.23-1.196 41.36 6.92 7.64 17.117 12.76 26.827 15.48-4.626-9.37-10.392-19.25-12.77-29.88-2.027-12.03-2.681-24.44-1.85-36.57 4.762 20.58 1.458 44.36 15.713 61.91 6.404 8.83 14.857 18.19 26.66 18.23 8.112 0.84 16.792 1.85 24.215-2.36zm-57.401-56.9c-0.634-6.01 0.295-11.22 6.515-6.54 11.048-2.87 21.215-9.78 33.262-7.26 10.465-1.87 21.684 6.85 30.954 1.84 5.53 2.42 3.75 18.38-1.15 6.31-12.05-5.57-25.881-5.03-38.883-5.61-10.98 0.79-21.65 7.03-30.698 11.26zm23.371-30.95c-10.867-3.19-4.536-20.67 1.343-22.64-2.674 7.57-7.263 21.67 6.232 19.41 9.376 2.03 18.888-8.03 13.616-15.87 13.819 4.48-2.749 21.62-12.819 19.31-2.781 0.26-5.619 0.35-8.372-0.21zm-18.27-6.53c4.783-9.84 6.628-0.18 0 0zm59.01-6.79c-6.08-7.16 11.51 1.89 2.11 1.35l-2.11-1.35zm-85.626-7.63c0.86-4.05 4.204-8.16 1.466-12.14-6.386-8.12 3.135-17.71-1.743-25.57-8.73-9.48-23.394-0.12-22.736 11.43-1.0465 13.41 4.7595 29.75 18.176 34.76 3.312-0.97 3.557-5.81 4.837-8.48zm120.85 3.55c8.95-8.03 11.22-20.42 9.71-31.89 3.1-12.36-13.29-26.7-20.13-11.29-2.33 13.74-0.85 28.13 2.75 41.53 1.39 5.46 4.16 5.38 7.67 1.65zm-80.664-10.02c7.987-8.08 8.275-21.14 5.272-31.41-7.131-9.65-21.202-6.53-31.291-4.27-13.203 4.38-8.123 21.25-5.816 31.23 5.282 10.37 21.257 10.78 30.316 5.76l1.519-1.31zm-4.366-18.14c-6.586-10.74 16.145-10.59 6.76-0.07-1.897 1.43-4.934 1.89-6.76 0.07zm61.97 18.52c11.62-6.51 9.06-23.99-0.75-31-8.32-7.73-22.62-10.1-32.073-3.22-10.071 12.5-1.49 34.48 14.783 36.3 6.01 0.57 12.47 0.49 18.04-2.08zm-31.135-20.25c-6.169-12.71 16.375-6.64 5.096 1.69-1.802 0.52-4.098 0.05-5.096-1.69zm-62.105 3.24c-1.721-15.16-3.56 15.91-0.288 3.55l0.196-1.77 0.092-1.78zm100.77-23.56c-0.79-15.2-2.25-34.245-17.12-42.517-20.127-9.358-42.89-9.719-63.918-16.233 4.686 12.718-4.584 23.084-11.233 32.795-5.569 9.91-6.627 21.785-8.113 32.855 11.254-6.93 25.464-10.3 37.993-4.19 8.918 4.53 18.951 1.94 27.492-2.04 11.159-3.5 24.379 0.38 31.369 9.92 7.1 10.31 2.63-6.95 3.53-10.59zm-92.689-2.24c0.658-10.992 20.084-9.835 28.694-13.303 14.15-3.272-0.694 8.153-6.578 8.823-6.844 1.77-15.314 8.21-22.116 4.48zm70.489-1.38c-5.98-3.07-20.531-5.36-18.92-12.72 11.08 0.73 22.12 4.488 32.12 9.26 7.7 8.5-9.89 5.63-13.2 3.46z"></path><metadata></metadata></svg> 