<?xml version="1.0" encoding="UTF-8" standalone="no"?> <!-- Generator: Adobe Illustrator 12.0.1, SVG Export Plug-In . SVG Version: 6.00 Build 51448) --> <svg xmlns:rdf="http://www.w3.org/1999/02/22-rdf-syntax-ns#" xmlns="http://www.w3.org/2000/svg" xmlns:cc="http://web.resource.org/cc/" xmlns:xlink="http://www.w3.org/1999/xlink" xmlns:dc="http://purl.org/dc/elements/1.1/" xmlns:svg="http://www.w3.org/2000/svg" xmlns:inkscape="http://www.inkscape.org/namespaces/inkscape" xmlns:sodipodi="http://sodipodi.sourceforge.net/DTD/sodipodi-0.dtd" xmlns:ns1="http://sozi.baierouge.fr" id="Layer_1" xml:space="preserve" overflow="visible" viewBox="0 0 210.914 213.895"> <g> <path d="m100.08 94.908c-5.733-2.319-10.655-5.451-17.256-6.902-9.727 0.669-15.119 10.812-24.159 6.902 3.789-10.627 39.546-18.298 41.415 0z"></path> <path d="m96.634 108.71c-3.175 10.784-23.618 4.392-34.513 3.451 0.742-2.709 5.428-1.475 3.451-6.903 12.516-6.684 18.189 2 31.062 3.45zm-27.61 3.45c5.349 0.171 9.572-0.782 12.08-3.451-5.453-0.27-10.415-0.06-12.08 3.45z"></path> <path d="m81.104 108.71c-2.508 2.669-6.731 3.623-12.08 3.451 1.665-3.51 6.627-3.72 12.08-3.45z" fill="#FFFFFF"></path> <path d="m48.317 127.7c4.465 7.92-5.201 15.14 0 0z" fill="#F6E7A1"></path> <path d="m129.42 127.7c3.41 5.794 7.492 10.916 12.08 15.531 18.709-0.76 1.578 4.621-5.178 0-6.93-4.75-8.03-11.4-6.9-15.53z"></path> <path d="m94.909 129.42c2.944 2.991-0.272 4.521 1.726 10.354-1.536-0.766-3.087-1.517-3.451-3.452-9.204 6.327-22.546 8.516-34.513 12.08-0.392-8.62 7.53-11.584 13.806-8.628 8.554-5.91 16.656-1.66 22.432-10.35z"></path> <path d="m106.99 134.6c3.738 2.589 1.637 11.018 10.354 8.628-6.143 9.807-10.635-6.301-18.98-5.178 0.254-3.77 4.35-3.71 8.63-3.45z"></path> <path d="m44.866 136.32c-0.816 6.407-2.729 6.454-3.451 15.531-5.55-2.83-4.191-15.99 3.451-15.53z" fill="#F6E7A1"></path> <path d="m55.945 86.28c6.879-8.933 7.76-22.952 15.531-31.062 1.088-1.136 4.671 0.011 3.451-3.45 17.528-0.849 30.106 3.255 29.335 20.708-2.826 5.802-12.945 4.311-18.981 6.901 15.431 7.25 45.573 1.52 44.865-22.433 14.252 1.747 28.493 14.357 18.982 29.335-11.223-2.138-24.842-0.653-31.062 6.902 2.785 5.392 5.464-3.54 8.628-3.451 13.243-1.12 23.046 4.318 32.787 1.726 0.524-7.045-3.603-0.922-6.901-1.726 3.104-4.372 8.469-6.486 13.805-8.628-1.238 10.829-3.715 23.129-1.727 34.512 1.797 10.288 6.781 17.52 12.079 24.159-1.536-0.766-3.086-1.517-3.45-3.452 0.318 42.885-29.134 55.998-53.494 74.202-13.041-1.915-25.086-4.824-27.609-17.256-29.321-9.219-41.256-35.822-43.141-72.477 1.891-6.162 9.269-6.837 10.354-13.805-1.957-4.89-2.931-10.763-4.586-15.954l1.137-4.746zm2.725 8.628c9.04 3.908 14.433-6.233 24.159-6.902 6.601 1.452 11.522 4.583 17.256 6.902-1.869-18.298-37.626-10.627-41.41 0zm6.903 10.352c1.977 5.428-2.709 4.192-3.451 6.902 10.895 0.94 31.338 7.333 34.513-3.451-12.874-1.45-18.547-10.134-31.062-3.45zm70.747 37.97c6.756 4.621 23.887-0.76 5.176 0-4.588-4.615-8.67-9.736-12.078-15.531-1.13 4.13-0.03 10.78 6.9 15.53zm-63.844-3.46c-6.275-2.957-14.197 0.008-13.806 8.628 11.967-3.564 25.309-5.752 34.513-12.08 0.364 1.936 1.915 2.687 3.451 3.452-1.998-5.833 1.219-7.363-1.726-10.354-5.775 8.69-13.877 4.44-22.432 10.35zm25.884-1.72c8.347-1.123 12.839 14.984 18.981 5.178-8.717 2.389-6.615-6.039-10.354-8.628-4.28-0.26-8.376-0.32-8.63 3.45zm32.79 1.72c-4.512-0.665-4.82-5.533-12.079-3.452-0.73 4.9 11.72 5.35 12.08 3.45zm-13.81 44.87c1.166-0.131 15.84-7.162 15.529-6.902 0.584-0.491-0.545-2.904 0-3.451 0.463-0.461 3.133 0.535 3.451 0 4.206-7.051 7.315-16.904 13.807-22.433-3.627-3.652-6.729 2.029-10.354 3.451-14.312-4.272-33.963-5.849-50.042-3.451-5.655-0.098-6.597-4.908-13.805-3.451 11.766 15.11 17.627 38.89 41.407 36.23z" fill="#FEE4C9"></path> <path d="m160.48 29.335c6.033 3.953-5.395 4.796-5.177 8.628-4.22-2.142 5.18-5.018 5.18-8.628z" fill="#F6E7A1"></path> <path d="m39.689 127.7c-0.765-1.536-1.515-3.086-3.451-3.451-2.174 4.153-3.483 9.171-6.902 12.079-4.078-0.481 1.978-4.609 1.726-6.902-5.048 0.705-5.6 5.905-8.628 8.628-8.545-0.491-10.296 5.812-17.256 6.903 4.189-6.165 12.491-8.216 12.08-18.981 2.906-3.996 9.572-4.232 12.079-8.629-1.902-3.185-12.486 5.726-17.256 0 6.595-8.936 20.66-10.401 20.708-25.884 6.435 4.494 8.955 12.902 8.628 24.159-3.59 1.011-5.577 3.626-8.628 5.177 0.215 3.812 7.32 0.733 10.354 1.727-0.531 9.247-4.399 15.157-10.354 18.981-2.659-2.78 7.268-7.61 6.9-13.81z" fill="#F6E7A1"></path> <path d="m172.56 124.24c7.071-2.423 14.135 9.988 20.707 13.805 0.218 3.64-11.21-5.14-5.177 1.727-7.53 4.03-8.13-13.68-15.53-15.53z" fill="#F6E7A1"></path> <path d="m119.07 136.32c7.259-2.082 7.567 2.787 12.079 3.452-0.36 1.9-12.81 1.45-12.08-3.45z"></path> <path d="m201.9 141.5c-4.54 4.26-10-4.98 0 0z" fill="#F6E7A1"></path> <path d="m75.927 148.4c7.208-1.457 8.149 3.354 13.805 3.451 16.079-2.397 35.73-0.821 50.042 3.451 3.626-1.422 6.729-7.104 10.354-3.451-6.49 5.528-9.601 15.382-13.807 22.433-0.318 0.535-2.988-0.461-3.451 0-0.545 0.547 0.584 2.96 0 3.451 0.311-0.26-14.363 6.771-15.529 6.902-23.77 2.67-29.631-21.11-41.403-36.23z"></path> <path d="m116.88 175.09c0.049-0.025 0.098-0.054 0.146-0.08-7.188-6.66 6.315-3.614 12.079-6.902 0.527 3.979-4.984 1.917-5.178 5.177 0.248 0.719 0.67 1.148 1.199 1.355" fill="#FFFFFF"></path> <path d="m125.27 176.02c2.71-0.102 6.861-3.085 7.284-5.183-1.897 12.489-30.024 11.152-39.688 1.727 6.159-2.919 15.041 7.973 25.077 4.358l7.33-0.91z" fill="#E4B7AC"></path> <path d="m106.99 0c10.191 0.737 14.045 7.813 15.53 17.256 4.446-2.56 8.294-4.483 10.354-5.177 4.017 8.835 26.039 14.675 32.787 5.177 2.428 3.104-0.746 15.285-3.451 18.981 19.266 10.645 20.527 39.293 29.334 60.396 6.49 4.347 6.107-3.207 10.354 0 1.411 6.587-3.673 6.682-6.901 8.628 1.192 3.409 4.604 4.602 8.627 5.178-1.234 5.091-1.97 10.684-5.177 13.805 8.563 2.812 5.501-6.003 12.079-5.177 2.28 13.498-5.592 39.855-20.707 29.335-2.175 5.303-6.422 8.533-8.628 13.805-2.267-0.608-2.714-3.038-5.177-3.451-9.727 16.157-17.196 34.572-36.238 41.415-0.799 5.527-3.561 6.59-8.83 12.14-15.303 1.852-24.828 3.432-34.31-3.512-2.8-2.05-2.494-5.774-5.177-8.628-7.803-8.298-24.304-14.277-31.062-24.159-0.567-4.032-2.074-7.129-3.451-10.354-3.117-3.21-6.331-6.323-13.805-5.177-3.13-4.923-8.451-7.654-6.902-17.256-7.508 6.91-24.849-4.517-24.159 12.078-8.042-0.01-8.625-7.48-10.354-13.805 6.993-3.359 10.717-9.99 13.805-17.256-7.872-3.02-11.28-10.54-15.515-17.23 3.133-4.676 10.412 0.956 13.805 1.726 17.706-4.154 14.554-13.189 17.256-32.787 2.471-17.923 20.646-34.473 34.512-43.147 14.678-9.181 39.607-8.516 41.417-32.786zm76.65 96.634c-8.533-8.147-7.512-25.85-12.079-37.963 0.364-2.085 1.915-1.061 3.451 0-3.079-9.574-10.392-14.918-17.257-20.707-3.76 7.579-29.229 4.911-31.062-5.177 3.091 2.343 21.492 9.428 13.806 1.727 10.435 1.76 20.955-5.44 18.981-10.354-0.743 3.858-8.505 0.699-12.079 1.726-15.74-7.565-30.695-1.168-43.141 6.902 5.291-5.871 19.568-17.561 6.902-25.884-3.62 10.823-13.478 12.154-22.43 20.706-23.572 0.882-51.94 31.852-53.492 46.591-1.414 13.424 7.895 23.945 12.079 37.963 1.026-3.575-2.133-11.336 1.726-12.08 2.095 3.082 0.314 10.039 3.451 12.08 5.058-8.813-6.198-21.501-1.726-29.335 4.886 6.043 5.504 16.354 8.628 24.159-1.085 6.967-8.463 7.643-10.354 13.805 1.885 36.654 13.819 63.258 43.141 72.477 2.523 12.432 14.568 15.341 27.609 17.256 24.36-18.204 53.812-31.316 53.494-74.202 0.364 1.936 1.914 2.687 3.45 3.452-5.298-6.64-10.282-13.871-12.079-24.159-1.988-11.383 0.487-23.684 1.727-34.512-5.336 2.142-10.699 4.256-13.805 8.628 3.299 0.804 7.428-5.319 6.901 1.726-9.741 2.593-19.544-2.846-32.787-1.726-3.164-0.089-5.843 8.843-8.628 3.451 6.221-7.557 19.84-9.041 31.062-6.902 9.511-14.977-4.73-27.589-18.982-29.335 0.708 23.952-29.435 29.683-44.865 22.433 6.036-2.591 16.155-1.1 18.981-6.901 0.771-17.452-11.807-21.556-29.335-20.708 1.22 3.461-2.363 2.314-3.451 3.45-7.771 8.109-8.652 22.129-15.531 31.062-2.482-16 8.525-37.968 25.885-39.689 14.135-1.401 25.819 7.811 29.335 24.159 2.56-2.042 2.685-6.519 5.176-8.628 4.648 10.5-16.067 15.823-8.627 17.256 1.57-3.031 6.047-3.156 8.627-5.177-0.092-2.969 1.328-4.424 3.451-5.177 1.052-4.126-2.166-12.521 1.727-13.806 2.096 3.082 0.314 10.039 3.451 12.079 4.351-14.891-8.901-25.058-20.707-29.335 21.002-3.278 21.242 21.829 37.964 17.256 5.569 4.784 11.696 9.011 13.806 17.257-0.007 1.73 1.396 2.054 1.725 3.45-2.01 0.29-1.873 2.729-1.725 5.178-3.037 4.823 3.518-3.927 3.45-6.902-2.387-3.941-3.519-9.138-5.177-13.805 2.969-0.682 4.423 2.561 5.177 0-1.032-2.583-8.685-7.202-5.177-8.628 11.664 3.291 9.102 20.809 15.529 29.335-3.318 12.719-4.521 29.883 6.902 36.237-0.729-9.316 5.168 5.13 6.902-1.726-9.326-1.291-16.852-19.946-10.354-25.884-1.707 7.544 6.529 14.062 8.627 12.079-5.23-4.1 1.21-4.225 1.72-5.166zm-28.34-58.671c-0.218-3.833 11.21-4.675 5.177-8.628 0 3.61-9.4 6.486-5.18 8.628zm-122.51 103.54c5.955-3.824 9.822-9.734 10.354-18.981-3.034-0.993-10.138 2.085-10.354-1.727 3.051-1.551 5.038-4.166 8.628-5.177 0.327-11.256-2.193-19.665-8.628-24.159-0.048 15.482-14.112 16.949-20.708 25.884 4.77 5.726 15.354-3.185 17.256 0-2.507 4.396-9.173 4.633-12.079 8.628 0.412 10.767-7.89 12.817-12.08 18.982 6.96-1.092 8.711-7.395 17.256-6.903 3.028-2.723 3.58-7.923 8.628-8.628 0.252 2.293-5.803 6.421-1.726 6.902 3.419-2.908 4.728-7.926 6.902-12.079 1.936 0.365 2.687 1.915 3.451 3.451 0.37 6.21-9.557 11.04-6.9 13.81zm155.3-1.73c-6.033-6.866 5.395 1.913 5.177-1.727-6.572-3.815-13.636-16.228-20.707-13.805 7.4 1.85 8 19.56 15.53 15.53zm-139.77-12.07c-5.201 15.14 4.465 7.92 0 0zm-6.902 24.15c0.723-9.077 2.635-9.124 3.451-15.531-7.642-0.46-9.001 12.7-3.451 15.53zm160.48-10.35c-10-4.98-4.54 4.26 0 0z"></path> <path d="m127.23 115.16c-1.037 0.078-2.042-0.266-2.985-1.272 0.312-4.285 8.137-4.312 8.629-5.178 0.553-0.975-2.738-2.146-3.451-1.726 3.699-2.186 5.315-2.935 13.806-3.452-0.048 1.678-2.112 1.339-3.452 1.726 6.684-1.108 15.145 9.022 24.159 5.178-0.526 5.253-10.781 5.968-13.806 3.451 0.684 6.588-11.053 1.354-18.981 1.726 0 0-1.646 0.18-2.218 0.037-0.57-0.15-1.7-0.5-1.7-0.5z"></path> </g> <path d="m54.83 91.419c-0.987-3.095-2.217-5.947-4.042-8.205-4.473 7.834 6.783 20.521 1.726 29.335-3.137-2.041-1.356-8.998-3.451-12.08-3.858 0.743-0.699 8.505-1.726 12.08-4.185-14.018-13.493-24.54-12.079-37.963 1.552-14.738 29.92-45.709 53.494-46.592 8.951-8.552 18.805-9.883 22.433-20.707 12.666 8.323-1.611 20.013-6.902 25.884 12.445-8.069 27.399-14.468 43.14-6.901 3.574-1.026 11.336 2.133 12.08-1.727 1.974 4.913-8.549 12.113-18.982 10.354 7.688 7.703-10.715 0.618-13.805-1.727 1.832 10.088 27.301 12.756 31.062 5.178 6.865 5.788 14.177 11.132 17.257 20.707-1.537-1.062-3.086-2.086-3.451 0 4.566 12.112 3.545 29.814 12.078 37.963-0.506 0.94-6.949 1.065-1.726 5.177-2.099 1.982-10.335-4.535-8.628-12.079-6.497 5.938 1.027 24.593 10.354 25.884-1.733 6.855-7.629-7.591-6.902 1.727-11.422-6.354-10.221-23.52-6.901-36.238-6.429-8.526-3.866-26.045-15.53-29.335-3.507 1.426 4.146 6.045 5.178 8.628-0.754 2.561-2.209-0.681-5.178 0 1.659 4.667 2.791 9.864 5.178 13.805 0.065 2.977-6.487 11.728-3.451 6.902-0.148-2.449-0.285-4.887 1.726-5.177-0.327-1.397-1.731-1.721-1.726-3.451-2.108-8.246-8.235-12.474-13.805-17.256-16.722 4.572-16.963-20.535-37.964-17.256 11.806 4.276 25.058 14.443 20.707 29.335-3.136-2.04-1.355-8.997-3.451-12.079-3.892 1.285-0.674 9.679-1.726 13.805-2.123 0.753-3.544 2.208-3.451 5.177-2.581 2.021-7.058 2.146-8.628 5.178-7.44-1.435 13.275-6.757 8.628-17.257-2.491 2.109-2.616 6.586-5.177 8.628-3.516-16.349-15.2-25.561-29.335-24.158-17.362 1.721-28.37 23.689-25.888 39.688l-1.147 4.75z" fill="#F6E7A1"></path> <path d="m128.92 115.69c0.799 0.145 2.17 0.061 2.17 0.061 1.588-3.014 5.395-3.809 10.354-3.451-3.27-7.996-9.162 2.616-14.271 2.999 0.01-0.01 1.23 0.29 1.75 0.39z" fill="#FFFFFF"></path> <path d="m92.82 158.09c-0.302-2.812 11.289-3.482 8.628 1.727-4.004 0.54-6.627-0.28-8.63-1.73z" fill="#FFFFFF"></path> <path d="m103.17 158.09c4.401 0.2 8.877 0.325 8.627 5.178-3.01-1.6-9.26 0.05-8.63-5.18z" fill="#FFFFFF"></path> <path d="m122.16 159.81v3.451h-8.628c0.51-2.55 7.26-7.42 8.63-3.45z" fill="#FFFFFF"></path> <path d="m97.997 170.17c-0.55-3.046 9.667-3.08 6.902 1.727-3.61 0.72-4.57-1.19-6.903-1.73z" fill="#FFFFFF"></path> <path d="m125.86 162.13c1.923 0.534 3.921 0.52 5.991-0.206 0-1.726-0.814-3.246-0.814-4.971-1.727 0-3.654 0.81-5.381 0.81-0.01 1.73 0.2 2.65 0.2 4.37z" fill="#FFFFFF"></path> <path d="m106.62 173.92c1.136 0.181 2.271 0.361 3.408 0.541 0.181-1.136 1.104-2.149 1.284-3.286-1.202-0.555-3.053-0.925-4.151-0.663-0.17 1.14-0.36 2.27-0.54 3.41z" fill="#FFFFFF"></path> <metadata></metadata></svg> 