<?xml version="1.0" encoding="UTF-8" standalone="no"?> <!-- Generator: Adobe Illustrator 13.0.2, SVG Export Plug-In . SVG Version: 6.00 Build 14948) --> <svg xmlns:rdf="http://www.w3.org/1999/02/22-rdf-syntax-ns#" xmlns="http://www.w3.org/2000/svg" xmlns:cc="http://web.resource.org/cc/" xmlns:xlink="http://www.w3.org/1999/xlink" xmlns:dc="http://purl.org/dc/elements/1.1/" xmlns:svg="http://www.w3.org/2000/svg" xmlns:inkscape="http://www.inkscape.org/namespaces/inkscape" xmlns:sodipodi="http://sodipodi.sourceforge.net/DTD/sodipodi-0.dtd" xmlns:ns1="http://sozi.baierouge.fr" id="Layer_1" style="enable-background:new 0 0 170.774 252.981" xml:space="preserve" viewBox="0 0 170.774 252.981" y="0px" x="0px"> <path style="clip-rule:evenodd;fill-rule:evenodd" d="m82.938 5.232c0.426 0.309 0.629 0.841 0.945 1.261 0.048 0.785-0.495 0.976-0.63 1.576-1.361 0.041-1.162-0.516-2.523-0.945 0.678-0.69 1.783-0.949 2.208-1.892z"></path> <path style="clip-rule:evenodd;fill-rule:evenodd" d="m77.264 10.591v1.892c-1.248 0.16-2.23 1.222-3.153 0 0.329-1.354 1.355-2.009 3.153-1.892z"></path> <path style="clip-rule:evenodd;fill-rule:evenodd" d="m71.276 14.688c0.494 0.136 0.269 0.992 1.261 0.631-0.223 1.248-1.138 1.803-2.208 2.206-1.662-1.185 0.396-2.598 0.947-2.837z"></path> <path style="clip-rule:evenodd;fill-rule:evenodd" d="m66.547 16.265c-0.068 1.649-1.655 1.487-2.837 1.261 0.027-0.447 0.053-0.893-0.314-0.946 0.809-1.022 2.08-1.05 3.151-0.315z"></path> <path style="clip-rule:evenodd;fill-rule:evenodd" d="m117.29 15.634h1.891c0.298 1.375 1.488 2.27 0.315 3.468-1.074 0.121-1.192-1.188-2.521-1.576-0.23-0.964 0.32-1.15 0.31-1.892z"></path> <path style="clip-rule:evenodd;fill-rule:evenodd" d="m74.743 17.525c0.625 0.621 0.2 1.801 0 2.521h-2.206c-0.606-1.325 0.839-2.236 2.206-2.521z"></path> <path style="clip-rule:evenodd;fill-rule:evenodd" d="m69.068 19.731c0.054 2.25-2.191 1.015-2.521 0.947-0.684 0.052-0.143-1.119-0.316-1.577 1.44-0.439 2.289-0.992 2.837 0.63z"></path> <path style="clip-rule:evenodd;fill-rule:evenodd" d="m116.35 20.362c-0.967 2.021-2.124 1.625-3.468 0.316 0.11-2.297 2.73-1.536 3.47-0.316z"></path> <path style="clip-rule:evenodd;fill-rule:evenodd" d="m59.298 19.416c1.482 0.372 1.69 3.035-0.631 2.521 0.088-0.508-0.298-0.542-0.316-0.945-0.049-0.891 0.949-0.733 0.947-1.576z"></path> <path style="clip-rule:evenodd;fill-rule:evenodd" d="m121.71 20.362c0.659 0.811 1.624 1.32 1.891 2.521-0.238 0.495-1 0.471-0.944 1.261-0.569-0.799-1.782-0.95-2.837-1.261-0.13-1.597 1.22-1.72 1.89-2.521z"></path> <path style="clip-rule:evenodd;fill-rule:evenodd" d="m54.57 21.308c0.129 0.759-0.576 0.685-0.314 1.576-1.382-0.357-1.036 0.001-2.207 0.316 0.228-0.965-0.544-0.928-0.314-1.892 1.409-0.218 1.574-0.85 2.835 0z"></path> <path style="clip-rule:evenodd;fill-rule:evenodd" d="m64.657 20.992c0.363 0.373 0.356 1.115 0.314 1.892-0.717 0.153-1.609 0.625-2.206 0-0.245-1.506 0.658-1.863 1.892-1.892z"></path> <path style="clip-rule:evenodd;fill-rule:evenodd" d="m125.17 20.992h2.206c0.616 0.863 0.616 1.344 0 2.208-1.177-0.536-0.5 0.186-1.577 0.314-0.32-1.003-1.37-1.274-0.63-2.522z"></path> <path style="clip-rule:evenodd;fill-rule:evenodd" d="m70.329 22.884h2.208v1.891h-2.208c-0.352-0.993-0.028-0.713 0-1.891z"></path> <path style="clip-rule:evenodd;fill-rule:evenodd" d="m46.69 25.405c0.789-0.054 0.987 0.484 1.261 0.945-0.393 0.868-0.993 1.529-2.206 1.576-1.337-1.374 0.256-1.579 0.945-2.521z"></path> <path style="clip-rule:evenodd;fill-rule:evenodd" d="m68.754 26.351c-0.262 0.892 0.444 0.817 0.314 1.576-0.687-0.058-1.003 0.258-0.945 0.945-0.539 0.067-0.816-0.537-0.945 0-1.368-0.958-0.881-2.995 1.576-2.521z"></path> <path style="clip-rule:evenodd;fill-rule:evenodd" d="m123.92 27.927c0.233-0.71 1.765-0.123 2.519-0.315 0.418 1.793-1.165 1.774-1.575 1.892-0.74-0.104-0.31-1.376-0.94-1.577z"></path> <path style="clip-rule:evenodd;fill-rule:evenodd" d="m121.39 29.503c-0.167 0.253-0.328 0.512-0.312 0.945-0.719 0.368-0.944-0.167-1.263 0.945-0.923-0.231-1.354-0.956-1.893-1.576 0.91-1.321 2.2-1.382 3.46-0.314z"></path> <path style="clip-rule:evenodd;fill-rule:evenodd" d="m40.071 30.448c-0.672-0.147-0.6 0.45-0.63 0.945-0.499 0.027-1.203-0.151-1.261 0.315-2.129-1.537 1.565-4.007 1.891-1.26z"></path> <path style="clip-rule:evenodd;fill-rule:evenodd" d="m127.38 31.709c0.987 0.064 2.313-0.213 2.837 0.315 0.249 1.824-0.726 2.425-2.521 2.206-0.52-0.763-0.81-1.531-0.32-2.521z"></path> <path style="clip-rule:evenodd;fill-rule:evenodd" d="m137.78 32.339v2.837c-1.177-0.028-0.897-0.353-1.893 0-0.016-1.138-0.785-1.525-0.944-2.521 0.62-0.43 1.97-1.086 2.83-0.316z"></path> <path style="clip-rule:evenodd;fill-rule:evenodd" d="m45.115 32.339h1.575c0.5 0.672 1.007 2.008 0 2.522-1.008 0.476-2.31-1.07-1.575-2.522z"></path> <path style="clip-rule:evenodd;fill-rule:evenodd" d="m35.028 32.654c0.393 2.073-1.377 1.984-3.151 1.892 0.496-1.184 1.135-2.227 3.151-1.892z"></path> <path style="clip-rule:evenodd;fill-rule:evenodd" d="m38.496 34.546c1.086 0.069 1.492 0.82 2.521 0.945 0.26 0.892-0.445 0.817-0.315 1.576h-2.206c-0.482-1.003-0.112-1.386 0-2.521z"></path> <path style="clip-rule:evenodd;fill-rule:evenodd" d="m123.6 35.176c0.733-0.1 1.211 0.051 1.577 0.315 0.183 1.234-0.271 1.83-0.631 2.521-0.475-0.889-1.159-0.027-1.891-0.945-0.23-1.748 0.9-0.947 0.94-1.891z"></path> <path style="clip-rule:evenodd;fill-rule:evenodd" d="m31.876 37.383c1.515-0.464 1.315 0.785 2.521 0.63 0.255 1.307-0.918 1.184-1.261 1.892-1.68 0.243-1.797-1.426-1.26-2.522z"></path> <path style="clip-rule:evenodd;fill-rule:evenodd" d="m28.094 40.219c0.339 1.916-1.122 2.031-2.837 1.892-0.982-1.916 1.142-2.741 2.837-1.892z"></path> <path style="clip-rule:evenodd;fill-rule:evenodd" d="m141.56 43.687c-1.154-0.238-2.619-0.59-2.837-2.521 1.75-1.647 4.1 0.418 2.84 2.521z"></path> <path style="clip-rule:evenodd;fill-rule:evenodd" d="m22.736 43.687c0.575 1.077 0.162 1.719-0.315 2.521-0.743 0.008-0.928-0.542-1.892-0.315-0.303-1.774 0.638-2.304 2.207-2.206z"></path> <path style="clip-rule:evenodd;fill-rule:evenodd" d="m28.094 43.687c0.962-0.228 1.148 0.322 1.891 0.315 0.026 0.499-0.151 1.202 0.315 1.261-0.314 0.421-0.852 0.618-0.945 1.261-0.719 0.432-1.185-0.813-1.261 0-1.069-0.56-0.401-2.025 0-2.837z"></path> <path style="clip-rule:evenodd;fill-rule:evenodd" d="m35.974 44.002c0.017 1.033 0.896 1.205 0.63 2.521-0.473 0.748-1.328 0.314-1.576 0.63-0.741-0.308-0.282-1.819-0.945-2.206 0.526-0.418 0.671-1.219 1.891-0.945z"></path> <path style="clip-rule:evenodd;fill-rule:evenodd" d="m17.062 48.099c-0.1 0.741-0.498 1.184-0.315 2.207-0.835 0.371-1.856-0.604-1.891 0-1.166-1.284 0.904-3.353 2.206-2.207z"></path> <path style="clip-rule:evenodd;fill-rule:evenodd" d="m25.257 47.784c-0.007 0.743 0.542 0.927 0.314 1.891-2.29 1.831-4.221-2.403-0.314-1.891z"></path> <path style="clip-rule:evenodd;fill-rule:evenodd" d="m18.953 48.729c0.925 0.651 1.435 1.717 1.262 3.468-1.81 0.871-3.229-0.547-2.837-2.837 0.646 0.675 1.499 0.164 1.575-0.631z"></path> <path style="clip-rule:evenodd;fill-rule:evenodd" d="m30.616 50.306h1.575c0.763 1.289-0.125 1.966-0.63 2.837-0.394-0.762-1.589-0.722-1.576-1.892 0.672 0.147 0.6-0.45 0.631-0.945z"></path> <path style="clip-rule:evenodd;fill-rule:evenodd" d="m141.88 50.306c1.381-0.017 2.95-0.221 3.15 0.945 0.154 1.944-1.821 0.327-1.891 1.576-0.83-0.434-1.36-1.157-1.26-2.521z"></path> <path style="clip-rule:evenodd;fill-rule:evenodd" d="m128.01 50.621c1.257-0.101 2.329-0.018 2.837 0.63 0.082 0.923-0.711 0.968-0.629 1.892-1.377 0.114-1.949-0.573-2.521-1.261-0.05-0.566 0.38-0.666 0.31-1.261z"></path> <path style="clip-rule:evenodd;fill-rule:evenodd" d="m24.626 53.143c0.875 0.071 0.891 0.999 1.576 1.261-0.194 0.857-0.866 1.235-1.892 1.261-0.28-0.561-0.88-0.802-0.63-1.892 0.633 0.107 0.987-0.065 0.946-0.63z"></path> <path style="clip-rule:evenodd;fill-rule:evenodd" d="m10.443 54.088h2.206c0.128 1.494-0.681 2.049-2.206 1.891v-1.891z"></path> <path style="clip-rule:evenodd;fill-rule:evenodd" d="m21.475 56.609c0.069 1.015-0.558 1.334-0.315 2.521h-1.892c-0.491-1.51 0.217-2.671 2.207-2.521z"></path> <path style="clip-rule:evenodd;fill-rule:evenodd" d="m14.225 57.24c0.971-0.236 0.605 0.865 1.576 0.63 0.151 0.991-0.449 1.232-0.631 1.892-1.586 0.221-2.078-0.654-1.891-2.207 0.688-0.201 1.004 0.894 0.946-0.315z"></path> <path style="clip-rule:evenodd;fill-rule:evenodd" d="m147.55 57.87c0.18 1.023-0.215 1.466-0.317 2.207h-1.891c-0.544-0.192 0.023-1.495-0.628-1.576 0.64-0.504 1.82-1.493 2.84-0.631z"></path> <path style="clip-rule:evenodd;fill-rule:evenodd" d="m25.572 61.968c0.129 0.759-0.575 0.685-0.314 1.576-0.964-0.229-0.927 0.544-1.892 0.314-0.363-0.372-0.356-1.113-0.315-1.891 0.458-0.462 2.063-0.462 2.521 0.001z"></path> <path style="clip-rule:evenodd;fill-rule:evenodd" d="m107.21 62.913c0.456 1.191-0.864 0.605-0.629 1.576-1.9 0.009-2.378-0.095-3.152-1.576 0.38-1.307 3.4-1.307 3.78 0z"></path> <path style="clip-rule:evenodd;fill-rule:evenodd" d="m8.237 62.283c1.164-0.113 1.317 0.784 1.575 1.575-0.521 0.424-1.085 0.807-1.261 1.576-0.349-0.911-1.381-1.139-1.261-2.521 0.633 0.108 0.987-0.064 0.947-0.63z"></path> <path style="clip-rule:evenodd;fill-rule:evenodd" d="m13.91 62.913c0.891-0.05 0.735 0.948 1.576 0.945 0.174 2.979-3.087 1.385-2.521 0-0.125-0.754 1.434 0.176 0.945-0.945z"></path> <path style="clip-rule:evenodd;fill-rule:evenodd" d="m133.37 65.435v1.261c-1.205-0.155-1.005 1.095-2.523 0.631-0.19-0.755-0.452-1.438-0.313-2.521 1.48-0.168 1.97-0.302 2.83 0.629z"></path> <path style="clip-rule:evenodd;fill-rule:evenodd" d="m111.94 65.12c0.514 1.033-0.071 1.205 0 2.521-0.836-0.004-1.801 0.118-2.206-0.315v-1.576c1.26 0.312 0.95-0.941 2.21-0.63z"></path> <path style="clip-rule:evenodd;fill-rule:evenodd" d="m103.74 68.587c0.229 0.963-0.32 1.148-0.315 1.892-1.626 0.364-1.854-0.667-2.521-1.262 0.32-1.683 1.56-1.024 2.84-0.63z"></path> <path style="clip-rule:evenodd;fill-rule:evenodd" d="m8.551 68.902c-0.164 0.99-0.553 1.758-0.945 2.521-0.706-0.273-1.299-0.009-1.89-0.945-0.159-1.907 1.649-2.802 2.835-1.576z"></path> <path style="clip-rule:evenodd;fill-rule:evenodd" d="m13.28 69.532c1.022 0.238 1.369 1.153 1.261 2.521-0.472 0.369-1.289 0.392-1.576 0.946-1.513-1.135-0.412-2.251 0.315-3.467z"></path> <path style="clip-rule:evenodd;fill-rule:evenodd" d="m128.64 76.151c-1.75 0.177-2.85-0.3-2.837-1.891 1.49-0.553 3.88 0.01 2.84 1.891z"></path> <path style="clip-rule:evenodd;fill-rule:evenodd" d="m115.09 74.575c1.093 0.274 1.167 1.566 1.893 2.207-0.423 0.837-1.39 1.132-2.837 0.945-0.44-1.047-0.66-3.261 0.95-3.152z"></path> <path style="clip-rule:evenodd;fill-rule:evenodd" d="m146.6 75.206c0.221 1.586-0.651 2.078-2.206 1.891 0.407-1.247-1.036-0.643-0.631-1.891 1.3 0.307 2.03-0.78 2.84 0z"></path> <path style="clip-rule:evenodd;fill-rule:evenodd" d="m8.237 76.151c0.425 1.085-0.256 2.582-1.576 2.837-0.664-0.491-1.143-1.168-0.945-2.521 0.654-0.33 1.676-1.122 2.521-0.316z"></path> <path style="clip-rule:evenodd;fill-rule:evenodd" d="m104.06 77.412c0.268-0.058 0.298 0.123 0.313 0.315 1.975 0.221 2.175 1.629 0.949 2.837-0.837 0.369-1.857-0.604-1.894 0-1.29-1.144-0.16-2.388 0.63-3.152z"></path> <path style="clip-rule:evenodd;fill-rule:evenodd" d="m14.541 81.51h-1.576c-0.405-1.003-0.998-2.454 0-3.151 1.515 0.133 2.015 1.99 1.576 3.151z"></path> <path style="clip-rule:evenodd;fill-rule:evenodd" d="m6.345 81.825c1.28-0.125 2.196 0.115 2.206 1.261-0.354 1.012-1.036 1.694-2.521 1.576 0.064-0.986-0.212-2.313 0.315-2.837z"></path> <path style="clip-rule:evenodd;fill-rule:evenodd" d="m151.34 86.553c-0.115 0.935-0.546 1.556-1.262 1.892-0.99 0.149-0.831-0.849-1.575-0.947 0.2-1.649 1.7-1.784 2.84-0.945z"></path> <path style="clip-rule:evenodd;fill-rule:evenodd" d="m15.486 88.129c-0.11 0.94-0.182 1.918-0.945 2.206-2.267-0.149-0.925-3.735 0.945-2.206z"></path> <path style="clip-rule:evenodd;fill-rule:evenodd" d="m8.237 88.129c1.198-0.463 0.062 1.409 1.261 0.945-0.251 0.59-0.527 1.155-0.631 1.892-0.94-0.452-1.071 0.258-1.89-0.315-0.414-1.674 1.126-1.396 1.26-2.522z"></path> <path style="clip-rule:evenodd;fill-rule:evenodd" d="m106.58 92.227c1.624-0.258 2.406 0.326 3.152 0.945-0.007 1.044-0.533 1.57-1.574 1.576-1.01-0.359-1.48-1.256-1.58-2.521z"></path> <path style="clip-rule:evenodd;fill-rule:evenodd" d="m126.43 93.172c1.411 0.398 1.811 1.642 0.946 2.837-1.396 0.031-2.165-0.567-1.891-2.206 0.63 0.106 0.99-0.064 0.94-0.631z"></path> <path style="clip-rule:evenodd;fill-rule:evenodd" d="m10.758 94.118c0.427 0.93 0.394 1.951-0.315 2.521-1.163 0.008-2.17-0.141-2.206-1.262 0.155-0.403 0.858-1.486 2.521-1.259z"></path> <path style="clip-rule:evenodd;fill-rule:evenodd" d="m133.37 96.324c0.678-0.655 1.878 0.839 1.575 2.206-0.292 0.336-1.162 0.099-0.943 0.946-1.62-0.798-0.82-2.472-0.63-3.152z"></path> <path style="clip-rule:evenodd;fill-rule:evenodd" d="m14.541 96.64c1.38 0.25 1.47 1.958 0.63 2.837-1.269-0.121-0.773-0.203-1.891-0.631-0.232-2.023 0.781-1.367 1.261-2.206z"></path> <path style="clip-rule:evenodd;fill-rule:evenodd" d="m153.23 97.27c1.249-0.407 0.644 1.038 1.891 0.631 0.189 1.135-0.962 0.929-0.944 1.891-2.36 0.176-1.83-1.588-0.95-2.522z"></path> <path style="clip-rule:evenodd;fill-rule:evenodd" d="m147.24 101.37h1.262c0.434 0.406 0.313 1.37 0.315 2.206h-1.577c-0.45-0.43-0.45-1.79 0-2.21z"></path> <path style="clip-rule:evenodd;fill-rule:evenodd" d="m144.4 105.78c0.057 1.53-2.898 1.753-3.15 0.314 0.16-2.12 2.57-1.62 3.15-0.31z"></path> <path style="clip-rule:evenodd;fill-rule:evenodd" d="m134.31 105.15c0.852 0.305 1.523 0.791 1.575 1.892-0.534-0.117-0.593 0.245-0.629 0.629-0.89 0.261-0.818-0.443-1.577-0.314-0.19-1.15 0.23-1.68 0.64-2.21z"></path> <path style="clip-rule:evenodd;fill-rule:evenodd" d="m127.38 108.3c0.136-0.706 1.552-0.128 2.206-0.315-0.408 1.563 0.762 1.548 0.631 2.837-0.675 0.573-1.716 0.283-1.891 0.629-0.95-0.41-0.24-2.49-0.95-3.15z"></path> <path style="clip-rule:evenodd;fill-rule:evenodd" d="m121.39 108.3h2.524c0.117 1.835-0.755 2.389-2.209 1.89-0.36-0.37-0.35-1.11-0.31-1.89z"></path> <path style="clip-rule:evenodd;fill-rule:evenodd" d="m154.48 108.3h1.262c0.744 1.725-0.277 2.357-0.944 3.467-0.372-0.47-0.792-0.89-1.262-1.261 0.06-0.99 1.25-0.86 0.94-2.21z"></path> <path style="clip-rule:evenodd;fill-rule:evenodd" d="m150.07 110.82c0.861 1.09-0.2 2.365 0 3.782-2.19 0.6-2.77-3.76 0-3.78z"></path> <path style="clip-rule:evenodd;fill-rule:evenodd" d="m133.05 112.71h2.206c0.105 1.156-0.352 1.752-0.631 2.523-0.608-0.585-0.249-0.579-1.26-0.315 0.15-0.99-0.57-1.11-0.32-2.21z"></path> <path style="clip-rule:evenodd;fill-rule:evenodd" d="m123.92 115.55c-0.323 0.941-0.508 2.016-0.949 2.837-0.97 0.234-0.605-0.866-1.575-0.63-0.32-2.16 0.99-2.72 2.52-2.21z"></path> <path style="clip-rule:evenodd;fill-rule:evenodd" d="m115.09 115.87h1.262c-0.107 0.632 0.064 0.986 0.631 0.945-0.264 0.683-0.815 1.075-0.631 2.206-1.185 0.137-1.437-0.666-1.891-1.259-0.08-0.94 0.71-0.98 0.63-1.9z"></path> <path style="clip-rule:evenodd;fill-rule:evenodd" d="m142.51 116.81c1.019 0.349 1.085 1.647 2.209 1.892 0.128 0.759-0.578 0.685-0.318 1.576-0.526-0.557-1.055 0.279-2.206 0-0.51-1.08-0.37-2.72 0.32-3.47z"></path> <path style="clip-rule:evenodd;fill-rule:evenodd" d="m154.48 117.76c1.595 0.641 0.949 3.601 0 4.412-0.801-0.038-1.222-0.459-1.26-1.261 0.56-0.92 1.32-1.63 1.26-3.15z"></path> <path style="clip-rule:evenodd;fill-rule:evenodd" d="m127.06 118.07c1.105 0.367 1.806 1.135 2.521 1.892 0.079 1.341-1.347 1.175-1.577 2.206-0.421-0.314-0.616-0.852-1.26-0.945 0.32-1.49 0.02-1.65 0.32-3.15z"></path> <path style="clip-rule:evenodd;fill-rule:evenodd" d="m134.63 118.7c0.361 0.882 0.361 1.638 0 2.521h-1.575c-0.65-1.25-0.19-2.77 1.57-2.52z"></path> <path style="clip-rule:evenodd;fill-rule:evenodd" d="m146.92 121.22c1.698-0.227 1.657 1.284 1.575 2.837-0.688 0.2-1.003-0.894-0.944 0.314-1.66 0.17-1.54-2.55-0.64-3.15z"></path> <path style="clip-rule:evenodd;fill-rule:evenodd" d="m134.31 123.43c0.346 0.849 0.062 1.618-0.312 2.521-1.272 0.325-1.401-0.491-1.894-0.945 0.48-0.77 0.74-1.77 2.2-1.57z"></path> <path style="clip-rule:evenodd;fill-rule:evenodd" d="m122.65 125.32c0.205 1.15-0.213 1.679-0.631 2.206-0.644-0.334-1.287-0.021-2.206-0.631-0.128-0.759 0.575-0.685 0.313-1.575 0.98 0.05 1.79-0.74 2.53 0z"></path> <path style="clip-rule:evenodd;fill-rule:evenodd" d="m138.1 125.32c1.365-0.314 1.75 0.351 2.521 0.629 0.226 0.963-0.323 1.149-0.315 1.892-2.14 0.5-2.94-1.06-2.2-2.52z"></path> <path style="clip-rule:evenodd;fill-rule:evenodd" d="m115.72 126.27c0.913 0.14 1.437 0.665 1.577 1.577-0.525 0.527-0.825 1.276-1.891 1.261 0.229-0.86-0.625-0.635-0.631-1.261-0.34-1.18 1.17-0.51 0.94-1.58z"></path> <path style="clip-rule:evenodd;fill-rule:evenodd" d="m129.59 126.9c0.464 1.413-0.921 0.97-0.628 2.208-1.627 0.155-2.509-0.434-2.524-1.892 1.13-0.73 1.52-0.33 3.15-0.32z"></path> <path style="clip-rule:evenodd;fill-rule:evenodd" d="m152.28 128.47c0.51-0.089 0.544 0.299 0.946 0.315-0.064 2.035-0.238 2.551-0.315 4.098-0.498 0.025-1.2-0.151-1.262 0.315-0.318-0.205-0.323-0.727-0.944-0.631 0.27-1.61 1.06-2.7 1.56-4.1z"></path> <path style="clip-rule:evenodd;fill-rule:evenodd" d="m131.8 129.73c0.025 1.177 0.351 0.9 0 1.89-1.119 0.108-1.627 0.021-1.894 0.318-0.549-0.292-0.695-0.987-0.631-1.893 0.45-0.49 1.61-0.28 2.52-0.32z"></path> <path style="clip-rule:evenodd;fill-rule:evenodd" d="m110.99 130.05c0.487 0.456 0.279 1.613 0.315 2.521-0.949 0.841-2.288-0.352-2.521 0-0.77-1.1 1.05-2.31 2.21-2.52z"></path> <path style="clip-rule:evenodd;fill-rule:evenodd" d="m139.36 130.68c0.218 1.608-1.195 2.824-2.52 1.891 0.01-1.57 1.37-3.3 2.52-1.89z"></path> <path style="clip-rule:evenodd;fill-rule:evenodd" d="m147.55 132.89c0.654 0.185 1.017 0.661 1.575 0.943 0.229 0.965-0.544 0.929-0.315 1.894-0.964 0.229-0.926-0.544-1.891-0.315-0.17-1.23 0.28-1.82 0.64-2.51z"></path> <path style="clip-rule:evenodd;fill-rule:evenodd" d="m135.89 135.72c-0.2 1.267-0.78 2.159-2.52 1.891 0.006-0.742-0.544-0.927-0.315-1.891 1.28-0.09 1.91-1.19 2.83 0z"></path> <path style="clip-rule:evenodd;fill-rule:evenodd" d="m143.46 135.72c-0.215 2.985-4.307 2.447-2.521-0.315 0.9 0.05 2.06-0.16 2.52 0.32z"></path> <path style="clip-rule:evenodd;fill-rule:evenodd" d="m126.43 136.67c1.267 0.103 1.716 1.016 2.524 1.578-0.888 1.896-2.04 1.973-3.469 0.631 0.01-1.06 1.04-1.08 0.95-2.21z"></path> <path style="clip-rule:evenodd;fill-rule:evenodd" d="m149.13 137.3c1.924-0.243 0.231 3.13 1.26 3.784-0.569 0.479-0.965 1.136-2.206 0.946-0.1-1.99 0.5-3.29 0.95-4.73z"></path> <path style="clip-rule:evenodd;fill-rule:evenodd" d="m102.16 137.61h2.206c-0.388 1.021 1.021 0.24 0.631 1.262-0.361 0.577-0.938 1.177-2.519 1.26-0.52-0.76-0.8-1.52-0.32-2.52z"></path> <path style="clip-rule:evenodd;fill-rule:evenodd" d="m123.92 139.19c-0.777 0.605-1.75 1.359-2.524 0.312-0.25-2.04 2.62-2.55 2.52-0.31z"></path> <path style="clip-rule:evenodd;fill-rule:evenodd" d="m146.6 138.56c-0.272 1.303-0.403 2.747-1.888 2.837-0.89-1.43 0.19-4.07 1.89-2.84z"></path> <path style="clip-rule:evenodd;fill-rule:evenodd" d="m130.85 140.45h2.208c-0.448 2.003-1.369 3.793-3.152 2.837-0.13-1.38 0.89-1.62 0.94-2.84z"></path> <path style="clip-rule:evenodd;fill-rule:evenodd" d="m137.78 142.34c0.224 1.696-0.359 2.583-0.631 3.784-0.965 0.228-1.149-0.321-1.891-0.315-0.35-1.36 0.46-3.54 2.52-3.46z"></path> <path style="clip-rule:evenodd;fill-rule:evenodd" d="m114.14 146.12h-2.206c0.069-1.014-0.559-1.334-0.315-2.521 1.73-0.25 3.38-0.04 2.52 2.52z"></path> <path style="clip-rule:evenodd;fill-rule:evenodd" d="m143.46 143.6c0.513 1.031-0.071 1.205 0 2.521-0.631-0.108-0.984 0.063-0.946 0.631-2.42-0.41-1.48-3.43 0.95-3.15z"></path> <path style="clip-rule:evenodd;fill-rule:evenodd" d="m118.55 147.07c-0.729-0.703 0.107-1.231 0-2.206 1.818 0.118 3.088-1.646 2.837 1.26-0.76 0.5-1.76 0.76-2.84 0.95z"></path> <path style="clip-rule:evenodd;fill-rule:evenodd" d="m124.23 144.86h0.946c0.829 1.219-0.153 2.868-0.631 3.781-0.279-0.195-0.564-0.38-0.628 0-0.598-0.036-0.221-1.042-0.949-0.944 0.19-1.18 1.18-1.55 1.26-2.84z"></path> <path style="clip-rule:evenodd;fill-rule:evenodd" d="m98.066 146.12c0.908 0.038 2.065-0.172 2.521 0.315-0.051 0.364 0.069 0.559 0.315 0.631 0.085 1.026-0.979 0.908-1.259 1.575-0.973 0.235-0.385-1.088-1.578-0.631 0.003-0.63 0.003-1.25 0.003-1.89z"></path> <path style="clip-rule:evenodd;fill-rule:evenodd" d="m130.53 146.76c0.18 0.659 0.78 0.9 0.631 1.891-1.271 0.926-2.334 0.872-2.837 0.631-0.456-0.072-0.112-0.941-0.631-0.946 0.8-0.68 1.25-1.7 2.84-1.57z"></path> <path style="clip-rule:evenodd;fill-rule:evenodd" d="m108.47 147.07c0.308 2.293-1.08 3.889-2.206 3.781-1.15-1.28-0.3-4.27 2.21-3.78z"></path> <path style="clip-rule:evenodd;fill-rule:evenodd" d="m145.66 147.07c2.309 0.11 1.159 2.432 0.631 3.781-1.028 0.082-1.519-0.375-1.574-1.263 0.22-0.93 1.1-1.21 0.94-2.52z"></path> <path style="clip-rule:evenodd;fill-rule:evenodd" d="m140.62 148.33c1.411 1.018-0.062 2.854-0.943 3.468-0.847-0.418-1.848-0.678-1.578-2.209 1.18-0.07 1.42-1.1 2.52-1.26z"></path> <path style="clip-rule:evenodd;fill-rule:evenodd" d="m134 148.65c1.5 0.071 0.931 2.821 0.628 3.78-0.777 0.044-1.519 0.049-1.891-0.312 0.16-1.42 1.16-2 1.26-3.47z"></path> <path style="clip-rule:evenodd;fill-rule:evenodd" d="m119.5 152.11c-0.059 1.306-1.126 1.605-1.891 2.206-0.323-0.205-0.328-0.724-0.946-0.631-0.3-2.05 1.74-2.71 2.84-1.58z"></path> <path style="clip-rule:evenodd;fill-rule:evenodd" d="m129.9 153.06c-0.29 2.094-1.462 1.463-2.837 2.206-1.74-2.16 1.42-4.31 2.84-2.21z"></path> <path style="clip-rule:evenodd;fill-rule:evenodd" d="m114.14 152.43c1.116 0.252 0.605 2.129 0.944 3.155h-2.206c0.436-1.277-0.683-0.998-0.631-1.893 1.04-0.7 1.4-0.42 1.9-1.26z"></path> <path style="clip-rule:evenodd;fill-rule:evenodd" d="m123.92 153.69c0.226 0.964-0.323 1.148-0.318 1.893h-1.575c-0.364-0.374-0.356-1.116-0.315-1.893 0.43-0.45 1.79-0.45 2.22 0z"></path> <path style="clip-rule:evenodd;fill-rule:evenodd" d="m142.82 154.32c1.323-0.064 0.601 1.918 1.575 2.206 0.235 1.077-1.28 0.399-0.944 1.574-0.538 0.067-0.815-0.536-0.946 0-1.45-1.02 0.1-2.56 0.31-3.78z"></path> <path style="clip-rule:evenodd;fill-rule:evenodd" d="m138.41 154.64c0.883 0.374 0.883 2.777 0 3.152-1.585-0.082-1.492-1.35-1.262-2.524 0.72 0.08 1.19-0.08 1.26-0.63z"></path> <path style="clip-rule:evenodd;fill-rule:evenodd" d="m100.28 154.95c0.464 0.164 0.792 0.467 1.259 0.631 0.393 1.523-1.298 2.011-2.208 1.26-0.175-1.11 0.507-1.38 0.948-1.89z"></path> <path style="clip-rule:evenodd;fill-rule:evenodd" d="m132.42 155.26h0.946c0.274 1.318 0.867 2.217 0 3.152-0.73 0.101-1.21-0.048-1.574-0.315-0.16-1.31 0.91-1.39 0.62-2.84z"></path> <path style="clip-rule:evenodd;fill-rule:evenodd" d="m126.12 159.05h1.26c0.457 0.787 0.762 1.238 0.315 2.206-1.175-0.537-0.497 0.187-1.575 0.315-0.33-1.2-0.82-1.54 0-2.53z"></path> <path style="clip-rule:evenodd;fill-rule:evenodd" d="m136.84 159.99c0.775-0.041 1.52-0.049 1.889 0.312 0.262 1.523-0.385 2.135-1.26 2.524-0.85-0.76-0.99-1.53-0.63-2.83z"></path> <path style="clip-rule:evenodd;fill-rule:evenodd" d="m119.18 160.31c1.042 0.011 0.77 1.332 1.575 1.578-0.349 0.603-1.221 2.167-2.519 0.946-0.35-1.52 0.78-1.54 0.94-2.53z"></path> <path style="clip-rule:evenodd;fill-rule:evenodd" d="m122.02 160.31h1.575c0.564 1.072 0.241 2.067-0.631 2.524-1.33-0.05-1.39-1.55-0.95-2.52z"></path> <path style="clip-rule:evenodd;fill-rule:evenodd" d="m110.36 160.94c-0.041 1.747 0.282 3.858-0.632 4.73-1.831-0.459-2.151-2.354-1.574-4.414 1.09 0.25 1.2-0.48 2.2-0.32z"></path> <path style="clip-rule:evenodd;fill-rule:evenodd" d="m114.46 161.25h0.946c0.646 1.454 0.875 3.113-0.631 3.783-1.55-0.34-0.93-2.9-0.32-3.78z"></path> <path style="clip-rule:evenodd;fill-rule:evenodd" d="m132.74 162.83c0.893-0.052 0.733 0.946 1.575 0.943 0.151 0.993-0.446 1.231-0.631 1.894-0.731-0.354-0.842 0.066-1.575-0.631-0.32-1.25 0.93-0.94 0.62-2.2z"></path> <path style="clip-rule:evenodd;fill-rule:evenodd" d="m142.19 163.77c0.39 1.696 0.11 2.304-0.631 3.469-1.58-0.24-1.97-4.1 0.63-3.47z"></path> <path style="clip-rule:evenodd;fill-rule:evenodd" d="m125.49 165.67h1.575c0.183 0.656 0.78 0.897 0.631 1.891-0.415 0.11-0.497 0.554-0.946 0.628-1.27 0.02-1.35-1.17-1.25-2.52z"></path> <path style="clip-rule:evenodd;fill-rule:evenodd" d="m138.41 167.24c0.28 0.246 0.713 0.338 1.263 0.315 0.169 1.957-0.277 3.296-2.209 3.152-0.46-1.45 0.22-2.43 0.95-3.47z"></path> <path style="clip-rule:evenodd;fill-rule:evenodd" d="m114.14 168.5h2.206c-0.107 0.631 0.064 0.985 0.631 0.944-0.661 1.793-2.108 1.856-3.152 0.631-0.13-0.75 0.57-0.67 0.31-1.57z"></path> <path style="clip-rule:evenodd;fill-rule:evenodd" d="m133.68 169.76c1.375-0.429 1.142 0.751 1.893 0.946-0.292 0.861-0.764 1.547-1.574 1.891-0.91-0.41-0.65-2-0.32-2.84z"></path> <path style="clip-rule:evenodd;fill-rule:evenodd" d="m113.2 171.34c0.161 1.144 0.282 2.919-0.632 3.781-2.34-0.17-2.55-4.43 0.63-3.78z"></path> <path style="clip-rule:evenodd;fill-rule:evenodd" d="m116.35 173.23h1.894c0.461 1.683-1.129 2.427-2.206 1.578-0.26-0.89 0.45-0.82 0.32-1.58z"></path> <path style="clip-rule:evenodd;fill-rule:evenodd" d="m122.65 179.53c0.236 0.97-0.866 0.605-0.631 1.575-1.939 0.364-2.642-0.508-3.152-1.575 1.41-0.09 3.29-1.68 3.78 0.01z"></path> <path style="clip-rule:evenodd;fill-rule:evenodd" d="m116.35 180.17v1.574c-0.405 0.437-1.37 0.313-2.206 0.315 0.008-0.741-0.544-0.926-0.315-1.89 0.63-0.63 1.81-0.2 2.53 0z"></path> <path style="clip-rule:evenodd;fill-rule:evenodd" d="m120.45 183.95c0.867 0.41 0.632 1.706 0.313 2.524-1.303-0.26-2.944 0.426-2.837-2.206 0.7-0.58 2.35 0.02 2.53-0.31z"></path> <path style="clip-rule:evenodd;fill-rule:evenodd" d="m126.75 183.95c0.978 0.077 1.224 0.878 1.891 1.262-0.383 1.088-1.529 1.411-3.15 1.263 0.006-0.744-0.543-0.929-0.315-1.894 0.59-0.14 1.9 0.43 1.57-0.63z"></path> <path style="clip-rule:evenodd;fill-rule:evenodd" d="m72.851 188.99c1.743 0.148 2.492 1.293 2.523 3.155-1.683 0.75-2.854-0.92-2.523-3.15z"></path> <path style="clip-rule:evenodd;fill-rule:evenodd" d="m88.609 192.77c0.328 1.799-1.307 1.634-1.26 3.153-2.722-0.29-0.302-5.42 1.26-3.15z"></path> <path style="clip-rule:evenodd;fill-rule:evenodd" d="m95.229 194.35c1.306 0.777 1.398 2.416 0.315 3.465-0.557-0.282-0.918-0.762-1.575-0.946-0.14-1.4 0.852-1.67 1.26-2.52z"></path> <path style="clip-rule:evenodd;fill-rule:evenodd" d="m141.88 195.29c0.79 0.262 0.996 1.105 1.575 1.575-0.136 0.601-0.68 0.795-0.631 1.577-0.282-0.192-0.564-0.382-0.631 0-1.146-0.289-2.196-1.023-1.575-2.205 0.23-0.5 1.54 0.07 1.26-0.95z"></path> <path style="clip-rule:evenodd;fill-rule:evenodd" d="m136.84 197.82c-1.241-0.187-1.169 0.934-1.893 1.263-0.859 0.228-0.636-0.629-1.262-0.632-0.37-3.07 2.75-2.89 3.15-0.63z"></path> <path style="clip-rule:evenodd;fill-rule:evenodd" d="m80.417 198.13c0.98 0.359 1.468-0.041 2.521 0.631-0.022 0.924-1.201 0.69-0.947 1.891-0.923-0.084-1.169-0.434-1.575 0-0.93-0.43-0.695-2.04 0.001-2.52z"></path> <path style="clip-rule:evenodd;fill-rule:evenodd" d="m146.92 200.02c0.842 1.072-0.062 2.503-0.317 3.465h-1.575c-1.12-1.5-0.04-3.3 1.9-3.46z"></path> <path style="clip-rule:evenodd;fill-rule:evenodd" d="m87.035 200.34c1.374-0.008 2.369 0.364 2.205 1.894-1.17-0.534-0.615 0.066-1.26 0.631h-0.945c-0.362-0.88-0.362-1.64 0-2.52z"></path> <path style="clip-rule:evenodd;fill-rule:evenodd" d="m138.1 203.8c1.552-0.185 1.695 1.037 1.578 2.521-0.544 0.891-1.242-0.115-1.263 0.947-1.45-0.75-1.42-2.39-0.32-3.47z"></path> <path style="clip-rule:evenodd;fill-rule:evenodd" d="m96.489 204.12c1.282-0.126 0.972 1.341 1.893 1.574 0 0.844-0.995 0.686-0.943 1.578-1.129-0.239-2.006-0.729-2.209-1.894 0.705-0.14 1.125-0.56 1.259-1.26z"></path> <path style="clip-rule:evenodd;fill-rule:evenodd" d="m129.9 204.12c1.944 0.715 1.673 2.896 1.262 5.042-0.893-0.497-1.339 0.362-2.205-0.315-0.17-1.09 0.28-3.48 0.94-4.72z"></path> <path style="clip-rule:evenodd;fill-rule:evenodd" d="m84.199 204.75c1.028-0.082 0.911 0.982 1.576 1.262 0.455 1.193-0.867 0.605-0.631 1.575-1.108-0.361-2.001-0.938-1.891-2.519 0.447 0.03 0.893 0.06 0.946-0.31z"></path> <path style="clip-rule:evenodd;fill-rule:evenodd" d="m145.03 205.07c-0.249 1.61 0.221 2.247-0.631 3.465-1.529 0.27-1.788-0.73-2.206-1.574 0.65-1.03 1.12-2.9 2.84-1.9z"></path> <path style="clip-rule:evenodd;fill-rule:evenodd" d="m106.89 205.38c1.07 0.087 2.556-0.243 3.15 0.315 0.277 1.537-1.06 1.462-1.26 2.521-0.926-0.082-1.172-0.434-1.577 0-0.637-0.2-0.205-1.472-0.944-1.574 0.14-0.5 0.99-0.28 0.63-1.27z"></path> <path style="clip-rule:evenodd;fill-rule:evenodd" d="m90.187 206.33c1.547 0.347 2.188 1.594 2.837 2.837-0.205 0.321-0.726 0.326-0.628 0.947-1.855-0.15-1.976-2.03-2.209-3.79z"></path> <path style="clip-rule:evenodd;fill-rule:evenodd" d="m116.98 206.33c0.426 0.932 0.396 1.952-0.315 2.521-0.759 0.129-0.685-0.574-1.577-0.315-0.14-1.52 0.16-2.58 1.9-2.21z"></path> <path style="clip-rule:evenodd;fill-rule:evenodd" d="m148.5 208.53c-0.194 1.173 0.513 3.245-0.631 3.468-1.62-0.06-2.06-4.27 0.63-3.47z"></path> <path style="clip-rule:evenodd;fill-rule:evenodd" d="m151.34 209.8c-0.092 1.525 0.695 2.526 0 3.78-2.34 0.88-2.62-3.86 0-3.78z"></path> <path style="clip-rule:evenodd;fill-rule:evenodd" d="m156.06 210.42c-0.069 1.016 0.557 1.334 0.315 2.524-0.97-0.236-0.605 0.864-1.575 0.628-1.05-0.79-0.7-3.52 1.26-3.15z"></path> <path style="clip-rule:evenodd;fill-rule:evenodd" d="m142.19 210.74c0.741 0.098 0.708 0.975 1.262 1.259-0.426 1.198-1.367 1.935-0.315 3.153-0.434 1.618-2.881 0.89-3.152-0.315 1.02-1.08 1.46-2.74 2.2-4.1z"></path> <path style="clip-rule:evenodd;fill-rule:evenodd" d="m108.47 211.37c0.675 0.377 1.509 0.596 1.894 1.26-0.206 0.954-0.867 1.446-2.206 1.262 0.005-0.743-0.544-0.928-0.318-1.891 0.55 0.12 0.6-0.25 0.64-0.63z"></path> <path style="clip-rule:evenodd;fill-rule:evenodd" d="m99.957 212.32h1.262c-0.069 1.016 0.56 1.333 0.315 2.521-0.972 0.22-0.607 0.22-1.577 0-0.488-1.01-0.113-1.39-0.006-2.52z"></path> <path style="clip-rule:evenodd;fill-rule:evenodd" d="m136.52 212.32c2.367-0.062 2.66 4.391-0.631 3.468-0.86-1.48 0.47-2.13 0.63-3.47z"></path> <path style="clip-rule:evenodd;fill-rule:evenodd" d="m121.08 213.89c-0.016 0.539 0.23 0.816 0.628 0.947-0.47 4.74-6.59-1.36-0.63-0.95z"></path> <path style="clip-rule:evenodd;fill-rule:evenodd" d="m146.29 214.21c1.455 0.547 1.031 3.312 0 4.097-0.405 0.311-0.68-0.115-1.893-0.312-0.01-1.91 1.38-2.42 1.89-3.79z"></path> <path style="clip-rule:evenodd;fill-rule:evenodd" d="m128.01 214.52c0.743-0.007 0.929 0.544 1.893 0.316 0.629 1.09 1.38 2.69 0.315 3.783-2.08-0.02-2.48-1.72-2.21-4.1z"></path> <path style="clip-rule:evenodd;fill-rule:evenodd" d="m148.5 215.15c1.673 0.005 1.57 1.79 1.575 3.468-0.924 0.282-0.967 0.282-1.891 0-0.63-1.18 0.11-2.23 0.31-3.47z"></path> <path style="clip-rule:evenodd;fill-rule:evenodd" d="m154.48 215.78c0.487 0.456 0.279 1.61 0.317 2.519-1.025 0.185-1.467-0.213-2.206-0.312-0.4-1.37-0.02-2.41 1.89-2.21z"></path> <path style="clip-rule:evenodd;fill-rule:evenodd" d="m111.94 217.04c2.184-0.369 2.602 1.896 1.891 3.466h-1.577c-0.58-0.68-0.21-2.31-0.31-3.47z"></path> <path style="clip-rule:evenodd;fill-rule:evenodd" d="m157.95 217.99c-0.046 0.782 0.164 1.308 0.631 1.574-0.005 0.626-0.859 0.4-0.631 1.263-0.719 0.431-1.186-0.813-1.26 0-0.546-0.506-0.685-1.421-0.631-2.524 0.38-0.36 1.12-0.35 1.89-0.31z"></path> <path style="clip-rule:evenodd;fill-rule:evenodd" d="m140.3 218.62c0.89-0.262 0.818 0.441 1.577 0.312 0.375 0.883 0.344 2.176 0.313 3.468-0.741-0.007-0.929 0.544-1.891 0.315-1.18-1.2 0.43-1.96 0-4.1z"></path> <path style="clip-rule:evenodd;fill-rule:evenodd" d="m151.65 219.88h1.577c0.47 1.075-0.095 2.501-0.315 3.784-0.78 0.407-1.529-0.706-1.575 0-1.23-1.1 0.17-2.3 0.31-3.78z"></path> <path style="clip-rule:evenodd;fill-rule:evenodd" d="m105.63 220.2c1.011 0.354 1.695 1.036 1.575 2.521-0.533-0.115-0.593 0.244-0.629 0.629-0.641-0.3-1.259-0.672-1.891-0.944-0.685 0.052-0.144-1.118-0.317-1.574 0.73 0.07 1.19-0.09 1.27-0.64z"></path> <path style="clip-rule:evenodd;fill-rule:evenodd" d="m143.77 220.83c2.467-0.067 2.151 0.764 4.099 0 0.2 1.451 0.649 3.354 0.315 4.411h-1.577c-0.831-0.697 0.241-2.098-0.313-2.521-0.954 0.096-1.126 0.976-2.523 0.629v-2.52z"></path> <path style="clip-rule:evenodd;fill-rule:evenodd" d="m137.15 221.77v1.894c-1.523 0.254-2.647 1.085-2.521-1.894 0.86-0.68 1.53-0.54 2.52 0z"></path> <path style="clip-rule:evenodd;fill-rule:evenodd" d="m156.69 224.29c-4.9 0.13 0.48-5.25 0 0z"></path> <path style="clip-rule:evenodd;fill-rule:evenodd" d="m112.88 222.72c0.646 0.744 0.574 0.403 1.893 0.629-0.235 1.739-1.608 2.788-3.152 1.577v-1.577c0.56-0.08 1.58 0.31 1.26-0.63z"></path> <path style="clip-rule:evenodd;fill-rule:evenodd" d="m125.17 225.24c0.062 1.217 0.011 2.324-0.315 3.15-0.964 0.23-1.148-0.32-1.893-0.312-0.07-1.75 0.34-3.03 2.2-2.84z"></path> <path style="clip-rule:evenodd;fill-rule:evenodd" d="m143.46 225.56h1.891c0.003 1.68 0.326 3.686-1.26 3.78-0.062-0.356-0.317-0.174-0.317 0-1.03-0.88-0.41-2.38-0.31-3.78z"></path> <path style="clip-rule:evenodd;fill-rule:evenodd" d="m139.04 226.18c1.149-0.205 1.678 0.213 2.206 0.631-0.549 1.072 0.241 1.85 0 3.468-3.27 0.49-1.43-2.45-2.21-4.1z"></path> <path style="clip-rule:evenodd;fill-rule:evenodd" d="m134.31 227.76c1.478-0.41 1.195 2.565 1.893 1.891 0.796 1.76-3.642 1.683-2.523-1.262 0.54 0.12 0.6-0.25 0.63-0.63z"></path> <path style="clip-rule:evenodd;fill-rule:evenodd" d="m146.29 228.08c1.952-0.057 2.422 2.313 1.891 3.78-2.01 0.12-2-1.78-1.89-3.78z"></path> <path style="fill:#FFFAEF;clip-rule:evenodd;fill-rule:evenodd" d="m149.76 244.15c-0.779-1.998-2.095-1.503-3.154-3.15-0.262-5.04 2.952-7.397 7.251-6.936 1.988-0.733 2.611-2.883 5.043-2.837 0.654 0.016 4.138 1.673 5.674 2.524 0.326 0.179 0.236 0.743 0.629 0.943 0.949 0.485 2.875 2.693 1.262 5.043-0.498 0.724-1.632 0.897-2.521 1.578-1.616 1.229-3.014 3.693-4.728 3.78-0.59 2.132-1.287 3.127-2.837 3.152-0.523 0.011-2.539-1.279-3.781-2.206-0.94-0.68-1.12-1.96-2.83-1.87z"></path> <path style="fill:#FFFAEF;clip-rule:evenodd;fill-rule:evenodd" d="m163 249.51c-0.741 0.005-0.929-0.544-1.891-0.316 0.552-3.965 3.947-5.089 6.303-7.251 0.51-0.087 0.543 0.298 0.948 0.318-0.8 2.71-3.28 4.96-5.36 7.25z"></path> <path style="clip-rule:evenodd;fill-rule:evenodd" d="m61.82 197.82c-0.122-0.823-1.011-0.88-0.631-2.206-4.208-2.865-8.223-6.846-12.923-8.826-1.379-2.193-3.99-3.154-5.043-5.674-1.712-0.492-1.529-2.883-3.467-3.149 0-1.052-1.026-1.078-0.946-2.206-2.692-2.143-3.758-5.91-6.304-8.195-2.233-4.702-3.753-10.117-7.564-13.238-0.164-1.832-1.529-2.465-1.576-4.412-4.223-6.705-7.836-14.019-11.031-21.749 0.252-2.48-1.546-5.015-1.892-7.88-1.795-4.155-2.937-9.152-4.727-13.554-0.754-1.854-1.234-4.261-2.208-6.619-0.44-1.071-0.782-2.11-1.576-2.525-2.857-10.609-2.278-21.23 0-32.15 1.585-3.559 2.523-6.533 4.098-9.771 1.349-2.773 2.002-4.57 4.098-6.935 0.5-0.564 1.033-0.966 1.576-1.576 1.762-1.977 2.936-2.761 5.043-5.043 0.366-0.264 0.845-0.416 1.576-0.315 1.107-1.52 2.417-2.836 4.098-3.782 1.572-1.684 2.716-3.797 5.043-4.728 2.22-2.402 5.045-4.202 8.195-5.674 2.641-4.817 8.761-6.157 12.292-10.086 1.739 0.35 2.951-1.294 4.098-1.576 0.423-0.104 1.159 0.419 1.576 0.315 0.673-0.169 1.244-1.549 2.206-0.631 0.454-0.07 0.11-0.94 0.631-0.945 6.359-2 12.226-1.03 15.444-6.619h1.261c0.519-1.896 3.065-1.769 3.468-3.782 0.902 0.062 1.72 0.039 1.575-0.945 3.45-1.161 8.051-0.579 10.719-1.892 0.171-0.084 0.823 0.139 0.943 0 0.719-0.817 0.19-0.087 1.575-0.631 0.339-0.131 0.23-0.538 0.631-0.63 0.76-0.174 1.552 0.079 2.206 0 3.54-0.423 7.962-0.315 11.348 2.206 0.359 2.165 3.065 1.979 3.152 4.413 1.64 0.149 2.476 1.099 3.466 1.891 1.344-0.186 2.088 0.227 3.154 0.315 0.832-0.095 0.811 0.658 0.944 1.261 1.334-1.334 2.714 1.333 4.73 1.261 1.354 2.847 5.401 3.001 6.931 5.674 0.995-0.154 1.113 0.568 2.208 0.315 1.87 2.123 3.258 4.728 6.303 5.674 0.3 1.697 1.582 2.411 3.155 2.835 1.077 2.915 3.463 4.522 5.671 6.304 1.763 3.814 4.068 7.513 5.358 11.979 0.408 1.41 0.098 3.036 0.944 4.412-0.052 1.247 0.487-0.102 0.948 0.631 0.236 6.265 2.655 12.593 4.097 18.281 1.364 5.384 0.547 11.766 3.466 15.129 0.192 0.755 0.454 1.438 0.317 2.521 3.504 5.969 3.012 12.856 2.52 21.118-0.328 5.535-1.088 11.391-2.52 15.759-1.038 3.159-2.811 7.273-4.099 11.033 0.003 3.285-2.026 5.628-2.837 8.826-0.56 2.206 0.066 4.843-1.893 5.674-1.427 7.79-5.104 11.394-5.987 18.594-0.241 1.976 0.226 3.784 0.315 5.675 0.298 6.395 0.372 11.258 1.577 16.391 0.383 1.634 1.244 3.193 1.575 4.727 0.126 0.588-0.182 1.318 0 1.894 0.162 0.508 0.806 1.049 0.944 1.575 0.518 1.959 0.238 3.183 1.575 4.727 0.41 0.473 0.733 1.132 1.262 1.891 0.144 0.205 0.841 0.149 0.946 0.315 0.123 0.2-0.156 0.777 0 0.947 0.547 0.59 1.654 0.729 2.206 1.259 0.621 0.598 1.367 1.993 2.206 2.837 1.932 1.942 3.917 3.855 4.728 7.252 1.025 4.286 0.369 10.026 1.577 14.813 1.255 2.418 4.063 3.29 5.672 5.357 1.244 3.802 0.079 8.045-1.26 11.03-3.466 2.265-6.303 7.11-10.086 5.043-1.396-0.446-0.823 1.067-1.891 0.946-3.553-0.767-6.259-3.178-9.772-5.358-1.154-0.713-2.624-0.872-3.781-1.575-1.077-0.651-1.708-1.959-2.837-2.521-0.323-0.161-1.739-0.32-2.521-0.631-0.5-0.197-1.121-0.413-1.577-0.628-2.165-1.029-4.945-0.913-7.88-1.578-1.252-0.284-2.354-0.815-3.466-1.259-0.926-0.372-2.277-0.462-2.837-1.578-2.331 0.054-5.895-2.35-7.88-3.152-2.188-0.882-3.988-1.195-5.674-2.837-1.177-0.028-0.897-0.354-1.891 0-0.841-1.708-2.388-2.064-3.783-1.891-2.485-2.454-5.579-4.296-8.508-6.302-3.155-5.043-8.596-7.798-11.979-12.61h-1.261c-0.48-1.41-1.737-2.047-3.153-2.521-4.3-4.73-9.066-9-16.389-10.71zm86.05-1.89c-0.498-2.307-1.7-4.669-2.206-7.249-0.202-1.036 0.008-2.137-0.315-3.152-0.434-1.373-1.47-2.517-0.946-4.415-0.282-0.426-0.465-0.339-0.631-0.943-1.14-4.202 0.749-9.769-0.313-13.87 0.596-0.628 0.295-1.347 0.631-1.574 0.016 0.192 0.047 0.372 0.313 0.315 0.287-4.759 1.585-8.504 3.783-11.348 1.105-6.249 3.912-10.797 5.043-17.022 0.618 0.098 0.626-0.426 0.946-0.628 0.513-3.994 2.504-7.702 3.468-11.664 0.79-3.247 1.05-6.74 2.837-9.455-0.107-9.269 1.807-16.338-0.317-26.161-2.319-1.944-1.416-5.339-3.15-7.565-0.59-2.667-0.477-5.528-0.946-8.51-0.793-5.045-3.722-10.605-3.783-16.075-2.047-4.935-2.586-11.423-5.043-15.129 0.328-3.586-2.55-3.965-2.837-6.935-2.627-1.262-3.563-4.21-6.303-5.358-0.249-1.224-0.888-2.055-2.208-2.206-0.58-2.463-3.576-2.515-4.094-5.044-2.422-1.511-4.864-3.064-6.306-4.728-3.229-1.117-6.489-5.091-10.403-5.358-0.708 1.993-1.447 2.575-3.15 1.576-0.536 0.53-2.18 1.582-3.152 0.63 0.003-0.315-0.254-0.375-0.315-0.63 1.798-2.176 3.632-0.547 5.043-2.521-1.852 0.364-2.441-0.435-3.149-0.945-0.311-0.222-0.927-0.055-1.263-0.316-1.046-0.811-2.09-3.183-3.152-3.468-0.105-0.027-1.511-1.208-1.577-1.259-0.698-0.577-1.211-1.679-1.575-1.892-1.268-0.741-2.629-0.204-3.781-1.261 0.098 1.463-1.069-0.029-1.574 0-0.047 0.003-0.555 0.548-0.949 0.63-0.549 0.117-2.878 0.15-4.094-0.314-0.616 1.337-2.237 0.955-3.155 2.521-0.908-0.032-1.703-0.344-2.836-0.316-0.873 0.022-1.859 0.552-2.837 0.631-0.443 0.035-0.536-0.618-0.945-0.631-0.023-0.001-0.758 0.591-0.945 0.631-1.484 0.309-1.072 0.056-1.576 0.629-0.136 0.154-0.771-0.119-0.945 0-1.809 1.233-3.485 2.905-4.729 4.098-0.426 0.099-0.601 0.449-1.26 0.316-2.928 6.001-13.282 4.579-18.597 8.194-2.436-0.694-4.054 1.822-5.988 1.576-0.538 0.199-0.52 0.953-0.945 1.261-7.297 4-11.821 8.881-17.651 13.238-0.45-0.123-0.532-0.378-0.945 0-2.029 2.229-4.319 4.459-6.304 6.304-1.374 1.276-2.442 1.948-3.783 2.837-1.624 1.077-2.665 2.808-4.097 4.098-2.265 2.041-3.815 4.054-5.989 5.988-2.174 5.297-4.738 11.374-5.674 17.967-0.349 2.464-0.033 5.01-1.261 7.249 0.794 0.258 0.665 1.438 0.631 2.521-1.137 0.66-0.754 3.994 0 4.729-0.402 6.383 1.821 10.15 2.849 15.108 0.035 0.595 1.042 0.219 0.945 0.946 0.121 2.927 1.017 5.076 2.521 6.618 0.396 2.546 0.409 5.475 2.206 6.621-0.231 2.857 1.784 3.469 1.262 6.618 1.258 2.21 2.146 4.789 2.521 7.88 0.576 0.475 0.742 1.361 1.261 1.89 0.118 2.288 1.405 4.72 2.206 5.674 3.39 4.033 4.99 9.604 7.249 14.186 2.02 1.762 3.474 4.089 4.413 6.933 2.032 1.542 2.763 4.384 3.467 7.252 2.257 2.05 3.736 4.879 5.044 7.88 1.466 0.213 1.873 1.487 2.206 2.837 0.472 0.051 1.163-0.113 1.261 0.312 3.138 6.213 10.081 8.621 14.499 13.554 1.023-0.182 1.466 0.216 2.206 0.315 0.773 2.168 3.179 2.704 4.098 4.728 3.523 0.364 4.872 2.904 8.825 2.837 0.214 0.734 1.048 0.844 1.261 1.575h1.576c2.299 2.186 3.55 3.524 6.304 5.043v0.946c3.7 1.87 5.206 5.934 8.828 7.88-0.052 0.785 0.492 0.978 0.628 1.578 2.968 1.236 3.604 4.799 7.252 5.355-0.026 0.549 0.069 0.982 0.312 1.262 2.547 1.236 4.471 3.094 6.305 5.043 1.645 0.596 6.11 2.055 8.193 4.1 2.352 0.066 3.945 1.354 5.992 1.89 2.006 0.526 3.873 0.485 5.042 1.891 3.977-1.29 8.137-0.978 13.867-0.631 0.467-0.897 0.646-2.085 1.262-2.837 0.359 0.903 0.98 1.544 1.575 2.208 1.405-0.467 1.955-0.103 3.152 0.316 0.195-1.383 1.157-1.996 2.206-2.524 0.772 0.282 0.341 1.76 1.577 1.577 1.468 0.416 1.052-1.046 2.52-0.631-0.506-1.978 0.82-2.121 1.577-2.837 0.59 0.396 0.377 2.424 1.26 1.578 0.292-0.039 1.862-1.493 1.893-2.837-1.503-0.949-2.749 0.477-3.783 0-0.375-0.878-0.361-1.919 0.315-2.521 0.298-0.329 1.624-0.29 1.575 0.628 1.077 0.236 0.399-1.28 1.577-0.944 1.08 0.072 0.267 2.045 1.578 1.891 2.508-2.321 4.355-5.307 5.986-8.508-1.198-4.899-4.269-7.921-7.249-11.035-0.226 1.036-0.148 2.375-1.262 2.524-0.733-0.216-1.323-0.569-1.262-1.578 0.287-0.869 1.806-0.505 1.893-1.574-0.664-1.439-2.56-1.645-3.152-3.153 0.169 1.113-0.267 1.624-0.946 1.891-0.057-0.464-0.76-0.29-1.26-0.315-0.141-1.716-0.087-3.237 1.577-3.149-1.38-1.81-1.39-3.92-1.9-6.3zm4.73 50.11c1.242 0.927 3.258 2.217 3.781 2.206 1.55-0.025 2.247-1.021 2.837-3.152 1.714-0.087 3.111-2.552 4.728-3.78 0.89-0.681 2.023-0.854 2.521-1.578 1.613-2.35-0.312-4.558-1.262-5.043-0.393-0.2-0.303-0.765-0.629-0.943-1.536-0.852-5.02-2.509-5.674-2.524-2.432-0.046-3.055 2.104-5.043 2.837-4.299-0.462-7.513 1.896-7.251 6.936 1.06 1.647 2.375 1.152 3.154 3.15 1.7-0.11 1.88 1.17 2.83 1.87zm15.76-3.78c-0.405-0.021-0.438-0.405-0.948-0.318-2.355 2.162-5.751 3.286-6.303 7.251 0.962-0.228 1.149 0.321 1.891 0.316 2.08-2.29 4.56-4.54 5.36-7.25z"></path> <path style="clip-rule:evenodd;fill-rule:evenodd" d="m130.53 26.035c0.511-1.076 4.202-1.022 2.837 1.892-2.06 0.477-1.93-1.226-2.84-1.892z"></path> <path style="clip-rule:evenodd;fill-rule:evenodd" d="m129.9 223.03c0.062-0.359 0.318-0.175 0.315 0 0.306-0.011 0.244-0.388 0.315-0.632 1.132 0.654 2.258 1.313 2.206 3.153-0.536-0.116-0.595 0.243-0.631 0.628-0.539 0.066-0.815-0.536-0.944 0-1.46-0.65-0.72-2.08-1.28-3.15z"></path> <path style="fill:#EBC9C3;clip-rule:evenodd;fill-rule:evenodd" d="m149.76 202.23c-1.664-0.088-1.718 1.434-1.577 3.149 0.5 0.025 1.203-0.148 1.26 0.315 0.68-0.267 1.115-0.777 0.946-1.891 0.593 1.509 2.488 1.714 3.152 3.153-0.087 1.069-1.605 0.705-1.893 1.574-0.062 1.009 0.528 1.362 1.262 1.578 1.113-0.149 1.036-1.488 1.262-2.524 2.98 3.114 6.051 6.136 7.249 11.035-1.631 3.201-3.479 6.187-5.986 8.508-1.312 0.154-0.498-1.818-1.578-1.891-1.178-0.336-0.5 1.181-1.577 0.944 0.049-0.918-1.277-0.957-1.575-0.628-0.677 0.603-0.69 1.644-0.315 2.521 1.034 0.477 2.28-0.949 3.783 0-0.03 1.344-1.601 2.798-1.893 2.837-0.883 0.846-0.67-1.183-1.26-1.578-0.757 0.716-2.083 0.859-1.577 2.837-1.468-0.415-1.052 1.047-2.52 0.631-1.236 0.183-0.805-1.295-1.577-1.577-1.049 0.528-2.011 1.142-2.206 2.524-1.197-0.419-1.747-0.783-3.152-0.316-0.595-0.664-1.216-1.305-1.575-2.208-0.615 0.752-0.795 1.939-1.262 2.837-5.73-0.347-9.891-0.659-13.867 0.631-1.169-1.405-3.036-1.364-5.042-1.891-2.047-0.536-3.641-1.823-5.992-1.89-2.083-2.045-6.549-3.504-8.193-4.1-1.834-1.949-3.758-3.807-6.305-5.043-0.243-0.279-0.339-0.713-0.312-1.262-3.647-0.557-4.284-4.119-7.252-5.355-0.136-0.601-0.68-0.793-0.628-1.578-3.622-1.946-5.128-6.01-8.828-7.88v-0.946c-2.753-1.519-4.005-2.857-6.304-5.043h-1.576c-0.213-0.731-1.046-0.841-1.261-1.575-3.953 0.067-5.302-2.473-8.825-2.837-0.918-2.023-3.325-2.56-4.098-4.728-0.74-0.1-1.183-0.497-2.206-0.315-4.418-4.933-11.361-7.341-14.499-13.554-0.098-0.426-0.789-0.262-1.261-0.312-0.333-1.35-0.74-2.624-2.206-2.837-1.308-3.001-2.787-5.83-5.044-7.88-0.704-2.868-1.435-5.71-3.467-7.252-0.939-2.844-2.393-5.171-4.413-6.933-2.259-4.581-3.859-10.152-7.249-14.186-0.801-0.954-2.088-3.386-2.206-5.674-0.519-0.528-0.685-1.415-1.261-1.89-0.375-3.091-1.263-5.67-2.521-7.88 0.521-3.148-1.493-3.76-1.262-6.618-1.797-1.146-1.81-4.075-2.206-6.621-1.504-1.542-2.401-3.691-2.521-6.618 0.096-0.727-0.911-0.352-0.945-0.946-1.028-4.96-3.251-8.727-2.837-15.129-0.754-0.735-1.137-4.068 0-4.729 0.034-1.084 0.163-2.264-0.631-2.521 1.228-2.239 0.912-4.785 1.261-7.249 0.936-6.593 3.5-12.67 5.674-17.967 2.174-1.934 3.725-3.948 5.989-5.988 1.432-1.29 2.473-3.021 4.097-4.098 1.341-0.889 2.41-1.561 3.783-2.837 1.984-1.844 4.275-4.075 6.304-6.304 0.413-0.378 0.495-0.123 0.945 0 5.831-4.357 10.354-9.238 17.651-13.238 0.426-0.308 0.408-1.062 0.945-1.261 1.934 0.246 3.553-2.27 5.988-1.576 5.314-3.615 15.668-2.193 18.597-8.194 0.659 0.133 0.834-0.217 1.26-0.316 1.244-1.192 2.92-2.865 4.729-4.098 0.174-0.119 0.809 0.154 0.945 0 0.504-0.573 0.092-0.32 1.576-0.629 0.187-0.04 0.922-0.632 0.945-0.631 0.409 0.013 0.501 0.666 0.945 0.631 0.978-0.08 1.964-0.609 2.837-0.631 1.133-0.028 1.928 0.284 2.836 0.316 0.918-1.566 2.539-1.184 3.155-2.521 1.216 0.464 3.545 0.431 4.094 0.314 0.395-0.082 0.902-0.627 0.949-0.63 0.505-0.029 1.672 1.463 1.574 0 1.152 1.057 2.514 0.52 3.781 1.261 0.364 0.213 0.877 1.315 1.575 1.892 0.066 0.051 1.472 1.232 1.577 1.259 1.062 0.285 2.106 2.657 3.152 3.468 0.336 0.261 0.952 0.094 1.263 0.316 0.708 0.51 1.298 1.309 3.149 0.945-1.411 1.974-3.245 0.345-5.043 2.521 0.062 0.255 0.318 0.314 0.315 0.63 0.973 0.952 2.616-0.1 3.152-0.63 1.703 0.999 2.442 0.417 3.15-1.576 3.914 0.267 7.174 4.241 10.403 5.358 1.441 1.664 3.884 3.217 6.306 4.728 0.518 2.529 3.514 2.581 4.094 5.044 1.32 0.151 1.959 0.982 2.208 2.206 2.739 1.148 3.676 4.097 6.303 5.358 0.287 2.969 3.165 3.349 2.837 6.935 2.457 3.706 2.996 10.194 5.043 15.129 0.062 5.47 2.99 11.03 3.783 16.075 0.47 2.982 0.356 5.843 0.946 8.51 1.734 2.226 0.831 5.621 3.15 7.565 2.124 9.823 0.21 16.892 0.317 26.161-1.787 2.715-2.047 6.208-2.837 9.455-0.964 3.961-2.955 7.669-3.468 11.664-0.32 0.202-0.328 0.726-0.946 0.628-1.131 6.226-3.938 10.773-5.043 17.022-2.198 2.844-3.496 6.589-3.783 11.348-0.267 0.057-0.298-0.123-0.313-0.315-0.336 0.228-0.035 0.946-0.631 1.574 1.062 4.102-0.826 9.668 0.313 13.87 0.166 0.604 0.349 0.518 0.631 0.943-0.523 1.898 0.513 3.042 0.946 4.415 0.323 1.016 0.113 2.116 0.315 3.152 0.506 2.58 1.708 4.942 2.206 7.249 0.51 2.41 0.52 4.52 1.89 6.33zm-69.03-195.1c1.361 0.429 1.162 0.986 2.523 0.945 0.135-0.6 0.678-0.791 0.63-1.576-0.316-0.419-0.52-0.952-0.945-1.261-0.425 0.942-1.53 1.201-2.208 1.892zm-6.619 5.358c0.922 1.222 1.905 0.16 3.153 0v-1.892c-1.798-0.117-2.824 0.538-3.153 1.892zm-3.782 5.042c1.07-0.402 1.984-0.958 2.208-2.206-0.992 0.36-0.767-0.495-1.261-0.631-0.551 0.239-2.609 1.652-0.947 2.837zm-6.933-0.946c0.367 0.054 0.341 0.499 0.314 0.946 1.183 0.226 2.769 0.389 2.837-1.261-1.071-0.734-2.342-0.706-3.151 0.315zm53.584 0.946c1.329 0.388 1.447 1.697 2.521 1.576 1.173-1.198-0.018-2.093-0.315-3.468h-1.891c0.01 0.743-0.54 0.929-0.31 1.892zm-44.443 2.522h2.206c0.2-0.721 0.625-1.9 0-2.521-1.367 0.284-2.812 1.195-2.206 2.521zm-6.306-0.945c0.173 0.458-0.368 1.629 0.316 1.577 0.33 0.068 2.575 1.303 2.521-0.947-0.548-1.623-1.397-1.07-2.837-0.63zm46.649 1.576c1.344 1.309 2.501 1.706 3.468-0.316-0.74-1.22-3.36-1.981-3.47 0.316zm-54.528 0.314c0.018 0.403 0.404 0.438 0.316 0.945 2.321 0.513 2.113-2.149 0.631-2.521 0.001 0.843-0.997 0.685-0.947 1.576zm61.468 1.892c1.055 0.311 2.268 0.462 2.837 1.261-0.056-0.79 0.706-0.766 0.944-1.261-0.267-1.202-1.231-1.711-1.891-2.521-0.67 0.8-2.02 0.923-1.89 2.521zm-68.086-1.576c-0.229 0.964 0.542 0.927 0.314 1.892 1.171-0.314 0.825-0.673 2.207-0.316-0.262-0.891 0.444-0.817 0.314-1.576-1.26-0.85-1.425-0.218-2.835 0zm11.031 1.576c0.596 0.625 1.489 0.153 2.206 0 0.042-0.777 0.049-1.519-0.314-1.892-1.234 0.029-2.137 0.386-1.892 1.892zm63.035 0.63c1.077-0.128 0.4-0.85 1.577-0.314 0.616-0.863 0.616-1.344 0-2.208h-2.206c-0.74 1.248 0.31 1.519 0.63 2.522zm-55.471 1.26h2.208v-1.891h-2.208c-0.028 1.179-0.352 0.899 0 1.891zm63.041 3.153c1.365-2.914-2.326-2.968-2.837-1.892 0.91 0.666 0.78 2.369 2.84 1.892zm-87.625 0c1.213-0.047 1.813-0.708 2.206-1.576-0.273-0.461-0.472-0.999-1.261-0.945-0.689 0.941-2.282 1.146-0.945 2.521zm21.433 0.945c0.129-0.537 0.407 0.067 0.945 0-0.058-0.688 0.258-1.003 0.945-0.945 0.13-0.759-0.576-0.685-0.314-1.576-2.457-0.474-2.944 1.563-1.576 2.521zm57.682 0.631c0.41-0.118 1.993-0.099 1.575-1.892-0.754 0.192-2.285-0.395-2.519 0.315 0.63 0.202 0.2 1.474 0.94 1.577zm-6.94 0.314c0.538 0.621 0.97 1.345 1.893 1.576 0.318-1.112 0.544-0.577 1.263-0.945-0.016-0.434 0.146-0.692 0.312-0.945-1.25-1.068-2.54-1.007-3.46 0.314zm-79.74 1.892c0.058-0.467 0.762-0.289 1.261-0.315 0.03-0.495-0.042-1.093 0.63-0.945-0.326-2.748-4.02-0.278-1.891 1.26zm89.52 2.521c1.796 0.219 2.771-0.382 2.521-2.206-0.523-0.528-1.85-0.251-2.837-0.315-0.49 0.99-0.2 1.758 0.32 2.521zm7.24-1.576c0.159 0.997 0.929 1.384 0.944 2.521 0.995-0.353 0.716-0.028 1.893 0v-2.837c-0.85-0.769-2.2-0.113-2.83 0.316zm-88.25 2.207c1.007-0.514 0.5-1.851 0-2.522h-1.575c-0.735 1.452 0.567 2.998 1.575 2.522zm-14.814-0.315c1.774 0.092 3.544 0.181 3.151-1.892-2.015-0.335-2.654 0.708-3.151 1.892zm6.62 2.521h2.206c-0.129-0.759 0.576-0.685 0.315-1.576-1.03-0.125-1.435-0.876-2.521-0.945-0.112 1.135-0.482 1.518 0 2.521zm84.154 0c0.731 0.918 1.416 0.057 1.891 0.945 0.359-0.691 0.813-1.288 0.631-2.521-0.366-0.264-0.844-0.416-1.577-0.315-0.03 0.944-1.16 0.143-0.94 1.891zm-89.513 2.837c0.342-0.708 1.516-0.585 1.261-1.892-1.207 0.155-1.007-1.094-2.521-0.63-0.538 1.097-0.421 2.766 1.26 2.522zm-7.88 2.206c1.715 0.14 3.176 0.024 2.837-1.892-1.695-0.848-3.819-0.023-2.837 1.892zm113.47-0.945c0.218 1.932 1.683 2.283 2.837 2.521 1.25-2.102-1.1-4.167-2.84-2.521zm-118.2 4.728c0.963-0.227 1.149 0.323 1.892 0.315 0.477-0.803 0.89-1.444 0.315-2.521-1.569-0.098-2.51 0.432-2.207 2.206zm7.565 0.63c0.076-0.813 0.542 0.432 1.261 0 0.094-0.643 0.631-0.84 0.945-1.261-0.467-0.059-0.29-0.762-0.315-1.261-0.743 0.006-0.929-0.543-1.891-0.315-0.401 0.813-1.069 2.278 0 2.837zm5.989-1.576c0.663 0.387 0.204 1.898 0.945 2.206 0.249-0.315 1.103 0.118 1.576-0.63 0.266-1.317-0.613-1.489-0.63-2.521-1.22-0.274-1.365 0.527-1.891 0.945zm-19.227 5.359c0.035-0.604 1.056 0.371 1.891 0-0.182-1.023 0.215-1.466 0.315-2.207-1.302-1.146-3.372 0.923-2.206 2.207zm10.716-0.631c0.228-0.963-0.322-1.148-0.314-1.891-3.908-0.512-1.977 3.722 0.314 1.891zm-8.195-0.315c-0.392 2.29 1.027 3.708 2.837 2.837 0.173-1.75-0.337-2.816-1.262-3.468-0.075 0.795-0.928 1.306-1.575 0.631zm12.608 1.891c-0.013 1.169 1.183 1.13 1.576 1.892 0.505-0.871 1.393-1.548 0.63-2.837h-1.575c-0.031 0.495 0.041 1.092-0.631 0.945zm113.16 1.576c0.069-1.249 2.045 0.368 1.891-1.576-0.2-1.166-1.77-0.962-3.15-0.945-0.1 1.364 0.43 2.087 1.26 2.521zm-15.44-0.945c0.572 0.688 1.145 1.375 2.521 1.261-0.082-0.923 0.711-0.968 0.629-1.892-0.508-0.648-1.58-0.731-2.837-0.63 0.07 0.595-0.36 0.695-0.31 1.261zm-104.02 1.89c-0.25 1.09 0.35 1.331 0.63 1.892 1.026-0.025 1.698-0.404 1.892-1.261-0.685-0.262-0.702-1.19-1.576-1.261 0.04 0.566-0.314 0.738-0.946 0.63zm-13.238 2.207c1.525 0.159 2.334-0.396 2.206-1.891h-2.206v1.891zm8.825 3.152h1.892c-0.242-1.188 0.385-1.507 0.315-2.521-1.99-0.151-2.698 1.01-2.207 2.521zm-5.988-1.576c-0.187 1.553 0.304 2.428 1.891 2.207 0.182-0.659 0.782-0.9 0.631-1.892-0.971 0.235-0.605-0.866-1.576-0.63 0.057 1.209-0.259 0.114-0.946 0.315zm131.44 0.946c0.651 0.081 0.084 1.384 0.628 1.576h1.891c0.103-0.741 0.497-1.184 0.317-2.207-1.03-0.862-2.21 0.127-2.84 0.631zm-121.67 3.467c-0.041 0.777-0.047 1.519 0.315 1.891 0.964 0.229 0.927-0.544 1.892-0.314-0.26-0.891 0.444-0.817 0.314-1.576-0.457-0.464-2.062-0.464-2.521-0.001zm80.37 0.945c0.774 1.481 1.252 1.585 3.152 1.576-0.235-0.971 1.085-0.385 0.629-1.576-0.37-1.307-3.39-1.307-3.78 0zm-96.129 0c-0.121 1.382 0.912 1.611 1.261 2.521 0.176-0.77 0.74-1.152 1.261-1.576-0.259-0.791-0.413-1.688-1.576-1.575 0.04 0.566-0.314 0.738-0.946 0.63zm5.673 0.945c-0.565 1.385 2.696 2.979 2.521 0-0.841 0.002-0.685-0.996-1.576-0.945 0.49 1.121-1.069 0.191-0.945 0.945zm117.57 0.947c-0.139 1.084 0.123 1.766 0.313 2.521 1.519 0.464 1.318-0.786 2.523-0.631v-1.261c-0.85-0.93-1.34-0.796-2.83-0.629zm-20.8 0.945v1.576c0.405 0.434 1.37 0.312 2.206 0.315-0.071-1.317 0.514-1.489 0-2.521-1.26-0.311-0.95 0.942-2.21 0.63zm-8.83 3.467c0.667 0.595 0.896 1.626 2.521 1.262-0.005-0.744 0.544-0.928 0.315-1.892-1.28-0.394-2.52-1.053-2.84 0.63zm-95.184 1.262c0.591 0.937 1.185 0.672 1.89 0.945 0.393-0.763 0.781-1.531 0.945-2.521-1.186-1.227-2.994-0.332-2.835 1.576zm7.248 2.521c0.288-0.554 1.104-0.577 1.576-0.946 0.108-1.369-0.238-2.283-1.261-2.521-0.726 1.215-1.827 2.331-0.315 3.467zm112.84 1.261c-0.013 1.59 1.087 2.067 2.837 1.891 1.04-1.882-1.35-2.445-2.84-1.891zm-11.66 3.467c1.447 0.187 2.414-0.108 2.837-0.945-0.726-0.641-0.8-1.933-1.893-2.207-1.61-0.11-1.39 2.104-0.95 3.152zm29.63-2.522c-0.405 1.248 1.038 0.644 0.631 1.891 1.555 0.187 2.427-0.304 2.206-1.891-0.82-0.78-1.55 0.307-2.84 0zm-138.05 1.261c-0.198 1.353 0.281 2.03 0.945 2.521 1.32-0.255 2.001-1.752 1.576-2.837-0.845-0.806-1.867-0.014-2.521 0.316zm97.704 4.097c0.036-0.604 1.057 0.369 1.894 0 1.226-1.208 1.025-2.616-0.949-2.837-0.016-0.192-0.046-0.374-0.313-0.315-0.78 0.764-1.91 2.008-0.63 3.152zm-90.456-2.206c-0.998 0.698-0.405 2.148 0 3.151h1.576c0.44-1.16-0.06-3.017-1.576-3.151zm-6.934 6.304c1.485 0.118 2.167-0.564 2.521-1.576-0.01-1.146-0.926-1.385-2.206-1.261-0.527 0.524-0.251 1.851-0.315 2.837zm142.47 2.836c0.744 0.098 0.585 1.096 1.575 0.947 0.716-0.336 1.146-0.957 1.262-1.892-1.14-0.839-2.64-0.704-2.84 0.945zm-133.96 2.836c0.763-0.287 0.835-1.266 0.945-2.206-1.87-1.528-3.212 2.058-0.945 2.206zm-7.564 0.316c0.819 0.573 0.95-0.136 1.89 0.315 0.104-0.736 0.379-1.302 0.631-1.892-1.199 0.464-0.062-1.409-1.261-0.945-0.134 1.127-1.674 0.849-1.26 2.522zm101.18 4.098c1.041-0.006 1.567-0.532 1.574-1.576-0.746-0.62-1.528-1.203-3.152-0.945 0.1 1.265 0.57 2.162 1.58 2.521zm17.33-0.945c-0.274 1.639 0.495 2.237 1.891 2.206 0.864-1.195 0.465-2.438-0.946-2.837 0.05 0.567-0.31 0.737-0.94 0.631zm-117.25 1.574c0.036 1.121 1.043 1.27 2.206 1.262 0.709-0.571 0.743-1.592 0.315-2.521-1.663-0.227-2.366 0.856-2.521 1.259zm125.76 4.1c-0.219-0.848 0.651-0.61 0.943-0.946 0.303-1.367-0.897-2.861-1.575-2.206-0.18 0.679-0.98 2.353 0.64 3.152zm-120.72-0.631c1.117 0.428 0.622 0.51 1.891 0.631 0.84-0.878 0.75-2.587-0.63-2.837-0.48 0.839-1.493 0.183-1.261 2.206zm140.89 0.945c-0.018-0.962 1.134-0.756 0.944-1.891-1.247 0.407-0.642-1.038-1.891-0.631-0.87 0.935-1.4 2.699 0.95 2.522zm-6.93 3.779h1.577c-0.002-0.836 0.118-1.799-0.315-2.206h-1.262c-0.45 0.43-0.45 1.79 0 2.21zm-5.99 2.52c0.252 1.439 3.207 1.216 3.15-0.314-0.58-1.31-2.99-1.81-3.15 0.31zm-7.57 1.27c0.759-0.129 0.688 0.575 1.577 0.314 0.036-0.385 0.095-0.746 0.629-0.629-0.052-1.101-0.724-1.586-1.575-1.892-0.42 0.53-0.84 1.06-0.64 2.21zm-5.35 4.09c0.175-0.346 1.216-0.056 1.891-0.629 0.131-1.289-1.039-1.274-0.631-2.837-0.654 0.187-2.07-0.39-2.206 0.315 0.71 0.66 0 2.74 0.95 3.15zm-6.62-1.26c1.454 0.499 2.326-0.055 2.209-1.89h-2.524c-0.05 0.78-0.06 1.52 0.31 1.89zm31.83 0.32c0.47 0.371 0.89 0.791 1.262 1.261 0.667-1.109 1.688-1.742 0.944-3.467h-1.262c0.31 1.35-0.88 1.22-0.94 2.21zm-3.47 4.09c-0.2-1.417 0.861-2.692 0-3.782-2.77 0.02-2.19 4.38 0 3.78zm-16.7 0.32c1.011-0.263 0.651-0.27 1.26 0.315 0.279-0.771 0.736-1.367 0.631-2.523h-2.206c-0.25 1.09 0.47 1.21 0.32 2.2zm-11.98 2.84c0.97-0.236 0.605 0.864 1.575 0.63 0.441-0.821 0.626-1.896 0.949-2.837-1.52-0.51-2.83 0.05-2.52 2.21zm-6.93 0c0.454 0.594 0.706 1.396 1.891 1.259-0.185-1.131 0.367-1.523 0.631-2.206-0.566 0.041-0.738-0.313-0.631-0.945h-1.262c0.08 0.93-0.71 0.97-0.63 1.9zm27.73 2.52c1.151 0.279 1.68-0.557 2.206 0-0.26-0.892 0.446-0.817 0.318-1.576-1.124-0.245-1.19-1.543-2.209-1.892-0.69 0.75-0.83 2.39-0.32 3.47zm11.04 0.63c0.038 0.802 0.459 1.223 1.26 1.261 0.949-0.811 1.595-3.771 0-4.412 0.05 1.52-0.71 2.23-1.26 3.15zm-26.48 0.31c0.644 0.093 0.839 0.631 1.26 0.945 0.23-1.031 1.656-0.864 1.577-2.206-0.716-0.757-1.416-1.525-2.521-1.892-0.31 1.51-0.01 1.67-0.32 3.16zm6.3 0h1.575c0.361-0.884 0.361-1.639 0-2.521-1.75-0.25-2.21 1.27-1.57 2.52zm14.5 3.16c-0.059-1.208 0.257-0.114 0.944-0.314 0.082-1.553 0.123-3.064-1.575-2.837-0.9 0.59-1.02 3.31 0.63 3.15zm-15.44 0.63c0.492 0.454 0.621 1.27 1.894 0.945 0.374-0.904 0.658-1.672 0.312-2.521-1.46-0.21-1.72 0.79-2.2 1.57zm-11.98 0.31c0.262 0.89-0.441 0.815-0.313 1.575 0.919 0.61 1.562 0.296 2.206 0.631 0.418-0.527 0.836-1.055 0.631-2.206-0.75-0.74-1.56 0.05-2.53 0zm20.17 2.52c-0.008-0.743 0.541-0.929 0.315-1.892-0.771-0.278-1.156-0.944-2.521-0.629-0.74 1.46 0.06 3.02 2.2 2.52zm-25.53 0c0.006 0.626 0.859 0.4 0.631 1.261 1.065 0.016 1.365-0.733 1.891-1.261-0.141-0.912-0.664-1.437-1.577-1.577 0.24 1.08-1.27 0.41-0.94 1.58zm11.66-0.63c0.016 1.458 0.897 2.047 2.524 1.892-0.293-1.238 1.092-0.795 0.628-2.208-1.62 0-2.01-0.4-3.15 0.32zm24.27 5.36c0.621-0.096 0.626 0.426 0.944 0.631 0.062-0.467 0.764-0.29 1.262-0.315 0.077-1.547 0.251-2.062 0.315-4.098-0.402-0.017-0.437-0.404-0.946-0.315-0.49 1.41-1.28 2.5-1.57 4.11zm-21.43-2.52c-0.064 0.905 0.082 1.601 0.631 1.893 0.267-0.298 0.774-0.21 1.894-0.318 0.351-0.989 0.025-0.713 0-1.89-0.9 0.04-2.06-0.17-2.52 0.32zm-20.49 2.52c0.233-0.352 1.572 0.841 2.521 0-0.036-0.908 0.172-2.065-0.315-2.521-1.15 0.21-2.97 1.42-2.2 2.52zm28.06 0c1.324 0.934 2.737-0.282 2.52-1.891-1.15-1.41-2.51 0.32-2.52 1.89zm10.08 2.84c0.965-0.229 0.927 0.544 1.891 0.315-0.229-0.965 0.544-0.929 0.315-1.894-0.559-0.282-0.921-0.759-1.575-0.943-0.35 0.69-0.8 1.28-0.62 2.52zm-13.87 0.31c-0.229 0.964 0.321 1.148 0.315 1.891 1.739 0.269 2.319-0.624 2.52-1.891-0.91-1.19-1.54-0.09-2.83 0zm7.88-0.31c-1.785 2.763 2.307 3.301 2.521 0.315-0.45-0.48-1.61-0.27-2.52-0.31zm-15.44 3.47c1.429 1.342 2.581 1.265 3.469-0.631-0.809-0.562-1.258-1.476-2.524-1.578 0.08 1.13-0.95 1.15-0.95 2.21zm22.69 3.15c1.241 0.189 1.637-0.467 2.206-0.946-1.028-0.654 0.664-4.027-1.26-3.784-0.45 1.44-1.05 2.74-0.95 4.73zm-45.7-1.89c1.58-0.083 2.157-0.683 2.519-1.26 0.39-1.021-1.019-0.241-0.631-1.262h-2.206c-0.48 0.99-0.2 1.75 0.32 2.52zm18.91-0.64c0.774 1.047 1.747 0.293 2.524-0.312 0.11-2.24-2.76-1.73-2.52 0.31zm23.33 1.9c1.484-0.09 1.615-1.534 1.888-2.837-1.71-1.23-2.79 1.41-1.89 2.84zm-14.82 1.89c1.783 0.956 2.704-0.834 3.152-2.837h-2.208c-0.04 1.22-1.06 1.46-0.94 2.84zm5.36 2.52c0.741-0.006 0.926 0.543 1.891 0.315 0.271-1.201 0.854-2.088 0.631-3.784-2.06-0.08-2.87 2.1-2.52 3.47zm-23.64-2.21c-0.243 1.188 0.385 1.508 0.315 2.521h2.206c0.85-2.56-0.8-2.77-2.53-2.52zm30.89 3.16c-0.038-0.567 0.315-0.739 0.946-0.631-0.071-1.316 0.513-1.49 0-2.521-2.43-0.29-3.37 2.73-0.95 3.15zm-21.12-0.64c0.251-2.906-1.019-1.142-2.837-1.26 0.107 0.975-0.729 1.503 0 2.206 1.08-0.19 2.08-0.45 2.84-0.95zm1.58 1.58c0.729-0.098 0.352 0.908 0.949 0.944 0.063-0.38 0.349-0.195 0.628 0 0.478-0.913 1.46-2.562 0.631-3.781h-0.946c-0.08 1.29-1.07 1.66-1.26 2.84zm-24.904 0.32c1.193-0.457 0.605 0.866 1.578 0.631 0.279-0.667 1.344-0.549 1.259-1.575-0.246-0.072-0.366-0.267-0.315-0.631-0.456-0.487-1.613-0.277-2.521-0.315 0.007 0.62 0.007 1.24 0.007 1.88zm29.634 0.31c0.519 0.005 0.175 0.874 0.631 0.946 0.503 0.241 1.565 0.295 2.837-0.631 0.149-0.99-0.451-1.231-0.631-1.891-1.6-0.13-2.05 0.89-2.84 1.57zm-21.44 2.52c1.126 0.107 2.514-1.488 2.206-3.781-2.51-0.49-3.36 2.5-2.21 3.78zm38.46-1.26c0.056 0.888 0.546 1.345 1.574 1.263 0.528-1.35 1.678-3.671-0.631-3.781 0.16 1.31-0.72 1.59-0.94 2.52zm-6.62 0c-0.27 1.531 0.731 1.791 1.578 2.209 0.882-0.613 2.354-2.45 0.943-3.468-1.1 0.16-1.34 1.19-2.52 1.26zm-5.36 2.52c0.372 0.361 1.113 0.356 1.891 0.312 0.303-0.959 0.872-3.709-0.628-3.78-0.1 1.48-1.1 2.06-1.26 3.47zm-16.08 1.58c0.618-0.093 0.623 0.426 0.946 0.631 0.765-0.601 1.832-0.9 1.891-2.206-1.1-1.13-3.14-0.47-2.84 1.58zm10.4 1.57c1.375-0.743 2.547-0.112 2.837-2.206-1.42-2.09-4.58 0.06-2.84 2.21zm-14.81-1.57c-0.052 0.895 1.066 0.615 0.631 1.893h2.206c-0.339-1.026 0.172-2.903-0.944-3.155-0.51 0.85-0.87 0.57-1.9 1.27zm9.46 0c-0.041 0.776-0.049 1.519 0.315 1.893h1.575c-0.005-0.744 0.544-0.929 0.318-1.893-0.43-0.45-1.79-0.45-2.21 0zm20.8 4.41c0.131-0.536 0.408 0.067 0.946 0-0.336-1.175 1.18-0.497 0.944-1.574-0.975-0.288-0.252-2.271-1.575-2.206-0.21 1.22-1.76 2.76-0.31 3.78zm-5.36-2.84c-0.23 1.175-0.323 2.442 1.262 2.524 0.883-0.375 0.883-2.778 0-3.152-0.07 0.56-0.54 0.72-1.26 0.63zm-37.824 1.58c0.91 0.751 2.601 0.264 2.208-1.26-0.467-0.164-0.795-0.467-1.259-0.631-0.431 0.51-1.113 0.78-0.944 1.89zm32.474 1.26c0.364 0.268 0.844 0.416 1.574 0.315 0.867-0.936 0.274-1.834 0-3.152h-0.946c0.29 1.44-0.78 1.52-0.62 2.83zm-5.68 3.47c1.078-0.129 0.4-0.853 1.575-0.315 0.446-0.968 0.142-1.419-0.315-2.206h-1.26c-0.82 0.99-0.33 1.33 0 2.52zm11.35 1.26c0.875-0.39 1.521-1.001 1.26-2.524-0.369-0.361-1.113-0.354-1.889-0.312-0.36 1.29-0.22 2.06 0.63 2.83zm-19.23 0c1.298 1.221 2.17-0.344 2.519-0.946-0.806-0.246-0.533-1.567-1.575-1.578-0.16 1-1.29 1.02-0.94 2.53zm4.73 0c0.872-0.457 1.195-1.452 0.631-2.524h-1.575c-0.44 0.97-0.38 2.47 0.95 2.52zm-14.81-1.58c-0.577 2.06-0.257 3.955 1.574 4.414 0.914-0.872 0.591-2.983 0.632-4.73-1-0.15-1.11 0.58-2.2 0.32zm6.61 3.79c1.506-0.67 1.277-2.329 0.631-3.783h-0.946c-0.6 0.87-1.22 3.43 0.32 3.78zm17.34 0c0.733 0.697 0.844 0.276 1.575 0.631 0.185-0.662 0.782-0.9 0.631-1.894-0.842 0.003-0.683-0.995-1.575-0.943 0.31 1.25-0.94 0.94-0.63 2.2zm9.45 2.2c0.741-1.165 1.021-1.772 0.631-3.469-2.6-0.63-2.21 3.23-0.63 3.47zm-14.81 0.95c0.449-0.074 0.531-0.518 0.946-0.628 0.149-0.993-0.448-1.234-0.631-1.891h-1.575c-0.11 1.35-0.03 2.54 1.25 2.52zm10.72 2.52c1.932 0.144 2.378-1.195 2.209-3.152-0.55 0.022-0.982-0.069-1.263-0.315-0.74 1.04-1.42 2.02-0.95 3.47zm-23.64-0.63c1.044 1.226 2.491 1.162 3.152-0.631-0.566 0.041-0.738-0.313-0.631-0.944h-2.206c0.26 0.89-0.44 0.81-0.31 1.57zm20.17 2.52c0.811-0.344 1.282-1.029 1.574-1.891-0.751-0.195-0.518-1.375-1.893-0.946-0.33 0.84-0.59 2.43 0.32 2.84zm-21.43 2.52c0.914-0.862 0.793-2.638 0.632-3.781-3.18-0.65-2.97 3.61-0.63 3.78zm3.47-0.31c1.077 0.849 2.667 0.104 2.206-1.578h-1.894c0.12 0.76-0.59 0.69-0.32 1.58zm2.83 4.72c0.511 1.067 1.213 1.939 3.152 1.575-0.235-0.97 0.867-0.605 0.631-1.575-0.49-1.68-2.37-0.09-3.78 0.01zm-5.04 0.64c-0.229 0.964 0.323 1.148 0.315 1.89 0.836-0.002 1.801 0.121 2.206-0.315v-1.574c-0.72-0.2-1.9-0.63-2.52 0zm4.09 4.09c-0.107 2.632 1.534 1.946 2.837 2.206 0.318-0.818 0.554-2.114-0.313-2.524-0.18 0.33-1.83-0.27-2.53 0.31zm7.25 0.32c-0.228 0.965 0.321 1.149 0.315 1.894 1.621 0.148 2.768-0.175 3.15-1.263-0.667-0.384-0.913-1.185-1.891-1.262 0.34 1.06-0.97 0.49-1.57 0.63zm-49.796 7.56c-0.031-1.862-0.78-3.007-2.523-3.155-0.331 2.24 0.84 3.91 2.523 3.16zm11.976 3.79c-0.047-1.52 1.588-1.354 1.26-3.153-1.563-2.28-3.983 2.85-1.26 3.15zm6.62 0.94c0.657 0.185 1.019 0.664 1.575 0.946 1.083-1.049 0.99-2.688-0.315-3.465-0.409 0.84-1.401 1.11-1.26 2.51zm46.65-0.63c-0.621 1.182 0.429 1.916 1.575 2.205 0.066-0.382 0.349-0.192 0.631 0-0.049-0.782 0.495-0.977 0.631-1.577-0.579-0.47-0.785-1.313-1.575-1.575 0.28 1.03-1.03 0.46-1.26 0.96zm-6.94 2.21c0.626 0.003 0.402 0.859 1.262 0.632 0.724-0.329 0.651-1.449 1.893-1.263-0.39-2.26-3.51-2.44-3.15 0.63zm-53.263 2.2c0.405-0.434 0.651-0.084 1.575 0-0.254-1.2 0.925-0.967 0.947-1.891-1.053-0.672-1.542-0.271-2.521-0.631-0.697 0.48-0.932 2.09-0.001 2.52zm64.613 2.84h1.575c0.256-0.962 1.159-2.393 0.317-3.465-1.94 0.16-3.02 1.96-1.89 3.47zm-57.995-0.63h0.945c0.645-0.564 0.09-1.165 1.26-0.631 0.164-1.529-0.831-1.901-2.205-1.894-0.362 0.88-0.362 1.64 0 2.52zm51.375 4.41c0.021-1.062 0.719-0.057 1.263-0.947 0.117-1.484-0.026-2.706-1.578-2.521-1.09 1.08-1.12 2.72 0.32 3.47zm-43.181-1.89c0.203 1.165 1.08 1.654 2.209 1.894-0.052-0.893 0.943-0.734 0.943-1.578-0.921-0.233-0.61-1.7-1.893-1.574-0.133 0.7-0.553 1.12-1.259 1.26zm33.731 3.47c0.866 0.678 1.312-0.182 2.205 0.315 0.411-2.146 0.683-4.327-1.262-5.042-0.66 1.24-1.11 3.63-0.94 4.73zm-45.707-3.78c-0.11 1.58 0.782 2.157 1.891 2.519-0.236-0.97 1.086-0.382 0.631-1.575-0.666-0.279-0.548-1.344-1.576-1.262-0.053 0.36-0.499 0.33-0.946 0.31zm58.937 1.89c0.418 0.844 0.677 1.844 2.206 1.574 0.852-1.218 0.382-1.854 0.631-3.465-1.72-0.99-2.19 0.88-2.84 1.9zm-35.93-0.32c0.739 0.103 0.308 1.374 0.944 1.574 0.405-0.434 0.651-0.082 1.577 0 0.2-1.06 1.537-0.984 1.26-2.521-0.595-0.559-2.08-0.229-3.15-0.315 0.36 0.99-0.49 0.77-0.63 1.26zm-13.864 3.47c-0.098-0.621 0.423-0.626 0.628-0.947-0.648-1.243-1.29-2.49-2.837-2.837 0.233 1.77 0.354 3.65 2.209 3.79zm22.694-1.58c0.893-0.259 0.818 0.444 1.577 0.315 0.711-0.569 0.741-1.59 0.315-2.521-1.74-0.36-2.04 0.7-1.89 2.21zm32.78 3.47c1.144-0.223 0.437-2.295 0.631-3.468-2.69-0.8-2.25 3.41-0.63 3.47zm3.47 1.58c0.695-1.254-0.092-2.255 0-3.78-2.62-0.08-2.34 4.66 0 3.78zm3.46 0c0.97 0.236 0.605-0.864 1.575-0.628 0.241-1.19-0.385-1.509-0.315-2.524-1.96-0.38-2.31 2.35-1.26 3.15zm-14.81 1.26c0.271 1.205 2.719 1.934 3.152 0.315-1.052-1.219-0.11-1.955 0.315-3.153-0.554-0.284-0.521-1.161-1.262-1.259-0.75 1.35-1.19 3.01-2.21 4.09zm-32.15-2.84c-0.226 0.963 0.323 1.147 0.318 1.891 1.339 0.185 2-0.308 2.206-1.262-0.385-0.664-1.219-0.883-1.894-1.26-0.05 0.38-0.1 0.75-0.64 0.63zm-7.883 2.84c0.97 0.22 0.605 0.22 1.577 0 0.244-1.188-0.385-1.506-0.315-2.521h-1.262c-0.108 1.13-0.483 1.51-0.001 2.52zm35.933 0.94c3.291 0.923 2.998-3.53 0.631-3.468-0.16 1.35-1.49 2-0.63 3.47zm-14.18-0.94c-0.397-0.131-0.644-0.408-0.628-0.947-5.96-0.41 0.16 5.69 0.63 0.95zm22.69 3.15c1.213 0.197 1.487 0.623 1.893 0.312 1.031-0.785 1.455-3.55 0-4.097-0.51 1.38-1.9 1.89-1.89 3.79zm-14.18 0.63c1.064-1.093 0.313-2.693-0.315-3.783-0.964 0.228-1.149-0.323-1.893-0.316-0.27 2.38 0.13 4.08 2.21 4.1zm17.96 0c0.924 0.282 0.967 0.282 1.891 0-0.005-1.678 0.098-3.463-1.575-3.468-0.2 1.24-0.94 2.29-0.32 3.47zm4.42-0.63c0.739 0.1 1.181 0.497 2.206 0.312-0.038-0.908 0.17-2.062-0.317-2.519-1.92-0.2-2.3 0.84-1.89 2.21zm-40.35 2.52h1.577c0.711-1.569 0.293-3.835-1.891-3.466 0.1 1.16-0.27 2.79 0.31 3.47zm43.81-2.21c-0.054 1.104 0.085 2.019 0.631 2.524 0.074-0.813 0.541 0.431 1.26 0-0.229-0.862 0.626-0.637 0.631-1.263-0.467-0.267-0.677-0.792-0.631-1.574-0.77-0.04-1.51-0.05-1.89 0.31zm-15.76 4.42c0.962 0.229 1.149-0.322 1.891-0.315 0.03-1.292 0.062-2.585-0.313-3.468-0.759 0.129-0.688-0.574-1.577-0.312 0.43 2.14-1.18 2.9 0 4.1zm-20.17-1.26c0.764 0.393 1.098 1.216 2.523 0.946 0.61-1.115-0.01-1.82 0-3.152h-1.574c0.48 1.52-0.92 1.18-0.95 2.2zm31.21 2.2c0.046-0.706 0.795 0.407 1.575 0 0.221-1.283 0.785-2.709 0.315-3.784h-1.577c-0.15 1.48-1.55 2.68-0.32 3.78zm-46.97-2.83c0.174 0.456-0.367 1.626 0.317 1.574 0.632 0.272 1.25 0.645 1.891 0.944 0.036-0.385 0.096-0.744 0.629-0.629 0.12-1.484-0.564-2.167-1.575-2.521-0.09 0.56-0.55 0.72-1.27 0.64zm39.4 2.52c1.397 0.347 1.569-0.533 2.523-0.629 0.555 0.424-0.518 1.824 0.313 2.521h1.577c0.334-1.057-0.115-2.96-0.315-4.411-1.947 0.764-1.632-0.067-4.099 0 0.01 0.84 0.01 1.68 0.01 2.52zm-9.14-1.58c-0.126 2.979 0.998 2.147 2.521 1.894v-1.894c-0.99-0.54-1.66-0.68-2.52 0zm22.06 2.52c0.48-5.25-4.9 0.13 0 0zm-25.53 1.89c0.129-0.536 0.405 0.066 0.944 0 0.036-0.385 0.095-0.744 0.631-0.628 0.052-1.84-1.074-2.499-2.206-3.153-0.071 0.244-0.01 0.621-0.315 0.632 0.003-0.175-0.254-0.359-0.315 0 0.58 1.07-0.16 2.5 1.28 3.15zm-19.54-2.83v1.577c1.544 1.211 2.917 0.162 3.152-1.577-1.318-0.226-1.246 0.115-1.893-0.629 0.32 0.94-0.7 0.55-1.26 0.63zm11.35 4.73c0.744-0.008 0.929 0.543 1.893 0.312 0.326-0.826 0.377-1.934 0.315-3.15-1.87-0.19-2.28 1.09-2.21 2.84zm20.8 1.26c0-0.174 0.256-0.356 0.317 0 1.586-0.095 1.263-2.101 1.26-3.78h-1.891c-0.1 1.4-0.72 2.9 0.31 3.78zm-2.52 0.94c0.241-1.618-0.549-2.396 0-3.468-0.528-0.418-1.057-0.836-2.206-0.631 0.78 1.65-1.06 4.59 2.21 4.1zm-7.57-1.89c-1.118 2.944 3.319 3.021 2.523 1.262-0.697 0.675-0.415-2.301-1.893-1.891-0.03 0.38-0.09 0.75-0.63 0.63zm14.5 3.47c0.531-1.467 0.062-3.837-1.891-3.78-0.11 2-0.12 3.9 1.89 3.78z"></path> <path style="clip-rule:evenodd;fill-rule:evenodd" d="m121.08 219.25h1.574c-0.01 1.332 0.61 2.037 0 3.152-1.426 0.27-1.76-0.554-2.523-0.946 0.03-1.01 1.43-0.67 0.95-2.2z"></path> <metadata></metadata></svg> 