<?xml version="1.0" encoding="UTF-8" standalone="no"?> <!-- Generator: Adobe Illustrator 13.0.2, SVG Export Plug-In . SVG Version: 6.00 Build 14948) --> <svg xmlns:rdf="http://www.w3.org/1999/02/22-rdf-syntax-ns#" xmlns="http://www.w3.org/2000/svg" xmlns:cc="http://web.resource.org/cc/" xmlns:xlink="http://www.w3.org/1999/xlink" xmlns:dc="http://purl.org/dc/elements/1.1/" xmlns:svg="http://www.w3.org/2000/svg" xmlns:inkscape="http://www.inkscape.org/namespaces/inkscape" xmlns:sodipodi="http://sodipodi.sourceforge.net/DTD/sodipodi-0.dtd" xmlns:ns1="http://sozi.baierouge.fr" id="Layer_1" style="enable-background:new 0 0 419.903 113.328" xml:space="preserve" viewBox="0 0 419.903 113.328" y="0px" x="0px"> <path d="m138.08 43.712c17.188 7.183 35.746 12.221 56.653 15.364 3.446 0.52 6.614 1.505 10.083 1.921 3.34 0.397 6.874-0.254 10.562 0 5.313 0.362 10.658 1.413 15.844 1.919 16.714 1.635 31.412 1.727 45.133 3.361 10.221 1.218 20.121 2.304 29.768 2.882 9.752 0.582 19.15 1.327 28.326 2.88 8.52-7.646 16.32-14.827 32.168-16.805 6.736-0.84 16.166 0.047 24.482-0.48 6.865-0.435 18.447-4.027 23.047-1.92 5.355 2.453 5.779 15.05 5.762 21.125-0.037 13.118-2.078 26.771-5.279 36.009-22.117 0.201-44.549-3.122-65.775-6.723-6.402-3.36-11.486-8.037-16.324-12.962-24.59-1.033-48.51-4.766-72.018-6.723-5.446-0.453-10.92-0.412-16.323-0.961-15.132-1.531-32.418-2.504-48.492-4.801-15.686-2.24-30.038-5.464-44.65-9.121-4.422-1.106-8.578-3.066-12.963-3.841-0.991 12.042-5.102 25.322-8.162 35.047-9.704 1.915-19.758 0.722-29.767 0.962-18.767 0.449-37.235 2.547-54.733 5.28-9.073 1.416-18.127 2.42-25.926 4.319-2.659 0.647-5.5 2.906-8.161 2.882-3.775-0.033-6.763-2.872-9.603-4.802-0.672-23.135-0.96-62.846-0.96-91.221 0-2.065-1.332-8.233-0.479-11.042 1.642-5.425 10.394-6.442 17.282-6.247 9.676 0.273 19.761 2.007 30.247 2.4 12.239 0.459 25.962 0.52 37.449 1.441 15.236 1.221 29.968 0.562 44.169 0.96 2.639 1.627 2.952 5.204 3.842 8.162 2.55 8.496 4.6 19.478 4.8 30.729zm-22.09-36.969c-2.111 0.061-4.198 0.999-6.242 0.96-1.605-0.029-3.446-0.843-5.281-0.96-5.54-0.354-11.964 0.095-17.765-0.479-0.905-0.09-2.376-0.916-3.36-0.961-0.857-0.039-1.561 0.875-2.401 0.961-1.015 0.104-2.531-0.465-3.361-0.48-6.155-0.118-13.313-0.723-20.165-0.96-5.511-0.19-11.061-0.854-14.882-0.96-0.827-0.023-1.402 0.938-2.401 0.96-1.742 0.038-3.646-0.837-5.761-0.96-7.56-0.44-19.584-0.068-24.486-0.96-0.935-0.17-5.628 2.394-3.36 2.88 0.148 1.872 2.398 0.753 3.36 0.96 3.523 0.759 6.699 2.067 10.083 2.881 9.353 2.249 19.125 3.812 29.767 5.281 8.104 1.119 13.568 1.666 20.165 2.4 4.893 0.545 10.418 1.02 15.843 1.44 6.302 0.489 21.242 5.489 25.926 1.92 1.837-1.399 2.951-2.588 4.802-3.841 4.392-2.971 9.543-6.111 12.003-9.603-5.11-0.11-9.48-0.564-12.48-0.479zm-112.34 100.35c29.828-13.47 66.892-25.147 105.62-24.01 0.643-6.237 2.132-11.631 2.88-17.764-4.133-1.619-8.228-2.92-13.443-4.801-3.016-1.088-12.121-2.535-11.522-6.722 0.273-1.912 3.148-2.555 5.282-3.361 6.697-2.528 14.396-3.927 19.684-6.721-0.493-7.029-2.384-12.659-2.88-19.684-36.141-4.44-74.097-6.733-106.58-16.804 1.121 26.357 2.072 68.536 0.965 99.867zm107.06-83.543c0.622 4.662 1.66 8.904 3.361 12.483-1.815 1.475-0.515 5.195 0 7.201 7.196-2.405 14.294-4.91 21.125-7.682-0.48-5.98-1.732-11.552-2.88-16.804-0.704-3.211-1.078-6.981-3.361-9.122-6.04 4.69-12.59 8.863-18.25 13.924zm24.01 13.923c-12.953 4.654-26.448 9.911-39.369 14.404-2.356 0.819-5.272 0.096-6.722 2.88 3.546 1.989 7.667 2.477 11.523 3.841 11.505 4.07 23.317 8.212 35.048 12.001 0.589-11.406 2.259-21.017 0.479-33.126h-0.96zm2.88 24.486c55.745 19.372 131.94 18.177 196.36 26.407 1.75 1.522 2.902 3.707 4.803 5.279 8.531 7.062 17.871 7.896 31.688 9.603 10.32 1.276 21.012 2.882 32.168 3.841 3.646 0.314 8.371 2.288 10.082-0.48-0.32-1.371-2.254-0.483-2.881-0.479-8.879 0.068-17.314-2.345-25.445-3.361-2.324-0.289-5.152 0.034-6.723-0.479-3.475-1.136-8.135-6.011-9.604-9.603-4.889-11.963 4.027-22.365 13.443-23.524 2.992-0.371 7.004 0.018 10.562 0 4.99-0.027 11.531-0.164 13.441 0 4.734 0.397 7.445-0.82 10.562-1.923-1.43 4.174-7.697 3.506-12.002 4.803 1.012 8.889-1.252 19.297-2.4 28.809 3.75 1.211 6.998 2.922 11.043 3.84 3.348-10.136 5.023-25.561 4.32-41.291-2.275 0.15-2.742 1.931-5.762 2.4-3.879 0.605-9.172-0.6-13.924-0.959-4.857-0.369-10.064-0.609-14.402-0.961-9.078-0.734-17.5-1.825-25.445 0-6.139 1.41-12.115 4.721-16.324 8.162-2.781 2.273-3.934 6.355-7.684 7.201 0.115-3.085 3.422-2.981 3.363-6.24-21.059 0.162-42.535-2.97-64.336-4.802-19.607-1.649-39.229-2.718-59.055-4.321-13.32-1.078-26.824-3.146-39.369-6.242-11.898-2.935-23.199-7.041-34.568-11.042-0.284-0.101-0.666 0.077-0.959 0 0.14 5.319-1.4 11.353-0.96 15.371zm233.33-1.438c6.354 0.047 13.654 1.387 22.086 1.918 6.484 0.41 23.271 4.463 22.084-3.84-0.57-4.006-5.926-3.171-12.004-2.881-20.266 0.967-42.957-0.328-56.65 8.162-0.48 0.297-0.889 1.527-1.439 1.92-2.83 1.999-5.547 3.52-7.203 6.242-0.293 0.027-0.568 0.07-0.48 0.48 8.67-4.739 15.99-12.13 33.6-12.001zm-260.22 24.485c5.58 4.821 11.28 9.522 17.284 13.921 2.68-7.881 4.651-16.473 6.722-24.965-5.99-3.771-14.481-5.044-21.125-8.162-0.36 6.988-2.06 12.651-2.87 19.206zm259.26 4.319c8.139 5.228 19.105 5.812 30.248 7.203 1.336-5.525 1.822-11.59 1.92-17.285 0.047-2.737 0.764-6.123-0.961-7.201-13.89 0.352-32.9-0.256-31.21 17.283zm-253.98 1.92c-2.339-1.854-6.715-6.122-9.123-6.721-6.37-1.586-13.625 0.886-18.244 1.439-6.998 0.842-13.873 1.125-20.645 2.4-22.679 4.27-43.407 11.746-61.454 19.685 0.912 1.169 3.294 0.866 3.84 2.399 33.703-8.53 72.233-12.612 113.78-11.997-2.03-2.854-5.1-4.774-8.16-7.201zm260.22 7.682c1.281 0.855 3.748 1.975 5.762 2.401 7.301 1.551 17.105 2.104 23.523 2.882-1.418-1.302-3.883-1.559-5.76-2.4-0.477-1.881 1.061-2.789 0-3.842-11.105-0.898-21.768-2.236-29.768-6.242 0.68 3.552 3.9 5.643 6.25 7.208z"></path> <metadata></metadata></svg> 