<?xml version="1.0" encoding="UTF-8" standalone="no"?> <!-- Created with Inkscape (http://www.inkscape.org/) --> <svg xmlns:inkscape="http://www.inkscape.org/namespaces/inkscape" xmlns:rdf="http://www.w3.org/1999/02/22-rdf-syntax-ns#" xmlns="http://www.w3.org/2000/svg" xmlns:sodipodi="http://sodipodi.sourceforge.net/DTD/sodipodi-0.dtd" xmlns:cc="http://web.resource.org/cc/" xmlns:xlink="http://www.w3.org/1999/xlink" xmlns:dc="http://purl.org/dc/elements/1.1/" xmlns:svg="http://www.w3.org/2000/svg" xmlns:ns1="http://sozi.baierouge.fr" id="svg2" sodipodi:docname="worm.svg" inkscape:export-filename="/home/carlos/Documents/worm.png" viewBox="0 0 637.8 425.2" sodipodi:version="0.32" inkscape:export-xdpi="139.91167" inkscape:output_extension="org.inkscape.output.svg.inkscape" inkscape:export-ydpi="139.91167" inkscape:version="0.45.1" sodipodi:docbase="/home/carlos/Documents"><defs id="defs4"><linearGradient id="linearGradient5048"><stop id="stop5050" style="stop-color:#fae4c0" offset="0"></stop><stop id="stop5052" style="stop-color:#8f5902" offset="1"></stop></linearGradient><linearGradient id="linearGradient4169"><stop id="stop4171" style="stop-color:#dfdfdb" offset="0"></stop><stop id="stop4173" style="stop-color:#ffffff" offset="1"></stop></linearGradient><linearGradient id="linearGradient4131"><stop id="stop4133" style="stop-color:#73d216" offset="0"></stop><stop id="stop4135" style="stop-color:#4e9a06" offset="1"></stop></linearGradient><filter id="filter4865" height="1.5452" width="1.2706" y="-.27260" x="-.13528" inkscape:collect="always"><feGaussianBlur id="feGaussianBlur4867" stdDeviation="3.440573" inkscape:collect="always"></feGaussianBlur></filter><filter id="filter4875" height="1.5463" width="1.2711" y="-.27317" x="-.13556" inkscape:collect="always"><feGaussianBlur id="feGaussianBlur4877" stdDeviation="3.4477669" inkscape:collect="always"></feGaussianBlur></filter><filter id="filter5033" height="2.2028" width="1.3734" y="-.60138" x="-.18669" inkscape:collect="always"><feGaussianBlur id="feGaussianBlur5035" stdDeviation="3.8785026" inkscape:collect="always"></feGaussianBlur></filter><filter id="filter5039" height="2.2005" width="1.3727" y="-.60026" x="-.18634" inkscape:collect="always"><feGaussianBlur id="feGaussianBlur5041" stdDeviation="3.8712677" inkscape:collect="always"></feGaussianBlur></filter><filter id="filter5749" height="1.685" width="1.4878" y="-.34252" x="-.24392" inkscape:collect="always"><feGaussianBlur id="feGaussianBlur5751" stdDeviation="1.309236" inkscape:collect="always"></feGaussianBlur></filter><filter id="filter5817" height="1.6455" width="1.4597" y="-.32276" x="-.22985" inkscape:collect="always"><feGaussianBlur id="feGaussianBlur5819" stdDeviation="1.2337032" inkscape:collect="always"></feGaussianBlur></filter><filter id="filter6055" height="1.4243" width="1.35" y="-.21214" x="-.17499" inkscape:collect="always"><feGaussianBlur id="feGaussianBlur6057" stdDeviation="1.0620088" inkscape:collect="always"></feGaussianBlur></filter><filter id="filter6120" height="1.3498" width="1.065" y="-.17489" x="-.032486" inkscape:collect="always"><feGaussianBlur id="feGaussianBlur6122" stdDeviation="7.5786799" inkscape:collect="always"></feGaussianBlur></filter><filter id="filter6156" height="1.263" width="1.263" y="-.13151" x="-.13151" inkscape:collect="always"><feGaussianBlur id="feGaussianBlur6158" stdDeviation="7.3059366" inkscape:collect="always"></feGaussianBlur></filter><filter id="filter6224" height="1.2596" width="1.2637" y="-.12979" x="-.13185" inkscape:collect="always"><feGaussianBlur id="feGaussianBlur6226" stdDeviation="7.2706557" inkscape:collect="always"></feGaussianBlur></filter><radialGradient id="radialGradient2379" xlink:href="#linearGradient4131" gradientUnits="userSpaceOnUse" cy="665.23" cx="170.01" gradientTransform="matrix(1.397 0 0 1.1379 -67.492 -91.758)" r="68.417" inkscape:collect="always"></radialGradient><radialGradient id="radialGradient2405" gradientUnits="userSpaceOnUse" cy="665.23" cx="170.01" gradientTransform="matrix(1.873 0 0 1.4714 -148.43 -313.57)" r="68.417" inkscape:collect="always"><stop id="stop4185" style="stop-color:#ad7fa8" offset="0"></stop><stop id="stop4187" style="stop-color:#75507b" offset="1"></stop></radialGradient><radialGradient id="radialGradient2411" xlink:href="#linearGradient4131" gradientUnits="userSpaceOnUse" cy="674.09" cx="200.68" gradientTransform="matrix(1.397 0 0 1.1379 -67.492 -91.758)" r="68.417" inkscape:collect="always"></radialGradient><linearGradient id="linearGradient2420" y2="681.99" spreadMethod="reflect" gradientUnits="userSpaceOnUse" x2="469.57" gradientTransform="translate(96.334 -447.65)" y1="692.35" x1="407.57" inkscape:collect="always"><stop id="stop5071" style="stop-color:#000000" offset="0"></stop><stop id="stop5073" style="stop-color:#000000;stop-opacity:0" offset="1"></stop></linearGradient><radialGradient id="radialGradient2430" xlink:href="#linearGradient5048" gradientUnits="userSpaceOnUse" cy="596.78" cx="432.2" gradientTransform="matrix(.29376 -.19596 .12778 .19155 325.53 127.78)" r="19.969" inkscape:collect="always"></radialGradient><linearGradient id="linearGradient2433" y2="523.64" xlink:href="#linearGradient4169" gradientUnits="userSpaceOnUse" x2="598.68" gradientTransform="matrix(-1 0 0 1 1130.9 -378.96)" y1="542.32" x1="576.33" inkscape:collect="always"></linearGradient><radialGradient id="radialGradient2438" xlink:href="#linearGradient5048" gradientUnits="userSpaceOnUse" cy="588.78" cx="358.47" gradientTransform="matrix(.28870 -.18738 .12354 .19034 289.12 113.25)" r="19.969" inkscape:collect="always"></radialGradient><linearGradient id="linearGradient2441" y2="529.19" xlink:href="#linearGradient4169" gradientUnits="userSpaceOnUse" x2="618.38" gradientTransform="translate(-123.88 -378.96)" y1="543.84" x1="570.84" inkscape:collect="always"></linearGradient></defs><g id="layer1" inkscape:label="Layer 1" inkscape:groupmode="layer" transform="translate(-34.533 -10.652)"><g id="g2465"><path id="path6071" sodipodi:nodetypes="csscssscsc" style="opacity:.21461;filter:url(#filter6120);fill:#2e3436" d="m104.72 292.02c-46.568 0.05-49.081 9.77-49.891 17.54-1.523 14.62 92.341 48.69 218.66 61.86 43.53 4.53 84.37 7.33 119.28 8.5 11.19 19.11 54.35 33.37 105.85 33.37 59.98 0 108.68-19.35 108.68-43.19 0-23.83-48.7-43.18-108.68-43.18-29.7 0-56.6 4.75-76.22 12.43-38.96-7.79-88.81-15.22-143.38-20.9-59.21-6.17-133.21-26.47-174.3-26.43z"></path><path id="path6067" sodipodi:rx="66.666672" sodipodi:ry="66.666672" style="stroke-linejoin:round;stroke:#2e3436;stroke-linecap:round;stroke-width:2.824;fill:url(#radialGradient2379)" sodipodi:type="arc" d="m263.81 692.36a66.667 66.667 0 1 1 -133.33 0 66.667 66.667 0 1 1 133.33 0z" transform="matrix(.56023 0 0 .56023 -19.27 -124.71)" sodipodi:cy="692.36218" sodipodi:cx="197.14285"></path><path id="path6162" sodipodi:rx="66.666672" sodipodi:ry="66.666672" style="opacity:0.365;filter:url(#filter6224);fill:#2e3436" sodipodi:type="arc" d="m263.81 692.36a66.667 66.667 0 1 1 -133.33 0 66.667 66.667 0 1 1 133.33 0z" transform="matrix(.62955 .26285 -.27683 .54623 194.62 -146.47)" sodipodi:cy="692.36218" sodipodi:cx="197.14285"></path><path id="path4161" sodipodi:rx="66.666672" sodipodi:ry="66.666672" style="stroke-linejoin:round;stroke:#2e3436;stroke-linecap:round;stroke-width:2.824;fill:url(#radialGradient2379)" sodipodi:type="arc" d="m263.81 692.36a66.667 66.667 0 1 1 -133.33 0 66.667 66.667 0 1 1 133.33 0z" transform="matrix(.70823 0 0 .70823 -2.388 -209.9)" sodipodi:cy="692.36218" sodipodi:cx="197.14285"></path><path id="path6160" sodipodi:rx="66.666672" sodipodi:ry="66.666672" style="opacity:.36530;filter:url(#filter6156);fill:#2e3436" sodipodi:type="arc" d="m263.81 692.36a66.667 66.667 0 1 1 -133.33 0 66.667 66.667 0 1 1 133.33 0z" transform="matrix(.83424 0 0 .72738 12.225 -216.59)" sodipodi:cy="692.36218" sodipodi:cx="197.14285"></path><path id="path3144" sodipodi:rx="66.666672" sodipodi:ry="66.666672" style="stroke-linejoin:round;stroke:#2e3436;stroke-linecap:round;stroke-width:2.509;fill:url(#radialGradient2379)" sodipodi:type="arc" d="m263.81 692.36a66.667 66.667 0 1 1 -133.33 0 66.667 66.667 0 1 1 133.33 0z" transform="matrix(.79713 0 0 .79713 30.593 -265.39)" sodipodi:cy="692.36218" sodipodi:cx="197.14285"></path><path id="path6124" sodipodi:rx="66.666672" sodipodi:ry="66.666672" style="opacity:.36530;filter:url(#filter6156);fill:#2e3436" sodipodi:type="arc" d="m263.81 692.36a66.667 66.667 0 1 1 -133.33 0 66.667 66.667 0 1 1 133.33 0z" transform="matrix(.85714 0 0 .81898 59.107 -275.94)" sodipodi:cy="692.36218" sodipodi:cx="197.14285"></path><path id="path4141" sodipodi:rx="66.666672" sodipodi:ry="66.666672" style="stroke-linejoin:round;stroke:#2e3436;stroke-linecap:round;stroke-width:2.3926;fill:url(#radialGradient2379)" sodipodi:type="arc" d="m263.81 692.36a66.667 66.667 0 1 1 -133.33 0 66.667 66.667 0 1 1 133.33 0z" transform="matrix(.83592 0 0 .83592 69.397 -290.22)" sodipodi:cy="692.36218" sodipodi:cx="197.14285"></path><path id="path6228" sodipodi:rx="66.666672" sodipodi:ry="66.666672" style="opacity:.28310;filter:url(#filter6156);fill:#2e3436" sodipodi:type="arc" d="m263.81 692.36a66.667 66.667 0 1 1 -133.33 0 66.667 66.667 0 1 1 133.33 0z" transform="matrix(.85714 0 0 .78312 102.87 -248.73)" sodipodi:cy="692.36218" sodipodi:cx="197.14285"></path><path id="path4145" sodipodi:rx="66.666672" sodipodi:ry="66.666672" style="stroke-linejoin:round;stroke:#2e3436;stroke-linecap:round;stroke-width:2.277;fill:url(#radialGradient2379)" sodipodi:type="arc" d="m263.81 692.36a66.667 66.667 0 1 1 -133.33 0 66.667 66.667 0 1 1 133.33 0z" transform="matrix(.87836 0 0 .87836 109.52 -319.6)" sodipodi:cy="692.36218" sodipodi:cx="197.14285"></path><path id="path6230" sodipodi:rx="66.666672" sodipodi:ry="66.666672" style="opacity:.24201;filter:url(#filter6156);fill:#2e3436" sodipodi:type="arc" d="m263.81 692.36a66.667 66.667 0 1 1 -133.33 0 66.667 66.667 0 1 1 133.33 0z" transform="matrix(.85714 0 0 .85714 149.69 -304.91)" sodipodi:cy="692.36218" sodipodi:cx="197.14285"></path><path id="path4149" sodipodi:rx="66.666672" sodipodi:ry="66.666672" style="stroke-linejoin:round;stroke:#2e3436;stroke-linecap:round;stroke-width:2.2233;fill:url(#radialGradient2379)" sodipodi:type="arc" d="m263.81 692.36a66.667 66.667 0 1 1 -133.33 0 66.667 66.667 0 1 1 133.33 0z" transform="matrix(.89958 0 0 .89958 151.82 -336.33)" sodipodi:cy="692.36218" sodipodi:cx="197.14285"></path><path id="path6232" sodipodi:rx="66.666672" sodipodi:ry="66.666672" style="opacity:.24201;filter:url(#filter6156);fill:#2e3436" sodipodi:type="arc" d="m263.81 692.36a66.667 66.667 0 1 1 -133.33 0 66.667 66.667 0 1 1 133.33 0z" transform="matrix(.85714 0 0 .78844 197.52 -266)" sodipodi:cy="692.36218" sodipodi:cx="197.14285"></path><path id="path4151" sodipodi:rx="66.666672" sodipodi:ry="66.666672" style="stroke-linejoin:round;stroke:#2e3436;stroke-linecap:round;stroke-width:2.3333;fill:url(#radialGradient2379)" sodipodi:type="arc" d="m263.81 692.36a66.667 66.667 0 1 1 -133.33 0 66.667 66.667 0 1 1 133.33 0z" transform="matrix(.85714 0 0 .85714 208.67 -319.07)" sodipodi:cy="692.36218" sodipodi:cx="197.14285"></path><path id="path6234" sodipodi:rx="66.666672" sodipodi:ry="66.666672" style="opacity:.24201;filter:url(#filter6156);fill:#2e3436" sodipodi:type="arc" d="m263.81 692.36a66.667 66.667 0 1 1 -133.33 0 66.667 66.667 0 1 1 133.33 0z" transform="matrix(.85714 0 0 .75791 246.37 -259.11)" sodipodi:cy="692.36218" sodipodi:cx="197.14285"></path><path id="path4153" sodipodi:rx="66.666672" sodipodi:ry="66.666672" style="stroke-linejoin:round;stroke:#2e3436;stroke-linecap:round;stroke-width:2.3333;fill:url(#radialGradient2379)" sodipodi:type="arc" d="m263.81 692.36a66.667 66.667 0 1 1 -133.33 0 66.667 66.667 0 1 1 133.33 0z" transform="matrix(.85714 0 0 .85714 257.16 -335.23)" sodipodi:cy="692.36218" sodipodi:cx="197.14285"></path><path id="path6238" sodipodi:rx="66.666672" sodipodi:ry="66.666672" style="opacity:.24201;filter:url(#filter6156);fill:#2e3436" sodipodi:type="arc" d="m263.81 692.36a66.667 66.667 0 1 1 -133.33 0 66.667 66.667 0 1 1 133.33 0z" transform="matrix(.85714 0 0 .75791 293.19 -287.6)" sodipodi:cy="692.36218" sodipodi:cx="197.14285"></path><path id="path4165" sodipodi:rx="66.666672" sodipodi:ry="66.666672" style="stroke-linejoin:round;stroke:#2e3436;stroke-linecap:round;stroke-width:1.2969;fill:url(#radialGradient2379)" sodipodi:type="arc" d="m263.81 692.36a66.667 66.667 0 1 1 -133.33 0 66.667 66.667 0 1 1 133.33 0z" transform="matrix(1.5422 0 0 1.5422 194.84 -884.26)" sodipodi:cy="692.36218" sodipodi:cx="197.14285"></path><path id="path4871" sodipodi:nodetypes="czzzz" style="opacity:0.61;filter:url(#filter4865);fill:#4e9a06" transform="matrix(-1.0993 0 0 1 944.18 -449.93)" d="m336.87 579.15c2.7-14.9 15.38-24.95 26.98-25.85 11.6-0.89 33.54 2.95 33.49 13.88-0.04 10.94-7.02-1.14-31.91-1.27-24.88-0.13-31.24 28.1-28.56 13.24z"></path><path id="path4869" style="opacity:0.61;filter:url(#filter4865);fill:#4e9a06" sodipodi:nodetypes="czzzz" transform="matrix(1.0993 0 0 1 62.941 -449.93)" d="m336.87 579.15c2.7-14.9 15.38-24.95 26.98-25.85 11.6-0.89 33.54 2.95 33.49 13.88-0.04 10.94-7.02-1.14-31.91-1.27-24.88-0.13-31.24 28.1-28.56 13.24z"></path><path id="path3150" style="stroke-linejoin:round;stroke:#2e3436;stroke-linecap:round;stroke-width:2;fill:url(#linearGradient2441)" d="m469.71 121.99c-15.38 0-27.88 16.29-27.88 36.4 0 7.42 1.71 14.34 4.63 20.1 4.49-1.21 9.15-2.25 13.96-3.1 12.23-2.14 24.03-2.79 34.72-2.15 1.55-4.54 2.41-9.57 2.41-14.85 0-20.11-12.47-36.4-27.84-36.4z"></path><path id="path3157" style="stroke-linejoin:round;stroke:#2e3436;stroke-linecap:round;stroke-width:2;fill:url(#radialGradient2438)" d="m472.25 148.61c-10.2 0-18.47 8.27-18.47 18.46 0 3.32 0.87 6.44 2.4 9.13 1.4-0.28 2.83-0.56 4.25-0.81 10.2-1.79 20.08-2.51 29.28-2.35 0.64-1.87 1-3.88 1-5.97 0-10.19-8.27-18.46-18.46-18.46z"></path><path id="path6328" style="stroke-linejoin:round;stroke:#2e3436;stroke-linecap:round;stroke-width:1.535;fill:#2e3436" d="m473.28 163.15c-3.31 0-5.99 3.03-5.99 6.75 0 1.43 0.38 2.75 1.06 3.84 3.53-0.55 7-0.92 10.37-1.09 0.34-0.85 0.52-1.77 0.52-2.75 0-3.72-2.66-6.75-5.96-6.75z"></path><path id="path4873" style="opacity:.831;filter:url(#filter4875);fill:#8ae234" sodipodi:nodetypes="czzzz" transform="matrix(-1 0 0 1 910.79 -449.93)" d="m344.76 572.71c1.61-11.63 10.35-14.8 23.38-17.13 12.98-2.33 33.54 2.94 33.49 13.88-0.04 10.94-7.02-1.15-31.9-1.28-24.89-0.13-26.58 16.2-24.97 4.53z"></path><path id="path4189" style="stroke-linejoin:round;stroke:#2e3436;stroke-linecap:round;stroke-width:2;fill:url(#linearGradient2433)" d="m537.35 121.99c15.38 0 27.88 16.29 27.88 36.4 0 7.42-1.71 14.34-4.63 20.1-4.49-1.21-9.15-2.25-13.96-3.1-12.24-2.14-24.03-2.79-34.72-2.15-1.55-4.54-2.41-9.57-2.41-14.85 0-20.11 12.47-36.4 27.84-36.4z"></path><path id="path4191" style="stroke-linejoin:round;stroke:#2e3436;stroke-linecap:round;stroke-width:2;fill:url(#radialGradient2430)" d="m534.81 148.61c10.2 0 18.47 8.27 18.47 18.46 0 3.32-0.87 6.44-2.4 9.13-1.4-0.28-2.83-0.56-4.25-0.81-10.2-1.79-20.08-2.51-29.28-2.35-0.64-1.87-1-3.88-1-5.97 0-10.19 8.27-18.46 18.46-18.46z"></path><path id="path6333" style="stroke-linejoin:round;stroke:#2e3436;stroke-linecap:round;stroke-width:1.5317;fill:#2e3436" d="m533.86 163.41c3.41 0 6.18 2.92 6.18 6.51 0 1.38-0.41 2.66-1.1 3.72-3.64-0.54-7.21-0.89-10.69-1.06-0.35-0.81-0.54-1.71-0.54-2.66 0-3.59 2.75-6.51 6.15-6.51z"></path><path id="path4197" sodipodi:nodetypes="czzzz" style="opacity:.831;filter:url(#filter4865);fill:#8ae234" d="m436.99 124.88c2.69-14.9 15.89-18.34 27.49-19.23 11.59-0.9 33.53 2.94 33.49 13.88s-7.03-1.15-31.91-1.28c-24.89-0.13-31.76 21.48-29.07 6.63z"></path><path id="path4879" sodipodi:nodetypes="czcc" style="opacity:.50685;filter:url(#filter5033);fill:#8ae234" d="m444.45 192.53c-6.91-9.59 11.59-13.33 20.16-14.23 8.81-0.92 28.23-4.38 28.19 6.56-13.26 5.94-34.16 7.21-48.35 7.67z"></path><path id="path5037" d="m416.8 640.18c-6.9-9.6 11.6-13.34 20.16-14.23 8.82-0.92 28.24-4.38 28.19 6.56-13.25 5.93-34.16 7.21-48.35 7.67z" sodipodi:nodetypes="czcc" style="opacity:.50685;filter:url(#filter5039);fill:#8ae234" transform="matrix(-1 0 0 1 979.66 -447.65)"></path><path id="path4177" sodipodi:rx="66.666672" sodipodi:ry="66.666672" style="stroke-linejoin:round;stroke:#2e3436;stroke-linecap:round;stroke-width:4.5599;fill:url(#radialGradient2405)" sodipodi:type="arc" d="m263.81 692.36a66.667 66.667 0 1 1 -133.33 0 66.667 66.667 0 1 1 133.33 0z" transform="matrix(.43861 0 0 .43861 418.46 -108.77)" sodipodi:cy="692.36218" sodipodi:cx="197.14285"></path><path id="path5043" sodipodi:nodetypes="czzzc" style="stroke-linejoin:round;stroke:#000000;stroke-linecap:round;stroke-width:3;fill:none" d="m527.67 93.578c8.5-15.016 7.86-17.827 22.84-32.318 15.33-14.847 43.65-13.355 40.41 5.046-3.36 19.099-26.32 20.923-24.04-0.823 2.29-21.809 47.67-25.786 74.07-21.188"></path><path id="path5064" sodipodi:nodetypes="ccc" style="stroke-linejoin:round;stroke:#2e3436;stroke-linecap:round;stroke-width:2;fill:#eeeeec" d="m567.76 216.5c-16.02 63.97-130.13 53.35-130-4.28 55.23 30.09 82.87 28.63 130 4.28z"></path><path id="path5067" sodipodi:nodetypes="ccccccccccc" style="stroke-linejoin:round;stroke:url(#linearGradient2420);stroke-linecap:round;fill:none" d="m439.19 220.79c2.3 1.66 6.44 4.96 9.96 6.54 1.69 4.62 6.38 6.77 11.97 8.11 2.71 3.36 7.1 5.67 13.63 6.5 3.54 4.33 9.17 4.55 14.95 4.34 5.38 2.33 10.75 3.15 15.92 1.62 5.43 2.05 10.41 1.12 13.58-0.74 5.93 0.51 8.5-0.77 11.88-3.35 4.35-0.72 8.15-0.08 11.18-4.65 5.87-0.53 10.26-2.75 12.28-7.44 2.98-0.38 8.51-3.8 10.37-5.93"></path><path id="path5081" sodipodi:rx="66.666672" sodipodi:ry="66.666672" style="stroke-linejoin:round;stroke:#2e3436;stroke-linecap:round;stroke-width:9.9055;fill:url(#radialGradient2379)" sodipodi:type="arc" d="m263.81 692.36a66.667 66.667 0 1 1 -133.33 0 66.667 66.667 0 1 1 133.33 0z" transform="matrix(.20191 0 0 .20191 605.19 -92.124)" sodipodi:cy="692.36218" sodipodi:cx="197.14285"></path><path id="path5085" sodipodi:nodetypes="czzzc" style="stroke-linejoin:round;stroke:#000000;stroke-linecap:round;stroke-width:3;fill:none" d="m480 95.599c-8.5-15.016-8.93-23.949-19.95-33.039-10.6-8.741-33.84-17.348-42.58 0.729-9.01 18.658 24.96 27.688 24.04 7.813-0.92-19.856-38.31-26.506-60.39 0.402"></path><path id="path5087" sodipodi:rx="66.666672" sodipodi:ry="66.666672" style="stroke-linejoin:round;stroke:#2e3436;stroke-linecap:round;stroke-width:9.9055;fill:url(#radialGradient2411)" sodipodi:type="arc" d="m263.81 692.36a66.667 66.667 0 1 1 -133.33 0 66.667 66.667 0 1 1 133.33 0z" transform="matrix(-.20191 0 0 .20191 419.04 -69.234)" sodipodi:cy="692.36218" sodipodi:cx="197.14285"></path><path id="path5091" sodipodi:nodetypes="cszsz" style="opacity:.26027;filter:url(#filter5817);fill:#2e3436" d="m487.64 93.305c1.07 1.562-1.26 5.573-4.51 7.195-3.49 1.74-7.95 0.98-8.09-0.893-0.27-3.654 2.62-0.666 5.98-2.6 2.89-1.66 4.44-6.873 6.62-3.702z"></path><path id="path5699" sodipodi:nodetypes="cszsz" style="opacity:.26027;filter:url(#filter5749);fill:#2e3436" d="m534.96 91.778c1.08 1.563-1.26 5.573-4.5 7.194-3.49 1.738-7.96 0.978-8.1-0.892-0.26-3.654 2.63-0.665 5.99-2.6 2.89-1.66 4.43-6.872 6.61-3.702z"></path><path id="path5821" sodipodi:nodetypes="ccc" style="opacity:.26027;filter:url(#filter6055);fill:#2e3436" d="m429.54 215.95c-0.59-14.22 6.72-14.72 14.54-7.22-8.25-2.5-10.9 0.26-14.54 7.22z"></path></g></g><metadata></metadata></svg> 