<?xml version="1.0" encoding="UTF-8" standalone="no"?> <!-- Generator: Adobe Illustrator 10.0, SVG Export Plug-In . SVG Version: 3.0.0 Build 77) --> <svg xmlns:rdf="http://www.w3.org/1999/02/22-rdf-syntax-ns#" xmlns="http://www.w3.org/2000/svg" xmlns:x="http://ns.adobe.com/Extensibility/1.0/" xmlns:dc="http://purl.org/dc/elements/1.1/" xmlns:i="http://ns.adobe.com/AdobeIllustrator/10.0/" xmlns:cc="http://web.resource.org/cc/" xmlns:xlink="http://www.w3.org/1999/xlink" xmlns:a="http://ns.adobe.com/AdobeSVGViewerExtensions/3.0/" xmlns:graph="http://ns.adobe.com/Graphs/1.0/" xmlns:svg="http://www.w3.org/2000/svg" xmlns:inkscape="http://www.inkscape.org/namespaces/inkscape" xmlns:sodipodi="http://sodipodi.sourceforge.net/DTD/sodipodi-0.dtd" xmlns:ns1="http://sozi.baierouge.fr" i:rulerOrigin="0 0" i:viewOrigin="94 678" i:pageBounds="0 792 612 0" viewBox="0 0 421.92 564.349" overflow="visible"><g id="Layer_1" i:layer="yes" i:rgbTrio="#4F008000FFFF" i:dimmedPercent="50"><g stroke-width=".036" stroke-miterlimit="10"><path d="m174 414.63c2.988 0.395 5.904-0.037 8.892-1.297 2.952-1.367 6.66-4.031 8.748-6.443 1.944-2.592 2.016-7.488 3.276-8.029 1.224-0.576 2.664 3.781 4.032 5.148 1.296 1.404 1.512 2.736 3.42 3.023 1.836 0.109 5.292-0.107 7.308-2.16 1.908-2.23 3.204-7.811 4.031-10.475 0.648-2.664 0-4.752 0.576-5.148 0.504-0.504 1.045 1.549 2.881 2.412 1.799 0.721 5.688 3.061 8.172 2.592 2.34-0.539 6.66-2.447 6.156-5.436-0.684-3.168-9.072-10.439-9.756-12.637-0.793-2.232 2.879-1.225 5.58-0.432 2.771 0.648 6.408 2.699 10.619 4.752 4.141 2.088 9 6.336 13.752 7.451 4.607 0.973 11.053 0.686 13.932-1.439 2.701-2.268 1.656-9.756 2.844-11.771 1.189-2.053 2.629-0.252 4.32-0.289 1.584-0.035 3.672 0.938 5.148 0 1.367-1.188 2.195-5.832 3.168-6.588 0.863-0.756 1.08 0.793 2.305 1.873 1.188 0.9 2.951 3.203 4.715 3.707 1.729 0.434 4.969 0.145 5.438-0.863 0.252-1.115-1.908-4.32-3.564-5.725-1.729-1.439-6.193-2.627-6.445-3.168-0.322-0.684 1.297-0.971 4.717-0.863 3.457 0.035 10.801-0.648 15.768 1.008 4.789 1.512 9.18 6.049 13.176 8.207 3.854 2.053 7.346 4.213 10.621 4.141 3.348-0.18 7.703-2.447 9.18-5.004 1.152-2.627-1.691-9.539-1.297-10.619 0.396-1.225 2.197 1.908 4.033 3.707 1.836 1.691 5.004 4.141 6.875 6.912 1.801 2.736 2.988 8.531 3.854 9.611 0.791 0.938 0.756-2.482 1.008-3.6 0.107-1.115 0.252-1.943-0.145-3.6-0.504-1.908-3.023-7.164-2.699-7.451 0.215-0.361 2.52 2.807 4.139 5.615 1.549 2.881 3.924 9.793 5.041 11.016 0.898 0.865 0.756-2.375 0.828-5.004-0.037-2.664-0.865-9.863-0.396-10.332 0.539-0.576 2.52 4.824 3.42 7.453 0.791 2.664-0.072 6.227 1.295 8.172 1.262 1.764 3.277 2.627 6.59 2.734 3.275-0.035 8.604-0.574 12.924-2.303 4.248-1.801 10.584-7.992 12.6-7.885 1.943 0.145-0.613 4.393-0.865 8.461-0.504 3.887-1.906 9.936-1.295 15.084 0.721 5.039 2.627 12.24 5.328 15.48 2.592 3.168 6.588 3.672 9.9 3.6 3.203-0.145 7.596-4.824 9.143-4.609 1.441 0.145 0.504 2.664-0.432 5.186-1.188 2.375-4.535 6.588-5.58 9.18-1.008 2.447 1.439 3.527 0 5.58-1.512 2.016-6.371 4.535-8.891 6.443-2.594 1.836-5.438 1.98-6.445 4.465-1.043 2.375 1.045 7.199 0.289 9.756-0.756 2.447-1.908 4.535-5.004 5.148-3.205 0.467-9.434-1.297-14.221-1.98-4.969-0.721-11.412-2.088-15.049-2.305-3.814-0.359-6.803-0.215-6.875 0.576 0 0.756 6.695 2.592 7.02 3.996 0.18 1.404-2.375 3.348-5.58 3.744-3.348 0.072-9.287-1.26-13.5-2.447-4.211-1.189-10.439-2.484-11.592-4.43-1.26-2.123 0.396-6.191 4.572-7.486 4.176-1.262 15.912 0.504 20.232 0 4.248-0.613 7.164-2.449 4.859-3.564-2.592-1.297-13.572-2.916-19.332-3.457-5.797-0.467-11.377-1.295-14.939 0.576-3.637 1.764-3.42 7.381-6.301 10.045-2.951 2.484-4.824 5.543-10.908 5.291-6.229-0.432-14.4-4.859-25.92-7.02-11.699-2.195-31.5-3.961-43.309-5.725-11.807-1.871-16.162-1.188-26.963-4.895-10.944-3.816-31.464-14.51-37.836-17.354-6.336-2.951-6.336-2.771 0 0.145-0.5-2.8-1.04-5.6-1.58-8.45z" fill-rule="evenodd" i:knockout="Off" stroke="#000000" clip-rule="evenodd"></path><path d="m175.59 423.09h-0.288m4.57-9.32v0.145" i:knockout="Off" stroke="#FFFFFF" fill="none"></path><path d="m199.39 420.5c2.052-0.107 4.248-0.863 6.588-2.412 2.304-1.619 5.616-5.867 7.308-6.768 1.621-0.936 0.865 0.936 2.305 1.439 1.332 0.432 3.744 1.656 5.725 1.152 1.836-0.684 4.57-2.484 5.578-4.572 0.828-2.16-0.467-7.02 0-7.92 0.396-0.936 1.117 1.729 2.736 2.447 1.584 0.648 4.428 2.197 6.732 1.729 2.232-0.648 5.869-2.592 6.588-5.148 0.504-2.664-2.988-9.072-2.844-10.188 0.217-1.043 1.729 1.584 3.996 3.564 2.123 1.799 5.363 7.057 9.035 7.451 3.602 0.289 9.756-4.248 12.781-5.436 2.916-1.225 4.031-0.504 5.291-2.016 1.152-1.729 1.225-6.301 2.016-7.74 0.613-1.404 1.369-0.576 2.412-0.576 1.08-0.107 2.377 0.863 3.744-0.145 1.332-1.188 2.629-5.652 3.744-6.443 0.865-0.828 0.504 1.188 1.836 1.584 1.297 0.217 3.637 0.035 5.904 0.432 2.16 0.359 5.293 0.18 7.02 1.98 1.621 1.764 3.168 5.795 2.846 8.748-0.396 2.809-2.018 7.02-5.006 8.352-3.131 1.152-10.115-0.467-13.031-0.576-3.023-0.035-4.141-0.035-4.463 0.289-0.396 0.252 1.295-0.576 2.447 1.26 1.08 1.836 4.5 6.516 4.283 9.324-0.395 2.627-3.455 4.139-5.867 6.479-2.412 2.27-5.363 5.4-8.172 7.309-2.916 1.873-2.125 3.168-8.893 3.744-6.84 0.289-21.564-0.145-31.824-1.008-10.439-0.793-20.196-2.088-29.952-3.744-0.32-0.83-0.61-1.7-0.89-2.56z" fill-rule="evenodd" i:knockout="Off" stroke="#FFFFFF" clip-rule="evenodd" fill="#FFFFFF"></path><path d="m283.27 427.84c0.756-0.359 1.656-1.512 2.988-3.6 1.295-2.125 3.707-6.156 4.607-8.893 0.793-2.809-0.215-6.768 0.289-7.596 0.359-0.828 1.115 1.691 2.412 2.557 1.26 0.646 2.951 1.727 5.615 1.871 2.664 0.072 8.459-1.188 10.152-1.008 1.475 0.217-0.648 0.936-0.684 2.16-0.145 1.08-0.469 2.699 0.395 4.465 0.865 1.654 2.449 4.066 4.609 5.723 2.088 1.621 6.803 2.736 7.738 3.744 0.758 0.721-2.375 0.18-3.023 1.439-0.791 1.262-1.115 4.285-1.547 6.301-0.541 1.873 0.324 3.961-1.584 5.148-2.125 1.152-5.438 1.584-10.477 1.584-7.17-4.6-14.33-9.24-21.49-13.89z" fill-rule="evenodd" i:knockout="Off" stroke="#FFFFFF" clip-rule="evenodd" fill="#FFFFFF"></path><path d="m304.76 441.74l0.145 0.287" i:knockout="Off" stroke="#FFFFFF" fill="none"></path><path d="m358.4 431.84c-2.449-2.123-4.896-4.176-7.488-6.156-2.629-2.088-5.256-4.932-8.029-5.76-2.879-0.863-5.795 0.9-8.891 0.721-3.313-0.396-8.641-2.629-9.865-2.27-1.188 0.434 1.656 3.025 2.844 4.572 1.01 1.26 3.457 2.557 3.602 3.889 0.072 1.367-2.232 2.844-3.168 4.283-1.045 1.441-2.916 3.205-2.701 4.178 0.252 0.791 2.088 1.078 3.709 1.15 1.439 0.072 3.672 0.576 5.039-0.576 1.297-1.26 1.549-4.895 2.988-6.479 1.367-1.656 2.771-3.672 5.473-3.133 2.627 0.469 6.156 2.52 10.584 6.156 1.96-0.18 3.94-0.35 5.92-0.57z" fill-rule="evenodd" i:knockout="Off" stroke="#FFFFFF" clip-rule="evenodd" fill="#FFFFFF"></path><path d="m340.61 373.01c0.828-0.107 1.729 1.045 2.701 3.313 0.936 2.195 2.268 6.84 2.879 10.188 0.469 3.348-0.359 8.316 0 9.756 0.217 1.297 0.793-0.576 1.729-1.871 0.828-1.404 2.844-5.725 3.564-6.301 0.539-0.684 0.035-0.791 0.432 2.592 0.467 3.277 1.512 14.941 2.16 17.352 0.467 2.27 0.287-1.15 0.863-3.455 0.432-2.484 1.621-9.684 2.16-10.764 0.432-1.08 0.396 1.008 1.008 4.463 0.648 3.35 2.195 12.168 2.988 15.912 0.576 3.709 1.512 5.256 1.152 6.301-0.432 0.863-2.088-0.396-3.168-0.576-1.152-0.252-2.016 0.217-3.42-0.539-1.477-0.938-2.881-2.701-5.184-4.178-2.377-1.512-5.977-4.066-8.713-4.463-2.881-0.432-6.623 2.232-7.885 2.016-1.402-0.396 0.434-1.871 0.109-3.996-0.469-2.232-1.549-7.92-2.125-8.748-0.576-0.791-0.359 2.305-1.152 3.996-0.936 1.621-1.764 4.32-3.887 5.615-2.232 1.262-6.264 1.873-9.037 1.549-2.916-0.648-6.371-2.592-7.74-4.428-1.475-1.943-0.971-4.176-0.287-6.301 0.828-2.088 4.031-3.635 4.607-6.047 0.324-2.701-0.863-6.588-2.16-9.037-1.404-2.447-5.256-4.355-5.58-5.146-0.395-0.686 1.441 0.432 3.42 0.574 1.908-0.035 5.51-0.826 7.885-0.574 2.16 0.107 3.061 1.836 5.76 1.979 2.701 0.145 7.705-0.18 10.297-0.971 2.447-0.938 4.031-2.197 4.607-4.176 0.66-1.31 1.34-2.65 2.02-4.02z" fill-rule="evenodd" i:knockout="Off" stroke="#FFFFFF" clip-rule="evenodd" fill="#FFFFFF"></path><path d="m383.88 394.69c-1.836 0.936-3.6 2.232-5.146 4.033-1.656 1.764-3.781 3.779-4.285 6.443-0.576 2.627-1.08 6.336 1.549 9.035 2.699 2.557 13.176 6.229 14.508 6.445 1.152 0.107-5.4-3.096-7.02-5.438-1.656-2.52-2.521-6.227-2.592-8.748-0.145-2.52 1.402-5.219 1.727-6.154 0.252-1.045 0.109-1.045-0.287 0 0.51-1.87 1.02-3.74 1.55-5.61z" fill-rule="evenodd" i:knockout="Off" stroke="#FFFFFF" clip-rule="evenodd" fill="#FFFFFF"></path><path d="m372.15 419.38c-0.469 1.475-0.324 2.951 0.432 4.859 0.611 1.836 1.439 4.859 3.996 6.012 2.555 0.973 10.223 0.648 11.34 0.576 0.863-0.035-3.348 0-5.293-1.008-1.979-1.225-3.996-2.988-6.191-5.725-1.41-1.55-2.85-3.13-4.29-4.72z" fill-rule="evenodd" i:knockout="Off" stroke="#FFFFFF" clip-rule="evenodd" fill="#FFFFFF"></path><path d="m368.41 433.28c-0.072 1.117 0.072 2.377 0.143 4.176 0 1.693-1.15 4.572 0.434 6.156 1.475 1.477 5.867 2.988 8.748 2.881 2.771-0.324 7.486-3.42 8.027-4.033 0.469-0.646-2.771 1.117-5.004 0.576-2.34-0.611-5.111-2.051-8.604-4.176-1.23-1.85-2.49-3.72-3.75-5.59z" fill-rule="evenodd" i:knockout="Off" stroke="#FFFFFF" clip-rule="evenodd" fill="#FFFFFF"></path><path d="m307.75 20.538c-5.58 1.872-14.184 6.156-25.813 12.924-11.881 6.588-32.256 18.936-43.451 26.532-10.873 7.308-17.785 11.592-22.789 16.2-5.436 4.284-8.172 6.588-10.332 8.46-2.736 1.296-3.024-0.72-5.292-0.432-3.024-0.144-6.768 0-9.612 0.432-3.024 0.144-5.472 0.576-6.732 1.296-1.44 0.576-0.864 1.44-1.584 2.016-1.008 0.288-2.16-0.576-3.456-0.432-1.872-0.288-3.996-1.296-5.868-0.864-2.304 0.432-3.744 0.576-5.472 1.584-1.404 0.432-2.556 0.144-3.996 0.252-2.016-0.396-6.012-1.836-7.596-0.972-1.872 0.288-3.312 3.564-4.32 4.428-1.836 0.72-2.7-0.72-4.716-0.432-2.448-0.288-5.616 0.72-7.884 1.44-2.592 0.576-3.744 3.024-5.76 4.032-2.268 0.432-4.284 0.828-6.588 1.26-2.7 0.72-5.292 1.728-7.164 3.024-1.728 1.296-2.592 3.6-3.744 4.752-1.548 0.828-3.132 0.54-5.292 1.26-2.592 0.144-4.716 1.008-7.02 2.016-2.16 1.008-3.456 2.88-5.04 4.032-1.836 0.432-4.428 0.864-6.012 1.296-2.304 0.144-3.852 0.972-5.292 1.98-1.44 0.72-1.152 2.16-3.024 3.744-2.448 0.864-6.156 2.016-8.892 3.996-2.736 1.872-5.004 5.616-7.452 7.92-2.88 1.404-6.732 2.556-8.316 3.996-2.016 1.296-1.44 2.88-3.312 4.752-2.7 1.296-7.164 3.276-10.584 6.012-3.6 2.592-6.912 8.316-9.9 11.196-3.6 2.7-8.028 4.14-10.044 6.588-1.872 2.448-1.152 4.86-1.728 7.308-1.152 1.872-2.448 3.024-3.312 5.004-0.72 1.872 0.144 4.176-0.72 6.336-1.404 1.872-5.724 3.564-6.876 5.724-1.152 2.016 0.864 3.744 0 6.3-1.152 2.304-5.148 5.04-6.012 7.632-1.152 1.692 0.864 3.276 0 5.292-1.44 2.16-6.444 4.572-6.732 7.884-0.288 3.168 3.42 7.02 5.004 11.052 1.008 3.708 0.576 7.308 2.016 10.764 1.152 2.988 4.14 3.708 5.724 6.588 1.008 2.448 0.576 5.004 2.016 8.316 1.152 2.448 4.284 4.284 5.58 8.892 1.152 4.572 0 14.76 1.008 18.936 0.576 3.564 2.592 2.16 3.312 3.996 0.144 1.729-0.432 4.176 0.432 6.768 1.008 1.836 3.852 3.854 5.292 6.588 0.864 2.305-0.288 5.58 1.008 8.174 1.152 2.303 3.744 3.275 5.58 6.299 1.44 2.592 1.152 7.02 3.024 10.045 1.44 2.447 4.32 3.744 6.3 6.012 1.584 2.303 2.448 5.615 4.32 7.631 2.016 1.404 4.428 1.117 6.732 2.412 1.44 1.297 2.88 4.609 4.32 6.049 1.404 0.863 3.708 0.576 5.292 1.26 1.008 0.721 2.448 3.313 3.744 4.465 1.692 1.008 3.708 0.287 6.012 1.727 1.728 0.721 3.852 5.148 5.292 5.004 1.008-0.287-0.432-3.275 1.296-5.723 1.152-2.881 6.156-12.061 7.308-10.908 1.008 0.863-0.864 10.188-0.576 16.344-0.288 5.76 0.144 12.348 1.296 18.648 1.152 5.867 4.032 11.051 7.02 17.639 2.592 6.012 6.624 13.068 10.332 21.672 3.456 8.748 8.892 21.061 11.916 30.385 2.304 9.035 2.88 15.336 3.996 23.4 1.152 7.883 2.304 15.047 3.456 23.219 1.296 7.885 2.592 16.777 3.888 23.941 1.116 6.732 0.972 13.643 2.268 17.352 0.72 3.168 1.728 2.592 3.024 3.744 0.576 1.439 1.872 2.447 3.312 3.023 1.404-0.287 3.276-2.447 5.004-2.016 0.864 0.432 1.584 4.572 2.736 5.293 1.152 0.287 2.556-2.881 4.284-2.305 1.584 0.432 4.176 5.184 6.012 5.904 1.584 0.143 3.024-3.168 4.32-3.313 1.152 0 2.16 2.016 3.6 2.736 1.26 0.432 2.412-1.729 3.996-0.289 1.152 0.721 2.304 6.301 3.456 6.877 0.864 0.287 1.44-4.572 3.276-3.023 1.584 1.439 3.888 12.059 6.336 14.074 1.836 1.584 4.14-1.871 6.3-2.016 2.016 0.432 4.86 2.592 7.02 2.016 1.584-1.584 2.304-7.162 4.464-9.611 2.124-2.16 6.3-3.455 8.028-5.039 1.008-2.125-0.864-6.301 0-8.029 0.864-1.979 3.853-3.852 4.571-5.004-0.143-2.016-2.303-3.6-2.015-5.291 0.576-1.729 3.312-3.6 4.32-5.041 0.145-1.871-2.16-3.707-1.297-5.58 0.721-2.592 3.313-5.615 6.014-6.73 2.16-1.152 5.76 0.107 8.027 0 1.439-0.721 2.016-2.16 4.031-2.736 2.018-1.297 6.588-1.152 8.316-2.305 1.008-1.439-1.008-2.881 0.576-4.283 1.584-1.152 5.867-3.168 9.611-3.313 3.42-0.863 8.605 0.287 11.053-0.432 1.691-1.008 0.541-3.457 1.549-4.033 0.863-0.863 2.592-0.287 4.031-0.971 0.721-1.441 2.16-3.602 3.707-5.328 1.584-1.873 5.041-3.277 7.057-4.285 1.691-0.863 2.125 1.26 4.572-1.295 2.016-2.736 6.301-10.908 9.611-15.049 3.168-4.32 6.156-7.199 9.037-11.34 2.303-5.039 4.139-10.764 5.004-15.623 0.287-4.896 1.439-10.189-1.98-12.637-4.176-2.592-10.477-2.305-20.088-3.023-10.188-1.441-26.1-2.557-36.721-3.42-10.475-0.721-12.455-2.305-25.955-2.16-14.76-0.721-27.54-0.865-36.576-4.033-8.604-3.131-10.728-6.73-16.344-14.184-2.988-2.879-4.428-8.172-7.884-15.336-1.044-2.771-2.088-5.543-3.168-8.316 0.432-3.814 0.864-7.631 1.296-11.482 0.936 1.15 1.908 2.303 2.88 3.455 1.152 1.656 2.304 3.313 3.456 5.004 1.656 1.908 3.312 3.816 5.004 5.725 0 0 2.448 2.16 4.572 4.463 2.016 2.16 1.872 2.16 3.6 4.428 1.728 2.16 0.72 4.32 3.312 4.609 2.412 0.143 2.7-1.441 6.588-3.744 3.744-2.412 5.148-3.42 8.46-5.869 3.168-2.592 2.304-2.016 4.284-4.176 1.872-2.268 1.728-2.412 3.312-4.715 1.584-2.449 1.296-2.018 3.024-4.609 1.584-2.699 2.16-2.986 3.708-6.012 1.583-3.168 3.744-8.891 5.617-13.463 1.727-4.609 0.719-7.596 1.979-13.357 1.152-5.867-0.539-9.898 0-16.631 0.434-6.877-0.971-5.148 2.16-10.477 3.168-5.436 4.465-4.859 10.477-11.053 6.012-6.154 6.732-7.307 13.645-13.607 6.732-6.444 7.451-6.731 13.463-12.06 1.621-1.512 3.24-3.024 4.861-4.572 5.902-5.328 5.328-4.608 5.328-4.608 2.555-2.52 5.146-5.04 7.738-7.596 2.377-2.52 4.752-5.04 7.164-7.596 1.584-2.232 3.168-4.464 4.752-6.732 1.514-1.944 3.025-3.888 4.572-5.868 0.938-1.296 1.908-2.592 2.881-3.888 0.684-2.664 1.404-5.328 2.123-8.028 0 0 1.297 1.296 3.744 4.572 2.449 3.168 3.168 4.608 6.012 8.172 2.736 3.456 2.594 3.456 5.041 5.904 2.268 2.268 1.404 1.296 4.283 3.564 2.736 2.16 6.732 5.184 6.732 5.184s1.584 1.584 3.023 0.864c1.297-0.864 1.008-1.296 2.592-3.744 1.441-2.592 2.305-4.572 2.988-7.74 0.721-3.312 0-9.468 0-12.636 0-3.276 0.721-7.74 1.008-10.584 0.145-3.024 2.881-9.612 2.736-8.028-0.143 1.548 0.865-9.9 0.865-9.9 0.143-3.06 0.287-6.12 0.432-9.18 0.072-2.088 0.18-4.212 0.287-6.336 0.793-1.944 1.621-3.888 2.449-5.868 1.188-1.476 2.375-2.952 3.563-4.428 1.189-1.296 2.377-2.592 3.602-3.888 1.799-2.664 3.6-5.328 5.436-8.028 1.367-2.664 2.771-5.328 4.176-8.028 0.396-2.232 0.828-4.5 1.26-6.768 0.576-2.088 1.152-4.176 1.729-6.3 1.439-2.268 2.879-4.572 4.32-6.876 2.088-2.484 4.176-4.968 6.299-7.452 0 0 3.025-3.6 5.293-6.012 2.16-2.448 0 0.432 3.455-3.744 3.313-4.32 6.301-8.46 9.9-13.32 3.42-5.04 2.016-2.88 4.283-6.336 2.305-3.564 2.881-4.716 4.896-7.884 2.016-3.312 3.168-5.004 3.168-5.004 2.34-3.096 4.68-6.192 7.02-9.324 1.908-3.708 3.816-7.452 5.725-11.196 1.225-3.492 2.484-6.984 3.744-10.476 0.828-3.348 1.691-6.696 2.557-10.044 0.18-1.908 0.359-3.816 0.576-5.724-0.324-1.332-0.648-2.664-1.008-4.032-0.793-0.612-1.584-1.224-2.412-1.836-1.008 0.144-2.018 0.288-3.025 0.432-1.367 1.224-2.771 2.448-4.176 3.708-1.656 1.476-3.313 2.952-5.004 4.464-0.863 1.044-1.729 2.088-2.592 3.132-1.115 1.152-2.268 2.304-3.42 3.456 0.035-1.368 0.072-2.772 0.145-4.176 0.143-2.376 0.287-4.752 0.432-7.164 0.287-2.232 0.576-4.464 0.863-6.732 0.648-2.268 1.297-4.572 1.98-6.876 1.008-2.088 2.016-4.212 3.023-6.336 1.08-1.62 2.197-3.24 3.313-4.86 0.541-0.9 1.115-1.8 1.691-2.736 0.361-0.936 0.756-1.872 1.152-2.844-1.223-1.08-2.447-2.196-3.707-3.312-1.945-0.864-3.924-1.728-5.904-2.592 0 0-5.004-1.729-9.324-2.16-4.283-0.396-2.699 0.288-7.885 0.432-5.146 0-6.443-0.684-12.744 0-6.443 0.576-6.443 1.44-12.635 2.592-6.156 1.152-7.164 0.864-12.023 2.016-5.041 1.008-3.602 0.72-7.633 2.16-4.141 1.296-2.699 0.576-8.855 3.132-6.193 2.448-15.805 6.768-15.805 6.768l-8.63 3.474z" fill-rule="evenodd" i:knockout="Off" stroke="#000000" clip-rule="evenodd"></path><path d="m363.94 13.194c0.9-0.756 2.52-1.368 5.004-1.692 2.484-0.468 6.66-0.792 9.613-0.576 2.807 0.108 5.76 0.72 7.307 1.836 1.477 1.224 2.088 3.744 1.297 5.184-1.008 1.224-4.033 2.088-6.732 2.448-2.736 0.324-6.768 0.18-9.469-0.576-2.844-0.9-5.039-2.484-7.02-4.752v-1.872z" fill-rule="evenodd" i:knockout="Off" stroke="#FFFFFF" clip-rule="evenodd" fill="#FFFFFF"></path><path d="m367.79 24.822c0.324 2.124 0.037 4.608-0.719 7.452-0.9 2.88-2.088 6.408-4.141 9.468-2.088 2.952-5.184 5.904-8.172 8.316-3.096 2.376-7.416 4.248-9.9 5.76-2.557 1.368-4.355 1.8-4.859 2.412-0.576 0.432 0.684 0.396 1.547 0.72 0.721 0.288 1.873 1.224 3.313 1.296 1.404-0.036 3.168-0.288 5.436-1.296 2.232-1.152 6.625-4.68 7.92-5.147 1.189-0.504 0.252 0.72-0.719 2.304-1.117 1.476-3.168 5.292-5.76 6.732-2.736 1.368-6.877 1.8-10.045 1.584-3.24-0.324-6.48-1.98-9.035-3.024-2.701-1.188-4.896-2.664-6.588-3.456-1.693-0.9-2.27-1.872-3.277-1.548-1.15 0.252-3.131 1.476-3.023 3.132 0 1.512 1.152 4.176 3.457 6.192 2.158 2.052 6.516 4.464 10.15 5.58 3.637 0.9 7.416 0.72 11.484 0 3.961-0.864 9-3.096 12.061-4.752 2.916-1.656 4.32-2.772 5.725-5.436 1.295-2.88 0.863-7.488 2.447-11.052 1.512-3.528 3.889-6.408 6.732-9.9 2.807-3.636 8.568-8.928 9.9-11.16 1.15-2.268-1.152-1.692-2.594-2.16-1.439-0.612-3.49-1.044-6.012-1.296-1.76-0.217-3.53-0.469-5.33-0.721z" fill-rule="evenodd" i:knockout="Off" stroke="#FFFFFF" clip-rule="evenodd" fill="#FFFFFF"></path><path d="m346.44 33.138c0.469-0.612 1.332-0.576 2.592-0.288 1.26 0.324 3.709 1.044 5.004 2.304 1.297 1.26 2.34 2.88 2.305 5.004-0.217 1.98-1.188 5.076-3.313 6.768-2.34 1.584-7.164 2.952-9.756 2.7-2.52-0.504-4.283-2.772-5.436-4.716-1.225-1.944-2.125-4.644-1.873-6.3 0.182-1.692 2.305-3.348 3.168-3.6 0.758-0.252 1.838 0.647 1.873 1.728-0.145 0.972-2.016 2.484-1.873 3.996 0.217 1.368 1.584 3.132 3.133 4.176 1.439 0.828 3.779 1.764 5.473 1.296 1.619-0.54 3.744-2.628 4.283-4.176 0.396-1.692-1.008-4.248-1.871-5.292-0.973-1.116-2.16-1.404-3.709-1.008 0.01-0.864 0.01-1.728 0.01-2.592z" fill-rule="evenodd" i:knockout="Off" stroke="#FFFFFF" clip-rule="evenodd" fill="#FFFFFF"></path><path d="m396.63 19.53c-1.799 1.512-4.139 3.996-7.307 7.308-3.205 3.42-8.281 8.496-11.484 12.6-3.385 3.924-6.156 7.416-8.172 10.908-2.016 3.312-2.412 5.868-3.564 9.468-1.26 3.6-3.527 9.288-3.744 12.204-0.107 2.808 0.9 4.428 2.447 4.428 1.332-0.18 4.213-2.268 5.725-5.148 1.439-2.952 1.152-9.108 2.881-12.348 1.656-3.312 4.5-5.147 7.02-7.308 2.412-2.232 5.076-3.168 7.309-6.012 2.088-3.096 4.283-8.172 5.471-11.484 1.152-3.276 1.477-5.904 1.26-8.028 0.71-2.196 1.43-4.392 2.15-6.588z" fill-rule="evenodd" i:knockout="Off" stroke="#FFFFFF" clip-rule="evenodd" fill="#FFFFFF"></path><path d="m394.47 26.118v0.144" i:knockout="Off" stroke="#FFFFFF" fill="none"></path><path d="m384.17 55.098c0.035-0.072-0.107 0.972-0.289 3.132-0.287 2.16-0.252 6.336-1.15 9.612-1.008 3.24-2.629 6.48-4.465 9.18-1.871 2.484-4.572 4.68-6.732 5.76-2.268 0.9-5.256 0.396-6.732 0-1.584-0.576-2.771-2.232-2.447-2.592 0.252-0.432 2.484 1.008 4.176 0.72 1.512-0.288 3.6-0.36 5.58-2.304 2.016-2.016 5.365-6.696 6.445-9.756 0.971-3.204 0.826-6.084-0.434-9.036 2.01-1.548 4.03-3.132 6.04-4.716z" fill-rule="evenodd" i:knockout="Off" stroke="#FFFFFF" clip-rule="evenodd" fill="#FFFFFF"></path><path d="m411.53 45.918c-0.936-0.324-2.555 0.864-5.004 3.276-2.52 2.412-6.551 7.164-9.611 11.34-3.205 4.104-5.617 8.964-8.893 13.068-3.383 4.032-7.668 8.352-10.764 10.872-3.133 2.376-4.969 2.88-7.596 3.456-2.736 0.54-6.191-0.9-8.029-0.288-1.871 0.468-0.791 1.296-2.592 3.456-1.871 2.088-5.111 6.3-8.459 8.892-3.457 2.556-7.561 5.112-11.736 6.156-4.32 0.864-9.145 0.108-13.213-0.72-4.066-1.008-7.92-3.096-10.727-4.464-2.953-1.368-5.473-3.528-6.049-3.42-0.611 0.108 1.225 2.412 2.592 4.14 1.297 1.62 2.736 3.816 5.293 5.76 2.484 1.872 5.543 4.104 9.324 5.724 3.563 1.512 8.1 3.312 12.348 3.456 4.211 0 11.232-1.98 12.744-2.88 1.26-0.936-2.34-1.8-4.428-2.448-2.088-0.756-7.488-1.044-8.029-1.548-0.646-0.576 2.125-0.828 4.572-1.296 2.449-0.504 6.443-0.432 10.045-1.584 3.455-1.296 6.299-3.636 10.619-5.904 4.248-2.376 9.576-3.888 14.617-7.884 4.895-4.14 10.871-11.16 14.615-16.2 3.6-5.076 4.752-9.612 7.344-13.896 2.484-4.356 5.111-8.28 7.885-11.916 1.06-1.7 2.11-3.428 3.15-5.156z" fill-rule="evenodd" i:knockout="Off" stroke="#FFFFFF" clip-rule="evenodd" fill="#FFFFFF"></path><path d="m411.96 56.538c-1.332 0-2.951 1.332-4.859 4.14-2.053 2.808-4.211 8.136-6.875 12.492-2.701 4.212-5.58 8.46-9.324 12.888-3.924 4.428-8.748 9.288-13.645 13.068-4.969 3.564-13.607 6.804-15.625 8.316-2.051 1.26 1.369 0.612 3.457 0.288 2.016-0.324 4.787-0.072 8.748-1.872 3.816-1.872 9.936-4.608 14.615-9.324 4.609-4.86 9.938-13.536 13.213-19.08 3.096-5.616 4.68-10.8 6.156-13.896 1.512-3.132 2.412-4.572 2.844-4.464 0.43-0.83 0.86-1.694 1.29-2.558z" fill-rule="evenodd" i:knockout="Off" stroke="#FFFFFF" clip-rule="evenodd" fill="#FFFFFF"></path><path d="m410.67 59.094h-0.252" i:knockout="Off" stroke="#FFFFFF" fill="none"></path><path d="m312.9 61.974c-0.434 0.864-0.289 2.448 1.008 5.292 1.26 3.168 3.707 7.74 6.73 11.484 2.449 2.592 5.004 4.464 9.469 6.156 4.428 1.44 12.744 2.88 17.209 2.736 4.57-0.864 6.73-3.888 8.027-5.724 0.432-2.304-2.305-4.464-4.896-5.328-2.988-1.296-8.893 1.008-12.6 0.288-3.889-0.864-7.596-2.16-10.621-3.852-3.168-1.584-6.154-3.6-8.459-6.048-1.95-1.656-3.9-3.312-5.87-5.004z" fill-rule="evenodd" i:knockout="Off" stroke="#FFFFFF" clip-rule="evenodd" fill="#FFFFFF"></path><path d="m343.85 92.502c-0.576 1.332-2.627 1.908-6.012 1.584-3.6-0.288-10.045-1.008-14.615-3.42-4.572-2.556-9.758-6.48-12.492-11.484-2.809-5.22-3.781-14.076-4.176-18.792-0.576-4.86 1.799-7.92 1.295-9.324-0.576-1.332-1.729-0.252-4.428 1.296-2.809 1.404-7.705 3.888-11.771 7.02-4.213 2.952-9.938 6.444-12.744 10.908-2.773 4.428-3.744 10.188-4.033 15.48-0.504 5.112 1.189 13.248 1.584 15.228 0.252 1.728 0.217-1.188 0.865-4.032 0.576-2.88 1.475-8.388 3.131-12.492 1.656-4.176 4.285-9.108 6.77-12.024 2.447-2.988 6.84-5.328 7.883-5.472 0.828-0.144-1.332 1.944-2.447 4.464-1.225 2.448-3.672 7.596-4.428 10.188-0.756 2.52-0.756 3.312-0.145 4.86 0.469 1.332 3.131 2.808 3.275 3.744 0.037 0.936-1.512 1.008-2.555 2.016-1.152 0.936-3.277 1.944-3.889 3.996-0.721 2.088-1.045 6.804 0 8.316 1.043 1.224 4.068 0.108 6.156-0.288 1.943-0.432 5.436-2.448 5.615-2.016-0.035 0.396-3.707 2.952-5.039 4.464-1.441 1.44-2.844 2.772-2.844 4.428 0.035 1.512 0.432 3.744 3.131 4.896 2.629 1.188 9.107 2.412 12.492 1.872 3.24-0.792 6.877-3.132 6.877-6.048-0.217-2.916-5.293-6.912-7.598-11.16-2.34-4.464-5.508-9.396-6.299-14.652-0.828-5.256 0.611-12.6 1.26-16.2 0.539-3.6 1.584-5.04 2.16-5.436 0.432-0.576 0.863 0.504 1.008 2.556 0.072 2.052-0.576 6.372 0 9.9 0.504 3.528 0.539 7.488 3.168 10.764 2.627 3.096 7.703 5.904 12.455 7.74 4.609 1.584 11.664 2.448 15.48 2.592 3.781 0.108 6.229-0.468 7.344-1.728 1.2-1.214 2.39-2.474 3.57-3.734z" fill-rule="evenodd" i:knockout="Off" stroke="#FFFFFF" clip-rule="evenodd" fill="#FFFFFF"></path><path d="m359.04 20.25c-0.828-0.684-3.311-0.684-7.307 0-4.213 0.684-11.197 2.16-16.92 3.852-5.76 1.584-11.305 3.276-17.064 5.616-5.869 2.124-12.527 5.4-17.209 7.74-4.859 2.412-9.791 4.932-10.764 6.3-0.9 1.116 2.305 1.584 5.328 0.864 2.916-0.864 7.164-2.916 12.168-5.328 4.969-2.52 11.449-6.228 17.352-8.604 5.904-2.376 12.24-3.852 17.496-5.004 5.041-1.224 9.434-1.62 12.781-2.016 3.24-0.468 5.615-0.144 6.73-0.576 1.01-0.612 0.865-1.332-0.432-2.556-0.72-0.072-1.44-0.18-2.17-0.288z" fill-rule="evenodd" i:knockout="Off" stroke="#FFFFFF" clip-rule="evenodd" fill="#FFFFFF"></path><path d="m321.78 119.9c-1.547 0.54-3.564 1.116-6.191 1.728-2.664 0.504-6.732 1.26-9.576 1.584-3.061 0.252-6.301-0.72-7.775 0-1.477 0.576-1.332 2.196-0.828 3.744 0.467 1.44 1.512 3.996 3.42 5.148 1.799 1.116 4.607 2.196 7.451 1.44 2.773-0.936 6.66-4.572 8.893-6.444 2.088-1.908 3.24-3.492 3.6-4.896 0.33-0.75 0.66-1.51 1.01-2.3z" fill-rule="evenodd" i:knockout="Off" stroke="#FFFFFF" clip-rule="evenodd" fill="#FFFFFF"></path><path d="m335.54 122.2c-0.504 0.036-1.367 0.036-2.736 0-1.512-0.216-4.535-0.36-5.58-0.288-1.008 0.072 0.145 0.18-0.574 1.296-0.865 1.152-2.664 3.24-4.43 5.292-1.906 1.98-4.391 4.788-6.623 6.336-2.412 1.332-6.373 1.908-7.164 2.304-0.756 0.432 0.756 0.144 2.305 0.396 1.402 0.18 3.6 1.116 6.012 0.72 2.303-0.504 4.932-1.368 7.74-3.564 2.699-2.304 5.615-5.652 8.604-10.044 0.79-0.8 1.62-1.63 2.45-2.46z" fill-rule="evenodd" i:knockout="Off" stroke="#FFFFFF" clip-rule="evenodd" fill="#FFFFFF"></path><path d="m333.09 124.65h-0.252" i:knockout="Off" stroke="#FFFFFF" fill="none"></path><path d="m338.99 122.78c-0.396 1.044-1.26 2.628-2.449 4.608-1.332 1.979-2.771 5.112-4.859 7.308-2.195 2.016-6.588 4.14-7.488 5.004-0.936 0.792 1.08 0.144 2.305 0.144 1.188-0.072 2.771 0.396 4.607 0 1.691-0.432 3.6-0.972 5.58-2.736 1.943-1.872 3.996-5.796 5.725-8.316 1.547-2.664 2.699-5.004 3.6-7.308-2.35 0.44-4.69 0.88-7.03 1.31z" fill-rule="evenodd" i:knockout="Off" stroke="#FFFFFF" clip-rule="evenodd" fill="#FFFFFF"></path><path d="m351.45 121.19c-0.18 2.304-0.971 4.644-1.98 7.02-1.188 2.268-3.096 4.896-4.607 6.912-1.547 1.872-4.932 3.996-4.715 4.572 0.107 0.468 3.348-0.756 5.436-1.44 2.051-0.684 4.572-1.44 6.588-2.844 1.908-1.548 3.492-3.24 4.607-6.048 1.008-2.88 1.584-6.408 1.584-10.872-2.3 0.9-4.61 1.8-6.91 2.7z" fill-rule="evenodd" i:knockout="Off" stroke="#FFFFFF" clip-rule="evenodd" fill="#FFFFFF"></path><path d="m363.36 116.62c1.08-0.54 2.412-1.26 4.285-2.016 1.799-0.756 4.463-1.8 6.479-2.736 1.908-1.116 4.176-3.42 4.861-3.42 0.432 0.036-0.648 1.404-1.584 3.42-1.045 1.944-2.377 5.4-3.996 8.028-1.656 2.412-3.348 4.536-5.904 6.768-2.629 2.232-8.461 6.048-9.576 6.444-1.115 0.18 1.729-2.7 2.699-4.896 0.793-2.268 1.656-4.86 2.449-8.172 0.08-1.1 0.19-2.26 0.29-3.41z" fill-rule="evenodd" i:knockout="Off" stroke="#FFFFFF" clip-rule="evenodd" fill="#FFFFFF"></path><path d="m362.93 120.04v0.288" i:knockout="Off" stroke="#FFFFFF" fill="none"></path><path d="m314.04 142.72c0.361 0.9 1.549 1.764 3.564 2.592 1.98 0.792 5.4 2.016 8.461 2.412 2.988 0.324 7.668-1.44 9.324-0.432 1.439 0.936-0.037 3.6 0 5.904 0.07 2.052 0.215 3.888 0.432 7.308 0.143 3.492 0.611 9.324 0.287 13.608-0.504 4.068-2.16 7.704-2.736 11.34-0.646 3.6-0.611 6.444-0.719 10.332-0.217 3.888 0.107 9.108-0.396 12.744-0.541 3.312-2.053 4.932-2.736 8.064-0.611 3.204-1.188 7.056-1.439 11.16-0.469 4.032-0.721 11.628-1.152 12.78-0.539 0.864-1.297-3.24-1.584-6.876-0.396-3.708-0.721-10.116-0.145-14.796 0.541-4.752 2.988-6.696 3.6-13.176 0.469-6.624 0.145-20.088 0-25.956-0.107-5.832-0.215-5.508-0.719-9.036-0.541-3.744-1.08-10.368-2.736-12.78-1.836-2.484-4.787-2.412-7.74-1.728-2.951 0.612-6.299 2.484-9.756 5.616-3.564 3.096-8.027 8.136-11.305 12.744-3.383 4.464-6.479 10.728-8.459 13.932-2.053 3.06-3.205 4.68-3.457 4.716-0.359-0.072 0.396-2.16 1.584-5.004 1.152-2.952 3.061-8.316 5.293-12.204 2.088-3.96 4.393-7.596 7.451-11.196 2.988-3.672 7.129-7.38 10.332-10.152 3.025-2.736 5.797-4.752 8.172-6.048-1.07-1.91-2.22-3.86-3.38-5.84z" fill-rule="evenodd" i:knockout="Off" stroke="#FFFFFF" clip-rule="evenodd" fill="#FFFFFF"></path><path d="m354.04 145.03c-1.727 0.252-3.492 1.296-5.436 3.132-2.123 1.872-4.932 5.004-6.336 7.596-1.332 2.448-1.152 3.6-1.549 7.056-0.504 3.276-1.439 11.412-1.15 13.176 0.215 1.728 1.295-1.404 2.699-2.736 1.332-1.404 3.205-2.844 5.184-5.436 1.729-2.772 4.609-7.56 5.725-10.476 1.08-3.06 1.367-5.364 0.863-7.308 0.02-1.66 0.02-3.31 0.02-5z" fill-rule="evenodd" i:knockout="Off" stroke="#FFFFFF" clip-rule="evenodd" fill="#FFFFFF"></path><path d="m306.3 177.71c-0.826 0.144-1.979 1.62-3.742 4.572-1.801 2.952-4.969 8.748-6.588 12.924-1.766 4.14-3.098 9.36-3.17 11.484 0 1.944 1.332 2.916 3.17 0.432 1.727-2.628 5.65-11.592 7.307-15.804 1.621-4.248 2.34-7.308 2.305-9.324 0.22-1.4 0.47-2.84 0.72-4.28z" fill-rule="evenodd" i:knockout="Off" stroke="#FFFFFF" clip-rule="evenodd" fill="#FFFFFF"></path><path d="m305.59 182v0.288" i:knockout="Off" stroke="#FFFFFF" fill="none"></path><path d="m308.14 192.04c-0.973 1.944-2.16 4.284-3.854 7.02-1.691 2.664-4.859 6.372-6.191 9.324-1.549 2.88-2.305 6.444-2.268 8.063 0 1.548 1.223 2.196 2.699 1.116 1.477-1.296 4.285-4.86 5.904-8.172 1.512-3.312 2.557-7.128 3.133-11.448 0.19-1.94 0.37-3.92 0.58-5.9z" fill-rule="evenodd" i:knockout="Off" stroke="#FFFFFF" clip-rule="evenodd" fill="#FFFFFF"></path><path d="m313.61 190.49c-0.324 0.684-0.9 2.736-1.871 6.3-1.045 3.528-2.664 10.62-3.889 14.904-1.26 4.176-2.951 7.524-3.42 10.188-0.576 2.448-0.576 3.276 0.287 5.004 0.758 1.656 3.205 4.356 4.572 5.04 1.332 0.576 3.133-0.144 3.602-1.584 0.252-1.62-1.477-4.284-1.441-7.596-0.035-3.456 0.9-7.992 1.441-12.204 0.395-4.284 0.826-8.352 1.295-12.744-0.17-2.41-0.35-4.86-0.57-7.31z" fill-rule="evenodd" i:knockout="Off" stroke="#FFFFFF" clip-rule="evenodd" fill="#FFFFFF"></path><path d="m255.36 210.98c2.053 1.116 4.355-0.216 7.057-3.852 2.664-3.816 6.732-11.412 8.893-18.216 2.088-6.876 2.951-15.768 3.42-22.392 0.324-6.732-0.613-12.384-1.441-17.352-0.863-5.112-2.051-7.596-3.852-12.312-2.016-4.752-5.328-12.24-7.451-15.66-2.125-3.492-3.385-4.788-5.041-4.86-1.799-0.036-4.068 2.268-5.004 4.14-1.08 1.656-1.512 3.672-0.719 6.192 0.756 2.484 4.283 5.868 5.723 8.604 1.439 2.592 3.096 5.4 2.736 7.02-0.469 1.404-3.385 2.124-5.436 2.16-2.16-0.036-4.789-2.556-7.057-1.872-2.447 0.684-5.291 2.232-6.443 6.156-1.152 3.852-0.684 11.016 0 16.776 0.576 5.724 1.871 11.736 3.744 17.208 1.764 5.364 4.104 10.116 7.02 14.652 1.26 4.53 2.56 9.06 3.85 13.6z" fill-rule="evenodd" i:knockout="Off" stroke="#FFFFFF" clip-rule="evenodd" fill="#FFFFFF"></path><path d="m214.07 220.3c1.152 0.072 2.592-1.116 4.463-3.42 1.836-2.412 5.652-7.02 6.588-10.764 0.756-3.852-0.971-8.244-1.584-11.772-0.576-3.564-1.475-6.948-2.016-9.324-0.648-2.556-0.9-4.968-1.871-5.292-1.225-0.216-3.492 1.62-4.717 3.42-1.26 1.728-1.008 4.212-2.448 6.336-1.584 1.908-5.076 3.348-6.444 5.436-1.404 2.016-2.484 4.032-1.584 6.876 0.972 2.736 5.724 8.352 7.02 10.044 1.152 1.656 1.152 1.656 0 0 0.86 2.79 1.73 5.6 2.59 8.44z" fill-rule="evenodd" i:knockout="Off" stroke="#FFFFFF" clip-rule="evenodd" fill="#FFFFFF"></path><path d="m234.45 219.73c0.396 1.332 0.973 3.204 1.729 6.048 0.721 2.772 2.736 6.948 2.844 10.44 0.037 3.456-0.072 6.624-2.412 9.9-2.52 3.096-9.828 8.1-12.061 9.18-2.195 1.008-0.863-0.972-1.008-2.736-0.287-1.872-1.404-5.472-0.432-8.028 0.9-2.556 4.428-4.248 5.869-7.164 1.223-3.096 1.475-8.028 2.158-10.476 0.613-2.376 1.189-3.708 1.729-3.852 0.5-1.08 1.04-2.2 1.58-3.31z" fill-rule="evenodd" i:knockout="Off" stroke="#FFFFFF" clip-rule="evenodd" fill="#FFFFFF"></path><path d="m276.32 219.01c-0.793-1.584-2.701-1.728-5.58-0.432-3.025 1.188-8.244 3.492-11.916 7.884-3.744 4.356-7.236 12.42-10.189 17.784-3.023 5.148-3.383 9.504-7.738 13.212-4.5 3.636-12.889 5.436-18.506 8.892-5.543 3.492-9.863 7.092-14.903 11.484-5.256 4.14-10.008 8.316-16.2 13.896-6.336 5.688-16.236 14.184-21.096 19.367-4.824 4.896-7.128 7.74-7.74 10.332-0.72 2.629 1.584 4.213 3.456 5.148 1.656 0.791 4.176 1.764 7.164 0 3.06-1.943 7.2-7.057 11.052-10.621 3.744-3.563 7.236-7.416 11.592-10.439 4.32-3.096 11.052-7.488 14.364-7.775 3.096-0.324 4.573 2.34 4.86 5.904 0.18 3.42-2.304 10.332-3.168 15.047-0.9 4.645-1.98 8.209-1.98 13.068-0.108 4.859 1.008 13.68 1.548 15.768 0.468 1.836 0.9-0.576 1.44-4.176 0.396-3.707 0.648-11.627 1.583-17.496 0.936-6.012 1.584-12.779 4.033-17.783 2.268-5.041 4.643-6.588 9.898-12.023 5.256-5.617 15.156-14.725 21.492-20.665 6.264-5.976 11.988-10.116 15.768-14.904 3.492-4.932 4.717-9.216 6.049-14.22 1.332-5.112 1.297-11.808 2.125-15.912 0.791-4.068 1.512-6.984 2.447-8.604 0.06-0.91 0.1-1.81 0.17-2.74z" fill-rule="evenodd" i:knockout="Off" stroke="#FFFFFF" clip-rule="evenodd" fill="#FFFFFF"></path><path d="m192.73 280.53c1.836-1.404 3.744-3.168 5.868-5.436 2.016-2.376 5.328-5.94 6.588-8.316 1.224-2.412 1.512-3.816 0.864-6.012-0.828-2.412-3.564-5.472-5.004-7.776-1.404-2.34-3.204-3.6-3.312-6.012-0.216-2.556 2.124-5.616 2.016-8.892-0.252-3.384-1.728-7.848-3.456-10.908-1.98-3.204-5.76-6.84-7.452-7.452-1.8-0.612-1.368 2.304-2.736 3.888-1.44 1.548-3.852 3.312-5.436 5.004-1.692 1.512-3.492 3.132-3.888 4.32-0.36 1.044 0.684 1.152 1.728 2.268 0.936 1.008 2.232 2.304 3.888 3.888 1.584 1.584 4.464 3.168 5.292 5.436 0.612 2.16-1.764 5.4-1.152 7.488 0.648 1.944 2.736 2.448 4.608 4.284 1.8 1.692 4.68 3.744 5.58 6.444 0.684 2.7 0.252 5.904-1.296 9.756-0.9 2.67-1.81 5.33-2.7 8.03z" fill-rule="evenodd" i:knockout="Off" stroke="#FFFFFF" clip-rule="evenodd" fill="#FFFFFF"></path><path d="m195.43 272.79v0.144" i:knockout="Off" stroke="#FFFFFF" fill="none"></path><path d="m185.96 338.64c-1.548 0.611-2.988 1.799-4.86 3.563-1.908 1.801-4.464 4.248-6.012 6.912-1.62 2.449-2.124 5.041-3.168 8.172-1.152 3.098-3.132 9.037-2.88 10.332 0.216 1.152 2.808-1.008 4.32-3.168 1.404-2.34 2.736-6.66 4.284-10.043 1.548-3.42 3.78-8.244 4.752-9.9 0.828-1.619 0.828-1.801 0.144-0.145 1.12-1.91 2.28-3.82 3.43-5.72z" fill-rule="evenodd" i:knockout="Off" stroke="#FFFFFF" clip-rule="evenodd" fill="#FFFFFF"></path><path d="m194.27 340.94c-1.944 1.441-3.564 3.061-5.004 5.004-1.44 1.945-2.592 4.141-3.456 6.588-1.044 2.27-0.828 4.572-2.268 7.057-1.584 2.377-5.04 4.859-6.624 7.164-1.62 2.195-2.844 4.717-2.844 6.156-0.18 1.295 0.54 2.844 2.304 1.871 1.728-1.188 5.832-4.932 7.884-8.172 1.908-3.313 2.448-7.596 3.852-11.195 1.404-3.637 2.844-7.129 4.464-10.477 0.55-1.34 1.13-2.67 1.7-4z" fill-rule="evenodd" i:knockout="Off" stroke="#FFFFFF" clip-rule="evenodd" fill="#FFFFFF"></path><path d="m200.75 348.25c-1.224 0.863-2.34 2.627-3.744 5.58-1.44 2.809-2.268 8.027-4.428 11.771-2.34 3.637-6.732 7.596-8.604 10.477-1.872 2.879-2.448 5.543-2.16 6.588 0.18 0.9 1.692 0.936 3.708-1.008 2.016-2.197 5.58-6.48 8.172-11.053 2.412-4.572 4.572-9.971 6.48-16.199 0.18-2.06 0.36-4.11 0.57-6.16z" fill-rule="evenodd" i:knockout="Off" stroke="#FFFFFF" clip-rule="evenodd" fill="#FFFFFF"></path><path d="m138.37 381.8c-2.88-2.953-5.652-6.59-8.604-11.053-3.096-4.645-6.984-9.9-8.892-15.625-1.908-5.723-2.304-12.311-2.304-18.215-0.108-6.012 0.792-11.881 1.872-17.209 0.936-5.328 2.088-10.115 4.032-14.76 1.872-4.752 4.68-9.9 7.308-13.5 2.556-3.816 5.184-6.229 7.884-8.604 2.628-2.304 5.724-3.6 7.74-5.436 1.836-2.016 2.484-4.176 3.456-6.336 0.828-2.232 0.792-4.572 1.692-6.444s2.232-4.464 3.6-4.572c1.26-0.18 2.268 1.332 3.996 3.708 1.692 2.34 4.176 7.128 5.904 10.332 1.656 3.096 3.636 4.752 3.852 8.028 0 3.277-1.368 8.353-2.988 11.197-1.584 2.592-4.392 3.707-6.48 4.715-2.232 0.938-3.456-0.395-6.588 1.297-3.312 1.691-9.324 4.787-12.6 8.748-3.276 3.852-5.436 8.963-7.056 14.363-1.8 5.365-2.844 12.492-3.42 17.496-0.54 4.752-0.54 7.596-0.144 11.449 0.288 3.852 1.008 7.631 2.016 11.482 1.044 3.744 3.348 8.82 4.14 10.764 0.684 1.801 0.684 1.801 0 0.145 0.5 2.67 1.04 5.34 1.58 8.04z" fill-rule="evenodd" i:knockout="Off" stroke="#FFFFFF" clip-rule="evenodd" fill="#FFFFFF"></path><path d="m144.38 390.55c0.864 0.539 2.304 1.26 4.32 2.303 1.98 0.936 5.436 1.98 7.596 3.709 2.088 1.691 4.356 5.146 4.716 6.479 0.072 1.117-1.62 1.404-3.276 0.865-1.656-0.721-4.608-2.809-6.336-4.32-1.764-1.584-3.096-3.061-4.14-4.717-0.94-1.43-1.91-2.87-2.88-4.31z" fill-rule="evenodd" i:knockout="Off" stroke="#FFFFFF" clip-rule="evenodd" fill="#FFFFFF"></path><path d="m114.14 372.76c-0.216 2.16-0.216 4.932-0.288 8.461-0.144 3.492-0.468 8.207 0 12.492 0.396 4.176 0.18 7.631 2.556 12.455 2.304 4.68 8.172 11.557 11.34 15.768 2.952 4.176 4.5 5.293 7.02 9.037 2.376 3.563 6.3 8.244 7.884 12.492 1.44 4.139 1.368 8.027 1.44 12.49 0.072 4.393-0.864 10.549-0.864 13.896-0.18 3.24-0.36 5.293 0.288 5.869 0.684 0.504 2.484-1.369 3.744-2.844 1.152-1.584 1.98-4.572 3.312-6.193 1.296-1.584 2.592-3.096 4.572-3.42 1.944-0.432 5.076 1.152 7.02 0.865 1.8-0.289 3.6-0.793 4.032-2.881 0.36-2.377-0.216-6.84-1.728-10.477-1.62-3.672-4.752-7.523-7.596-11.16-2.952-3.814-6.66-7.451-9.324-10.764-2.7-3.313-4.608-6.229-6.3-8.604-1.8-2.447-2.952-3.672-3.888-5.328-1.044-1.691-2.268-4.32-1.728-4.572 0.468-0.359 3.024 1.188 4.752 2.557 1.656 1.26 3.096 2.988 5.148 5.184 2.016 2.123 3.708 4.896 6.732 7.885 2.916 3.023 7.056 7.02 10.764 9.898 3.636 2.773 6.948 5.113 10.764 6.732 3.708 1.512 8.28 2.232 11.34 2.305 2.88 0.072 4.932-0.504 6.3-2.016 1.188-1.729 0.648-6.336 1.728-7.596 1.044-1.262 2.988 0.504 5.004 0.287 1.908-0.359 4.752-1.08 6.732-2.016 1.98-1.045 4.716-2.52 4.896-3.852 0-1.477-0.432-3.061-4.608-4.32-4.32-1.404-14.112-2.232-20.628-3.457-6.66-1.332-12.132-1.871-18.648-4.139-6.66-2.412-14.616-6.121-20.376-9.613-5.796-3.707-10.296-7.307-13.896-11.34-3.744-3.924-6.192-8.027-7.884-12.168-3.18-3.96-6.38-7.92-9.58-11.92z" fill-rule="evenodd" i:knockout="Off" stroke="#FFFFFF" clip-rule="evenodd" fill="#FFFFFF"></path><path d="m216.23 427.84c0.07 0.863 2.123 1.584 6.154 2.016 3.996 0.432 10.801 0.576 17.93 0.576 7.02-0.072 16.344-1.008 24.227-1.008 7.813-0.107 15.877 0.18 22.393 0.863 6.408 0.576 13.607 2.27 15.912 3.133 2.16 0.756-0.504 1.512-2.736 1.873-2.303 0.395-5.291 0.539-11.051 0.287-5.941-0.469-16.74-2.305-24.084-2.592-7.525-0.359-12.961 0.719-19.908 0.719-6.949-0.07-13.896-0.504-21.24-1.15-2.51-1.55-5.03-3.13-7.59-4.72z" fill-rule="evenodd" i:knockout="Off" stroke="#FFFFFF" clip-rule="evenodd" fill="#FFFFFF"></path><path d="m215.8 435.01c0.938 0.9 2.988 1.801 6.301 2.305 3.203 0.467 5.76 0.936 13.355 1.008 7.668 0.035 24.121-0.432 32.256-0.432 7.957-0.182 10.297-0.361 15.48 0 5.041 0.467 11.953 1.223 14.904 2.412 2.844 1.043 4.068 2.986 2.305 3.887-1.801 0.648-4.572 0.793-13.32 0.721-9.072-0.037-28.945-0.324-39.6-1.008-10.584-0.828-18.145-2.125-23.221-3.889-2.81-1.67-5.61-3.32-8.46-5.01z" fill-rule="evenodd" i:knockout="Off" stroke="#FFFFFF" clip-rule="evenodd" fill="#FFFFFF"></path><path d="m238.3 448.65c0.361 0.107 2.342 0.287 6.48 0.396 3.961 0.07 10.945 0.07 17.641 0.143 6.66-0.107 16.379-0.576 22.355-0.287 5.869 0.215 10.729 1.08 12.781 2.303 1.871 1.262 1.906 4.141-1.152 5.186-3.205 0.898-10.189 0.898-17.496 0.143-7.381-0.936-15.949-2.52-26.244-5.184-4.79-0.9-9.58-1.8-14.37-2.7z" fill-rule="evenodd" i:knockout="Off" stroke="#FFFFFF" clip-rule="evenodd" fill="#FFFFFF"></path><path d="m222.25 449.77c3.42-0.145 7.631 0.289 12.779 1.297 5.221 1.043 11.988 3.096 17.785 4.607 5.615 1.367 9.719 2.412 15.768 3.709 5.975 1.188 16.416 2.016 19.799 3.6 3.168 1.547 1.404 4.752-0.287 5.723-1.836 0.756-5.508 0.793-10.188-0.576-4.861-1.439-11.197-5.363-17.641-7.451-6.443-2.268-15.084-4.031-20.232-5.291-5.076-1.297-8.568-2.018-10.332-2.16-2.5-1.16-4.98-2.31-7.46-3.46z" fill-rule="evenodd" i:knockout="Off" stroke="#FFFFFF" clip-rule="evenodd" fill="#FFFFFF"></path><path d="m225.56 456.68l0.287-0.287" i:knockout="Off" stroke="#FFFFFF" fill="none"></path><path d="m207.63 447.78c2.196 1.262 5.4 2.594 9.755 4.141 4.32 1.621 10.369 3.348 15.912 5.041 5.473 1.475 12.961 2.807 16.777 4.139 3.635 1.332 1.979 2.305 5.436 3.744 3.42 1.26 10.764 2.592 15.229 4.141 4.248 1.547 9.395 3.131 10.727 5.039 1.189 1.836-0.504 5.041-3.131 5.869-2.881 0.719-7.236 0.791-12.924-1.297-5.76-2.268-13.428-7.992-20.773-11.627-7.307-3.672-14.867-6.912-22.822-10.008-4.73-3.04-9.45-6.1-14.2-9.17z" fill-rule="evenodd" i:knockout="Off" stroke="#FFFFFF" clip-rule="evenodd" fill="#FFFFFF"></path><path d="m196.58 453.65c0.756-0.936 2.772-0.936 5.904 0 3.132 1.043 7.704 2.951 12.888 5.58 5.113 2.447 10.297 5.975 17.496 9.18 7.129 3.133 19.008 6.516 24.805 9.324 5.652 2.664 8.531 5.004 9.035 6.732 0.361 1.619-3.6 3.455-6.588 3.168-3.131-0.504-6.084-2.592-11.771-5.293-5.832-2.736-14.76-6.408-22.5-10.619-7.848-4.285-15.552-9.109-23.796-14.76-1.81-1.07-3.65-2.19-5.48-3.31z" fill-rule="evenodd" i:knockout="Off" stroke="#FFFFFF" clip-rule="evenodd" fill="#FFFFFF"></path><path d="m179.51 453.8c1.476 1.15 4.104 2.916 8.028 5.436 3.96 2.447 9.9 6.768 15.192 9.467 5.22 2.557 10.26 4.609 15.517 6.445 5.004 1.799 9.18 2.232 14.76 4.607 5.436 2.447 14.473 6.625 18.359 9.469 3.781 2.664 4.896 5.65 4.717 6.588-0.396 0.684-2.305 0.252-6.012-1.441-3.709-1.691-9.938-6.084-15.77-8.459-6.047-2.412-12.635-3.492-19.223-5.869-6.552-2.482-14.904-5.723-19.8-8.891-4.932-3.205-8.28-6.697-9.9-10.332-1.95-2.36-3.9-4.7-5.88-7.04z" fill-rule="evenodd" i:knockout="Off" stroke="#FFFFFF" clip-rule="evenodd" fill="#FFFFFF"></path><path d="m220.8 485.48c0.648-0.252 2.664 0.324 6.049 1.727 3.42 1.332 10.691 4.5 14.184 6.445 3.348 1.764 5.4 3.672 5.869 4.752 0.215 0.936-1.801 2.16-3.709 1.584-1.98-0.613-4.932-3.492-7.309-5.041-2.375-1.656-4.535-3.131-6.623-4.572-2.8-1.63-5.61-3.24-8.46-4.9z" fill-rule="evenodd" i:knockout="Off" stroke="#FFFFFF" clip-rule="evenodd" fill="#FFFFFF"></path><path d="m210.37 485.91c2.953 0.936 6.335 2.375 10.583 4.463 4.213 2.018 11.449 5.473 14.365 7.74 2.627 2.232 3.383 4.969 2.268 5.438-1.152 0.287-5.365-1.225-8.604-3.277-3.277-2.051-6.805-4.967-10.729-8.891-2.64-1.8-5.27-3.63-7.89-5.47z" fill-rule="evenodd" i:knockout="Off" stroke="#FFFFFF" clip-rule="evenodd" fill="#FFFFFF"></path><path d="m206.04 488.22c3.132 1.654 6.192 3.563 9.468 5.723 3.275 2.16 7.451 4.645 9.756 7.057 2.053 2.232 3.564 5.4 3.023 6.443-0.611 0.973-3.744 1.477-6.479-0.576-2.916-2.16-6.266-6.227-10.477-12.203-1.76-2.13-3.52-4.29-5.29-6.44z" fill-rule="evenodd" i:knockout="Off" stroke="#FFFFFF" clip-rule="evenodd" fill="#FFFFFF"></path><path d="m204.17 494.94c2.088 0.756 4.248 2.484 6.48 5.041 2.231 2.592 6.012 7.92 6.875 10.439 0.648 2.447-0.863 4.717-2.16 4.031-1.295-0.863-3.708-6.516-5.292-9.18-1.584-2.844-3.024-5.146-4.176-7.307-0.56-1-1.14-2.01-1.72-3.02z" fill-rule="evenodd" i:knockout="Off" stroke="#FFFFFF" clip-rule="evenodd" fill="#FFFFFF"></path><path d="m205.9 497.97v0.143" i:knockout="Off" stroke="#FFFFFF" fill="none"></path><path d="m192.87 491.09c3.816 3.385 6.552 6.156 8.748 8.461 2.016 2.23 2.88 3.383 3.708 5.004 0.648 1.475 0.108 2.916 0.864 4.32 0.792 1.295 2.592 2.158 3.744 3.994 1.044 1.908 2.268 4.896 2.556 6.877 0.107 1.801-0.684 3.924-1.548 4.031-1.08-0.072-2.376-1.223-4.032-3.887-1.728-2.736-3.96-8.316-5.58-11.881-1.62-3.6-3.06-6.805-4.176-9.611-1.4-2.4-2.84-4.85-4.28-7.3z" fill-rule="evenodd" i:knockout="Off" stroke="#FFFFFF" clip-rule="evenodd" fill="#FFFFFF"></path><path d="m177.21 481.05c3.168 1.619 6.084 3.959 8.748 7.164 2.7 3.131 5.148 7.883 7.2 11.771 1.872 3.816 1.908 6.66 4.428 11.16 2.484 4.463 8.748 11.807 10.62 15.371 1.692 3.42 1.044 5.004 0.144 5.436-0.936 0.324-3.132-0.18-5.328-3.168-2.304-3.096-5.436-10.15-8.028-15.047-2.664-5.004-5.472-10.477-7.596-14.473-2.196-3.996-3.96-7.199-5.436-9.467-1.57-2.91-3.16-5.82-4.74-8.74z" fill-rule="evenodd" i:knockout="Off" stroke="#FFFFFF" clip-rule="evenodd" fill="#FFFFFF"></path><path d="m189.56 513.88c0.072 2.195 0.684 5.074 1.44 9.035 0.792 3.924 1.98 10.332 3.42 14.221 1.332 3.707 3.24 7.127 4.752 8.314 1.476 1.08 3.636 0.504 3.852-1.727 0.036-2.34-1.656-7.705-3.276-11.773-1.692-4.104-3.888-8.352-6.588-12.744-1.18-1.77-2.37-3.53-3.59-5.33z" fill-rule="evenodd" i:knockout="Off" stroke="#FFFFFF" clip-rule="evenodd" fill="#FFFFFF"></path><path d="m173.5 484.33c1.296 3.203 2.304 6.947 3.312 11.771 1.008 4.717 1.764 11.412 2.412 16.488 0.504 5.039-0.36 8.244 0.72 13.355 1.044 5.041 3.42 11.881 5.472 16.633 1.98 4.645 4.5 9.072 6.156 10.908 1.476 1.619 3.024 1.512 2.844-0.721-0.324-2.305-2.808-7.668-3.996-12.348-1.224-4.789-2.088-10.045-3.168-15.768-1.152-5.797-2.34-13.861-3.564-18.648-1.368-4.859-2.808-8.209-4.32-10.188-1.93-3.81-3.88-7.62-5.86-11.47z" fill-rule="evenodd" i:knockout="Off" stroke="#FFFFFF" clip-rule="evenodd" fill="#FFFFFF"></path><path d="m171.34 500.13c0.684-0.252 1.548 1.799 2.592 6.299 0.9 4.5 3.06 14.4 3.42 20.52 0.36 5.904-0.432 13.105-1.26 15.336-1.08 2.053-3.348 0.037-4.32-2.16-1.008-2.303-1.26-5.76-1.296-11.051-0.108-5.436 0.18-12.133 0.864-20.771 0.01-2.71 0.01-5.45 0.01-8.18z" fill-rule="evenodd" i:knockout="Off" stroke="#FFFFFF" clip-rule="evenodd" fill="#FFFFFF"></path><path d="m166.05 493.94c-0.936 4.68-1.656 9.037-2.304 13.645-0.756 4.465-1.512 8.531-1.584 13.32-0.072 4.752 0.54 12.096 1.152 15.084 0.576 2.879 1.296 4.428 2.16 2.555 0.684-2.088 1.728-8.711 2.16-14.326 0.36-5.617 0.216-12.025-0.144-19.225-0.48-3.66-0.95-7.33-1.45-11.04z" fill-rule="evenodd" i:knockout="Off" stroke="#FFFFFF" clip-rule="evenodd" fill="#FFFFFF"></path><path d="m167.49 504.99h-0.288" i:knockout="Off" stroke="#FFFFFF" fill="none"></path><path d="m159.03 495.38c-1.26 2.447-2.268 6.371-3.024 11.916-0.864 5.471-1.908 16.559-1.872 21.203 0.072 4.572 0.972 5.58 1.872 6.48 0.792 0.791 1.98 1.475 2.736-1.297 0.576-2.916 1.188-10.619 1.26-15.48 0.072-4.932-0.252-9.432-0.828-13.787-0.04-2.98-0.08-6.01-0.15-9.03z" fill-rule="evenodd" i:knockout="Off" stroke="#FFFFFF" clip-rule="evenodd" fill="#FFFFFF"></path><path d="m147.98 502.4c-1.62 0.611-2.628 2.916-3.168 6.912-0.612 4.031-0.792 13.607 0 17.063 0.756 3.313 3.636 5.186 4.608 2.846 0.828-2.557 0.792-13.43 0.72-17.209-0.072-3.744-0.504-5.363-1.152-5.004-0.33-1.52-0.65-3.07-1.01-4.61z" fill-rule="evenodd" i:knockout="Off" stroke="#FFFFFF" clip-rule="evenodd" fill="#FFFFFF"></path><path d="m148.99 507.15h-0.144" i:knockout="Off" stroke="#FFFFFF" fill="none"></path><path d="m83.322 352.57v0.432" i:knockout="Off" stroke="#FF00FF" fill="none"></path><path d="m185.89 89.694c1.548-0.216 3.132-0.36 5.148-0.288 1.98 0 5.904 0 6.48 0.576 0.36 0.432-2.412 1.98-3.744 2.7-1.332 0.684-2.664 1.44-4.14 1.296-1.44-0.324-3.024-1.332-4.608-3.024 0.28-0.396 0.57-0.828 0.86-1.26z" fill-rule="evenodd" i:knockout="Off" stroke="#FFFFFF" clip-rule="evenodd" fill="#FFFFFF"></path><path d="m185.02 90.954h-0.144" i:knockout="Off" stroke="#FFFFFF" fill="none"></path><path d="m168.82 91.674c2.304-0.54 4.608-0.54 7.452-0.144 2.772 0.36 7.164 1.692 8.892 2.592 1.584 0.828 1.224 2.016 0.72 2.736-0.72 0.612-2.304 1.872-4.176 1.44-1.836-0.504-4.176-1.8-6.876-4.032-1.97-0.864-3.98-1.728-6-2.592z" fill-rule="evenodd" i:knockout="Off" stroke="#FFFFFF" clip-rule="evenodd" fill="#FFFFFF"></path><path d="m156.04 94.122c1.62-1.044 3.78-1.476 6.192-1.152 2.412 0.288 5.832 1.62 8.46 2.88 2.484 1.188 6.3 2.844 6.732 4.14 0.216 1.224-2.988 3.024-4.608 2.88-1.692-0.36-2.988-3.276-5.004-4.572-2.088-1.404-4.428-2.376-7.164-3.312-1.51-0.288-3.06-0.576-4.61-0.864z" fill-rule="evenodd" i:knockout="Off" stroke="#FFFFFF" clip-rule="evenodd" fill="#FFFFFF"></path><path d="m146.43 95.562c1.908-0.144 4.212 0.144 7.056 0.72 2.772 0.468 6.984 1.152 9.72 2.736 2.592 1.584 5.904 5.22 6.192 6.732 0.216 1.44-2.808 2.16-4.608 1.584-1.836-0.756-3.708-3.924-6.444-5.616-2.88-1.8-6.192-3.276-10.332-4.716-0.51-0.46-1.05-0.928-1.59-1.432z" fill-rule="evenodd" i:knockout="Off" stroke="#FFFFFF" clip-rule="evenodd" fill="#FFFFFF"></path><path d="m134.41 99.414c1.728-0.576 4.356-0.432 8.028 0.432 3.636 0.864 10.764 2.772 13.608 4.608 2.628 1.728 2.844 4.608 2.448 5.724-0.504 0.936-2.916 1.116-5.004 0.144-2.196-1.224-4.968-4.572-7.344-6.156-2.376-1.512-4.716-2.376-6.876-2.736-1.63-0.63-3.26-1.31-4.87-1.996z" fill-rule="evenodd" i:knockout="Off" stroke="#FFFFFF" clip-rule="evenodd" fill="#FFFFFF"></path><path d="m122.2 104.89c0.972-0.864 3.168-1.152 6.588-0.864 3.456 0.216 10.044 0.756 13.788 2.304 3.636 1.512 6.912 4.68 7.884 6.588 0.72 1.692-1.116 3.96-2.592 4.032-1.548-0.072-3.6-2.484-6.012-4.032-2.52-1.656-5.796-4.392-8.316-5.58-2.484-1.26-4.68-1.836-6.588-1.728-1.58-0.22-3.16-0.47-4.75-0.72z" fill-rule="evenodd" i:knockout="Off" stroke="#FFFFFF" clip-rule="evenodd" fill="#FFFFFF"></path><path d="m102.98 114.07c2.304-0.864 5.22-1.44 8.748-1.728 3.564-0.288 8.1-0.936 12.348-0.144 4.068 0.612 10.296 2.412 12.312 4.032 1.872 1.584 0.54 4.608-0.684 5.58-1.332 0.684-4.464 0.72-7.056-0.288-2.736-0.972-5.796-4.032-8.748-5.148-2.988-1.188-5.904-1.764-8.892-1.728-2.67-0.18-5.33-0.36-8.03-0.57z" fill-rule="evenodd" i:knockout="Off" stroke="#FFFFFF" clip-rule="evenodd" fill="#FFFFFF"></path><path d="m88.505 121.81c1.656-0.972 4.428-1.692 8.316-2.016 3.924-0.432 10.188-0.9 14.76-0.288 4.392 0.54 9.936 2.16 11.628 3.744 1.512 1.476 0 4.68-2.016 5.292-2.124 0.396-6.912-1.152-10.332-2.16-3.636-1.188-7.128-3.024-10.332-3.852-3.132-0.684-5.904-1.008-8.316-0.576-1.224-0.03-2.448-0.06-3.709-0.13z" fill-rule="evenodd" i:knockout="Off" stroke="#FFFFFF" clip-rule="evenodd" fill="#FFFFFF"></path><path d="m69.857 133.58c1.98-1.98 4.032-3.564 6.012-4.752 1.944-1.26 2.844-2.304 5.904-2.592 3.06-0.432 7.164-0.288 12.312 0.432 5.04 0.756 14.58 2.376 17.928 3.6 3.096 0.936 2.232 1.656 1.584 2.736-0.648 1.008-3.24 3.456-5.004 3.852-1.8 0.288-2.376-0.828-5.472-1.548-3.312-0.756-9-2.448-13.464-2.736-4.428-0.36-8.64-0.216-12.78 0.576-2.338 0.14-4.678 0.28-7.019 0.43z" fill-rule="evenodd" i:knockout="Off" stroke="#FFFFFF" clip-rule="evenodd" fill="#FFFFFF"></path><path d="m60.534 141.46c0.36-0.936 1.08-1.8 2.304-2.592 1.116-0.792 1.62-1.836 4.716-2.16 3.06-0.396 8.388-0.396 13.644-0.144 5.184 0.036 13.284 0.324 17.208 1.008 3.78 0.72 5.364 1.729 5.58 3.024 0.072 1.152-3.168 3.456-4.716 4.14-1.62 0.54-2.052 0.36-4.608-0.252-2.628-0.648-6.912-2.772-10.764-3.312-3.852-0.612-7.956-0.612-12.312-0.144-3.676 0.13-7.348 0.28-11.056 0.42z" fill-rule="evenodd" i:knockout="Off" stroke="#FFFFFF" clip-rule="evenodd" fill="#FFFFFF"></path><path d="m52.362 150.07c0.324-0.972 1.044-1.98 2.16-2.88 1.044-1.08 1.872-2.124 4.284-2.736 2.448-0.576 6.3-0.756 10.188-0.54 3.708 0.216 7.956 0.864 12.348 1.548 4.392 0.504 11.664 1.08 13.896 1.728 1.98 0.432-0.54 0.684-1.44 1.728-0.936 1.152-3.06 3.708-3.996 4.608-1.116 0.648-0.54 0.18-2.16-0.288-1.728-0.504-3.24-1.872-7.74-2.304-4.644-0.432-11.016-0.432-19.512-0.144-2.664-0.23-5.328-0.48-8.028-0.73z" fill-rule="evenodd" i:knockout="Off" stroke="#FFFFFF" clip-rule="evenodd" fill="#FFFFFF"></path><path d="m60.246 150.64v0.144" i:knockout="Off" stroke="#FFFFFF" fill="none"></path><path d="m101.83 155.79c0.18-0.828-0.108-1.584-0.72-2.412-0.756-0.936-2.124-2.772-3.132-2.592-1.044 0.18-3.024 2.844-2.736 3.708 0.216 0.792 1.656 1.08 4.32 1.008 0.748 0.06 1.508 0.17 2.268 0.28z" fill-rule="evenodd" i:knockout="Off" stroke="#FFFFFF" clip-rule="evenodd" fill="#FFFFFF"></path><path d="m99.558 155.5h-0.144m0.288 0v0.144" i:knockout="Off" stroke="#FFFFFF" fill="none"></path><path d="m97.11 163.1c-0.252-0.684-1.008-1.44-1.872-2.124-1.044-0.792-2.7-2.484-3.852-2.304-1.224 0.18-3.06 2.016-3.168 2.88-0.18 0.684 1.188 0.972 2.16 1.26 0.828 0.252 1.872 0.252 2.988 0.144 1.224 0.03 2.484 0.07 3.744 0.14z" fill-rule="evenodd" i:knockout="Off" stroke="#FFFFFF" clip-rule="evenodd" fill="#FFFFFF"></path><path d="m92.934 168.86c-1.836-1.728-3.6-2.736-5.436-3.168-1.98-0.468-4.392 0-5.724 0.576s-2.556 2.232-2.016 2.736c0.612 0.432 3.528-0.36 5.148-0.288 1.44-0.036 2.592 0.108 3.6 0.288 1.475-0.04 2.952-0.08 4.428-0.15z" fill-rule="evenodd" i:knockout="Off" stroke="#FFFFFF" clip-rule="evenodd" fill="#FFFFFF"></path><path d="m88.505 176.89c-0.504-0.468-1.8-0.9-3.744-1.008-2.052-0.288-5.796-0.792-8.028 0-2.268 0.756-5.328 3.996-5.148 4.716 0.144 0.612 3.492-0.36 6.012-0.684 2.376-0.396 5.148-0.828 8.316-1.44 0.865-0.51 1.729-1.05 2.592-1.59z" fill-rule="evenodd" i:knockout="Off" stroke="#FFFFFF" clip-rule="evenodd" fill="#FFFFFF"></path><path d="m85.914 178.47h-0.144m0.288 0v0.144" i:knockout="Off" stroke="#FFFFFF" fill="none"></path><path d="m42.174 160.69c0.504-1.332 1.512-2.484 3.024-3.6 1.512-1.26 2.772-2.592 5.868-3.024 3.024-0.54 8.892 0.432 12.06 0.432 2.88-0.144 3.636-0.648 6.156-0.684 2.556-0.072 6.12 0.108 9.036 0.54 2.772 0.324 6.876 0.9 7.74 1.872 0.756 0.9-2.376 2.7-3.024 3.6-0.756 0.756-0.756 1.008-1.404 1.152-0.792 0-0.828-0.144-3.168-0.432-2.52-0.36-6.3-0.936-11.196-1.152-4.968-0.252-10.8-0.072-17.928 0.144-2.377 0.35-4.753 0.75-7.164 1.15z" fill-rule="evenodd" i:knockout="Off" stroke="#FFFFFF" clip-rule="evenodd" fill="#FFFFFF"></path><path d="m76.302 163.67c-2.052-0.432-5.112-0.756-9.324-1.116-4.356-0.504-11.232-1.62-15.912-1.008-4.716 0.612-10.584 3.852-11.772 5.004-1.224 1.152 0.684 1.872 4.464 1.728 3.708-0.468 13.248-2.916 17.64-3.6 4.284-0.612 6.588-0.432 8.028-0.288 1.368-0.036 1.368-0.036 0.144 0.144 2.232-0.27 4.464-0.56 6.732-0.85z" fill-rule="evenodd" i:knockout="Off" stroke="#FFFFFF" clip-rule="evenodd" fill="#FFFFFF"></path><path d="m36.162 163.24c-0.936-0.647-1.944-0.504-3.024 0.432-1.188 1.008-3.528 3.708-3.708 5.04-0.252 1.152 1.332 1.872 2.412 1.728 1.008-0.324 2.16-1.476 3.6-3.456 0.216-1.22 0.468-2.48 0.72-3.74z" fill-rule="evenodd" i:knockout="Off" stroke="#FFFFFF" clip-rule="evenodd" fill="#FFFFFF"></path><path d="m35.441 166.99l-0.144 0.144m0.001 0.14v0.144" i:knockout="Off" stroke="#FFFFFF" fill="none"></path><path d="m29.97 174.01c-1.008-0.54-2.052-0.396-3.132 0.576-1.188 0.864-3.312 3.564-3.456 4.896-0.18 1.26 1.332 2.952 2.448 2.7 1.044-0.396 2.232-1.872 3.708-4.716 0.144-1.16 0.288-2.31 0.432-3.46z" fill-rule="evenodd" i:knockout="Off" stroke="#FFFFFF" clip-rule="evenodd" fill="#FFFFFF"></path><path d="m34.001 180.2c0.216-2.088 0.936-3.636 2.304-5.04 1.296-1.404 2.232-2.412 5.724-3.168 3.42-0.756 10.512-1.08 14.904-1.404 4.284-0.396 7.92-1.656 10.764-1.152 2.808 0.36 6.3 2.52 5.76 3.564-0.828 0.9-4.824 1.152-10.044 2.16-5.256 0.864-12.24 2.016-21.24 3.312-2.699 0.58-5.435 1.15-8.172 1.73z" fill-rule="evenodd" i:knockout="Off" stroke="#FFFFFF" clip-rule="evenodd" fill="#FFFFFF"></path><path d="m68.417 178.47c-0.756 1.116-2.52 1.836-5.436 2.556-3.024 0.576-7.884 0.828-12.06 1.296-4.248 0.288-9.468 0.072-12.888 1.296-3.528 1.26-6.12 4.464-7.632 6.3-1.476 1.728-2.592 4.32-1.26 4.32 1.188-0.144 5.076-3.528 8.604-4.608 3.6-1.116 7.704-1.26 12.312-1.692 4.392-0.468 9.036-0.9 14.076-1.152 1.405-2.79 2.845-5.56 4.284-8.33z" fill-rule="evenodd" i:knockout="Off" stroke="#FFFFFF" clip-rule="evenodd" fill="#FFFFFF"></path><path d="m85.77 182.03c-0.252-0.36-1.44-0.36-3.564 0-2.268 0.324-7.74 0.9-9.468 1.872-1.764 0.792-2.196 3.096-1.008 3.456 1.152 0.36 3.636-0.072 7.74-1.296 2.088-1.33 4.176-2.66 6.3-4.03z" fill-rule="evenodd" i:knockout="Off" stroke="#FFFFFF" clip-rule="evenodd" fill="#FFFFFF"></path><path d="m22.085 186.79c-0.72-0.036-1.62 0.54-2.556 1.584-1.08 1.08-3.348 3.348-3.312 4.572 0.036 1.044 2.16 2.268 3.6 1.872 1.332-0.576 3.636-3.636 4.428-4.464 0.72-0.828 0.72-0.828 0-0.144-0.72-1.12-1.439-2.27-2.16-3.42z" fill-rule="evenodd" i:knockout="Off" stroke="#FFFFFF" clip-rule="evenodd" fill="#FFFFFF"></path><path d="m60.822 190.78c-0.612 1.26-1.872 2.124-4.32 2.592-2.484 0.36-6.516-0.144-10.008 0.144-3.6 0.18-7.272 0.252-10.62 1.728-3.492 1.512-8.676 6.084-9.324 7.308-0.576 1.008 2.772 0.216 5.58-0.432 2.772-0.792 6.588-2.916 10.62-3.456 3.924-0.576 9.9 0.72 12.78 0.288 2.772-0.468 4.104-1.512 3.996-3.132 0.432-1.65 0.864-3.35 1.296-5.04z" fill-rule="evenodd" i:knockout="Off" stroke="#FFFFFF" clip-rule="evenodd" fill="#FFFFFF"></path><path d="m59.525 195.82l-0.144 0.144" i:knockout="Off" stroke="#FFFFFF" fill="none"></path><path d="m81.054 190.06c-1.116-0.468-2.844-0.324-5.184 0.288-2.484 0.648-7.992 2.268-9.036 3.456-1.044 1.044 0.936 2.88 2.736 2.88 1.764-0.144 4.068-1.152 7.452-3.312 1.332-1.09 2.664-2.2 4.032-3.32z" fill-rule="evenodd" i:knockout="Off" stroke="#FFFFFF" clip-rule="evenodd" fill="#FFFFFF"></path><path d="m79.038 198.38c-2.016-0.432-4.212-0.144-6.3 0.864-2.232 0.936-6.48 4.14-6.624 5.184-0.216 0.9 3.78 1.512 5.76 0.864 1.944-0.792 3.852-2.34 5.868-5.04 0.432-0.6 0.863-1.21 1.296-1.86z" fill-rule="evenodd" i:knockout="Off" stroke="#FFFFFF" clip-rule="evenodd" fill="#FFFFFF"></path><path d="m19.098 198.13c-2.592 0.144-4.608 0.9-5.904 2.268-1.44 1.476-2.664 4.788-2.124 5.904 0.54 0.864 3.924 0.54 5.436-0.288 1.476-0.9 2.304-2.628 3.024-5.04-0.144-0.94-0.288-1.87-0.432-2.84z" fill-rule="evenodd" i:knockout="Off" stroke="#FFFFFF" clip-rule="evenodd" fill="#FFFFFF"></path><path d="m19.53 201.11h-0.144m0.288 0.72v0.144" i:knockout="Off" stroke="#FFFFFF" fill="none"></path><path d="m54.954 201.4c-1.368 1.116-3.528 1.98-6.48 2.592-3.024 0.432-8.136 0.396-11.304 0.864-3.204 0.54-5.796 0.612-7.92 2.304-2.268 1.548-4.824 5.508-5.436 7.308-0.684 1.728 0.252 3.564 1.44 3.276 1.116-0.432 2.88-3.996 5.148-5.148 2.124-1.188 4.572-0.648 7.92-1.584 3.276-1.008 7.236-2.484 11.88-4.428 1.584-1.72 3.168-3.45 4.752-5.18z" fill-rule="evenodd" i:knockout="Off" stroke="#FFFFFF" clip-rule="evenodd" fill="#FFFFFF"></path><path d="m76.302 207.41c0.036-0.252-0.72-0.252-2.268 0.288-1.656 0.468-5.436 1.332-7.056 2.592-1.728 1.224-3.78 4.428-2.7 4.752 1.044 0.144 3.96-1.008 8.892-3.6 1.043-1.33 2.088-2.66 3.132-4.03z" fill-rule="evenodd" i:knockout="Off" stroke="#FFFFFF" clip-rule="evenodd" fill="#FFFFFF"></path><path d="m73.854 216.88c-1.404-0.432-2.88-0.144-4.284 0.864-1.548 1.008-4.32 3.888-4.428 5.04-0.252 1.008 2.232 1.62 3.564 1.152 1.332-0.648 2.592-2.052 4.176-4.608 0.324-0.78 0.648-1.61 0.972-2.44z" fill-rule="evenodd" i:knockout="Off" stroke="#FFFFFF" clip-rule="evenodd" fill="#FFFFFF"></path><path d="m54.377 207.59c-0.216 1.224-1.08 2.412-2.88 3.42-1.908 0.9-4.68 1.764-7.74 2.592-3.132 0.828-7.128 1.08-10.332 2.7-3.312 1.62-7.2 4.248-8.748 6.912-1.512 2.448-0.864 7.164-0.288 8.028 0.54 0.648 0.576-1.332 3.312-3.168 2.628-1.908 7.848-5.364 12.312-7.452 4.356-2.088 8.712-3.708 13.5-4.86 0.289-2.69 0.577-5.43 0.864-8.17z" fill-rule="evenodd" i:knockout="Off" stroke="#FFFFFF" clip-rule="evenodd" fill="#FFFFFF"></path><path d="m17.802 212.89c-0.972-0.937-2.268-1.224-4.032-1.008-1.8 0.216-5.112 1.08-6.444 2.448-1.404 1.296-2.484 4.824-1.728 5.724 0.54 0.792 3.564 0.324 5.616-0.432 2.016-0.864 4.212-2.16 6.588-4.284v-2.45z" fill-rule="evenodd" i:knockout="Off" stroke="#FFFFFF" clip-rule="evenodd" fill="#FFFFFF"></path><path d="m8.91 224.51c1.044-1.044 2.232-1.62 3.852-1.584 1.656-0.072 4.644 0.324 5.472 1.584 0.576 1.188-0.792 4.392-1.728 5.868-1.152 1.44-3.06 3.24-4.32 2.88-1.296-0.504-2.16-2.196-2.988-5.472-0.073-1.08-0.18-2.16-0.288-3.28z" fill-rule="evenodd" i:knockout="Off" stroke="#FFFFFF" clip-rule="evenodd" fill="#FFFFFF"></path><path d="m20.394 243.31c0.756-1.512 0.792-2.664 0.108-3.312-0.792-0.756-3.888-2.016-4.284-0.864-0.432 1.116 1.584 6.048 2.16 7.164 0.576 0.864 0.864-1.188 1.152-1.44 0.144-0.252-0.036-0.072 0 0-0.036 0.036-0.036 0.036 0 0.144 0.288-0.54 0.575-1.12 0.864-1.69z" fill-rule="evenodd" i:knockout="Off" stroke="#FFFFFF" clip-rule="evenodd" fill="#FFFFFF"></path><path d="m54.521 218.9c-0.72 0.648-1.98 1.656-4.32 3.024-2.412 1.26-6.12 3.384-9.324 4.86-3.276 1.332-6.984 1.692-9.612 3.456-2.772 1.692-5.004 4.356-6.012 6.588-1.008 2.16-0.54 5.616 0.432 6.048 0.864 0.216 2.808-2.664 5.292-4.464 2.484-2.016 6.156-4.68 9.612-6.444 3.42-1.764 7.884-2.268 10.332-3.6 2.268-1.44 3.276-2.772 3.168-4.428 0.144-1.67 0.288-3.36 0.432-5.05z" fill-rule="evenodd" i:knockout="Off" stroke="#FFFFFF" clip-rule="evenodd" fill="#FFFFFF"></path><path d="m53.082 231.1c0 0.54-1.008 1.404-3.024 2.448-2.052 1.008-6.264 2.34-9.18 3.852-3.132 1.44-6.552 2.844-8.892 5.184-2.376 2.34-4.644 6.876-5.004 8.748-0.324 1.728 0.72 2.988 2.988 1.692 2.088-1.584 6.588-7.38 9.9-10.152 3.276-2.736 6.48-4.752 9.756-6.048 1.152-1.9 2.304-3.81 3.456-5.72z" fill-rule="evenodd" i:knockout="Off" stroke="#FFFFFF" clip-rule="evenodd" fill="#FFFFFF"></path><path d="m53.082 239.85c0.252-0.036-0.9 0.828-3.6 2.736-2.772 1.872-9.108 5.292-12.6 8.316-3.636 2.844-7.236 6.552-8.46 8.892-1.224 2.304-1.584 6.66 1.548 4.86 3.132-1.944 8.64-7.344 16.956-16.344 2.052-2.82 4.104-5.63 6.156-8.47z" fill-rule="evenodd" i:knockout="Off" stroke="#FFFFFF" clip-rule="evenodd" fill="#FFFFFF"></path><path d="m54.377 249.03c-0.972 0.936-2.808 2.52-6.048 5.292-3.276 2.592-9.792 7.56-13.032 10.62-3.24 2.988-5.616 5.328-6.3 7.452-0.72 1.944-0.108 5.616 1.98 4.752 2.088-1.008 6.228-6.12 10.188-10.044 3.816-3.996 7.884-8.316 12.492-13.356 0.217-1.54 0.468-3.13 0.72-4.71z" fill-rule="evenodd" i:knockout="Off" stroke="#FFFFFF" clip-rule="evenodd" fill="#FFFFFF"></path><path d="m57.366 262.21c-0.432-1.584-1.764-1.44-3.852 0.288-2.232 1.8-5.796 6.444-8.892 10.188-3.24 3.672-7.74 8.244-9.612 11.197-1.944 2.699-2.052 3.672-1.44 5.291 0.576 1.549 3.132 4.465 5.148 3.889 1.872-0.9 3.708-4.824 6.48-8.172 2.772-3.421 7.596-8.317 10.044-11.485 2.34-3.168 3.528-5.508 3.852-7.164-0.576-1.35-1.153-2.69-1.728-4.05z" fill-rule="evenodd" i:knockout="Off" stroke="#FFFFFF" clip-rule="evenodd" fill="#FFFFFF"></path><path d="m62.118 276.14c-0.684 1.08-2.268 2.844-4.896 5.58-2.664 2.665-8.28 6.804-10.872 10.476-2.7 3.564-4.428 7.201-4.752 10.908-0.396 3.637 1.764 9.865 2.592 10.764 0.72 0.721 0.144-2.447 2.016-5.902 1.872-3.529 5.904-10.152 8.892-14.617 2.88-4.428 5.472-8.352 8.172-11.772-0.36-1.81-0.756-3.61-1.152-5.44z" fill-rule="evenodd" i:knockout="Off" stroke="#FFFFFF" clip-rule="evenodd" fill="#FFFFFF"></path><path d="m67.554 288.63c-0.792 0.863-2.556 3.203-5.436 7.02-3.024 3.816-9.216 11.34-11.628 15.768-2.304 4.283-2.376 7.488-2.304 10.045-0.108 2.447 0.648 5.219 1.872 4.859 1.008-0.504 2.592-3.637 4.896-7.596 2.34-4.068 6.876-12.672 8.892-16.633 1.908-4.068 2.52-6.553 2.268-7.596 0.468-1.93 0.936-3.88 1.44-5.86z" fill-rule="evenodd" i:knockout="Off" stroke="#FFFFFF" clip-rule="evenodd" fill="#FFFFFF"></path><path d="m72.306 298.49c-1.26 1.871-2.844 4.787-4.896 8.748-2.196 3.924-6.12 10.152-7.452 14.795-1.26 4.572-1.26 11.736-0.144 12.457 1.008 0.396 4.032-3.816 6.156-8.748 1.98-4.932 3.996-11.484 6.048-20.195 0.072-2.35 0.18-4.69 0.288-7.07z" fill-rule="evenodd" i:knockout="Off" stroke="#FFFFFF" clip-rule="evenodd" fill="#FFFFFF"></path><path d="m75.87 309.83c0 1.691-0.432 4.32-1.44 7.885-1.044 3.672-3.348 9.791-4.572 13.5-1.332 3.49-3.168 5.65-3.168 7.451-0.036 1.801 1.296 4.572 2.88 3.023 1.476-1.764 4.824-9.035 6.156-13.211 1.224-4.285 1.656-8.029 1.296-11.773-0.36-2.27-0.756-4.57-1.152-6.88z" fill-rule="evenodd" i:knockout="Off" stroke="#FFFFFF" clip-rule="evenodd" fill="#FFFFFF"></path><path d="m77.021 316.71h-0.144 0.144m0 0.86h0.144" i:knockout="Off" stroke="#FFFFFF" fill="none"></path><path d="m82.782 327.76c0.072 0.432-0.36 2.016-1.296 4.752-1.08 2.809-3.96 8.748-4.608 11.449-0.756 2.482-0.432 3.311 0.576 3.455 1.008 0.072 4.032-0.936 5.184-3.168 1.008-2.377 1.332-6.012 0.972-10.908-0.253-1.83-0.54-3.7-0.828-5.58z" fill-rule="evenodd" i:knockout="Off" stroke="#FFFFFF" clip-rule="evenodd" fill="#FFFFFF"></path></g></g><metadata></metadata></svg> 