<?xml version="1.0" encoding="UTF-8" standalone="no"?> <!-- Generator: Adobe Illustrator 13.0.2, SVG Export Plug-In . SVG Version: 6.00 Build 14948) --> <svg xmlns:rdf="http://www.w3.org/1999/02/22-rdf-syntax-ns#" xmlns="http://www.w3.org/2000/svg" xmlns:cc="http://web.resource.org/cc/" xmlns:xlink="http://www.w3.org/1999/xlink" xmlns:dc="http://purl.org/dc/elements/1.1/" xmlns:svg="http://www.w3.org/2000/svg" xmlns:inkscape="http://www.inkscape.org/namespaces/inkscape" xmlns:sodipodi="http://sodipodi.sourceforge.net/DTD/sodipodi-0.dtd" xmlns:ns1="http://sozi.baierouge.fr" id="scotch_world_xA0_Image_1_" style="enable-background:new 0 0 258.208 246.689" xml:space="preserve" viewBox="0 0 258.208 246.689" y="0px" x="0px"> <g> <path style="clip-rule:evenodd;fill-rule:evenodd" d="m258.21 13.05c-2.677 7.745-11.814 1.438-18.846 3.624-5.292 1.646-10.47 8.654-15.946 10.873-5.779-0.604-9.545 1.234-14.497 0.725-4.462-0.458-7.748-3.659-11.597-3.624-4.441 0.04-10.893 4.014-15.222 6.523-5.788 3.355-8.63 6.999-15.222 10.147-8.939 2.097-19.217 2.776-29.718 1.45-5.178 2.796-7.64 8.307-15.947 7.973-1.664-8.72 4.034-12.192 9.423-15.946 5.211-3.63 8.415-4.054 16.671-3.624 2.771 0.144 5.674 0.799 7.973 1.45 7.465-2.547 11.079-10.663 17.396-14.497 3.91-2.374 8.886-2.235 12.322-5.799 11.729 0.138 18.921 1.219 26.818 5.799 5.768-5.509 12.533-10.648 19.57-14.497 0.16-0.087 0.542 0.03 0.726 0 9.06-1.484 17.64 5.922 26.11 9.423z"></path> <path style="clip-rule:evenodd;fill-rule:evenodd" d="m79.174 76.11c1.365 0.717-0.359 4.416-2.175 4.349 0.694-1.48 1.481-2.868 2.175-4.349z"></path> <path style="clip-rule:evenodd;fill-rule:evenodd" d="m102.37 151.49c1.566 0.147 0.333 9.315 0.725 13.048-1.57-0.15-0.34-9.32-0.73-13.05z"></path> <path style="clip-rule:evenodd;fill-rule:evenodd" d="m95.845 199.33c0.276-1.38 0.922 0.462 0.725 1.449-0.276 1.38-0.922-0.46-0.725-1.45z"></path> <path style="clip-rule:evenodd;fill-rule:evenodd" d="m85.698 237.75c2.193-1.673 7.476-0.256 10.873-0.726-2.194 1.68-7.477 0.26-10.873 0.73z"></path> <path style="clip-rule:evenodd;fill-rule:evenodd" d="m87.147 0.003c3.81-0.136 4.831 4.443 7.973 7.973 3.083 3.464 8.002 5.962 10.147 8.698 1.981 2.526 5.405 10.416 6.523 13.047 1.372 3.227 3.754 7.526 2.175 12.322 3.093 3.188 3.45 9.114 7.248 11.597 4.564 0.94 5.637-1.611 8.698-2.174 25.509-1.832 42.845 4.51 55.812 15.221 7.874-5.027 14.779-10.802 26.818-11.597 8.609-0.569 13.835-0.115 21.021 2.174 3.259 1.039 7.659 1.103 8.698 4.349 1.178 3.342-5.698 4.282-8.698 5.799-2.59 0.309-1.95 3.849-5.799 2.899-3.168 1.61-2.561 2.805-5.799 2.899-4.855 0.141-8.011-7.645-13.047-7.974-5.622 2.834-9.728 7.186-14.496 10.873-5.797-1.53-9.849 2.049-14.497 1.45-6.455-0.832-10.267-8.686-16.671-13.047-7.508-5.112-16.039-8.229-29.718-8.698 2.248 3.482 6.915 3.48 10.148 5.074 20.388 10.052 37.406 29.174 46.389 52.188 3.979 10.192 7.573 22.978 6.523 39.866-0.694 11.188-3.546 22.862-7.248 31.893-5.537 13.505-13.754 24.969-23.919 34.792-4.389 4.24-7.498 6.377-13.772 10.147-2.916 1.753-5.424 4.437-7.973 5.799-14.467 7.73-35.383 12.238-52.913 10.872-27.62-2.152-53.707-17.917-68.134-36.241-2.104-2.673-4.954-5.553-6.523-7.974-0.471-0.725 0.013-2.38-0.725-3.624-0.988-1.667-3.026-3.979-4.349-7.248-5.461-13.495-12.19-28.916-10.873-48.563 1.978-29.3 15.857-52.656 33.357-68.149 4.842-4.287 10.525-6.895 15.222-11.597-0.288-8.776-1.338-16.592-0.725-23.919 1.41-16.85 13.764-27.965 21.745-38.416 3.839 0.993 4.909 4.755 8.698 5.799 4.655-0.42 5.216-4.933 8.697-6.525zm-27.543 34.067c1.285-0.166 3.63 0.73 2.899-1.45-1.652-0.202-2.725 0.175-2.899 1.45zm34.792 3.624c0.215-1.476 1.452-1.931 2.175-2.899-1.81-2.347-5.5 2.225-2.175 2.899zm-2.175-0.724c-1.053 0.396-3.747-0.847-3.624 0.725 1.492 0.727 3.676 2.584 3.624-0.725zm13.769 9.423c1.013-10.148-4.946-5.729-5.799-0.725-0.484 2.842 3.371 5.839 0.725 7.973 4.089-0.502 6.271-2.91 7.249-6.523-0.86-0.114-2.06 0.124-2.18-0.725zm-23.192-1.45c0.902 1.619 7.286 2.633 7.973 0-2.313-2.107-6.532-1.742-7.973 0zm10.148 2.174c0.904 4.529-1.965 8.331 0 11.597 2.65-0.007 3.883-1.432 5.074-2.899-0.908-4.01-1.101-5.47-0.725-9.422-1.481-1.548-2.868 0.204-4.349 0.724zm-35.517 11.597c3.028 0.371 4.911-0.404 6.523-1.45 0.106-3.247-0.078-6.204-1.45-7.973-2.442 2.39-4.623 5.041-5.073 9.423zm23.195-6.523c0.811 4.481 0.296 6.265 0 10.873 2.935 0.779 5.038 0.779 7.973 0-2.096-4.485-0.533-15.95-7.973-10.873zm-5.074 11.598c0.16-0.565 0.607-0.843 1.45-0.725-0.321-4.027-0.211-8.487-2.174-10.873h-2.174c-1.264 4.159-2.505 10.805 2.898 11.598zm35.52-5.075c-7.722 2.072-11.891 10.303-21.02 8.698-2.575 4.764-7.698 1.698-10.873 0.725-6.359-1.948-16.078-0.554-19.571-3.624-20.044 11.365-36.771 26.048-44.939 49.289 2.982 1.367 5.92 2.778 9.423 3.624 5.449-11.705 11.48-22.829 18.846-32.617 1.02-2.539-4.391-2.282-2.175-3.625 0.614 1.078 2.334 1.049 3.625 1.45 3.711-5.953 9.165-10.164 14.497-14.497-3.941 5.723-11 8.329-13.772 15.222 1.126 1.049 3.382 0.967 4.349 2.174-2.688 0.514-3.111-1.238-5.799-0.725-6.116 11.038-13.57 20.738-18.121 33.342 5.533 2.611 10.359 1.399 14.497 0.725 12.09-1.972 18.65 6.977 31.168 6.523 0.746-7.238 3.363-19.13 0.725-26.818-0.576-1.679-3.576-2.092-2.174-4.349-4.132-2.15-7.104-5.46-12.322-6.523-3.409 2.148-4.592 6.522-10.147 6.523 0.718-3.389 4-4.214 5.798-6.523 1.127-2.577-2.462-0.438-2.174-2.175 5.655 2.136 8.669-2.322 11.597-5.074 4.168 0.665 4.322 5.343 7.973 6.523 3.336 0.92 3.514-1.318 5.074-2.174-0.04 0.927-0.929 1.004-0.725 2.174 3.699 0.534 9.321-0.793 10.873 0-4.749 2.576-14.717-1.632-15.946 2.899 7.801 7.196 9.104 21.79 5.798 34.792 7.142 1.499 18.095 0.762 25.369 0 0.441-1.733-0.91-5.259 0.725-5.799-0.355 2.288 1.306 2.56 0.725 5.074 14.196 0.907 21.319-5.259 32.618-7.249 0.225-2.882-1.674-3.641-1.45-6.523-6.619 1.112-7.734 7.729-13.772 9.423-4.943-4.239-15.815-2.547-14.497-13.047 8.269-7.506 14.942-2.152 22.47 0.725-4.221 4.626-16.562 0.209-21.02 2.899 3.043 3.48 9.35 3.697 13.047 6.523 2.174-1.45 4.527-2.722 5.799-5.074 2.441-1.183 5.182-2.066 6.523-4.349-1.588-7.834-5.741-13.104-7.973-20.295-8.75-5.801-16.617-1.079-26.094 1.45-0.69 8.48 4.135 18.946 2.899 28.993-2.275-10.046-2.848-21.796-6.523-30.443-1.733-0.441-5.259 0.91-5.798-0.725 2.8 0.143 5.341 0.026 7.248-0.725 0.016-1.708-1.249-2.134-0.725-4.349 2.495 2.13 2.701-1.517 4.349-2.174 6.473-2.583 14.888-0.061 21.02 2.899-1.11-6.898-5.58-16.593-9.42-23.179zm-43.493 176.86c5.037 0.037 7.937 2.211 13.772 1.449 1.682 1.062-1.416 2.298 1.45 2.175 13.236 1.644 33.237 2.306 42.041-2.175 1.292-1.948-3.192-1.4-0.725-2.174 11.688-3.293 25.058-4.901 29.718-15.222 0.979 0.228 1.384 1.031 2.899 0.725 17.214-15.641 31.967-38.088 34.067-67.409 0.248-3.47 0.347-7.788 0-11.598-3.148-34.532-22.39-59.161-45.665-73.208-0.958 0.009-0.662 1.271-1.449 1.45-0.453-1.721-0.975-3.375-2.899-3.624-6.539-3.368-13.285-6.527-21.745-7.973-0.834-0.857-0.82-2.562-0.725-4.349-3.354 0.27-5.557 1.691-6.523 4.349 4.25 6.622 7.812 13.933 10.148 22.47 2.248 0.87 3.537 0.884 1.45 2.899 1.615 1.284 4.758 1.04 5.074 3.624-1.139 0.069-2.513-0.097-2.175 1.45 4.763 8.526 7.7 18.877 10.873 28.993 8.553-2.561 16.185-6.043 25.369-7.973-3.081-13.349-10.024-22.835-15.946-33.342-7.108 0.87-13.715 6.091-21.021 4.349 6.889-2.775 17.753-1.576 20.295-8.698 6.812 11.552 14.328 22.397 18.846 36.241 3.587 1.135 4.734-3.916 7.249-1.45-1.352 2.031-4.351 2.415-6.523 3.625 4.37 14.958 6.404 32.253 7.973 50.013 4.356-0.718 7.374-2.773 12.322-2.899-2.116 4.166-10.009 2.556-13.771 5.074 0.053 3.678 0.172 7.42-1.45 9.423v-9.423c-10.454 2.593-21.708 4.386-31.893 7.248-1.422 15.975-6.501 28.291-10.873 41.315 13.682-2.265 24.813-7.08 35.517-12.322 0.66-6.329 3.064-11.393 4.349-15.946 0.776-2.752-0.09-6.607 2.899-7.973-1.25 8.172-3.482 15.363-5.799 22.47 3.408 0.796 7.146-3.825 10.873-5.074 1.206-1.209-0.461-5.292 2.174-5.073 1.12 7.369-8.715 9.494-13.771 13.047-1.863 2.244-1.76 6.455-4.349 7.973 0.11-2.305 1.644-3.188 1.449-5.799-10.874 3.623-19.877 9.117-33.342 10.148-4.059 7.47-9.376 16.962-11.597 23.919-4.587-0.266-13.486 3.84-16.671 0 5.679 0.363 10.243-0.388 15.221-0.725 2.567-8.063 7.72-13.542 10.148-21.745-10.884 0.955-20.611 3.067-33.343 2.175-2.022 6.434-3.107 13.805-7.973 17.396 2.074-5.899 5.562-10.385 6.524-17.396-12.653-0.153-22.243-3.368-32.618-5.799 1.488 10.32 6.222 17.43 10.137 25.35zm-12.322-26.09c-9.963-4.533-20.903-8.091-28.269-15.222-2.329-0.446-0.993 2.608-2.899 0.725-3.672-9.858-4.673-22.387-5.799-34.792-3.066-0.338-8.032-2.569-7.248-4.349 2.208 0.785 5.229 3.485 7.248 2.174-1.945-12.032 2.37-26.633 5.074-38.416-3.735-1.097-5.788-3.877-10.148-4.349-1.42 6.915-4.15 13.812-5.074 21.021-2.742 21.387 2.96 41.234 9.423 54.362 6.605 13.417 14.938 22.318 25.369 30.442 3.552 2.767 8.295 6.93 13.047 7.249 1.224 2.843 5.501 5.82 8.698 4.349-3.429-7.43-7.867-13.86-9.422-23.18zm158.74-152.22c-0.332 2.265 1.549 2.317 3.624 2.175-0.031-0.998 0.341-1.592 0.725-2.175-0.92-0.992-3.42-0.992-4.35 0zm-113.8 5.074h1.45c-0.002-0.727 0.587-0.863 0.725-1.45-2.28 0.83-1.761-1.138-2.899-1.45-0.154 1.371 0.829 1.6 0.729 2.9zm84.81 9.423c1.652 0.203 2.725-0.175 2.899-1.45-0.98-0.228-1.385-1.032-2.899-0.725v2.175zm-21.02 39.868c-6.933-0.34-14.09 5.187-22.47 5.798 0.185 4.38 5.866 5.706 6.523 10.873 0.347 2.721-0.684 6.881-2.175 9.423-1.376 2.348-5.604 3.361-6.523 7.248-1.596 6.756 2.823 15.761 0 21.745 9.414-0.531 21.4-4.664 31.893-6.523-2.18-17.67-3.18-32.44-7.25-48.57zm-139.17 8.69c-3.465 10.852-6.751 25.542-5.074 39.141 9.396 2.927 17.936 6.709 28.269 8.698-0.038-7.211-7.568-6.929-6.523-15.222-13.885-1.979-21.767-22.498-8.698-31.168-2.045-1.09-4.532-1.75-7.974-1.45zm92.778 4.35c-5.292 1.137-11.924-0.468-15.946 3.624-0.069-1.139 0.097-2.513-1.45-2.174-7.976 0.48-15.897 1.015-24.645 0.725-0.744 2.155-0.004 5.794-2.174 6.524-2.791-2.142 0.944-5.692-1.45-5.799-3.09-1.259-7.046-1.652-11.597-1.45-1.762 1.62-0.445 6.32-2.899 7.249 0.512-2.388 1.165-4.634 1.45-7.249-4.144-2.282-10.231-1.305-15.222-2.174-2.691-0.469-3.959-1.933-6.523-1.45-6.765 1.274-9.465 9.118-8.698 16.671 6.755 2.667 9.402 9.443 15.946 12.321 6.85 1.293 8.566-2.548 13.047-3.624 0.779-5.74 1.404-9.479 5.799-11.597 1.327-0.64 2.081 0.82 3.624 0.725 2.091-0.131 3.002-3.145 4.349-1.45-5.127 7.021-3.229 20.029 5.074 21.745 7.593-6.179 16.144-11.399 22.47-18.846-1.569-5.554-7.955-1.805-10.873-2.174 1.139-4.177 6.006-4.626 9.423-6.524 5.356 2.678 6.2 7.816 7.249 12.322 3.403 0.219 5.234 3.531 8.698 3.625 2.336 0.062 5.142-2.195 7.973-2.899 5.521-1.373 11.754-1.064 16.671-2.899-0.278-6.97-0.944-13.553-2.175-19.571-6.45-0.71-12.06 3.07-18.11 4.36zm21.75 14.5c9.664-1.433 7.721-19.226-2.174-18.846 0.6 6.4 2.05 11.96 2.17 18.85zm-96.407-16.67c3.397-0.544 8.121 2.993 9.423 0-2.822-0.03-8.019-3.1-9.423 0zm21.745 31.17c1.545-4.011-0.06-11.174 2.174-14.496-10.272-1.29-5.827 11.78-2.174 14.5zm57.262-5.08c0.484 9.424-2.58 15.3-4.349 22.47 7.22-0.753 13.614-2.333 20.295-3.625-0.951-8.511 1.643-17.107 0-23.919-5.82 1.19-10.29 3.72-15.94 5.07zm-24.645 0.73c-2.217-0.526-2.132 1.25-4.349 0.725-4.67 5.145-11.518 10.627-19.57 10.147-6.935-0.413-11.553-5.968-16.671-7.248-4.612 2.555-6.527 9.469-5.074 15.946 2.991-0.461 7.93 1.792 12.322 2.175 1.251-0.44-0.056-3.438 1.45-3.625 11.011 3.2 25.748 0.188 35.517 3.625 1.005-0.445 0.109-2.791 1.45-2.899 1.11 4.188 8.862 1.518 11.598 0.725-1.234-4.621-3.438-11.13-2.175-15.946-2.461-2.612-4.569-5.578-6.523-8.698-4.82-0.87-4.88 2.76-7.985 5.09zm21.025 4.35h2.175v-2.175h-1.45c-0.05 0.92-0.94 1-0.73 2.17zm-3.63 6.52c0.381-1.852 0.961-2.537-0.725-3.624-0.98 0.92-1.11 3.55 0.73 3.62zm-91.328 28.99c2.202 4.322 9.747 7.603 14.497 10.148 5.762 3.088 11.711 6.477 17.396 7.248-0.695-14.043-4.812-24.665-7.249-36.967-10.222-1.858-18.717-5.443-28.269-7.973 2.284 8.82-0.153 20.13 3.625 27.54zm92.778-20.29c1.142-1.077 0.808-3.238-1.45-2.899-0.2 1.65 0.18 2.72 1.45 2.9zm1.45 3.62c-1.076 3.272 1.062 9.761-3.624 9.423-0.883-3.877 1.784-6.93 0-9.423-13.646 5.605-27.085 14.73-44.94 13.771-3.644-2.904-2.333-9.396-2.899-13.771-3.909-0.439-7.208-1.49-11.597-1.449-1.656 5.884-0.744 15.151 3.624 17.396 1.763-1.861 1.2-6.049 3.625-7.248 0.446 3.346-1.627 4.171-1.45 7.248 3.53 1.759 6.919 4.488 11.597 5.074 8.488 1.062 19.157-2.504 27.544-2.175 5.447 0.214 13.611 1.049 15.221 5.799-5.661-0.189-14.853-5.47-18.121 0.725-0.069-1.139 0.097-2.513-1.45-2.175-11.738 1.548-17.042 1.268-30.443 1.45-0.305-1.387-0.263-3.12-2.175-2.899-0.442-0.041-0.858-0.108-0.725-0.725-3.294 2.941-6.527-1.25-7.249 0.725-0.475 5.065 2.102 7.079 1.45 12.322 9.279 4.492 20.638 6.905 34.067 7.248 2.283-0.133 0.928-3.904 3.624-3.624-0.834 0.856-0.82 2.562-0.725 4.349 11.134-0.704 22.235-1.443 32.618-2.899 5.581-12.298 9.197-26.562 11.598-42.04-6.6 0.92-12.93 2.07-19.58 2.91zm-64.51 2.9c-0.438-1.494 1.17-5.035-1.45-4.349 0.439 1.5-1.169 5.04 1.45 4.35zm39.866 0c1.285-0.165 3.63 0.73 2.899-1.449h-2.899v1.45z"></path> <path style="clip-rule:evenodd;fill-rule:evenodd" d="m82.074 72.486c-0.377 1.073-1.073 1.827-1.45 2.899-0.951 0.358-0.318-3.596 1.45-2.899z"></path> <path style="clip-rule:evenodd;fill-rule:evenodd" d="m30.61 203.68c-1.585-1.751 1.374 1.132 2.174 1.449 0.033 3.31-1.53-0.97-2.174-1.45z"></path> <path style="clip-rule:evenodd;fill-rule:evenodd" d="m33.51 206.58c1.863 0.07 1.037 2.829 2.899 2.899-1.03 1.9-2.753-1.53-2.899-2.9z"></path> <path style="clip-rule:evenodd;fill-rule:evenodd" d="m158.9 208.75c1.934 1.516-1.806 3.462-1.449 5.799-1.59-1.18 1.02-4.25 1.45-5.8z"></path> <path style="clip-rule:evenodd;fill-rule:evenodd" d="m70.476 108.73c-7.269 2.369-17.426-1.63-21.745 4.349 2.224 2.366 7.038 2.143 9.422 4.349 3.813-1.261 4.669-5.479 10.148-5.074-1.17 4.387-7.501 3.613-7.249 9.423-4.481-4.458-13.838-4.041-17.396-9.423 6.282-0.685 9.328-8.206 15.222-8.698 2.819-0.235 3.867 2.92 7.248 1.45-0.113 2.77 2.961 2.35 4.35 3.62z"></path> </g> <metadata></metadata></svg> 