<?xml version="1.0" encoding="UTF-8" standalone="no"?> <!-- Generator: Adobe Illustrator 13.0.2, SVG Export Plug-In . SVG Version: 6.00 Build 14948) --> <svg xmlns:rdf="http://www.w3.org/1999/02/22-rdf-syntax-ns#" xmlns="http://www.w3.org/2000/svg" xmlns:cc="http://web.resource.org/cc/" xmlns:xlink="http://www.w3.org/1999/xlink" xmlns:dc="http://purl.org/dc/elements/1.1/" xmlns:svg="http://www.w3.org/2000/svg" xmlns:inkscape="http://www.inkscape.org/namespaces/inkscape" xmlns:sodipodi="http://sodipodi.sourceforge.net/DTD/sodipodi-0.dtd" xmlns:ns1="http://sozi.baierouge.fr" id="scots_clothes_xA0_Image_1_" style="enable-background:new 0 0 194.065 424.439" xml:space="preserve" viewBox="0 0 194.065 424.439" y="0px" x="0px"> <g> <path style="clip-rule:evenodd;fill-rule:evenodd" d="m142.62 123.44c2.155 1.112 1.499 1.932 4.774 1.193-0.155 4.818-1.863 8.083-3.581 11.338-3.664-2.625 2.321-7.549 0.597-10.144-2.469 2.503-1.685 8.261-4.773 10.144 0.02-5.14 3.26-7.08 2.98-12.53z"></path> <path style="clip-rule:evenodd;fill-rule:evenodd" d="m119.94 124.04c2.111-0.32 3.074 0.506 3.58 1.791 0.577 2.932-6.239 4.703-6.563 1.193 1.97-0.56 2.7 0 2.98-2.98zm0.6 2.98h1.193v-1.193h-1.193v1.19z"></path> <path style="clip-rule:evenodd;fill-rule:evenodd" d="m122.92 132.99c-0.097 0.694 0.132 1.062 0.597 1.193-0.386 2.2-2.041 3.13-4.177 3.581-1.24-1.99 0.42-5.3 3.58-4.77z"></path> <path style="clip-rule:evenodd;fill-rule:evenodd" d="m122.33 141.34c-0.051 0.847-0.099 1.69 0.597 1.79-0.784 2.768-6.059 3.346-5.967-0.597 2.74 0.55 2.88-1.49 5.37-1.19z"></path> <path style="clip-rule:evenodd;fill-rule:evenodd" d="m174.24 192.66c-2.004-0.188-5.298-1.735-8.951 0 2.02-2.76 7.73-4.08 8.95 0z"></path> <path style="clip-rule:evenodd;fill-rule:evenodd" d="m111.58 227.27c0.694-0.097 1.062 0.132 1.194 0.598-0.105 1.487 0.129 5.374 0 8.354-0.12 2.763-0.162 6.623-0.597 2.387v-5.37c-0.15-2.02-0.94-3.43-0.59-5.97z"></path> <path style="clip-rule:evenodd;fill-rule:evenodd" d="m107.41 228.46c1.158-0.237 0.872 2.718-0.597 1.79v-1.193c0.51 0.11 0.57-0.23 0.6-0.6z"></path> <path style="clip-rule:evenodd;fill-rule:evenodd" d="m125.31 250.54c0.687-1.931 0.675 1.603 0.597 2.388-0.69 1.93-0.68-1.6-0.6-2.39z"></path> <path style="clip-rule:evenodd;fill-rule:evenodd" d="m100.84 258.3c1.333 5.468 0.24 19.289 0.597 28.047-1.33-5.47-0.24-19.29-0.6-28.05z"></path> <path style="clip-rule:evenodd;fill-rule:evenodd" d="m122.92 271.43c0.228-1.136 0.76 0.381 0.597 1.193-0.23 1.14-0.76-0.38-0.6-1.19z"></path> <path style="clip-rule:evenodd;fill-rule:evenodd" d="m4.771 273.22c2.156-0.564 0.832 2.351 1.193 3.581 1.695 2.879 4.419 4.73 6.564 7.16-4.41-1.76-7.986-4.35-7.757-10.74z"></path> <path style="clip-rule:evenodd;fill-rule:evenodd" d="m122.92 273.82c1.59 2.91-1.97 4.5 0 0z"></path> <path style="clip-rule:evenodd;fill-rule:evenodd" d="m113.38 282.77c0.687-1.931 0.675 1.603 0.597 2.387-0.69 1.92-0.68-1.61-0.6-2.39z"></path> <path style="clip-rule:evenodd;fill-rule:evenodd" d="m87.717 302.46c7.147 3.417 14.23 10.007 11.934 20.886-1.584-5.004-2.188-8.838-4.773-12.531-2.117-3.03-6.065-4.47-7.161-8.36z"></path> <path style="clip-rule:evenodd;fill-rule:evenodd" d="m91.297 309.62c0.694-0.098 1.062 0.131 1.194 0.597 0.53 5.238 2.126 9.41 1.79 15.515-3.364-3.01-1.506-11.23-2.984-16.12z"></path> <path style="clip-rule:evenodd;fill-rule:evenodd" d="m103.83 54.815c-4.986 2.971-5.831 10.082-10.145 13.725 1.193-8.532 5.688-12.867 11.338-17.902 3.662-3.264 6.069-7.158 11.935-6.564-0.812 3.555 1.296 13.02 6.563 8.354-0.392-1.787-1.275 0.571-2.387 0 1.132-2.129-0.325-3.633-1.79-4.774-0.092-1.484 0.938-1.847 1.193-2.983-4.106-7.271-7.829-13.726-10.145-21.482-0.264-2.253 1.177-2.801 1.791-4.177-0.185-1.407-2.073-1.11-1.791-2.983-1.582-0.19 0.559 3.343-1.79 2.387-2.712-4.338 2.494-11.461 4.178-14.918 0.998-2.051 4.39-4.603 7.757-2.983 2.156 4.01 1.439 10.893 5.371 13.128-0.995 3.702-0.606 7.517 1.193 10.741-0.839 6.123-2.801 11.123-4.178 16.708 3.085-2.424 7.499-6.658 12.531-5.967 2.184 0.299 3.071 2.803 5.371 2.983-0.766 7.926 1.017 19.107-4.773 25.063-0.485 0.499-3.838 2.68-5.968 4.177-3.318 2.332-5.704 4.295-9.548 5.37-7.078 1.98-15.021 1.679-22.079 4.177-0.554 7.471-5.097 13.061-7.161 19.692-1.062 3.413-0.415 6.862-4.773 7.161 3.335-8.599 7.952-15.917 9.547-26.256-1.065-1.598-1.614 2.317-2.983 2.387 0.853 5.782-3.086 10.979-5.371 15.515-0.22 1.015 0.465 1.126 1.193 1.193-3.271 2.1-4.261 6.48-7.161 8.951 2.836-7.706 6.602-14.483 10.145-21.482-3.444 1.953-4.938 2.833-10.145 4.177-2.062 0.532-3.81 1.699-5.371 1.79-2.692 0.158-5.249-1.526-7.757-1.193-6.275 0.833-11.019 10.37-17.902 5.371-0.667-3.757 0.146-4.705 1.194-7.757 3.973-1.163 7.256 0.172 10.144-0.597 3.996-1.064 6.005-5.675 11.338-5.371-2.648 2.921-7.034 4.105-10.144 6.564-5.203-0.429-9.458 0.09-10.145 4.177 0.083 1.906 2.662 1.315 3.58 2.387 3.669-2.497 7.214-5.118 11.935-6.564 2.604-2.37 4.146-6.575 8.354-6.564 2.359 0.006 3.073 2.267 5.967 2.387 11.762-4.57 13.661-18.981 20.905-28.05zm13.13-9.547c-7.069 2.48-9.204 13.071-13.725 16.111 2.502-4.459 5.162-8.761 8.354-12.531-2.77 0.949-5.614 3.783-7.16 5.967-2.226 3.145-3.76 7.212-4.774 11.338 2.073 0.249 2.072-4.645 3.581-2.983-1.199 1.188-2.042 2.732-1.79 5.371-1.137-0.256-1.5-1.286-2.984-1.193-0.844 2.137-2.852 4.252-1.791 6.564 3.171-2.399 6.397-4.742 9.548-7.161-0.351 2.3 3.222 0.161 2.387-1.79-1.739-2.32-3.528 1.978-4.177 0.597 3.47-7.472 8.29-13.591 12.53-20.29zm-4.78 19.692c0.263-2.65-1.526-3.248-4.178-2.983v2.387c2.08-0.479 2.3 0.888 4.18 0.596zm2.99-15.515c-1.544 4.23-7.185 7.528-6.564 11.935 2.01-3.638 8.89-7.808 6.56-11.935zm17.3-5.37c1.015-2.355 4.158-4.209 1.79-5.968-0.142 3.124-0.78-0.65-0.597-0.597-4.056-1.179-5.168 5.671-5.37 10.145 1.026 0.235 1.529-0.886 1.79 0-1.578 0.629-3.044 6.999-4.177 4.177-2.091 2.086-6.087 2.268-8.951 3.581 0.074-1.494 1.139-1.868-0.597-2.387-1.51 1.873-3.868 2.895-4.177 5.967 2.307-0.08 2.354-2.42 4.177-2.983 0.953 2.609 5.562-0.957 7.16 0-0.463-0.134-1.177-0.017-1.193-0.597 2.49 0.434 3.251-2.761 2.388 0.597 5.17-0.271 6.07-8.014 7.76-11.935zm-1.79 13.724c2.086-6.467 6.674-10.433 6.564-19.095-2.808 1.03-3.067 4.539-4.178 7.161-1.544 3.647-3.893 6.518-4.177 10.741-0.557 0.637-2.201 0.186-1.79 1.79 0.943 1.842 2.645 2.924 5.967 2.387-0.772-3.378 2.423-5.904 1.193-7.757-1.24 1.536-1.44 4.12-3.57 4.773zm-1.19-18.498c-1.238-1.583-3.471 0.865-4.177 1.79 1.97-0.023 4.22 0.244 4.18-1.79zm-16.71-14.322c2.681 3.883 3.576 9.552 5.967 13.725 1.672-4.642-0.766-11.089-1.193-17.305-0.37-5.383 0.589-10.254-2.983-11.338 0.43 8.007-2.29 8.766-1.8 14.918zm8.35 7.758c0.004 3.455-1.823 7.556 1.193 8.354 0.419-5.35 1.915-9.623 2.984-14.322-0.762-2.957-3.521-6.634-1.791-10.144-3.273 1.086-1.889-2.487-4.177-2.387-1.3 6.459 1.8 12.111 1.8 18.499zm0.6 10.144c-0.127 1.775 2.128 2.104 2.984 1.194 0.42-2.067-2.09-2.141-2.98-1.194zm2.98 7.161c1.537-1.116 4.023-6.06 1.193-7.757-0.16 2.441-2.14 6.18-1.19 7.757zm-4.17-2.387c1.74 0.877 1.74-2.667 0-1.79v1.79zm6.56 13.724c0.508-3.491-2.113-3.854-4.774-4.177-1.199 3.938-3.669-0.7-6.563 1.193-0.304 2.491 3.125 1.25 2.983 3.581 1.995-1.422 4.646 1.5 5.37-1.194-0.162-2.092-2.642 1.078-2.387-0.597-0.533-1.926 1.946-0.838 2.387-1.79-0.14 2.126 0.86 3.121 2.98 2.984zm-16.11-1.193c0.068 2.12 1.976 2.401 4.178 2.387 0.501-0.693 0.787-1.6 0.597-2.984-2.06-0.261-3.35 0.236-4.78 0.597zm4.77 2.984h1.79c0.88-1.741-2.67-1.741-1.79 0zm-2.38 7.757c2.692-0.397 4.451-0.398 8.354-0.597-0.135-4.245-3.765 1.198-5.37-1.193 1.537-0.85 3.376-1.398 3.58-3.581-3.37 0.61-5.52 2.441-6.56 5.371zm-7.76 1.79c0.998 1.579 4.041-1.465 2.387-2.387-0.55 1.052-2.2 0.986-2.39 2.387zm-13.129 4.774c2.956-0.794 0.931-2.818 0 0zm-1.791 4.774v1.193c1.469 0.928 1.755-2.026 0.597-1.79-0.034 0.365-0.089 0.707-0.597 0.597zm-19.095 4.177c3.826 1.399 9.087 1.367 10.741-2.387-4.269-1.926-8.778-2.08-10.741 2.387zm16.112-2.387c0.938-0.057 2.069 0.08 1.79-1.193h-1.193c0.001 0.598-0.484 0.71-0.597 1.193zm-4.177 1.791c2.01 1.812 1.809-2.207 0 0z"></path> <path style="clip-rule:evenodd;fill-rule:evenodd" d="m132.47 42.284c1.93-2.791-3.09 4.475 0 0z"></path> <path style="clip-rule:evenodd;fill-rule:evenodd" d="m118.75 50.042c2.81 0.932 0.79 2.957 0 0z"></path> <path style="clip-rule:evenodd;fill-rule:evenodd" d="m82.943 98.377c0.042 3.025-2.11 3.857-2.387 6.564-1.746-0.81-1.937-1.535-2.984 0.597-1.592-1.248 1.487-2.85 1.193-4.774-2.942 1.831-2.569 6.979-7.757 6.564-4.907 2.652-7.303 7.815-13.725 8.951-0.915-4.893 1.675-6.281 1.79-10.145 5.396-1.22 7.598-8.642 13.725-7.161-6.409 3.337-12.258 7.235-14.321 14.918 1.992 0.599 1.957-0.828 1.79-2.387 4.79-0.979 5.561-5.976 11.338-5.967 2.237-1.145 1.444-5.318 4.177-5.967-0.279 2.108-1.507 3.267-2.387 4.774 3.764 0.9 3.747-8.793 9.548-5.973z"></path> <path style="clip-rule:evenodd;fill-rule:evenodd" d="m159.92 118.67c-0.312 6.452-5.923 7.604-7.161 13.128 3.145 1.537 5.739-2.603 6.564-5.371 3.654 2.156 6.942-4.125 4.177-8.354-1.352-2.067-3.334-1.676-4.773-3.58 8.501-1.325 11.366 11.465 2.387 14.918 0.152 1.239 2.621 0.163 2.983 1.193 3.543 6.196 4.191 14.218 7.161 21.482 0.535 1.31 1.858 2.224 2.387 3.581 1.286 3.306 1.668 7.386 2.983 11.338 2.054 6.173 4.791 12.724 4.773 21.482-0.009 4.664-1.897 9.9-1.79 14.322 0.039 1.583 1.364 2.562 0.597 4.177-6.102 2.035-11.445 0.322-15.515 2.387-0.134-12.443-6.515-21.67-4.773-34.014-2.756-4.007-7.287-6.239-5.968-14.321-2.656 2.293-2.784 5.904-4.177 8.951-3.812 8.333-9.429 16.122-14.322 23.869-1.749 0.041-2.216 1.364-2.983 2.387 2.925 8.612 5.474 17.601 10.741 23.869 1.028 3.745 1.377 8.171 4.774 9.548 0.244 1.438-1.09 1.297-0.597 2.983 5.075 7.937 8.432 20.909 5.967 32.82-1.358 0.432-3.049 0.532-4.177 1.193-3.316 5.694-9.992 6.751-17.306 7.16-1.985 0.411-0.961-1.233-0.597-1.79-5.78 2.558 1.038 14.105-3.58 17.902-0.838 2.856 1.512 5.609 0 7.16-2.884-0.089-0.848-3.321-1.79-4.177-2.49 2.124-5.28 2.029-7.161-0.597-0.366 5.402-5.598 5.939-5.37 11.935-1.922 0.131-2.525-1.056-4.774-0.597-2.686-15.678-4.083-42.151-2.983-63.253 0.859 0.667 1.456 0.643 1.79-0.597-2.271 1.525-0.53-4.596-0.597-7.758 0.977 1.996 0.428 3.74 3.58 2.387-0.043 4.134 0.521 8.875-4.177 8.354 2.604 12.674-0.242 20.354 1.79 33.417 0.58-0.017 0.463-0.73 0.597-1.193 1.389 5.374 0.202 13.324 0.597 19.691 0.885-2.819 1.946-6.804 2.387-10.741 0.284-2.533-1.222-6.292 1.194-7.757 0.243 4.221-1.062 6.894-0.597 11.338 0.58-0.017 0.463-0.73 0.597-1.193 1.616 2.759-2.74 1.11-1.791 5.37 1.104-0.09 0.366-2.021 1.194-2.387 0.821 2.034-1.544 6-1.791 8.951 4.391-0.724 3.773-3.35 5.371-8.951 0.534-1.873 1.848-5.596 1.193-8.951-0.463-2.373-0.911-2.831-0.597-5.967 0.25-2.491 0.014-4.686 0-7.161-0.008-1.423-1.012-4.21 0.597-4.774v9.548c1.07 1.281 0.537-2.994 0.597-2.983 1.922 0.335 0.39 13.369 1.193 13.725 3.447-14.129 0.745-32.278 4.177-45.352 1.442 7.389 0.987 18.965 1.193 29.24-0.479-0.316-0.968-0.623-1.79-0.597-0.137 9.014-5.664 20.284 0 26.256 2.233-0.435 3.938-3.677 4.178-5.967 0.146-1.401-0.91-1.624-1.193-2.984-1.543-7.396 2.142-17.792 2.983-23.869-2.289-9.461-0.69-21.133-0.597-29.239 2.797 0.608 3.394-0.982 4.773-1.79-2.211-1.784-2.784-1.653-4.773 0-3.11-4.812-8.506-6.424-15.515-5.968-2.506 0.678-2.995 3.37-7.161 2.387-4.191 1.976-1.217 11.116-2.983 15.516 3.47-0.319 0.07 7.295 0.597 11.338-4.049-1.048-0.094-6.433-1.193-10.145-4.041-1.057-2.834 3.134-2.984 5.967-0.606 5.859-0.587-4.974-1.194-6.563-2.107 0.278-5.749-0.976-5.37 1.79-0.613 2.005 1.855 0.929 2.983 1.193 1.824 0.923-2.588 0.525-3.581 0.597 0.19 1.384-0.096 2.291-0.597 2.983 0.498 1.69 3.667 0.71 4.774 1.79-0.346 2.837-0.862 5.503-0.597 8.951-0.769 0.822-2.592 0.591-4.177 0.597-1.355 3.941 2.449 2.723 2.984 4.774-0.867 0.326-3.084-0.697-2.984 0.597-0.367 3.151 3.748 1.822 5.371 2.983 0.387 2.397 0.645 4.925 1.79 6.563 2.421-4.941 0.036-11.864 0.597-17.305 2.189 1.641 1.193 6.559 1.193 10.145 0 3.766 0.176 7.577 0 11.338-0.142 3.045-1.241 6.211-0.596 8.951 1.065 4.523 6.458 5.65 4.177 10.144-2.237-0.746-2.336-3.631-4.177-4.773-2.75-0.363 0.354 5.128-2.984 4.177-0.185-2.373 1.378-2.997 1.193-5.37-3.776-4.928 0.702-8.233 1.194-13.725-1.217 0.374-0.167 3.015-2.387 2.387-0.608-0.784-0.585-2.2-1.193-2.983-6.633 0.467-9.91-2.423-14.918-3.581-3.45-2.517-0.162-11.771-5.371-12.531-1.887 0.924 0.748 3.582-0.597 4.178-2.203-1.179-4.175-2.588-7.161-2.984-0.959 0.24 0.023 3.502 0.597 4.178 2.166 0.574 0.501-2.682 2.387-2.387 2.2 0.386 3.13 2.041 3.58 4.177 1.284 1.104 4.058 0.716 3.581 3.58-4.046-1.324-8.81-1.931-11.935-4.177-1.434-12.681 4.342-23.027 7.757-32.82-0.388-0.606-1.372-0.617-1.193-1.79-2.561 0.423-2.156 3.812-2.983 5.967-4.153 2.178-2.232 4.812-3.581 8.354-1.033 2.714-4.125 6.362-5.967 10.145-3.255 6.683-4.742 13.64-11.338 16.708-3.957 1.841-8.585 0.581-13.725 1.791-8.751 2.06-14.026 10.668-22.079 13.725-1.487-0.502-3.197-0.781-5.371-0.597-0.601-2.49-1.724-3.126-4.774-4.178-4.938-8.415 1.447-19.021 5.967-25.062 1.382 1.379-1.237 4.389-2.387 7.161-1.712 4.129-5.516 13.926-0.597 17.901 2.183 0.13 2.289 0.82 4.177 0-0.144 1.05-1.026 1.36-2.387 1.194 8.57 2.2 12.424-5.475 18.499-7.758-1.344-2.038-5.55-1.214-7.161-2.983-3.08 0.5-3.352 3.809-4.774 5.967-1.822-2.642 1.33-5.415 2.983-6.563-2.142-0.644-2.16-3.409-3.58-4.774-2.107 1.823-4.602 5.25-3.581 8.354-3.982-0.98-0.129-6.468 1.193-7.758 0.716-2.666 0.177-6.586 1.194-8.951-2.793 0.788-2.577 4.584-5.371 5.371 3.995-5.95 5.861-14.029 10.144-19.692 7.384-5.545 13.258-12.601 25.66-13.128 2.307-0.08 2.354-2.42 4.177-2.983 5.323 0.549 7.489-2.059 9.547-4.774-5.088-9.635 3.518-17.404 8.354-22.675-0.465-8.362 3.687-14.767 8.354-19.095 2.129-1.976 4.287-3.644 7.757-4.177 1.301-1.086 1.086-3.688 2.387-4.774 2.493-0.503 2.818 1.16 4.774 1.193 0.406-0.64 1.007-6.551-1.791-5.967 2.681-1.894-0.042-9.191 1.791-11.935-2.204-2.951-2.624-2.172-5.967-2.387-8.445 7.269-10.876 20.552-19.692 27.45v2.387c-6.329 4.412-5.575 15.907-9.547 22.676-0.638 2.229 1.481 1.701 1.193 3.58-5.587 1.112-12.198 2.545-17.902 0-1.014-3.993 1.912-9.073-0.597-10.741 3.427-8.784 5.359-14.704 7.757-25.063 1.281-5.535 4.737-10.679 7.757-16.111 2.887-5.193 5.463-10.122 10.145-13.725 0.82-0.631 2.078-0.409 2.984-1.193 4.648-4.028 7.421-10.615 13.725-13.128 0.595-1.593 1.63-2.746 2.387-4.177 5.716-1.664 11.785-3.125 16.708-5.967 2.569-1.483 4.463-4.381 7.161-4.177 0.27 3.298-4.635 4.958-7.758 6.564-3.34 1.717-7.315 3.475-10.741 4.177 1.586 3.387 5.887 4.059 5.371 9.548-3.19-1.982-3.762-6.582-7.757-7.758-8.15 3.586-11.771 11.7-19.692 15.515-12.802 11.664-17.474 31.458-23.869 49.529 4.193-0.34 10.147-2.696 13.725 0-3.647-0.28-9.86 0.468-14.322 1.193 0.072 4.647-1.874 7.276-1.193 12.531 3.916-0.37 8.995-3.507 12.531-0.597 5.358-8.765 5.459-22.786 11.338-31.03 4.122-3.635 7.7-7.814 9.548-13.725 3.619-4.337 6.87-9.043 8.951-14.918 3.326-0.454 3.482-4.077 6.564-4.774-0.414 0.481-0.928 1.634 0 1.79 3.267 0.681 1.498-3.674 4.177-3.581-0.168 1.066 0.564 1.225 0.597 0.597 0.855 10.619-3.275 20.444-1.193 30.434 0.628 3.016 0.924 8.928 1.79 13.725 11.96-4.708 18.158-20.802 26.853-29.836-0.018-1.972-2.519-1.459-2.983-2.984 0.721-2.063 2.339-3.23 4.773-3.58 0.917 2.906-2.188 1.791-2.983 2.983 5.293 3.04 7.434-4.86 10.741-8.354 2.072-2.189 4.616-3.23 6.563-4.774 0.414-0.481 0.929-1.634 0-1.79 3.09-2.399 7.274-0.028 11.935-0.597 2.782-3.583 3.423-9.308 5.371-13.725-0.297-4.08-6.61-2.142-7.758-5.371 3.141-0.753 3.538 1.236 5.968 1.194-0.297-3.483-4.54-3.02-8.354-2.984 0.628 5.933-1.697 12.645-4.177 17.305-1.852-2.904 2.805-8.943 2.387-14.321-1.765 4.7-3.351 9.457-5.371 14.321-0.53 1.279-0.838 3.634-2.387 4.177-0.237-6.255 5.418-11.651 5.968-19.096-0.808-1.58-3.346-1.429-4.774-2.387-6.316 2.825-21.203 5.749-27.449 1.193-0.522-4.5-1.257-9.134 1.79-11.338 4.033 1.415 14.602-1.002 20.886 0 2.39 0.381 2.863 3.672 4.773 1.194 0.828 0.763 0.365 2.817 1.193 3.58 3.104-1.87 6.391-3.555 9.548-5.371 7.499 0.458 12.061 3.853 14.321 9.548 1.67 1.911 4.822 2.339 5.371 5.371-0.508 0.11-0.562-0.233-0.597-0.597-0.9-0.92-1.8-1.81-2.99-2.41zm-3.58-0.6c-3.456 0.828-3.636 7.136-0.597 8.354 0.6-2.22 3.52-6.34 0.6-8.35zm-77.574 66.24c1.111-0.082 1.995-0.393 2.387-1.194-1.561 0.168-2.567-0.218-2.387-1.79-7.192 3.748-12.417 9.462-13.128 19.692 3.135-0.246 1.994-4.769 4.177-5.967 0.155 1.747-1.349 1.833-1.193 3.581 3.149-0.829 3.707-4.25 5.967-5.967 0.134 0.463 0.017 1.177 0.597 1.193 1.186-1.201 2.823-1.951 3.58-3.58-2.111-1.047-3.074 2.004-3.58 0.597 0.883-0.111 0.547-1.442 0.597-2.387-1.494-0.788-1.868 2.359-2.387 0.597 0.922-3.056 3.232-4.724 5.371-6.564-0.001 0.59-0.001 1.19-0.001 1.79zm-2.387 13.72c8.222-0.331 11.028-6.078 16.112-9.548-5.907 0.337-2.419-8.72-5.371-11.338h-3.581c-0.276 1.912-2.272 2.104-2.387 4.177 0.669 0.126 0.929 0.662 1.193 1.193 3.437-0.062 1.549-3.135 3.58-3.58-0.89 3.4-1.501 4.844 0.597 7.161-2.977-2.872-4.536 0.962-5.967 2.983 2.604 0.895 4.949-0.265 6.564 0.597-1.802 0.785-4.763 0.41-6.564 1.194-0.344 1.049 0.721 3.506-0.597 3.58v-2.983c-2.992 1.185-5.357 2.997-6.564 5.967 1.746 2.076 3.807-2.604 4.774-1.193-0.858 0.34-1.455 0.93-1.789 1.79zm6.564-14.32c-2.648 1.131-4.553 3.005-5.371 5.967 2.806-0.98 4.312-3.25 5.371-5.97zm-4.177 1.19c-0.893 1.096-2.49 1.488-2.983 2.983 1.978 0.35 4.319-1.98 2.983-2.98zm56.094-68.02c3.938-0.041 4.176-3.781 5.968-5.967 0.633-0.618 4.261-1.232 2.387-2.387-3 2.58-7.67 3.48-8.36 8.36zm20.88-0.6c-1.189-2.997-4.649-6.875-7.16-6.564 2.76 1.81 2.8 6.35 7.16 6.56zm-17.9 1.79h1.193c0.033 0.364 0.089 0.707 0.597 0.597 0.822-0.769 0.591-2.592 0.597-4.177 3.609-0.43 6.111-2.884 9.548-1.791-3.19-6.53-11.1 0.52-11.94 5.37zm-28.64-0.6c2.485 0.129 3.061-7.882 0.597-7.161-0.8 1.79-0.61 4.57-0.6 7.16zm8.35-7.16c-0.893 0.102-2.202-0.213-2.387 0.597 0.9-0.1 2.21 0.21 2.39-0.6zm7.76 1.79c0.176 2.322-1.546 4.721 0 6.564 1.405 0.014 1.757-1.028 3.58-0.597-0.426-3.011 0.815-4.356 1.193-6.564-2.05-0.26-3.34 0.24-4.77 0.6zm5.97 4.78c2.378-0.068 1.187-5.618-0.597-5.371 0.28 1.52-2.17 5.16 0.6 5.37zm-18.5 1.79c0.255-1.787 2.332-6.971-0.597-6.564 0.23 1.73-1.83 5.1 0.6 6.56zm1.79 0c1.128-0.134 1.316 0.673 2.387 0.597-0.071-1.383 1.307-4.933 0-7.161h-2.387v6.56zm3.58 0c1.581-0.28 2.984-6.19 0.597-6.564-0.72 1.66-0.66 4.11-0.6 6.56zm2.39 0h2.983c1.106-1.281 0.403-4.371 0.597-6.564h-2.983c0.07 2.45-1.04 3.73-0.6 6.56zm23.87-4.18c0.362 1.03 2.831-0.046 2.984 1.193-2.509 0.555-5.559-2.092-6.564 0.597 3.881-0.513 10.278 0.05 10.741 4.774 2.282 0.094 1.939-2.437 2.983-3.581-0.588-1.601-3.756-0.62-4.773-1.79 0.728-0.068 1.412-0.179 1.193-1.193-2.95-0.95-3.72-1.58-6.56 0zm-7.76 55.49c1.128-0.134 1.316 0.672 2.387 0.597 1.888-5.121 8.523-8.519 7.757-14.321 2.748 0.759 0.952-3.026 2.388-3.581 0.093 0.702-0.103 1.694 0.597 1.79 0.312-3.2 3.87-8.529-0.597-9.547h2.983c-1.062-3.847 2.34-8.617-1.193-9.548-0.407 3.208-6.606 7.346-2.387 9.548h-2.984c-0.702 3.673-3.104 5.647-4.177 8.951 2.525 0.537 0.607-3.371 2.983-2.983-0.828 0.763-0.365 2.817-1.193 3.58 0.893 0.699 2.44 0.742 2.983 1.791-1.825 0.433-1.755-1.03-3.58-0.597-0.97 5.8-4.92 8.61-5.97 14.32zm4.18-14.91c-1.661 4.562-6.523 8.913-6.564 13.128 3.17-3 7.21-8.3 6.56-13.13zm20.88-17.31c-1.226 1.874-2.156 3.279-2.983 5.37-1.025 2.589-1.164 3.053-2.388 4.774-4.13 5.814 0.01 10.343 2.388 14.918 2.48 4.776 5.029 9.776 5.37 16.112-0.692-0.501-1.6-0.787-2.983-0.597 0.626 10.115 5.571 15.91 4.773 27.449 4.372-0.799 7.53-2.813 11.935-3.58 2.392-14.735-1.226-27.474-4.177-36.401-2.164-6.545-3.821-11.136-5.371-16.708-1.087-3.911-1.288-7.856-3.58-11.338-0.99 0.01-1.98 0.01-2.98 0.01zm-28.05 7.76c-0.686 1.671-0.686 3.102 0 4.774 4.407-0.964 4.762-5.98 7.758-8.354 1.561 0.168 2.566-0.218 2.387-1.79-7.759-2.223-12.326 4.139-16.708 8.951-5.339 5.863-9.392 11.978-13.725 17.902-2.36 3.226-4.387 6.039-5.968 8.951 0.887 0.505 0.863 1.921 1.193 2.984 5.623-2.93 9.31-7.797 13.128-12.532-0.182-2.031-2.673-4.851-1.193-6.564-0.226 2.613 1.706 3.068 1.79 5.371 2.226 0.634 0.945-2.238 2.984-1.79 0.503-2.493-1.16-2.818-1.194-4.774 1.684 0.107 0.745 2.836 2.984 2.387 0.935-3.896 9.359-7.621 4.773-11.338-1.052 1.751-2.623 6.104-4.177 5.371 3-2.19 2.59-7.76 5.97-9.55zm10.75-1.79c-3.044 2.127-4.893 5.451-5.967 9.547 4.32-0.32 4.64-6.42 5.97-9.55 0.562-1.325 2.977-1.492 1.193-2.984-1.78-0.13-2.1 2.12-1.19 2.98zm-14.92 21.48c1.026-0.032 1.529 0.459 1.79 1.193 3.936-2.628 6.005-7.124 7.758-11.935 0.002-0.599-0.483-0.71-0.597-1.193-3.87 3.1-7.02 6.91-8.95 11.94zm6.56-12.53c-3.083 2.294-6.771 7.145-7.161 10.145 2.93-2.83 5.31-6.23 7.16-10.14zm0-0.6c2.789-1.397 5.432-6.092 5.37-8.354-1.7 2.87-4.48 4.67-5.37 8.35zm-48.93 4.18c0.858-3.526 3.358-8.565 2.983-11.338-0.478 3.91-5.023 6.9-2.983 11.34zm-2.984-3.58c1.927 0.296 3.213-3.098 1.79-4.177-1.032 0.96-2.172 1.81-1.79 4.18zm65.644 2.39c-2.16 2.81 3.49 0.79 0 0zm-4.78 9.54c-1.383 2.386-3.905 4.811-4.177 7.758 5.761 0.041 6.546-9.655 9.548-14.322-3.53 0.16-4.06 4.31-5.37 6.56zm16.71 7.76c-1.48-4.885-4.285-8.445-6.564-12.532-0.41 4.47 1.86 11.21 6.56 12.53zm-37-5.37c1.196-0.054 3.44-2.053 1.79-2.984-0.18 1.4-2.07 1.11-1.79 2.98zm11.34 13.73c-2.811 0.372-3.477 2.889-4.774 4.774 2.7-0.29 5.44-3.03 4.77-4.77zm-31.63 24.46c0.702 0.093 1.693-0.103 1.79 0.597-2.063 0.473-2.52-0.663-3.58-1.193-0.094 0.702 0.103 1.694-0.597 1.79-6.197-1.267-10.191 3.875-17.902 2.984-0.256 1.137-1.286 1.499-1.193 2.983 0.953 0.883 3.642 0.135 4.774-0.597-3.106-0.915 4.966-1.796 5.371 0 13.138-4.565 27.877-7.528 37.594-15.515-0.077-3.24 1.537-5.696 3.58-3.581 5.158-9.363 12.226-16.815 15.516-28.046-2.196 2.129-3.194 5.128-4.774 7.758-4.169 6.938-8.454 12.604-16.111 15.515-0.633 2.948-3.462 3.699-4.177 6.564 0.007 0.789 1.046 0.545 1.193 1.194-4.368-1.711-7.936 3.22-8.354 5.37-3.814-0.814-6.111 3.017-7.758 2.387 1.575-1.409 4.288-1.679 4.774-4.177-4.58 0.79-7.96 2.78-10.14 5.98zm14.33-13.72c-1.95 1.83-5.265 2.293-6.563 4.774 1.463 0.526 3.238 0.739 3.58 2.387 2.921-3.322 1.999-0.384 4.773-2.387-0.88-1.31 0.07-4.45-1.79-4.77zm-6.57 5.96c-4.626 0.944-8.033 3.106-10.741 5.967 5-0.57 8.47-2.67 10.74-5.97zm13.13-27.45c1.096 0.893 1.487 2.491 2.983 2.984 0.916-2.067 3.008-2.959 2.983-5.967-2.26-2.68-5.85-0.03-5.96 2.99zm4.18 4.18c2.158 1.087 3.459-3.104 4.773-4.774-0.763-0.033-0.826-0.765-1.79-0.597-0.34 2.44-2.75 2.82-2.98 5.37zm-5.97-3.58c-3.02 4.937-8.187 7.726-11.337 12.531 1.614 1.568 2.307 4.058 5.37 4.177 3.478-4.081 6.839-8.278 9.548-13.128-0.69-1.69-1.23-3.54-3.58-3.58zm7.76 5.97c0.763 0.829 2.817 0.365 3.58 1.193-0.198-2.723 2.11-3.014 2.388-6.564-3.26-1.66-4.68 3.13-5.97 5.37zm-14.92-2.39c-2.4 2.249-7.311 5.189-5.371 7.161 3.347-2.621 5.58-6.355 8.354-9.548-1.62-0.23-1.85 1.33-2.98 2.39zm19.1 5.97c4.551 0.174 5.373-3.379 6.564-6.564-3.77-1.62-4.96 4.07-6.56 6.56zm-17.31 8.95c2.933-0.844 4.844-3.843 6.564-5.967 1.764-2.177 4.078-4.69 4.773-7.757h-1.79c-2.06 5.7-6.77 8.74-9.54 13.73zm-34.014 13.72c0.74 3.32-0.357 4.265 0 5.967 4.469-1.499 11.227-0.708 13.725-4.177-2.485-1.488-6.032 3.759-9.547 1.193 2.425-0.558 5.125-0.843 7.161-1.79-0.293-2.89-2.354-4.011-4.177-5.371-2.32 1.47-4.592 2.98-7.162 4.18zm20.284-19.69c2.194-0.392 2.972-2.2 4.177-3.58-1.46-0.529-0.646-3.332-2.983-2.984-5.59 9.329-15.088 14.749-23.272 21.482 3.349-0.423 1.575 0.572 1.79 2.983 3.017 1.091 4.401-3.176 6.564-4.773-1.111-0.571-1.994 1.787-2.387 0 1.217-0.176 1.17-1.615 2.387-1.791 0.144 1.05 1.027 1.36 2.387 1.194 0.058-1.931 2.705-1.274 1.79-4.177 4.297 0.63 6.251-6 9.541-8.35zm-7.753 10.15c2.996-1.977 6.159-3.786 7.758-7.161-3.29 1.67-5.511 4.43-7.753 7.16zm34.013-16.12c-3.165 4.99-7.44 8.87-10.741 13.725 1.83 1.531 3.14-1.279 4.774-1.791-0.188 0.807-0.85 1.14-0.598 2.387 3.543-2.828 8.163-7.744 8.354-11.935-2.42 3.04 1.59-2.27-1.78-2.38zm-25.66 8.96c2.192-0.99 4.702-1.663 4.773-4.774-2.19 0.98-4.7 1.65-4.77 4.77zm10.15 4.17c1.587-2.604-3.111-4.034-3.581-6.564-2.437 0.944-4.629 2.133-5.37 4.773 1.238 1.945 2.791 3.574 3.58 5.967 2.535-1.244 5.834-1.725 7.161-4.177-1.03-0.23-1.53 0.89-1.79 0zm-18.503 5.97c1.351 1.633 2.279 3.688 3.58 5.371 3.431-1.146 5.523-3.627 8.951-4.774-0.871-3.505-2.552-6.2-4.773-8.354-1.97 3.2-5.52 4.82-7.763 7.75zm-2.983 1.19c-0.353 1.596 1.862 5.118 4.774 5.371 0.772-1.512-1.623-4.098-2.387-5.967-1.039-0.04-1.856 0.14-2.387 0.6zm-23.869 2.99c2.551 0.753 3.042 0.047 4.177-1.79-1.339-1.17-4.289-0.32-4.177 1.79zm5.967 1.19c1.665 0.523 2.947 1.428 4.774 1.79-0.22-2.805 4.235-0.937 2.983-4.774-3.219 0.36-5.736 1.42-7.757 2.98zm0.597-2.98c-4.4 1.04-0.359 5.08 0 0zm-6.564 7.75c-0.002 0.599 0.483 0.71 0.597 1.194 2.201-0.783 2.836-3.131 3.58-5.371-2.131 0.66-3.523 2.05-4.177 4.18zm1.79-4.77c-0.705-0.688-2.109-0.676-3.581-0.597-0.758 1.665-1.471 2.948-0.597 4.774 2.891 0.11 3.317-2.24 4.178-4.17zm60.865 8.95c0.512 1.417-0.938 3.036 1.193 3.58 0.393-0.801 1.275-1.111 2.388-1.193-0.553-4.619-2.266-8.078-4.178-11.337-0.259 2.981-1.055-0.463-2.387 0-1.72 3.69 1.87 5.84 2.99 8.95zm-76.38 29.24c-1.644 0.136-3.036 0.974-4.177 2.983 0.728 0.067 1.413 0.179 1.193 1.193-3.587 0.192-5.479 2.079-6.564 4.773 1.581 1.204 1.814 3.756 4.773 3.581 1.521-3.851 4.105-6.637 7.758-8.354 1.768-6.831 4.105-12.623 5.967-18.499 1.318-4.16 1.299-9.047 4.774-11.338-3.336 8.599-5.605 18.265-8.354 27.45 4.866-2.744 6.422-7.801 8.354-13.725 2.128-6.525 3.963-12.021 7.161-17.306-0.53-0.176-2.613-1.614-1.193-1.79 1.186 0.994 0.759-0.054 2.387 0 0.1-1.69 1.094-2.487 1.193-4.177-1.72-0.269-1.866-2.112-4.177-1.79-2.401 2.833-2.891 8.49-4.177 10.741-2.373-0.6-0.573-3.596-0.597-5.37-4.495 1.473-5.5 6.434-7.161 10.741-3.132 4.032-6.206 11.294-6.564 16.111 0.537-0.345 1.441-3.217 1.791-1.79-0.875 2.13-2.651 3.33-2.387 6.58zm26.853-34.61v-2.387c-1.954-0.12-2.356 2.8 0 2.39zm94.287-1.19c-1.049 0.343-3.506-0.721-3.58 0.597 1.05-0.35 3.5 0.72 3.58-0.6zm-119.95 21.48c3.765-5.584 6.205-12.492 10.144-17.901-0.741-1.249-1.735-2.243-2.983-2.984-3.785 4.95-12.357 12.67-7.161 20.88zm22.078-16.11c1.384 0.19 2.291-0.096 2.984-0.597 0.117-1.709 0.074-3.257-1.79-2.984-0.147 1.6-2.514 2.27-1.194 3.58zm34.608-1.79c3.102 0.08 5.252 1.113 8.354 1.193 0.9-4.4-7.6-3.63-8.35-1.19zm9.55 1.19c0.279 2.108 1.508 3.267 2.388 4.773 1.775-0.213 3.027-0.95 4.177-1.79 0.386-2.375-1.579-2.398-1.193-4.773-2.86-0.46-2.66 2.13-5.38 1.79zm-24.465 8.95c-1.448-0.343 0.28-3.86-1.791-3.581-2.018 1.762-5.506 2.053-6.564 4.774 1.527 2.068 7.702 1.265 10.145 0.597 1.172-2.042 1.278-4.445 2.983-6.564 1.728-2.147 7.017-3.213 4.773-5.37-3.46 3.09-8.908 4.21-9.535 10.14zm-55.496-8.95c-0.403 2.153 5.039 1.508 4.774 0-2.336 0.59-3.465-1.32-4.774 0zm76.381 1.19c-3.973-2.018-13.676-0.29-16.111 4.773-1.336 2.777-0.215 5.204 0 8.354 6.501-0.777 11.195-3.358 17.901-2.387 2.029 0.756 2.879 2.69 5.371 2.983-2.51-5.09-2.12-11.14-7.16-13.71zm-42.368 1.2c0.185 4.342-1.934 8.406-3.581 12.531 3.76-3.202 6.076-7.849 7.758-13.128-0.488-1.2-3.146 0.38-4.177 0.6zm-39.384 0.6c-0.044 0.975 7.833 2.073 8.354 0.597-1.909-0.7-8.274-2.34-8.354-0.6zm10.741 0c-0.763-0.032-0.826-0.765-1.79-0.597-0.928 1.47 2.027 1.75 1.79 0.6zm78.171 4.77c1.493 1.502 2.343-0.686 4.177-0.598 0.98-4.81-4.82-2.62-4.18 0.6zm6.56 5.97c0.108-1.302-0.488-1.898-1.79-1.79 0.276 2.509 0.012 5.559 1.79 6.563 0.586-0.806 1.593-1.192 2.388-1.79-2.312-2.288-1.107-6.076-0.598-8.95 2.766 0.615 1.325 5.438 4.178 5.967-1.214 1.68-1.069 2.448-0.597 4.773 1.75 0.687 2.216-2.861 2.983-1.193-0.76 2.049-4.033 4.015-1.79 7.161 2.105-0.082 2.668-1.708 4.773-1.79-1.548-7.005-5.433-11.674-7.757-17.902-1.834 0.155-2.684 1.295-4.178 1.79-0.87 3.1 2.69 4.85 0.61 7.16zm-58.474-4.18c0.086-0.705 1.062-1.354 0-1.79-0.087 0.71-1.063 1.35 0 1.79zm56.694 1.19c0.911-0.855 0.581-3.11-1.193-2.983-0.1 1.48-0.12 2.89 1.19 2.98zm-36.406 1.79c-4.413-0.393-6.252-2.815-9.548 0-0.068-2.915-2.272-3.694-4.773-4.177-3.257 4.898-7.121 9.189-8.951 15.515 4.915-1.053 4.03-7.904 7.757-10.145-0.766 0.784-0.766 2.2 0 2.983 1.851 0.203 2.851-1.381 4.177 0 0.651-1.537 1.508-2.868 2.984-3.58-0.344 1.248-1.479 1.703-1.194 3.58 3.353-2.161 6.09 1.693 8.354-0.597-0.961-0.67-5.058-1.254-3.581-2.387 0.959 1.23 5.579 2.35 4.775-1.19zm32.226-0.59c1.773 0.71 2.563-2.516 1.193-2.983-0.25 1.13-1.7 1.07-1.19 2.98zm-32.226 5.96c3.937 0.356 5.312-1.848 5.371-5.37h-4.178c0.23 3.29-1.151 1.89-1.188 5.37zm-22.079 10.75c-0.503 3.077-2.691 4.47-2.387 8.354 2.142-0.352 2.887 0.693 4.177 1.193 0.846-2.622 0.373-3.879-1.791-4.773 1.471 0.078 2.875 0.09 3.581-0.597 0.706-3.29-2.068-3.1-3.58-4.17zm7.161 1.79h1.193c-0.125-2.971 1.571-5.039 0.597-7.161-1.88-0.288-1.351 1.831-3.581 1.193-0.731-2.75 1.828-5.294 0-7.161-1.376 3.994-3.793 6.948-5.371 10.741 3.361 2.38 4.593 0.1 7.162 2.39zm-1.79 0c-0.343 1.247-1.479 1.703-1.193 3.58 2.252 1.255 3.305-0.653 3.581-2.983-1.041 0.04-1.857-0.14-2.388-0.6zm50.724-5.97c3.406-1.598 9.659-2.753 8.354-7.161-3.48 1.69-7.03 3.31-8.35 7.16zm-82.351 6.56c1.528-0.296 4.953-1.765 3.58-2.984-0.869 1.32-3.194 1.18-3.58 2.98zm-1.79 5.97c4.645-1.123 7.145-4.392 8.951-8.354-3.795 1.64-10.353 3.47-8.951 8.35zm8.951-9.55c1.491-2.885 1.824-6.928 3.581-9.548-4.372 2.591-7.138 6.786-13.128 7.758-0.618 1.57-0.714 3.662-0.597 5.968 3.794-0.98 4.644-4.9 10.144-4.18zm31.03-8.95c0.251 1.142 0.216 2.569 1.791 2.388 1.304-0.088 1.281-1.504 1.193-2.984-1.384-0.2-2.292 0.09-2.984 0.59zm5.967 5.37c2.179-0.209 0.924-3.85 1.791-5.371h-1.791v5.37zm1.194 7.16c0.867 0.922 3.055 0.525 4.773 0.597 0.755-4.02 1.487-8.061 2.387-11.935-6.65-2.78-6.639 6.03-7.16 11.34zm7.16 1.2c2.952-1.433 2.306-9.618 1.791-12.531-1.39 3.08-2.676 9.11-1.789 12.53zm-15.515-1.2c4.956 0.859 2.695-8.284 3.581-9.548h-2.984c-0.428 2.96-0.819 5.95-0.597 9.55zm54.904-5.37c-0.081-1.908 0.588-4.566-1.79-4.177-1.04 1.21-1.13 5.1 1.79 4.18zm-9.55 1.79c1.993 1.41 4.571-0.722 6.564-1.193 0.62-5.6-6.25-1.22-6.56 1.19zm13.13 12.53c-0.134 1.129 0.673 1.316 0.597 2.388 3.155-0.227 4.107-2.656 7.161-2.984-0.532-6.43-3.254-10.67-5.371-15.515-1.295 1.291-3.642 1.53-4.773 2.983 0.858 3.12 1.467 6.489 1.193 10.741 4.117 0.338 3.792-3.767 7.161-4.177 0.09 4.28-4.89 3.48-5.97 6.57zm-129.5 12.53c1.474-2.786 4.457-4.597 5.967-7.757 0.792-1.658-0.426-4.884 2.387-5.371-0.31 0.939-2.297 3.196-0.597 4.178 2.98-5.175 8.271-8.04 11.935-12.531 1.004 2.059 6.112-2.196 6.564 1.193-2.633-0.247-4.611 0.162-5.967 1.193 0.083 2.105 1.708 2.668 1.791 4.773 3.283-1.093 5.15-3.603 7.757-5.37-1.839-2.079 1.438-5.674-1.193-6.564-14.794 3.05-28.111 12.81-28.644 26.26zm74.592-25.06c0.074 3.556 0.58 4.047-0.597 6.564 1.039-0.045 1.855 0.133 2.387 0.597 0.311-0.883 0.883-1.504 1.193-2.387-0.705-0.29-1.353-0.637-1.79-1.193 2.367 0.735 2.718-3.594 1.79-4.178 0.101 1.3-2.116 0.28-2.983 0.6zm52.513 7.76c0.441-1.686-0.248-6.731-1.79-8.354-1.62 2.86 0.74 6.23 1.79 8.35zm-10.15-4.77c2.336 4.103 1.635 7.547 3.58 11.935 2.746-0.637 5.005-1.759 5.968-4.178-1.07-3.306-3.073-5.679-3.58-9.548-2.38 0.21-5.94-0.76-5.97 1.8zm-43.557 1.79c0.1-1.294-2.117-0.271-2.984-0.597-1.357 2.36 3.656 2.64 2.984 0.6zm36.397 2.98c0.163-0.812-0.369-2.329-0.597-1.193-0.16 0.81 0.38 2.33 0.6 1.19zm-72.797 14.32c-4.292 2.635-7.817 6.303-10.741 9.548-2.027 2.251-5.723 3.733-5.37 6.564 11.635-0.499 18.878-5.389 22.079-14.322-3.351 1.431-6.074 6.646-8.951 6.564 0.86-2.083 4.796-3.39 6.564-5.371 0.576-0.646 3.009-3.432 1.193-3.58-0.327 2.1-3.461 0.96-4.774 0.6zm11.337-15.51c-3.043 5.311-7.279 9.429-9.547 15.515 7.326-0.63 8.769-10.32 9.547-15.51zm19.693 4.17c4.751 0.896 4.974-0.777 8.354 1.193 0.13-2.183 0.82-2.289 0-4.177-1.902-0.51-2.265 0.52-2.983 1.193-0.021-1.968-1.697-2.281-3.581-2.387-0.213 1.79-0.951 3.04-1.79 4.19zm-59.674 13.13c1.684 0.093 1.496-1.687 2.387-2.387-1.518 0.08-2.313 0.87-2.387 2.39zm13.129-12.53c-1.223-0.965-1.505-2.871-2.387-4.177-5.15 3.8-11.293 6.608-11.935 14.918 5.409-2.94 9.699-7.01 14.322-10.74zm5.371 7.76c0.756 1.829 2.032 3.14 2.983 4.773 2.96-1.217 4.386-3.969 5.967-6.563-1.6-1.782-2.892-3.872-5.371-4.774-1.236 1.549-3.491 2.079-4.177 4.178 2.818 0.799 3.391-3.73 4.774-2.388-1.395 1.58-3.722 2.24-4.176 4.77zm4.176-7.16c0.134-2.123-0.402-3.575-1.79-4.177-1.669 1.712-4.259 2.504-5.967 4.177-0.026 1.817 1.26 2.32 1.79 3.581 2.682-0.5 3.286-3.08 5.967-3.58zm32.224 0c-1.734 2.842-1.754 7.396-2.387 11.338 0.463 0.134 1.177 0.017 1.194 0.597 3.542-1.231 3.018-6.529 3.58-10.741-0.883-0.32-1.504-0.89-2.387-1.2zm3.58-4.18h-2.983c0.203 1.851-1.381 2.851 0 4.177 3.039 0.65 2.838-1.94 2.983-4.18zm-9.547 11.34c-2.974-0.525 0.44-5.125-1.193-5.968-0.795 2.639-2.793 5.722-1.194 8.951 2.375-0.386 2.399 1.579 4.774 1.193 0.045-3.455 3.166-9.801 0.597-11.935-1.007 2.57 0.053 7.21-2.984 7.76zm9.547 0.59c-1.524 0.066-1.184 1.998-1.193 3.58 2.536 1.642 6.008 2.346 10.145 2.387 0.516-5.49-6.628-3.32-8.952-5.97zm2.387 0c-0.522-3.704 0.928-5.438 1.79-7.758-1.687 0.493-1.546-0.841-2.983-0.597-0.919 2.07-2.77 8.25 1.193 8.36zm-48.932-5.37c-3.235 4.434-11.226 6.925-10.144 13.726 3.169-0.689 5.007-3.475 7.161-5.371 2.26-1.99 5.28-3.585 6.564-6.563-0.602-1.188-1.032-2.549-2.387-2.984-0.007 0.78-1.046 0.54-1.194 1.18zm55.496 5.37c1.106-1.281 0.403-4.371 0.597-6.564h-1.79c0.785 1.8 0.059 5.11 1.193 6.56zm4.177 1.79c-1.512-2.829-1.911-5.121-0.597-8.354h-1.791c0.658 2.92-1.793 8.95 2.388 8.35zm50.723-2.38c2.812-0.498 9.022-3.533 5.968-5.968-1.86 2.12-5.89 2.07-5.97 5.97zm-10.15 0c2.179 0.935 5.28-1.7 7.758-2.387 0.19-1.384-0.096-2.291-0.597-2.984-3.26 0.63-8.05 2.51-7.16 5.37zm10.15 1.79c-1.007 2.639 2.129 4.183 0.597 5.37-0.912-1.275-3.25-1.125-2.387-4.177-2.138 0.847-5.84 0.128-7.758 1.193 0.177 2.808 2.141 3.827 4.178 4.774 0.769 2.413 0 6.364 2.983 6.563-0.535-2.25-0.515-5.055-1.193-7.16 0.705-0.688 2.109-0.676 3.58-0.597 0.37 1.619-0.758 4.735 0.597 5.37 0.956-2.227 3.646-2.72 5.371-4.177-0.956-2.881-2.565-8.119 2.387-7.758 0.088-1.48 0.111-2.896-1.193-2.983-1.67 1.93-4.98 2.21-7.17 3.6zm-113.98 17.9c2.937-2.272 6.399-6.983 7.161-8.354-0.769 0.48-3.349 2.145-3.581 1.193 2.626-2.347 6.666-3.28 8.951-5.968-1.354-2.24-2.323-6.643-5.371-5.37 0.311-0.883 0.883-1.504 1.193-2.387-2.387 0.759-4.785 3.195-1.79 2.983-3.172 3.392-9.058 4.07-10.741 8.951 0.895 2.089 3.96 2.007 5.371 3.58-2.994 1.923-4.722-1.842-7.161-2.387-1.623 2.355-4.5 3.456-5.371 6.563 4.654 2.53 7.751 3.98 11.339 1.21zm17.305-16.71c1.819-0.005 3.902-2.814 2.983-3.58-1.067 1.12-2.13 2.24-2.983 3.58zm88.911-1.19c1.867 1.569 3.979-0.438 5.967-0.597-0.61-3.91-4.45-0.02-5.97 0.6zm-121.13 13.13c1.592-3.182 4.658-4.89 5.371-8.951-3.398 0.81-8.721 5.27-5.371 8.95zm4.177-13.13c-3.435 1.736-6.417 3.926-6.564 8.951 2.437-2.96 7.832-4 6.564-8.95zm54.302 5.97c-0.055-3.526-3.942-3.219-6.564-4.178 0.474 3.1 3.82 3.34 6.564 4.18zm79.965-0.6c0.167-1.359-0.144-2.242-1.193-2.387 0.13 1.06-0.61 2.99 1.19 2.39zm-70.417 8.35v-7.757c-1.26-0.53-1.764-1.817-3.581-1.791-0.922 3.08-0.489 9.52 3.581 9.55zm0.597-6.56c0.362 1.03 2.831-0.046 2.984 1.193-1.027-0.032-1.53 0.459-1.791 1.193 2.708 0.172 3.575 0.875 5.371-0.597 0.444-1.837-1.638-1.147-1.193-2.983-2.857 0.21-4.525-1.48-5.371 1.2zm-67.431 7.75c2.583-0.003 2.746-2.426 4.177-3.58 1.4-1.205 3.583-1.983 2.387-4.177-0.763-0.033-0.827-0.766-1.791-0.597-1.97 2.42-4.267 4.5-4.773 8.36zm110.99 7.76c1.369-5.104 1.523-11.34 0.597-16.111-0.82 4.37-0.73 12.79-0.6 16.11zm-35.803-7.16c-1.154-1.033 0.512-4.888-1.79-4.773 0.703 1.48-0.277 4.65 1.79 4.77zm2.984-1.19c0.096-0.415-0.208-3.473-0.597-1.79-0.524 2.27 0.32 2.99 0.597 1.79zm13.719 16.11c-0.734-4.479 1.711-7.148-0.597-8.951 0.2 2.37-0.5 11.4 0.6 8.95z"></path> <path style="clip-rule:evenodd;fill-rule:evenodd" d="m129.49 182.52c1.552 1.736-4.927 5.042-0.597 1.791-0.17-0.97 0.57-1.03 0.6-1.79z"></path> <path style="clip-rule:evenodd;fill-rule:evenodd" d="m105.02 229.06c1.442-1.114-0.655 2.876 0 4.773-1.16 1.39-0.52-4.05 0-4.77z"></path> <path style="clip-rule:evenodd;fill-rule:evenodd" d="m103.23 260.69c-0.836-0.716-0.052-0.232 0.597 0-0.181 7.776 0.636 16.55-1.193 22.676 0.4-7.36 0.82-14.69 0.59-22.68z"></path> <path style="clip-rule:evenodd;fill-rule:evenodd" d="m121.73 277.99c1.721 2.344-0.724 5.621-0.597 8.354-1.31-1.93 1.07-5.28 0.6-8.35z"></path> <path style="clip-rule:evenodd;fill-rule:evenodd" d="m150.97 317.97c-3.082 1.294-5.675 3.078-7.161 5.968 1.592 2.724 5.331-0.967 7.758-1.193-1.419 1.962-3.984 2.778-5.968 4.177 1.932 4.384 5.211-1.307 7.758-1.79 0.933-5.898-0.729-10.6-3.58-14.918-2.759-4.177-7.735-8.641-11.935-9.548 6.276-3.338 11.156 4.644 13.725 8.951 0.09 1.104 2.021 0.366 2.387 1.193 3.899 7.538 0.629 18.441-0.597 26.256-2.475 5.478-7.884 10.544-7.758 16.708-1.785 0.06-6.015 6.181-6.563 8.354-1.48 5.86 4.223 8.008 4.773 13.725 5.675-1.628 10.018-6.054 16.112-1.79 1.314-1.26-0.766-1.764-0.597-3.58 4.951 0.618 11.369-0.23 13.725 2.983 5.631-2.54 14.3-9.246 20.886-3.58 0.39 3.926-0.182 4.332-0.598 7.16-8.325 2.615-13.189 8.69-20.885 11.935-1.875 0.712-1.88 3.293-4.178 3.581-1.545-1.168-3.916-1.909-5.37-1.791-5.844 0.479-12.99 11.508-18.499 11.338-1.744-0.054-11.279-7.226-11.935-9.547-0.829-2.938 0.577-5.825 2.983-7.758-1.329-1.73 1.377-4.035-1.79-4.177 0.338-1.242 1.705-1.929 0.597-2.984-2.348-5.194-6.038-9.188-5.37-17.901 0.27-3.516 2.539-6.805 2.983-11.338 0.771-7.85-2.972-16.141-2.983-23.869-0.009-5.971 2.496-11.966 3.58-17.306 0.595-2.925-1.553-6.687 2.387-7.757 1.225 6.731 2.161 13.752 7.161 16.708 0.414-4.796-4.883-9.036-5.967-14.321 4.847 2.115 5.854 8.069 8.354 12.531 1.496-2.512-1.89-5.254-1.79-8.354 0.08-2.036 3.939 1.638 4.774 2.983 1.7 2.71 1.32 7.52 3.6 8.96zm-6.56-10.74c0.745 3.83 1.146 8.004 4.178 9.548-1.35-3.23-1.62-7.54-4.18-9.55zm-3.58 11.94c1.46 0.529 0.646 3.332 2.983 2.984 1.59-0.599 1.968-2.409 2.983-3.581-2.026 0.038-3.278-0.699-4.177-1.79 1.47 3.12-0.61 1.48-1.78 2.39zm-2.99 8.35c1.492 1.194 4.91 0.492 4.773-1.79-1.49-1.19-4.9-0.49-4.77 1.79zm3.58-3.58c-1.227-6.531-6.276-9.238-8.354-14.919-1.221 6.353-3.271 14.338-1.79 21.482 1.867-0.121 4.381 0.402 5.371-0.597 0.244-1.438-1.09-1.297-0.597-2.983-1.05-0.344-3.507 0.722-3.581-0.597 4.882-0.393 0.059-5.115 1.79-7.161 1.104 1.681 1.64 3.931 2.388 5.968 2.33 0.35 3.46-0.51 4.77-1.19zm7.16 6.56c-0.067 2.255 1.167 3.209 2.983 3.581-0.145-2.494 2.84-6.31 0.597-7.161-0.93 1.46-3.21 1.56-3.58 3.58zm-3.58 0.6c0.093-1.484-0.938-1.847-1.193-2.983-6.81-0.48-2.72 6.86 1.19 2.98zm-13.72 1.79c0.85 2.604 5.697 3.147 7.758 1.193 0.27-5.35-5.36-2.74-7.76-1.19zm10.74 0.6c1.825 2.152 2.525 5.431 6.564 5.37-0.255 1.138-1.705 1.08-1.193 2.983 7.22-2.38-0.86-13.9-5.37-8.35zm-7.76 9.55h3.581c0.098-1.888-1.586-1.994-1.193-4.177 2.104 0.481 1.529 3.643 4.177 3.58 1.464-0.524 3.441-0.537 3.58-2.387-1.292-1.691-3.415-2.552-4.177-4.773-1.994 1.13-6.352 1.233-7.758 1.193 0.74 2.05 1.05 4.53 1.79 6.57zm7.76 4.17c-0.435 1.628 1.186 1.201 1.193 2.387 1.959-0.255 4.292-3.231 2.983-4.773-1.32 0.85-2.75 1.61-4.17 2.38zm4.77-4.77c-1.992-1.409-4.57 0.722-6.563 1.193-0.134 1.129 0.673 1.317 0.597 2.388 3.08-0.1 5.14-1.22 5.96-3.58zm-7.16 5.37c-0.119-2.068-0.497-3.879-2.983-3.58-1.86 2.3 0.85 5.08 2.98 3.58zm-8.95 13.13h2.387c0.221-2.365-0.547-5.719 0.597-7.161 1.326 1.382 2.327-0.202 4.178 0 0.39-3.175-2.526-3.043-3.581-4.773 1.695-0.071 1.147-2.545-0.597-2.387-0.49 5.28-2.73 8.81-2.99 14.32zm8.95-5.97c-1.864-1.564-3.725 0.694-5.371 1.194v3.58c3.252 0.98 10.931-6.011 7.758-8.354-0.93 1.06-1.64 2.34-2.39 3.58zm-1.79-5.37c-0.236 2.235 2.714 3.078 4.177 1.79 0.49-3.15-2.92-3.62-4.18-1.79zm-2.98 14.32c2.926 0.34 3.013-2.159 3.581-4.177-2.36 0.5-4.93 1.69-3.58 4.18zm-2.98 5.37c1.679-0.112 2.542-1.038 2.387-2.984-2.079-1.814-1.094-1.208-0.597-4.177h-2.387c0.22 2.37-0.55 5.72 0.6 7.16zm5.37-1.79c0.088-1.48 0.11-2.896-1.193-2.984-0.92 0.85-0.59 3.11 1.19 2.98zm3.58 11.94c0.253-1.339 1.28-1.902 1.79-2.984-0.899-3.277-2.605-5.748-4.773-7.757-0.355 1.236 0.737 3.92-0.597 4.177-1.419-0.969-0.949-3.825-4.178-2.983 1.449 3.921 3.452 7.289 4.774 11.338 6.057-0.104 8.289-2.921 11.935-4.774 1.195-0.607 2.854 0.272 2.983-1.79-4.66 0.5-8.17 5.33-11.93 4.76zm40.57-1.2c3.914-0.661 4.54-4.61 8.951-4.773-1.37-9.49-7.89 1.29-8.95 4.77zm-19.69-4.77c0.332 2.818 2.104 3.276 1.79 5.371 2.387-0.398 4.089-1.48 5.967-2.388v-2.983c-1.53-0.94-6.23-0.94-7.76 0zm16.11 5.37c2.702-0.445-0.912 1.638 1.79 1.193 0.191-1.842 3.686-5.928 0.597-7.161-0.62 2.16-2.8 2.77-2.39 5.97zm-25.66-0.6c2.492 0.105 2.924-1.849 4.773-2.387-2.07-1.01-4.26 0.18-4.77 2.39zm10.15-1.19c0.101-1.294-2.117-0.271-2.983-0.597-1.36 2.37 3.65 2.65 2.98 0.6zm-28.05 15.51c6.725 4.239 13.815-3.124 20.886-4.178 0.642-0.096 1.265 0.598 2.387 0.597 7.191-0.002 9.678-6.1 16.112-6.563 0.481-2.104 3.642-1.529 3.58-4.178-1.807 0.58-3.197 1.576-5.37 1.791-0.134-1.129 0.672-1.317 0.597-2.388-3.229-0.046-3.264 3.103-5.371 4.178-3.943 2.62-7.915 5.213-14.918 4.773-3.936 2.435-9.959 5.947-14.918 5.371 7.247-1.704 13.684-4.219 18.498-8.354-8.26 1.89-14.54 5.75-21.49 8.95zm14.92-8.95c-2.776 1.6-6.417 2.335-8.354 4.773 2.79-1.58 7.22-1.52 8.35-4.77zm-10.14 2.39c4.358-1.21 7.783-3.355 10.741-5.967-4.93 0.65-7.16 3.99-10.74 5.97zm2.38-3.58c-2.39-0.003-4.461 0.312-4.177 2.983 2.16-0.23 3.81-0.97 4.18-2.98zm16.11-0.6c1.687 0.493 1.546-0.841 2.984-0.597 0.18-1.572-0.827-1.959-2.388-1.79-0.18 0.81-0.84 1.15-0.59 2.39zm-20.88 5.37c1.026 0.032 1.529-0.459 1.79-1.193-1.03-0.03-1.53 0.46-1.79 1.19zm2.98 8.36c-0.603 3.736 6.335-0.479 2.983-1.193-0.5 0.88-1.5 1.28-2.98 1.19zm2.39 2.98c1.878 0.919 3.667 0.206 4.177-1.79-2.13-0.13-3.58 0.4-4.18 1.79z"></path> <path style="clip-rule:evenodd;fill-rule:evenodd" d="m76.379 374.07c-0.014 1.406 1.028 1.757 0.597 3.58-1.506-1.487-3.686-4.546-4.774-7.16-0.857-2.062-2.079-5.687-2.387-7.758-0.503-3.383 1.132-7.218-0.597-10.145 2.188-0.744 0.715-2.549 1.193-4.177 1.142-3.889 3.442-6.441 2.983-13.128-0.59-8.604-2.137-17.174 1.791-24.466-0.534-1.927 1.946-0.839 2.387-1.791 0.786-3.59 1.434-7.318 5.371-7.757 0.002 1.99-1.941 2.037-1.79 4.177 0.577 4.196 1.091 8.456 3.58 10.741 0.694-2.117-0.843-7.85 1.193-10.145 2.611 2.959 0.582 10.558 2.984 13.725 0.786-1.774-0.312-5.776 0-10.144-0.131-3.338 1.056-0.709 0.597 1.193 0.886 5.08 1.09 10.844 1.79 16.111-2.113 0.323-1.467-2.113-3.58-1.79-0.945 2.189-1.197 8.176 0.597 9.548 2.051 0.261 3.345-0.236 4.774-0.597 0.01 2.396-3.115 1.658-5.371 1.79 0.122 1.867-0.403 4.381 0.597 5.37 8.435-0.118 6.639-10.468 8.951-16.708 2.012 1.299 1.286 4.37 1.194 5.967-0.596 10.309-7.754 19.794-12.532 26.257 0.309 7.88-0.913 16.694-1.79 21.481 1.826 1.356 3.609 2.757 4.774 4.774 0.542 8.16-3.512 14.59-7.161 20.289 0.774 5.349-1.184 7.966-1.791 11.935-5.347 4.733-14.461 11.61-23.869 8.354 2.001-3.229 1.082-5.96 1.194-11.338 3.253-2.713 2.937-8.997 7.161-10.741 0.189-5.027 0.584-9.925 1.79-13.725 0.24-0.757 1.487-1.056 1.79-1.79 0.676-1.638-0.193-5.206 2.387-5.37 0.433 1.825-1.03 1.755-0.597 3.58 2.17-1.579 4.406-3.625 3.58-6.564 2.928-0.322 1.623 3.944 1.193 5.371 0.53 1.607 1.666-1.033 1.194-2.387 2.271 1.724-2.714 5.53 0.597 6.563 3.075-2.259 5.646-10.767 4.774-16.708-1.986 0.84-3.316 2.29-4.774 3.62zm2.983-4.18c-1.91-0.477-3.011-1.763-5.371-1.79 0.156 1.833 1.295 2.684 1.791 4.177 1.884-0.11 3.559-0.42 3.58-2.39zm-4.176-56.09c0.65 6.699-4.042 19.194 4.177 19.692 0.453-5.939-1.219-15.095 1.791-17.306 0.813 6.23-3.48 18.371 4.177 18.499 1.516-12.059-2.803-18.281-5.967-25.66-0.998 1.99-1.364 4.61-4.178 4.78zm12.531 6.56c-0.425-1.763-0.164-4.212-1.791-4.773 0.339 1.85-0.162 4.53 1.791 4.77zm-11.338 19.1c1.825-0.433 1.755 1.029 3.58 0.597 1.054-0.999-0.53-1.999 0-4.177-1.507-0.88-2.666-2.108-4.773-2.387-0.486 4.57 2.742 1 1.193 5.97zm10.144 1.79c-0.501-1.688-0.693-3.683-1.194-5.37h-3.58c-0.585 3.96 0.604 6.16 4.774 5.37zm-11.935 2.38c1.742 0.646 3.438 1.336 5.968 1.194v-2.984c-1.482-0.706-3.512-0.863-5.371-1.193 0.493 1.69-0.841 1.55-0.597 2.98zm13.725 0c1.493 1.194 4.694 0.276 4.177-2.387-1.836 0.36-4.223 0.16-4.177 2.39zm-1.193 1.79c0.886-3.473-2.075-3.098-4.774-2.984-0.349 2.94 1.962 3.21 4.774 2.98zm1.79 1.2c1.023 1.078 2.347-0.184 2.387-1.79-1.493-0.11-1.868 0.91-2.387 1.79zm-16.112 5.37c4.196-0.18 7.685-1.067 8.951-4.177-1.209-2.172-4.678-2.086-7.758-2.387-0.674 1.91-1.213 3.96-1.193 6.57zm4.774 7.16c5.095-1.788 13.42-8.133 9.548-13.128-1.047 2.438-4.443 2.577-2.984 5.967-3.615-2.598-7.852 1.781-11.935 2.387v4.178c0.463 0.134 1.177 0.017 1.193 0.597 3.888-0.887 5.857-3.69 8.951-5.371-0.815 2.55-4.316 2.43-4.773 5.36zm2.387 4.17c0.088 1.305 1.504 1.281 2.984 1.193-0.555-2.508 2.092-5.558-0.597-6.563-1.471 2.355-5.107 1.319-7.161 1.79 0.263 1.726 1.258 2.72 2.983 2.983 1.35 0.101 2.624-2.869 3.581-1.193-1.301-0.1-1.898 0.49-1.79 1.79zm-6.564 1.8c2.111 0.321 3.074-0.506 3.581-1.79-1.375-0.613-1.924-2.054-4.177-1.79-0.079 1.46-0.091 2.87 0.596 3.58zm2.387 0.59c0.221 2.763 3.346 2.622 5.371 3.581 0.53-1.062 1.666-1.517 1.193-3.581-2.347-1.12-4.393-1.53-6.564 0zm8.354 16.11c-3.027 3.393-8.505 7.333-7.161 13.128 3.347 0.363 1.245-4.723 3.581-5.371-0.131 3.66-3.543 7.184-1.791 10.741 2.025-5.85 6.478-11.38 5.371-18.5zm-1.193 11.34c-0.193 1.545 0.338 6.606 0.597 2.983 1.467-0.918 3.316-7.154 0.597-8.354 1.052 1.57-0.968 3.56-1.194 5.37zm-14.321-1.19c-0.857-1.778 2.094-3.637-0.597-3.581 0.343 1.05-0.722 3.5 0.597 3.58zm0 5.37c2.242-0.344 1.023-4.147 2.983-4.773-0.3 3.248 2.901 2.258 4.177 1.193v-2.984c-3.742-0.149-3.888 1.994-5.967-0.597-0.671 1.96-1.941 5.67-1.193 7.16zm4.176 4.18c-2.108 0.279-5.749-0.975-5.371 1.791h6.564c0.134-0.464 0.017-1.178 0.597-1.194-1.406-2.341-0.301-0.701 0-3.58-1.842 0.147-3.373 0.605-4.773 1.193-0.126-0.669-0.663-0.929-1.193-1.193-1.371 3.75 4.774-0.01 4.176 2.98zm-7.16 1.79c0.174-0.366 1.484-2.298 0-2.388 0.57 1.11-1.787 1.99 0 2.39zm1.79 2.38c2.479-1.439 5.149 0.913 7.161-0.597-1.14-0.55-7.012-1.71-7.161 0.6zm-4.177 8.95c3.334-0.271 4.6-0.685 7.757 0 0.027-1.962 2.551-1.428 2.387-3.581-1.062-1.524-5.567 0.396-6.564-1.193h6.564c-0.896-3.808-6.062 0.309-8.354-1.79 1.889-0.497 5.015 0.24 5.371-1.79-7.131-1.882-9.829 3.592-9.548 7.16 2.862 1.072 1.923-1.657 2.984-2.387 0.516 1.075 1.312 1.871 2.387 2.387-1.129 0.26-3.597-0.81-2.984 1.19zm12.531-5.37c-2.377 1.563 0.737 2.054-0.597 4.177-2.447 0.339-2.455 3.115-4.177 4.178-0.314-1.316-3.192-3.119-4.177-1.79 0.75 0.244 1.22 0.77 1.193 1.79h-4.177c2.294-2.041-3.488-0.346-1.194-2.387-2.65-0.264-3.248 1.525-2.983 4.177 3.215-0.093 6.874-1.552 8.951 0.597 5.525-1.834 7.664-7.056 11.337-10.741-2.473-0.17-2.324 0.78-4.176-0.01zm1.79-2.98c-0.689 0.896-2.094 2.513 0 2.983 0.69-0.89 2.095-2.51 0-2.98zm-13.128 14.32c0.938-0.057 2.069 0.08 1.79-1.193h-1.193c0.002 0.6-0.483 0.71-0.597 1.19zm-4.774 1.19h1.193v-1.193h-1.193v1.19z"></path> <path style="clip-rule:evenodd;fill-rule:evenodd" d="m139.63 375.86c-0.82-1.92 1.96 4.57 0 0z"></path> <path style="clip-rule:evenodd;fill-rule:evenodd" d="m119.34 211.76c1.26 1.923 2.308 4.058 2.387 7.161-4.969-1.602-10.26 0.068-14.321 1.193-1.67-8.18 5.57-10.15 11.93-8.35z"></path> <path style="clip-rule:evenodd;fill-rule:evenodd" d="m115.76 237.42c1.559-1.025-0.842-3.09 0-5.37 2.419-0.231 0.657 3.719 1.193 5.37 1.223-1.163 0.768-4.006 1.79-5.37 1.384-0.19 2.291 0.096 2.983 0.597v-4.177c1.425 1.957 2.207 4.556 1.79 8.354-1.217-1.041-1.17 0.444-2.387-0.597-0.675 2.707 1.425 8.188-1.193 8.951 0.293-2.68-0.303-4.472-0.597-6.564-0.481 0.414-1.635 0.929-1.79 0-1.134 6.147-0.575 16.765-0.597 22.079-0.607 0.388-0.617 1.372-1.79 1.193-0.05 0.945 0.287 2.276-0.597 2.388 0.5 2.724-0.293 6.557 0 10.741v2.983c-0.464 1.089-0.642-0.357-0.597-1.193v-5.371c-0.892-1.969-0.703 1.996-2.388 1.193-0.815-8.724 1.836-21.015 0-29.239 1.128-0.447 0.414-1.781 1.791-0.597 0.047-2.405-0.062-5.392 0-8.354 0.053-2.562-1.027-6.31 1.193-7.161-0.452 4.521-0.807 9.14-0.597 14.322 2.471 0.084 0.621-4.152 1.193-5.968 0.74 0.1 0.54 1.09 0.63 1.8zm-1.79 24.46c0.096-0.415-0.209-3.473-0.597-1.79-0.52 2.27 0.33 2.99 0.6 1.79z"></path> </g> <metadata></metadata></svg> 