<?xml version="1.0" encoding="UTF-8" standalone="no"?> <!-- Created with Inkscape (http://www.inkscape.org/) --> <svg xmlns:rdf="http://www.w3.org/1999/02/22-rdf-syntax-ns#" xmlns="http://www.w3.org/2000/svg" xmlns:i="http://ns.adobe.com/AdobeIllustrator/10.0/" xmlns:cc="http://web.resource.org/cc/" xmlns:a="http://ns.adobe.com/AdobeSVGViewerExtensions/3.0/" xmlns:dc="http://purl.org/dc/elements/1.1/" xmlns:svg="http://www.w3.org/2000/svg" xmlns:inkscape="http://www.inkscape.org/namespaces/inkscape" xmlns:sodipodi="http://sodipodi.sourceforge.net/DTD/sodipodi-0.dtd" xmlns:ns1="http://sozi.baierouge.fr" xmlns:xlink="http://www.w3.org/1999/xlink" id="svg2" xml:space="preserve" viewBox="0 0 752.862 317.796" inkscape:version="0.91 r13725"> <g id="Layer_1"> <g id="g7"> <g id="g9"> <g id="g11"> <path id="path13" style="fill:#997a00" d="m653.27 47.581c9.63 6.694 9.63 6.694 14.27 10.483-4.15-3.389-8.49-6.579-13.01-9.557-0.41-0.333-0.83-0.642-1.26-0.926"></path> <path id="path15" style="fill:#997a00" d="m653.27 47.581c3 2.091 7.02 4.874 9.95 7.068l-2.52-1.893-7.03-4.898c-0.13-0.095-0.27-0.188-0.4-0.277"></path> </g> </g> <g id="g17"> <g id="g19"> <path id="path21" style="fill:#ad8a00" d="m667.55 58.065l18.56 15.148c-4.16-3.39-8.5-6.58-13.02-9.559l-18.56-15.148c4.52 2.979 8.86 6.169 13.02 9.559"></path> </g> </g> <path id="path23" style="fill:#cca300" d="m727.78 238.66l-170.9 34.28 110.31-155.76c38.59 25.41 60.77 69.88 60.59 121.48z"></path> <g id="g25"> <g id="g27"> <path id="path29" style="fill:#ebbc00" d="m686.1 73.212c6.11 5.241 17.47 14.997 26.58 27.038 6.09 8.05 14.43 19.08 23.38 38.98 15.85 35.26 16.52 68.35 16.8 82.48-0.02 7.29-9.21 13.77-25.08 16.95 0.18-51.6-22-96.07-60.59-121.48 14.46-20.416 17.1-44.38 5.9-53.525 4.52 2.978 8.86 6.168 13.01 9.557"></path> <path id="path31" style="fill:#ebbc00" d="m672.94 107.72c40.17 26.5 48.79 48.45 69.63 101.48 2.49 6.36 2.81 7.17 4.09 6.59 0.77-0.35 13.41-82.61-68.16-144.12-1.14-3.26-2.94-5.998-5.41-8.015 4.52 2.979 8.86 6.169 13.02 9.558 1.97 1.698 4.61 3.962 6.59 5.66 2.35 2.241 5.52 5.206 7.81 7.52l5.89 6.334c1.89 2.251 4.45 5.223 6.28 7.523l5.19 6.92c1.64 2.43 3.86 5.63 5.44 8.1l4.46 7.45c1.38 2.58 3.26 5.98 4.57 8.59l3.72 7.92c1.12 2.7 2.65 6.27 3.7 9l2.96 8.34c0.85 2.8 2.03 6.51 2.81 9.33l2.18 8.71c0.59 2.87 1.42 6.7 1.93 9.58l1.39 9.03c0.32 2.94 0.81 6.85 1.06 9.79l0.59 9.3c0.06 2.98 0.19 6.95 0.18 9.94-0.02 6.75-9.2 13.23-25.08 16.41 0.18-51.6-22-96.07-60.59-121.48 2.19-3.09 4.11-6.27 5.75-9.46"></path> <path id="path33" style="fill:#d6ab00" d="m673.09 63.654c4.52 2.979 8.86 6.169 13.02 9.558 1.97 1.698 4.61 3.962 6.59 5.66 2.35 2.241 5.52 5.206 7.81 7.52l5.89 6.334c1.89 2.251 4.45 5.223 6.28 7.524l5.19 6.92c1.64 2.43 3.86 5.63 5.44 8.1l4.46 7.45c1.38 2.57 3.26 5.98 4.57 8.59l3.72 7.92c1.12 2.7 2.65 6.27 3.7 9l2.96 8.34c0.85 2.8 2.03 6.51 2.81 9.33l2.18 8.71c0.59 2.87 1.42 6.69 1.93 9.58l1.39 9.03c0.32 2.94 0.81 6.85 1.06 9.79l0.59 9.3c0.06 2.98 0.19 6.95 0.18 9.93 0 1.45-0.43 2.89-1.25 4.28 1.61-45.77-9.99-110.28-74.35-157.7-1.07-2.027-2.46-3.769-4.17-5.166"></path> <path id="path35" style="fill:#c29b00" d="m673.09 63.654c4.52 2.979 8.86 6.169 13.02 9.558 1.97 1.698 4.61 3.962 6.59 5.66 2.35 2.241 5.52 5.206 7.81 7.52l5.89 6.334c1.89 2.251 4.45 5.223 6.28 7.524l5.19 6.92c1.64 2.43 3.86 5.63 5.44 8.1l4.46 7.45c1.38 2.57 3.26 5.98 4.57 8.59l3.72 7.92c1.12 2.7 2.65 6.27 3.7 9l2.96 8.34c0.85 2.8 2.03 6.51 2.81 9.33l2.18 8.71c0.59 2.87 1.42 6.69 1.93 9.58l1.39 9.03c0.32 2.94 0.81 6.85 1.06 9.79l0.59 9.3c0.06 2.98 0.19 6.95 0.18 9.93 0 0.4-0.03 0.8-0.1 1.2v-0.1c-0.82-85.78-42.3-132.63-76.95-156.82-0.79-1.071-1.7-2.03-2.72-2.866"></path> <path id="path37" style="fill:#ad8a00" d="m673.09 63.654c4.52 2.979 8.86 6.169 13.02 9.558 1.97 1.698 4.61 3.962 6.59 5.66 2.35 2.241 5.52 5.206 7.81 7.52l5.89 6.334c1.89 2.251 4.45 5.223 6.28 7.524l5.19 6.92c1.64 2.43 3.86 5.63 5.44 8.1 0.05 0.09 0.12 0.2 0.17 0.28-0.6-0.93-1.4-2.17-2-3.11-14.8-21.29-26.29-32.913-47.32-47.83-0.35-0.334-0.7-0.653-1.07-0.956"></path> <path id="path39" style="fill:#d6ab00" d="m670.14 112.71c0.53-0.12 56.95 26.25 67.22 123.37-2.84 1-6.04 1.87-9.58 2.58 0.18-51.6-22-96.07-60.59-121.48 1.05-1.47 2.03-2.97 2.95-4.47"></path> </g> </g> <path id="path41" style="stroke:#ebbc00;fill:#ff9" d="m497.75 224.68l110.31-155.76c14.46-20.42 35.26-29.559 46.47-20.414l18.56 15.148c11.2 9.145 8.56 33.109-5.9 53.526l-110.31 155.76"></path> <g id="g43"> <g id="g45"> <path id="path47" style="fill:#d6ab00" d="m472.91 162.44c-0.27 6.87-0.5 12.81-3.01 21.49-2.81 9.68-7.18 17.79-9.32 21.05-5.66 8.64-15.14 23.11-41.31 39.3 8.58-5.26 14.06-15.39 14.06-28.42 26.56-16.3 39.58-34.9 39.58-53.42"></path> <path id="path49" style="fill:#d6ab00" d="m472.32 172.03c-1.26 7.71-1.37 8.34-2.94 13.61l-2.06 5.89c-1.02 2.31-2.36 5.41-3.49 7.67l-3.25 5.78c-1.61 2.43-3.76 5.67-5.49 8.01l-4.66 5.69c-2.57 2.73-6.05 6.33-8.77 8.92l-6.5 5.56c-9.31 7-9.67 7.27-15.89 11.12 7.7-4.72 12.9-13.36 13.89-24.49 2.6-1.77 6.07-4.13 8.67-5.9 16.53-13.07 20.28-20.48 24.63-29.06 4.31-7.37 6.45-14.89 6.45-22.39-0.11 2.88-0.21 6.73-0.59 9.59"></path> <path id="path51" style="fill:#c29b00" d="m472.32 172.03c-1.26 7.71-1.37 8.34-2.94 13.61l-2.06 5.89c-1.02 2.31-2.36 5.41-3.49 7.67l-3.25 5.78c-1.61 2.43-3.76 5.67-5.49 8.01l-4.66 5.69c-2.57 2.73-6.05 6.33-8.77 8.92l-6.5 5.56c-9.31 7-9.67 7.27-15.89 11.12 6.58-4.04 11.34-10.93 13.2-19.8 2.59-1.77 6.06-4.14 8.65-5.91 10.4-8.23 27.8-22.02 31.29-49.84 0.33-2.1 0.5-4.19 0.5-6.29-0.11 2.88-0.21 6.73-0.59 9.59"></path> <path id="path53" style="fill:#ad8a00" d="m469.38 185.64c-2.62 7.46-2.89 8.24-5.55 13.56l-3.25 5.78c-1.61 2.43-3.76 5.67-5.49 8.02l-4.66 5.68c-2.57 2.73-6.05 6.34-8.77 8.92l-6.5 5.56c-9.31 7-9.67 7.28-15.89 11.12 5.56-3.41 9.82-8.87 12.13-15.83 0.48-0.3 1.12-0.71 1.6-1.01 13.51-9.37 33.94-23.54 39.03-53.31l-1.15 5.97-1.5 5.54"></path> <path id="path55" style="fill:#997a00" d="m463.83 199.2c-4.08 7.26-4.6 8.19-8.74 13.8l-4.66 5.68c-2.57 2.73-6.05 6.34-8.77 8.92l-6.5 5.56c-9.31 7-9.67 7.28-15.89 11.12 4.59-2.82 8.3-7.03 10.75-12.33 19.54-13.06 29.1-21.72 37.72-41.52l-2.44 5.77-1.47 3"></path> <path id="path57" style="fill:#856a00" d="m455.09 213c-5.59 6.82-6.76 8.24-13.43 14.6l-6.5 5.56c-9.31 7-9.67 7.28-15.89 11.12 3.6-2.21 6.66-5.28 8.99-9.06 2.54-1.68 5.93-3.93 8.47-5.62 8.01-6.18 17.09-13.18 24.83-26.26l-3.58 5.66-2.89 4"></path> <path id="path59" style="fill:#705900" d="m441.66 227.6c-7.94 6.8-11.92 10.2-22.39 16.68 2.59-1.58 4.89-3.61 6.85-6.03 2.5-1.65 5.84-3.86 8.34-5.52 6.76-5.19 12.09-9.29 18.5-17.04l-4.9 5.6c-1.9 1.9-4.38 4.52-6.4 6.31"></path> <path id="path61" style="fill:#5c4900" d="m419.27 244.28c1.41-0.86 2.74-1.86 3.97-2.98 2.46-1.62 5.72-3.78 8.17-5.4 2.71-2.08 6.31-4.86 8.9-7.07l-6.63 5.51c-4.24 3.1-10 7.08-14.41 9.94"></path> </g> </g> <g id="g63"> <g id="g65"> <path id="path67" style="fill:#ebbc00" d="m433.33 215.86v-37.88c15.95-9.78 27.01-20.4 33.31-31.33v37.88c-6.3 10.93-17.36 21.55-33.31 31.33"></path> <path id="path69" style="fill:#d6ab00" d="m466.64 184.53v-37.88c3.01-5.23 4.93-10.53 5.77-15.84v37.88c-0.84 5.31-2.76 10.61-5.77 15.84"></path> <path id="path71" style="fill:#c29b00" d="m472.42 168.69v-37.88c0.32-2.08 0.49-4.17 0.49-6.25v37.88c0 2.08-0.17 4.17-0.49 6.25"></path> </g> </g> <path id="path73" style="fill:#ff9" d="m395.57 126.33c20.86 5.66 37.76 28.79 37.76 51.65v37.88c0 22.87-16.9 36.82-37.76 31.16l-159.1-43.2v-120.69l159.1 43.2z"></path> <path id="path75" style="fill:#deb100" d="m395.57 126.33l-159.1-43.2 21.2 77.51c-89.05 4.06-173.04-17.68-202.02-52.28-28.978-34.611 4.843-72.788 81.34-91.825 76.51-19.037 175.14-13.823 237.23 12.542 62.1 26.364 70.97 66.798 21.35 97.253z"></path> <g id="g77"> <g id="g79"> <path id="path81" style="fill:#d6ab00" d="m20.853 216.74c-19.242-23-20.325-43.42-20.846-53.23-0.007 9.31 4.123 19.84 12.726 30.12 35.856 42.82 139.79 69.72 249.97 64.7 0 16.82-1.22 26.84-2.97 26.92-14.01 0.44-43.15 1.35-71.43-1.75-24.32-2.67-45.45-5.43-77.26-14.56-22.852-6.55-64.96-22.05-90.187-52.2"></path> <path id="path83" style="fill:#d6ab00" d="m259.73 285.25c-5.2 0.2-19 0.73-29.09 0.5l-14.31-0.36c-4.25-0.23-9.9-0.48-14.14-0.76l-13.89-1.13c-4.11-0.46-9.6-1.01-13.71-1.52l-13.32-1.88c-3.97-0.68-9.26-1.53-13.22-2.27l-12.61-2.59c-3.8-0.91-8.87-2.06-12.66-3.04l-11.74-3.26c-3.62-1.15-8.48-2.62-12.078-3.85l-10.684-3.9c-3.469-1.43-8.119-3.29-11.55-4.81l-9.402-4.48c-3.355-1.8-7.849-4.17-11.141-6.08l-7.863-4.94c-3.299-2.34-7.689-5.48-10.876-7.97l-6.118-5.26c-3.243-3.18-7.446-7.53-10.473-10.91l-4.353-5.58c-1.686-2.51-3.93-5.85-5.479-8.45l-3.005-5.7c-1.023-2.35-2.407-5.48-3.309-7.88l-1.863-5.85c-0.543-2.31-1.297-5.38-1.723-7.7l-0.792-6c-0.114-2.15-0.314-5-0.329-7.15 0 10.39 4.13 20.92 12.733 31.2 35.856 42.82 139.78 69.72 249.96 64.7 0 16.82-1.22 26.84-2.97 26.92"></path> <path id="path85" style="fill:#c29b00" d="m259.73 285.25c-5.2 0.2-19 0.73-29.09 0.5l-14.31-0.36c-4.25-0.23-9.9-0.48-14.14-0.76l-13.89-1.13c-4.11-0.46-9.6-1.01-13.71-1.52l-13.32-1.88c-3.97-0.68-9.26-1.53-13.22-2.27l-12.61-2.59c-3.8-0.91-8.87-2.06-12.66-3.04l-11.74-3.26c-3.62-1.15-8.48-2.62-12.078-3.85l-10.684-3.9c-3.469-1.43-8.119-3.29-11.55-4.81l-9.402-4.48c-3.355-1.8-7.849-4.17-11.141-6.08l-7.863-4.94c-3.299-2.34-7.689-5.48-10.876-7.97l-6.118-5.26c-3.243-3.18-7.446-7.53-10.473-10.91l-4.353-5.58c-1.686-2.51-3.93-5.85-5.479-8.45l-3.005-5.7c-1.023-2.35-2.407-5.48-3.309-7.88l-1.863-5.85c-0.543-2.31-1.297-5.38-1.723-7.7l-0.792-6c-0.114-2.15-0.314-5-0.329-7.15 0 10.39 4.13 20.92 12.733 31.2 35.856 42.82 139.78 69.72 249.96 64.7 0 16.82-1.22 26.84-2.97 26.92"></path> <path id="path87" style="fill:#ad8a00" d="m259.73 285.25c-5.2 0.2-19 0.73-29.09 0.5l-14.31-0.36c-4.25-0.23-9.9-0.48-14.14-0.76l-13.89-1.13c-4.11-0.46-9.6-1.01-13.71-1.52l-13.32-1.88c-3.97-0.68-9.26-1.53-13.22-2.27l-12.61-2.59c-3.8-0.91-8.87-2.06-12.66-3.04l-11.74-3.26c-3.62-1.15-8.48-2.62-12.078-3.85l-10.684-3.9c-3.469-1.43-8.119-3.29-11.55-4.81l-9.402-4.48c-3.355-1.8-7.849-4.17-11.141-6.08l-7.863-4.94c-3.299-2.34-7.689-5.48-10.876-7.97l-6.118-5.26c-3.243-3.18-7.446-7.53-10.473-10.91l-4.353-5.58c-1.686-2.51-3.93-5.85-5.479-8.45l-3.005-5.7c-1.023-2.35-2.407-5.48-3.309-7.88l-1.863-5.85c-0.543-2.31-1.297-5.38-1.723-7.7l-0.792-6c-0.114-2.15-0.314-5-0.329-7.15 0 10.39 4.13 20.92 12.733 31.2 35.856 42.82 139.78 69.72 249.96 64.7 0 16.82-1.22 26.84-2.97 26.92"></path> <path id="path89" style="fill:#997a00" d="m259.73 285.25c-5.19 0.2-18.99 0.73-29.09 0.5l-14.31-0.36c-4.25-0.23-9.9-0.48-14.14-0.76l-13.89-1.13c-4.11-0.46-9.6-1.01-13.71-1.52l-13.32-1.88c-3.97-0.68-9.26-1.53-13.22-2.27l-12.61-2.59c-3.8-0.91-8.87-2.06-12.66-3.04l-11.74-3.26c-3.62-1.15-8.48-2.62-12.078-3.85l-10.684-3.9c-3.469-1.43-8.119-3.29-11.55-4.81l-9.402-4.48c-3.355-1.8-7.849-4.17-11.141-6.08l-7.863-4.94c-3.299-2.34-7.689-5.48-10.876-7.97l-6.118-5.26c-3.243-3.18-7.446-7.53-10.473-10.91l-4.353-5.58c-1.686-2.51-3.93-5.85-5.479-8.45l-3.005-5.7c-1.023-2.35-2.407-5.48-3.309-7.88l-1.863-5.85c-0.543-2.31-1.297-5.38-1.723-7.7l-0.792-6c-0.114-2.15-0.314-5-0.329-7.15 0 10.39 4.13 20.92 12.733 31.2 3.931 4.69 8.68 9.19 14.166 13.48 20.964 24.88 47.054 55.84 235.76 56.62-0.24 13.54-1.38 21.45-2.93 21.52"></path> <path id="path91" style="fill:#856a00" d="m259.73 285.25c-5.2 0.2-19 0.73-29.09 0.5l-14.31-0.36c-4.25-0.23-9.9-0.48-14.14-0.76l-13.89-1.13c-4.11-0.46-9.6-1.01-13.71-1.52l-13.32-1.88c-3.97-0.68-9.26-1.53-13.22-2.27l-12.61-2.59c-3.8-0.91-8.87-2.06-12.66-3.04l-11.74-3.26c-3.62-1.15-8.48-2.62-12.078-3.85l-10.684-3.9c-3.469-1.43-8.119-3.29-11.55-4.81l-9.402-4.48c-3.355-1.8-7.849-4.17-11.141-6.08l-7.863-4.94c-3.299-2.34-7.689-5.48-10.876-7.97l-6.118-5.26c-3.243-3.18-7.446-7.53-10.473-10.91l-4.353-5.58c-1.686-2.51-3.93-5.85-5.479-8.45l-3.005-5.7c-1.023-2.35-2.407-5.48-3.309-7.88l-1.863-5.85c-0.543-2.31-1.297-5.38-1.723-7.7l-0.792-6c-0.114-2.15-0.314-5-0.329-7.15 0 8.54 2.791 17.18 8.563 25.69 31.097 85.8 159.86 83.65 253.9 82.08-0.44 9.56-1.44 14.99-2.73 15.05"></path> <path id="path93" style="fill:#705900" d="m259.73 285.25c-5.2 0.2-19 0.73-29.09 0.5l-14.31-0.36c-4.25-0.23-9.9-0.48-14.14-0.76l-13.89-1.13c-4.11-0.46-9.6-1.01-13.71-1.52l-13.32-1.88c-3.97-0.68-9.26-1.53-13.22-2.27l-12.61-2.59c-3.8-0.91-8.87-2.06-12.66-3.04l-11.74-3.26c-3.62-1.15-8.48-2.62-12.078-3.85l-10.684-3.9c-3.469-1.43-8.119-3.29-11.55-4.81l-9.402-4.48c-3.355-1.8-7.849-4.17-11.141-6.08l-7.863-4.94c-3.299-2.34-7.689-5.48-10.876-7.97l-6.118-5.26c-3.243-3.18-7.446-7.53-10.473-10.91l-4.353-5.58c-1.686-2.51-3.93-5.85-5.479-8.45l-3.005-5.7c-1.023-2.35-2.407-5.48-3.309-7.88l-1.863-5.85c-0.543-2.31-1.297-5.38-1.723-7.7l-0.792-6c-0.114-2.15-0.314-5-0.329-7.15 0 2.97 0.337 5.95 1.018 8.93 0.204 1.6 0.476 3.73 0.68 5.34 10.147 50.43 63.555 108.61 260.37 99.42-0.53 5.85-1.35 9.08-2.34 9.13"></path> <path id="path95" style="fill:#5c4900" d="m259.73 285.25c-5.19 0.2-18.99 0.73-29.09 0.5l-14.31-0.36c-4.25-0.23-9.9-0.48-14.14-0.76l-13.89-1.13c-4.11-0.46-9.6-1.01-13.71-1.52l-13.32-1.88c-3.97-0.68-9.26-1.53-13.22-2.27l-12.61-2.59c-3.8-0.91-8.87-2.06-12.66-3.04l-11.74-3.26c-3.62-1.15-8.48-2.62-12.078-3.85l-10.684-3.9c-3.469-1.43-8.119-3.29-11.55-4.81l9.49 3.99c61.502 22.63 112.65 24.66 175.25 20.59-0.48 2.77-1.07 4.26-1.74 4.29"></path> <path id="path97" style="fill:#473901" d="m259.73 285.25c-5.19 0.2-18.99 0.73-29.09 0.5l-14.31-0.36c-4.25-0.23-9.9-0.48-14.14-0.76-0.88-0.06-2.06-0.14-2.94-0.2 2.04 0.13 4.76 0.31 6.79 0.45 17.05 0.74 30.51 1.33 54.33-0.14-0.2 0.32-0.42 0.5-0.64 0.51"></path> </g> </g> <g id="g99"> <g id="g101"> <path id="path103" style="fill:#705900" d="m0 162.43v-37.88c0 2.97 0.337 5.95 1.018 8.93v37.88c-0.681-2.98-1.018-5.96-1.018-8.93"></path> <path id="path105" style="fill:#856a00" d="m1.018 171.36v-37.88c1.276 5.58 3.76 11.17 7.505 16.7v37.88c-3.744-5.53-6.229-11.12-7.505-16.7"></path> <path id="path107" style="fill:#997a00" d="m8.524 188.06v-37.88c1.26 1.86 2.662 3.72 4.209 5.57 3.834 4.58 8.447 8.97 13.763 13.17v37.88c-5.316-4.2-9.928-8.59-13.763-13.17-1.547-1.85-2.95-3.71-4.209-5.57"></path> <path id="path109" style="fill:#ad8a00" d="m26.496 206.8v-37.88c44.392 35.04 137.8 56.01 236.2 51.53v37.88c-98.4 4.48-191.81-16.49-236.2-51.53"></path> </g> </g> <g id="g111"> <g id="g113"> <path id="path115" style="fill:#ebbc00" d="m391.92 28.718c18.26 7.962 41.53 19.803 59.64 40.862 8.34 9.688 13.07 19.182 15.58 25.439 4.43 11.061 5.2 18.821 5.75 27.821 0.02 20.23-13 38.84-39.56 55.14 0-22.86-16.9-45.99-37.76-51.66 49.62-30.446 40.75-70.88-21.35-97.245-62.09-26.363-160.73-31.577-237.23-12.54-76.496 19.037-110.32 57.215-81.34 91.825 28.978 34.6 112.97 56.34 202.02 52.28 2.78 10.16 5.03 36.94 5.03 59.81-110.18 5.02-214.11-21.88-249.97-64.7-8.6-10.28-12.73-20.81-12.73-31.2 0.463-11.81 1.429-21.45 9.687-37.896 2.787-5.55 9.639-16.782 24.226-29.65 29.095-25.667 73.507-38.528 91.247-42.867 102.74-25.121 210.31-10.052 266.76 14.581"></path> <path id="path117" style="fill:#ebbc00" d="m259 166.96c-0.9 1.15-75.56 3.28-76.31 3.29-7.82 0.11-7.82 0.11-15.85 4.98 9.49 6.17 25.36 16.5 95.29 24.07 0.37 7.03 0.57 14.26 0.57 21.15-110.18 5.02-214.11-21.88-249.97-64.7-8.6-10.28-12.73-20.81-12.73-31.2 0.295-7.53 0.34-8.69 1.493-15.16l1.442-6.02c2.228-6.895 2.827-8.748 6.751-16.716l3.395-5.828c4.888-7.143 5.399-7.889 9.716-12.871l5.307-5.589c3.187-2.942 7.522-6.775 10.868-9.534l7.137-5.257c3.381-2.201 7.896-5.128 11.361-7.195l8.825-4.813c3.541-1.708 8.248-4.019 11.838-5.623l10.366-4.28c3.74-1.358 8.71-3.221 12.481-4.493l11.79-3.679c3.98-1.079 9.28-2.579 13.29-3.58l12.95-2.983c4.1-0.798 9.55-1.924 13.65-2.653l13.46-2.164c4.15-0.537 9.67-1.312 13.83-1.787l13.78-1.368c4.19-0.295 9.76-0.749 13.95-0.983l13.94-0.593c4.19-0.063 9.78-0.176 13.96-0.212l13.94 0.167c4.17 0.163 9.72 0.31 13.88 0.544l13.77 0.92c4.1 0.389 9.58 0.848 13.68 1.297l13.43 1.663c4.02 0.619 9.38 1.383 13.38 2.064l12.92 2.407c3.9 0.859 9.12 1.943 13 2.87l12.22 3.149c3.78 1.124 8.84 2.56 12.6 3.761l11.3 3.881c3.67 1.438 8.59 3.297 12.22 4.827l9.75 4.399c11.5 5.873 21.44 10.945 34.42 21.401l6.01 5.227c2.92 2.876 6.73 6.79 9.46 9.835l4.33 5.459c1.74 2.532 4.04 5.919 5.64 8.542l3.03 5.642c1.06 2.38 2.48 5.55 3.42 7.981l1.9 5.815c0.57 2.33 1.35 5.43 1.8 7.78l0.84 5.98c0.14 2.34 0.36 5.45 0.39 7.78 0 18.52-13.02 37.13-39.58 53.42 2.57-2.37 6-5.53 8.57-7.91 43.29-35.33 19.33-71.191 11.87-72.375-4.79-0.76-5.73 0.07-17.21 10.235-14.11 12.48-22.59 17.23-31.56 22.26-3.01-1.67-6.17-2.98-9.43-3.86 49.62-30.454 40.75-70.888-21.35-97.253-62.09-26.365-160.73-31.579-237.23-12.542-76.496 19.037-110.32 57.215-81.34 91.825 28.978 34.6 112.97 56.34 202.02 52.28 0.46 1.69 0.9 3.82 1.33 6.32"></path> <path id="path119" style="fill:#d6ab00" d="m258.16 162.65c-20.89 0.89-52.46 2.24-101.16-4.75-69.656-10.02-69.656-10.02-69.651-1.94 0 0.37 17.971 38.8 169.28 50.7 1.75 0.08 4.6-0.98 5.83 0.26 0.15 4.56 0.24 9.11 0.24 13.53-110.18 5.02-214.11-21.88-249.97-64.7-8.6-10.28-12.73-20.81-12.73-31.2 0.295-7.53 0.34-8.69 1.493-15.16l1.442-6.02c2.228-6.895 2.827-8.748 6.751-16.716l3.395-5.828c4.888-7.143 5.399-7.889 9.716-12.871l5.307-5.589c3.187-2.942 7.522-6.775 10.868-9.534l7.137-5.257c3.381-2.201 7.896-5.128 11.361-7.195l8.825-4.813c3.541-1.708 8.248-4.019 11.838-5.623l10.366-4.28c3.74-1.358 8.71-3.221 12.481-4.493l11.79-3.679c3.98-1.079 9.28-2.579 13.29-3.58l12.95-2.983c4.1-0.798 9.55-1.924 13.65-2.653l13.46-2.164c4.15-0.537 9.67-1.312 13.83-1.787l13.78-1.368c4.19-0.295 9.76-0.749 13.95-0.983l13.94-0.593c4.19-0.063 9.78-0.176 13.96-0.212l13.94 0.167c4.17 0.163 9.72 0.31 13.88 0.544l13.77 0.92c4.1 0.389 9.58 0.848 13.68 1.297l13.43 1.663c4.02 0.619 9.38 1.383 13.38 2.064l12.92 2.407c3.9 0.859 9.12 1.943 13 2.87l12.22 3.149c3.78 1.124 8.84 2.56 12.6 3.761l11.3 3.881c3.67 1.438 8.59 3.297 12.22 4.827l9.75 4.399c11.5 5.873 21.44 10.945 34.42 21.401l6.01 5.227c2.92 2.876 6.73 6.79 9.46 9.835l4.33 5.459c1.74 2.532 4.04 5.919 5.64 8.542l3.03 5.642c1.06 2.38 2.48 5.55 3.42 7.981l1.9 5.815c0.57 2.33 1.35 5.43 1.8 7.78l0.84 5.98c0.14 2.34 0.36 5.45 0.39 7.78 0 7.5-2.14 15.02-6.45 22.39 0.45-1.18 1.04-2.75 1.49-3.93 12.31-47.8-20.54-67.251-26.25-63.18-2.71 1.933-3.86 6.747-5.44 9.676-7.6 14.044-13.44 23.394-36.91 38.044-1.25-0.48-2.51-0.89-3.78-1.23 49.62-30.453 40.75-70.887-21.35-97.252-62.09-26.366-160.73-31.58-237.23-12.543-76.496 19.037-110.32 57.215-81.34 91.825 28.978 34.6 112.97 56.34 202.02 52.28 0.16 0.61 0.33 1.28 0.49 2.01"></path> <path id="path121" style="fill:#c29b00" d="m262.7 220.45c-110.18 5.02-214.11-21.88-249.97-64.7-8.6-10.28-12.73-20.81-12.73-31.2 0.295-7.53 0.34-8.69 1.493-15.16l1.442-6.02c2.228-6.895 2.827-8.748 6.751-16.716l3.395-5.828c4.888-7.143 5.399-7.889 9.716-12.871l5.307-5.589c3.187-2.942 7.522-6.775 10.868-9.534l7.137-5.257c3.381-2.201 7.896-5.128 11.361-7.195l8.825-4.813c3.541-1.708 8.248-4.019 11.838-5.623l10.366-4.28c3.74-1.358 8.71-3.221 12.481-4.493l11.79-3.679c3.98-1.079 9.28-2.579 13.29-3.58l12.95-2.983c4.1-0.798 9.55-1.924 13.65-2.653l13.46-2.164c4.15-0.537 9.67-1.312 13.83-1.787l13.78-1.368c4.19-0.295 9.76-0.749 13.95-0.983l13.94-0.593c4.19-0.063 9.78-0.176 13.96-0.212l13.94 0.167c4.17 0.163 9.72 0.31 13.88 0.544l13.77 0.92c4.1 0.389 9.58 0.848 13.68 1.297l13.43 1.663c4.02 0.619 9.38 1.383 13.38 2.064l12.92 2.407c3.9 0.859 9.12 1.943 13 2.87l12.22 3.149c3.78 1.124 8.84 2.56 12.6 3.761l11.3 3.881c3.67 1.438 8.59 3.297 12.22 4.827l9.75 4.399c11.5 5.873 21.44 10.945 34.42 21.401l6.01 5.227c2.92 2.876 6.73 6.79 9.46 9.835l4.33 5.459c1.74 2.532 4.04 5.919 5.64 8.542l3.03 5.642c1.06 2.38 2.48 5.55 3.42 7.981l1.9 5.815c0.57 2.33 1.35 5.43 1.8 7.78l0.84 5.98c0.14 2.34 0.36 5.45 0.39 7.78 0 2.1-0.17 4.19-0.5 6.29 0.09-1.94 0.22-4.52 0.31-6.46-5.09-143.47-352.61-143.44-419.98-66.971-9.078 10.301-11.071 18.887-12.39 24.568l-5.47 52.353c0.271 9.47 11.699 25.43 20.98 32.34 52.59 39.1 191.15 46.12 206.77 46.79 0.05 2.35 0.07 4.68 0.07 6.98"></path> <path id="path123" style="fill:#ad8a00" d="m262.7 220.45c-110.18 5.02-214.11-21.88-249.97-64.7-8.6-10.28-12.73-20.81-12.73-31.2 0.295-7.53 0.34-8.69 1.493-15.16l1.442-6.02c2.228-6.895 2.827-8.748 6.751-16.716l3.395-5.828c4.888-7.143 5.399-7.889 9.716-12.871l5.307-5.589c3.187-2.942 7.522-6.775 10.868-9.534l7.137-5.257c3.381-2.201 7.896-5.128 11.361-7.195l8.825-4.813c3.541-1.708 8.248-4.019 11.838-5.623l10.366-4.28c3.74-1.358 8.71-3.221 12.481-4.493l11.79-3.679c3.98-1.079 9.28-2.579 13.29-3.58l12.95-2.983c4.1-0.798 9.55-1.924 13.65-2.653l13.46-2.164c4.15-0.537 9.67-1.312 13.83-1.787l13.78-1.368c4.19-0.295 9.76-0.749 13.95-0.983l13.94-0.593c4.19-0.063 9.78-0.176 13.96-0.212l13.94 0.167c4.17 0.163 9.72 0.31 13.88 0.544l13.77 0.92c4.1 0.389 9.58 0.848 13.68 1.297l13.43 1.663c4.02 0.619 9.38 1.383 13.38 2.064l12.92 2.407c3.9 0.859 9.12 1.943 13 2.87l12.22 3.149c3.78 1.124 8.84 2.56 12.6 3.761l11.3 3.881c3.67 1.438 8.59 3.297 12.22 4.827l9.75 4.399c11.5 5.873 21.44 10.945 34.42 21.401l6.01 5.227c2.92 2.876 6.73 6.79 9.46 9.835l4.33 5.459c1.24 1.799 2.94 4.162 4.1 6.007l-2.96-4.403c-77.7-102.81-422.56-102.99-440.12 31.606-13.624 104.37 168.16 109.29 245.79 111.39v0.81"></path> <path id="path125" style="fill:#997a00" d="m12.733 155.75c-8.603-10.28-12.733-20.81-12.733-31.2 0.295-7.53 0.34-8.69 1.493-15.16l1.442-6.02c2.228-6.895 2.827-8.748 6.751-16.716l3.395-5.828c4.888-7.143 5.399-7.889 9.716-12.871l5.307-5.589c3.187-2.942 7.522-6.775 10.868-9.534l7.137-5.257c3.381-2.201 7.896-5.128 11.361-7.195l8.825-4.813c3.541-1.708 8.248-4.019 11.838-5.623l10.366-4.28c3.74-1.358 8.71-3.221 12.481-4.493l11.79-3.679c3.98-1.079 9.28-2.579 13.29-3.58l12.95-2.983c4.1-0.798 9.55-1.924 13.65-2.653l13.46-2.164c4.15-0.537 9.67-1.312 13.83-1.787l13.78-1.368c4.19-0.295 9.76-0.749 13.95-0.983l13.94-0.593c4.19-0.063 9.78-0.176 13.96-0.212l13.94 0.167c4.17 0.163 9.72 0.31 13.88 0.544l13.77 0.92c4.1 0.389 9.58 0.848 13.68 1.297l13.43 1.663c4.02 0.619 9.38 1.383 13.38 2.064l12.92 2.407c3.9 0.859 9.12 1.943 13 2.87l12.22 3.149c3.78 1.124 8.84 2.56 12.6 3.761l11.3 3.881c3.67 1.438 8.59 3.297 12.22 4.827l9.75 4.399c13.95 7.122 18.54 9.592 31.32 18.948l-6.03-4.396c-132.98-89.753-444.57-48.175-416.94 86.21 1.133 5.52 5.05 20.02 16.88 35.36-5.487-4.3-10.236-8.8-14.167-13.49"></path> <g id="g127"> <path id="path129" style="fill:#856a00" d="m179.95 4.327c18.47-1.833 18.47-1.833 27.73-2.351l13.94-0.593c4.19-0.063 9.78-0.176 13.97-0.212l13.93 0.167c4.17 0.163 9.72 0.31 13.88 0.544l13.77 0.918c4.1 0.389 9.58 0.848 13.68 1.297l13.43 1.663 9.28 1.387-13.26-1.921c-51.14-6.174-96.26-5.305-146.31 2.819l13.48-2.123 12.48-1.595"></path> <path id="path131" style="fill:#856a00" d="m149.47 8.856c-14 2.79-14 2.79-20.45 4.333l13.02-2.888 7.43-1.445"></path> <path id="path133" style="fill:#856a00" d="m0 124.55c0.295-7.53 0.34-8.69 1.493-15.16l1.442-6.02c2.228-6.895 2.827-8.748 6.751-16.716l3.395-5.828c4.888-7.143 5.399-7.889 9.716-12.871l5.307-5.589c3.187-2.942 7.522-6.775 10.868-9.534l7.137-5.257c3.381-2.201 7.896-5.128 11.361-7.195l8.825-4.813c3.541-1.708 8.248-4.019 11.838-5.623l10.366-4.28c3.74-1.358 8.71-3.221 12.481-4.493l11.79-3.679 10.64-2.913-9.28 2.52c-119.5 36.723-117.43 99.181-105.57 133.14-5.769-8.51-8.56-17.15-8.56-25.69"></path> </g> <path id="path135" style="fill:#705900" d="m0 124.55c0.295-7.53 0.34-8.69 1.493-15.16l1.442-6.02c2.228-6.895 2.827-8.748 6.751-16.716l3.395-5.828c1.97-2.879 4.662-6.676 6.799-9.435l-4.599 6.129c-6.372 10.14-17.036 27.11-14.262 55.96-0.682-2.98-1.019-5.96-1.019-8.93"></path> </g> </g> <g id="g137"> <g id="g139"> <path id="path141" style="fill:white" d="m459.69 287c0.31 1.08-1.59 2.06-4.24 2.18-2.65 0.13-5.04-0.65-5.35-1.73-0.3-1.08 1.6-2.05 4.24-2.18 2.65-0.13 5.05 0.65 5.35 1.73z"></path> <path id="path143" style="fill:white" d="m552.33 282.65c0.31 1.08-1.59 2.05-4.24 2.18s-5.05-0.65-5.35-1.73c-0.31-1.08 1.59-2.06 4.24-2.18 2.65-0.13 5.04 0.65 5.35 1.73z"></path> </g> </g> <g id="g145"> <g id="g147"> <path id="path149" style="fill:#ccc" d="m216.62 307.96c84.81-3.98 203.62-9.57 203.62-9.57l-4.33-15.34-264.89 12.45s-19.22 16.45 65.6 12.46z"></path> </g> </g> <g id="g151"> <g id="g153"> <path id="path155" style="fill:#3c3c3c" d="m611.28 282.95v2.92c0 0.3-0.02 0.6-0.07 0.91v-2.92c0.05-0.31 0.07-0.61 0.07-0.91"></path> <path id="path157" style="fill:#3d3d3d" d="m611.21 283.86v2.92c-0.15 0.91-0.5 1.85-1.05 2.8v-2.93c0.55-0.94 0.9-1.88 1.05-2.79"></path> <path id="path159" style="fill:#3e3e3e" d="m610.16 286.65v2.93c-1.87 3.24-5.96 6.5-11.3 8.41v-2.93c5.34-1.9 9.43-5.16 11.3-8.41"></path> <path id="path161" style="fill:#3d3d3d" d="m598.86 295.06v2.93c-1.28 0.45-2.64 0.83-4.06 1.12v-2.93c1.42-0.28 2.78-0.66 4.06-1.12"></path> <path id="path163" style="fill:#3c3c3c" d="m594.8 296.18v2.93c-1.23 0.24-2.5 0.41-3.81 0.5v-2.93c1.31-0.08 2.58-0.25 3.81-0.5"></path> <path id="path165" style="fill:#3b3b3b" d="m590.99 296.68v2.92c-0.11 0.01-0.23 0.02-0.35 0.03-12.34 0.49-24.09-6-29.84-5.62-0.22 0.01-0.47 0.02-0.73 0.04v-2.92c0.26-0.02 0.51-0.03 0.73-0.04 5.75-0.38 17.5 6.1 29.84 5.61 0.12 0 0.24-0.01 0.35-0.02"></path> <path id="path167" style="fill:#3c3c3c" d="m560.07 291.13v2.92c-7.83 0.53-34.07 4.33-58.08 5.91v-2.92c24.01-1.58 50.25-5.38 58.08-5.91"></path> <path id="path169" style="fill:#3b3b3b" d="m501.99 297.04v2.92c-2.35 0.16-4.67 0.29-6.96 0.4-25.39 1.19-52.03-1.08-52.79-1.14v-2.92c0.76 0.06 27.4 2.33 52.79 1.14 2.29-0.11 4.61-0.24 6.96-0.4"></path> <path id="path171" style="fill:#393939" d="m442.24 296.3v2.92h-0.01v-2.92h0.01"></path> <polyline id="polyline173" style="fill:#383838" points="442.23 296.3 442.23 299.22 442.23 299.22 442.23 296.3 442.23 296.3" fill="#383838" i:knockout="Off"></polyline> </g> </g> <g id="g175"> <g id="g177"> <path id="path179" style="fill:#3d3d3d" d="m611.28 285.87c-0.08 7.27-1.3 12.21-3.84 15.55-5.4 7.06-14.07 8.32-14.43 8.37-5.93 0.82-10.47-0.05-20.27-2.93-7.94-2.32-10.03-2.57-13.61-2.3-2.92 0.22-8.77 0.9-14.41 1.57-27.43 3.22-43.67 4.79-61.78 5.01-1.16 0.02-2.7 0.02-3.86 0.02-18.07-0.04-33.36-1.22-39.09-1.72 0.23 0.02 0.52-0.18 0.78-0.57 0.52-1.05 1.4-2.83 1.46-9.65 0 0 27.04 2.35 52.8 1.14 26.47-1.25 58.38-6.01 65.77-6.35 5.75-0.38 17.5 6.11 29.84 5.62 11.7-0.62 20.64-8.13 20.64-13.76"></path> <path id="path181" style="fill:#3d3d3d" d="m440.77 308.87l0.43-0.86 0.16-0.46 0.14-0.53 0.13-0.57 0.12-0.63 0.11-0.68 0.1-0.73 0.08-0.77 0.06-0.81 0.06-0.85c0.01-0.26 0.04-0.62 0.04-0.89l0.02-0.92c0-0.29 0.01-0.67 0.01-0.95 0 0 27.04 2.35 52.8 1.14 26.47-1.25 58.38-6.01 65.77-6.35 5.75-0.38 17.5 6.11 29.84 5.62 2.99-0.16 5.8-0.77 8.32-1.68 0.2 0.19 0.46 0.43 0.66 0.62 2.43 0.82 7.47 2.53 10.53-8.98 0.74-1.27 1.13-2.54 1.13-3.72 0 0.32 0 0.75-0.01 1.07s-0.02 0.74-0.03 1.06l-0.06 1.04c-0.03 0.3-0.06 0.72-0.08 1.02l-0.11 0.99c-0.03 0.29-0.08 0.69-0.12 0.98l-0.15 0.94c-0.05 0.28-0.12 0.66-0.17 0.94l-0.2 0.9c-0.07 0.27-0.15 0.64-0.23 0.91l-0.26 0.88c-0.09 0.28-0.22 0.65-0.32 0.92l-0.37 0.9c-0.16 0.34-0.37 0.79-0.54 1.12l-0.56 0.95c-0.82 1.19-0.87 1.27-1.45 1.94l-0.86 0.93c-4.43 4.13-9.34 6.27-15.44 6.72l-1.59 0.03-1.6-0.07-1.61-0.16c-0.49-0.07-1.14-0.15-1.62-0.23l-1.62-0.29c-0.49-0.1-1.14-0.24-1.63-0.35l-1.61-0.38c-0.48-0.13-1.12-0.3-1.6-0.42l-1.59-0.44c-0.47-0.14-1.09-0.34-1.57-0.46l-1.54-0.45c-0.46-0.13-1.1-0.23-1.52-0.44l-1.48-0.42c-0.44-0.12-1.02-0.28-1.46-0.39l-1.41-0.35c-0.41-0.09-0.96-0.22-1.37-0.3l-1.33-0.24c-0.38-0.05-0.9-0.13-1.28-0.17l-1.23-0.09-1.18 0.01-1.35 0.09c-0.51 0.04-1.19 0.02-1.69 0.14l-2 0.2c-0.69 0.08-1.6 0.25-2.3 0.25l-2.56 0.29c-0.85 0.1-1.97 0.33-2.82 0.33l-3.04 0.36-3.25 0.38-3.43 0.4-3.58 0.41-3.73 0.42c-1.15 0.13-2.68 0.42-3.84 0.42l-3.93 0.41c-9.5 0.96-12.13 1.15-12.13 1.15l-4.08 0.34c-1.22 0.08-2.84 0.29-4.06 0.29l-4.02 0.26c-7.74 0.41-11.41 0.51-19.59 0.55l-3.8-0.03c-1.12-0.01-2.61-0.05-3.73-0.05l-3.61-0.08c-1.05-0.04-2.45-0.11-3.5-0.11l-3.35-0.13c-0.95-0.04-2.22-0.14-3.18-0.14l-2.99-0.15c-0.83-0.05-1.95-0.15-2.78-0.15l-2.56-0.16c-4.03-0.27-5.55-0.38-8.58-0.63l-0.73-0.07-0.28-0.02c0.23 0.02 0.52-0.18 0.78-0.57"></path> <path id="path183" style="fill:#3c3c3c" d="m440.77 308.87l0.43-0.86 0.16-0.46 0.14-0.53 0.13-0.57 0.12-0.63 0.11-0.68 0.1-0.73 0.08-0.77 0.06-0.81 0.06-0.85c0.01-0.26 0.04-0.62 0.04-0.89l0.02-0.92c0-0.29 0.01-0.67 0.01-0.95 0 0 27.04 2.35 52.8 1.14 26.47-1.25 58.38-6.01 65.77-6.35 5.75-0.38 17.5 6.11 29.84 5.62 1.43-0.08 2.82-0.26 4.16-0.53 7.8 10.85 14.93-1.87 15.98-8.23 0.29-1.73 0.36-2.86 0.42-4.06 0.06-0.32 0.08-0.63 0.08-0.94 0 0.32 0 0.75-0.01 1.07s-0.02 0.75-0.03 1.07l-0.06 1.03c-0.03 0.31-0.06 0.72-0.08 1.02l-0.11 0.99c-0.03 0.3-0.08 0.69-0.12 0.98l-0.15 0.94c-0.05 0.28-0.12 0.66-0.17 0.94l-0.2 0.9c-0.07 0.27-0.15 0.64-0.23 0.91l-0.26 0.88c-0.09 0.28-0.22 0.65-0.32 0.92l-0.37 0.9c-0.16 0.34-0.37 0.79-0.54 1.12l-0.56 0.96c-0.82 1.18-0.87 1.26-1.45 1.94l-0.86 0.92c-4.43 4.13-9.34 6.27-15.44 6.73l-1.59 0.02-1.6-0.07-1.61-0.16c-0.49-0.07-1.14-0.15-1.62-0.23l-1.62-0.29c-0.49-0.1-1.14-0.24-1.63-0.35l-1.61-0.38c-0.48-0.13-1.12-0.29-1.6-0.42l-1.59-0.44c-0.47-0.14-1.09-0.34-1.57-0.45l-1.54-0.46c-0.46-0.13-1.1-0.23-1.52-0.44l-1.48-0.42c-0.44-0.12-1.02-0.28-1.46-0.39l-1.41-0.35c-0.41-0.09-0.96-0.22-1.37-0.3l-1.33-0.24c-0.38-0.05-0.9-0.13-1.28-0.17l-1.23-0.09-1.18 0.01-1.35 0.09c-0.51 0.04-1.19 0.02-1.69 0.14l-2 0.2c-0.69 0.08-1.6 0.25-2.3 0.25l-2.56 0.29c-0.85 0.1-1.97 0.33-2.82 0.33l-3.04 0.36-3.25 0.38-3.43 0.4-3.58 0.41-3.73 0.42c-1.15 0.13-2.68 0.42-3.84 0.42l-3.93 0.41c-9.5 0.96-12.13 1.15-12.13 1.15l-4.08 0.34c-1.22 0.08-2.84 0.29-4.06 0.29l-4.02 0.26c-7.74 0.41-11.41 0.51-19.59 0.55l-3.8-0.03c-1.12-0.01-2.61-0.05-3.73-0.05l-3.61-0.08c-1.05-0.04-2.45-0.11-3.5-0.11l-3.35-0.13c-0.95-0.04-2.22-0.14-3.18-0.14l-2.99-0.15c-0.83-0.05-1.95-0.15-2.78-0.15l-2.56-0.16c-4.03-0.27-5.55-0.38-8.58-0.63l-0.73-0.07-0.28-0.02c0.23 0.02 0.52-0.18 0.78-0.57"></path> <path id="path185" style="fill:#3b3b3b" d="m440.77 308.87l0.43-0.86 0.16-0.46 0.14-0.53 0.13-0.57 0.12-0.63 0.11-0.68 0.1-0.73 0.08-0.77 0.06-0.81 0.06-0.85c0.01-0.26 0.04-0.62 0.04-0.89l0.02-0.92c0-0.29 0.01-0.67 0.01-0.95 0 0 27.04 2.35 52.8 1.14 2.27-0.11 4.57-0.24 6.89-0.39 20.97 0.49 53.89-1.57 57.76-5.89 0.42-0.03 0.8-0.06 1.12-0.07 5.75-0.38 17.5 6.11 29.84 5.62 0.06-0.01 0.14-0.01 0.2-0.01 10.61 16.66 19.53-5.04 19.6-5.29 0.27-1.06 0.44-2.38 0.52-3.02l-0.24 1.66c-0.05 0.28-0.11 0.66-0.17 0.94l-0.2 0.9c-0.07 0.27-0.15 0.64-0.23 0.91l-0.26 0.88c-0.09 0.28-0.22 0.65-0.32 0.92l-0.37 0.9c-0.16 0.34-0.37 0.79-0.54 1.12l-0.56 0.96c-0.82 1.18-0.87 1.26-1.45 1.94l-0.86 0.92c-4.43 4.13-9.34 6.27-15.44 6.73l-1.59 0.02-1.6-0.07-1.61-0.16c-0.49-0.07-1.14-0.15-1.62-0.23l-1.62-0.29c-0.49-0.1-1.14-0.24-1.62-0.35l-1.62-0.38c-0.48-0.13-1.12-0.29-1.6-0.42l-1.59-0.44c-0.47-0.14-1.09-0.34-1.57-0.45l-1.54-0.46c-0.46-0.13-1.1-0.23-1.52-0.44l-1.48-0.42c-0.44-0.12-1.02-0.28-1.46-0.39l-1.41-0.35c-0.41-0.09-0.96-0.22-1.37-0.3l-1.33-0.24c-0.38-0.05-0.9-0.13-1.28-0.17l-1.23-0.09-1.18 0.01-1.35 0.09c-0.51 0.04-1.19 0.02-1.69 0.14l-2 0.2c-0.69 0.08-1.6 0.25-2.3 0.25l-2.56 0.29c-0.85 0.1-1.97 0.33-2.82 0.33l-3.04 0.36-3.25 0.38-3.43 0.4-3.58 0.41-3.73 0.42c-1.15 0.13-2.68 0.42-3.84 0.42l-3.93 0.41c-9.5 0.96-12.13 1.15-12.13 1.15l-4.08 0.34c-1.22 0.08-2.84 0.29-4.06 0.29l-4.02 0.26c-7.74 0.41-11.41 0.51-19.59 0.55l-3.8-0.03c-1.12-0.01-2.61-0.05-3.73-0.05l-3.61-0.08c-1.05-0.04-2.45-0.11-3.5-0.11l-3.35-0.13c-0.95-0.04-2.22-0.14-3.18-0.14l-2.99-0.15c-0.83-0.05-1.95-0.15-2.78-0.15l-2.56-0.16c-4.03-0.27-5.55-0.38-8.58-0.63l-0.73-0.07-0.28-0.02c0.23 0.02 0.52-0.18 0.78-0.57"></path> <path id="path187" style="fill:#393939" d="m440.77 308.87l0.43-0.86 0.16-0.46 0.14-0.53 0.13-0.57 0.12-0.63 0.11-0.68 0.1-0.73 0.08-0.77 0.06-0.81 0.06-0.85c0.01-0.26 0.04-0.62 0.04-0.89l0.02-0.92c0-0.29 0.01-0.67 0.01-0.95l0.53 0.04c0.9 6.48 49.44 6.49 59.16 6.43 10.61-0.07 54.17-2.69 59.04-6.59 0.23-0.19 0.48-0.59 0.78-0.62 5.87-0.7 8.68 5.72 14.1 6.06 14 0.9 14 0.9 14.6 1.22 9.26 5.13 17.53-4.14 19.26-8.69l-0.53 1.35c-0.16 0.34-0.37 0.79-0.54 1.12l-0.56 0.96c-0.82 1.18-0.87 1.26-1.45 1.94l-0.86 0.92c-4.43 4.13-9.34 6.27-15.44 6.73l-1.59 0.02-1.6-0.07-1.61-0.16c-0.49-0.07-1.14-0.15-1.62-0.23l-1.62-0.29c-0.49-0.1-1.14-0.24-1.63-0.35l-1.61-0.38c-0.48-0.13-1.12-0.29-1.6-0.42l-1.59-0.44c-0.47-0.14-1.09-0.34-1.57-0.45l-1.54-0.46c-0.46-0.13-1.1-0.23-1.52-0.44l-1.48-0.42c-0.44-0.12-1.02-0.28-1.46-0.39l-1.41-0.35c-0.41-0.09-0.96-0.22-1.37-0.3l-1.33-0.24c-0.38-0.05-0.9-0.13-1.28-0.17l-1.23-0.09-1.18 0.01-1.35 0.09c-0.51 0.04-1.19 0.02-1.69 0.14l-2 0.2c-0.69 0.08-1.6 0.25-2.3 0.25l-2.56 0.29c-0.85 0.1-1.97 0.33-2.82 0.33l-3.04 0.36-3.25 0.38-3.43 0.4-3.58 0.41-3.73 0.42c-1.15 0.13-2.68 0.42-3.84 0.42l-3.93 0.41c-9.5 0.96-12.13 1.15-12.13 1.15l-4.08 0.34c-1.22 0.08-2.84 0.29-4.06 0.29l-4.02 0.26c-7.74 0.41-11.41 0.51-19.59 0.55l-3.8-0.03c-1.12-0.01-2.61-0.05-3.73-0.05l-3.61-0.08c-1.05-0.04-2.45-0.11-3.5-0.11l-3.35-0.13c-0.95-0.04-2.22-0.14-3.18-0.14l-2.99-0.15c-0.83-0.05-1.95-0.15-2.78-0.15l-2.56-0.16c-4.03-0.27-5.55-0.38-8.58-0.63l-0.73-0.07-0.28-0.02c0.23 0.02 0.52-0.18 0.78-0.57"></path> <path id="path189" style="fill:#383838" d="m440.77 308.87l0.43-0.86 0.16-0.46 0.14-0.53 0.13-0.57 0.12-0.63 0.11-0.68 0.1-0.73 0.08-0.77 0.06-0.81 0.06-0.85c0.01-0.26 0.04-0.62 0.04-0.89l0.02-0.92c0-0.29 0.01-0.67 0.01-0.95l0.27 0.02c0.92 9.37 0.92 9.37 34.61 9.78 2.91 0.04 6.9 0.09 9.4 0.08 17.73-0.08 35.11-1.55 71.52-6.07 12.51-1.55 23.6 6.23 35.98 5.5 4.97-0.3 10.39-3.21 13.48-7.25 0.42-0.54 0.89-1.32 1.23-1.91l-0.65 1.12c-0.82 1.19-0.87 1.26-1.45 1.94l-0.86 0.92c-4.43 4.14-9.34 6.28-15.44 6.73l-1.59 0.03-1.6-0.08-1.61-0.15c-0.49-0.07-1.14-0.15-1.62-0.23l-1.62-0.29c-0.49-0.11-1.14-0.24-1.63-0.35l-1.61-0.39c-0.48-0.12-1.12-0.29-1.6-0.42l-1.59-0.44c-0.47-0.13-1.09-0.33-1.57-0.45l-1.54-0.45c-0.46-0.13-1.1-0.23-1.52-0.44l-1.48-0.42c-0.44-0.12-1.02-0.28-1.46-0.39l-1.41-0.35c-0.41-0.09-0.96-0.22-1.37-0.3l-1.33-0.24c-0.38-0.05-0.9-0.13-1.28-0.17l-1.23-0.09-1.18 0.01-1.35 0.09c-0.51 0.04-1.19 0.02-1.69 0.14l-2 0.2c-0.69 0.08-1.6 0.25-2.3 0.25l-2.56 0.29c-0.85 0.1-1.97 0.33-2.82 0.33l-3.04 0.36-3.25 0.38-3.43 0.4-3.58 0.41-3.73 0.42c-1.15 0.13-2.68 0.42-3.84 0.42l-3.93 0.41c-9.5 0.96-12.13 1.15-12.13 1.15l-4.08 0.34c-1.22 0.08-2.84 0.29-4.06 0.29l-4.02 0.26c-7.74 0.41-11.41 0.51-19.59 0.55l-3.8-0.03c-1.12-0.01-2.61-0.05-3.73-0.05l-3.61-0.08c-1.05-0.04-2.45-0.11-3.5-0.11l-3.35-0.13c-0.95-0.04-2.22-0.14-3.18-0.14l-2.99-0.15c-0.83-0.05-1.95-0.15-2.78-0.15l-2.56-0.16c-4.03-0.27-5.55-0.38-8.58-0.63l-0.73-0.07-0.28-0.02c0.23 0.02 0.52-0.18 0.78-0.57"></path> <path id="path191" style="fill:#373737" d="m440.77 308.87l0.43-0.86 0.16-0.46 0.14-0.53 0.13-0.57 0.12-0.63 0.11-0.68 0.1-0.73 0.08-0.77 0.06-0.81 0.06-0.85c0.01-0.26 0.04-0.62 0.04-0.89l0.02-0.92c0-0.29 0.01-0.67 0.01-0.95l0.1 0.01c0.13 3.19-3.25 6.81 0.32 9.57 1.37 1.05 33.14 2.17 49.45 1.47 15.23-0.65 15.23-0.65 61.72-5.79 12.58-1.4 23.95 5.97 36.46 5.04 3.55-0.26 10.94-0.8 16.9-7.77-0.41 0.5-0.98 1.14-1.42 1.61-4.43 4.13-9.34 6.27-15.44 6.73l-1.59 0.02-1.6-0.07-1.61-0.16c-0.49-0.07-1.14-0.15-1.62-0.23l-1.62-0.29c-0.49-0.1-1.14-0.23-1.62-0.34l-1.62-0.39c-0.48-0.13-1.12-0.29-1.6-0.42l-1.59-0.44c-0.47-0.14-1.09-0.33-1.57-0.45l-1.54-0.46c-0.46-0.13-1.1-0.23-1.52-0.44l-1.48-0.42c-0.44-0.12-1.02-0.28-1.46-0.39l-1.41-0.35c-0.41-0.09-0.96-0.22-1.37-0.3l-1.33-0.24c-0.38-0.05-0.9-0.13-1.28-0.17l-1.23-0.09-1.18 0.01-1.35 0.09c-0.51 0.04-1.19 0.02-1.69 0.14l-2 0.2c-0.69 0.08-1.6 0.25-2.3 0.25l-2.56 0.29c-0.85 0.1-1.97 0.33-2.82 0.33l-3.04 0.36-3.25 0.38-3.43 0.4-3.58 0.41-3.73 0.42c-1.15 0.13-2.68 0.42-3.84 0.42l-3.93 0.41c-9.5 0.96-12.13 1.15-12.13 1.15l-4.08 0.34c-1.22 0.08-2.84 0.29-4.06 0.29l-4.02 0.26c-7.74 0.41-11.41 0.51-19.59 0.55l-3.8-0.03c-1.12-0.01-2.61-0.05-3.73-0.05l-3.61-0.08c-1.05-0.04-2.45-0.11-3.5-0.11l-3.35-0.13c-0.95-0.04-2.22-0.14-3.18-0.14l-2.99-0.15c-0.83-0.05-1.95-0.15-2.78-0.15l-2.56-0.16c-4.03-0.27-5.55-0.38-8.58-0.63l-0.73-0.07-0.28-0.02c0.23 0.02 0.52-0.18 0.78-0.57"></path> <path id="path193" style="fill:#363636" d="m440.16 309.4c15.44 0.31 30.85 1.82 46.32 1.51 1.67-0.03 3.9-0.1 5.58-0.17 23.14-0.94 45.82-6.89 69.1-6.41 13.7 0.29 26.96 10.22 41.05 1.87l-1.23 0.74c-2.59 1.36-5.76 2.84-10.66 3.15l-1.59 0.02-1.6-0.07-1.61-0.16c-0.49-0.07-1.14-0.15-1.62-0.23l-1.62-0.29c-0.49-0.1-1.14-0.23-1.63-0.34l-1.61-0.39c-0.48-0.13-1.12-0.29-1.6-0.42l-1.59-0.44c-0.47-0.14-1.09-0.33-1.57-0.45l-1.54-0.46c-0.46-0.13-1.1-0.23-1.52-0.44l-1.48-0.42c-0.44-0.12-1.02-0.28-1.46-0.39l-1.41-0.35c-0.41-0.09-0.96-0.22-1.37-0.3l-1.33-0.24c-0.38-0.05-0.9-0.13-1.28-0.17l-1.23-0.09-1.18 0.01-1.35 0.09c-0.51 0.04-1.19 0.02-1.69 0.14l-2 0.2c-0.69 0.08-1.6 0.25-2.3 0.25l-2.56 0.29c-0.85 0.1-1.97 0.33-2.82 0.33l-3.04 0.36-3.25 0.38-3.43 0.4-3.58 0.41-3.73 0.42c-1.15 0.13-2.68 0.42-3.84 0.42l-3.93 0.41c-9.5 0.96-12.13 1.15-12.13 1.15l-4.08 0.34c-1.22 0.08-2.84 0.29-4.06 0.29l-4.02 0.26c-7.74 0.41-11.41 0.51-19.59 0.55l-3.8-0.03c-1.12-0.01-2.61-0.05-3.73-0.05l-3.61-0.08c-1.05-0.04-2.45-0.11-3.5-0.11l-3.35-0.13c-0.95-0.04-2.22-0.14-3.18-0.14l-2.99-0.15c-0.83-0.05-1.95-0.15-2.78-0.15l-2.56-0.16c-4.03-0.27-5.55-0.38-8.58-0.63l-0.73-0.07-0.28-0.02c0.01 0 0.09-0.01 0.17-0.04"></path> <g id="g195"> <path id="path197" style="fill:#343434" d="m587.02 310.03c2.28 0.11 3.42 0.17 6.08-0.25l-1.53 0.21-1.25 0.1-1.59 0.02-1.6-0.07c-0.04-0.01-0.09-0.01-0.13-0.01h0.02"></path> <path id="path199" style="fill:#343434" d="m450.18 310.2c37.59 2.32 57.6 0.27 95.74-4.22 13.6-1.6 14.27-1.57 16.52-1.47l-1.22-0.06-0.74 0.02-1.35 0.09c-0.51 0.04-1.2 0.02-1.69 0.14l-2 0.2c-0.69 0.08-1.61 0.25-2.3 0.25l-2.56 0.29c-0.85 0.1-1.97 0.33-2.82 0.33l-3.04 0.36-3.25 0.38-3.43 0.4-3.59 0.41-3.72 0.42c-1.15 0.12-2.68 0.42-3.84 0.42l-3.93 0.41c-9.5 0.96-12.13 1.15-12.13 1.15l-4.08 0.34c-1.22 0.08-2.84 0.29-4.07 0.29l-4.02 0.26c-7.74 0.41-11.4 0.51-19.58 0.55l-3.81-0.03c-1.11-0.01-2.6-0.05-3.72-0.05l-3.62-0.08c-1.04-0.04-2.44-0.11-3.49-0.11l-3.35-0.13c-0.95-0.04-2.22-0.14-3.18-0.14l-2.99-0.15c-0.84-0.05-1.95-0.16-2.78-0.16l-2.56-0.15c-3.26-0.22-3.26-0.22-4.36-0.3l2.03 0.14c0.88 0.06 2.05 0.14 2.93 0.2"></path> <path id="path201" style="fill:#343434" d="m441.43 309.56c1.14 0.1 2.27 0.19 3.41 0.27-0.82-0.06-1.92-0.15-2.75-0.21l-1.09-0.09c-0.15-0.02-0.35-0.03-0.5-0.05 0.27 0.03 0.62 0.06 0.88 0.08h0.05"></path> </g> <path id="path203" style="fill:#363636" d="m440.77 308.87c0.13-0.2 0.23-0.36 0.43-0.86l0.16-0.46c0.04-0.16 0.1-0.37 0.14-0.53l0.13-0.57c0.04-0.19 0.09-0.44 0.12-0.63l0.11-0.68c0.03-0.22 0.08-0.51 0.1-0.73l0.08-0.77c0.02-0.24 0.03-0.57 0.06-0.81l0.06-0.85c0.01-0.26 0.04-0.62 0.04-0.89l0.02-0.92c0-0.29 0.01-0.67 0.01-0.95h0.01c0.04 7.02-0.87 9.65-0.88 9.66 0 0.01-0.85 0.38-1.07 0.47 0.17-0.09 0.33-0.25 0.48-0.48"></path> <path id="path205" style="fill:#343434" d="m440.77 308.87c0.13-0.2 0.23-0.36 0.43-0.86l0.16-0.46c0.04-0.16 0.1-0.37 0.14-0.53l0.13-0.57c0.04-0.19 0.09-0.44 0.12-0.63l0.11-0.68c0.03-0.22 0.08-0.51 0.1-0.73l0.08-0.77c0.02-0.24 0.03-0.57 0.06-0.81 0.01-0.05 0.01-0.11 0.02-0.16-0.02 0.25-0.05 0.57-0.07 0.82-0.46 4.75-1.1 5.31-1.49 5.64 0.08-0.07 0.14-0.16 0.21-0.26"></path> </g> </g> <g id="g207"> <g id="g209"> <path id="path211" style="fill:#3d3d3d" d="m439.81 307.05l2.51-7.82c0 1.06-0.03 2.07-0.1 3.01l-2.51 7.84c0.06-0.95 0.1-1.97 0.1-3.03"></path> <path id="path213" style="fill:#3c3c3c" d="m439.71 310.08l2.51-7.84c-0.1 1.54-0.27 2.9-0.51 4.01l-2.53 7.89c0.24-1.13 0.42-2.51 0.53-4.06"></path> <path id="path215" style="fill:#3b3b3b" d="m439.18 314.14l2.53-7.89c-0.1 0.48-0.21 0.91-0.34 1.29l-0.09 0.27-0.09 0.29-0.09 0.3-0.11 0.32-0.1 0.33-0.11 0.34-0.12 0.36-0.12 0.37-0.12 0.38-0.12 0.39-0.13 0.41-0.14 0.41-0.13 0.43-0.15 0.44-0.14 0.46-0.15 0.46-0.16 0.48-0.15 0.48-0.16 0.5-0.16 0.51c0.12-0.39 0.24-0.84 0.35-1.33"></path> </g> </g> <polygon id="polygon217" style="fill:#3d3d3d" points="442.32 296.31 442.32 299.23 439.81 307.05 439.81 304.13"></polygon> <g id="g219"> <g id="g221"> <path id="path223" style="fill:#3c3c3c" d="m611.28 282.95v2.92c0 0.3-0.02 0.6-0.07 0.91v-2.92c0.05-0.31 0.07-0.61 0.07-0.91"></path> <path id="path225" style="fill:#3d3d3d" d="m611.21 283.86v2.92c-0.15 0.91-0.5 1.85-1.05 2.8v-2.93c0.55-0.94 0.9-1.88 1.05-2.79"></path> <path id="path227" style="fill:#3e3e3e" d="m610.16 286.65v2.93c-1.87 3.24-5.96 6.5-11.3 8.41v-2.93c5.34-1.9 9.43-5.16 11.3-8.41"></path> <path id="path229" style="fill:#3d3d3d" d="m598.86 295.06v2.93c-1.28 0.45-2.64 0.83-4.06 1.12v-2.93c1.42-0.28 2.78-0.66 4.06-1.12"></path> <path id="path231" style="fill:#3c3c3c" d="m594.8 296.18v2.93c-1.23 0.24-2.5 0.41-3.81 0.5v-2.93c1.31-0.08 2.58-0.25 3.81-0.5"></path> <path id="path233" style="fill:#3b3b3b" d="m590.99 296.68v2.92c-0.11 0.01-0.23 0.02-0.35 0.03-12.34 0.49-24.09-6-29.84-5.62-0.22 0.01-0.47 0.02-0.73 0.04v-2.92c0.26-0.02 0.51-0.03 0.73-0.04 5.75-0.38 17.5 6.1 29.84 5.61 0.12 0 0.24-0.01 0.35-0.02"></path> <path id="path235" style="fill:#3c3c3c" d="m560.07 291.13v2.92c-7.83 0.53-34.07 4.33-58.08 5.91v-2.92c24.01-1.58 50.25-5.38 58.08-5.91"></path> <path id="path237" style="fill:#3b3b3b" d="m501.99 297.04v2.92c-2.35 0.16-4.67 0.29-6.96 0.4-25.39 1.19-52.03-1.08-52.79-1.14v-2.92c0.76 0.06 27.4 2.33 52.79 1.14 2.29-0.11 4.61-0.24 6.96-0.4"></path> <path id="path239" style="fill:#393939" d="m442.24 296.3v2.92h-0.01v-2.92h0.01"></path> <polyline id="polyline241" style="fill:#383838" points="442.23 296.3 442.23 299.22 442.23 299.22 442.23 296.3 442.23 296.3" fill="#383838" i:knockout="Off"></polyline> </g> </g> <g id="g243"> <g id="g245"> <path id="path247" style="fill:#3e3e3e" d="m415.95 268.01c49.86-2.43 152.08-7.41 155.45-7.56 3.69-0.16 6.44 0.05 9.11 0.25 8.66 0.65 21 3.56 25.56 6.83 2.25 1.62 5.05 3.63 5.21 15.27 0 5.77-8.94 13.28-20.64 13.9-12.33 0.49-24.09-5.99-29.84-5.61-7.39 0.34-39.3 5.1-65.76 6.35-25.77 1.21-52.81-1.15-52.81-1.14-0.08-5.01-0.4-7.77-1.27-10.92-0.54-1.46-0.94-2.1-1.36-2.35 1.45 0.13 29 2.65 55.07 1.42 26.06-1.22 57.89-5.98 65.77-6.35s19.53 6.1 29.84 5.62c10.3-0.48 19.12-8.43 17.65-13.62-0.21-0.76-0.84-1.51-1.8-2.24-5.64-4.3-22.77-7.9-34.68-7.34-6.97 0.33-43.99 2.13-80.14 3.89s-71.44 3.48-74.97 3.65c-0.13-0.04-0.26-0.06-0.39-0.05"></path> <path id="path249" style="fill:#3e3e3e" d="m440.24 283.73l-0.08-0.12c0.89-0.44 28.44 2.07 54.51 0.85 26.06-1.23 57.89-5.98 65.77-6.36 7.88-0.37 19.53 6.11 29.84 5.62 10.3-0.48 19.12-8.43 17.65-13.62-0.21-0.76-0.84-1.51-1.8-2.24-5.65-4.3-22.77-7.9-34.68-7.34-6.97 0.33-43.99 2.13-80.14 3.89s-71.44 3.48-74.97 3.65c-0.12-0.01-0.27-0.03-0.39-0.05l2.07-0.1 1.69-0.09 2.09-0.1 2.47-0.12 2.83-0.14 3.15-0.15 3.47-0.17 3.76-0.18 4.02-0.2 4.27-0.2 4.48-0.22 4.68-0.23 4.86-0.24 5-0.24 5.13-0.25 5.24-0.26 5.32-0.26 5.37-0.26 5.42-0.26 5.42-0.27 5.42-0.26 5.38-0.26 5.32-0.26 5.25-0.26 5.14-0.25 5.02-0.24 4.86-0.24 4.7-0.22 4.5-0.22 4.28-0.21 4.04-0.2 3.77-0.18 3.48-0.17 3.17-0.15 2.84-0.14 2.48-0.12 2.1-0.1 1.7-0.08 1.26-0.06 2.17-0.06c0.68 0.01 1.58 0.03 2.25 0.03l2.32 0.1c0.72 0.05 1.66 0.18 2.37 0.18l2.4 0.24c0.72 0.1 1.68 0.22 2.4 0.32l2.39 0.37c1.09 0.2 2.54 0.47 3.63 0.69l2.27 0.51c0.65 0.16 1.53 0.38 2.18 0.56l2.08 0.6c0.6 0.19 1.39 0.44 1.97 0.64l1.82 0.68c0.5 0.22 1.18 0.49 1.68 0.72l1.46 0.74c0.41 0.24 0.96 0.55 1.36 0.82l0.96 0.71c0.38 0.36 0.88 0.84 1.23 1.23l0.37 0.51c0.85 1.51 0.95 1.71 1.45 3.3l0.2 0.79 0.19 0.86 0.17 0.86 0.14 0.92 0.13 0.93 0.1 0.98 0.08 0.99c0.02 0.31 0.05 0.72 0.06 1.03l0.04 1.04c0 0.36 0.01 0.85 0.01 1.21 0 5.62-8.94 13.14-20.64 13.75-12.34 0.5-24.09-5.99-29.84-5.61-7.39 0.34-39.3 5.1-65.77 6.35-25.76 1.21-52.8-1.15-52.8-1.14-0.01-0.7-0.02-1.62-0.05-2.31l-0.04-0.93-0.06-0.91-0.08-0.89-0.08-0.86-0.1-0.84-0.12-0.8-0.12-0.76-0.14-0.72-0.15-0.68-0.16-0.63-0.17-0.59-0.19-0.53c-0.17-0.44-0.35-0.82-0.53-1.12"></path> <path id="path251" style="fill:#3d3d3d" d="m440.3 283.84c26.95 3.48 38.1 4.92 69.44 3.76 0.43-0.01 43.62-2.25 49.96-6.06 3.68-2.21 5.32-2.04 8.29-1.73-5.81-1.97-5.81-1.97-23.96 0.16-81.11 9.53-103.98 3.3-104.2 3.24 1.22-0.04 28.77 2.47 54.84 1.25 26.06-1.23 57.89-5.98 65.77-6.35s19.53 6.1 29.84 5.61c10.3-0.48 19.11-8.43 17.65-13.62-0.21-0.76-0.84-1.51-1.8-2.24-5.65-4.3-22.77-7.9-34.69-7.34-6.97 0.33-43.98 2.13-80.13 3.89s-71.44 3.48-74.97 3.66c-0.12-0.02-0.28-0.04-0.39-0.06l2.07-0.1 1.69-0.08 2.09-0.11 2.47-0.12 2.82-0.13 3.16-0.16 3.47-0.17 3.76-0.18 4.02-0.2 4.27-0.2 4.48-0.22 4.68-0.23 4.86-0.24 5-0.24 5.13-0.25 5.24-0.26 5.32-0.26 5.37-0.26 5.42-0.26 5.42-0.26 5.42-0.27 5.38-0.26 5.32-0.26 5.25-0.25 5.14-0.26 5.02-0.24 4.86-0.24 4.7-0.22 4.5-0.22 4.28-0.21 4.04-0.2 3.77-0.18 3.48-0.17 3.17-0.15 2.84-0.14 2.48-0.12 2.1-0.1 1.7-0.08 1.26-0.06 2.17-0.06c0.68 0.01 1.58 0.03 2.25 0.03l2.32 0.1c0.71 0.05 1.66 0.18 2.37 0.18l2.4 0.24c0.72 0.1 1.68 0.22 2.4 0.32l2.39 0.37c1.09 0.2 2.54 0.47 3.63 0.69l2.26 0.51c0.66 0.17 1.54 0.38 2.19 0.56l2.08 0.6c0.6 0.19 1.39 0.44 1.97 0.65l1.82 0.67c0.5 0.22 1.18 0.49 1.68 0.72l1.46 0.74c0.41 0.24 0.96 0.56 1.36 0.82l0.96 0.71c0.38 0.36 0.88 0.84 1.22 1.23l0.38 0.51c0.85 1.52 0.95 1.71 1.45 3.3l0.2 0.79 0.19 0.86 0.17 0.86 0.14 0.92 0.12 0.93 0.11 0.98 0.08 0.99c0.02 0.31 0.05 0.72 0.06 1.03l0.04 1.04c0 0.36 0.01 0.85 0.01 1.21 0 1.19-0.39 2.45-1.13 3.73 0.87-6.78 0.49-11.84-1.12-15.03-9.09 10.46-12.86 14.79-31.51 10.85 12.41 4.21 16.59 5.62 21.44 12.53-2.52 0.91-5.33 1.52-8.32 1.68-12.34 0.49-24.09-6-29.84-5.62-7.39 0.34-39.3 5.1-65.77 6.35-25.76 1.21-52.8-1.14-52.8-1.14-0.01-0.69-0.03-1.62-0.05-2.31l-0.04-0.93-0.06-0.91-0.08-0.89-0.08-0.86-0.1-0.83-0.12-0.8-0.12-0.76-0.14-0.73-0.15-0.68-0.16-0.63-0.17-0.58-0.19-0.54c-0.15-0.39-0.3-0.73-0.47-1.01"></path> <path id="path253" style="fill:#3c3c3c" d="m611.16 280.89c-0.94-22.28-23.86-21.17-85.14-18.19-4.03 0.2-8.19 0.4-12.44 0.61-21.39 1.04-91.63 4.45-97.29 4.74l-0.34-0.04 2.07-0.1 1.69-0.09 2.09-0.1 2.47-0.12 2.83-0.14 3.15-0.15 3.47-0.17 3.76-0.18 4.02-0.2 4.27-0.2 4.48-0.22 4.68-0.23 4.86-0.24 5-0.24 5.13-0.25 5.24-0.26 5.32-0.26 5.37-0.26 5.42-0.26 5.42-0.27 5.42-0.26 5.38-0.26 5.32-0.26 5.25-0.26 5.14-0.25 5.02-0.24 4.86-0.24 4.7-0.22 4.5-0.22 4.28-0.21 4.04-0.2 3.77-0.18 3.48-0.17 3.17-0.15 2.84-0.14 2.48-0.12 2.1-0.1 1.7-0.08 1.26-0.06 2.17-0.06c0.68 0.01 1.58 0.03 2.25 0.03l2.32 0.1c0.72 0.05 1.66 0.18 2.37 0.18l2.4 0.24c0.72 0.1 1.68 0.22 2.4 0.32l2.39 0.37c1.09 0.2 2.54 0.47 3.63 0.69l2.27 0.51c0.65 0.16 1.53 0.38 2.18 0.56l2.08 0.6c0.6 0.19 1.39 0.44 1.97 0.64l1.82 0.68c0.5 0.22 1.18 0.49 1.68 0.72l1.46 0.74c0.41 0.24 0.96 0.55 1.36 0.82l0.96 0.71c0.38 0.36 0.88 0.84 1.23 1.23l0.37 0.51c0.85 1.51 0.95 1.71 1.45 3.3l0.2 0.79 0.19 0.86 0.17 0.86 0.14 0.92 0.13 0.93 0.1 0.98 0.08 0.99c0.02 0.31 0.05 0.72 0.06 1.03l0.04 1.04c0 0.36 0.01 0.85 0.01 1.21l-0.08 0.94c0.01-1 0.02-1.79-0.04-3"></path> <path id="path255" style="fill:#3b3b3b" d="m608.99 270.48c-7.85-12.2-7.85-12.2-192.84-2.46l-0.2-0.01 2.07-0.1 1.69-0.08 2.09-0.11 2.47-0.12 2.83-0.13 3.15-0.16 3.47-0.17 3.76-0.18 4.02-0.2 4.27-0.2 4.48-0.22 4.68-0.23 4.86-0.24 5-0.24 5.13-0.25 5.24-0.26 5.32-0.26 5.37-0.26 5.42-0.26 5.42-0.26 5.42-0.27 5.38-0.26 5.32-0.26 5.25-0.25 5.14-0.26 5.02-0.24 4.86-0.24 4.7-0.22 4.5-0.22 4.28-0.21 4.04-0.2 3.77-0.18 3.48-0.17 3.17-0.15 2.84-0.14 2.48-0.12 2.1-0.1 1.7-0.08 1.26-0.06 2.17-0.06c0.68 0.01 1.58 0.03 2.25 0.03l2.32 0.1c0.72 0.05 1.66 0.18 2.37 0.18l2.4 0.24c0.72 0.1 1.68 0.22 2.4 0.32l2.39 0.37c1.09 0.2 2.54 0.47 3.63 0.69l2.27 0.51c0.65 0.17 1.53 0.38 2.18 0.56l2.08 0.6c0.6 0.19 1.39 0.44 1.97 0.65l1.82 0.67c0.5 0.22 1.18 0.49 1.68 0.72l1.46 0.74c0.41 0.24 0.96 0.56 1.36 0.82l0.96 0.71c0.38 0.36 0.88 0.84 1.23 1.23l0.37 0.51c0.27 0.48 0.64 1.13 0.87 1.64l-0.28-0.61c-0.1-0.17-0.21-0.42-0.31-0.59"></path> <g id="g257"> <path id="path259" style="fill:#393939" d="m600.85 265c-15.08-5.55-15.08-5.55-184.85 3.01h-0.05l2.07-0.1 1.69-0.09 2.09-0.1 2.47-0.12 2.82-0.14 3.16-0.15 3.47-0.17 3.76-0.18 4.02-0.2 4.27-0.2 4.48-0.22 4.68-0.23 4.86-0.24 5-0.24 5.13-0.25 5.24-0.26 5.32-0.26 5.37-0.26 5.42-0.26 5.42-0.27 5.42-0.26 5.38-0.26 5.32-0.26 5.25-0.26 5.14-0.25 5.02-0.24 4.86-0.24 4.7-0.22 4.5-0.22 4.28-0.21 4.04-0.2 3.77-0.18 3.48-0.17 3.17-0.15 2.84-0.14 2.48-0.12 2.1-0.1 1.7-0.08 1.26-0.06 2.17-0.06c0.68 0.01 1.58 0.03 2.25 0.03l2.32 0.1c0.71 0.05 1.66 0.18 2.37 0.18l2.4 0.24c0.72 0.1 1.68 0.22 2.4 0.32l2.39 0.37c1.09 0.2 2.54 0.47 3.63 0.69l2.26 0.51c0.66 0.16 1.54 0.38 2.19 0.56l2.08 0.6c0.6 0.19 1.39 0.44 1.97 0.64l1.82 0.68 1.52 0.65-1.66-0.7c-0.2-0.08-0.46-0.18-0.66-0.26"></path> <path id="path261" style="fill:#393939" d="m604.79 266.77l-1.11-0.57c0.38 0.2 0.89 0.46 1.27 0.66-0.05-0.03-0.11-0.06-0.16-0.09"></path> </g> <path id="path263" style="fill:#3c3c3c" d="m440.37 283.95c13.64 11.28 102.07 5.29 102.92 5.19 8.55-0.99 14.2-1.64 17.2-5.02 1.03-1.17 2.79-2.49 5.25-2.15 21.14 2.89 26.69 10.83 29.06 14.21-1.34 0.27-2.73 0.45-4.16 0.53-12.34 0.49-24.09-6-29.84-5.62-7.39 0.34-39.3 5.1-65.77 6.35-25.76 1.21-52.8-1.15-52.8-1.14-0.01-1.21-0.01-1.36-0.05-2.31l-0.04-0.93c-0.02-0.28-0.03-0.64-0.06-0.91l-0.08-0.89c-0.02-0.26-0.05-0.6-0.08-0.86l-0.1-0.83c-0.04-0.24-0.08-0.56-0.12-0.8l-0.12-0.77-0.14-0.72-0.15-0.68-0.16-0.63-0.17-0.59-0.19-0.53c-0.13-0.34-0.26-0.64-0.4-0.9"></path> <path id="path265" style="fill:#3e3e3e" d="m590.9 284.17c11.2-1.35 15.73-7.54 16.85-9.4 0.2-0.34 0.31-1.02 0.69-1.13 1.19-0.36 2.22 6.8-1.32 13.32-0.28 0.51-0.52 1.31-0.96 1.69-0.26 0.21-2.9 1.64-3.02 1.62-0.01 0-2.29-0.62-2.8-0.76-1.47-0.41-2.66-1.4-4.07-1.93-1.89-0.73-3.84-1.33-5.71-2.11-0.64-0.26-1.13-0.76-1.72-1.11 0.62-0.05 1.45-0.12 2.06-0.19"></path> <path id="path267" style="fill:#3b3b3b" d="m440.43 284.07c2.19 2.38 2.41 6.02 5.15 8.05 0.7 0.51 47.37 4.37 56.34 4.93-2.32 0.15-4.63 0.28-6.89 0.39-25.76 1.21-52.8-1.15-52.8-1.14-0.01-1.21-0.01-1.36-0.05-2.31l-0.04-0.93c-0.02-0.28-0.03-0.64-0.06-0.91l-0.08-0.89c-0.02-0.26-0.05-0.61-0.08-0.86l-0.1-0.84c-0.04-0.24-0.08-0.56-0.12-0.8l-0.12-0.76c-0.04-0.21-0.09-0.5-0.14-0.72l-0.15-0.68c-0.05-0.19-0.11-0.44-0.16-0.63l-0.17-0.59c-0.06-0.16-0.13-0.37-0.19-0.53-0.11-0.29-0.22-0.55-0.34-0.78"></path> <path id="path269" style="fill:#3e3e3e" d="m473.34 285.34c22.05 0.18 38.19-1.23 72.6-5.28 12.03-1.41 13-1.39 14.93-1.36-0.14 0.1-23.21 9.29-90.79 6.59 0.98 0.02 2.28 0.04 3.26 0.05"></path> <path id="path271" style="fill:#3b3b3b" d="m561.51 288.36c0.52-0.81 2.79-1.18 2.81-1.17 2.42 0.61 4.03 2.69 6.34 3.5 2.31 0.8 4.04 0.78 6.67 0.74 2.31-0.03 5.21 0.07 5.22 0.07l4.29 1.68c1.53 0.95 2.6 2.42 4 3.51-0.07 0.01-0.13 0.01-0.2 0.01-12.34 0.49-24.09-5.99-29.84-5.61-0.33 0.01-0.7 0.04-1.13 0.07 0.36-0.46 0.36-0.46 1.84-2.8"></path> <path id="path273" style="fill:#393939" d="m440.49 284.2c0.26 0.29 0.69 0.38 0.87 0.77 0.56 1.22 0.76 2.29 0.91 3.08 0.17 0.96 0.23 1.93 0.43 2.89 0.2 0.93 0.73 1.77 0.78 2.74 0.03 0.4-0.51 0.81-0.62 1.19-0.11 0.43-0.07 1.03-0.1 1.47-0.35-0.03-0.53-0.04-0.53-0.04-0.01-1.21-0.01-1.36-0.05-2.31l-0.04-0.93c-0.02-0.28-0.03-0.64-0.06-0.91l-0.08-0.89c-0.02-0.26-0.05-0.61-0.08-0.86l-0.1-0.84c-0.04-0.24-0.08-0.56-0.12-0.8l-0.12-0.76c-0.04-0.21-0.09-0.5-0.14-0.72l-0.15-0.68c-0.05-0.19-0.11-0.44-0.16-0.63l-0.17-0.59c-0.06-0.16-0.13-0.37-0.19-0.53-0.09-0.24-0.18-0.45-0.28-0.65"></path> <path id="path275" style="fill:#383838" d="m440.56 284.33c0.88 1.11 1.04 1.31 1.53 4.35 0.59 3.64 0.52 5.15 0.41 7.64-0.18-0.02-0.27-0.02-0.27-0.02-0.01-1.21-0.01-1.36-0.05-2.31l-0.04-0.93c-0.02-0.28-0.03-0.64-0.06-0.91l-0.08-0.89c-0.02-0.26-0.05-0.61-0.08-0.86l-0.1-0.84c-0.04-0.24-0.08-0.56-0.12-0.8l-0.12-0.76c-0.04-0.21-0.09-0.5-0.14-0.72l-0.15-0.68c-0.05-0.19-0.11-0.44-0.16-0.63l-0.17-0.59c-0.06-0.16-0.13-0.37-0.19-0.53-0.07-0.18-0.14-0.36-0.21-0.52"></path> <path id="path277" style="fill:#373737" d="m440.62 284.47c1.22 1.67 1.79 7.22 1.71 11.83h-0.1c-0.01-1.21-0.02-1.36-0.05-2.31l-0.04-0.93c-0.02-0.28-0.03-0.64-0.06-0.91l-0.08-0.89c-0.02-0.26-0.05-0.61-0.08-0.86l-0.1-0.84c-0.04-0.24-0.08-0.56-0.12-0.8l-0.12-0.76c-0.04-0.21-0.1-0.5-0.14-0.72l-0.15-0.68c-0.05-0.19-0.11-0.44-0.16-0.63l-0.17-0.59c-0.06-0.16-0.13-0.37-0.19-0.53-0.05-0.13-0.1-0.26-0.15-0.38"></path> <path id="path279" style="fill:#363636" d="m440.68 284.61c0.5 0.77 1.55 4.62 1.56 11.69h-0.01c-0.01-1.21-0.01-1.36-0.05-2.31l-0.04-0.93c-0.02-0.28-0.03-0.64-0.06-0.91l-0.08-0.89c-0.02-0.26-0.05-0.61-0.08-0.86l-0.1-0.84c-0.04-0.24-0.08-0.56-0.12-0.8l-0.12-0.76c-0.04-0.21-0.09-0.5-0.14-0.72l-0.15-0.68c-0.05-0.19-0.11-0.44-0.16-0.63l-0.17-0.59c-0.06-0.16-0.13-0.37-0.19-0.53-0.03-0.08-0.06-0.16-0.09-0.24"></path> <path id="path281" style="fill:#343434" d="m440.74 284.76c0 0.02 0.61 1.27 1.07 4.77-0.06-0.46-0.15-1.07-0.23-1.53-0.04-0.21-0.09-0.5-0.14-0.72l-0.15-0.68c-0.05-0.19-0.11-0.44-0.16-0.63l-0.17-0.59c-0.06-0.16-0.13-0.37-0.19-0.53l-0.03-0.09"></path> </g> </g> <g id="g283"> <g id="g285"> <path id="path287" style="fill:#373737" d="m412.89 281.52l5.26 25.86c0 2.6 0.21 4.91 0.57 6.68l-0.26-1.31-0.27-1.3-0.26-1.28-0.26-1.28-0.25-1.26-0.26-1.26-0.25-1.25-0.26-1.25-0.25-1.25-0.25-1.24-0.26-1.24-0.25-1.25-0.25-1.25-0.26-1.25-0.25-1.26-0.26-1.27-0.26-1.27-0.26-1.29-0.27-1.3-0.26-1.31c-0.43-2.08-0.68-4.57-0.68-7.17"></path> </g> </g> <g id="g289"> <g id="g291"> <path id="path293" style="fill:#3b3b3b" d="m418.15 307.38l21.66-0.33c0 1.66-0.09 3.2-0.24 4.57l-21.17 0.32c-0.16-1.35-0.25-2.9-0.25-4.56"></path> <path id="path295" style="fill:#393939" d="m418.4 311.94l21.17-0.32c-0.17 1.61-0.45 2.97-0.79 3.98l-19.56 0.3c-0.36-1-0.64-2.35-0.82-3.96"></path> <path id="path297" style="fill:#383838" d="m419.22 315.9l19.56-0.3c-0.19 0.58-0.4 1.04-0.64 1.36l-18.26 0.29c-0.24-0.32-0.46-0.78-0.66-1.35"></path> <path id="path299" style="fill:#373737" d="m419.88 317.25l18.26-0.29c-0.12 0.18-0.26 0.32-0.39 0.42l-17.45 0.27c-0.15-0.09-0.28-0.23-0.42-0.4"></path> <path id="path301" style="fill:#363636" d="m420.3 317.65l17.45-0.27c-0.12 0.08-0.23 0.13-0.35 0.15l-16.74 0.26c-0.12-0.01-0.24-0.06-0.36-0.14"></path> <path id="path303" style="fill:#343434" d="m420.66 317.79l16.74-0.26c-0.04 0.01-0.07 0.01-0.1 0.01l-1.67 0.02-0.83 0.02-0.83 0.01-1.65 0.03-0.82 0.01-0.82 0.01-0.82 0.02-0.82 0.01-0.81 0.01-0.82 0.01-0.83 0.02-0.82 0.01-0.82 0.01-0.83 0.02-0.83 0.01-0.84 0.01-0.84 0.01-0.84 0.02c-0.04 0-0.07-0.01-0.1-0.01"></path> </g> </g> <polygon id="polygon305" style="fill:#3b3b3b" points="439.81 304.13 439.81 307.05 418.15 307.38 418.15 304.46"></polygon> <polygon id="polygon307" style="fill:#373737" points="418.15 304.46 418.15 307.38 412.89 281.52 412.89 278.6"></polygon> <path id="path309" style="fill:#3e3e3e" d="m439.6 283.03c-0.87 2.72-1.74 5.43-2.61 8.15-5.3 0.08-10.6 0.16-15.9 0.25-1.59-7.79-3.17-15.58-4.75-23.36 3.53-0.17 38.82-1.9 74.97-3.66s73.17-3.56 80.13-3.89c13.95-0.65 35.02 4.38 36.49 9.58 1.46 5.2-7.35 13.14-17.65 13.62-10.31 0.49-21.96-5.98-29.84-5.61s-39.71 5.12-65.77 6.35c-26.07 1.22-53.62-1.29-55.07-1.43z"></path> <g id="g311"> <g id="g313"> <path id="path315" style="fill:#3d3d3d" d="m436.99 291.18l2.61-8.15c0.04 0.03 0.08 0.05 0.12 0.09l-2.61 8.13c-0.04-0.03-0.08-0.05-0.12-0.07"></path> <path id="path317" style="fill:#3e3e3e" d="m437.12 291.25l2.61-8.13c0.08 0.06 0.16 0.14 0.23 0.23l-2.6 8.1c-0.08-0.08-0.16-0.15-0.24-0.2"></path> <path id="path319" style="fill:#404040" d="m437.36 291.45l2.6-8.1c0.38 0.43 0.73 1.18 1.04 2.16l-2.56 7.98c-0.32-0.95-0.69-1.65-1.08-2.04"></path> <path id="path321" style="fill:#3e3e3e" d="m438.44 293.49l2.56-7.98c0.5 1.57 0.89 3.75 1.11 6.2l-2.52 7.84c-0.23-2.42-0.64-4.55-1.15-6.06"></path> <path id="path323" style="fill:#3d3d3d" d="m439.59 299.55l2.52-7.85c0.14 1.46 0.21 3.02 0.21 4.6l-2.51 7.83c0-1.59-0.08-3.14-0.22-4.58"></path> </g> </g> <g id="g325"> <g id="g327"> <path id="path329" style="fill:#3d3d3d" d="m421.09 291.42l15.9-0.24c0.03 0.01 0.05 0.03 0.08 0.04l-16.07 0.25c0.03-0.02 0.06-0.03 0.09-0.05"></path> <path id="path331" style="fill:#3e3e3e" d="m421 291.47l16.07-0.25c0.04 0.02 0.09 0.05 0.13 0.08l-16.33 0.26c0.04-0.04 0.09-0.06 0.13-0.09"></path> <path id="path333" style="fill:#404040" d="m420.87 291.56l16.33-0.26c0.32 0.24 0.62 0.7 0.9 1.32l-18.17 0.29c0.29-0.64 0.61-1.1 0.94-1.35"></path> <path id="path335" style="fill:#3e3e3e" d="m419.93 292.91l18.17-0.29c0.18 0.4 0.34 0.85 0.5 1.37l-19.19 0.29c0.16-0.52 0.33-0.98 0.52-1.37"></path> <path id="path337" style="fill:#3d3d3d" d="m419.41 294.28l19.19-0.29c0.23 0.78 0.44 1.69 0.62 2.7l-20.45 0.32c0.18-1.02 0.4-1.94 0.64-2.73"></path> <path id="path339" style="fill:#3c3c3c" d="m418.77 297.01l20.45-0.31c0.27 1.57 0.46 3.38 0.54 5.3l-21.56 0.33c0.08-1.92 0.28-3.74 0.57-5.32"></path> <path id="path341" style="fill:#3b3b3b" d="m418.2 302.33l21.56-0.33c0.03 0.7 0.05 1.41 0.05 2.13l-21.66 0.33c0-0.72 0.02-1.43 0.05-2.13"></path> </g> </g> <g id="g343"> <g id="g345"> <path id="path347" style="fill:#3d3d3d" d="m416.34 268.06l4.75 23.36c-0.04 0.02-0.07 0.04-0.11 0.06l-4.77-23.45c0.04 0.01 0.09 0.02 0.13 0.03"></path> <path id="path349" style="fill:#3c3c3c" d="m416.21 268.03l4.77 23.45c-0.15 0.09-0.3 0.23-0.45 0.41l-4.85-23.83c0.18-0.06 0.35-0.07 0.53-0.03"></path> <path id="path351" style="fill:#3b3b3b" d="m415.68 268.06l4.85 23.83c-0.15 0.19-0.3 0.42-0.45 0.7l-4.92-24.22c0.17-0.15 0.34-0.25 0.52-0.31"></path> <path id="path353" style="fill:#393939" d="m415.16 268.37l4.92 24.22c-0.24 0.46-0.47 1.04-0.67 1.71l-5.04-24.79c0.24-0.5 0.51-0.88 0.79-1.14"></path> <path id="path355" style="fill:#383838" d="m414.37 269.51l5.04 24.79c-0.68 2.2-1.15 5.42-1.24 8.92l-5.26-25.85c0.11-3.41 0.66-6.24 1.46-7.86"></path> <path id="path357" style="fill:#373737" d="m412.91 277.37l5.26 25.85c-0.01 0.41-0.02 0.82-0.02 1.24l-5.26-25.86c0-0.42 0.01-0.83 0.02-1.23"></path> </g> </g> <g id="g359"> <g id="g361"> <linearGradient id="XMLID_2_" y2="224.85" gradientUnits="userSpaceOnUse" x2="357.71" y1="367.07" x1="215.5"> <stop id="stop364" style="stop-color:white" offset="0"></stop> <stop id="stop366" style="stop-color:#ccc" offset=".5"></stop> <stop id="stop368" style="stop-color:white" offset="1"></stop> </linearGradient> <path id="path370" style="stroke:#ccc;fill:url(#XMLID_2_)" d="m216.62 307.96c84.81-3.98 203.62-9.57 203.62-9.57l-4.33-15.34-264.89 12.45s-19.22 16.45 65.6 12.46z"></path> </g> </g> </g> <g id="g372"> <g id="g374"> <path id="path376" style="fill:#d9d9d9" d="m456.38 274.64c0.31 1.08-1.59 2.06-4.24 2.18-2.65 0.13-5.04-0.65-5.35-1.73s1.59-2.06 4.24-2.18c2.65-0.13 5.05 0.65 5.35 1.73z"></path> <path id="path378" style="fill:#d9d9d9" d="m549.02 270.28c0.3 1.08-1.6 2.06-4.24 2.19-2.65 0.12-5.05-0.65-5.35-1.74-0.31-1.08 1.59-2.05 4.24-2.18 2.65-0.12 5.04 0.65 5.35 1.73z"></path> </g> </g> </g> <metadata></metadata></svg> 