<?xml version="1.0" encoding="UTF-8" standalone="no"?> <!-- Generator: Adobe Illustrator 13.0.2, SVG Export Plug-In . SVG Version: 6.00 Build 14948) --> <svg xmlns:rdf="http://www.w3.org/1999/02/22-rdf-syntax-ns#" xmlns="http://www.w3.org/2000/svg" xmlns:cc="http://web.resource.org/cc/" xmlns:xlink="http://www.w3.org/1999/xlink" xmlns:dc="http://purl.org/dc/elements/1.1/" xmlns:svg="http://www.w3.org/2000/svg" xmlns:inkscape="http://www.inkscape.org/namespaces/inkscape" xmlns:sodipodi="http://sodipodi.sourceforge.net/DTD/sodipodi-0.dtd" xmlns:ns1="http://sozi.baierouge.fr" id="cupid_traveling_xA0_Image_1_" style="enable-background:new 0 0 448.38 262.156" xml:space="preserve" viewBox="0 0 448.38 262.156" y="0px" x="0px"> <g> <path style="clip-rule:evenodd;fill-rule:evenodd" d="m255.01 4.72c1.04-0.21 1.318 0.341 1.991 0.498 1.626 0.132 1.056-1.932 2.49-1.992 3.455-0.021 5.913 0.512 6.971 1.992 2.754 3.853-3.123 7.83-1.991 13.444-1.888 2.911-6.045 5.699-10.955 3.984 1.989-0.875 0.151-4.2 0.498-4.481 2.312-1.695 3.828 0.945 5.478 1.494 1.439-0.22 2.27-1.05 2.489-2.49-0.979-1.179-3.302-1.013-5.478-0.996-0.36-1.797-2.089-2.226-4.481-1.992-0.446 2.273 0.829 2.823 0.996 4.481h-2.489c-0.132 2.052 2.697 2.914 1.493 4.482-3.352 0.032-3.802-2.837-3.485-6.474-0.942-0.883-3.289-0.363-4.979-0.498-5.447-3.87-6.772-12.819 0.996-15.935 4.68 0.373 10.15-1.919 10.45 4.483zm-10.45 0.498c-0.923 1.733-1.641 3.67-1.494 6.474 3.06 4.333 4.28 2.172 6.474 0 1.538-1.524 1.279 0.796 0-0.996 0.105-0.559 0.553-0.775 0.996-0.996 0.94 0.056 0.346 1.646 1.493 1.494 0.441-1.218 2.78-0.54 2.49-2.49-2.12-1.197-1.686-2.723-1.992-4.979-3.15 0.009-3.98 2.337-7.97 1.493zm12.94 9.461c2.329 0.783 1.654-0.413 3.983-0.498 0.59-4.571-5.8-2.593-3.98 0.498z"></path> <path style="clip-rule:evenodd;fill-rule:evenodd" d="m94.674 31.111c-7.423 1.519-14.111 1.941-17.926-2.988-1.606-2.911 0.443-6.164 0.498-8.963 0.053-2.74-2.09-5.554 0-7.469 1.241 1.082 0.72 3.927 2.49 4.481 2.012-3.189-0.695-5.933-2.49-6.971-0.136-4.451 2.514-6.116 4.98-7.967 6.87 1.648 13.347-2.331 17.428 1.992h7.469c7.018 3.2 3.215 10.298 1.992 17.428-1.662 1.657-3.011 3.628-4.979 4.979-6.053-1.078-8.452 1.502-9.456 5.478zm-14.44-23.403c0.187 1.639 2.647 1.004 2.49 2.988-2.362 5.073 0.576 11.1 6.473 8.963 0.826-3.647-2.609-3.034-2.988-5.478 0.087-2.64 0.322-2.541 0-4.979-0.346-0.982-2.778 0.123-2.988-0.996 0.996-0.615 3.892-0.669 4.481-2.988-1.771-2.848-8.189-1.637-7.468 2.49zm13.444-2.988c6.357 1.816 2.042 8.621 2.988 13.942-0.32 1.878-2.982 3.372-1.992 4.979 6.679-1.306 8.874-5.497 7.469-13.942-2.819-1.441-4.934-7.372-8.462-4.979zm10.952 5.477c-0.112 2.602 0.008 4.971 0.498 6.971-0.821 2.665-3.569 3.402-3.983 6.473 3.219 0.065 3.173-3.134 5.477-3.983 1.603-5.974 5.095-14.545-4.481-14.44-0.41 2.89 2.26 2.709 2.48 4.979zm-10.454 0.498c-4.159-1.438-4.911 3.335-2.988 4.979 1.901 0.241 3.178-0.142 3.983-0.996 0.29-1.948-0.427-2.89-0.995-3.983zm-6.473 12.449c-2.876 0.203-3.95-2.266-6.971-2.988-0.833 0.826-0.396 2.923-0.498 4.481 3.702 1.819 7.249 6.302 12.946 4.481-1.736-3.708-0.049-6.054 0.996-9.461-3.177 0.143-3.529 3.279-6.473 3.487zm-3.984 6.971c0.384-1.907-2.609-2.996-3.485-1.992 0.717 1.073 2.07 3.159 3.485 1.992z"></path> <path style="clip-rule:evenodd;fill-rule:evenodd" d="m161.4 45.053c0.045 3.365-2.466 4.173-5.478 4.481-0.119-2.039-1.511-2.805-1.494-4.979 1.91-0.189 5.24-1.104 6.97 0.498z"></path> <path style="clip-rule:evenodd;fill-rule:evenodd" d="m218.16 65.469c0.913 0.581 1.686 1.302 2.49 1.992-1.061 3.526 0.366 4.604-1.494 7.967-1.433-1.223-2.467-2.845-2.988-4.979 0.64-1.682 2.61-2.035 1.99-4.98z"></path> <path style="clip-rule:evenodd;fill-rule:evenodd" d="m209.2 105.8c-1.79-0.368-3.328-0.987-2.988-3.486 2.2-2.653 5.61 1.48 2.99 3.49z"></path> <path style="clip-rule:evenodd;fill-rule:evenodd" d="m280.41 105.3c-1.501 2.648-4.24 4.059-4.979 7.469-0.443-0.387-1.124-0.535-1.991-0.498-0.896-2.093-0.328-5.647-0.996-7.967 2.5-0.63 6.8-1.07 7.97 1z"></path> <path style="clip-rule:evenodd;fill-rule:evenodd" d="m258 175.52c1.645 2.401 4.199 3.887 3.983 6.473-0.266 3.18-4.959 5.093-6.971 6.972-2.124 14.834-24.469 1.712-12.946-9.461 3.253-1.101 5.606 0.138 7.967-0.498 2.64-0.71 4.09-4.05 7.97-3.48zm1 6.47c0.105-4.122-5.374-4.796-6.972-0.498 1.013 1.312 1.712 2.937 2.49 4.481 2.18-0.92 4.43-2.08 4.48-3.98zm-6.48 4.48c-0.745-4.904-8.713-6.991-10.954-2.489-2.498 5.016 4.283 11.663 9.461 8.465 0.38-2.7 1.87-3.45 1.49-5.97z"></path> <path style="clip-rule:evenodd;fill-rule:evenodd" d="m159.9 177.01h3.486c-0.063 0.894 0.609 1.051 0.498 1.992-1.47 1.11-4.55 0.49-3.99-1.99z"></path> <path style="clip-rule:evenodd;fill-rule:evenodd" d="m230.11 190.45c-1.188 2.146-4.158 1.935-6.473 2.988-2.455 1.117-3.688 3.318-8.465 2.489-1.884-3.594-5.01-5.945-4.979-11.452 2.151-1.517 4.721-1.425 7.469-2.49 2.025-0.785 3.623-2.712 5.477-2.489 3.73 0.44 5.44 7.4 6.96 10.95zm-16.93-4.48c0.474 3.511 2.686 5.281 3.984 7.968 3.604-0.877 6.346-2.617 9.461-3.984-0.904-3.079-1.314-6.653-4.481-7.469-2.88 1.25-5.81 2.48-8.96 3.48z"></path> <path style="clip-rule:evenodd;fill-rule:evenodd" d="m247.54 184.48c-0.329 1.727-2.987 2.999-3.983 2.489-0.6-2.86 2.77-4.39 3.98-2.49z"></path> <path style="clip-rule:evenodd;fill-rule:evenodd" d="m285.39 199.42c5.209 7.952-2.704 11.853-9.959 12.947-8.29-6.2 1.19-14.61 9.96-12.95zm-6.97 4.98c-1.482-0.659-2.526-0.511-3.486 0.498 0.438 2.385 0.361 5.282 2.988 5.478 1.068-0.758 1.526-2.125 2.489-2.987 1.169 1.176 2.446-0.081 3.983 0 1.25-6.31-4.19-7.1-5.97-2.99z"></path> <path style="clip-rule:evenodd;fill-rule:evenodd" d="m337.17 54.016c-3.767 3.192-8.9 7.499-14.44 6.971-2.324-0.221-3.397-2.148-6.473-3.983-3.249-1.938-5.717-1.604-6.972-4.979-0.672-2.356 0.799-4.175 0.498-6.473-0.291-2.219-1.967-3.259-1.992-4.979-0.053-3.725 2.275-5.705 5.976-7.469 1.94-0.115 2.582 1.07 3.983 1.494 2.627-0.597 2.299-3.751 4.979-4.481 6.168-1.681 10.736 3.438 10.955 9.461 0.018 0.483-0.711 2.155-0.498 2.987 1.15 4.539 5.48 5.308 3.97 11.451zm-14.94-20.913c0.312 3.288 5.056 5.938 7.968 3.486-0.82-3.485-4.05-4.346-7.97-3.486zm-0.99 5.477v-0.996c-3.541-0.316-8.077-2.836-10.456 0 0.162 2.327 2.824 2.155 2.987 4.481 0.258 4.989-2.706 10.06 0.996 12.947 1.481-0.178 2.526-0.793 3.485-1.494 0.538-3.36-0.876-4.767-1.494-6.972 0.662-1.219 1.854 0.548 1.992-0.498-1.314-0.179-1.791-1.196-1.494-2.988 0.74-2.068 3.38-2.244 3.97-4.48zm0 1.992h0.996v-0.996h-0.996v0.996zm2.99-0.498c-0.792 1.366-1.925 2.391-1.992 4.481 3.286 1.805 4.085-1.878 6.474-2.49 0.455 0.873 0.926 1.73 2.489 1.494 0.729-1.616 0.733-4.439-1.493-4.481-0.42 2.531-3.76 2.207-5.48 0.996zm0.99 5.975c-1.257 0.736-2.059 1.925-2.49 3.485 4.05 2.177 3.957-3.076 8.465-1.992 0.263-1.272 0.661-1.743-0.498-2.49-0.91 3.029-2.88 1.327-5.48 0.997zm1 8.963c0.718 0.279 1.216 0.777 1.494 1.494 2.982-0.171 4.415-1.893 6.474-2.987 1.81-8.38-8.91-3.675-7.96 1.493zm-2.99-0.498c0.373-1.867-0.562-2.426-1.992-2.49-0.72 1.516-0.09 2.546 1.99 2.49zm-3.49 1.992c-0.624 3.142 3.598 3.785 4.979 1.992-0.4-2.392-3.05-3.859-4.98-1.992z"></path> <path style="clip-rule:evenodd;fill-rule:evenodd" d="m290.36 2.728c-0.164 1.164-0.599 2.057-0.996 2.988 3.538 2.424 6.428 9.157 3.983 14.44-0.013 2.171 1.589 2.727 1.992 4.481-2.244 5.423 2.359 10.119 0 13.942 1.315 2.502 3.47 4.166 4.979 6.473-0.245 6.394-2.714 10.564-5.478 14.44 0.727 2.759 5.355 1.616 6.474 3.983 0.716 4.886 0.65 8.255 0.498 11.951 12.791 1.51 31.459-1.815 40.831 3.983-0.3 2.356-1.915 3.397-2.987 4.979 0.162 6.459-3.375 12.614 0 17.926-2.354 5.615-6.375 11.243-12.947 12.947-2.61 0.677-5.902-0.538-8.465 1.494 5.651 7.992 17.191 11.284 25.894 15.935 2.357 1.26 3.887 4.286 6.971 2.987 0.696-5.533-7.709-5.347-2.489-12.448 1.688-2.298 3.637-4.154 8.465-3.486-1.591-5.797 4.713-15.554 11.95-9.461 2.168-0.156 3.341-1.307 5.478-1.494 2.328 0.822 5.343 2.678 5.478 6.473 0.043 1.209-1.125 2.492-0.996 3.983 0.212 2.458 1.526 4.175 1.494 5.478-0.121 4.896-4.455 10.934-7.47 12.449-3.509 1.763-9.203-0.268-10.456 4.481 4.384 4.413 10.709 6.885 15.436 10.954 2.844 2.289 5.601 4.049 8.465 6.474 0.911 0.771 1.678 1.84 2.49 2.49 3.505 2.805 7.249 4.998 10.955 7.469 7.586 5.058 15.127 10.954 24.896 14.44 1.616-3.243-2.096-5.599-4.481-8.465-2.076-2.495-4.313-6.232-6.971-6.972-5.094-1.416-10.075 0.22-14.44-1.991-1.848-0.937-5.139-4.645-6.972-6.972-2.186-2.775-7.896-6.257-5.478-12.448 0.82-2.098 4.076-2.843 5.478-5.478 1.833-3.445 1.038-7.384 4.481-9.959-0.315-1.842-1.351-2.964-0.996-5.478 1.247 0.084 1.56-0.765 1.992-1.494 4.404-0.702 5.791 2.691 9.461 1.992 2.48-0.473 2.746-2.821 4.481-4.481 3.682-3.523 12.458-7.801 17.926-1.992 1.674-0.511 0.775 1.549 0.996 2.49 4.602 4.527 6.663 11.595 11.95 15.437 0.71 4.661 2.438 5.106 1.992 8.465-0.546 4.107-6.552 5.63-6.971 8.963-0.44 3.495 4.517 8.338 6.473 11.95 2.061 3.806 8.433 15.499 1.494 17.429-0.593 4.848-3.532 6.289-6.474 10.456-1.689 2.395-2.354 5.307-3.485 6.972-2.73 4.021-5.996 6.257-13.444 5.478-17.076-6.766-30.136-19.769-45.811-29.877-13.624-8.785-28.312-15.106-43.321-22.905-5.686-2.954-10.52-5.983-15.935-9.461-6.089-3.91-11.562-7.788-17.428-11.95-2.38 3.466-2.772 10.888-2.987 14.938-4.531 1.279-10.018 1.602-14.938 2.49-3.925-2.179-3.877-7.742-1.494-11.453 0.233-2.225-2.895-1.088-3.485-2.489 0.27-4.585-4.35-4.281-5.976-6.972-0.589-9.054 9.089-7.841 12.449-12.946 0.071-2.53-1.209-3.079-0.996-4.979 0.397-3.55 4.778-3.881 5.976-6.971-2.211-3.389-7.627-3.482-12.449-3.486-3.856-0.003-7.978 1.119-11.95 0.996-1.475-0.045-2.472-0.89-3.983-0.996-1.899-0.132-4.307 0.827-6.972 0.996-8.651 0.547-14.94 0.01-19.917 4.482-5.609 5.039-9.022 10.881-2.988 16.93 0.06 9.095 5.543 12.554 12.946 12.947 2.856 0.151 5.951-1.21 8.963-0.996 1.421 0.101 2.979 1.424 4.481 1.494 4.52 0.212 8.755-1.9 13.445-0.498 7.059 13.522 10.686 30.477 17.926 43.818 2.448 12.158 7.946 21.267 10.457 33.362-1.87 2.256-4.694 2.569-7.47 3.983-4.242 2.162-7.954 5.252-12.946 5.976-2.978 0.432-6.395 0.577-8.963 0.996-3.815 0.621-9.243-1.069-11.453 2.489 2.056 2.427 7.024 1.938 9.959 3.486 1.928 0.268 2.051-1.27 3.485-1.494 6.312-0.358 11.333 0.493 16.433 0 7.645-0.74 14.854-3.715 22.407-1.494 1.437 0.423 2.848 1.591 4.481 2.49 3.286 1.808 7.926 2.708 11.453 4.979 1.857 1.196 4.094 1.664 7.469 2.987 1.858 0.729 3.256 2.002 4.481 2.489 0.719 0.287 1.751-0.239 2.49 0 3.128 1.018 6.851 3.604 10.456 4.979 1.734 0.662 4.058 1.406 5.976 1.992 5.635 1.722 7.602 2.166 10.457-1.992 2.513-0.354 3.635 0.681 5.478 0.996 0.65 1.175 0.21 3.441 0.995 4.481 2.323 1.993 7.459 1.173 9.959 2.988 2.101 0.223 5.408-0.761 5.478 1.493-0.596 2.881-3.992 1.671-5.976 1.494-3.596-0.321-6.505-1.925-11.452-1.494-1.853-0.192-0.922 2.398-2.49 2.49-3.255-0.064-4.917-1.723-6.473-3.485-4.717 0.147-8.12 2.826-12.947 3.485-6.766 0.923-14.36-1.165-21.909-0.996-10.27 0.23-22.939 0.672-33.86 0.996-2.16 0.135-2.372-2.121-3.983-2.988-1.607-0.864-3.966-0.703-5.477-1.493-4.593-2.401-6.815-7.712-9.461-12.947-4.042-0.439-6.279-2.684-7.47-5.975-9.996-2.619-23.168-2.061-31.37-6.474-9.62 2.712-21.368 2.419-31.868 3.983-3.772 0.562-7.306 2.966-10.955 1.494-4.918-15.853-10.651-30.649-14.938-46.309-0.585-2.136 0.224-4.822-1.992-6.474-4.808 0.79-4.577 6.676-5.976 10.457-1.48 4.003-4.071 7.064-5.478 10.457-3.441 2.202-6.052 5.234-5.975 10.954-1.594 1.892-2.198 4.773-3.983 6.474-4.76 1.525-9.959-0.344-13.942-0.498-4.348-0.168-8.286 0.581-11.951-1.991-1.443-1.013-3.179-3.735-4.481-5.478-1.121-1.499-4.082-2.49-1.992-6.474 2.771-1.416 5.95 0.048 8.963-0.498 3.907-0.707 7.348-3.743 11.951-2.987 3.479-8.97 6.874-18.023 10.955-26.391v-4.481c1.648-2.667 3.105-5.526 4.979-7.968-0.377-9.008 2.753-14.508 5.477-20.415-1.103-4.629-3.549-6.72-3.983-11.453-0.541-5.897 3.39-12.379-0.498-17.428-3.936-1.657-8.735-4.717-14.44-2.988 0.234 4.525-0.107 8.588 1.494 12.449 1.484 3.58 6.564 5.31 7.469 8.465 1.559 5.435-0.393 11.553 0.498 17.428-2.754 0.325-2.121-3.779-4.979-3.983-3.858-0.274-4.238 3.879-4.979 8.465-3.338-1.641-1.931-8.027-4.481-10.456 1.195-3.068-0.737-6.271-0.498-9.461 0.412-5.504 4.197-6.435 3.485-13.943-0.092-0.973-0.777-1.759-0.996-2.987-0.293-1.647 0.293-3.562 0-4.482-0.759-2.378-2.792-3.069-3.983-4.979-1.163-1.865-0.723-4.314-2.988-5.976-12.088-0.234-27.791 0.66-42.325 0-6.325-0.287-14.611-2.311-15.934 2.988-0.981 3.931 2.163 7.704 0.996 10.955-1.351 3.763-7.664 6.41-12.946 7.967-3.182 0.938-3.997 2.427-7.469 1.494-2.23 0.259-2.16 2.819-3.983 3.486-5.095-2.024-5.118 3.326-10.457 2.489-3.701 4.719-12.934 9.487-17.428 2.988-1.396-2.02-0.754-5.193-1.992-7.967-0.938-2.102-2.687-3.137-5.478-4.979-1.919-1.267-3.521-3.138-5.477-4.481-1.967-1.351-4.67-1.638-6.474-2.988-4.954-3.709-7.819-10.123-5.975-16.93 4.3-3.444 10.063-3.136 15.436-3.983 6.221-0.981 9.194-7.299 13.444-10.457 2.51 0.584 3.891 2.593 5.976 3.983 3.741 2.495 7.475 4.051 10.457 7.469 2.56 2.934 3.75 6.992 6.971 9.46 3.674-0.02 8.486-0.545 11.951-2.987 2.036-1.435 5.006-4.499 5.478-6.971 0.744-3.907-2.616-6.176-0.498-9.959-0.799-1.642-2.992-1.602-2.988-3.983 0.01-4.858 11.247-3.744 16.93-3.486 17.391 0.79 38.536 0.668 52.284 0.996 0.722-2.914-2.573-4.633-5.478-4.481-0.396-4.877-4.295-8.476-3.983-12.449 5.351 0.624 5.206 6.745 10.457 7.469-2.144 4.496 1.426 7.378 3.983 9.959 5.063 0.559 11.165-0.343 17.428 0 2.605 0.143 4.617 0.923 5.975 0.498 3.401-1.065 5.067-6.382 0.996-8.963-4.273 0.286-8.328 2.012-11.453-0.498-0.651-1.175-0.21-3.441-0.996-4.482-1.635-2.132-3.126-4.045-4.481-7.967-0.666-1.927-2.007-3.138-1.992-3.983 0.052-2.789 2.501-3.35 3.486-5.976-1.25-3.066-4.019-4.613-6.971-5.975-0.216-3.776-2.531-4.518-1.992-7.469 0.842-4.611 8.704-3.457 9.461-8.465-1.812-3.431-6.347-3.506-6.473-7.469-0.182-5.71 10.294-9.954 15.437-11.951 1.133 0.361 2.543 0.444 3.485 0.996 3.739-1.408 5.766-4.243 11.951-2.987 2.261 0.459 3.761 2.719 5.975 2.987 2.212 0.268 4.501-1.203 6.474-0.996 3.514 0.37 5.967 3.674 9.46 2.988 1.469 1.292-0.867 3.293 0.498 4.481 5.262 0.714 10.136 1.814 11.951 5.975-0.152 2.609-3.111-0.685-3.983 0.996-0.043 3.355-2.007 4.914-1.494 8.465 0.637 4.41 4.546 5.84 1.494 11.453-0.57 1.048-2.281 1.952-2.988 3.486-1.057 2.294-0.759 4.806-1.992 6.473-1.087 1.471-3.954 2.063-4.979 3.485 1.896 4.306 6.248 4.738 3.983 10.955-1.08 0.084-0.226-1.766-0.498-2.49-2.168 0.487-4.428 0.883-4.979 2.987 0.737 1.814 3.335 0.661 4.979 0.498 0.002 2.094-2.088 2.091-0.996 3.984 6.291 1.699 4.327-4.327 5.478-7.469 2.166-5.915 9.089-4.2 11.951-9.461-2.805-1.786-8.201 0.707-9.959 1.992-2.208 1.613-2.126 2.797-3.486 3.983-1.439-4.102 4.812-4.81 5.976-7.967 8.639-2.648 12.875-9.698 19.419-14.44 2.639-0.149 1.851 3.129 3.486 3.983 2.976-1.046 6.845-3.163 10.457-1.992 1.863 2.023-1.734 4.082-0.498 5.478 2.362 1.028 4.496-2.017 6.971-2.49 2.189-0.197 1.719 2.265 2.49 3.485 1.984-0.159 3.679-0.027 4.481 0.996 0.343 2.002-0.478 2.842-0.498 4.481 0.518 1.142 3.556-0.236 3.983 0.996 1.38 2.74-1.223 4.378-1.992 6.474-0.095 2.087 2.444 1.539 1.992 3.983-1.349 3.299-3.666 5.628-5.976 7.967 3.314 2.733 0.565 4.251-0.995 6.971 4.305 1.96 10.803 0.795 16.432 0.996 3.457 0.124 7.234 0.825 10.457 0.498 1.289-1.539-0.147-3.54 0-5.478 1.117-1.704 2.27-3.373 3.983-4.481 5.743 1.096 6.422-2.873 9.461-4.481-6.442 0.122-17.564 0.985-18.922-5.975-0.502-2.573 1.145-4.053 0.996-7.469-0.905-2.35-2.956-2.471-3.485-4.979-0.706-3.341 2.079-7.277 1.493-11.453-1.935-1.55-4.509-2.462-5.976-4.481-0.115-4.266 2.306-5.994 3.984-8.465-1.3-2.198-1.259-6.638-0.498-9.46 2.173-0.435 3.162-3.167 5.478-1.992 2.638-3.423 5.683-8.352 11.95-6.971 1.23 0.268 2.51 1.861 4.02 2.495zm-77.18 76.186c-0.642 1.35-1.218 2.765-0.996 4.979 3.652-0.83 2.652 2.991 5.478 2.988-1.324 1-3.453 1.195-2.988 3.984 2.034 1.77 6.34 0.56 5.975-2.988-0.162-1.166-2.172-0.484-2.49-1.494 1.345-0.149 0.893-2.094 1.992-2.49 1.513 0.811 3.187 1.461 5.478 1.494 1.471-1.641-1.247-2.488 0-3.486 0.441 1.218 2.78 0.54 2.49 2.49 0.191 1.685-2.204 0.784-1.494 2.988 1.22 1.331 2.436 1.56 4.481 0.996-0.869 3.69 2.502 3.141 3.485 4.979-4.254 4.084-5.526-5.501-11.453-4.481 1.513 4.794 5.461 7.153 8.963 9.959 1.568-1.087 1.961-3.35 5.477-2.49 0.131 1.458-1.125 1.53-0.995 2.988 18.579-1.214 45.552 1.549 61.744 0.498 6.038-0.392 11.608-0.539 16.433 0.498 0.613-0.714 1.712-0.943 2.987-0.996 5.046 0.678 12.077 1.731 16.433 0.996-0.672-1.154-2.103-1.549-2.49-2.987 1.058-0.769 2.219-1.433 3.486-1.992-0.629-3.27 1.734-5.597 1.493-7.967-0.3-2.948-2.868-3.419-3.485-6.473 2.338-0.514 4.11 1.485 4.481-0.996-10.851-2.876-26.455-0.977-39.338-1.494-4.855-0.195-9.477-0.678-13.942-0.498-7.741 0.311-16.76 1.366-25.893 0.498-8.51-0.809-14.441 2.212-17.926 8.465 0.813 1.711 1.904 5.169-0.996 5.478-2.309-0.96-1.678-1.857-1.992-4.481-1.516-0.476-2.003-1.98-4.481-1.494-2.233-4.405-6.452-6.826-10.954-8.963v2.988c-2.48 0.175-3.646 1.666-6.474 1.494 1.173-0.961-1.173-2.524 0-3.485 1.107 0.387 1.942 1.046 3.486 0.996 0.884-2.602 4.088-2.883 4.481-5.975 1.985 0.159 3.679 0.027 4.481-0.996-0.801-3.68-7.214-1.749-6.971-6.473 1.585-1.526 2.084 0.842 3.983 0.498 1.308-1.348 3.386-1.925 3.486-4.481-0.857 0.027-1.277-0.383-1.494-0.996-2.876-0.387-3.342 1.637-4.979 2.49 0.362-1.358-0.99-1.002-0.996-1.992-4.434 1.487-5.303-3.667-9.461-3.983-0.5 0.993-2.202 0.786-1.992 2.49-0.168 3.166 7.266 1.351 4.979 4.979-1.482-0.575-2.866-3.121-4.979-1.494-1.359 2.72 2.446 3.154 2.49 5.976-1.329 2.372 0.139 4.345 0.996 5.975-3.061-0.571-3.608 1.372-3.983 3.486 1.02 1.364 2.76 0.933 3.97-0.009zm64.24-69.712c3.787 1.485 6.909 1.417 7.967 4.979 0.509 1.715-0.647 3.839-0.498 6.474 2.837 1.229 5.503-0.82 6.972-2.49 1.089-7.23-5.696-6.586-7.967-10.457-0.465-2.095-0.151-2.387-0.996-4.481-4.08-0.265-5.42 2.204-5.47 5.975zm10.46-0.996c1.162-1.916 0.183-5.309-2.49-4.979-1.41 2.154 0.46 4.66 2.49 4.979zm-6.48 5.477c0.241-1.764-2.239-3.365-3.485-1.992 2.05-0.225 1.86 1.783 3.48 1.992zm-127.97 5.477c2.7-12.076-8.83-0.528 0 0zm120.5 2.49c-1.259-3.914 2.575-2.736 3.485-4.481-2.02-0.088-3.859-0.416-5.478-1.992 0.22 2.602-0.92 6.563 1.99 6.473zm-107.05 4.979c1.422 1.068 2.51 2.47 5.478 1.992 1.707-5.277 1.292-7.85 0.996-12.448-5.72-1.265-7.22 4.936-6.48 10.456zm-4.98-4.979c1.294 0.199 1.501 1.486 2.987 1.494 0.184-2.306 1.859-3.121 1.494-5.976-3.21-2.021-4.42 1.75-4.48 4.482zm129.46 0.996c-4.313-1.566-7.3 2.276-11.951 2.49-4.076 0.188-10.127-5.885-11.452 0 3.018 1.132 6.563 1.735 8.963 3.485 4.902-2.042 10.192 2.173 15.935-0.498 0.38-2.71-0.77-3.883-1.5-5.477zm-105.56 18.922c-8.106-5.429-16.882-9.583-25.893-14.44-4.058-2.188-7.431-4.879-7.967 0.498 6.076 4.381 14.093 6.82 19.419 11.951 1.982-0.322 2.002 1.317 3.984 0.996 2.004 2.381 5.314 3.584 7.967 5.478 2.466 1.76 4.763 5.844 8.465 4.481 2.19-4.792-2.88-6.89-5.98-8.964zm88.63-10.457v-2.49c-1.576 0.082-1.665-1.323-3.486-0.996 0.62 1.706 0.7 3.957 3.49 3.486zm2.99 0.498c1.247 1.409 4.765 0.547 5.976 1.992-1.938 1.32-4.699-0.075-6.474-0.498-3.648 1.689-5.857 9.868-1.494 12.449 2.102-0.223 2.686-1.962 5.478-1.494 1.547-5.589 7.342-6.061 13.444-5.976 0.143-5.665-5.185-7.177-9.461-4.481-0.14-3.469-5.61-4.511-7.48-1.992zm-88.64 3.485c-0.011 1.173 0.857 1.466 0.498 2.988h3.485c-0.001-1.661 1.62-1.7 1.494-3.485-1.29-1.794-4.23-0.622-5.47 0.497zm-32.86 5.976c-1.482 0.178-2.526 0.793-3.485 1.494 0.73 4.382-1.977 5.327-2.988 7.967 1.621 2.115 1.99 4.283 1.992 6.971 2.009 1.145 4.74 1.567 5.478 3.983-0.376 1.292-1.54 3.293-0.498 4.481 2.385 1.382 6.485-2.015 9.959-0.996 4.171 1.224 3.279 6.096 3.983 10.955 0.815 5.628 4.736 12.279 7.967 17.926 3.958 6.916 8.99 14.101 12.947 20.416 2.828 4.513 5.315 9.07 7.967 12.947 3.088-3.023-0.51-8.144-0.996-12.947-1.188-11.756-3.44-18.771-10.457-22.905-1.817-0.442-2.652 0.879-3.485 0 2.08-4.617-3.597-6.527-1.494-10.955 3.443 1.53 2.889 5.055 5.478 7.967 3.631 4.084 8.954 6.645 11.453 11.95 1.088 2.31 1.16 6.091 2.49 8.465 2.851 5.091 8.296 7.503 9.461 13.444 0.565 2.883-1.13 7.67 2.49 7.967 2.815 0.292-1.321-3.279 1.494-2.987 1.822 1 0.87 4.773 3.486 4.979 1.066 1.194 1.549-2.406 2.988-2.49 1.859 1.805 4.603 0.427 5.975-0.995-0.587-3.895-2.152-6.811-3.983-9.461-1.411-0.913-3.973-0.675-4.481-2.49 0.212-0.95 1.422-0.901 0.996-2.49-1.885-3.097-3.18-6.597-4.979-9.958-1.659-3.101-3.572-7.066-5.477-9.959-1.185-1.799-2.58-2.631-3.486-4.481-0.912-1.865-0.95-3.971-1.992-5.976-1.166-2.244-3.12-3.645-3.983-5.975-0.393-1.06 0.18-2.261 0-2.988-0.553-2.227-2.261-5.273-3.486-6.473-0.742-0.727-2.042-0.602-2.987-1.494-1.579-1.489-2.656-3.623-4.481-5.478-3.778 2.177-6.602 2.305-11.453 3.486-0.972-1.119-0.434-3.746 0-4.979-2.875-1.44-6.16-2.471-8.465-4.481 0.395-3.382-2.645-3.331-2.988-5.976-0.095-2.087 2.444-1.539 1.992-3.983-0.828-5.734-6.889-9.583-11.95-5.478 1.168-1.963-0.938-1.522-0.996-3.485-1.435-0.06-3.26 0.272-3.983-0.498-1.14 4.12 3.82 2.151 3.99 4.968zm66.72 0c2.107 1.069 5.176-0.648 4.979-3.486-2.66-1.305-4.13 1.469-4.98 3.486zm13.45-2.49c-6.21 3.085-13.753 4.837-19.42 8.465 0.159 1.155-0.08 1.912-0.498 2.49 0.421 1.073 3.174-0.187 3.486 0.996-2.134 0.189-1.923 2.724-3.486 3.485-1.147-1.088-2.779 0.147-2.49 1.992 2.736 1.511 3.671-2.466 6.473 0 2.684-1.476 5.694-5.656 1.992-7.967 0.989-0.006 0.633-1.358 1.992-0.996 2.156-0.164 1.226 2.758 3.485 2.49 4.103-3.035 10.009-4.265 10.955-10.457-1.2 0.204-1.08-0.91-2.49-0.498zm48.8 4.482c1.256 1.828 2.327 1.092 4.979 0.996 1.97 0.521 1.648 3.331 3.983 3.485 9.11-3.447-6.66-11.094-8.96-4.481zm-53.28 8.464c-0.062 2.054 0.865 3.118 0.498 5.478 3.409-0.86 7.266-2.669 10.954-3.983 3.631-1.293 8.917-1.451 8.963-6.474-6.67-2.027-14.16 3.31-20.41 4.979zm50.79 6.972c1.663-5.115-1.281-8.236-2.49-11.951-6.51 0.331-6.29 14.39 2.49 11.951zm1-8.963c1.773 0.114 2.604-0.716 2.489-2.49-1.63-1.661-3.83 1.195-2.49 2.49zm-106.57 2.987c1.566 0.535 2.635 0.344 4.481 0-0.356-1.469-0.568-3.083-1.494-3.983-2.76-0.444-3.09 1.56-2.99 3.983zm115.53 5.478c4.028 0.518 5.158-6.468 1.991-7.469 0.71 3.866-2.82 3.489-1.99 7.469zm-50.3-1.992c-3.695 1.306-9.433 1.582-9.461 5.478 2.896 0.874 7.265-1.536 11.452-2.49 5.94-1.353 10.139-1.184 10.955-6.473-4.34-0.587-8.54 1.931-12.94 3.485zm42.33 2.49c2.86 1.253 6.045-0.278 5.976-3.485-1.716-0.276-1.694-2.289-3.485-2.49-1.38 1.438-2.92 2.728-2.49 5.975zm-62.24-1.992c0.371 1.533-1.367 0.957-0.996 2.49 4.1 1.361 8.441-0.673 9.959-3.485-2.82-3.992-5.99 1.819-8.96 0.995zm30.37 3.486c-7.164 3.926-21.795 1.28-25.395 8.465 2.296 1.712 5.328 0.176 8.465 0 3.362-0.188 7.265 1.054 9.959 0.498 3.799-0.783 8.271-6.193 8.465-8.465-0.62-0.028-0.67-0.639-1.48-0.498zm46.31 5.975v-1.494h-1.493c-0.09 1.086 0.4 1.584 1.49 1.494zm-10.95 3.486c2.021 1.657 3.193-0.862 5.477-0.498 2.156 1.33 2.353 4.619 6.474 3.983 1.04-6.93-11.13-11.309-11.95-3.485zm-3.99 6.473c2.247-1.79 2.888-4.911 0.995-7.967-5.77-1.259-5.64 9.743-0.99 7.967zm-53.78-4.482c-0.388 0.11-0.579 0.417-0.498 0.996 5.869 1.358 18.226 7.33 19.918-1.494-7.43 0.379-12.66 0.129-19.42 0.498zm60.75 1.992c-1.46 0.422 0.298 1.603 0 2.49 2.26 0.23 4.084 0.896 6.474 0.996-0.204-1.2 0.909-1.083 0.498-2.49-2.09-0.397-5.75-1.323-6.97-0.996zm-64.73 1.494c-0.388 0.11-0.579 0.417-0.498 0.996 3.286 4.018 9.045 5.561 13.444 8.465 2.132-1.52 4.312-2.992 5.478-5.477-5.8-1.36-12.68-4.209-18.42-3.984zm-151.87 2.987c-1.646 0.747 1.035 1.218 0.498 2.49-5.879 4.459-0.827 12.631 2.988 15.934-2.09 0.068-3.408 0.908-4.481 1.992 3.108 1.95 6.145-0.734 9.461-0.996 3.594-0.284 7.578 0.833 11.453 0.996 7.287 0.307 14.816 0.279 22.407-0.498 0.931 0.397 1.824 0.832 2.988 0.996 3.754-1.521 8.383-0.106 14.44-0.498 1.31-1.014 1.342-3.305 1.992-4.979 1.585-0.738 3.972-0.675 4.481-2.489-1.944-3.863-0.063-8.546-2.49-12.449-17.86 0.514-43.725-0.416-63.732-0.499zm69.212 11.951c1.276-0.55 0.784-2.868 2.988-2.49 1.905-0.741 1.273 1.94 2.49 2.988 0.445 0.384 2.04 0.188 3.486 0.996 2.044 1.142 3.141 3.046 4.481 3.486 3.507 1.149 4.302-0.261 5.975-1.494-2.381-5.077 5.325-10.203 0.996-14.44-7.811 1.11-14.503 0.662-21.91 0-0.33 3.589-1.54 9.067 1.48 10.954zm23.41-6.473c-3.618 6.567 0.26 14.004 0.498 19.419 0.202 4.589-2.14 8.182-2.988 13.445-1.13 7.019-2.485 19.399 2.49 22.407 3.195-0.54 2.669-7.174 6.971-4.979-3.34 6.978-8.961 10.997-10.955 18.424-0.961 3.58-0.221 8.189-0.996 10.954-1.276 4.551-6.667 7.577-4.979 13.444-3.885 8.398-8.351 16.215-10.955 25.894-0.344 2.004 2.097 1.223 1.992 2.987-9.777-1.375-16.544 2.935-22.906 1.992-0.471 2.794 2.6 2.047 3.984 2.987 0.165 2.579 3.271 5.296 6.971 5.976 1.568 0.288 3.418-0.723 5.477-0.498 1.06 0.115 1.673 1.234 2.49 1.494 5.183 1.647 10.676-1.104 11.453-4.979-0.719-1.439-3.537-0.778-3.485-2.988 1.101-0.724 3.316-0.335 3.983-1.493 2.643-6.101 9.138-10.826 11.951-17.927 1.197-3.021 1.122-6.278 2.49-8.963 0.92-1.805 3.198-3.152 3.485-5.477 0.249-2.015-0.827-4.536-1.494-6.972-1.923-7.024-4.214-13.203-5.975-19.918 3.73-1.581 6.52-4.103 10.955-4.979 1.161-3.652 5.724-3.902 8.465-5.975 3.247 1.45 9.743 1.408 11.951 0-0.462-3.883-2.218-7.626-3.983-10.955-1.685-3.176-3.672-7.046-5.478-9.959-1.666-2.687-4.38-4.811-5.975-7.469-0.868-1.446-1.144-3.159-1.992-4.481-3.356-5.235-7.471-11.611-9.959-16.93-0.654-1.398-0.172-4.115-2.49-4.481-0.32 0.016-0.65 0.016-0.98 0.016zm41.82 4.481c0.387 0.111 0.982 0.014 0.996 0.498 2.384 0.06 2.988-1.66 2.988-3.984-2.31-1.17-4.77 0.097-3.99 3.486zm-174.28 0.996c-1.088-1.733-1.905-3.738-4.481-3.983-1.748 2.544 2.598 5.07 4.481 3.983zm-11.453 5.478c-2.051 0.391-2.555-0.764-4.481-0.498-0.987 1.272 0.517 2.29-0.498 2.988-3.759-2.881-11.934-1.378-14.938 0.996-1.874 4.96 1.58 7.74 2.987 10.955 5.753 3.242 15.708 12.009 23.901 12.946 7.711 0.882 6.926-4.112 4.481-8.465-0.94-1.674-2.565-3.135-3.485-4.481-3.78-5.529-6.056-9.402-11.453-11.951 1.566 0.57 1.21-0.782 1.992-0.996 5.117 2.684 9.941 5.662 11.453 11.951 5.298 3.001 5.237 11.361 8.465 16.432-1.004 1.18-1.444 3.465 0 4.482 2.398 0.239 1.225-3.091 2.988-3.486 1.434 0.06 0.864 2.124 2.49 1.992 2.628-0.857 2.507-4.464 4.481-5.976 1.31-0.147 0.392 1.932 1.992 1.494 1.889-7.171-0.628-14.063-2.988-17.926-3.514-5.752-7.54-12.93-13.444-14.938 0.151 1.162 1.063 2.146-0.498 2.49-4.258-0.871-13.247-5.813-13.445 2.008zm126.48 5.97c1.484 0.01 3.034-0.046 2.988 1.494-1.716 1.438-2.685 3.623-5.478 3.983-0.359-2.246 0.292-4.733-0.996-6.971-2.69-0.217-4.408-1.451-2.987-4.481-2.475-0.151-4.736-0.088-5.478 1.494 1.546 3.6 1.441 8.85 4.481 10.955 3.876 0.066 8.503 0.818 12.946 0 1.865 1.993 7.532 3.381 9.461 0.996 0.178-4.659 0.123-9.086-2.489-10.955-4.171-0.852-4.543 2.096-6.972 2.988 0.052-4.92-5.685-7.317-9.958-9.461-0.11 4.935 3.88 5.758 4.49 9.958zm60.75-6.966c0.703 0.711 2.418-0.108 3.485-0.498v-1.992c-0.588-0.574-1.76-0.564-2.988-0.498-0.57 0.589-0.56 1.76-0.49 2.988zm9.46-0.498c-0.442 2.048-0.83 4.149-1.992 5.477-0.064 2.526 2.275 4.986 3.485 7.469 1.146 2.354 1.332 7.1 5.478 4.979-0.098-4.881-3.758-6.201-4.481-10.457 2.258 0.101 2.614-1.701 3.485-2.987-2.1-1.527-2.44-5.848-5.98-4.477zm-150.88 5.975c-2.595 3.713-6.904 5.711-12.947 5.976-3.258 4.257 0.972 9.931 0.996 16.432 7.104 0.179 20.952-3.27 18.922-10.457-0.846-2.993-6.965-1.385-7.469-5.975-0.179-1.627 1.102-3.037 1.992-5.478-0.637-0.02-0.69-0.631-1.494-0.491zm162.33 5.479c-1.51-1.976-2.347-4.625-5.976-4.481-2.59 4.661 4.54 10.931 5.98 4.481zm-157.85 2.49c1.368-0.956 2.141-2.507 1.992-4.979-2.988-3.141-6.622 4.5-1.992 4.98zm246.98 5.97c5.057-1.058 13.361-1.411 12.946-6.473-0.396-4.844-7.327-3.224-12.946-3.486-9.709-0.452-20.53-0.676-27.885 0-0.667 2.991 2.146 2.502 2.489 4.481 0.372 1.534-1.717 0.607-0.996 2.49 6.94 2.39 17.91 4.77 26.39 2.99zm108.55 76.19c-1.782-2.174-4.354-2.964-7.967-3.486-3.488-2.727-7.973-4.772-11.452-6.971-0.748-0.473-1.188-1.477-1.992-1.992-1.633-1.046-3.834-1.328-5.478-2.489-1.842-1.302-3.474-3.417-5.478-4.979-1.915-1.494-3.925-3.037-5.975-4.481-10.359-7.302-20.684-14.75-31.869-20.914-2.306-1.271-4.78-3.593-6.473-4.481-2.61-1.37-5.849-1.894-8.465-2.987-2.64-1.104-4.955-2.6-7.47-3.983-5.096-2.805-10.894-4.859-14.938-7.967-1.834-1.409-2.779-3.603-4.481-4.979-1.442-1.167-3.883-2.909-5.477-3.485-1.902-0.688-3.409-0.108-5.478-0.498-5.252-0.989-10.125-3.93-13.942-4.481-1.838-0.266-3.636-0.521-4.979 0-6.847 2.657 1.167 8.853 3.983 11.453 2.755 2.542 4.604 5.42 6.474 6.971 4.267 3.542 9.637 6.294 14.44 9.461 5.094 3.36 9.598 7.598 15.436 8.964 2.062 4.079 8.479 3.804 10.955 7.469 8.107 3.013 15.604 6.637 22.407 10.955 4.591 2.109 9.921 4.441 13.444 6.971 0.631 0.453 0.791 1.563 1.494 1.992 1.81 1.104 4.19 1.343 5.976 2.489 3.943 2.533 7.246 6.091 10.954 8.963 7.747 6.001 15.918 10.492 23.901 15.935 4.175 0.141 6.162 2.469 9.959 2.987 2.318-1.499 4.914-2.721 5.976-5.478-2.17-3.15-0.9-7.79-3.48-10.93zm-54.77-77.18c-1.616-0.424-2.92 1.027-4.979 0.996-2.102-0.031-3.578-1.776-5.478-1.494-4.091 0.609-5.339 5.025-3.485 8.465 3.255 0.267 3.992-1.984 6.474-2.49 2.55 1.027 7.933 1.569 10.954 0.498 0.36-2.67-0.77-5.28-3.48-5.99zm-8.96 10.95c1.821 0.327 1.91-1.078 3.485-0.996-0.307-1.353-0.987-2.332-1.991-2.987-1 1.18-2.47 2.19-1.49 3.99zm5.47-0.99c5.032-0.883 3.124 5.175 6.971 5.478 1.619-2.953-0.395-6.119-1.991-7.469-2.48-0.16-4.61 0.02-4.98 1.99zm37.35 9.46c0.833 0.88 1.668-0.442 3.485 0 0.197 6.774 5.277 8.665 9.461 11.453 0.404 2.753-2.83 3.631-0.498 5.477 1.979 0.154 2.695-0.956 2.49-2.987 2.494-1.74 4.741-4.963 8.465-5.976 2.111-0.574 4.695 0.902 5.976-0.995 1.607-0.855-2.589-0.011-1.992-1.494 0.687-5.706-5.103-8.243-6.971-12.947-1.522 0.36-1.815-0.509-2.988-0.498 0.022-1.516-1.052-1.937-1.494-2.988-8.51 0.47-13.05 4.9-15.94 10.97zm-203.66-9.96c-1.074 2.032 0.208 3.892 1.494 4.979 0.118 2.206 0.359 4.288 2.49 4.481 2.388-0.932 1.216-5.423 1.494-8.465-1.57-1.63-2.66-1.25-5.47-1zm79.18-0.5c-3.901 0.122-5.966 4.812-7.47 7.469 1.837 2.543 1.777 9.421 5.478 8.465 1.424-2.382-2.312-1.787-1.992-4.481 0.896-2.756 2.26-5.044 4.979-5.976 2.51-0.049 3.422 0.884 4.979-0.498-0.22-3.34-4.02-5.04-5.98-4.98zm68.71 2.49c-0.402 1.54 1.13 2.611 1.494 4.481 0.88 4.53-0.226 9.798 2.987 11.452 1.165 0.601 4.143 1.178 5.478-0.995-1.357-3.827-5.316-6.012-4.979-10.955 0.104-1.54 0.884-2.109 0.996-3.983-1.63-1.66-4.36-1.66-5.98 0.01zm6.97 4.48c0.468 3.682 1.534 6.765 4.979 7.469 0.11-0.388 0.417-0.579 0.996-0.498v-3.983c-1.388-0.81-4.59-1.764-3.485-3.485 1.656 1.601 5.08 0.903 5.478-1.494-1.634-0.996-1.989-2.501-3.486-2.489 0.276 0.001 0.565-0.403 0-0.498-2.66 0.71-1.93 5.57-4.49 4.97zm-330.13 4.98c4.015 3.098 10.908-2.112 9.958-5.976-0.722-2.936-5.321-3.706-7.967-1.494-0.153 1.672 0.665 4.316-1.494 3.983-0.305-1.853 0.941-5.256-1.494-4.979-1.916 3.33-0.628 7.22 0.997 8.47zm243.99-2.99c1.655 0.613 1.218-3.366 0.498-3.485-0.69 0.64-0.5 2.16-0.5 3.48zm78.17-0.5c0.79-0.743 0.729-2.838-0.996-2.489-0.78 0.75-0.72 2.85 1 2.49zm47.31-1.99c-0.064 2.72 3.632 1.679 3.983 3.983-4.992 1.149-7.172 5.11-7.469 10.955 0.619 2.367 4.479 1.496 3.983 4.979-1.544 0.169-2.379-1.153-3.486 0-0.479 2.803 1.01 3.638 3.486 3.485 10.967 8.287 20.477 18.03 28.383 29.379 1.011 4.466 3.351 7.604 4.979 11.452 1.894 0.264 3.275 1.04 4.979 1.494 0.875-2.243 3.865-3.506 4.481-6.474 0.497-2.395-1.237-4.792 0-7.469 1.985-0.492 1.499 1.488 3.485 0.996-0.443-8.853-5.597-12.994-7.967-19.918-5.023-2.612-5.829-9.441-12.449-10.457-2.002 0.156-1.972 2.344-4.481 1.992-2.753-0.567-3.407-3.231-2.987-6.972-2.035-3.276-6.406-4.217-6.972-8.963-1.101-0.725-3.315-0.335-3.983-1.494 0.11-4.79-3.5-8.35-7.96-6.96zm-110.05 1.5c0.734 2.694 0.958 2.941 0 5.477 1.771-0.553 1.639-3.008 3.983-2.987 0.37-4.13-1.9-4.26-3.98-2.49zm-137.93-0.5c-1.2 0.203-1.082-0.91-2.489-0.498-2.216 1.758 0.43 3.613 0.996 5.478-1.358-0.363-1.002 0.989-1.992 0.995-0.671-2.062-2.443-4.277-4.979-2.987-0.362 2.521 1.367 2.949 1.494 4.979 2.167 0.507 2.29-1.03 3.486-1.494 1.956 2.424 1.285 9.914 6.473 7.47-2.26-4.37-1.6-9.42-2.99-13.94zm134.45 3.98c1.2-1.563 0.101-4.155-1.991-3.983-3.89 3.061-0.586 7.353 3.485 7.967 0.97-1.22-1.27-2.42-1.49-3.99zm-83.16 2.99c1.743 0.249 1.97 2.015 3.984 1.992 1.531-1.868-0.29-7.203-3.486-7.47-0.91 1.07-0.33 3.65-0.49 5.48zm167.31 0.5c3.172-0.253 6.664-1.921 4.979-5.478-4.89-1.56-7.83 2.41-4.98 5.48zm-158.84 0.5c1.716-0.074 2.996-2.232 1.992-3.485-2.27-0.48-3.14 2.08-1.99 3.48zm80.16 1.99c2.502 0.178 4.516-0.133 5.976-0.996-0.102-1.559 0.336-3.655-0.498-4.481-3.48 0.17-5.3 2-5.48 5.48zm-69.71-1.99c1.182 1.336 5.856 1.527 6.971 0 0.433-1.927-1.216-1.771-1.494-2.987-2.6 0.22-5.5 0.15-5.48 2.99zm10.96-1.5c0.149-1.312-0.69-1.634-1.992-1.493-0.41 1.78 1.06 2.47 1.99 1.49zm52.78 5.48c-1.787-0.293-2.408 0.579-3.485 0.996v3.485c3.678 1.559 8.476 0.1 12.448 1.992 1.418-0.933 1.418-5.044 0-5.976-3.354-1.016-5.078 2.204-7.469 0.498 1.348-1.143 3.215-1.765 3.983-3.485-1.435-0.06-3.26 0.271-3.983-0.498-0.96 0.54-0.69 2.31-1.49 3zm-141.91 3.49c2.937 0.115 3.929-1.714 3.983-4.481-2.8-2.9-6.21 2.34-3.98 4.48zm109.54 4.97c-2.919-2.466-1.767-7.215-5.477-8.963-3.251-1.53-11.594-0.581-20.416-0.498-9.567 0.09-17.964-0.383-22.407 0.498-1.797 4.541 3.017 6.546 2.987 10.955-8.823 5.786-8.259-8.827-14.44-10.457-1.78 2.752-4.019 6.185-3.983 9.461 0.027 2.566 2.347 6.057 3.486 9.461 0.544 1.627 0.909 3.368 1.494 4.979 2.998 8.265 5.768 17.136 6.971 25.396 5.339 7.687 4.79 21.577 10.457 27.885 2.14 2.381 3.897 3.479 5.976 5.975 24.716-3.887 47.618-6.512 72.699-9.959 6.252-7.101 0.288-14.406-2.489-22.407-5.274-15.193-11.631-31.244-15.935-45.312-5.079-1.427-8.107-7.45-14.44-5.976-1.087 2.882 2.892 4.646 2.49 8.465-1.47 1.44-4.8 1.06-6.97 0.5zm-48.79 1.5c-1.036-3.611 0.234-9.529-3.486-10.457h-0.996c-0.07 5.06 1.1 8.86 4.49 10.46zm52.28-3.49c0.488-2.283-0.657-6.88-3.984-6.972-1.09 2.68 0.51 6.23 3.98 6.97zm178.76 5.48c3.414 0.086 7.943-5.354 7.47-7.968-0.997-5.494-12.82-3.273-14.938 0.996 1.67 2.25 4.36 6.89 7.47 6.97zm-247.97-5.97c1.28-1.767 0.051-4.468-1.992-4.481-1.77 1.3-0.73 4.76 1.99 4.48zm-11.96 2.98c1.185 1.421 2.375-0.05 3.486 0.996-1.812 0.181-2.808 1.176-2.988 2.987 6.649 24.058 15.999 45.414 20.914 71.206 2.565 0.091 2.354 2.957 3.983 3.983 1.23 0.382 4.468-1.493 5.478-2.987 0.931-0.486-0.854-2.427-1.494-2.988 1.396-0.796-0.7-2.241 0-3.983-3.326-2.785-3.251-7.534-4.482-11.95-3.085-11.074-8.071-23.141-11.453-34.358-2.332-7.734-4.123-15.383-6.473-22.905h-2.988c0.739-1.253 2.504-1.479 1.992-3.983-2.99 0.33-5.25 1.39-5.98 3.98zm111.05-1.99h-1.991c-0.7 2.99 3.78 2.18 1.99 0zm116.51 8.97c-3.558-2.862-7.518-6.588-11.452-7.968-0.105-0.602-0.553-0.306-0.996 0-0.5-0.001-0.593 0.403-0.996 0.498-0.559 3.712 1.562 4.745 1.992 7.47 5.044 4.865 11.478 11.542 20.415 9.461-1.58-4.09-5.65-6.81-8.96-9.46zm-218.09-5.98c5.512 20.312 12.309 41.165 18.424 60.749 0.751 2.406 0.819 6.763 4.481 6.971 0.809-2.703-1.202-5.596-1.992-7.967-5.869-17.607-10.786-35.572-15.934-52.782-0.809-2.701-1.217-6.083-3.486-7.967-0.11-0.388-0.417-0.579-0.996-0.498-0.02 0.64-0.63 0.69-0.49 1.5zm-9.96 14.44c2.025 7.289 3.889 13 5.976 19.42 2.103 6.469 3.343 13.515 5.477 19.917 1.008 3.022 2.525 6.013 3.486 8.963 1.015 3.116 0.996 7.067 3.983 8.964 1.991-1.523-0.196-3.292-0.498-4.979-0.335-1.873 0.042-4.138-0.498-5.976-0.228-0.774-1.071-1.487-1.494-2.49-4.534-10.754-6.91-22.291-10.457-33.361-1.939-6.052-2.129-13.86-6.971-16.433-1.05 2.17 0.42 3.95 0.99 5.98zm103.07 53.28c-8.672 0.923-18.309 1.687-27.885 2.988-5.715 0.776-11.323 2.474-16.93 2.987-8.622 0.791-17.183 0.448-22.906 3.983-1.062-1.474-4.925-0.472-4.979 1.992 1.39 2.012 4.699 0.094 6.473-0.498 8.31-1.698 17.461-1.952 26.392-2.987 2.676-0.311 5.276-1.677 7.967-1.992 3.731-0.438 7.628-0.03 11.452-0.498 7.522-0.92 16.848-1.961 22.408-4.481 1.672-0.153 4.316 0.665 3.983-1.494-2.16-2.58-3.97-0.21-5.97 0zm-35.85 8.96c0.699 2.899 7.367 3.625 9.461 1.991-0.27-3.3-6.7-2.8-9.46-1.99zm58.76 4.98c1.226 3.412 7.63 1.721 8.465-0.995-1.38-1.81-7.69-0.99-8.47 1zm41.33 13.45c-2.011-0.757-4.045-2.108-6.473-2.988-2.266-0.821-4.699-1.58-6.972-2.489-5.774-2.311-11.246-6.311-18.424-5.976-6.114 6.153-10.674-1.377-15.935-2.987-4.844 2.577-16.002 0.87-19.917 1.493-0.656 1.99 3.438 3.076 4.481 4.979 2.664-1.443 4.647 1.062 6.971 1.494 1.76 0.327 3.588-0.177 5.478 0 6.951 0.649 14.554 2.695 21.909 3.983 11.267 1.974 22.37 3.978 30.873 5.976 0.914 0.215 3.01 1.911 3.983 0-0.43-4.19-3.59-2.58-5.97-3.47zm-63.74-3.49c2.905 3.17 4.723 9.747 9.461 9.461-2.709-4.096-3.981-9.629-8.963-11.452-0.16 0.67-0.71 0.95-0.5 1.99zm24.9 2.49c-5.799-1.024-11.63-4.258-16.931-1.992-0.291 1.945 3.571 7.44 5.976 7.47 6.516 0.077 16.31 0 23.901 0 4.407 0 9.505 1.085 11.452-1.494-7.02-3.17-16.12-2.53-24.4-3.99zm30.37 8.96c1.337 1.946 5.274 2.421 8.465 2.489 3.885 0.084 11.134-0.402 12.946-2.489-6.17-1.75-14.89-0.78-21.42 0z"></path> <path style="clip-rule:evenodd;fill-rule:evenodd" d="m384.98 23.144c0.028 1.457 0.513 2.833 0.996 4.979-0.067 2.423-2.188 2.791-1.494 5.976-2.421 3.035-8.029 3.318-11.95 0.996-1.194-0.707-2.441-3.432-4.482-5.477-2.454-2.46-5.121-2.79-5.477-5.976-0.387-3.449 2.449-5.078 3.485-7.967-0.477-2.61-1.77-3.373-1.494-5.976 0.262-2.47 3.895-7.388 6.474-7.967 4.262-0.957 9.098 3.31 12.448 4.979 8.726-1.018 8.55 9.901 6.474 15.436-1.82 0.104-3.42 2.201-4.98 0.997zm-14.94-8.963c0.179-3.971 2.967-5.333 3.485-8.963-4.95-2.677-9.5 7.978-3.48 8.963zm2.49 0.498c2.672-1.312 4.201-3.765 6.971-4.979-0.46-8.34-9.54 2.717-6.97 4.979zm8.96-4.98c1.173 4.138 4.301 6.321 5.975 9.959 1.81-4.899 0.17-13.009-5.97-9.959zm-5.98 4.482c1.358-0.362 1.002 0.99 1.991 0.996 0.238-0.963 3.506-1.421 1.992-2.49-0.109 0.388-0.417 0.579-0.996 0.498-0.3-2.445-2.75 0.185-2.98 0.996zm0.5 5.477c0.74 1.251 2.099 1.884 3.485 2.49 0.976-1.512 2.17-3.759 0.996-5.975-2.54 0.12-4.01 1.305-4.49 3.485zm-4.48 3.486c-0.029-2.129-0.669-3.647-0.996-5.478-7.93-1.77-4.47 8.73 1 5.478zm3.98-1.494c-1.228 0.066-2.399 0.076-2.987-0.498-0.18 2.124 2.65 2.481 2.99 0.498zm-5.47 5.477c0.301-2.459-2.59-1.726-3.485-2.988-0.3 2.665 1.87 3.641 3.48 2.988zm2.49 4.482c1.808 1.677 3.979 2.991 7.967 2.49 0.88-2.108 1.921-4.054 2.489-6.473-3.375-0.941-8.009-0.622-10.954-1.992-0.21 2.358 0.88 3.426 0.49 5.975z"></path> <path style="clip-rule:evenodd;fill-rule:evenodd" d="m108.12 239.25c0.021 2.034-1.092 2.281-0.996 3.983 0.241 4.277 4.884 3.284 3.983 8.465-1.038 5.97-15.509 6.408-20.416 10.457-2.625-1.131-7.695-2.521-9.959-4.979-0.47-0.511-3.449-6.155-3.485-6.972-0.241-5.425 5.846-7.77 11.453-9.461 0.108-7.938 8.335-14.154 12.946-6.473 2.96 0.86 5.31 2.32 6.48 4.97zm-4.98-1.99c-4.898 0.583-4.622-4.009-8.465-4.481-1.1 1.418-2.826 4.558-0.996 5.976 2.116 0.475 1.647-0.897 2.988-0.996 5.311-0.389 3.865 5.97 6.473 8.465-0.865 0.453-1.287 1.745-0.498 2.49 3.084 0.441 1.773 3.588 2.988 4.979 1.785-0.539 3.273-1.374 3.485-3.486-0.836-1.644-2.39-1.088-3.485-1.493-1.847-3.002-1.237-5.276 0-8.465-0.53-1.3-1.99-1.67-2.5-2.98zm-13.943 6.97h2.49c-0.021-0.686 0.234-1.094 0.498-1.494-1.33 0.002-1.083-1.573-2.49-1.494 0.361 1.52-0.86 1.46-0.498 2.98zm9.958 3.98c2.366-2.653-0.222-8.2-3.485-6.474 0.527 0.996 2.119 3.486 0.996 4.481-0.648-1.344-0.608-3.375-2.49-3.485-1.642 0.018-1.904 1.416-1.992 2.987 2.461 1.55 4.965 0.24 6.971 2.48zm-16.929-1.49c1.016 3.465 2.916 6.047 2.987 10.457 1.846 0.95 6.398 3.45 6.972 0-4.37-1.822-5.646-5.003-4.482-11.453-1.729-1.7-4.361-0.61-5.477 0.99zm13.942 3.48c-1.523-2.496-7.852-4.306-6.473 1.992 0.913 0.581 1.686 1.302 2.49 1.992 4.682-1.323 8.772 2.161 10.955-1.494-1.7-2.37-3.749-4.1-6.972-2.49z"></path> </g> <metadata></metadata></svg> 