<?xml version="1.0" encoding="UTF-8" standalone="no"?> <!-- Generator: Adobe Illustrator 13.0.2, SVG Export Plug-In . SVG Version: 6.00 Build 14948) --> <svg xmlns:rdf="http://www.w3.org/1999/02/22-rdf-syntax-ns#" xmlns="http://www.w3.org/2000/svg" xmlns:cc="http://web.resource.org/cc/" xmlns:xlink="http://www.w3.org/1999/xlink" xmlns:dc="http://purl.org/dc/elements/1.1/" xmlns:svg="http://www.w3.org/2000/svg" xmlns:inkscape="http://www.inkscape.org/namespaces/inkscape" xmlns:sodipodi="http://sodipodi.sourceforge.net/DTD/sodipodi-0.dtd" xmlns:ns1="http://sozi.baierouge.fr" id="glass_trick_xA0_Image_1_" style="enable-background:new 0 0 216.579 269.571" xml:space="preserve" viewBox="0 0 216.579 269.571" y="0px" x="0px"> <g> <path style="clip-rule:evenodd;fill-rule:evenodd" d="m34.509 24.068c1.391 1.283 1.737 3.611 1.604 6.418-1.391-1.283-1.738-3.611-1.604-6.418z"></path> <path style="clip-rule:evenodd;fill-rule:evenodd" d="m12.045 49.74c3.427 2.271 1.102 10.087 0.802 2.407-0.025-0.661-1.142-1.291-0.802-2.407z"></path> <path style="clip-rule:evenodd;fill-rule:evenodd" d="m5.627 56.158c2.069 1.407 1.667 5.286 2.407 8.022-3.446-1.307-2.351-3.716-2.407-8.022z"></path> <path style="clip-rule:evenodd;fill-rule:evenodd" d="m13.65 59.367c2.479 0.195 1.925 3.423 4.011 4.011-0.248 1.089-2.009 0.666-3.209 0.802 0.582-2.453-1.384-2.359-0.802-4.813z"></path> <path style="clip-rule:evenodd;fill-rule:evenodd" d="m105.91 97.073c0.73-1.943 3.224-2.124 5.615-2.407 0.18 2.865-4.16 3.619-5.61 2.407z"></path> <path style="clip-rule:evenodd;fill-rule:evenodd" d="m148.43 163.66c1.635-1.841 6.662-0.29 9.627-0.802-1.64 1.84-6.67 0.29-9.63 0.8z"></path> <path style="clip-rule:evenodd;fill-rule:evenodd" d="m149.23 164.46h6.418c0.147 0.683-0.312 0.757-0.802 0.803 0.13 0.939 1.463 0.676 2.407 0.802-0.09 2.05-2.687 1.593-4.814 1.604 0.101 1.771 3.403 0.341 4.814 0.803-0.896 0.986-0.699 1.647 0.802 1.604-0.349 0.89-5.703 2.001-1.604 2.406-3.484 2.446-13.849-0.621-3.209 0-0.101-1.771-3.403-0.341-4.813-0.802 1.336-1.595-0.072-1.021 0-3.209h2.406c-0.129-0.94-1.462-0.677-2.406-0.803 2.51-1.81 1.97-0.23 0.79-3.2z"></path> <path style="clip-rule:evenodd;fill-rule:evenodd" d="m124.36 211.8c0.129-0.94 1.462-0.677 2.406-0.802 0.34 1.677-0.55 2.124-0.802 3.209-0.646-0.425-1.303-0.837-2.407-0.803 0.45-0.76 2.23-1.22 0.8-1.61z"></path> <path style="clip-rule:evenodd;fill-rule:evenodd" d="m177.31 221.42c3.224 2.626 6.617 2.765 10.43 3.209-0.243 3.544-0.885 7.194 3.209 8.825 1.771-0.1 0.341-3.403 0.802-4.813 3.195 1.079 0.616 2.94 4.012 0.802 1.834 4.252-1.535 2.491-1.604 6.418-6.726-1.99-12.74-3.696-18.452-4.813-1.27-5.8 3.51-5.22 1.6-9.64z"></path> <path style="clip-rule:evenodd;fill-rule:evenodd" d="m194.96 234.26c1.755 0.118 1.723 2.021 1.605 4.012-3.48-0.15-1.46-1.39-1.6-4.01z"></path> <path style="clip-rule:evenodd;fill-rule:evenodd" d="m139.6 238.27c0.338-1.785 4.257-0.628 4.813 0-0.33 1.79-4.25 0.63-4.81 0z"></path> <path style="clip-rule:evenodd;fill-rule:evenodd" d="m128.37 239.07c0.198-1.009 1.596-0.809 1.604 0 9.22-0.69 2.43 2.31-1.6 0z"></path> <path style="clip-rule:evenodd;fill-rule:evenodd" d="m138 240.68c0.603-1.924 13.921-0.455 7.221 0-1.271 0.066-3.061-0.386-3.209 0.802-0.93-0.67-2.15-1.06-4.01-0.8z"></path> <path style="clip-rule:evenodd;fill-rule:evenodd" d="m147.63 242.28c-1.373 1.836-6.123 0.294-8.824 0.802-0.35-1.16 6.35-1.8 8.82-0.8z"></path> <path style="clip-rule:evenodd;fill-rule:evenodd" d="m158.86 243.08h5.616c-0.022 0.78-0.981 0.623-1.604 0.803 0.388 2.816 0.928 2.638 0 4.813-1.892-0.248-1.492-2.786-4.012-2.407 2.46-1.87 0.31-0.46-0.01-3.2z"></path> <path style="clip-rule:evenodd;fill-rule:evenodd" d="m176.51 255.92c1.859 1.35 3.416 3.002 6.418 3.209-1.428 0.872-7.196-0.187-5.616 2.407-3.735 2.369-5.4-4.205-11.231-2.407 0.64-3.9 9.78 0.69 10.43-3.21z"></path> <path style="clip-rule:evenodd;fill-rule:evenodd" d="m172.5 174.09c-0.551-2.689 1.346-2.933 3.209-3.209-0.682-2.354-2.019 1.044-4.011 0 0.556-0.647 1.248-2.197 0-2.406 0.12-1.484 2.716-0.493 3.209-1.605-0.193-2.067-1.381 1.103-3.209 0 1.013-1.845 1.996-1.331 0-4.813-0.851-1.481-2.465-8.481-4.813-9.627-3.754-0.276-4.444 2.509-8.023 2.407 1.775 1.155-1.01 1.957 0.803 2.406 0.318 1.923-3.654-0.444-2.406 2.407-2.702-0.725-0.095-1.795-1.605-3.209-1.85-0.246-0.891 2.317-2.406 2.406 0.193 1.412 1.38 1.829 3.209 1.604-0.854 1.821-5.043 0.306-7.221 0.803 0.707-4.092-2.968-1.831-1.604-5.616h-2.406c-1.791 0.737 3.312 5.456-2.407 4.012 0.13 0.94 1.463 0.677 2.407 0.802-3.424 1.334 1.017 4.591-2.407 4.814 0.528 1.076 1.715 1.494 3.209 1.604-0.129 0.94-1.462 0.677-2.406 0.803 0.129 0.94 1.463 0.677 2.406 0.803-0.129 0.939-1.462 0.676-2.406 0.802 0.588 0.749 1.459 1.216 2.406 1.604-0.162 1.077-3.332 1.494 0 1.604-0.248 1.089-2.008 0.666-3.209 0.803 1.808 1.521 0.688 4.236 4.012 5.615 1.166-1.24 4.106-0.706 6.418-0.802-1.176 1.766-2.126 3.758-5.616 3.209 0.854 1.82 5.043 0.305 7.221 0.802-1.823 0.766-10.497 2.713 0.802 2.407 2.453 1.24-3.479 0.706-4.813 0.802 0.598 1.81 4.5 0.313 6.419 0.803 0.229 1.068-7.178 1.353-10.43 1.604 1.201-1.188 0.074-4.146-2.407-4.012-1.377-0.053 0.873 4.121-2.406 4.012 1.763 2.271 12.896-0.624 12.033 1.604h-14.44c5.615 2.097 13.438-0.299 16.045 3.209 0.362 2.233-4.372-0.629-4.011 1.604 0.337 1.785 4.257 0.628 4.813 0 7.232 0.051-3.278 2.143-6.418 1.604 0.68 1.192 2.583 1.161 4.011 1.604-0.129 0.94-1.462 0.677-2.406 0.802-0.136 1.74 2.846 0.364 4.011 0.803 2.314 0.474-7.378 2.203-0.802 2.406-2.086 1.658-5.787 1.701-9.627 1.604 1.635 1.842 6.662 0.291 9.627 0.803 1.743 1.537-5.866 0.506-8.022 0.803-0.714 0.623-1.812 0.862-3.209 0.802 3.684 2.257 11.763-1.544 12.033 0.803-3.94 1.14-9.697 0.464-13.638 1.604 3.446 2.344 7.944-1.123 12.836 0-1.662 1.813-5.966 0.986-8.022 2.406 1.102 2.068 4.915 0.178 6.418 0 1.578 0.861-3.336 1.949-5.616 1.604 3.874 1.759 1.7 0.405 2.407 4.012 2.095 1.648 6.972 0.516 6.418 4.813 3.6-4.839 10.278 0.649 16.045 0.802-1.938 3.447-0.91 5.165 0.803 8.022-4.147 2.936-20.162-2.584-23.266 1.604-3.158 0.916-11.792-1.31-16.045 2.407-0.809 2.413 1.787 1.422 3.209 1.604 0.492 2.433-5.071 1.999 0 2.406-1.587 2.304-5.008-0.277-7.221 0-0.135-1.739 2.846-0.363 4.012-0.802-0.324-1.548-3.675-0.07-2.407-3.209-2.604-0.465-3.732 0.546-5.615 0.802 0.485-1.921 1.153-3.659 0.802-6.418-4.122 2.067 0.304 9.264-6.418 9.627 0.193 1.412 1.38 1.829 3.209 1.604-1.177 1.895-6.192 0.908-4.813-2.406-4.577 15.34 24.113 17.409 39.311 16.045 9.291-0.834 26.535-2.459 33.694-8.022-0.262 4.846-12.049 5.683-13.638 8.022-5.071 2.848-8.386 0.055-14.44 1.604-1.823 0.856 2.304 2.434 1.604 4.813-2.775 0.652-3.388-1.498-4.813 0 7.75 1.342 13.224 4.961 18.451 8.825 1.589-0.543 3.528-2.666 0.803-3.209-0.136-1.74 2.846-0.363 4.011-0.803 0.103-1.438-0.981-1.691-0.802-3.209h2.406c-2.061-1.016-1.617-2.711 1.604-2.406-2.326-1.282-0.955-2.05 1.604-2.407-2.61-3.659 3.382-3.245 0-4.011 1.166-1.241 3.13-1.685 5.616-1.604-4.001-0.586 4.15-5.263-0.802-6.418 0.461-1.678 1.988-2.29 1.604-4.814 3.012 3.806 3.373-1.776 7.221-1.604-0.43-1.653-3.796-0.19-1.604-2.406-0.714 0.623-1.812 0.862-3.209 0.802 3.841-1.774 8.239-2.992 11.231-5.615-1.125-2.337-2.764 1.422-4.813 0.802-0.428-3.851-7.113-1.443-8.022-4.813 5.106-0.293 8.2 1.427 13.639 0.803 3.362-0.635 2.479-3.125 6.418-1.604 2.454 6.143-1.471 11.607-5.616 16.045-2.799 2.997-4.888 4.489-8.022 7.221-11.538 10.051-14.853 21.294-27.276 20.858-8.45-13.627-30.626-8.052-46.531-10.43-4.107-0.613-7.985-3.146-12.034-4.011-10.729-2.294-21.809-2.655-30.485-6.418 1.171-7.922 12.729-5.456 16.045-11.232 6.655-0.832 9.41-5.564 16.045-6.418-1.131-14.986 2.081-33.326 4.012-48.135 0.914-7.012 0.377-14.378-6.418-17.649-2.805-11.369-13.621-14.727-15.243-27.277-2.405-1.73-2.705-4.914-4.011-7.221-3.848-6.793-9.015-11.35-12.836-18.451-1.86-3.457-3.769-7.406-5.616-11.232-1.479-3.061-4.177-5.365-5.616-9.627-2.152-6.353-0.511-14.175-8.801-16.753-0.988 1.43-0.52 3.506-0.802 7.221-3.863 4.694-6.326 10.788-9.627 16.045-7.211 1.079-8.406 8.174-11.231 13.638-4.748 2.477-5.688 9.33-12.836 10.43-1.939 0.298-10.926-0.396-15.243-1.604-1.164-0.326-2.479-2.497-4.011-3.209-3.438-1.599-4.396-0.661-5.616-4.012-1.933-0.328-1.744 1.465-4.011 0.803-0.176-5.411 1.736-11.497 0-19.254 1.978-0.106 3.865-0.122 4.813 0.802-0.249 1.089-2.009 0.666-3.209 0.802 2.984 5.092-2.857 14.427 5.616 12.836 1.247 2.852-2.725 0.484-2.407 2.407 2.202 1.291 3.704 0.055 6.418-0.802 0.533-1.098-2.328-0.47-2.407-0.802-0.438-1.834 1.556-1.078 1.604-1.604 0.449-4.881-4.914-10.597-4.813-14.44 2.216 0.725 2.825 3.058 3.209 5.616 2.27-2.323-0.771-6.142-0.802-8.825 1.413 0.726 1.325 2.953 3.209 3.209-0.315-2.894-1.039-5.38-1.604-8.022 2.696 0.824 1.249-2.495 1.604-4.011-1.893-1.801 2.21 0.562 0.802 3.209 1.393-1.816 0.733-5.685 4.011-5.616-0.896-1.244-2.608-1.671-2.407-4.012 0.246-2.361 2.482-0.157 1.604-4.813 1.666 0.206 0.219 3.525 1.604 4.011 1.17-1.223-0.761-6.152 0-9.627 2.372 5.272 1.492-2.213 0.802-4.813 1.296-0.226 1.381 0.758 2.407 0.802 1.202-6.516 1.74-15.764 0-22.463-0.262-1.01-1.093-1.63-2.407-1.604 0.249-1.088 2.009-0.666 3.209-0.802-0.973 7.659 2.118 11.254 1.604 18.452 2.186-5.145 0.163-12.986-0.802-17.65 3.243-0.033 0.678 5.74 2.407 7.221 0.816-0.521 0.83-1.845 2.407-1.604-0.861 2.081-1.949 3.934-1.604 7.22 0.94-0.13 0.677-1.463 0.802-2.407 2.311 2.032 1.393 0.83 4.011 0-1.726-0.681-1.86-2.954-1.604-5.616 1.303 4.683 4.733 0.224 5.616-2.407 1.515 0.089 0.557 2.652 2.407 2.407 0.188-3.932-1.414-6.074-0.802-10.43 1.878 0.261 0.779 3.5 2.407 4.011 1.375-5.521-0.674-10.303-1.604-15.243 2.464-2.411 3.113 3.8 3.209 6.418 1.144-2.573 1.865-2.603 2.407 0.802 4.764-1.367-3.436-8.945 1.604-10.429-0.158 3.099-0.029 5.912 0.802 8.022 3.681-1.659-1.667-4.991 0-9.627 1.837 1.371 1.897 4.521 2.407 7.22 2.921-0.767-0.24-5.795 0-8.825 2.783-0.376 0.46 4.354 2.407 4.813 2.069-1.102 0.178-4.916 0-6.418-9.64 1.684-11.249 0.426-16.847-2.407-2.146-0.238 2.132 3.112-1.605 2.407 0.963-1.054 0.313-1.262 0-2.407-0.78 0.022-0.623 0.982-0.802 1.604-1.355-0.709-6.141-4.987-5.616-2.407-0.342 2.014-2.292-0.771-1.604-2.407-1.677 0.339-2.124-0.55-3.209-0.802-2.248 0.788 1.165 2.14-0.802 3.209 2.305-0.869 3.81-1.303 3.209 2.407-1.243-1.827-1.671-1.515-4.011-0.802-1.049-3.186-1.369-5.865-4.011-5.616v-4.813c13.36 5.756 34.406 7.428 48.135 12.034 1.723 2.289 3.823 4.199 4.813 7.22 3.541 3.68 10.468 3.973 12.034 9.627 4.292-0.979 6.599 3.046 9.627 0.802 3.729 1.62 5.734 4.962 11.231 4.813 14.087 8.376 24.924 20.002 41.717 25.672 4.048 6.114 11.867 8.457 19.255 11.231 7.517 10.132 18.585 16.714 28.881 24.068 1.351 6.365 6.269 18.098 7.221 27.277 0.507 4.896-0.465 9.946 0 15.243 0.552 6.299 2.057 12.246 1.604 17.649-0.539 6.44-2.583 12.09-1.604 19.255-4.129 0.803-6.437 0.854-8.825-1.604-3.99 8.75-13.15 1.44-15.24 0.79zm-117.13-154.03c-6.648 4.892-8.314 12.389-12.034 20.858-2.082 4.74-5.365 9.597-6.418 13.639-0.53 2.033 0.283 4.546 0 6.418-0.388 2.562-2.62 4.614-3.209 7.22-1.612 7.133-1.214 14.027-1.604 21.661 4.741 2.855 8.885 1.334 12.836 4.813 2.392-12.486 5.691-25.575 9.627-37.706 4.05-12.481 10.002-23.019 16.045-32.893-5.255-1.163-9.947-2.887-15.243-4.01zm17.65 54.553c-1.906-0.469-3.735-1.228-4.012 1.605 3.159 0.374 4.167-1.682 5.616 0.802-1.266 3.94 1.586 3.762 3.209 4.814-1.471 1.289-2.717-0.741-4.011 1.604 2.852 1.826 4.428 5.113 1.604 7.22 2.711 0.929 3.423-0.567 4.813 0.802 0.717 1.666-5.464 0.219-2.407 1.604 1.41 0.461 4.713-0.97 4.813 0.802 0.132 2.271-4.945-0.667-4.813 1.604 2.503-0.38 3.884 1 2.407 2.407 2.852 1.248 0.484-2.725 2.407-2.407 0.67 3.277 0.999 3.639-1.604 4.813 1.999 0.408 4.84-0.026 4.813 2.407-0.071-1.097-5.771-1.097-3.209 0 3.568 0.706 2.834 0.722 1.604 3.209 3.216-0.007 2.869 3.549 4.813 4.813-1.155-0.897-1.958-0.865-2.407 0.802 1.026 1.097 3.788 1.097 4.813 0-1.266 3.673 3.33 1.484 3.209 4.012-0.944 0.125-2.277-0.138-2.407 0.802 3.206 0.163 3.092 3.642 2.407 5.616 1.89-0.018 2.362 1.382 4.813 0.802-0.824 4.464 1.25 1.606 2.407 3.209-0.979 0.091-1.899 0.24-1.604 1.604 2.618-0.211 2.318 2.496 4.012 3.208-0.944 0.126-2.277-0.138-2.407 0.803 0.699 2.242 2.083 3.801 4.012 4.813-2.268 0.663-2.079-1.131-4.012-0.802-0.437 4.556 5.177-0.518 6.418 3.209 1.804 4.588-3.81 2.038-1.604 3.209 0.121 1.995 2.716 0.234 3.209 0 2.075 3.789 2.992 4.155 1.604 8.824 2.808 0.45 4.983 0.958 3.209 4.012 0.932 0.673 2.151 1.058 4.012 0.802-0.513 3.354 2.999 3.177 0 4.813 1.519 1.424 5.299 0.585 8.022 0.803-0.124 1.996 1.261 2.483 1.604 4.012-2.56-0.688-2.481 1.262-4.011 1.604 0.281 3.849 0.316 5.571 0.802 10.43 0.622 0.18 1.583 0.022 1.604 0.803 2.188 0.584 1.615-1.595 3.209-1.604 1.151-3.431-4.242-7.496 0-8.825-0.131 3.607-0.179 7.132 2.407 8.022 3.739-4.392 3.321-14.346-0.803-16.848 0.935-0.135 0.871-1.268 0.803-2.406-2.009 0.136-2.512-1.232-3.209-2.407-0.081-7.14-6.593-7.848-7.221-14.44-3.635-0.911-4.468-4.625-7.221-6.418 2.05-0.865 2.809 3.454 4.012 0.803-1.471-0.937-2.717-2.098-4.012-3.21 2.693-0.732 0.397-1.491 0.803-4.011-4.369 1.427-2.471-3.413-4.813-4.011 3.399-0.24-0.519-3.375 1.604-4.011 2.128-0.256-0.751 4.494 2.406 3.209-1.312-2.741-0.939-6.911 0.803-8.825-2.145-1.24-2.207-2.593-1.604-5.616-2.775-0.84-4.27 3.668-6.418 0.802 3.497-0.669 7.811-4.008 3.209-4.011 1.986-0.99 7.024-3.091 5.615-4.813-1.041 1.935-5.84 4.275-8.022 2.407 1.066-0.806 2.985-0.759 3.208-2.407-1.421-0.183-4.017 0.809-3.208-1.604 4.083 0.071 6.958-1.064 8.825-3.209-2.451-0.58-2.924 0.82-4.813 0.802-1.008-4.699 1.738-1.736 1.604-1.604 1.241-1.218-0.042-3.281 3.209-4.011-0.379 3.449 2.159 1.026 2.406 2.407v4.011c1.196 1.646 8.848-0.25 9.628 4.011 5.174-2.106 10.115 3.529 16.045 0.802 0.18 1.517-0.904 1.77-0.803 3.209 4.718 1.701 9.307 3.53 12.837 6.418-0.948 0.389-1.819 0.855-2.407 1.605 3.515-0.584-0.646 1.594 1.604 1.604 1.198-3.158 0.945 0.149 3.209 0 1.325-0.013 0.449-2.226 1.604-2.407-0.139 3.381 1.796 0.55 2.407 0 0.584 2.189-1.595 1.615-1.604 3.209 2.113 0.939 2.794 0.997 0.802 2.407 1.651 1.022 4.069 1.279 4.012 4.011 2.729 1.049 5.598-1.788 6.418 0-0.932 0.673-2.151 1.058-4.012 0.802 0.608 2.971 4.02 8.38 0 6.418-0.147 3.542 1.69 5.199 4.012 8.022-1.066 0.117-2.985-2.698-3.209-0.802 2.11 1.098 3.715 2.702 4.813 4.813-1.353-0.328-3.605-3.78-4.813-1.604 2.883 0.93 6.715 5.519 3.209 8.022-1.146-0.192-1.354-1.321-2.407-1.604-7.175 2.863-17.541 4.489-26.475 3.209 0.85 2.988-1.688 2.59-2.406 4.011 10.095-0.373 26.927 1.314 33.694-4.813-2.043 3.484 1.754 7.07 4.012 8.825-1.381 0.316-2.057-1.19-2.407 0 3.505 0.508 0.062 3.487 0 4.011-0.278 2.343 2.918 3.009 0 4.012 1.592 2.42 2.892 5.131 3.209 8.825 2.47-0.562 1.542-0.562 4.012 0 0.137-1.201-0.287-2.961 0.802-3.209 0.044 0.844 1.028 0.631 0.803-0.803-2.555-0.866-0.993-1.358 0-3.209-0.192-1.505-1.321 0.455-1.604-0.802-0.601-4.077 0.8-6.153 3.209-7.221-0.142-5.223 0.455-9.707 1.604-13.639-3.258-0.041-0.494-1.757-0.803-3.209-0.115-0.545-1.34-1.062-1.604-2.406-1.555-7.902-2.675-14.785-4.011-21.661-0.057-0.292-1.672-2.301-1.604-3.209 0.373-5.028-4.082-5.406-7.221-8.825-0.907-0.989-0.653-2.757-1.604-4.011-5.163-6.809-14.414-13.094-18.452-20.056-2.349 0.209-2.465-1.814-4.813-1.604-3.225-10.681-14.582-13.229-23.265-18.452 1.529 1.506 1.451-0.476 4.011 0 0.894-4.103-3.464-2.955-5.615-4.011-1.578-3.236-5.243-4.385-8.023-6.418-0.009 0.809-1.405 1.009-1.604 0 0.979-0.091 1.899-0.24 1.604-1.604-2.469-0.562-1.541-0.562-4.011 0-0.316 1.38 1.19 2.057 0 2.407-0.748-0.856-2.959-0.25-2.407-2.407 0.012-1.325 2.225-0.449 2.407-1.604-3.187 0.451-3.338-2.705-4.011-3.209-0.788-0.589-4.827 0.784-3.209-2.407-2.715-1.351-4.919 1.765-4.813-2.407-2.438-0.503-6.91 1.027-8.022-0.802 1.38 0.043 2.057-0.617 2.407-1.604-2.789 0.283-7.112-0.013-4.813-2.407-3.046-0.128-5.084-0.028-2.407 1.604-5.645-3.471-11.432-2.338-16.847-4.011-0.151-0.046 0.115-1.444 0-1.604-3.68 1.168-3.856 3.248-3.209 7.22-3.782 0.007-7.121 6.131-4.011 8.023-2.56-0.688-2.481 1.263-4.011 1.604 0.096 2.311-0.438 5.251 0.802 6.418-1.145 0.312-1.353 0.963-2.407 0 0.457 2.596-0.243 4.035-1.604 4.813 3.534-0.125 0.227 2.268 0 3.209 0.944 0.125 2.277-0.138 2.407 0.802-6.848 0.342 1.149 0.341 1.604 2.407 0.389-0.948 0.855-1.819 1.604-2.407 0.598 4.211 4.773 1.473 6.418 0 1.587 4.492 8.37 7.928 5.616 12.034-0.475-1.819-2.442-1.819-0.83 0.053zm-17.65-8.825c-0.146 1.75 0.657 2.552 2.407 2.407-0.18-1.517 0.904-1.77 0.802-3.209-1.397-0.06-2.495 0.179-3.209 0.802zm10.429 4.814c1.829 0.225 3.016-0.193 3.209-1.604-1.06-0.009-0.733-1.406-1.604-1.604-0.01 1.593-2.189 1.019-1.605 3.208zm125.95 64.181c-1.025-0.044-1.11-1.028-2.406-0.802-0.214 1.956 1.994 1.741 2.406 3.209 0.285 1.011-1.683 1.454-1.604 2.406-0.012-0.153 1.496 0.511 1.604 0.803 0.388 1.036-0.934 1.886-0.802 2.406 0.079 0.312 1.416 0.072 1.604 0.803 0.479 1.854-0.577 3.681 0.803 4.813-1.146 0.312-1.354 0.963-2.407 0-0.598 2.469 2.202 1.542 1.604 4.011-1.066 0.806-2.985 0.759-3.209 2.407 1.174 0.697 2.543 1.201 2.406 3.209-2.801-0.718-1.37 2.616-0.802 3.209h-2.407c0.033 3.442 1.673 5.301-0.802 7.221 1.332 1.644 3.488 6.627 6.418 4.011-6.087-8.29 5.047-16.178 0-24.067 2.157 0.553 1.551-1.658 2.407-2.407-4.055-3.096 0.507-28.033-5.616-29.683 1.159-0.099 1.663-0.23 1.604-1.604-0.264-6.144-7.488-13.03-10.43-16.045-10.177-10.436-21.455-26.808-36.102-30.486-0.391 3.065 2.838 2.511 4.012 4.011-0.979 0.091-1.899 0.24-1.604 1.604 1.863 1.451 4.977 4.668 7.22 3.209 1.318 3.739 3.88 8.775 7.221 8.023-2.695 3.193 5.339 1.905 2.407 5.616 3.953-0.456 3.29 4.206 2.406 3.209 2.051 2.314 8.275 3.549 5.616 6.418 2.489-0.083 2.289 2.524 5.615 1.604 1.425 5.975 7.656 5.236 6.418 12.034 1.829-0.225 3.017 0.193 3.209 1.604-1.402 2.883 1.162 5.5-2.406 8.022 0.935 0.135 0.871 1.268 0.802 2.407 1.577 0.24 1.591-1.083 2.407-1.604-0.41 4.31 0.77 6.32 2.4 10.43zm-137.18-48.136c-0.412 0.673 1.152 0.576 1.604 0 1.913-2.438 4.269-7.354 5.616-12.836-3.035-0.81-3.845-1.12-8.022-2.407 0.307 4.807-5.571 6.96-3.209 11.232-2.673 3.462-4.757 9.92-0.802 13.638 3.187-3.058 3.069-6.774 4.813-9.627zm133.18 12.034c-1.546-0.326-0.634-3.11-3.209-2.407-1.05 2.478 2.28 4.549 3.21 2.407zm-164.46 14.442c3.496-1.089 2.902 1.911 4.813 2.407-1.866-5.073-0.322-9.538-0.802-12.836-1.064 2.276-2.125-2.061-1.604-4.011-3.41-0.735-3.426 1.922-3.209 4.813 1.199 1.208 4.574 0.24 4.011 3.209-2.278 0.93-3.16 3.26-3.209 6.42zm112.31-10.43c-2.854 1.594-3.514 0.396-5.616 2.407 2.523-0.919 1.949 1.26 3.209 1.604 0.682-1.19 2.02-1.725 4.012-1.604 0.9 5.61 1-2.49-1.6-2.41zm-14.44 4.01c-5.349 11.259-2.036 31.021 6.418 36.102 0.452-9.175 9.813-9.44 16.847-12.034-2.893-6.734-6.622-12.631-8.824-20.056-5.42-0.74-9.18-3.12-14.45-4.01zm47.34 26.48c-1.331-3.75-3.605-6.557-3.209-12.034-4.86-0.488-6.673-4.025-11.232-4.813-0.438 1.166 0.938 4.146-0.802 4.011 0.134-6.018-2.877-8.89-7.221-10.43-0.01 1.594-2.188 1.021-1.604 3.209 2.827 0.098 0.22 1.168 1.604 3.209-1.494 0.11-2.681 0.528-3.209 1.604 4.341 0.868 4.272 2.804 4.012 4.813 0.077-1.526 3.131 0.497 3.209 1.604-0.948-0.116-1.818-1.429-2.407 0 0.196 1.859 2.077 2.496 0.803 4.813 3.106 0.528 5.815 1.473 5.615-0.802 2.99 2.91 13.07 2.96 14.45 4.82zm-44.13 51.34c1.661-0.478 5.27 0.991 5.615-0.803-4.255-0.084-0.948-0.454 0-1.604-0.625-0.177-0.933-0.672-0.802-1.604h-4.813c-0.01 1.32-0.01 2.66-0.01 4zm9.63 3.21c1.2-0.137 2.96 0.286 3.209-0.803-2.233 0.361 0.629-4.372-1.604-4.011-0.47 1.67-2 2.28-1.61 4.81zm-10.43 0c1.167 1.507 5.251 0.097 6.418 1.604 0.072-2.189-1.336-1.615 0-3.209-1.433 0.003-4.667-2.161-5.615 0 1.43 0.39-0.35 0.86-0.8 1.61zm6.42 2.41c-2.144 0.464-5.013-2.373-6.418 0 2.78 0.31 4.24 1.39 6.42 0zm19.25 6.41c-2.964 0.513-7.991-1.038-9.627 0.803 2.97-0.51 8 1.05 9.63-0.8zm-3.21 2.41c-1.502-0.178-5.316-2.068-6.418 0 2.61-0.93 4.94 2.45 6.42 0zm0.8 1.6c-8.986 0.307 1.124 1.879 4.813 0-1.71 0.04-3.29-0.05-4.81 0zm-26.47 20.06c1.41-0.462 4.714 0.97 4.813-0.803-1.598 0.168-3.427-3.401-4.011-1.604 2.33 0.44-1.23 1.25-0.8 2.4zm4.81 1.61c-1.89 0.018-2.362-1.382-4.813-0.803 0.278 2.214-2.304 5.634 0 7.221 0.443-1.429 0.412-3.332 1.604-4.012 3.104-0.697 2.854 1.96 4.813 2.407 0.161-2.513 2.639-2.71 2.407-5.616-0.01-1.061-1.406-0.733-1.604-1.604 2.95-6.024 2.585-8.223 2.406-13.638-2.008-0.101-2.512-1.531-3.209 0.802 2.814-0.343-0.696 2.509 0 3.209-1.406 0.222-4.003-2.259-4.813 0 1.408 0.691-1.108 4.177-1.604 5.616 2.27 0.137 5.504-0.69 5.616 1.604-3.66 1.07 1.97 2.86-0.82 4.81zm84.24 15.24c3.034-0.323 5.244-7.69 2.406-8.824 0.04 3.78-2.59 4.89-2.41 8.82zm-64.98 18.45c1.2 0.137 2.961-0.286 3.209 0.803-2.127 0.012-4.724-0.445-4.813 1.604 2.606-0.068 4.936-0.414 6.418-1.604-1.367-0.329 0.169-1.035 0-2.407-1.49 0.2-6.58 0.82-4.82 1.61zm-15.24 0c-0.739 2.915 5.295 1.835 4.813 0-1.03-1.1-3.79-1.1-4.81 0zm24.86 1.6c0.192-1.145 1.321-1.353 1.604-2.406-1.41 0.461-4.713-0.97-4.813 0.802 1.6 0.02 1.03 2.2 3.21 1.61z"></path> <path style="clip-rule:evenodd;fill-rule:evenodd" d="m10.441 67.39c3.652-3.776-0.205-8.562 0-13.638 2.939 3.479 1.924 10.912 3.209 16.045-1.474 2.685 0.422-4.609-3.209-2.407z"></path> <path style="clip-rule:evenodd;fill-rule:evenodd" d="m107.51 91.458c0.936-2.273 4.96-1.458 4.011-5.616 0.89-2.102 1.023 3.163 1.604 4.011-2.147 1.023-3.813 1.279-2.406 4.011h-3.209c0.129-0.94 1.462-0.677 2.407-0.802-0.34-0.987-1.02-1.647-2.4-1.604z"></path> <path style="clip-rule:evenodd;fill-rule:evenodd" d="m187.74 176.5c2.769 8.379 5.016 32.874 7.22 48.135-6.31-3.775-1.932-12.599-4.011-20.858-0.217-0.862-0.306-3.303-2.407-3.209 1.947-1.596 2.244-9.278-2.406-10.43 4.87-2.36 0.18-7.72 1.61-13.64z"></path> <path style="clip-rule:evenodd;fill-rule:evenodd" d="m137.2 241.48c-0.623 0.714-0.863 1.812-0.803 3.209h-3.209c0.248 1.089 2.009 0.666 3.209 0.803 0.136 1.739-2.846 0.363-4.011 0.802-1.034-1.727 0.862-2.838-3.209-2.406 0.205-2.114 1.652-2.634-1.604-2.407-0.47-2.24 6.27 0.86 9.62 0.01z"></path> </g> <metadata></metadata></svg> 