<?xml version="1.0" encoding="UTF-8" standalone="no"?> <!-- Created with Inkscape (http://www.inkscape.org/) --> <svg xmlns:inkscape="http://www.inkscape.org/namespaces/inkscape" xmlns:rdf="http://www.w3.org/1999/02/22-rdf-syntax-ns#" xmlns="http://www.w3.org/2000/svg" xmlns:sodipodi="http://sodipodi.sourceforge.net/DTD/sodipodi-0.dtd" xmlns:cc="http://web.resource.org/cc/" xmlns:xlink="http://www.w3.org/1999/xlink" xmlns:dc="http://purl.org/dc/elements/1.1/" xmlns:svg="http://www.w3.org/2000/svg" xmlns:ns1="http://sozi.baierouge.fr" id="svg2" sodipodi:docname="WEB DUGMICI.svg" sodipodi:modified="true" viewBox="0 0 210 340" sodipodi:version="0.32" inkscape:output_extension="org.inkscape.output.svg.inkscape" inkscape:version="0.45" sodipodi:docbase="E:\INKSCAPE SVG\SVG - VEZBE"><defs id="defs4"><linearGradient id="linearGradient3609" inkscape:collect="always"><stop id="stop3611" style="stop-color:#ffffff" offset="0"></stop><stop id="stop3613" style="stop-color:#acffff;stop-opacity:0" offset="1"></stop></linearGradient><linearGradient id="linearGradient3149" inkscape:collect="always"><stop id="stop3151" style="stop-color:#ffffff" offset="0"></stop><stop id="stop3153" style="stop-color:#ffffff;stop-opacity:0" offset="1"></stop></linearGradient><filter id="filter3297" inkscape:collect="always"><feGaussianBlur id="feGaussianBlur3299" stdDeviation="1.6224417" inkscape:collect="always"></feGaussianBlur></filter><filter id="filter3420" inkscape:collect="always"><feGaussianBlur id="feGaussianBlur3422" stdDeviation="2.2251695" inkscape:collect="always"></feGaussianBlur></filter><linearGradient id="linearGradient3443" y2="113.93" xlink:href="#linearGradient3149" gradientUnits="userSpaceOnUse" x2="360.13" y1="74.927" x1="359.77" inkscape:collect="always"></linearGradient><linearGradient id="linearGradient3445" y2="101.04" xlink:href="#linearGradient3609" gradientUnits="userSpaceOnUse" x2="364.34" y1="70.468" x1="364.34" inkscape:collect="always"></linearGradient><filter id="filter4485" inkscape:collect="always"><feGaussianBlur id="feGaussianBlur4487" stdDeviation="2.5960311" inkscape:collect="always"></feGaussianBlur></filter><filter id="filter4529" inkscape:collect="always"><feGaussianBlur id="feGaussianBlur4531" stdDeviation="2.5960311" inkscape:collect="always"></feGaussianBlur></filter><filter id="filter4573" inkscape:collect="always"><feGaussianBlur id="feGaussianBlur4575" stdDeviation="2.2251695" inkscape:collect="always"></feGaussianBlur></filter></defs><g id="layer2" inkscape:label="Web buttons" inkscape:groupmode="layer" transform="translate(-160.32 -15.847)"><path id="path2174" sodipodi:rx="8.0808783" sodipodi:ry="18.621155" style="fill:#00caff" sodipodi:type="arc" d="m346.78 135.36a8.0809 18.621 0 0 1 -0.01 0.1l-8.08-0.1z" transform="matrix(106.75 -161.84 1430.1 -286.03 -2.2304e5 90482)" sodipodi:cy="135.35814" sodipodi:cx="338.69421" sodipodi:end="0.0053246399" sodipodi:start="0"></path><g id="g4489" transform="translate(90.815 -52.893)"><path id="path2272" sodipodi:rx="101.88934" sodipodi:ry="31.620829" style="filter:url(#filter4485);fill:#000300" sodipodi:type="arc" d="m466.23 98.819a101.89 31.621 0 1 1 -203.78 0 101.89 31.621 0 1 1 203.78 0z" transform="translate(-189.84 90.367)" sodipodi:cy="98.81852" sodipodi:cx="364.34222"></path><g id="g3453" transform="translate(-148.23 -4.4242)"><g id="g3447" transform="translate(70.199 -49.948)"><path id="path2226" sodipodi:rx="101.88934" sodipodi:ry="31.620829" style="fill:#00ffff" sodipodi:type="arc" d="m466.23 98.819a101.89 31.621 0 1 1 -203.78 0 101.89 31.621 0 1 1 203.78 0z" transform="translate(-111.81 144.74)" sodipodi:cy="98.81852" sodipodi:cx="364.34222"></path><path id="path2260" sodipodi:rx="82.565498" sodipodi:ry="19.323839" style="filter:url(#filter3297);fill:url(#linearGradient3443)" sodipodi:type="arc" d="m446.91 98.819a82.565 19.324 0 1 1 -165.13 0 82.565 19.324 0 1 1 165.13 0z" transform="translate(-111.81 132.44)" sodipodi:cy="98.81852" sodipodi:cx="364.34222"></path></g><a id="a2244" transform="translate(-61.64 86.251)"><path id="path2246" sodipodi:rx="82.565498" sodipodi:ry="19.323839" style="filter:url(#filter3297);fill:url(#linearGradient3445)" sodipodi:type="arc" d="m446.91 98.819a82.565 19.324 0 1 1 -165.13 0 82.565 19.324 0 1 1 165.13 0z" transform="matrix(1 0 0 -1 20.027 218.47)" sodipodi:cy="98.81852" sodipodi:cx="364.34222"></path></a></g></g><g id="g3434" transform="translate(-60.046 -93.372)"><g id="g3428"><g id="g3424" transform="translate(-10.905 25.899)"><path id="path3673" sodipodi:rx="101.88934" sodipodi:ry="31.620829" style="filter:url(#filter3420);fill:#000300" sodipodi:type="arc" d="m466.23 98.819a101.89 31.621 0 1 1 -203.78 0 101.89 31.621 0 1 1 203.78 0z" transform="translate(-28.076 16.122)" sodipodi:cy="98.81852" sodipodi:cx="364.34222"></path><path id="path3675" sodipodi:rx="101.88934" sodipodi:ry="31.620829" style="fill:#00ff00" sodipodi:type="arc" d="m466.23 98.819a101.89 31.621 0 1 1 -203.78 0 101.89 31.621 0 1 1 203.78 0z" transform="translate(-28.076 16.122)" sodipodi:cy="98.81852" sodipodi:cx="364.34222"></path></g><path id="path3685" sodipodi:rx="82.565498" sodipodi:ry="19.323839" style="filter:url(#filter3297);fill:url(#linearGradient3443)" sodipodi:type="arc" d="m446.91 98.819a82.565 19.324 0 1 1 -165.13 0 82.565 19.324 0 1 1 165.13 0z" transform="translate(-38.981 29.724)" sodipodi:cy="98.81852" sodipodi:cx="364.34222"></path></g><a id="a3695" transform="translate(-59.007 33.48)"><path id="path3697" sodipodi:rx="82.565498" sodipodi:ry="19.323839" style="filter:url(#filter3297);fill:url(#linearGradient3445)" sodipodi:type="arc" d="m446.91 98.819a82.565 19.324 0 1 1 -165.13 0 82.565 19.324 0 1 1 165.13 0z" transform="matrix(1 0 0 -1 20.027 218.47)" sodipodi:cy="98.81852" sodipodi:cx="364.34222"></path></a></g><g id="g4537" transform="translate(17.289 -6.5745)"><path id="path2274" sodipodi:rx="101.88934" sodipodi:ry="31.620829" style="filter:url(#filter4529);fill:#000300" sodipodi:type="arc" d="m466.23 98.819a101.89 31.621 0 1 1 -203.78 0 101.89 31.621 0 1 1 203.78 0z" transform="translate(-116.32 132.87)" sodipodi:cy="98.81852" sodipodi:cx="364.34222"></path><g id="g4506" transform="translate(28.268 -119.15)"><g id="g4502"><path id="path2228" sodipodi:rx="101.88934" sodipodi:ry="31.620829" style="fill:#ff0000" sodipodi:type="arc" d="m466.23 98.819a101.89 31.621 0 1 1 -203.78 0 101.89 31.621 0 1 1 203.78 0z" transform="translate(-144.58 252.02)" sodipodi:cy="98.81852" sodipodi:cx="364.34222"></path><path id="path2264" sodipodi:rx="82.565498" sodipodi:ry="19.323839" style="filter:url(#filter3297);fill:url(#linearGradient3443)" sodipodi:type="arc" d="m446.91 98.819a82.565 19.324 0 1 1 -165.13 0 82.565 19.324 0 1 1 165.13 0z" transform="translate(-144.58 239.73)" sodipodi:cy="98.81852" sodipodi:cx="364.34222"></path></g><a id="a2238" transform="translate(-164.61 243.48)"><path id="path2240" sodipodi:rx="82.565498" sodipodi:ry="19.323839" style="filter:url(#filter3297);fill:url(#linearGradient3445)" sodipodi:type="arc" d="m446.91 98.819a82.565 19.324 0 1 1 -165.13 0 82.565 19.324 0 1 1 165.13 0z" transform="matrix(1 0 0 -1 20.027 218.47)" sodipodi:cy="98.81852" sodipodi:cx="364.34222"></path></a></g></g><g id="g4577" transform="translate(130.39 -122.68)"><path id="path2276" sodipodi:rx="101.88934" sodipodi:ry="31.620829" style="filter:url(#filter4573);fill:#000300" sodipodi:type="arc" d="m466.23 98.819a101.89 31.621 0 1 1 -203.78 0 101.89 31.621 0 1 1 203.78 0z" transform="translate(-229.41 337.8)" sodipodi:cy="98.81852" sodipodi:cx="364.34222"></path><g id="g4550" transform="translate(-200.49 -12.534)"><g id="g4546"><path id="path2230" sodipodi:rx="101.88934" sodipodi:ry="31.620829" style="fill:#ffff00" sodipodi:type="arc" d="m466.23 98.819a101.89 31.621 0 1 1 -203.78 0 101.89 31.621 0 1 1 203.78 0z" transform="translate(-28.921 350.34)" sodipodi:cy="98.81852" sodipodi:cx="364.34222"></path><path id="path2268" sodipodi:rx="82.565498" sodipodi:ry="19.323839" style="filter:url(#filter3297);fill:url(#linearGradient3443)" sodipodi:type="arc" d="m446.91 98.819a82.565 19.324 0 1 1 -165.13 0 82.565 19.324 0 1 1 165.13 0z" transform="translate(-28.921 338.04)" sodipodi:cy="98.81852" sodipodi:cx="364.34222"></path></g><a id="a2232" transform="translate(-48.948 341.8)"><path id="path2234" sodipodi:rx="82.565498" sodipodi:ry="19.323839" style="filter:url(#filter3297);fill:url(#linearGradient3445)" sodipodi:type="arc" d="m446.91 98.819a82.565 19.324 0 1 1 -165.13 0 82.565 19.324 0 1 1 165.13 0z" transform="matrix(1 0 0 -1 20.027 218.47)" sodipodi:cy="98.81852" sodipodi:cx="364.34222"></path></a></g></g></g><metadata></metadata></svg> 