<?xml version="1.0" encoding="UTF-8" standalone="no"?> <!-- Generator: Adobe Illustrator 13.0.2, SVG Export Plug-In . SVG Version: 6.00 Build 14948) --> <svg xmlns:rdf="http://www.w3.org/1999/02/22-rdf-syntax-ns#" xmlns="http://www.w3.org/2000/svg" xmlns:cc="http://web.resource.org/cc/" xmlns:xlink="http://www.w3.org/1999/xlink" xmlns:dc="http://purl.org/dc/elements/1.1/" xmlns:svg="http://www.w3.org/2000/svg" xmlns:inkscape="http://www.inkscape.org/namespaces/inkscape" xmlns:sodipodi="http://sodipodi.sourceforge.net/DTD/sodipodi-0.dtd" xmlns:ns1="http://sozi.baierouge.fr" id="professor_earth_xA0_Image_1_" style="enable-background:new 0 0 247.546 274.891" xml:space="preserve" viewBox="0 0 247.546 274.891" y="0px" x="0px"> <g> <path style="clip-rule:evenodd;fill-rule:evenodd" d="m22.244 60.076c-0.924 12.812 2.737 24.513 0 31.655-5.864-4.724-5.408-23.808-2.566-31.655h2.566z"></path> <path style="clip-rule:evenodd;fill-rule:evenodd" d="m135.18 184.99c2.079 1.936 0.372 15.578 0 21.39-2.66-6.38 0.91-13.91 0-21.39z"></path> <path style="clip-rule:evenodd;fill-rule:evenodd" d="m207.9 227.76c-0.104 2.177-1.245 3.317-3.423 3.422 1.28-1 1-3.55 3.42-3.42z"></path> <path style="clip-rule:evenodd;fill-rule:evenodd" d="m177.1 0.187c-0.302 3.406-5.126 2.289-6.845 4.278-14.638 10.744-32.033 18.729-45.344 30.8 11.418 1.129 20.619 4.478 26.522 11.122 15.025 1.8 26.441 7.21 38.5 11.978 0.011 1.7 2.334 1.088 1.711 3.422 9.905 3.026 19.071 12.546 27.378 20.533 6.294 6.053 13.218 17.851 17.967 28.233 4.063 8.884 8.862 19.696 10.267 29.089 0.789 5.279-0.4 11.793 0 17.111 2.854 37.93-15.69 68.388-37.645 88.977-8.569 8.037-19.674 15.505-32.511 19.678-22.087 7.18-38.968 12.373-65.022 7.7-7.276-1.305-14.981-4.037-22.244-6.844-9.117-3.523-16.836-7.739-23.1-12.834-3.177-2.583-8.929-5.711-11.978-8.556-11.93-11.128-23.241-28.378-29.944-47.055-5.771-16.079-8.812-42.051-4.278-62.456 1.164-5.238 3.845-11.592 5.989-17.111 4.07-10.479 10.039-20.476 17.111-29.089 8.383-10.21 16.471-19.327 29.089-25.667-0.305-5.438 2.732-7.535 3.422-11.978-18.109 0.516-40.014 9.574-58.178 7.7-7.253 12.369 3.931 30.03-0.855 41.922-3.3 0.164-0.912-5.362-2.566-6.844-2.387 3.602 1.527 10.604-2.567 13.689-6.062-5.631-0.842-22.543-5.133-29.944-0.589 4.54 3.004 17.663-0.855 23.1-6.553-9.144-4.982-26.4-6.003-41.064 7.835-8.829 20.525-16.017 34.222-19.678 9.802-2.62 18.06-2.584 25.667-5.133 7.514-2.518 11.963-7.106 18.822-11.122 4.041-2.366 9.978-1.506 16.256-3.422 13.432-4.1 27.664-6.944 41.066-11.122 13.54-4.222 26.78-10.791 41.07-9.412zm11.12 71.011c2.947-3.614-4.364-7.894-6.845-5.989 3.17 1.103 2.75 5.799 6.84 5.989zm-7.7-7.7c-6.802-2.932-23.4-13.121-29.944-5.133 1.504 0.492 5.026-1.034 5.133 0.855-2.054 3.079-6.172 4.094-8.555 6.844 8.544 7.997 13.681 19.4 17.966 31.656 10.972-1.862 17.654-8.013 16.256-22.245 2.252-1.604 2.882 2.24 5.133-0.855 0.58-6.295-5.85-5.565-6-11.122zm-74.43-23.956c4.587-0.451 10.282-4.955 14.544-7.7 11.434-7.363 22.533-16.304 33.366-22.244-0.097-1.044-0.256-2.025-1.711-1.711-18.973 5.975-39.762 12.559-58.178 17.111-7.022 1.736-12.976 2.664-17.966 5.133-2.091 1.035-6.261 2.326-5.989 5.133 2.127-0.767 7.735-2.474 9.411-0.855-3.776 7.13-13.542 5.588-21.389 6.844-10.796 1.729-21.219 6.37-26.522 11.978 24.752-5.35 48.805-11.172 74.433-13.689zm13.69 34.223c-6.891-3.814-18.554-7.324-28.233-8.556-3.17-0.403-8.382-1.895-10.267 0.855 2.196 4.406 11.755 2.879 17.967 4.278 8.229 1.854 15.324 6.282 19.678 10.267 5.535-2.868 8.948-8.295 13.688-11.978 3.779-2.936 9.616-4.177 11.122-9.411-11.55-2.135-16.53 9.698-23.95 14.545zm-112.94 0c0.346-3.235 2.643-11.151-0.855-12.833 0.554 4.008-1.119 10.244 0.855 12.833zm137.75-0.856c-2.255-0.597-1.809-3.895-4.277-4.278-3.546 3.131-8.875 4.266-10.267 10.267-1.922 8.287 2.264 21.683 2.566 29.944 11.96-1.444 20.475-6.333 30.8-9.411-4.469-12.072-9.441-23.64-17.967-31.655-0.188-0.667-0.716-0.995-1.711-0.856-2.78 1.956 3.57 4.324 0.86 5.991zm42.78 2.567c-2.401 2.732-3.557 6.71-4.278 11.122 3.773-1.36 5.208-5.059 7.7-7.7-0.11-2.177-1.25-3.318-3.42-3.422zm8.55-1.711c1.599-1.105-2.414-3.803-5.133-3.422-2.195 2.661-1.271 3.986 0 6.844 2.78-0.069 4.61-1.095 5.13-3.422zm-2.57 4.277c12.201 16.032 20.715 35.751 26.522 58.177 4.773-5.778 8.229-12.874 11.978-19.678-8.512-16.87-18.714-32.048-34.222-41.922-1.93 0.633-1.87 3.263-4.28 3.424zm-124.05-3.422c-11.667 9.812-21.432 20.182-28.233 32.511-7.212 13.074-12.767 29.242-13.689 47.055 3.052 1.227 7.083 1.473 10.267 2.567 0.79-7.69 4.779-15.702-0.855-20.534 3.004-0.501 2.814 4.044 5.133 1.711 2.883-15.369 7.652-28.852 16.255-38.5 1.129-2.142-3.382-2.678-0.855-3.422 1.094 0.047 1.185 1.097 2.567 0.855 2.993-4.132 4.538-8.93 7.7-12.833 3.359-4.147 9.226-6.415 11.122-11.978-4.056-0.616-7.994 1.375-9.412 2.568zm15.4-1.711c-11.613 5.213-17.618 16.034-23.956 26.522 7.052 5.496 17.875 7.221 28.233 9.411 2.82-12.009 8.697-20.962 11.978-32.511-5.66-0.902-10.856-2.266-16.26-3.42zm6.844 35.931c11.278 1.375 27.304 4.824 38.5 0.855-1.104-9.163-2.089-18.444-1.711-29.089-3.882-0.46-2.284 4.56-5.989 4.278-10.714 1.874-11.181-6.5-19.678-6.844-2.927 11.038-8.49 19.449-11.116 30.795zm101.81-27.376h-2.566c-5.896 8.078-12.71 15.238-23.956 17.967 3.647 11.468 7.372 22.858 10.268 35.078 4.492 0.812 12.137-3.479 14.544 0.855-4.613 1.946-8.313 4.805-12.833 6.844-0.576 4.283 0.792 6.623 0.855 10.267 14.416-3.265 26.149-9.213 36.788-16.255-3.27-22.68-13.43-38.467-23.1-54.756zm-134.32 19.676c-7.886 10.366-11.572 24.932-15.4 39.355 10.142 6.113 22.836 9.675 36.789 11.978 2.409-14.132 4.016-29.065 7.7-41.922-10.281-2.56-21.409-4.26-29.089-9.42zm73.577 10.27c2.147 15.249 1.812 32.981 4.278 47.911h5.988c-0.317-6.45-1.292-13.659 0-19.678 0.259-1.204 2.235-2.207 2.566-3.422 1.251-4.583-0.518-9.6 5.134-7.7-3.007 4.929-3.29 11.27-2.566 17.967 12.107 7.287 21.944-4.608 27.377-11.978-2.005-5.222-3.358-11.449-5.133-17.111-1.751-5.585-2.853-11.943-6.845-15.4-10.57 2.84-19.62 7.19-30.81 9.41zm-41.922 0c-1.577 4.127-2.472 8.936-3.422 13.689 10.87 0.537 17.56 5.255 20.533 13.689 6.462 2.519 12.344 8.737 21.389 5.988 3.511-9.089 2.583-22.091 0.855-32.511-9.81 2.48-29.66-0.74-39.352-0.86zm128.33 28.23c2.632 3.928 1.034 12.084 2.566 17.111 6.611-3.94 11.537-9.567 18.822-12.834-3.251-7.301-3.625-17.479-8.556-23.1-3.62 6.93-6.88 14.22-12.83 18.82zm-132.61-10.26c-1.455 7.188-3.863 17.692-3.422 23.955 10.571 4.28 15.092-4.081 22.245-5.988-5.127-5.14-8.485-12.049-12.833-17.967h-5.986zm94.969 23.95v13.689c4.287 3.697 11.216 4.755 15.4 8.556 1.097-2.041 1.638-4.637 4.277-5.134 2.634-0.638 1.645 2.349 4.277 1.711 4.408-5.003 9.65-9.172 14.545-13.688 0.592-6.866-1.954-10.594-1.711-17.111-3.401-0.507-4.223 5.987-6.845 3.422 1.47-1.984 7.097-4.266 5.133-6.844-9.4 7.42-21.01 12.62-35.07 15.39zm-140.31 5.13c14.225 2.225 21.241 7.68 35.078 11.122 2.594-1.685 4.235-4.32 3.422-9.411-1.28-0.146-3.158 0.306-3.422-0.855 2.364-0.488 4.798-0.906 4.278-4.278-13.112-3.428-26.435-6.646-37.645-11.978-1.485 4.22-1.926 9.48-1.711 15.4zm92.404 0c1.197-2.258 1.581-9.783 0-11.978-0.71 2.88-3.72 10.09 0 11.98zm41.92-10.26h1.712v-1.711h-1.712v1.71zm-61.6 0.85c-7.101-0.027-14.463 2.03-15.4 6.845-0.012 0.062 2.227 0.126 1.711 0.855-0.646 0.913-4.94-0.387-3.422 1.711 3.98 3.435 10.97 3.859 17.111 5.133 1.857-4.939-7.021-5.928-11.978-6.844 4.319 0.611 7.415 0 7.7-3.423 4.021 0.256 3.033 5.522 8.555 4.278-0.77-5.26-1.81-4.99-4.27-8.57zm53.04 5.99c4.241 0.533 4.532-2.882 9.411-1.711-0.29-8.59-7.15-0.28-9.41 1.71zm54.76 7.7c1.826 7.868 1.711 15.301 0 23.101 3.234 0.259 6.526-3.483 9.411-5.989 3.268-2.839 6.45-6.099 9.411-8.556-0.284-9.117 2.851-17.175-1.711-22.244-6.1 4.17-11.89 8.64-17.11 13.69zm-94.97-5.13c1.176-1.098 1.489-5.116-0.855-5.134-1.4 1.32-0.36 3.99 0.86 5.13zm-45.343-1.71c-0.476 4.275 6.036 1.916 6.844 0-1.244-1.26-5.599-1.26-6.844 0zm91.543 4.28c3.044 0.192 5.127-0.577 5.989-2.566-0.997-0.145-0.93-1.353-0.855-2.567-3.88-0.45-5.59 1.26-5.14 5.14zm-11.12 3.42c1.773 2.505 5.553 3.003 10.267 2.567-0.41-4.438-2.327-7.369-5.134-9.411-3.26 0.73-4.64 3.35-5.14 6.84zm-130.04 24.81c0.594 9.673 4.152 16.381 8.556 22.244 0.05-10.31-0.184-20.35-8.556-22.24zm6.845 2.57c0.557-10.823-1.471-19.062-0.855-29.944-4.063 0.038-8.424-3.114-11.122-1.711 3.136 10.05-1.836 30.1 11.977 31.65zm41.922-26.53c6.141-1.171 10.411-3.281 15.4-1.711-1.303-6.3-14.876-4.83-15.4 1.71zm37.648-4.27c0.414 3.222 0.248 3.622 1.711 6.845-3.688 0.887-7.475-3.493-8.556 0 2.78 2.354 7.442 2.824 7.7 7.699 3.504 0.368 5.481-0.792 7.7-1.711v-12.833c-2.39-2.22-5.88-1.65-8.55 0zm26.52 0c0 6.336-0.755 9.819 0 15.4 2.757 0.38 4.635 1.639 7.7 1.711 1.821-1.727 1.619-4.334 5.134-5.989 2.083-0.483 4.4-0.732 4.277-3.422-1.618-1.697-4.042-0.416-5.989 0-2.16-4.31-4.28-10.61-11.12-7.7zm-16.26 11.97c1.142 1.425 4.847 0.286 5.989 1.711 1.844-0.723-0.32-5.453 1.711-5.988v5.133h4.278c-1.031-5.879 1.055-8.641 2.566-11.978-4.465 0.365-7.22 1.994-12.833-0.855-1.49 3.09-1.99 7.16-1.72 11.99zm-86.408 20.54c9.708 4.836 21.026 8.062 32.511 11.122 0.367-5.337 1.192-10.215 2.566-14.544-3.637-5.774-5.706-13.116-10.267-17.967-8.558-3.135-17.379-6.005-26.522-8.556 1.596 8.96-0.174 21.28 1.712 29.95zm136.89-26.53c1.37-2.383-3.695-2.366-3.423-0.856 1.15 0.28 1.63 1.23 3.42 0.86zm22.25 16.26c-0.413 2.695 2.626 1.938 1.711 5.134-2.958 5.048-5.462 9.74-10.267 12.833-1.771 1.141-4.918 0.28-5.133 3.422 12.177-0.658 21.489-11.589 33.366-15.399v-23.956c-8.37 4.2-14.5 10.62-19.68 17.98zm-98.39 6.84c7.148-2.097 11.891-9.791 9.411-18.822-11.321-7.323-35.276-7.579-33.367 11.978 4.048 4.25 8.623 9.157 15.4 8.556 4.018-0.356 6.821-5.312 11.123-5.133 0.25 2.24-3.33 0.67-2.57 3.41zm55.61-11.12c1.598 6.102 4.641 10.759 6.844 16.255 3.034 3.241 11.066 1.482 14.545 4.278 5.597-3.503 18.435-7.294 16.255-17.111-1.15-5.183-7.551-5.869-12.833-8.556-0.411 6.455 2.98 17.083 0 20.533 0.222-7.922-1.933-13.467-1.711-21.389-8.15-1.59-20.52-0.76-23.1 5.99zm52.19 54.76c0.68 3.361 2.522-1.663 3.422-2.566 12.528-12.581 22.018-33.556 26.522-54.755-3.083-0.077-6.411 3.441-9.411 5.988-3.125 2.653-5.773 6.205-9.411 7.7-0.53 17.72-3.77 32.73-11.12 43.63zm-85.56-36.79c-4.269-4.265 1.341-9.637 0.855-15.4-1.521-1.598-2.174 0.695-5.133 0-0.02 2.016 1.474 2.519 0.855 5.134-3.81 1.323-6.773 3.493-8.556 6.844 7.754 5.079 11.598 14.068 20.533 17.967 1.186-0.525 0.129-3.294 1.711-3.422-0.731 2.727 0.745 3.247 1.711 4.277 11.188-0.788 9.848-14.107 20.533-15.399-1.458-5.388-5.736-7.953-9.411-11.123 0.367-1.343 2.69-0.73 1.711-3.422-1.599-0.683-3.134-1.43-5.134-1.711 0.547 8.372 4.219 19.714-2.566 23.955 2.852-8.414 0.082-15.771-0.855-24.811-0.664-0.191-1.688-0.023-1.711-0.855-3.188-0.906-2.762 1.801-4.278 2.566 1.217-4.354-4.308-1.966-6.845-2.566-2.16 4.92 1.1 15.31-3.39 17.95zm-48.766 8.55c5.425 0.564 9.051 2.928 15.4 2.567-0.61-4.318 1.169-6.246 1.711-9.411-5.309-0.158-9.691 5.115-14.544 2.566 2.9-2.519 8.373-2.465 11.123-5.134-4.32-1.383-7.497-3.91-11.978-5.133-0.166 5.24-2.126 8.7-1.712 14.53zm107.8 0c-3.422-1.628-3.873-1.142-7.7-1.711v4.278c3.45 0.03 6.6-0.25 7.7-2.57zm22.25 33.37c9.133-11.458 11.145-27.582 13.689-46.2-9.933 5.183-20.161 10.069-31.655 13.688-2.582 1.61 3.257 3.961 0.855 5.134-2.09-0.477-1.823-3.311-5.134-2.566-0.854 4.849 2.151 13.559-2.566 14.544-0.095-5.798 2.597-8.811 1.711-15.399-2.641 0.21-4.836 0.867-6.845 1.711-1.103 2.319-2.093 4.751-1.711 8.556-2.361 0.581-1.952 0.154-3.422 2.566 0.301 7.94 0.974 17.753-1.711 24.811-4.212-1.274-3.398-5.815-2.567-10.267-5.44-8.036-14.241-15.324-26.521-17.11-23.063-3.355-41.321 10.445-44.489 23.1-6.053 1.29-8.403-11.146-4.278-14.544 0.138 3.049-1.731 11.552 2.566 12.833-0.323-8.69-2.93-17.98-3.422-29.944-5.48 0.088-10.583-2.912-14.544-1.711-0.935 12.192-0.814 21.454 0 35.077 14.692 4.986 31.953 7.403 49.622 9.411 0.272-7.428 4.005-11.395 4.278-18.822-7.789-0.374-8.807 6.022-16.256 5.989-0.573-5.415 3.749-5.711 6.845-7.7 3.597-2.312 6.216-6.111 7.7-6.845 3.811-1.882 4.562-0.611 6.845 0 3.775 1.011 5.484-0.247 7.7 0.855 1.646 5.21 10.971 7.268 9.411 12.834-6.338-2.503-11.059-6.623-20.533-5.989-1.2 6.786-3.309 12.661-4.278 19.678 17.18 2.081 39.656 1.012 53.9-0.855-13.902 5.771-39.286 4.257-54.755 3.422-1.745 1.678-0.083 6.762-3.422 6.845-0.276-3.143 2.439-5.865 0.855-7.7-16.956-1.581-32.145-4.929-47.055-8.556-0.452 3.59 1.495 4.78 1.711 7.7 10.401 5.763 25.235 12.311 41.067 14.545 28.006 3.952 54.911-2.867 70.155-16.256-8.63 1.072-16.868 7.08-24.812 5.989 16.32-4.92 31.96-7.36 41.08-18.8zm-131.76 3.42c-2.44-11.108-1.494-23.589 0-35.077-11.336-3.494-22.188-7.472-33.367-11.123-0.284 26.81 11.501 41.55 33.367 46.2zm21.389-43.63v10.267c6.82 1.543 17.877 3.101 23.956 2.566-1.66-10.35-12.87-19.83-23.958-12.84zm60.748 6.84c1.118 2.911-1.906 5.971 0 6.845 2.899-1.377 6.802-1.753 11.122-1.711 0.115-3.589-1.556-4.779 0-7.7-1.384-1.468-3.579-2.125-6.845-1.711 0.75 3.6-2.84 2.87-4.27 4.28zm17.11 3.43v-5.134h-2.566c0.02 2.54-0.08 5.21 2.57 5.13zm-77.858 16.25c7.583-3.824 14.84-7.975 22.244-11.978-6.989-1.281-16.088-0.452-22.244-2.566-0.758 6-0.129 8.13-0.004 14.55zm55.608-10.26c0.437 2.701 3.907 2.367 5.989 3.423 4.171 3.528 6.377 9.022 10.267 12.833 0.264-8.046 0.074-11.293 0-19.678-4.44 1.86-13.62 0.01-16.26 3.43zm-75.286 35.93c-0.273-2.009-1.352-3.212-0.855-5.989-3.924-2.064-9.109-2.869-12.833-5.133 2.642 5.62 7.591 8.95 13.688 11.12z"></path> </g> <metadata></metadata></svg> 