<?xml version="1.0" encoding="UTF-8" standalone="no"?> <!-- Generator: Adobe Illustrator 13.0.2, SVG Export Plug-In . SVG Version: 6.00 Build 14948) --> <svg xmlns:rdf="http://www.w3.org/1999/02/22-rdf-syntax-ns#" xmlns="http://www.w3.org/2000/svg" xmlns:cc="http://web.resource.org/cc/" xmlns:xlink="http://www.w3.org/1999/xlink" xmlns:dc="http://purl.org/dc/elements/1.1/" xmlns:svg="http://www.w3.org/2000/svg" xmlns:inkscape="http://www.inkscape.org/namespaces/inkscape" xmlns:sodipodi="http://sodipodi.sourceforge.net/DTD/sodipodi-0.dtd" xmlns:ns1="http://sozi.baierouge.fr" id="Layer_1" style="enable-background:new 0 0 80.287 369.406" xml:space="preserve" viewBox="0 0 80.287 369.406" y="0px" x="0px"> <path style="clip-rule:evenodd;fill-rule:evenodd" d="m24.692 110.01c0.968-0.158 1.304 0.314 1.887 0.54-0.033 2.019-0.73 1.935-2.157 1.617-0.048-1.22-0.331-1.35 0.27-2.16z"></path> <path style="clip-rule:evenodd;fill-rule:evenodd" d="m20.378 113.51c0.911-0.664 1.273-1.9 2.697-1.348-0.006 0.635 0.463 0.794 0.268 1.618-0.538 0.8-2.754 0.8-2.965-0.27z"></path> <path style="clip-rule:evenodd;fill-rule:evenodd" d="m44.645 112.7c0.155 1.056-0.232 1.565-0.54 2.157-1.156 0.079-0.887-1.27-1.887-1.348 0.39-0.65 1.422-1.61 2.427-0.81z"></path> <path style="clip-rule:evenodd;fill-rule:evenodd" d="m45.184 115.67c-0.16-0.558 0.334-1.771-0.27-1.887 2.636-2.4 3.361 3.42 0.27 1.89z"></path> <path style="clip-rule:evenodd;fill-rule:evenodd" d="m25.77 113.51c0.443 0.921 0.316 2.323-0.268 2.965-1.246-0.14-1.455 0.079-1.889-1.077 0.326-1.02 1.039-1.66 2.157-1.89z"></path> <path style="clip-rule:evenodd;fill-rule:evenodd" d="m40.331 113.51c0.612 1.414 0.268 3.497-1.887 2.965-0.38-1.18 0.076-3.15 1.887-2.97z"></path> <path style="clip-rule:evenodd;fill-rule:evenodd" d="m20.378 115.94h-1.887v-1.618c1.376-0.21 2.227 0.11 1.887 1.62z"></path> <path style="clip-rule:evenodd;fill-rule:evenodd" d="m41.678 115.67c0.665-0.035 1.299-0.041 1.619 0.27v1.349c-0.551 0.15-0.528 0.811-1.079 0.27 0.27 1.167-0.301 1.497-0.54 2.157-0.83 0.202-0.327-0.931-1.347-0.54-0.042-1.66 1.459-1.78 1.347-3.51z"></path> <path style="clip-rule:evenodd;fill-rule:evenodd" d="m17.951 116.48c-0.215 0.505-0.45 0.989-0.54 1.619-0.983 0.175-1.435-0.181-1.887-0.539 0.108-1.35 1.466-2.08 2.427-1.08z"></path> <path style="clip-rule:evenodd;fill-rule:evenodd" d="m22.265 116.75c0.83-0.201 0.518 0.741 1.347 0.54v1.617c-1.483 0.137-2.613-0.083-2.427-1.617 0.688-0.47 1.047 0.41 1.08-0.54z"></path> <path style="clip-rule:evenodd;fill-rule:evenodd" d="m38.713 116.75c-0.044 0.314 0.059 0.48 0.27 0.54-0.14 1.208-0.963 1.733-1.619 2.427-0.645 0.106 0.149-1.229-0.808-0.81 0.189-1.25 0.424-2.45 2.157-2.16z"></path> <path style="clip-rule:evenodd;fill-rule:evenodd" d="m27.926 117.02c0.213 1.56-0.261 2.435-1.887 2.157-0.193-1.55 0.158-2.54 1.887-2.16z"></path> <path style="clip-rule:evenodd;fill-rule:evenodd" d="m12.288 118.1h2.157c0.156 0.563 0.669 0.769 0.54 1.618-1.363-0.02-1.542 0.341-2.697 0-0.301-0.85-0.024-0.62 0-1.62z"></path> <path style="clip-rule:evenodd;fill-rule:evenodd" d="m44.645 118.64c0.111-0.92 1.479 0.407 1.347-0.27 0.9 1.004-0.695 1.808-0.537 2.966h-1.619c-0.615-1.62 1.231-2.17 0.809-2.7z"></path> <path style="clip-rule:evenodd;fill-rule:evenodd" d="m25.77 119.45c0.643 0.923-0.606 2.261-1.617 2.427-0.38-0.963-0.983-0.901-0.54-2.157 0.906-0.49 1.863-0.48 2.157-0.27z"></path> <path style="clip-rule:evenodd;fill-rule:evenodd" d="m19.029 119.72c1.435 0.094 1.167 1.983 0.27 2.427-0.906 0.188-0.884-0.555-1.347-0.81-0.163-1.07 0.796-1.01 1.077-1.62z"></path> <path style="clip-rule:evenodd;fill-rule:evenodd" d="m29.276 119.99c-0.11 0.649 0.491 0.585 0.27 1.347 0.875-0.742 1.643 0.353 2.157 0.81-0.11 0.519-1.047 0.213-0.81 1.077h-1.078c-0.375-0.344-0.167-1.272-0.54-1.617-0.169 0.46-0.814 0.443-1.08 0.809-0.696-0.023-0.283-1.154-1.347-0.809 0.006-0.262 0.329-0.209 0.54-0.27 0.532-0.55 0.551-1.61 1.888-1.35z"></path> <path style="clip-rule:evenodd;fill-rule:evenodd" d="m9.324 120.25c0.98 0.006 1.286 0.691 1.887 1.079-0.116 0.423-0.849 0.23-0.54 1.078h-1.617c0.129-0.849-0.827-0.61-0.54-1.617 0.542 0.09 0.842-0.05 0.81-0.54z"></path> <path style="clip-rule:evenodd;fill-rule:evenodd" d="m36.824 120.79c-0.044 0.313 0.061 0.479 0.27 0.539-0.022 1.145-0.636 1.7-1.887 1.618-0.887-1.17-0.16-3.08 1.617-2.16z"></path> <path style="clip-rule:evenodd;fill-rule:evenodd" d="m15.794 122.41c1.018-0.389 0.518 0.741 1.347 0.54 0.07 1.058-0.261 1.715-0.808 2.157-1.493 0.06-1.168-2.05-0.539-2.7z"></path> <path style="clip-rule:evenodd;fill-rule:evenodd" d="m39.791 122.95c-0.053 1.294-0.952 1.744-2.427 1.617-0.957-2.09 0.915-2.45 2.427-1.62z"></path> <path style="clip-rule:evenodd;fill-rule:evenodd" d="m7.437 122.95c0.215 0.503 0.45 0.987 0.538 1.617-0.777 0.493-0.843 0.438-1.887 0.27 0.007-0.635-0.465-0.793-0.27-1.619 0.317-0.31 0.953-0.3 1.619-0.27z"></path> <path style="clip-rule:evenodd;fill-rule:evenodd" d="m19.568 123.22h1.617c0.141 0.399 0.399 0.68 0.54 1.08-0.384 1.379-1.104 1.4-2.157 1.079-0.412-0.86-0.094-1.19 0-2.16z"></path> <path style="clip-rule:evenodd;fill-rule:evenodd" d="m27.389 123.76c0.013 0.823-0.972 0.647-0.81 1.618h-1.347c0.195-0.825-0.465-0.793-0.27-1.618 0.737-0.65 1.689-0.65 2.427 0z"></path> <path style="clip-rule:evenodd;fill-rule:evenodd" d="m33.05 124.03c1.066-0.349 0.551 0.887 1.617 0.539v1.618c-0.79 0.4-1-0.305-1.347 0.54-0.428-0.741-1.554-0.785-1.347-2.158 0.476-0.06 1.349 0.27 1.077-0.54z"></path> <path style="clip-rule:evenodd;fill-rule:evenodd" d="m47.341 124.03c1.314 0.07 1.2 0.173 2.157 0.809-0.318 1.031-1.075 1.623-1.617 2.427-1.205-0.48-0.656-2-0.54-3.24z"></path> <path style="clip-rule:evenodd;fill-rule:evenodd" d="m53.272 124.3c0.273 0.175 0.278 0.62 0.81 0.539 0.006 0.635-0.466 0.794-0.271 1.618-1.062 0.21-0.825 0.21-1.887 0v-1.618c0.163-0.47 1.28 0.02 1.348-0.54z"></path> <path style="clip-rule:evenodd;fill-rule:evenodd" d="m27.389 125.65h1.347c0.437 0.87 0.029 1.594-0.54 2.157-1.003 0.01-0.777-1.21-0.807-2.16z"></path> <path style="clip-rule:evenodd;fill-rule:evenodd" d="m44.914 126.19c0.107 1.185-0.331 1.826-1.35 1.887-0.107-0.701-0.803-0.813-0.808-1.617 0.56-0.84 1.345-1 2.158-0.27z"></path> <path style="clip-rule:evenodd;fill-rule:evenodd" d="m7.167 126.46c0.875-0.157 1.253 0.183 1.887 0.27v1.347c-0.474-0.387-0.614-0.247-0.54 0.54h-1.347c-0.312-0.76-0.312-1.41 0-2.16z"></path> <path style="clip-rule:evenodd;fill-rule:evenodd" d="m38.173 127c0.715 0.003 1.541-0.102 1.887 0.27 0.105 1.095-0.099 1.878-1.078 1.887-0.052-0.306-0.272-0.149-0.27 0-0.567-0.57-0.975-1.3-0.539-2.16z"></path> <path style="clip-rule:evenodd;fill-rule:evenodd" d="m46.531 128.07c0.538 0.272 0.943 0.673 1.35 1.078 0.158 0.968-0.313 1.305-0.54 1.888-0.88 0.463-1.297-1.292-1.35 0-0.897-1 0.698-1.81 0.54-2.97z"></path> <path style="clip-rule:evenodd;fill-rule:evenodd" d="m52.465 131.31c-0.966-0.203-1.714-0.623-1.89-1.617 0.984-2.02 3.106-0.5 1.89 1.62z"></path> <path style="clip-rule:evenodd;fill-rule:evenodd" d="m24.692 128.88c1.135-0.326 1.183 0.435 1.887 0.539 0.103 0.912-0.467 1.151-0.81 1.618-1.018 0.39-0.516-0.742-1.347-0.54-0.195-0.82 0.277-0.98 0.27-1.62z"></path> <path style="clip-rule:evenodd;fill-rule:evenodd" d="m14.445 130.5c-0.557 0.803-2.894 1.29-2.694-1.079 1.393-0.27 2.323-0.22 2.694 1.08z"></path> <path style="clip-rule:evenodd;fill-rule:evenodd" d="m44.645 129.69v1.617c-0.314-0.044-0.48 0.06-0.54 0.27-1.198 0.119-1.468-0.689-1.348-1.887 0.36-0.38 1.527-0.38 1.888 0z"></path> <path style="clip-rule:evenodd;fill-rule:evenodd" d="m8.784 129.69c0.524 0.463 0.582 1.396 0.54 2.427-0.926 1.268-3.241-1.071-1.35-2.427 0.461-0.05 0.7 0.46 0.81 0z"></path> <path style="clip-rule:evenodd;fill-rule:evenodd" d="m36.017 131.04c-0.75 0.126-0.755 0.132-1.08 1.079h-1.347c-1.242-2.21 2.005-2.97 2.427-1.08z"></path> <path style="clip-rule:evenodd;fill-rule:evenodd" d="m17.682 130.23c-0.268 1.075 0.805 0.812 0.54 1.888-0.276 0.263-0.546 0.532-0.81 0.809-0.762 0.043-0.627-0.81-1.347-0.809-0.034-1.2 0.229-2.11 1.617-1.89z"></path> <path style="clip-rule:evenodd;fill-rule:evenodd" d="m46.801 132.66c0.628 1.304 0.016 2.851-1.887 2.427 0.195-0.825-0.465-0.793-0.27-1.617 0.793-0.2 1.032-0.95 2.157-0.81z"></path> <path style="clip-rule:evenodd;fill-rule:evenodd" d="m9.861 132.93c0.039 0.951 0.772 1.206 0.81 2.157-0.458-0.099-0.509 0.211-0.54 0.54-1.002 0.015-0.671-1.306-1.887-1.08-0.134-1.22 0.278-1.88 1.617-1.62z"></path> <path style="clip-rule:evenodd;fill-rule:evenodd" d="m33.05 134.81c-0.502 0.037-0.902 0.178-1.077 0.54-0.433-0.647-1.584-0.573-1.35-1.887 0.86-0.82 2.581-0.31 2.427 1.35z"></path> <path style="clip-rule:evenodd;fill-rule:evenodd" d="m43.564 133.47c0.195 0.823-0.274 0.982-0.268 1.617h-1.619c-0.949-1.52 0.826-2.86 1.887-1.62z"></path> <path style="clip-rule:evenodd;fill-rule:evenodd" d="m13.368 133.2c0.599 0.209 1.051 0.566 1.887 0.539 0.29 1.547-0.702 1.814-2.157 1.618-0.367-0.8-0.338-1.68 0.27-2.16z"></path> <path style="clip-rule:evenodd;fill-rule:evenodd" d="m49.498 133.2c0.274 0.174 0.278 0.62 0.808 0.539 0.192 1-0.459 1.157-0.268 2.157h-2.157c-0.424-0.851 0.146-1.184 0.268-2.157 0.64-0.56 1.257 0.55 1.349-0.54z"></path> <path style="clip-rule:evenodd;fill-rule:evenodd" d="m24.962 133.47c1.014 1.266-0.127 1.522-1.08 2.157-1.474-0.53-1.224-2.7 1.08-2.16z"></path> <path style="clip-rule:evenodd;fill-rule:evenodd" d="m37.364 133.47c0.959 0.563 0.279 2.709-0.808 2.696-0.855-0.01-0.911-1.44-1.08-0.27-0.583 0.046-0.123-0.956-0.27-1.348 0.696 0.45 1.535-1.39 2.158-1.08z"></path> <path style="clip-rule:evenodd;fill-rule:evenodd" d="m17.412 134.28c0.717 0.002 1.54-0.102 1.887 0.269 0.139 1.127-0.149 1.828-0.537 2.427-0.971-0.39-1.539-1.17-1.35-2.7z"></path> <path style="clip-rule:evenodd;fill-rule:evenodd" d="m44.104 135.89h0.81c0.215 0.504 0.45 0.988 0.54 1.619-0.635 0.084-0.16 1.278-1.08 1.078-0.059 0.868 0.477 1.141 0.271 2.157-0.854 0.787-1.497 0.405-2.427 0.27v-1.618c1.014 0.226 0.954-1.207 1.617-0.539-0.551-1.56-0.279-1.58 0.269-2.97z"></path> <path style="clip-rule:evenodd;fill-rule:evenodd" d="m14.985 136.7c0.761-0.042 0.676 0.763 1.08 1.08 0.042 0.67-0.424 0.834-0.54 1.348-0.555-0.535-0.254-0.535-0.81 0-0.654-0.333-1.429-0.546-1.347-1.617 0.895 0.09 1.018-0.6 1.617-0.81z"></path> <path style="clip-rule:evenodd;fill-rule:evenodd" d="m40.331 136.7c0.761-0.222 0.698 0.381 1.347 0.27 0.02 0.917 0.083 1.882-0.538 2.157-1.021 0.39-0.518-0.741-1.35-0.539-0.026-0.84 0.33-1.29 0.541-1.89z"></path> <path style="clip-rule:evenodd;fill-rule:evenodd" d="m10.131 136.97h1.35c0.055 1.174 0.551 2.205 0 3.236-1.521 0.01-1.932-1.49-1.35-3.24z"></path> <path style="clip-rule:evenodd;fill-rule:evenodd" d="m23.882 136.97c0.979 0.19 1.698 0.639 2.157 1.349 0.224 0.762-0.379 0.699-0.27 1.348-0.834-0.312-1.483 0.266-2.157-0.54-0.206-1.02 0.329-1.29 0.27-2.16z"></path> <path style="clip-rule:evenodd;fill-rule:evenodd" d="m34.399 137.78c0.671 0.136 0.899 0.717 1.617 0.809 0.042 0.67-0.423 0.835-0.54 1.349h-1.887c-0.583-1.39 0.352-1.24 0.81-2.16z"></path> <path style="clip-rule:evenodd;fill-rule:evenodd" d="m20.108 138.59v1.349c-0.167 0.373-1.038 0.041-1.08 0.539-0.803-0.183-0.904-1.073-0.808-2.157 1.046-0.17 1.112-0.22 1.888 0.27z"></path> <path style="clip-rule:evenodd;fill-rule:evenodd" d="m39.521 140.21c0.27 1.167-0.3 1.496-0.538 2.157-0.715 0.316-1.588-0.518-1.619 0-0.854-1.23 0.544-2.51 2.157-2.16z"></path> <path style="clip-rule:evenodd;fill-rule:evenodd" d="m34.667 140.75c0.147 1.223-0.542 1.615-0.808 2.427-0.353-0.19-1.428-0.145-1.617 0-0.401-0.228-0.39-0.868-0.54-1.349 0.393-0.234 1.044-0.214 0.808-1.078 1.194 0.13 1.343-0.37 2.157 0z"></path> <path style="clip-rule:evenodd;fill-rule:evenodd" d="m16.602 143.17c-1.431 0.173-1.839-0.677-2.425-1.349 0.531-2.08 3.463-0.44 2.425 1.35z"></path> <path style="clip-rule:evenodd;fill-rule:evenodd" d="m12.021 144.79c-0.867-0.393-1.205-1.312-1.62-2.157 1.222-2.2 3.182 0.9 1.62 2.16z"></path> <path style="clip-rule:evenodd;fill-rule:evenodd" d="m20.108 142.36c0.092 1.261-0.121 2.215-0.81 2.696-1.498-0.35-1.386-3.2 0.81-2.7z"></path> <path style="clip-rule:evenodd;fill-rule:evenodd" d="m24.692 142.63c1.727-0.377 2.655 1.175 1.887 2.427-0.634 0.006-0.794-0.464-1.617-0.27-0.145-0.95-0.792-1.21-0.27-2.16z"></path> <path style="clip-rule:evenodd;fill-rule:evenodd" d="m31.163 144.25h1.887c0.235 1.072 0.235 1.354 0 2.427-0.849-0.303-0.61-0.024-1.617 0-0.6-0.75-0.514-1.37-0.27-2.43z"></path> <path style="clip-rule:evenodd;fill-rule:evenodd" d="m34.667 144.25h1.889c0.56 1.011 0.004 1.793-0.81 2.157-0.83 0.201-0.518-0.741-1.347-0.54-0.197-0.83 0.463-0.79 0.268-1.62z"></path> <path style="clip-rule:evenodd;fill-rule:evenodd" d="m50.038 145.87c0.199 0.832-0.931 0.329-0.54 1.348h-1.887c0.004-0.635-0.466-0.793-0.271-1.617 0.763-0.63 2.169-0.17 2.698 0.27z"></path> <path style="clip-rule:evenodd;fill-rule:evenodd" d="m19.838 153.96c1.547 0.066 2.328 1.914 1.347 2.965-1.093-0.099-2.117-0.625-2.157-2.426 0.543 0.1 0.846-0.05 0.81-0.53z"></path> <path style="clip-rule:evenodd;fill-rule:evenodd" d="m21.456 158c0.119 0.926-0.105 1.511-0.27 2.157-1.167 0.269-1.494-0.302-2.157-0.54-0.075-1.88 1.184-2.4 2.427-1.62z"></path> <path style="clip-rule:evenodd;fill-rule:evenodd" d="m17.412 158v1.617c-2.901 1.57-2.943-3.24 0-1.62z"></path> <path style="clip-rule:evenodd;fill-rule:evenodd" d="m11.21 158.27c0.536 0.003 0.342 0.736 1.078 0.54 0.18 1.167-0.307 1.67-0.808 2.157-0.992-0.565-1.35 0.326-1.35-1.887 0.201-0.43 1.322 0.06 1.08-0.81z"></path> <path style="clip-rule:evenodd;fill-rule:evenodd" d="m21.456 160.43c0.63 0 1.259-0.001 1.887 0 0.145 0.951 0.792 1.205 0.27 2.157h-1.617c-0.016-0.89-0.767-1.03-0.54-2.16z"></path> <path style="clip-rule:evenodd;fill-rule:evenodd" d="m46.262 161.51v0.54c-0.156 1.073-1.902 0.852-2.697 0.54-0.021-0.428 0.132-1.029-0.268-1.08 0.197-0.93 2.708-0.68 2.965 0z"></path> <path style="clip-rule:evenodd;fill-rule:evenodd" d="m14.177 161.24c0.621 0.275 0.557 1.24 0.538 2.157-1.238 0.159-2.074-0.084-2.694-0.54-0.249-2.33 1.955-0.86 2.156-1.62z"></path> <path style="clip-rule:evenodd;fill-rule:evenodd" d="m41.408 162.59c-0.648 1.165-1.749 1.049-2.965 0.539 0.222-0.763-0.382-0.699-0.27-1.348 1.183-0.19 2.598-1.28 3.235 0.81z"></path> <path style="clip-rule:evenodd;fill-rule:evenodd" d="m8.514 161.51c1.097-0.019 1.161 0.997 1.08 2.157-1.244 0.169-2.306 1.107-2.966-0.269-0.041-1.3 1.616-0.9 1.886-1.89z"></path> <path style="clip-rule:evenodd;fill-rule:evenodd" d="m19.029 161.78c0.535 0.531 0.173 1.54 0 2.157-0.935-0.23-1.022 0.008-1.887-0.539v-1.349c0.851 0.13 0.952-0.49 1.887-0.27z"></path> <path style="clip-rule:evenodd;fill-rule:evenodd" d="m31.703 162.86c1.701 0.313 1.929-0.167 3.234 0.54 0.29 1.007-0.669 0.768-0.538 1.617-1.1-0.223-0.93-0.041-2.157 0-0.451-0.69-1.059-1.21-0.539-2.16z"></path> <path style="clip-rule:evenodd;fill-rule:evenodd" d="m26.579 163.4c1.075-0.087 1.992-0.016 2.427 0.539 0.355 1.525-0.999 1.34-1.347 2.157-0.505-0.93-1.591-0.99-1.08-2.7z"></path> <path style="clip-rule:evenodd;fill-rule:evenodd" d="m20.918 163.66c1.246-0.169 1.944 0.212 2.425 0.81 0.224 0.761-0.38 0.698-0.268 1.348h-1.619c-0.463-0.43-0.67-1.13-0.538-2.16z"></path> <path style="clip-rule:evenodd;fill-rule:evenodd" d="m12.288 165.28c0.191 0.799 0.803 1.174 0.54 2.427-1.446 0.367-1.652-0.506-2.427-0.809 0.487-0.68 0.401-1.94 1.887-1.62z"></path> <path style="clip-rule:evenodd;fill-rule:evenodd" d="m17.142 165.28c-0.202 0.831 0.93 0.33 0.54 1.349-0.264-0.008-0.208-0.33-0.27-0.54-0.402 0.229-0.391 0.869-0.54 1.349-1.365 0.249-2.133 0.257-2.157-1.349 0.765-0.31 1.029-1.13 2.427-0.81z"></path> <path style="clip-rule:evenodd;fill-rule:evenodd" d="m6.627 166.09c-0.007 0.635 0.465 0.794 0.27 1.619-0.612 0.623-2.396 0.837-2.966 0 0.289-1.15 0.951-1.92 2.696-1.62z"></path> <path style="clip-rule:evenodd;fill-rule:evenodd" d="m19.298 168.25c0.139 1.126-0.149 1.828-0.537 2.427-0.242-0.166-0.483-0.326-0.54 0-1.395-0.38-0.89-3.07 1.077-2.43z"></path> <path style="clip-rule:evenodd;fill-rule:evenodd" d="m14.715 169.06c0.869 1.774 0.167 2.901-1.617 2.696-0.288-0.251-0.083-0.994-0.81-0.809 0.542-0.9 0.781-2.1 2.427-1.89z"></path> <path style="clip-rule:evenodd;fill-rule:evenodd" d="m3.66 170.14c1.707 0.029 1.964 0.157 2.427 1.079-0.037 1.041-1.053 1.104-2.157 1.078 0.099-0.458-0.211-0.509-0.54-0.54-0.195-0.83 0.465-0.8 0.27-1.62z"></path> <path style="clip-rule:evenodd;fill-rule:evenodd" d="m10.671 172.29h-2.157c-1.518-2.62 2.806-2.82 2.157 0z"></path> <path style="clip-rule:evenodd;fill-rule:evenodd" d="m51.925 183.08c-0.255 1.829-2.478 2.004-2.427-0.269 0.768-0.43 1.825-0.68 2.427 0.27z"></path> <path style="clip-rule:evenodd;fill-rule:evenodd" d="m53.542 187.12c1.001 0.382 0.73 0.47 1.887 0.808 0.007 1.637-0.935 1.452-1.887 1.619-0.2-0.79-1.137-0.843-0.81-2.157 0.252 0.17 0.997 0.63 0.81-0.27z"></path> <path style="clip-rule:evenodd;fill-rule:evenodd" d="m30.893 191.17c1.237-0.16 2.073 0.083 2.697 0.54 0.195 0.822-0.277 0.98-0.27 1.617h-1.887c-0.463-0.44-0.669-1.13-0.54-2.16z"></path> <path style="clip-rule:evenodd;fill-rule:evenodd" d="m51.115 191.71c0.653 1.104-0.366 1.419-0.54 2.427-0.697-0.652-1.99-0.705-1.887-2.157 0.448-0.46 1.584-0.22 2.427-0.27z"></path> <path style="clip-rule:evenodd;fill-rule:evenodd" d="m23.343 193.86c0.792 0.229-0.16 0.869 0 1.348-0.843-0.055-1.979 0.182-2.425-0.268-0.533-2.84 2.238-1.42 2.425-1.08z"></path> <path style="clip-rule:evenodd;fill-rule:evenodd" d="m54.082 193.59c3.194 1.17 0.215 4.742-1.08 1.887-0.018-1.01 0.667-1.31 1.08-1.89z"></path> <path style="clip-rule:evenodd;fill-rule:evenodd" d="m45.991 193.86c0.623 0.276 0.56 1.24 0.54 2.157-1.26 0.691-1.167 0.077-2.427 0-0.349-0.669 0.602-1.31 0-1.35 0.669-0.46 1.679-0.58 1.887-0.81z"></path> <path style="clip-rule:evenodd;fill-rule:evenodd" d="m50.038 195.75c0.539 0.447 1.253 0.724 1.347 1.617-0.315 0.044-0.228 0.493-0.27 0.81-0.891-0.316-1.615 0.153-2.697-0.271v-1.349c0.195-0.61 1.868 0.25 1.62-0.81z"></path> <path style="clip-rule:evenodd;fill-rule:evenodd" d="m15.524 196.83c0.772 0.676 0.292-0.028 1.617 0.538 0.195 0.824-0.274 0.982-0.27 1.617h-1.617c-0.364-0.8-0.337-1.67 0.27-2.16z"></path> <path style="clip-rule:evenodd;fill-rule:evenodd" d="m29.546 197.37c0.829-0.2 0.518 0.739 1.347 0.539 0.16 0.968-0.314 1.306-0.54 1.888-0.902 0.004-1.115-0.683-1.617-1.078-0.202-0.92 1.095-0.34 0.81-1.35z"></path> <path style="clip-rule:evenodd;fill-rule:evenodd" d="m38.983 197.64c1.409-0.331 1.716 0.438 2.695 0.54 0.07 0.79-0.61 0.829-0.538 1.617-1.229 0.331-1.06-0.74-2.157-0.538v-1.62z"></path> <path style="clip-rule:evenodd;fill-rule:evenodd" d="m20.918 198.72c1.286 0.062 1.876 0.816 2.425 1.617-0.095 0.894-1.554 0.424-2.425 0.54-0.031-0.688-0.496-0.945-0.81-1.35-0.107-0.65 1.229 0.14 0.81-0.81z"></path> <path style="clip-rule:evenodd;fill-rule:evenodd" d="m42.757 200.6c-0.011 0.461 0.2 0.697 0.54 0.808-0.048 1.799-3.059 2.288-2.966 0 1.129 0.05 0.807-1.35 2.426-0.81z"></path> <path style="clip-rule:evenodd;fill-rule:evenodd" d="m53.812 200.87c0.268 1.168-0.301 1.494-0.539 2.157-1.168 0.268-1.497-0.303-2.157-0.54-0.195-0.825 0.465-0.794 0.27-1.617 1.336 0.03 1.324-0.26 2.426 0z"></path> <path style="clip-rule:evenodd;fill-rule:evenodd" d="m47.881 201.68c0.866 0.121 1.389 0.584 1.617 1.348 0.188 0.996-1.154 0.465-1.35 1.077-1.145-0.25-0.857-1.81-0.267-2.43z"></path> <path style="clip-rule:evenodd;fill-rule:evenodd" d="m32.51 204.65c-0.871 0.461-1.608 0.722-2.427 0-0.168-2.39 2.307-1.57 2.427 0z"></path> <path style="clip-rule:evenodd;fill-rule:evenodd" d="m46.531 203.3c0.158 1.058-0.232 1.566-0.54 2.159-1.156 0.011-0.886-0.334-1.887-0.81-0.166-1.36 1.396-2.05 2.427-1.35z"></path> <path style="clip-rule:evenodd;fill-rule:evenodd" d="m38.443 203.84c0.143 0.952 0.79 1.207 0.27 2.159-0.985 0.157-1.314 0.438-2.157-0.272-0.078-1.34 0.643-1.87 1.887-1.89z"></path> <path style="clip-rule:evenodd;fill-rule:evenodd" d="m21.726 204.11c0.377 0.522 0.998 0.801 1.617 1.08 0.118 2.056-2.545 1.014-2.695 0.81-0.899-1.29 0.867-1.33 1.078-1.89z"></path> <path style="clip-rule:evenodd;fill-rule:evenodd" d="m27.926 207.88c0.533 0.187-0.066 1.503 0.54 1.617-0.373 0.614-1.876 0.099-2.697 0.27 0.077-0.435-0.255-0.465-0.268-0.81 0.2-0.97 1.159-1.17 2.425-1.08z"></path> <path style="clip-rule:evenodd;fill-rule:evenodd" d="m39.521 207.88h1.888c1.068 2.08-2.356 2.57-1.888 0z"></path> <path style="clip-rule:evenodd;fill-rule:evenodd" d="m29.546 208.15c1.314-0.237 1.779 0.378 2.427 0.81 0.204 1.014-0.707 0.913-1.08 1.35-1.117-0.17-1.821-1.16-1.347-2.16z"></path> <path style="clip-rule:evenodd;fill-rule:evenodd" d="m36.824 209.5c-0.044 1.788-3.061 1.172-2.695-0.54 1.39 0.19 2.311-0.74 2.695 0.54z"></path> <path style="clip-rule:evenodd;fill-rule:evenodd" d="m41.678 215.43c0.535 0.005 0.345 0.737 1.079 0.54 0.406 1.485-0.726 1.431-0.539 2.697-2.21 0.15-1.655-2.6-0.54-3.24z"></path> <path style="clip-rule:evenodd;fill-rule:evenodd" d="m31.163 217.86c0.774 0.304 1.591 0.566 2.157 1.08-0.358 0.452-0.713 0.904-0.54 1.887-1.771 0.78-2.738-1.64-1.617-2.97z"></path> <path style="clip-rule:evenodd;fill-rule:evenodd" d="m41.408 219.21c0.208 1.558-0.49 2.721-1.618 2.159-0.636-0.634 0.044-1.325 0-2.159 0.85 0.13 1.054-0.59 1.618 0z"></path> <path style="clip-rule:evenodd;fill-rule:evenodd" d="m49.498 220.02c0.283 2.043-0.742 1.191-1.08 2.697-0.625-0.301-0.722 0.057-1.347-0.54-0.14-1.7 0.84-3.01 2.427-2.16z"></path> <path style="clip-rule:evenodd;fill-rule:evenodd" d="m26.039 220.02c0.718 0.002 1.541-0.101 1.887 0.271 0.176 0.982-0.18 1.435-0.538 1.887-0.936-0.36-2.042-0.95-1.349-2.16z"></path> <path style="clip-rule:evenodd;fill-rule:evenodd" d="m19.298 223.79c-0.206-0.637-0.531-1.865 0-2.427 1.743-0.55 2.666 3.42 0 2.43z"></path> <path style="clip-rule:evenodd;fill-rule:evenodd" d="m40.6 221.91c0.362 0.843 0.472 2.479-0.27 2.964-0.59-0.226-1.736-0.3-1.887-1.617 0.768-0.4 1.098-1.23 2.157-1.34z"></path> <path style="clip-rule:evenodd;fill-rule:evenodd" d="m31.163 222.71c0.184 1.303 0.226 2.102-0.27 3.234-0.83 0.188-0.518 0.188-1.347 0-0.793-1.42 0.298-3.03 1.617-3.23z"></path> <path style="clip-rule:evenodd;fill-rule:evenodd" d="m52.732 222.71c1.431-0.047 0.838 0.364 2.157 0.539 0.023 1.008 0.303 0.769 0 1.617-1.896 0.246-2.715 0.195-2.695-1.887 0.332 0.3 0.554 0.24 0.538-0.27z"></path> <path style="clip-rule:evenodd;fill-rule:evenodd" d="m47.881 223.52c0.551 1.071 0.217 2.44-0.54 2.967-0.963-0.513-1.48-0.07-1.887-0.808 0.845-0.68 1.042-2.01 2.427-2.16z"></path> <path style="clip-rule:evenodd;fill-rule:evenodd" d="m34.937 223.79c0.555 0.904 0.557 0.188 1.35 0 0.309 0.755 0.309 1.4 0 2.155h-1.887c0.195-0.823-0.467-0.793-0.27-1.617 0.46 0.02 0.697-0.19 0.807-0.53z"></path> <path style="clip-rule:evenodd;fill-rule:evenodd" d="m24.152 224.06c0.669-0.349 1.308 0.602 1.349 0 0.555 0.075 0.064 1.194 0.808 1.08 0.132 0.849-0.827 0.609-0.54 1.617-0.709-0.104-1.021-0.332-1.887-0.81-0.215-0.94 0.402-1.04 0.27-1.89z"></path> <path style="clip-rule:evenodd;fill-rule:evenodd" d="m15.794 224.33c0.564 0.155 0.77 0.669 1.617 0.539 0.266 2.18-1.894 1.997-2.697 1.078 0.21-0.239 0.29-0.608 0.27-1.078 0.543 0.09 0.846-0.05 0.81-0.54z"></path> <path style="clip-rule:evenodd;fill-rule:evenodd" d="m56.778 224.33c0.375 0.521 0.996 0.801 1.617 1.079-0.327 0.841-0.73 1.608-2.157 1.348-0.706-0.84-0.081-2.08 0.54-2.43z"></path> <path style="clip-rule:evenodd;fill-rule:evenodd" d="m52.732 226.49c-0.209 0.241-0.29 0.61-0.268 1.08-1.654 0.215-2.111-0.769-2.159-2.157 1.462-0.64 1.627 0.41 2.427 1.08z"></path> <path style="clip-rule:evenodd;fill-rule:evenodd" d="m38.173 225.68h1.347c0.355 1.227 0.922 2.796-0.538 3.234-1.324-0.25-0.986-2.18-0.809-3.23z"></path> <path style="clip-rule:evenodd;fill-rule:evenodd" d="m41.678 225.68h1.619c0.218 0.501 0.347 1.089 0.808 1.348 0.354 1.163-1.283 0.334-1.077 1.348-0.406-0.404-0.812-0.806-1.35-1.078v-1.62z"></path> <path style="clip-rule:evenodd;fill-rule:evenodd" d="m18.761 225.95c0.669-0.04 0.833 0.425 1.347 0.539 0.193 1.541-0.522 2.175-1.617 2.427 0.099-0.458-0.211-0.509-0.54-0.539-0.259-1.34 0.718-1.44 0.81-2.43z"></path> <path style="clip-rule:evenodd;fill-rule:evenodd" d="m47.071 228.11c0.118 0.926-0.107 1.509-0.271 2.154-1.007 0.026-0.768 0.303-1.617 0-0.841-1.46 0.546-3.64 1.888-2.15z"></path> <path style="clip-rule:evenodd;fill-rule:evenodd" d="m30.083 228.38c0.004 0.84 0.638 1.757 0 2.427-0.988 0.092-1.383-0.413-1.617-1.078 0.191-0.8 0.7-1.29 1.617-1.35z"></path> <path style="clip-rule:evenodd;fill-rule:evenodd" d="m33.32 228.38c0.23-0.049 0.254 0.104 0.27 0.271-0.046 0.584 0.957 0.121 1.347 0.268-0.004 0.637 0.465 0.795 0.27 1.62-1.523 0.173-2.638-0.062-2.697-1.35 0.253-0.29 0.996-0.09 0.81-0.81z"></path> <path style="clip-rule:evenodd;fill-rule:evenodd" d="m23.343 229.18c0.452 0.357 0.904 0.713 1.889 0.539 0.371 1.091-0.586 0.854-0.54 1.617-1.167 0.269-1.497-0.3-2.157-0.539-0.189-1.49 0.779-0.81 0.808-1.62z"></path> <path style="clip-rule:evenodd;fill-rule:evenodd" d="m43.564 231.34c-0.268 0.63-1.468 0.329-1.887 0.811-0.364-0.266-0.538-0.72-0.808-1.08-0.012-1.93 2.755-1.46 2.695 0.27z"></path> <path style="clip-rule:evenodd;fill-rule:evenodd" d="m37.364 229.99c0.774 0.215 1.433 0.544 2.157 0.808-0.296 0.783-0.781 1.376-1.077 2.159-0.325-0.308-0.489-0.772-1.35-0.54-0.184-1.08 0.259-1.54 0.27-2.43z"></path> <path style="clip-rule:evenodd;fill-rule:evenodd" d="m17.951 230.8c0.874 0.026 0.869 0.928 1.347 1.35-0.3 0.416-0.875 0.562-0.807 1.347-1.128 0.23-1.069-0.73-1.62-1.077 0.178-0.72 0.773-1.03 1.08-1.62z"></path> <path style="clip-rule:evenodd;fill-rule:evenodd" d="m56.238 231.61c0.621 0.081 0.299-0.779 0.808-0.81 1.068-0.347 0.551 0.889 1.619 0.539 0.288 1.008-0.669 0.769-0.539 1.62-2.569-1.251-2.53 1.399-4.584 0-0.195-0.825 0.465-0.795 0.27-1.62 0.856-0.19 2.162-1.21 2.426 0.27z"></path> <path style="clip-rule:evenodd;fill-rule:evenodd" d="m10.401 231.61c0.542 0.447 1.253 0.724 1.35 1.617-0.198 0.794-0.84 1.137-1.889 1.079-0.248-1.058-0.586-1.003-0.268-2.156 0.539 0.09 0.842-0.05 0.807-0.54z"></path> <path style="clip-rule:evenodd;fill-rule:evenodd" d="m28.196 233.23c1.169 0.333 1.102 1.566 0.54 2.427-1.174 0.276-1.24-0.558-1.887-0.808 0.131-0.86 1.17-0.81 1.347-1.62z"></path> <path style="clip-rule:evenodd;fill-rule:evenodd" d="m31.433 233.5c1.029-0.129 1.72 0.077 2.157 0.54 0.195 0.825-0.465 0.792-0.27 1.617-1.365 0.09-2.541-0.51-1.887-2.16z"></path> <path style="clip-rule:evenodd;fill-rule:evenodd" d="m23.612 236.46c-1.191 0.551-2.898-0.375-2.157-1.617 0.674-0.33 2.653-0.06 2.157 1.62z"></path> <path style="clip-rule:evenodd;fill-rule:evenodd" d="m54.082 234.85c0.067 1.325-0.334 2.181-1.35 2.427 0.044-0.762-0.762-0.676-1.077-1.079 0.009-1.34 1.15-2.06 2.427-1.35z"></path> <path style="clip-rule:evenodd;fill-rule:evenodd" d="m36.824 234.85h1.619c0.119 0.926-0.107 1.51-0.27 2.154-0.507-0.859-1.014-0.043-1.617-0.807-0.112-0.64 0.492-0.58 0.268-1.34z"></path> <path style="clip-rule:evenodd;fill-rule:evenodd" d="m14.445 235.66c0.952 0.307 1.591 0.926 1.35 2.427-0.63 0.351-2.199 0.285-2.697-0.808-0.334-1.33 1.325-0.66 1.347-1.62z"></path> <path style="clip-rule:evenodd;fill-rule:evenodd" d="m10.401 236.2h1.35c0.107 0.702 0.803 0.812 0.807 1.617-0.261 0.006-0.208 0.331-0.27 0.539-0.733 0.621-1.262-0.513-1.617 0-0.617-0.23-0.737-1.66-0.27-2.16z"></path> <path style="clip-rule:evenodd;fill-rule:evenodd" d="m45.454 236.2c0.389 0.419 0.896 0.722 1.077 1.347-0.18 0.899-0.693 1.466-1.887 1.35 0.044-0.854-0.718-0.901-0.54-1.89 0.321-0.41 1.019-0.42 1.35-0.81z"></path> <path style="clip-rule:evenodd;fill-rule:evenodd" d="m55.699 236.73c1.172-0.116 2.034 1.025 1.079 2.427-1.355-0.24-1.918-1.31-1.079-2.43z"></path> <path style="clip-rule:evenodd;fill-rule:evenodd" d="m52.465 238.08c0.162 0.646 0.386 1.23 0.268 2.157-0.816 0.37-0.964-0.128-2.157 0-0.766-1.63 0.182-2.83 1.889-2.16z"></path> <path style="clip-rule:evenodd;fill-rule:evenodd" d="m33.59 238.89c0.871 0.206 1.411 0.746 1.617 1.617-0.724-0.185-0.52 0.558-0.808 0.81-0.849-0.303-0.612-0.024-1.62 0 0.195-0.825-0.465-0.794-0.27-1.617 0.708 0.08 1.162-0.1 1.081-0.81z"></path> <path style="clip-rule:evenodd;fill-rule:evenodd" d="m18.221 239.43c0.421 0.921 0.627 1.255 0.27 2.427-1.007-0.022-0.771-0.301-1.62 0-0.335-1.18-0.423-2.68 1.35-2.43z"></path> <path style="clip-rule:evenodd;fill-rule:evenodd" d="m40.061 239.43c0.23-0.049 0.254 0.104 0.27 0.271 1.078-0.776 1.872 1.36 0.54 2.427-1.156 0.257-1.042-0.759-1.887-0.81-0.075-1.07 1.151-0.83 1.077-1.89z"></path> <path style="clip-rule:evenodd;fill-rule:evenodd" d="m44.104 242.67c-0.658-0.149-0.985-0.632-1.348-1.077 0.536-0.814 1.304-2.528 2.427-1.888 0.216 1.56-0.264 2.43-1.079 2.97z"></path> <path style="clip-rule:evenodd;fill-rule:evenodd" d="m11.75 240.78c1.38-0.122 1.211 1.306 2.427 1.35 0.085 0.896-1.325 0.29-0.81 1.615-1.961 0.42-2.196-1.65-1.617-2.96z"></path> <path style="clip-rule:evenodd;fill-rule:evenodd" d="m29.006 242.13c1.273-0.285 1.514 0.461 1.887 1.077-0.195 0.793-0.84 1.137-1.887 1.078-0.413-0.86-0.094-1.19 0-2.16z"></path> <path style="clip-rule:evenodd;fill-rule:evenodd" d="m50.306 242.94c-0.066 0.834-0.272 1.522-0.538 2.157-0.726-0.441-1.385 0.366-2.156-0.271-0.216-2.14 1.526-3.38 2.694-1.89z"></path> <path style="clip-rule:evenodd;fill-rule:evenodd" d="m55.429 242.94c0.079 1.156-0.375 1.782-0.808 2.427-0.949-0.127-1.301-0.857-1.889-1.347 0.281-1.09 1.984-2.02 2.697-1.08z"></path> <path style="clip-rule:evenodd;fill-rule:evenodd" d="m21.995 242.94v1.617c-1.029 0.191-1.299 0.18-2.157-0.27-0.785-1.55 0.913-1.94 2.157-1.35z"></path> <path style="clip-rule:evenodd;fill-rule:evenodd" d="m36.017 242.67c-0.373 0.349-0.268 1.172-0.27 1.887-0.516 0.114-1.161 0.099-1.08 0.81-0.682-0.307-1.527-0.447-1.887-1.079 0.397-1.23 1.327-1.92 3.237-1.62z"></path> <path style="clip-rule:evenodd;fill-rule:evenodd" d="m39.521 242.67c0.314 0.871 0.709 1.95 0 2.427-0.788 0.07-0.827-0.61-1.617-0.54-0.161-1.33 0.261-2.08 1.617-1.89z"></path> <path style="clip-rule:evenodd;fill-rule:evenodd" d="m43.297 243.48c0.162 0.645 0.387 1.229 0.268 2.157-0.816 0.081-0.963 0.833-2.156 0.537-0.23-0.215-0.16-0.737-0.538-0.808 0.135-1.31 0.866-2.02 2.426-1.89z"></path> <path style="clip-rule:evenodd;fill-rule:evenodd" d="m15.254 245.09h1.348c0.081 0.549 0.542 0.718 0.81 1.077 0.202 0.832-0.931 0.329-0.54 1.35-1.705 0.13-1.89-1.28-1.618-2.43z"></path> <path style="clip-rule:evenodd;fill-rule:evenodd" d="m39.791 246.71c0.345 0.375 1.273 0.167 1.618 0.54 0.359 2.26-2.438 3.62-3.235 1.619 0.686-0.57 1.345-1.17 1.617-2.16z"></path> <path style="clip-rule:evenodd;fill-rule:evenodd" d="m26.849 247.52c1.384-0.127 2.014 0.502 1.887 1.887-1.11 0.257-1.011 0.049-1.887 0.54-0.492-0.91-0.595-1.49 0-2.43z"></path> <path style="clip-rule:evenodd;fill-rule:evenodd" d="m37.364 247.79c-0.044 0.312 0.059 0.479 0.27 0.54 0.079 1.336-0.979 1.536-1.617 2.154-0.182-0.625-1.225-0.39-1.35-1.077 0.329-1.1 1.279-1.59 2.697-1.61z"></path> <path style="clip-rule:evenodd;fill-rule:evenodd" d="m46.531 248.6c0.042 1.481-1.112 1.765-2.696 1.619-0.154-0.563-0.667-0.77-0.538-1.619 1.753-0.1 1.604-1.04 3.234 0z"></path> <path style="clip-rule:evenodd;fill-rule:evenodd" d="m19.838 250.22h2.157c-0.099 0.459 0.211 0.51 0.54 0.54-0.195 0.704-0.972 0.825-1.08 1.617-0.325-0.305-0.487-0.771-1.347-0.54 0.196-0.83-0.465-0.8-0.27-1.62z"></path> <path style="clip-rule:evenodd;fill-rule:evenodd" d="m45.991 277.72c0.448 0.362 0.931 0.689 1.08 1.348 0.333 0.873-0.873 0.206-0.54 1.079-1.121 0.132-1.656-0.32-1.887-1.079-0.131-1.03 0.955-0.85 1.347-1.35z"></path> <path style="clip-rule:evenodd;fill-rule:evenodd" d="m42.757 282.57c-0.224 0.76 0.38 0.698 0.271 1.348-2.575 1.94-3.621-2.72-0.271-1.35z"></path> <path style="clip-rule:evenodd;fill-rule:evenodd" d="m47.341 285c0.116 0.516 0.582 0.678 0.54 1.35-1.104 1.114-1.433 0.551-2.427 0.268-0.494-1.02 0.329-1.9 1.887-1.62z"></path> <path style="clip-rule:evenodd;fill-rule:evenodd" d="m51.385 286.08c-0.044 0.313 0.06 0.48 0.271 0.537 0.129 0.85-0.385 1.056-0.54 1.619-1.255-0.004-2.008-0.509-2.157-1.619 0.264 0.009 0.211 0.331 0.271 0.54 0.615-0.47 0.777-1.38 2.155-1.08z"></path> <path style="clip-rule:evenodd;fill-rule:evenodd" d="m73.764 299.56v1.348c-1.079 0.757-1.41 0.167-2.696 0-0.882-1.83 1.321-1.79 2.696-1.35z"></path> <path style="clip-rule:evenodd;fill-rule:evenodd" d="m34.129 304.41c-0.838-0.353-0.77 0.075-1.887 0-0.226-0.581-0.7-0.917-0.54-1.887 0.116 0.663 0.999-0.803 1.077-0.808 1.524-0.11 2.208 1.38 1.35 2.7z"></path> <path style="clip-rule:evenodd;fill-rule:evenodd" d="m38.173 305.22c0.195 0.824-0.276 0.982-0.27 1.616-1.374 0.117-2.493-0.023-2.967-0.807 0.37-1.95 2.197-1.12 3.237-0.81z"></path> <path style="clip-rule:evenodd;fill-rule:evenodd" d="m47.611 304.95c0.313 0.496 1.033 0.584 1.347 1.08 0.202 0.829-0.739 0.518-0.54 1.347-0.789-0.07-1-0.371-1.347 0-0.387-0.331-0.512-0.926-0.54-1.617 0.2-0.43 1.322 0.06 1.08-0.81z"></path> <path style="clip-rule:evenodd;fill-rule:evenodd" d="m40.6 306.03c1.238-0.158 2.074 0.083 2.697 0.539 0.193 0.823-0.276 0.983-0.27 1.617-1.086 0.047-2.081 0.183-2.427 0.271-0.798-0.95-0.243-1.43 0-2.43z"></path> <path style="clip-rule:evenodd;fill-rule:evenodd" d="m27.659 312.23c0.623 0.977 0.362 1.396 0 2.427h-1.62c-0.412-0.857-0.094-1.185 0-2.156 0.825 0.2 0.794-0.47 1.62-0.27z"></path> <path style="clip-rule:evenodd;fill-rule:evenodd" d="m30.623 312.5c0.48 0.509 0.889 1.088 0.81 2.156-0.952 0.663-1.894 0.496-1.887-1.079 0.099-0.62 1.18-0.26 1.077-1.08z"></path> <path style="clip-rule:evenodd;fill-rule:evenodd" d="m22.535 313.85c0.195 0.822-0.276 0.98-0.27 1.617-0.777-0.033-1.766 0.146-2.157-0.271-0.645-2.01 1.62-2.38 2.427-1.35z"></path> <path style="clip-rule:evenodd;fill-rule:evenodd" d="m24.962 315.2c2.126 0.47 1.047 3.423-0.81 1.888-0.608-1.05 0.5-1.07 0.81-1.89z"></path> <path style="clip-rule:evenodd;fill-rule:evenodd" d="m21.186 316.81c0.832 1.494-0.472 2.275-0.808 2.697-0.829 0.201-0.518-0.742-1.349-0.54 0-1.44 0.39-2.49 2.157-2.16z"></path> <path style="clip-rule:evenodd;fill-rule:evenodd" d="m25.77 319.78c-0.088 0.63-0.323 1.112-0.538 1.617-0.522-0.316-1.367 0.248-1.889-0.54-0.182-1.96 1.625-2.13 2.427-1.08z"></path> <path style="clip-rule:evenodd;fill-rule:evenodd" d="m19.568 320.32h1.35c0.465 0.88 0.513 1.402 0 2.428-0.805-0.387-0.917 0.221-1.62-0.269-0.206-1.02 0.33-1.29 0.27-2.16z"></path> <path style="clip-rule:evenodd;fill-rule:evenodd" d="m19.568 323.28c0.944 0.123 0.849 0.865 1.35 0.81 0.075 0.48-0.257 0.554-0.27 0.271-0.401 0.228-0.391 0.869-0.54 1.347-0.502 0.259-0.902-0.808-1.08 0-0.835-0.77 0.121-2.02 0.54-2.43z"></path> <path style="clip-rule:evenodd;fill-rule:evenodd" d="m14.177 332.72c0.654 0.301 1.25 1.471 0.268 1.888-0.601-0.12-0.108-1.33-0.268-1.89z"></path> <path style="clip-rule:evenodd;fill-rule:evenodd" d="m27.926 106.5c0.479-1.043 0.254-2.682 0-3.775 0.479-0.512 0.252-1.727 0.81-2.157-1.139-20.722-1.667-36.519-3.774-55.814-1.792-0.993-2.791-2.78-4.854-3.504-0.981-2.44-3.294-5.054-3.506-8.089-0.132-1.893 1.031-4.067 0.81-6.202-0.116-1.119-0.632-2.533-1.078-3.505-0.447-0.969-1.4-1.537-1.889-2.426-0.184-0.338 0.116-0.976 0-1.348-0.151-0.486-0.937-0.736-1.077-1.079-1.009-2.466-1.977-5.618-1.617-8.089 0.232-1.601 1.742-3.006 1.617-4.583 1.205-0.392 2.396-2.461 3.234-4.045 1.075-0.272 1.733-0.963 2.427-1.617 1.615 0.505 2.547 0.425 3.776-0.27 1.661 0.579 4.072 0.678 5.661 2.427 0.895 0.986 2.672 5.661 3.506 7.819 0.722 1.873 1.213 4.782 1.077 7.549-0.048 1-0.215 2.586-0.54 3.775-0.546 2-2.001 2.957-0.808 5.123 0.342 0.621 1.093 0.984 1.347 1.619 1.571 3.898-0.582 8.151-0.54 12.133-0.909 1.068-1.216 2.738-2.157 3.775 0.092 13.585 1.382 22.423 1.62 36.13 0.823 0.894 0.656 3.126 0.807 5.392 0.163 2.399 1.005 4.957 1.08 6.741 0.193 4.643 0.002 9.374 0.27 14.56 0.406 1.121 2.392 0.663 2.964 1.618 2.53-0.152 3.913 0.431 7.28 0.809 0.742 0.083 0.51 0.432 0.81 0.539 0.477 0.17 1.394-0.326 1.617-0.27 1.521 0.383 2.926 1.766 4.584 1.349 0.556 1.107 1.387 1.291 2.157 1.888 0.366 0.284 0.27 0.676 0.54 1.347 0.085 0.216 0.498 0.16 0.539 0.27 0.556 1.493 0.799 3.97 1.348 6.202 0.952 3.874 2.207 8.272 2.157 13.212-0.049 4.685-2.673 9.124-2.427 13.481 0.166 2.947 2.15 6.126 2.427 9.167 0.274 3-0.654 4.756-2.697 7.009-3.859 2.024-11.965 2.039-16.178 3.775-0.342 0.916-0.433 2.083-1.617 2.157 0.18 0.282 0.513 0.369 0.81 0.54 0.489 0.283 3.307 1.533 3.234 0.809 1.834 1.679 5.062 0.983 6.74 2.966 0.615-1.196 1.034 0.415 2.428 0 0.553 0.536 1.954 1.626 2.427 1.348 0.557 1.271 2.024 1.542 2.966 2.696 0.753 0.922 1.354 2.597 1.888 3.774 0.555 1.229 0.808 2.548 1.617 3.236 0.609 3.755 0.604 7.278 0.27 10.785-0.276 0.263-0.544 0.533-0.808 0.808 0.512 8.697-7.474 12.274-5.394 19.954 0.005 0.803 1.273 0.347 1.617 0.808 2.101 3.205 5.802 5.626 8.358 7.55 1.735 3.612-0.049 7.151-0.808 10.518-2.032 1.475-1.538 5.47-3.774 6.74-0.359 2.517-2.35 3.401-2.967 5.661 0.327 0.841 1.427 0.908 2.157 1.348 0.98 2.33 3.224 3.669 2.697 6.201-0.29 1.396-2.447 1.939-4.047 3.776-1.36 1.564-1.299 3.609-3.504 4.044-1.295 2.571-2.429 5.753-0.54 8.357 3.101 1.126 5.049 3.401 7.28 5.394 0.74 2.137 1.55 4.202 2.967 5.663 0.917 3.396 1.642 6.986 1.348 11.593 2.96 0.704 5.242 0.706 8.357 1.349 0.749 1.297 2.561 1.819 3.776 2.965 2.157 2.034 3.88 6.962 3.505 10.517-1.479 0.691-1.923-0.044-3.234 0.808-0.195 0.128 0.131 0.556-0.271 0.54-1.527-0.06-1.848 2.686-4.854 2.157-0.829-0.147-0.992-0.892-1.617-1.35-0.56-0.406-1.355-0.191-1.619-1.077-2.434-0.48-5.121-0.758-6.201-1.888-1.821 0.507-2.988-0.428-4.854 0.271-0.901-0.626-3.083-0.667-4.584 0.539-0.643 0.516-0.577 0.466-1.077 0.54-0.32 0.044-0.107 0.491-0.27 0.538-1.617 0.467-3.531 1.119-4.854 1.35 0.426 11.752 0.936 26.142 2.157 39.095-0.149 0.599 0.516 0.384 0.54 0.81 0.057 6.328 1.187 10.659 0.808 17.795-3.59 1.61-3.399-4.011-4.044-7.011-0.143-0.414-0.281-0.018-0.271 0.271-0.645-2.14-0.399-5.175-1.887-6.471-0.82-13.734-0.535-29.954-2.964-42.872-1.876 0.551-3.393 1.462-4.046 3.237-2.411 0.82-3.855 2.613-6.201 3.504-2.776 4.505-6.969 7.59-9.708 12.132-1.152-0.188-2.001 2.21-2.964 2.159-2.569-1.417-2.359-5.202-2.427-8.09-0.107-4.586 0.68-10.201 1.617-14.559 1.683-0.867 4.013-2.419 5.931-2.159 1.404-2.687 1.917-4.144 0.54-7.009-1.308-2.721-2.949-7.092-1.347-11.327-0.647-0.789-1.027-1.253-1.617-2.424-0.281-0.558-0.977-1.346-1.35-2.157-1.068-2.337-1.253-5.161-2.157-7.551-1.093-2.892-2.89-5.547-3.234-8.628-0.195-0.704-0.88-0.919-1.08-1.617-0.143-5.338-1.667-10.221 0-14.021-0.489-1.758-1.92-2.576-1.617-5.124-0.968-1.318-1.194-3.493-2.157-5.391-1.122-2.21-3.29-6.083-3.506-9.708-0.079-1.32 0.153-3.66 0.27-5.394 0.16-2.352 1.06-2.865 2.157-4.583 1.687 0.055 2.841-1.262 3.776-1.888 1.009 0.595 1.312-1.274 1.347 0 1.887-1.209 3.646-2.271 5.394-3.236-0.985-2.323 2.207-4.428 1.347-7.548-0.266-0.966-0.955-0.766-1.887-1.62-0.935-0.851-2.793-3.4-4.044-4.851-0.439-0.507-1.438-1.04-1.62-1.35-0.224-0.382-0.265-1.281-0.537-1.888-0.595-1.308-1.041-2.909-1.35-5.121-0.779-5.591 0.573-9.602 2.966-14.021 2.045-1.908 4.582-6.844 7.281-8.089-0.022-1.853-1.31-1.447-2.427-0.809-0.257 0.145-0.323 0.702-0.54 0.809-0.423 0.206-0.733-0.178-1.08 0-0.911 0.469-1.83 0.947-2.157 1.617-1.652-0.518-2.826 1.705-4.044 1.079-0.582 0.712-2.552 1.839-4.044 2.157-0.702 0.15-1.789 0.212-2.427 0-1.404-0.464-1.492-2.042-2.697-2.157-2.618-5.872-1.348-14.452 0.27-20.492 1.468-1.326 1.407-3.765 2.427-5.931 0.423-0.9 1.512-1.559 1.887-2.427 1.104-2.549 1.051-5.503 0.27-8.089-0.292-0.97-0.276-1.945-0.54-2.696-0.147-0.419-0.691-0.591-0.808-1.08-0.16-0.671 0.094-1.489 0-2.157-0.483-3.358-2.203-6.24-3.506-8.628-0.033-1.244-0.004-4.238 0.81-2.965-0.228-2.205 1.806-2.148 2.157-3.775 0.825 0.195 0.792-0.465 1.617-0.27-0.109-0.65 0.494-0.586 0.27-1.348 1.189 0.246 1.786-1.06 2.697-1.618 0.838-0.515 1.641-0.793 2.427-1.348 0.316-0.223 1.615-0.639 1.887-1.079 0.075-0.12-0.11-0.737 0-0.809 0.408-0.267 0.682 0.283 1.077 0 0.355-0.252 0.312-0.573 0.27-0.54 1.907-1.535 3.327-2.879 5.124-4.584 3.461 1.12 4.859-1.94 8.093-1.06zm3.237-89.243c0.217-5.443-2.517-12.769-4.854-14.29-0.84-0.549-2.148-0.477-3.234-0.54-1.18-0.069-2.69 0.047-4.313 0 0.156 1.182-1.047 0.968-1.62 1.618-1.738 1.979-2.326 5.178-3.504 7.819 1.354 5.834 4.296 10.083 5.661 15.908-1.896 3.004-0.18 7.634 0.81 10.245 1.437 1.35 3.067 2.505 4.044 4.313 1.538-0.099 2.422 0.455 3.236 1.08 0.384 7.43 0.654 15.729 1.078 23.996 0.226 4.388 1.062 8.768 1.08 12.673 0.004 1.186-1.012 2.808 0.27 3.775 0.994-1.078 0.555-2.636 0.538-4.045-0.015-1.491 0.048-3.038 0-4.583-0.066-2.207-0.739-4.435-0.807-6.471-0.292-8.641-0.158-17.369-1.08-26.154 0.555-0.703 1.538-0.979 1.887-1.887 0.865-4.597 1.764-12.043-1.347-14.83 0.785-2.259 2.023-5.361 2.155-8.627zm-8.628 93.563c-4.753 0.395-7.212 5.107-11.864 6.471-1.356 2.113-2.877 2.635-4.314 4.854-0.774 0.303-1.591 0.566-2.157 1.077-0.338 2.508 0.498 4.043 1.347 6.202 1.747 4.429 2.346 10.268 4.314 15.369 2.302 0.916 5.397 2.453 7.55 0.54 0.32 0.938 0.494 2.023 1.617 2.157 0.972 0.162 0.796-0.823 1.619-0.809 1.529 0.627 1.76 2.553 4.044 2.427 0.38-0.699 0.332-1.825 1.617-1.618 0.399 1.173-0.14 1.706 0.54 2.695 4.45-0.023 7.915-1.189 10.245-3.504 1.319 0.513 2.228-1.487 3.776-1.618 0.248-1.238-0.676-1.303-0.54-2.427h1.887c-0.31 0.848 0.423 0.655 0.539 1.079 2.008-0.508 3.02-2.012 4.584-2.965-0.718-0.093-0.91-0.708-1.079-1.349 0.403-0.316 0.318-1.12 1.079-1.078 0.852 0.137 0.437 1.54 1.077 1.888 2.245-1.261 4.246-2.766 6.741-3.775 1.251-3.787 0.294-9.498-0.27-13.213-0.793-0.497-1.712-0.414-2.425-1.347 0.658-2.122 1.806-4.438-0.271-5.932 0.167-2.403-1.771-2.497-3.506-2.965-0.049-0.013 0.05-0.522 0-0.54-0.466-0.157-1.9-0.003-1.888 0-0.069-0.02-0.162-0.513-0.27-0.539-0.463-0.108-0.878 0.307-1.077 0.269-0.188-0.035-0.338-0.468-0.81-0.539-1.031-0.157-2.032 0.095-2.697-0.27-0.344 0.555-0.43 1.368-1.347 1.348-0.518-0.381-0.489-1.31-0.81-1.887-2.124 0.443-3.967-0.622-4.854-0.54 0.062 0.51-0.303 0.595-0.27 1.079 0.867-0.025 1.858 0.398 2.427 1.348-0.239 1.198-1.799 1.075-2.427 1.887-0.02 1.01 1.909 0.068 1.889 1.078 0.215 1.474-0.415 2.104-1.889 1.888-0.404 0.724 0.441 1.874-0.538 2.427-0.733-0.168-2.142 0.341-2.427-0.27-0.338-1.505 1.11-1.228 1.887-1.618-1.154-0.844-0.178-2.504-1.348-2.966-0.046 0.314-0.428 0.293-0.81 0.27 0.248 1.159 0.274 2.957-1.08 3.235-0.673 0.045-0.842-0.415-1.077-0.81 0.274-0.354 0.263-0.994 0.54-1.349-0.671-0.041-0.836 0.425-1.349 0.54-0.141-0.399-0.399-0.679-0.54-1.079 1.047-2.041 0.43-4.7-0.268-7.279-2.172 0.38-3.638 0.76-5.117 2.18zm26.423 32.35c-1.018-0.121-0.389 1.409-1.077 1.617-0.85 0.129-1.056-0.384-1.619-0.539 0.187 0.725-0.558 0.521-0.808 0.809-0.06 0.868 0.476 1.141 0.27 2.157 1.492-0.415 0.814 1.342 1.348 1.888 0.764 0.046 1.85-0.232 1.887 0.539-0.083 0.631-0.526 1.114 0 1.618h1.08c0.794-1.314-0.507-1.713-0.271-3.236 0.762 0.046 1.85-0.231 1.888 0.54-0.67 1.488 0.296 1.74 0.81 2.697 0.07 0.636-1.453 1.029-0.54 1.617 0.753-0.237 2.025-0.285 2.696 0.54 0.355 1.254-0.895 0.902-0.539 2.157 1.007 0.024 0.768 0.302 1.617 0 0.504-4.229-2.46-7.218-3.774-10.516-1.511 0.07-2.718-0.94-2.968-1.9zm-5.931 5.67c0.514 0.115 0.676 0.581 1.347 0.539 0.355-0.434 0.582-2.375-0.27-2.426-0.175 0.81-0.86 1.11-1.077 1.89zm-1.619-0.54c0.015-0.463-0.207-0.691-0.538-0.809-0.015 0.46 0.207 0.69 0.538 0.81zm-31.815 1.34c0.999 0.349 1.196 1.5 2.964 1.079 0.345-0.701 0.593-0.813 0.27-1.617-1.057 0.82-2.397-1.16-3.234 0.54zm40.445 4.05h-1.35c-0.854-1.673-3.009-1.177-3.774-2.427-3.359-0.162-5.185-2.145-7.28-2.157-1.514 2.177-4.606 2.276-7.281 3.774-1.878-0.501-4.617-0.554-6.471-1.348-2.92-1.252-4.163-0.794-6.741-1.079-1.955 1.626-4.549 1.409-6.471 2.697-0.066 0.045-0.705 0.703-0.81 0.809-0.36 0.37-0.472 0.766-0.808 1.079-0.536 0.498-1.369 0.759-1.887 1.348-0.847 0.961-1.112 2.638-2.427 3.235-0.263 3.079-2.142 5.531-2.157 8.628-0.013 2.349 0.625 4.833 1.347 7.28-0.202-1.189 0.208-1.77 0.81-2.157 0.674 0.714 1.834 0.144 1.617 2.157-0.623 0.72-2.069-0.184-2.427 0.27-0.195 0.824 0.276 0.982 0.27 1.617 1.841-0.196 2.188-0.312 3.236-1.079-0.02-0.917-0.085-1.881 0.538-2.157 1.51-0.429 1 1.156 1.887 1.348 0.715-0.226 2.602-1.015 3.236-2.157 4.272 0.078 5.512-2.984 10.515-3.235 0.033-0.278 0.042-0.448 0.27-0.54 1.529-0.618 2.209-0.615 4.314-1.078 0.834-1.863 4.601-0.792 5.663-2.427 2.866 0.336 4.821-1.125 7.549-1.617 4.248-0.766 8.836-0.77 12.403-2.697 0.058-1.404-0.138-2.558-1.079-2.966-0.463 0.704-1.133 1.204-1.887 1.618-0.312-0.677-1.073-0.904-1.078-1.888 0.487-0.895 1.596-0.568 2.157-0.809 0.161-2.12-1.305-2.63-1.884-4.03zm-42.601 0c0.472-0.605 1.112-1.043 1.887-1.348 0.011-0.821 0.156-1.775-0.81-1.618-0.031 1.15-1.891 1.87-1.077 2.97zm42.061 22.11c-0.031 0.329-0.081 0.639-0.54 0.539-0.009-1.259-0.612-0.364-1.077-0.539-0.09-0.034-0.149-0.502-0.27-0.54-0.6-0.184-1.341 0.14-1.888 0-0.254-0.065-0.653-0.401-1.079-0.539-0.883-0.287-1.133-0.246-2.427-0.54-0.885-0.201-1.659-1.049-2.697-1.349 0.016 0.004-0.682 0.302-0.807 0.27-0.671-0.171-0.674-0.493-1.08-0.539-2.109-0.244-3.515 0.391-4.854 0.539-1.092 0.122-2.479-0.255-3.504 0-0.452 0.113-1.062 0.844-1.617 1.079-0.799 0.338-1.745 0.263-2.427 0.54-0.182 0.073-0.575 0.711-0.81 0.809-1.514 0.63-3.05 1.231-4.584 1.887-3.123 4.278-7.991 10.489-7.55 17.528 0.197 3.122 2.295 6.749 4.046 8.355-0.432-0.641-0.665-1.286 0-1.887 0.994-0.005 1.856 0.122 1.887 1.079 0.176 1.255-1.218 0.941-1.619 1.617 1.156 0.691 1.237 2.293 2.159 3.236 0.107 0.11 0.897 0.22 1.347 0.54 0.395 0.278 0.511 0.894 0.81 1.077 0.261 0.16 0.796-0.129 1.077 0 0.127 0.06 0.301 0.696 0.54 0.81 2.567 1.231 4.007 1.003 5.931 1.617 0.858 0.274 1.889 1.102 2.966 1.35 4.742 1.089 9.464-0.549 11.864-0.271 0.626-1.071 1.942-0.799 2.965-1.348 1.151-0.614 2.407-1.913 2.696-2.157 0.735-0.023 0.542 0.45 1.08 0 0.774-0.48 1.093-1.422 2.156-1.617 0.397-0.95 1.062-1.632 1.617-2.427 0.354-0.276 0.994-0.263 1.348-0.54 3.142-5.735 3.493-15.083 1.35-22.109-1.054-0.295-1.126-1.571-1.35-2.697-1.964-0.35-3.403-2.88-5.659-3.77zm10.515 48.26c-1.582-0.32-3.528-2.082-4.313-4.044-2.019-0.354-3.146-2.916-4.854-2.696 0.157-1.056-1.108-0.689-1.348-1.348-0.459-0.062-0.667 0.303 0 0.271 0.391 0.419 0.566 1.051 0.808 1.616-0.553 0.075-0.253 1.006-0.808 1.08-0.634-0.395-0.604-0.672-1.08 0-1.024-0.764-0.408-2.372 0.271-2.967-0.396-0.625-0.854 0.526-0.808-0.54-1.147 0.202-1.839 0.86-1.619 2.427-1.087 0.378-1.519 0.902-2.157-0.27-0.296-1.556 1.058-1.459 0.81-2.964-2.613-0.308-3.157 0.768-5.931 0.539-0.145 0.935 0.399 2.557-0.54 2.694-1.253-0.006-0.83-1.687-1.35-2.427-2.211 2.18 2.535 4.819 0 6.474-1.051-0.479-1.312-1.745-2.427-2.159-0.498-0.987 0.31-3.349-0.808-4.314-0.88 0.338-1.889-0.065-4.044-0.539-0.564 0.335-1.014 0.785-1.349 1.35 0.437 0.372 1.391 0.228 1.617 0.81 0.237 1.312-0.915 1.239-1.348 1.887 0.083-0.623-0.779-0.301-0.81-0.81-0.175-0.985 0.584-1.033 0.54-1.887-0.566-0.683-1.051 0.68-1.617 0-0.026 1.051-0.733 1.424-1.617 1.616-0.235 1.821-2.069 1.534-2.967 1.888-0.862 0.34-1.926 1.429-2.697 1.619-0.417 0.101-0.02-0.32-0.54 0.268-0.105 0.123-0.658-0.079-0.808 0-2.036 1.075-2.706 2.738-5.394 2.427-0.955 1.475-3.383 1.471-4.044 3.236-0.062-0.208-0.006-0.533-0.27-0.539 0.079 3.534-0.663 6.936 0 10.244 1.146 0.524 0.889 2.15 1.348 3.237 0.401 0.945 1.542 1.771 1.08 3.236 1.764 2.01 1.823 5.727 3.774 7.548-0.285-1.086-0.354-1.938 1.08-1.887 0.855 0.222 1.134 1.999 0.27 2.427-0.399-0.141-0.68-0.399-1.08-0.54-0.167 1.156 0.877 1.102 0.81 2.159 3.985 0.188 10.15-0.028 13.751-0.271 0.366-0.711 0.318-1.837 0.538-2.695-0.108-0.521-1.233-0.023-0.808-1.079 0.645-0.255 1.093-0.702 1.347-1.348 1.485-0.228 1.804 0.714 2.157 1.617-0.917-0.467-1.371 0.417-1.887 1.077 1.207 0.323 1.005 2.052 2.157 2.428 1.213-0.702 2.585-0.479 4.854-0.538 0.263-1.084 0.75-1.946 2.427-1.617 0.085 0.364 0.384 0.514 0.27 1.077 1.461-0.245 3.487 0.072 4.314-0.81 0.022 1.058 0.303 0.11 0.54 0 1.237-0.57 2.291-0.463 2.427-1.077 1.394 0.136 1.753-0.764 3.234-0.54 0.315-0.709 0.336-0.938 0.81-0.27v-0.808h1.077c3.187-3.734 5.6-8.241 7.28-13.481 0.531 0.079 0.536-0.364 0.811-0.54 0.16-2.624 1.516-4.055 1.617-6.74-0.895-1.19-2.056-2.1-2.696-3.53zm-1.348 29.93c-0.111-0.845-2.354-2.521-2.966-2.696 0.105 0.03-0.808 0.539-0.81 0.539-1.396 0.007-2.146-0.755-2.965-0.81-2.703-0.18-4.285 1.9-7.28 2.697-1.905 0.507-4.268 0.015-6.201 0.27-2.354 0.312-6.188 1.198-7.82 0.54-1.536 1.158-2.598 2.883-3.774 4.313-2.427 2.949-2.892 6.736-4.854 10.515-0.814 5.888-1.509 13.381 2.157 16.719 2.602-0.718 4.514-2.682 6.471-5.124 3.399-1.725 6.304-3.943 8.628-6.741 0.805-0.004 0.917-0.702 1.619-0.807 0.403-0.764 1.188-1.15 1.348-2.159 0.734-0.024 0.542 0.449 1.079 0 1.424-2.71 4.156-4.112 5.661-6.741 2.773-1.102 3.704-3.866 5.932-4.854 0.195-2.86 4.135-2.93 3.775-5.67zm-37.747 5.66c0.219-0.43 1.021-1.646 0.268-2.154-0.404 0.577-0.658-0.193-1.347 0.268-0.467-0.61 0.103-2.261-0.81-2.427 0.035 0.484-0.268 0.632-0.808 0.539-0.154 1.233 0.661 1.497 0.808 2.427 1.682-0.61 1.049 1.1 1.889 1.34zm-4.854 1.08c2.058-0.737 2.122 2.561 0.538 2.427-0.389-0.422-1.084-0.531-0.808-1.617-2.039 1.102 0.103 4.157-0.27 6.2 0.896 0.762 0.845-1.151 2.157-0.81 0.632 0.088 0.603 0.834 1.08 1.08 0.676-0.413 0.807-2.773 0.268-3.507 0.046 1.137-0.413-0.004-0.808 0 0.107 1.008-0.215 1.584-1.08 1.619-1.165-0.116-1.63-1.461-0.808-2.159 0.933-0.21 1.137 0.301 1.617 0.54 0.165-0.645-0.338-1.955 0.27-2.154h1.617c0.226-0.584 0.698-0.922 0.54-1.89-2.304 0.507-1.786-1.808-3.506-1.887-0.076 0.91-1.013 0.97-0.807 2.16zm0 8.36c-0.002 0.005 0.263-0.013 0.27 0 0.862 1.44-0.121-0.9-0.27 0zm3.234 2.16c0.207-1.462-1.097-1.418-1.887-1.888-0.002 1.26 0.887 1.63 1.887 1.89zm14.561 10.24c-0.605 0.75-1.082 1.007-1.887 0.808-0.926 2.312-3.612 2.861-4.854 4.854-0.463 0.761-1.06-0.102-1.08 0.81-2.878 3.868-1.74 12.338 0.81 15.639 0.676 0.873 2.073 1.347 2.697 2.156 0.746 0.97 0.867 1.562 1.347 1.888 4.25 1.669 9.358 2.946 14.561 2.427 0.649-0.063 2.146-0.753 2.694-1.078 0.806-0.478 1.367-0.14 2.157-0.539 0.691-0.35 1.253-1.216 1.889-1.62 1.385-0.877 2.353-1.049 3.234-1.887 1.019-0.963 1.67-1.931 2.427-2.964 0.397-0.545 0.825-1.626 1.35-2.157 0.11-0.112 0.522 0.195 0.808-0.271 1.721-2.8 2.076-6.571 2.967-9.437-0.472 0-0.452-0.119-0.54-0.54-0.38-1.809-0.248-3.72-0.81-5.394-0.711-2.129-2.604-3.555-2.965-5.661-1.399-0.854-1.989-2.58-3.236-3.504-0.935-0.696-2.194-0.586-3.234-1.08-0.68-0.322-0.741-1.016-1.619-1.347-0.715-0.272-2.032 0.151-2.964-0.271-0.016-0.164-0.042-0.32-0.271-0.27-0.546 1.049-2.133 1.095-2.696 0.81-1.446 1.07-3.215 1.816-4.044 3.504 0.84 0.239 1.569 0.588 1.347 1.888-0.355 0.004-0.245 0.472-0.539 0.539-2.098 0.369-1.142-1.762-1.618-2.427-1.137 1.133-3.076 2.293-3.234 5.124-1.162 0.37-1.024-0.03-2.697 0zm-15.098-8.63c-0.198 0.222-0.812 0.324-1.35 0-0.333 1.58 2.456 0.99 1.35 0zm0.268 5.13c-0.083-0.813 0.3-2.096-0.538-2.154-0.046 0.94 0.071 1.72 0.538 2.15zm43.95 19.68c0.542 2.159-1.35 1.887-1.35 3.506h2.427c0.491-1.114-0.421-2.343 1.08-2.696 1.075-0.176 0.772 1.024 0.81 1.89 1.239 0.104 1.746 0.947 3.234 0.807-0.413 1.223 1.76-0.143 1.347 1.08 3.026-0.301 4.966 3.928 7.551 4.044 0.643-1.123-0.433-1.573-0.54-2.696-1.422 0.037-1.74 0.364-2.427-0.54-0.257-1.156 0.757-1.04 0.81-1.888-1.688-2.566-4.281-4.577-7.011-4.044 0.391 0.689 1.4 0.758 1.08 2.157-1.183 0.491-1.865-0.051-2.697-1.079 0.178-0.566 0.714-1.198 0.271-1.617-2.07-0.18-3.645 0.13-4.585 1.08zm10.785 8.36c-0.254-0.149-0.792 0.013-0.81 0-0.47-0.367-0.634-1.304-1.347-1.62-0.676-0.298-1.689 0.005-2.427-0.268-0.064-0.023 0.063-0.507 0-0.539-1.212-0.619-3.869-1.023-4.584-1.08-1.564 2.08-5.543 1.084-6.471 3.236 1.839 0.211 2.352 0.248 5.123 0.271 2.493 1.973 6.317 1.764 9.168 4.044 0.063-0.696 0.463 0.37 1.077 0 0.651-0.786 1.674-1.203 1.887-2.427-0.508-0.47-0.815-1.15-1.616-1.61zm-43.681 5.12c-0.955 0.057-0.531-1.264-1.617-1.077-2.688 0.621-6.363 1.2-9.168 2.427-1.362 4.549-1.573 10.14-1.347 15.099 0.558 0.162 1.771-0.334 1.887 0.27v1.35c-1.044 0.03-1.946 0.211-1.617 1.617 2.657-1.387 4.514-3.574 5.931-6.203-1.146 0.248-1.358-0.438-1.617-1.077 0.522-0.288 0.704-0.913 1.077-1.348 0.483 0.597 0.893 1.264 1.62 1.617 1.775-2.001 3.925-3.625 5.121-6.201 0.619 0.538 1.084-0.711 1.62-1.079 2.333-1.262 4.83-2.361 5.931-4.854-1.734 0.109-4.294-0.737-6.741-1.888 0.112 0.91-0.081 1.53-1.08 1.34zm15.101 24.81c0.362 4.63 0.003 9.289 0.808 12.402 0-0.002-0.351 0.403 0.271 0 0.162 2.175-0.681 5.354 1.35 5.661 0.164-2.231-0.32-3.813-0.811-5.392 0.889-1.762 0.149-3.574 0-5.391-0.396-4.841-0.335-10.116-0.539-15.371-1.174-1.073-0.696-3.798-1.617-5.123-0.837 4.77 0.213 9.05 0.538 13.21zm2.427 22.92c0.518-0.715 0.309-2.506-0.271-2.964-0.42 0.89-0.274 2.27 0.271 2.96z"></path> <path style="clip-rule:evenodd;fill-rule:evenodd" d="m27.926 41.254c-0.45-0.275-0.996 0.264-1.077 0.269-0.845 0.066-0.755-0.467-1.617-1.079-1.666-1.178-3.732-3.036-4.854-4.584 0.305-1.454-0.566-2.351-0.27-4.044 0.241-1.384 1.584-2.39 1.617-3.505 0.035-1.192-1.505-3.586-2.427-5.663-0.847-1.911-1.979-3.972-2.427-5.662-0.226-0.859-0.338-1.928-0.538-2.965-0.204-1.047-0.586-2.448-0.54-3.236 0.112-1.951 1.97-5.933 4.314-6.472 2.251-0.518 3.587 1.098 6.471 1.618 1.639 3.207 2.46 5.509 2.697 9.167 0.057 0.889 0.057 1.848 0 2.696-0.224 3.338-2.096 6.397-1.887 9.167 0.077 1.027 0.843 1.705 1.078 2.697 0.555 2.326 0.406 5.599 0.27 8.089-0.064 1.17-0.211 2.485-0.81 3.507zm-1.347-11.594c-0.323-0.832-1.211-1.004-1.347-1.887-0.252-1.627 0.526-3.129 1.077-4.854 0.546-1.71 1.247-3.329 1.35-4.314 0.191-1.87-0.103-3.463-0.54-5.662-0.513-2.305-2.064-7.808-7.01-6.472-3.965 2.421-1.374 7.729-1.08 12.404 1.031 0.484 0.638 1.629 1.08 2.426 0.371 0.672 1.171 1.119 1.617 1.888 0.52 0.897 1.055 2.094 1.349 2.966 0.915 2.722-0.496 3.457-0.81 5.662-0.244 1.704 0.059 2.761 0.54 4.584 1.514 0.552 2.064 2.068 3.774 2.427 0.02-3.333 1.018-6.55 0-9.168z"></path> <path style="clip-rule:evenodd;fill-rule:evenodd" d="m40.331 130.5c0.735 0.665-0.733 1.409-0.81 2.157-1.336 0.258-1.356-0.8-1.887-1.348 0.739-0.429 0.783-1.553 2.157-1.349-0.071 0.46 0.609 1.7 0.54 0.54z"></path> <path style="clip-rule:evenodd;fill-rule:evenodd" d="m44.645 218.67c0.169 0.313 0.138 0.704 0.81 1.077-0.654 1.566-0.461 2.376-1.08 3.773-1.224 0.058-1.722-0.609-1.617-1.887 0.848 0.134 0.711-0.928 1.348-0.268-0.104-0.706-0.864-0.755-0.54-1.887 0.864 0.24 0.843-0.41 1.079-0.8z"></path> <path style="clip-rule:evenodd;fill-rule:evenodd" d="m48.148 230.53h2.427c0.977 1.466-1.191 1.766-1.077 2.154-0.387 0.06-2.102-0.87-1.35-2.15z"></path> <metadata></metadata></svg> 