<?xml version="1.0" encoding="UTF-8" standalone="no"?> <!-- Created with Inkscape (http://www.inkscape.org/) --> <svg xmlns:rdf="http://www.w3.org/1999/02/22-rdf-syntax-ns#" xmlns="http://www.w3.org/2000/svg" xmlns:cc="http://web.resource.org/cc/" xmlns:dc="http://purl.org/dc/elements/1.1/" xmlns:svg="http://www.w3.org/2000/svg" xmlns:inkscape="http://www.inkscape.org/namespaces/inkscape" xmlns:sodipodi="http://sodipodi.sourceforge.net/DTD/sodipodi-0.dtd" xmlns:ns1="http://sozi.baierouge.fr" xmlns:xlink="http://www.w3.org/1999/xlink" id="svg2" xml:space="preserve" viewBox="0 0 402.869 877.923" inkscape:version="0.91 r13725"> <g id="Layer_1"> <g id="g7"> <polygon id="polygon9" style="fill:#4f360c" points="362.92 291.94 355.92 296.61 341.03 296.16 348.18 291.35"></polygon> <polygon id="polygon11" style="fill:#422b0b" points="45.381 296.61 38.407 291.94 53.343 291.35 60.464 296.16"></polygon> <polygon id="polygon13" style="fill:#543a0c" points="212.01 180.75 204.81 186.5 204.53 161.26 211.47 155.62"></polygon> <polygon id="polygon15" style="fill:#4a320b" points="348.18 291.35 341.03 296.16 204.81 186.5 212.01 180.75"></polygon> <polygon id="polygon17" style="fill:#543a0c" points="53.343 291.35 38.407 291.94 58.281 264.5 190.4 155.62 190.12 180.75"></polygon> <polygon id="polygon19" style="fill:#4a320b" points="60.464 296.16 53.343 291.35 190.12 180.75 197.3 186.5"></polygon> <polygon id="polygon21" style="fill:#71540e" points="197.3 186.5 190.12 180.75 190.4 155.62 197.31 161.26"></polygon> <polygon id="polygon23" style="fill:#71540e" points="348.18 291.35 212.01 180.75 211.47 155.62 343.02 264.5 362.92 291.94"></polygon> <polygon id="polygon25" style="fill:#543a0c" points="188.7 113.54 173.4 126.56 144.17 877.92 177.63 877.92"></polygon> <polygon id="polygon27" style="fill:#4a320b" points="22.613 39.843 29.739 32.701 188.01 161.26 180.8 167.18"></polygon> <polygon id="polygon29" style="fill:#543a0c" points="0 7.256 6.967 0 29.739 32.701 22.613 39.843"></polygon> <g id="g31"> <polygon id="polygon33" style="fill:#71540e" points="209.61 116.39 224.78 877.92 250.79 877.92 221.56 126.56"></polygon> </g> <polygon id="polygon35" style="fill:#4a320b" points="373.22 32.701 380.31 39.843 217.74 170.12 210.56 164.22"></polygon> <polygon id="polygon37" style="fill:#7f610e" points="395.94 0 402.87 7.256 380.31 39.843 373.22 32.701"></polygon> <polygon id="polygon39" style="fill:#71540e" points="29.739 32.701 6.967 0 36.694 10.938 197.3 143.89 197.3 168.8"></polygon> <polygon id="polygon41" style="fill:#543a0c" points="197.48 877.92 197.48 106.06 188.7 113.54 177.63 877.92"></polygon> <polygon id="polygon43" style="fill:#543a0c" points="373.22 32.701 204.91 168.8 204.63 143.89 365.94 10.938 395.94 0"></polygon> <polygon id="polygon45" style="fill:#71540e" points="224.78 877.92 209.61 116.39 197.48 106.06 197.48 877.92"></polygon> </g> </g> <metadata></metadata></svg> 