<?xml version="1.0" encoding="UTF-8" standalone="no"?> <!-- Generator: Adobe Illustrator 13.0.2, SVG Export Plug-In . SVG Version: 6.00 Build 14948) --> <svg xmlns:rdf="http://www.w3.org/1999/02/22-rdf-syntax-ns#" xmlns="http://www.w3.org/2000/svg" xmlns:cc="http://web.resource.org/cc/" xmlns:xlink="http://www.w3.org/1999/xlink" xmlns:dc="http://purl.org/dc/elements/1.1/" xmlns:svg="http://www.w3.org/2000/svg" xmlns:inkscape="http://www.inkscape.org/namespaces/inkscape" xmlns:sodipodi="http://sodipodi.sourceforge.net/DTD/sodipodi-0.dtd" xmlns:ns1="http://sozi.baierouge.fr" id="Layer_1" style="enable-background:new 0 0 264.893 182.527" xml:space="preserve" viewBox="0 0 264.893 182.527" y="0px" x="0px"> <path style="clip-rule:evenodd;fill-rule:evenodd" d="m97.316 2.491c0.72-0.17 0.858 0.241 1.413 0.236 0.016 1.429-0.871 1.955-0.706 3.535h-1.649c-0.199-1.769 0.921-2.221 0.942-3.771z"></path> <path style="clip-rule:evenodd;fill-rule:evenodd" d="m103.91 4.376c0.886-0.178 0.797 0.617 1.179 0.942 0.106 0.971-0.844 0.884-0.942 1.649-0.441-0.714-0.278-0.57-1.179-0.707-0.171-0.721 0.406-0.693 0.236-1.415 0.62 0.064 0.77 0.488 0.7-0.469z"></path> <path style="clip-rule:evenodd;fill-rule:evenodd" d="m99.673 5.319c0.859 0.479 0.195 1.41 0.235 2.357-0.74 0.161-0.963-0.028-1.179 0.235-1.051-1.004 0.166-2.071 0.944-2.592z"></path> <path style="clip-rule:evenodd;fill-rule:evenodd" d="m118.52 5.555c0.738 1.354-1.147 2.535-2.121 1.414 0.16-1.017 0.84-1.516 2.12-1.414z"></path> <path style="clip-rule:evenodd;fill-rule:evenodd" d="m122.53 5.555c0.411 0.806 0.125 1.688-0.235 2.356-1.183 0.161-1.476-0.566-1.649-1.413 0.98 0.044 0.72-1.158 1.88-0.943z"></path> <path style="clip-rule:evenodd;fill-rule:evenodd" d="m89.305 6.262c0.211 1.076-0.393 1.335-0.472 2.121h-1.414c-0.491-1.089 0.893-2.516 1.886-2.121z"></path> <path style="clip-rule:evenodd;fill-rule:evenodd" d="m113.1 6.026c0.586-0.037 0.729 0.37 1.178 0.472 0.138 0.922-0.202 1.368-0.471 1.885-0.726-0.165-0.452-0.165-1.179 0-0.53-0.957 0.13-1.63 0.47-2.357z"></path> <path style="clip-rule:evenodd;fill-rule:evenodd" d="m93.311 6.262c0.31 0.731-0.064 0.672 0 1.649h-1.65c0.172-0.72-0.406-0.693-0.235-1.413 0.758 0.051 0.997-0.417 1.885-0.236z"></path> <path style="clip-rule:evenodd;fill-rule:evenodd" d="m95.195 6.968c0.227 0.403 0.74 0.517 1.179 0.708 0.012 1.576-1.96 1.916-2.121 0.471-0.178-0.884 0.9-0.514 0.942-1.179z"></path> <path style="clip-rule:evenodd;fill-rule:evenodd" d="m103.21 7.676c0.089 0.796-0.409 1.005-0.708 1.414-1.13 0.266-0.829-0.898-1.413-1.179 0.35-0.86 1.49-0.835 2.12-0.235z"></path> <path style="clip-rule:evenodd;fill-rule:evenodd" d="m115.7 7.204c0.892-0.341 0.453 0.647 1.179 0.472 0.153 1.018-0.407 1.32-0.706 1.885-0.788-0.475-1.632-0.388-1.179-1.885 0.47 0.079 0.74-0.048 0.71-0.472z"></path> <path style="clip-rule:evenodd;fill-rule:evenodd" d="m123.94 7.44c0.793-0.164 0.772 0.484 1.178 0.707 0.205 0.912-0.575 0.839-0.706 1.415 0.212 0.416 0.568 0.688 0.706 1.177-0.142 0.879-0.886 1.157-0.942 2.121-1.241-0.426-0.585-1.952-0.942-2.828-0.792-0.085-0.393 1.021-0.707 1.414-0.473-0.08-0.737 0.048-0.706 0.471-0.65-0.339-0.894-1.084-0.472-1.885h1.178v-1.413c0.94 0.077 1.4-0.329 1.41-1.179z"></path> <path style="clip-rule:evenodd;fill-rule:evenodd" d="m108.16 7.911c0.789 0.285 1.309 1.099 0.942 1.886-0.314 0.335-1.335 0.335-1.65 0 0.039-0.274-0.052-0.42-0.234-0.472 0-0.775 1-0.564 0.94-1.414z"></path> <path style="clip-rule:evenodd;fill-rule:evenodd" d="m127.24 7.911c0.369 0.745-0.129 1.035-0.235 1.886-0.472 0-0.943-0.001-1.414 0v-1.415c0.93 0.219 0.6-0.82 1.65-0.471z"></path> <path style="clip-rule:evenodd;fill-rule:evenodd" d="m116.64 14.745c-0.74 0.162-0.963-0.027-1.179 0.236-2.182-1.947 1.938-2.445 1.885-4.477 0.881-0.022 0.673-0.265 1.415 0-0.198-1.533 0.567-2.103 1.648-2.357 0.764 0.529 0.237 1.749-0.235 2.357-1.436-0.258-1.743 0.613-1.649 1.885-1.38 0.037-1.75 1.086-1.89 2.356z"></path> <path style="clip-rule:evenodd;fill-rule:evenodd" d="m90.482 8.382c1.691 0.343 0.432 2.554-0.235 2.356-1.093-0.427-0.464-1.843 0.235-2.356z"></path> <path style="clip-rule:evenodd;fill-rule:evenodd" d="m87.655 8.854c0.309 1.331-0.936 1.108-0.942 2.121-0.441-0.188-0.864-0.393-1.415-0.471-0.17-0.721 0.407-0.693 0.236-1.414 1.028 0.238 1.259-1.029 2.121-0.236z"></path> <path style="clip-rule:evenodd;fill-rule:evenodd" d="m129.36 8.619c0.953 0.265 1.021 1.542 0.472 2.12-0.515 0.151-0.75-0.667-0.708 0.236-0.8-0.406-1.043-0.848-0.706-1.885 0.43-0.054 1.19 0.237 0.95-0.471z"></path> <path style="clip-rule:evenodd;fill-rule:evenodd" d="m112.16 9.325c0.062 0.849-0.435 1.135-0.472 1.885h-1.178c-0.71-1.343 0.36-2.482 1.65-1.885z"></path> <path style="clip-rule:evenodd;fill-rule:evenodd" d="m78.464 9.325c0.869 0.204 0.412 1.996 0.236 2.592-0.88 0.095-1.382-0.188-1.414-0.943 0.177-0.765 0.898-0.987 1.178-1.649z"></path> <path style="clip-rule:evenodd;fill-rule:evenodd" d="m104.86 9.325c-0.038 0.274 0.052 0.419 0.236 0.472 0.252 0.88-0.585 0.671-0.472 1.414-0.88-0.021-0.671-0.265-1.413 0-0.44-1.186 0.01-2.136 1.64-1.886z"></path> <path style="clip-rule:evenodd;fill-rule:evenodd" d="m94.253 10.268c-0.24 0.31-0.231 0.869-0.472 1.178h-1.178c-0.136-0.493-0.585-0.673-0.472-1.414 0.732-0.681 1.502-0.335 2.122 0.236z"></path> <path style="clip-rule:evenodd;fill-rule:evenodd" d="m100.38 11.682c-0.007-0.23-0.288-0.184-0.472-0.236-0.416-3.469 3.502-0.042 0.472 0.236z"></path> <path style="clip-rule:evenodd;fill-rule:evenodd" d="m132.66 10.032c-0.014 1.322-0.46 2.212-1.415 2.592-0.007-0.228-0.288-0.182-0.471-0.235v-1.885c0.97 0.174 0.82-0.76 1.89-0.472z"></path> <path style="clip-rule:evenodd;fill-rule:evenodd" d="m114.28 12.153c-1.182 0.161-1.475-0.567-1.649-1.415 0.93-1.124 2.59 0.113 1.65 1.415z"></path> <path style="clip-rule:evenodd;fill-rule:evenodd" d="m82.941 10.503c0.111 1.21-0.438 1.761-1.649 1.649-0.798-1.09 0.25-2.009 1.649-1.649z"></path> <path style="clip-rule:evenodd;fill-rule:evenodd" d="m106.51 10.738c0.764-0.291 0.181 0.763 0.942 0.472 0.14 0.846-0.272 1.14-0.471 1.649-0.666 0.195-0.61-0.332-1.178-0.236-0.31-1.172 0.72-1.001 0.71-1.885z"></path> <path style="clip-rule:evenodd;fill-rule:evenodd" d="m86.241 11.682c-0.083 0.703-1.127 0.444-0.707 1.649-1.14 0.197-1.588-0.297-1.65-1.178 0.64-0.384 1.574-1.607 2.357-0.471z"></path> <path style="clip-rule:evenodd;fill-rule:evenodd" d="m127.72 11.446c0.145 1.009-0.767 0.961-0.707 1.885-1.14 0.197-1.587-0.297-1.649-1.178 0.92-0.497 0.98-1.104 2.36-0.707z"></path> <path style="clip-rule:evenodd;fill-rule:evenodd" d="m73.751 11.446c0.419-0.141 0.978 0.69 1.179 0 0.35 0.2 0.34 0.759 0.471 1.178-0.76-0.21-0.331 0.769-0.707 0.943h-1.179c-0.789-0.841-0.031-1.197 0.236-2.121z"></path> <path style="clip-rule:evenodd;fill-rule:evenodd" d="m102.5 11.446c0.24 0.153 0.244 0.542 0.708 0.471 0.119 0.985-0.132 1.596-0.472 2.121-0.527-0.204-0.972-0.006-1.414-0.707 0.13-0.881 0.82-1.219 1.17-1.885z"></path> <path style="clip-rule:evenodd;fill-rule:evenodd" d="m88.833 12.153v1.178c-0.738 0.047-0.796 0.775-1.649 0.707-0.641-1.041 0.467-2.713 1.649-1.885z"></path> <path style="clip-rule:evenodd;fill-rule:evenodd" d="m91.425 11.917c0.21 0.183 0.532 0.254 0.943 0.236 0.296 1.029 0.068 1.048-0.236 1.885-0.991 0.285-1.033-0.38-1.649-0.471-0.082-0.945 0.584-1.144 0.942-1.65z"></path> <path style="clip-rule:evenodd;fill-rule:evenodd" d="m96.845 12.624c-0.431 0.355-0.722 0.85-0.707 1.65-1.298 0.198-1.958-0.242-1.885-1.415 1.018-0.318 1.761-1.658 2.592-0.235z"></path> <path style="clip-rule:evenodd;fill-rule:evenodd" d="m110.04 12.153c0.82 1.405-1.484 3.045-2.356 1.414 0.43-1.001 0.98-1.999 2.36-1.414z"></path> <path style="clip-rule:evenodd;fill-rule:evenodd" d="m119.47 12.153c0.726-0.177 0.288 0.812 1.179 0.471-0.271 0.279-0.267 0.833-0.236 1.414h-1.648c0.097-0.567-0.431-0.512-0.236-1.178 0.18-0.377 1.16 0.053 0.95-0.707z"></path> <path style="clip-rule:evenodd;fill-rule:evenodd" d="m130.31 12.859c-0.116 1.062-1.001 1.805-1.413 1.885-1.83-0.743 0.52-3.894 1.41-1.885z"></path> <path style="clip-rule:evenodd;fill-rule:evenodd" d="m77.522 12.624c0.046 0.911 0.008 1.737-0.236 2.357-1 0.215-1.186-0.385-1.414-0.943 0.242-0.78 0.653-1.39 1.65-1.414z"></path> <path style="clip-rule:evenodd;fill-rule:evenodd" d="m81.056 12.624c0.271 0.661 0.271 1.226 0 1.886-0.858 0.073-1.533-0.038-2.121-0.236-0.204-1.462 0.813-1.702 2.121-1.65z"></path> <path style="clip-rule:evenodd;fill-rule:evenodd" d="m121.82 12.624c1.382 0.242 0.837 3.521-0.943 2.829-0.61-1.411 0.82-1.522 0.94-2.829z"></path> <path style="clip-rule:evenodd;fill-rule:evenodd" d="m113.1 12.859c-0.175 0.726 0.646 0.454 0.472 1.178-0.738 0.126-0.758 0.972-1.886 0.707-0.46-0.965-0.02-2.149 1.42-1.885z"></path> <path style="clip-rule:evenodd;fill-rule:evenodd" d="m133.61 13.802c-0.165 1.085-1.397 2.118-2.593 1.415-0.24-1.576 1.7-2.395 2.59-1.415z"></path> <path style="clip-rule:evenodd;fill-rule:evenodd" d="m84.12 13.567c0.365 1.543-0.828 1.528-0.943 2.592-0.283-0.266-0.426-0.672-1.178-0.471 0.055-1.359 0.818-2.01 2.121-2.121z"></path> <path style="clip-rule:evenodd;fill-rule:evenodd" d="m104.62 13.802h0.708c0.822 1.072-0.032 1.444-0.473 2.357-0.69 0.271-0.875-1.13-1.178-0.471-0.319-0.074-0.196-0.591-0.236-0.943 0.76 0.047 1.02-0.394 1.18-0.943z"></path> <path style="clip-rule:evenodd;fill-rule:evenodd" d="m90.953 14.51c-0.077 0.55-0.282 0.973-0.471 1.413h-1.178c-0.076-0.553-0.372-0.884-0.236-1.649 0.399 0.268 1.311-0.714 1.885 0.236z"></path> <path style="clip-rule:evenodd;fill-rule:evenodd" d="m71.867 14.274h1.649c0.469 0.889-0.206 1.547-0.942 1.885-0.762 0.292-0.18-0.762-0.942-0.471-0.172-0.721 0.24-0.859 0.235-1.414z"></path> <path style="clip-rule:evenodd;fill-rule:evenodd" d="m124.18 14.274c-0.27 0.741 0.37 0.572 0.472 0.942 0.292 0.762-0.762 0.18-0.472 0.942-0.496-0.212-1.047-0.366-1.413-0.707-0.09-0.956 0.36-1.362 1.41-1.177z"></path> <path style="clip-rule:evenodd;fill-rule:evenodd" d="m101.79 15.923c-0.419 0.21-0.598 0.658-1.413 0.472-1.081-1.539 1.77-2.79 1.41-0.472z"></path> <path style="clip-rule:evenodd;fill-rule:evenodd" d="m107.92 14.745c0.097 1.04-0.064 1.822-0.473 2.357-1.67-0.074-1.15-2.436 0.47-2.357z"></path> <path style="clip-rule:evenodd;fill-rule:evenodd" d="m117.82 15.216c0.14 0.846-0.273 1.14-0.472 1.649-0.354-0.665-0.866-0.021-1.413-0.707-0.09-1.195 1.19-1.862 1.88-0.942z"></path> <path style="clip-rule:evenodd;fill-rule:evenodd" d="m127.48 14.745c0.845 0.145 0.392 1.586 0.235 2.121-0.567-0.096-0.512 0.43-1.179 0.236-0.326-0.145-0.035-0.907-0.472-0.943 0.21-0.731 0.85-1.027 1.41-1.414z"></path> <path style="clip-rule:evenodd;fill-rule:evenodd" d="m139.02 14.98v1.178c-0.828 0.191-0.862 0.962-1.649 0.707-0.425 1.146-0.816 2.325-2.591 2.121 0.194-0.666-0.333-0.611-0.236-1.178-0.469 0.003-0.3 0.644-0.942 0.472-0.131-0.42-0.122-0.979-0.472-1.178 0.183-0.681 0.86-0.868 1.178-1.414 0.423-0.031 0.497 0.288 0.943 0.235 0.036 0.586-0.37 0.73-0.471 1.179 0.571 0.502 1.005-0.561 2.119-0.236-0.21-1.47 0.99-2.527 2.12-1.886z"></path> <path style="clip-rule:evenodd;fill-rule:evenodd" d="m93.311 14.98c0.179 0.37 0.747 0.352 0.706 0.942-0.094 0.691-0.772 0.798-0.942 1.415-0.689 0.061-0.724-0.533-1.414-0.472v-1.178c0.489 0.42 1.141-0.426 1.65-0.707z"></path> <path style="clip-rule:evenodd;fill-rule:evenodd" d="m76.107 15.688c0.16 1.48-1.453 2.228-2.592 1.649 0.097-1.323 1.7-1.842 2.592-1.649z"></path> <path style="clip-rule:evenodd;fill-rule:evenodd" d="m77.05 15.688h1.414c-0.17 0.719 0.241 0.858 0.236 1.414-0.401-0.086-0.445 0.184-0.472 0.472-0.88 0.251-0.671-0.586-1.413-0.472-0.17-0.721 0.241-0.86 0.235-1.414z"></path> <path style="clip-rule:evenodd;fill-rule:evenodd" d="m84.826 15.688h2.121c-0.508 1.45 1.23 0.654 1.65 1.178 0.136 0.765-0.161 1.097-0.236 1.649-1.963-0.073-1.659-1.379-3.299-1.413 0.006-0.556-0.406-0.695-0.236-1.414z"></path> <path style="clip-rule:evenodd;fill-rule:evenodd" d="m114.28 15.688c-0.122 0.74-0.413 1.314-0.706 1.885-0.581 0.031-1.136 0.036-1.414-0.236 0.05-1.206 0.69-1.824 2.12-1.649z"></path> <path style="clip-rule:evenodd;fill-rule:evenodd" d="m119 15.688c0.891-0.341 0.452 0.647 1.178 0.471-0.294 0.963-0.724 1.791-1.413 2.356-0.469-0.16-0.539-0.717-0.943-0.941-0.05-1.065 1.05-0.986 1.17-1.886z"></path> <path style="clip-rule:evenodd;fill-rule:evenodd" d="m111.46 16.395c0.097 0.568-0.431 0.512-0.235 1.179-0.799 0.065-1.354 0.374-2.356 0.235v-1.414c0.92 0.069 1.87-0.611 2.6 0z"></path> <path style="clip-rule:evenodd;fill-rule:evenodd" d="m130.78 17.102c-0.173 1.689-1.287 0.7-2.121 0.942-0.43-2.031 1.62-2.288 2.12-0.942z"></path> <path style="clip-rule:evenodd;fill-rule:evenodd" d="m67.153 16.395c-0.271 0.66-0.271 1.225 0 1.885-0.575 0.494-0.501 0.336-1.414 0.235-0.271-0.81 0.037-2.264 1.414-2.12z"></path> <path style="clip-rule:evenodd;fill-rule:evenodd" d="m70.452 16.866h0.943c0.727 0.809 0.067 1.024 0 2.121-0.514 0.151-0.75-0.667-0.707 0.236-1.143-0.484-0.948-1.599-0.236-2.357z"></path> <path style="clip-rule:evenodd;fill-rule:evenodd" d="m99.908 16.866c0.869 1.336-0.64 2.861-1.885 2.121-0.092-1.427 0.804-1.866 1.885-2.121z"></path> <path style="clip-rule:evenodd;fill-rule:evenodd" d="m103.44 16.866c0.205 1.226-0.284 1.757-1.178 1.885-0.006-0.229-0.288-0.182-0.472-0.236-0.271-0.278-0.267-0.832-0.235-1.413 0.34-0.365 1.2-0.208 1.88-0.236z"></path> <path style="clip-rule:evenodd;fill-rule:evenodd" d="m105.8 17.102c0.869 0.205 0.411 1.996 0.235 2.592h-1.179c-0.23-1.405 0.43-1.92 0.94-2.592z"></path> <path style="clip-rule:evenodd;fill-rule:evenodd" d="m122.06 17.102c0.359 0.75 0.083 1.036 0 1.885-0.765-0.136-1.097 0.161-1.65 0.236-0.29-0.878 0.08-2.394 1.65-2.121z"></path> <path style="clip-rule:evenodd;fill-rule:evenodd" d="m125.83 17.573c0.198 0.984-0.458 1.112-0.472 1.885-1.172 0.072-1.877-0.323-1.649-1.65 0.69 0.407 1.15-1.446 2.12-0.235z"></path> <path style="clip-rule:evenodd;fill-rule:evenodd" d="m139.5 17.102c1.739 0.04 0.66 2.633-0.472 2.592-0.29-0.641-0.651-0.844-0.942-0.943 0.05-0.967 1.18-0.858 1.41-1.649z"></path> <path style="clip-rule:evenodd;fill-rule:evenodd" d="m95.666 17.808c0.196 0.667-0.331 0.611-0.234 1.178h-1.65c0.097-0.567-0.431-0.512-0.235-1.178 0.381-0.354 1.737-0.354 2.119 0z"></path> <path style="clip-rule:evenodd;fill-rule:evenodd" d="m115.93 18.515c-0.213 0.888-0.961 1.239-2.121 1.179 0.292-0.762-0.762-0.18-0.472-0.943 0.5-0.923 2.18-1.672 2.59-0.236z"></path> <path style="clip-rule:evenodd;fill-rule:evenodd" d="m76.107 17.808c0.763-0.291 0.18 0.762 0.943 0.472 0.005 0.555-0.406 0.693-0.235 1.414h-1.65c-0.197-1.14 0.689-1.196 0.942-1.886z"></path> <path style="clip-rule:evenodd;fill-rule:evenodd" d="m63.619 18.515c-0.181 1.148-0.734 1.831-1.885 1.415-0.676-1.392 0.977-2.293 1.885-1.415z"></path> <path style="clip-rule:evenodd;fill-rule:evenodd" d="m130.78 20.401c-0.294-1.472 0.651-1.706 1.178-2.357 0.892-0.341 0.452 0.647 1.179 0.471-0.36 1.055-0.65 2.185-2.36 1.886z"></path> <path style="clip-rule:evenodd;fill-rule:evenodd" d="m73.28 18.28c0.895 0.847-0.072 2.164-1.178 2.356-1.025-1.068 0.411-1.761 1.178-2.356z"></path> <path style="clip-rule:evenodd;fill-rule:evenodd" d="m69.039 18.515c0.729 0.659 0.815 1.793 0.235 2.593-1 0.102-1.093-0.437-1.414-0.236-0.511 0.04-0.107-0.836-0.236-1.178 0.986-0.001 0.986-0.268 1.415-1.179z"></path> <path style="clip-rule:evenodd;fill-rule:evenodd" d="m110.51 18.515c0.69 0.017 0.875 0.539 1.178 0.944 0.062 0.769-0.732 0.681-0.942 1.177-1.043 0.336-0.616-0.797-1.414-0.707 0.26-0.597 1.15-0.569 1.17-1.414z"></path> <path style="clip-rule:evenodd;fill-rule:evenodd" d="m127.95 20.401c-0.565 0.142-1.076 0.338-1.887 0.235-1.09-1.916 3.05-2.668 1.89-0.235z"></path> <path style="clip-rule:evenodd;fill-rule:evenodd" d="m117.35 19.222c0.32 0.714 0.381 1.943-0.234 2.357-0.21-0.146-0.422-0.286-0.472 0-0.88-0.562-0.96-2.531 0.7-2.357z"></path> <path style="clip-rule:evenodd;fill-rule:evenodd" d="m64.797 19.458c0.345 0.204 0.747 0.353 0.707 0.942-0.521 0.657-0.768 1.589-2.121 1.413-0.471-1.727 0.973-1.54 1.414-2.355z"></path> <path style="clip-rule:evenodd;fill-rule:evenodd" d="m137.85 19.693c1.292 0.585 0.597 2.785-1.178 2.357 0.029-0.423-0.289-0.497-0.236-0.943 0.21-0.74 0.9-0.984 1.42-1.414z"></path> <path style="clip-rule:evenodd;fill-rule:evenodd" d="m119.23 19.929c0.879-0.25 0.373 0.884 1.178 0.707-0.291 1.233-1.314 1.695-2.121 0.708 0.01-0.775 1.01-0.564 0.94-1.415z"></path> <path style="clip-rule:evenodd;fill-rule:evenodd" d="m122.3 19.929c0.448 0.101 0.592 0.507 1.178 0.472-0.463 0.637-0.423 1.777-1.178 2.12-0.665 0.037-0.591-0.666-0.942-0.942-0.16-1.016 0.98-0.74 0.94-1.65z"></path> <path style="clip-rule:evenodd;fill-rule:evenodd" d="m140.91 19.929c0.534 1.073 0.088 2.389-1.414 2.121-0.188-0.44-0.394-0.863-0.472-1.415 0.7-0.155 0.82-0.905 1.88-0.706z"></path> <path style="clip-rule:evenodd;fill-rule:evenodd" d="m130.54 20.636c-0.24 1.018-0.479 2.036-1.886 1.885-0.85-1.429 0.9-2.979 1.89-1.885z"></path> <path style="clip-rule:evenodd;fill-rule:evenodd" d="m132.43 20.165c0.846-0.139 1.141 0.273 1.649 0.471-0.104 0.917-0.446 1.597-1.649 1.415-0.15-0.54-0.47-1.423 0-1.886z"></path> <path style="clip-rule:evenodd;fill-rule:evenodd" d="m71.395 21.343c0.128 1.071-0.644 1.242-0.943 1.885-1.082 0.217-1.23-0.499-1.178-1.415 0.876 0.014 0.933-0.794 2.121-0.47z"></path> <path style="clip-rule:evenodd;fill-rule:evenodd" d="m67.389 22.286c-0.291 0.73-0.663 1.379-1.885 1.179-0.483-1.553 1.251-2.141 1.885-1.179z"></path> <path style="clip-rule:evenodd;fill-rule:evenodd" d="m58.906 22.05c0.546-0.076 0.904 0.037 1.178 0.235 0.115 0.743-0.425 0.833-0.236 1.649h-1.178c-0.104-0.809 0.093-1.319 0.236-1.884z"></path> <path style="clip-rule:evenodd;fill-rule:evenodd" d="m63.147 22.521c0.175 0.96-0.76 0.812-0.472 1.885-0.939 0.13-0.709 0.13-1.649 0-0.6-1.354 1.045-2.941 2.121-1.885z"></path> <path style="clip-rule:evenodd;fill-rule:evenodd" d="m139.5 22.993c0.062 0.69-0.533 0.724-0.472 1.413-0.765 0.137-1.096-0.16-1.649-0.235-0.57-1.756 1.41-2.08 2.12-1.178z"></path> <path style="clip-rule:evenodd;fill-rule:evenodd" d="m131.96 22.757v1.414c-0.627 0.197-0.776 0.218-1.178 0.471-0.239-0.153-0.243-0.542-0.707-0.471 0.01-1.09 0.59-1.613 1.89-1.414z"></path> <path style="clip-rule:evenodd;fill-rule:evenodd" d="m142.56 25.35c-0.38 0.326-0.928 0.486-1.178 0.942-0.35-0.123-0.595-0.349-0.942-0.472-0.4-2.341 2-2.183 2.12-0.47z"></path> <path style="clip-rule:evenodd;fill-rule:evenodd" d="m65.503 24.642c-0.195 0.589-0.645 0.926-0.707 1.65-0.765 0.136-1.097-0.161-1.649-0.236 0-1.287 1.425-2.478 2.356-1.414z"></path> <path style="clip-rule:evenodd;fill-rule:evenodd" d="m58.199 26.763c-0.737-0.473-0.774-0.276-1.415-0.942 0.779-1.805 2.788-0.854 1.415 0.942z"></path> <path style="clip-rule:evenodd;fill-rule:evenodd" d="m59.848 25.114c0.56 0.147 1.097 0.316 1.179 0.942-0.816 0.214-1.114 2.174-1.885 1.649-0.646 0.925-0.839 2.303-2.121 2.592-0.027-0.445-0.779-0.163-0.708-0.707 0.756-1.914 3.273-2.067 3.535-4.476z"></path> <path style="clip-rule:evenodd;fill-rule:evenodd" d="m133.84 25.584c0.427 0.806-0.271 1.097-0.235 2.121-0.666 0.276-1.001 0.047-1.65-0.235-0.02-1.279 0.51-2.011 1.89-1.886z"></path> <path style="clip-rule:evenodd;fill-rule:evenodd" d="m135.49 26.056c1.015-0.072 1.901-0.016 1.885 0.942-0.6 0.264-1.079 0.648-1.885 0.707-0.6-0.48-0.34-0.962-0.01-1.649z"></path> <path style="clip-rule:evenodd;fill-rule:evenodd" d="m139.5 26.999c0.37 0.102 0.202 0.741 0.943 0.472 0.022 0.731-0.289 1.126-0.473 1.649h-0.942c-0.183-0.523-0.494-0.918-0.471-1.649 0.53 0.065 0.88-0.058 0.94-0.472z"></path> <path style="clip-rule:evenodd;fill-rule:evenodd" d="m144.68 27.47c-0.396 0.604-0.881 0.185-0.942 1.414h-1.178c0.005-0.555-0.406-0.694-0.235-1.414 0.46-0.43 2.01-0.864 2.36 0z"></path> <path style="clip-rule:evenodd;fill-rule:evenodd" d="m134.78 28.177c0.166 0.874-0.403 1.011-0.236 1.885-0.373 0.02-0.899-0.113-0.942 0.235-1.44-0.543-0.95-2.67 1.18-2.12z"></path> <path style="clip-rule:evenodd;fill-rule:evenodd" d="m146.33 29.12c0.091 1.27-0.816 1.539-1.179 2.356-1.64-0.454-0.19-3.365 1.18-2.356z"></path> <path style="clip-rule:evenodd;fill-rule:evenodd" d="m138.08 29.826c0.089 1.032-0.673 1.212-0.707 2.121-1.025 0.24-1.083-0.488-1.648-0.707 0.69-0.5 1.02-2.333 2.36-1.414z"></path> <path style="clip-rule:evenodd;fill-rule:evenodd" d="m140.91 30.062c1.584-0.188 0.779 2.615 0 1.885-0.24 0.152-0.244 0.542-0.707 0.471-0.025-0.602-0.433-0.825-0.707-1.177 0.49-0.86 1.01-0.607 1.42-1.179z"></path> <path style="clip-rule:evenodd;fill-rule:evenodd" d="m144.45 34.068c-0.698 0.166-1.026 0.702-2.121 0.471-0.83-1.583 2.58-3.703 2.12-0.471z"></path> <path style="clip-rule:evenodd;fill-rule:evenodd" d="m146.33 32.183c1.669 0.444 0.061 2.38 0.236 3.534 0.479 0.54 1.232-0.345 1.648 0.471-0.145 1.113-0.696 1.817-1.885 1.886-0.062-1.705-1.123-0.946-1.65-2.121 1.02-0.782 0.77-2.837 1.64-3.77z"></path> <path style="clip-rule:evenodd;fill-rule:evenodd" d="m138.79 33.362c-0.195 0.665 0.332 0.61 0.235 1.177-1.084 0.293-1.644 0.799-2.592 0 0.09-1.287 1.18-1.596 2.36-1.177z"></path> <path style="clip-rule:evenodd;fill-rule:evenodd" d="m142.32 35.247c-0.06 1.041-0.785 1.414-0.942 2.356-0.626-0.002-1.347 0.089-1.649-0.236 0.31-1.346 1.08-2.657 2.59-2.12z"></path> <path style="clip-rule:evenodd;fill-rule:evenodd" d="m143.5 36.896c0.602 0.927 0.974 1.104 0.471 2.121-1.018 0.104-2.446-0.462-1.414-1.65 0.74-0.121 1.05 0.645 0.94-0.471z"></path> <path style="clip-rule:evenodd;fill-rule:evenodd" d="m144.92 39.253h0.708c0.552 0.621 0.039 1.606 0 2.356-1.003 0.138-1.498-0.23-1.65-0.943 0-0.776 1.16-0.406 0.94-1.413z"></path> <path style="clip-rule:evenodd;fill-rule:evenodd" d="m146.57 41.138h1.413c0.152 1.172 0.115 1.002-0.236 1.885-0.402 0.049-0.609-0.402-0.706 0-0.5-0.485-0.74-1.229-0.46-1.885z"></path> <path style="clip-rule:evenodd;fill-rule:evenodd" d="m143.74 42.315c-0.17 0.72 0.242 0.859 0.236 1.415 0.977 0.269 0.918-0.496 1.65-0.472-0.006 0.555 0.405 0.694 0.234 1.415-0.525 0.103-0.84 0.416-0.942 0.942-0.709-0.234-1.24-0.645-1.413-1.414-0.318 0.572-0.472 0.147-0.708 0.472-0.483-0.066-0.47-0.629-0.707-0.942 0.24-0.781 0.65-1.391 1.65-1.416z"></path> <path style="clip-rule:evenodd;fill-rule:evenodd" d="m143.03 46.793c0.369 0.744-0.13 1.033-0.236 1.885-2.34 0.406-1.27-2.949 0.24-1.885z"></path> <path style="clip-rule:evenodd;fill-rule:evenodd" d="m145.62 47.971c0.43 1.142-0.436 0.748-0.236 2.121-0.274-0.039-0.42 0.052-0.472 0.236-2.18-0.236-1.11-2.429 0.71-2.357z"></path> <path style="clip-rule:evenodd;fill-rule:evenodd" d="m148.22 48.678c0.17 0.72-0.24 0.858-0.235 1.414-1.026 0.241-1.084-0.487-1.649-0.707 0.19-1.04 1.07-1.529 1.89-0.707z"></path> <path style="clip-rule:evenodd;fill-rule:evenodd" d="m146.1 50.799h1.178c0.271 0.66 0.271 1.225 0 1.885-1.49 0.201-1.52-0.834-1.18-1.885z"></path> <path style="clip-rule:evenodd;fill-rule:evenodd" d="m146.1 52.449v1.885c-0.93 0.397-0.721 0.397-1.649 0 0.124-0.66 0.346-1.225 0.471-1.885h1.18z"></path> <path style="clip-rule:evenodd;fill-rule:evenodd" d="m142.8 52.92c0.314 0.236 0.712 0.388 0.942 0.707 0.191 0.897-0.69 0.723-0.706 1.414-1.43-0.138-1.3-1.681-0.23-2.121z"></path> <path style="clip-rule:evenodd;fill-rule:evenodd" d="m145.39 55.983h1.179c0.382 0.773-0.054 0.901 0 1.885-1.53 0.398-1.6-1.012-1.18-1.885z"></path> <path style="clip-rule:evenodd;fill-rule:evenodd" d="m144.21 58.812c-0.926-0.198-1.102-1.509-0.706-2.357h1.413c0.07 1.039 0.51 2.14-0.7 2.357z"></path> <path style="clip-rule:evenodd;fill-rule:evenodd" d="m145.39 59.518c1.47-0.236 1.662 2.702 0 2.356-0.31-0.684-0.31-1.672 0-2.356z"></path> <path style="clip-rule:evenodd;fill-rule:evenodd" d="m142.56 59.989c0.58-0.03 1.136-0.035 1.414 0.236 0.023 0.966 0.047 1.931-0.236 2.592-1.59-0.008-1.32-1.634-1.17-2.828z"></path> <path style="clip-rule:evenodd;fill-rule:evenodd" d="m141.62 63.524c-0.271 0.278-0.268 0.832-0.235 1.413h-1.415c-0.8-1.43 0.6-2.409 1.66-1.413z"></path> <path style="clip-rule:evenodd;fill-rule:evenodd" d="m142.8 63.289c0.829 0.191 0.984 1.058 0.942 2.121-0.725-0.176-0.452 0.646-1.178 0.471-0.53-0.747-0.71-2.156 0.24-2.592z"></path> <path style="clip-rule:evenodd;fill-rule:evenodd" d="m145.39 63.524c1.44 0.088 1.178 2.948-0.236 2.828-0.39-0.842-0.33-2.271 0.24-2.828z"></path> <path style="clip-rule:evenodd;fill-rule:evenodd" d="m142.8 66.588h0.472c0.778 0.007 0.576 0.994 1.179 1.177 0.017 0.804-0.874 0.698-1.65 0.708-0.28-0.661-0.28-1.225 0-1.885z"></path> <path style="clip-rule:evenodd;fill-rule:evenodd" d="m145.39 67.765c1.461-0.176 1.319 1.726 0.707 2.357-1.19-0.095-1.43-1.62-0.71-2.357z"></path> <path style="clip-rule:evenodd;fill-rule:evenodd" d="m143.5 69.416c1.579-0.085 1.422 2.367-0.236 2.121-0.58-0.883-0.23-1.239 0.24-2.121z"></path> <path style="clip-rule:evenodd;fill-rule:evenodd" d="m142.56 70.829c0.179 1.199-0.172 1.87-1.178 1.885-0.072-0.713-0.729-0.842-0.472-1.885 0.32-0.336 1.34-0.336 1.65 0z"></path> <path style="clip-rule:evenodd;fill-rule:evenodd" d="m143.74 72.243c1.181 0.247 1.718 1.257 1.179 2.592-1.26 0.219-1.66-1.149-1.18-2.592z"></path> <path style="clip-rule:evenodd;fill-rule:evenodd" d="m143.03 74.128c0.11 1.211-0.439 1.76-1.649 1.649-0.209-0.419-0.658-0.598-0.472-1.413 0.65-0.523 1.2-0.449 2.12-0.236z"></path> <path style="clip-rule:evenodd;fill-rule:evenodd" d="m145.39 75.777c0.142 0.565 0.339 1.075 0.236 1.885-0.951 0.165-1.089-0.483-1.65-0.707 0.01-0.849 0.47-1.255 1.41-1.178z"></path> <path style="clip-rule:evenodd;fill-rule:evenodd" d="m142.32 77.192c0.725-0.176 0.452 0.646 1.179 0.471-0.29 0.732-0.29 1.754-0.708 2.357-0.555 0.005-0.693-0.406-1.413-0.236 0.02-1.157 0.51-1.849 0.94-2.592z"></path> <path style="clip-rule:evenodd;fill-rule:evenodd" d="m144.68 79.313h1.179c0.319 0.695 0.295 1.458-0.234 1.885-0.67-0.284-1.18-0.713-0.95-1.885z"></path> <path style="clip-rule:evenodd;fill-rule:evenodd" d="m143.74 81.198v1.649c-0.789 0.411-1.504 0.138-1.885-0.471-0.11-1.515 0.97-1.889 1.88-1.178z"></path> <path style="clip-rule:evenodd;fill-rule:evenodd" d="m139.97 82.141c0.568-0.097 0.513 0.43 1.179 0.236 0.13 1.229-0.104 2.094-1.413 1.885-0.73-0.772-0.18-1.335 0.23-2.121z"></path> <path style="clip-rule:evenodd;fill-rule:evenodd" d="m143.74 84.261c0.047 1.225-0.003 2.354-1.413 2.12-0.84-0.58 0.06-3.018 1.41-2.12z"></path> <path style="clip-rule:evenodd;fill-rule:evenodd" d="m140.2 84.968c0.481 0.225 0.933 0.481 1.414 0.707 0.137 0.922-0.203 1.368-0.472 1.885-0.21-0.183-0.532-0.253-0.942-0.236-0.3-0.684-0.3-1.672 0-2.356z"></path> <path style="clip-rule:evenodd;fill-rule:evenodd" d="m140.44 88.502h1.413c-0.167 0.875 0.402 1.012 0.235 1.885-0.742 0.265-0.533 0.022-1.413 0 0.17-0.873-0.4-1.01-0.23-1.885z"></path> <path style="clip-rule:evenodd;fill-rule:evenodd" d="m142.09 96.751c-1.066 0.123-1.538-0.349-1.413-1.415 1.01-1.004 2.2 0.185 1.41 1.415z"></path> <path style="clip-rule:evenodd;fill-rule:evenodd" d="m243.18 116.55c-0.041 0.667 0.798 0.458 0.472 1.411-1.385 0.219-1.607 0.694-2.593 0-0.01-1.19 0.81-1.55 2.12-1.41z"></path> <path style="clip-rule:evenodd;fill-rule:evenodd" d="m232.58 116.78c-0.169 0.721 0.406 0.694 0.238 1.415-0.47 0.002-0.302 0.643-0.943 0.472-0.529-0.102-0.752-0.506-1.178-0.709 0.2-0.81 0.92-1.11 1.88-1.18z"></path> <path style="clip-rule:evenodd;fill-rule:evenodd" d="m248.13 116.78c0.806 0.059 1.285 0.443 1.887 0.708 0.035 0.585-0.372 0.729-0.472 1.179h-1.649c-0.84-0.97-0.09-1.45 0.23-1.89z"></path> <path style="clip-rule:evenodd;fill-rule:evenodd" d="m229.52 117.25c0.29 0.875 0.658 1.38 0 2.121-1.31-0.09-2.08-2.33 0-2.12z"></path> <path style="clip-rule:evenodd;fill-rule:evenodd" d="m218.67 119.61c-0.583 0.985-1.799 1.34-2.826 1.885-0.219-0.567-0.948-0.625-0.706-1.649 1.01-0.48 2.97-2.08 3.54-0.24z"></path> <path style="clip-rule:evenodd;fill-rule:evenodd" d="m250.25 119.84c-0.342 1.281-0.422 1.473-0.234 3.062h-2.121c-0.168-1.788 1.013-1.302 1.649-1.885-0.567-0.295-1.252-0.476-1.649-0.943 0.04-1.59 1.91-1.26 2.35-0.24z"></path> <path style="clip-rule:evenodd;fill-rule:evenodd" d="m247.19 119.37c0.153 0.859-0.159 1.254-0.47 1.649-0.702-0.084-1.197-0.376-1.651-0.706v-0.944c0.63-0.6 1.24 0.15 2.12 0z"></path> <path style="clip-rule:evenodd;fill-rule:evenodd" d="m242 119.37c0.909-0.046 1.735-0.007 2.354 0.236 0.115 0.742-0.333 0.92-0.472 1.413-1.043 0.111-1.17-0.324-1.883 0v-1.65z"></path> <path style="clip-rule:evenodd;fill-rule:evenodd" d="m234.7 119.61c1.134-0.347 0.983 0.586 1.887 0.47 0.169 0.721-0.241 0.859-0.237 1.415-0.897 0.113-1.504-0.067-1.884-0.472-0.18-0.73 0.23-0.87 0.23-1.42z"></path> <path style="clip-rule:evenodd;fill-rule:evenodd" d="m238.23 119.61h2.593c-0.098 0.567 0.43 0.512 0.234 1.177-0.3 0.566-1.856-0.128-2.121 0.472-0.54-0.24-0.75-0.81-0.7-1.65z"></path> <path style="clip-rule:evenodd;fill-rule:evenodd" d="m252.84 121.02c-0.553 0.564-2.149 0.786-2.121-0.472 0.15-1.44 2.34-1.02 2.12 0.47z"></path> <path style="clip-rule:evenodd;fill-rule:evenodd" d="m223.39 120.32v1.177c-0.563 0.483-1.564-0.408-1.885 0-0.639 0.169 0.168-1.112-0.471-0.943 0.36-0.96 1.65-0.69 2.36-0.24z"></path> <path style="clip-rule:evenodd;fill-rule:evenodd" d="m233.28 120.32v1.177c-1.333 0.587-1.138 0.33-2.829 0.234v-1.178c1.17-0.44 1.78-0.52 2.83-0.23z"></path> <path style="clip-rule:evenodd;fill-rule:evenodd" d="m254.96 120.08h0.943c0.491 0.776 0.491 1.582 0 2.359-0.468-0.395-0.299 0.019-0.943 0 0.201-0.752-0.205-0.896-0.472-1.18-0.17-0.73 0.82-0.29 0.47-1.18z"></path> <path style="clip-rule:evenodd;fill-rule:evenodd" d="m228.57 121.02c0.635 0.307 1.126 0.76 1.178 1.649-0.314 0.337-1.335 0.337-1.649 0-0.15-0.86 0.16-1.25 0.47-1.65z"></path> <path style="clip-rule:evenodd;fill-rule:evenodd" d="m219.85 121.26c-0.087 0.401 0.184 0.445 0.47 0.47-0.15 3.23-4.15-0.47-0.47-0.47z"></path> <path style="clip-rule:evenodd;fill-rule:evenodd" d="m217.5 126.21c-0.312-0.395-0.625-0.79-0.472-1.649-0.943-0.663-2.171 0.016-1.883-2.121 1.361-0.107 2.193 0.318 2.121 1.649 0.563 0.142 1.073 0.338 1.883 0.234 0.28 1.47-0.75 1.62-1.65 1.89z"></path> <path style="clip-rule:evenodd;fill-rule:evenodd" d="m222.92 122.44c0.806-0.179 0.299 0.955 1.18 0.706 0.17 0.721-0.407 0.694-0.236 1.415-0.585 0.305-1.143-0.527-1.178 0-0.275-0.038-0.199-0.431-0.237-0.709-0.625 0.083-0.794 0.62-0.941 1.18-0.403 0.05-0.61-0.401-0.708 0-0.896-0.516-0.292-1.707 0.237-2.121 0.94 0.64 1.32 0.32 1.89-0.47z"></path> <path style="clip-rule:evenodd;fill-rule:evenodd" d="m254.02 122.44c0.235 1.02-0.263 1.308-0.47 1.883-0.881 0.253-0.674-0.584-1.414-0.472-0.21-1.31 0.65-1.54 1.88-1.41z"></path> <path style="clip-rule:evenodd;fill-rule:evenodd" d="m245.78 123.14c1.039-0.176 1.545 0.18 1.885 0.706 0.197 1.062-0.957 0.773-0.941 1.651-0.372-0.102-0.203-0.742-0.943-0.472v-1.89z"></path> <path style="clip-rule:evenodd;fill-rule:evenodd" d="m249.07 123.62h2.121c0.058 2.24-0.796 1.659-2.121 1.885 0.04-0.669-0.798-0.46-0.472-1.414 0.42 0.33 0.54 0.21 0.47-0.47z"></path> <path style="clip-rule:evenodd;fill-rule:evenodd" d="m243.65 125.26c0.742-0.115 0.533 0.723 1.413 0.472 0.021 0.878 0.265 0.671 0 1.413-1.021 0.236-1.308-0.263-1.885-0.472-0.25-0.87 0.59-0.66 0.47-1.41z"></path> <path style="clip-rule:evenodd;fill-rule:evenodd" d="m220.32 125.97c-0.193 0.667 0.334 0.612 0.237 1.179-0.809 0.578-2.241 0.152-1.887-1.179 0.53-0.55 0.93 0.08 1.65 0z"></path> <path style="clip-rule:evenodd;fill-rule:evenodd" d="m222.21 125.74c0.784 0.472 2.095 0.42 1.886 1.883-0.881-0.399-0.374 0.142-1.18 0.238-0.92-0.16-1.12-1.29-0.71-2.12z"></path> <path style="clip-rule:evenodd;fill-rule:evenodd" d="m237.29 126.68c0.848 0.173 0.652 0.236 1.649 0.472v1.18c-0.445 0.418-1.558 0.17-2.355 0.234 0.194-0.666-0.333-0.61-0.237-1.177 0.18-0.37 1.16 0.06 0.95-0.7z"></path> <path style="clip-rule:evenodd;fill-rule:evenodd" d="m242 126.68c-0.038 0.274 0.05 0.42 0.233 0.472 0.054 1.072-1.085 0.953-1.648 1.414-0.712-0.151-1.08-0.648-0.942-1.649 0.46-0.41 1.56-0.17 2.36-0.23z"></path> <path style="clip-rule:evenodd;fill-rule:evenodd" d="m226.92 127.38c0.136 1.561-0.89 1.198-1.651 1.413-0.136-0.493-0.585-0.673-0.47-1.413 0.85-0.11 1.36-0.38 2.12 0z"></path> <path style="clip-rule:evenodd;fill-rule:evenodd" d="m228.1 127.15h2.121c0.168 0.719-0.242 0.859-0.236 1.414-0.939 0.077-1.741 0.013-2.121-0.472-0.02-0.42 0.29-0.5 0.24-0.94z"></path> <path style="clip-rule:evenodd;fill-rule:evenodd" d="m257.56 127.15c0.416 0.213 0.687 0.57 1.177 0.708 0.127 0.832-0.834 0.579-0.705 1.413-0.74 0.39-0.666-1.175-0.943-0.472-0.82-0.59 0.48-1.06 0.46-1.65z"></path> <path style="clip-rule:evenodd;fill-rule:evenodd" d="m100.62 142.23c0.052 0.859 0.324 0.901 0 1.649-0.58 0.03-1.136 0.034-1.414-0.238-0.121-1.06 0.238-1.64 1.414-1.41z"></path> <path style="clip-rule:evenodd;fill-rule:evenodd" d="m96.608 144.12h1.887v1.416c-0.773 0.383-0.901-0.054-1.887 0-0.263-0.75-0.02-0.54 0-1.42z"></path> <path style="clip-rule:evenodd;fill-rule:evenodd" d="m100.38 146.94c-0.231 1.003-0.998 1.996-2.121 1.413-0.288-1.63 1.3-2.24 2.121-1.41z"></path> <path style="clip-rule:evenodd;fill-rule:evenodd" d="m96.138 147.18v1.178c-0.851 0.107-1.141 0.604-1.885 0.236v-1.414c0.937-0.18 0.947-0.18 1.885-0.01z"></path> <path style="clip-rule:evenodd;fill-rule:evenodd" d="m94.253 150.01c-0.418 0.054-1.181-0.238-0.942 0.472-0.755-0.03-1.037-0.533-0.942-1.413 0.683-0.72 2.18-0.61 1.884 0.94z"></path> <path style="clip-rule:evenodd;fill-rule:evenodd" d="m99.201 150.48c-0.567 0.188-1.713 0.346-1.885-0.472-0.853 0.428 0.416 0.65 0.235 1.178-0.041 1.085-1.438 1.173-2.12 0.943-0.072-0.662-0.317-2.792 0.706-3.062 1.038 0.575 1.385 0.094 2.828 0-0.17 0.71 0.407 0.69 0.236 1.41z"></path> <path style="clip-rule:evenodd;fill-rule:evenodd" d="m90.718 149.77c0.912-0.205 1.021 0.394 1.414 0.706-0.086 2.33-2.865 0.91-1.414-0.71z"></path> <path style="clip-rule:evenodd;fill-rule:evenodd" d="m4 150.24c-0.041-0.512 0.836-0.105 1.178-0.235 0.81 1.319 0.109 2.573-1.178 1.887-0.248-0.66 0.388-1.61 0-1.65z"></path> <path style="clip-rule:evenodd;fill-rule:evenodd" d="m7.534 150.01h0.707c0.358 0.665 0.57 1.473 0.472 2.593-0.373 0.02-0.898-0.113-0.942 0.236-0.692-0.6-0.946-2.1-0.237-2.83z"></path> <path style="clip-rule:evenodd;fill-rule:evenodd" d="m93.781 150.71c0.65 0.339 0.894 1.083 0.472 1.885h-1.649c-0.333-1.35 0.802-1.24 1.177-1.89z"></path> <path style="clip-rule:evenodd;fill-rule:evenodd" d="m10.598 151.89h0.707c0.42 0.754 0.458 1.189 0.236 2.121-1.39-0.372-0.727 1.315-1.649 1.411-0.227-0.4-0.74-0.516-1.179-0.705-0.097-0.567 0.431-0.512 0.236-1.178 0.741 0.117 0.921-0.514 1.414 0-0.137-0.76 0.16-1.09 0.235-1.65z"></path> <path style="clip-rule:evenodd;fill-rule:evenodd" d="m5.413 152.13c0.713 0.05 1.626 0.533 1.65 1.887-0.677 0.648-1.251-0.134-1.885-0.237-0.137-0.77 0.16-1.1 0.235-1.65z"></path> <path style="clip-rule:evenodd;fill-rule:evenodd" d="m90.247 152.6c-0.003 0.625 0.089 1.346-0.236 1.649-0.742 0.265-0.533 0.021-1.413 0-0.272-1.37 0.279-1.92 1.649-1.65z"></path> <path style="clip-rule:evenodd;fill-rule:evenodd" d="m93.781 153.3c0.631 0.314 1.38 0.506 1.179 1.65-0.403-0.009-0.61 0.175-0.707 0.47-0.59 0.043-0.738-0.36-0.942-0.705-1.086 0.416-2.373 1.486-2.593-0.706 0.903-0.87 2.921 0.74 3.063-0.71z"></path> <path style="clip-rule:evenodd;fill-rule:evenodd" d="m7.063 155.66c0.827 0.209 0.774-0.046 1.413 0.47 0.113 0.742-0.335 0.923-0.471 1.413-0.64-0.126-0.587-0.188-1.414-0.472v-1.177c0.19 0.046 0.235 0.237 0.472 0.235v-0.46z"></path> <path style="clip-rule:evenodd;fill-rule:evenodd" d="m85.534 157.08c0.468 0.396 0.299-0.019 0.942 0 0.479 0.664 0.422 0.969 0.236 1.888-0.554 0.074-0.886 0.372-1.65 0.233-0.57-0.97 0.322-1.24 0.472-2.12z"></path> <path style="clip-rule:evenodd;fill-rule:evenodd" d="m18.846 159.67h-1.414c-1.18-2.03 2.02-2.59 1.414 0z"></path> <path style="clip-rule:evenodd;fill-rule:evenodd" d="m89.305 158.49c0.136 0.766-0.161 1.098-0.236 1.649-0.738 0.36-1.301-0.064-1.649-0.705 0.116-0.96 1.064-1.35 1.885-0.95z"></path> <path style="clip-rule:evenodd;fill-rule:evenodd" d="m8.477 158.49c0.982-0.038 1.967-0.08 2.357 0.473 0.17 0.719-0.241 0.858-0.236 1.413-1.547 0.22-2.384-0.28-2.121-1.88z"></path> <path style="clip-rule:evenodd;fill-rule:evenodd" d="m12.012 158.96c1.685-0.322 2.241 1.25 1.414 2.121-0.403 0.05-0.61-0.403-0.707 0-0.482-0.46-0.703-1.18-0.707-2.12z"></path> <path style="clip-rule:evenodd;fill-rule:evenodd" d="m15.546 158.96c0.19 0.162 0.645 0.366 0.707 0 0.522 0.42 0.855 1.029 0.708 2.121-0.568-0.097-0.513 0.429-1.178 0.233-0.194-0.591-0.476-1.093-0.942-1.411-0.071-0.62 0.912-0.18 0.705-0.94z"></path> <path style="clip-rule:evenodd;fill-rule:evenodd" d="m20.495 159.91c0.039 0.667 0.431 0.981 0.471 1.649-0.736 0.717-2.135 0.356-1.885-1.18 0.669 0.04 0.46-0.8 1.414-0.47z"></path> <path style="clip-rule:evenodd;fill-rule:evenodd" d="m21.673 159.91c1.099 0 1.614 0.583 1.885 1.411-0.201 0.508-0.868 0.549-1.649 0.472-0.142-0.57-0.339-1.08-0.236-1.88z"></path> <path style="clip-rule:evenodd;fill-rule:evenodd" d="m84.592 159.91c-0.006 0.552 0.405 0.692 0.234 1.411-1.096-0.311-0.788 0.782-1.885 0.472 0.006-0.554-0.405-0.694-0.235-1.413 0.714-0.08 0.842-0.73 1.886-0.47z"></path> <path style="clip-rule:evenodd;fill-rule:evenodd" d="m26.622 162.73c-1.522 0.188-1.909-0.763-1.885-2.121 1.345-1.25 1.748 0.8 1.885 2.12z"></path> <path style="clip-rule:evenodd;fill-rule:evenodd" d="m18.61 162.26c0.011 0.718-0.498 0.917-0.707 1.415-2.637-0.38-0.645-3.86 0.707-1.42z"></path> <path style="clip-rule:evenodd;fill-rule:evenodd" d="m87.419 161.32c0.271 0.662 0.271 1.228 0 1.887-1.132 0.346-0.983-0.589-1.885-0.472-0.252-1.36 0.613-1.59 1.885-1.42z"></path> <path style="clip-rule:evenodd;fill-rule:evenodd" d="m14.132 161.56c0.441 0.188 0.864 0.393 1.415 0.47v1.179c-0.229-0.007-0.183-0.289-0.236-0.472-0.229 0.006-0.182 0.288-0.236 0.472-0.403 0.05-0.61-0.402-0.707 0-0.564 0.093 0.131-1.073-0.707-0.707 0.123-0.35 0.349-0.6 0.471-0.94z"></path> <path style="clip-rule:evenodd;fill-rule:evenodd" d="m29.92 161.56c0.688 0.333 1.05 0.991 0.943 2.12-0.88 0.02-0.671 0.264-1.414 0-0.075-0.94-0.012-1.75 0.471-2.12z"></path> <path style="clip-rule:evenodd;fill-rule:evenodd" d="m24.029 166.27c-0.625-0.002-1.345 0.09-1.649-0.236-0.165-0.725-0.165-0.453 0-1.178-0.667-0.446-2.181-0.485-1.414-2.121h1.414c0.271 0.278 0.267 0.833 0.236 1.414 1.335 0.393 0.774-1.11 1.414-1.414 0.504 0.28 1.126 0.445 1.414 0.943-0.031 0.752-0.534 1.036-1.414 0.942-0.001 0.56-0.001 1.11-0.001 1.66z"></path> <path style="clip-rule:evenodd;fill-rule:evenodd" d="m27.329 163.2c1.224 0.111 1.906 0.764 1.885 2.121-0.684 0.326-0.611 0.027-1.649 0-0.011-0.77-0.398-1.17-0.236-2.12z"></path> <path style="clip-rule:evenodd;fill-rule:evenodd" d="m84.355 163.44c0.754-0.046 1.02 0.396 1.179 0.943 0.06 0.925-1.133 0.597-1.179 1.415-0.349-0.122-0.595-0.349-0.942-0.472-0.171-0.721 0.406-0.694 0.236-1.415 0.473 0.07 0.738-0.06 0.706-0.48z"></path> <path style="clip-rule:evenodd;fill-rule:evenodd" d="m12.955 163.91h1.649c-0.038 0.274 0.052 0.42 0.236 0.472 0.029 0.422-0.289 0.497-0.236 0.943h-1.414c0.005-0.55-0.406-0.69-0.235-1.41z"></path> <path style="clip-rule:evenodd;fill-rule:evenodd" d="m17.195 166.27c-1.274 0.331-1.089-0.797-1.649-1.18 0.794-1.26 2.54-0.39 1.649 1.18z"></path> <path style="clip-rule:evenodd;fill-rule:evenodd" d="m19.316 164.38c0.602 0.185 0.987 0.585 1.415 0.943 0.036 0.585-0.37 0.729-0.472 1.178-0.782-0.107-0.278 0.14-1.414-0.235-0.387-1.09 0.14-1.04 0.471-1.88z"></path> <path style="clip-rule:evenodd;fill-rule:evenodd" d="m33.691 164.62c0.023 0.73-0.289 1.125-0.472 1.649-2.365 0.17-1.621-2.85 0.472-1.65z"></path> <path style="clip-rule:evenodd;fill-rule:evenodd" d="m87.89 164.38c0.607 0.179 0.819 0.752 0.708 1.649-0.554 0.076-0.885 0.372-1.65 0.236 0.011-0.403-0.175-0.61-0.471-0.708 0.127-0.74 1.329-0.4 1.413-1.18z"></path> <path style="clip-rule:evenodd;fill-rule:evenodd" d="m36.99 167.45c-0.21-0.146-0.421-0.285-0.471 0-0.526-0.418-0.611-1.277-0.943-1.887 1.083-1.25 2.484 0.96 1.414 1.89z"></path> <path style="clip-rule:evenodd;fill-rule:evenodd" d="m25.208 165.56c0.373-0.583 1.649-0.096 2.121 0v1.18c-0.394-0.417-0.789 0.209-1.649 0-0.131-0.42-0.122-0.98-0.472-1.18z"></path> <path style="clip-rule:evenodd;fill-rule:evenodd" d="m77.993 165.56c0.204 1.226-0.832 1.212-1.649 1.415 0.006-0.556-0.405-0.694-0.236-1.415 0.343-0.35 1.542-0.35 1.885 0z"></path> <path style="clip-rule:evenodd;fill-rule:evenodd" d="m31.335 166.27c0.186 0.814-0.262 0.995-0.472 1.413-0.739-0.203-1.301-0.583-1.649-1.178 0.375-1.47 1.393-0.82 2.121-0.23z"></path> <path style="clip-rule:evenodd;fill-rule:evenodd" d="m82.706 165.56v0.708c-0.193 0.749-1.011 0.872-1.65 1.179-1.024-0.86-0.051-2.35 1.65-1.89z"></path> <path style="clip-rule:evenodd;fill-rule:evenodd" d="m39.583 165.8c1.226-0.128 1.542 0.654 1.413 1.884-0.419 0.44-0.599-0.192-1.413 0-0.271-0.66-0.271-1.22 0-1.88z"></path> <path style="clip-rule:evenodd;fill-rule:evenodd" d="m75.165 166.03c0.136 0.493 0.585 0.673 0.472 1.415-1.104 0.533-1.489 0.533-2.593 0 0.307-1.31 0.99-1.32 2.121-1.41z"></path> <path style="clip-rule:evenodd;fill-rule:evenodd" d="m25.443 166.27c0.13 1.229-0.104 2.096-1.414 1.885-0.655-0.96-0.164-2.43 1.414-1.89z"></path> <path style="clip-rule:evenodd;fill-rule:evenodd" d="m86.947 167.45c-0.124 0.188-0.245 0.382-0.234 0.706-0.621 0.245-1.447 0.281-2.357 0.235-0.796-1.76 1.992-2.43 2.591-0.95z"></path> <path style="clip-rule:evenodd;fill-rule:evenodd" d="m17.667 166.74c0.91-0.047 1.354 0.374 1.413 1.177-0.309 0.083-0.37 0.416-0.707 0.472-0.881 0.09-1.214-1.07-0.706-1.65z"></path> <path style="clip-rule:evenodd;fill-rule:evenodd" d="m22.616 167.45c0.037 1.057-1.059 0.982-2.121 0.941 0.029-0.424-0.289-0.496-0.236-0.941 0.272-1.35 1.826-0.42 2.357 0z"></path> <path style="clip-rule:evenodd;fill-rule:evenodd" d="m34.163 166.74c1.135-0.115 1.364 0.677 1.414 1.648-0.591 0.232-0.789 0.206-1.65 0-0.136-0.77 0.161-1.1 0.236-1.65z"></path> <path style="clip-rule:evenodd;fill-rule:evenodd" d="m79.407 166.97c-0.04 0.668 0.797 0.46 0.471 1.413-1.292-0.193-1.369 0.831-2.828 0.47v-1.411c0.9-0.19 0.715-0.5 2.357-0.47z"></path> <path style="clip-rule:evenodd;fill-rule:evenodd" d="m32.277 167.45c0.45 0.1 0.427 0.671 1.178 0.47 0.153 0.861-0.159 1.256-0.472 1.651-0.865-0.368-0.903-0.199-1.413-0.71-0.127-0.84 0.381-1.03 0.707-1.41z"></path> <path style="clip-rule:evenodd;fill-rule:evenodd" d="m37.933 167.68h1.179c0.341 0.366 0.314 1.101 0.707 1.415-0.652 1.67-2.904-0.03-1.886-1.42z"></path> <path style="clip-rule:evenodd;fill-rule:evenodd" d="m29.92 168.39c0.032 0.581 0.037 1.136-0.235 1.414-1.02 0.076-1.561-0.324-1.885-0.944 0.168-1.46 1.19-0.66 2.12-0.47z"></path> <path style="clip-rule:evenodd;fill-rule:evenodd" d="m45.238 168.15c0.765-0.137 1.096 0.161 1.649 0.235 0.597 1.257-0.374 1.659-0.942 1.649-0.703-0.15-0.79-0.93-0.707-1.88z"></path> <path style="clip-rule:evenodd;fill-rule:evenodd" d="m26.386 168.39c0.279 0.35 0.89 0.366 1.178 0.708-0.041 0.901-0.747 1.137-1.65 1.178-0.271-0.278-0.267-0.833-0.235-1.416 0.473 0.08 0.738-0.05 0.707-0.47z"></path> <path style="clip-rule:evenodd;fill-rule:evenodd" d="m50.894 168.62c0.354 1.638-1.126 1.918-1.885 1.178-0.15-1.27 0.895-1.71 1.885-1.18z"></path> <path style="clip-rule:evenodd;fill-rule:evenodd" d="m52.072 168.39c0.45 0.443 0.426-0.14 1.179 0 0.313 1.024 0.132 1.315-0.236 2.121-1.022-0.1-1.38-1.23-0.943-2.12z"></path> <path style="clip-rule:evenodd;fill-rule:evenodd" d="m76.107 169.1c-0.06 1.273-1.217 1.453-2.592 1.413 0.005-0.554-0.405-0.694-0.236-1.413 1.09-0.08 2.038-0.9 2.828 0z"></path> <path style="clip-rule:evenodd;fill-rule:evenodd" d="m35.812 168.86c1.242 0.047 1.716 1.331 0.943 2.121-0.555-0.072-0.438-0.816-1.178-0.705-0.172-0.73 0.406-0.7 0.235-1.42z"></path> <path style="clip-rule:evenodd;fill-rule:evenodd" d="m41.939 168.86c1.31-0.13 2.132 0.227 2.121 1.416-0.21 0.104-0.422 0.207-0.472 0.472-0.84-0.34-1.865-0.5-1.649-1.89z"></path> <path style="clip-rule:evenodd;fill-rule:evenodd" d="m83.649 169.33c-0.251 1.537-1.515 1.365-2.593 1.179v-1.179c0.889-0.33 1.927-0.63 2.593 0z"></path> <path style="clip-rule:evenodd;fill-rule:evenodd" d="m59.142 169.1h1.177c-0.04 0.667 0.798 0.46 0.472 1.413-0.373 0.02-0.898-0.113-0.943 0.236-0.641-0.35-1.066-0.92-0.706-1.65z"></path> <path style="clip-rule:evenodd;fill-rule:evenodd" d="m57.963 171.45c-0.912-0.157-0.838 0-1.415-0.233-0.298 0.406-0.796 0.617-0.707 1.413-1.133-0.044-1.764-1.043-1.179-2.121 0.602 0.027 1.213 0.044 1.179 0.708 0.602-0.027 0.468-0.79 0.471-1.415 0.602-0.27 2.562 0.02 1.651 1.65z"></path> <path style="clip-rule:evenodd;fill-rule:evenodd" d="m72.573 169.57c0.021 0.878 0.264 0.671 0 1.411-1.169-0.024-1.158 0.232-2.121 0 0.097-0.567-0.431-0.51-0.236-1.177 0.446-0.42 1.557-0.17 2.357-0.23z"></path> <path style="clip-rule:evenodd;fill-rule:evenodd" d="m23.087 169.8c0.962 0.452 2.531 0.297 2.356 1.887-1.378 0.8-3.427-0.96-2.356-1.89z"></path> <path style="clip-rule:evenodd;fill-rule:evenodd" d="m34.163 169.8c0.895-0.031 1.112 0.617 1.178 1.415-0.229 0.398-0.651 0.604-1.414 0.472-0.103-0.81 0.093-1.33 0.236-1.89z"></path> <path style="clip-rule:evenodd;fill-rule:evenodd" d="m41.468 170.27c-0.062 0.69 0.532 0.725 0.471 1.415-0.401-0.088-0.445 0.183-0.471 0.47-1.6 0.5-2.305-2.71 0-1.88z"></path> <path style="clip-rule:evenodd;fill-rule:evenodd" d="m80.35 170.51c0.171 1.651-2.018 1.152-2.121 1.886-0.316-0.049-0.439-0.979-0.471 0-0.805-0.062-1.225-0.505-1.179-1.416 0.229-0.004 0.184-0.287 0.236-0.47 1.599 0.09 2.329-0.21 3.535 0z"></path> <path style="clip-rule:evenodd;fill-rule:evenodd" d="m27.329 170.51c0.628 0.083 0.79 0.394 1.649 0.708-0.023 2.121-1.648 1.041-2.356 0.233 0.095-0.45 1.079-0.02 0.707-0.94z"></path> <path style="clip-rule:evenodd;fill-rule:evenodd" d="m32.513 171.22v1.178c-0.524 0.389-1.278-0.05-1.414 0.235-0.261-0.446-0.588-0.826-0.707-1.413 0.667-0.31 1.455-0.31 2.121-0.01z"></path> <path style="clip-rule:evenodd;fill-rule:evenodd" d="m47.83 170.98c0.939 0.269 1.303 0.591 0.942 1.651h-1.413c-0.213-0.95-0.165-1.15 0.471-1.65z"></path> <path style="clip-rule:evenodd;fill-rule:evenodd" d="m44.295 171.22h1.649c0.212 0.688 0.212 0.723 0 1.413h-1.414c-0.3-0.61-0.516-0.71-0.235-1.41z"></path> <path style="clip-rule:evenodd;fill-rule:evenodd" d="m63.383 174.04h-1.414c-0.433-0.679-0.792-2.267 0-2.826 1.53-0.11 1.068 1.77 1.414 2.83z"></path> <path style="clip-rule:evenodd;fill-rule:evenodd" d="m75.637 171.22c0.73 0.46 0.861 1.444 0.236 2.121-0.908-0.183-1.421 0.058-2.357-0.708 0.123-0.349 0.349-0.595 0.471-0.941 0.867 0.46 1.173-0.55 1.65-0.47z"></path> <path style="clip-rule:evenodd;fill-rule:evenodd" d="m37.697 171.69c1.28-0.104 1.417 0.938 2.829 0.706 0.021 0.88 0.264 0.671 0 1.413-1.421 0.32-1.734-0.466-2.829-0.47v-1.65z"></path> <path style="clip-rule:evenodd;fill-rule:evenodd" d="m51.836 171.69c1.305-0.127 1.881 0.474 1.649 1.883h-1.414c-0.142-0.56-0.339-1.07-0.235-1.88z"></path> <path style="clip-rule:evenodd;fill-rule:evenodd" d="m36.047 172.63c1.082 0.125 0.887 1.003 0.707 1.886-0.55-0.077-0.973-0.284-1.414-0.473-0.164-1.31 0.681-0.72 0.707-1.42z"></path> <path style="clip-rule:evenodd;fill-rule:evenodd" d="m59.142 172.63h1.413c0.319 0.696 0.295 1.46-0.236 1.886-0.53-0.5-1.304-0.74-1.177-1.89z"></path> <path style="clip-rule:evenodd;fill-rule:evenodd" d="m69.981 172.63h3.062v1.178c-0.636 0.464-2.059 0.14-3.062 0.235-0.211-0.69-0.211-0.72 0-1.41z"></path> <path style="clip-rule:evenodd;fill-rule:evenodd" d="m44.06 174.28c-0.578 0.508-1.743 0.175-1.649-0.708 0.163-1.23 2.097-0.69 1.649 0.71z"></path> <path style="clip-rule:evenodd;fill-rule:evenodd" d="m49.244 172.87c0.862-0.155 0.903 0.51 1.649 0.472-0.281 0.502-0.445 1.125-0.942 1.411-0.88 0.03-1.109-1.37-0.707-1.88z"></path> <path style="clip-rule:evenodd;fill-rule:evenodd" d="m58.199 173.1c0.385 0.917 0.533 1.458-0.236 2.121-0.73-0.291-1.38-0.661-1.179-1.883 0.279-0.28 0.834-0.27 1.415-0.24z"></path> <path style="clip-rule:evenodd;fill-rule:evenodd" d="m79.407 173.1c0.191 3.149-2.802 1.761-4.006 3.301-0.555 0.006-0.694-0.406-1.414-0.236 0.044-2.549 4.139-1.045 4.713-3.064h0.707z"></path> <path style="clip-rule:evenodd;fill-rule:evenodd" d="m33.456 173.34c0.227 0.4 0.74 0.516 1.179 0.705 0.031 0.581 0.036 1.136-0.236 1.416-0.553-0.077-0.885-0.374-1.65-0.238 0.172-0.721-0.406-0.692-0.235-1.413 0.536 0.07 0.885-0.06 0.942-0.47z"></path> <path style="clip-rule:evenodd;fill-rule:evenodd" d="m46.417 173.34h1.178c0.07 0.951 1.032 1.009 1.178 1.883-0.22 0.173-0.356 0.43-0.471 0.708-0.917-0.01-1.885-1-1.885-2.59z"></path> <path style="clip-rule:evenodd;fill-rule:evenodd" d="m63.854 173.34c0.394 0.414 0.789-0.211 1.649 0v0.705c0.244-0.575 2.6-1.181 3.536-0.235-0.307 0.932-2.093 1.608-2.829 0.708-0.718 1.204-1.607 0.711-2.592 0-0.097-0.56 0.431-0.51 0.236-1.17z"></path> <path style="clip-rule:evenodd;fill-rule:evenodd" d="m37.462 174.75c0.607-0.038 1.132 1.2 1.413 0.71 0.311 0.55-0.612 1.783-1.649 1.177 0.17-0.721-0.407-0.694-0.236-1.415 0.401 0.09 0.445-0.18 0.472-0.47z"></path> <path style="clip-rule:evenodd;fill-rule:evenodd" d="m51.365 174.75c0.468 0.396 0.299-0.02 0.942 0 0.402 0.589 0.822 1.158 0.471 1.887-1.517 0.18-1.765-0.8-1.413-1.89z"></path> <path style="clip-rule:evenodd;fill-rule:evenodd" d="m73.751 175.46c-0.306 2.019-2.538 1.53-3.063 1.177-0.029-1.54 2.308-1.81 3.063-1.18z"></path> <path style="clip-rule:evenodd;fill-rule:evenodd" d="m40.76 175.22c0.818-0.188 0.906 0.354 1.65 0.238 0.271 0.659 0.271 1.223 0 1.883-0.926-0.37-2.32-0.86-1.65-2.12z"></path> <path style="clip-rule:evenodd;fill-rule:evenodd" d="m70.452 175.69c0.171 0.722-0.241 0.859-0.236 1.415-0.952 0.077-2.536 0.724-3.063-0.943 1.287-0.99 1.552-0.75 3.299-0.47z"></path> <path style="clip-rule:evenodd;fill-rule:evenodd" d="m45.945 175.46c0.38 0.755 0.196 1.561-0.236 2.121-0.666-0.357-1.384-0.66-1.178-1.888 0.279-0.27 0.833-0.27 1.414-0.23z"></path> <path style="clip-rule:evenodd;fill-rule:evenodd" d="m62.912 176.16c-0.46 1.253-1.67 1.709-2.357 0.472 0.089-1.44 1.566-0.8 2.357-0.47z"></path> <path style="clip-rule:evenodd;fill-rule:evenodd" d="m51.129 176.87v1.415h-1.885c0.104-0.525-0.728-1.277-0.236-1.415 0.525-0.48 1.137 0.26 2.121 0.01z"></path> <path style="clip-rule:evenodd;fill-rule:evenodd" d="m53.721 177.34c1.099-0.023 1.34 1.07 0.942 1.887-0.915 0-1.59-1.07-0.942-1.89z"></path> <path style="clip-rule:evenodd;fill-rule:evenodd" d="m149.4 32.183c0.517 1.276 1.473-0.092 2.121 1.179 0.134 0.997-0.773 0.954-1.179 1.413 0.545 3.853 1.215 7.54 0.707 12.019-0.223 1.956-0.411 4.031-1.179 5.184-0.258 2.912-1.547 5.762-1.649 8.955-0.111 3.541 0.85 7.164 1.179 10.605 1.426 0.152 2.777 0.303 3.771-0.472 0.616 0.275 1.014-0.727 0.942 0.236 0.314-0.235 0.462-0.637 0.942-0.707 3.061-0.095 6.248 0.235 7.071-0.472 2.134 0.388 4.983 0.865 7.54 1.179 3.279 0.402 4.388 1.361 6.125 3.77 1.315 1.823 3.226 4.062 4.95 5.891 1.438 1.527 2.874 3.675 4.006 5.655 0.498 0.287 0.683 0.887 1.413 0.943 0.267 1.014 0.723 1.799 1.413 2.593 0.332 0.378 0.896 0.456 1.416 0.942 0.375 0.352 0.579 1.1 0.941 1.415 0.703 0.606 1.789 0.842 2.356 1.413 0.561 0.566 0.353 0.861 1.178 1.414 0.79 0.529 1.285 1.427 2.121 2.121 1.059 0.878 2.659 1.692 4.008 2.593 0.721 0.483 1.325 0.794 2.119 1.178 0.33 0.161 0.792 0.295 1.18 0.472 0.379 0.172 0.5 0.631 0.705 0.706 0.384 0.142 0.921-0.123 1.416 0 0.371 0.096 0.633 0.633 0.941 0.708 1.198 0.293 2.782 0.472 4.006 0.472 2.197 0 3.425-0.52 5.419 0.236 0.246 0.092 0.587 0.102 0.944 0.234 0.97 0.364 2.939 0.23 4.713 0.472 0.733 0.102 1.339 0.66 2.121 0.943 0.955 0.345 2.141 0.372 2.827 0.706 0.47 0.23 0.441 1.291 1.178 0.709 1.561 2.915 3.033 5.92 5.186 8.246 0.368-0.102 0.199-0.74 0.941-0.472 7.144-0.146 13.79 0.184 17.203 0 0.23 0.318 0.794 0.307 0.942 0.708 4.454 0.274 6.149 0.909 9.661 2.121 0.75 1.818 3.479 2.523 3.771 4.95 0.309 2.556-1.801 4.453-2.829 6.597-2.01 1.237-3.705 2.597-6.363 3.77-1.57 0.694-3.162 1.527-4.711 1.885-0.388 0.09-0.616-0.113-0.942 0-1.21 0.424-2.74 0.351-4.478 0.472-0.464 0.033-0.332 0.447-0.472 0.47-0.175 0.032-0.846-1.106-0.941 0-0.376-1.024-0.603 0.569-0.708-0.47-2.41 1.129-5.022 0.493-7.305 0.47-5.86-0.058-10.413 0.011-15.79-1.178-1.032-0.228-1.638-0.751-2.827-0.706-1.204 1.465-2.322 3.018-3.064 4.948-0.97 0.575-1.718 1.427-2.591 2.121-0.868 0.688-1.927 1.204-2.591 2.121-0.598-0.519-1.338 0.431-1.65 0-4.451 2.802-8.249 2.464-12.96 4.947-0.645 0.692-1.229 1.442-1.886 2.121-1.238 3.271 2.267 5.477 1.886 8.483-0.232 1.811-2.449 4.612-4.242 5.42-1.116-0.219-1.671-1.001-2.357-1.649-0.168-1.975 0.794-2.818 0.708-4.714-0.903-0.307-1.287 0.469-2.356 0.943-0.196 0.591-0.645 0.925-0.706 1.649-1.097 1.024-2.133 2.109-3.064 3.299-0.662 0.028-1.12 0.659-1.885 1.18-0.606 0.41-1.521 0.763-1.886 1.413-2.608 0.33-2.938 1.711-5.186 2.121-0.345 0.205-0.746 0.353-0.705 0.943-1.396 0.217-3.253 0.39-4.948 1.178-0.591-0.738-4.096 0.828-5.657-0.472-1.116 0.694-1.996-0.549-3.298 0.472-0.691-0.35-0.876 0.267-1.179-0.472-3.187 1.073-5.106-0.085-8.955-0.472 0.142-0.927-1.631 0.061-1.413-0.942-1.285 0.244-5.271-0.437-5.892 0.47-2.139-0.08-3.513 0.119-4.948 0-0.377-0.03-0.617-0.466-0.708-0.47-0.139-0.005-0.518 0.459-0.471 0.47-0.244-0.061-0.195-0.379-0.472-0.47-1.345-0.435-2.436-1.229-4.006-1.885-0.646-1.522-2.141-2.83-2.592-4.714-0.549-2.282-0.455-4.84-0.942-7.305-0.251-1.264-0.517-2.709-0.943-4.006-0.261-0.79-0.952-1.524-1.178-2.354-0.098-0.363 0.118-0.825 0-1.18-0.47-1.409-1.4-2.712-1.414-4.242-1.121-1.313-2.479-2.392-3.299-4.006-2.885-1.63-6.873-1.396-10.133 0.472-0.391 0.237-0.257 1.001-0.472 1.413-1.892 0.272-3.441 2.599-4.478 4.479-1.029 0.009-1.533 1.473-2.121 1.177 0.191 1.178-0.641 1.968-1.178 2.829-0.431 0.688-0.913 1.766-1.414 2.356-0.416 0.489-1.23 0.706-1.649 1.178-0.723 0.813-0.814 1.988-1.885 2.356-1.308 3.17-3.58 5.376-4.948 8.482 0.211 0.762-0.77 0.332-0.943 0.708-0.717 3.288-3.022 4.989-4.478 7.542-2.58 1.226-4.54 3.409-6.598 5.419-0.539 0.246-1.421 0.15-1.885 0.473-2.746 2.301-5.497 2.056-9.425 4.004-3.156 0.543-6.279 0.293-8.484 0.472-0.181 0.016-0.447 0.472-0.471 0.472-2.566-0.046-4.839-1.473-7.069-0.236-1.632-0.736-3.374-0.287-7.07-0.472-0.514 0.044-0.75-0.193-0.707-0.707-0.71 0.034-1.347 0.13-2.121-0.234-0.286-0.134-0.788-0.556-0.942-0.472-0.68 0.376-0.375 0.012-1.649-0.235-0.688-0.135-1.398 0.193-2.121 0-1.399-0.372-2.077-1.032-4.006-1.414-1.972-0.391-3.575-1.606-5.42-1.887-1.348-1.224-3.427-1.933-4.949-2.591-0.547-0.236-1.265-0.259-1.649-0.472-0.822-0.454-1.312-1.402-2.121-1.886-0.692-0.414-1.622-0.518-2.356-0.943-1.824-1.049-3.999-2.535-5.656-4.239h-0.943c-0.071-0.716-0.909-0.662-0.942-1.414-1.994-0.314-3.269-2.282-4.477-3.77-0.789-0.975-1.506-2.018-2.357-3.301-1.379-2.083-3.13-4.812-2.592-8.013 0.128-0.834-0.834-0.579-0.707-1.413-0.106-4.142-0.458-8.342 0-12.019 0.345-2.782 2.062-4.581 2.356-6.832 1.355-0.971 2.374-2.528 3.77-4.008-0.076-2.313 1.577-4.622 1.415-7.774-0.786-1.101-2.433-1.338-3.534-2.121 0.387-1.185 1.492-1.649 1.885-2.829 1.104-0.544 2.453-0.846 2.828-2.121 1.824 0.098 1.931-1.524 3.535-1.649 0.059-0.804 0.595-1.133 0.472-2.121 2.268-1.187 4.062-2.848 5.419-4.95 1.956-1.264 4.024-2.416 5.655-4.004 2.716-1.162 3.779-2.294 7.306-2.829 0.922-1.087 2.546-1.298 3.77-2.121 1.508-1.013 2.458-2.677 4.242-3.534 0.795-1.405 1.304-3.095 2.121-4.478v-3.062c0.613-0.802 1.101-1.727 1.649-2.593 2.104-0.293 4.042-1.331 5.185-1.885 1.924 0.04 3.668-0.102 5.184-0.471 2.099-3.673-1.267-8.767-2.356-12.254-1.665-2.158-3.162-5.334-3.535-8.719-0.427-3.872-0.786-8.722 0.236-12.489 0.268-0.988 1.158-1.84 1.414-2.828 0.651-2.513 0.068-5.425 1.885-6.835 0.937-4.562 3.051-7.945 4.949-11.546 0.842-0.022 0.85-0.877 1.649-0.943v-1.178c0.493 0.1 0.625-0.161 0.943-0.235 0.383-2.13 2.165-2.863 2.828-4.713 0.617 0.546 0.747-0.821 1.65-0.708 0.1-0.449 0.673-0.426 0.471-1.179 1.856-0.313 2.747-2.122 4.242-3.063 0.375-0.236 1.207-0.211 1.649-0.471 0.427-0.25 0.601-0.783 0.942-0.942 0.44-0.206 0.795-0.024 1.179-0.236 4.519-2.49 9.071-5.072 14.846-5.655 1.152-0.517 2.235-1.605 3.534-1.885 1.555-0.335 3.291 0.065 4.949-0.236 0.499-0.09 0.331-0.352 0.706-0.472 0.358-0.113 0.814 0.094 1.179 0 0.28-0.071 0.476-0.472 0.472-0.471 2.171-0.328 4.382 0.427 6.598 0.235 0.295-0.025 0.399-0.392 0.707-0.472 2.479-0.638 4.812 1.276 6.127 0 1.737 0.488 3.481 0.145 5.655 0.472 0.854 0.129 1.669 0.82 2.593 0.943 3.189 0.422 5.651 1.22 7.776 2.828 1.094-0.138 1.422 0.322 2.121 0 2.241 1.373 4.674 3.809 7.068 4.242 0.433 0.745 1.245 1.112 1.414 2.12 0.942 0.08 1.205 0.838 2.121 0.944 0.889 1.007 1.395 2.353 2.121 3.534 0.312 0.508 0.802 1.462 1.178 1.885 0.471 0.529 1.229 0.59 1.65 1.178 0.122 0.172 0.078 0.884 0.234 1.179 0.102 0.188 0.66 0.369 0.708 0.471 0.261 0.562 0.226 1.309 0.471 1.885 0.403 0.947 0.987 1.813 1.414 2.828 0.731 1.741 1.331 3.268 2.121 5.42v2.116zm-43.13-30.163c0.492 0.215 0.718 0.696 0.706 1.415-0.245 0.248-1.683 0.487-1.885 0-0.258-1.122 0.858-0.87 0.707-1.885-1.76 0.125-2.611 1.158-3.771 1.885-0.05-0.285-0.262-0.145-0.472 0-0.078-0.551-0.283-0.974-0.471-1.415-1.8 0.086-4.058-0.287-5.185 0.472 0.364 1.406-1.317 2.393-2.121 2.121-0.052-0.184-0.196-0.274-0.471-0.236 0.183-0.523 0.494-0.918 0.471-1.649-1.894 0.405-4.224 0.314-6.139 1.413v1.414c-0.274 0.198-0.632 0.311-1.179 0.236v1.178c-1.708 0.413-1.527 2.714-3.3 3.063-0.492-0.214-0.718-0.695-0.706-1.413 1.033 0.247 0.773-0.798 1.649-0.708-0.2-1.85 1.4-1.897 2.356-2.592-1.916-1.155-2.873 0.441-4.006 1.649-1.229-0.82-3.378-0.854-3.771 0.942 0.727-0.146 1.697-1.273 2.592-0.471 0.12 1.534-1.474 1.354-1.885 2.357-0.488-0.936-0.94-1.147-0.942-2.121-1.337 0.159-3.632 0.603-3.299 1.649 0.508-0.645 1.667 0.045 1.414 0.942-0.367 0.419-0.663 0.908-1.649 0.707-0.13-0.419-0.122-0.978-0.472-1.177-0.708 1.58-3.102 0.029-4.006 1.414 0.917 2.099-1.855 2.541-2.121 4.242-0.273 0.198-0.632 0.311-1.178 0.236 0.018-0.41-0.052-0.733-0.235-0.943 0.477-1.294 1.948-1.527 2.121-2.828-2.143 0.528-2.765 2.577-4.714 3.299-0.125 0.817 0.35 2.235-0.471 2.357-1.234-1.611-3.007 0.332-3.771 2.356 0.609 0.094 1.688-0.105 1.414 1.414-0.891-0.341-0.452 0.647-1.179 0.471-0.623-0.083-0.212-1.2-0.707-1.413-0.933 2.522-3.151 3.762-4.006 6.362 0.235 0.314 0.637 0.463 0.707 0.943-0.358 0.489-0.81 1.664-1.649 0.942-0.081 1.102 0.509 1.534 0.707 2.357 0.771-0.352 1.563 0.191 2.593 0.236 0.384-0.85 0.771-2.225 2.121-1.415 0.484-0.379 0.547-1.181 0.471-2.121 0.49-0.138 0.762-0.495 1.179-0.707-0.066 0.617 0.086 1.014 0.707 0.943 1.247-0.168 1.972-0.856 3.299-0.943 0.03-0.677 0.294-1.119 1.179-0.942 0.297-0.892-0.623-1.422 0.471-2.121 2.627 0.515 4.382 0.178 6.127-1.178 0.326-0.954-0.511-0.745-0.472-1.414 0.161-0.468 0.718-0.54 0.943-0.942 0.326 0.381 0.834 0.58 0.708 1.413 1.481 0.055 1.503-0.521 3.063-0.707-0.305-1.797 0.775-2.209 1.885-2.593-0.216-1.393 0.809-1.546 1.649-1.885 0.003 0.469 0.644 0.3 0.472 0.944-0.426 1.459-2.537 1.233-2.593 3.062 1.246 0.272 2.344-0.489 3.063 0-0.065-0.688 0.057-0.809 0.472-0.471 0.342-0.601 0.097-1.79 1.414-1.415 0.442 0.417-0.28 0.688 0.235 1.179 1.977 0.271 4.541 0.273 6.127-0.236-0.39-0.317-0.812-0.603-0.942-1.179 0.633-0.387 0.905-1.136 1.649-1.413 0.016 0.691 0.72 0.694 0.942 1.178-0.368 0.574-1.27 0.616-1.414 1.414 2.602 0.862 8.717 1.217 11.075-0.707 0.633 1.555 3.826 1.312 4.949 1.649 0.413-0.608 0.096-1.946 0.942-2.121 0.05 0.286 0.262 0.146 0.472 0-0.176 0.726 0.646 0.454 0.471 1.179 0.025 0.731-0.741 0.673-0.471 1.65 1.22 0.03 1.573 0.714 3.534 0.471 0.513-0.352 0.376-1.352 1.179-1.413 2.538 2.435 7.555 1.314 10.84 3.534 0.322-0.698-0.138-1.026 0-2.121 0.728 0.732 0.397-0.797 1.413-0.471 0.319 0.231 0.472 0.628 0.708 0.942-0.377 1.193-1.466 0.621-1.65 1.649 0.738 0.284 1.571 0.471 2.356 0.707 0.647-0.53 0.334-2.023 1.415-2.121 0.052 0.184 0.196 0.274 0.471 0.236 0.389 1.489-0.743 1.457-0.707 2.593 0.703 0.516 1.525-0.169 1.886 0.235 0.129 1.561 0.838 3.394 1.885 3.299-0.081 1.809 1.081 2.374 2.121 3.063 0.084-0.622 0.565-0.848 1.413-0.707-0.036 0.586 0.37 0.729 0.472 1.177-0.131 0.577-0.912 0.502-0.706 1.415 0.752 1.759 1.957 3.069 4.477 3.063-0.188 0.834-0.871 1.171-1.179 1.885 0.29 0.889 0.469 1.888 1.414 2.121-0.223-0.851 0.929-0.329 1.414-0.472 0.61 1.407-0.511 1.833-1.414 2.357 0.069 1.108 0.845 1.511 1.649 1.885 0.109 0.973-0.556 1.172-0.942 1.649 0.378 1.773 0.667 2.787 0.707 4.478 0.832 0.109 2.271-0.385 2.121 0.707-0.521 0.58-0.952 1.247-1.886 1.415 0.095 1.115-0.421 1.622-0.235 2.828 0.278 0.271 0.833 0.267 1.414 0.235 0.143 0.565 0.339 1.076 0.235 1.885-0.568 0.981-1.745-0.701-1.885 0.708 0.084 0.623 1.2 0.213 1.413 0.707 0.049 0.815 0.336 1.11-0.235 1.649-1.029 0.322-0.502-0.912-1.413-0.707-0.352 1.646-1.445 3.695-1.179 5.185 0.996 0.731 1.673 1.782 2.356 2.828-1.106 1.264-1.784 0.057-3.063-0.236-0.125 2.088 1.097 2.83 1.649 4.242-0.489 0.849-1.099 0.506-2.121 0.471v1.179c1.005-0.804 1.686-0.032 2.357 0.707-0.327 0.145-0.036 0.908-0.473 0.942-0.911 0.148-0.97 0.196-1.648-0.235-0.206 1.227 1.314 0.727 1.648 1.414 0.181 0.602 0.348 1.083-0.234 1.414-0.547 0.075-0.905-0.038-1.179-0.236 0.136 0.415-0.284 1.385 0.235 1.415 0.66-1.108 2.454 0.032 2.121 1.413-0.464-0.07-0.468 0.318-0.707 0.472-0.392-0.285-1.322-0.736-1.649-0.708 0.812 5.079 0.937 11.543 2.121 17.203 2.323 0.125 2.832-1.566 2.828-3.77-0.277-0.351-0.98-0.278-0.943-0.941-0.838-0.368-0.143 0.797-0.707 0.706-0.824-0.276-1.697-0.502-1.413-1.885 0.235 0.002 0.279-0.191 0.471-0.236 0.81 0.211 1.026-0.139 1.178 0.944 0.602-0.341 1.059-0.828 1.886-0.944-0.141-0.488 0.291-1.547-0.236-1.649 0.243 0.792-0.732 0.366-1.178 0.471-0.307-0.685-0.298-1.665 0.235-2.12 0.884-0.508 0.866 0.299 1.65 0.471 0.333-1.716 1.231-4 0.471-5.419 1.367-1.226 2.222-2.963 2.121-5.656 0.546 0.076 0.905-0.037 1.178-0.235 0.098-0.569-0.43-0.513-0.235-1.178-0.806-0.178-0.299 0.957-1.179 0.707-0.879-0.278-0.879-1.842 0-2.121 0.714 0.245 0.812 0.935 0.942 1.178 0.527-0.757 0.13-2.22 0-3.063-0.925-0.218-0.594 0.82-1.648 0.472-0.075-0.553-0.372-0.885-0.236-1.65 0.68-0.359 0.737 0.008 1.65-0.235 0.275-2.678-0.312-5.267-0.472-7.542-0.244-3.489 0.189-7.04 0.942-10.368 0.138-0.609 0.635-1.061 0.707-1.65 0.293-2.372 0.537-3.692 0.942-5.655-0.274-0.04-0.255-0.372-0.235-0.707h-1.414c-0.355 0.587-0.337 1.549-1.179 1.649-0.634 0.162-0.455-0.487-0.706-0.707 0.317-1.731 1.751-3.045 3.534-2.591-0.017-1.835-0.105-2.294 0-4.006-0.593-0.469-1.231 0.394-1.886-0.472v-0.942c0.274-0.198 0.632-0.311 1.179-0.236 0.364-2.098-0.958-3.879-1.179-5.655-0.07-0.574 0.289-1.328 0.236-1.885-0.191-2.021-1.546-3.615-1.885-5.655-0.417-0.315-1.17 0.19-1.649-0.472-0.127-0.911 0.42-1.151 0.234-2.121-0.983-0.199-1.112 0.458-1.885 0.472-0.075-0.553-0.372-0.884-0.235-1.649 0.438-0.191 0.952-0.305 1.178-0.708-0.261-1.102-1.144-2.348-2.12-1.414-0.451-0.577-0.956-1.243-0.472-2.121-1.021-1.021-1.333-2.752-2.592-3.535-0.862-0.162-1.158 1.664-3.063 1.178 0.018-0.411-0.053-0.732-0.235-0.943 0.504-0.604 2.241-0.937 1.414-2.12-1.147-0.3-1.103 1.371-1.885 0.707-0.769-0.068-0.594-1.788 0-1.885-0.681-0.431-0.738-0.382-1.65-0.236 0.097-0.567-0.431-0.512-0.236-1.178-1.522 0.061-1.903-0.481-2.355-1.885-1.672-0.125-2.309 0.21-3.063-1.414-0.99 0.339-1.527 1.037-2.357 0.942-0.324-0.303-0.232-1.023-0.234-1.649-1.249-1.041-2.796-0.791-3.535-1.413 0.017 0.88-0.379 1.349-0.943 1.649-0.213-0.415-0.867-0.389-0.942-0.942-0.005-0.555 0.406-0.694 0.236-1.415-1.199 0.036-1.614 0.488-2.828 0.944-0.195-0.591-0.646-0.926-0.706-1.65-1.201-0.446-3.711 0.241-4.949-0.707-2.24 1.233-3.86-0.491-4.94 0.467zm-49.721 48.072c1.382-2.31 3.674-3.709 5.655-5.419 1.333 0.075 1.74-0.774 2.357-1.415 0.744 0.116 0.833-0.425 1.649-0.235 0.066-0.72 1.054-0.518 1.178-1.178 2.591-0.338 4.459-2.077 7.542-2.828 0.23-0.791 1.217-0.826 1.649-1.415 1.321 0.068 2.434-0.415 3.064-0.707 0.705-0.326 1.378-0.013 2.121-0.236 0.828-0.25 1.519-0.994 2.356-1.178 1.436-0.317 3.107 0.025 4.713-0.235 0.97-0.158 1.885-0.822 2.827-0.943 4.801-0.615 8.699-0.003 13.433 0.472 5.094 2.998 10.945 5.235 13.668 10.604 0.419 0.13 0.979 0.122 1.178 0.472 2.226 2.809 4.301 7.292 5.184 12.018 1.149 6.154 0.057 12.373-0.471 18.617-0.231 2.741-0.02 5.604-0.472 7.776-1.194 5.746-4.379 9.963-6.834 13.196-0.743 0.514-1.283 1.229-2.355 1.416-2.4 3.868-6.663 4.02-10.134 5.891-0.865-0.403-1.962 0.269-3.063-0.238-0.251 0.221-0.072 0.871-0.706 0.708-4.914 0.094-10.668-0.455-16.967-2.829-0.046-1.146-0.834-0.092-0.943-1.177-5.244-0.32-6.424-5.738-9.661-7.305-0.678-1.444-1.383-2.858-2.121-4.242-0.475-7.161-0.316-14.82 2.121-20.266 0.606-0.018 0.337-1.098 0.943-0.472-0.149-1.249 0.829-1.37 0.707-2.592 0.891-0.366 1.387-1.127 1.65-2.121 1.331-0.632 2.011-1.915 3.062-2.828 0.75-0.336 2.045-1.78 3.063-2.592 1.02-0.16 1.863-0.495 2.356-1.178 1.362 0.212 2.705-0.737 3.771-0.943 0.305-0.059 0.226 0.5 0.472 0.471 0.085-0.01 0.053-0.438 0.471-0.471 2.103-0.169 3.829 0.176 5.892 0 1.052 0.833 2.555 1.216 4.242 1.414 0.097 0.296 0.304 0.481 0.706 0.472 0.585 1.73 2.418 2.868 3.535 4.713 1.458 2.406 2.496 5.968 2.828 8.955 0.685 6.166-2.729 9.743-5.421 11.783-3.835 0.221-7.92 0.893-10.133-1.415-0.342-1.078-0.87-2.67-0.471-3.77 0.338-0.074 1.521-0.401 1.649-0.471 1.72-0.945 3.892 0.122 5.42 0.471 1.062-0.606 1.497-1.041 2.828-0.943 0.282-1.144 1.289-1.087 1.885-2.592 0.747-1.889-0.038-4.616 0.707-5.656-0.119 0.166 0.078 0.755 0.235 0.708 0.482-3.231-0.989-4.509-1.178-7.069-1.196-0.689-1.746-2.024-2.356-3.3-1.469-0.459-3.104-0.92-4.006-1.177-3.344-0.955-5.167-0.575-8.719-0.236-0.544-0.073-0.262 0.681-0.708 0.707-2.114-0.192-5.517 1.673-6.362 4.242-2.061 0.402-3.335 2.636-4.242 4.241-0.242 0.429-0.766 0.799-0.942 1.179-0.283 0.611-0.178 1.343-0.471 1.885-0.25 0.462-0.767 0.723-0.943 1.178-1.63 4.213-1.428 10.457-1.178 15.082 0.045 0.847-0.16 1.936 0 2.592 0.506 2.084 3.776 5.057 5.184 6.599 0.637 0.696 1.312 1.699 1.885 2.121 1.662 1.224 3.953 1.032 5.185 2.827 1.776 0.188 3.134 0.794 4.478 1.415h2.592c1.855 1.557 5.812 0.504 8.955 1.178 0.176-1.074 2.708-0.808 3.534-0.472 1.184-1.024 3.104-1.126 3.771-1.885 0.167-0.19 1.531-0.418 1.649-0.47 0.604-0.272 1.471-0.458 1.886-0.71 0.269-0.161 0.384-0.688 0.706-0.941 0.325-0.255 0.947-0.259 1.179-0.47 0.301-0.276 0.409-0.886 0.707-1.18 1.285-1.275 2.711-2.445 4.006-3.534 1.547-3.461 3.59-5.991 4.242-10.133 0.732-4.656 0.882-10.692 1.413-15.082 0.721-5.947-0.38-11.874-2.12-16.259-0.669-1.687-1.305-3.71-1.886-4.478-0.69-0.912-2.136-1.613-3.062-2.592-1.489-1.57-2.68-3.748-4.007-4.713-0.461-0.334-1.479-0.62-2.12-0.942-1.57-0.786-2.742-1.034-3.3-2.357-0.731 0.31-0.672-0.063-1.649 0-1.494-1.468-3.464-1.231-5.655-1.649-1.593-0.304-2.085-0.226-3.771 0-2.185 0.292-4.354-0.332-6.598 0.235-0.379 0.096-0.202 0.393-0.706 0.472-1.752 0.273-3.57 0.233-5.421 0.236-0.858 1.031-2.451 1.522-4.006 2.121-1.537 0.59-3.211 1.153-4.713 1.413-0.16 0.468-0.717 0.539-0.942 0.943-2.338 0.272-4.634 2.579-7.305 3.299-1.48 1.504-3.125 2.846-5.42 3.534-1.409 1.992-2.556 3.751-3.771 5.891-0.392 0.69-1.489 1.932-1.649 2.357-0.417 1.106-0.027 2.524-0.236 4.006-0.509 3.614-0.427 8.517-0.472 12.96 0.231 0.869 1.239 0.961 1.414 1.885-0.879 2.103-1.019 4.939 0 6.834-0.119 0.587-0.627 0.787-0.707 1.413 0.5 4.979 0.239 11.236 0 16.26 0.187 0.677 0.477 1.25 0.707 1.885-1.104 0.698-0.461 2.102-0.472 3.534 2.897 0.481 4.571 2.185 7.777 2.357-0.01 0.734 1.126 0.897 1.885 1.178 0.804 0.299 1.829 0.83 2.828 0.708 2.874 2.276 7.383 1.839 10.368 4.242 1.117-0.174 1.621 0.265 2.593 0.236 0.407 0.648 1.371 0.809 2.12 1.177 0.941 0.464 1.563 1.061 2.357 1.177 2.265 0.338 3.509-0.328 4.477-0.472 1.318-0.191 2.303-0.104 2.828-0.47 0.632-0.441 1.894-0.217 2.592-0.236 3.31-0.094 5.862-0.196 7.776 0.472-0.03-0.422 0.234-0.552 0.707-0.472 0.741-0.113 0.922 0.335 1.414 0.472 0.094-0.966 1.302-0.303 1.886-0.472 0.382-0.111 0.191-0.407 0.706-0.472 4.436-0.556 9.863 0.462 12.961-0.706 0.441 0.671 2.387 0.671 2.828 0-0.017 0.725 0.87 0.311 1.885 0.472 1.755-0.813 3.702-0.485 5.655-0.708 1.063-0.876 1.336-1.145 2.829-1.413 0.913-1.208 2.32-1.921 3.77-2.593 2.005-2.198 1.732-6.248 1.179-9.897-1.291-1.463-0.59-4.067-1.179-6.363-0.095-0.37-0.425-0.575-0.472-0.941-0.188-1.492 0.134-3.015 0-4.478-0.448-4.924-1.896-11.751-1.413-16.967 0.249-2.699 0.611-6.396 1.413-8.483 0.135-0.349 0.603-0.567 0.707-0.942 1.524-5.438 0.672-12.879-0.235-17.673-1.18-2.152-1.396-4.363-2.593-5.892-0.901-1.153-2.033-2.359-2.592-3.299-1.112-1.873-2.259-3.139-3.77-4.006-0.25-5.014-5.739-4.788-9.191-6.598-2.375-0.152-2.257-0.142-3.77-0.942-2.349-0.269-4.719 0.231-7.306 0-0.253-0.023-0.574-0.414-0.942-0.472-0.521-0.081-1.211 0.109-1.649 0-0.831-0.207-1.57-0.811-2.356-0.943-0.804-0.134-1.934 0.105-2.828 0-1.378-0.162-0.61-0.233-1.649 0-3.432 0.771-6.756 0.116-9.19-0.471-1.928 0.883-4.066 0.043-6.834 0.236-1.239 0.085-2.518 0.726-4.006 0.942-1.134 0.166-2.169-0.059-3.299 0.236-1.496 0.39-2.461 1.333-3.535 1.885-0.769 0.396-1.564 0.592-2.356 0.942-1.62 0.716-3.077 1.724-4.478 1.886-0.8 1.53-2.992 2.208-4.477 2.356-1.189 1.875-3.83 2.297-4.949 4.242-0.611-0.583-0.876 0.508-1.649 0.471-0.404 1.383-1.977 2.031-2.828 3.299-0.566 0.843-1.032 2.151-1.65 3.3-0.591 1.099-1.391 2.322-1.649 3.298-0.828 3.115-0.357 7.747 0 10.369 0.073 0.536-0.066 1.125 0 1.649 0.312 2.489 1.344 4.816 2.828 6.598 0.514-3.413 1.689-6.165 2.121-9.662 1.233-0.887 1.778-2.464 2.592-3.77 0.021 0.266-0.345 0.367-0.003 0.472zm169.9 58.908c-0.185-0.052-0.274-0.198-0.238-0.47-1.61-0.518-2.271-1.091-4.004-2.121-1.254 0.368-2.497-0.529-3.064-0.472-0.514 0.052-0.548 0.411-0.941 0.472 0.032-0.006-0.217-0.468-0.236-0.472-0.303-0.065-0.229 0.506-0.472 0.472-0.015-0.004-0.163-0.403-0.472-0.472-1.706-0.383-2.943-0.506-3.77-1.177-1.412 0.932-4.204 0.012-5.892 0.47-0.725-0.821-1.101-0.569-2.354-0.708 0.028-0.443-0.146-0.353-0.473-0.472-1.234-0.445-2.265-0.679-3.298-1.178-1.17-0.56-2.263-1.773-3.301-2.121-0.074-0.025-1.133-0.825-1.649-0.472-1.946-3.158-5.584-4.625-7.776-7.54-2.715-1.212-3.394-4.461-5.655-6.126-0.437-0.722-0.659-1.641-1.179-2.356-1.182-1.63-3.13-3.263-4.242-4.478-0.493-0.539-0.501-1.347-0.941-1.885-0.802-0.978-2.455-1.427-2.357-3.063-1.288-0.185-1.634-1.462-2.826-1.885-1.721-0.61-3.834 0.056-4.95-0.707-0.538 0.917-2.201 0.096-3.298 0.236-3.546 0.45-7.16 1.16-9.19 2.356-0.936 0.55-1.885 1.25-2.592 1.885-0.632 0.566-1.156 1.083-1.65 0.942-0.318 1.41-1.749 1.708-1.649 3.535 1.743 0.114 2.583-0.312 3.063 0.943 3.969-0.832 5.888-1.232 9.426 0.236 0.035 0.585-0.122 0.977-0.471 1.177-0.54 0.169-0.74-0.376-1.179-0.471-3.789-0.812-8.532 1.374-12.253 2.356-0.226 1.097-1.233 2.449-0.472 3.771 1.412-1.261 5.23-0.555 6.362-1.414 0.859 1.291 2.188-0.025 2.592 0-0.072-0.005 0.232 0.415 0.471 0.472 0.721 0.168 2.017 0.043 2.829 0.235 0.397 0.095 0.616 0.597 0.942 0.708 1.457 0.494 3.009 0.498 4.478 0.707 1.385 1.364 4.208 1.291 5.42 2.827h1.178c1.513 1.787 3.674 2.924 5.657 4.242 0.391 1.335 1.396 2.058 2.119 3.064 0.48 0.901 0.048 1.803 0 2.827-3.661 3.08-8.045-1.231-12.019-1.649-0.729-2.111-5.036-1.592-5.184-3.535 2.516-0.732 4.794 1.124 5.655 2.121 3.962 0.039 6.447 3.556 9.897 2.591 0.972-2.198-1.064-3.085-1.649-4.476-1.055-0.388-1.313-0.817-2.121-1.416-0.338-0.25-1.015-0.326-1.18-0.47-0.391-0.341-0.508-1.087-0.941-1.414-0.478-0.36-1.363-0.128-1.413-0.943-1.306 0.307-2.612-1.15-3.536-1.415-0.181-0.05-0.36 0.299-0.47 0.238-0.109-0.062-0.312-0.593-0.472-0.708-1.329-0.958-3.871-0.688-5.655-1.178-2.691-1.608-6.282-0.849-9.662-0.942-1.191 2.186-3.609 3.146-4.714 5.421 0.275 0.039 0.257 0.372 0.236 0.706 2.881 0.798 3.717 2.635 6.363 3.298 1.26 1.999 3.764 3.881 4.948 5.186 1.072 1.676 1.931 3.567 3.299 4.948 0.127 3.145 2.688 5.396 3.063 8.484 0.309 2.539 0.331 4.111 1.179 6.125 0.929 0.403 0.672 0.115 1.414 0 1.992-0.301 4.569-0.034 6.832-0.234 0.271-0.023 0.631-0.428 0.944-0.472 1.599-0.227 3.383 0.153 4.947 0 0.276-0.027 0.714-0.432 0.943-0.472 1.398-0.246 3.241-0.027 5.184 0 1.938 0.027 4.998 0.24 6.127 0 0.407-0.086 0.547-0.203 0.943-0.234 3.701-0.307 7.188-0.476 9.426 0 2.008-0.813 4.137-0.518 5.655-0.238 0.738-1.174 1.08-3.372 1.178-4.476 2.242-0.2 5.824-0.493 7.778-0.943 1.051-0.242 2.267 0.055 2.826-0.234 2.031-1.059 4.371-1.517 6.835-1.18 0.63-2.07 1.62-3.75 1.65-6.39zm-121.36-31.102c0.109-0.842 1.309-1.82 0.471-2.828-0.22 0.728-1.25 1.872-0.47 2.828zm-4 1.886c0.688 0.347 0.688-1.053 0-0.707v0.707zm-46.191 2.592c-1.774-2.497-4.221-3.329-6.363-2.593-0.198 0.068-0.753-0.079-0.942 0-0.312 0.131-0.473 0.645-0.707 0.707-0.853 0.229-1.297 0.08-1.885 0.472-0.703 0.469-1.484 0.609-1.885 1.179-0.603 2.853-0.684 5.87 1.649 6.833 1.729-0.627 3.926-0.787 6.363-0.707 0.766-2.544 4.18-1.802 3.77-5.891zm40.767 0.471h1.179c0.041-1.062 0.115-2.157-0.942-2.121-0.332 0.46-0.771 1.518-0.237 2.121zm-1.649-0.471c0.566-0.566-0.772-0.611-0.706-0.236-0.003-0.016 0.797 0.145 0.706 0.236zm-39.353 16.025c-1.082-1.354-2.764-2.106-3.063-4.242-1.251-0.249-1.043 0.023-1.885 0.472-2.259-0.435-5.727 0.919-7.54 1.649-0.347 0.138-0.157-0.242-0.472 0-0.66 0.506-1.734 0.683-1.885-0.472 1.962-1.663 4.7-2.094 7.542-2.357 1.777-1.206 5.51-0.094 7.54-0.47 0.106-1.128 0.106-0.996 0-2.122-1.324-0.251-1.799-1.013-2.828-1.178-1.786-0.288-5.395 0.301-6.598 0.707-1.454 0.49-1.139-0.062-2.357 0.708-1.185 0.747-2.163 1.591-3.299 2.12-1.406 0.656-2.503 0.694-3.063 1.177-0.945 0.821-2.047 0.787-3.063 1.18-0.765 0.297-1.437 1.099-2.121 1.413-0.261 0.121-0.675-0.105-0.943 0-1.413 0.56-2.687 1.534-3.535 1.887-0.787 0.326-1.647 0.259-2.356 0.706-1.455 0.917-2.2 2.854-4.006 2.827-0.366 0.736-1.025 1.176-1.885 1.416-1.429 1.58-2.578 3.801-4.478 4.242-0.229 0.713-0.622 1.262-0.707 2.121-0.944 0.278-1.363 1.108-2.121 1.649-1.625 1.162-4.194 1.582-4.712 3.77 2.524 0.618 4.224 2.06 6.833 2.593 0.252 0.61 0.149 1.577 0.707 1.883 0.336-0.92 2.205-0.309 3.064-0.706 1.648-2.167 3.777 0.008 5.655-1.885 2.786 0.178 7.375-1.67 8.955-4.242 2.421-1.271 4.055-3.329 6.127-4.949 0.897-0.397 1.155-0.533 1.885-1.178 0.497-0.438 1.015-0.938 1.414-1.178 0.371-0.222 0.246-0.379 0.707-0.708 0.157-0.113 0.544 0.107 0.707 0 0.122-0.081 0.323-0.581 0.472-0.708 1.391-1.189 4.484-0.589 6.834-0.706 0.328-1.72 3.802-2.63 4.475-5.399zm106.52 20.269c0.196-2.163-1.047-3.262-1.649-4.713-0.451-1.085-0.533-2.298-0.943-3.299-0.448-1.101-1.53-1.95-2.355-3.064-0.85-1.145-1.372-2.447-2.121-3.298-1.348-1.534-3.107-2.392-3.771-3.77-1.245-0.092-1.618-1.055-2.356-1.649-1.792 1.427-4.689 1.749-5.655 4.004 0.163 0.781 0.81 1.078 1.413 1.416 0.504 2.01 1.939 3.087 3.063 4.476 0.503 2.641 2.395 3.889 2.593 6.834 2.317 1.688 1.383 6.627 3.063 8.956 1.185-0.184 1.292-0.226 1.886 0.47 0.296-1.352 2.855-0.443 4.24-0.708 0.36-2.17 2.4-3.64 2.59-5.66zm-19.8-18.62c0.307-0.314 0.145-0.711-0.236-0.943 0.05 0.352-0.08 0.87 0.24 0.943zm-125.6 21.21c-0.171 0.029-0.684-0.297-0.942-0.236-0.03 0.008-0.101 0.418-0.236 0.472-0.857 0.341-0.731 0.25-1.414 0.706-0.866 0.579-0.726 0.402-1.649 1.179-1.081 0.911-1.826 1.45-2.828 1.885-1.092 1.5-1.73 3.454-3.063 4.714-0.365 2.044-0.916 3.835-0.707 6.362 0.174 2.115 0.467 5.301 0.942 6.598 0.227 0.617 1.121 1.346 1.649 2.121 1.459 2.14 3.058 4.257 5.42 4.947-0.112 0.74 0.634 0.623 0.707 1.178 1.746 1.005 4.24 1.26 5.185 3.064 3.597 1.059 6.587 3.912 10.132 4.241 1.124 1.076 2.643 1.757 4.713 1.886 0.582 1.616 3.328 1.072 4.241 2.356 2.391 0.081 4.363 1.576 6.834 1.886 0.735 0.09 1.57-0.141 2.356 0 0.572 0.102 1.116 0.565 1.649 0.707 1.236 0.326 2.514 0.023 3.771 0.234 0.317 0.054 0.291 0.351 0.708 0.472 0.252 0.073 0.978 0.188 1.413 0.236 1.664 0.188 2.027 0.321 2.828 0 0.537 1.156 3.37 0.142 4.006 0 1.403-0.313 3.096-0.043 4.713-0.236 0.57-0.069 1.121-0.41 1.65-0.472 0.742-0.085 1.429 0.146 2.121 0 3.28-0.692 5.51-3.367 8.483-3.771 0.492-0.763 1.335-1.178 2.357-1.413 1.637-2.447 3.411-4.758 4.477-7.776 0.758 0.146 0.323-0.848 0.943-0.236 0.529-2.418 2.175-3.649 3.534-5.184 1.04-1.175 2.221-2.335 3.063-3.298 0.754-0.863 1.646-1.231 2.356-1.888 1.681-1.545 3.264-3.59 4.713-4.947 0.128-0.119 0.571 0.111 0.707 0 0.267-0.221 0.972-0.947 1.414-1.415 2.097-2.221 0.98-5.028 0.235-7.774-0.398-1.469-4.654-4.042-5.42-4.478-1.721-0.982-3.439-1.958-4.713-3.062-0.216-0.265-0.438-0.075-1.179-0.238-1.219-1.135-1.98-1.58-4.24-1.883 0.123-0.62-1.327-0.445-1.179-0.472-0.331 0.06-0.106-0.424-0.236-0.472-1.529-0.572-3.115-0.69-4.006-1.885-4.526-0.681-8.175-3.149-12.725-3.77-3.216-2.25-6.279-2.144-9.426-4.242h-3.299c-0.664-0.28-0.876-1.009-1.415-1.414-3.951-0.993-5.868-0.951-9.897-0.472-1.68 1.383-3.778 2.348-5.184 4.006-1.565 0.32-1.91 1.862-3.536 2.121 0.042 0.905-0.814 0.915-0.942 1.649-3.017 1.199-4.604 5.124-8.247 4.95-0.265 0.598-0.579 1.149-0.942 1.649-1.254 0.222-2.197 1.369-3.064 2.593-0.391 0.552-0.551 1.306-0.942 1.883-0.303 0.449-0.931 0.572-1.178 0.944-1.416 2.123-1.08 5.417-0.236 8.246 0.703 0.084 1.435 0.138 1.65 0.709 0.336 1.055-1.349 1.304-0.708 1.883 0.398 0.599 1.733 2.432 1.65 4.008 2.042 1.649 2.76 4.622 5.184 5.892 0.241 0.309 0.231 0.866 0.472 1.177 1.588 0.688 2.796 1.759 3.534 3.299h1.178c0.704 0.732 1.662 1.431 2.592 1.649 0.279 0.065 0.305 0.422 0.472 0.472 0.686 0.199 1.812 0.042 2.592 0.236 0.394 0.098 0.517 0.554 0.943 0.707 0.289 0.104 1.069-0.111 1.414 0 0.358 0.113 0.596 0.601 0.943 0.706 0.683 0.209 1.63 0.384 2.121 0.472 2.126 0.376 3.924 0.291 6.126 0.235 2.351-0.062 4.195 0.773 6.363 0.47 0.329-0.046 0.523-0.412 0.942-0.47 3.774-0.52 6.192-0.962 8.955-2.12 3.974-0.348 5.877-2.764 8.719-4.242 0.435-1.371 1.38-2.234 2.592-2.829 0.589-1.218 1.335-2.278 2.593-2.826 0.524-2.159 1.636-3.744 1.649-5.892 0.034-5.241-5.274-9.042-7.54-12.488-0.834-0.268-1.436-0.767-1.65-1.651-2.983-0.305-4.282-2.556-7.541-2.121-0.225-0.984-1.682-0.648-1.885-0.708-0.551-0.157-1.557-1.04-2.357-1.178-1.145-0.195-4.084 0.157-4.241 0-0.03-0.028 0.027-0.468 0-0.472-1.012-0.077-2.687-0.115-3.77 0-0.036 0.004-0.388 0.453-0.472 0.472-0.393 0.096-0.786-0.272-0.943-0.234-0.425 0.1-0.624 0.56-1.178 0.706-0.733 0.192-0.954-0.046-2.121 0.236-0.472 0.113-0.916 0.66-1.414 0.941-0.255 0.146-0.804 0.149-0.942 0.236-0.239 0.151-1.146 1.394-1.178 1.414-0.211 0.132-0.755-0.155-0.943 0-1.346 1.124-1.595 3.03-2.828 4.242-0.891 3.072 0.501 5.105 1.414 7.069 4.071 1.839 9.229 6.499 13.667 2.593 0.74-0.115 0.623 0.812 1.178 0.237 0.788-1.938 1.024-3.482 0.236-5.421 0.773-1.818 2.798-0.984 4.949-0.708 0.442 1.528 2.003 1.361 2.357 3.064 0.181 0.873-0.069 3.074-0.472 4.006-0.107 0.249-1.971 1.359-1.649 1.885-2.697 1.588-4.279 3.188-7.541 3.064-1.188-0.046-2.469-0.719-3.771-0.943-1.336-0.23-2.681-0.146-4.006-0.472-3.796-2.229-7.953-5.78-8.247-11.077-0.062-1.095 0.58-2.002 0.236-3.062 0.946-1.646 1.917-3.266 2.828-4.949 0.911-0.188 1.384-0.813 1.885-1.412h0.943c2.069-2.633 8.642-4.486 12.018-2.829 0.23-0.32 0.794-0.305 0.943-0.708-0.045 0.667 0.223 0.201 0.471 0.236 0.921 0.132 3.011 0.646 4.006 0.941 1.509 0.453 3.338 0.702 4.949 1.18 2.83 0.84 5.213 2.641 7.306 3.3 1.41 1.853 3.267 4.048 4.713 5.653 1.571 1.747 3.75 5.379 4.006 7.541 0.389 3.31-1.355 5.902-2.357 8.955-0.933 0.768-1.67 1.178-2.357 1.886-0.634 0.652-0.894 1.029-1.413 1.651-0.237 0.279-0.672 0.425-0.943 0.705-0.488 0.503-0.893 1.189-1.414 1.649-0.3 0.265-0.808 0.188-1.178 0.472-0.634 0.487-0.832 1.283-1.414 1.649-0.445 0.28-0.928 0.309-1.415 0.472-1.006 0.338-1.028 0.531-1.885 0.943-1.968 0.941-4.428 1.423-6.362 1.411-0.645 1.036-1.75 0.692-2.828 0.708-0.446 0.263-0.826 0.589-1.414 0.708-5.846-0.111-10.586 0.326-13.432-0.472-0.053 0.184-0.007 0.464-0.236 0.472-1.759-0.959-4.952-2.043-8.012-2.357-1.489-1.146-2.591-1.375-4.477-1.885-1.546-2.067-3.753-3.473-5.656-5.186-1.396-2.687-4.38-3.787-4.948-7.303-1.209-0.756-1.282-2.646-2.357-3.536 0.218-1.319-0.425-1.682-0.707-2.355-0.408-0.974-0.265-1.77-0.472-2.829-0.141-0.723-0.737-1.486-0.942-2.121-0.973-3.001 0.228-5.972 0.707-8.72-0.871-0.27-1.396 0.55-2.352 0.71zm133.85-1.42c-0.369-2.052-1.292-3.746-2.12-5.657-0.547-1.258-0.642-2.46-1.414-3.299-0.608-0.66-1.367-0.472-2.121-0.706-1.72-0.537-2.435-0.015-4.241 0-2.062 2.102-5.308 3.019-5.185 7.305 1.472 2.219 2.885 4.497 3.534 7.541 2.989 0.155 4.047-0.167 6.363 0.236 0.114-0.278 0.251-0.533 0.471-0.706 0.345 0.714 0.991-0.046 1.65 0 0.656 0.044 1.365 0.462 2.12 0.47 0.62 0.005 1.331-0.209 1.885-0.236-0.13-1.55-0.64-3.24-0.95-4.94zm-19.09-4.47c-0.312-0.604-2.582 0.474-2.592 0.47-0.157-0.015 0.055-0.529-0.472-0.47-0.39 0.044-0.781 0.412-1.179 0.47-3.69 0.541-8.246-0.195-12.253 0-1.649 0.083-4.784 0.359-6.6 0.71-1.212 0.232-2.823-0.09-4.006 0-0.461 0.034-0.707 0.406-1.178 0.47-0.273 0.036-0.638-0.719-0.707 0-1.59-1.07-5.254-0.478-5.892 0.941 0.065 1.35 0.606 2.225 0.708 3.536 3.034 1.523 5.653 3.458 7.54 6.125 0.005 1.262 0.917 2.32 1.179 3.772 0.508 2.821-0.047 6.139 0.707 8.482 1.51-1.631 4.54-1.743 6.127-3.299 1.537-0.054 2.605-0.646 4.948-0.472 1.208 0.092 1.103-0.016 1.649 0.237 0.26 0.119 0.683-0.119 0.942 0 0.132 0.058 0.017 0.382 0.236 0.47 0.779 0.313 0.789 0.316 1.413 0.708 1.416 0.884 1.06 0.878 2.121 2.355 0.443 0.617 1.03 1.093 1.414 1.648 1.081 1.577 1.419 3.138 2.121 5.186 1.512 4.419 2.908 9.886 3.063 14.848 0.877 1.164 1.314 2.769 2.12 4.004 1.404-0.533 2.03 1.053 3.063 1.415 0.335 0.115 1.159-0.104 1.65 0 0.538 0.113 0.756 0.43 1.178 0.472 1.758 0.169 3.502-0.019 4.713-0.472h5.42c1.417 1.15 1.852 0.871 3.771 0.941 2.688 1.26 6.284 0.165 10.132 0.472 0.472 0.037 0.495 0.424 0.708 0.47 0.506 0.111 0.432-0.46 0.707-0.47 0.234-0.009 0.836 0.467 0.943 0.47 1.926 0.101 2.815-0.275 3.771-0.47 1.938-0.396 4.089-0.341 5.42-1.648h1.177c1.105-1.805 3.852-1.962 5.42-3.301 0.026-2.432 1.312-4.058 0.943-5.892-0.322-1.599-2.953-3.333-4.006-4.004-1.162-0.74-2.702-2.113-3.062-3.064-2.26-0.334-2.893-2.294-5.186-2.593 0.054-0.444-0.265-0.52-0.236-0.941-0.589-0.301-0.738 0.121-0.941-0.236-0.81-1.234-2.428-1.656-3.064-3.064-0.729-0.299-1.264-0.932-1.649-0.941-2.716-2.704-5.202-5.636-7.776-8.482-0.677 0.337-2.036 0.176-3.534 0.234-1.305-0.863-2.067-0.817-3.535-1.413-1.665 0.149-2.642 1.294-3.771 1.413-2.022 0.215-3.089-1.145-4.948-0.706 1.039 1.688 1.393 3.553 1.885 5.891 0.324 1.54 1.038 3.12 1.179 4.476 0.294 2.835-0.116 7.79-0.707 9.662-0.617 1.956-2.595 2.723-3.299 4.241-2.258 1.472-6.173 2.606-8.013 0-0.074-0.552-0.372-0.884-0.235-1.648 0.45-0.841 0.839-0.517 1.649-0.706 0.45 0.569-0.257 1.143 0.235 1.883 3.862 1.466 6.355-1.771 8.248-3.77-0.497-1.343 0.516-2.507 0.707-3.771 0.521-3.437-0.181-7.015-1.178-9.896-2.563-0.894-3.862-3.051-5.421-4.95-3.083-0.512-2.976-2.357-5.185-2.121-1.14 0.121-2.762 0.824-5.655 0.47-0.312-0.002-0.216-0.411-0.471-0.47-1.515 0.654-3.832-0.984-6.362-1.649-1.329-2.238-5.884-2.399-5.42-5.655 2.018 0.915 4.795-1.542 7.305 0 0.554-0.234 1.157-0.414 1.885-0.472 0.464-0.071 0.469 0.318 0.707 0.472 0.479-0.504 1.491-0.478 2.121-0.472 0.562 0.004 0.901 0.412 1.179 0.472 0.302 0.063 0.229-0.51 0.472-0.472 0.802 0.126 1.279 0.917 2.355 0.706 1.365-1.249 3.187-0.015 5.185-0.706 0.648-1.788 1.532-3.337 2.357-4.948-1.48-1.57-2.27-3.84-4.22-4.95zm94.26 3.3c1.667-0.412 1.017 1.494 2.827 0.942 0.362 0.815 0.322 2.261-1.178 1.885 0.203 1.226-0.372 1.672-1.415 1.649 0.172-0.643-0.468-0.476-0.472-0.943 0.486-0.063 0.222-0.878 0.707-0.942 0.568-0.098 0.513 0.432 1.18 0.236-0.288-0.422-0.044-1.371-0.472-1.649-0.545 0.732-1.106 0.732-1.649 0-0.065-0.415 0.664-1.178 0-1.416-0.326 0.537-1.642 0.088-2.356 0.238-0.612-0.664 0.772-2.251-0.236-1.887 0.748 0.393-1.15 0.081-1.178 0.472-0.061 0.69 0.533 0.725 0.472 1.415-0.337 0.606-1.357 1.381-1.887 0.47-0.241-1.186 0.595-1.291 0.943-1.885-1.216 0.126-2.571 1.082-4.714 0.943-0.943 1.569-0.92 4.104-1.413 6.125 0.74 0.046 1.134 0.438 1.18 1.18-0.058 0.414-0.406 0.537-0.943 0.47v1.649c3.893 2.121 9.73 1.948 14.608 1.887 1.617 1.285 2.777-0.46 4.242 0.944-0.617 1.695-0.191 2.238 0.472 3.061-0.153-0.19 0.192-0.591 0.472-0.47-0.107-0.046 0.529 1.519 0.944 1.179v-1.887c-1.114 0.171-1.036-0.851-1.18-1.649 1.417-0.027 1.16-1.043 2.591-1.414 1.829 2.008 3.893-0.167 5.421 0.942-0.665 0.278 0.263 2.149-0.707 2.121-0.708-0.199-1.224-1.431-1.886-0.941 0.359 1.237 0.521 1.624 1.18 2.119-0.203-0.151 0.215-0.527 0.472-0.47 0.197 0.044 0.591 1.164 0.941 0.941-0.219-0.888 0.547-2.88 1.414-2.591-0.276-1.77 1.394-1.59 1.885-2.593h1.413c0.354 0.995 2.535 1.256 1.18 2.593-1.146 0.915-0.995-1.095-1.885-1.179-0.771 0.406-0.714 1.645-2.121 1.415-0.1 0.88-0.911 2.052 0 2.593 0.54-0.13 0.655-0.439 1.177-0.238 0.102-0.761-0.311-2.037 0.472-2.121 0.911 0.583 1.362 1.625 2.827 1.649-0.322-1.58 0.587-1.927 1.415-2.355 0.129-1.308-0.771-1.588-0.943-2.593 1.757-0.126 2.493-1.937 3.536-0.943-0.189-0.894 1.112-0.299 1.649-0.47 0.353-0.746 1.132-1.068 2.121-1.179 1.304-1.127 1.918-2.951 3.299-4.004 0.038-1.645-0.2-2.765-0.236-3.77-1.561 0.073-0.999-0.813-2.591-0.708-0.138 0.414 0.284 1.385-0.237 1.413-0.564-0.142-1.709 0.295-1.884-0.234-0.414-0.836 0.155-0.581 0.234-1.415-1.289-0.084-1.147-0.221-2.355-0.472 0.272 0.633 0.863 1.638 0 2.121-0.859-0.379-1.817-0.815-0.943-2.354-1.498-0.694-3.413 0.134-5.655-0.472 0.048 0.894 0.991 0.894 0.941 1.883-0.822 0.681-1.564 0.412-2.121-0.706-0.086-0.794 0.992-0.422 0.943-1.178-0.818-0.077-1.095-0.466-1.648 0.234-0.027-0.354-0.071-0.468-0.472-0.472-1.319-0.006-3.329 0.336-4.007 0.71 0.559 0.226 1.158 0.412 0.942 1.411-0.76 0.18-1.784 0.955-2.355 0-0.096-1.553 0.823-0.629 1.178-1.649-0.71-0.272-1.626-0.203-3.062-0.234-0.518 0.545 0.604 0.779 0.235 1.883-0.633 0.479-0.897 0.225-1.415 0.472-0.197-0.587-0.307-1.262-0.234-2.121-1.768 0.188-5.771-0.763-8.012 1.18-0.76 0.102-1.948-1.404-2.593-0.708 0.68 0.29 0.88 1.03 0.95 1.91zm-16.73 2.12c0.017 1.317 0.788 1.881 0.47 3.534 0.721 0.196 1.2 0.029 1.415 0.238v1.178h-1.178c0.334 1.747-0.169 3.061 0.234 4.476 1.137-0.374 2.349-0.188 3.536 0 0.78-1.695-0.084-3.686 0-5.654 0.076-1.849 1.005-3.674 0.706-5.657-1.98-0.54-4.61 0.23-5.19 1.88zm-1.65 14.84c0.814-1.339 0.14-3.216 0.235-4.948 0.098-1.772 0.931-6.798-0.472-7.541-0.05 0.265-0.261 0.366-0.472 0.472-5.254 0.819-10.321-0.734-15.788 0.234-0.091 0.018-0.591 0.443-0.941 0.472-1.657 0.138-2.956-0.098-4.009-0.472-0.009 0.399-0.09 0.417-0.47 0.472-1.632 0.242-3.554-0.36-5.421-0.234-0.714 0.048-1.377 0.43-2.119 0.472-0.758 0.039-1.624-0.073-2.357 0-0.548 0.054-1.108 0.415-1.648 0.47-1.834 0.188-3.629-0.125-5.42 0-4.1 0.288-8.053 0.47-11.783 0.708-0.388 0.023-0.505 0.395-0.942 0.472 0.006-0.002-0.566-0.479-0.707-0.472-0.082 0.004-0.324 0.521-0.707 0.472-1.61-0.215-3.666 0.227-4.713 0.47-0.728 0.171-3.531-1.473-4.241 0-2.258 0.058-4.258-0.478-6.834-0.236-1.256 0.119-2.632 1.239-3.535 0.236-3.307 0.834-7.314 0.025-10.133 0.708-0.36-0.576-1.312-0.545-1.885-0.472-0.613 0.081-0.966 0.476-1.179 0.472 0.05 0-0.588-0.453-0.707-0.472-1.083-0.163-1.82 0.15-2.828 0.236 0.203-0.941-0.507 0.023-0.706 0-0.031-0.003 0.033-0.458 0-0.472-0.464-0.17-1.646 0.192-2.357 0.236 0.133 1.362 1.153 1.833 2.593 1.885-0.042 0.827 0.796 0.775 0.942 1.414 2.145 0.366 4.052 1.63 6.127 1.887 2.526 0.311 4.521-0.583 7.069-0.472 1.563 2.407 6.63 1.162 9.662 0.472 3.242 2.102 5.873-0.844 8.954-0.472 2.314 3.074 8.504-0.311 11.312 2.121 1.479-0.432 3.329-0.161 3.534-0.708 1.188 0.615 3.5-0.451 5.186 1.413 3.315-0.008 5.576-1.724 7.54 0.943 3.383 0.407 3.161-0.675 6.126-0.472 0.64 0.146 0.586 0.986 1.415 0.944 2.305 0.182 3.908-0.334 6.125-0.238 1.164 0.905 3.103 1.396 4.479 1.415 1.442-1.177 1.665-0.291 3.299-1.177 2.26 1.3 6.4 2.07 7.8-0.23zm48.07-7.77c-0.618 0.481-0.73 1.467-1.178 2.121-0.096-0.403-0.303 0.05-0.706 0-0.118-1.542-1.27-1.149-1.887-1.18-0.384 1.797 1.86 0.968 1.415 2.829-0.464-0.071-0.468 0.318-0.707 0.472-0.497-0.292-0.919-0.652-1.414-0.943v1.885c1.362 0.048 1.58-0.75 2.355-0.236 1.003-1.668 2.23-3.11 3.771-4.242 0.265 0.05 0.368 0.261 0.472 0.472 0.27 0.978-0.495 0.918-0.472 1.649 0.962 0.038 2.442-1.285 3.536-1.885-0.272-0.765 0.719-1.45 0-1.885-0.232 0.66-0.629-0.341-0.944 0.236-0.395-0.995-0.034-1.344-0.705-1.885-0.75 1.15-2.08 2.87-3.53 2.58zm5.66-1.18c0.729 0.09 0.959-1.133 0.233-1.177 0.08 0.55-0.03 0.9-0.23 1.18zm-45.25 4.24c0.342-0.366 0.497-0.918 0.708-1.414-0.555-0.077-0.884-0.372-1.649-0.236-0.2 1.07 0.26 1.47 0.94 1.65zm5.42 0c-0.04 1.062 0.115 1.929 0.943 2.121-0.414-1.437 0.694-1.348 0.708-2.357-2.167-0.054-2.553-0.062-4.007-0.234-0.03 0.97 1.65 0.24 2.36 0.47zm2.36 2.12c0.418 0.209 0.599 0.658 1.414 0.47 0.064-0.917 0.015-1.814 0.707-2.591-1.077 0.132-1.469-0.418-2.593-0.236 0.61 0.7 1.89 1.53 0.47 2.36zm12.73-1.18c0.324-0.009 0.518 0.111 0.707 0.238 0.25-0.64 0.149-1.104-0.472-1.415 0.09 0.57-0.44 0.52-0.24 1.18zm-8.96 1.42c-0.008-0.792 0.324-1.247 0.706-1.649 0.277-0.039 0.669 0.041 0.707-0.236-0.744 0.115-0.832-0.424-1.651-0.236-0.22 0.67-0.92 2.01 0.23 2.13zm-17.44-1.65c-0.629 3.429-1.502 6.175-4.242 6.833-0.798 0.194-4.595-0.353-4.24-0.47-0.554 0.185 0.282 0.487-0.472 0-1.192-0.772-1.851-0.269-2.591 0-0.414 0.146-1.218-0.054-1.415 0-0.288 0.077-0.353 0.316-0.706 0.47-1.813 0.786-3.751-0.774-5.421-1.413-2.29 0.456-3.665 0.016-4.479 0.706-0.311-0.675-1.252-0.641-1.883-0.706-3.325-0.338-8.181-0.023-8.956 2.355 1.518 2.019 3.548 3.524 7.069 3.536 1.104 1.803 4.211 1.603 5.186 3.534 0.858-0.151 1.254 0.159 1.648 0.472 1.542-0.579 2.739-1.502 3.771-2.593 2.557-1.032 6.975-0.973 10.367-2.119 0.497 0.269 0.921-0.146 1.415 0.47 0.284-0.599 1.291-0.708 1.886-0.941 0.78-0.311 1.532-0.489 2.121-0.943 1.973-0.046 2.395-1.015 3.3-1.649 0.372-2.459 0.852-5.696-0.237-7.776-0.25 0.14-1.43-0.05-2.14 0.24zm20.03 0.7c-0.012-0.324 0.109-0.518 0.234-0.706-0.272-0.199-0.633-0.311-1.178-0.236-0.1 0.75 0.21 1.06 0.95 0.95zm0.71 1.65c0.303 0.326 1.023 0.234 1.648 0.238 0.111-0.897-0.1-1.473-0.705-1.651-0.45 0.34-1.13 0.45-0.95 1.41zm6.83 0.24h1.412c0.058-0.92-0.875-0.855-1.412-1.179v1.18zm-8.72-0.24c0.014-0.142 0.035-0.278 0.236-0.234-0.027-0.288-0.071-0.56-0.472-0.472 0.04 0.27-0.04 0.66 0.23 0.7zm-165.66 0.47c0.054 0.445-0.266 0.521-0.235 0.943 0.613 0.428 0.71-0.104 1.414 0.234-0.142-0.483 0.38-1.636-0.471-1.412 0.162 0.79-0.487 0.39-0.708 0.24zm118.77 9.9c-0.567 0.613-2.723-0.77-3.299-0.236v-0.705c-1.262 0.239-1.173-0.871-2.358-0.708-2.501-2.445-5.312-4.585-7.303-7.541-2.032-0.633-4.41-0.337-7.07 0.47-0.238 0.784-0.71 1.335-0.707 2.358 2.918 2.187 4.673 5.539 8.247 7.069 0.332 1.417 1.878 1.461 2.829 2.12 0.253 0.177 0.812 1.158 1.178 1.414 0.552 0.385 1.089 0.452 1.885 0.472 0.846 1.823 2.817 2.525 4.006 4.006 1.357-0.02 2.397 2.312 4.006 2.827 0.648 1.081 0.881 2.577 2.121 3.064 0.696-2.117 2.694-3.188 4.242-2.829 0.263-0.915 2.485-0.861 3.299-0.47-1.19-6.27-6.71-8.22-11.09-11.3zm-82.475 7.78c0.672-2.543 3.559-3.878 3.534-6.363-0.644-0.171-0.475 0.468-0.942 0.472-1.13-0.84-0.602-2.316 0.706-2.593-0.012 0.407 0.182 0.606 0.472 0.708-0.014-1.809 0.774-3.078 0.472-4.712-0.268-0.341-2.359 0.345-1.649 0.941-0.042-0.922 1.46 0.113 1.178 0.941-0.231 0.32-0.629 0.472-0.942 0.71-0.455-0.567-0.638-1.405-0.942-2.121-0.171 1.035-1.067 0.746-1.65 1.178-2.401 1.775-3.862 5.144-6.361 6.363-0.075 0.318-0.336 0.448-0.236 0.941-2.309 1.383-3.739 3.646-4.713 6.362 0.976-0.189 1.209 0.362 1.179 1.178 0.712 0.075 1.832-0.263 1.885 0.472-0.061 0.804-0.504 1.224-1.414 1.18-0.468-0.318 0.074-1.646-0.707-1.651 0.04 0.591-0.362 0.738-0.706 0.941-0.665-0.276-0.789-1.095-1.179-1.649-0.43 0.99-1.581 1.096-2.356 2.121-0.397 0.527-0.49 1.52-0.943 2.121-0.088 0.119-0.591 0.121-0.706 0.238-0.708 0.707-0.885 1.612-1.649 2.119 1.226-0.205 1.671 0.37 1.649 1.413-0.89 0.223-1.107 0.016-1.649 0.237-0.379 0.407-0.115 1.456-0.708 1.649-0.394-0.418-0.789 0.207-1.649 0-0.569-2.121 1.416-1.48 2.357-2.121-0.641 0.169 0.168-1.112-0.472-0.943-3.486 2.091-6.872 3.275-9.662 4.714 0.817 0.203 1.609 0.434 1.649 1.413-0.898 0.438-2.021 0.731-2.592-0.235-0.175-0.725 0.646-0.453 0.471-1.178-1.554-0.203-1.74 0.838-2.592 0.234 0.138 0.805 1.501 0.383 1.415 1.415-0.669 0.563-0.233 0.866-0.236 1.885-0.446 0.428-2.5 0.923-2.828 0 0.95-1.177 0.079-1.686 0.471-3.062-0.917 0.139-1.455 0.428-2.356 0.47-0.488 0.66 0.769 1.15 0.707 2.121-0.45 0.102-0.427 0.673-1.178 0.472-0.944-0.546-0.679-1.699-0.236-2.593-2.603 0.111-4.165 0.77-6.126 0.472-0.538-0.082-0.866-0.625-1.414-0.707-0.456-0.067-1.14 0.301-1.649 0.235-0.62-0.078-1.27-0.665-1.885-0.707-0.542-0.035-1.075 0.299-1.65 0.237-0.334-0.038-0.623-0.422-0.943-0.472-0.029-0.004-0.005 0.512-0.236 0.472-0.158-0.03-0.298-0.41-0.707-0.472-1.976-0.303-2.426-1.15-4.477-0.943-0.247 0.667 0.389 1.616 0 1.649-0.414-0.135-1.384 0.285-1.414-0.234-0.112-1.043 0.324-1.174 0-1.887-2.5-0.322-5.244-1.452-7.305-2.121-0.335 0.529-0.175 1.554-0.942 1.649-0.873-0.149-0.719-1.323-0.708-2.355-3.221-1.177-6.094-2.704-9.426-3.77 0.137 0.844-0.697 0.717-1.414 0.705-0.483-0.458-0.367-1.517-0.707-2.121-1.322-0.379-1.298 0.587-2.121 0.708-1.102-0.183-1.249-1.099-0.943-2.121-0.874-0.462-1.515-1.156-2.592-1.413-0.457 0.452 0.248 0.947 0.236 1.649-0.684 0.494-1.19 1.166-1.65 1.885h-1.414c-0.346-0.52 0.028-1.755-0.708-1.885-0.05 0.283-0.261 0.146-0.471 0-0.764 0.446 0.172 1.373-0.707 1.885h-0.942c0.005-0.554-0.406-0.692-0.236-1.413 0.228-0.399 0.651-0.606 1.414-0.472-0.049-0.678 0.06-1.197 0.472-1.414h0.942c0.344 0.441 0.01 1.562 0.471 1.886 0.066-0.547 0.63-0.541 0.943-0.236 0.113-0.742-0.336-0.922-0.471-1.413 0.349-0.438 1.218-0.353 1.179-1.178-1.136-0.434-1.186 0.397-2.593 0.234-0.537-0.562-0.412-1.787-0.707-2.593-2.197-0.472-3.231-2.109-4.949-3.062-0.369 0.337-0.185 1.229-0.942 1.179-1.875-0.544-0.673-3.095-0.707-4.008-0.934-0.004-1.769-0.498-3.063-0.233 0.115-0.744-0.425-0.833-0.236-1.649-0.451 0.098-1.015 0.084-0.942 0.705 0.023 0.879 0.919 0.016 0.942 0.473 0.268 1.76-0.798 2.186-0.707 3.77 0.44 0.188 0.863 0.394 1.413 0.472-0.243-0.621-0.282-1.445-0.235-2.356 1.023 0.312 2.097 0.573 1.885 2.121-0.446 0.261-1.113 0.301-1.65 0.47-0.495 0.985-0.973 2.197-0.471 3.536 0.657 0.345 1.401-0.334 1.885 0.472-0.558 0.462-0.479 1.562-0.471 2.591 2.82-0.276 0.913 2.959 2.592 3.534 0.336-0.864 1.429-0.305 1.649 0.472-0.188 0.441-0.393 0.863-0.471 1.416 0.564 0.928 1.456 1.526 2.592 1.883 0.082-0.547 0.152-1.104 0.942-0.941 0.794 0.412 0.339 1.551 0.236 2.356 2.525 1.402 4.646 3.209 7.07 4.714 0.366-0.341 0.465-0.951 1.414-0.71 0.372 0.495 0.164 1.565 0.472 2.121 2.898 1.188 5.231 2.938 8.483 3.771 0.136-0.414-0.285-1.383 0.236-1.411h0.942c0.103 0.809-0.093 1.319-0.236 1.883 0.565 0.537 0.868-0.516 1.885-0.233 0.107 1.227 0.79 1.879 2.121 1.883 0.669-0.115 0.339-1.231 1.414-0.941-0.171 0.721 0.407 0.692 0.235 1.413 0.877 0.303 1.604 0.754 2.593 0.943 0.232-0.709 0.56-1.325 1.414-1.415 0.271 0.661 0.271 1.228 0 1.887 0.622 0.33 2.694 0.436 3.299 0-0.569-0.215-0.101-1.331 0.236-1.415 1.339 0.39 1.004 2.453 2.828 2.356 0.388-0.588-0.356-1.802 0.707-2.118 0.473 0.554 0.622 1.576 0.236 2.354 1.472 0.855 3.844 0.539 4.713-0.236 0.117 1.375 2.56 0.426 3.771 0.708 0.404-0.303 0.005-1.409 0.707-1.415 1.258-0.171 1.676 1.729 3.299 1.887 0.652-0.683 0.244-1.618-0.236-2.356-0.062 0.331-0.517 0.269-0.707 0.47-0.178-0.764-1.05-0.834-1.179-1.649 0.184-0.05 0.274-0.195 0.236-0.472 1.761-0.345 1.593 1.237 2.357 1.887 0.217-0.884 1.566 0.859 1.649 1.649 2.364-0.115 3.709 0.207 5.185-0.708h3.298c0.546-0.818 1.347-0.416 2.357-1.413 3.555-0.372 5.508-2.347 8.012-3.77 0.052-0.76-0.417-0.998-0.236-1.886 0.954-0.253 1.638-0.253 2.592 0 0.271-0.278 0.268-0.834 0.235-1.413 3.316-1.25 6.099-4.262 6.599-7.541-0.244-0.502-0.935 0.397-1.178-0.472 0.013-1.469 1.382-1.789 2.592-1.415-0.096-0.846-1.04-0.844-0.942-1.883 0.479-0.073 0.628-0.474 0.942-0.71 0.447 0.511 0.884 0.863 0.942 1.18 0.304-0.639 1.047-0.838 0.942-1.886-0.497-0.205-1.46-0.122-1.649-1.177v-0.708c0.524-0.182 0.919-0.494 1.649-0.472 0.327 0.382 0.2 1.214 0.707 1.413 1.779-1.57 2.318-4.41 4.703-5.4zm-44.538-12.26c0.295 0.479 2.393 1.162 3.063 0.237-1.208-0.45-2.151-0.39-3.063-0.24zm135.97 21.92c2.652-0.022 3.427-4.706 0.941-4.714-0.59 1.25-1.51 3.06-0.94 4.71z"></path> <path style="clip-rule:evenodd;fill-rule:evenodd" d="m107.68 5.083c-0.633-2.44 1.962-3.326 2.593-1.885-0.48 1.005-1.4 1.583-2.59 1.885-0.348 0.752 0.006 2.206-1.413 1.885 0.072 0.859-0.039 1.534-0.236 2.121h-1.179c0.173-0.769-0.141-2.026 0.943-1.885 0.054-0.985-0.384-1.112 0-1.885 0.68 0.366 0.77-0.829 1.89-0.236z"></path> <path style="clip-rule:evenodd;fill-rule:evenodd" d="m110.04 5.791c0.564-0.143 1.075-0.339 1.886-0.236v1.414c-0.875 0.463-1.619-0.171-1.886 0-0.32-0.304-0.06-0.488 0-1.178z"></path> <path style="clip-rule:evenodd;fill-rule:evenodd" d="m97.316 8.854c0.024-0.449 0.877 0.188 1.179 0.236 0.35 1.371-0.637 1.405-0.943 2.121-1.871-0.064-0.275-2.333-0.236-2.357z"></path> <path style="clip-rule:evenodd;fill-rule:evenodd" d="m98.259 14.745c-0.437-1.14-0.002-1.585 0.471-2.356 1.369 0.19 1.229 1.622 0.472 2.356-0.4 0.087-0.444-0.183-0.472-0.471-0.603 0.261-0.462 1.265-0.471 2.121-0.954-0.326-0.746 0.511-1.414 0.471-0.1-0.528-0.505-0.751-0.707-1.178 0.581-0.441 0.828-1.215 1.886-1.178-0.044 0.2 0.091 0.221 0.235 0.235z"></path> <path style="clip-rule:evenodd;fill-rule:evenodd" d="m135.26 22.757c1.837 0.489 0.392 2.968-0.943 3.063-0.44-0.823-0.08-2.477 0.94-3.063z"></path> <path style="clip-rule:evenodd;fill-rule:evenodd" d="m56.313 174.52c0.474 0.188-0.421 0.97-0.471 1.413-0.695-0.04-1.481-0.489-1.649-1.649 0.29 0.263 0.483 0.205 0.471-0.236 0.98-0.41 1.448 0.88 1.649 0.48z"></path> <path style="clip-rule:evenodd;fill-rule:evenodd" d="m63.619 176.64c1.471 0.215 1.682-0.832 3.299-0.472 0.343 1.964-2.313 1.749-3.063 1.886-0.223-0.21-0.157-0.59-0.236-1.42z"></path> <path style="clip-rule:evenodd;fill-rule:evenodd" d="m235.64 127.38v1.177c-0.878 0.176-2.129 0.544-2.356-0.472-0.24 0.782-1.26 0.782-2.357 0.708-0.188-0.439-0.393-0.863-0.472-1.413 1.84-0.29 3.63-0.22 5.19-0.01z"></path> <metadata></metadata></svg> 