<?xml version="1.0" encoding="UTF-8" standalone="no"?> <!-- Generator: Adobe Illustrator 13.0.2, SVG Export Plug-In . SVG Version: 6.00 Build 14948) --> <svg xmlns:rdf="http://www.w3.org/1999/02/22-rdf-syntax-ns#" xmlns="http://www.w3.org/2000/svg" xmlns:cc="http://web.resource.org/cc/" xmlns:xlink="http://www.w3.org/1999/xlink" xmlns:dc="http://purl.org/dc/elements/1.1/" xmlns:svg="http://www.w3.org/2000/svg" xmlns:inkscape="http://www.inkscape.org/namespaces/inkscape" xmlns:sodipodi="http://sodipodi.sourceforge.net/DTD/sodipodi-0.dtd" xmlns:ns1="http://sozi.baierouge.fr" id="Layer_1" style="enable-background:new 0 0 325.296 203.753" xml:space="preserve" viewBox="0 0 325.296 203.753" y="0px" x="0px"> <path style="fill:#FFFFFF;clip-rule:evenodd;fill-rule:evenodd" d="m81.347 78.509c1.066 5.709-2.865 10.635-7.478 9.659-2.218-2.456-3.662-5.685-4.361-9.659-1.323-0.076-1.678 0.815-3.116 0.624-0.356 4.565-5.692 5.677-5.919 9.347-4.655 1.34-3.808-7.504-1.558-9.347-0.075-2.314-3.351-1.427-4.05-3.116-13.697-2.603-16.823-17.924-13.708-32.401-2.287-2.391-4.647 1.252-3.74 3.738-1.008 1.402-2.203 2.761-3.738 2.804-1.232-0.332 0.08-0.944 0-1.87-0.2-1.308-1.415-0.421-1.869-0.935-0.371-3 1.692-6.175 3.739-7.789-0.235-1.946-3.339-1.021-3.427-3.115 2.645-2.028 5.66-3.686 5.919-8.1 0.584 0.35 0.662 1.207 1.246 1.558 0.604-0.332 0.814-1.056 1.246-1.558-0.313-0.622-1.378-0.492-1.246-1.558 1.356-0.582 1.812-1.249 3.116-1.246 1.298 1.09 2.022 2.754 4.361 2.804 0.761-0.482 0.302-2.354-0.622-2.181 0.341-1.529 2.99-0.748 4.672-0.936 0.144 2.558 1.482 3.918 2.492 5.608 1.751 0.296 0.596-2.312 2.182-2.181 0.213 0.929 0.377 1.907 1.246 2.181-0.395 0.749-0.402 1.884-0.936 2.492-0.148 2.413 2.217 2.297 3.116 3.116 1.542 1.403 1.416 3.011 3.427 3.739 3.611 1.306 7.441-1.594 11.839-0.935 2.027 2.4 4.912 3.542 6.854 0.311 1.833 0.202 2.997-0.977 4.361-1.246 4.056-0.796 6.719 1.851 10.593 2.804 4.713-1.565 7.509-2.847 11.839-5.296 2.2 7.514 0.303 16.475-3.115 22.12-0.311 3.718-5.191 10.241-6.854 12.773 0.11-0.167-1.089-0.011-0.624 0.934-5.949 2.749-8.594 7.311-15.895 6.857zm-39.255-48.6c0.791-0.858 0.666-2.207-0.624-2.493-1.185 0.681-0.337 2.208 0.624 2.493zm1.246-0.936c-0.042 0.769-0.047 1.502 0.312 1.87 1.192 0.155 1.647-0.429 1.868-1.246-0.017-0.399-0.399-0.433-0.312-0.935-0.951-0.225-0.914 0.538-1.868 0.311zm3.739 1.87c-0.648-0.682-1.006 0.274-1.558-0.312-0.203 1.449 0.109 2.383 1.558 2.181 0.569-0.898 0.506-0.974 0.312-2.181 0.589 0.553 2.057 0.227 3.115 0.312v-1.87c-1.058-0.083-2.525 0.242-3.115-0.311-0.004 0.827 0.117 1.779-0.312 2.181zm-9.035 2.804c-0.28 2.511 4.569 3.671 4.673 1.246-1.17-0.492-1.237-2.085-2.493-2.492-0.353 0.787-1.582 0.701-2.18 1.246zm-3.427 9.346c1.193 0.155 1.648-0.429 1.869-1.245-0.559-1.632-3.204 0.033-1.869 1.245zm1.557 4.674c-0.006-0.734 0.538-0.917 0.312-1.87-1.86 0.302-1.393-1.722-3.426-1.246-0.444 1.531 1.155 3.023 3.114 3.116zm52.964 2.804c2.6 2.753 1.343 6.771-2.182 7.477-0.793-0.659-2.021-0.887-2.492-1.87-0.712 0.327-1.879 0.198-2.492 0.624 0.023 1.328 0.521 2.179 0.312 3.739-6.165 7.691-18.23 2.325-22.432-5.607-1.028-0.103-2.653-0.824-3.114 0.311 1.925 2.195 3.794 6.262 6.542 7.478 6.133 2.71 9.203 4.297 14.954 3.426 3.788-0.574 4.653-4.032 7.477-5.608 0.712-0.397 2.556 0.026 3.738-0.623 1.885-1.035 2.366-2.977 4.362-3.428 0.466-2.486-0.684-5.365-2.181-6.853-0.566 1.218-1.746-0.103-2.492 0.934z"></path> <path style="clip-rule:evenodd;fill-rule:evenodd" d="m41.468 27.416c1.29 0.286 1.415 1.635 0.624 2.493-0.961-0.285-1.809-1.812-0.624-2.493z"></path> <path style="clip-rule:evenodd;fill-rule:evenodd" d="m45.207 28.663c-0.088 0.502 0.295 0.535 0.312 0.935-0.221 0.817-0.676 1.401-1.868 1.246-0.359-0.368-0.354-1.102-0.312-1.87 0.953 0.226 0.916-0.537 1.868-0.311z"></path> <path style="clip-rule:evenodd;fill-rule:evenodd" d="m40.222 32.401c1.255 0.407 1.322 2 2.493 2.492-0.104 2.425-4.953 1.265-4.673-1.246 0.598-0.545 1.827-0.459 2.18-1.246z"></path> <path style="clip-rule:evenodd;fill-rule:evenodd" d="m36.484 41.748c-0.221 0.816-0.676 1.4-1.869 1.245-1.335-1.212 1.31-2.877 1.869-1.245z"></path> <path style="clip-rule:evenodd;fill-rule:evenodd" d="m33.058 44.551c2.033-0.476 1.566 1.548 3.426 1.246 0.226 0.953-0.318 1.136-0.312 1.87-1.959-0.093-3.558-1.585-3.114-3.116z"></path> <path style="clip-rule:evenodd;fill-rule:evenodd" d="m91.628 49.537c1.497 1.488 2.647 4.367 2.181 6.853-1.997 0.451-2.477 2.393-4.362 3.428-1.183 0.649-3.026 0.226-3.738 0.623-2.823 1.576-3.689 5.034-7.477 5.608-5.75 0.871-8.821-0.716-14.954-3.426-2.749-1.216-4.617-5.283-6.542-7.478 0.461-1.135 2.086-0.414 3.114-0.311 4.201 7.932 16.267 13.298 22.432 5.607 0.209-1.56-0.289-2.411-0.312-3.739 0.613-0.426 1.78-0.296 2.492-0.624 0.472 0.982 1.699 1.21 2.492 1.87 3.524-0.706 4.782-4.723 2.182-7.477 0.746-1.037 1.926 0.284 2.492-0.934z"></path> <path style="fill:#FFFFFF;clip-rule:evenodd;fill-rule:evenodd" d="m224.34 112.47c-8.737 0.121-14.908 0.42-24.299 0-0.006 0-2.731-0.606-4.361-0.314-3.479 0.628-10.38-0.814-13.396-0.31-1.777-6.638-6.519-10.305-11.841-13.397 0.847-7.482 6.501-11.398 11.841-13.397 3.067-3.385 9.386-3.243 14.644-4.361 8.968 0.279 19.781 5.694 25.547 13.396 2.137 2.857 5.062 5.307 5.294 9.035 0.24 3.55-2.35 6.14-3.42 9.34zm-31.77-26.172c0.454 0.75 2.617 0.894 3.426 0.312 0.07-0.589-0.35-0.688-0.31-1.246-1.21-0.425-3.33-1.224-3.12 0.934zm-2.81 0.624v-1.558c-0.591-0.553-2.057-0.227-3.116-0.312-0.38 2.049 1.37 1.961 3.12 1.87zm11.84 1.246c0.03-1.164 0.35-0.889 0-1.87-1.714 0.47-1.653-0.838-3.114-0.623-0.77 1.69 1.08 2.645 3.11 2.493zm-19.62 0.622c1.088 0.92 2.355 1.459 2.805-0.622-0.84 0.214-0.602-0.644-0.936-0.936-1.38-0.243-1.99 0.294-1.86 1.558zm24.3 2.804c-0.008-0.734 0.537-0.917 0.31-1.869-1.428-0.025-1.998-0.909-3.426-0.936 0.08 1.397 0.71 2.95 3.12 2.805zm-27.73 0c0.963 0.385 1.714 0.993 2.489 0-0.405-0.944-0.674-2.026-2.18-1.869-0.36 0.368-0.35 1.101-0.31 1.869zm28.97 2.181c0.575 0.627 1.686 1.824 2.804 0.936 0.17-1.418-0.793-1.7-1.868-1.87 0.15 1.283-0.83-0.299-0.93 0.934zm3.43 4.362v1.246c0.542-0.022 0.969 0.07 1.245 0.312 0.359-0.369 0.354-1.102 0.314-1.87-0.73-0.099-1.2 0.05-1.56 0.312z"></path> <path style="clip-rule:evenodd;fill-rule:evenodd" d="m195.68 85.364c-0.04 0.558 0.38 0.657 0.31 1.246-0.809 0.582-2.972 0.438-3.426-0.312-0.2-2.158 1.92-1.359 3.12-0.934z"></path> <path style="clip-rule:evenodd;fill-rule:evenodd" d="m186.65 85.052c1.06 0.085 2.525-0.241 3.116 0.312v1.558c-1.76 0.091-3.51 0.179-3.12-1.87z"></path> <path style="fill:#FFFFFF;clip-rule:evenodd;fill-rule:evenodd" d="m250.2 112.16c-3.727-7.962 1.131-11.338 5.294-15.887 3.971-4.335 9.73-8.214 15.892-9.346 2.713-3.077 11.645-1.173 14.642-0.936 1.638 1.063 3.396 2.005 5.297 2.804 0.23 2.116 2.682 2.764 3.428 4.674 1.562 4.019-0.502 7.46-1.871 10.902-2.044 1.8-4.031 3.656-6.232 5.299-6.749 0.525-14.122 1.752-19.938 1.245-3.38 1.113-10.365 0.702-14.33 0.624-1.13 0.44-0.66 0.56-2.18 0.62zm19.63-21.188c0.561-0.041 0.728 0.31 0.624 0.935h1.868c-0.07-0.589 0.351-0.687 0.312-1.246-0.7-0.338-1.352-0.724-2.181-0.935-0.16 0.46-0.46 0.784-0.62 1.246zm-4.67 2.492c1.313 0.443 1.436 0.879 2.493 0 0.3-1.967-3.12-2.723-2.49 0zm-4.99 1.246c-0.096 1.549 0.885 2.022 2.492 1.868 0.97-1.763-1.1-2.365-2.49-1.868zm-1.87 4.673c0.672-0.264 1.105-0.767 0.938-1.869-1.58-2.046-3.46 1.633-0.94 1.869zm-4.67 4.047c1.542-0.213 1.687-1.704 1.245-3.116-1.78-0.04-2.39 2.02-1.25 3.12zm-2.8 3.12c-0.135 1.38 0.517 1.973 1.557 2.181 0-1.039 1.014-1.062 0.933-2.181-0.725-0.104-1.285-0.375-1.866-0.623-0.03 0.38-0.09 0.73-0.62 0.62z"></path> <path style="clip-rule:evenodd;fill-rule:evenodd" d="m198.49 85.675c1.461-0.215 1.4 1.093 3.114 0.623 0.35 0.981 0.03 0.706 0 1.87-2.03 0.152-3.88-0.803-3.11-2.493z"></path> <path style="clip-rule:evenodd;fill-rule:evenodd" d="m183.84 87.232c0.334 0.292 0.096 1.149 0.936 0.936-0.449 2.082-1.717 1.542-2.805 0.622-0.13-1.264 0.48-1.801 1.86-1.558z"></path> <path style="fill:#FFFFFF;clip-rule:evenodd;fill-rule:evenodd" d="m249.27 98.761c-3.101 4.376-6.363 8.59-8.725 13.709-2.51 0.101-3.968-0.233-5.917 0-1.385-3.707-4.954-5.224-4.984-10.283-1.466-3.209-3.357-5.99-4.361-9.658 6.18-6.353 23.54-5.701 23.99 6.229zm-14.33-7.167c0.572-0.851 1.055 1 1.871 0.935 0.699-0.132 0.993-0.668 1.557-0.935-0.659-1.209-1.882-1.856-3.737-1.869 0.18 0.547-0.38 1.831 0.31 1.869zm5.3 2.181c1.29-0.356 1.212 0.655 2.18 0.624-0.007-0.734 0.538-0.918 0.31-1.87-0.729-0.41-1.414-0.869-2.804-0.623-0.23 0.952 0.31 1.135 0.31 1.869zm-7.79 0.311c0.066-0.242 0.259-0.361 0.624-0.312 0.061-0.891 0.035-1.7-0.938-1.557-0.42 0.4-0.54 1.863 0.32 1.869zm-4.68 0.312c-0.274 2.065 1.439 1.971 2.181 1.558 0.31-2.141-0.99-2.459-2.18-1.558zm15.58 2.181c0.994-0.266 1.184 0.271 1.56 0.624 0.157-0.778 0.829-1.041 0.936-1.87-0.797-0.349-1.431-0.857-2.495-0.934-0.18 1.242-0.18 0.937-0.01 2.18z"></path> <path style="clip-rule:evenodd;fill-rule:evenodd" d="m203.16 88.79c1.428 0.027 1.998 0.91 3.426 0.936 0.228 0.951-0.317 1.135-0.31 1.869-2.41 0.144-3.04-1.409-3.12-2.805z"></path> <path style="clip-rule:evenodd;fill-rule:evenodd" d="m178.86 89.726c1.506-0.157 1.774 0.924 2.18 1.869-0.775 0.993-1.526 0.385-2.489 0-0.04-0.769-0.05-1.502 0.31-1.869z"></path> <path style="clip-rule:evenodd;fill-rule:evenodd" d="m234.63 89.726c1.855 0.013 3.078 0.659 3.737 1.869-0.563 0.266-0.857 0.803-1.557 0.935-0.816 0.066-1.299-1.785-1.871-0.935-0.69-0.039-0.13-1.323-0.31-1.869z"></path> <path style="clip-rule:evenodd;fill-rule:evenodd" d="m270.46 89.726c0.829 0.21 1.48 0.596 2.181 0.935 0.038 0.559-0.383 0.657-0.312 1.246h-1.868c0.104-0.625-0.063-0.975-0.624-0.935 0.15-0.462 0.45-0.786 0.62-1.246z"></path> <path style="clip-rule:evenodd;fill-rule:evenodd" d="m267.65 93.464c-1.058 0.879-1.18 0.443-2.493 0-0.63-2.723 2.79-1.967 2.49 0z"></path> <path style="clip-rule:evenodd;fill-rule:evenodd" d="m239.92 91.906c1.39-0.246 2.074 0.213 2.804 0.623 0.229 0.952-0.316 1.136-0.31 1.87-0.968 0.032-0.89-0.98-2.18-0.624 0.01-0.734-0.53-0.917-0.31-1.869z"></path> <path style="fill:#FFFFFF;clip-rule:evenodd;fill-rule:evenodd" d="m173.25 111.53c-11.503 0.273-25.845-1.864-34.892-2.184-2.722-0.094-7.402 0.049-6.854-5.917 0.312-3.404 5.755-9.554 8.411-10.593 3.91-1.529 13.771 0.479 18.071 0.624 5.391 2.331 11.157 6.32 16.2 9.969 0.55 3.04 1.43 5.7-0.94 8.1zm-27.73-15.573c0.633 0.198 0.206 1.457 0.934 1.558 0.07-0.445 1.552 0.289 2.494 0-0.007-0.734 0.537-0.917 0.311-1.87-1.53 0.059-2.79-0.764-3.73 0.312zm-4.67 2.18h2.493c0.349-0.981 0.028-0.705 0-1.869h-2.804c-0.22 0.951 0.32 1.135 0.31 1.869zm10.91 0h2.804v-1.869c-1.048 0.197-2.894-0.402-3.426 0.311 0.47 0.265 0.45 1.003 0.63 1.558zm-14.96 1.873c0.491 0.224 2.709 0.523 2.493-1.558-0.453-0.482-1.595-0.275-2.493-0.312-0.24 0.214-0.69 1.735 0 1.87zm23.06 0c-0.404-1.258-1.63-1.692-3.115-1.87-1.2 1.778 2.34 3.94 3.12 1.87zm-25.24 2.49c0.268 0.77 1.155 0.922 1.557 1.558 0.093-0.635 0.625-0.83 0.936-1.247-0.584-0.35-0.662-1.207-1.246-1.557-0.128 0.531-0.402-0.066-0.936 0 0.07 0.59-0.35 0.69-0.31 1.25zm0 4.98c0.858-0.405 0.623-1.686 0.311-2.494h-1.869c-0.15 1.51 0.18 2.53 1.56 2.49z"></path> <path style="clip-rule:evenodd;fill-rule:evenodd" d="m232.13 92.218c0.974-0.144 0.999 0.666 0.938 1.557-0.365-0.05-0.558 0.069-0.624 0.312-0.86-0.007-0.74-1.47-0.32-1.869z"></path> <path style="clip-rule:evenodd;fill-rule:evenodd" d="m208.46 92.84c1.075 0.17 2.038 0.452 1.868 1.87-1.118 0.889-2.229-0.308-2.804-0.936 0.09-1.232 1.07 0.35 0.93-0.934z"></path> <path style="clip-rule:evenodd;fill-rule:evenodd" d="m88.824 98.137c3.486-3.423 12.195-6.724 16.511-2.492 5.024 4.925 0.086 10.983-5.296 11.84-4.453 0.705-10.96-1.612-11.527-5.921-0.135-1.02 0.595-2.095 0.311-3.423zm16.516 1.873c-1.132-5.987-14.418-3.811-14.331 0.622 0.08 3.976 5.697 2.352 8.101 4.052 1.15-1.56 5.47-1.25 6.23-4.67z"></path> <path style="clip-rule:evenodd;fill-rule:evenodd" d="m229.95 95.957c-0.741 0.413-2.455 0.507-2.181-1.558 1.19-0.902 2.49-0.584 2.18 1.558z"></path> <path style="clip-rule:evenodd;fill-rule:evenodd" d="m243.35 94.398c1.064 0.077 1.698 0.585 2.495 0.934-0.106 0.829-0.778 1.092-0.936 1.87-0.376-0.353-0.565-0.89-1.56-0.624-0.16-1.242-0.16-0.937 0.01-2.18z"></path> <path style="clip-rule:evenodd;fill-rule:evenodd" d="m262.67 96.579c-1.607 0.154-2.588-0.319-2.492-1.868 1.38-0.498 3.45 0.104 2.49 1.868z"></path> <path style="clip-rule:evenodd;fill-rule:evenodd" d="m149.26 95.645c0.226 0.952-0.318 1.136-0.311 1.87-0.942 0.289-2.424-0.445-2.494 0-0.729-0.101-0.301-1.36-0.934-1.558 0.93-1.076 2.19-0.253 3.73-0.312z"></path> <path style="fill:#FFFFFF;clip-rule:evenodd;fill-rule:evenodd" d="m99.105 104.68c-2.404-1.7-8.021-0.076-8.101-4.052-0.087-4.433 13.199-6.609 14.331-0.622-0.76 3.42-5.08 3.11-6.235 4.67z"></path> <path style="clip-rule:evenodd;fill-rule:evenodd" d="m140.54 96.268h2.804c0.028 1.164 0.349 0.888 0 1.869h-2.493c0.01-0.734-0.53-0.918-0.31-1.869z"></path> <path style="clip-rule:evenodd;fill-rule:evenodd" d="m151.13 96.579c0.532-0.712 2.378-0.114 3.426-0.311v1.869h-2.804c-0.18-0.555-0.16-1.293-0.63-1.558z"></path> <path style="clip-rule:evenodd;fill-rule:evenodd" d="m259.24 97.514c0.167 1.102-0.267 1.605-0.938 1.869-2.52-0.236-0.64-3.915 0.94-1.869z"></path> <path style="clip-rule:evenodd;fill-rule:evenodd" d="m212.51 97.825c0.04 0.768 0.045 1.5-0.314 1.87-0.276-0.242-0.703-0.334-1.245-0.312v-1.246c0.35-0.262 0.82-0.411 1.55-0.312z"></path> <path style="clip-rule:evenodd;fill-rule:evenodd" d="m136.8 98.137c0.898 0.037 2.04-0.17 2.493 0.312 0.217 2.082-2.002 1.782-2.493 1.558-0.69-0.135-0.24-1.656 0-1.873z"></path> <path style="clip-rule:evenodd;fill-rule:evenodd" d="m156.74 98.137c1.484 0.178 2.71 0.612 3.115 1.87-0.78 2.07-4.32-0.092-3.12-1.873z"></path> <path style="clip-rule:evenodd;fill-rule:evenodd" d="m254.88 100.32c0.441 1.412 0.297 2.903-1.245 3.116-1.15-1.11-0.54-3.17 1.24-3.12z"></path> <path style="clip-rule:evenodd;fill-rule:evenodd" d="m134.93 101.25c0.534-0.066 0.808 0.531 0.936 0 0.584 0.35 0.662 1.207 1.246 1.557-0.311 0.417-0.843 0.612-0.936 1.247-0.402-0.636-1.289-0.788-1.557-1.558-0.04-0.56 0.38-0.66 0.31-1.25z"></path> <path style="clip-rule:evenodd;fill-rule:evenodd" d="m133.06 104.99h1.869c0.312 0.809 0.548 2.089-0.311 2.494-1.38 0.04-1.71-0.98-1.56-2.49z"></path> <path style="clip-rule:evenodd;fill-rule:evenodd" d="m251.45 105.93c0.581 0.248 1.142 0.52 1.866 0.623 0.081 1.118-0.933 1.142-0.933 2.181-1.04-0.208-1.691-0.801-1.557-2.181 0.53 0.11 0.59-0.24 0.62-0.62z"></path> <path style="clip-rule:evenodd;fill-rule:evenodd" d="m133.06 114.34c0.819 0.091 0.245-1.209 1.246-0.936-0.146 0.664 0.445 0.593 0.935 0.624 0.368 1.333-0.023 1.27-0.312 2.492-0.88-0.262-1.417-0.867-1.557-1.869-0.19 0.538-1.478-0.025-1.558 0.624-0.802-0.238-1.083-0.996-0.936-2.181 1.18-0.23 2.23-0.37 2.19 1.26z"></path> <path style="clip-rule:evenodd;fill-rule:evenodd" d="m148.95 114.96c-0.369 0.36-1.102 0.354-1.87 0.314v-1.871c1.41-0.48 1.78 0.06 1.87 1.56z"></path> <path style="clip-rule:evenodd;fill-rule:evenodd" d="m158.92 113.4c0.357 0.872 0.357 1.62 0 2.492-1.311 0.378-1.367-0.502-2.181-0.621 0.11-1.77 1.06-1.69 2.18-1.87z"></path> <path style="clip-rule:evenodd;fill-rule:evenodd" d="m284.47 113.4c0.619 0.52 0.398-0.028 1.248 0 0.365 0.467 0.388 1.275 0.933 1.557-0.002 0.618-0.847 0.398-0.621 1.247-0.773 0.406-1.514-0.694-1.56 0-0.83-0.71-0.63-2.07 0-2.81z"></path> <path style="clip-rule:evenodd;fill-rule:evenodd" d="m288.21 113.4c0.88 0.492 1.323-0.357 2.183 0.312 0.224 0.951-0.319 1.136-0.314 1.869-1.84 0.36-2.59-0.85-1.87-2.18z"></path> <path style="clip-rule:evenodd;fill-rule:evenodd" d="m154.56 114.96c-0.201 0.319-0.716 0.324-0.622 0.936-1.277 0.03-2.451-0.043-2.493-1.245 0.303-0.01 0.241-0.383 0.311-0.623 1.71-0.13 2.25-0.46 2.8 0.92z"></path> <path style="clip-rule:evenodd;fill-rule:evenodd" d="m273.88 114.34h1.871c1.24 2.6-2.99 2.42-1.87 0z"></path> <path style="clip-rule:evenodd;fill-rule:evenodd" d="m279.49 114.34c0.513 0.753 0.797 1.514 0.314 2.492-0.877-0.054-1.427-0.669-2.183-1.557 0.52-0.41 0.66-1.2 1.87-0.93z"></path> <path style="clip-rule:evenodd;fill-rule:evenodd" d="m142.1 115.27h1.558c0.311 0.806 0.548 2.084-0.312 2.489-1.46 0.04-1.78-1.41-1.25-2.49z"></path> <path style="clip-rule:evenodd;fill-rule:evenodd" d="m167.64 115.27c1.263-0.431 0.986 0.675 1.871 0.621 0.226 0.953-0.538 0.915-0.312 1.868h-1.869c-0.13-1.07 0.13-1.74 0.31-2.49z"></path> <path style="clip-rule:evenodd;fill-rule:evenodd" d="m139.61 115.9c-0.05 0.362 0.069 0.556 0.311 0.624-0.101 1.144-0.872 1.62-1.868 1.868-0.229-0.289-0.567-0.472-0.935-0.624-0.34-1.79 0.8-2.1 2.49-1.87z"></path> <path style="clip-rule:evenodd;fill-rule:evenodd" d="m130.57 119.01c-4.93-1.55 2.59-4.43 0 0z"></path> <path style="clip-rule:evenodd;fill-rule:evenodd" d="m147.4 116.21c0.331 1.299 0.08 1.375 0 2.805-2.19 1.04-3.03-3.14 0-2.81z"></path> <path style="clip-rule:evenodd;fill-rule:evenodd" d="m257.06 116.21c-0.051 0.363 0.068 0.556 0.312 0.624 0.271 1.207-0.761 1.108-0.933 1.868-0.419-0.312-0.614-0.842-1.248-0.936-0.12-1.26 0.48-1.8 1.87-1.55z"></path> <path style="clip-rule:evenodd;fill-rule:evenodd" d="m283.23 117.14c0.256 1.709-0.9 2.008-1.869 2.494-0.192-0.95-1.399-0.887-0.936-2.494 1.36-0.18 1.71-0.99 2.81 0z"></path> <path style="clip-rule:evenodd;fill-rule:evenodd" d="m292.26 116.52c0.137 1.072-0.122 1.746-0.31 2.492-3.28 0.69-2.91-3.35 0.31-2.49z"></path> <path style="clip-rule:evenodd;fill-rule:evenodd" d="m262.98 117.14c0.897 0.04 2.038-0.168 2.492 0.314-0.14 2.23-2.84 2.65-2.49-0.31z"></path> <path style="clip-rule:evenodd;fill-rule:evenodd" d="m285.1 117.76c0.827 0.006 1.78-0.116 2.181 0.314 0.04 0.766 0.048 1.501-0.31 1.866-1.158 0.645-0.816-0.446-2.181-0.31 0.35-0.37 0.35-1.1 0.31-1.87z"></path> <path style="clip-rule:evenodd;fill-rule:evenodd" d="m132.13 118.08h1.558c0.766 1.318-0.11 2.206-0.623 3.113-1.6 0.11-1.38-2.08-0.94-3.11z"></path> <path style="clip-rule:evenodd;fill-rule:evenodd" d="m176.06 118.08c1.232-0.405 0.637 1.024 1.871 0.621-0.413 0.938-0.497 2.204-2.181 1.869-0.248-0.581-0.521-1.141-0.623-1.869 0.62 0.1 0.97-0.06 0.93-0.62z"></path> <path style="clip-rule:evenodd;fill-rule:evenodd" d="m161.73 118.7c0.958 2.303-2.139 2.604-3.116 1.56 0.07-1.49 1.36-1.76 3.12-1.56z"></path> <path style="clip-rule:evenodd;fill-rule:evenodd" d="m141.48 119.32c0.359 0.872 0.359 1.62 0 2.492-1.284-0.008-1.982-0.183-2.492-1.557 0.44-0.69 1.11-1.16 2.49-0.93z"></path> <path style="clip-rule:evenodd;fill-rule:evenodd" d="m275.75 119.63v1.869c-1.324 0.504-2.115 0.159-2.181-1.869 1.14-0.07 1.2-0.42 2.18 0z"></path> <path style="clip-rule:evenodd;fill-rule:evenodd" d="m269.83 119.63c0.718 0.295 1.007 0.021 2.184 0.31v1.56c-0.37 0.357-1.104 0.353-1.871 0.312-0.42-0.4-0.31-1.35-0.31-2.18z"></path> <path style="clip-rule:evenodd;fill-rule:evenodd" d="m135.56 119.94c0.958-0.23 0.599 0.857 1.558 0.624 0.292 1.539-0.38 2.114-0.936 2.804-0.489-0.132-0.266-0.979-1.246-0.623-0.28-1.41 0.52-1.76 0.63-2.8z"></path> <path style="clip-rule:evenodd;fill-rule:evenodd" d="m149.89 120.26c0.134-0.697 1.535-0.127 2.18-0.314-0.128 0.751 0.569 0.68 0.312 1.56-1.16 0.93-2.33-0.21-2.49-1.25z"></path> <path style="clip-rule:evenodd;fill-rule:evenodd" d="m237.12 119.94c0.783 0.147 2.132-0.038 2.492 1.247-0.021 0.913-0.953 0.918-1.247 1.558-0.553-0.279-0.396-1.263-1.557-0.934-0.22-0.96 0.33-1.14 0.32-1.88z"></path> <path style="clip-rule:evenodd;fill-rule:evenodd" d="m146.15 120.88v1.557c-0.901 0.565-1.421 0.059-1.558 0.933-0.317-0.202-0.322-0.715-0.935-0.623-0.45-2.01 1.12-2.59 2.49-1.87z"></path> <path style="clip-rule:evenodd;fill-rule:evenodd" d="m278.86 120.57c-0.147 0.983 0.958 0.705 0.623 1.871-0.821-0.097-0.801 0.648-0.933 1.245-1.67-0.88-2.05-3.51 0.31-3.11z"></path> <path style="clip-rule:evenodd;fill-rule:evenodd" d="m283.54 120.57c2.546 1.037 0.109 2.84-0.624 3.116-0.618-0.954-1.171-1.874-0.309-2.802 0.68-0.21 0.99 0.87 0.93-0.32z"></path> <path style="clip-rule:evenodd;fill-rule:evenodd" d="m287.9 120.57c1.86 0.426 1.571 2.997 3.739 3.116 0.256 0.879-0.438 0.809-0.312 1.559-2.528 0.243-2.328-2.243-4.052-2.804-0.34-1.18 0.77-0.9 0.62-1.88z"></path> <path style="clip-rule:evenodd;fill-rule:evenodd" d="m147.08 120.88h1.87c-0.258 0.877 0.439 0.806 0.311 1.557-0.651 0.875-1.17-0.051-1.558 0.933-0.316-0.202-0.322-0.715-0.935-0.623-0.21-0.95 0.33-1.14 0.32-1.87z"></path> <path style="clip-rule:evenodd;fill-rule:evenodd" d="m164.84 122.13h1.871c0.532 1.134 0 2.563-1.558 2.493-0.52-1-0.53-1.3-0.31-2.49z"></path> <path style="clip-rule:evenodd;fill-rule:evenodd" d="m245.53 122.44h2.18c0.735 1.232-0.304 1.501-0.621 2.489-0.93-0.42-1.38-1.33-1.56-2.49z"></path> <path style="clip-rule:evenodd;fill-rule:evenodd" d="m138.67 122.75c2.523 0.877 0.118 4.224-1.557 2.494-0.05-1.4 1.16-1.54 1.56-2.49z"></path> <path style="clip-rule:evenodd;fill-rule:evenodd" d="m184.47 122.75c-0.172 0.691 0.594 0.446 0.624 0.936 0.051 0.879-0.938 0.728-0.936 1.559-0.58 0.297-1.042-0.933-1.245 0-0.446-0.385-0.591-1.072-0.623-1.871 0.82-0.13 0.88-1.01 2.19-0.63z"></path> <path style="clip-rule:evenodd;fill-rule:evenodd" d="m268.27 124.62c-0.885 0.324-1.298 0.324-2.183 0-0.48-2.47 2.61-2.25 2.18 0z"></path> <path style="clip-rule:evenodd;fill-rule:evenodd" d="m158.61 123.37c1.535-0.183 2.4 0.302 2.181 1.871-0.731 0.099-1.169 0.492-2.181 0.31-0.32-0.88-0.32-1.3 0-2.18z"></path> <path style="clip-rule:evenodd;fill-rule:evenodd" d="m174.19 123.68c0.342 1.379-0.527 1.549-0.621 2.492-0.961 0.233-0.602-0.854-1.56-0.624-0.49-1.77 0.93-2.81 2.18-1.87z"></path> <path style="clip-rule:evenodd;fill-rule:evenodd" d="m257.37 123.68c1.349-0.312 1.729 0.347 2.492 0.623 0.035 1.179-0.611 1.676-1.56 1.869-0.65-0.48-1.12-1.15-0.93-2.49z"></path> <path style="clip-rule:evenodd;fill-rule:evenodd" d="m134 124c0.375 0.353 0.564 0.89 1.558 0.624 0.55 1.049-0.421 1.387-0.624 2.492-2.49 0.3-1.9-2.24-0.94-3.11z"></path> <path style="clip-rule:evenodd;fill-rule:evenodd" d="m280.11 124c0.73 0.102 1.288 0.375 1.871 0.624 0.005 0.735-0.537 0.917-0.314 1.868h-1.866c-0.3-0.8-0.62-2.17 0.31-2.49z"></path> <path style="clip-rule:evenodd;fill-rule:evenodd" d="m143.97 125.24c0.238 1.691-0.762 2.146-2.18 2.181-0.261-0.675-0.806-1.064-0.623-2.181 1.23-0.27 1.56-0.27 2.8 0z"></path> <path style="clip-rule:evenodd;fill-rule:evenodd" d="m154.25 125.24c0.149 0.979-0.444 1.217-0.623 1.869-1.103-0.274-0.766-0.038-1.87-0.312-0.91-1.49 1.07-2.4 2.49-1.56z"></path> <path style="clip-rule:evenodd;fill-rule:evenodd" d="m150.2 128.05c-0.711 0.426-1.171-0.804-1.246 0-2.61-3.14 3.69-3.37 1.25 0z"></path> <path style="clip-rule:evenodd;fill-rule:evenodd" d="m286.34 125.24c0.249 0.581 0.521 1.142 0.624 1.869-0.532-0.114-0.588 0.24-0.624 0.621-0.772 0.405-1.511-0.695-1.557 0-0.634-0.3-0.674-1.194-0.623-2.181 0.4-0.43 1.36-0.31 2.18-0.31z"></path> <path style="clip-rule:evenodd;fill-rule:evenodd" d="m264.85 127.73c-0.558 1.27-1.361 1.085-2.492 1.247 0.226-0.953-0.537-0.915-0.312-1.868 1.06-1.08 2.15-0.36 2.8 0.62z"></path> <path style="clip-rule:evenodd;fill-rule:evenodd" d="m271.7 126.49c-0.068 1.28-0.654 2.046-1.557 2.492-0.781-0.259-0.984-1.09-1.557-1.557 0.41-0.95 1.64-1.07 3.12-0.93z"></path> <path style="clip-rule:evenodd;fill-rule:evenodd" d="m252.07 127.11c0.551 0.489 1.991 0.089 2.181 0.936 0.041 0.558-0.38 0.656-0.312 1.244h-1.557c-0.1-0.73-0.49-1.17-0.31-2.18z"></path> <path style="clip-rule:evenodd;fill-rule:evenodd" d="m275.75 127.42v1.868c-1.266 0.125-2.171-0.113-2.181-1.244 0.04-1.23 1.4-0.92 2.18-0.63z"></path> <path style="clip-rule:evenodd;fill-rule:evenodd" d="m144.59 127.42c0.71-0.429 1.171 0.801 1.246 0 1.156 0.689 0.647 3.032-1.246 2.492-0.36-0.87-0.36-1.61 0-2.49z"></path> <path style="clip-rule:evenodd;fill-rule:evenodd" d="m162.66 127.73c0.232-0.7 1.748-0.122 2.493-0.31 0.224 0.953-0.537 0.915-0.313 1.868-0.492 0.028-1.188-0.149-1.245 0.312-0.83-0.11-0.29-1.58-0.94-1.87z"></path> <path style="clip-rule:evenodd;fill-rule:evenodd" d="m188.2 127.42c0.589 0.451 1.62 0.456 1.871 1.247-0.01 1.131-0.918 1.367-2.18 1.245-0.13-1.08 0.13-1.75 0.31-2.5z"></path> <path style="clip-rule:evenodd;fill-rule:evenodd" d="m135.56 128.05h1.869c0.407 0.902 0.253 1.79-0.623 2.18-0.559 0.038-0.656-0.38-1.246-0.312v-1.87z"></path> <path style="clip-rule:evenodd;fill-rule:evenodd" d="m157.68 128.05c1.012-0.183 1.449 0.21 2.18 0.309v1.56c-0.731 0.099-1.168 0.492-2.18 0.312-0.33-0.89-0.33-1.3 0-2.18z"></path> <path style="clip-rule:evenodd;fill-rule:evenodd" d="m177.3 128.36h2.181c-0.119 1.055 1.38 0.492 0.934 1.871-1.904 0.573-1.126 0.031-3.426 0-0.21-0.96 0.55-0.92 0.32-1.87z"></path> <path style="clip-rule:evenodd;fill-rule:evenodd" d="m279.18 129.29c0.146 0.981-0.446 1.22-0.624 1.869-1.41 0.253-2.282-1.646-1.871-2.181 0.75-0.71 1.88-0.05 2.49 0.31z"></path> <path style="clip-rule:evenodd;fill-rule:evenodd" d="m141.16 129.29c0.238 1.174-0.38 1.488-0.312 2.493-1.104-0.546-0.766 0.207-1.87 0.312-0.35-1.202-0.736-1.44-0.312-2.805 1.12-0.1 1.5-0.47 2.49 0.01z"></path> <path style="clip-rule:evenodd;fill-rule:evenodd" d="m148.64 129.6c1.968 0.091 1.155 2.469 0.312 3.113-0.489-0.132-0.267-0.979-1.247-0.621-0.55-1.48 0.23-1.6 0.94-2.49z"></path> <path style="clip-rule:evenodd;fill-rule:evenodd" d="m172.01 129.6c-0.114 0.529 0.241 0.588 0.621 0.623-0.102 0.728-0.373 1.288-0.621 1.869h-1.56c0.033-0.966-0.979-0.89-0.623-2.181 0.98 0.16 1.09-0.56 2.18-0.31z"></path> <path style="clip-rule:evenodd;fill-rule:evenodd" d="m156.74 132.1h-1.558c-0.173-0.556-0.161-1.296-0.624-1.56 1.03-1.11 3.08-0.18 2.18 1.56z"></path> <path style="clip-rule:evenodd;fill-rule:evenodd" d="m280.74 129.92h1.871c-0.011 0.732 0.535 0.915 0.309 1.869-0.367 0.359-1.1 0.352-1.868 0.312-0.57-0.9-0.51-0.98-0.31-2.18z"></path> <path style="clip-rule:evenodd;fill-rule:evenodd" d="m286.65 131.78c-0.979 0.811-1.313 0.324-2.489 0v-1.558c1.39-0.44 2.76-0.4 2.49 1.56z"></path> <path style="clip-rule:evenodd;fill-rule:evenodd" d="m195.06 131.16c0.181 0.651 0.771 0.89 0.624 1.871-0.766 0.273-1.144 0.933-2.495 0.624-0.68-1.33-0.25-3.06 1.88-2.49z"></path> <path style="clip-rule:evenodd;fill-rule:evenodd" d="m263.6 131.16c0.827 0.005 1.78-0.117 2.181 0.312 0.446 1.59-0.953 1.331-1.247 2.184-0.56-0.8-1.64-1.26-0.93-2.49z"></path> <path style="clip-rule:evenodd;fill-rule:evenodd" d="m271.39 132.72c0.226 0.852-0.618 0.629-0.624 1.247-1.231-0.015-1.855-0.639-1.871-1.868 0.74-0.66 2.26-0.19 2.49 0.62z"></path> <path style="clip-rule:evenodd;fill-rule:evenodd" d="m155.49 134.28c-0.612 0.618-1.779 0.2-2.492 0 0.026-0.441 0.052-0.883-0.311-0.936 0.47-1.36 3.39-1.28 2.8 0.94z"></path> <path style="clip-rule:evenodd;fill-rule:evenodd" d="m184.78 132.72c0.367 0.36 1.103 0.354 1.868 0.314-0.04 0.558 0.381 0.656 0.312 1.245-0.114 0.717-1.364 0.296-1.245 1.244-0.532 0.066-0.807-0.529-0.936 0-0.632-0.197-0.206-1.455-0.936-1.557 0.32-0.41 0.85-0.61 0.94-1.24z"></path> <path style="clip-rule:evenodd;fill-rule:evenodd" d="m277.93 132.72c0.878 0.477 2.049 0.654 1.871 2.183-1.113 1.045-1.584 0.041-2.804-0.312 0.259-0.36 0.41-0.837 0.31-1.557 0.38 0.35 0.64 0.27 0.62-0.31z"></path> <path style="clip-rule:evenodd;fill-rule:evenodd" d="m142.1 133.03c1.311-0.375 1.365 0.502 2.18 0.624 0.081 0.91-0.705 0.955-0.623 1.865h-1.558c-0.48-0.99-0.11-1.37 0-2.49z"></path> <path style="clip-rule:evenodd;fill-rule:evenodd" d="m147.08 133.03h0.934c0.62 1.564-0.014 2.338-0.934 3.113-0.489-0.132-0.266-0.979-1.246-0.624-0.226-0.95 0.537-0.915 0.312-1.865 0.63 0.1 0.98-0.07 0.94-0.63z"></path> <path style="clip-rule:evenodd;fill-rule:evenodd" d="m282.29 133.34c0.477 0.562 1.123 0.955 0.936 2.18-0.19 0.434-1.199 0.049-1.245 0.624-0.85-0.459-1.409-1.204-0.936-2.181 0.56-0.07 1.57 0.32 1.25-0.62z"></path> <path style="clip-rule:evenodd;fill-rule:evenodd" d="m138.36 134.28c0.995 2.192-1.159 4.033-2.492 2.492 0-1.67 0.45-2.87 2.49-2.49z"></path> <path style="clip-rule:evenodd;fill-rule:evenodd" d="m176.06 134.28c0.913 0.54 2.528 0.383 2.181 2.183-0.857 0.669-1.301-0.183-2.181 0.31-0.178-0.652-0.771-0.888-0.624-1.869 0.52 0.11 0.58-0.24 0.62-0.62z"></path> <path style="clip-rule:evenodd;fill-rule:evenodd" d="m168.58 134.9c0.479 0.353 0.769 0.896 1.245 1.245-0.162 0.251-0.325 0.507-0.31 0.936-1.07 0.763-2.964 0.2-2.492-1.56 0.78 0.05 1.51 0.06 1.56-0.62z"></path> <path style="clip-rule:evenodd;fill-rule:evenodd" d="m249.27 134.9c0.961 0.219 0.601 0.219 1.56 0 0.357 0.368 0.35 1.101 0.309 1.869-1.146 0.893-1.541 0.102-2.489 0-0.43-1.26 0.67-0.99 0.62-1.87z"></path> <path style="clip-rule:evenodd;fill-rule:evenodd" d="m154.87 135.84c0.265-0.059 0.294 0.122 0.312 0.31 0.11 0.437 0.547 0.028 0.622-0.31 0.421 0.305 0.623 0.832 0.936 1.245 0.079 1.118-0.936 1.141-0.936 2.181-1.143 0.002-1.194-1.091-1.868-1.557 0.13-0.8 0.94-0.94 0.94-1.86z"></path> <path style="clip-rule:evenodd;fill-rule:evenodd" d="m161.1 135.84c0.599 0.646 1.471 1.02 1.247 2.49-1.251 0.111-2.279-0.006-2.493-0.934-0.09-1.02 1.2-0.67 1.24-1.56z"></path> <path style="clip-rule:evenodd;fill-rule:evenodd" d="m151.76 136.77c0.139 1.384-0.843 1.647-1.247 2.492-0.724-0.211-0.834-1.035-1.557-1.245 0.45-0.89 1.91-2.73 2.81-1.25z"></path> <path style="clip-rule:evenodd;fill-rule:evenodd" d="m274.5 136.77c1.012 0.235 1.354 1.141 1.248 2.492-1.243 0.17-0.938 0.17-2.181 0v-1.869c0.62 0.11 0.97-0.06 0.93-0.62z"></path> <path style="clip-rule:evenodd;fill-rule:evenodd" d="m284.79 136.77c0.581 0.248 1.142 0.521 1.866 0.623 0.03 1.164 0.351 0.888 0 1.869-1.339 0.094-2.513 0.022-2.489-1.245-0.39-1.01 1-0.24 0.62-1.25z"></path> <path style="clip-rule:evenodd;fill-rule:evenodd" d="m191.63 137.08c0.319 0.203 0.325 0.718 0.936 0.624 0.15 0.98-0.443 1.217-0.623 1.868-0.845-0.14-1.458-0.297-1.869 0-0.446-0.386-0.591-1.07-0.623-1.868 1.37-0.88 1.52 0.28 2.17-0.62z"></path> <path style="clip-rule:evenodd;fill-rule:evenodd" d="m205.03 139.57c-1.488 0.243-1.841-0.649-1.869-1.868 1.86-0.64 3.01 0.51 1.87 1.87z"></path> <path style="clip-rule:evenodd;fill-rule:evenodd" d="m142.41 138.32c0.042 1.602-0.996 2.119-2.804 1.871-0.18-0.652-0.773-0.891-0.624-1.871 1.91 0.12 2.03-1.04 3.42 0z"></path> <path style="clip-rule:evenodd;fill-rule:evenodd" d="m146.77 137.7c0.499 1.949-0.844 2.061-1.246 3.115-0.593-0.134-0.782-0.672-1.558-0.623 0.28-1.5 0.9-2.65 2.81-2.5z"></path> <path style="clip-rule:evenodd;fill-rule:evenodd" d="m165.15 137.7c0.487 0.134 0.264 0.98 1.245 0.621 0.068 1.11-0.21 1.868-0.936 2.18-1.131-0.01-1.369-0.912-1.245-2.18 0.62 0.11 0.97-0.06 0.93-0.62z"></path> <path style="clip-rule:evenodd;fill-rule:evenodd" d="m258.62 138.32c0.477 1.516-0.905 1.174-0.936 2.18-0.448 0.168-0.761-1.211-0.936-0.309-0.446-0.386-0.588-1.07-0.623-1.871 1.04-0.46 1.53-0.79 2.5 0z"></path> <path style="clip-rule:evenodd;fill-rule:evenodd" d="m277.62 140.2c-0.637-0.594-0.626-1.354-0.312-2.181 3.7-1.33 1.96 3.48 0.31 2.18z"></path> <path style="clip-rule:evenodd;fill-rule:evenodd" d="m181.98 138.32v1.559c-0.403 0.429-1.351 0.308-2.18 0.312 0.007-0.735-0.538-0.918-0.312-1.871 1.41-0.04 1.22-0.25 2.49 0z"></path> <path style="clip-rule:evenodd;fill-rule:evenodd" d="m264.85 138.02c0.462 0.162 0.786 0.462 1.245 0.624 0.229 0.95-0.317 1.136-0.31 1.865-0.958-0.218-0.599-0.218-1.557 0 0.152-0.98-0.562-1.098-0.314-2.18 0.254 0.061 0.312 0.314 0.624 0.314 0.3 0 0.24-0.37 0.31-0.61z"></path> <path style="clip-rule:evenodd;fill-rule:evenodd" d="m156.74 139.57h1.246c0.119 0.816 0.999 0.872 0.623 2.181-0.303-0.008-0.242-0.381-0.312-0.624-0.365 0.051-0.262 0.568-0.311 0.936-1.205 0.135-1.109 0.343-1.87-0.312-0.36-1.3 0.65-1.22 0.62-2.19z"></path> <path style="clip-rule:evenodd;fill-rule:evenodd" d="m152.69 140.2c0.897 0.035 2.038-0.173 2.492 0.309 0.095 1.552-0.776 2.135-2.492 1.871v-2.18z"></path> <path style="clip-rule:evenodd;fill-rule:evenodd" d="m281.67 140.2c1.222 0.025 2.114 0.38 1.871 1.868-0.692 0.723-1.214-0.104-2.181 0-0.23-0.96 0.32-1.14 0.31-1.87z"></path> <path style="clip-rule:evenodd;fill-rule:evenodd" d="m159.86 140.5h2.181v1.871c-0.896 0.176-0.54 0.229-1.557 0.624-0.02-1.01-0.89-1.18-0.62-2.49z"></path> <path style="clip-rule:evenodd;fill-rule:evenodd" d="m286.03 140.82c0.165 1.099 0.915 1.393 0.312 2.49-0.826 0-1.779 0.119-2.18-0.31-0.15-1.5 0.16-2.55 1.87-2.18z"></path> <path style="clip-rule:evenodd;fill-rule:evenodd" d="m174.19 141.13c-0.008 0.735 0.535 0.918 0.312 1.871-1.052 0.472-1.387 0.662-2.492 0-0.25-1.6 0.55-2.14 2.18-1.87z"></path> <path style="clip-rule:evenodd;fill-rule:evenodd" d="m195.68 141.44c0.467 0.467 1.311 0.556 1.557 1.245 0.054 1.817-2.165 1.817-2.492 0.312-0.23-1.05 1.27-0.39 0.93-1.55z"></path> <path style="clip-rule:evenodd;fill-rule:evenodd" d="m273.88 142.06h1.871c0.099 1.034 0.045 1.917-0.624 2.183-1.13 0-1.37-0.91-1.25-2.18z"></path> <path style="clip-rule:evenodd;fill-rule:evenodd" d="m278.24 142.06c1.387-0.035 2.434 0.267 2.18 1.869-0.591 0.618-1.473 0.151-2.18 0v-1.87z"></path> <path style="clip-rule:evenodd;fill-rule:evenodd" d="m145.21 142.38c0.459 0.452 0.459 2.039 0 2.493-0.767 0.04-1.501 0.048-1.868-0.312-0.15-1.51 0.4-2.31 1.87-2.18z"></path> <path style="clip-rule:evenodd;fill-rule:evenodd" d="m148.02 142.38c0.636 0.47 1.79 0.178 1.87 2.493-1.021 0.545-1.723 0.696-2.493-0.312-0.21-1.14 0.67-1.2 0.62-2.18z"></path> <path style="clip-rule:evenodd;fill-rule:evenodd" d="m180.11 143c0.223 0.951-0.319 1.136-0.312 1.869-0.773 0.402-1.514-0.695-1.56 0-0.583-0.647-0.705-1.271-0.934-1.56 0.56-1.23 1.79-0.92 2.8-0.31z"></path> <path style="clip-rule:evenodd;fill-rule:evenodd" d="m186.96 142.38c0.885-0.053 0.608 1.055 1.868 0.624 0.335 1.164-0.771 0.888-0.624 1.869-1.184-0.106-1.795-0.117-1.866-1.869 0.53 0.11 0.58-0.24 0.62-0.62z"></path> <path style="clip-rule:evenodd;fill-rule:evenodd" d="m259.24 142.38c0.964 0.074 1.207 0.867 1.866 1.248-0.021 0.912-0.951 0.918-1.245 1.557-0.705-0.229-0.682-1.187-1.56-1.247 0.18-0.66 0.66-1.01 0.94-1.56z"></path> <path style="clip-rule:evenodd;fill-rule:evenodd" d="m165.15 143.31v1.56c-0.415 0.443-1.766 0.443-2.181 0-0.46-1.66 1.11-2.4 2.18-1.56z"></path> <path style="clip-rule:evenodd;fill-rule:evenodd" d="m155.81 143.31c1.089 0.565 1.183 2.533 0.312 3.428-0.251-0.216-0.853-0.484-0.934 0-0.747 0.124 0.172-1.42-0.936-0.933 0.24-1.77 1.21-1.25 1.56-2.5z"></path> <path style="clip-rule:evenodd;fill-rule:evenodd" d="m166.09 143.93c0.769-0.041 1.501-0.046 1.871 0.313 0.203 1.139-0.675 1.192-0.624 2.181-0.532 0.063-0.806-0.532-0.936 0-0.55-0.7-0.66-1.64-0.31-2.49z"></path> <path style="clip-rule:evenodd;fill-rule:evenodd" d="m271.39 144.25c-0.264 1.575 0.018 1.844-0.314 3.114-1.341-0.125-0.905-0.573-1.866-0.624-0.91-2.15 0.79-3.34 2.18-2.49z"></path> <path style="clip-rule:evenodd;fill-rule:evenodd" d="m151.76 144.25c0.949-0.015 1.212 0.654 1.87 0.934 0.048 0.775-0.489 0.963-0.624 1.557-1.502-0.097-2.049 0.005-2.181-1.868 0.62 0.11 0.97-0.06 0.93-0.62z"></path> <path style="clip-rule:evenodd;fill-rule:evenodd" d="m251.14 145.8c-0.483 0.552-0.874 1.199-2.18 0.933-1.32-2.45 1.77-3.2 2.18-0.93z"></path> <path style="clip-rule:evenodd;fill-rule:evenodd" d="m160.79 145.49c0.258 0.88-0.439 0.807-0.311 1.557h-2.182c-0.55-1.83 1.39-2.35 2.49-1.56z"></path> <path style="clip-rule:evenodd;fill-rule:evenodd" d="m279.18 145.49c0.276 0.761 0.725 1.352 0.623 2.492-2.41 0.78-2.97-2.79-0.62-2.49z"></path> <path style="clip-rule:evenodd;fill-rule:evenodd" d="m192.57 147.67c-1.275 0.732-1.242 0.469-2.804 0.312-0.62-2.87 2.99-2.56 2.8-0.31z"></path> <path style="clip-rule:evenodd;fill-rule:evenodd" d="m281.67 146.11c0.764 0.175 1.141 0.733 1.56 1.248 0.048 0.775-0.489 0.963-0.621 1.557-1.04-0.208-1.694-0.802-1.56-2.181 0.53 0.11 0.58-0.25 0.62-0.63z"></path> <path style="clip-rule:evenodd;fill-rule:evenodd" d="m175.75 147.05h2.181c-0.033 0.966 0.979 0.891 0.624 2.184-1.009 0.604-2.254 0.142-2.805 0 0.01-0.73 0.01-1.45 0.01-2.18z"></path> <path style="clip-rule:evenodd;fill-rule:evenodd" d="m274.5 147.05c0.36 0.875 0.36 1.62 0 2.492-1.207 0.168-1.283-0.793-2.181-0.933 0.43-0.83 0.54-1.96 2.18-1.56z"></path> <path style="clip-rule:evenodd;fill-rule:evenodd" d="m150.2 150.48c-0.289-1.222-0.679-1.158-0.312-2.492 3.44-0.99 2.37 2.69 0.31 2.49z"></path> <path style="clip-rule:evenodd;fill-rule:evenodd" d="m161.1 147.67c0.828 0.003 1.78-0.119 2.18 0.312 0.302 1.547-0.467 2.023-1.868 1.869 0.16-0.98-0.56-1.1-0.31-2.18z"></path> <path style="clip-rule:evenodd;fill-rule:evenodd" d="m183.84 149.85c-1.242 0.17-0.938 0.17-2.181 0 0.229-0.951-0.537-0.915-0.31-1.869 1.39-0.41 2.72-0.11 2.49 1.87z"></path> <path style="clip-rule:evenodd;fill-rule:evenodd" d="m263.6 147.67c0.365 1.336-0.025 1.271-0.314 2.492-1.45 0.41-3.56-2.62 0.31-2.49z"></path> <path style="clip-rule:evenodd;fill-rule:evenodd" d="m165.78 151.1c-1.182 0.452-0.599-0.854-1.56-0.621-0.41-4.1 3.96-1.69 1.56 0.62z"></path> <path style="clip-rule:evenodd;fill-rule:evenodd" d="m147.08 148.61c1.901 0.218 2.062 3.585-0.624 3.113 0.07-1.17-0.33-2.82 0.62-3.11z"></path> <path style="clip-rule:evenodd;fill-rule:evenodd" d="m188.83 148.61c-0.005 0.732 0.537 0.918 0.314 1.868h-2.183c0.256-0.88-0.439-0.809-0.312-1.559 0.4-0.43 1.35-0.31 2.18-0.31z"></path> <path style="clip-rule:evenodd;fill-rule:evenodd" d="m153 149.85c0.768-0.041 1.501-0.049 1.87 0.312v1.557c-1.207 0.195-1.283 0.259-2.18-0.31-0.26-0.88 0.44-0.81 0.31-1.56z"></path> <path style="clip-rule:evenodd;fill-rule:evenodd" d="m157.05 149.85h1.87c0.021 1.06 0.096 2.173-0.624 2.492-1.27 0.03-1.34-1.15-1.25-2.49z"></path> <path style="clip-rule:evenodd;fill-rule:evenodd" d="m197.55 150.79c0.227 0.95-0.316 1.136-0.312 1.868h-2.181c-0.98-1.88 0.89-2.68 2.49-1.87z"></path> <path style="clip-rule:evenodd;fill-rule:evenodd" d="m275.44 150.79h1.56c-0.051 0.359 0.065 0.553 0.31 0.623 0.149 0.979-0.441 1.218-0.624 1.869-1.05-0.38-1.73-1.45-1.25-2.49z"></path> <path style="clip-rule:evenodd;fill-rule:evenodd" d="m279.8 150.79h1.245c0.357 0.872 0.357 1.617 0 2.492-1.26-0.15-1.88-1.3-1.24-2.49z"></path> <path style="clip-rule:evenodd;fill-rule:evenodd" d="m170.45 151.41c1.369-0.329 1.024 1.053 2.181 0.934-0.441 0.801-0.728 1.765-1.866 1.871-1.05-0.52-1.1-1.95-0.31-2.8z"></path> <path style="clip-rule:evenodd;fill-rule:evenodd" d="m150.82 152.66v1.56c-0.62 0.585-1.331 0.291-1.558 0.621-0.999-0.51-0.794-1.042-0.622-2.181 1.14-0.07 1.2-0.43 2.18 0z"></path> <path style="clip-rule:evenodd;fill-rule:evenodd" d="m160.17 152.66c1.384-0.033 1.71 0.989 1.558 2.492-0.952 0.051-0.978 0.71-2.182 0.312-0.47-1.39 0.11-1.71 0.62-2.8z"></path> <path style="clip-rule:evenodd;fill-rule:evenodd" d="m176.99 152.97c-0.051 0.36 0.068 0.553 0.312 0.624-0.116 1.336-1.104 1.8-2.804 1.557-1.24-1.77 0.85-3.36 2.49-2.18z"></path> <path style="clip-rule:evenodd;fill-rule:evenodd" d="m187.9 155.15c-1.309-0.04-1.74 0.568-2.805 0-0.94-3.19 3.78-3.32 2.8 0z"></path> <path style="clip-rule:evenodd;fill-rule:evenodd" d="m163.91 153.28h1.557c0.061 1.204 0.013 2.294-0.31 3.116-0.421-0.063-0.583-1.296-0.623 0-0.851 0.226-0.628-0.619-1.248-0.624-0.27-1.31 0.6-1.48 0.62-2.5z"></path> <path style="clip-rule:evenodd;fill-rule:evenodd" d="m262.35 153.28c0.608 0.852 0.608 1.328 0 2.181-1.164-0.028-0.888-0.351-1.868 0 0.081-0.913-0.705-0.956-0.624-1.869 1.22-0.35 1.16-0.07 2.49-0.31z"></path> <path style="clip-rule:evenodd;fill-rule:evenodd" d="m152.38 153.59c1.538 0.073 1.36 2.028 0.623 2.805-0.276-0.193-0.557-0.378-0.623 0-0.79-0.355-0.904-1.382-0.935-2.495 0.45 0.03 0.89 0.06 0.94-0.31z"></path> <path style="clip-rule:evenodd;fill-rule:evenodd" d="m180.11 153.59c0.593 0.583 0.781 0.033 1.557 0 1.922 1.871-1.331 4.011-2.181 1.557-0.24-0.96 1.07-0.38 0.62-1.56z"></path> <path style="clip-rule:evenodd;fill-rule:evenodd" d="m269.21 153.59h1.866c0.36 0.872 0.36 1.617 0 2.49-1.26-0.04-2.06-0.36-1.87-2.49z"></path> <path style="clip-rule:evenodd;fill-rule:evenodd" d="m191.63 154.22c1.072-0.137 1.747 0.121 2.495 0.31 0.728 1.81-1.45 1.997-2.495 1.557-0.34-0.99-0.02-0.71 0.01-1.87z"></path> <path style="clip-rule:evenodd;fill-rule:evenodd" d="m276.06 154.22c0.707 0.223 1.59 0.276 2.181 0.621 0.013 0.948-0.657 1.212-0.936 1.868-0.408-0.316-1.146-0.304-1.557-0.623-0.22-0.96 0.33-1.14 0.32-1.87z"></path> <path style="clip-rule:evenodd;fill-rule:evenodd" d="m154.87 155.15h2.18c0.365 0.88 0.062 1.323-0.311 2.181h-1.558c-0.1-0.73-0.49-1.17-0.31-2.18z"></path> <path style="clip-rule:evenodd;fill-rule:evenodd" d="m199.42 155.46c-0.005 0.732 0.537 0.915 0.312 1.868-1.021 0.507-1.188-0.071-2.492 0 0.259-0.88-0.438-0.807-0.31-1.557 0.45-0.48 1.59-0.27 2.49-0.31z"></path> <path style="clip-rule:evenodd;fill-rule:evenodd" d="m272.32 155.77c0.848 0.167 0.776 0.248 1.871 0.624 0.31 1.349-0.35 1.729-0.623 2.489-1.01-0.56-2.73-1.87-1.25-3.11z"></path> <path style="clip-rule:evenodd;fill-rule:evenodd" d="m158.61 157.33h1.558c0.359 0.872 0.359 1.62 0 2.495h-1.558c-0.77-0.76 0.23-1.35 0-2.49z"></path> <path style="clip-rule:evenodd;fill-rule:evenodd" d="m174.81 157.33c1.093 1.622 0.308 2.891-1.868 2.804-0.72-1.43-0.02-3.05 1.87-2.8z"></path> <path style="clip-rule:evenodd;fill-rule:evenodd" d="m183.54 157.95c0.974 0.062 2.287-0.211 2.804 0.312 0.21 2.41-3.43 2.32-2.8-0.31z"></path> <path style="clip-rule:evenodd;fill-rule:evenodd" d="m162.66 158.27c0.579 0.251 1.259 0.403 1.558 0.936-0.027 1.217-0.381 2.109-1.869 1.868-1.05-1.12-0.04-1.6 0.31-2.81z"></path> <path style="clip-rule:evenodd;fill-rule:evenodd" d="m256.12 158.89c-0.006 0.735 0.537 0.918 0.314 1.871-0.416 0.443-1.768 0.443-2.184 0-0.15-1.4 0.33-2.17 1.87-1.87z"></path> <path style="clip-rule:evenodd;fill-rule:evenodd" d="m265.47 159.2c1.526-0.235 1.341 0.824 2.492 1.557-0.165 0.248-0.324 0.507-0.312 0.933-1.71 0.79-3.12-0.71-2.18-2.49z"></path> <path style="clip-rule:evenodd;fill-rule:evenodd" d="m245.22 160.76h2.181c-0.006 0.826 0.116 1.78-0.312 2.181-1.61 0.25-1.9-0.8-1.87-2.18z"></path> <path style="fill:#FFFFFF;clip-rule:evenodd;fill-rule:evenodd" d="m187.27 164.19c0.24 1.628 0.821 2.916 1.871 3.737-1.387 12.195-9.743 19.046-14.645 26.17-5.74 4.579-12.744 7.074-18.381 7.165-10.349-0.429-19.354 0.644-27.416-0.624-15.695 1.225-32.26-0.185-52.028 0-5.213 0.051-15.035 0.934-18.381 0.314-0.852-0.157-1.667-0.969-2.492-1.247-1.108-0.375-2.5 0.517-3.115-1.247-6.775 1.865-16.447-6.407-20.562-13.083-0.14-1.004-0.597-1.688-0.624-2.804-2.216-1.318-2.759-4.306-4.673-5.92-0.289-4.075-1.78-6.945-1.558-11.529 13.082-0.491 24.192-0.882 43.928-0.623 16.707 0.223 37.89 0.446 59.505 0 10.668-0.218 20.487-0.229 27.728-1.557 0.832 0.4 1.141 0.836 1.558 0.933 4.628 0.284 4.962-0.081 6.853 0.624 3.39-0.946 7.362-0.964 10.592 0 0.312-0.842 4.105-1.141 4.364 0 0.94-1.31 6.1-0.3 7.48-0.3z"></path> <path style="fill:#FFFFFF;clip-rule:evenodd;fill-rule:evenodd" d="m41.158 198.45c-0.133 1.901-2.333-0.102-2.804 1.559-13.148-5.976-21.197-18.662-23.366-34.582 1.964-1.731 3.679-0.302 4.05 1.868 5.885 6.577 8.799 16.125 14.331 23.057 1.919 1.091 2.9 3.121 4.049 4.984 1.604 1.08 3.607 1.54 3.74 3.11z"></path> <path style="clip-rule:evenodd;fill-rule:evenodd" d="m323.11 166.37c0.897 0.472 0.974-0.01 2.18 0.31 0.106 1.252-0.773 1.514-1.247 2.183-0.58-0.56-1.14-1.14-0.93-2.49z"></path> <path style="clip-rule:evenodd;fill-rule:evenodd" d="m284.47 166.68h1.871c0.365 1.336-0.024 1.272-0.312 2.494-1.55 0.07-2.09-1.36-1.56-2.49z"></path> <path style="clip-rule:evenodd;fill-rule:evenodd" d="m298.18 166.68h1.245c0.529 0.778 1.087 1.531 0.621 2.494h-1.866c-0.19-0.71-0.61-1.88 0.01-2.49z"></path> <path style="clip-rule:evenodd;fill-rule:evenodd" d="m302.85 167.92c1.153 0.197 0.953 1.749 0.936 3.116-1.767 0.104-2.427-0.897-2.492-2.492 1.01-0.4 1.5 0.39 1.55-0.63z"></path> <path style="clip-rule:evenodd;fill-rule:evenodd" d="m220.92 168.23h1.56c0.04 0.769 0.046 1.501-0.314 1.869-0.59-0.45-1.39-0.69-1.25-1.87z"></path> <path style="clip-rule:evenodd;fill-rule:evenodd" d="m231.2 168.23c1.277-0.03 1.932 0.561 2.804 0.936 0.226 0.953-0.537 0.915-0.312 1.869-0.264-0.672-1.148-0.723-2.181-0.624-0.1-0.74-0.49-1.17-0.31-2.19z"></path> <path style="clip-rule:evenodd;fill-rule:evenodd" d="m265.78 168.55c-0.089 0.502 0.294 0.537 0.31 0.933 0.332 1.164-1.166 0.494-0.934 1.56-0.375-0.353-0.562-0.891-1.557-0.624 0.224-0.951-0.537-0.915-0.314-1.868 0.94-0.43 1.11 0.14 2.49 0z"></path> <path style="clip-rule:evenodd;fill-rule:evenodd" d="m218.43 171.35v3.113c0.966 0.764 1.191 0.33 2.492 0.624-0.429 2.845-2.604 1.709-3.425 0.624-1.083-0.249-1.199 0.464-2.184 0.312-0.154 1.191 1.083 0.996 0.624 2.492-1.22 0.183-1.808-0.269-2.492-0.624-0.249-1.075 0.345-1.313 0.624-1.868-2.746-0.578-4.678-1.97-4.361-5.608 3.89-2.09 5.81-2.26 8.72 0.95zm-5.92 1.56c0.491 1.172 2.003 1.318 3.736 1.247 0.97-2.76-3.34-4.46-3.74-1.25z"></path> <path style="clip-rule:evenodd;fill-rule:evenodd" d="m247.4 169.17c0.826 0.003 1.779-0.119 2.18 0.31 0.842 1.392-0.866 2.322-1.557 2.181-0.72-0.32-0.64-1.43-0.62-2.49z"></path> <path style="clip-rule:evenodd;fill-rule:evenodd" d="m255.5 169.17c1.679-0.192 2.074 1.38 1.56 2.49-1.256-0.117-0.764-0.198-1.869-0.621-0.23-0.96 0.54-0.92 0.31-1.87z"></path> <path style="clip-rule:evenodd;fill-rule:evenodd" d="m276.38 169.17c0.994 0.459 2.292 0.614 2.181 2.181-0.254 0.269-0.852 0.186-0.936 0.624-1.23-0.25-2-1.45-1.24-2.8z"></path> <path style="clip-rule:evenodd;fill-rule:evenodd" d="m294.44 169.48c0.111 1.123 0.477 1.504 0 2.495-0.959 0.218-0.599 0.218-1.557 0-0.53-1.15-0.27-2.84 1.56-2.5z"></path> <path style="clip-rule:evenodd;fill-rule:evenodd" d="m284.79 172.91c-3.749-0.918 0.797-5.464 0.934-0.933-0.32 0.3-0.63 0.61-0.93 0.93z"></path> <path style="clip-rule:evenodd;fill-rule:evenodd" d="m310.02 170.1c1.245-0.307 0.94 0.933 2.183 0.623 0.345 1.694-0.524 2.176-0.936 3.116-1.04-0.84-1.9-2.02-1.24-3.74z"></path> <path style="clip-rule:evenodd;fill-rule:evenodd" d="m235.88 170.42c1.374-0.022 2.036 0.662 2.181 1.868-0.507 0.432-0.769 1.105-1.871 0.936-0.57-0.75-0.82-1.81-0.31-2.81z"></path> <path style="clip-rule:evenodd;fill-rule:evenodd" d="m252.07 170.42c0.848 0.192 1.458 0.619 1.869 1.245 0.038 1.077-0.629 1.45-1.869 1.247-0.61-0.62-0.19-1.78 0-2.49z"></path> <path style="clip-rule:evenodd;fill-rule:evenodd" d="m297.25 170.42c1.174 0.281 1.75 1.161 1.56 2.804h-1.868c-0.86-1.23-0.33-1.77 0.31-2.8z"></path> <path style="clip-rule:evenodd;fill-rule:evenodd" d="m288.21 170.73c1.762-0.167 2.508 1.299 1.56 3.116-0.778-0.157-1.042-0.829-1.871-0.936 0.01-0.83-0.12-1.78 0.31-2.18z"></path> <path style="clip-rule:evenodd;fill-rule:evenodd" d="m305.97 170.73h1.866c-0.111 0.53 0.243 0.589 0.624 0.624 0.081 0.913-0.705 0.958-0.624 1.868-1.27-0.29-2.46-1.25-1.87-2.49z"></path> <path style="fill:#FFFFFF;clip-rule:evenodd;fill-rule:evenodd" d="m216.25 174.15c-1.733 0.071-3.245-0.075-3.736-1.247 0.4-3.2 4.71-1.5 3.74 1.25z"></path> <path style="clip-rule:evenodd;fill-rule:evenodd" d="m238.99 171.04c1.431-0.056 2.894 1.082 1.871 2.492-1.39 0.59-2.58-0.89-1.87-2.49z"></path> <path style="clip-rule:evenodd;fill-rule:evenodd" d="m267.65 171.04c1.011-0.181 1.447 0.21 2.18 0.312v1.868c-1.7 0.25-2.43-0.48-2.18-2.18z"></path> <path style="clip-rule:evenodd;fill-rule:evenodd" d="m225.9 173.84c-0.844-0.17-0.772-0.251-1.868-0.624-0.38-3.16 3.35-1.46 1.87 0.62z"></path> <path style="clip-rule:evenodd;fill-rule:evenodd" d="m243.35 171.35h1.56c0.699 0.766 0.955 2.497-0.624 2.492-0.19-0.95-1.4-0.88-0.94-2.49z"></path> <path style="clip-rule:evenodd;fill-rule:evenodd" d="m272.02 171.35c0.958 0.218 0.598 0.218 1.557 0 0.14 1.126 0.799 1.506 0.31 2.492h-2.181c-0.73-1.22 0.37-1.16 0.31-2.49z"></path> <path style="clip-rule:evenodd;fill-rule:evenodd" d="m264.85 171.98c0.551 0.278 0.91 0.75 1.56 0.933-0.021 2.743-1.79 1.744-2.805 0.624 0.04-0.9 1.33-0.54 1.25-1.55z"></path> <path style="clip-rule:evenodd;fill-rule:evenodd" d="m276.68 171.98c0.791 0.353 0.905 1.379 0.936 2.489-0.532-0.013-0.807 0.233-0.936 0.624-1.6-0.65-1.26-2.41 0-3.11z"></path> <path style="clip-rule:evenodd;fill-rule:evenodd" d="m221.54 172.28h1.245c0.402 0.903 0.07 1.61-0.624 2.181-0.63-0.3-0.67-1.19-0.62-2.18z"></path> <path style="clip-rule:evenodd;fill-rule:evenodd" d="m231.82 172.28c0.709-0.426 1.171 0.804 1.247 0 0.474 0.563 1.12 0.956 0.933 2.181 1.466-0.319 1.199 1.085 2.805 0.624v1.871h-1.871c-0.449-0.487-0.654-1.215-0.934-1.871-1.188 0.152-1.987-0.086-2.492-0.624-0.18-1 0.21-1.44 0.31-2.18z"></path> <path style="clip-rule:evenodd;fill-rule:evenodd" d="m300.67 172.28c0.578 0.878 2.049 0.862 1.871 2.495-1.25 1.61-3.51-1.12-1.87-2.5z"></path> <path style="clip-rule:evenodd;fill-rule:evenodd" d="m278.86 172.6c1.252-0.108 1.514 0.771 2.183 1.245-0.241 0.276-0.335 0.702-0.312 1.245-0.441-0.025-0.883-0.051-0.934 0.314-0.88-0.31-1.7-1.8-0.94-2.79z"></path> <path style="clip-rule:evenodd;fill-rule:evenodd" d="m254.25 173.22h2.184c0.354 0.875 0.354 1.62 0 2.493-0.816-0.119-0.873-0.999-2.184-0.624v-1.87z"></path> <path style="clip-rule:evenodd;fill-rule:evenodd" d="m258.3 173.22c1.607-0.461 1.342 0.946 2.805 0.624-0.527 0.302-0.799 0.859-0.621 1.869-1.312 0.375-1.367-0.503-2.184-0.624v-1.87z"></path> <path style="clip-rule:evenodd;fill-rule:evenodd" d="m285.1 173.84v1.869c-0.72 0.628-2.388 0.319-2.804-0.31 0.11-1.44 1.6-2.11 2.8-1.56z"></path> <path style="clip-rule:evenodd;fill-rule:evenodd" d="m226.84 173.84h1.557c0.386 1.153 0.87 1.823 0 2.805-1.12 0.185-0.917-0.951-1.868-0.936-0.23-0.94 0.53-0.91 0.31-1.86z"></path> <path style="clip-rule:evenodd;fill-rule:evenodd" d="m249.27 174.46c0.241 1.177-0.38 1.491-0.312 2.495-1.598 0.248-1.801-0.897-2.181-1.871 0.35-1.04 1.63-1.78 2.49-0.63z"></path> <path style="clip-rule:evenodd;fill-rule:evenodd" d="m294.13 175.71c-4.01 2.38-1.18-5.1 0 0z"></path> <path style="clip-rule:evenodd;fill-rule:evenodd" d="m269.52 176.65c-0.72 0.936-1.326 0.185-2.489 0-0.54-2.95 2.94-2.51 2.49 0z"></path> <path style="clip-rule:evenodd;fill-rule:evenodd" d="m250.83 174.78c0.877 0.492 1.323-0.36 2.18 0.31 0.041 0.771 0.046 1.501-0.312 1.871-1.42 0.06-2-0.71-1.87-2.18z"></path> <path style="clip-rule:evenodd;fill-rule:evenodd" d="m304.41 174.78h1.868c0.122 0.814 0.999 0.87 0.624 2.181-0.802 0.948-1.496-0.021-1.871 0.31-0.77-0.77-0.9-1.27-0.62-2.49z"></path> <path style="clip-rule:evenodd;fill-rule:evenodd" d="m222.16 175.09h1.871c0.421 0.92 0.391 1.93-0.312 2.495-0.573-0.802-0.778-0.188-1.56-0.936v-1.55z"></path> <path style="clip-rule:evenodd;fill-rule:evenodd" d="m238.06 175.09c1.648-0.092 2.459 0.656 2.181 2.495h-1.871c-0.49-0.45-0.28-1.6-0.31-2.49z"></path> <path style="clip-rule:evenodd;fill-rule:evenodd" d="m287.28 177.89c-4.5-2.24 3.35-3.32 0 0z"></path> <path style="clip-rule:evenodd;fill-rule:evenodd" d="m243.66 178.52c-0.964 0.233-0.381-1.075-1.56-0.624v-1.868c2.02-1.11 2.78 1.3 1.56 2.49z"></path> <path style="clip-rule:evenodd;fill-rule:evenodd" d="m270.14 177.89v-1.557c0.729-0.102 1.171-0.492 2.18-0.312 0.99 1.98-0.66 3.06-2.18 1.87z"></path> <path style="clip-rule:evenodd;fill-rule:evenodd" d="m255.81 176.96c0.996 2.008-1.151 3.189-2.181 1.557 0-1.43 1.02-2.16 2.18-1.56z"></path> <path style="clip-rule:evenodd;fill-rule:evenodd" d="m257.37 176.65c1.625-0.173 2.662 0.245 2.492 1.868-1.021 0.507-1.189-0.071-2.492 0-0.35-0.99-0.03-0.71 0-1.87z"></path> <path style="clip-rule:evenodd;fill-rule:evenodd" d="m224.66 177.27c0.728 0.104 1.285 0.375 1.868 0.623v1.871c-0.966-1.103-0.616 0.221-2.183 0-0.178-0.654-0.771-0.89-0.621-1.871 0.62 0.11 0.97-0.06 0.93-0.62z"></path> <path style="clip-rule:evenodd;fill-rule:evenodd" d="m219.36 177.89h2.495c0.224 0.953-0.319 1.136-0.312 1.871h-2.184c-0.03-1.16-0.36-0.88-0.01-1.87z"></path> <path style="clip-rule:evenodd;fill-rule:evenodd" d="m245.53 177.89h2.494c0.979 1.603-1.006 2.736-2.494 1.871-0.03-1.16-0.35-0.88 0-1.87z"></path> <path style="fill:#FFFFFF;clip-rule:evenodd;fill-rule:evenodd" d="m28.073 195.96c-1.106 1.151-0.028 2.287 0.311 4.361-4.062 1.427-7.956-3.086-12.461-4.052-2.848-4.422-8.555-5.983-8.723-13.083 2.235-3.407 5.684-4.117 9.035-4.051 2.305 4.652 4.458 9.456 8.411 12.461-0.099 0.723 0.051 1.196 0.312 1.56 1.314 0.65 2.514 1.43 3.115 2.8z"></path> <path style="clip-rule:evenodd;fill-rule:evenodd" d="m53.619 25.547c5.188-0.665 7.314 4.505 5.919 8.412 4.533 7.71 11.271-1.036 17.447 4.361 2.989-0.944 6.257-2.967 9.969-3.116 3.046-0.121 5.528 1.999 8.413 3.116 3.31-1.199 5.437-1.774 8.1-3.738 0.488-2.316 1.881-3.726 3.115-5.296 1.975-0.214 3.297 2.055 3.739 3.427 2.038 6.337 0.526 16.224-0.935 22.743-2.459 2.421-2.207 7.554-5.296 9.347 0.032 4.082-3.312 4.787-4.05 8.101-3.836 2.502-5.096 6.122-8.723 8.411-2.059 1.299-4.985 1.278-6.854 2.804-2.137 1.743-2.605 4.837-4.984 6.854-3.371 7.287 4.866 16.995-2.181 20.25-1.086-0.918-1.638 0.233-2.182-0.623-1.179 0.38-1.411 1.703-3.115 1.557-1.121-0.125-1.175-1.316-1.87-1.866 2.078-2.079 5.539-2.771 7.166-5.299-1.14-4.003-1.364-8.562-1.246-13.084-3.135-1.95-7.57-1.434-10.593-4.984-1.888 0.896-2.69 2.118-4.362 1.868-0.38 0.97-0.958 1.743-0.935 3.116-1.483 1.946-3.808 6.381-4.362 10.593-0.16 1.218 0.241 2.379-0.311 3.427-1.775 3.356-9.337 8.935-9.971 2.492-2.753 0.542-5.768 0.933-6.23-1.869 4.324-0.104 8.492-2.035 12.773-1.868 1.447-2.667 1.935-6.177 2.804-9.348 0.461-1.682 1.446-2.858 1.246-4.672-0.295-2.681-3.432-5.493-2.18-8.723-4.253-0.87-7.9-4.021-10.905-8.724-1.935-3.028-4.968-5.528-5.608-7.477-1.314-4.007-0.226-8.29-0.934-13.085-5.46 0.41-9.073-2.724-8.411-7.477 0.285-2.058 3.418-4.235 2.181-6.23-1.912-1.121-4.177-0.785-4.362-4.05 3.712-0.673 5.148-2.489 8.724-3.427 0.643-3.966 1.663-7.068 4.984-8.101 1.186-0.369 2.538 0.242 3.739 0 1.729-0.35 4.358-2.205 7.165-1.246 1.659 0.562 2.586 2.154 3.126 3.427zm43.616 46.108c-0.465-0.945 0.734-1.102 0.624-0.934 1.663-2.533 6.543-9.055 6.854-12.773 3.418-5.645 5.315-14.606 3.115-22.12-4.331 2.449-7.126 3.731-11.839 5.296-3.874-0.953-6.537-3.6-10.593-2.804-1.364 0.269-2.527 1.448-4.361 1.246-1.942 3.231-4.827 2.089-6.854-0.311-4.398-0.659-8.228 2.24-11.839 0.935-2.011-0.728-1.885-2.335-3.427-3.739-0.899-0.819-3.264-0.703-3.116-3.116 0.534-0.608 0.541-1.743 0.936-2.492-0.869-0.274-1.033-1.251-1.246-2.181-1.586-0.132-0.431 2.477-2.182 2.181-1.01-1.69-2.349-3.05-2.492-5.608-1.682 0.188-4.332-0.593-4.672 0.936 0.924-0.174 1.383 1.699 0.622 2.181-2.339-0.05-3.062-1.714-4.361-2.804-1.304-0.002-1.759 0.664-3.116 1.246-0.132 1.066 0.933 0.937 1.246 1.558-0.432 0.502-0.643 1.226-1.246 1.558-0.584-0.351-0.662-1.208-1.246-1.558-0.259 4.414-3.274 6.072-5.919 8.1 0.087 2.093 3.192 1.169 3.427 3.115-2.046 1.614-4.11 4.788-3.739 7.789 0.454 0.514 1.668-0.374 1.869 0.935 0.08 0.925-1.232 1.538 0 1.87 1.535-0.043 2.73-1.402 3.738-2.804-0.907-2.486 1.453-6.129 3.74-3.738-3.116 14.477 0.01 29.798 13.708 32.401 0.7 1.688 3.976 0.801 4.05 3.116-2.25 1.842-3.097 10.687 1.558 9.347 0.227-3.67 5.562-4.782 5.919-9.347 1.438 0.191 1.792-0.7 3.116-0.624 0.699 3.974 2.143 7.203 4.361 9.659 4.613 0.976 8.544-3.949 7.478-9.659 7.308 0.451 9.953-4.111 15.895-6.857z"></path> <path style="clip-rule:evenodd;fill-rule:evenodd" d="m47.389 28.663c0.589 0.553 2.057 0.227 3.115 0.311v1.87c-1.058-0.085-2.525 0.241-3.115-0.312 0.194 1.207 0.257 1.283-0.312 2.181-1.449 0.203-1.761-0.731-1.558-2.181 0.552 0.586 0.91-0.37 1.558 0.312 0.429-0.403 0.308-1.355 0.312-2.181z"></path> <path style="fill:#FFFFFF;clip-rule:evenodd;fill-rule:evenodd" d="m266.41 113.09c0.976 0.37 0.923 1.775 2.181 1.866 3.311-3.07 9.005-1.812 11.525-2.489 0.839 0.821 0.791 2.53 2.495 2.489 0.979-0.527 0.385-1.447 0.309-2.489 4.141-0.036 6.75-2.398 7.789 1.557 4.33-0.634 2.981 11.236 1.247 15.577-0.786 0.137-1.911-1.917-2.18-0.312-0.036-2.025-1.453-2.188-2.181-2.804-0.897 1.088 0.084 3.656 1.557 2.492 0.345 0.588 0.396 1.471 0.624 2.181 1.136 0.278 1.657-0.548 2.18 0 0.614 0.484-1.508 3.159-1.247 2.495-1.849 4.705-2.561 11.683-6.232 15.577 0.071 0.55-0.313 1.557 0.624 1.244-0.035 0.764-1.029 0.066-0.933-0.312-2.432 5.461-7.246 8.539-11.217 12.461-1.309-0.04-0.699-2-2.492-1.557-1.272 0.773 0.826 2.305-0.624 3.426-2.783-0.548-5.078 0.235-9.657 0-0.512-0.837 0.424-1.598-0.312-2.49-0.532-0.065-0.807 0.53-0.936 0-1.196 0.508 0.038 1.828-0.624 2.49-6.115-0.5-16.57 0.902-20.562-0.624-0.928 0.786-0.737 0.221-2.181 0-1.947-0.294-4.578 0.651-5.294 0.624-0.877-0.03-1.876-0.847-2.804-0.934-4.853-0.451-15.217 0.429-22.121-0.936-0.685-0.134-0.55-0.674-1.245-0.936-1.295-0.481-4.208-0.37-5.608-0.621-0.258-0.048-2.824 0.446-4.051 0.312-1.248-0.137-2.079-0.791-3.113-0.936 0.44-0.951 0.162-2.73-2.181-2.492-0.543 0.471 0.74 1.937 0 2.804-5.099-1.871-4.894 2.033-9.972 0.933-0.208-1.531 1.123-0.283 1.56-1.557-0.163-0.771-0.761-1.11-1.248-1.557-0.507 0.816-1.237 0.173-1.871 1.248 0.049 1.095 1.537 0.745 1.248 2.18-3.598-0.126-6.166 0.419-9.346-0.314 0.781-1.187 1.272-2.905-0.312-3.736-1.002-0.066-0.759 1.11-1.245 1.557-0.076 1.323 1.318 1.171 1.245 2.494-2.021-0.264-8.469 0.183-12.462 0v-2.18c-1.466-0.325-1.566 0.715-2.182 1.244-1.87-0.205-2.726-1.427-3.115-3.115-4.164-1.861-6.759-5.289-8.1-9.97-0.639 1.146-0.786-0.672-1.246 0.934-2.058-1.481-0.937-3.677-1.247-5.918-1.67-0.426-1.909 0.583-2.804 0.934 0.208-3.636-2.707-4.148-3.739-6.542-0.317-2.028 1.692-2.513 0.623-4.36-1.36-0.426-0.663 1.207-1.869 0.933-1.517-1.941 0.73-3.463 0-5.294-0.593-0.585-0.783-0.035-1.558 0-0.615-1.15-1.595-1.937-1.558-3.742 0.369 0.36 1.102 0.355 1.87 0.314 0.461-0.266 0.669-0.786 0.623-1.559-0.306-0.421-0.831-0.622-1.246-0.936-0.276 0.659-1.329 0.542-1.246 1.559-1.057-3.136-2.942-7.925-1.246-11.837 2.6-1.075 2.741-0.649 5.296-0.936 0.964 0.073 1.21 0.866 1.87 1.244 1.28-0.068 1.857-0.842 2.803-1.244-0.25 1.08 0.464 1.196 0.312 2.18 1.807 0.203 1.769-0.517 2.804-1.559 1.489-0.138 1.367 1.333 2.492 1.559 0.821 0.094 0.804-0.651 0.934-1.244 7.104-0.046 9.727 0.653 17.136 0.933 0.577 0.461 0.466 1.612 1.558 1.557 0.983 0.051 0.606-1.263 1.247-1.557 2.673 0.512 5.081-0.31 7.789 0.312 3.861 0.891 11.592-0.316 18.69 0.312 8.413 0.745 17.588 1.354 25.547 0.623-0.021 0 0.02 0.619 0 0.624 12.605-1.285 28.802-0.694 44.242-1.247-0.685 0.653-0.066 1.384 0.309 1.868 0.735-0.4 0.581 0.043 1.557-0.312 0.049-0.771 0.062-1.512-0.621-1.557 0.02-0.61 3.42-0.54 3.75-0.89zm-80.07 45.18c-0.517-0.522-1.83-0.249-2.804-0.312-0.63 2.62 3.01 2.71 2.8 0.31zm-55.46-45.18c-0.147 1.185 0.133 1.942 0.936 2.181 0.08-0.649 1.368-0.086 1.558-0.624 0.139 1.002 0.677 1.607 1.557 1.869 0.289-1.223 0.68-1.159 0.312-2.492-0.489-0.031-1.08 0.04-0.935-0.624-1.001-0.273-0.427 1.026-1.246 0.936 0.03-1.64-1.02-1.5-2.19-1.26zm16.2 0.31v1.871c0.768 0.04 1.501 0.046 1.87-0.314-0.09-1.5-0.46-2.04-1.87-1.56zm9.66 1.87c0.814 0.119 0.87 0.999 2.181 0.621 0.357-0.872 0.357-1.62 0-2.492-1.12 0.18-2.07 0.1-2.18 1.87zm127.73 0.94c0.046-0.694 0.786 0.406 1.56 0-0.226-0.849 0.619-0.629 0.621-1.247-0.545-0.281-0.567-1.09-0.933-1.557-0.85-0.028-0.629 0.52-1.248 0-0.63 0.74-0.83 2.1 0 2.81zm5.61-0.63c-0.005-0.733 0.538-0.918 0.314-1.869-0.859-0.669-1.303 0.181-2.183-0.312-0.72 1.33 0.03 2.54 1.87 2.18zm-138.32-1.55c-0.07 0.24-0.008 0.613-0.311 0.623 0.042 1.202 1.216 1.275 2.493 1.245-0.094-0.611 0.421-0.616 0.622-0.936-0.55-1.38-1.09-1.05-2.8-0.93zm123.99 0.31h-1.871c-1.12 2.42 3.11 2.6 1.87 0zm1.87 0.93c0.756 0.888 1.306 1.503 2.183 1.557 0.482-0.979 0.198-1.739-0.314-2.492-1.21-0.27-1.35 0.52-1.87 0.93zm-134.28 2.49c0.859-0.405 0.622-1.684 0.312-2.489h-1.558c-0.52 1.08-0.2 2.53 1.25 2.49zm23.99 0h1.869c-0.227-0.953 0.537-0.915 0.312-1.868-0.885 0.054-0.608-1.052-1.871-0.621-0.18 0.75-0.44 1.42-0.31 2.49zm-30.22 0c0.368 0.152 0.706 0.335 0.935 0.624 0.996-0.248 1.767-0.725 1.868-1.868-0.242-0.068-0.361-0.262-0.311-0.624-1.68-0.22-2.82 0.09-2.49 1.87zm-6.54 1.25c2.59-4.43-4.93-1.55 0 0zm16.83 0c0.08-1.43 0.331-1.506 0-2.805-3.03-0.32-2.19 3.86 0 2.81zm107.79-1.25c0.634 0.094 0.829 0.624 1.248 0.936 0.172-0.76 1.204-0.661 0.933-1.868-0.243-0.068-0.362-0.261-0.312-0.624-1.39-0.25-1.99 0.29-1.87 1.55zm25.23-0.62c-0.464 1.607 0.743 1.544 0.936 2.494 0.969-0.486 2.125-0.785 1.869-2.494-1.1-0.99-1.45-0.18-2.81 0zm11.53 1.87c0.188-0.746 0.446-1.42 0.31-2.492-3.22-0.86-3.59 3.18-0.31 2.49zm-26.48-1.56c-0.454-0.482-1.595-0.274-2.492-0.314-0.35 2.96 2.35 2.54 2.49 0.31zm19.32 2.18c1.364-0.137 1.022 0.954 2.181 0.31 0.357-0.365 0.35-1.101 0.31-1.866-0.4-0.431-1.354-0.309-2.181-0.314 0.04 0.77 0.04 1.5-0.31 1.87zm-151.73 1.56c0.512-0.907 1.388-1.795 0.623-3.113h-1.558c-0.43 1.03-0.65 3.22 0.94 3.11zm42.06-2.49c0.102 0.729 0.375 1.288 0.623 1.869 1.684 0.335 1.768-0.931 2.181-1.869-1.234 0.403-0.639-1.026-1.871-0.621 0.05 0.56-0.3 0.72-0.93 0.62zm-16.51 1.56c0.978 1.045 4.075 0.743 3.116-1.56-1.76-0.2-3.05 0.07-3.12 1.56zm-19.63 0c0.51 1.374 1.208 1.549 2.492 1.557 0.359-0.872 0.359-1.62 0-2.492-1.37-0.24-2.04 0.23-2.49 0.93zm134.59-0.63c0.065 2.028 0.856 2.373 2.181 1.869v-1.869c-0.98-0.42-1.04-0.07-2.18 0zm-3.43 2.18c0.768 0.041 1.501 0.046 1.871-0.312v-1.56c-1.177-0.289-1.466-0.015-2.184-0.31 0 0.83-0.11 1.78 0.31 2.18zm-135.21 0.94c0.98-0.355 0.757 0.491 1.246 0.623 0.555-0.689 1.227-1.265 0.936-2.804-0.959 0.233-0.6-0.854-1.558-0.624-0.11 1.03-0.91 1.38-0.63 2.8zm17.45-1.25c0.257-0.88-0.44-0.809-0.312-1.56-0.645 0.188-2.046-0.383-2.18 0.314 0.16 1.05 1.33 2.19 2.49 1.25zm84.43 0.31c1.161-0.329 1.004 0.654 1.557 0.934 0.294-0.64 1.227-0.645 1.247-1.558-0.36-1.285-1.709-1.1-2.492-1.247 0 0.75-0.55 0.93-0.32 1.88zm-93.15 0.94c0.612-0.092 0.618 0.421 0.935 0.623 0.137-0.874 0.656-0.367 1.558-0.933v-1.557c-1.38-0.72-2.95-0.14-2.5 1.87zm12.77-0.31c-0.914-0.264 0.186-1.004 0-1.557-1.24-0.229-1.252-0.229-2.492 0-0.226 0.95 0.318 1.133 0.311 1.866 1.19-0.05 1.94-0.03 2.18-0.31zm122.13 1.24c0.132-0.597 0.111-1.342 0.933-1.245 0.335-1.166-0.771-0.888-0.623-1.871-2.37-0.4-1.99 2.23-0.31 3.11zm4.05-2.8c-0.862 0.928-0.31 1.848 0.309 2.802 0.733-0.276 3.17-2.079 0.624-3.116 0.06 1.2-0.25 0.12-0.93 0.32zm4.67 1.56c1.724 0.561 1.523 3.047 4.052 2.804-0.127-0.75 0.567-0.68 0.312-1.559-2.168-0.119-1.879-2.69-3.739-3.116 0.15 0.99-0.96 0.71-0.62 1.88zm-140.51 0.31c0.612-0.092 0.619 0.421 0.935 0.623 0.388-0.983 0.906-0.058 1.558-0.933 0.128-0.751-0.569-0.68-0.311-1.557h-1.87c0.01 0.73-0.53 0.92-0.31 1.87zm18.38 1.87c1.558 0.07 2.09-1.359 1.558-2.493h-1.871c-0.22 1.19-0.21 1.49 0.31 2.49zm81.94 0.31c0.317-0.988 1.356-1.257 0.621-2.489h-2.18c0.18 1.16 0.63 2.07 1.56 2.49zm-109.98 0.31c1.675 1.729 4.08-1.617 1.557-2.494-0.4 0.95-1.61 1.09-1.56 2.49zm45.18-1.87c0.032 0.799 0.177 1.486 0.623 1.871 0.203-0.933 0.665 0.297 1.245 0-0.003-0.831 0.986-0.68 0.936-1.559-0.03-0.489-0.796-0.244-0.624-0.936-1.32-0.37-1.38 0.51-2.19 0.63zm83.8 1.25c0.885 0.324 1.298 0.324 2.183 0 0.43-2.25-2.66-2.47-2.18 0zm-107.48 0.93c1.012 0.183 1.449-0.211 2.181-0.31 0.219-1.569-0.646-2.054-2.181-1.871-0.32 0.88-0.32 1.3 0 2.18zm13.4 0c0.958-0.23 0.599 0.857 1.56 0.624 0.094-0.943 0.963-1.113 0.621-2.492-1.25-0.94-2.67 0.1-2.18 1.87zm86.29 0.63c0.948-0.193 1.595-0.69 1.56-1.869-0.763-0.276-1.144-0.936-2.492-0.623-0.19 1.33 0.28 2 0.93 2.49zm-123.37 0.93c0.203-1.105 1.174-1.443 0.624-2.492-0.994 0.266-1.183-0.271-1.558-0.624-0.95 0.87-1.54 3.41 0.94 3.11zm144.87-0.62h1.866c-0.223-0.951 0.319-1.133 0.314-1.868-0.583-0.249-1.141-0.522-1.871-0.624-0.93 0.32-0.61 1.69-0.31 2.49zm-138.64-1.25c-0.184 1.116 0.361 1.506 0.623 2.181 1.418-0.035 2.418-0.489 2.18-2.181-1.23-0.27-1.56-0.27-2.8 0zm10.6 1.56c1.104 0.274 0.767 0.038 1.87 0.312 0.179-0.652 0.772-0.891 0.623-1.869-1.42-0.84-3.4 0.07-2.49 1.56zm-2.81 1.25c0.075-0.804 0.535 0.426 1.246 0 2.44-3.37-3.86-3.14-1.25 0zm135.21-2.5c-0.051 0.986-0.011 1.881 0.623 2.181 0.046-0.695 0.784 0.405 1.557 0 0.036-0.381 0.092-0.735 0.624-0.621-0.104-0.728-0.375-1.288-0.624-1.869-0.82 0-1.78-0.12-2.18 0.31zm-22.12 1.56c-0.226 0.953 0.537 0.915 0.312 1.868 1.131-0.162 1.935 0.022 2.492-1.247-0.64-0.98-1.73-1.7-2.8-0.62zm6.55 0.31c0.572 0.467 0.775 1.298 1.557 1.557 0.902-0.446 1.488-1.212 1.557-2.492-1.49-0.14-2.72-0.02-3.12 0.93zm-16.2 1.87h1.557c-0.068-0.588 0.353-0.687 0.312-1.244-0.189-0.847-1.63-0.446-2.181-0.936-0.19 1.01 0.2 1.45 0.31 2.18zm21.18-1.24c0.01 1.131 0.915 1.369 2.181 1.244v-1.868c-0.78-0.29-2.14-0.6-2.18 0.63zm-128.98 1.87c1.894 0.54 2.402-1.803 1.246-2.492-0.075 0.801-0.536-0.429-1.246 0-0.36 0.87-0.36 1.61 0 2.49zm19.01-0.32c0.058-0.462 0.753-0.284 1.245-0.312-0.224-0.953 0.537-0.915 0.313-1.868-0.745 0.188-2.261-0.391-2.493 0.31 0.65 0.29 0.11 1.76 0.94 1.87zm24.3 0.32c1.262 0.122 2.17-0.114 2.18-1.245-0.251-0.791-1.282-0.796-1.871-1.247-0.19 0.74-0.45 1.41-0.31 2.49zm-52.34 0c0.59-0.068 0.688 0.35 1.246 0.312 0.876-0.39 1.03-1.277 0.623-2.18h-1.869v1.87zm22.12 0.31c1.012 0.181 1.449-0.213 2.18-0.312v-1.56c-0.731-0.099-1.168-0.491-2.18-0.309-0.33 0.88-0.33 1.29 0 2.18zm19.31 0c2.3 0.031 1.521 0.573 3.426 0 0.446-1.379-1.053-0.816-0.934-1.871h-2.181c0.22 0.95-0.54 0.91-0.32 1.87zm99.69-1.25c-0.411 0.535 0.461 2.434 1.871 2.181 0.178-0.649 0.771-0.888 0.624-1.869-0.6-0.36-1.73-1.02-2.49-0.31zm-138.01 0.31c-0.424 1.364-0.038 1.603 0.312 2.805 1.104-0.104 0.766-0.857 1.87-0.312-0.068-1.005 0.55-1.319 0.312-2.493-0.99-0.49-1.37-0.12-2.49-0.01zm9.04 2.81c0.98-0.357 0.758 0.489 1.247 0.621 0.843-0.645 1.657-3.022-0.312-3.113-0.72 0.88-1.5 1-0.94 2.49zm22.11-2.18c-0.355 1.291 0.656 1.215 0.623 2.181h1.56c0.248-0.581 0.52-1.142 0.621-1.869-0.38-0.035-0.735-0.094-0.621-0.623-1.08-0.26-1.19 0.46-2.18 0.31zm-15.26 0.62c0.463 0.264 0.451 1.004 0.624 1.56h1.558c0.9-1.74-1.15-2.67-2.18-1.56zm126.49 1.56c0.769 0.04 1.501 0.048 1.868-0.312 0.227-0.954-0.319-1.137-0.309-1.869h-1.871c-0.2 1.2-0.26 1.28 0.31 2.18zm3.11-1.87v1.558c1.176 0.324 1.511 0.811 2.489 0 0.27-1.97-1.1-2.01-2.49-1.56zm-90.97 3.43c1.352 0.309 1.729-0.351 2.495-0.624 0.147-0.981-0.443-1.22-0.624-1.871-2.13-0.58-2.56 1.15-1.87 2.49zm71.35 0c0.294-0.853 1.693-0.594 1.247-2.184-0.4-0.429-1.354-0.307-2.181-0.312-0.72 1.22 0.36 1.68 0.93 2.49zm4.36-1.56c0.016 1.229 0.64 1.854 1.871 1.868 0.006-0.618 0.85-0.396 0.624-1.247-0.23-0.81-1.75-1.28-2.49-0.62zm19.62 2.49c1.207 0.269 1.349-0.522 1.871-0.933-0.677 0.05-0.142-1.105-0.314-1.56-0.88 0.327-2.135-0.515-2.18 0 0.36 0.58 0.14 1.42 0.62 2.49zm-135.83-1.25c0.362 0.053 0.337 0.494 0.311 0.936 0.713 0.2 1.88 0.618 2.492 0 0.59-2.22-2.33-2.3-2.8-0.94zm31.15 0.62c0.729 0.102 0.304 1.359 0.936 1.557 0.129-0.529 0.403 0.066 0.936 0-0.119-0.948 1.131-0.527 1.245-1.244 0.068-0.589-0.353-0.688-0.312-1.245-0.766 0.04-1.501 0.046-1.868-0.314-0.09 0.62-0.62 0.82-0.94 1.23zm93.47-0.93c0.101 0.72-0.051 1.196-0.31 1.557 1.22 0.353 1.69 1.356 2.804 0.312 0.178-1.528-0.993-1.706-1.871-2.183 0.02 0.58-0.24 0.66-0.62 0.31zm-135.21 2.49h1.558c-0.082-0.91 0.704-0.955 0.623-1.865-0.815-0.122-0.87-0.999-2.18-0.624-0.11 1.11-0.48 1.49 0 2.48zm4.05-1.86c0.226 0.95-0.537 0.915-0.312 1.865 0.98-0.354 0.757 0.492 1.246 0.624 0.92-0.775 1.554-1.549 0.934-3.113h-0.934c0.03 0.56-0.32 0.73-0.94 0.63zm134.9 0.3c-0.474 0.977 0.086 1.722 0.936 2.181 0.046-0.575 1.055-0.19 1.245-0.624 0.188-1.225-0.459-1.617-0.936-2.18 0.31 0.94-0.7 0.55-1.25 0.62zm-145.18 2.81c1.333 1.541 3.487-0.3 2.492-2.492-2.04-0.38-2.49 0.82-2.49 2.49zm39.56-1.87c-0.146 0.981 0.446 1.217 0.624 1.869 0.88-0.492 1.323 0.359 2.181-0.31 0.348-1.8-1.268-1.643-2.181-2.183-0.03 0.38-0.09 0.73-0.62 0.62zm-8.41 0.62c-0.472 1.76 1.422 2.322 2.492 1.56-0.016-0.429 0.147-0.685 0.31-0.936-0.477-0.35-0.766-0.893-1.245-1.245-0.05 0.68-0.78 0.67-1.56 0.62zm81.63 1.25c0.948 0.102 1.344 0.893 2.489 0 0.041-0.769 0.049-1.501-0.309-1.869-0.959 0.219-0.599 0.219-1.56 0 0.05 0.88-1.05 0.61-0.62 1.87zm-94.71 0.93c0.674 0.466 0.725 1.559 1.868 1.557 0-1.04 1.014-1.062 0.936-2.181-0.313-0.413-0.515-0.94-0.936-1.245-0.075 0.338-0.512 0.746-0.622 0.31-0.018-0.188-0.047-0.368-0.312-0.31-0.01 0.92-0.82 1.06-0.94 1.86zm5.92-0.31c0.213 0.928 1.241 1.045 2.493 0.934 0.224-1.471-0.648-1.844-1.247-2.49-0.04 0.9-1.33 0.55-1.24 1.56zm-10.91 0.63c0.723 0.21 0.833 1.034 1.557 1.245 0.403-0.845 1.386-1.108 1.247-2.492-0.9-1.48-2.36 0.36-2.81 1.25zm124.62-0.63v1.869c1.242 0.17 0.938 0.17 2.181 0 0.106-1.352-0.236-2.257-1.248-2.492 0.04 0.56-0.31 0.73-0.93 0.62zm10.59 0.63c-0.023 1.268 1.15 1.339 2.489 1.245 0.351-0.981 0.03-0.705 0-1.869-0.725-0.102-1.285-0.375-1.866-0.623 0.39 1.01-1 0.24-0.62 1.25zm-94.71-0.32c0.032 0.798 0.177 1.482 0.623 1.868 0.411-0.297 1.024-0.14 1.869 0 0.18-0.651 0.773-0.888 0.623-1.868-0.61 0.094-0.616-0.421-0.936-0.624-0.64 0.9-0.79-0.26-2.17 0.62zm13.71 0c0.028 1.219 0.381 2.111 1.869 1.868 1.14-1.36-0.01-2.51-1.87-1.87zm-64.18 0.62c-0.149 0.98 0.444 1.219 0.624 1.871 1.808 0.248 2.846-0.27 2.804-1.871-1.38-1.04-1.5 0.12-3.42 0zm4.99 1.88c0.776-0.049 0.965 0.489 1.558 0.623 0.402-1.055 1.745-1.166 1.246-3.115-1.92-0.15-2.54 1-2.81 2.5zm20.25-1.88c-0.124 1.268 0.114 2.17 1.245 2.18 0.726-0.312 1.004-1.069 0.936-2.18-0.981 0.359-0.758-0.487-1.245-0.621 0.03 0.56-0.32 0.73-0.94 0.62zm91.9 0c0.035 0.801 0.177 1.485 0.623 1.871 0.175-0.902 0.487 0.477 0.936 0.309 0.03-1.006 1.412-0.664 0.936-2.18-0.97-0.79-1.46-0.46-2.5 0zm21.19-0.3c-0.314 0.826-0.325 1.587 0.312 2.181 1.65 1.3 3.39-3.51-0.31-2.18zm-97.83 0.3c-0.226 0.953 0.319 1.136 0.312 1.871 0.829-0.005 1.776 0.116 2.18-0.312v-1.559c-1.26-0.25-1.07-0.04-2.49 0zm85.06 0.32c-0.312 0-0.37-0.254-0.624-0.314-0.248 1.082 0.467 1.199 0.314 2.18 0.958-0.218 0.599-0.218 1.557 0-0.008-0.729 0.538-0.915 0.31-1.865-0.459-0.162-0.783-0.462-1.245-0.624-0.08 0.24-0.02 0.61-0.32 0.62zm-108.42 3.11c0.761 0.654 0.665 0.446 1.87 0.312 0.048-0.367-0.054-0.885 0.311-0.936 0.07 0.243 0.009 0.616 0.312 0.624 0.376-1.309-0.503-1.364-0.623-2.181h-1.246c0.03 0.98-0.98 0.9-0.62 2.19zm-3.43 0.63c1.716 0.264 2.587-0.319 2.492-1.871-0.454-0.481-1.595-0.273-2.492-0.309v2.18zm128.67-0.32c0.967-0.104 1.488 0.723 2.181 0 0.243-1.488-0.649-1.843-1.871-1.868 0.01 0.74-0.54 0.92-0.31 1.87zm-120.88 0.94c1.017-0.396 0.66-0.448 1.557-0.624v-1.871h-2.181c-0.27 1.3 0.6 1.47 0.62 2.49zm123.68 0c0.4 0.429 1.354 0.31 2.18 0.31 0.604-1.098-0.146-1.392-0.312-2.49-1.71-0.37-2.02 0.68-1.87 2.18zm-112.15 0c1.105 0.662 1.44 0.472 2.492 0 0.224-0.953-0.319-1.136-0.312-1.871-1.63-0.27-2.43 0.27-2.18 1.87zm22.74 0c0.327 1.506 2.546 1.506 2.492-0.312-0.246-0.689-1.09-0.778-1.557-1.245 0.34 1.16-1.16 0.5-0.93 1.56zm80.38 1.25c0.669-0.266 0.723-1.148 0.624-2.183h-1.871c-0.12 1.26 0.12 2.17 1.25 2.18zm3.11-0.32c0.707 0.151 1.589 0.618 2.18 0 0.254-1.603-0.793-1.904-2.18-1.869v1.87zm-134.9 0.63c0.367 0.36 1.102 0.353 1.868 0.312 0.459-0.454 0.459-2.041 0-2.493-1.47-0.13-2.02 0.67-1.87 2.18zm4.06 0c0.77 1.009 1.472 0.857 2.493 0.312-0.08-2.315-1.234-2.023-1.87-2.493 0.05 0.98-0.83 1.04-0.62 2.18zm29.9-1.25c0.229 0.289 0.351 0.912 0.934 1.56 0.046-0.695 0.786 0.402 1.56 0-0.008-0.733 0.534-0.918 0.312-1.869-1-0.61-2.23-0.92-2.8 0.31zm9.04-0.31c0.071 1.752 0.683 1.763 1.866 1.869-0.146-0.981 0.959-0.705 0.624-1.869-1.26 0.431-0.983-0.677-1.868-0.624-0.04 0.38-0.09 0.73-0.62 0.62zm71.96 0.93c0.878 0.061 0.854 1.019 1.56 1.247 0.294-0.639 1.225-0.645 1.245-1.557-0.659-0.381-0.902-1.174-1.866-1.248-0.27 0.56-0.75 0.91-0.93 1.56zm-95.33 0.94c0.416 0.443 1.766 0.443 2.181 0v-1.56c-1.07-0.84-2.64-0.1-2.18 1.56zm-8.72 0.93c1.108-0.487 0.188 1.057 0.936 0.933 0.081-0.484 0.683-0.216 0.934 0 0.871-0.895 0.777-2.862-0.312-3.428-0.35 1.26-1.32 0.74-1.56 2.5zm12.15 0.63c0.13-0.532 0.403 0.063 0.936 0-0.051-0.988 0.827-1.042 0.624-2.181-0.37-0.359-1.103-0.354-1.871-0.313-0.35 0.84-0.24 1.78 0.31 2.49zm102.81 0.31c0.961 0.051 0.525 0.499 1.866 0.624 0.332-1.271 0.051-1.539 0.314-3.114-1.39-0.85-3.09 0.34-2.18 2.49zm-118.39-1.87c0.132 1.873 0.678 1.771 2.181 1.868 0.134-0.594 0.672-0.781 0.624-1.557-0.658-0.279-0.92-0.948-1.87-0.934 0.05 0.56-0.3 0.73-0.93 0.62zm98.14 1.87c1.306 0.267 1.696-0.381 2.18-0.933-0.41-2.28-3.5-1.53-2.18 0.93zm-90.66 0.31h2.182c-0.128-0.75 0.569-0.677 0.311-1.557-1.1-0.79-3.04-0.27-2.49 1.56zm121.5 0.93c0.102-1.141-0.347-1.731-0.623-2.492-2.35-0.3-1.79 3.27 0.62 2.49zm-90.04 0c1.562 0.157 1.528 0.421 2.804-0.312 0.2-2.25-3.41-2.56-2.8 0.31zm91.29-1.24c-0.135 1.379 0.52 1.973 1.56 2.181 0.132-0.594 0.669-0.781 0.621-1.557-0.419-0.515-0.796-1.073-1.56-1.248-0.04 0.38-0.09 0.74-0.62 0.63zm-105.3 2.49c0.551 0.142 1.796 0.604 2.805 0 0.354-1.293-0.657-1.218-0.624-2.184h-2.181c-0.01 0.73-0.01 1.45-0.01 2.18zm96.57-0.62c0.897 0.14 0.974 1.101 2.181 0.933 0.36-0.872 0.36-1.617 0-2.492-1.64-0.4-1.75 0.73-2.18 1.56zm-122.43-0.63c-0.368 1.334 0.022 1.271 0.312 2.492 2.06 0.21 3.13-3.47-0.31-2.49zm11.52 1.87c1.401 0.154 2.17-0.322 1.868-1.869-0.4-0.431-1.352-0.309-2.18-0.312-0.25 1.08 0.47 1.2 0.31 2.18zm19.94-1.87c-0.228 0.954 0.538 0.918 0.31 1.869 1.242 0.17 0.938 0.17 2.181 0 0.23-1.98-1.1-2.28-2.49-1.87zm81.94 2.18c0.289-1.222 0.68-1.156 0.314-2.492-3.87-0.13-1.76 2.9-0.31 2.49zm-99.07 0.32c0.961-0.233 0.378 1.073 1.56 0.621 2.4-2.31-1.97-4.72-1.56-0.62zm-17.76 1.24c2.687 0.472 2.525-2.896 0.624-3.113-0.95 0.29-0.55 1.94-0.62 3.11zm40.19-2.8c-0.127 0.75 0.568 0.679 0.312 1.559h2.183c0.223-0.95-0.319-1.136-0.314-1.868-0.83 0-1.78-0.12-2.18 0.31zm-33.96 2.49c0.897 0.568 0.973 0.505 2.18 0.31v-1.557c-0.369-0.36-1.102-0.353-1.87-0.312 0.13 0.75-0.57 0.68-0.31 1.56zm5.61 0.94c0.72-0.319 0.646-1.433 0.624-2.492h-1.87c-0.09 1.33-0.02 2.51 1.25 2.49zm36.76 0.31h2.181c-0.005-0.732 0.538-0.918 0.312-1.868-1.6-0.81-3.47-0.01-2.49 1.87zm81.62 0.62c0.183-0.651 0.773-0.89 0.624-1.869-0.244-0.07-0.36-0.264-0.31-0.623h-1.56c-0.47 1.04 0.21 2.11 1.25 2.49zm4.37 0c0.357-0.875 0.357-1.62 0-2.492h-1.245c-0.64 1.19-0.02 2.34 1.25 2.49zm-110.29 0.94c1.139-0.106 1.425-1.07 1.866-1.871-1.156 0.119-0.812-1.263-2.181-0.934-0.79 0.84-0.74 2.27 0.31 2.8zm-22.12-1.56c-0.172 1.139-0.376 1.671 0.622 2.181 0.227-0.33 0.938-0.036 1.558-0.621v-1.56c-0.98-0.43-1.04-0.07-2.18 0zm10.9 2.8c1.204 0.397 1.229-0.262 2.182-0.312 0.152-1.503-0.174-2.525-1.558-2.492-0.5 1.09-1.08 1.41-0.62 2.8zm14.96-0.31c1.699 0.243 2.688-0.221 2.804-1.557-0.243-0.071-0.362-0.264-0.312-0.624-1.64-1.18-3.73 0.41-2.49 2.18zm10.59 0c1.064 0.568 1.496-0.04 2.805 0 0.98-3.32-3.74-3.19-2.81 0zm-21.81 0.62c0.62 0.005 0.397 0.85 1.248 0.624 0.04-1.296 0.202-0.063 0.623 0 0.322-0.822 0.37-1.912 0.31-3.116h-1.557c-0.01 1.03-0.88 1.2-0.62 2.5zm88.17-0.62c0.016-0.081 2.019 0.824 2.49-0.312 0.051-0.773-0.487-0.964-0.624-1.557-0.983-0.155-1.101 0.561-2.181 0.312 0.21 0.98-0.04 1.27 0.31 1.56zm8.41-1.56c-0.081 0.913 0.705 0.956 0.624 1.869 0.98-0.351 0.704-0.028 1.868 0 0.608-0.853 0.608-1.329 0-2.181-1.33 0.24-1.27-0.04-2.49 0.31zm-108.42 0.31c0.031 1.113 0.145 2.14 0.935 2.495 0.066-0.378 0.346-0.193 0.623 0 0.737-0.776 0.915-2.731-0.623-2.805-0.05 0.36-0.49 0.33-0.94 0.3zm28.04 1.25c0.85 2.454 4.103 0.314 2.181-1.557-0.775 0.033-0.964 0.583-1.557 0 0.46 1.18-0.85 0.6-0.62 1.56zm91.6 0.93c0.36-0.873 0.36-1.618 0-2.49h-1.866c-0.19 2.13 0.61 2.45 1.87 2.49zm-79.45 0c1.045 0.44 3.223 0.253 2.495-1.557-0.748-0.188-1.423-0.446-2.495-0.31-0.02 1.17-0.34 0.89 0.01 1.87zm84.12 0c0.41 0.319 1.148 0.307 1.557 0.623 0.278-0.656 0.948-0.92 0.936-1.868-0.591-0.345-1.474-0.398-2.181-0.621 0 0.74-0.55 0.92-0.32 1.87zm-120.57 1.25h1.558c0.373-0.857 0.676-1.301 0.311-2.181h-2.18c-0.18 1.01 0.21 1.45 0.31 2.18zm41.75-1.56c-0.129 0.75 0.568 0.677 0.31 1.557 1.304-0.071 1.471 0.507 2.492 0 0.226-0.953-0.316-1.136-0.312-1.868-0.9 0.04-2.04-0.17-2.49 0.31zm76.64 3.12c0.273-0.761 0.933-1.141 0.623-2.489-1.095-0.376-1.023-0.457-1.871-0.624-1.48 1.23 0.24 2.54 1.25 3.11zm-114.96 0.93h1.558c0.359-0.875 0.359-1.623 0-2.495h-1.558c0.23 1.15-0.77 1.74 0 2.5zm14.33 0.31c2.176 0.087 2.961-1.182 1.868-2.804-1.89-0.25-2.59 1.37-1.87 2.8zm-10.59 0.94c1.488 0.241 1.842-0.651 1.869-1.868-0.299-0.532-0.979-0.685-1.558-0.936-0.35 1.22-1.36 1.7-0.31 2.81zm91.9-0.31c0.416 0.443 1.768 0.443 2.184 0 0.223-0.953-0.32-1.136-0.314-1.871-1.54-0.3-2.02 0.47-1.87 1.87zm13.4 0.93c-0.013-0.426 0.146-0.685 0.312-0.933-1.151-0.732-0.966-1.792-2.492-1.557-0.94 1.78 0.47 3.28 2.18 2.49zm-20.56 1.25c0.429-0.4 0.307-1.354 0.312-2.181h-2.181c-0.03 1.38 0.26 2.43 1.87 2.18z"></path> <path style="clip-rule:evenodd;fill-rule:evenodd" d="m3.149 163.56c1.976-0.415 2.575 0.233 4.361-0.936 4.015 0.231 9.316 0.302 13.709 0.312 26.772 0.068 64.578-0.162 96.58-0.934 7.07 1.055 10.621 0.287 19.315-0.314-0.419-8.447-3.33-13.214-6.542-19.314-1.752-3.326-2.767-6.875-4.05-10.28-1.27-3.37-3.036-6.679-3.116-11.528-2.345-0.489-1.941 0.278-3.115 1.247-11.267-0.286-16.38 0.102-23.678-0.312-3.393-0.19-8.694 0.515-12.151-0.621-4.348 0.988-6.891 0.329-10.903 0-6.772 0.68-34.913-0.386-42.371-0.624-2-0.065-5.689 1.41-7.165 0-1.062 0.127 0.471 1.709-0.312 1.557-3.215-0.34-6.356-1.201-9.035-2.804-1.14-24.272 0.701-55.767 0.623-80.379-0.045-11.28 0.482-21.306 0.302-33.354 2.092-1.128 3.523-2.917 4.674-4.984 4.084 0.324 8.535-0.032 13.085 0 3.2 0.02 6.914-0.008 8.723 0 0.958 0.002 1.846 0.64 2.492 0.622 1.011-0.028 1.895-0.955 2.805-0.935 0.805 0.017 1.355 0.594 2.492 0.623 9.213 0.23 22.254-0.716 33.335 0.624 10.425-1.178 23.875-0.916 29.908-0.312 3.045-1.081 4.891-0.351 7.167 0 0.581 5.156 0.025 12.529 0.934 17.758-0.258 0.78-0.853 1.223-0.934 2.182-0.037 10.751 0.502 22.66 0.623 34.893 0.165 16.697-3.038 34.609 4.05 47.042 4.285 3.423 5.53-3.273 7.165-6.231 2.689-1.361 4.323-3.777 6.542-5.607 5.736-0.709 11.634-1.582 18.381 0 1.718 0.402 3.47 2.383 5.297 2.493 3.81 0.226 5.944-4.517 9.347-3.428 3.275-5.329 10.065-7.63 14.33-10.281 13.06-2.78 26.281 0.639 33.648 8.101 0.964 0.516 4.985-1.582 6.542-1.558 0.988 0.015 1.866 0.937 2.804 0.935 1.942-0.003 3.702-1.309 5.608-1.246 7.276 0.242 14.705 3.639 18.69 8.412 9.274-7.468 18.817-12.94 33.025-10.905 1.841 1.521 2.937 1.86 5.608 2.493 3.076 3.447 6.688 6.184 5.918 12.15-0.53 4.118-4.249 6.765-4.673 9.969 0.735 0.571 1.965-0.307 3.116 0.312 1.166 2.157 2.294 4.351 3.428 6.541-1.395 10.653-5.654 18.442-8.101 28.041-2.73 2.773-4.323 6.686-6.232 10.281-1.638 2.021-4.794 4.102-4.36 7.165 2.497 2.758 6.438 1.711 8.725 3.115 3.749-1.525 7.403 0.508 10.901 0.934 6.328 0.775 12.195-0.649 19.938 0 1.08 1.105 0.852 3.514 2.804 3.739 0.059 0.267-0.121 0.294-0.309 0.312-0.807 1.538-0.842 3.425-1.871 5.296-4.438 8.062-17.626 6.382-27.415 6.854-5.099 0.246-10.276 0.821-14.333 0-6.7 1.176-11.384 0.37-15.887 1.247-0.137 0.025-0.664-0.766-0.936-0.624-0.116 0.062-0.134 0.91-0.312 0.934-0.512 0.07-1.364-0.345-2.181-0.31-4.021 0.165-14.456 1.268-20.252 1.868-4.435-0.154-7.074 0.216-11.526 0-1.935-0.094-3.108-0.644-5.917 0-5.596-0.656-11.201-2.116-15.269-1.559-6.115 0.842-13.655-0.951-17.445 1.871-2.665 3.359-6.08 5.966-8.101 9.969-6.004 4.349-14.025 8.418-20.562 9.66-19.296-1.775-41.515 0.477-57.635-1.248-2.828 0.989-7.083 0.67-11.216 0-7.453 0.9-20.468 0.351-30.531 0.31-9.822-0.038-13.359-0.089-19.005-0.621-6.65 1.858-12.927-0.697-15.888 0.621-5.618-0.669-13.942-5.593-18.693-10.59-0.762-0.802-1.238-2.317-2.18-3.428-3.874-4.562-6.266-9.495-5.92-18.693 0.11-2.76 1.854-4.05 3.122-6.54zm259.52-49.53c0.683 0.045 0.67 0.785 0.621 1.557-0.976 0.354-0.821-0.089-1.557 0.312-0.375-0.484-0.993-1.215-0.309-1.868-15.44 0.553-31.637-0.038-44.242 1.247 0.02-0.005-0.021-0.624 0-0.624-7.959 0.73-17.134 0.122-25.547-0.623-7.099-0.629-14.829 0.578-18.69-0.312-2.708-0.621-5.116 0.2-7.789-0.312-0.641 0.294-0.264 1.607-1.247 1.557-1.091 0.056-0.981-1.096-1.558-1.557-7.409-0.279-10.031-0.979-17.136-0.933-0.13 0.593-0.113 1.338-0.934 1.244-1.125-0.226-1.003-1.696-2.492-1.559-1.036 1.042-0.998 1.762-2.804 1.559 0.152-0.983-0.562-1.1-0.312-2.18-0.945 0.402-1.522 1.176-2.803 1.244-0.659-0.378-0.905-1.171-1.87-1.244-2.556 0.286-2.696-0.14-5.296 0.936-1.696 3.912 0.189 8.701 1.246 11.837-0.083-1.017 0.97-0.899 1.246-1.559 0.416 0.313 0.94 0.515 1.246 0.936 0.047 0.772-0.161 1.293-0.623 1.559-0.768 0.041-1.501 0.046-1.87-0.314-0.037 1.806 0.943 2.592 1.558 3.742 0.774-0.035 0.964-0.585 1.558 0 0.73 1.831-1.517 3.353 0 5.294 1.206 0.274 0.508-1.358 1.869-0.933 1.07 1.848-0.939 2.332-0.623 4.36 1.032 2.394 3.946 2.906 3.739 6.542 0.895-0.351 1.133-1.359 2.804-0.934 0.31 2.241-0.811 4.437 1.247 5.918 0.46-1.605 0.607 0.213 1.246-0.934 1.341 4.681 3.936 8.108 8.1 9.97 0.389 1.688 1.245 2.91 3.115 3.115 0.615-0.529 0.715-1.569 2.182-1.244v2.18c3.993 0.183 10.44-0.264 12.462 0 0.073-1.323-1.321-1.171-1.245-2.494 0.486-0.446 0.243-1.623 1.245-1.557 1.584 0.831 1.093 2.55 0.312 3.736 3.18 0.733 5.748 0.188 9.346 0.314 0.289-1.435-1.199-1.085-1.248-2.18 0.634-1.075 1.364-0.432 1.871-1.248 0.487 0.446 1.085 0.786 1.248 1.557-0.437 1.273-1.768 0.025-1.56 1.557 5.078 1.101 4.873-2.804 9.972-0.933 0.74-0.867-0.543-2.333 0-2.804 2.343-0.238 2.621 1.541 2.181 2.492 1.034 0.145 1.865 0.799 3.113 0.936 1.227 0.134 3.793-0.36 4.051-0.312 1.4 0.251 4.313 0.14 5.608 0.621 0.695 0.262 0.561 0.802 1.245 0.936 6.904 1.364 17.269 0.484 22.121 0.936 0.928 0.087 1.927 0.903 2.804 0.934 0.716 0.027 3.347-0.918 5.294-0.624 1.443 0.221 1.253 0.786 2.181 0 3.991 1.526 14.446 0.124 20.562 0.624 0.662-0.662-0.572-1.982 0.624-2.49 0.129 0.53 0.403-0.065 0.936 0 0.735 0.893-0.2 1.653 0.312 2.49 4.579 0.235 6.874-0.548 9.657 0 1.45-1.121-0.648-2.652 0.624-3.426 1.793-0.443 1.184 1.517 2.492 1.557 3.971-3.922 8.785-7 11.217-12.461-0.097 0.378 0.897 1.075 0.933 0.312-0.938 0.312-0.553-0.694-0.624-1.244 3.672-3.895 4.384-10.872 6.232-15.577-0.261 0.664 1.861-2.011 1.247-2.495-0.522-0.548-1.044 0.278-2.18 0-0.229-0.71-0.279-1.593-0.624-2.181-1.473 1.164-2.454-1.404-1.557-2.492 0.728 0.616 2.145 0.778 2.181 2.804 0.269-1.604 1.394 0.449 2.18 0.312 1.734-4.341 3.083-16.211-1.247-15.577-1.039-3.955-3.648-1.593-7.789-1.557 0.076 1.042 0.67 1.962-0.309 2.489-1.704 0.041-1.656-1.668-2.495-2.489-2.521 0.677-8.215-0.581-11.525 2.489-1.258-0.091-1.205-1.496-2.181-1.866-0.34 0.3-3.74 0.23-3.75 0.89zm-208.74-111.54c-3.354 0.212-10.709 0.337-17.135 0.312-6.374-0.025-10.986-0.307-15.266 0-0.595 32.801-1.861 81.059-1.558 114.02 4.381-0.462 9.428 0.312 14.954 0.31 6.95 0 16.083-0.71 22.12 0 1.133 0.137 2.119 0.818 3.116 0.938 6.033 0.715 10.853 0.274 14.954 0.31 13.681 0.116 21.664 0.025 41.748 0.312 1.052-41.46 0.892-75.31 1.246-115.58-21.431-0.752-36.773 0.078-64.179-0.617zm173.84 100.63c-0.231-3.728-3.157-6.177-5.294-9.035-5.766-7.701-16.579-13.117-25.547-13.396-5.258 1.118-11.576 0.976-14.644 4.361-5.34 1.999-10.994 5.915-11.841 13.397 5.322 3.092 10.063 6.759 11.841 13.397 3.017-0.505 9.918 0.938 13.396 0.31 1.63-0.292 4.355 0.314 4.361 0.314 9.391 0.42 15.562 0.121 24.299 0 1.06-3.19 3.65-5.78 3.42-9.34zm24.62 8.41c3.965 0.078 10.95 0.489 14.33-0.624 5.815 0.507 13.188-0.72 19.938-1.245 2.201-1.643 4.188-3.499 6.232-5.299 1.369-3.442 3.433-6.883 1.871-10.902-0.746-1.911-3.197-2.559-3.428-4.674-1.901-0.798-3.659-1.74-5.297-2.804-2.997-0.237-11.929-2.141-14.642 0.936-6.161 1.132-11.921 5.011-15.892 9.346-4.163 4.549-9.021 7.925-5.294 15.887 1.51-0.05 1.04-0.17 2.18-0.62zm-27.11-19.001c1.004 3.668 2.896 6.449 4.361 9.658 0.03 5.059 3.6 6.576 4.984 10.283 1.949-0.233 3.407 0.101 5.917 0 2.361-5.119 5.624-9.333 8.725-13.709-0.44-11.93-17.8-12.582-23.98-6.232zm-51.09 10.901c-5.043-3.649-10.81-7.638-16.2-9.969-4.3-0.145-14.161-2.153-18.071-0.624-2.656 1.04-8.099 7.189-8.411 10.593-0.548 5.966 4.132 5.823 6.854 5.917 9.047 0.319 23.389 2.457 34.892 2.184 2.37-2.4 1.49-5.06 0.94-8.1zm5.61 61.07c-0.259-1.141-4.052-0.842-4.364 0-3.229-0.964-7.202-0.946-10.592 0-1.891-0.705-2.224-0.34-6.853-0.624-0.417-0.097-0.726-0.532-1.558-0.933-7.241 1.328-17.06 1.339-27.728 1.557-21.615 0.446-42.798 0.223-59.505 0-19.735-0.259-30.846 0.132-43.928 0.623-0.222 4.584 1.269 7.454 1.558 11.529 1.914 1.614 2.457 4.602 4.673 5.92 0.026 1.115 0.484 1.8 0.624 2.804 4.115 6.676 13.787 14.948 20.562 13.083 0.615 1.764 2.006 0.872 3.115 1.247 0.825 0.278 1.64 1.09 2.492 1.247 3.347 0.619 13.168-0.264 18.381-0.314 19.768-0.185 36.333 1.225 52.028 0 8.062 1.268 17.067 0.195 27.416 0.624 5.637-0.091 12.641-2.586 18.381-7.165 4.901-7.124 13.258-13.975 14.645-26.17-1.05-0.821-1.631-2.109-1.871-3.737-1.4 0-6.56-1.01-7.49 0.31zm15.57 0c-1.402 2.652-0.824 7.276-0.936 11.217-0.302 1.516-1.618 2.046-0.934 3.736 4.401 0.64 6.476 0.062 9.97-1.244 0.948-3.852 0.707-8.59-0.936-12.462-1.352-1.179-4.881-0.461-6.229-1.871 0.06 1.21-0.47-0.12-0.93 0.61zm-157.95 30.84c-1.148-1.863-2.129-3.894-4.049-4.984-5.532-6.932-8.446-16.479-14.331-23.057-0.372-2.17-2.086-3.6-4.05-1.868 2.169 15.92 10.217 28.606 23.366 34.582 0.472-1.66 2.671 0.343 2.804-1.559-0.133-1.57-2.136-2.03-3.74-3.11zm236.46-16.51c-0.031-1.207-1.035-1.217 0-2.18 0.775-0.049 1.513-0.059 1.559 0.621 0.13 0.75-0.57 0.679-0.312 1.559 0.961 0.389 1.901 0.804 2.492 0 0.149-0.98-0.956-0.707-0.621-1.868 0.831 0 0.674-0.983 1.557-0.936-0.094 0.61 0.421 0.618 0.624 0.936 0.223 0.953-0.538 0.915-0.314 1.868h2.183c-0.327-1.471 0.535-1.749 1.245-2.18 0.91 0.601 0.259 1.579 0.623 2.18 2.77 0.102 4.225-0.286 6.542 0 0.451-1.318 0.852-1.27 1.559-1.868 1.356 2.398 4.528 0.994 5.921 1.557 0.345-1.696-1.704-0.994-1.558-2.492 0.548-0.845 2.627-0.905 2.805 0.312-0.446 0.416-0.446 1.765 0 2.181h1.245c0.431-0.502 0.261-1.607 0.936-1.868 1.814-0.47 1.196 1.503 2.18 1.868 1.983-0.102 3.132 0.021 5.608-0.312 0.812-0.967-1.058-1.25-0.624-2.802 0.903-0.345 1.588-0.905 2.49-1.248 0.786 1.337-0.246 2.069-0.31 3.429 1.134 0.296 3.393-0.686 4.673-1.248-0.484-2.165-0.135-2.677 1.245-3.116 0.745-2.254 1.76-5.945-0.934-6.853-1.004 0.348-0.126 2.576-1.247 2.804-1.579-0.396-0.669-3.275-3.113-2.804-0.302 1.358-0.639 2.683-2.181 2.804 0.021-1.268-0.988-1.506-0.936-2.804-1.579-0.23-1.93 0.771-2.804 1.247-1.291-2.036-5.642-1.009-8.725-1.247 0.213 1.045-0.522 1.139-1.247 1.247-0.645-0.188-1.06-0.601-1.245-1.247h-3.116c-0.137 1.156 1.042 2.951-0.309 3.428-1.118-0.548-1.896-1.43-1.56-3.428-3.192-0.773-4.784 1.255-6.544 0.933 0.294 1.28 1.04 2.322-0.31 3.116 0.031-0.956-1.701-0.129-1.557-1.868 0.025-1.012 1.856-0.219 1.557-1.558-0.324-1.161-2.897-0.555-3.739-0.313-0.109 0.93-0.18 1.898-0.936 2.183-1.385-0.175-0.999-2.117-2.181-2.492-0.631 0.441 1.202 2.195-0.31 2.804-1.306 0.264-1.698-0.38-2.18-0.936-0.259-0.88 0.436-0.809 0.309-1.559-0.928-0.538-1.579 0.101-2.18-0.31-0.264 1.301 0.605 1.471 0.623 2.492-1.531 1.722-3.058-1.473-1.247-2.492-3.212 0.459-3.21 1.313-6.232 0-0.623 1.001-1.017 0.073-1.865 0.623-0.041 2.939 1.034 7.146-2.181 4.05 0.616-1.844-0.269-3.542-1.56-4.363-1.163 2.515-3.223-0.997-4.673 0 0.157 0.985 0.918 1.369 0.934 2.494-0.588-0.07-0.688 0.351-1.245 0.31-0.867-0.173-0.875-1.202-1.245-1.866 0.411-0.314 1.156-0.297 1.245-0.938-1.483-0.376-2.533-0.383-4.363 0.938-0.816-0.74-1.93-1.187-3.737-0.938-0.015 1.47 1.004 1.903 0.934 3.428-0.31 0-0.37 0.253-0.621 0.312-2.028 0.053-1.615-2.33-2.184-3.739-0.061 0.421-1.42 0.558-1.866 0-0.38 1.521 0.703 1.582 0.934 2.494-2.394 1.811-2.597-1.876-3.737-2.494-1.253 0.35 0.411 2.003-0.624 2.804-0.618-0.518-0.396 0.03-1.247 0-0.299-0.948-0.629-1.861-0.933-2.804-2.141 0.669-2.617 0.621-4.052 0-0.629 0.725-0.249 2.454-1.557 2.494 0.197 1.05 0.893 1.598 0.623 3.113h-1.871c-0.852-2.343 0.619-1.838 0.936-3.425-1.123-1.993-2.081-2.117-4.049-1.869 0.109 1.342 1.725 1.182 1.245 3.114-1.849 0.21-2.873-0.69-2.183-2.805-6.871-0.818-8.765-0.051-17.135 0-0.887 4.992-1.698 9.764 2.805 11.217 4.741 1.528 10.696 3.02 15.889 2.492 0.637-0.403 0.789-1.29 1.56-1.56 0.994 0.152 1.24 1.045 1.868 1.56 0.586-0.966 2.487 0.31 2.802-0.312-0.025-1.164-0.347-0.888 0-1.869-1.201-0.397-1.227 0.262-2.18 0.312 0.05-0.883-0.934-0.726-0.934-1.557 0.37-0.773 1.131-1.156 2.492-0.936 0.357 0.367 0.353 1.1 0.312 1.868 1.293 0.086 1.211-0.411 2.18 0 0.003 0.826-0.116 1.779 0.312 2.181h1.868c-0.051-0.984-0.01-1.882 0.624-2.181 1.851-0.294 1.425 1.693 1.868 2.804 0.769-0.04 1.504-0.045 1.868 0.312 0.776-0.368 0.314-1.973 1.248-2.184 1.354 0.102 1.571 1.339 2.492 1.871 1.828-1.052 3.042 0.319 5.608-0.623-0.1-0.73-0.492-1.169-0.312-2.181h1.871c0.432 0.397 0.188 1.471 0.621 1.871 3.933-0.229 6.739-1.002 11.214-0.938-0.022-1.115-1.204-1.077-1.557-1.865 0.527-0.723 0.969-1.526 2.181-1.56 0.294 0.535 1.151 0.51 0.936 1.56-0.353 0.477-0.895 0.766-1.245 1.244 0.302 0.53 0.86 0.799 1.869 0.621 0.621-0.312 0.492-1.374 1.56-1.244 0.39 0.438 1.643 0.018 1.244 1.244 2.84 0.12 3.94-1.07 5.65-0.59zm-248.92 14.33c-0.261-0.363-0.411-0.837-0.312-1.56-3.953-3.005-6.106-7.809-8.411-12.461-3.351-0.066-6.8 0.644-9.035 4.051 0.167 7.1 5.875 8.661 8.723 13.083 4.505 0.966 8.4 5.479 12.461 4.052-0.338-2.074-1.417-3.21-0.311-4.361-0.6-1.37-1.8-2.15-3.115-2.8z"></path> <path style="clip-rule:evenodd;fill-rule:evenodd" d="m154.25 122.75c0.007-0.733-0.537-0.916-0.311-1.866 1.24-0.229 1.252-0.229 2.492 0 0.186 0.553-0.914 1.293 0 1.557-0.24 0.28-0.99 0.26-2.18 0.31z"></path> <path style="clip-rule:evenodd;fill-rule:evenodd" d="m287.9 132.1c0.045-0.515 1.3 0.327 2.18 0 0.173 0.454-0.362 1.609 0.314 1.56-0.522 0.41-0.664 1.201-1.871 0.933-0.48-1.07-0.26-1.91-0.62-2.49z"></path> <path style="clip-rule:evenodd;fill-rule:evenodd" d="m251.14 153.59c1.08 0.249 1.197-0.467 2.181-0.312 0.137 0.593 0.675 0.783 0.624 1.557-0.472 1.136-2.475 0.23-2.49 0.312-0.35-0.29-0.1-0.58-0.31-1.56z"></path> <path style="fill:#FFFFFF;clip-rule:evenodd;fill-rule:evenodd" d="m268.27 179.45c0.398-1.227-0.854-0.806-1.244-1.244-1.067-0.13-0.938 0.933-1.56 1.244-1.009 0.178-1.567-0.091-1.869-0.621 0.351-0.479 0.893-0.768 1.245-1.244 0.216-1.05-0.642-1.024-0.936-1.56-1.212 0.033-1.653 0.837-2.181 1.56 0.353 0.788 1.534 0.75 1.557 1.865-4.475-0.063-7.281 0.71-11.214 0.938-0.433-0.4-0.189-1.474-0.621-1.871h-1.871c-0.18 1.012 0.213 1.45 0.312 2.181-2.566 0.942-3.78-0.429-5.608 0.623-0.921-0.532-1.139-1.77-2.492-1.871-0.934 0.211-0.472 1.815-1.248 2.184-0.364-0.357-1.1-0.353-1.868-0.312-0.443-1.11-0.018-3.098-1.868-2.804-0.634 0.299-0.675 1.196-0.624 2.181h-1.868c-0.429-0.401-0.31-1.354-0.312-2.181-0.969-0.411-0.887 0.086-2.18 0 0.04-0.769 0.045-1.501-0.312-1.868-1.361-0.221-2.122 0.162-2.492 0.936 0 0.831 0.983 0.674 0.934 1.557 0.953-0.051 0.979-0.71 2.18-0.312-0.347 0.981-0.025 0.705 0 1.869-0.314 0.621-2.216-0.654-2.802 0.312-0.628-0.515-0.874-1.407-1.868-1.56-0.771 0.27-0.923 1.156-1.56 1.56-5.192 0.527-11.147-0.964-15.889-2.492-4.503-1.453-3.691-6.225-2.805-11.217 8.37-0.051 10.264-0.818 17.135 0-0.69 2.114 0.334 3.015 2.183 2.805 0.479-1.933-1.136-1.772-1.245-3.114 1.968-0.248 2.926-0.124 4.049 1.869-0.316 1.587-1.787 1.082-0.936 3.425h1.871c0.27-1.516-0.426-2.063-0.623-3.113 1.308-0.04 0.928-1.77 1.557-2.494 1.435 0.621 1.911 0.669 4.052 0 0.304 0.942 0.634 1.855 0.933 2.804 0.852 0.03 0.629-0.518 1.247 0 1.035-0.801-0.629-2.454 0.624-2.804 1.141 0.618 1.344 4.305 3.737 2.494-0.23-0.912-1.313-0.974-0.934-2.494 0.446 0.558 1.806 0.421 1.866 0 0.568 1.409 0.155 3.792 2.184 3.739 0.251-0.059 0.312-0.312 0.621-0.312 0.07-1.524-0.948-1.958-0.934-3.428 1.808-0.249 2.921 0.197 3.737 0.938 1.83-1.32 2.88-1.313 4.363-0.938-0.089 0.641-0.834 0.623-1.245 0.938 0.37 0.664 0.378 1.693 1.245 1.866 0.558 0.041 0.657-0.38 1.245-0.31-0.016-1.125-0.776-1.509-0.934-2.494 1.45-0.997 3.51 2.515 4.673 0 1.291 0.821 2.176 2.52 1.56 4.363 3.215 3.096 2.14-1.11 2.181-4.05 0.849-0.55 1.242 0.378 1.865-0.623 3.022 1.313 3.021 0.459 6.232 0-1.811 1.02-0.284 4.214 1.247 2.492-0.018-1.021-0.887-1.191-0.623-2.492 0.601 0.41 1.252-0.229 2.18 0.31 0.127 0.75-0.567 0.679-0.309 1.559 0.481 0.556 0.874 1.199 2.18 0.936 1.512-0.608-0.321-2.362 0.31-2.804 1.182 0.375 0.796 2.317 2.181 2.492 0.756-0.284 0.826-1.253 0.936-2.183 0.842-0.241 3.415-0.848 3.739 0.313 0.3 1.339-1.531 0.546-1.557 1.558-0.145 1.739 1.588 0.912 1.557 1.868 1.35-0.794 0.604-1.836 0.31-3.116 1.76 0.322 3.352-1.706 6.544-0.933-0.337 1.998 0.441 2.88 1.56 3.428 1.351-0.477 0.172-2.271 0.309-3.428h3.116c0.186 0.646 0.601 1.06 1.245 1.247 0.725-0.108 1.46-0.202 1.247-1.247 3.083 0.238 7.434-0.789 8.725 1.247 0.874-0.477 1.225-1.478 2.804-1.247-0.053 1.298 0.956 1.536 0.936 2.804 1.542-0.121 1.879-1.445 2.181-2.804 2.444-0.472 1.534 2.408 3.113 2.804 1.121-0.228 0.243-2.456 1.247-2.804 2.693 0.907 1.679 4.599 0.934 6.853-1.38 0.439-1.729 0.951-1.245 3.116-1.28 0.562-3.539 1.544-4.673 1.248 0.063-1.359 1.096-2.092 0.31-3.429-0.902 0.343-1.587 0.903-2.49 1.248-0.434 1.552 1.436 1.835 0.624 2.802-2.477 0.332-3.625 0.21-5.608 0.312-0.983-0.365-0.365-2.338-2.18-1.868-0.675 0.261-0.505 1.366-0.936 1.868h-1.245c-0.446-0.416-0.446-1.765 0-2.181-0.178-1.217-2.257-1.156-2.805-0.312-0.146 1.498 1.902 0.796 1.558 2.492-1.393-0.562-4.564 0.842-5.921-1.557-0.707 0.599-1.107 0.55-1.559 1.868-2.317-0.286-3.772 0.102-6.542 0-0.364-0.601 0.287-1.579-0.623-2.18-0.71 0.431-1.572 0.709-1.245 2.18h-2.183c-0.224-0.953 0.537-0.915 0.314-1.868-0.203-0.317-0.718-0.325-0.624-0.936-0.883-0.048-0.726 0.936-1.557 0.936-0.335 1.161 0.771 0.888 0.621 1.868-0.591 0.804-1.531 0.389-2.492 0-0.259-0.88 0.441-0.809 0.312-1.559-0.046-0.68-0.783-0.67-1.559-0.621-1.035 0.963-0.031 0.973 0 2.18-1.72-0.52-2.82 0.67-5.62 0.58zm4.05-3.43c-1.009-0.181-1.45 0.21-2.18 0.312v1.557c1.52 1.19 3.17 0.11 2.18-1.87zm13.71-6.85c0.287-1.222 0.677-1.158 0.312-2.494h-1.871c-0.53 1.13 0.01 2.56 1.56 2.49zm12.15 0h1.866c0.466-0.963-0.092-1.716-0.621-2.494h-1.245c-0.62 0.61-0.2 1.78 0 2.49zm3.12-0.62c0.065 1.595 0.726 2.596 2.492 2.492 0.018-1.367 0.218-2.919-0.936-3.116-0.05 1.02-0.54 0.23-1.55 0.63zm-79.14 1.55c0.36-0.368 0.354-1.101 0.314-1.869h-1.56c-0.13 1.18 0.67 1.42 1.25 1.87zm9.35 0.32c1.032-0.099 1.917-0.048 2.181 0.624-0.226-0.954 0.537-0.916 0.312-1.869-0.872-0.375-1.526-0.966-2.804-0.936-0.18 1.02 0.21 1.45 0.31 2.19zm31.78-1.87c-0.223 0.953 0.538 0.917 0.314 1.868 0.994-0.267 1.182 0.271 1.557 0.624-0.232-1.065 1.266-0.396 0.934-1.56-0.016-0.396-0.398-0.431-0.31-0.933-1.38 0.14-1.55-0.43-2.49 0zm-53.59 1.87c-0.316 3.639 1.615 5.03 4.361 5.608-0.279 0.555-0.873 0.793-0.624 1.868 0.685 0.355 1.272 0.807 2.492 0.624 0.459-1.496-0.778-1.301-0.624-2.492 0.984 0.152 1.101-0.561 2.184-0.312 0.821 1.085 2.996 2.221 3.425-0.624-1.301-0.294-1.526 0.14-2.492-0.624v-3.113c-2.91-3.23-4.83-3.06-8.73-0.95zm38.32 1.24c0.69 0.142 2.398-0.789 1.557-2.181-0.4-0.429-1.354-0.307-2.18-0.31-0.02 1.06-0.1 2.17 0.62 2.49zm7.17-0.62c1.105 0.423 0.613 0.504 1.869 0.621 0.515-1.11 0.119-2.683-1.56-2.49 0.23 0.95-0.54 0.91-0.31 1.87zm22.43 0.94c0.084-0.438 0.682-0.355 0.936-0.624 0.111-1.566-1.187-1.722-2.181-2.181-0.76 1.34 0.01 2.54 1.24 2.8zm15.27 0c0.958 0.218 0.598 0.218 1.557 0 0.477-0.991 0.111-1.372 0-2.495-1.84-0.34-2.1 1.35-1.56 2.5zm-7.17 0c-0.137-4.531-4.683 0.015-0.934 0.933 0.3-0.32 0.61-0.63 0.93-0.93zm25.55 1.86c0.411-0.94 1.28-1.422 0.936-3.116-1.242 0.31-0.938-0.93-2.183-0.623-0.67 1.72 0.19 2.9 1.24 3.74zm-75.09-0.62c1.103 0.17 1.364-0.504 1.871-0.936-0.145-1.206-0.807-1.891-2.181-1.868-0.5 1.01-0.25 2.07 0.31 2.81zm15.89-0.31c1.24 0.203 1.907-0.17 1.869-1.247-0.411-0.626-1.021-1.053-1.869-1.245-0.19 0.71-0.61 1.87 0 2.49zm44.87 0.31h1.868c0.19-1.643-0.386-2.522-1.56-2.804-0.64 1.03-1.17 1.57-0.31 2.8zm-9.04-0.31c0.829 0.106 1.093 0.778 1.871 0.936 0.948-1.817 0.202-3.283-1.56-3.116-0.43 0.4-0.3 1.35-0.31 2.18zm19.94 0.31c-0.081-0.91 0.705-0.955 0.624-1.868-0.381-0.035-0.735-0.094-0.624-0.624h-1.866c-0.59 1.24 0.6 2.2 1.87 2.49zm-66.98 0.31c1.022-1.41-0.44-2.548-1.871-2.492-0.71 1.6 0.48 3.08 1.87 2.49zm28.97-0.31v-1.868c-0.732-0.102-1.169-0.492-2.18-0.312-0.25 1.7 0.48 2.43 2.18 2.18zm-45.79 0c1.096 0.373 1.024 0.454 1.868 0.624 1.47-2.08-2.26-3.78-1.87-0.62zm20.24 0.62c1.579 0.005 1.323-1.727 0.624-2.492h-1.56c-0.45 1.61 0.76 1.54 0.94 2.49zm27.42 0h2.181c0.489-0.986-0.17-1.366-0.31-2.492-0.959 0.218-0.599 0.218-1.557 0 0.07 1.33-1.03 1.27-0.31 2.49zm-8.1-0.31c1.015 1.12 2.784 2.119 2.805-0.624-0.649-0.183-1.009-0.654-1.56-0.933 0.09 1.01-1.2 0.65-1.24 1.55zm13.08 1.56c0.129-0.391 0.403-0.637 0.936-0.624-0.03-1.11-0.145-2.137-0.936-2.489-1.26 0.7-1.6 2.46 0 3.11zm-54.52-0.63c0.694-0.57 1.026-1.277 0.624-2.181h-1.245c-0.05 0.99-0.01 1.88 0.62 2.18zm9.35 0c0.505 0.538 1.304 0.776 2.492 0.624 0.279 0.656 0.484 1.384 0.934 1.871h1.871v-1.871c-1.605 0.461-1.339-0.943-2.805-0.624 0.188-1.225-0.459-1.617-0.933-2.181-0.076 0.804-0.538-0.426-1.247 0-0.1 0.74-0.49 1.18-0.31 2.18zm71.03 0.32c0.178-1.633-1.293-1.617-1.871-2.495-1.64 1.38 0.62 4.11 1.87 2.5zm-22.74 0.62c0.051-0.365 0.492-0.34 0.934-0.314-0.023-0.543 0.07-0.969 0.312-1.245-0.669-0.474-0.931-1.354-2.183-1.245-0.76 0.99 0.06 2.48 0.94 2.8zm-25.55-0.31c1.311-0.375 1.367 0.505 2.184 0.624 0.354-0.873 0.354-1.618 0-2.493h-2.184v1.87zm4.05 0c0.816 0.121 0.872 0.999 2.184 0.624-0.178-1.01 0.094-1.567 0.621-1.869-1.463 0.322-1.197-1.085-2.805-0.624v1.87zm23.99 0.31c0.416 0.629 2.084 0.938 2.804 0.31v-1.869c-1.19-0.55-2.68 0.12-2.8 1.56zm-55.76 0.31c0.951-0.016 0.748 1.12 1.868 0.936 0.87-0.981 0.386-1.651 0-2.805h-1.557c0.22 0.95-0.54 0.92-0.31 1.87zm20.25-0.62c0.38 0.974 0.583 2.119 2.181 1.871-0.068-1.004 0.553-1.318 0.312-2.495-0.86-1.15-2.14-0.41-2.49 0.63zm47.35 0.62c-1.18-5.1-4.01 2.38 0 0zm-27.1 0.94c1.163 0.185 1.77 0.936 2.489 0 0.45-2.51-3.03-2.95-2.49 0zm-14.33 0.31c0.357-0.37 0.353-1.101 0.312-1.871-0.856-0.67-1.303 0.183-2.18-0.31-0.13 1.47 0.45 2.24 1.87 2.18zm52.34 0.31c0.375-0.33 1.069 0.639 1.871-0.31 0.375-1.311-0.502-1.366-0.624-2.181h-1.868c-0.29 1.22-0.16 1.72 0.62 2.49zm-82.88-0.62c0.781 0.747 0.986 0.134 1.56 0.936 0.702-0.565 0.732-1.575 0.312-2.495h-1.871v1.55zm16.2 0.93h1.871c0.278-1.839-0.532-2.587-2.181-2.495 0.04 0.9-0.17 2.05 0.31 2.5zm48.92 0.31c3.35-3.32-4.5-2.24 0 0zm-45.18-1.87v1.868c1.179-0.451 0.596 0.857 1.56 0.624 1.22-1.18 0.46-3.59-1.56-2.49zm11.53 2.5c1.029 1.633 3.177 0.451 2.181-1.557-1.16-0.6-2.18 0.13-2.18 1.56zm3.74 0c1.303-0.071 1.471 0.507 2.492 0 0.17-1.623-0.867-2.041-2.492-1.868-0.03 1.16-0.35 0.88 0 1.87zm-33.65-0.63c-0.15 0.981 0.443 1.217 0.621 1.871 1.566 0.221 1.217-1.103 2.183 0v-1.871c-0.583-0.248-1.141-0.52-1.868-0.623 0.05 0.56-0.3 0.73-0.93 0.62zm-4.36 1.87h2.184c-0.008-0.735 0.535-0.918 0.312-1.871h-2.495c-0.35 0.99-0.02 0.71 0 1.87zm26.17 0c1.488 0.865 3.473-0.269 2.494-1.871h-2.494c-0.35 0.99-0.03 0.71 0 1.87z"></path> <path style="fill:#FFFFFF;clip-rule:evenodd;fill-rule:evenodd" d="m118.11 3.115c-0.354 40.273-0.194 74.123-1.246 115.58-20.084-0.286-28.067-0.195-41.748-0.312-4.101-0.035-8.921 0.405-14.954-0.31-0.997-0.119-1.982-0.801-3.116-0.938-6.037-0.71-15.17 0-22.12 0-5.526 0.002-10.572-0.771-14.954-0.31-0.299-32.966 0.968-81.224 1.562-114.02 4.28-0.307 8.892-0.025 15.266 0 6.426 0.025 13.781-0.1 17.135-0.312 27.406 0.69 42.748-0.14 64.179 0.617zm-67.607 19.005c-2.807-0.958-5.436 0.896-7.165 1.246-1.201 0.242-2.553-0.369-3.739 0-3.321 1.032-4.342 4.134-4.984 8.101-3.576 0.938-5.012 2.753-8.724 3.427 0.185 3.266 2.451 2.93 4.362 4.05 1.237 1.995-1.896 4.173-2.181 6.23-0.662 4.752 2.951 7.886 8.411 7.477 0.708 4.796-0.38 9.078 0.934 13.085 0.641 1.948 3.674 4.448 5.608 7.477 3.004 4.703 6.651 7.854 10.905 8.724-1.251 3.23 1.885 6.042 2.18 8.723 0.2 1.814-0.785 2.99-1.246 4.672-0.87 3.171-1.357 6.681-2.804 9.348-4.281-0.167-8.449 1.765-12.773 1.868 0.463 2.802 3.477 2.411 6.23 1.869 0.634 6.442 8.196 0.864 9.971-2.492 0.551-1.048 0.15-2.209 0.311-3.427 0.554-4.211 2.879-8.647 4.362-10.593-0.023-1.373 0.554-2.146 0.935-3.116 1.672 0.25 2.474-0.972 4.362-1.868 3.022 3.551 7.458 3.035 10.593 4.984-0.118 4.522 0.106 9.081 1.246 13.084-1.627 2.527-5.088 3.22-7.166 5.299 0.694 0.55 0.749 1.741 1.87 1.866 1.704 0.146 1.936-1.177 3.115-1.557 0.544 0.856 1.095-0.295 2.182 0.623 7.047-3.255-1.19-12.963 2.181-20.25 2.379-2.017 2.847-5.111 4.984-6.854 1.87-1.526 4.796-1.505 6.854-2.804 3.627-2.29 4.887-5.909 8.723-8.411 0.738-3.314 4.082-4.019 4.05-8.101 3.089-1.792 2.837-6.925 5.296-9.347 1.46-6.52 2.973-16.406 0.935-22.743-0.441-1.372-1.764-3.641-3.739-3.427-1.233 1.571-2.626 2.98-3.115 5.296-2.663 1.964-4.791 2.539-8.1 3.738-2.884-1.117-5.366-3.236-8.413-3.116-3.712 0.148-6.98 2.171-9.969 3.116-6.176-5.396-12.914 3.349-17.447-4.361 1.396-3.907-0.73-9.077-5.919-8.412-0.533-1.27-1.46-2.862-3.109-3.424zm38.009 79.44c0.566 4.309 7.074 6.626 11.527 5.921 5.383-0.856 10.32-6.915 5.296-11.84-4.316-4.231-13.025-0.931-16.511 2.492 0.279 1.333-0.451 2.408-0.317 3.428z"></path> <path style="fill:#FFFFFF;clip-rule:evenodd;fill-rule:evenodd" d="m196.31 163.87c1.349 1.41 4.878 0.692 6.229 1.871 1.643 3.872 1.884 8.61 0.936 12.462-3.494 1.306-5.568 1.884-9.97 1.244-0.685-1.69 0.632-2.221 0.934-3.736 0.111-3.94-0.467-8.564 0.936-11.217 0.45-0.71 0.98 0.62 0.93-0.61z"></path> <metadata></metadata></svg> 