<?xml version="1.0" encoding="UTF-8" standalone="no"?> <!-- Generator: Adobe Illustrator 13.0.2, SVG Export Plug-In . SVG Version: 6.00 Build 14948) --> <svg xmlns:rdf="http://www.w3.org/1999/02/22-rdf-syntax-ns#" xmlns="http://www.w3.org/2000/svg" xmlns:x="http://ns.adobe.com/Extensibility/1.0/" xmlns:dc="http://purl.org/dc/elements/1.1/" xmlns:i="http://ns.adobe.com/AdobeIllustrator/10.0/" xmlns:cc="http://web.resource.org/cc/" xmlns:xlink="http://www.w3.org/1999/xlink" xmlns:a="http://ns.adobe.com/AdobeSVGViewerExtensions/3.0/" xmlns:graph="http://ns.adobe.com/Graphs/1.0/" xmlns:svg="http://www.w3.org/2000/svg" xmlns:inkscape="http://www.inkscape.org/namespaces/inkscape" xmlns:sodipodi="http://sodipodi.sourceforge.net/DTD/sodipodi-0.dtd" xmlns:ns1="http://sozi.baierouge.fr" xml:space="preserve" y="0px" x="0px" viewBox="0 0 81.12 110.155"> <g id="boys_hair_2_xA0_Image" clip-rule="evenodd" fill-rule="evenodd"> <path d="m58.08 30.474c0.802 1.089-0.595 1.583 0 0z"></path> <path d="m61.681 32.394c0.886 0.728-0.73 0.809 0 0z"></path> <path d="m54 34.075c1.106 0.394-0.204 0.802 0 1.68-0.718-0.369-0.248-1.067 0-1.68z"></path> <path d="m60.96 35.274c0.275 0.388 0.942 0.761 0.48 1.2-0.487-0.175-0.98-0.722-0.48-1.2z"></path> <path d="m65.28 35.514c0.75-0.109 0.768 0.513 0.72 1.2-0.719 0.018-1.218-0.706-0.72-1.2z"></path> <path d="m52.08 35.754h0.48v0.479h-0.48v-0.479z"></path> <path d="m58.801 35.995c-0.085 0.314-0.423 0.377-0.48 0.72-0.598-0.098-0.015-0.931 0.48-0.72z"></path> <path d="m54.48 36.474c0.074-0.325 0.601-0.199 0.96-0.24-0.074 0.326-0.6 0.199-0.96 0.24z"></path> <path d="m66.96 36.714c0.449-0.738 1.141 0.277 0.96 0.96-0.422-0.216-0.397-0.883-0.96-0.96z"></path> <path d="m45.601 39.115c-1.281 0.968-2.358-1.187-3.601-1.44-2.066-0.423-5.315 0.314-7.439 0.96-2.358 0.716-4.328 2.533-6.48 2.4-0.746-1.474 3.349-3.499 5.761-3.841 0.444-0.062 1.017 0.223 1.68 0.24 2.689 0.072 5.449-0.755 7.2-0.24 1.4 0.413 2.154 1.395 2.879 1.921z"></path> <path d="m18.721 41.514c-2.204 0.335-3.926-1.813-6-2.399-2.801-0.321-4.576 0.384-6.48 0.96 2.531-3.37 11.782-2.244 12.48 1.439z"></path> <path d="m54 38.394c0.048-0.337 1.57-0.152 1.44 0.48-0.83 0.19-1.013-0.266-1.44-0.48z"></path> <path d="m69.12 38.155c0.532-0.133 0.342 0.458 0.721 0.479-0.098 0.598-0.931 0.015-0.721-0.479z"></path> <path d="m54 39.354h-0.96c-0.188-0.924 1.149-0.924 0.96 0z"></path> <path d="m56.16 40.075c-0.054 0.346-0.716 0.083-0.72 0.479-0.603-0.451 0.192-0.871 0.72-0.479z"></path> <path d="m60.48 39.834c-0.104 0.295-0.308 0.493-0.72 0.479-0.112-0.511 0.344-0.456 0.72-0.479z"></path> <path d="m66.721 40.075c-0.105 0.295-0.308 0.492-0.721 0.479-0.111-0.512 0.344-0.457 0.721-0.479z"></path> <path d="m63.601 41.035c-1.722 0.121-0.875-1.101 0 0z"></path> <path d="m57.841 41.274c0.097-0.598 0.93-0.014 0.72 0.48-0.316-0.085-0.378-0.422-0.72-0.48z"></path> <path d="m66.721 41.514c0.481-0.081 0.751 0.049 0.72 0.48h-0.72v-0.48z"></path> <path d="m54.721 42.234c0.43-0.03 0.506 0.294 0.96 0.24 0.073 0.554-0.693 0.267-0.721 0.72-0.325-0.074-0.198-0.601-0.239-0.96z"></path> <path d="m57.601 42.234c0.732-0.03 0.674 1.25 0.479 1.44-0.86-0.316-0.075-0.788-0.479-1.44z"></path> <path d="m30.96 44.634c-0.427-0.565-1.07 0.673-1.92 0.48 1.796-3.1 6.198-2.279 9.601-1.2 0.87 0.275 2.306 0.326 2.399 1.2-0.679-0.202-1.481-0.279-2.159-0.48 1.439 1.2 3.299 1.98 6 1.92-1.35 2.069-4.804-0.355-6.48-0.96-0.756-0.116-0.18 1.101-0.72 1.2 0.033 0.687 1.001 0.438 1.68 0.479-0.744 0.88-2.625 1.214-4.08 1.2-1.399-0.013-3.018-0.65-4.08-0.96 0.212-0.588 0.72-0.881 0.48-1.92-0.74 0.7-2.314 0.566-2.4 1.92-0.591-0.208-1.041-0.56-0.96-1.439 1.641 0.282 1.891-0.828 2.639-1.44zm0.721-0.479c0.257-0.624 1.423-0.337 1.68-0.961-0.935-0.2-2.236 0.466-1.68 0.961zm0.719 2.399c0.716-0.043 1.469 0.923 1.68 0-0.602 0.041-0.582-0.537-0.96-0.72 0.463-0.098 0.189-0.931 0.96-0.72 0.756 0.044 0.308 1.292 1.2 1.199 1.034 0.23 0.812-1.517 0.48-1.92-2.152-0.31-3.426 0.255-3.36 2.161zm3.361 0.72c0.921-0.336 0.519-0.913 1.439-0.239-0.054-0.454 0.271-0.53 0.24-0.96-0.282-0.038-0.682 0.041-0.72-0.24 0.314-0.004 0.306-0.666 0-0.72-0.339 0.7-0.9 1.179-0.959 2.159z"></path> <path d="m55.681 42.955c0.388-0.067 0.413 0.227 0.72 0.239 0.099 0.579-0.438 0.522-0.24 1.2-0.398-0.242-0.262-1.019-0.48-1.439z"></path> <path d="m57.12 44.155c1.128-0.253-0.395 0.809 0.48 0.96-0.9 0.245-2.536 0.514-2.88-0.721 0.718 0.462 2.009 0.764 2.4-0.239z"></path> <path d="m70.801 45.594c-0.37 2.271 0.241 6.464 0.239 9.6-1.219 1.102-2.552 2.088-4.08 2.881-0.324-1.608 2.748-1.891 3.36-3.36-0.403-3.16-0.617-5.029-1.2-7.92-1.626-0.458-1.816 2.467-2.399 3.84-0.867 0.228-0.335-0.945-0.48-1.44-0.881-0.386-1.312-0.851-2.399-0.479 1.409-1.832 4.49-3.135 6.959-3.122z"></path> <path d="m19.681 46.554c0.388-0.067 0.413 0.227 0.72 0.24 0.609 3.726 0.114 8.219-2.64 9.36 1.632-2.419 2.283-6.518 1.92-9.6z"></path> <path d="m65.761 50.875c0.852 0.668 1.192 1.847 1.92 2.64-0.074 0.807 0.32 2.081-0.721 1.92 0.547-2.468-1.403-2.437-1.199-4.56z"></path> <path d="m64.32 51.834c1.341 1.321 0.89 3.76 0 5.28 0.203 0.703 0.772-0.144 1.2 0-0.499 1.003-2.315 2.36-3.12 0.96-0.01-2.011 1.787-2.214 1.92-4.08 0.131-1.172-1.152-0.929-1.2-1.92 0.278-0.201 0.644-0.317 1.2-0.24z"></path> <path d="m65.04 59.995c0.021 0.946-1.634 1.07-2.159 0.72 0.241-0.719 1.446-0.474 2.159-0.72z"></path> <path d="m16.32 60.234h0.72c-0.039 2.039 1.931 2.069 2.641 3.36-2.226 0.114-3.776-1.623-3.361-3.36z"></path> <path d="m27.841 60.955c0.038-0.281 0.438-0.203 0.72-0.24 1.191 2.456-1.634 3.953-3.601 2.64-0.902 0.311-1.597 0.752-2.399 0 0.617-2.404 3.268-0.426 4.8-0.239 0.32-0.415 0.875-1.827 0.48-2.161z"></path> <path d="m19.681 65.035h0.72c-0.012 1.348 0.15 2.87-1.2 2.88 0.205-0.915 0.65-1.591 0.48-2.88z"></path> <path d="m21.36 65.514c1.167-0.176 0.758 2.128 0.48 2.641-1.133-0.284-0.235-1.311-0.48-2.641z"></path> <path d="m37.2 71.035c-0.743 1.096-2.221 1.458-4.08 1.439-2.775 1.824-9.077 3.705-12.72 2.16-0.747-0.317-2.242-1.348-1.92-2.4 2.544 3.166 9.841 2.343 12.96 0.24-1.61-1.044-3.59-1.16-5.76-0.96-3.312 0.305-5.825 1.937-7.681-1.2-1.029 0.01-1.586 0.501-2.159-0.239 1.272-1.908 4.169-0.542 5.279 0.479 1.909-0.015 2.972-1.218 4.8-1.2 2.645 0.026 5.045 2.191 8.881 1.92 0.917-0.065 1.28-0.69 2.4-0.239z"></path> <path d="m36.721 71.995c1.015 0.505 0.383 2.737-0.721 2.64-0.375-0.674 0.636-1.666 0.721-2.64z"></path> <path d="m18 74.394c1.924 1.086 2.947 3.148 5.521 3.36 3.12 0.257 6.158-1.917 8.399-3.12 0.2 1.076-1.492 1.738-2.64 2.4-1.047 0.604-2.393 1.491-3.6 1.68-3.926 0.613-6.421-1.424-7.68-4.32z"></path> <path d="m59.521 97.915c-0.104 0.295-0.308 0.493-0.72 0.479-0.113-0.512 0.343-0.457 0.72-0.479z"></path> <path d="m70.08 30.234c1.732-0.361-0.159 3.007 0.721 3.841-0.434 0.743-0.735 0.128-1.681 0.239 0.858 0.848-0.048 1.34-0.239 2.4 0.336 0.699 0.826-0.426 1.439-0.24 0.116-0.756-0.736-0.543-0.479-1.439 1.835 0.296-0.031 1.622 0.72 2.88-0.702-0.493-0.76-0.918-1.92-0.48 0.127-1.819-0.756-1.151-1.44-2.16 0.789-0.908-0.478-1.299-0.24-2.399-1.04-0.16-0.646 1.113-0.72 1.92 0.134 0.636 0.929-0.999 0.72 0.479-0.012 0.941-1.367-0.415-1.199-1.199-0.436 1.085-1.707 1.333-1.681 2.88-1.165-0.195 0.062-1.864-1.439-1.2 0.187-0.214 0.258-0.542 0.24-0.96-0.596-0.035-1.165-0.045-1.2 0.479-0.348-1.84-1.949-2.952-1.44-4.319-0.769 0.19-0.542 1.378-1.2 1.68 0.227 1.164 1.168-0.833 1.2 0.72-1.046 0.684-1.995-0.476-3.359-0.239-0.18-0.739 0.658-0.462 0.479-1.2 0.9-0.181 0.523 0.916 1.2 0.96 0.097-0.618 0.374-1.036 0.96-1.681-0.123-0.677-0.581-1.019-0.72-1.68-0.882 0.249-0.223 0.918-1.44 0.48-0.295-1.095 0.842-0.759 0.96-1.44-0.341 0.021-0.68 0.04-0.72-0.24-0.989-0.188-0.451 1.149-1.44 0.96 0.194 0.446 0.311 0.97 0.721 1.2-1.042 1.024-1.136 2.736 0 3.84-0.49 0.482-0.471-0.105-0.961-0.239-0.493 0.332 0.551 1.142-0.72 0.96-1.012 0.04 0.004-0.369 0-0.721-0.426-0.275-1.095-0.828-0.479-1.439-0.913-0.354-0.048 1.072-0.96 0.72-0.345-0.352-0.185-0.761 0.479-0.72-0.22-1.672 0.253-2.567-0.24-3.84 0.236-0.673 0.641 0.348 0.96-0.24 0.259-0.354-0.647-0.834-0.479-1.2 0.225-0.489 0.414-0.984 0-2.4-0.063-0.217-0.248-0.199-0.48-0.239-0.132-0.532 0.459-0.342 0.48-0.721-0.06-0.302-0.478-0.242-0.48 0-0.465-0.176 0.276-1.142 0.721-1.199-0.49-1.082-0.211-1.057 0.239-2.16-0.434-0.16-1.241 0.506-1.68-0.48-0.677 0.044-0.299 1.141-1.2 0.96-1.124-0.029 0.262-0.349 0-0.96-0.736 0.243-1.931-0.587-2.64 0.721-0.244-0.156-0.248-0.552-0.72-0.48-1.231 0.355-1.194 1.61-2.88 0.96-0.753-0.112-0.677 0.604-0.96 0.96-0.598-0.036-0.07-0.812 0-0.96-0.902-0.182-0.812 0.628-1.2 0.96-0.689-0.293-1.322-0.351-1.44 0.48-1.093-0.694 1.098-1.611 0.72-3.12-0.711-0.064-0.487 0.855-0.72 1.2-0.797 1.181-1.741 1.725-3.359 2.159 0.424-1.335 1.494-2.025 1.68-3.6-1.049 0.231-0.981 1.579-1.44 2.4-0.314-0.085-0.377-0.423-0.72-0.48-0.399 0.32-0.08 1.359-0.48 1.68-0.808-0.217-0.027-0.536-0.479-0.96-1.067-0.141-0.682 2.023-1.68 1.2 0.626-2.439 0.955-3.693 1.92-5.76-2.149 0.65-1.554 4.046-3.601 4.8 0.077 0.557-0.038 0.922-0.239 1.2-1.114 0.234-0.326-1.435-1.44-1.2-0.771-0.051-0.584 0.856-0.96 1.2-0.715-0.005-0.308-1.132-0.72-1.44-0.038 1.163-1.772 0.628-2.16 1.44-0.703-0.203 0.144-0.772 0-1.2-1.009 0.031-0.54 1.54-1.92 1.2-0.038-1.478 0.518-2.362 0.479-3.84-1.421 0.557-1.217 2.553-0.96 3.84-0.613 0.675-1.324-0.582-1.92-0.72 0.175-2.077-0.26-4.597-1.2-6.24-2.019 1.833 2.212 4.814 0.24 6.479-0.839-0.201-1.06-1.02-1.68-1.439-0.756-0.116-0.18 1.1-0.72 1.2-1.009 0.711-1.244-1.057-2.16-1.2-0.794 0.359 0.498 0.587 0.239 1.2-1.117-0.082-1.036-1.363-1.68-1.92-0.554-0.074-0.267 0.693-0.72 0.72-1.006 0.205-0.525-1.074-0.96-1.44-0.524 0.035-0.516 0.604-0.48 1.2-0.56-0.08-1.034-0.246-1.2-0.72-0.425 0.294-0.695 0.744-1.199 0.96-0.964-0.253 0.031-0.976-0.24-1.92-0.932-0.132-0.563 1.036-1.2 1.2-1.988-0.252-3.013-1.468-3.36-3.36-0.488 0.231-0.518 0.922-0.479 1.68-0.489-0.07-0.471-0.649-0.96-0.72-0.639 0.482-0.635 1.08-0.72 1.68-0.869 6.078 0.662 13.723-0.24 19.92-0.47 3.226 1.156 6.284 0.96 9.36-0.17 2.666-0.983 4.665-1.2 7.92-0.171 2.565-0.533 4.464-0.24 7.44 0.243 2.468 1.492 5.694 2.641 7.68 1.468 2.54 4.821 5.731 6.479 8.4 0.685 1.101 1.049 2.368 1.681 3.359 0.756 1.188 1.49 2.349 2.159 2.88 5.941 4.722 16.998 1.21 21.601-1.68 2.688-1.688 4.852-4.174 7.92-5.76-5.401 5.979-13.346 11.636-24.72 10.08-0.027 1.752 0.302 3.705 0.72 5.279 1.444 5.439 4.601 10.011 6.479 14.881-2.451-2.229-3.859-5.713-5.279-9.12-1.142-2.74-2.251-5.397-2.88-9.12v-1.92c-3.511-1.21-6.164-3.277-7.44-6.721-1.141 0.87-1.579 2.802-1.92 4.32-1.513 6.744 1.129 16.328 2.4 22.08-0.734 0.174-0.706-0.414-1.44-0.24-0.175-0.654 0.477-0.482 0.479-0.96-1.617-5.775-3.287-12.394-2.64-19.68-3.254 2.67-7.015 6.097-11.285 6.954 0.497-1.286 2.023-1.769 3.12-2.4 2.988-1.72 5.991-3.746 8.641-6 0.342-1.978 1.164-3.476 1.92-5.04-2.513-4.912-6.655-7.511-8.641-13.199-1.337-3.834-1.359-8.915-0.72-13.44 0.428-3.029 1.571-6.014 1.2-9.36-0.188-1.686-0.919-3.23-0.96-4.8-0.146-5.575-0.029-11.486 0-17.04 0.016-2.97 1.141-5.338 0.96-8.16-0.02-0.298-0.04-0.663 0-0.96 1.258-9.357 14.32-14.114 24.48-15.121 4.652-0.46 9.863-0.167 15.12 0.24 2.565 0.199 4.317 0.776 6.96 1.44 0.831 0.208 1.712 1.047 2.641 1.439 1.172 0.497 2.447 0.533 3.12 0.96 0.295 0.188 0.421 0.78 0.72 0.96 0.665 0.401 1.51 0.41 2.16 0.96 1.226 1.039 2.595 2.599 3.84 4.08 1.311 1.561 2.027 3.113 2.88 4.801 1.361 2.692 3.267 7.462 3.12 11.52h-0.72c0.038 0.281 0.438 0.202 0.72 0.24-0.272 1.743 1.138 2.731-0.481 3.36zm-1.199 4.08c-0.473-0.071-0.477 0.324-0.721 0.48-0.051-0.27-0.267-0.374-0.479-0.48-0.035 0.596-0.045 1.165 0.479 1.2 0.045-0.355 0.58-0.22 0.96-0.24 0.054-0.453-0.27-0.529-0.239-0.96zm-4.08-3.359c0.041-0.682-0.812-0.469-0.48-1.44-1.24 0.347-1.177 1.628-0.96 2.88-0.815-0.84-0.367 0.041-1.2 0.24-0.036-0.764-0.544-1.056-0.479-1.92 0.614-0.025 1.144-0.136 1.439-0.48-0.98 0.262-1.184-0.256-1.439-0.72-0.222 0.578-0.703 0.897-1.2 1.2 0.726 1.028 0.285 2.644 1.439 3.6 0.188 0.155 0.738-0.111 0.961 0 0.468 0.236 0.246 1.18 0.72 0.48 0.21-0.771-0.622-0.498-0.72-0.96 0.587-0.319-0.265-0.894 0.239-0.96 0.958-0.132 0.723-0.132 1.681 0 0.027-0.293 0.071-0.568 0.479-0.48-0.113 1.337-0.688 1.437-1.92 1.2 0.212 0.588 0.72 0.881 0.48 1.92 0.964 0.035 0.635-0.615 0.479-1.2 0.678-0.442 1.605-0.635 1.68-1.68 0.074-0.554-0.693-0.267-0.72-0.72 0.548-0.783 1.213 0.043 1.68-0.721-0.489-0.15-0.067-1.212-0.96-0.96-0.401 0.641-1.529 1.71-2.159 0.721 0.654-0.023 0.482 0.399 0.96 0zm-9.841 0.96c0.045-0.355 0.58-0.221 0.96-0.24-0.329-0.547 0.619-0.902 0-0.96-0.114 0.463-1.689 0.684-0.96 1.2zm-18.96-13.92c-0.244 0.315-0.235 0.885-0.479 1.199 0.712 0.286 1.031-1.011 0.479-1.199zm8.641-15.12c-0.247 0.807 0.746 0.373 1.2 0.479-0.011-0.33 0.112-0.526 0.239-0.72-0.733-0.173-0.874 0.245-1.439 0.241zm-18.481 0.479c0.5 0.526 0.776-0.21 1.2 0.24 0.423-1.074-1.27-0.863-1.2-0.24zm3.84 0.721c0.807 0.006 1.27-0.331 1.681-0.721-0.598-0.527-1.577 0.02-1.681 0.721zm6 0.479c1.043 0.083 1.739-0.182 1.92-0.96-0.73 0.231-1.637 0.283-1.92 0.96zm3.12 0.72c-0.01-0.33 0.113-0.526 0.24-0.72-0.868-0.699-1.221 0.548-0.24 0.72zm11.761 0c0.601 0.041 0.751-0.368 0.96-0.72-0.628-0.067-1.033 0.088-0.96 0.72zm-6.961 0.48v0.479c0.146 0.014 0.284 0.036 0.24 0.24h0.48c0.014-0.146 0.036-0.284 0.24-0.24v-0.479c-0.146-0.014-0.284-0.036-0.24-0.24h-0.48c-0.014 0.147-0.036 0.284-0.24 0.24zm7.2 0.96c0.072-0.633-0.332-0.788-0.96-0.72-0.241 0.801 0.333 0.788 0.96 0.72zm-6.96 1.201c0.72 0.544 1.797-0.158 2.16-0.721-0.454 0.055-0.529-0.271-0.96-0.239 0.234 0.953-1.34 0.098-1.2 0.96zm-13.439 0.96c0.73-0.149 1.227-0.533 1.199-1.44-1.075-0.214-1.666 0.853-1.199 1.44zm7.92-0.481c0.359-0.041 0.885 0.086 0.96-0.239-0.282-0.072-0.603-1.271-0.96-0.48 0.373 0.062 0.166 0.526 0 0.719zm3.12 1.2c0.854 0.054 1.438-0.162 1.68-0.72-0.495-0.423-1.945-0.347-1.68 0.72zm4.559 0.481h0.72c0.031-0.432-0.238-0.562-0.72-0.48v0.48zm-25.439 1.199h0.479c0.013-0.307 0.308-0.332 0.24-0.72h-0.48c-0.013 0.307-0.308 0.333-0.239 0.72zm-8.401 1.681c0.355 0.125 0.604 0.354 0.96 0.479-0.029-0.399 0.777-1.527-0.24-1.439 0.211 0.77-0.622 0.497-0.72 0.96zm-4.08 2.879c1.379-0.378-0.115 1.98 1.2 2.16 0.072-1.193 0.042-2.283-0.72-2.641-0.298-1.033 0.768-1.937-0.48-1.92v2.401zm31.201 0c0.013-0.413-0.185-0.615-0.48-0.72-0.344 0.351-0.353 0.929 0.48 0.72zm-24.481 2.4c0.674-0.143 1.573-2.293 0.48-2.64 0.102 1.093-1.102 1.783-0.48 2.64zm3.84 0.48c-0.168-1.048 0.408-1.352 0.24-2.4-0.33 0.011-0.526-0.112-0.72-0.239-0.411 0.645-0.342 2.471 0.48 2.639zm13.44-1.2c-0.469-0.702-1.454 0.761-0.72 1.2 0.242-0.604 0.415 0.837 0.96 0.72 0.2-1.288 0.306-2.122 0.96-3.359-0.825 0.054-1.045 0.714-1.2 1.439zm-22.32 0c0.783 0.062 1.155-0.285 1.2-0.96-0.278-0.201-0.644-0.316-1.2-0.24v1.2zm23.28 4.08c0.35-1.971 1.485-3.154 1.68-5.28h-0.72c-0.131 1.713-1.826 4.138-0.96 5.28zm24.72-5.04v0.48c0.591 0.373 0.706-0.815 0.24-0.721-0.013 0.147-0.036 0.285-0.24 0.241zm-13.439 0.72c0.126 1.166-1.021 1.06-0.96 2.16 0.949-0.31 0.49 0.79 1.439 0.48-0.81-1.241-0.012-1.552 0.721-2.4-0.317-0.003-0.22-0.421-0.48-0.479-0.041 0.279-0.381 0.259-0.72 0.239zm-31.201 0.721c-0.182 1.083 1.604 0.898 1.2-0.24-0.556-0.077-0.921 0.037-1.2 0.24zm14.401 1.679c0.702 0.216 0.737 0.216 1.439 0-0.144 0.598-0.948 1.911 0 2.16-0.207-1.504 1.041-1.479 0.96-3.36-1.031 0.635-0.421-0.551-1.2-0.72-0.657 0.383-1.495 0.585-1.199 1.92zm-2.401-0.24c0.462 0.392 1.522-0.073 1.44-0.96-0.579 0.099-0.522-0.438-1.2-0.24 0.098 0.579-0.438 0.522-0.24 1.2zm13.201 0.721c0.497-0.463 0.916-1.004 1.2-1.681-0.566-0.309-0.447 0.031-1.2-0.24-0.287 0.418-0.936 1.697 0 1.921zm12.719-0.721c0.104-0.377 0.755-0.205 0.48-0.96-0.531-0.178-0.988 0.885-0.48 0.96zm-5.759 0.481c0.596 0.168 1.017-1.026 0.479-1.2-0.101 0.457-0.685 0.434-0.479 1.2zm4.319 0c0.646-0.017 1.154-0.549 0.721-0.96-0.633-0.073-0.788 0.332-0.721 0.96zm11.04-0.481c0.241-0.001 0.286 0.194 0.48 0.24-0.022-0.377 0.032-0.832-0.48-0.72v0.48zm-26.159 1.441c0.187-0.533 0.504-0.937 0.479-1.681h-0.72c0.143 0.498-0.296 1.577 0.241 1.681zm6.479-0.72c0.17-0.178 0.599-1.175-0.24-0.961-0.029 0.601-0.458 0.752 0.24 0.961zm16.8 1.199c0.214-0.427 0.67-0.609 0.48-1.439h-0.72c0.139 0.421-0.289 1.41 0.24 1.439zm-2.88 0c0.307 0.014 0.333 0.308 0.72 0.24 0.014-0.413-0.185-0.615-0.479-0.72 0 0.241-0.195 0.286-0.241 0.48zm0.24 6c0.782 0.062 1.155-0.284 1.2-0.96-0.783-0.062-1.155 0.285-1.2 0.96zm5.04 0.24c0.33 0.011 0.527-0.113 0.72-0.24v-0.479c-0.33 0.01-0.526-0.113-0.72-0.24v0.959zm1.92 0c0.007 0.793 1.013 0.587 1.2 1.2 0.382-0.378 0.067-1.285-0.24-1.68-0.236 0.693 0.083 0.796-0.96 0.48zm-2.879 2.401c0.628 0.067 1.032-0.088 0.96-0.721-1.034 0.314-0.297-1.143-1.2-0.96-0.343 1.045 0.82 1.103 0.24 1.681zm5.519-1.201c0.355 0.045 0.221 0.58 0.24 0.96 0.689 0.05 1.22-0.061 1.44-0.48-0.754-0.121-0.98 0.566-1.2-0.239 0.754 0.113 0.98-0.3 1.2-0.721-0.626 0.094-1.317 0.123-1.68 0.48zm2.88 2.161v0.479c0.241-0.001 0.286 0.194 0.48 0.24 0.014-0.307 0.308-0.332 0.24-0.72-0.24 0.001-0.48 0.001-0.72 0.001zm0.961 0.96c-0.907-0.072-1.776 1.508-0.721 1.92 0.281-1.159 1.352-1.529 1.92-2.4-0.862 0.359-0.641-1.521-1.92-1.439-0.018 0.897 1.035 0.723 0.721 1.919zm-1.441 0.96c0.641-0.566-0.269-2.152 0-1.44 0.001 0.651-1.008 1.123 0 1.44zm-12.719-0.241c0.923 0.376 0.476 0.189 0.239 0.96 1.719 1.127 0.619-2.757-0.239-0.96zm14.639 0.481c0.418-0.223 1.288 0.008 1.2-0.721-0.753-0.113-0.98 0.3-1.2 0.721z"></path> <path d="m53.28 34.075c0.458 0.024-0.191 0.894-0.24 1.199-0.213-0.187-0.542-0.258-0.96-0.239 0.308-0.413 1.143-0.298 1.2-0.96z"></path> <path d="m57.12 35.035c0.449 1.089-0.953 0.326-0.72 1.199-0.502-0.212 0.078-1.34 0.72-1.199z"></path> <path d="m54.721 36.955c0.384 0.944-1.037 0.083-0.96 0.72-0.576-0.214 0.521-0.731 0.96-0.72z"></path> <path d="m64.32 38.634c-0.129-0.898 1.279 0.141 1.2 0.72-0.895 0.256-0.379-0.899-1.2-0.72z"></path> <path d="m66.96 40.075c0.55-0.84 0.667 0.75 1.2 0.72 0.973-0.191-0.194-1.609 0.721-1.44 0.416 0.586 0.44 1.426 0.96 2.4 1.169-0.209 1.592 0.328 2.399 0.479 1.449 2.949 2.035 7.156 1.44 11.04-0.634 4.137-6.266 9.99-9.36 12.48-0.548 0.441-2.031 0.867-3.12 0.96-0.881 2.959-1.068 6.611-0.96 10.56 4.105 0.523 6.848 2.844 9.12 5.28 2.287 2.452 4.398 5.027 6.72 7.44 1.842 1.278 4.02 2.221 5.04 4.319-3.169-1.213-5.384-3.657-7.68-6-0.743-0.758-1.709-1.402-2.4-2.159-2.835-3.105-5.382-7.012-10.319-7.921-0.748 0.353-0.563 1.73-0.48 2.16 0.12 0.62 0.993 1.434 1.44 2.4 0.646 1.396 1.062 2.9 1.2 5.04 0.55 8.551-3.226 16.172-7.44 21.84-0.884-1.184 0.696-2.313 1.2-3.12 0.666-1.066 1.146-2.176 1.68-3.36 1.682-3.729 3.89-8.244 3.36-13.68-0.157-1.611-0.787-2.481-1.2-4.56-0.291-1.463-1.022-2.889-1.2-4.32-0.558-4.484-0.15-10.141 1.2-13.68-0.668-1.21-2.692-2.216-1.68-4.32 0.891 1.228 0.514 3.761 3.84 2.64 0.559-0.188 1.96-1.112 2.64-1.68 0.635-0.528 1.994-2.13 3.36-3.6 1.662-1.789 3.431-3.366 3.84-6 0.644-4.146-0.004-9.507-1.2-11.521-4.696-0.616-5.927 2.233-8.88 3.36 1.146-2.614 3.933-3.587 7.2-4.08-0.366-1.118-2.051-0.373-2.641-1.674z"></path> <path d="m64.561 41.514c0.066-0.567 0.641 0.275 0.96 0.24-0.06 0.302-0.478 0.242-0.48 0-0.204-0.044-0.226 0.094-0.239 0.24-0.272-0.046-0.134-0.241 0-0.24 0.043-0.204-0.095-0.226-0.241-0.24z"></path> <path d="m60.48 42.234c0.066-0.566 0.641 0.275 0.96 0.24-0.039 0.281-0.438 0.203-0.72 0.24 0.04-0.279-0.052-0.426-0.24-0.48z"></path> <path d="m60.96 45.115c0.407-0.687 0.191 1.226-0.72 0.72v-0.96c0.246-0.029 0.486 1.035 0.72 0.24z"></path> <path d="m18.96 47.754c-1.789-0.291-1.408-2.751-3.359-2.88-0.688 0.032 0.207 1.647-0.48 1.68 0.027 0.613 0.804 0.477 1.44 0.48-1.426 1.57-5.771 0.513-7.44 0 0.191-1.408 0.725-1.4 0.721-2.641-1.202-0.74-0.858 1.118-1.921 1.2-0.064-1.824 1.498-2.022 2.641-2.64-1.26-0.851-2.516 0.358-2.88 1.2-0.728-0.667 0.508-1.398 0.72-1.921 5.404-0.043 9.2 1.521 10.558 5.522zm-8.159-2.639c-0.328-1.048 0.929-0.511 0.72-1.44h-0.72c-0.29 0.542-0.695 1.055 0 1.44zm1.199 0.239c1.229-0.428 0.964 0.637 1.681 0.721 0.859 0.14 0.729-0.711 0.72-1.44-0.699-0.68-2.466-0.655-2.401 0.719z"></path> </g> <metadata></metadata></svg> 