<?xml version="1.0" encoding="UTF-8" standalone="no"?> <!-- Generator: Adobe Illustrator 13.0.2, SVG Export Plug-In . SVG Version: 6.00 Build 14948) --> <svg xmlns:rdf="http://www.w3.org/1999/02/22-rdf-syntax-ns#" xmlns="http://www.w3.org/2000/svg" xmlns:x="http://ns.adobe.com/Extensibility/1.0/" xmlns:dc="http://purl.org/dc/elements/1.1/" xmlns:i="http://ns.adobe.com/AdobeIllustrator/10.0/" xmlns:cc="http://web.resource.org/cc/" xmlns:xlink="http://www.w3.org/1999/xlink" xmlns:a="http://ns.adobe.com/AdobeSVGViewerExtensions/3.0/" xmlns:graph="http://ns.adobe.com/Graphs/1.0/" xmlns:svg="http://www.w3.org/2000/svg" xmlns:inkscape="http://www.inkscape.org/namespaces/inkscape" xmlns:sodipodi="http://sodipodi.sourceforge.net/DTD/sodipodi-0.dtd" xmlns:ns1="http://sozi.baierouge.fr" id="the_da_xA0_Image_1_" xml:space="preserve" viewBox="0 0 94.199 132.483" y="0px" x="0px"> <g clip-rule="evenodd" fill-rule="evenodd"> <path d="m61.629 1.923c1.211-0.011 1.574 0.826 1.44 2.16-0.568 0.065-0.757-1.453-1.44-0.48-0.646-0.284 0.001-1.251 0-1.68z"></path> <path d="m66.909 5.043c1.255 0.561 0.638 2.868 0 3.6-0.448-0.845 0.426-2.637 0-3.6z"></path> <path d="m80.829 30.723c-0.222 0.898-1.927 0.313-2.88 0.48 0.624-0.496 1.731-0.509 2.88-0.48z"></path> <path d="m23.469 37.683c0.073 0.554-0.693 0.267-0.72 0.72 0.38 0.594 1.679 0.098 2.16 0 0.03 0.431-0.294 0.506-0.24 0.96 1.239-0.041 2.708 0.148 3.6-0.24 0.005 0.565-0.414 0.707-0.24 1.44 0.03 0.53 1.018 0.102 1.44 0.24-1.151 0.633 0.421 1.079 1.44 0.96-1.97 1.625-3.833-0.961-6.24-1.2-1.681-0.167-3.634 0.679-5.52 0.48-1.751-0.185-3.102-0.782-3.84-2.16 2.483-0.636 4.85-1.39 8.16-1.2z"></path> <path d="m85.149 39.363c-0.527 0.733-1.537-0.277 0 0z"></path> <path d="m61.629 42.243c-1.718 0.717-2.755-0.268 0 0z"></path> <path d="m28.269 42.723c1.191-0.562 3.185 0.08 4.08 0-1.391 0.491-2.772 0.389-4.08 0z"></path> <path d="m20.589 42.963c2.442 1.459 4.948 2.987 7.68 4.32 0.804 0.393 1.903 0.567 2.4 1.44-3.821-0.659-6.001-2.958-9.12-4.32-0.194 0.045-0.239 0.241-0.48 0.24 0.721 1.65 2.752 2.315 4.32 3.12 0.88 0.452 1.809 0.76 2.64 1.2 0.779 0.413 1.656 0.778 2.16 1.44-2.959-1.68-7.8 2.224-10.8-0.72-0.044-0.92 0.196-0.087 0.72-0.24-0.474-1.125-0.407-1.717-0.24-3.12-1.044-0.989-3.622-1.613-3.36-3.12 0.701 1.194 3.821 2.387 4.56 0.72-0.003-0.477-0.655-0.305-0.48-0.96zm0 5.76c0.279 0.202 0.644 0.317 1.2 0.24-0.288-1.074 1.182-1.895 0-2.4-0.256 0.864-0.278 1.962-1.2 2.16zm1.2 1.2c1.812 0.194 4.522 0.54 5.52-0.72-1.277-1.042-2.937-1.703-4.8-2.16-0.092 1.108-0.421 1.979-0.72 2.88z"></path> <path d="m30.909 43.683c0.6-0.439 0.923 0.019 1.92-0.24 0.158 0.908-1.682 0.45-1.92 0.24z"></path> <path d="m19.149 50.643c0.655 0.304 0.957 0.963 1.44 1.44-0.655 0.639-1.366-0.703-1.44-1.44z"></path> <path d="m65.949 62.883c0.66-2.146 2.469-3.932 2.16-6.24-0.271-2.021-2.479-2.821-3.12-4.56-2.898 0.622-4.994 2.045-4.56 6-0.761-0.807 0.085-1.804-0.48-2.88 1.131-1.386 2.162-3.924 4.8-3.6 2.191 0.269 4.658 4.01 4.56 5.76-0.093 1.656-2.106 4.548-3.36 5.52z"></path> <path d="m63.069 54.723c0.779 0.501 0.998 1.562 0.96 2.88-0.602-0.678-0.719-1.841-0.96-2.88z"></path> <path d="m51.549 55.923c-0.527 0.733-1.537-0.277 0 0z"></path> <path d="m61.629 57.123c2.514 2.112 3.416 7.208-0.96 7.92 0.414-1.325 1.746-1.717 1.92-3.12 0.212-1.703-1.499-3.13-0.96-4.8z"></path> <path d="m12.429 59.283c1.717 0.079 1.979 4.642-0.72 4.56 0.566-1.308 2.441-3.077 0.72-4.56z"></path> <path d="m59.469 59.283c0.023 1.3 0.125 2.582 0.24 4.32-0.779 0.741-1.235 1.805-2.4 2.16-0.56-0.795 0.604-1.524 0.96-2.16-0.729-1.229-0.743-4.349 1.2-4.32z"></path> <path d="m10.749 62.643c-1.639 0.409-3.269-2.204-5.76-0.96 0.844-1.81 6.706-1.177 5.76 0.96z"></path> <path d="m64.269 64.803c-0.043 1.081-2.305 2.012-4.08 2.16 0.853-1.227 3.021-1.139 4.08-2.16z"></path> <path d="m56.349 66.723c0.453 0.347 1.064 0.536 0.96 1.439-0.827 0.024-1.499-0.829-0.96-1.439z"></path> <path d="m16.029 72.723c-2.617 2.088-6.654-0.48-9.36-0.48 1.236-1.037 3.12 0.259 4.8 0.24-1.374-0.752-2.65-2.577-4.32-3.12-0.959-0.312-1.949 0.35-2.64-0.48 3.307-0.982 5.837 2.482 8.88 3.36 0.974 0.281 1.651-0.196 2.64 0.48z"></path> <path d="m70.269 76.323c0.083-0.289 0.639-0.194 0.72 0 0.218 0.519-0.879 0.555-0.72 0z"></path> <path d="m69.549 78.723c1.022 0.309-0.023 1.192 0.24 2.159-0.28-0.359-0.693-0.586-0.72-1.199 0.322-0.158 0.447-0.514 0.48-0.96z"></path> <path d="m78.189 79.203c0.719 0.158-0.229 0.514 0 0.96-0.597-0.037-0.07-0.813 0-0.96z"></path> <path d="m74.589 94.563c0.877 1.032 1.425 4.239 1.92 6.96 0.596 3.271 1.431 6.096 0 8.16-0.438 0.631-1.693 0.921-2.88 1.68-5.647 3.611-12.772 8.984-18.48 12 0.005-1.104 1.382-1.437 2.16-1.92 4.452-2.768 8.798-5.855 13.68-9.12 1.422-0.951 5.306-2.697 5.52-4.32 0.469-3.55-2.052-8.784-1.92-13.437z"></path> <path d="m77.469 110.4c0.176-0.428 0.436-0.034 0.72 0 3.357 3.852 6.293 8.545 9.6 12.72 0.494 0.624 0.748 1.385 1.2 1.92 1.42 1.684 3.774 2.742 4.08 5.04-6.079-5.68-10.923-12.59-15.6-19.68z"></path> <path d="m60.429 18.003c-0.317-0.555 1.705 0.253 1.92 0.72 2.179-0.861 4.577-1.502 6.48-2.64 0.098-0.579-0.438-0.522-0.24-1.2-0.523-0.153-0.763 0.68-0.72-0.24-3.953 2.274-10.484 4.804-11.28-1.44-0.521-4.091-2.03-5.397-5.28-7.44-2.395-1.505-5.402-3.271-8.88-3.84 0.476-0.554-0.061-0.267-0.24-0.72-1.651-0.163-3.342-0.832-5.04-0.24 2.639-1.404 6.04 0.277 7.92 1.2 1.605-0.994 2.793-2.229 5.28-2.16 0.696 0.019 1.4 0.468 2.16 0.48 1.143 0.018 2.43-0.499 3.6-0.48 1.99 0.031 3.034 0.638 4.32 1.68 0.098 0.579-0.438 0.522-0.24 1.2 0.099 2.705-0.387 1.89-0.24-0.72-1.4-0.132-1.032 1.133-1.92 0.96-0.41-0.076 0.221-0.743-0.48-0.96-0.868 0.493-1.135 1.585-1.44 2.64-0.627-0.333 0.117-2.037-0.48-2.4-0.997 0.442-0.962 1.918-0.96 3.36 0.971-0.926 0.838 0.822 1.92 0.48 0.176 1.104 0.102 2.458 0.96 2.88 1.321-0.479-0.433-3.456 0.96-3.36 0.195 1.206 1.325 2.118 0.48 4.08 0.904-0.216 0.909-1.332 0.96-2.4 0.713-0.41-0.268 1.979 0.24 2.16 0.793-0.247 0.81-1.271 0.96-2.16 0.431-0.031 0.506 0.294 0.96 0.24-0.185-0.904 0.293-1.147 0.24-1.92 0.555-0.92-0.256 2.044 0 3.12 0.93-1.47 1.49-3.31 1.44-5.76 1.733 1.83-0.255 4.841-0.72 6.72 0.814-0.048 2.192-0.167 2.64-1.2 0.547 0.333 0.089 1.67 0.24 2.4-0.7 0.26-1.419 0.5-1.68 1.2 1.676 0.153 2.859-2.259 3.6-3.84 0.098 1.86-1.646 3.952-3.12 5.04 1.586 0.143 2.516-2.442 3.84-3.36v-4.32c1.562 1.472 0.68 4.254-0.24 5.76 1.523-0.157 1.604-1.756 1.92-3.12 0.499 0.062 0.065 1.054 0.48 1.2 0.281-0.039 0.203-0.438 0.24-0.72 0.489 0.231 0.519 0.922 0.48 1.68 1.269-0.416-0.298-1.993 0.24-2.4 0.691 0.299 1.042 0.34 2.16 0.48 2.21 0.276 3.44 1.248 5.52 2.16 1.451 0.637 3.111 0.821 4.32 1.68 1.644 1.168 2.525 3.102 4.56 3.6 0.467 2.115 2.794 3.576 2.4 5.76 0.807 1.354 0.965 3.355 1.92 4.56 0.346 6.596 2.167 12.19 1.44 19.44-0.532 5.31-1.697 11.013-3.84 15.36-1.308 2.652-2.202 5.387-3.12 6.72-0.42 0.611-1.253 0.879-1.68 1.44-1.205 1.586-1.549 3.855-3.36 4.56-0.569 1.911-2.152 2.808-2.64 4.801-0.65-0.589 0.732-1.175 0.48-2.16-0.741 0.219-0.797 1.123-0.96 1.92-1.132-1.594-1.664 3.646-3.36 3.84-1.169-0.66 1.012-1.344 0.48-2.88-1.146 0.803-1.917 0.263-2.4 1.2-0.7-0.382 1.026-1.879-0.24-2.16-0.188 0.412-0.361 2.161-1.2 2.64-0.079-0.879 0.267-1.333 0.48-1.92-0.566-0.587-0.446 0.358-1.2 0.24 0.943-0.649 0.462-1.404 0.96-2.64-0.003-0.564-0.655 0.087-0.48 0.479-1.297-1.397-1.456-2.708-1.2-5.04 0.641 0.662 0.521-0.283 1.2-0.24-1.15-3.876 0.596-6.5 0.72-9.84 1.127-0.247 0.639 1.121 1.68 0.96-0.091-1.188-1.531-1.028-1.92-1.92 0.39-0.658 1.086-1.152 0.48-2.16 0.193 0.127 0.39 0.25 0.72 0.24-0.138-0.995-1.144-1.608-0.96-2.88 0.033-0.227 0.464-0.815 0.48-0.72-0.038-0.22-0.848-0.482-0.96-0.96-0.033-0.141 0.396-0.442 0.24-0.72-0.626-1.116-1.858-2.564-3.36-3.12-0.136 0.862 1.472 2.043 1.92 3.12 0.003 4.37-0.482 8.071-2.4 10.56-0.814 1.057-2.411 1.489-3.36 2.64-0.989 1.199-1.237 2.207-2.64 3.601-0.712 0.707-1.573 0.958-2.64 1.439-0.224 0.176-0.364 0.437-0.48 0.72-2.208 0.606-4.565 0.15-5.28-1.439-1.271 5.129-1.982 10.817-6.96 12.24-0.989-0.778 1.434-1.791 2.16-2.4 3.087-2.433 2.562-8.479 4.56-12 0.87-0.229 0.244 1.036 0.72 1.2 6.25 4.272 9.195-4.499 13.44-6.72 3.003-4.655 3.748-13.634-3.36-13.92-3.654-0.147-5.084 2.286-7.44 4.08 1.523-2.637 4.009-4.311 7.68-4.8-2.353-1.401-5.579 0.29-7.92 0.48 0.109 1.229-1.785 0.456-1.68 1.68-0.887 0.153-2.391-0.311-2.88 0.24 0.435 0.525 1.879 0.041 2.4 0.48-1.329 0.39-1.772 1.233-1.2 2.4-1.26 0.14-1.817-0.423-3.12-0.24 0.422 0.618 1.865 0.215 1.68 1.44-1.71-0.37-3.058-1.102-5.04-1.2 0.01-1.351 0.322-1.48 0-2.64 0.431-0.03 0.506 0.294 0.96 0.24 0.21-0.771-0.623-0.498-0.72-0.96-0.242-0.722 0.535-0.425 0.96-0.479-0.029-0.691-1.023-0.417-0.96-1.2 0.822 0.19 1.279-0.267 0.48-0.48 0.218-0.508 0.964 0.453 1.68 0.24-0.149-0.731-1.291-0.469-1.44-1.2 0.138-0.514 0.986-1.147 0-1.44-0.041-0.521 0.851-0.109 1.2-0.24-1.088-0.722-1.899-2.37-1.2-3.6-1.022-1.184-1.756-1.022 0.48-0.72-0.106-0.934-1.363-0.717-2.16-0.96-0.274-1.406-1.854-1.506-2.4-2.64 0.601 0.199 0.942 0.657 1.68 0.72-0.692-1.227-2.546-1.294-2.88-2.88 0.275 0.074 1.584 0.47 0.96 0 0.865-0.614 1.368 1.184 2.88 0.72-0.176-0.224-0.437-0.364-0.72-0.48 0.399-0.638 1.656 0.69 2.16 0-1.257-0.983-3.713-0.768-4.8-1.92 0.567-0.317 1.914 0.638 2.88 0.72-0.495-1.034-1.541-0.694-2.16-1.2 0.086 0.07 0.286-0.887-0.72-0.96 0.301-0.439 1.298 0.446 2.16 0.24-0.181-1.019-1.33-1.07-2.16-1.44 0.221-0.654 0.75 0.335 1.44 0-0.301-0.941-0.319-2.273-1.44-2.4-0.033-0.948 1.158 0.445 1.92 0.24-0.158-0.322-0.513-0.447-0.96-0.48 0.256-0.949 0.728 0.061 1.44 0-0.083-0.637-0.63-0.81-1.2-0.96 0.133-0.569 0.928-0.996 1.44-0.48-0.206-0.193-0.143-0.657-0.48-0.72 0.204-0.703 0.773 0.144 1.2 0-0.377-1.575-1.075-1.311-2.4-2.4 0.354 0.091 1.479-0.753 0.48-0.96-0.041-0.521 0.851-0.109 1.2-0.24-0.218-0.422-0.841-0.439-1.2-0.72 0.054-0.346 0.716-0.083 0.72-0.48-0.589-0.53-0.708-1.532-1.68-1.68-0.172-0.652 1.131 0.171 0.96-0.48-1.216-0.464-2.537-0.823-3.84-1.2-0.112-0.512 0.343-0.457 0.72-0.48-0.203-0.917-1.233-1.006-2.4-0.96-1.683-0.797-4.346-0.614-6.24-1.2 1.14-0.46 2.529-0.67 3.6-1.2-1.034 0.011-3.932 0.225-4.8 1.2-1.047-0.124-2.123-0.492-2.88 0.24-0.665-0.527 0.761-0.984 0.72-1.68-1.278 0.482-1.734 1.786-3.6 1.68 0.085-0.315 0.423-0.377 0.48-0.72-1.619-0.2-2.451 1.78-3.6 2.88-0.358 0.343-0.914 0.386-1.2 0.72-2.9 3.388-5.148 9.435-7.44 14.4-0.821 1.778-2.202 3.513-2.4 4.8-0.192 1.244 0.542 2.53 0.48 3.84-0.201 4.189-4.947 7.632-7.44 10.32-1.103 1.188-4.405 4.17-4.56 5.28-0.516 3.701 5.083 3.216 5.76 5.52 0.699 2.379-1.835 3.172-2.16 4.8-0.351 1.759 0.385 2.798 1.68 3.6-0.109 1.012-1.219 1.021-1.44 1.92-0.021 2.178 2.672 2.388 4.56 1.921 0.812-0.114 1.143-1.562 2.16-0.721-0.834 1.246-2.748 1.412-4.8 1.44 0.101 1.503 0.822 2.092 0.72 3.359-0.187 2.321-2.587 3.294-2.16 6.721 0.09 0.722 0.257 1.185 0.72 1.92 1.848 2.935 5.842 3.063 9.36 3.359 4.813 0.406 9.276 1.687 12.72 4.32 2.263 3.257 5.539 5.501 6.24 10.32 0.033 0.832-1.216 0.384-1.2 1.2 1.68 0.349 2.897-1.165 4.32-1.92 3.294-1.748 7.158-3.12 11.04-4.801 3.454-1.494 8.253-3.565 12-5.04 3.795-1.493 7.592-2.8 10.56-4.8 0.562-0.378 1.398-0.974 1.68-1.439 0.502-0.831 0.3-2.146 0.72-3.12 0.338-0.784 1.066-2.398 2.16-3.36-0.219 3.564-3.38 4.84-2.16 9.12 0.391 0.809 1.375 1.024 1.44 2.16-0.295 1.306-1.626 1.574-2.64 2.16-4.583 3.429-10.547 6.203-15.84 9.12-7.165 3.948-13.814 8.684-20.88 12.96-1.222 0.739-2.472 1.329-3.6 2.159-2.009 1.479-4.049 3.261-6.48 4.801-2.126 1.346-4.275 2.916-6.48 4.56-1.077 0.803-1.894 2.112-3.36 2.16 1.861-1.819 3.863-3.497 6-5.04 0.137-1.464 0.621-2.579 0.96-3.84-0.621-1.059-1.996-1.364-2.64-2.4-1.668 1.772-3.514 3.366-5.52 4.8-0.387 1.044-1.131 1.856-1.68 2.88-0.508 0.949-0.694 2.269-1.68 2.881-0.232-0.849 0.359-1.825 0.72-2.641 0.967-2.182 2.149-3.864 3.84-5.52 1.101-1.078 2.297-2.017 3.84-2.88v-1.44c3.012-4.428 5.979-8.9 10.8-11.52-0.684-1.733 0.748-2.543 1.44-3.601 0.792 1.042-0.506 2.046-0.96 2.641 0.034 0.687 1.001 0.438 1.68 0.479-0.202-1.217-0.407-2.467 0.24-3.36-2.913-6.335-7.536-9.913-14.64-10.8-3.808-0.475-9.229-0.216-11.76-2.88-2.172-2.285-1.839-5.116-0.72-7.68 0.828-1.897 1.538-3.842 0.24-6-0.613-1.021-3.141-3.04-0.48-4.32-2.954-2.722 0.248-5.401 0.96-8.4-2.077-1.896-6.697-2.349-5.52-6.72 1.396-0.966 2.391-2.387 3.6-3.84 3.695-4.438 9.207-7.176 7.68-15.12 4.014-7.185 6.315-16.084 12.24-21.36-0.041-8.271 5.188-13.161 11.28-16.08h1.68c-3.027 1.053-5.925 2.235-7.44 4.8 1.325-0.435 1.715-1.806 3.12-2.16-0.289 0.912-1.177 1.223-1.44 2.16 2.139-0.821 3.123-2.797 5.28-3.6-0.323 0.881-2.626 1.851-3.12 3.36 2.237-1.043 3.294-3.266 6.24-3.6-2.646 1.274-5.004 2.836-6.24 5.52 1.225 0.133 2.13-1.992 3.12-2.88 1.789-0.051 1.7-1.979 3.84-1.68-0.82 0.779-1.67 1.53-2.88 1.92 0.074 0.326 0.601 0.199 0.96 0.24-0.217 0.423-0.883 0.396-0.96 0.96 2.231-0.191 3.742-1.759 6.96-1.92-0.801 0.489-0.191 0.519 0.72 0.48-0.884 0.716-2.852 0.348-3.6 1.2 0.06 0.302 0.477 0.242 0.48 0-0.088 1.355-2.923 2.035-3.12 4.08 1.64-1.001 2.366-2.914 4.8-3.12-0.5 1.18-2.459 0.901-2.64 2.4 2.176-0.943 3.482-2.758 6.72-2.64-1.973 1.147-4.74 1.5-5.52 3.84 1.068-0.072 2.64-1.24 4.08-2.16 0.614-0.011 0.293 0.178 0.24 0.48 0.981 0.101 0.97-0.79 2.16-0.48-1.935 1.186-3.385 2.855-4.8 4.56 0.065 0.565 1.063 0.146 0.96-0.24 0.597 0.927-1.451 1.262-1.44 2.4 2.166-0.555 2.562-2.878 4.08-4.08 1.717 0.046 2.52-1.276 3.84-1.44 0.882-0.109 1.569 0.698 2.64 0.24-0.389 0.886 0.62 0.434 0.96 0.72 0.712 0.6 1.173 1.532 1.2 2.88-0.711-0.53-0.38 1.056-1.2 0-0.05 0.689 0.061 1.219 0.48 1.44 0.281-0.039 0.203-0.438 0.24-0.72 0.642 1.438 0.623 3.537 1.92 4.32 1.542-0.102 2.257 0.623 3.6 0.72 0.082-0.479-0.049-0.748-0.48-0.717zm15.36 63.84c0.098-0.405 1.131-1.079 0.48-1.44 0.04 0.543-1.154 1.055-0.48 1.44zm-23.04-76.56c0.591-0.889-0.015-2.286-0.96-2.4-0.117 1.236 0.183 2.057 0.96 2.4zm1.2 0.48c0.5-0.38 0.081-1.679 0.48-2.16-0.579 0.098-0.522-0.438-1.2-0.24 0.08 0.96-0.309 2.388 0.72 2.4zm-18 0h0.96c-0.041-0.359 0.085-0.886-0.24-0.96-0.239 0.321-0.648 0.471-0.72 0.96zm-5.52 2.88c-0.035-0.319 0.807-0.893 0.24-0.96 0.036 0.319-0.976 0.724-0.24 0.96zm-1.2 1.44c0.637-0.083 0.81-0.63 0.96-1.2-0.888-0.169-0.599 0.841-0.96 1.2zm18.72 1.92c0.332-0.869 1.517-0.883 1.92-1.68-0.569-0.382-2.32 1.118-1.92 1.68zm11.52-0.48c0.532 0.177 0.989-0.885 0.48-0.96-0.125 0.355-0.355 0.604-0.48 0.96zm2.16 0.24c0.652-0.148 1.124-0.476 1.44-0.96h-1.2c0.054 0.453-0.27 0.53-0.24 0.96zm2.16-0.24h0.48v-0.48h-0.48v0.48zm-26.4 4.08c1.877-0.523 3.393-1.407 4.08-3.12-1.783 0.617-2.544 2.256-4.08 3.12zm16.56-2.64c-1.147-0.668-0.581 0.787 0 0zm4.8 0.72c1.039 0.079 1.589-0.331 1.92-0.96-0.797 0.163-1.701 0.219-1.92 0.96zm-15.12 2.64c2.016-0.066 3.225-2.211 3.36-3.36-0.548 1.692-2.599 1.88-3.36 3.36zm23.04-2.88c-0.388 1.292-2.054 1.306-2.64 2.4 1.552-0.528 3.227-0.933 3.84-2.4h-1.2zm-29.28 0.96c0.413 0.013 0.615-0.185 0.72-0.48-0.413-0.013-0.615 0.184-0.72 0.48zm-3.36 0.48c0.377-0.023 0.833 0.032 0.72-0.48h-0.48c0.001 0.241-0.194 0.285-0.24 0.48zm26.88 0.72h-1.92c-0.091 1.242 1.82 0.665 1.92 0zm-18.72 1.2c-1.692-0.58-1.4 0.82 0 0zm10.32 0.48c-1.147-0.667-0.581 0.787 0 0zm14.88 0.24c0.282 0.038 0.681-0.042 0.72 0.24-0.146 0.014-0.284 0.036-0.24 0.24 0.427-0.133 0.997-0.124 1.2-0.48-0.187-0.053-0.279-0.201-0.24-0.48-0.69-0.05-1.219 0.061-1.44 0.48zm3.12 0.24h0.72c0.031-0.431-0.238-0.562-0.72-0.48v0.48zm-25.44 0.24c-0.912-0.664-1.055 0.88 0 0zm6.48 0.96c1.821-0.217 3.518 0.957 4.56 0.72-1.816-0.503-3.021-1.619-5.52-1.44-0.384 0.945 1.036 0.083 0.96 0.72zm3.36-0.24c1.221-0.386 2.082 1.203 2.64 0-0.303-0.379-3.133-0.379-2.64 0zm8.88 0.24c0.652-0.405 1.124 0.381 1.44-0.48-0.582-0.08-1.943 0.267-1.44 0.48zm-6 0c0.912 0.663 1.055-0.88 0 0zm-3.84 0.96c-0.64-0.627-1.798-0.532-2.4-0.24 0.723 0.111 2.038 1.246 2.4 0.24zm-2.88 0.96c-2.343-1.383-2.019 0.762 0 0zm12.48-0.24c-0.359 0.041-0.886-0.086-0.96 0.24 0.359-0.041 0.886 0.086 0.96-0.24zm-0.48 0.96c-0.324-0.076-0.458-0.342-0.96-0.24-0.384 0.668 1.037 0.663 0.96 0.24zm13.92-0.24c-0.808 0.152-2.229-0.309-2.64 0.24 1.089 0.111 3.728 0.508 2.64-0.24zm12.48 1.2c0.013-0.413-0.185-0.615-0.48-0.72-0.013 0.413 0.185 0.615 0.48 0.72zm-30.96 1.44c1.863 0.459 4.796 1.121 6.72 0.72-0.871-0.409-1.822-0.738-2.4-1.44 1.278-0.138 2.147 0.604 2.88-0.24-2.583-0.059-5.248-1.31-7.68-0.72 2.554-0.295 1.89 1.299 0.48 1.68zm11.04-1.68c-0.307-0.013-0.332-0.308-0.72-0.24-0.373 0.59 0.815 0.706 0.72 0.24zm-20.16 0.72c-0.457-0.103-0.603-0.517-1.2-0.48-0.154 0.582 1.144 0.899 1.2 0.48zm4.56-0.24c-0.596 0.312-0.996-0.704-1.2 0 0.146 0.138 1.138 0.562 1.2 0zm26.16 0.48c-0.146-0.138-1.138-0.562-1.2 0 0.146 0.138 1.138 0.562 1.2 0zm-29.04 0.24c-0.447 0.229-0.802-0.719-0.96 0 0.147 0.07 0.924 0.597 0.96 0zm24 0.48c-0.713 0.691 0.601 0.417 0.48 1.2-0.459 1.174-1.019 0.553-1.68 0.72-0.339 1.059 1.436 0.004 1.44 0.72-1.835 0.718 1.059 1.865-0.48 2.16 1.851 0.15 3.611 2.139 4.08 0.24h0.72c-0.35 0.563-0.597 0.537 0 0.96-0.693 0.746-2.78 0.1-3.36 0.96 0.349 0.131 1.24-0.281 1.2 0.24-0.627 0.094-1.317 0.124-1.68 0.48 2.488 0.365 4.511-0.298 7.44 0 0.43 0.226 1.334 1.205 1.92 0.48-0.658-0.005-0.57-1.132-0.24-1.44-0.147-0.333-0.924-0.036-0.96-0.48 0.454-0.106 1.446 0.327 1.2-0.48-2.969-0.87-4.948-2.732-8.88-2.64 1.922-0.158 4.478 0.318 6-0.24-0.642-0.159-1.5-0.101-1.92-0.48 0.497-0.143 1.577 0.296 1.68-0.24-1.201 0.001-1.021-1.379-2.64-0.96 0.575-0.602 0.104-0.759 0.72-1.2-1.394-0.178-3.717-0.533-5.04 0zm-4.8 0.48c0.689 0.05 1.219-0.061 1.44-0.48-0.689-0.05-1.219 0.06-1.44 0.48zm14.16 0.72c-0.399-0.881-1.36-1.2-2.64-1.2 0.149 1.13 1.674 0.886 2.64 1.2zm-25.44 0.48c-1.099 0.101-2.709-0.309-3.12 0.48 0.729 0.151 2.067-0.307 2.4 0.24-0.481 1.863-3.543 0.934-4.8 1.44 1.67 0.729 4.86-0.06 6.24 0.96-1.068 0.132-2.21 0.189-2.88 0.72 0.612 0.028 1.235 0.045 1.2 0.72-1.382 0.298-3.388-0.028-4.08 0.96 0.981 0.248 2.313-0.388 2.64 0-0.261 1.02-2.133 0.427-2.64 1.2 0.938 0.122 3.099-0.037 2.64 0.72 2.439 0.279 3.604-0.716 6-0.479 1.089-1.458 4.416 0.765 5.52-0.72-2.06-0.18-4.459-0.02-5.52-1.2 0.729-0.15 2.067 0.308 2.4-0.24-1.044-0.956-3.103-0.897-4.32-1.68 2.184-0.34 4.26 0.695 6 0-2.246-1.034-4.962-1.598-7.68-2.16 2.369-0.789 5.282 1.063 6.96-0.48-0.968 0.008-1.265-0.655-2.16-0.72-0.673 0.003 0.571 0.655-0.48 0.48-0.431 0.031-0.562-0.238-0.48-0.72-2.219 0.362-4.26-0.521-4.56-0.24 0.646-0.167 0.464 0.495 0.72 0.719zm9.36 0.24c-0.542 0.057-1.666 0.026-1.92 0.72 1.433-0.432 3.558 0.38 4.56-0.72-0.939 0.243-1.86-0.083-2.64 0zm18 0.72c0.043-0.524-0.197-0.764-0.72-0.72-0.165 0.645 0.496 0.464 0.72 0.72zm-31.2 3.12c0.413 0.013 0.615-0.185 0.72-0.48-0.413-0.013-0.615 0.185-0.72 0.48zm-9.12 1.2h0.48v-0.48h-0.48v0.48zm30.24 2.4c0.926 0.034 2.107-0.188 2.4 0.48-0.098 0.462-0.93 0.189-0.72 0.96 0.349 0.131 1.24-0.28 1.2 0.24-0.284 0.116-0.544 0.256-0.72 0.48 0.203 0.517 1.53-0.09 1.68 0.48-0.595-0.036-1.165-0.045-1.2 0.48 1.337 0.244-0.553 0.482-0.24 1.2 2.586-0.186 4.473 0.327 6.96 0.24 0.245-1.044-0.497-1.104-0.72-1.68 0.547 0.067 0.902-0.058 0.96-0.48-1.039-0.881-2.937-0.903-3.84-1.92 2.013 0.15 4.01 1.587 5.76 1.2-2.192-2.414-8.374-4.433-11.52-1.68zm-21.6 2.16c1.228 0.337 1.894-1.132 2.88-0.24-0.45 0.4-1.402 0.445-0.48 0.96-0.349 0.131-1.24-0.28-1.2 0.24 1.337 0.296 0.59 0.202 0.24 0.96 0.729 0.15 2.067-0.307 2.4 0.24-1.229 0.033-1.747-0.188-1.92 0.24 0.188-0.464 2.984 0.265 0.72 0.72 1.651-0.398 3.483 0.859 4.32-0.24 0.013 0.399 0.09 0.429 0.48 0.48 1.363 0.178 3.688 0.337 4.8 0-0.713-0.727-2.55-0.33-3.12-1.2 0.848-0.112 2.312 0.393 2.16-0.72-0.69-0.271-1.872-0.049-2.4-0.48 0.259-0.701 2.142 0.221 2.4-0.48-1.725-1.396-6.158-0.083-8.16-1.2 1.91-0.25 5.089 0.77 5.28-1.2-3.173-0.392-7.008-0.18-8.4 1.92zm21.6 0c0.377-0.023 0.832 0.032 0.72-0.48h-0.48c0.001 0.241-0.195 0.286-0.24 0.48zm0.96 0.24c0.547 0.067 0.902-0.058 0.96-0.48-0.447 0.033-0.802 0.158-0.96 0.48zm-4.08 0.48c-1.453-0.226-4.869 0.059-6.24 0 1.573 0.655 4.672 0.689 6.24 0zm1.68 3.12c0.601 0.041 0.751-0.369 0.96-0.72-0.601-0.041-0.751 0.369-0.96 0.72zm4.56-0.48c-0.531 0.346 0.302 0.585-0.24 0.72-1.863 0.002-3.886 0.768-5.52 0.24 0.535 0.981 2.135 0.35 3.12 0.48 0.932 0.124 1.801 0.464 2.16 0.72-1.243 0.325-2.204-0.486-2.64 0.72 2.523-0.359 6.872 0.097 10.08 0.48 0.079-1.039-1.329-0.591-1.2-1.68 0.98 0.266 1.757 0.346 2.16-0.48-0.757 0.117-0.848-0.433-1.68-0.24 0.013-0.307 0.308-0.333 0.24-0.72-1.789-0.936-4.178-0.167-6.48-0.24zm-21.6 0.72c-1.046 0.098-2.437-0.481-2.4 0.48 0.53-0.358 2.938-0.547 3.12 0.24-0.758-0.038-1.448-0.008-1.68 0.48 1.339-0.059 2.667-0.106 2.64 1.2-1.479 0.157-2.922-0.727-3.84 0.24 0.777 0.503 2.323 0.237 3.12 0.72-0.181 0.779-2.346-0.426-2.16 0.72 2.723-0.087 3.733-0.416 6.72-0.24 0.33-0.547-0.619-0.902 0-0.96 0.28-0.538 5.935 0.353 3.36-0.24-0.701-0.659-2.047-0.673-2.64-1.44 0.077-0.563 0.743-0.537 0.96-0.96-1.619-0.804-4.744-0.47-7.2-0.24zm18.72 3.12c-0.912-0.664-1.055 0.88 0 0zm1.92 0.24c0.186 0.054 0.473 0.006 0.48 0.24-3.374-0.166-3.021 0.293-1.2 0.48 1.705 0.175 3.949 0.088 4.08 1.2-1.845 0.44-4.093-0.852-5.04 0.24 1.542 0.272 5.748 0.891 5.04 1.92 1.199 0.161 1.99 0.73 3.12 0.96-0.684-1.129-0.167-0.724 0.72-1.2-1.013-0.506-1.797-1.243-2.64-1.92 1.302-0.022 1.799 0.761 3.12 0.72 0.308-0.948-0.699-0.581-0.72-1.2 0.359-0.041 0.886 0.086 0.96-0.24-1.731-1.672-4.763-1.839-7.92-1.2zm-14.64 0.48c0.547 0.067 0.902-0.058 0.96-0.48-0.454 0.054-0.53-0.271-0.96-0.24v0.72zm-4.8 0.96c-0.018 0.331 2.995 0.582 3.36 0.48-0.552-0.879-3.334-0.953-3.36-0.48zm0.96 1.44c1.361 0.168 3.371 0.257 3.84-0.48-3.222 0.34-5.857-1.181-8.4-0.72 1.242 0.111 2.994 1.006 4.56 1.2zm25.68 4.8c-1.255-1.146-3.119-2.958-5.04-2.64 0.359 0.281 0.982 0.298 1.2 0.72-1.155-0.125-2.048-0.511-3.12-0.72-0.264 1.144 1.43 0.33 1.44 1.2-0.147 0.333-0.924 0.036-0.96 0.48 0.447 0.033 0.802 0.158 0.96 0.48-0.497 0.143-1.577-0.296-1.68 0.24 0.879 0.316 1.704-0.027 1.2 1.2 2.189 0.891 3.021 0.47 4.8 0.24-0.604-0.516-1.255-0.985-1.92-1.44 1.229-0.18 2.119 1.23 2.88 0.72-0.266-0.162-1.245-0.797-0.72-0.96 0.023 0.331 0.937 0.936 0.96 0.48zm-0.24 2.16c0.165-0.645-0.496-0.464-0.72-0.72-0.166 0.645 0.496 0.464 0.72 0.72zm-1.68 1.44c-1.236-0.926-3.958-1.638-5.76-1.2 1.674 0.488 4.24 1.356 5.76 1.2zm-9.6 15.12c0.595-1.025-0.796-1.844-1.44-2.4 0.267 1.013 0.737 1.823 1.44 2.4zm-0.96 2.88c0.584-0.451-0.503-2.075-0.96-1.439 0.538 0.261 0.422 1.177 0.96 1.439zm-1.92 0.96c0.607 0.253 1.064-0.81 0.48-0.96 0.175 0.655-0.477 0.483-0.48 0.96zm1.68-0.241c0.307 0.014 0.332 0.308 0.72 0.24 0.013-0.413-0.185-0.615-0.48-0.72 0.001 0.241-0.194 0.286-0.24 0.48zm7.2 0.721c0.039-0.168-0.083-1.397-0.24-0.721-0.211 0.914 0.129 1.203 0.24 0.721zm-2.16 1.44c0.17-0.177 0.598-1.175-0.24-0.96 0.041 0.359-0.086 0.885 0.24 0.96zm-1.92 2.879c0.646 0.166 0.464-0.496 0.72-0.72-0.523-0.042-0.764 0.197-0.72 0.72zm-4.08 13.201c-2.433 0.895-3.986 2.024-6.24 3.12-1.368 0.665-2.905 1.301-4.56 1.92-6.069 2.272-12.792 5.127-18.48 7.68-2.376 1.067-4.655 2.366-6.48 3.36-0.822 0.448-1.781 0.539-2.4 0.96-4.038 2.746-4.252 8.022-5.76 12.96-1.562 0.997-3.083 2.037-5.28 2.4 0.552 1.055-0.786 1.375-0.48 2.88 4.468-2.088 8.048-5.541 12-8.4 3.924-2.839 8.154-5.435 12.24-8.16 3.067-2.045 6.414-3.908 9.6-5.52 1.193-0.604 2.209-1.273 3.36-1.92 4.335-2.435 9.206-3.992 12.96-7.44-0.15-1.288 0.39-3.267-0.48-3.837zm-41.04 16.557c-2.193 1.435-3.503 2.875-5.28 4.8-2.222 2.408-5.21 4.711-6 8.16 0.835 1.005 1.939 1.74 3.36 2.159 1.608-1.352 4.553-1.367 5.04-3.84-1.059 0.073-2.765 1.474-3.36 0.48 1.299-0.621 2.752-1.088 3.84-1.92 0.544-3.776 1.847-6.793 3.6-9.36-0.457-0.1-0.603-0.51-1.2-0.48z"></path> <path d="m65.229 7.443c1.033-0.9-0.449-5.737 0.72-2.88 0.271 0.663 0.372 2.63-0.72 2.88z"></path> <path d="m57.789 5.283c0.058-0.619 0.413 0.33 0.96 0-0.036 0.597-0.812 0.07-0.96 0z"></path> <path d="m67.389 15.123c0.219 0.438-1.726 1.744-2.64 2.16-0.342 0.156-0.898 0.06-1.2 0.24 0.939-1.141 2.859-1.301 3.84-2.4z"></path> <path d="m62.589 23.283c-0.631 0.592-1.391-0.693 0 0z"></path> <path d="m76.749 24.243c0.519 0.201 0.819 0.622 1.68 0.48-0.289 0.671-1.724 0.196-2.16 0.72-0.538-0.175 0.53-0.722 0.48-1.2z"></path> <path d="m49.389 55.683c0.058-0.619 0.413 0.33 0.96 0-0.036 0.597-0.813 0.07-0.96 0z"></path> <path d="m71.469 77.042c-0.041 0.681-0.44 1-0.48 1.681-0.264-0.05-0.201-1.782 0.48-1.681z"></path> <path d="m30.909 103.2c0.294 0.958-0.911 1.346-1.44 1.92-1.688 1.833-3.71 4.087-5.04 6.48-0.018 0.01-0.238-0.013-0.24 0 0.414-2.63 4.577-6.15 6.72-8.4z"></path> </g> <metadata></metadata></svg> 