<?xml version="1.0" encoding="UTF-8" standalone="no"?> <!-- Created with Inkscape (http://www.inkscape.org/) --> <svg xmlns:inkscape="http://www.inkscape.org/namespaces/inkscape" xmlns:rdf="http://www.w3.org/1999/02/22-rdf-syntax-ns#" xmlns="http://www.w3.org/2000/svg" xmlns:sodipodi="http://sodipodi.sourceforge.net/DTD/sodipodi-0.dtd" xmlns:cc="http://web.resource.org/cc/" xmlns:xlink="http://www.w3.org/1999/xlink" xmlns:dc="http://purl.org/dc/elements/1.1/" xmlns:svg="http://www.w3.org/2000/svg" xmlns:ns1="http://sozi.baierouge.fr" id="svg2" sodipodi:docname="addon_the_sandcastle.svg" viewBox="0 0 605.69 464.88" sodipodi:version="0.32" inkscape:output_extension="org.inkscape.output.svg.inkscape" inkscape:version="0.45.1" sodipodi:docbase="/Users/johnolsen/Desktop"><defs id="defs4"><filter id="filter4196" inkscape:collect="always"><feGaussianBlur id="feGaussianBlur4198" stdDeviation="4.6830974" inkscape:collect="always"></feGaussianBlur></filter><linearGradient id="linearGradient4201" y2="328.5" gradientUnits="userSpaceOnUse" x2="307.5" gradientTransform="translate(4)" y1="321.01" x1="395.15" inkscape:collect="always"><stop id="stop2218" style="stop-color:#d0580a" offset="0"></stop><stop id="stop2220" style="stop-color:#d59955;stop-opacity:0" offset="1"></stop></linearGradient><linearGradient id="linearGradient4211" y2="380.49" gradientUnits="userSpaceOnUse" x2="171.45" y1="382.02" x1="105.44" inkscape:collect="always"><stop id="stop4207" style="stop-color:#ffc687" offset="0"></stop><stop id="stop4209" style="stop-color:#ff7f2a;stop-opacity:0" offset="1"></stop></linearGradient><filter id="filter6218" inkscape:collect="always"><feGaussianBlur id="feGaussianBlur6220" stdDeviation="3.0240192" inkscape:collect="always"></feGaussianBlur></filter><linearGradient id="linearGradient6228" y2="484.41" gradientUnits="userSpaceOnUse" x2="699.58" y1="337.11" x1="427.15" inkscape:collect="always"><stop id="stop6224" style="stop-color:#a05a2c" offset="0"></stop><stop id="stop6226" style="stop-color:#a05a2c;stop-opacity:0" offset="1"></stop></linearGradient><linearGradient id="linearGradient6239" y2="185.23" gradientUnits="userSpaceOnUse" x2="460.47" gradientTransform="matrix(.84752 0 0 .84752 83.591 -18.924)" y1="124.79" x1="396.58" inkscape:collect="always"><stop id="stop5168" style="stop-color:#fb7a7b" offset="0"></stop><stop id="stop5170" style="stop-color:#d62a2a;stop-opacity:0" offset="1"></stop></linearGradient><linearGradient id="linearGradient6241" y2="398.88" gradientUnits="userSpaceOnUse" x2="602.21" gradientTransform="matrix(.84195 -.097566 .087073 .84303 -1.3321 24.274)" y1="311.37" x1="588.73" inkscape:collect="always"><stop id="stop4170" style="stop-color:#d62a2a" offset="0"></stop><stop id="stop4172" style="stop-color:#53070a" offset="1"></stop></linearGradient></defs><g id="layer1" inkscape:label="Layer 1" inkscape:groupmode="layer" transform="translate(-80.272 -42.776)"><g id="g7230" inkscape:export-ydpi="72" inkscape:export-xdpi="72" inkscape:export-filename="F:\Drawings\beach critters\sandcastle.png"><path id="path4224" sodipodi:nodetypes="cccccccccccccc" style="color:#000000;fill-rule:evenodd;filter:url(#filter6218);fill:url(#linearGradient6228)" d="m412.82 313.71c19.37-9.42 41.2-11.48 61.42-18.43 32.06-7.31 65.26-4.84 97.61-9.97 15.99 1.94 30.03 12.43 36.64 27.05 11.05 15.13 27.76 24.99 38.68 40.24 13.27 13.83 11.95 29.15 27.91 40.38 16.68 9.8 9.42 23.9 8.67 42.84-15.96 24.53-31.1 28.2-61.99 37.15-39.04 12.29-59.01 12.6-91.03 17.88-24.5 3.98-85.08-6.25-115.19-4.08-118.7-11.01-68.39-22.03-76.3-51.81-3.04-18.78 29.96-58.89 31.62-77.3 2.4-15.65 10.35-31.55 25.72-37.92 4.94-2.97 10.25-6.25 16.24-6.03z"></path><g id="g6230" transform="matrix(0.954 0 0 .91059 23.57 21.859)"><g id="g2191" style="fill:#d62a2a" transform="matrix(-.25966 -.55152 .52093 -.25146 351.03 458.23)"><path id="path2193" sodipodi:nodetypes="cccccc" style="color:#000000;fill-rule:evenodd;fill:#d62a2a" d="m181.93 82.392c-29.17 96.708-99.117 304-135.1 405.75 73.59 75.46 154.01 104.76 252.03 99.28 88.14 1.79 145.07-22.01 250.64-99.41-34.23-88.45-111.92-314.69-145.17-405.54-85.02-3.111-129.35-2.652-222.4-0.078z"></path><path id="path2195" sodipodi:rx="115.78947" sodipodi:ry="42.69006" style="color:#000000;fill-rule:evenodd;fill:#d62a2a" sodipodi:type="arc" d="m409.36 125.73a115.79 42.69 0 1 1 -231.58 0 115.79 42.69 0 1 1 231.58 0z" transform="translate(-1.2778 -28.921)" sodipodi:cy="125.731" sodipodi:cx="293.56726"></path></g><path id="path5164" sodipodi:nodetypes="cssssssssssssssssssssssssssssssssssc" style="fill-rule:evenodd;color:#000000;fill:url(#linearGradient6239)" d="m324.58 170.46c2-4.43 43.65-40.98 46.5-45.3 2.72-4.12 6.12-8.16 9.47-11.8 3.43-3.73 7.42-6.79 10.68-10.53 4.22-4.84 9.87-9.207 14.57-13.669 5.31-5.041 10.66-10.389 15.03-16.267 4.51-6.063 9.71-11.883 15.05-17.275 4.64-4.689 10.39-9.349 15.89-13.014 3.19-2.129 5.99-5.075 8.52-7.913 1.6-1.793 2-1.116 3.53-0.987 2.24 0.189 5.66 3.691 7.7 4.723 5.98 3.022 12.31 5.313 17.67 9.446 4.31 3.312 9.37 5.944 13.92 8.962 3.09 2.052 5.82 5.226 8.94 7.452 4.81 3.433 9.4 6.195 13.77 10.285 2.63 2.462-3.5 8.928-4.68 12.237-2.54 7.159-4.59 13.91-7.96 20.8-4.89 10.02-11.7 18.98-17.23 28.65-5.59 9.79-13.69 18.07-20.78 26.74-7.3 8.95-16.87 17.23-26.21 23.93-7.4 5.31-14.25 10.7-22.08 15.43-2.92 1.76-5.89 3.59-8.84 5.31-3.09 1.81-5.73 3.5-8.27 6.05-1.29 1.28-40.79 33.77-42.37 34.19-1.36 0.36-3.49-7.98-3.24-9.11 0.95-4.31-1.47-7.06-2.18-11.04-0.48-2.69-2.15-6.01-3.36-8.52-1.58-3.29-2.71-7.22-4.01-10.66-1.16-3.09-2.42-6.09-3.33-9.24-1-3.42-2.59-6.43-4.56-9.38-1.12-1.69-1.89-3.25-2.54-5.04-0.58-1.59-4.02-3.24-5.25-4.41-1.11-1.06-1.63-1.69-2.77-2.54-1.24-0.92-2.99-1.26-4.36-1.99-2.09-1.11-4.25-2.13-6.28-3.36-0.67-0.41-0.62-1.45-0.94-2.16z"></path><path id="path4139" sodipodi:nodetypes="ccccccccccccccccccccc" style="fill-rule:evenodd;color:#000000;fill:#6d0000" d="m465.81 33.702c4.78 3.426 13.25 7.683 21.3 12.833 7.46 4.678 16.67 13.512 22.29 16.077 9.46 6.392 18.11 13.895 27.6 20.27 8.83 7.175 15.68 16.242 22.95 24.868 9.66 8.1 13.66 20.59 19.87 31.19 4.83 9.96 9.92 19.73 13.06 30.44 6.85 21.35 12.65 43.15 15.63 65.47 2.44 12.12 0.94 24.7-0.19 36.78-1.67 13.12-4.77 23.97-9.58 36.93 0.81 4.11-12.16-2.68-8.07 0.05 4.2-8.76 7.51-20.08 9.41-28.29 3.44-12.53 4.08-26.15 3.59-38.37-0.49-12.17-3.49-23.47-5.29-35.17-5.3-21.23-9.95-43.13-20.95-62.2-4.46-11.03-10.26-21.49-16.47-31.57-8.78-9.99-15.67-21.62-26.37-29.822-9.24-6.971-18.09-14.485-27.52-21.152-11.02-5.55-19.31-15.123-30.27-20.846-0.95-0.83-9.71-5.767-4.55-2.993-1.73-0.609-13.49-7.296-6.44-4.495z"></path><path id="path4149" style="fill-rule:evenodd;color:#000000;fill:url(#linearGradient6241)" d="m369.12 257.47c4.65-5.31 17.64-5.2 26.52-7.7 8.95-2.5 18.69-4.8 27.07-8.76 23.58-11.16 49.13-13.55 74.35-18.23 8.81-1.63 19.95-9.89 31.49-11.69 17.32-2.7 35.47-7 52.21-12.29 5.05-1.59 10.56-1.97 15.81-2.58 3.8-0.44 0.04 0.08 1.62 3.53 2.24 4.89 4.4 8.22 5.68 13.72 1.76 7.56 1.71 15.39 3.55 23.13 1.42 5.99-1.37 13.48-1.07 19.78 0.31 6.42-1.74 12.82-2.8 19.14-0.72 4.34-1.89 7.67-1.86 12.08 0.02 4.05-5.11 13.33-6.64 17.46-0.31 0.86-8.43 2.43-9.99 2.92-4.53 1.42-9.73 1.65-14.37 1.92-4.68 0.26-9.32 1.38-13.76 2.4-5.37 1.22-11.52 1.08-17.05 1.72-8.05 0.93-16.08-1.29-23.49 1.57-6.57 2.53-13.45 1.93-20.39 1.45-10.27-0.7-26.1 4.09-36.87 5.74-5.79 0.88-11.4 2.51-17.19 2.79-9.78 0.48-17.27-0.79-26.89 2.21-5.67 1.77-10.07 1.23-15.14 4.62-3.77 2.52-4.06-0.74-4.55-3.69-1-5.96-3.69-11.84-6.71-16.78-2.54-4.16-3.91-5.95-5.2-10.96-0.07-0.29-0.06-0.6-0.09-0.89-0.41-4.01-4.6-10.08-6.61-13.47-1.59-2.67-2.33-5.91-3.41-8.66-1.29-3.28-1.54-7.28-2.49-10.47-0.58-1.94-1.73-3.78-2.44-5.65-0.51-1.37 0.47-2.9 0.71-4.36z"></path><path id="path4178" sodipodi:nodetypes="cccccccccccccccccccccccccccccccccccccccccccccccsccccccccccccccccccccccccccccccccsccccccccccccccccccc" style="fill-rule:evenodd;color:#000000;fill:#808080" d="m467.12 34.662c0.13-0.768 2.12-5.379 1.9-6.001-0.47-0.649-1.19-1.013-1.78-1.517 0.85 0.539 1.51 1.336 2.26 2.003-0.95-0.481-1.99-0.791-2.98-1.187-1.11-0.498-2.32-0.415-3.49-0.572-0.89-0.298-1.68 0.361-2.45 0.529-0.97 0.675-1.54 1.72-2.28 2.588-1.02 1.317-1.84 2.777-2.74 4.176-1.15 1.662-1.97 3.513-2.91 5.292-0.75 1.602-1.27 3.285-1.86 4.946-1.01 2.458-2.22 4.829-3.39 7.217-1.56 3.654-3.06 7.333-4.62 10.99-2 4.228-3.2 8.7-4.33 13.213-0.69 4.282-0.96 8.617-1.48 12.924-0.73 5.577-1.41 11.167-1.99 16.757-0.7 6.38-1.02 12.79-1.18 19.21-0.23 5.08 0.27 10.14 0.72 15.2 0.44 3.63 0.71 7.27 0.99 10.92 0.21 2.73 0.5 5.45 0.77 8.18 0.28 2.62 0.76 5.21 1.19 7.81 0.55 2.69 1.11 5.37 1.68 8.05 0.88 3.7 1.62 7.43 2.44 11.14 0.93 4.09 1.8 8.18 2.69 12.27 0.79 3.84 1.76 7.64 2.81 11.41 1.11 3.94 2.58 7.76 3.99 11.6 1.52 4.02 3.57 7.82 5.53 11.64 2.39 3.88 4.95 7.65 7.59 11.36 2.61 3.97 5.64 7.6 8.77 11.16 2.97 3.18 5.93 6.36 8.9 9.54 3.32 3.47 6.74 6.83 10.21 10.15 4.53 4.14 9.32 7.99 14.25 11.65 4.95 3.65 9.95 7.2 15.13 10.52 5.39 3.16 10.85 6.2 16.47 8.93-8.16-3.7 5.37 1.88 7.68 2.75 1.57 0.69 3.23 1.12 4.85 1.65 0.32 0.07 0.58 0.26 0.88 0.39 0.5 0.3 1.06 0.42 1.6 0.63 1.87 0.85 3.79 1.6 5.7 2.36 1.63 0.78 3.43 0.88 5.17 1.18 1.63-0.04 3.26 0.03 4.89 0.06 2.02 0.1 4.04-0.12 6.06-0.25 1.64-0.13 3.27-0.34 4.9-0.53 1.68-0.09 3.02-1.06 4.47-1.78 1.24-0.8 2.67-1.18 4.02-1.72 1.48-0.33 2.79-1.1 4.16-1.73 1.31-0.64 2.38-1.64 3.54-2.49 0.57-0.47 1.08-1.01 1.62-1.51 0.59-0.54 0.66-1.38 0.98-2.05 3.88-1.56 3.66-1.32 5.62-2.26 0.37 0.85 1.06 1.58 1.13 2.56-0.05 0.91 0.15 1.85-0.15 2.75-0.36 0.85-0.44 1.84-1.07 2.58-0.57 0.51-1.11 1.05-1.69 1.55-1.21 0.88-2.36 1.85-3.68 2.57-1.4 0.65-2.76 1.43-4.26 1.84-1.33 0.5-2.74 0.83-3.96 1.59-1.49 0.76-2.94 1.71-4.61 2-1.64 0.2-3.27 0.42-4.92 0.55-2.04 0.15-4.09 0.33-6.14 0.31-1.63-0.04-3.26-0.13-4.89-0.07-1.83-0.12-3.65 0.03-5.38-0.76-1.9-0.73-3.82-1.41-5.65-2.31-0.56-0.2-1.12-0.39-1.65-0.59-0.31-0.17-0.64-0.28-0.92-0.5-1.66-0.69-3.29-1.46-4.99-2.04-6.72-2.54-13.34-5.26-19.67-8.67-5.6-2.75-11.15-5.61-16.34-9.08-5.19-3.38-10.06-7.22-14.92-11.04-4.9-3.64-9.99-7.04-14.44-11.25-3.54-3.36-7.09-6.71-10.26-10.44-2.93-3.12-6-6.1-8.93-9.24-3.12-3.61-6.2-7.26-8.72-11.33-2.53-3.92-5.2-7.78-7.26-11.97-2.13-3.64-4.19-7.32-5.73-11.26-1.5-3.76-2.98-7.54-4.03-11.46-1.03-3.72-2.12-7.44-2.83-11.25-0.77-4.18-1.53-8.35-2.47-12.5-0.77-3.76-1.58-7.51-2.46-11.25-0.62-2.65-1.32-5.29-1.7-8-0.35-2.59-0.74-5.17-1-7.77-0.27-2.69-0.56-5.37-0.68-8.06-0.18-3.63-0.34-7.25-0.67-10.87-0.4-5.13-0.66-10.27-0.39-15.41 0.19-6.37 0.45-12.74 1.15-19.07 0.56-5.678 1.16-11.346 1.96-16.994 0.5-4.415 0.87-8.849 1.6-13.234 1.07-4.534 2.31-9.006 4.32-13.236 1.52-3.687 2.95-7.413 4.52-11.079 1.11-2.37 2.29-4.724 3.16-7.194 0.63-1.729 1.26-3.468 1.99-5.155 0.99-1.85 1.98-3.697 3.05-5.493 0.97-1.539 1.94-3.073 2.97-4.572 0.79-0.918 1.47-1.933 2.41-2.717 0.83-0.274 1.62-1.135 2.66-0.878 1.22 0.118 2.48-0.004 3.66 0.448 1.01 0.414 2.07 0.75 3.05 1.245 2.43 1.714 5.08 3.025 7.28 5.133 0.42 0.5-1.03 7.108-0.88 7.813-3.3-2.999-0.24-0.139-4.52-2.995z"></path></g><g id="g4215"><g id="g2187" style="fill:#ff9955" transform="matrix(.72206 0 0 .67984 46.811 92.329)"><path id="path2161" sodipodi:nodetypes="cccccc" style="fill-rule:evenodd;color:#000000;stroke:#808080;fill:#ff9955" d="m181.93 82.392c-29.17 96.708-99.117 304-135.1 405.75 25.601 51.94 113.9 99.41 260.51 100.81 144.84-1.65 205.66-49.3 242.16-100.94-34.23-88.45-111.92-314.69-145.17-405.54-85.02-3.111-129.35-2.652-222.4-0.078z"></path><path id="path2185" sodipodi:rx="115.78947" sodipodi:ry="42.69006" style="fill-rule:evenodd;color:#000000;stroke:#808080;fill:#ff9955" sodipodi:type="arc" d="m409.36 125.73a115.79 42.69 0 1 1 -231.58 0 115.79 42.69 0 1 1 231.58 0z" transform="translate(-1.2778 -28.921)" sodipodi:cy="125.731" sodipodi:cx="293.56726"></path></g><path id="path2214" style="color:#000000;fill-rule:evenodd;filter:url(#filter4196);fill:url(#linearGradient4201)" d="m293.67 186.34c18.22-5.22 40.88-6.6 51.93-24.38-1.15-4.65-2.19-16.36 1.96-5.03 6.95 28.07 17.03 55.33 29.84 81.25 4.9 16.79 9.61 33.76 17.42 49.51 4.82 17.04 14.9 32.12 17.88 49.73 5.28 12.71 5.5 26.93 12.62 38.95 7.06 13.32 9.02 28.9 18.16 41.13 6.94 12.67-10.74 21.62-18.43 29.16-8.74 16.08-26.84 19.6-42.42 25.52-5.89 4.25-21.34 17.67-24.21 8.78 2.8-11.83 2.43-23.71-11.46-27.01-8.94-9.16-10.59-23.94-19.22-33.89-9.19-13.11-6.11-30.31-13.32-44.32-10.47-27.1-14.96-56.05-15.16-85.02-0.67-22.44 0.66-45.18-5.15-67.13-2.19-13.02-6.94-25.87-7.13-39.09"></path><path id="path4203" sodipodi:nodetypes="csssssssscssssssssssc" style="color:#000000;fill-rule:evenodd;fill:url(#linearGradient4211)" d="m173.28 159.98c0.85 3.02-3.98 17.23-3.48 25.46 0.42 6.84 1.65 13.86-0.88 19.87-2.91 6.89-9.69 11.48-10.55 18.74-1.01 8.38-8.21 18.04-11.32 26-4.9 12.56-11.2 24.96-12.79 38.49-1.83 15.54-13.76 30.33-17.8 45.5-3.8 14.24-13.12 27.08-17.154 41.43-3.235 11.52-7.298 21.23-11.678 32.31-2.128 5.37-3.949 9.54-6.655 16.42 4.898 6.65 3.734 4.72 8.716 12.03 5.317 7.79 13.111 14.45 21.641 19.21 7.04 3.92 28.89 14.59 36.38 17.73 7.11 2.99 14.33-5.08 20.56-1.26 0.85 0.52 7.76-14.7 8.6-16.03 9.92-15.78 2.6-29.15 0.36-45.98-2.93-21.93-0.41-43.33-0.41-65.31 0-24.34-4.12-49.18-6.49-73.38-2.16-22.11-3.26-49.14-0.47-71.44 1.12-8.96 2.83-18.42 2.3-27.47-0.3-5.13-0.31-6.83 1.12-12.32z"></path></g><path id="path6243" style="color:#000000;fill-rule:evenodd;fill:#d6783b" d="m180.01 171.29c1.26 0.83 2.46 2.73 3.86 3.89 2.17 1.79 4.22 5.78 4.48 8.5 0.16 1.75 2.84 2.65 3.75 4.02 2.83 4.27 6.01 7.87 6.25 13.2 0.12 2.68 2.1 6.77 3.89 8.75 1.98 2.18 7.86 2.65 10.32 1.7 4.43-1.69 8.85-2.97 13.32-4.53 4.12-1.44 10.07-3.67 12.65-7.31 2.84-3.99-1.42-8.06 2.08-11.97 1.05-1.17 1.77-2.59 2.95-3.55 1.03-0.84-1.96-1.28-2.43-1.43-4.58-1.46-9.42-1.71-14.04-3.22-3.04-0.99-4.25-3.75-6.12-6.03-1.43-1.74-0.93-3.93-3.8-3.78-3.78 0.19-7.56 0.17-11.35 0.64-5.47 0.67-10.59 1.86-15.96 2.94-1.77 0.35-3.79 0.51-5.53 0.24-0.96-0.15-1.82-0.53-2.6-0.96-0.73-0.41-0.81-0.68-1.72-1.1z"></path><path id="path7214" sodipodi:nodetypes="csssssssssssssc" style="color:#000000;fill-rule:evenodd;fill:#d6783b" d="m147.15 483.9c10-2.55 4.96-4.84 11.46-13.05 3.53-4.46 1.04-7.71 7.02-11.67 2.86-1.9 7.89-13.56 11.96-16.92 7.69-6.33 8.91-5.45 11.91 3.54 2.33 6.99 5.66 11.11 11.26 15.38 3.94 3.02 5.1 5.56 7.25 10.26 1.44 3.17 4.16 6.02 5.95 8.96 1.18 1.94 2.38 3.89 3.24 5.54 2.22 4.27-4.58 7.89-6.25 9.2-6.88 5.38-15.04 8.25-23.1 11.08-8.16 2.86-19.83 0.69-28.06 0.06-6.32-0.49-8.46 2.42-12.58-1.09-2.28-1.95-9.22-3.56-11.81-5.3-2.22-1.49 9.54-14.46 11.75-15.99z"></path><path id="path7220" style="color:#000000;fill-rule:evenodd;fill:#d6783b" d="m346.87 280.64c-0.44-1.16 2.93 13.11 4.6 26.29 0.86 6.81 3.82 7.96 6.49 9.84 1.18 0.84 0.18-14.87 0.29-15.68 0.97-6.93 1.51-8.69-2.65-12.85-4.51-4.5-0.99-7.98-8.73-7.6z"></path><path id="path7226" style="color:#000000;fill-rule:evenodd;fill:#d6783b" d="m294.65 484.88c-2.03 2.53-8.8 8.61-13.73 11.43-4.6 2.63 6.11 3.79 7.13 3.89 5.4 0.58 11.82-0.92 16.8-2 5.46-1.19-5.41-10.43-10.2-13.32z"></path><path id="path7228" style="color:#000000;fill-rule:evenodd;fill:#d6783b" d="m374.4 477.98c6.29-1.36-2.2 12.98-0.88 19.28 1.35 6.42 12.42 0.94 17.39-0.12 10.52-2.26 0.82-12.49-1.77-15.44-2.31-2.63-10.93-1.6-14.74-3.72z"></path></g></g><metadata></metadata></svg> 