<?xml version="1.0" encoding="UTF-8" standalone="no"?> <!-- Created with Inkscape (http://www.inkscape.org/) --> <svg xmlns:inkscape="http://www.inkscape.org/namespaces/inkscape" xmlns:rdf="http://www.w3.org/1999/02/22-rdf-syntax-ns#" xmlns="http://www.w3.org/2000/svg" xmlns:sodipodi="http://sodipodi.sourceforge.net/DTD/sodipodi-0.dtd" xmlns:cc="http://web.resource.org/cc/" xmlns:xlink="http://www.w3.org/1999/xlink" xmlns:dc="http://purl.org/dc/elements/1.1/" xmlns:svg="http://www.w3.org/2000/svg" xmlns:ns1="http://sozi.baierouge.fr" id="svg2620" sodipodi:docname="biswajyotim_Bin.svg" viewBox="0 0 237.44 295.03" sodipodi:version="0.32" inkscape:output_extension="org.inkscape.output.svg.inkscape" inkscape:version="0.45.1" sodipodi:docbase="/Users/johnolsen/Desktop"><defs id="defs2622"><linearGradient id="linearGradient7496" y2="542.42" xlink:href="#linearGradient6578" gradientUnits="userSpaceOnUse" x2="-204.08" gradientTransform="matrix(.95954 0 0 .91232 -7.9868 58.542)" y1="498.05" x1="-204.72" inkscape:collect="always"></linearGradient><linearGradient id="linearGradient6578" inkscape:collect="always"><stop id="stop6580" style="stop-color:#9caf4f" offset="0"></stop><stop id="stop6582" style="stop-color:#9caf4f;stop-opacity:0" offset="1"></stop></linearGradient><linearGradient id="linearGradient7494" y2="542.42" xlink:href="#linearGradient6578" gradientUnits="userSpaceOnUse" x2="-204.08" y1="547.58" x1="-261.48" inkscape:collect="always"></linearGradient><linearGradient id="linearGradient7492" y2="439.76" gradientUnits="userSpaceOnUse" x2="-163.24" y1="478.69" x1="-165.63" inkscape:collect="always"><stop id="stop6570" style="stop-color:#558c30" offset="0"></stop><stop id="stop6572" style="stop-color:#4d653c;stop-opacity:0" offset="1"></stop></linearGradient></defs><g id="layer1" inkscape:label="Layer 1" inkscape:groupmode="layer" transform="translate(-212.71 -90.562)"><g id="g7481" inkscape:export-ydpi="300" inkscape:export-xdpi="300" inkscape:export-filename="/home/biswa/Desktop/Image for Rahul Book/created by Biswa/Biswa_Bin.png" transform="matrix(1.1643 0 0 1.1471 531.56 -380.81)"><path id="path4790" sodipodi:rx="100.66199" sodipodi:ry="32.975479" style="stroke-opacity:.94643;stroke:#331f13;stroke-width:1.6;fill:#44aa00" sodipodi:type="arc" d="m-71.158 444.92a100.66 32.975 0 1 1 -201.32 0 100.66 32.975 0 1 1 201.32 0z" sodipodi:cy="444.91913" sodipodi:cx="-171.81961"></path><path id="path4792" sodipodi:rx="100.66199" sodipodi:ry="45.256855" style="stroke-opacity:.94643;stroke:#ee13d2;stroke-width:1.5581;fill:none" sodipodi:type="arc" d="m-71.158 444.92a100.66 45.257 0 1 1 -201.32 0 100.66 45.257 0 1 1 201.32 0z" transform="matrix(.69050 0 0 .63414 -53.179 356.78)" sodipodi:cy="444.91913" sodipodi:cx="-171.81961"></path><path id="path5679" sodipodi:nodetypes="ccsssssssscsssszc" style="fill-rule:evenodd;stroke:#000000;stroke-width:1px;fill:#bcd35f" d="m-273.36 446.44l32.39 192.88s-0.22 4.25 2.61 8.35c1.73 2.51 5.53 4.4 8.54 6.88 4.1 3.38 9.98 4.7 16.19 7.04 12.52 4.71 28.37 6.32 43.57 5.67 27.08-1.15 41.35-4.79 50.98-9.5 7.69-3.76 9.88-6.6 11.62-8.76 2.23-2.75 4.26-3.91 4.71-9.69 0.04-0.58 0.86-4.85 2.02-11.79 7.117-42.28 30.312-183.24 30.312-183.24s-1.738 12.48-23.819 20.85c-6.323 2.4-10.903 4.61-17.533 6.3-8.41 2.14-23.25 5.87-44.77 6.17-14.66 0.2-21.8-0.22-28.86-0.29-8.84-0.08-18.03 0.7-39.68-3.61-37.76-7.51-48.28-27.26-48.28-27.26z"></path><path id="path5681" sodipodi:rx="100.66199" sodipodi:ry="32.975479" style="stroke-opacity:.94643;stroke:#331f13;stroke-width:2;fill:url(#linearGradient7492)" sodipodi:type="arc" d="m-71.158 444.92a100.66 32.975 0 1 1 -201.32 0 100.66 32.975 0 1 1 201.32 0z" sodipodi:cy="444.91913" sodipodi:cx="-171.81961"></path><path id="path6576" sodipodi:nodetypes="ccsssssssscsssszc" style="fill-rule:evenodd;stroke:#000000;stroke-width:1px;fill:url(#linearGradient7494)" d="m-273.36 446.44l32.39 192.88s-0.22 4.25 2.61 8.35c1.73 2.51 5.53 4.4 8.54 6.88 4.1 3.38 9.98 4.7 16.19 7.04 12.52 4.71 28.37 6.32 43.57 5.67 27.08-1.15 41.35-4.79 50.98-9.5 7.69-3.76 9.88-6.6 11.62-8.76 2.23-2.75 4.26-3.91 4.71-9.69 0.04-0.58 0.86-4.85 2.02-11.79 7.117-42.28 30.312-183.24 30.312-183.24s-1.738 12.48-23.819 20.85c-6.323 2.4-10.903 4.61-17.533 6.3-8.41 2.14-23.25 5.87-44.77 6.17-14.66 0.2-21.8-0.22-28.86-0.29-8.84-0.08-18.03 0.7-39.68-3.61-37.76-7.51-48.28-27.26-48.28-27.26z"></path><path id="path6586" sodipodi:rx="99.528305" sodipodi:ry="32.975479" style="stroke-opacity:.94643;stroke:#331f13;stroke-width:1.6;fill:none" sodipodi:type="arc" d="m-72.291 444.92a99.528 32.975 0 1 1 -199.06 0" sodipodi:open="true" transform="matrix(.9937 0 0 1.0001 -1.3973 15.931)" sodipodi:cy="444.91913" sodipodi:cx="-171.81961" sodipodi:end="3.1415927" sodipodi:start="0"></path><path id="path6588" sodipodi:nodetypes="ccsssssssscsssszc" style="fill-rule:evenodd;fill:url(#linearGradient7496)" d="m-269.16 470.37l29.95 171.44s-0.21 3.88 2.51 7.61c1.66 2.29 5.3 4.02 8.2 6.28 3.92 3.08 9.57 4.29 15.53 6.42 12.01 4.3 27.22 5.77 41.81 5.17 25.98-1.05 39.67-4.37 48.91-8.67 7.38-3.43 9.48-6.01 11.16-7.98 2.13-2.52 4.08-3.58 4.51-8.85 0.04-0.52 0.82-4.42 1.94-10.75 6.827-38.57 28.801-158.67 28.801-158.67s-1.101 4.3-22.288 11.94c-6.063 2.19-10.753 2.78-17.103 4.32-8.08 1.96-20.9 5.36-41.55 5.63-14.06 0.18-22.63 0.25-29.39-0.26-8.48-0.64-17.3-1.06-37.79-3.29-20.76-2.26-45.2-20.34-45.2-20.34z"></path><path id="path6592" sodipodi:rx="100.66199" sodipodi:ry="45.256855" style="stroke-opacity:.94643;stroke:#ee13d2;stroke-width:1.5581;fill:none" sodipodi:type="arc" sodipodi:start="0" sodipodi:open="true" transform="matrix(.70213 0 0 .63396 -51.179 346.86)" sodipodi:cy="444.91913" sodipodi:cx="-171.81961" sodipodi:end="3.1484861" d="m-71.158 444.92a100.66 45.257 0 1 1 -201.32 -0.31"></path><path id="path7479" sodipodi:rx="100.66199" sodipodi:ry="32.975479" style="stroke-opacity:.94643;stroke:#331f13;stroke-width:2;fill:none" sodipodi:type="arc" d="m-71.158 444.92a100.66 32.975 0 1 1 -201.32 0 100.66 32.975 0 1 1 201.32 0z" transform="matrix(.94702 0 0 .91202 -9.1028 39.146)" sodipodi:cy="444.91913" sodipodi:cx="-171.81961"></path></g></g><metadata></metadata></svg> 