<?xml version="1.0" encoding="UTF-8" standalone="no"?> <!-- Created with Inkscape (http://www.inkscape.org/) --> <svg xmlns:inkscape="http://www.inkscape.org/namespaces/inkscape" xmlns:rdf="http://www.w3.org/1999/02/22-rdf-syntax-ns#" xmlns="http://www.w3.org/2000/svg" xmlns:cc="http://web.resource.org/cc/" xmlns:dc="http://purl.org/dc/elements/1.1/" xmlns:sodipodi="http://sodipodi.sourceforge.net/DTD/sodipodi-0.dtd" xmlns:svg="http://www.w3.org/2000/svg" xmlns:ns1="http://sozi.baierouge.fr" xmlns:xlink="http://www.w3.org/1999/xlink" id="svg1378" sodipodi:modified="true" sodipodi:docname="mcol_blue_robot.svg" viewBox="0 0 529.26 788.9" sodipodi:version="0.32" inkscape:output_extension="org.inkscape.output.svg.inkscape" inkscape:version="0.45" sodipodi:docbase="/home/evans/Desktop"><g id="layer1" inkscape:label="Livello 1" inkscape:groupmode="layer" transform="translate(-36.387 -217.16)"><g id="g2171"><path id="rect1386" sodipodi:nodetypes="ccccc" style="fill-rule:evenodd;fill-opacity:.94118;stroke:#000000;stroke-linecap:round;stroke-width:7.5196;fill:#1a1ad1" d="m179.24 231.85c-13.56-23.5 251.39-1.81 251.39-1.81 37.98-5.43 15.57 120.5-3.61 153.73 0 23.51-220.04 22.2-245.97 7.23 0 0 14.01-131.75-1.81-159.15z"></path><path id="rect2114" sodipodi:nodetypes="ccccc" style="fill-rule:evenodd;fill-opacity:.94118;stroke:#000000;stroke-linecap:round;stroke-width:6.3916;fill:#1a1ad1" d="m151.93 395.21c10.4 40.24 373.17 6.23 332.35 13.57-29.35 41.34-16.72 279.85-16.72 279.85-21.71-19.9-164.11-25.24-330.92-6.27 1.04-29.42 15.29-287.15 15.29-287.15z"></path><path id="rect2842" sodipodi:nodetypes="ccccc" style="fill-rule:evenodd;fill-opacity:.94118;stroke:#000000;stroke-linecap:round;stroke-width:7.5196;fill:#1a1ad1" d="m67.337 435.99c36.523-11.2 66.623-6.51 66.623-6.51l-11.01 214.94-82.803-9.67s32.616-160.78 27.19-198.76z"></path><path id="rect2844" sodipodi:nodetypes="ccccc" style="fill-rule:evenodd;fill-opacity:.94118;stroke:#000000;stroke-linecap:round;stroke-width:7.1805;fill:#1a1ad1" d="m485.46 437.23c54.24-11.26 66.64 0.99 66.64 0.99s-10.58 124.84 9.96 215.22l-80.8 4.02c12.66-108.51-10.16-168.65 4.2-220.23z"></path><path id="rect2846" sodipodi:nodetypes="ccccc" style="fill-rule:evenodd;fill-opacity:.94118;stroke:#000000;stroke-linecap:round;stroke-width:7.5196;fill:#1a1ad1" d="m193.71 700.27c39.93-23.06 94.05-5.43 94.05-5.43v307.46s-31.14-8.52-106.71 0c3.62-27.13 12.66-302.03 12.66-302.03z"></path><path id="rect2848" sodipodi:nodetypes="ccccc" style="fill-rule:evenodd;fill-opacity:.94118;stroke:#000000;stroke-linecap:round;stroke-width:7.5196;fill:#1a1ad1" d="m421.91 695.17c-30.07-16.58-99.43-6.09-99.43-6.09 10.88 50.47-2.04 307.45-2.04 307.45 47.02 1.81 33.7-2.38 99.54-10.19-1.6-30.76-5.47-265.9 1.93-291.17z"></path><path id="path2858" sodipodi:rx="41.416256" sodipodi:ry="46.467018" style="fill-rule:evenodd;fill-opacity:.94118;stroke:#000000;stroke-linecap:round;stroke-width:8.4;fill:#eaeafb" sodipodi:type="arc" d="m-210.11 347.28a41.416 46.467 0 1 1 -82.83 0 41.416 46.467 0 1 1 82.83 0z" transform="matrix(.79607 0 0 .78811 459.06 16.031)" sodipodi:cy="347.2757" sodipodi:cx="-251.52798"></path><path id="path2860" sodipodi:rx="41.416256" sodipodi:ry="46.467018" style="fill-rule:evenodd;fill-opacity:.94118;stroke:#000000;stroke-linecap:round;stroke-width:8.4;fill:#eaeafb" sodipodi:type="arc" d="m-210.11 347.28a41.416 46.467 0 1 1 -82.83 0 41.416 46.467 0 1 1 82.83 0z" transform="matrix(.79607 0 0 .78811 580.23 17.84)" sodipodi:cy="347.2757" sodipodi:cx="-251.52798"></path><path id="rect2862" sodipodi:nodetypes="ccccc" style="fill-rule:evenodd;fill-opacity:.78431;stroke:#000000;stroke-linecap:round;stroke-width:7.5196;fill:#eaeafb" d="m244.35 385.58l20.21-0.96 5.11 40.74h-25.32v-39.78z"></path><path id="rect2864" sodipodi:nodetypes="ccccc" style="fill-rule:evenodd;fill-opacity:.78431;stroke:#000000;stroke-linecap:round;stroke-width:7.5196;fill:#eaeafb" d="m376.39 386.84l19.88-2.17v46.12l-22.76-2.88 2.88-41.07z"></path><path id="path2868" sodipodi:nodetypes="ccccc" style="fill-rule:evenodd;fill-opacity:.78431;stroke:#000000;stroke-linecap:round;stroke-width:7.5196;fill:#eaeafb" d="m358.83 654.78l19.89 4.16-3.62 35.26-19.15 8.88 2.88-48.3z"></path><path id="path2870" sodipodi:nodetypes="ccccc" style="fill-rule:evenodd;fill-opacity:.78431;stroke:#000000;stroke-linecap:round;stroke-width:7.5196;fill:#eaeafb" d="m230.42 658.4l19.89 4.15 0.9 43.41-23.66-6.49 2.87-41.07z"></path><path id="path2872" sodipodi:nodetypes="ccccc" style="fill-rule:evenodd;fill-opacity:.78431;stroke:#000000;stroke-linecap:round;stroke-width:7.8863;fill:#eaeafb" d="m497.02 449.12l8.38 21.75-50.09 0.53-3.5-24.61 45.21 2.33z"></path><path id="path2874" sodipodi:nodetypes="ccccc" style="fill-rule:evenodd;fill-opacity:.78431;stroke:#000000;stroke-linecap:round;stroke-width:7.5196;fill:#eaeafb" d="m160.81 444.76l0.35 20.31-38.8 8.81-2.24-22.84 40.69-6.28z"></path></g></g><metadata></metadata></svg> 