<?xml version="1.0" encoding="UTF-8" standalone="no"?> <!-- Created with Inkscape (http://www.inkscape.org/) --> <svg xmlns:dc="http://purl.org/dc/elements/1.1/" xmlns:inkscape="http://www.inkscape.org/namespaces/inkscape" xmlns:xlink="http://www.w3.org/1999/xlink" xmlns:sodipodi="http://sodipodi.sourceforge.net/DTD/sodipodi-0.dtd" xmlns:cc="http://web.resource.org/cc/" xmlns:rdf="http://www.w3.org/1999/02/22-rdf-syntax-ns#" xmlns="http://www.w3.org/2000/svg" xmlns:svg="http://www.w3.org/2000/svg" xmlns:ns1="http://sozi.baierouge.fr" id="svg2" sodipodi:modified="true" viewBox="0 0 279.66 564.54" sodipodi:docbase="D:\ivan\openclipart" inkscape:export-ydpi="19.179543" inkscape:export-xdpi="19.179543" inkscape:output_extension="org.inkscape.output.svg.inkscape" sodipodi:docname="lente.svg" inkscape:export-filename="R:\DIP_Fondi\grafica\lente.png" inkscape:version="0.45" sodipodi:version="0.32"><defs id="defs4"><linearGradient id="linearGradient3239"><stop id="stop3241" style="stop-color:#565656" offset="0"></stop><stop id="stop3245" style="stop-color:#d2d2d2" offset=".28333"></stop><stop id="stop3243" style="stop-color:#393939" offset="1"></stop></linearGradient><radialGradient id="radialGradient3203" gradientUnits="userSpaceOnUse" cy="150.69" cx="490.01" r="234.62" inkscape:collect="always"><stop id="stop3207" style="stop-color:#cbcbcb" offset="0"></stop><stop id="stop3209" style="stop-color:#393939" offset="1"></stop></radialGradient><radialGradient id="radialGradient3211" gradientUnits="userSpaceOnUse" cy="461.84" cx="338.09" gradientTransform="matrix(.77996 .60510 -.61297 .79010 425.66 -282.89)" r="224.77" inkscape:collect="always"><stop id="stop3173" style="stop-color:#ffffff;stop-opacity:.63529" offset="0"></stop><stop id="stop3367" style="stop-color:#b3d5ff;stop-opacity:.42353" offset=".26667"></stop><stop id="stop3175" style="stop-color:#589dff;stop-opacity:.21495" offset="1"></stop></radialGradient><linearGradient id="linearGradient3231" y2="575.57" xlink:href="#linearGradient3239" gradientUnits="userSpaceOnUse" x2="317.93" y1="575.57" x1="392.35" inkscape:collect="always"></linearGradient><linearGradient id="linearGradient3249" y2="575.57" xlink:href="#linearGradient3239" gradientUnits="userSpaceOnUse" x2="317.93" gradientTransform="matrix(.69922 0 0 1 106.89 24)" y1="575.57" x1="393.03" inkscape:collect="always"></linearGradient><linearGradient id="linearGradient3253" y2="575.57" xlink:href="#linearGradient3239" gradientUnits="userSpaceOnUse" x2="317.93" gradientTransform="matrix(1.3806 0 0 1.5055 -135.24 -237.96)" y1="575.57" x1="393.03" inkscape:collect="always"></linearGradient><linearGradient id="linearGradient3257" y2="575.57" xlink:href="#linearGradient3239" gradientUnits="userSpaceOnUse" x2="317.93" gradientTransform="matrix(.95703 0 0 .97978 15.269 93.507)" y1="575.57" x1="393.03" inkscape:collect="always"></linearGradient><linearGradient id="linearGradient3269" y2="807.88" gradientUnits="userSpaceOnUse" x2="309.93" gradientTransform="translate(0,-5)" y1="807.88" x1="400.86" inkscape:collect="always"><stop id="stop3279" style="stop-color:#1a1a1a" offset="0"></stop><stop id="stop3281" style="stop-color:#8f8f8f" offset=".23333"></stop><stop id="stop3283" style="stop-color:#0b0b0b" offset="1"></stop></linearGradient><linearGradient id="linearGradient3358" y2="1047.5" xlink:href="#linearGradient3239" gradientUnits="userSpaceOnUse" x2="384.19" gradientTransform="translate(-708.77 -15)" y1="1047.5" x1="321.58" inkscape:collect="always"></linearGradient></defs><g id="layer1" inkscape:label="Livello 1" inkscape:groupmode="layer" transform="translate(-215.55 -290.14)"><g id="g2219" transform="matrix(.59597 0 0 .59597 143.58 231.27)"><path id="path2160" sodipodi:rx="222.27206" sodipodi:ry="222.27206" style="stroke-linejoin:round;color:#000000;stroke:#000000;stroke-linecap:round;stroke-width:5;fill:url(#radialGradient3211)" sodipodi:type="arc" d="m524.12 411.61a222.27 222.27 0 1 1 -444.54 0 222.27 222.27 0 1 1 444.54 0z" transform="translate(53.51 -78.207)" sodipodi:cy="411.61493" sodipodi:cx="301.85095"></path><rect id="rect3135" style="stroke-linejoin:round;color:#000000;stroke:#000000;stroke-linecap:round;stroke-width:3;fill:url(#linearGradient3231)" rx="6.356" ry="6.3561" height="23.325" width="76.835" y="563.91" x="316.94"></rect><rect id="rect3350" ry="6.3561" style="stroke-linejoin:round;color:#000000;stroke:#000000;stroke-linecap:square;stroke-width:3;fill:url(#linearGradient3358)" rx="6.356" transform="scale(-1,1)" height="24.149" width="59.612" y="1020.4" x="-385.69"></rect><path id="path3133" style="stroke-linejoin:round;color:#000000;stroke:#000000;stroke-linecap:round;stroke-width:3;fill:url(#radialGradient3203)" d="m355.38 100.28c-128.69 0-233.13 104.44-233.13 233.13 0 128.68 104.44 233.12 233.13 233.12 128.68 0 233.12-104.44 233.12-233.12 0-128.69-104.44-233.13-233.12-233.13zm0 10.84c122.69 0 222.24 99.59 222.24 222.29 0 122.69-99.55 222.28-222.24 222.28-122.7 0-222.29-99.59-222.29-222.28 0-122.7 99.59-222.29 222.29-222.29z"></path><rect id="rect3247" style="stroke-linejoin:round;color:#000000;stroke:#000000;stroke-linecap:round;stroke-width:3;fill:url(#linearGradient3249)" rx="6.356" ry="6.3561" height="23.325" width="53.724" y="587.91" x="328.5"></rect><rect id="rect3251" style="stroke-linejoin:round;color:#000000;stroke:#000000;stroke-linecap:round;stroke-width:3;fill:url(#linearGradient3253)" rx="6.356" ry="6.3561" height="35.116" width="106.08" y="611.02" x="302.32"></rect><rect id="rect3255" style="stroke-linejoin:round;color:#000000;stroke:#000000;stroke-linecap:round;stroke-width:3;fill:url(#linearGradient3257)" rx="6.356" ry="6.3561" height="22.853" width="73.533" y="646.02" x="318.59"></rect><rect id="rect3143" style="stroke-linejoin:round;color:#000000;stroke:#000000;stroke-linecap:round;stroke-width:3;fill:url(#linearGradient3269)" rx="6.356" ry="6.3561" height="365.33" width="87.857" y="664.27" x="311.43"></rect><path id="path3259" sodipodi:nodetypes="cccc" style="fill-rule:evenodd;fill:#1a1a1a;fill-opacity:.75" d="m366.7 589.27l-37.02 0.23s-1.18 6.37-0.71 15.1c4.95-12.74 25.47-15.1 37.73-15.33z"></path><path id="path3261" sodipodi:nodetypes="cccc" style="fill-rule:evenodd;fill:#1a1a1a;fill-opacity:.75" d="m383.11 647.27l-62.86 0.23s-2 6.37-1.2 15.1c8.41-12.74 43.24-15.1 64.06-15.33z"></path><g id="g3324"><g id="g3299"><path id="path3285" style="stroke:#000000;stroke-linecap:square;stroke-width:3;fill:none" d="m347.45 612.9v31.32"></path><path id="path3287" style="stroke:#000000;stroke-linecap:square;stroke-width:3;fill:none" d="m337.45 612.9v31.32"></path><path id="path3289" style="stroke:#000000;stroke-linecap:square;stroke-width:3;fill:none" d="m328.45 612.9v31.32"></path><path id="path3291" style="stroke:#000000;stroke-linecap:square;stroke-width:3;fill:none" d="m321.45 612.9v31.32"></path><path id="path3293" style="stroke:#000000;stroke-linecap:square;stroke-width:3;fill:none" d="m315.45 612.9v31.32"></path><path id="path3295" style="stroke:#000000;stroke-linecap:square;stroke-width:3;fill:none" d="m310.45 612.9v31.32"></path><path id="path3297" style="stroke:#000000;stroke-linecap:square;stroke-width:3;fill:none" d="m306.45 612.9v31.32"></path></g><g id="g3308" transform="matrix(-1 0 0 1 709.9 0)"><path id="path3310" style="stroke:#000000;stroke-linecap:square;stroke-width:3;fill:none" d="m347.45 612.9v31.32"></path><path id="path3312" style="stroke:#000000;stroke-linecap:square;stroke-width:3;fill:none" d="m337.45 612.9v31.32"></path><path id="path3314" style="stroke:#000000;stroke-linecap:square;stroke-width:3;fill:none" d="m328.45 612.9v31.32"></path><path id="path3316" style="stroke:#000000;stroke-linecap:square;stroke-width:3;fill:none" d="m321.45 612.9v31.32"></path><path id="path3318" style="stroke:#000000;stroke-linecap:square;stroke-width:3;fill:none" d="m315.45 612.9v31.32"></path><path id="path3320" style="stroke:#000000;stroke-linecap:square;stroke-width:3;fill:none" d="m310.45 612.9v31.32"></path><path id="path3322" style="stroke:#000000;stroke-linecap:square;stroke-width:3;fill:none" d="m306.45 612.9v31.32"></path></g></g><path id="path3342" style="color:#000000;fill-opacity:.24157;fill:#2573a1" d="m355.38 111.12c-80.98 0-151.9 43.4-190.76 108.16 40.51-54.68 105.53-90.16 178.76-90.16 122.69 0.01 222.24 99.59 222.24 222.29 0 41.7-11.52 80.73-31.53 114.09 27.36-36.94 43.53-82.64 43.53-132.09 0-122.7-99.55-222.29-222.24-222.29z"></path><path id="path3360" sodipodi:nodetypes="cccc" style="fill-rule:evenodd;fill:#1a1a1a;fill-opacity:.75" d="m388.6 1031.1l-61.48 0.2s-1.96 5.4-1.18 12.7c8.23-10.7 42.29-12.7 62.66-12.9z"></path><path id="path3362" sodipodi:nodetypes="ccccc" style="fill-rule:evenodd;fill:#1a1a1a;fill-opacity:.75" d="m392.19 565.11l-41.12 2.75-31.62-2.47s-2.32 7.72-1.39 18.29c20.5-14.82 49.65-9.13 74.13-18.57z"></path></g></g><metadata></metadata></svg> 