<?xml version="1.0" encoding="UTF-8" standalone="no"?> <!-- Created with Inkscape (http://www.inkscape.org/) --> <svg xmlns:inkscape="http://www.inkscape.org/namespaces/inkscape" xmlns:rdf="http://www.w3.org/1999/02/22-rdf-syntax-ns#" xmlns="http://www.w3.org/2000/svg" xmlns:cc="http://web.resource.org/cc/" xmlns:dc="http://purl.org/dc/elements/1.1/" xmlns:sodipodi="http://sodipodi.sourceforge.net/DTD/sodipodi-0.dtd" xmlns:svg="http://www.w3.org/2000/svg" xmlns:ns1="http://sozi.baierouge.fr" xmlns:xlink="http://www.w3.org/1999/xlink" id="svg2" sodipodi:modified="true" sodipodi:docname="mcol_bread.svg" viewBox="0 0 658.54 487.47" sodipodi:version="0.32" inkscape:output_extension="org.inkscape.output.svg.inkscape" inkscape:version="0.45" sodipodi:docbase="/home/evans/Desktop"><g id="layer1" inkscape:label="Layer 1" inkscape:groupmode="layer" transform="translate(-38.105 -156.46)"><g id="g2162"><path id="path1291" style="stroke-linejoin:round;fill-rule:evenodd;stroke:#000000;stroke-linecap:round;stroke-width:3.7998;fill:#e0e028" d="m48.981 609.87c12.956-59.89 46.529-117.82 99.389-162.53 119.49-101.08 292.32-96.68 385.78 9.8 44.87 51.12 63.27 116.52 57.11 181.89 115.54-125.27 138.71-295.52 47.25-399.73-101.3-115.4-305.01-106.31-454.68 20.3-116.11 98.22-165.7 238.44-134.85 350.27z"></path><path id="path1296" style="stroke-linejoin:round;fill-rule:evenodd;stroke:#000000;stroke-linecap:round;stroke-width:3.75;fill:#d89f02" d="m49.13 614.32c47.613-42.82 111.51-76.05 185.24-92.03 153.98-33.39 300.26 19.19 355.58 119.77 5.7-32.31 5.42-66.11-1.92-99.99-31.08-143.34-175.76-233.78-322.96-201.86-132.28 28.68-221.72 146.49-215.94 274.11z"></path><path id="path2059" style="stroke-linejoin:round;fill-rule:evenodd;stroke:#000000;stroke-linecap:round;stroke-width:3.75;fill:#e2bf31" d="m131.87 534.05c45.56-19.96 98.28-33.01 154.94-36.59 108.69-6.87 207.44 22.59 271.21 73.61-23.57-114.67-121.48-197.58-232.79-190.55-89.76 5.67-163.48 68.3-193.36 153.53z"></path><path id="path1403" sodipodi:nodetypes="ccccc" style="stroke-linejoin:round;fill-rule:evenodd;stroke:#000000;stroke-linecap:round;stroke-width:1.9233;fill:#c87d03" d="m174.39 333.43c43.71-10.21 280.9-79.55 386.83 65.48 18.73-16.89 21.84-32 5.02-50.62-73.1-100.75-252.66-84.69-321.91-65.11-27.2 8.53-57.77 22.64-69.94 50.25z"></path><path id="path2174" sodipodi:nodetypes="ccccc" style="stroke-linejoin:round;fill-rule:evenodd;stroke:#000000;stroke-linecap:round;stroke-width:1.5782;fill:#c87d03" d="m272.58 242.34c36.63-7.63 235.63-60.25 321.98 58.16 15.88-13.36 18.7-25.5 4.92-40.75-59.58-82.26-209.7-71.78-267.8-56.96-22.83 6.51-48.55 17.46-59.1 39.55z"></path></g></g><metadata></metadata></svg> 