<?xml version="1.0" encoding="UTF-8" standalone="no"?> <!-- Created with Sodipodi ("http://www.sodipodi.com/") --> <svg xmlns:inkscape="http://www.inkscape.org/namespaces/inkscape" xmlns:rdf="http://www.w3.org/1999/02/22-rdf-syntax-ns#" xmlns="http://www.w3.org/2000/svg" xmlns:sodipodi="http://sodipodi.sourceforge.net/DTD/sodipodi-0.dtd" xmlns:cc="http://web.resource.org/cc/" xmlns:xlink="http://www.w3.org/1999/xlink" xmlns:dc="http://purl.org/dc/elements/1.1/" xmlns:svg="http://www.w3.org/2000/svg" xmlns:ns1="http://sozi.baierouge.fr" id="svg602" xml:space="preserve" viewBox="0 0 491.72 590.12" sodipodi:version="0.32" inkscape:output_extension="org.inkscape.output.svg.inkscape" inkscape:version="0.45.1" sodipodi:docname="ecuabron_AlienGrin.svg" sodipodi:docbase="/Users/johnolsen/Desktop"> <defs id="defs604"> <linearGradient id="linearGradient2246" y2="188.1" gradientUnits="userSpaceOnUse" x2="302.41" gradientTransform="translate(-130.07 -101.06)" y1="166.85" x1="240.31" inkscape:collect="always"><stop id="stop2250" style="stop-color:#d7ffda" offset="0"></stop><stop id="stop2252" style="stop-color:#d7ffda;stop-opacity:0" offset="1"></stop></linearGradient> <linearGradient id="linearGradient2260" y2="283.97" gradientUnits="userSpaceOnUse" x2="213.55" gradientTransform="translate(-130.07 -101.06)" y1="251.16" x1="191.84" inkscape:collect="always"><stop id="stop2256" style="stop-color:#d7ffda" offset="0"></stop><stop id="stop2258" style="stop-color:#d7ffda;stop-opacity:0" offset="1"></stop></linearGradient> <linearGradient id="linearGradient2268" y2="308.27" gradientUnits="userSpaceOnUse" x2="560.25" gradientTransform="translate(-130.07 -101.06)" y1="265.48" x1="620.47" inkscape:collect="always"><stop id="stop2264" style="stop-color:#589c00" offset="0"></stop><stop id="stop2266" style="stop-color:#589c00;stop-opacity:0" offset="1"></stop></linearGradient> <linearGradient id="linearGradient2276" y2="452.49" gradientUnits="userSpaceOnUse" x2="589.57" gradientTransform="translate(-130.07 -101.06)" y1="440.6" x1="641.87" inkscape:collect="always"><stop id="stop2272" style="stop-color:#589c00" offset="0"></stop><stop id="stop2274" style="stop-color:#589c00;stop-opacity:0" offset="1"></stop></linearGradient> <linearGradient id="linearGradient2284" y2="462.9" gradientUnits="userSpaceOnUse" x2="173.54" gradientTransform="translate(-130.07 -101.06)" y1="421.59" x1="136.3" inkscape:collect="always"><stop id="stop2280" style="stop-color:#d7ffda" offset="0"></stop><stop id="stop2282" style="stop-color:#d7ffda;stop-opacity:0" offset="1"></stop></linearGradient> </defs> <path id="path605" style="fill-rule:evenodd;fill:#aae900" d="m297.18 251.35c7.17-4.15 15.85-6.4 21.51-12.44 24.18-25.8 40.11-102.34 40.81-136.18 1.14-54.491-46.63-99.786-99.35-102.31-74.78-3.5887-130.05 14.899-144.78 96.879-8.47 47.191 42.93 66.241 70.11 93.971 21.47 21.9 41.07 80.37-10.11 77.24-36.42-2.22-37.68-49.07-44.69-74.61-11.95-43.49-52.328-56.21-79.495-16.7-18.048 26.25-9.435 98.67 24.598 109.48 35.777 11.36 134.39-25.16 123.27 45.75-5.58 35.57-46.15 46.16-74.19 27.05-31.005-21.13-72.255-63.41-109.66-25.85-30.302 30.45-11.005 87.02 20.312 108.55 26.819 18.43 72.088 12.5 99.308-1.81 18.01-9.46 63.95-46.53 82.46-32.45 17.54 13.34-8.93 59.41-19.54 69.51-30.32 28.83-100.3-6.34-88.04 60.66 10.17 55.57 90.6 66.6 117.98 18.45 12.29-21.61 22.47-88.51 49.23-90.84 35.43-3.09 13.35 68.48 13.92 85.24 1.03 30.69 30.33 49.01 57.42 33.63 42.99-24.41 38.44-60.54 15.87-96.49-11.88-18.94-58.37-94.03-8.5-97.76 37.63-2.81 43.46 66.79 95.23 36.93 24.49-14.12 51.92-67.05 35.54-93.73-20.08-32.69-91.18 10.95-113.98 19.82-43.21 16.81-55.82 0.35-49.45-43.32 6.41-43.98 73.81-34.59 106.02-43.89 43.44-12.54 94.05-61.27 37.89-95.29-29.83-18.08-68.7-4.56-88.26 20.86-25.06 32.57-38.95 80.63-87.31 85.22-14.52 1.38-11.08-28.7 1.73-23.71 0.15 0.06-0.94 0.2 4.15-1.86z"></path> <path id="path635" sodipodi:nodetypes="csssssc" style="stroke-linejoin:round;fill-rule:evenodd;stroke:#000000;stroke-width:1.1125;fill:#000000" d="m247.81 117.42c-19.78-16.85-21.66-14.6-28.18-13.61-28.69 4.38-47.71 29.86-17.68 59.16 12.09 11.79 31.91 11.63 40.65 0.5 11.41-14.51 7.07-15.03 7.17-32.59 0.01-2.74-0.39-5.88-0.31-8.12-0.03 0.75 0.18-1.48-1.65-5.34z"></path> <path id="path636" style="stroke-linejoin:round;fill-rule:evenodd;stroke:#000000;stroke-width:1.1125;fill:#000000" d="m284.32 120.06c17.68-14.95 41.9-21.785 49.3 5.41 4.74 17.38-11.78 45.39-28.3 42.84-15.06-2.33-37.91-17.78-27.67-39.51 1.78-3.77 2.8-5.53 6.67-8.74z"></path> <path id="path637" style="fill-rule:evenodd;stroke:#000000;stroke-width:.93248;fill:#000000" d="m269.14 156.78c-7.29 6.44-21.43 29.17-12.54 35.55 3.68 2.64 9.93-12.4 11.67-14.42 0.3-0.35 3.18 6.23 5.55 15.63 1.37 5.48 11.24-2.95 7.94-10.95-2-4.84-9.28-22.39-12.62-25.81z"></path> <path id="path643" style="fill-rule:evenodd;fill:url(#linearGradient2246)" d="m157.85 40.232c-7.34 18.118-11.38 23.132-12.31 44.171-0.42 9.47 5.17 52.467-11.87 49.287-6.95-1.29-7.12-38.29-6.41-43.912 1.57-12.253 14.22-50.421 30.59-49.546z"></path> <path id="path644" style="fill-rule:evenodd;fill:url(#linearGradient2260)" d="m95.559 175.58c-1.7-3.4-14.267-5.68-17.702-3.76-4.423 2.47-19.314 20.14-21.725 20.16-0.147 0.01-1.051-6.71 2.179-13.87 4.635-10.28 22.26-25.13 32.86-13.54 5.064 5.53 4.186 6.47 4.388 11.01z"></path> <path id="path647" style="fill-rule:evenodd;fill:url(#linearGradient2284)" d="m47.994 337.94c-4.601-7.46-16.183-10.99-24.314-3.5-6.26 5.77-17.445 23.03-6.569 27.38 0.944 0.38 4.994-8.23 8.351-12.08 3.59-4.11 15.837-8.29 22.532-11.8z"></path> <path id="path648" style="fill-rule:evenodd;fill:url(#linearGradient2268)" d="m410.84 188c6.46-7.92 23.28-11.92 35.39-5.03 9.62 5.47 13.44 10.36 19.03 18.13 3.07 4.27 13.57-0.63 11.87-8.08-2.43-10.65-13.95-17.84-25.61-23.67-10.08-5.03-35.86 4.28-39.34 10.97-0.89 1.72-6.55 8.57-5.32 10.29 0.5 0.7 2.39-0.75 3.98-2.61z"></path> <path id="path650" style="fill-rule:evenodd;fill:url(#linearGradient2276)" d="m454.41 330.29c10.11-5.05 27.14 3.29 29.86 13.85 1.36 5.25 6.59 23.46-6.85 14.54-1.41-0.94-3.26-13.58-12.53-19.27-4.26-2.62-1.99-5.85-9.04-7.02-1.03-0.17-0.55-1.36-1.44-2.1z"></path> <path id="path2286" style="fill-rule:evenodd;stroke:#000000;stroke-width:.61914px;fill:#2b0000" d="m247.45 226.12c1.64-2.48-3.5-13.92 2.15-7.63 8.14 9.07 1.07-14.48 8.05-1.34 0.56 1.04 1.08 2.09 1.61 3.14 0.24 0.46 6.47-12.47 8.05-7.18 4.86 16.23-0.51-10.73 10.74 4.93 0.65 0.91 3.46-10.22 5.37 0.9 0.22 1.32 5.9-9.55 5.9-1.34 0 2.87-5.66 10.41-4.83 7.62 2.42-8.1-1.95-1.39-3.22 1.79-1.11 2.79 4.21-8.91-4.29-3.58-0.92 0.57-1.79 1.19-2.69 1.79-0.23 0.15-0.14-4.93-3.76-0.9-0.38 0.43-0.71-0.89-1.07-1.34-0.82-1.03-3.63 2-4.29 0.89-3.82-6.38-4.92 10.48-8.05 0-0.08-0.25-4.13 6.85-5.37 2.69-0.16-0.53-4.01-0.5-4.3-0.44z"></path> <metadata></metadata></svg> 