<?xml version="1.0" encoding="UTF-8" standalone="no"?> <!-- Created with Inkscape (http://www.inkscape.org/) --> <svg xmlns:inkscape="http://www.inkscape.org/namespaces/inkscape" xmlns:rdf="http://www.w3.org/1999/02/22-rdf-syntax-ns#" xmlns="http://www.w3.org/2000/svg" xmlns:sodipodi="http://sodipodi.sourceforge.net/DTD/sodipodi-0.dtd" xmlns:cc="http://web.resource.org/cc/" xmlns:xlink="http://www.w3.org/1999/xlink" xmlns:dc="http://purl.org/dc/elements/1.1/" xmlns:svg="http://www.w3.org/2000/svg" xmlns:ns1="http://sozi.baierouge.fr" id="svg5054" sodipodi:docname="biswajyotim_Bag.svg" sodipodi:modified="true" viewBox="0 0 194.73 182.93" sodipodi:version="0.32" inkscape:output_extension="org.inkscape.output.svg.inkscape" inkscape:version="0.45" sodipodi:docbase="/home/evans/Desktop"><defs id="defs5056"><linearGradient id="linearGradient2990" inkscape:collect="always"><stop id="stop2992" style="stop-color:black" offset="0"></stop><stop id="stop2994" style="stop-color:black;stop-opacity:0" offset="1"></stop></linearGradient><linearGradient id="linearGradient2972" inkscape:collect="always"><stop id="stop2974" style="stop-color:#f2f2f2" offset="0"></stop><stop id="stop2976" style="stop-color:#f2f2f2;stop-opacity:0" offset="1"></stop></linearGradient><linearGradient id="linearGradient2980" inkscape:collect="always"><stop id="stop2982" style="stop-color:#ececec" offset="0"></stop><stop id="stop2984" style="stop-color:#ececec;stop-opacity:0" offset="1"></stop></linearGradient><linearGradient id="linearGradient2205" y2="379.07" xlink:href="#linearGradient2990" gradientUnits="userSpaceOnUse" x2="155.39" gradientTransform="matrix(.66892 -.056576 .050722 .74613 133.03 -5.4946)" y1="376.41" x1="155.39" inkscape:collect="always"></linearGradient><linearGradient id="linearGradient2209" y2="391.27" xlink:href="#linearGradient2972" gradientUnits="userSpaceOnUse" x2="156.21" gradientTransform="matrix(.64038 -.017117 .041140 .65706 51.972 14.962)" y1="388.9" x1="156.08" inkscape:collect="always"></linearGradient><linearGradient id="linearGradient2213" y2="379.07" xlink:href="#linearGradient2990" gradientUnits="userSpaceOnUse" x2="155.39" gradientTransform="matrix(.64038 -.017117 .041140 .65706 51.972 14.962)" y1="376.41" x1="155.39" inkscape:collect="always"></linearGradient><linearGradient id="linearGradient2218" y2="391.27" xlink:href="#linearGradient2972" gradientUnits="userSpaceOnUse" x2="156.21" gradientTransform="matrix(.66892 -.056576 .050722 .74613 133.03 -5.4946)" y1="388.9" x1="156.08" inkscape:collect="always"></linearGradient><linearGradient id="linearGradient2221" y2="369.55" xlink:href="#linearGradient2980" gradientUnits="userSpaceOnUse" x2="156.39" gradientTransform="matrix(.66892 -.056576 .050722 .74613 133.03 -5.4946)" y1="367.56" x1="156.27" inkscape:collect="always"></linearGradient><linearGradient id="linearGradient2226" y2="369.55" xlink:href="#linearGradient2980" gradientUnits="userSpaceOnUse" x2="156.39" gradientTransform="matrix(.64038 -.017117 .041140 .65706 51.972 14.962)" y1="367.56" x1="156.27" inkscape:collect="always"></linearGradient></defs><g id="layer1" inkscape:label="Layer 1" inkscape:groupmode="layer" transform="translate(-146.07 -132.9)"><g id="g2237"><path id="path3042" sodipodi:nodetypes="cssscccccccccssc" style="fill-rule:evenodd;stroke:#000000;stroke-width:.97359px;fill:#000080" d="m313.26 159.9s16.68-26.6 21.59 6.1-8.34 65.95-9.32 68.17c-0.98 2.21-19.63 15.51-3.93 43.23 15.7 27.71 10.8 26.6 10.8 26.6l-4.91-0.56-1.96 4.44-5.89-13.86-7.85-63.18s6.38-3.32 10.79-19.4c9.07-33.5 4.25-50.24 1.48-57.64l-6.87-6.09-8.34-2.22s-8.84 1.11-11.78 8.87 4.91 12.19 6.87 11.64c1.96-0.56 10.3-6.1 9.32-6.1z"></path><path id="path2885" style="fill-rule:evenodd;stroke:#000000;stroke-width:.97359px;fill:#0000ff" d="m275.22 142.06s21.25 14.08 30.05 9.11c8.79-4.97 8.06 0.83 8.06 0.83s3.67 123.36 5.86 135.77c2.2 12.42-1.46 17.39-1.46 17.39s-33.72-1.66-35.18 4.97c-1.47 6.62-11-23.18-11-26.5 0-3.31-6.59-88.58-6.59-88.58l10.26-52.99z"></path><path id="path2883" sodipodi:nodetypes="cscscssc" style="fill-rule:evenodd;stroke:#000000;stroke-width:.97359px;fill:#ff00ff" d="m168.94 148.69s63.6 5.31 88.69-3.31c16.86-5.8 20.52-1.66 20.52-1.66s-15.39 96.04-4.4 120.05c11 24 8.06 47.19 8.06 47.19s-121.66 2.48-116.53-7.46c5.13-9.93-8.8-40.56-5.87-74.51 2.94-33.94 8.8-80.3 9.53-80.3z"></path><path id="path2891" sodipodi:nodetypes="ccccc" style="fill-rule:evenodd;stroke:#000000;stroke-width:.97359px;fill:#aa0000" d="m237.4 245.22l9.23 1.9-1.5 45.17-4.36-3.69-3.37-43.38z"></path><path id="path2893" sodipodi:nodetypes="cssccssc" style="stroke:#000000;stroke-width:.97359px;fill:none" d="m280.64 252.84c8.41 0.62 14.84 0.81 18.03-0.11 7.36-2.13 9.94-1.3 14.92-3.56 1.35-0.62 1.21 4.66 1.21 4.66v38.91s-0.06 2.5-3.94 4.06c-6.47 2.6-18.51 4.12-21.72-1.57-5.13-9.11-5.56-32.45-8.5-42.39z"></path><path id="path2895" sodipodi:nodetypes="csczszscscssccc" style="stroke:#000000;stroke-width:.96655px;fill:none" d="m281.43 257.28c21.04 1.53 29.5 6.16 33.29 9.15 1.9 1.49 0.18 4.64 0.18 4.64s-30.73-8.86-32.37-7.02c-0.8 0.9 0.21 2.33 0.51 3.68 0.3 1.31-0.15 2.56 0.72 2.66 1.74 0.19 28.89 1.65 30.33 7.45s1.44 4.97 1.44 4.97-29.97-11.64-30.69-5.01c-0.73 6.62 4.81 5.73 4.81 5.73s26.61-0.72 25.16 6.73c-0.65 3.39-2.87 0.34-8.82-0.5-7.15-1.01-18.19-0.27-18.19-0.27l0.29 1.6-0.51-2.32"></path><path id="path2897" sodipodi:nodetypes="csczszscscssccc" style="stroke:#000000;stroke-width:.96252px;fill:none" d="m291.76 297.38c20.02-6.91 20.07-9.98 23.14-13.87 1.53-1.94 0.28-9.64 0.28-9.64s-25.99 18-27.94 16.63c-0.95-0.67-2.18-3.77-2.16-5.17 0.03-1.35-0.27-1.15 0.55-1.46 1.65-0.64 27.18-10.37 27.42-16.39 0.25-6.02 1.7-5.07 1.7-5.07s-27.92 18.92-29.93 12.65 3.5-6.83 3.5-6.83 28.92-6 26.05-12.89c-1.3-3.13-5.92 0.26-11.5 2.61-6.71 2.83-20.46 3.79-20.46 3.79l2.91-0.47-0.02 2.4"></path><path id="path2910" sodipodi:nodetypes="ccssszssscczc" style="stroke:#000000;stroke-width:.20110;fill:#b3b3b3" d="m157.96 254.22l0.19 3.09s0.74 12.6 1.08 12.54c0.48-0.09 2.32 1.31 2.03 0.08-0.64-2.7-1.08-11.97-0.6-12.98 0.39-0.81 5.28-0.73 6.14-0.8 2.2-0.17 4.39-0.22 6.01-0.22 0.31 0 1 13.26 1.27 13.27 0.26 0 1.98 0.76 1.95-0.44-0.1-4.1-0.63-12.8-0.63-12.8l-0.18-2.86s-0.83-0.37-5.31-0.08c-4.53 0.29-11.95 1.2-11.95 1.2z"></path><path id="path2944" sodipodi:nodetypes="cczccszsc" style="fill:url(#linearGradient2226)" d="m158.08 254.26l0.07 2.96s4.6-1.42 8.91-1.76 8.33 0.42 8.33 0.42l-0.18-2.87s-2.61-0.06-5.49 0.2c-0.89 0.08-1.79 0.19-2.66 0.34-1.5 0.26-3.26 0.14-4.77 0.39-1.8 0.29-4.21 0.32-4.21 0.32z"></path><path id="path3018" sodipodi:nodetypes="cczcczc" style="stroke:#000000;stroke-width:.21947;fill:#b3b3b3" d="m247.6 275.8l0.24 3.5s4.41 0.02 8.91-0.62c4.5-0.63 9.09-1.91 9.09-1.91l-0.22-3.25s-3.84 0.99-8.35 1.56c-4.5 0.57-9.67 0.72-9.67 0.72z"></path><path id="path3016" sodipodi:nodetypes="ccssszssscczc" style="stroke:#000000;stroke-width:.21947;fill:#b3b3b3" d="m246.59 260.93l0.24 3.5s0.92 14.31 1.27 14.23c0.5-0.13 2.44 1.36 2.12-0.03-0.7-3.03-1.26-13.57-0.77-14.75 0.39-0.94 5.5-1.14 6.4-1.26 2.3-0.33 4.58-0.51 6.27-0.6 0.33-0.02 1.21 15.05 1.49 15.03 0.27-0.01 2.07 0.76 2.03-0.6-0.15-4.67-0.81-14.55-0.81-14.55l-0.22-3.25s-0.87-0.37-5.55 0.22c-4.73 0.59-12.47 2.06-12.47 2.06z"></path><path id="path3022" sodipodi:nodetypes="cczccszsc" style="fill:url(#linearGradient2221)" d="m246.72 260.96l0.1 3.37s4.79-1.88 9.29-2.52c4.5-0.63 8.71 0 8.71 0l-0.22-3.26s-2.73 0.09-5.74 0.55c-0.92 0.14-1.87 0.31-2.77 0.53-1.56 0.39-3.4 0.36-4.98 0.73-1.88 0.43-4.39 0.6-4.39 0.6z"></path><path id="path3024" sodipodi:nodetypes="cczcczc" style="fill:url(#linearGradient2218)" d="m247.82 276.28l0.11 2.52s4.24 0.31 8.92-0.48c4.62-0.79 8.77-1.96 8.77-1.96l-0.16-2.4s-3.78 0.91-8.29 1.48c-4.5 0.57-9.35 0.84-9.35 0.84z"></path><path id="path5092" sodipodi:nodetypes="csccsssssssssssssssssssc" style="fill-rule:evenodd;stroke:#000000;stroke-width:.70662px;fill:#800080" d="m166.64 144.79s64.7 1.16 88.86-1.74c23.51-2.82 22.77 1.61 22.77 1.61-20.79 28.93 7.04 62.92-17.59 82.95 0 0-1.45-0.26-4.03-0.67-0.91-0.14-2.42 9.03-1.51 24.13 0.29 4.7 2.95 10.68 3.81 16.37 0.95 6.29 0.17 12.29 2.4 17.18 2.52 5.51-9.05 0.38-9.36 2.1-1.32 7.25-0.42-4.4-0.81-17.33-0.21-6.86-2.9-15.46-3.3-20.4-0.59-7.17 1.28-17.29-0.55-22.34-0.56-1.56 0.41-1.75-1.23-1.96-12.08-1.58-32.06-2.87-47.84-2.87-7.3 0.01-14.43 0.46-20.89 1.06-0.82 0.08-7.92 8-7.5 19.58 0.34 9.3 0.07 26.29 2.44 34.54 1.34 4.69-13.33 2.8-11.99 0.27 0.46-0.87 2.89-5.71 2.96-7.65 0.27-7.28-1.61-20.41-1.24-26.37 0.67-10.73 5.22-20.1 4.01-19.94-9.3 1.21-17.5 3.28-16.28 2.04 5.14-5.22 10.98-19.67 7.32-38.34-3.47-17.72 8.81-42.22 9.55-42.22z"></path><path id="path2932" sodipodi:nodetypes="cczcczc" style="stroke:#000000;stroke-width:.20110;fill:#cccccc" d="m158.37 260.79l0.19 3.09s4.57-0.93 8.88-1.26c4.32-0.34 8.37-0.09 8.37-0.09l-0.18-2.86s-4.05-0.18-8.36 0.1c-4.32 0.29-8.9 1.02-8.9 1.02z"></path><path id="path2988" sodipodi:nodetypes="cczcczc" style="stroke:#000000;stroke-width:.20110;fill:url(#linearGradient2213)" d="m158.37 260.79l0.19 3.09s4.57-0.93 8.88-1.26c4.32-0.34 8.37-0.09 8.37-0.09l-0.18-2.86s-4.05-0.18-8.36 0.1c-4.32 0.29-8.9 1.02-8.9 1.02z"></path><path id="path2928" sodipodi:nodetypes="cczcczc" style="stroke:#000000;stroke-width:.20110;fill:#b3b3b3" d="m158.78 267.32l0.19 3.08s4.22 0.23 8.53-0.11c4.32-0.33 8.72-1.23 8.72-1.23l-0.18-2.87s-3.69 0.68-8 0.96c-4.32 0.28-9.26 0.17-9.26 0.17z"></path><path id="path2962" sodipodi:nodetypes="cczcczc" style="fill:url(#linearGradient2209)" d="m158.99 267.75l0.08 2.21s4.05 0.49 8.54 0.02c4.42-0.47 8.4-1.29 8.4-1.29l-0.13-2.12s-3.63 0.62-7.94 0.9c-4.32 0.28-8.95 0.28-8.95 0.28z"></path><path id="path3020" sodipodi:nodetypes="cczcczc" style="stroke:#000000;stroke-width:.21947;fill:#cccccc" d="m247.1 268.39l0.24 3.5s4.76-1.31 9.26-1.95c4.5-0.63 8.74-0.58 8.74-0.58l-0.22-3.25s-4.23 0.04-8.74 0.61c-4.5 0.57-9.28 1.67-9.28 1.67z"></path><path id="path3026" sodipodi:nodetypes="cczcczc" style="stroke:#000000;stroke-width:.21947;fill:url(#linearGradient2205)" d="m247.1 268.39l0.24 3.5s4.76-1.31 9.26-1.95c4.5-0.63 8.74-0.58 8.74-0.58l-0.22-3.25s-4.23 0.04-8.74 0.61c-4.5 0.57-9.28 1.67-9.28 1.67z"></path><path id="path2889" sodipodi:nodetypes="ccsccz" style="fill-rule:evenodd;stroke:#000000;stroke-width:.97359px;fill:#ff0000" d="m172.61 245.55c-5.83-4.56 8.79 45.54 8.79 45.54s35.32 4.29 51.31 3.31c9.99-0.62 11.72-1.66 11.72-1.66l-5.86-47.19s-59.3 5.22-65.96 0z"></path><path id="text2903" style="fill:#ff0000" transform="matrix(.91606 0 0 1.0347 42.228 -.59179)" d="m144.87 178.13l0.02-1.69 3.03 0.03 0.18-20.46-3.04-0.02 0.02-1.71 19.21 0.16-0.05 5.31-1.97-0.02 0.03-3.34-10.96-0.09-0.07 7.99 7.82 0.06 0.02-2.98 1.97 0.01-0.07 7.93-1.97-0.02 0.03-2.99-7.81-0.06-0.09 9.98 11.22 0.1 0.03-3.34 1.96 0.02-0.05 5.3-19.46-0.17m23.94 0.19v-1.69l3.03-0.01-0.04-20.45h-3.03v-1.71l19.52-0.03 0.01 5.3-1.96 0.01-0.01-3.34-11.28 0.02 0.01 7.99 8.15-0.02v-2.98l1.96-0.01 0.02 7.93h-1.97v-2.99l-8.15 0.02 0.02 10.26 3.81-0.01 0.01 1.69-10.1 0.02m41.54-17.09c-0.4-1.99-1.21-3.44-2.41-4.37-1.2-0.94-2.85-1.39-4.96-1.35-2.75 0.05-4.78 0.97-6.1 2.76-1.33 1.79-1.95 4.48-1.89 8.06 0.06 3.5 0.81 6.14 2.23 7.92 1.43 1.77 3.5 2.63 6.2 2.59 1.21-0.02 2.35-0.19 3.44-0.51 1.1-0.32 2.13-0.78 3.11-1.4l-0.11-6.15-4.49 0.08-0.03-1.71 7.74-0.14 0.15 8.9c-1.4 0.85-2.92 1.49-4.55 1.94-1.62 0.43-3.36 0.66-5.23 0.7-3.6 0.06-6.5-1.01-8.72-3.22-2.2-2.22-3.33-5.2-3.4-8.94-0.07-3.77 0.97-6.79 3.1-9.07s5.04-3.46 8.71-3.52c1.37-0.03 2.77 0.11 4.23 0.4 1.46 0.28 3.02 0.73 4.67 1.34l0.1 5.66-1.79 0.03m7.31 16.74l-0.11-1.69 3.03-0.19-1.29-20.42-3.03 0.2-0.11-1.71 9.3-0.59 0.11 1.71-3.03 0.19 0.52 8.23 12.34-0.78-0.52-8.23-3.03 0.19-0.1-1.7 9.29-0.59 0.11 1.71-3.03 0.19 1.29 20.41 3.03-0.19 0.1 1.69-9.29 0.59-0.11-1.69 3.03-0.19-0.64-10.24-12.35 0.78 0.65 10.23 3.03-0.19 0.1 1.69-9.29 0.59"></path></g></g><metadata></metadata></svg> 