<?xml version="1.0" encoding="UTF-8" standalone="no"?> <!-- Generator: Adobe Illustrator 13.0.1, SVG Export Plug-In . SVG Version: 6.00 Build 14948) --> <svg xmlns:rdf="http://www.w3.org/1999/02/22-rdf-syntax-ns#" xmlns="http://www.w3.org/2000/svg" xmlns:x="http://ns.adobe.com/Extensibility/1.0/" xmlns:dc="http://purl.org/dc/elements/1.1/" xmlns:i="http://ns.adobe.com/AdobeIllustrator/10.0/" xmlns:cc="http://web.resource.org/cc/" xmlns:xlink="http://www.w3.org/1999/xlink" xmlns:a="http://ns.adobe.com/AdobeSVGViewerExtensions/3.0/" xmlns:graph="http://ns.adobe.com/Graphs/1.0/" xmlns:svg="http://www.w3.org/2000/svg" xmlns:inkscape="http://www.inkscape.org/namespaces/inkscape" xmlns:sodipodi="http://sodipodi.sourceforge.net/DTD/sodipodi-0.dtd" xmlns:ns1="http://sozi.baierouge.fr" xml:space="preserve" y="0px" x="0px" viewBox="0 0 307.572 451.561"> <g id="seeds_xA0_Image"> <path clip-rule="evenodd" d="m132.54 6.299c-5.277 1.524-14.313 2.223-19.687 1.737 4.45-3.629 14.51-3.19 19.69-1.737z" fill-rule="evenodd"></path> <path clip-rule="evenodd" d="m107.07 8.615c-5.26 1.706-13.77 1.335-19.686 1.737 4.138-3.254 14.456-2.907 19.686-1.737z" fill-rule="evenodd"></path> <path clip-rule="evenodd" d="m141.23 9.194c-0.822-0.05-1.64-0.096-1.737 0.579-0.628-0.144-0.393-1.151-1.158-1.158 0.06-1.722 3.46-1.549 2.9 0.579z" fill-rule="evenodd"></path> <path clip-rule="evenodd" d="m191.6 10.352c-1.803-0.514-3.982-0.649-4.633-2.316 1.41-0.983 5.18-0.465 4.63 2.316z" fill-rule="evenodd"></path> <path clip-rule="evenodd" d="m167.29 8.036h2.895c0.86 3.133-3.54 2.792-2.89 0z" fill-rule="evenodd"></path> <path clip-rule="evenodd" d="m206.66 8.615c4.312 1.284 10.371 0.823 11 5.79-3.703-0.928-6.002-3.262-11-2.895v-2.895z" fill-rule="evenodd"></path> <path clip-rule="evenodd" d="m138.92 10.931c1.41 0.327 2.978 0.496 2.895 2.316-1.039-0.074-1.221 0.708-2.316 0.579-0.49-0.672-0.77-1.552-0.58-2.895z" fill-rule="evenodd"></path> <path clip-rule="evenodd" d="m80.434 13.248c-5.986-0.093-13.25 2.235-18.529 2.316 3.192-3.076 14.639-5.534 18.529-2.316z" fill-rule="evenodd"></path> <path clip-rule="evenodd" d="m124.44 12.089c-0.45 3.41-6.641 1.079-9.264 2.316 0.08-4.023 8.51-2.301 9.26-2.316z" fill-rule="evenodd"></path> <path clip-rule="evenodd" d="m240.82 17.879c-3.257 1.075-14.518-2.808-16.792-4.632 4.33-1.756 12.65 2.355 16.79 4.632z" fill-rule="evenodd"></path> <path clip-rule="evenodd" d="m108.23 14.405c-5.48 1.865-16.36 1.395-20.269 2.895 1.829-3.546 8.849-3.957 13.317-4.053 2.52-0.054 5.05 0.497 6.95 1.158z" fill-rule="evenodd"></path> <path clip-rule="evenodd" d="m185.81 14.984c-0.558 2.513-6.021 0.88-6.947 0 0.88-2.336 5.33-0.517 6.95 0z" fill-rule="evenodd"></path> <path clip-rule="evenodd" d="m198.55 14.405c0.467 2.396-0.889 2.972-2.895 2.895 0.074-1.039-0.709-1.221-0.579-2.316 0.68-0.666 2.04-0.655 3.47-0.579z" fill-rule="evenodd"></path> <path clip-rule="evenodd" d="m53.799 15.563c-4.009 2.137-8.477 2.852-14.476 4.053 1.535-4.431 12.017-4.162 14.476-4.053z" fill-rule="evenodd"></path> <path clip-rule="evenodd" d="m215.34 19.038c-2.979-0.88-6.284-1.436-9.843-1.737v-1.737c2.47-0.205 9.61-0.448 9.84 3.474z" fill-rule="evenodd"></path> <path clip-rule="evenodd" d="m82.171 19.617c-6.72-0.711-12.719 1.372-16.792 1.158 1.192-2.875 15.281-5.766 16.792-1.158z" fill-rule="evenodd"></path> <path clip-rule="evenodd" d="m225.19 17.879c5.145 1.226 12.157 0.582 13.896 5.211-4.54-1.831-12.28-0.463-13.9-5.211z" fill-rule="evenodd"></path> <path clip-rule="evenodd" d="m56.115 19.038c0.074 1.039-0.708 1.221-0.579 2.316-5.975-0.571-8.82 1.989-13.317 2.895 0.974-5.066 10.446-4.533 13.896-5.211z" fill-rule="evenodd"></path> <path clip-rule="evenodd" d="m124.44 18.458c-0.332 3.095-6.902 2.547-8.685 2.316 0.42-3.238 5.26-2.066 8.68-2.316z" fill-rule="evenodd"></path> <path clip-rule="evenodd" d="m169.02 19.038c0.467 2.396-0.889 2.971-2.895 2.895 0.073-1.039-0.709-1.221-0.58-2.316 0.69-0.667 2.06-0.656 3.48-0.579z" fill-rule="evenodd"></path> <path clip-rule="evenodd" d="m264.56 25.407c-6.559-0.389-9.516-4.381-16.791-4.053v-1.737c5.45-0.184 13.72 1.68 16.79 5.79z" fill-rule="evenodd"></path> <path clip-rule="evenodd" d="m33.534 19.617c-3.45 2.209-9.823 4.374-13.317 4.632 2.139-3.844 7.275-4.691 13.317-4.632z" fill-rule="evenodd"></path> <path clip-rule="evenodd" d="m108.23 21.933c-5.245-0.696-14.651 1.206-19.107 1.158 0.763-2.843 14.807-4.833 19.107-1.158z" fill-rule="evenodd"></path> <path clip-rule="evenodd" d="m178.29 20.195c4.344-0.097 8.241 0.252 10.423 2.316-1.77 2.006-9.36 0.204-10.42-2.316z" fill-rule="evenodd"></path> <path clip-rule="evenodd" d="m204.92 20.195c4.184 0.257 7.961 0.918 9.844 3.474-2.936 1.567-6.082-1.625-9.844-1.158v-2.316z" fill-rule="evenodd"></path> <path clip-rule="evenodd" d="m37.587 23.09c-3.316 3.247-9.9 3.225-14.476 5.211 2.236-4.342 9.187-5.686 14.476-5.211z" fill-rule="evenodd"></path> <path clip-rule="evenodd" d="m140.07 22.512c1.41 0.327 2.979 0.496 2.895 2.316-1.039-0.074-1.221 0.709-2.316 0.579-0.47-0.673-0.75-1.553-0.57-2.895z" fill-rule="evenodd"></path> <path clip-rule="evenodd" d="m237.35 25.986c-4.256 3.01-9.973-2.316-16.213-1.158v-1.158c4.4-2.788 12.85 0.215 16.21 2.316z" fill-rule="evenodd"></path> <path clip-rule="evenodd" d="m247.19 22.512c5.456 1.492 12.384 1.513 14.476 6.369-5.167-1.009-8.335-4.018-14.476-4.053v-2.316z" fill-rule="evenodd"></path> <path clip-rule="evenodd" d="m82.75 25.986c-5.581-2.021-11.967 1.459-16.212 0.579 1.505-3.168 13.741-5.203 16.212-0.579z" fill-rule="evenodd"></path> <path clip-rule="evenodd" d="m57.853 24.249c-3.232 2.429-9.859 4.338-13.896 4.053 1.83-3.829 9.71-4.487 13.896-4.053z" fill-rule="evenodd"></path> <path clip-rule="evenodd" d="m123.28 27.144c-3.27-0.714-6.023 1.365-8.106 0 0.28-2.23 8.72-3.999 8.11 0z" fill-rule="evenodd"></path> <path clip-rule="evenodd" d="m214.76 28.881c-3.759-0.68-8.807-0.072-9.844-3.474 3.21-0.938 8.69 0.468 9.84 3.474z" fill-rule="evenodd"></path> <path clip-rule="evenodd" d="m244.29 25.986c5.58 1.947 13.49 1.564 15.634 6.948-4.765-1.991-9.679-3.832-15.634-4.632v-2.316z" fill-rule="evenodd"></path> <path clip-rule="evenodd" d="m281.93 31.776c-3.958-2.025-9.473-2.494-13.317-4.632 3.57-2.138 11.78 0.9 13.32 4.632z" fill-rule="evenodd"></path> <path clip-rule="evenodd" d="m108.23 28.881c-6.367-0.708-12.359 1.837-16.792 1.158 2.793-3.447 13.382-5.613 16.792-1.158z" fill-rule="evenodd"></path> <path clip-rule="evenodd" d="m237.35 31.776c-5.092 0.655-11.848-3.202-16.792-2.895v-1.737c5.66-0.779 12.92 1.7 16.79 4.632z" fill-rule="evenodd"></path> <path clip-rule="evenodd" d="m186.39 31.197c-2.932-0.156-4.312-1.864-8.107-1.158 0.074-1.039-0.708-1.221-0.578-2.316 3.57-0.395 7.61-0.045 8.69 3.474z" fill-rule="evenodd"></path> <path clip-rule="evenodd" d="m35.271 29.459c-3.466 0.712-5.616 1.399-9.265 2.896 0.094-0.673-0.127-1.03-0.579-1.158 2.126-1.589 7.789-5.385 9.844-1.738z" fill-rule="evenodd"></path> <path clip-rule="evenodd" d="m16.742 28.302c0.563 0.016 0.449 0.708 0.579 1.158-2.331 2.494-4.832 4.819-7.527 6.948-0.157-5.175 3.798-6.238 6.948-8.106z" fill-rule="evenodd"></path> <path clip-rule="evenodd" d="m59.589 29.459c-3.746 2.049-10.109 4.553-14.476 4.053 3.001-2.794 9.606-5.055 14.476-4.053z" fill-rule="evenodd"></path> <path clip-rule="evenodd" d="m85.066 31.197c-4.186 0.914-14.371 1.036-17.949 2.316 1.903-5.184 13.415-4.732 17.949-2.316z" fill-rule="evenodd"></path> <path clip-rule="evenodd" d="m166.71 29.459c1.629 0.108 2.467 1.008 2.316 2.896h-2.895c-0.2-1.343 0.08-2.223 0.57-2.896z" fill-rule="evenodd"></path> <path clip-rule="evenodd" d="m268.04 29.459c5.166 1.396 11.36 1.764 13.317 6.369-4.53-2.042-10.95-2.179-13.32-6.369z" fill-rule="evenodd"></path> <path clip-rule="evenodd" d="m202.61 30.618c4.378 0.64 9.132 0.904 10.423 4.632-2.58-0.243-9.26-1.082-10.42-4.632z" fill-rule="evenodd"></path> <path clip-rule="evenodd" d="m243.72 30.618c5.719 0.65 10.641 2.097 13.896 5.211-2.96 1.143-10.74-2.717-13.9-5.211z" fill-rule="evenodd"></path> <path clip-rule="evenodd" d="m218.82 31.197c6.544 1.177 14.872 0.569 16.792 6.369-5.769-0.986-9.263-4.248-16.212-4.053-0.45-0.515-0.62-1.307-0.58-2.316z" fill-rule="evenodd"></path> <path clip-rule="evenodd" d="m123.86 31.776c0.53 3.254-4.453 3.356-6.369 2.316 0.13-2.766 4.22-1.574 6.37-2.316z" fill-rule="evenodd"></path> <path clip-rule="evenodd" d="m18.479 32.355c1.066 3.01-2.047 6.821-5.791 6.948 0.345-3.902 3.28-5.214 5.791-6.948z" fill-rule="evenodd"></path> <path clip-rule="evenodd" d="m38.745 32.355c-1.407 3.225-5.493 3.771-9.264 4.632 0.562-4.07 5.673-3.591 9.264-4.632z" fill-rule="evenodd"></path> <path clip-rule="evenodd" d="m280.19 39.303c-4.099-1.498-9.227-1.968-12.159-4.632-0.094-0.673 0.128-1.03 0.579-1.158 3.51 0.059 9.93 1.97 11.58 5.79z" fill-rule="evenodd"></path> <path clip-rule="evenodd" d="m110.54 35.25c-4.797 1.444-12.136 0.882-17.37 1.158 1.625-4.405 13.63-2.829 17.37-1.158z" fill-rule="evenodd"></path> <path clip-rule="evenodd" d="m61.327 35.829c-5.711-0.494-9.165 4.338-13.896 2.896 2.23-2.543 11.181-6.499 13.896-2.896z" fill-rule="evenodd"></path> <path clip-rule="evenodd" d="m186.97 34.671c0.453 2.576-0.545 3.7-2.895 3.474-0.34-2.464 0.19-4.055 2.89-3.474z" fill-rule="evenodd"></path> <path clip-rule="evenodd" d="m255.88 40.461c-5.608-0.568-9.643-2.709-13.896-4.632 3.61-1.99 11.58 1.487 13.9 4.632z" fill-rule="evenodd"></path> <path clip-rule="evenodd" d="m86.803 36.987c-5.032 2.35-10.815 0.027-17.371 2.316 4.996-4.72 11.784-3.643 17.371-2.316z" fill-rule="evenodd"></path> <path clip-rule="evenodd" d="m233.87 41.619c-4.317 0-10.574-2.882-16.213-3.474v-1.737c4.96-0.077 13.51 1.109 16.21 5.211z" fill-rule="evenodd"></path> <path clip-rule="evenodd" d="m265.72 35.829c3.553 1.852 9.107 1.701 10.422 5.791-3.72-1.689-9.54-1.266-10.42-5.791z" fill-rule="evenodd"></path> <path clip-rule="evenodd" d="m22.532 36.408c-1.146 3.293-3.79 5.088-6.948 6.369 0.271-4.168 3.29-5.589 6.948-6.369z" fill-rule="evenodd"></path> <path clip-rule="evenodd" d="m42.798 36.987c-3.348 1.37-7.597 4.639-11.001 4.053 0.975-3.664 7.384-4.958 11.001-4.053z" fill-rule="evenodd"></path> <path clip-rule="evenodd" d="m141.23 36.408h2.316c0.185 1.343-0.093 2.223-0.579 2.896-1.81 0.264-1.85-1.238-1.74-2.896z" fill-rule="evenodd"></path> <path clip-rule="evenodd" d="m164.97 36.408h2.316c-0.095 0.673 0.127 1.03 0.578 1.158-0.21 1.919-3.57 1.134-2.9-1.158z" fill-rule="evenodd"></path> <path clip-rule="evenodd" d="m212.45 41.619c-4.082-0.549-6.906-2.357-11.001-2.895v-1.737c3.84-0.839 9.44 1.281 11 4.632z" fill-rule="evenodd"></path> <path clip-rule="evenodd" d="m285.98 37.566c3.259 1.566 7.252 2.399 8.106 6.369-2.36-2.465-7.77-1.884-8.11-6.369z" fill-rule="evenodd"></path> <path clip-rule="evenodd" d="m239.66 38.145c5.388 1.367 12.118 1.393 13.317 6.948-3.87-2.883-11.59-1.916-13.32-6.948z" fill-rule="evenodd"></path> <path clip-rule="evenodd" d="m125.02 39.303c-0.904 3.195-4.573 1.662-7.527 1.737 0.86-3.091 6.26-1.893 7.53-1.737z" fill-rule="evenodd"></path> <path clip-rule="evenodd" d="m273.82 44.514c-3.144-0.234-9.708-1.802-11.58-5.211 3.65-0.273 9.47 2.039 11.58 5.211z" fill-rule="evenodd"></path> <path clip-rule="evenodd" d="m26.585 39.882c-1.595 3.038-3.911 5.354-6.948 6.948-0.677-3.128 2.388-7.164 6.948-6.948z" fill-rule="evenodd"></path> <path clip-rule="evenodd" d="m63.643 39.882c-2.805 2.289-9.258 3.765-12.738 3.474 2.557-2.846 7.331-3.476 12.738-3.474z" fill-rule="evenodd"></path> <path clip-rule="evenodd" d="m290.62 46.83c-3.435-1.391-7.104-2.548-8.686-5.79 2.8-0.164 7.68 2.269 8.69 5.79z" fill-rule="evenodd"></path> <path clip-rule="evenodd" d="m10.373 41.04c2.526 0.887 0.446 6.411-1.737 6.369-0.247-2.949 0.889-4.515 1.737-6.369z" fill-rule="evenodd"></path> <path clip-rule="evenodd" d="m88.54 41.619c-4.279 3.532-10.792 0.371-17.371 2.895 4.998-5.106 11.081-2.886 17.371-2.895z" fill-rule="evenodd"></path> <path clip-rule="evenodd" d="m217.08 41.04c5.703 0.859 11.595 1.529 15.055 4.632-3.117 1.871-9.723-2.565-15.055-2.316v-2.316z" fill-rule="evenodd"></path> <path clip-rule="evenodd" d="m43.377 42.198c-1.969 1.822-6.475 3.778-8.685 3.474 0.412-3.265 5.381-5.026 8.685-3.474z" fill-rule="evenodd"></path> <path clip-rule="evenodd" d="m111.7 43.935c-6.096-1.976-11.854 1.334-15.633-0.579 1.78-2.357 14.833-3.54 15.633 0.579z" fill-rule="evenodd"></path> <path clip-rule="evenodd" d="m143.55 41.619c-0.073 1.039 0.709 1.221 0.579 2.316-0.781 0.79-4.042 1.104-4.053-0.579-0.34-2.074 1.71-1.76 3.47-1.737z" fill-rule="evenodd"></path> <path clip-rule="evenodd" d="m272.67 47.409c-3.144-0.234-9.708-1.802-11.58-5.211 3.83-0.458 8.95 2.551 11.58 5.211z" fill-rule="evenodd"></path> <path clip-rule="evenodd" d="m298.14 41.619c2.179 0.546 4.554 3.255 3.475 5.211-2.03-0.698-5.02-2.796-3.48-5.211z" fill-rule="evenodd"></path> <path clip-rule="evenodd" d="m177.71 42.198c2.832 0.062 5.767 0.023 6.369 2.316-1.62 0.736-6.87 0.908-6.37-2.316z" fill-rule="evenodd"></path> <path clip-rule="evenodd" d="m251.24 48.567c-3.971 0.405-9.107-2.792-13.318-4.053 3.07-3.577 10.21 2.071 13.32 4.053z" fill-rule="evenodd"></path> <path clip-rule="evenodd" d="m200.29 43.356c4.359-0.306 6.865 1.241 10.422 1.737-0.237 1.395 1.057 1.258 0.578 2.895-3.24-1.973-10.33-0.095-11-4.632z" fill-rule="evenodd"></path> <path clip-rule="evenodd" d="m28.902 44.514c-1.344 2.447-4.47 5.783-6.948 5.211 0.686-3.104 4.083-6.169 6.948-5.211z" fill-rule="evenodd"></path> <path clip-rule="evenodd" d="m280.19 44.514c3.674 0.958 6.657 2.607 8.106 5.79-3.62-1.013-7.03-2.235-8.11-5.79z" fill-rule="evenodd"></path> <path clip-rule="evenodd" d="m12.689 51.462h-1.737c0.015-3.266 0.253-6.309 3.474-6.369 0.132 2.834-1.765 3.639-1.737 6.369z" fill-rule="evenodd"></path> <path clip-rule="evenodd" d="m64.8 45.093c-2.311 2.783-9.787 3.234-12.738 3.474 2.787-2.617 7.767-3.041 12.738-3.474z" fill-rule="evenodd"></path> <path clip-rule="evenodd" d="m258.77 45.093c4.084 1.126 7.812 2.609 11 4.632-2.11 1.434-10.45-0.665-11-4.632z" fill-rule="evenodd"></path> <path clip-rule="evenodd" d="m45.693 46.251c-1.604 2.255-4.983 2.737-8.106 3.474 0.492-2.994 5.415-4.605 8.106-3.474z" fill-rule="evenodd"></path> <path clip-rule="evenodd" d="m124.44 45.672v2.316c-2.29 0.544-3.357 0.452-5.211-0.579 0.35-1.96 3.89-0.735 5.21-1.737z" fill-rule="evenodd"></path> <path clip-rule="evenodd" d="m296.41 45.672c2.793 0.103 3.808 1.982 4.054 4.632-2.28-0.616-3.52-2.265-4.05-4.632z" fill-rule="evenodd"></path> <path clip-rule="evenodd" d="m215.92 46.251c5.607 0.762 11.837 0.902 14.475 4.632-3.15-0.981-12.64-0.428-14.48-4.632z" fill-rule="evenodd"></path> <path clip-rule="evenodd" d="m248.93 51.462c-2.305 0.871-10.727-1.951-13.317-4.632 4.62-0.866 10.67 1.622 13.32 4.632z" fill-rule="evenodd"></path> <path clip-rule="evenodd" d="m90.277 49.146c-5.738-0.713-11.852 1.264-15.634 0.579 2.592-2.144 13.649-5.184 15.634-0.579z" fill-rule="evenodd"></path> <path clip-rule="evenodd" d="m278.46 47.409c2.101 2.146 6.613 1.879 6.948 5.79-2.62-1.629-6.88-1.619-6.95-5.79z" fill-rule="evenodd"></path> <path clip-rule="evenodd" d="m31.218 48.567c-1.763 2.097-3.065 4.655-6.369 5.211-0.247-3.855 3.998-5.854 6.369-5.211z" fill-rule="evenodd"></path> <path clip-rule="evenodd" d="m114.02 50.304c-4.221-0.691-13.772 1.418-16.792 0 4.732-3.628 13.632-2.133 16.792 0z" fill-rule="evenodd"></path> <path clip-rule="evenodd" d="m142.39 47.988h2.316v2.316c-1.343 0.185-2.223-0.093-2.895-0.579 0.3-0.466 0.59-0.94 0.57-1.737z" fill-rule="evenodd"></path> <path clip-rule="evenodd" d="m256.46 48.567c3.961 1.635 10.262 0.932 11.001 5.79-3.37-2.234-9.96-1.243-11-5.79z" fill-rule="evenodd"></path> <path clip-rule="evenodd" d="m208.4 53.199c-2.771-1.088-6.842-0.877-9.844-1.737v-1.737c2.59-0.329 9.82-0.668 9.84 3.474z" fill-rule="evenodd"></path> <path clip-rule="evenodd" d="m294.09 49.146c2.792 0.104 3.808 1.983 4.053 4.632-2.28-0.616-3.52-2.265-4.05-4.632z" fill-rule="evenodd"></path> <path clip-rule="evenodd" d="m48.009 50.304c-1.993 2.06-4.927 3.18-8.686 3.474 0.761-3.293 4.43-3.677 8.686-3.474z" fill-rule="evenodd"></path> <path clip-rule="evenodd" d="m61.905 50.304c3.274 0.007 7.105-0.543 7.527 2.316-2.867 0.106-5.107-1.307-7.527 0v-2.316z" fill-rule="evenodd"></path> <path clip-rule="evenodd" d="m227.5 55.515c-4.277-1.126-8.429-2.379-13.317-2.895-0.306-0.465-0.604-0.94-0.579-1.737 3.6-0.654 12.19 0.002 13.9 4.632z" fill-rule="evenodd"></path> <path clip-rule="evenodd" d="m283.67 57.252c-4.009-0.623-6.619-2.645-8.105-5.79 2.88-0.422 6.6 2.959 8.11 5.79z" fill-rule="evenodd"></path> <path clip-rule="evenodd" d="m35.271 51.462c-1.033 3.406-4.06 4.818-6.948 6.369-1.177-3.678 3.715-5.277 6.948-6.369z" fill-rule="evenodd"></path> <path clip-rule="evenodd" d="m61.327 52.62c-3.132-0.623-3.449 1.57-6.37 1.158 0.248-1.944 4.734-3.506 6.37-1.158z" fill-rule="evenodd"></path> <path clip-rule="evenodd" d="m92.593 52.62c-2.792 2.143-12.278 2.304-16.792 2.316 2.829-3.159 11.62-3.428 16.792-2.316z" fill-rule="evenodd"></path> <path clip-rule="evenodd" d="m164.39 52.62c1.812-0.269 2.585 0.503 2.315 2.316-1.81 0.269-2.58-0.503-2.31-2.316z" fill-rule="evenodd"></path> <path clip-rule="evenodd" d="m181.18 52.62c1.81-0.265 1.851 1.237 1.737 2.895-2.2 0.505-2.72-1.922-1.74-2.895z" fill-rule="evenodd"></path> <path clip-rule="evenodd" d="m254.72 52.62c4.15 1.061 8.063 2.359 11.001 4.632-2.943 2.524-6.709-2.508-11.001-2.316v-2.316z" fill-rule="evenodd"></path> <path clip-rule="evenodd" d="m292.35 52.62c1.952 0.364 2.666 1.967 2.895 4.053-2.58 0.276-2.89-1.734-2.89-4.053z" fill-rule="evenodd"></path> <path clip-rule="evenodd" d="m49.167 53.778c-1.371 1.877-5.441 3.604-7.527 2.895 0.693-2.408 5.161-4.083 7.527-2.895z" fill-rule="evenodd"></path> <path clip-rule="evenodd" d="m127.33 54.357c-0.458 1.614-6.402 3.175-6.369 0 2.07-0.589 5.2-1.743 6.37 0z" fill-rule="evenodd"></path> <path clip-rule="evenodd" d="m226.34 58.989c-4.789-1.193-10.98-0.985-13.316-4.632 3.15 0.607 11.64 0.659 13.32 4.632z" fill-rule="evenodd"></path> <path clip-rule="evenodd" d="m71.169 54.937c-2.454 1.985-6.698 2.18-10.422 2.895 1.635 1.783 3.996-0.603 6.369 0-1.39 2.084-5.265 1.683-7.527 2.895-0.245-1.21 0.397-1.533 0.579-2.316-1.359 0.185-2.173 0.915-4.053 0.579 1.967-4.073 11.151-3.828 15.054-4.053z" fill-rule="evenodd"></path> <path clip-rule="evenodd" d="m112.86 56.673c-5.078-0.393-8.284 1.644-12.738 0.579 2.75-2.786 10.37-3.106 12.74-0.579z" fill-rule="evenodd"></path> <path clip-rule="evenodd" d="m174.23 54.937c3.504 0.164 7.113 0.22 7.527 3.474-3.23-1.622-7.17 1.023-7.53-3.474z" fill-rule="evenodd"></path> <path clip-rule="evenodd" d="m207.24 59.568c-3.521-0.917-7.188-1.69-10.422-2.895 1.53-3.107 9.94-0.571 10.42 2.895z" fill-rule="evenodd"></path> <path clip-rule="evenodd" d="m274.98 54.937c2.563 0.91 5.026 1.921 5.79 4.632-1.65 0.271-6.01-1.166-5.79-4.632z" fill-rule="evenodd"></path> <path clip-rule="evenodd" d="m36.429 56.094c-0.207 2.688-2.256 3.534-4.632 4.053-1.068-1.943 1.711-4.25 4.632-4.053z" fill-rule="evenodd"></path> <path clip-rule="evenodd" d="m251.82 56.673c4.628 0.391 7.488 2.549 11.002 4.053-1.67 1.178-9.3-1.42-11-4.053z" fill-rule="evenodd"></path> <path clip-rule="evenodd" d="m289.46 56.673c2.428-0.305 2.295 1.951 2.895 3.474-2.44 0.305-2.3-1.951-2.9-3.474z" fill-rule="evenodd"></path> <path clip-rule="evenodd" d="m91.435 58.411c-4.318 0.321-9.603 2.74-13.317 1.737 2.276-2.243 10.09-4.205 13.317-1.737z" fill-rule="evenodd"></path> <path clip-rule="evenodd" d="m163.81 57.252c0.917 0.048 2.209-0.278 2.316 0.579 0.63 2.033-3.55 1.551-2.32-0.579z" fill-rule="evenodd"></path> <path clip-rule="evenodd" d="m51.483 57.832c-1.338 1.942-4.313 2.249-6.948 2.895 0.585-2.697 3.559-3.004 6.948-2.895z" fill-rule="evenodd"></path> <path clip-rule="evenodd" d="m107.65 58.989c-0.458 2.033-7.741 2.828-8.685 0.579 2.445-0.641 5.505-0.667 8.685-0.579z" fill-rule="evenodd"></path> <path clip-rule="evenodd" d="m210.13 58.989c6.14 0.23 11.813 0.925 13.896 5.211-3.57-2.803-10.97-1.772-13.9-5.211z" fill-rule="evenodd"></path> <path clip-rule="evenodd" d="m244.29 62.463c-2.797 0.47-8.468-1.173-11.58-2.316 2.86-2.541 9.33 0.483 11.58 2.316z" fill-rule="evenodd"></path> <path clip-rule="evenodd" d="m272.67 58.989c2.83 0.451 4.567 1.995 5.79 4.053-1.9 0.694-5.73-1.045-5.79-4.053z" fill-rule="evenodd"></path> <path clip-rule="evenodd" d="m286.56 58.989c1.93 0.387 3.144 1.489 2.896 4.053-2.34 0.021-2.92-1.714-2.9-4.053z" fill-rule="evenodd"></path> <path clip-rule="evenodd" d="m114.02 59.568c-0.129 1.801-2.881 0.979-4.632 1.158-0.36-2.283 3.17-0.681 4.63-1.158z" fill-rule="evenodd"></path> <path clip-rule="evenodd" d="m296.41 59.568c1.757-0.019 1.443 2.032 1.737 3.474-1.8 0.055-1.73-1.748-1.74-3.474z" fill-rule="evenodd"></path> <path clip-rule="evenodd" d="m70.591 60.727c-1.867 2.38-8.073 0.419-10.422 2.316 1.155-2.715 7.642-3.153 10.422-2.316z" fill-rule="evenodd"></path> <path clip-rule="evenodd" d="m128.49 60.727c-0.418 1.973-5.658 1.303-6.948 0.579 0.42-1.973 5.66-1.303 6.95-0.579z" fill-rule="evenodd"></path> <path clip-rule="evenodd" d="m250.08 60.147c4.01 0.622 7.153 2.111 9.843 4.053-2.98 0.659-8.66-0.971-9.84-4.053z" fill-rule="evenodd"></path> <path clip-rule="evenodd" d="m48.588 62.463c0.011 0.945 3.272-0.928 4.053 0.579-1.093 1.416-3.222 1.796-5.211 2.316-1.698-1.093 2.439-2.567-1.158-2.316 0.081-2.428 2.653-2.365 5.211-2.316 0.555 2.099-2.499 0.589-2.895 1.737z" fill-rule="evenodd"></path> <path clip-rule="evenodd" d="m92.014 60.727c-0.944 2.641-4.192-0.216-5.79 1.158-0.082-2.398 4.029-0.603 5.79-1.158z" fill-rule="evenodd"></path> <path clip-rule="evenodd" d="m145.28 60.727c-0.094 0.673 0.128 1.03 0.579 1.158-0.243 1.289-3.072 0.454-3.474 0 0.08-1.266 1.46-1.244 2.89-1.158z" fill-rule="evenodd"></path> <path clip-rule="evenodd" d="m85.645 61.306c-0.28 2.615-4.367 1.423-6.369 2.316v-1.737c1.243-1.073 4.241-0.391 6.369-0.579z" fill-rule="evenodd"></path> <path clip-rule="evenodd" d="m195.08 61.306c4.009 0.044 7.62 0.486 9.843 2.316-0.66 1.084-9.82 1.062-9.84-2.316z" fill-rule="evenodd"></path> <path clip-rule="evenodd" d="m114.6 62.463c-1.867 3.07-9.855 0.766-14.475 1.158 2.6-2.999 10.12-1.475 14.48-1.158z" fill-rule="evenodd"></path> <path clip-rule="evenodd" d="m283.67 61.884h1.737c0.486 0.672 0.765 1.553 0.579 2.896-1.63-0.109-2.47-1.008-2.32-2.896z" fill-rule="evenodd"></path> <path clip-rule="evenodd" d="m231.56 62.463c4.178 0.456 9.183 0.083 11.002 2.896-4.46-0.17-9.53 0.266-11-2.896z" fill-rule="evenodd"></path> <path clip-rule="evenodd" d="m67.117 63.042c-0.976 1.726-3.935 1.469-6.369 1.737 0.872-1.829 3.628-1.775 6.369-1.737z" fill-rule="evenodd"></path> <path clip-rule="evenodd" d="m163.81 63.042c1.264-0.105 1.842 0.474 1.736 1.737-1.038-0.074-1.221 0.708-2.315 0.579-0.25-1.21 0.39-1.532 0.57-2.316z" fill-rule="evenodd"></path> <path clip-rule="evenodd" d="m269.19 63.042c2.83 0.451 4.567 1.995 5.79 4.053-1.9 0.694-5.72-1.045-5.79-4.053z" fill-rule="evenodd"></path> <path clip-rule="evenodd" d="m257.61 68.253c-4.171-0.269-6.215-2.664-9.844-3.474 2.43-2.488 8.58 0.973 9.84 3.474z" fill-rule="evenodd"></path> <path clip-rule="evenodd" d="m211.29 64.201c4.16 0.472 8.985 0.28 10.423 3.474-3.89-0.736-9.03-0.227-10.42-3.474z" fill-rule="evenodd"></path> <path clip-rule="evenodd" d="m114.02 64.78c-1.591 2.199-9.751 1.949-13.317 1.737 2.01-3.008 8.76-1.273 13.32-1.737z" fill-rule="evenodd"></path> <path clip-rule="evenodd" d="m280.77 64.78h1.736c0.486 0.672 0.764 1.552 0.58 2.895-2.14 0.404-2.56-0.917-2.32-2.895z" fill-rule="evenodd"></path> <path clip-rule="evenodd" d="m229.24 65.359c4.804-0.172 7.66 1.604 11.58 2.316-1.64 2.902-9.98 0.302-11.58-2.316z" fill-rule="evenodd"></path> <path clip-rule="evenodd" d="m178.87 66.517c0.638 2.413-4.112 2.413-3.475 0 1.07-1.134 2.11-0.179 3.47 0z" fill-rule="evenodd"></path> <path clip-rule="evenodd" d="m266.88 65.938c2.39 1.084 4.945 2.003 5.211 5.211-2.2-1.28-4.99-1.961-5.21-5.211z" fill-rule="evenodd"></path> <path clip-rule="evenodd" d="m145.86 68.253c-1.723 0.768-2.938 0.594-4.053-0.579 0.03-1.747 4.73-1.795 4.05 0.579z" fill-rule="evenodd"></path> <path clip-rule="evenodd" d="m203.76 70.57c-3.577-0.668-6.649-1.843-10.423-2.316 1.99-3.17 8.99-0.381 10.42 2.316z" fill-rule="evenodd"></path> <path clip-rule="evenodd" d="m129.07 68.833c-3.086-0.498-4.957 1.386-6.369-0.579 1.38-0.604 6.37-2.657 6.37 0.579z" fill-rule="evenodd"></path> <path clip-rule="evenodd" d="m246.61 67.096c3.6 0.646 7.5 0.993 8.686 4.053-3.74-0.513-6.92-1.582-8.69-4.053z" fill-rule="evenodd"></path> <path clip-rule="evenodd" d="m164.97 69.991c-1.848 0.496-1.791-0.911-2.896-1.158 0.48-2.195 3.34-0.911 2.9 1.158z" fill-rule="evenodd"></path> <path clip-rule="evenodd" d="m219.4 70.57c-2.557 2.613-8.678-0.874-11.581-1.737 3.07-2.931 8.46 0.944 11.58 1.737z" fill-rule="evenodd"></path> <path clip-rule="evenodd" d="m277.88 67.675h1.736v2.316c-1.53 0.175-1.91-0.802-1.74-2.316z" fill-rule="evenodd"></path> <path clip-rule="evenodd" d="m114.6 69.991c-5.095-0.936-9.231 1.818-12.738 0.579 0.68-3.255 11.38-3.501 12.74-0.579z" fill-rule="evenodd"></path> <path clip-rule="evenodd" d="m135.44 68.833c0.554 2.087-2.5 1.026-2.895 0.579-0.27-1.135 2.66-1.865 2.9-0.579z" fill-rule="evenodd"></path> <path clip-rule="evenodd" d="m263.98 68.833c3.117 0.163 4.609 1.952 5.211 4.632-2.58-0.696-4.91-1.646-5.21-4.632z" fill-rule="evenodd"></path> <path clip-rule="evenodd" d="m173.08 69.412h1.158c2.301 0.402 2.85 2.555 3.475 4.632-3.56 0.462-4.54-1.646-4.64-4.632z" fill-rule="evenodd"></path> <path clip-rule="evenodd" d="m238.5 71.728c-2.534 2.555-8.259-0.744-11.581-1.158 2.99-3.228 8.71 0.454 11.58 1.158z" fill-rule="evenodd"></path> <path clip-rule="evenodd" d="m127.91 71.728c-1.018-0.333-3.402 0.7-3.474-0.579-0.4-2.17 4.38-1.411 3.47 0.579z" fill-rule="evenodd"></path> <path clip-rule="evenodd" d="m244.29 69.991c4.117 0.323 6.615 2.263 9.265 4.053-2.31 0.172-8.64-0.616-9.27-4.053z" fill-rule="evenodd"></path> <path clip-rule="evenodd" d="m156.86 71.149c0.106 0.492-0.226 0.546-0.579 0.579v1.158c-1.084-0.846-3.837-0.023-4.632-1.158-0.27-2.21 4.53-1.097 5.21-0.579z" fill-rule="evenodd"></path> <path clip-rule="evenodd" d="m142.39 71.149c1.658-0.114 3.16-0.072 2.896 1.737-1.54-0.015-3.63 0.54-2.9-1.737z" fill-rule="evenodd"></path> <path clip-rule="evenodd" d="m39.324 71.728c5.185 1.764 10.225 3.671 16.792 4.053-3.658 3.327-14.727-0.088-16.792-4.053z" fill-rule="evenodd"></path> <path clip-rule="evenodd" d="m207.24 71.728c4.389 0.63 8.187 1.85 11.58 3.474-1.85 1.356-10.38-0.354-11.58-3.474z" fill-rule="evenodd"></path> <path clip-rule="evenodd" d="m75.802 72.307c-2.432 1.622-6.666 1.44-9.843 2.316 0.743-3.31 6.103-2.003 9.843-2.316z" fill-rule="evenodd"></path> <path clip-rule="evenodd" d="m201.45 75.781c-3.468-0.779-7.161-1.331-10.422-2.316 1.95-2.197 9.97-0.817 10.42 2.316z" fill-rule="evenodd"></path> <path clip-rule="evenodd" d="m236.77 76.939c-3.682-1.529-9.559-0.863-11.58-4.053 3.36-0.355 10.55 0.178 11.58 4.053z" fill-rule="evenodd"></path> <path clip-rule="evenodd" d="m116.33 74.044c-2.834 1.436-9.98 1.022-13.317 1.158-1.28-3.191 11.26-3.242 13.32-1.158z" fill-rule="evenodd"></path> <path clip-rule="evenodd" d="m137.18 73.465c-0.489 1.109-2.54 1.567-3.474 0.579 0.01-1.587 2.73-1.376 3.47-0.579z" fill-rule="evenodd"></path> <path clip-rule="evenodd" d="m129.65 75.202c-2.802-0.896-6.14 2.312-6.369-1.158 2.44 0.533 6.13-2.326 6.37 1.158z" fill-rule="evenodd"></path> <path clip-rule="evenodd" d="m243.14 73.465c3.4 0.268 6.062 1.273 8.107 2.895-1.65 2.43-7.78-0.202-8.11-2.895z" fill-rule="evenodd"></path> <path clip-rule="evenodd" d="m150.5 74.623c2.553 0.149 4.479 0.925 7.527 0.579-0.21 2.386-7.33 2.162-7.53-0.579z" fill-rule="evenodd"></path> <path clip-rule="evenodd" d="m217.08 78.676c-2.44 2.498-8.312-1.239-11.58-1.737 3.04-2.89 8.6 0.803 11.58 1.737z" fill-rule="evenodd"></path> <path clip-rule="evenodd" d="m130.81 78.676c-2.465-0.342-3.83 0.417-5.79 0.579-0.307-0.465-0.604-0.94-0.579-1.737 1.24-0.67 6.79-1.659 6.37 1.158z" fill-rule="evenodd"></path> <path clip-rule="evenodd" d="m142.39 76.939c1.428-0.076 2.79-0.088 3.474 0.579-0.46 1.305-3.88 1.91-3.47-0.579z" fill-rule="evenodd"></path> <path clip-rule="evenodd" d="m43.377 77.518c5.021 0.77 9.817 1.763 15.054 2.316-3.724 2.344-13.666 1.477-15.054-2.316z" fill-rule="evenodd"></path> <path clip-rule="evenodd" d="m171.34 77.518c2.697 0.197 5.163 0.627 6.947 1.737-1.62 1.01-7.28 1.123-6.95-1.737z" fill-rule="evenodd"></path> <path clip-rule="evenodd" d="m200.29 80.413c-3.041 0.905-8.322-0.934-11.581-1.737 2.63-2.482 9.79-0.389 11.58 1.737z" fill-rule="evenodd"></path> <path clip-rule="evenodd" d="m134.28 78.097c1.97-0.04 4.041-0.181 4.632 1.158 0.354 2.284-3.179 0.681-4.632 1.158v-2.316z" fill-rule="evenodd"></path> <path clip-rule="evenodd" d="m156.28 80.413c-0.685 2.639-5.74 0.598-6.948 0 0.89-2.347 5.5-0.684 6.95 0z" fill-rule="evenodd"></path> <path clip-rule="evenodd" d="m204.92 79.255c3.696 1.129 9.27 0.381 9.844 4.632-3.09-1.578-10.54-1.092-9.84-4.632z" fill-rule="evenodd"></path> <path clip-rule="evenodd" d="m84.487 83.887c-6.341 2.741-17.429 0.537-20.844-3.474 5.472 0.367 13.141 3.421 20.844 3.474z" fill-rule="evenodd"></path> <path clip-rule="evenodd" d="m175.97 83.308c-3.351-0.51-8.173 0.453-9.265-2.316 2.51-0.771 8.26-0.277 9.27 2.316z" fill-rule="evenodd"></path> <path clip-rule="evenodd" d="m189.29 80.413c1.914 1.366 7.451-0.89 6.948 2.895-1.96-1.326-7.22 0.651-6.95-2.895z" fill-rule="evenodd"></path> <path clip-rule="evenodd" d="m125.02 80.992c2.045 0.271 5.579-0.947 5.211 1.737-2.555-0.616-4.475 1.146-5.79 0 0.31-0.466 0.6-0.94 0.58-1.737z" fill-rule="evenodd"></path> <path clip-rule="evenodd" d="m62.484 85.045c-4.968 0.377-12.121 0.408-15.633-2.316 1.822-2.638 7.027-0.074 9.264 0.579 2.274 0.429 6.626-1.222 6.369 1.737z" fill-rule="evenodd"></path> <path clip-rule="evenodd" d="m138.34 81.571v2.316c-1.761 0.023-3.811 0.336-3.474-1.737 1.76 0.42 1.69-0.999 3.47-0.579z" fill-rule="evenodd"></path> <path clip-rule="evenodd" d="m163.23 83.887c-1.343 0.185-2.224-0.093-2.896-0.579 0.06-1.723 3.46-1.549 2.9 0.579z" fill-rule="evenodd"></path> <path clip-rule="evenodd" d="m152.23 83.308c1.571 0.358 4.595-0.735 5.211 0.579 0.03 2.212-5.73 1.436-5.21-0.579z" fill-rule="evenodd"></path> <path clip-rule="evenodd" d="m90.856 83.887c6.929 3.099 17.7 4.158 26.056 4.053-6.57 2.852-22.537 1.757-26.054-4.053z" fill-rule="evenodd"></path> <path clip-rule="evenodd" d="m192.76 85.624c-1.2-0.344-3.805 0.716-4.054-0.579-0.19-2.29 4.36-0.938 4.05 0.579z" fill-rule="evenodd"></path> <path clip-rule="evenodd" d="m163.81 84.466h2.895c0.596 1.945-1.801 0.901-2.895 1.158 0.01-0.386 0.01-0.772 0.01-1.158z" fill-rule="evenodd"></path> <path clip-rule="evenodd" d="m51.483 86.782c4.821 0.004 8.416 1.234 12.739 1.737-2.759 2.267-11.834 1.627-12.739-1.737z" fill-rule="evenodd"></path> <path clip-rule="evenodd" d="m85.066 88.519c-3.659 3.939-11.833-0.29-16.792-0.579 3.18-1.192 11.768 0.621 16.792 0.579z" fill-rule="evenodd"></path> <path clip-rule="evenodd" d="m119.81 88.519c6.217 2.157 13.477 3.616 20.844 1.737-4.01 4.148-18.58 3.081-20.84-1.737z" fill-rule="evenodd"></path> <path clip-rule="evenodd" d="m240.24 89.098c-1.289 3.046-11.934 4.782-13.317 0.579 4.99 0.728 9.69-1.881 13.32-0.579z" fill-rule="evenodd"></path> <path clip-rule="evenodd" d="m223.45 89.677c-2.471 3.279-15.404 3.518-18.529 0.579 6.74 0.697 13.46-1.523 18.53-0.579z" fill-rule="evenodd"></path> <path clip-rule="evenodd" d="m145.86 90.256c6.077 3.101 17.944 1.828 24.319 0-4.466 6.185-15.101 2.786-22.002 2.895-0.39-1.346-3.04-0.436-2.32-2.895z" fill-rule="evenodd"></path> <path clip-rule="evenodd" d="m254.14 90.835c-1.678 3.032-10.539 3.027-12.738 0.579 5.09 1.026 9.37-1.81 12.74-0.579z" fill-rule="evenodd"></path> <path clip-rule="evenodd" d="m67.696 93.73h-11.001c0.094-0.673-0.128-1.03-0.579-1.158 1.751-1.773 9.86-0.859 11.58 1.158z" fill-rule="evenodd"></path> <path clip-rule="evenodd" d="m71.169 91.414c5.609 0.969 12.876 1.998 17.95 1.737-3.685 3.121-15.983 2.362-17.95-1.737z" fill-rule="evenodd"></path> <path clip-rule="evenodd" d="m94.909 91.993c6.236 1.871 13.634 2.578 22.002 2.316-6.047 3.252-13.775 0.806-21.423 0-0.448-0.515-0.621-1.307-0.578-2.316z" fill-rule="evenodd"></path> <path clip-rule="evenodd" d="m236.77 93.73c-0.436 3.715-8.139 2.261-11 1.737-0.307-0.465-0.604-0.94-0.58-1.737 2.62-0.071 8.89-0.511 11.58 0z" fill-rule="evenodd"></path> <path clip-rule="evenodd" d="m122.7 94.309c4.681 1.575 12.128 2.546 17.949 1.158-3.85 4.194-15.03 2.765-17.95-1.158z" fill-rule="evenodd"></path> <path clip-rule="evenodd" d="m219.4 96.046c-4.849 0.586-14.197 1.746-17.371-1.158 5.83 1.235 14.96-2.305 17.37 1.158z" fill-rule="evenodd"></path> <path clip-rule="evenodd" d="m169.02 96.046c-3.798 4.553-20.501 4.175-23.739-0.579 6.16 1.845 15.77 2.023 23.74 0.579z" fill-rule="evenodd"></path> <path clip-rule="evenodd" d="m193.92 95.467c-3.854 3.687-16.062 2.738-20.846 0.579 5.67-0.123 15.86-0.197 20.85-0.579z" fill-rule="evenodd"></path> <path clip-rule="evenodd" d="m251.24 94.888c-0.988 3.305-10.93 4.094-12.738 1.158 4.05-0.584 8.25-1.018 12.74-1.158z" fill-rule="evenodd"></path> <path clip-rule="evenodd" d="m59.589 95.467c3.938 0.694 10.107-0.843 11.58 2.316-2.984 0.026-10.593 1.397-11.58-2.316z" fill-rule="evenodd"></path> <path clip-rule="evenodd" d="m75.802 97.205c4.437-0.716 11.736 0.946 16.212 0.579-3.074 3.966-12.968 0.949-16.212-0.579z" fill-rule="evenodd"></path> <path clip-rule="evenodd" d="m97.804 97.784c5.749 2.482 14.82 1.866 20.266 1.737-4.58 3.079-16.83 3.569-20.266-1.737z" fill-rule="evenodd"></path> <path clip-rule="evenodd" d="m219.98 97.784c4.912 1.087 9.748-0.439 13.896 0.579-2.18 2.847-12.38 3.437-13.9-0.579z" fill-rule="evenodd"></path> <path clip-rule="evenodd" d="m140.65 101.26c-4.092 3.68-14.304 1.096-17.949-1.158 3.37-1.056 12.37 2.17 17.95 1.16z" fill-rule="evenodd"></path> <path clip-rule="evenodd" d="m199.13 98.941c6.339 0.873 12.282 0.491 16.791 0.579-2.37 2.53-15.3 3.27-16.79-0.579z" fill-rule="evenodd"></path> <path clip-rule="evenodd" d="m245.45 99.521c0.266 4.24-7.619 3.033-10.422 2.316 2.85-1.77 6.09-1.23 10.42-2.319z" fill-rule="evenodd"></path> <path clip-rule="evenodd" d="m74.644 101.84c-4.141-0.191-6.804 1.145-9.843-0.579 0.855-1.817 9.822-2.251 9.843 0.58z" fill-rule="evenodd"></path> <path clip-rule="evenodd" d="m190.45 100.68c-2.476 4.196-13.615 2.189-17.371 0.579 4.15-1.15 11.88-0.12 17.37-0.58z" fill-rule="evenodd"></path> <path clip-rule="evenodd" d="m80.434 100.68c4.729 0.784 8.085 2.245 13.317 1.158-1.783 3.16-12.754 2.47-13.317-1.16z" fill-rule="evenodd"></path> <path clip-rule="evenodd" d="m167.29 101.26c-3.275 4.946-17.494 6.468-21.424 1.158 6.65 2.13 15.55 0.85 21.42-1.16z" fill-rule="evenodd"></path> <path clip-rule="evenodd" d="m229.82 103c-1.64 3.796-9.666 0.927-12.16 0 2.04-2.47 8.94-0.19 12.16 0z" fill-rule="evenodd"></path> <path clip-rule="evenodd" d="m120.39 104.73c-3.459 3.649-14.734 2.763-19.107 0.579 3.85-1.03 12.41 0.44 19.11-0.58z" fill-rule="evenodd"></path> <path clip-rule="evenodd" d="m193.92 104.15c6.026 0.514 10.383 1.383 15.633 0-1.27 3.49-14.41 3.71-15.63 0z" fill-rule="evenodd"></path> <path clip-rule="evenodd" d="m171.92 104.73c3.801 2.616 11.835 1.239 16.213 1.737-2.92 3.52-14.34 2.59-16.21-1.74z" fill-rule="evenodd"></path> <path clip-rule="evenodd" d="m239.08 106.47c-2.354 0.481-6.639 1.335-7.527-1.158 3.13 1.06 7.22-2.37 7.53 1.16z" fill-rule="evenodd"></path> <path clip-rule="evenodd" d="m213.03 105.31c4.706 0.63 7.836-0.515 11.58 0.579-2.15 3.71-9.45 1.92-11.58-0.58z" fill-rule="evenodd"></path> <path clip-rule="evenodd" d="m83.908 105.89c3.686 0.753 8.28 0.599 12.739 0.579-1.229 3.09-12.076 2.5-12.739-0.58z" fill-rule="evenodd"></path> <path clip-rule="evenodd" d="m124.44 105.89c6.199 1.082 11.295 1.042 17.371 0-1.98 3.66-15.34 3.45-17.37 0z" fill-rule="evenodd"></path> <path clip-rule="evenodd" d="m144.7 107.63c6.557 2.739 14.002 0.095 20.266 0.579-4.23 3.72-16.72 4.01-20.27-0.58z" fill-rule="evenodd"></path> <path clip-rule="evenodd" d="m204.92 109.36c-1.36 3.204-9.131 1.638-11.58 0.579 3.03-0.76 9.12-1.13 11.58-0.58z" fill-rule="evenodd"></path> <path clip-rule="evenodd" d="m221.13 109.36c-0.754 4.601-11.326 3.178-12.738 0 4.49 0.62 9.84-0.95 12.74 0z" fill-rule="evenodd"></path> <path clip-rule="evenodd" d="m104.75 109.94c6.543 0.325 11.436 1.865 17.371 0-1.98 3.66-15.33 3.46-17.37 0z" fill-rule="evenodd"></path> <path clip-rule="evenodd" d="m169.6 109.94c4.666 1.138 10.439 0.826 14.476 1.158-2.4 2.97-13.22 2.44-14.48-1.16z" fill-rule="evenodd"></path> <path clip-rule="evenodd" d="m87.961 111.68c1.902-0.533 7.883-0.175 10.422 0.579-1.536 2.32-9.415 1.44-10.422-0.58z" fill-rule="evenodd"></path> <path clip-rule="evenodd" d="m141.81 112.26c-1.76 3.199-11.312 3.001-14.476 1.158 2.38-0.88 11.38-1.23 14.48-1.16z" fill-rule="evenodd"></path> <path clip-rule="evenodd" d="m200.87 112.84c-0.301 3.953-9.297 2.271-12.159 1.737 2.01-2.63 9.03-0.24 12.16-1.74z" fill-rule="evenodd"></path> <path clip-rule="evenodd" d="m163.23 114c-2.585 2.829-13.384 4.693-16.792 1.158 4.94 0.49 12.7-1.15 16.79-1.16z" fill-rule="evenodd"></path> <path clip-rule="evenodd" d="m215.92 116.31c-2.283 0.555-8.01 0.039-11.002-0.579-0.306-0.466-0.604-0.94-0.578-1.737 2.4 1.16 11.84-3.49 11.58 2.32z" fill-rule="evenodd"></path> <path clip-rule="evenodd" d="m106.49 114c3.962 1.336 9.217 1.476 12.738 1.737-1.49 2.76-11.97 1.74-12.74-1.74z" fill-rule="evenodd"></path> <path clip-rule="evenodd" d="m124.44 115.15c0.637 1.843-5.269 1.843-4.632 0 0.6-0.61 4.13-1.19 4.63 0z" fill-rule="evenodd"></path> <path clip-rule="evenodd" d="m93.172 115.73c3.133 0.727 9.417-1.697 9.843 1.737-4.159-0.31-8.226 1.75-9.848-1.74z" fill-rule="evenodd"></path> <path clip-rule="evenodd" d="m167.86 115.73c3.656 1.714 9.358 0.495 12.738 1.158-1.98 1.85-12.34 2.4-12.74-1.16z" fill-rule="evenodd"></path> <path clip-rule="evenodd" d="m195.66 119.21c-2.957 0.779-9.531 1.354-11.001-1.158 4.53 1.69 9.17-2.15 11 1.16z" fill-rule="evenodd"></path> <path clip-rule="evenodd" d="m209.55 119.79c-2.461-1.013-6.518-0.431-9.844-0.579 0.67-2.05 10.25-3.5 9.84 0.58z" fill-rule="evenodd"></path> <path clip-rule="evenodd" d="m129.07 118.05c4.752 1.311 9.144 1.311 13.896 0-0.76 3.58-13.14 3.58-13.9 0z" fill-rule="evenodd"></path> <path clip-rule="evenodd" d="m161.5 119.21c-1.641 4.293-10.072 2.587-13.896 1.158 2.15-1.05 9.75 0.8 13.9-1.16z" fill-rule="evenodd"></path> <path clip-rule="evenodd" d="m96.646 120.36h9.264c-0.59 3.11-7.943 1.56-9.264 0z" fill-rule="evenodd"></path> <path clip-rule="evenodd" d="m109.96 120.36c4.984 0.616 10.715 0.885 15.634 0-1.26 3.49-14.41 3.71-15.63 0z" fill-rule="evenodd"></path> <path clip-rule="evenodd" d="m177.71 120.94c-2.07 4.01-8.605 2.894-12.16 1.737 2.05-1.09 10.35-0.79 12.16-1.74z" fill-rule="evenodd"></path> <path clip-rule="evenodd" d="m205.5 120.94c-0.039 4.216-7.656 3.913-11.002 2.896 2.02-2.61 7.65-1.61 11-2.9z" fill-rule="evenodd"></path> <path clip-rule="evenodd" d="m188.71 123.84c-0.685 2.323-6.923 0.958-7.527-0.579 1.2-0.47 5.79-0.23 7.53 0.58z" fill-rule="evenodd"></path> <path clip-rule="evenodd" d="m143.55 123.26c-0.797 4.054-10.61 3.443-12.738 1.158 4.73 0.1 9.47 0.21 12.74-1.16z" fill-rule="evenodd"></path> <path clip-rule="evenodd" d="m113.44 124.42c2.937 1.928 10.618 0.746 13.317 1.158-2.1 3.15-12.61 3.49-13.32-1.16z" fill-rule="evenodd"></path> <path clip-rule="evenodd" d="m159.18 124.42c-0.215 5.117-9.14 2.401-12.159 1.737 2.24-1.81 8.77 0.24 12.16-1.74z" fill-rule="evenodd"></path> <path clip-rule="evenodd" d="m102.44 125.58h7.527c0.11 2.98-7.43 2.17-7.53 0z" fill-rule="evenodd"></path> <path clip-rule="evenodd" d="m173.66 126.16c0.404 3.833-7.146 2.303-9.265 1.737 1.65-2.02 6.53-0.8 9.26-1.74z" fill-rule="evenodd"></path> <path clip-rule="evenodd" d="m144.7 127.31c-0.135 5.053-9.509 3.751-12.738 2.316 2.96-2.31 9.44 0.53 12.74-2.32z" fill-rule="evenodd"></path> <path clip-rule="evenodd" d="m177.71 127.31c2.76 0.826 4.122-0.552 6.369 0.579 0.27 2.48-7.46 2.97-6.37-0.58z" fill-rule="evenodd"></path> <path clip-rule="evenodd" d="m156.86 128.47v2.895c-2.729 0.347-6.839 2.285-8.106-0.579 2.48 0.32 5.78-0.86 8.11-2.31z" fill-rule="evenodd"></path> <path clip-rule="evenodd" d="m130.23 130.21c-1.667 2.597-11.5 3.917-12.738 0 4.96 1.76 9.32-1.43 12.74 0z" fill-rule="evenodd"></path> <path clip-rule="evenodd" d="m170.18 131.94c-0.093 3.1-7.691 1.991-8.106 0 1.64-0.91 6.47-0.91 8.11 0z" fill-rule="evenodd"></path> <path clip-rule="evenodd" d="m181.18 131.37c0.694 3.414-5.894 2.575-7.526 1.737 0.66-2.44 5.73-0.46 7.53-1.74z" fill-rule="evenodd"></path> <path clip-rule="evenodd" d="m131.97 134.26c-2.076 3.378-9.829 2.174-12.738 0 3.95-0.79 9.16-0.31 12.74 0z" fill-rule="evenodd"></path> <path clip-rule="evenodd" d="m145.28 134.26c-2.515 2.051-8.663 2.106-11.581 0.579 3.03-0.76 9.12-1.13 11.58-0.58z" fill-rule="evenodd"></path> <path clip-rule="evenodd" d="m155.13 134.84c0.378 3.571-6.14 3.541-6.948 1.158 3.22 0.51 4.29-1.11 6.95-1.16z" fill-rule="evenodd"></path> <path clip-rule="evenodd" d="m174.81 134.84c0.712 0.253 1.189 0.741 1.158 1.737-0.732 0.664-4.565 1.163-5.211 0-0.71-2.64 3.91 0.05 4.05-1.74z" fill-rule="evenodd"></path> <path clip-rule="evenodd" d="m164.39 137.16c-2.329-0.398-3.306 0.555-5.212 0.579-0.306-0.465-0.604-0.94-0.578-1.737 1.4-0.98 5.46-0.74 5.79 1.16z" fill-rule="evenodd"></path> <path clip-rule="evenodd" d="m146.44 137.16c0.685 3-6.844 3.315-7.527 1.158 3.43 0.53 4.8-1 7.53-1.16z" fill-rule="evenodd"></path> <path clip-rule="evenodd" d="m135.44 139.47c-2.365 2.457-9.731 3.337-11.581 0 4.83 0.89 8.05-0.65 11.58 0z" fill-rule="evenodd"></path> <path clip-rule="evenodd" d="m162.08 138.89v2.316c-3.151-0.918-4.515 2.011-6.369 0.579-0.34-3.43 4.27-1.9 6.37-2.9z" fill-rule="evenodd"></path> <path clip-rule="evenodd" d="m152.81 139.47c1.02 0.139 1.32 0.996 1.158 2.316-2.326 0.599-4.778 0.888-6.369-0.579 0.34-1.98 4.3-0.33 5.21-1.74z" fill-rule="evenodd"></path> <path clip-rule="evenodd" d="m147.02 141.79c-0.081 2.621-3.927 1.477-6.369 1.737-0.06-2.41 5.23-2.47 6.37-1.74z" fill-rule="evenodd"></path> <path clip-rule="evenodd" d="m154.55 148.74c0.637 1.843-5.27 1.843-4.633 0 1.08-0.13 3.83-1.5 4.63 0z" fill-rule="evenodd"></path> <path clip-rule="evenodd" d="m148.76 148.74c-2.902 3.631-8.534 2.193-15.054 2.895 3.91-2.07 9.33-2.63 15.05-2.9z" fill-rule="evenodd"></path> <path clip-rule="evenodd" d="m147.02 153.95c0.637 1.843-5.269 1.843-4.632 0 0.6-0.61 4.13-1.2 4.63 0z" fill-rule="evenodd"></path> <path clip-rule="evenodd" d="m141.81 307.39h4.632c0.82 3.67-4.84 2.33-4.63 0z" fill-rule="evenodd"></path> <path clip-rule="evenodd" d="m141.81 310.86c1.812 0.118 4.25-0.391 5.211 0.579 0.25 2.38-6.3 2.83-5.21-0.58z" fill-rule="evenodd"></path> <path clip-rule="evenodd" d="m145.86 315.49c0.372 2.108-2.758 0.716-2.895 2.316 0.171 2.146 4.372 0.26 4.053 2.895-1.523 0.6-3.553 0.693-5.79 0.579-0.015-2.445 1.12-3.739 0-5.79 0.85-0.85 3.8-0.85 4.64 0z" fill-rule="evenodd"></path> <path clip-rule="evenodd" d="m147.02 324.18c-0.085 1.266-1.459 1.243-2.895 1.158 0.334 1.402 2.187 1.287 3.474 1.736v2.316c-2.295-0.214-5.549 0.53-6.948-0.579 2.733-2.414 0.072-3.668 0.579-5.79 1.94-0.53 4.46-0.94 5.8 1.15z" fill-rule="evenodd"></path> <path clip-rule="evenodd" d="m147.6 336.92c-2.607 0.619-6.081 2.297-7.527-0.579 2.39-1.808 0.793-1.528 0.579-4.632 4.061-1.401 5.795-1.169 6.369 1.157 0.36 1.45-0.83 1.51 0.58 4.05z" fill-rule="evenodd"></path> <path clip-rule="evenodd" d="m148.18 340.97c-2.58 0.145-5.527 2.283-8.106 0.579 0.15-3.82 7.08-3.49 8.11-0.58z" fill-rule="evenodd"></path> <path clip-rule="evenodd" d="m141.23 343.29c1.495 1.207 5.609-0.206 6.948 1.158-0.046 2.678-5.887 1.922-7.527 1.158 0.45-0.52 0.62-1.32 0.58-2.32z" fill-rule="evenodd"></path> <path clip-rule="evenodd" d="m148.76 347.92c0.074 1.039-0.708 1.222-0.579 2.316-1.638 0.099-3.972-0.498-4.053 1.158 1.242 0.48 3.188 0.214 5.79 0.579-0.609 2.865-5.071 1.877-8.106 2.315 0.986-3.908 0.445-2.409-0.579-5.79 1.56-1.15 5.06-0.36 7.53-0.59z" fill-rule="evenodd"></path> <path clip-rule="evenodd" d="m151.07 357.76c-3.636-0.74-6.796 1.429-9.264 0 0.07-2.66 9.63-4.12 9.26 0z" fill-rule="evenodd"></path> <path clip-rule="evenodd" d="m151.65 360.08c-0.298 2.593-7.38 3.279-8.686 1.158 0.74-2.34 6.55-2.1 8.69-1.16z" fill-rule="evenodd"></path> <path clip-rule="evenodd" d="m151.65 364.13c0.694 3.414-5.894 2.575-7.527 1.736 0.07-2.65 6.65-1.83 7.53-1.74z" fill-rule="evenodd"></path> <path clip-rule="evenodd" d="m152.81 368.18c-0.174 3.3-4.874 2.074-8.105 2.316-0.32-3.8 5.11-1.84 8.11-2.32z" fill-rule="evenodd"></path> <path clip-rule="evenodd" d="m145.28 372.24h7.526c-0.468 2.813-4.753 1.809-7.526 2.316v-2.32z" fill-rule="evenodd"></path> <path clip-rule="evenodd" d="m153.97 378.6c-3.258-0.703-5.856 1.532-8.106 0 0.43-2.08 8.51-4.19 8.11 0z" fill-rule="evenodd"></path> <path clip-rule="evenodd" d="m153.97 380.92c0.664 3.238-6.43 3.354-6.948 1.737 0.85-2.05 4.42-1.37 6.95-1.74z" fill-rule="evenodd"></path> <path clip-rule="evenodd" d="m155.13 384.97c0.441 3.161-5.729 2.739-7.527 1.737 0.75-2.34 4.63-1.54 7.53-1.74z" fill-rule="evenodd"></path> <path clip-rule="evenodd" d="m155.13 389.61c0.282 2.984-4.419 0.984-5.211 2.895 0.803 1.32 4.03 0.216 5.79 0.579-0.271 2.816-3.976 2.2-6.948 2.316 0.179-2.109-0.092-3.769-0.579-5.211 1.62-0.53 5.18-2.12 6.95-0.58z" fill-rule="evenodd"></path> <path clip-rule="evenodd" d="m156.28 397.13c-0.076 1.853-1.312 2.547-3.475 2.315 0.072 1.279 2.457 0.246 3.475 0.579-1.479 3.313-0.096 2.478 0.579 5.79-2.073 0.16-4.501 2.025-6.369 0.579-0.495-1.846 0.505-2.197 1.158-2.895-3.333-0.252 0.288-4.264-2.896-4.054 0.52-3.92 3.9-2.41 7.53-2.32z" fill-rule="evenodd"></path> <path clip-rule="evenodd" d="m156.86 409.87c-2.865-0.338-3.705 1.696-5.79 0.579v-2.316c2.77 0.66 6.08-2.35 5.79 1.74z" fill-rule="evenodd"></path> <path clip-rule="evenodd" d="m156.86 431.3c2.884 0.535-0.429 3.823 1.158 5.212-1.92-0.21-0.91-3.34-1.16-5.21z" fill-rule="evenodd"></path> <path clip-rule="evenodd" d="m51.483 60.727c-2.558-0.049-5.13-0.112-5.211 2.316 3.597-0.25-0.54 1.223 1.158 2.316 1.989-0.52 4.118-0.9 5.211-2.316-0.781-1.507-4.042 0.366-4.053-0.579 0.396-1.149 3.45 0.361 2.895-1.737z" fill-rule="evenodd"></path> <path clip-rule="evenodd" d="m14.426 45.093c-3.221 0.06-3.459 3.104-3.474 6.369h1.737c-0.028-2.73 1.869-3.535 1.737-6.369z" fill-rule="evenodd"></path> <path clip-rule="evenodd" d="m112.86 8.036c5.373 0.486 14.41-0.213 19.687-1.737-5.19-1.453-15.25-1.892-19.69 1.737z" fill-rule="evenodd"></path> <path clip-rule="evenodd" d="m87.382 10.352c5.917-0.401 14.426-0.031 19.686-1.737-5.23-1.17-15.548-1.517-19.688 1.737z" fill-rule="evenodd"></path> <path clip-rule="evenodd" d="m138.34 8.615c0.765 0.007 0.529 1.015 1.158 1.158 0.098-0.675 0.916-0.629 1.737-0.579 0.55-2.128-2.85-2.301-2.9-0.579z" fill-rule="evenodd"></path> <path clip-rule="evenodd" d="m186.97 8.036c0.65 1.667 2.83 1.802 4.633 2.316 0.55-2.781-3.22-3.299-4.63-2.316z" fill-rule="evenodd"></path> <path clip-rule="evenodd" d="m170.18 8.036h-2.895c-0.64 2.792 3.76 3.133 2.9 0z" fill-rule="evenodd"></path> <path clip-rule="evenodd" d="m206.66 11.51c4.998-0.367 7.297 1.967 11 2.895-0.629-4.967-6.688-4.506-11-5.79v2.895z" fill-rule="evenodd"></path> <path clip-rule="evenodd" d="m139.49 13.826c1.095 0.13 1.278-0.652 2.316-0.579 0.083-1.82-1.485-1.989-2.895-2.316-0.19 1.343 0.09 2.223 0.57 2.895z" fill-rule="evenodd"></path> <path clip-rule="evenodd" d="m61.905 15.563c5.279-0.081 12.542-2.409 18.529-2.316-3.89-3.217-15.337-0.759-18.529 2.316z" fill-rule="evenodd"></path> <path clip-rule="evenodd" d="m115.18 14.405c2.623-1.237 8.814 1.094 9.264-2.316-0.75 0.015-9.18-1.707-9.26 2.316z" fill-rule="evenodd"></path> <path clip-rule="evenodd" d="m224.03 13.248c2.274 1.824 13.535 5.707 16.792 4.632-4.14-2.278-12.46-6.389-16.79-4.632z" fill-rule="evenodd"></path> <path clip-rule="evenodd" d="m101.28 13.248c-4.47 0.095-11.49 0.506-13.319 4.052 3.909-1.5 14.792-1.031 20.266-2.895-1.9-0.661-4.43-1.212-6.95-1.157z" fill-rule="evenodd"></path> <path clip-rule="evenodd" d="m178.87 14.984c0.926 0.88 6.39 2.513 6.947 0-1.63-0.517-6.08-2.336-6.95 0z" fill-rule="evenodd"></path> <path clip-rule="evenodd" d="m195.08 14.984c-0.13 1.095 0.653 1.277 0.579 2.316 2.006 0.077 3.361-0.499 2.895-2.895-1.44-0.076-2.8-0.087-3.48 0.579z" fill-rule="evenodd"></path> <path clip-rule="evenodd" d="m39.324 19.617c5.999-1.201 10.467-1.916 14.476-4.053-2.46-0.11-12.942-0.379-14.476 4.053z" fill-rule="evenodd"></path> <path clip-rule="evenodd" d="m205.5 15.563v1.737c3.559 0.301 6.863 0.857 9.843 1.737-0.23-3.921-7.37-3.678-9.84-3.474z" fill-rule="evenodd"></path> <path clip-rule="evenodd" d="m65.379 20.774c4.072 0.214 10.071-1.869 16.792-1.158-1.511-4.607-15.6-1.716-16.792 1.158z" fill-rule="evenodd"></path> <path clip-rule="evenodd" d="m239.08 23.09c-1.739-4.629-8.752-3.985-13.896-5.211 1.63 4.748 9.37 3.38 13.9 5.211z" fill-rule="evenodd"></path> <path clip-rule="evenodd" d="m42.219 24.249c4.498-0.906 7.343-3.466 13.317-2.895-0.129-1.095 0.653-1.277 0.579-2.316-3.45 0.678-12.922 0.145-13.896 5.211z" fill-rule="evenodd"></path> <path clip-rule="evenodd" d="m115.75 20.774c1.783 0.231 8.353 0.779 8.685-2.316-3.42 0.25-8.26-0.922-8.69 2.316z" fill-rule="evenodd"></path> <path clip-rule="evenodd" d="m165.55 19.617c-0.129 1.095 0.653 1.277 0.58 2.316 2.006 0.076 3.361-0.499 2.895-2.895-1.42-0.077-2.79-0.088-3.47 0.579z" fill-rule="evenodd"></path> <path clip-rule="evenodd" d="m247.77 19.617v1.737c7.275-0.328 10.232 3.664 16.791 4.053-3.07-4.11-11.34-5.974-16.79-5.79z" fill-rule="evenodd"></path> <path clip-rule="evenodd" d="m20.216 24.249c3.494-0.258 9.867-2.422 13.317-4.632-6.041-0.059-11.177 0.788-13.317 4.632z" fill-rule="evenodd"></path> <path clip-rule="evenodd" d="m89.119 23.09c4.456 0.048 13.862-1.854 19.107-1.158-4.3-3.674-18.344-1.684-19.111 1.158z" fill-rule="evenodd"></path> <path clip-rule="evenodd" d="m188.71 22.512c-2.182-2.064-6.079-2.413-10.423-2.316 1.06 2.519 8.65 4.321 10.42 2.316z" fill-rule="evenodd"></path> <path clip-rule="evenodd" d="m204.92 22.512c3.762-0.467 6.908 2.725 9.844 1.158-1.883-2.556-5.66-3.217-9.844-3.474v2.316z" fill-rule="evenodd"></path> <path clip-rule="evenodd" d="m23.111 28.302c4.576-1.986 11.16-1.965 14.476-5.211-5.289-0.476-12.24 0.868-14.476 5.211z" fill-rule="evenodd"></path> <path clip-rule="evenodd" d="m140.65 25.407c1.095 0.13 1.277-0.653 2.316-0.579 0.083-1.82-1.485-1.989-2.895-2.316-0.19 1.342 0.09 2.222 0.57 2.895z" fill-rule="evenodd"></path> <path clip-rule="evenodd" d="m221.13 23.669v1.158c6.24-1.158 11.957 4.168 16.213 1.158-3.35-2.1-11.8-5.103-16.21-2.316z" fill-rule="evenodd"></path> <path clip-rule="evenodd" d="m247.19 24.828c6.141 0.036 9.309 3.044 14.476 4.053-2.092-4.856-9.02-4.877-14.476-6.369v2.316z" fill-rule="evenodd"></path> <path clip-rule="evenodd" d="m66.538 26.564c4.246 0.88 10.632-2.6 16.212-0.579-2.471-4.623-14.707-2.588-16.212 0.579z" fill-rule="evenodd"></path> <path clip-rule="evenodd" d="m43.956 28.302c4.037 0.285 10.665-1.625 13.896-4.053-4.185-0.434-12.065 0.224-13.896 4.053z" fill-rule="evenodd"></path> <path clip-rule="evenodd" d="m115.18 27.144c2.083 1.365 4.836-0.714 8.106 0 0.6-3.999-7.84-2.23-8.11 0z" fill-rule="evenodd"></path> <path clip-rule="evenodd" d="m204.92 25.407c1.037 3.402 6.085 2.794 9.844 3.474-1.15-3.006-6.63-4.412-9.84-3.474z" fill-rule="evenodd"></path> <path clip-rule="evenodd" d="m244.29 28.302c5.955 0.801 10.869 2.642 15.634 4.632-2.144-5.384-10.054-5.001-15.634-6.948v2.316z" fill-rule="evenodd"></path> <path clip-rule="evenodd" d="m268.61 27.144c3.845 2.138 9.359 2.607 13.317 4.632-1.54-3.732-9.75-6.77-13.32-4.632z" fill-rule="evenodd"></path> <path clip-rule="evenodd" d="m91.435 30.039c4.432 0.68 10.424-1.865 16.792-1.158-3.41-4.455-13.999-2.289-16.795 1.158z" fill-rule="evenodd"></path> <path clip-rule="evenodd" d="m220.56 27.144v1.737c4.944-0.307 11.7 3.55 16.792 2.895-3.87-2.932-11.13-5.411-16.79-4.632z" fill-rule="evenodd"></path> <path clip-rule="evenodd" d="m177.71 27.723c-0.13 1.095 0.652 1.277 0.578 2.316 3.795-0.706 5.176 1.002 8.107 1.158-1.09-3.519-5.13-3.869-8.69-3.474z" fill-rule="evenodd"></path> <path clip-rule="evenodd" d="m25.428 31.197c0.451 0.128 0.673 0.485 0.579 1.158 3.649-1.497 5.798-2.183 9.265-2.896-2.056-3.647-7.719 0.149-9.844 1.738z" fill-rule="evenodd"></path> <path clip-rule="evenodd" d="m9.794 36.408c2.696-2.129 5.196-4.454 7.527-6.948-0.13-0.449-0.016-1.142-0.579-1.158-3.15 1.868-7.105 2.931-6.948 8.106z" fill-rule="evenodd"></path> <path clip-rule="evenodd" d="m45.114 33.513c4.366 0.5 10.729-2.004 14.476-4.053-4.871-1.003-11.476 1.258-14.476 4.053z" fill-rule="evenodd"></path> <path clip-rule="evenodd" d="m67.117 33.513c3.579-1.28 13.764-1.402 17.949-2.316-4.534-2.416-16.046-2.868-17.949 2.316z" fill-rule="evenodd"></path> <path clip-rule="evenodd" d="m166.13 32.355h2.895c0.15-1.888-0.688-2.787-2.316-2.896-0.48 0.673-0.76 1.553-0.57 2.896z" fill-rule="evenodd"></path> <path clip-rule="evenodd" d="m281.35 35.829c-1.957-4.605-8.151-4.973-13.317-6.369 2.38 4.189 8.8 4.326 13.32 6.369z" fill-rule="evenodd"></path> <path clip-rule="evenodd" d="m213.03 35.25c-1.291-3.728-6.045-3.993-10.423-4.632 1.16 3.55 7.84 4.389 10.42 4.632z" fill-rule="evenodd"></path> <path clip-rule="evenodd" d="m257.61 35.829c-3.256-3.114-8.178-4.561-13.896-5.211 3.17 2.494 10.95 6.354 13.9 5.211z" fill-rule="evenodd"></path> <path clip-rule="evenodd" d="m219.4 33.513c6.949-0.195 10.443 3.067 16.212 4.053-1.92-5.8-10.248-5.192-16.792-6.369-0.04 1.009 0.13 1.801 0.58 2.316z" fill-rule="evenodd"></path> <path clip-rule="evenodd" d="m117.49 34.092c1.917 1.041 6.899 0.938 6.369-2.316-2.15 0.742-6.24-0.45-6.37 2.316z" fill-rule="evenodd"></path> <path clip-rule="evenodd" d="m12.689 39.303c3.744-0.127 6.857-3.938 5.791-6.948-2.512 1.734-5.447 3.046-5.791 6.948z" fill-rule="evenodd"></path> <path clip-rule="evenodd" d="m29.48 36.987c3.771-0.861 7.857-1.407 9.264-4.632-3.59 1.041-8.701 0.562-9.264 4.632z" fill-rule="evenodd"></path> <path clip-rule="evenodd" d="m268.61 33.513c-0.451 0.128-0.673 0.485-0.579 1.158 2.933 2.664 8.061 3.134 12.159 4.632-1.65-3.82-8.07-5.731-11.58-5.79z" fill-rule="evenodd"></path> <path clip-rule="evenodd" d="m93.172 36.408c5.234-0.275 12.573 0.286 17.37-1.158-3.74-1.671-15.745-3.247-17.368 1.158z" fill-rule="evenodd"></path> <path clip-rule="evenodd" d="m47.43 38.724c4.731 1.442 8.185-3.389 13.896-2.896-2.714-3.602-11.665 0.354-13.896 2.896z" fill-rule="evenodd"></path> <path clip-rule="evenodd" d="m184.08 38.145c2.35 0.226 3.348-0.898 2.895-3.474-2.71-0.581-3.24 1.01-2.9 3.474z" fill-rule="evenodd"></path> <path clip-rule="evenodd" d="m241.98 35.829c4.254 1.923 8.288 4.064 13.896 4.632-2.32-3.145-10.29-6.622-13.9-4.632z" fill-rule="evenodd"></path> <path clip-rule="evenodd" d="m69.433 39.303c6.555-2.29 12.338 0.034 17.371-2.316-5.588-1.327-12.376-2.404-17.371 2.316z" fill-rule="evenodd"></path> <path clip-rule="evenodd" d="m217.66 36.408v1.737c5.639 0.592 11.896 3.474 16.213 3.474-2.7-4.102-11.25-5.288-16.21-5.211z" fill-rule="evenodd"></path> <path clip-rule="evenodd" d="m276.14 41.619c-1.314-4.089-6.869-3.939-10.422-5.791 0.88 4.526 6.7 4.103 10.42 5.791z" fill-rule="evenodd"></path> <path clip-rule="evenodd" d="m15.584 42.777c3.158-1.281 5.802-3.076 6.948-6.369-3.658 0.78-6.677 2.201-6.948 6.369z" fill-rule="evenodd"></path> <path clip-rule="evenodd" d="m31.797 41.04c3.404 0.586 7.653-2.684 11.001-4.053-3.617-0.905-10.026 0.389-11.001 4.053z" fill-rule="evenodd"></path> <path clip-rule="evenodd" d="m142.97 39.303c0.486-0.672 0.764-1.553 0.579-2.896h-2.316c-0.11 1.659-0.07 3.161 1.74 2.896z" fill-rule="evenodd"></path> <path clip-rule="evenodd" d="m167.86 37.566c-0.451-0.128-0.673-0.485-0.578-1.158h-2.316c-0.66 2.292 2.7 3.077 2.9 1.158z" fill-rule="evenodd"></path> <path clip-rule="evenodd" d="m201.45 36.987v1.737c4.095 0.538 6.919 2.346 11.001 2.895-1.56-3.351-7.16-5.471-11-4.632z" fill-rule="evenodd"></path> <path clip-rule="evenodd" d="m294.09 43.935c-0.854-3.97-4.848-4.803-8.106-6.369 0.34 4.485 5.75 3.904 8.11 6.369z" fill-rule="evenodd"></path> <path clip-rule="evenodd" d="m252.98 45.093c-1.199-5.555-7.93-5.581-13.317-6.948 1.73 5.032 9.45 4.065 13.32 6.948z" fill-rule="evenodd"></path> <path clip-rule="evenodd" d="m117.49 41.04c2.955-0.075 6.623 1.458 7.527-1.737-1.27-0.156-6.67-1.354-7.53 1.737z" fill-rule="evenodd"></path> <path clip-rule="evenodd" d="m262.24 39.303c1.872 3.409 8.437 4.977 11.58 5.211-2.11-3.172-7.93-5.484-11.58-5.211z" fill-rule="evenodd"></path> <path clip-rule="evenodd" d="m19.637 46.83c3.038-1.595 5.354-3.911 6.948-6.948-4.56-0.216-7.625 3.82-6.948 6.948z" fill-rule="evenodd"></path> <path clip-rule="evenodd" d="m50.904 43.356c3.48 0.291 9.934-1.185 12.738-3.474-5.406-0.002-10.18 0.628-12.738 3.474z" fill-rule="evenodd"></path> <path clip-rule="evenodd" d="m281.93 41.04c1.582 3.242 5.251 4.399 8.686 5.79-1.01-3.521-5.89-5.954-8.69-5.79z" fill-rule="evenodd"></path> <path clip-rule="evenodd" d="m8.636 47.409c2.183 0.042 4.263-5.482 1.737-6.369-0.848 1.854-1.984 3.42-1.737 6.369z" fill-rule="evenodd"></path> <path clip-rule="evenodd" d="m71.169 44.514c6.579-2.524 13.091 0.637 17.371-2.895-6.29 0.009-12.373-2.211-17.371 2.895z" fill-rule="evenodd"></path> <path clip-rule="evenodd" d="m217.08 43.356c5.332-0.249 11.938 4.187 15.055 2.316-3.46-3.103-9.352-3.773-15.055-4.632v2.316z" fill-rule="evenodd"></path> <path clip-rule="evenodd" d="m34.692 45.672c2.21 0.304 6.716-1.652 8.685-3.474-3.304-1.552-8.273 0.209-8.685 3.474z" fill-rule="evenodd"></path> <path clip-rule="evenodd" d="m96.067 43.356c3.779 1.913 9.537-1.397 15.633 0.579-0.8-4.119-13.853-2.936-15.633-0.579z" fill-rule="evenodd"></path> <path clip-rule="evenodd" d="m140.07 43.356c0.011 1.683 3.272 1.369 4.053 0.579 0.13-1.095-0.652-1.277-0.579-2.316-1.75-0.023-3.8-0.337-3.47 1.737z" fill-rule="evenodd"></path> <path clip-rule="evenodd" d="m261.09 42.198c1.872 3.409 8.437 4.977 11.58 5.211-2.63-2.66-7.75-5.669-11.58-5.211z" fill-rule="evenodd"></path> <path clip-rule="evenodd" d="m301.62 46.83c1.079-1.956-1.296-4.665-3.475-5.211-1.54 2.415 1.45 4.513 3.48 5.211z" fill-rule="evenodd"></path> <path clip-rule="evenodd" d="m184.08 44.514c-0.603-2.293-3.537-2.254-6.369-2.316-0.5 3.224 4.75 3.052 6.37 2.316z" fill-rule="evenodd"></path> <path clip-rule="evenodd" d="m237.92 44.514c4.211 1.261 9.348 4.458 13.318 4.053-3.11-1.982-10.25-7.63-13.32-4.053z" fill-rule="evenodd"></path> <path clip-rule="evenodd" d="m211.29 47.988c0.479-1.637-0.815-1.5-0.578-2.895-3.557-0.497-6.062-2.043-10.422-1.737 0.67 4.537 7.76 2.659 11 4.632z" fill-rule="evenodd"></path> <path clip-rule="evenodd" d="m21.954 49.725c2.478 0.572 5.604-2.764 6.948-5.211-2.865-0.958-6.262 2.107-6.948 5.211z" fill-rule="evenodd"></path> <path clip-rule="evenodd" d="m288.3 50.304c-1.449-3.183-4.433-4.832-8.106-5.79 1.08 3.555 4.49 4.777 8.11 5.79z" fill-rule="evenodd"></path> <path clip-rule="evenodd" d="m52.062 48.567c2.951-0.24 10.428-0.691 12.738-3.474-4.971 0.433-9.951 0.857-12.738 3.474z" fill-rule="evenodd"></path> <path clip-rule="evenodd" d="m269.77 49.725c-3.188-2.023-6.916-3.506-11-4.632 0.55 3.967 8.89 6.066 11 4.632z" fill-rule="evenodd"></path> <path clip-rule="evenodd" d="m37.587 49.725c3.123-0.737 6.501-1.219 8.106-3.474-2.691-1.131-7.614 0.48-8.106 3.474z" fill-rule="evenodd"></path> <path clip-rule="evenodd" d="m119.23 47.409c1.854 1.031 2.921 1.123 5.211 0.579v-2.316c-1.32 1.002-4.86-0.223-5.21 1.737z" fill-rule="evenodd"></path> <path clip-rule="evenodd" d="m300.46 50.304c-0.246-2.649-1.261-4.529-4.054-4.632 0.53 2.367 1.77 4.016 4.05 4.632z" fill-rule="evenodd"></path> <path clip-rule="evenodd" d="m230.4 50.883c-2.638-3.73-8.867-3.871-14.475-4.632 1.84 4.204 11.33 3.651 14.48 4.632z" fill-rule="evenodd"></path> <path clip-rule="evenodd" d="m235.61 46.83c2.591 2.681 11.013 5.503 13.317 4.632-2.65-3.01-8.7-5.498-13.32-4.632z" fill-rule="evenodd"></path> <path clip-rule="evenodd" d="m74.644 49.725c3.782 0.685 9.896-1.292 15.634-0.579-1.986-4.605-13.043-1.565-15.634 0.579z" fill-rule="evenodd"></path> <path clip-rule="evenodd" d="m285.4 53.199c-0.335-3.911-4.848-3.644-6.948-5.79 0.08 4.171 4.34 4.161 6.95 5.79z" fill-rule="evenodd"></path> <path clip-rule="evenodd" d="m24.849 53.778c3.304-0.556 4.606-3.114 6.369-5.211-2.371-0.643-6.616 1.356-6.369 5.211z" fill-rule="evenodd"></path> <path clip-rule="evenodd" d="m97.225 50.304c3.019 1.418 12.571-0.691 16.792 0-3.16-2.133-12.06-3.628-16.795 0z" fill-rule="evenodd"></path> <path clip-rule="evenodd" d="m141.81 49.725c0.672 0.486 1.552 0.764 2.895 0.579v-2.316h-2.316c0.03 0.797-0.26 1.271-0.57 1.737z" fill-rule="evenodd"></path> <path clip-rule="evenodd" d="m267.46 54.357c-0.739-4.858-7.04-4.155-11.001-5.79 1.04 4.547 7.63 3.556 11 5.79z" fill-rule="evenodd"></path> <path clip-rule="evenodd" d="m198.55 49.725v1.737c3.002 0.859 7.072 0.649 9.844 1.737-0.01-4.142-7.24-3.803-9.84-3.474z" fill-rule="evenodd"></path> <path clip-rule="evenodd" d="m298.14 53.778c-0.245-2.649-1.261-4.529-4.053-4.632 0.53 2.367 1.77 4.016 4.05 4.632z" fill-rule="evenodd"></path> <path clip-rule="evenodd" d="m39.324 53.778c3.759-0.294 6.692-1.414 8.686-3.474-4.257-0.203-7.926 0.181-8.686 3.474z" fill-rule="evenodd"></path> <path clip-rule="evenodd" d="m61.905 52.62c2.42-1.307 4.661 0.106 7.527 0-0.422-2.859-4.253-2.309-7.527-2.316v2.316z" fill-rule="evenodd"></path> <path clip-rule="evenodd" d="m213.61 50.883c-0.025 0.797 0.273 1.271 0.579 1.737 4.889 0.516 9.04 1.769 13.317 2.895-1.72-4.63-10.31-5.286-13.9-4.632z" fill-rule="evenodd"></path> <path clip-rule="evenodd" d="m275.56 51.462c1.486 3.145 4.097 5.167 8.105 5.79-1.5-2.831-5.22-6.212-8.1-5.79z" fill-rule="evenodd"></path> <path clip-rule="evenodd" d="m28.323 57.832c2.889-1.551 5.916-2.963 6.948-6.369-3.233 1.091-8.125 2.69-6.948 6.369z" fill-rule="evenodd"></path> <path clip-rule="evenodd" d="m54.957 53.778c2.921 0.412 3.238-1.781 6.37-1.158-1.636-2.348-6.122-0.786-6.37 1.158z" fill-rule="evenodd"></path> <path clip-rule="evenodd" d="m234.45 56.094c4.285 1.59 6.411 1.975 11.581 2.895 0.229-2.739-3.166-1.852-4.054-3.474 1.96 0.163 3.325 0.921 5.79 0.579-1.528-3.875-7.721-3.087-11.58-4.632-0.49 2.486-0.49 2.462-1.74 4.632z" fill-rule="evenodd"></path> <path clip-rule="evenodd" d="m75.802 54.937c4.513-0.013 13.999-0.173 16.792-2.316-5.173-1.113-13.964-0.844-16.792 2.316z" fill-rule="evenodd"></path> <path clip-rule="evenodd" d="m166.71 54.937c0.27-1.813-0.503-2.585-2.315-2.316-0.28 1.812 0.49 2.584 2.31 2.316z" fill-rule="evenodd"></path> <path clip-rule="evenodd" d="m182.92 55.515c0.113-1.658 0.072-3.16-1.737-2.895-0.98 0.973-0.46 3.4 1.74 2.895z" fill-rule="evenodd"></path> <path clip-rule="evenodd" d="m254.72 54.937c4.292-0.192 8.058 4.84 11.001 2.316-2.938-2.273-6.851-3.571-11.001-4.632v2.316z" fill-rule="evenodd"></path> <path clip-rule="evenodd" d="m295.25 56.673c-0.229-2.086-0.942-3.689-2.895-4.053-0.01 2.319 0.3 4.329 2.89 4.053z" fill-rule="evenodd"></path> <path clip-rule="evenodd" d="m41.64 56.673c2.086 0.708 6.156-1.018 7.527-2.895-2.366-1.188-6.834 0.487-7.527 2.895z" fill-rule="evenodd"></path> <path clip-rule="evenodd" d="m120.96 54.357c-0.033 3.175 5.912 1.614 6.369 0-1.17-1.743-4.3-0.589-6.37 0z" fill-rule="evenodd"></path> <path clip-rule="evenodd" d="m213.03 54.357c2.336 3.647 8.527 3.438 13.316 4.632-1.69-3.973-10.18-4.025-13.32-4.632z" fill-rule="evenodd"></path> <path clip-rule="evenodd" d="m56.115 58.989c1.88 0.336 2.694-0.394 4.053-0.579-0.182 0.783-0.824 1.105-0.579 2.316 2.262-1.212 6.138-0.811 7.527-2.895-2.373-0.603-4.734 1.783-6.369 0 3.724-0.715 7.968-0.91 10.422-2.895-3.903 0.226-13.087-0.019-15.054 4.053z" fill-rule="evenodd"></path> <path clip-rule="evenodd" d="m100.12 57.252c4.455 1.064 7.661-0.972 12.738-0.579-2.37-2.527-9.99-2.207-12.74 0.579z" fill-rule="evenodd"></path> <path clip-rule="evenodd" d="m181.76 58.411c-0.414-3.254-4.023-3.311-7.527-3.474 0.36 4.497 4.3 1.852 7.53 3.474z" fill-rule="evenodd"></path> <path clip-rule="evenodd" d="m196.82 56.673c3.234 1.205 6.9 1.978 10.422 2.895-0.48-3.466-8.89-6.002-10.42-2.895z" fill-rule="evenodd"></path> <path clip-rule="evenodd" d="m280.77 59.568c-0.764-2.71-3.227-3.722-5.79-4.632-0.22 3.467 4.14 4.904 5.79 4.632z" fill-rule="evenodd"></path> <path clip-rule="evenodd" d="m31.797 60.147c2.375-0.52 4.425-1.365 4.632-4.053-2.921-0.197-5.7 2.11-4.632 4.053z" fill-rule="evenodd"></path> <path clip-rule="evenodd" d="m262.82 60.727c-3.514-1.504-6.374-3.663-11.002-4.053 1.7 2.632 9.33 5.23 11 4.053z" fill-rule="evenodd"></path> <path clip-rule="evenodd" d="m292.35 60.147c-0.6-1.523-0.467-3.779-2.895-3.474 0.6 1.523 0.46 3.779 2.89 3.474z" fill-rule="evenodd"></path> <path clip-rule="evenodd" d="m78.118 60.147c3.715 1.003 9-1.416 13.317-1.737-3.227-2.467-11.041-0.505-13.317 1.737z" fill-rule="evenodd"></path> <path clip-rule="evenodd" d="m166.13 57.832c-0.107-0.857-1.399-0.531-2.316-0.579-1.23 2.129 2.95 2.611 2.32 0.579z" fill-rule="evenodd"></path> <path clip-rule="evenodd" d="m44.535 60.727c2.635-0.646 5.609-0.953 6.948-2.895-3.389-0.109-6.363 0.198-6.948 2.895z" fill-rule="evenodd"></path> <path clip-rule="evenodd" d="m98.962 59.568c0.944 2.249 8.228 1.454 8.685-0.579-3.18-0.088-6.24-0.062-8.688 0.579z" fill-rule="evenodd"></path> <path clip-rule="evenodd" d="m224.03 64.201c-2.082-4.287-7.756-4.981-13.896-5.211 2.93 3.438 10.33 2.407 13.9 5.211z" fill-rule="evenodd"></path> <path clip-rule="evenodd" d="m232.71 60.147c3.112 1.143 8.783 2.786 11.58 2.316-2.25-1.833-8.72-4.857-11.58-2.316z" fill-rule="evenodd"></path> <path clip-rule="evenodd" d="m278.46 63.042c-1.223-2.059-2.96-3.602-5.79-4.053 0.06 3.008 3.89 4.747 5.79 4.053z" fill-rule="evenodd"></path> <path clip-rule="evenodd" d="m289.46 63.042c0.248-2.564-0.966-3.667-2.896-4.053-0.02 2.339 0.56 4.074 2.9 4.053z" fill-rule="evenodd"></path> <path clip-rule="evenodd" d="m109.38 60.727c1.75-0.18 4.503 0.643 4.632-1.158-1.45 0.476-4.98-1.126-4.63 1.158z" fill-rule="evenodd"></path> <path clip-rule="evenodd" d="m298.14 63.042c-0.294-1.442 0.02-3.493-1.737-3.474 0.02 1.726-0.05 3.529 1.74 3.474z" fill-rule="evenodd"></path> <path clip-rule="evenodd" d="m60.168 63.042c2.349-1.897 8.556 0.064 10.422-2.316-2.779-0.836-9.266-0.398-10.422 2.316z" fill-rule="evenodd"></path> <path clip-rule="evenodd" d="m121.54 61.306c1.29 0.724 6.53 1.394 6.948-0.579-1.29-0.724-6.53-1.394-6.95 0.579z" fill-rule="evenodd"></path> <path clip-rule="evenodd" d="m259.93 64.201c-2.689-1.942-5.833-3.432-9.843-4.053 1.17 3.081 6.85 4.711 9.84 4.053z" fill-rule="evenodd"></path> <path clip-rule="evenodd" d="m86.224 61.884c1.598-1.374 4.846 1.483 5.79-1.158-1.761 0.556-5.872-1.239-5.79 1.158z" fill-rule="evenodd"></path> <path clip-rule="evenodd" d="m142.39 61.884c0.402 0.454 3.231 1.289 3.474 0-0.451-0.127-0.673-0.484-0.579-1.158-1.43-0.085-2.81-0.107-2.89 1.158z" fill-rule="evenodd"></path> <path clip-rule="evenodd" d="m79.276 61.884v1.737c2.002-0.893 6.089 0.299 6.369-2.316-2.128 0.189-5.126-0.493-6.369 0.579z" fill-rule="evenodd"></path> <path clip-rule="evenodd" d="m204.92 63.622c-2.223-1.83-5.834-2.272-9.843-2.316 0.02 3.378 9.18 3.4 9.84 2.316z" fill-rule="evenodd"></path> <path clip-rule="evenodd" d="m100.12 63.622c4.62-0.393 12.608 1.912 14.475-1.158-4.36-0.318-11.88-1.842-14.48 1.158z" fill-rule="evenodd"></path> <path clip-rule="evenodd" d="m285.98 64.78c0.186-1.343-0.093-2.223-0.579-2.896h-1.737c-0.14 1.888 0.7 2.787 2.32 2.896z" fill-rule="evenodd"></path> <path clip-rule="evenodd" d="m242.56 65.359c-1.819-2.813-6.824-2.44-11.002-2.896 1.47 3.162 6.54 2.726 11 2.896z" fill-rule="evenodd"></path> <path clip-rule="evenodd" d="m60.748 64.78c2.434-0.268 5.393-0.011 6.369-1.737-2.741-0.039-5.497-0.093-6.369 1.737z" fill-rule="evenodd"></path> <path clip-rule="evenodd" d="m163.23 65.359c1.095 0.129 1.277-0.653 2.315-0.579 0.105-1.263-0.473-1.842-1.736-1.737-0.17 0.783-0.81 1.105-0.57 2.316z" fill-rule="evenodd"></path> <path clip-rule="evenodd" d="m274.98 67.096c-1.223-2.059-2.96-3.602-5.79-4.053 0.07 3.007 3.89 4.746 5.79 4.053z" fill-rule="evenodd"></path> <path clip-rule="evenodd" d="m79.855 64.201c0.018 2.684 2.488 2.917 2.316 5.79 1.194 0.351 4.022-0.935 3.474 1.158-0.783-0.182-1.106-0.824-2.316-0.579-0.676 2.605 3.235 0.625 2.316 3.474 3.674 0.186 8.21-0.49 11.001 0.579 0.726-2.032 0.245-3.125 0-5.791-6.304 0.521-9.561-1.216-12.739-1.158 0.375-2.354 8.153 1.354 9.265-1.737-2.772 0.07-5.24-0.164-6.948-1.158 3.357-0.934 7.547 1.789 8.685-0.579-4.238-1.418-10.569-0.232-15.054 0.001z" fill-rule="evenodd"></path> <path clip-rule="evenodd" d="m247.77 64.78c3.629 0.81 5.673 3.205 9.844 3.474-1.26-2.502-7.41-5.963-9.84-3.474z" fill-rule="evenodd"></path> <path clip-rule="evenodd" d="m221.71 67.675c-1.438-3.194-6.263-3.002-10.423-3.474 1.39 3.247 6.53 2.738 10.42 3.474z" fill-rule="evenodd"></path> <path clip-rule="evenodd" d="m73.486 64.78c-4.397 0.234-7.977 1.287-11.581 2.316-0.013 1.364 0.998 1.705 0.579 3.474 1.2 0.344 3.804-0.716 4.053 0.579-0.91 0.055-2.008-0.078-1.737 1.158 3.004 0.417 4.881-1.46 2.896-2.895h2.316c-0.032 0.74-0.742 0.802-0.579 1.737h2.316c0.229-0.996-0.859-1.484 0-1.737 2.699-0.508-0.797 1.502 1.158 1.737 0.237-0.728 0.747-1.184 1.737-1.158 0.237-1.395-1.057-1.259-0.579-2.895-1.75-0.538-4.503 0.827-4.632 0 0.413-1.711 4.092-0.154 4.053-2.316z" fill-rule="evenodd"></path> <path clip-rule="evenodd" d="m100.7 66.517c3.566 0.212 11.726 0.462 13.317-1.737-4.56 0.464-11.31-1.271-13.32 1.737z" fill-rule="evenodd"></path> <path clip-rule="evenodd" d="m283.09 67.675c0.184-1.343-0.094-2.223-0.58-2.895h-1.736c-0.24 1.978 0.18 3.299 2.32 2.895z" fill-rule="evenodd"></path> <path clip-rule="evenodd" d="m240.82 67.675c-3.92-0.712-6.776-2.488-11.58-2.316 1.6 2.618 9.94 5.218 11.58 2.316z" fill-rule="evenodd"></path> <path clip-rule="evenodd" d="m175.39 66.517c-0.638 2.413 4.112 2.413 3.475 0-1.35-0.179-2.39-1.134-3.47 0z" fill-rule="evenodd"></path> <path clip-rule="evenodd" d="m272.09 71.149c-0.266-3.208-2.821-4.127-5.211-5.211 0.22 3.25 3.01 3.931 5.21 5.211z" fill-rule="evenodd"></path> <path clip-rule="evenodd" d="m141.81 67.675c1.115 1.172 2.33 1.346 4.053 0.579 0.68-2.375-4.02-2.327-4.05-0.579z" fill-rule="evenodd"></path> <path clip-rule="evenodd" d="m193.34 68.253c3.773 0.473 6.846 1.648 10.423 2.316-1.43-2.696-8.43-5.485-10.42-2.316z" fill-rule="evenodd"></path> <path clip-rule="evenodd" d="m122.7 68.253c1.413 1.965 3.283 0.081 6.369 0.579 0-3.235-4.99-1.182-6.37-0.579z" fill-rule="evenodd"></path> <path clip-rule="evenodd" d="m255.3 71.149c-1.186-3.061-5.086-3.407-8.686-4.053 1.77 2.471 4.95 3.54 8.69 4.053z" fill-rule="evenodd"></path> <path clip-rule="evenodd" d="m162.08 68.833c1.104 0.247 1.048 1.654 2.896 1.158 0.43-2.069-2.43-3.353-2.9-1.158z" fill-rule="evenodd"></path> <path clip-rule="evenodd" d="m207.82 68.833c2.903 0.864 9.024 4.351 11.581 1.737-3.12-0.793-8.51-4.668-11.58-1.737z" fill-rule="evenodd"></path> <path clip-rule="evenodd" d="m279.62 69.991v-2.316h-1.736c-0.17 1.514 0.21 2.491 1.74 2.316z" fill-rule="evenodd"></path> <path clip-rule="evenodd" d="m101.86 70.57c3.507 1.239 7.644-1.515 12.738-0.579-1.36-2.922-12.06-2.676-12.74 0.579z" fill-rule="evenodd"></path> <path clip-rule="evenodd" d="m132.54 69.412c0.396 0.447 3.449 1.508 2.895-0.579-0.24-1.286-3.17-0.556-2.9 0.579z" fill-rule="evenodd"></path> <path clip-rule="evenodd" d="m269.19 73.465c-0.602-2.68-2.094-4.469-5.211-4.632 0.3 2.986 2.63 3.936 5.21 4.632z" fill-rule="evenodd"></path> <path clip-rule="evenodd" d="m177.71 74.044c-0.625-2.078-1.174-4.23-3.475-4.632h-1.158c0.1 2.986 1.08 5.094 4.63 4.632z" fill-rule="evenodd"></path> <path clip-rule="evenodd" d="m226.92 70.57c3.322 0.415 9.047 3.713 11.581 1.158-2.87-0.704-8.59-4.386-11.58-1.158z" fill-rule="evenodd"></path> <path clip-rule="evenodd" d="m124.44 71.149c0.072 1.279 2.456 0.246 3.474 0.579 0.91-1.99-3.87-2.749-3.47-0.579z" fill-rule="evenodd"></path> <path clip-rule="evenodd" d="m253.56 74.044c-2.649-1.791-5.147-3.73-9.265-4.053 0.62 3.437 6.95 4.225 9.26 4.053z" fill-rule="evenodd"></path> <path clip-rule="evenodd" d="m151.65 71.728c0.795 1.135 3.548 0.312 4.632 1.158v-1.158c0.354-0.033 0.686-0.087 0.579-0.579-0.68-0.518-5.48-1.631-5.21 0.579z" fill-rule="evenodd"></path> <path clip-rule="evenodd" d="m145.28 72.886c0.265-1.809-1.237-1.851-2.896-1.737-0.72 2.277 1.37 1.722 2.9 1.737z" fill-rule="evenodd"></path> <path clip-rule="evenodd" d="m218.82 75.202c-3.394-1.624-7.191-2.844-11.58-3.474 1.2 3.12 9.73 4.83 11.58 3.474z" fill-rule="evenodd"></path> <path clip-rule="evenodd" d="m65.958 74.623c3.177-0.876 7.412-0.695 9.843-2.316-3.739 0.313-9.099-0.994-9.843 2.316z" fill-rule="evenodd"></path> <path clip-rule="evenodd" d="m191.03 73.465c3.261 0.985 6.954 1.537 10.422 2.316-0.45-3.133-8.47-4.513-10.42-2.316z" fill-rule="evenodd"></path> <path clip-rule="evenodd" d="m225.19 72.886c2.021 3.19 7.898 2.524 11.58 4.053-1.03-3.875-8.22-4.408-11.58-4.053z" fill-rule="evenodd"></path> <path clip-rule="evenodd" d="m103.02 75.202c3.337-0.136 10.482 0.278 13.317-1.158-2.07-2.084-14.61-2.033-13.32 1.158z" fill-rule="evenodd"></path> <path clip-rule="evenodd" d="m133.7 74.044c0.935 0.988 2.985 0.53 3.474-0.579-0.73-0.797-3.45-1.008-3.47 0.579z" fill-rule="evenodd"></path> <path clip-rule="evenodd" d="m123.28 74.044c0.229 3.47 3.567 0.261 6.369 1.158-0.24-3.484-3.93-0.625-6.37-1.158z" fill-rule="evenodd"></path> <path clip-rule="evenodd" d="m251.24 76.36c-2.046-1.622-4.707-2.627-8.107-2.895 0.34 2.693 6.47 5.325 8.11 2.895z" fill-rule="evenodd"></path> <path clip-rule="evenodd" d="m158.02 75.202c-3.048 0.347-4.975-0.429-7.527-0.579 0.21 2.741 7.33 2.965 7.53 0.579z" fill-rule="evenodd"></path> <path clip-rule="evenodd" d="m205.5 76.939c3.268 0.498 9.14 4.235 11.58 1.737-2.98-0.934-8.54-4.627-11.58-1.737z" fill-rule="evenodd"></path> <path clip-rule="evenodd" d="m124.44 77.518c-0.025 0.797 0.272 1.271 0.579 1.737 1.96-0.163 3.325-0.921 5.79-0.579 0.42-2.817-5.13-1.828-6.37-1.158z" fill-rule="evenodd"></path> <path clip-rule="evenodd" d="m145.86 77.518c-0.684-0.667-2.046-0.655-3.474-0.579-0.41 2.489 3.01 1.884 3.47 0.579z" fill-rule="evenodd"></path> <path clip-rule="evenodd" d="m178.29 79.255c-1.784-1.11-4.25-1.54-6.947-1.737-0.33 2.86 5.33 2.747 6.95 1.737z" fill-rule="evenodd"></path> <path clip-rule="evenodd" d="m188.71 78.676c3.259 0.804 8.54 2.643 11.581 1.737-1.79-2.126-8.95-4.219-11.58-1.737z" fill-rule="evenodd"></path> <path clip-rule="evenodd" d="m134.28 80.413c1.453-0.477 4.986 1.125 4.632-1.158-0.592-1.338-2.663-1.198-4.632-1.158v2.316z" fill-rule="evenodd"></path> <path clip-rule="evenodd" d="m149.34 80.413c1.208 0.598 6.264 2.639 6.948 0-1.46-0.684-6.07-2.347-6.95 0z" fill-rule="evenodd"></path> <path clip-rule="evenodd" d="m214.76 83.887c-0.574-4.251-6.147-3.503-9.844-4.632-0.7 3.54 6.75 3.054 9.84 4.632z" fill-rule="evenodd"></path> <path clip-rule="evenodd" d="m166.71 80.992c1.092 2.769 5.914 1.806 9.265 2.316-1.02-2.593-6.77-3.087-9.27-2.316z" fill-rule="evenodd"></path> <path clip-rule="evenodd" d="m196.24 83.308c0.503-3.785-5.034-1.529-6.948-2.895-0.27 3.546 4.99 1.569 6.95 2.895z" fill-rule="evenodd"></path> <path clip-rule="evenodd" d="m124.44 82.729c1.315 1.146 3.235-0.616 5.79 0 0.368-2.684-3.166-1.466-5.211-1.737 0.02 0.797-0.27 1.271-0.58 1.737z" fill-rule="evenodd"></path> <path clip-rule="evenodd" d="m134.86 82.15c-0.337 2.074 1.713 1.761 3.474 1.737v-2.316c-1.77-0.42-1.7 0.999-3.47 0.579z" fill-rule="evenodd"></path> <path clip-rule="evenodd" d="m160.34 83.308c0.672 0.486 1.553 0.764 2.896 0.579 0.55-2.128-2.85-2.302-2.9-0.579z" fill-rule="evenodd"></path> <path clip-rule="evenodd" d="m157.44 83.887c-0.616-1.314-3.64-0.221-5.211-0.579-0.52 2.015 5.24 2.791 5.21 0.579z" fill-rule="evenodd"></path> <path clip-rule="evenodd" d="m188.71 85.045c0.249 1.295 2.854 0.235 4.054 0.579 0.31-1.517-4.24-2.869-4.05-0.579z" fill-rule="evenodd"></path> <path clip-rule="evenodd" d="m163.81 85.624c1.094-0.257 3.49 0.788 2.895-1.158h-2.895c0.01 0.386 0.01 0.772 0.01 1.158z" fill-rule="evenodd"></path> <path clip-rule="evenodd" d="m236.19 51.462c3.859 1.545 10.052 0.756 11.58 4.632-2.465 0.342-3.83-0.417-5.79-0.579 0.888 1.622 4.283 0.735 4.054 3.474-5.17-0.92-7.296-1.305-11.581-2.895 1.25-2.17 1.25-2.146 1.74-4.632z" fill-rule="evenodd"></path> <g> <path d="m156.86 431.3c0.249 1.874-0.762 5.009 1.158 5.212-1.58-1.39 1.73-4.68-1.16-5.21z" fill="none"></path> <path d="m178.29 140.05c2.764 0.447 3.728-0.905 6.37-0.579-0.8-2.75-5.16-0.01-6.37 0.58z" fill="none"></path> <path d="m189.87 133.68c3.179-0.678 5.739 0.614 6.948-1.158-1.65-0.92-6.7-1.15-6.95 1.16z" fill="none"></path> <path d="m296.41 38.724c-0.09 0.681 0.1 1.644-0.578 1.737-2.426-2.785-7.119-3.303-8.686-6.948 2.952-0.866 6.126 2.638 8.686 4.053-2.518-4.045-6.619-6.506-12.16-7.527-5.829-5.798-18.976-7.208-26.055-9.843-2.119-2.898-7.135-2.901-12.16-2.895-6.231-3.614-14.057-7.397-23.739-5.79-7.813-5.889-19.143-4.46-29.53-5.79-8.694-1.113-17.773-5.291-26.635-1.737-8.01-2.331-21.489-1.369-28.371 1.158-8.534-5.694-18.25 0.505-27.214 1.158-2.402 0.175-4.685-0.971-6.948-1.158-10.442-0.863-14.098 2.425-21.438 3.473-6.166 0.881-12.427-0.183-18.528 1.158-12.851 2.824-25.235 7.046-38.215 8.106-5.824 5.759-18.119 8.129-19.687 16.213 2.994-2.801 5.545-9.117 11.001-7.527-5.806 2.206-7.551 9.42-10.422 13.896-0.757 1.18-3.755 0.139-1.158 2.316 1.326-1.955 1.897-4.665 4.632-5.211-0.112 2.976-2.094 4.082-2.316 6.948 1.358-0.428 1.254 2.104 1.158 4.632 2.767-0.894 2.172 3.132 4.053 4.632 0.368-2.913 2.378-4.184 4.632-5.211 0.897 2.294-2.19 3.539-0.579 4.632-0.002-1.399 2.027-3.701 2.895-2.316 0.366 2.856-4.072 6.497-1.737 7.527 2.016-0.879 0.699-5.091 4.053-4.632 0.26 2.962-1.586 3.818-1.737 6.369 2.735-0.161 1.074-4.716 4.632-4.053 0.645 2.769-1.803 2.443-1.158 5.211 2.242 0.505 0.946-2.528 3.474-1.737 0.479 1.637-0.816 1.5-0.579 2.895 3.008-1.683 3.606 2.048 6.948 1.737 1.651-1.26 3.543-5.314 6.369-3.474 0.038 2.354-3.368 1.264-2.895 4.053 2.29 0.35 3.357-2.263 5.211-0.579-0.056 1.488-2.26 0.828-2.316 2.316 1.359-0.185 2.173-0.915 4.053-0.579 0.043 1.009-0.129 1.801-0.579 2.316 2.67-0.331 4.117 3.574 6.948 1.158-0.607-1.13-1.162-2.312-1.737-3.474 1.949-0.366 2.969-1.663 5.79-1.158-1.805 2.773 2.762 1.079 1.737 4.632 4.163 5.299 13.976 7.477 20.845 5.211-0.526 1.597-3.314 0.932-3.474 2.895 9.229 3.298 14.193-4.346 22.582-1.737-1.598 1.491-7.121-0.944-6.948 2.316 3.289 0.378 8.096-0.762 10.422 0.579 0.095 1.639-3.569-0.481-3.474 1.158 3.673 0.958 7.793 1.471 11.58 2.316-0.564-2.88 2.34-2.292 2.895-4.053-2.74-0.845-5.699 1.724-6.369-0.579 2.518-1.229 11.713-3.463 13.317 0-0.64 0.757-5.484 0.245-4.053 1.158 2.026-0.096 3.706 0.154 4.632 1.158-0.801 2.094-5.063 0.727-6.948 1.737-2.727-0.283-1.4 1.043 0.579 0.579h5.211c6.77 4.73 16.058 3.748 24.898 3.474 11.378-0.352 23.285 2.402 34.162-0.579 8.541 3.479 17.049 2.26 26.635 0 0.807-0.737 0.252-2.836 1.737-2.895 5.753 1.467 8.985 4.134 16.212 2.895 2.187-2.981 3.309-5.167 5.211-9.264 4.512 0.507 9.463 0.574 10.423 4.632-1.991 0.408-3.489-2.635-5.212-0.579 2.218-0.287 3.064 0.796 3.475 2.316-1.351 0.865-2.494-0.195-2.895 0.579 1.018 0.14 1.319 0.996 1.158 2.316 2.615-0.473 7.291 1.116 8.105-1.158-1.525 0.174-1.9-0.802-1.736-2.316 1.115-2.165 3.143-3.418 4.631-5.211 1.805 1.864 5.954 1.381 6.37 4.632-2.8 0.841-4.224-2.687-5.79-1.158 3.373 1.397 6.012 4.135 11.001 2.316 0.151-2.974 1.958-2.765 2.896-5.211 2.735 0.159 2.416 3.374 5.789 2.895-0.297-3.176-5.007-1.941-4.631-5.79 4.09 0.156 4.084 4.408 8.105 4.632 0.297-4.349-5.394-2.712-5.79-6.369 5.358-0.534 5.422 4.229 9.265 5.211 7.972-3.801 17.828-5.718 24.318-11.001-0.826-0.206-1.978-2.95-0.579-3.474 1.266 0.085 1.243 1.459 1.157 2.895 3.794-1.611 6.496-4.313 8.107-8.106-0.762-1.959-3.558-4.912-2.316-6.948 1.828 0.681 2.015 3.003 3.474 4.053 1.58-7.485-2.73-13.761-8.09-16.212z" fill="none"></path> <path d="m295.83 32.355c-8.953-6.991-23.883-10.323-34.162-14.476 0.613-2.157-1.219-1.869-1.737-2.895-15.235 2.636-22.565-9.293-38.215-6.369-7.772-6.658-19.014-3.645-28.95-5.211-2.544-0.4-4.68-1.958-6.949-2.316-14.469-2.28-32.6-0.526-47.479 1.158-7.22-5.199-22.612 0.557-28.372 1.158-4.528 0.473-8.892-1.35-13.317-1.158-5.053 0.219-9.703 2.667-15.055 3.474-4.218 0.636-8.519-0.486-12.738 0-3.572 0.411-7.352 2.707-11.58 3.474-8.171 1.482-15.272 0.32-19.687 5.211-22.548 1.682-48.225 17.612-33.01 42.268 40.803 38.714 83.085 75.952 136.07 102.48 6.909 26.203 7.288 54.231 5.79 82.8-0.768 14.658-4.48 28.756-5.211 42.847-0.485 9.356-2.291 13.618-4.053 20.266-8.929 33.678-2.729 82.196 4.053 114.06 1.79 8.412 6.343 16.484 8.106 23.74 0.579 2.38-0.58 7.197 3.474 7.526-4.789-25.323-15.915-53.083-17.37-85.114-0.246-5.402-0.584-12.5-0.579-16.213 0.025-17.04 0.879-39.939 8.685-52.111 1.044-27.509 7.979-61.597 5.79-92.063-1.286-17.902-1.561-36.17-8.106-49.795-6.75 0.38-8.021-4.718-13.317-5.79 8.868-3.736 23.247-0.278 31.266-5.211-5.279-1.231-17.406 3.298-24.897 1.737-0.883-3.199 3.727-0.906 3.474-3.474-3.268-0.18-5.149 1.027-8.685 0.579-1.271 1.044-0.451 4.181-2.895 4.053-0.128-0.451-0.485-0.673-1.158-0.579-1.948-0.934 1.82-1.833 0-2.895-1.76-0.363-4.987 0.742-5.79-0.579 1.477-0.067 2.979-0.109 2.895-1.737-2.623-1.718-6.615 1.531-8.106-1.158 2.829 0.127 4.161-1.243 5.211-2.895-1.874-0.249-5.008 0.762-5.211-1.158-0.229-1.388 2.637 0.321 1.737-1.737-0.437-1.494-4.283 0.423-4.053-1.737-0.715-1.874 1.874-0.443 1.158-2.316-1.976-0.253-4.774-1.372-5.791 0.579 0.335 0.521 3.122 1.398 1.737 1.737-2.971-0.117-6.69 0.514-8.106-1.158 1.315-0.422 4.518 1.043 4.053-1.158-3.137-1.008-5.687 0.476-7.527-1.158 1.83 0.092 3.495 0.021 4.053-1.158-4.225-0.628-2.811-3.337-6.948-4.053 1.04 0.074 1.355-0.575 1.158-1.737-2.668-0.034-5.136-0.268-6.948-1.158 0.009-1.728 4.291 0.817 3.474-1.737-3.607-0.639-7.797-0.695-11.001-1.737 2.615-0.473 7.292 1.116 8.106-1.158-2.902-1.151-8.118 0.012-10.422-1.737 2.388 0.072 3.626-1.006 6.369-0.579-2.108-3.488-10.182-1.012-13.317-3.474 3.378 0.097 5.552-1.011 9.264-0.579-3.389-4.782-11.497 0.882-15.633-4.053 3.576-0.09 11.143 2.398 12.738-1.158-7.979-0.32-15.978-0.62-20.265-4.632 0.351 0.333 2.746 1.355 2.895 0-1.452-2.988-7.738-1.14-8.686-4.632 1.727-0.155 3.526 1.621 4.053-0.579-2.289-1.764-7.434-0.672-8.685-3.474 1.395-0.188 4.209 2.903 4.632 0-1.871-2.961-10.996-1.733-10.422-5.211 1.73 0.36 4.553 1.38 5.79-0.579-3.903-1.501-8.695-2.113-11.581-4.632 3.012-0.698 6.718 3.441 8.106 0.579-3.223-3.725-11.51-2.386-14.476-6.369 3.235-0.022 8.331 3.853 10.422 1.158-1.572-2.481-6.643-1.463-8.685-3.474 1.906 0.024 2.882 0.978 5.211 0.579-0.625-3.042-5.39-1.944-6.948-4.053 1.881-0.668 3.562 1.769 4.632 0-4.154-2.601-9.594-3.917-13.896-6.369 4.484 1.939 9.273 1.782 13.896 3.474 4.2 1.537 6.711 4.756 11.001 5.79 3.498 0.843 7.513 0.095 11.001 1.158 2.968 0.905 4.802 3.651 7.527 4.632 7.97 2.869 14.896 0.448 24.897 1.737 3.479 0.449 6.764 3.229 10.422 4.053 5.779 1.301 11.814 0.173 17.949 1.158 4.445 0.714 7.356 3.101 11.001 3.474 3.644 0.374 7.843 0.413 12.159 0 6.114-0.585 11.151 0.393 17.371 0.579 13.197 0.395 26.134-1.93 38.794 0.579-6.315 1.768-15.456 0.759-19.687 1.737 6.34 2.729 21.67 1.917 23.16-3.474 18.211-0.542 40.662 0.236 57.902-2.895-3.732 1.865-10.603 0.592-13.318 3.474 4.584 0.644 11.98-0.699 16.792-1.737 1.147-1.479-0.601-2.662 0.579-3.474 5.69-0.104 9.329-5.333 13.896-4.632-3.086 2.318-8.56 2.249-10.422 5.791 1.965-0.157 4.693 0.448 5.789-0.579 0.002 0.581-0.469 0.689-0.578 1.158-3.705 1.314-8.632 1.405-11.002 4.053 0.439 1.684 4.771-0.525 5.211 1.158-3.592 1.04-7.216 2.048-9.264 4.632 0.866 0.099 2.137-0.207 2.316 0.579-2.971-0.462-3.799 1.219-6.369 1.158 0.003 3.863-5.281 2.439-5.211 6.369-1.359 0.571-2.846 1.016-4.633 1.158-1.565 1.062-0.101 1.96-1.158 2.895-3.525 2.458-12.578-0.612-14.475 3.474 3.071 2.107 6.41-2.049 9.264 0-3.817 1.587-9.912 0.896-13.317 2.895 0.489 1.248 3.69-0.217 4.054 1.158-3.322 0.641-3.314 1.012-6.949 1.158-0.293 3.581 4.041-0.095 4.054 2.316-2.038 1.629-8.185-0.85-8.686 2.316-0.261 1.612 3.156-0.454 2.896 1.158-3.35 0.512-6.544 1.177-9.844 1.737-0.816 2.554 3.465 0.009 3.475 1.737-6.449 3.01-17.65-1.946-22.003 3.474 6.501 0.672 10.952-2.626 15.634 0.579-6.246 2.856-11.452-0.693-19.107 1.737-0.818 2.214 3.847 1.882 2.316 2.895-2.466-0.342-3.83 0.417-5.791 0.579 1.338 4.271-6.008 1.673-7.527 4.632 0.355 0.802 2.229 0.087 2.316 1.158-2.345 0.165-4.024 0.994-6.369 1.158 0.159-1.192 2.157-0.545 2.316-1.737-0.961-0.97-3.4-0.461-5.211-0.579 0.426 1.503 0.459 3.4 1.736 4.053-1.506 1.196-5.64-0.236-5.79 2.316 1.079 0.08 1.935 0.381 2.315 1.158h-5.211c-1.366 1.698 1.113 2.151 0 2.896-2.957-0.066-4.865 2.027-4.632 3.474-2.971 0.004-3.799-0.848-6.369 0-4.311 21.305 3.171 45.885 2.896 68.324-0.355 28.901-8.337 55.826-6.37 81.641-1.731-1.309-3.877 0.837-3.474 3.475 2.828 0.704 3.314-0.933 4.053-2.316 6.857 36.882 13.847 84.69 11.581 121.59-1.485-2.297-0.904-8.272-1.158-13.317-0.96-0.97-3.399-0.46-5.211-0.579 2.946 3.982-2.558 7.682 2.315 11.002-4.244 3.82 0.101 9.153-0.578 15.054 1.381 1.944 4.195-1.146 4.632 0 0.666 5.412-3.499-0.717-4.054 3.475 0.01 1.728 4.291-0.817 3.475 1.737 0.502 3.436-2.893-0.616-2.895 2.315 0.008 0.956 1.605 0.324 1.736 1.158-2.131 0.421-2.221 4.571 0 5.211 3.744-1.321 3.598-7.082 4.053-10.422 0.715-5.235 0.961-13.164 1.158-17.37 1.332-28.461-2.939-55.465-5.79-82.221-2.021-18.965-8.106-36.708-8.106-55.006 0-15.942 4.848-33.562 5.791-51.533 1.293-24.674-2.808-53.848-2.896-76.429 57.706-26.446 110.06-58.245 155.18-97.274 5.74-12.025-2.53-23.251-9.81-28.941zm-137.81 404.16c-1.92-0.203-0.909-3.338-1.158-5.212 2.89 0.53-0.42 3.82 1.16 5.21zm20.27-296.46c1.213-0.594 5.574-3.33 6.37-0.579-2.65-0.32-3.61 1.03-6.37 0.58zm7.52-3.47c0.592-1.338 2.662-1.198 4.633-1.158-0.12 1.8-2.88 0.98-4.63 1.16zm4.06-2.9c0.247-2.309 5.302-2.086 6.948-1.158-1.21 1.78-3.77 0.48-6.95 1.16zm114.64-78.743c-1.459-1.05-1.646-3.373-3.474-4.053-1.241 2.037 1.555 4.989 2.316 6.948-1.611 3.793-4.313 6.495-8.107 8.106 0.086-1.436 0.108-2.81-1.157-2.895-1.398 0.524-0.247 3.268 0.579 3.474-6.49 5.283-16.347 7.2-24.318 11.001-3.843-0.983-3.906-5.745-9.265-5.211 0.396 3.657 6.087 2.02 5.79 6.369-4.021-0.224-4.016-4.476-8.105-4.632-0.376 3.849 4.334 2.614 4.631 5.79-3.373 0.479-3.054-2.736-5.789-2.895-0.938 2.446-2.744 2.237-2.896 5.211-4.989 1.819-7.628-0.918-11.001-2.316 1.566-1.529 2.99 1.999 5.79 1.158-0.416-3.251-4.565-2.769-6.37-4.632-1.488 1.792-3.516 3.046-4.631 5.211-0.164 1.515 0.211 2.491 1.736 2.316-0.814 2.274-5.49 0.685-8.105 1.158 0.161-1.32-0.141-2.176-1.158-2.316 0.4-0.774 1.544 0.286 2.895-0.579-0.41-1.52-1.257-2.603-3.475-2.316 1.723-2.056 3.221 0.987 5.212 0.579-0.96-4.058-5.911-4.125-10.423-4.632-1.902 4.098-3.024 6.283-5.211 9.264-7.227 1.239-10.459-1.428-16.212-2.895-1.485 0.059-0.931 2.158-1.737 2.895-9.586 2.26-18.094 3.479-26.635 0-10.877 2.981-22.783 0.227-34.162 0.579-8.84 0.274-18.128 1.256-24.898-3.474h-5.211c-1.979 0.464-3.306-0.862-0.579-0.579 1.885-1.01 6.147 0.357 6.948-1.737-0.926-1.004-2.606-1.254-4.632-1.158-1.431-0.913 3.413-0.401 4.053-1.158-1.604-3.463-10.799-1.229-13.317 0 0.67 2.303 3.629-0.266 6.369 0.579-0.555 1.761-3.459 1.172-2.895 4.053-3.787-0.845-7.907-1.357-11.58-2.316-0.095-1.639 3.569 0.481 3.474-1.158-2.327-1.34-7.133-0.201-10.422-0.579-0.172-3.261 5.351-0.826 6.948-2.316-8.389-2.608-13.352 5.035-22.582 1.737 0.16-1.963 2.948-1.298 3.474-2.895-6.869 2.266-16.682 0.087-20.845-5.211 1.025-3.553-3.542-1.859-1.737-4.632-2.821-0.505-3.841 0.792-5.79 1.158 0.575 1.162 1.129 2.344 1.737 3.474-2.831 2.416-4.278-1.489-6.948-1.158 0.45-0.515 0.623-1.307 0.579-2.316-1.88-0.335-2.694 0.395-4.053 0.579 0.056-1.488 2.26-0.828 2.316-2.316-1.854-1.684-2.922 0.929-5.211 0.579-0.473-2.789 2.933-1.7 2.895-4.053-2.826-1.84-4.718 2.214-6.369 3.474-3.342 0.311-3.94-3.42-6.948-1.737-0.237-1.395 1.058-1.258 0.579-2.895-2.528-0.791-1.232 2.242-3.474 1.737-0.645-2.769 1.803-2.443 1.158-5.211-3.558-0.663-1.897 3.893-4.632 4.053 0.151-2.551 1.997-3.407 1.737-6.369-3.354-0.459-2.037 3.753-4.053 4.632-2.335-1.031 2.103-4.671 1.737-7.527-0.868-1.385-2.897 0.917-2.895 2.316-1.611-1.093 1.477-2.338 0.579-4.632-2.254 1.027-4.264 2.298-4.632 5.211-1.881-1.5-1.286-5.526-4.053-4.632 0.096-2.527 0.2-5.06-1.158-4.632 0.222-2.866 2.204-3.972 2.316-6.948-2.735 0.546-3.307 3.256-4.632 5.211-2.597-2.177 0.401-1.136 1.158-2.316 2.871-4.476 4.616-11.69 10.422-13.896-5.456-1.589-8.007 4.726-11.001 7.527 1.568-8.084 13.863-10.454 19.687-16.212 12.98-1.06 25.364-5.282 38.215-8.106 6.102-1.341 12.362-0.277 18.528-1.158 7.34-1.048 10.997-4.336 21.424-3.474 2.263 0.187 4.545 1.333 6.948 1.158 8.964-0.653 18.68-6.852 27.214-1.158 6.882-2.527 20.361-3.489 28.371-1.158 8.861-3.553 17.94 0.624 26.635 1.737 10.388 1.33 21.717-0.099 29.53 5.79 9.683-1.607 17.508 2.176 23.739 5.79 5.025-0.006 10.041-0.003 12.16 2.895 7.079 2.636 20.226 4.045 26.055 9.843 5.541 1.021 9.643 3.482 12.16 7.527-2.56-1.415-5.733-4.919-8.686-4.053 1.566 3.646 6.26 4.163 8.686 6.948 0.678-0.093 0.488-1.056 0.578-1.737 5.37 2.45 9.68 8.726 8.11 16.212z"></path> </g> <path clip-rule="evenodd" d="m69.433 67.096c0.129 0.827 2.882-0.538 4.632 0-0.479 1.636 0.816 1.5 0.579 2.895-0.99-0.025-1.5 0.43-1.737 1.158-1.956-0.235 1.541-2.245-1.158-1.737-0.859 0.253 0.229 0.741 0 1.737h-2.316c-0.163-0.936 0.547-0.997 0.579-1.737h-2.316c1.986 1.435 0.109 3.312-2.896 2.895-0.271-1.235 0.827-1.103 1.737-1.158-0.25-1.295-2.854-0.235-4.053-0.579 0.418-1.77-0.592-2.11-0.579-3.474 3.604-1.029 7.183-2.082 11.581-2.316 0.039 2.162-3.64 0.605-4.053 2.316z" fill-rule="evenodd"></path> <path clip-rule="evenodd" d="m94.909 64.201c-1.138 2.368-5.328-0.354-8.685 0.579 1.708 0.994 4.176 1.228 6.948 1.158-1.112 3.091-8.89-0.616-9.265 1.737 3.178-0.059 6.435 1.678 12.739 1.158 0.245 2.665 0.726 3.759 0 5.791-2.791-1.069-7.328-0.393-11.001-0.579 0.919-2.849-2.992-0.869-2.316-3.474 1.21-0.245 1.533 0.397 2.316 0.579 0.548-2.093-2.28-0.808-3.474-1.158 0.172-2.874-2.298-3.106-2.316-5.79 4.485-0.234 10.816-1.42 15.054-0.001z" fill-rule="evenodd"></path> </g> <metadata></metadata></svg> 