<?xml version="1.0" encoding="UTF-8" standalone="no"?> <!-- Generator: Adobe Illustrator 13.0.1, SVG Export Plug-In . SVG Version: 6.00 Build 14948) --> <svg xmlns:rdf="http://www.w3.org/1999/02/22-rdf-syntax-ns#" xmlns="http://www.w3.org/2000/svg" xmlns:x="http://ns.adobe.com/Extensibility/1.0/" xmlns:dc="http://purl.org/dc/elements/1.1/" xmlns:i="http://ns.adobe.com/AdobeIllustrator/10.0/" xmlns:cc="http://web.resource.org/cc/" xmlns:xlink="http://www.w3.org/1999/xlink" xmlns:a="http://ns.adobe.com/AdobeSVGViewerExtensions/3.0/" xmlns:graph="http://ns.adobe.com/Graphs/1.0/" xmlns:svg="http://www.w3.org/2000/svg" xmlns:inkscape="http://www.inkscape.org/namespaces/inkscape" xmlns:sodipodi="http://sodipodi.sourceforge.net/DTD/sodipodi-0.dtd" xmlns:ns1="http://sozi.baierouge.fr" id="book_reading_xA0_Image_1_" xml:space="preserve" viewBox="0 0 535.633 390.17" y="0px" x="0px"> <g clip-rule="evenodd" fill-rule="evenodd"> <path fill="#FFFFFF" d="m0.912 2.206c177.71-0.736 355.42-1.471 533.12-2.206 0.535 129.32 1.07 258.64 1.604 387.96-178 0.736-355.99 1.473-534 2.209-0.525-128.44-1.056-256.88-1.588-385.32-0.08-1.25-0.155-2.492 0.87-2.644zm10.604 11.392c-1.336 33.193-1.1 69.269-1.348 99.417-0.045 5.419 1.221 11 0.945 15.832-0.156 2.746-1.862 5.179-1.727 7.925 0.19 3.846 2.64 7.589 2.687 11.425 0.09 7.39-2.275 16.48-1.654 25.519 1.693 24.635-0.396 48.257 0.306 73.898 0.131 4.804 1.829 6.915 1.799 9.669-0.041 3.895-1.744 7.261-1.712 11.443 0.291 37.58-2.5 71.001 1.334 109.96 7.628 1.03 22.806 2.255 29.028-1 9.477 4.572 20.132 1.067 29.915 0.756 11.059-0.354 22.487 0.624 33.433 0.741 70.963 0.758 148.15-2.36 231.38 0.802 26.014 0.989 52.901-0.013 80.055-0.331 31.427-0.368 68.588 1.274 95-3.031-4.123-2.322-12.786-0.064-15.85-3.454 0.86-34.487-8.977-69.384-19.743-94.051-3.306-7.574-9.318-14.892-8.012-22.841 13.644 6.28 26.54 27.727 34.483 42.086 8.863 16.019 21.328 46.207 15.25 71.196-0.877 3.608-3.956 4.489-3.485 7.932 11.051 1.155 9.55-10.104 9.611-15.875 0.069-6.54-0.893-15.031-0.968-21.11-1.397-114.61 1.328-219.71-2.24-329.02-47.056-1.184-87.789-2.214-135.48 0.561-72.575-1.329-157.01-2.945-234.02-1.671-48.902 0.809-87.187 2.816-136.36 0.564-1.261 0.482-2.137 1.365-2.624 2.634z"></path> <path fill="#FFFFFF" d="m383.03 77.163c3.249-3.203 1.179-11.682 4.337-14.974 8.223 1.71 13.353 13.998 8.892 22.837 6.075 5.964 17 4.252 18.532 13.999 1.009 6.414-2.262 19.815-9.593 20.274-1.342-2.475-2.148-5.49-1.8-9.67-13.128-1.927-19.779 9.377-23.673 19.453-2.933 0.012-5.864 0.024-8.797 0.036 11.832-7.541 14.462-24.207 34.211-23.895 3.359-0.442 2.768 3.1 4.417 4.38 5.356-9.014-3.122-16.434-8.869-17.558-13.097-2.561-26.542 9.009-36.025 10.707 1.603 7.512 6.22 11.984 9.749 17.555-1.727 5.851-14.855 9.1-18.464 2.715-2.574 0.756 0.538 2.831 0.019 4.398-9.955-1.98-14.381 6.168-22.862 2.734 0.026-3.77 5.271-2.367 8.787-2.676 6.468-2.346 7.684-9.901 14.908-11.498 4.093 1.441 3.104 10.803 9.705 6.998-6.284-2.26 0.365-14.435-7.982-15.803-6.786 1.261-11.844 8.552-20.212 5.362-0.265-6.104 3.229-8.479 5.228-12.338-1.986-44.984-72.65-13.63-101.21-9.258-3.148 0.482-8.599-0.521-12.316 0.051-4.074-2.371-5.375-7.537-7.089-12.287-2.202 0.736-2.77 3.094-4.38 4.417-2.771 23.603 19.023 27.177 43.216 26.214-11.945 10.593-33.349 0.354-44.012-5.976-3.077-7.999-5.789-20.097 0.771-26.396-3.709 1.578-6.928 3.642-11.418 4.446 7.962-9.934 26.897-8.054 28.94-22.113 2.221-15.285-13.771-29.31-29.145-27.151-1.347 0.189-3.739 3.1-7.917 0.033 6.848-4.504 17.328-10.936 27.217-13.309 7.055-1.693 13.77 1.157 20.237 0.796 9.042-0.504 15.749-5.938 27.261-2.752 2.933 0.812 5.744 5.01 9.702 6.118 8.921 2.496 18.477-2.304 27.266-1.873 19.362 0.951 35.868 16.856 51.118 22.662 4.699 1.789 12.555 14.82 14.16 20.175 1.28 4.387-1.27 13.348 7.06 13.177zm-115.37-30.314c0.247 11.006-7.504 21.201-10.451 25.556 3.467-6.575 12.492-7.571 18.409-15.912 7.339-10.346 10.451-28.229 1.617-34.316-4.991-3.439-20.171-5.411-25.512 0.105 6.71 6.426 15.65 12.271 15.93 24.567zm-18.57-22.797c-8.357-4.03-24.221-0.311-31.648 5.409 16.824 3.088 27.458 26.262 16.01 42.162-3.557 1.282-7.701 4.188-7.009 7.067 32.18 9.816 51.36-40.791 22.65-54.638zm120.72 46.128c2.289-14.975-11.133-21.754-22.979-25.418-10.203-14.94-36.273-22.639-60.774-17.343-0.188 9.462-0.239 21.165-6.046 27.297 10.853-5.288 28.811-13.808 44.805-15.141 5.718-0.476 15.619-1.163 19.372 4.319-23.93-3.352-40.24 6.106-54.5 11.661-21.395 8.332-32.887 28.841-59.708 27.519 1.817 8.398 14.217 3.891 21.125 2.552 15.417-2.991 35.517-11.382 52.729-13.415 27.543-3.253 54.817 11.271 39.736 35.905 10.709-1.768 14.758-13.408 27.229-10.669 8.523-4.519 29.177-13.305 18.369-25.589 0.307 7.898-2.158 13.046-11.389 11.483-3.69-3.354-5.7-8.387-7.97-13.165z"></path> <path d="m226.44 78.69c-0.692-2.879 3.452-5.785 7.009-7.067 11.449-15.9 0.814-39.073-16.01-42.162 7.427-5.72 23.292-9.439 31.648-5.409 28.71 13.847 9.53 64.454-22.65 54.638z"></path> <path d="m377.78 83.342c9.23 1.563 11.695-3.585 11.389-11.483 10.808 12.284-9.846 21.07-18.369 25.589-12.471-2.739-16.52 8.902-27.229 10.669 15.081-24.634-12.193-39.159-39.736-35.905-17.213 2.033-37.312 10.424-52.729 13.415-6.907 1.339-19.308 5.846-21.125-2.552 26.822 1.322 38.314-19.187 59.708-27.519 14.26-5.559 30.57-15.017 54.49-11.666-3.753-5.481-13.654-4.795-19.372-4.319-15.994 1.333-33.952 9.854-44.805 15.141 5.807-6.132 5.857-17.834 6.046-27.297 24.501-5.296 50.571 2.403 60.774 17.343 11.846 3.664 25.268 10.443 22.979 25.418 2.28 4.779 4.29 9.812 7.98 13.163z"></path> <path fill="#FFFFFF" d="m191.06 33.089c-5.877 5.443-12.121 5.892-16.661 13.266 5.329-2.258 11.043-7.126 21.972-5.369 10.827 1.74 18.074 12.08 16.813 23.684-1.199 11.035-13.036 18.035-16.605 26.461-6.852-8.677 6.309-12.522 9.593-20.274 8.646-20.407-15.548-32.526-30.878-20.986-1.949 0.493-1.259-1.675-2.646-1.749-3.369 1.331-1.798 7.562-7.009 7.067-0.31-12.076 13.04-22.635 25.43-22.1z"></path> <path fill="#FFFFFF" d="m193.23 130.73c-11.872-12.469-19.884-28.832-34.469-38.566-5.366 7.137-13.213 9.991-19.289 15.915-25.395 24.764-37.777 61.678-69.167 80.343 5.373-12.537 18.26-17.433 26.272-29.14 5.269-7.7 10.051-15.685 13.97-25.57 12.46-18.016 30.382-30.613 45.557-45.936 19.28 7.364 30.67 22.676 37.13 42.956z"></path> <path fill="#FFFFFF" d="m200.98 90.232c1.022-0.147 1.566 0.188 1.764 0.873-3.957 18.316 5.6 26.975 15.974 33.364 24.593 7.603 38.559-13.217 61.541-9.932-20.079 3.205-32.308 18.296-58.004 14.316 19.81 7.19 51.27 4.941 57.292 26.155-2.871 0.244-1.879-3.406-4.413-3.501-0.906 5.921 0.706 9.301 4.442 10.539-2.387 21.372-33.238 18.747-50.952 17.806 4.094 6.076 15.744-0.615 22.004 2.548-8.046-2.199-10.93 5.014-16.693 5.348-13.697 0.793-15.157-21.36-24.749-28.049-0.015-3.519-0.029-7.038-0.043-10.557 1.618-2.484 3.691-4.516 4.366-7.936 0.441-4.862-4.617-4.179-4.435-8.779 4.432-0.641 4.394 3.225 7.932 3.486 0.45-7.188-24.2-4.981-14.145-16.657-7.05-6.53-9.12-21.005-1.88-29.038z"></path> <path fill="#FFFFFF" d="m230.49 206.24c-4.535 3.747-6.96 9.968-6.089 16.741-19.838-9.575-42.286-20.79-69.583-19.946-2.885-2.097-3.664-6.317-7.07-7.889-4.843 6.427-12.606 2.71-19.339 3.6-12.128 1.601-17.25 12.408-21.903 22.084 1.202 6.476 8.24 11.303 14.109 7.859 0.622 23.954 30.127 20.908 48.465 19.154 9.116 12.009 20.301 21.933 35.306 28.005 1.234 4.939 2.526 9.82 4.457 14.058-9.746 5.521-14.572 15.921-23.662 22.092-0.794-2.733-2.957-4.086-3.548-7.023-10.207-7.082-17.244-17.359-25.621-26.287-33.423-21.363-54.45-55.228-80.405-84.122 1.28-3.695 3.883-6.079 7.888-7.07 8.168-8.717 15.95-16.418 22.764-26.487 6.653-9.83 11.441-21.575 18.347-30.867 6.233-8.386 15.61-12.754 20.143-22.077 5.273-0.56 9.729-7.534 15.828-1.825 2.153 2.015 3.834 6.191 6.198 9.652 19.69 28.87 37.89 66.31 63.7 90.37z"></path> <path fill="#FFFFFF" d="m284.66 115.4c3.671-0.758 4.162 1.693 7.045 1.73-0.82 3.31-7.52 1.64-7.04-1.73z"></path> <path fill="#FFFFFF" d="m436.08 141.16c-5.203 5.767-14.677-0.686-21.096 4.486-5.132-0.393-8.069-5.797-14.086-2.581-3.293-2.276-6.428-4.709-8.831-7.881 13.88-5.29 34.38-1.06 44.02 5.97z"></path> <path fill="#FFFFFF" d="m378.87 135.24c-0.601 3.2-3.929 3.696-4.369 7.056-11.22 6.687-18.17 17.608-25.396 28.257-9.884-3.964-1.537-21.375 2.526-27.283 7.11-4.12 14.66-12.26 27.24-8.04z"></path> <path fill="#FFFFFF" d="m386.79 135.21c3.151 2.353-5.173 6.643-8.764 7.954-0.36-5.89 6.06-5.08 8.76-7.95z"></path> <path fill="#FFFFFF" d="m347.21 138.01c-6.553 9.419-14.933 22.876-9.518 38.749-4.942 9.725-15.524-1.005-27.271 0.113-5.068 0.482-5.034 3.871-10.546 2.683 8.72-20.85 23.48-35.71 47.34-41.54z"></path> <path fill="#FFFFFF" d="m209.98 140.34c-0.572 5.273-3.971 7.744-4.344 13.214-8.09-2-3.99-14.81 4.34-13.21z"></path> <path fill="#FFFFFF" d="m384.25 158.97c-5.976-8.222 1.491-25.79 10.487-16.759 1.54 7.43-2.36 16.1-10.49 16.76z"></path> <path fill="#FFFFFF" d="m378.04 146.68c1.948 4.281 0.458 11.915-1.698 14.963-1.76 0.007-3.52 0.015-5.278 0.022-2.29-6.04-1.71-19.9 6.98-14.98z"></path> <path fill="#FFFFFF" d="m409.71 147.43c-1.68 6.803-0.958 15.988-8.728 16.751-3.15-4.93-0.74-24.14 8.73-16.75z"></path> <path fill="#FFFFFF" d="m442.65 241.43c24.219 0.373 41.697-5.549 43.873-27.453 2.36-23.763-17.456-43.546-42.398-41.173 10.342 2.123 22.462 4.077 29.09 13.955 7.529 11.223 8.624 32.026 1.054 42.225-1.443 1.945-8.54 7.31-11.403 7.964-3.578 0.818-9.004-1.682-13.203-1.704-17.403-0.097-45.551 9.217-53.704-9.456 3.829-2.018 6.438 3.843 9.7 5.238 14.123 3.841 34.488 2.006 48.389 0.68 3.899-4.865 11.046-7.915 11.378-14.123 0.291-5.453-5.206-8.285-9.735-14.035-4.779-6.068-7.952-13.369-13.265-16.661-4.598-2.848-12.676-2.353-12.35-7.866 15.402-2.164 23.491 10.386 36.128 13.926-0.674-14.723-20.108-13.09-34.383-17.453 1.352-13.013 24.325-5.046 32.514-8.932-2.622-3.54-6.512-5.802-10.59-7.874-1.975 0.378-0.005 4.668-1.737 5.286-5.303-0.002-9.051 1.537-14.951 0.941-0.705-3.911 1.148-5.284 0.842-8.801-10.453-11.613-12.342 9.539-20.186 11.521-5.3-1.917-3.659-12.16-1.829-16.708 22.33-9.416 45.71 6.364 62.52 13.817 16.127 12.383 29.453 52.178 14.381 73.839-9.58 13.75-38.97 18.77-50.14 2.84z"></path> <path fill="#FFFFFF" d="m363.12 155.54c0.88-0.004 1.76-0.007 2.64-0.011 1.861 6.93-3.859 12.812-7.849 16.747 0.14-7.16 2.62-12.01 5.21-16.74z"></path> <path fill="#FFFFFF" d="m286.61 162.02c4.972 1.17 7.789 4.513 12.342 6.107-1.55 13.065-13.752 15.564-22.785 21.208-4.104-2.931-13.155-0.87-15.857-5.213 14.02-2.18 23.03-9.3 26.31-22.11z"></path> <path fill="#FFFFFF" d="m365.81 166.97c3.479 1.099 1.854 8.43-2.61 7.049-1.74-2.16 1.62-4.88 2.61-7.05z"></path> <path fill="#FFFFFF" d="m30.685 181.55c13.81-0.674 21.148 5.178 31.703 7.786 20.559 24.323 41.989 47.769 61.007 73.646 12.469 10.985 28.158 18.724 37.086 33.277-12.34 0.903-17.639 8.789-23.687 15.934-33.22-45.73-63.999-93.9-106.12-130.65z"></path> <path fill="#FFFFFF" d="m281.66 240.34c-9.072-3.802-16.117-9.23-28.185-7.802 3.051-25.01 19.594-36.64 35.868-48.534 1.42-0.254 1.519 0.825 2.644 0.869-2.619 5.872-2.856 14.105-6.962 18.503-2.32 13.03 1.67 27.62-3.37 36.96z"></path> <path fill="#FFFFFF" d="m348.29 186.4c-11.26 33.808-21.154 68.968-31.241 103.94 1.29-34.421 10.837-68.05 17.18-100.36 3.97-2.44 8.27-7.96 14.06-3.58z"></path> <path fill="#FFFFFF" d="m327.2 190.88c-8.736 38.309-18.346 82.788-17.06 129.39 0.521 18.902-1.424 39.778 5.504 54.521-20.713 0.365-46.959 0.003-70.378 0.291 2.413-20.678 7.193-39.009 15.613-53.729 4.256-0.451 5.652-3.738 10.542-3.562 2.019 19.488-6.584 35.39-4.17 55.44 9.082-2.465 6.738-15.979 7.812-25.544 1.105-9.851 2.373-20.509 5.165-27.294 4.308 7.672 6.716 18.256 9.793 28.111 2.817 9.021 3.326 21.352 12.418 24.581-1.68-24.182-14.803-45.342-17.006-70.31-1.53-17.354-8.71-34.163-3.744-54.528 0.877-3.683 5.801-2.521 7.896-5.312 7.753-10.323-1.919-35.281 5.083-47.526 6.59-11.51 19.31-9.65 32.54-4.53z"></path> <path fill="#FFFFFF" d="m29.845 191.23c1.022-0.147 1.566 0.188 1.764 0.873 39.819 33.761 65.129 82.15 98.159 122.76 1.722 6.509 3.996 12.462 9.739 14.916 4.255-15.851 20.169-39.017 35.109-19.5 1.55 2.024 1.974 4.778 3.548 7.023 1.975 2.815 8.21 5.18 5.315 8.774-10.411-2.969-8.547-17.698-18.554-19.276-15.712-2.479-19.263 20.57-26.261 31.778-16.589-24.997-38.533-46.495-54.842-71.912-16.318-25.429-36.034-47.931-53.085-72.798-1.039-0.13-0.756-1.59-0.898-2.63z"></path> <path fill="#FFFFFF" d="m268.27 194.64c-7.505 13.875-21.023 21.788-21.819 42.318-10.187-2.921-16.444-13.718-14.185-26.333 10.01-7.31 21.48-13.16 36.01-15.99z"></path> <path fill="#FFFFFF" d="m359.77 196.9c-7.875 64.201 1.326 130.7 21.849 177.62-18.8 0.081-45.369 0.681-62.46 0.259 1.433-13.359-2.461-26.4-1.062-43.982 2.966-37.297 15.26-82.54 27.679-114.48 3.156-8.12 3.868-15.785 8.709-21.15 2.76-0.44 3.44 1.23 5.28 1.73z"></path> <path fill="#FFFFFF" d="m146 198.67c0.88-0.004 1.759-0.007 2.639-0.011 1.018 1.036 1.009 3.105 0.902 5.274-2.489-0.716-2.274 1.25-4.396 0.898-1.98-1.96 0.05-4.41 0.86-6.16z"></path> <path fill="#FFFFFF" d="m139.88 206.61c-7.712-4.23-15.23 1.614-20.226 1.844 1.19-7.19 17.94-10.53 20.23-1.84z"></path> <path d="m419.62 203.7c5.679 6.97-17.981 14.345-20.22 3.603 5.76 5.76 17.22 3.02 20.22-3.6z"></path> <path fill="#FFFFFF" d="m214.73 225.66c-6.476 11.685-8.03 28.25-11.258 43.154-15.291-8.227-39.056-21.41-28.337-44.749-5.115 3.637-8.496 9.8-6.965 17.624-2.968 2.241-10.623 6.179-12.316 0.051-6.662 3.646-27.367 4.394-28.177-6.042 4.072 1.896 10.027-1.976 14.952-0.941 0.676-1.958 1.834-3.438 1.734-6.166-3.765-2.977-12.355-1.088-12.349-7.866-7.309-0.127-13.967 1.483-19.347 1.839-1.752-1.724-0.581-5.022-0.029-7.038 6.546-3.407 19.405-9.645 27.257-3.631 9.763-4.319 28.848-7.157 37.828-0.156 16.42 0.56 27.61 6.36 37.03 13.94z"></path> <path fill="#FFFFFF" d="m166.71 313.83c-2.236 6.42-10.318 9.625-14.006 16.774-5.252 10.182-8.948 22.455-10.407 36.112-21.302-6.791-32.536-23.731-44.154-40.286-28.649-31.772-49.331-71.578-74.341-107.02 9.56-12.454 23.962 7.131 30.856 15.708 11.354 14.126 21.723 35.094 35.411 53.519 9.625 12.954 19.232 24.185 28.308 37.711 3.045 4.538 7.591 8.637 9.728 12.276 2.15 3.662 1.56 12.334 7.969 12.283 14.77-0.11 10.33-43.06 30.64-37.07z"></path> <path fill="#FFFFFF" d="m131.17 229.52c-0.638 2.871-4.38 2.664-7.023 3.548-0.393-0.781-0.779-1.57-1.767-1.753 0.22-3.17 6.5-3.44 8.79-1.8z"></path> <path fill="#FFFFFF" d="m132.93 228.63c1.577-0.119 1.86 1.068 3.522 0.865-0.797 1.545-1.623 3.062-4.387 2.656-0.38-1.84 0.6-2.34 0.87-3.53z"></path> <path fill="#FFFFFF" d="m225.31 229.13c9.125 13.18 7.63 37.065 19.551 47.426 7.797 6.861 20.146 9.134 29.969 13.951-0.259 6.46-1.734 11.714-1.683 18.481-48.278 32.758-50.133-37.467-47.819-75.46-4.885 0.233-4.772 5.78-5.242 8.819-2.521 16.31 2.972 35.59 1.083 49.262-15.683-10.786-9.03-45.283-2.894-61.57 3.31 0.66 4.19-1.09 7.03-0.91z"></path> <path fill="#FFFFFF" d="m137.93 374.65c-24.636 0.593-41.621-0.876-59.822 0.247-6.727-16.825-18.733-32.326-28.355-49.147-9.67-16.908-18.779-33.673-27.479-50.032-4.913-9.237-12.671-19.121-8.06-34.276 1.745-0.455 2.033 4.845 3.526 1.744 0.841-5.562 8.924-1.001 12.312-0.93 21.412 34.836 43.214 70.362 69.038 100.88 10.62 12.56 23.95 23.59 38.84 31.52zm-121.92-126.18c25.384 42.722 47.566 88.67 80.568 123.71-3.573-10.037-10.704-18.731-16.827-27.203-22.656-31.341-41.145-69.347-62.876-100.03 0.204 1.66-0.983 1.95-0.865 3.52zm76.995 110.53c-0.881-5.791 5.918-6.299 8.783-3.556 2.018-4.057 0.532-9.162-3.559-9.662-1.121 4.854-6.391 1.479-8.797 0.036-4.05 3.49-2.01 12.04 3.577 13.18z"></path> <path fill="#FFFFFF" d="m272 244.77c-1.024 3.656-3.197 6.175-4.359 9.694-7.079-1.99-13.45-4.694-14.13-13.137 5.56-3.89 14.62 0.17 18.49 3.45z"></path> <path fill="#FFFFFF" d="m236.79 241.4c12.174 0.975 10.271 16.145 22.942 16.62 1.603 2.137-1.218 5.225 1.789 7.03 8.333-0.205 8.207-8.8 14.029-11.495-1.536 10.526-0.938 18.839-2.523 28.163-21.32-3.55-33.92-20.56-36.24-40.32z"></path> <path d="m16.872 244.95c21.731 30.685 40.22 68.69 62.876 100.03 6.124 8.472 13.254 17.166 16.827 27.203-33.002-35.041-55.185-80.989-80.568-123.71-0.119-1.57 1.068-1.86 0.865-3.52z"></path> <path fill="#FFFFFF" d="m217.67 297.78c-11.882 10.703-23.382 21.786-30.637 37.076-2.779 0.152-5.31 0.054-6.166-1.733-0.285-6.707 9.185-3.74 6.986-12.346 12.39-3.92 15.63-29.47 29.82-23z"></path> <path fill="#FFFFFF" d="m226.51 306.54c-6.217 5.657-13.479 9.127-19.292 15.035-3.725 3.786-5.65 9.759-11.389 11.483 3.206-12.913 15.203-24.616 29.79-29.154-0.25 1.42 0.83 1.51 0.89 2.63z"></path> <path fill="#FFFFFF" d="m231.82 316.2c-8.063 9.817-19.324 16.464-26.279 27.38-3.387 0.508-8.017 3.229-11.433 0.928 12.111-9.308 19.686-23.114 34.186-30.054 2.4-0.66 1.78 1.74 3.52 1.74z"></path> <path fill="#FFFFFF" d="m245.05 323.18c-11.443 14.058-26.112 24.917-40.318 36.236 4.009 6.901-3.125 7.82-3.457 14.969-5.018 0.456-8.074 0.86-14.952 0.942-4.265-7.523 5.723-6.698 7.874-10.59 0.776-4.61-4.328-3.292-3.552-7.903 4.821-1.963 9.351-2.375 13.178-4.453 15.32-8.32 20.28-30.25 41.23-29.21z"></path> <path fill="#FFFFFF" d="m171.15 323.49c5.979 8.104 10.522 17.659 15.068 27.209-10.57-3.47-13.16-15-15.07-27.21z"></path> <path fill="#FFFFFF" d="m14.575 327.66c12.694 10.97 22.97 31.056 25.705 46.52-1.412 1.32-4.414-0.739-7.917 0.033-5.74-10.703-10.511-22.383-18.602-30.713 0.431-5.13-1.04-12.13 0.814-15.84z"></path> <path fill="#FFFFFF" d="m165.89 327.91c0.197 17.334 7.777 30.394 22.121 30.7 0.136 7.436-6.893 7.766-11.393 10.604-5.382-4.635-2.416-12.057-9.732-13.156-6.592-0.99-14.137 7.196-18.427 11.513 0.384 1.675 1.904 2.203 1.777 4.393 7.37-5.574 18.961-0.743 22.88 1.664-4.32 3.942-19.923-1.282-25.505 1.865-6.231-6.039 0.725-12.646 4.3-23.771 1.645-5.117-0.357-10.066 5.235-10.578-1.59-5.33 1.75-16.45 8.73-13.22z"></path> <path fill="#FFFFFF" d="m194.08 335.71c0.414 2.746-1.868 2.82-4.387 2.656-0.004-0.88-0.007-1.759-0.011-2.639 1.15-1.14 3.24-1.15 4.4-0.02z"></path> <path d="m89.428 345.82c2.406 1.443 7.676 4.817 8.797-0.036 4.091 0.5 5.577 5.605 3.559 9.662-2.865-2.743-9.664-2.235-8.783 3.556-5.583-1.14-7.623-9.69-3.569-13.18z"></path> <path fill="#FFFFFF" d="m14.684 354.05c5.075 5.482 8.195 12.938 12.396 19.303-2.734 1.961-9.453-0.031-12.309 1.811-1.206-8.45-2.577-14.3-0.087-21.11z"></path> <path d="m251.72 22.282c5.341-5.517 20.521-3.544 25.512-0.105 8.834 6.088 5.722 23.97-1.617 34.316-5.917 8.341-14.942 9.337-18.409 15.912 2.947-4.354 10.698-14.549 10.451-25.556-0.27-12.296-9.21-18.141-15.93-24.567z"></path> <path fill="#FFFFFF" d="m455.73 213.22c0.141-1.908-3.121-0.386-4.401-0.861-0.32-2.621-0.53-5.354-2.664-6.147 5.559 21.697-24.077 29.062-40.393 18.642 3.562-3.478 8.962-5.131 11.397-9.724-6.005 3.974-13.289 6.68-23.729 6.256-5.518-5.019-14.812-4.856-19.396-10.476-3.756-4.604-4.029-10.436-8.856-14.04-5.724-4.274-14.291-7.062-18.536-14.879-3.787 1.119-6.78-3.107-7.924-1.727-1.831-3.598 3.238-7.865 7.884-7.951 8.719 6.606 21.978 8.306 36.116 11.287-2.514-7.66-11.896 0.988-14.98-6.096 0.866-4.398 2.603-7.932 3.468-12.331 8.116-0.821 12.943 1.672 18.489 3.443 2.175-1.684-4.006-2.381-2.664-6.147 1.901-1.327 2.03-4.411 5.26-4.421 0.009 2.053 0.018 4.105 0.025 6.158 5.186 9.171 17.278 1.469 16.693-5.347-0.025 3.154 0.539 8.924 2.689 12.305 12.753 1.259 10.015-12.847 19.292-15.035-0.318 16.624-16.131 33.478-8.578 52.821 7.724-4.192 0.45-14.127 5.188-22.016 6.772 2.13 9.481 7.927 14.133 14.018 10.208 1.728 17.963 16.852 9.787 26.352-4.217-0.563-9.669 0.944-11.437 0.048 6.8-1.81 14.89-6.7 13.13-14.12zm-63.44-23.49c3.159 1.821 3.691 6.291 7.071 7.889 0.672-5.095-3.355-5.451-2.684-10.546 1.384-5.066 9.513-8.071 9.631-11.477-7.15 2.26-11.61 7.19-14.02 14.14zm40.62 35.9c13.058-0.302 14.502-26.983 4.282-28.169 8.21 7.04 2.98 22.21-4.28 28.17zm-33.51-18.33c2.238 10.742 25.898 3.367 20.22-3.603-3 6.62-14.46 9.36-20.22 3.6z"></path> <path d="m14.144 10.948c49.172 2.252 87.457 0.245 136.36-0.564 77.013-1.274 161.44 0.342 234.02 1.671 47.689-2.774 88.423-1.745 135.48-0.561 3.568 109.31 0.843 214.4 2.24 329.02 0.075 6.079 1.037 14.57 0.968 21.11-0.062 5.771 1.439 17.03-9.611 15.875-0.471-3.442 2.608-4.323 3.485-7.932 6.078-24.989-6.387-55.178-15.25-71.196-7.943-14.359-20.84-35.806-34.483-42.086-1.307 7.949 4.706 15.267 8.012 22.841 10.767 24.667 20.604 59.563 19.743 94.051 3.063 3.39 11.727 1.132 15.85 3.454-26.412 4.306-63.573 2.663-95 3.031-27.153 0.318-54.041 1.32-80.055 0.331-83.223-3.162-160.41-0.044-231.38-0.802-10.946-0.117-22.374-1.095-33.433-0.741-9.783 0.312-20.438 3.816-29.915-0.756-6.222 3.255-21.399 2.03-29.028 1-3.835-38.963-1.044-72.384-1.334-109.96-0.032-4.183 1.671-7.549 1.712-11.443 0.03-2.754-1.668-4.865-1.799-9.669-0.702-25.642 1.387-49.264-0.306-73.898-0.621-9.039 1.744-18.129 1.654-25.519-0.046-3.836-2.496-7.58-2.687-11.425-0.136-2.747 1.57-5.18 1.727-7.925 0.276-4.832-0.99-10.412-0.945-15.832 0.249-30.148 0.012-66.224 1.348-99.417 0.489-1.264 1.365-2.147 2.63-2.645zm428.46 216.4c1.768 0.896 7.22-0.611 11.437-0.048 8.176-9.5 0.421-24.624-9.787-26.352-4.651-6.09-7.36-11.888-14.133-14.018-4.737 7.889 2.536 17.823-5.188 22.016-7.553-19.343 8.26-36.197 8.578-52.821-9.277 2.188-6.539 16.294-19.292 15.035-2.15-3.381-2.715-9.151-2.689-12.305 0.585 6.816-11.508 14.518-16.693 5.347-0.008-2.053-0.017-4.105-0.025-6.158-3.229 0.01-3.358 3.094-5.26 4.421-1.342 3.767 4.839 4.464 2.664 6.147-5.546-1.771-10.373-4.264-18.489-3.443-0.865 4.398-2.602 7.932-3.468 12.331 3.085 7.084 12.467-1.563 14.98 6.096-14.139-2.981-27.397-4.681-36.116-11.287-4.646 0.085-9.715 4.353-7.884 7.951 1.144-1.38 4.137 2.845 7.924 1.727 4.245 7.817 12.812 10.604 18.536 14.879 4.827 3.604 5.101 9.436 8.856 14.04 4.585 5.619 13.879 5.457 19.396 10.476 10.439 0.424 17.724-2.282 23.729-6.256-2.436 4.593-7.836 6.246-11.397 9.724 16.315 10.421 45.951 3.056 40.393-18.642 2.134 0.793 2.344 3.526 2.664 6.147 1.28 0.476 4.542-1.047 4.401 0.861 1.75 7.41-6.34 12.3-13.14 14.12zm-66.66-163.35c-1.605-5.355-9.461-18.387-14.16-20.175-15.25-5.806-31.756-21.711-51.118-22.662-8.789-0.431-18.345 4.369-27.266 1.873-3.958-1.108-6.77-5.307-9.702-6.118-11.512-3.186-18.218 2.248-27.261 2.752-6.468 0.361-13.182-2.489-20.237-0.796-9.889 2.373-20.369 8.804-27.217 13.309 4.178 3.067 6.57 0.157 7.917-0.033 15.374-2.159 31.365 11.866 29.145 27.151-2.043 14.06-20.979 12.179-28.94 22.113 4.49-0.804 7.709-2.868 11.418-4.446-6.56 6.299-3.848 18.397-0.771 26.396 10.663 6.331 32.066 16.569 44.012 5.976-24.193 0.963-45.987-2.611-43.216-26.214 1.61-1.323 2.178-3.681 4.38-4.417 1.714 4.75 3.015 9.917 7.089 12.287 3.717-0.572 9.168 0.431 12.316-0.051 28.559-4.372 99.223-35.726 101.21 9.258-1.999 3.859-5.492 6.234-5.228 12.338 8.368 3.19 13.426-4.101 20.212-5.362 8.348 1.368 1.698 13.543 7.982 15.803-6.601 3.805-5.612-5.557-9.705-6.998-7.225 1.597-8.44 9.152-14.908 11.498-3.517 0.309-8.761-1.094-8.787 2.676 8.481 3.435 12.907-4.714 22.862-2.734 0.52-1.568-2.593-3.643-0.019-4.398 3.608 6.384 16.737 3.135 18.464-2.715-3.529-5.571-8.146-10.043-9.749-17.555 9.483-1.698 22.929-13.267 36.025-10.707 5.747 1.125 14.226 8.544 8.869 17.558-1.649-1.28-1.058-4.822-4.417-4.38-19.749-0.312-22.379 16.354-34.211 23.895 2.933-0.012 5.864-0.024 8.797-0.036 3.894-10.075 10.545-21.379 23.673-19.453-0.349 4.18 0.458 7.195 1.8 9.67 7.331-0.458 10.602-13.86 9.593-20.274-1.532-9.747-12.457-8.035-18.532-13.999 4.461-8.839-0.669-21.127-8.892-22.837-3.158 3.292-1.088 11.771-4.337 14.974-8.32 0.17-5.77-8.791-7.08-13.168zm-210.3-8.808c5.211 0.495 3.64-5.736 7.009-7.067 1.387 0.074 0.698 2.241 2.646 1.749 15.33-11.54 39.524 0.58 30.878 20.986-3.285 7.752-16.445 11.597-9.593 20.274 3.569-8.426 15.406-15.426 16.605-26.461 1.261-11.604-5.986-21.943-16.813-23.684-10.928-1.757-16.643 3.111-21.972 5.369 4.54-7.374 10.783-7.823 16.661-13.266-12.41-0.534-25.76 10.025-25.44 22.1zm-9.54 32.591c-15.175 15.322-33.097 27.92-45.557 45.936-3.919 9.885-8.701 17.87-13.97 25.57-8.012 11.708-20.899 16.603-26.272 29.14 31.39-18.665 43.773-55.579 69.167-80.343 6.075-5.924 13.922-8.778 19.289-15.915 14.585 9.734 22.597 26.097 34.469 38.566-6.45-20.29-17.84-35.602-37.12-42.961zm46.76 31.481c-10.055 11.675 14.595 9.468 14.145 16.657-3.539-0.261-3.5-4.126-7.932-3.486-0.182 4.6 4.876 3.917 4.435 8.779-0.674 3.42-2.748 5.452-4.366 7.936 0.015 3.519 0.029 7.038 0.043 10.557 9.592 6.689 11.052 28.843 24.749 28.049 5.763-0.333 8.647-7.547 16.693-5.348-6.26-3.163-17.91 3.528-22.004-2.548 17.713 0.941 48.565 3.566 50.952-17.806-3.736-1.238-5.349-4.618-4.442-10.539 2.534 0.095 1.542 3.745 4.413 3.501-6.021-21.214-37.481-18.965-57.292-26.155 25.696 3.98 37.925-11.111 58.004-14.316-22.982-3.286-36.948 17.535-61.541 9.932-10.374-6.389-19.931-15.047-15.974-33.364-0.197-0.685-0.741-1.02-1.764-0.873-7.23 8.032-5.16 22.507 1.89 29.027zm-36.09-3.37c-2.364-3.46-4.045-7.637-6.198-9.652-6.098-5.709-10.555 1.265-15.828 1.825-4.533 9.323-13.91 13.691-20.143 22.077-6.906 9.292-11.694 21.037-18.347 30.867-6.813 10.069-14.596 17.771-22.764 26.487-4.005 0.991-6.608 3.375-7.888 7.07 25.955 28.895 46.982 62.759 80.405 84.122 8.377 8.928 15.415 19.205 25.621 26.287 0.592 2.938 2.754 4.29 3.548 7.023 9.09-6.171 13.916-16.571 23.662-22.092-1.93-4.237-3.223-9.118-4.457-14.058-15.004-6.072-26.19-15.996-35.306-28.005-18.338 1.754-47.844 4.8-48.465-19.154-5.869 3.443-12.907-1.384-14.109-7.859 4.652-9.676 9.775-20.483 21.903-22.084 6.733-0.89 14.497 2.827 19.339-3.6 3.406 1.571 4.185 5.792 7.07 7.889 27.297-0.844 49.745 10.371 69.583 19.946-0.871-6.773 1.554-12.994 6.089-16.741-25.79-24.07-43.99-61.51-63.7-90.36zm124.93 1.24c-2.883-0.037-3.374-2.488-7.045-1.73-0.48 3.37 6.22 5.04 7.04 1.73zm100.37 18.06c2.403 3.172 5.538 5.605 8.831 7.881 6.017-3.217 8.954 2.188 14.086 2.581 6.419-5.171 15.893 1.281 21.096-4.486-9.65-7.03-30.15-11.26-44.02-5.97zm-40.44 8.08c-4.063 5.908-12.41 23.319-2.526 27.283 7.226-10.649 14.176-21.571 25.396-28.257 0.44-3.36 3.769-3.855 4.369-7.056-12.58-4.21-20.13 3.93-27.24 8.04zm26.4-0.11c3.591-1.311 11.915-5.601 8.764-7.954-2.7 2.87-9.12 2.06-8.76 7.95zm-78.15 36.4c5.512 1.188 5.478-2.2 10.546-2.683 11.747-1.118 22.329 9.612 27.271-0.113-5.415-15.873 2.965-29.33 9.518-38.749-23.87 5.82-38.63 20.68-47.34 41.54zm-94.24-26c0.374-5.471 3.772-7.941 4.344-13.214-8.33-1.61-12.43 11.2-4.34 13.21zm189.1-11.34c-8.996-9.031-16.463 8.537-10.487 16.759 8.13-0.67 12.03-9.34 10.49-16.76zm-23.68 19.45c1.759-0.007 3.519-0.015 5.278-0.022 2.156-3.048 3.646-10.682 1.698-14.963-8.69-4.93-9.27 8.93-6.98 14.98zm29.93 2.51c7.77-0.764 7.048-9.949 8.728-16.751-9.48-7.39-11.89 11.82-8.73 16.75zm91.8 74.4c15.072-21.661 1.746-61.456-14.381-73.839-16.81-7.453-40.189-23.233-62.52-13.817-1.83 4.548-3.471 14.791 1.829 16.708 7.844-1.981 9.732-23.133 20.186-11.521 0.307 3.517-1.547 4.89-0.842 8.801 5.9 0.596 9.648-0.944 14.951-0.941 1.732-0.618-0.237-4.908 1.737-5.286 4.078 2.072 7.968 4.333 10.59 7.874-8.188 3.886-31.162-4.081-32.514 8.932 14.274 4.363 33.709 2.73 34.383 17.453-12.637-3.54-20.726-16.09-36.128-13.926-0.326 5.514 7.752 5.019 12.35 7.866 5.312 3.292 8.485 10.592 13.265 16.661 4.529 5.75 10.026 8.582 9.735 14.035-0.332 6.208-7.479 9.258-11.378 14.123-13.9 1.326-34.266 3.161-48.389-0.68-3.262-1.396-5.871-7.256-9.7-5.238 8.153 18.673 36.301 9.359 53.704 9.456 4.199 0.022 9.625 2.522 13.203 1.704 2.863-0.654 9.96-6.019 11.403-7.964 7.57-10.198 6.476-31.002-1.054-42.225-6.628-9.878-18.748-11.832-29.09-13.955 24.942-2.373 44.759 17.41 42.398 41.173-2.176 21.904-19.654 27.826-43.873 27.453 11.16 15.96 40.55 10.94 50.13-2.82zm-134.88-66.3c3.989-3.935 9.71-9.817 7.849-16.747-0.88 0.003-1.76 0.007-2.64 0.011-2.59 4.73-5.07 9.58-5.21 16.74zm-97.6 11.84c2.702 4.343 11.754 2.282 15.857 5.213 9.033-5.644 21.235-8.143 22.785-21.208-4.553-1.594-7.37-4.937-12.342-6.107-3.29 12.82-12.3 19.94-26.31 22.11zm102.89-10.1c4.464 1.381 6.09-5.95 2.61-7.049-0.99 2.17-4.35 4.89-2.61 7.05zm-226.4 138.17c6.048-7.145 11.347-15.03 23.687-15.934-8.929-14.554-24.618-22.292-37.086-33.277-19.019-25.877-40.448-49.323-61.007-73.646-10.555-2.608-17.893-8.46-31.703-7.786 42.111 36.76 72.89 84.93 106.11 130.65zm148.22-108.82c4.105-4.398 4.343-12.632 6.962-18.503-1.125-0.043-1.224-1.123-2.644-0.869-16.274 11.895-32.817 23.524-35.868 48.534 12.067-1.429 19.112 4 28.185 7.802 5.04-9.33 1.05-23.92 3.36-36.96zm49.21-13.4c-6.343 32.312-15.89 65.941-17.18 100.36 10.087-34.971 19.981-70.131 31.241-103.94-5.79-4.37-10.09 1.15-14.06 3.58zm-39.56 5.45c-7.002 12.245 2.67 37.203-5.083 47.526-2.095 2.791-7.019 1.629-7.896 5.312-4.966 20.365 2.214 37.175 3.744 54.528 2.203 24.968 15.326 46.128 17.006 70.31-9.092-3.229-9.601-15.561-12.418-24.581-3.077-9.855-5.485-20.439-9.793-28.111-2.792 6.785-4.06 17.443-5.165 27.294-1.074 9.564 1.27 23.079-7.812 25.544-2.414-20.051 6.188-35.952 4.17-55.44-4.891-0.177-6.287 3.11-10.542 3.562-8.42 14.721-13.201 33.052-15.613 53.729 23.419-0.288 49.666 0.074 70.378-0.291-6.928-14.743-4.982-35.619-5.504-54.521-1.286-46.605 8.323-91.084 17.06-129.39-13.24-5.13-25.96-6.99-32.54 4.53zm-263.93-1.55c17.052 24.868 36.768 47.37 53.085 72.798 16.31 25.417 38.253 46.915 54.842 71.912 6.998-11.208 10.548-34.258 26.261-31.778 10.007 1.578 8.143 16.308 18.554 19.276 2.895-3.595-3.34-5.959-5.315-8.774-1.574-2.245-1.998-4.999-3.548-7.023-14.94-19.517-30.854 3.649-35.109 19.5-5.744-2.454-8.017-8.407-9.739-14.916-33.03-40.608-58.34-88.997-98.159-122.76-0.197-0.685-0.741-1.02-1.764-0.873 0.15 1.03-0.133 2.49 0.899 2.63zm201.53 16.76c-2.259 12.615 3.998 23.412 14.185 26.333 0.795-20.53 14.313-28.442 21.819-42.318-14.54 2.83-26.01 8.68-36.01 15.99zm122.22-15.46c-4.841 5.365-5.553 13.03-8.709 21.15-12.419 31.941-24.713 77.185-27.679 114.48-1.398 17.582 2.495 30.623 1.062 43.982 17.091 0.422 43.66-0.178 62.46-0.259-20.522-46.919-29.724-113.42-21.849-177.62-1.84-0.5-2.52-2.17-5.28-1.73zm-209.34 9.66c2.121 0.352 1.906-1.614 4.396-0.898 0.107-2.169 0.116-4.238-0.902-5.274-0.88 0.004-1.759 0.007-2.639 0.011-0.82 1.75-2.85 4.2-0.86 6.16zm-25.5 3.63c4.996-0.229 12.514-6.074 20.226-1.844-2.29-8.7-19.04-5.36-20.23 1.84zm255.65 127.38c1.885 6.786 5.878 13.747 8.002 20.2 2.387 7.253 3.615 15.455 10.633 18.431 28.352 0.334 59.604-0.665 87.977 0.517 10.307-22.205-0.01-49.382-6.445-69.474-1.322-4.128-1.511-9.353-2.69-12.305-1.374-3.438-5.36-6.847-7.081-10.528-5.338-11.419-8.122-21.92-15.076-28.97-9.489 0.722-8.673-9.414-18.524-12.24-14.471-4.148-32.362 2.123-40.505-8.629-2.723-3.597-1.183-8.614-5.329-12.295-11.873-1.573-14.651-12.317-21.193-19.267-4.4 45.49-0.28 96.63 10.24 134.55zm-197.57-124.11c-8.98-7.001-28.065-4.163-37.828 0.156-7.852-6.014-20.711 0.224-27.257 3.631-0.552 2.016-1.723 5.314 0.029 7.038 5.38-0.355 12.038-1.966 19.347-1.839-0.006 6.778 8.584 4.89 12.349 7.866 0.1 2.728-1.059 4.208-1.734 6.166-4.924-1.034-10.88 2.837-14.952 0.941 0.81 10.436 21.515 9.688 28.177 6.042 1.694 6.128 9.348 2.19 12.316-0.051-1.531-7.824 1.85-13.987 6.965-17.624-10.719 23.339 13.046 36.522 28.337 44.749 3.228-14.904 4.782-31.47 11.258-43.154-9.45-7.59-20.64-13.39-37.03-13.94zm-41.65 139.17c-6.409 0.051-5.818-8.621-7.969-12.283-2.137-3.64-6.683-7.738-9.728-12.276-9.076-13.526-18.684-24.757-28.308-37.711-13.688-18.425-24.057-39.393-35.411-53.519-6.894-8.577-21.296-28.162-30.856-15.708 25.01 35.443 45.692 75.249 74.341 107.02 11.618 16.555 22.853 33.495 44.154 40.286 1.459-13.657 5.155-25.931 10.407-36.112 3.688-7.149 11.771-10.354 14.006-16.774-20.32-5.99-15.88 36.96-30.64 37.07zm-13.7-119.58c0.988 0.183 1.374 0.972 1.767 1.753 2.643-0.884 6.385-0.677 7.023-3.548-2.29-1.64-8.57-1.37-8.79 1.8zm9.68 0.84c2.765 0.406 3.59-1.111 4.387-2.656-1.662 0.203-1.945-0.984-3.522-0.865-0.27 1.18-1.25 1.68-0.87 3.52zm86.21-2.12c-6.136 16.287-12.789 50.784 2.894 61.57 1.889-13.672-3.604-32.952-1.083-49.262 0.47-3.039 0.357-8.586 5.242-8.819-2.314 37.993-0.459 108.22 47.819 75.46-0.052-6.768 1.424-12.021 1.683-18.481-9.823-4.817-22.172-7.09-29.969-13.951-11.92-10.36-10.426-34.246-19.551-47.426-2.83-0.18-3.71 1.57-7.03 0.91zm-119.18 113.1c-25.823-30.522-47.625-66.049-69.038-100.88-3.388-0.071-11.471-4.633-12.312 0.93-1.493 3.101-1.781-2.199-3.526-1.744-4.612 15.155 3.146 25.039 8.06 34.276 8.7 16.359 17.809 33.124 27.479 50.032 9.622 16.821 21.628 32.322 28.355 49.147 18.201-1.123 35.186 0.346 59.822-0.247-14.89-7.94-28.22-18.97-38.836-31.52zm154.42-101.81c0.68 8.442 7.051 11.146 14.13 13.137 1.162-3.52 3.334-6.038 4.359-9.694-3.87-3.29-12.93-7.35-18.49-3.45zm19.52 40.39c1.585-9.324 0.987-17.637 2.523-28.163-5.822 2.695-5.695 11.29-14.029 11.495-3.007-1.806-0.186-4.894-1.789-7.03-12.671-0.476-10.768-15.646-22.942-16.62 2.32 19.75 14.92 36.76 36.24 40.31zm-259.4 30.1c1.642 14.458 11.116 21.21 17.726 31.598 3.283 5.159 5.303 11.213 7.986 16.682 2.444 4.981 4.349 13.561 11.495 14.028-0.683-8.22-7.792-17.411-14.17-22.814-3.409-15.727-16.632-26.191-18.642-40.392 13.102 20.653 26.124 41.388 38.091 63.184 6.666-0.83 14.026 2.979 18.47-0.955-21.987-31.719-41.217-66.216-60.24-100.92-0.651 9.097-1.006 21.876-0.738 34.313 1.06 1.875 4.154 1.7 4.417 4.38-2.069 1.14-1.637-0.11-4.395 0.89zm174.23 8.96c2.198 8.605-7.271 5.639-6.986 12.346 0.856 1.787 3.386 1.886 6.166 1.733 7.255-15.29 18.755-26.373 30.637-37.076-14.2-6.47-17.44 19.08-29.82 23zm37.76-16.87c-14.587 4.538-26.584 16.241-29.79 29.154 5.739-1.725 7.664-7.697 11.389-11.483 5.813-5.908 13.075-9.378 19.292-15.035-0.06-1.12-1.14-1.21-0.89-2.63zm2.68 10.54c-14.5 6.939-22.075 20.746-34.186 30.054 3.416 2.301 8.045-0.42 11.433-0.928 6.956-10.916 18.216-17.562 26.279-27.38-1.74 0.01-1.12-2.39-3.52-1.74zm-24.48 37.93c-3.828 2.078-8.357 2.49-13.178 4.453-0.776 4.611 4.328 3.293 3.552 7.903-2.151 3.892-12.138 3.066-7.874 10.59 6.877-0.082 9.934-0.486 14.952-0.942 0.332-7.148 7.466-8.067 3.457-14.969 14.207-11.319 28.875-22.179 40.318-36.236-20.95-1.03-25.91 20.9-41.23 29.21zm-17.6-1.68c-4.546-9.55-9.089-19.104-15.068-27.209 1.91 12.21 4.5 23.74 15.07 27.21zm-172.46-7.2c8.091 8.33 12.862 20.01 18.602 30.713 3.503-0.772 6.505 1.287 7.917-0.033-2.734-15.464-13.011-35.55-25.705-46.52-1.853 3.71-0.382 10.71-0.814 15.84zm143.39-2.36c-5.592 0.512-3.59 5.461-5.235 10.578-3.575 11.125-10.532 17.732-4.3 23.771 5.582-3.147 21.185 2.077 25.505-1.865-3.919-2.407-15.51-7.238-22.88-1.664 0.127-2.189-1.393-2.718-1.777-4.393 4.29-4.316 11.835-12.503 18.427-11.513 7.316 1.1 4.35 8.521 9.732 13.156 4.5-2.838 11.528-3.168 11.393-10.604-14.343-0.307-21.924-13.366-22.121-30.7-6.98-3.24-10.32 7.88-8.74 13.22zm32.53-5.41c0.004 0.88 0.007 1.759 0.011 2.639 2.52 0.164 4.801 0.09 4.387-2.656-1.16-1.13-3.25-1.12-4.4 0.02zm-174.91 39.43c2.855-1.842 9.575 0.15 12.309-1.811-4.201-6.364-7.321-13.82-12.396-19.303-2.49 6.81-1.119 12.66 0.087 21.11z"></path> <path d="m406.31 175.6c-0.118 3.405-8.247 6.41-9.631 11.477-0.672 5.095 3.355 5.451 2.684 10.546-3.38-1.599-3.912-6.068-7.071-7.889 2.41-6.96 6.87-11.89 14.02-14.14z"></path> <path d="m437.19 197.46c10.22 1.186 8.775 27.867-4.282 28.169 7.26-5.96 12.49-21.13 4.28-28.17z"></path> <path fill="#FFFFFF" d="m18.024 310.92c-0.262-2.68-3.357-2.505-4.417-4.38-0.269-12.438 0.087-25.217 0.738-34.313 19.023 34.706 38.253 69.203 60.24 100.92-4.444 3.934-11.805 0.125-18.47 0.955-11.968-21.79-24.989-42.52-38.091-63.18 2.01 14.2 15.233 24.665 18.642 40.392 6.378 5.403 13.487 14.595 14.17 22.814-7.146-0.468-9.05-9.047-11.495-14.028-2.684-5.469-4.703-11.522-7.986-16.682-6.61-10.388-16.084-17.14-17.726-31.598 2.758-0.99 2.326 0.26 4.395-0.89z"></path> <path fill="#FFFFFF" d="m365.07 201.28c6.542 6.949 9.32 17.693 21.193 19.267 4.146 3.681 2.606 8.698 5.329 12.295 8.143 10.752 26.034 4.48 40.505 8.629 9.852 2.826 9.035 12.962 18.524 12.24 6.954 7.05 9.738 17.551 15.076 28.97 1.721 3.682 5.707 7.09 7.081 10.528 1.18 2.952 1.368 8.177 2.69 12.305 6.436 20.092 16.752 47.269 6.445 69.474-28.372-1.182-59.625-0.183-87.977-0.517-7.018-2.976-8.246-11.178-10.633-18.431-2.124-6.453-6.117-13.414-8.002-20.2-10.53-37.92-14.65-89.06-10.24-134.56z"></path> </g> <metadata></metadata></svg> 