<?xml version="1.0" encoding="UTF-8" standalone="no"?> <!-- Generator: Adobe Illustrator 13.0.1, SVG Export Plug-In . SVG Version: 6.00 Build 14948) --> <svg xmlns:rdf="http://www.w3.org/1999/02/22-rdf-syntax-ns#" xmlns="http://www.w3.org/2000/svg" xmlns:x="http://ns.adobe.com/Extensibility/1.0/" xmlns:dc="http://purl.org/dc/elements/1.1/" xmlns:i="http://ns.adobe.com/AdobeIllustrator/10.0/" xmlns:cc="http://web.resource.org/cc/" xmlns:xlink="http://www.w3.org/1999/xlink" xmlns:a="http://ns.adobe.com/AdobeSVGViewerExtensions/3.0/" xmlns:graph="http://ns.adobe.com/Graphs/1.0/" xmlns:svg="http://www.w3.org/2000/svg" xmlns:inkscape="http://www.inkscape.org/namespaces/inkscape" xmlns:sodipodi="http://sodipodi.sourceforge.net/DTD/sodipodi-0.dtd" xmlns:ns1="http://sozi.baierouge.fr" id="spinning_top_xA0_Image_1_" xml:space="preserve" viewBox="0 0 436.428 422.009" y="0px" x="0px"> <g clip-rule="evenodd" fill-rule="evenodd"> <path d="m307.82 116.83c0.817-0.115 1.251 0.155 1.405 0.703-2.404 7.902-5.903 14.711-9.839 21.083-0.202 2.14 0.112 4.797-2.108 4.919-3.095-0.375-0.504-5.724 1.406-5.623 1.06-9.01 6.62-13.53 9.14-21.08z"></path> <path d="m333.12 125.26h2.107c-0.377 11.282-6.858 18.988-9.136 28.814-0.651 2.812 0.629 7.15-2.812 9.136 0.61-15.32 5.77-26.09 9.84-37.95z"></path> <path d="m359.12 133.69c0.648 3.224-1.484 3.668-4.216 3.514 0.6-1.98 1.96-3.19 4.22-3.51z"></path> <path d="m358.42 143.53c-2.19 5.602-8.767 10.36-14.759 9.839 2.12-5.67 8.4-10.73 14.76-9.84z"></path> <path d="m324.69 163.91c-0.485 3.966 1.372 10.274-2.108 11.245 0.65-3.8-1.68-10.59 2.11-11.25z"></path> <path d="m293.76 170.24c3.438-0.392 1.679 4.413 2.108 7.028-3.01-0.04-1.87-4.22-2.11-7.03z"></path> <path d="m320.47 189.21c3.279 1.507 2.488 6.232 2.811 9.136 1.372 12.357 3.44 24.165 4.92 35.842-3.259-3.35-3.329-9.441-4.217-14.759-1.55-9.3-3.68-20.15-3.51-30.22z"></path> <path d="m314.85 213.81c1.135-0.198 1.21 0.664 2.108 0.703 1.877 17.098 5.104 32.846 10.541 46.384-3.917-1.077-5.058-7.471-6.325-11.947-2.856-10.096-3.97-22.33-6.324-33.031-0.01-0.69-0.01-1.4-0.01-2.1z"></path> <path d="m309.22 215.92h2.108c-0.41 3.69 1.239 5.321 0.703 9.137-2.99-1-1.93-6.04-2.81-9.14z"></path> <path d="m310.63 226.46h2.108c1.71 13.985 6.529 24.861 9.839 37.247-3.353-0.358-3.2-4.507-4.217-7.027-2.924-7.249-5.804-17.575-7.028-28.111-0.37-0.57-0.73-1.14-0.7-2.11z"></path> <path d="m346.47 254.57c6.064 3.071 13.499 4.773 18.975 8.434-0.503 4.122-12.403-1.187-15.461-2.812-2.19-1.17-4.69-3.42-3.51-5.62z"></path> <path d="m269.16 263c3.458 1.239 6.291 6.812 4.92 10.541-3.94-1.2-3.98-6.32-4.92-10.54z"></path> <path d="m365.45 269.33c2.299 0.279 4.544 0.61 4.92 2.812-2.86 0.28-4.9-0.26-4.92-2.81z"></path> <path d="m374.58 274.25c5.261-0.213 8.835 4.577 7.73 8.434-2.114 0.708-1.245-1.566-1.405-2.812-2.02-1.96-5.86-2.1-6.32-5.62z"></path> <path d="m309.22 279.87c0.215 4.258-7.155 2.872-9.839 2.108-0.371-0.564-0.732-1.141-0.702-2.108 3.05-1.98 6.78 0.46 10.54 0z"></path> <path d="m384.42 310.09c-5.748 0.126-6.434-4.811-9.839-7.027-6.607-1.357-14.786-1.145-19.678-4.217-0.114-0.817 0.155-1.251 0.702-1.406 10.44 0.41 28.43-1.48 28.82 12.66z"></path> <path d="m121.58 306.58c-33.47 0.892-61.781-0.57-94.875 0-0.979 0.017-2.813-1.287-3.514 1.405-6.11-2.975-14.39 0.068-20.381-1.405 3.294-2.561 7.911-1.405 11.947-1.405 36.55 0 71.301-0.841 97.687-0.703 2.81 0 7.42-1.13 9.14 2.1z"></path> <path d="m0 326.26v-2.812c5.661 0.989 12.843 0.442 18.975-0.702 1.391 3.625-2.602 2.514-4.919 2.811-5.616 0.71-10.165-0.56-14.056 0.7z"></path> <path d="m128.61 324.15c-1.644 2.711-5.393 1.351-7.73 1.405-12.676 0.302-28.629 0.854-40.761 1.406-16.328 0.741-33.517 1.086-46.384 0-1.742-0.147-1.621-1.295-2.108-1.406-0.528-0.119-6.121 2.809-6.325-1.405 35.368 4.01 63.531-2.79 103.31-0.01z"></path> <path d="m157.42 343.82c1.948 0.247 4.137 2.105 2.811 3.515-2.59 0.49-3.1-1.11-2.81-3.52z"></path> <path d="m143.37 345.93v2.812c-1.506 1.517-3.927 0.359-4.919-0.703v-1.405c0.99-1.07 3.41-2.22 4.92-0.71z"></path> <path d="m167.26 350.15c-0.401 3.234-4.808 2.836-6.325 1.405-0.51-4.38 4.94-3.74 6.32-1.41z"></path> <path d="m153.21 352.26c0.26 3.674-6.116 2.104-5.623-0.703 1.3-1.23 5.03-0.91 5.62 0.7z"></path> <path d="m56.925 355.77c-0.803 1.918-4.735 1.334-7.028 1.406-6.652 0.209-12.169 0.059-18.272 0-3.17-0.031-7.312 2.615-8.433-1.406 2.949-1.007 5.75 1.036 8.433 0.703 1.307-0.162 1.531-1.383 2.812-1.405 4.561-0.08 8.746 0.783 14.056 0 0.993-0.14 6.132-1.84 8.432 0.71z"></path> <path d="m62.547 354.37c2.619-0.744 2.269 1.479 3.514 2.108-0.088 1.552-2.981 0.299-4.217 0.703-0.297-1.47 0.483-1.86 0.703-2.81z"></path> <path d="m98.39 356.48c-5.007 1.68-10.187 1.01-16.164 0.703-3.755-0.193-8.715 1.635-10.542-1.406 4.915-0.278 11.064 0.365 16.164 0 4.016-0.29 9.31-3.23 10.542 0.71z"></path> <path d="m319.06 355.07c-0.983 2.228-4.506 1.833-6.325 2.108-13.696 2.07-34.95-0.076-48.492 2.108-16.78 2.705-35.227-3.584-52.006 0-1.991-0.118-2.929-1.288-4.919-1.406-2.692 0.433-8.653 3.224-10.542 0 0.973-3.213 5.03-1.406 7.028-1.405 7.175 0.003 15.229-1.273 23.192-1.405 31.99-0.54 63.16-0.41 92.06-0.01z"></path> <path d="m0 360.69v-2.812c2.69 2.594 10.199-5.245 10.542 1.406-4.591-0.61-7.073 0.89-10.542 1.4z"></path> <path d="m110.34 374.75h5.622c-0.089 1.261 0.86 1.482 0.703 2.811-1.909 1.186-3.291-1.114-4.216 1.406-1.12-0.99-1.79-2.43-2.1-4.22z"></path> <path d="m179.91 374.75c0.272 2.85-4.38 0.773-6.325 1.405-0.27-2.86 4.39-0.78 6.33-1.41z"></path> <path d="m115.26 381.07h6.325c-0.64 2.09-6.58 2.89-6.32 0z"></path> <path d="m159.53 381.77c-0.748 1.596-4.417 0.268-6.325 0.703 0.14-2.21 5.2-1.62 6.33-0.7z"></path> <path d="m180.62 381.07c0.721 2.361-2.186 1.094-3.514 1.405 0.09-1.54 1.76-1.51 3.51-1.41z"></path> <path d="m365.45 381.07c4.689 2.339 11.201 2.854 12.65 8.433-3.881-0.14-6.396 2.001-8.434-0.702-0.328-1.5 1.004-1.339 2.108-1.405-0.061-1.813-3.009-0.74-2.108-3.515-2.54 0.19-4.87 0.18-4.22-2.81z"></path> <path d="m172.18 382.48c0.713 2.408-5.279 1.674-5.622 0.703-0.47-2.65 3.26 0.34 5.62-0.7z"></path> <path d="m182.72 383.18c0.498 2.689-7.508 3.298-7.73 0.702 1.72-0.38 3.99-0.74 7.73-0.7z"></path> <path d="m129.31 386.69c-1.867-0.008-4.014 0.266-4.919-0.703 0.7-1.8 5.03-2.02 4.92 0.7z"></path> <path d="m160.23 386.69c0.194 1.89-4.951 2.002-5.623 0.703-0.13-2.98 4.41-0.79 5.62-0.7z"></path> <path d="m179.21 387.4h3.514c0.722 2.361-2.186 1.094-3.514 1.405v-1.4z"></path> <path d="m0 393.72v-2.108c5.841-1.429 16.947-2.422 23.895-2.108 0.273 1.765-0.938 0.981-2.108 1.406-5.806 2.11-16.134 1.79-21.787 2.81z"></path> <path d="m150.4 391.61c-0.079 1.796-2.354 1.396-4.217 1.406 0.34-2.44 2.67-1.79 4.22-1.41z"></path> <path d="m101.9 400.75c-3.07 5.675-11.178 0.539-18.975 1.405 1.444-2.7 5.795-1.294 8.434-1.405 3.673-0.16 7.722-0.75 10.541-0.01z"></path> <path d="m82.226 401.45c-0.877 3.769-6.232 1.846-9.136 2.108-6.845 0.62-16.105 0.941-26.706 1.406-5.182 0.227-10.533 2.761-14.056 0 0.469-4.155 5.043-1.295 7.028-1.406 15.196-0.85 26.716-2.82 42.87-2.11z"></path> <path d="m118.77 401.45c24.011 2.154 44.111 0.004 66.062 1.406-1.633 2.053-4.729 1.949-7.028 2.108-16.005 1.108-37.435-2.215-57.628-0.703 0-1.4-1.91-0.9-1.4-2.82z"></path> <path d="m193.97 403.56c-1.314 2.432-8.779 1.731-8.434-0.702 1.85-0.56 5.7-0.93 8.43 0.7z"></path> <path d="m304.3 404.97c-1.872 4.734-10.267 2.885-16.164 2.811-2.776-0.034-5.62 0.172-8.434 0-6.169-0.376-11.818-0.445-18.272-0.702-11.886-0.474-24.556-0.642-36.544-1.406-7.833-0.499-17.155-1.908-25.3-0.702v-2.108c0.569-0.134 0.701-0.705 1.406-0.703 19.621-0.62 42.478 1.865 58.331 2.108 4.286 0.065 8.469-0.244 12.65 0 2.652 0.154 5.716 1.435 8.434 1.405 1.87-0.02 3.635-1.251 5.622-1.405 5.92-0.48 12.47 1.61 18.26 0.69z"></path> <path d="m436.43 420.43c-3.117 3.392-7.992 0.321-11.244 0-6.566-0.648-12.748 0.255-20.381 0-3.449-0.115-6.541-1.829-9.839-2.108-4.652-0.395-9.467 0.476-14.056 0-4.155-0.431-7.894-1.14-11.947-1.405-15.593-1.023-32.002 0.622-52.006-2.108v-1.406c-0.114-0.816 0.155-1.25 0.702-1.405 5.981-0.493 14.12 1.041 21.084 1.405 4.053 0.213 9.011-1.196 12.649 1.406 13.602-2.605 31.631 1.078 47.087 2.108 5.436 0.362 10.928-0.294 16.164 0 3.332 0.187 6.672 1.197 9.839 1.405 3.69 0.24 9.37-1.82 11.96 2.11z"></path> <path d="m302.9 417.62c-2.166 3.878-7.659 2.078-10.542 2.108-13.034 0.137-22.828-0.156-33.733 0-15.497 0.224-30.654-1.262-45.681-1.405-22.095-0.212-43.731 1.879-65.359 2.108-15.739 0.167-29.84 0.423-47.086 0.703-2.048 0.033-6.165 1.226-7.731-1.406 0.681-2.641 4.415-1.358 5.623-1.405 14.768-0.578 28.074 0.383 41.464 0 28.544-0.816 59.153-2.282 90.659-1.405 6.305 0.175 12.709-0.02 18.975 0 16.52 0.04 34.88-1.16 53.4 0.7z"></path> <path d="m0 281.98c42.61-0.409 73.445 1.02 115.26 0.703-1.225-12.001 7.877-13.675 14.758-17.569 0.657-3.345-2.503-4.97-2.811-8.434-0.688-7.732 4.019-16.589 11.245-17.569 1.822-5.15 3.745-9.509 6.325-14.056 2.505-4.415 6.704-7.237 9.136-11.245 2.722-4.484 2.113-11.582 8.434-13.353 1.615 2.592-1.198 4.278-2.108 6.325-1.065 2.393-1.553 5.483-2.811 7.73-3.095 5.527-10.11 9.4-11.245 16.164 2.987-1.812 3.814 0.848 4.217 3.514-3.374 2.951-8.045 4.605-10.542 8.434-1.867 0.007-4.014-0.266-4.919 0.703 0.178 2.52-2.11 2.574-2.108 4.919 2.711-0.1 3.248-2.375 6.325-2.108 0.965 1.602-1.812 2.642 0 2.812 3.042-1.475 8.381-1.164 11.947 0 1.399 0.456 3.679 3.183 7.028 4.919 6.399 3.317 11.628 4.853 11.245 12.65 0.118 1.59-3.379 3.09-1.406 4.217 1.81-3.11 3.641-6.198 4.919-9.839-0.437-0.685-3.78 0.308-4.217-2.108-0.415-7.455-9.004-13.764-5.622-20.381 9.309 0.296 4.473 14.736 11.947 16.867 0.118-0.819 1.111-0.764 2.108-0.703 2.165-3.691 1.189-10.524 1.406-16.164-1.873-0.704-2.317-2.837-3.514-4.217-5.7-0.859-10.757-2.361-14.758-4.92-4.073-0.284-9.076 1.965-10.542-2.107 5.646-1.195 13.329 0.3 18.272 3.514 2.803 0.694 2.116-2.101 4.919-1.406 1.915 3.708 10.204 1.041 10.542 6.325-0.292 2.397-3.854-1.062-3.514 0.703 5.359 1.741 6.753 12.283 4.919 16.867 3.258 0.518 5.253-3.953 7.028-0.703-2.109 3.682-6.875 5.441-10.542 5.622-6.491 4.285-9.428 12.125-14.758 17.569-0.002 3.75 0.435 7.062 2.108 9.137 9.89-0.421 20.213-1.201 30.922-0.703 7.034 0.327 15.712-0.696 22.489 0.703 3.175 0.655 5.694 3.627 8.434 4.919 11.045 5.211 23.718 9.712 33.03 14.056 0.52-3.329-0.79-4.831-0.702-7.73 2.012-0.989 3.835 2.181 3.514-0.702-0.012-2.098-5.208 0.991-4.217-2.108-1.166-2.675 2.17-3.108 2.812-4.217 3.548-6.131-1.195-6.119-0.703-12.65-4.874-3.93-4.964-10.414-9.137-16.867-3.345-5.173-10.249-8.62-11.947-14.056-2.877-9.215 0.133-21.299-0.702-31.625-0.58-7.161-3.231-12.55-2.108-18.975 5.999 13.029 3.48 32.25 5.622 47.086 0.941 6.522 8.632 10.891 11.947 16.164 4.545 7.229 4.294 17.305 14.056 17.569 0.769 1.574 1.164 3.521 2.108 4.92 14.125 8.282 36.633 13.56 58.331 9.839-1.258-3.079-3.6-5.447-3.514-8.434 0.089-3.144 2.669-3.774 3.514-6.325 2.47-7.46-0.759-10.295-2.812-14.758-1.189-2.587-1.194-5.94-2.108-8.434-0.617-1.687-2.261-3.188-2.811-4.92-4.569-14.393-6.223-29.317-7.028-46.383 4.854 18.573 4.979 41.873 14.759 55.52-0.249-5.689-2.665-11.274-2.812-16.867-0.111-4.25 1.67-8.417 1.406-12.649-0.435-6.955-3.644-14.237-4.92-21.084-1.373-7.369-3.581-15.131-1.405-22.489 0.389 1.251 0.36 2.918 1.405 3.514 0.435-1.748-2.562-5.479 0.703-5.622 3.059 6.546 1.885 17.325 4.919 23.894 1.138-8.639-2.229-16.505-1.405-22.489 2.655-0.312 1.013 3.672 2.812 4.217-0.545-6.015 0.844-13.962-2.812-16.867-1.613 2.37-0.734 7.231-3.514 8.434-0.463-9.739 2.806-23.764 5.622-31.625 0.888-2.479 0.427-4.545 1.405-7.028 1.994-5.059 6.127-9.763 8.434-14.758 2.439-5.285 3.58-12.862 9.839-14.056-4.871 12.231-16.042 21.906-15.461 37.248 0.953-3.029 3.326-4.638 3.514-8.434 5.18-6.065 8.728-13.761 13.353-20.38 1.985-1.997 1.852-6.113 5.622-6.325 0.539 3.818-1.954 4.604-3.514 6.325-5.249 10.915-11.465 20.863-18.272 30.219-4.226 7.472-1.219 13.629-0.702 23.192 0.324 6.01 0.644 11.954 0.702 18.272 0.059 6.153-1.323 11.933-0.702 16.164 0.459 3.124 2.423 5.62 2.811 8.434 0.782 5.661-0.052 12.523 0 18.272 0.027 2.925 3.046 6.818-1.405 8.434-3.566-3.228-0.904-12.683-2.812-17.569-4.261 13.301 1.225 23.588 5.623 30.22-3.244 5.938-4.726 17.232-5.623 23.191 8.796-0.488 18.148-0.687 23.895 0.703 5.844 1.412 12.742-0.371 18.272 2.811-15.858 1.323-30.163-1.889-44.978-1.405-0.852 4.365 3.365 3.662 3.514 7.027-1.053 5.035 2.678 5.287 3.514 8.434-1.602-0.196-2.642 0.169-2.811 1.405 2.229 4.941 1.4 13.671-1.406 17.57-1.94 0.301-0.659-2.62-2.107-2.812-2.468 2.741-2.477 7.699-0.703 11.244 2.663 2.022 9.43-0.059 9.136 4.92-1.641 2.884-7.655-2.128-7.73 1.405 1.159 5.167 11.56 1.091 9.839 9.137-3.225 0.322-5.416-3.033-8.434-0.703 2.736 3.064 8.911 1.762 13.354 1.405 7.747-0.62 15.045-1.795 20.381-0.702 6.882-6.297-0.859-26.389 11.947-28.111 2.293 1.113-1.438 5.58 1.405 4.919 9.573-3.25 1.279-11.014-0.703-16.866-1.589-4.693-1.96-8.975-0.702-14.056 2.521-0.582 3.399 1.584 4.919 0 3.962-6.668-0.791-12.249-2.108-18.272-0.509-2.329-0.481-5.877-0.702-8.434-0.301-3.465-0.6-7.144 0-10.542 2.256-0.616 1.457 1.823 2.811 2.108 0.113-13.538-0.253-20.256 0-34.436-1.251-0.421-2.918 2.06-3.514 0 0.795-12.243 4.268-26.552 4.217-39.356-0.017-4.209-3.081-10.623 1.405-13.353-0.099 3.613 1.041 5.987 2.108 8.433-2.5-11.514-3.398-23.554-5.622-33.733-1.731 5.296 1.523 15.579-2.812 18.272-2.222-9.412-0.407-18.645-0.702-29.517 0.011-1.16 1.949-0.393 2.108-1.405-2.079-2.291-0.536-4.707-1.406-7.028-3.339-8.906-17.473-11.8-21.083-19.678 8.289-0.274 13 8.983 20.381 11.947 2.472 4.76 3.975 10.2 4.919 16.164 1.416 8.938 2.092 18.216 3.514 27.409 1.03 6.654 3.733 12.933 4.217 19.678 1.457 20.334-3.691 44.18-2.811 61.142 3.087 2.535 3.862 7.382 4.217 12.65 1.665 3.265 5.325 8.246 3.514 12.649-4.11-5.963-4.621-15.524-7.73-22.488-1.32 4.63 1.997 6.254 1.405 11.947-1.382 0.21-1.394-0.949-2.108-1.406 0.909 2.84 1.062 6.435 2.812 8.434 0.193-1.231-1.979-3.507 0-4.217 3.258 4.005 3.738 10.786 5.622 16.164-1.104 0.067-2.437-0.094-2.108 1.405 3.726 0.752 4.943-6.649 7.73-9.136 2.618 0.057 2.269 1.054 3.514-0.703-2.812-7.026-2.894-16.784-9.839-19.678-0.2 4.736 5.569 9.919 2.108 13.354-3.054-7.956-5.497-16.523-7.73-25.301 0.011-1.16 1.949-0.394 2.108-1.405-2.066-5.953-1.697-9.512-0.703-15.461 3.692 1.696 3.051 7.725 4.92 11.244-4.568 10.898 14.258 26.342 11.947 37.95-1.12 5.624-8.131 8.135-10.542 14.056-3.321 0.895-5.35 3.084-7.73 4.92 0.397 6.957-5.391 7.728-4.217 15.461 3.922 3.648 8.778 6.92 12.65 9.839 1.57 1.185 4.289 1.534 3.514 4.217-0.71 1.979-2.984-0.194-4.217 0 2.988 6.909 6.391 14.024 9.839 21.083 3.459 7.08 7.423 14.252 9.137 21.084-3.7-2.407-5.147-7.335-7.028-11.245-4.277-8.889-7.831-17.471-11.947-25.3-2.095-3.985-3.408-9.213-7.73-11.244 5.183 14.461 14.451 27.593 20.381 41.464 1.771 4.143 1.832 9.432 7.027 11.244 2.749-0.765 4.146-2.882 7.028-3.514-7.097-10.707-9.43-26.179-18.272-35.139 2.367 6.092 4.867 12.312 7.73 18.271 2.831 5.894 8.115 10.807 8.434 16.867-5.331-4.68-7.905-12.344-11.244-18.975-3.383-6.719-8.655-13.657-7.731-21.787 7.354 2.484 8.638 11.041 16.164 13.354 2.1 10.974 17.316 14.892 13.354 27.408-4.601 1.726-9.397 3.253-13.354 5.622-0.34 4.089 3.386 4.111 2.108 9.137-1.943 2.976-6.368 3.471-8.434 6.324 3.006 2.096 6.799 3.319 10.542 4.92 3.348 1.431 8.468 2.188 9.137 6.325-9.321-1.787-16.86-6.306-24.598-9.839-7.921-3.617-15.304-8.262-24.598-10.542-1.629-1.672-5.536-4.743-7.73-3.514 3.83 2.46 0.944 7.88 3.514 11.244 3.495 4.576 9.503 2.573 15.462 4.217 6.058 1.672 16.256 10.163 17.569 14.056 1.199 3.557 0.493 4.039-0.703 6.325-2.091 3.996-3.879 5.435-8.434 7.73-5.968 3.009-9.71 0.915-14.758 4.217-6.309-1.422-11.715-3.747-15.462-7.73-6.481 0.625-9.195-2.518-13.353-4.217-3.276 0.365-3.11 2.075-5.622 0-2.354 1.862-4.938 3.495-7.028 5.622-8.272-0.704-11.497-3.284-16.163-6.325-2.516-1.64-4.589-2.523-5.623-4.217-2.175-3.563-2.605-8.859-2.108-12.649 0.643-4.894 5.632-7.469 6.325-12.65 0.557-4.153-2.805-8.044-2.811-11.947-0.009-4.854 3.674-10.094 3.514-15.461-17.925-8.547-36.565-16.378-54.114-25.301-7.761 1.146-19.145 2.402-27.408 0.703 2.189-5.541 14.67-0.791 18.975-4.217-8.266-2.744-14.843-7.178-22.489-10.542-1.961 3.193-4.885 5.423-9.136 6.325 1.676 2.563-2.021 2.992-1.405 5.622-3.198 1.644-3.794 1.712-6.325 1.406-0.27 2.378 3.11 1.105 2.108 4.217-0.594 1.515-4.48-0.264-4.92 1.405 2.833-0.021 5.421 0.202 6.325 2.108-1.076 1.762-9.69-0.356-8.434 1.405 3.969 0.148 6.926 0.61 7.028 2.812 0.098 2.106-10.833 0.756-11.948 0.702-1.916 1.13-3.141 2.949-7.028 2.108 0.146 3.191-3.797 2.294-5.622 3.515 2.311-0.513 1.076 1.396 0 1.405-5.972 1.119-9.432 1.267-14.758 2.108 2.465-0.618 1.225 2.316 0 2.108-4.611-0.074-5.529-3.842-10.542-3.514-2.974-4.952-11.59-5.12-11.244-11.948 3.431-1.359 7.217 0.791 10.542-1.405-2.14-0.203-4.797 0.112-4.919-2.108 4.059-0.86 8.279-1.56 11.245-3.514-2.315-0.027-4.973 0.287-4.919-2.108 3.54-2.158 7.552-1.377 11.244-2.108-1.104-0.066-2.437 0.094-2.108-1.405 4.767-0.304 10.573 2.06 14.758 0-2.24-1.612 3.34-1.289 2.811-3.514 3.167-0.01 10.184 1.527 11.947-0.703-2.811-0.235-6.994 0.903-7.028-2.108 0.856-1.262 4.317 0.79 7.028 0 1.033-2.673-3.142-0.138-2.108-2.812h7.028c0.672-1.309-2.105-2.349 0-2.811 1.907-0.436 5.578 0.892 6.325-0.703-2.973-0.048-1.663-1.606-0.702-2.811-13.944-8.906-42.616-5.624-63.25-5.623 2.436 7.872 8.344 12.271 8.433 22.489-6.462 5.421-15.281-0.994-16.867-7.027-6.94 3.952-14.743 2.348-23.192 3.514-7.016-3.994-15.646-6.375-21.786-11.244-0.106-3.643-1.813-5.684-2.108-9.137-34.327-0.883-84.266-1.45-113.85-1.405-0.03-0.89-0.03-1.82-0.03-2.76zm405.5 85.74c-5.281-6.431-7.989-15.437-14.056-21.083-2.643 2.728 4.074 5.644 0 7.73 1.807 2.416 2.389 2.416 2.812 0 3.63 4.12 6.02 13.19 11.25 13.35zm-15.46-193.27c-1.03 6.82 2.88 1.81 0 0zm-1.4 33.74c0.546-8.828 4.112-18.371 2.108-27.408 0.94 10.05-4.77 20.25-2.11 27.41zm-56.93 9.13c-1.604-7.766-2.895-15.846-4.919-23.191 1.05 8.33 1.49 17.26 4.92 23.19zm-149.69 33.03c0.39-1.671 0.376-8.091-0.703-7.73 0.44 2.37-0.91 6.53 0.7 7.73zm-50.6 3.52c2.03-4.07-1.73-1.85 0 0zm31.62 23.19c-0.548-0.155-0.817-0.589-0.703-1.406-0.229-2.333-3.066 1.851-3.514-0.702 0.809-0.831 0.795-2.484 0.703-4.217-1.845-2.84-6.061-3.31-6.325-7.73 5.776-2.956 7.745 6.367 11.947 4.919 2.174-7.593-3.309-8.612-8.434-11.244-3.079-1.581-4.097-3.212-5.622-3.514-2.788-0.553-6.094 0.413-9.136 0-2.686 3.873-4.048 9.069-7.028 12.649-8.116 3.408-15.113 6.613-17.569 15.461-1.661 5.982 1.267 8.748 1.405 14.057 3.841 0.376 5.186 3.247 8.434 4.216-0.931-2.132-4.047-11.865-2.811-16.163 4.075 0.141 2.37 6.062 2.811 9.839 2.196 3.192 5.918 4.857 7.028 9.136 2.224-0.115 2.349 1.868 4.919 1.405 0.949-2.413-3.243-4.977-4.217-7.73 0.49-4.954-2.491-10.142-0.703-14.056 4.422 2.606 0.404 13.651 4.919 16.164 1.907 0.436 5.578-0.893 6.325 0.703 0.118 1.523-2.493 0.318-3.514 0.702-0.711 4.587 7.314 8.478 8.434 2.812 0.391-3.436-3.187-2.904-4.217-4.92 2.064-4.914-1.725-11.801 0-16.164 5.442 0.649 0.998 11.185 4.217 14.057 1.748-0.109 2.175 1.104 3.514 1.405 1.516-1.296 3.461-2.161 4.919-3.514 0.542-5.461-1.077-8.763-0.703-14.056 1.35-1.62 4.06-1.86 4.93-2.11zm225.6-14.76c1.946 3.676-0.785 12.029 4.217 12.65 0.832-5.53-4.629-8.474-2.108-13.354 2.396 2.757 1.975 8.332 4.919 10.542 1.453-1.966-2.294-3.429-2.108-6.325-1.122-3.062 2.442-2.542 0.703-4.217-0.288-1.198-0.906 0.148-2.108 0-0.888-2.625-0.907-6.121-2.812-7.73 0.03 3.64 1.58 6.19-0.7 8.43zm-53.41-1.4c-1.327-0.078-0.487-2.323-2.107-2.108-0.18 1.21 1.32 4.16 2.11 2.11zm-160.24 44.27c-5.134-2.831-4.136-11.794-9.136-14.759-1.549 2.199-3.887 3.609-3.514 7.73 3.664 0.318 3.895 4.07 3.514 8.434 2.258 1.784 4.964 5.063 9.136 2.811v-4.21zm94.17-12.65c0.191-0.957-0.435-2.743-0.702-1.405-0.19 0.95 0.44 2.74 0.7 1.4zm23.9 9.84c4.568 0.351 7.949 1.89 11.947 2.812 0.744-1.7 7.101-2.518 3.514-4.217-0.08 0.857-0.21 1.664-1.406 1.405-1.664-2.084-1.164-6.332-2.107-9.136-4.827-0.328-9.202-1.106-13.354-2.108-2.03 3.71 0.85 7.87 1.41 11.25zm-21.08-7.03c0.229 4.305 0.636 6.089 1.405 9.136 0.302 1.192 0.2 4.271 2.108 4.217-0.329-5.293-2.674-8.571-2.108-14.759-0.898-0.038-0.973-0.9-2.108-0.702 0.11 0.82-0.12 1.99 0.71 2.1zm44.27 9.14c-1.609-2.607-0.324-8.109-2.812-9.839 1.34 2.88 0.21 8.23 2.81 9.84zm7.03 2.11c0.027-4.712-0.27-9.102-2.811-11.244 0.91 3.76 0.1 9.26 2.81 11.24zm-47.79-9.84c1.01 6.75 0-3 0 0zm-122.28 4.92c1.329-0.157 1.55 0.792 2.811 0.703 1.397-0.299 3.198-3.755 1.406-4.92-1.49 1.32-5.56 0.07-4.22 4.22zm248.08 37.95c-5.14-5.404-7.329-17.498-11.947-21.083 2.475 6.9 8.222 14.263 8.434 21.083-1.724-1.556-2.71-3.849-3.514-6.324-1.341-1.319-1.271 0.417-3.514 0-2.391-4.404-4.606-8.98-7.028-13.354-3.233 0.046-5.596 0.964-7.73 2.108-1.029 4.34-0.812 9.063 2.108 11.245 0.184-1.094 1.541-0.487 2.108 0 0.812-2.284-2.146-4.323 0-5.623 5.321 3.116 8.777 11.832 13.353 13.354-0.921-0.011-0.896-1.95 0-2.108 2 1.279 2.452 4.106 4.217 5.622 1.918 0.063 1.415-1.171 2.812 0 2.085 3.965 5.488 7.74 8.434 11.947 2.735 3.909 4.737 10.062 9.136 10.542-3.729-7.284-12.27-13.496-12.65-21.786 2.195 1.318 2.725 4.304 4.92 5.622 0.136-9.562-5.832-16.857-9.839-25.301-3.27-6.889-6.355-13.545-9.839-19.678-1.161-2.821 0.041-8.006-4.92-7.027 6.08 9.375 9.839 21.292 14.759 31.625 2.319 4.871 7.101 9.137 5.622 14.056-3.12-1.62-4.42-12.72-4.92-4.93zm-120.88-33.74c0.116-2.459-0.187-4.498-1.405-5.622-0.11 2.46 0.19 4.5 1.41 5.62zm-14.06-0.7c2.132-0.211 3.743 3.69 5.622 1.405-1.523 0.118-0.318-2.493-0.703-3.514-1.478-0.631-3.124-1.093-4.216-2.108 0.1 1.73 0.11 3.38-0.7 4.21zm20.39 0.7c0.928-1.944-2.778-2.413-0.703-1.405-0.06 0.99 0.15 2.7 0.7 1.41zm44.97-0.7c1.8 5.69-1.22-4.65 0 0zm-40.76 9.14c0.73-2.88-2.165-5.746 0-7.73 3.426 1.961 0.418 10.357 4.919 11.244-0.561-3.89-2.609-6.293-2.108-11.244-1.649-0.225-2.638-1.11-4.919-0.703-0.1 3.61 1.04 5.98 2.11 8.43zm8.43 1.4c-1.86-2.457-3.376-10.306-2.811-5.622 0.32 2.656 0.771 6.79 3.514 9.839 0.02-1.66-1.2-2.07-0.7-4.22zm3.52 3.52c-0.933-3.285-0.81-7.625-2.812-9.84 0.16 4.05 0.9 7.53 2.81 9.84zm21.08 11.24c-1.909-5.125-6.117-11.678-4.919-17.569 1.646 0.229 0.682 3.065 2.107 3.514 0.385-1.021-0.82-3.633 0.703-3.514 1.825 0.751 0.986 4.168 2.812 4.919-0.018-3.186-2.343-4.84-0.703-7.73-5.216 0.786-9.549-1.536-13.353 0-0.333 2.895 1.892-0.676 2.108 2.108 2.41 5.086 3.258 11.734 6.325 16.164-0.394-5.449-6.015-12.425-3.515-16.164 3.28 5.16 4.2 16.42 8.44 18.27zm-16.16-7.03c-2.16-3.93-1.245-10.936-4.919-13.353 1.47 4.62 2.04 10.14 4.92 13.35zm4.22 2.11c-1.768-5.26-1.819-12.235-5.622-15.461 1.21 5.81 2.7 11.35 5.62 15.46zm15.46-10.54c2.533-0.279 2.145-3.479 3.515-4.92h-4.217c-0.57 2.44 1.04 2.7 0.7 4.92zm-121.58-2.81c-0.597-0.597-2.005 0.511-2.108 0.703-0.67 1.24 2.59-0.22 2.11-0.7zm186.23 18.27c-1.473-3.925-3.61-10.9-6.325-11.244 2.04 3.82 3.58 8.14 6.33 11.24zm-180.61-9.13c3.071 1.765 4.95 0.706 9.136 0.703-2.773-0.249-9.867-2.961-11.244 0 0.38 2.03 1.08-1.08 2.1-0.7zm113.85 0.7c1.296 5.694 4.286 5.423 0.703-0.703 0.03-0.76-0.98-0.54-0.7 0.7zm-132.13 7.03c0.053 1.224-0.157 2.186-0.703 2.811 4.621-1.586 8.442-0.191 11.947-2.108-3.281-0.322-4.492 1.36-6.325-0.702 1.139-1.057 5.186-1.057 6.325 0-0.541-1.579 5.466-0.02 2.811-1.406-3.323 0.278-5.865-0.226-8.434-0.702-0.27 2.3-3.44 1.71-5.62 2.11zm229.81 11.94c1.886 3.771 3.611 10.981 9.137 9.136-2.317-10.333-9.519-15.781-14.759-23.191 1.23 4.36 3.33 9.46 5.62 14.05zm-94.87-8.43c-1.825-0.752-0.985-4.168-2.812-4.92 0.36 1.78 1.28 6.63 2.81 4.92zm2.11 1.4c1.325-1.371-0.978-5.079-2.108-6.325 1.8 1.91 0.2 6.14 2.11 6.32zm58.33 26.71c-4.396-8.255-8.54-16.761-13.354-24.598 2.38 10.27 7.33 17.97 13.35 24.6zm3.51 2.11c2.402 0.204 5.308 3.553 7.027 2.108-2.302-2.188-3.319-1.327-5.622-3.515-1.653-5.514-5.683-7.974-8.433-12.649-2.669-4.537-5.12-12.28-5.623-10.542 3.13 9.27 8.91 15.9 12.64 24.59zm-57.63-19.68c-0.621 4.064-1.428 7.942-2.108 11.947 2.332 2.371 3.125-5.45 5.622-2.812-0.881 4.272-3.945 6.362-4.217 11.244 2.974 1.224 5.653-1.548 9.839-2.108 7.939-1.062 18.124 0.645 26.003 0.703 1.78 1.059 5.487 3.847 7.73 2.108-1.875-0.467-2.573-2.112-3.514-3.514h-3.514c-1.537-1.764-4.404-3.265-7.028-4.217-2.863-1.04-6.704-0.372-8.433-2.812 6.876-2.65 11.319 3.198 17.569 3.515 0.994-2.346 1.135-6.921-0.703-8.434 0.091 1.262-0.697 1.645-2.108 1.405-3.98-2.817-12.312-1.767-15.461-3.514 3.367-6.645 14.789-0.121 17.569 0-7.75-9.88-22.21-2.83-37.25-3.53zm40.06-1.4c-2.193 0.518 1.542 5.092 2.108 8.434 0.425 2.514-0.019 3.663 0.702 4.92 2.051 0.761 2.646 2.977 5.623 2.811-2.01-6.18-6.36-10.03-8.43-16.16zm32.33 28.11c3.334 0.941 5.706 3.013 7.73 0-0.52-3.152-3.664-5.612-5.622-8.434-1.837-2.645-2.829-7.047-5.623-7.027 1.955 4.332 9.466 9.942 7.028 14.056-5.329-6.853-9.24-15.123-14.759-21.786 2.96 8.21 10.58 14.95 11.24 23.19zm-17.57-19.68c3.47 6.13 0.01-1.76 0 0zm30.92 15.46c-0.423-3.325-2.702-4.793-4.217-7.027-0.447-1.93-2.775-5.611-4.217-4.217 3.35 3.22 4.91 8.23 8.44 11.25zm-54.11-0.7c-6.383-0.671-22.786 0.755-26.003 2.811 0.857 0.08 1.664 0.21 1.405 1.406-5.394 2.341-15.34 3.862-12.649 11.947 3.269-2.072 8.308 0.106 11.244 0.702 0.312-1.328-0.956-4.235 1.405-3.514 4.429 4.708 8.661 9.612 14.759 12.65 1.657 1.72 1.308-1.05 3.514-0.703 1.894 2.558 5.531 3.371 9.839 3.514 1.063 3.074 7.27 4.766 10.542 6.325 3.618 1.725 12.196 7.243 14.056 1.405-3.335-0.413-7.321-0.174-9.136-2.107 1.304-4.222-1.028-3.285-2.108-6.325 4.506 0.506 10.71 5.151 14.758 8.433 2.587-0.021 9.548 0.687 7.028-2.107-1.154 1.559-5.025-0.083-6.325-0.703-0.407-2.281 0.479-3.27 0.702-4.92-4.234-0.599-6.21-5.904-11.244-3.514-1.629-4.243-5.972-2.31-7.027-7.73 9.804-0.666 14.048 6.286 19.678 10.542 2.248 1.699 8.13 5.216 9.136 3.514-4.469-7.479-14.213-9.682-19.678-16.164-4.073 0.091-7.848-0.116-9.839-2.108-0.752-2.625 1.745-2.003 1.405-4.217-5.44-2.94-7.72-8.32-15.47-9.13zm41.46 24.59c2.426-5.068-4.741-5.184-5.622-9.136-4.798 1.56-9.468-3.8-14.759-1.405 10.1 0.22 12.49 8.14 20.38 10.54zm-67.46 7.03c-4.052-4.886 4.658-10.604 4.92-3.514-0.552 1.557-4.352-0.134-3.515 2.811 0.979 2.495 5.948 1.554 6.325-0.702-0.49-5.366-4.54-7.173-7.027-10.542-2.468 3.959-4.181-2.717-7.73-2.108-2.151 1.129-3.465 3.095-4.217 5.622 2.32 3.78 8.83 7.09 11.25 8.43z"></path> <path d="m278.3 135.8c1.421 2.795 2.06 6.374 2.812 9.839 2.233-0.343-1.183-6.335 2.107-5.623-0.872 5.229 0.52 6.593 3.515 9.136 0.55 3.127-0.937 4.218-0.703 7.028-0.215 2.196 2.03-1.786 2.108 0.703-0.033 3.949-0.742 7.223-1.405 10.542 1.942-0.166 0.251-3.965 2.811-3.514-0.378 8.992-1.538 17.203-2.811 25.3-2.929-1.289 0.429-5.94-0.703-9.839-0.715 0.457-0.727 1.616-2.108 1.406-0.396-3.208 1.245-4.377 0.703-7.731-1.99-0.115 0.584 4.333-1.406 4.217-1.973-1.106-0.972-5.183-0.702-7.73 0.382-3.621 2.11-7.101 1.405-10.542-2.73 3.36-0.269 11.913-4.217 14.056 0.059-4.158 0.709-7.725 2.108-10.542-0.307-1.043-0.899 0.277-2.108 0-0.505-4.019 0.75-6.278 0.703-9.839-1.147 0.71-1.793-0.188-4.217-1.406 0.01-4.929 0.36-10.2-1.405-13.353-1.481 7.554-4.641 10.36-4.217 16.164 0.809 11.089 12.104 18.142 11.244 32.328 7.265 6.323 8.974 18.201 10.542 30.22 2.086-2.365-0.681-9.582 1.405-11.947-0.307-1.043-0.899 0.277-2.108 0 0.997-5.448-1.501-7.401-1.405-11.947-0.75-2.393-0.219 1.956-2.108 0.703-0.392-3.574-0.079-9.721 0.703-14.758 0.484-3.124 0.624-7.801 3.514-8.434-0.021 4.431-1.539 7.363-2.108 11.245 2.016-0.561 0.441-4.712 3.514-4.217-0.491 5.833-2.421 10.229-2.108 16.867 2.179-2.507 1.248-8.123 3.514-10.542 2.678 0.68 1.258 4.681 1.406 6.325 1.163 12.938 3.782 26.51 4.217 40.059-2.182 2.919-4.677 6.109-6.325 9.839-1.643 3.718-1.577 8.293-4.92 10.542-0.216 2.36 0.938 6.092-2.108 5.622-0.679-9.024-2.714-28.047 3.515-34.437-0.949-5.376-2.104-10.546-4.217-14.758-0.106-1.3-2.38-0.432-2.812-1.406-0.688-7.042-2.028-13.433-5.622-17.569-0.807-16.013-16.322-24.182-9.839-42.87-5.408-5.478-9.176 5.613-9.839 9.839-1.262 8.034 1.502 15.789 2.108 25.3 0.518 8.126-0.187 16.891-0.703 24.598-0.293 4.368-1.66 8.588-1.405 11.947 0.145 1.909 1.596 3.064 2.108 4.919 1.297 4.693 1.55 9.835 2.811 14.759 1.209 4.721 3.125 9.411 2.812 14.056-4.09-1.754-3.812-7.61-4.92-11.947-1.128-4.416-2.397-8.852-3.514-12.65-2.591 4.438-0.174 13.882-4.919 16.164-6.779-7.021-4.663-20.352-5.623-34.437-0.412-6.056-2.961-11.736-3.514-17.569-0.424-4.468 1.256-8.537 1.405-12.65 0.26-7.11-1.598-14.438-3.514-20.381 0.824-0.113 0.593-1.281 0.703-2.108-0.328-1.5 1.004-1.339 2.108-1.406 0.797-4.123 0.352-9.487 2.108-12.65-1.055-0.82-1.719-2.03-3.515-2.108-2.451 4.022 3.104 8.53 0.703 12.65-3.255-1.196-2.33-6.572-2.811-10.542-2.501-1.036-4.505 3.716-9.137 2.811-1.828-3.089 0.387-7.343 1.405-9.839-3.448-2.266-5.064-2.733-8.433-4.217 4.184 15.025 10.113 28.306 12.65 44.978-2.69 3.868-5.398 7.72-11.244 8.433 1.414-4.911 6.341-6.309 9.136-9.839-3.103-15.404-9.167-27.845-12.65-42.87-0.031-1.202 0.522-1.82 1.406-2.108-3.661-1.493-3.07-7.237-7.028-8.433 1.404-4.687 5.149-7.033 5.622-12.65-3.132-1.006-1.846 8.449-6.325 8.434v-2.811c-3.401 11.674-8.164 24.175-11.245 35.842-1.061 4.018 0.029 8.488-3.514 11.245-2.989 0.212-0.715-3.747-0.703-4.919-2.222 1.539-0.931 3.781-2.108 6.325-0.823 1.778-3.38 3.119-4.217 4.919-0.739 1.59 0.003 3.577-0.703 4.919-3.979 7.57-9.883 9.363-18.272 13.353-0.425 1.683-1.01 3.206-0.703 5.622-4.563 2.465-6.77 7.286-12.65 8.434-0.511-6.602 5.462-6.72 9.136-9.136-0.295-3.34 1.022-5.069 1.405-7.73 3.369-1.316 6.996-2.375 10.542-3.514 9.911-10.001 14.288-25.537 21.786-37.95-0.586-6.41 4.086-11.082 5.622-16.867 0.323-1.214-0.478-2.92 0-4.217 2.371-6.43 7.998-11.898 8.434-18.272 0.181-2.652-2.397-4.997-0.703-7.731-4.005-3.726-11.599-3.863-13.353-9.839-0.408-2.75 0.604-4.081 1.406-5.622-6.95-8.677-6.85-21.662 1.405-28.814 0.948-11.468 8.753-16.079 15.461-21.787 0.131-10.645 11.49-10.062 14.055-18.272 6.567-2.101 12.155-5.181 17.569-8.434 15.193-1.388 25.535 6.505 40.059 5.622 2.802 3.055 5.089 6.625 7.028 10.542 0.715-0.457 0.727-1.616 2.108-1.406 5.313 2.799 5.08 10.416 7.027 15.461 1.243 3.22 4.053 7.776 4.217 13.353 0.16 5.456-3.763 11.621-2.811 16.867 0.599 3.303 3.633 4.194 6.325 7.028 0.582 0.613 0.112 2.203 0.702 2.811 1.383 1.426 1.894 1.594 3.514 4.217 3.447 5.58 7.47 7.072 8.434 12.65 2.075 1.439 3.661 3.367 4.92 5.622 6.04 1.456 16.008-1.015 16.866 5.623-7.223-2.148-18.733-0.007-24.597-3.514-14.84 9.055-14.046 33.744-24.598 47.086v4.217c-1.727 1.085-2.8 2.823-4.217 4.217-3.057 0.012-6.323 0.232-8.434-0.703-0.787 5.248 4.201 10.786 3.514 18.272-3.669-1.561-2.691-7.086-3.514-10.542-0.997-4.191-2.87-7.74-3.514-11.245-4.01-2.79-4.63-8.96-9.85-10.54zm-40.76-116.66c0.937 0.915 2.121 0.433 2.812-0.703-0.929-0.008-0.643-1.232-1.405-1.406-0.16 1.004-1.15 1.186-1.4 2.109zm20.38 4.92c2.462-0.146 5.689-3.172 4.92-4.217-0.9 2.15-4.02 2.067-4.92 4.217zm-23.89 2.108c1.796-0.313 3.231-0.985 4.217-2.108-1.18 0.937-4.48-0.256-4.22 2.108zm5.62 3.514c-0.375-1.012 2.739-1.715 0.703-2.108 0.08 0.719-3.03 1.422-0.7 2.108zm9.84 5.622c1.453-1.45 4.24-4.208 2.812-6.325-3.108 0.875-7.444 0.521-7.028 4.919 3.24-0.981 4.3-0.5 4.22 1.406zm-15.46-0.702c1.517 0.044 5.646-0.824 3.514-2.108-0.54 0.92-5.77 2.862-3.51 2.108zm33.73 4.216c-0.273-1.834-0.36-3.855-1.405-4.919-1.44 1.519-0.25 4.371 1.4 4.919zm29.52 7.731c-0.418-1.456 0.869-4.617-0.702-4.919-3.926 4.977-9.029 8.774-12.65 14.055 3.293-0.699 7.095-6.954 11.947-8.433 0.168 1.003 1.157 1.185 1.405 2.108 0.934 2.563-2.955 6.244 0 6.325 5.303-0.08 10.138-13.444 6.325-20.38-0.9 4.957-1.4 10.309-6.32 11.244zm-52.71-4.92c0.932-2.348 2.184-4.376 4.217-5.623-3.326 1.359-6.55 2.821-9.137 4.919-1.243 4.971 2.654 7.828 6.325 5.623 0.07-2.18-2.22-2.005-1.41-4.919zm-21.79 1.406c5.75-0.586 7.1 6.942 11.948 4.919-3.388-0.575-1.157-6.49-2.108-7.73-1.463 1.114 0.426 5.58-2.812 4.919-1.186-2.315-0.417-4.493 0-7.028-4.29-0.302-4.75 3.219-7.03 4.92zm52.71 0.702c-1.974-0.403-3.264-5.123-5.622-2.811 2.523 4.266-4.188 11.416 0 18.272 1.203-0.671 1.416-2.333 2.812-2.811-1.237-2.457-2.345-7.565 0.702-9.136 1.579-0.541 0.02 5.466 1.406 2.811 0.33-2.949 0.671-5.888 3.514-6.325-0.538-2.039-1.111-4.042-2.812-4.919-0.07 2.039 2.96 4.042 0 4.919zm-38.65-0.702c0.112-0.489-0.246-4.09-0.703-2.108-0.62 2.675 0.37 3.519 0.7 2.108zm49.9 2.108c-1.225 1.317-3.854 2.772-5.622 4.919-1.016 1.233-4.804 7.101-2.812 6.325 0.242-1.866 1.845-2.372 3.514-2.811 0.52-6.508 7.999-6.057 7.73-13.353-2.48 0.099-2.01 3.153-2.81 4.92zm-7.03 3.514c-0.345-2.267 3.28-4.153 1.406-5.623-0.12 1.806-2.99 4.452-1.41 5.623zm-67.47 16.867c5.977-2.571 12.872-6.89 19.678-2.811 1.365-0.918-1.408-3.72 1.405-4.217 1.939-0.244 4.936 2.018 6.325 0-1.82-0.991-4.755-0.867-4.217-4.217 5.327-1.604 17.206 2.592 20.381-2.811-3.125-0.056-7.315 2.491-9.136 1.405-0.535-2.643 3.731-0.485 2.811-3.514-6.225 4.241-10.984 1.929-21.083 2.108 0.196 1.602-0.169 2.642-1.406 2.811-1.963 0.789-4.424 0.219-6.325 0.703-1.381 0.352-7.201 2.507-7.73 2.811-0.488 0.281 0.044 1.716-0.703 2.108-0.673 0.354-3.87-0.545-2.811 2.812 4.309-1.312 10.66-7.292 15.461-3.514-4.4 1.915-9.69 2.95-12.64 6.326zm63.25-11.245c0.793-1.356 4.771-3.141 2.812-4.919-0.43 1.569-4.19 6.091-2.81 4.919zm-15.46 8.434c-2.001 2.157 3.111-0.295 4.217-2.108 2.386-3.914-0.61-7.66-2.108-9.839-0.55 5.146-2.479 7.279-4.92 9.839-0.891 0.935-1.802 2.102-2.811 2.811-4.801 3.373-7.58 2.035-13.353 3.514-10.091 2.584-12.836 11.024-16.867 19.678 10.136 3.137 5.649 20.247 2.108 27.408 0.999 1.344 2.17 2.515 3.514 3.514 3.972-1.65 7.87-3.375 13.353-3.514 2.013-1.091-1.464-3.279 0.703-4.217 5.763 3.374 13.269 5.004 15.461 11.947-2.269-0.384-5.989 1.24-9.839 1.406-3.686 0.159-9.29-2.464-10.541 1.406 3.202 1.014 8.248 0.185 9.136 3.514 0.414 2.522-4.197 0.019-3.514 2.811-0.158 1.329 0.792 1.551 0.702 2.812 9.635 4.816 18.498-0.828 24.598-4.919 8.33-5.588 14.156-10.532 18.976-18.272 2.034-3.268 2.815-7.011 5.622-8.434-1.536 10.88-7.981 16.851-13.353 23.895 5.244 6.703 6.573 17.321 16.163 19.678 5.819-3.747 6.612-11.441 9.137-18.975 0.062-0.188 1.28-0.453 1.405-0.703 0.377-0.754-0.346-2.04 0-2.811 1.517-3.384 4.657-6.153 5.622-9.839 3.431-13.097-1.581-25.259-2.108-35.842-0.925 10.319-7.661 14.828-10.541 23.192-0.827 0.11-1.995-0.121-2.108 0.703 0.468 1.897-1.511 7.375-4.92 7.73 0.011-6.549 4.828-8.291 6.325-13.353-3.896-0.616-2.768 3.792-4.92 4.92 0.445-5.11 0.232-5.696-0.702-9.839 11.024 0.249 12.325-9.227 14.758-17.57-3.965 1.388-2.188-2.965-3.514-4.217-3.786-0.975-2.945 2.677-6.325 2.108 1.638 2.814 4.541 4.361 4.92 8.434 0.75-0.656 0.219-2.593 2.108-2.108 0.907 7.471-5.917 6.26-9.839 5.622-1.225-4.044 0.3-6.472-2.108-9.136 1.793-4.618 6.272-10.009 12.649-7.73 0.102-2.209-1.802-2.415-3.514-2.811-11.443 1.909-9.7 17.005-23.895 16.164v-4.919c-6.234-1.262-11.418-3.574-12.649-9.839-4.073 1.606-13.464 5.685-14.056 1.405-0.187-1.343 3.918-2.516 4.919-3.514 2.276-2.269 2.273-5.346 4.92-5.623 0.27 3.049-1.27 4.328-2.8 5.605zm48.49-6.325c1.159-0.312 1.159-5.31 0-5.622-0.78 2.099-2.38 5.141 0 5.622zm-92.77-2.811c0.011-1.161 1.949-0.394 2.108-1.406-1.43-0.603-3.87 1.106-2.11 1.406zm4.92 22.488c0.102-0.83 1.251-1.593 0-2.108-0.381 2.43-2.986 2.637-3.514 4.919 1.656-0.016 2.069 1.21 4.217 0.703 3.143-3.416 2.994-10.125 6.325-13.353-1.751-0.591-3.765-0.92-6.325-0.703-0.157 1.764-3.562 3.871-2.108 4.919 0.642-1.232 1.307-2.442 3.514-2.108-2.101 4.993-0.354 3.122 0.703 7.028-1.75-0.927-2.2 2.779-2.81 0.703zm11.95-7.73c2.641 0.532 2.377-1.839 3.514-2.811-2.06 0.047-2.61 1.606-3.51 2.811zm-22.49 0.703c-0.104 1.743-0.131 3.411 1.405 3.514 0.048-2.061 1.607-2.61 2.812-3.514 0.974 0.432 0.105 2.706 1.405 2.811-0.914-1.745 2.062-2.917 0-3.514-1.28 0.913-2.58 0.339-5.63 0.703zm104.72 9.838c5.21 3.716 6.336 9.26 7.027 16.164 3.354-0.628 3.921-4.044 6.325-5.622 1.475-8.854-9.553-4.355-7.028-11.947-3.222-0.058-2.686-3.874-6.324-3.514v4.919zm-16.87 1.406c2.291 0.183 3.383-0.834 3.514-2.811-0.487-0.55-3.921-1.564-4.217 0 1.98 0.69-1.01 1.875 0.71 2.811zm-77.31 13.353c1.336 4.989-0.125 12.775 6.325 12.65 2.52-6.939 0.97-18.585-6.33-12.646zm98.39 3.514c0.196-1.602-0.17-2.642-1.406-2.811 0.17 1.245-0.7 3.519 1.41 2.811zm-80.11 22.492c3.276 1.914 13.089 1.229 16.163-1.406-3.964-0.486-6.303-2.599-9.136-4.217-1.29 2.93-5.38 3.05-7.02 5.63zm-13.36 2.81c0.221-0.95 1-1.342 0.703-2.811h-2.108c-0.19 1.6 0.18 2.64 1.41 2.81zm2.81 4.21c1.142-0.83 2.555-4.449 0-4.92-0.65 0.6-1.5 4.49 0 4.92zm2.11 0.71c0.101-0.831 1.251-1.593 0-2.108-0.1 0.83-1.25 1.59 0 2.11zm44.98 3.51c2.459-0.987 4.499 1.971 5.623 0-1.49-1.11-4.47-2.24-5.62 0zm-40.06 7.73c0.894-2.387 3.897-2.662 4.217-5.623-0.903-1.205-1.453-2.763-3.514-2.811-0.9 3.26-1.86 5.86-0.71 8.43zm35.14-2.81c0.64-1.22 2.462-1.816 3.514-0.703v-3.514c-1.74 0.4-5.68 2.22-3.51 4.21zm-9.13 2.81c-5.976-0.233-7.038 3.645-11.947 2.811-0.521 1.855-2.57 5.816-0.702 7.73 0.896-2.383 1.852-4.707 3.514-6.325 2.384 0.963 4.707-0.617 6.325 0.703-1.46 7.7 2.26-2.21 2.82-4.91zm21.78 11.95c0.113-0.49-0.245-4.09-0.702-2.108-0.62 2.68 0.38 3.52 0.7 2.11zm-35.84 2.81c-0.828 7.584-0.188 16.995 0 23.895 1.099-2.181 1.84-4.72 3.515-6.325-2.078-7.94 4.743-13.056 6.324-19.678-6.533 0.729-3.612 10.912-8.433 13.353-0.585-2.632 3.717-9.737 2.811-12.65-1.76 0.54-1.48 0.84-4.22 1.41zm35.14 1.41c0.191-0.957-0.436-2.744-0.703-1.406-0.2 0.96 0.43 2.74 0.7 1.41zm-26.71 43.57c-1.116 3.455-4.742 11.491-3.514 12.65 1.124-2.155 0.42-6.14 3.514-6.325 0.421 3.466-1.826 4.265-1.405 7.73 1.917-0.512 1.414 1.396 2.811 1.405 0.131-3.051-0.172-5.859 0-9.136 0.464-8.787 3.154-18.359 0-25.3 0.421 1.826-0.282 2.529-2.108 2.108 0.624-2.446 2.711-7.096 1.406-9.136-1.046 4.773-3.851 11.336 0.702 14.056-1.01 4.15-3.77 8.32-1.4 11.94zm-6.32-17.57c-2.258 0.618-0.963-2.317-2.811-2.108-0.244 5.163 0.079 9.759 1.405 13.353 0.854 4.156 0.409-1.788 0.703-3.514 0.681-4.008 3.399-11.646 2.108-11.245-0.39 1.26-0.36 2.92-1.4 3.52zm44.98 18.97c0.512-2.937 1.957-4.203 0-7.027 0.09 2.03-1.96 5.49 0 7.03zm2.81 28.82c0.911-6.842 0.086-17.834-2.108-23.895 0.43 7.74-1.96 18.34 2.11 23.89zm-42.87-4.22c1.849-1.221 3.087-6.72 1.405-9.136 0.49 3.57-2.93 6.89-1.41 9.14zm35.14 15.46c0.906-3.31 2.563-5.87 4.217-8.433-1.798-0.545-0.155-4.53-2.811-4.217-1.63 2.61-3.26 8.91-1.41 12.65zm-36.55-4.21c1.418-1.106 2.023-3.918 0-4.919 0 1.25-1.89 4.08 0 4.92z"></path> <path d="m249.49 98.554c-1.918 0.635 2.138 1.572 0 2.811-2.57 0.462-2.695-1.521-4.919-1.406 1.172-6.326-4.689-5.618-5.622-9.839 7.287-1.187 13.208 1.774 21.083 0 0.16 2.503-1.011 3.675-3.514 3.514-1.52 1.167 2.793 1.887 0.702 4.216-3.53-1.145-5.12 3.275-7.73 0.709zm2.11-3.514c1.743 0.104 3.411 0.131 3.514-1.405-1.74-0.104-3.41-0.132-3.51 1.405z"></path> <path d="m239.65 185c1.189 2.994-0.229 5.233 0.703 9.136-1.918 0.512-1.415-1.396-2.812-1.405-0.706 5.567-7.07 8.925-9.136 14.056-1.849 4.589-0.336 10.785-2.812 14.056-0.508 0.672-2.073 1.283-2.811 2.108-3.228 3.61-8.259 7.809-11.245 12.649-5.28 0.811-7.731 4.45-13.353 4.92-0.535 4.853-1.818 8.958-6.325 9.839-0.568-3.38 3.084-2.539 2.108-6.325-0.295-1.578-3.729-0.019-4.217-1.405 1.783-9.693-3.148-12.606-5.622-18.272 6.133-0.433 10.282 6.995 9.136 16.164 1.13-3.087 0.967-7.466 1.405-11.245-4.24-5.598-13.182-6.495-16.164-13.353 8.489 2.052 13.999 7.085 19.678 11.947-0.41 3.69 1.238 5.321 0.703 9.137 2.147 0.508 2.561-0.719 4.217-0.703 0.801-6.188-1.49-9.286-1.406-14.759 6.266-0.409 5.317 6.396 7.028 10.542 5.956-2.013 10.022-11.995 11.245-21.083 1.63-0.225 2.698 0.112 3.514 0.702-0.194-9.798 5.338-13.871 9.838-18.975-0.195-1.476-1.877 1.018-2.811-0.703-6.238 5.007-15.033 7.457-26.706 7.028-1.228-1.583-3.283-2.339-2.811-5.622 12.662 1.864 23.067-6.957 34.436-6.325 0.59-1.55 1.72-2.52 4.21-2.14z"></path> <path d="m186.94 198.35h1.406c7.837 6.452 15.509 13.07 23.191 19.678-0.218 2.358-2.351 2.803-4.216 3.514-7.82-6.7-17.64-11.41-20.38-23.19z"></path> <path d="m156.72 312.2c0.431 10.309-1.406 16.965-1.405 25.3 2.05 2.647 5.461 1.545 8.433 2.108 6.84 1.299 13.756 3.627 18.975 6.325 1.048 3.743 2.26 6.577 1.406 10.542-5.804 6.846-18.249 7.052-30.22 7.73-2.02 2.236-2.146 6.726-1.405 9.839-0.224 1.864 3.937-0.657 2.811 2.108-3.044 1.567-9.971 0.879-14.758 0.703 0.49 2.789 4.763 1.796 5.622 4.217 0.415 6.534-6.727 4.489-11.245 3.514 0.113-0.823 1.281-0.593 2.108-0.703-3.306-1.632-7.949-3.195-7.73-6.325-1.133 1.444-3.524 1.631-6.325 1.406-0.329-1.5 1.004-1.339 2.108-1.406-3.973-2.352-9.748-2.902-14.056-4.919-0.143-2.888 3.55-0.644 4.919-0.703 1.365-0.059 2.847-0.748 4.217-0.702 5.707 0.189 12.425 3.437 16.164 0.702-0.134-0.569-0.705-0.7-0.703-1.405-1.606-0.151-8.709 0.834-12.65-0.703 1.131-4.659 8.947-3.369 13.353-2.811 0.155 2.422 1.827 3.327 2.108 5.622 2.753-1.928 7.011 0.789 9.136-0.703 1.08-3.422-2.576-2.108-3.514-3.514-0.325-2.902 4.949-0.205 4.919-2.812-0.371-3.901-4.525-2.292-7.028-2.811-4.679-0.971-12.001-1.548-16.867-3.514-0.531-0.215-0.915-1.914-1.406-2.108-3.072-1.22-7.261-2.414-7.73-7.028-1.238-12.179 18.337-12.48 33.031-12.65 4.16-6.36-3.15-30.25 7.74-25.32zm-2.81 10.54c0.113-0.49-0.246-4.09-0.703-2.108-0.62 2.68 0.37 3.52 0.7 2.11zm-13.35 17.57c-5.502 0.118-21.83 0.94-21.083 8.434 0.67 6.735 24.437 8.429 33.733 9.839 5.002 0.759 10.036 0.519 14.056 0 1.663-0.215 9.407-2.008 10.542-2.812 1.629-1.153 3.725-4.78 2.812-7.027-6.002-5.009-16.567-5.454-25.3-7.73-1.771 2.445 0.842 9.275-3.514 9.136-0.95-0.221-1.342-1-2.811-0.703-1.074-4.562-0.724-6.042-0.703-9.136-2.42 0.04-5.38-0.05-7.74 0z"></path> </g> <metadata></metadata></svg> 