<?xml version="1.0" encoding="UTF-8" standalone="no"?> <!-- Generator: Adobe Illustrator 13.0.1, SVG Export Plug-In . SVG Version: 6.00 Build 14948) --> <svg xmlns:rdf="http://www.w3.org/1999/02/22-rdf-syntax-ns#" xmlns="http://www.w3.org/2000/svg" xmlns:x="http://ns.adobe.com/Extensibility/1.0/" xmlns:dc="http://purl.org/dc/elements/1.1/" xmlns:i="http://ns.adobe.com/AdobeIllustrator/10.0/" xmlns:cc="http://web.resource.org/cc/" xmlns:xlink="http://www.w3.org/1999/xlink" xmlns:a="http://ns.adobe.com/AdobeSVGViewerExtensions/3.0/" xmlns:graph="http://ns.adobe.com/Graphs/1.0/" xmlns:svg="http://www.w3.org/2000/svg" xmlns:inkscape="http://www.inkscape.org/namespaces/inkscape" xmlns:sodipodi="http://sodipodi.sourceforge.net/DTD/sodipodi-0.dtd" xmlns:ns1="http://sozi.baierouge.fr" id="walking_xA0_Image_1_" xml:space="preserve" viewBox="0 0 645.984 273.483" y="0px" x="0px"> <g clip-rule="evenodd" fill-rule="evenodd"> <path d="m539.7 153.85c-0.126-0.534-0.663-0.658-0.66-1.32 0.52 8.079 6.741 12.997 6.602 20.465-0.074 3.938-3.594 8.388-5.941 14.523-2 5.228-3.126 11.284-5.281 15.184-1.332 2.41-4.083 4.213-5.281 6.602-2.026 4.035-2.294 10.439-3.961 15.184-0.694 1.975-2.403 4.498-3.301 6.602-1.122 2.627-1.725 5.18-2.641 7.262-1.579 3.588-4.529 6.012-4.621 8.582-0.233 6.495 8.499 12.676 11.223 17.824 3.759 1.092 7.411-0.034 8.582 3.961 26.813-1.084 63.153 0.164 91.102 0 2.926-0.017 7.183-0.351 10.562-0.66 3.285-0.3 9.762-3.712 9.902 2.641-0.495 3.538-4.378 0.073-5.281 0-0.907-0.073-6.246 1.395-8.582 1.32-1.697-0.054-3.499-1.141-5.281-1.32-4.139-0.415-9.353-0.051-13.863 0-5.146 0.059-10.293-0.135-15.184 0-3.989 0.11-8.02 1.359-11.883 1.32-3.519-0.035-7.031-1.285-10.562-1.32-9.185-0.091-19.251 0.713-28.387 1.32-8.86 0.59-20.505 0.191-33.008 0-35.297-0.539-67.492-0.209-98.364 0-0.839 0.006-1.988 0.718-2.641 0.66-1.203-0.105-2.205-1.288-3.301-1.32-6.567-0.192-13.926 2.598-18.484-0.66-7.791 3.483-20.037 0.815-31.688 1.32-8.897 0.386-23.914 0.154-36.309 0-51.163-0.634-113.42 2.12-160.42 0-2.136-0.815-0.504 2.137-2.641 1.32-9.624-1.231-21.209-0.754-33.668-0.66-11.272 0.086-22.327-0.416-33.668 0-26.867 0.986-52.643 0.435-79.879 0-2.763-0.044-7.338 1.166-9.242-1.32 5.23 0.446 7.71-0.556 14.523 0-0.159-2.924-3.671-5.369-6.602-7.922-3.496-3.046-10.139-6.285-11.223-11.223-1.54-7.017 2.037-13.021 9.902-13.863 7.178-12.406 10.475-28.694 19.805-38.949 3.242-0.83 7.958-4.549 9.902-8.582 1.411-2.928 1.235-7.865 1.98-12.543 0.762-4.784 2.302-10.289 3.301-15.844 1.029-5.721 3.482-12.051 3.301-15.184-0.154-2.657-2.479-5.058-2.641-7.262-0.584-7.946 6.862-14.222 7.922-21.125 1.725-11.236-4.919-18.875-6.602-27.727-0.07 8.965 4.387 17.146 2.641 26.406-1.565 8.301-8.044 14.508-8.582 23.766-0.475 8.166 2.922 16.718-4.621 21.125-4.373-0.719-7.013-0.85-8.582-2.641-6.299-7.191 5.297-15.606 6.602-21.125 0.442-1.869-0.666-3.741-0.66-5.941 0.007-2.841 1.293-7.213 1.98-11.223 1.285-7.492 2.309-13.192 3.961-19.805 0.783-3.135 1.209-6.704 1.98-9.242 0.686-2.255 2.939-4.195 3.301-6.602s-0.836-6.053-0.66-9.242c0.485-8.794 4.336-20.114 7.922-27.727 1.716-3.644 5.428-7.945 4.621-13.863-0.391-2.869-4.014-5.74-4.621-9.242-1.074-6.196 0.757-8.829 2.641-13.863 4.721-2.479 9.895-5.737 15.844-5.281 0.466 0.036 1.27 1.172 1.98 1.32 5.38 1.123 10.378 4.454 13.203 7.922-1.972 7.059-0.12 10.757 1.98 16.504-1.388 1.472-3.726 1.996-4.621 3.961-0.215 2.426 0.563 5.845-0.66 7.262-2.8 0.798-5.782 0.798-8.582 0-5.238 4.139-1.496 8.89 1.98 13.863 0.506 0.724 0.658 1.857 1.32 2.641 2.326 2.75 5.631 6.622 6.602 11.883 0.384 2.083-0.226 4.76 0 6.602 0.267 2.177 1.604 4.004 1.98 5.941 1.338 6.894 0.682 13.289 0 21.785-13.647 1.673-7.721-19.507-11.883-31.027-1.773-4.909-4.221-7.615-8.582-9.242-0.133 3.962 4.219 4.749 5.941 9.242 0.469 1.223 1.1 4.459 1.32 5.941 1.388 9.319 0.688 20.653 5.281 27.066 1.104 0.556 2.442 0.321 3.961 0.66 1.279 0.286 1.421 0.978 2.641 1.32 6.368 1.788 10.707 2.921 16.504 5.941 0.688 0.359 1.493 1.802 1.98 1.98 2.771 1.015 5.435 0.191 7.262 1.32 3.165 1.957 7.472 9.797 7.262 12.543-0.344 4.496-4.26 6.151-9.242 7.262 0.122-0.562-0.257-0.623-0.66-0.66-4.484-3.438-7.026-8.817-11.223-12.543-11.327-5.673-25.316-4.028-33.008-12.543-7.354-8.141-4.224-22.459-9.242-34.328-4.575 5.584-0.44 13.823 1.32 20.465 1.673 6.311 2.849 13.996 7.262 17.824 6.159 5.344 14.343 4.533 21.785 8.582-3.363 10.465 3.37 18.202 7.262 28.387 2.566 6.717 4.156 15.273 6.602 23.766 1.545 5.366 3.817 10.722 4.621 15.844 0.667 4.244 0.068 8.447 0.66 12.543 1.116 7.721 4.022 17.534 5.281 27.066 1.033 7.821 0.158 16.718 3.961 21.125 4.811 5.575 14.61 10.379 20.465 11.223 1.926 1.275 0.545 3.347 1.32 4.621 4.388 0.744 8.801-1.143 9.242 0.66 1.648-1.264 3.837-1.196 5.941-1.32 16.537-0.975 41.117 0.849 59.414 0-1.257-8.09 2.061-15.187-0.66-25.746-2.409-9.349-8.098-20.369-9.242-29.707-0.303-2.473-0.572-7.225 0-9.242 1.255-4.424 7.642-7.947 9.242-13.203 1.571-5.157 0.317-13.914 0-21.125-0.428-9.749-1.272-20.636-4.621-29.047-0.55 5.752 1.786 12.116 1.98 19.145 0.339 12.218 2.661 26.832-1.98 34.988-1.911 3.358-7.172 6.85-11.223 10.562-3.845 3.525-7.998 7.073-11.883 9.902-1.937 1.411-4.368 2.773-6.602 4.621-1.836 1.52-3.272 3.757-5.281 5.281-4.022 3.054-12.969 6.084-13.863 9.902-0.896 3.83-1.771 11.384-0.66 17.164 0.553 2.878 3.362 5.196 2.641 8.582h-8.582c-4.387-2.615-4.423-7.453-6.602-13.203-1.943-5.129-7.615-10.193-6.602-15.184 0.93-4.58 7.233-4.409 11.223-6.602 4.511-2.479 5.615-6.062 9.242-7.922 0.834-4.091 5.147-7.351 7.922-11.223 3.519-4.91 5.265-8.983 9.902-11.883 5.102-3.189 12.597-3.658 13.863-7.922 1.339-4.508-3.783-10.645-5.281-17.164-1.29-5.616-0.055-10.767-1.32-15.844-1.634-6.556-9.023-11.805-8.582-21.125 0.379-7.999 7.282-11.423 5.941-21.125-3.817 8.073-8.642 15.728-7.262 27.066 0.676 5.554 3.916 10.052 3.301 15.184-0.445 3.715-2.747 7.534-5.941 9.242-4.862-2.62-7.551-7.412-7.922-14.523 1.844-2.557 4.489-4.313 6.602-6.602 2.561-8.246 0.276-18.351 0.66-29.047 0.21-5.846 2.17-12.019 2.641-18.484 0.939-12.896-2.851-24.579 1.32-34.988 2.354-5.872 5.979-11.627 7.922-17.164 1.37-3.904 1.193-8.33-0.66-13.203-1.19-3.131-3.906-5.041-3.961-9.902-0.05-4.505 3.189-12.874 5.281-14.523 7.603-5.994 25.884 0.917 29.047 7.262-1.099 7.021-1.477 12.081 1.32 17.164-5.226 1.813-4.846 6.024-4.621 10.562-2.771 2.378-5.231-0.357-7.922 0.66-4.015 6.308 1.611 10.942 4.621 15.184 4.074 5.74 9.347 12.295 5.941 20.465 4.101 11.654 3.392 27.644 1.32 40.93-2.476 0.715-3.485-2.404-4.621-3.961-1.299-1.779-2.476-3.996-3.961-5.941-2.408-3.156-7.305-7.399-7.922-11.223-0.486-3.012 1.243-6.113 1.32-9.242 0.109-4.401-1.383-7.798-1.32-12.543-0.038 8.86-4.103 18.649 0 25.746 5.245 9.072 16.73 19.002 21.125 27.727 9.442 0.631 15.134 7.958 13.203 17.824-8.608 5.623-15.996-2.074-17.824-9.242-0.24 7.674 3.751 14.106 5.281 22.445 0.746 4.061 0.521 8.569 1.32 13.203 1.273 7.382 3.83 14.887 3.301 25.086-0.365 7.04-0.933 13.897-0.66 21.125 0.401 10.627-2.556 23.109 2.641 33.008 3.408 6.492 11.542 12.462 19.805 13.203 1.754 1.548 3.807 2.796 4.621 5.281 20.962-0.546 33.13-0.328 54.133-0.66-0.52-8.286 3.628-15.606 2.641-24.426-0.646-5.765-5.619-14.641-3.961-23.766 5.472-3.99 10.737-8.187 18.484-9.902 1.192 11.256-7.04 25.557-3.301 38.949 1.944 6.964 10.818 7.432 13.203 13.863 3.305-0.443 5.11 0.611 7.922 0.66 2.004 1.711 0.676 2.455 0 4.621 26.617-0.196 46.394-0.862 73.277-0.66-2.476-6.564-12.175-2.081-21.125-1.98-6.514-7.176 1.112-15.955 1.98-25.086 0.768-8.067-2.425-19.604-1.32-29.047 0.541-4.614 3.498-8.747 3.301-13.203 10.923-10.202 3.643-38.607 11.223-52.152-0.248-9.931 5.113-14.252 4.621-24.426-4.447 4.139-3.106 14.223-5.941 22.445-1.496 4.341-7.386 16.383-13.203 15.844-3.254-0.301-6.258-4.048-6.602-7.262-0.898-8.405 8.916-11.68 11.883-19.145 2.223-5.589 0.78-14.219 1.98-22.445 1.056-7.23 4.264-10.554 3.961-19.805-0.051-1.567 1.203-4.851-1.32-5.941 4.343-9.282 0.938-16.265 3.301-25.746 0.495-1.986 2.804-4.211 3.961-6.602 1.212-2.5 1.563-5.329 2.641-7.262 2.011-3.606 6.286-6.198 5.941-12.543-0.227-4.18-3.834-7.386-4.621-11.223-1.042-5.081-0.231-8.135 1.32-13.863 2.414-0.447 3.662-2.059 4.621-3.961 4.965-0.917 10.138-2.041 15.184-1.32 5.318 0.76 9.361 4.09 12.543 5.941-0.028 1.129 0.491 1.71 1.32 1.98-0.533 3.537-1.411 5.206-1.32 8.582 0.069 2.556 1.612 5.257 1.32 7.262-0.421 2.894-2.951 3.672-3.961 6.602-0.825 2.397-0.012 3.888-0.66 6.602-2.278 0.896-5.804-0.141-8.582-0.66-4.127 4.113-2.793 8.313 0 11.883 3.665 4.684 7.516 12.059 10.562 17.824-2.851 6.267 1.785 12.841 1.98 19.145 0.09 2.894-2.043 6.466-1.32 9.242 0.595 2.282 4.461 4.487 7.262 6.602 5.284 3.989 7.563 6.318 12.543 9.902 5.973 1.691 16.607 3.349 15.184 14.523-5.894 8.824-16.815 1.64-19.145-5.941-9.074 1.252-11.14-3.567-19.145-4.621-1.385 2.355-0.638 6.844-1.98 9.242-3.791-0.169-2.73-5.19-6.602-5.281 1.872 6.114 6.859 11.337 11.223 16.504 4.054 4.799 9.275 9.803 11.883 15.844 0.985 2.282 0.861 5.516 1.98 8.582 2.318 6.352 8.579 10.895 9.242 18.484 0.331 3.779-1.559 6.78-1.98 10.562-0.385 3.451 0.65 7.037 0.66 11.223 0.034 13.185-4.83 28.214-1.32 38.949 5.037 4.865 12.981 7.294 21.125 7.262 0.728 7.963-9.417 6.445-17.824 7.922-6.442 1.132-12.423 7.386-17.164 2.641-2.19-8.287 0.866-16.137 0-25.086-0.732-7.571-4.463-14.77-5.281-22.445-1.038-9.75 4.342-21.191 1.32-29.047-1.509-3.924-7.539-8.022-11.223-11.883-6.782-7.107-11.999-11.061-16.504-19.805-1.979 6.794 5.917 9.299 6.602 15.184 0.529 4.538-3.53 8.391-5.281 13.203-1.763 4.848-1.762 9.312-3.301 13.863-1.112 1.088-2.967 1.435-3.961 2.641 0.08 7.298-1.061 12.384-2.641 19.805-1.533 7.206-4.026 12.866-5.941 21.125-0.896 3.866-1.814 8.075-1.32 9.902 0.772 2.854 4.879 3.595 7.922 6.602 2.273 2.246 3.813 5.99 5.941 7.262 2.455 1.467 5.75 1.576 8.582 2.641 0.811 3.011-2.314 2.086-2.641 3.961 32.673-0.31 64.69-1.183 95.063 0 0.294-6.083-12.006-5.108-17.165-7.922-3.311-6.185 2.597-9.105 4.621-14.523 2.936-7.854 2.607-19.494 4.622-29.047 2.034-9.65 5.139-17.323 10.562-23.766v-5.941c5.697-4.852 3.682-14.357 4.621-23.105 0.698-6.506 4.132-13.172 3.961-19.145-0.108-3.768-3.107-7.223-1.98-11.223-2.464 2.218-2.328 6.692-3.301 11.223-1.286 5.984-2.356 14.737-8.582 14.523-3.847-0.132-6.931-5.209-6.602-9.902 0.396-5.657 7.253-10.523 9.242-13.863 2.968-11.775 2.178-27.309 8.582-35.648-0.482-9.383 0.728-21.344 5.941-28.387 0.218-2.419-0.733-3.668-1.32-5.281 3.65-4.372 2.769-9.525 4.621-15.184 2.339-7.144 8.187-10.105 7.262-17.824-0.338-2.812-2.455-4.094-3.301-6.602-1.82-5.391-1.086-9.9-0.66-16.504 2.912-3.598 6.874-7.599 14.523-7.922 6.947-0.293 14.676 3.32 17.164 7.262-1.775 7.032-1.209 12.511 2.641 17.824-3.081 2.641-3.697 7.746-4.621 12.543-4.339 1.206-10.245-0.365-11.223 4.621-0.66 3.363 4.554 8.085 6.602 11.883 0.953 1.77 1.439 4.531 2.641 6.602 1.269 2.188 3.385 3.167 3.961 5.281 0.482 1.774-0.263 4.306 0 6.602 0.745 6.521 2.955 16.278-1.32 22.445 6.718 4.064 16.445 5.12 23.105 9.242 6.739-0.282 17.966 1.426 18.484 7.922 0.247 3.098-3.925 7.903-7.262 8.582-6.403 1.302-10.945-3.584-13.863-7.922-5.501 2.156-11.678-0.649-19.805 0-2.991 2.511-2.66 8.343-4.621 11.883-2.974-0.107-2.077-4.085-5.281-3.961 4.479 9.225 12.083 21.329 15.184 32.348 2.113 7.514 1.908 15.374 3.961 23.766 2.713 11.095 7.186 21.78 11.223 32.348 4.15 10.867 5.822 22.531 11.223 31.688 6.831 2.851 16.244 2.341 23.105 1.98 1.57 3.142-2.593 5.588-3.301 8.582-11.808 0.359-16.174 11.467-27.727 9.902-1.735-3.359-0.056-7.8-1.32-12.543-1.307-4.898-6.3-8.694-9.902-13.863-1.601-2.295-2.867-4.873-4.621-7.262-3.911-5.323-8.343-11.391-10.562-19.145-1.628-5.683-0.955-12.279-3.301-18.484-2.378-6.287-7.397-12.527-11.223-18.484-4.67-7.35-7.59-14.62-11.17-21.13zm0-62.714c-6.255 5.628-6.062 17.705-7.922 27.727-2.915 3.473-6.206 10.07-5.941 14.523 4.05-9.459 9.79-18.174 9.902-29.707 4.458-7.864 8.649-15.996 10.562-26.406 1.396-2.14 4.374-6.167 3.301-8.582-4.64 6.147-7.73 13.839-9.9 22.454zm-128.73 11.224c0.898 8.165-1.818 16.22-2.641 20.465 4.453-3.041 3.709-7.7 4.621-14.523 0.502-3.75 3.529-7.004 2.641-11.883 3.805-6.761 5.309-19.334 7.922-25.086-7.93 6.594-6.18 22.87-12.54 31.029zm-201.35 33.67c-0.514-0.146-0.768-0.553-0.66-1.32-11.689-6.134-19.327-16.321-27.727-25.746-3.076-6.036-3.826-14.055-5.281-21.785-0.57-3.031-1.12-6.654-3.301-8.582-0.78 29.197 16.91 49.087 36.97 57.437zm355.82-19.81c0.444-3.638 4.157-10.64 0.66-13.863-0.52 3.89-2.54 9.76-0.66 13.86zm-125.42 1.32c1.884-2.967 3.425-9.766 1.98-13.863-0.55 4.3-4.24 8.96-1.98 13.86zm-371.01 51.49c-1.04 3.088-1.51 6.438-2.641 9.242-2.058 5.102-6.071 8.937-7.922 13.863-1.003 2.67-0.448 6.002-1.98 8.582-1.946 3.276-6.599 4.847-9.242 7.922-4.001 4.655-6.081 9.689-7.922 15.184-3.421-0.716-5.426 3.595-8.582 6.602-2.662 2.537-6.587 4.381-8.582 6.602-7.593 8.453-4.605 19.865 0 28.387 3.862 0.759 6.302 2.94 8.582 5.281 20.353 0.993 42.847-0.779 71.297 0-2.796-3.993-1.403-8.86-1.98-13.203-1.053-7.925-5.441-15.746-8.582-23.766-5.301-13.536-3.771-28.673-7.922-40.93-4.367-6.919-11.996-12.441-11.883-21.125 0.113-8.715 9.101-16.675 7.922-27.066-0.146-0.515-0.553-0.768-1.32-0.66-3.199 8.64-6.649 17.39-9.248 25.1zm240.95 101.01h7.262c-0.54-2.94-5.89-0.51-7.26 0z"></path> <path d="m288.84 260.8c-4.115 1.529-7.422-3.02-11.883-3.301-3.401-8.984-11.383-16.699-9.903-28.387 9.072-2.151 13.222-9.224 19.145-14.523 4.753-13.29 15.631-20.457 27.066-27.066 1.676-6.357-8.261-14.698-11.223-21.125-0.709-1.539-0.094-3.057-0.66-4.621-0.846-2.339-3.979-5.603-3.961-9.902 0.202 12.782 7.817 23.869 13.203 33.668-0.14 2.721-4.109 1.613-4.621 3.961-2.594-0.221-2.82 4.112-5.281 1.98-0.17-15.894-6.143-25.984-7.262-40.93-0.309-2.056 1.66-2.359 2.641-1.32-6.267-7.885-12.903-13.888-7.922-25.746 2.109-5.022 7.319-8.453 7.922-13.203 0.598-4.713-2.213-9.949-2.641-14.523-0.92-9.836 3.392-18.854 1.32-29.047-3.483 1.358 1.254 10.937-3.301 11.223-1.939-0.262-1.642-2.814-1.98-3.961-0.931-3.15-2.056-7.272-1.32-12.543 0.384-2.754 2.554-5.184 3.961-8.582 1.075-2.598 0.958-5.811 1.98-7.922 0.703-1.453 2.653-2.386 3.301-3.961 1.334-3.245 2.77-8.471 2.641-11.223-0.218-4.625-4.342-8.125-4.621-12.543-0.435-6.881 2.854-9.409 7.262-14.523 3.501 0.22 6.16-2.442 9.242-2.641 8.921-0.574 15.667 6.19 19.144 12.543 0.924 3.344-3.028 1.812-2.641 4.621-0.725 4.686 1.647 6.275 1.98 9.902 0.678 2.218-2.053 1.028-3.301 1.32-0.695 3.486 0.028 8.39-1.98 10.562-3.135 0.275-5.4-0.321-7.261-1.32-5.44 5.192-0.511 9.352 3.96 16.504 2.381 3.808 5.869 7.527 6.602 11.223 0.735 3.708-0.46 7.69 0 11.223 0.25 1.917 1.638 3.359 1.98 5.281 1.376 7.702-1.521 15.527-1.98 23.105-0.581 9.6 0.087 18.305-3.301 25.746-4.462-0.598-2.491-7.63-5.281-9.902-2.971 9.393 4.737 14.026 7.261 23.766 2.445 9.43 2.727 22.604 4.621 33.008 1.115 6.12 4.705 11.863 1.98 17.164-1.894 1.594-4.09 2.036-6.602 3.961-1.751 1.343-3.361 4.414-5.941 6.602-2.249 1.907-5.709 2.585-8.582 4.621-2.27 1.609-4.306 4.171-6.602 5.941-6.275 4.841-12.851 7.448-17.164 11.223-4.354 3.81-6.669 14.949-3.961 24.426 1.02 3.6 3.88 3.85 3.95 9.23zm19.8-178.25c-0.54 6.483-2.479 12.791-3.301 17.824 3.989 4.679 3.403 15.77 3.961 26.406 0.383 7.316 2.611 13.454 3.961 18.484 1.476 5.502 2.923 14.555-1.98 15.844-5.111 1.344-6.364-4.807-9.242-7.262-0.57-5.989 1.269-11.351 0.66-16.504-0.364-3.078-2.4-5.3-3.301-7.922-1.068-3.11-0.344-7.043-3.301-8.582 0.399 6.609 4.392 9.588 5.281 17.164 0.52 4.436-1.459 9.644-0.66 14.523 0.692 4.232 6.604 11.606 10.562 11.223 10.241-0.993 1.217-21.015 0.66-25.086-0.851-6.216 0.508-12.795 0-19.145-0.48-5.988-2.293-11.877-2.641-17.824-0.776-13.259 4.85-26.56 2.641-37.629-4.4 3.916-2.73 11.734-3.3 18.483z"></path> </g> <metadata></metadata></svg> 