<?xml version="1.0" encoding="UTF-8" standalone="no"?> <!-- Created with Inkscape (http://www.inkscape.org/) --> <svg xmlns:inkscape="http://www.inkscape.org/namespaces/inkscape" xmlns:rdf="http://www.w3.org/1999/02/22-rdf-syntax-ns#" xmlns="http://www.w3.org/2000/svg" xmlns:cc="http://web.resource.org/cc/" xmlns:dc="http://purl.org/dc/elements/1.1/" xmlns:sodipodi="http://sodipodi.sourceforge.net/DTD/sodipodi-0.dtd" xmlns:svg="http://www.w3.org/2000/svg" xmlns:ns1="http://sozi.baierouge.fr" xmlns:xlink="http://www.w3.org/1999/xlink" id="svg1321" sodipodi:docname="TrnsltLife_TrinitySpiral.svg" viewBox="0 0 196.94 196.94" sodipodi:version="0.32" inkscape:output_extension="org.inkscape.output.svg.inkscape" inkscape:version="0.45.1" sodipodi:docbase="/Users/johnolsen/Desktop"><g id="layer1" inkscape:label="Layer 1" inkscape:groupmode="layer" transform="translate(-192.96 -436.75)"><g id="g24353" style="stroke:#000000" transform="translate(183.06 425.25)"><path id="path11883" style="stroke:#000000;stroke-width:1.0084;fill:none" sodipodi:revolution="1.4549006" sodipodi:radius="52.689331" d="m85.494 94.662c15.676-14.359 40.286-9.305 53.186 6.118 10.79 12.89 13.21 31.04 7.73 46.73" transform="matrix(-.12279 1.0661 -.91372 -.14327 220.53 33.445)" sodipodi:argument="-21.198288" sodipodi:cy="121.80966" sodipodi:cx="100.40916" sodipodi:expansion="1.6" sodipodi:type="spiral" sodipodi:t0="0.71747363"></path><path id="path12637" style="stroke:#000000;stroke-width:1.593;fill:none" sodipodi:revolution="1.7586935" sodipodi:radius="67.831467" d="m99.648 97.856c16.922-6.14 34.022 6.754 38.852 22.744 7.78 25.78-11.8 50.87-36.31 57.24-18.168 4.72-37.725 0.01-52.628-11.13" transform="matrix(-.093766 .88373 -.69776 -.11876 179.11 47.083)" sodipodi:argument="-21.198288" sodipodi:cy="121.80966" sodipodi:cx="100.40916" sodipodi:expansion="2.3" sodipodi:type="spiral" sodipodi:t0="0.63612962"></path><path id="path14822" sodipodi:rx="82.201164" sodipodi:ry="82.201164" style="stroke:#000000;fill:none" sodipodi:type="arc" d="m190.57 109.97a82.201 82.201 0 1 1 -164.41 0 82.201 82.201 0 1 1 164.41 0z" sodipodi:cy="109.96562" sodipodi:cx="108.36411"></path><path id="path14824" sodipodi:rx="82.201164" sodipodi:ry="82.201164" style="stroke:#000000;stroke-width:.70285;fill:none" sodipodi:type="arc" d="m190.57 109.97a82.201 82.201 0 1 1 -164.41 0 82.201 82.201 0 1 1 164.41 0z" transform="matrix(1.1928 0 0 1.1928 -20.893 -21.202)" sodipodi:cy="109.96562" sodipodi:cx="108.36411"></path><path id="path14826" sodipodi:rx="82.201164" sodipodi:ry="82.201164" style="stroke:#000000;stroke-width:1.3328;fill:none" sodipodi:type="arc" d="m190.57 109.97a82.201 82.201 0 1 1 -164.41 0 82.201 82.201 0 1 1 164.41 0z" transform="matrix(.86620 0 0 .86620 14.499 14.713)" sodipodi:cy="109.96562" sodipodi:cx="108.36411"></path><path id="path14844" sodipodi:rx="82.201164" sodipodi:ry="82.201164" style="stroke:#000000;stroke-width:5.3739;fill:none" sodipodi:type="arc" d="m190.57 109.97a82.201 82.201 0 1 1 -164.41 0 82.201 82.201 0 1 1 164.41 0z" transform="matrix(.18604 0 0 .18604 88.204 89.507)" sodipodi:cy="109.96562" sodipodi:cx="108.36411"></path><path id="path17776" style="stroke:#000000;stroke-width:1.0084;fill:none" sodipodi:revolution="1.455228" sodipodi:type="spiral" d="m85.494 94.662c15.676-14.359 40.286-9.305 53.186 6.118 10.81 12.92 13.22 31.12 7.69 46.83" transform="matrix(-.86188 -.63939 .58093 -.71967 118.34 245.42)" sodipodi:argument="-21.198288" sodipodi:cy="121.80966" sodipodi:cx="100.40916" sodipodi:t0="0.71731222" sodipodi:radius="52.708302" sodipodi:expansion="1.6"></path><path id="path17778" style="stroke:#000000;stroke-width:1.593;fill:none" sodipodi:revolution="1.7594727" sodipodi:type="spiral" d="m99.648 97.856c16.922-6.14 34.022 6.754 38.852 22.744 7.78 25.78-11.8 50.87-36.31 57.24-18.283 4.75-37.961-0.05-52.9-11.34" transform="matrix(-.71845 -.52307 .45173 -.54490 127.24 202.72)" sodipodi:argument="-21.198288" sodipodi:cy="121.80966" sodipodi:cx="100.40916" sodipodi:t0="0.63584781" sodipodi:radius="67.900627" sodipodi:expansion="2.3"></path><path id="path17788" style="stroke:#000000;stroke-width:1.0084;fill:none" sodipodi:revolution="1.4562063" sodipodi:radius="52.765011" d="m85.494 94.662c15.676-14.359 40.286-9.305 53.186 6.118 10.89 13.01 13.24 31.36 7.58 47.14" transform="matrix(.98467 -.42672 .33279 .86294 -14.086 51.089)" sodipodi:argument="-21.198288" sodipodi:cy="121.80966" sodipodi:cx="100.40916" sodipodi:expansion="1.6" sodipodi:type="spiral" sodipodi:t0="0.71683031"></path><path id="path17790" style="stroke:#000000;stroke-width:1.593;fill:none" sodipodi:revolution="1.7605579" sodipodi:radius="67.996964" d="m99.648 97.856c16.922-6.14 34.022 6.754 38.852 22.744 7.78 25.78-11.8 50.87-36.31 57.24-18.442 4.79-38.289-0.13-53.276-11.63" transform="matrix(.81222 -.36066 .24603 .66365 18.439 80.149)" sodipodi:argument="-21.198288" sodipodi:cy="121.80966" sodipodi:cx="100.40916" sodipodi:expansion="2.3" sodipodi:type="spiral" sodipodi:t0="0.63545585"></path><path id="path19250" sodipodi:rx="82.201164" sodipodi:ry="82.201164" style="stroke:#000000;stroke-width:17.344;fill:none" sodipodi:type="arc" d="m190.57 109.97a82.201 82.201 0 1 1 -164.41 0 82.201 82.201 0 1 1 164.41 0z" transform="matrix(.058201 0 0 .058201 101.96 103.47)" sodipodi:cy="109.96562" sodipodi:cx="108.36411"></path><path id="path19254" sodipodi:nodetypes="cscsc" style="stroke:#000000;fill:none" d="m99.702 97.326s-7.005-2.541-12.993-2.917c-5.988-0.375-10.96 1.856-10.96 1.856s4.607 4.225 10.606 4.155c5.9-0.07 13.347-3.094 13.347-3.094z"></path><path id="path19982" sodipodi:nodetypes="cscsc" style="stroke:#000000;fill:none" d="m123.81 108.75s5.7-4.79 9.02-9.792c3.32-4.998 3.87-10.42 3.87-10.42s-5.96 1.879-8.9 7.108c-2.89 5.144-3.99 13.104-3.99 13.104z"></path><path id="path19986" sodipodi:nodetypes="cscsc" style="stroke:#000000;fill:none" d="m101.83 124.11s1.3 7.34 3.97 12.71c2.67 5.38 7.09 8.57 7.09 8.57s1.35-6.1-1.71-11.27c-3.01-5.07-9.35-10.01-9.35-10.01z"></path></g></g><metadata></metadata></svg> 