<?xml version="1.0" encoding="UTF-8" standalone="no"?> <!-- Generator: Adobe Illustrator 13.0.2, SVG Export Plug-In . SVG Version: 6.00 Build 14948) --> <svg xmlns:rdf="http://www.w3.org/1999/02/22-rdf-syntax-ns#" xmlns="http://www.w3.org/2000/svg" xmlns:x="http://ns.adobe.com/Extensibility/1.0/" xmlns:dc="http://purl.org/dc/elements/1.1/" xmlns:i="http://ns.adobe.com/AdobeIllustrator/10.0/" xmlns:cc="http://web.resource.org/cc/" xmlns:xlink="http://www.w3.org/1999/xlink" xmlns:a="http://ns.adobe.com/AdobeSVGViewerExtensions/3.0/" xmlns:graph="http://ns.adobe.com/Graphs/1.0/" xmlns:svg="http://www.w3.org/2000/svg" xmlns:inkscape="http://www.inkscape.org/namespaces/inkscape" xmlns:sodipodi="http://sodipodi.sourceforge.net/DTD/sodipodi-0.dtd" xmlns:ns1="http://sozi.baierouge.fr" xml:space="preserve" y="0px" x="0px" viewBox="0 0 172.755 168.34"> <g id="womens_cut_xA0_Image" clip-rule="evenodd" fill-rule="evenodd"> <path d="m116.76 1.554c-0.748 1.377-2.82 1.257-4.039 1.615-3.982 1.171-7.473 3.378-10.904 5.25 3.018-4.118 8.768-5.503 14.539-6.865-10.657-1.368-16.891 5.186-24.635 8.077 4.52-3.309 11.778-8.435 18.98-9.289 1.93-0.229 5.41-1.072 6.06 1.212z"></path> <path d="m117.56 0.342c3.452 0.318 7.396 0.142 8.885 2.423-2.391-0.705-4.819-1.372-8.076-1.211 0.955 1.468 4.371 0.475 4.846 2.423-1.48-0.539-3.084-0.955-4.846-1.212-0.31-0.754-0.66-1.479-0.8-2.423z"></path> <path d="m141.79 4.381c-3.776-0.866-8.603-1.931-12.519-0.809-3.257 0.934-4.849 4.207-7.269 5.654-0.374 0.704 0.014 2.168-1.213 2.02 0.409-4.034 3.893-4.994 5.654-7.674 4.92-1.36 11.76-2.907 15.35 0.809z"></path> <path d="m113.93 4.381c-1.879 0.947-3.778 1.874-6.057 2.423 1.71-1.121 3.35-2.305 6.06-2.423z"></path> <path d="m166.02 78.283c3.562-7.979 7.09-17.103 4.847-27.865-1.026-4.922-3.976-9.402-4.847-14.538-0.277-1.634-0.064-3.346-0.403-4.846-2.985-13.199-13.376-21.341-22.212-25.846 1.247-1.366 2.861 0.552 4.039 1.211 5.993 3.353 11.696 8.126 15.346 14.135 0.844 2.252 1.572 4.62 3.23 6.058 2.077 7.212 2.043 16.534 6.059 21.808 0.348 4.812 1.063 8.692 0.403 13.73-0.979 7.472-4.919 14-6.058 20.596-0.864 5.011 0.633 9.354 1.211 13.327-2.646 0.095-2.959-2.734-3.23-4.847-1.772-13.829 4.563-22.998 5.654-33.923 1.754 1.32 0.654 3.956 0.404 5.25-0.98 5.072-4.23 9.916-4.44 15.75zm-0.8 3.635c1.289 0.569 1.02-2.416 0.403-2.423 0.05 0.995 0.06 1.945-0.4 2.423z"></path> <path d="m117.16 7.207c-1.507 1.051-4.353 0.763-5.25 2.424-0.65-1.602 2.67-2.708 5.25-2.424z"></path> <path d="m103.43 18.515h1.212c4.61 4.094 11.638 2.075 18.98 2.827 6.092 0.624 11.526 4.486 16.961 4.846-0.969-2.262-4.426-2.036-4.846-4.846 2.008 1.223 2.941 3.52 6.865 2.827 1.184-0.343-0.242-1.301 0-2.02 1.297-0.355 0.553 1.331 1.615 1.212-0.08 1.806-1.265 2.504-2.02 3.634 4.232-0.255 8.3 4.541 4.039 6.866-2.259-1.979-10.212-1.899-7.27-6.462-5.735-2.27-13.406-5.426-21-5.25-0.898 0.021-1.549 0.406-2.423 0.404-4.37-0.015-8.429-0.845-12.115-2.424-0.68-0.801 0.02-0.512-0.01-1.614zm35.94 11.712c2.041 1.718 4.875 1.91 7.672 1.211-0.274-3.494-5.249-2.288-6.865-4.442-0.59 1.427-1.4 1.42-0.81 3.231z"></path> <path d="m143.81 34.669c-0.334 1.097-1.985 0.104-2.423 0-6.022-1.439-13.385-4.533-20.597-5.25-3.76-0.374-7.564 1.076-11.307 0.808-2.634-0.189-5.099-1.656-7.674-1.615-0.113-0.652 0.383-0.695 0.404-1.212 1.916-0.754 3.613 0.965 5.25 1.212 5.238 0.789 10.611-0.535 15.75 0 5.115 0.532 9.465 2.896 13.73 4.038 2.54 0.677 5.07 0.077 6.87 2.019z"></path> <path d="m135.33 34.265c1.186 2.768 3.07 4.404 6.461 4.038 1.896-0.204 2.369-2.506 4.039-1.615-0.162 2.127-2.633 1.945-2.827 4.039-6.896 2.394-14.483-1.544-20.999-2.02-2.654-0.193-4.752 0.869-7.674 1.212-2.016 0.235-4.211-0.343-6.461 0-2.533 0.385-5.047 2.375-8.077 2.423 3.285 2.176 7.247-0.123 10.903 0 6.318 0.212 11.52 3.346 14.135 7.673-1.277 3.489-8.873 3.391-12.52 2.02 2.016-1.188 8.584 0.413 10.904-1.616-1.912-3.666-8.898-1.294-11.711 0 0.977-3.111 6.787-3.659 9.691-2.423-0.467-1.861-2.704-3.189-4.038-3.635-1.06-0.353-3.377-0.685-4.847-0.808-3.371-0.282-7.163 1.083-10.5 0.808-1.188-0.098-2.256-0.97-3.23-1.211-2.902-0.72-5.891-0.372-8.076-2.02 1.791-1.979 3.713 0.632 5.653 0.808 3.592 0.326 9.106-2.778 14.942-3.23 1.094-0.085 2.19 0.153 3.23 0 2.057-0.303 3.994-1.535 6.058-1.615 3.345-0.131 6.546 1.818 9.692 2.423 5.192 0.997 8.016 1.428 12.923 0.404-3.67-0.536-9.11-1.332-7.67-5.655z"></path> <path d="m158.76 55.265c-1.229-2.076 0.291-5.474 0.403-8.48-1.682 1.55-1.389 4.024-1.615 7.269-0.221 3.161-1.356 6.312-1.211 8.885 0.059 1.04 1.034 1.442 1.211 2.423 0.494 2.729-1.794 4.806-1.615 7.27-0.672-8.635-0.594-20.602 2.827-27.462-0.253-2.842-0.495-5.697-1.615-7.673 0.802-0.672 0.513 0.037 1.615 0 2.23 5.397 0.8 12.093 0 17.768z"></path> <path d="m111.51 51.227c-0.874 1.357-3.113 1.833-4.847 2.423-1.569 0.533-3.667 1.505-5.25 1.615-3.521 0.246-8.845-2.2-14.134-2.827-2.343-0.277-5.578 0.123-7.27-0.403-4.215-1.314-6.09-5.938-8.885-6.462-4.187 12.7 1.969 25.743 3.635 37.961 0.663 4.861 0.504 9.604-1.615 13.327-1.536-1.508 0.562-3.601 0.808-5.25 0.872-5.845-2.027-11.953-2.423-18.98-2.558-3.615-2.021-8.202-2.423-12.52-0.176-1.89-0.936-3.668-0.808-5.653 0.222-3.451 2.527-6.825 0.808-10.097-7.703 1.327-13.957 6.223-20.596 7.27 2.082-2.369 5.765-3.325 9.289-4.846 3.845-1.659 8.416-4.658 12.923-3.231 3.475 1.101 5.765 6.278 10.096 7.27 1.299 0.297 3.024-0.126 4.442 0 5.296 0.472 10.835 3.281 14.941 3.23 3.96-0.05 6.91-3.483 11.31-2.827z"></path> <path d="m156.33 44.36c-4.167 7.409-1.873 19.78-2.424 28.27-0.997-9.632-2.863-20.143 1.212-28.27h1.21z"></path> <path d="m73.141 54.457c0.721-0.114 0.829 0.381 0.404 0.403-0.226 4.65-0.442 6.179 0 10.904-1.382-2.302-0.956-8.401-0.404-11.307z"></path> <path d="m127.66 54.457h1.212c-0.914 1.913 0.113 5.768-2.02 6.461 0.36-2.066 0.18-4.669 0.81-6.461z"></path> <path d="m142.2 56.072c1.752 1.296-0.018 5.819-0.404 7.673-0.75 3.593-1.357 7.644-2.019 11.308-0.097 0.538-0.74 0.987-0.808 1.615-0.038 0.351 0.576 0.89 0.404 1.615-0.18 0.748-0.995 1.288-1.213 2.02-1.812 6.107-2.555 13.032-5.653 17.769 5.776-5.396 8.376-13.969 9.692-23.826 0.699 9.585-3.979 17.289-7.673 23.826-2.651 0.566-4.438 3.015-5.653 6.058-0.676-3.507 1.863-7.285 4.441-8.884-1.81-1.607 0.844-4.543 1.212-5.654 3.11-9.413 6.15-21.228 7.67-33.52z"></path> <path d="m80.006 56.476h1.211c-1.05 3.641-1.266 9.786 0.404 12.923-1.95 0.184-1.349-3.533-1.615-5.653-0.149-1.183-0.905-4.43 0-6.058v-1.212z"></path> <path d="m148.66 56.476c1.514-0.28 0.984 3.057-0.403 2.424-0.3-1.236 0.69-1.189 0.4-2.424z"></path> <path d="m75.16 57.283c0.469-0.065 0.718 0.09 0.808 0.404-0.389 3.081 0.546 4.838 0.808 7.27-1.572-1.525-1.347-4.847-1.616-7.674z"></path> <path d="m160.77 59.303c1.094 0.6 0.283 2.514 0 4.039-0.239 1.297-0.48 3.242-0.807 4.441-0.462 1.695-1.61 3.655-2.424 4.442 1.08-4.302 2.11-8.661 3.23-12.922z"></path> <path d="m123.62 61.726c0.652-0.113 0.695 0.382 1.211 0.404-3.173 13.923-7.208 26.983-12.115 39.173-1.142-0.262 0.34-2.63 0.808-4.039 3.417-10.299 7.998-21.847 9.692-34.326-0.12-0.65 0.38-0.693 0.4-1.209z"></path> <path d="m87.679 62.13c-0.622 4.983-1.171 12.767 0 18.98-1.627-5.374-2.392-13.951 0-18.98z"></path> <path d="m146.24 62.13c0.652-0.114 0.695 0.382 1.211 0.403-1.662 11.733-1.641 25.956-9.692 32.308 6.22-7.321 7.48-21.482 8.48-32.711z"></path> <path d="m148.26 62.13c0.687-0.148 0.763 0.315 0.808 0.808-0.344-0.074-0.381 0.157-0.404 0.404-0.48-0.066-0.35-0.737-0.41-1.212z"></path> <path d="m138.16 62.533c0.471-0.065 0.719 0.09 0.809 0.404-2.799 9.799-6.148 20.484-10.096 29.885-0.611 1.452-1.248 3.497-2.02 4.846-0.537 0.937-1.48 3.066-2.827 2.827-1.104-1.087 0.671-3.479 1.615-5.25 2.647-4.969 5.556-11.518 7.27-17.77-0.188-0.861 0.577-0.769 1.212-0.808 0.92-5.148 3.05-9.069 4.04-14.139z"></path> <path d="m151.08 64.957c0.469-0.066 0.719 0.089 0.808 0.403 0.72 12.836-1.612 22.619-6.058 30.288-1.269-0.993 0.467-2.324 0.808-3.23 2.76-7.338 4.55-16.347 4.44-27.461z"></path> <path d="m113.12 65.36c0.469-0.065 0.719 0.089 0.807 0.404 0.477 3.117-0.913 5.909-1.615 8.884-0.967 4.102-1.778 8.183-2.826 11.712-1.293 4.351-3.469 13.732-6.058 18.577-0.625 1.169-1.517 2.856-3.231 2.826 6.71-11.808 10.67-27.347 12.92-42.41z"></path> <path d="m148.26 65.765c1.733 0.847 0.118 2.552 0.808 4.442-1.21-0.549-0.72-2.791-0.81-4.442z"></path> <path d="m126.04 66.168c1.535 0.368 0.296 1.623 0.404 2.827-0.9-0.174-0.16-1.99-0.4-2.827z"></path> <path d="m96.159 67.38c1.43 1.128 0.716 4.399 1.616 6.058-0.711-0.581-0.922-0.371-0.809 0.808-1.504-1.041-0.7-5.669-0.807-6.866z"></path> <path d="m73.948 68.188c0.359 0.313 0.912 0.434 1.615 0.403-0.106 6.794 4.142 15.964 2.423 25.442-0.347 1.915-0.471 5.452-2.827 5.654 0.625-2.631 2.106-5.297 2.423-8.481 0.676-6.792-1.96-15.637-3.634-23.018z"></path> <path d="m89.294 68.188c1.846-0.014 0.021 1.417 0.403 2.423-1.465-0.368-0.245-1.192-0.403-2.423z"></path> <path d="m77.179 69.398c0.47-0.065 0.719 0.09 0.808 0.404 1.547 10.536 3.373 19.031 1.616 29.48 0.04-9.953-0.476-20.193-2.424-29.884z"></path> <path d="m99.391 69.398c1.495 1.252-0.471 5.243-0.404 7.674-1.272-2.359 0.249-5.395 0.404-7.674z"></path> <path d="m119.18 71.822c0.393 0.011 0.314 0.494 0.404 0.808 0.188 2.484-2.105 4.613-1.211 6.461-2.043 4.108-3.605 9.05-5.25 13.731-1.642 4.67-2.736 9.8-6.462 12.519 5.66-9.687 9.03-21.665 12.52-33.518z"></path> <path d="m83.236 75.053c1.463-0.11 1.012 2.312 1.211 3.23 1.396 6.415 2.828 14.918 2.019 21-1.178-7.733-2.378-17.506-3.23-24.23z"></path> <path d="m104.64 74.648h1.211c-2.809 10.384-4.462 21.923-8.076 31.5-1.185-1.65 0.879-4.259 1.615-6.865 2.146-7.601 3.544-16.167 5.25-23.423v-1.214z"></path> <path d="m101.01 76.668c0.738 0.915 0.314 2.857 0 4.442-0.785 3.958-2.209 9.271-2.827 13.327-0.493-5.74 2.167-11.825 2.827-17.769z"></path> <path d="m98.582 77.88c0.852 3.414-0.824 7.787-0.807 11.711-1.408-2.62 0.544-8.146 0.807-11.711z"></path> <path d="m123.62 77.88c1.345-0.019 0.361 3.948-0.809 4.038 0.45-1.165 0.73-2.504 0.81-4.038z"></path> <path d="m93.736 86.36c0.465-1.307 0.457 1.084 0.404 1.615-0.464 1.307-0.456-1.083-0.404-1.615z"></path> <path d="m82.833 89.591c1.052 1.866 0.26 3.117 0.404 5.654-0.84 0.416-0.21-4.085-0.404-5.654z"></path> <path d="m93.332 89.995c0.154-0.77 0.514 0.258 0.404 0.808-0.154 0.768-0.513-0.258-0.404-0.808z"></path> <path d="m97.371 95.245c0.153-0.77 0.514 0.258 0.404 0.808-0.154 0.768-0.514-0.258-0.404-0.808z"></path> <path d="m140.18 96.456c-0.705 1.313-0.934 3.104-2.826 3.231 0.86-1.162 1.07-2.973 2.83-3.231z"></path> <path d="m82.429 98.476c0.822 0.39 0.872 1.551 0.808 2.827-1.536 0.33-0.514-1.907-0.808-2.824z"></path> <path d="m155.12 100.9c0.325 0.214 0.655 0.422 1.212 0.404-3.197 16.218-10.733 30.147-28.27 30.691-1.143 3.568-1.321 8.102-2.02 12.115 5.44 2.777 12.098 5.589 16.154 10.097 0.888 0.985 2.818 2.061 2.02 3.634-5.18-5.05-11.002-9.459-18.174-12.519-0.887 1.805-0.838 4.546-0.807 7.269 4.954 1.911 9.486 4.244 16.153 4.442-1.848 2.499-5.255 0.383-7.673-0.403-2.754-0.896-5.643-1.729-7.674-2.827-1.256 0.09-0.682 2.01-0.807 3.23-1.023-0.457-1.172-1.79-1.212-3.23-3.562 0.072-7.807-0.537-9.288 1.615 3.73 3.934 9.964 5.021 15.75 6.865 2.854 0.909 5.555 1.967 8.48 2.827 2.549 0.75 6.166 0.796 7.673 3.23-6.018-0.956-11.64-3.731-17.365-5.653-5.76-1.934-12.126-2.643-16.153-6.865 0.921-3.318 6.44-3.511 10.096-2.827 1.762-1.334 0.081-6.111 1.211-8.077-9.301-5.521-25.234-7.09-38.364-5.25 12.221-3.638 28.644-0.996 37.558 3.635 3.886-6.479 1.484-19.245 7.672-23.423-0.914 3.663-2.685 6.469-3.23 10.5 4.621 0.604 9.029-1.137 12.52-3.23 2.717-1.631 3.209-2.383 5.25-5.25 0.819-1.151 3.539-4.41 4.038-5.654 1.337-3.336 1.493-7.459 2.827-10.903 0.59-1.49 1.9-2.65 2.43-4.43z"></path> <path d="m105.45 103.73c0.808 0.834-0.869 2.61-1.211 3.635-1.62-0.25 1-2.59 1.21-3.63z"></path> <path d="m53.756 120.28h1.211c3.079 4.729 12.415 3.2 16.961 6.461-0.141 1.316-1.588 0.102-2.019 0-4.59-1.084-12.889-1.805-15.346-5.25-0.861 0.19-0.769-0.57-0.807-1.21z"></path> <path d="m78.39 145.72c-2.098-1.637-3.616-3.604-5.654-5.25-1.676-1.354-3.88-3.498-6.058-4.441-2.467-1.07-5.748-0.631-8.48-1.615-1.999-0.722-3.321-2.62-5.25-3.231 1.029-1.699 3.631 0.926 4.442 2.02 3.233-0.003 4.672 1.789 8.48 1.212 2.766 1.198 4.764 3.333 6.865 5.249 1.981 1.8 4.808 3.18 5.655 6.05z"></path> <path d="m51.333 136.84c1.591 0.562 2.349 1.958 3.634 2.826 6.883 0.387 11.509 3.03 16.154 5.654 2.243 3.949 4.83 7.555 8.077 10.5-1.726 1.17-2.057-2.508-4.039-2.423-1.614 0.529 0.017 3.021 0.404 4.038 1.812 0.935 2.929-0.567 4.039 0-1.887 3.475-6.891 0.108-8.481-1.615-1.828 0.97-1.262 4.521 0 5.653 1.843-0.041 0.841-2.928 2.827-2.826 0.829 3.655-3.703 4.678-5.25 2.423-0.299-2.453 0.392-3.916 1.211-5.25-2.991-4.145-7.957-6.312-14.539-6.865-0.692 0.519-1.588 0.835-1.615 2.019 0.143 0.53 0.711 0.636 0.808 1.212 1.498-0.387 3.081-0.688 3.635-2.02 0.42 2.364-3.8 3.897-6.461 2.423-0.018-2.036 1.938-2.1 2.423-3.634-2.86 0.005-4.603-2.277-6.865-2.423-3.936-0.255-7.649 3.412-11.711 6.461-4.292 3.222-8.394 5.584-11.308 7.673-4.064-0.513-9.296 0.143-10.5-3.23 6.881 1.753 9.605 2.338 14.942-1.212 3.909-2.6 9.12-7.791 13.327-9.691 3.581-1.618 7.591-1.209 12.519 0.403 0.588 0.192 1.233 0.605 1.616 1.212 8.942-0.193 12.26 5.239 17.769 8.48 0.068-0.659-1.04-3.688 0.808-4.442-3.998-6.503-10.106-10.895-20.192-11.308-0.47-1.78-4.068-2.22-3.232-4.02z"></path> <path d="m79.198 148.15c1.771 0.632-0.488 2.229-1.212 2.826-1.019-0.79 1.031-1.91 1.212-2.83z"></path> <path d="m122.01 4.784c-0.111 0.952-1.505-0.037-1.616-0.403-1.759-0.261-4.565 0.526-5.653-0.404h5.653c0.06 0.747 1.37 0.248 1.62 0.807z"></path> <path d="m145.83 8.822c-0.344-0.074-0.381 0.158-0.404 0.404 6.918 5.062 11.692 12.27 15.75 20.192-3.577-3.727-5.252-8.57-8.48-12.52-2.985-3.65-7.666-7.282-12.115-9.692-1.529-0.828-3.473-1.172-4.442-2.826 4.566 1.356 7.648 4.197 12.923 4.846 5.604 5.299 10.869 10.938 13.326 19.385-1.498-1.114-2.314-3.146-3.23-4.847-2.96-5.493-7.02-12.527-13.33-14.942z"></path> <path d="m119.58 5.996c-3.379 0.658-6.898 1.178-9.691 2.423 0.92-1.346 6.56-3.251 9.69-2.423z"></path> <path d="m157.14 33.457c-2.777-1.07-3.306-5.163-4.847-7.673-0.727-1.184-1.62-2.469-2.423-3.635-4.448-6.464-10.759-12.113-18.577-15.75-1.677 0.387-0.081-1.209 0 0 7.718 1.841 11.9 7.215 16.962 11.712 2.53 5.549 6.69 9.469 8.89 15.346z"></path> <path d="m150.27 25.38c-0.824 1.312-1.021-1.363-2.019-1.211 0.974 1.987 2.31 3.613 3.635 5.25-1.032 0.32-2.219-1.292-2.827-2.02-2.234-2.671-4.479-6.816-7.673-8.885-1.513-0.031-1.221 1.741-3.231 1.212 0.058 1.424 1.812 1.15 2.828 1.615-4.298 0.434-7.951-3.084-12.924-4.038-2.186-0.42-4.729-0.067-7.27-0.404-2.967-0.393-6.095-1.787-8.884-2.02-1.763-0.146-3.546 0.501-5.25 0.404-0.981-0.056-2.603-0.022-3.23-1.212 0.894-1.563 2.856-0.062 4.038 0 1.203 0.064 2.35-0.42 3.635-0.403 3.341 0.042 6.834 1.985 10.5 2.423 1.657 0.198 3.203-0.158 4.846 0 3.839 0.369 6.675 1.878 9.289 3.23 1.127-0.895-1.709-1.227-1.212-2.826 0.952 0.843 3.57 3.254 4.847 1.211-0.703-2.224-3.086-1.468-4.847-2.02-2.771-0.866-5.583-2.44-8.481-2.826-1.66-0.222-3.353 0.089-4.846 0-4.84-0.289-8.588-1.846-12.52-2.02-2.637-0.116-5.842 0.687-8.48 0.808-0.645 0.03-1.135 0.756-1.615 0.808-4.984 0.541-9.585 0.336-14.134 1.212-1.905 0.366-3.404 1.453-5.25 2.019-1.858 0.57-3.755 0.54-5.654 1.212-2.858 1.012-6.391 3.282-10.5 4.038-1.493 0.275-2.886-0.188-4.442 0-8.264 1.002-16.393 3.961-25.038 4.847 0.967-1.664 3.076-2.441 4.442-2.827 7.706-2.172 15.532-1.943 23.019-3.23 6.417-1.104 13.416-4.55 19.385-6.462 8.612-2.758 17.346-1.027 26.25-3.634 3.224 1.446 6.249 0.372 9.288-0.404-0.143 1.068-2.058 0.365-2.423 1.212 6.995 2.293 17.403 1.174 23.019 4.846-0.551-1.243-3.395-3.048-6.057-4.038-1.03-0.384-3.045 0.313-3.23-1.212 9.699 1.742 14.895 7.99 20.596 13.73 0.881-0.777-1.049-2.159-1.615-2.827 1.56-0.344 2.57 3.343 4.03 4.442z"></path> <path d="m134.12 10.034c-1.06 0.997-2.34-1.165 0 0z"></path> <path d="m134.93 10.842c0.605-1.335 0.988 0.84 2.02 0.404-0.37 1.096-1.42-0.412-2.02-0.404z"></path> <path d="m146.64 14.477c4.688 2.583 8.125 9.912 11.308 15.346-1.375 0.388-1.568-1.67-2.02-2.423-2.62-4.372-5.54-9.249-9.29-12.923z"></path> <path d="m143.41 17.707c0.275-1.004 1.23 0.597 1.616 0.808-0.37 1.093-0.91-0.923-1.62-0.808z"></path> <path d="m162.39 39.111c5.084 2.011 3.145 8.383 2.424 13.326-0.233 1.598-0.07 3.26-0.404 4.846-1.055 5.026-3.695 9.946-4.441 15.75-0.699 5.433-0.447 10.75 0 16.558-1.493-0.903-0.797-3.931-0.809-6.058-0.02-3.819-0.115-7.316 0.404-10.903 0.83-5.728 3.569-10.896 4.442-16.154 0.255-1.539 0.173-3.556 0.403-5.249 0.65-4.718 1.06-8.497-2.01-12.116z"></path> <path d="m166.83 46.784c1.605 2.381 1.544 7.041 1.615 9.691 0.092 3.439-0.223 7.616-1.212 10.904-0.597 1.985-2.143 3.817-2.827 5.653-2.698 7.245-3.273 14.612-0.403 24.23-1.876-0.917-1.64-3.687-2.423-6.058-3.955-11.962 3.667-25.707 4.846-37.557 0.928 9.274-4.563 15.627-4.846 25.038 4.28-7.888 7.87-19.685 5.25-31.901z"></path> <path d="m134.93 57.688c1.26 0.672 0.295 2.872 0 4.038-0.799 3.172-2.127 6.155-3.23 9.289-0.562 1.599-0.655 3.648-2.02 4.442 2-5.668 3.36-11.979 5.25-17.769z"></path> <path d="m119.58 94.841c2.302-1.317 3.062-4.541 4.039-7.269 2.584-7.231 4.386-16.633 6.461-24.635 0.338-1.304 0.27-3.273 1.615-4.038-0.053 3.811-1.91 7.155-2.826 10.903-1.489 6.087-2.234 12.489-4.039 18.173-1.898 5.98-6.201 9.852-8.48 14.942-0.775-0.538 0.464-1.793-0.404-2.827 1.013-0.334 1.277-1.415 2.02-2.02-0.119-0.897 2.44-7.07 2.02-5.249 0.16 0.974-0.74 0.878-0.41 2.02z"></path> <path d="m117.56 104.53c-1.456-0.377 0.65-1.574 1.212-2.423 0.606-0.917 1.447-2.144 2.019-3.231 1.197-2.276 1.792-4.942 2.828-7.673 0.98-2.583 2.738-5.103 3.635-7.673 0.891-2.56 0.539-5.357 2.826-6.865-3.95 9.524-6.21 20.718-12.53 27.862z"></path> <path d="m142.2 69.803c0.582 0.092 0.141 1.205 0.808 1.212-0.18 1.013-1.16-0.388-0.81-1.212z"></path> <path d="m141.39 98.476c-1.509-0.992 0.446-2.464 0.808-3.23 2.915-6.183 5.979-13.366 6.461-23.02v4.442c-1.06 8.632-3.59 15.795-7.27 21.808z"></path> <path d="m157.95 73.033c-0.786 1.638-1.073 3.773-1.212 6.058-0.76-1.572-0.13-5.23 1.21-6.058z"></path> <path d="m113.93 83.938c-1-1.064 1.16-2.341 0 0z"></path> <path d="m106.66 82.726c-0.925 5.538-3.407 13.014-5.653 18.577 1.01-5.441 3.86-12.555 5.65-18.574z"></path> <path d="m122.41 84.341c1.007-0.136-0.944 3.217-0.808 4.847-1.14-1.429 0.81-3.215 0.81-4.847z"></path> <path d="m99.391 109.78c-0.556 5.906-5.537 7.387-7.674 11.711-2.115-0.097-3.055 0.983-4.846 1.212 0.862 1.579 2.498 2.511 4.038 3.635 1.384 1.009 2.677 2.33 4.038 3.23 1.427 0.943 3.942 0.757 4.443 2.827-2.92-0.177-3.986-2.206-6.462-2.827 0.711 2.918 4.13 4.384 6.865 4.038-4.029 4.341-12.274 0.692-16.154-1.211-2.787 3.845 2.838 8.972-3.23 10.903 0.156-1.594 1.642-1.858 2.423-2.827-1.074-6.868-7.97-7.914-10.5-13.326 2.454 1.719 4.564 3.782 6.866 5.653 0.599-0.343 0.868-1.016 0.808-2.019-0.563-2.264-3.573-2.081-5.654-2.827 7.981-1.469 12.968 8.336 22.21 6.865-1.17-1.977-6.098-3.416-4.037-6.058-6.632-5.735-14.333-9.253-25.039-10.903-1.278-0.197-4.636-1.699-6.058-2.02-0.24-0.055-0.972 0.49-1.615 0.403-2.859-0.384-8.546-4.013-11.308-4.441-5.821-0.906-9.791 2.816-14.134 5.653-2.516 1.644-5.283 2.712-7.673 4.038-5.244 2.911-9.456 7.212-13.731 10.097-2.174 3.345-5.128 5.91-7.673 8.884-2.774-0.351-2.926 1.92-5.25 2.02-0.426-2.714 2.269-2.309 3.635-3.23 4.243-5.202 10.377-10.488 16.154-15.346 3.424-2.88 11.195-5.223 15.346-8.481 3.113-2.442 6.521-5.762 13.327-4.846 3.822 0.514 7.386 3.497 11.308 4.442 6.972 1.68 14.762 2.156 21 4.846 1.319 0.569 2.379 1.892 3.634 2.423 7.3-0.373 9.587-5.759 13.328-9.691-3.199-0.188-5.102 4.285-6.866 6.865-2.457 0.369-3.978 1.677-6.865 1.615 0.706-1.717 4.202-0.644 4.847-2.423 0.113-0.652-0.383-0.695-0.404-1.212-0.252-0.862-2.486-0.379-2.827 0-1.306 0.173-1.603-2.421-2.423-0.403-1.042-0.709-0.839-2.661-1.211-4.039-1.247 0.1-2.283 0.409-3.231 0.808 0.188 1.832 1.644 2.396 1.616 4.442-1.262-1.564-2.684-2.97-3.231-5.25 1.315-2.724 3.635-4.441 4.442-7.673 3.286-0.748 5.601-2.361 8.076 0 0.958-3.851-0.041-7.293-0.403-11.711-0.261-3.177-2.28-7.551 0-8.885-0.284 4.188 0.499 7.309 1.212 10.5 0.213 0.621 0.421 0.025 0.403-0.404 1.845 3.795-0.972 7.754 0 10.5 1.132 3.22 5.743 2.44 8.48 4.46zm-8.078-0.8c1.231 0.02 2.056-0.367 2.423-1.212-1.261-0.62-2-0.01-2.423 1.21zm-8.884-2.02c-1.042 1.382-2.394 2.452-2.827 4.442 1.708-0.784 4.482-0.539 4.846 1.212-0.45 0.396-1.387 2.33-0.404 2.826 0.47-1.079 2.144-0.036 1.616 1.212 1.3-0.495 3.829-2.995 5.25-0.808-0.104 1.241-0.876 1.816-1.212 2.827 2.092-1.274 3.368-3.363 4.443-5.654-3.759-2.17-8.19-3.66-11.712-6.06zm12.115 4.84c-1.435-2.066-4.043-2.957-6.865-3.635-1.085-1.058-2.727-3.297-4.442-2.423 2.399 3.39 6.732 4.85 11.307 6.06zm-8.481-6.06c0.694 0.021 1.035-0.312 1.212-0.808-0.634 0.05-1.4-0.05-1.212 0.81zm2.828 2.02h1.211c0.053-0.725-0.4-0.945-1.211-0.808v0.81zm5.25 1.62c0.694 0.022 1.035-0.311 1.211-0.808-0.635 0.04-1.401-0.05-1.211 0.81zm1.211 0.81c0.92 0.113 1.518-0.097 1.615-0.808-0.92-0.11-1.518 0.1-1.615 0.81zm-16.154 2.42c1.307-0.174 3.493 0.531 3.634-0.808-1.006-0.8-3.216-0.22-3.634 0.81zm10.904 4.04c0.122-1.064-0.559-1.325-1.615-1.212 0.027 1.08 0.923 1.94 1.615 1.21zm-9.289 18.17c2.268 0.518 1.487-2.013 1.615-3.635h-1.211c-0.49 1.21-0.806 2.59-0.404 3.64z"></path> <path d="m113.12 85.148c0.777 0.805-0.941 2.54-0.809 4.039-1.1-1.128 0.48-3.004 0.81-4.039z"></path> <path d="m120.39 86.36c0.048 2.476-2.292 6.05-3.23 8.885-0.06-2.49 2.46-5.877 3.23-8.885z"></path> <path d="m116.35 95.648c-0.404 4.31-3.776 9.146-7.27 11.712 0.271-2.287 2.014-3.103 2.424-5.25 3.44-0.33 3.43-4.114 4.85-6.462z"></path> <path d="m153.5 73.841c0.343-0.074 0.381 0.158 0.403 0.404 0.045 0.988 1.336 0.086 1.212-0.404 0.28 2.696-1.023 7.851 0 10.5 1.269-0.615 0.673-3.097 0.808-4.846 1.322 1.663 0.301 5.139 0.808 8.077 0.431 2.489 1.604 4.615 2.827 6.058 0.667-0.042-0.465-5.579 0.404-2.424-0.166 0.974 0.737 0.878 0.403 2.02 1.728 2.003 0.153 2.593 1.212 4.846-5.145-3.067-7.714-8.709-7.27-17.365-1.889 1.699-1.031 5.993-0.808 8.077-0.296 0.719-0.734 0.059-1.212 0-1.703 3.235-0.705 9.181 0.809 11.712-3.197 0.207-3.431-5.347-2.424-8.885-2.436 2.84-4.323 8.294-8.076 8.48 0.367-1.651 1.904-2.134 2.019-4.038 0.665 0.777 0.739 1.017 1.616 0 3.36-3.902 8.29-13.696 7.27-22.221zm-1.21 12.519c-0.027 0.005 0.025 0.375 0 0.403-1.91 2.193 1.94-0.745 0-0.403z"></path> </g> <metadata></metadata></svg> 