<?xml version="1.0" encoding="UTF-8" standalone="no"?> <!-- Generator: Adobe Illustrator 13.0.2, SVG Export Plug-In . SVG Version: 6.00 Build 14948) --> <svg xmlns:rdf="http://www.w3.org/1999/02/22-rdf-syntax-ns#" xmlns="http://www.w3.org/2000/svg" xmlns:cc="http://web.resource.org/cc/" xmlns:xlink="http://www.w3.org/1999/xlink" xmlns:dc="http://purl.org/dc/elements/1.1/" xmlns:svg="http://www.w3.org/2000/svg" xmlns:inkscape="http://www.inkscape.org/namespaces/inkscape" xmlns:sodipodi="http://sodipodi.sourceforge.net/DTD/sodipodi-0.dtd" xmlns:ns1="http://sozi.baierouge.fr" id="vases_xA0_Image_1_" style="enable-background:new 0 0 207.521 292.722" xml:space="preserve" viewBox="0 0 207.521 292.722" y="0px" x="0px"> <g> <path style="clip-rule:evenodd;fill-rule:evenodd" d="m128.19 19.837c-2.203 2.321-5.818 0.313-10.26 0.683-0.5-1.437 7.39-0.342 10.26-0.683z"></path> <path style="clip-rule:evenodd;fill-rule:evenodd" d="m128.87 20.521c0.949-1.558 4.762-0.254 6.842-0.683-0.95 1.559-4.76 0.254-6.84 0.683z"></path> <path style="fill:#EFE9E5;clip-rule:evenodd;fill-rule:evenodd" d="m57.058 21.888c2.735 0.001 4.107 1.367 6.84 1.368-1.063 1.017-6.484 0.592-6.84-1.368z"></path> <path style="fill:#EFE9E5;clip-rule:evenodd;fill-rule:evenodd" d="m108.35 24.624c-8.207 2.09-21.65 1.255-32.142 0 8.119-2.976 24.532 0.129 32.142 0z"></path> <path style="fill:#EFE9E5;clip-rule:evenodd;fill-rule:evenodd" d="m82.365 27.361c5.248-1.592 13.447-0.232 19.834-0.685-4.728 2.699-14.923 4.012-19.835 0.685z"></path> <path style="clip-rule:evenodd;fill-rule:evenodd" d="m72.104 31.464c2.902-1.969 4.825-0.743 6.84-0.685 3.409 0.1 7.923 0.274 2.735 0.685-2.256 0.178-5.896-0.129-9.575 0z"></path> <path style="clip-rule:evenodd;fill-rule:evenodd" d="m59.111 32.832c2.335 0.172 3.287 1.728 6.156 1.368-0.977 1.151-6.974 1.54-6.156-1.368z"></path> <path style="clip-rule:evenodd;fill-rule:evenodd" d="m79.629 37.619c-1.67 1.845-4.461-0.973-7.525 0 1.564-1.879 5.029-0.755 7.525 0z"></path> <path style="clip-rule:evenodd;fill-rule:evenodd" d="m109.04 38.303c-1.779 1.732-4.932-0.96-8.207 0 1.37-3.1 6.01-0.337 8.21 0z"></path> <path style="clip-rule:evenodd;fill-rule:evenodd" d="m59.111 39.671c2.315-1.603 5.293 1.977 8.207 2.051-2.869 2.154-5.844-1.427-8.207-2.051z"></path> <path style="clip-rule:evenodd;fill-rule:evenodd" d="m59.111 45.825c2.109 1.767 6.036 1.716 8.891 2.737-2.802 1.638-8.301 0.113-8.891-2.737z"></path> <path style="clip-rule:evenodd;fill-rule:evenodd" d="m138.44 49.93c-1.836 2.134-2.457 1.949-4.104 0-6.115-0.195-13.596 0.524-19.834 2.051 6.71-4.648 15.75-3.251 23.93-2.051z"></path> <path style="clip-rule:evenodd;fill-rule:evenodd" d="m59.796 53.349c1.597 0.226 2.825 0.822 4.102 1.368 7.299-0.114 1.263 1.194-2.736 0.685-0.445-0.696-1.572-0.708-1.366-2.053z"></path> <path style="clip-rule:evenodd;fill-rule:evenodd" d="m59.796 61.557c0.587-1.414 4.759-0.722 5.471 0-0.59 1.412-4.762 0.721-5.471 0z"></path> <path style="clip-rule:evenodd;fill-rule:evenodd" d="m138.44 67.028c-2.789 2.233-9.436 3.852-12.311 0.683 4.66 0.327 8.34-0.333 12.31-0.683z"></path> <path style="clip-rule:evenodd;fill-rule:evenodd" d="m63.898 67.711c0.264 2.773-4.261 0.753-6.156 1.368-0.264-2.773 4.263-0.753 6.156-1.368z"></path> <path style="clip-rule:evenodd;fill-rule:evenodd" d="m141.86 71.131c-0.992 3.014-7.113 3.446-8.891 0.683 4.15 0.623 5.61 0.592 8.89-0.683z"></path> <path style="clip-rule:evenodd;fill-rule:evenodd" d="m55.691 81.39c2.282 1.441-2.806 3.333-3.42 2.051 0.437-1.387 3.198-0.45 3.42-2.051z"></path> <path style="clip-rule:evenodd;fill-rule:evenodd" d="m33.807 117.64c2.037 0.014 4.166-0.064 4.102 2.052-2.037-0.01-4.166 0.06-4.102-2.05z"></path> <path style="clip-rule:evenodd;fill-rule:evenodd" d="m26.282 129.95c1.753-0.815 8.455-0.725 9.576 1.366-3.576-0.57-7.859-0.78-9.576-1.37z"></path> <path style="clip-rule:evenodd;fill-rule:evenodd" d="m116.56 143.63c2.09-0.494 2.492 0.698 4.104 0.683 0.24 1.79-5.37 2.5-4.1-0.68z"></path> <path style="clip-rule:evenodd;fill-rule:evenodd" d="m165.8 147.05c-1.266 2.151-4.83 2.006-8.207 2.051 1.15-2.27 5.61-1.24 8.21-2.05z"></path> <path style="clip-rule:evenodd;fill-rule:evenodd" d="m16.024 153.88c4.339-1.589 11.622-0.231 17.098-0.682-4.338 1.59-11.621 0.23-17.098 0.68z"></path> <path style="clip-rule:evenodd;fill-rule:evenodd" d="m119.3 155.25c1.625-1.136 7.947-1.136 9.572 0-3.83-0.42-7.43 0.71-9.57 0z"></path> <path style="clip-rule:evenodd;fill-rule:evenodd" d="m163.75 154.57c3.545 0.506-1.855 1.653-2.051 2.735-16.58-0.53-2.23 0.48 2.05-2.73z"></path> <path style="clip-rule:evenodd;fill-rule:evenodd" d="m134.34 164.14c-1.184 1.542-13.309 2.104-8.207 0.685 1.12-0.3 4.41-0.27 8.21-0.68z"></path> <path style="clip-rule:evenodd;fill-rule:evenodd" d="m9.868 166.88c2.19 0.545 3.451 2.021 6.156 2.051-1.511 1.47-6.376 0.49-6.156-2.05z"></path> <path style="clip-rule:evenodd;fill-rule:evenodd" d="m37.224 169.62c-5.683 1.756-11.212-0.268-17.098 0.684 3.047-2.9 12.834-1.09 17.098-0.68z"></path> <path style="fill:#EFE9E5;clip-rule:evenodd;fill-rule:evenodd" d="m184.95 171.67v2.734c-0.877 0.936-3.23 0.936-4.105 0 0.03-2.25 1.95-2.61 4.11-2.73z"></path> <path style="clip-rule:evenodd;fill-rule:evenodd" d="m175.38 173.04c-0.002 3.881-11.072 2.599-14.361 5.471 0.24-3.64 11.11-2.56 14.36-5.47z"></path> <path style="clip-rule:evenodd;fill-rule:evenodd" d="m7.133 176.45c5.85 2.808 21.217 4.144 30.776 3.42-8.093 2.26-24.222 1.73-30.776-3.42z"></path> <path style="clip-rule:evenodd;fill-rule:evenodd" d="m126.13 176.45c-3.902 1.845-14.418-1.152-5.471-0.683 2.17 0.12 3.74 1.3 5.47 0.68z"></path> <path style="clip-rule:evenodd;fill-rule:evenodd" d="m24.916 190.82c5.813-1.23 16.536 5.004 23.253 0.685-2.836 5.24-17.143 0.69-23.253-0.68z"></path> <path style="clip-rule:evenodd;fill-rule:evenodd" d="m89.886 190.82c-8.306 2.213-20.072 4.502-30.09 2.735 10.085-0.87 20.579-1.31 30.09-2.74z"></path> <path style="clip-rule:evenodd;fill-rule:evenodd" d="m13.973 192.87c2.006-1.742 4.931 1.419 7.522 1.366-2.212 1.94-5.677-0.68-7.522-1.37z"></path> <path style="clip-rule:evenodd;fill-rule:evenodd" d="m111.77 199.71c0.803 0.111 0.58 1.248 0.686 2.055-6.574 0.887-16.748 1.26-23.254 0h-6.838-3.42c0.111-0.802 1.247-0.579 2.051-0.686 10.491-1.43 23.431 3.51 30.771-1.36z"></path> <path style="fill:#EFE9E5;clip-rule:evenodd;fill-rule:evenodd" d="m163.07 199.71c-1.094 1.189-3.078 1.48-5.473 1.369 0.69-1.58 3.14-1.42 5.47-1.37z"></path> <path style="fill:#EFE9E5;clip-rule:evenodd;fill-rule:evenodd" d="m156.23 203.13c-1.344 1.62-4.537 1.392-7.525 1.369 1.35-1.63 4.54-1.4 7.53-1.37z"></path> <path style="clip-rule:evenodd;fill-rule:evenodd" d="m27.651 204.5c0.807-1.843 3.565 0.003 4.787 0-0.426 1.45-4.211 0.64-4.787 0z"></path> <path style="clip-rule:evenodd;fill-rule:evenodd" d="m60.478 208.6c0.281 3.778-30.873-1.364-15.729-0.686 2.176 0.1 12.152 1.66 15.729 0.69z"></path> <path style="clip-rule:evenodd;fill-rule:evenodd" d="m119.98 209.97c-16.402 3.113-37.789 2.412-53.345 1.365 11.009-1.41 32.985 0.716 42.403-2.051 2.45 1.41 7.39 0.35 10.94 0.68z"></path> <path style="fill:#EFE9E5;clip-rule:evenodd;fill-rule:evenodd" d="m156.91 208.6c-1.256 1.48-4.029 1.438-6.838 1.369 1.26-1.48 4.03-1.45 6.84-1.37z"></path> <path style="clip-rule:evenodd;fill-rule:evenodd" d="m143.23 214.75c-1.256 1.48-4.029 1.439-6.838 1.369 1.68-1.06 4.45-1.02 6.84-1.37z"></path> <path style="clip-rule:evenodd;fill-rule:evenodd" d="m158.28 214.75c-1.73 2.976-4.166 1.34-7.521 2.052 1.03-2.15 4.28-2.09 7.52-2.05z"></path> <path style="clip-rule:evenodd;fill-rule:evenodd" d="m50.22 218.17c3.178-1.229 8.196-1.984 10.942 0 4.013-0.22 13.945 0.442 12.312 1.366-7.801-0.41-15.907-0.51-23.254-1.37z"></path> <path style="clip-rule:evenodd;fill-rule:evenodd" d="m146.65 216.8c-1.67 1.294-4.459 1.47-7.521 1.369 0.49-2.48 4.99-0.94 7.52-1.37z"></path> <path style="clip-rule:evenodd;fill-rule:evenodd" d="m37.224 218.17c0.503-1.22 1.244-0.101 2.054 0 2.018 0.114 10.939-0.423 7.522 0.685-3.122-0.3-7.53 0.69-9.576-0.69z"></path> <path style="clip-rule:evenodd;fill-rule:evenodd" d="m29.018 220.91c0.601-0.996 5.496-0.525 5.471 1.367-0.994-1.29-4.475-0.09-5.471-1.37z"></path> <path style="clip-rule:evenodd;fill-rule:evenodd" d="m82.365 222.96c1.842-1.574 6.596-0.242 9.573-0.684-1.843 1.57-6.595 0.24-9.573 0.68z"></path> <path style="clip-rule:evenodd;fill-rule:evenodd" d="m61.162 225.7c2.839-0.304 8.555-0.947 2.736 0-3.81 0.62-12.818 1.07-2.736 0z"></path> <path style="clip-rule:evenodd;fill-rule:evenodd" d="m70.054 230.48c2.521-1.581 7.967-0.237 11.626-0.683 0.896 1.156-7.46 0.201-5.471 2.736-3.403 0.66-4.074-1.4-6.155-2.06z"></path> <path style="fill:#EFE9E5;clip-rule:evenodd;fill-rule:evenodd" d="m150.76 233.22c-0.305 3.114-2.383 4.456-6.156 4.103 1.88-1.54 2.5-4.34 6.16-4.1z"></path> <path style="clip-rule:evenodd;fill-rule:evenodd" d="m57.058 234.59c-3.253 1.865-7.664-0.979-12.309 0 0.562-1.7 9.145-0.2 12.309 0z"></path> <path style="clip-rule:evenodd;fill-rule:evenodd" d="m66.633 237.32c-1.174 1.786-3.54-0.963-6.156 0-1.736-1.06 5.63-1.06 6.156 0z"></path> <path style="fill:#EFE9E5;clip-rule:evenodd;fill-rule:evenodd" d="m128.87 236.64c-0.992 1.059-2.666 1.436-4.785 1.369-0.54-2.6 3.24-0.87 4.79-1.37z"></path> <path style="clip-rule:evenodd;fill-rule:evenodd" d="m68.002 238.01c1.394-1.568 5.68-0.248 8.207-0.684-1.394 1.56-5.68 0.24-8.207 0.68z"></path> <path style="clip-rule:evenodd;fill-rule:evenodd" d="m141.86 242.11c-1.697 1.041-2.785 2.689-5.471 2.736 0.07-2.67 2.97-2.51 5.47-2.74z"></path> <path style="clip-rule:evenodd;fill-rule:evenodd" d="m61.847 244.84c2.8-1.402 11.082 1.205 12.309 1.369-5.01 0.45-8.675-0.44-12.309-1.37z"></path> <path style="clip-rule:evenodd;fill-rule:evenodd" d="m79.629 254.42c-2.001 2.789-7.834-0.576-11.627 1.369 1.294-3.04 8.093-0.57 11.627-1.37z"></path> <path style="clip-rule:evenodd;fill-rule:evenodd" d="m52.956 255.79c0.587-1.414 4.761-0.725 5.471 0-1.094 1.92-3.078-0.96-5.471 0z"></path> <path style="clip-rule:evenodd;fill-rule:evenodd" d="m137.76 255.79c-0.201 0.418-1.701 2.633 0 2.734-1.893 2.211-6.93 1.277-8.893 3.418 0.793-1.01 0.793-1.723 0-2.734-7.34 1.363-20.186 4.377-27.355 1.369 13.2-0.47 23.39-3.96 36.24-4.79z"></path> <path style="clip-rule:evenodd;fill-rule:evenodd" d="m53.64 260.58c1.428 1.078 4.542 0.473 6.156 1.365-0.983 1.16-5.972 0.54-6.156-1.36z"></path> <path style="clip-rule:evenodd;fill-rule:evenodd" d="m198.63 273.57c-2.373 0.549-2.631-1.018-4.789-0.682 0.23-2.26 4.86-1.4 4.79 0.68z"></path> <path style="fill:#EFE9E5;clip-rule:evenodd;fill-rule:evenodd" d="m169.22 275.62c-4.562 2.891-15.303 0.834-4.102 0.682 1.63-0.02 1.27-0.99 4.1-0.68z"></path> <path style="fill:#EFE9E5;clip-rule:evenodd;fill-rule:evenodd" d="m150.76 277.68c-3.561 1.752-9.641 1.41-12.312 0.684 1.78-2.27 9.52-1.63 12.31-0.68z"></path> <path style="fill:#EFE9E5;clip-rule:evenodd;fill-rule:evenodd" d="m137.76 280.41h9.574c-1.75 0.78-8.45 3.06-9.57 0z"></path> <path style="fill:#EFE9E5;clip-rule:evenodd;fill-rule:evenodd" d="m145.97 283.15c-0.119 2.16-2.703 1.854-4.785 2.051-0.34-2.21 3.55-3.68 4.79-2.05z"></path> <path style="fill:#EFE9E5;clip-rule:evenodd;fill-rule:evenodd" d="m136.39 285.88c-1.266 1.016-3.25 1.311-5.471 1.369 0.7-1.58 3.15-1.42 5.47-1.37z"></path> <path style="clip-rule:evenodd;fill-rule:evenodd" d="m145.28 25.309c2.455 10.804-1.789 24.419 0 35.563 2.395 14.92 10.42 23.759 17.781 34.88 20.055 16.45 32.684 51.631 23.252 84.121-1.766 6.092-6.469 13.839-10.256 20.519-3.799 6.695-7.225 14.123-10.943 19.833-9.25 14.201-22.539 24.786-25.307 46.507 17.604 2.535 49.674-2.609 67.709 3.42-20.5-1.795-44.871-3.152-67.709-0.684 16.396 3.453 32.754 1.811 52.662 2.051-17.322 2.371-33.801 0.287-52.662 3.42 16.199 0.152 28.33-1.021 44.455-1.369-1.084 3.02-7.627 0.582-10.941 1.369 7.143 3.104 23.477-0.938 30.775 1.367h-6.84c-12.293 3.264-27.252-0.354-38.299 4.104 12.521 2.055 28.498-3.393 42.404 0-11.047 4.197-22.348 3.189-36.932 5.473-15.76 2.467-32.955 6.855-47.875 6.84-7.277-0.01-14.689-3.006-21.887-3.42-16.978-0.98-35.348 0.184-47.189-10.262-1.995-7.619-4.099-25.373-9.576-35.562-1.887-3.512-5.282-6.029-7.522-9.575-3.437-5.435-6.621-12.456-10.942-19.149-7.088-10.975-16.452-24.352-18.467-38.982-6.829-49.626 23.66-71.26 44.457-97.116 0.721-7.864 6.036-14.657 6.837-23.938 0.902-10.42-3.423-21.286-0.685-30.775-7.748-2.964-13.591-10.288-6.153-17.783 24.008-8.191 63.736-6.985 91.642-3.418 7.053 0.9 17.352 2.425 19.152 6.839 3.18 7.792-5.63 12.592-10.95 15.73zm-80.697-21.202c-9.673 0.824-17.073 2.352-18.467 9.574 7.113 10.899 30.113 5.907 45.823 8.207 1.13-0.01 0.384-1.896 1.369-2.051 10.233 4.29 27.351 2.418 38.298 4.104-4.611-0.053-9.254-0.135-12.309 1.368 4.984 0.241 13.645 2.021 17.779-1.368-1.408-0.415-4.75 1.104-4.102-1.368 5.59-0.563 12.232-0.078 16.414-2.052 0.814-2.866-2.885-1.22-3.422-2.735 2.74-1.251 4.949 0.974 7.525-0.683 1.59-2.09-0.014-5.556-0.684-7.523-22.86-7.128-61.24-7.774-88.237-5.473zm-0.685 19.149c-2.733-0.001-4.105-1.367-6.84-1.368 0.356 1.96 5.777 2.385 6.84 1.368zm12.311 1.368c10.492 1.255 23.935 2.09 32.142 0-7.61 0.129-24.023-2.976-32.141 0zm66.341 9.576c-3.648-0.231-4.088 2.75-6.836 3.419-4.807-4.899-16.721 3.531-23.939 0.685 10.963-1.808 22.525-3.01 30.094-8.207-5.201-0.634-13.189 1.851-17.781 4.104-5.27-2.766-20.188 3.152-25.99-2.052 11.959 2.222 26.078 0.676 35.564-3.42-3.441-0.476-4.766 1.161-8.209 0.685-0.885-1.605 0.352-1.53-1.365-2.735-4.447 0.737-10.387-1.653-15.732 0.685 3.977 1.723 12.342-0.942 15.047 2.051-17.994-1.476-35.312 4.331-48.558-4.103-8.571-0.166-13.154-0.092-20.518-1.368-0.901 10.025 2.34 20.813 1.37 30.092-4.322 41.276-48.695 52.776-51.294 98.484-0.417 7.335 0.303 15.522 0 25.305 2.66 5.09 4.647 10.853 5.471 17.782 1.559-0.191 2.572 0.164 2.736 1.367 7.141 12.691 15.072 24.598 21.884 37.615 1.637 0.418 4.965-0.859 5.471 0.686-1.787-0.193-2.941 0.25-2.735 2.051 0.804 3.3 4.096 4.113 7.525 4.785-1.79-0.191-2.941 0.252-2.736 2.055 3.701 9.408 5.73 23.744 7.522 32.826 7.392 5.172 19.119 8.088 31.46 9.576 18.17 2.189 41.607 0.574 53.346-5.471 0.938-4.766 1.615-9.785 2.734-14.363-3.258-0.068-3.742 2.639-6.838 2.736-5.262-4.807-16.783 1.496-23.254-2.051 7.979-0.004 13.807-2.154 21.203-2.738 1.545 0.383-0.828 1.068 0.682 2.053 2.729-0.467 4.656-1.73 8.207-1.369 1.146-3.547 3.109-9.475 2.736-12.309-2.076-0.936-4.637-0.102-6.838 0.682-0.092-1.369 4.646-3.178 1.367-3.416-12.164 3.197-34.324 5.955-46.506 0.682 20.221 5.248 39.523-2.418 55.396-5.473-2.848-0.086-6.502 2.584-4.787 4.791 4.15-2.236 7.658-5.109 8.207-10.945-4.004-2.844-8.057 4.174-12.311 2.734-0.902 1.715 2.703 2.143 0.684 2.736-10.1 3.25-24.695 1.773-36.246 2.053-3.02 0.074-7.127 3.607-8.893-0.684 4.027 0.506 6.033 1.016 8.207-1.369 9.557 3.303 20.305-2.959 28.725-2.051-1.023 0.117-2.523-0.246-2.734 0.684 6.918 1.596 12.447-3.904 18.463-5.471-20.088 2.182-46.888 1.91-64.971-0.684 4.458-1.236 7.691 0.339 12.311 0.684 2.154 0.332 1.548-2.098 4.105-1.369 11.521 4.645 28.412-2.891 43.77 0 4.756-2.766 11.158-3.887 16.412-6.155 2.529-7.228 8.107-9.743 10.945-17.78-3.74-1.65-3.799 3.899-6.156 1.367 2.531-2.95 11.496-3.084 9.574-8.207-6.123 3.91-16.332 7.371-23.252 8.207 1.699 0.103 2.84-0.354 3.418-1.367-10.553 0.982-22.254 2.728-32.143 0.682 19.947 2.555 30.85-7.354 47.189-6.152 4.131-2.254 8.822-3.945 10.258-8.891-12.838 8.134-35.941 7.549-49.924 10.941 2.229-2.104 7.324-1.338 8.891-4.104-2.537-0.298-6.484 2.288-7.525-0.682 13.689 2.24 27.609-4.753 36.25-6.155 6.945-1.131 15.471 0.531 16.414-8.207-3.641-0.448-3.488 2.895-5.473 4.102-16.248 1.99-31.928 8.195-49.926 6.156 10.494 1.371 16.154-5.728 23.938-4.787-2.51 1.136-7.148 0.145-8.207 2.736 16.527-3.236 37.268-3.162 43.088-15.047-22.912 8.109-49.764 13.335-77.283 11.627 10.168 0.711 19.961-2.23 28.039-1.37 8.246-4.104 19.998-4.485 30.777-6.153 7.934-1.229 19.74-3.799 21.201-10.944-2.148 0.358-3.814 1.202-5.471 2.054-3.793-2.271-7.887 1.764-12.311 2.735-6.871 1.505-16.77 3.095-23.254 3.421-8.631 0.431-18.609 3.408-25.305 0 7.168 0.097 14.521 0.387 19.148-2.055 0.582 1.016 1.723 1.473 3.42 1.369 17.107-4.094 39.422-2.982 45.139-18.467-15.432 4.631-30.992 12.775-51.293 10.26 7.975-1.669 15.6 0.535 21.201-3.42 8.303-1.09 14.045-2.707 20.52-4.786 3.715-1.196 10.117-2.396 10.256-6.841-2.689-1.842-5.123 1.434-7.521 2.052-0.066-1.074 0.092-2.371-1.369-2.052-8.227 3.86-21.305 6.502-32.143 5.472 6.207 0.278 11.018-0.835 14.361-3.42 1.078 0.062 0.535 1.745 2.053 1.369 4.26-0.974 8.83-2.018 12.994-3.421 3.828-1.287 8.771-2.289 10.941-5.47-1.01-3.042-2.645 0.821-4.787 0.685 0.256-2.251 3.639-1.381 3.42-4.105-4.553 0.918-12.318 5.151-16.412 2.051 10.232 1.344 13.363-4.417 17.779-8.89-3.889-2.047-8.549 3.636-12.309 0 1.443-0.608 2.02-2.083 4.102-2.052-0.418 0.639-1.592 2.524 0.686 2.052 7.539-0.496 6.682-10.733 2.734-10.942 0.787-0.808 0.773-2.418 0.686-4.103-1.48-2.257-4.256 1.515-4.789 0 0.531-0.69 4.113-1.709 2.053-2.737-0.117 0.797-1.082 0.743-2.053 0.685 0.338-1.942 3.576-0.985 2.738-4.103-0.418-1.182-3.246 0.053-3.42-1.368 0.004-6.229-4.971-13.22-9.576-17.098-4.5-10.545-15.355-14.737-19.15-25.989-2.316 0.751-7.459 0.784-8.205-2.052 2.732 0.003 4.104 1.366 6.836 1.369 1.408-4.738-4.674-7.533-4.102-13.679-1.559-0.939-2.57 1.763-2.734 0 0.604-1.205 3.033-1.13 1.365-2.736-4.672 0.831-11.486 1.198-17.781 0.684 5.281-2.012 12.754-1.837 18.467-3.419-2.084-8.34-16.309 1.109-21.885-3.42 2.83 0.623 8.818 0.135 10.941-2.051-1.117 0.499-2.975-1.359-1.369-1.368 3.576-0.377 7.91 2.488 11.627 1.368 1.197-4.031-0.871-3.888-2.051-6.839 0.91-0.687 2.543-0.647 2.736-2.052-5.002 0.28-10.205 5.17-15.047 1.368 4.377-0.287 8.332 2.078 8.891-2.735-10.938-1.016-21.211 2.307-28.725-0.685 9.756-0.352 29.361-0.234 36.246-2.736-3.879-5.151-11.584 2.767-17.098-0.683 6.5-0.982 15.13 0.113 17.08-5.455zm-40.35-7.524c-6.387 0.452-14.586-0.907-19.834 0.685 4.911 3.327 15.106 2.014 19.834-0.685zm78.65 147.72c0.875 0.936 3.229 0.936 4.105 0v-2.734c-2.17 0.12-4.09 0.48-4.11 2.73zm-23.26 26.68c2.395 0.111 4.379-0.18 5.473-1.369-2.32-0.05-4.77-0.21-5.47 1.37zm-8.89 3.42c2.988 0.022 6.182 0.251 7.525-1.369-2.98-0.03-6.17-0.26-7.52 1.37zm1.37 5.47c2.809 0.068 5.582 0.111 6.838-1.369-2.81-0.08-5.58-0.11-6.84 1.37zm-5.47 27.35c3.773 0.354 5.852-0.988 6.156-4.103-3.66-0.24-4.28 2.56-6.16 4.1zm-20.52 0.69c2.119 0.066 3.793-0.311 4.785-1.369-1.54 0.5-5.32-1.23-4.78 1.37zm41.04 38.3c-11.201 0.152-0.461 2.209 4.102-0.682-2.83-0.32-2.47 0.65-4.1 0.68zm-26.68 2.05c2.672 0.727 8.752 1.068 12.312-0.684-2.78-0.95-10.52-1.59-12.31 0.68zm8.9 2.05h-9.574c1.11 3.06 7.81 0.78 9.57 0zm-6.16 4.79c2.082-0.197 4.666 0.109 4.785-2.051-1.23-1.63-5.12-0.16-4.78 2.05zm-10.26 2.05c2.221-0.059 4.205-0.354 5.471-1.369-2.32-0.05-4.77-0.21-5.47 1.37z"></path> <path style="fill:#EFE9E5;clip-rule:evenodd;fill-rule:evenodd" d="m125.45 39.671c5.514 3.45 13.219-4.468 17.098 0.683-6.885 2.502-26.49 2.384-36.246 2.736 7.514 2.992 17.787-0.332 28.725 0.685-0.559 4.813-4.514 2.449-8.891 2.735 4.842 3.803 10.045-1.088 15.047-1.368-0.193 1.405-1.826 1.365-2.736 2.052 1.18 2.951 3.248 2.808 2.051 6.839-3.717 1.12-8.051-1.745-11.627-1.368-1.605 0.008 0.252 1.866 1.369 1.368-2.123 2.186-8.111 2.674-10.941 2.051 5.576 4.529 19.801-4.92 21.885 3.42-5.713 1.582-13.186 1.407-18.467 3.419 6.295 0.515 13.109 0.147 17.781-0.684 1.668 1.606-0.762 1.531-1.365 2.736 0.164 1.763 1.176-0.939 2.734 0-0.572 6.146 5.51 8.941 4.102 13.679-2.732-0.003-4.104-1.366-6.836-1.369 0.746 2.836 5.889 2.804 8.205 2.052 3.795 11.252 14.65 15.444 19.15 25.989 4.605 3.878 9.58 10.87 9.576 17.098 0.174 1.42 3.002 0.186 3.42 1.368 0.838 3.118-2.4 2.161-2.738 4.103 0.971 0.059 1.936 0.113 2.053-0.685 2.061 1.028-1.521 2.047-2.053 2.737 0.533 1.515 3.309-2.257 4.789 0 0.088 1.685 0.102 3.295-0.686 4.103 3.947 0.209 4.805 10.447-2.734 10.942-2.277 0.472-1.104-1.414-0.686-2.052-2.082-0.031-2.658 1.444-4.102 2.052 3.76 3.636 8.42-2.047 12.309 0-4.416 4.473-7.547 10.234-17.779 8.89 4.094 3.1 11.859-1.132 16.412-2.051 0.219 2.724-3.164 1.854-3.42 4.105 2.143 0.136 3.777-3.727 4.787-0.685-2.17 3.181-7.113 4.183-10.941 5.47-4.164 1.403-8.734 2.447-12.994 3.421-1.518 0.376-0.975-1.308-2.053-1.369-3.344 2.585-8.154 3.698-14.361 3.42 10.838 1.03 23.916-1.611 32.143-5.472 1.461-0.319 1.303 0.978 1.369 2.052 2.398-0.618 4.832-3.894 7.521-2.052-0.139 4.445-6.541 5.645-10.256 6.841-6.475 2.079-12.217 3.696-20.52 4.786-5.602 3.955-13.227 1.751-21.201 3.42 20.301 2.516 35.861-5.629 51.293-10.26-5.717 15.484-28.031 14.373-45.139 18.467-1.697 0.104-2.838-0.354-3.42-1.369-4.627 2.441-11.98 2.151-19.148 2.055 6.695 3.408 16.674 0.431 25.305 0 6.484-0.326 16.383-1.916 23.254-3.421 4.424-0.972 8.518-5.007 12.311-2.735 1.656-0.852 3.322-1.695 5.471-2.054-1.461 7.146-13.268 9.715-21.201 10.944-10.779 1.668-22.531 2.049-30.777 6.153-8.078-0.86-17.871 2.081-28.039 1.37 27.52 1.708 54.371-3.518 77.283-11.627-5.82 11.885-26.561 11.811-43.088 15.047 1.059-2.592 5.697-1.601 8.207-2.736-7.783-0.94-13.443 6.158-23.938 4.787 17.998 2.039 33.678-4.166 49.926-6.156 1.984-1.207 1.832-4.55 5.473-4.102-0.943 8.738-9.469 7.076-16.414 8.207-8.641 1.402-22.561 8.396-36.25 6.155 1.041 2.97 4.988 0.384 7.525 0.682-1.566 2.767-6.662 2.001-8.891 4.104 13.982-3.393 37.086-2.808 49.924-10.941-1.436 4.945-6.127 6.637-10.258 8.891-16.34-1.202-27.242 8.707-47.189 6.152 9.889 2.046 21.59 0.301 32.143-0.682-0.578 1.014-1.719 1.47-3.418 1.367 6.92-0.836 17.129-4.297 23.252-8.207 1.922 5.123-7.043 5.257-9.574 8.207 2.357 2.532 2.416-3.018 6.156-1.367-2.838 8.037-8.416 10.553-10.945 17.78-5.254 2.269-11.656 3.39-16.412 6.155-15.357-2.891-32.248 4.645-43.77 0-2.558-0.729-1.951 1.701-4.105 1.369-4.619-0.345-7.853-1.92-12.311-0.684 18.083 2.594 44.883 2.865 64.971 0.684-6.016 1.566-11.545 7.066-18.463 5.471 0.211-0.93 1.711-0.566 2.734-0.684-8.42-0.908-19.168 5.354-28.725 2.051-2.174 2.385-4.18 1.875-8.207 1.369 1.766 4.291 5.873 0.758 8.893 0.684 11.551-0.279 26.146 1.197 36.246-2.053 2.02-0.594-1.586-1.021-0.684-2.736 4.254 1.439 8.307-5.578 12.311-2.734-0.549 5.836-4.057 8.709-8.207 10.945-1.715-2.207 1.939-4.877 4.787-4.791-15.873 3.055-35.176 10.721-55.396 5.473 12.182 5.273 34.342 2.516 46.506-0.682 3.279 0.238-1.459 2.047-1.367 3.416 2.201-0.783 4.762-1.617 6.838-0.682 0.373 2.834-1.59 8.762-2.736 12.309-3.551-0.361-5.479 0.902-8.207 1.369-1.51-0.984 0.863-1.67-0.682-2.053-7.396 0.584-13.225 2.734-21.203 2.738 6.471 3.547 17.992-2.756 23.254 2.051 3.096-0.098 3.58-2.805 6.838-2.736-1.119 4.578-1.797 9.598-2.734 14.363-11.738 6.045-35.176 7.66-53.346 5.471-12.342-1.488-24.069-4.404-31.46-9.576-1.792-9.082-3.821-23.418-7.522-32.826-0.206-1.803 0.946-2.246 2.736-2.055-3.429-0.672-6.721-1.485-7.525-4.785-0.206-1.801 0.949-2.244 2.735-2.051-0.506-1.545-3.834-0.268-5.471-0.686-6.812-13.018-14.744-24.924-21.884-37.615-0.164-1.203-1.177-1.559-2.736-1.367-0.823-6.93-2.811-12.692-5.471-17.782 0.303-9.782-0.417-17.97 0-25.305 2.599-45.708 46.972-57.208 51.294-98.484 0.971-9.279-2.271-20.067-1.37-30.092 7.364 1.276 11.947 1.202 20.518 1.368 13.247 8.434 30.564 2.627 48.558 4.103-2.705-2.993-11.07-0.328-15.047-2.051 5.346-2.337 11.285 0.053 15.732-0.685 1.717 1.205 0.48 1.13 1.365 2.735 3.443 0.476 4.768-1.16 8.209-0.685-9.486 4.097-23.605 5.643-35.564 3.42 5.803 5.204 20.721-0.714 25.99 2.052 4.592-2.252 12.58-4.738 17.781-4.104-7.568 5.197-19.131 6.399-30.094 8.207 7.219 2.847 19.133-5.584 23.939-0.685 2.748-0.669 3.188-3.65 6.836-3.419-1.95 5.588-10.58 4.493-17.1 5.491zm30.09 153.88c3.975-1.494 9.404-1.538 12.312-4.103-4.44 0.58-11.29 2.37-12.31 4.1zm-73.86-162.09c5.188-0.411 0.673-0.584-2.735-0.685-2.015-0.059-3.938-1.284-6.84 0.685 3.678-0.129 7.318 0.178 9.575 0zm-16.413 2.736c-2.869 0.36-3.821-1.195-6.156-1.368-0.818 2.908 5.179 2.519 6.156 1.368zm6.837 3.419c3.064-0.973 5.855 1.845 7.525 0-2.496-0.755-5.961-1.879-7.525 0zm28.726 0.684c3.275-0.96 6.428 1.732 8.207 0-2.2-0.337-6.84-3.1-8.21 0zm-33.512 3.419c-2.914-0.074-5.891-3.654-8.207-2.051 2.363 0.624 5.338 4.205 8.207 2.051zm0.684 6.84c-2.855-1.021-6.782-0.97-8.891-2.737 0.59 2.85 6.089 4.375 8.891 2.737zm46.508 3.419c6.238-1.526 13.719-2.246 19.834-2.051 1.646 1.949 2.268 2.134 4.104 0-8.18-1.2-17.22-2.597-23.93 2.051zm-53.348 3.42c3.999 0.51 10.035-0.798 2.736-0.685-1.277-0.545-2.505-1.142-4.102-1.368-0.206 1.346 0.921 1.358 1.366 2.053zm4.105 6.156c-0.712-0.722-4.884-1.414-5.471 0 0.709 0.721 4.881 1.412 5.471 0zm60.863 6.154c2.875 3.168 9.521 1.55 12.311-0.683-3.97 0.35-7.65 1.01-12.31 0.683zm-68.388 1.368c1.895-0.615 6.42 1.406 6.156-1.368-1.893 0.615-6.42-1.405-6.156 1.368zm75.228 2.735c1.777 2.763 7.898 2.331 8.891-0.683-3.28 1.275-4.74 1.306-8.89 0.683zm-80.699 11.627c0.615 1.281 5.702-0.61 3.42-2.051-0.222 1.601-2.983 0.664-3.42 2.051zm-14.362 36.249c0.064-2.116-2.065-2.039-4.102-2.052-0.064 2.11 2.065 2.04 4.102 2.05zm-2.052 11.63c-1.121-2.091-7.822-2.182-9.576-1.366 1.718 0.59 6.001 0.8 9.576 1.37zm138.15 8.89c2.654-0.994 5.465-1.831 7.525-3.418-2.65 1-6.22 1.08-7.53 3.42zm-137.47 1.36c-4.739 0.167-12.517-0.232-15.047 0 3.996 0.24 12.122 3.21 15.047 0zm84.118 2.74c-1.611 0.015-2.014-1.177-4.104-0.683-1.27 3.18 4.34 2.47 4.1 0.68zm36.93 4.79c3.377-0.044 6.941 0.101 8.207-2.051-2.6 0.81-7.06-0.22-8.21 2.05zm-124.47 4.1c-5.477 0.451-12.759-0.907-17.098 0.682 5.477-0.45 12.76 0.91 17.098-0.68zm95.748 2.05c-1.625-1.136-7.947-1.136-9.572 0 2.14 0.71 5.74-0.42 9.57 0zm32.83 2.05c0.195-1.082 5.596-2.229 2.051-2.735-4.28 3.22-18.63 2.21-2.05 2.74zm-35.57 7.53c-5.102 1.42 7.023 0.857 8.207-0.685-3.8 0.41-7.09 0.38-8.21 0.69zm-110.11 4.1c-2.705-0.03-3.965-1.506-6.156-2.051-0.22 2.54 4.645 3.52 6.156 2.05zm4.102 1.37c5.886-0.951 11.416 1.072 17.098-0.684-4.264-0.41-14.051-2.22-17.098 0.68zm140.89 8.21c3.289-2.872 14.359-1.59 14.361-5.471-3.25 2.91-14.12 1.83-14.36 5.47zm-123.11 1.36c-9.559 0.724-24.926-0.612-30.776-3.42 6.554 5.15 22.683 5.68 30.776 3.42zm82.751-4.1c-8.947-0.47 1.568 2.527 5.471 0.683-1.73 0.62-3.3-0.56-5.47-0.68zm-67.704 6.84c-3.367-0.737-6.373-1.834-10.258-2.051 0.796 2.57 10.856 2.58 10.258 2.05zm115.58 0.68c-3.613 1.605 7.379-0.443 4.789-2.052-1.31 0.98-2.97 1.59-4.79 2.05zm-150.46 3.42c-0.367-2.597-4.915-1.014-6.156-2.736 0.574 2.4 4.314 1.62 6.156 2.74zm30.094 4.79c-6.718 4.319-17.44-1.915-23.253-0.685 6.11 1.37 20.417 5.92 23.253 0.68zm11.627 2.05c10.019 1.767 21.784-0.522 30.09-2.735-9.511 1.43-20.005 1.87-30.09 2.73zm-38.301 0.69c-2.591 0.053-5.516-3.108-7.522-1.366 1.845 0.69 5.31 3.31 7.522 1.37zm59.501 6.84c-0.804 0.106-1.939-0.116-2.051 0.686h3.42 6.838c6.506 1.26 16.68 0.887 23.254 0-0.105-0.807 0.117-1.943-0.686-2.055-7.34 4.86-20.28-0.08-30.774 1.36zm-48.558 3.42c-1.222 0.003-3.979-1.843-4.787 0 0.576 0.64 4.361 1.45 4.787 0zm12.311 3.41c-15.145-0.679 16.01 4.464 15.729 0.686-3.577 0.97-13.553-0.59-15.729-0.69zm64.291 1.37c-9.418 2.767-31.394 0.641-42.403 2.051 15.556 1.047 36.942 1.748 53.345-1.365-3.55-0.32-8.49 0.74-10.94-0.68zm-71.131 5.47c-3.395-0.494-9.542-1.834-10.942-2.051 1.658 2.24 8.593 2.78 10.942 2.05zm98.481 1.37c2.809 0.07 5.582 0.111 6.838-1.369-2.39 0.35-5.16 0.31-6.84 1.37zm14.37 0.68c3.355-0.712 5.791 0.924 7.521-2.052-3.24-0.04-6.49-0.1-7.52 2.05zm-28.73 0c0.246 1.649 12.33 0.173 12.309-0.683-4.5-0.16-7.46 1.2-12.31 0.68zm-48.556 2.74c1.634-0.924-8.298-1.586-12.312-1.366-2.747-1.984-7.764-1.229-10.942 0 7.347 0.86 15.453 0.96 23.254 1.37zm65.656-1.37c3.062 0.101 5.852-0.075 7.521-1.369-2.53 0.43-7.03-1.11-7.52 1.37zm-92.33 0.69c3.417-1.107-5.504-0.57-7.522-0.685-0.81-0.101-1.55-1.22-2.054 0 2.046 1.37 6.454 0.38 9.576 0.68zm41.717 0c-0.094 1.371 7.045 0.781 4.79 0-5.95-1.46-19.775 1.85-4.79 0zm71.813-0.69c-17.047 2.63-37.668 4.319-56.766 2.735-1.756-0.066-0.977-2.668-2.734-2.735-0.518 1.987-5.636-0.62-6.156 1.366 1.283 0.999 4.533 0.027 5.471 1.369-0.393 1.658-4.422-0.322-4.102 2.051 6.742-3.117 13.396 0.641 20.518 1.369 11.213 1.146 22.576-4.592 33.512-2.735-3.609 5.341-12.537 1.611-18.467 4.786 1.561-0.191 2.57 0.164 2.736 1.367-7.471 3.34-16.152 2.808-25.99 2.053 0.807-0.107 1.943 0.117 2.055-0.684-4.186 0.467-10.275-2.872-13.678 0.684 1.26-0.164 6.184-2.217 6.152 0.683-1.979 1.224-8.568 1.765-7.522-0.683-2.073 0.66-3.643 1.829-5.472 2.736 13.117-0.49 25.324 0.646 35.562 0 10.514-0.665 20.654-0.167 28.043-6.156-5.889 0.958-13.156 4.16-19.834 2.051 4.66-2.863 12.387-2.656 18.465-4.102 0.27-1.177-1.016-1.753 0-2.053 2.69 1.31 5.24-3.4 8.21-4.1zm-125.84 4.11c0.025-1.893-4.87-2.363-5.471-1.367 0.997 1.28 4.478 0.08 5.471 1.37zm57.45 0c-2.978 0.441-7.731-0.891-9.573 0.684 2.978-0.44 7.73 0.89 9.573-0.68zm-28.04 3.42c5.819-0.947 0.103-0.304-2.736 0-10.082 1.07-1.074 0.62 2.736 0zm-6.156 2.73c-2.691-0.241-15.145-3.277-18.464-0.684 5.563-1 11.059 1.52 18.464 0.68zm18.467 4.11c-1.989-2.535 6.367-1.58 5.471-2.736-3.659 0.445-9.105-0.898-11.626 0.683 2.081 0.66 2.752 2.72 6.155 2.06zm-31.46 2.05c4.645-0.979 9.055 1.865 12.309 0-3.164-0.2-11.747-1.7-12.309 0zm15.729 2.73c2.616-0.963 4.981 1.786 6.156 0-0.527-1.06-7.893-1.06-6.156 0zm15.731 0c-2.526 0.436-6.812-0.885-8.207 0.684 2.527-0.43 6.813 0.89 8.207-0.68zm60.181 7.52c2.686-0.047 3.773-1.695 5.471-2.736-2.5 0.24-5.4 0.08-5.47 2.74zm-62.235 1.37c-1.227-0.164-9.509-2.771-12.309-1.369 3.635 0.93 7.3 1.82 12.309 1.37zm12.311-0.68c3.143-0.99-5.674-1.416-10.257 0 2.842 0.93 8.867 0.44 10.257 0zm-18.464 10.26c3.793-1.945 9.626 1.42 11.627-1.369-3.534 0.8-10.333-1.67-11.627 1.37zm-9.575 0c-0.71-0.725-4.884-1.414-5.471 0 2.393-0.96 4.377 1.92 5.471 0zm43.083 4.79c7.17 3.008 20.016-0.006 27.355-1.369 0.793 1.012 0.793 1.725 0 2.734 1.963-2.141 7-1.207 8.893-3.418-1.701-0.102-0.201-2.316 0-2.734-12.84 0.83-23.03 4.32-36.24 4.79zm-41.714 1.36c-1.614-0.893-4.728-0.287-6.156-1.365 0.184 1.9 5.173 2.52 6.156 1.36zm52.664 14.37c5.865-1.656 15.367 0.322 19.148-3.418-5.98 1.1-16.69 1.08-19.15 3.42z"></path> <path style="clip-rule:evenodd;fill-rule:evenodd" d="m167.86 189.45c-2.908 2.564-8.338 2.608-12.312 4.103 1.01-1.73 7.86-3.52 12.31-4.1z"></path> <path style="clip-rule:evenodd;fill-rule:evenodd" d="m181.53 136.79c-2.061 1.587-4.871 2.425-7.525 3.418 1.32-2.34 4.89-2.42 7.53-3.42z"></path> <path style="clip-rule:evenodd;fill-rule:evenodd" d="m21.495 141.57c2.53-0.232 10.308 0.167 15.047 0-2.925 3.21-11.051 0.24-15.047 0z"></path> <path style="clip-rule:evenodd;fill-rule:evenodd" d="m42.698 180.56c3.885 0.217 6.891 1.313 10.258 2.051 0.598 0.53-9.462 0.52-10.258-2.05z"></path> <path style="clip-rule:evenodd;fill-rule:evenodd" d="m173.33 181.24c2.59 1.608-8.402 3.657-4.789 2.052 1.82-0.46 3.48-1.07 4.79-2.05z"></path> <path style="clip-rule:evenodd;fill-rule:evenodd" d="m11.919 183.98c1.241 1.723 5.789 0.14 6.156 2.736-1.842-1.13-5.582-0.35-6.156-2.74z"></path> <path style="clip-rule:evenodd;fill-rule:evenodd" d="m26.966 212.7c1.4 0.217 7.547 1.557 10.942 2.051-2.348 0.73-9.283 0.19-10.942-2.05z"></path> <path style="clip-rule:evenodd;fill-rule:evenodd" d="m134.34 216.12c0.021 0.855-12.062 2.332-12.309 0.683 4.85 0.52 7.81-0.84 12.31-0.68z"></path> <path style="clip-rule:evenodd;fill-rule:evenodd" d="m93.307 218.86c2.255 0.781-4.884 1.371-4.79 0-14.985 1.85-1.16-1.46 4.79 0z"></path> <path style="clip-rule:evenodd;fill-rule:evenodd" d="m152.12 222.28c-1.016 0.3 0.27 0.876 0 2.053-6.078 1.445-13.805 1.238-18.465 4.102 6.678 2.109 13.945-1.093 19.834-2.051-7.389 5.989-17.529 5.491-28.043 6.156-10.238 0.646-22.445-0.49-35.562 0 1.829-0.907 3.398-2.076 5.472-2.736-1.046 2.447 5.544 1.906 7.522 0.683 0.031-2.899-4.893-0.847-6.152-0.683 3.402-3.556 9.492-0.217 13.678-0.684-0.111 0.801-1.248 0.576-2.055 0.684 9.838 0.755 18.52 1.287 25.99-2.053-0.166-1.203-1.176-1.559-2.736-1.367 5.93-3.175 14.857 0.555 18.467-4.786-10.936-1.856-22.299 3.882-33.512 2.735-7.121-0.729-13.775-4.486-20.518-1.369-0.32-2.373 3.709-0.393 4.102-2.051-0.938-1.342-4.188-0.37-5.471-1.369 0.521-1.986 5.639 0.621 6.156-1.366 1.758 0.067 0.979 2.669 2.734 2.735 19.098 1.584 39.719-0.105 56.766-2.735-2.98 0.71-5.53 5.42-8.22 4.12z"></path> <path style="clip-rule:evenodd;fill-rule:evenodd" d="m39.278 227.75c3.32-2.594 15.773 0.442 18.464 0.684-7.405 0.84-12.901-1.68-18.464-0.68z"></path> <path style="clip-rule:evenodd;fill-rule:evenodd" d="m76.209 245.53c4.583-1.416 13.4-0.99 10.257 0-1.39 0.44-7.415 0.93-10.257 0z"></path> <path style="clip-rule:evenodd;fill-rule:evenodd" d="m131.6 272.89c-3.781 3.74-13.283 1.762-19.148 3.418 2.47-2.34 13.18-2.32 19.15-3.42z"></path> <path style="fill:#EFE9E5;clip-rule:evenodd;fill-rule:evenodd" d="m152.81 9.579c0.67 1.967 2.273 5.434 0.684 7.523-2.576 1.657-4.785-0.568-7.525 0.683 0.537 1.515 4.236-0.131 3.422 2.735-4.182 1.975-10.824 1.489-16.414 2.052-0.648 2.472 2.693 0.953 4.102 1.368-4.135 3.388-12.795 1.608-17.779 1.368 3.055-1.503 7.697-1.42 12.309-1.368-10.947-1.685-28.064 0.187-38.298-4.104-0.985 0.154-0.239 2.041-1.369 2.051-15.709-2.3-38.709 2.692-45.823-8.207 1.395-7.223 8.794-8.75 18.467-9.574 27.003-2.3 65.383-1.654 88.233 5.473zm-62.924-1.369c1.698-0.1 3.32-0.128 3.421 1.368-5.753 0.658-12.89 1.192-19.152 0 2.168-1.024 6.042-0.344 8.209-1.368 7.023-0.388-2.196-1.081-5.471-0.685-7.235 0.875-21.358-1.622-23.253 4.104 4.973 7.338 12.078-0.161 18.464 2.737-0.807 0.332-1.55 0.729-2.051 1.368 13.194-1.457 30.659 3.37 41.717-0.685 7.619 0.15 16.199 1.081 23.254 0.685 3.564-0.2 9.428 0.465 10.941-3.42-13.141 3.214-39.471 2.409-51.975-0.685 3.041-0.601 2.416-0.615 1.366-2.735 0.866-1.642 5.394 0.378 6.155-1.368-3.8-0.697-9.664-2.219-11.624 0.684zm28.044 12.311c4.441-0.37 8.057 1.638 10.26-0.683-2.87 0.34-10.76-0.755-10.26 0.683zm17.78-0.684c-2.08 0.429-5.893-0.875-6.842 0.683 2.08-0.428 5.89 0.877 6.84-0.683z"></path> <path style="clip-rule:evenodd;fill-rule:evenodd" d="m101.51 7.526c-0.762 1.747-5.289-0.274-6.155 1.368 1.05 2.12 1.675 2.134-1.366 2.735 12.504 3.093 38.834 3.899 51.975 0.685-1.514 3.885-7.377 3.22-10.941 3.42-7.055 0.396-15.635-0.534-23.254-0.685-11.059 4.055-28.523-0.772-41.717 0.685 0.501-0.639 1.244-1.036 2.051-1.368-6.387-2.898-13.491 4.602-18.464-2.737 1.895-5.726 16.018-3.228 23.253-4.104 3.275-0.396 12.495 0.296 5.471 0.685-2.167 1.024-6.042 0.344-8.209 1.368 6.262 1.192 13.399 0.658 19.152 0-0.101-1.496-1.723-1.468-3.421-1.368 1.96-2.903 7.824-1.381 11.624-0.684z"></path> </g> <metadata></metadata></svg> 