<?xml version="1.0" encoding="UTF-8" standalone="no"?> <!-- Generator: Adobe Illustrator 13.0.2, SVG Export Plug-In . SVG Version: 6.00 Build 14948) --> <svg xmlns:rdf="http://www.w3.org/1999/02/22-rdf-syntax-ns#" xmlns="http://www.w3.org/2000/svg" xmlns:x="http://ns.adobe.com/Extensibility/1.0/" xmlns:dc="http://purl.org/dc/elements/1.1/" xmlns:i="http://ns.adobe.com/AdobeIllustrator/10.0/" xmlns:cc="http://web.resource.org/cc/" xmlns:xlink="http://www.w3.org/1999/xlink" xmlns:a="http://ns.adobe.com/AdobeSVGViewerExtensions/3.0/" xmlns:graph="http://ns.adobe.com/Graphs/1.0/" xmlns:svg="http://www.w3.org/2000/svg" xmlns:inkscape="http://www.inkscape.org/namespaces/inkscape" xmlns:sodipodi="http://sodipodi.sourceforge.net/DTD/sodipodi-0.dtd" xmlns:ns1="http://sozi.baierouge.fr" i:rulerOrigin="0 0" xml:space="preserve" i:viewOrigin="229.77 574.1123" i:pageBounds="0 792 612 0" y="0px" x="0px" viewBox="0 0 153.46 357.225"> <switch> <g i:extraneous="self"> <g id="Layer_1" i:rgbTrio="#4F008000FFFF" i:layer="yes" i:dimmedPercent="50"> <g i:knockout="Off"> <path d="m71.766 0.028c2.541-0.223 2.535 2.101 4.345 2.607-2.396 1.75-5.729 0.649-8.691 0.869-2.995 0.223-5.585 0.253-9.56 0.435-1.337 0.324-0.835-1.191-2.173-0.869-1.683-0.233-1.789 1.107-3.042 1.304-3.957-0.46-7.504-1.657-9.125 1.737 0.798 3.25-1.021 6.5-3.042 8.257-0.383-1.065-0.538-2.359-1.738-2.607-0.309-2.771 1.53-3.395 2.173-5.214 0.324-1.337-1.193-0.835-0.869-2.173 1.281-0.457 1.511-1.965 2.173-3.042 4.073-0.72 6.314-0.309 10.864 0 0.859-1.114 4.132-2.12 5.214-0.436 2.534-1.792 7.161 0.626 10.429 0.869 1.713 0.121 1.329-1.857 3.042-1.737z"></path> <path d="m79.587 0.462c1.889-0.15 2.426 1.051 3.91 1.304 7.316-1.525 11.428 1.028 18.252-0.869 0.766 1.263 2.338 1.718 2.606 3.477-2.458-0.561-6.854-0.897-8.69 0.435-4.797-3.635-13.42 2.631-16.083-4.347z"></path> <path d="m77.85 0.897h0.869v0.869h-0.869v-0.869z"></path> <path d="m20.055 55.65c2.648-2.551 4.998-6.781 5.214-10.429 4.893-10.692 7.118-21.604 12.602-31.288 1.791-0.074 0.817 1.942 2.607 0.869-0.857 1.952-0.965 4.321-1.738 6.518-0.213 0.606-1.535 1.479-1.738 2.174-0.267 0.914 0.283 1.916 0 2.606-0.322 0.786-1.387 0.988-1.738 1.738-0.295 0.63-0.083 2.121-0.435 3.042-0.867 2.269-3.034 6.742-3.911 9.995-0.311 1.155-0.029 2.717-0.435 3.911-0.679 2.001-2.708 3.263-1.738 5.648-0.846 0.893-1.355 2.121-3.042 2.173 0.338 0.967 0.913 1.694 0.869 3.042-2.87 6.69-6.574 12.546-7.822 20.858-1.612 0.996-2.255 2.959-3.477 4.346 1.061 2.498-1.194 7.317-3.042 8.691 0.924 1.349-0.494 3.36-1.738 3.911 0.915 5.011-3.955 7.894-3.911 13.471-2.666 3.01-1.741 7.984-0.869 14.34 0.357 2.606 1.261 5.171 1.738 7.822 0.695 3.86 0.619 7.91 1.304 10.86 0.275 1.187 0.382 2.14 1.738 3.042-1.4 5.979 1.634 11.745 3.042 17.815 0.745 3.212 0.703 6.653 1.304 9.994 0.803 4.464 1.283 9.301 2.173 13.905 0.404 2.09 1.377 4.023 1.738 6.084 0.439 2.511 0.055 4.985 0.435 7.388 0.088 0.562 0.73 1.216 0.869 1.738 0.49 1.842 0.044 3.924 0.434 5.647 0.108 0.479 0.793 1.261 0.869 1.738 0.242 1.518-0.274 3.281 0 4.78 0.259 1.418 1.344 2.464 1.738 3.911 0.681 2.501 0.355 5.684 0.869 8.689 0.359 2.099 1.51 4.15 1.738 6.084 0.104 0.882-0.53 1.226-0.435 1.738 0.317 1.705 1.203 2.881 1.304 4.345 0.201 2.914-0.941 5.489 1.738 7.389 0.503 15.74 6.178 32.441 6.518 47.364 0.332 2.955 1.679 5.646 2.173 8.691 1.067 6.581 0.835 13.913 2.172 20.424 0.392 1.908 1.553 3.333 1.738 5.214 0.381 3.869-0.974 7.462 1.738 10.431-1.143 4.216 1 9.942 0 13.904 0.958 1.505 1.799 3.125 1.738 5.649-2.062 1.226-2.229-1.35-4.78-0.869-0.341-1.79 0.667-2.23 0.435-3.911-2.52-6.245-2.594-15.554-3.911-23.899-0.144-0.909-0.777-1.773-0.869-2.607-0.076-0.684 0.549-1.841 0.435-2.606-0.182-1.215-1.103-2.521-1.304-3.91-0.132-0.912 0.211-2.147 0-3.042-0.339-1.436-1.49-2.897-1.738-4.347-0.312-1.82 0.167-3.858 0-5.647-0.708-7.598-3.163-15.556-3.477-23.466-0.026-0.665-0.821-1.546-0.869-2.174-0.153-2.003 0.313-3.929 0-5.648-0.227-1.245-1.135-2.259-1.304-3.477-0.114-0.823 0.608-1.355 0.435-2.173-0.362-1.698-1.336-3.066-1.738-4.779-0.645-2.747-0.314-5.892-0.869-8.691-0.452-2.278-1.888-4.242-2.173-6.519-0.167-1.332 0.854-2.608 0.869-3.042 0.023-0.673-0.65-2.286-0.869-3.042-0.458-1.583-1.562-3.314-1.738-4.779-0.179-1.485 0.486-3.341 0.435-4.779-0.141-3.963-2.83-7.638-1.303-11.299-2.484-5.627-2.61-13.613-3.911-20.423 0.186-1.2-1.62-0.408-1.738-1.305 0.11-1.516 0.751-4.731-0.869-5.648-0.326-1.485 1.766-0.552 1.304-2.173-0.372-2.676-1.527-5.471-1.738-8.257-0.056-0.735 0.572-1.452 0.435-2.173-0.576-3.015-1.933-6.072-2.607-9.126-1.189-5.388-2.042-10.501-3.042-15.644-0.574-2.953-1.235-5.103-1.304-8.256-0.047-2.162-1.392-4.45-1.738-6.953-0.264-1.904 0.197-3.997 0-5.649-0.589-4.942-2.236-9.726-3.911-14.34 0.694-4.518-1.318-8.754-0.869-13.036 0.247-2.357 1.992-4.352 1.738-6.953 0.651-0.651 1.307-1.3 2.172-1.737 1.244-5.228 2.991-9.815 5.215-14.34 1.184-2.408 3.079-4.622 3.911-6.953 0.632-1.771 0.344-3.906 0.869-5.649 0.284-0.941 2.419-4.505 2.607-6.519 0.069-0.738-0.657-1.454-0.435-2.173 0.811-2.616 4.116-4.288 3.477-7.388v-0.434l0.651 0.217-0.215-0.604z"></path> <path d="m82.628 121.27c0.252 2.356 2.76 2.456 2.607 5.215-1.142 2.045-3.184 3.189-4.779 4.78-1.812 0.218-1.916-1.27-3.912-0.869-0.444-2.71-1.549-4.66-0.869-7.387 1.932-1.69 3.614-2.29 6.953-1.73z"></path> <path d="m98.708 121.7c1.442 5.166-1.006 9.535-5.648 9.994-5.514-2.86-2.456-14.28 5.648-9.99z"></path> <path d="m87.844 132.56c2.856 0.78 5.167 5.704 3.911 7.822-2.109 0.371-2.467-1.01-3.043-2.173-0.725 0.58-0.674 1.933-1.303 2.606-4.951 0.944-5.293-2.844-3.912-6.084 2.726 0.55 2.833-1.52 4.347-2.18z"></path> <path d="m96.535 133.87c0.239 0.963-0.828 0.618-0.869 1.303-1.083-0.17-0.026-1.68 0.869-1.3z"></path> <path d="m99.142 134.3c1.749 0.316 0.025 2.039-0.869 0.869 0.107-0.47 0.864-0.29 0.869-0.87z"></path> <path d="m59.164 135.61c0.903 0.244 0.921 0.679 0.435 1.305h-0.869c-0.123-0.71 0.41-0.76 0.434-1.31z"></path> <path d="m80.457 143.43c1.371 0.737 0.541 2.021 0.436 3.476-0.981-0.33-0.172-2.44-0.436-3.48z"></path> <path d="m110.44 1.766c1.128 2.06 1.495 4.878 3.477 6.083-0.135 1.583 0.068 2.828 0.435 3.911 2.856 5.255 5.015 11.209 6.953 17.382 2.963 4.569 3.735 11.329 7.388 15.209 0.917 6.037 5.779 10.441 6.083 15.645 0.604 0.988 1.504 1.684 2.173 2.606 0.701 5.093 2.756 8.833 5.215 12.167 0.276 4.648 3.629 6.223 4.78 9.995 0.358 1.229-0.612 1.126-0.435 2.173 3.395 3.612 3.119 8.655 6.082 12.167 0.316 1.187-0.862 0.875-0.868 1.738 1.104 0.2 1.229 1.377 1.737 2.173-0.074 4.479-0.774 8.574-1.737 11.733 0.164 1.322-1.579 0.737-1.738 1.737-0.325 1.485 1.767 0.553 1.304 2.173-2.143 3.65-1.521 10.065-4.345 13.036 0.349 5.344-1.374 7.504-2.173 12.603-0.525 3.353-2.518 6.541-3.042 10.864-0.226 1.849 0.289 3.417 0 5.215-0.485 3.023-2.599 5.55-2.606 9.125 0.072 1.087-0.668 1.359-1.305 1.738 2.104 2.844 0.02 5.763-0.869 9.125-0.793 3.005-0.88 7.644-1.738 10.863-0.349 1.31-1.229 2.004-1.303 3.042-0.089 1.252 0.635 2.674 0.434 3.911-0.233 1.447-1.342 2.532-1.737 3.91-1.856 6.459-0.442 13.983-3.91 19.555-0.431 1.154 0.457 2.378 0.435 3.478-0.062 2.935-1.896 5.47-2.606 8.257-1.054 4.121-0.129 8.382-2.606 11.298 1.469 4.358-1.623 8.669-2.174 13.036-0.203 1.619 0.266 3.221 0 4.78-0.18 1.056-1.004 1.559-1.304 2.606-0.696 2.442-0.017 5.226-0.435 7.821-0.567 3.53-2.588 6.261-2.174 11.733-1.42 3.361-3.252 8.619-2.173 13.035-3.589 8.107-3.759 18.103-6.083 27.812-0.388 1.619-1.521 2.729-1.738 5.215-0.323 3.711-0.201 8.574-0.869 12.602-0.664 4.018-2.227 6.094-0.435 9.562-0.456 1.57-1.649 2.406-2.606 3.477-5.223 0.573-14.75-0.961-19.989 0.869-9.068-1.976-17.433-0.571-24.769-2.173-3.947 2.03-8.503 0.523-12.602 0.869-0.043-1.782-0.085-3.562 0.435-4.78 5.751 1.054 17.548 1.479 23.466 0.436 3.982 1.67 11.491-0.019 17.816 0.435 1.276 0.091 2.31 0.896 3.478 0.869 2.59-0.062 5.285-1.473 7.82-0.869 1.473-1.577 2.338-6.056 1.738-8.257 2.104-2.096 1.113-7.287 3.477-9.125-0.803-2.418 0.529-4.561 0.869-6.953 0.707-4.98 0.596-10.387 1.738-15.209 0.336-1.417 1.438-2.518 1.738-3.911 0.595-2.759 0.953-5.938 1.304-8.689 0.202-1.599-0.312-3.503 0-5.216 0.606-3.338 3.312-6.874 1.738-10.429 2.444-2.914 1.337-9.382 3.041-13.036-0.062-1.243-1.812-0.795-3.041-0.869-0.466 2.302-1.751 5.218-0.869 9.125-0.708 0.887-0.913 2.274-1.737 3.042-0.505 6.508-1.891 12.711-3.043 18.687-2.121 10.987-3.796 21.518-6.084 32.591-0.299 1.168 0.898 0.84 1.305 1.304-3.164 2.919-2.73 9.438-4.347 13.905-8.431 0.853-19.006-0.249-26.072 1.304-1.916-0.759-7.425-1.842-9.125 0-4.202-1.592-9.694-1.894-15.644-1.737-1.032-7.646-1.658-14.062-3.042-22.598-0.43-2.65-1.003-4.28-1.304-8.689-0.279-4.091-1.23-7.375-1.738-12.603-0.234-2.406-1.434-4.631-1.738-6.953-0.188-1.431 0.225-2.921 0-4.346-0.376-2.381-1.877-5.397-2.172-8.689-0.064-0.717 0.537-1.484 0.435-2.174-0.496-3.322-1.889-6.893-2.173-10.43-0.15-1.868 0.357-3.454 0-5.214-0.647-3.187-0.653-8.494-1.738-12.603-0.258-0.979-1.097-1.992-1.304-3.041-0.441-2.241-0.085-4.62-0.435-6.953-0.094-0.627-0.726-1.11-0.869-1.738-0.925-4.049-0.776-9.06-1.738-13.471-0.472-2.167-1.708-3.585-1.303-6.953-0.402-1.046-0.793-2.104-1.304-3.042-0.901-14.372-4.114-23.84-5.215-38.239-0.007-1.297-1.129-1.478-1.303-2.607-0.286-2.321 0.676-5.891-1.738-6.084-0.325-1.339 1.498-0.528 0.869-2.173-1.768-3.65-0.063-8.505-3.042-10.429 1.751-3.146-1.47-6.265-0.869-10.864-4.369-6.544-2.567-17.681-5.214-24.334 0.125-1.179 0.559-2.048 1.303-2.606-3.689-1.636-0.551-6.087-3.476-9.125 0.257-0.902 0.836-1.481 1.738-1.738 1.274-8.141 5.581-13.25 7.822-20.423 0.315-1.329-0.75-1.278-0.435-2.607 2.872-3.212 4.052-8.115 6.518-11.732-0.374-3.954 2.668-4.947 2.173-7.822 0.885-0.129 1.158-0.87 1.738-1.304-0.133-5.349 2.644-7.785 3.042-12.603 0.773-0.386 1.104-1.213 2.607-0.869 0.035-5.249 1.356-6.947 2.173-11.732 1.9-0.562 2.732-2.193 3.911-3.477-2.089-3.538 0.93-4.788 0.435-8.257 2.147-3.791 3.333-8.544 4.346-13.471 1.164-0.137 1.963-4.564 3.042-4.78 2.021-0.404 0.241 0.075 0-2.606 1.407-0.583 3.274-1.268 4.346 0 0.846-1.65 1.356-0.934 3.042-0.436 2.633-1.718 6.902-0.25 9.994-0.435 0.852-0.052 1.484-0.894 2.173-0.869 0.772 0.026 1.421 0.906 2.173 0.869 1.272-0.062 2.274-0.833 3.477-0.869 6.458-0.198 13.432-0.144 19.12 1.738 1.301-0.292 2.313-0.872 3.042-1.738 5.271 0.611 9.076-2.322 11.732 1.304 0.729 0.998 0.621 1.502 1.304 3.477 0.418 1.209 1.616 2.189 1.737 2.606 0.24 0.832-0.312 2.131 0 3.042 1.153 3.369 2.625 6.273 3.478 8.691 0.285 1.589-0.94 1.667-0.869 3.042 1.419 0.607 3.503 0.553 3.91 2.173 0.483 2.078-1.354 1.833-0.869 3.911 0.351 1.78 1.789-0.227 2.606 0.869 0.896 3.45 1.545 7.146 3.912 9.125 0.481 1.363 0.203 1.147-0.436 2.172 2.885 1.751 3.361 5.909 5.648 8.257 2.328 10.272 6.535 18.668 10.863 26.94v3.042c3.971 4.577 4.81 12.284 8.258 17.383-1.172 6.511-2.681 12.586-3.478 18.686-0.683 5.224-3.364 10.315-3.911 15.209-0.139 1.24 0.186 2.679 0 3.911-0.053 0.348-0.783 1.055-0.869 1.738-0.093 0.743 0.662 0.974 0.436 1.737-0.143 0.477-1.073 0.554-1.305 1.305-0.117 0.384 0.198 0.681 0 1.304-0.576 1.817-2.076 4.997-2.172 7.387-0.043 1.042 0.637 1.625 0.435 2.607-0.642 3.116-3.119 6.799-2.173 10.864-0.836 1.046-1.121 2.645-3.041 2.606-0.414 3.375-0.344 4.316 1.303 6.084-1.539 2.717-1.33 4.156-1.737 7.387-0.649 1.206-1.776-0.754-2.173 0.436-0.695 1.711 1.876 0.151 1.738 1.304-0.855 5.671-1.576 10.112-3.042 14.341 0.849 2.829-0.851 3.915-0.435 7.388-1.363 0.086-0.056 2.843-1.738 2.606 0.75 1.746 0.676 4.919-0.869 5.649 1.234 7.238-1.594 14.002-3.477 19.555 0.045 6.529-1.31 15.121-4.347 19.988 0.517 2.585-0.465 6.618 0.869 8.257 4.772-4.498 2.077-16.464 6.519-21.293 0.146-6.859 2.939-14.693 3.478-22.597 0.892-0.847 1.427-2.05 2.173-3.041-0.188-0.684-1.367-0.372-0.869-1.738 1.227-5.292 1.293-11.743 3.477-16.078 0.314-1.329-0.75-1.278-0.436-2.607 2.409-5.414 1.389-13.478 4.346-19.119 0.213-1.372-0.783-1.535-0.435-3.042 1.022-1.721 1.271-3.666 2.173-5.649 1.178-2.586-0.593-8.142 3.042-10.864 1.188-15.036 6.431-31.572 9.125-49.538 0.909-0.184 1.151 0.299 1.738 0.436-0.478-3.9-0.531-3.752-0.435-7.822-0.111-0.902-1.91-0.119-2.173-0.869 0.136-1.728-1.004-2.183-0.868-3.911-4.504-5.78-4.951-15.619-9.996-20.857 0.334-1.639-0.529-2.077-0.435-3.477-1.45-0.722-0.853-3.492-2.606-3.911-2.028-11.008-7.646-18.427-10.43-28.68 0.114-1.418-1.352-1.255-1.738-2.172v-2.173c-0.744-0.415-0.875-1.442-1.737-1.738-3.589-11.186-8.201-21.348-13.905-30.418 0.21-2.868 3.4-1.11 5.26-0.868zm-28.245 170.77c5.264-3.288 11.771-3.2 16.078-7.822 7.305-0.518 10.542-5.102 18.251-5.214 2.451-1.844 7.382-2.712 10.864-2.173 1.062-1.688 3.574-1.931 3.91-4.347-4.162-0.472-8.293-0.977-9.994-3.91 2.374-0.743 4.129-3.677 4.346-5.215 0.812 0.783 1.936-1.809 2.173-3.042-2.272-1.029-3.018-2.054-5.649-0.868v-1.305c-2.021 0.71-3.409 2.438-2.606 4.78-0.772 0.386-1.104 1.213-2.606 0.869-1.775 3.729-5.842 5.167-7.821 8.69-1.323 0.416-1.749 1.729-3.911 1.305-2.456 3.482-7.456 4.422-10.863 6.953-3.184-0.432-3.148 2.355-6.519 1.737-3.798 3.114-9.81 2.242-12.602 5.649-5.228-0.125-7.843 4.078-13.036 2.606-2.486 1.716-5.583 2.818-9.995 2.607-0.435 0.579-0.716 1.312-1.304 1.738-6.283 0.053-12.65 4.055-19.989 2.606-0.901-0.178-2.538-1.094-4.78-0.435-2.494 1.998-3.704 5.347-0.435 7.387 0.776 0.485 4.03-1.02 3.476 1.738 1.628 0.034 1.313-1.873 3.477-1.304 0.495 1.823-1.918 2.974-0.869 3.91 5.378 1.711 11.359-1.812 14.34-5.215 4.414-2.394 9.979-3.636 14.34-6.083 6.764-1.204 14.478-3.771 19.554-5.215l-0.154 0.776 0.59 0.527c-0.256 2.863 2.338 2.878 3.041 4.78 9.847 1.742 21.227 1.95 29.114 5.648 1.085 4.274 3.325 7.395 8.691 7.388 1.382-2.243 3.5-3.084 3.477-5.649-0.03-3.262-3.599-4.222-5.215-6.518 0.966-1.786 2.988-2.516 3.042-5.214-1.21-1.78-3.6 0.103-5.215-0.869-1.332 1.683-2.537 2.835-4.346 3.477-0.082 0.029-1.229-0.543-1.737-0.435-1.015 0.216-1.024 0.877-1.738 0.869-3.491-0.041-9.602-3.291-14.774-3.911-1.446-0.173-2.818 0.19-3.91 0-0.762-0.132-1.088-1.109-1.738-1.304-2.516-0.75-4.066 1.534-6.52 1.304l0.219-0.797-0.632-0.52zm6.084-68.22c-6.238-0.028-13.052-0.79-17.816 3.042-0.612-1.244 1.349-2.371-0.435-2.173-1.238 1.283-2.071 2.801-3.477 3.911-0.251 0.199-1.076-0.221-1.304 0-1.149 1.12-2.02 2.824-4.345 2.173-0.982 1.046-0.532 3.524-3.042 3.042-0.453 3.313-2.535 4.997-4.345 6.953-0.159 5.081-0.177 8.452-0.435 13.905 1.708 2.783 5.357 3.623 5.649 7.822 1.529 0.831 2.108-0.413 3.477-0.869 3.626 3.955 10.997 1.514 14.774-0.869 0.091 1.93-1.328 5.84-2.173 8.256-2.163-2.438-2.376 1.949-4.78 0.436-0.213 1.371 0.783 1.534 0.435 3.042 1.272-0.61 2.597-1.168 4.78-0.869 0.2-2.026 1.125-2.363 3.042-1.738 0.745-0.993 1.28-2.195 2.172-3.042-0.276 1.727 0.553 2.345 1.305 3.042 2.638-0.654 3.296-1.081 4.779 0.869 2.133-1.443 1.365-3.206 1.305-6.52 0.812-0.347 1.592-0.726 2.607-0.868-0.147 3.604-0.951 5.805 2.606 6.952 1.312-2.031 0.836-5.147 0.435-6.952 2.995-1.288 4.1-3.385 5.215-5.649 0.049 0.53 0.129 1.029 0.869 0.869 4.146-1.817 5.311-7.863 5.215-12.603-0.949 0.079-1.383-0.355-1.305-1.304v-3.477c-0.982-0.466-1.91-0.986-2.607-1.738 0.32-1.128 1.428-1.47 1.738-2.607-3.375 0.188-1.931-4.441-3.477-6.083-5.055-0.86-7.139-4.72-10.854-6.94zm-38.675 53.01c-4.212-3.899-9.437-6.786-11.733-12.603 0.546-5.694-6.194-6.231-7.387-1.737-1.083 4.081 3.636 4.724 4.78 8.69h-3.042c-0.286 1.452-1.351 2.125-1.738 3.477 1.98 0.482 1.993 2.933 3.042 4.346 4.622 1.054 8.75 0.039 12.167 1.304 1.741 0.645 3.134 2.822 5.214 3.911 0.623 0.326 1.844 0.524 2.607 0.869 2.226 1.006 4.687 1.806 6.518 2.606 3.687-1.381 5.855 0.929 8.691-1.304 0.28-2.537-2.495-1.627-4.346-2.606-3.347-1.772-6.9-6.014-11.732-4.346-0.812-0.772 0.353-1.104 0-2.606h-3.041z"></path> <g stroke="#000000" stroke-linecap="round" fill="none" i:knockout="Off"> <path stroke-width=".561" d="m20.272 56.301c-0.447-0.292-0.77-0.431-1.086-0.651"></path> <path stroke-width=".8691" d="m37.219 182.75c0.293-0.195 0.744-0.188 1.086-0.217"></path> <path stroke-width="1.3969" d="m82.847 173.05c-0.895 0.636-1.952 0.519-2.98 0.704"></path> </g> </g> </g> </g> </switch> <metadata></metadata></svg> 