<?xml version="1.0" encoding="UTF-8" standalone="no"?> <!-- Generator: Adobe Illustrator 13.0.2, SVG Export Plug-In . SVG Version: 6.00 Build 14948) --> <svg xmlns:rdf="http://www.w3.org/1999/02/22-rdf-syntax-ns#" xmlns="http://www.w3.org/2000/svg" xmlns:cc="http://web.resource.org/cc/" xmlns:xlink="http://www.w3.org/1999/xlink" xmlns:dc="http://purl.org/dc/elements/1.1/" xmlns:svg="http://www.w3.org/2000/svg" xmlns:inkscape="http://www.inkscape.org/namespaces/inkscape" xmlns:sodipodi="http://sodipodi.sourceforge.net/DTD/sodipodi-0.dtd" xmlns:ns1="http://sozi.baierouge.fr" id="Layer_1" style="enable-background:new 0 0 407.759 444.058" xml:space="preserve" viewBox="0 0 407.759 444.058" y="0px" x="0px"> <path style="fill:#FFFFFF;clip-rule:evenodd;fill-rule:evenodd" d="m391.04 13.508c0.126 3.111-2.402-0.666-2.844-1.422-11.611-4.253-16.284 8.741-22.751 14.929-3.23 3.092-7.22 5.973-10.664 9.242-8.304 7.883-17.716 14.977-27.015 22.75-1.627 1.36-2.729 3.599-4.266 4.977-8.599 7.703-18.87 14.371-27.728 21.329-5.225 4.103-11.896 7.216-17.062 12.085-9.709 2.834-17.202 8.243-26.306 11.375-11.235 3.867-24.766 8.273-41.233 7.11-17.019-1.203-35.176-10.379-49.056-17.774-5.327-2.838-10.714-4.663-14.929-7.109-4.591-2.665-8.373-6.663-12.797-9.242-2.3-1.342-4.635-2.989-7.109-4.266-2.533-1.308-5.484-1.502-7.819-2.844-3.556-2.044-7.189-5.337-10.665-7.82-10.253-7.325-20.654-17.607-31.99-23.458-0.839-2.003-2.081-3.606-3.554-4.977-0.946-1.423-3.156-1.583-4.978-2.133 0.532-3.202-3.268-3.929-5.688-6.398-1.757-1.794-2.903-4.594-4.976-6.397-2.839-2.47-8.797-4.414-12.087-7.109-3.051-2.502-3.957-5.896-7.109-6.399-3.026-0.484-6.441 1.602-9.242 2.844-4.999 6.081 2.264 13.816 4.978 22.039 0.786 2.385 0.706 5.669 1.42 8.531 6.613 26.455 11.606 58.373 15.641 88.157 1.515 11.183 1.824 22.969 3.556 34.125 0.693 4.462 2.196 8.797 2.844 13.508 1.322 9.605 3.103 18.696 4.266 27.727 0.646 5.032 0.216 10.014 1.422 14.219 0.917 3.198 2.941 4.689 3.554 7.109 1.223 4.834 0.207 11.456 1.422 17.062 0.423 1.947 1.853 3.999 2.134 5.688 1.64 9.877 1.346 20.576 2.844 30.57 2.093 13.966 3.618 27.338 9.242 37.679 1.778 3.27 4.501 5.293 4.977 8.532 0.35 2.388-1.018 8.015-2.133 10.665-1.178 2.795-3.479 4.76-5.688 7.819-4.729 6.555-4.794 7.824-10.664 12.797-3.527 2.986-6.598 5.851-10.665 9.241-4.269 3.561-10.427 8.835-16.351 11.375-4.491 1.928-10.237 1.024-12.797 5.688 0.138 5.076 3.232 7.195 7.109 8.532 2.943-2.799-2.673-5.897 0-8.532 3.784-0.34 6.548-2.503 9.953-4.266 2.886-1.491 6.629-2.503 9.242-4.266 4.56-3.073 7.215-9.536 12.797-9.241 1.641 12.252 3.436 27.861 2.844 42.657-0.362 9.061-0.429 19.573-7.109 23.46-4.105-10.255-9.487-17.419-17.773-25.594-5.308-5.237-12.688-8.935-17.062-14.219-7.999-9.661-2.693-22.446-1.422-39.102 0.389-5.082-0.896-10.211-0.71-14.929 0.129-3.316 1.229-6.867 1.422-9.954 0.708-11.404-0.347-23.46-0.712-35.547-0.854-28.292-0.569-51.747-0.71-79.625-0.208-40.623 0.71-88.269 0.71-132.94 0-2.117-0.604-4.275-0.71-6.398-0.81-16.202 1.767-32.947 0-46.922-0.693-5.472-4.359-12.23-1.422-19.906 6.169-3.222 12.507-4.254 19.195-1.422 3.511 1.487 5.17 4.148 8.532 6.398 5.648 3.783 13.847 5.537 21.328 9.242 3.748 1.857 6.78 3.385 10.664 4.978 7.361 3.018 13.313 5.795 22.039 8.53 10.881 3.411 21.429 9.036 33.415 11.375 3.621 0.707 6.674 0.161 9.953 0.711 4.726 0.793 9.25 2.894 14.217 3.555 3.455 0.459 6.914 0.342 10.665 0.711 6.292 0.62 17.478 3.292 27.016 3.555 6.455 0.177 13.48-0.893 19.905-0.711 11.704 0.331 22.052 0.123 34.837-1.422 1.764-0.213 3.956-1.335 5.688-1.422 1.975-0.1 4.328 0.941 6.397 0.711 3.983-0.445 8.401-2.24 12.797-3.555 9.638-2.884 17.688-4.078 27.727-7.11 12.346-3.729 24.012-9.479 35.547-14.929 11.214-5.298 22.804-10.272 31.992-17.774 6.53 0 12.44-3.619 13.48 3.553z"></path> <path style="fill:#FFFFFF;clip-rule:evenodd;fill-rule:evenodd" d="m33.443 14.219c7.849-5.003 10.634 9.095 4.266 9.953-2.454 0.33-11.033-5.64-4.266-9.953z"></path> <path style="fill:#FFFFFF;clip-rule:evenodd;fill-rule:evenodd" d="m382.51 14.93c3.433 0.358 2.159 5.422 4.976 6.398-0.328 10.71-13.926 3.251-9.241-4.976 2.88 0.982 2.25-1.543 4.26-1.422z"></path> <path style="fill:#FFFFFF;clip-rule:evenodd;fill-rule:evenodd" d="m391.76 19.907c0.934 0.251 1.119 1.251 2.134 1.421 0.993 18.793 4.315 38.114 4.264 57.586-0.056 21.978 1.108 45.776 0.712 70.382-0.199 12.375 0.491 25.295 1.422 37.68 1.371 18.234-0.05 37.121 0.71 56.163 0.906 22.645 0.228 46.503 1.424 67.539 0.505 8.898 0.387 18.15 0.71 27.017 0.52 14.242 2.303 27.883 0 41.234-0.468 3.574-2.211-3.386-2.844 1.422 0.294 3.138-2.553 3.135-2.844 5.688-14.713-5.903-30.677-10.556-39.812-22.04-1.818-2.772-3.595 0.228-4.977-0.71-1.17-10.179-12.169-12.268-9.953-27.727 0.489-3.412 3.038-6.177 4.266-9.953 1.742-5.357 2.609-12.815 4.266-19.196 1.731-6.665 2.09-15.816 3.555-24.882 2.781-17.217 5.171-35.788 7.82-54.742 0.959-6.856 3.219-13.508 4.266-20.617 4.081-27.718 8.48-57.552 12.086-85.312 1.293-9.956 1.874-19.201 2.844-31.993 1.404-18.517 6.65-39.566 8.531-56.164 0.51-4.66-1.15-8.814 1.41-12.796z"></path> <path style="fill:#FFFFFF;clip-rule:evenodd;fill-rule:evenodd" d="m45.529 21.328c7.22 3.949 15.599 10.132 19.906 17.773 4.31 1.378 7.29 4.086 9.243 7.821 16.286 9.792 30.083 23.639 46.921 33.414 8.088 4.695 17.851 7.632 23.462 15.64 13.054 4.109 23.498 11.821 35.546 17.062 3.698 1.608 8.054 2.751 11.375 5.688 4.55-0.521 7.401 0.656 9.243 2.844 7.165-0.497 16.854 0.594 25.593 0 19.226-1.309 36.442-11.245 51.188-17.774 15.719-9.292 29.813-21.767 43.367-34.125 4.777-4.356 10.216-8.269 14.931-12.797 2.477-2.381 4.565-4.933 7.109-7.109 2.486-2.129 5.383-3.554 7.819-5.688 4.617-4.043 7.517-10.17 13.508-12.797-0.644 4.774-5.406 7.774-8.531 11.375-9.133 10.527-19.279 22.297-29.148 32.704-0.565 2.042-1.439 3.774-2.132 5.688-17.976 17.435-32.46 37.868-49.767 56.875-2.836 3.115-5.782 5.816-8.531 9.242-2.564 3.196-5.07 7.499-7.819 9.953-4.067 3.63-10.218 4.865-12.797 9.953-11.584 5.578-26.488 11.534-43.367 12.086-13.636 0.446-27.418-1.733-39.103 0-6.2-3.714-7.631-10.754-11.374-16.352-4.12-6.159-8.768-11.814-13.509-18.484-13.286-18.697-29.813-36.722-43.367-56.164-15.505-22.256-31.256-44.508-49.053-64.705-0.832-0.115-0.599-1.296-0.711-2.133z"></path> <path style="fill:#FFFFFF;clip-rule:evenodd;fill-rule:evenodd" d="m373.98 24.883c-0.313 2.056-1.499 3.24-3.555 3.554 0.73-1.645 1.44-3.309 3.56-3.554z"></path> <path style="fill:#FFFFFF;clip-rule:evenodd;fill-rule:evenodd" d="m22.068 39.101c0.604-0.13 0.671 0.277 0.711 0.711 2.026 12.958 0.965 29.74 0.71 45.501-0.58 35.915 0.626 75.954 0.711 115.17 0.05 23.436 0.575 47.073 0 69.671-0.461 18.083-1.453 35.572-0.711 51.897 0.225 4.948 2.508 10.602-1.422 14.932-4.18 1.318-7.104-2.981-9.953-5.688-6.932-6.589-7.751-11.182-4.976-22.04 1.058-4.14 1.8-7.795 4.265-10.663-3.474-43.168 1.856-89.708 3.555-135.08 0.769-20.521 2.182-41.125 2.844-61.852 0.643-20.138 2.505-40.267 3.555-60.43 0.377-0.568 0.742-1.15 0.711-2.129z"></path> <path style="clip-rule:evenodd;fill-rule:evenodd" d="m34.155 0c5.417 2.03 9.019 1.108 12.795 2.844 4.229 1.942 5.313 5.05 8.531 7.109 3.17 2.026 7.703 3.021 12.087 4.977 7.736 3.451 16.119 6.23 24.172 9.954 3.791 1.752 7.206 4.274 10.664 5.687 4.985 2.038 11.067 2.821 16.351 4.977 5.833 2.38 10.241 3.709 16.353 4.977 11.316 2.348 23.056 5.96 34.835 7.821 11.279 1.781 23.187 1.608 34.835 2.133 34.89 1.57 68.624-1.327 97.398-10.665 19.301-6.262 37.967-12.548 52.609-20.616 4.607-2.54 8.408-6.595 12.797-9.243 5.123-3.091 16.397-7.626 21.328-6.398 5.335 1.329 8.963 13.394 9.953 21.329 2.1 16.819 2.844 36.363 2.844 55.453 0 37.69 2.844 73.309 2.844 110.2 0 16.38-0.188 32.166 1.422 49.054 0.192 2.026 1.332 3.842 1.422 5.688 0.207 4.257-1.293 9.017-1.422 13.508-0.116 4.066 0.831 8.203 0.71 12.087-0.142 4.555-1.354 8.848-1.42 13.507-0.401 27.908 3.712 59.663 2.132 87.445-0.492 8.663 0.478 18.24-7.109 23.461-18.416-9.074-36.161-18.817-51.188-31.282-13.481 6.648-30.666 6.362-47.632 7.821-3.979 0.342-7.994 1.981-12.086 2.132-2.688 0.102-5.79-0.784-8.531-0.71-7.392 0.2-15.026 2.213-22.75 2.132-4.208-0.043-9.033-1.134-13.507-1.422-3.826-0.244-7.671 0.315-11.376 0-3.3-0.279-6.613-1.783-9.953-2.132-15.988-1.671-32.498-1.275-50.476-0.712-5.089 0.16-10.439 1.354-15.641 1.422-5.716 0.078-11.605-1.181-17.773-1.422-11.829-0.46-23.086-1.13-34.125-2.844-13.154-2.04-20.676-3.225-30.57-8.529-4.301 18.426 4.368 40.735 0 61.852-0.347 1.675-2.867 8.11-4.978 13.507-1.768 4.525-4.07 10.654-9.241 8.531-3.173-1.304-1.612-6.626-2.844-10.665-6.382-20.9-28.098-25.833-36.969-45.499-0.872-15.802 2.025-27.835 2.844-41.944 0.384-3.466-4.699-1.464-6.398-2.844-4.397-5.063-16.441-14.467-17.062-22.751-0.469-6.25 4.757-12.253 5.688-17.062 1.635-8.453 0.71-18.879 0.71-29.147 0.001-28.479 2.941-57.481 4.266-85.313 1.36-28.563 2.213-58.507 2.844-83.891 0.23-9.242 1.979-18.351 2.133-27.015 0.126-7.133-1.055-14.065-0.711-20.617 0.335-6.411 2.261-12.22 2.844-18.485 1.124-12.062-0.682-24.357 4.977-34.835 2.403-1.758 9.171 0.011 11.382-3.588zm343.38 9.953c-9.188 7.502-20.778 12.476-31.992 17.774-11.535 5.45-23.201 11.2-35.547 14.929-10.039 3.032-18.089 4.226-27.727 7.11-4.396 1.314-8.813 3.11-12.797 3.555-2.069 0.23-4.423-0.811-6.397-0.711-1.731 0.087-3.924 1.209-5.688 1.422-12.785 1.544-23.133 1.753-34.837 1.422-6.425-0.182-13.45 0.888-19.905 0.711-9.539-0.262-20.724-2.935-27.016-3.555-3.751-0.369-7.21-0.252-10.665-0.711-4.968-0.661-9.492-2.762-14.217-3.555-3.279-0.55-6.333-0.004-9.953-0.711-11.986-2.34-22.534-7.964-33.415-11.375-8.726-2.735-14.678-5.513-22.039-8.53-3.883-1.593-6.916-3.121-10.664-4.978-7.481-3.705-15.68-5.459-21.328-9.242-3.361-2.25-5.021-4.911-8.532-6.398-6.688-2.833-13.025-1.8-19.195 1.422-2.937 7.675 0.729 14.434 1.422 19.906 1.767 13.976-0.81 30.721 0 46.922 0.105 2.123 0.71 4.281 0.71 6.398 0 44.676-0.918 92.322-0.71 132.94 0.141 27.878-0.145 51.333 0.71 79.625 0.365 12.087 1.42 24.143 0.712 35.547-0.193 3.087-1.293 6.638-1.422 9.954-0.187 4.718 1.099 9.847 0.71 14.929-1.271 16.655-6.577 29.44 1.422 39.102 4.375 5.284 11.754 8.981 17.062 14.219 8.286 8.175 13.667 15.339 17.773 25.594 6.681-3.887 6.748-14.399 7.109-23.46 0.592-14.796-1.203-30.405-2.844-42.657-5.582-0.295-8.237 6.168-12.797 9.241-2.612 1.763-6.356 2.774-9.242 4.266-3.405 1.763-6.169 3.926-9.953 4.266-2.673 2.635 2.943 5.733 0 8.532-3.877-1.337-6.971-3.456-7.109-8.532 2.56-4.663 8.306-3.76 12.797-5.688 5.924-2.54 12.083-7.814 16.351-11.375 4.067-3.391 7.138-6.255 10.665-9.241 5.869-4.973 5.935-6.242 10.664-12.797 2.208-3.06 4.509-5.024 5.688-7.819 1.116-2.65 2.483-8.277 2.133-10.665-0.476-3.239-3.199-5.263-4.977-8.532-5.624-10.341-7.148-23.713-9.242-37.679-1.498-9.994-1.204-20.693-2.844-30.57-0.281-1.688-1.711-3.74-2.134-5.688-1.215-5.606-0.199-12.229-1.422-17.062-0.612-2.42-2.637-3.911-3.554-7.109-1.206-4.205-0.775-9.187-1.422-14.219-1.163-9.03-2.943-18.121-4.266-27.727-0.648-4.71-2.151-9.045-2.844-13.508-1.731-11.155-2.041-22.941-3.556-34.125-4.034-29.784-9.027-61.702-15.641-88.157-0.715-2.862-0.634-6.146-1.42-8.531-2.713-8.223-9.977-15.958-4.978-22.039 2.8-1.242 6.216-3.328 9.242-2.844 3.153 0.503 4.059 3.897 7.109 6.399 3.29 2.696 9.248 4.639 12.087 7.109 2.073 1.803 3.218 4.604 4.976 6.397 2.419 2.469 6.219 3.197 5.688 6.398 1.821 0.549 4.031 0.709 4.978 2.133 1.473 1.371 2.715 2.973 3.554 4.977 11.336 5.851 21.737 16.133 31.992 23.461 3.476 2.483 7.109 5.776 10.665 7.82 2.335 1.342 5.287 1.536 7.819 2.844 2.474 1.277 4.81 2.924 7.109 4.266 4.424 2.579 8.207 6.577 12.797 9.242 4.214 2.447 9.602 4.271 14.929 7.109 13.88 7.395 32.037 16.571 49.056 17.774 16.468 1.164 29.998-3.243 41.233-7.11 9.104-3.132 16.597-8.541 26.306-11.375 5.165-4.869 11.837-7.982 17.062-12.085 8.857-6.958 19.129-13.625 27.728-21.329 1.536-1.377 2.639-3.617 4.266-4.977 9.299-7.774 18.711-14.868 27.015-22.75 3.444-3.27 7.434-6.15 10.664-9.242 6.467-6.188 11.14-19.182 22.751-14.929 0.441 0.756 2.97 4.533 2.844 1.422-1.05-7.169-6.96-3.55-13.51-3.552zm-339.83 14.218c6.368-0.858 3.583-14.956-4.266-9.953-6.767 4.314 1.812 10.284 4.266 9.953zm340.54-7.819c-4.685 8.227 8.913 15.686 9.241 4.976-2.816-0.976-1.543-6.04-4.976-6.398-2.01-0.121-1.38 2.404-4.26 1.422zm12.08 16.351c-1.881 16.598-7.127 37.647-8.531 56.164-0.97 12.792-1.551 22.037-2.844 31.993-3.605 27.76-8.005 57.594-12.086 85.312-1.047 7.109-3.307 13.761-4.266 20.617-2.649 18.954-5.039 37.525-7.82 54.742-1.465 9.065-1.823 18.217-3.555 24.882-1.656 6.381-2.523 13.839-4.266 19.196-1.228 3.776-3.776 6.541-4.266 9.953-2.216 15.459 8.783 17.548 9.953 27.727 1.382 0.938 3.158-2.062 4.977 0.71 9.136 11.484 25.1 16.137 39.812 22.04 0.291-2.553 3.138-2.55 2.844-5.688 0.633-4.808 2.376 2.152 2.844-1.422 2.303-13.352 0.52-26.992 0-41.234-0.323-8.866-0.205-18.118-0.71-27.017-1.196-21.036-0.518-44.895-1.424-67.539-0.76-19.042 0.661-37.928-0.71-56.163-0.931-12.385-1.621-25.305-1.422-37.68 0.396-24.606-0.768-48.404-0.712-70.382 0.052-19.472-3.271-38.793-4.264-57.586-1.015-0.17-1.2-1.17-2.134-1.421-2.54 3.978-0.88 8.132-1.41 12.792zm-344.09-9.242c17.797 20.197 33.548 42.449 49.055 64.696 13.554 19.441 30.081 37.467 43.367 56.164 4.741 6.67 9.389 12.325 13.509 18.484 3.742 5.598 5.173 12.638 11.374 16.352 11.685-1.733 25.467 0.446 39.103 0 16.879-0.552 31.783-6.508 43.367-12.086 2.579-5.088 8.729-6.323 12.797-9.953 2.749-2.454 5.255-6.757 7.819-9.953 2.749-3.426 5.695-6.127 8.531-9.242 17.307-19.007 31.791-39.44 49.767-56.875 0.692-1.914 1.566-3.646 2.132-5.688 9.869-10.406 20.016-22.177 29.148-32.704 3.125-3.601 7.888-6.601 8.531-11.375-5.991 2.627-8.891 8.754-13.508 12.797-2.437 2.134-5.333 3.559-7.819 5.688-2.544 2.176-4.633 4.729-7.109 7.109-4.715 4.528-10.153 8.441-14.931 12.797-13.554 12.358-27.648 24.832-43.367 34.125-14.745 6.529-31.962 16.465-51.188 17.774-8.738 0.594-18.428-0.497-25.593 0-1.842-2.188-4.693-3.365-9.243-2.844-3.321-2.937-7.677-4.08-11.375-5.688-12.048-5.241-22.492-12.954-35.546-17.062-5.611-8.008-15.374-10.945-23.462-15.64-16.837-9.775-30.635-23.623-46.921-33.414-1.953-3.734-4.934-6.442-9.243-7.821-4.308-7.642-12.687-13.825-19.906-17.773 0.121 0.845-0.112 2.026 0.72 2.141zm324.19 4.976c2.056-0.314 3.241-1.498 3.555-3.554-2.12 0.245-2.83 1.909-3.55 3.554zm-268.03 78.913c-8.649-14.176-19.252-27.7-28.438-41.945-6.931-10.748-14.682-21.433-22.75-30.571-2.774-3.142-5.314-7.499-9.953-7.82 0.273 9.352 5.706 17.426 9.243 25.594 3.684 8.509 7.334 16.979 10.663 25.594 5.731 14.826 13.492 31.266 19.196 44.789 4.458 10.57 8.807 18.162 13.507 27.726 3.688 7.502 6.727 14.958 10.664 22.039 19.586 35.231 39.46 69.215 62.563 99.532 6.084 7.984 11.893 17.257 18.484 23.46 7.542 7.097 14.497 15.19 24.172 18.484 0.859 4.646 7.109 5.238 7.819 9.953 0.3 1.995-0.844 4.063-1.422 7.109-2.313 1.313-5.205 3.803-8.531 4.266-4.621 0.643-12.066-1.223-13.507-5.688 8.264 1.653 16.607 0.139 16.351-5.688-0.224-5.117-14.756-10.004-17.062-12.087-1.565-2.61-3.591-4.923-5.688-7.109-6.447-6.719-12.51-13.179-19.195-19.194-11.975-17.986-26.143-36.293-38.391-56.164-2.928-4.751-5.565-10.07-8.531-14.93-6.259-10.256-11.245-20.136-17.062-30.57-4.659-8.357-8.323-14.661-12.085-23.461-3.685-8.619-6.62-16.875-10.664-24.882-3.967-7.855-7.186-16.111-10.665-24.172-1.254-2.906-3.524-5.288-4.266-7.82-0.51-1.745-0.04-3.948-0.71-5.688-1.127-2.92-3.667-5.54-4.978-8.531-8.348-19.068-14.014-40.219-24.882-58.297 4.894 11.889 7.156 28.027 9.242 41.946 0.548 3.652 0.698 7.389 1.422 10.665 0.622 2.806 2.943 5.608 3.556 8.53 1.084 5.184 0.735 11.589 1.422 17.773 0.597 5.379 2.057 10.897 2.844 16.352 0.744 5.162 0.183 10.499 0.71 15.641 1.018 9.932 4.646 19.886 5.688 29.148 0.176 1.555-0.766 3.259-0.71 4.977 0.213 6.538 2.088 14.358 3.554 21.329 3.06 14.542 5.803 28.791 8.531 42.655 1.494 7.589 3.632 14.69 4.266 21.329 1.91 19.978 1.778 36.59 7.821 51.188 2.185 5.279 8.665 11.568 8.531 17.062-0.066 2.704-3.299 10.299-4.266 12.086-2.873 5.312-9.537 8.418-9.243 14.219 5.488 2.749 12.354 5.374 19.194 6.399 1.578 0.234 2.686-0.83 4.266-0.712 0.938 0.07 2.46 1.27 3.555 1.422 12.625 1.755 29.29 2.399 40.523 3.554 5.789 0.597 12.651 0.599 18.484 0 2.159-0.221 4.775-1.448 7.109-1.422 3.141 0.037 5.51 1.472 8.531 1.422 2.832-0.045 5.554-1.307 8.532-1.422 22.174-0.852 45.166 4.581 67.539 3.556 5.874-0.269 10.887-0.649 16.351-0.712 3.314-0.035 6.978-1.56 9.953-1.422 2.412 0.113 4.606 1.5 7.109 1.422 7.68-0.236 15.069-3.028 22.751-1.422 8.844-3.953 22.032-3.56 31.279-7.107-1.509-5.797-6.203-10.184-7.107-15.641-1.561-9.4 2.218-15.188 4.264-21.329 1.405-4.213 4.022-8.27 4.978-12.087 0.886-3.541 0.793-8.124 1.422-12.085 4.35-27.392 7.65-54.785 12.797-82.469 5.847-31.454 10.497-64.088 14.22-95.265 2.2-18.445 2.484-36.942 4.266-54.742 1.179-11.802 5.372-23.206 5.688-34.836-4.218 0.186-1.059 3.824-2.844 5.688-4.218 10.148-6.644 20.918-9.243 31.282-3.984 15.886-9.703 30.801-14.219 46.21-1.492 5.096-3.867 9.96-5.688 14.93-11.222 30.641-20.6 60.515-34.124 88.156-4.415 9.021-9.324 18.049-13.509 27.015-5.797 12.421-11.489 23.242-17.062 34.838-3.723 7.746-8.562 12.565-12.796 19.194-5.621 8.802-11.307 17.801-16.353 27.016-5.866 5.219-11.236 11.854-17.062 17.773-5.745 5.838-11.963 12.508-19.906 14.219 2.448-5.448 8.516-6.873 12.797-10.663 3.614-3.2 7.068-8.975 11.375-14.22 3.924-4.779 8.518-9.176 12.087-14.219 3.381-4.78 6.645-10.568 9.953-15.641 5.304-8.134 9.422-14.594 13.507-22.038 1.182-2.152 2.53-4.409 3.555-6.399 1.919-3.727 2.944-8.436 4.977-12.086 1.947-3.498 4.554-6.311 6.398-9.953 5.662-11.179 10.203-22.438 15.641-34.125 3.563-7.659 6.719-15.482 9.953-23.46 3.176-7.835 7.614-15.014 10.665-22.75 1.154-2.93 1.054-6.299 2.132-9.242 1.826-4.985 5.27-9.855 7.109-14.93 4.163-11.482 7.504-21.724 11.375-32.703 1.855-5.264 4.943-10.625 6.398-15.641 0.881-3.033 0.566-6.33 1.422-9.242 1.265-4.305 4.024-7.786 4.977-11.375 0.728-2.744 0.096-5.653 0.711-8.531 0.681-3.176 2.513-6.782 3.555-9.953 2.396-7.29 4.414-14.032 6.398-21.329 0.856-3.146 2.662-7.454 0.712-10.664-4.418-0.032-6.573 4.673-9.243 7.109-4.683 4.276-9.204 7.879-12.797 12.086-9.396 11.005-17.116 21.81-26.305 32.703-6.276 7.441-14.231 15.061-19.194 22.75-3.984 6.171-9.695 12.225-14.22 17.063-3.956 4.231-8.014 7.829-11.375 12.086-1.209 1.53-1.734 3.596-2.844 4.977-3.556 4.423-7.829 7.949-11.375 12.085-8.358 9.752-14.399 16.37-24.882 22.75-3.836 2.334-7.416 5.172-10.665 6.398-4.021 1.519-10.134 2.963-13.508 3.555-14.629 2.57-26.996 0.32-41.945 0.711-7.349 0.192-14.088 2.951-21.328 1.422-3.942-3.74-6.201-12.448-9.953-18.485-2.538-4.082-6.998-9.251-10.664-14.93-7.601-11.77-14.216-19.251-22.75-29.859-2.439-3.033-5.989-8.343-8.531-10.665-4.085-3.729-0.494 0.317-2.844-0.711-0.36-0.89-0.95-1.33-1.44-2.12zm-81.042-66.116c-1.05 20.163-2.912 40.292-3.555 60.43-0.662 20.727-2.075 41.331-2.844 61.852-1.699 45.371-7.029 91.91-3.555 135.08-2.465 2.868-3.208 6.523-4.265 10.663-2.775 10.858-1.956 15.451 4.976 22.04 2.849 2.707 5.773 7.007 9.953 5.688 3.93-4.33 1.647-9.983 1.422-14.932-0.741-16.325 0.25-33.814 0.711-51.897 0.575-22.599 0.05-46.235 0-69.671-0.085-39.218-1.291-79.257-0.711-115.17 0.255-15.761 1.316-32.543-0.71-45.501-0.04-0.434-0.107-0.841-0.711-0.711 0.03 0.982-0.335 1.564-0.711 2.136z"></path> <path style="fill:#FFFFFF;clip-rule:evenodd;fill-rule:evenodd" d="m103.83 109.48c2.35 1.028-1.242-3.019 2.844 0.711 2.542 2.322 6.092 7.632 8.531 10.665 8.535 10.607 15.15 18.089 22.75 29.859 3.666 5.679 8.126 10.848 10.664 14.93 3.752 6.037 6.011 14.745 9.953 18.485 7.24 1.528 13.979-1.23 21.328-1.422 14.949-0.391 27.316 1.859 41.945-0.711 3.374-0.592 9.487-2.036 13.508-3.555 3.249-1.226 6.829-4.064 10.665-6.398 10.482-6.38 16.523-12.998 24.882-22.75 3.546-4.136 7.819-7.663 11.375-12.085 1.109-1.381 1.635-3.447 2.844-4.977 3.361-4.257 7.419-7.854 11.375-12.086 4.524-4.838 10.235-10.892 14.22-17.063 4.963-7.689 12.918-15.308 19.194-22.75 9.188-10.893 16.909-21.698 26.305-32.703 3.593-4.208 8.114-7.811 12.797-12.086 2.67-2.437 4.825-7.141 9.243-7.109 1.95 3.21 0.145 7.518-0.712 10.664-1.984 7.297-4.003 14.039-6.398 21.329-1.042 3.171-2.874 6.777-3.555 9.953-0.615 2.878 0.017 5.787-0.711 8.531-0.952 3.589-3.712 7.07-4.977 11.375-0.855 2.912-0.541 6.209-1.422 9.242-1.455 5.016-4.543 10.377-6.398 15.641-3.871 10.979-7.212 21.22-11.375 32.703-1.84 5.074-5.283 9.944-7.109 14.93-1.078 2.943-0.978 6.312-2.132 9.242-3.051 7.737-7.489 14.915-10.665 22.75-3.234 7.978-6.39 15.802-9.953 23.46-5.438 11.688-9.979 22.946-15.641 34.125-1.845 3.643-4.451 6.455-6.398 9.953-2.032 3.65-3.058 8.359-4.977 12.086-1.024 1.99-2.373 4.247-3.555 6.399-4.085 7.444-8.203 13.904-13.507 22.038-3.309 5.072-6.572 10.86-9.953 15.641-3.569 5.043-8.163 9.439-12.087 14.219-4.307 5.245-7.761 11.02-11.375 14.22-4.281 3.79-10.349 5.215-12.797 10.663 7.943-1.711 14.161-8.381 19.906-14.219 5.826-5.919 11.196-12.555 17.062-17.773 5.046-9.215 10.731-18.214 16.353-27.016 4.233-6.629 9.073-11.448 12.796-19.194 5.573-11.596 11.266-22.417 17.062-34.838 4.185-8.966 9.094-17.993 13.509-27.015 13.524-27.641 22.902-57.515 34.124-88.156 1.82-4.97 4.195-9.834 5.688-14.93 4.516-15.409 10.234-30.324 14.219-46.21 2.6-10.363 5.025-21.133 9.243-31.282 1.785-1.864-1.374-5.502 2.844-5.688-0.315 11.631-4.509 23.035-5.688 34.836-1.781 17.8-2.065 36.297-4.266 54.742-3.723 31.177-8.373 63.812-14.22 95.265-5.146 27.684-8.447 55.077-12.797 82.469-0.629 3.961-0.536 8.544-1.422 12.085-0.955 3.817-3.572 7.874-4.978 12.087-2.046 6.142-5.824 11.929-4.264 21.329 0.904 5.457 5.599 9.844 7.107 15.641-9.247 3.548-22.436 3.154-31.279 7.107-7.682-1.606-15.071 1.186-22.751 1.422-2.503 0.078-4.697-1.309-7.109-1.422-2.976-0.138-6.639 1.387-9.953 1.422-5.464 0.062-10.477 0.443-16.351 0.712-22.373 1.025-45.365-4.407-67.539-3.556-2.978 0.115-5.7 1.377-8.532 1.422-3.021 0.05-5.391-1.385-8.531-1.422-2.334-0.026-4.951 1.201-7.109 1.422-5.833 0.599-12.696 0.597-18.484 0-11.234-1.154-27.899-1.799-40.523-3.554-1.095-0.152-2.617-1.352-3.555-1.422-1.581-0.118-2.688 0.946-4.266 0.712-6.84-1.025-13.706-3.65-19.194-6.399-0.294-5.801 6.37-8.907 9.243-14.219 0.967-1.787 4.199-9.382 4.266-12.086 0.134-5.494-6.346-11.783-8.531-17.062-6.043-14.598-5.911-31.21-7.821-51.188-0.634-6.639-2.772-13.74-4.266-21.329-2.729-13.864-5.471-28.113-8.531-42.655-1.465-6.97-3.341-14.791-3.554-21.329-0.056-1.718 0.886-3.422 0.71-4.977-1.041-9.262-4.669-19.216-5.688-29.148-0.527-5.142 0.034-10.479-0.71-15.641-0.787-5.455-2.247-10.973-2.844-16.352-0.687-6.185-0.337-12.589-1.422-17.773-0.612-2.922-2.934-5.725-3.556-8.53-0.724-3.276-0.874-7.013-1.422-10.665-2.085-13.919-4.348-30.057-9.242-41.946 10.869 18.078 16.535 39.229 24.882 58.297 1.31 2.991 3.851 5.611 4.978 8.531 0.67 1.739 0.2 3.942 0.71 5.688 0.741 2.532 3.012 4.915 4.266 7.82 3.479 8.062 6.698 16.317 10.665 24.172 4.043 8.008 6.979 16.263 10.664 24.882 3.762 8.8 7.426 15.104 12.085 23.461 5.818 10.434 10.803 20.313 17.062 30.57 2.966 4.859 5.604 10.179 8.531 14.93 12.249 19.871 26.416 38.178 38.391 56.164 6.685 6.016 12.748 12.476 19.195 19.194 2.096 2.187 4.123 4.499 5.688 7.109 2.306 2.083 16.839 6.97 17.062 12.087 0.257 5.826-8.087 7.341-16.351 5.688 1.44 4.465 8.886 6.33 13.507 5.688 3.326-0.463 6.218-2.952 8.531-4.266 0.578-3.046 1.722-5.114 1.422-7.109-0.71-4.715-6.96-5.308-7.819-9.953-9.675-3.294-16.631-11.388-24.172-18.484-6.592-6.203-12.4-15.476-18.484-23.46-23.103-30.317-42.977-64.301-62.563-99.532-3.937-7.081-6.976-14.537-10.664-22.039-4.701-9.564-9.049-17.156-13.507-27.726-5.738-13.51-13.499-29.951-19.23-44.777-3.329-8.615-6.979-17.084-10.663-25.594-3.537-8.168-8.97-16.242-9.243-25.594 4.639 0.322 7.179 4.678 9.953 7.82 8.068 9.138 15.819 19.823 22.75 30.571 9.186 14.245 19.789 27.769 28.438 41.945 0.49 0.79 1.08 1.23 1.43 2.13z"></path> <metadata></metadata></svg> 