<?xml version="1.0" encoding="UTF-8" standalone="no"?> <!-- Generator: Adobe Illustrator 13.0.2, SVG Export Plug-In . SVG Version: 6.00 Build 14948) --> <svg xmlns:rdf="http://www.w3.org/1999/02/22-rdf-syntax-ns#" xmlns="http://www.w3.org/2000/svg" xmlns:cc="http://web.resource.org/cc/" xmlns:xlink="http://www.w3.org/1999/xlink" xmlns:dc="http://purl.org/dc/elements/1.1/" xmlns:svg="http://www.w3.org/2000/svg" xmlns:inkscape="http://www.inkscape.org/namespaces/inkscape" xmlns:sodipodi="http://sodipodi.sourceforge.net/DTD/sodipodi-0.dtd" xmlns:ns1="http://sozi.baierouge.fr" id="Layer_1" style="enable-background:new 0 0 475.388 123.138" xml:space="preserve" viewBox="0 0 475.388 123.138" y="0px" x="0px"> <path style="clip-rule:evenodd;fill-rule:evenodd" d="m446.08 97.229c-5.424 0.429-10.797 2.932-16.442 3.575-14.247 1.622-27.565-0.499-39.318-3.575-14.782 4.628-29.462-3.91-40.032-10.008 0.775-5.166-3.71-7.979-3.646-10.867-0.664-0.477-1.205-1.144-1.533-1.964-0.561-0.354-1.116-0.661-1.663-0.949-0.262 0.146-0.584 0.229-1.021 0.198-5.98-1.055-8.365-1.003-14.299 1.43-8.237-3.438-16.286-7.065-23.59-11.438-2.982-4.882-6.304-9.423-11.438-12.154-2.381-4.936-6.182-8.966-9.293-13.582-3.188-4.731-5.767-10.292-9.293-14.299-1.651-1.876-4.911-3.48-7.149-5.718-2.189-2.19-3.057-5.167-5.004-6.434-2.755-1.792-8.103-2.269-12.153-3.575-4.18-1.346-8.245-3.593-11.437-4.289-1.843-0.402-3.762 0.278-5.72 0-9.046-1.285-19.559-3.738-28.594-3.575-6.135 0.111-10.913 2.248-16.442 3.575-3.48 0.834-7.398 0.712-10.725 1.43-6.15 1.328-11.964 4.272-17.872 6.434-4.008 1.467-6.428 0.05-10.006 0.714-7.973 1.483-16.654 8.435-22.877 12.154-4.583 2.738-9.306 5.885-14.297 7.149-1.449 0.933-0.981 3.782-2.86 4.289-3.926 1.924-8.508 4.81-12.867 6.434-3.736 1.393-8.109 1.335-11.438 2.859-5.333 2.443-7.51 7.52-12.868 9.292-5.87-2.47-12.691-3.988-19.301-5.718-1.318 1.105-0.541 2.983-0.378 4.344 0.951 0.369 1.599 1.098 1.943 1.966 0.414-0.217 0.837-0.421 1.295-0.592 4.744 4.908-2.539 6.998-5.004 9.295-6.061 5.644-9.984 15.715-15.728 21.444 2.788 4.839 5.13 10.122 10.723 12.153-2.132 3.404 1.929 3.392 2.144 6.435-7.657 3.064-14.772 6.673-25.735 6.434-2.866-3.091-8.837-3.076-15.012-2.859-2.58 2.425-6.065 3.943-7.149 7.863 4.083 3.924 10.762 8.185 19.186 6.152 0.581-0.464 1.342-0.755 2.294-0.755 0.688 0 1.271 0.161 1.766 0.421 0.114-0.026 0.229-0.065 0.342-0.085 0.002-0.006 0.001-0.01 0.003-0.016 4.341-2.592 9.366 1.188 13.812-1.312 0.178-0.137 0.367-0.254 0.566-0.357 0.212-0.148 0.425-0.291 0.634-0.473 0.246-0.041 0.406 0.003 0.519 0.094 0.184-0.027 0.367-0.057 0.557-0.057 1.29 0 2.445 0.671 3.133 1.676 4.417-0.697 9.304-0.102 12.947 0.43 2.395-0.7 3.102-3.092 5.719-3.572 15.223-2.649 30.117-5.626 42.892-10.725 2.288-6.289 9.785-7.37 13.583-12.151 4.657-2.183 9.106-5.872 15.727-7.149 6-1.157 13.218 0.176 17.158-4.289 0.797 2.872 5.151-0.999 7.147 1.43-2.138 7.271-0.866 14.119-2.859 20.73-5.134-0.367-7.491 2.042-10.722 3.575-1.63 5.701 0.022 11.056 2.859 14.297 4.823 1.02 8.575-2.816 12.868-2.859 3.252-0.031 6.727 1.324 9.917 1.444 0.646-1.014 1.209-2.07 1.765-3.133-0.121-0.113-0.208-0.26-0.245-0.456-0.46-14.864 0.871-23.518 5.004-33.599 9.681-3.725 21.745-7.863 35.744-5.004 6.258 7.802 19.983 8.134 24.306 17.871-6.085 9.414-17.915 1.823-27.165 5.719-1.051 3.479-2.421 6.636-2.146 11.438 9.441 0.747 14.605 2.151 23.59 2.146-0.082 0.161-0.193 0.299-0.324 0.423 0.875-0.23 1.774-0.375 2.685-0.332 0.321 0.015 0.655 0.058 0.986 0.099-0.165-0.065-0.313-0.113-0.486-0.189 0.165 0.076 0.332 0.134 0.497 0.19 0.686 0.082 1.381 0.184 2.086 0.284 2.872-0.132 5.952-2.086 9.569-2.62 9.522-1.405 21.734 0.392 22.876-6.434 0.929-5.546-7.633-7.176-6.434-12.151 0.557-0.158 0.831-0.6 0.716-1.43 3.937-0.124 5.449 2.175 10.007 1.43 4.769 3.233 9.506 8.45 17.157 9.292 9 0.992 18.349-2.749 25.735-5.004 7.084 3.64 14.567 6.879 22.16 10.009-1.469 2.583-3.215 4.886-5.004 7.149-0.264 0.204-0.577 0.357-0.909 0.491 0.177 0.539 0.258 1.104 0.274 1.688 5.758 2.91 12.799 2.745 20.651 2.109 0.792-2.783 3.683-3.467 5.72-5.004 1.979-1.526-1.323-3.894 1.43-4.289 11.264 5.909 30.941 5.9 48.611 4.289 6.698-0.61 11.972-2.606 16.442-3.575 5.833-1.261 12.785-2.866 16.439-2.858 7.365 0.015 14.377-1.843 20.733-3.575 3.343 2.88 12.139 3.165 12.867-2.144-5.85-8.348-17.4-8.074-29.35-7.131zm-432.5 20.021c-0.797 1.435-5.53 0.819-6.434 0 0.437-4.018 3.755-8.408 7.863-6.434 1.383 3.56-3.996 4.04-1.429 6.43zm13.583-0.72c-3.536 0.524-8.011 3.102-10.009-0.714 0.922-3.27 10.944-6.41 10.009 0.71zm5.003 0.72c-1.024-5.146 4.807-5.996 6.434-2.861-0.265 3.14-4.008 3.91-6.434 2.86zm305.25-38.607v-2.859c2.928-0.306 4.58 0.664 6.434 1.43 0.782 3.229 3.625 7.541 2.859 10.009-5.364-2.262-10.62-4.63-12.867-10.009 2.28-0.612 2.21 1.125 3.58 1.429zm-289.52-2.144c2.236-0.862 3.546-2.649 7.149-2.146-0.518 1.627-0.638 3.653-1.43 5.005-1.661-0.484-1.914-2.375-3.574-2.859-0.708 2.852 2.136 2.152 1.429 5.004-3.174 0.315-3.891-1.828-3.574-5.004zm-7.148 10.009c-0.108-3.266 3.604-5.52 5.719-4.291-1.495 1.662-3.401 5.722-5.719 4.291zm3.574 30.022c0.614-3.949-4.163-2.509-4.29-5.718 7.541-1.753 12.821-5.767 19.301-8.579 2.967 2.751 6.119 5.319 6.434 10.722-7.279 1.07-13.985 2.7-21.445 3.58zm5.005-21.445c3.276-0.417 3.332 2.386 5.003 3.574-0.649 1.496-2.109 2.181-4.289 2.146-1.275-0.954-2.211-4.134-0.714-5.715zm50.04 7.865c-4.139-2.696-5.985-3.417-11.438-1.43 1.917 0.615 8.708-1.046 8.578 3.574-9.195 2.721-18.399 5.43-28.594 7.149-1.012-3.754-3.331-6.201-4.29-10.008 2.854 1.197 3.667 4.435 6.434 5.718 0.765-2.67-1.775-2.037-1.429-4.288 7.227 1.038 15.193 0.436 17.157-5.719 5.327 0.909 7.402-4.998 10.723-7.149 3.932-2.545 7.676-1.981 11.438-5.004 5.155-0.493 8.623 1.581 12.867 0-4.95 7.927-19.54 6.206-21.453 17.162zm-10.723-12.87c-0.785-3.178 1.728-5.21 0-7.147-8.531 0.763-4.407 14.179-10.724 17.156-6.136 0-8.638 0.64-13.582-0.714-1.698-3.782-4.683-6.279-7.863-8.579-2.292-0.625-2.236 1.1-2.86 2.146-3.02-2.278-5.917-1.192-9.293-2.146 2.433-8.052 13.514-7.455 17.157-14.297-2.15-2.618-5.618-3.914-10.009-4.29-2.547-5.903 6.655-7.242 8.578-8.577 2.126 4.307 5.131 7.735 10.008 9.293-0.61 6.63 1.368 12.871 7.149 15.013 0.346-3.206-2.527-3.193-2.859-5.721 1.681-5.91-0.042-12.834-5.719-13.581-1.164-7.416-6.768-10.39-11.438-14.299 7.373-2.533 13.626 5.008 20.73 2.861 3.354 0.697 4.31 3.792 5.719 6.434 4.793-2.769-0.998-6.235-2.144-9.295 12.941-9.219 31.607-12.713 43.606-22.874h2.145c0.099 3.749-4.261 5.803-5.718 10.007-0.798 2.301-0.038 4.605-0.716 7.149-1.796 6.752-6.769 14.747-3.574 25.021 1.135 3.649 4.305 5.564 5.719 9.293-13.99-3.606-25.125 1.953-34.306 7.146zm58.616 26.45c-1.337-1.692 0.319-4.975 1.43-6.434 1.155-0.202 1.231 0.675 2.145 0.716-0.83 2.26-0.38 5.81-3.58 5.71zm7.15 0c-2.842-0.72-0.686-4.309-0.716-6.434h5.004c-0.36 3.2-1.76 5.38-4.28 6.43zm57.91-3.57c-1.431-1.787-0.33-5.623 2.859-5.004-1.49 1.12 0.43 5.67-2.86 5zm2.86-7.15c1.343-3.359 4.771 0.037 6.434 0.714-1.98 2.39-3.83-1.36-6.43-0.71zm75.06-5.72c-7.521-0.766-11.132-7.663-17.871-9.293 7.911-6.477 21.692-6.112 30.739-0.716 2.727 1.628 6.529 4.735 6.434 7.149-7.71-0.362-12.96 3.51-19.3 2.86zm48.61 16.44c0.264-3.599 4.872-6.51 6.434-2.859 1.585-2.59 5.963-2.449 9.293-1.43-1.92 4.37-10.23 5.84-15.72 4.29zm130.11-11.44c-13.166-4.548-27.178 2.112-39.318 4.291-4.867 0.871-9.86-0.208-13.583 2.858-22.265-0.766-41.771 2.969-60.763-2.145-0.308-1.122-2.249-0.61-1.43-2.859-12.081-0.536-24.988-3.755-33.601-9.293-4.284-2.757-7.833-7.181-12.151-10.008-6.908-4.524-13.587-6.922-22.162-10.725-2.084 0.775-4.228 1.493-5.002 3.575-1.037-2.431-3.353-0.862-5.721-0.714-3.43 0.856-3.758 4.818-7.149 5.718-2.627 1.637-3.979-1.502-6.434-1.43-1.413 0.043-2.212 1.661-3.573 1.43-4.479-0.762-7.323-4.925-13.583-5.004 3.219 6.075 6.319 12.269 12.868 15.013-0.456 5.363 8.167 4.983 6.434 9.292-2.279 2.678-8.932 1.825-13.583 2.859-4.149 0.926-7.993 2.498-10.723 4.29-2.416 0.278-4.298-0.882-7.147-0.715-4.882 0.285-11.883 4.468-15.013-0.714 1.854-2.383 5.252-0.154 7.863-1.43 0.882-2.314-2.314-0.547-1.43-2.861 9.727-0.279 14.058-5.959 23.59-6.434 0.006-3.901-4.374-2.75-7.147-2.144 2.014-11.204-16.199-13.604-22.876-20.017-0.013-0.013-0.501-1.76-1.43-2.859-1.791-2.121-5.498-6.176-5.72-10.008-0.438-7.543 4.709-9.028 9.292-12.868 1.774-0.106 3.469-0.134 3.575 1.429 0.492-2.152 7.517-5.123 11.438-5.72 7.34-1.116 16.338 1.556 23.591 0.716-3.434-8.548-16.876-2.676-27.166-4.289 4.398-2.792 11.822-7.684 10.009-15.013-0.601-2.431-2.435-4.259-5.718-5.004-1.796 1.383 0.84 4.355 0.714 6.434-1.702 7.354-12.623 5.486-13.582 13.583-10.631 1.014-19.299 9.797-17.872 20.731 0.495 3.789 4.33 5.968 4.289 10.008-8.607-3.335-19.222 1.551-26.451 1.43-1.029 0.161-0.249 2.133-1.43 2.144-2.838 0.417 0.145-2.94 0.716-3.573-0.022-8.866 8.438-12.162 5.718-21.446 1.973-4.224 2.21-10.181 2.145-16.442-8.744-12.365-21.316 5.28-31.455 1.429-2.74 3.693-5.063 7.804-8.577 10.723 0.17 1.975 2.657 1.631 3.573 2.861 4.668-3.436 9.296-6.909 14.299-10.009 5.896 1.144 9.673-5.883 15.727-4.289 0.021 9.756 2.305 23.579-3.575 29.31v4.289c-5.197 6.002-5.503 16.896-11.438 22.16 0.799 6.441-0.054 15.109-1.43 22.876-2.075 0.927-5.073 0.927-7.149 0 0.106-3.229 3.608-3.065 5.72-4.289-1.821-2.23-4.606-3.496-7.15-5.004 0.292-1.378 2.772-0.565 2.146-2.859-1.756-6.535 1.294-12.776 2.145-18.587 0.528-3.621-0.519-7.364 0.714-11.438 1.936-6.391 7.595-11.264 7.863-18.585-5.154 0.562-5.142 6.294-7.147 10.007-2.46 0.4-3.638 2.084-5.004 3.574-0.547 3.117 0.884 6.621 0 7.863-3.554 2.171-7.359 0.076-11.438 0.716-5.976 0.937-10.442 4.469-16.442 3.574-2.83-0.422-4.587-2.412-7.863-3.574-7.411-13.027 4.431-24.206 3.574-36.459 2.12-1.454 3.42-3.729 3.575-7.148 4.742-1.216 5.229-6.686 10.723-7.149 1.118-3.35-2.284-4.066-0.716-5.718 6.321-6.983 18.604-3.92 25.735-1.43 1.66 1.2-0.686 6.404 2.861 5.718-0.046 2.188-2.625 3.725-0.715 5.72 5.254 0.964 3.966-4.613 6.434-6.434-2.7-4.211-7.722-6.098-10.722-10.009 12.571-5.724 30.277-9.313 47.895-9.294 6.974 0.009 12.777 1.361 19.301 2.145 8.193 0.985 15.085 0.662 20.018 5.718 3.333-0.473 4.592 1.127 7.148 1.431 15.382 16.548 28.62 35.241 42.892 52.899 9.206 1.04 15.178 5.314 20.73 10.009 1.63 0.2 2.688-0.173 2.861-1.43 4.101 2.765 7.431 5.909 11.438 9.293 1.973 1.667 5.922 2.284 5.719 5.718 7.822-0.799 15.42 6.66 22.876 7.865 4.451 0.72 8.074-0.522 10.722 2.859 8.843 1.327 18.006-1.906 24.306 2.145 17.844 0.699 34.896 0.666 48.611-4.29 4.715 1.244 11.378 0.538 17.157 0.716 0.86 1.77 4.39 0.86 3.59 4.28z"></path> <metadata></metadata></svg> 