<?xml version="1.0" encoding="UTF-8" standalone="no"?> <!-- Generator: Adobe Illustrator 13.0.2, SVG Export Plug-In . SVG Version: 6.00 Build 14948) --> <svg xmlns:rdf="http://www.w3.org/1999/02/22-rdf-syntax-ns#" xmlns="http://www.w3.org/2000/svg" xmlns:cc="http://web.resource.org/cc/" xmlns:xlink="http://www.w3.org/1999/xlink" xmlns:dc="http://purl.org/dc/elements/1.1/" xmlns:svg="http://www.w3.org/2000/svg" xmlns:inkscape="http://www.inkscape.org/namespaces/inkscape" xmlns:sodipodi="http://sodipodi.sourceforge.net/DTD/sodipodi-0.dtd" xmlns:ns1="http://sozi.baierouge.fr" id="ivy_leaves_xA0_Image_1_" style="enable-background:new 0 0 214.821 410.071" xml:space="preserve" viewBox="0 0 214.821 410.071" y="0px" x="0px"> <g> <path style="fill:#8B9E6C;clip-rule:evenodd;fill-rule:evenodd" d="m108.53 7.273c0.65-0.091 0.995 0.124 1.119 0.559-2.042 14.741-1.679 31.888-4.476 45.872-5.845-2.919-4.126-13.402-8.392-17.901 2.608-10.819 8.142-18.715 11.752-28.53z"></path> <path style="fill:#8B9E6C;clip-rule:evenodd;fill-rule:evenodd" d="m116.36 25.174c0.903-0.157 0.964 0.529 1.679 0.56 3.904 10.081 6.798 21.172 6.712 35.244-2.127 2.534-4.114 5.208-3.356 10.628-3.023 5.21-7.467 11.885-13.426 12.307-0.02-10.962-0.252-26.132 0.56-38.04 5.2-4.491 10.03-12.161 7.84-20.699z"></path> <path style="fill:#8B9E6C;clip-rule:evenodd;fill-rule:evenodd" d="m95.661 39.719c3.901 6.728 5.339 15.92 10.628 21.259-1.412 12.554-0.136 22.586 0 35.244-10.483-2.198-8.078-17.283-15.664-22.377 0.44-10.978 1.701-24.354 5.035-34.126z"></path> <path style="fill:#8B9E6C;clip-rule:evenodd;fill-rule:evenodd" d="m124.19 64.893c2.228 4.924 1.046 16.546 1.679 27.971 0.527 9.514 3.774 19.409 2.798 26.293-0.319 2.242-2.46 4.446-2.798 6.154-1.573 7.978 1.057 15.518-1.679 21.817-1.183 2.724-4.754 6.591-6.712 8.391-2.872 2.64-7.385 5.139-11.749 6.154-0.179-10.574 2.03-21.217 2.797-33.565 0.777-12.511-3.477-29.717 1.119-39.719 3.47-7.557 15.18-10.819 14.54-23.488z"></path> <path style="fill:#8B9E6C;clip-rule:evenodd;fill-rule:evenodd" d="m90.066 77.76h1.678c2.661 4.62 1.835 8.068 5.035 12.866 2.272 3.408 10.036 8.105 10.069 11.748 0.126 13.745-0.823 30.121-2.797 45.313-10.615-0.295-8.909-15.644-11.748-24.615-0.846-2.676-3.916-4.796-4.475-7.272-1.169-5.174 1.141-11.829 1.678-18.462 0.588-7.227 0.046-13.405 0.561-19.568z"></path> <path style="fill:#8B9E6C;clip-rule:evenodd;fill-rule:evenodd" d="m87.829 120.28c4.92 4.962 2.16 17.604 6.153 23.495-8.467 5.704-11.412 16.932-16.783 25.733-8.653-6.344-30.833-8.075-39.159 0-5.659-2.296-13.32 4.87-15.664-1.119 8.235-6.295 18.827-8.367 31.887-8.392 10.327-0.019 24.506 4.704 27.971-4.476 1.468-3.887 1.993-11.302 2.797-16.782 1.032-7.03 1.273-12.68 2.798-18.46z"></path> <path style="fill:#8B9E6C;clip-rule:evenodd;fill-rule:evenodd" d="m128.11 125.31c4.704 10.696-2.343 29.987 5.035 37.481-5.154 7.302-8.966-3.648-13.987-6.154 5.09-5.696 8.344-10.233 8.952-21.816 0.17-3.12-0.76-6.32 0.01-9.51z"></path> <path style="fill:#8B9E6C;clip-rule:evenodd;fill-rule:evenodd" d="m104.05 152.72c-0.873 13.982-0.281 26.538-0.56 39.72-5.398-0.982-13.161-4.338-20.139-5.595-0.814-4.73-6.03-10.647-3.356-17.901 0.823-2.231 3.507-5.051 5.035-8.392 2.824-6.173 2.477-13.033 9.51-13.426 3.845-0.21 6.02 3.41 9.51 5.6z"></path> <path style="fill:#8B9E6C;clip-rule:evenodd;fill-rule:evenodd" d="m126.43 184.61c-6.853 2.1-11.898 6.004-19.58 7.273-0.216-5.924-3.184-17.361-0.559-24.615 1.648-4.554 8.043-8.719 12.308-7.831 1.688 0.352 7.748 5.787 8.95 8.95 1.87 4.94-0.21 11.15-1.12 16.23z"></path> <path style="fill:#8B9E6C;clip-rule:evenodd;fill-rule:evenodd" d="m176.22 161.11c-0.602 3.398 1.781 3.812 1.677 6.713-5.965 3.917-13.841 5.925-14.545 15.104-12.066-0.319-23.172 0.324-33.564 1.678-0.99-4.921 1.316-12.544 0.56-17.342 2.384-2.834 4.641-1.567 8.391-1.119 11.63 1.4 25.67-8.14 37.47-5.03z"></path> <path style="fill:#8B9E6C;clip-rule:evenodd;fill-rule:evenodd" d="m185.17 162.79c-0.797 2.373-2.544 3.796-5.595 3.915-3.66-4.92 1.17-6.02 5.59-3.91z"></path> <path style="fill:#8B9E6C;clip-rule:evenodd;fill-rule:evenodd" d="m210.34 179.02c-14.687-0.45-27.479 5.485-44.194 3.355 1.112-8.957 9.232-10.906 16.224-13.985 9.89-8.52 21.61 4.98 27.97 10.62z"></path> <path style="fill:#8B9E6C;clip-rule:evenodd;fill-rule:evenodd" d="m77.2 172.86c-0.011 5.232 2.278 8.164 2.797 12.866-11.77 0.191-25.265-2.694-36.922-4.476-2.029-2.261-3.092-5.486-3.356-9.51 6.612-9.45 30.504-5.51 37.481 1.12z"></path> <path style="fill:#8B9E6C;clip-rule:evenodd;fill-rule:evenodd" d="m21.258 172.3c-3.913 1.308-7.676 2.766-10.629 5.035-2.112-0.685-4.791-0.803-5.035-3.356 5.978 0.9 13.904-10.59 15.664-1.68z"></path> <path style="fill:#8B9E6C;clip-rule:evenodd;fill-rule:evenodd" d="m36.362 171.74c1.763 1.966 2.278 5.181 3.357 7.833-8.523 0.376-21.052 1.387-25.734-2.798 6.888-2.08 13.902-6.31 22.377-5.03z"></path> <path style="fill:#8B9E6C;clip-rule:evenodd;fill-rule:evenodd" d="m4.475 177.34c7.56 3.792 16.424 3.684 27.971 4.475 11.705 0.803 23.355 5.329 34.684 6.154 9.571 0.695 17.719-0.72 24.055 3.916-6.528 4.182-12.945 7.781-18.46 13.985-7.447 8.378-15.382 17.429-21.817 26.853-5.319-10.608 0.062-24.768 5.035-31.888-4.09-6.135-12.771-3.499-19.58-4.476-12.771-1.84-27.172-8.78-31.888-19.02z"></path> <path style="fill:#8B9E6C;clip-rule:evenodd;fill-rule:evenodd" d="m209.22 181.25c-4.677 4.647-10.664 7.984-16.224 11.749-6.402-0.31-11.385-2.042-11.747-8.393 9.12-0.7 20.05-5.15 27.97-3.36z"></path> <path style="fill:#8B9E6C;clip-rule:evenodd;fill-rule:evenodd" d="m178.45 184.61c2.152 4.067 4.5 10.068 9.511 9.51-3.534 1.965-7.905 3.557-12.866 4.477-8.425 1.562-25.844 0.122-27.411 6.712-0.767 3.221 2.147 5.926 2.796 9.511 1.599 8.839-0.32 16.965-3.355 22.377-7.659-17.888-16.601-34.495-31.888-44.753 10.733-8.603 28.146-5.73 44.194-6.714 6.74-0.42 12.6-1.77 19.03-1.13z"></path> <path style="fill:#8B9E6C;clip-rule:evenodd;fill-rule:evenodd" d="m105.73 198.6c-0.65 0.091-0.995-0.123-1.119-0.56-3.308-0.698-3.998 1.222-5.594 2.237 1.815 21.396-12.516 26.643-26.852 31.888 4.956-8.593-2.773-17.665 1.679-24.614 2.022-3.159 12.921-11.949 17.341-12.868 3.042-0.632 8.124-0.03 10.629 1.119-0.312-1.588 5.609-2.182 8.391-1.679 8.781 1.592 16.323 10.675 20.14 17.343-2.708 3.446-2.655 9.653-3.356 15.104-10.92-0.77-21.83-12.59-21.25-27.97z"></path> <path style="fill:#8B9E6C;clip-rule:evenodd;fill-rule:evenodd" d="m102.93 208.1c0.649-0.092 0.996 0.123 1.118 0.56 2.166 10.12-0.162 21.51 0 33.564 0.673 49.816 4.46 109.85-15.663 143.77-5.892 7.722-14.48 12.745-22.937 17.902-2.615-2.047-4.228-5.096-6.713-7.273 21.361 2.055 27.149-13.067 33.005-27.971 7.28-18.527 8.516-35.344 10.07-60.978 1.549-25.562-0.239-46.815 0-71.605 0.1-9.92-0.82-21.5 1.12-27.96z"></path> <path style="fill:#8B9E6C;clip-rule:evenodd;fill-rule:evenodd" d="m69.927 213.7c3.355 5.463 2.004 14.203-0.56 19.578-7.271-0.297-11.273 2.063-16.783 1.679 4.869-8 10.065-15.67 17.343-21.26z"></path> <path style="fill:#8B9E6C;clip-rule:evenodd;fill-rule:evenodd" d="m130.9 214.82c6.524 5.224 11.274 12.221 13.426 21.817-4.805-3.026-10.262-5.402-16.223-7.272 2.42-4.1 0.2-10.13 2.79-14.55z"></path> <path style="fill:#8B9E6C;clip-rule:evenodd;fill-rule:evenodd" d="m113 220.97c-1.14-0.166-1.49-1.12-2.238-1.679 0.66-1.49 2.97-0.05 2.24 1.68z"></path> <path style="fill:#8B9E6C;clip-rule:evenodd;fill-rule:evenodd" d="m57.061 399.43c2.755 0.248 7.163 5.82 3.356 7.272 0.668-4.21-3.372-3.72-3.356-7.27z"></path> <path style="fill:#8B9E6C;clip-rule:evenodd;fill-rule:evenodd" d="m110.76 5.035c0.249-0.813 0.491 0.057 1.119 0 1.77-2.378 0.879 3.379 1.119 4.476 0.772 3.531 3.031 8.376 3.356 11.188-4.76 6.468 1.409 17.952-7.272 20.699-1.03-11.149 3.79-24.136 1.67-36.363z"></path> <path style="clip-rule:evenodd;fill-rule:evenodd" d="m111.32 0c6.218 0.201 4.418 5.75 5.035 10.07 1.902 13.317 9.44 26.535 10.629 41.957 0.764 9.922 0.832 19.886 1.119 30.209 0.58 20.938 4.825 41.978 5.035 61.536 0.062 5.816-1.481 12.487 2.236 18.461 11.989 2.383 23.346-4.706 36.923-4.476 11.75 0.2 20.716 6.221 27.971 10.629 3.248 1.974 14.308 6.606 14.545 10.63 0.207 3.503-8.693 9.139-11.748 11.188-13.741 9.215-33.576 11.59-52.586 14.545 4.024 11.002 6.661 33.631-6.153 36.922-9.495-9.713-25.71-12.703-35.803-21.818-1.652 12.078-1.649 27.252-0.56 40.279 1.387 16.577-0.703 32.623-1.678 49.788-0.627 11.062 0.122 20.616-0.56 30.768-1.086 16.204-7.853 32.116-15.104 45.313-4.199 7.644-10.134 11.569-18.461 16.783-3.125 1.956-8.414 7.631-11.188 7.271-4.526-0.586-5.05-9.13-8.951-11.747 2.188-5.908 11.417-3.759 16.224-5.035 4.904-1.304 9.096-4.837 12.308-8.95 8.56-10.964 15.831-31.853 17.342-51.467 2.798-36.321 1.731-78.669 1.678-113.56-7.837 3.89-15.129 14.129-27.412 16.224-7.743 1.321-15.601 1.974-23.496 2.797-5.382-9.954-3.101-29.729 2.797-36.921-2.646-2.632-6.125-1.376-9.51-1.679-12.548-1.118-29.097-6.352-36.363-13.426-3.1-3.019-5.501-7.992-5.594-13.426 18.708-5.624 30.624-15.342 54.823-15.664 8.021-0.107 17.34 3.704 24.055-1.119 1.569-16.842 6.31-36.017 7.832-54.822 1.398-17.28 0.562-33.397 2.797-48.67 2.565-17.508 12.893-39.929 21.253-52.57h0.56zm-2.23 41.397c8.682-2.747 2.513-14.231 7.272-20.699-0.325-2.812-2.584-7.657-3.356-11.188-0.24-1.097 0.65-6.854-1.119-4.476-0.628 0.057-0.87-0.813-1.119 0 2.12 12.228-2.7 25.215-1.67 36.363zm-12.311-5.594c4.266 4.499 2.547 14.982 8.392 17.901 2.797-13.984 2.434-31.131 4.476-45.872-0.124-0.436-0.469-0.65-1.119-0.559-3.61 9.815-9.144 17.711-11.751 28.53zm11.751 10.07c-0.812 11.908-0.579 27.078-0.56 38.04 5.959-0.422 10.402-7.097 13.426-12.307-0.758-5.42 1.229-8.094 3.356-10.628 0.086-14.071-2.808-25.163-6.712-35.244-0.715-0.031-0.775-0.717-1.679-0.56 2.18 8.538-2.65 16.208-7.84 20.699zm-17.904 27.971c7.586 5.094 5.181 20.179 15.664 22.377-0.136-12.657-1.412-22.69 0-35.244-5.29-5.339-6.728-14.531-10.628-21.259-3.335 9.773-4.596 23.149-5.036 34.126zm19.024 14.545c-4.596 10.001-0.342 27.208-1.119 39.719-0.768 12.349-2.977 22.991-2.797 33.565 4.364-1.016 8.876-3.515 11.749-6.154 1.958-1.8 5.529-5.667 6.712-8.391 2.735-6.299 0.105-13.839 1.679-21.817 0.338-1.708 2.479-3.912 2.798-6.154 0.977-6.885-2.271-16.779-2.798-26.293-0.633-11.425 0.549-23.046-1.679-27.971 0.64 12.656-11.07 15.918-14.54 23.483zm-20.143 8.95c-0.537 6.633-2.847 13.288-1.678 18.462 0.56 2.476 3.629 4.596 4.475 7.272 2.838 8.971 1.133 24.32 11.748 24.615 1.974-15.192 2.923-31.569 2.797-45.313-0.033-3.643-7.797-8.34-10.069-11.748-3.2-4.798-2.374-8.247-5.035-12.866h-1.678c-0.517 6.167 0.025 12.345-0.561 19.583zm-4.475 41.401c-0.805 5.48-1.33 12.896-2.797 16.782-3.465 9.18-17.644 4.457-27.971 4.476-13.06 0.024-23.652 2.097-31.887 8.392 2.344 5.989 10.004-1.177 15.664 1.119 8.326-8.075 30.506-6.344 39.159 0 5.371-8.802 8.315-20.029 16.783-25.733-3.994-5.891-1.233-18.533-6.153-23.495-1.526 5.78-1.767 11.43-2.798 18.46zm43.078-3.92c-0.608 11.583-3.862 16.12-8.952 21.816 5.021 2.506 8.833 13.456 13.987 6.154-7.378-7.494-0.331-26.785-5.035-37.481-0.78 3.19 0.15 6.39-0.01 9.51zm-33.568 12.31c-7.034 0.393-6.687 7.253-9.51 13.426-1.528 3.341-4.212 6.16-5.035 8.392-2.674 7.254 2.542 13.171 3.356 17.901 6.978 1.257 14.741 4.612 20.139 5.595 0.278-13.182-0.313-25.737 0.56-39.72-3.49-2.19-5.665-5.81-9.508-5.59zm33.008 21.26c-1.202-3.163-7.262-8.599-8.95-8.95-4.265-0.888-10.66 3.277-12.308 7.831-2.625 7.254 0.343 18.691 0.559 24.615 7.682-1.27 12.728-5.174 19.58-7.273 0.91-5.08 2.99-11.29 1.12-16.22zm11.19-2.24c-3.75-0.448-6.007-1.715-8.391 1.119 0.757 4.798-1.55 12.421-0.56 17.342 10.393-1.354 21.498-1.997 33.564-1.678 0.704-9.18 8.58-11.188 14.545-15.104 0.104-2.901-2.278-3.314-1.677-6.713-11.8-3.12-25.84 6.42-37.48 5.03zm40.83 0.56c3.051-0.119 4.798-1.542 5.595-3.915-4.41-2.12-9.24-1.02-5.59 3.91zm2.8 1.68c-6.991 3.079-15.111 5.028-16.224 13.985 16.716 2.13 29.508-3.806 44.194-3.355-6.36-5.64-18.08-19.14-27.97-10.63zm-142.65 3.35c0.264 4.023 1.327 7.249 3.356 9.51 11.657 1.781 25.152 4.667 36.922 4.476-0.52-4.702-2.809-7.634-2.797-12.866-6.977-6.63-30.869-10.57-37.481-1.12zm-34.125 2.24c0.244 2.554 2.922 2.672 5.035 3.356 2.954-2.27 6.716-3.728 10.629-5.035-1.76-8.91-9.686 2.58-15.664 1.68zm8.391 2.8c4.682 4.185 17.211 3.174 25.734 2.798-1.079-2.652-1.594-5.867-3.357-7.833-8.475-1.29-15.489 2.94-22.377 5.03zm22.377 19.58c6.808 0.977 15.489-1.659 19.58 4.476-4.973 7.12-10.354 21.279-5.035 31.888 6.435-9.424 14.371-18.475 21.817-26.853 5.515-6.204 11.932-9.804 18.46-13.985-6.336-4.636-14.484-3.221-24.055-3.916-11.329-0.825-22.979-5.352-34.684-6.154-11.547-0.791-20.411-0.683-27.971-4.475 4.717 10.22 19.118 17.16 31.888 19zm144.89-11.75c0.362 6.351 5.345 8.083 11.747 8.393 5.56-3.765 11.547-7.102 16.224-11.749-7.92-1.79-18.85 2.66-27.97 3.36zm-21.81 1.12c-16.048 0.983-33.461-1.889-44.194 6.714 15.287 10.258 24.229 26.865 31.888 44.753 3.035-5.412 4.954-13.538 3.355-22.377-0.648-3.585-3.562-6.29-2.796-9.511 1.567-6.59 18.986-5.149 27.411-6.712 4.961-0.92 9.332-2.512 12.866-4.477-5.011 0.559-7.358-5.442-9.511-9.51-6.45-0.63-12.31 0.72-19.03 1.13zm-48.68 33.56c0.748 0.559 1.099 1.513 2.238 1.679 0.73-1.73-1.58-3.17-2.24-1.68zm16.23 7.27c0.701-5.451 0.648-11.658 3.356-15.104-3.816-6.668-11.358-15.751-20.14-17.343-2.781-0.503-8.703 0.091-8.391 1.679-2.506-1.149-7.587-1.751-10.629-1.119-4.42 0.919-15.319 9.709-17.341 12.868-4.452 6.949 3.277 16.021-1.679 24.614 14.336-5.245 28.667-10.492 26.852-31.888 1.596-1.016 2.286-2.936 5.594-2.237 0.124 0.437 0.469 0.65 1.119 0.56-0.59 15.39 10.32 27.21 21.25 27.97zm-25.18 9.52c-0.239 24.79 1.549 46.044 0 71.605-1.554 25.634-2.79 42.45-10.07 60.978-5.856 14.903-11.644 30.025-33.005 27.971 2.485 2.178 4.098 5.227 6.713 7.273 8.457-5.157 17.045-10.181 22.937-17.902 20.123-33.919 16.336-93.954 15.663-143.77-0.162-12.055 2.166-23.444 0-33.564-0.123-0.437-0.469-0.651-1.118-0.56-1.94 6.45-1.02 18.03-1.12 27.97zm-49.225-1.12c5.51 0.385 9.512-1.976 16.783-1.679 2.564-5.375 3.915-14.115 0.56-19.578-7.279 5.59-12.475 13.26-17.343 21.26zm75.525-5.6c5.961 1.87 11.418 4.246 16.223 7.272-2.151-9.597-6.901-16.594-13.426-21.817-2.59 4.43-0.37 10.46-2.79 14.55zm-67.693 177.34c3.807-1.452-0.601-7.024-3.356-7.272-0.016 3.55 4.024 3.06 3.356 7.27z"></path> </g> <metadata></metadata></svg> 