<?xml version="1.0" encoding="UTF-8" standalone="no"?> <!-- Created with Inkscape (http://www.inkscape.org/) --> <svg xmlns:inkscape="http://www.inkscape.org/namespaces/inkscape" xmlns:rdf="http://www.w3.org/1999/02/22-rdf-syntax-ns#" xmlns="http://www.w3.org/2000/svg" xmlns:cc="http://web.resource.org/cc/" xmlns:dc="http://purl.org/dc/elements/1.1/" xmlns:sodipodi="http://sodipodi.sourceforge.net/DTD/sodipodi-0.dtd" xmlns:svg="http://www.w3.org/2000/svg" xmlns:ns1="http://sozi.baierouge.fr" xmlns:xlink="http://www.w3.org/1999/xlink" id="svg14350" sodipodi:docname="TS_15.svg" viewBox="0 0 150.26 150.26" sodipodi:version="0.32" inkscape:output_extension="org.inkscape.output.svg.inkscape" inkscape:version="0.45.1" sodipodi:docbase="F:\Inkscape drawings\Traffic Signs"><g id="layer1" inkscape:label="Layer 1" inkscape:groupmode="layer" transform="translate(-274.87 -457.23)"><g id="g9292" transform="translate(258.67 -210.56)"><rect id="rect9060" ry="5.266" style="stroke:#000000;stroke-width:3.7488;fill:#ffff00" transform="rotate(45)" height="106.68" width="106.68" y="407.41" x="536.57"></rect><path id="path9228" sodipodi:nodetypes="ccscccsccc" style="fill-rule:evenodd;stroke:#000000;stroke-width:.58458px;fill:#000000" d="m62.744 704.94c0 8 0.158 42.87 0.158 42.87s-5.504-2.21-8.121-2.17c-2.616 0.04-2.345 2.34-2.345 2.34l16.453 24.63 16.341-23.53s1.129-4.05-1.268-3.52c-2.852 0.63-8.452 2.11-8.452 2.11l-0.158-42.58-12.608-0.15z"></path><path id="path9288" sodipodi:nodetypes="ccscccsccc" style="fill-rule:evenodd;stroke:#000000;stroke-width:.58458px;fill:#000000" d="m117.44 772.61c0-7.99-0.16-42.87-0.16-42.87s5.5 2.22 8.12 2.17c2.62-0.04 2.35-2.34 2.35-2.34l-16.46-24.63-16.338 23.53s-1.129 4.05 1.268 3.52c2.852-0.63 8.45-2.11 8.45-2.11l0.16 42.58 12.61 0.15z"></path></g></g><metadata></metadata></svg> 