<?xml version="1.0" encoding="UTF-8" standalone="no"?> <!-- Created with Inkscape (http://www.inkscape.org/) --> <svg xmlns:inkscape="http://www.inkscape.org/namespaces/inkscape" xmlns:rdf="http://www.w3.org/1999/02/22-rdf-syntax-ns#" xmlns="http://www.w3.org/2000/svg" xmlns:sodipodi="http://sodipodi.sourceforge.net/DTD/sodipodi-0.dtd" xmlns:cc="http://creativecommons.org/ns#" xmlns:xlink="http://www.w3.org/1999/xlink" xmlns:dc="http://purl.org/dc/elements/1.1/" xmlns:svg="http://www.w3.org/2000/svg" xmlns:ns1="http://sozi.baierouge.fr" id="svg59457" sodipodi:docname="gswanson_SunFire_2900_no_text.svg" inkscape:export-filename="C:\joanna\Gfx\drawings_vector\nature_plants\gswanson_SunFire_2900.png" viewBox="0 0 302.03 357.56" sodipodi:version="0.32" inkscape:export-xdpi="46.784138" inkscape:output_extension="org.inkscape.output.svg.inkscape" inkscape:export-ydpi="46.784138" inkscape:version="0.46dev+devel" sodipodi:docbase="/Users/admin/Documents/diagrams/Stencils"><defs id="defs59459"><linearGradient id="linearGradient2656" y2="359.72" gradientUnits="userSpaceOnUse" x2="252.01" gradientTransform="matrix(1.146 0 0 2.8515 -143.94 -405.34)" y1="359.72" x1="252.3" inkscape:collect="always"><stop id="stop40424" style="stop-color:black" offset="0"></stop><stop id="stop40434" style="stop-color:black;stop-opacity:.49804" offset="1"></stop><stop id="stop40426" style="stop-color:black;stop-opacity:0" offset="1"></stop></linearGradient></defs><g id="layer1" transform="translate(-143.95 -442)"><g id="g79636"><rect id="rect1937" style="opacity:.81132;stroke:url(#linearGradient2656);stroke-width:1.8077;fill:#4b5aa5" height="355.02" width="299.1" y="442.91" x="145.76"></rect><g id="g74305" transform="matrix(1.1172 0 0 1 -132.78 221.22)"><rect id="rect53787" style="fill-rule:evenodd;stroke:#6473aa;stroke-dasharray:0.9911862, 0.9911862;stroke-width:.99119;fill:#6c7bb4" height="2.8519" width="8.5423" y="228.09" x="494.32"></rect><rect id="rect51128" style="stroke:#3e4a92;stroke-width:.99119;fill:none" height="7.6257" width="33.488" y="225.8" x="474.08"></rect><rect id="rect52900" style="fill-rule:evenodd;stroke:#655c71;stroke-dasharray:0.9911862, 0.9911862;stroke-width:.99119;fill:#655e7c" height="3.4099" width="13.928" y="228.03" x="478.85"></rect></g><path id="path60656" style="fill-rule:evenodd;stroke:#000000;stroke-width:2.0582px;fill:#000000" d="m155.17 663.77c246.95 10.09 0 18.49 0 18.49v-18.49z"></path><path id="path61555" style="fill-rule:evenodd;stroke:#000000;stroke-width:2.0582px;fill:#000000" d="m153.34 708.12c246.95 10.08 0 18.49 0 18.49v-18.49z"></path><path id="path61557" style="fill-rule:evenodd;stroke:#000000;stroke-width:2.0582px;fill:#000000" d="m154.77 752.4c246.94 10.09 0 18.49 0 18.49v-18.49z"></path><path id="path61559" style="fill-rule:evenodd;stroke:#000000;stroke-width:2.0582px;fill:#000000" d="m154.05 619.55c246.95 10.08 0 18.49 0 18.49v-18.49z"></path><path id="path61561" style="fill-rule:evenodd;stroke:#000000;stroke-width:2.0582px;fill:#000000" d="m154.05 574.9c246.95 10.09 0 18.49 0 18.49v-18.49z"></path><path id="path61563" style="fill-rule:evenodd;stroke:#000000;stroke-width:2.0582px;fill:#000000" d="m154.41 530.62c246.95 10.08 0 18.49 0 18.49v-18.49z"></path><path id="path61565" style="fill-rule:evenodd;stroke:#000000;stroke-width:2.0582px;fill:#000000" d="m154.41 486.33c246.95 10.09 0 18.49 0 18.49v-18.49z"></path><path id="path61583" style="fill-rule:evenodd;stroke:#000000;stroke-width:1px;fill:#000000" d="m153.57 514.86l57.14-0.71 21.43-1.43 15-1.07 17.5-1.07 18.22-1.07 17.85-1.43 41.43-1.07-0.35 22.5-38.22-1.08-17.86-1.07-17.85-1.07-16.79-1.07-18.21-1.43-18.93-1.07h-17.14l-13.22-0.36-29.28-0.35-0.72-7.15z"></path><path id="path62470" style="fill-rule:evenodd;stroke:#000000;stroke-width:1px;fill:#000000" d="m153.21 559.33l57.15-0.72 21.43-1.43 15-1.07 17.5-1.07 18.21-1.07 17.86-1.43 41.43-1.07-0.36 22.5-38.22-1.07-17.85-1.07-17.86-1.07-16.79-1.08-18.21-1.42-18.93-1.08h-17.14l-13.22-0.35-29.28-0.36-0.72-7.14z"></path><path id="path62472" style="fill-rule:evenodd;stroke:#000000;stroke-width:1px;fill:#000000" d="m152.86 603.61l57.14-0.71 21.43-1.43 15-1.07 17.5-1.07 18.21-1.07 17.86-1.43 41.43-1.07-0.36 22.5-38.21-1.08-17.86-1.07-17.86-1.07-16.78-1.07-18.22-1.43-18.93-1.07h-17.14l-13.21-0.36-29.29-0.35-0.71-7.15z"></path><path id="path62474" style="fill-rule:evenodd;stroke:#000000;stroke-width:1px;fill:#000000" d="m151.43 647.9l57.14-0.72 21.43-1.42 15-1.08 17.5-1.07 18.21-1.07 17.86-1.43 41.43-1.07-0.36 22.5-38.21-1.07-17.86-1.07-17.86-1.07-16.78-1.07-18.22-1.43-18.92-1.07h-17.15l-13.21-0.36-29.29-0.36-0.71-7.14z"></path><path id="path62476" style="fill-rule:evenodd;stroke:#000000;stroke-width:1px;fill:#000000" d="m151.43 691.47l57.14-0.71 21.43-1.43 15-1.07 17.5-1.08 18.21-1.07 17.86-1.43 41.43-1.07-0.36 22.5-38.21-1.07-17.86-1.07-17.86-1.07-16.78-1.07-18.22-1.43-18.92-1.07h-17.15l-13.21-0.36-29.29-0.36-0.71-7.14z"></path><path id="path62478" style="fill-rule:evenodd;stroke:#000000;stroke-width:1px;fill:#000000" d="m150.36 736.47l57.14-0.71 21.43-1.43 15-1.07 17.5-1.08 18.21-1.07 17.86-1.43 41.43-1.07-0.36 22.5-38.21-1.07-17.86-1.07-17.86-1.07-16.78-1.07-18.22-1.43-18.93-1.07h-17.14l-13.21-0.36-29.29-0.36-0.71-7.14z"></path><path id="path62480" style="fill-rule:evenodd;stroke:#000000;stroke-width:.87630px;fill:#000000" d="m151.01 779.58l57.18-0.55 21.44-1.09 15.01-0.83 17.51-0.82 18.23-0.82 17.87-1.1 41.45-0.82-0.35 17.27-38.24-0.83-17.87-0.82-17.87-0.82-16.8-0.82-18.22-1.1-18.94-0.82h-17.16l-13.22-0.27-29.31-0.28-0.71-5.48z"></path><path id="path63369" style="fill-rule:evenodd;stroke:#000000;stroke-width:1px;fill:#000000" d="m154.64 476.65l58.22 1.78h17.14l14.29 0.72 27.5 1.78 22.85 2.15 44.65 1.78-0.36-18.21-185-1.07 0.71 11.07z"></path><rect id="rect64256" style="opacity:.81132;fill-rule:evenodd;stroke:#2c3350;fill:#000000" height="22.857" width="77.5" y="551.65" x="357.86"></rect><rect id="rect64258" style="opacity:.81132;fill-rule:evenodd;stroke:#2c3350;fill:#000000" height="22.857" width="77.5" y="594.5" x="356.96"></rect><rect id="rect64260" style="opacity:.81132;fill-rule:evenodd;stroke:#2c3350;fill:#000000" height="22.857" width="77.5" y="639.5" x="355.89"></rect><rect id="rect64262" style="opacity:.81132;fill-rule:evenodd;stroke:#2c3350;fill:#000000" height="22.857" width="77.5" y="683.79" x="355.89"></rect><rect id="rect64264" style="opacity:.81132;fill-rule:evenodd;stroke:#2c3350;fill:#000000" height="22.857" width="77.5" y="727.01" x="354.82"></rect><rect id="rect64266" style="opacity:.81132;fill-rule:evenodd;stroke:#2c3350;stroke-width:.94533;fill:#000000" height="20.412" width="77.555" y="771.26" x="355.15"></rect><rect id="rect64268" style="opacity:.81132;fill-rule:evenodd;stroke:#010102;fill:#000000" height="13.571" width="82.143" y="467.72" x="355.36"></rect><rect id="rect64270" style="stroke:#000000;fill:none" height="31.429" width="88.571" y="503.43" x="351.43"></rect><g id="g73163" transform="matrix(.99985 -.017452 .017452 .99985 12.701 6.0646)"><path id="path73165" style="fill-rule:evenodd;stroke:#070726;fill:#111032" d="m482.86 500.58c0 0.38-0.17 0.73-0.45 0.93-0.28 0.19-0.62 0.19-0.89 0-0.28-0.2-0.45-0.55-0.45-0.93 0-0.39 0.17-0.74 0.45-0.93 0.27-0.2 0.61-0.2 0.89 0 0.28 0.19 0.45 0.54 0.45 0.93z" transform="translate(-122.04 13.907)"></path><path id="path73167" style="fill-rule:evenodd;stroke:#070726;fill:#111032" d="m482.86 500.58c0 0.38-0.17 0.73-0.45 0.93-0.28 0.19-0.62 0.19-0.89 0-0.28-0.2-0.45-0.55-0.45-0.93 0-0.39 0.17-0.74 0.45-0.93 0.27-0.2 0.61-0.2 0.89 0 0.28 0.19 0.45 0.54 0.45 0.93z" transform="translate(-121.96 10)"></path><path id="path73169" style="fill-rule:evenodd;stroke:#070726;fill:#111032" d="m482.86 500.58c0 0.38-0.17 0.73-0.45 0.93-0.28 0.19-0.62 0.19-0.89 0-0.28-0.2-0.45-0.55-0.45-0.93 0-0.39 0.17-0.74 0.45-0.93 0.27-0.2 0.61-0.2 0.89 0 0.28 0.19 0.45 0.54 0.45 0.93z" transform="translate(-122.32 26.429)"></path><path id="path73171" style="fill-rule:evenodd;stroke:#070726;fill:#111032" d="m482.86 500.58c0 0.38-0.17 0.73-0.45 0.93-0.28 0.19-0.62 0.19-0.89 0-0.28-0.2-0.45-0.55-0.45-0.93 0-0.39 0.17-0.74 0.45-0.93 0.27-0.2 0.61-0.2 0.89 0 0.28 0.19 0.45 0.54 0.45 0.93z" transform="translate(-122.16 17.983)"></path><path id="path73173" style="fill-rule:evenodd;stroke:#070726;fill:#111032" d="m482.86 500.58c0 0.38-0.17 0.73-0.45 0.93-0.28 0.19-0.62 0.19-0.89 0-0.28-0.2-0.45-0.55-0.45-0.93 0-0.39 0.17-0.74 0.45-0.93 0.27-0.2 0.61-0.2 0.89 0 0.28 0.19 0.45 0.54 0.45 0.93z" transform="translate(-122.16 22.529)"></path></g><g id="g73175" transform="matrix(.99985 -.017452 .017452 .99985 5.5557 6.1275)"><path id="path73177" style="fill-rule:evenodd;stroke:#070726;fill:#111032" d="m482.86 500.58c0 0.38-0.17 0.73-0.45 0.93-0.28 0.19-0.62 0.19-0.89 0-0.28-0.2-0.45-0.55-0.45-0.93 0-0.39 0.17-0.74 0.45-0.93 0.27-0.2 0.61-0.2 0.89 0 0.28 0.19 0.45 0.54 0.45 0.93z" transform="translate(-122.04 13.907)"></path><path id="path73179" style="fill-rule:evenodd;stroke:#070726;fill:#111032" d="m482.86 500.58c0 0.38-0.17 0.73-0.45 0.93-0.28 0.19-0.62 0.19-0.89 0-0.28-0.2-0.45-0.55-0.45-0.93 0-0.39 0.17-0.74 0.45-0.93 0.27-0.2 0.61-0.2 0.89 0 0.28 0.19 0.45 0.54 0.45 0.93z" transform="translate(-121.96 10)"></path><path id="path73181" style="fill-rule:evenodd;stroke:#070726;fill:#111032" d="m482.86 500.58c0 0.38-0.17 0.73-0.45 0.93-0.28 0.19-0.62 0.19-0.89 0-0.28-0.2-0.45-0.55-0.45-0.93 0-0.39 0.17-0.74 0.45-0.93 0.27-0.2 0.61-0.2 0.89 0 0.28 0.19 0.45 0.54 0.45 0.93z" transform="translate(-122.32 26.429)"></path><path id="path73183" style="fill-rule:evenodd;stroke:#070726;fill:#111032" d="m482.86 500.58c0 0.38-0.17 0.73-0.45 0.93-0.28 0.19-0.62 0.19-0.89 0-0.28-0.2-0.45-0.55-0.45-0.93 0-0.39 0.17-0.74 0.45-0.93 0.27-0.2 0.61-0.2 0.89 0 0.28 0.19 0.45 0.54 0.45 0.93z" transform="translate(-122.16 17.983)"></path><path id="path73185" style="fill-rule:evenodd;stroke:#070726;fill:#111032" d="m482.86 500.58c0 0.38-0.17 0.73-0.45 0.93-0.28 0.19-0.62 0.19-0.89 0-0.28-0.2-0.45-0.55-0.45-0.93 0-0.39 0.17-0.74 0.45-0.93 0.27-0.2 0.61-0.2 0.89 0 0.28 0.19 0.45 0.54 0.45 0.93z" transform="translate(-122.16 22.529)"></path></g><g id="g73187" transform="matrix(.99985 -.017452 .017452 .99985 -1.6416 6.1907)"><path id="path73189" style="fill-rule:evenodd;stroke:#070726;fill:#111032" d="m482.86 500.58c0 0.38-0.17 0.73-0.45 0.93-0.28 0.19-0.62 0.19-0.89 0-0.28-0.2-0.45-0.55-0.45-0.93 0-0.39 0.17-0.74 0.45-0.93 0.27-0.2 0.61-0.2 0.89 0 0.28 0.19 0.45 0.54 0.45 0.93z" transform="translate(-122.04 13.907)"></path><path id="path73191" style="fill-rule:evenodd;stroke:#070726;fill:#111032" d="m482.86 500.58c0 0.38-0.17 0.73-0.45 0.93-0.28 0.19-0.62 0.19-0.89 0-0.28-0.2-0.45-0.55-0.45-0.93 0-0.39 0.17-0.74 0.45-0.93 0.27-0.2 0.61-0.2 0.89 0 0.28 0.19 0.45 0.54 0.45 0.93z" transform="translate(-121.96 10)"></path><path id="path73193" style="fill-rule:evenodd;stroke:#070726;fill:#111032" d="m482.86 500.58c0 0.38-0.17 0.73-0.45 0.93-0.28 0.19-0.62 0.19-0.89 0-0.28-0.2-0.45-0.55-0.45-0.93 0-0.39 0.17-0.74 0.45-0.93 0.27-0.2 0.61-0.2 0.89 0 0.28 0.19 0.45 0.54 0.45 0.93z" transform="translate(-122.32 26.429)"></path><path id="path73195" style="fill-rule:evenodd;stroke:#070726;fill:#111032" d="m482.86 500.58c0 0.38-0.17 0.73-0.45 0.93-0.28 0.19-0.62 0.19-0.89 0-0.28-0.2-0.45-0.55-0.45-0.93 0-0.39 0.17-0.74 0.45-0.93 0.27-0.2 0.61-0.2 0.89 0 0.28 0.19 0.45 0.54 0.45 0.93z" transform="translate(-122.16 17.983)"></path><path id="path73197" style="fill-rule:evenodd;stroke:#070726;fill:#111032" d="m482.86 500.58c0 0.38-0.17 0.73-0.45 0.93-0.28 0.19-0.62 0.19-0.89 0-0.28-0.2-0.45-0.55-0.45-0.93 0-0.39 0.17-0.74 0.45-0.93 0.27-0.2 0.61-0.2 0.89 0 0.28 0.19 0.45 0.54 0.45 0.93z" transform="translate(-122.16 22.529)"></path></g><g id="g73199" transform="matrix(.99985 -.017452 .017452 .99985 -9.0284 6.4432)"><path id="path73201" style="fill-rule:evenodd;stroke:#070726;fill:#111032" d="m482.86 500.58c0 0.38-0.17 0.73-0.45 0.93-0.28 0.19-0.62 0.19-0.89 0-0.28-0.2-0.45-0.55-0.45-0.93 0-0.39 0.17-0.74 0.45-0.93 0.27-0.2 0.61-0.2 0.89 0 0.28 0.19 0.45 0.54 0.45 0.93z" transform="translate(-122.04 13.907)"></path><path id="path73203" style="fill-rule:evenodd;stroke:#070726;fill:#111032" d="m482.86 500.58c0 0.38-0.17 0.73-0.45 0.93-0.28 0.19-0.62 0.19-0.89 0-0.28-0.2-0.45-0.55-0.45-0.93 0-0.39 0.17-0.74 0.45-0.93 0.27-0.2 0.61-0.2 0.89 0 0.28 0.19 0.45 0.54 0.45 0.93z" transform="translate(-121.96 10)"></path><path id="path73205" style="fill-rule:evenodd;stroke:#070726;fill:#111032" d="m482.86 500.58c0 0.38-0.17 0.73-0.45 0.93-0.28 0.19-0.62 0.19-0.89 0-0.28-0.2-0.45-0.55-0.45-0.93 0-0.39 0.17-0.74 0.45-0.93 0.27-0.2 0.61-0.2 0.89 0 0.28 0.19 0.45 0.54 0.45 0.93z" transform="translate(-122.32 26.429)"></path><path id="path73207" style="fill-rule:evenodd;stroke:#070726;fill:#111032" d="m482.86 500.58c0 0.38-0.17 0.73-0.45 0.93-0.28 0.19-0.62 0.19-0.89 0-0.28-0.2-0.45-0.55-0.45-0.93 0-0.39 0.17-0.74 0.45-0.93 0.27-0.2 0.61-0.2 0.89 0 0.28 0.19 0.45 0.54 0.45 0.93z" transform="translate(-122.16 17.983)"></path><path id="path73209" style="fill-rule:evenodd;stroke:#070726;fill:#111032" d="m482.86 500.58c0 0.38-0.17 0.73-0.45 0.93-0.28 0.19-0.62 0.19-0.89 0-0.28-0.2-0.45-0.55-0.45-0.93 0-0.39 0.17-0.74 0.45-0.93 0.27-0.2 0.61-0.2 0.89 0 0.28 0.19 0.45 0.54 0.45 0.93z" transform="translate(-122.16 22.529)"></path></g><g id="g73211" transform="matrix(.99985 -.017452 .017452 .99985 20.392 6.0644)"><path id="path73213" style="fill-rule:evenodd;stroke:#070726;fill:#111032" d="m482.86 500.58c0 0.38-0.17 0.73-0.45 0.93-0.28 0.19-0.62 0.19-0.89 0-0.28-0.2-0.45-0.55-0.45-0.93 0-0.39 0.17-0.74 0.45-0.93 0.27-0.2 0.61-0.2 0.89 0 0.28 0.19 0.45 0.54 0.45 0.93z" transform="translate(-122.04 13.907)"></path><path id="path73215" style="fill-rule:evenodd;stroke:#070726;fill:#111032" d="m482.86 500.58c0 0.38-0.17 0.73-0.45 0.93-0.28 0.19-0.62 0.19-0.89 0-0.28-0.2-0.45-0.55-0.45-0.93 0-0.39 0.17-0.74 0.45-0.93 0.27-0.2 0.61-0.2 0.89 0 0.28 0.19 0.45 0.54 0.45 0.93z" transform="translate(-121.96 10)"></path><path id="path73217" style="fill-rule:evenodd;stroke:#070726;fill:#111032" d="m482.86 500.58c0 0.38-0.17 0.73-0.45 0.93-0.28 0.19-0.62 0.19-0.89 0-0.28-0.2-0.45-0.55-0.45-0.93 0-0.39 0.17-0.74 0.45-0.93 0.27-0.2 0.61-0.2 0.89 0 0.28 0.19 0.45 0.54 0.45 0.93z" transform="translate(-122.32 26.429)"></path><path id="path73219" style="fill-rule:evenodd;stroke:#070726;fill:#111032" d="m482.86 500.58c0 0.38-0.17 0.73-0.45 0.93-0.28 0.19-0.62 0.19-0.89 0-0.28-0.2-0.45-0.55-0.45-0.93 0-0.39 0.17-0.74 0.45-0.93 0.27-0.2 0.61-0.2 0.89 0 0.28 0.19 0.45 0.54 0.45 0.93z" transform="translate(-122.16 17.983)"></path><path id="path73221" style="fill-rule:evenodd;stroke:#070726;fill:#111032" d="m482.86 500.58c0 0.38-0.17 0.73-0.45 0.93-0.28 0.19-0.62 0.19-0.89 0-0.28-0.2-0.45-0.55-0.45-0.93 0-0.39 0.17-0.74 0.45-0.93 0.27-0.2 0.61-0.2 0.89 0 0.28 0.19 0.45 0.54 0.45 0.93z" transform="translate(-122.16 22.529)"></path></g><g id="g73223" transform="matrix(.99985 -.017452 .017452 .99985 27.463 6.0013)"><path id="path73225" style="fill-rule:evenodd;stroke:#070726;fill:#111032" d="m482.86 500.58c0 0.38-0.17 0.73-0.45 0.93-0.28 0.19-0.62 0.19-0.89 0-0.28-0.2-0.45-0.55-0.45-0.93 0-0.39 0.17-0.74 0.45-0.93 0.27-0.2 0.61-0.2 0.89 0 0.28 0.19 0.45 0.54 0.45 0.93z" transform="translate(-122.04 13.907)"></path><path id="path73227" style="fill-rule:evenodd;stroke:#070726;fill:#111032" d="m482.86 500.58c0 0.38-0.17 0.73-0.45 0.93-0.28 0.19-0.62 0.19-0.89 0-0.28-0.2-0.45-0.55-0.45-0.93 0-0.39 0.17-0.74 0.45-0.93 0.27-0.2 0.61-0.2 0.89 0 0.28 0.19 0.45 0.54 0.45 0.93z" transform="translate(-121.96 10)"></path><path id="path73229" style="fill-rule:evenodd;stroke:#070726;fill:#111032" d="m482.86 500.58c0 0.38-0.17 0.73-0.45 0.93-0.28 0.19-0.62 0.19-0.89 0-0.28-0.2-0.45-0.55-0.45-0.93 0-0.39 0.17-0.74 0.45-0.93 0.27-0.2 0.61-0.2 0.89 0 0.28 0.19 0.45 0.54 0.45 0.93z" transform="translate(-122.32 26.429)"></path><path id="path73231" style="fill-rule:evenodd;stroke:#070726;fill:#111032" d="m482.86 500.58c0 0.38-0.17 0.73-0.45 0.93-0.28 0.19-0.62 0.19-0.89 0-0.28-0.2-0.45-0.55-0.45-0.93 0-0.39 0.17-0.74 0.45-0.93 0.27-0.2 0.61-0.2 0.89 0 0.28 0.19 0.45 0.54 0.45 0.93z" transform="translate(-122.16 17.983)"></path><path id="path73233" style="fill-rule:evenodd;stroke:#070726;fill:#111032" d="m482.86 500.58c0 0.38-0.17 0.73-0.45 0.93-0.28 0.19-0.62 0.19-0.89 0-0.28-0.2-0.45-0.55-0.45-0.93 0-0.39 0.17-0.74 0.45-0.93 0.27-0.2 0.61-0.2 0.89 0 0.28 0.19 0.45 0.54 0.45 0.93z" transform="translate(-122.16 22.529)"></path></g><g id="g73235" transform="matrix(.99985 -.017452 .017452 .99985 34.85 6.0013)"><path id="path73237" style="fill-rule:evenodd;stroke:#070726;fill:#111032" d="m482.86 500.58c0 0.38-0.17 0.73-0.45 0.93-0.28 0.19-0.62 0.19-0.89 0-0.28-0.2-0.45-0.55-0.45-0.93 0-0.39 0.17-0.74 0.45-0.93 0.27-0.2 0.61-0.2 0.89 0 0.28 0.19 0.45 0.54 0.45 0.93z" transform="translate(-122.04 13.907)"></path><path id="path73239" style="fill-rule:evenodd;stroke:#070726;fill:#111032" d="m482.86 500.58c0 0.38-0.17 0.73-0.45 0.93-0.28 0.19-0.62 0.19-0.89 0-0.28-0.2-0.45-0.55-0.45-0.93 0-0.39 0.17-0.74 0.45-0.93 0.27-0.2 0.61-0.2 0.89 0 0.28 0.19 0.45 0.54 0.45 0.93z" transform="translate(-121.96 10)"></path><path id="path73241" style="fill-rule:evenodd;stroke:#070726;fill:#111032" d="m482.86 500.58c0 0.38-0.17 0.73-0.45 0.93-0.28 0.19-0.62 0.19-0.89 0-0.28-0.2-0.45-0.55-0.45-0.93 0-0.39 0.17-0.74 0.45-0.93 0.27-0.2 0.61-0.2 0.89 0 0.28 0.19 0.45 0.54 0.45 0.93z" transform="translate(-122.32 26.429)"></path><path id="path73243" style="fill-rule:evenodd;stroke:#070726;fill:#111032" d="m482.86 500.58c0 0.38-0.17 0.73-0.45 0.93-0.28 0.19-0.62 0.19-0.89 0-0.28-0.2-0.45-0.55-0.45-0.93 0-0.39 0.17-0.74 0.45-0.93 0.27-0.2 0.61-0.2 0.89 0 0.28 0.19 0.45 0.54 0.45 0.93z" transform="translate(-122.16 17.983)"></path><path id="path73245" style="fill-rule:evenodd;stroke:#070726;fill:#111032" d="m482.86 500.58c0 0.38-0.17 0.73-0.45 0.93-0.28 0.19-0.62 0.19-0.89 0-0.28-0.2-0.45-0.55-0.45-0.93 0-0.39 0.17-0.74 0.45-0.93 0.27-0.2 0.61-0.2 0.89 0 0.28 0.19 0.45 0.54 0.45 0.93z" transform="translate(-122.16 22.529)"></path></g><g id="g73247" transform="matrix(.99985 -.017452 .017452 .99985 42.237 6.1907)"><path id="path73249" style="fill-rule:evenodd;stroke:#070726;fill:#111032" d="m482.86 500.58c0 0.38-0.17 0.73-0.45 0.93-0.28 0.19-0.62 0.19-0.89 0-0.28-0.2-0.45-0.55-0.45-0.93 0-0.39 0.17-0.74 0.45-0.93 0.27-0.2 0.61-0.2 0.89 0 0.28 0.19 0.45 0.54 0.45 0.93z" transform="translate(-122.04 13.907)"></path><path id="path73251" style="fill-rule:evenodd;stroke:#070726;fill:#111032" d="m482.86 500.58c0 0.38-0.17 0.73-0.45 0.93-0.28 0.19-0.62 0.19-0.89 0-0.28-0.2-0.45-0.55-0.45-0.93 0-0.39 0.17-0.74 0.45-0.93 0.27-0.2 0.61-0.2 0.89 0 0.28 0.19 0.45 0.54 0.45 0.93z" transform="translate(-121.96 10)"></path><path id="path73253" style="fill-rule:evenodd;stroke:#070726;fill:#111032" d="m482.86 500.58c0 0.38-0.17 0.73-0.45 0.93-0.28 0.19-0.62 0.19-0.89 0-0.28-0.2-0.45-0.55-0.45-0.93 0-0.39 0.17-0.74 0.45-0.93 0.27-0.2 0.61-0.2 0.89 0 0.28 0.19 0.45 0.54 0.45 0.93z" transform="translate(-122.32 26.429)"></path><path id="path73255" style="fill-rule:evenodd;stroke:#070726;fill:#111032" d="m482.86 500.58c0 0.38-0.17 0.73-0.45 0.93-0.28 0.19-0.62 0.19-0.89 0-0.28-0.2-0.45-0.55-0.45-0.93 0-0.39 0.17-0.74 0.45-0.93 0.27-0.2 0.61-0.2 0.89 0 0.28 0.19 0.45 0.54 0.45 0.93z" transform="translate(-122.16 17.983)"></path><path id="path73257" style="fill-rule:evenodd;stroke:#070726;fill:#111032" d="m482.86 500.58c0 0.38-0.17 0.73-0.45 0.93-0.28 0.19-0.62 0.19-0.89 0-0.28-0.2-0.45-0.55-0.45-0.93 0-0.39 0.17-0.74 0.45-0.93 0.27-0.2 0.61-0.2 0.89 0 0.28 0.19 0.45 0.54 0.45 0.93z" transform="translate(-122.16 22.529)"></path></g><g id="g73259" transform="matrix(.99985 -.017452 .017452 .99985 49.434 6.0013)"><path id="path73261" style="fill-rule:evenodd;stroke:#070726;fill:#111032" d="m482.86 500.58c0 0.38-0.17 0.73-0.45 0.93-0.28 0.19-0.62 0.19-0.89 0-0.28-0.2-0.45-0.55-0.45-0.93 0-0.39 0.17-0.74 0.45-0.93 0.27-0.2 0.61-0.2 0.89 0 0.28 0.19 0.45 0.54 0.45 0.93z" transform="translate(-122.04 13.907)"></path><path id="path73263" style="fill-rule:evenodd;stroke:#070726;fill:#111032" d="m482.86 500.58c0 0.38-0.17 0.73-0.45 0.93-0.28 0.19-0.62 0.19-0.89 0-0.28-0.2-0.45-0.55-0.45-0.93 0-0.39 0.17-0.74 0.45-0.93 0.27-0.2 0.61-0.2 0.89 0 0.28 0.19 0.45 0.54 0.45 0.93z" transform="translate(-121.96 10)"></path><path id="path73265" style="fill-rule:evenodd;stroke:#070726;fill:#111032" d="m482.86 500.58c0 0.38-0.17 0.73-0.45 0.93-0.28 0.19-0.62 0.19-0.89 0-0.28-0.2-0.45-0.55-0.45-0.93 0-0.39 0.17-0.74 0.45-0.93 0.27-0.2 0.61-0.2 0.89 0 0.28 0.19 0.45 0.54 0.45 0.93z" transform="translate(-122.32 26.429)"></path><path id="path73267" style="fill-rule:evenodd;stroke:#070726;fill:#111032" d="m482.86 500.58c0 0.38-0.17 0.73-0.45 0.93-0.28 0.19-0.62 0.19-0.89 0-0.28-0.2-0.45-0.55-0.45-0.93 0-0.39 0.17-0.74 0.45-0.93 0.27-0.2 0.61-0.2 0.89 0 0.28 0.19 0.45 0.54 0.45 0.93z" transform="translate(-122.16 17.983)"></path><path id="path73269" style="fill-rule:evenodd;stroke:#070726;fill:#111032" d="m482.86 500.58c0 0.38-0.17 0.73-0.45 0.93-0.28 0.19-0.62 0.19-0.89 0-0.28-0.2-0.45-0.55-0.45-0.93 0-0.39 0.17-0.74 0.45-0.93 0.27-0.2 0.61-0.2 0.89 0 0.28 0.19 0.45 0.54 0.45 0.93z" transform="translate(-122.16 22.529)"></path></g><g id="g73271" transform="matrix(.99985 -.017452 .017452 .99985 56.695 6.1275)"><path id="path73273" style="fill-rule:evenodd;stroke:#070726;fill:#111032" d="m482.86 500.58c0 0.38-0.17 0.73-0.45 0.93-0.28 0.19-0.62 0.19-0.89 0-0.28-0.2-0.45-0.55-0.45-0.93 0-0.39 0.17-0.74 0.45-0.93 0.27-0.2 0.61-0.2 0.89 0 0.28 0.19 0.45 0.54 0.45 0.93z" transform="translate(-122.04 13.907)"></path><path id="path73275" style="fill-rule:evenodd;stroke:#070726;fill:#111032" d="m482.86 500.58c0 0.38-0.17 0.73-0.45 0.93-0.28 0.19-0.62 0.19-0.89 0-0.28-0.2-0.45-0.55-0.45-0.93 0-0.39 0.17-0.74 0.45-0.93 0.27-0.2 0.61-0.2 0.89 0 0.28 0.19 0.45 0.54 0.45 0.93z" transform="translate(-121.96 10)"></path><path id="path73277" style="fill-rule:evenodd;stroke:#070726;fill:#111032" d="m482.86 500.58c0 0.38-0.17 0.73-0.45 0.93-0.28 0.19-0.62 0.19-0.89 0-0.28-0.2-0.45-0.55-0.45-0.93 0-0.39 0.17-0.74 0.45-0.93 0.27-0.2 0.61-0.2 0.89 0 0.28 0.19 0.45 0.54 0.45 0.93z" transform="translate(-122.32 26.429)"></path><path id="path73279" style="fill-rule:evenodd;stroke:#070726;fill:#111032" d="m482.86 500.58c0 0.38-0.17 0.73-0.45 0.93-0.28 0.19-0.62 0.19-0.89 0-0.28-0.2-0.45-0.55-0.45-0.93 0-0.39 0.17-0.74 0.45-0.93 0.27-0.2 0.61-0.2 0.89 0 0.28 0.19 0.45 0.54 0.45 0.93z" transform="translate(-122.16 17.983)"></path><path id="path73281" style="fill-rule:evenodd;stroke:#070726;fill:#111032" d="m482.86 500.58c0 0.38-0.17 0.73-0.45 0.93-0.28 0.19-0.62 0.19-0.89 0-0.28-0.2-0.45-0.55-0.45-0.93 0-0.39 0.17-0.74 0.45-0.93 0.27-0.2 0.61-0.2 0.89 0 0.28 0.19 0.45 0.54 0.45 0.93z" transform="translate(-122.16 22.529)"></path></g><g id="g73283" transform="matrix(.99985 -.017452 .017452 .99985 63.892 6.0644)"><path id="path73285" style="fill-rule:evenodd;stroke:#070726;fill:#111032" d="m482.86 500.58c0 0.38-0.17 0.73-0.45 0.93-0.28 0.19-0.62 0.19-0.89 0-0.28-0.2-0.45-0.55-0.45-0.93 0-0.39 0.17-0.74 0.45-0.93 0.27-0.2 0.61-0.2 0.89 0 0.28 0.19 0.45 0.54 0.45 0.93z" transform="translate(-122.04 13.907)"></path><path id="path73287" style="fill-rule:evenodd;stroke:#070726;fill:#111032" d="m482.86 500.58c0 0.38-0.17 0.73-0.45 0.93-0.28 0.19-0.62 0.19-0.89 0-0.28-0.2-0.45-0.55-0.45-0.93 0-0.39 0.17-0.74 0.45-0.93 0.27-0.2 0.61-0.2 0.89 0 0.28 0.19 0.45 0.54 0.45 0.93z" transform="translate(-121.96 10)"></path><path id="path73289" style="fill-rule:evenodd;stroke:#070726;fill:#111032" d="m482.86 500.58c0 0.38-0.17 0.73-0.45 0.93-0.28 0.19-0.62 0.19-0.89 0-0.28-0.2-0.45-0.55-0.45-0.93 0-0.39 0.17-0.74 0.45-0.93 0.27-0.2 0.61-0.2 0.89 0 0.28 0.19 0.45 0.54 0.45 0.93z" transform="translate(-122.32 26.429)"></path><path id="path73291" style="fill-rule:evenodd;stroke:#070726;fill:#111032" d="m482.86 500.58c0 0.38-0.17 0.73-0.45 0.93-0.28 0.19-0.62 0.19-0.89 0-0.28-0.2-0.45-0.55-0.45-0.93 0-0.39 0.17-0.74 0.45-0.93 0.27-0.2 0.61-0.2 0.89 0 0.28 0.19 0.45 0.54 0.45 0.93z" transform="translate(-122.16 17.983)"></path><path id="path73293" style="fill-rule:evenodd;stroke:#070726;fill:#111032" d="m482.86 500.58c0 0.38-0.17 0.73-0.45 0.93-0.28 0.19-0.62 0.19-0.89 0-0.28-0.2-0.45-0.55-0.45-0.93 0-0.39 0.17-0.74 0.45-0.93 0.27-0.2 0.61-0.2 0.89 0 0.28 0.19 0.45 0.54 0.45 0.93z" transform="translate(-122.16 22.529)"></path></g><g id="g73312"><path id="path73297" style="fill-rule:evenodd;stroke:#070726;fill:#111032" d="m482.86 500.58c0 0.38-0.17 0.73-0.45 0.93-0.28 0.19-0.62 0.19-0.89 0-0.28-0.2-0.45-0.55-0.45-0.93 0-0.39 0.17-0.74 0.45-0.93 0.27-0.2 0.61-0.2 0.89 0 0.28 0.19 0.45 0.54 0.45 0.93z" transform="matrix(.99985 -.017452 .017452 .99985 -61.42 24.056)"></path><path id="path73299" style="fill-rule:evenodd;stroke:#070726;fill:#111032" d="m482.86 500.58c0 0.38-0.17 0.73-0.45 0.93-0.28 0.19-0.62 0.19-0.89 0-0.28-0.2-0.45-0.55-0.45-0.93 0-0.39 0.17-0.74 0.45-0.93 0.27-0.2 0.61-0.2 0.89 0 0.28 0.19 0.45 0.54 0.45 0.93z" transform="matrix(.99985 -.017452 .017452 .99985 -61.415 20.149)"></path><path id="path73303" style="fill-rule:evenodd;stroke:#070726;fill:#111032" d="m482.86 500.58c0 0.38-0.17 0.73-0.45 0.93-0.28 0.19-0.62 0.19-0.89 0-0.28-0.2-0.45-0.55-0.45-0.93 0-0.39 0.17-0.74 0.45-0.93 0.27-0.2 0.61-0.2 0.89 0 0.28 0.19 0.45 0.54 0.45 0.93z" transform="matrix(.99985 -.017452 .017452 .99985 -61.472 28.134)"></path><path id="path73305" style="fill-rule:evenodd;stroke:#070726;fill:#111032" d="m482.86 500.58c0 0.38-0.17 0.73-0.45 0.93-0.28 0.19-0.62 0.19-0.89 0-0.28-0.2-0.45-0.55-0.45-0.93 0-0.39 0.17-0.74 0.45-0.93 0.27-0.2 0.61-0.2 0.89 0 0.28 0.19 0.45 0.54 0.45 0.93z" transform="matrix(.99985 -.017452 .017452 .99985 -61.392 32.679)"></path></g><g id="g73318" transform="translate(-7.3303 .37258)"><path id="path73320" style="fill-rule:evenodd;stroke:#070726;fill:#111032" d="m482.86 500.58c0 0.38-0.17 0.73-0.45 0.93-0.28 0.19-0.62 0.19-0.89 0-0.28-0.2-0.45-0.55-0.45-0.93 0-0.39 0.17-0.74 0.45-0.93 0.27-0.2 0.61-0.2 0.89 0 0.28 0.19 0.45 0.54 0.45 0.93z" transform="matrix(.99985 -.017452 .017452 .99985 -61.42 24.056)"></path><path id="path73322" style="fill-rule:evenodd;stroke:#070726;fill:#111032" d="m482.86 500.58c0 0.38-0.17 0.73-0.45 0.93-0.28 0.19-0.62 0.19-0.89 0-0.28-0.2-0.45-0.55-0.45-0.93 0-0.39 0.17-0.74 0.45-0.93 0.27-0.2 0.61-0.2 0.89 0 0.28 0.19 0.45 0.54 0.45 0.93z" transform="matrix(.99985 -.017452 .017452 .99985 -61.415 20.149)"></path><path id="path73324" style="fill-rule:evenodd;stroke:#070726;fill:#111032" d="m482.86 500.58c0 0.38-0.17 0.73-0.45 0.93-0.28 0.19-0.62 0.19-0.89 0-0.28-0.2-0.45-0.55-0.45-0.93 0-0.39 0.17-0.74 0.45-0.93 0.27-0.2 0.61-0.2 0.89 0 0.28 0.19 0.45 0.54 0.45 0.93z" transform="matrix(.99985 -.017452 .017452 .99985 -61.472 28.134)"></path><path id="path73326" style="fill-rule:evenodd;stroke:#070726;fill:#111032" d="m482.86 500.58c0 0.38-0.17 0.73-0.45 0.93-0.28 0.19-0.62 0.19-0.89 0-0.28-0.2-0.45-0.55-0.45-0.93 0-0.39 0.17-0.74 0.45-0.93 0.27-0.2 0.61-0.2 0.89 0 0.28 0.19 0.45 0.54 0.45 0.93z" transform="matrix(.99985 -.017452 .017452 .99985 -61.392 32.679)"></path></g><g id="g73328" transform="translate(-14.654 .056905)"><path id="path73330" style="fill-rule:evenodd;stroke:#070726;fill:#111032" d="m482.86 500.58c0 0.38-0.17 0.73-0.45 0.93-0.28 0.19-0.62 0.19-0.89 0-0.28-0.2-0.45-0.55-0.45-0.93 0-0.39 0.17-0.74 0.45-0.93 0.27-0.2 0.61-0.2 0.89 0 0.28 0.19 0.45 0.54 0.45 0.93z" transform="matrix(.99985 -.017452 .017452 .99985 -61.42 24.056)"></path><path id="path73332" style="fill-rule:evenodd;stroke:#070726;fill:#111032" d="m482.86 500.58c0 0.38-0.17 0.73-0.45 0.93-0.28 0.19-0.62 0.19-0.89 0-0.28-0.2-0.45-0.55-0.45-0.93 0-0.39 0.17-0.74 0.45-0.93 0.27-0.2 0.61-0.2 0.89 0 0.28 0.19 0.45 0.54 0.45 0.93z" transform="matrix(.99985 -.017452 .017452 .99985 -61.415 20.149)"></path><path id="path73334" style="fill-rule:evenodd;stroke:#070726;fill:#111032" d="m482.86 500.58c0 0.38-0.17 0.73-0.45 0.93-0.28 0.19-0.62 0.19-0.89 0-0.28-0.2-0.45-0.55-0.45-0.93 0-0.39 0.17-0.74 0.45-0.93 0.27-0.2 0.61-0.2 0.89 0 0.28 0.19 0.45 0.54 0.45 0.93z" transform="matrix(.99985 -.017452 .017452 .99985 -61.472 28.134)"></path><path id="path73336" style="fill-rule:evenodd;stroke:#070726;fill:#111032" d="m482.86 500.58c0 0.38-0.17 0.73-0.45 0.93-0.28 0.19-0.62 0.19-0.89 0-0.28-0.2-0.45-0.55-0.45-0.93 0-0.39 0.17-0.74 0.45-0.93 0.27-0.2 0.61-0.2 0.89 0 0.28 0.19 0.45 0.54 0.45 0.93z" transform="matrix(.99985 -.017452 .017452 .99985 -61.392 32.679)"></path></g><g id="g73338" transform="translate(-21.978 .24631)"><path id="path73340" style="fill-rule:evenodd;stroke:#070726;fill:#111032" d="m482.86 500.58c0 0.38-0.17 0.73-0.45 0.93-0.28 0.19-0.62 0.19-0.89 0-0.28-0.2-0.45-0.55-0.45-0.93 0-0.39 0.17-0.74 0.45-0.93 0.27-0.2 0.61-0.2 0.89 0 0.28 0.19 0.45 0.54 0.45 0.93z" transform="matrix(.99985 -.017452 .017452 .99985 -61.42 24.056)"></path><path id="path73342" style="fill-rule:evenodd;stroke:#070726;fill:#111032" d="m482.86 500.58c0 0.38-0.17 0.73-0.45 0.93-0.28 0.19-0.62 0.19-0.89 0-0.28-0.2-0.45-0.55-0.45-0.93 0-0.39 0.17-0.74 0.45-0.93 0.27-0.2 0.61-0.2 0.89 0 0.28 0.19 0.45 0.54 0.45 0.93z" transform="matrix(.99985 -.017452 .017452 .99985 -61.415 20.149)"></path><path id="path73344" style="fill-rule:evenodd;stroke:#070726;fill:#111032" d="m482.86 500.58c0 0.38-0.17 0.73-0.45 0.93-0.28 0.19-0.62 0.19-0.89 0-0.28-0.2-0.45-0.55-0.45-0.93 0-0.39 0.17-0.74 0.45-0.93 0.27-0.2 0.61-0.2 0.89 0 0.28 0.19 0.45 0.54 0.45 0.93z" transform="matrix(.99985 -.017452 .017452 .99985 -61.472 28.134)"></path><path id="path73346" style="fill-rule:evenodd;stroke:#070726;fill:#111032" d="m482.86 500.58c0 0.38-0.17 0.73-0.45 0.93-0.28 0.19-0.62 0.19-0.89 0-0.28-0.2-0.45-0.55-0.45-0.93 0-0.39 0.17-0.74 0.45-0.93 0.27-0.2 0.61-0.2 0.89 0 0.28 0.19 0.45 0.54 0.45 0.93z" transform="matrix(.99985 -.017452 .017452 .99985 -61.392 32.679)"></path></g><g id="g73348" transform="translate(-29.301 -.0062295)"><path id="path73350" style="fill-rule:evenodd;stroke:#070726;fill:#111032" d="m482.86 500.58c0 0.38-0.17 0.73-0.45 0.93-0.28 0.19-0.62 0.19-0.89 0-0.28-0.2-0.45-0.55-0.45-0.93 0-0.39 0.17-0.74 0.45-0.93 0.27-0.2 0.61-0.2 0.89 0 0.28 0.19 0.45 0.54 0.45 0.93z" transform="matrix(.99985 -.017452 .017452 .99985 -61.42 24.056)"></path><path id="path73352" style="fill-rule:evenodd;stroke:#070726;fill:#111032" d="m482.86 500.58c0 0.38-0.17 0.73-0.45 0.93-0.28 0.19-0.62 0.19-0.89 0-0.28-0.2-0.45-0.55-0.45-0.93 0-0.39 0.17-0.74 0.45-0.93 0.27-0.2 0.61-0.2 0.89 0 0.28 0.19 0.45 0.54 0.45 0.93z" transform="matrix(.99985 -.017452 .017452 .99985 -61.415 20.149)"></path><path id="path73354" style="fill-rule:evenodd;stroke:#070726;fill:#111032" d="m482.86 500.58c0 0.38-0.17 0.73-0.45 0.93-0.28 0.19-0.62 0.19-0.89 0-0.28-0.2-0.45-0.55-0.45-0.93 0-0.39 0.17-0.74 0.45-0.93 0.27-0.2 0.61-0.2 0.89 0 0.28 0.19 0.45 0.54 0.45 0.93z" transform="matrix(.99985 -.017452 .017452 .99985 -61.472 28.134)"></path><path id="path73356" style="fill-rule:evenodd;stroke:#070726;fill:#111032" d="m482.86 500.58c0 0.38-0.17 0.73-0.45 0.93-0.28 0.19-0.62 0.19-0.89 0-0.28-0.2-0.45-0.55-0.45-0.93 0-0.39 0.17-0.74 0.45-0.93 0.27-0.2 0.61-0.2 0.89 0 0.28 0.19 0.45 0.54 0.45 0.93z" transform="matrix(.99985 -.017452 .017452 .99985 -61.392 32.679)"></path></g><g id="g73358" transform="translate(-36.625 .12004)"><path id="path73360" style="fill-rule:evenodd;stroke:#070726;fill:#111032" d="m482.86 500.58c0 0.38-0.17 0.73-0.45 0.93-0.28 0.19-0.62 0.19-0.89 0-0.28-0.2-0.45-0.55-0.45-0.93 0-0.39 0.17-0.74 0.45-0.93 0.27-0.2 0.61-0.2 0.89 0 0.28 0.19 0.45 0.54 0.45 0.93z" transform="matrix(.99985 -.017452 .017452 .99985 -61.42 24.056)"></path><path id="path73362" style="fill-rule:evenodd;stroke:#070726;fill:#111032" d="m482.86 500.58c0 0.38-0.17 0.73-0.45 0.93-0.28 0.19-0.62 0.19-0.89 0-0.28-0.2-0.45-0.55-0.45-0.93 0-0.39 0.17-0.74 0.45-0.93 0.27-0.2 0.61-0.2 0.89 0 0.28 0.19 0.45 0.54 0.45 0.93z" transform="matrix(.99985 -.017452 .017452 .99985 -61.415 20.149)"></path><path id="path73364" style="fill-rule:evenodd;stroke:#070726;fill:#111032" d="m482.86 500.58c0 0.38-0.17 0.73-0.45 0.93-0.28 0.19-0.62 0.19-0.89 0-0.28-0.2-0.45-0.55-0.45-0.93 0-0.39 0.17-0.74 0.45-0.93 0.27-0.2 0.61-0.2 0.89 0 0.28 0.19 0.45 0.54 0.45 0.93z" transform="matrix(.99985 -.017452 .017452 .99985 -61.472 28.134)"></path><path id="path73366" style="fill-rule:evenodd;stroke:#070726;fill:#111032" d="m482.86 500.58c0 0.38-0.17 0.73-0.45 0.93-0.28 0.19-0.62 0.19-0.89 0-0.28-0.2-0.45-0.55-0.45-0.93 0-0.39 0.17-0.74 0.45-0.93 0.27-0.2 0.61-0.2 0.89 0 0.28 0.19 0.45 0.54 0.45 0.93z" transform="matrix(.99985 -.017452 .017452 .99985 -61.392 32.679)"></path></g><g id="g73368" transform="translate(-43.885 .30944)"><path id="path73370" style="fill-rule:evenodd;stroke:#070726;fill:#111032" d="m482.86 500.58c0 0.38-0.17 0.73-0.45 0.93-0.28 0.19-0.62 0.19-0.89 0-0.28-0.2-0.45-0.55-0.45-0.93 0-0.39 0.17-0.74 0.45-0.93 0.27-0.2 0.61-0.2 0.89 0 0.28 0.19 0.45 0.54 0.45 0.93z" transform="matrix(.99985 -.017452 .017452 .99985 -61.42 24.056)"></path><path id="path73372" style="fill-rule:evenodd;stroke:#070726;fill:#111032" d="m482.86 500.58c0 0.38-0.17 0.73-0.45 0.93-0.28 0.19-0.62 0.19-0.89 0-0.28-0.2-0.45-0.55-0.45-0.93 0-0.39 0.17-0.74 0.45-0.93 0.27-0.2 0.61-0.2 0.89 0 0.28 0.19 0.45 0.54 0.45 0.93z" transform="matrix(.99985 -.017452 .017452 .99985 -61.415 20.149)"></path><path id="path73374" style="fill-rule:evenodd;stroke:#070726;fill:#111032" d="m482.86 500.58c0 0.38-0.17 0.73-0.45 0.93-0.28 0.19-0.62 0.19-0.89 0-0.28-0.2-0.45-0.55-0.45-0.93 0-0.39 0.17-0.74 0.45-0.93 0.27-0.2 0.61-0.2 0.89 0 0.28 0.19 0.45 0.54 0.45 0.93z" transform="matrix(.99985 -.017452 .017452 .99985 -61.472 28.134)"></path><path id="path73376" style="fill-rule:evenodd;stroke:#070726;fill:#111032" d="m482.86 500.58c0 0.38-0.17 0.73-0.45 0.93-0.28 0.19-0.62 0.19-0.89 0-0.28-0.2-0.45-0.55-0.45-0.93 0-0.39 0.17-0.74 0.45-0.93 0.27-0.2 0.61-0.2 0.89 0 0.28 0.19 0.45 0.54 0.45 0.93z" transform="matrix(.99985 -.017452 .017452 .99985 -61.392 32.679)"></path></g><g id="g73378" transform="translate(-51.146 .18317)"><path id="path73380" style="fill-rule:evenodd;stroke:#070726;fill:#111032" d="m482.86 500.58c0 0.38-0.17 0.73-0.45 0.93-0.28 0.19-0.62 0.19-0.89 0-0.28-0.2-0.45-0.55-0.45-0.93 0-0.39 0.17-0.74 0.45-0.93 0.27-0.2 0.61-0.2 0.89 0 0.28 0.19 0.45 0.54 0.45 0.93z" transform="matrix(.99985 -.017452 .017452 .99985 -61.42 24.056)"></path><path id="path73382" style="fill-rule:evenodd;stroke:#070726;fill:#111032" d="m482.86 500.58c0 0.38-0.17 0.73-0.45 0.93-0.28 0.19-0.62 0.19-0.89 0-0.28-0.2-0.45-0.55-0.45-0.93 0-0.39 0.17-0.74 0.45-0.93 0.27-0.2 0.61-0.2 0.89 0 0.28 0.19 0.45 0.54 0.45 0.93z" transform="matrix(.99985 -.017452 .017452 .99985 -61.415 20.149)"></path><path id="path73384" style="fill-rule:evenodd;stroke:#070726;fill:#111032" d="m482.86 500.58c0 0.38-0.17 0.73-0.45 0.93-0.28 0.19-0.62 0.19-0.89 0-0.28-0.2-0.45-0.55-0.45-0.93 0-0.39 0.17-0.74 0.45-0.93 0.27-0.2 0.61-0.2 0.89 0 0.28 0.19 0.45 0.54 0.45 0.93z" transform="matrix(.99985 -.017452 .017452 .99985 -61.472 28.134)"></path><path id="path73386" style="fill-rule:evenodd;stroke:#070726;fill:#111032" d="m482.86 500.58c0 0.38-0.17 0.73-0.45 0.93-0.28 0.19-0.62 0.19-0.89 0-0.28-0.2-0.45-0.55-0.45-0.93 0-0.39 0.17-0.74 0.45-0.93 0.27-0.2 0.61-0.2 0.89 0 0.28 0.19 0.45 0.54 0.45 0.93z" transform="matrix(.99985 -.017452 .017452 .99985 -61.392 32.679)"></path></g><g id="g73388" transform="translate(-58.596 .24631)"><path id="path73390" style="fill-rule:evenodd;stroke:#070726;fill:#111032" d="m482.86 500.58c0 0.38-0.17 0.73-0.45 0.93-0.28 0.19-0.62 0.19-0.89 0-0.28-0.2-0.45-0.55-0.45-0.93 0-0.39 0.17-0.74 0.45-0.93 0.27-0.2 0.61-0.2 0.89 0 0.28 0.19 0.45 0.54 0.45 0.93z" transform="matrix(.99985 -.017452 .017452 .99985 -61.42 24.056)"></path><path id="path73392" style="fill-rule:evenodd;stroke:#070726;fill:#111032" d="m482.86 500.58c0 0.38-0.17 0.73-0.45 0.93-0.28 0.19-0.62 0.19-0.89 0-0.28-0.2-0.45-0.55-0.45-0.93 0-0.39 0.17-0.74 0.45-0.93 0.27-0.2 0.61-0.2 0.89 0 0.28 0.19 0.45 0.54 0.45 0.93z" transform="matrix(.99985 -.017452 .017452 .99985 -61.415 20.149)"></path><path id="path73394" style="fill-rule:evenodd;stroke:#070726;fill:#111032" d="m482.86 500.58c0 0.38-0.17 0.73-0.45 0.93-0.28 0.19-0.62 0.19-0.89 0-0.28-0.2-0.45-0.55-0.45-0.93 0-0.39 0.17-0.74 0.45-0.93 0.27-0.2 0.61-0.2 0.89 0 0.28 0.19 0.45 0.54 0.45 0.93z" transform="matrix(.99985 -.017452 .017452 .99985 -61.472 28.134)"></path><path id="path73396" style="fill-rule:evenodd;stroke:#070726;fill:#111032" d="m482.86 500.58c0 0.38-0.17 0.73-0.45 0.93-0.28 0.19-0.62 0.19-0.89 0-0.28-0.2-0.45-0.55-0.45-0.93 0-0.39 0.17-0.74 0.45-0.93 0.27-0.2 0.61-0.2 0.89 0 0.28 0.19 0.45 0.54 0.45 0.93z" transform="matrix(.99985 -.017452 .017452 .99985 -61.392 32.679)"></path></g><g id="g73398" transform="translate(-65.856 .24631)"><path id="path73400" style="fill-rule:evenodd;stroke:#070726;fill:#111032" d="m482.86 500.58c0 0.38-0.17 0.73-0.45 0.93-0.28 0.19-0.62 0.19-0.89 0-0.28-0.2-0.45-0.55-0.45-0.93 0-0.39 0.17-0.74 0.45-0.93 0.27-0.2 0.61-0.2 0.89 0 0.28 0.19 0.45 0.54 0.45 0.93z" transform="matrix(.99985 -.017452 .017452 .99985 -61.42 24.056)"></path><path id="path73402" style="fill-rule:evenodd;stroke:#070726;fill:#111032" d="m482.86 500.58c0 0.38-0.17 0.73-0.45 0.93-0.28 0.19-0.62 0.19-0.89 0-0.28-0.2-0.45-0.55-0.45-0.93 0-0.39 0.17-0.74 0.45-0.93 0.27-0.2 0.61-0.2 0.89 0 0.28 0.19 0.45 0.54 0.45 0.93z" transform="matrix(.99985 -.017452 .017452 .99985 -61.415 20.149)"></path><path id="path73404" style="fill-rule:evenodd;stroke:#070726;fill:#111032" d="m482.86 500.58c0 0.38-0.17 0.73-0.45 0.93-0.28 0.19-0.62 0.19-0.89 0-0.28-0.2-0.45-0.55-0.45-0.93 0-0.39 0.17-0.74 0.45-0.93 0.27-0.2 0.61-0.2 0.89 0 0.28 0.19 0.45 0.54 0.45 0.93z" transform="matrix(.99985 -.017452 .017452 .99985 -61.472 28.134)"></path><path id="path73406" style="fill-rule:evenodd;stroke:#070726;fill:#111032" d="m482.86 500.58c0 0.38-0.17 0.73-0.45 0.93-0.28 0.19-0.62 0.19-0.89 0-0.28-0.2-0.45-0.55-0.45-0.93 0-0.39 0.17-0.74 0.45-0.93 0.27-0.2 0.61-0.2 0.89 0 0.28 0.19 0.45 0.54 0.45 0.93z" transform="matrix(.99985 -.017452 .017452 .99985 -61.392 32.679)"></path></g><g id="g74297"><rect id="rect73408" style="fill-rule:evenodd;stroke:#000000;fill:#8a8a82" height="9.5964" width="87.378" y="486.17" x="352.29"></rect><rect id="rect74295" style="fill-rule:evenodd;stroke:#000000;fill:#8a8a82" height="2.5254" width="10.607" y="490.72" x="416.18"></rect></g><rect id="rect74301" style="fill-rule:evenodd;stroke:#000000;fill:#8a8a82" height="26.517" width="29.547" y="595.27" x="353.3"></rect><rect id="rect74303" style="fill-rule:evenodd;stroke:#000000;stroke-width:.98612;fill:#8a8a82" height="25.773" width="28.298" y="595.77" x="313.14"></rect><rect id="rect29552" style="fill-rule:evenodd;stroke:#000000;stroke-dasharray:2.75735021, 2.75735021;stroke-width:2.7574;fill:#f4f5fe" transform="matrix(.67360 -.73909 .67360 .73909 0 0)" ry="0" width="20.353" y="572.54" x="-192.1" height="19.146"></rect><rect id="rect75195" style="fill-rule:evenodd;stroke:#b7b3c1;fill:#635a51" height="11.071" width="38.571" y="443.79" x="147.5"></rect><rect id="rect76082" style="fill-rule:evenodd;stroke:#b7b3c1;stroke-width:2.1456;fill:#5b5758" height="7.839" width="12.839" y="445.85" x="193.49"></rect><rect id="rect76969" style="fill-rule:evenodd;stroke:#a6a9dc;fill:#8a8ebe" height="11.25" width="32.321" y="444.15" x="216.07"></rect><rect id="rect77856" style="fill-rule:evenodd;stroke:#a6a9dc;stroke-width:.66929;fill:#8a8ebe" height="9.6164" width="16.938" y="445.5" x="268.14"></rect><rect id="rect77858" style="fill-rule:evenodd;stroke:#a6a9dc;stroke-width:.78029;fill:#8a8ebe" height="10.398" width="21.291" y="445.2" x="290.69"></rect><rect id="rect77860" style="fill-rule:evenodd;stroke:#a6a9dc;stroke-width:.87089;fill:#8a8ebe" height="11.379" width="24.236" y="444.71" x="317.17"></rect><path id="path77862" style="stroke:#000000;stroke-width:1px;fill:none" d="m144.45 460.41c300.02-1.01 301.03 0 301.03 0h-301.03z"></path><path id="path78749" style="stroke:#000000;stroke-width:1.5;fill:none" d="m347.49 460.41l2.02 338.4-2.02-338.4z"></path></g></g><metadata></metadata></svg> 