<?xml version="1.0" encoding="UTF-8" standalone="no"?> <!-- Generator: Adobe Illustrator 13.0.2, SVG Export Plug-In . SVG Version: 6.00 Build 14948) --> <svg xmlns:rdf="http://www.w3.org/1999/02/22-rdf-syntax-ns#" xmlns="http://www.w3.org/2000/svg" xmlns:cc="http://web.resource.org/cc/" xmlns:xlink="http://www.w3.org/1999/xlink" xmlns:dc="http://purl.org/dc/elements/1.1/" xmlns:svg="http://www.w3.org/2000/svg" xmlns:inkscape="http://www.inkscape.org/namespaces/inkscape" xmlns:sodipodi="http://sodipodi.sourceforge.net/DTD/sodipodi-0.dtd" xmlns:ns1="http://sozi.baierouge.fr" id="Layer_1" style="enable-background:new 0 0 292.35 276.759" xml:space="preserve" viewBox="0 0 292.35 276.759" y="0px" x="0px"> <path style="clip-rule:evenodd;fill-rule:evenodd" d="m154.79 31.997h1.743c-0.409 2.302-0.04 5.384-2.325 5.812-1.07-1.372 0.42-3.892 0.59-5.812z"></path> <path style="clip-rule:evenodd;fill-rule:evenodd" d="m133.86 32.576c2.101 0.418 2.089 2.95 2.326 5.233-3.27 0.745-2.14-2.898-2.33-5.233z"></path> <path style="clip-rule:evenodd;fill-rule:evenodd" d="m160.02 32.576c1.771 0.953-0.281 6.699-2.907 6.976 0.02-3.279 1.53-5.067 2.91-6.976z"></path> <path style="clip-rule:evenodd;fill-rule:evenodd" d="m129.21 34.901h1.744c0.023 1.914 0.981 2.896 0.582 5.233-2.26-0.137-3.2-3.785-2.32-5.233z"></path> <path style="clip-rule:evenodd;fill-rule:evenodd" d="m164.68 35.483c-1.588 1.126-0.131 5.297-3.49 4.651 0.33-2.375 0.53-4.889 3.49-4.651z"></path> <path style="clip-rule:evenodd;fill-rule:evenodd" d="m167 38.973c-0.532 1.018-0.199 2.9-1.162 3.487-2.59-0.095-0.65-4.086 1.16-3.487z"></path> <path style="clip-rule:evenodd;fill-rule:evenodd" d="m213.51 47.111c1.645-0.092 1.354 1.748 2.907 1.746 1.396 12.363 4.537 22.98 5.812 35.464-3.676-0.367-3.61-5.948-4.069-8.72-0.752-4.537-0.813-10.04-1.743-14.535-1.08-5.226-3.93-9.664-2.91-13.955z"></path> <path style="clip-rule:evenodd;fill-rule:evenodd" d="m200.14 52.926c-2.905 4.253-7.642 6.711-11.046 10.466-3.428 3.778-5.54 8.774-9.884 11.627-1.357 6.007-5.282 9.446-7.559 14.535-0.236 2.669-0.544 5.271-3.486 5.233 1.746-13.38 12.531-22.73 19.186-33.141 3.894-2.5 6.892-5.897 10.463-8.72h2.33z"></path> <path style="clip-rule:evenodd;fill-rule:evenodd" d="m195.49 105.25c1.349-0.185 2.233 0.094 2.907 0.582 0.16 1.51-3.94 2.02-2.91-0.58z"></path> <path style="clip-rule:evenodd;fill-rule:evenodd" d="m192 107c1.969 0.163 3.565 0.698 3.487 2.905-2.628-0.445-6.674 3.473-7.559-0.58 1.4-1.04 4.26 1.17 4.07-2.32z"></path> <path style="clip-rule:evenodd;fill-rule:evenodd" d="m217.58 107c-0.01 1.734-1.512 1.976-1.744 3.487-2.16-0.47-0.7-4.15 1.74-3.49z"></path> <path style="clip-rule:evenodd;fill-rule:evenodd" d="m272.23 107c0.762 0.204 0.913 1.022 1.744 1.162-0.402 1.15-1.553 1.549-2.908 1.744-0.49-1.85 0.92-1.8 1.17-2.9z"></path> <path style="clip-rule:evenodd;fill-rule:evenodd" d="m18.163 109.9c0.024 2.425-4.168 2.822-5.812 1.746 0.307-0.468 0.605-0.944 0.582-1.746 2.426 0.61 3.938-1.22 5.23 0z"></path> <path style="clip-rule:evenodd;fill-rule:evenodd" d="m217.58 109.32h1.743v2.905c0.837-0.324 1.419-0.906 1.746-1.743 0.783 1.736 3.827 1.211 3.486 4.069-2.884 1.429-4.735-1.372-7.558-1.744-0.42-1.78 0.6-2.12 0.58-3.49z"></path> <path style="clip-rule:evenodd;fill-rule:evenodd" d="m273.98 111.06v1.162c0.473 2.174-3.584 1.077-4.069 0.582 0.44-1.49 1.85-2.01 4.07-1.74z"></path> <path style="clip-rule:evenodd;fill-rule:evenodd" d="m19.327 115.72c-0.707 1.618-3.572 1.082-5.815 1.162-0.093-2.46 4.963-3.18 5.815-1.16z"></path> <path style="clip-rule:evenodd;fill-rule:evenodd" d="m272.81 115.72c-0.043 2.12-5.874 3.963-5.23 0 2.18 0.77 4.02-1.74 5.23 0z"></path> <path style="clip-rule:evenodd;fill-rule:evenodd" d="m19.327 118.04c-0.18 2.169-3.979 3.743-5.815 2.326 0.811-1.91 3.132-2.3 5.815-2.33z"></path> <path style="clip-rule:evenodd;fill-rule:evenodd" d="m270.49 120.37c-0.409 2.659-4.778 0.461-6.394 0.582v-1.744c1.92-1.37 4.87 0.28 6.39 1.16z"></path> <path style="clip-rule:evenodd;fill-rule:evenodd" d="m161.18 119.2c-0.409 2.69-3.345 2.853-5.812 3.487-0.08-3.18 2.57-3.63 5.81-3.49z"></path> <path style="clip-rule:evenodd;fill-rule:evenodd" d="m15.258 123.27c0.364-1.793 4.703-2.626 5.812-1.744 0.095 2.25-4.48 2.85-5.812 1.74z"></path> <path style="clip-rule:evenodd;fill-rule:evenodd" d="m264.67 124.44c-2.77 0.059-4.343-1.083-6.396-1.744 0.95-2.18 7.3-1.6 6.4 1.74z"></path> <path style="clip-rule:evenodd;fill-rule:evenodd" d="m23.396 122.69c-0.364 1.961-1.973 2.676-4.069 2.908 0.769-1.56 1.246-3.4 4.069-2.91z"></path> <path style="clip-rule:evenodd;fill-rule:evenodd" d="m160.6 122.69c0.038 3.139-2.297 3.906-4.651 4.651-0.69-1.74 2.22-4.17 4.65-4.65z"></path> <path style="clip-rule:evenodd;fill-rule:evenodd" d="m161.77 127.92c0.05 3.731-3.664 3.7-6.395 4.651 0.64-3.03 3.55-3.8 6.39-4.65z"></path> <path style="clip-rule:evenodd;fill-rule:evenodd" d="m162.35 133.74c-1.881 1.606-3.558 3.418-5.232 5.23-0.49-3.75 1.98-7.1 5.23-5.23z"></path> <path style="clip-rule:evenodd;fill-rule:evenodd" d="m179.21 133.74h1.744v5.23c-1.95-0.29-2.96-3.58-1.74-5.23z"></path> <path style="clip-rule:evenodd;fill-rule:evenodd" d="m214.09 133.74c2.562 0.149 3.139 2.285 3.487 4.651-2.9 0.33-4.59-2.83-3.49-4.65z"></path> <path style="clip-rule:evenodd;fill-rule:evenodd" d="m217.58 133.74c2.011-0.461 2.455 0.646 3.489 1.162-0.23 1.96-4.51 1.56-3.49-1.16z"></path> <path style="clip-rule:evenodd;fill-rule:evenodd" d="m183.86 134.32c2.2 0.367 2.803 4.616 2.325 5.815-3.43-0.11-3.79-3.75-2.32-5.82z"></path> <path style="clip-rule:evenodd;fill-rule:evenodd" d="m187.93 134.9c2.851-0.137 3.048 2.38 3.49 4.651-2.5 1.63-4.92-2.48-3.49-4.65z"></path> <path style="clip-rule:evenodd;fill-rule:evenodd" d="m193.16 134.9c1.211 1.114 2.422 2.229 2.907 4.069-3 0.75-4.37-2.18-2.91-4.07z"></path> <path style="clip-rule:evenodd;fill-rule:evenodd" d="m210.02 134.9c2.689 0.026 3.775 1.651 3.489 4.651-2.43-0.28-3.7-1.73-3.49-4.65z"></path> <path style="clip-rule:evenodd;fill-rule:evenodd" d="m211.19 140.72c-1.568 1.145-4.377-0.359-4.071-2.908 1.56-1.14 3.98 0.75 4.07 2.91z"></path> <path style="clip-rule:evenodd;fill-rule:evenodd" d="m160.02 140.72c-0.567 1.758-1.729 2.919-3.489 3.487 0.03-2.3 1.2-3.47 3.49-3.49z"></path> <path style="clip-rule:evenodd;fill-rule:evenodd" d="m236.18 149.44c1.369 1.952 2.543 1.805 4.653 0.582 0.516 1.034 1.623 1.477 1.161 3.487-2.39-1.503-2.472-0.561-5.232 0-0.87-0.83-1.83-2.83-0.58-4.07z"></path> <path style="clip-rule:evenodd;fill-rule:evenodd" d="m254.21 149.44c3.569 0.421 6.354 4.344 6.394 6.395-3.44-0.83-5.26-3.27-6.39-6.4z"></path> <path style="clip-rule:evenodd;fill-rule:evenodd" d="m267 154.09c0.163 0.938-0.549 1-0.582 1.743-3.596-0.026-6.482-3.409-5.233-6.395 2.49 0.99 2.74 4.23 5.81 4.65z"></path> <path style="clip-rule:evenodd;fill-rule:evenodd" d="m273.4 149.44c0.175 1.533-0.805 1.909-2.326 1.743-0.18-1.53 0.8-1.91 2.33-1.74z"></path> <path style="clip-rule:evenodd;fill-rule:evenodd" d="m266.42 150.6c1.763 0.561 3.097 1.554 4.65 2.325 0.25 3.39-7.54 0.49-4.65-2.32z"></path> <path style="clip-rule:evenodd;fill-rule:evenodd" d="m230.95 151.18c2.214 0.111 3.825 0.826 4.068 2.908-1.68 1.26-4.62-0.12-4.07-2.91z"></path> <path style="clip-rule:evenodd;fill-rule:evenodd" d="m23.978 154.09c1.372-0.18 1.081-2.019 2.908-1.744 1.403 2.101-5.645 7.805-6.977 3.487 1.358-0.189 2.401-0.698 3.487-1.161-0.594-1.297-2.673 0.759-4.651 0-0.308-0.469-0.605-0.944-0.582-1.744 0.93-0.52 6.657-1.94 5.815 1.15z"></path> <path style="clip-rule:evenodd;fill-rule:evenodd" d="m230.37 154.09c-0.532 2.673-4.841 1.695-4.651-1.162 1.42-1.25 3.45 0.41 4.65 1.16z"></path> <path style="clip-rule:evenodd;fill-rule:evenodd" d="m30.372 154.09c-0.625 2.814-3.908 5.58-6.395 4.65 0.94-2.74 4.037-3.33 6.395-4.65z"></path> <path style="clip-rule:evenodd;fill-rule:evenodd" d="m29.21 159.32c1.431-2.443 3.033-4.72 6.395-5.232v1.743c-2.621 0.67-3.295 3.29-6.395 3.49z"></path> <path style="clip-rule:evenodd;fill-rule:evenodd" d="m40.256 154.67c-0.227 2.119-3.257 4.464-5.23 2.907 0.778-1.94 3.387-2.04 5.23-2.91z"></path> <path style="clip-rule:evenodd;fill-rule:evenodd" d="m83.86 162.81c1.216-0.248 1.54 0.397 2.325 0.58-0.073 1.67-0.726 2.761-2.905 2.325-0.186-1.35 0.093-2.24 0.58-2.91z"></path> <path style="clip-rule:evenodd;fill-rule:evenodd" d="m54.211 166.88c-1.975 3.494-7.92-0.933-11.629-1.164 1.417-3.14 9.429-0.44 11.629 1.16z"></path> <path style="clip-rule:evenodd;fill-rule:evenodd" d="m88.511 166.3c0.078 2.209-1.519 2.744-3.487 2.907-0.584-2.72 1.013-3.26 3.487-2.91z"></path> <path style="clip-rule:evenodd;fill-rule:evenodd" d="m63.513 178.5c-3.492 0.266-6.361-3.042-9.884-4.65-5.931-2.709-11.741-3.871-19.768-4.069 5.694-5.942 18.685 0.981 23.837 3.487 1.654 0.81 6.371 2.6 5.815 5.23z"></path> <path style="clip-rule:evenodd;fill-rule:evenodd" d="m250.14 168.04c0.208 2.146-1.448 2.43-2.907 2.907-0.13-2.07 0.84-3.04 2.91-2.91z"></path> <path style="clip-rule:evenodd;fill-rule:evenodd" d="m255.37 169.2c-0.007 2.515-2.744 2.297-3.489 4.069-1.86-2.08 0.93-4.47 3.49-4.07z"></path> <path style="clip-rule:evenodd;fill-rule:evenodd" d="m90.257 173.27c-1.544-0.005-3.321 0.22-4.071-0.582-0.244-2.37 5.055-2.66 4.071 0.58z"></path> <path style="clip-rule:evenodd;fill-rule:evenodd" d="m255.95 170.95c0.469 0.308 0.943 0.608 1.746 0.582 0.09 2.657-3.251 4.171-4.651 3.487 0.46-1.87 2.11-2.54 2.9-4.07z"></path> <path style="clip-rule:evenodd;fill-rule:evenodd" d="m265.84 176.18c-2.979-0.459-2.465 2.574-5.233 2.325-0.72-3 4.42-6.23 5.23-2.32z"></path> <path style="clip-rule:evenodd;fill-rule:evenodd" d="m106.54 237.23c2.56 0.662 1.864 0.967 5.233 0.581 0.397 1.302 1.746 2.913 0.582 4.069-0.852-0.506-1.843-0.87-1.746-2.325-1.145 0.984-1.332 2.929-4.069 2.325-0.79-1.76 0.28-2.08 0.01-4.65z"></path> <path style="clip-rule:evenodd;fill-rule:evenodd" d="m185.02 237.81c1.767-0.023 3.825-0.338 3.486 1.744-1.15 1.08-4.28 0.87-3.49-1.74z"></path> <path style="clip-rule:evenodd;fill-rule:evenodd" d="m193.16 237.81c0.469 0.308 0.943 0.606 1.746 0.58-0.705 2.011-2.281 3.148-4.653 3.489 0.3-2.02 1.94-2.7 2.9-4.07z"></path> <path style="clip-rule:evenodd;fill-rule:evenodd" d="m102.47 239.55c1.646 0.594 2.967 3.584 1.744 5.232-2.6 0.36-2.9-3.65-1.74-5.23z"></path> <path style="clip-rule:evenodd;fill-rule:evenodd" d="m193.74 241.88c1.542 0.01 3.423-0.321 3.489 1.162 0.189 2.008-3.037 2.126-4.071 1.163-0.07-1.04 0.71-1.22 0.58-2.32z"></path> <path style="clip-rule:evenodd;fill-rule:evenodd" d="m98.395 242.46c2.214 0.499 3.352 2.075 3.489 4.651-2.768 0.21-4.871-2.55-3.485-4.65z"></path> <path style="clip-rule:evenodd;fill-rule:evenodd" d="m201.3 244.78c-0.521 1.806-2.137 2.515-4.069 2.905-1.49-1.66 2.14-4.64 4.07-2.9z"></path> <path style="clip-rule:evenodd;fill-rule:evenodd" d="m94.326 245.36c2.373 0.537 2.399 3.416 5.233 3.489 0.073 1.043-0.712 1.226-0.582 2.325-3.657 0.17-4.031-2.95-4.651-5.82z"></path> <path style="clip-rule:evenodd;fill-rule:evenodd" d="m201.3 246.53c0.468 0.308 0.943 0.605 1.743 0.582-0.133 1.999-1.729 2.533-3.487 2.907-0.5-2.25 1.43-2.07 1.75-3.49z"></path> <path style="clip-rule:evenodd;fill-rule:evenodd" d="m91.418 248.27c2.468 1.022 4.211 2.768 5.233 5.233-4.203 0.72-4.452-2.52-5.233-5.23z"></path> <path style="clip-rule:evenodd;fill-rule:evenodd" d="m205.37 248.85c1.445 2.013-1.431 3.724-3.486 4.069 0.06-2.46 1.57-3.47 3.49-4.07z"></path> <path style="clip-rule:evenodd;fill-rule:evenodd" d="m189.68 255.83c-4.145 0.27-6.022-1.728-9.302-2.325 2.12-2.47 8.65-0.43 9.3 2.33z"></path> <path style="clip-rule:evenodd;fill-rule:evenodd" d="m181.53 257c3.166 0.709 8.23-0.48 8.141 3.486-2.398 1.355-4.296-2.098-8.141-1.161v-2.33z"></path> <path style="clip-rule:evenodd;fill-rule:evenodd" d="m189.09 265.71c-1.916 1.349-3.531-1.625-5.814-1.744 0.84-2.19 6.87-1.61 5.81 1.74z"></path> <path style="clip-rule:evenodd;fill-rule:evenodd" d="m189.68 268.62c-1.304 1.311-2.914-0.038-4.071-0.582 0.17-1.9 4.38-1.44 4.07 0.58z"></path> <path style="clip-rule:evenodd;fill-rule:evenodd" d="m285.02 30.25c3.8 8.013-0.215 16.912 0.582 25.583 0.321 3.499 2.358 7.223 1.743 12.789-0.586 5.332-3.338 9.261-4.068 14.535-0.163 1.185 0.759 2.233 0.582 3.489-0.111 0.788-1.112 1.621-1.164 2.326-0.793 10.743-1.51 22.812 6.977 26.162 3.692 12.737 4.594 38.3-4.069 45.929 3.684 5.184 0.838 13.371-0.582 18.606-4.765 0.858-9.144 11.688-14.535 12.789-4.648 0.951-11.366-3.423-15.114-5.812-1.773-1.131-2.488-2.645-4.071-2.907-8.055-1.344-25.023 8.62-29.069 13.37-0.856 1.011-2.271 1.995-2.907 2.908-0.353 0.511-0.026 2.056-0.58 2.907-0.652 1.003-1.367 1.81-2.325 3.489-0.359 0.627-1.533 0.778-1.746 1.161-0.972 1.761-0.815 4.024-1.743 5.815-1.694 3.276-3.615 4.334-4.651 8.138 2.054 2.027 0.374 3.735 0 6.396 3.354 6.915 9.102 11.44 7.559 23.255-3.314 6.958-9.768 10.776-14.534 16.278 0.125 3.17-0.4 6.991 0.582 9.302-7.954-0.885-2.584-12.186-4.072-18.021-1.485-5.836-5.464-7.336-9.302-10.466-1.885 1.008 1.512 1.523 0.582 3.489-2.829-1.048-5.412-2.34-9.302-2.325 0.604-3.497 4.701 0.08 6.977-1.746-1.076-2.606-4.081-3.283-8.141-2.905-8.722-4.637-23.716-4.826-34.882-5.232-2.058 0.312-2.995-0.494-3.489-1.744-1.381 3.655-6.974 1.725-11.045 2.326-5.784 0.852-10.359 4.234-15.699 5.23-4.251 3.113-7.986 6.744-11.045 11.048-2.481 5.64 1.9 14.632-2.907 18.021-1.855-2.451-0.589-5.19-0.582-8.72-2.054-2.674-5.687-1.578-8.14-2.907-3.894-2.113-9.037-8.914-8.72-15.696 0.4-8.515 5.95-18.162 9.302-23.837-0.206-2.894-1.627-4.575-1.743-7.559-3.703-3.569-5.148-8.883-8.72-12.791-9.408-10.291-23.875-16.957-40.699-14.535-5.119 0.738-10.636 3.088-16.86 4.651-4.532 1.14-6.129 2.283-10.463-0.582-0.703-1.817-2.155-2.884-1.746-5.812-6.319-2.082-9.165-12.315-4.651-18.606-0.514-3.108-3.057-6.834-1.162-10.463-5.373-7.89-4.202-18.114-5.233-27.326-0.62-5.529 0.918-12.193 2.325-16.86 1.33-4.41 4.84-8.268 5.233-14.535 0.93-14.875-2.912-30.875 0.582-45.93-0.447-3.336-2.616-4.346-2.907-6.977-0.142-1.271 0.847-3.177 1.162-5.815 0.667-5.571-0.185-8.777 2.325-11.627 2.132-2.42 12.302-5.902 16.281-7.558 11.043-4.594 21.928-9.39 33.721-13.953 6.302-2.441 12.318-4.4 16.86-6.976 7.125 0.291 17.927-0.109 24.419 0 7.002 0.83 14.362 1.88 21.511 1.162 1.275-0.128 2.695-1.169 4.069-1.162 8.49 0.045 17.662 3.104 25.583 0 2.699 1.866 5.671 0.471 8.72 0.58 1.51 0.054 3.092 1.045 4.651 1.164 6.574 0.504 15.594-0.934 23.836-0.582 7.771 0.333 20.442 2.876 27.908 0 3.012 2.607 9.087 2.152 11.628 5.233h4.068c0.896 1.625 3.449 1.589 4.069 3.489 10.925 1.093 15.873 8.157 26.164 9.884 5.54 5.476 15.24 6.817 22.65 10.453zm-120.93-25.58c-6.158-0.13-11.909-2.399-16.86 0.582-7.45-3.241-20.534-0.904-32.557-1.164-2.312-0.05-4.667-1.103-6.977-1.162-5.907-0.154-11.762 0.104-17.442 0-3.016-0.057-6.224-0.518-8.722 1.162-1.211-1.829-2.368-0.345-4.069-1.162-0.05 2.082-0.904 3.359-1.164 5.23 8.841 0.613 16.463-0.225 25 0 1.545 0.042 3.187 1.081 4.651 1.164 5.384 0.303 10.908-0.984 16.28-0.582 9.233 0.691 17.738 2.217 24.417-0.582-1.271 1.637 0.783 1.062 1.164 1.164 6.898 1.84 15.436-0.106 23.836 0.582 5.26 0.431 10.27-0.58 15.117 0 1.183 0.14 2.309 1.093 3.487 1.162 8.803 0.518 18.081 0.357 25.582 0v-5.233c-16-1.378-35.25-0.813-51.74-1.161zm-91.857 0.582c-6.617 2.761-13.319 5.864-19.186 8.138-5.734 2.224-11.599 4.436-16.278 6.397-7.637 3.196-18.275 6.541-23.257 10.463-0.951 0.752-2.25 0.118-1.743 1.746 5.474 0.367 10.097-3.277 15.117-5.233 5.271-2.054 10.892-3.795 16.278-5.815 8.1-3.038 16.042-6.61 23.836-9.302 2.427-0.838 6.158-0.634 7.559-3.49v-2.325c-0.786-0.181-1.11-0.827-2.326-0.579zm146.51 5.813c10.755 2.224 18.011 7.045 26.744 10.466 3.386 1.327 6.619 2.046 9.884 3.487 3.106 1.375 6.187 2.654 9.302 4.071 6.118 2.78 12.257 6.148 18.604 7.559 0.383-2.127-1.259-2.231-1.162-4.071-21.866-7.613-41.361-16.981-63.372-25.581-1.14 1.1-0.27 2.746 0.01 4.069zm-15.69 2.907c-6.92-0.023-13.421-1-19.768-1.164-10.537-0.27-21.893 0.648-31.975 0-2.501-0.158-4.684-1.057-6.979-1.161-22.867-1.029-45.023 1.942-64.533-1.164-0.731 0.239-1.188 0.75-1.162 1.746 0.13 1.098-0.655 1.282-0.582 2.326 11.831 0.461 23.964 0.274 36.046 0.582 1.594 0.04 2.983 1.072 4.651 1.162 4.029 0.217 8.675-0.547 12.792-0.582 9.16-0.081 24.605 0.802 35.464 0.582 13.74-0.279 26.337 1.918 38.953 2.325 2.222 0.071 5.37 0.975 6.977-1.162 0.13-5.276-6.77-3.478-9.87-3.49zm-128.49-2.325c-2.108 1.301-4.185 1.308-6.977 2.325-5.323 1.938-11.126 4.611-15.696 6.395-11.348 4.431-19.056 6.751-29.651 11.048-4.183 1.694-10.634 3.324-11.627 5.233-0.625 1.194 0.177 2.645-0.582 3.487 14.651-4.27 33.993-12.23 49.999-18.022 3.724-1.348 15.455-3.832 16.278-6.976 0.208-0.792 0.748-3.591-1.162-3.489-0.195-0.001-0.389-0.001-0.582-0.001zm141.28 2.325c-1.031 1.1-0.423 3.839-0.582 5.815 11.337 3.198 20.218 10.665 33.139 7.556 2.844 1.488 7.251 5.379 11.048 2.325-14.57-5.204-27.05-12.485-43.61-15.696zm-36.05 6.395c-1.663-0.069-3.025-1.029-4.65-1.162-1.812-0.149-3.97 0.61-5.815 0.582-8.228-0.135-17.345-0.764-26.162-1.164-3.487-0.158-6.647-1.285-9.884-1.162-2.224 0.083-4.185 1.126-6.395 1.162-8.045 0.128-16.462 0.362-24.418 0-5.181-0.234-10.352-1.85-15.117-1.743-1.722 0.038-6.406 0.842-7.558 2.907 2.827 5.008 8.336 4.45 15.117 4.651 6.875 0.201 19.283 1.287 26.744 1.162 8.143-0.135 12.065-6.009 19.186-5.233 3.044-0.525 2.188 2.851 5.233 2.325 1.646-0.948 3.871-2.271 6.976-2.325 7.146-0.123 11.133 5.349 16.278 6.397 4.218 0.858 9.829-0.215 14.535 0 5.315 0.241 12.563 0.916 18.604 0.58 4.431-0.244 9.496-0.119 8.723-5.812-10.2-1.437-20.71-0.711-31.39-1.165zm-144.18 13.373c-7.459 2.69-15.162 4.843-22.093 8.72-1.389 1.131-5.545-0.509-5.23 2.325 5.749 6.667 14.708-2.77 22.673-2.907 2.867-8.197 9.614-10.118 19.186-6.977 8.68-4.693 19.491-7.253 28.49-11.627-0.421-1.322-0.521-2.969-1.164-4.069-14.794 3.478-28.207 9.612-41.862 14.535zm91.855-6.397c-4.878 2.756-7.733 4.445-8.72 8.14-3.395 12.708 6.099 20.158 9.884 30.233 2.43 6.465 4.731 13.811 1.162 20.347-3.653-0.998-3.896-5.403-6.977-6.976 0.788-2.931-3.291-6.002-4.651-8.72 0.658-3.099-1.942-5.595-2.907-8.722-0.738-2.396-0.376-5.328-1.162-7.559-3.421-9.718-11.982-13.543-23.257-13.371-6.695 4.263-6.458 16.03-4.069 25 14.752 3.27 22.782 13.262 30.813 23.255 1.155 4.859 7.537 7.572 5.815 13.371-2.56-0.151-1.772-3.652-2.907-5.23-3.18-1.017-4.552-4.535-8.138-5.815-10.423-3.719-27.333-0.615-30.815 5.815-2.855 5.275 1.836 12.891 6.397 13.371 9.872 1.038 28.901-2.245 33.72 7.558-2.642 1.304-4.438-1.854-7.558-2.907-1.325-0.447-5.216-1.112-8.14-1.744-17.49-3.775-35.512 3.404-27.906 19.768 2.976 3.225 9.28 3.123 15.696 2.907 3.274-4.672 7.017-8.876 10.466-13.373-4.939 0.033-9.165 1.382-12.792 2.908-3.724 1.566-6.354 4.835-9.884 4.651 1.003-2.681 4.725-5.477 8.141-6.977 2.347-1.031 6.622-2.406 9.884-2.907 3.196-0.49 8.952-1.096 10.466 2.325-1.836 3.357-7.786 4.13-9.884 8.141-4.176 7.972 1.852 15.279 9.302 14.534 5.997-0.601 9.406-8.632 18.021-6.976 2.583 1.292 2.47 5.283 4.651 6.976 0.019-4.809-2.278-7.911-1.162-12.209-1.713-2.997-1.718-6.47-2.326-10.466-1.502-9.874-3.17-23.408-6.395-31.395-0.665-1.644-1.68-3.75-2.328-5.233-4.689-10.729-11.417-18.535-16.86-27.905-2.526-0.767-2.458-4.131-4.651-5.233-1.093-1.195-4.791-4.121-1.744-5.815 14.208 17.099 27.167 34.35 32.559 58.721 0.599 2.709 0.081 5.411 0.58 8.141 1.157 6.29 3.281 12.836 4.071 19.768 0.979 8.595 0.227 17.191 0.58 26.162 0.055 1.367 3.201 5.678 0 7.559-1.493 1.545-0.83-1.119-2.325-1.164-0.672 5.753 0.388 13.65 0.582 19.768 0.095 2.94 0.469 7.291-1.743 8.141-2.707-2.844-2.271-12.607-0.582-16.281-2.567-3.567-0.681-8.229-0.582-12.209 0.154-6.004-1.578-12.127 0-18.021-3.875 0.414-0.277-1.671-1.744-4.071 0.417 0.943-2.742 0.943-2.325 0 0.596-0.568 1.176-1.147 1.743-1.744-4.319 1.843-1.544-0.326-4.651-1.161-2.997 1.514-0.631 5.531 0 8.138 1.895 7.826 3.378 18.079 3.49 26.162 0.016 1.275 0.18 2.423-0.582 3.489 2.585 10.399-0.151 22.897 2.907 33.139 3.241 0.073 5.547-0.246 6.977-0.579 4.856-37.804 5.266-75.229 6.395-111.63 0.13-4.192-0.819-8.112-0.58-12.209 0.123-2.141 1.017-4.301 1.161-6.397 0.648-9.349-0.932-18.675 0-28.487 0.835-8.774 0.533-18.744 0.582-28.488-6.16-2.648-11.02 0.843-15.68 3.474zm34.89 51.745c4.149-9.583 11.675-19.347 12.792-30.231 0.376-3.688-0.485-7.669 0-11.629-5.576-7.66-17.102-18.251-29.07-12.209 0.738 25.057-0.457 53.581 3.487 78.489-2.782 10.116-0.092 22.689 0 31.395 0.109 10.317-0.145 24.279 0.582 34.302 0.549 7.587 0.17 15.159 0.582 22.093 0.407 6.861 2.285 13.173 3.487 19.187 3.446 1.01 8.409 0.506 12.209 1.161-1.093-17.516 0.695-36.896 4.071-52.906 1.202-5.706 3.906-10.596 4.069-15.696-3.729 2.42-4.535 6.839-5.815 11.628-1.805 6.749-3.88 14.804-5.232 21.511-0.725 3.594 0.148 7.918-2.905 10.466-1.831-2.257 1.109-3.624 0.579-6.396 0.251-1.631-2.166 1.457-2.325-0.58-1.575-10.421 2.579-20.82 2.907-29.069 2.679-5.855 8.638-18.963 14.535-8.141 8.003 2.084 20.922 3.378 25.001-3.489-4.64-6.132 3.714-11.334 2.325-16.278-0.675-2.401-2.877-3.556-5.233-4.651-2.728-1.268-6.07-1.199-7.558-2.907 0.922-2.958 4.353-2.184 6.396-3.487 4.272-2.73 6.368-7.641 8.72-12.209-4.01-4.757-13.22-9.163-20.929-8.141-2.478 0.329-3.958 2.463-6.397 1.744 0.946-5.614 5.345-9.12 9.302-12.209 4.723-3.681 14.154-7.665 16.86-12.209 3.055-5.124 0.116-10.532 0.582-19.186-3.433-1.412-6.95-2.739-10.463-4.069-1.114 3.019-4.485 1.573-6.397 2.326-0.185 0.073-0.837 0.96-1.161 1.164-3.283 2.04-4.147 5.034-6.396 8.138-0.819 1.133-2.102 1.867-2.908 2.907-0.979 1.271-1.396 2.867-2.904 3.49-0.687 4.672-4.495 8.485-6.397 12.789-1.991 4.507-2.089 10.634-6.977 12.792-2.94-2.768-0.6-7.108 0.6-9.869zm51.74-56.396c-0.18 2.73-2.943 2.872-2.907 5.815 7.168 1.874 16.181 7.14 21.511 0-6.84-1.294-11.7-4.575-18.6-5.815zm-140.69 5.233c-6.293 2.579-14.355 3.762-18.024 8.141 10.042 2.787 19.065-4.239 27.908-6.397-0.286-1.833 1.045-2.051 0.58-4.069-4.853-1.548-6.951 0.884-10.464 2.325zm11.627 0.582c2.876 2.836 8.417 1.486 13.953 1.744 5.729 0.267 19.978 2.91 21.511-2.326-11.65 0.887-29.577-4.09-35.466 0.582zm115.7 1.743c-9.695-0.726-21.109-0.703-27.906-1.162 3.402 6.191 15.47 2.979 23.837 3.487 4.828 0.295 10.251 3.442 12.209-1.162-2.08-2.151-5.31-0.95-8.14-1.163zm22.09 8.141c0.81 1.905 4.394 1.032 4.651 3.487-2.638 0.314-3.482-1.167-5.233-1.744-2.295 5.931 2.016 9.153 2.907 13.373 0.353 1.666-0.603 3.156-0.582 4.651 0.017 1.085 0.994 1.938 1.164 2.907 0.479 2.725-1.436 6.785 1.162 8.72-0.523-9.129 3.546-18.49 4.65-27.908 1.853-2.172 2.932-4.216 5.233-5.812 3.99-2.768 9.389-3.042 13.952-5.233-9.19-2.853-20.79 2.969-27.9 7.559zm-12.79-4.651c3.253 1.204 5.801 3.116 9.884 3.487 0.336-1.214 1.44-1.659 1.164-3.487-4.015-0.445-6.451-2.462-10.466-2.907 0.25 1.4-1.05 1.263-0.57 2.907zm54.07 4.069c7.137 0.653 12.088 6.468 18.604 5.814v-3.489c-6.125-3.759-13.775-5.99-20.348-9.302-0.63 3.546 1.01 4.81 1.75 6.977zm-172.67 0.582c1.779 0.421 1.71-1.003 3.49-0.582 4.381 1.644 7.625 1.722 11.627 2.907 3.743 3.745 7.899 7.868 9.884 13.371 1.375 3.812 1.25 8.013 2.908 11.63 1.266 2.758 4.821 4.325 4.069 8.138 2.252 1.237 2.777 4.199 4.651 5.814 1.85-17.764-17.231-26.876-12.209-44.186-1.694-0.438-2.881-1.379-4.069-2.326 1.02 1.98-0.189 2.167-1.743 2.908-0.249-1.109-1.663-1.053-1.164-2.908-2.699-0.567-0.788 3.476-3.489 2.908-2.084 0.343-0.014-3.473-2.326-2.908-1.415 0.584 1.14 2.572-1.744 2.326-1.587-0.35-0.894-2.981-2.907-2.907-0.814 0.735-0.033 3.068-2.326 2.325-1.312-0.234 0.308-3.407-2.325-2.325-1.372 0.516 1.334 3.248-1.744 2.907-2.058-0.461-0.899-4.14-4.069-3.487 0.317 2.969 2.228 4.353 3.479 6.395zm-9.301-3.49c-3.203-0.58-3.298 2.129-6.977 0 0.797 4.897-3.636 0.986-4.069 4.651-2.086 0.149-2.131-1.746-4.071-1.743-0.551 1.646 1.136 2.477-0.58 4.651 1.315 0.428 1.271 2.216 2.905 2.325 4.215-5.237 15.143-0.551 18.024-5.233-1.308-2.179-2.763-4.213-3.489-6.976h-1.744c-0.967 1.157 0.053 0.74 0.001 2.325zm152.32 6.977c-0.601 1.168 0.308 2.718 0 4.071-0.188 0.833-1.471 1.417-1.743 2.325-0.669 2.229-0.518 5.264-1.164 8.138-0.587 2.626-1.938 5.486-2.325 7.559 0.023-0.119 0.669 1.523 0.582 2.325-0.376 3.513-2.737 6.92-1.743 11.048-2.115 0.404-0.992 4.048-4.069 3.487-0.203-5.609 0.856-12.483-1.746-15.696 0.941-4.996 1.249-12.732-1.743-16.278-4.67-5.536-11.914-2.467-12.792 4.069-0.187 1.389 0.976 3.582 1.164 5.812 0.201 2.394-0.456 5.181 0 6.979 0.798 3.146 4.178 5.666 5.812 8.72 3.489 6.51 3.944 13.333 6.977 16.86 8.183-17.206 20.023-30.754 30.815-45.348 0.937-3.326 1.261-7.265 4.651-8.14 0.504 9.938-4.325 16.122-9.302 22.093v2.908c-7.778 10.825-16.487 20.723-21.512 34.302 1.985 0.436 0.738-2.363 2.905-1.746 0.695 2.513-1.904 3.26-0.58 4.651 2.444 0.004 2.441-2.437 4.651-1.162-0.088 2.044-2.867 1.396-2.325 4.069 1.364-0.185 2.181-0.918 4.068-0.582 0.204 2.021-2.957 2.209-1.164 4.071 3.232 0.402 4.515-3.425 5.815-5.233 4.369-6.07 9.413-10.033 13.373-15.699 9.439-7.418 17.333-16.385 29.649-20.929-1.992-7.4-9.915-3.508-13.953-0.582-3.063 4.301-7.979 6.749-10.466 11.629-7.397 3.087-11.086 13.357-19.186 13.371 6.392-15.406 30.179-20.882 25.001-44.769-0.793-3.66-3.89-6.702-4.651-11.627-9.41 2.01-20.9 1.343-25 9.294zm-57.56 13.955c3.629-3.461 5.933-11.237 11.627-12.791 6.246-1.706 11.275 1.876 16.86 4.069 3.308-3.019 5.643-3.662 12.21-2.908 0.118-1.817-0.394-4.268 0.581-5.23-2.538-0.795-1.236 2.25-3.489 1.744-1.151-0.397 0.364-3.463-1.743-2.907 0.208 2.146-1.445 2.429-2.907 2.907-1.68-1.748 1.389-2.03 0.582-4.651-5.524 0.291-3.973 7.655-9.302 8.138-1.711-3.584 2.062-5.318 2.907-8.138-2.569 1.301-3.901 1.28-5.815-0.582-1.185 0.364-0.163 2.938-2.325 2.326-1.64-0.104-0.724-2.763-2.907-2.326-0.998 0.745-0.72 2.768-2.325 2.907-0.537-1.012 0.021-3.12-1.744-2.907-1.861-0.118-0.948 2.541-2.907 2.326-1.485-0.452-0.986-2.891-2.907-2.908-1.987-0.05-0.336 3.539-2.325 3.489-1.929-0.203-0.687-3.577-3.487-2.907 2.53 6.595-0.5 15.125-0.59 20.349zm-121.51-18.024c-2.879-0.84-6.127-0.106-9.302-0.582-3.13-0.466-6.283-2.463-9.302-1.162-3.877 9.766-10.83 20.201-5.233 28.487 5.207 7.71 17.482 13.688 20.929 22.093-4.765-0.102-5.905-4.942-8.72-7.558-1.024-0.951-2.896-1.32-4.069-2.326-4.194-3.593-8.961-8.661-11.048-13.371-5.557-2.456-9.52-6.25-17.442-5.233-1.133 1.306-0.506 4.372 0 5.812 4.41-0.686 4.197 2.585 8.722 2.907-0.274 1.826 1.564 1.535 1.744 2.907 7.433 2.065 9.929 9.063 16.86 11.627-0.102 2.236 2.008 2.254 2.325 4.069 9.058 6.641 16.186 15.211 24.418 22.675 1.523-3.582-0.743-5.488-2.325-7.558 0.466-2.016-0.866-2.233-0.582-4.069-6.605-10.104-10.813-22.15-14.535-33.72-0.402-1.147-3.244 0.142-3.487-1.164 1.013 0.045 1.808-0.13 2.326-0.58-0.679-4.606-3.499-8.968-5.233-13.373-0.932-2.368-2.853-6.009-1.164-8.141 2.141 2.318 3.719 5.198 4.071 9.304 3.017 1.438 3.163 5.749 4.069 9.302 2.186 1.341 3.044 3.57 4.069 5.812 0.994 2.176 1.285 5.552 2.325 7.558 1.696 3.272 5.198 5.978 6.977 9.302 1.427 2.664 1.167 5.6 4.071 6.977 0.923-4.684-2.446-8.872-2.907-13.953-0.828-9.125 1.59-18.549 4.651-27.324-3.976-2.034-6.734-7.115-12.208-8.712zm223.26 11.627c0.18-1.37 2.019-1.081 1.744-2.905-5.451-1.332-8.9-4.665-14.535-5.815 1.07 6.096 7.82 6.518 12.79 8.72zm-208.72-2.325c-4.546 10.04-5.5 27.354-1.161 38.371 1.888 0.338 2.704-0.395 4.069-0.58-1.517-15.819 2.993-30.101 9.302-41.279-5.242-0.011-9.191 1.273-12.21 3.488zm-59.3 5.233c3.17 1.521 7.215-0.669 10.463-1.744 3.189-1.055 8.308-1.405 8.722-5.233-0.123-0.653-0.646-0.904-1.164-1.164-5.384 3.339-14.215 3.227-18.021 8.141zm256.97 2.907c2.595-0.646 6.917 1.987 9.884 2.908 0.667-1.98 1.319-4.621 0.579-6.397-4.622-0.22-6.195-3.492-11.045-3.487 0.92 2.585-0.21 5.353 0.58 6.976zm-192.44 27.326c2.21-0.722 1.37-3.343 1.744-4.651 0.459-1.602 1.079-3.009 1.746-4.653 1.325-3.267 3.986-5.817 4.651-8.72 0.981-4.289-1.666-10.619-1.164-15.696-5.025 8.322-7.128 22.095-6.977 33.72zm206.39-24.418c0.554-1.95 1.6-9.014 0-9.302-0.91 1.279-1.67 8.805 0 9.302zm-259.88-2.326c-0.939-0.807-1.841-1.649-2.908-2.326 0.192 1.358 0.7 2.401 1.164 3.487 2.728 0.18 4.055 1.76 6.977 1.744v-5.231c-2.418 1.483-2.054-1.32-4.651-1.164 0.251 1.295 1.337 3.154-0.582 3.49zm239.53 12.209c3.391-3.395 8.049-5.52 11.048-9.304-3.609-0.263-3.307 1.774-5.814 0-0.81 3.347-5.36 8.864-5.24 9.304zm-19.18-3.489c1.685 0.284 2.401-3.352 1.744-3.487-0.32 1.419-2.25 1.237-1.74 3.487zm-229.07 18.024c3.303 5.337 10.714 4.734 17.44 6.976 1.744 0.58 3.409 2.059 5.233 2.908 5.387 2.503 10.099 4.838 12.792 8.72 1.646 0.097 2.422 1.065 4.069 1.162 3.733 4.798 9.207 7.85 12.209 13.373 0.196-3.773-3.539-8.41-6.977-10.465-10.333-12.911-23.801-22.701-35.464-34.293-1.777 0.421-2.12-0.594-3.49-0.58 0.274-1.826-1.563-1.538-1.743-2.907-2.825-0.083-3.634-2.181-6.395-2.326 0.294 7.938-0.359 13.104 2.326 17.443zm252.91-5.233c-0.925 0.726-1.415 2.181-2.325 2.907-1.114 0.89-2.664 0.977-3.487 1.744-1.214 1.128-1.604 2.782-2.907 4.069-1.377 1.363-3.449 2.174-4.651 3.489-1.164 1.273-1.656 3.27-2.907 4.651-1.756 1.939-3.646 2.697-5.233 4.651-1.729 2.129-1.563 3.442-2.907 5.233-0.84 1.121-2.33 1.289-2.905 2.325-0.925 1.663-0.487 3.863-1.745 5.233 3.815 0.677 5.048-3.369 6.977-5.233 7.785-7.521 16.257-14.979 30.815-15.117 0.075-3.591-4.216-3.442-5.815-3.489-5.438-0.154-11.121 5.789-13.953 5.815 0.005-3.676 3.812-3.553 4.651-6.395 3.205-0.866 6.777-4.298 11.045-6.977 6.291-3.948 14.058-6.018 12.21-13.955-5.62 3.754-11.98 7.203-16.87 11.042zm-181.98-9.302c-2.548 5.048-9.177 16.044-2.905 20.929 1.843-4.067 1.491-9.609 2.905-13.953 0.813-2.496 4.201-4.819 1.746-6.976h-1.746zm14.535 4.651c-3.073-0.999-4.575-3.565-8.72-3.489 0.44 3.253 6.572 3.879 8.72 3.489zm110.46-2.907c-0.742-0.033-0.807-0.745-1.745-0.582-0.873 0.87-1.739 1.748-2.326 2.907 4.367 6.165 8.545 14.069 9.884 21.511h3.489c-1.48-9.569-6.11-15.977-9.3-23.836zm42.44 7.558c2.669-1.218 6.144-4.696 6.397-6.397-2.53 1.737-4 4.533-6.4 6.397zm-23.25 7.558c-2.376 2.55-5.709 6.972-5.233 10.463 2.543-0.324 3.165-3.537 4.069-5.23 3.302-6.181 7.476-11.459 9.884-18.024 0.612-0.033 0.459-0.745-0.582-0.582-2.24 4.935-6.95 7.393-8.14 13.373zm-138.96-6.976c-1.781-1.853 0.984-2.435 0.582-4.653h-2.326c-2.101 4.878-2.571 11.384-3.489 17.442 3.719-1.02 7.028-3.033 11.629-3.487 3.007-0.298 6.253 0.218 9.882 0 0.644 1.488 3.123 1.14 5.233 1.162 0.099-2.836-2.044-0.714-2.905-1.744 0.329-1.209 1.661-1.878 0.58-2.907-1.8-0.582-2.257 3.094-3.487 1.164-0.48-2.07 3.603-2.548 1.743-4.071-1.23 0.71-1.689 2.188-3.489 2.326-1.708-0.979 1.814-2.612 0-3.487-1.226 0.516-1.008 2.479-2.905 2.326-0.421-1.777 0.594-2.12 0.58-3.489-1.483-0.627-2.035 2.503-2.905 0.582-0.09-1.446 0.913-1.8 1.162-2.908-3.289-0.575-1.862 3.565-4.651 3.489 0.305-1.826 1.02-3.243 1.743-4.651-2.507 0.01-2.141 2.896-4.651 2.908-1.634-0.875 1.477-2.449 0-2.908-0.87 0.872-1.038 2.447-2.325 2.906zm114.54 0.58c0.239-2.371-0.597-3.667-2.907-3.487 0.12 2.015 0.48 3.778 2.91 3.487zm-6.4 5.233c-0.755-2.155-2.039-3.776-4.653-4.069-0.454 3.021 3.965 3.454 2.328 5.812-2.484-0.229-2.855-2.571-5.233-2.905-0.111 2.437 2.854 1.795 2.325 4.651-2.588 0.068-3.004-2.037-5.814-1.746-0.151 1.704 1.315 1.789 1.164 3.49 9.104 0.586 16.079 3.297 20.347 8.72 1.841-0.916 3.826-2.768 4.072-4.651 0.393-3.03-5.257-12.938-7.559-13.953-1.94-0.002-1.985 1.892-4.071 1.743-0.802-1.327-0.637-3.626-2.905-3.487-1.14 1.807 3.84 4.85-0.01 6.395zm80.24-2.326c-1.486 0.627-2.037-2.503-2.907-0.582 0.669 0.189 2.001 2.536 0.579 2.908-2.059 0.314-1.429-2.058-3.487-1.744 0.126 2.127 0.8 2.231 0 4.069 1.365 0.187 2.182 0.918 4.069 0.582 1.693 2.184 1.585 6.167 4.069 7.559-1.136-4.741 0.307-10.575 1.163-15.117-1.106-0.249-1.459-1.251-2.907-1.162-0.51 2.056 1.5 2.995-0.57 3.487zm-214.54 9.884c-0.097-3.586-1.221-6.141-3.489-7.558 0.354 3.33 1.085 6.281 3.489 7.558zm-51.744 5.233c6.037 1.542 11.218-0.357 18.024-0.582-0.812-1.67 1.585-2.952 0-3.487-0.492 1.249-1.431 2.056-3.489 1.744 0.329-1.209 1.663-1.878 0.582-2.908-2.73-0.404-2.146 2.505-4.069 2.908-0.421-1.777 0.594-2.12 0.582-3.49-2.096-0.35-1.715 1.777-3.489 1.746v-2.326c-1.779-0.423-1.71 1.003-3.489 0.58 2.006-2.207-0.984-1.119-1.744-1.743-1.223-1.008-1.249-5.117-3.487-3.49-0.072 3.946 1.004 6.747 0.579 11.048zm66.279-7.558c-4.026-2.304-8.429-0.847-11.627 1.743-2.803 9.25 2.988 15.753 11.045 12.792 0.864-3.66-0.13-8.935 4.651-9.884-2.38-0.68-1.883-3.403-4.069-4.654zm169.18 38.948c2.651-0.764 5.689-0.452 8.722-1.164 8.103-1.902 16.584 2.24 20.348-4.069 2.919-4.895 5.613-22.708 2.325-26.744-1.991-2.443-6.25-2.737-11.045-1.743-2.463 0.508-10.092 3.844-11.048 4.651-4.992 4.228-10.369 10.466-14.535 14.535-1.332 1.304-3.692 0.487-4.068 2.325-0.901 2.454 3.229-0.127 2.325 2.326-0.14 1.022-1.001 1.325-2.325 1.164-0.442 2.186 3.087 0.4 2.325 2.905-1.734 0.397-3.558 0.705-4.069 2.326 1.483 0.068 2.99 0.111 2.907 1.746-2.164 0.355-3.938 1.1-4.653 2.905 1.647 0.102 3.989-0.499 4.072 1.164-1.032 0.908-3.1 0.778-2.326 3.489 4.13-1.92 6.67-4.57 11.04-5.83zm-216.28-33.133c-0.402 2.176 4.4 1.415 3.489-0.582-1.433-0.076-2.8-0.088-3.489 0.582zm204.65 24.993c0.118-8.923-1.885-9.458-6.395-15.114-1.688-2.12-2.429-4.608-4.071-5.815-3.761-2.768-8.668-3.203-12.209-2.326-2.729 4.757-2.774 9.993-1.161 14.535 1.053 2.964 3.981 3.478 4.65 5.812-6.371 1.467-15.765 15.957-12.209 24.418 0.123 0.291 2.553 3.27 2.907 3.489 4.646 2.867 8.183-2.703 12.209-3.489 7.126 10.642 22.046-3.662 11.628-11.627-1.68-1.795-3.248 3.761-5.233 1.744 0.76-6.4 8.98-5.35 9.88-11.62zm-172.09-1.16c-3.236-4.67-7.837-8.777-12.209-12.209-1.384-1.088-2.174-2.694-3.489-3.489-2.872-1.736-8.344-3.522-12.789-4.069-3.65-0.447-11.071-0.532-15.699 0-12.557 1.445-13.628 21.987-7.558 30.231 14.691-5.63 34.967-4.355 45.35 4.653 4.629-2.53 6.505-7.83 6.394-15.11zm74.999 92.44c5.403-0.528 6.619-0.85 12.209-0.582-3.522-33.735-4.007-75.626-4.069-108.14-0.96-0.007-0.327-1.611-1.164-1.743-3.16 38.3 0.19 72.6-6.98 110.46zm72.67-95.34c-0.57-4.081-3.433-5.872-2.908-11.045-0.127-0.455-0.487-0.677-1.161-0.582-1.37 4.38 0.51 10.25 4.07 11.62zm-134.88-9.31c1.195 3.168 2.983 8.51 7.559 6.395-2.205-2.3-3.251-8.02-7.559-6.39zm-6.976 0c-2.777 2.449 0.34 5.784 0 9.302-1.938 3.102-3.594 6.487-2.908 12.209-2.368 2.671-5.997 4.081-5.815 9.302 1.159 1.943 5.011 1.192 6.397 2.908 0.064 3.811-0.452 8.202 1.162 10.466 2.638 0.873 4.769 0.378 7.558 0 2.105-2.739 5.214-4.479 6.977-7.559 3.246 0.724 3.747-1.294 4.069-3.489-3.307-1.538-7.823-1.867-11.045-3.487-3.302-6.754-1.334-16.219 2.326-20.931-1.998-3.81-3.952-7.67-8.721-8.72zm127.9 8.14c4.462 1.159 7.033 4.208 9.884 6.979 3.677-3.283 1.174-2.694-1.164-6.979-1.389-2.543-1.143-5.32-2.907-5.23-1.15 2.53-4.1 3.26-5.81 5.23zm86.05 42.45c1.341 1.048 2.571-1.521 3.489-2.907 4.755-7.188 2.077-14.396 1.743-24.419-0.255-7.703-0.411-12.862-5.812-16.278 1.1 14.48 3.12 27.27 0.58 43.61zm-5.23-33.14c1.319 0.423 1.738 1.748 2.323 2.905-2.082 1.602-1.141 6.342 1.163 6.979-0.714-3.96 1.197-13.456-1.743-15.699 0.41 2.93-1.04 4-1.74 5.82zm-272.68 8.13c1.829 0.279 2.273-0.828 3.489-1.161-1.666-2.406-1.63-6.513-3.489-8.723-1.32 2.62-1.502 7.14 0 9.88zm270.35-3.48c1.358-0.194 2.505-0.596 2.907-1.746-0.785-0.183-1.109-0.826-2.325-0.58 0.13 1.1-0.66 1.28-0.58 2.33zm-219.18 6.97c-4.81-1.803-11.963-6.858-21.511-7.559-9.344-0.686-27.6 2.668-29.651 11.045-0.364 1.49-0.274 8.157 0 9.305 1.1 4.584 5.228 7.082 9.884 9.302 5.266 12.533 17.748 0.943 28.488 0 5.692-0.502 8.563 1.618 13.953 2.325 6.747 5.074 13.375 10.27 18.024 17.442 7.166 13.094 15.197 26.29 20.35 41.276 0.291 0.852-1.175 2.806 1.162 2.907 4.583-0.095-1.266-6.851 0-8.72 3.22 0.461 2.529 4.835 4.651 6.395 1.642-0.296 2.47-1.405 4.069-1.744 1.086-7.873-6.179-10.479-4.651-16.859 2.38 0.139 2.614 2.425 2.907 4.65 0.745 0.998 3.478 0.012 3.489 1.744 0.268 3.027 0.53 6.058 1.162 8.722 4.076 0.005 7.537-0.604 9.302-2.907-7.222-17.778-16.335-33.664-24.416-50.581-2.562-5.966-4.152-12.904-9.304-16.28-3.132 0.551-2.967 4.397-6.395 4.653 1.074 3.941 8.538 7.116 5.815 11.045-3.577-2.044-4.646-6.595-8.141-8.72-3.674 1.6-8.533 0.812-11.045-1.746 0.147-3.491-1.608-6.686-0.582-9.302-3.637-0.99-5.757-3.52-7.557-6.37zm145.34 61.63c1.284-3.326 1.949-6.82 3.486-9.884 7.577-15.066 21.369-33.24 45.351-30.812 3.946 0.399 8.928 3.401 13.953 4.069 7.934 1.055 8.419-4.533 11.045-8.721 1.031-1.644 2.73-2.186 3.489-3.486 3.083-5.283 0.733-9.2-0.582-13.956-1.644-1.069-3.889-1.535-4.068-4.069-14.436-3.877-28.746-1.119-37.792 6.976-1.152 8.732-8.803 10.962-17.44 12.209-0.686 2.415-3.011 3.191-4.65 4.651-0.057-2.769 2.16-3.268 2.905-5.233-2.716 1.547-5.094 3.433-6.395 6.396-3.719-3.867 4.045-5.398 4.65-8.722-5.249-0.012-6.979 6.581-10.466 6.396-0.236-3.146 3.364-2.453 3.489-5.232-2.445-0.073-2.786-2.252-5.232-2.326-4.911 7.104-9.686 14.346-11.627 24.419-2.345 1.143-1.486 5.491-4.069 6.395 0.908 2.791-0.175 5.152-1.746 6.977-1.623 10.163-3.316 16.335-4.65 27.326-0.914 0.054-2.016-0.078-1.744 1.161 0.74 4.881 6.278 4.963 10.466 6.396 1.821-2.443-0.26-2.761 0-6.396 5.488-18.349 12.219-35.454 22.094-49.417 3.481-1.525 8.93-11.379 13.37-5.814-6.692-0.01-10.196 6.011-12.791 9.884-1.604 2.396-3.343 4.249-4.651 6.395-3.222 5.297-4.251 9.685-6.394 14.534-0.545 1.233-1.822 2.236-2.326 3.49-0.336 0.835 0.258 2.041 0 2.907-0.521 1.743-2.315 3.439-2.907 5.232-2.099 6.364-2.751 12.505-2.325 17.44 0.151 1.703-1.315 1.788-1.164 3.489 3.601-0.888 2.919 2.508 5.814 2.325 2.212-6.122 4.143-12.526 7.559-17.442-1.029-4.883 2.247-8.776 2.907-10.463 0.599-1.533 0.311-3.612 1.162-5.233 0.402-0.762 1.816-1.01 2.325-1.746 1.718-2.467 3.059-5.895 4.071-6.976 8.635-9.222 24.565-9.312 33.139-19.187-0.687-0.863-0.504-2.597-2.325-2.325-1.287 0.457 0.111 3.601-2.326 2.907 0.164-1.521-0.213-2.5-1.743-2.325 0.118 1.67-0.149 2.952-1.164 3.489-1.017-1.114-0.684-3.581-2.907-3.489-0.156 1.734 1.628 3.539-0.58 4.069-1.679-0.261-1.376-2.501-2.907-2.907-1.384 1.135 1.062 3.255-0.582 4.652-2.28-0.435-1.565-3.86-4.65-3.489 0.128 1.089 1.5 3.854 0 4.651-0.913-0.251-0.497-1.829-2.325-1.162-1.122 0.06 0.9 2.165-0.582 2.905-0.973-0.771-1.947-1.54-4.069-1.161-0.161 1.02 1.637 2.9 0 3.487-1.107-0.249-1.462-1.252-2.907-1.162-0.023 1.729 1.729 4.648-0.582 5.233-0.843-0.708-0.778-2.323-2.325-2.326-1.086 1.034 0.473 1.477 0 3.487-0.743 0.807-2.745 0.357-3.487 1.164-3.75 6.352-9.654 13.572-9.884 21.511-4.479 2.501-2.884 11.069-6.977 13.953-2.09-5.56 2.26-10.44 4.07-15.13zm-94.18-25.58c-4.587-11.306-9.534-22.249-16.28-31.395-0.684 0.09-1.649-0.1-1.744 0.582 6.893 9.38 11.184 21.36 18.024 30.81zm0.58-23.84c-5.486-0.135-7.875-3.367-10.466-6.397 0.286 4.96 5.626 7.94 10.466 6.4zm54.07 25.58c2.352-8.696 4.5-17.594 6.977-26.162 0.74-1.609 3.476-4.247 2.326-5.815-6.64 6.74-9.6 20.25-9.31 31.97zm-45.35 25c-1.597-1.116-2.5-2.926-2.325-5.814-6.179-10.622-10.759-22.625-16.278-33.139-1.481-2.817-3.116-5.914-4.651-8.72-1.514-2.768-3.222-6.639-6.397-7.559 0.147 3.388 3.222 5.495 4.651 8.138 1.886 3.49 3.492 7.405 5.233 11.048 2.851 5.957 5.624 11.874 7.559 18.022 5.178 7.035 9.915 16.264 13.371 24.418 1.141 2.688 1.119 6.137 3.49 8.141-0.471-17.163-6.946-28.324-13.371-39.535 2.28 8.58 8.51 16.25 8.71 24.99zm0.58-52.32c3.882 5.034 2.113 15.718 5.233 21.514 1.377-7.663-1.403-15.43-2.907-23.257-0.743-0.031-0.807-0.746-1.746-0.582 0.14 1.1-0.65 1.29-0.57 2.33zm63.37 4.65c-1.984-0.149-2.794-1.472-5.232-1.164-0.322 2.645 3.898 0.752 4.068 2.907-0.845 0.899-2.976 0.512-4.65 0.582 0.168 2.157 3.075 1.573 2.907 4.069-1.535 0.752-4.178-1.862-4.651 1.743 1.806 0.326 3.57 0.693 3.487 2.907-2.011 0.474-2.453-1.086-3.487 0 0.015 2.117 3.026 1.235 2.326 4.069-1.483 0.637-2.993-1.984-2.908 0.582-1.523 1.188 3.007 1.219 2.326 3.489-1.221 1.467-2.267-1.469-3.489 0-0.469 2.214 1.705 1.784 1.745 3.487-2.112 0.019-1.512 2.754-2.907 3.489 1.272 5.729-2.995 10.804-0.582 13.953 4.595-8.891 7.211-18.465 12.209-26.162 0.519-0.8 1.751-0.976 2.326-1.744 1.72-2.307 2.763-5.515 4.65-7.559 2.654-2.874 6.12-4.944 6.977-9.304-4.133 1.682-11.873-0.246-14.534 2.907-1.117-1.4-2.73-2.307-4.069-3.487-0.63 3.51 3.92 1.87 3.47 5.22zm-76.16 0c-1.606-0.722-2.953-1.698-5.233-1.746 1.18 3.366 3.804 6.054 5.233 9.302 0.286 0.653-0.251 1.656 0 2.326 0.476 1.277 1.727 2.339 2.325 3.489 4.512 8.675 9.768 18.921 12.209 28.487 1.568 0.951 2.766 2.273 3.489 4.071v4.651c3.068 1.773-0.208 9.896 3.487 11.045-0.693-9.227-1.874-15.069-1.162-25.001h-2.908c-1.519-5.708-1.322-10.847-4.071-14.534-0.17-1.528 2.257-0.457 1.746-2.325-0.845-0.317-3.004 0.681-2.908-0.58 0.26-1.68 2.501-1.374 2.908-2.907-0.405-1.147-3.243 0.142-3.489-1.164 0.601-1.528 2.306-1.956 2.907-3.487-1.803-0.767-3.225 1.723-4.069 0 0.468-2.051 3.548-1.49 3.487-4.071-1.271-1.93-3.13 1.777-4.069 0-0.445-2.964 3.712-1.324 3.487-4.068-3.068-1.292-3.75 2.793-5.23 1.163-0.338-3.437 4.457-1.745 4.651-4.65-2.382-0.565-3.726 1.438-5.233 0 0.187-2.333 3.563-1.477 4.069-3.489-2.96-0.1-6.44 3.98-11.65 3.5zm69.19 48.84c0.21-1.593-0.369-3.757 0-5.812 0.431-2.39 2.673-5.259 3.489-8.141 0.319-1.128-0.341-2.508 0-3.487 2.107-6.075 6.113-9.758 5.232-12.791 0.053 0.178-0.042 0.399 0 0.582-5.304 7.679-8.738 17.229-12.791 26.162 0.289 8.322-1.859 18.753 6.395 17.442 0.963-1.947 0.74-5.074 2.907-5.815-1.164-2.954 1.214-5.648 1.746-8.14 0.838-3.928 0.715-7.738 1.743-11.628 3.121-11.793 7.76-21.17 11.046-31.395 1.635-2.061 5.067-5.385 4.071-8.138-6.361 8.991-11.382 19.209-15.699 30.23-1.462 3.735-3.562 7.434-4.65 11.046-1.911 6.352-0.06 13.415-2.907 19.768-3.64-2.48-0.98-6.85-0.58-9.89zm-41.28-44.77c0.799-0.746 1.012-3.479-0.58-3.49-1 0.94-0.54 3 0.58 3.49zm143.02 1.74c0.863 0.494 1.252 1.464 1.164 2.907-1.706 0.04-2.16 1.33-2.907 2.325 1 1.566 5.826 1.593 7.558 0.582-0.539-4.272 1.422-8.62-0.581-9.884-0.6 2.92-2.99 4.35-5.23 4.07zm-263.95 13.38c-2.385 1.878-3.482 5.044-2.905 9.884 3.901 2.104 7.885 4.128 7.556 10.464 8.036 3.388 15.422-3.587 25-4.651 13.392-1.485 20.357 1.512 28.488 5.233-3.161-4.398-8.663-6.452-14.535-8.141-1.098 0.066-0.402 1.923-1.743 1.746-3.354-1.814-10.813-3.01-13.371-0.582-0.099-0.871 0.206-2.146-0.582-2.326-0.137 0.76-3.281 2.302-2.907 0-2.292-0.16-1.777 2.486-4.069 2.326-0.641-3.223-2.238 0.745-3.49 0.582-0.457-4.387-2.593 0.624-4.651 0 0.064-1.448 1.091-1.801 0-2.908-2.396-0.458-1.093 2.785-3.487 2.326-0.327-2.652 2.19-2.461 1.744-5.233-2.894-0.567-1.533 3.118-4.072 2.907-0.48-1.644 0.821-1.507 0.582-2.907-2.171-0.622-1.656 1.443-3.487 1.164 1.552-2.771-1.114-4.123-1.746-6.396-0.139-4.916 1.141-10.646-1.743-13.953h-2.326c-2.612 3.62 0.814 7.04 1.744 10.47zm239.53-9.89c-0.433 2.214 3.767 1.256 2.908-0.582-1.35-0.18-2.23 0.09-2.91 0.58zm-193.02 21.51c13.981 2.491 18.698 14.247 27.908 21.512-2.363-5.586-5.181-10.71-7.558-16.278-1.036-0.322-2.416-0.298-2.908-1.164 0.052-2.172 0.651-1.656 0-3.487-2.675 0.376-3.371-0.319-2.325-2.325-3.201-1.334-2.486-1.808-4.651-2.907 0.303-0.861 0.861-1.467 1.162-2.325-1.419-1.475-1.237 1.225-3.487 0.579-0.433-1.788 1.595-1.116 1.162-2.905-1.8-0.767-3.225 1.723-4.069 0-0.93-1.966 2.467-2.481 0.582-3.489-0.506 0.852-0.871 1.843-2.326 1.744 0.057-2.83-4.506-1.934-2.325-5.231-2.342 0.597-2.583-0.905-3.49-1.745-0.324 0.837-0.906 1.419-1.743 1.745v-2.907c-1.365 0.185-2.184 0.918-4.069 0.582 0.043-1.013-0.13-1.81-0.582-2.327-1.644 0.482-1.507-0.819-2.907-0.58-5.933 1.673-10.807 1.469-15.699 4.651-2.273 3.732-4.547 7.466-7.556 10.463 0.234 2.285 2.555 2.484 2.905 4.653 10.564-2.27 24.361-2.67 31.976 1.77zm192.44-16.86c8.831 2.515 17.988 5.069 22.093 12.209 1.325 2.309 0.81 4.847 2.905 6.977 3.111-5.448 10.3-9.815 7.559-19.186-10.63 1.63-24.15-5.98-32.56 0zm-232.56 9.89c5.477 0.049 5.988-4.866 8.138-8.141-4.104 0.421-6.922-0.44-9.302-1.743 0.076 4.4 0.918 6.92 1.164 9.88zm231.98-8.14c-5.566-0.256-12.167 6.373-16.86 8.141-0.847 0.316-2.027-0.232-2.907 0-3.464 0.91-10.014 5.781-11.628 7.558-0.704 0.776-1.93 2.641-2.907 4.069-3.842 5.621-6.817 14.023-7.559 20.93-2.623 1.523-3.78 6.521-4.65 10.465-0.584 2.65-3.092 6.927 0.582 7.559 6.654-24.998 22.152-44.042 51.744-44.186 2.569 5.374 8.058 7.832 15.114 8.72 0.464-1.668 1.179-3.085 1.746-4.651-3.052-1.528-3.974-4.036-6.979-2.905 1.741-2.718-0.511-1.355-1.743-2.325 0.426-2.29 3.182-2.247 4.071-4.071-1.269-1.251-2.697-2.342-4.651-2.907-0.686 2.415-3.61 2.595-4.653 4.653-2.718-3.932 3.397-3.407 3.489-6.397-4.32 0.36-7.58-4.44-12.2-4.65zm-126.16 10.46c-0.026-3.268 0.322-6.913-1.162-8.723 0.78 4.18-0.82 5.48 1.16 8.72zm0.58 8.72c-0.3-3.09 1.32-4.698-1.164-5.812 0.78 2.81-0.66 4.24 1.16 5.81zm88.37 59.3c-4.036-27.917-49.02-32.216-79.068-31.395-1.734 0.01-1.978 1.512-3.489 1.743-3.626 0.175-8.469-0.08-12.789 1.162-1.104 0.319-2.261 1.873-3.489 2.325-1.708 0.634-3.73 0.632-5.233 1.164-8.627 3.063-12.462 5.505-16.86 12.209-6.671 10.175-8.104 25.768 6.977 29.069 0.618-3.844 2.235-7.681 4.071-9.884 0.636-0.764 1.202-1.722 1.744-2.325 9.417-10.461 32.561-14.185 52.324-12.209 6.413 0.641 17.234 2.112 21.511 4.068 0.954 0.438 1.475 0.308 2.328 0.582 6.326 2.03 9.51 4.098 13.953 6.977 3.243 2.104 6.146 3.865 7.559 6.396 0.972 0.963 0.461 3.412 0.579 5.23 6.68-2.03 11.04-7.17 9.89-15.11z"></path> <metadata></metadata></svg> 