<?xml version="1.0" encoding="UTF-8" standalone="no"?> <!-- Created with Inkscape (http://www.inkscape.org/) --> <svg xmlns:inkscape="http://www.inkscape.org/namespaces/inkscape" xmlns:rdf="http://www.w3.org/1999/02/22-rdf-syntax-ns#" xmlns="http://www.w3.org/2000/svg" xmlns:cc="http://web.resource.org/cc/" xmlns:dc="http://purl.org/dc/elements/1.1/" xmlns:sodipodi="http://sodipodi.sourceforge.net/DTD/sodipodi-0.dtd" xmlns:svg="http://www.w3.org/2000/svg" xmlns:ns1="http://sozi.baierouge.fr" xmlns:xlink="http://www.w3.org/1999/xlink" id="svg2" sodipodi:docname="eduardo_10_years_jubilee.svg" viewBox="0 0 704.29 530.39" sodipodi:version="0.32" inkscape:output_extension="org.inkscape.output.svg.inkscape" inkscape:version="0.45.1" sodipodi:docbase="/home/eduardo/Escritorio"><g id="layer1" inkscape:label="Capa 1" inkscape:groupmode="layer" transform="translate(-16.603 -141.9)"><g id="g2249"><path id="path5202" style="fill-rule:evenodd;stroke:#000000;stroke-width:.74426px;fill:#000000" d="m133.17 548.56s-7.68-8.65-18.1-11.89c-10.41-3.24-11.4 2.02-23.439 0.12-11.576-1.83-13.244-4.49-24.033-13.57-10.58-8.91-12.75-13.28-21.933-20.41s-7.16-6.17-14.332-9.28c-7.173-3.1-14.357-3.14-14.357-3.14s13.864-0.16 28.367 1.09 16.418 0.2 29.645 3.92c13.226 3.73 13.506 3.02 23.26 10.98 9.752 7.95 14.522 19.42 18.692 25.58 4.16 6.16 13.58 11.16 12.92 10.57 3.51 7.8 3.31 6.03 3.31 6.03z" inkscape:transform-center-x="14.185573" inkscape:transform-center-y="-8.5214489" sodipodi:nodetypes="cssssscsssccc"></path><path id="path2231" sodipodi:nodetypes="csccsscc" style="fill:#000000" d="m252.8 193.57c-89.67 41.3-152.45 128.67-152.45 233.79 0 110.4 68.76 204.85 165.72 242.94v-6.54c-93.54-37.74-159.58-129.37-159.58-236.4 0-70.35 28.52-134.04 74.64-180.16 21.24-21.24 46.63-39.25 74.27-51.96-0.97-1.77-1.82 0.19-2.6-1.67z"></path><path id="path3205" sodipodi:nodetypes="cssssscsssccc" style="fill-rule:evenodd;stroke:#000000;stroke-width:.92580px;fill:#000000" d="m201.26 631.05s-5.95-12.24-3.96-25.13c1.98-12.9 8.75-11.7 13.22-25.79 4.3-13.56 2.08-16.56-2.64-32.4-4.63-15.54-8.6-19.84-11.91-33.07-3.3-13.22-3.3-10.58-2.97-19.84 0.33-9.25 4.3-17.19 4.3-17.19s-7.94 15.21-14.55 31.74-8.93 18.19-11.91 34.39c-2.97 16.2-3.96 16.2 0 30.42 3.97 14.22 14.88 24.47 19.84 31.74s5.62 19.84 5.29 18.85c7.28 7.27 5.29 6.28 5.29 6.28z"></path><path id="path5188" sodipodi:nodetypes="cssssscsssccc" inkscape:transform-center-y="-16.162441" style="fill-rule:evenodd;stroke:#000000;stroke-width:.78230px;fill:#000000" d="m134.86 546.25s-1.07-11.53 4.28-21.31c5.35-9.77 10.31-6.86 17.96-16.89 7.36-9.64 6.5-12.69 7.46-26.76 0.94-13.8-0.91-18.39 0.39-29.96 1.3-11.56 0.52-9.44 3.5-16.77 2.99-7.33 8.43-12.56 8.43-12.56s-10.7 9.92-20.75 21.29c-10.05 11.36-12.35 12.02-19.45 24.17-7.1 12.14-7.88 11.86-8.95 24.41s4.47 23.91 6.22 31.17c1.75 7.27-1.42 17.54-1.39 16.65 3.56 7.93 2.3 6.56 2.3 6.56z"></path><path id="path5190" style="fill-rule:evenodd;stroke:#000000;stroke-width:.68404px;fill:#000000" d="m104.72 434.63s3.12-9.26 10.93-14.77c7.82-5.51 10.91-1.42 20.71-6.27 9.43-4.66 9.78-7.32 15.45-17.77 5.57-10.25 5.63-14.47 10.72-22.86 5.08-8.4 3.7-7.06 8.71-11.58s11.33-6.5 11.33-6.5-12.29 3.63-24.54 8.6c-12.25 4.98-14.38 4.63-24.47 11.3-10.08 6.68-10.63 6.17-15.86 15.41-5.24 9.24-4.6 20.04-5.68 26.27-1.07 6.24-7.26 12.94-6.92 12.27 0.19 7.42-0.38 5.9-0.38 5.9z" inkscape:transform-center-x="-8.8679752" inkscape:transform-center-y="-10.917414" sodipodi:nodetypes="cssssscsssccc"></path><path id="path5192" style="fill-rule:evenodd;stroke:#000000;stroke-width:.62642px;fill:#000000" d="m121.9 336.63s7.14-10.4 15.43-13.34 10.03 1.39 19.92-0.48c9.51-1.8 10.47-4.05 18.07-11.85 7.46-7.65 8.55-11.33 15.13-17.47 6.57-6.14 5.02-5.29 10.57-8.05 5.56-2.75 11.65-2.95 11.65-2.95s-11.8 0.2-23.89 1.59c-12.1 1.4-13.9 0.57-24.49 3.99-10.59 3.41-10.95 2.83-17.87 9.67s-9 16.48-11.48 21.69-9.62 9.59-9.16 9.08c-1.64 6.56-3.88 8.12-3.88 8.12z" inkscape:transform-center-x="-10.567078" inkscape:transform-center-y="-7.4156873" sodipodi:nodetypes="cssssscsssccc"></path><path id="path5194" style="fill-rule:evenodd;stroke:#000000;stroke-width:.55215px;fill:#000000" d="m165.27 261.79s6.94-4.36 15.73-4.71 9.22 3.26 19.24 4.07c9.64 0.77 11.2-0.69 20.73-4.81 9.33-4.03 11.43-6.53 19.49-9.64 8.06-3.1 6.33-2.82 12.45-3.64 6.11-0.81 12.02 0.39 12.02 0.39s-11.37-2.47-23.37-4.12c-12-1.64-13.5-2.66-24.63-2.47s-11.31-0.32-19.9 3.23c-8.59 3.56-13.34 10.26-17.21 13.59-3.87 3.32-11.97 5-11.38 4.72-3.46 4.52-3.17 3.39-3.17 3.39z" inkscape:transform-center-x="-12.27378" inkscape:transform-center-y="-6.7302517" sodipodi:nodetypes="cssssscsssccc"></path><path id="path5196" style="fill-rule:evenodd;stroke:#000000;stroke-width:.55215px;fill:#000000" d="m224.01 211.96s7.61-3.02 16.32-1.76 8.47 4.89 18.18 7.51c9.33 2.52 11.14 1.37 21.25-0.94 9.91-2.26 12.44-4.33 20.93-5.91 8.49-1.59 6.74-1.63 12.9-1.31s11.74 2.57 11.74 2.57-10.72-4.5-22.22-8.31-12.78-5.08-23.76-6.93c-10.98-1.84-11.06-2.38-20.16-0.45-9.09 1.92-14.99 7.65-19.4 10.21s-12.69 2.73-12.06 2.57c-4.22 3.81-3.72 2.75-3.72 2.75z" inkscape:transform-center-x="-12.650615" inkscape:transform-center-y="-6.1894491" sodipodi:nodetypes="cssssscsssccc"></path><path id="path5198" sodipodi:nodetypes="cssssscsssccc" style="fill-rule:evenodd;stroke:#000000;stroke-width:.92255px;fill:#000000" d="m190.32 622.93s-11.88-6.59-24.87-5.36c-12.98 1.23-12.17 8.01-26.5 11.64-13.77 3.49-16.64 1.11-32.2-4.47-15.248-5.48-19.315-9.66-32.332-13.69-13.016-4.03-10.376-3.88-19.637-4.08-9.262-0.2-17.409 3.28-17.409 3.28s15.634-7 32.514-12.61c16.88-5.62 18.661-7.82 35.004-9.84 16.34-2.03 16.4-3.01 30.37 1.73 13.97 4.75 23.59 16.15 30.57 21.48s19.48 6.7 18.51 6.32c6.85 7.63 5.98 5.6 5.98 5.6z"></path><path id="path5204" style="fill-rule:evenodd;stroke:#000000;stroke-width:.59260px;fill:#000000" d="m104.77 447.07s-3.54-8.87-10.08-13.56-8.301-0.34-16.233-4.17c-7.629-3.69-8.236-6.29-13.836-16.09-5.491-9.61-6.094-13.78-10.983-21.61-4.889-7.82-3.686-6.63-8.009-10.61-4.323-3.99-9.283-5.32-9.283-5.32s9.62 2.38 19.39 6.1c9.771 3.72 11.311 3.16 19.692 8.78 8.382 5.63 8.719 5.07 13.834 13.71s6.06 19.41 7.68 25.48c1.619 6.07 7.108 12.11 6.768 11.47 0.83 7.38 1.06 5.82 1.06 5.82z" inkscape:transform-center-x="8.0444123" inkscape:transform-center-y="-9.9397831" sodipodi:nodetypes="cssssscsssccc"></path><path id="path5206" style="fill-rule:evenodd;stroke:#000000;stroke-width:.56443px;fill:#000000" d="m115.23 341.95s-1.18-8.34-6.42-13.49c-5.23-5.15-8.1-1.61-14.934-6.22-6.571-4.44-6.494-6.83-9.475-16.31-2.923-9.31-2.435-13.06-5.228-20.7-2.794-7.64-1.916-6.41-5.147-10.59s-7.778-6.14-7.778-6.14 8.874 3.61 17.548 8.42c8.675 4.81 10.34 4.57 17.154 10.83 6.81 6.26 7.29 5.82 10.09 14.21 2.8 8.4 0.94 18 0.96 23.58 0.02 5.59 5.97 13.62 5.8 13.01-1.09 6.61-2.57 3.4-2.57 3.4z" inkscape:transform-center-x="5.0823181" inkscape:transform-center-y="-10.001867" sodipodi:nodetypes="cssssscsssccc"></path><path id="path5210" style="fill-rule:evenodd;stroke:#000000;stroke-width:.52220px;fill:#000000" d="m149.28 279.41s3.77-9.39 2.84-17.21-4.56-7.61-6.8-16.32c-2.16-8.38-0.94-10 1.73-19.07 2.63-8.9 4.79-11.16 6.69-18.77 1.9-7.62 1.87-6.05 1.79-11.58-0.09-5.53-2.13-10.54-2.13-10.54s4.09 9.63 7.45 19.96c3.37 10.32 4.59 11.48 6.01 21.33 1.43 9.86 1.96 9.93-0.3 18.09s-8.19 13.44-10.91 17.39c-2.72 3.96-3.2 11.38-3.01 10.82-3.96 3.78-3.36 5.9-3.36 5.9z" inkscape:transform-center-x="-6.3466375" inkscape:transform-center-y="-11.350647" sodipodi:nodetypes="cssssscsssccc"></path><path id="path5212" style="fill-rule:evenodd;stroke:#000000;stroke-width:.51839px;fill:#000000" d="m251.81 194.28s7.7-3.37 13.49-8.57c5.79-5.19 3.91-6.08 9.71-12.89 5.58-6.55 7.54-6.43 16.29-9.29 8.58-2.8 11.57-2.25 18.73-4.94 7.16-2.7 5.88-1.83 10.29-5.02s7.34-7.74 7.34-7.74-5.55 8.88-12.04 17.55c-6.49 8.66-6.76 10.34-13.92 17.11-7.16 6.76-6.93 7.25-14.73 9.94-7.79 2.7-15.25 1-19.91 0.93-4.65-0.06-13.36 5.12-13.38 3.89-1.21-0.59-1.87-0.97-1.87-0.97z" inkscape:transform-center-x="-9.8712613" inkscape:transform-center-y="-4.9193104" sodipodi:nodetypes="cssssscsssccc"></path><path id="path6198" style="fill-rule:evenodd;stroke:#000000;stroke-width:.51839px;fill:#000000" d="m202.16 225.41s6.76-7.13 8.88-14.61-1.26-8.84 0.01-17.69c1.22-8.52 2.93-9.47 8.81-16.56 5.76-6.95 8.58-8.08 13.2-14.19 4.61-6.1 3.99-4.68 6.01-9.73 2.03-5.06 2.07-10.47 2.07-10.47s0.06 10.47-0.8 21.27c-0.86 10.79-0.19 12.36-2.63 21.9s-1.99 9.84-7.14 16.27c-5.15 6.44-12.54 8.71-16.51 11.15-3.98 2.43-7.23 8.95-6.84 8.52-5.03 1.75-5.06 4.14-5.06 4.14z" inkscape:transform-center-x="-5.5278508" inkscape:transform-center-y="-9.7048115" sodipodi:nodetypes="cssssscsssccc"></path><path id="path6329" style="fill-rule:evenodd;stroke:#000000;stroke-width:.75620px;fill:#000000" d="m600.56 550.56s7.93-8.65 18.69-11.89c10.75-3.24 11.77 2.02 24.2 0.12 11.95-1.83 13.67-4.5 24.81-13.58 10.92-8.9 13.16-13.28 22.64-20.4 9.48-7.13 7.39-6.17 14.8-9.28 7.4-3.1 14.82-3.14 14.82-3.14s-14.31-0.16-29.28 1.09c-14.98 1.25-16.95 0.2-30.61 3.92-13.65 3.73-13.94 3.02-24.01 10.97-10.07 7.96-14.99 19.43-19.29 25.59-4.3 6.15-14.03 11.16-13.34 10.56-3.63 7.81-3.43 6.04-3.43 6.04z" inkscape:transform-center-x="14.185573" inkscape:transform-center-y="-8.5214489" sodipodi:nodetypes="cssssscsssccc"></path><path id="path6333" sodipodi:nodetypes="csccsscc" style="fill:#000000" d="m477.07 195.57c92.57 41.3 157.38 128.67 157.38 233.79 0 110.39-70.98 204.85-171.08 242.93v-6.54c96.56-37.73 164.75-129.36 164.75-236.39 0-70.35-29.45-134.04-77.06-180.16-21.94-21.24-48.14-39.25-76.68-51.96 1-1.77 1.88 0.19 2.69-1.67z"></path><path id="path6335" sodipodi:nodetypes="cssssscsssccc" style="fill-rule:evenodd;stroke:#000000;stroke-width:.94065px;fill:#000000" d="m530.27 633.05s6.15-12.24 4.1-25.13c-2.05-12.9-9.04-11.7-13.66-25.79-4.43-13.56-2.14-16.56 2.73-32.41 4.78-15.54 8.88-19.83 12.29-33.06 3.42-13.23 3.42-10.58 3.07-19.84-0.34-9.26-4.43-17.19-4.43-17.19s8.19 15.21 15.02 31.74c6.82 16.53 9.21 18.18 12.28 34.39 3.08 16.2 4.1 16.2 0 30.42-4.09 14.21-15.36 24.46-20.48 31.74-5.12 7.27-5.8 19.84-5.46 18.84-7.51 7.28-5.46 6.29-5.46 6.29z"></path><path id="path6337" sodipodi:nodetypes="cssssscsssccc" inkscape:transform-center-y="-16.162441" style="fill-rule:evenodd;stroke:#000000;stroke-width:.79485px;fill:#000000" d="m598.82 548.25s1.11-11.53-4.42-21.31c-5.52-9.77-10.64-6.86-18.54-16.89-7.6-9.64-6.71-12.69-7.7-26.76-0.97-13.8 0.94-18.39-0.4-29.96-1.34-11.56-0.54-9.44-3.62-16.77-3.08-7.34-8.7-12.56-8.7-12.56s11.05 9.92 21.42 21.28c10.38 11.37 12.75 12.03 20.08 24.17 7.33 12.15 8.14 11.86 9.24 24.41 1.11 12.55-4.61 23.92-6.42 31.18s1.47 17.54 1.44 16.65c-3.68 7.92-2.38 6.56-2.38 6.56z"></path><path id="path6339" style="fill-rule:evenodd;stroke:#000000;stroke-width:.69502px;fill:#000000" d="m629.94 436.62s-3.22-9.25-11.29-14.76-11.26-1.43-21.38-6.27c-9.73-4.66-10.09-7.32-15.95-17.77-5.74-10.25-5.81-14.47-11.06-22.87-5.25-8.39-3.82-7.05-9-11.57-5.17-4.52-11.69-6.5-11.69-6.5s12.68 3.62 25.33 8.6 14.85 4.62 25.26 11.3 10.97 6.17 16.38 15.41 4.75 20.04 5.86 26.27 7.5 12.94 7.15 12.26c-0.2 7.43 0.39 5.9 0.39 5.9z" inkscape:transform-center-x="-8.8679752" inkscape:transform-center-y="-10.917414" sodipodi:nodetypes="cssssscsssccc"></path><path id="path6341" style="fill-rule:evenodd;stroke:#000000;stroke-width:.63647px;fill:#000000" d="m612.2 338.63s-7.37-10.4-15.93-13.34c-8.55-2.95-10.35 1.39-20.56-0.48-9.82-1.8-10.81-4.05-18.66-11.85-7.7-7.65-8.82-11.33-15.61-17.47s-5.18-5.3-10.92-8.05-12.03-2.96-12.03-2.96 12.18 0.21 24.67 1.6c12.49 1.4 14.35 0.57 25.28 3.99 10.94 3.41 11.31 2.83 18.45 9.67s9.29 16.47 11.85 21.68 9.93 9.6 9.45 9.09c1.7 6.56 4.01 8.12 4.01 8.12z" inkscape:transform-center-x="-10.567078" inkscape:transform-center-y="-7.4156873" sodipodi:nodetypes="cssssscsssccc"></path><path id="path6343" style="fill-rule:evenodd;stroke:#000000;stroke-width:.56101px;fill:#000000" d="m567.43 263.79s-7.17-4.36-16.24-4.71c-9.08-0.35-9.52 3.26-19.86 4.06-9.95 0.78-11.57-0.69-21.4-4.8-9.64-4.03-11.81-6.53-20.13-9.64s-6.53-2.83-12.84-3.64c-6.32-0.81-12.41 0.39-12.41 0.39s11.74-2.47 24.13-4.12c12.38-1.64 13.93-2.66 25.42-2.47s11.67-0.32 20.54 3.23 13.78 10.26 17.77 13.58c4 3.33 12.36 5.01 11.75 4.73 3.57 4.52 3.27 3.39 3.27 3.39z" inkscape:transform-center-x="-12.27378" inkscape:transform-center-y="-6.7302517" sodipodi:nodetypes="cssssscsssccc"></path><path id="path6345" style="fill-rule:evenodd;stroke:#000000;stroke-width:.56101px;fill:#000000" d="m506.79 213.96s-7.86-3.02-16.85-1.76-8.74 4.89-18.76 7.51c-9.64 2.52-11.5 1.37-21.94-0.94-10.24-2.26-12.84-4.33-21.61-5.92-8.77-1.58-6.96-1.62-13.32-1.3-6.36 0.31-12.12 2.57-12.12 2.57s11.07-4.5 22.94-8.31 13.2-5.08 24.53-6.93c11.34-1.84 11.42-2.38 20.81-0.45 9.39 1.92 15.48 7.65 20.03 10.21 4.56 2.56 13.09 2.73 12.44 2.57 4.36 3.8 3.85 2.75 3.85 2.75z" inkscape:transform-center-x="-12.650615" inkscape:transform-center-y="-6.1894491" sodipodi:nodetypes="cssssscsssccc"></path><path id="path6347" sodipodi:nodetypes="cssssscsssccc" style="fill-rule:evenodd;stroke:#000000;stroke-width:.93735px;fill:#000000" d="m541.57 624.93s12.26-6.6 25.67-5.37c13.41 1.24 12.57 8.02 27.36 11.64 14.22 3.49 17.18 1.12 33.24-4.47 15.74-5.47 19.94-9.65 33.38-13.68 13.44-4.04 10.71-3.88 20.27-4.08s17.97 3.28 17.97 3.28-16.14-7-33.56-12.62c-17.43-5.61-19.27-7.81-36.14-9.84-16.87-2.02-16.93-3-31.35 1.74s-24.35 16.15-31.56 21.48c-7.2 5.33-20.11 6.7-19.11 6.32-7.07 7.62-6.17 5.6-6.17 5.6z"></path><path id="path6349" style="fill-rule:evenodd;stroke:#000000;stroke-width:.60211px;fill:#000000" d="m629.89 449.06s3.65-8.86 10.4-13.56c6.75-4.69 8.57-0.33 16.76-4.16 7.88-3.69 8.5-6.29 14.28-16.09 5.67-9.61 6.29-13.79 11.34-21.61s3.81-6.63 8.27-10.61c4.46-3.99 9.58-5.33 9.58-5.33s-9.93 2.38-20.01 6.11c-10.09 3.72-11.68 3.16-20.33 8.78-8.66 5.62-9 5.06-14.28 13.71-5.28 8.64-6.26 19.41-7.93 25.48s-7.34 12.1-6.99 11.47c-0.86 7.38-1.09 5.81-1.09 5.81z" inkscape:transform-center-x="8.0444123" inkscape:transform-center-y="-9.9397831" sodipodi:nodetypes="cssssscsssccc"></path><path id="path6351" style="fill-rule:evenodd;stroke:#000000;stroke-width:.57348px;fill:#000000" d="m619.08 343.95s1.23-8.34 6.63-13.49c5.41-5.16 8.37-1.61 15.42-6.23 6.79-4.44 6.71-6.82 9.78-16.31 3.02-9.3 2.52-13.06 5.4-20.7 2.89-7.63 1.98-6.4 5.31-10.58 3.34-4.18 8.03-6.14 8.03-6.14s-9.16 3.61-18.11 8.42c-8.96 4.81-10.68 4.56-17.71 10.82s-7.52 5.83-10.42 14.22c-2.89 8.39-0.97 17.99-0.99 23.58s-6.16 13.62-5.99 13.01c1.13 6.6 2.65 3.4 2.65 3.4z" inkscape:transform-center-x="5.0823181" inkscape:transform-center-y="-10.001867" sodipodi:nodetypes="cssssscsssccc"></path><path id="path6353" style="fill-rule:evenodd;stroke:#000000;stroke-width:.53057px;fill:#000000" d="m583.93 281.41s-3.88-9.4-2.92-17.21c0.96-7.82 4.7-7.61 7.02-16.32 2.23-8.39 0.97-10-1.8-19.07-2.71-8.9-4.94-11.16-6.9-18.78-1.96-7.61-1.93-6.04-1.84-11.57 0.08-5.53 2.19-10.55 2.19-10.55s-4.22 9.64-7.69 19.96c-3.47 10.33-4.73 11.48-6.2 21.34-1.48 9.86-2.02 9.93 0.31 18.09s8.45 13.44 11.26 17.39c2.81 3.96 3.3 11.38 3.11 10.81 4.09 3.79 3.46 5.91 3.46 5.91z" inkscape:transform-center-x="-6.3466375" inkscape:transform-center-y="-11.350647" sodipodi:nodetypes="cssssscsssccc"></path><path id="path6355" style="fill-rule:evenodd;stroke:#000000;stroke-width:.52671px;fill:#000000" d="m478.09 196.28s-7.95-3.37-13.93-8.57c-5.97-5.19-4.03-6.08-10.02-12.89-5.76-6.55-7.78-6.44-16.82-9.29-8.86-2.8-11.95-2.25-19.34-4.95-7.39-2.69-6.07-1.83-10.62-5.02s-7.57-7.74-7.57-7.74 5.72 8.89 12.42 17.55c6.7 8.67 6.98 10.35 14.38 17.12 7.39 6.76 7.16 7.25 15.2 9.94 8.04 2.7 15.75 1 20.55 0.93 4.81-0.06 13.8 5.12 13.82 3.89 1.25-0.6 1.93-0.97 1.93-0.97z" inkscape:transform-center-x="-9.8712613" inkscape:transform-center-y="-4.9193104" sodipodi:nodetypes="cssssscsssccc"></path><path id="path6357" style="fill-rule:evenodd;stroke:#000000;stroke-width:.52671px;fill:#000000" d="m529.35 227.4s-6.98-7.12-9.17-14.6c-2.19-7.49 1.3-8.84-0.01-17.7-1.26-8.52-3.03-9.47-9.1-16.55-5.94-6.96-8.86-8.09-13.62-14.19-4.77-6.1-4.12-4.69-6.21-9.74s-2.14-10.46-2.14-10.46-0.06 10.47 0.83 21.26c0.89 10.8 0.19 12.36 2.72 21.91 2.52 9.54 2.05 9.83 7.37 16.27 5.31 6.44 12.94 8.71 17.04 11.14s7.46 8.96 7.06 8.53c5.2 1.75 5.23 4.13 5.23 4.13z" inkscape:transform-center-x="-5.5278508" inkscape:transform-center-y="-9.7048115" sodipodi:nodetypes="cssssscsssccc"></path></g></g><metadata></metadata></svg> 