<?xml version="1.0" encoding="UTF-8" standalone="no"?> <!-- Generator: Adobe Illustrator 13.0.2, SVG Export Plug-In . SVG Version: 6.00 Build 14948) --> <svg xmlns:rdf="http://www.w3.org/1999/02/22-rdf-syntax-ns#" xmlns="http://www.w3.org/2000/svg" xmlns:cc="http://web.resource.org/cc/" xmlns:xlink="http://www.w3.org/1999/xlink" xmlns:dc="http://purl.org/dc/elements/1.1/" xmlns:svg="http://www.w3.org/2000/svg" xmlns:inkscape="http://www.inkscape.org/namespaces/inkscape" xmlns:sodipodi="http://sodipodi.sourceforge.net/DTD/sodipodi-0.dtd" xmlns:ns1="http://sozi.baierouge.fr" id="Layer_1" xml:space="preserve" viewBox="0 0 71.898 564.998" y="0px" x="0px"> <g stroke="#010101"> <linearGradient id="SVGID_1_" y2="214.48" gradientUnits="userSpaceOnUse" x2="48.806" gradientTransform="matrix(1 0 0 -1 0 564)" y1="214.48" x1="34.749"> <stop style="stop-color:#6C5736" offset="0"></stop> <stop style="stop-color:#735C39" offset=".1115"></stop> <stop style="stop-color:#876A42" offset=".4515"></stop> <stop style="stop-color:#927146" offset=".758"></stop> <stop style="stop-color:#957348" offset="1"></stop> </linearGradient> <path stroke-width=".545" d="m48.806 557.39c0.036 3.979-2.362 7.267-5.36 7.338-2.997 0.075-5.457-3.087-5.493-7.063l-3.203-415.95c-0.034-3.975 1.373-7.321 4.372-7.395 2.998-0.075 5.181 3.065 5.216 7.045l4.468 416.03z" fill="url(#SVGID_1_)"></path> <path stroke-width=".5" d="m0.277 1.542s10.062 74.947 10.884 80.081c0.82 5.134 5.133 17.659 5.133 17.659l1.848-1.232s-3.491-9.035-4.928-17.043c-1.438-8.008-12.115-79.67-12.115-79.67l-0.822 0.205z" fill="#F0E6DB"></path> <path stroke-width=".5" d="m71.639 0.369s-2.873 68.459-2.985 73.656-4.954 25.051-4.954 25.051l-2.438 0.206s3.894-16.776 4.928-24.846c1.026-8.008 4.607-74.159 4.607-74.159l0.842 0.092z" fill="#F0E6DB"></path> <path stroke-width=".5" d="m36.006 0.926h-1.232s2.464 37.576 3.286 57.904 0.41 39.424 0.41 39.424h2.26s0.812 6.551-1.026-39.629c-1.85-46.405-3.698-57.699-3.698-57.699z" fill="#F0E6DB"></path> <path stroke-width=".5" d="m61.237 98.05s-3.079 7.187-8.625 10.267c-3.909 2.172-8.114 2.912-10.262 3.161-0.38-0.158-0.596-0.287-0.596-0.287l-0.41-13.757h-3.311l-0.41 13.757s-0.169 0.13-0.474 0.3c-2.104-0.234-6.397-0.959-10.385-3.175-5.544-3.08-8.624-10.267-8.624-10.267l-2.464 1.026s1.848 4.928 5.955 10.678c4.106 5.75 13.757 6.365 13.757 6.365l0.016 8.257 8.362 0.044 0.221-8.301s9.65-0.616 13.758-6.365c4.106-5.749 5.955-10.677 5.955-10.677l-2.463-1.033z" fill="#D1A92B"></path> <path stroke-width=".545" d="m44.014 120.43s0.205 40.246 0 51.128 0.205 30.8-4.106 30.8c-4.312 0-4.723-34.496-4.929-42.915s0.206-38.808 0.206-38.808l8.829-0.2z" fill="#285062"></path> </g> <metadata></metadata></svg> 