<?xml version="1.0" encoding="UTF-8" standalone="no"?> <!-- Created with Inkscape (http://www.inkscape.org/) --> <svg xmlns:inkscape="http://www.inkscape.org/namespaces/inkscape" xmlns:rdf="http://www.w3.org/1999/02/22-rdf-syntax-ns#" xmlns="http://www.w3.org/2000/svg" xmlns:sodipodi="http://sodipodi.sourceforge.net/DTD/sodipodi-0.dtd" xmlns:cc="http://web.resource.org/cc/" xmlns:xlink="http://www.w3.org/1999/xlink" xmlns:dc="http://purl.org/dc/elements/1.1/" xmlns:svg="http://www.w3.org/2000/svg" xmlns:ns1="http://sozi.baierouge.fr" id="svg2233" sodipodi:docname="OwlMask.svg" inkscape:export-filename="/home/leon/tmp/_img/chouette/20071005_laMouette-Chouette.png" viewBox="0 0 239.54 356.61" sodipodi:version="0.32" inkscape:export-xdpi="82.290001" inkscape:output_extension="org.inkscape.output.svg.inkscape" inkscape:export-ydpi="82.290001" inkscape:version="0.45.1" sodipodi:docbase="/home/leon/eaglenest/gnu/img/openclipart_bb"><defs id="defs2235"><linearGradient id="linearGradient3879" y2="-9.1441" gradientUnits="userSpaceOnUse" x2="-702.84" gradientTransform="translate(485.12 157.48)" y1="-9.8426" x1="-684.94" inkscape:collect="always"><stop id="stop6962" style="stop-color:#8c6e00" offset="0"></stop><stop id="stop6968" style="stop-color:#a6924a" offset="0"></stop><stop id="stop6964" style="stop-color:#4a3c0a" offset="1"></stop></linearGradient><linearGradient id="linearGradient3881" y2="254.73" gradientUnits="userSpaceOnUse" x2="558.96" gradientTransform="matrix(.80657 -.59114 .59114 .80657 -462.1 226.96)" y1="537.73" x1="529.12" inkscape:collect="always"><stop id="stop2926" style="stop-color:#363636" offset="0"></stop><stop id="stop2928" style="stop-color:#757575;stop-opacity:0" offset="1"></stop></linearGradient></defs><g id="layer1" inkscape:label="draw" inkscape:groupmode="layer" transform="translate(-30.232 -21.696)"><g id="g3863" transform="translate(-13.357 .94582)"><rect id="rect6938" style="color:#000000;fill:url(#linearGradient3879)" inkscape:transform-center-x="-33.660851" inkscape:transform-center-y="-94.133784" rx="4.2139" transform="matrix(-.91971 -.39261 -.39261 .91971 0 0)" ry="5.1216" width="8.4278" y="110.6" x="-209.39" height="211.81"></rect><path id="path7403" style="fill-rule:evenodd;color:#000000;fill:#000000" d="m147.34 20.906s12.34 10.081 16.16 11.938c2.71 1.317 8.05 3.034 11.31 4.5-15.25-1.696-30.23-0.394-44.03 3.625-17.95 4.859-39.681 4.734-52.842 14.437-0.878 0.647-1.747 1.298-2.594 1.969 6.254-3.431 18.707 0.519 25.776-2.219-13.617 9.648-24.449 22.777-30.714 38.875-0.484 1.246-0.884 2.46-1.281 3.657-1.992 3.112-3.853 6.372-5.594 9.782-21.838 42.78-10.291 75.05 18.375 86.94 0.426 0.17 0.853 0.33 1.282 0.5 6.561 8.21 15.68 15.1 26.722 19.47 6.47 2.55 11.09 3.02 15.97 2.87 2.8-7.6 8.87-4.61 9.31-0.75 1.11-0.19 2.26-0.38 3.47-0.59 6.62 8.78 21.75 18.43 33.37 23.03 11.4 4.5 23.13 5.6 33.75 3.84 27 6.52 53.87-10.13 65.78-53.09 2.87-10.34 4.22-20.56 4.13-30.25 3.76-18.56-1.21-36.78-3.35-47.1 3.2 4.23 2.48 2.9 5 6.35 1.79 2.44 4.51 4.88 5.78 7.4-1.05-3.35-2.35-6.71-3.9-10.03-4.71-10.05-11.56-19.868-19.69-29.122-6.39-9.247-14.36-17.71-23.72-24.969 4.28 0.402 9.96 3.774 14.81 8.062-6.32-10.726-20.66-21.667-39.96-23.125 0.36-2.229-5.77-11.292-6.91-13.937-0.06 1.767 0.94 10.112-1.13 10.312-9.59-9.66-40.04-21.865-55.28-22.375zm-27.62 89.374c1.83-0.01 3.7 0.31 5.53 1.03 7.3 2.89 11 10.9 8.28 17.88-2.71 6.98-10.82 10.29-18.12 7.4-7.3-2.88-11.03-10.86-8.32-17.84 2.04-5.23 7.14-8.42 12.63-8.47zm84.47 32.47c1.83-0.01 3.7 0.31 5.53 1.03 7.3 2.89 11.03 10.9 8.31 17.88-2.71 6.97-10.85 10.29-18.15 7.4-7.31-2.88-11.03-10.89-8.32-17.87 2.04-5.24 7.13-8.4 12.63-8.44z"></path><path id="path7266" style="color:#000000;stroke:#7a4e40;stroke-linecap:round;stroke-width:5.9383;fill:none" d="m137.89 55.445c-28.86-11.407-61.731 8.983-79.972 44.715-21.838 42.78-10.277 75.04 18.389 86.93 0.425 0.18 0.852 0.34 1.281 0.51 6.56 8.2 15.692 15.11 26.722 19.47 11.62 4.6 17.95 3.46 28.73 1.54 6.62 8.79 21.78 18.43 33.4 23.02 11.37 4.5 23.07 5.6 33.67 3.86 27.02 6.55 53.93-10.1 65.85-53.09 10.73-38.71 0.35-76.19-28.5-87.596-28.86-11.407-54.03 4.094-69.39 41.096-0.57 1.38-1.12 2.73-1.64 4.08-0.06 0.01-0.11 0.03-0.16 0.04-1.64-2.18-3.49-4.27-5.47-6.26 0.08-0.21 0.17-0.42 0.25-0.63 13.69-37.666 5.69-66.278-23.16-77.685z"></path><path id="path7098" style="fill-rule:evenodd;color:#000000;fill:#bdb281" d="m109.59 114.72c-18.501 1.49-34.429 11.5-40.715 27.66-9.439 24.25 6.44 53.22 35.435 64.68 11.63 4.6 17.93 3.48 28.72 1.56 6.62 8.79 21.79 18.41 33.41 23 29 11.47 60.18 1.1 69.62-23.15 7.23-18.58-0.41-39.94-17.4-54.06 0.45 2.37 0.3 4.87-0.63 7.25-2.71 6.97-10.85 10.29-18.15 7.4-7.31-2.88-11.03-10.89-8.32-17.87 1.48-3.81 4.59-6.51 8.28-7.72-11.37-4.34-23.05-5.34-33.59-3.47-6.62-8.79-16.13-16.22-27.75-20.81-2.08-0.83-4.19-1.5-6.28-2.1 2.26 3.57 2.91 8 1.31 12.1-2.71 6.98-10.82 10.29-18.12 7.4-7.3-2.88-11.03-10.86-8.32-17.84 0.6-1.53 1.46-2.88 2.5-4.03z"></path><path id="path6915" style="fill-rule:evenodd;color:#000000;fill:#7a4e40" d="m146.97 20.75s9.34 3.174 13.15 5.031c2.71 1.318 5.8 2.753 9.07 4.219-15.25-1.696-30.24-0.363-44.03 3.656-19.15 5.183-36.636 12.796-50.191 23.532 6.254-3.431 13.457-6.606 20.531-9.344-13.622 9.647-24.422 22.807-30.688 38.906-19.093 49.06 30.586 59.5 86.098 81.44 55.5 21.94 95.93 47.12 115.03-1.94 8.85-22.75 7.34-47.3-2.35-69.281 4.86 6.421 10.22 14.441 13.94 21.811-4.23-13.53-12.82-26.816-23.62-39.124-6.39-9.246-14.37-17.709-23.72-24.968 4.28 0.401 9.95 3.743 14.81 8.031-9.49-10.761-26.07-20.059-39.97-23.125 0.36-2.23-0.54-5.042-1.69-7.688-0.06 1.767-2.05 4.331-4.12 4.532-9.6-9.661-37.01-15.178-52.25-15.688zm-27.25 89.53c1.83-0.01 3.7 0.31 5.53 1.03 7.3 2.89 11 10.9 8.28 17.88-2.71 6.98-10.82 10.29-18.12 7.4-7.3-2.88-11.03-10.86-8.32-17.84 2.04-5.23 7.14-8.42 12.63-8.47zm84.47 32.47c1.83-0.01 3.7 0.31 5.53 1.03 7.3 2.89 11.03 10.9 8.31 17.88-2.71 6.97-10.85 10.29-18.15 7.4-7.31-2.88-11.03-10.89-8.32-17.87 2.04-5.24 7.13-8.4 12.63-8.44z"></path><path id="path7104" style="fill-rule:evenodd;color:#000000;fill:#f1efe5" d="m121.34 52.281c-24.138-0.052-48.613 18.844-63.434 47.879-21.838 42.77-10.259 75.05 18.406 86.93 28.168 11.69 63.808 3.62 84.748-53.97 13.7-37.659 5.7-66.275-23.15-77.682-5.41-2.139-11-3.145-16.57-3.157zm-1.62 57.999c1.83-0.01 3.7 0.31 5.53 1.03 7.3 2.89 11 10.9 8.28 17.88-2.71 6.98-10.82 10.29-18.12 7.4-7.3-2.88-11.03-10.86-8.32-17.84 2.04-5.23 7.14-8.42 12.63-8.47z"></path><path id="path7107" style="fill-rule:evenodd;color:#000000;fill:#f1efe5" d="m219.09 91.125c-21.05 0.082-39.03 15.875-51.03 44.785-23.48 56.57-2.79 86.93 25.75 97.65 29.04 10.93 59.29-4.82 72.13-51.15 10.72-38.7 0.36-76.19-28.5-87.598-6.32-2.495-12.45-3.71-18.35-3.687zm-14.9 51.625c1.83-0.01 3.7 0.31 5.53 1.03 7.3 2.89 11.03 10.9 8.31 17.88-2.71 6.97-10.85 10.29-18.15 7.4-7.31-2.88-11.03-10.89-8.32-17.87 2.04-5.24 7.13-8.4 12.63-8.44z"></path><path id="rect6929" sodipodi:nodetypes="cssc" style="fill-rule:evenodd;color:#000000;fill:#ffb20a" d="m136.13 201.45c-10.99-17.47-5.09-35.25 2.69-45.58 4.3-5.7 28.12 1.52 27.21 10.76-1.44 14.71-6.24 29.64-29.9 34.82z"></path><path id="path7118" sodipodi:nodetypes="cscccssscsscss" style="fill-rule:evenodd;color:#000000;fill:#7a4e40" d="m138.03 154.31c-5.18 4.87-7.71 14.25-8.66 22.19s-2.45 23.26 3.18 32.22l0.44 0.72 0.82-0.19c12.05-2.64 21.59-14.64 25.99-21.01 4.41-6.37 7.95-16.1 6.68-23.44-1.55-8.97-21.86-16.69-28.45-10.49zm1.49 3.02c6.58-5.05 22.8 1.44 24.21 9.57 1.24 7.17-1.89 14.39-5.83 20.07-4.02 5.82-10.21 10.54-21.22 13.14-4.92-8.22-5.93-15.93-5.05-23.26 0.86-7.19 2.46-15.36 7.89-19.52z"></path><path id="path7129" style="fill-rule:evenodd;color:#000000;stroke:#c7740d;stroke-linecap:round;stroke-width:2.9691;fill:#f76b00" d="m123.09 82.5c-14.47 0.172-22.51 17.141-27.496 31.44-5.912 16.94 2.259 26.75 14.816 31.72 12.55 4.96 24.74 3.19 30.65-13.75 5.91-16.95 8.35-40.673-9.25-47.629-3.14-1.242-6.04-1.813-8.72-1.781zm-3.47 25.75c2.11-0.02 4.25 0.36 6.35 1.19 8.38 3.31 12.65 12.52 9.53 20.53s-12.43 11.81-20.81 8.5-12.68-12.49-9.57-20.5c2.34-6.01 8.2-9.67 14.5-9.72z"></path><path id="path7126" style="fill-rule:evenodd;color:#000000;stroke:#c7740d;stroke-linecap:round;stroke-width:2.9691;fill:#f76b00" d="m210.75 117.16c-13.88 0.4-24.95 16.16-30.94 30.06-7.09 16.48 0.67 26.16 13.22 31.12 12.55 4.97 25.19 3.36 32.28-13.12 7.1-16.48 13.56-38.64-6.56-46.6-2.75-1.08-5.43-1.54-8-1.46zm-6.66 23.81c2.07-0.02 4.19 0.37 6.25 1.19 8.25 3.26 12.48 12.3 9.41 20.18s-12.26 11.61-20.5 8.35-12.47-12.31-9.41-20.19c2.3-5.91 8.05-9.48 14.25-9.53z"></path><path id="path6923" style="fill-rule:evenodd;color:#000000;stroke:#ffffff;stroke-linecap:round;stroke-width:1.9054;fill:#000000" d="m117.41 105.62c-6.93 0.06-13.31 4.06-15.88 10.66-3.422 8.8 1.27 18.9 10.47 22.53 9.2 3.64 19.42-0.55 22.84-9.34 3.43-8.8-1.26-18.9-10.46-22.53-2.31-0.91-4.67-1.33-6.97-1.32zm2.31 4.66c1.83-0.01 3.7 0.31 5.53 1.03 7.3 2.89 11 10.9 8.28 17.88-2.71 6.98-10.82 10.29-18.12 7.4-7.3-2.88-11.03-10.86-8.32-17.84 2.04-5.23 7.14-8.42 12.63-8.47z"></path><path id="path6925" style="fill-rule:evenodd;color:#000000;stroke:#ffffff;stroke-linecap:round;stroke-width:1.9054;fill:#000000" d="m201.66 138.94c-6.93 0.05-13.31 4.06-15.88 10.65-3.42 8.8 1.27 18.9 10.47 22.53 9.2 3.64 19.45-0.54 22.87-9.34 3.43-8.79-1.26-18.89-10.46-22.53-2.3-0.91-4.7-1.33-7-1.31zm2.53 3.81c1.83-0.01 3.7 0.31 5.53 1.03 7.3 2.89 11.03 10.9 8.31 17.88-2.71 6.97-10.85 10.29-18.15 7.4-7.31-2.88-11.03-10.89-8.32-17.87 2.04-5.24 7.13-8.4 12.63-8.44z"></path><path id="path7412" style="fill-rule:evenodd;color:#000000;fill:url(#linearGradient3881)" d="m146.97 20.75s9.34 3.174 13.15 5.031c2.71 1.318 5.8 2.784 9.07 4.25-15.25-1.696-30.24-0.394-44.03 3.625-17.96 4.859-34.436 11.86-47.598 21.563-0.877 0.647-1.746 1.297-2.593 1.969 6.254-3.431 13.457-6.606 20.531-9.344-13.622 9.647-24.422 22.776-30.688 38.875-0.484 1.245-0.884 2.46-1.281 3.656-1.991 3.116-3.884 6.371-5.625 9.785-21.838 42.77-10.291 75.05 18.375 86.93 0.426 0.18 0.884 0.34 1.313 0.5 6.561 8.22 15.681 15.11 26.716 19.47 11.63 4.6 17.93 3.45 28.72 1.53 6.62 8.79 21.79 18.44 33.41 23.03 11.39 4.51 23.1 5.64 33.72 3.88 27 6.52 53.87-10.13 65.78-53.09 2.86-10.34 4.22-20.6 4.12-30.29 3.76-18.55 1.28-37.65-6.44-55.151 4.86 6.421 10.19 14.441 13.91 21.811-4.23-13.53-12.82-26.848-23.62-39.155-6.39-9.246-14.37-17.678-23.72-24.937 4.28 0.401 9.95 3.743 14.81 8.031-9.49-10.761-26.07-20.059-39.97-23.125 0.36-2.23-0.54-5.073-1.69-7.719-0.06 1.767-2.05 4.331-4.12 4.531-9.6-9.66-37.01-15.146-52.25-15.656zm-27.25 89.53c1.83-0.01 3.7 0.31 5.53 1.03 7.3 2.89 11 10.9 8.28 17.88-2.71 6.98-10.82 10.29-18.12 7.4-7.3-2.88-11.03-10.86-8.32-17.84 2.04-5.23 7.14-8.42 12.63-8.47zm84.47 32.47c1.83-0.01 3.7 0.31 5.53 1.03 7.3 2.89 11.03 10.9 8.31 17.88-2.71 6.97-10.85 10.29-18.15 7.4-7.31-2.88-11.03-10.89-8.32-17.87 2.04-5.24 7.13-8.4 12.63-8.44z"></path></g></g><metadata></metadata></svg> 