<?xml version="1.0" encoding="UTF-8" standalone="no"?> <!-- Created with Inkscape (http://www.inkscape.org/) --> <svg xmlns:rdf="http://www.w3.org/1999/02/22-rdf-syntax-ns#" xmlns="http://www.w3.org/2000/svg" xmlns:i="http://ns.adobe.com/AdobeIllustrator/10.0/" xmlns:cc="http://web.resource.org/cc/" xmlns:xlink="http://www.w3.org/1999/xlink" xmlns:dc="http://purl.org/dc/elements/1.1/" xmlns:svg="http://www.w3.org/2000/svg" xmlns:inkscape="http://www.inkscape.org/namespaces/inkscape" xmlns:sodipodi="http://sodipodi.sourceforge.net/DTD/sodipodi-0.dtd" xmlns:ns1="http://sozi.baierouge.fr" id="svg2" xml:space="preserve" viewBox="0 0 175.92 279.6" inkscape:version="0.91 r13725"> <g id="switch6"> <g id="g10"> <g id="Layer_1"> <g id="g13"> <g id="g15"> <path id="path17" style="fill:#ffffff" d="m50.64 38.4c6.114-1.18 11.419 9.199 3.119 6.482-3.055-2.972-4.526 1.301-3.119-6.482z"></path> <path id="path19" style="fill:#ffffff" d="m35.28 41.281c7.986-5.704 6.307 13.433 0.902 5.176-0.436-1.702-0.464-3.475-0.902-5.176z"></path> <path id="path21" style="fill:#ffffff" d="m105.6 50.16c-3.09 2.494-5.918-8.481 0.31-4.743 1.77 1.365-0.36 3.158-0.31 4.743z"></path> <path id="path23" style="fill:#dcdaa6" d="m62.88 48.72c5.362-3.431-1.528 4.395 3.014 3.415-3.405 3.849-6.732 4.732-3.014-3.415z"></path> <path id="path25" style="fill:#dcdaa6" d="m85.68 75.84c-2.344 2.036-3.851-1.668-0.075-1.161-0.373-4.356-2.846-1.251-0.029-6.744-3.599-2.323 0.49-5.285 1.303-0.257-1.193-3.791 2.502 4.367-1.199 8.162z"></path> <path id="path27" style="fill:#989332" d="m39.6 68.4c-6.052-9.347 12.599 13.608 4.932 7.842-1.971-2.384-3.73-4.981-4.932-7.842z"></path> <path id="path29" style="fill:#989332" d="m75.36 72c-0.051 5.763-2.001 7.286-3.484 4.233-4.732-0.418 2.435-4.249 3.484-4.233z"></path> <path id="path31" style="fill:#ffffff" d="m125.28 78.72c3.3-0.592 9.31-6.384 5.29 1.049-1.62 1.364-4.44 0.956-5.29-1.049z"></path> <path id="path33" style="fill:#b2b05a" d="m78.96 75.84c-2.342 0.863-0.059 8.473-3.249 10.456 2.168-3.003-2.116-10.951 3.249-10.456z"></path> <path id="path35" style="fill:#989332" d="m125.28 82.32c6.24 3.91-13.94 4.461-3.61 1.116 1.88 0.399 0.54 0 3.61-1.116z"></path> <path id="path37" style="fill:#dcdaa6" d="m40.32 94.32c-4.41-0.975 7.234-11.656 2.618-2.978-0.53 1.002-1.13 2.895-2.618 2.978z"></path> <path id="path39" style="fill:#989332" d="m42.48 100.56c-2.652-3.374 0.138-6.177-2.88-1.68-1.082-6.018 6.52-7.855 3.325-0.259l-0.445 1.939z"></path> <path id="path41" style="fill:#989332" d="m36.96 102.24c-1.068-2.929-0.528-8.522-1.44-1.92-3.929-6.736 6.713-7.925 1.744-0.623l-0.135 1.283-0.169 1.26z"></path> <path id="path43" style="fill:#989332" d="m69.6 105.12c-2.444-2.45 10.926-15.539 3.942-5.944-0.202 2.784-3.032 3.684-3.942 5.944z"></path> <path id="path45" style="fill:#989332" d="m95.998 98.16c2.635 1.87-1.324 3.3-3.246 6.69 5.636 0.3-4.908 2.99-5.395 5.79 1.684-4.91 6.237-8.11 8.641-12.48z"></path> <path id="path47" style="fill:#ffffff" d="m123.12 108.48c-2.45-5.61 10.62-1.76 6.7 3.5 4.64 7.59-13.26 2.26-6.7-3.5z"></path> <path id="path49" style="fill:#989332" d="m104.16 109.2c4.47-4.45 11.29 1.92 6.55 0.07 3.07-2.01-5.95 1.84-6.55-0.07z"></path> <path id="path51" style="fill:#989332" d="m45.6 116.4c-3.803-2.98-2.084-11.46-0.24-3.36 0.612-7.69 2.424-0.42 0.24 3.36z"></path> <path id="path53" style="fill:#d8d066" d="m63.84 128.64c-3.103-0.03-0.394-9.6 0.672-7.29 1.082 0.33 4.413-12.86 5.584-9.73-1.225 5.83 1.475 6.42-2.507 4.81-2.706 3.61-2.178 8.22-3.749 12.21z"></path> <path id="path55" style="fill:#dcdaa6" d="m92.158 114.48c0.049-2.34 15.602-1.32 4.703 0.93-1.579-0.26-3.087-0.85-4.703-0.93z"></path> <path id="path57" style="fill:#989332" d="m77.28 141.12c-1.171-3 8.55-14.37 7.696-11.88-0.439 3.28-6.565 5.76-7.696 11.88z"></path> <path id="path59" style="fill:#ffffff" d="m106.32 134.4c-0.72-7.44 12.49-5.29 2.86-0.81-0.85 0.43-1.84 1.15-2.86 0.81z"></path> <path id="path61" style="fill:#b2b05a" d="m126.24 129.6c5.1 2.87 7.79 0.53 8.82 4.32-2.23 0.32-7.19-1.47-8.82-4.32z"></path> <path id="path63" style="fill:#dcdaa6" d="m91.681 138.72c2.333 6.96-4.591 10.86-2.323 6.69 1.273 6.97 0.232-15.44 2.323-6.69z"></path> <path id="path65" style="fill:#dcdaa6" d="m80.4 137.52c2.996-0.19 6.18 13.04 0.989 4.27-0.614-1.24-1.573-2.8-0.989-4.27z"></path> <path id="path67" style="fill:#989332" d="m18 195.6c-3.9 6.14-6.137 19.96-8.8417 22.83 4.0897-10.13 5.9457-21.21 11.002-30.99 0.466 3-2.133 5.24-2.16 8.16z"></path> <path id="path69" style="fill:#dcdaa6" d="m24.48 211.68c-4.225-1.79 7.552-24.66 2.316-9.06-1.011 2.95-1.394 6.08-2.316 9.06z"></path> <path id="path71" style="fill:#dcdaa6" d="m49.92 197.28c-0.723 5.41-3.834 17.09-5.95 18.37 2.503-5.9 4.562-12.11 5.95-18.37z"></path> <path id="path73" style="fill:#dcdaa6" d="m0 266.64c2.7399 5.1 18.228 8.29 5.876 3.63-7.118-3.26-2.4408-17.43-2.9522-19.49 2.3468 4.53 9.9432 10.36 14.316 11.6 1.752 4.29-10.103 13.58-0.428 10.45 10.08-1.06 11.103-14.55 19.384-19.01 6.804-3.92 13.173-17.73 13.707-20.92-1.499 3.93-10.816 17.02-4.618 6.74 1.171-4.98 8.499-13.83 7.03-15.85-5.242 7.97-9.728 20.02-17.173 24.27-0.325-0.92 10.282-14.47 4.242-8.4-4.491 5.11-8.072 12.23-13.742 14.05 6.711-8.26 11.881-13.71 17.743-22.88-3.108 1.31-10.215 13.1-14.769 18.01-3.099 3.6-9.757 9.35-3.897 1.47-7.506 7.97-0.31-6.37-2.537-12.41-2.793-0.06-0.647 13.8-3.572 4.7 1.965-5.03 1.223-14.4-0.572-3.87-1.74 4.8-1.431 10.54-1.702 14.54-1.821-7.81-0.566-18.98 2.487-24.98 0.739-2.85 2.609-15.85 4.899-15.17-2.018 8.67-5.067 12.79-3.21 19.05 0.323-3.64 3.662-11.62 1.778-3.05-1.852 5.14 0.24 11.07 1.855 2.65-1.73-2.81 2.665-5 1.374 2.61 0.154 5.49-5.675 17.55 2.208 7.98 2.284-4.96 11.667-9.8 3.378-3.37-3.807 4.38 4.764-2.81-0.12 2.34 3.82-3.42 6.648-6.77 9.789-13.31 6.638-15.05 17.088-28.26 23.19-43.48 5.373-4.18 8.493-13.84 6.093-22.3 2.68-5.66-2.068-9.14-2.377-4.32-4.779-1.28-8.199 5.72-7.57 8.54-1.209-2.4-0.65 3.64-2.466 3.65 0.53 4.01-3.435 5.69-0.906 7.75-2.389 4.38-4.865 18.48-6.257 17.19 1.735-4.83 7.591-23.73 2.16-10.19-3.248 9.97-6.908 19.85-9.68 29.94 1.043-9.75-4.698 8.94-6.547 11.78-2.682 5.75-6.482 4.59-1.318-1.85 2.286-4.37 7.453-14.47 6.583-15.89-4.38 7.76-7.084 16.9-13.105 23.52-5.061-8.99 5.103-19.13 7.984-28.07 6.447-17.12 13.902-33.87 22.385-50.07-2.017-4.29 1.99-16.58 0.997-24.62-1.19-4.74 2.487-13.9 1.414-3.78-0.592 5.63 0.623 12.09 2.363 3.15 0.267-5.35 6.118-20.44 6.343-6.46-3.742 11.28 1.286-13.84-3.528-0.99 0.737 7.76-3.961 15.59-5.571 24.42-1.994-5.91-0.508 13.49 2.694 2.74 1.404-2.94 6.682-17.88 6.878-12.11-1.968 4.5-7.576 13.85-6.238 15.95 2.474-6.2-0.556 8.11 4.825 2.29 2.46-6.42 6.315-18.89 2.916-24.91-1.559 2.88-1.467-13.34 0.913-13.82-1.398 4.6 1.446 23.39 4.073 10.34 0.275-3.79 4.87-24.06 3.267-10.88 0.492 4.33-1.797 11.47-3.621 18.55 3.207 0.26 14.614-17.81 7.275-6.18-5.018 8.5-10.211 12.36-9.133 19.93 1.549 3.63-4.336 2.27 0.17 5.52-4.677-0.05 1.59 7.48-1.928 10.49-0.688 4.45 4.298 7.71 1.844 2.37 3.241 4.15 4.213-5.24 5.746-1.09 1.813-1.26-4.222 10.02 0.72 1.68 4.372 2.23-5.729 9.71-7.92 13.95-3.388 8.45-8.594 18.85-11.867 25.25-1.355 4.5-9.018 13.92-6.619 14.26 1.633-3.15 8.191-16.12 4.107-5.25-1.005 4.05 5.098-8.17 1.544-0.35-6.277 11.84-11.631 24.09-19.371 35.05-10.966 5.75-13.611 20.58-24.838 24.95-6.082-0.98-13.017-2.18-16.398-8.03m71.52-84.72c4.681-3.24 3.485-9.6 0.223-2.09-3.183 2.65-2.239 10.87-0.223 2.09z"></path> <path id="path75" style="fill:#dcdaa6" d="m61.92 211.44c4.487-8.21 9.058-24.26 13.802-27.16-5.604 7.99-8.072 15.6-11.387 23.67-0.644 1.24-1.179 2.69-2.415 3.49z"></path> <path id="path77" style="fill:#dcdaa6" d="m104.4 160.32c-0.59-2.06 0.3-2.74 3.4 0.29 0.21 1.06 5.37 1.67 4.59 3.07-0.93-4.32 7.16-5.93 6.01-9.53-1.66 3.72-4.01 4.56-1.52-0.07-2.52 3.03-5.18 8.15-3.01 1.67-6.88-0.6-4.49-6.89-0.2-5.96-7.39 1.92 0.11 8.22 2.6 2.71 8.22 0.75-3.22 11.62-6.59 11.28-1.83-2.32-4.55-0.16-5.28-3.46z"></path> <path id="path79" style="fill:#dcdaa6" d="m101.28 148.8c-2.891 3.11 19.43-2.3 5.45 1.89-3.83 2.06-10.375-3.44-5.45-1.89z"></path> <path id="path81" style="fill:#dcdaa6" d="m118.32 130.32c5.48 0.7 5.47-0.39 7.68 3.6-3.58-0.21 6.47 5 0.48 0.72 5.25-3.41 0.61 4.02 4.62 0.99-2.53 6.12 3.12 2.65 3.95 3.3 4.05-1.76 2.4-10.9-0.02-9.09-6.42-2.89-17.56-2.36-12.74-4.16-2.57 3.37 9.02-0.5 11.64 3.44 10.55-1.78 0.25 18.71-4.31 8.65-4.3-1.47-6.45-6.97-11.3-7.45z"></path> <path id="path83" style="fill:#dcdaa6" d="m124.08 124.32c8.3-8.09 16.04 6.16 23.52 1.44 5.7-1.52-9.18 0.72-5.97-2.06 3.9 1.51 2.03-0.96 4.11 0.96 2.9-5.35-12.61-1.83-14.34-5.73 2.06 2.74 16.8-0.73 18.83 7.07-7.49 4.81-14.67-5.57-23.07-3.15-1.3 0.01-1.81 1.45-3.08 1.47z"></path> <path id="path85" style="fill:#dcdaa6" d="m138 114.72c5.02-2.17 13.72 8.99 15.65 5.45-2.03-3.53-16.13-8.4-4.78-5.67 4.24 5.78 11.33 3.31 8.57 1.42 2.79 1.62 7.36-0.67 2.16-0.48 10.12-3.89-5.91-6.3-1.74-10.97-0.91-3.25-4.11 5.18-6.18-0.55 8.15-2.07 1.54-1.67-1.21-2.51-0.52 7.25-1.04-2.006-5.31 5.22-1.63 4.14-12.96 11.8-12.68 9.53 0.34-4.36 6.54-8.52 0-4.32 0.85-5.57 6.59-1.08 5.48-5.31-0.53-4.65-6.6-0.47-3.79-7.413-7.74 3.003 2.94 23.413-10.25 15.783-2.6 1.08-6.91 3.5-4.92-0.15-4.74-0.49-2.38 2.83-1.84 3.4-1.79 1.47-2.71-2.42-4.35 1.85 1.05-7.32 9.37-5.95 10.32-11.28-6.06 5.92 12.43 11.38 6.55 1.68 1.9-7.38-9.7-2.86-7.09-3.5 0.76-1.52 12.42-1.14 4.16-3.87-6.91 1.12 6.04-6.347-0.89-7.699-5.64 4.617-10.04 0.309-16.06 4.969-4.56 4.31-18.008-5.164-6.91-0.625 4.57 0.168 3.58-2.666 5.05 0.084 1.38-4.767 0.87-2.721 3.53-2.875 0.69-2.739 0.36 5.586 3.98-0.406-0.96-7.563 13.83-0.765 10.21-5.523-0.56-6.889 6.07 8.575-0.74 10.675 1.32 4.99 7.29-1.59 9.45-2.564-0.46 4.834 9.57 8.414 0.29 13.014-4.24 9.4 9.48-3.23 11.32-7.42 2.42-5.68 14.14-4.51 12.13 3.1 7.62 1.29 6.15 11.44-2.44 11.05-0.09 8.5-10.18-3.74-15.15-3.46-3.19-0.85-12.23 6.14-3.25 0.1l0.73-0.73z"></path> <path id="path87" style="fill:#dcdaa6" d="m127.92 87.6c3.33 3.043 13.68 8.918 10.19 0.516 3.76 2.845 6.95 2.605 5.65-1.717 1.54 2.591 1.88 2.703 3.18-0.899 8.18-3.925-11.53-3.881-5.45-8.362 3.55-9.094 12.36 1.903 19.17 2.119 0.42-8.063-4.33-5.222-6.03-3.284-3.89-3.571-2.41-4.67 0.8-2.226 3.17-6.269 16.4 13.791 13.78-1.349-0.47-6.183-12.07-2.714-9.74-8.428-2.38 1.422-14.39 9.1-10.35 6.204 3-2.359 16.99-13.13 14.28-2.386 10.22-1.989 7.15 19.239-0.63 8.046-6.78-6.754 2.9 9.328-6.56 2.528-5.52-3.89-14.5-7.146-15.05-0.01-1.87 2.21 14.19 3.839 5.77 8.59-2.41 8.316-10.93-2.889-8.39 6.051-4.11 0.851-7.27-3.699-10.62-5.393z"></path> <path id="path89" style="fill:#dcdaa6" d="m145.44 62.16c-3.15 1.809 4.58 5.3-4.05 4.322-5.23 0.291-12.73 7.651-3.1 5.782 9.12 3.819-2.03-0.966-5.81 0.937-1.85-9.285 17.8-4.444 11.19-10.193l1.77-0.848z"></path> <path id="path91" style="fill:#dcdaa6" d="m121.44 29.281c7.9-2.878 2.74 8.503 10.8 5.997-1.69 7.106-17.08 1.953-16.45 7.524 6.91-3.456 16.17 2.694 7.98 6.085-9.17 2.199-5.12 5.019 2.38 4.24 0.35 4.676-8.14 5.833-0.86 10.102 3.86 2.875 0.34-8.855 6.73-9.507 4.55-2.472 7.99-2.098 13.92-4.909 4 4.422-3.83 8.861 0.53 11.855-3.51 2.4-1.17-6.961 0.37-7.907 0.99-5.639-8.8-3.226-10.43 3.235-1.21 3.158 1.66-8.727-3.4-2.91-6.32 2.785-5.18 10.219-5.06 11.37-4.1 3.114-8.63 9.582-6.19 1.509-3.19 4.087 2.55-8.239-2.72 0.093-3.63 5.932 1.32-9.296 5.37-9.416 5.94-8.421-14.47 2.644-5.94-6.609 9.03-2.703-2.26 1.232-3.61-2.849-4.41 1.894-4.6 4.676-6.02 1.683-4.83 3.597 4.18-7.144 8.1-2.54 3.17-2.731 9.44-4.218 0.26-3.144-7.77-2.838 10.18-4.113 12.73-5.702 5.88-3.873-11.16-1.862-4.21-6.482 1.4 3.97-0.32-4.065-4.28-1.718z"></path> <path id="path93" style="fill:#dcdaa6" d="m121.2 29.281c-5.83-4.301-11.8 6.169-8.63 11.919-4.35 4.594-9.71-3.717-7.51-4.903-0.84 9.165 12.05 5.026 6.76-2.957 1.32-2.938 6.74-9.661 9.38-4.059z"></path> <path id="path95" style="fill:#dcdaa6" d="m84 41.04c4.5-4.799 9.642-11.095 5.002-11.087 2.296-4.753-5.799 1.921-8.437 4.588-8.898 2.434 4.456-12.504-0.891-10.293-4.659-12.559-11.452 1.476-12.249 5.328-6.224-0.512 7.571-19.464-0.838-14.024 3.171-5.7053-7.081-3.762-8.628 1.555-10.875-5.345 0.849 11.582-7.44 13.891-0.967 1.775-6.227-6.169-4.571 2.592-0.078 7.328-11.028 3.187-4.369 11.204-1.464 11.573-11.752-2.084-3.34-6.291 3.018-4.511 0.654-21.579-4.641-9.463 2.258-7.369 7.703-6.596 5.67 1.329 1.479 8.737 4.383 1.346 6.317-2.063 5.949 4.498 10.429-3.822 6.71-9.259-0.281-6.855 7.595 0.512 7.879-5.833 10.445-6.9486 11.892 6.131 5.709 12.561 0.7 9.874 7.188-16.854 12.053-4.77 7.757 2.921-2.783 9.719 1.749 13.135 3.404-3.349 13.792-12.086 11.451-1.51-3.065 5.616-8.056 6.464-4.723 10.785-2.1 5.653-1.944 11.968 5.747 8.545 5.76-2.885-10.562-4.511-1.92-10.202 4.674-3.731 8.69-4.68 15.12-7.918-3.27 2.215-4.27 3.328-6.211 4.114-0.88 1.314-0.31 5.875-5.07 0.208-3.488 4.178-9.545 10.687 0.478 11.042 8.313 2.652-1.921 14.162-1.664 6.22-4.311 3.581 3.454-5.215-3.86-1.78-8.443 0.053-1.032-8.523-3.501-9.013 2.121-3.489 0.26-4.458-1.532-3.591zm-47.04 7.68c11.058-0.124-2.905-15.929-1.015-3.63 0.185 1.242 0.397 2.515 1.015 3.63z"></path> <path id="path97" style="fill:#dcdaa6" d="m34.32 21.84c-3.382-6.174-14.026-1.034-14.897 4.082 3.577 3.986-7.611 2.726-3.702 0.248 1.495 5.45 3.906-1.111 4.519-2.812 1.358-3.645 13.13-8.149 14.08-1.518z"></path> <path id="path99" style="fill:#dcdaa6" d="m11.52 15.12c-9.4006-3.872-11.216 17.052 1.232 13.993 3.833-0.025-5.0591 7.8 4.503 5.589 7.98-2.588 6.661 4.992 7.376 8.871 8.143-3.046 13.192 9.136 6.018 8.444-6.525 8.436 11.453 4.916 5.674 14.429-2.226 2.715 2.453 14.356-1.356 6.381 1.349-8.382-6.613-10.459-2.845-1.217-5.281 2.623 7.595 5.718 3.904 9.232-2.057-6.531-4.944-1.548-5.484-5.071-5.539 1.367 1.151-4.444-2.943-2.816-2.511-4.685-8.961-13.666-2.41-10.775 5.237-4.931-1.636-6.2-2.055-6.108 3.419-5.348 7.293 9.839-1.054 6.323 1.578 4.228 9.35 16.917 9.43 6.305-3.834-4.955 3.53-5.46 3.769-0.545 4.246-7.347-1.822-8.88-6.36-11.598-0.145-4.822 11.08-11.408-0.559-11.936-10.134 1.489 0.968-11.43-10.027-9.879-7.063 3.969-5.559-3.545-6.165-5.343-12.004 2.336-11.202-18.88-0.648-14.279z"></path> <path id="path101" style="fill:#dcdaa6" d="m23.76 49.68c-0.478-8.392-3.83 6.164-4.662-1.253 4.326-1.533-3.903-7.716-6.434-3.557-0.238-1.481-7.3434-4.9-6.3276-0.545-3.3162-1.686-9.404 2.694-2.8889-1.031 3.4505 0.036 4.2695-4.548 9.4155 0.595 6.132-3.913 13.479 4.512 10.908 7.126l-0.011-1.335z"></path> <path id="path103" style="fill:#d8d066" d="m67.2 12c-4.536 4.118-4.756 14.556-5.933 3.876-2.494 1.696-0.567 10.922 0.752 11.764 0.487-3.972 5.923-18.403 4.569-12.087 6.762-5.047-1.064 10.113-1.306 13.486 4.929 3.152 5.727-17.603 12.719-7.674 1.415 5.635 5.682 0.731 0.565 7.498-2.05 3.015-13.675-0.217-10.207 9.739-2.451 5.56 0.956 7.887 1.181 0.6 3.289-5.708 7.925-5.174 2.552-0.278 1.396 3.017 15.8 1.642 9.75-4.607-4.638 4.68 6.456-10.37 8.399-4.799-4.306 2.967 3.797-0.971 0.24 3.361-2.526-2.857-10.698 9.299-4.397 9.993-1.607 4.245 2.025 2.838-2.658 7.835-8.017 0.564-14.068 10.645-11.811 13.947 1.403-4.412 13.142 0.002 7.505-7.403-5.656 2.623-7.36 1.744-2.183-1.734 3.153 3.189 14.579-4.953 15.304-1.531-3.665 5.441 4.461-2.475 1.12 4.815 9.179-2.478 2.884-11.569-3.942-11.274-2.146-4.342 6.266-12.379 8.737-5.526 0.415-4.571 0.508-4.293 4.244-5.643 2.91-7.032 1.25 9.521 9.07 5.397 2.09-2.309 10.32-16.161 5.41-10.666-1.1 0.503 1.6-3.954-2.3 0.915-1.57 3.624 2.13-2.624 0.38 3.037-2.96-1.222-0.18 6.573-2.67 0.938-2.89-11.21 16.32-6.152 13.37-4.587-3.7-0.343 1.07 4.152-0.62 3.3-2.4 0.54-3.1-4.14-5.77-0.132 4.68-13.842-6.21 4.999-4.93 5.593 0.72-1.471 0.29 5.02-1.44 2.281-0.33 1.041-4.11 4.058 0.87 2.769 3.13 2.644 6.95-4.639 8.21-1.462-3.6 3.798-14.45 0.04-14.28 6.537 5.48-3.746-2.19 3.074-1.39-2.177 0.63-5.571-4.34-2.26-4.27-5.521-3.556-2.139-1.44 7.403-0.85 5.049-6.193-1.006 3.84 6.925-1.11 3.008-0.732 7.485 9.8-4.624 5.52 5.519 1.29-4.388 7.6-6.499 1.57-0.96 4.12 1.128 11.36-5.411 9.69-0.714 7.73-2.179-8.45 4.701-5.3 5.754-4.52-1.144-3.31 0.695-4.69-0.857-4.09 2.625-0.54 1.637-1.27-2.983-4.37 4.278-6.708-8.135-8.699 1.017-1.587 5.04-2.4 8.329 1.414 1.561 4.715-3.785-5.348 11.385-10.291 6.161-2.52-0.296 1.775 13.613-0.921 3.526 0.36-4.442-1.677 1.729-1.183-4.344-3.126 1.407 0.332 6.492-1.659 8.058 3.398 2.16-4.065 3.894 1.638 4.996 2.062-3.026 5.135-11.953 7.26-8.84-5.189 4.793-9.125 19.951-1.8 16.378-2.862-0.545 1.958-3.957 1.023 1.685 1.851 6.609-16.109 18.446-9.58 25.006 0.623 5.8 1.675-3.94 3.425-0.73 4.232-5.53 2.44-5.83 8.788-11.858 2.309-4.676-5.004-2.472-0.44-7.011 1.622 2.865 6.375-9.247 5.735-2.482-4.788 6.633 4.2-0.166 0.25-3.601 4.19-0.687 2.75-10.728 0.54-2.355-2.243 0.329-4.828-11.985 0.9-9.645 2.96-5.038 7.94-10.04 5.9-0.079 2.3 6.412 4.38-3.456 3.97 1.775 2.34-2.661 8.46-15.571 5.49-6.975 2.19-4.353 6.34-8.469 2.88-1.2 4.88-4.597-2.33 7.857 2.88 1.182 4.94-5.95-3.68 4.685 3.84-1.181 1.5 5.511 8.91-1.61 5.52 5.76 7.96-2.101-1.15 11.257-3.73 9.446 5.11-0.387 20.79 2.538 19.11 2.472-2.31 5.234-3.36 1.667-3.66 2.243 1.24 6.302-10.37-2.761-5 5.038-4.97 1.897-14.49-9.73-12.79-1.322-0.21 4.141-12.04-1.947-12.7 6.917-1.94 2.726-1.23-4.134-2.25-1.111-0.42 0.833-5.09-2.716-2.03 1.325-4.13 2.852-0.55-1.539-5.82 1.862-2.29-2.139-8.829-2.63-3.29 0.01-4.962-2.233-1.355-3.851 2.99-4.133-2.69-6.39-13.934 9.843-15.21 14.853 1.545-6.17 9.176-3.32 5.504-7.36 6.185-4.987 10.176-0.38 17.036-3.37-6.63-0.554-1.92 6.56-7.33 3.33-0.87 0.26-13.205 4.03-2.55 3.36 3.25 0.72 8.99-0.36 2.28 3.84-6.112 2.41 7.87 3.94 0.64 1.71 5.92-3.19-0.21-3.26 8.17-2.02 9.04-3.39-0.71 11.9-7.11 3.99-3.5 2.29-17.844-0.2-7.873 1.01 8.763 0.51 0.516-5.27-1.343-1.06-4.204 0.21-5.42-2.06-9.426-0.77-0.357 1.61 11.389 2.48 7.462 4.61-4.28-3.39-0.343 5.33 0.522 1.2 3.581 1.24-1.066 8.45 4.562 4.8-4.083 3.52-3.524 17.97 0.63 7.44 2.196-3.05 2.126-13.98 0.244-8.85-0.252-5.1 5.192-2.7 7.112-5.81 1.89 2.45 7.25-0.75 2.63 3.26-4.14 7.14 1.05 4.44 1.62-1.32 3.5 0.83 4.16-4.74 1.92 1.2 1.05-4.1 6.17-0.15 3.75-2.96-3.88-1 6.31-4.22 1.74-0.46 3.88-1.46 7.63-1.05 12.42-0.27 1.25-3.94-1.44-18.597 3.44-15.86-2.83 5.83 4.09 1.26 3.8 6.08 1.56 4.07-5.68 0-5.08 5.52 8.59-8.18-7.38 9.93 1.98 3.58 8.85-3.67-6.76 5.95-5.78 4.62-2.98-1.92-17.05 1.38-18.67 7.92 5.79-2.55 14.17 4.09 16.8-1.02 8.1 3.6 12.45 0.51 9.6 10.14-1.96 0.72-3.44 3.84-6.75 1.03 2.17-5.07-2.34-0.07-0.89-4.85-4.58 0.35 1.45 5.34-3.83 0.85 1.39-3.5-5.93-6.67-12.77-0.39 8.52-6.7-1.87 0.36-1.62-0.94 6.72-4.18-2.38-3.4-4.4-3.26 2.99-1.1 9.86-1.52 2.66-1.32 0.7-1.72-1.79-1.51 2.15-4.75-4.07-0.33-6.88 6.18-10.69 5.89-0.13 3.21-5.782 14.88-6.495 4.59 1.193-8.17-3.248 9.32-2.963 2.43-1.108 8.68-2.115 8.49-2.159 10.56-6.055-5.93-5.667-14.4-0.449-17.24 2.022 0.69 7.714-2.52 3.394-4.47-6.023-2.53 0.269 7.19-4.24 0.74 2.742-10.35-12.509 12.83-4.248-0.06 3.253-2.42 7.467-12.54 2.154-4.6-4.001 5.17-5.377 5.9-4.288-0.29-2.414 4.26-5.588 21.59-3.415 7.37 3.506-8.28 1.25-10.44 3.173-18.41-2.698 5.11-4.157 16.26-7.804 15.11-0.843 5.86 6.32-0.78 2.259 6.08-4.988 0.59-1.244-24.45-4.775-10.6-0.514-4.33 3.979-14.84 3.194-22.087 5.775-10.375-11.234 11.757-1.441 5.027-4.367 6.93-11.733 13.47-11.113 22.54 0.318-6.21-1.313-10.29-4.553-2.27-2.639 3.19-14.101 11.42-7.201 4.13 3.899-3.8 11.313-11.85 15.352-17.67 4.876-6.12-3.689 2.29 0.963-4.1 2.305 2.62 6.041-13.734 0.325-2.91 1.197 0.95-5.44-6.759-3.488 0.72 1 6.03-0.586 6.41-1.951 5.15-0.131 5.16 0.252-5.99-1.126-1.05-6.143-8.876 3.806 8.25-4.619 9.93-3.09 6.39 6.742-7.97 0.046 1.63-5.808 11.94-0.474-14.89-4.287-2.37-1.064 9.67-1.307-7.78 1.193-7.89 3.333-5.4-1.282 18.25 1.535 8.7 1.186-6.27 1.825-19.483 5.925-13.59 7.38-6.992-11.923-7.841-9.242 0.31 0.096 8.1 3.343-12.664 2.151-0.01-0.003 2.38-2.314 7.86-1.1 2.81-5.036 9.38-1.445-11.643-3.505-0.71-2.56 10.06 0.605-8.066 3.044-9.604-6.195-4.333 0.873-13.208-6.044-11.072-2.308 6.056-0.157-2.301-3.815 4.103-0.997 0.351-2.931 3.694-1.696 3.924-1.933-2.701-7.318 4.243-4.784-0.565-7.547-1.546-13.509 9.274-19.941 5.88-1.017-7.129 1.798-9.178 5.781-10.204-3.693 3.368-0.282 3.788 1.211-0.027 3.377 0.921-6.115 7.577-2.432 7.394 3.589-0.743 8.092-13.289 4.347-2.79 2.687-1.713 4.416-8.907 7.068-10.384-8.649 3.308-14.823 2.67-17.304 5.684-12.399-1.721 9.193-12.441 8.102-12.67 0.538-3.898-3.044-12.567-4.721-6.874-0.389-3.218-7.6681-5.663-8.1161-7.66 0.9758-3.469-2.7792 0.579-4.4903-0.474 1.4751-1.762 15.462-3.596 5.098-6.962-1.8526-1.572-9.516-5.174-3.3446-9.635 4.343-0.836 4.495 4.166 0.684 0.496-2.2338 4.057 10.236 12.515 1.1461 5.894-7.2568-6.814 3.8459 4.845 7.4169 6.846 2.828 1.505-8.0348 0.258-0.544 2.13 10.045 6.348-1.271-4.665-2.141-9.614-2.7869-4.921-1.335-5.161-4.198-8.32 3.957 0.878 7.946 2.285 8.111 9.892 1.119 8.003 1.626 4.027 1.351-0.238 3.598-4.084-4.499-7.471 0.826-8.265 2.645 3.156-0.141 10.449 3.837 3.133 3.193 1.868-0.483 4.743-0.161 0.987-0.305 4.158-2.175 20.037 1.125 6.915-2.691 5.316 6.332-2.399 3.637 4.775-0.862 5.535-6.922-0.946-3.878 4.824 0.153 5.252 8.683 8.37 4.704 9.981 3.525 1.584 2.614 1.61 4.897 3.7-0.379-5.711 6.762 8.82 2.88-0.48 4.017 0.272-3.62-18.085 3.724-9.966 2.806 6.805 14.113 18.226 5.08 12.378 1.716 10.092 12.515-3.835 7.217-6.281 0.109-5.351-6.244 1.18-3.779 6.026-3.443-5.958-4.505-12.979-5.76-13.92-0.206-2.564-2.726 0.398-0.001-3.84-3.189 4.174-4.759 4.446-4.56 0 4.558 3.007 6.057-8.467 1.942-8.138-2.895-0.454-10.784-2.84-2.814-5.119 2.856-0.061 4.129 0.245 7.242 3.319-2.033-4.063 0.724-7.984 4.672-3.504 2.55-8.424 0.267 0.892 2.007 2.631-1.38 2.74-2.646 12.836 2.162 13.735-3.661-3.558 0.785-21.583 0.732-9.627-0.384 7.265 5.361-3.693 3.327 5.799 0.436 3.846 2.546 9.463 1.371 2.107 3.344-2.922 15.843-14.345 4.604-7.979-5.494 5.035 1.233-10.101-1.001 0.296 2.794-2.485 5.276-3.181 2.358-4.835 4.19-5.315-5.448-0.895-2.598-4.286 4.742-3.2 3.261-6.172-3.361-7.201 1.948 4.217 3.522 22.454-0.228 9.346 0.009-3.079-6.086 3.541-0.639-1.719 6.031-6.693-5.35-7.613-6.193-9.652 1.457-1.503 3.566 3.43 2.189-2.019 1.599-3.542 4.737 2.632 3.912-3.394 8.183 6.625-3.367-12.447-4.696-1.523-1.185 5.038-2.821 4.939-2.544 1.635 4.456-2.886 4.157-9.149 2.948-14.669 4.669 0.504 7.85-3.993 13.063-5.908l0.867 0.051 0.439 0.497zm2.4 13.44c-0.326 4.169 1.97 0.573 2.554 3.19 7.207 0.852-4.802-7.352 2.006-3.429-1.921-3.949 0.077-4.661-2.88-2.159 0.526-5.046-1.269 3.633-1.68 2.398zm16.56 35.52c0.501 6.576 3.459-6.949 6.022-0.478 2.483-4.755 1.43-5.182-2.85-3.151 2.667-4.495-16.551 2.725-5.571 4.59 1.018 5.183 1.232 0.64 2.399-0.961zm-5.28 45.6c2.156-4.27-2.939 3.23-2.4-3.12 0.74 3.93-1.1 8.13-0.856 2.75-2.319 5.34-1.42 10.47 1.335 3.01 1.933 0.04 2.674-0.61 1.921-2.64zm-48.72-15.36c4.262-9.014-6.282-0.689-0.884 1.159l0.884-1.159zm0.24-5.28c3.442 0.12-1.92-1.769 3.84-0.24-4.091-3.793-4.436-10.484-11.371-9.825 6.696 2.704-3.259 1.045 3.125 4.565 8.472 0.89 0.329 7.474 2.246 5.981 0.054 0.17 2.418-2.243 2.16-0.481zm26.4-9.12c5.41-2.771-3.241-2.014 0.284-4.956-5.407-4.253-7.281 2.275-4.111 3.96 4.814-7.152 0.712 8.472 3.827 0.996zm-13.92-19.44c-5.665 2.235 6.956 17.49 3.94 7.061-3.34-1.529-0.533-3.556-3.94-7.061zm27.12-12.24c5.951-4.27-6.396-5.695-3.12 1.44l1.695-0.444 1.425-0.996zm3.6 3.6c-5.859 6.738 6.213 4.218 1.423-0.138-0.923 0.42 0.137-2.703-1.423 0.138zm-6.72 12.24c-0.047 8.587 3.574 1.66 0-1.44-2.249-0.293-0.851-3.436-3.569 2.462-1.351-2.848-2.153 5.989 1.455-0.147 0.201 0.002 1.557-1.87 2.114-0.875zm-6.24 3.12c0.7-9.648-2.853 6.584-2.775 4.547-3.523 4.198 6.983 0.851 2.775-4.547zm17.52 1.44c3.05-7.033-6.852 9.711-10.321 5.761-1.982 10.073 10.201-7.583 9.571-1.776 6.457 2.955 3.281-10.433 0.75-3.985zm-6 1.68c-2.853 3.319 5.435-7.234-1.927-2.941-5.234 9.197 5.22-5.162 1.927 2.941zm-6.96 13.2c-2.41-6.803 6.811-10.055 0.882-15.669-4.335-2.155-2.448 7.358-5.386 5.539-5.241 4.949 5.681 4.047 3.304 9.41-4.442-9.777 2.451 5.672-4.08 1.679-2.942 6.181 5.462 7.778 4.08-0.96-0.341 4.464-3.22 11.661 1.643 4.916-2.054-1.903 1.468-2.773-0.443-4.915zm10.32-4.32c-2.456 2.705-1.997 16.748 0.184 5.198 1.261-4.877-0.67-3.194 0.956-5.59l-1.14 0.392zm-36.96 1.68c1.782 4.423-4.294 2.175-0.72 0.482-8.069 0.247 2.085 8.074 2.64 0.718 4.787 8.45-2.516-7.535-1.92-1.2zm17.04 1.92c-2.569 2.123-4.919 8.737-0.48 3.12-3.824 7.272 3.46-2.51 3.473 0.601 3.637-4.807 4.342-7.586-0.742-5.719-0.707 3.095-4.735 6.687-2.251 1.998zm1.68 13.2c-0.42-2.96-2.74-1.872-3.085-4.076-6.109 2.946 11.516 14.606 6.444 1.916-0.845 2.488-0.712 6.735-3.359 2.16zm26.16 4.08c5.708-5.028-1.486-2.371 1.843-5.714-4.897-6.101-7.584 12.634-1.843 5.714zm-11.28 23.04c2.742-5.27 0.026-14.89-0.649-4.23-0.114 1.47-0.952 9.07 0.649 4.23zm0.24-48.24c-8.99 2.035 2.099 11.029 0.493 2.251 0.166-0.221 1.063-2.826-0.493-2.251zm51.84 9.12c4.56 1.697 6.88-1.713 5.52-6.719-4.5 4.307-11.41 6.626-14.5 11.298 1.14 0.903 8.95-5.922 8.98-4.579zm-6.24 0c6.21-4.67 1.48-11.285 1.44-9.489 2.17-2.994-8.48 3.653-9.71 6.788-3.46 2.874-1.85 4.802 3.23 2.461-0.46 1.933-7.59 3.674-6.99 3.842-1-2.227-8.25 10.534-1.33 4.148 4.34 0.586 7.53-5.251 1.6-1.507 3.66-5.565 7.32-3.465 11.76-6.243zm3.6 1.68c-0.82 1.083-9.47 4.409-1.38 2.465 3.97 0.49 6.92-1.128 1.38-2.465zm0.48 5.04c-5.95-0.189 5.18-4.922-3.53-1.23-5.56 0.603-7.97 2.727-0.68 1.337 7.16 4.639 4.34-4.852 3.77-0.346 0.75-1.362 2.18-0.387 0.44 0.239zm-10.08 3.84c-3.17-0.064-14.665-1.635-7.44 0.72-8.591 0.74 11.46 6.373 8.11 2.837 2.07-2.751 8.45-2.896 4.84-5.777 3.7 0.69-4.62-4.212-5.51 2.22zm-5.76 18.72c-3.94 4.07 4.02 3.71 6.09 4.2 2.15-3.52-3.91-4.25-6.09-4.2zm18.48 19.92c5.45 5.94 10.45 3.08 6.46 1.36-1.76 1.97-5.51-3.38-6.46-1.36z"></path> <path id="path105" style="fill:#b2b05a" d="m69.12 25.2c2.963 0.814 1.283-6.417 3.018-2.238 1.28-5.127 2.636 5.435-0.245 1.188 4.155 2.383 1.914 6.3-0.495 3.691-0.216-3.236-1.963 3.762-2.278-2.641z"></path> <path id="path107" style="fill:#b2b05a" d="m78.48 29.76c-6.07 9.415 11.639 1.304 2.523 10.621-4.848-0.747-12.346 1.12-5.969-5.452-4.415-3.269-8.24 17.203-7.136 4.943-1.454-9.852 4.749-9.539 10.582-10.112z"></path> <path id="path109" style="fill:#b2b05a" d="m84 41.04c-4.137-3.908 12.266-14.563 4.103-4.219-1.316 1.457-2.842 2.712-4.103 4.219z"></path> <path id="path111" style="fill:#b2b05a" d="m84.72 49.44c-0.692 3.859 5.78 4.477-0.46 5.893-6.333 0.89-10.447-1.083-12.379 7.487-2.474-11.211 8.799-7.195 12.839-13.38z"></path> <path id="path113" style="fill:#b2b05a" d="m87.6 65.281c5.138 4.104 13.65-6.808 11.486-7.197-3.478 3.598-3.913 8.137-3.164 1.33 2.447-6.489 2.509-6.383 6.038-2.801 3.07 1.475-10.27 12.932-9.327 14.436 5.131-9.901-8.124 5.186-2.78-2.956 5.044 0.969 7.719-6.215 1.092-1.74-1.171 0.336-2.688 0.038-3.345-1.072z"></path> <path id="path115" style="fill:#b2b05a" d="m97.92 77.52c2.1 3.633 2.71 10.966 5.29 2.441-0.22 5.401-3.685 6.019-2.27 11.513-6.246 4.216 4.2-6.977-3.02-3.395 1.509 5.495-7.068 3.921-4.489 6.712 2.43 0.099 2.345 3.997-2.229 6.729 0.992-7.21-0.165-6.243-3.62-2.596-1.609 2.876-5.644 6.636 1.939 4.036-4.185 8.06-6.705 8.08-6.332 1.84-4.116 9.06 1.537-9.051 5.524-9.358 5.993-4.999 0.656-11.201 7.766-8.784 0.243-4.008 1.87-3.779-1.313-4.064 8.394-3.512-2.522-0.646 2.754-5.074z"></path> <path id="path117" style="fill:#b2b05a" d="m80.88 108.96c-4.843 0.36-3.617 7.48-4.301 2.73-1.961-0.74 2.462-9.76 1.181-2.25 1.937-2.82-0.508-7.63 2.221-2.94 2.343-5.11 1.476 0.54 0.899 2.46z"></path> <path id="path119" style="fill:#b2b05a" d="m73.2 100.8c1.192 6.46-0.853 14.96-3.6 18.96 0.859-4.27 0.381-14.62-1.92-5.28-2.495 7.67-3.209 5.64-4.946 8.82-0.476 4.25 1.819 9.1-1.028 10.08-2.625-10.53 2.572-19.92 9.448-27.28 4.16-6.576-5.288 1.88 1.142-4.35l0.904-0.95z"></path> <path id="path121" style="fill:#b2b05a" d="m51.12 110.4c2.281-4.7 1.578-15.706 0.165-4.38-2.294 3.47-0.605-11.699 5.545-5.71 8.34-4.109 1.805 7.99 0.669 3.46-0.817-7.135-1.961 0.92-3.386-0.58-2.169 0.26 3.114-3.931-0.989-1.44 2.882 4.86-1.046 16.77 0.396 6.01-1.624 0.11-2.466 6.63-2.4 2.64z"></path> <path id="path123" style="fill:#b2b05a" d="m43.2 89.281c2.243-6.171 4.057-3.655 6.083-0.539-5.317 2.93 5.529 9.801-1.023 14.748-0.241 4.49-3.513 22.42-4.907 11.71 1.518-3.2-4.058-1.57-0.393-2.4-0.119-5.3-1.961-19.207-3.359-6.72-4.494 3.98 1.366 10.09-3.945 5.28 2.11-5.74-4.91-17.124 1.732-17.393 0.672 1.275 6.352-0.432 5.812-4.686zm4.8 9.839c-3.93-0.989-4.07 5.42-4.414 5.29-2.427 1.95 4.451 1.93 4.13-3.62l0.284-1.67zm-1.2 9.84c-2.486 3.63-0.287 4.45-3.6 0 0.203 8.45 3.956 9.88 3.6 0zm-8.64-13.2c1.952-3.668-7.583 0.745-2.641 4.56 0.796-10.067 0.938 7.86 1.844-1.367l0.286-1.636 0.511-1.557zm5.04-3.12c-5.173 0.459-3.385 10.62-1.92 2.881-0.459 8.739 3.142 2.06 1.92-2.881z"></path> <path id="path125" style="fill:#b2b05a" d="m31.92 85.2c-6.094 4.192 5.662-3.333-3.952-4.777-6.1-3.694 3.296-1.57-3.064-4.789 5.127-1.84 14.565 12.872 8.108 9.183-1.378 1.37 3.77 1.079-1.092 0.383z"></path> <path id="path127" style="fill:#dcdaa6" d="m24.96 96.72c7.095-4.398 11.121-2.903 9.746 6.34-4.281 5.1 7.133 14.57 2.275 7.53 3.286-6.66 2.896 7.46 4.061-2.59 7.583 7.35-11.423 4.92-12.592 13.78-6.145 6.29 0.962-10.9 0.592-1.54 3.567-7.04-5.101-16.32-12.264-14.6-9.7165 2.1 0.569 13.08 7.56 10.76-1.379 4.14-21.129 0.76-20.67 12.67 4.9491 6.33 15.872-3.76 21.053-6.74-0.47 5.96 9.115-1.7 1.823 2.81-4.615-6.35-11.42 8.95-20.234 6.58-8.1986-3.07 3.854-15.66 11.264-13.2 9.431-0.3 3.348-3.42-2.348-3.61-11.138-10.25 12.396-14.48 13.447-1.99 9.235 6.84 4.149-9.6 5.528-14.582-0.255-6.035-6.853-2.159-9.241-1.618z"></path> <path id="path129" style="fill:#b2b05a" d="m15.6 89.04c-1.816-3.004 9.2-2.141 14.997-5.324-2.767 1.147-4.347 9.544-7.273 10.098 2.558-3.589 2.507-7.008-1.03-0.305-2.119 6.641-6.899 1.783 0.148-2.417 1.156-5.133-6.565 5.833-2.654-0.74 0.496-1.543-5.33 2.395-0.829-1.788-1.183-0.959-2.145 0.726-3.359 0.476zm9.12-0.24c13.192-8.367-9.702 0.289-0.705-1.086 4.434-3.355-4.402 6.874 0.705 1.086z"></path> <path id="path131" style="fill:#b2b05a" d="m8.64 42.24c0.1604 3.068 2.633 2.759 2.684 7.363 2.687 2.833 6.129 12.529 7.15 12.585-6.128-0.522-8.5318-5.475-2.633-2.189-1.201-4.475-13.362-9.38-9.8676-11.183 2.5879 4.825 8.7416 7.694 1.7605 1.329-3.6987-3.185-0.3659-6.69 1.8671-2.384-4.8231-8.605-9.96 7.902-1.001 5.781 0.5729 1.691 7.516 4.965 2.221 5.079-8.6454 3.876-6.7356 3.481-2.632 2.453 6.158 0.052-13.663 5.81-5.1534 1.841 1.3422-3.081 10.412-4.599 0.8614-4.172-5.8366 8.395-5.8135-12.447-1.401-14.719 4.6622 1.157 3.3919-1.681 5.0674-1.857l1.0766 0.073zm-4.08 14.88c-6.7541 2.32 14.192 0.882 1.995-0.712-1.3371-0.22-3.7139-2.553-1.995 0.712z"></path> <path id="path133" style="fill:#b2b05a" d="m42.24 73.2c3.775 3.665 4.095 5.567 5.823 5.81-2.251-8.654 5.003-8.036 4.87-3.126 1.366 3.889-9.127 13.941-8.292 3.318 8.333 9.064 0.497-2.688-2.401-6.002z"></path> <path id="path135" style="fill:#b2b05a" d="m57.12 78.96c1.368-3.923-0.251-6.431-3.12-2.64-2.403-6.364 1.571-6.945 5.761-3.601-3.781 2.219 4.853 1.555-1.552 5.624l-0.345 0.504-0.744 0.113z"></path> <path id="path137" style="fill:#b2b05a" d="m36.96 64.32c2.628 2.703 1.121 0.52 5.04-2.159-3.799 4.217 2.828 2.393 0.566 5.598 0.87-0.434 5.888 14.934 1.191 4.962-0.691-3.402-9.054-10.025-4.156-4.32-1.459-0.774-2.843-2.298-2.641-4.081z"></path> <path id="path139" style="fill:#dcdaa6" d="m47.28 62.4c-0.724-1.29 5.456 9.789-0.584 4.76-1.132-2.171-6.217-13.358-0.199-7.54l0.529 1.603 0.254 1.177z"></path> <path id="path141" style="fill:#b2b05a" d="m61.92 41.281c-3.469 4.531 1.335 6.982 0.814 7.641-2.312 5.176-3.931 9.894 1.761 5.519 9.705-3.876-11.305 11.391-6.887 12.371-3.408-8.71 6.787-15.747 0.731-25.74-1.925-3.663 2.763-0.545 3.581 0.209z"></path> <path id="path143" style="fill:#dcdaa6" d="m50.4 38.4c6.738-2.773 12.442 11.138 3.672 6.422-4.175-2.678-7.832 8.983-9.95-0.975 3.568-6.47 3.803 9.18 5.507-0.531 0.195-1.611-0.369-3.526 0.771-4.916zm-0.24 1.92c-0.969 5.26 3.466 3.009 7.68 5.521 2.932-5.542-6.208-8.707-7.68-5.521z"></path> <path id="path145" style="fill:#b2b05a" d="m49.2 31.44c2.332 9.104 1.448-3.82 6.719-4.799 3.962 2.421 6.175 9.774 0.799 6.259 0.752 2.811-5.203 0.47-3.199 5.74-4.485-7.066-3.252 13.692-6.082 0.364-0.366-1.281-1.94-12.909 1.763-7.564z"></path> <path id="path147" style="fill:#b2b05a" d="m67.2 12.72c-2.579 3.542-6.852 23.563-5.999 9.839-3.375-0.972 0.197-12.242 0.873-3.038-0.114 8.15 2.794-10.216 5.126-6.801z"></path> <path id="path149" style="fill:#b2b05a" d="m5.28 17.04c1.8139 4.02 10.234 8.38 4.905 8.582-2.2458 0.618-5.6115 2.039 0.819 0.924 7.647-0.717-9.9362 5.729-7.194-3.475 0.8961-1.933-0.3866-4.572 1.47-6.031z"></path> <path id="path151" style="fill:#d8d066" d="m5.28 17.04c3.6645-3.826 8.134-2.748 5.404 2.211 1.008 2.298 9.256 13.555 0.116 9.307 9.483-5.069-10.379 0.261-1.5702-2.455 6.3392-0.785-0.6211-2.909-3.0683-8.712l-0.8815-0.351z"></path> <path id="path153" style="fill:#989332" d="m11.76 16.08c1.331 5.142 6.566 16.762 0.154 5.894-1.201 0.684-2.19-9.4-0.154-5.894z"></path> <path id="path155" style="fill:#b2b05a" d="m24.96 20.16c4.373-3.093 9.109 0.989 4.352 0.285-1.024 4.624 0.747 19.699-1.608 6.461-0.77-5.046 0.634-4.915-4.185-5.549l0.821-0.477 0.62-0.72z"></path> <path id="path157" style="fill:#d8d066" d="m21.84 21.84c3.309-3.012 2.603 0.757 6.024 0.862-3.386 3.26 3.635 15.447 0.696 6.579-0.619-5.585 1.317-9.028 2.588-9.787 4.415-0.622-3.81 8.592 0.802 13.257-1.822 10.093 8.047-14.816 7.185-1.561 4.12 7.381-6.425 8.942-5.295 9.85-2.222-1.928-6.653 2.626-4.634 3.015-9.861 1.915-1.498-8.257-6.884-11.895 8.745 5.98-3.961-3.2-2.881-7.68 4.07 2.264 2.12 4.879 7.787 8.362-1.657-4.743-6.203-10.839-1.398-6.487-1.714-1.709-0.897-3.676-3.99-4.515zm15.12 17.76c5.671-5.812-0.239-12.204-0.961-1.92-5.487 1.317 1.293 2.76 0.961 1.92z"></path> <path id="path159" style="fill:#b2b05a" d="m19.44 24.48c3.325-7.082 9.446 6.012 3.753 0.123 0.947 0.733 7.052 13.818 0.499 5.406-1.658-3.968-1.129-2.278-4.252-5.529z"></path> <path id="path161" style="fill:#b2b05a" d="m38.64 26.64c-2.334 0.846-7.196 11.028-6.666 7.869-2.408-4.183-1.068-13.935 1.801-13.675-5.765 5.205-1.33 16.931 1.462 5.363 0.967-1.913 5.441-3.26 3.403 0.443z"></path> <path id="path163" style="fill:#989332" d="m34.32 21.84c-1.988 3.978-1.737 16.201-3.473 4.614-0.763-1.092 2.898-7.35 3.473-4.614z"></path> <path id="path165" style="fill:#d8d066" d="m40.08 48c5.409-4.525-5.111-9.723 2.531-9.771 5.942-0.085 2.394-14.613 4.095-6.719-1.091 3.714 4.577 17.966 0.854 13.242-0.117-5.001-4.923-0.303-5.073-2.496 0.638 2.665 2.378 6.79-2.407 5.744z"></path> <path id="path167" style="fill:#b2b05a" d="m35.04 41.04c2.248 5.277-1.679 14.29-1.612 4.596-4.238-1.92-7.295-2.782-0.803-5.34 1.861 4.382-0.182-4.861 2.415 0.744z"></path> <path id="path169" style="fill:#b2b05a" d="m15.84 27.84c2.778-1.085 9.752 3.841 9.67 6.693-3.033-0.003-3.578-4.549-1.03 1.947-3.1-4.618-15.232 1.616-11.379-5.451 2.323-0.652 0.864-1.996 2.739-3.189z"></path> <path id="path171" style="fill:#d8d066" d="m129.12 35.04c8.11 2.353-15.95 7.226-13.87 5.057 3.83-3.445 8.96-4.326 13.87-5.057z"></path> <path id="path173" style="fill:#b2b05a" d="m126.48 34.32c6.73 1.387-12.53 2.593-12.47 7.19 3.61-5.072 7.55-10.785 11.03-6.819l1.44-0.371z"></path> <path id="path175" style="fill:#b2b05a" d="m50.64 44.64c3.116-2.129 10.058 2.688 3.625 5.233 1.416 4.499 0.07 13.987-0.998 4.006-0.592-8.132-2.301 4.261-2.24 7.238 3.715 10.893-4.952-4.739-1.254-7.208 3.115-3.328-3.201-5.118 0.867-9.269z"></path> <path id="path177" style="fill:#b2b05a" d="m43.92 43.68c-0.65 3.972 0.787 13.313-3.552 5.312 2.238-0.733 3.663-3.589 2.351-7.711l1.022 1.061 0.179 1.338z"></path> <path id="path179" style="fill:#b2b05a" d="m14.64 44.88c3.879-3.344 1.021 3.167 3.923 3.195-1.328 3.693-0.538 14.985-2.217 4.531-1.227-2.198-0.024-5.411-1.706-7.726z"></path> <path id="path181" style="fill:#ffffff" d="m68.88 46.56c-1.626-10.757 11.562-2.35 0 0z"></path> <path id="path183" style="fill:#b2b05a" d="m114.72 42.96c6.4-0.723 5.87 1.339 1.54 2.009 2.63 2.193-10.73 0.662-3.22-1.766-3.16 0.422 1.47-1.129 1.68-0.243z"></path> <path id="path185" style="fill:#b2b05a" d="m101.76 46.8c-4.798 2.634 0.66-9.091 1.37-2.899-1.4 0.273-0.62 2.087-1.37 2.899z"></path> <path id="path187" style="fill:#ffffff" d="m54.48 49.44c7.064-8.136 4.581 15.73-0.037 4.195-0.332-1.338-0.817-2.922 0.037-4.195z"></path> <path id="path189" style="fill:#dcdaa6" d="m102 44.88c7.11-4.519 3.26 11.077 4.51 1.277-5.45-5.703-5.17 6.419-0.91 4.003 2.02 3.337-7.931 4.755-5.52 0.481 3.03 4.636-0.413-3.166-1.277-2.311 1.847-0.244 3.617-1.207 3.197-3.45z"></path> <path id="path191" style="fill:#b2b05a" d="m117.6 52.56c-2.63-0.803-6.65 4.088-10.44 2.655 5.25-5.724-0.03-3.299-1.56 0.947 0.39-3.411 0.24-9.334 1.93-5.493 2.59-3.055 1.69 2.219 5.99-2.428 1.56-2.674 5.44 3.58 9.19 0.449-1.54 1.744-6.21 0.333-5.11 3.87z"></path> <path id="path193" style="fill:#989332" d="m23.76 49.68c0.913 5.422-4.479 17.107-2.093 4.873-0.359-2.809 1.111-9.982 0.893-3.673-0.441 0.109 1.716-3.443 1.2-1.2z"></path> <path id="path195" style="fill:#d8d066" d="m145.2 49.2c1.62 1.411 1.29 4.646-0.54 9.178 2.56 5.378-9.01 7.221-13.15 3.716-9.16 4.39 0.58-3.194 2.2-3.088 3.72-5.831 0.99-0.898 2.28 0.636 1-2.015 5.03-4.971 9.21-10.442z"></path> <path id="path197" style="fill:#b2b05a" d="m129.12 63.12c5.31-1.889 10.3 3.759 16.32-1.442-4.39 2.43 4.68 5.334-3.7 4.265-4.68 1.232-11.67 6.885-7.82-1.505-3.68-1.562-15.32 9.642-7 0.789l1.02-0.918 1.18-1.189z"></path> <path id="path199" style="fill:#b2b05a" d="m136.56 56.64c-1.14-7.537 14.91-9.228 4.92-2.576-3.51 1.382-7.53 10.038-4.92 2.576z"></path> <path id="path201" style="fill:#ffffff" d="m40.56 54.96c5.632 3.785-4.212 10.349-1.481 1.115l0.6-0.758 0.881-0.357z"></path> <path id="path203" style="fill:#b2b05a" d="m36.96 62.88c-1.809-4.036-13.515-8.617-4.065-11.037 6.706 2.639 8.499 0.51 5.947 7.424 2.221 3.626 0.127 3.753-1.882 3.613z"></path> <path id="path205" style="fill:#b2b05a" d="m127.44 62.88c-2.8-7.426 15.04-15.927 6.67-5.012-1.11 2.812-3.73 1.968-6.67 5.012z"></path> <path id="path207" style="fill:#b2b05a" d="m124.8 53.04c-1.91 4.843-1.48 2.051-4.86 3.114-0.97 2.412-14.22 5.78-5.28 0.311 3.3-1.452 5.92-3.487 10.14-3.425z"></path> <path id="path209" style="fill:#b2b05a" d="m104.16 61.44c6.22-5.796 1.25 2.315-3.12 4.801 3.41 0.76 10.24-0.491 3.7 3.669-2.16 7.531-9.404 4.069-3.94-2.23-1.576-3.384 2.63-3.452 3.36-6.24z"></path> <path id="path211" style="fill:#d8d066" d="m124.8 53.04c3.86 3.612-7 4.875-5.13 10.178-1.06 2.306 2.25-6.696-2.61-0.216 0.32 4.585-2.45-1.343-3.06 2.838-1.86-0.918 10.43-10.934 0.08-6.292-2.59 0.827 6.97-3.638 6.97-3.772 5.75 1.465-0.56 0.202 3.75-2.736z"></path> <path id="path213" style="fill:#dcdaa6" d="m112.8 59.76c12.89-4.128-3.83 6.329-0.99 12.776-3.17 11.539-4.55-10.046-5.42-6.836 3.77 1.384 1.87 16.592 5.59 5.86-2.56-6.394 12.67-15.317 0.08-11.213-7.06-1.303-2.73-0.114 0.74-0.587z"></path> <path id="path215" style="fill:#d8d066" d="m94.078 72.24c1.167-1.557 7.422-11.739 8.472-8.39-3.98 4.67-4.378 7.746-4.872 12.95-1.833-0.441-2.952 1.412-2.959 2.929-1.214 2.211-0.937-3.123-2.886 1.847 1.509 2.853-1.916-3.319-2.073 0.504 3.397-3.816 11.37-11.64 6.002-8.641-0.987 0.286-0.925-1.008-1.684-1.199z"></path> <path id="path217" style="fill:#dcdaa6" d="m102.96 57.36c7.03-1.444-2.16 7.671-4.905 8.875-1.437 5.134-8.591 10.142-3.702 1.698 3.441-4.313 6.327-6.959 8.607-10.573z"></path> <path id="path219" style="fill:#ffffff" d="m73.44 59.52c6.519-7.813 10.532 6.323 1.48 2.521-4.323 2.005-4.665 5.222-2.286-1.023l0.329-0.936 0.477-0.562z"></path> <path id="path221" style="fill:#b2b05a" d="m68.4 60.48c-2.505 4.787-6.03 3.147-3.586 1.125 0.478 2.02 3.46-7.398 3.307-1.737 4.132-0.23 1.595 11.334 0.485 1.373l-0.206-0.761z"></path> <path id="path223" style="fill:#ffffff" d="m105.36 66.48c-10.202 1.344 4.69-8.635 8.54-6.72 9.94-2.174-5.71 6.085-1.93 11.82-5.1 15.611-0.76-10.476-6.61-5.1z"></path> <path id="path225" style="fill:#b2b05a" d="m63.6 67.92c-3.199 5.635-6.081-1.186-3.063 1.275-0.61-4.433 3.085-13.299 2.709-3.292l0.298 0.918 0.056 1.099z"></path> <path id="path227" style="fill:#b2b05a" d="m113.04 66c3.36-1.565 0.78-2.274 4.42-1.488-1.94-3.333 6.5-6.753 1.54 0.38-5.05 7.663-10.26 18.213-5.96 1.108z"></path> <path id="path229" style="fill:#b2b05a" d="m114.72 81.6c8.24-1.293-14.52 7.399-2.64 3.839-0.51 2.926-14.16 8.193-5.76-0.165 2.28-1.759 1.55 0.348 5.61-2.803 1.86 0.448 1.99-0.259 2.79-0.871z"></path> <path id="path231" style="fill:#b2b05a" d="m79.2 67.44c2.948-4.866 3.875-4.907 3.811-1.171 3.416 3.345-5.671 4.846-3.811 1.171z"></path> <path id="path233" style="fill:#d8d066" d="m165.36 68.88c7.71-0.713 3.58 16.226-0.65 6.729-8.12-6.297 0.26-2.6 0.65-6.729z"></path> <path id="path235" style="fill:#d8d066" d="m151.44 70.08c3.57-4.739 8.72-8.138 9.15-2.546 5.24-1.087-8.64 1.88-9.15 2.546z"></path> <path id="path237" style="fill:#b2b05a" d="m75.12 64.56c-3.328 2.157-6.193 4.614-2.4-0.96 7.443-1.532-3.284 9.119 2.4 0.96z"></path> <path id="path239" style="fill:#dcdaa6" d="m0 64.32c8.4169-3.193 14.614 2.47 17.572 5.331 0.066-5.658 5.039 3.98 3.822 7.078 0.262 0.264-20.379 11.068-7.718 13.029 11.932-6.422-7.3405 10.352 4.291 11.172 5.611-3.548 8.638-4.649 1.528-0.41-10.007 5.36-3.133-10.976-4.001-10.968-15.206 0.996 0.946-10.513 5.73-13.813-0.138-6.265-7.571-7.888-11.868-11.42-3.0881-1.389-6.372 1.056-9.356 0.001z"></path> <path id="path241" style="fill:#b2b05a" d="m66 79.68c0.963-4.84-8.595-6.007-2.54-10.368 1.652 3.602 2.511-11.472 5.24-2.536 4.801 2.777-4.509 10.034-1.784 12.939-1.37 0.269-1.03 7.445-0.916-0.035z"></path> <path id="path243" style="fill:#dcdaa6" d="m65.76 104.64c2.162-6.343 5.597-5.436 1.079 0.31-4.957 5.95 0.273 2.4-0.842 3.84-3.645 7.87-11.96 11.99-15.83 20.03-2.596-3.35-3.723 10.05-3.196 0.66-2.174-4.77-3.714 10.31-3.832 13.74-0.226 2.24-1.728 8.81 0.959 4.29-1.486 9.42-4.688 17.34-7.614 26.64-1.156 5.38-3.365 8.78-5.699 16.59-7.081 15.95 4.598-16.27-1.138-3.8-3.259 8.59-6.287 19.21-9.257 26.7-1.627 6.49-3.53 15.01-4.926 22.79-0.72 8.97-1.93 19.23-5.5533 13.05-0.8082 3.8-1.9616-6.48-2.2307-0.37-3.5471-10.57-0.1028-21.96 3.371-32.09 4.871-15.17 9.906-30.37 16.222-44.96-2.056-3.18-6.88 13.73-9.624 20.29-2.247 4.51-5.979 19.17-6.922 17.74 1.435-5.66 7.209-18.11 5.73-19.89-3.869 11.29-7.2781 22.71-11.124 33.95 0.8532 4.67-2.1479 7.38-2.5665 13.69-2.8258 5.21 1.1818-10.37-1.8075-1.44-1.5719 7.52 1.0159-9.24 2.567-11.44 2.0572-12.12 7.69-23.27 10.245-35.34 2.307-8.17 5.9-19.96 9.027-25.46 0.726-7.42 5.486-17.64 5.845-27.61-4.859-5.98 5.536-13.05 2.729-14.24 2.753 3.75-8.317 9.34-1.418 14.05-1.141 4.37-5.25 20.76-1.096 9.05 0.145-6.74 6.076-15.39 3.23-16.92 0.565-2.74 2.143 2.18 0.685-3.35 5.319-2.91 0.016 2.88 3.243 9.09-0.822 1.42-1.956-2.58-2.553 4.25-1.355 2.44 0.27-8.44-1.735-0.98-0.598 6.27-2.027 11.43-0.789 13.75-2.634-1.17-2.296 5.31-0.174 0.62-1.192 3.85-0.833 10.15-2.126 10.48-0.473 3.26-2.134 11.36 1.271 2.82 4.175-12.11 9.312-23.95 11.726-36.54 2.596-4.25 1.994-11.07 0.13-8.32-3.296-6.23 3.354-8.74 2.283-2.44 2.321 5.43 5.369-25.087 4.352-8.9 0.984 3.57 4.596-4.14 2.488 2.94-1.709 4.76-0.33 14.43 0.226 4.26 3.519-9.28-1.616 15.41 4.066 3.64 4.227-2.9 5.712-14.61 7.214-9.16 1.448-1.78 2.487-3.9 3.365-6.01z"></path> <path id="path245" style="fill:#ffffff" d="m126.96 67.44c5.69-8.893 9.74 2.779 1.92 2.879-1.18-0.405-1.78-1.735-1.92-2.879z"></path> <path id="path247" style="fill:#b2b05a" d="m35.52 77.76c-2.646-5.02-6.584-2.26-3.481-7.534-2.538-14.703 6.673 5.587 3.481 7.534z"></path> <path id="path249" style="fill:#989332" d="m85.68 75.84c6.19-3.835-3.287-13.626 5.95-9.618 7.119-3.539 1.244 2.372-2.037 2.799-0.146 1.049-3.954 12.597-3.913 6.819z"></path> <path id="path251" style="fill:#b2b05a" d="m151.44 70.08c3.27-3.084 18.72-3.283 12.05 1.217-7.11-1.764 9.46 11.31-1.26 3.713-3.06-3.667-12.64-7.813-10.07 0.592-4.37-5.342-14.69-0.127-10.35 4.695 5.2-0.405 11.64 6.522 2.02 4.605-3.77-3.591-22.66-0.818-10.67-4.101 1.57-6.455 3.43-10.307 9.71-6.943 5.33-3.624 2.84-3.342 8.57-3.778z"></path> <path id="path253" style="fill:#989332" d="m93.118 68.4c2.147 0.62-9.927 15.411-2.536 14.191-4.716 7.356-4.325-8.501 0.712-10.721 1.903-0.557 0.5-2.739 1.824-3.47z"></path> <path id="path255" style="fill:#b2b05a" d="m94.078 72.24c2.087 2.528 0.84-2.377 4.4 1.379-4.387 3.95-10.259 7.888-7.873 8.151-1.434 3.748 2.404 4.019-1.879 3.468-1.154 0.288 4.216-2.957-0.495-3.514-0.085-5.255 2.053-7.977 5.847-9.484z"></path> <path id="path257" style="fill:#989332" d="m92.397 83.04c3.563-4.618 9.003-2.519 2.162 0.24 5.741-1.998 1.123 1.196 1.094 3.941-2.226-1.174-5.773-0.947-3.256-4.181z"></path> <path id="path259" style="fill:#dcdaa6" d="m90.96 82.56c3.862 0.033-1.455-2.636 3.357-3.12-0.357 2.538 0.754-2.896 2.203-2.463 2.762 1.119 1.36-13.053 2.669-3.388 0.291 3.634-5.602 11.047-8.229 8.971z"></path> <path id="path261" style="fill:#989332" d="m119.76 72.48c-3.13 2.107-14.45 12.135-6.4 4.22 0.23-3.689 15.22-9.373 6.4-4.22z"></path> <path id="path263" style="fill:#d8d066" d="m151.92 72c1.53-4.916 13.76 4.283 4.14 0.13-1.69 5.738-2.11-2.39-4.14-0.13z"></path> <path id="path265" style="fill:#d8d066" d="m151.92 72.48c1.84 5.678 4.46 3.302 6.28 0.345 10.12 10.963-7.31 6.018-6.28-0.345z"></path> <path id="path267" style="fill:#dcdaa6" d="m119.52 81.6c-3.62 0.488-6.82-1.107-9.74-0.01 2.12-4.563 16.96-15.576 12.91-5.943-0.45 5.138-3.77 6.612-0.13 0.611 0.73-11.359-18.75 9.38-7.36 3.904-0.38 2.538 3.03 0.471 4.32 1.438z"></path> <path id="path269" style="fill:#dcdaa6" d="m125.52 79.68c-2.11 5.823-14.55 7.206-4.19 2.525 3.33-2.249 12.58-12.055 10.25-3.042-0.05 2.395-3.11 3.279-6.06 0.517zm3.6 0.96c8.56-6.456-3.51-4.605-3.16-0.951 0.79 0.846 2.04 1.218 3.16 0.951z"></path> <path id="path271" style="fill:#b2b05a" d="m39.84 76.08c4.804-0.446 4.881 10.051 2.64 2.88-2.325 8.739-8.985-3.649-2.64 0.481-4.788 0.296 4.964 2.338 0.113-2.378l-0.113-0.983z"></path> <path id="path273" style="fill:#989332" d="m67.2 80.4c3.209 4.248-5.582 12.388-1.434 4.147 0.313-0.755 0.146-8.16 1.434-4.147z"></path> <path id="path275" style="fill:#dcdaa6" d="m124.8 86.64c-5.64 0.951 4.8-2.156-1.2 2.641-3.43-2.777-14.21-0.312-4.28-2.478 3.35-1.35 7.79-2.902 2.12-0.163 0.5 1.047 3.77 2.071 3.36 0z"></path> <path id="path277" style="fill:#d8d066" d="m42.48 108.72c-2.621-2.16-2.465 8.26-2.864 0.29-5.28 3.4 1.727-7.16 1.851-8.54 0.387 2.71 1.205 5.5 1.013 8.25z"></path> <path id="path279" style="fill:#ffffff" d="m31.68 92.4c-6.107-0.33 3.944-10.686 0.968-1.855l-0.606 0.795-0.362 1.06z"></path> <path id="path281" style="fill:#b2b05a" d="m61.44 95.281c2.507-10.852 2.659 8.069-3.918-0.164-2.569-2.814-4.075-8.774-0.55-5.161-0.404-0.008 2.652 1.492 4.468 5.325z"></path> <path id="path283" style="fill:#989332" d="m23.52 90.72c5.535-6.514-7.137 0.496 1.007-5.391 10.227-2.249 1.093 1.898-1.007 5.391z"></path> <path id="path285" style="fill:#b2b05a" d="m95.998 98.16c3.655-7.343 11.202-1.007 3.07-1.503-2.209 1.512-0.886 1.986 2.502 4.893-5.123-3.413-13.072 7.8-5.413-0.17-0.146-0.41 1.647-2.637-0.159-3.22z"></path> <path id="path287" style="fill:#dcdaa6" d="m94.56 98.16c0.159 3.3-6.879 6.95-6.003 10.32-3.078 4.63-4.301-0.38-5.038 5.76-1.512-6.15 8.575-10.65 11.041-16.08z"></path> <path id="path289" style="fill:#b2b05a" d="m83.04 98.64c-4.561-4.478 5.645-11.9 3.544-6.215-1.814 1.059 5.489 1.277-3.544 6.215z"></path> <path id="path291" style="fill:#b2b05a" d="m115.2 88.8c3.55-1.984 7.21 1.188 3.73 1.141 6.52 2.659-8.95 3.957-3.95 6.625-3.45-1.929-15.676-2.391-8.84-5.149-8.44-2.147 10.92 2.706 9.06-2.617z"></path> <path id="path293" style="fill:#d8d066" d="m35.76 111.12c-3.594-3.28 0.192-15.756 0.225-4.13l-0.019 2.05-0.206 2.08z"></path> <path id="path295" style="fill:#b2b05a" d="m110.64 100.08c4.48-3.086 7.99-2.241 12.09-2.939 5.94-5.47 6.42 4.089 1.11 5.819 8.65-1.47 5.72 5.78-0.59 2.41-1.04 4.24-0.98 8.86-6.77 8.77-4.1 2.84-6.81 9.27-8.95 10.18 1.9-6.39 5.78-6.48-0.6-6.99-2.44-0.79-3.69 3.8-7.331 1.95-1.113 8.52 1.831-3.74 1.311 4.02 2.32 1.21-5.378 18.95-4.939 8.37 0.003-4.93 4.749-8.27-0.708-7.26 2.475-8.08-6.177-1.57-2.97-7.3 5.789 2.96-2.463-5.14-6.37-2.15 2.579-6.6 11.776 5.98 17.027-0.68 4.59 2.95 13.3 2.72 11.69-3.53 6.02-0.47-13.55-1.66-6.88-0.82-1.04 1.16-7.25 2.03-1.92 3.36-10.853-1.37 6.52-5.72 4.87-4.01 3.98 2.49-0.02-4.56-4.87-0.78-3.12 0.88 3.97-1.53-2.16-1.7-3.61 0.63-12.114-1.09-2.88-1.92 0.97-4.56 7.28 2.07 5.56-2.58-2.69-1.75 3.96-0.99 4.28-2.22zm1.44 0.48c2.02 5.28 8.37-0.851 3.61-0.27 6.68-3.494-0.27-3.434-3.61 0.27z"></path> <path id="path297" style="fill:#d8d066" d="m88.08 105.6c4.793-5.31-8.471 1.08-1.622-4.99 2.222-0.982 4.924-8.175 4.743-2.932-0.317 5.622 1.905 1.951 3.028 1.318-2.063 2.174-3.991 4.514-6.149 6.604z"></path> <path id="path299" style="fill:#989332" d="m56.64 102.48c-2.806 4.15-1.87 19.82-4.426 17.19 3.298-5.94 0.034-16.01 2.785-18.88-2.457 2.79-0.544 4.15 1.778-0.46l0.151 0.59-0.288 1.56z"></path> <path id="path301" style="fill:#b2b05a" d="m66 106.32c1.372-4.53 6.134-8.268 2.059-1.37 0.566 0.09-3.477 4.75-2.059 1.37z"></path> <path id="path303" style="fill:#d8d066" d="m47.52 132.48c-2.077 4.92-1.256 6.78 1.2 1.44-2.621 5.11-2.682 10.57-4.605 15.08-0.235-4.31-2.686 4.36-1.228-3.51 0.727-5.39 0.731-15.19 3.817-17.59 0.761 0.35-0.656 8.03 0.816 4.58z"></path> <path id="path305" style="fill:#d8d066" d="m41.28 161.04c-3.008 5.03-3.642 17.52-6.88 20.16 0.572-4.27 3.955-10.9 5.317-17.95l0.652-1.16 0.911-1.05z"></path> <path id="path307" style="fill:#d8d066" d="m34.56 183.12c-0.651 4.85-4.66 18.3-3.838 9.9 2.423 0.11-2.42-7.59 3.838-9.9z"></path> <path id="path309" style="fill:#b2b05a" d="m18 195.6c-4.467 14.14-10.275 27.94-12.241 42.71 0.8791 4.9 2.2102 12.42-0.48 3.85 0.6768-5.99 0.2939-6.53-1.419-1.71 0.0668 1.46 1.4098 3.31-2.4235-1.03-3.5718 0.42 3.4996-11.39 0.1243-1.58 2.8178 3.02 1.178-10.31 4.3952-10.69-1.1898-8.01 5.677-17.85 6.993-26.75 0.657-4.46 6.63-17.22 2.891-5.76-1.095 4.19-8.2279 24.01-3.32 12.24 3.814-10.47 6.897-21.29 11.885-31.28-0.291-4 5.315-7.94 1.447-0.71-1.812 5.18-7.004 20.14-7.256 18.51 3.849-13.01-3.953 6.44-4.819 11.24-1.796 4.28-6.6358 21.62-2.522 9.26 2.34-6.18 3.486-12.51 6.745-18.3z"></path> <path id="path311" style="fill:#b2b05a" d="m31.2 135.12c0.045 4.5-6.107 22.38-3.36 9.84 3.406-4.11 1.261-13.95 2.105-13.28 0.139 2.23 3.98-0.56 1.255 3.44z"></path> <path id="path313" style="fill:#d8d066" d="m33.6 138c-1.056 8.32 0.113 5.6-1.249 14.71-0.649 5.71-5.195 11.9-1.985 2.76 2.518-7.62-3.285 2.53-0.607-4.99 3.629 0.36-2.228-2.51 1.392-7.31-0.065-4.77 2.298-12.04 1.998-4 0.285-0.36-0.034-0.92 0.451-1.17z"></path> <path id="path315" style="fill:#b2b05a" d="m36.48 146.64c-3.053 5.73-6.119 21.61-8.943 21.48 1.087-6.46 4.555-11.31 5.358-19.79 1.33-5.56-1.268-1.92 0.47-8.93 0.9-8.5 1.501-1.48 2.316-2.64-0.256-4.87 10.279-15 2.333-9.34 5.081-2.79 0.204-16.85 4.468-6.23 2.218-4.53 0.026 9.75-4.479 12.7-1.275 2.8-6.844 23.09-1.523 12.75z"></path> <path id="path317" style="fill:#d8d066" d="m41.76 128.16c-1.388 6.42-5.208 22.1-7.355 19.68 1.538-6.75 2.055-14.59 7.355-19.68z"></path> <path id="path319" style="fill:#b2b05a" d="m60.72 110.88c-1.429 5.95-10.746 13.24-2.862 3.99 4.296-2.86-4.457-14.45 1.903-6.63 0.767-4.31 1.542 2.41 0.959 2.64z"></path> <path id="path321" style="fill:#989332" d="m65.76 104.64c-6.299 11.67-2.073-13.947 0 0z"></path> <path id="path323" style="fill:#d8d066" d="m142.32 109.68c3.19-3.85 7.42-8.02 7.96-5.25-1.75-5.927 11.64-1.23 1.4-0.51 1.35 2.69 8.46 2.92 0.4 4.03-2.5-1.79-13.2 9.47-9.76 1.73z"></path> <path id="path325" style="fill:#d8d066" d="m27.12 111.6c-7.066-4.81-2.598 2.39-2.465 2.98-6.239 1.99-8.883-2.13-10.975-3.34 1.47 7.19-4.6814-8.72 4.173-5.48 4.893-1.74 7.633 2.14 9.267 5.84z"></path> <path id="path327" style="fill:#b2b05a" d="m87.12 123.84c2.143-2.12 1.738 8.02 2.351 3.64-1.736-4.97 8.333 0.19 2.466 1.36-3.8 0.24-5.416 3.08-8.001 8.26 2.931 3.1 7.64 19.87 2.829 8.62-2.109-2.88-7.991-16.54-6.733-4.64-2.134 1.38 0.385-6.78-2.773 0.68-1.417 12.55-1.94-7.1 3.719-8.9 2.437-2.88 3.258-6.64 6.142-9.02zm-9.12 14.64c3.618-3.66 11.388-15.56 3.747-5.75-2.517 0.73-6.745 12.67-3.747 5.75z"></path> <path id="path329" style="fill:#b2b05a" d="m78 133.68c-1.006-3.88 5.153-18.17 2.948-7.56 4.811-3.8 9.752-12.41 4.79-3.96-4.823 3.66-6.854 6.94-7.738 11.52z"></path> <path id="path331" style="fill:#d8d066" d="m156.72 108c9.13-0.82 2.95 9.14 5.37 7.5-1.27 1.67-9.61 0.07-3.32 2.09-6 2.77-14.13-5.54-8.71-4.53-9.54 0.36-3.4-1.68 1.51-2.96 5.48-2.64 0.86 3.24 4.52-1.56l0.63-0.54z"></path> <path id="path333" style="fill:#b2b05a" d="m20.64 118.32c13.579-2.91-11.078-0.66-5.941-7.36-0.745 4.18 8.46 4.85 10.888 2.89-6.362-3.18-0.269-5.9 3.713-0.23 2.701 3.09-1.213 9.01-1.295 3.89-4.034 4.45 0.122 7.02-2.723 7.01-1.453-3.69-2.051-1.92 0.881-5.72-4.336 1.92-4.66 3.1-4.173 1.66-2.358 1.48-8.368 5.38-3.747 0.98-5.363 3.16-9.7721 3.86-2.147-0.34 5.002-2.51-7.3848 1.76 0.467-1.82 1.349-0.12 2.939-0.05 4.077-0.96z"></path> <path id="path335" style="fill:#b2b05a" d="m72.96 121.68c-0.225-4.88 2.493-17.73 2.323-5.76-0.506 1.88-0.478 4.59-2.323 5.76z"></path> <path id="path337" style="fill:#989332" d="m80.88 131.04c-5.662 6.85-0.522-6.53 0.152-3.88 2.777-4.09 10.939-13.49 4.364-3.4-1.553 2.37-4.059 4.33-4.516 7.28z"></path> <path id="path339" style="fill:#d8d066" d="m62.4 204c4.124-7.13 8.53-17.14 12.328-25.49 5.828-3.8-5.733 8.78-5.891 15.29-1.151-0.78-3.81 8.48-6.437 10.2z"></path> <path id="path341" style="fill:#d8d066" d="m60 212.4c2.276-7.53-9.88 18.26-4.129 4.32 2.293-2.77 6.066-13.62 7.248-10.8-3.109 1.14-0.567 4.04-3.119 6.48z"></path> <path id="path343" style="fill:#b2b05a" d="m23.04 254.16c6.17-4.54 9.171-11.08 14.768-17.06 2.228-4.07 8.999-11.16 3.196-2.58-4.274 7.47-12.102 12.99-14.555 19.73 6.012-3.31 12.069-15.75 15.176-16.11-1.872 3.02-10.593 13.75-3.694 8.09 6.42-5.69 10.589-19.12 15.423-22.31-3.375 6.14-8.816 16.26-9.86 19.71 2.314-3.77 10.406-17.45 5.012-6.23-3.833 5.85-13.632 19.77-17.94 18.31 4.406-3.14 12.782-13.28 3.772-4.99-5.285 5.78-9.485 9.59-6.383 4.11-3.578 4.42-6.836 2.17-4.915-0.67z"></path> <path id="path345" style="fill:#989332" d="m28.8 240.96c-8.727 11.74-1.795-8.19-1.907-10.21 0.477 5.66 0.045 8.62 2.862 1.34 2.501-2.85-5.452 12.18 1.75 4.06 3.112-3.86 11.174-22.68 5.909-9.05-2.023 5.92-5.072 9.2-8.614 13.86z"></path> <path id="path347" style="fill:#b2b05a" d="m44.88 220.56c-4.554 7.15-6.805 14.48-11.804 18.17 2.049 1.49-5.83 4.46-0.195 0.31-9.231 5.92 9.082-9.02-1.269-1.53-7.168 7.09 5.344-4.67 5.172-9.15 2.57-4.05 3.679-10.92 0.668-2.91-0.872 5-12.907 20.07-7.283 7.53 1.639-6.54-4.891 10.96-2.831 0.66-1.416-8.61-1.529 9.15-3.579 11.64 5.461-3.13-4.793 5.49 0.311-2.88 2.696-3.05 1.325-18.75-0.222-11.51 1.642-0.12-3.166 10.6-2.184 2.31 1.557-5.06 1.102-12.28-0.497-3.29-2.148 7.13-1.484-7.86-0.177-5.25 0.07-4.27 5.06-19.23 0.225-7.09-1.609 9.73-4.756 14.28-5.741 25.06-0.511 3.56 1.554 16.75 0.976 6.18 0.231-5.15 1.079-9.92 3.469-15.77-1.922 4.16-0.233 19.49 0.713 8.15 1.688-9.16 2.248 10.87 0.126 11.28 0.477 2.31 7.178-5.11 1.503 1.62 1.793 1.4-8.44 4.28-10.553 1.87 14.571 2.04-5.7358-5.13-6.0695-5.06-0.1449 2.61 2.4203 2.59 2.5786 4.25-0.5904 4.22 15.39 1.25 4.3779 3.76 3.243 3.48 8.969-1.7 10.822 0.93 2.901 4.9 11.028-6.04 5.895 1.06-3.742 5.89 0.813 1.08-1.501 0.44-1.917 3.81-7.795 8.79-5.89 9.46 2.861-0.01-15.662 6.4-6.973-1.15 4.748-7.07 1.304-9.32-5.8109-11.35-2.0093-2.58-9.7255-11.51-6.024-7.61 1.5354 1.4 0.9935-3.52 4.5639-0.13-0.9327-3.79-0.1414-1.73 0.8409-2.93 1.0784 7.43 1.7081-4.35 2.6821 3.49 4.802 3.27 1.927-10.17 4.141-14.24 2.072-8.5 3.217-18.95 6.325-25.58 2.272-7.93 7.502-25.17 9.718-26.48-2.064 4.96-5.149 16.71 0.004 5.34 1.264 0.78-2.734 8.05 0.05 4.24 1.235 3.3-1.115 9.39-2.4 16.08 3.172-9.88 9.206-12.84 12.302-20.69 1.147-6.06 2.866-5.87 2.601-8.58 4.16-7.06 1.107 4.58-1.9 9.81-4.526 11.4-10.221 22.3-14.923 33.62 1.266-5.07 7.614-17.6 1.59-6.02-4.709 3.58-3.177 8.68-0.165 13.72 6.464-5.31 10.553-21.81 13.671-22.86-1.723 6.73-10.267 17.99-8.91 20.99 3.857-1.15 8.168-19.97 9.852-17.72-0.095 2.94 3.461-11.24 5.288-15.17 1.929-4.82 4.899-17.81 6.8-17.54-1.802 4.91-7.432 24.29-2.557 10.38 2.9-8.76 5.755-17.57 9.174-26.14-1.955-2.06 5.363-6.92 5.978-5.16-7.855 6.68-9.056 18.81-12.569 28.15-2.096 4.59-6.18 18.8-4.299 17.27 0.944-3.85 3.507-10.56 2.309-2.7 4.924-7.23 4.783-9.13 7.606-15.27 2.147-5.71 4.32-11.46 2.609-1.99-3.274 10.2-9.806 19.15-14.67 28.69-6.889 8.68 6.08-7.84 3.912-10.72 2.898-13.75-7.092 18.5-3.058 4.58 0.54-4.38 2.265-12.44-0.704-3.53-0.576 4.86-7.457 19.67-5.54 18.43l0.668-1 0.777-0.47zm-5.04 4.56c-2.943 4.29-8.013 15.32-1.023 5.64 2.212-0.42 1.809-11.28 1.023-5.64zm8.88-24.24c-1.236 5.12-7.178 23.46-2.268 9.61 1.008-2.08 5.789-19.35 2.268-9.61zm-23.76 6.96c1.582-3.65 4.79-17.96 1.376-6.8-2.921 2.41-3.454 17.94-1.376 6.8zm6.72 2.88c2.842-3.18 8.231-17.64 2.54-6.67-0.865 0.58-5.493 9.95-2.54 6.67z"></path> <path id="path349" style="fill:#989332" d="m46.32 217.2c-1.392 5.07-6.173 8.48-2.153 1.68 2.129-4.94 5.171-20.25 6.811-18.16-0.745 4.85-4.767 15.96-0.338 5.43 0.748-5.73 4.082-10.98 1.68-2.16 2.458 1.77-6.104 9.89-6 13.21z"></path> <path id="path351" style="fill:#d8d066" d="m60.96 165.36c-1.771-7.49 6.192-6.29 7.936-9.42 3.46-0.05-0.284 13.61 1.953 18.14-4.065 6.43-9.329 17.43-7.01 4.23-2.269 8.8-5.159 13.02-7.053 17.6-2.546 6.34-3.242 5.94-3.806 1.94-0.745 4.63-4.38 12.34-2.113 3.2 3.095-10.84 6.599-21.49 10.512-32.17 0.808-4.99 11.382-15.01 2.337-8.14-2.83 3.96-1.095-1.2-2.756 4.62z"></path> <path id="path353" style="fill:#d8d066" d="m55.68 180.72c2.055-5.51-1.381-3.63 1.516-7.66 0.197-3.95 2.623-3.93 2.278-8.02 2.818 3.4-2.637 11.1-3.794 15.68z"></path> <path id="path355" style="fill:#d8d066" d="m60 124.8c2.16 8.24-3.638 23.16-0.721 27.6-3.897 8.5-8.746 22.29-13.972 27.04-1.155 1.45-1.778 2.45-1.353 4.36-2.426 0.31-3.079 12.58-6.988 12.4-2.541 5.03-6.87 10.2-7.961 13.32 2.181-7.25 6.726-15.35 9.874-23.52-2.598 4.51 1.323-7.65-2.76 1.21-0.026-3.95 5.23-15.96 5.64-24.01 3.554-7.11 4.941-19.88 8.646-28.77 0.636-6.08 5.757-6.24 6.838-7.63 3.329-5.89-2.46 8.87 2.22-0.87l0.537-1.13z"></path> <path id="path357" style="fill:#b2b05a" d="m47.52 132.24c3.824-4.46 10.362-8.07 13.441-13.44 0.632 4.77-5.536 15.87-2.64 6-1.287 5.13-6.495 1.62-7.967 9.32-3.453 10.12-5.986 23.03-8.99 31.39-0.228 7.12-5.661 18.24-5.245 21.7 6.205-11.25-3.539 11.78 0.822 1.06-0.702-2.16-3.609 6.04-2.381-0.84 3.424-10.31-5.603 14.8-1.355 1.6 1.999-8.54 4.854-16.61 6.428-23.88 1.651-7.63 5.715-17.12 6.605-25.4 1.687-2.02 3.856-9.14-0.159-1.98-0.198-1.99 1.371-3.58 1.441-5.53z"></path> <path id="path359" style="fill:#b2b05a" d="m63.6 135.84c5.109-6.29-0.122-12.91 5.219-18.14 0.596 4.93-2.251 12.04 2.095 3.35 2.183 6.69-11.889 16.65-6.525 22.23 6.146-9.54-6.036 19.19-2.695 3.61 0.133-3.84 1.041-7.41 1.906-11.05z"></path> <path id="path361" style="fill:#d8d066" d="m63.6 135.84c-1.247 4.04-2.655 22-3.68 9.54 1.425-2.41 1.756 2.46 2.371-4.02 0.315-1.83 0.15-3.95 1.309-5.52z"></path> <path id="path363" style="fill:#d8d066" d="m71.52 126.48c0.685 4.57-2.352 7.51 1.024 5.51-1.327 3.21-4.739 4.75-6.545 10.81 2.297-7.03-4.521 6.96-2.584-2.08 0.622-5.12 3.509-13.42 8.105-14.24z"></path> <path id="path365" style="fill:#d8d066" d="m68.4 154.8c-5.095 5.27-0.954-9.66-4.781-1.62 1.787-5.07 4.437-15.63 8.621-17.34-1.431 5.92-2.582 6.94-1.574 7.96 0.056 3.29-6.92 11.01-2.266 11z"></path> <path id="path367" style="fill:#d8d066" d="m69.12 154.8c3.19-2.52-2.927-0.06 0.762-5.71 3.246-12.77 2.288 4.48-0.762 5.71z"></path> <path id="path369" style="fill:#b2b05a" d="m78 120c1.232 5.33-4.503 12.48-4.32 4.32 3.133 6 0.683-6.31 4.32-4.32z"></path> <path id="path371" style="fill:#b2b05a" d="m146.88 114c-9.92-3.07 15.21 9.3 3.99 6.71-3.03-4.89-13.02-5.2-12.22-7.19 4.14-3.36 2.74-3.75 3.81-1.24 5.59-4.9 14.5-2.79 14.58-8.18 1.94-3.27-2.52 9.69-2.56 5.84-0.81-1.11-17.58 4.26-4.42 3.13 3.78 1.74-2.99-0.27-3.18 0.93z"></path> <path id="path373" style="fill:#b2b05a" d="m38.88 118.32c0.377 4.75-4.247 18.36-2.16 6.29 0.204-2.89-3.017-3.66-4.038-0.49-0.683-3.29-0.018-1.2 2.575-5 2.4 4.38 0.884-5.31 2.423 1.36 1.025-0.24 0.781-1.48 1.2-2.16z"></path> <path id="path375" style="fill:#989332" d="m31.92 122.16c-6.058 4.58-7.898 1.82-1.8-2.04 2.004-3.64 5.544-4.88 1.8-0.6 2.125-3.44 9.704-3.99 5.76 0.96-1.609-6.58 0.293 3.43-2.88-1.68-2.606 1.9-1.153 4.98-2.88 3.36z"></path> <path id="path377" style="fill:#d8d066" d="m26.4 123.6c2.139-5 14.925-13.39 15.127-8.87-2.392 2.21 0.533 8.41-3.369 13.19 8.007-9.6-5.061 12.69-3.285 8.29-0.842-2.67-0.253-2.34 0.911-1.18-1.185-4.92-0.251-10.7-1.012-10.45-4.072-3.21 0.577 8.08-2.615 2.14 0.436 5.4 1.847 1.66-0.96 8.4 0.494-4.68-4.272-4.69-0.54-0.64-7.782 0.3 4.489-16.61 5.48-11.37 1.009 1.08-1.036 12.75 1.797 2.42 2.557-6.67-0.263-12.05-6.018-6.01 4.796-7.13-2.458 1.01-4.506 3.01l-1.01 1.07z"></path> <path id="path379" style="fill:#d8d066" d="m20.64 118.32c-4.143 1.36-10.068 3.06-2.88 2.16-5.603 1.39-8.8135 6.95-1.43 1.57 3.299-1.29-2.621 4.18 3.478-0.31 8.183-6.8-10.189 11.8-0.298 3.8 1.165 0.92-18.056 11.33-14.89 1.82 0.3738-8.72 10.031-7.57 16.02-9.04z"></path> <path id="path381" style="fill:#989332" d="m23.28 122.4c-2.945 4.57-10.385 7.64-4.175 0.65 2.753-2.54 10.462-6.45 4.175-0.65z"></path> <path id="path383" style="fill:#b2b05a" d="m146.88 126.24c-7.87 1.94-19.11-10.94-26.4 1.44 7.44-0.46 4.23 4.13-1.41-0.01-2.92-1.43 7.64-8.44 13.53-7.6 7.29-1.77 7.25 7.8 14.28 6.17z"></path> <path id="path385" style="fill:#dcdaa6" d="m117.36 127.44c-9.25 3.07-7.75-2.81-0.37-5.29 14.29-5.07-15.07 5.13-1.77 5.4 3.67-2.43 14.91-8.74 7.6-7.14 10.58-3.39-2.87 4.8-4.77 6.12l-0.38 0.2-0.31 0.71z"></path> <path id="path387" style="fill:#ffffff" d="m122.16 120.72c11.09-3.59-13.73 13.41-9.36 3.79 3.32-1.46 5.94-3.03 9.36-3.79z"></path> <path id="path389" style="fill:#d8d066" d="m138.72 121.2c2.62 1.03 11.72 0.3 6 4.08-0.35-5.16 0.05 2.13-4.08-1.92 1.66 3.42 13.66 1.02 4.97 2.89-2.48-0.3-7.39-1.89-6.89-5.05z"></path> <path id="path391" style="fill:#b2b05a" d="m109.2 128.4c-8.84-0.74-12.393 13.48-16.349 13.57 0.63-4.13 1.275-12.13-1.086-2.03-0.991 0.13 4.035-14.77 2.356-3.39 5.771 7.06 3.9-12.41 11.159-7.26l2.42-0.55 1.5-0.34z"></path> <path id="path393" style="fill:#dcdaa6" d="m103.92 129.36c-0.09-1.92 7.96-8.9 7.01-5.02-5.72 2.95 2.9 3.78-5.62 4.67l-1.39 0.35z"></path> <path id="path395" style="fill:#b2b05a" d="m71.76 130.32c6.867 3.25-4.994 20.7-1.673 23.23-8.133 6.85 3.862-14.24-0.487-9.79 2.682-5.34 2.217-7.95 2.64-12.48-2.313 4.23-2.025 1.63-0.48-0.96z"></path> <path id="path397" style="fill:#dcdaa6" d="m106.32 130.32c11.82-3.97 5.19 4.26-1.98 6.87-3.26 3.78-11.223 14.13-13.009 12.58 1.363-9.83 14.489-11.14 14.989-19.45zm2.64 2.88c11.37-4.7-5.66-5.18-1.89 1.33 0.79-0.07 1.64-0.52 1.89-1.33z"></path> <path id="path399" style="fill:#b2b05a" d="m103.2 138.24c3.15-4.65 10.23-5.01 2.89-0.35-3.36 3.84 1.77-4.18-2.89 0.35z"></path> <path id="path401" style="fill:#d8d066" d="m102.96 138.96c3.73 3.33-3.466 10.73-2.91 10.18 0.22 1.19-12.519 4.2-2.282 3.44 2.802 1.28 7.722 6.49 2.312 4.14 4.63 5.23 3.07-2.6 2.76-2.33 3.27 1.89 10.23 7.97 5.64-0.31 4.78 1.61 4.78 4.37 5.17 4.65 1.02-3.36 5.28-6.39 1.54-1.29 3.11-2.98 6.48-5.06 1.17 0.89-3.94-0.24-3.53 6.92-4.18 4.56-2.01-1.19-4.03-1.22-6.42-3.9-4.16-2.25 2.36 3.32-5.43 1.85-0.68-1.57-0.397-2.14-3.12-2.1 2.96 4.91-4.285-5.1-4.048-2.87 7.498-0.09-4.805-3.73-4.516-1.06-2.352-3.08-3.612-3.34-5.842 2.83 5.728-2.06-0.168 12.6-1.23 9.3-4.432 6.52-0.607-0.18-0.529-2.38-2.303 4.1-0.067-5.38-2.094 1.27-1.5-1.92-2.003 5.22-4.275 0.49 1.016 8.52-2.711-6.5-0.851-7.14-3.488-6.24 4.013-5.08-1.356-8.47 4.869-0.99 0.865-7.31 3.6-12.48 0.385 2.49 2.503-4.38 0.427 2.63-1.045 8.66 0.567 4.63 1.624-1.36 2.058-2.98 1.127 6.06 1.673-1.04 1.868-7.39 6.606 9.37 9.234 12.01 0.697-3.02 2.026-4.98 2.881-9.6-1.824 5.42 1.103 6.54-0.414 8.05-1.741 5.13 8.646-2.35 11.286-3.3-5.992-0.95 3.18-2.73-1.52-2.11 6.11-9.08-13.889 12.41-5.061 3.04 1.91-2.98 5.231-4.43 6.761-7.59zm-22.32 0.24c1.884 6.68 6.342 7.05 1.2 0 3.587-0.52-4.246-3.35-1.2 0z"></path> <path id="path403" style="fill:#989332" d="m98.88 138.96c-4.186 1.78-8.704 15.29-7.47 3.98-0.44-6.19 3.742-12.31 1.471-2.78 0.673 7.33 6.594-10.02 12.269-10.61 4.34-2.13 11.81-0.98 2.89-0.29-5.76 0.92-5.82 6.64-9.16 9.7z"></path> <path id="path405" style="fill:#b2b05a" d="m98.88 138.96c1.48-4.6 10.94-12.88 5.73-3.64-2.33 0.63-3.68 2.55-5.73 3.64z"></path> <path id="path407" style="fill:#989332" d="m112.56 133.92c-1.34 4.43-13.816 9.07-6.96 2.88-4.48 5.97 16.92-12.97 7.92-3.91l-0.96 1.03z"></path> <path id="path409" style="fill:#b2b05a" d="m93.358 149.76c2.912-3.59 11.692-12.29 8.792-6.46 2.35 0.45-4.876 1.2 0.64 2.33-2.52 1.24-7.102 4.38-9.432 4.13z"></path> <path id="path411" style="fill:#b2b05a" d="m113.76 149.04c-10.34 2.94 0.36 4.89-0.29 8.48-0.81-1.25-7.53-6.5-3.51 1.33-3.07-1.35-10.293-8.27-6.22-0.64-5.963-0.62-1.22-1.04-1.34-1.77-2.26-5.55-15.335-2.77-4.241-6.27 4.011 1.98 15.031-1.42 15.601-1.13z"></path> <path id="path413" style="fill:#989332" d="m92.64 156.72c-0.327 5.74-7.824 10.25-8.144 14.89-2.892 5.81-13.662 16.98-7.08 6.29 2.974-5.6 13.034-16.22 10.365-17.94-1.529 3.74-6.619 13.01-2.578 3.48-0.17-0.64 2.198-8.07 1.44-3.12 0.367-4.17 1.204-4.78 3.889-5.78-3.411-4.25 11.568 3 2.647 1.26l-0.539 0.92z"></path> <path id="path415" style="fill:#b2b05a" d="m90.479 154.56c-1.962 1.34-4.025 1.19-3.84 5.76 0.605-4.69-1.676 2.99-2.161 5.04-3.664 9.45 7.935-15.63 3.156-2.49-3.817 7-9.748 12.33-12.713 19.99 2.888 0.14-7.559 11.48-8.026 17.57-1.21 4.03-6.704 17.17-7.902 14.14 3.99-7.69 2.907-9.8 7.493-17.65 2.745-3.94 4.521-11.53 10.014-18.15-2.697-0.65 8.756-9.19 8.21-17.42 3.767-5.46-5.585-1.45-0.174-7.73 6.828-3.23-4-0.67 5.943 0.94z"></path> <path id="path417" style="fill:#d8d066" d="m71.76 183.12c-7.724 8.81 7.271-14.99 1.766-3.77-0.167 0.97-2.639 2.74-1.766 3.77z"></path> <path id="path419" style="fill:#989332" d="m35.04 191.76c-2.006 6.33-5.793 6.55-2.385-0.35 0.983-4.55 4.798-10.15 1.763-2.49-0.563 4.05 4.637-5.19 1.276 1.67l-0.654 1.17z"></path> <path id="path421" style="fill:#dcdaa6" d="m37.44 187.92c3.329-3.14-4.782 10.43-5.407 13.97-4.418 7.98 1.398-9.78 4.345-11.87l1.062-2.1z"></path> <path id="path423" style="fill:#d8d066" d="m30.72 211.68c0.598-4.72 9.865-18.4 4.363-6.98-1.915 2.01-1.932 5.56-4.363 6.98z"></path> <path id="path425" style="fill:#989332" d="m40.56 223.2c3.131 5.37-10.531 17.61-3.396 7.25 1.093-2.41 1.659-5.18 3.396-7.25z"></path> <path id="path427" style="fill:#b2b05a" d="m1.68 251.04c1.9357 8.53-2.5964 19.96 9.84 22.07-10.447-0.97-13.494-9.69-9.1506-17.34-0.9191-1.92 0.6812-3.2-0.6894-4.73z"></path> <path id="path429" style="fill:#989332" d="m46.08 241.44c-3.086 9.23-11.993 13.79-18.889 19.81-4.2-0.01-6.089-4.27-11.092-0.57-9.7671-0.68 10.335-8 7.203-5.18-1.532 4.95 10.277-4.97 3.13 2.02 0.387 3.2 11.737-13.08 12.166-9.4-3 2.41-13.246 12.75-4.452 6.39 4.779-3.39 8.741-9.98 11.934-13.07z"></path> <path id="path431" style="fill:#989332" d="m0 239.52c3.0967-0.58 6.0094 6.27 3.36 0.48 2.007 0.87 2.5448-8.24 2.1131 0.28-1.0744 4.41 6.0899 12.15-1.8731 9.32 1.7123 4.14-4.2887-4.67-1.5213 3.53 2.0564 5.83-3.462 12.84-2.0791 3.31 0.0004-5.64 0.0004-11.28 0.0004-16.92z"></path> <path id="path433" style="fill:#dcdaa6" d="m17.52 257.52c-8.522 2.84-8.8987-4.09-11.217-4.11-2.9464-7.34 3.981 2.11 9.45 1.53 6.694 1.56-11.56 0.97-0.849 2 2.403 0.25 7.885-2.52 2.616 0.58"></path> <path id="path435" style="fill:#989332" d="m27.36 264.48c-2.053 4.58-9.57 10.4-4.08 2.16 0.12 2.4 8.125-11.16 4.08-2.16z"></path> <path id="path437" style="fill:#b2b05a" d="m112.56 39.84c0.72-4.006 1.78-3.577 2.64-8.16-4.61 5.909 5.16-6.715 0.48-0.24 9.26-9.057-1.96 6.941-3.12 8.4z"></path> <path id="path439" style="fill:#dcdaa6" d="m61.92 41.281c8.405-0.004-5.334 9.638 0 0z"></path> <path id="path441" style="fill:#ffffff" d="m120 80.88c-2.28 0.494-13.74 1.04-6.17-3.403 5.25-7.747 13.41-4.944 6.17 3.403z"></path> <path id="path443" style="fill:#989332" d="m83.04 111.12c-5.449 1.55 3.663-13.155 0.349-1.82l-0.349 1.82z"></path> <path id="path445" style="fill:#989332" d="m27.12 224.64c-2.586 6.36-1.923-6.4 0.867-4.94 2.039-3.79 5.254-10.24 2.217-2.58-1.323 2.35-3.091 4.69-3.084 7.52z"></path> <path id="path447" style="fill:#b2b05a" d="m35.52 39.36c-1.834 1.653 5.469-15.024 3.354-3.612-0.726 2.424-0.33 4.121-3.354 3.612z"></path> <path id="path449" style="fill:#b2b05a" d="m77.04 47.52c3.21 0.976-2.396 10.302-2.801 3.059 0.266-1.245 1.19-3.179 2.801-3.059z"></path> <path id="path451" style="fill:#d8d066" d="m4.08 55.44c9.878 0.749 4.1636 5.022-0.9171 2.163-0.9634-1.815 2.1894 1.154 0.9171-2.163z"></path> <path id="path453" style="fill:#b2b05a" d="m85.2 64.32c-3.158-1.773-7.96-8.205 0.415-7.346 6.695-4.383 2.071 4.049 7.356-1.063 1.994-0.372-0.758 6.666-2.012 3.609-4.526-4.305-2.631 9.357-4.75 1.537-1.839 0.321-0.041 2.345-1.009 3.263z"></path> <path id="path455" style="fill:#b2b05a" d="m57.12 82.56c0.676-3.352 5.229-7.883 6.959-4.214-1.942-0.687-4.036 9.515-4.8 3.734-0.397 3.82-6.075 5.16-2.16 0.719-6.154 8.483 1.899-9.085 0.001-0.239z"></path> <path id="path457" style="fill:#d8d066" d="m46.56 104.4c-4.89 2.89-2.24 0.65-2.698-1.75 0.635-5.317 6.621-4.203 2.698 1.75z"></path> <path id="path459" style="fill:#989332" d="m0 61.92c3.6125-5.622 14.016-2.649 3.317-0.396 0.0661 1.306-4.4295 4.562-3.317 0.396z"></path> <path id="path461" style="fill:#989332" d="m115.92 97.44c6.47-0.559-5.02 6.11 2.4 2.64-3.58 6.35-10.84 1.43-2.4-2.64z"></path> <path id="path463" style="fill:#dcdaa6" d="m115.2 39.12c-4.17 5.85 7.27-19.224 5.18-5.977-0.68 2.839-3.29 4.078-5.18 5.977z"></path> <path id="path465" style="fill:#dcdaa6" d="m79.2 67.44c-1.961 4.171-12.433 8.967-8.88 4.559 4.516 1.281 14.932-16.457 8.88-4.559z"></path> <path id="path467" style="fill:#dcdaa6" d="m66 79.68c1.789 10.854-8.076 5.496-3.359 2.16 5.73 2.983-1.781-12.709 3.359-2.16z"></path> <path id="path469" style="fill:#dcdaa6" d="m113.28 110.88c3.46 6.45-4.2 2.32-6.11 1.86-2.85-2.67 4.46-2.65 6.11-1.86z"></path> </g> </g> </g> </g> </g> <metadata></metadata></svg> 