<?xml version="1.0" encoding="UTF-8" standalone="no"?> <!-- Created with Inkscape (http://www.inkscape.org/) --> <svg xmlns:inkscape="http://www.inkscape.org/namespaces/inkscape" xmlns:rdf="http://www.w3.org/1999/02/22-rdf-syntax-ns#" xmlns="http://www.w3.org/2000/svg" xmlns:sodipodi="http://sodipodi.sourceforge.net/DTD/sodipodi-0.dtd" xmlns:cc="http://web.resource.org/cc/" xmlns:xlink="http://www.w3.org/1999/xlink" xmlns:dc="http://purl.org/dc/elements/1.1/" xmlns:svg="http://www.w3.org/2000/svg" xmlns:ns1="http://sozi.baierouge.fr" id="svg19204" sodipodi:modified="true" viewBox="0 0 211.78 195.94" sodipodi:version="0.32" inkscape:version="0.45"><defs id="defs19206"><radialGradient id="radialGradient19198" xlink:href="#linearGradient7982" gradientUnits="userSpaceOnUse" cy="585.19" cx="255.26" gradientTransform="matrix(1.5665 -.16022 .028983 1.8754 -161.29 -475.54)" r="106" inkscape:collect="always"></radialGradient><linearGradient id="linearGradient7982"><stop id="stop7984" style="stop-color:#7fffff" offset="0"></stop><stop id="stop7986" style="stop-color:#0000ff" offset="1"></stop></linearGradient><linearGradient id="linearGradient19196" y2="568.38" xlink:href="#linearGradient7982" gradientUnits="userSpaceOnUse" x2="459.5" gradientTransform="matrix(.99839 0 0 1.0977 -38.774 51.619)" y1="568.38" x1="247.46" inkscape:collect="always"></linearGradient></defs><g id="layer1" inkscape:label="Layer 1" inkscape:groupmode="layer" transform="translate(-179.82 -157.25)"><g id="g19200" transform="translate(-28.465 -366.91)"><path id="path7240" d="m314.16 559.69c-0.21 0-0.42 0.04-0.63 0.04h-104.7v109.11h0.31c-0.12 2.22-0.22 4.41-0.31 6.66-1.01 25.53 46.17 44.08 104.32 44.08 58.14 0 108.36-17.54 106.34-44.08-0.17-2.24-0.2-4.44-0.31-6.66h0.31v-109.11h-104.71c-0.21 0-0.41-0.04-0.62-0.04z" sodipodi:nodetypes="cccccsssccccc" style="stroke:#000000;stroke-width:1.0468;fill:url(#linearGradient19196)"></path><path id="path5773" sodipodi:rx="105.5" sodipodi:ry="105.5" style="stroke:#000000;fill:url(#radialGradient19198)" sodipodi:type="arc" d="m442.5 528.86a105.5 105.5 0 1 1 -211 0 105.5 105.5 0 1 1 211 0z" transform="matrix(1.0006 0 0 .34342 -23.037 379.06)" sodipodi:cy="528.86218" sodipodi:cx="337"></path></g></g><metadata></metadata></svg> 