<?xml version="1.0" encoding="UTF-8" standalone="no"?> <svg xmlns:inkscape="http://www.inkscape.org/namespaces/inkscape" xmlns:rdf="http://www.w3.org/1999/02/22-rdf-syntax-ns#" xmlns="http://www.w3.org/2000/svg" xmlns:cc="http://web.resource.org/cc/" xmlns:dc="http://purl.org/dc/elements/1.1/" xmlns:sodipodi="http://sodipodi.sourceforge.net/DTD/sodipodi-0.dtd" xmlns:svg="http://www.w3.org/2000/svg" xmlns:ns1="http://sozi.baierouge.fr" xmlns:xlink="http://www.w3.org/1999/xlink" id="svg12053" sodipodi:docname="candle_4.svg" sodipodi:version="0.32" inkscape:output_extension="org.inkscape.output.svg.inkscape" inkscape:version="0.45+devel" viewBox="0 0 120 182" sodipodi:docbase="H:\oots\ref"><path id="path3277" sodipodi:nodetypes="csccccccccsccssccssssssc" style="fill:#e3dedb" d="m100.42 147.26c-6.144 0.14-10.513 4.3-15.158 7.83 0 0-19.9-0.22-26.54-0.3l-1.539 0.04 0.401 0.8 1.071 0.03-27.543 0.91-0.168-0.57c-0.484 0.01-0.551 0.02-1.037 0.03 0.128-0.19 0.221-0.39 0.335-0.57-9.454 0.46-19.12 1.83-27.711 3.72-2.3154 0.51-3.2356 4.77-1.9414 6.69 4.1812 5.03 5.6031 7.15 12.851 11.21 6.191 3.73 19.387 3.34 35.408 3.11 10.688-0.15 18.91-0.4 27.276-4.58 5.743-2.87 9.14-6.67 11.714-10.41 3.176-6.37 5.318-11.06 12.481-13.96 4.76 0 8.64 2.74 8.64 6.13s-2.24 6.43-7 6.43c-3.412 0-1.91-3.09-0.77-6.5 0.86-2.58-6.042-0.66-7.16 1.41-1.681 3.1 4.222 8.03 8.03 8.03 6.82 0 10.71-4.58 10.71-9.87 0-5.3-5.53-9.61-12.35-9.61z"></path><path id="path3270" style="fill:#ffeeaa" d="m50.154 67.878c-1.329 0.038-2.704 0.209-3.949 0.368-3.058 0.789-5.805 0.233-9.237-0.201-4.557 0.354-9.235 1.79-11.077 6.359-3.405 6.466 5.281 12.083 2.476 18.809 0.157 6.097-8.654 13.387-1.506 17.937 5.66 2.78 2.933 9.29 4.418 14.22 0.518 5.65 0.503 11.35 0.201 17.01h-0.101l-0.769 2.41c0.232 3.74 0.182 6.95 0.2 9.9-0.403 0.49-0.6 0.89-0.903 1.34 0.486-0.01 0.553-0.02 1.037-0.03l0.168 0.57 0.2 3.04c0.226 1.22 0.36 3.45 1.239 5.02h-0.301l1.271 1.61h23.929l0.469-1.94c-0.155 0.01-0.178 0.02-0.335 0.03 1.033-1.72 1.004-5.72 1.004-5.72h0.67l0.133-0.6-0.736-2.35-1.071-0.03-0.97-2.01v-10.31c0.838-3.82-1.943-9.21 0.602-12.88 0.592-5.19-1.551-13.42 5.556-14.16 4.547-5.81-3.409-11.44-3.247-17.569-0.345-5.389-3.845-10.264-2.945-15.729 0.793-4.426 2.646-10.109-1.037-13.621-1.083-1.233-3.173-1.536-5.389-1.473z"></path><g id="g2243" transform="matrix(.97373 -.22769 .22769 .97373 -16.816 27.545)"><path id="path13120" d="m87.094-5.8438c-0.407 0.0296-0.807 0.1219-1.188 0.2813-3.203 5.5893-10.625 4.1991-15.5 7.125-3.362 4.7722-3.857 12.32-10.187 14.406-5.857 0.703-12.11 1.948-15.844 6.97-3.35 3.849-8.885 9.082-5.969 14.562 2.993 3.217 8.128 10.437 2.094 12.719l1.826 0.634s-0.259 5.091 1.049 5.209c0.972 0.089 2.436-4.787 2.436-4.787l1.72-0.4s0.585-0.084 0.657-0.094c-1.158-0.288-1.972-0.872-1.5-2.656 4.486-2.72 10.789 1.371 14.75-2.875 3.683-4.411 9.743-7.552 10.312-13.844 3.171-5.533 11.512-7.115 12.312-14.156 0.495-5.289-4.622-10.28-1.874-15.469 1.027-4.0804 8.007-3.3739 8.343-6.4998-0.936-0.7581-2.216-1.2135-3.437-1.125z" sodipodi:nodetypes="ccccccccccccccccccc" style="fill:#000000" transform="matrix(1.071 0 0 1.071 0 -.0024023)"></path><path id="path12073" style="fill:#ffba00" d="m61 49.04c1.577-1.53 3.58-2.605 4.978-4.314-1.166-0.756-3.597 0.743-5.244 0.898-1.144 0.455-1.676 0.11-0.336-0.374 4.717-2.188 10.117-4.204 12.864-8.941 1.168-2.117 1.357-4.684 2.996-6.565 1.572-2.102 3.802-3.719 6.315-4.495 3.274-2.569 5.266-7.11 4.204-11.224-0.955-2.858-3.7-5.5586-2.503-8.778 1.825-2.491-1.451-3.5594-3.275-2.2966-1.982 0.8536-4.592 1.0506-5.214 3.5168-1.188 2.7901-1.279 6.3108-3.911 8.2688-3.478 3.525-8.179 6.014-13.135 6.465-0.775 0.188-2.593-0.465-1.145-1.177-3.859 1.031-5.67 4.992-8.763 7.174-2.287 1.984-4.216 4.455-5.249 7.323-1.27 1.595-0.629 3.929 0.256 5.565 1.741 2.343 1.764-1.882 2.448-2.96 1.112-3.185 3.097-6.141 6-7.933 1.727-1.751 4.364-3.37 6.842-2.144 2.182 1.283 4.52-0.88 5.971-2.404 1.584-1.796 3.307-3.558 5.594-4.423 1.995-0.619 3.6-2.2 4.685-3.687 2.688-0.223 2.049 3.309 1.33 4.866-0.736 1.937-2.242 3.402-3.396 5.088-1.366 1.729-2.835 3.392-3.952 5.301 0.294 2.638 0.642 6.013-1.785 7.801-2.271 0.994-4.431 2.224-6.332 3.865-1.966 1.52-4.079 3.028-6.572 3.494 1.859 1.24 4.137 1.799 6.329 2.09z"></path><path id="path12075" style="fill:#ff0017" d="m51 44.04c2.275-2.058 5.462-2.308 8.247-3.269 2.05-0.334 3.954-1.399 5.329-2.957 0.634-0.711 1.197-1.49 1.694-2.297 0.628-1.457-0.63-3.101 0.283-4.506 0.44-0.584 0.287-1.434 0.791-2.025 0.899-1.482 2.702-2.368 3.094-4.152 0.138-0.715-0.839 0.403-1.182 0.517-2.456 1.755-4.769 3.701-7.233 5.445-2.122 0.625-4.099-1.334-6.219-0.626-0.826 0.323-1.474 0.963-2.188 1.474-2.536 2.133-4.06 5.428-4.024 8.742 0.043 1.277 0.355 2.545 0.915 3.693 0.165-0.013 0.329-0.026 0.493-0.039z"></path></g><path id="path2226" sodipodi:nodetypes="csccccccssssssssssscccccsccssccssssssccccsccc" style="fill:#000000" d="m100.42 147.26c-6.144 0.14-10.513 4.3-15.158 7.83 0 0-19.9-0.22-26.54-0.3l-1.539 0.04 0.401 0.8 1.071 0.03 0.469 1.51h0.368c0.533-0.01 3.211-0.05 7.128-0.07 4.285-0.02 9.365-0.01 12.517 0.14 2.758 0.12 4.541 0.39 5.254 0.8 0.019 0.01 0.049 0.02 0.067 0.03 0.07 0.05 0.124 0.12 0.168 0.17 0.01 0.01 0.023 0.02 0.033 0.03 0.381 0.51-0.593 1.17-3.112 1.98-3.386 1.08-8.18 2.61-23.092 3.64-10.939 0.75-19.662 0.94-26.352 0.51-1.767-0.11-17.902-0.73-24.284-1.21-6.7505-0.5-5.1973-2.06 0.8027-3.31 5.7383-1.2 21.219-1.67 22.59-1.71l-0.1-1.6-0.168-0.57c-0.484 0.01-0.551 0.02-1.037 0.03 0.128-0.19 0.221-0.39 0.335-0.57-9.454 0.46-19.12 1.83-27.711 3.72-2.3154 0.51-3.2356 4.77-1.9414 6.69 4.1812 5.03 5.6031 7.15 12.851 11.21 6.191 3.73 19.387 3.34 35.408 3.11 10.688-0.15 18.91-0.4 27.276-4.58 5.743-2.87 9.14-6.67 11.714-10.41 3.176-6.37 5.318-11.06 12.481-13.96 4.76 0 8.64 2.74 8.64 6.13s-2.24 6.43-7 6.43c-3.412 0-1.91-3.09-0.77-6.5 0.86-2.58-6.042-0.66-7.16 1.41-1.681 3.1 4.222 8.03 8.03 8.03 6.82 0 10.71-4.58 10.71-9.87 0-5.3-5.53-9.61-12.35-9.61zm-20.112 16.6c3.939 0.08 2.843 2.92-0.87 6.23-10.193 6.6-16.039 7.28-32.865 7.49-25.229 0.95-29.02-0.75-34.571-4.08-10.53-6.31-10.034-9.22-1.205-7.76 21.004 2.05 42.936 3.06 63.789-0.94 2.521-0.67 4.41-0.97 5.722-0.94z"></path><path id="path2234" style="fill:#000000" d="m50.154 67.878c-1.329 0.038-2.704 0.209-3.949 0.368-3.058 0.789-5.805 0.233-9.237-0.201-4.557 0.354-9.235 1.79-11.077 6.359-3.405 6.466 5.281 12.083 2.476 18.809 0.157 6.097-8.654 13.387-1.506 17.937 5.66 2.78 2.933 9.29 4.418 14.22 0.518 5.65 0.503 11.35 0.201 17.01h-0.101l-0.769 2.41c0.232 3.74 0.182 6.95 0.2 9.9-0.403 0.49-0.6 0.89-0.903 1.34 0.486-0.01 0.553-0.02 1.037-0.03l0.168 0.57 0.2 3.04c0.226 1.22 0.36 3.45 1.239 5.02h-0.301l1.271 1.61h23.929l0.469-1.94c-0.155 0.01-0.178 0.02-0.335 0.03 1.033-1.72 1.004-5.72 1.004-5.72h0.67l0.133-0.6-0.736-2.35-1.071-0.03-0.97-2.01v-10.31c0.838-3.82-1.943-9.21 0.602-12.88 0.592-5.19-1.551-13.42 5.556-14.16 4.547-5.81-3.409-11.44-3.247-17.569-0.345-5.389-3.845-10.264-2.945-15.729 0.793-4.426 2.646-10.109-1.037-13.621-1.083-1.233-3.173-1.536-5.389-1.473zm0.168 2.477c3.2-0.155 6.621 1.115 3.48 9.973-2.369 6.894 2.775 13.096 3.581 19.742-2.488 5.05 7.886 11.2 1.808 14.06-4.938-2.17-1.687-9.43-3.816-13.55-1.222-4.719-2.344-10.9-7.295-12.956-5.994 0.299-4.607 8.668-5.422 12.986-0.598 6.34-0.182 12.9 2.343 18.81 2.405 5.72-1.481 11.12-1.105 16.63 0.942 2.65-0.984 9.8-3.815 6.86 1.28-6.77 4.302-13.3 4.317-20.25-1.024-6.13-5.459-11.72-3.949-18.2 0.115-5.075 1.444-14.092-3.548-16.334-5.826 2.666-2.379 10.144-3.447 14.964 0.202 3.91-7.675 7.33-6.024 1.57 2.628-6.713 6.17-14.256 3.079-21.454-4.46-4.821-1.016-12.526 5.556-12.584 0.244-0.035 6.933 0.512 10.676 0.235 0.735-0.074 2.126-0.432 3.581-0.502zm-9.036 2.543c-4.804 0-8.702 1.356-8.702 3.012s3.898 3.012 8.702 3.012 8.735-1.356 8.735-3.012-3.931-3.012-8.735-3.012zm5.957 19.143c4.256 1.77 4.739 7.832 5.79 11.819 0.686 8.48 2.022 16.94 1.271 25.46-0.113 4.35-0.182 8.71-0.267 13.06h-0.101c-0.15 7.46-0.288 14.94-0.435 22.32-5.971 0.12-11.933-0.19-17.905-0.07-0.068-0.95 0.248-1.95-0.368-2.78-0.619-0.85-0.714-1.82-0.636-2.84 0.248-1.26-0.46-2.3-1.004-3.38v-11.98c0.344-2.27-0.141-6.65 0.067-8 0.185-7.33-0.582-14.65-1.372-21.92 1.065-5.63 5.941-10.43 3.614-16.501 2.432-5.892 1.06 3.301 0.971 5.221-0.389 6.21 0.794 12.44 3.112 18.17 1.196 6.95 0.131 14.31-3.514 20.38-2.296 7.1 11.078 8.69 10.743 1.21 0.042-5.41 0.232-10.75 1.339-16.07 0.621-5.24 0.424-10.98-2.644-15.49 1.703-6.11-2.117-12.842 1.339-18.609z"></path><metadata></metadata></svg> 