<?xml version="1.0" encoding="UTF-8" standalone="no"?> <!-- Created with Inkscape (http://www.inkscape.org/) --> <svg xmlns:inkscape="http://www.inkscape.org/namespaces/inkscape" xmlns:rdf="http://www.w3.org/1999/02/22-rdf-syntax-ns#" xmlns="http://www.w3.org/2000/svg" xmlns:sodipodi="http://sodipodi.sourceforge.net/DTD/sodipodi-0.dtd" xmlns:cc="http://web.resource.org/cc/" xmlns:xlink="http://www.w3.org/1999/xlink" xmlns:dc="http://purl.org/dc/elements/1.1/" xmlns:svg="http://www.w3.org/2000/svg" xmlns:ns1="http://sozi.baierouge.fr" id="svg3251" sodipodi:docname="resistor1.svg" viewBox="0 0 389.76 35.433" sodipodi:version="0.32" inkscape:output_extension="org.inkscape.output.svg.inkscape" inkscape:version="0.45.1" sodipodi:docbase="/home/user/casmat"><defs id="defs3253"><clipPath id="clipPath4811"><use id="use4813" xlink:href="#rect4732" transform="translate(128.41 539.46)" height="1" width="1" y="0" x="0"></use></clipPath><clipPath id="clipPath4817"><use id="use4819" xlink:href="#rect4732" transform="translate(128.41 539.46)" height="1" width="1" y="0" x="0"></use></clipPath><clipPath id="clipPath4823"><use id="use4825" xlink:href="#rect4732" transform="translate(128.41 539.46)" height="1" width="1" y="0" x="0"></use></clipPath><clipPath id="clipPath4829"><use id="use4831" xlink:href="#rect4732" transform="translate(128.41 539.46)" height="1" width="1" y="0" x="0"></use></clipPath><filter id="filter5208" height="1.9871" width="1.6598" y="-.49354" x="-.32989" inkscape:collect="always"><feGaussianBlur id="feGaussianBlur5210" stdDeviation="1.5775135" inkscape:collect="always"></feGaussianBlur></filter><filter id="filter5305" height="3.1976" width="1.1848" y="-1.0988" x="-.092394" inkscape:collect="always"><feGaussianBlur id="feGaussianBlur5307" stdDeviation="0.90293322" inkscape:collect="always"></feGaussianBlur></filter><filter id="filter5531" height="1.5842" width="1.5567" y="-.29208" x="-.27836" inkscape:collect="always"><feGaussianBlur id="feGaussianBlur5533" stdDeviation="1.2634047" inkscape:collect="always"></feGaussianBlur></filter><filter id="filter6453" height="1.7445" width="1.7837" y="-.37227" x="-.39187" inkscape:collect="always"><feGaussianBlur id="feGaussianBlur6455" stdDeviation="2.3396978" inkscape:collect="always"></feGaussianBlur></filter><linearGradient id="linearGradient3307" y2="577.84" spreadMethod="reflect" gradientUnits="userSpaceOnUse" x2="443.05" gradientTransform="translate(-128.41 -539.46)" y1="569.96" x1="443.05" inkscape:collect="always"><stop id="stop4745" style="stop-color:#000000" offset="0"></stop><stop id="stop4747" style="stop-color:#c3c3c3" offset="1"></stop></linearGradient><linearGradient id="linearGradient3309" y2="577.81" spreadMethod="reflect" gradientUnits="userSpaceOnUse" x2="339.9" gradientTransform="translate(-128.41 -539.46)" y1="561.79" x1="339.9" inkscape:collect="always"><stop id="stop4837" style="stop-color:#323232" offset="0"></stop><stop id="stop4839" style="stop-color:#ffffff;stop-opacity:.42268" offset="1"></stop></linearGradient></defs><g id="layer1" inkscape:label="Layer 1" inkscape:groupmode="layer" transform="translate(-34.251 -28.021)"><g id="g3294" transform="translate(14.848 7.3572)"><path id="path4741" style="stroke:url(#linearGradient3307);stroke-linecap:round;stroke-width:5;fill:none" d="m36.751 38.381h355.07"></path><path id="rect4732" style="fill:#d5b597" d="m192.32 28.021c-7.31 0-13.25 4.66-13.25 10.375 0 5.716 5.94 10.344 13.25 10.344 2.93 0 5.62-0.771 7.81-2.031h28.28c2.2 1.264 4.91 2.031 7.84 2.031 7.32 0 13.25-4.628 13.25-10.344 0-5.715-5.93-10.375-13.25-10.375-2.93 0-5.64 0.767-7.84 2.031h-28.28c-2.19-1.26-4.88-2.031-7.81-2.031z"></path><rect id="rect4751" style="fill:#8f5902" clip-path="url(#clipPath4811)" transform="translate(-128.41 -539.46)" height="30.931" width="5.3329" y="562.37" x="318.52"></rect><rect id="rect4753" style="fill:#4e9a06" clip-path="url(#clipPath4817)" transform="translate(-128.41 -539.46)" height="30.931" width="5.3329" y="562.37" x="332.86"></rect><rect id="rect4755" style="fill:#cc0000" clip-path="url(#clipPath4823)" transform="translate(-128.41 -539.46)" height="30.931" width="5.3329" y="562.37" x="347.2"></rect><rect id="rect4757" style="fill:#c4a000" clip-path="url(#clipPath4829)" transform="translate(-128.41 -539.46)" height="30.931" width="5.3329" y="562.37" x="361.54"></rect><path id="path4833" style="opacity:.44886;fill:url(#linearGradient3309)" d="m192.32 28.021c-7.31 0-13.25 4.66-13.25 10.375 0 5.716 5.94 10.344 13.25 10.344 2.93 0 5.62-0.771 7.81-2.031h28.28c2.2 1.264 4.91 2.031 7.84 2.031 7.32 0 13.25-4.628 13.25-10.344 0-5.715-5.93-10.375-13.25-10.375-2.93 0-5.64 0.767-7.84 2.031h-28.28c-2.19-1.26-4.88-2.031-7.81-2.031z"></path><path id="path5026" sodipodi:nodetypes="ccccc" style="opacity:.80682;filter:url(#filter5208);fill:#ffffff" d="m181.11 36.974c1.85-3.854 6.56-8.605 11.25-7.512 0.46 0.282 0.14 0.864-0.19 1.105-3.08 2.592-4.34 0.224-5.57 3.233-1.39 1.683-3.56 2.344-5.49 3.174z"></path><path id="path5214" sodipodi:nodetypes="ccc" style="opacity:.40909;filter:url(#filter5305);fill:#ffffff" d="m225.34 32.913c-4.27 1.321-19.68 1.171-23.45-0.103 5.91-1.433 17.19-1.105 23.45 0.103z"></path><path id="path5309" d="m360.07 587.13c0.21-6.32 8.69-14.19 10.89-8.21 0.09 1.31-2.93 0.14-5.55 2-2.66 1.88-4.93 6.77-5.34 6.21z" sodipodi:nodetypes="ccsc" style="opacity:.11364;filter:url(#filter5531);fill:#2e3436" transform="matrix(-1.4162 0 0 -.54120 756.69 360.13)"></path><path id="path5535" sodipodi:rx="7.1647887" sodipodi:ry="7.541883" style="opacity:.23864;filter:url(#filter6453);fill:#ffffff" sodipodi:type="arc" d="m378.35 570.18a7.1648 7.5419 0 1 1 -14.33 0 7.1648 7.5419 0 1 1 14.33 0z" transform="translate(-134.44 -531.92)" sodipodi:cy="570.18445" sodipodi:cx="371.18634"></path></g></g><metadata></metadata></svg> 