<?xml version="1.0" encoding="UTF-8" standalone="no"?> <!-- Generator: Adobe Illustrator 13.0.2, SVG Export Plug-In . SVG Version: 6.00 Build 14948) --> <svg xmlns:rdf="http://www.w3.org/1999/02/22-rdf-syntax-ns#" xmlns="http://www.w3.org/2000/svg" xmlns:cc="http://web.resource.org/cc/" xmlns:xlink="http://www.w3.org/1999/xlink" xmlns:dc="http://purl.org/dc/elements/1.1/" xmlns:svg="http://www.w3.org/2000/svg" xmlns:inkscape="http://www.inkscape.org/namespaces/inkscape" xmlns:sodipodi="http://sodipodi.sourceforge.net/DTD/sodipodi-0.dtd" xmlns:ns1="http://sozi.baierouge.fr" id="Layer_1" xml:space="preserve" viewBox="0 0 94.264 82.946" y="0px" x="0px"> <path d="m46.356 0.061c-1.504 0.232-2.826 1.123-3.582 2.438l-42.108 72.951c-0.88 1.531-0.895 3.441 0 4.984 0.896 1.545 2.559 2.514 4.358 2.512h84.217c1.799 0.002 3.463-0.967 4.357-2.512 0.895-1.543 0.881-3.453 0-4.984l-42.107-72.951c-1.035-1.803-3.086-2.758-5.135-2.438z" fill="#FDEE1C"></path> <path d="m46.744 2.122c-0.814 0.125-1.508 0.617-1.9 1.299l-42.4 73.451c-0.465 0.809-0.466 1.846 0 2.648 0.473 0.818 1.348 1.352 2.3 1.352h84.8c0.951 0 1.826-0.533 2.299-1.352 0.467-0.803 0.465-1.84 0-2.648l-42.399-73.452c-0.545-0.947-1.598-1.472-2.7-1.298zm0.399 8.449l36 63.4h-72.05l36.05-63.4z" fill="#010101"></path> <path stroke="#010101" stroke-width="1.1394" stroke-miterlimit="10" d="m42.751 56.733v-17.844m-1.646 17.908v-15.777m3.377-8.828h4.874c3.459 0 6.244 2.783 6.244 6.242l0.426 27.65h-17.482l-0.305-27.65c0.001-3.459 2.784-6.242 6.243-6.242zm-1.823 0.232v-6.201c1.539-3.844 7.039-3.52 8.656 0v6.168" fill="none"></path> <metadata></metadata></svg> 