<?xml version="1.0" encoding="UTF-8" standalone="no"?> <!-- Created with Inkscape (http://www.inkscape.org/) --> <svg xmlns:inkscape="http://www.inkscape.org/namespaces/inkscape" xmlns:rdf="http://www.w3.org/1999/02/22-rdf-syntax-ns#" xmlns="http://www.w3.org/2000/svg" xmlns:sodipodi="http://sodipodi.sourceforge.net/DTD/sodipodi-0.dtd" xmlns:cc="http://creativecommons.org/ns#" xmlns:xlink="http://www.w3.org/1999/xlink" xmlns:dc="http://purl.org/dc/elements/1.1/" xmlns:svg="http://www.w3.org/2000/svg" xmlns:ns1="http://sozi.baierouge.fr" id="svg2633" sodipodi:docname="4 Love heart.svg" viewBox="0 0 479.54 434.18" sodipodi:version="0.32" inkscape:output_extension="org.inkscape.output.svg.inkscape" inkscape:version="0.45.1+0.46pre1+devel"><defs id="defs2635"><filter id="filter3390" height="1.3304" width="1.3139" y="-.16521" x="-.15695" inkscape:collect="always"><feGaussianBlur id="feGaussianBlur3392" stdDeviation="14.517359" inkscape:collect="always"></feGaussianBlur></filter></defs><g id="layer1" inkscape:label="Layer 1" inkscape:groupmode="layer" transform="translate(-69.162 -103.56)"><g id="g3625" transform="translate(53.99 -353.93)"><path id="path3436" d="m197.91 223.14c-22.71 0-42.38 13.03-51.97 32.03-9.79-18.35-29.1-30.85-51.34-30.85-32.118 0-58.188 26.07-58.188 58.19 0 12.45 3.93 23.98 10.594 33.44l-0.312 0.19 100.57 115.59 99.78-123.25c5.73-9.01 9.06-15.69 9.06-27.16 0-32.11-26.07-58.18-58.19-58.18z" sodipodi:nodetypes="ccssccccsc" style="opacity:.52893;stroke-linejoin:round;filter:url(#filter3390);stroke:#0f0808;stroke-width:2.3;fill:#140e0d" transform="matrix(.84872 0 0 .91293 15.856 265.24)"></path><path id="path3438" style="stroke-linejoin:round;stroke:#0f0808;stroke-width:0.925;fill:#e73207" d="m152.7 458.52c-19.28 0-36 11.91-44.13 29.25-8.31-16.76-24.685-28.16-43.56-28.16-27.259 0-49.375 23.8-49.375 53.12 0 11.37 3.313 21.9 8.969 30.54l-0.25 0.15 85.346 105.53 84.68-112.53c4.87-8.22 7.69-14.32 7.69-24.78 0-29.32-22.11-53.12-49.37-53.12zm-106.38 53.4h7.125v17.13h17.875l-4.625 5.97h-20.375v-23.1zm39.969 0h6.938c4.075 0 7.431 1.07 10.031 3.16s3.91 4.82 3.91 8.19-1.34 6.17-3.97 8.4c-2.64 2.23-5.96 3.35-9.971 3.35h-6.938c-4.032 0-7.365-1.12-10-3.35s-3.969-5.03-3.969-8.4 1.325-6.1 3.938-8.19 5.956-3.16 10.031-3.16zm21.309 0h8.91l10.31 14.28 10.38-14.28h8.93l-15.53 20.85c-1.28 1.72-2.58 2.59-3.9 2.59-1.33 0-2.63-0.88-3.91-2.63l-15.19-20.81zm39.07 0h25.06l-4.63 6h-13.28v2.44h16.78l-4.59 5.94h-12.19v2.75h17.91l-4.63 5.97h-20.43v-23.1zm-60.379 6c-1.984 0-3.626 0.54-4.906 1.6-1.28 1.05-1.906 2.38-1.906 4.03 0 1.64 0.626 2.98 1.906 4 1.28 1.01 2.922 1.5 4.906 1.5h6.938c1.984 0 3.626-0.49 4.906-1.5 1.28-1.02 1.905-2.36 1.905-4 0-1.65-0.646-2.98-1.936-4.03-1.291-1.06-2.912-1.6-4.875-1.6h-6.938z"></path></g><g id="g3621" transform="translate(-177.31 -126.75)"><path id="path3561" d="m197.91 223.14c-22.71 0-42.38 13.03-51.97 32.03-9.79-18.35-29.1-30.85-51.34-30.85-32.118 0-58.188 26.07-58.188 58.19 0 12.45 3.93 23.98 10.594 33.44l-0.312 0.19 100.57 115.59 99.78-123.25c5.73-9.01 9.06-15.69 9.06-27.16 0-32.11-26.07-58.18-58.19-58.18z" sodipodi:nodetypes="ccssccccsc" style="opacity:.52893;stroke-linejoin:round;filter:url(#filter3390);stroke:#0f0808;stroke-width:2.3;fill:#4605f0" transform="matrix(.84872 0 0 .91293 252.33 264.97)"></path><path id="path3563" style="stroke-linejoin:round;stroke:#0f0808;stroke-width:0.925;fill:#e73207" d="m389.17 458.24c-19.28 0-35.99 11.91-44.12 29.25-8.31-16.75-24.69-28.15-43.57-28.15-27.26 0-49.37 23.8-49.37 53.12 0 11.37 3.31 21.89 8.97 30.53l-0.25 0.16 85.34 105.53 84.69-112.53c4.86-8.23 7.69-14.32 7.69-24.78 0-29.32-22.12-53.13-49.38-53.13zm-106.37 53.41h7.12v17.13h17.88l-4.63 5.96h-20.37v-23.09zm39.96 0h6.94c4.08 0 7.43 1.07 10.03 3.16 2.61 2.09 3.91 4.81 3.91 8.18 0 3.38-1.33 6.18-3.97 8.41-2.63 2.23-5.96 3.34-9.97 3.34h-6.94c-4.03 0-7.36-1.11-10-3.34-2.63-2.23-3.96-5.03-3.96-8.41 0-3.37 1.32-6.09 3.93-8.18 2.62-2.09 5.96-3.16 10.03-3.16zm21.32 0h8.9l10.32 14.28 10.37-14.28h8.94l-15.53 20.84c-1.28 1.73-2.59 2.6-3.91 2.6s-2.63-0.88-3.91-2.63l-15.18-20.81zm39.06 0h25.06l-4.62 6h-13.28v2.44h16.78l-4.6 5.94h-12.18v2.75h17.9l-4.62 5.96h-20.44v-23.09zm-60.38 6c-1.98 0-3.62 0.54-4.9 1.59-1.28 1.06-1.91 2.39-1.91 4.04 0 1.64 0.63 2.98 1.91 4 1.28 1.01 2.92 1.5 4.9 1.5h6.94c1.99 0 3.63-0.49 4.91-1.5 1.28-1.02 1.9-2.36 1.9-4 0-1.65-0.64-2.98-1.93-4.04-1.29-1.05-2.92-1.59-4.88-1.59h-6.94z"></path></g><g id="g3617" transform="translate(-172.01 -116.69)"><path id="path3565" d="m197.91 223.14c-22.71 0-42.38 13.03-51.97 32.03-9.79-18.35-29.1-30.85-51.34-30.85-32.118 0-58.188 26.07-58.188 58.19 0 12.45 3.93 23.98 10.594 33.44l-0.312 0.19 100.57 115.59 99.78-123.25c5.73-9.01 9.06-15.69 9.06-27.16 0-32.11-26.07-58.18-58.19-58.18z" sodipodi:nodetypes="ccssccccsc" style="opacity:.52893;stroke-linejoin:round;filter:url(#filter3390);stroke:#0f0808;stroke-width:2.3;fill:#08fa1e" transform="matrix(.84872 0 0 .91293 501.17 259.28)"></path><path id="path3567" style="stroke-linejoin:round;stroke:#0f0808;stroke-width:0.925;fill:#e73207" d="m638.01 452.56c-19.28 0-35.99 11.91-44.13 29.25-8.31-16.76-24.68-28.16-43.56-28.16-27.26 0-49.37 23.8-49.37 53.13 0 11.36 3.31 21.89 8.97 30.53l-0.25 0.15 85.34 105.53 84.69-112.53c4.86-8.22 7.68-14.31 7.68-24.78 0-29.32-22.11-53.12-49.37-53.12zm-106.38 53.4h7.13v17.13h17.87l-4.62 5.97h-20.38v-23.1zm39.97 0h6.94c4.08 0 7.43 1.07 10.03 3.16s3.91 4.82 3.91 8.19-1.34 6.17-3.97 8.4c-2.64 2.23-5.96 3.35-9.97 3.35h-6.94c-4.03 0-7.36-1.12-10-3.35-2.63-2.23-3.97-5.03-3.97-8.4s1.33-6.1 3.94-8.19 5.96-3.16 10.03-3.16zm21.32 0h8.9l10.31 14.28 10.38-14.28h8.94l-15.53 20.85c-1.28 1.72-2.59 2.59-3.91 2.59s-2.63-0.87-3.91-2.62l-15.18-20.82zm39.06 0h25.06l-4.62 6h-13.29v2.44h16.79l-4.6 5.94h-12.19v2.75h17.91l-4.62 5.97h-20.44v-23.1zm-60.38 6c-1.98 0-3.62 0.54-4.9 1.6-1.28 1.05-1.91 2.39-1.91 4.03s0.63 2.98 1.91 4c1.28 1.01 2.92 1.5 4.9 1.5h6.94c1.98 0 3.63-0.49 4.91-1.5 1.28-1.02 1.9-2.36 1.9-4s-0.64-2.98-1.93-4.03c-1.3-1.06-2.92-1.6-4.88-1.6h-6.94z"></path></g><g id="g3613" transform="translate(-113.95 -17.228)"><path id="path3608" d="m197.91 223.14c-22.71 0-42.38 13.03-51.97 32.03-9.79-18.35-29.1-30.85-51.34-30.85-32.118 0-58.188 26.07-58.188 58.19 0 12.45 3.93 23.98 10.594 33.44l-0.312 0.19 100.57 115.59 99.78-123.25c5.73-9.01 9.06-15.69 9.06-27.16 0-32.11-26.07-58.18-58.19-58.18z" sodipodi:nodetypes="ccssccccsc" style="opacity:.52893;stroke-linejoin:round;filter:url(#filter3390);stroke:#0f0808;stroke-width:2.3;fill:#4605f0" transform="matrix(.84872 0 0 .91293 444.29 -72.032)"></path><path id="path3610" style="stroke-linejoin:round;stroke:#0f0808;stroke-width:0.925;fill:#e73207" d="m581.12 121.25c-19.27 0-35.99 11.91-44.12 29.25-8.31-16.75-24.69-28.16-43.56-28.16-27.26 0-49.38 23.81-49.38 53.13 0 11.36 3.32 21.89 8.97 30.53l-0.25 0.16 85.34 105.53 84.69-112.53c4.87-8.23 7.69-14.32 7.69-24.78 0-29.33-22.12-53.13-49.38-53.13zm-106.37 53.41h7.13v17.12h17.87l-4.63 5.97h-20.37v-23.09zm39.97 0h6.94c4.07 0 7.42 1.06 10.03 3.15 2.6 2.09 3.9 4.82 3.9 8.19s-1.33 6.18-3.97 8.41c-2.63 2.23-5.95 3.34-9.96 3.34h-6.94c-4.03 0-7.37-1.11-10-3.34-2.64-2.23-3.97-5.04-3.97-8.41s1.32-6.1 3.94-8.19c2.61-2.09 5.95-3.15 10.03-3.15zm21.31 0h8.91l10.31 14.28 10.37-14.28h8.94l-15.53 20.84c-1.28 1.73-2.58 2.59-3.91 2.59-1.32 0-2.62-0.87-3.9-2.62l-15.19-20.81zm39.06 0h25.07l-4.63 6h-13.28v2.43h16.78l-4.59 5.94h-12.19v2.75h17.91l-4.63 5.97h-20.44v-23.09zm-60.37 6c-1.99 0-3.63 0.53-4.91 1.59s-1.9 2.39-1.9 4.03 0.62 2.99 1.9 4 2.92 1.5 4.91 1.5h6.94c1.98 0 3.62-0.49 4.9-1.5s1.91-2.36 1.91-4-0.65-2.97-1.94-4.03-2.91-1.59-4.87-1.59h-6.94zm35.72 42.5c8.36 0 15.15 6.79 15.15 15.15 0 2.99-0.85 4.72-2.34 7.07l-26 32.12-26.22-30.12 0.09-0.04c-1.73-2.46-2.74-5.47-2.74-8.72 0-8.36 6.78-15.15 15.15-15.15 5.8 0 10.83 3.25 13.38 8.03 2.49-4.95 7.61-8.34 13.53-8.34z"></path></g></g><metadata></metadata></svg> 