<?xml version="1.0" encoding="UTF-8" standalone="no"?> <!-- Created with Inkscape (http://www.inkscape.org/) --> <svg xmlns:inkscape="http://www.inkscape.org/namespaces/inkscape" xmlns:rdf="http://www.w3.org/1999/02/22-rdf-syntax-ns#" xmlns="http://www.w3.org/2000/svg" xmlns:cc="http://web.resource.org/cc/" xmlns:dc="http://purl.org/dc/elements/1.1/" xmlns:sodipodi="http://sodipodi.sourceforge.net/DTD/sodipodi-0.dtd" xmlns:svg="http://www.w3.org/2000/svg" xmlns:ns1="http://sozi.baierouge.fr" xmlns:xlink="http://www.w3.org/1999/xlink" id="svg2" sodipodi:docname="highway.svg" viewBox="0 0 580 294" sodipodi:version="0.32" inkscape:output_extension="org.inkscape.output.svg.inkscape" inkscape:version="0.45.1" sodipodi:docbase="/ws/safe/work/yvent/Graphics/logos"><g id="layer1" inkscape:label="Layer 1" inkscape:groupmode="layer" transform="translate(-76.603 -314.64)"><g id="g3327"><path id="rect3179" sodipodi:nodetypes="ccccc" style="fill:#000000" d="m300.6 314.64h132l224 294h-580l224-294z"></path><path id="path3175" style="fill:#ffffff" d="m306.55 314.64h-3.59l-218.36 294h16.61l205.34-294z"></path><path id="path3170" style="fill:#ffffff" d="m430.22 314.64h-3.56l205.34 294h16.6l-218.38-294z"></path><g id="g3320" transform="translate(-411.82 -2.6761)"><path id="path3318" style="fill:#ffffff" d="m783.44 530.44h-9.66l-1.62 80.87h12.53l-1.25-80.87z"></path><path id="path3303" style="fill:#ffffff" d="m775.84 429.34l-1.53 76.22h8.75l-1.15-76.22h-6.07z"></path><path id="path3308" style="fill:#ffffff" d="m780.94 365.47h-3.82l-0.93 45.72h5.43l-0.68-45.72z"></path><path id="path3313" style="fill:#ffffff" d="m780.38 329.47h-2.54l-0.5 24.53h3.41l-0.37-24.53z"></path><path id="path3290" style="fill:#ffffff" d="m778.09 317.31l-0.12 6.44h2.31l-0.09-6.44h-2.1z"></path></g></g></g><metadata></metadata></svg> 