<?xml version="1.0" encoding="UTF-8" standalone="no"?> <!-- Generator: Adobe Illustrator 13.0.0, SVG Export Plug-In . SVG Version: 6.00 Build 14948) --> <svg xmlns:rdf="http://www.w3.org/1999/02/22-rdf-syntax-ns#" xmlns="http://www.w3.org/2000/svg" xmlns:cc="http://web.resource.org/cc/" xmlns:xlink="http://www.w3.org/1999/xlink" xmlns:dc="http://purl.org/dc/elements/1.1/" xmlns:svg="http://www.w3.org/2000/svg" xmlns:inkscape="http://www.inkscape.org/namespaces/inkscape" xmlns:sodipodi="http://sodipodi.sourceforge.net/DTD/sodipodi-0.dtd" xmlns:ns1="http://sozi.baierouge.fr" id="Calque_1" xml:space="preserve" viewBox="0 0 257.158 485.232" y="0px" x="0px"> <linearGradient id="SVGID_1_" y2="-13.006" gradientUnits="userSpaceOnUse" x2="189.17" gradientTransform="matrix(1 0 0 -1 66.752 321.09)" y1="-13.006" x1="-65.517"> <stop style="stop-color:#28282A" offset="0"></stop> <stop style="stop-color:#2D2C2E" offset=".1149"></stop> <stop style="stop-color:#3C3C3E" offset=".1839"></stop> <stop style="stop-color:#4B4B4D" offset=".2409"></stop> <stop style="stop-color:#5E5F61" offset=".2909"></stop> <stop style="stop-color:#646567" offset=".3022"></stop> <stop style="stop-color:#5A5A5C" offset=".3427"></stop> <stop style="stop-color:#48484A" offset=".4323"></stop> <stop style="stop-color:#3A393C" offset=".5401"></stop> <stop style="stop-color:#2D2C2E" offset=".6828"></stop> <stop style="stop-color:#28282A" offset="1"></stop> </linearGradient> <path d="m253.77 183.58c-3.121 12.982-6.862 24.363-9.275 31.604-4.934 14.797-22.196 64.122-24.046 73.986-1.851 9.865-15.414 93.717-22.812 127.63-7.397 33.91-18.588 32.734-33.603 36.224-15.26 2.929-35.452 5.01-35.452 5.01s-20.192-2.081-35.452-5.01c-15.014-3.488-26.203-2.312-33.602-36.224-7.398-33.91-20.963-117.76-22.812-127.63-1.849-9.865-19.113-59.189-24.045-73.986-2.414-7.242-6.155-18.623-9.276-31.604-1.264 22.238-2.863 55.831-1.822 74.688 3.389 61.423 23.544 172.2 30.209 187.2 6.166 13.872 18.188 31.443 40.384 34.526 25.91 3.599 56.415 4.624 56.415 4.624s30.506-1.025 56.415-4.624c22.196-3.083 34.219-20.654 40.385-34.526 6.665-14.997 26.82-125.78 30.211-187.2 1.04-18.86-0.56-52.46-1.82-74.69z" fill="url(#SVGID_1_)"></path> <radialGradient id="SVGID_2_" gradientUnits="userSpaceOnUse" cy="104.06" cx="83.138" gradientTransform="matrix(1 0 0 -1 66.752 321.09)" r="190.33"> <stop style="stop-color:#898A8A" offset=".0055"></stop> <stop style="stop-color:#888788" offset=".147"></stop> <stop style="stop-color:#7B7A7B" offset=".3159"></stop> <stop style="stop-color:#666667" offset=".4796"></stop> <stop style="stop-color:#4E4E50" offset=".6338"></stop> <stop style="stop-color:#383739" offset=".7762"></stop> <stop style="stop-color:#161617" offset=".9026"></stop> <stop style="stop-color:#000000" offset="1"></stop> </radialGradient> <path d="m238.38 214.4c-2.736 11.387-6.019 21.369-8.136 27.721-4.326 12.979-19.47 56.243-21.091 64.896-1.622 8.651-13.52 82.2-20.01 111.94-6.489 29.744-16.305 28.714-29.474 31.772-13.385 2.568-31.096 4.395-31.096 4.395s-17.711-1.825-31.096-4.395c-13.169-3.06-22.983-2.028-29.473-31.772-6.481-29.73-18.379-103.28-20.001-111.93-1.623-8.652-16.765-51.916-21.091-64.896-2.117-6.352-5.399-16.334-8.136-27.721-1.109 19.506-2.511 48.971-1.598 65.509 2.975 53.877 20.653 151.04 26.499 164.2 5.408 12.168 15.953 27.58 35.421 30.284 22.727 3.156 49.483 4.056 49.483 4.056s26.756-0.898 49.481-4.056c19.469-2.704 30.015-18.116 35.422-30.284 5.847-13.154 23.524-110.32 26.5-164.2 0.92-16.54-0.49-46-1.6-65.51z" fill="url(#SVGID_2_)"></path> <g> <linearGradient id="SVGID_3_" y2="6.8474" gradientUnits="userSpaceOnUse" x2="99.645" gradientTransform="matrix(1 0 0 -1 66.752 321.09)" y1="-25.008" x1="67.79"> <stop style="stop-color:#EFEFE8" offset="0"></stop> <stop style="stop-color:#AFA79F" offset=".317"></stop> <stop style="stop-color:#81776F" offset=".5824"></stop> </linearGradient> <path stroke="#81776F" stroke-width="2" d="m109.77 356.68c5.857 0.925 18.805 1.154 18.805 1.154s12.947-0.229 18.805-1.154c4.203-0.664 5.547-2.915 6.428-5.273-14.467 1.513-25.231 1.805-25.231 1.805s-10.765-0.292-25.231-1.805c0.88 2.34 2.22 4.6 6.42 5.26z" fill="url(#SVGID_3_)"></path> <linearGradient id="SVGID_4_" y2="19.75" gradientUnits="userSpaceOnUse" x2="86.744" gradientTransform="matrix(1 0 0 -1 66.752 321.09)" y1="-12.106" x1="54.888"> <stop style="stop-color:#EFEFE8" offset="0"></stop> <stop style="stop-color:#AFA79F" offset=".317"></stop> <stop style="stop-color:#81776F" offset=".5824"></stop> </linearGradient> <path d="m153.81 351.41c0.347-0.928 0.623-1.872 0.972-2.742 1.233-3.083 4.933-29.286 5.55-36.067 0.616-6.782-2.773-8.017-7.091-8.94-4.315-0.925-20.347-1.617-24.662-1.617-4.316 0-20.346 0.692-24.662 1.617s-7.707 2.158-7.09 8.94c0.617 6.781 4.316 32.984 5.549 36.067 0.348 0.87 0.625 1.814 0.972 2.742 14.466 1.513 25.231 1.805 25.231 1.805s10.76-0.3 25.23-1.81z" fill="url(#SVGID_4_)"></path> </g> <g> <linearGradient id="SVGID_5_" y2="324.41" gradientUnits="userSpaceOnUse" x2="61.934" gradientTransform="matrix(1 0 0 -1 66.752 321.09)" y1="282.79" x1="61.934"> <stop style="stop-color:#EFEFE8" offset="0"></stop> <stop style="stop-color:#81776F" offset="1"></stop> </linearGradient> <path d="m212.64 53.849c-2.002-13-7.381-34.247-9.343-41.814-0.243-0.105-0.483-0.211-0.729-0.316-14.181-6.166-73.985-9.865-73.985-9.865s-59.806 3.699-73.986 9.865c-0.164 0.07-0.325 0.142-0.488 0.212-1.939 7.474-7.358 28.857-9.368 41.919-2.466 16.03-14.387 114.27-11.51 161.13 2.692 43.825 4.665 76.506 8.271 93.668 13.006 4.624 35.235 12.582 42.072 15.358 9.865 4.009 12.022 15.723 13.256 23.43 0.093 0.578 0.242 1.705 0.439 3.291 2.084 0.253 4.117 0.479 6.082 0.685-0.346-0.928-0.624-1.872-0.973-2.742-1.233-3.083-4.932-29.286-5.549-36.067-0.617-6.782 2.774-8.017 7.09-8.94s20.346-1.617 24.662-1.617c4.315 0 20.347 0.692 24.662 1.617s7.706 2.158 7.091 8.94c-0.617 6.781-4.316 32.984-5.551 36.067-0.348 0.87-0.625 1.814-0.971 2.742 1.965-0.205 3.996-0.432 6.082-0.685 0.196-1.586 0.348-2.714 0.438-3.291 1.231-7.707 3.392-19.421 13.256-23.43 6.878-2.794 29.331-10.829 42.304-15.44 3.596-17.185 5.566-49.828 8.254-93.586 2.88-46.87-9.04-145.11-11.5-161.14z" fill="url(#SVGID_5_)"></path> <linearGradient id="SVGID_6_" y2="302.25" gradientUnits="userSpaceOnUse" x2="-37.498" gradientTransform="matrix(1 0 0 -1 66.752 321.09)" y1="8.1721" x1="-39.385"> <stop style="stop-color:#EFEFE8" offset="0"></stop> <stop style="stop-color:#E6E5DD" offset=".1525"></stop> <stop style="stop-color:#CECAC2" offset=".3964"></stop> <stop style="stop-color:#AAA299" offset=".6995"></stop> <stop style="stop-color:#81776F" offset="1"></stop> </linearGradient> <path d="m44.737 53.849c2.009-13.062 7.429-34.446 9.368-41.919-13.96 6.066-25.443 11.007-28.491 21.367 0 0-22.196 95.566-21.579 139.34-0.191 3.154-0.412 6.855-0.645 10.938 3.122 12.982 6.863 24.363 9.276 31.604 4.932 14.797 22.196 64.122 24.045 73.985 0.457 2.433 1.625 9.362 3.236 18.925 0.499 0.179 1.02 0.363 1.55 0.553-3.606-17.162-5.579-49.843-8.271-93.668-2.875-46.84 9.045-145.08 11.511-161.11z" fill="url(#SVGID_6_)"></path> <linearGradient id="SVGID_7_" y2="309.97" gradientUnits="userSpaceOnUse" x2="158.12" gradientTransform="matrix(1 0 0 -1 66.752 321.09)" y1="13.444" x1="170.72"> <stop style="stop-color:#EFEFE8" offset="0"></stop> <stop style="stop-color:#E6E5DD" offset=".1525"></stop> <stop style="stop-color:#CECAC2" offset=".3964"></stop> <stop style="stop-color:#AAA299" offset=".6995"></stop> <stop style="stop-color:#81776F" offset="1"></stop> </linearGradient> <path d="m253.12 172.64c0.616-43.775-21.579-139.34-21.579-139.34-3.029-10.301-14.398-15.242-28.249-21.262 1.962 7.567 7.341 28.813 9.343 41.814 2.465 16.03 14.387 114.27 11.508 161.13-2.688 43.758-4.658 76.402-8.254 93.586 0.451-0.161 0.894-0.317 1.319-0.471 1.611-9.562 2.779-16.492 3.233-18.925 1.852-9.863 19.113-59.188 24.047-73.985 2.415-7.242 6.156-18.623 9.275-31.604-0.22-4.11-0.45-7.81-0.64-10.96z" fill="url(#SVGID_7_)"></path> </g> <linearGradient id="SVGID_8_" y2="288.09" gradientUnits="userSpaceOnUse" x2="59.71" gradientTransform="matrix(1 0 0 -1 66.752 321.09)" y1="258.5" x1="61.56"> <stop style="stop-color:#EFEFE8" offset="0"></stop> <stop style="stop-color:#81776F" offset="1"></stop> </linearGradient> <path d="m94.36 66.871c5.395-17.108 7.707-25.587 12.639-27.437 4.933-1.851 21.58-2.004 21.58-2.004s16.646 0.154 21.579 2.004 7.245 10.328 12.64 27.437" fill="url(#SVGID_8_)"></path> <radialGradient id="SVGID_9_" gradientUnits="userSpaceOnUse" cy="231.07" cx="138.28" gradientTransform="matrix(1 0 0 -1 66.752 321.09)" r="129.49"> <stop style="stop-color:#EFEFE8" offset="0"></stop> <stop style="stop-color:#ECECE5" offset=".0088"></stop> <stop style="stop-color:#544F4C" offset=".6973"></stop> <stop style="stop-color:#282827" offset="1"></stop> </radialGradient> <path stroke="#000000" stroke-width=".6166" d="m212.43 94.644c0-7.398-5.395-7.707-10.173-8.016-16.493-1.542-73.679-5.01-73.679-5.01s-57.186 3.468-73.678 5.01c-4.778 0.309-10.173 0.617-10.173 8.016 0 8.944-3.083 89.092-2.774 100.81 0.309 11.714 3.391 79.229 3.699 82.618 0.309 3.392-0.077 6.089 8.555 7.63 8.632 1.542 48.785 4.549 74.372 4.625 25.587-0.076 65.739-3.083 74.372-4.625 8.632-1.541 8.246-4.238 8.555-7.63 0.309-3.391 3.391-70.904 3.699-82.618s-2.77-91.86-2.77-100.81z" fill="url(#SVGID_9_)"></path> <g> <linearGradient id="SVGID_10_" y2="-23.129" gradientUnits="userSpaceOnUse" x2="61.829" gradientTransform="matrix(1 0 0 -1 66.752 321.09)" y1=".8093" x1="61.829"> <stop style="stop-color:#000000" offset="0"></stop> <stop style="stop-color:#0C0C0D" offset=".0823"></stop> <stop style="stop-color:#232324" offset=".1363"></stop> <stop style="stop-color:#3B3B3D" offset=".1821"></stop> <stop style="stop-color:#4E4D4F" offset=".2235"></stop> <stop style="stop-color:#5F5F61" offset=".2618"></stop> <stop style="stop-color:#717172" offset=".2979"></stop> <stop style="stop-color:#807F80" offset=".3322"></stop> <stop style="stop-color:#888788" offset=".3642"></stop> <stop style="stop-color:#8A8A8A" offset=".395"></stop> <stop style="stop-color:#898A8A" offset=".3956"></stop> <stop style="stop-color:#89898A" offset=".3959"></stop> <stop style="stop-color:#898788" offset=".4027"></stop> <stop style="stop-color:#818082" offset=".4099"></stop> <stop style="stop-color:#767576" offset=".418"></stop> <stop style="stop-color:#666668" offset=".4268"></stop> <stop style="stop-color:#555557" offset=".4365"></stop> <stop style="stop-color:#454547" offset=".4475"></stop> <stop style="stop-color:#353436" offset=".4604"></stop> <stop style="stop-color:#1E1E1F" offset=".4763"></stop> <stop style="stop-color:#080808" offset=".4986"></stop> <stop style="stop-color:#000000" offset=".5604"></stop> </linearGradient> <path d="m128.58 346.74c-7.988 0-14.487-6.499-14.487-14.489s6.499-14.488 14.487-14.488c7.99 0 14.49 6.498 14.49 14.488s-6.5 14.49-14.49 14.49z" fill="url(#SVGID_10_)"></path> <path d="m128.58 318.38c7.662 0 13.872 6.211 13.872 13.872 0 7.662-6.21 13.873-13.872 13.873s-13.873-6.211-13.873-13.873c0-7.66 6.21-13.87 13.87-13.87m0-1.24c-8.329 0-15.106 6.775-15.106 15.104s6.777 15.106 15.106 15.106 15.105-6.777 15.105-15.106-6.77-15.1-15.1-15.1z" fill="#6E655F"></path> </g> <radialGradient id="SVGID_11_" gradientUnits="userSpaceOnUse" cy="-1.9045" cx="61.827" gradientTransform="matrix(1 0 0 -1 66.752 321.09)" r="16.852"> <stop style="stop-color:#898A8A" offset=".0769"></stop> <stop style="stop-color:#89898A" offset=".0788"></stop> <stop style="stop-color:#898788" offset=".1152"></stop> <stop style="stop-color:#818082" offset=".1544"></stop> <stop style="stop-color:#767576" offset=".1984"></stop> <stop style="stop-color:#666668" offset=".2463"></stop> <stop style="stop-color:#555557" offset=".2993"></stop> <stop style="stop-color:#454547" offset=".3591"></stop> <stop style="stop-color:#353436" offset=".429"></stop> <stop style="stop-color:#1E1E1F" offset=".5153"></stop> <stop style="stop-color:#080808" offset=".6364"></stop> <stop style="stop-color:#000000" offset=".9725"></stop> </radialGradient> <circle r="11.46" cy="332.25" stroke="#000000" cx="128.58" stroke-width=".5093" fill="url(#SVGID_11_)"></circle> <radialGradient id="SVGID_12_" gradientUnits="userSpaceOnUse" cy="207.64" cx="129.03" gradientTransform="matrix(1 0 0 -1 66.752 321.09)" r="161.83"> <stop style="stop-color:#FFFFFF" offset="0"></stop> <stop style="stop-color:#EAF5F8" offset=".1108"></stop> <stop style="stop-color:#C4E5EE" offset=".3103"></stop> <stop style="stop-color:#A3D8E5" offset=".504"></stop> <stop style="stop-color:#87CEDF" offset=".6879"></stop> <stop style="stop-color:#74C8DB" offset=".8576"></stop> <stop style="stop-color:#6CC6DA" offset="1"></stop> </radialGradient> <polygon stroke="#000000" stroke-width=".6145" points="129.2 91.79 52.743 91.79 52.743 279.3 129.2 279.3 205.65 279.3 205.65 91.79" fill="url(#SVGID_12_)"></polygon> <linearGradient id="SVGID_13_" y2="6.2618" gradientUnits="userSpaceOnUse" x2="142.74" gradientTransform="matrix(1 0 0 -1 66.752 321.09)" y1="3.4001" x1="175.45"> <stop style="stop-color:#000000" offset="0"></stop> <stop style="stop-color:#0C0C0D" offset=".0537"></stop> <stop style="stop-color:#232324" offset=".0889"></stop> <stop style="stop-color:#3B3B3D" offset=".1189"></stop> <stop style="stop-color:#4E4D4F" offset=".1459"></stop> <stop style="stop-color:#5F5F61" offset=".1709"></stop> <stop style="stop-color:#717172" offset=".1944"></stop> <stop style="stop-color:#807F80" offset=".2168"></stop> <stop style="stop-color:#888788" offset=".2378"></stop> <stop style="stop-color:#8A8A8A" offset=".2579"></stop> <stop style="stop-color:#898A8A" offset=".2582"></stop> <stop style="stop-color:#89898A" offset=".2589"></stop> <stop style="stop-color:#898788" offset=".2712"></stop> <stop style="stop-color:#818082" offset=".2844"></stop> <stop style="stop-color:#767576" offset=".2992"></stop> <stop style="stop-color:#666668" offset=".3154"></stop> <stop style="stop-color:#555557" offset=".3333"></stop> <stop style="stop-color:#454547" offset=".3535"></stop> <stop style="stop-color:#353436" offset=".377"></stop> <stop style="stop-color:#1E1E1F" offset=".4061"></stop> <stop style="stop-color:#080808" offset=".447"></stop> <stop style="stop-color:#000000" offset=".5604"></stop> </linearGradient> <path stroke="#000000" stroke-width="1.2331" d="m219.42 331.61c0.123-1.974 3.083-23.225 3.187-24.354s2.568-3.391 4.623-4.008c2.057-0.616 11.51-3.699 12.846-4.213s4.83-1.232 4.316 3.803c-0.515 5.034-0.822 22.709-14.695 29.08-4.521 2.057-6.68 3.188-8.016 2.98s-2.36-1.65-2.26-3.29z" fill="url(#SVGID_13_)"></path> <linearGradient id="SVGID_14_" y2="53.509" gradientUnits="userSpaceOnUse" x2="149.17" gradientTransform="matrix(1 0 0 -1 66.752 321.09)" y1="50.755" x1="180.65"> <stop style="stop-color:#000000" offset="0"></stop> <stop style="stop-color:#0C0C0D" offset=".0537"></stop> <stop style="stop-color:#232324" offset=".0889"></stop> <stop style="stop-color:#3B3B3D" offset=".1189"></stop> <stop style="stop-color:#4E4D4F" offset=".1459"></stop> <stop style="stop-color:#5F5F61" offset=".1709"></stop> <stop style="stop-color:#717172" offset=".1944"></stop> <stop style="stop-color:#807F80" offset=".2168"></stop> <stop style="stop-color:#888788" offset=".2378"></stop> <stop style="stop-color:#8A8A8A" offset=".2579"></stop> <stop style="stop-color:#898A8A" offset=".2582"></stop> <stop style="stop-color:#89898A" offset=".2589"></stop> <stop style="stop-color:#898788" offset=".2712"></stop> <stop style="stop-color:#818082" offset=".2844"></stop> <stop style="stop-color:#767576" offset=".2992"></stop> <stop style="stop-color:#666668" offset=".3154"></stop> <stop style="stop-color:#555557" offset=".3333"></stop> <stop style="stop-color:#454547" offset=".3535"></stop> <stop style="stop-color:#353436" offset=".377"></stop> <stop style="stop-color:#1E1E1F" offset=".4061"></stop> <stop style="stop-color:#080808" offset=".447"></stop> <stop style="stop-color:#000000" offset=".5604"></stop> </linearGradient> <path stroke="#000000" stroke-width="1.2331" d="m224.66 290.4c0.2-0.713 9.7-32.442 12.229-36.892 2.567-4.521 4.827-11.509 7.5-11.715 2.672-0.205 2.672 2.775 2.467 6.681-0.205 3.904-1.627 37.408-1.746 38.843-0.154 1.85-0.159 3.755-3.393 4.972-3.275 1.232-9.557 3.392-11.92 4.174-2.252 0.747-4.097 0.48-4.933-0.615-0.96-1.25-0.41-4.73-0.21-5.44z" fill="url(#SVGID_14_)"></path> <linearGradient id="SVGID_15_" y2="-48.259" gradientUnits="userSpaceOnUse" x2="-26.063" gradientTransform="matrix(1 0 0 -1 66.752 321.09)" y1="-50.725" x1="-48.259"> <stop style="stop-color:#000000" offset="0"></stop> <stop style="stop-color:#0C0C0D" offset=".0823"></stop> <stop style="stop-color:#232324" offset=".1363"></stop> <stop style="stop-color:#3B3B3D" offset=".1821"></stop> <stop style="stop-color:#4E4D4F" offset=".2235"></stop> <stop style="stop-color:#5F5F61" offset=".2618"></stop> <stop style="stop-color:#717172" offset=".2979"></stop> <stop style="stop-color:#807F80" offset=".3322"></stop> <stop style="stop-color:#888788" offset=".3642"></stop> <stop style="stop-color:#8A8A8A" offset=".395"></stop> <stop style="stop-color:#898A8A" offset=".3956"></stop> <stop style="stop-color:#89898A" offset=".3959"></stop> <stop style="stop-color:#898788" offset=".4027"></stop> <stop style="stop-color:#818082" offset=".4099"></stop> <stop style="stop-color:#767576" offset=".418"></stop> <stop style="stop-color:#666668" offset=".4268"></stop> <stop style="stop-color:#555557" offset=".4365"></stop> <stop style="stop-color:#454547" offset=".4475"></stop> <stop style="stop-color:#353436" offset=".4604"></stop> <stop style="stop-color:#1E1E1F" offset=".4763"></stop> <stop style="stop-color:#080808" offset=".4986"></stop> <stop style="stop-color:#000000" offset=".5604"></stop> </linearGradient> <path stroke="#000000" stroke-width="1.2331" d="m44.497 385.13c-0.123-1.973-3.083-23.224-3.186-24.354s-2.569-3.391-4.624-4.007c-2.055-0.617-11.509-3.7-12.845-4.213-1.336-0.515-4.83-1.233-4.316 3.802s0.822 22.709 14.694 29.08c4.521 2.056 6.679 3.187 8.015 2.979 1.337-0.2 2.365-1.64 2.262-3.29z" fill="url(#SVGID_15_)"></path> <linearGradient id="SVGID_16_" y2="52.844" gradientUnits="userSpaceOnUse" x2="-37.296" gradientTransform="matrix(1 0 0 -1 66.752 321.09)" y1="50.378" x1="-59.492"> <stop style="stop-color:#000000" offset="0"></stop> <stop style="stop-color:#0C0C0D" offset=".0823"></stop> <stop style="stop-color:#232324" offset=".1363"></stop> <stop style="stop-color:#3B3B3D" offset=".1821"></stop> <stop style="stop-color:#4E4D4F" offset=".2235"></stop> <stop style="stop-color:#5F5F61" offset=".2618"></stop> <stop style="stop-color:#717172" offset=".2979"></stop> <stop style="stop-color:#807F80" offset=".3322"></stop> <stop style="stop-color:#888788" offset=".3642"></stop> <stop style="stop-color:#8A8A8A" offset=".395"></stop> <stop style="stop-color:#898A8A" offset=".3956"></stop> <stop style="stop-color:#89898A" offset=".3959"></stop> <stop style="stop-color:#898788" offset=".4027"></stop> <stop style="stop-color:#818082" offset=".4099"></stop> <stop style="stop-color:#767576" offset=".418"></stop> <stop style="stop-color:#666668" offset=".4268"></stop> <stop style="stop-color:#555557" offset=".4365"></stop> <stop style="stop-color:#454547" offset=".4475"></stop> <stop style="stop-color:#353436" offset=".4604"></stop> <stop style="stop-color:#1E1E1F" offset=".4763"></stop> <stop style="stop-color:#080808" offset=".4986"></stop> <stop style="stop-color:#000000" offset=".5604"></stop> </linearGradient> <path stroke="#000000" stroke-width="1.2331" d="m30.958 290.4c-0.199-0.713-9.701-32.442-12.229-36.892-2.569-4.52-4.829-11.51-7.501-11.72-2.672-0.205-2.672 2.775-2.466 6.681 0.206 3.904 1.627 37.408 1.747 38.843 0.154 1.85 0.159 3.755 3.391 4.972 3.275 1.232 9.557 3.392 11.92 4.174 2.252 0.747 4.097 0.48 4.933-0.615 0.953-1.25 0.404-4.73 0.205-5.44z" fill="url(#SVGID_16_)"></path> <linearGradient id="SVGID_17_" y2="271.15" gradientUnits="userSpaceOnUse" x2="83.715" gradientTransform="matrix(1 0 0 -1 66.752 321.09)" y1="271.15" x1="39.94"> <stop style="stop-color:#B9B6AF" offset="0"></stop> <stop style="stop-color:#B0ACA5" offset=".2036"></stop> <stop style="stop-color:#98928A" offset=".5293"></stop> <stop style="stop-color:#746B65" offset=".9345"></stop> <stop style="stop-color:#6E655F" offset="1"></stop> </linearGradient> <path d="m160.02 54.568c-2.465-9.865-3.545-17.417-9.557-19.113-3.958-1.116-15.722-2.312-21.888-2.467-6.166 0.155-17.93 1.351-21.888 2.467-6.011 1.696-7.09 9.249-9.557 19.113-2.466 9.865-2.774 10.173-2.774 12.331 5.406-17.109 7.721-25.587 12.651-27.437 4.933-1.85 21.58-2.004 21.58-2.004s16.646 0.154 21.579 2.004c4.933 1.851 7.244 10.327 12.64 27.438 0-2.159-0.31-2.467-2.78-12.332z" fill="url(#SVGID_17_)"></path> <path stroke="#EFEFE8" stroke-width=".6254" stroke-linecap="round" d="m160.48 54.723c-2.502-10.008-3.598-17.668-9.694-19.389-4.017-1.132-15.949-2.345-22.203-2.502-6.254 0.157-18.188 1.37-22.203 2.502-6.098 1.721-7.192 9.381-9.694 19.389" fill="none"></path> <linearGradient id="SVGID_18_" y2="-2.3435" gradientUnits="userSpaceOnUse" x2="-31.164" gradientTransform="matrix(1 0 0 -1 66.752 321.09)" y1="-4.8098" x1="-53.361"> <stop style="stop-color:#000000" offset="0"></stop> <stop style="stop-color:#0C0C0D" offset=".0823"></stop> <stop style="stop-color:#232324" offset=".1363"></stop> <stop style="stop-color:#3B3B3D" offset=".1821"></stop> <stop style="stop-color:#4E4D4F" offset=".2235"></stop> <stop style="stop-color:#5F5F61" offset=".2618"></stop> <stop style="stop-color:#717172" offset=".2979"></stop> <stop style="stop-color:#807F80" offset=".3322"></stop> <stop style="stop-color:#888788" offset=".3642"></stop> <stop style="stop-color:#8A8A8A" offset=".395"></stop> <stop style="stop-color:#898A8A" offset=".3956"></stop> <stop style="stop-color:#89898A" offset=".3959"></stop> <stop style="stop-color:#898788" offset=".4027"></stop> <stop style="stop-color:#818082" offset=".4099"></stop> <stop style="stop-color:#767576" offset=".418"></stop> <stop style="stop-color:#666668" offset=".4268"></stop> <stop style="stop-color:#555557" offset=".4365"></stop> <stop style="stop-color:#454547" offset=".4475"></stop> <stop style="stop-color:#353436" offset=".4604"></stop> <stop style="stop-color:#1E1E1F" offset=".4763"></stop> <stop style="stop-color:#080808" offset=".4986"></stop> <stop style="stop-color:#000000" offset=".5604"></stop> </linearGradient> <path stroke="#000000" stroke-width="1.2331" d="m11.434 304.17c-0.411-3.288 0.411-6.986 4.521-5.754s11.304 3.494 13.564 4.11c2.26 0.616 3.904 0.205 4.727 8.837s3.7 29.185 4.316 34.322c-0.206 3.493 0.617 6.986-5.343 4.314s-13.975-6.987-15.414-7.604c-1.438-0.616-2.671-3.083-3.083-6.371-0.412-3.29-3.288-31.86-3.288-31.86z" fill="url(#SVGID_18_)"></path> <g> <linearGradient id="SVGID_19_" y2="114.43" gradientUnits="userSpaceOnUse" x2="145.54" gradientTransform="matrix(1 0 0 -1 66.752 321.09)" y1="33.456" x1="142.9"> <stop style="stop-color:#EFEFE8" offset="0"></stop> <stop style="stop-color:#81776F" offset="1"></stop> </linearGradient> <path d="m215.06 305.92c-2.225-6.887-5.379-16.077-7.172-21.259 3.521-1.513 3.688-3.653 3.868-5.917l0.054-0.65c0.299-3.299 3.396-71.141 3.699-82.637 0.188-7.104-0.878-39.526-1.731-65.58-0.562-17.016-1.044-31.712-1.044-35.233 0-3.978-1.475-6.352-4.635-7.447 0.402-1.822 0.933-4.104 1.494-6.543 1.762-7.636 3.758-16.29 3.758-18.173 0-2.188-4.149-23-7.041-37.234 2.119 8.735 4.705 20.123 6.02 28.649 1.814 11.806 14.489 112.44 11.504 161.06-2.79 45.47-4.79 74.58-8.77 90.97z" fill="url(#SVGID_19_)"></path> <path d="m203.3 12.035s6.875 25.784 9.341 41.814c2.467 16.03 14.387 114.27 11.51 161.13s-4.934 76.042-9.043 92.072c-2.256-7.051-5.672-17.003-7.596-22.557 3.936-1.579 3.76-3.792 3.999-6.422 0.308-3.391 3.392-70.904 3.699-82.618s-2.774-91.861-2.774-100.81c0-4.531-2.023-6.401-4.689-7.242 1.604-7.251 5.307-22.435 5.307-24.922-0.01-3.284-9.76-50.441-9.76-50.441m10.14 52.358c-0.569 3.445-2.127 10.197-3.535 16.299-0.538 2.334-1.045 4.524-1.442 6.309 3.085 1.179 4.586 3.686 4.586 7.645 0 3.517 0.481 18.202 1.041 35.207 0.854 26.063 1.921 58.502 1.733 65.615-0.303 11.512-3.403 79.368-3.701 82.658-0.021 0.22-0.037 0.436-0.055 0.647-0.182 2.303-0.354 4.483-3.789 6.06 1.713 4.951 4.576 13.3 6.742 19.948 3.801-16.55 5.779-45.364 8.512-89.843 2.56-41.51-6.3-120.86-10.08-150.55v0.003z" fill="#EFEFE8"></path> </g> <g> <linearGradient id="SVGID_20_" y2="236.84" gradientUnits="userSpaceOnUse" x2="-18.668" gradientTransform="matrix(1 0 0 -1 66.752 321.09)" y1="107.03" x1="-24.489"> <stop style="stop-color:#EFEFE8" offset="0"></stop> <stop style="stop-color:#B9B6AF" offset="1"></stop> </linearGradient> <path d="m42.307 305.92c-3.977-16.396-5.98-45.5-8.772-90.968-2.593-42.23 6.627-123.68 10.287-152.11 0.189 2.229 1.851 9.173 3.463 15.898 0.756 3.168 1.476 6.167 1.987 8.457-3.162 1.099-4.64 3.471-4.64 7.446 0 3.521-0.481 18.208-1.041 35.213-0.854 26.061-1.919 58.497-1.732 65.603 0.303 11.506 3.401 79.348 3.701 82.639l0.054 0.647c0.178 2.263 0.346 4.405 3.865 5.919-1.792 5.19-4.95 14.38-7.172 21.26zm2.126-247.73c0.259-1.925 0.466-3.378 0.607-4.296 1.227-7.966 3.57-18.454 5.607-26.944-2.216 10.7-4.989 24.317-6.214 31.24z" fill="url(#SVGID_20_)"></path> <path d="m54.105 11.929s-9.994 47.263-9.994 50.551c0 2.486 3.917 17.67 5.521 24.922-2.666 0.841-4.69 2.711-4.69 7.242 0 8.944-3.083 89.092-2.774 100.81s3.391 79.229 3.699 82.618c0.239 2.63 0.064 4.843 4 6.422-1.923 5.554-5.34 15.506-7.596 22.557-4.11-16.029-6.166-45.214-9.043-92.072-2.878-46.86 9.043-145.1 11.509-161.13 2.466-16.032 9.368-41.921 9.368-41.921m-10.254 53.119c-3.823 30.184-12.538 108.69-10.008 149.89 2.731 44.479 4.709 73.292 8.512 89.843 2.165-6.651 5.029-14.998 6.741-19.948-3.436-1.575-3.608-3.757-3.79-6.061-0.017-0.212-0.034-0.428-0.054-0.646-0.298-3.288-3.398-71.143-3.701-82.657-0.187-7.113 0.877-39.546 1.733-65.604 0.558-17.01 1.041-31.701 1.041-35.218 0-3.959 1.501-6.465 4.586-7.645-0.506-2.252-1.199-5.145-1.929-8.193-1.249-5.212-2.528-10.556-3.131-13.756z" fill="#EFEFE8"></path> </g> <g fill="#262F29"> <path d="m117.14 38.853c0.129 1.099-0.658 2.094-1.757 2.223l-6.43 0.753c-1.099 0.129-2.095-0.658-2.224-1.757s0.658-2.094 1.757-2.223l6.43-0.753c1.09-0.129 2.09 0.657 2.22 1.757z"></path> <path d="m140.64 38.853c-0.129 1.099 0.658 2.094 1.758 2.223l6.43 0.753c1.1 0.129 2.095-0.658 2.224-1.757 0.13-1.099-0.657-2.094-1.757-2.223l-6.43-0.753c-1.1-0.129-2.09 0.657-2.22 1.757z"></path> </g> <g> <path stroke="#81776F" stroke-width=".6166" d="m136.9 37.458c0 1.236-1.424 2.239-3.183 2.239h-10.282c-1.757 0-3.182-1.003-3.182-2.239s1.425-2.239 3.182-2.239h10.282c1.76 0 3.18 1.003 3.18 2.239z" fill="none"></path> <path d="m133.82 37.458c0 1.106-0.896 2.003-2.004 2.003h-6.474c-1.107 0-2.004-0.896-2.004-2.003 0-1.106 0.897-2.004 2.004-2.004h6.474c1.1 0.001 2 0.898 2 2.004z" fill="#262F29"></path> </g> <linearGradient id="SVGID_21_" y2="49.822" gradientUnits="userSpaceOnUse" x2="-46.831" gradientTransform="matrix(1 0 0 -1 66.752 321.09)" y1="49.513" x1="-50.839"> <stop style="stop-color:#6FB121" offset="0"></stop> <stop style="stop-color:#006625" offset="1"></stop> </linearGradient> <path d="m16.084 286.02s-2.763-23.255-2.906-26.081c-0.134-2.645 0.078-9.422 2.491-2.688 2.413 6.735 9.035 31.024 9.035 31.024l-8.62-2.25z" fill="url(#SVGID_21_)"></path> <linearGradient id="SVGID_22_" y2="49.822" gradientUnits="userSpaceOnUse" x2="-746.28" gradientTransform="matrix(-1 0 0 -1 -511.63 321.09)" y1="49.514" x1="-750.29"> <stop style="stop-color:#EA670C" offset="0"></stop> <stop style="stop-color:#5A1214" offset="1"></stop> </linearGradient> <path d="m238.48 286.02s2.763-23.255 2.906-26.081c0.133-2.645-0.078-9.422-2.492-2.688-2.412 6.735-9.034 31.024-9.034 31.024l8.61-2.25z" fill="url(#SVGID_22_)"></path> <g> <linearGradient id="SVGID_23_" y2="2.3747" gradientUnits="userSpaceOnUse" x2="-38.294" gradientTransform="matrix(1 0 0 -1 66.752 321.09)" y1=".217" x1="-47.85"> <stop style="stop-color:#41A3D7" offset="0"></stop> <stop style="stop-color:#00538E" offset="1"></stop> </linearGradient> <path d="m19.007 327.6l2.881-2.721s-2.642-3.36-2.881-5.44c-0.24-2.079 0.12-4.641 3.84-4.8-3.601-1.279-6.601-0.96-7.201 4.8-0.24 2.88 1.08 5.92 3.361 8.16z" fill="url(#SVGID_23_)"></path> <linearGradient id="SVGID_24_" y2="-9.5053" gradientUnits="userSpaceOnUse" x2="-35.611" gradientTransform="matrix(1 0 0 -1 66.752 321.09)" y1="-11.663" x1="-45.168"> <stop style="stop-color:#41A3D7" offset="0"></stop> <stop style="stop-color:#00538E" offset="1"></stop> </linearGradient> <path d="m29.777 324.07l-2.685 3.054s2.858 3.031 3.237 5.072c0.379 2.043 0.194 4.637-3.5 5.243 3.672 0.841 6.638 0.162 6.847-5.647 0.045-2.88-1.475-5.75-3.899-7.71z" fill="url(#SVGID_24_)"></path> <linearGradient id="SVGID_25_" y2="-8.8179" gradientUnits="userSpaceOnUse" x2="-35.766" gradientTransform="matrix(1 0 0 -1 66.752 321.09)" y1="-10.976" x1="-45.322"> <stop style="stop-color:#41A3D7" offset="0"></stop> <stop style="stop-color:#00538E" offset="1"></stop> </linearGradient> <ellipse cy="331.68" cx="23.147" rx="3" ry="4" fill="url(#SVGID_25_)"></ellipse> <linearGradient id="SVGID_26_" y2="2.1651" gradientUnits="userSpaceOnUse" x2="-38.247" gradientTransform="matrix(1 0 0 -1 66.752 321.09)" y1=".0076" x1="-47.802"> <stop style="stop-color:#41A3D7" offset="0"></stop> <stop style="stop-color:#00538E" offset="1"></stop> </linearGradient> <ellipse cy="319.28" cx="26.928" rx="2.82" ry="3.761" fill="url(#SVGID_26_)"></ellipse> </g> <linearGradient id="SVGID_27_" y2="-78.063" gradientUnits="userSpaceOnUse" x2="-43.483" gradientTransform="matrix(.992 -.126 -.126 -.992 71.882 286.69)" y1="-78.063" x1="-58.309"> <stop style="stop-color:#FFFFFF" offset="0"></stop> <stop style="stop-color:#736A64" offset="1"></stop> </linearGradient> <path d="m31.02 376.08l8.701 2.489-1.844-8.882 0.136-0.127-7.486-8.026-0.291 0.271-2.609 2.433-4.177 3.896 0.272 0.291 6.995 7.5-0.057 0.054 0.145 0.041 0.131 0.142 0.084-0.07zm1.31-0.51l4.953-4.599 1.328 6.395-6.281-1.79zm-1.843-12.92l6.403 6.866-2.563 2.389-1.575-1.803-4.604-5.273 2.339-2.19zm-2.919 2.73l1.958 2.242 4.219 4.833-2.771 2.584-6.403-6.864 2.997-2.79z" fill="url(#SVGID_27_)"></path> <linearGradient id="SVGID_28_" y2="23.361" gradientUnits="userSpaceOnUse" x2="164.23" gradientTransform="matrix(1.0854 .1628 .1483 -.9889 43.53 311.75)" y1="23.952" x1="172.95"> <stop style="stop-color:#FFFFFF" offset="0"></stop> <stop style="stop-color:#FCFBFB" offset=".1674"></stop> <stop style="stop-color:#F0EEED" offset=".2953"></stop> <stop style="stop-color:#DEDAD7" offset=".4101"></stop> <stop style="stop-color:#C4BEBA" offset=".5173"></stop> <stop style="stop-color:#A59D98" offset=".6191"></stop> <stop style="stop-color:#827972" offset=".7157"></stop> <stop style="stop-color:#736A64" offset=".7527"></stop> </linearGradient> <path d="m225.98 324.25c-0.461-0.649-0.688-1.348-0.832-1.997-0.244-1.141-0.211-2.158-0.198-2.418-0.021-0.562-0.228-5.747 0.315-9.396 0.184-1.169 0.404-2.171 0.877-2.981 0.439-0.752 1.137-1.278 1.879-1.516 0.744-0.243 1.479-0.231 2.123-0.136 1.605 0.254 2.815 1.015 2.894 1.051h0.002c0.571 0.345 0.741 1.042 0.382 1.558-0.361 0.516-1.12 0.652-1.693 0.309 0 0-0.033-0.021-0.137-0.076-0.104-0.057-0.257-0.133-0.443-0.215-0.371-0.166-0.879-0.345-1.336-0.411-0.367-0.058-0.685-0.038-0.902 0.036-0.221 0.08-0.395 0.181-0.606 0.521-0.204 0.317-0.458 1.188-0.604 2.229-0.264 1.749-0.342 4.031-0.348 5.856-0.009 1.826 0.053 3.19 0.055 3.193v0.052l-0.002 0.06c0.002 0.002-0.008 0.11-0.008 0.33 0 0.221 0.013 0.531 0.049 0.873 0.062 0.685 0.281 1.494 0.578 1.888 0.207 0.268 0.319 0.334 0.551 0.378 1.087 0.166 2.595 0.155 3.791 0.094 1.201-0.061 2.087-0.166 2.089-0.165 0.671-0.08 1.298 0.354 1.401 0.969 0.104 0.615-0.353 1.179-1.022 1.257-0.058-0.001-3.776 0.469-6.59 0.062-0.011-0.001-0.019-0.003-0.027-0.004-1.01-0.16-1.79-0.77-2.23-1.4z" fill="url(#SVGID_28_)"></path> <g> <g stroke="#81776F" stroke-width="1.2331"> <linearGradient id="SVGID_29_" y2="-108.93" gradientUnits="userSpaceOnUse" x2="60.844" gradientTransform="matrix(1 0 0 -1 66.752 321.09)" y1="-90.436" x1="61.666"> <stop style="stop-color:#EFEFE8" offset="0"></stop> <stop style="stop-color:#E6E5DD" offset=".1525"></stop> <stop style="stop-color:#CECAC2" offset=".3964"></stop> <stop style="stop-color:#AAA299" offset=".6995"></stop> <stop style="stop-color:#81776F" offset="1"></stop> </linearGradient> <path d="m128.76 405.93s-10.058 0.088-25.297-2.152c1.007 9.121 2.008 18.236 2.903 26.401 14.251 2.2 22.395 1.029 22.395 1.029s8.143 1.171 22.395-1.029c0.894-8.165 1.896-17.28 2.901-26.401-15.24 2.24-25.3 2.15-25.3 2.15z" fill="url(#SVGID_29_)"></path> <linearGradient id="SVGID_30_" y2="-129.07" gradientUnits="userSpaceOnUse" x2="106.05" gradientTransform="matrix(1 0 0 -1 66.752 321.09)" y1="-108.52" x1="106.46"> <stop style="stop-color:#EFEFE8" offset="0"></stop> <stop style="stop-color:#E6E5DD" offset=".1525"></stop> <stop style="stop-color:#CECAC2" offset=".3964"></stop> <stop style="stop-color:#AAA299" offset=".6995"></stop> <stop style="stop-color:#81776F" offset="1"></stop> </linearGradient> <path d="m148.2 455.6c5.213-0.738 10.791-1.612 15.832-2.58 15.014-3.487 26.202-2.312 33.602-36.224 0.122-0.554 0.245-1.123 0.369-1.703-19.118 9.096-35.185 13.258-47.028 15.087-1.2 10.93-2.2 20.16-2.77 25.41z" fill="url(#SVGID_30_)"></path> <linearGradient id="SVGID_31_" y2="-33.228" gradientUnits="userSpaceOnUse" x2="121.8" gradientTransform="matrix(1 0 0 -1 66.752 321.09)" y1="-6.5105" x1="121.8"> <stop style="stop-color:#EFEFE8" offset="0"></stop> <stop style="stop-color:#EAEAE2" offset=".1737"></stop> <stop style="stop-color:#DDDAD2" offset=".3655"></stop> <stop style="stop-color:#C7C1B9" offset=".5659"></stop> <stop style="stop-color:#A9A198" offset=".7722"></stop> <stop style="stop-color:#847B72" offset=".9812"></stop> <stop style="stop-color:#81776F" offset="1"></stop> </linearGradient> <path d="m160.33 347.43c-0.092 0.577-0.242 1.705-0.438 3.291 17.303-2.1 38.09-5.912 52.26-12.772 1.906-11.143 3.65-21.506 5.059-29.858-12.71 4.517-36.507 13.021-43.623 15.911-9.87 4.01-12.03 15.72-13.26 23.43z" fill="url(#SVGID_31_)"></path> <linearGradient id="SVGID_32_" y2="-102.66" gradientUnits="userSpaceOnUse" x2="110.39" gradientTransform="matrix(1 0 0 -1 66.752 321.09)" y1="-82.11" x1="109.98"> <stop style="stop-color:#EFEFE8" offset="0"></stop> <stop style="stop-color:#E6E5DD" offset=".1525"></stop> <stop style="stop-color:#CECAC2" offset=".3964"></stop> <stop style="stop-color:#AAA299" offset=".6995"></stop> <stop style="stop-color:#81776F" offset="1"></stop> </linearGradient> <path d="m150.97 430.18c11.846-1.829 27.91-5.991 47.028-15.087 1.427-6.672 3.062-15.034 4.784-24.269-18.105 7.214-35.51 10.983-48.909 12.953-1 9.13-2 18.24-2.9 26.41z" fill="url(#SVGID_32_)"></path> <linearGradient id="SVGID_33_" y2="-74.483" gradientUnits="userSpaceOnUse" x2="115.75" gradientTransform="matrix(1 0 0 -1 66.752 321.09)" y1="-53.931" x1="112.46"> <stop style="stop-color:#EFEFE8" offset="0"></stop> <stop style="stop-color:#E6E5DD" offset=".1525"></stop> <stop style="stop-color:#CECAC2" offset=".3964"></stop> <stop style="stop-color:#AAA299" offset=".6995"></stop> <stop style="stop-color:#81776F" offset="1"></stop> </linearGradient> <path d="m153.88 403.78c13.399-1.97 30.804-5.739 48.909-12.953 1.529-8.2 3.131-17.085 4.718-26.081-15.226 6.773-34.823 10.515-50.683 12.565-0.93 8.18-1.94 17.32-2.95 26.46z" fill="url(#SVGID_33_)"></path> <linearGradient id="SVGID_34_" y2="-50.193" gradientUnits="userSpaceOnUse" x2="120.53" gradientTransform="matrix(1 0 0 -1 66.752 321.09)" y1="-32.108" x1="116.83"> <stop style="stop-color:#EFEFE8" offset="0"></stop> <stop style="stop-color:#E6E5DD" offset=".1525"></stop> <stop style="stop-color:#CECAC2" offset=".3964"></stop> <stop style="stop-color:#AAA299" offset=".6995"></stop> <stop style="stop-color:#81776F" offset="1"></stop> </linearGradient> <path d="m156.82 377.31c15.859-2.052 35.457-5.792 50.683-12.565 1.591-9.014 3.167-18.136 4.647-26.791-14.168 6.86-34.957 10.674-52.26 12.772-0.63 5.07-1.75 14.86-3.07 26.59z" fill="url(#SVGID_34_)"></path> <linearGradient id="SVGID_35_" y2="-134.34" gradientUnits="userSpaceOnUse" x2="17.307" gradientTransform="matrix(1 0 0 -1 66.752 321.09)" y1="-110.09" x1="17.307"> <stop style="stop-color:#EFEFE8" offset="0"></stop> <stop style="stop-color:#E6E5DD" offset=".1525"></stop> <stop style="stop-color:#CECAC2" offset=".3964"></stop> <stop style="stop-color:#AAA299" offset=".6995"></stop> <stop style="stop-color:#81776F" offset="1"></stop> </linearGradient> <path d="m59.158 415.09c0.124 0.58 0.247 1.149 0.367 1.703 7.399 33.911 18.588 32.735 33.602 36.224 5.042 0.968 10.62 1.842 15.832 2.58-0.571-5.246-1.576-14.479-2.774-25.42-11.849-1.82-27.916-5.99-47.032-15.08z" fill="url(#SVGID_35_)"></path> <linearGradient id="SVGID_36_" y2="-134.74" gradientUnits="userSpaceOnUse" x2="60.857" gradientTransform="matrix(1 0 0 -1 66.752 321.09)" y1="-112.96" x1="61.68"> <stop style="stop-color:#EFEFE8" offset="0"></stop> <stop style="stop-color:#E6E5DD" offset=".1525"></stop> <stop style="stop-color:#CECAC2" offset=".3964"></stop> <stop style="stop-color:#AAA299" offset=".6995"></stop> <stop style="stop-color:#81776F" offset="1"></stop> </linearGradient> <path d="m128.58 431.21s-8.143 1.171-22.395-1.029c1.198 10.941 2.204 20.174 2.774 25.42 10.564 1.496 18.974 2.431 19.62 2.431 0.647 0 9.057-0.935 19.62-2.431 0.57-5.246 1.576-14.479 2.773-25.42-14.24 2.2-22.38 1.03-22.38 1.03z" fill="url(#SVGID_36_)"></path> <linearGradient id="SVGID_37_" y2="-82.142" gradientUnits="userSpaceOnUse" x2="61.828" gradientTransform="matrix(1 0 0 -1 66.752 321.09)" y1="-63.645" x1="61.828"> <stop style="stop-color:#EFEFE8" offset="0"></stop> <stop style="stop-color:#E6E5DD" offset=".1525"></stop> <stop style="stop-color:#CECAC2" offset=".3964"></stop> <stop style="stop-color:#AAA299" offset=".6995"></stop> <stop style="stop-color:#81776F" offset="1"></stop> </linearGradient> <path d="m100.34 377.31c0.921 8.193 1.937 17.334 2.945 26.469 15.239 2.24 25.297 2.152 25.297 2.152s10.059 0.088 25.298-2.152c1.009-9.135 2.024-18.274 2.944-26.469-16.031 2.071-28.242 2.417-28.242 2.417s-12.21-0.35-28.24-2.42z" fill="url(#SVGID_37_)"></path> <linearGradient id="SVGID_38_" y2="-57.086" gradientUnits="userSpaceOnUse" x2="62.659" gradientTransform="matrix(1 0 0 -1 66.752 321.09)" y1="-43.522" x1="62.248"> <stop style="stop-color:#EFEFE8" offset="0"></stop> <stop style="stop-color:#E6E5DD" offset=".1525"></stop> <stop style="stop-color:#CECAC2" offset=".3964"></stop> <stop style="stop-color:#AAA299" offset=".6995"></stop> <stop style="stop-color:#81776F" offset="1"></stop> </linearGradient> <path d="m128.58 379.72s12.211-0.346 28.242-2.417c1.316-11.728 2.438-21.515 3.07-26.584-2.084 0.253-4.115 0.479-6.082 0.685-0.879 2.358-2.224 4.609-6.427 5.273-5.856 0.925-18.805 1.154-18.805 1.154s-12.948-0.229-18.805-1.154c-4.203-0.664-5.545-2.915-6.426-5.273-1.965-0.205-3.998-0.432-6.082-0.685 0.632 5.069 1.754 14.856 3.071 26.584 16.03 2.08 28.24 2.42 28.24 2.42z" fill="url(#SVGID_38_)"></path> <linearGradient id="SVGID_39_" y2="-33.228" gradientUnits="userSpaceOnUse" x2="1.856" gradientTransform="matrix(1 0 0 -1 66.752 321.09)" y1="-6.5105" x1="1.856"> <stop style="stop-color:#EFEFE8" offset="0"></stop> <stop style="stop-color:#EAEAE2" offset=".1737"></stop> <stop style="stop-color:#DDDAD2" offset=".3655"></stop> <stop style="stop-color:#C7C1B9" offset=".5659"></stop> <stop style="stop-color:#A9A198" offset=".7722"></stop> <stop style="stop-color:#847B72" offset=".9812"></stop> <stop style="stop-color:#81776F" offset="1"></stop> </linearGradient> <path d="m96.827 347.43c-1.233-7.707-3.391-19.421-13.256-23.43-7.116-2.891-30.912-11.396-43.623-15.911 1.406 8.354 3.152 18.717 5.059 29.858 14.168 6.86 34.956 10.674 52.259 12.772-0.198-1.58-0.347-2.71-0.439-3.29z" fill="url(#SVGID_39_)"></path> <linearGradient id="SVGID_40_" y2="-105.62" gradientUnits="userSpaceOnUse" x2="13.232" gradientTransform="matrix(1 0 0 -1 66.752 321.09)" y1="-83.017" x1="13.643"> <stop style="stop-color:#EFEFE8" offset="0"></stop> <stop style="stop-color:#E6E5DD" offset=".1525"></stop> <stop style="stop-color:#CECAC2" offset=".3964"></stop> <stop style="stop-color:#AAA299" offset=".6995"></stop> <stop style="stop-color:#81776F" offset="1"></stop> </linearGradient> <path d="m103.28 403.78c-13.399-1.97-30.805-5.739-48.91-12.953 1.723 9.233 3.358 17.597 4.786 24.269 19.117 9.096 35.183 13.258 47.027 15.087-0.89-8.18-1.89-17.29-2.9-26.41z" fill="url(#SVGID_40_)"></path> <linearGradient id="SVGID_41_" y2="-82.376" gradientUnits="userSpaceOnUse" x2="2.8311" gradientTransform="matrix(1 0 0 -1 66.752 321.09)" y1="-60.591" x1="10.641"> <stop style="stop-color:#EFEFE8" offset="0"></stop> <stop style="stop-color:#E6E5DD" offset=".1525"></stop> <stop style="stop-color:#CECAC2" offset=".3964"></stop> <stop style="stop-color:#AAA299" offset=".6995"></stop> <stop style="stop-color:#81776F" offset="1"></stop> </linearGradient> <path d="m100.34 377.31c-15.859-2.052-35.457-5.792-50.682-12.565 1.587 8.996 3.188 17.881 4.717 26.081 18.105 7.214 35.511 10.983 48.91 12.953-1.01-9.13-2.02-18.27-2.94-26.46z" fill="url(#SVGID_41_)"></path> <linearGradient id="SVGID_42_" y2="-56.042" gradientUnits="userSpaceOnUse" x2="-1.3939" gradientTransform="matrix(1 0 0 -1 66.752 321.09)" y1="-33.024" x1="7.2378"> <stop style="stop-color:#EFEFE8" offset="0"></stop> <stop style="stop-color:#E6E5DD" offset=".1525"></stop> <stop style="stop-color:#CECAC2" offset=".3964"></stop> <stop style="stop-color:#AAA299" offset=".6995"></stop> <stop style="stop-color:#81776F" offset="1"></stop> </linearGradient> <path d="m97.266 350.72c-17.303-2.1-38.091-5.912-52.259-12.772 1.48 8.655 3.058 17.777 4.648 26.791 15.225 6.773 34.822 10.515 50.682 12.565-1.319-11.72-2.442-21.51-3.074-26.58z" fill="url(#SVGID_42_)"></path> </g> <ellipse rx="1.889" ry="17.42" transform="matrix(.326 -.9454 .9454 .326 -268.76 284.01)" cy="330.5" cx="64.805" fill="#005EA2"></ellipse> <ellipse rx="1.889" ry="17.419" transform="matrix(.3262 .9453 -.9453 .3262 441.08 42.162)" cy="330.49" cx="190.96" fill="#005EA2"></ellipse> <g> <path d="m133.61 372.64l-2.379-0.067c-0.396-0.012-0.711-0.171-0.944-0.478-0.233-0.309-0.343-0.742-0.326-1.306 0.017-0.562 0.151-0.99 0.41-1.283 0.259-0.295 0.604-0.436 1.037-0.423l1.629 0.047 0.017-0.549c0.01-0.365-0.043-0.646-0.158-0.836-0.117-0.19-0.313-0.29-0.592-0.299l-1.906-0.054 0.026-0.915 1.896 0.054c0.527 0.016 0.898 0.213 1.115 0.595 0.219 0.384 0.317 0.896 0.299 1.544l-0.13 3.98zm-0.64-0.93l0.048-1.661-1.762-0.05c-0.184-0.006-0.331 0.06-0.441 0.191-0.109 0.132-0.168 0.346-0.178 0.636-0.008 0.292 0.045 0.502 0.158 0.632s0.252 0.197 0.414 0.202l1.76 0.05z"></path> <path d="m135.67 372.7l0.235-8.303 0.672 0.019-0.064 2.252 1.562 0.044c0.896 0.025 1.324 0.7 1.287 2.022l-0.062 2.167c-0.019 0.646-0.147 1.123-0.387 1.426s-0.604 0.448-1.088 0.436l-2.15-0.07zm0.77-5.12l-0.118 4.223 1.596 0.045c0.47 0.014 0.713-0.28 0.729-0.881l0.062-2.183c0.021-0.76-0.229-1.146-0.75-1.161l-1.52-0.04z"></path> <path d="m144 372.94l-1.299-0.036c-0.565-0.018-0.978-0.199-1.233-0.549-0.259-0.352-0.379-0.878-0.359-1.581l0.054-1.844c0.021-0.714 0.171-1.241 0.453-1.586 0.28-0.345 0.707-0.509 1.278-0.491l1.301 0.037-0.025 0.915-1.421-0.041c-0.587-0.018-0.892 0.363-0.913 1.144l-0.057 1.998c-0.012 0.395 0.055 0.671 0.197 0.829 0.142 0.159 0.367 0.243 0.676 0.252l1.375 0.039-0.02 0.92z"></path> </g> <g> <path d="m177.28 366.95c-0.461 0.087-0.834-0.008-1.117-0.283-0.284-0.276-0.482-0.719-0.598-1.327l-0.396-2.089c-0.251-1.328 0.074-2.077 0.978-2.248l1.515-0.284-0.418-2.215 0.628-0.117 1.541 8.161-2.13 0.41zm-0.89-5.06c-0.274 0.052-0.453 0.187-0.535 0.401s-0.098 0.506-0.043 0.868l0.412 2.187c0.105 0.562 0.379 0.802 0.818 0.719l1.548-0.292-0.782-4.15-1.43 0.26z"></path> <path d="m182.57 359.78c0.426-0.08 0.765 0.009 1.015 0.268 0.251 0.26 0.433 0.684 0.543 1.273l0.304 1.604-2.922 0.553 0.146 0.773c0.094 0.298 0.193 0.512 0.301 0.646 0.107 0.133 0.275 0.177 0.507 0.133l2.121-0.4 0.173 0.913-2.1 0.396c-0.418 0.079-0.77 0.004-1.051-0.226-0.282-0.229-0.477-0.619-0.58-1.173l-0.474-2.504c-0.228-1.208 0.128-1.9 1.065-2.078l0.95-0.17zm0.93 1.7c-0.056-0.296-0.144-0.512-0.263-0.646-0.118-0.136-0.282-0.184-0.491-0.145l-0.995 0.188c-0.469 0.088-0.646 0.434-0.534 1.032l0.146 0.774 2.283-0.433-0.16-0.76z"></path> <path d="m187.55 359.64l-1.039 0.195 0.979 5.188-0.648 0.123-1.092-5.782c-0.3-1.587 0.1-2.483 1.193-2.69l0.066-0.013 0.172 0.913c-0.679 0.128-0.947 0.6-0.809 1.413l1.018-0.192 0.16 0.84z"></path> </g> <g> <path d="m170.65 388.35c0.396-0.072 0.724 0.047 0.979 0.356 0.255 0.312 0.438 0.777 0.552 1.396l0.734 4-0.65 0.119-0.729-3.976c-0.066-0.358-0.184-0.619-0.35-0.778-0.17-0.16-0.371-0.22-0.609-0.176l-0.617 0.113c-0.593 0.108-0.812 0.569-0.665 1.382l0.706 3.851-0.648 0.118-0.725-3.945c-0.137-0.747-0.467-1.074-0.986-0.979l-0.541 0.101c-0.613 0.111-0.842 0.599-0.685 1.457l0.692 3.779-0.639 0.117-1.095-5.969 0.585-0.107 0.174 0.827c0.023-0.279 0.112-0.509 0.266-0.685 0.154-0.178 0.359-0.289 0.611-0.335l0.77-0.143c0.304-0.056 0.544-0.023 0.722 0.091 0.179 0.115 0.315 0.315 0.413 0.604 0.053-0.611 0.346-0.966 0.88-1.063l0.88-0.14z"></path> <path d="m174.54 388.38c0.035-0.255 0.134-0.459 0.296-0.611 0.163-0.154 0.358-0.253 0.59-0.295l0.866-0.159c0.412-0.075 0.743 0.018 0.992 0.277 0.248 0.26 0.429 0.692 0.54 1.305l0.765 4.166-0.639 0.117-0.739-4.029c-0.127-0.691-0.445-0.991-0.959-0.897l-0.747 0.138c-0.593 0.107-0.813 0.568-0.665 1.382l0.706 3.85-0.639 0.117-1.095-5.969 0.584-0.107 0.14 0.71z"></path> <path d="m181.88 386.29c0.845-0.154 1.379 0.378 1.603 1.597l0.416 2.271c0.115 0.628 0.092 1.116-0.072 1.466-0.162 0.351-0.457 0.563-0.883 0.643l-1.139 0.208c-0.434 0.08-0.781-0.017-1.044-0.288-0.262-0.271-0.45-0.721-0.565-1.35l-0.416-2.271c-0.225-1.218 0.098-1.907 0.963-2.066l1.14-0.21zm-0.84 1.09c-0.521 0.097-0.709 0.525-0.567 1.292l0.348 1.897c0.068 0.378 0.181 0.648 0.334 0.812 0.152 0.162 0.361 0.221 0.63 0.171l0.845-0.154c0.527-0.098 0.719-0.537 0.575-1.322l-0.347-1.883c-0.135-0.738-0.455-1.062-0.961-0.97l-0.85 0.15z"></path> </g> <g> <path d="m164.14 412.9l-0.012 6.208-1.281 0.273-1.717-4.715 0.08 5.064-1.064 0.229-2.52-5.666 0.775-0.166 2.125 4.987-0.111-5.418 0.904-0.194 2.051 5.005-0.027-5.438 0.81-0.16z"></path> <path d="m169.01 411.86l-0.604 3.226 1.83 2.719-0.773 0.166-1.326-2.093-0.332 2.446-0.797 0.171 0.613-3.126-1.873-2.81 0.754-0.162 1.373 2.213 0.381-2.588 0.76-0.17z"></path> <path d="m173.44 419.38l-0.201-0.936 1.422-0.304c0.195-0.07 0.322-0.173 0.381-0.306 0.057-0.133 0.064-0.305 0.02-0.516l-0.114-0.536-1.4 0.3c-0.519 0.11-0.932 0.002-1.239-0.325-0.312-0.325-0.55-0.876-0.713-1.646l-0.779-3.635 0.656-0.142 0.815 3.814c0.174 0.808 0.512 1.157 1.015 1.05l1.497-0.32-1.075-5.024 0.625-0.135 1.297 6.06c0.146 0.688 0.143 1.22-0.017 1.593-0.155 0.375-0.446 0.617-0.875 0.727l-1.32 0.3z"></path> <path d="m180.74 415.55l-3.197 0.685-0.133-0.619 1.404-4.908-2.305 0.493-0.193-0.909 3.176-0.68 0.174 0.812-1.303 4.698 2.186-0.468 0.19 0.9z"></path> </g> <g> <path d="m179.37 440.97l-3.189 0.853 0.74 2.774-0.867 0.23-0.742-2.773-1.692 0.451-0.267-0.998 1.736-0.465-1.273-4.772-1.693 0.452-0.268-0.999 1.715-0.458-0.674-2.525 0.867-0.23 0.674 2.524 3.191-0.852-0.675-2.525 0.868-0.23 0.674 2.524 1.562-0.418 0.268 0.999-1.606 0.429 1.274 4.773 1.562-0.417 0.268 0.999-1.584 0.423 0.74 2.774-0.892 0.237-0.72-2.77zm-3.43-0.16l3.17-0.846-1.274-4.773-3.169 0.846 1.27 4.77z"></path> </g> <g> <path d="m132.56 396.99c0.01 0.704-0.084 1.243-0.281 1.617-0.197 0.373-0.555 0.562-1.076 0.57l-0.363 0.005-0.014-0.915c0.037 0.01 0.076 0.014 0.117 0.014 0.039-0.001 0.078-0.002 0.115-0.002 0.285-0.004 0.496-0.104 0.629-0.305s0.195-0.538 0.188-1.018l-0.086-6.066 0.685-0.011 0.08 6.13zm-0.09-7.5l-0.684 0.01-0.012-0.845 0.684-0.01 0.01 0.84z"></path> <path d="m136.02 393.65c0.08-0.011 0.154-0.02 0.22-0.024 0.065-0.006 0.125-0.009 0.178-0.01 0.418-0.006 0.746 0.119 0.983 0.373 0.238 0.256 0.361 0.641 0.369 1.157l0.023 1.73-0.682 0.011-0.023-1.634c-0.004-0.271-0.082-0.491-0.234-0.658-0.151-0.167-0.381-0.247-0.682-0.243l-1.023 0.015 0.035 2.548-0.647 0.009-0.117-8.306 0.66-0.01 0.073 5.293 1.841-3.081 0.75-0.01-1.73 2.83z"></path> <path d="m140.28 396.84l-0.648 0.011-0.117-8.307 0.65-0.01 0.12 8.31z"></path> </g> <g> <path d="m132.34 423.32h-0.109c-0.56-0.004-0.967-0.177-1.226-0.521-0.259-0.345-0.387-0.858-0.383-1.545l0.037-6.166 0.716 0.005-0.013 2.168 1.034 0.006-0.004 0.845-1.058-0.006-0.021 3.21c-0.004 0.723 0.338 1.086 1.029 1.09l-0.01 0.91z"></path> <path d="m137.83 423.35l-0.528-0.003-0.062-0.762c-0.053 0.254-0.17 0.442-0.354 0.567-0.185 0.126-0.416 0.188-0.694 0.188l-0.705-0.004c-0.924-0.006-1.383-0.689-1.375-2.051l0.023-4.026 0.661 0.004-0.024 4.055c-0.002 0.366 0.073 0.642 0.228 0.825 0.151 0.184 0.36 0.277 0.625 0.278l0.628 0.004c0.294 0.002 0.525-0.109 0.695-0.334 0.17-0.226 0.258-0.562 0.261-1.013l0.022-3.802 0.639 0.004-0.05 6.07z"></path> <path d="m143.3 417.32l-1.457 6.061-0.979-0.007-1.309-6.076 0.76 0.005 1.06 5.302 1.188-5.287 0.74 0.01z"></path> </g> <g> <path d="m73.691 392.33l0.188-0.938 1.469 0.294c0.338 0.066 0.545-0.083 0.618-0.45l0.138-0.69-1.728-0.347c-0.339-0.066-0.591-0.249-0.756-0.546-0.166-0.296-0.188-0.743-0.069-1.342l0.525-2.622c0.122-0.607 0.308-1.019 0.561-1.23 0.252-0.213 0.604-0.272 1.059-0.184l2.268 0.454-1.321 6.599c-0.105 0.524-0.272 0.895-0.501 1.105-0.23 0.213-0.514 0.285-0.853 0.218l-1.598-0.31zm3.465-6.81l-1.75-0.352c-0.338-0.066-0.555 0.139-0.65 0.616l-0.514 2.567c-0.054 0.268-0.046 0.483 0.021 0.65 0.068 0.166 0.203 0.271 0.404 0.312l1.663 0.332 0.826-4.13z"></path> <path d="m80.474 385.99c0.254-0.447 0.619-0.623 1.094-0.527l0.863 0.174c0.799 0.158 1.086 0.806 0.859 1.938l-0.849 4.238-0.638-0.128 0.802-4.003c0.138-0.69-0.049-1.087-0.559-1.188l-0.745-0.148c-0.591-0.118-0.966 0.223-1.126 1.022l-0.769 3.838-0.627-0.125 1.631-8.146 0.67 0.134-0.606 2.93z"></path> <path d="m84.881 392.3l-0.658-0.133 1.191-5.948 0.658 0.132-1.191 5.95zm1.498-7.31l-0.67-0.134 0.166-0.828 0.681 0.136-0.177 0.82z"></path> </g> <g> <path d="m76.304 416.3l-0.387 2.189-0.606-0.106 1.444-8.165 2.212 0.391c0.89 0.157 1.222 0.869 0.998 2.135l-0.39 2.204c-0.221 1.248-0.819 1.786-1.795 1.613l-1.476-0.25zm0.918-5.05l-0.738 4.173 1.442 0.255c0.253 0.046 0.464 0.004 0.631-0.125 0.168-0.127 0.279-0.348 0.335-0.661l0.399-2.261c0.059-0.333 0.05-0.59-0.026-0.77-0.076-0.181-0.241-0.293-0.494-0.338l-1.549-0.28z"></path> <path d="m84.018 419.92l-0.651-0.114 0.387-2.19-1.464-0.259c-0.462-0.082-0.785-0.304-0.967-0.665-0.182-0.36-0.219-0.846-0.111-1.456l0.39-2.204c0.224-1.266 0.791-1.818 1.702-1.657l2.224 0.394-1.51 8.15zm-0.855-7.62c-0.478-0.084-0.774 0.201-0.89 0.857l-0.407 2.302c-0.047 0.27-0.029 0.49 0.055 0.668 0.085 0.177 0.271 0.29 0.561 0.342l1.464 0.26 0.735-4.159-1.518-0.27z"></path> <path d="m89.813 413.46l-0.922-0.163c-0.297-0.053-0.542 0.018-0.735 0.206-0.193 0.189-0.329 0.497-0.404 0.922l-0.669 3.785-0.64-0.112 1.057-5.977 0.586 0.104-0.113 0.767c0.097-0.249 0.256-0.419 0.481-0.508 0.224-0.089 0.499-0.104 0.824-0.048l0.694 0.123-0.159 0.9z"></path> <path d="m90.911 418.88l0.16-0.901 2.169 0.384c0.224 0.039 0.42 0.008 0.592-0.096s0.281-0.289 0.328-0.558c0.047-0.268 0.02-0.481-0.083-0.644-0.102-0.161-0.268-0.262-0.5-0.303l-1.062-0.188c-0.875-0.154-1.207-0.823-0.998-2.006 0.098-0.555 0.292-0.954 0.585-1.197 0.292-0.244 0.642-0.33 1.047-0.258l2.168 0.383-0.162 0.915-2.256-0.397c-0.397-0.07-0.641 0.144-0.729 0.643-0.054 0.305-0.04 0.541 0.038 0.707 0.078 0.167 0.244 0.272 0.497 0.316l1.009 0.179c0.498 0.088 0.831 0.295 0.997 0.62 0.166 0.324 0.198 0.772 0.097 1.347-0.1 0.563-0.304 0.963-0.615 1.199-0.31 0.236-0.671 0.317-1.083 0.245l-2.199-0.38z"></path> </g> <g> <path d="m140.89 449.31l0.008 2.323-9.564 0.034-0.008-2.323 0.986-0.003 0.004 1.364 7.594-0.027-0.006-1.364h0.99z"></path> </g> <g> <path d="m77.217 436.24v-3.943h1.47v3.979l3.012-2.546 1.076 0.896-3.765 3.263 3.371 2.904-1.111 0.933-2.653-2.259v3.979h-1.47v-3.942l-2.546 2.187-1.111-0.932 3.37-2.869-3.621-3.228 1.076-0.933 2.902 2.51z"></path> </g> <g> <path d="m98.105 443.74h-2.976v3.908h-1.613v-3.908h-3.048v-1.973h3.12v-3.766h1.613v3.766h2.904v1.97z"></path> </g> <g> <path d="m58.939 362.9c-0.116-0.013-0.169-0.076-0.158-0.193l1.004-10.293-3.089 2.611c-0.054 0.021-0.108 0.028-0.159 0.022-0.039-0.004-0.071-0.02-0.094-0.049l-0.735-0.938-0.002 0.02c-0.038-0.016-0.053-0.063-0.045-0.143 0.005-0.052 0.029-0.097 0.072-0.132l-0.002 0.021 3.704-3.26c0.057-0.047 0.104-0.066 0.143-0.062l1.794 0.174c0.117 0.013 0.169 0.082 0.157 0.214l-1.168 11.969c-0.012 0.117-0.076 0.17-0.193 0.158l-1.229-0.12z"></path> </g> <g> <path d="m122.91 368.07c-0.147 0.512-0.381 0.913-0.698 1.203h0.012c-0.235 0.226-0.526 0.392-0.875 0.497-0.349 0.104-0.767 0.163-1.251 0.173l-0.556 0.012-0.139 0.003c-0.031 0-0.056-0.002-0.075-0.009-0.02-0.005-0.045-0.008-0.076-0.007s-0.058-0.002-0.081-0.008-0.043-0.01-0.058-0.009l-0.162 0.004c-0.108-0.011-0.204-0.016-0.289-0.014s-0.158 0.003-0.22 0.005c-0.725 0.016-1.243 0.144-1.554 0.383v-0.02c-0.182 0.177-0.32 0.4-0.415 0.673-0.095 0.272-0.138 0.624-0.129 1.054l0.012 0.608 6.742-0.137c0.069-0.002 0.105 0.054 0.107 0.164l0.024 1.18c0.002 0.11-0.031 0.166-0.101 0.168l-7.597 0.154c-0.054 0.001-0.082-0.055-0.084-0.164l-0.039-1.937c-0.029-1.413 0.278-2.409 0.922-2.988 0.47-0.392 1.18-0.597 2.128-0.615 0.092-0.002 0.197-0.004 0.312-0.007 0.116-0.002 0.255 0.002 0.417 0.011 0.169 0.009 0.313 0.012 0.429 0.01 0.123-0.003 0.227-0.005 0.312-0.007 0.732-0.015 1.273-0.159 1.622-0.438 0.441-0.316 0.653-0.899 0.636-1.747-0.011-0.555-0.083-1.017-0.213-1.39-0.131-0.372-0.322-0.636-0.572-0.791-0.305-0.179-0.9-0.259-1.786-0.239l-0.844 0.017c-0.409 0.009-0.744 0.034-1.005 0.076s-0.468 0.096-0.621 0.16c-0.284 0.104-0.49 0.3-0.619 0.585-0.129 0.284-0.194 0.631-0.193 1.037 0.002 0.109-0.036 0.167-0.112 0.168l-0.787 0.017c-0.062 0.001-0.093-0.054-0.096-0.164-0.029-1.427 0.352-2.387 1.145-2.882 0.449-0.317 1.201-0.486 2.257-0.508l0.844-0.018c0.578-0.012 1.072 0.023 1.482 0.107s0.734 0.229 0.969 0.433c0.337 0.276 0.596 0.688 0.777 1.237 0.181 0.551 0.28 1.262 0.298 2.135 0.01 0.73-0.05 1.34-0.2 1.85z"></path> </g> <g> <path d="m124.68 397.75c-0.513 0.511-1.362 0.768-2.548 0.77l-2.354 0.005c-0.514 0.001-0.974-0.047-1.38-0.145s-0.755-0.256-1.045-0.479c-0.757-0.599-1.137-1.584-1.14-2.955 0-0.117 0.032-0.177 0.098-0.177l0.896-0.001c0.084-0.001 0.126 0.058 0.126 0.175 0.011 0.418 0.081 0.771 0.213 1.059 0.131 0.287 0.342 0.501 0.631 0.646 0.188 0.104 0.423 0.176 0.708 0.214s0.638 0.058 1.058 0.057l1.919-0.004c0.551-0.001 0.999-0.041 1.345-0.12s0.597-0.189 0.755-0.334c0.215-0.184 0.366-0.49 0.454-0.922s0.131-0.993 0.13-1.686c-0.004-1.606-0.729-2.407-2.176-2.404l-2.928 0.006c-1.093 0.002-1.76 0.259-2.002 0.769-0.009 0.014-0.037 0.02-0.084 0.02l-0.882 0.002c-0.094 0-0.141-0.063-0.141-0.195l-0.012-5.72c0-0.131 0.046-0.196 0.14-0.196l8.866-0.018c0.094 0 0.141 0.064 0.141 0.195l0.003 1.232c0 0.131-0.047 0.197-0.14 0.197l-7.858 0.016 0.006 2.685c0.363-0.394 1.082-0.59 2.155-0.593l2.409-0.005c1.298-0.003 2.21 0.31 2.733 0.936 0.599 0.704 0.9 1.925 0.904 3.661-0.02 1.55-0.35 2.65-1.02 3.29z"></path> </g> <g> <path d="m125.41 424.14c-0.539 0.544-1.338 0.817-2.398 0.818l-3.92 0.006c-1.13 0.002-1.923-0.285-2.377-0.859-0.506-0.587-0.759-1.588-0.762-3.001-0.002-1.269 0.375-2.092 1.131-2.475-0.162-0.076-0.305-0.182-0.432-0.312-0.126-0.131-0.245-0.273-0.356-0.431-0.132-0.263-0.223-0.569-0.274-0.924-0.051-0.353-0.077-0.771-0.078-1.255-0.003-2.171 1.04-3.258 3.128-3.262l3.92-0.006c1.069-0.002 1.857 0.252 2.362 0.761 0.566 0.604 0.85 1.582 0.853 2.942 0.001 0.614-0.1 1.131-0.3 1.551-0.202 0.419-0.489 0.719-0.862 0.903 0.343 0.169 0.606 0.443 0.789 0.822 0.01 0 0.015 0.008 0.015 0.021h0.015c0.111 0.261 0.198 0.574 0.259 0.939 0.061 0.366 0.092 0.806 0.093 1.314 0.01 1.1-0.26 1.91-0.8 2.45zm-0.63-9.26c-0.091-0.239-0.238-0.42-0.44-0.536-0.151-0.093-0.341-0.163-0.568-0.216-0.227-0.052-0.502-0.076-0.825-0.076l-3.754 0.006c-0.363 0.001-0.671 0.029-0.923 0.09-0.252 0.059-0.444 0.141-0.575 0.246-0.312 0.272-0.468 0.829-0.467 1.665 0.001 0.771 0.208 1.292 0.623 1.564 0.142 0.093 0.343 0.164 0.606 0.215 0.262 0.053 0.57 0.077 0.923 0.077l3.36-0.005c0.394-0.001 0.724-0.034 0.991-0.1 0.268-0.065 0.471-0.151 0.613-0.256 0.383-0.288 0.574-0.89 0.572-1.804 0.01-0.35-0.04-0.64-0.13-0.88zm0.15 6.31c-0.001-0.723-0.204-1.24-0.608-1.555-0.03 0-0.051-0.007-0.061-0.021-0.303-0.183-0.808-0.274-1.514-0.272l-3.36 0.006c-0.717 0.001-1.226 0.094-1.528 0.276-0.414 0.277-0.62 0.802-0.618 1.576v0.453c0.001 0.722 0.193 1.2 0.577 1.437 0.131 0.092 0.318 0.16 0.561 0.206 0.242 0.046 0.52 0.067 0.833 0.066l3.754-0.006c0.625-0.001 1.09-0.093 1.392-0.277 0.383-0.236 0.574-0.716 0.573-1.438l0.01-0.47z"></path> </g> <g> <path d="m123.27 446.27c-0.062 0.613-0.159 1.116-0.291 1.507-0.14 0.393-0.322 0.729-0.546 1.008-0.224 0.28-0.503 0.484-0.838 0.614 0 0.013-0.005 0.021-0.014 0.021-0.27 0.115-0.619 0.207-1.046 0.271-0.428 0.064-0.948 0.095-1.561 0.093l-0.976-0.002c-1.403-0.005-2.377-0.189-2.924-0.558-0.631-0.38-1.046-1.08-1.248-2.101-0.074-0.379-0.125-0.906-0.157-1.587-0.03-0.68-0.043-1.521-0.041-2.526 0.002-0.823 0.032-1.54 0.089-2.153 0.058-0.614 0.152-1.117 0.283-1.508 0.151-0.404 0.342-0.746 0.574-1.027 0.233-0.278 0.517-0.491 0.853-0.634h-0.014c0.53-0.247 1.403-0.368 2.62-0.364l0.976 0.002c1.347 0.005 2.326 0.196 2.938 0.577s1.018 1.087 1.22 2.119c0.063 0.366 0.113 0.888 0.149 1.567 0.035 0.68 0.051 1.521 0.048 2.526 0 0.82-0.03 1.54-0.09 2.15zm-1.03-3.23c0.004-1.357-0.077-2.312-0.243-2.86-0.138-0.562-0.438-0.901-0.902-1.021-0.362-0.131-1.062-0.198-2.104-0.202l-0.961-0.002c-1.031-0.004-1.738 0.061-2.119 0.188-0.445 0.13-0.749 0.469-0.908 1.017-0.168 0.548-0.255 1.501-0.259 2.859l-0.003 1.077c-0.002 0.666 0.017 1.241 0.058 1.724s0.106 0.862 0.199 1.138c0.147 0.522 0.448 0.856 0.902 1.001 0.372 0.132 1.073 0.198 2.104 0.202l0.961 0.002c1.041 0.004 1.742-0.06 2.105-0.188 0.456-0.144 0.758-0.476 0.908-0.997 0.168-0.548 0.255-1.501 0.259-2.859l-0.01-1.08z"></path> </g> <g> <path d="m194.32 412.95c-0.484 0.601-1.41 0.97-2.777 1.108l-1.9 0.192c-1.248 0.128-2.172 0.038-2.768-0.27-0.961-0.452-1.516-1.406-1.662-2.862-0.012-0.116 0.016-0.179 0.084-0.186l0.943-0.097c0.08-0.009 0.125 0.046 0.137 0.162 0.047 0.376 0.148 0.698 0.299 0.964 0.152 0.27 0.361 0.459 0.633 0.576 0.406 0.194 0.979 0.255 1.715 0.181l2.804-0.285c0.44-0.045 0.799-0.131 1.067-0.256 0.271-0.127 0.48-0.281 0.631-0.469 0.293-0.424 0.386-1.182 0.273-2.272l-0.141-1.383c-0.188 0.294-0.453 0.518-0.795 0.672-0.283 0.134-0.701 0.229-1.252 0.283l-3.199 0.326c-0.619 0.062-1.146 0.045-1.584-0.055s-0.793-0.269-1.064-0.503c-0.33-0.308-0.59-0.725-0.783-1.249-0.192-0.525-0.328-1.172-0.406-1.938-0.129-1.272 0.115-2.203 0.73-2.791l0.023-0.042c0.49-0.471 1.264-0.76 2.326-0.866l3.125-0.318c1.268-0.129 2.18 0.094 2.733 0.667 0.576 0.585 0.951 1.729 1.123 3.43l0.369 3.625c0.18 1.69-0.05 2.91-0.68 3.67zm-0.99-8.15c-0.127-1.233-0.805-1.788-2.033-1.663l-3.758 0.383c-1.26 0.128-1.824 0.81-1.699 2.043l0.055 0.525c0.127 1.248 0.812 1.808 2.062 1.68l3.758-0.382c1.238-0.127 1.795-0.812 1.668-2.061l-0.06-0.52z"></path> </g> <g> <path d="m197.81 390.06l-0.01 0.04c-0.22 0.251-0.513 0.442-0.879 0.579-0.367 0.135-0.805 0.232-1.314 0.294l-3.014 0.358c-1.227 0.146-2.098-0.06-2.613-0.616-0.588-0.602-0.981-1.736-1.182-3.409l-0.434-3.639c-0.199-1.673-0.01-2.897 0.566-3.678 0.242-0.291 0.586-0.536 1.032-0.733 0.444-0.197 0.983-0.334 1.615-0.408l1.854-0.222c1.131-0.135 2.021-0.051 2.67 0.254 0.922 0.431 1.471 1.377 1.646 2.843 0.015 0.115-0.022 0.18-0.106 0.189l-0.877 0.104c-0.086 0.01-0.136-0.044-0.148-0.16-0.045-0.376-0.146-0.699-0.303-0.97-0.155-0.271-0.37-0.463-0.643-0.574-0.183-0.084-0.408-0.141-0.681-0.166-0.271-0.027-0.58-0.021-0.931 0.021l-2.717 0.323c-0.802 0.096-1.337 0.337-1.606 0.724-0.136 0.229-0.22 0.521-0.255 0.88-0.033 0.358-0.016 0.83 0.055 1.413l0.164 1.382c0.088-0.143 0.189-0.271 0.307-0.382 0.115-0.112 0.25-0.203 0.404-0.275 0.277-0.151 0.691-0.259 1.238-0.323l3.07-0.366c1.198-0.143 2.053 0.039 2.562 0.543 0.611 0.545 1.01 1.603 1.195 3.171 0.13 1.28-0.09 2.22-0.69 2.84zm-0.61-3.3c-0.146-1.23-0.819-1.775-2.019-1.634l-3.607 0.431c-1.18 0.141-1.695 0.826-1.549 2.059l0.062 0.525c0.147 1.23 0.802 1.776 1.961 1.64l3.608-0.43c1.217-0.146 1.752-0.833 1.605-2.064l-0.06-0.53z"></path> </g> <g> <path d="m201.36 361.42c-0.424 0.386-1.209 0.637-2.355 0.752l-1.486 0.149c-1.063 0.107-1.821 0.001-2.274-0.322-0.67-0.402-1.092-1.372-1.265-2.902-0.012-0.116 0.021-0.18 0.097-0.188l0.772-0.078c0.074-0.008 0.117 0.047 0.129 0.163 0.054 0.429 0.148 0.79 0.293 1.084 0.144 0.294 0.341 0.481 0.593 0.562 0.291 0.14 0.819 0.173 1.584 0.095l1.26-0.127c0.892-0.09 1.479-0.222 1.765-0.396 0.53-0.304 0.746-0.961 0.645-1.975-0.139-1.364-0.844-1.983-2.115-1.854-0.125 0.013-0.279 0.037-0.459 0.075-0.182 0.038-0.391 0.083-0.629 0.134-0.223 0.049-0.408 0.091-0.561 0.126-0.153 0.034-0.273 0.057-0.365 0.065-0.051 0.005-0.082-0.058-0.096-0.188l-0.123-1.229c-0.015-0.129 0.006-0.196 0.055-0.201 0.074-0.008 0.184-0.012 0.326-0.014s0.322 0 0.543 0.005c0.227 0.002 0.422 0.002 0.586-0.001 0.162-0.003 0.307-0.012 0.432-0.023 1.381-0.141 2.004-0.871 1.869-2.197-0.041-0.415-0.156-0.749-0.346-0.998-0.189-0.25-0.439-0.412-0.748-0.485-0.148-0.051-0.367-0.071-0.656-0.062s-0.645 0.037-1.07 0.079l-1.135 0.114c-0.756 0.076-1.287 0.216-1.596 0.417-0.453 0.335-0.643 0.951-0.568 1.85 0.012 0.116-0.02 0.18-0.096 0.188l-0.773 0.078c-0.074 0.008-0.117-0.048-0.129-0.164-0.146-1.441 0.072-2.479 0.654-3.118 0.424-0.463 1.139-0.744 2.145-0.847l1.498-0.151c0.574-0.059 1.055-0.072 1.445-0.048 0.389 0.026 0.697 0.087 0.924 0.183 0.785 0.366 1.256 1.323 1.412 2.869 0.039 0.39 0.059 0.729 0.059 1.019s-0.035 0.542-0.104 0.758c-0.092 0.339-0.267 0.618-0.521 0.841 0.314 0.219 0.574 0.533 0.775 0.946 0.076 0.176 0.139 0.406 0.189 0.688 0.049 0.283 0.096 0.634 0.139 1.05 0.21 1.64-0.03 2.74-0.67 3.28z"></path> </g> <g> <path d="m65.699 413.57c-0.02 0.022-0.049 0.032-0.091 0.028l-1.097-0.106c-0.067-0.007-0.095-0.066-0.084-0.179 0.001-0.014 0.003-0.031 0.005-0.058 0.002-0.023 0.013-0.049 0.033-0.071l7.512-9.381-7.532-0.735c-0.075-0.008-0.105-0.073-0.093-0.199l0.115-1.182c0.012-0.125 0.055-0.185 0.13-0.177l8.991 0.878c0.084 0.008 0.12 0.074 0.107 0.199l-0.106 1.089c-0.006 0.062-0.019 0.104-0.038 0.129l-7.852 9.77z"></path> </g> <g> <path d="m65.534 386.12l-0.223 2.284c-0.01 0.109-0.057 0.16-0.139 0.152l-0.856-0.084c-0.082-0.009-0.118-0.066-0.107-0.177l0.223-2.283-6.723-0.656c-0.073-0.007-0.104-0.061-0.095-0.157l0.114-1.169c0.002-0.024-0.001-0.037-0.01-0.038l7.631-7.096 0.952 0.094c0.082 0.008 0.117 0.072 0.105 0.194l-0.728 7.455 0.993 0.098c0.082 0.008 0.117 0.066 0.106 0.176l-0.114 1.17c-0.009 0.099-0.054 0.143-0.136 0.134l-0.993-0.08zm-0.958-1.59l0.563-5.773-5.694 5.272 5.131 0.5z"></path> </g> <g> <path stroke="#000000" stroke-width="1.0027" d="m163.06 435.74l4.604 3.625 0.486 1.861-1.862-0.327 0.933 3.551-3.522 0.922-0.929-3.551-1.465 1.196-0.486-1.858 2.25-5.41z" fill="none"></path> </g> <g stroke="#000000" stroke-width=".7498" stroke-linecap="round" fill="none"> <path d="m75.143 362.48c-0.428 1.586-2.06 2.523-3.646 2.096-1.586-0.428-2.524-2.062-2.097-3.647l0.283-1.046c0.428-1.588 2.062-2.525 3.648-2.098 1.586 0.428 2.523 2.062 2.095 3.648l-0.283 1.05z"></path> <path d="m82.327 364.42c-0.428 1.587-2.06 2.525-3.647 2.098-1.586-0.43-2.524-2.062-2.096-3.647l0.283-1.047c0.429-1.586 2.061-2.525 3.647-2.097 1.587 0.429 2.525 2.062 2.097 3.647l-0.284 1.05z"></path> <line y2="366.52" x1="71.497" x2="78.68" y1="364.58"></line> </g> <g stroke="#41A3D7" stroke-linecap="round" fill="#41A3D7"> <path stroke-width=".6166" d="m140.54 437.69c0.715 2.739 1.364 7.007-3.621 7.445-0.864-0.888-0.489-3.046 0.138-4.877-3.074 0.62-3.658 3.032-3.699 4.621-2.947-0.589-4.886-2.102-1.908-7.119-2.397 1.039-6.878 8.66 3.593 9.005 10.48 0.35 8.86-6.7 5.5-9.07z"></path> <circle r="1.925" cy="437.04" cx="136.7" stroke-width=".4618"></circle> </g> </g> <path stroke="#000000" stroke-width="2.4662" d="m253.77 182.96c-0.232-4.082-0.453-7.781-0.646-10.938 0.616-43.775-21.579-139.34-21.579-139.34-3.083-10.481-14.798-15.414-28.979-21.579-14.182-6.166-73.986-9.865-73.986-9.865s-59.806 3.699-73.986 9.865c-14.172 6.166-25.887 11.098-28.97 21.579 0 0-22.196 95.565-21.579 139.34-0.191 3.154-0.412 6.855-0.645 10.938-1.264 22.239-2.863 55.832-1.822 74.688 3.392 61.42 23.547 172.2 30.212 187.2 6.166 13.872 18.188 31.443 40.384 34.526 25.91 3.6 56.415 4.624 56.415 4.624s30.505-1.024 56.415-4.624c22.194-3.083 34.219-20.654 40.384-34.526 6.666-14.997 26.82-125.78 30.211-187.2 1.04-18.86-0.56-52.45-1.82-74.69z" fill="none"></path> <metadata></metadata></svg> 