<?xml version="1.0" encoding="UTF-8" standalone="no"?> <!-- Generator: Adobe Illustrator 13.0.2, SVG Export Plug-In . SVG Version: 6.00 Build 14948) --> <svg xmlns:inkscape="http://www.inkscape.org/namespaces/inkscape" xmlns:rdf="http://www.w3.org/1999/02/22-rdf-syntax-ns#" xmlns="http://www.w3.org/2000/svg" xmlns:xlink="http://www.w3.org/1999/xlink" xmlns:cc="http://creativecommons.org/ns#" xmlns:dc="http://purl.org/dc/elements/1.1/" xmlns:sodipodi="http://sodipodi.sourceforge.net/DTD/sodipodi-0.dtd" xmlns:svg="http://www.w3.org/2000/svg" xmlns:ns1="http://sozi.baierouge.fr" id="Layer_1" style="enable-background:new 0 0 117.829 103.684" sodipodi:docname="laser radiation.svg" xml:space="preserve" viewBox="0 0 117.829 103.684" sodipodi:version="0.32" inkscape:output_extension="org.inkscape.output.svg.inkscape" y="0px" x="0px" inkscape:version="0.45+devel"> <g id="g7877" transform="translate(-51.554 -15.657)"> <g id="use7850" transform="translate(126.93 205.57)"> <g id="g3437_16_" transform="translate(-495.65 -311.93)"> <path id="path3424_16_" style="fill:#FDEE1C" xlink:href="#path3422" d="m478.02 122.52c-1.881 0.291-3.534 1.401-4.479 3.048l-52.635 91.188c-1.101 1.913-1.118 4.303 0 6.229 1.118 1.932 3.198 3.143 5.448 3.141h105.27c2.25 0.002 4.332-1.209 5.449-3.141 1.117-1.93 1.103-4.316 0-6.229l-52.635-91.188c-1.29-2.26-3.86-3.46-6.42-3.05z"></path> <path id="path3432_16_" style="fill:#010101" d="m478.51 125.09c-1.018 0.157-1.884 0.771-2.375 1.625l-53 91.812c-0.58 1.01-0.582 2.308 0 3.312 0.592 1.02 1.685 1.688 2.875 1.688h106c1.188 0 2.282-0.668 2.875-1.688 0.581-1.007 0.579-2.304 0-3.312l-53-91.812c-0.7-1.19-2.01-1.85-3.39-1.63zm0.5 10.56l45 79.251h-90.062l45.06-79.25z"></path> </g> </g> <g id="g5856" transform="matrix(.41428 0 0 .41428 312.93 216.11)"> <path id="path5830" style="stroke:#010101;stroke-width:4;fill:none" d="m-407.46-321.8h-126.84"></path> <path id="path5832" style="stroke:#010101;stroke-width:3;fill:none" d="m-486.8-374.79v104.61"></path> <path id="path5834" style="stroke:#010101;stroke-width:3;fill:none" d="m-460.17-277.05l-51.779-89.688"></path> <path id="path5836" style="stroke:#010101;stroke-width:3;fill:none" d="m-461.27-367.65l-51.312 88.879"></path> <path id="path5838" style="stroke:#010101;stroke-width:3;fill:none" d="m-529.63-347.34l88.395 51.035"></path> <path id="path5840" style="stroke:#010101;stroke-width:3;fill:none" d="m-443.14-348.44l-87.158 50.323"></path> <path id="path5842" style="stroke:#010101;stroke-width:2;fill:none" d="m-495.31-355.02l17.617 65.756"></path> <path id="path5844" style="stroke:#010101;stroke-width:2;fill:none" d="m-477.47-356.12l-18.334 68.439"></path> <path id="path5846" style="stroke:#010101;stroke-width:2;fill:none" d="m-510.14-346.24l47.908 47.909"></path> <path id="path5848" style="stroke:#010101;stroke-width:2;fill:none" d="m-462.91-345.96l-47.086 47.089"></path> <path id="path5850" style="stroke:#010101;stroke-width:2;fill:none" d="m-518.37-331.41l62.985 16.878"></path> <path id="path5852" style="stroke:#010101;stroke-width:2;fill:none" d="m-454.68-331.69l-62.936 16.869"></path> <path id="path5854" style="fill:#010101" d="m-468.22-321.34c0.009 10.24-8.284 18.547-18.523 18.557-10.239 0.009-18.547-8.288-18.555-18.528v-0.028c-0.009-10.24 8.286-18.547 18.527-18.557 10.24-0.009 18.547 8.288 18.552 18.528v0.03z"></path> </g> </g> <metadata></metadata></svg> 