<?xml version="1.0" encoding="UTF-8" standalone="no"?> <!-- Created with Inkscape (http://www.inkscape.org/) --> <svg xmlns:inkscape="http://www.inkscape.org/namespaces/inkscape" xmlns:rdf="http://www.w3.org/1999/02/22-rdf-syntax-ns#" xmlns="http://www.w3.org/2000/svg" xmlns:cc="http://creativecommons.org/ns#" xmlns:dc="http://purl.org/dc/elements/1.1/" xmlns:sodipodi="http://sodipodi.sourceforge.net/DTD/sodipodi-0.dtd" xmlns:svg="http://www.w3.org/2000/svg" xmlns:ns1="http://sozi.baierouge.fr" xmlns:xlink="http://www.w3.org/1999/xlink" id="svg2" sodipodi:docname="jongo_jingaro_globe.svg" inkscape:export-filename="C:\Documents and Settings\x\Desktop\globe.png" viewBox="0 0 474.84 478.85" sodipodi:version="0.32" inkscape:export-xdpi="96" inkscape:output_extension="org.inkscape.output.svg.inkscape" inkscape:export-ydpi="96" inkscape:version="0.45+devel"><g id="layer1" inkscape:label="Layer 1" inkscape:groupmode="layer" transform="translate(-134.63 -286.75)"><g id="g2485" transform="translate(-3.1565 4.0357)"><path id="path2392" sodipodi:rx="231.42857" sodipodi:ry="231.42857" style="stroke:#ffffff;stroke-miterlimit:0;fill:#0055d4" sodipodi:type="arc" d="m654.29 578.08a231.43 231.43 0 1 1 -462.86 0 231.43 231.43 0 1 1 462.86 0z" transform="matrix(.99284 .11944 -.11944 .99284 20.955 -98.214)" sodipodi:cy="578.07648" sodipodi:cx="422.85715"></path><path id="path2396" sodipodi:rx="241.42857" sodipodi:ry="241.42857" style="fill-opacity:0;stroke:#ffffff;stroke-miterlimit:0;stroke-width:15.943" sodipodi:type="arc" d="m-815.11 230.18a241.43 241.43 0 0 1 373.23 -85.32" sodipodi:open="true" transform="matrix(-.44349 -.19233 .21042 -.37070 97.221 255.04)" sodipodi:cy="330.93362" sodipodi:cx="-595.71429" sodipodi:end="5.4032263" sodipodi:start="3.5720861"></path><path id="path3170" sodipodi:rx="241.42857" sodipodi:ry="241.42857" style="fill-opacity:0;stroke:#ffffff;stroke-miterlimit:0;stroke-width:6.9033" sodipodi:type="arc" d="m-815.11 230.18a241.43 241.43 0 0 1 373.23 -85.32" sodipodi:open="true" transform="matrix(-1.0189 -.45628 .49607 -.85034 -380.71 484.23)" sodipodi:cy="330.93362" sodipodi:cx="-595.71429" sodipodi:end="5.4032263" sodipodi:start="3.5720861"></path><path id="path3172" sodipodi:rx="241.42857" sodipodi:ry="241.42857" style="fill-opacity:0;stroke:#ffffff;stroke-miterlimit:0;stroke-width:6.5452" sodipodi:type="arc" d="m-815.11 230.18a241.43 241.43 0 0 1 373.23 -85.32" sodipodi:open="true" transform="matrix(.64115 -.98764 .80549 .65520 575.85 -235.75)" sodipodi:cy="330.93362" sodipodi:cx="-595.71429" sodipodi:end="5.4032263" sodipodi:start="3.5720861"></path><path id="path3178" style="stroke:#ffffff;stroke-miterlimit:0;stroke-width:7.9828;fill:none" d="m422.2 299.12l-107.37 454.38"></path><path id="path2393" sodipodi:rx="241.42857" sodipodi:ry="241.42857" style="fill-opacity:0;stroke:#ffffff;stroke-linecap:round;stroke-miterlimit:0;stroke-width:5.1918" sodipodi:type="arc" d="m-794.06 193.28a241.43 241.43 0 0 1 285.09 -87.65" sodipodi:open="true" transform="matrix(-1.3253 -.66861 .71110 -1.0989 -589.04 215.76)" sodipodi:cy="330.93362" sodipodi:cx="-595.71429" sodipodi:end="5.0799003" sodipodi:start="3.7482862"></path><path id="path2395" sodipodi:rx="241.42857" sodipodi:ry="241.42857" style="fill-opacity:0;stroke:#ffffff;stroke-miterlimit:0;stroke-width:6.5481" sodipodi:type="arc" d="m-815.11 230.18a241.43 241.43 0 0 1 373.23 -85.32" sodipodi:open="true" transform="matrix(-.31108 1.1351 -.96591 -.37971 404.8 1314.6)" sodipodi:cy="330.93362" sodipodi:cx="-595.71429" sodipodi:end="5.4032263" sodipodi:start="3.5720861"></path><path id="path2397" sodipodi:rx="262.63965" sodipodi:ry="81.208313" style="stroke-linejoin:round;stroke:#d45500;stroke-linecap:round;stroke-miterlimit:0;stroke-width:29.589;fill:none" sodipodi:type="arc" d="m226.91 396.02a262.64 81.208 0 1 1 -446.83 3.07" sodipodi:open="true" transform="matrix(-.78548 -.75161 -.62291 .71265 664.06 202.15)" sodipodi:cy="440.20975" sodipodi:cx="6.5659914" sodipodi:end="9.9556716" sodipodi:start="5.7077369"></path></g></g><metadata></metadata></svg> 