<?xml version="1.0" encoding="UTF-8" standalone="no"?> <!-- Created with Inkscape (http://www.inkscape.org/) --> <svg xmlns:inkscape="http://www.inkscape.org/namespaces/inkscape" xmlns:rdf="http://www.w3.org/1999/02/22-rdf-syntax-ns#" xmlns="http://www.w3.org/2000/svg" xmlns:cc="http://creativecommons.org/ns#" xmlns:dc="http://purl.org/dc/elements/1.1/" xmlns:sodipodi="http://sodipodi.sourceforge.net/DTD/sodipodi-0.dtd" xmlns:svg="http://www.w3.org/2000/svg" xmlns:ns1="http://sozi.baierouge.fr" xmlns:xlink="http://www.w3.org/1999/xlink" id="svg3633" sodipodi:docname="Såg (siluett).svg" viewBox="0 0 368.14 101.44" sodipodi:version="0.32" inkscape:output_extension="org.inkscape.output.svg.inkscape" inkscape:version="0.45.1+0.46pre1+devel"><g id="layer1" inkscape:label="Layer 1" inkscape:groupmode="layer" transform="translate(-244.5 -307.36)"><g id="g3628" transform="translate(483.56 186.84)"><path id="path3254" style="fill-rule:evenodd;stroke:#000000;stroke-width:1px;fill:#010101" d="m-234.8 221.45l-3.56-16.21 0.39-3.56 2.77-0.79 258.6-58.13 1.586-3.16 82.244-18.58 4.35 3.16-4.35 3.95s-3.16 2.38-3.56 7.12c-0.39 4.75 4.75 11.07 4.75 11.07s6.33 8.31 7.91 11.87c1.58 3.55 3.56 17.79 3.56 17.79l0.79 5.14 2.76 3.16 3.17 2.38 1.98 1.97v2.38l-1.98 1.97-43.103 10.68h-4.349l-3.954-0.79-0.396 9.88-309.61 8.7z"></path><path id="path3256" style="fill-rule:evenodd;stroke:#000000;stroke-width:1px;fill:#fefefe" d="m85.195 191.24l-7.212-12.07-5.801-11.6-3.92-10.04-4.076-9.88s-1.724-4.54 0.627-6.42c2.352-1.88 4.861-2.36 4.861-2.36l5.487-1.09s1.724-0.63 2.665 0.78 2.665 3.14 2.822 5.49-0.313 3.45 0.784 5.8c1.098 2.35 4.39 4.08 5.331 6.11 0.94 2.04 2.038 8.31 2.038 8.31l2.038 2.04s1.411 0.47 2.822 2.82c1.411 2.36 1.882 5.33 1.882 5.33s0.627 1.57 1.567 2.51c0.941 0.94 5.02 2.82 5.02 2.82s2.19 1.57 2.19 4.08 0.16 4.55-0.78 5.02-10.82 2.82-10.82 2.82l-3.606 0.78-1.567-0.31-2.352-0.94z"></path><path id="path3258" style="fill-rule:evenodd;stroke:#000000;stroke-width:1px;fill:#b2b2b2" d="m21.698 143.26l2.666 13.17 3.135 10.2 3.136 7.05 9.407 7.68 19.441 12.7 15.521 8.63-0.157 10.19-310.12 8.46-3.29-16.15 0.47-3.45 259.79-58.48z"></path></g></g><metadata></metadata></svg> 