<?xml version="1.0" encoding="UTF-8" standalone="no"?> <!-- Generator: Adobe Illustrator 13.0.2, SVG Export Plug-In . SVG Version: 6.00 Build 14948) --> <svg xmlns:dc="http://purl.org/dc/elements/1.1/" xmlns:inkscape="http://www.inkscape.org/namespaces/inkscape" xmlns:xlink="http://www.w3.org/1999/xlink" xmlns:sodipodi="http://sodipodi.sourceforge.net/DTD/sodipodi-0.dtd" xmlns:cc="http://web.resource.org/cc/" xmlns:rdf="http://www.w3.org/1999/02/22-rdf-syntax-ns#" xmlns="http://www.w3.org/2000/svg" xmlns:svg="http://www.w3.org/2000/svg" xmlns:ns1="http://sozi.baierouge.fr" id="Layer_1_xA0_Image_1_" xml:space="preserve" viewBox="0 0 246.223 241.034" sodipodi:docbase="/home/plp/creations/mag-zrneni/final/n4/svg" style="enable-background:new 0 0 246.223 241.034" inkscape:export-ydpi="180" inkscape:export-xdpi="180" inkscape:output_extension="org.inkscape.output.svg.inkscape" sodipodi:docname="cattle-z.svg" inkscape:export-filename="./cattle-z.png" inkscape:version="0.45.1" sodipodi:version="0.32" y="0px" x="0px"><defs id="defs5675"><radialGradient id="radialGradient8225" gradientUnits="userSpaceOnUse" cy="93.629" cx="132.33" gradientTransform="matrix(1 1.2715e-7 -3.1788e-7 2.5 .000029762 -140.44)" r="17.588" inkscape:collect="always"><stop id="stop8221" style="stop-color:#ff5555" offset="0"></stop><stop id="stop8223" style="stop-color:#ff5555;stop-opacity:0" offset="1"></stop></radialGradient><linearGradient id="linearGradient8243" y2="213.4" gradientUnits="userSpaceOnUse" x2="105.95" y1="22.439" x1="110.13" inkscape:collect="always"><stop id="stop8239" style="stop-color:#ffffff" offset="0"></stop><stop id="stop8241" style="stop-color:#ffffff;stop-opacity:0" offset="1"></stop></linearGradient><linearGradient id="linearGradient8251" y2="135.51" gradientUnits="userSpaceOnUse" x2="51.089" gradientTransform="matrix(1.0193 0 0 1.0346 -3.3339 -3.382)" y1="210.88" x1="20.101" inkscape:collect="always"><stop id="stop8247" style="stop-color:#000000" offset="0"></stop><stop id="stop8249" style="stop-color:#000000;stop-opacity:0" offset="1"></stop></linearGradient></defs> <g id="layer1" inkscape:label="-1" inkscape:groupmode="layer"><rect id="rect8257" style="fill-rule:evenodd;fill:#000000" height="271.4" width="270.52" y="-11.918" x="-11.725"></rect></g><rect id="rect5679" style="fill-rule:evenodd;fill:#c83737" height="242.88" width="247.91" y="-.17382" x="-.0000053468"></rect> <path id="path5681" sodipodi:nodetypes="ccccccccccccccccccc" style="fill-rule:evenodd;fill:#000000" d="m0.41876 114.99c15.399-4.9 34.474-8.23 44.68-22.183 8.046-9.062 26.806-14.04 28.946-24.593-11.245-3.363-25.477-10.615-18.549-24.691-1.493-14.567-21.223-17.344-24.32-31.551-3.309-7.5156 2.535-9.8436 5.821-2.1756 12.256 11.188 30.878 14.084 46.539 10.05 17.794-5.917 36.544-13.98 55.634-9.8542 14.97 1.6102 30.15 1.4252 44.83 5.4722 19.15 5.386 39.82 0.043 55.87-11.07 12.42 7.741-6.29 19.633-13.63 23.763-8.59 11.749-4.54 33.809-23.84 36.057-15.32 0.961-15.7 15.866-12.25 27.156 4.52 42.86-26.43 79.51-26.41 121.88 0.05 10.79-10.35 34.2 8.81 30.46 25.37-1.19 50.79-0.41 76.2-1-0.28-80.68-0.98-162.62-1.26-243.3-82.64-0.5609-164.85 0.137-247.49-0.4213 0.55835 38.526-0.13959 77.471 0.41876 116z"></path><g id="layer3" inkscape:label="o" inkscape:groupmode="layer"><path id="path7069" style="fill-rule:evenodd;fill:url(#radialGradient8225)" d="m125.21 71.016c-3.49 3.908-6.98 7.817-10.47 11.725 1.26 3.071 2.51 6.142 3.77 9.213-1.12 3.49-2.23 6.98-3.35 10.466 1.54 3.63 3.07 7.26 4.61 10.89 3.35 1.12 6.7 2.23 10.05 3.35 5.16-3.63 10.33-7.26 15.49-10.89 1.54-4.32 3.07-8.651 4.61-12.978-3.49-2.234-6.98-4.467-10.47-6.701 2.93-2.931 5.86-5.862 8.79-8.794-3.07-2.233-6.14-4.466-9.21-6.7-2.65 0.977-5.3 1.954-7.96 2.932-1.95-0.838-3.91-1.675-5.86-2.513z"></path><path id="path7067" sodipodi:nodetypes="cccc" style="fill-rule:evenodd;fill:#ff0000" d="m120.6 153.93l-3.76 7.96c20.54 4.41 29 0.23 34.75-5.87l-30.99-2.09z"></path><path id="path7065" sodipodi:nodetypes="ccccccccccc" style="fill-rule:evenodd;fill:#a02c2c" d="m118.09 118.76c-2.7 0.07-5.22-2.12-7.93-1.22-9.78 5.66-11.558 15.72-7.98 26.34 0.32 2.35 1.08 6.46 4.31 4.62 15.65-1.19 26.25-0.13 38.87 0.51 3.12-0.95 7.12-0.24 9.37-3.09 2.95-1.63 3.94-5.15 4.09-8.29 1.63-3.96-0.72-7.96-2.11-11.59-2.12-3.63-6.81-3.79-10.14-5.73-1.89-0.98-4.12-1.21-6.18-1.79-7.78 0.1-14.41 1.93-22.3 0.24z"></path><path id="path7059" style="fill-rule:evenodd;fill:#f9f9f9" d="m85.428 61.384c-0.279 2.094-0.559 4.188-0.838 6.282 2.513 2.373 5.025 4.746 7.538 7.119 0.836-0.428 3.07 0.234 2.87-1.002-0.259-2.458-0.517-4.915-0.776-7.373-2.932-1.675-5.863-3.351-8.794-5.026z"></path><path id="path7061" style="fill-rule:evenodd;fill:#f9f9f9" d="m169.6 71.854c0.92-2.103 1.6-4.411 2.68-6.388 1.97-1.203 3.87-2.617 5.89-3.69 0.89 0.171 3.01-1.161 2.78 0.388 0.13 1.974 0.25 3.947 0.37 5.921-1.67 1.675-3.35 3.35-5.02 5.025-2.23-0.419-4.47-0.838-6.7-1.256z"></path><path id="path7057" style="fill-rule:evenodd;fill:#ffaaaa" d="m183.84 17.833l-2.52 11.307 2.1 8.794 5.02 3.769 19.69-3.769 19.26-8.376 14.24-15.913 2.93-10.469-1.26-1.256-7.12 5.4439-20.52 8.3751-18.84 2.094h-12.98z"></path><path id="path6773" style="fill-rule:evenodd;fill:#ffaaaa" d="m86.265 21.183l3.769 8.794-3.35 12.144-17.588 0.838-17.588-9.632-20.101-18.844-0.837-8.3754 5.444 1.6751 4.187 5.8623 18.426 6.701 14.238 2.093 13.4-1.256z"></path><g id="g5392" transform="translate(-.22838 -.33050)"> <path id="path5394" style="fill-rule:evenodd" d="m246.22 0c-0.66 4.291 0.65 7.1-1.73 9.803-2.78-0.677-2.02-4.894-3.46-6.92 1.82-0.869 2.47-2.915 5.19-2.883z"></path> <path id="path5396" style="fill-rule:evenodd" d="m239.88 4.613c0.49 2.411-1.56 2.283-2.31 3.46-1.44-1.114 0.87-3.32 2.31-3.46z"></path> <path id="path5398" style="fill-rule:evenodd" d="m123.98 7.497c-2.22 0.615-6.51 1.179-7.5-0.577 2.22-1.015 5.01 0.186 7.5 0.577z"></path> <path id="path5400" style="fill-rule:evenodd" d="m144.16 9.803c-0.86-0.623-7.08 3.614-8.65-1.153 2.75-0.445 3.71 0.902 6.34 0.577-0.37-0.586-1.32-0.596-1.15-1.73 0.9-0.735 3.81 0.024 3.46 2.306z"></path> <path id="path5402" style="fill-rule:evenodd" d="m150.5 8.073c2.14-0.022 3.34 0.886 4.61 1.73-1.12 0.865-2.12 3.682 1.16 2.883 0.42 3.479-2.07 6.531-4.04 5.766-0.1-2.024 1.95-1.896 2.31-3.46-1-2.648-3.19-4.118-4.04-6.919z"></path> <path id="path5404" style="fill-rule:evenodd" d="m115.33 9.803c1.38-1.532 4.55 0.028 4.61 1.73-1.81-0.303-3.22-1.012-4.61-1.73z"></path> <path id="path5406" style="fill-rule:evenodd" d="m129.17 9.803c-0.2 1.008-1.75 3.565-2.89 1.73-2.48 0.013-0.67 4.328-3.46 4.036-0.29-4.262 2.55-7.398 6.35-5.766z"></path> <path id="path5408" style="fill-rule:evenodd" d="m148.77 9.227c2.73 2.204 4.39 6.671 1.73 9.803-0.25-3.343-2.15-7.657-1.73-9.803z"></path> <path id="path5410" style="fill-rule:evenodd" d="m168.95 10.38c-0.13 1.793-2.87 0.974-4.61 1.153 0.13-1.794 2.87-0.974 4.61-1.153z"></path> <path id="path5412" style="fill-rule:evenodd" d="m100.33 12.11c0.77-1.64 2.57 0.444 3.46 0.577-0.44 0.513-0.62 1.302-0.57 2.306-1.52-0.402-1.22-2.625-2.89-2.883z"></path> <path id="path5414" style="fill-rule:evenodd" d="m147.04 17.876c0.73-3.417-1.7-3.683-2.88-5.189 1.99-3.769 7.22 4.262 2.88 5.189z"></path> <path id="path5416" style="fill-rule:evenodd" d="m160.88 11.533c2.82 1.361-0.19 4.599-1.15 5.766-1.8-0.128-0.98-2.87-1.15-4.613 1.8 0.638 1.62 0.372 2.3-1.153z"></path> <path id="path5418" style="fill-rule:evenodd" d="m100.91 13.263c-2.444 1.73-10.065-2.101-2.882-1.153 1.377 0.182 2.162 0.857 2.882 1.153z"></path> <path id="path5420" style="fill-rule:evenodd" d="m104.37 12.687c0.8-1.51 4.59 0.583 2.88 1.729-1.63 0.093-1.34-1.732-2.88-1.729z"></path> <path id="path5422" style="fill-rule:evenodd" d="m170.11 12.11c0.21 3.091-2.87 2.904-5.19 3.459 0.91-1.968 3.12-2.639 5.19-3.459z"></path> <path id="path5424" style="fill-rule:evenodd" d="m114.75 14.416c-1.34 0.184-2.21-0.092-2.88-0.577 0.1-1.771 3.1-1.21 2.88 0.577z"></path> <path id="path5426" style="fill-rule:evenodd" d="m121.67 13.263c-0.63 1.672-0.71 3.899-2.88 4.036-0.12-2.419-0.04-4.647 2.88-4.036z"></path> <path id="path5428" style="fill-rule:evenodd" d="m175.3 13.839c-0.84 3.773-6.3 2.926-6.92 6.92-2.91-3.223 2.94-6.826 6.92-6.92z"></path> <path id="path5430" style="fill-rule:evenodd" d="m177.6 14.416c1.51-0.163 2.48 0.211 2.31 1.73-1.51 0.163-2.48-0.21-2.31-1.73z"></path> <path id="path5432" style="fill-rule:evenodd" d="m98.028 15.569c2.682-0.105 6.472 0.726 9.222 1.73-2.53 2.076-7.473 0.948-9.222-1.73z"></path> <path id="path5434" style="fill-rule:evenodd" d="m87.072 20.183c1.97-0.334 1.733-0.576 1.153-3.46 1.975 2.582 5.255 0.423 6.343 4.037h-2.307c0.323 0.831 0.899 1.407 1.73 1.73-1.875 1.082-5.052-1.466-6.919-2.307z"></path> <path id="path5436" style="fill-rule:evenodd" d="m186.83 16.723h3.46c0.55 2.084-2.27 0.804-3.46 1.153v-1.153z"></path> <path id="path5438" style="fill-rule:evenodd" d="m200.67 17.876c-0.81 3.397-6.68 0.778-9.23 0.577 1.61-2.788 5.94-0.631 9.23-0.577z"></path> <path id="path5440" style="fill-rule:evenodd" d="m54.204 18.453c11.229 0.831 20.322 3.738 30.562 0-2.054 1.655-0.025 2.14 2.307 2.307-0.525 1.396-2.317 1.527-4.037 1.73 0.179 0.782 1.444 0.478 2.307 0.577-0.847 1.359-1.217 1.073-0.577 2.883-1.383-1.5-3.654-2.112-4.613-4.036-4.592 0.526-10.306 1.215-14.992 0.577-1.179-0.161-2.193-1.454-3.46-1.73-2.713-0.593-6.626 0.533-7.497-2.308z"></path> <path id="path5442" style="fill-rule:evenodd" d="m174.14 19.606c-1.4 0.904-0.8 3.811-3.46 3.46 0.05-2.255 0.71-3.908 3.46-3.46z"></path> <path id="path5444" style="fill-rule:evenodd" d="m91.108 25.372c-1.755-0.359-2.948-1.281-2.883-3.459 1.755 0.359 2.948 1.28 2.883 3.459z"></path> <path id="path5446" style="fill-rule:evenodd" d="m179.33 21.913c2.81 0.265 6.76-0.604 8.65 0.577-1.22 2.859-7.66 1.828-8.65-0.577z"></path> <path id="path5448" style="fill-rule:evenodd" d="m177.03 23.643c2.3 2.646 5.15 1.3 9.8 1.729-0.02 2.724-3.92 2.687-5.19 1.153-2.88 0.193-2.66 3.486-5.19 4.037 1.12-2.366-0.21-5.312 0.58-6.919z"></path> <path id="path5450" style="fill-rule:evenodd" d="m90.531 27.102c-0.643 1.158-4.46 0.662-5.189 0 0.922-2.963 3.591-1.007 5.189 0z"></path> <path id="path5452" style="fill-rule:evenodd" d="m144.16 29.409c0.24 1.973-1.73 1.733-2.31 2.883-1.76-1.25 0.33-3.47 2.31-2.883z"></path> <path id="path5454" style="fill-rule:evenodd" d="m111.29 29.985c1.01 0.527 2 1.072 1.73 2.883-1.24 1.245-3.22 0.295-4.04-0.577 0.33-1.198 0.9-1.222 1.73-0.577 0.68-0.092 0.49-1.05 0.58-1.729z"></path> <path id="path5456" style="fill-rule:evenodd" d="m139.54 29.985c1.8 2.094 0.62 3.986-0.57 5.766-1.07-0.919 0.23-4.352 0.57-5.766z"></path> <path id="path5458" style="fill-rule:evenodd" d="m104.37 30.562h1.73c-0.45 2.954 1.03 3.971 4.04 3.46-0.36 1.944-1.96 2.654-4.04 2.883 0.36-3.055-2.03-3.353-1.73-6.343z"></path> <path id="path5460" style="fill-rule:evenodd" d="m159.15 32.292c-1.34 0.184-2.21-0.093-2.88-0.577 0.05-1.715 3.44-1.543 2.88 0.577z"></path> <path id="path5462" style="fill-rule:evenodd" d="m182.79 30.562c-0.43 2.069-2.48 2.516-5.19 2.307 1.47-1.031 2.15-2.852 5.19-2.307z"></path> <path id="path5464" style="fill-rule:evenodd" d="m98.028 31.139c2.172 0.066 0.398 2.606 2.882 1.153-0.6 3.681 0.64 5.51 1.73 7.496-4.269 0.51-2.86-5.369-5.765-4.613-0.375-2.104 0.388-3.071 1.153-4.036z"></path> <path id="path5466" style="fill-rule:evenodd" d="m55.934 34.022c1.388-1.903 3.064 0.734 4.036 1.153-1.555 2.071-2.239-1.56-4.036-1.153z"></path> <path id="path5468" style="fill-rule:evenodd" d="m202.98 34.022c-1.58 2.078-5.68 1.632-9.23 1.729 1.1-3.275 5.82-0.212 9.23-1.729z"></path> <path id="path5470" style="fill-rule:evenodd" d="m94.568 34.598c1.241 0.489 2.04 1.42 1.73 3.46-1.983-0.109-4.104-2.332-1.73-3.46z"></path> <path id="path5472" style="fill-rule:evenodd" d="m102.64 34.598c1.94 0.363 2.66 1.959 2.88 4.037-2.17-0.132-3.11-1.502-2.88-4.037z"></path> <path id="path5474" style="fill-rule:evenodd" d="m120.52 34.598c1.94-0.592 0.89 1.793 1.15 2.883-1.14-0.455-2.07-2.016-1.15-2.883z"></path> <path id="path5476" style="fill-rule:evenodd" d="m116.48 36.328c2.12-0.002 2.21 2.019 3.46 2.883-1.4 1.551-3.95-0.632-3.46-2.883z"></path> <path id="path5478" style="fill-rule:evenodd" d="m224.89 37.481c0.69 2.973-7.05 3.529-6.92 0.577 2.16-0.222 5.22-1.708 6.92-0.577z"></path> <path id="path5480" style="fill-rule:evenodd" d="m124.55 40.941c-0.23 1.947-2.74 0.323-4.03 0 0.45-2.159 2.79-0.37 4.03 0z"></path> <path id="path5482" style="fill-rule:evenodd" d="m119.94 41.518c1.16 2.328 0.08 5.028 2.31 5.189-2.96 1.744 1.55 1.018 0.57 4.037-3.3-1.756-3.2-4.822-6.92-6.919 0.74-1.61 2.75 0.264 2.89 1.153 0.46-0.11 0.57-0.579 1.15-0.577 0.13-2.435-3-1.617-4.04-2.883 0.68-3.098 3.98 0.924 4.04 0z"></path> <path id="path5484" style="fill-rule:evenodd" d="m58.24 42.671c-0.36 1.231-3.549 0.541-4.036 0 0.719-2.429 2.363 0.056 4.036 0z"></path> <path id="path5486" style="fill-rule:evenodd" d="m165.49 41.518c2.81-0.117 2.1 3.282 4.62 3.46-1.41 3.039-5.03-0.911-4.62-3.46z"></path> <path id="path5488" style="fill-rule:evenodd" d="m220.27 41.518c1.77-0.417 2.11 0.589 3.46 0.577-0.01 0.88-4.27 1.264-3.46-0.577z"></path> <path id="path5490" style="fill-rule:evenodd" d="m226.04 43.825c-0.95 1.975-1.93 0.339-4.04 1.153 0.26 0.709 0.74 1.184 1.73 1.153-1.85 2.004-3.79-0.785-5.76-0.577 0.37-2.688 6.39-2.205 8.07-1.729z"></path> <path id="path5492" style="fill-rule:evenodd" d="m56.51 44.978c-0.846 1.845-4.03 1.352-5.767 2.306-0.898-3.227 4.055-3.604 5.767-2.306z"></path> <path id="path5494" style="fill-rule:evenodd" d="m133.2 44.978c2-0.404 2.07 2.021 1.16 2.883-2 0.404-2.07-2.022-1.16-2.883z"></path> <path id="path5496" style="fill-rule:evenodd" d="m54.204 47.284c-0.148 1.966-1.175 3.053-2.883 3.46-1.5-1.788 1.022-3.246 2.883-3.46z"></path> <path id="path5498" style="fill-rule:evenodd" d="m95.721 47.284c0.639 1.091 0.735 2.724 1.153 4.037-1.388-0.919-3.04-1.573-3.46-3.46 0.514-0.448 1.303-0.62 2.307-0.577z"></path> <path id="path5500" style="fill-rule:evenodd" d="m57.663 48.438c-1.013 2.446-2.743 4.176-5.189 5.19-0.63-2.003 2.616-4.529 5.189-5.19z"></path> <path id="path5502" style="fill-rule:evenodd" d="m219.7 50.167c0.77-1.64 2.56 0.445 3.46 0.577-0.77 1.64-2.57-0.445-3.46-0.577z"></path> <path id="path5504" style="fill-rule:evenodd" d="m117.63 50.167c0.93-0.163 1 0.545 1.73 0.577 0.35 3.228-0.8 4.959-4.03 4.613 1.31-1.191 1.61-3.379 2.3-5.19z"></path> <path id="path5506" style="fill-rule:evenodd" d="m130.32 50.167c0.76 0.204 0.91 1.015 1.73 1.153 0.98 0.025 1.49-0.429 1.73-1.153 2.16 1.463-1.22 2.187-0.58 4.037-0.67-1.631-2.51-2.105-2.88-4.037z"></path> <path id="path5508" style="fill-rule:evenodd" d="m180.49 50.167c2.42-0.028 4.76 6.3 1.15 6.919-1.17-1.524-0.09-5.293-1.15-6.919z"></path> <path id="path5510" style="fill-rule:evenodd" d="m216.81 50.167c3.31-0.038 4.11 2.427 5.77 4.037-1.75 0.764-5.38-1.525-5.77-4.037z"></path> <path id="path5512" style="fill-rule:evenodd" d="m58.24 51.321c-0.442 1.864-1.596 3.018-3.459 3.46 0.055-2.251 1.567-3.045 3.459-3.46z"></path> <path id="path5514" style="fill-rule:evenodd" d="m213.93 54.204c-3.06-0.203-7.06 0.525-7.49-2.307 1.87-0.676 6.17 0.569 7.49 2.307z"></path> <path id="path5516" style="fill-rule:evenodd" d="m158.57 51.897c-0.48 2.593-2.39 3.761-3.46 5.766 0.15 1.198 2.54 0.158 2.89 1.153-0.09 2.6-3.06 2.321-3.46 4.613-1.79-1.042-0.31-1.766-0.58-4.037-1.78-0.431-0.7 1.988-2.88 1.153 2.11-3.271 3.49-7.268 7.49-8.648z"></path> <path id="path5518" style="fill-rule:evenodd" d="m102.64 52.474c-0.42 1.762 0.59 2.102 0.58 3.46-2.13 0.206-2.41-1.435-2.88-2.883 0.51-0.448 1.3-0.62 2.3-0.577z"></path> <path id="path5520" style="fill-rule:evenodd" d="m148.2 54.781h1.15c-1.15 0.394 0.36 3.435-1.73 2.883 0.31-0.838-0.68-2.98 0.58-2.883z"></path> <path id="path5522" style="fill-rule:evenodd" d="m111.29 55.357c4.24 0.875 3.54 8.827-1.73 8.073 0.17-1.757 2.19-1.651 2.88-2.883-0.14-1.929-2.88-3.167-1.15-5.19z"></path> <path id="path5524" style="fill-rule:evenodd" d="m90.531 57.664c3.829 0.214 2.901 10.165 9.227 9.803 2.962-0.112 2.482-3.665 5.192-4.036-0.29 3.936-3.01 5.453-6.922 5.766-1.083 1.02 0.686 1.684-0.577 2.883-1.419-0.859-1.291-2.37-3.46-1.153 1.067-7.218-5.728-6.574-9.226-9.226 0.15-1.776 4.267-0.388 5.766 0 1.891-0.182 1.229-3.648 0-4.037z"></path> <path id="path5526" style="fill-rule:evenodd" d="m123.98 59.394c1.8-0.27 1.62 1.45 2.3 2.307-0.25 2.821-1.54 4.606-2.88 6.343 3.05-1.175 5.77-2.688 6.92-5.766 2.18 3.113-4.72 9.15-9.8 6.919 1.08-3.336 4.32-4.523 3.46-9.803z"></path> <path id="path5528" style="fill-rule:evenodd" d="m170.11 59.394c0.08 1.813-1.48 1.981-2.89 2.307 0.74-0.989 1.2-2.268 2.89-2.307z"></path> <path id="path5530" style="fill-rule:evenodd" d="m158 61.7c3.21 0.247 2.39 4.524 5.76 4.613-2.29 2.956-6.2-1.129-5.76-4.613z"></path> <path id="path5532" style="fill-rule:evenodd" d="m137.82 63.43c2.4 1.248 2.5 4.804 4.03 6.919-2.71-0.697-5.55-3.863-4.03-6.919z"></path> <path id="path5534" style="fill-rule:evenodd" d="m119.36 65.16c0.27 1.805-0.5 2.574-2.3 2.306-0.27-1.805 0.5-2.573 2.3-2.306z"></path> <path id="path5536" style="fill-rule:evenodd" d="m133.78 66.89c3.23 1 3.81 4.649 7.5 5.189-0.08 1.273-2.45 0.245-3.46 0.577-0.85 2.193 2.57 0.113 1.72 2.307-2.15 0.042-3.98-0.243-5.18-1.153-0.52-2.014 1.88-0.985 2.3-0.577-0.62-2.457-2.79-3.355-2.88-6.343z"></path> <path id="path5538" style="fill-rule:evenodd" d="m156.27 67.466c0.93-0.162 0.99 0.545 1.73 0.577-0.53 5.14 4.48 4.749 5.19 8.65-5.13 2.896-6.08-3.414-9.23-5.767 0.8-1.123 2.07-1.771 2.31-3.46z"></path> <path id="path5540" style="fill-rule:evenodd" d="m75.539 69.773c1.755-0.218 0.979 2.096 2.307 2.307-5.975 6.134-11.363 12.856-16.146 20.182-1.201-2.96 1.61-7.322 3.46-10.379 2.75-4.545 5.112-8.508 9.803-10.379-0.163-0.932 0.544-0.994 0.576-1.731z"></path> <path id="path5542" style="fill-rule:evenodd" d="m128.01 69.773c-1.26 2.201-3.38 3.535-6.34 4.037 0.93-2.528 3.75-3.17 6.34-4.037z"></path> <path id="path5544" style="fill-rule:evenodd" d="m108.41 70.35c2.09-0.168-0.06 3.899 2.88 2.883-0.1 4.127-1.69 6.772-4.61 8.073-0.66-2.391 1.21-2.247 1.15-4.037-0.5-1.703-0.86 1.338-2.31 0.577 0.15-3.31 2.12-4.801 2.89-7.496z"></path> <path id="path5546" style="fill-rule:evenodd" d="m151.08 70.35h1.73c1.08 4.297 3.89 6.875 6.34 9.803-5.53-0.425-7.16-4.761-8.07-9.803z"></path> <path id="path5548" style="fill-rule:evenodd" d="m146.46 71.503c4.33 2.208 3.85 9.224 10.38 9.226-1.19 1.882-4.94 1.206-7.49 1.73 0.11 2.802 0.13 5.513-1.15 6.919-1.93-0.957-2.51-3.264-4.62-4.036v-5.19c-1.37-1.126-3.54-1.454-5.19-2.306 3.16-1.791 7.31 0.365 8.08 2.883 1.06-0.087 0.35-1.953 1.15-2.307 1.02 0.516 0.73 2.341 2.88 1.73-1.2-3.028-3.46-4.997-4.04-8.649z"></path> <path id="path5550" style="fill-rule:evenodd" d="m179.33 73.233c0.93-0.163 1 0.545 1.73 0.577-1.45 2.392-2.29 5.397-5.19 6.343 0.3-3.166 3.02-3.907 3.46-6.92z"></path> <path id="path5552" style="fill-rule:evenodd" d="m86.495 73.81c1.729 1.923 2.87 4.435 4.036 6.919-3.015-0.541-6.044-4.915-4.036-6.919z"></path> <path id="path5554" style="fill-rule:evenodd" d="m96.875 74.386c1.493 1.734-0.251 2.9 0 4.613 0.452 3.077 3.855 4.48 2.883 6.92-4.871-0.006-8.311-9.887-2.883-11.533z"></path> <path id="path5556" style="fill-rule:evenodd" d="m120.52 75.54c-0.53 1.206-1.7 1.758-3.46 1.729-0.02-1.748 2.02-1.436 3.46-1.729z"></path> <path id="path5558" style="fill-rule:evenodd" d="m65.16 77.846c0.981-0.212 1.088 0.449 1.153 1.153-6.381 4.191-10.87 10.273-17.876 13.839-0.933 4.257-3.6 6.78-6.919 8.652 0.428-2.842 2.311-4.228 2.307-7.499 3.024-1.013 3.474-3.887 5.766-5.767 3.057-2.506 7.534-3.629 10.956-5.766 1.863-1.163 3.306-2.978 4.613-4.612z"></path> <path id="path5560" style="fill-rule:evenodd" d="m112.44 78.999c0.09 2.966-1.43 4.334-2.3 6.343 0.18 1.359 2 1.073 1.73 2.883-4.74-0.729-3.93-8.717 0.57-9.226z"></path> <path id="path5562" style="fill-rule:evenodd" d="m116.48 84.766c-3.52-1.935 2.26-6.643 4.04-5.19-0.38 2.7-4.5 1.653-4.04 5.19z"></path> <path id="path5564" style="fill-rule:evenodd" d="m138.97 80.729c-1.53-0.006-3.29 0.218-4.04-0.577 1.05-0.724 4.33-2.175 4.04 0.577z"></path> <path id="path5566" style="fill-rule:evenodd" d="m135.51 81.882c1.21-1.547 3.69 0.497 3.46 2.307-2.08 0.158-1.57-2.28-3.46-2.307z"></path> <path id="path5568" style="fill-rule:evenodd" d="m87.072 81.882h1.73c1.821 5.647-1.445 11.158 0.576 14.993 1.488-0.435-0.421-4.265 1.73-4.037 3.888 0.239 1.063 3.92 1.153 6.343 0.141 3.779 1.831 8.069 1.153 10.959-5.368-7.14-7.728-15.465-6.342-28.258z"></path> <path id="path5570" style="fill-rule:evenodd" d="m106.1 87.072c-1.18 4.195-1.57 7.703 1.15 10.379-2.07 1.044-3.62-2.722-6.34-2.883-0.54-4.766 1.07-7.393 5.19-7.496z"></path> <path id="path5572" style="fill-rule:evenodd" d="m156.84 87.649c3.37 0.787 2.4 6.944 1.16 9.226-4.73 1.613-5.09 7.605-10.38 8.645 2.96-2.99 5.54-6.373 6.92-10.952 0.71 0.251 1.18 0.738 1.15 1.73 2.12-2.29 1.22-5.051 1.15-8.649z"></path> <path id="path5574" style="fill-rule:evenodd" d="m179.33 87.649c3 1.362-0.49 5.45-1.73 6.343 0.85 0.839 0.85 3.774 0 4.613-2.27-1.955-2.62-5.839-4.03-8.65 2.51-0.587 2.65 1.193 4.03 1.73 1.62-0.307 1.07-2.778 1.73-4.036z"></path> <path id="path5576" style="fill-rule:evenodd" d="m148.2 95.145c-2.87 1-4.24-3.084-5.77-5.19 2.22-0.674 5.31 2.235 5.77 5.19z"></path> <path id="path5578" style="fill-rule:evenodd" d="m58.816 92.262h1.73c-0.334 1.872 0.393 2.683 0.577 4.037-1.801 0.697-2.507 2.49-4.613 2.883 0.039-1.69 1.318-2.142 2.306-2.883-1.479-1.225-1.015-2.57 0-4.037z"></path> <path id="path5580" style="fill-rule:evenodd" d="m42.094 96.298c0.162 2.362-1.484 3.61-2.307 5.192-0.819 1.57-1.115 3.8-2.883 4.61-2.375-0.74 2.869-3.07 2.307-5.77-3.328-0.442-2.865 2.91-6.343 2.31-2.56 3.78-7.103 5.58-10.379 8.65-2.679-1.48-6.076 1.17-8.649-0.58 2.486-2.74 5.974-0.84 8.649-1.73 6.314-2.09 10.259-12.569 19.605-12.682z"></path> <path id="path5582" style="fill-rule:evenodd" d="m125.13 96.875c3.2 0.745 5.1-0.797 6.34 1.73-2.53-0.164-5.77 0.395-6.34-1.73z"></path> <path id="path5584" style="fill-rule:evenodd" d="m56.51 102.06c-0.527 1.98-1.872 3.13-4.037 3.46-0.147-2.52 2.558-4.37 4.037-3.46z"></path> <path id="path5586" style="fill-rule:evenodd" d="m78.422 101.49c0.326 3.25-3.635 4.55-4.037 1.15 1.092-0.64 2.725-0.73 4.037-1.15z"></path> <path id="path5588" style="fill-rule:evenodd" d="m127.44 102.06c-1.13 0.81-3.88 1.73-5.19 0.58 0.87-1.06 3.89-1.7 5.19-0.58z"></path> <path id="path5590" style="fill-rule:evenodd" d="m193.17 102.06c0.25 1.21-0.39 1.53-0.57 2.31-1.47-0.07-2.24-0.84-2.31-2.31 0.76-0.74 2.13-0.74 2.88 0z"></path> <path id="path5592" style="fill-rule:evenodd" d="m132.63 103.79c-1.31 2.15-5.22 1.71-8.08 2.31 1.44-2.02 5.33-1.59 8.08-2.31z"></path> <path id="path5594" style="fill-rule:evenodd" d="m190.29 106.68h1.73c0.89 2.79-0.29 8.05-2.31 9.8-0.35-3.81 1.01-5.91 0.58-9.8z"></path> <path id="path5596" style="fill-rule:evenodd" d="m123.4 108.98c1.94-1.33 6.33-0.2 9.23-0.57-1.42 2.51-6.67 0.58-9.23 0.57z"></path> <path id="path5598" style="fill-rule:evenodd" d="m132.63 110.71c-0.95 2.66-7.84 4.33-8.65 0.58 2.97-0.1 6.5 0.36 8.65-0.58z"></path> <path id="path5600" style="fill-rule:evenodd" d="m141.28 111.87c0.91-1.43 4.03-0.24 5.18 0-0.79 1.73-4.32 1.35-5.18 0z"></path> <path id="path5602" style="fill-rule:evenodd" d="m171.84 111.29h1.73c-0.72 2.36-1.47 4.69-4.04 5.19 0.35-2.15 2.17-2.83 2.31-5.19z"></path> <path id="path5604" style="fill-rule:evenodd" d="m8.649 113.02c-0.447 3.59-4.317 3.76-8.649 3.46 0.757-3.28 4.411-3.66 8.649-3.46z"></path> <path id="path5606" style="fill-rule:evenodd" d="m118.79 117.63c-3.53-0.68-5.49-1.25-9.23-0.57 0.63-3.55 9-2.9 9.23 0.57z"></path> <path id="path5608" style="fill-rule:evenodd" d="m143.58 115.33c-0.01 1.14-1.57 0.73-1.15 2.3-1.95-0.93-5.81 0.05-7.5-1.15 1.1-2.66 5.86-1.51 8.65-1.15z"></path> <path id="path5610" style="fill-rule:evenodd" d="m140.7 122.25c-4.86 0.52-6.68 4.08-10.96 5.19-3.76-1.58-6.76-0.47-10.95-1.73-1.24-2.8-4.82-3.26-6.35-5.77 2.64-1.22 6.02 0.38 8.65 0 2.08-0.3 4.25-2.19 6.35-2.31 1.49-0.08 4 1.41 6.34 1.73 3.29 0.45 6.29-0.51 6.92 2.89z"></path> <path id="path5612" style="fill-rule:evenodd" d="m106.1 118.21c2.36 1.4-3.08 4.47-3.46 6.92v2.88c-1.64 0.29-0.83 3.02-3.458 2.31 1.768-4.57 2.818-9.87 6.918-12.11z"></path> <path id="path5614" style="fill-rule:evenodd" d="m155.69 119.36c2.74-1.18 4.81 3.25 5.19 6.35-4.16 0.32-1.77-5.92-5.19-6.35z"></path> <path id="path5616" style="fill-rule:evenodd" d="m187.98 120.52h1.73c1.32 2.18-0.23 5.71-2.88 5.76-0.14-2.44 1.51-3.1 1.15-5.76z"></path> <path id="path5618" style="fill-rule:evenodd" d="m109.56 123.98c2.32-0.02 2.76 1.85 2.88 4.03 4.24 1.88 9.31 2.08 9.23 6.35-0.06 3.47-5.23 4.56-8.07 6.92-4.29-0.52-5.88-3.74-8.08-6.35 0.73-4.27 2.17-7.82 4.04-10.95zm3.46 11.53c1.78 0.4 1.11 0.4 2.88 0 0.06-1.45-2.89-2.82-3.46-1.73 0.68 0.1 0.63 0.91 0.58 1.73z"></path> <path id="path5620" style="fill-rule:evenodd" d="m160.3 128.01c2.78 0.84 6.69 8.35 2.31 9.23 0.13-3.97-2.06-5.63-2.31-9.23z"></path> <path id="path5622" style="fill-rule:evenodd" d="m177.03 129.74c0.26 1.81-0.51 2.58-2.31 2.31 0.07-1.47 0.84-2.24 2.31-2.31z"></path> <path id="path5624" style="fill-rule:evenodd" d="m100.33 131.47c2.83 1.61-2.286 3.37-1.149 6.92-3.742-0.74-0.738-6.41 1.149-6.92z"></path> <path id="path5626" style="fill-rule:evenodd" d="m103.79 134.93c-2.06 2.61-0.65 6.68-0.57 10.38-3.653-0.44-3.222-10.47 0.57-10.38z"></path> <path id="path5628" style="fill-rule:evenodd" d="m110.71 147.62c-0.5 1.61-2.31 1.91-4.03 2.31-0.37-2.49 2.13-2.1 4.03-2.31z"></path> <path id="path5630" style="fill-rule:evenodd" d="m117.06 165.5c6.96 3.52 19.55-0.56 26.52 1.72-0.82 3.78-5.62 1.59-9.8 1.73-7.06 0.25-14.58 3.17-16.72-3.45z"></path> <path id="path5632" style="fill-rule:evenodd" d="m114.17 169.53c4.17 2.17 8.05 4.64 12.69 6.34-3.12 2.11-9.59-1.76-12.69-3.46 0.35-1.84-1.08-1.78 0-2.88z"></path> <path id="path5634" style="fill-rule:evenodd" d="m135.51 175.87c-0.36 2.53-6.35 1.84-7.5 1.73-0.11-3 5.49-2.7 7.5-1.73z"></path> <path id="path5636" style="fill-rule:evenodd" d="m155.11 186.83c-3.75-0.86-4.81-4.41-9.8-4.04-0.18-1.36-2-1.07-1.73-2.88 3.37 0.55 10.85 1.78 11.53 6.92z"></path> <path id="path5638" style="fill-rule:evenodd" d="m164.92 202.4c8 6.41-6.41 13.17-12.69 14.99 1.87-4.47 7.72-4.97 11.53-7.49-0.15-3.04 0.4-5.38 1.16-7.5z"></path> <path id="path5640" style="fill-rule:evenodd" d="m152.81 220.28c2.83 1.48-1.7 3.53-1.73 5.76-1.57-1.8 0.26-5.1 1.73-5.76z"></path> <path id="path5642" style="fill-rule:evenodd" d="m152.23 228.92c-0.16 1.96-0.92 3.32-0.58 5.77 0.58 0.77 1.56 1.13 1.73 2.31 3.25-2.29-2.73-6.99 0-9.81 3.57 3.1 1.04 8.74 2.31 13.84-1.73-0.16-4.16-3.31-4.61-5.76-0.34-1.85-0.76-5.41 1.15-6.35z"></path> <path id="path5644" style="fill-rule:evenodd" d="m215.66 61.124c-2.43-0.067-2.92-2.081-4.61-2.883-1.34 1.387 1.72 5.655 0 7.497-1.85 0.507-0.79-1.901-2.31-1.73-1.25-0.097-0.26 2.045-0.58 2.883-2.64 0.146-1.38-3.615-2.88-4.613-0.88 1.812-1.39 3.987-2.31 5.766-1.71-0.405-5.43 1.206-4.61-1.729-1.01 0.139-1.31 0.992-1.15 2.306-1.72-0.009-1.96-1.499-3.46-1.729-5.2 4.174-4.4 15.883-2.89 23.642-5.31-0.644-2.13-9.779-4.03-13.839-3.25 0.98-2.58 5.876-4.61 8.073-3.56-7.316 6.31-14.416 2.3-22.489h-2.3c-0.22 7.28-2.82 12.173-9.81 12.686 1.36 5.202-1.2 9.408-4.61 11.533-0.77-3.281-0.85-0.666-2.88-1.73-0.91-1.755 3.52-0.979 1.15-2.307 1.3-1.468 2.83 0.395 4.61-2.307v-4.613c-0.04-2.069-3.77-0.458-4.61-1.73 0.53-3.795 5.54-1.72 8.65-1.73 1.78-0.578-1.25-0.951-1.15-1.73 0.01-3.009 2.4-4.929 4.61-4.036 0.66 0.681 0.65 2.038 0.58 3.459 2.37-1.334-0.02-4.55 1.15-6.343-1.09-1.457-2.02 0.532-3.46-0.577-1.81 2.417-4.69 3.765-5.19 7.496-2.28 0.098 0.18-0.886-1.15-1.73-2.3 0.503-2.9 0.503-5.19 0 0.45-2.868 3.04-1.105 4.61-1.729 4.49-1.789 6.53-5.29 5.19-11.533 1.36-0.178 1.07-2.003 2.88-1.73-1.11 1.602-1.86 5.912-0.57 8.073 4.18-0.81 5.99-4.004 9.22-5.766 0.85-7.579-4.26-9.195-5.76-14.416-0.34-3.028 1.01-4.366 0.57-7.496 1.6 0.521 2.03 2.198 2.31 4.036 3.29 0.596 2.99-2.394 5.77-2.307 0.27 1.811-1.56 1.523-1.73 2.883 1.7 1.143 6 0.889 6.34-1.153 5.36-0.019 9.84-0.923 12.69-3.459 12.1-0.969 17.6-8.541 25.94-13.263-1.73 3.453-5.89 4.484-8.07 7.496 6.54 0 8.38-9.688 14.99-11.533-1.4-1.732-3.22 0.97-4.61 1.153 0.47-1.65 1.93-2.3 2.31-4.037 2.04-0.726 4.06 1.629 5.19-1.729 1.77 3.704-3.45 5.389-4.04 8.649-3.87 1.523-5.97 5.586-9.23 8.073-1.72 1.321-5.2 2.131-8.64 4.037-5.94 3.288-11.01 8.13-20.19 9.226-3 0.359-6.9-0.986-8.65 1.153-0.66-0.484-1.54-0.761-2.88-0.577-3.38 4.598 3.05 8.158 2.31 13.839 3.14-0.312 3.69-3.223 4.03-6.343h2.31c-0.25-0.709-0.74-1.184-1.73-1.153 0.5-2.207 3-0.583 4.04 0 0.56 3.757-2.06 7.698 1.15 9.226 2.53 0.607 1.89-1.95 4.04-1.73 0.39 2.489 4.3 1.463 5.19 3.46 0.49-1.84-0.91-1.783-1.16-2.883-0.11-0.774-2.39-1.074 0-1.153 0.62 0.956 4 2.106 4.62 1.153 1.12 0.943 3.8 2.254 2.3 4.037zm-20.76-21.913c6.98 0.448 10.87-2.2 14.99-4.613-4.51 2.016-10.68 2.385-14.99 4.613zm24.22-7.496c2.16 0.041 3.3-0.927 4.04-2.307-2.11 0.007-3.09 1.14-4.04 2.307z"></path> <path id="path5646" style="fill-rule:evenodd" d="m210.47 32.292c1.51-2.332 4.8-2.893 7.5-4.037 4.12-2.988 7.41-6.811 12.11-9.226 1.51 1.71-1.3 2.519-2.31 3.46-4.1 3.837-10.9 7.607-17.3 9.803z"></path> <path id="path5648" style="fill-rule:evenodd" d="m98.028 16.723c-1.316 1.486 0.572 3.263 2.302 3.46-2.83 2.345-7.529-2.631-8.645-5.767 1.1 1.083 1.043-0.342 2.883 0 0.02 1.902 1.64 2.205 3.46 2.307z"></path> <path id="path5650" style="fill-rule:evenodd" d="m144.74 35.175c1.1 0.058-0.46 2.148-0.58 2.883-1.18-0.556-1.25-2.214-1.16-4.036 0.78-0.098 1.16 2.932 1.74 1.153z"></path> <path id="path5652" style="fill-rule:evenodd" d="m65.16 36.905c-2.584-1.23 3.7 0.463 4.613 1.153 3.792-0.139 7.277 0.027 10.379 0.577-4.979 1.703-11.426-0.1-14.992-1.73z"></path> <path id="path5654" style="fill-rule:evenodd" d="m159.73 40.941c2.6 0.681 1.29-2.555 4.03-1.73-0.48 1.826-1.68 2.931-2.88 4.037 0.16 1.185 1.54 1.151 2.31 1.73-1.11 2.791-2.71-0.7-4.04-1.153 2.05-1.023 1.54-1.013 0.58-2.884z"></path> <path id="path5656" style="fill-rule:evenodd" d="m153.96 42.095c1.87-1.551-0.08 2.606 1.73 3.459-0.49-0.106-0.54 0.225-0.58 0.577h-1.15c-1.69-1.034 1.33-3.539 0-4.036z"></path> <path id="path5658" style="fill-rule:evenodd" d="m83.035 81.882c1.573 0.284-2.45 3.014 1.153 2.307 0.501 2.231-1.408 2.051-1.73 3.46-0.317 1.278 1.101 0.821 1.153 1.729-0.785 4.475-3.478 9.881-7.496 9.227 0.746-2.522 2.91-3.625 4.613-5.19-2.857-3.281 0.483-9.205 2.307-11.533z"></path> <path id="path5660" style="fill-rule:evenodd" d="m111.87 97.452c-0.33 2.748-2.07 4.088-2.89 6.348 1.69 0.14 1.78-1.31 3.46-1.16 0.16 2.24-2.94 5.78-5.19 7.5-3.25-3.45-1.31-13.19 4.62-12.688z"></path> <path id="path5662" style="fill-rule:evenodd" d="m102.06 147.62c0.98-0.21 1.09 0.45 1.16 1.15 1.46-0.3 2.23-0.98 2.3 1.15-1.87-0.04-3.1-0.73-3.46-2.3z"></path> <path id="path5664" style="fill-rule:evenodd" d="m147.62 170.11c-0.31-0.89-0.6-0.04-0.58 0.57-0.59-2.72 2.07-7.15 5.19-8.07 1.89-6.57 9.65-7.27 13.26-12.11-0.49-1.24-4.59 1.71-3.46-2.3-7.28 0.59-5.88 9.87-12.11 11.53-0.47 3.18-1.76 5.54-4.61 6.34 0.51-1.22 1.76-1.7 1.73-3.46-2.15-1.28-5.2 0.74-6.92 1.73-8.18 0.61-20 1.71-24.79-4.04-1.32-0.16-2.17 0.14-2.31 1.16-1.48-0.06-0.82-2.25-2.31-2.31-0.33-3.6 1.72-4.82 2.31-7.5 0.82-2.51-1.97-2.65-0.58-4.03 7.44 0.95 13.67-3.23 21.34-2.31 4.75 0.57 8.99 4.51 13.26 4.04 4.3-0.47 4.33-4.47 9.23-5.19 0.61-2.69-2.85-3.21-1.15-5.19 1.52 0.58 1.56 2.67 2.88 3.46 3.1 0.8 2.42-2.2 5.19-1.73-0.6 1.52-2.29 1.94-2.89 3.46 1.51 1.38 3.04 2.73 4.04 4.61 3.53 0.84 1.82-3.56 4.61-3.46 0.67 0.86 0.67 1.45 0 2.31 4.43-6.15 13.14-8.01 15-16.72 3.34 2.23 1.62-3.12 4.61-2.89-0.25 7.86-5.52 15.61-8.65 22.49 1.38 11.19-8.26 13.11-6.34 23.07-4.5 4.49-7.17 13.39-6.35 21.33-3.23-3.99-3.48-9.45-1.73-14.99 0.6-1.89 2.65-3.17 2.89-5.19 0.44-3.73-1.92-6.22-1.16-9.8-4.07 2.3-8.85 0.35-12.68 2.88 0.52 2.63-0.96 3.27-1.16 5.19-4.97 1.75-8.32 4.85-13.84 4.61-1.47-4.75 6.18-1.45 8.66-4.03-0.57-1.62-1.54 0.83-2.31-0.58 0.34-1.2 1.21-1.86 1.73-2.88zm20.18-8.65h4.04c1.7-0.8 2.33-2.66 4.03-3.46-1.15-3.28-0.26-8.37 1.16-12.11-0.13-0.45-0.49-0.67-1.16-0.58-3.43 1.18-5.01 4.22-9.22 4.62-0.73 7.53-8.58 7.95-11.54 13.26 3.67-0.4 6.23 0.31 8.65 1.15 2.1-0.21 2.14-2.47 4.04-2.88zm-27.1-2.88c-5.32 0.2-11.29 1.42-15.57-0.58 1.03 2.74 0.18 3.57-1.73 4.61 5.36 2.22 12.05-1.92 16.15 0.58-0.11-3.18 3.78-2.37 5.19-4.04-1.91-0.86 1.19-1.41 0.57-2.88-2.9-0.6-4.02 0.59-4.61 2.31z"></path> <path id="path5666" style="fill-rule:evenodd" d="m182.22 16.146c0.85 1.093 3.18 2.551 5.76 3.46-0.07 2.428-4.42 0.573-6.34 1.153-0.69-0.757-0.22-0.907 0-1.73-3.33-0.258-2.88 3.276-5.77 3.46 0.35-1.381 0.83-2.631 0.58-4.613 1.63-0.865 4.35-0.644 5.77-1.73z"></path> <path id="path5668" style="fill-rule:evenodd" d="m88.802 45.554c0.092 1.127 0.33 2.237 0.576 3.46 0.699 3.465 1.543 2.897-1.153 6.343-0.376 0.48-1.383 0.67-1.73 1.153-1.061 1.476-1.14 2.751-4.037 2.883 0.11 2.291 1.433 3.7 1.153 6.92-0.062 0.718-1.148 1.775-1.153 1.729 0.243 2.422 1.965 3.515 1.73 5.767-0.23 2.208-1.65 4.544-3.46 6.343-1.961-2.921 2.603-6.095 0.577-9.226-2.309-2.496-7.321-2.29-9.803-4.613-2.363-0.057-3.574 1.039-5.189 1.729-0.891-2.807-2.65-3.559-5.767-2.883-0.42-1.573 1.146-1.161 1.153-2.307-1.764-0.418-1.696 0.995-3.46 0.577 0.234-2.925-1.166-4.216-2.306-5.767 0.632-2.059 1.978-3.404 4.036-4.036-0.063 1.435-1.081 1.785 0 2.883 3.013 0.13 4.36-1.407 5.767-2.883 0.137-2.443-3.597-1.017-3.46-3.46 2.109-0.773 4.145-1.622 6.343-2.307 1.081 1.098 0.063 1.449 0 2.883 4.088 0.23 5.586 2.807 9.227 0.577 0.8 0.737 0.353 2.723 1.153 3.46 1.762 0.417 2.101-0.59 3.459-0.577-0.119 1.657 0.146 2.929 1.153 3.459 1.631-3.893 3.553-6.646 1.73-11.533-22.569 1.944-36.815-9.271-47.861-20.759-3.664-6.942-13.479-14.875-8.072-25.369 1.434 0.289 2.174 0.907 2.883 2.307 0.358 0.707-0.213 1.418 0 1.729 1.469 2.143 4.304 3.453 5.189 6.92-2.729-2.269-4.976-5.02-6.919-8.073-3.293 1.87-1.183 6.58-0.577 8.65 0.716 2 1.677 1.062 2.883 1.73 4.683 12.808 17.199 17.783 26.525 25.948 1.703-0.501-1.338-0.863-0.577-2.307 7.107 2.34 15.517 5.042 24.219 4.037-1.416-2.424-1.688-1.27 0-3.46-7.705-1.329-15.747-2.321-23.065-4.036 9.136-0.933 17.425 3.664 27.102 1.73-0.024-2.09-3.059-1.17-4.037-2.307 1.312-1.645 3.38 0.811 5.767 0 0.475 3.346-4.303 7.27 0 9.803 1.629 0.477 1.494-0.813 2.883-0.577 0.118-1.804-0.389-4.233 0.577-5.19 4.371 2.223-0.085 8.618-3.459 8.65zm-24.219 12.686c0.872-0.055 1.977-1.368 4.036-1.73 0.087-1.432-0.298-2.393-1.153-2.883 0.222 2.361-4.445 2.826-2.883 4.613z"></path> <path id="path5670" style="fill-rule:evenodd" d="m94.568 75.54c-5.868-1.052-9.193-4.646-9.803-10.956 2.136 2.601 6.007 0.397 7.496 4.036-0.07 1.467-0.839 2.236-2.307 2.307 0.838 0.892 2.25 1.21 4.037 1.153-0.012 1.358 0.993 1.697 0.577 3.46z"></path> <path id="path5672" style="fill-rule:evenodd" d="m149.35 114.75v2.88c5.52 0.63 7.07 5.23 8.65 9.81-1.78 0.9-5.76-0.19-6.92-1.73-1.69 2.47 2.45 4.06 1.73 7.49-0.99 2.47-2.95 3.97-4.04 6.34-1.69 0.16-1.77-1.3-3.46-1.15 0.3-1.63 1.4-2.45 1.73-4.03-1.56-0.84-5.7-0.17-6.92 1.15 0.68 1.05 3.01 0.45 4.04 1.15-0.76 2.87 1.77 2.46 1.73 4.62-3.03-0.06-5.19-0.96-8.65-0.58-1.64-2.71-5.68-4.61-5.19-7.5 0.89-5.31 7.93-1.8 11.53-5.19 0.06-2.63-0.47-5.85 1.15-6.92 2.51-0.39 3.19 1.04 4.04 2.31 2.16-1.23 3.28 0.07 4.61 1.15-0.18-1.33 0.1-2.21 0.58-2.88-2.01-2.99-8.42-1.57-8.65-6.34 1.33-0.55 1.86-0.04 4.04-0.58z"></path> </g><path id="path8133" sodipodi:nodetypes="cccccccccccc" style="fill-rule:evenodd;fill:url(#linearGradient8251)" d="m-2.4802 124.68c39.004-1.76 40.086 2.4 80.25-26.863 3.177 8.433 13.95 33.573 17.109 29.423 6.011 5.61 1.088 14.82 4.199 21.61 2.512 6.17 12.512-1.76 10.032 6.28-0.26 8.73 0.91 20.32 10.24 23.85 8.34 3.2 17.84-1.29 25.77 3.12 6.47 3.89 23.57 9.4 17.93 14.04 8.04 13.4 15.67 43.07 1.04 52.04-17.14-1.32-72.8 0.12-89.987-0.33-26.097-0.34-52.194-0.67-78.291-1 0.5695-32.35 1.1387-89.82 1.7078-122.17z"></path></g><path id="path8235" sodipodi:nodetypes="ccccccccccccccccccc" style="fill-rule:evenodd;fill:url(#linearGradient8243)" d="m-0.83754 114.71c14.562-10.76 28.612-12.42 44.681-22.183 8.046-9.062 26.806-14.04 28.945-24.593-20.458-0.013-28.826-12.29-18.548-24.691-10.706-13.73-21.223-17.344-24.321-31.551-3.309-7.5159 5.886-10.681 5.821-2.1758 14.77 6.9998 30.879 14.084 46.54 10.05 17.79-5.917 36.55-13.98 55.63-9.8544 14.98 1.6094 30.16 1.4254 44.83 5.4724 19.99 1.198 38.15-4.144 55.88-11.07 12.41 7.741-1.28 21.308-13.64 23.763 3.97 14.261-4.54 38.834-23.83 36.056-15.33 0.961-10.68 16.704-7.24 27.994 4.53 40.353-23.07 63.603-31.43 121.04 0.05 10.79-10.35 34.2 8.82 30.45 25.36-1.19 50.78-0.4 76.19-0.99-0.28-80.68-0.98-162.62-1.26-243.3-82.63-0.5612-164.85 0.13676-247.49-0.4216 0.56205 38.527-0.1359 78.309 0.42246 116z"></path><metadata></metadata></svg> 