<?xml version="1.0" encoding="UTF-8" standalone="no"?> <!-- Created with Sodipodi ("http://www.sodipodi.com/") --> <svg xmlns:rdf="http://www.w3.org/1999/02/22-rdf-syntax-ns#" xmlns="http://www.w3.org/2000/svg" xmlns:sodipodi="http://sodipodi.sourceforge.net/DTD/sodipodi-0.dtd" xmlns:cc="http://web.resource.org/cc/" xmlns:xlink="http://www.w3.org/1999/xlink" xmlns:dc="http://purl.org/dc/elements/1.1/" xmlns:svg="http://www.w3.org/2000/svg" xmlns:inkscape="http://www.inkscape.org/namespaces/inkscape" xmlns:ns1="http://sozi.baierouge.fr" id="svg548" viewBox="0 0 452 232" sodipodi:version="0.31.1win" sodipodi:docname="C:\WINDOWS\Desktop\programs\cr2v\olly.svg"><path id="path613" style="fill:#aaa756" d="m308 44c-5.4-4.37-3.3 13.78-5 17h-1c-0.7-3.98 2.4-16.51-4-11h-2c-2.1-7.18 3.6-11.77 6-17 0.2 4.35-2 9.91 0.8 12.75 2.2-5.4 7.7-13.57 0.2-17.75 6.2-6.83 5 11.36 5 16z"></path><path id="path619" style="fill:#80b9bb" d="m303 28c-0.2 0.95 0.6 2.94-1 3 0.2-0.95-0.6-2.94 1-3z"></path><path id="path620" style="fill:#5c602c" d="m302 33v-2c1.6-0.06 0.8-2.05 1-3 7.5 4.18 2 12.35-0.2 17.75-2.8-2.84-0.6-8.4-0.8-12.75z"></path><path id="path630" style="fill:#897f38" d="m391 40c-1.2-0.15-1 1.34-1 2h-1c-0.1-6.74-5.2 0.62-8 2-1.6-2.8-13.5 2.1-9-2 0.7 0.02 2.2 0.18 2-1 0.7 0.02 2.2 0.18 2-1h3l3-2h1c0.9-0.19 2.9 0.59 3-1 2.8-2.94 10.6-0.03 5 3z"></path><path id="path634" style="fill:#e6dc95" d="m386 37c-0.1 1.59-2.1 0.81-3 1 0.1-1.59 2.1-0.81 3-1z"></path><path id="path635" style="fill:#ad9d4a" d="m336 47l-1 4c0.1 2.82-1 7.28 3 5 0.5 1.35-0.6 2.46-2 2-2.7 0.71-1.9-2.45-2-4v-5c-2.2-5.8-4.9 13.96-5 5 0.2-1.18-1.3-1.02-2-1v-1l1-4 1-1c2.2-7.91 9.5-11.88 7 0z"></path><path id="path636" style="fill:#d6cf77" d="m382 38l-3 2c-0.7-2.11 1.6-2.21 3-2z"></path><path id="path637" style="fill:#423d23" d="m389 42c-2.2-0.49-2.8 2.4-3 4h-1l-1 1c-0.7-0.02-2.2-0.18-2 1h-1c-2.4 1.2-8.6 4.05-7 7v1l-2 2c-7.5-2.02-14.9 9.26-23 13l-1 1-2 2c-3.9 1.63-4.2 4.52-1 7l-5 4c-1.4-0.46-2.5 0.65-2 2l-15 11c-1.4-0.46-2.5 0.65-2 2-2.9 0.2-5.2 3.7-6.7 5.8 2.5-0.2 5.8-2.1 7.7-3.8l26-20c4.5-4 8.3-8.86 12-14 2.1-0.04 4.8-0.59 6-2h1 5c-5.3 7.17 11.7-3.2 14-6h2 5c8.8 7.67-24 6.91-13 13l-29.7 12.75c15.2-6.94 24.7 4.55 31.7-1.75v1l-1 1-1 1-1 1h-1l-1 1-1 1c-0.7-0.02-2.2-0.18-2 1l-2 2-1 1h-3c-2.7 0.05-6.2 0.5-8 2h-2c9.4-10.34-12.8-2.27-7.2 0.25l-0.8 1.75c-0.9 0.19-2.9-0.59-3 1h-2l-5 1h-3l-1 1c-0.7 0-2.2-0.2-2 1l-3 2c-0.7 0-2.2-0.2-2 1l-3 1 2-4c1.9 0.1-0.1-1.9 0 0-2.4-0.2-5.9 1.6-6 4l-3 2-1 1-10 11h-2-9c-1.3-0.3-2.7 0.7-3 2-13.2-7.4-23.3 19.1-8 12 5.3-0.4 10.3 0.2 15 2h1c-0.7 2.7 2.4 1.9 4 2v2 2c0 0.7-0.2 2.2 1 2h1v2c0.2 0.9-0.6 2.9 1 3v1c0 0.7-0.2 2.2 1 2v2l8 1c2 1.3 5.1 3 8 3h6l1 1 1 1c2.6 2.9 5.7 6.2 10 7-0.5 1.4 0.6 2.5 2 2 5.7 2.6 7.6 7.7 10 14h-2c0.2-1.2-1.3-1-2-1 0.5-1.4-0.6-2.5-2-2h-2l-6-2c0.2-1.2-1.3-1-2-1 0.2-1.2-1.3-1-2-1h-2c0.7-2.1-1.6-2.2-3-2h-1l-2-2c0.2-1.2-1.3-1-2-1v-1c0.2-1.2-1.3-1-2-1v-1c-2.7-5.7-10.8-9.9-16-8h-1l-2-2c0-0.7 0.2-2.2-1-2 0.2-1.4 0.1-3.7-2-3l-1-1-1-1-2-2-1-1h-1c0.2-1.2-1.3-1-2-1 0.2-1.2-1.3-1-2-1s-2.2 0.2-2-1v-1c13.6 6.5-4.7-16.3-1 0h-1l-2-2h-2l-1-1c0.2-1.2-1.3-1-2-1h-5c-1-1.6-6-1.6-7 0h-8c-0.7 0-2.2-0.2-2 1l-5 1h-1-4c-0.9 0.2-2.9-0.6-3 1-0.7 0-2.2-0.2-2 1h-4l-4 1v1h-4c-2.8 0-6.5-0.5-8 2h-4l-8-1 28-7c11.5 0.8 22.3-3.2 31-7-0.1-1.6-2.1-0.8-3-1-8.6 1 4.2-3.8-3-5l3-3c0.7 0 2.2 0.2 2-1v-1c0.7 0 2.2 0.2 2-1v-1l1-1c1.7-3.1 5.7-6.2 5-11 2.4-6.6 3.2-2 2 3-5.5 7.1 3.6 6.9 4 0l4-16c2.1-10.77 2.1-20.64 2-32v-4l1-2 1-1v6 4c-3.9 6.5 4.7 15.13 8 11h1c1.1-2.18 6.1-6.44 4-1-7.5 11.92-19.5 22.17-18 36 3.1-3.6 5.3-7.8 7-12 8.9-2.42 9.2-3.67 15.8-9.75-2.4 11.55-7.6 15.95-16.8 24.75-3.6 5.1 7.4 0.9 7-2 8.1-5.5 13.9-12.9 18-21l10-12 7-8 15-11c3.3 3.19 5.2-0.17 8-2 0.7 0.02 2.2 0.18 2-1 1.4 0.46 2.5-0.65 2-2l3-2c1.4 0.46 2.5-0.65 2-2h1l2-2c0.7 0.02 2.2 0.18 2-1l2-2 5-3c2.8-1.38 7.9-8.74 8-2z"></path><path id="path639" style="fill:#c1c96d" d="m376 40c0.2 1.18-1.3 1.02-2 1-0.2-1.18 1.3-1.02 2-1z"></path><path id="path640" style="fill:#de9a9f" d="m391 40c0 0.66 0.2 2.15-1 2 0-0.66-0.2-2.15 1-2z"></path><path id="path642" style="fill:#c3ce6d" d="m374 41c0.2 1.18-1.3 1.02-2 1-0.2-1.18 1.3-1.02 2-1z"></path><path id="path644" style="fill:#655f2a" d="m308 44l2 16v2l1 8h1c1.4 0.46 2.5-0.65 2-2h1l1-1 1-1 1-1c1.6 0.06 0.8 2.05 1 3-1.2-0.15-1 1.34-1 2l-1 1-1 1c0 0.66 0.2 2.15-1 2s-1 1.34-1 2c-1.2-0.15-1 1.34-1 2-1.2-0.15-1 1.34-1 2h-1c-1.2-0.15-1 1.34-1 2v2c-1.6 0.19-1.6 3.81 0 4l1-1 1-1c0-0.66-0.2-2.15 1-2 5.2 5.01 9.6-0.66 6-6v-1h1c6.9-2.97 3.7-11.5 12-14l-6 13c-4.9 3.28 0.3 4.9 4 4l-10 12c-0.2-0.95 0.6-2.94-1-3l-17 24-7 2c9.2-8.8 14.4-13.2 16.8-24.75-6.6 6.08-6.9 7.33-15.8 9.75l11-24c2.1-5.44-2.9-1.18-4 1v-16c1.7-3.22-0.4-21.37 5-17z"></path><path id="path645" style="fill:#b39e4f" d="m372 42c-4.5 4.1 7.4-0.8 9 2l-5 3c-4-2.71-11.9 8.08-8.2-1.75l-8.8 8.75h-2c3-4.12-4.2-4.34-7-4l10-4c0.7 0.02 2.2 0.18 2-1l10-3z"></path><path id="path646" style="fill:#cd9d60" d="m389 42l-3 4c0.2-1.6 0.8-4.49 3-4z"></path><path id="path648" style="fill:#e3cf9a" d="m260 46h-2c0.1-1.77 2.7-2.52 2 0z"></path><path id="path649" style="fill:#e7ba7e" d="m310 60l-2-16 2 16z"></path><path id="path650" style="fill:#e6e18a" d="m362 45c0.2 1.18-1.3 1.02-2 1-0.2-1.18 1.3-1.02 2-1z"></path><path id="path651" style="fill:#dfcda5" d="m376 47l-2 2c-0.7-0.02-2.2-0.18-2 1-1.4-0.46-2.5 0.65-2 2h-1l-2 2-3 2-2 2c-0.7-0.02-2.2-0.18-2 1-1.2 0.15-1-1.34-1-2 4.8-2.21 6.1-7.03 0-3l8.8-8.75c-3.7 9.83 4.2-0.96 8.2 1.75z"></path><path id="path652" style="fill:#b1d3ba" d="m258 46c0 0.66 0.2 2.15-1 2 0-0.66-0.2-2.15 1-2z"></path><path id="path653" style="fill:#67432b" d="m260 46c0 0.66-0.2 2.15 1 2l1 1 1 1h1c-0.2 1.18 1.3 1.02 2 1v1c-0.2 1.42-0.1 3.67 2 3l0.3 2.75c9.7 0.49 5.2 12.09-2.3 10.25l-0.2-1.75c-7.8 1.59-0.1-10.28-6.8-10.25 0.1-1.66 1.7-3.48-1-4v-1l-1-1v-2c1.2 0.15 1-1.34 1-2h2z"></path><path id="path654" style="fill:#e8c06d" d="m261 48c-1.2 0.15-1-1.34-1-2 1.2-0.15 1 1.34 1 2z"></path><path id="path655" style="fill:#c69864" d="m385 46l-1 1 1-1z"></path><path id="path656" style="fill:#84abc3" d="m329 47l-1 1 1-1z"></path><path id="path657" style="fill:#7d7b35" d="m336 58l-2 2c-0.6-6.56-5.5-1.86-9 0v-2c1.2 0.15 1-1.34 1-2v-2l1-1c0.7-0.02 2.2-0.18 2 1 0.1 8.96 2.8-10.8 5-5v5c0.1 1.55-0.7 4.71 2 4z"></path><path id="path658" style="fill:#edaca5" d="m336 47l-1 4 1-4z"></path><path id="path659" style="fill:#a36ea3" d="m384 47c0.2 1.18-1.3 1.02-2 1-0.2-1.18 1.3-1.02 2-1z"></path><path id="path660" style="fill:#8ec2d8" d="m257 48v2c-1.3 0.22-1.3-2.22 0-2z"></path><path id="path661" style="fill:#5e602a" d="m302 61v1l-1.2 11.75-2.8-16.75v-7c6.4-5.51 3.3 7.02 4 11z"></path><path id="path662" style="fill:#a46d36" d="m381 48v2h-1l-2 2-2 2-2 1c-1.6-2.95 4.6-5.8 7-7z"></path><path id="path663" style="fill:#e2a5a1" d="m382 48c0 0.66 0.2 2.15-1 2v-2h1z"></path><path id="path664" style="fill:#e8a73b" d="m263 50l-1-1 1 1z"></path><path id="path665" style="fill:#aebb4f" d="m374 49c0.2 1.18-1.3 1.02-2 1-0.2-1.18 1.3-1.02 2-1z"></path><path id="path666" style="fill:#8580b9" d="m258 51l-1-1 1 1z"></path><path id="path667" style="fill:#efdd8b" d="m266 51c-0.7 0.02-2.2 0.18-2-1 0.7-0.02 2.2-0.18 2 1z"></path><path id="path668" style="fill:#e6d990" d="m278 51h-10c2-1.66 8-1.66 10 0z"></path><path id="path669" style="fill:#a1b7d0" d="m295 50c0 0.66 0.2 2.15-1 2 0-0.66-0.2-2.15 1-2z"></path><path id="path670" style="fill:#968a31" d="m296 50l2 7 2.8 16.75 1.2-11.75v15c-3.3 4.13-11.9-4.5-8-11 3.7 0.9 3-4.64 0-4v-6-2-2c1.2 0.15 1-1.34 1-2h1z"></path><path id="path671" style="fill:#dae2a8" d="m298 50v7l-2-7h2z"></path><path id="path672" style="fill:#d8d77e" d="m348 50l-3 2c-0.7-2.11 1.6-2.21 3-2z"></path><path id="path673" style="fill:#75672d" d="m350 50c2.8-0.34 10-0.12 7 4-6.6 4.79-11.5 9.73-18 12-5.4 1.66-6.8 14.4-7 3 3.3-6.42 8.2-10.94 13-17l3-2h2z"></path><path id="path674" style="fill:#87aa56" d="m372 50l-2 2c-0.5-1.35 0.6-2.46 2-2z"></path><path id="path675" style="fill:#d79697" d="m380 50c0.5 1.35-0.6 2.46-2 2l2-2z"></path><path id="path676" style="fill:#e5db95" d="m268 51c0.2 1.18-1.3 1.02-2 1v-1h2z"></path><path id="path677" style="fill:#a67946" d="m278 51l4 1c-0.2 1.18 1.3 1.02 2 1h1c-0.2 1.18 1.3 1.02 2 1l4 2 1 1h1l-1 2c-7-3.77-16.2-7.39-24-4-2.1 0.67-2.2-1.58-2-3 0.7 0.02 2.2 0.18 2-1h10z"></path><path id="path678" style="fill:#9eaabf" d="m259 56h-1v-4c2.7 0.52 1.1 2.34 1 4z"></path><path id="path679" style="fill:#dfca84" d="m284 53c-0.7 0.02-2.2 0.18-2-1 0.7-0.02 2.2-0.18 2 1z"></path><path id="path680" style="fill:#9cc1c8" d="m327 52v1l-1 1c0-0.66-0.2-2.15 1-2z"></path><path id="path681" style="fill:#cfc282" d="m345 52c-4.8 6.06-9.7 10.58-13 17l-6 7 6-13v-1c1.4 0.46 2.5-0.65 2-2l2-2c1.4 0.46 2.5-0.65 2-2 0.3-2.73 4.2-4.51 7-4z"></path><path id="path682" style="fill:#c6b275" d="m359 57c-2.2-2.29-5.3 2.8-7 4l-15 11 2-6c6.5-2.27 11.4-7.21 18-12h2c6.1-4.03 4.8 0.79 0 3z"></path><path id="path683" style="fill:#a3ad4a" d="m369 52c0.5 1.35-0.6 2.46-2 2l2-2z"></path><path id="path684" style="fill:#edd491" d="m287 54c-0.7 0.02-2.2 0.18-2-1 0.7-0.02 2.2-0.18 2 1z"></path><path id="path685" style="fill:#d2c840" d="m292 59v4c-25.6-10.04-0.6 5.45-11 15 5.9 2.71 4.9 14.09-2.7 8.25 3.4 6.69-5.2-3.24-8.3-2.25-7-3.04-2.1-11.46-10.7-12.75 1.5 7.06 0.2 9.5-8.3 5.75 8.2-0.41 1.6-0.56 0.3-3.75l4.5-0.5c-4.5-11.27 4.2-7.11 10.2-4.75 7.5 1.84 12-9.76 2.3-10.25l-0.3-2.75c7.8-3.39 17 0.23 24 4z"></path><path id="path686" style="fill:#86b8c4" d="m294 54v2l-1 1h-1v-1l2-2z"></path><path id="path687" style="fill:#d191a8" d="m376 54c0.5 1.35-0.6 2.46-2 2v-1l2-1z"></path><path id="path688" style="fill:#e0cb78" d="m258 56h1c6.7-0.03-1 11.84 6.8 10.25l0.2 1.75c-6-2.36-14.7-6.52-10.2 4.75l-4.5 0.5c1.3 3.19 7.9 3.34-0.3 3.75l-4-1v-7c3.4-7.55 5.2-9.8 11-13z"></path><path id="path689" style="fill:#e3cc95" d="m292 56v1l-1-1h1z"></path><path id="path690" style="fill:#7ab095" d="m326 56c0 0.66 0.2 2.15-1 2 0-0.66-0.2-2.15 1-2z"></path><path id="path691" style="fill:#3f3c24" d="m334 60c-1.4-0.46-2.5 0.65-2 2v1c-8.3 2.5-5.1 11.03-12 14v-1-1l1-1v-2l1-4v-2c1.2-0.61 2-2.56 2-4v-1l1-1c3.5-1.86 8.4-6.56 9 0z"></path><path id="path692" style="fill:#8c8133" d="m359 57c0 0.66-0.2 2.15 1 2-2.8 1.83-4.7 5.19-8 2 1.7-1.2 4.8-6.29 7-4z"></path><path id="path693" style="fill:#87ae3f" d="m364 56c0.5 1.35-0.6 2.46-2 2l2-2z"></path><path id="path694" style="fill:#c3aa5f" d="m372 58l-6 8c-1.2 1.41-3.9 1.96-6 2-5.5-1.51-9.2 8.63-14 6l2-2 1-1c8.1-3.74 15.5-15.02 23-13z"></path><path id="path695" style="fill:#df92a2" d="m374 56c0.5 1.35-0.6 2.46-2 2l2-2z"></path><path id="path697" style="fill:#a69164" d="m408 58l-7 3c-3.1 1.86-5.2-0.04-8-1h-5c1.5-1.58 4.5-2.14 7-2h13z"></path><path id="path699" style="fill:#9b9829" d="m292 63c0.1 11.36 0.1 21.23-2 32-3.7 3.33-7.2 6.8-10 2l-10-13c3.1-0.99 11.7 8.94 8.3 2.25 7.6 5.84 8.6-5.54 2.7-8.25 10.4-9.55-14.6-25.04 11-15z"></path><path id="path700" style="fill:#6a98a4" d="m325 58v2l-1 1c0.2-0.95-0.6-2.94 1-3z"></path><path id="path701" style="fill:#78b03c" d="m362 58c0.2 1.18-1.3 1.02-2 1-0.2-1.18 1.3-1.02 2-1z"></path><path id="path702" style="fill:#3c3c20" d="m412 58h4 2l1 4-1 1-1 1-1 1c-1.3-0.33-2.7 0.71-3 2l-1 1c-0.7-0.02-2.2-0.18-2 1l-1 1h-1l-2 2c-1.8 0.33-10.3 3.55-6 4v1c-4.8-1.02-10-0.24-14 2-2.3 1.71-5.3 0.77-8 1-5.4-0.39-4.3-1.27-2-4 2.7 0.56 4.8-0.88 7-2l8-2c1.7 0.37 3.3-0.32 4.3-1.75 12.2-6.37-14.5 5.39-12.3-0.25 2 0.36 3.7-0.74 5.3-1.75 3.4-0.35 6.9-2.37 9.5-4l3.2-3.25 7-3h4z"></path><path id="path704" style="fill:#b48a3f" d="m266 60c5.2 0.81-0.9 6.83 0 0z"></path><path id="path705" style="fill:#ab7138" d="m334 60c0.5 1.35-0.6 2.46-2 2-0.5-1.35 0.6-2.46 2-2z"></path><path id="path706" style="fill:#908848" d="m386 60c-2.3 2.8-19.3 13.17-14 6l1-2 13-4z"></path><path id="path707" style="fill:#837b37" d="m401 61l-3.2 3.25c-2.6 1.63-6.1 3.65-9.5 4-1.6 1.01-3.3 2.11-5.3 1.75-2.2 5.64 24.5-6.12 12.3 0.25-1 1.43-2.6 2.12-4.3 1.75l-8 2c-0.1-1.59-2.1-0.81-3-1-11-6.09 21.8-5.33 13-13 2.8 0.96 4.9 2.86 8 1z"></path><path id="path709" style="fill:#4b7097" d="m303 61v16h-1v-15-1h1z"></path><path id="path710" style="fill:#d6bc98" d="m294 66v-4c3-0.64 3.7 4.9 0 4z"></path><path id="path711" style="fill:#e8be91" d="m311 70l-1-8 1 8z"></path><path id="path712" style="fill:#7ab1b1" d="m324 62c0 1.44-0.8 3.39-2 4-0.3-1.6 0.1-3.66 2-4z"></path><path id="path714" style="fill:#c28c65" d="m319 68c-0.2-0.95 0.6-2.94-1-3 1.5-3.33 3.5 2.73 1 3z"></path><path id="path715" style="fill:#d7d685" d="m373 64l-1 2h-5l6-2z"></path><path id="path717" style="fill:#b6b964" d="m318 65l-1 1 1-1z"></path><path id="path719" style="fill:#9e903c" d="m339 66l-2 6-7 8c-3.7 0.9-8.9-0.72-4-4l6-7c0.2 11.4 1.6-1.34 7-3z"></path><path id="path720" style="fill:#a6a664" d="m316 67l-1 1 1-1z"></path><path id="path722" style="fill:#96a968" d="m314 68c0.5 1.35-0.6 2.46-2 2l2-2z"></path><path id="path723" style="fill:#e58d82" d="m319 68c0 0.66 0.2 2.15-1 2 0-0.66-0.2-2.15 1-2z"></path><path id="path724" style="fill:#90c4be" d="m322 68l-1 4 1-4z"></path><path id="path725" style="fill:#9a9033" d="m360 68c-3.7 5.14-7.5 10-12 14-0.1-1.59-2.1-0.81-3-1-3.2-2.48-2.9-5.37 1-7 4.8 2.63 8.5-7.51 14-6z"></path><path id="path727" style="fill:#a298cf" d="m247 69v7h-1l1-7z"></path><path id="path730" style="fill:#bda93e" d="m209 72c-6.9 1.94 15 4.13 9 12 2.1 2.38-1.3 2.1-3 2l1.3-1.75c-5.3 2.31-4.2 0.31-9-6 0.8 3.59 2.2 6.43 0.7 9.75l-16-9-10 1c-5.1 1.32-12.8 1.1-14 7h-1c-6.3 0.5-6.5 7.87-6 13h-1c-3.1-25.19 30.2-34.98 49-28z"></path><path id="path731" style="fill:#dca08a" d="m318 70c0 0.66 0.2 2.15-1 2v-1l1-1z"></path><path id="path734" style="fill:#b59e3a" d="m270 84c-7.1-0.32-15.3-7.86-21 0-4.2-7.64-3.7-0.81-10.7-2.25l4.5-3c-5-2.17 0.2-0.79 2.2-2.75h1 1l4 1c8.5 3.75 9.8 1.31 8.3-5.75 8.6 1.29 3.7 9.71 10.7 12.75z"></path><path id="path735" style="fill:#f2e3c6" d="m270 71c16 4.51-13.9 8.19 0 0z"></path><path id="path736" style="fill:#cd513b" d="m317 71v1h-1l1-1z"></path><path id="path737" style="fill:#bf4f22" d="m349 71l-1 1 1-1z"></path><path id="path738" style="fill:#8b5e2d" d="m209 72h1c-0.2 1.18 1.3 1.02 2 1 0.1 1.59 2.1 0.81 3 1h1c-0.5 1.35 0.6 2.46 2 2-0.2 1.18 1.3 1.02 2 1-0.5 1.35 0.6 2.46 2 2v1l-4 4c6-7.87-15.9-10.06-9-12z"></path><path id="path739" style="fill:#d0c358" d="m212 73c-0.7 0.02-2.2 0.18-2-1 0.7-0.02 2.2-0.18 2 1z"></path><path id="path740" style="fill:#8ec0df" d="m321 72v2h-1c0-0.66-0.2-2.15 1-2z"></path><path id="path742" style="fill:#ecd172" d="m215 74c-0.9-0.19-2.9 0.59-3-1 0.9 0.19 2.9-0.59 3 1z"></path><path id="path743" style="fill:#baa25b" d="m380 73c0.9 0.19 2.9-0.59 3 1-2.2 1.12-4.3 2.56-7 2l-14 6 20 1v1c-7 6.3-16.5-5.19-31.7 1.75l29.7-12.75z"></path><path id="path744" style="fill:#eddb80" d="m218 76c-1.4 0.46-2.5-0.65-2-2 1.4-0.46 2.5 0.65 2 2z"></path><path id="path745" style="fill:#df8c72" d="m315 74c0 0.66 0.2 2.15-1 2 0-0.66-0.2-2.15 1-2z"></path><path id="path746" style="fill:#5b9684" d="m321 74l-1 1v-1h1z"></path><path id="path747" style="fill:#ce9f4f" d="m220 77c-0.7 0.02-2.2 0.18-2-1 0.7-0.02 2.2-0.18 2 1z"></path><path id="path748" style="fill:#dacf47" d="m245 76c-2 1.96-7.2 0.58-2.2 2.75l-4.5 3c7 1.44 6.5-5.39 10.7 2.25 5.7-7.86 13.9-0.32 21 0l10 13v11c0.7 4.8-3.3 7.9-5 11l-1 1v1c-0.7 0-2.2-0.2-2 1v1c-0.7 0-2.2-0.2-2 1l-3 3c-8.3 2.5-16 6.8-25 7-12.8 0-23.9-4.6-32-15l-1-1-3-6v-2l6-4c0.2 1.6 2.7 1 3.8 0.8 0.9-4.5-2.1-8.36 3.2-8.8-2.2 0.08-6.8-1.55-9-4v-4l5-4c1.7 0.1 5.1 0.38 3-2l4-4h2c-2.8 3.09 14.7-0.03 8-3l13-1z"></path><path id="path749" style="fill:#958835" d="m307 76l-11 24c-1.7 4.2-3.9 8.4-7 12-1.5-13.83 10.5-24.08 18-36z"></path><path id="path750" style="fill:#cf8981" d="m314 76c0 0.66 0.2 2.15-1 2 0-0.66-0.2-2.15 1-2z"></path><path id="path751" style="fill:#bfc794" d="m320 76v1h-1l1-1z"></path><path id="path752" style="fill:#757730" d="m376 76c-2.3 2.73-3.4 3.61 2 4-4.5 1.59-10.6 1.97-16 2l14-6z"></path><path id="path753" style="fill:#946b54" d="m400 77l-10 4-6 3h-2v-1c1.3-0.63 6-2.62 4-4 4-2.24 9.2-3.02 14-2z"></path><path id="path755" style="fill:#dbba48" d="m222 79c-1.4 0.46-2.5-0.65-2-2l2 2z"></path><path id="path756" style="fill:#e0c0a0" d="m232 77c6.7 2.97-10.8 6.09-8 3l8-3z"></path><path id="path757" style="fill:#a36e51" d="m236 77c4.4-1.02 1.7 2.79 0 0z"></path><path id="path758" style="fill:#8b782c" d="m215 86l-5 4c0.5-1.35-0.6-2.46-2-2 1.5-3.32 0.1-6.16-0.7-9.75 4.8 6.31 3.7 8.31 9 6l-1.3 1.75z"></path><path id="path759" style="fill:#cac276" d="m319 78c3.6 5.34-0.8 11.01-6 6 1.4-2.69 3.3-4.55 6-6z"></path><path id="path760" style="fill:#897e34" d="m408 90c-2.7 0.22-7.2 4.11-6 6 0.2 2.01-2 4.2-4 4-3.1-7.92-12.5 1.5-19 2 2.4-3.46-6.6-2.58-7 0-1.6-3.57 6.2-3.7 0-4l3-2h2c0.7 0.02 2.2 0.18 2-1l5-1c0.9-0.19 2.9 0.59 3-1 0.9-0.19 2.9 0.59 3-1l4-2c0.7 0.02 2.2 0.18 2-1v-1l17.8-9.75-5.8 11.75z"></path><path id="path761" style="fill:#f6eaa0" d="m192 79l-0.7 3.75 4.5 1.5c-7.4 4.02-20.9 7.84-28.8 2.75h1c7.9 0.48 17.3 0.71 6.3-3.75l7.7-3.25 10-1z"></path><path id="path762" style="fill:#ded443" d="m208 88c1.4-0.46 2.5 0.65 2 2l-12 9v5c-7 10.6-15.4-0.2-24 8 7.8 8.3 20.7 8 32 10h-1c-0.9 0.2-2.9-0.6-3 1h-1c-0.7 0-2.2-0.2-2 1l-17-2c-1.1-1.9-3.8-2.2-6-2l-6-4h-1c0-0.7 0.2-2.2-1-2l-2-4-5-10c-0.5-5.13-0.3-12.5 6-13 7.9 5.09 21.4 1.27 28.8-2.75l-4.5-1.5 0.7-3.75 16 9z"></path><path id="path763" style="fill:#c8ac94" d="m386 79c2 1.38-2.7 3.37-4 4l-20-1c5.4-0.03 11.5-0.41 16-2 2.7-0.23 5.7 0.71 8-1z"></path><path id="path764" style="fill:#efe46a" d="m182 80l-7.7 3.25c11 4.46 1.6 4.23-6.3 3.75 1.2-5.9 8.9-5.68 14-7z"></path><path id="path765" style="fill:#cc6333" d="m311 80v1l-1 1c0-0.66-0.2-2.15 1-2z"></path><path id="path766" style="fill:#dabd7f" d="m312 80l-1 1v-1h1z"></path><path id="path768" style="fill:#c8bb73" d="m345 81c0.9 0.19 2.9-0.59 3 1l-26 20c-2 0.5-1.9-0.8-1-2l2-2 15-11 2-2 5-4z"></path><path id="path769" style="fill:#f0e0e6" d="m390 81c3.3 0.82 10.7-2.18 10.8 2.75-4.1-1.62-5.5-1.75-4.8 4.25v1c-0.7-0.02-2.2-0.18-2 1l-4 2c-0.9 0.19-2.9-0.59-3 1-0.9 0.19-2.9-0.59-3 1l-5 1c-0.7-0.02-2.2-0.18-2 1h-2c-4.1-0.12-8.9 0.22-12 2h-1-2c-1.7 0.1-5.1 0.38-3-2h1 2c2.8-0.02 6.5 0.54 8-2h3l1-1 2-2c0.7 0.02 2.2 0.18 2-1l1-1 1-1h1l1-1 1-1 1-1c0.7 0.02 2.2 0.18 2-1l6-3z"></path><path id="path770" style="fill:#f3e772" d="m235 83c54.1 6.72-7 45.5-16.7 10.25l16.7-10.25z"></path><path id="path771" style="fill:#d49d32" d="m310 84v4c-1.6-0.19-1.6-3.81 0-4z"></path><path id="path772" style="fill:#c884b2" d="m384 84c0.2 1.18-1.3 1.02-2 1v-1h2z"></path><path id="path773" style="fill:#a05831" d="m340 85l-2 2c-0.5-1.35 0.6-2.46 2-2z"></path><path id="path774" style="fill:#a68a94" d="m382 85l-1 1 1-1z"></path><path id="path775" style="fill:#faeeae" d="m248 91c-3.8-5.03-11.7-4.07-15.7 0.25 1 6.31 7.3 4.41 11.7 3.75 0.2 1.18-1.3 1.02-2 1 8.3 5.7-29.3 1.5-11.2 0.75 0.9-1.22-0.7-2.18-1.8-1.75l-4.7-0.75c7.1-2.93 18.1-14.75 27.5-3.5l-3.8 0.25z"></path><path id="path776" style="fill:#79acae" d="m312 86l-1 1 1-1z"></path><path id="path777" style="fill:#fcf1e3" d="m248 91c-1.9 0.98-3 2.07-4 4-4.4 0.66-10.7 2.56-11.7-3.75 4-4.32 11.9-5.28 15.7-0.25z"></path><path id="path778" style="fill:#d49da0" d="m380 87l-1 1 1-1z"></path><path id="path779" style="fill:#db6365" d="m378 88l-1 1 1-1z"></path><path id="path780" style="fill:#c1b666" d="m320 92c-4.1 8.1-9.9 15.5-18 21l17-24c1.6 0.06 0.8 2.05 1 3z"></path><path id="path781" style="fill:#c17279" d="m377 89l-1 1 1-1z"></path><path id="path783" style="fill:#83692f" d="m210 90v4c-5.5 1.63-1.2 4.71 2 5-7.6-1.91-8.6 5.7-14 0l12-9z"></path><path id="path784" style="fill:#867931" d="m358 96h-1l-7 2 0.8-1.75c-5.6-2.52 16.6-10.59 7.2-0.25z"></path><path id="path785" style="fill:#d87082" d="m376 90c0.2 1.18-1.3 1.02-2 1-0.2-1.18 1.3-1.02 2-1z"></path><path id="path787" style="fill:#d1d46f" d="m390 92c-0.1 1.59-2.1 0.81-3 1 0.1-1.59 2.1-0.81 3-1z"></path><path id="path788" style="fill:#d588ae" d="m372 93l-1 1 1-1z"></path><path id="path789" style="fill:#d5d461" d="m387 93c-0.1 1.59-2.1 0.81-3 1 0.1-1.59 2.1-0.81 3-1z"></path><path id="path790" style="fill:#e5d79e" d="m210 94c2.2 2.45 6.8 4.08 9 4-5.3 0.44-2.3 4.3-3.2 8.8-1.1 0.2-3.6 0.8-3.8-0.8v-6-1c-3.2-0.29-7.5-3.37-2-5z"></path><path id="path791" style="fill:#b180a5" d="m368 94c-1.5 2.54-5.2 1.98-8 2 1.8-1.5 5.3-1.95 8-2z"></path><path id="path792" style="fill:#787828" d="m290 95l-4 16h-4c1.2-5 0.4-9.6-2-3v-11c2.8 4.8 6.3 1.33 10-2z"></path><path id="path793" style="fill:#d6d486" d="m379 95c0.2 1.18-1.3 1.02-2 1-0.2-1.18 1.3-1.02 2-1z"></path><path id="path794" style="fill:#d8a5a1" d="m357 96c-2.1 2.38 1.3 2.1 3 2v1h-1c-0.9 0.19-2.9-0.59-3 1l-4 1c2.5-3.17-3.3-1.67-5-2 0.1-1.59 2.1-0.81 3-1l7-2z"></path><path id="path795" style="fill:#d3cc71" d="m375 96l-3 2h-9c3.1-1.78 7.9-2.12 12-2z"></path><path id="path796" style="fill:#474423" d="m398 100c-2.7-0.56-4.8 0.9-7 2-2.1 0-4.3-0.4-6 1-2.5 1.6-10.6 0.6-6 5-1.4-0.5-2.5 0.6-2 2-2.9 1.8 0 5.5 3 4 4.9-0.8 7.3 0.3 7 4 4.4-6.4 13.7-2.9 19-6h2c3.6 1.7 11.4 1.7 15 0h3c0.7 2.8-2 4.8-4 6l-1 1-1 1-6 2c-1.3-0.3-2.7 0.7-3 2l-2 1-1 1c-0.2 1.9-2.1 3.8-4 4-8.4 4 1.2 4.6 6 4 0.6 1.2 2.6 2 4 2 2 3 6.7 1.7 10 2h1c3.9-1 7.6-2.7 12-2 1.2-0.2 1 1.3 1 2-1.4-0.5-2.5 0.6-2 2l-6 2c-1.4-0.5-2.5 0.6-2 2l-4 1c-0.7 0-2.2-0.2-2 1h-1l-6 3-6 2c-0.9 0.2-2.9-0.6-3 1h-2c-1.9 0.5-6.5-1.4-6 2h-2c-0.7 0-2.2-0.2-2 1l-19 1c-2-2.1-5.9-2.1-9-2h-5l-1-1c-0.2-0.9 0.6-2.9-1-3l-1-1-1-1c0-0.7 0.2-2.2-1-2h-1c0-0.7 0.2-2.2-1-2v-1c0-0.7 0.2-2.2-1-2v-1c3.8-2.1 10 4.4 11 0l20.8 1.8c-5.8-1.7-13.2-4.6-20.8-3.8l-11 1v-1l-1-1v-1l-2-2v-1c0.5-1.4-0.6-2.5-2-2v-1l-1-1c-0.2-0.9 0.6-2.9-1-3v-2c0.1-2.3 0.7-6.1-3-5l-1-1-1-1c-0.1-1.6-2.1-0.8-3-1h-1c-0.9 0.2-2.9-0.6-3 1-0.7 0-2.2-0.2-2 1l-6 1c-0.7 0-2.2-0.2-2 1h-2c-0.1-1.6-2.1-0.8-3-1h-3c-0.7 0-2.2-0.2-2 1h-1-1l9-10 2 2 7-1c0.7 0 2.2 0.2 2-1h2c1.6 0.3 3.7-0.1 4-2l9-4c1.3 0.3 2.7-0.7 3-2 0.7 0 2.2 0.2 2-1l4-1c0.9-0.19 2.9 0.6 3-1h1c0.7 0.02 2.2 0.18 2-1h1 9c6.2 0.3-1.6 0.43 0 4-5.4 2.8 5.2 2.2 7 0 6.5-0.5 15.9-9.92 19-2z"></path><path id="path797" style="fill:#ad5d32" d="m323 98l-2 2c-0.5-1.35 0.6-2.46 2-2z"></path><path id="path798" style="fill:#a1b348" d="m362 98c0.2 1.18-1.3 1.02-2 1v-1h2z"></path><path id="path799" style="fill:#3a211a" d="m212 99v1c1.5 9.1-10.6 3-6 10v2c-4.2 5.7 1.5-13.32-8-8v-5c5.4 5.7 6.4-1.91 14 0z"></path><path id="path800" style="fill:#c483a7" d="m345 99l-5 1 5-1z"></path><path id="path801" style="fill:#f2dbdf" d="m347 99c1.7 0.33 7.5-1.17 5 2 0.2 1.2-1.3 1-2 1-1.3-0.3-2.7 0.7-3 2l-9 4c-1.4 0-3.4 0.8-4 2h-2c-0.7 0-2.2-0.2-2 1l-7 1 3-6 3-1c0.7 0 2.2 0.2 2-1l3-2c0.7 0 2.2 0.2 2-1l1-1h3l5-1h2z"></path><path id="path802" style="fill:#bcbe3c" d="m359 99c-0.1 1.6-2.1 0.81-3 1 0.1-1.59 2.1-0.81 3-1z"></path><path id="path803" style="fill:#ecd094" d="m161 100l5 10c-5.3 0.8-5.4-5.5-6-10h1z"></path><path id="path804" style="fill:#86392e" d="m212 106l-6 4c-4.6-7 7.5-0.9 6-10v6z"></path><path id="path805" style="fill:#92813a" d="m321 100c-0.9 1.2-1 2.5 1 2-1.9 1.7-5.2 3.6-7.7 3.8 1.5-2.1 3.8-5.6 6.7-5.8z"></path><path id="path806" style="fill:#ba404b" d="m337 100l-1 1 1-1z"></path><path id="path807" style="fill:#beab61" d="m379 102c-1.8 2.2-12.4 2.8-7 0 0.4-2.58 9.4-3.46 7 0z"></path><path id="path808" style="fill:#8e7a3b" d="m398 100c-3 4.5-10.1 7.6-16 8h-3c-4.6-4.4 3.5-3.4 6-5-0.8 2.7 6.7 1.5 6-1 2.2-1.1 4.3-2.56 7-2z"></path><path id="path809" style="fill:#988e3b" d="m328 102c-0.1-1.9 1.9 0.1 0 0z"></path><path id="path810" style="fill:#925275" d="m336 101c0.2 1.2-1.3 1-2 1-0.2-1.2 1.3-1 2-1z"></path><path id="path811" style="fill:#a4915b" d="m328 102l-2 4-3 6-2-2c1-1.3 5.1-6 1-4 0.1-2.4 3.6-4.2 6-4z"></path><path id="path812" style="fill:#c1c25d" d="m350 102c-0.3 1.3-1.7 2.3-3 2 0.3-1.3 1.7-2.3 3-2z"></path><path id="path813" style="fill:#c9b087" d="m391 102c0.7 2.5-6.8 3.7-6 1 1.7-1.4 3.9-1 6-1z"></path><path id="path814" style="fill:#a6982e" d="m206 112l3 6c-6.5-4.9 2.3 4.1-3 4-11.3-2-24.2-1.7-32-10 8.6-8.2 17 2.6 24-8 9.5-5.32 3.8 13.7 8 8z"></path><path id="path815" style="fill:#c19aa5" d="m331 104c0.2 1.2-1.3 1-2 1-0.2-1.2 1.3-1 2-1z"></path><path id="path817" style="fill:#d4c990" d="m321 110l-9 10h-4l10-11 1-1 3-2c4.1-2 0 2.7-1 4z"></path><path id="path819" style="fill:#b2a92a" d="m243 131c5.9-11-10.5-1-16.7-8.7l-2.3 3.7c-11.6-3.2-4.7-9.4-5.7-14.7 6.2 18.1 39.4 1.3 53.5-4 3.8 16.7-12.3 20.2-28.8 23.7z"></path><path id="path820" style="fill:#ac6569" d="m319 108l-1 1 1-1z"></path><path id="path821" style="fill:#c9cd6e" d="m338 108c-0.3 1.9-2.4 2.3-4 2 0.6-1.2 2.6-2 4-2z"></path><path id="path822" style="fill:#a06697" d="m379 108h3c-0.5 2.4-3.2 2.1-5 2-0.5-1.4 0.6-2.5 2-2z"></path><path id="path823" style="fill:#e6ba9d" d="m168 114c-2.2-0.4-5.1-2.8-2-4l2 4z"></path><path id="path824" style="fill:#c1b640" d="m286 111c-0.4 6.9-9.5 7.1-4 0h4z"></path><path id="path825" style="fill:#d6cd71" d="m332 110c0.2 1.2-1.3 1-2 1-0.2-1.2 1.3-1 2-1z"></path><path id="path826" style="fill:#bf949f" d="m366 110l-3 2c-0.9-0.2-2.9 0.6-3-1l6-1z"></path><path id="path827" style="fill:#eed9d8" d="m374 110v6 1c-0.7 0-2.2-0.2-2 1l-1 1-1 1-1 1-1 1-1 1-1 1-1 1h-1-8c0.2-1.2-1.3-1-2-1 0.5-1.4-0.6-2.5-2-2l-1-1-1-1h-1l-2-2h-1l-2-2c-2.6-0.9 0.5-2.8 2-2l1 1 1 1c-0.2 1.2 1.3 1 2 1-0.2 1.2 1.3 1 2 1 4 1.5 10.6 1.9 12-3 1.5 0 1.5-3 0-3h-1l3-2h8z"></path><path id="path828" style="fill:#84aecb" d="m375 116h-1v-6l1 6z"></path><path id="path829" style="fill:#7f4448" d="m360 111c0.1 1.6 2.1 0.8 3 1h1v3c-1.4 4.9-8 4.5-12 3 0.2-1.2-1.3-1-2-1v-1c1.5-3.4 5.6-5.8 10-5z"></path><path id="path831" style="fill:#df9d88" d="m364 115v-3c1.5 0 1.5 3 0 3z"></path><path id="path832" style="fill:#8f8641" d="m406 112c-5.3 3.1-14.6-0.4-19 6 0.3-3.7-2.1-4.8-7-4 7.5-2.8 17.3-1.8 26-2z"></path><path id="path834" style="fill:#aeb66e" d="m302 113c0.4 2.9-10.6 7.1-7 2l7-2z"></path><path id="path835" style="fill:#eaa1bc" d="m169 116c-1.2 0.2-1-1.3-1-2 1.2-0.2 1 1.3 1 2z"></path><path id="path836" style="fill:#7575bd" d="m347 115l-1-1 1 1z"></path><path id="path840" style="fill:#dba4ab" d="m176 120c-2.1-0.6-6.1-1.3-6-4l6 4z"></path><path id="path841" style="fill:#3c232b" d="m209 118l1 1c8.1 10.4 19.2 15 32 15l-4 4h-2l-10-4-1-1-1-1h-2l-1-1-4-1h-15c-1.5-2.5-5.2-2-8-2-1.7-1.8-5.2-2.2-8-2 0.2-1.2-1.3-1-2-1 0.2-1.2-1.3-1-2-1v-2l17 2c0.1 1.9 2-0.2 2-1h1c0.9-0.2 2.9 0.6 3-1h1c5.3 0.1-3.5-8.9 3-4z"></path><path id="path842" style="fill:#c96e9e" d="m337 116c-0.1 1.6-2.1 0.8-3 1 0.1-1.6 2.1-0.8 3-1z"></path><path id="path843" style="fill:#a466a5" d="m341 117c-0.9-0.2-2.9 0.6-3-1 0.9 0.2 2.9-0.6 3 1z"></path><path id="path844" style="fill:#c38543" d="m346 118c-1.4 0.5-2.5-0.6-2-2l2 2z"></path><path id="path845" style="fill:#917db1" d="m350 116v1c-0.7 0-2.2 0.2-2-1h2z"></path><path id="path846" style="fill:#509d64" d="m375 116l-1 1v-1h1z"></path><path id="path847" style="fill:#d3818d" d="m334 117c0.2 1.2-1.3 1-2 1-0.2-1.2 1.3-1 2-1z"></path><path id="path848" style="fill:#9f7cae" d="m342 118l-1-1 1 1z"></path><path id="path849" style="fill:#a3709f" d="m352 118c-0.7 0-2.2 0.2-2-1 0.7 0 2.2-0.2 2 1z"></path><path id="path850" style="fill:#7eb056" d="m374 117c0.2 1.2-1.3 1-2 1-0.2-1.2 1.3-1 2-1z"></path><path id="path851" style="fill:#ba4f2f" d="m210 119l-1-1 1 1z"></path><path id="path852" style="fill:#a897d1" d="m343 119l-1-1 1 1z"></path><path id="path853" style="fill:#b97959" d="m349 120c-1.4 0.5-2.5-0.6-2-2l2 2z"></path><path id="path854" style="fill:#94ba3d" d="m372 118l-1 1 1-1z"></path><path id="path855" style="fill:#937a4f" d="m410 118c13.1 0.7-30.5 12.7-19 6 2.7 0.6 4.8-0.9 7-2 4.2-0.4 8.9-1.7 12-4z"></path><path id="path858" style="fill:#6ec465" d="m275 119l-1 1 1-1z"></path><path id="path859" style="fill:#da9eae" d="m316 119c0.2 1.2-1.3 1-2 1-0.2-1.2 1.3-1 2-1z"></path><path id="path860" style="fill:#cc89b6" d="m322 120c-0.9-0.2-2.9 0.6-3-1 0.9 0.2 2.9-0.6 3 1z"></path><path id="path861" style="fill:#b24c5e" d="m326 119c0.2 1.2-1.3 1-2 1-0.2-1.2 1.3-1 2-1z"></path><path id="path862" style="fill:#627394" d="m346 124h-1c0-0.7 0.2-2.2-1-2l-1-3c3.7-1.1 3.1 2.7 3 5z"></path><path id="path863" style="fill:#4e8475" d="m371 119l-1 1 1-1z"></path><path id="path865" style="fill:#a5648b" d="m182 122v2l-6-4c2.2-0.2 4.9 0.1 6 2z"></path><path id="path866" style="fill:#ab6a6c" d="m297 120c-0.3 1.3-1.7 2.3-3 2 0.3-1.3 1.7-2.3 3-2z"></path><path id="path867" style="fill:#e8d0cf" d="m306 120c-0.2 1.2 1.3 1 2 1 0.3 7-7.4 5.7-11.7 8.3-1.3 4 9.2 2.7 5.7 6.7h-1c-2.9-4-11.2-3.8-15-2-2.1 0.1-6.6 0.5-5.7-2.7 10.3 2.2 6.4-6.7 13.7-9.3 1.3 0.3 2.7-0.7 3-2h9z"></path><path id="path868" style="fill:#ac7ab3" d="m308 120v1c-0.7 0-2.2 0.2-2-1h2z"></path><path id="path869" style="fill:#753f56" d="m312 120v1l-1 1-3-1v-1h4z"></path><path id="path870" style="fill:#e38b95" d="m313 120l-1 1v-1h1z"></path><path id="path871" style="fill:#d57c94" d="m351 121l-1-1 1 1z"></path><path id="path872" style="fill:#61ab65" d="m370 120l-1 1 1-1z"></path><path id="path873" style="fill:#848c45" d="m274 121c0.2 1.2-1.3 1-2 1-0.2-1.2 1.3-1 2-1z"></path><path id="path874" style="fill:#af7aa0" d="m311 122c-4.5 4.3-5.9 9.7-5 16-1.6-0.1-4.7 0.7-4-2 3.5-4-7-2.7-5.7-6.7 4.3-2.6 12-1.3 11.7-8.3l3 1z"></path><path id="path875" style="fill:#c8ab56" d="m352 122l-1-1 1 1z"></path><path id="path876" style="fill:#4f8e75" d="m369 121l-1 1 1-1z"></path><path id="path877" style="fill:#e9d957" transform="translate(-6.7463 14.842)" d="m98 124c-25.85 1.1 24.8 16.1 13 6 4.7 1.6 6.6 3.4 9 7-5.7 3.1 6.2 5.2 2.8 8.8-11.5-6.3-24.93-10.8-37.8-7.8-13.2 3.3-0.49 14.2 7 16l-22.75-1.7c2.58 5.2 8.68 6.8 12.75 9.7-3.69-2.4-7.75 1.9-2 2 3.2 3.5-9.06-0.9-5.75 5.8 12.66 1.4 27.45 4 28.55 0 6.4-0.3 2.2-2.7-2.8-1.8 4.4-6.5 28.3 4.9 21.3-12.7 3.4 3.2 4.1-4.9 6.7-2.3 1 17.7-18.2 27.9-35 27-10.43-5.2-23.69-2.2-34-13l4.75-4.7c-6.53-4.1-13.17-5.5-18.75-13.3 6.11-3.7 2.72-13 0-18 4.37-4 9.4-7.1 16-7l-10.75 5.8c18.65-0.6 19.9-1.9 36.75-3.8-0.84-3.1-4.66-1.7-7-2l-17-1c11.3-2.3 23.98-1 35 1z"></path><path id="path878" style="fill:#976f33" d="m205 122c-0.1 1.6-2.1 0.8-3 1 0.1-1.6 2.1-0.8 3-1z"></path><path id="path879" style="fill:#8a8528" d="m243 131c-6.8 0.2-13.9-1.3-19-5l2.3-3.7c6.2 7.7 22.6-2.3 16.7 8.7z"></path><path id="path880" style="fill:#ae9646" d="m294 122c-7.3 2.6-3.4 11.5-13.7 9.3-0.9 3.2 3.6 2.8 5.7 2.7-15.3 7.1-5.2-19.4 8-12z"></path><path id="path881" style="fill:#7fcad8" d="m345 124c-1.2 0.2-1-1.3-1-2 1.2-0.2 1 1.3 1 2z"></path><path id="path882" style="fill:#9bc765" d="m368 122l-1 1 1-1z"></path><path id="path884" style="fill:#f9e8b2" transform="translate(-6.7463 14.842)" d="m63 123l17 1c2.34 0.3 6.16-1.1 7 2-16.85 1.9-18.1 3.2-36.75 3.8l10.75-5.8c-0.15-1.2 1.34-1 2-1z"></path><path id="path885" style="fill:#7f7825" d="m201 123c0 0.8-1.9 2.9-2 1-0.2-1.2 1.3-1 2-1z"></path><path id="path886" style="fill:#79953a" d="m272 123c0.2 1.2-1.3 1-2 1-0.2-1.2 1.3-1 2-1z"></path><path id="path887" style="fill:#80cbc3" d="m367 123l-1 1 1-1z"></path><path id="path888" style="fill:#f5e49d" transform="translate(-6.7463 14.842)" d="m111 130c11.8 10.1-38.85-4.9-13-6 4.3 1.3 11 2.7 13 6z"></path><path id="path889" style="fill:#ba923b" d="m356 125c-0.7 0-2.2 0.2-2-1 0.7 0 2.2-0.2 2 1z"></path><path id="path890" style="fill:#83b384" d="m366 124l-1 1 1-1z"></path><path id="path891" style="fill:#93538a" d="m186 126c-0.7 0-2.2 0.2-2-1 0.7 0 2.2-0.2 2 1z"></path><path id="path892" style="fill:#cdb545" d="m364 125c-1.3 1.6-6.7 1.6-8 0h8z"></path><path id="path895" style="fill:#a26d7d" d="m329 126l3 7c-2.7-1.9-3.7-8.5-10-6l7-1z"></path><path id="path896" style="fill:#d4aba9" d="m334 135h-2v-2l-3-7c5.5 1.8 7.2 4.2 5 9z"></path><path id="path897" style="fill:#a38dc5" d="m347 129c-1.6-0.1-0.8-2.1-1-3 1.6 0.1 0.8 2.1 1 3z"></path><path id="path898" style="fill:#76642d" d="m267 127c7.2 1.2-5.6 6 3 5l-4 1-28 5 4-4c9-0.2 16.7-4.5 25-7z"></path><path id="path899" style="fill:#e5d6c9" d="m283 127h3c5.9 0.8-6.6 4.3-3 0z"></path><path id="path900" style="fill:#80d1d9" d="m321 127l-1 1 1-1z"></path><path id="path901" style="fill:#502f48" d="m322 127c6.3-2.5 7.3 4.1 10 6v2l-9.7-4.7 4.7 7.7c-3.9-1.8-7 4.3-9 0v-1-5c1.2 0.2 1-1.3 1-2l1-2 1-1h1z"></path><path id="path904" style="fill:#afa7b3" d="m348 130l-1-1 1 1z"></path><path id="path906" style="fill:#4981a7" d="m319 130c0 0.7 0.2 2.2-1 2 0-0.7-0.2-2.2 1-2z"></path><path id="path907" style="fill:#a46749" d="m332 135h2v1c0.2 1.4 0.1 3.7-2 3l-1-1h-1c0.2-1.3-2.2-1.3-2 0h-1l-4.7-7.7 9.7 4.7z"></path><path id="path909" style="fill:#99d0b3" transform="translate(-6.7463 14.842)" d="m45 131l-1 1 1-1z"></path><path id="path910" style="fill:#a16e35" transform="translate(-6.7463 14.842)" d="m45 149c-1.47 3.8-1.28 5.7-4 8l-1-4v-2-7c3.75-2.8 7.44-5.4 3-10v-1l1-1 1-1c2.72 5 6.11 14.3 0 18z"></path><path id="path911" style="fill:#cd9fd1" d="m222 132l-1-1 1 1z"></path><path id="path912" style="fill:#b1aa52" d="m274 131c3.2-0.7 0.7 2.5 0 0z"></path><path id="path913" style="fill:#a182b4" d="m350 133l-2-2c1.4-0.5 2.5 0.6 2 2z"></path><path id="path914" style="fill:#605bbd" d="m225 133l-1-1 1 1z"></path><path id="path915" style="fill:#cbb770" d="m266 133l-24 7-16 1 10-3h2l28-5z"></path><path id="path916" style="fill:#8c8c2f" d="m242 140l24-7 4-1c0.9 0.2 2.9-0.6 3 1-8.7 3.8-19.5 7.8-31 7z"></path><path id="path917" style="fill:#95a2d3" d="m318 132v5c-1.6-0.4-1.6-4.6 0-5z"></path><path id="path919" style="fill:#9451a7" d="m226 134l-1-1 1 1z"></path><path id="path920" style="fill:#c0b04a" d="m301 136c-4.7-1.8-9.7-2.4-15-2 3.8-1.8 12.1-2 15 2z"></path><path id="path922" sodipodi:nodetypes="ccccc" style="stroke:#67342f;fill-opacity:.99607;fill:#936134" transform="translate(-6.9416 16.404)" d="m43.664 131.77l-1.664 3.23-0.273-1.08 1.937-2.15z"></path><path id="path923" sodipodi:nodetypes="cccccccccccccccc" style="fill:#67342f" transform="translate(-6.7463 14.842)" d="m40 144h-1c0.02-0.7 0.18-2.2-1-2h-1l-1-1c-0.73-1.6-5.27-1.6-6 0l-1 1c-6.28 2.7-16.42-5.2-5-4-0.48 4.3 9.84 1.5 6-2h1 4c0.46 2.4 3.17 2.1 5 2 1.18 0.2 1.02-1.3 1-2l1.859-1.7 1-1c4.44 4.6-0.109 7.9-3.859 10.7z"></path><path id="path924" style="fill:#8f7b3c" d="m236 138l-10 3 16-1-28 7-10-2c-1.1-4 1-6.1 5-5l8.8 0.3c-24.6 5 16.5 5.3 2.2-0.3l2-2c1.7 0.1 8.1 0.5 5-2l-1-1v-1l10 4z"></path><path id="path925" style="fill:#ac802b" d="m320 134c4.4-0.5-0.5 4.4 0 0z"></path><path id="path926" style="fill:#96bad9" d="m352 136c-1.4 0.5-2.5-0.6-2-2l2 2z"></path><path id="path928" style="fill:#acd5ae" transform="translate(-6.7463 14.842)" d="m42 135l-1 1 1-1z"></path><path id="path929" style="fill:#a0b4db" d="m227 136l-1-1 1 1z"></path><path id="path930" style="fill:#887840" d="m394 135c3 2.8 5.8 6.8 12 5l14.8 0.3c-9.7 4.7-22.6 3.3-32.5 2l3.7-0.3c6.6 1.3 1.7-3.7 2-7z"></path><path id="path932" style="fill:#ab8a45" transform="translate(-6.7463 14.842)" d="m30 136c3.84 3.5-6.48 6.3-6 2 0.66 0 2.15 0.2 2-1l4-1z"></path><path id="path933" style="fill:#c8a452" transform="translate(-6.7463 14.842)" d="m40 137v1c-1.83 0.1-4.54 0.4-5-2l5 1z"></path><path id="path934" style="stroke:#67342f;fill:#72baa0" transform="translate(-6.7463 14.842)" d="m41 136c0.02 0.7 0.18 2.2-1 2v-1l1-1z"></path><path id="path935" style="fill:#d5bc3d" transform="translate(-6.7463 14.842)" d="m120 137c5.1 4.1 8.4 10.3 10 16-1.2-0.7-2-3.2-2 0-2.6-2.6-3.3 5.5-6.7 2.3 7 17.6-16.9 6.2-21.3 12.7l-18-6c-4.07-2.9-10.17-4.5-12.75-9.7l22.75 1.7h1c1.42 6 22.1 7 8 2-15.03-12.8 33.4-1.3 7-13-4.6 2.6-9.1-6.2-13-2-1.7-1.4-3.91-1-6-1l-4-2c12.87-3 26.3 1.5 37.8 7.8 3.4-3.6-8.5-5.7-2.8-8.8z"></path><path id="path936" style="fill:#daaca4" d="m332 139c2.1 0.7 2.2-1.6 2-3 3 1-0.3 6.6-2 3z"></path><path id="path937" style="fill:#c5b978" d="m364 138v2c-1 4.4-7.2-2.1-11 0v-1l11-1z"></path><path id="path939" style="stroke:#67342f;fill:#67342f" transform="translate(-6.7463 14.842)" d="m26 137c0.15 1.2-1.34 1-2 1-11.42-1.2-1.28 6.7 5 4-10.42 8.1-19.607-8.9-3-5z"></path><path id="path940" style="fill:#898b36" d="m292 144h-1c-3.7-16.3 14.6 6.5 1 0z"></path><path id="path941" style="fill:#b793a5" d="m330 138h-2c-0.2-1.3 2.2-1.3 2 0z"></path><path id="path942" style="fill:#608099" d="m353 138l-1-1 1 1z"></path><path id="path943" style="fill:#9c792f" transform="translate(-6.7463 14.842)" d="m85 138l4 2v1c-6.01 0-2.28 0.9 1 2-12.66 5.3 18.7 8.9 5-2 3.9-4.2 8.4 4.6 13 2 26.4 11.7-22.03 0.2-7 13l-8-2h-1c-7.49-1.8-20.2-12.7-7-16z"></path><path id="path944" style="fill:#d1c572" d="m222 138l-2 2c14.3 5.6-26.8 5.3-2.2 0.3l-8.8-0.3c3.4-1.9 8.5-2.1 13-2z"></path><path id="path945" style="fill:#b78bc1" d="m327 138h1c-3.9 0.3-9.7 8.8-10 0 2 4.3 5.1-1.8 9 0z"></path><path id="path946" style="fill:#a2acb3" d="m332 139l-1-1 1 1z"></path><path id="path947" style="fill:#868249" d="m364 140v-2c7.6-0.8 15 2.1 20.8 3.8l-20.8-1.8z"></path><path id="path951" style="stroke:#67342f;fill:#67342f" transform="translate(-6.7463 14.842)" d="m36 141h-6c0.73-1.6 5.27-1.6 6 0z"></path><path id="path952" style="fill:#57301f" transform="translate(-6.7463 14.842)" d="m95 141c13.7 10.9-17.66 7.3-5 2 0.02-0.7 0.18-2.2-1-2v-1c2.09 0 4.3-0.4 6 1z"></path><path id="path956" style="fill:#ed8475" transform="translate(-6.7463 14.842)" d="m30 141l-1 1 1-1z"></path><path id="path957" style="fill:#d685cc" transform="translate(-6.7463 14.842)" d="m37 142l-1-1 1 1z"></path><path id="path958" style="fill:#faf0aa" transform="translate(-6.7463 14.842)" d="m58 141c5.1 0.7 15.17-2.6 13.75 4.8l-13.75-4.8z"></path><path id="path959" style="stroke:#57301f;fill:#57301f" transform="translate(-6.7463 14.842)" d="m89 141c1.18-0.2 1.02 1.3 1 2-3.28-1.1-7.01-2-1-2z"></path><path id="path962" style="fill:#6792b2" d="m354 143c-1.2 0.2-1-1.3-1-2 1.2-0.2 1 1.3 1 2z"></path><path id="path963" style="fill:#9f8da0" transform="translate(-6.7463 14.842)" d="m39 144c-1.18 0.2-1.02-1.3-1-2 1.18-0.2 1.02 1.3 1 2z"></path><path id="path971" style="fill:#9787b4" transform="translate(-6.7463 14.842)" d="m40 144v7l-1-7h1z"></path><path id="path975" style="fill:#74acac" d="m355 146c-1.2 0.2-1-1.3-1-2 1.2-0.2 1 1.3 1 2z"></path><path id="path984" style="fill:#53719b" d="m357 148c-1.2 0.2-1-1.3-1-2 1.2-0.2 1 1.3 1 2z"></path><path id="path988" style="fill:#c7a13b" transform="translate(-6.7463 14.842)" d="m45 149c5.58 7.8 12.22 9.2 18.75 13.3l-4.75 4.7c10.31 10.8 23.57 7.8 34 13l-28-4-20.75-18.7c2.13 7.2 8.5 13 13.75 16.7l7 10 1 2c-3.41-1.9-7.5-3.9-10-7l-1-1-7-7c0.33-1.3-0.71-2.7-2-3l-2-4-1-1v-1c0.02-0.7 0.18-2.2-1-2l-1-3c2.72-2.3 2.53-4.2 4-8z"></path><path id="path989" style="fill:#9880c3" d="m359 150l-1-1 1 1z"></path><path id="path991" style="fill:#95772e" transform="translate(-6.7463 14.842)" d="m130 153v1 1 1 7c0 2.1 0.4 4.3-1 6-5.9 11.4-17.5 19.1-31 19 0.91-8.3-9.02-1.6-14-6l-17-4-2-2 28 4c16.8 0.9 36-9.3 35-27 0-3.2 0.8-0.7 2 0z"></path><path id="path996" style="fill:#7c7ecd" transform="translate(-6.7463 14.842)" d="m41 157l-1-4 1 4z"></path><path id="path999" style="fill:#959ed5" d="m361 154l-1-1 1 1z"></path><path id="path1000" style="fill:#f0dbaa" transform="translate(-6.7463 14.842)" d="m101 156c14.1 5-6.58 4-8-2l8 2z"></path><path id="path1001" style="fill:#fce494" transform="translate(-6.7463 14.842)" d="m130 155v-1c1.1-0.4 1.1 1.4 0 1z"></path><path id="path1003" style="fill:#6d5084" d="m375 156h-4l-5-1v-1c3.1-0.1 7-0.1 9 2z"></path><path id="path1007" style="fill:#cd8ecd" d="m371 156l-5-1 5 1z"></path><path id="path1008" style="fill:#f3bf73" transform="translate(-6.7463 14.842)" d="m132 163h-2v-7l2 7z"></path><path id="path1012" style="fill:#9f7a33" transform="translate(-6.7463 14.842)" d="m65 176l-4-1c-0.06-1.6-2.05-0.8-3-1-5.25-3.7-11.62-9.5-13.75-16.7l20.75 18.7z"></path><path id="path1017" style="fill:#bdc299" d="m362 158c0.2 1.2-1.3 1-2 1-0.2-1.2 1.3-1 2-1z"></path><path id="path1018" style="fill:#6d4c3d" d="m364 160c-0.5 1.4 0.6 2.5 2 2-0.5 1.4 0.6 2.5 2 2v2c-7.6-3.6-30.5-7.1-19 2-0.9 0.2-2.9-0.6-3 1-1.4 0.5-2.5-0.6-2-2 3.2 0.7 0.7-2.5 0 0-4.3-0.8-7.4-4.1-10-7h2c0.7 1.6 5.3 1.6 6 0h1 9 5c0.7 0 2.2 0.2 2-1h1c0.7 0 2.2 0.2 2-1l2 2z"></path><path id="path1021" style="fill:#c8b854" d="m352 160h-9c1.7-1.7 7.3-1.7 9 0z"></path><path id="path1022" style="fill:#d9d185" d="m359 159c0.2 1.2-1.3 1-2 1-0.2-1.2 1.3-1 2-1z"></path><path id="path1023" style="fill:#9497ab" transform="translate(-6.7463 14.842)" d="m43 162c-1.18 0.2-1.02-1.3-1-2 1.18-0.2 1.02 1.3 1 2z"></path><path id="path1029" style="fill:#dcbc72" d="m366 162c-1.4 0.5-2.5-0.6-2-2l2 2z"></path><path id="path1030" style="fill:#f7eaa1" transform="translate(-6.7463 14.842)" d="m82 162l18 6c5-0.9 9.2 1.5 2.8 1.8-1.1 4-15.89 1.4-28.55 0-3.31-6.7 8.95-2.3 5.75-5.8-5.75-0.1-1.69-4.4 2-2z"></path><path id="path1035" style="fill:#312f21" d="m368 166h1c0 0.7-0.2 2.2 1 2 0.7 2.7-2.4 1.9-4 2-4.3-2.3-12.5 2.9-17-2-11.5-9.1 11.4-5.6 19-2z"></path><path id="path1036" style="fill:#e7c46e" d="m368 164c-1.4 0.5-2.5-0.6-2-2l2 2z"></path><path id="path1037" style="fill:#9bc4c7" transform="translate(-6.7463 14.842)" d="m44 164l-1-1 1 1z"></path><path id="path1038" style="stroke:#040202;fill:#040202" transform="translate(-6.7463 14.842)" d="m132 163v1c6.8 7.7 5.1 3.1 3.8 16.8-6.4 0.5-9.9 4.3-13.8 10.2l-6 1h-4c7.3-6.1 20.3-13.9 17-23 1.4-1.7 1-3.9 1-6h2z"></path><path id="path1046" style="fill:#e4b667" d="m370 166h-1-1v-2l2 2z"></path><path id="path1054" style="fill:#689b9a" d="m344 167c0.7-2.5 3.2 0.7 0 0z"></path><path id="path1055" style="fill:#b34b1d" d="m370 166v2c-1.2 0.2-1-1.3-1-2h1z"></path><path id="path1057" style="fill:#c891b9" transform="translate(-6.7463 14.842)" d="m48 171c-1.29-0.3-2.33-1.7-2-3 1.29 0.3 2.33 1.7 2 3z"></path><path id="path1061" style="fill:#928844" d="m349 168c4.5 4.9 12.7-0.3 17 2-3.9 1.9 7.8 5.1 11 4 0.3 1.3 1.7 2.3 3 2l2 2c3 1 6.1 3.4 8 6-0.8 2.9 3 7.3 7 7v1 2c-6.8-3.1 0.4 2.2-3 2l-2.2-1.7-8.8-5.3c-17.4-11.1 21.4 9.9 0.8-6.7-2.9-2-8.7-6.2-11.8-2.3l1 1c3.1 8.5-10.9-5.7-14.7-4.7 6 8.2 9.6 12 19.7 17.7-6.3-0.9-14.3-3.8-18-8 0.5-2.3-2.1-3.5-4-3-2.4-6.3-4.3-11.4-10-14 0.1-1.6 2.1-0.8 3-1z"></path><path id="path1062" style="fill:#d39e8f" d="m377 174c-3.2 1.1-14.9-2.1-11-4 1.6-0.1 4.7 0.7 4-2 1.6 2.5 4.5 5 7 6z"></path><path id="path1063" style="fill:#040202" transform="translate(-6.7463 14.842)" d="m112 192l-20 1-4-1h-4l-4-1c0.15-1.2-1.34-1-2-1-1.07-1.9-3.84-2.2-6-2h-2c-0.26-1.3-1.66-2.3-3-2h-1l-1-2 12 3 8 1c2.97 2.5 9.59 1.3 13 0 13.5 0.1 25.1-7.6 31-19 3.3 9.1-9.7 16.9-17 23z"></path><path id="path1072" style="fill:#e5d253" transform="translate(-6.7463 14.842)" d="m61 175c-0.65 7 15.51 7.3 6 3l17 4c0.03 6.7-2.35 2.8-7 5l-12-3-7-10c0.95 0.2 2.94-0.6 3 1z"></path><path id="path1077" style="fill:#dcc073" d="m380 176c-1.3 0.3-2.7-0.7-3-2 1.3-0.3 2.7 0.7 3 2z"></path><path id="path1078" style="fill:#f5e7b8" transform="translate(-6.7463 14.842)" d="m65 176l2 2c9.51 4.3-6.65 4-6-3l4 1z"></path><path id="path1081" style="fill:#454125" d="m373 181l-1-1c3.1-3.9 8.9 0.3 11.8 2.3 20.6 16.6-18.2-4.4-0.8 6.7l8.8 5.3 2.2 1.7c3.4 0.2-3.8-5.1 3-2h1c0.5 2.8-0.1 7.1-4 6-1.3-2.5-3.9-4.8-7-4h-1c-1.5-1.6-4.5-2.1-7-2h-1c-10.1-5.7-13.7-9.5-19.7-17.7 3.8-1 17.8 13.2 14.7 4.7z"></path><path id="path1082" style="fill:#ddb57c" d="m382 178l-2-2c1.4-0.5 2.5 0.6 2 2z"></path><path id="path1085" style="fill:#bf8ebd" transform="translate(-6.7463 14.842)" d="m56 179l-1-1 1 1z"></path><path id="path1092" style="fill:#be9bce" d="m350 180l1 2c-1.3 0.3-2.7-0.7-3-2h2z"></path><path id="path1093" style="fill:#79547c" d="m352 182h-1l-1-2c1.4-0.5 2.5 0.6 2 2z"></path><path id="path1094" style="fill:#3b6799" d="m373 181l-1-1 1 1z"></path><path id="path1095" style="fill:#c7bc37" transform="translate(-6.7463 14.842)" d="m98 188h-13l-8-1c4.65-2.2 7.03 1.7 7-5 4.98 4.4 14.91-2.3 14 6z"></path><path id="path1097" style="fill:#c5a0ce" d="m354 183c-0.7 0-2.2 0.2-2-1 0.7 0 2.2-0.2 2 1z"></path><path id="path1098" style="fill:#b388b2" d="m356 183c1.9-0.5 4.5 0.7 4 3l-6-3h2z"></path><path id="path1100" style="fill:#d0ad8b" d="m397 191c-4 0.3-7.8-4.1-7-7 2.6 1.3 5.5 4.2 7 7z"></path><path id="path1101" style="fill:#040202" transform="translate(-6.7463 14.842)" d="m70 188c-1.34 0.3-2.74-0.7-3-2 1.34-0.3 2.74 0.7 3 2z"></path><path id="path1103" style="fill:#8c7a2a" transform="translate(-6.7463 14.842)" d="m98 188c-3.41 1.3-10.03 2.5-13 0h13z"></path><path id="path1104" style="fill:#040202" transform="translate(-6.7463 14.842)" d="m78 190c-1.94-0.5-6.5 1.4-6-2 2.16-0.2 4.93 0.1 6 2z"></path><path id="path1105" style="fill:#040202" transform="translate(-6.7463 14.842)" d="m80 191c-0.66 0-2.15 0.2-2-1 0.66 0 2.15-0.2 2 1z"></path><path id="path1107" style="fill:#d389bb" transform="translate(-6.7463 14.842)" d="m84 192l-4-1 4 1z"></path><path id="path1108" style="fill:#cf94c4" transform="translate(-6.7463 14.842)" d="m122 191l-6 1 6-1z"></path><path id="path1109" style="fill:#b772b8" transform="translate(-6.7463 14.842)" d="m92 193l-4-1 4 1z"></path><path id="path1110" style="fill:#040202" transform="translate(-6.7463 14.842)" d="m112 192h4c-6.3 3.1-17.27 2.6-24 1l20-1z"></path><path id="path1111" style="fill:#ddb48d" d="m398 194h-1v-2c1.2-0.2 1 1.3 1 2z"></path><path id="path1113" style="fill:#9c83b1" d="m386 196c-2.5 0.1-5.5-0.4-7-2 2.5-0.1 5.5 0.4 7 2z"></path><path id="path1114" style="fill:#b48067" d="m396 202c0.2-1.2-1.3-1-2-1v-1c3.9 1.1 4.5-3.2 4-6 6.5 2.7 5.4 14.8-2 8z"></path><path id="path1118" style="fill:#8e769f" d="m394 200l-7-4c3.1-0.8 5.7 1.5 7 4z"></path><path id="path1127" style="fill:#aeb1be" d="m396 202c-0.7 0-2.2 0.2-2-1 0.7 0 2.2-0.2 2 1z"></path><metadata></metadata></svg> 