<?xml version="1.0" encoding="UTF-8" standalone="no"?> <!-- Created with Inkscape (http://www.inkscape.org/) --> <svg xmlns:inkscape="http://www.inkscape.org/namespaces/inkscape" xmlns:rdf="http://www.w3.org/1999/02/22-rdf-syntax-ns#" xmlns="http://www.w3.org/2000/svg" xmlns:sodipodi="http://sodipodi.sourceforge.net/DTD/sodipodi-0.dtd" xmlns:cc="http://creativecommons.org/ns#" xmlns:xlink="http://www.w3.org/1999/xlink" xmlns:dc="http://purl.org/dc/elements/1.1/" xmlns:svg="http://www.w3.org/2000/svg" xmlns:ns1="http://sozi.baierouge.fr" id="svg5039" sodipodi:docname="CarabinerSide.svg" viewBox="0 0 310 142.54" sodipodi:version="0.32" inkscape:output_extension="org.inkscape.output.svg.inkscape" inkscape:version="0.45+0.46pre0+devel"><defs id="defs5041"><linearGradient id="linearGradient3289" y2="1339.6" gradientUnits="userSpaceOnUse" x2="1412" gradientTransform="matrix(.24206 0 0 .24206 -20.728 -6.2391)" y1="1170.4" x1="1412" inkscape:collect="always"><stop id="stop3267" style="stop-color:#aa0000" offset="0"></stop><stop id="stop3273" style="stop-color:#d80000" offset="0.6"></stop><stop id="stop3269" style="stop-color:#aa0000" offset="1"></stop></linearGradient><linearGradient id="linearGradient3195" y2="1364.2" spreadMethod="reflect" gradientUnits="userSpaceOnUse" x2="1221.4" gradientTransform="matrix(.24206 0 0 .24206 -20.728 -6.2391)" y1="1158.2" x1="1221.4" inkscape:collect="always"><stop id="stop3191" style="stop-color:#3b2c42" offset="0"></stop><stop id="stop3211" style="stop-color:#654b6f" offset="0.4"></stop><stop id="stop3219" style="stop-color:#775884" offset="0.6"></stop><stop id="stop3221" style="stop-color:#654b6f" offset="0.7"></stop><stop id="stop3193" style="stop-color:#3b2c42" offset="1"></stop></linearGradient><filter id="filter3277" height="1.2078" width="1.1217" y="-.10391" x="-.060831" inkscape:collect="always"><feGaussianBlur id="feGaussianBlur3279" stdDeviation="30.74074" inkscape:collect="always"></feGaussianBlur></filter><pattern id="pattern4957" xlink:href="#pattern4953" patternTransform="matrix(2.1061 0 0 2.1061 478.51 -419.72)" inkscape:collect="always"></pattern><pattern id="pattern4971" xlink:href="#pattern4957" patternTransform="matrix(1.9919 0 0 2.0207 -1055.3 -344.82)" inkscape:collect="always"></pattern><pattern id="Wavy" height="5.1805778" width="30.066020" patternUnits="userSpaceOnUse" inkscape:stockid="Wavy" inkscape:collect="always"><path id="path4737" style="fill:black" d="m7.597 0.061c-2.518-0.248-4.941 0.241-7.607 1.727v1.273c2.783-1.63 5.183-2.009 7.482-1.781 2.298 0.228 4.497 1.081 6.781 1.938 4.567 1.713 9.551 3.458 15.813-0.157l-0.004-1.273c-6.44 3.709-10.816 1.982-15.371 0.273-2.278-0.854-4.576-1.75-7.094-2z"></path></pattern><pattern id="pattern4953" xlink:href="#Wavy" patternTransform="matrix(2.1061 0 0 2.1061 478.51 -419.72)" inkscape:collect="always"></pattern><pattern id="pattern4969" xlink:href="#pattern4953" patternTransform="matrix(1.9919 0 0 2.0207 -1055.3 -344.82)" inkscape:collect="always"></pattern><filter id="filter4998" height="1.262" width="1.1008" y="-0.131" x="-.050389" inkscape:collect="always"><feGaussianBlur id="feGaussianBlur5000" stdDeviation="25.27005" inkscape:collect="always"></feGaussianBlur></filter></defs><g id="layer1" inkscape:label="Ebene 1" inkscape:groupmode="layer" transform="translate(-136.48 -181.43)"><path id="path3120" sodipodi:nodetypes="ccccc" style="fill:#000000" d="m374.82 310.95l-34.79 0.97-2.15-15.75 29.52-4.4 7.42 19.18z"></path><path id="path3116" sodipodi:nodetypes="ccccccccc" style="stroke:#000000;stroke-width:.58094;fill:#1a1a1a" d="m305.45 271.46h-62.69l-2.63 2.93c-0.88 13.15-0.42 33.18 0.29 46.33l2.34 2.95h63.67l1.79-3.18c-1.1-14.54-1.17-31.77-0.43-45.85l-2.34-3.18z"></path><path id="path3114" sodipodi:nodetypes="ccccccccc" style="stroke:#000000;stroke-width:.58094;fill:#1a1a1a" d="m243.4 271.46h62.69l2.63 2.93c0.87 13.15 0.42 33.18-0.3 46.33l-2.33 2.95h-63.67l-1.79-3.18c1.1-14.54 1.17-31.77 0.43-45.85l2.34-3.18z"></path><path id="path2917" sodipodi:nodetypes="csssssccssssssssssssccssc" style="stroke:#000000;stroke-width:.58094;fill:#b3b3b3" d="m187.55 282.64c-14.52-6.12-17.97-15.08-16.52-34.93 1.38-19.16 15.87-31.33 30.87-34.59 13.44-2.93 32.41-0.19 48.7 3.6 16.47 3.83 133.69 29.64 146.04 33.66s16.61 8.13 16.84 15.06c0.23 6.8-9.19 10.25-25.4 10.13-4.08 7.09-29.22 6.62-40.63 7.06-1.53 3.7-1.59 21.89-0.84 24.86 0.27 1.09 3.79 3.55 5.67 4.03 6.39 1.6 18.9-0.54 24.38-0.65 7.69-0.16 13.27 0.69 18.15-0.12 12.03-2.01 33.41-2.41 45.31-23.48 8.71-15.41 6.57-30.06 2.69-40.06-4.58-11.8-16.46-19.05-32.76-23.57-16.29-4.53-130.85-32.29-157.48-38.42-27.34-6.29-64.64-3.9-78.73 5.47-11.35 7.56-35.15 19.68-36.96 59.87-1.31 29.19 9.21 49.53 24.27 58.53 14.38 8.6 37.33 10.9 45.95 11.15 9.47 0.27 31.95 1.24 41.21-9.1 0.37-9-3.47-24.21-4.65-26.73-5.19 0.54-26.57 2.14-30.83 0.94-4.45-1.25-5.44-2.9-11.62-2.7-6.69 0.2-9.15 0.34-13.66-0.01z"></path><path id="path2929" sodipodi:nodetypes="ccsc" style="stroke:#000000;stroke-width:.58094;fill:none" d="m388.56 275.64c9.91 0.23 16.55 17.92 2.16 23.66 0 0-26.74 1.94-37.57 1.51-1.87-0.07-5.11-0.49-4.62-14.78"></path><path id="path2919" sodipodi:nodetypes="ccssscccscssssc" style="stroke:#000000;stroke-width:.58094;fill:url(#linearGradient3289)" d="m374.03 277.36c4.32 2.5 4.92 10.94 4.63 20.04-3.49 0.31-22.89 0.72-32.47 1.05-4.46 0.15-5.64 4.22-5.66 7.12-0.01 1.27 1.46 6.49 5.55 6.39 6.76-0.16 23.66-0.44 29.13-0.62 0.11 1.47-0.51 3.65-1.85 3.71-46.12 1.92-90.77 1.92-136.13 2.66-0.69-2.84 8.46-2.21 14.9-2.67 5.98-0.43 0.48-8.64 1.96-13.06-4.42-0.27-40.96 1.57-42.4-0.89-2.4-4.12-1.84-7.63-2.05-12.51-0.15-3.62-0.7-8.22 3.26-9.4 3.97-1.19 7.35-0.87 9.91-0.84 2.55 0.02 151.22-0.98 151.22-0.98z"></path><path id="path2931" sodipodi:nodetypes="cscc" style="stroke:#000000;stroke-width:.58094;fill:none" d="m196.02 282.69c-7.69 0.53-7.72 3.27-7.36 7.58 0.52 6.01 6.73 13.88 10.02 14.93 5.76 0.47 37.1 0.44 40.37-3.06"></path><path id="path2921" sodipodi:nodetypes="ccccccccc" style="stroke:#000000;stroke-width:.58094;fill:url(#linearGradient3195)" d="m243.4 271.46h62.69l2.63 2.93c0.87 13.15 0.42 33.18-0.3 46.33l-2.33 2.95h-63.67l-1.79-3.18c1.1-14.54 1.17-31.77 0.43-45.85l2.34-3.18z"></path><path id="path2925" sodipodi:rx="14.297812" sodipodi:ry="14.297812" style="stroke:#000000;stroke-width:1.6055;fill:#cccccc" sodipodi:type="arc" d="m784.79 685.75a14.298 14.298 0 1 1 -28.59 0 14.298 14.298 0 1 1 28.59 0z" transform="matrix(.45631 0 0 .28691 12.945 82.882)" sodipodi:cy="685.75244" sodipodi:cx="770.49316"></path><path id="path3112" sodipodi:rx="14.297812" sodipodi:ry="14.297812" style="stroke:#000000;stroke-width:1.6055;fill:#cccccc" sodipodi:type="arc" d="m784.79 685.75a14.298 14.298 0 1 1 -28.59 0 14.298 14.298 0 1 1 28.59 0z" transform="matrix(.45631 0 0 .28691 -127.32 82.882)" sodipodi:cy="685.75244" sodipodi:cx="770.49316"></path><path id="path3187" sodipodi:rx="3.0596652" sodipodi:ry="71.58342" style="stroke-linejoin:round;stroke:#000000;stroke-linecap:round;stroke-width:2.5977;fill:none" sodipodi:type="arc" d="m-84.749 672.32a3.0597 71.583 0 1 1 0.312 141.38" sodipodi:open="true" transform="matrix(.52558 0 0 .27889 374.22 89.884)" sodipodi:cy="742.46143" sodipodi:cx="-84.138161" sodipodi:end="7.9517891" sodipodi:start="4.5113021"></path><path id="path4979" sodipodi:nodetypes="cssccssc" style="filter:url(#filter3277);stroke:#ffffff;stroke-width:21.063;fill:none" transform="matrix(.23026 0 0 .24206 -5.6477 -6.2392)" d="m807.63 1271c-78.94-50.9-133.91-149.4-116.3-205.3 52.14-165.55 141.69-214.5 215.58-224.4 11.74-1.57 9.82-11.06 42.16-7.72m847.83 202.82c27.3 12.1 47.4 24.2 56.3 36 26.9 35.5 14.1 95.8-14.4 136.2-13 18.5-29.3 32.8-46.6 38.8"></path><path id="path4984" sodipodi:nodetypes="cscccccc" style="filter:url(#filter3277);stroke:#ffffff;stroke-linecap:round;stroke-width:39.548;fill:none" transform="matrix(.24206 0 0 .24206 -20.728 -6.2392)" d="m993.73 860.29c117.57 12.14 281.87 43.82 354.77 62.7 75.5 19.56 330.5 85.81 448.4 113.41m-4.7 211c-19.4 6.7-38.4 39.8-71.5 40l-174 1m-657.58 13.8c-28.55-3.6-56.24-15-81.49-31.2"></path><g id="g4963" transform="matrix(.25594 0 0 .25229 365.19 -20.84)"><path id="path4965" sodipodi:nodetypes="ccccc" style="opacity:.5;fill:url(#pattern4969)" d="m-429.29 1158h49.7c6.68 69.8 5.05 138.3 0 206.2h-49.7c-4.31-68.8-4.53-137.5 0-206.2z"></path><path id="path4967" sodipodi:nodetypes="ccccc" style="opacity:.5;fill:url(#pattern4971)" d="m-334.79 1158h49.7c6.68 69.8 5.05 138.3 0 206.2h-49.7c-4.31-68.8-4.53-137.5 0-206.2z"></path></g><path id="path4988" style="filter:url(#filter4998);stroke:#666666;stroke-width:12.036;fill:none" sodipodi:nodetypes="cssccssc" transform="matrix(.25386 0 0 .24206 -32.825 -6.2392)" d="m771.62 1282.6c-78.94-50.9-91.52-184.6-83.06-243.1 13.69-94.69 100.26-193.26 144.24-212.22 10.87-4.69 62.05-23.19 99.93-32.92m889.07 210.04c27.3 12.1 36.3 56.2 45.2 68 27 35.5 0.3 95.8-28.2 136.2-13 18.5-29.3 32.8-46.6 38.8"></path></g><metadata></metadata></svg> 