<?xml version="1.0" encoding="UTF-8" standalone="no"?> <!-- Created with Inkscape (http://www.inkscape.org/) --> <svg xmlns:inkscape="http://www.inkscape.org/namespaces/inkscape" xmlns:rdf="http://www.w3.org/1999/02/22-rdf-syntax-ns#" xmlns="http://www.w3.org/2000/svg" xmlns:cc="http://creativecommons.org/ns#" xmlns:dc="http://purl.org/dc/elements/1.1/" xmlns:sodipodi="http://sodipodi.sourceforge.net/DTD/sodipodi-0.dtd" xmlns:svg="http://www.w3.org/2000/svg" xmlns:ns1="http://sozi.baierouge.fr" xmlns:xlink="http://www.w3.org/1999/xlink" id="svg2" sodipodi:docname="rwwgub_Neon_Numerals-1_tubes_only.svg" viewBox="0 0 160.58 180.18" sodipodi:version="0.32" inkscape:output_extension="org.inkscape.output.svg.inkscape" inkscape:version="0.46dev+devel" sodipodi:docbase="C:\DOCUME~1\RANDAL~1.WIL\Desktop\ACTIVE~1\neon\final"><defs id="defs4"><filter id="filter6263" height="1.1853" width="1.2079" y="-.092633" x="-.10394" inkscape:collect="always"><feGaussianBlur id="feGaussianBlur6265" stdDeviation="6.9543975" inkscape:collect="always"></feGaussianBlur></filter></defs><g id="layer1" inkscape:label="Layer 1" inkscape:groupmode="layer" transform="translate(-51.425 -44.233)"><g id="g2349" transform="translate(57.36 7.3306)"><path id="path5064" sodipodi:nodetypes="cssssssssssssssssssssssssssssssssssscccssssssssssssssssscsssssssssssssssc" style="filter:url(#filter6263);stroke:#fff400;stroke-width:1.98;fill:#fff400" d="m68.465 216.05c-12.55-0.43-21.614-1.25-31.919-2.88-13.511-2.13-24.303-4.9-30.419-7.81-5.6554-2.7-9.3104-6.72-10.682-11.78-0.5499-2.02-0.5123-5.81 0.076-7.72 1.821-5.9 6.6657-10.22 13.011-11.6 2.52-0.55 5.769-0.45 12.202 0.4 6.332 0.84 7.742 0.84 9.294 0.04 2.725-1.42 4.554-5.44 5.425-11.93 0.686-5.12 1.093-23.35 1.089-48.83-0.002-14.053-0.051-17.175-0.286-18.302-0.509-2.439-1.282-3.241-3.65-3.787-2.247-0.519-5.32-0.587-9.237-0.206-4.966 0.483-8.515 0.457-10.723-0.079-6.7843-1.647-11.019-6.499-11.537-13.221-0.38765-5.029 1.7608-9.806 6.4105-14.254 4.6105-4.41 9.8825-7.337 20.926-11.616 23.615-9.152 48.187-13.939 74.624-14.538 14.59-0.33 22.47 1.142 27.67 5.171 4.37 3.38 6.5 9.249 5.48 15.128-0.87 5.066-4.16 8.347-10.43 11.513-2.62 1.322-3.82 1.671-5.1 1.479-1.13-0.17-1.87-0.555-2.8-1.453-1.16-1.113-1.56-2.067-1.56-3.693 0-2.484 1.04-3.852 4.06-5.321 1.04-0.508 1.71-0.518 2.45-1.001 1.11-0.729 2.93-2.194 3.1-2.821 0.49-1.784 0.03-3.997-1.06-5.102-1.37-1.389-4.32-2.41-8.66-2.99-6.1-0.817-20.771-0.447-32.138 0.811-19.455 2.153-37.464 6.728-55.832 14.184-6.711 2.724-10.875 5.184-13.863 8.191-2.265 2.279-2.927 3.473-2.91 5.251 0.013 1.461 0.346 2.266 1.259 3.045 1.43 1.221 3.9 1.415 10.258 0.805 8.779-0.842 15.239 0.496 18.92 3.919 2.274 2.115 3.484 4.329 4.415 8.083l0.466 1.88-0.014 23.474c-0.014 22.42-0.238 36.19-0.68 41.79-0.524 6.64-1.717 11.68-3.714 15.7-2.163 4.36-5.719 7.63-9.736 8.97-3.253 1.09-5.353 1.14-11.84 0.3-8.493-1.11-9.853-1.1-12.119 0.02-2.2502 1.11-3.5696 3.14-3.3069 5.09 0.3008 2.23 1.9448 3.92 5.4129 5.58 7.482 3.57 26.491 7.41 43.709 8.83 7.326 0.6 12.248 0.77 22.45 0.78 9.695 0 12.745-0.1 21.181-0.69 14.152-0.98 31.162-3.49 37.092-5.47 3.53-1.17 6.62-3.24 7.52-5.03 0.87-1.73 0.65-4.59-0.44-5.85-1.3-1.5-2.89-1.93-9.03-2.46-7.9-0.68-12.03-1.57-15.62-3.37-4-2-6.52-4.82-8.51-9.51-0.94-2.21-1.4-3.86-2.02-7.33-0.76-4.22-0.87-6.23-1.5-27.34-0.57-18.79-0.59-20.43-0.38-29.22 0.54-23.335 1.23-34.321 2.28-36.402 1.3-2.557 4.47-3.681 6.89-2.438 1.26 0.648 2.3 1.911 2.69 3.272 0.29 1.008 0.29 1.285 0 3.473-0.6 4.498-1.11 15.343-1.51 32.295-0.21 8.59-0.19 10.25 0.38 28.92 0.33 10.9 0.7 20.75 0.81 21.9 0.27 2.73 1.05 6.6 1.64 8.2 1.82 4.93 4.43 6.1 15.72 7.06 5.25 0.45 8.11 0.99 10.37 1.97 5.44 2.35 8.69 7.06 9.09 13.19 0.33 4.93-1.39 9.33-5 12.83-4.31 4.19-10.08 6.48-20.99 8.34-10.73 1.84-21.85 3.08-33.984 3.79-4.766 0.28-20.889 0.51-25.171 0.37z"></path><path id="path2340" sodipodi:nodetypes="cssssssssssssssssssssssssssssssssssscccssssssssssssssssscsssssssssssssssc" style="stroke:#eed1f6;stroke-width:1.8;fill:#fff400" d="m68.465 216.05c-12.55-0.43-21.614-1.25-31.919-2.88-13.511-2.13-24.303-4.9-30.419-7.81-5.6554-2.7-9.3104-6.72-10.682-11.78-0.5499-2.02-0.5123-5.81 0.076-7.72 1.821-5.9 6.6657-10.22 13.011-11.6 2.52-0.55 5.769-0.45 12.202 0.4 6.332 0.84 7.742 0.84 9.294 0.04 2.725-1.42 4.555-5.44 5.425-11.93 0.686-5.12 1.093-23.35 1.089-48.83-0.002-14.053-0.051-17.175-0.286-18.302-0.509-2.439-1.282-3.241-3.65-3.787-2.247-0.519-5.32-0.587-9.237-0.206-4.966 0.483-8.515 0.457-10.723-0.079-6.7843-1.647-11.019-6.499-11.537-13.221-0.38765-5.029 1.7608-9.806 6.4105-14.254 4.6105-4.41 9.8825-7.337 20.926-11.616 23.615-9.152 48.187-13.939 74.624-14.538 14.59-0.33 22.47 1.142 27.67 5.171 4.37 3.38 6.5 9.249 5.48 15.128-0.87 5.066-4.16 8.347-10.43 11.513-2.62 1.322-3.82 1.671-5.1 1.479-1.13-0.17-1.87-0.555-2.8-1.453-1.16-1.113-1.56-2.067-1.56-3.693 0-2.484 1.04-3.852 4.06-5.321 1.04-0.508 1.71-0.518 2.45-1.001 1.11-0.729 2.93-2.194 3.1-2.821 0.49-1.784 0.03-3.997-1.06-5.102-1.37-1.389-4.32-2.41-8.66-2.99-6.1-0.817-20.771-0.447-32.138 0.811-19.455 2.153-37.464 6.728-55.832 14.184-6.711 2.724-10.875 5.184-13.863 8.191-2.265 2.279-2.927 3.473-2.91 5.251 0.013 1.461 0.346 2.266 1.259 3.045 1.43 1.221 3.9 1.415 10.258 0.805 8.779-0.842 15.239 0.496 18.92 3.919 2.274 2.115 3.484 4.329 4.415 8.083l0.466 1.88-0.014 23.474c-0.014 22.42-0.238 36.19-0.68 41.79-0.524 6.64-1.717 11.68-3.714 15.7-2.163 4.36-5.719 7.63-9.736 8.97-3.253 1.09-5.353 1.14-11.84 0.3-8.493-1.11-9.853-1.1-12.119 0.02-2.2502 1.11-3.5696 3.14-3.3069 5.09 0.3008 2.23 1.9448 3.92 5.4129 5.58 7.482 3.57 26.491 7.41 43.709 8.83 7.326 0.6 12.248 0.77 22.45 0.78 9.695 0 12.745-0.1 21.181-0.69 14.152-0.98 31.162-3.49 37.092-5.47 3.53-1.17 6.62-3.24 7.52-5.03 0.87-1.73 0.65-4.59-0.44-5.85-1.3-1.5-2.89-1.93-9.03-2.46-7.9-0.68-12.03-1.57-15.62-3.37-4-2-6.52-4.82-8.51-9.51-0.94-2.21-1.4-3.86-2.02-7.33-0.76-4.22-0.87-6.23-1.5-27.34-0.57-18.79-0.59-20.43-0.38-29.22 0.54-23.335 1.23-34.321 2.28-36.402 1.3-2.557 4.47-3.681 6.89-2.438 1.26 0.648 2.3 1.911 2.69 3.272 0.29 1.008 0.29 1.285 0 3.473-0.6 4.498-1.11 15.343-1.51 32.295-0.21 8.59-0.19 10.25 0.38 28.92 0.33 10.9 0.7 20.75 0.81 21.9 0.27 2.73 1.05 6.6 1.64 8.2 1.82 4.93 4.43 6.1 15.72 7.06 5.25 0.45 8.11 0.99 10.37 1.97 5.44 2.35 8.69 7.06 9.09 13.19 0.33 4.93-1.39 9.33-5 12.83-4.31 4.19-10.08 6.48-20.99 8.34-10.73 1.84-21.85 3.08-33.984 3.79-4.766 0.28-20.889 0.51-25.171 0.37z"></path></g></g><metadata></metadata></svg> 