<?xml version="1.0" encoding="UTF-8" standalone="no"?> <!-- Created with Inkscape (http://www.inkscape.org/) --> <svg xmlns:inkscape="http://www.inkscape.org/namespaces/inkscape" xmlns:rdf="http://www.w3.org/1999/02/22-rdf-syntax-ns#" xmlns="http://www.w3.org/2000/svg" xmlns:cc="http://creativecommons.org/ns#" xmlns:dc="http://purl.org/dc/elements/1.1/" xmlns:sodipodi="http://sodipodi.sourceforge.net/DTD/sodipodi-0.dtd" xmlns:svg="http://www.w3.org/2000/svg" xmlns:ns1="http://sozi.baierouge.fr" xmlns:xlink="http://www.w3.org/1999/xlink" id="svg2" sodipodi:docname="rwwgub_Neon_Numerals-8_tubes_only.svg" viewBox="0 0 160.58 180.18" sodipodi:version="0.32" inkscape:output_extension="org.inkscape.output.svg.inkscape" inkscape:version="0.46dev+devel" sodipodi:docbase="C:\DOCUME~1\RANDAL~1.WIL\Desktop\ACTIVE~1\neon\final"><defs id="defs4"><filter id="filter6247" height="1.1853" width="1.2079" y="-.092633" x="-.10394" inkscape:collect="always"><feGaussianBlur id="feGaussianBlur6249" stdDeviation="6.9543975" inkscape:collect="always"></feGaussianBlur></filter></defs><g id="layer1" inkscape:label="Layer 1" inkscape:groupmode="layer" transform="translate(-65.718 -22.874)"><g id="g2368" transform="translate(0,-26)"><path id="path1937" sodipodi:nodetypes="csssscccccsssssssssssssssssssssssssssssssssssssssssssssssssccssssssssssssssssssssssccssssssssssssssssssssssc" style="stroke:#eed1f6;stroke-width:1.8;fill:#fff400" d="m145.35 227.97c-16.11-0.58-30.8-3.74-43.91-9.47-3.521-1.54-5.336-2.46-8.147-4.13-12.817-7.63-22.012-18.85-25.041-30.56-2.905-11.24-1.688-22.13 3.463-30.99 2.721-4.68 6.1-8.34 12.078-13.07l1.079-0.85v-1.29-1.28l-2.062-2.22c-5.052-5.45-8.188-10.67-10.19-16.96-1.642-5.16-2.223-9.59-2.045-15.59 0.451-15.243 7.631-27.753 21.378-37.243 11.567-7.985 25.217-12.611 41.627-14.108 4.48-0.409 15.91-0.468 20.67-0.107 11.54 0.873 21.35 2.709 31.39 5.876 12.4 3.907 19.6 8.011 26.29 14.983 5.71 5.942 8.82 11.673 10.21 18.842 0.58 2.991 0.63 9.368 0.09 12.147-0.83 4.28-2.83 9.09-5.24 12.59-1.55 2.25-5.45 6.46-7.71 8.33-0.89 0.73-3 2.31-4.69 3.51-1.93 1.37-3.21 2.41-3.48 2.84-0.76 1.24-1.44 1.98-2.3 2.5-0.72 0.44-1.1 0.52-2.23 0.52-2.08 0-3.45-0.8-4.46-2.57-0.68-1.2-0.82-3.16-0.34-4.64 0.81-2.53 2.1-3.88 6.78-7.11 3.5-2.42 5.21-3.85 7.47-6.28 4.47-4.79 6.51-9.62 6.51-15.441 0-7.24-2.73-12.979-9.1-19.123-3.07-2.963-7.14-5.706-11.01-7.43-16.22-7.221-38.56-10.621-58.46-8.895-11.05 0.957-20.84 3.675-29.58 8.205-11.616 6.026-19.227 14.115-22.189 23.588-1.152 3.682-1.434 5.763-1.44 10.606-0.005 4.68 0.133 5.89 1.059 9.31 1.473 5.44 3.887 9.55 8.61 14.69 2.301 2.5 3.305 3.96 4.001 5.82 0.451 1.2 0.484 1.52 0.48 4.66-0.005 3.06-0.047 3.48-0.454 4.56-1.003 2.66-2.487 4.41-6.039 7.15-5.73 4.41-9.712 10.44-10.993 16.63-1.143 5.53-0.513 12.6 1.617 18.17 2.223 5.82 7.248 12.24 13.328 17.03 8.4 6.63 21.37 11.88 35.62 14.44 11.35 2.03 23.98 2.5 34.78 1.28 14.03-1.58 25.5-6.1 34.41-13.56 7.38-6.18 13.87-15.85 16.38-24.38 1.8-6.1 2.08-12.44 0.81-18.24-0.67-3.04-1.32-4.89-2.89-8.22-2.58-5.45-3.87-7.34-8-10.55-1.43-1.11-2.3-1.94-2.68-2.57-0.53-0.86-0.57-1.08-0.57-2.72 0-1.63 0.04-1.87 0.54-2.68 1.48-2.4 4.19-3.16 6.66-1.87 2.79 1.47 6.92 5.32 9.13 8.56 7 10.32 9.91 22.15 8.32 33.85-1.57 11.59-7.74 23.53-17.06 33.01-14.4 14.66-35.1 21.43-62.47 20.45zm-4.11-26.35c-4.27-0.51-6.39-0.98-9.41-2.08-6.23-2.28-12.66-7.34-16.56-13.06-1.53-2.24-3.53-6.16-4.47-8.74-1.56-4.33-2.43-10.71-1.76-12.96 0.96-3.22 4.23-4.73 7.06-3.26 1.98 1.03 2.6 2.24 2.86 5.61 0.25 3.17 0.62 4.96 1.53 7.37 2.11 5.6 5.95 10.26 10.99 13.33 3.95 2.4 8.97 3.6 14.05 3.35 3.92-0.19 6.71-1.17 8.65-3.05 1.7-1.65 2.22-3.69 1.62-6.46-0.6-2.82-2.02-4.43-6.23-7.11-3.76-2.39-9.95-5.66-16.98-8.96-8.05-3.79-11.82-5.27-14.47-5.7-1.72-0.27-2.52-0.68-3.53-1.82-1.82-2.05-1.75-5.1 0.17-7.08 2.97-3.08 7.7-1.87 24.76 6.34 12.39 5.97 19.42 10.38 22.44 14.08 1.53 1.86 3.13 5.16 3.71 7.63 0.62 2.59 0.62 6.67 0.01 9.01-1.61 6.15-6.68 10.9-13.54 12.7-1.16 0.31-2.95 0.65-3.96 0.77-1.71 0.2-5.59 0.24-6.94 0.09zm22.18-85.87c-0.86-0.23-2.2-1.21-2.7-1.99-1.22-1.87-1.2-3.76 0.07-6.22 1.6-3.08 4.05-8.363 4.49-9.645 0.83-2.418 0.48-5.444-0.84-7.458-1.33-2.01-5.15-4.377-8.57-5.313-4.88-1.332-9.51-1.07-11.94 0.675-1.1 0.791-1.81 1.619-2.01 2.339-0.22 0.817 0.4 1.841 2.52 4.139 2.9 3.143 4.87 4.937 8.9 8.113 2.95 2.33 3.58 2.91 4.24 3.95 0.44 0.69 0.5 0.99 0.5 2.47 0 2.54-0.82 3.91-2.94 4.92-0.88 0.42-1.21 0.47-2.27 0.37-1.54-0.15-2.12-0.49-5.77-3.4-6.8-5.43-11.98-10.741-13.91-14.293-1.16-2.129-1.48-3.318-1.49-5.529-0.01-3.697 1.22-6.64 3.98-9.536 4.12-4.309 9.69-6.109 16.85-5.443 10.49 0.975 19.3 6.598 22.07 14.087 1 2.703 1.5 5.902 1.31 8.448-0.26 3.516-2.26 8.816-5.71 15.126-1.28 2.34-2 3.22-3.12 3.82-0.83 0.44-2.69 0.63-3.66 0.37z"></path><path id="path5056" sodipodi:nodetypes="csssscccccsssssssssssssssssssssssssssssssssssssssssssssssssccssssssssssssssssssssssccssssssssssssssssssssssc" style="filter:url(#filter6247);stroke:#fff400;stroke-width:1.98;fill:#fff400" d="m145.35 227.97c-16.11-0.58-30.8-3.74-43.91-9.47-3.521-1.54-5.336-2.46-8.147-4.13-12.817-7.63-22.012-18.85-25.041-30.56-2.905-11.24-1.688-22.13 3.463-30.99 2.721-4.68 6.1-8.34 12.078-13.07l1.079-0.85v-1.29-1.28l-2.062-2.22c-5.052-5.45-8.188-10.67-10.19-16.96-1.642-5.16-2.223-9.59-2.045-15.59 0.451-15.243 7.631-27.753 21.378-37.243 11.567-7.985 25.217-12.611 41.627-14.108 4.48-0.409 15.91-0.468 20.67-0.107 11.54 0.873 21.35 2.709 31.39 5.876 12.4 3.907 19.6 8.011 26.29 14.983 5.71 5.942 8.82 11.673 10.21 18.842 0.58 2.991 0.63 9.368 0.09 12.147-0.83 4.28-2.83 9.09-5.24 12.59-1.55 2.25-5.45 6.46-7.71 8.33-0.89 0.73-3 2.31-4.69 3.51-1.93 1.37-3.21 2.41-3.48 2.84-0.76 1.24-1.44 1.98-2.3 2.5-0.72 0.44-1.1 0.52-2.23 0.52-2.08 0-3.45-0.8-4.46-2.57-0.68-1.2-0.82-3.16-0.34-4.64 0.81-2.53 2.1-3.88 6.78-7.11 3.5-2.42 5.21-3.85 7.47-6.28 4.47-4.79 6.51-9.62 6.51-15.441 0-7.24-2.73-12.979-9.1-19.123-3.07-2.963-7.14-5.706-11.01-7.43-16.22-7.221-38.56-10.621-58.46-8.895-11.05 0.957-20.84 3.675-29.58 8.205-11.616 6.026-19.227 14.115-22.189 23.588-1.152 3.682-1.434 5.763-1.44 10.606-0.005 4.68 0.133 5.89 1.059 9.31 1.473 5.44 3.887 9.55 8.61 14.69 2.301 2.5 3.305 3.96 4.001 5.82 0.451 1.2 0.484 1.52 0.48 4.66-0.005 3.06-0.047 3.48-0.454 4.56-1.003 2.66-2.487 4.41-6.039 7.15-5.73 4.41-9.712 10.44-10.993 16.63-1.143 5.53-0.513 12.6 1.617 18.17 2.223 5.82 7.248 12.24 13.328 17.03 8.4 6.63 21.37 11.88 35.62 14.44 11.35 2.03 23.98 2.5 34.78 1.28 14.03-1.58 25.5-6.1 34.41-13.56 7.38-6.18 13.87-15.85 16.38-24.38 1.8-6.1 2.08-12.44 0.81-18.24-0.67-3.04-1.32-4.89-2.89-8.22-2.58-5.45-3.87-7.34-8-10.55-1.43-1.11-2.3-1.94-2.68-2.57-0.53-0.86-0.57-1.08-0.57-2.72 0-1.63 0.04-1.87 0.54-2.68 1.48-2.4 4.19-3.16 6.66-1.87 2.79 1.47 6.92 5.32 9.13 8.56 7 10.32 9.91 22.15 8.32 33.85-1.57 11.59-7.74 23.53-17.06 33.01-14.4 14.66-35.1 21.43-62.47 20.45zm-4.11-26.35c-4.27-0.51-6.39-0.98-9.41-2.08-6.23-2.28-12.66-7.34-16.56-13.06-1.53-2.24-3.53-6.16-4.47-8.74-1.56-4.33-2.43-10.71-1.76-12.96 0.96-3.22 4.23-4.73 7.06-3.26 1.98 1.03 2.6 2.24 2.86 5.61 0.25 3.17 0.62 4.96 1.53 7.37 2.11 5.6 5.95 10.26 10.99 13.33 3.95 2.4 8.97 3.6 14.05 3.35 3.92-0.19 6.71-1.17 8.65-3.05 1.7-1.65 2.22-3.69 1.62-6.46-0.6-2.82-2.02-4.43-6.23-7.11-3.76-2.39-9.95-5.66-16.98-8.96-8.05-3.79-11.82-5.27-14.47-5.7-1.72-0.27-2.52-0.68-3.53-1.82-1.82-2.05-1.75-5.1 0.17-7.08 2.97-3.08 7.7-1.87 24.76 6.34 12.39 5.97 19.42 10.38 22.44 14.08 1.53 1.86 3.13 5.16 3.71 7.63 0.62 2.59 0.62 6.67 0.01 9.01-1.61 6.15-6.68 10.9-13.54 12.7-1.16 0.31-2.95 0.65-3.96 0.77-1.71 0.2-5.59 0.24-6.94 0.09zm22.18-85.87c-0.86-0.23-2.2-1.21-2.7-1.99-1.22-1.87-1.2-3.76 0.07-6.22 1.6-3.08 4.05-8.363 4.49-9.645 0.83-2.418 0.48-5.444-0.84-7.458-1.33-2.01-5.15-4.377-8.57-5.313-4.88-1.332-9.51-1.07-11.94 0.675-1.1 0.791-1.81 1.619-2.01 2.339-0.22 0.817 0.4 1.841 2.52 4.139 2.9 3.143 4.87 4.937 8.9 8.113 2.95 2.33 3.58 2.91 4.24 3.95 0.44 0.69 0.5 0.99 0.5 2.47 0 2.54-0.82 3.91-2.94 4.92-0.88 0.42-1.21 0.47-2.27 0.37-1.54-0.15-2.12-0.49-5.77-3.4-6.8-5.43-11.98-10.741-13.91-14.293-1.16-2.129-1.48-3.318-1.49-5.529-0.01-3.697 1.22-6.64 3.98-9.536 4.12-4.309 9.69-6.109 16.85-5.443 10.49 0.975 19.3 6.598 22.07 14.087 1 2.703 1.5 5.902 1.31 8.448-0.26 3.516-2.26 8.816-5.71 15.126-1.28 2.34-2 3.22-3.12 3.82-0.83 0.44-2.69 0.63-3.66 0.37z"></path></g></g><metadata></metadata></svg> 