<?xml version="1.0" encoding="UTF-8" standalone="no"?> <!-- Created with Inkscape (http://www.inkscape.org/) --> <svg xmlns:inkscape="http://www.inkscape.org/namespaces/inkscape" xmlns:rdf="http://www.w3.org/1999/02/22-rdf-syntax-ns#" xmlns="http://www.w3.org/2000/svg" xmlns:sodipodi="http://sodipodi.sourceforge.net/DTD/sodipodi-0.dtd" xmlns:cc="http://web.resource.org/cc/" xmlns:xlink="http://www.w3.org/1999/xlink" xmlns:dc="http://purl.org/dc/elements/1.1/" xmlns:svg="http://www.w3.org/2000/svg" xmlns:ns1="http://sozi.baierouge.fr" id="svg2" sodipodi:docname="footman-05.svg" inkscape:export-filename="footman-04.png" viewBox="0 0 72 72" sodipodi:version="0.32" inkscape:export-xdpi="90" inkscape:output_extension="org.inkscape.output.svg.inkscape" inkscape:export-ydpi="90" inkscape:version="0.45.1" sodipodi:docbase="/home/mlm/Desktop"><defs id="defs4"><linearGradient id="linearGradient4037" inkscape:collect="always"><stop id="stop4039" style="stop-color:#808080" offset="0"></stop><stop id="stop4041" style="stop-color:#808080;stop-opacity:0" offset="1"></stop></linearGradient><linearGradient id="linearGradient2819" y2="25.574" xlink:href="#linearGradient4037" gradientUnits="userSpaceOnUse" x2="305.2" gradientTransform="translate(-1.7634 4.303)" y1="25.574" x1="291.8" inkscape:collect="always"></linearGradient><linearGradient id="linearGradient2821" y2="16.24" xlink:href="#linearGradient4037" gradientUnits="userSpaceOnUse" x2="314.43" gradientTransform="translate(-1.7634 4.303)" y1="16.24" x1="307.27" inkscape:collect="always"></linearGradient><linearGradient id="linearGradient2823" y2="15.295" xlink:href="#linearGradient4037" gradientUnits="userSpaceOnUse" x2="330.88" gradientTransform="translate(-1.7634 4.303)" y1="15.295" x1="321.76" inkscape:collect="always"></linearGradient><linearGradient id="linearGradient2825" y2="39.578" xlink:href="#linearGradient4037" gradientUnits="userSpaceOnUse" x2="315.41" gradientTransform="translate(-1.7634 4.303)" y1="39.578" x1="310.09" inkscape:collect="always"></linearGradient><linearGradient id="linearGradient2827" y2="40.718" xlink:href="#linearGradient4037" gradientUnits="userSpaceOnUse" x2="330.29" gradientTransform="translate(-1.7634 4.303)" y1="40.718" x1="324.39" inkscape:collect="always"></linearGradient><linearGradient id="linearGradient2829" y2="47.801" xlink:href="#linearGradient4037" gradientUnits="userSpaceOnUse" x2="316.58" gradientTransform="translate(-1.7634 4.303)" y1="47.801" x1="307.43" inkscape:collect="always"></linearGradient><linearGradient id="linearGradient2831" y2="47.72" xlink:href="#linearGradient4037" gradientUnits="userSpaceOnUse" x2="334.3" gradientTransform="translate(-1.7634 4.303)" y1="47.72" x1="325.34" inkscape:collect="always"></linearGradient><linearGradient id="linearGradient2833" y2="22.072" xlink:href="#linearGradient4037" gradientUnits="userSpaceOnUse" x2="324.52" gradientTransform="translate(-1.7634 4.303)" y1="22.072" x1="313.78" inkscape:collect="always"></linearGradient><linearGradient id="linearGradient2835" y2="30.214" xlink:href="#linearGradient4037" gradientUnits="userSpaceOnUse" x2="320.78" gradientTransform="translate(-1.7634 4.303)" y1="30.214" x1="317.53" inkscape:collect="always"></linearGradient><linearGradient id="linearGradient2837" y2="27.853" xlink:href="#linearGradient4037" gradientUnits="userSpaceOnUse" x2="326.48" gradientTransform="translate(-1.7634 4.303)" y1="27.853" x1="323.88" inkscape:collect="always"></linearGradient><linearGradient id="linearGradient2839" y2="21.991" xlink:href="#linearGradient4037" gradientUnits="userSpaceOnUse" x2="336.91" gradientTransform="translate(-1.7634 4.303)" y1="21.991" x1="333" inkscape:collect="always"></linearGradient><linearGradient id="linearGradient2841" y2="24.352" xlink:href="#linearGradient4037" gradientUnits="userSpaceOnUse" x2="339.67" gradientTransform="translate(-1.7634 4.303)" y1="24.352" x1="337.56" inkscape:collect="always"></linearGradient><linearGradient id="linearGradient2843" y2="11.162" xlink:href="#linearGradient4037" gradientUnits="userSpaceOnUse" x2="345.37" gradientTransform="translate(-1.7634 4.303)" y1="11.162" x1="334.14" inkscape:collect="always"></linearGradient><linearGradient id="linearGradient2845" y2="26.278" xlink:href="#linearGradient4037" gradientUnits="userSpaceOnUse" x2="63.306" y1="26.278" x1="60.484" inkscape:collect="always"></linearGradient></defs><g id="layer2" inkscape:label="00" inkscape:groupmode="layer" transform="translate(-289.63 -.90967)"><rect id="rect2590" style="fill-rule:evenodd;fill:#ffffff" height="72" width="72" y=".90967" x="289.63"></rect></g><g id="layer1" inkscape:label="total" inkscape:groupmode="layer" transform="translate(-289.63 -.90967)"><path id="path2819" sodipodi:rx="23.5" sodipodi:ry="4" style="fill-rule:evenodd;fill:#666666" sodipodi:type="arc" d="m60 57.27a23.5 4 0 1 1 -47 0 23.5 4 0 1 1 47 0z" transform="translate(286.74 3.303)" sodipodi:cy="57.27021" sodipodi:cx="36.5"></path><path id="path2821" style="fill-rule:evenodd;fill:#005544" d="m324.57 33.326l7.65 20.681 0.65 0.326 0.98 1.791-1.46 0.326-2.93-0.977-7.98-22.635 2.93-1.14 0.16 1.628z"></path><path id="path2835" style="fill-rule:evenodd;fill:#005544" d="m314.47 11.669l-2.28 2.442 0.17 4.234-4.56 2.931-1.14 4.723 6.84-0.815 1.3 6.025 0.65 4.723-5.37 5.048 0.65 13.353-4.72 5.211h8.14l-1.63-9.608 1.14-5.536v-3.094l5.21-4.56 1.79 0.489 2.77 7.816 2.12-0.163-1.47-9.282-2.6-4.559 1.14-7.003 1.95 0.163 4.07 2.931-2.93-6.839-5.7-3.42-2.28-4.885-3.26-0.325z"></path><path id="path2875" style="fill-rule:evenodd;fill:#000000" d="m296.72 25.184l-0.81 2.28-0.81-1.628-1.14 0.325-1.63 1.303 1.79 4.071-0.16 1.466 2.44 3.745 2.28-0.488 0.81-2.606 3.1-2.605 2.93-0.326 0.81-1.14 5.38-3.582 0.32-1.629-0.65-0.977-5.21 0.326 0.16 1.303-1.14 0.651-1.46-0.326-0.98 0.814-3.58 0.652-2.45-1.629z"></path><path id="path2877" style="fill-rule:evenodd;fill:#000000" d="m312.68 21.928c0.44-0.869 0.87-1.737 1.31-2.606l1.62 0.651c0.55-0.41 1.17-0.754 1.66-1.205 0.42-1.01 0.85-2.019 1.27-3.028 0.36 0.349 0.78 0.662 0.77 1.21 0.21 0.857 0.33 1.757 0.58 2.589 0.91 1.068 1.82 2.135 2.73 3.203-0.35 0.139-0.7 0.89-1.03 0.461-0.42-0.371-0.84-0.742-1.25-1.113-0.6 1.052-1.25 2.058-2.04 2.979-1 1.287-2.01 2.574-3.01 3.861 0.27 0.922 0.54 1.845 0.81 2.768 0.71 0.109 1.41 0.217 2.12 0.326 0.7-0.652 1.41-1.303 2.12-1.954 0.43 0.217 0.86 0.434 1.3 0.651 0.05 0.706 0.11 1.411 0.16 2.117 0.98 0.271 1.96 0.543 2.93 0.814 0.65 2.714 1.31 5.428 1.96 8.142h-3.26c-0.27 0.489-0.54 0.977-0.81 1.466-0.54-0.572-1.16-1.095-1.65-1.697-0.43-1.388-0.86-2.777-1.29-4.166-0.49 0.093-1.06 0.044-1.5 0.223-1.07 1.608-2.15 3.217-3.22 4.826-0.32 0.14-1.06-0.04-1.12 0.304 0.12 0.665-0.04 1.432 0.46 1.962 0.38 0.342 0.34 0.757 0.16 1.194-0.2 0.44-0.11 0.863 0.1 1.279 0.27 0.609 0.25 0.719-0.18 0.147-0.5-0.628-1.11-1.208-1.54-1.863-0.19-1.405-0.29-2.837-0.52-4.224-0.42-0.686-0.84-1.371-1.27-2.056 1.22-1.693 2.4-3.423 3.64-5.093 0.33-0.149 0.75-0.926 0.96-0.308 0.64 0.986 1.28 1.972 1.92 2.958 0.49-0.163 0.97-0.326 1.46-0.488-0.16-1.14-0.32-2.28-0.49-3.42-0.92-0.163-1.84-0.326-2.76-0.489-0.3 0.199-0.51 1.053-0.88 0.643-0.5-0.183-0.47-0.654-0.48-1.1-0.09-1.204-0.18-2.409-0.27-3.614 1.25-1.465 2.49-2.931 3.74-4.396 0.03-0.669 0.17-1.363 0.13-2.016-0.24-0.336-0.38-0.847-0.69-1.078-0.81 0.022-1.64-0.044-2.43 0.032-0.74 0.369-1.48 0.738-2.22 1.108z"></path><path id="path2879" style="fill-rule:evenodd;fill:#000000" d="m323.27 24.37l0.81-1.954 3.1-0.488 0.81 2.116 2.12 1.629 0.81-0.326 1.95 0.652 1.63-0.163 0.98-1.14 0.81-1.466 2.45 0.489 0.65 1.465-0.49 3.094-0.98 0.652-0.65-1.629-1.63 0.489-0.49 1.465-6.51 1.303v-1.628l-5.37-4.56z"></path><path id="path2881" style="fill-rule:evenodd;fill:#000000" d="m328.15 57.264l0.49 1.628 2.44 0.977 1.79-1.139 0.33-1.14-0.81-0.977-2.61-2.443-1.79 0.651 0.16 2.443z"></path><path id="path2883" style="fill-rule:evenodd;fill:#000000" d="m312.36 57.427l1.46 1.791 1.14-0.163 0.17 0.977-4.56 1.14-5.05 0.489-1.79-2.117 0.65-1.303 2.6 0.326 5.38-1.14z"></path><path id="path2889" style="fill-rule:evenodd;fill:#000000" d="m327.34 54.984l-0.33 4.723 3.75 1.465 2.44-1.628v-1.954l-2.77-2.28-3.09-0.326z"></path><path id="path2961" sodipodi:nodetypes="cccccccc" style="fill-rule:evenodd;fill:#cccccc" d="m292.98 17.531l0.81 4.722-3.74 2.443-0.33 5.699 6.68 10.096 2.93 1.955 2.6-5.374c3.76-10.289-2.01-15.243-8.95-19.541z"></path><path id="path2963" sodipodi:nodetypes="ccccc" style="fill-rule:evenodd;fill:#cccccc" d="m305.19 23.23h5.86l1.31-2.442-0.65-2.606c-4.28-0.719-5.16 2.439-6.52 5.048z"></path><path id="path2965" sodipodi:nodetypes="cccc" style="fill-rule:evenodd;fill:#cccccc" d="m319.68 18.345l3.42 3.745 5.7-0.325c-1.94-2.561-3.03-6.239-9.12-3.42z"></path><path id="path2967" sodipodi:nodetypes="ccccc" style="fill-rule:evenodd;fill:#cccccc" d="m310.57 39.514l2.28 2.443 0.48 3.42-3.42 3.094c-1.43-2.397-3.75-4.476 0.66-8.957z"></path><path id="path2969" sodipodi:nodetypes="ccc" style="fill-rule:evenodd;fill:#cccccc" d="m323.76 41.957c-2.74 2.723-1.33 5.614 2.11 6.351 3.78-1.825 2.91-6.113-2.11-6.351z"></path><path id="path2971" sodipodi:nodetypes="ccccccccc" style="fill-rule:evenodd;fill:#cccccc" d="m313.17 45.865l-3.74 0.489 0.48 7.816-0.65 1.466-3.91 2.931 5.7-1.14 1.63-1.303 0.17-4.885c1.54-1.472 2.63-3.046 0.32-5.374z"></path><path id="path2973" style="fill-rule:evenodd;fill:#cccccc" d="m323.27 47.494l3.25 4.722 0.17 2.28 1.79 0.488-0.49 3.094 3.09 0.977 1.14-1.465-2.28-2.443v-1.954l-2.11-7.979-4.56 2.28z"></path><path id="path2975" sodipodi:nodetypes="ccccccccccccccccc" style="fill-rule:evenodd;fill:#cccccc" d="m314.31 20.625l3.75 1.14 0.16 1.791 1.79-0.326v-0.814l1.63 0.651 0.65 1.629c0.62 2.846-0.76 3.686-1.3 5.374l-3.59 2.279-1.46-1.14-0.33-1.954 2.93-5.373h-0.81l-3.42 5.048-2.28-2.931-0.32-2.932 2.6-2.442z"></path><path id="path2977" style="fill-rule:evenodd;fill:#cccccc" d="m315.45 32.187l1.95 4.885 1.31-0.163-0.33-3.583-2.93-1.139z"></path><path id="path2979" style="fill-rule:evenodd;fill:#cccccc" d="m321.96 31.047l-0.16 1.954 2.44 0.488 0.17-2.117-2.45-0.325z"></path><path id="path2981" style="fill-rule:evenodd;fill:#cccccc" d="m330.92 25.673v1.628l1.63-0.977 0.16-0.488h0.98v1.14l1.14 0.325-0.33-1.791-3.58 0.163z"></path><path id="path2983" style="fill-rule:evenodd;fill:#cccccc" d="m335.97 27.301l-0.49 2.606 0.81 0.325 1.14-0.651 0.17-1.954-1.63-0.326z"></path><path id="path2985" style="fill-rule:evenodd;fill:#cccccc" d="m335.32 24.207l-3.26-2.605 4.23 0.163 2.12-14.167 1.79-1.466 0.82 0.977-0.82 13.027-0.49 1.954 3.59 0.977-1.14 0.652-2.93 1.303-0.33-1.466-1.95-0.651-1.63 1.302z"></path><path id="path2995" sodipodi:rx="1.4112903" sodipodi:ry="3.0241935" style="fill-rule:evenodd;fill:#ff0000" sodipodi:type="arc" d="m63.306 26.278a1.4113 3.0242 0 1 1 -2.822 0 1.4113 3.0242 0 1 1 2.822 0z" transform="matrix(1.6634 0 0 1 194.1 3.0809)" sodipodi:cy="26.278275" sodipodi:cx="61.895161"></path><path id="path3063" sodipodi:nodetypes="cccccccc" style="fill-rule:evenodd;fill:url(#linearGradient2819)" d="m293.29 17.419l0.82 4.723-3.75 2.442-0.32 5.7 6.67 10.096 2.93 1.954 2.61-5.374c3.75-10.289-2.02-15.243-8.96-19.541z"></path><path id="path3065" sodipodi:nodetypes="ccccc" style="fill-rule:evenodd;fill:url(#linearGradient2821)" d="m305.51 23.119h5.86l1.3-2.443-0.65-2.605c-4.27-0.72-5.15 2.439-6.51 5.048z"></path><path id="path3067" sodipodi:nodetypes="cccc" style="fill-rule:evenodd;fill:url(#linearGradient2823)" d="m320 18.233l3.42 3.746 5.7-0.326c-1.95-2.561-3.04-6.238-9.12-3.42z"></path><path id="path3069" sodipodi:nodetypes="ccccc" style="fill-rule:evenodd;fill:url(#linearGradient2825)" d="m310.88 39.403l2.28 2.442 0.49 3.42-3.42 3.094c-1.43-2.397-3.75-4.476 0.65-8.956z"></path><path id="path3071" sodipodi:nodetypes="ccc" style="fill-rule:evenodd;fill:url(#linearGradient2827)" d="m324.07 41.845c-2.74 2.723-1.32 5.615 2.12 6.351 3.77-1.824 2.9-6.113-2.12-6.351z"></path><path id="path3073" sodipodi:nodetypes="ccccccccc" style="fill-rule:evenodd;fill:url(#linearGradient2829)" d="m313.49 45.754l-3.75 0.488 0.49 7.816-0.65 1.466-3.91 2.931 5.7-1.14 1.63-1.302 0.16-4.886c1.55-1.471 2.63-3.045 0.33-5.373z"></path><path id="path3075" style="fill-rule:evenodd;fill:url(#linearGradient2831)" d="m323.58 47.382l3.26 4.722 0.16 2.28 1.79 0.489-0.49 3.094 3.1 0.977 1.14-1.466-2.28-2.443v-1.954l-2.12-7.979-4.56 2.28z"></path><path id="path3077" sodipodi:nodetypes="ccccccccccccccccc" style="fill-rule:evenodd;fill:url(#linearGradient2833)" d="m314.62 20.513l3.75 1.14 0.16 1.791 1.79-0.325v-0.815l1.63 0.652 0.65 1.628c0.62 2.846-0.76 3.687-1.3 5.374l-3.58 2.28-1.47-1.14-0.32-1.954 2.93-5.374h-0.82l-3.42 5.048-2.27-2.931-0.33-2.931 2.6-2.443z"></path><path id="path3079" style="fill-rule:evenodd;fill:url(#linearGradient2835)" d="m315.76 32.075l1.96 4.885 1.3-0.163-0.32-3.582-2.94-1.14z"></path><path id="path3081" style="fill-rule:evenodd;fill:url(#linearGradient2837)" d="m322.28 30.935l-0.16 1.954 2.44 0.489 0.16-2.117-2.44-0.326z"></path><path id="path3083" style="fill-rule:evenodd;fill:url(#linearGradient2839)" d="m331.23 25.561v1.629l1.63-0.977 0.17-0.489h0.97v1.14l1.14 0.326-0.32-1.792-3.59 0.163z"></path><path id="path3085" style="fill-rule:evenodd;fill:url(#linearGradient2841)" d="m336.28 27.19l-0.49 2.605 0.82 0.326 1.14-0.652 0.16-1.954-1.63-0.325z"></path><path id="path3087" style="fill-rule:evenodd;fill:url(#linearGradient2843)" d="m335.63 24.096l-3.26-2.606 4.24 0.163 2.12-14.167 1.79-1.4656 0.81 0.977-0.81 13.028-0.49 1.954 3.58 0.977-1.14 0.651-2.93 1.303-0.33-1.466-1.95-0.651-1.63 1.303z"></path><path id="path3097" sodipodi:rx="1.4112903" sodipodi:ry="3.0241935" style="fill-rule:evenodd;fill:url(#linearGradient2845)" sodipodi:type="arc" d="m63.306 26.278a1.4113 3.0242 0 1 1 -2.822 0 1.4113 3.0242 0 1 1 2.822 0z" transform="matrix(1.6634 0 0 1 194.41 2.9692)" sodipodi:cy="26.278275" sodipodi:cx="61.895161"></path><path id="path3107" style="fill-rule:evenodd;fill:#ffcc00" d="m312.36 20.788c-0.55-0.869-1.09-1.737-1.63-2.606-0.27-0.108-0.54-0.217-0.82-0.325 0.55-0.543 1.09-1.086 1.63-1.629v-3.094l2.61-2.28h2.44c0.23 0.157 0.44 0.363 0.68 0.489h1.76c0.44 0.609 0.9 1.203 1.31 1.821 0.13 0.624 0.2 1.261 0.36 1.876 0.26 0.733 0.54 1.46 0.78 2.196v1.435c-0.6-0.446-1.23-0.87-1.81-1.329-0.28-0.466-0.6-0.907-0.84-1.39-0.37-0.94-0.73-1.879-1.1-2.818-0.55-0.157-1.1-0.348-1.66-0.485-0.44 0.043-0.89 0.138-1.33 0.148-0.25-0.051-0.5-0.101-0.75-0.151-0.33 0.825-0.68 1.644-0.98 2.473v2.9c0.27 0.652 0.54 1.303 0.81 1.954-0.49 0.272-0.97 0.543-1.46 0.815z"></path><path id="path3109" style="fill-rule:evenodd;fill:#ff7f2a" d="m319.2 15.577l-1.8 3.582c-0.7 0.272-1.41 0.543-2.11 0.814-0.54-0.379-1.09-0.759-1.63-1.139-0.33-1.195-0.65-2.389-0.98-3.583l1.14-2.28c0.82-0.054 1.63-0.108 2.44-0.163 0.49 0.218 0.98 0.435 1.47 0.652 0.49 0.705 0.98 1.411 1.47 2.117z"></path></g><metadata></metadata></svg> 