<?xml version="1.0" encoding="UTF-8" standalone="no"?> <!-- Generator: Adobe Illustrator 13.0.2, SVG Export Plug-In . SVG Version: 6.00 Build 14948) --> <svg xmlns:rdf="http://www.w3.org/1999/02/22-rdf-syntax-ns#" xmlns="http://www.w3.org/2000/svg" xmlns:cc="http://web.resource.org/cc/" xmlns:xlink="http://www.w3.org/1999/xlink" xmlns:dc="http://purl.org/dc/elements/1.1/" xmlns:svg="http://www.w3.org/2000/svg" xmlns:inkscape="http://www.inkscape.org/namespaces/inkscape" xmlns:sodipodi="http://sodipodi.sourceforge.net/DTD/sodipodi-0.dtd" xmlns:ns1="http://sozi.baierouge.fr" id="Layer_1" style="enable-background:new -0.258 -0.548 123.547 123.539" xml:space="preserve" viewBox="-0.258 -0.548 123.547 123.539" y="0px" x="0px"> <g> <path style="fill:#231F20" d="m109.09 123.17c8.148 0 14.758-6.602 14.758-14.758v-94.015c0-8.156-6.609-14.766-14.758-14.766h-94.028c-8.148 0-14.758 6.609-14.758 14.766v94.016c0 8.156 6.609 14.758 14.758 14.758h94.028z"></path> <path d="m15.062 2.129c-6.758 0-12.25 5.5-12.25 12.266v94.016c0 6.766 5.492 12.258 12.25 12.258h94.023c6.75 0 12.25-5.492 12.25-12.258v-94.015c0-6.766-5.5-12.266-12.25-12.266h-94.018z"></path> <path style="fill:#FFFFFF" d="m46.727 34.324c5.289 0 9.547-4.281 9.547-9.555s-4.258-9.547-9.547-9.547c-5.273 0-9.539 4.273-9.539 9.547s4.265 9.555 9.539 9.555z"></path> <path style="fill:#FFFFFF" d="m11.5 86.535c2.234 0 4.383-0.516 6.312-1.383 1.977-0.914 4.211-1.453 6.531-1.453s4.555 0.539 6.516 1.453c1.945 0.867 4.102 1.367 6.359 1.367 2.25 0 4.406-0.5 6.336-1.367 1.969-0.914 4.203-1.453 6.531-1.453 2.32 0 4.539 0.539 6.531 1.453 1.914 0.867 4.086 1.367 6.336 1.367s4.422-0.5 6.336-1.367c1.992-0.914 4.211-1.453 6.539-1.453 2.32 0 4.547 0.539 6.523 1.453 1.938 0.867 4.102 1.367 6.344 1.367 2.258 0 4.406-0.5 6.352-1.367 1.961-0.914 4.195-1.453 6.516-1.453 1.992 0 3.922 0.383 5.664 1.062 2.836-3.094 4.594-7.227 4.594-11.742 0-9.617-7.789-17.406-17.398-17.406l-1.953 0.211c-2.133 8.68-10.812 9.047-10.812 9.047l-39.717-0.016-3.32-1.953 8.008-13.438 8.766 5.062c5.25 3.406 7.984-1.367 7.984-1.367l8.789-14.328c3.82-6.227-4.281-11.219-8.078-4.969l-6.157 10.048-14.625-8.094c-10.125-5.656-14.422 3.711-14.422 3.711l-11.492 19.68c-1.953 4.086-0.203 5.844-0.203 5.844l-5.68-0.016v21.5z"></path> <path style="fill:#FFFFFF" d="m114.43 105.53c-2.242 0-4.406-0.5-6.32-1.367-1.992-0.914-4.211-1.453-6.547-1.453-2.32 0-4.555 0.539-6.516 1.453-1.945 0.867-4.094 1.367-6.352 1.367-2.242 0-4.406-0.5-6.344-1.367-1.977-0.914-4.203-1.453-6.523-1.453-2.328 0-4.547 0.539-6.539 1.453-1.914 0.867-4.086 1.367-6.336 1.367s-4.422-0.5-6.336-1.367c-1.992-0.914-4.211-1.453-6.531-1.453-2.328 0-4.562 0.539-6.531 1.453-1.93 0.867-4.086 1.367-6.336 1.367-2.258 0-4.414-0.5-6.359-1.367-1.961-0.914-4.195-1.453-6.516-1.453s-4.555 0.539-6.531 1.453c-1.93 0.867-4.094 1.367-6.336 1.367v-9.492c2.242 0 4.406-0.516 6.336-1.383 1.977-0.914 4.211-1.453 6.531-1.453s4.555 0.539 6.516 1.453c1.945 0.867 4.102 1.383 6.359 1.383 2.25 0 4.406-0.516 6.336-1.383 1.969-0.914 4.203-1.453 6.531-1.453 2.32 0 4.539 0.539 6.531 1.453 1.914 0.867 4.086 1.383 6.336 1.383s4.422-0.516 6.336-1.383c1.992-0.914 4.211-1.453 6.539-1.453 2.32 0 4.547 0.539 6.523 1.453 1.938 0.867 4.102 1.383 6.344 1.383 2.258 0 4.406-0.516 6.352-1.383 1.961-0.914 4.195-1.453 6.516-1.453 2.336 0 4.555 0.539 6.547 1.453 1.914 0.867 4.078 1.383 6.32 1.383v9.492z"></path> </g> <metadata></metadata></svg> 