<?xml version="1.0" encoding="UTF-8" standalone="no"?> <!-- Created with Inkscape (http://www.inkscape.org/) --> <svg xmlns:inkscape="http://www.inkscape.org/namespaces/inkscape" xmlns:rdf="http://www.w3.org/1999/02/22-rdf-syntax-ns#" xmlns="http://www.w3.org/2000/svg" xmlns:cc="http://creativecommons.org/ns#" xmlns:dc="http://purl.org/dc/elements/1.1/" xmlns:sodipodi="http://sodipodi.sourceforge.net/DTD/sodipodi-0.dtd" xmlns:svg="http://www.w3.org/2000/svg" xmlns:ns1="http://sozi.baierouge.fr" xmlns:xlink="http://www.w3.org/1999/xlink" id="svg2975" sodipodi:docname="PeterM_Penguin_with_a_shirt_outline.svg" inkscape:export-filename="C:\joanna\Gfx\drawings_vector\admin\thumbs\PeterM_Penguin_with_a_shirt.png" viewBox="0 0 620 810" sodipodi:version="0.32" inkscape:export-xdpi="22.682758" inkscape:output_extension="org.inkscape.output.svg.inkscape" inkscape:export-ydpi="22.682758" inkscape:version="0.46dev+devel" sodipodi:docbase="/home/peterm/afbeeldingen/svg"><path id="path1564" style="stroke:#000000;stroke-linecap:round;stroke-width:12;fill:#ffffff" d="m296.26 11.602c-54.78 7.224-97.15 53.987-97.15 110.73 0 41.55 13.26 69.53 8.46 103.87-9.74 69.65-152.76 123.02-152.76 246.09-0.003 143.39 116.37 259.76 259.76 259.76 143.38 0 259.76-116.37 259.76-259.76 0-124.93-127.6-166.81-159.9-232.14-9.88-43.35 8.38-77.11 8.38-117.82 0-58.946-45.69-107.14-103.55-111.4-40.16-0.046-11.87 1.77-23 0.672z" inkscape:export-ydpi="60.064171" sodipodi:nodetypes="cccccccccc" inkscape:export-filename="/home/peterm/afbeeldingen/svg/kroew.png" inkscape:export-xdpi="60.064171"></path><path id="path1568" style="stroke:#000000;stroke-linecap:round;stroke-width:12;fill:#ffffff" d="m273.16 244.9c-34.82 31.62-101.18 92.72-101.18 174.76 0 101.04 64.59 183.02 144.15 183.02s144.14-81.98 144.14-183.02c0-84.98-69.33-146.9-107.6-176.89-13.09-10.26-66.94-9.29-79.51 2.13z" inkscape:export-ydpi="60.064171" sodipodi:nodetypes="cccccc" inkscape:export-filename="/home/peterm/afbeeldingen/svg/kroew.png" inkscape:export-xdpi="60.064171"></path><path id="rect1313" style="stroke:#000000;stroke-linecap:round;stroke-width:12;fill:#ffffff" d="m182.34 263.76c67.82 46.71 172.12 51.23 248.93 1.4 14.3 39.78 229.04 149.06 121.75 365.69-75.99 33.48-407.09 30.36-471.64 0-137.82-241.78 89.39-329.71 100.96-367.09z" inkscape:export-ydpi="60.064171" sodipodi:nodetypes="ccccc" inkscape:export-filename="/home/peterm/afbeeldingen/svg/kroew.png" inkscape:export-xdpi="60.064171"></path><path id="path1570" style="stroke:#000000;stroke-linecap:round;stroke-width:12;fill:#ffffff" d="m340.46 77.358c-15.41 0-28.68 12.01-35.57 29.502-6.95-17.198-20.08-28.965-35.33-28.965-22.43 0-40.65 25.155-40.65 56.155 0 31.01 18.22 56.19 40.65 56.19 15.41 0 55.64-0.54 70.9-0.54 22.43 0 40.63-25.15 40.63-56.16s-18.2-56.182-40.63-56.182z" inkscape:export-ydpi="60.064171" sodipodi:nodetypes="cccccccc" inkscape:export-filename="/home/peterm/afbeeldingen/svg/kroew.png" inkscape:export-xdpi="60.064171"></path><path id="path1574" sodipodi:rx="34.345188" sodipodi:ry="47.477169" style="stroke:#000000;stroke-linecap:round;stroke-width:20.034;fill:#000000" sodipodi:type="arc" d="m347.49 356.37a34.345 47.477 0 1 1 -68.69 0 34.345 47.477 0 1 1 68.69 0z" transform="matrix(.59897 0 0 .59897 88.653 -57.886)" sodipodi:cy="356.36707" sodipodi:cx="313.14728"></path><path id="path1576" sodipodi:rx="34.345188" sodipodi:ry="47.477169" style="fill:#ffffff" sodipodi:type="arc" d="m347.49 356.37a34.345 47.477 0 1 1 -68.69 0 34.345 47.477 0 1 1 68.69 0z" transform="matrix(.26241 0 0 .26241 196.24 53.193)" sodipodi:cy="356.36707" sodipodi:cx="313.14728"></path><path id="path1580" sodipodi:rx="34.345188" sodipodi:ry="47.477169" style="stroke:#000000;stroke-linecap:round;stroke-width:19.981;fill:#000000" sodipodi:type="arc" d="m347.49 356.37a34.345 47.477 0 1 1 -68.69 0 34.345 47.477 0 1 1 68.69 0z" transform="matrix(.60057 0 0 .60057 149.1 -59.594)" sodipodi:cy="356.36707" sodipodi:cx="313.14728"></path><path id="path1582" sodipodi:rx="34.345188" sodipodi:ry="47.477169" style="fill:#ffffff" sodipodi:type="arc" d="m347.49 356.37a34.345 47.477 0 1 1 -68.69 0 34.345 47.477 0 1 1 68.69 0z" transform="matrix(.26311 0 0 .26311 253.67 52.885)" sodipodi:cy="356.36707" sodipodi:cx="313.14728"></path><path id="path1586" style="stroke:#000000;stroke-linecap:round;stroke-width:12;fill:#ffffff" d="m434.05 258.62c-4.21 1.23-7.73 3.34-10.49 6.39-18.99 20.97 46.17 115.07 46.97 139.91-1.61 11.94-31.26 111-13.96 133.33 22.43 28.95 81.79-7.2 132.48-80.71 7.63-11.06 11.3-23.05 14.41-34.62 5.75-24.99 5.86-51.99-20.05-78.66-57.9-59.61-119.96-94.24-149.36-85.64z" inkscape:export-ydpi="60.064171" sodipodi:nodetypes="cccccccc" inkscape:export-filename="/home/peterm/afbeeldingen/svg/kroew.png" inkscape:export-xdpi="60.064171"></path><path id="path1614" style="stroke:#000000;stroke-linecap:round;stroke-width:12;fill:#ffffff" d="m180.02 256.2c4.28 0.9 7.95 2.75 10.94 5.57 20.53 19.46-37.26 118.26-36.17 143.09 2.52 11.78 39.64 108.29 24.08 131.87-20.16 30.58-82.101-0.94-138.24-70.37-8.454-10.45-13.031-22.13-17.012-33.42-7.631-24.48-9.804-51.4 13.996-79.97 53.188-63.84 112.43-103.1 142.41-96.77z" inkscape:export-ydpi="60.064171" sodipodi:nodetypes="cccccccc" inkscape:export-filename="/home/peterm/afbeeldingen/svg/kroew.png" inkscape:export-xdpi="60.064171"></path><path id="path1624" style="stroke:#000000;stroke-linecap:round;stroke-width:12;fill:#ffffff" d="m367.62 205.26c0 18.35-25.69 84.21-59.67 84.21s-63.44-65.86-63.44-84.21 27.57-33.24 61.55-33.24 61.56 14.89 61.56 33.24z" inkscape:export-ydpi="60.064171" sodipodi:nodetypes="ccccc" inkscape:export-filename="/home/peterm/afbeeldingen/svg/kroew.png" inkscape:export-xdpi="60.064171"></path><path id="path1628" sodipodi:rx="2.8571429" sodipodi:ry="6.4285712" style="stroke:#000000;stroke-linecap:round;stroke-width:9.5034;fill:#ffffff" sodipodi:type="arc" d="m328.57 325.93a2.8571 6.4286 0 1 1 -5.71 0 2.8571 6.4286 0 1 1 5.71 0z" inkscape:export-ydpi="60.064171" inkscape:export-filename="/home/peterm/afbeeldingen/svg/kroew.png" transform="matrix(1.2627 0 0 1.2627 -117.07 -208.77)" sodipodi:cy="325.93362" sodipodi:cx="325.71429" inkscape:export-xdpi="60.064171"></path><path id="path1630" sodipodi:rx="2.8571429" sodipodi:ry="6.4285712" style="stroke:#000000;stroke-linecap:round;stroke-width:9.5034;fill:#ffffff" sodipodi:type="arc" d="m328.57 325.93a2.8571 6.4286 0 1 1 -5.71 0 2.8571 6.4286 0 1 1 5.71 0z" inkscape:export-ydpi="60.064171" inkscape:export-filename="/home/peterm/afbeeldingen/svg/kroew.png" transform="matrix(1.2627 0 0 1.2627 -93.618 -209.68)" sodipodi:cy="325.93362" sodipodi:cx="325.71429" inkscape:export-xdpi="60.064171"></path><path id="path2395" style="stroke:#000000;stroke-linecap:round;stroke-width:12;fill:#ffffff" d="m298.49 715.43c15.47 14.3 16.38 38.47 2.08 53.94-8.73 9.44-168.19 6.23-175.58-0.6-15.47-14.31-16.42-38.5-2.12-53.98 14.28-15.44 40.46-8.99 53.87-2.14 37.86-18.65 49.52-13.68 73.13 0.21 11.83-3.06 34.91-10.1 48.62 2.57z" inkscape:export-ydpi="60.064171" sodipodi:nodetypes="ccccccc" inkscape:export-filename="/home/peterm/afbeeldingen/svg/kroew.png" inkscape:export-xdpi="60.064171"></path><path id="path1610" style="stroke:#000000;stroke-linecap:round;stroke-width:12;fill:#ffffff" d="m331.68 715.07c-15.47 14.3-16.39 38.47-2.08 53.94 8.73 9.44 168.19 6.23 175.58-0.61 15.47-14.3 16.42-38.49 2.12-53.97-14.28-15.45-40.46-8.99-53.87-2.14-37.86-18.65-49.52-13.68-73.13 0.21-11.84-3.06-34.92-10.1-48.62 2.57z" inkscape:export-ydpi="60.064171" sodipodi:nodetypes="ccccccc" inkscape:export-filename="/home/peterm/afbeeldingen/svg/kroew.png" inkscape:export-xdpi="60.064171"></path><metadata></metadata></svg> 