<?xml version="1.0" encoding="UTF-8" standalone="no"?> <!-- Created with Inkscape (http://www.inkscape.org/) --> <svg xmlns:inkscape="http://www.inkscape.org/namespaces/inkscape" xmlns:rdf="http://www.w3.org/1999/02/22-rdf-syntax-ns#" xmlns="http://www.w3.org/2000/svg" xmlns:sodipodi="http://sodipodi.sourceforge.net/DTD/sodipodi-0.dtd" xmlns:cc="http://creativecommons.org/ns#" xmlns:xlink="http://www.w3.org/1999/xlink" xmlns:dc="http://purl.org/dc/elements/1.1/" xmlns:svg="http://www.w3.org/2000/svg" xmlns:ns1="http://sozi.baierouge.fr" id="svg2" sodipodi:docname="magic_stones.svg" viewBox="0 0 128 128" sodipodi:version="0.32" inkscape:output_extension="org.inkscape.output.svg.inkscape" inkscape:version="0.45+devel"><defs id="defs4"><filter id="filter2972" inkscape:collect="always"><feGaussianBlur id="feGaussianBlur2974" stdDeviation="1.3855585" inkscape:collect="always"></feGaussianBlur></filter><linearGradient id="linearGradient2338"><stop id="stop2340" style="stop-color:#b1b1b1" offset="0"></stop><stop id="stop2342" style="stop-color:#e4e4e4" offset="1"></stop></linearGradient><linearGradient id="linearGradient3068" y2="67.805" xlink:href="#linearGradient2338" gradientUnits="userSpaceOnUse" x2="79.395" y1="99.542" x1="72.244" inkscape:collect="always"></linearGradient><linearGradient id="linearGradient3072" y2="98.92" xlink:href="#linearGradient2338" gradientUnits="userSpaceOnUse" x2="64.258" y1="103.78" x1="63.463" inkscape:collect="always"></linearGradient><linearGradient id="linearGradient3076" y2="95.827" xlink:href="#linearGradient2338" gradientUnits="userSpaceOnUse" x2="87.195" y1="99.804" x1="87.195" inkscape:collect="always"></linearGradient><linearGradient id="linearGradient2342" y2="67.012" xlink:href="#linearGradient2338" gradientUnits="userSpaceOnUse" x2="31.024" y1="82.657" x1="18.385" inkscape:collect="always"></linearGradient><linearGradient id="linearGradient2346" y2="86.413" xlink:href="#linearGradient2338" gradientUnits="userSpaceOnUse" x2="15.468" y1="89.418" x1="12.993" inkscape:collect="always"></linearGradient><filter id="filter2946" inkscape:collect="always"><feGaussianBlur id="feGaussianBlur2948" stdDeviation="0.58541084" inkscape:collect="always"></feGaussianBlur></filter><filter id="filter2985" inkscape:collect="always"><feGaussianBlur id="feGaussianBlur2987" stdDeviation="0.63971791" inkscape:collect="always"></feGaussianBlur></filter><linearGradient id="linearGradient2991" y2="28.917" xlink:href="#linearGradient2338" gradientUnits="userSpaceOnUse" x2="40.659" y1="46.329" x1="30.406" inkscape:collect="always"></linearGradient><linearGradient id="linearGradient2995" y2="39.346" xlink:href="#linearGradient2338" gradientUnits="userSpaceOnUse" x2="44.288" y1="41.733" x1="41.719" inkscape:collect="always"></linearGradient><filter id="filter3055" inkscape:collect="always"><feGaussianBlur id="feGaussianBlur3057" stdDeviation="0.51064955" inkscape:collect="always"></feGaussianBlur></filter><linearGradient id="linearGradient3061" y2="34.594" xlink:href="#linearGradient2338" gradientUnits="userSpaceOnUse" x2="78.188" y1="38.281" x1="77.156" inkscape:collect="always"></linearGradient><linearGradient id="linearGradient3065" y2="20.375" xlink:href="#linearGradient2338" gradientUnits="userSpaceOnUse" x2="88.812" y1="38.688" x1="84.125" inkscape:collect="always"></linearGradient><linearGradient id="linearGradient3069" y2="36.719" xlink:href="#linearGradient2338" gradientUnits="userSpaceOnUse" x2="94.938" y1="41.031" x1="92.062" inkscape:collect="always"></linearGradient><filter id="filter3102" inkscape:collect="always"><feGaussianBlur id="feGaussianBlur3104" stdDeviation="0.51471824" inkscape:collect="always"></feGaussianBlur></filter><linearGradient id="linearGradient3108" y2="56.538" xlink:href="#linearGradient2338" gradientUnits="userSpaceOnUse" x2="121.09" y1="72.89" x1="112.61" inkscape:collect="always"></linearGradient><linearGradient id="linearGradient3112" y2="72.183" xlink:href="#linearGradient2338" gradientUnits="userSpaceOnUse" x2="125.42" y1="75.807" x1="122.15" inkscape:collect="always"></linearGradient><filter id="filter3136" inkscape:collect="always"><feGaussianBlur id="feGaussianBlur3138" stdDeviation="0.57214582" inkscape:collect="always"></feGaussianBlur></filter></defs><g id="layer2" inkscape:label="colors" inkscape:groupmode="layer"><path id="path2309" style="filter:url(#filter2972);fill-opacity:.70588;fill:#800000" d="m66.844 38.469c-1.051 0.006-2.105 0.033-3.156 0.062-12.931 0.435-27.066 5.086-35.032 15.313-0.184 0.946-0.337 1.877-0.5 2.812l1.344 3c0.616-3.281 0.401-6.957 3.844-8.718 0.567-0.201 1.572-2.247 2.218-2.344 0.15-0.023 0.273 0.049 0.376 0.281 4.124 5.052 9.468 11.323 13.593 16.375-5.678 3.723-14.365 8.952-20 12.594-0.041-0.183-0.081-0.406-0.125-0.594l0.156 1.844c5.911 0.038 22.994-2.642 28.657-2.375 2.556 3.046 8.412 9.016 10.969 12.062-0.108 0.449-0.172 0.92-0.25 1.375l0.968-2.656c-0.106-0.176-0.191-0.329-0.312-0.562-4.026-3.296-7.377-8.894-9.344-11.126 2.141-0.203 8.402-1.177 10.438-0.843l0.031-1.281c-4.904-0.276-9.415 0.76-11.563 0.531-1.949-1.534-4.89-5.526-6.937-9.219 4.683-2.907 9.735-5.645 11.5-6.656 1.053 0.349 8.913 2.745 10.375 3.218l0.468-0.687 2.938-0.344 3.625 8.125 0.563 4.844c7.19-0.855 17.663-2.367 24.592-2.344-1.75 10.233-15.044 17.984-24.218 21.313l0.626 1.562c1.184-0.424 3.232-1.022 4.468-1.343 11.346-4.367 22.644-14.695 20.594-28.063-2.05-14.965-18.023-23.007-31.5-25.5-3.107-0.536-6.253-0.674-9.406-0.656zm-37.282 40.625l0.188 1.844-1.312-0.75c0.171 0.621 0.356 1.25 0.562 1.874 9.342 10.565 25.138 14.27 38.688 15 0.361 0.053 0.709 0.095 1.062 0.126l-1.25-2.188c-0.071 0.097-0.138 0.191-0.219 0.281-11.82-0.398-27.761-5.076-36.281-13.531-0.167-1.819-0.821-2.485-1.438-2.656zm34.844-39.219c5.716 0.047 13.084 0.985 18.5 2.75-6.51 4.271-13.364 9.604-19.875 13.875-8.364-2.594-18.291-5.719-26.656-8.312 8.225-5.274 18.309-8.274 28.031-8.313zm19.656 3.281c9.082 3.49 19.998 10.546 21.878 20.688-0.59 2.565 1.03 3.965 0.03 6.375-7.135-2.59-19.911-5.765-26.251-9.157 0.238-5.538 3.029-12.646 4.343-17.906zm-2.343 2.219c-0.805 3.776-3.893 13.175-3.531 14.844-3.673 0.723-9.778-1.989-14.063-3.469 1.428-1.536 14.968-8.381 17.594-11.375zm-43.031 4.531c0.7 0.507 6.684 1.961 10.5 3.625 3.709 1.158 7.947 2.842 11.656 4-3.232 2.193-7.659 5.74-10.156 6.625-2.145-4.2-8.854-9.577-12-14.25zm41.718 13.656c4.712 1.41 17.038 5.06 21.754 6.469-5.004 0.154-16.645 1.378-20.129 1.375-1.141-3.3-0.605-5.577-1.625-7.844zm-29.468 2.5c2.062 2.688 4.124 6.063 6.187 8.75-7.25 0.667-17.281 2.209-24.531 2.876 5.187-3.355 13.156-8.271 18.344-11.626z"></path><path id="path2950" style="filter:url(#filter2985);fill-rule:evenodd;fill:#000000;fill-opacity:.62745" d="m69.101 77.672l-1.568 0.335-2.75 0.878-1.29 1.318-0.871 2.343s0.012 3.36 0.263 3.591 0.867 2.747 0.867 2.747l0.491 2.987 0.171 3.4-0.699 4.011 0.502 1.588-0.587-0.53-2.398 0.77-1.528 0.97 0.213 0.88 0.948 0.76 2.091 0.51 1.314-0.13 2.382-0.81 1.421-0.7-2.019-0.59-1.485-0.83c0.399 0.15 1.717 0.62 2.377 1.01 0.764 0.44 2.867 0.31 2.867 0.31l3.909-0.06 4.326 0.45 3.564-0.24 1.984-1.06 0.731-2.172-1.758-2.207-1.644-1.231-0.381-1.207-2.507-6.623-2.302-4.135-1.781-1.973-1.109-0.963-1.041-1.36-2.703-2.037z"></path><path id="path3066" sodipodi:nodetypes="ccccscccccccccccccccccccscc" style="fill-rule:evenodd;fill:url(#linearGradient3068)" d="m65.816 96.519l1.903-6.919 0.865-5.968 0.432-5.275s0.173-4.498 0-4.93 0.865-6.313 0.865-6.313l1.557-3.979 1.643-2.162 2.941-1.211 1.643-0.432 1.989 3.892 0.605 2.508 0.779 1.816 1.124 3.632 0.952 7.525 0.432 11.848v2.163l1.211 2.335 1.038 4.065-1.384 3.716-2.249 1.65c-1.182 0.23-2.364 0.56-3.546 0l-4.065-1.3-3.805-0.35s-2.076 0-2.681-0.86c-0.606-0.87-2.249-2.251-2.249-2.251v-3.2z"></path><path id="path3070" style="fill-rule:evenodd;fill:url(#linearGradient3072)" d="m65.407 98.39l-2.563 1.061-1.768 1.499-0.088 1.59 0.707 1.42 1.856 1.15 1.326-0.09 2.563-1.15 1.591-1.06-1.767-1.24-1.238-1.677-0.619-1.503z"></path><path id="path3074" style="fill-rule:evenodd;fill:url(#linearGradient3076)" d="m84.764 94.678l1.68 0.442 2.21-0.089 0.795 0.53-0.088 1.945 0.265 1.149-0.796 0.619-3.182 0.53-0.088-2.652-0.796-2.474z"></path><path id="path2348" style="filter:url(#filter2946);fill-rule:evenodd;fill:#000000;fill-opacity:.62745" d="m14.987 62.177l-1.077 0.469-1.399 1.211-0.279 2.391 0.144 3.947-1.317 3.261-1.0764 2.656 1.6564 4.976s1.438 3.848 1.51 4.062c0.071 0.214 2.242 1.324 2.242 1.324l-0.075-0.227 0.987 0.783 1.685 0.312 2.244 0.001 2.356-0.427 2.529-0.76 3.908-2.22-1.074-4.08-1.503-3.947-0.005-1.631-0.996-3.278-1.996-4.098-1.59-1.832-2.649-1.787-2.66-0.961-1.565-0.145zm-3.594 23.873l-1.189 0.415-0.7199 1.067-0.0476 0.712 1.7305 1.116 1.254 0.062 1.851-0.136 2.473-0.643 1.027-0.428-1.244-0.983-1.217-0.428-3.918-0.754z"></path><path id="path2340" style="fill-rule:evenodd;fill:url(#linearGradient2342)" d="m15.998 85.927s-1.767-1.944-1.767-2.298-0.177-6.717-0.177-6.717v-8.221l1.944-4.242 2.387-5.215 1.149-6.452 1.06-3.89 1.768-1.856 1.238-0.707 1.502 0.354 2.298 1.767 2.033 3.094 0.973 3.094 0.618 6.806-0.088 5.391-0.53 2.652 0.176 6.541-0.265 6.717-4.596 3.359-2.74 1.061-2.475 0.53-2.21-0.177-1.591-0.619-0.707-1.325v0.353z"></path><path id="path2344" style="fill-rule:evenodd;fill:url(#linearGradient2346)" d="m15.822 86.457l-3.624-1.502-1.326 0.619-1.0609 1.679-0.2652 1.149 1.3261 1.945 1.237 0.176 1.856-0.088 2.652-0.884 1.149-0.619-0.884-1.679-1.06-0.796z"></path><path id="path2997" style="filter:url(#filter3055);fill-rule:evenodd;fill:#000000;fill-opacity:.62745" d="m28.702 47.286l-2.735-2.331-1.73-3.134-0.226-2.669 0.99-2.323 0.198-0.853s-0.958-3.752-1.236-4.781c-0.279-1.029-0.792-3.816-0.792-3.816l1.728-4.094 1.591-0.508 0.95-0.135 1.914 0.763 3.609 2.744 1.236 4.295 0.57 3.576 1.142 1.867 2.127 2.4 1.002 3.509-0.691 2.986-0.275 0.915-2.817 1.072s-1.845 0.573-2.199 0.578c-0.353 0.004-2.52 0.278-2.52 0.278l-1.836-0.339z"></path><path id="path2989" style="fill-rule:evenodd;fill:url(#linearGradient2991)" d="m29.345 46.594l-2.298-3.447-1.149-4.596 0.265-3.889 1.414-3.359 0.354-1.237s-0.265-5.48-0.354-6.983c-0.088-1.503-0.088-5.568-0.088-5.568l2.475-5.922 1.679-0.708 0.972-0.176 1.768 1.149 3.094 4.066 0.442 6.275-0.089 5.215 0.796 2.74 1.679 3.536 0.354 5.126-1.238 4.331-0.442 1.326-3.005 1.503s-1.944 0.795-2.298 0.795-2.563 0.354-2.563 0.354l-1.768-0.531z"></path><path id="path2993" style="fill-rule:evenodd;fill:url(#linearGradient2995)" d="m40.659 42.44l1.237 0.53 2.829-0.883s0.972-0.354 0.883-0.796c-0.088-0.442-0.795-1.768-0.795-1.768s-0.619-1.326-0.972-1.326c-0.354 0-2.475 0.177-2.475 0.177l-0.884 0.619 0.177 3.447z"></path><path id="path3071" style="filter:url(#filter3102);fill-rule:evenodd;fill:#000000;fill-opacity:.62745" d="m77.492 17.664l-1.278 1.165-0.265 1.726-2.076 2.096 1.671 5.59 0.514 2.858 1.212 2.886s0.43 1.035 0.733 1.712l-0.15-0.247-3.933 0.924-0.717 0.806s1.354 0.813 1.531 0.959 2.053 0.841 2.053 0.841l1.832-0.135s1.4-0.295 1.733-0.325c0.005 0.003 0.026-0.006 0.031-0.003 0.06 0.037 0.112 0.089 0.163 0.107l2.12 0.678 2.899 0.223s2.341-0.291 3.135-0.349 1.667-0.598 1.667-0.598l-0.359-1.72 0.409-1.14 2.103-0.433-0.717-1.137-2.404-2.005-1.874-1.926-2.95-6.368-3.293-3.805-2.085-1.989-1.705-0.391z"></path><path id="path3059" style="fill-rule:evenodd;fill:url(#linearGradient3061)" d="m80.5 38.625c-0.312 0-1.875 0.313-1.875 0.313h-1.875s-1.625-1.313-1.75-1.563-1.188-1.687-1.188-1.687l1-1.188 4.25-1 0.376 2.312 1.062 2.813z"></path><path id="path3063" style="fill-rule:evenodd;fill:url(#linearGradient3065)" d="m80.625 38.812c-0.563-0.437-1.375-3.562-1.437-3.937-0.063-0.375-0.188-3.75-0.188-3.75l-0.188-4.687 0.5-4.563 0.313-9 2.813-3.0625 0.874-2.6875 1.688-1.6875 1.562 0.8125 1.376 3.375 1.937 6.375 0.687 10.375 1.188 3.25 1.688 3.437 0.312 1.876-2.25 0.437-0.812 1.75-0.25 2.75s-1.063 0.75-1.876 0.75c-0.812 0-3.25 0.187-3.25 0.187l-2.812-0.687-1.875-1.313z"></path><path id="path3067" style="fill-rule:evenodd;fill:url(#linearGradient3069)" d="m92.812 34.812l-1.874 1.188-0.438 3.375 0.375 1.625s0.687 0.438 0.937 0.438 2.376 0.062 2.376 0.062l1.312-0.312 1.375-1.626-0.187-2.312-1.5-1.688-2.376-0.75z"></path><path id="path3114" sodipodi:nodetypes="cccccccccccccccccccccccc" style="filter:url(#filter3136);fill-rule:evenodd;fill:#000000;fill-opacity:.62745" d="m116.72 76.771c-0.93-0.085-4.91-0.4-4.91-0.4l-3.26-1.824-2.56-3.041-0.84-2.801 0.86-2.269-4.1-6.351 0.96-3.431 1.1-4.02 1.33-0.528 2.54 0.278 2.77 1.409 1.6 2.038 1.38 3.843 0.95 3.193 1.23 2.015 2.35 1.967 3.29 2.741 1.6 3.247-0.16 1.397-0.44 1.194-0.81 0.825-1.61 0.325-3.27 0.193z"></path><path id="path3106" sodipodi:nodetypes="cccccccccccccccccccccccc" style="fill-rule:evenodd;fill:url(#linearGradient3108)" d="m114.55 76.293c-0.88-0.265-4.68-1.326-4.68-1.326l-2.3-3.27-0.97-5.039 0.62-4.419 2.03-3.359-0.8-10.341 2.74-5.127 3.18-6.01 1.6-0.619 2.38 0.796 2.03 2.563 0.54 3.359-0.62 6.099-0.71 5.038 0.18 3.27 1.32 3.359 1.86 4.684-0.09 5.215-0.88 2.122-1.06 1.767-1.24 1.149-1.77 0.266-3.36-0.177z"></path><path id="path3110" style="fill-rule:evenodd;fill:url(#linearGradient3112)" d="m122.77 71.166l1.86 0.089h0.88l0.18 2.651 0.97 1.68-1.86 0.707-1.59 0.265h-1.41l-1.24-1.149 0.97-0.972 1.24-3.271z"></path><path id="path3140" style="fill-rule:evenodd;fill:#000000;fill-opacity:.15686" d="m65.407 98.39l-2.563 1.061-1.768 1.499-0.088 1.59 0.707 1.42 1.856 1.15 1.326-0.09 2.563-1.15 1.591-1.06-1.767-1.24-1.238-1.677-0.619-1.503z"></path><path id="path3142" style="fill-rule:evenodd;fill:#000000;fill-opacity:.15686" d="m15.822 86.457l-3.624-1.502-1.326 0.619-1.0609 1.679-0.2652 1.149 1.3261 1.945 1.237 0.176 1.856-0.088 2.652-0.884 1.149-0.619-0.884-1.679-1.06-0.796z"></path><path id="path3144" style="fill-rule:evenodd;fill:#000000;fill-opacity:.15686" d="m80.5 38.625c-0.312 0-1.875 0.313-1.875 0.313h-1.875s-1.625-1.313-1.75-1.563-1.188-1.687-1.188-1.687l1-1.188 4.25-1 0.376 2.312 1.062 2.813z"></path><path id="path3146" sodipodi:nodetypes="cccccc" style="fill-rule:evenodd;fill:#000000;fill-opacity:.15686" d="m16.25 67.875c-0.524-0.502-1.062-0.897-1.75-0.25l2-4.125 0.25 0.188-0.625 2.124 0.125 2.063z"></path><path id="path3148" sodipodi:nodetypes="ccccc" style="fill-rule:evenodd;fill:#000000;fill-opacity:.15686" d="m28.125 65.812l1.563-3-1.438-4.937c-1.074 1.466-3.128 2.356-1.562 5.375 1.158 0.563 1.437 1.503 1.437 2.562z"></path><path id="path3150" sodipodi:nodetypes="ccccc" style="fill-rule:evenodd;fill:#000000;fill-opacity:.15686" d="m27 48.438c0.007 1.927 0.45 3.792-0.625 5.874 0.817-0.681 1.396 0.538 2.063 1.063 0.359-2.146 0.07-1.917-0.313-4.063l-1.125-2.874z"></path><path id="path3152" sodipodi:nodetypes="ccccccc" style="fill-rule:evenodd;fill:#000000;fill-opacity:.15686" d="m22.562 80.875l0.126 3.125 2.124 2.125-3.687 1.313c0.687-0.557 1.883-1.041 1.5-1.75 0.034-1.229-1.301-1.284-2.375-1.563 2.022-0.771 1.549-2.165 2.312-3.25z"></path><path id="path3154" sodipodi:nodetypes="ccccc" style="fill-rule:evenodd;fill:#000000;fill-opacity:.15686" d="m71.375 67.625l0.75-5.437-0.813 0.874-2 5.563c0.679-0.408 1.237-1.774 2.063-1z"></path><path id="path3156" sodipodi:nodetypes="cccscccc" style="fill-rule:evenodd;fill:#000000;fill-opacity:.15686" d="m75.188 103.06l2.437-0.18 1.563-0.44c0.918-0.69 3.924-4.836 3.374-3.94-0.34 0.556-0.937 2.88-0.937 2.88-0.652 1.09-1.335 2.19 0.125 3.12l-4.125 0.19-2.437-1.63z"></path><path id="path3158" sodipodi:nodetypes="cccccc" style="fill-rule:evenodd;fill:#000000;fill-opacity:.15686" d="m66.25 94.125l-0.375 3.563 0.063 1.937 1.374 1.685 3.376 1.44c-2.127-2.35-4.844-4.218-4.438-8.625z"></path><path id="path3160" sodipodi:nodetypes="cccccc" style="fill-rule:evenodd;fill:#000000;fill-opacity:.15686" d="m120 73.5l-4.44 1.812h-3.62l1.87 0.876 2.88 0.312c0.26-1.67 2.21-2 3.31-3z"></path><path id="path3164" sodipodi:nodetypes="cccccc" style="fill-rule:evenodd;fill:#000000;fill-opacity:.15686" d="m122 63.875l0.88 3.75-0.26 3.563c-1.44-0.807-2.99-1.156-4.93 0.187-0.35-2.811 1.59-5.479 3.87-8.125l0.44 0.625z"></path><path id="path3166" sodipodi:nodetypes="cccc" style="fill-rule:evenodd;fill:#000000;fill-opacity:.15686" d="m107.88 61.312l1.12-2.187 2-1.5s-1.31 4.687-3.12 3.687z"></path><path id="path3170" sodipodi:nodetypes="cccccccc" style="fill-rule:evenodd;fill:#000000;fill-opacity:.15686" d="m116.44 37.438l-1.63 3-0.19 3.437c-0.72-0.769-0.3-2.795-2.5-1.937l1.88-3.75 1.25-1 0.94-0.313 0.25 0.563z"></path><path id="path3172" sodipodi:nodetypes="cccccc" style="fill-rule:evenodd;fill:#000000;fill-opacity:.15686" d="m91.75 30c-1.561-0.004-1.949 1.332-2.375 2.625-1.098 0.584-1.586 0.255-2.375 0.375 0.359-1.538 0.38-3.119 2-4.5l1.562-2 1.188 3.5z"></path><path id="path3174" sodipodi:nodetypes="cccccc" style="fill-rule:evenodd;fill:#000000;fill-opacity:.15686" d="m82.625 15.062c-0.565-1.411-1.283-2.471-3-1.25l2.813-3.9995 1.312 2.1875 1.75 0.812c-1.442 0.115-1.184 2.765-2.875 2.25z"></path><path id="path3176" sodipodi:nodetypes="ccccc" style="fill-rule:evenodd;fill:#000000;fill-opacity:.15686" d="m78.875 32.188c0 0.25 1.75 5.874 1.75 5.874l2.313 2.438 4.562 0.438c-3.019-2.506-6.659-3.235-8.625-8.75z"></path><path id="path3178" sodipodi:nodetypes="ccccccc" style="fill-rule:evenodd;fill:#000000;fill-opacity:.15686" d="m37.75 32.188c-1.265 2.812-1.002 5.624-1.188 8.437 0.435 1.276-0.377 3.051-0.687 4.625 1.168-0.772 1.949-2.835 3.563-2.125l-1-1.75 0.5-6.437-1.188-2.75z"></path><path id="path3180" sodipodi:nodetypes="cccccc" style="fill-rule:evenodd;fill:#000000;fill-opacity:.15686" d="m28.812 45.688l-1.124-1.5-0.438-1.813c1.063 0.567 1.837-0.603 2.75-0.937l-1.312 2.25 0.124 2z"></path><path id="path3182" sodipodi:nodetypes="cscccc" style="fill-rule:evenodd;fill:#000000;fill-opacity:.15686" d="m28.812 36.125s-1.25-0.75-1.25-1.625 0.25-3.375 0.25-3.375l-1.5 2.875-0.562 4.188c1.132-1.192 2.092-2.324 3.062-2.063z"></path><path id="path3184" sodipodi:nodetypes="ccccc" style="fill-rule:evenodd;fill:#000000;fill-opacity:.15686" d="m30.625 13.438l0.687-2.126-1.937 1.376-1.875 4.562c1.033-1.33 1.944-3.517 3.125-3.812z"></path></g><g id="layer1" inkscape:label="outline" inkscape:groupmode="layer"><path id="path2310" style="fill:#000000" d="m84.75 5.2188c-1.245 0.1214-2.241 1.3266-2.562 3.1874v0.0313c-0.127 0.815-0.515 1.3141-1.032 1.8745-0.517 0.561-1.165 1.132-1.718 1.969l-0.032 0.063-0.031 0.094c-0.331 1.131-0.419 3.352-0.469 5.656-0.049 2.277-0.031 4.521-0.031 5.531v0.063c-0.447 3.097-0.722 6.242-0.313 9.406-1.994-0.028-3.499 0.881-4.812 2.25-0.297 0.997 0.309 1.396 0.875 2.062 0.61 1.104 1.613 1.464 2.781 1.844 1.04-0.064 2.084-0.014 3.125 0 0.247 0.258 0.52 0.51 0.844 0.75v0.031c2.775 1.903 6.074 1.488 8.969 0.375 0.286 0.814 0.772 1.255 1.594 1.656 1.646 0.175 3.049-0.263 4.374-1.187 1.794-1.847 1.289-3.58-0.343-5.187l-0.031-0.032h-0.032c-0.578-0.382-1.209-0.719-1.875-0.906-0.01-0.607-0.082-1.396-0.219-1.969-1.033-2.132-1.924-4.356-2.812-6.562-0.177-5.023-0.55-13.54-3.25-18.219-0.011-0.037-0.019-0.0575-0.031-0.0938h-0.031c-0.288-0.8718-0.662-1.5753-1.157-2.0312-0.518-0.4778-1.158-0.717-1.781-0.6562zm0.094 1c0.317-0.031 0.649 0.0832 1 0.4062 0.35 0.323 0.719 0.8484 0.968 1.6562v0.0626l0.032 0.0624c2.496 4.2438 2.98 12.949 3.156 17.969l-1.031 2.063-0.407 2.937-1.562 1.469 0.062 0.125 1.907-0.781 0.375 0.656 0.187-0.063-0.156-0.781 0.094-3.312 0.843-1.438c0.781 1.923 1.578 3.871 2.532 5.75 0.156 0.656 0.141 1.082 0.094 1.625-0.928 0.051-1.842 0.57-2.5 1.687-0.221 1.013-0.241 2.058-0.25 3.094-2.762 1.105-5.74 1.481-8.219-0.218-0.921-0.681-1.381-1.34-1.688-2.157-0.306-0.816-0.448-1.793-0.593-2.969v-0.031c-0.627-3.397-0.314-6.797 0.187-10.25v-0.031-0.062c0-1.007-0.018-3.28 0.031-5.563 0.049-2.257 0.209-4.523 0.438-5.344 0.456-0.663 1.012-1.184 1.562-1.781 0.176-0.191 0.34-0.403 0.5-0.625l1.032 1.563-0.063 1.874-0.844 1.376v0.031l1.125-1.094 0.25-1.563 1.719 0.376 0.031-0.063-1.656-0.875 0.031-0.125-1.125-2.375c0.122-0.2863 0.228-0.5935 0.282-0.9375 0.276-1.5976 1.022-2.2819 1.656-2.3437zm-52.094 4.3122c-4.551-0.048-5.462 5.335-5.938 9.125-0.551 3.587 1.382 7.321 0.844 10.906-1.43 2.581-2.383 5.486-2.344 8.344v0.094c0.871 2.853 2.035 5.473 3.844 7.844 3.624 1.17 6.82-0.321 10-2.032h0.032v-0.031c0.578-0.556 0.949-1.175 1.218-1.843 0.786 0.071 1.734 0.269 2.719-0.188v0.031c1.056-0.294 2.203-0.407 2.781-1.656-0.513-1.086-1.227-2.033-1.968-2.969-1.024-0.569-1.942-0.392-2.969-0.094-0.003-0.167 0.002-0.333 0-0.5v-0.031c0.001-0.011-0.002-0.02 0-0.031 0.397-2.94-0.79-4.637-1.969-7.125-1.386-3.217-0.5-7.582-0.5-11.281-0.992-3.497-2.073-7.341-5.75-8.563zm-0.125 0.563c3.289 0.839 3.922 5.282 4.875 8.094-0.006 2.32-0.247 4.793 0 7.218l0.156 5.875 0.938 2.531-2.125 5.844h0.093l1.813-4-0.219 1.125-0.312 3.5-2.094 3.969h0.188l2.5-3.656 0.187-3.688 0.531-3v-0.031-0.031l-1.094-2.656 0.126-2.688c0.086 0.249 0.144 0.505 0.25 0.75 1.234 2.282 1.724 4.587 1.562 7.156 0.276 2.367-0.016 4.731-1.125 6.813-2.821 1.946-5.868 2.991-9.313 2.562-0.904-1.447-0.523-2.122-0.687-3.125l1.25-2.125-0.219-0.25-1.437 2.344-0.031 1.625c-1.268-2.053-1.256-4.142-2.126-6.438-0.023-2.367 0.269-4.913 1.188-7.062l-0.125 2.781 1.344 1.719 0.125-0.125-1.156-1.531 0.343-3.906c0.008-0.063 0.025-0.125 0.031-0.188v-0.156l1.532-1.594 0.031-0.312-1.5 1.312c0.237-3.278-0.283-6.609-0.313-9.906v-0.063-0.031c0.443-2.425 1.001-6.366 3.094-7.969l-0.344 1.625 0.25 0.156 0.75-2.156c0.327-0.153 0.671-0.269 1.063-0.312zm45.656 23c0.145 0 0.291 0.023 0.438 0.031 0.003 0.021-0.004 0.042 0 0.063h-0.031c0.145 1.176 0.291 2.216 0.656 3.187 0.125 0.333 0.277 0.658 0.468 0.969-0.779 0.161-1.598 0.504-2.343 0.531-1.177-0.194-1.333-1.095-2.063-2.063-0.375-0.18-0.99-0.848-1.25-1.156 1.094-1.1 2.536-1.568 4.125-1.562zm14.907 1.062c0.647 0.011 1.354 0.803 2.093 1.282 1.549 1.183 1.749 2.694 0.625 4.187-0.979 0.814-2.559 0.387-3.781 0.469-0.623-0.175-1.105-0.524-1.375-1.032-0.011-0.858 0.511-2.465 0.625-3.312 0.554-0.892 1.168-1.605 1.813-1.594zm22.652 1.563c-1.96 0.283-2.79 1.709-3.53 3.406-1.36 2.83-2.88 5.581-4.06 8.5-0.11 3.184 0.39 6.361 0.69 9.531-0.22 1.231-1.22 2.458-1.94 3.563-3.95-12.884-20.926-22.563-41.188-22.563-15.05 0-28.213 5.344-35.624 13.375-0.467-1.369-1.121-2.642-2-3.719v-0.093l-0.126-0.063c-0.82-0.958-1.832-1.752-3.124-2.25l-0.063-0.031h-0.063c-4.957-0.34-5.762 5.366-6.093 9.219-0.737 4.679-3.168 8.822-4.875 13.187-0.415 4.915-0.382 9.836-0.032 14.75l0.032 0.063 0.031 0.062c0.32 0.856 0.705 1.535 1.156 2.094l-2.906-0.906c-1.723 0.487-2.3091 1.655-2.875 3.218-0.0166 1.37 0.924 2 1.938 2.719 2.617 0.327 4.857-0.659 7.031-2-0.138-0.503-0.437-0.952-0.75-1.375 0.694 0.232 1.454 0.378 2.343 0.438 3.339-0.204 6.381-1.315 9.282-2.906l0.062-0.032 0.032-0.062c0.565-0.643 0.968-1.363 1.25-2.125 7.428 7.847 20.395 13.081 35.187 13.125-0.07 0.576-0.124 1.179-0.156 1.812-1.166 0.121-2.002 1.119-2.844 1.719-1.396 0.805-1.935 1.255-2.25 2.715 0.38 2 1.828 3 3.719 3.1 1.811 0.02 3.811-1.16 5-2.19 2.15 0.63 4.482 0.51 6.625 1.34 2.019 1 4.191 0.81 6.343 0.35 1.897-0.67 3.46-2.14 4.126-4.41 1.36-0.16 2.629-0.505 3.624-1.405 0.161-1.044 0.009-2.184-0.062-3.25-0.155-0.545-0.754-0.573-1.219-0.75-1.277-0.002-2.451-0.076-3.687-0.344-0.209-0.523-0.427-1.049-0.656-1.562 11.949-3.934 20.742-11.566 23.062-20.688 0.61 1.242 1.58 2.286 3.06 3 3.12 1.183 6.08 1.768 9.35 1.031 0.22-0.133 0.45-0.253 0.65-0.406 0.74 0.794 1.37 1.166 2.44 1 1.51-0.415 3.31 0.157 4.37-1.75-0.85-1.001-1.76-1.97-1-3.781-0.98-0.634-1.96-0.614-2.96-0.5 0.39-2.165 0.18-4.53-0.35-6.531-0.68-2.28-2.13-4.234-2.72-6.563-0.45-3.632 0.8-7.637 0.97-11.437 0.37-2.547 0.4-4.585-0.59-6.969l-0.03-0.063-0.03-0.031c-1.49-1.657-3.05-2.632-4.57-2.562zm0.16 0.219c0.1-0.005 0.21 0.039 0.31 0.062l-1.93 3.719 0.21 3.281 0.19 0.094 0.19-3.25 1.94-3.625c0.82 0.5 1.72 1.591 2.71 2.687 1.17 2.057 0.56 4.18 0.44 6.406-0.36 3.814-0.78 7.576-0.53 11.407 0.5 1.948 1.24 3.822 1.91 5.719l-1.19 3.624-2.56 4.282-1.6 0.375 0.03 0.031 1.47-0.125 3.19-4.375v-0.031l0.03-0.063 0.94-2.812c0.03 0.093 0.06 0.187 0.09 0.281 1.11 3.947 1.02 8.832-2.37 11.313-2.21 0.833-4.7 0.123-7-0.594l3.09 0.062 5.1-1.844 1.03-2.531h-0.03l-1.16 2.063-5.16 1.906-4.78-0.25c-4.05-1.789-3.45-8.498-2.94-12.219 0.62-0.925 1.07-1.894 1.41-2.906 1.09-0.909 2.06-1.739 2.81-3.563l-0.15 0.032c-0.02 1.033-1.36 1.547-2.28 2.218-0.2-3.134-0.61-6.455-0.53-9.593 1.06-2.92 3.07-5.288 4.37-8.188v-0.031-0.031c0.46-1.542 1.36-3.027 2.75-3.531zm-72.938 1.406c0.264-0.024 0.499-0.015 0.688 0.031 0.542 0.631 0.984 2.139 1.375 2.844-0.43 0.386-1.665 0.901-2.437 1.187-0.659 0.3-1.311-0.222-2-0.406 0.229-0.967 0.284-1.997 0.281-3.031 0.565-0.288 1.404-0.562 2.093-0.625zm22.5 1.218c19.999 0.001 37.328 10.333 40.968 23.282h0.06c-0.32 2.913-0.6 6.107 0.32 8.656-1.89 9.252-10.852 16.994-22.972 20.938-0.004-0.009 0.003-0.023 0-0.032-0.515-4.926-0.207-9.874-0.532-14.812-0.047-1.57-0.254-3.109-0.562-4.625l22.066-2.813-25.098-7.594c-0.053-0.223-0.674-2.188-0.75-2.406l4.188-16.375-20.25 13.281-25.594-7.937 13.063 16.031-19.469 12.844c-0.014-0.594-0.027-1.183-0.062-1.781-0.189-3.151-0.487-6.329 0.124-9.094 0.465-4.491 0.09-9.008-0.531-13.469v-0.031c-0.051-0.188-0.099-0.376-0.156-0.563 7.314-8.032 20.433-13.5 35.187-13.5zm17.407 4.594l-4.25 15.656c-0.233-0.296-0.492-0.575-0.844-0.812-1.598 0.017-3.273 0.683-4.344 1.312l-10.312-3.25 19.75-12.906zm-58.25 2.469c0.897 0.357 1.625 0.985 2.25 1.719l1.281 5.406-0.438 4.125-1.281 5.594 0.281 0.093 1.438-4.75 1.219 3.657-1.407 3.562 2-3.312-1.468-5.625 0.281-3.282-0.437-3.156c0.472 1.025 0.832 2.121 1.124 3.188 0.965 4.356 1.142 8.807 1.063 13.25-0.591 3.134-0.728 6.131-0.5 9.281 0.183 3.059 0.03 5.787-1.656 7.75-1.088 0.672-2.214 1.329-3.375 1.875l-1.563-1.156-0.531-1.25-0.438-2.938-0.062-0.125-0.25 3.125 0.094 0.219-2.5 0.219v0.187l2.75 0.125 0.437 0.875 1.281 1.031c-1.474 0.629-2.982 1.101-4.531 1.25-2.656 0.119-3.824-2.144-4.969-4.281-0.632-4.338-0.648-10.049-0.531-14.531 0.578-1.707 1.403-3.287 2.25-4.844-0.43 1.186-0.801 2.313-0.406 4.094l0.281-0.031c-0.339-2.268 0.556-4.122 1.156-6 1.002-1.934 1.886-3.921 2.157-6.25v-0.031-0.032c0.183-3.291 0.938-8.977 5-9.031zm13.125 2.781l24.906 7.782-11.844 8.124-13.062-15.906zm25.25 7.813l10.062 3.312c-1.527 1.202-2.563 3.033-3.437 5.219-1.183 2.696-1.084 5.657-0.938 8.5l-10.031 0.938-7.688-9.907 12.032-8.062zm14 2.531c1.049 0.813 1.408 1.936 1.75 3.156 0.197 1.275 0.913 2.905 1.75 4.125 1.458 3.431 1.862 6.973 2.062 10.719 0.338 4.963 0.354 10.167 0.813 15.125 1.84 1.93 1.703 5.149 1.75 7.125-0.583 1.97-1.844 3.71-3.469 4.28-1.646 0.58-3.675-0.02-5.562-0.78-0.116-0.07-0.226-0.13-0.344-0.19h2.437l3.657-1.78 0.062-0.22 1.906-1.12-0.094-0.16-1.687 0.72 0.687-2.688-0.218-0.124-0.969 3.312-3.5 1.5h-0.094l0.25-2.16-0.062-0.09-0.875 2.25-3.438-0.06c-1.939-0.36-3.986-0.16-5.812-1.13-0.672-0.48-1.594-1.25-2-2.591-0.044-4.616 1.505-7.477 2.562-10.344l0.032-0.094v-0.062c0.054-4.666 0.67-7.139 0.75-11.907-0.078-0.835-0.121-1.651-0.126-2.468l0.094-0.094h-0.094c-0.005-2.67 0.398-5.266 1.313-7.844 0.168-1.138 0.504-2.069 0.969-2.844-0.263 1.281-0.406 2.677-0.282 4.344l0.219-0.062c-0.173-2.18 0.974-4.052 1.625-6.032 1.056-0.804 2.393-1.35 3.938-1.812zm2.75 3.125l24.126 7.25-21.095 2.469c-0.518-1.608-1.268-4.214-1.969-6.125-0.721-1.084-0.863-2.342-1.062-3.594zm-29.063 2.375l7.844 10.25-27.594 2.531 19.75-12.781zm73.129 6.312c0.58-0.021 1.04 0.251 1.37 0.719 0.11 0.756-0.49 1.265 0.63 2.344 0.16 1.53-2.13 1.517-3.41 1.969-0.75 0.184-1.09-0.666-1.62-1.188 1.03-0.977 1.71-2.22 2.09-3.594v-0.031c0.33-0.151 0.66-0.209 0.94-0.219zm-55.129 2.907c0.035 0.663 0.074 1.331 0.094 2-0.062 3.748-0.762 6.393-1.063 9.625l-8.781-10.75 9.75-0.875zm-9.937 1.281l8.937 10.625c-0.047 0.622-0.084 1.265-0.093 1.969-0.742 2.006-1.589 4.138-2 6.906-14.575-0.03-27.659-5.331-35.063-13.188 0.323-1.173 0.421-2.448 0.406-3.75l27.813-2.562zm-46.844 9.656c0.982 0.117 2.605 0.891 3.469 1.344 0.935 0.391 1.27 1.61 1.812 2.438-1.24 0.636-3.114 0.409-4.531 0.937-0.887 0.33 0.403-1.68 0.5-1.844 0.15-0.254-1.59 1.837-1.875 1.844-0.705-0.299-1.282-1.309-1.625-1.875 0.575-1.182 1.09-2.309 2.25-2.844zm73.125 9.813c1.075 0.333 2.422-0.046 3.625 0.093 0.455 0.542 0.349 2.641 0.375 3.407-0.714 0.726-1.95 0.579-2.969 0.719-0.153-1.445-0.528-2.855-1.031-4.219zm-19.687 3.469c-0.001 0.106-0.002 0.204 0 0.312 0.246 1.41 1.167 2.36 2.093 3.38 0.285 0.15 0.581 0.25 0.875 0.37-1.362 0.81-2.7 1.66-4.281 1.75-1.515 0-2.397-0.98-3-2.22-0.043-0.74 0.644-1.82 1.875-2.53 0.733-0.651 1.538-0.893 2.438-1.062z"></path></g><metadata></metadata></svg> 