<?xml version="1.0" encoding="UTF-8" standalone="no"?> <!-- Created with Inkscape (http://www.inkscape.org/) --> <svg xmlns:inkscape="http://www.inkscape.org/namespaces/inkscape" xmlns:rdf="http://www.w3.org/1999/02/22-rdf-syntax-ns#" xmlns="http://www.w3.org/2000/svg" xmlns:sodipodi="http://sodipodi.sourceforge.net/DTD/sodipodi-0.dtd" xmlns:cc="http://creativecommons.org/ns#" xmlns:xlink="http://www.w3.org/1999/xlink" xmlns:dc="http://purl.org/dc/elements/1.1/" xmlns:svg="http://www.w3.org/2000/svg" xmlns:ns1="http://sozi.baierouge.fr" id="svg3216" sodipodi:docname="roym_tortue2.svg" inkscape:export-filename="C:\Documents and Settings\Mario Roy\Mes documents\inkscape\tortue3.png" viewBox="0 0 262.55 424.18" sodipodi:version="0.32" inkscape:export-xdpi="90" inkscape:output_extension="org.inkscape.output.svg.inkscape" inkscape:export-ydpi="90" inkscape:version="0.45+devel" sodipodi:docbase="C:\Documents and Settings\Mario Roy\Mes documents\inkscape"><defs id="defs3218"><linearGradient id="linearGradient7070" y2="198.48" gradientUnits="userSpaceOnUse" x2="668.46" y1="198.48" x1="541.58" inkscape:collect="always"><stop id="stop7066" style="stop-color:#443628;stop-opacity:0" offset="0"></stop><stop id="stop7072" style="stop-color:#967422;stop-opacity:.51546" offset=".5"></stop><stop id="stop7068" style="stop-color:#e8b31c;stop-opacity:0" offset="1"></stop></linearGradient></defs><g id="layer1" inkscape:label="Calque 1" inkscape:groupmode="layer" transform="translate(-232.74 -114.73)"><path id="rect3179" sodipodi:nodetypes="ccccc" style="stroke:#000000;stroke-width:2;fill:#e8b31c" d="m315.72 437.87c4.6 5.44 10.15 10.51 17.68 14.79-9.2 37.83-30.93 42.9-51.36 53.8l-18.99-11.93c29.49-17.43 55.57-36.92 52.67-56.66z"></path><path id="path4294" sodipodi:nodetypes="cccccccc" style="fill-rule:evenodd;stroke:#000000;stroke-width:2;fill:#e8b31c" d="m402.69 453.72c13.23-2.18 20.98 7.02 20.61 17.08-3.85 16.69-6.48 33.62-1.53 45.93 2.98 11.78 39.4 1.46 58.18-1.53 10.12-2.67 20.6-16.28 9.73-28.82-11.23-12.43-32.19 3.35-43.41 5.86 8.24-14.06 5.24-36.94 0-52.06-5.13-9.63-16.62-9.34-26.03-10.72"></path><path id="path6093" sodipodi:rx="62.436611" sodipodi:ry="96.73278" style="stroke:#1b0b0b;stroke-width:2;fill:url(#linearGradient7070)" sodipodi:type="arc" d="m667.46 198.48a62.437 96.733 0 1 1 -124.88 0 62.437 96.733 0 1 1 124.88 0z" transform="matrix(1.0779 -.31854 .34303 1.001 -368.5 360.06)" sodipodi:cy="198.47556" sodipodi:cx="605.01959"></path><path id="path3246" sodipodi:nodetypes="cccccccsccc" style="stroke:#000000;stroke-width:2;fill:#e8b31c" d="m335.66 169.86c-25.03 0.71-53.23 12.06-63 36.83-5.55 16.13 4.31 33.92 19.08 41.09 8.24 5.69 22.66 3.68 19.84 17.27 1.84 7.41-5.17 29.13 6.77 23.83 10.71-4.11 33.63-4.61 27.06-20.68-1.7-8.4 0.42-11.61 9.6-17.71 9.37-3.59 22.48-2.59 30.22 0.27 14.4 5.32 18.97-27.15 14.29-42.66-2.85-18.12-19.04-29.66-35.28-34.47-8.7-2.88-19.44-4-28.58-3.77z"></path><path id="path4284" sodipodi:nodetypes="cccccccccc" style="fill-rule:evenodd;stroke:#000000;stroke-width:2;fill:#e8b31c" d="m373.03 295.57c3.53 26.17 25.85 38.97 47.79 51.99 27.75-8.91 38.28-23.56 50.42-37.67l-5.46 6.52 9.72 10.36c5.76 5.44 12.04-5.85 12.14-12.42-0.57-13.63-10.26-30.65-18.94-28.05-19.39 7.04-37.5 14.1-45.68 32.53-4.35-17.27-21.54-29.04-44.69-38.26-6.58-1.65-7.02 3.75-5.3 15z"></path><path id="path4292" style="stroke:#000000;stroke-width:2;fill:#e8b31c" d="m287.85 500.4c-0.01-5.88-0.65-11.78-2.12-17.48-1.87-6.86-4.72-14.15-10.79-18.35-3.85-2.72-9.3-1.93-12.62 1.27-6.02 5.59-8.59 13.81-10.1 21.67-2.09 12.45-1.43 25.65 3.36 37.43 2.35 5.4 5.92 11.28 12.02 12.78 5.41 1.16 10.19-2.98 12.87-7.26 5.57-8.92 7.28-19.7 7.38-30.06z"></path><path id="path4303" sodipodi:nodetypes="cccccsscc" style="fill-rule:evenodd;stroke:#000000;stroke-width:2;fill:#e8b31c" d="m281.3 306.55c-12.19 4.31-33.32 13.84-38.24 25.44-2.91 20.34-4.43 41.24-1.63 58.72-15.3 11.76-3.74 21.33 0.29 22.03 2.31 3.05 25.93 3.73 37.08-8.9 8.1-7.43-3.93-23.09-14.14-17.99-1.1 0.55 8.54-4.75-1.54 0.87-2.27 1.27 8.73-49.95 0-44.36l13.07-9.83"></path><path id="path4309" sodipodi:nodetypes="cc" style="stroke:#000000;stroke-width:1px;fill:none" d="m350.6 170.84c20.27 3.69 51.38 60.65 3.02 80.84"></path><path id="path4314" sodipodi:nodetypes="cc" style="stroke:#000000;stroke-width:1px;fill:none" d="m353.05 251.29c-17.33-0.72-9.93-16.97-24.25-24.24"></path><path id="path4316" sodipodi:nodetypes="cc" style="stroke:#000000;stroke-width:1px;fill:none" d="m318.2 230.1c2.46-12.14 8.73-12.87 15.15-13.13"></path><path id="path4318" sodipodi:rx="1.767767" sodipodi:ry="2.5253813" style="stroke:#000000;fill:#000000" sodipodi:type="arc" d="m346.48 225.55a1.7678 2.5254 0 1 1 -3.53 0 1.7678 2.5254 0 1 1 3.53 0z" inkscape:transform-center-x="-5.5558391" transform="translate(-15.152 2.0203)" sodipodi:cy="225.55231" sodipodi:cx="344.71457"></path><path id="path4320" sodipodi:rx="4.2931485" sodipodi:ry="7.0710678" style="stroke:#000000;fill:#ffffff" sodipodi:type="arc" d="m354.06 188.18a4.2931 7.0711 0 1 1 -8.59 0 4.2931 7.0711 0 1 1 8.59 0z" transform="matrix(.93320 -.35936 .35936 .93320 -44.259 138.26)" sodipodi:cy="188.17667" sodipodi:cx="349.76532"></path><path id="path4322" sodipodi:rx="1.5152289" sodipodi:ry="3.0304577" style="stroke:#000000;fill:#000000" sodipodi:type="arc" d="m199 282.12a1.5152 3.0305 0 1 1 -3.03 0 1.5152 3.0305 0 1 1 3.03 0z" transform="translate(153.54 -90.409)" sodipodi:cy="282.12085" sodipodi:cx="197.48483"></path><path id="path4326" sodipodi:nodetypes="ccccccccc" style="fill-rule:evenodd;stroke:#000000;stroke-width:2;fill:#7765ee" d="m297.16 115.88c-21.23 4.01-37.73 12.07-45.88 27.28 12.01 11.84 23.95 10.21 32 40.96l0.94-0.4c-3.64 3-6.99 6.52-9.88 10.72 14.19-19.44 49.53-28.13 65.05-31.19-4.78 0.41-10.32 2.76-12.5 2.67l0.3-0.42c-20.73-10.95-19.61-33.95-30.03-49.62z"></path><path id="path4328" style="stroke:#000000;stroke-width:2;fill:none" d="m251.29 143.15l-2.17 4.47"></path><path id="path4330" sodipodi:nodetypes="cc" style="stroke:#000000;stroke-width:2;fill:none" d="m296.16 116.3c2.32-0.64 4.33-0.73 6.07-0.3"></path></g><metadata></metadata></svg> 