<?xml version="1.0" encoding="UTF-8" standalone="no"?> <!-- Generator: Adobe Illustrator 13.0.2, SVG Export Plug-In . SVG Version: 6.00 Build 14948) --> <svg xmlns:rdf="http://www.w3.org/1999/02/22-rdf-syntax-ns#" xmlns="http://www.w3.org/2000/svg" xmlns:cc="http://web.resource.org/cc/" xmlns:xlink="http://www.w3.org/1999/xlink" xmlns:dc="http://purl.org/dc/elements/1.1/" xmlns:svg="http://www.w3.org/2000/svg" xmlns:inkscape="http://www.inkscape.org/namespaces/inkscape" xmlns:sodipodi="http://sodipodi.sourceforge.net/DTD/sodipodi-0.dtd" xmlns:ns1="http://sozi.baierouge.fr" id="Saint_George_xA0_Image_1_" style="enable-background:new 0 0 158.64 371.52" xml:space="preserve" viewBox="0 0 158.64 371.52" y="0px" x="0px"> <g> <path style="clip-rule:evenodd;fill-rule:evenodd" d="m71.52 9.84c-0.202 0.927-1.006 2.23-1.92 1.68 0.122-1.078 1.021-1.379 1.92-1.68z"></path> <path style="clip-rule:evenodd;fill-rule:evenodd" d="m81.6 10.8v0.48c-0.549 0.571-1.221 1.019-1.92 1.439-0.789-1.219 0.453-2.185 1.92-1.919z"></path> <path style="clip-rule:evenodd;fill-rule:evenodd" d="m84 11.28c0.02 0.899 0.183 1.942-0.96 1.68-0.094-0.974 0.087-1.672 0.96-1.68z"></path> <path style="clip-rule:evenodd;fill-rule:evenodd" d="m77.52 12.96c0.196 0.916-0.511 0.929-0.96 1.2-0.32 0.4 0.087 1.527-0.72 1.44-0.279-1.625 0.405-3.344 1.68-2.64z"></path> <path style="clip-rule:evenodd;fill-rule:evenodd" d="m79.68 13.2c-0.09 1.35-1.412 1.468-1.44 2.88-1.037-0.762-0.07-3.124 1.44-2.88z"></path> <path style="clip-rule:evenodd;fill-rule:evenodd" d="m72.48 15.6c-0.115 0.765-0.297 1.463-0.96 1.68-0.463-0.583 0.204-1.573 0.96-1.68z"></path> <path style="clip-rule:evenodd;fill-rule:evenodd" d="m100.08 25.92c0.104 1.063-0.399 1.52-1.199 1.68 0.044-0.915 0.34-1.579 1.199-1.68z"></path> <path style="clip-rule:evenodd;fill-rule:evenodd" d="m80.88 31.2c-1.365 0.025-2.16-1.963-4.081-2.4-1.082-0.246-2.142 0.372-3.36-0.24 0.02-0.38-0.115-0.916 0.24-0.96 2.759-0.1 6.94 0.408 7.201 3.6z"></path> <path style="clip-rule:evenodd;fill-rule:evenodd" d="m76.56 30.96h0.48c1.948 0.651 0.571 3.227 1.2 5.28-0.986-0.054-1.571-0.509-2.16-0.96-0.595 0.125-0.855 0.585-1.2 0.96-1.535-0.065-2.78-0.42-2.64-2.16 0.843-0.043 0.79 0.811 1.44 0.96 0.714-1.431-1.385-1.919-1.44-3.36 2.241-0.208 3.027 2.208 5.28 1.2 0.046-1.006-1.178-0.742-0.96-1.92z"></path> <path style="clip-rule:evenodd;fill-rule:evenodd" d="m90.72 33.36c-2.648-1.71-5.89-0.082-6.721 2.16 0.755 0.417 2.32 0.682 3.12 1.68 0.5-0.141 0.776-0.504 1.2-0.72 0.189-0.989-1.148-0.451-0.96-1.44 1.967-0.207 1.703 1.817 2.4 2.88-0.987 1.053-2.832 1.562-4.8 0.96-0.237-0.957 0.717-0.723 0.479-1.68 0.103-0.663-0.895-0.226-0.96-0.72-1.824 0.978-0.604 4.569-0.72 6.72-1.049 0.832-3.115 1.24-2.88 2.64-1.112-0.124-0.467-1.294-1.2-2.16 1.365-0.235 2.699-0.501 3.359-1.44-0.668-2.38 0.046-5.372 0-7.92 0.824-0.856 2.161-1.2 2.641-2.4 2.025-0.212 4.676-0.6 5.042 1.44z"></path> <path style="clip-rule:evenodd;fill-rule:evenodd" d="m76.8 40.56h0.96v1.2c0.519-0.201 0.818-0.621 1.68-0.479 0.201 0.519 0.622 0.818 0.48 1.68-1.266-0.548-2.532 0.308-3.36-0.48-0.105-0.826 0.095-1.346 0.24-1.921z"></path> <path style="clip-rule:evenodd;fill-rule:evenodd" d="m74.4 46.8c0.412-1.36 3.457-0.649 4.32-0.24 0.875-0.164-0.051-0.956 0.24-1.92 1.001 0.007 1.081 0.934 0.72 1.68 0.398 1.202 3.092 0.108 2.88 1.92-2.214-0.397-3.649-0.193-5.04-1.2-1.265-0.377-2.639 0.846-3.12-0.24z"></path> <path style="clip-rule:evenodd;fill-rule:evenodd" d="m81.36 49.44c-1.47 0.03-2.884 0.004-3.6-0.72 0.706-0.997 3.479-0.839 3.6 0.72z"></path> <path style="clip-rule:evenodd;fill-rule:evenodd" d="m66.96 51.12h0.72c0.852 0.411 0.941 1.376 1.92 1.92 0.836 0.465 2.842-0.249 2.64 1.44-2.461-0.419-4.908-0.852-5.28-3.36z"></path> <path style="clip-rule:evenodd;fill-rule:evenodd" d="m58.32 63.6c0.929-0.128 1.172 0.428 2.16 0.24 0.139 0.779-0.164 1.117-0.24 1.68h-1.68c-0.488-0.676-0.43-0.985-0.24-1.92z"></path> <path style="clip-rule:evenodd;fill-rule:evenodd" d="m57.84 66.48c0.722-0.242 0.425 0.535 0.48 0.96 0.93 0.209 0.392-1.048 1.44-0.72 0.139 0.779-0.164 1.117-0.24 1.68h-1.68c-0.381-0.511-0.767-1.528 0-1.92z"></path> <path style="clip-rule:evenodd;fill-rule:evenodd" d="m89.28 80.4c-0.014 1.266-0.665 1.896-2.16 1.68-0.572-0.657-0.476-1.45-0.239-2.4 1.121-0.083 1.971 0.108 2.399 0.72z"></path> <path style="clip-rule:evenodd;fill-rule:evenodd" d="m54.72 91.68c-5.267-0.368-10.338 0.675-14.16 0.96-0.117-1.778 3.302-1.474 4.8-1.44 1.581 0.035 3.306-0.702 4.56-0.72 0.389-0.005 0.815 0.266 1.2 0.24 1.236-0.084 3.857-1.398 3.6 0.96z"></path> <path style="clip-rule:evenodd;fill-rule:evenodd" d="m11.04 149.04c1.965 0.727 0.542 3.239 0.72 4.8 0.154 1.343 0.576 2.215 1.2 3.36 0.575 0.095-0.133-1.093 0.72-0.72 1.017 0.823 2.236 1.444 2.64 2.88 1.01 0.19 1.67 0.73 1.92 1.68 2.233 0.602 6.277 1.109 7.92 0.24 0.603-1.542-2.7-1.096-3.6-1.92 1.246-1.397 5.124 0.017 5.28 1.44 0.227 2.067-2.299 1.606-3.84 2.16-0.324 0.636-0.38 1.54-0.96 1.92-1.83-0.056-3.771 0.916-5.76 0-0.995-0.458-1.458-1.83-2.4-3.12-1.188-1.626-3.063-3.469-3.6-4.56-1.102-2.24-0.971-6.02-0.24-8.16zm6.96 14.88c1.672-0.089 3.918 0.829 4.32-0.96-3.982-0.178-6.201-2.119-7.92-4.56-0.284-0.035-0.544-0.427-0.72 0 1.462 1.82 2.864 3.7 4.32 5.52z"></path> <path style="clip-rule:evenodd;fill-rule:evenodd" d="m14.4 152.88h0.72c1.006 3.233 4.899 3.581 8.16 4.56 1.538 0.132 3.082-1.864 4.08-0.72-0.39 1.256-2.518 1.717-4.08 1.68-0.646-0.015-1.5-0.539-2.4-0.72-3.006-0.605-3.223-0.037-5.04-1.92-0.938-0.97-1.909-1.86-1.44-2.88z"></path> <path style="clip-rule:evenodd;fill-rule:evenodd" d="m114 162.48c1.677 0.164 1.078 2.602 1.681 3.84 1.662-0.468 1.217 0.708 2.88 0.24 0.051 1.36-1.143 1.681-1.68 1.68-0.807-0.002-0.368-0.503-1.2-1.2-0.164-0.138-0.856-0.074-0.96-0.24-0.8-1.29-0.61-3.66-0.72-4.32z"></path> <path style="clip-rule:evenodd;fill-rule:evenodd" d="m26.4 164.88c0.83-0.19 1.013 0.267 1.44 0.48-0.566 2.005 0.552 4.126 0 6-2.161-0.48-1.031-4.25-1.44-6.48z"></path> <path style="clip-rule:evenodd;fill-rule:evenodd" d="m121.2 170.16v1.92c-1.104-0.181-1.214 1.333-1.92 0.24-0.372-1.012 1.333 0.053 0.96-0.96-0.66-0.533-1.511 0.082-2.64 0.24v-1.2c1.57-1.22 2.44 0.7 3.6-0.24z"></path> <path style="clip-rule:evenodd;fill-rule:evenodd" d="m27.12 171.84c0.388-0.067 0.413 0.227 0.72 0.24-0.002 4.161 1.761 8.852 0.72 12.48-1.325-1.333-1.106-4.765-1.44-7.44-0.173-1.39-1.097-3.94 0-5.28z"></path> <path style="clip-rule:evenodd;fill-rule:evenodd" d="m59.28 175.44c0.388-0.067 0.414 0.227 0.72 0.24-1.261 5.85-1.745 12.747-2.64 19.44-0.699 5.224-1.44 9.901-1.44 15.6 0 1.458 0.691 3.735-0.96 4.8-0.156-14.35 2.083-27.43 4.32-40.08z"></path> <path style="clip-rule:evenodd;fill-rule:evenodd" d="m122.4 183.12c0.214 0.106 0.43 0.21 0.48 0.48-4.088 7.222-5.877 16.65-5.761 26.88-1.308-0.919-0.72-3.031-0.72-4.561 0-3.296 0.253-5.476 0.72-7.92 0.176-0.916 0.055-2.052 0.24-2.88 0.39-1.736 1.186-4.109 1.92-6 0.94-2.42 1.86-4.56 3.12-6z"></path> <path style="clip-rule:evenodd;fill-rule:evenodd" d="m78.96 184.8c-0.82 1.715-3.284 1.525-5.04 2.16-1.781 0.645-3.097 2.2-4.56 2.16 1.128-2.232 3.546-3.174 6.48-3.6 0.694-0.51 2.041-1.37 3.12-0.72z"></path> <path style="clip-rule:evenodd;fill-rule:evenodd" d="m28.56 184.8h0.48c1.84 0.662 1.696 3.473 1.92 5.521 0.824 7.531 1.232 15.131 2.16 22.8 0.155 1.285 0.386 2.637 0.72 4.08 0.245 1.057 0.228 2.733 0.48 4.319 0.177 1.11 0.707 2.209 0.96 3.36 0.12 0.543-0.117 1.102 0 1.68 0.097 0.479 0.632 0.985 0.72 1.44 0.778 4.04 1.256 8.354 2.64 12.24 0.68 1.911 2.431 5.156 2.4 7.92-1.63-0.349-1.497-2.354-1.92-3.601-0.203-0.596-0.468-1.277-0.72-1.92-0.678-1.73-1.335-3.874-1.92-6.479-0.699-3.115-1.255-6.206-1.92-9.601-0.138-0.704-0.262-1.674-0.48-2.399-0.206-0.686-0.809-1.243-0.96-1.92-0.413-1.851-0.136-3.874-0.24-5.76-0.263-4.739-1.22-9.64-1.68-14.641-0.46-5.003-0.885-10.068-1.44-14.88-0.095-1.02-1.24-1-1.2-2.16z"></path> <path style="clip-rule:evenodd;fill-rule:evenodd" d="m26.64 185.04c0.113 0.753-0.646 0.634-0.72 1.2-0.422-0.058-0.547-0.413-0.48-0.96 0.279-0.2 0.643-0.32 1.2-0.24z"></path> <path style="clip-rule:evenodd;fill-rule:evenodd" d="m23.76 185.76c-0.304 0.656-0.963 0.957-1.44 1.44-0.494-0.307-1.217-0.383-1.2-1.2 1.349 0.42 1.914-0.79 2.64-0.24z"></path> <path style="clip-rule:evenodd;fill-rule:evenodd" d="m104.88 187.92c1.82 0.93 2.148 3.382 2.88 5.28 0.72 1.869 1.578 3.81 2.16 5.76 0.629 2.11 1.077 4.361 1.68 6.48 0.588 2.07 1.589 4.15 1.2 6.239-3.379-7.342-3.921-17.52-8.641-23.52 0.19-0.13 0.39-0.25 0.72-0.24z"></path> <path style="clip-rule:evenodd;fill-rule:evenodd" d="m27.84 189.6c0.388-0.067 0.414 0.228 0.72 0.24 1.85 7.613 1.505 18.565 3.12 27.12 0.199 1.054 0.841 2.069 0.96 3.12 0.072 0.634-0.264 1.55-0.24 2.16 0.069 1.759 0.583 3.935 0.96 5.76 0.379 1.836 0.839 3.715 1.2 5.52 0.797 3.982 1.087 8.08 1.68 11.761 0.25 1.55 1.221 2.987 1.2 4.56-1.594-0.461-1.437-2.382-1.68-3.6-0.841-4.22-0.906-9.283-1.92-13.92-0.252-1.155-0.937-2.207-1.2-3.36-0.6-2.626-0.485-5.513-0.96-8.16-0.13-0.726-0.598-1.447-0.72-2.16-0.187-1.095 0.137-2.257 0-3.359-0.255-2.062-0.777-4.04-0.96-6.24-0.336-4.035-1.021-8.229-1.44-12.48-0.216-2.192-0.482-4.125-0.96-6.239-0.068-0.39 0.227-0.41 0.24-0.72z"></path> <path style="clip-rule:evenodd;fill-rule:evenodd" d="m24.24 252c-1.032-0.638-0.542-1.898-0.48-2.64 0.444-5.311 0.902-12.08 0.72-18.721-0.104-3.797-0.518-7.587-0.72-11.52-0.3-5.855 0.15-11.836-0.24-17.28-0.088-1.233-0.562-2.627-0.72-4.08-0.182-1.668 0.095-3.079-0.48-4.56-0.044-0.204 0.094-0.227 0.24-0.24 0.213-0.147 0.429-0.29 0.48 0 0.194 0.046 0.239 0.241 0.48 0.24 1.611 8.188 0.995 17.037 1.44 25.68 0.499 9.687 0.609 19.476 0 29.28-0.076 1.22 0.487 2.91-0.72 3.84z"></path> <path style="clip-rule:evenodd;fill-rule:evenodd" d="m99.36 245.28h0.72c-0.236 4.323-0.849 8.271-1.92 11.76-1.184 0.062-0.329-1.417-0.239-1.92 0.496-2.789 1.411-5.713 1.439-9.12v-0.72z"></path> <path style="clip-rule:evenodd;fill-rule:evenodd" d="m109.2 282.48c0.886-0.006 1.653 0.107 1.681 0.96-0.575 0.145-1.096 0.345-1.92 0.239-0.08-0.56 0.04-0.92 0.24-1.2z"></path> <path style="clip-rule:evenodd;fill-rule:evenodd" d="m108.24 284.16c-0.994 0.493-2.436-0.372-3.6-0.48-1.446 0.074-0.808 2.233-2.641 1.92-0.713-1.356 0.988-2.151 1.681-2.88 1.4 0.6 4.51-0.51 4.56 1.44z"></path> <path style="clip-rule:evenodd;fill-rule:evenodd" d="m116.88 287.52c-0.869 0.572-1.492-0.809-2.641-0.72-0.941-0.062-0.892 0.868-1.92 0.72-1.02-2.58 4.6-2.39 4.56 0z"></path> <path style="clip-rule:evenodd;fill-rule:evenodd" d="m114.96 288.96c0.512 0.701 1.442 2.115 0.479 2.88-0.692-0.188-0.599-1.161-0.96-1.68-1.373-0.333-1.53 0.55-2.4 0.72-0.93-1.64 1.08-2.22 2.88-1.92z"></path> <path style="clip-rule:evenodd;fill-rule:evenodd" d="m113.76 296.88c-1.213-0.241-0.016-2.046-1.2-2.64-0.988-0.188-1.231 0.368-2.16 0.24 0.67-3.58 5.42-0.14 3.36 2.4z"></path> <path style="clip-rule:evenodd;fill-rule:evenodd" d="m113.04 300.48c-1.207-0.023-0.099-0.971-0.96-1.44-0.979 0.062-1.185 0.895-2.399 0.72-0.08-2.88 5.35-1.44 3.36 0.72z"></path> <path style="clip-rule:evenodd;fill-rule:evenodd" d="m111.6 302.4c-0.691-0.029-1.571 0.131-1.92-0.24-0.1-1.35 2.26-1.24 1.92 0.24z"></path> <path style="clip-rule:evenodd;fill-rule:evenodd" d="m92.16 318c-3.246 0.446-4.88-0.72-5.279-3.12-0.526-0.837-1.334-0.302-1.681-0.96 0.132-4.389 7.338-5.871 8.4-1.439-0.211 2.11-0.63 4.01-1.44 5.52zm-5.76-4.8c1.438-0.483 2.384-1.456 4.561-1.2 0.706 0.334 0.815 1.264 1.92 1.2-0.47-3.78-5.513-2.62-6.481 0zm3.12 0.24c0.321 0.428 1.389 0.742 1.92 0.239-0.149-0.73-0.533-1.227-1.44-1.199-0.125 0.36-0.355 0.6-0.48 0.96zm0.48 1.2c-0.803-0.631-1.58-2.194-2.88-0.96 0.425 2.118 1.967 4.189 4.801 3.12-0.285-1.089 0.892-1.438 0.239-2.16-0.534-0.5-1.158 0.25-2.16 0z"></path> <path style="clip-rule:evenodd;fill-rule:evenodd" d="m102.72 315.84c0.094 1.039-1.38 2.301-0.48 2.641-1.756-0.328-4.215 0.914-6 0.239-1.069-0.404-1.239-1.641-2.16-2.16 0.601-2.568 3.012-5.645 6-4.8 1.67 0.47 1.5 2.65 2.64 4.08zm-4.8-3.12c-0.921 1.08-2.561 1.439-2.881 3.12 1.866-0.523 3.331-2.495 5.761-1.68 0.3-1.74-1.462-1.42-2.88-1.44zm0.72 2.16v0.72c0.625 0.506 2.125 0.349 1.68-0.96-0.638 0-1.37-0.09-1.68 0.24zm0.24 1.68c-0.946 0.066-0.734-1.025-1.681-0.96-0.653 0.387-1.508 0.572-1.439 1.681 1.796 0.871 6.548 1.33 6.239-1.92-1.82-0.38-1.21 1.67-3.12 1.2z"></path> <path style="clip-rule:evenodd;fill-rule:evenodd" d="m121.2 317.76c0.388-0.067 0.413 0.227 0.721 0.24 0.215 1.096-0.4 1.36-0.48 2.16 0.143 3.852-0.716 6.894-0.72 10.8-0.002 1.19 1.06 3.197-0.721 3.84-1.016-1.852-0.433-4.694-0.239-6.72 0.328-3.442-0.218-7.113 1.2-9.6-0.07-0.39 0.23-0.41 0.24-0.72z"></path> <path style="clip-rule:evenodd;fill-rule:evenodd" d="m91.92 318.48h0.72c0.257 1.502-0.175 4.271-2.4 4.079 0.198-1.72 1.622-2.22 1.68-4.08z"></path> <path style="clip-rule:evenodd;fill-rule:evenodd" d="m88.32 324.48c-1.213-0.174-1.729 0.351-2.16 0.96 0.242 0.558 0.826 0.773 1.681 0.72 0.498-0.062 0.065-1.055 0.479-1.2 1.618 0.302 2.256 1.584 2.641 3.12 1.657 0.011 1.938-2.478 3.359-1.92 0.95 0.09 0.827 1.253 1.2 1.92 0.904 0.104 1.093-0.507 1.44-0.96 0.2-1.801-1.565-1.635-1.44-3.36 1.756-0.051 2.837 2.605 2.16 4.561-0.562 0.638-1.672 0.729-2.641 0.96-0.341-0.539-0.179-1.582-0.96-1.681-1.362 0.238-1.387 1.813-2.64 2.16-2.165 0.085-1.042-3.117-2.88-3.359-0.722-0.242-0.426 0.534-0.48 0.96-1.767 0.246-2.447-0.593-3.119-1.44-0.046-1.72 2.659-4.05 3.36-1.44z"></path> <path style="clip-rule:evenodd;fill-rule:evenodd" d="m90.48 334.08c2.875-0.353 6.141-1.473 6.72 1.68 0.493 2.683-2.155 3.96-2.399 6.721-1.248 1.232-2.419 2.541-3.601 3.84-1.506-0.087-2.058 1.005-3.12 0.96-3.815-0.163-5.381-8.363-4.56-12.721 0.271-1.438 2.425-3.105 4.8-2.399 0.959 0.28 0.707 1.39 2.16 1.92zm1.68 1.68c-2.589-0.019-3.913-3.511-6-1.68 1.942 1.178 0.642 5.599 1.681 7.68 4.816 1.501 4.079-4.534 7.199-5.52 0.481 0.478-0.075 1.143-0.239 1.68 0.756-0.5 1.542-1.509 0.96-2.64-1.624-0.86-2.252 0.49-3.601 0.48zm-7.68 1.68c-0.104 3.648 0.562 7.97 2.88 8.399 1.134 0.21 3.37-0.771 4.32-1.68 0.357-0.343 0.482-1.196 0.96-1.92 0.86-1.305 2.225-2.585 1.92-4.08-0.68 2.418-3.248 5.734-6.24 5.04-3.371-0.782-0.14-7.309-3.359-8.641-0.846 0.53-0.454 1.94-0.481 2.88z"></path> <path style="clip-rule:evenodd;fill-rule:evenodd" d="m120.72 335.76c0.211 0.771-0.791 0.329-0.721 0.96-0.127 1.328 1.587 1.822 0.721 3.12-1-0.04-0.838-1.242-1.44-1.68-0.672 0.235 0.349 0.641-0.24 0.96-0.601 0.04-0.751-0.369-0.96-0.72 0.75-0.87 1.15-4.75 2.64-2.64z"></path> <path style="clip-rule:evenodd;fill-rule:evenodd" d="m126 335.76c0.315 0.085 0.378 0.423 0.721 0.48-0.752 1.328-0.711 3.449-2.4 3.84-0.24-1.42 1.21-2.85 1.68-4.32z"></path> <path style="clip-rule:evenodd;fill-rule:evenodd" d="m122.88 343.2c0.501-0.102 0.635 0.164 0.96 0.24-0.631 2.782-4.914 2.673-6.96 4.319-1.369-0.137-2.637 0.936-3.841 1.2-2.615 0.575-5.237 0.37-7.68 1.2-2.96 1.006-5.464 2.567-8.16 3.6-3.139-0.626-6.187 0.451-9.12 0.48-1.526 0.015-3.486-0.306-5.279 0.24-0.746 0.227-1.197 0.902-1.92 1.199-0.885 0.364-2.156 0.418-3.36 0.721-2.887 0.726-4.135 1.1-7.44 0.479-2.367-0.444-4.018-1.572-6.96-1.92-1.769-0.209-5.569-0.948-8.16-0.479-1.036 0.187-2.253 0.874-3.6 1.199-2.309 0.56-4.309 0.724-6.72 1.2-1.948-1.515-5.254-1.448-8.16-2.399-0.695-0.229-1.491-0.813-2.16-0.961-0.651-0.143-1.364 0.176-1.92 0-0.749-0.236-1.445-1.056-2.16-1.199-0.644-0.13-1.183 0.154-1.68 0-2.421-0.752-4.791-2.2-6.24-3.84 1.7-0.339 2.743 1.232 4.32 1.92 3.713 1.617 8.426 2.184 12.24 3.84 0.917 0.214 1.532-0.392 1.92 0 3.062 1.789 7.233 1.18 11.52 0 1.418-0.391 3.05-1.211 5.28-1.2 5.887 0.029 11.189 3.295 16.8 2.88 3.675-0.271 7.562-2.747 11.521-3.12 1.662-0.156 4.015-0.132 6.239-0.24 1.508-0.072 3.213 0.159 4.32 0 2.414-0.346 5.149-2.131 7.92-3.119 2.951-1.054 6.324-1.178 9.12-1.921 1.326-0.352 3.057-1.082 4.56-1.68 2.2-0.87 3.59-1.54 4.8-2.64z"></path> <path style="clip-rule:evenodd;fill-rule:evenodd" d="m81.84 56.88c-0.46 1.522-0.407 3.933 1.439 4.32-0.273 2.113 0.509 3.171 0.48 5.04 0.814 0.834 1.388-1.031 2.16-0.24 1.068 0.132 1.229 1.171 1.68 1.92 2.179-0.76 3.252-4.569 5.52-4.32 1.749 0.192 1.786 2.806 3.12 4.08 2.564-0.485 2.99 1.169 4.08 2.16 1.388 0.107 1.196-1.363 2.4-1.44 2.292 1.011 3.442 2.754 4.8 5.04 0.271 0.455 0.806 0.644 0.96 0.96 0.318 0.651 0.294 1.521 0.72 2.16 1.068 1.603 3.055 2.669 4.561 3.84 1.605 1.25 2.779 2.799 4.56 3.6 1.764 3.116 4.075 5.686 6.24 8.4-2.272 0.899-3.153-1.412-4.32-3.12-0.955-1.399-2.006-2.57-2.399-3.6-2.302-1.966-4.869-4.169-7.44-6.24-1.013-0.816-2.235-1.553-2.88-2.64-1.17-1.972-0.944-4.359-3.12-5.76-1.174 0.346-1.478 1.562-2.16 2.4-1.818 0.938-3.76 2.419-5.279 4.08-3.462 3.781-7.033 9.646-4.32 17.04 0.238 0.649 0.826 1.627 1.439 2.64 0.995 1.641 1.966 2.809 3.36 4.32 0.652 0.707 1.15 1.645 1.68 2.16 0.638 0.62 1.889 1.073 2.641 1.68 2.317 1.873 5.51 4.967 9.6 4.56-0.64-5.517-1.799-11.012-1.92-17.28-0.015-0.747-0.65-1.801 0.24-2.16 1.333 0.493 0.627 2.384 0.72 3.36 0.47 4.918 1.311 10.589 2.16 15.12 4.717-4.163 8.412-9.348 15.6-11.04 0.131-1.92-2.448-3.129-3.359-4.8 0.525-0.685 2.094 1.014 2.88 1.68 1.039 0.881 2.241 1.83 2.64 2.88 0.257 1.457-1.479 0.921-1.68 1.92 2.267 3.653 3.65 8.189 5.28 12.48 0.562 0.383 1.671-0.716 2.64 0 2.198 3.082 3.261 7.299 3.84 12 1.455-0.146 1.055-2.145 2.4-2.4 1.547 1.063 0.194 3.542-0.48 4.56 0.764 0.494 2.027-1.231 3.36-0.24-0.063 1.457-0.258 2.783-2.16 2.4-0.915-1.035 1.498-0.278 1.2-1.44-1.247-0.917-1.829 0.884-3.12 0.72 1.713 5.339 7.497 7.299 6.72 14.4-0.908 0.454-1.299 0.336-2.399 0.24 0.798 6.296 1.781 14.994 2.64 21.6 0.307 2.364 0.021 4.67 0.24 6.72 0.071 0.668 0.618 1.435 0.72 2.16 0.167 1.193-0.203 2.32 0.24 3.6 0.502 1.453 2.033 2.193 1.439 3.6-0.434 1.028-2.298 1.209-2.88 1.68-0.002 2.78 1.807 6.007 1.92 9.36 0.042 1.226-0.313 2.617-0.24 3.84 0.188 3.127 1.59 5.748-0.479 7.92-3.667 0.414-3.514 4.815-4.08 9.12-0.371 2.821-1.075 6.188-2.4 6.48-0.661 0.146-1.272-0.53-1.92-0.24-0.104-1.495-0.937-2.264-1.68-3.12 0.352-4.09-0.384-9.014-1.44-12.48-1.192 2.261-2.524 5.617-6.239 4.561-0.578-2.534 1.61-4.486 2.16-6.72 0.223-0.906 0.004-1.894 0.239-2.881 0.137-0.568 0.624-1.088 0.721-1.68 0.823-5.088-0.332-10.836 3.359-13.68-0.039-1.081-1.484-0.755-1.439-1.92 0.337-5.134-2.076-9.295-3.601-14.4-0.577-1.935-1.015-3.872-1.68-5.76-0.818-2.325-1.701-3.631-2.16-6.48-0.666-4.141-3.05-7.498-4.56-10.8-0.322-5.664-2.907-10.13-5.521-14.16-0.563-0.869-1.473-1.505-1.92-2.4-0.509-1.019-0.84-2.817-1.439-4.08-1.756-3.699-2.792-7.51-5.28-11.04-0.651 1.935 0.389 4.248 0.72 6 0.101 0.539 1.273 0.006 1.44 0.48-0.264 2.026 0.384 4.411 0.239 5.52 0.231 1.271-1.272 0.807-1.439 1.68-0.274 1.853-0.886 3.913 0.72 4.56-0.229 3.69-1.385 6.456-3.12 8.64 0.865 1.747 2.056 1.765 3.84 1.68 0.771 0.989 1.273 2.247 1.921 3.36 0.474 1.224-1.106 1.026-0.48 1.68 0.079 1.121 0.965 1.435 1.92 1.68 1.121 2.399 3.068 3.972 3.36 7.2 0.57 0.469 0.864 1.215 1.92 1.2 1.765 4.114 3.78 10.137 2.64 15.6 0.887 0.711 1.294-0.66 2.641-0.24 2.204 5.198 1.869 14.721 2.88 21.6 0.123 0.84 0.84 1.479 0.239 2.4-1.604 0.739-2.162-1.3-2.64-2.641-0.488-1.37-1.049-3.17-0.96-4.079 1.322 0.357 1.495 1.865 1.92 3.119 0.041-3.445-0.763-8.201-1.2-12.72-0.22-2.274 0.177-4.639-0.96-6.48-0.984 0.756-0.108 2.071 0 3.12 0.35 3.373 0.401 7.715 0.48 11.52-3.247 5-2.44 14.308-4.32 21.12-1.175 4.257-3.395 7.48-6.72 9.6-1.505 0.145-2.539-0.182-3.84-0.239-0.828 6.397-1.446 12.712-2.16 19.199 1.049 0.883 2.14 0.376 2.88 1.44 0.581 0.835 0.609 2.919 0.479 4.32-0.228 2.47-1.709 5.272-2.399 6.239 0.492 1.107 2.009 1.191 1.439 3.36-1.119 1.04-3.674 0.646-4.319 2.16 0.998 0.922 3.619 0.22 3.12 2.64-0.186 1.175-2.034 0.687-2.881 1.2 0.763 2.319 1.862 5.528 1.921 8.64 0.034 1.87 0.171 4.244-1.2 5.28-2.721 0.24-2.027-2.934-3.36-4.08-1.245 1.715-0.391 3.86-0.96 6.24-0.135 0.563-0.544 0.861-0.72 1.439-0.224 0.732-0.038 1.66-0.24 2.4-0.566 2.07-1.938 3.896-2.64 6-0.208 0.622-0.039 1.52-0.24 2.16-0.146 0.465-0.616 0.74-0.72 1.2-0.259 1.142-0.017 2.263-0.24 3.359-0.111 0.548-0.559 0.902-0.72 1.44-0.368 1.229-0.193 2.756-0.48 4.08-0.444 2.048-1.297 4.156-1.439 6.479 0.364 0.755 1.749 0.491 2.64 0.721 1.843 1.438 4.162 2.397 4.56 5.279 1.891-0.942 4.091-3.081 7.44-2.399 1.029 4.808-0.143 11.099-5.521 10.08-1.875 1.264-1.28 3.786-1.92 6.479 0.835-0.388 1.642-1.04 2.16-1.92 0.425-0.719 0.117-2.167 1.2-2.4 0.442 1.534-1.192 2.93-1.68 4.32 1.886-0.114 2.681-1.318 4.08-1.92 1.229-1.41 1.01-4.271 2.64-5.28-0.055 2.346-1.209 3.592-1.92 5.28 0.79-0.01 1.194-0.405 2.16-0.24 1.079-1.258 2.506-2.279 3.359-3.84 0.902-1.648 0.858-3.615 1.681-5.52 0.814 1.292-0.018 4.2-0.721 5.52-0.678 1.272-2.004 2.028-2.64 2.88 1.239 0.514 2.689-0.826 3.84-1.2 0.511-1 1.455-1.939 1.92-3.359 0.685-2.09 0.146-4.681 0.721-6.48 1.987 2.456-0.147 6.808-0.961 8.641 2.396-0.646 3.297-2.784 5.04-4.08 0.945-1.695 1.154-4.127 2.641-5.28 0.025 4.035-2.941 7.132-5.28 9.6-2.361 1.159-4.735 2.305-6.96 3.601-3.235 0.364-5.832 1.368-8.16 2.64-1.676-0.462-2.586 0.973-3.359 0-0.04 0.709-0.168 1.84-0.24 3.12 0.761 1.057 0.975 1.954 1.68 2.88 1.224 1.607 3.255 2.374 4.561 3.84 1.831 2.059 2.242 5.117 4.319 7.2-0.301 0.698-0.559 1.708-1.2 2.16-2.155 1.521-5.984 0.411-8.64-0.24-1.421-0.348-3.073-0.47-3.36-1.439 0.675-0.939 2.263-0.232 3.36 0 2.419 0.512 5.963 2.176 8.16 0-1.146-2.375-2.388-4.652-3.6-6.96-2.497-1.265-4.211-3.31-5.761-5.521-0.663 0.476-0.626 1.373-0.96 2.16-0.248 0.585-0.869 1.259-0.96 1.92-0.139 1.013 0.408 2.069 0.24 3.12-0.108 0.678-0.643 0.897-0.96 1.68-0.729 1.794-0.365 3.434-1.92 4.32-0.143 0.497 0.297 1.576-0.24 1.68 0.239 1.11-1.232 0.932-1.92 1.681-0.527 0.574-0.594 1.513-1.2 2.159-0.457 0.488-1.173 0.594-1.92 1.2-1.189 0.966-1.886 2.007-3.6 2.88-2.146 1.094-3.243 0.908-4.32-0.96-1.668-0.411-2.488-1.671-3.6-2.64 0.034-2.009-0.118-3.269-1.44-4.32 0.278-2.158 0.117-2.971-0.72-4.319 0.195-1.085 0.694-1.866 0.96-2.881-0.579-1.374-0.896-2.558-0.72-3.84 0.188-1.366 1.5-2.223 1.92-3.6 0.619-2.031-0.136-3.64 0.479-6-1.639-0.543-5.932-0.435-4.56-3.84 1.05 0.389 0.618 2.262 2.16 2.16 0.456-1.145 0.171-3.029 0.48-4.32-3.175-0.184-7.099 2.613-8.4 5.28-1.931 3.957 0.2 6.538 4.32 6.96 1.356 0.139 3.106-0.502 4.32 0.479-0.154 1.366-2.662 0.379-3.36 1.2-1.269-0.317-2.007-0.797-3.36-0.48-1.21-0.63-1.852-1.828-3.36-2.159-0.064-1.217-0.41-2.15-0.72-3.12-4.639 0.008-7.107 3.442-11.28 3.12-0.166-1.51 1.643-1.364 2.88-1.92 2.15-0.968 4.93-2.705 8.64-2.641 1.745-3.774 3.938-7.102 8.64-7.92-0.91-1.367-2.665-1.149-3.36-2.88-1.072-2.667 0.447-6.33 1.2-8.64 1.201-0.701 2.3 0.507 3.6 0.479 1.429-10.897-0.356-21.684 0.959-32.16 0.572-4.551 1.832-8.378 2.641-13.439 0.194-1.221 0.637-2.677 0.72-3.84 0.17-2.375-0.65-4.887 0.72-6.96-0.393-1.047-0.333-2.547-0.72-3.601 0.014-0.866 0.599-1.161 0.72-1.92-1.779-11.146-3.25-22.604-4.08-34.08-0.672 0.605-1.183 1.83-1.439 2.88-0.157 0.642 0.116 1.232 0 1.92-0.173 1.023-0.966 2.04-1.2 3.12-0.37 1.707-0.499 3.67-0.96 5.521-0.563 2.261-1.002 3.799-1.44 6.479-0.297 1.819-1.291 3.596-1.44 5.04-0.346 3.339 0.376 7.269-0.24 10.561-0.098 0.524-0.013 1.148-0.72 1.439 0.28 2.97 0.108 7.433-2.4 8.4-0.797 2.322-1.669 4.57-3.12 6.24-0.063 0.702 0.542 0.737 0.48 1.439-1.312 1.397 0.146 3.357-1.2 4.561 0.748 2.337 0.54 4.891 0 7.439 0.191 1.226 1.401 0.006 1.68 0.96 0.417 1.594-0.34 3.722-0.48 5.521-0.071 0.809-1.064 0.695-1.2 1.439-0.924 5.954-2.695 11.026-4.32 16.08-0.229 0.711-0.525 1.474-0.72 2.16-0.228 0.802-0.24 1.635-0.48 2.4-0.595 1.894-1.829 3.744-2.16 5.76-0.181 1.099 0.161 2.259 0 3.359-0.333 2.276-1.519 4.42-1.2 6.96-0.028 0.908 1.403 0.357 1.44 1.2 0.35 1.188-0.21 3.01 0 4.8-2.954 1.687-1.758 7.522-3.12 10.801-0.846 0.434-1.471 1.089-1.44 2.399-0.85 0.421-0.59-0.159-1.44-0.239-1.391 2.448-2.644 5.036-3.84 7.68-1.45 0.911-3.109 2.462-5.28 3.12-1.107 0.335-2.49 0.174-3.84 0.479-2.447 0.554-6.288 1.84-9.84 0.48-1.064-3.31 0.977-4.985 2.4-6.96 0.929-1.29 1.302-2.69 2.4-3.601-0.681-5.47 0.434-9.8-0.96-14.16-0.875 2.958 0.1 7.354-0.24 11.28-0.878-1.316-0.322-3.042-0.48-4.56-0.247-2.381-0.284-6.037-0.48-8.4-0.175-2.12-0.768-4.126-0.96-6.24-0.388-4.278-0.376-8.62-0.96-12.96-0.622-4.623-1.12-11.671-1.44-17.279-0.051-0.888-0.387-2.418 0.48-3.12 0.761 0.49 0.431 1.604 0.48 2.399 0.477 7.739 0.938 18.144 1.92 25.44 0.091 0.678 0.463 1.487 0.48 2.16 0.022 0.858-0.456 1.487-0.48 2.399-0.014 0.533 0.396 1.02 0.48 1.681 0.285 2.25 0.479 4.224 0.96 6.239 0.754-0.358-0.001-1.244 0-2.159 0.004-2.033 0.558-5.628-0.72-7.2 0.464-0.256 0.334-1.105 0.72-1.44-1.141-9.729-1.4-21.704 0.72-30.479-3.112-0.157-6.371 0.432-9.36 0.239 0.034 1.183 1.084 2.389 1.44 3.841 0.12 0.49-0.07 1.178 0 1.68 0.194 1.394 1.017 2.662 1.2 3.84 0.143 0.915-0.1 1.914 0 2.88 0.173 1.675 0.895 4.66 1.2 6.721 0.103 0.695-0.069 1.497 0 2.159 0.395 3.811 1.379 7.621 1.68 11.521 0.183 2.372-0.005 4.813 0.24 7.2 0.564 5.488 1.713 10.853 1.44 16.08-1.262-0.513-0.61-2.146-0.72-3.12-0.208-1.84-0.242-4.019-0.48-6.48-0.249-2.567-1.01-5.068-1.2-7.68-0.125-1.719 0.133-3.525 0-5.28-0.468-6.166-1.83-12.497-2.64-18.479-0.25-1.842-0.446-3.75-0.72-5.521-0.512-3.305-1.901-6.346-2.16-9.36-0.926-0.354-1.788-0.771-2.88-0.96 1.219 4.931 2.6 10.42 3.6 15.841 0.304 1.646 0.97 3.422 1.2 5.04 0.444 3.126-0.196 6.383 0.24 9.6 0.299 2.21 1.062 4.295 1.2 6.479 0.357 5.678 0.781 11.033 1.44 16.801 0.044 0.385-0.284 0.823-0.24 1.199 0.049 0.414 0.476 0.682 0.48 0.961 0.008 0.521-0.502 0.936-0.24 1.439 0.365 1.315 1.871 1.489 2.88 2.16-0.829 1.167-2.712-0.171-3.36-0.72-2.094 1.186-3.498 3.062-5.28 4.56-2.859 0.501-4.355 2.364-6 4.08 0.162 2.432-1.12 5.644-0.72 7.92 0.244 1.39 1.183 1.781 1.68 2.88 5.298 2.02 10.796 5.14 17.52 5.76 1.296 0.12 2.698-0.263 4.08-0.239 1.314 0.021 2.597 0.484 3.84 0.479 3.467-0.013 6.957-0.88 10.56-0.479 2.634 0.292 5.103 1.625 7.68 2.16 1.268 0.263 2.777 0.482 4.08 0.72 2.451 0.446 4.765 0.882 7.68 0.479 4.219-0.582 8.087-2.469 12.24-2.88 0.687-0.067 1.187 0.236 1.92 0.24 3.729 0.021 7.379-1.565 11.04-1.92 3.867-0.374 7.401 0.737 11.04 0 4.048-0.821 8.125-2.552 11.521-4.561 1.451-0.857 3.073-1.833 4.08-2.64 1.292-1.035 1.839-2.414 2.64-3.84-1.032-3.606 0.344-8.53-0.24-12.48-1.306-0.186-1.155 1.085-1.439 1.92-1.073 0.367-1.625 1.256-2.88 1.44-0.423-1.257-1.184-2.177-2.16-2.88-0.154-2.002-1.276-4.496 1.2-4.8 0.667 0.842-0.659 1.295-0.48 2.399 0.497 1.504 0.44 3.56 2.16 3.84 1.298-1.342 2.79-2.49 2.64-5.279-0.039-1-1.242-0.838-1.68-1.44-0.813-3.733 0.106-6.671 0.96-10.08 0.383-1.53 0.543-3.286 0.96-4.8 0.542-1.969 1.495-4.109 2.4-6.24 0.715-1.683 1.484-4.192 2.16-6.479 0.938-3.176 2.765-7.087 1.439-10.32-0.235-0.573-0.793-0.779-1.2-1.439-0.424-0.688-0.417-1.577-0.72-1.921-0.641-0.725-1.859-0.918-2.4-1.68-2.4 0.24-3.709-0.611-4.08-2.399-1.073-1.167-2.79-1.689-3.359-3.36-1.893 0.132-2.604-0.915-4.561-0.72-0.752 0.112-0.676-0.604-0.96-0.96-0.946-0.021-1.572 1.132-2.159 0.72v-2.16c-1.284-0.358-1.37 1.335-2.4 0.48-0.316-2.199 1.513-1.538 2.64-1.44 1.077 0.283 0.8 1.92 1.92 2.16 5.684-0.784 8.787 3.039 11.04 6.479 1.912-0.211 4.028 0.645 5.28 1.92 0.465 0.474 2.381 3.108 2.64 3.841 0.894 2.52 0.149 6.998-0.479 9.84-0.261 1.179-0.612 2.209-1.44 2.88-0.132 2.988-2.675 4.843-2.399 7.439-0.677 0.443-0.989 1.252-1.44 1.921-0.115 4.94-3.624 9.534-2.64 15.6 0.516 0.684 1.631 0.769 1.92 1.68 0.099 1.06-0.065 1.855-0.48 2.4 0.072 0.648 1.01 0.431 1.2 0.96-0.039 1.809 1.288 4.508 0 6 0.098 0.462 0.931 0.189 0.72 0.96-0.132 0.747-0.195 1.563-0.479 2.16 1.183 1.512-0.416 4.105 0.479 5.279-0.078 1.122-1.243 1.156-1.199 2.4-1.42 0.132-2.696 1.144-3.841 1.92-2.717 1.843-5.641 3.244-9.119 4.8-2.754 1.231-6.961 2.472-11.521 2.4-1.738-0.027-3.456-0.592-5.28-0.48-2.146 0.132-4.412 0.832-6.72 1.2-3.834 0.612-7.619 0.779-11.04 1.681-1.304 0.343-2.551 0.439-3.84 0.72-2.514 0.546-4.747 1.554-7.92 1.2-1.816-0.203-3.765-0.841-5.52-1.2-1.922-0.395-3.827-0.521-5.52-0.96-1.619-0.421-3.657-1.292-6.24-1.44-2.834-0.163-4.988 0.613-7.68 0.721-2.23 0.089-4.425-0.249-6.72-0.24-0.562 0.002-1.27-0.182-1.92-0.24-6.416-0.576-13.104-3.489-18.48-6.24-0.533-0.986-1.387-1.653-1.92-2.64 0.153-3.992-0.002-6.99 0.72-10.561 1.754-0.296 2.045-2.161 3.36-3.119 0.957-0.697 2.54-0.814 3.6-1.44 1.792-1.059 2.825-3.251 5.04-3.6-0.531-2.646-0.546-5.036-0.72-8.641-0.172-3.584-0.945-7.229-1.2-10.8-0.068-0.961 0.129-1.951 0-2.88-0.117-0.845-0.555-1.591-0.72-2.4-0.554-2.718-0.123-5.498-0.24-8.88-0.051-1.487-0.695-3.046-0.96-4.56-0.658-3.758-1.091-7.803-1.92-11.28-0.758-3.184-1.854-7.991-2.4-11.76 1.95-1.402 3.001-4.739 6-4.32-0.512-3.628-0.155-9.394-0.48-13.68-0.163-2.143-0.423-4.448-2.16-5.04-1.728 0.346-2.622 0.474-4.56 0.24-0.414-1.064-1.317-1.564-1.44-3.36-0.158-2.309 0.968-5.147 1.2-8.16 0.219-2.844 0.069-6.116 0.24-9.12 0.193-3.394 0.263-6.143 0.48-9.359 0.264-3.898-0.66-8.142-0.24-12.24 0.438-4.268-0.629-9.542-0.72-14.4-0.036-1.919 0.289-3.987 0.24-6-0.072-2.947-1.466-5.934 0.48-7.44-0.728-4.527-0.423-9.481-0.96-14.64-0.108-1.036-0.745-2.522 0.24-3.12 1.675 1.003 0.891 2.587 0.96 4.08 0.099 2.143 0.352 4.756 0.48 7.2 0.068 1.288 0.103 2.363 0.24 4.08 0.16 1.999 0.457 3.03-0.96 4.08 1.116 3.331 0.662 7 0.72 10.8 0.059 3.854 0.598 7.803 0.72 12 0.146 5.045 0.17 11.184-0.24 16.32-0.207 2.6 0.246 5.478 0 8.399-0.19 2.257-0.314 5.643-0.48 8.4-0.201 3.339-1.201 6.548-1.2 8.88 0 2.619 2.223 3.152 4.56 1.92 1.406-0.126 1.208 1.353 2.16 1.681 2.333 0.332 3.518-0.482 4.56-1.44-0.935-1.716-0.503-3.278-0.48-5.52 0.033-3.169-0.779-6.581-0.96-10.08-0.164-3.176 0.112-6.504-0.24-9.601-0.48-4.229-0.984-7.652-1.44-12.479-0.643-6.817-2.364-13.827-2.16-21.36 1.45 0.232 1.138 2.372 1.2 3.36 0.739 11.871 2.887 22.975 3.6 35.279 0.266 4.593 0.348 9.362 0.72 13.44 0.261 2.857-0.436 5.317 1.2 7.44 2.66 0.419 3.209-1.271 4.08-2.641 1.742 0.636 2.973-0.492 3.36-1.92 1.983 0.703 0.137 3.539-1.92 3.12-1.144 1.531-3.534 3.713-6.24 2.16-1.199 0.451-2.026 2.111-3.84 1.2-0.409 3.558 0.249 9.183 0.48 14.159 0.138 2.96-0.773 6.445 1.44 6.961 1.941 0.451 3.669-2.133 3.84-3.12 0.151-0.876-0.392-2.153-0.48-3.36-0.085-1.172 0.085-2.565 0-3.84-0.215-3.205-1.265-7.502-0.72-11.04 1.027-0.077 0.893 1.425 0.96 1.92 0.189 1.397-0.096 3.127 0 4.56 0.233 3.478 0.934 7.104 0.96 10.32 5.156-0.232 6.818 3.675 6.72 7.92-0.147 6.372-2.71 12.938-2.88 19.92-0.041 1.674 0.354 3.309 0.24 5.04-0.293 4.465-0.906 9.705 0.24 13.681-0.869 4.327 1.161 9.214 0.72 14.64 2.115-0.056 1.66-2.511 2.16-3.84 0.321-0.854 1.322-1.645 1.44-2.88 0.83-8.69-0.69-20.135-0.72-29.28-0.016-4.804 1.012-9.675 1.2-14.4 0.067-1.692-0.148-3.397 0-5.04 0.179-1.986 0.645-3.919 0.72-5.76 0.074-1.82-0.094-3.506 0.48-5.52 0.195-0.686 0.925-1.258 0.96-1.92 0.252-1.053-0.812-0.789-0.72-1.681 0.597-1.483 1.373-2.788 1.92-4.319-1.04-0.678-1.259 1.211-2.88 0.72-2.59-2.014 0.254-5.611 1.68-7.2-0.455-1.465-2.312-1.527-1.92-3.84 0.77-0.778 2.426-1.011 2.88 0.24 0.116 1.136-1.645-0.56-1.44 0.96-0.062 0.782 0.285 1.154 0.96 1.199 2.289-0.511 1.318-4.281 1.92-6.479-1.82-0.261-3.679-0.481-3.84-2.4 0.459-1.282 2.099-1.33 3.12-1.439-0.667-2.91-1.509-6.54 0.24-8.88 0.389-0.491 1.771 0.011 2.16-0.48 0.159-4.311 0.921-9.062 0.24-13.439-0.234-0.646-1.169-0.591-1.44-1.2-3.383-4.07-4.547-10.444-4.8-17.521-0.111-3.095 0.506-6.05 0.24-8.88-0.199-2.119-0.445-3.435 0-5.52-0.729 0.952-1.073 2.287-1.2 3.84-0.843 0.356-1.146 1.255-1.92 1.68-1.393-0.157-0.52-1.678-0.48-2.399 0.112-2.019 0.653-3.667 0.96-5.28 0.875-4.603 1.46-9.462 2.64-13.68 0.021-0.821-1.461-0.139-1.44-0.96 0.197-2.443 0.024-5.255 2.64-5.28 0.11-1.57 0.391-2.156 1.44-3.12-0.519-0.361-1.493-0.268-1.68-0.96-0.474-1.841 0.579-3.142 1.2-4.56 0.995-0.275 0.935 0.505 1.68 0.48 0.936-1.224 2.423-1.896 2.16-4.32 1.28-0.48 1.437-2.083 2.16-3.12 0.677-0.281 1.019-0.048 1.68 0.24 0.859-0.661 0.952-2.087 2.16-2.4-2.892-2.868-5.234-6.286-6-11.28-0.373-0.747-1.57-0.67-1.92-1.44 0.641-1.463-0.246-3.079 0.96-4.08-1.166-0.923-2.277-3.896-0.48-5.04-0.445-0.515-0.642-1.279-0.72-2.16-0.155-1.035 1.006-0.753 0.96-1.68-0.605-1.315-0.806-3.035-1.92-3.84-0.716-4.484-1.796-8.604-2.88-12.72-1.294 0.061-0.04 1.072 0 1.44 0.068 0.621-0.141 1.061 0 1.68 0.686 3.015 1.479 6.798 2.16 9.6 0.229 0.942 1.107 1.958 1.44 2.88-4.629 0.149-8.003-0.957-10.56-2.88-1.289 0.472-1.844 1.676-1.92 3.36-1.153 0.057-0.804 1.315-1.2 1.92-0.714 1.09-1.644 1.917-2.4 3.12-1.523 2.423-3.208 4.87-3.84 8.64-0.256 0.464-1.105 0.334-1.44 0.72 0.157 4.842 0.768 8.655 0.72 13.2 1.045 0.043 2.422 0.107 3.36 1.2 0.969 1.129 1.781 3.9 0.24 4.56-0.138-2.742-1.259-4.501-3.36-5.28 0.001 2.159 1.813 2.507 1.92 4.56 0.062 1.138 1.537 0.863 1.44 2.16-0.7 0.629-0.903-0.693-1.92-0.48-0.193 1.235 0.765 2.474-0.24 3.12-1.233 0.038-1.234-0.442-0.96-1.44-3.603 0.892-6.099-0.128-8.4-1.44-0.822-0.468-2.227-0.893-2.16-1.92 2.351-0.476 4.814 3.28 8.64 2.64 0.675-0.113 1.731-0.442 1.92-1.44-0.333-1.046-1.24-0.024-1.92 0-1.455-2.226-4.838-2.522-7.2-3.84-0.186-0.774-0.502-1.418-0.96-1.92-1.64-0.583-3.815-0.4-5.28 0.48-0.958 0.576-1.009 1.556-1.92 1.92-2.098-1.083-1.495-4.182-1.68-7.44-0.138-2.427-0.513-4.917-0.48-6.96 0.021-1.338 0.713-2.711-0.24-3.6-1.313 0.254-0.085 1.633-1.44 1.92-1.443 0.21-3.125-0.379-3.36-1.68-0.429-2.371 3.585-4.356 5.04-6.24 0.385-0.498 0.854-1.632 1.44-2.64 1.054-1.812 3.525-5.668 3.36-8.16-0.07-1.055-0.854-1.686-0.96-2.4-0.271-1.829 0.307-3.196 0.72-6 1.366-0.896 2.913-0.742 3.84 0.48-0.908 0.104-2.085 0.382-2.88 0.24-0.229 5.877 1.704 9.099-0.96 13.68-0.39 0.671-0.802 1.218-1.2 1.92-0.691 1.22-1.089 1.931-1.92 3.12-0.912 1.306-2.498 2.19-3.12 3.84 1.402 0.032 3.562-0.87 5.52-1.44 1.817-0.529 4.332-2.131 5.04 0-2.092 0.788-3.981 1.779-6.48 2.16-1.806 4.592-0.435 10.473-0.24 16.56 1.568-0.464 6.666-2.832 8.16 0-0.278-14.384-1.147-31.031-1.92-44.16-0.055-0.941 0.084-2.005 0-2.88-0.051-0.529-0.454-1.131-0.48-1.68-0.063-1.355 0.302-2.708 0.24-4.08-0.08-1.756-0.399-3.548-0.48-5.28-0.2-4.292-0.105-8.562-0.48-12.72-1.687-18.734-1.942-41.278-2.88-61.44-0.06-1.276 0.018-2.575 0-3.84-0.013-0.873-0.556-2.085 0.24-2.88 1.421 0.436 1.133 2.574 1.2 3.84 0.406 7.718 0.691 16.644 0.96 24.48 0.929 27.115 2.542 54.682 3.6 81.6 0.293 7.467 0.609 15.809 0.96 23.52 0.097 2.138 0.795 4.511-0.24 6.24 2.253 1.587 4.905 2.775 7.68 3.84 0.983-1.555-0.772-2.202-1.2-3.12-1.685-46.792-5.193-95.052-6.72-141.12 2.051-0.083 1.148 2.828 1.2 4.08 1.044 25.554 2.902 53.976 4.08 79.44 1.546-3.131 3.922-7.107 6.48-10.08 0.796-0.925 1.634-2.26 2.4-2.88 1.347-1.091 3.287-1.294 5.28-2.16 1.235-0.537 2.354-1.825 3.6-1.92 1.215-0.093 1.871 0.809 2.88 0.72 0.435-0.608 0.893-1.27 1.44-1.92 0.458-0.546 0.934-1.36 1.68-1.68 0.863-0.37 1.996 0.066 2.88-0.24 1.256-0.435 1.491-1.736 2.64-2.16 0.751 0.049 1.762-0.162 2.16 0.24 0.224-3.375 2.145-5.056 2.64-8.16 1.181-0.419 2.326-0.874 3.12-1.68 0.31-2.79-2.484-2.476-3.6-3.84-2.661 0.971-4.131-1.084-5.76-1.92-0.47-2.861-3.39-5.011-3.6-8.64-0.1-1.736 0.634-3.647 0.48-5.52-0.067-0.817-0.484-1.634-0.48-2.4 0.014-2.959 1.439-5.801 3.12-7.44 0.236-4.404 3.98-5.3 5.04-8.88 0.315-0.245 0.885-0.235 1.2-0.48 0.323-0.557 0.397-1.363 0.72-1.92 0.538-0.263 1.203-0.397 1.68-0.72-0.342-2.182 1.454-2.226 1.68-3.84 2.758-1.562 5.394-3.246 8.4-4.56 2.036 0.547 3.939-1.047 6.72-0.72 0.684 0.08 1.148 0.743 1.92 0.96 0.313 0.088 1.048-0.296 1.44-0.24 0.527 0.075 1.027 0.663 1.44 0.72 1.915 0.268 4.07-0.129 6 0.24 0.814 0.156 1.278 0.691 2.16 0.96 2.556 0.78 5.039 0.814 6.479 2.16 0.354 0.33 0.655 1.094 1.2 1.92 0.768 1.164 1.636 1.451 1.44 3.36 0.894 0.545 2.03 0.849 2.64 1.68 0.194 1.714-0.256 2.784-0.96 3.6 0.355 0.845 1.362 1.037 1.92 1.68 0.557 1.763 1.119 3.521 1.68 5.28-0.659 1.552-0.594 2.44-0.479 4.56-0.103 0.857-0.603 1.317-1.2 1.68 1.867 3.281-1.708 4.85-0.72 8.16-0.652 1.988-2.76 2.52-3.12 4.8-0.89 0.711-1.792 1.408-2.641 2.16-1.23-0.002-1.574 0.352-2.64 0-1.12 1.314-1.783 2.207-1.439 4.56-1.103 0.559-3.089 1.753-4.32 0.72-0.867 1.908-5.591 4.236-5.76 0.72zm4.08-38.88c-0.222 1.539-0.298 3.223-0.48 4.8 2.158 0.133 2.955-3.106 3.6-5.28-1.237 0.283-1.176 1.863-1.92 2.64-0.073-0.566-0.833-0.447-0.72-1.2-0.158-0.878 0.52-0.921 0.48-1.68 1.97-0.75 3.165-2.274 4.08-4.08 1.271 0.444-0.325 2.169 0.239 2.64 1.105 0.087 3.508-1.068 3.36 0.96-3.448-1.121-5.517 1.615-4.8 4.56 0.409-1.906 1.179-3.635 4.08-3.6 0.003 0.477 0.654 0.306 0.479 0.96-0.755 0.685-2.737 0.143-3.12 1.2 0.678 0.523 1.154 1.246 2.4 1.2 0.985-1.334 2.587-2.053 4.32-2.64-0.482-4.079-2.44-6.68-6.48-7.2-0.631-0.071-0.188 0.931-0.96 0.72-1.869-2.677-6.241-1.637-9.36-2.4-1.04 0.531-2.571 1.678-3.359 1.68-0.241-1.602 1.381-1.339 1.92-2.16-0.811-0.44-3.026-0.592-4.32-0.24 0.351 0.209 0.93 0.191 0.72 0.96-1.111 0.689-2.771 1.974-2.4 3.36 1.169-0.031 0.92-1.48 2.16-1.44-0.144 1.296-0.667 2.213-1.92 2.4-0.276 0.604-0.114 1.646-0.96 1.68 0.153-1.209-0.014-1.649 0.24-2.4-0.758-0.118-0.848 0.433-1.68 0.24 0.333 1.212-0.84 0.92-1.2 1.44 0.296 1.555-0.285 2.965 0.72 4.08 1.306 0.026 1.333-1.227 2.88-0.96 0.049-1.151 0.295-2.105 1.2-2.4 1.293 0.918-1.125 3.488 0.96 4.08 0.454-1.227 0.338-3.021 1.92-3.12-0.001 0.241 0.194 0.286 0.24 0.48-0.529 0.521-1.844 2.963-0.24 3.36-0.062-1.981 0.666-3.175 1.68-4.08-0.216-1.027 0.524-2.339 0.96-1.92-0.157 0.876-0.708 1.078 0 1.68 1.076-0.289 1.089-2.903 2.64-1.92-0.685 1.449-2.465 3.348-1.2 5.28 0.696-1.944 0.893-4.388 2.881-5.04-0.228 2.547-3.415 5.3-0.721 7.2 1.347-0.771 0.274-2.133 0.48-3.12 0.463-2.225 2.52-3.142 3.12-5.28-0.48-0.171-0.764-1.37 0-1.44 1.873 1.993-0.465 5.038-1.919 6zm-18.48-6.96c0.037 0.843 1.468 0.292 1.44 1.2 0.041 0.52-0.851 0.108-1.2 0.24-0.307 0.907-1.236 0.901-1.68 1.68-0.08 0.14 0.111 0.808 0 0.96-0.559 0.77-2.246 1.271-1.92 3.12 0.283 0.596 1.519 0.241 1.68 0.96-0.471 1.217-0.549 2.504 0.24 3.36 0.6-0.201-0.275-1.875 0.72-1.68-0.205 2.365 2.373 1.947 3.12 3.36 0.247-0.554 0.826-0.774 0.72-1.68-1.582-0.898-3.449-1.511-3.12-4.32-0.618-0.421-1.153 0.249-1.44-0.72-0.15-2.297 1.924-4.704 3.36-3.84-0.944 1.216-2.526 1.794-2.64 3.84 0.49 0.592 0.98-0.801 1.68 0-1.002 2.111 1.362 4.009 2.64 3.84 0.373-1.653-1.087-1.473-1.2-2.64 0.316-1.756-0.757-2.123-1.2-3.12 2.001-2.079 4.708-3.453 6-6.24-2.164-0.4-1.91 2.885-3.36 2.4-0.464-0.827 1.176-1.294 0.96-2.64-1.934 0.306-3.937 0.543-4.8 1.92zm-3.36 3.12c-0.383-0.177 0.055-1.175-0.72-0.96-0.499 0.141-0.775 0.504-1.2 0.72-0.096 0.976 1.021 0.739 1.2 1.44-0.62 1.06-1.303 2.057-1.2 3.84 0.356 0.283 1.072 0.208 0.96 0.96-0.956 1.67-1.939 3.229-0.48 5.04-0.167 0.892-0.851 2.212-0.48 2.88 0.519 0.541 0.818-0.199 1.68 0 0.395 1.181-0.226 1.929 0.24 2.88 1.015-0.025 1.434-0.646 1.68-1.44-1.03-0.474-1.866-1.274-1.92-2.4-0.061-1.268 1.072-1.739 1.2-2.88-2.439 0.978-2.072-4.709 0-3.84-0.053-1.067-1.558-0.682-1.68-1.68-0.55-2.312 0.412-3.483 1.92-4.32-0.721-0.714 2.199-2.185 0.72-2.88-0.885 0.635-1.26 1.78-1.92 2.64zm-4.32 7.2c0.096-1.136-0.429-1.651-0.24-2.88-1.307 0.011-1.04 2.2-0.72 3.12 0.167 0.473 1.339-0.059 1.44 0.48 0.209 0.77-0.369 0.75-0.72 0.96-1.453-0.147-1.093-2.107-2.4-2.4-0.685 1.398 0.236 2.638 0.72 3.6 1.374-0.773 1.919 0.604 2.88 0.96-0.111 1.253-1.779 3.836 0.24 4.32 0.909-1.24-0.136-2.855 0.72-4.32-1.091-1.307-0.796-3.936 0.24-5.04-1.496-1.302 0.122-3.252 0.24-5.04-2.547 0.333-1.764 3.995-2.4 6.24zm20.88 0.24c-0.169-1.609 0.246-2.633 0.24-4.08-1.88-1.097-2.497 5.152-0.24 4.08zm14.64 0.24c1.089-0.312 2.512-0.312 3.601 0 0.314-0.645 0.856-1.063 1.68-1.2 0.143-1.182-0.232-1.848-1.44-1.68-0.308 1.932-4.089 0.391-3.84 2.88zm-22.08 0.96c0.449-0.271 1.156-0.284 0.96-1.2-0.429-0.001-1.396 0.646-1.68 0 0.088-1.192 1.682-0.878 1.44-2.4-2.297-0.028-3.046 3.183-0.72 3.6zm-8.4 0.72c0.138-0.502 0.595-0.685 0.48-1.44-0.477-0.003-0.305-0.655-0.96-0.48 0.075 0.726-0.267 1.867 0.48 1.92zm25.2 0.96c0.579-0.47 1.51-1.84 2.4-1.2 0.725 0.711-1.569 1.358-0.72 2.16 0.004-0.366 1.778-0.526 1.439 0.24-0.195 1.004-1.585 0.814-1.439 2.16 0.056 0.992 1.489 0.749 0.72 1.92-1.913 0.164-2.168-1.823-1.68-3.36-0.849-1.151-2.952-1.048-2.641-3.36-1.261 0.179-1.402 1.477-2.88 1.44-1.236-1.136-2.824-2.472-5.28-1.68-0.961-0.238-1.257-1.143-2.64-0.96-0.544 2.082-1.262 3.664-3.36 3.36-1.259-0.183-1.193-1.716-2.64-1.68-0.145 1.695-1.421 2.259-1.68 3.84-1.331 0.11-0.824 2.057-2.4 1.92-0.518-0.515-0.123-1.341 0.24-1.68-1.188-0.092-1.177-1.383-2.64-1.2-0.426 2.026 2.313 1.964 2.16 3.84-0.107 1.313-1.976 2.478-3.84 1.44-0.911 1.538-0.219 3.32-0.96 4.8 1.161 3.082-0.197 6.368-0.48 9.36-0.377 3.979 0.479 7.549 0.48 11.52 0.296 0.777-0.777 0.184-0.48 0.96 4.381 3.106 13.993 4.301 18.96 0.96 0.078-1.119-0.188-1.893-0.48-2.64-0.926 0.034-1.109 0.811-2.16 0.72-1.228-0.691-3.565-0.275-3.6-2.16 3.438 1.55 5.595 0.591 7.44-1.44 0.754-3.646 4.041-4.759 4.8-8.4 1.701-1.52 2.424-3.349 3.6-5.52 0.544-1.004 1.436-2.217 1.681-3.12 0.351-1.296-0.027-2.734 0.239-4.08 0.259-1.302 1.486-2.604 0.96-4.08 1.123-1.496 0.588-3.525 2.16-4.8-0.526-2.942-7.123-2.467-5.279 0.72zm-15.6-0.48c0.815-0.154 2.114-1.074 1.44-1.92-0.323 0.797-1.507 0.733-1.44 1.92zm21.84-0.48c0.637 0.734 1.449 0.345 2.16 0 0.058 0.342 0.396 0.405 0.48 0.72-0.684 3.265-2.434 6.648-2.16 10.08-0.967 1.994-3.104 2.817-4.32 4.56 2.701 0.301 2.469-2.331 4.32-2.88-0.094 1.628-2.318 1.993-1.44 3.84 1.533-0.839 2.406-2.89 1.92-5.04 0.458-0.102 0.435-0.686 1.2-0.48 0.352 0.528-0.028 1.789 0.72 1.92 1.188-0.534 1.869-2.442 3.36-1.92v-1.92c-1.135 0.47-2.347 2.128-3.6 1.68 1.819-1.742 5.759-3.962 3.119-6.72 0.544 1.741-1.174 4.731-3.359 4.32 0.504-1.335 2.407-1.272 2.399-3.12-1.032 0.016-1.463 1.886-2.399 1.2 1.21-1.43 2.445-2.834 3.359-4.56-1.084-0.675-1.904-1.616-2.64-2.64-0.286 1.1-3.077-1.109-3.12 0.96zm-27.84 3.36c1.876-1.784-0.86-3.08-2.16-3.84-0.696 1.788 0.342 3.781 2.16 3.84zm-13.2-2.88c0.168 0.792 0.511 1.408 1.68 1.2 0.375-0.758-0.132-1.054-0.24-1.92-0.715 0.005-1.462-0.022-1.44 0.72zm39.84 0.96c-0.075 1.355 1.442 1.118 2.4 1.44 0.003-0.477 0.655-0.305 0.48-0.96-0.352-1.002-1.903-0.709-2.88-0.48zm-37.44 1.2c-2.088 0.723-2.582-1.411-3.84-0.72 0.129 1.601 3.566 3.408 3.84 0.72zm2.64 5.52c-0.276 1.336 0.348 2.714 1.44 1.92 0.321-0.839-1.401-1.945-0.24-3.12-1.384-0.186-1.818-0.818-2.16-1.92-0.262-0.845 0.661-2.391-0.24-2.64-1.61 2.231 0.144 4.199 1.2 5.76zm-6-1.68c0.206-0.754 0.908-1.013 0.96-1.92-1.101-0.179-1.083-1.478-2.4-1.44 0.783 1.068-0.374 3.054 1.44 3.36zm40.08-2.4c0.167 0.953-0.418 2.658 0.48 2.88 0.697-0.874 1.769-2.481 1.68-3.36-0.957-0.077-1.773-0.013-2.16 0.48zm-36.72 4.8c0.437-0.683 1.364-0.875 1.68-1.68-1.35-0.009-1.013-1.707-2.16-1.92-0.9 0.73-0.491 3.261 0.48 3.6zm3.84-2.64c0.149 0.73 0.533 1.227 1.44 1.2 0.201-0.519 0.622-0.818 0.48-1.68-0.94-0.139-1.394 0.206-1.92 0.48zm-7.92 2.88c1.008-1.214 0.585-2.731-1.2-2.88-0.096 1.482-0.558 2.527 1.2 2.88zm1.92 2.16c0.714-0.085 1.218-0.382 1.68-0.72-0.583-1.417-1.365-2.635-1.68-4.32-0.928 1.238-1.428 4.017 0 5.04zm38.4-1.68c1.272-0.252 2.73-1.583 2.159-2.88-0.609 1.07-2.651 0.708-2.159 2.88zm-41.52 2.4c-1.675 0.155-1.237-1.803-2.4-2.16-0.12 1.637 0.092 4.141 1.92 3.84 1.801-0.296 0.57-2.353 1.44-3.84-0.824-0.215-1.042-1.037-2.16-0.96-0.408 1.848 0.641 2.239 1.2 3.12zm8.4 0.48c-0.272 0.654-0.699 2.006-0.24 2.64 1.21-0.47 0.575-2.785 1.2-3.84-0.823-0.457-1.559-1.001-2.4-1.44-0.195 1.555 1.321 1.399 1.44 2.64zm32.64 0.24c1.401-0.119 1.715-1.326 2.16-2.4-1.282 0.238-2.429 0.611-2.16 2.4zm-33.84-0.48c-0.139-0.9-0.619-1.46-1.44-1.68-0.671 0.905 0.097 2.032 1.44 1.68zm-3.12 1.44c-0.481 1.964-2.487-0.016-3.12 0.24-0.186 1.466 0.463 2.097 0.96 2.88 0.649 0.07 1.372-1.002 1.92-0.24-0.506 0.614-1.417 0.822-2.64 0.72-0.895-1.138-1.195-4.04-3.36-3.12 0.019 1.661 1.41 1.95 2.4 2.64-0.398 1.414 0.098 1.963 0.96 2.64 1.038-0.082 1.071-1.168 2.4-0.96 0.408 1.432 0.3 3.38 1.92 3.6-0.015-1.666-0.94-2.419-1.2-3.84 0.074-0.565 0.833-0.446 0.72-1.2-1.836-1.237 1.271-3.74-0.48-5.52-1.42 0.645-1.973-0.226-3.12-0.48-0.277 2.371 1.368 3.089 2.64 2.64zm41.76 0.48c1.396 0.035 2.086-0.634 3.36-0.72 0.14-2.326-2.879-0.032-3.36 0.72zm-40.08-0.72c0.135 0.584 0.206 1.234 0.96 1.2-0.174-0.734 0.414-0.706 0.24-1.44-0.556-0.076-0.922 0.039-1.2 0.24zm40.56 1.68c0.076 0.556-0.039 0.921-0.24 1.2 0.793 0.384 3.079 1.089 3.12-0.48-0.968-0.263-1.852 0.782-2.16-0.24 0.108-1.172 2.867 0.307 2.64-1.2-1.1-0.688-2.306 0.568-3.36 0.72zm-41.28 0c0.081 1.2 0.713 1.847 1.68 2.16-0.095-0.575 1.093 0.133 0.72-0.72-0.405-0.796-1.546-1.863-2.4-1.44zm38.88 1.68c-0.751 0.609-2.229 0.491-2.16 1.92 1.688-0.633 3.017-1.625 3.601-3.36-0.962-0.001-0.797 1.124-1.441 1.44zm-46.56 0.72c0.871-0.008 1.306 1.213 1.92 0.72v-1.68c-0.534-0.187-0.936-0.504-1.68-0.48-0.276 0.284-0.272 0.848-0.24 1.44zm42.24-0.48c0.671 0.551 1.909 0.132 1.68-0.96-0.886-0.006-1.652 0.108-1.68 0.96zm2.88 3.6c2.036-0.363 2.57-2.229 3.84-3.36 0.272 1.008 0.343 2.217 1.92 1.92 0.276-0.283 0.271-0.848 0.24-1.439-2.677-1.777-5.011 0.841-6 2.879zm-36.48-0.96c0.638-0.083 0.81-0.63 0.96-1.2-0.458-0.103-0.434-0.686-1.2-0.48-0.139 0.779 0.164 1.117 0.24 1.68zm-8.4 1.2c0.366-0.674 0.502-1.578 1.68-1.44-0.114-0.846-1.131-0.789-1.92-0.96-0.048 0.314-0.696 2 0.24 2.4zm48-1.44c0.405 1.083 0.513 1.633 0 2.64 0.853-0.311 0.872-0.542 1.92-0.24 0.237-0.722 0.849-1.071 0.72-2.16-0.904-0.363-1.763-0.401-2.64-0.24zm-42.96 4.08c-0.724-1.276-0.874-3.126-2.16-3.84-0.625 1.717 0.354 3.768 2.16 3.84zm1.44-1.44c-1.436 0.076-0.453-2.267-1.68-2.4-0.777 0.983 0.872 3.8 1.68 2.4zm36-0.96c1.021 0.22 1.025-0.575 0.96-1.44h-0.72c0.005 0.566-0.413 0.707-0.24 1.44zm-40.8 3.12c-0.896-0.624-0.902-2.138-1.68-2.88 0.199 2.201 0.982 3.818 2.64 4.56-0.274-0.704-0.142-0.891 0.48-1.2-0.072 0.632 0.333 0.788 0.96 0.72 0.276-0.284 0.271-0.848 0.24-1.44-0.977-0.223-1.731-0.668-2.16-1.44-0.415-0.706 0.021-2.262-0.96-2.4-0.354 1.719 1.094 2.899 0.48 4.08zm42.96-0.48c1.908-0.092 2.304-1.696 2.88-3.12-2.058 0.429-2.826 1.032-2.88 3.12zm-0.48 2.16c1.146-0.294 2.243-0.638 2.4-1.92-0.946 0.494-2.533 0.347-2.4 1.92zm2.64-0.24c0.735 0.001 1.648-1.053 0.96-1.68-0.278 0.602-0.956 0.804-0.96 1.68zm-6.48-0.72v0.96c0.96 0 1.043-0.877 1.681-1.2-0.478-0.481-1.143 0.075-1.681 0.24zm-0.48 3.6c1.458-0.245 3.826-1.591 3.359-3.6-1.195 1.124-1.812 2.828-3.359 3.6zm-26.16 8.64c-0.656-0.473-1.594-1.643-2.4-1.2v0.72c1.52 1.6 5.077 1.163 6.72 2.64 1.777-0.588 6.554 0.807 6.48-0.72-3.895 0.707-6.488-0.966-10.8-1.44zm15.84 2.16c-2.144 0.47-4.241 1.099-6.48 1.2-4.116 0.187-7.829-1.71-11.28-2.4-0.736-0.385-0.966-1.274-1.92-1.44-0.135 0.345-0.375 0.585-0.72 0.72 0.863 1.197 2.586 2.253 4.56 2.64 0.867 0.17 1.766-0.109 2.64 0 2.554 0.318 5.231 1.052 7.68 0.96 1.774-0.067 3.063-0.659 4.08-0.96 1.503-0.445 4.08-0.274 4.08-1.92-1.504-0.224-1.665 0.894-2.64 1.2zm-3.84-0.48c1.936-0.064 3.877-0.123 4.8-1.2-1.435-0.391-3.621 0.535-4.8 1.2zm0.24 3.12c-3.18 0.415-6.734-0.422-8.88-0.72-1.587-0.22-3.221-0.133-4.32-0.48-1.499-0.472-2.897-2.082-4.32-1.92-0.638 2.001-1.394 3.886-2.16 5.76 1.409 0.696 2.84 1.486 4.8 1.68 6.65 0.657 12.94 0.173 18.24-0.72 1.108-0.812 2.478-1.362 3.839-1.92-0.341-1.259 0.052-3.251-0.96-3.84-2.073 0.754-4.047 1.874-6.239 2.16zm7.44 10.56c0.447 1.072 1.015 2.025 1.92 2.64 3.338-3.543 7.36-6.4 10.32-10.32-0.812-0.707-1.115-1.925-2.16-2.4-3.153 3.566-6.364 7.076-10.08 10.08zm1.92-8.88c-0.052 0.265-0.264 0.378-0.479 0.48-4.408 2.071-10.306 4.146-16.8 3.84-0.447-0.021-0.935-0.4-1.44-0.48-1.876-0.296-4.107 0-6-0.24-2.297-0.291-4.193-1.761-6-2.4-1.086 0.994-2.695 1.465-3.12 3.12 3.22 1.34 7.681 1.439 11.76 1.92 0.581 1.419 0.081 3.3-0.24 4.56 2.096 1.153 0.665 4.576 0.96 6.24 2.685 1.315 5.629 2.371 7.92 4.08 1.727-0.51 3.915-1.025 5.76-0.72 0.263-0.538 0.397-1.203 0.72-1.68 2.608-1.392 3.68-4.32 6.24-5.76-0.863-2.018-2.146-3.613-3.12-5.52 1.46-2.46 4.246-3.594 5.76-6-0.637-0.484-0.731-1.51-1.921-1.44zm3.6 2.16c0.316-0.574 1.888-1.138 1.199-1.92-0.535 0.355-1.44 1.585-1.199 1.92zm8.4-0.72c-0.85 1.47-2.662 1.978-3.359 3.6-1.459 0.726-3.913 3.717-5.761 5.52-0.966 0.943-2.344 1.434-2.399 2.64-0.071 1.55 1.742 2.847 3.12 3.84 0.742-1.387 1.515-2.521 2.399-3.84 0.858-1.28 1.48-2.854 2.4-4.08 1.644-2.191 4.247-3.286 5.76-5.52-0.449-0.99-0.83-2.05-2.16-2.16zm4.32 1.68c-1.294 1.982-3.846 3.313-5.521 5.04-0.793 0.819-1.902 2.098-1.68 3.36 1.473-1.564 2.681-3.317 4.32-4.8 1.217-1.101 3.386-1.67 3.84-3.6h-0.96zm-55.92 3.84c4.815 1.744 9.366 3.754 15.84 3.84 0.322-0.807 0.75-2.487 0.48-3.12-4.175-0.771-8.838-1.557-12.48-2.16-0.618-0.423-1.036-1.044-1.68-1.44-0.459 1.221-1.543 1.817-2.16 2.88zm39.12-0.72c0.248-0.632 0.951-0.808 1.2-1.44-0.932-0.199-1.678 1.023-1.2 1.44zm-44.88 4.8c3.298 0.435 6.844 1.985 9.12 2.16-1.003-0.836-2.578-1.102-3.36-2.16-2.713 0.625-5.111-1.605-7.44-1.2-1.43 0.249-1.958 1.518-3.6 1.68-1.089 0.449-0.327-0.954-1.2-0.72-2.461 4.739-6.365 8.035-7.92 13.68-0.344 0.375-1.251 0.189-1.2 0.96 0.506 8.695 0.689 19.322 1.2 27.6 2.496-0.176 3.243 1.397 4.8 2.16 1.981-1.938 3.038-4.802 4.56-7.2-1.794-1.133-3.254-1.292-4.8 0-1.736-0.689-4.463-1.583-4.08-3.6 1.589 0.491 2.096 2.064 4.08 2.16 2.787-3.453 4.146-8.333 6-12.72 1.653-1.083 1.162-2.616 2.64-3.6 2.233-1.487 5.688-0.114 9.12-0.48 1.756-0.187 3.078-1.028 4.56-0.72 1.987-1.098 3.756-2.358 5.04-3.84 0.812-0.937 1.939-1.354 1.68-2.88 0.5-0.141 0.776-0.504 1.2-0.72 0.666-3.142 3.3-6.443 2.4-9.6-6.116 0.035-10.164-1.996-15.12-3.12-1.516-0.704-4.783-3.477-6.24-1.2 1.155 0.341 2.694 1.39 4.08 0.72 4.112 2.128 9.058 3.422 10.56 8.16-0.472 0.328-1.371 0.229-1.92 0.48-4.489-3.111-10.695-4.505-17.04-5.76 0.661-0.652 2.036-0.352 2.88-0.24zm5.52-0.96c3.011 0.641 4.868 3.358 7.44 3.6-2.034-1.563-4.919-3.497-8.16-4.32-0.531-0.135-1.34 0.103-1.92 0-1.481-0.263-3.21-1.625-4.8-0.24 2.811 0.1 5.018 0.445 7.44 0.96zm45.12 12c-0.046-3.646 1.415-7.063 2.16-9.12-1.391 2.141-3.722 5.591-2.16 9.12zm17.04 21.6c-0.842-0.373-1.897-0.61-2.64-0.96-3.693-1.739-6.162-3.541-8.881-6-2.791-2.524-4.738-5.22-5.76-9.12-0.181-0.69 0.006-1.543-0.24-2.4-0.508-1.772-2.13-3.36-1.439-6-1.116-1.844-2.611-3.309-4.08-4.8-1.902 2.098-3.553 4.448-6 6 0.777 2.664 1.592 4.38 2.64 6.48 2.145 4.297 4.729 8.058 7.681 10.8 2.987 2.776 6.753 4.621 10.8 6.24 2.252 0.901 3.955 1.616 6.72 1.92 0.885 0.097 2.566 0.566 3.12-0.48 0.23-1.24-1.26-1.39-1.92-1.68zm-43.68-25.44c-1.349 2.143-1.781 5.51-3.12 7.68-0.748 1.211-2.073 1.687-2.4 3.12-0.016 6.396-3.444 11.426-5.76 16.32-1.527 1.544-4.082 2.857-2.88 5.76 1.373 0.205 2.748-0.549 3.84-1.2 2.806-1.672 4.323-3.099 6.24-5.52 1.94-2.451 3.408-4.361 5.04-6.96 2.19-3.489 3.744-7.595 5.04-11.52 0.177-0.383 1.175 0.055 0.96-0.72-0.063-1.217-0.25-2.309-0.48-3.36-2.055-1.305-4.477-2.243-6.48-3.6zm13.44 3.84c0.824 0.857 0.424 2.937 1.44 3.6-0.59-1.725 0.502-3.81-1.2-4.56-0.076 0.325-0.342 0.458-0.24 0.96zm-3.12 0c0.832-0.128 2.276 0.356 2.4-0.48-0.777-0.602-1.808 0.146-2.4 0.48zm-2.4 0.24c0.308 1.143-0.58 2.705 0.24 2.88v-2.4c0.543-0.257 1.055-0.544 1.44-0.96-0.878-0.158-0.92 0.519-1.68 0.48zm4.08 2.4c-1.493 0.221-1.952-1.627-2.88-1.2-0.39 1.947 1.219 3.509 1.44 5.76 0.268 2.734-1.735 5.907 0.48 7.92 1.171 0.396 3.421 0.374 4.08-0.48-3.051-3.478-0.348-9.304-1.92-13.68-0.307-0.014-0.333-0.308-0.72-0.24-0.55 0.25 0.114 1.714-0.48 1.92zm2.4 3.6c0.079 0.721 1.318 0.282 1.44 0.96 2.01 4.726 5.691 9.285 10.319 12.48 2.099 1.449 4.521 3.085 7.2 4.08 2.772 1.029 5.929 2.354 8.88 2.64 0.952 0.092 3.385 0.468 3.841-0.72-0.515-1.748-2.231-0.633-3.601-0.72-4.597-0.292-9.439-2.589-13.439-4.8-6.643-3.671-10.535-9.423-13.44-16.08-0.307-0.013-0.333-0.308-0.72-0.24-0.564 0.397-0.521 1.4-0.481 2.4zm-22.8 22.08c-1.225-0.11-2.211 1.26-3.36 1.92-1.296 0.744-3.658 0.92-2.4 2.88 2.652-0.208 4.521-2.272 6.48-3.84 1.935-1.548 4.278-3.02 5.76-4.8 0.977-1.174 1.734-2.772 2.64-4.08 1.922-2.773 3.949-5.314 5.52-8.16 0.864-1.566 1.31-3.233 2.16-4.8-0.029 3.888-2.205 6.837-3.6 9.12-0.361 0.592-0.44 1.268-0.72 1.68-0.541 0.796-1.574 1.335-2.16 2.16-0.486 0.684-0.712 1.667-1.2 2.4-0.475 0.712-0.977 1.588-1.44 2.16-2.431 3.001-5.725 4.492-8.16 7.2-1.568 0.751-2.928 1.712-4.32 2.64-1.063-0.043-1.52-0.434-1.68 0.72-0.5 0.672 0.702 1.689 1.2 2.16 3.9-1.06 5.94-3.98 9.36-5.52 4.359-5.161 9.6-9.44 11.52-17.04 2.087-2.123 3.256-7.621 1.44-10.8-0.825 0.105-1.345-0.095-1.92-0.24-2.361 10.76-7.961 18.28-15.12 24.24zm0.72-14.88c1.061-1.442 0.129-4.391 1.44-6-0.343-0.058-0.405-0.396-0.72-0.48 0.024 2.266-1.52 4.24-0.72 6.48zm22.08-1.92c4.551 5.696 11.162 11.895 18.721 15.12 2.613 1.116 5.542 2.765 8.159 3.12 1.676 0.228 4.815 0.371 5.28-1.44-0.783-1.638-3.202-0.844-4.8-0.96-2.662-0.193-4.115-0.979-6.24-1.68-4.44-1.464-6.47-2.953-9.84-5.28-4.692-3.24-8.181-7.005-10.32-12.24-0.241 0.001-0.286-0.194-0.48-0.24-0.014-0.146-0.036-0.284-0.24-0.24-0.573 1.319-0.179 2.135-0.24 3.84zm-28.8-2.64c-0.165 1.136-1.843 1.85-2.16 3.36-0.109 0.521 0.189 1.313 0.24 1.92 0.227 2.726 0.379 4.913 0.72 7.2 0.124 0.833-0.501 2.36 0.72 2.4 3.988-3.375 6.047-9.949 6.72-15.84-1.847 0.553-3.605 1.195-6.24 0.96zm-6.72 0.24c-2.712-0.076-3.833 0.907-5.04 2.64-0.539 3.221-2.602 4.918-3.12 8.16 0.785 0.495 1.664 0.896 2.64 1.2 0.923-1.076 1.571-2.429 2.88-3.12 0.185-1.196 1.159-1.983 1.68-3.12 0.874-1.908 1.042-4.443 3.12-5.28 0.387 1.221-1.203 2.082 0 2.64 0.837-0.763 1.045-2.155 1.68-3.12-0.898-0.966-2.62 0.034-3.84 0zm87.6 6.96c-1.241-0.678-1.714-2.126-1.92-3.84-0.662-0.268-1.201-0.936-1.92-0.72-2.341 0.702-6.33 3.221-7.68 4.8 1.419 2.5 2.144 5.697 3.359 8.4 1.945-1.12 5.394-2.367 8.16-1.44 1.014 0.34 2.103 2.297 2.641 1.44-1.04-2.72-1.34-6.18-2.64-8.64zm-84 2.4c-0.164-2.288-0.061-3.385-1.2-4.56 0.163 1.76 0.605 3.24 1.2 4.56zm23.04 3.6c-0.434 0.719-0.765 1.777-1.2 2.4-0.515 0.737-1.352 1.197-1.92 1.92-1.292 1.646-1.923 3.586-3.84 4.32-0.415 0.146 0.019 1.139-0.48 1.2-3.255 2.345-6.305 4.895-9.84 6.96-0.824 0.216-1.939 0.141-2.16 0.96-1.03 1.359 0.67 2.043 0.96 2.88 0.443 2.239 1.289 4.354 2.4 6.48 0.536 1.024 2.378 4.964 3.84 5.28 0.929 0.201 2.781-0.949 4.08-1.2 0.575-0.111 1.294 0.077 1.92 0 3.019-0.372 6.478-1.757 8.64-2.16 0.505-0.094 1.088 0.076 1.68 0 2.053-0.262 4.308-1.223 6.48-1.44 1.706-0.17 3.519 0.202 5.28 0 1.031-0.118 1.876-0.614 2.88-0.72 1.212-0.128 2.351 0.129 3.601 0 2.245-0.232 4.272-0.86 6.479-0.96 3.543-0.161 7.809 0.233 10.32 0 0.757-0.828-0.533-1.062-0.24-2.16 0.381-1.463 1.65-2.846 1.92-4.56 0.346-2.195-0.327-4.755 0.48-7.2 0.565-0.234 1.522-0.078 1.439-0.96-0.393-1.324 0.21-2.37-0.239-3.36-1.274 0.55 0.825 3.336-0.96 3.6-0.979-0.374-0.311-2.302-0.24-3.12-5.361 1.819-9.133-0.287-13.2-1.92-7.284-2.924-12.963-8.298-17.76-12.96 0.577 2.257-1.678 1.682-2.4 2.64 1.084 0.932 0.165 2.027 0.24 3.12 0.117 1.689 0.588 3.278 0.72 5.04 0.14 1.867 0.236 3.867 0.48 5.76 0.581 4.505 2.288 8.549 2.64 13.2 0.466 0.479 1.292 2.388 0.24 2.88-1.883-2.746-1.48-6.525-2.4-10.08-0.135-0.523-0.595-1.089-0.72-1.68-1.195-5.63-1.453-12.83-1.44-18.48-2.17-0.31-2.731-2.229-3.84-3.6-1.33 2.82-2.477 5.66-3.84 7.92zm-26.16-0.72c1.231 1.649 0.699 5.061 2.4 6.24-0.625-4.335-1.355-8.565-2.88-12-0.713 1.93 1.007 3.98 0.48 5.76zm33.36-4.8c0.598 0.478 1.912 0.135 2.16-0.48-0.571-0.45-1.616 0.16-2.16 0.48zm41.28 0.48c-1.454 1.506-3.215 2.706-4.561 4.32 0.711 2.661 1.69 5.4 2.4 7.44 1.092 3.138 3.361 4.876 4.08 7.92 0.163 0.323 0.73-0.209 0.96 0.48-0.036 2.829 1.603 4.174 2.64 5.76 2.197 3.359 2.553 6.965 4.32 10.8 4.668 0.927 8.388-0.195 11.76-1.68-1.548-2.124-3.291-3.228-5.76-4.8-1.944-1.238-5.321-1.787-5.76-3.84 1.352-1.971 2.604-4.333 3.6-6.96 0.634-1.672 2.438-5.592 2.16-7.2-0.249-1.442-3.979-4.859-5.76-5.04-2.461-0.25-3.964 1.436-6 2.4-1.92-2.64-2.41-6.71-4.08-9.6zm-75.36 6.72c0.28 1.354 0.016 3.295 1.44 3.6 0.033-3.386-1.678-5.839-1.92-9.6-0.053-0.187-0.201-0.279-0.48-0.24-0.132 2.63 0.567 4.34 0.96 6.24zm-1.68 0.72c0.249 0.877 0.323 2.264 1.2 2.4 0.216-0.954 0.086-2.766-0.24-4.32-0.237-1.128-0.632-2.702-1.44-3.12-0.513 1.91 0.056 3.54 0.48 5.04zm-6.96-3.6c-0.643 0.717-1.265 1.455-1.2 2.88 1.42 1.243 4.322 1.307 4.32-1.2-0.967-0.63-2.008-1.19-3.12-1.68zm6.72 5.28c0.087-1.027-0.469-3.327-1.2-4.32-0.358 1.3-0.94 4.31 1.2 4.32zm-2.4-0.96c0.395-0.033 0.395-1.647 0-1.68-0.131 0.32-1.096 1.65 0 1.68zm95.04 12.48c1.875-3.485 2.882-7.839 3.84-12.24-0.053-0.187-0.2-0.279-0.479-0.24-1.52 3.67-3.19 8.97-3.36 12.48zm0.24 0.72c0.012 0.912 0.449 0.031 0.48 0 1.883-1.935 2.678-5.621 3.359-8.4 0.187-0.757 1.285-1.57 0.24-2.16-1.22 2.75-1.96 7.92-4.08 10.56zm-3.6 5.28c1.505 0.305 1.563-0.836 2.399-1.2 2.439 0.606 7.338 1.39 10.561 2.64 0.433 0.768 1.412 0.987 2.399 1.2-1.598-2.878-4.224-5.193-5.279-8.88-0.664-2.317-0.412-5.103-1.681-7.44-1.116 5.444-3.108 10.012-7.439 12.24 0.01-0.255-0.113-0.609-0.24-0.24 0.82 0.8-1.58 0.84-0.72 1.68zm-104.16-9.12c1.254 0.106 1.69 1.03 2.88 1.2 0.399-0.481 0.871-0.889 0.96-1.68-0.902-1.257-2.137-2.183-4.08-2.4-0.167 1.21 0.407 1.67 0.24 2.88zm114.96 0.96c0.372 0.667 0.05 2.03 0.96 2.16-0.438-1.958 1.219-1.821 0.96-3.6-1.21-0.09-0.49 1.75-1.92 1.44zm-114.48 6.72c0.512-1.888 1.185-3.615 1.92-5.28-0.456-0.744-1.054-1.347-2.4-1.2 0.465 2.39-0.278 4.54 0.48 6.48zm83.76 3.12c-0.001-0.742 1.372-1.488 0.239-1.92 0.07 0.65-1 1.37-0.24 1.92zm30.96 1.68c2.01 1.087 3.923 2.461 6.239 3.12-0.167-1.192-0.649-2.07-1.199-2.88-4.028-0.613-7.262-3.297-11.28-3.12 2.21 0.97 4.25 1.81 6.24 2.88zm3.12 2.64c-1.071-0.552-2.071-1.577-3.119-2.16-2.2-1.223-5.506-2.182-7.44-3.12-0.058-0.369-0.396-0.036-0.479 0.24 0.269 0.051 0.373 0.267 0.479 0.48 2.271 1.156 4.567 2.249 6.72 3.6 1.982 1.245 3.901 3.569 6.721 3.12 0.11-1.65-1.81-1.61-2.88-2.16zm-53.76 0.48c-4.787 0.355-9.496 1.096-13.92 1.92-2.304 0.43-4.61 0.613-6.72 1.2-0.744 0.207-1.419 0.791-2.16 0.96-3.397 0.777-6.828 0.719-10.08 1.68-2.096 1.264-3.291 3.429-3.84 6.24 7.055 1.021 14.879-0.061 20.64-1.44 1.41-0.337 2.81-0.526 4.32-1.2 1.618-0.722 3.026-1.708 4.08-1.68 1.569 0.042 3.177 1.583 4.8 1.92 1.726 0.358 4.034 0.426 6 0.48 7.656 0.21 14.304-0.778 20.16-3.12-1.23-2.929-2.949-5.371-5.04-7.44-6.68-0.54-12.897 0.08-18.24 0.48zm23.04 2.88c-0.478-0.723-0.435-1.965-1.68-1.92-0.01 1.06 1.56 1.79 1.68 1.92zm21.36 1.92c-0.574 0.146-1.741-0.302-1.92 0.24 3.502 0.062 6.033-0.847 7.92-2.4-2.08 0.64-4.02 1.42-6 2.16zm6.48-1.68c-2.294 2.986-8.136 2.877-12.479 3.12 3.779 10.94 7.225 22.215 10.56 33.6 2.995 0.349 7.041 0.548 9.12-0.72 0.148-1.028-0.781-0.979-0.72-1.92 0.004-10.488-2.202-20.096-2.64-32.4-1.17-0.67-2.08-1.6-3.84-1.68zm-10.08 1.92c-0.794-0.254-2.769-0.58-3.359-0.24 0.6 0.68 3.52 0.3 3.36 0.24zm-16.08 3.12c-2.575 0.429-4.931 1.86-7.44 2.4-3.587 0.772-8.356 0.695-11.76 0.72-0.859 0.006-1.857 0.494-2.641 0.48-0.853-0.016-2.336-0.347-3.359-0.48-1.214-0.159-2.652-0.247-3.601-0.48-1.216-0.3-2.534-1.541-3.84-1.44-0.887 0.068-1.668 1.004-2.64 1.44-2.284 1.025-4.172 1.395-6.72 1.92-6.922 1.426-15.393 1.555-21.36 0.24-2.184 0.716-2.713 3.174-3.6 5.04-0.286 0.603-1.359 0.999-0.72 1.68 7.128 0.168 14.329 1.936 21.6 1.44 5.384-0.367 12.143-1.57 15.84-3.6 3.109 2.003 9.341 2.288 14.399 1.92 3.368-0.245 6.317-1.703 9.841-2.4 3.367-0.666 6.722-0.378 9.359-1.92-0.5-2.94-1.43-5.45-3.36-6.96zm-62.88 3.6c0.518-0.588 0.179-1.775-0.72-1.68-0.219 0.51-0.463 1.57 0.72 1.68zm-5.76 6.72c0.835-0.525 1.018-1.702 1.2-2.88-1.343-0.24-2.381 2.17-1.2 2.88zm73.92-2.16c-1.746 0.011-2.789 0.908-4.08 1.2-1.05 0.238-2.092 0.069-3.12 0.24-5.873 0.978-10.913 2.842-16.319 3.12-2.827 0.145-6.564 0.238-8.88-0.24-1.123-0.232-2.174-1.221-3.36-1.2-0.985 0.018-2.844 1.316-4.56 1.68-1.439 0.305-2.128 0.554-3.12 0.72-2.384 0.399-4.306-0.371-6.24 0.96 0.729 0.23 1.002 0.918 1.44 1.44-0.449 2.873-0.152 5.181-0.72 7.68 1.989-0.148 4.449 0.003 6.72-0.24 3.076-0.33 5.737-1.546 7.68-3.12 1.936 1.44 5.498 2.091 8.64 2.16 0.933 0.021 1.989-0.787 2.641 0.24-0.649 0.994-2.454 0.984-3.601 0.96-2.66-0.056-5.784-1.159-7.68-1.92-2.808 3.039-9.811 2.87-14.64 3.12-0.494 0.876 0.108 1.078 0.48 1.68 0.859 0.101 0.525 1.395 1.44 1.44 3.967 0.265 8.082-2.307 10.8 0.24-0.468 1.849-0.253 4.562-0.721 6.96 1.19 0.25 1.997 0.884 3.12 1.2 0.189-0.531 0.84-0.601 1.2-0.96-0.183-3.448-1.986-7.719 0.48-9.84 0.264 0.758 1.267 0.477 1.92 0.48 1.999 0.009 4.968-0.203 6.96-0.24 1.059-0.02 2.414-0.955 2.399 0.48-2.84 1.769-7.945 0.331-11.04 1.44-0.782 1.329 0.133 3.227 0.24 5.04 4.348 0.031 6.744 0.093 9.84 1.68 2.517 1.29 4.932 2.8 5.28 5.52-3.165-3.638-7.975-6.9-14.88-6 0.274 1.405-0.136 2.682 0 4.56 1.189 0.925 2.999 0.552 3.84 0.96 5.14 2.495 7.53 6.429 9.84 12 1.86 4.486 2.689 7.34 3.12 12 0.806 0.262 0.973 1.153 1.68 1.68 1.095 0.813 5.97 2.697 7.2 2.64 2.276-0.104 2.639-1.922 3.601-3.119 0.465-0.58 1.151-0.729 1.439-1.2 0.981-1.602 1.748-4.12 2.16-6.24 0.485-2.494 0.356-5.326 0.72-8.16 0.481-3.754 2.006-7.088 2.4-9.84 0.331-0.629 1.094-0.826 1.2-1.68-0.668-4.215 0.229-11.923-2.16-13.68-1.77 3.194 2.505 7.09 0 9.6-1.259 0.568-1.875-0.469-3.36 0-1.311-0.92-1.733-3.042-1.92-5.04-0.124-1.338-0.376-2.872 0-3.36 2.308 0.769 0.427 5.802 2.16 7.2 0.641 0.517 1.409 0.508 2.64 0 0.197-2.084-1.189-4.521-1.199-6.96-0.003-0.514 0.452-0.991 0.479-1.44 0.082-1.36-0.87-1.823-0.96-2.88 1.662-0.542 1.157 1.083 1.92 1.44 0.16-1.36-0.219-2.181-0.479-3.12-0.765 0.356-2.239 0.001-2.881 0.48 0.499 0.142 0.818 0.462 0.961 0.96-0.979 0.621-2.381 0.819-3.601 1.2-0.63 1.485 0.199 2.409-0.479 3.12-1.049-1.374-2.509-1.145-4.801-0.96 0.934 5.469 0.905 11.881 1.92 18.24 0.21 1.314 0.816 2.582 0.961 3.84 0.627 5.488 0.111 10.611 0.239 15.36 0.03 1.118 1.229 2.31-0.239 3.12-1.266-1.182-0.721-3.238-0.721-4.801 0-4.866-0.431-10.152-0.479-13.68-0.031-2.232-0.927-4.795-1.2-7.2-0.589-5.188-0.911-10.37-1.68-14.64-1.222 0.619-2.316 1.364-3.841 1.68 0.967 1.114 0.794 3.366 1.2 5.04-0.235 0.564-1.031 0.569-1.439 0.96 1.307 2.236 2.321 6.584-0.721 7.681-1.918-0.953-2.605-2.229-3.359-4.32-0.757-2.099-0.205-3.795-1.2-5.28-1.059-0.338-0.004 1.436-0.72 1.44-1.384-1.261-1.222-4.273-0.48-5.28 0.89-0.31 2.009-0.392 3.12-0.48 0.392-0.725-1.203-1.933 0.24-2.64 0.729 0.23 1.637 0.283 1.92 0.96 0.153 0.523-0.681 0.764 0.24 0.72 0.426-2.071-0.419-3.486-0.721-5.28-0.245-1.464 0.145-3.102-0.96-3.84 0.104 1.063-0.4 1.52-1.199 1.68-1.599-1.222-2.303-0.391-4.08-0.24 0.217 1.063 0.242 2.317 0.72 3.12 0.82 0.18 0.305-0.975 1.2-0.72 0.412 0.388 0.596 1.004 0.479 1.92-0.365 0.765-1.646-0.506-1.439 0.48 0.201 0.278 0.316 0.643 0.239 1.2 0.473-0.275 2.503-0.399 2.4 1.2-0.834 1.019-2.557 0.806-3.36 0.24-0.086-3.833-1.458-6.381-1.68-10.08 0.772-1.628 3.607-1.192 5.521-1.68 0.405 0.62 1.465 0.629 1.92 1.2 1.185 1.487 0.95 4.438 1.439 6.72 2.964 0.162 5.979-0.898 8.4-0.48-1.142 2.219-5.744 0.976-8.16 1.92-0.058 1.018 0.221 1.7 0.479 2.4 1.668-0.012 2.138-1.223 3.36-1.68 1.434 0.328 3.277-0.188 5.28 0 0.613-0.642-0.145-1.266 0-2.16 0.918 0.713 2.011 0.327 3.12 0-0.19-1.31 0.221-2.02 1.199-2.16-0.204-1.395-0.641-2.559-0.479-4.32-1.616 0.336-2.133-0.427-2.88-0.96 0.08 0.881-0.369 1.231-0.96 1.44-1.025 0.065-1.044-0.876-1.681-1.2 0.073 0.632-0.332 0.788-0.96 0.72 0.186-1.146-0.375-1.545-0.239-2.64 1.511-0.333 3.917-2.046 5.04-1.2-0.477 1.684-3.705 0.615-3.841 2.64 1.062-0.889 2.598-0.065 3.841-0.48 0.383 0.177-0.055 1.175 0.72 0.96 0.449-0.906-1.016-1.761-0.24-2.64 3.071-0.625 2.092 5.215 2.641 7.68 0.928 0.128 1.171-0.428 2.159-0.24-0.3-4.1-1.23-7.57-2.88-10.32zm-73.92 14.4c-0.067 0.517 0.273 1.17 0.24 1.68-0.113 1.718-0.876 3.96-1.2 5.76-0.304 1.687-1.064 3.467-0.72 5.04 0.531-3.069 1.096-6.104 3.6-7.2-0.03-1.471 0.726-2.154 1.44-2.88-0.117-1.236 0.183-2.058 0.96-2.4 1.083-0.043 0.64 1.439 1.68 1.44 0.462-0.098 0.19-0.931 0.96-0.72 0.069 0.418-0.766 1.288 0.24 1.2 0.377-0.104 0.205-0.755 0.96-0.48-0.194-2.034 0.372-3.309 0.72-4.8-1.676 0.396-1.873-0.688-2.88-0.96 0.073 0.633-0.501 0.619-0.96 0.72-0.986-0.054-0.82-1.259-1.92-1.2-0.093 2.307 0.217 5.017-0.72 6.48-0.785-1.13-0.586-3.122-0.48-4.8 0.143-2.246 0.441-4.885 1.68-5.76 2.155 0.405 5.182-0.062 6.24 1.44 1.262 2.591-0.343 5.692-0.72 8.16 1.592-0.29 3.536-0.276 5.28-0.24 1.03 0.021 2.497-0.409 2.88 0.48-0.4 0.95-2.045 0.49-3.36 0.48-1.49-0.011-3.242 0.008-4.56 0-0.013 1.244-1.202 1.849-0.48 3.12 2.211-0.109 3.265-1.375 4.8-2.16 1.532 0.708 1.68 2.8 4.08 2.64 1.148-3.479-0.853-9.325 0.96-12.48 1.56-0.121 3.715 0.354 4.32-0.72-8.637 0.562-14.171-1.56-22.08-1.44-1.235 0.787-0.687 1.783-0.96 3.36-0.291 1.681-0.93 1.934-1.44 2.88-0.016 6.556-3.408 13.063-3.12 19.92 0.396-1.852 1.362-2.364 1.2-4.32 1.186-3.086 2.282-7.495 2.88-11.28 0.201-1.274-0.402-2.868 0.96-3.6 0.404 0.87-0.361 1.72-0.48 2.64zm52.56-7.2c0.994-0.492 0.9 1.308 1.439 0.48-0.792-0.582 2.101-0.569 1.92 0 0.783 0.063 0.509-0.931 1.2-0.96 0.234 0.246 0.475 0.486 0.72 0.72 0.64-1.95-4.776-1.87-5.28-0.24zm-48.96 1.68c-0.125-1.166 1.298-0.782 1.92-1.2 0.247 0.553 0.826 0.774 0.72 1.68 0.851 0.051 0.474-1.126 1.44-0.96 0.935-0.186 1.244 0.887 1.92 0.24-0.199-2.266-4.024-1.966-6-1.68-0.203 0.82-0.319 1.47 0 1.92zm17.04-0.96c0.517 0.204 0.849 0.591 0.72 1.44-0.309 0.411-0.497 0.943-1.2 0.96-0.807-0.287-1.226-1.227-0.72-2.16-0.645 0.039-0.69 1.195-0.72 1.68-0.119 1.896 0.587 4.367 0.24 6.48 0.764-0.037 1.056-0.544 1.92-0.48 0.418 0.415 0.266 1.484-0.24 1.68-0.679 0.042-1.646-0.206-1.68 0.48 0.615 0.38 1.899-0.229 3.12 0-0.166-1.257-0.166-0.903 0-2.16 0.549-0.251 1.448-0.152 1.92-0.48-0.043-1.964 0.401-3.439 0.48-5.28-0.533-0.556-0.936 0.082-1.68 0-0.349-1.25-0.386-2.233 0.96-2.64-0.054 0.408 0.271 0.594 0.24 0-0.62-0.24-2.411-0.15-3.36 0.48zm-23.28 3.12c1.552-0.2 1.038-2.067 1.2-2.88h-0.72c-0.119 0.94-1.234 1.83-0.48 2.88zm6 6c-0.037 0.975 1.253 1.089 2.16 1.2 0.92 0.113 2.634-0.154 2.88-0.48-0.771 0.211-0.329-0.791-0.96-0.72-1.122 0.82-1.914-0.57-4.08 0zm51.36 4.32v-1.68c1.685-0.681 3.155-0.978 5.28-0.72 0.43 0.319 0.051 3.639 0.48 2.4 0.084-1.444 0.03-2.75-0.721-3.36-2.101-0.181-2.878 0.962-5.04 0.72 0 0.68-0.61 2.9 0 2.64zm-41.04-3.12c-1.444 0.396-1.843 1.837-4.08 1.44-0.629 1.089 0.162 2.321-0.96 2.64-0.976-0.224-1.063-1.337-1.92-1.68-0.989-0.189-0.451 1.149-1.44 0.96-0.397-0.403-0.191-1.409-1.2-1.2 0.313 3.29-0.363 6.814-0.48 8.88 1.455 0.665 1.553-1.916 2.64-2.4 0.196-1.804 0.962-3.039 1.2-4.8 2.024 2.879-1.033 4.752-1.2 7.92-0.556 0.805-1.14 1.58-1.68 2.4 0.415 0.385 1.484 0.116 1.68 0.72 1.491 6.611 0.551 13.261 0.72 19.44 0.081 2.928 0.076 5.759-0.72 8.399-1.153-8.722 1.456-20.879-1.44-28.08-1.311 0.449-2.111 1.409-4.08 1.2-0.058-0.343-0.395-0.404-0.48-0.72 0.157-2.003 0.813-3.507 2.16-4.32-0.049-2.128 1.483-2.677 0.96-5.28-0.75-0.371-0.734-1.506-0.96-2.4-2.284 1.03-2.81 4.483-3.36 7.2-0.546 2.698-0.414 3.924-0.24 6.24 0.106 1.42 0.068 3.1 0 4.561-0.405 8.711 0.832 16.537 5.28 20.88 0.789 0.77 1.773 1.776 2.16 1.92 3.045 1.133 7.93-0.571 9.84-2.64 0.875-6.806 3.201-12.159 5.52-17.521 2.011-2.869 4.833-4.928 6.96-7.68 1.145-0.615 2.291-1.229 2.88-2.4 1.044 0.245 1.104-0.496 1.68-0.72 0.742-3.578 1.388-7.253 1.92-11.04-3.164-0.042-5.757 1.49-8.88 0.72-0.363 0.676-0.58 1.5-0.48 2.64-1.036-0.156-1.345 0.415-1.92 0.72 0.028 5.202-0.552 10.658-5.04 12-0.098 0.578 0.438 0.521 0.24 1.2-1.688 3.031-3.915 5.525-4.32 9.84-1.345 2.73-2.014 7.266-2.4 10.32-0.119 0.938 0.442 2.035-0.48 2.64-0.938-0.957-0.317-2.194-0.24-3.36 0.566-8.617 2.992-15.368 6.48-20.399-5.297-0.517-0.219-4.854 0.48-6.24 0.666-3.744-0.585-7.936 1.2-10.56 0.744 0.024 1.331-0.109 1.68-0.48-0.54-0.469-1.806-0.209-2.4 0-0.811 0.728-0.752 1.832-1.2 2.4-1.325-1.16-2.545-2.42-4.08-3.36zm8.88 0.96c0.422-0.138 1.41 0.29 1.44-0.24-0.453-0.027-0.167-0.793-0.72-0.72-0.097 0.46-1.099 0.02-0.72 0.96zm-19.44-0.24c-0.375 0.818-0.764 2.585 0.48 2.88 0.375-1.125-0.767-1.365-0.24-1.92 1.503-0.338 4.18-0.541 5.04 0.48 0.47-0.449 0.074-0.879 0-1.44-1.992-0.23-3.048 0.04-5.28 0zm21.36 3.84c0.62-0.74 0.602-2.118 0.96-3.12-1.135 0.07-0.771 2.9-0.96 3.12zm-3.12-1.44c-0.476-0.164 0.149-1.43-0.72-1.2-2.364 1.962-0.315 6.136-0.72 9.12-0.155 1.142-0.549 2.432-0.96 3.12-0.593 0.993-2.278 1.285-2.16 2.88 3.559 0.118 5.558-2.923 6-6 0.208-1.448-0.34-3.041-0.24-4.56 0.14-2.108 1.1-3.796-0.48-4.8-0.333 0.39-0.203 1.24-0.72 1.44zm34.32-1.2c-0.511 0.999 0.733 2.302 1.2 3.12-0.268 3.228 1.235 4.685 1.92 6.96h1.2c1.41-2.207 0.008-4.519-0.479-7.2-0.216-1.187 0.222-2.414-0.721-3.12-0.411 0.628-0.971 1.108-1.68 1.44-0.3-0.56-0.79-1.73-1.44-1.2zm37.68 5.04c0.729 0.399 3.111 0.399 3.84 0-1.35 0.32-3.11-1.27-3.84 0zm-0.72 1.2c-0.525 2.242-1.882 4.28-2.16 6.96-0.406 3.912-0.527 6.979-1.2 9.84-0.705 2.995-1.773 4.894-2.4 7.2 2.707-0.393 2.825-2.78 3.601-5.28 0.222-0.715 0.684-1.118 0.72-1.68 0.095-1.465-0.839-2.817-0.48-4.08 0.896-0.084 1.241 1.104 1.44 1.68 0.677 1.957 0.316 4.19 0.72 6.24 0.331 1.684 1.192 3.15 1.44 4.8 0.39 2.59-0.578 5.438 0.72 7.44 1.044-3.522 1.189-8.666 0.96-12.721-0.093-1.646-0.565-3.898 0.72-4.8 0.613 0.624 0.608 1.691 0.721 2.641 0.662 5.627-0.244 12.394-1.92 16.319 2.81-0.322 2.113-5.005 2.64-8.399 0.384-2.478 0.489-5.773 0.72-8.16 0.068-0.705-0.63-2.193 0.721-2.16 2.096 0.942-1.051 3.893 0.72 4.56 0.919-0.681-0.146-3.347 1.439-3.359 0.033 0.768-0.236 1.836 0.721 1.68-0.328-3.735 0.369-7.723 0-10.8-0.323-2.694-1.825-5.175-1.92-8.16-2.72 0.35-5.72 0.58-7.92 0.24zm-58.56 7.92c0.271 2.347-1.356 7.24 1.92 7.68 1.293-0.839 0.176-2.447-0.24-3.6 0.812-1.204 0.402-2.694 0.48-4.561 0.09-2.13 0.92-4.023-0.24-4.8 0.357 1.98-0.321 4.51-1.92 5.28zm3.12 3.6c0.184 0.697 1.138 0.623 0.96 1.681 0.035 1.042-0.675 1.339-0.24 2.159 2.621 1.007 4.049-1.002 5.28-2.159-1.562-1.885 0.02-4.186-0.48-6.24-0.321-1.324-2.437-1.896-1.68-3.6-1.764 1.417 0.759 6.114-0.479 8.16-0.698-2.182-0.959-4.801-0.96-7.68-0.583-0.378-1.025-0.895-2.16-0.72 0.103 2.98-0.428 5.33-0.241 8.4zm-35.76-5.52c0.269 0.051 0.374 0.267 0.479 0.479 1.413-0.187 1.975-1.225 2.4-2.399-1.707-0.11-2.68 0.52-2.879 1.92zm17.28 22.08c0.906-3.168 2.064-6.085 3.36-8.4 2.899-5.179 7.074-9.349 10.8-13.2 0.029-0.029 0.81-0.428 0.24-0.72-1.242 1.548-3.147 2.263-4.56 3.6-5.394 5.106-9.263 11.422-10.56 20.641 0.879-0.19 0.572-1.4 0.72-1.92zm28.08-20.88c3.211 2.709 4.55 7.29 7.681 10.08-1.489-5.632-4.508-9.732-9.84-11.521 0.181 1.02 1.331 1.07 2.16 1.44zm-1.68 8.16c2.124 0.044 3.511-0.648 4.8-1.439-0.348-1.333-0.69-2.669-2.16-2.88 0.218 0.966 0.49 2.496-0.239 3.12-0.478-3.043-0.273-6.768-3.841-6.721-0.492 2.67-0.169 6.55 1.44 7.92zm-16.08-1.92c0.006 0.311 1.845 2.285 2.4 2.16 1.664-0.815 1.309-3.651 1.68-5.76-0.053-0.188-0.201-0.279-0.48-0.24-0.426 0.81-3.617 2.91-3.6 3.84zm-9.12 16.8c-1.061 1.259-1.833 2.806-2.64 4.319-1.874 0.982-3.451 2.203-6 2.641-2.273 0.39-3.857-0.112-5.76-0.24-0.339 5.138-1.812 11.747-0.24 16.56 2.819-0.719 5.4-0.759 7.44-1.92 1.292-0.734 1.892-2.852 3.84-2.399 0.669 3.998 6.935 7.228 10.32 4.08 0.253-4.045 1.398-6.217 1.68-9.841 0.538-0.262 0.422-1.178 0.96-1.439 0.27-3.232 1.486-6.489 2.16-9.84 0.352-1.752 0.251-3.6 0.72-5.28 0.151-0.544 0.6-1.104 0.72-1.68 0.169-0.813-0.163-1.5 0-2.4 0.005-0.026 0.452-0.184 0.48-0.24 0.355-0.71 0.402-1.783 0.48-2.16 0.384-1.838 0.967-3.662-0.24-4.8-1.596 0.379-1.654 1.47-3.12 1.2-1.435-0.264-1.225-2.267-2.64-2.64-3.581 4.5-7.201 8.96-8.16 16.08zm36.48-3.36c-1.286-3.295-1.902-4.887-3.36-7.92-0.835-1.737-1.406-3.677-2.64-3.84-1.513-0.2-2.757 1.825-4.561 1.68-1.345-0.108-1.401-1.159-2.88-1.44-1.606 1.665-3.51 1.794-6.24 0.961-2.043 2.451-0.881 6.964-0.479 9.6 0.677 4.446 0.184 9.225 0.96 13.68 0.226 1.295 0.727 2.584 0.96 3.84 0.26 1.398 0.266 2.721 0.48 4.08 0.191 1.221 0.825 2.44 0.96 3.601 0.257 2.218-0.659 4.049 0.72 5.52 3.334-0.677 5.323-1.193 7.68-2.88 1.609-1.151 2.536-3.071 3.84-3.12 1.166-0.043 2.038 0.883 2.641 2.16 2.446 0.688 4.61 2.062 7.439 1.68 0.742-6.841 1.543-15.141 2.16-20.64-4.07-1.62-6.2-3.16-7.68-6.96zm-54.96 24.72c-0.341 1.968 0.139 3.541 0.479 5.28 0.236 1.205-0.038 2.92 1.2 3.12 1.534-2.397-0.028-6.328 0.24-9.36-1.214-0.26-1.21 0.71-1.919 0.96zm14.16-0.48c-2.62 2.26-6.947 2.813-10.8 3.84 0.104 1.096-0.243 2.643 0.24 3.36 2.941-1.019 5.599-2.961 8.4-3.601 3.707-0.846 4.52 1.936 7.68 2.64 1.848 0.412 3.094-0.283 5.28 0 0.522-0.518 0.835-1.244 0.96-2.159-1.038-0.42-1.776 0.448-2.88 0.479-2.821 0.081-5.711-1.642-7.44-2.88-0.473-0.407-0.09-1.67-0.96-1.68h-0.48zm36.72 0.96c-0.118-0.126-0.149-0.328-0.48-0.24-0.388 0.572-0.861 1.058-1.199 1.68-1.736 0.845-3.265 2.31-5.521 3.12-1.763 0.634-5.067 0.385-5.04 3.12 4.13 0.53 8.957 0.174 11.28-1.2 0.734-0.435 0.845-0.892 1.68-0.96 1.218-0.1 2.177 0.952 3.36 1.2 2.167 0.454 3.542 0.009 5.76-0.479-0.065-0.815 0.186-1.946-0.24-2.4-3.28-0.62-7.34-1.43-9.6-3.84zm11.04 3.36c0.335 1.896-0.127 4.33-0.48 5.521-0.448 1.512-0.772 3.521-0.96 5.04-0.055 0.445-0.467 1.399 0.24 1.68 0.385-0.606 1.1-1.785 0.48-2.64 2.469-1.455 4.317-7.843 1.439-10.32-0.14 0.35-0.37 0.59-0.72 0.72zm-42.48 3.12c-0.589-0.453-5.649-3.513-6.24-3.12-1.263 0.841-2.723 1.02-4.32 1.681-2.149 0.89-4.704 1.92-6.24 3.12-0.801 1.438-1.532 2.947-1.68 5.04 1.575 3.03 4.125 5.844 6.24 8.159 0.713 0.781 1.641 1.851 2.64 1.92 0.849-1.124 0.83-4.884 0.96-6.479 0.123-1.513-0.227-3.328 0.72-4.08 0.397 3.11-0.053 7.04-0.24 10.8 1.903 0.229 3.63-1.026 5.28-1.92 1.76-0.953 3.649-1.663 5.04-2.88 1.027-0.898 1.6-2.179 2.64-2.88-0.186-1.466 0.314-2.246 0.24-3.6-1.789-1.48-2.871-4.09-5.04-5.76zm1.92-0.24c1.048 1.511 2.002 3.117 3.6 4.079 0.623-0.897 0.848-2.191 0.96-3.6-0.958-0.61-3.405-0.84-4.56-0.48zm35.28 1.68c-1.517-0.068-3.096-1.29-4.56-1.2-1.368 0.084-2.687 1.54-4.32 1.92-3.816 0.889-12.433-0.958-9.12 3.601 4.771-0.51 9.293-1.268 12.24-3.601 3.928 0.633 6.055 3.065 8.88 4.8-0.07-2.103 1.155-4.079 0.72-5.76-0.42-0.54-2.52 0.3-3.84 0.24zm-58.56 0.48c0.27 0.051 0.374 0.267 0.48 0.48 3.347-0.03-0.366-3.74-0.48-0.48zm60.96 5.52c-3.471-1.192-4.438-4.48-7.92-3.84-0.709 0.13-1.341 1.147-2.16 1.439-3.017 1.075-6.955 1.201-10.32 1.681-0.329 2.019-1.469 5.468 0.24 6.72 1.264 0.092 2.471 0.423 3.12 1.68 3.122 0.798 5.435 2.405 7.92 3.84 3.44-1.039 6.767-2.192 7.92-5.52 0.557 0.076 0.921-0.039 1.2-0.24-0.08-2.35 0.95-3.79 0-5.76zm2.64 3.12c1.397 0.269 2.008-1.229 1.44-2.16-1.31-0.18-1.98 1.26-1.44 2.16zm-65.28 6c3.834 0.7 3.685-4.625 4.8-7.44-0.307-0.013-0.333-0.308-0.72-0.24-0.942 2.98-3.149 4.69-4.08 7.68zm4.32-1.2c1.64 0.431 5.168 1.294 6.48 0.479-2.158-1.122-3.168-3.392-5.04-4.8-0.712 1.21-1.337 2.5-1.44 4.32zm59.76 0c0.779-0.181 1.522-0.398 1.44-1.44-1.08-1.1-2.71 0.36-1.44 1.44zm-39.6-1.68c-1.287 1.673-4.25 1.669-5.28 3.6 1.475 0.125 2.394 0.806 3.84 0.96 0.84-1.32 1.415-2.905 2.16-4.32-0.307-0.01-0.332-0.31-0.72-0.24zm34.08 4.8c-1.547 0.916-3.638 1.624-6 1.439-2.949-2.098-7.197-4.154-10.561-5.04-1.255 0.984-0.906 3.573-1.68 5.04 6.797 1.363 10.706 5.614 11.28 13.2 1.686-0.732 1.228-1.854 2.16-3.12 1.23-1.673 4.235-3.827 5.76-5.04 1.547-1.23 1.824-5.494 1.92-8.399-1.12-0.01-1.78 1.27-2.88 1.92zm3.84 1.2c-0.096 1.961-0.91 3.873-0.72 5.04 0.214 1.316 1.58 3.742 2.399 4.319 0.718-4.408-0.021-9.41-1.2-12.72-0.91 0.56-0.44 2.43-0.48 3.36zm-50.16-2.4c-2.417 0.8-5.252-1.063-7.44-0.48-0.545 2.175-2.128 3.312-2.64 5.521 5.872 1.408 6.694 7.866 7.92 13.92 1.632-5.488 1.86-12.381 3.6-17.76-0.452-0.43-1.111-0.65-1.44-1.2zm2.64 1.2c-2.049 6.11-2.398 13.921-4.56 19.92 1.172-1.147 1.661-2.727 2.4-4.08 2.396-4.386 5.722-7.793 9.36-10.8 0.311-1.29 0.674-2.526 0.96-3.84-1.959-1.07-6.215-2.34-8.16-1.2zm26.16 2.88c-2.194 2.364-1.743 6.387-2.399 9.6-0.154 0.752-0.631 1.433-0.721 2.16-0.481 3.942 0.462 8.093 0.24 12.24-0.328 6.14-0.299 12.392-0.72 18.72 1.222 1.099 1.775 2.864 3.36 3.601 1.412-4.508 5.67-6.17 10.8-6.96 0.928-6.673 2.594-12.606 3.84-18.96 1.372-2.068 1.962-4.919 2.88-7.44 0.257-0.896-0.596-0.685-0.48-1.44 1.777-0.863 1.461-3.819 1.921-6-0.901-0.592-1.353 0.666-1.921 1.2-1.848 1.739-3.906 3.778-5.039 6-0.52 1.019-0.247 2.868-1.921 2.88 0.012-7.74-2.748-14.23-9.84-15.6zm-37.44 2.88c-0.003 0.317-0.421 0.22-0.48 0.48-1.961 2.013-1.565 7.362-2.16 11.04-0.495 3.062-0.008 6.563-0.48 10.079-1.695 12.632 0.036 28.557-0.24 40.32 1.228 0.108 1.314-0.926 2.4-0.96 2.158 0.322 4.022 0.938 5.28 2.16 1.411 1.549 1.639 4.28 3.12 5.76 1.396-1.067 1.206-3.062 1.44-4.56 0.259-1.656 0.837-3.345 0.96-5.04 0.261-3.61-0.755-7.506-0.48-11.04 0.164-2.107 1.396-3.97 0.72-6 1.045-1.275 0.817-3.823 1.92-5.04 0.192-0.833-0.358-0.923-0.24-1.68 0.852-0.173 1.158-0.864 1.44-1.44 1.074-2.196 1.481-5.139 2.4-7.92 1.189-3.601 1.979-8.245 2.88-11.521-0.551-0.568-1.563-0.677-1.68-1.68 0.581-1.135 0.014-2.746 0.48-3.84 0.318-0.746 1.211-0.589 1.2-1.44-0.264-2.219 0.722-4.35 0-6.239-1.004 0.064-1.907 1.134-2.64 1.92-3.166 3.393-5.803 7.306-7.68 11.76-0.354 0.84-0.317 2.72-1.92 2.64-1.57-6.43-1.019-14.98-6.24-17.76zm-12.24 7.92c-1.259 1.554-2.844 4.95-5.76 4.561-1.178-0.158-2.856-1.42-2.4-3.841-2.736 0.704-4.416 2.465-5.28 5.04 0.891 0.31 1.168 1.232 1.92 1.681 5.181 0.508 12.168 0.863 15.12-2.16-0.225-2.74-1.024-4.9-3.6-5.28zm30.24 4.8c0.339 0.461 1.166 0.435 1.68 0.721 0.262-0.938 0.546-1.854 0.72-2.881-0.982-2.1-2.839 0.03-2.4 2.16zm-29.28 3.12c-2.205 7.68-1.435 16.055-1.2 23.76 0.065 2.126-0.317 4.297-0.24 6.48 0.066 1.872 0.583 3.849 0.72 5.76 0.115 1.608-0.332 3.195-0.24 4.8 0.13 2.285 0.786 4.625 0.96 6.96 0.178 2.384 0.224 4.607 0.24 6.96 3.095-0.268 1.47-3.711 1.2-6-0.475-4.024-0.314-8.299-0.48-11.76-0.077-1.612-0.598-3.149-0.72-4.8-0.196-2.643 0.124-5.282 0.24-7.92 0.423-9.619 1.141-16.802 2.4-25.44h-0.48c-0.658 0.54-1.529 0.87-2.4 1.2zm66.72 26.88c-1.721-3.993-7.471-5.982-12-4.08-2.253 0.947-3.665 2.843-5.04 4.32-0.314 0.965-0.247 2.312-1.439 2.4-1.186-1.215-2.062-2.739-3.36-3.84-0.175 0.676 0.179 1.5 0.24 2.399 0.135 1.981 0.847 4.906-0.96 4.8 0.364-3.013 0.262-8.183-2.88-9.12-3.046 3.902-1.234 8.435 2.64 9.601 0.732 0.221 2.206-0.641 2.4 0.72-0.335 0.386-1.185 0.256-1.44 0.72 0.325 2.11-0.622 4.613 0.96 5.04 1.042-1.679 0.251-5.188 1.68-6.479 1.504 1.146 0.082 2.905-0.239 4.56-0.645 3.316-0.44 6.598 0 9.12-0.622 2.023-2.527 3.076-2.641 5.28-0.045 0.879 0.757 1.649 0.721 2.64-0.042 1.129-1.036 1.393-0.96 2.641 1.009 1.179 0.833 2.179 0.479 4.08 1.207 0.738 1.548 1.501 1.2 3.359 0.574 1.479 2.623 2.095 3.6 2.88 0.725 0.583 0.263 1.052 1.2 1.2 2.969 0.471 4.093-3.302 6.96-3.84 0.578-1.662 1.76-2.72 3.12-3.6v-2.16c0.645-0.898 1.24-0.911 1.68-1.92 0.641-1.469 0.114-3.522 1.44-3.841-1.545-3.507 1.447-5.392 2.16-8.399 0.874-3.692 0.019-7.471 1.68-10.561 0.303-0.657 1.489-0.431 1.68-1.199-1.442-3.636 1.93-5.663 3.12-8.16-2.968 0.392-3.668 3.051-5.76 4.319-0.46-0.58-0.15-1.93-0.24-2.88zm3.36 6.72c3.594 0.709 4.54-3.078 4.32-6.96-0.051-0.27-0.267-0.374-0.48-0.48-1.89 1.87-3.97 3.55-3.84 7.44zm-55.44 14.16c-2.406-2.182-7.575-1.577-8.4 1.681 1.292-0.426 1.439-1.529 2.64-1.92 1.257-0.41 2.162 0.171 3.36-0.24 1.643 0.837 2.774 2.186 3.84 3.6-0.315-1.2-0.99-2.05-1.44-3.12zm-8.16 3.36c-1.179 1.179-2.27 2.337-3.36 3.36-0.676 0.634-1.621 1.05-1.92 1.439-0.966 1.263-1.11 3.053-1.92 4.32-0.534 0.835-1.623 1.275-2.16 2.16-0.684 1.125-0.648 2.425-1.2 3.6 2.347 1.369 4.436 0.248 6.72-0.24 3.429-0.731 7.298-0.831 9.12-2.399 1.011-0.87 1.752-2.993 2.4-4.32 0.731-1.496 2.146-3.2 2.16-4.56 0.026-2.586-2.512-4.393-3.84-6.24-3.111-0.17-4.539 1.42-6 2.88z"></path> <path style="clip-rule:evenodd;fill-rule:evenodd" d="m62.16 81.12c-0.054 1.335-2.084 1.473-2.88 0.72-0.69-2.629 2.53-2.109 2.88-0.72z"></path> </g> <metadata></metadata></svg> 