<?xml version="1.0" encoding="UTF-8" standalone="no"?> <!-- Generator: Adobe Illustrator 13.0.2, SVG Export Plug-In . SVG Version: 6.00 Build 14948) --> <svg xmlns:rdf="http://www.w3.org/1999/02/22-rdf-syntax-ns#" xmlns="http://www.w3.org/2000/svg" xmlns:cc="http://web.resource.org/cc/" xmlns:xlink="http://www.w3.org/1999/xlink" xmlns:dc="http://purl.org/dc/elements/1.1/" xmlns:svg="http://www.w3.org/2000/svg" xmlns:inkscape="http://www.inkscape.org/namespaces/inkscape" xmlns:sodipodi="http://sodipodi.sourceforge.net/DTD/sodipodi-0.dtd" xmlns:ns1="http://sozi.baierouge.fr" id="arms_xA0_Image_1_" style="enable-background:new 0 0 110.174 204.57" xml:space="preserve" viewBox="0 0 110.174 204.57" y="0px" x="0px"> <g> <path style="clip-rule:evenodd;fill-rule:evenodd" d="m42.974 45.69c0.319 0.929-1.871 2.545-2.88 2.16 0.274-1.405 2.499-0.86 2.88-2.16z"></path> <path style="clip-rule:evenodd;fill-rule:evenodd" d="m46.333 47.37c-0.343 1.497-1.682 1.998-3.359 2.16 0.738-1.101 2.174-1.505 3.359-2.16z"></path> <path style="clip-rule:evenodd;fill-rule:evenodd" d="m49.693 49.05c-0.521 1.512-2.535 2.699-4.32 2.16 1.068-0.932 3.097-0.904 3.601-2.4 0.387-0.067 0.413 0.227 0.719 0.24z"></path> <path style="clip-rule:evenodd;fill-rule:evenodd" d="m52.333 50.49c1.313 1.445-1.38 2.685-2.88 2.88 0.343-1.577 2.693-1.147 2.88-2.88z"></path> <path style="clip-rule:evenodd;fill-rule:evenodd" d="m55.453 52.17c1.25 1.241-1.469 2.262-2.64 2.64 0.392-1.368 2.182-1.338 2.64-2.64z"></path> <path style="clip-rule:evenodd;fill-rule:evenodd" d="m58.813 54.33c1.313 1.445-1.38 2.685-2.88 2.88 0.343-1.577 2.693-1.147 2.88-2.88z"></path> <path style="clip-rule:evenodd;fill-rule:evenodd" d="m61.693 56.97c0.388-0.067 0.413 0.227 0.72 0.24-0.479 0.96-1.37 1.509-2.64 1.68 0.369-0.911 1.659-0.902 1.92-1.92z"></path> <path style="clip-rule:evenodd;fill-rule:evenodd" d="m65.054 58.89c1.05 0.445-0.238 1.754-1.2 1.68 0.032-0.927 0.973-0.946 1.2-1.68z"></path> <path style="clip-rule:evenodd;fill-rule:evenodd" d="m58.094 78.09c1.039 0.441-0.287 3.152-1.44 2.16 0.144-1.055 1.523-0.876 1.44-2.16z"></path> <path style="clip-rule:evenodd;fill-rule:evenodd" d="m48.733 78.57c1.175 0.365 0.092 2.223-0.96 1.92-0.32-1.28 1.281-0.639 0.96-1.92z"></path> <path style="clip-rule:evenodd;fill-rule:evenodd" d="m60.253 79.05c1.279 0.738-0.411 2.396-1.68 2.16 0.128-1.152 1.557-1.003 1.68-2.16z"></path> <path style="clip-rule:evenodd;fill-rule:evenodd" d="m50.894 79.53c0.688 0.627-0.225 1.682-0.96 1.68-0.178-1.057 0.776-0.983 0.96-1.68z"></path> <path style="clip-rule:evenodd;fill-rule:evenodd" d="m52.333 79.53c0.388-0.068 0.414 0.227 0.721 0.24 0.149 1.351-0.523 1.877-1.44 2.16 0.083-0.955 0.522-1.557 0.719-2.4z"></path> <path style="clip-rule:evenodd;fill-rule:evenodd" d="m46.333 80.73c1.067 0.04 0.268 1.687-0.479 1.44-0.191-0.83 0.266-1.013 0.479-1.44z"></path> <path style="clip-rule:evenodd;fill-rule:evenodd" d="m56.413 80.97c0.153 1.113-0.435 1.485-0.96 1.92-0.561-0.578 0.473-1.596 0.96-1.92z"></path> <path style="clip-rule:evenodd;fill-rule:evenodd" d="m47.773 81.21h0.72c0.087 0.801 0.723 2.133-0.72 1.92 0.084-0.864 0.368-1.156 0-1.92z"></path> <path style="clip-rule:evenodd;fill-rule:evenodd" d="m57.373 81.45c0.75-0.11 0.768 0.513 0.721 1.2-0.319 0.241-0.894 0.227-0.96 0.72-0.538-0.666 0.353-1.398 0.239-1.92z"></path> <path style="clip-rule:evenodd;fill-rule:evenodd" d="m50.413 81.69c0.153 1.113-0.435 1.485-0.96 1.92-0.561-0.578 0.473-1.596 0.96-1.92z"></path> <path style="clip-rule:evenodd;fill-rule:evenodd" d="m44.174 82.17c0.531-0.132 0.341 0.458 0.72 0.48 0.052 0.932-0.255 1.505-0.96 1.68 0.329-0.985 0.419-0.96 0.24-2.16z"></path> <path style="clip-rule:evenodd;fill-rule:evenodd" d="m51.613 82.65c1.219 0.191-0.042 1.377-0.24 1.68-0.747-0.457 0.375-1.042 0.24-1.68z"></path> <path style="clip-rule:evenodd;fill-rule:evenodd" d="m53.054 82.65c0.213 0.106 0.429 0.21 0.479 0.48 0.202 1.082-0.562 1.198-0.72 1.92-0.558-0.497 0.122-1.784 0.241-2.4z"></path> <path style="clip-rule:evenodd;fill-rule:evenodd" d="m46.333 83.61c0.918 0.241 0.363 1.977-0.72 1.68 0.123-0.677 0.581-1.019 0.72-1.68z"></path> <path style="clip-rule:evenodd;fill-rule:evenodd" d="m48.014 84.33c1.219 0.191-0.043 1.378-0.24 1.68-0.748-0.458 0.374-1.042 0.24-1.68z"></path> <path style="clip-rule:evenodd;fill-rule:evenodd" d="m42.493 97.77c-0.867-0.093-0.603-1.317-1.92-0.96-0.201-0.278-0.316-0.643-0.24-1.2-2.705-1.855-5.607-3.694-8.88-5.28-0.943-0.457-1.911-1.308-2.88-1.68-0.946-0.364-2.157-0.376-3.12-0.72-2.082-0.743-4.698-1.888-7.92-2.16-3.031-0.256-7.478-0.062-9.84-0.24-0.295-0.105-0.493-0.307-0.48-0.72 0.194-0.045 0.239-0.241 0.48-0.24 9.489-0.596 17.162 1.514 23.76 4.56 2.801 1.293 5.094 2.754 7.681 4.56 1.422 0.993 3.52 2.07 3.359 4.08z"></path> <path style="clip-rule:evenodd;fill-rule:evenodd" d="m49.934 84.81c1.219 0.191-0.043 1.378-0.24 1.68-0.748-0.458 0.374-1.042 0.24-1.68z"></path> <path style="clip-rule:evenodd;fill-rule:evenodd" d="m51.134 85.53c1-0.265 1 1.705 0 1.44v-1.44z"></path> <path style="clip-rule:evenodd;fill-rule:evenodd" d="m43.693 101.61c-1.818-0.288-2.32-1.976-3.6-3.12-0.475-0.424-1.435-0.661-2.16-1.2-0.631-0.468-1.073-1.309-1.681-1.68-1.314-0.804-3.191-1.338-4.8-2.16-1.507-0.77-2.927-1.797-4.319-2.4-0.443-0.192-1.181-0.059-1.681-0.24-3.835-1.388-8.923-3.086-14.16-3.6-1.322-0.13-3.776 0.717-4.8-0.72 0.194-0.045 0.239-0.241 0.48-0.24 0.194-0.045 0.239-0.241 0.479-0.24 6.557 0.465 12.734 1.615 18.24 3.6 2.55 0.919 5.017 2.314 7.44 3.6 3.72 1.973 6.271 3.28 8.88 6 0.654 0.679 1.833 1.27 1.682 2.4z"></path> <path style="clip-rule:evenodd;fill-rule:evenodd" d="m47.054 86.73c1.219 0.191-0.043 1.378-0.24 1.68-0.748-0.458 0.374-1.042 0.24-1.68z"></path> <path style="clip-rule:evenodd;fill-rule:evenodd" d="m5.533 89.61c-0.082 0.667-1.263 0.869-0.479 1.68 0.945 0.066 0.733-1.026 1.68-0.96 0.225 1.185-0.292 1.628-0.72 2.16-0.88 0.079-1.334-0.267-1.92-0.48-0.212-1.411 0.1-3.308 1.439-2.4z"></path> <path style="clip-rule:evenodd;fill-rule:evenodd" d="m44.653 99.69c1.183-0.143 1.848 0.232 1.68 1.44-0.546-0.174-1.226-0.214-1.68-0.48v-0.96z"></path> <path style="clip-rule:evenodd;fill-rule:evenodd" d="m31.934 129.69c0.78 0.551 1.485-0.315 2.16 0.24 0.173 0.733-0.246 0.875-0.24 1.44-1.344 0.14-2.065-0.33-1.92-1.68z"></path> <path style="clip-rule:evenodd;fill-rule:evenodd" d="m19.453 163.53h0.721c-1.134 1.782 0.499 2.388 0.96 3.841 0.756 0.115 0.543-0.737 1.439-0.48v1.2c-0.563 0.076-0.9 0.379-1.68 0.24-0.542-0.578-0.562-1.678-1.92-1.44-0.145-1.43 0.166-2.39 0.48-3.36z"></path> <path style="clip-rule:evenodd;fill-rule:evenodd" d="m32.653 163.77c1.262 0.179 0.893 1.987 2.4 1.92 0.018 1.022 0.401 1.679 0.239 2.88-0.574 0.146-1.095 0.346-1.92 0.24-0.04-0.84 0.845-0.756 1.2-1.2-0.028-1.89-2.268-1.57-1.919-3.84z"></path> <path style="clip-rule:evenodd;fill-rule:evenodd" d="m29.054 166.17c0.885 0.682 0.853 1.557 2.159 0.72-0.13 1.091 0.604 1.317 1.2 1.68-0.601 1.07-2.37-0.603-3.359-0.72-0.632 0.248-0.809 0.952-1.44 1.2-1.674-0.104-1.507-0.88-3.36-0.48-0.276-0.283-0.271-0.848-0.239-1.439 0.863 1.015 1.463 0.411 2.64 0 0.125 0.354 0.355 0.604 0.48 0.96 0.958-0.32 1.66-0.9 1.919-1.92z"></path> <path style="clip-rule:evenodd;fill-rule:evenodd" d="m17.293 166.89c0.623 0.417 1.743 0.337 1.92 1.2-0.572 0.502-1.537-0.059-2.159-0.24-0.103-0.5 0.164-0.64 0.239-0.96z"></path> <path style="clip-rule:evenodd;fill-rule:evenodd" d="m30.253 168.81c0.388-0.067 0.414 0.227 0.721 0.24 1.052 2.423 2.407 4.497 3.84 6.96 0.977 1.68 1.683 2.836 2.16 5.52 0.316 1.777 0.823 3.805 0.479 6.721-0.22 1.87-1.076 3.747-1.68 5.52-0.597 1.751-1.145 3.406-1.68 5.28-1.013-0.574-0.369-1.997-0.24-2.64 0.736-3.671 2.852-5.854 2.399-11.28-0.136-1.63-0.327-3.786-0.72-5.28-0.987-3.76-5.312-6.47-5.279-11.04z"></path> <path style="clip-rule:evenodd;fill-rule:evenodd" d="m9.134 169.53c-0.386 3.383-3.345 5.439-4.08 8.881-0.216 1.006-0.02 2.07-0.24 3.119-0.193 0.919-0.831 1.746-0.96 2.641-0.25 1.727 0.25 3.437 0 5.279-0.204 1.506-1.126 2.98-1.2 4.561-0.06 1.277 0.711 2.604 0.24 3.84-2.406-1.914-0.599-5.121-0.24-7.68 0.242-1.729-0.146-3.508 0-5.28 0.114-1.394 0.603-3.035 0.96-4.56 0.384-1.639 0.49-3.438 0.96-4.561 0.43-1.026 1.438-1.843 1.92-2.64 0.633-1.046 0.978-1.801 1.44-2.88 0.085-0.315 0.422-0.378 0.479-0.721h0.721z"></path> <path style="clip-rule:evenodd;fill-rule:evenodd" d="m32.653 184.65h0.72c0.531 1.953-0.635 3.446-0.96 5.28-0.666 3.755 0.122 7.823-0.479 11.76-0.127 0.827 0.193 2.461-0.96 2.88-0.915-0.398-0.157-1.985 0-3.12 0.659-4.764 0.218-11.479 1.439-16.079-0.067-0.39 0.227-0.41 0.24-0.72z"></path> <path style="clip-rule:evenodd;fill-rule:evenodd" d="m8.413 192.33c0.267 2.827-1.099 6.1-1.92 8.64-1.133-1.087-0.099-2.61 0.24-3.84 0.364-1.319 0.873-2.715 0.96-4.08 0.346-0.13 0.586-0.37 0.72-0.72z"></path> <path style="clip-rule:evenodd;fill-rule:evenodd" d="m9.613 192.81c1.166 1.192 0.799 3.512 1.2 5.28 0.288 1.271 1.337 2.308 0.72 3.359-1.334-2.04-2.208-5.77-1.92-8.64z"></path> <path style="clip-rule:evenodd;fill-rule:evenodd" d="m15.373 193.29c1.585 1.252 1.251 4.359 1.681 6.72 0.198 1.092 1.154 1.979 0.479 2.88-1.804-2.11-1.625-6.21-2.16-9.6z"></path> <path style="clip-rule:evenodd;fill-rule:evenodd" d="m24.253 193.53c-0.061 0.899-0.578 1.342-0.72 2.16-0.093 1.355 0.122 3.126 0 4.561-0.095 1.108 0.065 2.637-0.96 2.88 0.155-3.152-0.077-6.592 0.72-9.601h0.96z"></path> <path style="clip-rule:evenodd;fill-rule:evenodd" d="m24.253 194.49c0.388-0.067 0.414 0.228 0.721 0.24 0.027 2.634 1.214 5.317 0.72 7.681-0.854-0.728-1.047-2.686-1.2-4.32-0.115-1.22 0.211-2.62-0.241-3.6z"></path> <path style="clip-rule:evenodd;fill-rule:evenodd" d="m55.934 77.61c1.128-0.079-0.114 2.435-1.2 2.4 0.53 0.526-0.237 0.98 0 1.92-0.447 0.033-0.802 0.158-0.96 0.48-0.692-0.895 1.052-1.169 0.24-2.4 1.1-0.185 1.886-1.945 1.92-2.4z"></path> <path style="clip-rule:evenodd;fill-rule:evenodd" d="m110.17 0.57c-0.54 1.604-2.648 0.947-3.841 0.96-3.967 0.042-8.054-0.669-12 0-4.796 0.813-8.829 2.51-12.72 3.12 0.101 1.099 1.629 0.771 2.64 0.96 3.212 1.654 4.841 3.699 6.721 6.96 0.848 1.47 2.057 3.018 2.64 4.56 1.181 3.122 0.803 7.674 2.16 10.8-0.104 6.559-0.025 16.456-1.92 22.8-0.335 1.122-1.062 2.25-1.44 3.36-0.938 2.757-1.433 5.035-2.64 7.44-0.536 1.067-1.541 1.867-2.16 2.88-0.471 0.771-0.555 1.717-0.96 2.4-0.404 0.682-0.966 1.045-1.44 1.68-2.627 3.518-5.515 6.831-9.119 9.6-2.363 1.815-5.069 3.077-7.681 4.32-0.244 4.259 1.283 7.968 1.681 11.76 0.164 1.571-0.244 3.219 0 4.8 0.155 1.011 0.977 2.063 1.199 3.12 0.109 0.517-0.11 1.028 0 1.44 1.178 4.37 3.314 8.681 2.881 13.68-1.559-1.243-1.4-3.167-1.921-5.04-1.361-4.906-3.499-9.4-4.319-14.64-0.501-3.199-0.23-6.591-0.48-10.08-0.111-1.552-0.607-2.983-0.479-4.56 0.048-0.598 0.622-1.076 0.72-1.68 0.281-1.751-0.204-3.893-0.96-5.28-1.165 0.515-1.413 1.947-1.92 3.12-0.758-0.118-0.848 0.433-1.68 0.24-1.856 3.344-4.675 5.726-6.721 8.88-0.313 1.034 0.682 0.759 0.96 1.2 0.247 6.432-3.472 10.86-9.12 11.52 0.449 1.391 0.597 3.084 0.48 5.04-2.538 3.062-4.113 7.086-8.4 8.4-0.146 4.169-2.114 9.909-2.159 13.92-0.009 0.738 0.481 1.413 0.479 2.16-0.004 1.636-1.246 3.521-2.64 3.84-2.406 0.551-4.214-1.383-6.48-1.681-1.622-0.213-2.811 0.446-4.56-0.239-1.105 0.684-0.428 1.629-0.48 2.88-0.202 4.791-0.755 11.77-1.2 16.8 2.451 0.184 6.77-0.056 9.12 0.96 0.878-2.787 1.311-6.456 1.681-9.84 0.179-1.635 0.4-2.815 0.72-4.32 0.296-1.395-0.087-4.111 1.439-4.08 0.898 0.581 0.083 1.572 0 2.4-0.524 5.239-1.343 10.52-1.92 15.6-0.677 0.797 1.025 0.752 0.721 1.92-0.226 1.295-1.172 1.869-1.92 2.641 0.778 1.523 2.729 3.991 0.72 5.52-1.979 0.478-3.854-1.234-5.76-1.2-0.805 0.015-1.442 0.634-2.16 0.48-0.987-0.212-1.768-0.978-2.16-1.92-0.689 0.351-0.847 1.233-1.68 1.439-2.473-0.074-5.481 0.785-7.44-0.239-1.423 0.287-2.412 0.87-3.84 0.96-0.596 0.037-1.6-0.408-2.16-0.24-1.304 0.391-1.545 1.879-2.4 2.88-1.102 1.29-3.044 2.07-3.359 3.6 0.829 0.166 1.593 0.077 2.399 0.721 1.107-0.493 1.869-1.332 2.641-2.16 1.738 1.224 4.405-1.423 6.24 0 1.547-0.934 2.021-2.938 3.84-3.601-0.326 2.155-2.188 2.772-3.12 4.32-2.266-0.24-4.362 0.787-6.96 0.48-0.881 0.719-1.739 1.461-2.88 1.92-1.061-0.221-2.102-0.459-3.12-0.721-0.305-3.438 3.66-4.648 5.04-7.199-2.071-1.311-0.724-3.774 0.479-5.04-0.125-0.995-1.211-1.029-0.96-2.4 0.082-1.118 1.363-1.037 1.92-1.68-0.693-11.452-1.258-26.454-1.92-39.36-0.232-4.537-1.497-8.837-0.96-13.92-0.527-0.833-2.333-0.387-3.12-0.96-0.174-2.383-0.742-4.4-1.2-6.72-0.313-1.593-1.107-3.071-1.199-4.56-0.092-1.473 0.286-4.109 1.199-5.52 0.399-0.617 1.491-1.086 2.4-1.92 0.701-0.644 1.269-1.621 1.92-2.16 2.208-1.826 4.978-3.454 8.16-4.32 2.358-3.241 4.938-6.261 9.6-7.2 3.809-4.191 6.029-9.971 9.841-14.16-0.149-0.891-0.982-1.098-0.721-2.4 0.562-0.878 1.048-1.833 2.641-1.68 0.562-1.836 1.731-3.068 2.88-4.32-0.779-1.657-0.306-3.875 2.16-3.6 1.837-3.282 2.829-7.411 7.199-8.16 0.993-1.941 1.972-3.808 2.881-5.76 0.869-1.869 2.292-3.539 2.64-5.76 2.404-1.139 3.621-3.862 5.52-6 0.161-0.18 0.833-0.292 0.96-0.48 0.219-0.322-0.024-0.714 0.24-0.96 0.26-0.241 0.969-0.341 1.44-0.72 0.942-0.757 0.832-0.894 2.16-1.68 0.816-0.484 1.706-1.082 2.64-1.68 1.198-0.769 2.451-1.834 3.6-2.4 0.555-0.273 1.338-0.208 1.92-0.48 0.891-0.415 1.587-1.129 2.881-1.44 0.562-0.135 1.36 0.071 1.92 0 5.791-0.736 11.758-3.583 18.239-4.56 2.633-0.397 5.385-0.24 8.16-0.24 2.43 0 5.11-0.399 7.68 0.48zm-36.477 77.76c4.807-3.444 8.648-7.293 12-12 0.119-1.728 1.316-2.321 1.92-3.36 0.941-1.621 1.549-3.854 2.4-6 0.76-1.917 1.867-3.985 2.399-6 1.126-4.262 1.653-9.429 1.92-14.64 0.663-12.911-2.81-28.722-12.72-30.24-4.683-0.717-8.304 1.402-12.24 2.64-3.423 2.542-6.793 4.442-9.6 7.2-3.462 3.402-7.184 7.178-8.88 12-0.954 1.046-1.74 2.26-1.92 4.08 2.708-0.284 4.122 1.924 6.479 1.2 1.229-2.666 1.209-5.543 4.32-5.76 3.628-0.253 4.98 2.918 5.76 6.48 1.351-1.369 4.377-1.063 4.8-3.36-0.078-0.797-1.047 0.632-1.199-0.24-0.167-1.715 1.511-3.778 0.479-4.8-0.324 1.234-1.285 2.054-1.92 3.36-0.506 1.04-0.404 3.439-2.4 3.12-0.11-1.17 0.252-2.811-0.239-3.6 1.796-2.443 2.908-5.571 6.239-6.48 0.839 0.695-0.205 1.792 0.96 2.16 0.757 0.116 0.18-1.101 0.721-1.2-0.238 3.278-0.933 5.27-1.44 7.44 3.118-0.961 5.358-2.801 8.4-3.84 0.117 3.237-3.153 3.087-4.561 4.8-0.819 0.061-1.153 0.607-2.16 0.48-0.805 1.675-3.68 1.28-4.079 3.36 3.711-1.633 9.498-0.995 9.359 2.4-0.114 2.802-3.654 5.048-6.72 5.04 0.51 2.21 2.961 2.479 3.6 4.56-0.511 2.024-1.954 3.869-2.88 6-0.197 0.455-0.056 1.206-0.24 1.68-0.199 0.514-0.793 0.746-0.96 1.2-0.202 0.555-0.019 1.378-0.239 1.92-0.252 0.617-0.973 1.074-1.2 1.68-1.184 3.141 0.319 5.946 0.479 9.6 3.085-0.037 4.425-3.094 6.721-3.12-1.158 3.162-5.974 2.667-6.721 6.24-1.456 0.383-2.263 1.417-2.88 2.64 1.94 0.847 0.196 4.513 1.2 6.24 2.058-0.308 3.495-1.771 5.042-2.88zm-11.519-47.76c-2.809-1.792-4.67 1.968-4.32 4.08 1.752 0.168 2.575 1.264 4.32 1.44 0.873-0.978 0.914-3.917 0-5.52zm0.239 7.44c-3.324-1.756-6.507-3.276-10.319-4.08-1.806-0.38-5.019-0.856-6.48 0-1.451 2.309-3.278 4.242-4.32 6.96 11.372 3.588 20.939 8.981 28.32 16.56 1.593-3.367 3.191-6.729 4.561-10.32-3.062-3.596-7.533-6.887-11.762-9.12zm1.92-0.72c1.223 1.498 3.169 2.272 4.801 3.36 1.53-1.11 4.476-0.804 6.239-1.68 0.14-0.939-0.206-1.394-0.479-1.92-2.962 0.6-7.481 1.243-10.561 0.24zm1.44 17.52c-0.751-0.628-1.968-0.988-2.88-1.68-0.428-0.325-0.742-0.849-1.2-1.2-4.264-3.267-8.562-5.526-13.92-7.68-2.596-1.043-6.105-2.895-8.88-2.4-0.011 0.331 0.112 0.527 0.24 0.72 6.032 1.519 11.452 3.69 16.319 6.48 0.495 0.283 0.943 0.921 1.44 1.2 3.397 1.903 5.929 3.672 8.64 5.76 1.077 0.83 2.132 2.104 3.12 2.16-0.927-0.972-1.944-2.578-2.879-3.36zm-9.839-4.32c-5.069-3.02-10.544-5.83-16.08-6.72-1.799-0.289-3.199 3.972-3.601 5.52 4.501 0.38 6.915 2.845 10.801 3.84 3.689 2.23 7.253 4.586 11.52 6.24 1.626 1.35 3.494 2.496 5.28 3.84 1.716 1.292 3.091 3.269 5.04 3.6-0.1-2.516-1.17-4.143-0.24-6.48-3.027-3.468-7.628-6.806-12.72-9.84zm10.799 16.32c-1.185-1.044-2.288-2.365-3.6-3.36-4.036-3.059-8.959-5.246-13.44-7.68-1.453-0.789-2.897-1.898-4.56-2.64-2.749-1.226-8.587-3.81-11.28-3.36v0.72c1.439 1.362 3.601 1.089 5.28 1.68 5.185 1.825 9.704 4.787 14.159 7.2 2.914 1.578 5.989 3.442 8.881 5.28 1.304 0.83 2.761 1.876 4.079 2.88 1.31 0.996 3.549 1.826 2.641 3.12-5.715-5.645-14.471-9.664-22.32-13.92-3.604-1.954-7.048-4.009-11.52-4.56-0.979 0.844-1.934 2.03-2.641 3.12-0.809 1.247-1.484 2.523-2.16 3.84-2.077 1.843-3.61 4.229-4.8 6.96 8.2 0.07 15.385 2.936 17.04 10.32 5.083-1.229 11.862-4.155 17.521-2.16 1.685 0.594 2.778 2.257 4.56 2.64 1.6-2.401 3.647-4.353 5.521-6.48-0.411-1.715-2.102-2.49-3.361-3.6zm-45.36 1.2v1.92c1.776-0.304 3.207-0.953 5.521-0.72 0.354-0.606 0.848-1.072 0.96-1.92-2.735 0.194-4.246 0.139-6.481 0.72zm6.481 1.2c0.89-0.17 1.029 0.41 1.92 0.24 0.111-0.848 1.076-0.844 0.96-1.92-1.411 0.11-2.728 0.312-2.88 1.68zm2.639 0.24c1.219 1 2.435 0.488 3.12-0.72-0.388-0.332-0.591-0.849-1.439-0.72-0.025 1.016-1.609 0.472-1.681 1.44zm-12.24 1.68c1.378-0.143 2.011-1.03 2.641-1.92-1.251-0.616-2.851 1.109-2.641 1.92zm15.12-0.72c0.729 0.791 2.194 0.927 2.4-0.48-0.671-0.652-2.164-0.557-2.4 0.48zm-17.279 34.32c-2.582-1.659-4.964-4.795-5.04-8.16 1.254 1.102 1.121 2.801 1.92 4.08 1.842 2.95 6.668 4.798 11.04 5.28 5.333 0.587 8.532-2.209 13.199-2.64 2.836-0.262 4.911 0.42 6.721 1.2 1.607 0.693 2.362 1.774 3.6 1.92 0.542-0.69-0.387-1.781 0.24-2.64-0.449-0.751-2.266-0.134-2.16-1.44 0.691-0.028 1.571 0.131 1.92-0.24 0.179-0.979-0.773-0.827-0.479-1.92 2.215-0.985 5.174-1.226 6.239-3.36-3.451 1.094-7.281 0.604-9.359-1.44-4.255-5.345-1.799-17.401-6.721-22.08-2.338-0.498-4.615-2.109-7.439-2.64-5.979-1.125-11.949 0.857-14.16 5.52-0.252 1.107-0.275 2.444-1.2 2.88-0.655-1.146 0.884-2.316-0.479-3.12-0.355 0.525-0.469 1.292-0.96 1.68-0.696-0.879 0.202-1.907-0.96-2.16-2.242 0.987-4.408 2.789-6.24 4.32-0.961 0.803-2.261 1.399-2.88 2.16-2.212 2.716-1.053 6.731-0.48 9.84 0.431 2.34 0.479 4.935 1.92 6.48 1.632 0.129 3.912-0.392 4.08 1.2-0.075 0.944-1.355-0.27-1.92 0.48 0.214 1.505 0.12 3.466 0.24 5.52 0.138 2.365 0.915 4.67 1.2 6.96 0.317 2.549-0.268 5.415 0 8.16 0.268 2.744 0.201 5.974 0.479 9.12 0.682 7.712 1.248 15.42 1.44 23.04 2.513-0.151 5.607-0.868 8.64-0.96 1.376-0.041 3.056 0.379 4.08-0.24-0.553-4.981 0.589-13.136 1.2-19.199-5.12 1.269-10.997 0.223-10.32-4.561 0.587-4.145 6.123-4.094 10.32-3.6-0.206-3.701 0.599-7.475 0.96-11.04 0.133-1.309-0.173-3.074 0.72-3.84 0.865 0.542 0.253 1.595 0.24 2.4-0.048 2.943-0.536 4.996-0.72 7.2-0.226 2.696 0.44 5.332-0.96 6.72-1.813-0.346-3.544-0.776-5.761-0.72 0.716 0.928 1.884 0.736 2.4 1.92 0.872 1.997-0.392 4.315-2.4 4.8 1.944 0.625 3.525-0.868 6-0.479-0.398-1.896 0.021-5.183 1.921-6.24 0.427-0.238 1.264-0.609 1.92-0.24-1.177 1.118-3.517 2.748-3.12 5.04 0.122 0.706 0.709 1.837 1.92 1.92 0.768-0.325-0.954-1.408 0-1.92 0.561 1.529 2.359 1.196 3.6 1.681 1.524 0.595 3.032 2.201 5.28 1.68 0.879-0.801 1.814-1.546 1.92-3.12-2.156-0.9-5.12-2.218-7.44-2.16-0.925 0.504 0.12 1.829-1.199 2.16-1.006-0.594-2.57-0.63-2.641-2.16 0.947-0.812 1.861-1.659 3.36-1.92 0.262-0.982-1.473 0.032-0.96-1.2h1.68c0.335 0.625 0.477 1.444 0.72 2.16 2.104 0.137 3.396 1.085 5.521 1.2 1.288-7.903 2.372-14.257 3.6-21.84-5.435-0.155-8.276 2.283-12.72 3.12-1.93-0.875-4.281-0.098-6.479-0.48-0.917-0.159-2.535-1.104-3.12-1.44-0.922-0.528-1.607-0.578-2.641-0.96-2.749-1.017-4.543-3.282-5.04-6.24-0.644-0.463-1.896-2.653-0.72-3.36 1.758 2.88 2.754 7.8 6.478 7.92zm19.92-33.12c1.168 0.111 1.509 1.051 2.64 1.2 0.55-1.066-2.046-3.277-2.64-1.2zm-19.92 1.68c0.691-0.042 1.513-1.188 0.96-1.68-0.184 0.697-1.138 0.623-0.96 1.68zm24.479 2.4c0.448-0.812-0.06-2.411-1.2-2.4-0.252 0.615 0.406 2.064 1.2 2.4zm-26.16-0.24c0.819-0.061 1.247-0.513 1.2-1.44-0.73 0.15-1.226 0.533-1.2 1.44zm48 1.68c-0.992-1.201-2.194-1.351-4.08-1.68-0.822-0.144-1.488-0.663-2.159-0.72-2.305-0.195-5.495 0.307-7.2 0.72-2.421 0.586-5.511 1.459-5.521 2.88 3.951-1.516 9.854-3.653 15.12-2.4 2.338 0.556 3.74 2.863 5.76 1.92-0.049-0.831-1.322-0.437-1.92-0.72zm-20.64 5.52c0.707-1.95-0.464-3.266 0-5.28-0.489-0.15-0.067-1.212-0.96-0.96 0.361 2.04 0.154 4.647 0.96 6.24zm11.281-4.08c0.274-0.733 1.262-0.752 0.72-1.68-1.851-0.331-0.811 2.229-2.64 1.92-0.158-0.878 0.519-0.92 0.479-1.68-3.412 0.028-5.428 1.453-8.4 1.92-0.39 5.162 0.614 10.651 3.36 13.44 0.454 0.054 0.529-0.271 0.96-0.24 0.054 0.454-0.271 0.53-0.24 0.96 0.809 0.48 3.338 2.232 4.08 0.48-0.812 0.089-1.854 0.649-1.68-0.72 0.679-0.361 1.565-0.514 1.2-1.92 0.765 0.205 0.911-0.209 1.2-0.48 0.31-0.95-0.79-0.49-0.48-1.44 0.317-0.003 0.22-0.421 0.48-0.48 0.409 0.39 0.85 0.75 1.199 1.2 0.286-0.674 1.02-0.9 1.2-1.68-0.407-0.233-0.616-0.664-0.479-1.44 0.488 0.071 0.639 0.481 0.96 0.72 0.638-0.562 1.384-1.016 1.68-1.92-1.617 0.55-3.374-0.682-1.92-1.68 0.471 0.329 0.152 1.447 0.96 1.44 0.833 0.113 0.138-1.302 0.72-1.44 0.383 0.177-0.055 1.175 0.721 0.96 1.656-1.864 3.684-3.356 4.56-6-1.849-1.111-4.025-1.895-6.72-2.16-0.386 0.815-0.592 2.818-1.92 1.92zm1.679 17.28c0.411-1.589 1.807-2.193 1.92-4.08-1.825 1.78-2.962 3.728-5.76 3.84-4.12 0.166-6.217-3.429-7.681-6.48-0.514-2.126-0.513-4.768-1.68-6.24 0.985 8.794 2.341 15.621 13.201 12.96zm-1.679-3.12c-0.379-0.021-0.188-0.612-0.721-0.48-0.174 0.546-0.214 1.226-0.479 1.68 0.662-0.286 0.842-0.681 1.68-0.24 0.688-0.432 0.215-2.026 0.72-2.64 0.683-0.042-0.29 1.57 0.721 1.2 0.785-0.41 0.324-1.352 0.239-2.16-1.724-0.123-1.771 1.431-2.16 2.64zm-24.96 14.16c-1.558 0.21-3.293 0.17-4.801 0-1.911-0.216-3.679-1.656-5.76-1.2 1.202 0.749 2.287 1.382 3.601 1.68 7.173 1.628 12.894-2.053 19.439-2.88-4.514-1.06-8.405 1.85-12.479 2.4zm17.76 2.4c1.402-2.192-2.066-4.544-4.08-4.08 1.916 0.8 3.249 2.19 4.08 4.08zm-4.8-0.72c1.082 0.042 1.965-0.115 2.159-0.96-0.942 0.1-1.986 0.09-2.159 0.96zm-0.241 2.88c1.168-0.592 3.191-0.329 3.36-1.92-1.546 0.21-2.807 0.71-3.36 1.92zm2.88-2.88c-1.105 0.254-2.266 0.455-2.64 1.44 0.536 0.13 2.302-0.57 2.64-1.44zm-26.639 17.76c-2.326 2.302-0.473 5.911 2.64 3.6 0.1-0.896 0.454-1.215 0.48-2.64-0.656-0.7-1.769-0.95-3.12-0.96zm-1.441 4.56c0.001-0.801-0.78-0.819-0.72-1.68-0.5-1.057 1.182-1.96 0-2.16-0.516 1.46-0.584 3.15 0.72 3.84zm4.08 22.08c-4.051-0.182-9.952-0.213-12 2.4 2.363 1.108 5.932-0.507 9.12-0.721 2.063-0.138 4.666 0.63 5.52-0.96 0.354-0.79-1.859-1.55-2.64-0.72zm3.6 1.2c3.641 0.131 7.393 1.393 10.32 1.439 0.544-1.099-0.533-1.529-1.439-1.92-2.146-0.925-6.537-0.585-8.881-0.96v1.44zm-6.96 1.68c0.048 1.153-0.788 2.678-0.72 4.561 1.901 1.417 3.447-0.154 6.24 0.239 0.134-0.346 0.374-0.585 0.72-0.72-0.178-1.623 0.291-3.314 0-4.32-1.407-0.05-4.195-0.29-6.24 0.24zm7.2-0.24c-0.256 2.507 1.024 4.034 2.4 5.521 1.221-0.261 2.578-0.411 3.84-0.24 1.455 0.197 2.466 1.193 3.36 0.96 0.05-0.27 0.266-0.373 0.479-0.479-0.29-1.95-1.716-2.764-1.92-4.801-2.175 0.06-5.128-1.92-8.159-0.96zm-14.399 0.96c-0.869 1.132-1.528 2.473-2.16 3.841 1.935 1.156 4.394 0.83 6.72 0.239 0.732-1.427 1.408-2.911 1.92-4.56-2.107-0.71-3.913 0.86-6.48 0.48z"></path> <path style="clip-rule:evenodd;fill-rule:evenodd" d="m9.373 81.45c-0.189 2.519-3.507 1.768-3.12-0.72 1.076-1.524 2.322-0.451 3.12 0.72z"></path> <path style="clip-rule:evenodd;fill-rule:evenodd" d="m19.453 128.49c-0.117 1.525-2.619 1.925-3.12 0.479-0.213-1.78 2.84-1.87 3.12-0.48z"></path> </g> <metadata></metadata></svg> 