<?xml version="1.0" encoding="UTF-8" standalone="no"?> <!-- Created with Inkscape (http://www.inkscape.org/) --> <svg xmlns:inkscape="http://www.inkscape.org/namespaces/inkscape" xmlns:rdf="http://www.w3.org/1999/02/22-rdf-syntax-ns#" xmlns="http://www.w3.org/2000/svg" xmlns:sodipodi="http://sodipodi.sourceforge.net/DTD/sodipodi-0.dtd" xmlns:cc="http://creativecommons.org/ns#" xmlns:xlink="http://www.w3.org/1999/xlink" xmlns:dc="http://purl.org/dc/elements/1.1/" xmlns:svg="http://www.w3.org/2000/svg" xmlns:ns1="http://sozi.baierouge.fr" id="svg2254" sodipodi:docname="kuba_information_icons_set_ok_3.svg" inkscape:export-filename="C:\joanna\Gfx\drawings_vector\admin\collections\kuba_information_icons_set.png" viewBox="0 0 54.197 48.657" sodipodi:version="0.32" inkscape:export-xdpi="182.23772" inkscape:output_extension="org.inkscape.output.svg.inkscape" inkscape:export-ydpi="182.23772" inkscape:version="0.45.1+0.46pre1+devel" sodipodi:docbase="/home/kuba"><defs id="defs3"><linearGradient id="linearGradient2528" y2="424.73" gradientUnits="userSpaceOnUse" x2="649.38" gradientTransform="matrix(1.0614 0 0 .94212 -312.58 -154.34)" y1="387.4" x1="621.35" inkscape:collect="always"><stop id="stop5030" style="stop-color:#fffd26" offset="0"></stop><stop id="stop5032" style="stop-color:#967f00" offset="1"></stop></linearGradient><linearGradient id="linearGradient2530" y2="359.15" gradientUnits="userSpaceOnUse" x2="745.22" gradientTransform="matrix(.90172 0 0 1.109 -312.58 -154.34)" y1="328.41" x1="714" inkscape:collect="always"><stop id="stop4556" style="stop-color:#ffffff" offset="0"></stop><stop id="stop4558" style="stop-color:#ffffff;stop-opacity:0" offset="1"></stop></linearGradient><linearGradient id="linearGradient2532" y2="338.76" gradientUnits="userSpaceOnUse" x2="818.39" gradientTransform="matrix(.64585 0 0 .87583 -151.44 -50.61)" y1="302.44" x1="786.65" inkscape:collect="always"><stop id="stop4740" style="stop-color:#ffffff;stop-opacity:.72656" offset="0"></stop><stop id="stop4742" style="stop-color:#ffffff" offset="1"></stop></linearGradient></defs><g id="layer1" inkscape:label="Layer 1" inkscape:groupmode="layer" transform="translate(-334.34 -203.97)"><g id="g2522"><path id="path5333" sodipodi:nodetypes="czzzzsz" style="fill:#a6a700" d="m356.37 207.63l-20.94 36.31c-2.75 4.77-0.02 8.69 5.13 8.69h41.9c5.11 0 7.54-4.58 5.16-8.69l-20.97-36.31c-2.8-4.86-7.46-4.9-10.28 0z"></path><path id="path5335" sodipodi:nodetypes="czzzzsz" style="stroke:#ffffff;stroke-width:.68595;fill:url(#linearGradient2528)" d="m356.73 209.8l-19.13 33.18c-3.07 5.33-1.33 7.94 4.69 7.94h38.29c5.71 0 7.91-2.4 4.71-7.94l-19.16-33.18c-2.88-4.98-6.48-5.05-9.4 0z"></path><path id="path5337" style="fill:url(#linearGradient2530)" d="m361.45 206.03c-1.62 0-3.26 1.26-4.72 3.79l-19.12 33.15c-3.08 5.33-1.33 7.94 4.69 7.94h2.96c0-0.12-0.03-0.23-0.03-0.34 0-15.31 11.99-27.8 27.38-29.57l-6.47-11.18c-1.44-2.5-3.06-3.78-4.69-3.79z"></path><path id="text5339" style="fill:url(#linearGradient2532)" d="m361.34 241.67c-1.69 0-3.05 1.35-3.05 3 0 1.68 1.36 3.04 3.05 3.04 1.64 0 3-1.36 3-3.04 0-1.65-1.36-3-3-3m0.75-2.72v-1.46c0-1.78 0.38-5.24 0.8-7.45l1.31-6.37c0.42-2.16 0.66-3.8 0.66-4.78 0-2.72-1.27-4.31-3.38-4.31-2.25 0-3.37 1.54-3.37 4.73 0 1.03 0 1.03 0.56 4.22l1.03 6.14c0.38 2.01 0.7 6 0.7 7.78v1.5h1.69"></path></g></g><metadata></metadata></svg> 