<?xml version="1.0" encoding="UTF-8" standalone="no"?> <!-- Created with Inkscape (http://www.inkscape.org/) --> <svg xmlns:inkscape="http://www.inkscape.org/namespaces/inkscape" xmlns:rdf="http://www.w3.org/1999/02/22-rdf-syntax-ns#" xmlns="http://www.w3.org/2000/svg" xmlns:sodipodi="http://sodipodi.sourceforge.net/DTD/sodipodi-0.dtd" xmlns:cc="http://web.resource.org/cc/" xmlns:xlink="http://www.w3.org/1999/xlink" xmlns:dc="http://purl.org/dc/elements/1.1/" xmlns:svg="http://www.w3.org/2000/svg" xmlns:ns1="http://sozi.baierouge.fr" id="svg2" sodipodi:docname="alphaville.svg" viewBox="0 0 378.09 393.09" sodipodi:version="0.32" inkscape:output_extension="org.inkscape.output.svg.inkscape" inkscape:version="0.45.1" sodipodi:docbase="/home/romanov/Desktop/Album/MyInkscape"><defs id="defs4"><linearGradient id="linearGradient4207" inkscape:collect="always"><stop id="stop4209" style="stop-color:#ec7272" offset="0"></stop><stop id="stop4211" style="stop-color:#ec7272;stop-opacity:0" offset="1"></stop></linearGradient><radialGradient id="radialGradient4216" xlink:href="#linearGradient4207" gradientUnits="userSpaceOnUse" cy="642.59" cx="252.61" gradientTransform="matrix(1.4324 0 0 1.3514 -3.1534 -654.33)" r="6.5407" inkscape:collect="always"></radialGradient><radialGradient id="radialGradient4220" xlink:href="#linearGradient4207" gradientUnits="userSpaceOnUse" cy="642.59" cx="252.61" gradientTransform="matrix(2.0849 0 0 1.617 -112.61 -826.06)" r="6.5407" inkscape:collect="always"></radialGradient><linearGradient id="linearGradient3355" y2="867.93" gradientUnits="userSpaceOnUse" x2="278.11" gradientTransform="translate(22,-450)" y1="867.93" x1="238.15" inkscape:collect="always"><stop id="stop3351" style="stop-color:#cccccc" offset="0"></stop><stop id="stop3353" style="stop-color:#cccccc;stop-opacity:0" offset="1"></stop></linearGradient></defs><g id="layer1" inkscape:label="Calque 1" inkscape:groupmode="layer" transform="translate(-198.91 -105.36)"><path id="path13118" style="stroke:#000000;stroke-width:2;fill:none" d="m222 443.36l350 2"></path><path id="path13120" style="stroke:#000000;stroke-width:1px;fill:none" d="m294 450.36h208"></path><path id="path13017" sodipodi:nodetypes="ccccc" style="fill-rule:evenodd;stroke:#000000;stroke-width:.75306px;fill:#ff5555" d="m329.8 416.51l23.54 4.07-13.11 34.5-12.2-0.28 1.77-38.29z"></path><path id="path13015" style="fill-rule:evenodd;stroke:#000000;stroke-width:.75306px;fill:#ffffff" d="m421.54 437l-6.78-25.6 18.07-6.78 13.56 25.61-24.85 6.77z"></path><path id="path13011" sodipodi:nodetypes="cccccccc" style="fill-rule:evenodd;stroke:#000000;stroke-width:0.753;fill:#916f6f" d="m330.42 363.96l115.21 16.56-4.51 31.63-27.11 16.57c-2.14-16.85-19.05-27.51-32.39-36.9-10.26 7.77-21.96 13.8-22.59 33.13l-37.65-2.25c12.71-19.58 7.06-39.16 9.04-58.74z"></path><path id="path13055" sodipodi:nodetypes="cccccc" style="fill-rule:evenodd;stroke:#000000;stroke-width:.75306px;fill:#f4d7d7" d="m438.56 182.91c-0.04-4.21-0.52-8.71 5.27-9.04 2.55 0.22 10.27 0.79 9.04 12.81l-8.29 22.59c-5.21 7.34-6.64 3.37-9.03 2.26l3.01-28.62z"></path><path id="path8086" sodipodi:nodetypes="cc" style="stroke:#000000;stroke-width:1.291;fill:none" d="m418.52 145.56c-0.42-7.03 2.32-14.06-1.5-21.08"></path><path id="path9061" sodipodi:nodetypes="cc" style="stroke:#000000;stroke-width:1.291;fill:none" d="m351.49 152.78c-5.11-3.32-9.84-8.56-15.82-7.53"></path><path id="path12038" sodipodi:nodetypes="cccccc" style="fill-rule:evenodd;stroke:#000000;stroke-width:.75306px;fill:#f4d7d7" d="m292.01 293.17c-4.31 5.61-3.5 12.14-14.31 16.57l-24.44-10.13c-5.45-2.08-0.62-13.78 16.38-7.54 25.16-1.2-2.02-11.82 14.09-13.95l8.28 15.05z"></path><path id="path9066" sodipodi:nodetypes="cssscccscssscc" style="stroke:#000000;stroke-width:1.732;fill:#000000" d="m466.72 262.29c6.46 20.37 13.77 65.32 0.77 79.29-3.09 3.31-5.48 4.36-12.29 6.87-17.58 6.5-12.12 17.51-6.3 22.81 9.56 8.7-16.97 18.5-42.8 16.55-18.13 6.12-98.97-13.63-82.65-31.84 18.24-23.54 5.91-26.51-14.87-35.69 0-20.37-0.98-56.89 12.03-70.25 6.51-6.68 26.54-10.47 35.67-8.29 2.4-0.19-7.29-15.84-3.63-16.57s25.18 9.7 29.77 8.97 39.02-10.37 44.21-10.57c5.2-0.2-7.05 15.06-1.56 15.92 9.5 9.85 41.65 2.44 41.65 22.8z"></path><path id="path8066" sodipodi:nodetypes="cccccc" style="fill-rule:evenodd;stroke:#000000;stroke-width:.75306px;fill:#f4d7d7" d="m345.56 174.56c0.04-4.21 0.52-8.71-5.28-9.03-2.55 0.21-8.52 0.29-7.28 12.3l6.53 23.09c5.21 7.34 6.65 3.38 9.04 2.26l-3.01-28.62z"></path><path id="path9069" sodipodi:nodetypes="cccc" style="fill-rule:evenodd;stroke:#000000;stroke-width:.60418px;fill:#ffffff" d="m361.97 232.85l51.36 2.42c-7.46 11.95-17.57 24.86-27.19 40.65-12.03-13.85-15.89-29.21-24.17-43.07z"></path><path id="path4232" sodipodi:nodetypes="ccc" style="stroke:#000000;stroke-width:.75306px;fill:none" d="m384.73 244.14l-3.21 14.65-16.22-12.89"></path><path id="path13047" sodipodi:nodetypes="ccc" style="stroke:#000000;stroke-width:.75306px;fill:none" d="m387.04 243.97l3.21 14.65 16.23-12.89"></path><path id="path9089" sodipodi:nodetypes="cccccccc" style="fill-rule:evenodd;stroke:#000000;stroke-width:.75306px;fill:#800000" d="m339.67 226.2c13.23-5.44 19.91-2.31 31.25 7.65 5.36 5.86 8.58 31.61-3.95 36.51-18.96-15.01-48.6 46.96-59.7 12.92l-9.18 1.16-2.23-6.08 5.1-7.47c-25.86-24.26 45.57-23.74 38.71-44.69z"></path><path id="path2160" sodipodi:nodetypes="ccccccc" style="fill-rule:evenodd;stroke:#000000;stroke-width:0.753;fill:#f4d7d7" d="m339.13 180.32c-1.1 27.77 4.59 43.29 18.97 51.12 14.36 20.38 41.94 11.06 55.34 6.58 30.65-10.96 23.79-33.82 30.51-54.16-2.32-31.37-14.25-42.01-36.58-51.64-33.95-6.03-35.59 2.8-43.39 5.18-16.86 10.61-23.17 26.61-24.85 42.92z"></path><path id="path4240" sodipodi:nodetypes="csssssssc" style="fill:#c4c8b7" d="m424.26 189.85c0 3.15-2.24 5.26-5 7.36-2.75 2.09-4.52 4.16-9.06 4.05-11.12-0.29-17.61-1.44-18.03-10.52-0.22-4.81 6.87-10.35 16.44-11.4 0.19-0.03 1.03-0.25 1.9-0.47 0.86-0.22 1.75-0.42 2.04-0.39 2.54 0.26 4.84 1.44 7.51 3.52 2.67 2.07 4.2 5.03 4.2 7.85z"></path><path id="path3134" sodipodi:nodetypes="csssssssc" style="stroke:#000000;stroke-width:.65244;fill:#aca793" d="m374.99 192.43c0 1.49-2.85 4.54-4.99 5.52-2.15 0.98-5.87 1.87-9.14 1.87-3.26 0-3.56-2.88-5.7-3.86s-3.47-2.33-3.47-3.82 3.61-5.12 5.75-6.1 2.82-1.58 6.09-1.58 6.99-0.54 9.13 0.44 2.33 6.03 2.33 7.53z"></path><path id="path3137" sodipodi:nodetypes="csssssssc" style="stroke:#1f0c0c;stroke-width:.73047;fill:#ffffff" d="m394.13 188.81c0 1.87 0.04 6.94 1.93 8.52 1.47 1.23 1.88 3.37 5.13 3.13 3.26-0.24 4.71 0.33 6.73-0.75 3.42-1.83 4.42-6.02 4.33-8.04-0.07-1.63-0.83-6.83-2.83-8.2-2.04-1.39-1.38-1.81-4.63-1.81-3.26 0-3.93 0.04-6.06 1.27-2.14 1.23-4.6 4-4.6 5.88z"></path><path id="path3153" sodipodi:nodetypes="cc" style="stroke:#000000;stroke-width:1.8826;fill:none" d="m421.81 182.28c-8.62-5.46-20.25-4.08-29.11 3.35"></path><path id="path5115" sodipodi:rx="4.5456862" sodipodi:ry="4.5456862" style="stroke:#000000;fill:#000000" sodipodi:type="arc" d="m351.03 314.45a4.5457 4.5457 0 1 1 -9.09 0 4.5457 4.5457 0 1 1 9.09 0z" transform="matrix(.55383 0 0 .56757 207.86 12.651)" sodipodi:cy="314.44574" sodipodi:cx="346.48233"></path><path id="path5131" sodipodi:nodetypes="cc" style="stroke:#000000;stroke-width:.75306px;fill:none" d="m347.11 192.15c4.52-8.69 17.94-8.95 22.76-7.87"></path><path id="path5133" sodipodi:nodetypes="cc" style="stroke:#000000;stroke-width:1.8826;fill:none" d="m376.23 189.92c-4.23-12.37-16.39-14.55-25.63-6.53"></path><path id="path5137" sodipodi:nodetypes="cccc" style="fill-rule:evenodd;stroke:#000000;stroke-width:.75306px;fill:#ffffff" d="m430.74 169.34c1.72 3.47 6.78 7.55 6.53 11.8 0.42 2.57-4.14 4.25-4.55-0.48 0.04-5.92-1.67-5.31-1.98-11.32z"></path><path id="path5149" sodipodi:nodetypes="cc" style="stroke:#000000;stroke-width:.75306px;fill:none" d="m352.98 193.3c6.96-1.85 14.11-4.49 20.23-2.79"></path><path id="path5151" style="stroke:#000000;stroke-width:.75306px;fill:none" d="m356.31 190.18l2.13 4.39"></path><path id="path5153" style="stroke:#000000;stroke-width:.75306px;fill:none" d="m361.3 187.85l2.26 6.05"></path><path id="path5155" style="stroke:#000000;stroke-width:.75306px;fill:none" d="m367.73 187.54l1.2 5.32"></path><path id="path5157" style="stroke:#000000;stroke-width:.75306px;fill:none" d="m373.15 188.31l-0.14 4.19"></path><path id="path8088" sodipodi:nodetypes="cc" style="stroke:#000000;stroke-width:1.291;fill:none" d="m423.88 145.14c3.23-7.03 9.79-11.89 16.31-16.82"></path><path id="path8090" sodipodi:nodetypes="cc" style="stroke:#000000;stroke-width:1.328;fill:none" d="m356.03 147.75c-4.27-4.73-10.08-8.69-10.87-15.15"></path><path id="path9063" sodipodi:nodetypes="cc" style="stroke:#000000;stroke-width:1.291;fill:none" d="m431.69 148.84l16.32-4.27"></path><path id="path9091" sodipodi:nodetypes="cccccccccccccccccccccccc" style="fill-rule:evenodd;stroke:#000000;stroke-width:.75306px;fill:#550000" d="m298.41 274.62l4.29 9.16-51.69 27.56-0.48 3.08c1.66 1 3.88-0.2 5.54 0.16l-1.13 2.78c-2.21-1.76-2.47-1.26-4.18-0.02l-0.77 3.04c1.63 1.05 1.74 1.2 4.35 0.77l-0.26 3.84c-2.04-0.41-3.95-2.84-5.99-1.81l-0.4 2.92-4.5 3.86-2.63-4.05 0.7-3.42c-0.9-0.84-4.1-2.56-5.98-1.93l0.31-3.13c1.77 2.74 4.79 2.81 6.56 1.08l0.69-2.86c-1.24-0.94-4.2-0.81-6.39-0.33l1.35-3.52c1.5 1.5 4.18 2.73 5.68 1.3l1.19-5.38 53.74-33.1z"></path><path id="path9095" style="stroke:#000000;stroke-width:1.732;fill:#782121" d="m350.56 255.23c0 5.05-4.17 9.14-9.32 9.14-5.14 0-9.32-4.09-9.32-9.14 0-5.04 4.18-9.13 9.32-9.13 5.15 0 9.32 4.09 9.32 9.13z"></path><path id="path9098" sodipodi:nodetypes="cc" style="stroke:#000000;stroke-width:.75306px;fill:none" d="m353.56 234l12.06 20.01"></path><path id="path9100" sodipodi:nodetypes="ccc" style="stroke:#000000;stroke-width:.75306px;fill:none" d="m363.55 250.12l-113.65 60.18-3.45 16.19"></path><path id="path9102" sodipodi:nodetypes="ccc" style="stroke:#000000;stroke-width:.75306px;fill:none" d="m361.29 246.82l-112.77 62.73-4.33 19.39"></path><path id="path9104" sodipodi:nodetypes="ccc" style="stroke:#000000;stroke-width:.75306px;fill:none" d="m359.03 243.15l-112.01 65.84-3.96 20.14"></path><path id="path9106" sodipodi:nodetypes="ccc" style="stroke:#000000;stroke-width:.75306px;fill:none" d="m357.02 239.31c-17.83 11.58-90.72 57.53-111.32 69.11l-3.77 18.83"></path><path id="path9115" style="stroke:#000000;stroke-width:1.732;fill:#000000" d="m367.4 254.69c0 0.74-0.59 1.33-1.33 1.33-0.73 0-1.33-0.59-1.33-1.33 0-0.73 0.6-1.33 1.33-1.33 0.74 0 1.33 0.6 1.33 1.33z"></path><path id="path9119" style="stroke:#000000;stroke-width:3.2903;fill:#000000" d="m322.4 281.86c0 1.4-1.13 2.53-2.52 2.53-1.4 0-2.53-1.13-2.53-2.53s1.13-2.53 2.53-2.53c1.39 0 2.52 1.13 2.52 2.53z"></path><path id="path9123" sodipodi:nodetypes="cscccc" style="fill-rule:evenodd;stroke:#000000;stroke-width:.75306px;fill:#000000" d="m277.7 309.74c5.24-2.58 8.36-5.38 10.33-8.26 2.09-3.07 2.86-6.24 3.47-9.31l16.89-4.46 8.47 36.34-39.16-14.31z"></path><path id="path11067" sodipodi:nodetypes="ccccccc" style="fill-rule:evenodd;stroke:#000000;stroke-width:.75306px;fill:#916f6f" d="m357.33 309.48l-54.31-79.61-4-1.86 2.13-2.4 4.35 2.4 52.63 80.67-0.8 0.8z"></path><path id="path10096" sodipodi:nodetypes="cccccsccccccccccccc" style="fill-rule:evenodd;stroke:#000000;stroke-width:.75306px;fill:#f4d7d7" d="m376.27 290.22l-6.21-1.37-9.66 5.02c-4.97 1.44-15.83-0.27-5.67 7.95l12.16-1.37c-7.11 1.66-16.21 1.8-17.64 2.25-5.85 1.82-5.55 7.91 10.91 5.73l10.04 2.88-18.71-2.93c-6.19 2.18-2.11 4.46 0.17 6.73l15.51 3.44-14.18-1.09c0.43 1.75-3.2 4.97 6.21 5.22l14.22 3.38-11.03 0.31c-3.66 4.09-4.96 6.82 4.54 5.51 9.62 2.43 22.27-5.1 26.52-11.31l1.6-16.21c-0.87-9.62-12.76-11.76-18.78-14.14z"></path><path id="path13013" sodipodi:nodetypes="cccccccc" style="fill-rule:evenodd;stroke:#000000;stroke-width:.75306px;fill:#000000" d="m415.51 431.73l28.62-12.05c17.24 7.32 49.54 12.69 41.42 30.88l-27.11 0.38c-9.01-7.03-17.83-12.18-24.85 0.56l-15.82-0.85-4.52-5.36 2.26-13.56z"></path><path id="path13019" style="stroke:#000000;stroke-width:.75306px;fill:none" d="m334.93 426.46l12.05 0.75"></path><path id="path13021" style="stroke:#000000;stroke-width:.75306px;fill:none" d="m333.43 430.98l14.31-2.26"></path><path id="path13023" style="stroke:#000000;stroke-width:.75306px;fill:none" d="m435.09 418.93l-12.8 5.27"></path><path id="path13025" style="stroke:#000000;stroke-width:.75306px;fill:none" d="m430.57 422.7l-10.54 5.27"></path><path id="path13027" sodipodi:nodetypes="ccccc" style="stroke:#000000;stroke-width:.75306px;fill:none" d="m371.08 140.3c14.56-4.61 29.12-1.81 43.68-0.75l-26.36 6.02 16.57 2.26c-2.84 2.68-5.68 4.88-8.53 4.27"></path><path id="rect13031" sodipodi:nodetypes="ccccsc" style="stroke:#000000;stroke-width:1.732;fill:#916f6f" d="m453.81 319.13l18.82 0.38c3.47 10.19-3.32 24.58-9.06 25.6l-15.79-3.39c0.58-4.84-2.25-8.94 1.64-13.78 3.28-4.08 7.97-3.61 4.39-8.81z"></path><path id="path13034" sodipodi:nodetypes="cc" style="stroke:#000000;stroke-width:.75306px;fill:none" d="m388.91 212.6c-5.97-0.86-6.23 0.48-12.83-2.27"></path><path id="path13041" sodipodi:nodetypes="cc" style="stroke:#000000;stroke-width:.75306px;fill:none" d="m358.37 199l-12.38 5.47"></path><path id="path13043" sodipodi:nodetypes="cc" style="stroke:#000000;stroke-width:.75306px;fill:none" d="m357.1 202.13l-7.97 3.46"></path><path id="path13045" sodipodi:nodetypes="cccc" style="stroke:#000000;stroke-width:1.732;fill:#916f6f" d="m324.39 314.39c3.47 10.19 2.73 9.51-3.01 10.54l-14.68-6.4c5.19-2.26 8.79-6.52 17.69-4.14z"></path><path id="path13052" style="stroke:#ffffff;stroke-width:1.732;fill:#800000" d="m388.25 275.87c0 1.69-1.31 3.07-2.93 3.07-1.61 0-2.93-1.38-2.93-3.07s1.32-3.06 2.93-3.06c1.62 0 2.93 1.37 2.93 3.06z"></path><path id="path13122" sodipodi:nodetypes="cc" style="stroke:#000000;stroke-width:1px;fill:none" d="m365 466.07h63"></path><path id="path13124" sodipodi:nodetypes="cc" style="stroke:#000000;stroke-width:1px;fill:none" d="m344.41 457.95h101"></path><path id="path13140" sodipodi:nodetypes="cc" style="stroke:#000000;stroke-width:0.753;fill:none" d="m422.35 224.36l13.65-5"></path><path id="path13142" sodipodi:nodetypes="cc" style="stroke:#000000;stroke-width:0.753;fill:none" d="m427.53 218.22l10.12-3.18"></path><path id="path2224" style="stroke:#ffffff;stroke-width:1px;fill:none" d="m458.5 322.36v-7.25"></path><path id="path3197" sodipodi:nodetypes="cc" style="stroke:#ffffff;stroke-width:1px;fill:none" d="m462.43 322.59l2-7.5"></path><path id="path3199" sodipodi:nodetypes="cc" style="stroke:#ffffff;stroke-width:1px;fill:none" d="m466.93 323.09l2.75-5.75"></path><path id="path3201" sodipodi:nodetypes="cc" style="stroke:#ffffff;stroke-width:1px;fill:none" d="m455.68 325.59l-4.5-2.5"></path><path id="path3203" sodipodi:nodetypes="cc" style="stroke:#ffffff;stroke-width:1px;fill:none" d="m452.93 329.59l-7.5 0.5"></path><path id="path3205" sodipodi:nodetypes="cc" style="stroke:#ffffff;stroke-width:1px;fill:none" d="m452.18 337.09l-6.5 1.25"></path><path id="path3207" sodipodi:nodetypes="cc" style="stroke:#ffffff;stroke-width:1px;fill:none" d="m452.18 344.34l1.75-4.5"></path><path id="path3209" sodipodi:nodetypes="cc" style="stroke:#ffffff;stroke-width:1px;fill:none" d="m456.43 345.34l1-5.25"></path><path id="path3211" sodipodi:nodetypes="cc" style="stroke:#373737;stroke-width:1px;fill:none" d="m393.54 320.99c11.31 4.01 26.74 15.91 40.94 17.03"></path><path id="path4182" style="stroke:#ffffff;stroke-width:1px;fill:none" d="m314.39 317.4l-6.72-5.31"></path><path id="path4184" style="stroke:#ffffff;stroke-width:1px;fill:none" d="m318.28 317.04l-3.18-7.07"></path><path id="path4186" style="stroke:#ffffff;stroke-width:1px;fill:none" d="m322.17 316.69l-1.06-6.36"></path><path id="path4188" style="stroke:#ffffff;stroke-width:1px;fill:none" d="m322.52 319.87l6.01-2.47"></path><path id="path6128" sodipodi:nodetypes="csssssssc" style="stroke:#000000;stroke-width:0.753;fill:#aca793" d="m439.44 402.3c0 2.87-1.05 8.31-2.75 10.2s-4.04 0.23-6.62 0.23c-2.59 0-4.93-1.17-6.63-3.06-1.69-1.89 0.09-4.5 0.09-7.37 0-2.88-1.78-5.49-0.09-7.38 1.7-1.89 4.04-3.05 6.63-3.05 2.58 0 7.05-0.96 8.74 0.93 1.7 1.89 0.63 6.62 0.63 9.5z"></path><path id="path7100" sodipodi:nodetypes="cc" style="stroke:#ffffff;stroke-width:1px;fill:none" d="m431.52 395.06l-2.12-7.25"></path><path id="path7102" sodipodi:nodetypes="cc" style="stroke:#ffffff;stroke-width:1px;fill:none" d="m435.45 395.99l0.58-7.5"></path><path id="path7104" sodipodi:nodetypes="cc" style="stroke:#ffffff;stroke-width:1px;fill:none" d="m437.47 396.14l1.34-5.75"></path><path id="path7106" sodipodi:nodetypes="cc" style="stroke:#ffffff;stroke-width:1px;fill:none" d="m426.58 396.87l-2.73-4.27"></path><path id="path7108" sodipodi:nodetypes="cc" style="stroke:#ffffff;stroke-width:1px;fill:none" d="m428.42 401.93l-8.91-3.39"></path><path id="path7110" sodipodi:nodetypes="cc" style="stroke:#ffffff;stroke-width:1px;fill:none" d="m428.03 406.6l-8.62-1.57"></path><path id="path7112" sodipodi:nodetypes="cc" style="stroke:#ffffff;stroke-width:1px;fill:none" d="m424.85 413.85l1.75-4.5"></path><path id="path7114" sodipodi:nodetypes="cc" style="stroke:#ffffff;stroke-width:1px;fill:none" d="m434.75 415.56l-0.77-5.96"></path><path id="path2248" sodipodi:nodetypes="cc" style="stroke:#000000;stroke-width:0.753;fill:none" d="m380.49 391.06l-26.31 2.66"></path><path id="path2250" sodipodi:nodetypes="cc" style="stroke:#000000;stroke-width:0.753;fill:none" d="m375.44 394.59l-18.67 4.53"></path><path id="path2252" sodipodi:nodetypes="cc" style="stroke:#000000;stroke-width:0.753;fill:none" d="m367.97 402.26l-6.64 3.82"></path><path id="path3236" style="fill:url(#radialGradient4216)" d="m368.07 214.04c0 4.88-4.2 8.84-9.37 8.84s-9.37-3.96-9.37-8.84 4.2-8.84 9.37-8.84 9.37 3.96 9.37 8.84z"></path><path id="path4218" style="fill:url(#radialGradient4220)" d="m427.71 213.01c0 5.84-6.11 10.58-13.64 10.58s-13.64-4.74-13.64-10.58 6.11-10.58 13.64-10.58 13.64 4.74 13.64 10.58z"></path><path id="path4222" sodipodi:nodetypes="ccccc" style="fill-rule:evenodd;stroke:#000000;stroke-width:0.6;fill:#ffffff" d="m378.47 211.33c-0.46 2.08-0.3 4.16-1.59 6.24-0.31 2.9 4.01 2.79 3.89 0-0.97-1.85-0.7-3.69-0.8-5.53l-1.5-0.71z"></path><path id="path4224" style="stroke:#000000;stroke-width:3.2903;fill:#000000" d="m309.83 259.65c0 1.39-1.13 2.53-2.53 2.53-1.39 0-2.53-1.14-2.53-2.53 0-1.4 1.14-2.53 2.53-2.53 1.4 0 2.53 1.13 2.53 2.53z"></path><path id="path4226" style="stroke:#000000;stroke-width:1.732;fill:#000000" d="m354.67 233.83c0 0.74-0.59 1.33-1.33 1.33-0.73 0-1.33-0.59-1.33-1.33 0-0.73 0.6-1.33 1.33-1.33 0.74 0 1.33 0.6 1.33 1.33z"></path><path id="path4228" style="stroke:#ffffff;stroke-width:1.732;fill:#800000" d="m387.25 335.37c0 1.69-1.31 3.07-2.93 3.07-1.61 0-2.93-1.38-2.93-3.07s1.32-3.06 2.93-3.06c1.62 0 2.93 1.37 2.93 3.06z"></path><path id="path4234" style="stroke:#000000;stroke-width:1px;fill:none" d="m384.57 244.04h2.3"></path><path id="path4238" sodipodi:nodetypes="ccccc" style="fill-rule:evenodd;fill:#000000" d="m384.57 244.57l2.65-0.18 0.88 4.77-4.24-0.35 0.71-4.24z"></path><path id="path5216" sodipodi:nodetypes="cc" style="stroke:#000000;stroke-width:0.753;fill:none" d="m370.84 398.66l-10.89 3.82"></path><path id="path5222" sodipodi:nodetypes="ccccc" style="fill-rule:evenodd;stroke:#000000;stroke-width:1.1418px;fill:#000000" d="m236.27 398.14l83.96-2.08c-21.02 26.7-36.29 43.52-8.14 70.22-17.8 18.64-77.78 15.83-86.47 2.08 16.45-26.7 24.01-43.52 10.65-70.22z"></path><path id="path5220" style="stroke:#000000;stroke-width:1.291;fill:#666666" d="m349.05 396.06c0 9.18-32.28 16.64-72.05 16.64s-72.05-7.46-72.05-16.64c0-9.19 32.28-16.65 72.05-16.65s72.05 7.46 72.05 16.65z"></path><path id="path5233" sodipodi:nodetypes="ccccc" style="fill-rule:evenodd;stroke:#000000;stroke-width:1.1418px;fill:#4d4d4d" d="m227.5 468.36c7.45 5.08 17.21 8.26 31.33 7.8-6.23-21.9 2.69-42.52 4.07-61.9-9.88 1.54-13.24-0.53-18.48-1.56 1.72 20.58-2.25 37.55-16.92 55.66z"></path><path id="path5225" style="fill:#c8b7b7" d="m317.12 397.3c0 3.73-17.97 6.76-40.1 6.76-22.14 0-40.1-3.03-40.1-6.76s17.96-6.76 40.1-6.76c22.13 0 40.1 3.03 40.1 6.76z"></path><path id="path5227" sodipodi:nodetypes="cc" style="stroke:#000000;stroke-width:1.1418px;fill:none" d="m263.84 390.85l-1.25 12.75"></path><path id="path5229" style="stroke:#000000;stroke-width:1.1418px;fill:none" d="m270.73 390.33l-0.62 9.89"></path><path id="path5231" sodipodi:nodetypes="cc" style="stroke:#000000;stroke-width:1.1418px;fill:none" d="m258.2 391.11l-0.62 12.23"></path><path id="path5235" sodipodi:nodetypes="cc" style="stroke:#000000;stroke-width:1.1418px;fill:none" d="m257.26 391.11c16.92-1.07 54.74-1.71 59.84 6.51"></path><path id="path6241" style="stroke:#000000;stroke-width:1px;fill:none" d="m376 305.36l4 17"></path><path id="path6243" style="stroke:#000000;stroke-width:1px;fill:none" d="m383 309.36v13"></path><path id="path2378" sodipodi:nodetypes="ccccc" style="fill-rule:evenodd;stroke:#000000;stroke-width:1px;fill:url(#linearGradient3355)" d="m243.32 410.74c22.99 4.06 40.31 2.04 63.29 0.7l-6.01 9.9c-13.2 2.46-30.02 7.66-56.21-1.06l-1.07-9.54z"></path><path id="path2381" sodipodi:nodetypes="cc" style="stroke:#000000;stroke-width:.75306px;fill:none" d="m403.11 227.6c-5.97 0.79-15.27-3.3-24.5 4.56"></path><path id="path2385" style="stroke:#514a4a;stroke-width:1px;fill:none" d="m420 298.86l24-0.5-15-5 9-3.5-5-5.5"></path><path id="path3356" sodipodi:nodetypes="ccccc" style="fill-rule:evenodd;stroke:#000000;stroke-width:1px;fill:#ffffff" d="m345.85 156.53l89.81-2.12c2.18 2.74 4.39 5.4 5.65 12.73l-99.7 1.06c-0.59-5.23 2.16-8.23 4.24-11.67z"></path><path id="path3358" sodipodi:nodetypes="ccccc" style="fill-rule:evenodd;stroke:#000000;stroke-width:1px;fill:#ffffff" d="m350.45 151.23l82.73-1.77c2.19 2.74 4.74 4.69 6.01 12.02l-95.46-1.77c-0.26-6.39 6.05-9.97 6.72-8.48z"></path><path id="path3360" style="stroke:#000000;stroke-width:1px;fill:none" d="m416.57 157.95l-22.28-0.36"></path><path id="path3362" sodipodi:nodetypes="cc" style="stroke:#000000;stroke-width:1px;fill:none" d="m404.28 154.72h15.2"></path><path id="path3364" sodipodi:nodetypes="cc" style="stroke:#000000;stroke-width:1px;fill:none" d="m348.68 161.65l22.84 0.5"></path><path id="path3384" sodipodi:nodetypes="cc" style="stroke:#000000;stroke-width:1.328;fill:none" d="m359.92 143.15c-4.27-4.72 8.66-11.87 7.86-18.33"></path><path id="path3386" sodipodi:nodetypes="cc" style="stroke:#000000;stroke-width:.75306px;fill:none" d="m399.96 181.79c18.85-3.6 19.74 4.34 21 5.39"></path><path id="path3388" style="stroke:#000000;stroke-width:1px;fill:none" d="m322 402.36l21-4.25"></path><path id="path3390" sodipodi:nodetypes="cc" style="stroke:#000000;stroke-width:1px;fill:none" d="m328.94 396.41l18.06-3.55"></path><path id="path3392" sodipodi:nodetypes="cc" style="stroke:#000000;stroke-width:1px;fill:none" d="m325.9 392.39l15.1-3.03"></path><path id="path3394" sodipodi:nodetypes="cc" style="stroke:#6f6f6f;stroke-width:1px;fill:none" d="m294 293.86c-6.36 14.89-1.19 4.36-11 16.25"></path><path id="path4230" style="stroke:#fff9f9;stroke-width:1.732;fill:#800000" d="m386.25 369.37c0 1.69-1.31 3.07-2.93 3.07-1.61 0-2.93-1.38-2.93-3.07s1.32-3.06 2.93-3.06c1.62 0 2.93 1.37 2.93 3.06z"></path><path id="path3396" sodipodi:nodetypes="cs" style="stroke:#6f6f6f;stroke-width:1px;fill:none" d="m464.8 267.11c3.47 7.21 5.61 36.78 5.77 39.55"></path></g><metadata></metadata></svg> 