<?xml version="1.0" encoding="UTF-8" standalone="no"?> <!-- Created with Inkscape (http://www.inkscape.org/) --> <svg xmlns:inkscape="http://www.inkscape.org/namespaces/inkscape" xmlns:rdf="http://www.w3.org/1999/02/22-rdf-syntax-ns#" xmlns="http://www.w3.org/2000/svg" xmlns:sodipodi="http://sodipodi.sourceforge.net/DTD/sodipodi-0.dtd" xmlns:cc="http://web.resource.org/cc/" xmlns:xlink="http://www.w3.org/1999/xlink" xmlns:dc="http://purl.org/dc/elements/1.1/" xmlns:svg="http://www.w3.org/2000/svg" xmlns:ns1="http://sozi.baierouge.fr" id="svg2" sodipodi:docname="frecce.svg" inkscape:export-filename="/media/hdc1/ivan/openclipart/freccia_NE.png" viewBox="0 0 545 545" sodipodi:version="0.32" inkscape:export-xdpi="21.139999" inkscape:output_extension="org.inkscape.output.svg.inkscape" inkscape:export-ydpi="21.139999" inkscape:version="0.45.1" sodipodi:docbase="/media/hdc1/ivan/openclipart"><defs id="defs4"><linearGradient id="linearGradient3257" inkscape:collect="always"><stop id="stop3259" style="stop-color:#ffffff" offset="0"></stop><stop id="stop3261" style="stop-color:#ffffff;stop-opacity:0" offset="1"></stop></linearGradient><linearGradient id="linearGradient3239" inkscape:collect="always"><stop id="stop3241" style="stop-color:#000000" offset="0"></stop><stop id="stop3243" style="stop-color:#000000;stop-opacity:0" offset="1"></stop></linearGradient><linearGradient id="linearGradient3139"><stop id="stop3141" style="stop-color:#ffab20" offset="0"></stop><stop id="stop3143" style="stop-color:#b61212" offset="1"></stop></linearGradient><filter id="filter3351" inkscape:collect="always"><feGaussianBlur id="feGaussianBlur3353" stdDeviation="9.2084342" inkscape:collect="always"></feGaussianBlur></filter><linearGradient id="linearGradient3243" y2="305.17" xlink:href="#linearGradient3239" gradientUnits="userSpaceOnUse" x2="232.5" y1="305.17" x1="-54.653" inkscape:collect="always"></linearGradient><radialGradient id="radialGradient3246" xlink:href="#linearGradient3257" gradientUnits="userSpaceOnUse" cy="130.4" cx="210.89" gradientTransform="matrix(1.6647 1.2645 -.29638 .39018 -101.52 -151.48)" r="98.3" inkscape:collect="always"></radialGradient><radialGradient id="radialGradient3249" xlink:href="#linearGradient3257" gradientUnits="userSpaceOnUse" cy="107.42" cx="-32.677" gradientTransform="matrix(2.4641 .29722 -.054393 .45094 53.685 151.77)" r="143.58" inkscape:collect="always"></radialGradient><radialGradient id="radialGradient3252" xlink:href="#linearGradient3139" gradientUnits="userSpaceOnUse" cy="138.2" cx="144.13" gradientTransform="matrix(1.6345 .10973 -.033622 .50081 7.6438 131.48)" r="229.62" inkscape:collect="always"></radialGradient><linearGradient id="linearGradient3279" y2="319" xlink:href="#linearGradient3139" gradientUnits="userSpaceOnUse" x2="211.63" y1="182.66" x1="276.36" inkscape:collect="always"></linearGradient><linearGradient id="linearGradient3282" y2="511.91" xlink:href="#linearGradient3239" gradientUnits="userSpaceOnUse" x2="366.14" y1="768.56" x1="427.46" inkscape:collect="always"></linearGradient><radialGradient id="radialGradient3285" xlink:href="#linearGradient3257" gradientUnits="userSpaceOnUse" cy="668.53" cx="271.4" gradientTransform="matrix(1.2683 .31168 -1.1989 4.8789 745.54 -2638)" r="42.379" inkscape:collect="always"></radialGradient><radialGradient id="radialGradient3288" xlink:href="#linearGradient3257" gradientUnits="userSpaceOnUse" cy="426.33" cx="291.02" gradientTransform="matrix(.87939 .48805 -1.5342 2.7644 689.18 -894.25)" r="73.322" inkscape:collect="always"></radialGradient><radialGradient id="radialGradient3292" xlink:href="#linearGradient3139" gradientUnits="userSpaceOnUse" cy="515.51" cx="403.2" gradientTransform="matrix(-1.1192 2.5523 -1.8406 -.80710 1803.3 -144.15)" r="113.26" inkscape:collect="always"></radialGradient><linearGradient id="linearGradient3301" y2="561.71" xlink:href="#linearGradient3139" gradientUnits="userSpaceOnUse" x2="468.53" y1="375.79" x1="393.51" inkscape:collect="always"></linearGradient><radialGradient id="radialGradient3304" xlink:href="#linearGradient3257" gradientUnits="userSpaceOnUse" cy="577.56" cx="442.06" gradientTransform="matrix(.86686 1.766 .99055 -.48623 -889.08 -189.56)" r="113.26" inkscape:collect="always"></radialGradient><radialGradient id="radialGradient3307" xlink:href="#linearGradient3239" gradientUnits="userSpaceOnUse" cy="513.54" cx="518.04" gradientTransform="matrix(-.51359 2.2437 -.57742 -.13217 804.26 -1027.4)" r="113.26" inkscape:collect="always"></radialGradient><radialGradient id="radialGradient3310" xlink:href="#linearGradient3257" gradientUnits="userSpaceOnUse" cy="513.54" cx="518.04" gradientTransform="matrix(.51359 2.2437 .57742 -.13217 -469.1 -1027.4)" r="113.26" inkscape:collect="always"></radialGradient><radialGradient id="radialGradient3313" xlink:href="#linearGradient3139" gradientUnits="userSpaceOnUse" cy="517.18" cx="475.84" gradientTransform="matrix(-1.1192 -2.5523 -1.8406 .80710 1618.5 974.77)" r="113.26" inkscape:collect="always"></radialGradient><linearGradient id="linearGradient3322" y2="315.11" xlink:href="#linearGradient3139" gradientUnits="userSpaceOnUse" x2="182.29" y1="58.2" x1="99.39" inkscape:collect="always"></linearGradient><linearGradient id="linearGradient3346" y2="511.91" xlink:href="#linearGradient3239" gradientUnits="userSpaceOnUse" x2="366.14" gradientTransform="matrix(0 1 1 0 -393.77 -83.498)" y1="768.56" x1="427.46" inkscape:collect="always"></linearGradient><radialGradient id="radialGradient3349" xlink:href="#linearGradient3257" gradientUnits="userSpaceOnUse" cy="668.53" cx="271.4" gradientTransform="matrix(.31168 1.2683 4.8789 -1.1989 -3031.8 662.04)" r="42.379" inkscape:collect="always"></radialGradient><radialGradient id="radialGradient3352" xlink:href="#linearGradient3257" gradientUnits="userSpaceOnUse" cy="426.33" cx="291.02" gradientTransform="matrix(.48805 .87939 2.7644 -1.5342 -1288 608.03)" r="73.322" inkscape:collect="always"></radialGradient><radialGradient id="radialGradient3355" xlink:href="#linearGradient3139" gradientUnits="userSpaceOnUse" cy="515.51" cx="403.2" gradientTransform="matrix(2.5523 1.1192 -.80710 1.8406 -537.91 -1181.6)" r="113.26" inkscape:collect="always"></radialGradient><linearGradient id="linearGradient3365" y2="338.28" xlink:href="#linearGradient3139" gradientUnits="userSpaceOnUse" x2="132.76" y1="209.82" x1="25.092" inkscape:collect="always"></linearGradient><linearGradient id="linearGradient3375" y2="511.91" xlink:href="#linearGradient3239" gradientUnits="userSpaceOnUse" x2="366.14" gradientTransform="matrix(.70711 .70711 -.70711 .70711 419.7 -384.83)" y1="768.56" x1="427.46" inkscape:collect="always"></linearGradient><radialGradient id="radialGradient3380" xlink:href="#linearGradient3257" gradientUnits="userSpaceOnUse" cy="668.53" cx="271.4" gradientTransform="matrix(.67644 1.1172 -4.2977 2.6021 2812.3 -1723)" r="42.379" inkscape:collect="always"></radialGradient><radialGradient id="radialGradient3384" xlink:href="#linearGradient3257" gradientUnits="userSpaceOnUse" cy="426.33" cx="291.02" gradientTransform="matrix(.27672 .96693 -3.0396 .86987 1539.4 -529.84)" r="73.322" inkscape:collect="always"></radialGradient><radialGradient id="radialGradient3387" xlink:href="#linearGradient3139" gradientUnits="userSpaceOnUse" cy="515.51" cx="403.2" gradientTransform="matrix(-2.5961 1.0134 -.73080 -1.8722 1796.8 788.37)" r="113.26" inkscape:collect="always"></radialGradient><linearGradient id="linearGradient3396" y2="314.96" xlink:href="#linearGradient3139" gradientUnits="userSpaceOnUse" x2="360.78" y1="116.64" x1="341.29" inkscape:collect="always"></linearGradient><linearGradient id="linearGradient3406" y2="511.91" xlink:href="#linearGradient3239" gradientUnits="userSpaceOnUse" x2="366.14" gradientTransform="matrix(.70711 -.70711 .70711 .70711 -381.4 120.07)" y1="768.56" x1="427.46" inkscape:collect="always"></linearGradient><radialGradient id="radialGradient3409" xlink:href="#linearGradient3257" gradientUnits="userSpaceOnUse" cy="668.53" cx="271.4" gradientTransform="matrix(1.1172 -.67644 2.6021 4.2977 -1719.6 -2272.5)" r="42.379" inkscape:collect="always"></radialGradient><radialGradient id="radialGradient3412" xlink:href="#linearGradient3257" gradientUnits="userSpaceOnUse" cy="426.33" cx="291.02" gradientTransform="matrix(.96693 -.27672 .86987 3.0396 -526.4 -999.59)" r="73.322" inkscape:collect="always"></radialGradient><radialGradient id="radialGradient3415" xlink:href="#linearGradient3139" gradientUnits="userSpaceOnUse" cy="515.51" cx="403.2" gradientTransform="matrix(1.0134 2.5961 -1.8722 .73080 791.8 -1257)" r="113.26" inkscape:collect="always"></radialGradient><linearGradient id="linearGradient3424" y2="345.36" xlink:href="#linearGradient3139" gradientUnits="userSpaceOnUse" x2="261.71" y1="97.859" x1="166.62" inkscape:collect="always"></linearGradient><radialGradient id="radialGradient3437" xlink:href="#linearGradient3257" gradientUnits="userSpaceOnUse" cy="577.56" cx="442.06" gradientTransform="matrix(1.8617 .63577 .35661 -1.0442 -807.32 694.28)" r="113.26" inkscape:collect="always"></radialGradient><radialGradient id="radialGradient3440" xlink:href="#linearGradient3239" gradientUnits="userSpaceOnUse" cy="513.54" cx="518.04" gradientTransform="matrix(1.2234 1.9497 -.50176 .31484 -202.38 -1095.5)" r="113.26" inkscape:collect="always"></radialGradient><radialGradient id="radialGradient3443" xlink:href="#linearGradient3257" gradientUnits="userSpaceOnUse" cy="513.54" cx="518.04" gradientTransform="matrix(1.9497 1.2234 .31484 -.50176 -1102.8 -195.11)" r="113.26" inkscape:collect="always"></radialGradient><radialGradient id="radialGradient3446" xlink:href="#linearGradient3139" gradientUnits="userSpaceOnUse" cy="517.18" cx="475.84" gradientTransform="matrix(-2.5961 -1.0134 -.73080 1.8722 1789.1 -255.52)" r="113.26" inkscape:collect="always"></radialGradient><linearGradient id="linearGradient3455" y2="317.05" xlink:href="#linearGradient3139" gradientUnits="userSpaceOnUse" x2="264.11" y1="144.65" x1="78.973" inkscape:collect="always"></linearGradient><radialGradient id="radialGradient3465" xlink:href="#linearGradient3257" gradientUnits="userSpaceOnUse" cy="577.56" cx="442.06" gradientTransform="matrix(-.63577 1.8617 1.0442 .35661 -151.51 -803.75)" r="113.26" inkscape:collect="always"></radialGradient><radialGradient id="radialGradient3468" xlink:href="#linearGradient3239" gradientUnits="userSpaceOnUse" cy="513.54" cx="518.04" gradientTransform="matrix(-1.9497 1.2234 -.31484 -.50176 1638.3 -198.81)" r="113.26" inkscape:collect="always"></radialGradient><radialGradient id="radialGradient3471" xlink:href="#linearGradient3257" gradientUnits="userSpaceOnUse" cy="513.54" cx="518.04" gradientTransform="matrix(-1.2234 1.9497 .50176 .31484 737.88 -1099.2)" r="113.26" inkscape:collect="always"></radialGradient><radialGradient id="radialGradient3474" xlink:href="#linearGradient3139" gradientUnits="userSpaceOnUse" cy="517.18" cx="475.84" gradientTransform="matrix(1.0134 -2.5961 -1.8722 -.73080 798.29 1792.7)" r="113.26" inkscape:collect="always"></radialGradient><linearGradient id="linearGradient3483" y2="246.66" xlink:href="#linearGradient3139" gradientUnits="userSpaceOnUse" x2="367.36" y1="130.6" x1="304.94" inkscape:collect="always"></linearGradient></defs><g id="layer1" inkscape:label="N" inkscape:groupmode="layer" transform="translate(-85.418 -298.29)"><g id="fr_N" inkscape:label="#g3331"><path id="path3265" style="opacity:.77340;filter:url(#filter3351);fill:#000000" d="m363 346.59c-5.85 0-11.68 2.24-16.16 6.72l-90.43 162.38c-8.97 8.97-6.67 21.61 0 32.4 10.28 9.76 60.41-22.38 89.97-34.43l-64.26 257.96c-4.53 12.15 2.75 29.15 20 29.19 17.26 0.05 33.25-17.25 61.6-16.31 25.48-2.06 41.37 17.04 60.19 16.31 19.04-0.72 24.54-18.4 20-29.19l-64.03-257.03c29.95 12.89 81.47 44.07 89.71 33.5 8.19-9.69 8.97-23.43 0-32.4l-90.4-162.38c-4.48-4.48-10.34-6.72-16.19-6.72z"></path><path id="rect2164" style="stroke-linejoin:round;stroke:url(#linearGradient3301);stroke-linecap:round;stroke-width:5;fill:url(#radialGradient3292)" d="m353 334.59c-5.85 0-11.68 2.24-16.16 6.72l-90.43 162.38c-8.97 8.97-6.67 21.61 0 32.4 10.28 9.76 60.41-22.38 89.97-34.43l-64.26 257.96c-4.53 12.15 2.75 29.15 20 29.19 17.26 0.05 33.25-17.25 61.6-16.31 25.48-2.06 41.37 17.04 60.19 16.31 19.04-0.72 24.54-18.4 20-29.19l-64.03-257.03c29.95 12.89 81.47 44.07 89.71 33.5 8.19-9.69 8.97-23.43 0-32.4l-90.4-162.38c-4.48-4.48-10.34-6.72-16.19-6.72z"></path><path id="path3165" sodipodi:nodetypes="cccczcc" style="opacity:.60099;fill:url(#radialGradient3288)" d="m353 334.59c-5.85 0-11.68 2.24-16.16 6.72l-90.43 162.38c-8.97 8.97 1.71 16.09 14.89 14.01 13.88-0.48 35.32-22.46 65.44-52.83 30.12-30.38 96.55-0.35 42.45-123.56-3.82-5.06-10.34-6.72-16.19-6.72z"></path><path id="path3235" sodipodi:nodetypes="ccscc" style="opacity:.39409;fill:url(#radialGradient3285)" d="m336.38 501.66l-64.26 257.96c-4.53 12.15 1.87 18.64 19.13 18.68 17.25 0.05 15.64-29.31 64.22-48.72-60.61-44.19-7.72-235.73-19.09-227.92z"></path><path id="path3237" sodipodi:nodetypes="ccscc" style="opacity:.15271;fill:url(#linearGradient3282)" d="m368.81 501.66l64.25 257.96c4.54 12.15-1.87 18.64-19.13 18.68-17.25 0.05-15.63-29.31-64.22-48.72 60.62-44.19 7.72-235.73 19.1-227.92z"></path></g></g><g id="layer2" inkscape:label="S" inkscape:groupmode="layer" transform="translate(99.406 -.99605)"><g id="fr_S" inkscape:label="#g3324"><path id="path3358" style="opacity:.77340;filter:url(#filter3351);fill:#000000" transform="matrix(1 0 0 -1 -184.82 850.63)" d="m359 341.59c-5.85 0-11.68 2.24-16.16 6.72l-90.43 162.38c-8.97 8.97-6.67 21.61 0 32.4 10.28 9.76 60.41-22.38 89.97-34.43l-64.26 257.96c-4.53 12.15 2.75 29.15 20 29.19 17.26 0.05 33.25-17.25 61.6-16.31 25.48-2.06 41.37 17.04 60.19 16.31 19.04-0.72 24.54-18.4 20-29.19l-64.03-257.03c29.95 12.89 81.47 44.07 89.71 33.5 8.19-9.69 8.97-23.43 0-32.4l-90.4-162.38c-4.48-4.48-10.34-6.72-16.19-6.72z"></path><path id="path3360" style="stroke-linejoin:round;stroke:url(#linearGradient3322);stroke-linecap:round;stroke-width:5;fill:url(#radialGradient3313)" d="m168.18 496.03c-5.85 0-11.68-2.23-16.16-6.72l-90.438-162.37c-8.961-8.97-6.665-21.61 0-32.41 10.287-9.76 60.418 22.39 89.968 34.44l-64.249-257.97c-4.54-12.139 2.746-29.141 19.999-29.185 17.25-0.045 33.24 17.255 61.59 16.312 25.48 2.063 41.38-17.035 60.19-16.312 19.05 0.722 24.54 18.403 20 29.187l-64.03 257.03c29.95-12.89 81.48-44.06 89.72-33.5 8.18 9.7 8.96 23.44 0 32.41l-90.41 162.37c-4.48 4.49-10.34 6.72-16.18 6.72z"></path><path id="path3376" sodipodi:nodetypes="ccscc" style="opacity:.52709;fill:url(#radialGradient3310)" d="m151.55 328.97l-64.249-257.97c-4.54-12.139 2.746-29.141 19.999-29.185 17.25-0.045 36.53 28.21 64.88 27.268-52.02 25.487-54.63 54.717-20.63 259.89z"></path><path id="path3380" sodipodi:nodetypes="ccscc" style="opacity:.21675;fill:url(#radialGradient3307)" d="m183.61 328.97l64.25-257.97c4.54-12.139-2.75-29.141-20-29.185-17.25-0.045-36.53 28.21-64.88 27.268 52.02 25.487 54.64 54.717 20.63 259.89z"></path><path id="path3384" sodipodi:nodetypes="ccccc" style="opacity:.43350;fill:url(#radialGradient3304)" d="m152.02 489.31l-90.438-162.37c-8.961-8.97-6.665-21.61 0-32.41 10.605-9.12 71.278 30.22 96.538 50.87-64.173 22.94 40.52 114.99-6.1 143.91z"></path></g></g><g id="layer3" inkscape:label="E" inkscape:groupmode="layer" transform="translate(99.406 -.99605)"><g id="fr_E" inkscape:label="#g3338"><path id="path2199" style="opacity:.77340;filter:url(#filter3351);fill:#000000" transform="matrix(0 1 -1 0 744.16 -79.356)" d="m359 341.59c-5.85 0-11.68 2.24-16.16 6.72l-90.43 162.38c-8.97 8.97-6.67 21.61 0 32.4 10.28 9.76 60.41-22.38 89.97-34.43l-64.26 257.96c-4.53 12.15 2.75 29.15 20 29.19 17.26 0.05 33.25-17.25 61.6-16.31 25.48-2.06 41.37 17.04 60.19 16.31 19.04-0.72 24.54-18.4 20-29.19l-64.03-257.03c29.95 12.89 81.47 44.07 89.71 33.5 8.19-9.69 8.97-23.43 0-32.4l-90.4-162.38c-4.48-4.48-10.34-6.72-16.19-6.72z"></path><path id="path2201" style="stroke-linejoin:round;stroke:url(#linearGradient3279);stroke-linecap:round;stroke-width:5;fill:url(#radialGradient3252)" d="m399.57 264.64c0-5.84-2.24-11.67-6.72-16.15l-162.38-90.44c-8.97-8.96-21.61-6.67-32.4 0-9.76 10.29 22.38 60.42 34.43 89.97l-257.97-64.25c-12.137-4.54-29.139 2.74-29.183 20-0.045 17.25 17.255 33.24 16.312 61.59 2.063 25.48-17.035 41.38-16.312 60.19 0.723 19.04 18.404 24.54 29.187 20l257.04-64.03c-12.89 29.95-44.07 81.48-33.5 89.72 9.69 8.18 23.43 8.96 32.4 0l162.38-90.41c4.48-4.48 6.72-10.34 6.72-16.19z"></path><path id="path3210" sodipodi:nodetypes="ccscc" style="opacity:.66995;fill:url(#radialGradient3249)" d="m232.5 248.02l-257.97-64.25c-12.137-4.54-29.139 2.74-29.183 20-0.045 17.25 55.598 27.76 54.655 56.12 77.8-48.99 109.28-15.78 232.5-11.87z"></path><path id="path3224" sodipodi:nodetypes="ccccc" style="opacity:.69951;fill:url(#radialGradient3246)" d="m392.85 248.49l-162.38-90.44c-8.97-8.96-21.61-6.67-32.4 0-9.76 10.29 22.38 60.42 34.43 89.97 40.06-39.29-53.88-97.46 160.35 0.47z"></path><path id="path3234" sodipodi:nodetypes="ccscc" style="opacity:.20690;fill:url(#linearGradient3243)" d="m232.5 278.31l-257.97 64.25c-12.137 4.54-29.139-2.74-29.183-20-0.045-17.25 55.598-27.76 54.655-56.11 77.8 48.98 109.28 15.78 232.5 11.86z"></path></g></g><g id="layer4" inkscape:label="O" inkscape:groupmode="layer" transform="translate(99.406 -.99605)"><g id="fr_O" inkscape:label="#g3367"><path id="path3241" style="opacity:.77340;filter:url(#filter3351);fill:#000000" transform="matrix(0 -1 1 0 -386.77 634.68)" d="m359 341.59c-5.85 0-11.68 2.24-16.16 6.72l-90.43 162.38c-8.97 8.97-6.67 21.61 0 32.4 10.28 9.76 60.41-22.38 89.97-34.43l-64.26 257.96c-4.53 12.15 2.75 29.15 20 29.19 17.26 0.05 33.25-17.25 61.6-16.31 25.48-2.06 41.37 17.04 60.19 16.31 19.04-0.72 24.54-18.4 20-29.19l-64.03-257.03c29.95 12.89 81.47 44.07 89.71 33.5 8.19-9.69 8.97-23.43 0-32.4l-90.4-162.38c-4.48-4.48-10.34-6.72-16.19-6.72z"></path><path id="path3243" style="stroke-linejoin:round;stroke:url(#linearGradient3365);stroke-linecap:round;stroke-width:5;fill:url(#radialGradient3355)" d="m-59.173 268.68c0 5.85 2.231 11.68 6.719 16.16l162.37 90.44c8.98 8.96 21.61 6.66 32.41 0 9.76-10.29-22.39-60.42-34.44-89.97l257.97 64.25c12.14 4.54 29.14-2.75 29.19-20 0.04-17.25-17.26-33.24-16.32-61.59-2.06-25.48 17.04-41.38 16.32-60.19-0.73-19.05-18.41-24.54-29.19-20l-257.03 64.03c12.89-29.95 44.06-81.48 33.5-89.72-9.7-8.18-23.43-8.96-32.41 0l-162.37 90.41c-4.492 4.48-6.723 10.34-6.723 16.18z"></path><path id="path3245" sodipodi:nodetypes="cccczcc" style="opacity:.60099;fill:url(#radialGradient3352)" d="m-59.173 271.85c0-5.85 2.231-11.68 6.719-16.16l162.37-90.44c8.98-8.96 16.1 1.71 14.01 14.9-0.48 13.88-22.46 35.31-52.83 65.44-30.374 30.12-0.348 96.55-123.55 42.45-5.065-3.83-6.723-10.34-6.723-16.19z"></path><path id="path3247" sodipodi:nodetypes="ccscc" style="opacity:.39409;fill:url(#radialGradient3349)" d="m107.89 252.88l257.97-64.25c12.14-4.54 18.63 1.87 18.67 19.12 0.05 17.25-29.3 15.64-48.72 64.22-44.19-60.61-235.73-7.72-227.92-19.09z"></path><path id="path3249" sodipodi:nodetypes="ccscc" style="opacity:.15271;fill:url(#linearGradient3346)" d="m107.89 285.31l257.97 64.25c12.14 4.54 18.63-1.87 18.67-19.12 0.05-17.26-29.3-15.64-48.72-64.23-44.19 60.62-235.73 7.72-227.92 19.1z"></path></g></g><g id="layer6" inkscape:label="NE" inkscape:groupmode="layer"><g id="fr_NE" inkscape:label="#g3398"><path id="path3348" style="opacity:.77340;filter:url(#filter3351);fill:#000000" transform="matrix(.70711 .70711 -.70711 .70711 419.7 -384.83)" d="m363 346.59c-5.85 0-11.68 2.24-16.16 6.72l-90.43 162.38c-8.97 8.97-6.67 21.61 0 32.4 10.28 9.76 60.41-22.38 89.97-34.43l-64.26 257.96c-4.53 12.15 2.75 29.15 20 29.19 17.26 0.05 33.25-17.25 61.6-16.31 25.48-2.06 41.37 17.04 60.19 16.31 19.04-0.72 24.54-18.4 20-29.19l-64.03-257.03c29.95 12.89 81.47 44.07 89.71 33.5 8.19-9.69 8.97-23.43 0-32.4l-90.4-162.38c-4.48-4.48-10.34-6.72-16.19-6.72z"></path><path id="path3350" style="stroke-linejoin:round;stroke:url(#linearGradient3396);stroke-linecap:round;stroke-width:5;fill:url(#radialGradient3387)" d="m432.72 101.37c-4.14-4.136-9.84-6.679-16.18-6.674l-178.76 50.864c-12.69 0.01-20 10.57-22.92 22.92 0.37 14.17 58.55 26.89 87.97 39.26l-227.84 136.98c-11.799 5.38-18.67 22.55-6.501 34.78 12.168 12.24 35.711 11.31 55.091 32.02 19.47 16.56 17.21 41.31 31.02 54.1 13.98 12.95 30.37 4.34 34.78-6.5l136.47-227.02c12.07 30.29 26.46 88.77 39.76 87.12 12.64-1.06 22.9-10.23 22.91-22.91l50.89-178.74c0.01-6.35-2.56-12.07-6.69-16.2z"></path><path id="path3352" sodipodi:nodetypes="cccczcc" style="opacity:.60099;fill:url(#radialGradient3384)" d="m432.72 101.37c-4.14-4.136-9.84-6.679-16.18-6.674l-178.76 50.864c-12.69 0.01-10.18 12.59 0.62 20.44 10.15 9.48 40.85 9.09 83.63 8.92 42.78-0.18 68.52 68.02 117.38-57.35 0.88-6.28-2.56-12.07-6.69-16.2z"></path><path id="path3354" sodipodi:nodetypes="ccscc" style="opacity:.39409;fill:url(#radialGradient3380)" d="m302.83 207.74l-227.84 136.98c-11.799 5.38-11.857 14.5 0.313 26.73 12.167 12.23 31.777-9.66 79.867 10.96-11.62-74.1 161.22-172.14 147.66-174.67z"></path><path id="path3356" sodipodi:nodetypes="ccscc" style="opacity:.15271;fill:url(#linearGradient3375)" d="m325.76 230.68l-136.98 227.84c-5.37 11.8-14.49 11.85-26.73-0.32-12.23-12.16 9.67-31.78-10.96-79.86 74.11 11.62 172.15-161.23 174.67-147.66z"></path></g></g><g id="layer7" inkscape:label="NO" inkscape:groupmode="layer"><g id="fr_NO" inkscape:label="#g3429"><path id="path3368" style="opacity:.77340;filter:url(#filter3351);fill:#000000" transform="matrix(.70711 -.70711 .70711 .70711 -381.4 120.07)" d="m363 346.59c-5.85 0-11.68 2.24-16.16 6.72l-90.43 162.38c-8.97 8.97-6.67 21.61 0 32.4 10.28 9.76 60.41-22.38 89.97-34.43l-64.26 257.96c-4.53 12.15 2.75 29.15 20 29.19 17.26 0.05 33.25-17.25 61.6-16.31 25.48-2.06 41.37 17.04 60.19 16.31 19.04-0.72 24.54-18.4 20-29.19l-64.03-257.03c29.95 12.89 81.47 44.07 89.71 33.5 8.19-9.69 8.97-23.43 0-32.4l-90.4-162.38c-4.48-4.48-10.34-6.72-16.19-6.72z"></path><path id="path3370" style="stroke-linejoin:round;stroke:url(#linearGradient3424);stroke-linecap:round;stroke-width:5;fill:url(#radialGradient3415)" d="m104.8 107.05c-4.13 4.14-6.675 9.84-6.67 16.18l50.87 178.77c0.01 12.68 10.57 19.99 22.91 22.91 14.18-0.37 26.89-58.55 39.27-87.97l136.98 227.84c5.37 11.8 22.55 18.67 34.78 6.5s11.3-35.7 32.02-55.09c16.56-19.47 41.3-17.21 54.09-31.02 12.96-13.98 4.34-30.37-6.5-34.78l-227.02-136.47c30.29-12.07 88.77-26.46 87.13-39.76-1.07-12.64-10.23-22.9-22.92-22.91l-178.74-50.89c-6.34-0.01-12.06 2.56-16.2 6.69z"></path><path id="path3372" sodipodi:nodetypes="cccczcc" style="opacity:.60099;fill:url(#radialGradient3412)" d="m104.8 107.05c-4.13 4.14-6.675 9.84-6.67 16.18l50.87 178.77c0.01 12.68 12.59 10.17 20.43-0.63 9.48-10.15 9.1-40.85 8.92-83.63s68.03-68.52-57.35-117.38c-6.28-0.877-12.06 2.56-16.2 6.69z"></path><path id="path3374" sodipodi:nodetypes="ccscc" style="opacity:.39409;fill:url(#radialGradient3409)" d="m211.18 236.94l136.98 227.84c5.37 11.8 14.49 11.86 26.73-0.31 12.23-12.17-9.67-31.78 10.96-79.87-74.11 11.62-172.15-161.22-174.67-147.66z"></path><path id="path3377" sodipodi:nodetypes="ccscc" style="opacity:.15271;fill:url(#linearGradient3406)" d="m234.11 214.01l227.84 136.98c11.8 5.37 11.86 14.49-0.31 26.73-12.17 12.23-31.78-9.67-79.87 10.96 11.62-74.11-161.22-172.15-147.66-174.67z"></path></g></g><g id="layer8" inkscape:label="SE" inkscape:groupmode="layer"><g id="fr_SE" inkscape:label="#g3457"><path id="path3389" style="opacity:.77340;filter:url(#filter3351);fill:#000000" transform="matrix(.70711 -.70711 -.70711 -.70711 426.19 931.83)" d="m359 341.59c-5.85 0-11.68 2.24-16.16 6.72l-90.43 162.38c-8.97 8.97-6.67 21.61 0 32.4 10.28 9.76 60.41-22.38 89.97-34.43l-64.26 257.96c-4.53 12.15 2.75 29.15 20 29.19 17.26 0.05 33.25-17.25 61.6-16.31 25.48-2.06 41.37 17.04 60.19 16.31 19.04-0.72 24.54-18.4 20-29.19l-64.03-257.03c29.95 12.89 81.47 44.07 89.71 33.5 8.19-9.69 8.97-23.43 0-32.4l-90.4-162.38c-4.48-4.48-10.34-6.72-16.19-6.72z"></path><path id="path3391" style="stroke-linejoin:round;stroke:url(#linearGradient3455);stroke-linecap:round;stroke-width:5;fill:url(#radialGradient3446)" d="m425.06 431.48c-4.14 4.14-9.83 6.68-16.18 6.68l-178.76-50.87c-12.68-0.01-20-10.57-22.92-22.92 0.38-14.17 58.55-26.89 87.97-39.26l-227.84-136.98c-11.796-5.38-18.667-22.55-6.497-34.78 12.167-12.23 35.705-11.31 55.087-32.02 19.47-16.56 17.21-41.304 31.02-54.096 13.98-12.955 30.37-4.339 34.79 6.496l136.47 227.03c12.06-30.3 26.45-88.78 39.75-87.13 12.64 1.06 22.91 10.23 22.91 22.91l50.89 178.75c0.01 6.34-2.56 12.06-6.69 16.19z"></path><path id="path3393" sodipodi:nodetypes="ccscc" style="opacity:.52709;fill:url(#radialGradient3443)" d="m295.17 325.11l-227.84-136.98c-11.796-5.38-18.667-22.55-6.497-34.78 12.167-12.23 45.777-5.88 65.157-26.6-18.76 54.81 0.06 77.32 169.18 198.36z"></path><path id="path3395" sodipodi:nodetypes="ccscc" style="opacity:.21675;fill:url(#radialGradient3440)" d="m317.84 302.44l-136.98-227.85c-5.37-11.791-22.55-18.662-34.78-6.492-12.23 12.167-5.88 45.772-26.6 65.162 54.81-18.77 77.33 0.05 198.36 169.18z"></path><path id="path3397" sodipodi:nodetypes="ccccc" style="opacity:.43350;fill:url(#radialGradient3437)" d="m408.88 438.16l-178.76-50.87c-12.68-0.01-20-10.57-22.92-22.92 1.05-13.95 71.77-29.03 104.24-32.29-29.16 61.6 109.95 52.66 97.44 106.08z"></path></g></g><g id="layer9" inkscape:label="SO" inkscape:groupmode="layer"><g id="fr_SO" inkscape:label="#g3485"><path id="path3409" style="opacity:.77340;filter:url(#filter3351);fill:#000000" transform="matrix(.70711 .70711 .70711 -.70711 -389.06 429.75)" d="m359 341.59c-5.85 0-11.68 2.24-16.16 6.72l-90.43 162.38c-8.97 8.97-6.67 21.61 0 32.4 10.28 9.76 60.41-22.38 89.97-34.43l-64.26 257.96c-4.53 12.15 2.75 29.15 20 29.19 17.26 0.05 33.25-17.25 61.6-16.31 25.48-2.06 41.37 17.04 60.19 16.31 19.04-0.72 24.54-18.4 20-29.19l-64.03-257.03c29.95 12.89 81.47 44.07 89.71 33.5 8.19-9.69 8.97-23.43 0-32.4l-90.4-162.38c-4.48-4.48-10.34-6.72-16.19-6.72z"></path><path id="path3411" style="stroke-linejoin:round;stroke:url(#linearGradient3483);stroke-linecap:round;stroke-width:5;fill:url(#radialGradient3474)" d="m111.29 428.62c-4.14-4.13-6.68-9.83-6.68-16.17l50.87-178.77c0.01-12.68 10.57-19.99 22.92-22.91 14.17 0.37 26.89 58.55 39.26 87.97l136.98-227.84c5.38-11.8 22.55-18.671 34.78-6.501 12.23 12.167 11.31 35.701 32.02 55.091 16.56 19.47 41.3 17.21 54.1 31.02 12.95 13.98 4.34 30.37-6.5 34.78l-227.03 136.47c30.3 12.07 88.78 26.46 87.13 39.76-1.06 12.64-10.23 22.9-22.91 22.91l-178.74 50.89c-6.35 0-12.07-2.56-16.2-6.7z"></path><path id="path3413" sodipodi:nodetypes="ccscc" style="opacity:.52709;fill:url(#radialGradient3471)" d="m217.66 298.74l136.98-227.84c5.38-11.8 22.55-18.671 34.78-6.501 12.23 12.167 5.89 45.771 26.6 65.161-54.81-18.76-77.32 0.05-198.36 169.18z"></path><path id="path3415" sodipodi:nodetypes="ccscc" style="opacity:.21675;fill:url(#radialGradient3468)" d="m240.33 321.41l227.85-136.98c11.79-5.38 18.66-22.55 6.49-34.78-12.16-12.23-45.77-5.88-65.16-26.6 18.77 54.81-0.05 77.32-169.18 198.36z"></path><path id="path3417" sodipodi:nodetypes="ccccc" style="opacity:.43350;fill:url(#radialGradient3465)" d="m104.61 412.45l50.87-178.77c0.01-12.68 10.57-19.99 22.92-22.91 13.95 1.05 29.03 71.77 32.29 104.24-61.6-29.16-52.66 109.95-106.08 97.44z"></path></g></g><metadata></metadata></svg> 