<?xml version="1.0" encoding="UTF-8" standalone="no"?> <!-- Created with Inkscape (http://www.inkscape.org/) --> <svg xmlns:inkscape="http://www.inkscape.org/namespaces/inkscape" xmlns:rdf="http://www.w3.org/1999/02/22-rdf-syntax-ns#" xmlns="http://www.w3.org/2000/svg" xmlns:sodipodi="http://sodipodi.sourceforge.net/DTD/sodipodi-0.dtd" xmlns:cc="http://web.resource.org/cc/" xmlns:xlink="http://www.w3.org/1999/xlink" xmlns:dc="http://purl.org/dc/elements/1.1/" xmlns:svg="http://www.w3.org/2000/svg" xmlns:ns1="http://sozi.baierouge.fr" id="svg3374" sodipodi:modified="true" viewBox="0 0 475.06 551.02" sodipodi:version="0.32" inkscape:version="0.45"><defs id="defs3376"><linearGradient id="linearGradient3595" y2="945.22" xlink:href="#linearGradient2182" gradientUnits="userSpaceOnUse" x2="380.5" gradientTransform="matrix(.059614 .000094179 -.00010346 .054267 1897.9 1415.6)" y1="733.79" x1="-89.071" inkscape:collect="always"></linearGradient><linearGradient id="linearGradient3593" y2="-18.114" xlink:href="#linearGradient2274" gradientUnits="userSpaceOnUse" x2="1158.6" gradientTransform="matrix(.16728 .00026428 -.00029032 .15228 1820.9 1414.7)" y1="-18.114" x1="475.91" inkscape:collect="always"></linearGradient><linearGradient id="linearGradient3591" y2="945.22" xlink:href="#linearGradient2182" gradientUnits="userSpaceOnUse" x2="380.5" gradientTransform="matrix(.059614 .000094179 -.00010346 .054267 1865.6 1693.8)" y1="733.79" x1="-89.071" inkscape:collect="always"></linearGradient><linearGradient id="linearGradient3589" y2="945.22" xlink:href="#linearGradient2182" gradientUnits="userSpaceOnUse" x2="380.5" gradientTransform="matrix(.059614 .000094179 -.00010346 .054267 1867.5 1672)" y1="733.79" x1="-89.071" inkscape:collect="always"></linearGradient><linearGradient id="linearGradient3587" y2="945.22" xlink:href="#linearGradient2182" gradientUnits="userSpaceOnUse" x2="380.5" gradientTransform="matrix(.059614 .000094179 -.00010346 .054267 1870.4 1650.3)" y1="733.79" x1="-89.071" inkscape:collect="always"></linearGradient><linearGradient id="linearGradient3585" y2="945.22" xlink:href="#linearGradient2182" gradientUnits="userSpaceOnUse" x2="380.5" gradientTransform="matrix(.059614 .000094179 -.00010346 .054267 1872.4 1629.8)" y1="733.79" x1="-89.071" inkscape:collect="always"></linearGradient><linearGradient id="linearGradient3583" y2="945.22" xlink:href="#linearGradient2182" gradientUnits="userSpaceOnUse" x2="380.5" gradientTransform="matrix(.059614 .000094179 -.00010346 .054267 1875.8 1607.6)" y1="733.79" x1="-89.071" inkscape:collect="always"></linearGradient><linearGradient id="linearGradient3581" y2="945.22" xlink:href="#linearGradient2182" gradientUnits="userSpaceOnUse" x2="380.5" gradientTransform="matrix(.059614 .000094179 -.00010346 .054267 1877.9 1586.1)" y1="733.79" x1="-89.071" inkscape:collect="always"></linearGradient><linearGradient id="linearGradient3579" y2="945.22" xlink:href="#linearGradient2182" gradientUnits="userSpaceOnUse" x2="380.5" gradientTransform="matrix(.059614 .000094179 -.00010346 .054267 1879.9 1564.4)" y1="733.79" x1="-89.071" inkscape:collect="always"></linearGradient><linearGradient id="linearGradient3577" y2="945.22" xlink:href="#linearGradient2182" gradientUnits="userSpaceOnUse" x2="380.5" gradientTransform="matrix(.059614 .000094179 -.00010346 .054267 1882.8 1542.6)" y1="733.79" x1="-89.071" inkscape:collect="always"></linearGradient><linearGradient id="linearGradient3575" y2="945.22" xlink:href="#linearGradient2182" gradientUnits="userSpaceOnUse" x2="380.5" gradientTransform="matrix(.059614 .000094179 -.00010346 .054267 1884.8 1522.2)" y1="733.79" x1="-89.071" inkscape:collect="always"></linearGradient><linearGradient id="linearGradient3573" y2="945.22" xlink:href="#linearGradient2182" gradientUnits="userSpaceOnUse" x2="380.5" gradientTransform="matrix(.059614 .000094179 -.00010346 .054267 1888.1 1500)" y1="733.79" x1="-89.071" inkscape:collect="always"></linearGradient><linearGradient id="linearGradient3571" y2="945.22" xlink:href="#linearGradient2182" gradientUnits="userSpaceOnUse" x2="380.5" gradientTransform="matrix(.059614 .000094179 -.00010346 .054267 1889.6 1479.5)" y1="733.79" x1="-89.071" inkscape:collect="always"></linearGradient><linearGradient id="linearGradient3569" y2="945.22" xlink:href="#linearGradient2182" gradientUnits="userSpaceOnUse" x2="380.5" gradientTransform="matrix(.059614 .000094179 -.00010346 .054267 1891.6 1459.1)" y1="733.79" x1="-89.071" inkscape:collect="always"></linearGradient><linearGradient id="linearGradient3567" y2="945.22" xlink:href="#linearGradient2182" gradientUnits="userSpaceOnUse" x2="380.5" gradientTransform="matrix(.059614 .000094179 -.00010346 .054267 1895 1437.8)" y1="733.79" x1="-89.071" inkscape:collect="always"></linearGradient><linearGradient id="linearGradient2182"><stop id="stop2184" style="stop-color:#6e5731" offset="0"></stop><stop id="stop2186" style="stop-color:#312615" offset="1"></stop></linearGradient><linearGradient id="linearGradient3565" y2="945.22" xlink:href="#linearGradient2182" gradientUnits="userSpaceOnUse" x2="380.5" gradientTransform="matrix(.059614 .000094179 -.00010346 .054267 1900.8 1393.8)" y1="733.79" x1="-89.071" inkscape:collect="always"></linearGradient><linearGradient id="linearGradient3563" y2="-93.421" xlink:href="#linearGradient2274" gradientUnits="userSpaceOnUse" x2="1638" gradientTransform="matrix(.16728 .00026428 -.00029032 .15228 1830 1428.9)" y1="-93.421" x1="469.73" inkscape:collect="always"></linearGradient><linearGradient id="linearGradient3561" y2="-415.03" xlink:href="#linearGradient2274" gradientUnits="userSpaceOnUse" x2="605.13" gradientTransform="matrix(.16728 .00026428 -.00029032 .15228 1830 1428.9)" y1="-415.03" x1="-848.72" inkscape:collect="always"></linearGradient><linearGradient id="linearGradient3559" y2="-383.56" xlink:href="#linearGradient2274" gradientUnits="userSpaceOnUse" x2="659.95" gradientTransform="matrix(.16728 .00026428 -.00029032 .15228 1830 1428.9)" y1="-383.56" x1="-590.25" inkscape:collect="always"></linearGradient><linearGradient id="linearGradient3557" y2="-475.05" xlink:href="#linearGradient2274" gradientUnits="userSpaceOnUse" x2="1600.1" gradientTransform="matrix(.16728 .00026428 -.00029032 .15228 1830 1428.9)" y1="-475.05" x1="507.58" inkscape:collect="always"></linearGradient><linearGradient id="linearGradient3555" y2="-425.51" xlink:href="#linearGradient2274" gradientUnits="userSpaceOnUse" x2="1090.3" gradientTransform="matrix(.16728 .00026428 -.00029032 .15228 1830 1428.9)" y1="-425.51" x1="159.55" inkscape:collect="always"></linearGradient><linearGradient id="linearGradient2274"><stop id="stop2276" style="stop-color:#56893d" offset="0"></stop><stop id="stop2278" style="stop-color:#365626" offset="1"></stop></linearGradient><linearGradient id="linearGradient3553" y2="-475.05" xlink:href="#linearGradient2274" gradientUnits="userSpaceOnUse" x2="1600.1" gradientTransform="matrix(-.14357 -.063905 -.085925 .13919 1945.2 1472.6)" y1="-475.05" x1="507.58" inkscape:collect="always"></linearGradient></defs><g id="layer1" inkscape:label="Calque 1" inkscape:groupmode="layer" transform="translate(-119.61 -211.14)"><g id="g3528" transform="matrix(1.1212 0 0 1.1212 -1768.5 -1207.7)"><path id="path2610" style="stroke-linejoin:round;stroke:#000000;stroke-linecap:round;stroke-width:7.896;fill:none" d="m1897.7 1269.5c-5.7 0.6-23.3 18-45 42.3-60.6 22.2-138 55.3-138.3 60.4-0.1 3.5 31.2-0.6 67.4-1.7-50.6 30.3-94.5 58.9-93.7 62.6 0.7 3.5 34.8-5.6 76.3-13.4-20.5 27.3-34.6 48.2-33.1 51.2 3.1 6 65.4-40.7 122.1-60.9 5.4 0.1 10.5 0.4 15.4 1-7.7 22.5-12.8 39.2-12 40.5 1.9 3.1 24.3-23.4 45.1-29.2 2.3 1.9 4.2 3.9 5.9 6.2l-13.3-1.6 7.6 23.1-10.6-1.3 7.7 23.5-10.6-1.4 7.5 22.7-10.9-1.3 7.1 21.5-9.1-1.1 7.1 21.5-8.5-1.1 7.7 23.6-11.1-1.4 7.1 21.6-9.1-1.1 7.6 23-10.5-1.3 7.6 23-9.5-1.2 7.4 22.7-9.6-1.2 7.8 23.5-11.2-1.3 7.1 21.6-9-1.2 7.6 23.1-10.5-1.3 7.5 22.9-9.5-1.2 8 24.2 16.8 2.1 15.6-21.3-12.8-1.6 14.7-20.1-11.9-1.5 14.8-20.3-11.9-1.4 13.9-19-11.8-1.5 15.2-20.7-12.5-1.5 14.6-20-12.8-1.6 14.8-20.2-12-1.5 14.9-20.2-11.9-1.5 13.9-19-11.8-1.4 15.2-20.7-12.4-1.6 13.8-18.9-11.9-1.5 13.9-18.9-11.3-1.4 14.6-19.9-12.2-1.6 15.2-20.6-11.9-1.5 14.8-20.3-11.6-1.4c0.3-0.1 0.6-0.2 0.9-0.3 1.1 0.1 1.8 0.3 1.8 0.3 21.8-15.6 85.8 101.4 88.5 98.8 1.1-1.1-9.5-37.5-22.6-79.9 52.3 30.3 109.4 82.3 112 77.9 2.3-3.8-39.4-69.8-80.3-129.3 38.3 16.3 72 36.7 74.1 33.2 4.4-7.2-136.6-156.7-146-148.9-2.6 2.2-6.4 11.3-10.7 23.5-9.2-16.4-16.3-28.2-18.1-29.1-1.1-0.7-4.3 5.4-8.9 15.5-1.5 0.3-3.3 0.7-5.1 1.2-3.9-12.3-7.2-21.1-9.6-23.5-0.4-0.3-0.9-0.5-1.5-0.4z"></path><path id="path2262" sodipodi:nodetypes="cszcc" style="fill-rule:evenodd;fill:url(#linearGradient3553)" d="m1892.5 1407.4s35-104.4 31.4-115.2-209.1 71.7-209.5 80c-0.3 8.2 173.7-25.2 174.7 35 0 0 4.1-0.7 3.4 0.2z"></path><path id="path2264" sodipodi:nodetypes="cszcc" style="fill-rule:evenodd;fill:url(#linearGradient3555)" d="m1998 1410.9s-69.3-131.1-75.1-134.2c-5.9-3.2-68.8 170.4-66.1 174.8s47.1-51.2 68.9-21.5c0 0 129.2-39.6 72.3-19.1z"></path><path id="path2292" sodipodi:nodetypes="cszcc" style="fill-rule:evenodd;fill:url(#linearGradient3557)" d="m1915 1393.2s27.2-103 36.6-110.8c9.4-7.9 150.4 141.6 146 148.8-4.3 7.2-144.3-88.1-179.3-36.9 0 0-3.3-2.2-3.3-1.1z"></path><path id="path2254" sodipodi:nodetypes="cszcc" style="fill-rule:evenodd;fill:url(#linearGradient3559)" d="m1940.5 1420.1s-30.6-139.5-41.3-150.2c-10.8-10.7-172.8 191.1-167.9 201 5 9.7 165.6-118.8 205.5-49.3 0 0 3.7-3 3.7-1.5z"></path><path id="path2256" sodipodi:nodetypes="cszcc" style="fill-rule:evenodd;fill:url(#linearGradient3561)" d="m1916 1437.5s21.3-131.1 14-142.7c-7.4-11.5-243.8 129.7-241.9 138.3 1.8 8.6 205.8-59.1 223.7 3.9 0 0 4.7-0.5 4.2 0.5z"></path><path id="path2258" sodipodi:nodetypes="cszcc" style="fill-rule:evenodd;fill:url(#linearGradient3563)" d="m1908.6 1438.3s30.4-127.9 39.8-135.8 159.7 217.6 155.4 224.8-156.9-139-191.9-87.9c0 0-3.3-2.1-3.3-1.1z"></path><path id="path2198" sodipodi:nodetypes="ccccc" style="fill-rule:evenodd;stroke:#000000;stroke-width:.056878px;fill:url(#linearGradient3565)" d="m1902.4 1451.1l16.9 2 15.5-21.2-40.3-5 7.9 24.2z"></path><path id="path2206" sodipodi:nodetypes="ccccc" style="fill-rule:evenodd;stroke:#000000;stroke-width:.056878px;fill:url(#linearGradient3567)" d="m1896.6 1495l16.8 2.1 15.6-21.2-40.4-5.1 8 24.2z"></path><path id="path2210" sodipodi:nodetypes="ccccc" style="fill-rule:evenodd;stroke:#000000;stroke-width:.056878px;fill:url(#linearGradient3569)" d="m1893.2 1516.3l16.8 2.1 15.6-21.2-40.4-5.1 8 24.2z"></path><path id="path2214" sodipodi:nodetypes="ccccc" style="fill-rule:evenodd;stroke:#000000;stroke-width:.056878px;fill:url(#linearGradient3571)" d="m1891.2 1536.8l16.9 2 15.5-21.2-40.3-5 7.9 24.2z"></path><path id="path2234" sodipodi:nodetypes="ccccc" style="fill-rule:evenodd;stroke:#000000;stroke-width:.056878px;fill:url(#linearGradient3573)" d="m1889.7 1557.2l16.9 2.1 15.5-21.2-40.3-5.1 7.9 24.2z"></path><path id="path2238" sodipodi:nodetypes="ccccc" style="fill-rule:evenodd;stroke:#000000;stroke-width:.056878px;fill:url(#linearGradient3575)" d="m1886.4 1579.4l16.8 2.1 15.6-21.2-40.4-5.1 8 24.2z"></path><path id="path2242" sodipodi:nodetypes="ccccc" style="fill-rule:evenodd;stroke:#000000;stroke-width:.056878px;fill:url(#linearGradient3577)" d="m1884.4 1599.9l16.9 2 15.5-21.2-40.4-5 8 24.2z"></path><path id="path2246" sodipodi:nodetypes="ccccc" style="fill-rule:evenodd;stroke:#000000;stroke-width:.056878px;fill:url(#linearGradient3579)" d="m1881.5 1621.6l16.9 2.1 15.5-21.3-40.4-5 8 24.2z"></path><path id="path2250" sodipodi:nodetypes="ccccc" style="fill-rule:evenodd;stroke:#000000;stroke-width:.056878px;fill:url(#linearGradient3581)" d="m1879.5 1643.4l16.9 2 15.5-21.2-40.3-5 7.9 24.2z"></path><path id="path2218" sodipodi:nodetypes="ccccc" style="fill-rule:evenodd;stroke:#000000;stroke-width:.056878px;fill:url(#linearGradient3583)" d="m1877.4 1664.9l16.8 2 15.6-21.2-40.4-5 8 24.2z"></path><path id="path2222" sodipodi:nodetypes="ccccc" style="fill-rule:evenodd;stroke:#000000;stroke-width:.056878px;fill:url(#linearGradient3585)" d="m1874 1687.1l16.8 2 15.6-21.2-40.4-5 8 24.2z"></path><path id="path2226" sodipodi:nodetypes="ccccc" style="fill-rule:evenodd;stroke:#000000;stroke-width:.056878px;fill:url(#linearGradient3587)" d="m1872 1707.5l16.9 2.1 15.5-21.2-40.3-5.1 7.9 24.2z"></path><path id="path2230" sodipodi:nodetypes="ccccc" style="fill-rule:evenodd;stroke:#000000;stroke-width:.056878px;fill:url(#linearGradient3589)" d="m1869.1 1729.3l16.9 2 15.5-21.2-40.3-5 7.9 24.2z"></path><path id="path2190" sodipodi:nodetypes="ccccc" style="fill-rule:evenodd;stroke:#000000;stroke-width:.056878px;fill:url(#linearGradient3591)" d="m1867.2 1751l16.8 2.1 15.6-21.2-40.4-5.1 8 24.2z"></path><path id="path2260" sodipodi:nodetypes="cszcc" style="fill-rule:evenodd;fill:url(#linearGradient3593)" d="m1908.6 1428.4c4.4-82.7 32-112.2 37.7-110.6s70.8 208.8 68.1 211.5c-2.7 2.6-66.7-114.4-88.5-98.8 0 0-17.4-3.1-17.3-2.1z"></path><path id="path2202" sodipodi:nodetypes="ccccc" style="fill-rule:evenodd;stroke:#000000;stroke-width:.056878px;fill:url(#linearGradient3595)" d="m1899.5 1472.8l16.8 2.1 15.6-21.2-40.4-5.1 8 24.2z"></path></g></g><metadata></metadata></svg> 