<?xml version="1.0" encoding="UTF-8" standalone="no"?> <!-- Created with Inkscape (http://www.inkscape.org/) --> <svg xmlns:dc="http://purl.org/dc/elements/1.1/" xmlns:inkscape="http://www.inkscape.org/namespaces/inkscape" xmlns:xlink="http://www.w3.org/1999/xlink" xmlns:sodipodi="http://sodipodi.sourceforge.net/DTD/sodipodi-0.dtd" xmlns:cc="http://web.resource.org/cc/" xmlns:rdf="http://www.w3.org/1999/02/22-rdf-syntax-ns#" xmlns="http://www.w3.org/2000/svg" xmlns:svg="http://www.w3.org/2000/svg" xmlns:ns1="http://sozi.baierouge.fr" id="svg8031" sodipodi:modified="true" viewBox="0 0 414.36 414.14" sodipodi:docbase="E:\Graphic Design" inkscape:export-ydpi="366.52603" inkscape:export-xdpi="366.52603" inkscape:output_extension="org.inkscape.output.svg.inkscape" sodipodi:docname="ring_gray.svg" inkscape:export-filename="E:\Graphic Design\ring_gray.png" inkscape:version="0.45" sodipodi:version="0.32"><g id="layer1" inkscape:label="Layer 1" inkscape:groupmode="layer" transform="translate(-2.8401 -2.0597)"><path id="path10000" style="opacity:.5;fill:#000000" d="m136.34 401.59c-12.84-24.39-20.31-51.71-20.12-80.48 0.65-102.57 93.93-185.18 207.9-184.59 30.02 0.15 58.33 6.09 84 16.6-24.15-86.594-103.36-150.51-197.69-151.06-113.97-0.6518-206.93 91.386-207.59 205.35-0.5061 88.69 55.113 164.51 133.5 194.18z"></path><path id="path12979" style="opacity:.8;fill:#ffffff" d="m55.968 347.77c-23.323-33.61-36.85-74.42-36.597-118.44 0.655-113.97 93.589-206 207.56-205.35 64.37 0.371 121.66 30.216 159.26 76.68-36.94-54.185-99.02-89.985-169.49-90.389-113.97-0.6554-206.9 91.379-207.56 205.35-0.2874 50.12 17.276 96.25 46.828 132.15z"></path><path id="path9992" style="opacity:.8;fill:#000000" d="m283.7 16.67c12.84 24.388 20.3 51.706 20.12 80.48-0.65 102.57-93.94 185.18-207.9 184.59-30.016-0.15-58.326-6.09-83.997-16.61 24.145 86.6 103.36 150.52 197.69 151.06 113.97 0.66 206.93-91.38 207.59-205.35 0.5-88.68-55.11-164.5-133.5-194.17z"></path><path id="path12973" style="fill:#000000" d="m369.48 75.335c23.32 33.605 36.85 74.425 36.6 118.44-0.66 113.96-93.6 206-207.56 205.34-64.37-0.37-121.66-30.22-159.26-76.67 36.94 54.18 99.02 89.98 169.49 90.38 113.96 0.66 206.9-91.38 207.56-205.34 0.28-50.13-17.28-96.26-46.83-132.16z"></path><path id="path13950" style="opacity:.5;fill:#000000" d="m136.34 401.59c-12.84-24.39-20.31-51.71-20.12-80.48 0.65-102.57 93.93-185.18 207.9-184.59 30.02 0.15 58.33 6.09 84 16.6-24.15-86.594-103.36-150.51-197.69-151.06-113.97-0.6518-206.93 91.386-207.59 205.35-0.5061 88.69 55.113 164.51 133.5 194.18z"></path><path id="path14926" sodipodi:nodetypes="csscssc" style="opacity:.4;fill:#ffffff" d="m129.58 393.92c-12.35-23.77-16.13-49.53-15.95-77.57 0.63-99.95 95.5-183.85 205.15-183.28 28.88 0.15 55.26 3.39 79.96 13.63-23.23-84.381-100.3-140.7-191.05-141.23-109.66-0.6359-199.1 89.045-199.73 200.1-0.4931 86.41 46.202 159.44 121.62 188.35z"></path></g><metadata></metadata></svg> 