<?xml version="1.0" encoding="UTF-8" standalone="no"?> <!-- Generator: Adobe Illustrator 12.0.1, SVG Export Plug-In . SVG Version: 6.00 Build 51448) --> <svg xmlns:rdf="http://www.w3.org/1999/02/22-rdf-syntax-ns#" xmlns="http://www.w3.org/2000/svg" xmlns:cc="http://web.resource.org/cc/" xmlns:xlink="http://www.w3.org/1999/xlink" xmlns:dc="http://purl.org/dc/elements/1.1/" xmlns:svg="http://www.w3.org/2000/svg" xmlns:inkscape="http://www.inkscape.org/namespaces/inkscape" xmlns:sodipodi="http://sodipodi.sourceforge.net/DTD/sodipodi-0.dtd" xmlns:ns1="http://sozi.baierouge.fr" id="Layer_1" xml:space="preserve" overflow="visible" viewBox="0 0 232.26 491.646"> <g> <path d="m136.87 236.84l-17.214-8.387c-2.82-1.375-6.222-0.202-7.596 2.619-1.375 2.821-0.202 6.222 2.619 7.597l17.214 8.387c2.82 1.374 6.222 0.202 7.597-2.619 1.37-2.83 0.2-6.23-2.62-7.6z" fill="#3DB54A"></path> </g> <g> <path d="m83.912 428.59c-1.745 2.607-1.046 6.137 1.562 7.881 4.008 2.684 7.229 1.254 8.426 0.514 3.422-2.111 4.711-6.729 3.832-13.727-0.02-0.16-0.047-0.32-0.08-0.479l-8.998-42.154c-0.17-0.795-0.508-1.545-0.992-2.197l-17.305-23.348c-1.869-2.521-5.427-3.051-7.948-1.182s-3.05 5.428-1.182 7.949l16.571 22.357 8.677 40.65c0.056 0.509 0.093 1.06 0.11 1.598-1.053 0.41-1.997 1.13-2.673 2.14zm111.22-211.21c-4.5-6.098-22.336-27.805-41.219-50.787-18.898-23-38.441-46.784-42.324-52.184l-0.222-0.309c-25.936-36.036-25.343-65.96 1.761-88.942 39.097-33.153 77.55 1.672 84.861 8.99 27.68 27.691 34.621 51.54-0.68 112.29-1.525 2.626-0.635 5.993 1.992 7.519s5.992 0.634 7.52-1.992c38.471-66.207 29.324-95.203-1.008-125.55-4.383-4.388-16.244-15.183-32.57-21.557-23.824-9.301-47.072-5.183-67.229 11.91-20.323 17.228-28.277 39.179-22.997 63.468 4.139 19.037 15.246 34.471 19.428 40.281l0.22 0.305c4.09 5.688 22.872 28.545 42.754 52.745 17.963 21.862 36.539 44.469 40.869 50.336l1.557 2.086c9.316 12.433 24.912 33.242 21.52 80.787-3.648 51.182-12.551 60.592-26.023 74.838-13.889 14.686-42.955 28.605-56.086 31.369-3.847 0.81-5.537 0.46-6.082 0.275 0.185-1.197-0.051-2.361-0.575-3.368-0.23-2.213-1.299-5.898-4.069-13.321-2.66-7.127-6.411-16.27-10.29-25.078-7.349-16.691-17.441-37.656-23.792-42.756-10.32-8.291-22.647-23.738-23.583-28.407-0.335-3.097 4.873-15.854 11.165-27.343 1.508-2.752 0.5-6.205-2.252-7.713s-6.206-0.5-7.714 2.252c-4.25 7.756-13.964 26.686-12.362 34.943 1.924 9.914 19.262 28.404 27.63 35.127 7.053 5.663 31.596 62.041 33.801 72.577-2.172 6.329-7.863 27.058-7.863 35.192 0 6.863 1.239 23.422 1.615 28.289-0.826 1.804-3.042 5.793-6.53 5.889-6.548 0.182-9.516-3.227-9.639-3.371 0.013 0.016 0.021 0.035 0.033 0.051-0.532-0.675-1.193-1.181-1.914-1.543 0.659-3.677 0.94-7.947 0.833-12.861l-0.434-17.578c-0.049-1.545-0.09-2.654-0.127-3.393-0.166-3.298-1.658-4.858-3.096-5.604l-31.355-63.56c-1.389-2.814-4.795-3.971-7.61-2.582-2.814 1.389-3.97 4.795-2.582 7.609l33.407 67.712c0.091 2.906 0.23 8.154 0.437 17.64 0.301 13.848-2.806 17.051-3.765 17.703-2.105 1.43-6.625-0.479-9.054-1.504l-0.662-0.277c-5.469-2.277-6.041-2.516-3.795-8.129 3.944-9.854 1.314-19.699-0.606-26.889-0.461-1.727-0.897-3.357-1.156-4.691-0.473-2.438-2.605-7.736-7.812-20.555-10.245-25.217-29.313-72.152-34.163-101.23-5.715-34.27 2.394-52.934 9.547-69.402 1.125-2.59 2.188-5.035 3.198-7.532 5.46-13.489 33.883-27.458 44.374-31.703 0.81-0.328 1.536-0.839 2.116-1.492l32.161-36.16c1.683 27.872 3.55 43.653 5.563 46.955 2.417 3.963 8.879 6.369 20.091 10.281 4.222 1.472 10.51 3.667 12.229 4.827 2.741 4.253 9.996 27.548 10.866 33.613-2.218 3.117-11.376 11.849-17.834 15.699-3.805 2.27-13.245 0.295-18.886-0.887-2.405-0.503-4.486-0.933-6.246-1.138-5.434-1.646-34.76-24.597-40.154-29.858-0.743-3.565-0.186-16.231 0.861-26.533 0.317-3.122-1.956-5.91-5.078-6.228s-5.91 1.957-6.228 5.078c-3 29.513 0.036 33.069 1.332 34.587 2.314 2.709 38.753 33.277 47.8 34.219 1.236 0.129 3.251 0.551 5.384 0.998 8.197 1.713 19.422 4.062 27.034-0.479 6.253-3.729 21.936-16.631 23.305-23.049 0.234-1.098 0.854-4.006-4.783-21.998-3.737-11.926-6.739-19.218-8.922-21.673-2.465-2.771-7.503-4.617-16.938-7.909-4.495-1.568-11.809-4.12-14.091-5.644-1.47-5.583-3.523-31.864-4.724-55.222-0.119-2.302-1.616-4.305-3.792-5.069s-4.596-0.138-6.129 1.585l-40.443 45.474c-7.872 3.301-41.694 18.42-49.401 37.46-0.957 2.364-1.992 4.746-3.088 7.269-7.401 17.03-16.606 38.22-10.338 75.8 5.057 30.32 23.703 76.219 34.844 103.64 3.351 8.248 6.815 16.775 7.19 18.465 0 0-0.002-0.008-0.004-0.021 0.334 1.721 0.819 3.537 1.333 5.459 1.676 6.273 3.576 13.387 1.036 19.732-6.411 16.018 4.657 20.627 9.977 22.842l0.611 0.256c4.103 1.732 12.641 5.336 19.857 0.436 1.325-0.899 2.487-2.03 3.508-3.369 2.9 2.336 8.197 5.323 16.233 5.102 10.037-0.275 15.65-9.295 17.385-14.582 0.234-0.715 0.324-1.471 0.265-2.221-0.017-0.213-1.684-21.266-1.684-28.734 0-4.04 2.316-14.051 4.412-21.904 3.213 1.26 7.388 1.358 12.475 0.287 15.178-3.193 46.035-17.893 61.812-34.574 16.014-16.934 25.258-29.072 29.004-81.613 3.684-51.641-14.123-75.401-23.691-88.167l-1.51-2.03zm-74.61 197.78l0.562-1.496c-0.12 0.52-0.3 1.03-0.56 1.5z"></path> </g> <metadata></metadata></svg> 