<?xml version="1.0" encoding="UTF-8" standalone="no"?> <!-- Created with Inkscape (http://www.inkscape.org/) --> <svg xmlns:inkscape="http://www.inkscape.org/namespaces/inkscape" xmlns:rdf="http://www.w3.org/1999/02/22-rdf-syntax-ns#" xmlns="http://www.w3.org/2000/svg" xmlns:sodipodi="http://sodipodi.sourceforge.net/DTD/sodipodi-0.dtd" xmlns:cc="http://web.resource.org/cc/" xmlns:xlink="http://www.w3.org/1999/xlink" xmlns:dc="http://purl.org/dc/elements/1.1/" xmlns:svg="http://www.w3.org/2000/svg" xmlns:ns1="http://sozi.baierouge.fr" id="svg2250" sodipodi:modified="true" viewBox="0 0 425.62 550.71" sodipodi:version="0.32" inkscape:version="0.45"><defs id="defs2252"><linearGradient id="linearGradient6229"><stop id="stop6231" style="stop-color:#c81500" offset="0"></stop><stop id="stop6237" style="stop-color:#c8ef00" offset=".18147"></stop><stop id="stop6239" style="stop-color:#8f29d0" offset=".47415"></stop><stop id="stop6241" style="stop-color:#c8da00" offset=".70572"></stop><stop id="stop6233" style="stop-color:#c82500" offset="1"></stop></linearGradient><linearGradient id="linearGradient5248"><stop id="stop5250" style="stop-color:#008000" offset="0"></stop><stop id="stop5256" style="stop-color:#7ab200" offset=".80734"></stop><stop id="stop5252" style="stop-color:#b0e500" offset="1"></stop></linearGradient><linearGradient id="linearGradient3274"><stop id="stop3276" style="stop-color:#00d500" offset="0"></stop><stop id="stop3278" style="stop-color:#005e00" offset="1"></stop></linearGradient><linearGradient id="linearGradient4081" y2="277.78" xlink:href="#linearGradient2836" gradientUnits="userSpaceOnUse" y1="348.55" x2="359.68" x1="356.92" inkscape:collect="always"></linearGradient><linearGradient id="linearGradient4079" y2="203.51" xlink:href="#linearGradient2836" gradientUnits="userSpaceOnUse" y1="230.81" x2="485.54" x1="411.73" inkscape:collect="always"></linearGradient><linearGradient id="linearGradient2836"><stop id="stop2838" style="stop-color:#00d500" offset="0"></stop><stop id="stop2840" style="stop-color:#007800" offset="1"></stop></linearGradient><linearGradient id="linearGradient3272" y2="440.23" xlink:href="#linearGradient3274" gradientUnits="userSpaceOnUse" x2="375.89" gradientTransform="translate(-103.22 130.49)" y1="378.88" x1="375.89" inkscape:collect="always"></linearGradient><linearGradient id="linearGradient4255" y2="449.97" xlink:href="#linearGradient3274" gradientUnits="userSpaceOnUse" x2="400.79" gradientTransform="translate(-103.22 130.49)" y1="440.23" x1="348.06" inkscape:collect="always"></linearGradient><radialGradient id="radialGradient5254" xlink:href="#linearGradient5248" gradientUnits="userSpaceOnUse" cy="315.67" cx="345.7" gradientTransform="matrix(.88186 .16574 -.16250 .86462 92.136 -13.085)" r="132.54" inkscape:collect="always"></radialGradient><radialGradient id="radialGradient6235" xlink:href="#linearGradient6229" gradientUnits="userSpaceOnUse" cy="224.64" cx="236.63" gradientTransform="matrix(1 0 0 .94888 0 11.483)" r="136.88" inkscape:collect="always"></radialGradient><filter id="filter9544" inkscape:collect="always"><feGaussianBlur id="feGaussianBlur9546" stdDeviation="10.003793" inkscape:collect="always"></feGaussianBlur></filter><filter id="filter10619" inkscape:collect="always"><feGaussianBlur id="feGaussianBlur10621" stdDeviation="7.7636352" inkscape:collect="always"></feGaussianBlur></filter></defs><g id="layer1" inkscape:label="Ebene 1" inkscape:groupmode="layer" transform="translate(-61.829 -226.31)"><g id="g10627"><path id="path8365" style="color:#000000;filter:url(#filter9544);stroke:#000000;stroke-miterlimit:1;fill:url(#radialGradient6235)" sodipodi:type="star" d="m314.54 336.62c-55.69 39.17-4.58-56.45-72.42-50.73-68.21 5.76-1.42 91.01-63.52 62.21-61.76-28.65 46.6-32.19 7.72-88.08-39.09-56.2-79.51 44.27-85.62-23.91-6.077-67.81 51.18 24.26 80.14-37.35 29.12-61.95-78.1-46.73-22.11-86.11 55.69-39.165 4.58 56.45 72.42 50.73 68.21-5.76 1.41-91.005 63.51-62.2 61.77 28.64-46.6 32.19-7.72 88.07 39.09 56.2 79.52-44.27 85.63 23.91 6.07 67.81-51.18-24.26-80.14 37.35-29.12 61.96 78.1 46.73 22.11 86.11z" sodipodi:r1="136.41827" inkscape:flatsided="false" transform="translate(113.93 143.15)" sodipodi:arg2="1.4814611" sodipodi:arg1="0.96299433" inkscape:randomized="0" sodipodi:cy="224.63618" sodipodi:cx="236.63226" inkscape:rounded="0.77" sodipodi:r2="61.504028" sodipodi:sides="6"></path><g id="g2286" inkscape:label="Ebene 1" transform="matrix(.96784 -.25155 .25155 .96784 3.4745 415.26)"><g id="g3761" inkscape:tile-w="218.44292" transform="translate(-257.29 -131.42)" inkscape:tile-h="202.46745" inkscape:tile-cx="381.73207" inkscape:tile-cy="248.2671"><g id="g3751" transform="translate(-4.6275 16.659)"><path id="path1938" style="fill-rule:evenodd;stroke:#000000;stroke-width:1px;fill:url(#linearGradient4079)" d="m418.82 131.07c-37.11 72.14-0.77 132.13 63.85 174.58 31.89-84.84-0.64-120.16-63.85-174.58z"></path><path id="path2844" sodipodi:nodetypes="csc" style="stroke:#000000;stroke-width:1px;fill:none" d="m418.86 130.87c-0.72 14.36 9 54.23 42.43 91.7 28.3 31.73 21.34 83.01 21.34 83.01"></path></g><g id="g3755"><path id="path1933" style="fill-rule:evenodd;stroke:#000000;stroke-width:1px;fill:url(#linearGradient4081)" d="m273.01 304.88c58.44 78.85 134.89 30.29 205.27 18.81-73.87-51.42-122.56-63.5-205.27-18.81z"></path><path id="path3749" sodipodi:nodetypes="cssc" style="stroke:#000000;stroke-width:1px;fill:none" d="m273.42 304.8s22.69 7.94 39.71 5.51c52.1-7.46 65.81-7.87 109.44 5.81 26.06 8.17 55.05 7.49 55.05 7.49"></path></g></g></g><g id="g4257" inkscape:label="Ebene 1" transform="matrix(-.96784 -.25155 -.25155 .96784 542.14 503.92)"><g id="g4259" inkscape:tile-w="218.44292" transform="translate(-257.29 -131.42)" inkscape:tile-h="202.46745" inkscape:tile-cx="381.73207" inkscape:tile-cy="248.2671"><g id="g4261" transform="translate(-4.6275 16.659)"><path id="path4263" style="fill-rule:evenodd;stroke:#000000;stroke-width:1px;fill:url(#linearGradient4079)" d="m418.82 131.07c-37.11 72.14-0.77 132.13 63.85 174.58 31.89-84.84-0.64-120.16-63.85-174.58z"></path><path id="path4265" sodipodi:nodetypes="csc" style="stroke:#000000;stroke-width:1px;fill:none" d="m418.86 130.87c-0.72 14.36 9 54.23 42.43 91.7 28.3 31.73 21.34 83.01 21.34 83.01"></path></g><g id="g4267"><path id="path4269" style="fill-rule:evenodd;stroke:#000000;stroke-width:1px;fill:url(#linearGradient4081)" d="m273.01 304.88c58.44 78.85 134.89 30.29 205.27 18.81-73.87-51.42-122.56-63.5-205.27-18.81z"></path><path id="path4271" sodipodi:nodetypes="cssc" style="stroke:#000000;stroke-width:1px;fill:none" d="m273.42 304.8s22.69 7.94 39.71 5.51c52.1-7.46 65.81-7.87 109.44 5.81 26.06 8.17 55.05 7.49 55.05 7.49"></path></g></g></g><path id="path2295" sodipodi:nodetypes="czzzzzzzzzzzzzzzzzzzzz" style="fill-rule:evenodd;stroke:url(#linearGradient3272);stroke-width:1px;fill:url(#linearGradient4255)" d="m195.73 766.07c2.49-2.43 13.29-6.06 20.45-17.53 7.16-11.48 21.94-29.99 30.19-46.74s8.75-35.64 12.66-51.62c3.91-15.97 4.16-30.81 3.89-43.82-0.27-13-2.08-19.13 0.98-34.08 3.06-14.94-0.35-41.43 1.95-58.43 2.29-16.99 4.06-30.95 6.81-43.82 2.75-12.86 3.13-16.6 9.74-33.11 6.61-16.5 24.12-44.27 36.03-55.5 11.91-11.24 14.11-12.51 20.45-15.58 6.34-3.08 22.64 2.16 21.42 5.84-1.21 3.68-14.6 10.74-22.39 22.4-7.79 11.65-22.84 30.49-26.3 40.9-3.45 10.4 1.37-3.75-4.86 11.68-6.24 15.43-16.75 47.01-18.51 77.91-1.75 30.89-3.27 67.28-2.92 96.4s-10.74 57.09-14.6 71.09c-3.87 14 1.14 0.51-5.85 13.63s-26.27 50.2-39.92 63.3c-13.66 13.1-31.01 5.47-37.98 3.89s6.27-4.38 8.76-6.81z"></path><path id="path5258" style="color:#000000;fill:url(#radialGradient6235)" sodipodi:type="star" d="m314.54 336.62c-55.69 39.17-4.58-56.45-72.42-50.73-68.21 5.76-1.42 91.01-63.52 62.21-61.76-28.65 46.6-32.19 7.72-88.08-39.09-56.2-79.51 44.27-85.62-23.91-6.077-67.81 51.18 24.26 80.14-37.35 29.12-61.95-78.1-46.73-22.11-86.11 55.69-39.165 4.58 56.45 72.42 50.73 68.21-5.76 1.41-91.005 63.51-62.2 61.77 28.64-46.6 32.19-7.72 88.07 39.09 56.2 79.52-44.27 85.63 23.91 6.07 67.81-51.18-24.26-80.14 37.35-29.12 61.96 78.1 46.73 22.11 86.11z" sodipodi:r1="136.41827" inkscape:flatsided="false" transform="translate(113.93 143.15)" sodipodi:arg2="1.4814611" sodipodi:arg1="0.96299433" inkscape:randomized="0" sodipodi:cy="224.63618" sodipodi:cx="236.63226" inkscape:rounded="0.77" sodipodi:r2="61.504028" sodipodi:sides="6"></path><path id="path9548" style="color:#000000;filter:url(#filter10619);stroke:#000000;stroke-miterlimit:1;fill:url(#radialGradient5254)" sodipodi:type="star" d="m391.47 304.24c-81.62 49.89 78.11 87.19-10.26 123.81-83.49 34.6 73.75-74.02-5.63-117.23-84.01-45.74-36.45 111.24-112.34 53.02-71.71-55.01 100.98 26.85 98.71-63.49-2.4-95.63-114.56 24.05-102.09-70.79 11.78-89.6 27.23 100.88 104.34 53.75 81.62-49.89-78.11-87.19 10.26-123.81 83.49-34.6-73.75 74.02 5.62 117.23 84.02 45.74 36.45-111.24 112.35-53.01 71.71 55-100.98-26.86-98.72 63.48 2.4 95.63 114.57-24.05 102.1 70.79-11.79 89.6-27.24-100.88-104.34-53.75z" sodipodi:r1="17.188593" inkscape:flatsided="false" transform="translate(-27.266 74.008)" sodipodi:arg2="1.545664" sodipodi:arg1="0.65483207" inkscape:randomized="0" sodipodi:cy="293.77563" sodipodi:cx="377.83258" inkscape:rounded="0.77" sodipodi:r2="134.3167" sodipodi:sides="6"></path><path id="path4277" style="color:#000000;fill:url(#radialGradient5254)" sodipodi:type="star" d="m391.47 304.24c-81.62 49.89 78.11 87.19-10.26 123.81-83.49 34.6 73.75-74.02-5.63-117.23-84.01-45.74-36.45 111.24-112.34 53.02-71.71-55.01 100.98 26.85 98.71-63.49-2.4-95.63-114.56 24.05-102.09-70.79 11.78-89.6 27.23 100.88 104.34 53.75 81.62-49.89-78.11-87.19 10.26-123.81 83.49-34.6-73.75 74.02 5.62 117.23 84.02 45.74 36.45-111.24 112.35-53.01 71.71 55-100.98-26.86-98.72 63.48 2.4 95.63 114.57-24.05 102.1 70.79-11.79 89.6-27.24-100.88-104.34-53.75z" sodipodi:r1="17.188593" inkscape:flatsided="false" transform="translate(-27.266 74.008)" sodipodi:arg2="1.545664" sodipodi:arg1="0.65483207" inkscape:randomized="0" sodipodi:cy="293.77563" sodipodi:cx="377.83258" inkscape:rounded="0.77" sodipodi:r2="134.3167" sodipodi:sides="6"></path></g></g><metadata></metadata></svg> 