<?xml version="1.0" encoding="UTF-8" standalone="no"?> <!-- Created with Inkscape (http://www.inkscape.org/) --> <svg xmlns:inkscape="http://www.inkscape.org/namespaces/inkscape" xmlns:rdf="http://www.w3.org/1999/02/22-rdf-syntax-ns#" xmlns="http://www.w3.org/2000/svg" xmlns:sodipodi="http://sodipodi.sourceforge.net/DTD/sodipodi-0.dtd" xmlns:cc="http://web.resource.org/cc/" xmlns:xlink="http://www.w3.org/1999/xlink" xmlns:dc="http://purl.org/dc/elements/1.1/" xmlns:svg="http://www.w3.org/2000/svg" xmlns:ns1="http://sozi.baierouge.fr" id="svg2" sodipodi:docname="knut.svg" sodipodi:modified="true" viewBox="0 0 1024 768" sodipodi:version="0.32" inkscape:output_extension="org.inkscape.output.svg.inkscape" inkscape:version="0.45" sodipodi:docbase="/home/aitor"><defs id="defs4"><linearGradient id="linearGradient5735"><stop id="stop5737" style="stop-color:#ababab" offset="0"></stop><stop id="stop5739" style="stop-color:#e6e6e6;stop-opacity:0" offset="1"></stop></linearGradient><linearGradient id="linearGradient5687" inkscape:collect="always"><stop id="stop5689" style="stop-color:#e6e6e6" offset="0"></stop><stop id="stop5691" style="stop-color:#e6e6e6;stop-opacity:0" offset="1"></stop></linearGradient><radialGradient id="radialGradient5939" xlink:href="#linearGradient5735" gradientUnits="userSpaceOnUse" cy="464.86" cx="150.63" gradientTransform="matrix(2.1146 13.381 -14.991 2.3689 6837 -3047.9)" r="27.63" inkscape:collect="always"></radialGradient><radialGradient id="radialGradient5941" xlink:href="#linearGradient5735" gradientUnits="userSpaceOnUse" cy="533.54" cx="226.91" gradientTransform="matrix(7.1657 6.72 5.8283 -6.2148 -4316.3 2075.5)" r="20.848" inkscape:collect="always"></radialGradient><radialGradient id="radialGradient5943" xlink:href="#linearGradient5687" gradientUnits="userSpaceOnUse" cy="498.2" cx="228.23" gradientTransform="matrix(-7.0653 6.4811 -6.398 -6.9747 5220.7 2219.4)" r="11.737" inkscape:collect="always"></radialGradient><radialGradient id="radialGradient5945" xlink:href="#linearGradient5735" gradientUnits="userSpaceOnUse" cy="516.64" cx="212.7" gradientTransform="matrix(-7.4762 10.742 -10.194 -7.0941 7274.5 1688.6)" r="10.784" inkscape:collect="always"></radialGradient><radialGradient id="radialGradient5947" xlink:href="#linearGradient5735" gradientUnits="userSpaceOnUse" cy="535.95" cx="256.34" gradientTransform="matrix(-7.189 -35.989 -23.35 4.6641 15113 7264.5)" r="20.848" inkscape:collect="always"></radialGradient><radialGradient id="radialGradient5949" xlink:href="#linearGradient5687" gradientUnits="userSpaceOnUse" cy="476.39" cx="255.42" gradientTransform="matrix(-1.7881 1.8942 -1.3055 -2.1754 1334.1 1028.9)" r="5.6958" inkscape:collect="always"></radialGradient><radialGradient id="radialGradient5951" xlink:href="#linearGradient5687" gradientUnits="userSpaceOnUse" cy="477.42" cx="252.68" gradientTransform="matrix(-1.4099 2.0176 -1.8417 -2.2717 1489.1 1049.5)" r="5.6958" inkscape:collect="always"></radialGradient></defs><g id="layer2" inkscape:label="capa 2" inkscape:groupmode="layer"><g id="g5916" transform="matrix(.88083 0 0 .88083 32.994 -1.5294)"><path id="path5821" style="fill-rule:evenodd;stroke:#ffffff;stroke-width:2.6777px;fill:#f2ede7" d="m21.537 628.97s-4.738-23.34 4.658-42.55c9.396-19.2 38.019-30.3 38.019-30.3l-42.677 72.85z"></path><path id="path2703" sodipodi:nodetypes="ccssssssssssscsssscssssssscscscscssssscscscsscssssssscsccscscssssscsc" style="fill-rule:evenodd;stroke:#ffffff;stroke-width:2.6777px;fill:#f2f2f2" d="m583.98 203.65s-17.75-125.34-264.69-70.13c0 0-6.42 2.33-9.36 2.28-2.95-0.06-5.79-5.51-26.34-8.83s-39.45 10.56-42.51 16.88c-3.07 6.33-3.57 33.8 7.97 46.77s12.43 17.9 11.79 25.74c-0.63 7.84-3.88 24.46-1.1 33.35 2.78 8.88 4.35 3.51 8.83 26.66s4.11 43.26 5.46 50.15c1.34 6.9 0.68 16.21-8.04 36.66-8.71 20.45-15.18 25.24-16.42 38.96-1.23 13.72 1.69 15.24-2.36 22.04-4.06 6.79-66.3 55.7-66.3 55.7s23.97 4.37 37.07 12.46c13.1 8.1 40.13 32.64 51.39 34.32 11.25 1.68 71.87-12.42 82.26-16.65 10.38-4.22 10.48-9.62 18.3-8 7.82 1.61 5.63 13.84 5.63 13.84s-19.27 7.5-38.37 31.68c-19.09 24.19-49.01 50.14-58.05 61.26s-23.79 39.31-21.39 42.3 10.83-1.76 14.87-8.07c4.05-6.3 10.64-17.96 12.65-20.38 2-2.41 7-7.23-7.19 17.05-14.18 24.27-31.1 36.72-23.36 42.75s32.95-30.31 32.95-30.31-33.11 39.14-22.92 45.71c10.18 6.57 37.96-36.6 37.96-36.6s-33.55 36.68-27.33 45.63c6.21 8.95 22.69-6.45 22.69-6.45s-12.93 9.08-7.59 12.12c5.35 3.05 23.17-5.46 23.17-5.46s-9.46 7.19-5.05 7.76c4.4 0.57 19.57-23.69 39.87-33.13 20.29-9.44 64.69-22.36 82.7-40.68 18-18.32 49.76-37.36 55.8-45.59s10.76-24.83 14.74-27.7 46.81-10.43 46.81-10.43 8.49-8.19 14.47-12.98c5.98-4.8 15.88-9.53 15.88-9.53s2.51-2.89-2.85-4.95l-5.36-2.07s6.22 8.46 17.24-3.61c11.02-12.06-3.7-12.33 8.72-20.45 12.42-8.11 10.59-15.5 10.59-15.5s28.13-8.81 48.25-8.93c20.13-0.12 30.84 4.49 41.66 3.22s13.87-7.11 28.11-7.34c14.23-0.23 26.41 4.42 33.84 1.12 7.42-3.3 19.12-25.66 26.06-29.95 6.95-4.29 30.1-8.77 45.68-2.1 15.58 6.66 50.19 46.07 53.54 50.55 3.36 4.47 8.12 12.41 8.12 12.41s15.26-2.66 24.97 2.92c9.71 5.57 18.81 18.01 18.81 18.01l62.48-8.67s2.47-2.4 18.97 9.68 4.3 32.96 4.3 32.96 13 10.54 12.4 21.81c-0.7 11.28-4.2 39.19-4.2 39.19s53.8-69.19 54.8-72.11c1-2.93 16.5-40.43-28.6-71.69-45.1-31.25-103.97-57.36-143.16-61.03-39.19-3.66-10.88-22.28-101.02-83.81s-178.72-74.93-212.54-77.03c-33.83-2.09-29.43-1.03-29.43-1.03s16.58-20.8 17.28-32.07c0.69-11.28-3.55-20.68-3.55-20.68z"></path><path id="path5754" style="fill-rule:evenodd;fill:url(#radialGradient5939)" d="m262.65 134.79c20.66 0.38 48.35 15.48 48.35 15.48s-12.62 25.3-11.81 47.21c0.81 21.9 17.43 44.1 28.33 46.73 10.89 2.63 16.16-19.16 28.38-22.58 12.23-3.43 29.24-3.11 32.76 4.25 3.51 7.36-10.31 31.43-26.14 32.35-15.82 0.93-18.05-10.06-30.34-2.99s-28.54 31.09-38.25 29.7c-9.7-1.4-17.83-22.22-21.16-39.31-3.34-17.08 1.68-25.5-2.96-37.75-4.64-12.24-25.1-23.57-24.68-46.66 0.43-23.1 19.92-25.17 17.52-26.43z"></path><path id="path5743" style="fill-rule:evenodd;fill:url(#radialGradient5941)" d="m465.12 113.14c-17.05 0.02-33.65 5.26-29.76 21.21 54.5 11.95 51.47 43.48 50.01 56.83-1.47 13.35-27.14 21.37-26.46 50.57s37.4 16.49 38.52 21.38c1.13 4.88-39.32 23.61-33.47 35.87 0.72 1.49 1.64 3.49 2.66 5.74-3.61-1.97-8.06-2.89-12.52-6.59-7.83-6.5-11.29-31.97-17.46-42.42-6.37 0.68-12.37 22-21.87 19.44-9.49-2.56-13.18-16.15-16.35-16.21-3.18-0.05-3.8 33.37-27.77 40.08-16.15 11.47 1.31 47.49 20.48 51.27l64.49-2.83s14.07-16.85 17.02-28.48c6.91 17.17 14.16 39.15 10.72 49.66-5.16 15.71-37.15 33.35-38.63 47.91-1.49 14.57 17.4 46.58 30.51 61.41 13.1 14.83 68.57 41.4 69.47 58.44 0.91 17.04-39.04 5.34-45.19 8.88-6.14 3.53-28.83 46.9-39.95 56.43-11.12 9.52-31.5-7.88-49.87-0.92s-7.99 38.8-28.72 42.07c-20.74 3.27-20.85 10.56-30.8 22.53-6.16 7.42-19.52 25.04-30.61 39.78 7.22-7.7 17.16-18.03 28.89-23.49 20.29-9.44 64.68-22.34 82.68-40.66 18.01-18.32 49.79-37.36 55.83-45.59s10.76-24.81 14.73-27.68c3.98-2.87 46.81-10.44 46.81-10.44s8.49-8.24 14.47-13.04 15.91-9.5 15.91-9.5 1.96-2.26-1.26-4.21c2.71-0.28 6.11-1.9 10.24-6.42 11.02-12.07-3.67-12.31 8.75-20.43 12.42-8.11 10.58-15.54 10.58-15.54s28.16-8.78 48.29-8.9c20.12-0.12 30.8 4.46 41.62 3.19s13.85-7.04 28.08-7.27c14.24-0.23 26.46 4.34 33.88 1.05 3.56-1.59 8.11-7.57 12.64-13.83 2.3-9.11 3.57-17.49 2.18-22.73-4.55-17.11-81.12-87.86-120.81-111.69-39.69-23.84-79.33-47.69-82.87-53.83-3.54-6.15-2.05-20.71-2.05-20.71l14.96-16.72c0.31-0.59 0.66-1.15 0.95-1.74l-4.45-12.89 7.12-9.15c-0.14-0.73-0.23-1.36-0.39-2.02l-2.67-4.74-1.3-2.28s0.72-1.51 0.96-1.99c2.54-5.16 16.85-34.77 18.31-53.65 0.24-3.15-0.09-5.84-0.94-8.22-0.03-0.05-0.05-0.11-0.08-0.16-0.55-1.06-1.13-2.21-1.61-3.13-0.11-0.2-0.23-0.31-0.33-0.51-0.07-0.1-0.09-0.24-0.16-0.34-5.79-7.89-18.48-10.18-29.94-10.34-2.29-0.03-4.48 0.02-6.61 0.13-10.82 0.57-19.26 8-24.02 13.37-0.29 0.33-0.5 0.59-0.77 0.9-2.23 2.64-3.51 4.63-3.51 4.63s-1.76-1.46-3.55-2.91c-7.5-6.08-27.74-21.69-43.38-25.91-6.05-1.63-13.88-2.67-21.63-2.66zm105.53 414.64s0.04 0.04 5.4 2.1c0.6 0.23 1.08 0.45 1.5 0.7-4.46 0.42-6.9-2.8-6.9-2.8z"></path><path id="path2705" style="fill-rule:evenodd;stroke:#ffffff;stroke-width:2.6777px;fill:#f2f2f2" d="m568.91 222.51s26.03-27.49 28.11-34.32c2.09-6.83 13.32-30.18 4.78-46.04s-7.03-18.29-31.49-22.17c-24.47-3.89-42.99 15.89-42.99 15.89"></path><path id="path2697" sodipodi:nodetypes="cssc" style="fill-rule:evenodd;stroke:#ffffff;stroke-width:2.6777px;fill:#f2f2f2" d="m308.26 146.49s16.25-29.16 57.66-37.24 63.5-7.68 103.2-2.52c39.69 5.15 66.63 35.6 66.63 35.6"></path><path id="path2707" sodipodi:nodetypes="csscccss" style="fill-rule:evenodd;stroke:#000000;stroke-width:2.6777px;fill:#000000" d="m382.03 351.08c0.17 2.4 25.47 2.47 38.73 2.22 13.25-0.24 35.85-1.83 38.37-5.21 2.52-3.39-35.8-1.15-35.8-1.15l-1.51-12.11-2.69 12.81s-8.97-0.93-20.25-1.14-17.07 1.57-16.85 4.58z"></path><path id="path2709" style="fill-rule:evenodd;stroke:#1a1a1a;stroke-width:2.6777px;fill:#1a1a1a" d="m422.75 298.34c14.24-0.72 28.26 10.83 27.73 13.27-0.54 2.45-3.31 19.57-17.08 21.28s-28.98 1.43-33.35-1.1c-4.37-2.54-12.44-17.41-12.37-20.84 0.06-3.44 15.95-13.45 35.07-12.61z"></path><path id="path2737" sodipodi:nodetypes="ccsscscccc" style="fill-rule:evenodd;fill:#cccccc;fill-opacity:.42718" d="m412.31 180.44c14.77-9.46 50.36-11.57 50.36-11.57s-30.55 7.95-38.02 17.54-9.32 43.61-3.3 47.36c6.01 3.76 13.21 8.76 13.21 8.76s-9.66-3.83-16.95-3.96-18.42 4.09-18.42 4.09c18.2-11.07 19.57-46.65-8.51-60.52-16.93-5.18-33.97-4.28-33.97-4.28s37.59-9.91 55.6 2.58z"></path><path id="path4705" sodipodi:nodetypes="cscsscccsc" style="fill-rule:evenodd;fill:url(#radialGradient5943)" d="m422.72 298.33c-19.13-0.84-34.99 9.14-35.05 12.58-0.03 1.82 2.29 6.85 5.06 11.56 0.47 0.02 0.75-0.03 0.76-0.24 0 0 4.84-10.46 9.49-11.04s14.63-3.73 17.95-4.33c7.58 5.45 15.25 3.77 22.39 9 2.34 2.44 2.97 5.79 3.12 7.51 2.84-5.06 3.79-10.43 4.07-11.72 0.53-2.45-13.55-14.04-27.79-13.32z"></path><path id="path5712" style="fill-rule:evenodd;stroke:#000000;stroke-width:2.6777px;fill:#000000" d="m416.61 327.3c-4.65 0.58-14.5-4.24-14.5-4.24s2.07-4.6 10.02-4.45c7.95 0.14 7.11 9.4 4.48 8.69z"></path><path id="path5714" sodipodi:nodetypes="cssc" style="fill-rule:evenodd;stroke:#000000;stroke-width:2.6777px;fill:#000000" d="m426.55 326.82c-1.25-4-2.49-8.66 4.81-9.18 7.3-0.53 11.01 1.23 6.98 4.47-4.04 3.24-11.14 5.39-11.79 4.71z"></path><path id="path5725" sodipodi:nodetypes="csscscssscssssssscsc" style="fill-rule:evenodd;fill:url(#radialGradient5945)" d="m413.9 354.32c-15.64 0.28-24.66 7.71-24.69 9.43-0.04 1.83-1.39 3.87 7.43 9.76 8.83 5.88 15.17 9.2 22.3 7.27 2.72 1.65 10.26 0.63 16.26-1.12 0.13-0.04 0.28-0.12 0.42-0.16 0.78-2.08 2.57-4.28 5.47-6.35 5.34-3.79 3.26-3.83-3.62-3.49-6.87 0.33-11.5 0.21-13.59 2.01-2.1 1.79-4.79 1.98-5.47 1.74-5.28 0.36-10.93-3.41-15.49-4.64-4.55-1.23-4.8-1.64-4.54-3.01 0.25-1.37 6.93-1.52 10.78 0.61 3.86 2.13 7.89 4.06 10.64 3.88s6.23-3.34 9.44-3.51 11.9 0.66 13.06-0.01c1.15-0.66-4.74-3.46-6.78-4.64-1.26-0.73-4.49-5.51-3.71-7.35-4.49-1.08-9.03-0.11-14.64-0.36-1.11-0.04-2.22-0.07-3.27-0.06z"></path><path id="path5811" style="fill-rule:evenodd;fill:url(#radialGradient5947)" d="m465.12 113.14c-17.05 0.02-33.65 5.26-29.76 21.21 54.5 11.95 51.47 43.48 50.01 56.83-1.47 13.35-27.14 21.37-26.46 50.57s37.4 16.49 38.52 21.38c1.13 4.88-39.32 23.61-33.47 35.87 0.72 1.49 1.64 3.49 2.66 5.74-3.61-1.97-8.06-2.89-12.52-6.59-7.83-6.5-11.29-31.97-17.46-42.42-6.37 0.68-12.37 22-21.87 19.44-9.49-2.56-13.18-16.15-16.35-16.21-3.18-0.05-3.8 33.37-27.77 40.08-16.15 11.47 1.31 47.49 20.48 51.27l64.49-2.83s14.07-16.85 17.02-28.48c6.91 17.17 14.16 39.15 10.72 49.66-5.16 15.71-37.15 33.35-38.63 47.91-1.49 14.57 17.4 46.58 30.51 61.41 13.1 14.83 68.57 41.4 69.47 58.44 0.91 17.04-39.04 5.34-45.19 8.88-6.14 3.53-28.83 46.9-39.95 56.43-11.12 9.52-31.5-7.88-49.87-0.92s-7.99 38.8-28.72 42.07c-20.74 3.27-20.85 10.56-30.8 22.53-6.16 7.42-19.52 25.04-30.61 39.78 7.22-7.7 17.16-18.03 28.89-23.49 20.29-9.44 64.68-22.34 82.68-40.66 18.01-18.32 49.79-37.36 55.83-45.59s10.76-24.81 14.73-27.68c3.98-2.87 46.81-10.44 46.81-10.44s8.49-8.24 14.47-13.04 15.91-9.5 15.91-9.5 1.96-2.26-1.26-4.21c2.71-0.28 6.11-1.9 10.24-6.42 11.02-12.07-3.67-12.31 8.75-20.43 12.42-8.11 10.58-15.54 10.58-15.54s28.16-8.78 48.29-8.9c20.12-0.12 30.8 4.46 41.62 3.19s13.85-7.04 28.08-7.27c14.24-0.23 26.46 4.34 33.88 1.05 3.56-1.59 8.11-7.57 12.64-13.83 2.3-9.11 3.57-17.49 2.18-22.73-4.55-17.11-81.12-87.86-120.81-111.69-39.69-23.84-79.33-47.69-82.87-53.83-3.54-6.15-2.05-20.71-2.05-20.71l14.96-16.72c0.31-0.59 0.66-1.15 0.95-1.74l-4.45-12.89 7.12-9.15c-0.14-0.73-0.23-1.36-0.39-2.02l-2.67-4.74-1.3-2.28s0.72-1.51 0.96-1.99c2.54-5.16 16.85-34.77 18.31-53.65 0.24-3.15-0.09-5.84-0.94-8.22-0.03-0.05-0.05-0.11-0.08-0.16-0.55-1.06-1.13-2.21-1.61-3.13-0.11-0.2-0.23-0.31-0.33-0.51-0.07-0.1-0.09-0.24-0.16-0.34-5.79-7.89-18.48-10.18-29.94-10.34-2.29-0.03-4.48 0.02-6.61 0.13-10.82 0.57-19.26 8-24.02 13.37-0.29 0.33-0.5 0.59-0.77 0.9-2.23 2.64-3.51 4.63-3.51 4.63s-1.76-1.46-3.55-2.91c-7.5-6.08-27.74-21.69-43.38-25.91-6.05-1.63-13.88-2.67-21.63-2.66zm105.53 414.64s0.04 0.04 5.4 2.1c0.6 0.23 1.08 0.45 1.5 0.7-4.46 0.42-6.9-2.8-6.9-2.8z"></path><path id="path5750" sodipodi:rx="5.6332831" sodipodi:ry="5.6332831" style="stroke:#1a1a1a;stroke-width:.1;fill:#1a1a1a" sodipodi:type="arc" d="m260.21 485.85a5.6333 5.6333 0 1 1 -11.27 0 5.6333 5.6333 0 1 1 11.27 0z" transform="matrix(2.4775 .045575 -.034303 1.8648 -136.08 -677.5)" sodipodi:cy="485.85172" sodipodi:cx="254.57278"></path><path id="path5752" sodipodi:rx="5.6332831" sodipodi:ry="5.6332831" style="stroke:#1a1a1a;stroke-width:.1;fill:#1a1a1a" sodipodi:type="arc" d="m260.21 485.85a5.6333 5.6333 0 1 1 -11.27 0 5.6333 5.6333 0 1 1 11.27 0z" transform="matrix(2.3813 .68525 -.51578 1.7924 5.5324 -807.31)" sodipodi:cy="485.85172" sodipodi:cx="254.57278"></path><path id="path5815" style="fill-rule:evenodd;stroke:#433903;stroke-width:2.6777px;fill:#433903" d="m811.36 440.81c-11.19 0.06-21.87 2.86-26.21 5.54-6.95 4.29-18.66 26.61-26.08 29.91-7.42 3.29-19.64-1.28-33.88-1.05-14.23 0.23-17.26 6-28.08 7.27s-21.5-3.31-41.62-3.19c-20.13 0.12-48.29 8.9-48.29 8.9s1.84 7.43-10.58 15.54c-12.42 8.12 2.27 8.36-8.75 20.43-4.13 4.52-7.53 6.14-10.24 6.42 3.22 1.95 1.26 4.21 1.26 4.21s-9.93 4.7-15.91 9.5-14.47 13.04-14.47 13.04-34.57 6.07-44.44 9.39l-3.9 2.69c-0.01 0.02 0.01 0.07 0 0.09-3.65 5.25-7.94 18.77-13.2 25.95-6.04 8.23-37.82 27.27-55.83 45.59-18 18.32-62.39 31.22-82.68 40.66-20.3 9.44-35.46 33.74-39.86 33.16-4.41-0.57 5.08-7.77 5.08-7.77s-17.86 8.47-23.2 5.43c-3.25-1.85 0.26-5.89 3.51-8.81-5.29 3.95-14.37 9.33-18.64 3.18-2.18-3.14 0.64-9.71 5.08-16.9-6.1 6.17-12.05 10.19-15.71 7.83-6.04-3.89 3.14-19.16 11.62-31-7.76 9.28-17.34 18.93-21.63 15.58-7.74-6.03 9.2-18.48 23.38-42.75 0.62-1.06 1.01-1.78 1.56-2.74l-2.4-1.46c-1.62 2.69-3.34 5.55-4.66 7.61-4.04 6.31-12.48 11-14.88 8.01-2.4-2.98 12.41-31.16 21.45-42.28 9.04-11.13 38.95-37.1 58.04-61.29 19.09-24.18 38.33-31.68 38.33-31.68s0.39-2.15 0.25-4.77c-1.58-3.2-4.25-7.3-8.03-9.35-5.73-0.22-6.83 4.54-16.13 8.32-2.14 0.87-6.75 2.22-12.29 3.71-11.81 6.82-25.84 14.15-39.54 15.76-11.64 1.37-20.36 0.34-28.16-2.7-0.85 0-1.66-0.03-2.26-0.12-11.25-1.68-38.32-26.25-51.42-34.34s-37.02-12.48-37.02-12.48 0.72-0.54 0.77-0.57c-5.36-0.36-9.81-0.34-12.72-0.07-11.65 1.08-38.92 9.67-57.22 20.96-18.288 11.29-35.507 34.22-51.454 58.47-15.948 24.25-61.064 89.27-61.064 89.27l37.781 120.88 968.78 3.59s15.8-16.49 19.9-26.75c2.5-6.32 5.1-73.3 6.7-125.42-0.1 0.23-2.2 2.89-2.2 2.89s1.7-13.78 2.9-25.89c0.3-8.7 0.4-12.61 0.6-18.57-2.5-9.08-11.7-16.53-11.7-16.53s12.2-20.89-4.3-32.97c-16.4-12.08-18.97-9.64-18.97-9.64l-62.51 8.64s-9.04-12.43-18.75-18c-9.72-5.58-24.97-2.97-24.97-2.97s-4.79-7.9-8.15-12.37c-3.35-4.48-37.97-43.87-53.55-50.54-5.84-2.5-12.72-3.49-19.44-3.45zm-535.02 226.01c6.23-7.47 11.32-14.69 11.32-14.69s-5.5 6.55-11.32 14.69zm4.09 23.17c10.88-11 22.29-28.71 22.29-28.71s-14.07 15.42-22.29 28.71zm290.22-162.21s2.44 3.22 6.9 2.8c-0.42-0.25-0.9-0.47-1.5-0.7-5.36-2.06-5.4-2.1-5.4-2.1zm-272.59 172.66s-1.83 1.27-3.82 3.03c2.25-1.7 3.82-3.03 3.82-3.03z"></path><path id="path5884" style="fill-rule:evenodd;fill:#4d4d4d" d="m291 166.56s-14.99-5.55-21.66-9.99c-6.66-4.45-9.99-7.78-14.44-6.67-4.44 1.11-6.66 21.11 5.56 31.66 12.21 10.55 19.43 13.33 19.43 13.33s0-12.22 2.22-16.66c2.23-4.45 7.22-9.45 8.89-11.67z"></path><path id="path5886" style="fill-rule:evenodd;fill:#4d4d4d" d="m548.68 159.9s10-18.33 14.99-20.55c5-2.22 23.33 0 26.66 2.78 3.33 2.77-1.11 29.43-8.89 36.65-7.77 7.22-13.88 6.11-13.88 6.11s-3.33-8.33-7.22-12.22-12.22-12.77-11.66-12.77z"></path><path id="path5888" sodipodi:rx="5.6332831" sodipodi:ry="5.6332831" style="stroke:#1a1a1a;stroke-width:.1;fill:url(#radialGradient5949)" sodipodi:type="arc" d="m260.21 485.85a5.6333 5.6333 0 1 1 -11.27 0 5.6333 5.6333 0 1 1 11.27 0z" transform="matrix(.92798 .26704 -0.201 .69848 222.57 -174.37)" sodipodi:cy="485.85172" sodipodi:cx="254.57278"></path><path id="path5894" sodipodi:rx="5.6332831" sodipodi:ry="5.6332831" style="stroke:#1a1a1a;stroke-width:.1;fill:url(#radialGradient5951)" sodipodi:type="arc" d="m260.21 485.85a5.6333 5.6333 0 1 1 -11.27 0 5.6333 5.6333 0 1 1 11.27 0z" transform="matrix(1.0518 .019349 -.014563 .79169 217.27 -154.18)" sodipodi:cy="485.85172" sodipodi:cx="254.57278"></path></g></g><metadata></metadata></svg> 