<?xml version="1.0" encoding="UTF-8" standalone="no"?> <!-- Created with Inkscape (http://www.inkscape.org/) --> <svg xmlns:inkscape="http://www.inkscape.org/namespaces/inkscape" xmlns:rdf="http://www.w3.org/1999/02/22-rdf-syntax-ns#" xmlns="http://www.w3.org/2000/svg" xmlns:cc="http://web.resource.org/cc/" xmlns:dc="http://purl.org/dc/elements/1.1/" xmlns:sodipodi="http://sodipodi.sourceforge.net/DTD/sodipodi-0.dtd" xmlns:svg="http://www.w3.org/2000/svg" xmlns:ns1="http://sozi.baierouge.fr" xmlns:xlink="http://www.w3.org/1999/xlink" id="svg2134" sodipodi:docname="cloud09.svg" viewBox="0 0 220.74 211.23" sodipodi:version="0.32" inkscape:output_extension="org.inkscape.output.svg.inkscape" inkscape:version="0.44+devel" sodipodi:docbase="C:\Documents and Settings\Molumen\Desktop"><g id="layer1" inkscape:label="Layer 1" inkscape:groupmode="layer" transform="translate(-2104.1 -1256.3)"><path id="path1308" style="stroke-linejoin:round;stroke:#000000;stroke-linecap:round;stroke-width:4.2733;fill:#ffffff" d="m2169.5 1258.4c-0.3 0-0.6 0-0.9 0.1-7.9 0.1-15.9 1.2-23.6 3.5l-0.3 0.1c-32.2 9.5-47.1 34.9-33.2 56.9 9.2 14.6 28.8 23.9 50.5 25.9-7 12.8-6.9 27.3 1.7 40.8 18.1 28.2 66.8 41.3 108.9 29.2 3-0.9 5.9-1.9 8.7-2.9 8.6 15.4 9 34 7.4 53.4 0 0 12.7-25.9 15.3-44.5 1.2-8.7 0.2-15.9-1.2-20.9 19.9-15.6 26.1-38 13.2-58.2-14.4-22.4-48.3-35.3-82.7-33.5 1.7-7.7 0.4-15.9-4.5-23.6-10.4-16.5-34.3-26.4-59.3-26.3z"></path></g><metadata></metadata></svg> 