<?xml version="1.0" encoding="UTF-8" standalone="no"?> <!-- Created with Inkscape (http://www.inkscape.org/) --> <svg xmlns:dc="http://purl.org/dc/elements/1.1/" xmlns:inkscape="http://www.inkscape.org/namespaces/inkscape" xmlns:xlink="http://www.w3.org/1999/xlink" xmlns:sodipodi="http://sodipodi.sourceforge.net/DTD/sodipodi-0.dtd" xmlns:cc="http://web.resource.org/cc/" xmlns:rdf="http://www.w3.org/1999/02/22-rdf-syntax-ns#" xmlns="http://www.w3.org/2000/svg" xmlns:svg="http://www.w3.org/2000/svg" xmlns:ns1="http://sozi.baierouge.fr" id="svg2" viewBox="0 0 225.48 365.68" sodipodi:docbase="/home/needcoffee/Desktop" inkscape:export-ydpi="300" inkscape:export-xdpi="300" inkscape:output_extension="org.inkscape.output.svg.inkscape" sodipodi:docname="pub_table.svg" inkscape:export-filename="/home/needcoffee/Desktop/Stehparty4.png" inkscape:version="0.45+devel" sodipodi:version="0.32"><defs id="defs4"><linearGradient id="linearGradient50943"><stop id="stop50945" style="stop-color:#d90000" offset="0"></stop><stop id="stop50951" style="stop-color:#ff4848" offset=".15112"></stop><stop id="stop50953" style="stop-color:#9e0000" offset=".31858"></stop><stop id="stop50955" style="stop-color:#ff5656" offset=".76929"></stop><stop id="stop50947" style="stop-color:#ac0000" offset="1"></stop></linearGradient><linearGradient id="linearGradient48962"><stop id="stop48964" style="stop-color:#ffffff;stop-opacity:0" offset="0"></stop><stop id="stop48966" style="stop-color:#ffffff" offset="1"></stop></linearGradient><linearGradient id="linearGradient46898" inkscape:collect="always"><stop id="stop46900" style="stop-color:#eeeeec" offset="0"></stop><stop id="stop46902" style="stop-color:#eeeeec;stop-opacity:0" offset="1"></stop></linearGradient><linearGradient id="linearGradient45916"><stop id="stop45918" style="stop-color:#ffffff;stop-opacity:.76630" offset="0"></stop><stop id="stop45920" style="stop-color:#bbbbbb;stop-opacity:0" offset="1"></stop></linearGradient><linearGradient id="linearGradient44935" inkscape:collect="always"><stop id="stop44937" style="stop-color:#ffffff" offset="0"></stop><stop id="stop44939" style="stop-color:#ffffff;stop-opacity:0" offset="1"></stop></linearGradient><linearGradient id="linearGradient44925"><stop id="stop44927" style="stop-color:#ffffff" offset="0"></stop><stop id="stop44933" style="stop-color:#ffffff;stop-opacity:0" offset=".15789"></stop><stop id="stop44929" style="stop-color:#ffffff;stop-opacity:0" offset="1"></stop></linearGradient><linearGradient id="linearGradient37136"><stop id="stop37138" style="stop-color:#ffffff" offset="0"></stop><stop id="stop38113" style="stop-color:#ffffff;stop-opacity:0" offset=".40323"></stop><stop id="stop39086" style="stop-color:#000000;stop-opacity:.076503" offset=".75492"></stop><stop id="stop38115" style="stop-color:#000000;stop-opacity:0" offset="1"></stop></linearGradient><linearGradient id="linearGradient27343"><stop id="stop27345" style="stop-color:#ffffff" offset="0"></stop><stop id="stop27347" style="stop-color:#000000" offset="1"></stop></linearGradient><linearGradient id="linearGradient25335" inkscape:collect="always"><stop id="stop25337" style="stop-color:#2e3436" offset="0"></stop><stop id="stop25339" style="stop-color:#2e3436;stop-opacity:0" offset="1"></stop></linearGradient><linearGradient id="linearGradient19462"><stop id="stop19466" style="stop-color:#2f8314;stop-opacity:.49804" offset="0"></stop><stop id="stop19468" style="stop-color:#1a480b" offset="1"></stop></linearGradient><linearGradient id="linearGradient5662"><stop id="stop5664" style="stop-color:#ffffff" offset="0"></stop><stop id="stop5670" style="stop-color:#d5d5d0" offset=".044959"></stop><stop id="stop5674" style="stop-color:#ffffff" offset=".27419"></stop><stop id="stop6645" style="stop-color:#9f9f9b" offset=".70774"></stop><stop id="stop6647" style="stop-color:#e4e4e3" offset=".85387"></stop><stop id="stop5666" style="stop-color:#3f3f38" offset="1"></stop></linearGradient><linearGradient id="linearGradient4678"><stop id="stop4680" style="stop-color:#e5e5e5" offset="0"></stop><stop id="stop4686" style="stop-color:#ffffff" offset=".16917"></stop><stop id="stop4688" style="stop-color:#dbdbd6" offset=".75"></stop><stop id="stop4682" style="stop-color:#eeeeec" offset="1"></stop></linearGradient><linearGradient id="linearGradient3659"><stop id="stop3661" style="stop-color:#ffffff" offset="0"></stop><stop id="stop3663" style="stop-color:#eeeeec" offset="1"></stop></linearGradient><radialGradient id="radialGradient3313" gradientUnits="userSpaceOnUse" cy="558.59" cx="166.5" gradientTransform="matrix(1.3464 0 0 .40023 -45.176 339.03)" r="76.5" inkscape:collect="always"><stop id="stop9601" style="stop-color:#2e3436" offset="0"></stop><stop id="stop9603" style="stop-color:#2e3436;stop-opacity:0" offset="1"></stop></radialGradient><linearGradient id="linearGradient3315" y2="273.71" xlink:href="#linearGradient4678" gradientUnits="userSpaceOnUse" x2="295.1" gradientTransform="matrix(.49586 0 0 .51161 83.229 421.73)" y1="273.71" x1="35.092" inkscape:collect="always"></linearGradient><radialGradient id="radialGradient3317" xlink:href="#linearGradient3659" gradientUnits="userSpaceOnUse" cy="255.33" cx="165.09" gradientTransform="matrix(.50204 0 0 .13059 82.212 515.54)" r="128.4" inkscape:collect="always"></radialGradient><radialGradient id="radialGradient3319" gradientUnits="userSpaceOnUse" cy="525.65" cx="157.82" gradientTransform="matrix(-.15347 .86551 -2.0717 -.36735 1271 602.15)" r="34.416" inkscape:collect="always"><stop id="stop10588" style="stop-color:#2e3436" offset="0"></stop><stop id="stop10590" style="stop-color:#2e3436;stop-opacity:0" offset="1"></stop></radialGradient><linearGradient id="linearGradient3321" y2="413.4" xlink:href="#linearGradient5662" gradientUnits="userSpaceOnUse" x2="177.74" y1="413.4" x1="152.74" inkscape:collect="always"></linearGradient><linearGradient id="linearGradient3323" y2="273.71" xlink:href="#linearGradient4678" gradientUnits="userSpaceOnUse" x2="295.1" y1="273.71" x1="35.092" inkscape:collect="always"></linearGradient><radialGradient id="radialGradient3325" xlink:href="#linearGradient3659" gradientUnits="userSpaceOnUse" cy="198.02" cx="115.7" gradientTransform="matrix(1.23 .37153 -.11037 .36537 -5.3626 127.76)" r="128.4" inkscape:collect="always"></radialGradient><linearGradient id="linearGradient3327" y2="175.1" xlink:href="#linearGradient19462" gradientUnits="userSpaceOnUse" x2="123.87" gradientTransform="matrix(-1 0 0 -1 254.4 346.7)" y1="172.7" x1="123.87" inkscape:collect="always"></linearGradient><linearGradient id="linearGradient3329" y2="175.1" xlink:href="#linearGradient19462" gradientUnits="userSpaceOnUse" x2="123.87" gradientTransform="matrix(-1 0 0 -1 254.4 347.72)" y1="172.7" x1="123.87" inkscape:collect="always"></linearGradient><linearGradient id="linearGradient3331" y2="175.1" xlink:href="#linearGradient19462" gradientUnits="userSpaceOnUse" x2="123.87" gradientTransform="matrix(-1 0 0 -1 254.4 348.65)" y1="172.7" x1="123.87" inkscape:collect="always"></linearGradient><linearGradient id="linearGradient3333" y2="173.39" xlink:href="#linearGradient48962" gradientUnits="userSpaceOnUse" x2="130.38" gradientTransform="matrix(-1 0 0 -1 254.4 348.51)" y1="173.39" x1="124.01" inkscape:collect="always"></linearGradient><linearGradient id="linearGradient3335" y2="173.39" xlink:href="#linearGradient48962" gradientUnits="userSpaceOnUse" x2="130.38" gradientTransform="matrix(-1 0 0 -1 254.4 347.28)" y1="173.39" x1="124.01" inkscape:collect="always"></linearGradient><linearGradient id="linearGradient3337" y2="173.39" xlink:href="#linearGradient48962" gradientUnits="userSpaceOnUse" x2="130.38" gradientTransform="matrix(-1 0 0 -1 254.4 346.23)" y1="173.39" x1="124.01" inkscape:collect="always"></linearGradient><radialGradient id="radialGradient3339" xlink:href="#linearGradient25335" gradientUnits="userSpaceOnUse" cy="257.91" cx="156.73" gradientTransform="matrix(1 0 0 .36667 0 163.35)" r="5.5578" inkscape:collect="always"></radialGradient><radialGradient id="radialGradient3343" gradientUnits="userSpaceOnUse" cy="259.54" cx="129.69" gradientTransform="matrix(1.1594 0 0 .44761 -22.822 139.22)" r="20.248" inkscape:collect="always"><stop id="stop19478" style="stop-color:#ffffff" offset="0"></stop><stop id="stop19480" style="stop-color:#2e3436;stop-opacity:0" offset="1"></stop></radialGradient><radialGradient id="radialGradient3345" gradientUnits="userSpaceOnUse" cy="219.76" cx="111.05" gradientTransform="matrix(-1.0397 .25187 -.75256 -3.1065 405.8 862.33)" r="12.391" inkscape:collect="always"><stop id="stop17489" style="stop-color:#eee387" offset="0"></stop><stop id="stop17491" style="stop-color:#eee387;stop-opacity:.62745" offset="1"></stop></radialGradient><linearGradient id="linearGradient3347" y2="216.26" xlink:href="#linearGradient19462" gradientUnits="userSpaceOnUse" x2="141.41" y1="216.26" x1="112.89" inkscape:collect="always"></linearGradient><linearGradient id="linearGradient3349" y2="229.38" gradientUnits="userSpaceOnUse" x2="114.84" y1="172.47" x1="114.84" inkscape:collect="always"><stop id="stop13549" style="stop-color:#ffffff" offset="0"></stop><stop id="stop13551" style="stop-color:#ffffff;stop-opacity:0" offset="1"></stop></linearGradient><linearGradient id="linearGradient3351" y2="216.25" gradientUnits="userSpaceOnUse" x2="141.41" y1="216.25" x1="112.91" inkscape:collect="always"><stop id="stop19439" style="stop-color:#1a480b" offset="0"></stop><stop id="stop19445" style="stop-color:#2f8314;stop-opacity:.49804" offset=".53132"></stop><stop id="stop19441" style="stop-color:#1a480b" offset="1"></stop></linearGradient><linearGradient id="linearGradient3353" y2="239.03" xlink:href="#linearGradient4678" gradientUnits="userSpaceOnUse" x2="141.41" gradientTransform="matrix(.98360 0 0 1.0379 2.0856 -9.6596)" y1="239.03" x1="112.91" inkscape:collect="always"></linearGradient><linearGradient id="linearGradient3355" y2="166.85" xlink:href="#linearGradient5662" gradientUnits="userSpaceOnUse" x2="198" y1="166.85" x1="160.59" inkscape:collect="always"></linearGradient><radialGradient id="radialGradient3357" gradientUnits="userSpaceOnUse" cy="250.71" cx="157.86" gradientTransform="matrix(-1.9136 1.8452 -1.8217 -1.8893 914.95 431.36)" r="6.0693" inkscape:collect="always"><stop id="stop26318" style="stop-color:#e5d383" offset="0"></stop><stop id="stop26324" style="stop-color:#d6b93c" offset=".44941"></stop><stop id="stop26320" style="stop-color:#dcc459" offset="1"></stop></radialGradient><linearGradient id="linearGradient3359" y2="251.74" xlink:href="#linearGradient27343" gradientUnits="userSpaceOnUse" x2="157.47" y1="251.74" x1="156.24" inkscape:collect="always"></linearGradient><linearGradient id="linearGradient3361" y2="253.78" xlink:href="#linearGradient27343" gradientUnits="userSpaceOnUse" x2="159.32" y1="253.78" x1="158.71" inkscape:collect="always"></linearGradient><linearGradient id="linearGradient3363" y2="255.01" xlink:href="#linearGradient27343" gradientUnits="userSpaceOnUse" x2="157.59" y1="255.01" x1="156.36" inkscape:collect="always"></linearGradient><linearGradient id="linearGradient3365" y2="255.94" xlink:href="#linearGradient27343" gradientUnits="userSpaceOnUse" x2="159.94" y1="255.94" x1="159.08" inkscape:collect="always"></linearGradient><linearGradient id="linearGradient3367" y2="253.28" xlink:href="#linearGradient27343" gradientUnits="userSpaceOnUse" x2="155.37" y1="253.28" x1="154.88" inkscape:collect="always"></linearGradient><linearGradient id="linearGradient3369" y2="253.47" xlink:href="#linearGradient27343" gradientUnits="userSpaceOnUse" x2="153.76" y1="253.47" x1="152.78" inkscape:collect="always"></linearGradient><linearGradient id="linearGradient3371" y2="256" xlink:href="#linearGradient27343" gradientUnits="userSpaceOnUse" x2="155.25" y1="256" x1="154.26" inkscape:collect="always"></linearGradient><linearGradient id="linearGradient3373" y2="255.81" xlink:href="#linearGradient27343" gradientUnits="userSpaceOnUse" x2="152.16" y1="255.81" x1="151.05" inkscape:collect="always"></linearGradient><linearGradient id="linearGradient3375" y2="254.15" xlink:href="#linearGradient27343" gradientUnits="userSpaceOnUse" x2="151.91" y1="254.15" x1="150.31" inkscape:collect="always"></linearGradient><linearGradient id="linearGradient3377" y2="255.32" xlink:href="#linearGradient27343" gradientUnits="userSpaceOnUse" x2="154.01" y1="255.32" x1="153.15" inkscape:collect="always"></linearGradient><linearGradient id="linearGradient3379" y2="257.17" xlink:href="#linearGradient27343" gradientUnits="userSpaceOnUse" x2="153.15" y1="257.17" x1="152.16" inkscape:collect="always"></linearGradient><linearGradient id="linearGradient3381" y2="250.56" xlink:href="#linearGradient27343" gradientUnits="userSpaceOnUse" x2="158.58" y1="250.56" x1="158.09" inkscape:collect="always"></linearGradient><linearGradient id="linearGradient3383" y2="252.17" xlink:href="#linearGradient27343" gradientUnits="userSpaceOnUse" x2="158.58" y1="252.17" x1="158.09" inkscape:collect="always"></linearGradient><linearGradient id="linearGradient3385" y2="249.95" xlink:href="#linearGradient27343" gradientUnits="userSpaceOnUse" x2="157.1" y1="249.95" x1="156.11" inkscape:collect="always"></linearGradient><linearGradient id="linearGradient3387" y2="257.23" xlink:href="#linearGradient27343" gradientUnits="userSpaceOnUse" x2="158.46" y1="257.23" x1="157.47" inkscape:collect="always"></linearGradient><linearGradient id="linearGradient3389" y2="175.1" xlink:href="#linearGradient19462" gradientUnits="userSpaceOnUse" x2="123.87" gradientTransform="translate(0 1.8169)" y1="172.7" x1="123.87" inkscape:collect="always"></linearGradient><linearGradient id="linearGradient3391" y2="175.1" xlink:href="#linearGradient19462" gradientUnits="userSpaceOnUse" x2="123.87" gradientTransform="translate(0 .79446)" y1="172.7" x1="123.87" inkscape:collect="always"></linearGradient><linearGradient id="linearGradient3393" y2="175.1" xlink:href="#linearGradient19462" gradientUnits="userSpaceOnUse" x2="123.87" gradientTransform="translate(0 -.13286)" y1="172.7" x1="123.87" inkscape:collect="always"></linearGradient><linearGradient id="linearGradient3395" y2="260.97" gradientUnits="userSpaceOnUse" x2="128.25" gradientTransform="matrix(1 0 0 -1 0 744.09)" y1="171.53" x1="112.91" inkscape:collect="always"><stop id="stop20467" style="stop-color:#ffffff" offset="0"></stop><stop id="stop32246" style="stop-color:#ffffff;stop-opacity:0" offset=".5"></stop><stop id="stop20469" style="stop-color:#ffffff;stop-opacity:.84153" offset="1"></stop></linearGradient><linearGradient id="linearGradient3397" y2="173.39" xlink:href="#linearGradient48962" gradientUnits="userSpaceOnUse" x2="130.38" y1="173.39" x1="124.01" inkscape:collect="always"></linearGradient><linearGradient id="linearGradient3399" y2="173.39" xlink:href="#linearGradient48962" gradientUnits="userSpaceOnUse" x2="130.38" gradientTransform="translate(0 1.2278)" y1="173.39" x1="124.01" inkscape:collect="always"></linearGradient><linearGradient id="linearGradient3401" y2="173.39" xlink:href="#linearGradient48962" gradientUnits="userSpaceOnUse" x2="130.38" gradientTransform="translate(0 2.2803)" y1="173.39" x1="124.01" inkscape:collect="always"></linearGradient><radialGradient id="radialGradient3403" xlink:href="#linearGradient37136" gradientUnits="userSpaceOnUse" cy="257.58" cx="180.48" gradientTransform="matrix(1.0156 .10571 -.038192 .46305 7.003 120.32)" r="10.128" inkscape:collect="always"></radialGradient><radialGradient id="radialGradient3405" xlink:href="#linearGradient44925" gradientUnits="userSpaceOnUse" cy="259.74" cx="183.44" gradientTransform="matrix(1.0276 -4.3008e-7 1.5691e-7 .46504 -5.0702 138.95)" r="10.128" inkscape:collect="always"></radialGradient><linearGradient id="linearGradient3407" y2="254.72" xlink:href="#linearGradient44935" gradientUnits="userSpaceOnUse" x2="173.04" y1="264.76" x1="193.85" inkscape:collect="always"></linearGradient><linearGradient id="linearGradient3409" y2="236.08" xlink:href="#linearGradient48962" gradientUnits="userSpaceOnUse" x2="192.26" y1="236.08" x1="174.55" inkscape:collect="always"></linearGradient><linearGradient id="linearGradient3411" y2="209.76" xlink:href="#linearGradient44935" gradientUnits="userSpaceOnUse" x2="174.32" gradientTransform="matrix(.97849 0 0 1 3.7595 0)" y1="216.19" x1="192.43" inkscape:collect="always"></linearGradient><linearGradient id="linearGradient3413" y2="258.72" xlink:href="#linearGradient44935" gradientUnits="userSpaceOnUse" x2="183.28" y1="251.67" x1="132.03" inkscape:collect="always"></linearGradient><radialGradient id="radialGradient3415" xlink:href="#linearGradient45916" gradientUnits="userSpaceOnUse" cy="210.43" cx="142.89" gradientTransform="matrix(1.5332 -1.0072 .96491 1.4689 -279.19 45.438)" r="2.413" inkscape:collect="always"></radialGradient><radialGradient id="radialGradient3417" xlink:href="#linearGradient46898" gradientUnits="userSpaceOnUse" cy="208.04" cx="141.48" gradientTransform="matrix(.79758 -.55490 .38156 .54843 -50.866 172.42)" r="1.1762" inkscape:collect="always"></radialGradient><radialGradient id="radialGradient3433" xlink:href="#linearGradient44925" gradientUnits="userSpaceOnUse" cy="259.74" cx="183.44" gradientTransform="matrix(.91780 -3.4887e-7 1.4014e-7 .37723 40.821 152.08)" r="10.128" inkscape:collect="always"></radialGradient><linearGradient id="linearGradient3435" y2="254.72" xlink:href="#linearGradient44935" gradientUnits="userSpaceOnUse" x2="173.04" gradientTransform="matrix(.89312 0 0 .81118 45.349 39.363)" y1="264.76" x1="193.85" inkscape:collect="always"></linearGradient><linearGradient id="linearGradient3437" y2="236.08" xlink:href="#linearGradient48962" gradientUnits="userSpaceOnUse" x2="192.26" gradientTransform="translate(25.672 -11.634)" y1="236.08" x1="174.55" inkscape:collect="always"></linearGradient><linearGradient id="linearGradient3439" y2="209.76" xlink:href="#linearGradient44935" gradientUnits="userSpaceOnUse" x2="174.32" gradientTransform="matrix(.97849 0 0 1 29.431 -11.634)" y1="216.19" x1="192.43" inkscape:collect="always"></linearGradient><linearGradient id="linearGradient3441" y2="258.72" xlink:href="#linearGradient44935" gradientUnits="userSpaceOnUse" x2="183.28" gradientTransform="translate(25.672 -11.634)" y1="251.67" x1="132.03" inkscape:collect="always"></linearGradient><radialGradient id="radialGradient3459" gradientUnits="userSpaceOnUse" cy="259.92" cx="95.827" gradientTransform="matrix(1.0667 .13054 -.034132 .27891 6.9442 178.73)" r="47.865" inkscape:collect="always"><stop id="stop54980" style="stop-color:#2e3436" offset="0"></stop><stop id="stop54982" style="stop-color:#2e3436;stop-opacity:0" offset="1"></stop></radialGradient><radialGradient id="radialGradient3461" xlink:href="#linearGradient50943" spreadMethod="reflect" gradientUnits="userSpaceOnUse" cy="256.74" cx="106.01" gradientTransform="matrix(1.0732 .057173 -.018738 .35172 1.4152 164.18)" r="37.281" inkscape:collect="always"></radialGradient><radialGradient id="radialGradient3463" spreadMethod="reflect" gradientUnits="userSpaceOnUse" cy="259.77" cx="104.18" gradientTransform="matrix(1.0732 .057173 -.018092 .33960 1.1698 168.79)" r="38.937" inkscape:collect="always"><stop id="stop51938" style="stop-color:#42d900" offset="0"></stop><stop id="stop51940" style="stop-color:#98ff48" offset=".15112"></stop><stop id="stop51942" style="stop-color:#4f9e00" offset=".31858"></stop><stop id="stop51944" style="stop-color:#8fff56" offset=".76929"></stop><stop id="stop51946" style="stop-color:#50ac00" offset="1"></stop></radialGradient><radialGradient id="radialGradient3465" xlink:href="#linearGradient50943" spreadMethod="reflect" gradientUnits="userSpaceOnUse" cy="254.51" cx="67.912" gradientTransform="matrix(1.0732 .057173 -.028852 .54156 4.0463 114.79)" r="20.392" inkscape:collect="always"></radialGradient><radialGradient id="radialGradient3467" xlink:href="#linearGradient50943" spreadMethod="reflect" gradientUnits="userSpaceOnUse" cy="259.47" cx="83.883" gradientTransform="matrix(1.0732 .057173 -.0077033 .14460 -1.5178 219.24)" r="26.756" inkscape:collect="always"></radialGradient></defs><g id="layer6" inkscape:label="pubtable" inkscape:groupmode="layer" transform="translate(-52.355 -199.53)"><g id="g3219" transform="matrix(.86720 0 0 .86720 21.925 50.78)"><path id="path8627" style="opacity:.1;fill:url(#radialGradient3313)" d="m282 562.59c0 16.91-46.14 30.62-103 30.62s-103-13.71-103-30.62c0-16.9 46.14-30.61 103-30.61s103 13.71 103 30.61z"></path><path id="path6667" sodipodi:nodetypes="cccssscc" style="fill:url(#linearGradient3315)" d="m229.56 549.24c-49.5-1.62-73.04-2.85-128.93 0v9.87 0.13c0 7.59 28.88 15.84 64.46 15.84 35.59 0 64.47-8.25 64.47-15.84v-0.13-9.87z"></path><path id="path6669" style="fill:url(#radialGradient3317)" d="m229.55 548.88c0 9.26-28.87 16.77-64.46 16.77-35.58 0-64.46-7.51-64.46-16.77 0-9.25 28.88-16.76 64.46-16.76 35.59 0 64.46 7.51 64.46 16.76z"></path><path id="path9607" sodipodi:nodetypes="ccccccc" style="opacity:.1;fill-rule:evenodd;fill:url(#radialGradient3319)" d="m176.26 546.72l-20.54 4.63 26.47 13.49 0.14 9.63c21.21-1.59 37.64-6.01 44.23-10.88l0.1-9.81-50.4-7.06z"></path><path id="rect4690" sodipodi:nodetypes="ccczcc" style="fill:url(#linearGradient3321)" d="m152.74 273.16h25v273.03c0 6.13-4.32 7.46-12.5 7.46-8.09 0-12.5-2.83-12.5-8.69v-271.8z"></path><path id="path3701" sodipodi:nodetypes="cccssscc" style="fill:url(#linearGradient3323)" d="m295.09 255.09c-99.82-3.16-147.28-5.58-260 0l0.004 13.44c-0.004 0.09 0 0.17 0 0.25 0 14.84 58.24 26.88 130 26.88s130-12.04 130-26.88c0-0.08 0.01-0.16 0-0.25v-13.44z"></path><path id="path2687" style="fill:url(#radialGradient3325)" d="m295.09 255.1c0 14.84-58.24 26.89-130 26.89-71.759 0-130-12.05-130-26.89 0.001-14.84 58.241-26.89 130-26.89 71.76 0 130 12.05 130 26.89z"></path><path id="path48978" sodipodi:nodetypes="cscssssscsscsszsscc" style="fill-rule:evenodd;fill:url(#linearGradient3327)" d="m130.18 173.91c0.16-0.04 0.28-0.17 0.33-0.32 0.05-0.16 0.02-0.77-0.08-0.9 0 0-0.07-0.11-0.19-0.22-0.12-0.1-0.31-0.24-0.56-0.37-0.5-0.26-1.29-0.49-2.47-0.5-1.2-0.01-1.97 0.23-2.47 0.5-0.25 0.13-0.44 0.26-0.56 0.37-0.12 0.12-0.19 0.25-0.19 0.25-0.13 0.16-0.16 0.81-0.07 0.99 0.08 0.19 0.27 0.3 0.47 0.29 0.21-0.01 0.38-0.14 0.45-0.34l0.03-0.03c0.05-0.05 0.18-0.13 0.34-0.22 0.33-0.17 0.94-0.38 2-0.37 1.07 0.01 1.69 0.23 2.03 0.41 0.18 0.08 0.26 0.16 0.32 0.21 0.05 0.06 0.03 0.04 0.03 0.04 0.12 0.2 0.37 0.29 0.59 0.21z"></path><path id="path48980" sodipodi:nodetypes="cscssssscsscsszsscc" style="fill-rule:evenodd;fill:url(#linearGradient3329)" d="m130.18 174.94c0.16-0.05 0.28-0.17 0.33-0.33 0.05-0.15 0.02-0.76-0.08-0.89 0 0-0.07-0.11-0.19-0.22s-0.31-0.25-0.56-0.38c-0.5-0.25-1.29-0.49-2.47-0.5-1.2-0.01-1.97 0.24-2.47 0.5-0.25 0.13-0.44 0.26-0.56 0.38-0.12 0.11-0.19 0.25-0.19 0.25-0.13 0.15-0.16 0.8-0.07 0.99 0.08 0.18 0.27 0.29 0.47 0.28 0.21-0.01 0.38-0.14 0.45-0.33l0.03-0.03c0.05-0.05 0.18-0.14 0.34-0.22 0.33-0.18 0.94-0.39 2-0.38 1.07 0.01 1.69 0.23 2.03 0.41 0.18 0.09 0.26 0.17 0.32 0.22l0.03 0.03c0.12 0.2 0.37 0.29 0.59 0.22z"></path><path id="path48982" sodipodi:nodetypes="cscssssscsscsszsscc" style="fill-rule:evenodd;fill:url(#linearGradient3331)" d="m130.18 175.86c0.16-0.04 0.28-0.17 0.33-0.32 0.05-0.16 0.02-0.77-0.08-0.9 0 0-0.07-0.11-0.19-0.22s-0.31-0.24-0.56-0.37c-0.5-0.26-1.29-0.49-2.47-0.5-1.2-0.01-1.97 0.23-2.47 0.5-0.25 0.13-0.44 0.26-0.56 0.37-0.12 0.12-0.19 0.25-0.19 0.25-0.13 0.16-0.16 0.81-0.07 0.99 0.08 0.19 0.27 0.3 0.47 0.29 0.21-0.01 0.38-0.14 0.45-0.34l0.03-0.03c0.05-0.05 0.18-0.13 0.34-0.22 0.33-0.17 0.94-0.38 2-0.37 1.07 0.01 1.69 0.23 2.03 0.41 0.18 0.08 0.26 0.16 0.32 0.21 0.05 0.06 0.03 0.04 0.03 0.04 0.12 0.2 0.37 0.29 0.59 0.21z"></path><path id="path48984" sodipodi:nodetypes="cc" style="opacity:.8;stroke-linejoin:round;stroke:url(#linearGradient3333);stroke-linecap:round;stroke-width:.57657;fill:none" d="m130.14 175.65c-1.28-1.45-4.8-1.22-5.78-0.1"></path><path id="path48986" sodipodi:nodetypes="cc" style="opacity:.8;stroke-linejoin:round;stroke:url(#linearGradient3335);stroke-linecap:round;stroke-width:.57657;fill:none" d="m130.14 174.42c-1.28-1.44-4.8-1.22-5.78-0.1"></path><path id="path48988" sodipodi:nodetypes="cc" style="opacity:.8;stroke-linejoin:round;stroke:url(#linearGradient3337);stroke-linecap:round;stroke-width:.57657;fill:none" d="m130.14 173.37c-1.28-1.45-4.8-1.22-5.78-0.1"></path><path id="path24364" style="opacity:.2;fill:url(#radialGradient3339)" transform="matrix(1.2424 0 0 1.2424 -37.995 -62.524)" d="m162.29 257.91c0 1.13-2.49 2.04-5.56 2.04s-5.56-0.91-5.56-2.04c0-1.12 2.49-2.03 5.56-2.03s5.56 0.91 5.56 2.03z"></path><path id="path25343" style="opacity:.2;fill:url(#radialGradient3339)" transform="matrix(.93939 0 0 .93939 4.188 16.002)" d="m162.29 257.91c0 1.13-2.49 2.04-5.56 2.04s-5.56-0.91-5.56-2.04c0-1.12 2.49-2.03 5.56-2.03s5.56 0.91 5.56 2.03z"></path><path id="path19474" style="opacity:.4;fill:url(#radialGradient3343)" d="m151.01 255.39c0 5.01-10.51 9.07-23.47 9.07s-23.48-4.06-23.48-9.07c0-5 10.52-9.06 23.48-9.06s23.47 4.06 23.47 9.06z"></path><path id="rect16503" sodipodi:nodetypes="cccccccccz" style="opacity:.7;fill:url(#radialGradient3345)" d="m126.48 208.92c-6.47 0-8.25 2.33-9.51 3.87-3.27 10.18-2.22 4.51-2.22 10.52v28.44c0 3.04 5.43 5.47 12.16 5.47h0.5c6.72 0 12.12-2.43 12.12-5.47v-28.44c0-6.41 0.59-1.56-2.64-11.73-0.98-1.44-3.94-2.66-10.41-2.66z"></path><path id="rect11566" sodipodi:nodetypes="ccccccccc" style="opacity:.5;fill:url(#linearGradient3347)" d="m130.41 173.04c0.7 34.83 11 38.03 11 50.42v31.72c0 3.21-6.23 5.79-13.98 5.79h-0.56c-7.75 0-13.98-2.58-13.98-5.79v-31.72c0-11.69 10.77-15.6 11-50.42 0.05-1.94 6.49-2.05 6.52 0z"></path><path id="path13542" style="opacity:.4;fill:url(#linearGradient3349)" d="m127.16 172.47c-1.41 0.01-2.83 0.52-2.85 1.44-0.19 31.36-8.62 37.72-9.47 47.78 3.97 1.06 8.17 1.65 12.54 1.65 4.19 0 8.26-0.54 12.09-1.53-0.72-10.7-8.92-16.33-9.5-47.9-0.01-0.97-1.41-1.45-2.81-1.44z"></path><path id="path13537" style="opacity:.7;fill:url(#linearGradient3351)" d="m127.16 171.53c-1.62 0.02-3.23 0.53-3.25 1.5-0.24 34.83-11 38.75-11 50.44v31.72c0 3.21 6.22 5.78 13.97 5.78h0.56c7.74 0 13.97-2.57 13.97-5.78v-31.72c0-12.39-10.3-15.61-11-50.44-0.02-1.02-1.63-1.51-3.25-1.5zm0 0.94c1.4-0.01 2.8 0.47 2.81 1.44 0.61 33.01 9.56 37.66 9.56 49.4v28.44c0 3.04-5.4 5.47-12.12 5.47h-0.5c-6.73 0-12.16-2.43-12.16-5.47v-28.44c0-11.07 9.36-16.4 9.56-49.4 0.02-0.92 1.44-1.43 2.85-1.44z"></path><path id="rect13555" sodipodi:nodetypes="cczcczc" style="stroke:#babdb6;stroke-width:.92251;fill:url(#linearGradient3353)" d="m113.14 222.29v26.61s1.02 5.87 14 5.68c13.21-0.19 14-5.48 14-5.48l0.03-26.81s-2.18 2.23-14.01 2.48c-11.84 0.24-14.02-2.48-14.02-2.48z"></path><path id="text14552" style="fill:url(#linearGradient3355)" transform="scale(.70809 1.4123)" d="m165.11 167.55c-0.14 0.28-0.38 0.54-0.72 0.77-0.35 0.23-0.8 0.34-1.35 0.34-0.83 0-1.44-0.21-1.85-0.65-0.4-0.44-0.6-1.02-0.6-1.74 0-0.55 0.15-1.03 0.46-1.46 0.3-0.44 0.66-0.78 1.08-1.01 0.42-0.24 0.79-0.36 1.12-0.36 0.06 0 0.19 0.04 0.39 0.11 0.21 0.07 0.35 0.11 0.41 0.11 0.09-0.03 0.18-0.07 0.27-0.1s0.14-0.05 0.16-0.06h0.21v0.31c-0.11 0.2-0.23 0.34-0.36 0.42-0.14 0.08-0.3 0.12-0.5 0.12-0.31 0-0.55-0.08-0.72-0.24-0.16-0.16-0.28-0.24-0.34-0.24-0.42 0-0.73 0.18-0.92 0.55-0.2 0.36-0.3 0.84-0.3 1.42 0 0.59 0.19 1.1 0.57 1.53 0.38 0.44 0.83 0.65 1.34 0.65 0.28 0 0.53-0.05 0.78-0.14 0.25-0.11 0.47-0.23 0.66-0.39h0.16l0.05 0.06m3.45-0.2c0 0.37-0.09 0.7-0.27 1.01s-0.56 0.6-1.15 0.88h-0.21c0.34-0.33 0.56-0.64 0.67-0.91 0.11-0.28 0.17-0.64 0.17-1.08 0-0.25-0.04-0.53-0.12-0.82s-0.21-0.44-0.4-0.44c-0.2 0.12-0.4 0.25-0.6 0.39s-0.3 0.25-0.3 0.35v1.36l0.06 0.27c0.02 0.09 0.04 0.17 0.05 0.23-0.07 0.02-0.17 0.03-0.3 0.04-0.12 0.01-0.24 0.02-0.37 0.02-0.18 0-0.3-0.01-0.37-0.04 0.09-0.46 0.14-0.76 0.17-0.91 0.02-0.15 0.03-0.27 0.03-0.35v-1.46c0-0.04-0.01-0.29-0.05-0.73-0.03-0.45-0.05-0.7-0.05-0.74 0-0.24 0.1-0.44 0.31-0.58 0.2-0.14 0.45-0.3 0.74-0.47h0.1c-0.08 0.22-0.16 0.43-0.24 0.64-0.05 0.31-0.08 0.81-0.08 1.51 0 0.07 0.01 0.13 0.01 0.2s0.01 0.15 0.02 0.22c0 0.07-0.01 0.14-0.03 0.21h0.11c0.21 0 0.38-0.08 0.5-0.24 0.11-0.15 0.21-0.23 0.29-0.23 0.35 0 0.65 0.15 0.92 0.45 0.26 0.3 0.39 0.71 0.39 1.22m3.61 1.3c-0.44-0.04-0.72-0.06-0.84-0.06-0.07 0-0.13 0.02-0.19 0.05-0.05 0.03-0.25 0.04-0.58 0.04-0.54 0-0.94-0.14-1.22-0.42-0.26-0.29-0.4-0.67-0.4-1.15 0-0.45 0.15-0.8 0.45-1.06 0.29-0.26 0.67-0.39 1.12-0.39h0.83l0.73 0.26c-0.04 0.13-0.08 0.26-0.11 0.38s-0.05 0.31-0.05 0.55c0 0.26 0.02 0.55 0.05 0.87 0.04 0.32 0.11 0.63 0.21 0.93m-1.04-1.37v-0.19c0-0.06 0.01-0.13 0.01-0.2 0-0.39-0.04-0.65-0.13-0.78-0.08-0.13-0.19-0.19-0.35-0.19-0.29 0-0.5 0.12-0.63 0.36-0.13 0.23-0.2 0.5-0.2 0.79 0 0.37 0.09 0.68 0.28 0.93 0.19 0.24 0.41 0.37 0.66 0.37 0.15 0 0.25-0.08 0.3-0.23 0.04-0.16 0.06-0.37 0.06-0.65v-0.21m6.43 1.39h-0.54c-0.25 0-0.44-0.05-0.54-0.15-0.11-0.1-0.17-0.33-0.17-0.68v-1.95h-0.44c-0.11 0.05-0.22 0.11-0.33 0.16-0.11 0.07-0.16 0.16-0.16 0.27v2.35h-0.76v-1.85c0-0.36-0.02-0.62-0.05-0.76-0.04-0.15-0.15-0.23-0.33-0.23-0.28 0-0.45 0.09-0.54 0.27-0.08 0.18-0.12 0.44-0.12 0.77 0 0.19 0.01 0.43 0.03 0.73 0.02 0.31 0.03 0.51 0.03 0.62 0 0.1-0.01 0.18-0.01 0.26-0.01 0.07-0.03 0.13-0.05 0.19h-0.29c-0.11 0.01-0.21 0.01-0.32 0.01h-0.14c-0.06 0-0.11 0-0.13-0.01 0.05-0.07 0.09-0.17 0.12-0.28 0.04-0.11 0.05-0.22 0.05-0.32v-1.48c0-0.18-0.05-0.35-0.15-0.51s-0.16-0.26-0.18-0.3l0.93-0.18c0.08 0 0.14 0.01 0.16 0.05 0.03 0.06 0.06 0.12 0.08 0.18 0.04 0 0.18-0.05 0.41-0.14 0.23-0.1 0.45-0.14 0.66-0.14h0.08c0.13 0 0.25 0.02 0.35 0.06s0.17 0.13 0.22 0.28c0.18-0.09 0.38-0.17 0.58-0.26s0.45-0.13 0.74-0.13c0.14 0 0.26 0.02 0.35 0.05 0.1 0.03 0.14 0.11 0.14 0.23v1.15c0 0.8 0.04 1.25 0.12 1.35 0.09 0.1 0.15 0.23 0.2 0.39m3.6-1.61c0 0.31-0.14 0.66-0.4 1.06-0.26 0.39-0.57 0.58-0.91 0.58-0.05 0-0.18-0.03-0.37-0.09-0.19-0.07-0.37-0.17-0.54-0.3-0.02 0.13-0.02 0.23-0.03 0.31v0.28 0.25 0.26c0 0.06-0.1 0.2-0.29 0.42-0.2 0.22-0.43 0.39-0.69 0.51 0.01-0.06 0.04-0.18 0.09-0.34 0.06-0.16 0.08-0.26 0.08-0.31v-3.07c0-0.15-0.03-0.33-0.1-0.52-0.07-0.21-0.13-0.38-0.18-0.52 0.13-0.03 0.22-0.05 0.28-0.05 0.04 0 0.08 0.01 0.13 0.03 0.06 0.01 0.1 0.02 0.14 0.02h0.28 0.31c0.42 0 0.79 0.03 1.1 0.09 0.3 0.06 0.56 0.2 0.77 0.42 0.22 0.22 0.33 0.54 0.33 0.97m-0.93-0.05c0-0.32-0.07-0.6-0.22-0.82-0.14-0.21-0.36-0.32-0.66-0.32-0.19 0-0.31 0.04-0.36 0.13s-0.08 0.25-0.08 0.48v0.24c0 0.66 0.03 1.08 0.08 1.27 0.04 0.18 0.17 0.27 0.36 0.27 0.33 0 0.56-0.13 0.68-0.39 0.13-0.26 0.2-0.55 0.2-0.86m4.51 1.64c-0.44-0.04-0.72-0.06-0.84-0.06-0.07 0-0.14 0.02-0.19 0.05s-0.25 0.04-0.58 0.04c-0.54 0-0.95-0.14-1.22-0.42-0.27-0.29-0.4-0.67-0.4-1.15 0-0.45 0.15-0.8 0.44-1.06 0.3-0.26 0.67-0.39 1.13-0.39h0.83l0.73 0.26c-0.04 0.13-0.08 0.26-0.11 0.38s-0.05 0.31-0.05 0.55c0 0.26 0.02 0.55 0.05 0.87 0.04 0.32 0.11 0.63 0.21 0.93m-1.04-1.37v-0.19c0-0.06 0-0.13 0.01-0.2 0-0.39-0.04-0.65-0.13-0.78-0.08-0.13-0.2-0.19-0.35-0.19-0.29 0-0.5 0.12-0.63 0.36-0.14 0.23-0.2 0.5-0.2 0.79 0 0.37 0.09 0.68 0.28 0.93 0.19 0.24 0.41 0.37 0.66 0.37 0.15 0 0.25-0.08 0.29-0.23 0.05-0.16 0.07-0.37 0.07-0.65v-0.21m4.44-1.35c-0.05 0.09-0.09 0.17-0.12 0.24s-0.04 0.13-0.04 0.18v2.46c0 0.31-0.16 0.57-0.49 0.78-0.32 0.21-0.65 0.36-0.99 0.46-0.33 0.1-0.61 0.17-0.83 0.23h-0.84v-0.11c0.19-0.15 0.29-0.25 0.31-0.32 0.01-0.06 0.02-0.11 0.03-0.15 0.11 0.06 0.23 0.12 0.35 0.18 0.13 0.05 0.27 0.08 0.42 0.08 0.39 0 0.68-0.08 0.84-0.26 0.17-0.17 0.32-0.43 0.46-0.79v-0.41l-0.05-0.06c-0.08 0.04-0.23 0.09-0.44 0.14-0.22 0.05-0.38 0.07-0.5 0.07-0.25 0-0.52-0.11-0.79-0.35-0.28-0.23-0.42-0.57-0.42-1.01 0-0.34 0.1-0.64 0.29-0.88 0.19-0.25 0.41-0.43 0.65-0.55 0.25-0.13 0.44-0.19 0.58-0.19 0.07 0.02 0.15 0.05 0.25 0.07 0.11 0.02 0.25 0.03 0.45 0.03 0.13 0 0.26-0.01 0.4-0.02s0.29-0.04 0.48-0.08v0.26m-0.9 1.94v-1.63c0-0.09-0.04-0.14-0.13-0.17-0.09-0.02-0.2-0.04-0.34-0.04-0.29 0-0.52 0.08-0.69 0.23-0.17 0.14-0.25 0.4-0.25 0.76 0 0.4 0.1 0.7 0.32 0.9 0.21 0.21 0.42 0.31 0.62 0.31 0.15 0 0.26-0.02 0.35-0.07 0.08-0.04 0.12-0.14 0.12-0.29m4.75 0.85h-0.82c-0.2-0.09-0.33-0.22-0.39-0.4-0.06-0.17-0.09-0.41-0.09-0.7v-1.31c0-0.18-0.05-0.29-0.14-0.35s-0.21-0.08-0.36-0.08c-0.3 0-0.5 0.05-0.59 0.16-0.1 0.11-0.15 0.29-0.15 0.55 0 0.15 0.01 0.28 0.01 0.39s0.01 0.21 0.01 0.3c0 0.33 0.01 0.59 0.02 0.79s0.05 0.4 0.11 0.59l-0.99 0.01c0.06-0.07 0.1-0.17 0.13-0.28s0.05-0.22 0.05-0.32v-1.48c0-0.18-0.05-0.35-0.16-0.51-0.1-0.16-0.15-0.26-0.17-0.3l0.69-0.19c0.13 0 0.21 0.03 0.25 0.1 0.04 0.06 0.08 0.13 0.12 0.19 0.21-0.12 0.41-0.2 0.6-0.25 0.19-0.06 0.35-0.09 0.5-0.09 0.06 0 0.19 0.02 0.4 0.06 0.2 0.04 0.36 0.09 0.48 0.17-0.07 0.23-0.1 0.51-0.1 0.84 0 0.42 0.03 0.76 0.1 1.03 0.07 0.26 0.16 0.48 0.27 0.67 0.12 0.19 0.19 0.32 0.22 0.41m3.03-0.7c-0.06 0.16-0.19 0.3-0.37 0.43s-0.44 0.19-0.78 0.19c-0.48 0-0.87-0.13-1.17-0.4-0.3-0.28-0.45-0.63-0.45-1.06 0-0.34 0.13-0.67 0.39-0.99 0.27-0.32 0.64-0.48 1.13-0.48 0.34 0 0.58 0.05 0.73 0.15 0.14 0.1 0.32 0.33 0.52 0.68v0.37c-0.09 0.02-0.18 0.04-0.27 0.05-0.08 0.01-0.14 0.02-0.2 0.02s-0.17-0.01-0.34-0.03c-0.17-0.03-0.3-0.04-0.39-0.04-0.25 0-0.43 0.06-0.55 0.17-0.13 0.1-0.19 0.24-0.19 0.41 0 0.21 0.1 0.4 0.3 0.55 0.2 0.16 0.45 0.23 0.75 0.23 0.14 0 0.28-0.02 0.41-0.07 0.14-0.04 0.27-0.1 0.38-0.18h0.1m-0.89-1.37v-0.31c-0.07-0.11-0.14-0.19-0.19-0.24-0.04-0.05-0.16-0.08-0.33-0.08-0.12 0-0.24 0.11-0.37 0.33-0.05 0.12-0.11 0.24-0.16 0.35v0.21c0.16-0.1 0.31-0.17 0.45-0.2 0.14-0.04 0.27-0.06 0.4-0.06h0.2m3.87-0.71c0 0.15-0.02 0.26-0.07 0.32-0.06 0.06-0.21 0.17-0.46 0.33h-0.17c0.05-0.05 0.1-0.1 0.15-0.16 0.04-0.05 0.07-0.11 0.07-0.17s-0.04-0.12-0.12-0.18c-0.07-0.06-0.14-0.09-0.2-0.09-0.25 0-0.44 0.16-0.57 0.49-0.12 0.32-0.19 0.72-0.19 1.18 0.03 0.12 0.07 0.26 0.12 0.41 0.06 0.16 0.16 0.33 0.31 0.52v0.11h-0.27c-0.06-0.02-0.12-0.03-0.17-0.04-0.06-0.01-0.12-0.02-0.18-0.02-0.03 0-0.07 0-0.12 0.01h-0.1c-0.11 0-0.18-0.03-0.23-0.1-0.04-0.07-0.06-0.22-0.06-0.46v-1.93c0-0.12-0.03-0.23-0.1-0.34-0.09-0.13-0.17-0.23-0.22-0.31h0.97c0.11 0.08 0.17 0.13 0.19 0.16 0.02 0.02 0.05 0.09 0.1 0.22 0.01-0.01 0.11-0.07 0.3-0.19 0.19-0.13 0.35-0.19 0.49-0.19 0.21 0 0.35 0.04 0.42 0.1 0.08 0.07 0.11 0.18 0.11 0.33"></path><path id="path24362" style="fill-rule:evenodd;fill:url(#radialGradient3357)" d="m150.18 252.42c-2.34 0.24-0.98 7.16 1.24 6.17l4.32-1.36s1.11 1.36 2.35 1.24c1.23-0.12 3.33-2.22 2.96-4.82-0.37-2.59-2.22-4.2-3.58-4.57-2.3-0.42-2.58 0.59-3.09 2.47l-4.2 0.87z"></path><path id="path26326" style="opacity:.2;fill:url(#linearGradient3359)" d="m157.47 251.74c0 0.24-0.28 0.43-0.62 0.43s-0.61-0.19-0.61-0.43 0.27-0.43 0.61-0.43 0.62 0.19 0.62 0.43z"></path><path id="path26328" style="opacity:.2;fill:url(#linearGradient3361)" d="m159.32 253.78c0 0.2-0.14 0.37-0.31 0.37s-0.3-0.17-0.3-0.37c0-0.21 0.13-0.37 0.3-0.37s0.31 0.16 0.31 0.37z"></path><path id="path26330" style="opacity:.2;fill:url(#linearGradient3363)" d="m157.59 255.01c0 0.41-0.27 0.74-0.61 0.74s-0.62-0.33-0.62-0.74 0.28-0.74 0.62-0.74 0.61 0.33 0.61 0.74z"></path><path id="path26332" style="opacity:.2;fill:url(#linearGradient3365)" d="m159.94 255.94c0 0.3-0.19 0.55-0.43 0.55s-0.43-0.25-0.43-0.55c0-0.31 0.19-0.56 0.43-0.56s0.43 0.25 0.43 0.56z"></path><path id="path26334" style="opacity:.2;fill:url(#linearGradient3367)" d="m155.37 253.28c0 0.14-0.11 0.25-0.25 0.25-0.13 0-0.24-0.11-0.24-0.25 0-0.13 0.11-0.25 0.24-0.25 0.14 0 0.25 0.12 0.25 0.25z"></path><path id="path26336" style="opacity:.2;fill:url(#linearGradient3369)" d="m153.76 253.47c0 0.24-0.22 0.43-0.49 0.43s-0.49-0.19-0.49-0.43 0.22-0.44 0.49-0.44 0.49 0.2 0.49 0.44z"></path><path id="path26338" style="opacity:.2;fill:url(#linearGradient3371)" d="m155.25 256c0 0.2-0.22 0.37-0.5 0.37-0.27 0-0.49-0.17-0.49-0.37 0-0.21 0.22-0.37 0.49-0.37 0.28 0 0.5 0.16 0.5 0.37z"></path><path id="path26340" style="opacity:.2;fill:url(#linearGradient3373)" d="m152.16 255.81c0 0.24-0.25 0.44-0.56 0.44-0.3 0-0.55-0.2-0.55-0.44s0.25-0.43 0.55-0.43c0.31 0 0.56 0.19 0.56 0.43z"></path><path id="path26342" style="opacity:.2;fill:url(#linearGradient3375)" d="m151.91 254.15c0 0.27-0.36 0.49-0.8 0.49s-0.8-0.22-0.8-0.49c0-0.28 0.36-0.5 0.8-0.5s0.8 0.22 0.8 0.5z"></path><path id="path26344" style="opacity:.2;fill:url(#linearGradient3377)" d="m154.01 255.32c0 0.1-0.19 0.18-0.43 0.18s-0.43-0.08-0.43-0.18 0.19-0.19 0.43-0.19 0.43 0.09 0.43 0.19z"></path><path id="path26346" style="opacity:.2;fill:url(#linearGradient3379)" d="m153.15 257.17c0 0.17-0.22 0.31-0.5 0.31-0.27 0-0.49-0.14-0.49-0.31s0.22-0.31 0.49-0.31c0.28 0 0.5 0.14 0.5 0.31z"></path><path id="path26348" style="opacity:.2;fill:url(#linearGradient3381)" d="m158.58 250.56c0 0.14-0.11 0.25-0.25 0.25-0.13 0-0.24-0.11-0.24-0.25 0-0.13 0.11-0.24 0.24-0.24 0.14 0 0.25 0.11 0.25 0.24z"></path><path id="path26350" style="opacity:.2;fill:url(#linearGradient3383)" d="m158.58 252.17c0 0.14-0.11 0.25-0.25 0.25-0.13 0-0.24-0.11-0.24-0.25s0.11-0.25 0.24-0.25c0.14 0 0.25 0.11 0.25 0.25z"></path><path id="path26352" style="opacity:.2;fill:url(#linearGradient3385)" d="m157.1 249.95c0 0.27-0.22 0.49-0.49 0.49-0.28 0-0.5-0.22-0.5-0.49 0-0.28 0.22-0.5 0.5-0.5 0.27 0 0.49 0.22 0.49 0.5z"></path><path id="path26354" style="opacity:.2;fill:url(#linearGradient3387)" d="m158.46 257.23c0 0.34-0.22 0.62-0.5 0.62-0.27 0-0.49-0.28-0.49-0.62s0.22-0.61 0.49-0.61c0.28 0 0.5 0.27 0.5 0.61z"></path><path id="path31273" sodipodi:nodetypes="cscssssscsscsszsscc" style="fill-rule:evenodd;fill:url(#linearGradient3389)" d="m124.22 174.6c-0.16 0.05-0.28 0.17-0.33 0.32-0.05 0.16-0.02 0.77 0.08 0.9 0 0 0.07 0.11 0.19 0.22s0.31 0.25 0.56 0.37c0.5 0.26 1.29 0.49 2.47 0.5 1.2 0.01 1.97-0.23 2.47-0.5 0.25-0.13 0.44-0.26 0.56-0.37 0.12-0.12 0.19-0.25 0.19-0.25 0.13-0.15 0.16-0.81 0.08-0.99-0.09-0.18-0.28-0.3-0.48-0.29-0.2 0.02-0.38 0.15-0.45 0.34l-0.03 0.03c-0.05 0.05-0.18 0.13-0.34 0.22-0.33 0.17-0.94 0.38-2 0.37-1.07-0.01-1.69-0.23-2.03-0.4-0.17-0.09-0.26-0.17-0.32-0.22l-0.03-0.03c-0.12-0.21-0.37-0.3-0.59-0.22z"></path><path id="path31269" sodipodi:nodetypes="cscssssscsscsszsscc" style="fill-rule:evenodd;fill:url(#linearGradient3391)" d="m124.22 173.58c-0.16 0.04-0.28 0.17-0.33 0.32-0.05 0.16-0.02 0.77 0.08 0.9 0 0 0.07 0.11 0.19 0.22s0.31 0.24 0.56 0.37c0.5 0.26 1.29 0.49 2.47 0.5 1.2 0.01 1.97-0.23 2.47-0.5 0.25-0.13 0.44-0.26 0.56-0.37 0.12-0.12 0.19-0.25 0.19-0.25 0.13-0.15 0.16-0.81 0.08-0.99-0.09-0.19-0.28-0.3-0.48-0.29s-0.38 0.14-0.45 0.34l-0.03 0.03c-0.05 0.05-0.18 0.13-0.34 0.22-0.33 0.17-0.94 0.38-2 0.37-1.07-0.01-1.69-0.23-2.03-0.41-0.17-0.08-0.26-0.16-0.32-0.21-0.05-0.06-0.03-0.04-0.03-0.04-0.12-0.2-0.37-0.29-0.59-0.21z"></path><path id="path28348" sodipodi:nodetypes="cscssssscsscsszsscc" style="fill-rule:evenodd;fill:url(#linearGradient3393)" d="m124.22 172.65c-0.16 0.05-0.28 0.17-0.33 0.32-0.05 0.16-0.02 0.77 0.08 0.9 0 0 0.07 0.11 0.19 0.22s0.31 0.25 0.56 0.37c0.5 0.26 1.29 0.49 2.47 0.5 1.2 0.01 1.97-0.23 2.47-0.5 0.25-0.13 0.44-0.26 0.56-0.37 0.12-0.12 0.19-0.25 0.19-0.25 0.13-0.15 0.16-0.81 0.08-0.99-0.09-0.18-0.28-0.3-0.48-0.29-0.2 0.02-0.38 0.15-0.45 0.34l-0.03 0.03c-0.05 0.05-0.18 0.13-0.34 0.22-0.33 0.17-0.94 0.38-2 0.37-1.07-0.01-1.69-0.23-2.03-0.4-0.17-0.09-0.26-0.17-0.32-0.22l-0.03-0.03c-0.12-0.21-0.37-0.3-0.59-0.22z"></path><path id="path19485" style="opacity:.4;fill:url(#linearGradient3395)" d="m124.22 172.38c-0.2 0.19-0.31 0.4-0.31 0.65-0.24 34.83-11 38.75-11 50.44v31.72c0 3.21 6.22 5.78 13.97 5.78h0.56 0.65c-6.49-0.15-11.62-2.67-11.62-5.78v-31.72c0-11.64 9.34-15.59 9.62-49.97-0.8-0.2-1.44-0.61-1.87-1.12z"></path><path id="path47987" sodipodi:nodetypes="cc" style="opacity:.8;stroke-linejoin:round;stroke:url(#linearGradient3397);stroke-linecap:round;stroke-width:.57657;fill:none" d="m124.26 172.87c1.28 1.44 4.8 1.21 5.79 0.09"></path><path id="path48970" sodipodi:nodetypes="cc" style="opacity:.8;stroke-linejoin:round;stroke:url(#linearGradient3399);stroke-linecap:round;stroke-width:.57657;fill:none" d="m124.26 174.09c1.28 1.45 4.8 1.22 5.79 0.1"></path><path id="path48974" sodipodi:nodetypes="cc" style="opacity:.8;stroke-linejoin:round;stroke:url(#linearGradient3401);stroke-linecap:round;stroke-width:.57657;fill:none" d="m124.26 175.15c1.28 1.44 4.8 1.21 5.79 0.09"></path><path id="path47985" sodipodi:rx="7.6586986" sodipodi:ry="3.0424967" style="stroke-linejoin:round;stroke:#fff8ab;stroke-linecap:round;stroke-width:1.3659;fill:none" sodipodi:type="arc" d="m190.73 224.67a7.6587 3.0425 0 1 1 -15.31 0 7.6587 3.0425 0 1 1 15.31 0z" transform="matrix(.45246 0 0 .39380 126.12 123.72)" sodipodi:cy="224.66685" sodipodi:cx="183.07437"></path><path id="path47981" sodipodi:rx="7.6586986" sodipodi:ry="3.0424967" style="stroke-linejoin:round;stroke:#fff8ab;stroke-linecap:round;stroke-width:1.0485;fill:none" sodipodi:type="arc" d="m190.73 224.67a7.6587 3.0425 0 1 1 -15.31 0 7.6587 3.0425 0 1 1 15.31 0z" transform="matrix(.58129 0 0 .52021 76.864 106.95)" sodipodi:cy="224.66685" sodipodi:cx="183.07437"></path><path id="path36165" sodipodi:rx="10.128375" sodipodi:ry="4.7100487" style="fill:url(#radialGradient3403)" sodipodi:type="arc" d="m193.57 259.74a10.128 4.71 0 1 1 -20.25 0 10.128 4.71 0 1 1 20.25 0z" transform="matrix(1.3262 0 0 1.1805 -56.114 -43.958)" sodipodi:cy="259.73859" sodipodi:cx="183.444"></path><path id="path32255" style="stroke-linejoin:round;stroke:url(#linearGradient3407);stroke-linecap:round;stroke-width:.67739;fill:url(#radialGradient3405)" transform="matrix(.89312 0 0 .81118 19.677 50.997)" d="m193.57 259.74c0 2.6-4.54 4.71-10.13 4.71s-10.12-2.11-10.12-4.71 4.53-4.71 10.12-4.71 10.13 2.11 10.13 4.71z"></path><path id="rect32252" sodipodi:nodetypes="czccczccc" style="opacity:.3;fill:#ffffff" d="m174.8 212.89s0.06-2.62 8.61-2.55 8.6 2.55 8.6 2.55c0 30.74-7 32.86-7 32.86l0.02 15.58s-0.22 0.5-1.58 0.5c-1.35 0-1.57-0.5-1.57-0.5l-0.08-15.58s-6.93-1.98-7-32.86z"></path><path id="path32257" sodipodi:nodetypes="czcczcc" style="opacity:.8;fill:#f7ea82" d="m175.64 222.4s0.83-1.83 7.77-1.78 7.55 1.78 7.55 1.78c0 13.57-4.08 22.91-6.25 23.02 0 0-0.65 0.54-1.3 0.54s-1.3-0.54-1.3-0.54c-2.17-0.11-6.47-9.21-6.47-23.02z"></path><path id="path33228" sodipodi:nodetypes="czccczccc" style="stroke-linejoin:round;stroke:url(#linearGradient3409);stroke-linecap:round;stroke-width:.57657;fill:none" d="m174.8 212.89s0.06-2.62 8.61-2.55 8.6 2.55 8.6 2.55c0 30.74-7 32.86-7 32.86l0.02 15.58s-0.22 0.5-1.58 0.5c-1.35 0-1.57-0.5-1.57-0.5l-0.08-15.58s-6.93-1.98-7-32.86z"></path><path id="path39088" style="opacity:.5;stroke-linejoin:round;stroke:url(#linearGradient3411);stroke-linecap:round;stroke-width:.57657;fill:none" d="m191.56 212.97c0 1.5-3.75 2.72-8.37 2.72s-8.37-1.22-8.37-2.72 3.75-2.71 8.37-2.71 8.37 1.21 8.37 2.71z"></path><path id="path34209" style="fill:url(#linearGradient3413)" d="m175.25 213.72c0.2 30.03 7 32.03 7 32.03l0.06 15.91s0.35 0.17 0.97 0.22l-0.06-16.13s-6.68-1.99-6.97-31.41c-0.41-0.2-0.76-0.39-1-0.62z"></path><g id="g47875" transform="matrix(.66846 0 0 .66846 88.079 93.902)"><path id="path44944" style="opacity:.5;fill:url(#radialGradient3415)" d="m144.57 209.35c0 1.33-1.08 2.41-2.41 2.41s-2.41-1.08-2.41-2.41 1.08-2.41 2.41-2.41 2.41 1.08 2.41 2.41z"></path><path id="path45924" style="fill:url(#radialGradient3417)" d="m142.5 207.51c0.14 0.41-0.26 0.95-0.89 1.23-0.64 0.27-1.27 0.16-1.41-0.24s0.26-0.95 0.9-1.22c0.63-0.27 1.26-0.17 1.4 0.23z"></path></g><g id="g47883" transform="matrix(.46924 0 0 .46924 114.57 139.17)"><path id="path47885" style="opacity:.5;fill:url(#radialGradient3415)" d="m144.57 209.35c0 1.33-1.08 2.41-2.41 2.41s-2.41-1.08-2.41-2.41 1.08-2.41 2.41-2.41 2.41 1.08 2.41 2.41z"></path><path id="path47887" style="fill:url(#radialGradient3417)" d="m142.5 207.51c0.14 0.41-0.26 0.95-0.89 1.23-0.64 0.27-1.27 0.16-1.41-0.24s0.26-0.95 0.9-1.22c0.63-0.27 1.26-0.17 1.4 0.23z"></path></g><g id="g47893" transform="matrix(.46924 0 0 .46924 116.02 144.94)"><path id="path47895" style="opacity:.5;fill:url(#radialGradient3415)" d="m144.57 209.35c0 1.33-1.08 2.41-2.41 2.41s-2.41-1.08-2.41-2.41 1.08-2.41 2.41-2.41 2.41 1.08 2.41 2.41z"></path><path id="path47897" style="fill:url(#radialGradient3417)" d="m142.5 207.51c0.14 0.41-0.26 0.95-0.89 1.23-0.64 0.27-1.27 0.16-1.41-0.24s0.26-0.95 0.9-1.22c0.63-0.27 1.26-0.17 1.4 0.23z"></path></g><g id="g47903" transform="matrix(.46924 0 0 .46924 116.88 130.9)"><path id="path47905" style="opacity:.5;fill:url(#radialGradient3415)" d="m144.57 209.35c0 1.33-1.08 2.41-2.41 2.41s-2.41-1.08-2.41-2.41 1.08-2.41 2.41-2.41 2.41 1.08 2.41 2.41z"></path><path id="path47907" style="fill:url(#radialGradient3417)" d="m142.5 207.51c0.14 0.41-0.26 0.95-0.89 1.23-0.64 0.27-1.27 0.16-1.41-0.24s0.26-0.95 0.9-1.22c0.63-0.27 1.26-0.17 1.4 0.23z"></path></g><path id="path47913" sodipodi:rx="10.128375" sodipodi:ry="4.7100487" style="fill:url(#radialGradient3403)" sodipodi:type="arc" d="m193.57 259.74a10.128 4.71 0 1 1 -20.25 0 10.128 4.71 0 1 1 20.25 0z" transform="matrix(1.3262 0 0 1.1805 -30.443 -55.592)" sodipodi:cy="259.73859" sodipodi:cx="183.444"></path><path id="path47915" style="stroke-linejoin:round;stroke:url(#linearGradient3435);stroke-linecap:round;stroke-width:.57657;fill:url(#radialGradient3433)" d="m218.23 250.06c0 2.11-4.05 3.82-9.04 3.82-5 0-9.05-1.71-9.05-3.82s4.05-3.82 9.05-3.82c4.99 0 9.04 1.71 9.04 3.82z"></path><path id="path47917" sodipodi:nodetypes="czccczccc" style="opacity:.3;fill:#ffffff" d="m200.47 201.25s0.06-2.62 8.61-2.55 8.61 2.55 8.61 2.55c0 30.74-7 32.87-7 32.87l0.01 15.58s-0.22 0.49-1.58 0.49c-1.35 0-1.57-0.49-1.57-0.49l-0.08-15.58s-6.92-1.99-7-32.87z"></path><path id="path47919" sodipodi:nodetypes="czcczcc" style="opacity:.8;fill:#f7eb85" d="m201.32 210.76s0.82-1.82 7.76-1.77 7.55 1.77 7.55 1.77c0 13.58-4.08 22.92-6.25 23.03 0 0-0.65 0.54-1.3 0.54s-1.3-0.54-1.3-0.54c-2.17-0.11-6.46-9.22-6.46-23.03z"></path><path id="path47921" sodipodi:nodetypes="czccczccc" style="stroke-linejoin:round;stroke:url(#linearGradient3437);stroke-linecap:round;stroke-width:.57657;fill:none" d="m200.47 201.25s0.06-2.62 8.61-2.55 8.61 2.55 8.61 2.55c0 30.74-7 32.87-7 32.87l0.01 15.58s-0.22 0.49-1.58 0.49c-1.35 0-1.57-0.49-1.57-0.49l-0.08-15.58s-6.92-1.99-7-32.87z"></path><path id="path47923" style="opacity:.5;stroke-linejoin:round;stroke:url(#linearGradient3439);stroke-linecap:round;stroke-width:.57657;fill:none" d="m217.23 201.34c0 1.5-3.75 2.71-8.37 2.71s-8.37-1.21-8.37-2.71 3.75-2.72 8.37-2.72 8.37 1.22 8.37 2.72z"></path><path id="path47925" sodipodi:rx="7.6586986" sodipodi:ry="3.0424967" style="stroke-linejoin:round;stroke:#fff8ab;stroke-linecap:round;stroke-width:.59754;fill:none" sodipodi:type="arc" d="m190.73 224.67a7.6587 3.0425 0 1 1 -15.31 0 7.6587 3.0425 0 1 1 15.31 0z" transform="matrix(1 0 0 .93103 25.882 3.021)" sodipodi:cy="224.66685" sodipodi:cx="183.07437"></path><path id="path47927" style="fill:url(#linearGradient3441)" d="m200.92 202.08c0.2 30.04 7 32.04 7 32.04l0.06 15.9s0.35 0.18 0.97 0.22l-0.06-16.12s-6.68-1.99-6.97-31.41c-0.41-0.2-0.76-0.39-1-0.63z"></path><g id="g47929" transform="matrix(.66846 0 0 .66846 113.75 82.268)"><path id="path47931" style="opacity:.5;fill:url(#radialGradient3415)" d="m144.57 209.35c0 1.33-1.08 2.41-2.41 2.41s-2.41-1.08-2.41-2.41 1.08-2.41 2.41-2.41 2.41 1.08 2.41 2.41z"></path><path id="path47933" style="fill:url(#radialGradient3417)" d="m142.5 207.51c0.14 0.41-0.26 0.95-0.89 1.23-0.64 0.27-1.27 0.16-1.41-0.24s0.26-0.95 0.9-1.22c0.63-0.27 1.26-0.17 1.4 0.23z"></path></g><g id="g47935" transform="matrix(.46924 0 0 .46924 140.25 127.53)"><path id="path47937" style="opacity:.5;fill:url(#radialGradient3415)" d="m144.57 209.35c0 1.33-1.08 2.41-2.41 2.41s-2.41-1.08-2.41-2.41 1.08-2.41 2.41-2.41 2.41 1.08 2.41 2.41z"></path><path id="path47939" style="fill:url(#radialGradient3417)" d="m142.5 207.51c0.14 0.41-0.26 0.95-0.89 1.23-0.64 0.27-1.27 0.16-1.41-0.24s0.26-0.95 0.9-1.22c0.63-0.27 1.26-0.17 1.4 0.23z"></path></g><g id="g47941" transform="matrix(.46924 0 0 .46924 141.69 133.3)"><path id="path47943" style="opacity:.5;fill:url(#radialGradient3415)" d="m144.57 209.35c0 1.33-1.08 2.41-2.41 2.41s-2.41-1.08-2.41-2.41 1.08-2.41 2.41-2.41 2.41 1.08 2.41 2.41z"></path><path id="path47945" style="fill:url(#radialGradient3417)" d="m142.5 207.51c0.14 0.41-0.26 0.95-0.89 1.23-0.64 0.27-1.27 0.16-1.41-0.24s0.26-0.95 0.9-1.22c0.63-0.27 1.26-0.17 1.4 0.23z"></path></g><g id="g47947" transform="matrix(.46924 0 0 .46924 142.55 119.27)"><path id="path47949" style="opacity:.5;fill:url(#radialGradient3415)" d="m144.57 209.35c0 1.33-1.08 2.41-2.41 2.41s-2.41-1.08-2.41-2.41 1.08-2.41 2.41-2.41 2.41 1.08 2.41 2.41z"></path><path id="path47951" style="fill:url(#radialGradient3417)" d="m142.5 207.51c0.14 0.41-0.26 0.95-0.89 1.23-0.64 0.27-1.27 0.16-1.41-0.24s0.26-0.95 0.9-1.22c0.63-0.27 1.26-0.17 1.4 0.23z"></path></g><path id="path41039" sodipodi:rx="7.6586986" sodipodi:ry="3.0424967" style="stroke-linejoin:round;stroke:#fff8ab;stroke-linecap:round;stroke-width:.59754;fill:none" sodipodi:type="arc" d="m190.73 224.67a7.6587 3.0425 0 1 1 -15.31 0 7.6587 3.0425 0 1 1 15.31 0z" transform="matrix(1 0 0 .93103 .20983 14.655)" sodipodi:cy="224.66685" sodipodi:cx="183.07437"></path><path id="path53996" sodipodi:nodetypes="ccccccccscccccccccccccccccccccccccccccccccccccccccccsccccccccccccccccccccssccccccccccccsssccccscccscccccccccccccccccccccccccccccccccccccscccccsccccccccccsccccscccccccccccccccccccccccccsccccc" style="opacity:.3;fill:url(#radialGradient3459)" d="m92.803 249.29c-3.871-0.42-9.953-4.9-13.791-4.69-1.588-0.2-4.014 0.09-5.844 0.75 0.252-0.48 0.264-1.01-0.103-1.65-0.945-0.35-1.917-0.56-2.898-0.65 2.765 2.74-3.389 8.68-4.898 10.88-0.679 0.98-0.733 1.92-0.378 2.81-5.159-1.02-6.425 1-4.28 2.62-0.383 0-0.793-0.02-1.242-0.07 0.452 0.06 0.911 0.13 1.364 0.19 0.383 0.27 0.857 0.53 1.429 0.76 2.181 1.3 6.752 1.99 9.681 1.62 0.221 0.1 0.478 0.19 0.846 0.28 2.335 0.9 5.147 1.18 7.844 1.15 1.674 0.5 3.269 1.14 4.632 1.96 0.176 2.26 0.508 4.49 4.39 4.49 1.047 0.27 1.792 0.27 2.13 0.02 4.08-0.27 4.072-4.04 0.694-5.95 0.914 0.04 1.668 0.13 2.336 0.27 0.246 2.08 2.473 3.92 5.945 3.65 0.17 0.11 0.38 0.22 0.57 0.32 0.6 0.18 1.19 0.33 1.81 0.46-2.68 1.7-4.355 4.43 0.01 5.94 1.24 0.45 2.54 0.73 3.82 0.88 0.24 0.1 0.49 0.2 0.74 0.29 1.44 1.81 3.53 3.5 6.42 3.17 2.47-1.23-0.6-1.88-3.05-2.74-0.11-0.21-0.21-0.42-0.33-0.65 3.21 0.1 6.45-0.06 9.59-0.41 1.46 1.8 6.77 1.63 9.51 1.94 1.11 0.65 2.31 1.15 3.57 1.54 0.09 0.13 0.2 0.25 0.29 0.38 4.09 3.47 10.61 3.44 16.03 3.13 0.69-0.78-5.29-0.08-6.96-0.14-2.43-0.27-4.16-1.28-5.64-2.55 2.37 0.34 4.79 0.4 7.11 0.26 1.49-0.13 9.08-0.54 4.87-1.06-4.21-0.28-8.35 1.57-12.43 0.38-1.75-1.62-3.19-3.54-5.16-4.9-2.88-0.33-5.77-0.31-8.61-0.11-1.45-2.12-4.9-2.79-7.64-1.18-1.41 0.64-3.14 1.5-4.94 1.96-0.39-0.64-0.86-1.24-1.49-1.69-0.07-1.34-0.48-2.81-1.41-3.91 2.44 0.13 4.89 0.05 7.14-0.01 3.43 0.12 0.72-0.37-1.17-0.43-1.65 0.05-4.05 0.19-6.23 0.06 2.03-0.92 4.25-1.85 4.61-3.63 1.91-4.71-7.13-5.06-9.64-2.01-1.27 0.7-2.598 0.74-3.911 0.45 0.331-1.51 1.346-3.04 2.661-3.75 2.77-3.8-3.442-6.45-8.069-5.97h0.236c5.69-0.16 6.369 4.53 3.423 6.87-0.675 0.51-1.155 1.09-1.426 1.7-0.315-0.13-0.654-0.25-0.968-0.38 0.036 0.11 0.046 0.23-0.017 0.41 0.204 0.25 0.455 0.49 0.76 0.7-0.062 0.31-0.072 0.62-0.045 0.92-0.549-0.09-1.139-0.18-1.625-0.27-0.373-0.12-0.8-0.25-1.24-0.37-0.529-0.54-1.132-1.12-1.751-1.73 1.012 0.04 2.104-0.1 2.887-0.08-0.657-0.26-1.3-0.49-1.953-0.63-3.219-3.05 8.727-2.85 4.829-6.57-2.484-0.42-4.968-0.57-7.466-0.64 0.801-0.49 2.104-0.04 3.784 0.05-1.644-0.39-3.512-0.42-5.066-0.09-1.171-0.02-2.34-0.04-3.511-0.06 0.51-1.59-3.878-7.32-6.463-7.89 5.422-1.24 13.8 3.45 19.551 4.07-1.282-0.18-2.576-0.33-3.867-0.47zm-0.644 4.44c0.074 0.01 0.156 0.03 0.23 0.05 0.112-0.02 0.228-0.02 0.342-0.03-0.197 0-0.385-0.01-0.572-0.02zm0.806 7.79c0.345 0.13 0.685 0.27 1.031 0.42-0.092-0.29-0.48-0.41-1.031-0.42zm-22.798-18.47c-0.134-0.13-0.271-0.26-0.459-0.4-0.062 0.14-0.146 0.25-0.247 0.36 0.233 0.01 0.474 0.02 0.706 0.04zm-0.706-0.04c-3.326-0.12-4.463 5.25-6.979 6.6-3.28 1.94-6.395 4.09-8.13 6.99 0.021 0.95-2.41 1.73-3.428 2.02-1.076-0.16-1.635-0.22-1.8-0.22 0.111 0.05 0.784 0.18 1.625 0.27 0.022 0 0.035 0.02 0.067 0.01 0.808 0.08 1.73 0.12 2.399 0.02 5.609-0.27 5.854-5.48 10.261-7.26 1.659-2.32 4.556-6.75 5.985-8.43zm7.485 3.26c1.907 1.35 1.725 2.38 0.808 3.35-1.413 1.49-4.562 2.79-4.624 4.61-0.066 4.24 8.437 6.58 11.355 8.01-1.854-0.06-3.473 0.1-4.372 0.61-1.291-0.27-2.565-0.51-3.795-0.78-0.206-0.04-0.418-0.08-0.627-0.13-0.516-0.3-1.033-0.6-1.588-0.85 0.048-0.04 0.111-0.08 0.151-0.13-0.167-0.68-1.32-0.69-2.149-0.41-0.105-0.01-0.196-0.01-0.303-0.01-2.643-1.37-4.553-3.43-3.625-5.77 0.139-0.38 0.422-0.71 0.769-1.03-0.65 1.81-2.327-0.28-0.542 1.23 1.682 0.15 4.401 1.04 2.077-1.21-1.497-1.8-1.04-3.92 0.465-5.46 0.167 0.26 0.394 0.54 0.745 0.82 1.49 0.23 2.973 0.35 4.482 0.43-2.119-0.4-3.73-1.87-1.366-3.22-0.455-3.79 1.394-0.14 2.139-0.06zm0.808 3.35c-0.482-0.02-0.967-0.03-1.448-0.05 0.478 0.08 0.964 0.09 1.448 0.05zm14.978 4.4c0.913 0.09 1.644 0.35 2.048 0.95-0.834 2.14-5.915 2.23-7.163 3.79-0.805-1.29-1.042-2.59 0.029-3.83 0.069-0.3 0.153-0.55 0.261-0.75 1.599-0.04 3.404-0.31 4.825-0.16zm-6.976 0.05c-1.608 0.7-2.446 1.96-1.386 3.86 0.355 1.79 2.206 3.25 3.961 4.68-0.635-0.1-1.263-0.17-1.9-0.23-1.035-0.54-2.418-0.84-4.074-0.72-6.187-0.17-5.87-9.44-2.46-10.75 0.624-0.39 3.255 3.48 3.499 3.09 0.792 0.02 1.571 0.03 2.36 0.07zm-21.776 2.65c0.886 0.21 0.836 1.71-1.101 2.36-0.94-0.91 0.382-1.63 1.101-2.36zm43.51 5.52c1.86 0.22 1.39 4.64-1.62 4.98-0.3 0.09-0.61 0.21-0.92 0.33-0.53-0.14-1.14-0.22-1.8-0.2 0.6-0.01 1.03 0.13 1.34 0.39-0.27 0.12-0.54 0.25-0.8 0.39-0.79-0.28-1.37-0.67-1.61-1.22 0.25-1.06-1.69-1.75-4.049-2.28-0.005-0.1-0.034-0.2-0.031-0.3 2.69 0.54 5.85 0.26 7.38-1.1 0.87-0.78 1.59-1.05 2.11-0.99zm-40.488-3.12c1.107 0.79 2.486 1.48 3.918 1.99-1.79 0.83-5.494 0.26-6.908-1.33-0.08-0.04-0.153-0.06-0.225-0.1 1.241 0 2.419-0.23 3.215-0.56zm20.517 3.49c0.357 0.02 0.726 0.12 1.119 0.26 1.841 1.51 3.483 3.02 3.055 4.89-0.057 0.2-0.147 0.37-0.234 0.53-0.112-0.16-0.219-0.33-0.378-0.51-0.726-0.87-1.613-1.58-2.609-2.17 0.118-1.15-0.451-2.21-1.568-2.95 0.214-0.05 0.406-0.07 0.615-0.05zm-2.692 0.43c0.011-0.01 0.023 0 0.034 0 0.079 0.34 0.169 0.7 0.207 1.08-1.028-0.35-2.089-0.6-3.178-0.86 1.012-0.04 2.022-0.13 2.937-0.22zm-8.472-0.72c1.141 0.19 2.285 0.45 3.426 0.76-1.127 0.42-2.249-0.09-3.426-0.76zm21.916 3.39c0.59 0.48 1.108 1.01 1.711 1.5-0.892-0.29-1.42-0.84-1.711-1.5zm-10.462 1.72c0.427 0.51 0.758 1.06 1.014 1.66-0.52-0.31-0.93-0.87-1.014-1.66zm17.351 2.22c0.03 0.77-0.09 1.59-0.14 2.3-1.09 0.25-1 1.4-0.01 2.27-0.26-0.15-0.5-0.32-0.75-0.53-1.4-1.99-0.6-3.12 0.9-4.04zm15.04 2.96c-0.29 0.58-0.37 1.08-0.32 1.5-0.93 0.11-1.87 0.22-2.78 0.35-1.52 0.32-3.1 0.64-4.63 0.73 2.85-0.45 5.52-1.42 7.73-2.58zm6.47 1.31c2.27 0.13 4.1 1.54 5.56 3.2-3.12-0.65-6.67-0.09-8.9-2.17-0.04-0.11-0.09-0.22-0.13-0.33 0.06-0.01 0.11-0.02 0.17-0.03 1.19-0.54 2.28-0.73 3.3-0.67zm-15.33 2.81c0.94 0.37 1.58 0.86 1.52 1.63-0.67-0.07-1.08-0.75-1.52-1.63z"></path><path id="path49972" style="fill:url(#radialGradient3461)" d="m94.431 246.57c-6.618-0.26-13.795-0.21-19.577 2.4-3.373 2.42 1.989 4.45 4.585 2.8 4.808-0.18 9.62-0.77 14.452-0.27 4.131 3.68-7.811 4.41-4.402 7.42 3.733 0.56 7.708 3.8 11.151 1.43 2.3-3.46 11.37-3.79 9.76 1.41-0.55 4.32-10.672 4.82-6.86 9.86 3.47 2.71 7.91-0.24 10.85-1.94 3.04-2.24 7.2-1.29 8.28 1.8 3.19 2.76 8.41 0.22 12.13 2.75 4.64 1.9 9.05-0.91 13.72-0.94 4.24 0.23-3.29 1.25-4.77 1.5-4.85 0.69-10.28 0.57-14.56-1.69-3.62-0.17-11.62 0.93-9.8-3.88-4.43 2.94-11 5.11-16.99 3.29-5.948-1.7-1.29-6.57 2.34-7.95 3.81-0.77 3.04-8.35-0.75-4.24-2.37 2.6-9.367 2.36-11.452-0.06 0.573-2.17-5.205 1.02-6.449-1.53-2.138-3.47 5.914-3.43 6.8-6.43-1.416-1.97-6.078 0.07-8.774-0.29-4.056 0.12-8.157 0.55-12.206 0.21-3.96-2.95 3.5-5.6 7.028-5.41 5.09-0.7 10.328-0.63 15.494-0.24z"></path><path id="path50957" style="fill:url(#radialGradient3463)" d="m69.024 258.73c-3.677-2.91-2.715-8.87 2.794-9.7 3.772-2.86 13.482 0.56 8.43 4.46-3.32 1.67-5.527 7.23 0.659 6.93 4.884-0.75 7.633 2.46 5.791 5.62 0.3 2.57 3.388 2.87 3.926 0.19 0.613-4.08-6.939-5.94-7.935-9.96-2.466-4.07 3.453-5.9 7.721-5.07 4.602-1.06 11.37 1.32 8.782 5.71-3.04 2.08-4.256 9.08 1.918 8.16 5.71-1.37 7.29 4.25 6.87 7.32 1.11 1.75 9.1 1.76 5.66 3.93-4.53 0.91-7.41-3.77-8.66-5.9 3.05 3.5 7.45 2.26 11.44 1.02 4.61-1.03 9.39-1.85 14.25-1.65 3.91 2.49 6.04 7.34 11.76 7.57 1.67-0.06 7.6-1.27 6.95-0.38-5.38 0.75-11.91 1.27-16.21-2.14-2.34-3.1-5.89-6.43-10.49-3.74-5.12 1.24-10.56 1.99-15.93 1.92-3.82-0.23-4.91-4.64-0.15-3.12 3.6 0.67 3.95 5.99 5.84 6.04 0.03-2.93-8.55-1.22-8.21-5.43-0.24-2.11 1.03-7.11-3.78-5.17-6.025 1.6-9.216-3.77-5.621-7.12 2.789-2.73 1.839-7.71-3.83-7.1-2.829 0.34-4.85-1.01-5.258 1.67-2.339 3.32 2.659 6.55 5.1 9.03 4.071 1.9 4.071 6.81-1.5 6.62-6.54 0.96-4.744-4.56-6.076-7.47-2.925-1.51-9.372 1.25-9.584-3.39-0.091-3.22 8.374-5.54 3.316-8.82-5.176-0.2-9.049 5.07-5.983 8.53 2.465 2.23-0.301 1.46-1.99 1.44z"></path><path id="path51972" sodipodi:nodetypes="cccccccccccccc" style="fill:url(#radialGradient3465)" d="m88.09 268.41c-1.813-4.9-8.991-6.61-14.781-6.96-4.845-0.35-16.266-4.17-13.757-8.67 1.43-2.59 10.416-5.14 6.161-8.02-0.808 2.25-6.502 2.71-8.114 5.51-0.243 2.7 5.375 10.45-0.205 11.19-2.073 0.48-6.79-0.3-2.218 0.08-2.5 0.81 3.33-0.9 3.206-2.44 1.544-3.24-5.041-8.38-1.892-10.72 3.31-2.23 8.184-4.16 12.65-2.75 2.098 3.36-5.782 4.72-6.63 7.84-1.186 3.94 7.978 7.3 12.38 7.85 5.328 0.83 11.672 1.12 15.12 4.97 1.739 1.85 0.937 2.85-1.92 2.12z"></path><path id="path51970" sodipodi:nodetypes="cccccccccccccccccc" style="fill:url(#radialGradient3467)" d="m57.809 259.66c5.247 0.27 5.723-2.89 4.446-3.11-0.833 1.04-2.623 2.12 0.216 3.28 1.791 1.88 6.696 1.98 7.71 0.19 3.236-0.31 2.55-2.96 4.958-4.15 1.773-1.91 9.479-1.4 13.321-0.36 3.607 0.42 12.78 7.04 12.48 9 1.1 2.38 7.88 1.34 11.32 0.95 1.89-0.08 4.61 0.21 1.18 0.36-4.15 0.43-8.99 1.08-13.3-0.02-2.946-1.39-6.541-10.4-12.555-10.11-3.097-0.06-4.264-1.6-5.914-0.55-3.801 0.83-6.131 7.94-10.369 6.55-3.982-0.69 0.989-2.97 1.454-1.39-1.414 1.96-8.997 1.83-12.105 0.15-4.308-1.45-3.669-5.05 3.18-3.87 5.088 0.78 1.582 3.13-2.177 3.18-1.256 0.11-2.556-0.01-3.845-0.1z"></path></g></g><metadata></metadata></svg> 