<?xml version="1.0" encoding="UTF-8" standalone="no"?> <!-- Created with Inkscape (http://www.inkscape.org/) --> <svg xmlns:inkscape="http://www.inkscape.org/namespaces/inkscape" xmlns:rdf="http://www.w3.org/1999/02/22-rdf-syntax-ns#" xmlns="http://www.w3.org/2000/svg" xmlns:sodipodi="http://sodipodi.sourceforge.net/DTD/sodipodi-0.dtd" xmlns:cc="http://web.resource.org/cc/" xmlns:xlink="http://www.w3.org/1999/xlink" xmlns:dc="http://purl.org/dc/elements/1.1/" xmlns:svg="http://www.w3.org/2000/svg" xmlns:ns1="http://sozi.baierouge.fr" id="svg2134" sodipodi:docname="cloud02.svg" viewBox="0 0 175.57 131.05" sodipodi:version="0.32" inkscape:output_extension="org.inkscape.output.svg.inkscape" inkscape:version="0.44+devel" sodipodi:docbase="C:\Documents and Settings\Molumen\Desktop"><g id="layer1" inkscape:label="Layer 1" inkscape:groupmode="layer" transform="translate(-351.76 -479.77)"><path id="path8412" style="stroke-linejoin:round;stroke:#000000;stroke-width:5.9085;fill:#789cae" d="m443.64 482.73c29.86 0.06 58.93 2.26 68.18 7.08 19.25 10.03 14.04 72.17 0 79.49-2.71 1.41-9.08 2.58-17.74 3.49 0.39 6.2-0.26 15.09-5.75 21.79-12.55 15.32-37.15 13.19-37.15 13.19s22.59-7.92 28.54-19.73c2.28-4.51 2.12-9.6 1.06-14.16-39.47 2.53-102.24 1.29-113.5-4.58-16.15-8.42-17.34-70.45 0-79.49 8.76-4.57 43.05-7.15 76.36-7.08z"></path></g><metadata></metadata></svg> 