<?xml version="1.0" encoding="UTF-8" standalone="no"?> <!-- Generator: Adobe Illustrator 13.0.2, SVG Export Plug-In . SVG Version: 6.00 Build 14948) --> <svg xmlns:rdf="http://www.w3.org/1999/02/22-rdf-syntax-ns#" xmlns="http://www.w3.org/2000/svg" xmlns:x="http://ns.adobe.com/Extensibility/1.0/" xmlns:dc="http://purl.org/dc/elements/1.1/" xmlns:i="http://ns.adobe.com/AdobeIllustrator/10.0/" xmlns:cc="http://web.resource.org/cc/" xmlns:xlink="http://www.w3.org/1999/xlink" xmlns:a="http://ns.adobe.com/AdobeSVGViewerExtensions/3.0/" xmlns:graph="http://ns.adobe.com/Graphs/1.0/" xmlns:svg="http://www.w3.org/2000/svg" xmlns:inkscape="http://www.inkscape.org/namespaces/inkscape" xmlns:sodipodi="http://sodipodi.sourceforge.net/DTD/sodipodi-0.dtd" xmlns:ns1="http://sozi.baierouge.fr" i:rulerOrigin="0 0" xml:space="preserve" i:viewOrigin="248.1719 457.7192" i:pageBounds="0 612 792 0" y="0px" x="0px" viewBox="0 0 286.193 315.719"> <switch> <g i:extraneous="self"> <g id="harp_xA0_Image_1_" i:rgbTrio="#FFFF4F004F00" i:layer="yes" i:dimmedPercent="50"> <g clip-rule="evenodd" fill-rule="evenodd"> <path d="m22.973 83.919c0.834-0.089 1.033 3.348-0.512 2.559-0.163-1.187 0.082-1.965 0.512-2.559z" i:knockout="Off"></path> <path d="m166.25 110.02c-1.162 1.012-2.859-0.544-5.117 0 0.545 2.866 2.721 4.102 4.094 6.141 0.108 1.644-1.825 1.245-2.559 2.047 0.303 1.062 0.984 1.744 2.047 2.046-1.725 1.69-2.999-1.41-4.094-2.046-1.925 0.706-2.786 4.286-0.512 5.117 2.008 0.131 1.902-1.851 4.094-1.535 0.41 1.775-0.762 1.967-0.512 3.582-2.639-1.688-3.115 2.586-5.629 1.023-0.186-3.151-1.737-5.566-0.512-8.699 1.898-1.008 2.996-0.491 4.605-1.023-0.591-2.65-1.799-4.683-3.07-6.652 0.06-3.06 7.29-3.87 7.16-0.01z" i:knockout="Off"></path> <path d="m40.371 119.23c0.052 3.634-2.348 4.816-5.629 5.117 1.053 1.335 2.74 2.036 3.582 3.582-0.269 2.972-3.987 2.494-6.652 3.07-0.238 1.467-2.039 1.373-2.559 2.559 1.018 1.71 4.275 1.182 5.628 2.558 0.489 3.518-3.579 4.771-6.14 3.582 0.792-0.914 3.071-0.34 3.582-1.535-0.199-1.507-2.411-1-3.07-2.047-0.79 0.123-2.453 1.903-1.023 2.559-1.527 1.994-5.277-1.159-4.605 2.559-1.164 0.816-0.224-4.024 0-5.117-0.181-0.672-0.901-0.805-1.023-1.535-6.893-0.441-10.65-4.019-11.257-10.746 4.78 1.531 8.142 4.48 11.257 7.676 1.681-0.537 2.237-2.198 3.07-3.582 1.294 0.411 1.305 2.106 2.047 3.07 1.19-0.516 1.65-1.762 1.535-3.582-3.094-2.428-7.669-12.115-2.047-15.351 2.66 0.751 2.497 4.326 4.605 5.629 3.307-0.82 7.014-0.62 8.699 1.53zm-10.746 4.09c-0.018-1.986 0.557-8.651-3.07-8.699-1.335 2.58-0.227 7.79 3.07 8.7zm1.535-3.07c-1.902 4.207 5.69 3.134 6.14 0-1.173-0.8-4.967-0.8-6.14 0zm-0.512 8.19c1.485 0.663 3.631 0.663 5.117 0-0.091-3.2-7.192-4.33-5.117 0zm-16.886-1.03c0.391 2.005 3.246 5.958 7.164 6.141-0.074-4.09-4.606-6.2-7.164-6.14zm11.769 11.26c2.553-1.195 2.759-7.515-1.023-7.675-1.31 2.32-1.161 6.26 1.023 7.67z" i:knockout="Off"></path> <path d="m266.03 117.69c-0.879 1.336-2.649-0.722-4.604 0-1.414-0.219-0.48 1.908-1.535 2.046 0.658 1.389 2.543 1.551 4.604 1.535 0.047 1.396-0.852 1.03 0 2.047 2.862 0.815 2.329-1.765 3.07-3.07 1.042 0.152 1.363 1.025 2.047 1.535-0.481 2.077-3.442 1.675-4.094 3.582 0.296 1.24 1.933 1.138 3.07 1.535v2.559c-1.205 0.011-1.507-0.881-3.07-0.512 1.875-1.387-0.038-2.791-2.047-3.07-0.087-1.447 0.44-3.51-1.023-3.582-2.389-0.001-1.626 3.149-4.093 3.07-0.242 2.459 3.312 1.123 3.07 3.582-2.429-0.128-4.317-1.775-6.141-1.023 1.771-1.469 1.987-4.494 4.094-5.629-2.88-5.61 3.8-8.84 6.64-4.63z" i:knockout="Off"></path> <path d="m247.1 122.81c-0.594 0.43-1.372 0.675-2.559 0.512-0.002 2.409 2.444 4.457 4.605 3.07 0.084-1.619-1.36-1.71-1.023-3.582 1.272-0.079 1.584 0.804 2.559 1.023-1.385 3.036 2.285 4.212 4.605 5.117-2.193 3.588-11.955 6.731-9.723-1.535-0.158-0.694-1.281-0.424-2.047-0.512-2.4-3.47 2.15-8.91 3.59-4.1zm-0.51 7.16c0.123 0.73 0.843 0.863 1.023 1.535 2.416 0.028 3.929-0.847 4.605-2.559-1.25-0.73-5.72-1.17-5.63 1.03z" i:knockout="Off"></path> <path d="m272.17 125.88c3.783 0.993 5.312 4.239 8.699 5.629-0.781 1.436-2.567 1.867-4.094 2.558 0.176 2.38 2.626 3.466 1.535 5.629-2.379-1.204-2.519-4.645-3.582-7.164-0.492-1.857 2.3-0.43 2.047-2.047-0.23-2.86-4.89-1.27-4.62-4.61z" i:knockout="Off"></path> <path d="m162.67 127.41c1.949 3.328-3.291 3.862-3.07 7.164-0.154 1.348 0.709 1.68 2.047 1.535-0.061 1.474 0.279 3.35-0.512 4.094-0.81-3.391-3.573-4.012-3.07-7.164 0.41-2.57 4.38-2.67 4.6-5.62z" i:knockout="Off"></path> <path d="m258.36 129.46c-0.257 1.96-2.701 1.734-3.582 3.07-1.05-1.24 1.94-2.8 3.58-3.07z" i:knockout="Off"></path> <path d="m191.32 138.16c0.309 2.867-0.271 4.847-1.023 6.652-4.195 1.303-9.067-0.165-9.723-3.07-1.27-5.62 6.89-7.48 10.74-3.58zm-9.21 3.07c0.953 1.947 3.025 2.774 6.141 2.559 0.771-1.275 1.583-2.511 2.047-4.094-2.48-3.18-7.38-2.95-8.19 1.53z" i:knockout="Off"></path> <path d="m76.701 145.32c-3.461 0.05-4.051-2.771-6.652-3.582-1.227-0.203 0.284 2.331-1.535 1.535-2.155 0.176 0.343-1.864 0-3.07 1.47-0.715 2.599 1.395 3.07 0 0.4 1.858 2.601 3.928 4.605 2.559-0.162-3.249-4.353-2.469-5.117-5.117 4.609-1.82 8.203 3.69 5.629 7.67z" i:knockout="Off"></path> <path d="m226.12 142.76c1.501 0.435-0.666 1.288 0 2.559-1.2-0.13-0.3-2.24 0-2.56z" i:knockout="Off"></path> <path d="m9.668 173.98c-1.836-0.301-2.476 0.595-3.582 1.023 1.08 1.925-0.261 1.812-1.023 3.07 1.068 1.661 2.751 2.707 5.628 2.559 0.43 0.594 0.675 1.372 0.512 2.559 1.069-0.217 1.355 0.351 2.047 0.512 1.103-0.433 0.826-2.245 1.535-3.07 3.153 1.261 0.296 5.285-2.047 5.629-2.81-1.454-3.61-4.919-6.652-6.141-1.232 0.814-1.695 2.398-3.07 3.07-0.758-0.947-2.645-0.767-2.559-2.559-0.087-2.158 0.786 0.009 1.535 0 1.008-0.868 1.373-2.38 1.535-4.094-0.559-1.218-2.512-1.218-3.07 0-2.802-6.57 8.127-9.14 9.211-2.56zm-6.651 0c1.437 0.614 3.262 0.294 3.07-2.047-1.326-1.17-3.463-0.06-3.07 2.05z" i:knockout="Off"></path> <path d="m126.85 169.88c1.348-0.153 1.679 0.709 1.535 2.047-1.338 0.145-2.201-0.187-2.047-1.535 0.44 0.09 0.49-0.2 0.52-0.52z" i:knockout="Off"></path> <path d="m216.91 171.42c1.13 0.064 0.218 2.171 0.512 3.07-1.13-0.06-0.22-2.17-0.51-3.07z" i:knockout="Off"></path> <path d="m222.54 173.47c-1.532-0.336 0.489-1.094 0-2.047 1.27 0.08 0.15 1.73 0 2.05z" i:knockout="Off"></path> <path d="m219.47 178.07c0.312-1.325 0.521 0.269 0.512 0 0.06 1.84-1.21 2.96-0.51 0z" i:knockout="Off"></path> <path d="m213.84 190.86c1.198-0.393 0.22 5.129-0.512 6.14-1.33-1.52 1.14-3.61 0.51-6.14z" i:knockout="Off"></path> <path d="m217.42 190.86c0.333-1.443 0.594 1.179 0.512 1.535-0.24 1.03-0.96 0.41-0.51-1.54z" i:knockout="Off"></path> <path d="m97.169 197c2.346 0.35-0.411 3.1 0 0z" i:knockout="Off"></path> <path d="m79.771 200.59v-1.023h1.023v1.023h-1.023z" i:knockout="Off"></path> <path d="m118.66 201.1h1.023v1.023h-1.023v-1.02z" i:knockout="Off"></path> <path d="m142.71 220.54c-0.077 1.272-1.733 0.149-2.047 0 0.271-0.412 0.534-0.831 0.512-1.535 0.97 0.06 0.36 1.7 1.54 1.54z" i:knockout="Off"></path> <path d="m29.113 227.2c1.102-1.396 2.598 1.121 2.047 3.07-1.147-0.56-0.899-2.52-2.047-3.07z" i:knockout="Off"></path> <path d="m122.75 238.45c1.225 0.651 2.083 1.669 2.047 3.582-1.2-0.68-1.46-2.28-2.05-3.58z" i:knockout="Off"></path> <path d="m201.04 242.04c1.13 0.063 0.217 2.171 0.512 3.07-3.23 0.29-1.71-2.39-0.51-3.07z" i:knockout="Off"></path> <path d="m200.02 246.64c1.503 0.93-0.262 4.26-0.512 6.651-0.088 0.838 0.129 1.728 0 2.559-0.659 4.232-0.876 10.217-4.094 11.258-0.416-2.121 1.49-1.922 2.047-3.07-3.01-6.05 3.07-10.56 2.55-17.4z" i:knockout="Off"></path> <path d="m243.52 254.83c-0.32 1.216-3.149-0.079-3.582 1.023 0.957 1.772 3.001 2.458 5.629 2.559-2.562 2.58-7.266 0.227-8.188-2.047 0.56-3.35 4.02-3.53 6.14-1.53z" i:knockout="Off"></path> <path d="m188.76 269.67c-1.133 1.662-0.574 1.474 0 3.582-3.467-1.019-1.648-4.391-4.605-6.141 1.32-2.41 2.85 2.16 4.6 2.56z" i:knockout="Off"></path> <path d="m185.18 268.64v1.023c-0.435-0.095-0.482 0.199-0.512 0.512-1.29-0.756-2.114-1.979-2.559-3.582 2.11-0.4 0.96 2.46 3.07 2.05z" i:knockout="Off"></path> <path d="m187.23 266.6c4.352 0.578 2.849 4.782 5.117 6.652-0.131 1.197-2.248 0.295-2.559 0 1.36-2.89-2.21-3.93-2.56-6.65z" i:knockout="Off"></path> <path d="m88.982 268.13c0.734 0.801 2.667 0.402 2.559 2.047-0.765-0.77-2.917-0.16-2.559-2.05z" i:knockout="Off"></path> <path d="m201.56 270.69c1.197 0.131 0.295 2.248 0 2.559-1.5-0.44 0.66-1.29 0-2.56z" i:knockout="Off"></path> <path d="m88.471 271.71c0.82-1.277 3.019 0.352 3.07 1.535-1.812 0.28-1.258-1.8-3.07-1.53z" i:knockout="Off"></path> <path d="m203.09 271.71c0.194-0.975 0.65 0.326 0.512 1.023-0.19 0.98-0.65-0.32-0.51-1.02z" i:knockout="Off"></path> <path d="m211.79 282.97c1.164-0.816 0.224 4.024 0 5.117-1.57-1.27 0.61-3.11 0-5.12z" i:knockout="Off"></path> <path d="m207.7 283.48c1.275-0.452 0.062 4.606 0 6.141-1.48-1.51 0.72-3.69 0-6.14z" i:knockout="Off"></path> <path d="m209.23 288.09c0.195-0.974 0.651 0.327 0.512 1.023-0.19 0.97-0.65-0.33-0.51-1.02z" i:knockout="Off"></path> <path d="m203.6 288.09c0.736 0.116 0.178 1.527 1.023 1.535-0.711 0.654-0.313 2.416-1.023 3.07-0.28 0.743 0.598 2.645-0.512 2.559v-3.07c0.59-2.01 0.11-1.9 0.51-4.09z" i:knockout="Off"></path> <path d="m206.67 291.16c0.835-0.089 1.033 3.348-0.511 2.559-0.21-1.24 0.94-1.12 0.51-2.56z" i:knockout="Off"></path> <path d="m78.236 306.51c-1.123 1.56-3.277-0.59 0 0z" i:knockout="Off"></path> <path d="m47.022 315.72c1.008-3.159 2.923-5.68 5.117-8.699 2.33-3.206 5.428-5.916 7.676-9.21 1.066-1.563 1.018-2.932 2.046-4.094 1.493-1.687 4.16-3.562 6.141-5.629 2.927-3.055 5.069-5.428 9.21-7.164 0.578-3.004 4.788-2.375 5.629-5.116-1.188-0.988-3.336 1.417-4.094 2.559-2.001-7.464 5.538-9.812 4.094-18.422-0.45-1.644 1.687-0.701 1.535-2.047-11.661-12.219-26.944-20.814-35.308-36.33-1.818 0.058-1.86 1.892-4.093 1.535-0.526 1.691-0.525 3.909-1.535 5.116-3.791-0.644-8.17-0.699-10.746-2.559-3.654 0.749-4.403-0.677-6.141-0.512-1.544 2.416 1.216 4.911 2.047 6.652 1.912 0.547 1.458-1.271 3.07-1.023 0.222 3.454 5.894 4.099 5.628 8.188-0.362 5.577-8.596 3.8-9.21-2.559-4.561 2.14-11.074-4.059-6.652-7.676-1.279 4.737 3.476 8.164 6.652 5.117-1.479-2.615-3.732-4.455-5.117-7.164-2.046 1.062-3.977-0.235-5.628-1.023 0.296-1.661-0.349-2.38-0.512-3.581 2.653-0.971 3.275-2.235 6.14-2.047-0.948 0.901 0.132 1.584 1.023 2.047-0.81 1.065-3.58 0.172-4.605 1.023 0.265 1.952 1.826 2.608 4.094 2.558 1.986-0.571 1.815-3.302 2.559-5.116-0.435-0.76-1.288-1.101-2.559-1.023-0.393-2.628 0.887-3.887 0-5.629-2.889 0.181-3.395 2.745-4.605 4.605 0.312-2.645-2.659-2.953-4.093-5.117-4.199 1.669-8.785-0.651-7.164-5.117 1.311-1.248 4.05-1.067 6.652-1.023 0.57-2.446-1.594-2.159-1.023-4.605 2.73 0.172 4.48-0.637 6.652-1.023 1.688 1.553 4.45 2.032 5.117 4.605 3.386 0.025 5.224 1.599 7.164 3.07-0.371 1.565 0.883 1.505 0.512 3.07 2.838 0.621 3.108-1.326 4.605-2.047 5.703-0.756 6.102 3.791 9.722 5.117 1.273-3.792-1.857-8.651-2.046-14.328-0.083-2.489 1.118-4.973 0.512-7.675-3.716-4.326-6.577-12.154-13.816-11.258-0.25 1.615 0.922 1.807 0.512 3.582-0.917 1.129-2.845 1.249-4.094 2.047-2.935-1.436-2.89-2.944-7.164-2.559 0.383-1.918-0.576-2.494-2.047-2.559 0.31-1.226 0.736-2.335 0.512-4.094-1.33-1.378-1.543 0.626-3.07 0.512-1.029-1.901 0.517-3.216-0.512-5.117 1.069 0.217 1.355-0.351 2.047-0.512-0.842-2.119-4.374-3.211-6.141-1.535 0.229 1.478 2.202 1.21 2.559 2.559 0.011 1.206-0.881 1.507-0.512 3.07-1.959-1.032-5.759-7.272-1.535-9.211-0.549-2.35-2.276-3.522-2.047-6.651 3.228 0.524 6.544 0.961 8.188 3.07 0.062 3.869-1.69 5.212 0.511 7.675 0.276 1.981-1.304 2.107-1.535 3.582 1.82 1.046 3.813-1.454 5.117-2.559 0.667 1.888-3.671 4.093-2.047 7.164 2.534-0.256 1.636-3.465 2.047-4.605 0.968 1.016 2.417 0.249 3.582 0 2.338 1.338 3.406 6.359 7.164 4.605-0.744-3.861-5.827-3.384-5.629-8.188-0.826-1.496-2.638 0.816-3.07-0.512-0.015-1.721 2.369-1.042 3.07-2.047-1.083-1.938 0.197-3.196 0-5.628-2.627-1.809-5.146-3.724-5.629-7.676-0.408-1.468-3.431-0.321-3.07-2.559 0.888-1.967 2.172 1.186 3.582-1.023-1.135-2.635-9.629 0.941-11.257-3.582 0.632-3.632 5.188-3.34 7.164-5.628-1.969-3.375-5.88-0.287-7.676 1.023-0.843-1.478 1.991-2.915 2.047-5.117 3.356-0.115 5.278 1.204 7.675 2.047-0.076 1.97-1.149 2.944-2.558 3.582 0.094 1.611 2.756 0.655 2.558 2.558-1.825-1.443-4.236 0.854-6.14-0.512-0.715 3.615 2.041 3.759 5.117 3.582 3.017-1.742 1.684-8.752 5.117-6.652 1.23-1.18 0.781-1.65 0.512-3.582 1.125 1.576 3.747 0.867 2.559 3.582 1.879 0.968 2.891-0.918 5.117-1.023-0.048 3.875-4.058 3.788-4.605 7.164 1.079 3.697 4.826 4.726 6.14 8.188-1.81 3.391-7.659 4.923-4.605 10.233 4.162-2.006 12.028-2.406 12.792 3.07-0.828 0.879-2.14 1.271-4.094 1.023-0.441 2.488 1.465 2.629 1.023 5.117-1.225 1.452-1.884 0.506-4.094 0.512 0.236 4.369 6.507 2.704 7.676 6.141 2.367-0.993-0.109-3.741 0.512-6.141 2.048-7.136 3.783-13.487 6.14-20.979 1.28-4.07 3.028-6.581 2.559-11.258-0.578-5.755-1.043-14.049-0.512-20.979 0.455-5.923 2.36-12.994 1.023-19.956-2.061-10.731-9.229-16.509-16.886-21.492-6.444 1.369-0.262 4.784-0.512 9.722-0.956 1.002-1.874 0.158-3.07 0v3.07c-1.751 0.466-3.171 1.264-5.117 1.535-3.049-3.091-8.039-4.242-9.722-8.699 1.759-5.271-0.932-8.649-6.141-6.652-1.247-1.201 0.571-1.145 1.023-2.047-3.061-1.279-3.39-8.473-1.023-10.746 5.089 1.052 6.991 5.29 10.234 8.187 2.347-4.702-2.331-9.495-3.582-13.816h3.582c0.22-3.124-2.982-0.162-3.07-1.023-0.405-1.77 0.569-2.16 1.023-3.07 5.339 0.972 7.525 5.097 11.77 7.164 2.215-0.586 1.26-1.683 3.582-1.535 0.459-2.506-1.689-2.404-1.023-5.117 0.828-0.878 2.141-1.271 4.094-1.023 3.374 3.506-0.108 6.313-2.559 8.187 2.269 1.103 2.582 5.866 1.535 8.699 0.097 0.414 0.514 0.51 0.512 1.023 7.923 4.187 9.956 14.265 15.863 20.468-0.194 4.218 2.694 6.042 2.047 12.281 3.075-1.019 3.82-4.367 5.117-7.164-7.365-14.132-15.23-31.421-11.258-51.17 4.425-7.838 12.592-12.583 23.539-11.769 4.694 0.35 9.453 2.213 14.328 2.559 4.726-5.773 0.753-14.608-2.047-19.957 2.002-0.297 2.971 0.44 4.093 1.023 0.947 4.125 2.367 9.14 2.559 13.816 0.078 1.901-1.61 3.915 0.512 5.117 7.896-6.09 12.403-15.57 22.515-19.445 0.003-2.214 1.188-3.247 1.023-5.628-1.082-1.307-2.41-2.367-3.582-3.582-1.707-0.001-1.747 1.665-3.582 1.535-2.158-1.083-2.852-3.63-3.07-6.652-1.526-2.226-4.768-2.737-4.605-6.652 1.891 0.015 1.856-1.896 3.07-2.559 6.684 0.822 6.345 8.665 10.746 11.769-0.124 1.319-0.88-0.703-2.047 0 0.286 1.42 1.761 1.651 2.047 3.07 2.019-0.369 3.271-1.504 4.093-3.07-0.309-1.908-2.352-2.083-2.558-4.093 0.498-0.014 0.397-0.626 0.511-1.023 3.912-1.257 7.791 1.69 8.699 5.117h2.559c-1.235 1.018 0.851 2.436-0.512 3.582-0.967-0.057-0.355-1.692-1.535-1.535-1.344 0.362-1.01 2.401-2.047 3.07-3.606-1.122-5.699 2.061-7.164 4.605-0.037 1.836 2.81 1.772 0.512 3.07 1.323 0.895 1.794 2.641 3.582 3.07 1.607 0.243 2.091-0.638 2.559-1.535-1.338-2.07-1.44-3.09-2.559-4.605 2.432-1.167 4.104-2.774 5.629-3.582 1.062 0.131 0.14 2.248 1.023 2.559 4.647-0.397-0.081-7.011 4.605-7.164 0.393-2.609-3.267-1.168-3.07-3.582 1.598-1.616 4.952-1.934 7.675-1.023 0.521 0.672 0.501 1.887 1.023 2.559 3.346 1.259 4.743 4.468 4.605 9.211-4.096-1.088-9.27 0.004-11.77 0.512-0.245 1.609 0.729 2 1.023 3.07 7.256-1.863 12.996 5.158 7.164 8.699-6.636-1.722-6.94-9.775-13.304-11.769-0.672 0.181-0.805 0.9-1.535 1.023 1.833 1.577 3.199 5.585 0 6.652 2.669 1.765 5.254 3.616 5.117 8.187-3.823-0.211-5.384-0.94-7.164 1.535-3.23-0.522-3.674-3.83-6.652-4.605-0.374-2.037-0.374-2.057 0-4.094 1.137-0.398 1.995-1.075 3.582-1.023-3.039-5.045-6.197-1.558-10.234 1.535-1.897 1.454-4.324 2.598-5.629 4.094-1.007 1.155-1.185 3.119-2.046 4.093-2.712 3.065-6.461 3.671-8.188 6.141 0.805 1.871 0.765-1.189 2.047-0.512-1.247 1.201 0.571 1.146 1.023 2.047 11.954 2.646 27.262 4.75 40.424 2.559 25.936-4.318 43.803-25.796 70.104-31.726 11.77-2.654 29.532-1.742 38.889 3.582 1.227 0.697 2.742 2.13 4.094 3.07 3.955 2.751 5.357 4.448 8.188 9.211 0.259 0.437 1.378 0.739 1.535 1.023 0.338 0.614 0.043 2.094 0.512 3.07 0.327 0.683 1.28 0.838 1.535 1.535 1.519 4.159 1.418 9.411 0.512 13.304-1.738 7.466-6.266 15.582-17.91 14.839-2.518 1.089-1.587 3.604-2.047 5.629-3.448 15.175-4.625 34.289-8.698 49.123-1.178 14.972-4.696 29.235-6.141 45.03 2.825-0.586 3.89-2.934 6.141-4.094 0.426-2.982-0.781-5.312 0-7.164 1.261-0.067 2.465-0.077 3.069 0.512 1.378-1.33-0.625-1.543-0.512-3.07 2.172-1.848 5.718 0.507 7.164-1.535-1.628-3.304-7.289-1.888-9.211 0v-3.07c1.199-1.018 3.257-1.179 5.629-1.023 2.463 4.562 8.825 0.213 7.676-3.07-2.131-1.874-5.514-4.951-3.582-9.211 4.461 1.466 7.211 0.627 10.234-1.535-0.539 2.415 0.878 2.874 2.047 3.582 2.046-0.854 3.357-2.442 3.07-5.628 3.121 0.733 3.64-1.136 5.116-2.047 1.426-0.82 1.415 2.21 0.512 2.047 1.28 1.663 4.01 3.291 6.141 2.559 0.927-0.153-0.518-2.153-1.023-2.559 4.226-0.128 2.479 10.139 8.188 10.234-1.433 3.81-4.039-2.176-7.164-1.535 0.077-0.946 1.733-0.314 2.047-1.023-1.762-1.075 0.129-2.622-1.023-4.094-3.109-0.55-3.297 1.82-3.07 4.605-1.232 0.209-1.112-0.935-2.559-0.512-0.454-2.169 1.344-3.623 0-5.117-4.023 0.24-1.505 7.023-4.093 8.699-3.133-2.837-6.887-5.053-10.746-7.164-1.447 0.429-1.742 2.011-2.559 3.07 2.047 0.512 3.096 2.021 4.094 3.582-0.603 2.297-3.32 2.479-4.094 4.605 4.248-0.479 8.901-0.213 10.234 4.605-1.188-0.163-1.965 0.083-2.559 0.512 0.693 2.377 2.038 4.103 3.582 5.629 2.189 0.143 2.53-1.563 5.116-1.023 0.363-1.897-0.874-2.196-0.512-4.094 2.15-0.932 7.015-0.674 9.211 0 0.146 2.382 1.577 2.848 0 4.605 2.102 1.992 4.235 3.952 6.652 5.629-2.651 1.272-4.049-3.105-7.164-3.07-1.268 0.81-0.209 3.58 0 4.605 0.658 1.431 1.058-1.612 2.559-1.023 1.015 2.447 3.053 3.786 5.629 2.047 0.46 1.498 0.46 1.572 0 3.07-3.53 0.289-5.186-1.297-7.164-2.559-0.534 1.853-1.519 3.257-4.094 3.069-1.512-1.825-3.86-3.443-3.582-5.628-2.226-0.009-4.604-0.17-6.14 0.512 0.237 1.809 2.294 1.799 2.046 4.094 3.024 0.046 4.787 1.354 6.141 3.069 10.082-1.022 19.408 1.375 16.887 11.258-4.338-0.438-4.022-5.529-8.699-5.629 1.107 3.095 6.017 6.453 5.629 10.746-0.144 1.589-1.254 3.886-3.582 4.605 0.323-2.712-1.801-2.976-1.535-5.629 0.886 0.82 1.499 1.912 2.047 3.07 2.921-2.611-0.888-6.351-1.023-9.211-1.201-0.163-1.921-0.809-3.582-0.512 0.071-4.869-4.581-2.604-7.676-3.582 2.701 4.064 4.344 7.602 7.164 13.305 2.176 4.399 5.596 6.088 3.582 12.792-3.005 0.446-2.217-2.9-4.094-3.582-2.122 0.266-0.171 4.604-1.535 5.629-2.244 0.539-1.681-1.73-3.582-1.535-0.458-2.611-0.937-5.203-2.047-7.164-1.578-0.468-3.125-0.968-4.094-2.046-1.807-5.63 3.362-7.145 8.188-7.676-0.149-3.433-2.231-4.932-3.582-7.164-2.018-0.142-0.147 3.604-1.535 4.094-2.586-0.483-1.846-4.295-3.581-5.629-2.085 1.666-4.784 0.741-6.141-1.023-0.473-2.349 1.28-2.472 1.023-4.605-1.613-2.991-4.693-4.518-8.188-5.628 0.615 3.974 7.343 8.385 1.535 11.257-2.029-1.553-2.772-4.392-5.117-5.629-1.066 0.811-0.173 3.58-1.023 4.605 2.16 1.593 3.668 3.838 6.141 5.117 3.959-2.379 9.616-0.564 11.258 3.582 0.098 2.145-2.513 1.582-2.047 4.094-6.36-3.533-11.344-8.442-16.887-12.793-2.597-0.137-2.304 3.016-2.559 5.117-0.121 1.001-1.031 0.834-1.023 1.535 0.026 2.125 0.531 4.342 2.047 5.629 2.555-0.909 3.762-3.952 3.582-6.141 4.045 2.234 7.367 6.866 7.676 11.258 0.239 1.092-0.731 0.975-1.535 1.023 2.177 1.852 3.279 6.515 0 8.187-4.671-1.641-6.965-5.656-7.676-11.257 2.768-1.112 4.331 0.356 6.652 1.023 0.556-0.127 0.347-1.018 1.023-1.023-0.194-3.218-2.598-4.226-4.094-6.141-0.918 2.322-2.319 4.162-4.094 5.629-3.21-1.959-6.928-5.965-5.629-10.746-1.09-1.298-3.202-1.573-3.581-3.582 0.726-2.344 1.584-4.556 4.604-4.605 0.251-1.614-0.922-1.807-0.512-3.581 2.528 0.713 1.52 4.962 4.605 5.116 1.528-3.064-1.188-9.823-7.164-8.698-2.437 2.338-5.182 4.369-8.187 6.14-3.299 21.946-7.271 43.218-10.746 64.986 6.084-3.979 12.818-7.309 17.398-12.792 1.266 0.439-0.15 3.562 1.022 4.093 1.621-0.426 2.602-1.492 3.582-2.559 1.517 0.082 0.812 3.734 2.559 2.047 1.091-0.166-0.082-2.231-0.512-2.559-0.151-1.345 1.985-0.402 1.535-2.046-2.216-2.163-3.177 3.102-4.605 0.512-1.602 0.657-0.264 1.058-1.023 2.558-1.055-0.139-0.121-2.266-1.535-2.046 1.601-2.152 3.013-4.493 7.164-4.094 1.915 1.028 1.913 5.388 1.023 7.675 5.361 2.145 9.119 5.892 14.328 8.188 0.478 4.572-1.402 6.785-1.023 11.258-1.604 2.49-7.043 1.145-8.699 3.582-0.642 1.497 1.528 1.362 2.047 2.558 0.2 0.463-0.32 1.677 0 2.047 2.665 3.088 7.475 2.548 12.281 3.582 1.355-1.608-1.445-2.159 0-4.094 2.38-1.403 3.466-0.561 5.628 0.512 1.145-2.607 2.248-5.257 6.141-5.116 1.22 1.168 1.021 3.755 2.559 4.604-1.459 3.602-5.98 1.136-8.188 3.582 1.351 2.033 4.014 1.966 6.652 1.535 1.782 1.459 2.345 4.137 4.094 5.629 1.707-2.073 6.115-2.817 8.188-0.512 0.825 3.793-0.817 5.747-5.117 5.629-0.809 1.579-2.269 2.508-5.117 2.047-0.364-2.365-2.073-3.385-3.582-4.605-1.778 3.15 2.06 4.634 2.047 7.676 2.429 0.906 2.688-0.319 5.117-0.512 0.004 2.221-2.244 2.19-3.582 3.07-2.489-0.41-2.339-3.461-6.141-2.559-1.845 0.884-1.717 3.741-3.582 4.604-8.201-0.888-2.819-16.021 2.047-16.886 0.799-0.142 5.848 0.458 4.605 3.07 1.328-0.207 1.478-1.593 2.047-2.559-0.604-3.088-6.018-3.459-9.211-2.047-2.794 1.236-3.851 5.788-6.651 4.605 1.7-1.881 4.754-2.409 4.604-6.141-3.228-0.003-5.041 3.029-4.604 5.117-3.946-0.641 0.055-3.531 0-6.141-2.115 0.955-5.822 0.318-6.141 3.07-1.797-0.404-1.684-1.438-3.07 0 0.18 1.525 0.296 3.116 1.535 3.582 1.833 0.298 1.556-1.515 1.535-3.07 2.809 4.345-4.169 6.843-6.652 9.211-1.412-2.652-3.559-3.785-3.07-7.164 2.633-1.291 4.665-3.181 5.629-6.141 1.897-0.362 2.196 0.874 4.094 0.512-2.06-1.182-4.738-1.743-5.117-4.605-1.908 0.05-0.035 1.998-1.023 2.047-5.521-1.164-0.775-7.594-2.047-11.257-3.986-3.615-11.596-3.22-17.909-2.047 0.035-1.5 1.949-1.121 1.535-3.07-1.158-1.327-1.12 1.608-2.559 0-0.41 1.774 0.762 1.967 0.512 3.582-3.484 2.997-8.753 4.21-13.305 6.141-0.203 1.639 2.178 2.921 2.559 1.023 1.017 6.953 8.179 11.856 11.77 17.909-0.712 1.165-1.771 1.982-2.559 3.07-1.542 7.254-7.535 17.019-12.793 22.003-3.731 3.538-9.032 7.718-12.28 8.699-5.903 1.782-10.781-0.254-14.84-2.559-22.015-32.567-42.223-66.938-64.474-99.271 0.901-1.031 2.03 2.035 3.07 2.559-0.69-3.067-4.084-7.851-6.652-10.745 0.339 3.071 2.035 4.787 3.582 6.651-0.462 1.387-1.145-1.17-2.047-1.023-0.296 1.662 0.349 2.381 0.512 3.582-5.525 2.702-4.685 14.75-2.047 22.004 1.082 2.974 4.535 5.474 2.559 10.233 4.784-2.2 14.326-1.827 20.468-1.023 1.336 2.417 3.238 4.267 4.605 6.652-1.04 0.373-1.466 2.163-0.512 3.07 1.092 0.239 0.975-0.731 1.023-1.535 1.596 0.933 2.001 4.115 0 4.605 0.377 1.157 1.951 1.119 2.047 2.559 1.604-0.354 0.667-1.365 0.512-2.559 1.053 0.652 2.595 0.815 2.559 2.559-1.065 0.3-1.654 1.075-2.559 1.535-10.147-1.826-19.704-2.039-26.097 3.069-2.866 2.291-3.888 6.036-6.652 8.699-6.865 2.075-11.099 6.013-11.77 14.84-0.38 5.004-3.257 8.407-5.117 12.28-5.585 5.672-11.384 11.132-16.886 16.887-0.451 5.567 2.944 7.289 4.094 11.257h-1.023v-0.512c-0.435 0.095-0.483-0.199-0.512-0.512h-1.023v1.023h-1.535c-0.181-0.672-0.901-0.805-1.023-1.535-0.156-2.089 1.068-0.273 2.047-0.512-1.886-1.479-1.02-5.26-3.07-4.605-1.416-0.22-0.026-1.609 1.023-1.023 0.277-1.812-1.812-1.258-1.535-3.069-1.759-0.225-2.868 0.202-4.094 0.511-0.582-3.24-4.761-4.796-8.187-3.581 1.557 2.777 8.83 2.331 7.676 6.14h2.558c-0.139 1.056-2.266 0.122-2.047 1.535 1.219 0.739 1.256 0.776 1.535 1.535-1.531-0.229-3.347-0.354-3.07 2.559 0.682 0.853 2.275 0.795 3.07 1.535v0.512h-1.535c0.231-0.836-2.789-0.836-2.558 0h-1.535c-0.224-0.63-0.655-1.051-1.535-1.023 0.435-1.501 1.288 0.666 2.559 0 0.143-1.166-0.124-1.924-1.023-2.047 1.482 0.627 1.225-2.169 3.07-2.559-1.606-3.2-0.839-6.862-8.699-5.628-0.726 1.149-0.756 2.996-2.559 3.069 0.337 0.688 1.094 0.953 2.047 1.023-0.58 1.197-3.375 0.354-3.582-0.512-1.566-1.349 2.205-1.081 0.512-2.559-1.991-0.506-5.241-0.505-6.652 0.512 0.986-0.71 0.606 3.071-0.512 1.023-0.484 1.85 2.016 0.714 3.07 1.023-0.998 1.049-3.436 0.658-4.605 1.535 1.495 1.064 4.927 0.19 6.652 1.023-0.175-2.343 2.072-1.249 4.093-0.512-0.915 1.707-2.927 1.18-4.093 1.535 0.011 1.695 0.864 2.548 2.558 2.559-0.489 1.388-4.235-0.482-4.093 1.535h-3.07c-0.389-0.846-4.217-0.846-4.605 0-0.927-0.02-1.781-0.02-2.634-0.02zm84.938-300.88c-0.158 1.864 0.082 3.33 0.512 4.605 1.446-0.423 1.326 0.721 2.559 0.512 1.07-1.978 0.15-5.776-3.07-5.117zm130.49 154.53c-0.444 1.98 1.25 1.821 1.535 3.07-1.187-0.163-1.964 0.083-2.558 0.512 0.636 2.264 0.779 5.02 3.581 5.117 1.326-1.477-0.229-3.173 0-5.117 2.866 1.874 5.456 0.956 8.699 2.559 0.332-1.867-0.345-2.726-1.023-3.582-1.77-0.405-2.16 0.569-3.07 1.023-1.52-1.82-3.83-5.23-7.16-3.58zm20.98 9.21c1.216-3.825-5.781-9.918-8.699-5.117 2.83 1.79 5.26 3.96 8.7 5.12zm-12.28 90.58c-2.366 0.28-3.068 2.497-1.535 4.094 2.1 0.27 2.6-2.77 1.53-4.09zm-8.19 0.51c1.994 1.247 2.49 3.992 4.605 5.117-0.043-1.834-0.796-2.957-1.023-4.605 1.439-0.096 2.181-0.891 2.047-2.559-2.14-1.37-4.41 0.86-5.63 2.05zm2.56-3.59c1.741-1.244 3.886 0.914 5.629-0.512-0.61-3.11-5.8-3.33-5.63 0.51zm-142.77-67.54c-0.449 1.055 1.327 2.298 1.535 1.023-0.8-0.04-0.39-1.3-1.53-1.02zm93.13-179.61c13.945-0.935 25.5 3.002 33.261 8.699 3.758 4.532 9.296 10.951 9.211 18.933-0.124 11.507-7.373 17.288-19.445 15.351-4.574-2.021-8.067-11.152-3.07-15.351 2.534-0.878 6.729-0.094 8.188-2.047-0.036-4.211-1.965-5.891-4.094-7.164-5.226-3.126-14.289-3.72-22.515-3.07-23.902 1.888-40.004 17.004-59.869 23.026-6.78 2.056-14.812 3.357-23.538 4.094-18.131 1.531-34.158-3.862-51.682-5.117-8.466-0.606-20.479 1.247-23.538 5.629-1.47 2.106-0.731 6.229-2.559 8.699-2.493-13.781 13.045-16.338 26.608-15.351 16.019 1.166 32.038 6.327 51.17 5.117 28.424-1.798 44.947-17.045 68.057-24.05 8.429-2.555 17.819-5.013 26.608-4.093 6.309 0.66 17.864 4.493 16.886 13.304-0.176 1.359-1.343 1.727-2.559 2.047 2.035 2.652 2.076 8.221-2.559 8.187-1.59-2.13 3.517-3.619 1.535-6.14-4.582-4.134-8.359 1.945-6.141 7.675 1.825 1.416 3.715 2.767 5.629 4.094 9.972 0.417 16.467-7.525 15.863-16.375-0.269-3.931-2.926-6.387-3.07-9.722-2.162-1.347-3.427-4.034-4.605-5.117-8.889-8.17-22.801-10.567-33.772-9.722-14.528 1.119-28.131 8.179-40.936 15.862-5.806 3.483-12.632 6.234-18.934 9.211-7.089 3.349-15.11 5.818-22.003 6.652-10.639 1.288-17.834-0.407-27.12-1.535-15.57-1.891-38.149-9.185-49.635-0.511-9.889 15.075 0.351 40.673 7.164 52.705 0.028 0.957-0.394 1.083-1.023 0.512 3.145 2.698 5.235 8.263 7.676 12.792 1.21 2.247 2.196 2.964 2.047 4.605-0.021 0.229 2.127 0.489 2.046 1.535-0.006 1.436-1.396-1.218-1.023 1.023 2.402 3.568 4.288 7.652 6.652 11.257 2.317 0.381-0.782-1.404 1.535-1.023 2.545 5.13 6.097 9.254 8.699 14.327 1.33 1.346-0.827 0.403-0.512 2.047 6.301 9.902 12.978 19.431 19.445 29.167 0.516 0.625 0.885-1.096 2.047 0.512 1.206 4.764 5.491 6.449 6.652 11.258-0.806-0.047-0.4-1.306-1.535-1.023-0.002 2.482 1.792 1.225 2.559 2.047 0.554 1.044 2.454 2.091 1.023 3.581 3.079-0.35 2.449 3.01 4.094 4.094 0.765 2.307 1.484 2.528 3.07 4.605-1.292-0.547-3.11 1.271-1.023 1.023 1.307 0.903 0.868-1.011 2.558 0.512 1.11-2.652-0.436-2.132-1.535-3.582 0.564-1.913-0.294-2.218 0-3.582-3.06-4.615-6.193-9.158-9.211-13.815-0.942-1.268-1.795 1.938-2.558-0.512-1.566-1.349 2.205-1.082 0.511-2.559-3.002-4.938-6.979-9.412-10.234-14.327-3.345-5.052-5.447-11.081-10.234-14.84-0.655-3.314-2.859-6.237-4.605-9.21-5.551-9.453-12.025-18.81-16.886-28.655-0.163-2.022-1.583 0.379-2.046-1.023 0.645-0.684 1.538-1.005 0.512-2.047-3.26-6.103-5.701-12.746-8.699-19.445-2.271-5.076-7.413-15.448-6.652-20.979 0.828-6.016 8.394-10.693 14.839-11.257 20.945-1.835 41.233 6.486 64.474 4.605 32.008-2.59 49.888-24.872 78.802-26.608 11.03-0.662 20.112 2.002 25.073 6.652-2.918 0.012-3.092-0.395-5.629 0-9.1 7.108-1.495 20.215 9.211 19.956 0.12-0.003 5.166-0.846 5.629-1.023 6.423-2.457 11.555-13.014 9.723-21.491-0.659-3.048-3.144-4.442-3.07-7.675-1.609 0.073-1.758-1.312-2.047-2.559-7.447-7.313-14.959-12.605-27.632-13.816-38.336-3.664-56.98 24.88-88.013 31.214 28.05-3.757 46.99-28.216 76.75-30.211zm-153.51 82.387c-0.027 0.88 0.394 1.312 1.023 1.535 0.028-0.89-0.394-1.32-1.023-1.54zm2.046 4.09c0.392 1.484 0.81 2.943 2.047 3.582-0.391-1.48-0.809-2.94-2.047-3.58zm18.934 31.21c-1.827 0.186 0.208 2.79 1.023 4.094 0.862 1.38 2.253 3.542 3.07 4.605 0.55 0.716 1.766 2.281 2.558 1.535-2.562-3.07-4.462-6.8-6.651-10.24zm29.676 50.66c1.918 0.367 0.114-0.888 0-1.535-0.226-1.285 0.332-4.402-1.535-4.605-0.552 1.308 2.203 1.791 0.512 2.559-0.923-1.626-1.566-2.009-3.07-2.047-13.234-22.369-28.702-43.705-41.448-66.009-1.879-3.288-3.042-7.289-6.141-9.723-0.979 5.77-5.028 10.173-6.14 13.816-2.46 8.058-0.284 15.139 0 22.003 0.263 6.358-1.486 13.161-2.047 19.957-4.1 4.94-5.457 12.623-6.652 20.468-1.021-1.232 0.894-2.478-0.511-3.582-0.631 3.493-1.157 12.05 1.535 11.258-0.155-0.575-2.031-5.07-0.512-7.164-0.313 3.384 1.088 5.053 2.047 7.164 2.938-1.156 5.989-2.198 9.211-3.07-0.066-3.911-7.867-2.056-9.723-2.559 2.066-1.517 5.497-1.667 8.699-2.047 1.944 2.661 5.031 4.179 8.699 5.117 1.534-3.222 2.221-7.402-1.535-8.699-1.595 1.29-1.309 4.259-1.535 5.629-2.284-2.137-0.28-6.319-2.046-8.188-3.548 1.146-7.818 6.149-12.281 3.07-0.091-2.479 0.675-4.101 1.023-6.141 2.547-1.398 5.314-2.12 7.676-2.047 3.864 0.12 4.831 2.87 7.675 4.605v2.047c2.461-0.414 1.849 2.245 4.605 1.535 1.639-1.942 3.567-3.596 7.675-3.07 0.079-1.272-0.804-1.584-1.023-2.559-3.583 0.341-5.961 1.885-7.675 4.094 0.317-1.881-3.211-2.548-2.047-3.582 2.764-1.785 7.079 1.049 7.164-3.07-3.118-1.433-7.675-0.278-9.211 1.535 0.022-0.704-0.241-1.123-0.512-1.535 1.502-1.738 4.643-1.838 6.652-3.069-0.026-3.797-3.515-6.043-6.652-5.117 0.328 1.89 2.576 1.858 2.047 4.605-3.173 1.653-9.667 3.809-10.234-0.512-0.383-2.919 2.687-3.822 6.652-4.094-0.394-2.414-0.883-6.673 1.535-8.699 3.422-0.159 6.342-0.822 6.652-4.094-0.656-0.879-3.06-0.01-3.07-1.535 1.055-0.31 3.555 0.826 3.07-1.023-0.826-1.496-2.638 0.816-3.07-0.512-0.133-1.668 0.607-2.462 2.047-2.558 1.807 0.24 1.877 2.216 2.559 3.582 3.964 1.428 7.891 0.182 8.699 5.117-1.741-0.035-3.571-0.159-4.094 1.023 2.486 1.607 5.747 2.44 5.117 7.164-0.889 1.328-3.398 1.036-5.629 1.023-0.507 1.368-1.054 2.698-1.023 4.605-0.35 1.015-3.048-0.319-2.558 1.534 2.446-0.569 2.159 1.594 4.605 1.023 0.134-1.498-1.157-1.571-1.023-3.069 1.499-1.742 3.714-2.769 6.141-3.582 1.917 1.323 4.845 1.636 7.675 2.047 0.284-4.037-3.044-4.461-4.093-7.164 1.201 0.505 2.514 0.897 4.093 1.023 0.464-3.705-4.699-1.782-4.605-5.117 3.509 0.414 4.682 3.164 6.14 5.629-0.314 0.709-1.97 0.077-2.047 1.023 2.266 0.634 2.013 3.786 3.07 5.629 2.176 0.212 3.881 0.895 5.117 2.047 0.264 1.302 0.872 1.983-1.023 2.046 1.083-1.074-0.602-1.995-1.023-3.069-2.9 0.271-7.071-1.894-8.187 1.023 3.892 0.371 5.835 2.692 8.187 4.604-1.607 0.44-1.988 2.105-2.559 3.582 1.138 0.738 2.468 1.285 4.605 1.023 1.641-2.05-0.606-5.34-0.512-5.629 2.473 0.413 2.377 3.191 4.605 2.559 0.281 1.986-2.209 1.202-2.558 2.559 0.415 3.35 4.942 1.985 6.14 2.047 0.373 1.396-1.017 1.03-1.023 2.047 1.563 1.448 4.552 5.086 1.535 6.652-3.091-0.15-6.574 0.092-7.164-2.559 2.733-0.02 5.573 2.059 7.164 1.535-0.133-4.535-5.194-6.661-8.699-6.141-0.921 2.969 2.088 2.006 2.559 3.582-1.23-0.368-3.094-1.45-4.094-0.512 0.339 1.878 0.544 3.89 1.023 5.629 0.355 1.009 2.855-0.126 3.07 1.023-0.514 0.68-0.484 1.903-1.535 2.047-3.195-0.387-3.752-3.411-3.582-7.164-1.431-0.786-2.886-1.549-4.094-2.559 3.059 0.159 5.636-0.164 6.141-2.559-1.655-1.954-3.218-0.849-6.652-1.023-1.361 1.12-0.262 2.755-1.023 3.582-0.463-0.901-1.883-0.846-2.046-2.047 0.294-1.07 1.269-1.46 1.023-3.07-2.159 0.57-3.284 2.175-6.652 1.535-0.294 1.07-1.269 1.461-1.023 3.07 1.354 1.174 3.251 1.174 4.605 0 4.422 2.4 6.468 7.178 9.21 11.258 1.301 0.745 3.12 0.974 3.07 3.069-1.583-0.633-2.818-1.629-4.094 0 0.048 3.788 3.605 0.89 3.582 4.605-0.692 0.161-0.978 0.729-2.047 0.512-1.354-1.203-1.922-3.195-3.07-4.605-1.447-0.087-3.51 0.44-3.582-1.023 0.625-1.549-0.428-2.741 0.512-4.604-4.936 1.175-4.752-5.473-7.164-5.117 1.121 1.656 0.605 6.046-1.023 6.652-3.579-1.794-5.005 1.858-9.21 1.023-1.556-1.174-2.97-2.489-4.605-3.582-1.425 1.304-1.739 3.719-4.094 4.094-2.404-1.179-4.377-2.787-6.14-4.605-1.979-0.274-2.498 0.913-4.605 0.512-2.629 4.94-1.784 18.793 1.535 25.073 3.316-2.571 3.49-8.043 7.164-10.234 1.657-0.988 3.418-0.48 5.628-1.535 2.08 0.479 3.197 1.92 5.629 2.047 1.705-2.389 4.042-4.146 7.164-5.117 1.977 1.264 3.701 2.78 4.094 5.629-1.588-0.053-1.46 1.61-3.582 1.023-1.944-0.103-1.942-2.151-4.094-2.047-0.15 1.044-1.384 1.004-1.535 2.047 2.025 1.728 3.861 3.645 7.675 3.582 1.146 2.317 0.474 5.47-2.559 5.117-2.422-0.989-1.544-5.278-4.605-5.629-1.579 3.027 2.542 5.447 1.023 8.188-2.431-1.834-2.37-6.158-4.093-8.699-2.26 0.286-2.891-2.876-5.117-1.023-0.613 2.83 2.65 1.785 2.559 4.094-0.793 0.571-1.066 1.663-2.559 1.535v3.582c3.273 0.544 2.007-3.451 4.094-4.094-0.378 2.108 3.014 3.093 2.047 4.094-2.323-1.774-5.9 3.213-8.188 0-0.261-3.332 1.615-4.525 2.047-7.164-2.25-0.479-1.813-3.646-2.559-5.629-3.163 0.775-3.725 3.787-5.117 6.141-1.494 2.525-3.958 4.653-4.094 6.141-0.375 4.105 4.349 9.521 6.141 11.769 6.976 8.749 18.679 16.824 26.608 20.98 2.94-1.836 8.172-1.38 11.257-3.07 2.904-4.771 8.063-7.288 12.281-10.746 5.248-8.669-4.431-21.261-1.023-28.655 1.352-2.934 3.433-6.728 7.164-9.211 0.964-4.968-4.023-7.746-3.582-11.769-0.01 0.36-0.01 0.7-0.01 1.04zm-63.449-9.21c5.792 0.846 6.697-3.196 11.258-3.582 0.423-1.446-0.722-1.325-0.512-2.559-4.936 0.69-9.704 1.55-10.746 6.14zm22.515-18.42c0.472 2.348-1.28 2.472-1.023 4.605 0.006 1.017 1.396 0.65 1.023 2.047h2.558c0.627-2.54-0.076-5.8-2.558-6.66zm41.964 25.07c-0.243 1.607 0.638 2.091 1.535 2.559-0.18-1.19-0.53-2.2-1.54-2.56zm-3.08 54.24c-1.611 1.292-3.442 1.388-4.094 3.07 1.291 1.268 3.462 1.655 3.582 4.094-1.339-2.312-2.082 0.397-2.047 1.023-1.204-1.726-3.803 0.377-2.559-2.559-0.397-0.115-1.009-0.015-1.023-0.512-1.81 0.236-3.184 0.909-4.093 2.047 1.948 0.876 3.194-1.517 3.582-0.512-0.132 2.67-1.186 1.756-2.047 3.07 0.644 0.209 1.046 0.659 1.023 1.534-1.438-1.607-1.4 1.328-2.558 0 0.203 2.186 2.264 2.512 2.558 4.605-1.422-0.965-1.704-3.071-4.605-2.559 0.022 0.705-0.241 1.124-0.512 1.535 1.809 0.258 4.968 1.828 3.582 3.582-0.076-2.141-2.294-2.14-3.582-3.07-1.055 1.625-3.582 2.923-3.582 4.094-1.968 0.224-0.823-3.85 1.023-3.07 0.064-2.281-3.133-1.301-3.582-3.07-1.586 1.574 1.477 4.249-1.535 4.094 0.051 1.825 2.25 1.502 3.07 2.559-0.242 1.347-0.401 1.724-1.535 3.07 0.656 0.879 3.06 0.011 3.07 1.535-0.897 0.142-2.553-1.44-3.07 0 1.24 0.808 2.263 1.831 3.07 3.07-1.302-0.297-2.496-2.049-3.582-1.023-0.544 1.908 1.919 0.81 1.535 2.559-1.933-0.626-2.889-2.228-5.628-2.047 0.152 2.68-2.145 3.972 0.512 5.117-1.357 0.008-3.013-0.284-3.07 1.023 1.508 0.726 5.463 1.677 4.605 3.07-1.518-1.382-4.918-0.881-5.628-3.07-1.798 0.268-4.59 2.207-3.582 3.582 0.718-0.818 1.763-1.308 3.07-1.535 0.576 1.827 5.762 1.722 4.605 3.582-1.497-1.205-3.091-1.523-5.117-1.023 0.294 2.277 5.758 2.068 4.605 4.093-1.254-0.963-2.503-1.931-4.605-2.047-0.302 1.062-0.985 1.745-2.047 2.047-0.153 1.007 0.691 1.015 1.023 1.535-1.233-0.209-1.112 0.935-2.559 0.512 2.662 2.897 6.08 4.404 8.699 6.141-2.489-0.441-2.629 1.465-5.117 1.023-0.589 1.501 2.454 1.9 1.023 2.559-1.719-1.521-3.751-2.73-6.652-3.07-0.688 1.444 2.711 1.282 1.023 2.047-1.333-1.052-3.45-1.213-4.094 0.512 0.314 0.709 1.97 0.077 2.047 1.023h-2.558c-1.557 0.902 1.396 1.584 0 2.047-2.614-0.655-0.542 1.491-1.535 1.535-3.725 0.414-8.925-2.086-10.746 1.023 3.113-0.178 7.124-0.421 9.211 1.023-1.565-0.371-1.505 0.883-3.07 0.512-0.829-1.191-7.185-2.198-7.164 0.512 6.868-0.729 10.038 2.242 15.351 3.07-0.028 0.654-0.656 0.708-0.512 1.535 2.334-0.29 2.165-0.116 4.605-0.512-0.173-3.073 2.956-2.844 3.07-5.629-1.308-0.058-1.791-0.938-2.559-1.535 1.98-0.567 1.82 1.809 3.07 0.512 0.632-1.656-1.656-0.392-1.023-2.047 0.769 0.591 2.155 1.796 2.559 0-0.893-0.783-3.793-2.767-4.605-0.512 0.397 0.114 1.009 0.014 1.023 0.512-3.069-0.022-1.212 2.431-4.094 3.07 0.358 1.575 0.358 0.983 0 2.559 1.338-0.145 2.201 0.187 2.047 1.535-1.869-0.86-4.896-0.562-5.628-2.559 1.372 0.418 2.558 0.794 2.558-0.512 0-1.66 1.321-0.445 1.023-3.582 1.951 0.934 3.121-3.637 2.559-4.094 1.364 1.579 4.571 2.729 6.652 2.047 0.114 0.968-0.577 1.129-0.512 2.047 1.396 0.373 1.03-1.017 2.047-1.023 0.247-1.612-1.571-1.158-1.023-3.07 0.654 0.028 0.708 0.656 1.535 0.512 0.163-1.187-0.083-1.965-0.512-2.559 1.396-0.046 1.03 0.853 2.046 0-0.644-1.929-2.995-4.833-2.558-6.141 0.743 2.157 3.048 2.752 3.07 5.629 1.925-0.059 0.353-2.312 2.559-1.023 0.091-2.308-1.987-2.447-3.07-3.582 0.621-1.938 1.474-3.644 3.07-4.605-1.307-1.081-2.263-2.513-3.07-4.093 1.304 1.317 2.985 1.121 4.094 1.535-1.25 2.023 0.928 4.34 3.582 4.093 0.079-2.399-0.414-5.077 3.582-6.14-0.902-0.964-1.584 0.699-2.047-1.023 0.685-0.812 1.193-2.909 2.558-1.535-2.102-2.709 1.57-4.526-0.511-6.652-2.06-0.354-1.257 2.154-3.07 2.047-0.227 1.932 1.009 2.402 1.535 3.582-1.189-0.347-1.37-1.701-2.559-2.047-0.548 1.498-1.452 2.642-1.023 5.117-1.644-0.45-0.701 1.687-2.047 1.535-0.477-0.547-1.888-0.159-1.535-1.535 0.445-1.488 0.766-0.576 2.047-0.512 0.583-2.801-2.182-2.253-2.559-4.094 1.207 0.158 0.952 1.777 2.559 1.535 0.373-1.162 1.54-1.53 2.559-2.047 0.247-1.612-1.571-1.159-1.023-3.07 2.017-0.133 3.109-1.186 3.07-2.047 1.182 1.034 2.281-0.354 4.093 0.512-0.216-2.434 1.796-2.639 2.559-4.094-1.375-1.119-3.026 0.763-4.094 1.535 0.21-1.232-0.934-1.112-0.511-2.559 1.807 1.066 4.501-1.84 5.117 1.535 1.308-0.228 2.353-0.718 3.07-1.535-5.185 0.118-4.279-5.501-5.117-7.676 0.896 0.981 0.602 3.151 2.559 3.07 1.255-1.984-2.707-4.395-1.535-6.14 1.771 1.47 1.94 4.541 4.605 5.116 0.48-1.685 1.86-2.534 4.094-3.582-1.1 1.092-0.19 2.787 1.023 3.07 0.209-0.643 0.66-1.045 1.535-1.023 0.295-2.135-1.632-3.74-3.07-2.559 0.115-0.967-0.577-1.129-0.512-2.046 1.656 0.632 0.391-1.656 2.047-1.023-1.036 2.681 2.17 3.793 4.605 3.581-0.038-2.69-1.623-3.835-3.582-4.604 0.051-2.269-0.606-3.829-2.559-4.094-0.337 1.871 1.107 1.963 1.023 3.582-1.839-0.831-2.176-3.476-4.094-1.535-1.377-0.88-1.999-2.464 0-3.07 1.684 0.021 2.547 0.863 4.605 0.512 1.078 0.968 1.148 2.945 2.558 3.582 0.113-0.399 0.429-0.595 1.023-0.512-0.085-3.497-3.438-3.727-6.14-4.605 1.311-0.054 2.439-0.29 3.07-1.023-3.16-3.12-3.1-1.16-4.61 0.04zm8.19 8.19c0.188 1.518 0.887 2.524 2.047 3.069 0.887-0.647 1.341-1.729 3.07-1.534 0.079-1.273-0.804-1.585-1.023-2.559-2.52 0.11-1.95 0.33-4.1 1.02zm4.61-2.05c-1.342 1.002 2.041 3.909 2.559 1.535-1.21-0.16-0.96-1.78-2.56-1.54zm13.81-1.53c-0.707-0.067-1.125-1.082-2.047-1.023-3.222 0.205-6.852 3.078-9.21 0.512 0.136-2.797-1.255-7.759-3.07-10.234-0.361 1.621-2.944 1.626-5.117 1.023-0.703 1.167 1.319 1.924 0 2.047 0.24-1.152-2.777-1.578-3.07-0.512 0.477 0.546 1.887 0.159 1.535 1.535-1.575 0.381-0.983-1.404-2.558-1.023-0.985 1.359 1.149 3.018 3.582 2.559-0.021-1.575 3.334-3.766 5.117-2.047 0.08-0.603-0.088-1.452 0.512-1.535 0.43 0.594 0.675 1.372 0.512 2.559-1.426 1.251-3.114-0.725-4.094 0.512 1.576 1.324 3.099 2.701 3.07 5.629 1.607 0.852 2.091-1.903 2.559-0.512-0.415 3.96 3.265 4.063 5.117 2.047 0.982 1.645 2.576 0.396 5.117 1.023 0.08-0.603-0.088-1.453 0.512-1.535 0.501 1.567 1.725-0.229 2.047-0.512 1.554 1.921 4.406 2.209 6.652 1.535-0.597-0.768-1.478-1.252-1.535-2.559-1.91-1.08-3.69 0.69-5.63 0.51zm-10.74-7.68c0.638-1.55-1.702-2.653-2.047-1.535 0.99 0.21 0.41 1.98 2.05 1.53zm-36.333 30.19c1.032-3.424-0.08-4.771 1.535-7.164-0.355-0.4-2.855-1.139-3.07 0-0.673 1.039 0.048 1.583-1.535 3.07 0.68 0.514 1.904 0.484 2.046 1.535-0.804 0.049-1.774-0.068-1.535 1.023 0.768 0.61 1.252 1.49 2.559 1.54zm-63.451-42.47c8.742 3.693 5.972-7.654-0.512-7.675-0.158 1.206-1.777 0.952-1.535 2.559 1.92 1.73 2.585 3.24 2.047 5.11zm76.244-217.98c0.433 1.103 3.262-0.192 3.582 1.023-0.16 2.396 0.679 6.337 3.582 7.164 2.015-4.248-2.178-7.906-4.094-11.257h-2.559c-0.59 0.605-0.58 1.808-0.51 3.07zm14.84 4.093c1.05 0.997 1.681 2.414 2.559 3.582-1.049 1.339-3.712 1.064-4.094 3.07 3.027 1.342 4.789-2.607 7.676-3.07-0.32-2.542-3.96-6.222-6.15-3.582zm13.3 1.024c0.686 0.913 2.962 1.583 4.094 0.512 0.05-2.359-3.75-2.66-4.09-0.512zm2.56 2.558c1.761 2.163 3.354 4.492 6.652 5.117 0.36-4.031-3.95-5.809-6.65-5.117zm5.63 16.886c-0.39-2.851-2.953-3.529-5.629-4.094-0.46 1.578 2.51 6.102 5.63 4.094zm-23.03 3.071c1.519 1.307 2.524-0.847 3.07 0 0.069 1.636-0.504 3.916 1.535 3.582 2.018 0.142 0.148-3.604 1.535-4.093 1.119 0.075 1.099 1.289 1.023 2.559h2.559c1.83-4.797-8.89-7.905-9.73-2.048zm94.16 7.163c-6.491 43.75-14.369 87.54-20.979 133.55 2.598 2.689 6.901 3.674 11.258 4.605 2.893-23.513 7.185-46.708 11.257-69.591 4.116-23.128 6.933-46.156 12.281-68.568-3.22-0.377-10.99-0.604-13.82 0.002zm-14.33 3.071c-4.021 22.776-8.69 45.073-11.77 67.544-1.995 14.566-5.442 28.893-6.141 43.495 1.52 0.689 5.303-0.497 6.652 1.535 0.31 1.226 0.736 2.334 0.512 4.094-3.938 0.525-6.035-0.787-8.698-1.535 0.288 2.335-0.907 3.187-0.512 5.629 0.954 1.604 3.652 1.464 5.116 2.559 1.869 2.225 3.169 5.018 6.141 6.14 7.526-43.643 13.822-88.518 21.491-132.02-0.028-0.312-0.076-0.605-0.512-0.512-3.76 1.339-8.34 1.882-12.28 3.057zm29.17-2.559c-6.937 44.99-16.063 91.098-23.026 137.65 3.582-0.761 7.274-2.883 8.698-5.629 1.413-2.722 1.29-7.667 2.047-12.792 1.386-9.375 3.351-17.721 4.605-26.097 2.423-16.167 5.488-33.664 7.676-48.611 1.17-7.997 4.113-12.763 3.582-19.445-0.222-1.764 1.324-1.244 1.535-3.582-2.995-6.463-2.585-12.465 0.512-16.886 0.828-1.183 3.89-3.185 2.046-3.582-1.98-0.938-4.73-1.094-7.69-1.028zm-164.77 2.559c-10.038 3.739-11.548 15.657-9.723 25.585 0.282 1.534-0.384 4.098 1.535 4.605-1.301-7.846-1.159-17.656 2.559-23.027 8.022-11.587 27.547-4.567 40.424-3.582-10.964-2.458-25.019-7.223-34.795-3.581zm111.04 119.74c0.604 0.589 1.809 0.579 3.07 0.512-0.304-1.633 0.96-1.583 0-2.559-1.62 0.1-3.05 0.36-3.07 2.05zm-4.61-15.86c2.359-0.028 5.003 0.227 6.652-0.512 1.557-0.902-1.397-1.584 0-2.046 2.209 0.333 2.868-0.884 4.093-1.535-0.242-2.815 2.083-5.746 0.512-8.188-0.657 2.072-2.425 3.033-2.558 5.629-2.942 0.087-3.152 5.199-6.141 3.582 1.37-2.382 4.849-2.656 5.117-6.141-2.457-0.222-4.534 2.606-6.141 1.535 2.543-1.55 5.713-2.474 7.676-4.605-3.04-1.642-5.09 0.666-7.676 1.023 0.721-2.597-1.138-2.615-2.047-3.582 1.684-2.581 3.254-5.274 5.117-7.676-0.966-1.836-2.32-0.623-3.582-1.535 1.978-3.606 6.125 0.497 7.164 2.559-3.681 0.61-7.296 3.348-5.117 8.187 3.011-1.001 6.5-0.241 9.21 0.512 0.783-10.208 2.989-20.683 4.094-29.678 2.549-20.75 8.462-41.512 9.723-59.869-4.671 1.81-8.64 4.323-13.305 6.14-7.396 43.03-16.039 86.119-23.538 130.48 2.225 4.464 4.528 7.684 7.164 11.258 1.568 2.126 3.282 5.277 5.629 5.116 0.648-7.368 1.838-14.194 3.07-20.979-1.612 0.247-1.159-1.57-3.07-1.023-1.736 0.823-1.891 3.227-4.094 3.582-6.366-2.133-0.943-10.568-4.094-16.374 1.106-1.281 3.722-1.055 5.629-1.535-0.161 0.691-0.729 0.977-0.512 2.047 1.932 0.269 2.402 0.719 3.582-0.512 0.198-2.587-2.952-1.824-3.07-4.094 0.849-0.857 3.004-0.407 4.605-0.512-0.057 0.967-1.692 0.354-1.535 1.535 1.188 0.41 2.905 1.639 4.094 0.512-0.024-4.581-6.805-2.406-6.141-7.676-3.165 1.099-2.068 6.461-5.629 7.164 0.449-3.815 2.429-6.1 4.094-8.699 3.936-1.02 6.77 1.161 9.723 2.559 0.624-1.593 1.19-3.244 1.023-5.629-3.794-0.041-7.621-0.116-10.746 0.512-0.01-2.562-2.423-5.405-1.023-7.675 1.81 1.91-0.03 4.41 2.09 6.13zm-41.45-96.712c-3.27-0.59-1.12 1.563 0 0zm4.1 0c-0.743 0.28-2.645-0.598-2.558 0.512 0.74-0.28 2.64 0.598 2.56-0.512zm79.31 156.07c0.582-3.131 0.512-6.129 1.023-9.211 2.454-14.777 6.768-29.491 7.164-45.029-2.387 9.824-3.363 21.194-5.117 32.237-1.22 7.685-3.707 15.462-4.605 23.026-0.751 6.327-1.657 10.926-2.558 15.352-0.773 3.799-0.852 7.524-2.559 10.233-1.41-5.42 0.109-11.696 2.047-17.397 0.555 1.311-1.555 2.439 0 3.07 1.053-6.368-0.014-16.242 4.093-22.004-3.133-5.455 3.485-14.644 1.023-19.444-1.86 1.893-4.921 2.583-7.675 3.582-2.399 15.972-5.867 33.199-7.676 48.1 2.125 3.082 5.724 5.943 6.141 9.211-3.113-1.662-3.91-5.643-6.652-7.676-1.848 7.883-2.628 16.546-4.094 23.538-3.71-0.551-0.866-3.99-0.512-6.14 0.916-5.559 1.443-13.811 3.07-18.934-3.458-3.876-6.134-8.535-9.723-12.28-0.098 6.809-1.72 12.689-2.559 18.933-0.205 1.528 0.883 3.968-1.023 5.117-3.008-6.654 3.269-20.223 2.047-25.073-0.6-2.385-3.692-4.849-5.116-6.652-1.769-2.239-2.979-4.835-5.629-6.141-0.244 3.536-1.88 7.893-2.559 12.281-0.447 2.893 0.803 7.062-2.047 8.698-0.487-7 1.789-15.585 3.07-22.515-4.413-5.139-8.212-10.892-12.281-16.374-0.225 2.826-1.28 5.567-1.535 7.164-0.703 4.404 0.256 9.269-2.047 13.304-2.134-7.084 2.626-18.836 1.535-25.073-5.147-3.38-6.852-10.205-11.769-13.815 0.344 4.063-1.619 9.368-2.559 14.327-0.367 1.938 0.506 4.554-1.535 5.629-1.948-5.817 3.646-17.675 3.07-23.538-1.941 1.569-4.053-3.765-3.582-4.605 1.9 0.829 1.559 3.899 4.094 4.094 1.21-3.055 0.42-8.108 3.07-9.723-0.126 4.479-1.009 8.201-2.046 11.77 2.903 1.637 8.372-0.527 11.257-2.047-4.433-0.855-7.788-2.787-6.652-9.211 1.368-1.191 3.734-1.383 5.628-2.047 1.266 1.635 4.752 1.047 5.117 3.582-1.771-0.927-6.263-3.536-8.187-1.023 1.848 1.904 5.429 2.076 7.163 4.094 0.653 2.018-1.4 1.328-2.047 2.047 0.87 2.49 0.765 2.868 0.512 6.141-2.386 0.712-5.373 1.085-5.116 3.069-0.829-1.902-2.363-0.085-3.583 0.512 2.921 2.878 4.295 7.304 7.675 9.723 8.61-42.423 14.422-81.836 22.516-125.88-5.727 1.779-10.234 4.776-15.863 6.652-3.664 22.415-8.369 45.247-11.769 68.056-0.907 6.085-3.088 9.603 2.046 12.281 1.368-0.509 0.304-3.449 3.07-2.559-1.19 2.09-1.992 4.224-0.512 6.652 2.474 0.239 4.371-2.77 6.141-1.535 0.136 3.704-2.722-0.529-4.094 2.559 0.449 2.642 1.859 2.671 3.582 3.07-1.93 3.659-5.872-1.261-8.188-2.047-1.575 0.934 1.028 2.869-0.512 3.582-0.911-1.135-2.015-2.079-1.534-4.605 1.47 0.106 2.599-0.13 3.069-1.023-2.136-1.309-2.442-1.878-4.605-3.582-2.894 2.672-0.601 7.41-3.582 9.722 4.514-30.282 9.22-60.371 15.351-89.036-5.493 0.306-8.246 3.352-14.328 3.07-3.223 30.038-9.911 56.61-13.304 86.478 1.585 2.338 4.145 3.701 5.117 6.652-3.528-0.055-2.975-4.188-6.141-4.605 0.336 2.57-0.643 4.13 0 5.629-2.808 1.968-0.07 9.48-4.093 10.233-0.307-6.667 4.459-12.298 3.07-17.397-0.523-1.923-3.152-4.371-4.605-6.14-1.569-1.911-3.151-4.427-5.629-5.117-1.723 4.076-0.121 11.478-3.582 13.816-0.179-4.498 1.883-11.04 2.047-16.886-2.821-3.319-4.932-7.349-8.187-10.234-1.755 5.266-1.203 14.309-3.07 17.91-2.724-4.617 0.973-13.32 1.535-19.445-3.382-1.905-3.873-6.703-7.675-8.187-0.734 2.706-0.536 6.246-1.023 9.21-0.336 2.04-0.616 4.63-2.047 5.629-1.78-6.231 3.052-12.252 1.535-17.398-0.499-1.691-2.5-3.181-3.582-4.605-1.282-1.687-2.036-3.753-4.094-4.605-0.202 5.086 0.753 11.328-2.047 13.816-1.521-4.597 1.587-8.982 1.023-14.327-2.603-3.026-3.943-7.314-7.164-9.723-1.478 3.64 0.02 10.254-2.047 13.304-2.483-4.412 1.023-10.173 0.512-15.863-4.766-3.937-7.283-12.26-12.281-14.328 0.624-0.058 1.211-0.153 1.023-1.023-1.661-0.59-1.03-2.051-2.047-3.07-0.768-0.77-1.891-0.389-2.559-1.023-0.746-0.709-0.306-3.326-2.559-2.559 0.708 3.312 1.417 3.794 2.047 6.652-1.746-0.812-1.597-3.521-3.07-4.605-1.468 2.967 3.185 10.942 0 7.675 0.102 1.714 1.9 3.268 0 4.094 2.618 4.717 3.93 10.739 7.164 14.839 17.349 39.789 42.845 71.435 64.986 106.43 3.988 2.835 5.97 7.272 8.699 11.258 2.062 3.012 4.615 5.74 6.652 8.698 12.261 17.81 25.684 36.265 37.865 53.217 1.849 2.573 3.083 5.641 5.629 7.676 10.688-6.027 20.016-13.415 30.19-19.956-3.688-5.182-6.742-10.996-11.258-15.352-2.258 7.294-2.036 17.067-5.629 23.027-6.386 2.191-10.518-2.354-14.327-3.07-0.724-1.343-2.58-4.217-2.047-5.117 1.831 2.273 3.053 1.873 6.141 1.023 0.163 1.187-0.082 1.965-0.512 2.559 3.128-0.936 1.629-4.253 2.047-6.652 0.872-5.008 2.264-11.056 3.07-15.862 0.613-3.657 2.398-7.565 1.023-9.723-0.199 1.336-0.263 2.808-1.023 3.582-0.385-2.198 0.916-3.9-1.023-6.141 1.935 0.741 0.981-1.406 2.559-1.023 0.734 1.525-1.797 3.118 0.512 3.07 2.04-10.38 3.89-21.18 5.66-30.71zm-60.38-51.69c0.227 3.525 2.704 4.8 5.628 5.629 0.134-0.72 1.123-0.584 1.535-1.023-0.81-3.12-4.2-3.65-7.17-4.61zm-114.11-92.101c1.207 0.751 0.952 1.08 2.559 0.511 0.383-1.918-0.577-2.493-2.047-2.558 0.114 0.968-0.577 1.129-0.512 2.047zm39.912-2.046c-1.972 1.78-4.718 2.787-6.652 4.605-0.534 6.845 2.578 10.044 5.117 13.816 4.211-2.901 7.164-7.905 9.21-12.281 0.647-1.384 1.244-3.452 2.559-4.605 1.652 1.172 0.029 3.689-0.512 5.117-2.136 5.64-6.521 10.19-9.211 14.328 2.993 2.807 4.526 7.073 7.676 9.722 1.609-7.814 2.287-16.281 3.582-23.538 0.349-1.957-0.948-5.179 2.047-5.628-0.564 9.175-2.812 21.055-4.094 31.213 2.858 2.088 3.28 6.613 7.164 7.676 1.837-9.444 2.95-20.218 4.605-29.167 0.533-2.884 1.087-6.289 3.07-8.188-1.427 12.127-4.451 25.98-6.141 40.425 2.794 2.04 4.415 7.786 7.676 7.675 2.407-16.184 4.823-32.36 8.187-47.588-10.625-1.104-22.857-3.12-34.286-3.579zm158.63 33.26c0.612-3.565 1.229-9.828 2.047-14.328 0.283-1.558 0.642-4.967 2.559-5.117-0.507 1.369-1.054 2.698-1.023 4.605 2.076-0.483 0.821-4.296 2.047-5.628-0.766-0.087-1.888 0.183-2.047-0.512 0.044-1.663 0.264-3.147 1.023-4.094 1.126 1.127-1.238 2.823 1.023 3.07-0.154-1.805 2.16-4.907 0-6.652-0.468 0.897-0.176 2.553-1.023 3.07-0.669-1.741 1.141-3.571 0-4.094-0.759 0.606-0.796 1.933-1.535 2.559 0.384-2.366-0.576-2.089-2.047-1.535 1.22-1.369-0.407-2.996-2.558-2.558-0.896 7.31-2.121 12.646-2.559 19.444 2.026-1.269 1.165-4.333 1.535-6.652 0.665-4.168 1.339-9.071 3.069-11.77 0.012 1.206-0.881 1.507-0.512 3.07 1.007 0.153 1.016-0.691 1.535-1.023 0.286 3.888-1.23 9.888-2.558 13.816-0.133-4.062 1.913-8.652 1.022-11.769-1.558 6.047-1.835 11.441-1.534 15.863-0.059-0.625-0.153-1.211-1.023-1.023-0.459 5.697-1.332 11.333-2.559 17.91 0.624 0.058 1.211 0.153 1.023 1.023-1.154 0.744-2.655 3.796-1.535 5.117 0.122-0.556 0.843-1.229 1.023-0.512-1.726 4.474 0.728 15.588-4.094 12.792 0.124 1.733-0.499 6.21 1.023 3.582-1.397 14.33-3.33 26.711-6.652 39.913-1.599 0.156 1.301-1.479-0.512-1.535-0.487 1.091-1.898 6.713 0 4.094 0.288 2.335-0.907 3.187-0.512 5.628-0.704-0.021-1.124 0.241-1.535 0.512-0.305 3.106-0.893 5.931-1.535 8.699 0.08 0.603-0.088 1.452 0.512 1.535v-2.047c0.895-1.152 0.262-3.832 1.535-4.605-0.608 3.656-1.013 7.516-2.047 10.746-0.279-0.744 0.598-2.645-0.512-2.559-1.895 8.074-1.881 15.084-4.094 23.026 2.694-0.035 0.322-5.136 2.559-5.629-0.737 3.527-0.776 7.752-2.559 10.234 0.533 6.033-1.508 13.348-3.07 18.933 0.335-5.979 2.786-12.561 2.559-17.397-1.109 5.046-4.37 13.551-3.581 17.909 0.159 0.882 1.027-0.23 1.022 0.512-0.001 0.182-1.002 1.499-1.022 2.559-0.076 3.865 0.39 8.655-1.535 12.793-0.497-2.148 0.435-6.062 1.023-8.699-2.065 0.911-1.121 3.814-1.535 5.629-2.054 8.992-4.487 20.095-5.117 28.144-0.766 0.087-1.889-0.183-2.047 0.512 0.975 0.219 1.285 1.103 2.559 1.023 1.871-8.362 2.434-18.034 4.605-26.097 0.948 4.706-1.405 10.531-2.047 15.351 1.818 0.796 0.309-1.738 1.535-1.535-0.305 1.061 0.632 3.361-0.512 3.582-0.677-0.006-0.468-0.896-1.023-1.023-0.885 3.209-1.162 7.025-2.047 10.234 0.744 0.961 3.349 0.062 4.094 1.023 1.935-2.671 2.608-6.602 3.069-10.746 0.705-0.022 1.124 0.241 1.535 0.512-0.59-1.662 1.563-3.147 0-4.094-0.116 0.907 0.516 2.562-1.023 2.047 3.098-4.072 0.655-11.176 3.07-16.374 0.28 0.743-0.598 2.645 0.512 2.559 0.697-1.622 0.74-3.909-0.512-3.582 0.95-3.997 0.614-9.279 2.047-12.793 1.859 0.326-1.188 2.393 0.512 2.559 0.742-2.538 0.752-3.824 0.512-6.652-0.122 0.557-0.843 1.229-1.023 0.512 3.443-13.443 4.229-29.543 8.188-42.471-1.227-1.595-0.403-5.501 1.535-5.629-0.433-1.82 1.481-3.066-0.512-3.582-0.08 0.603 0.088 1.453-0.512 1.535-0.245-3.653 1.067-3.463 2.047-5.117-1.525-5.77 1.065-10.707 1.023-14.839 1.055 0.45 1.938-1.687 1.023-1.535-1.065 0.792 0.452-3.058-1.023-4.094-0.28 0.743 0.598 2.645-0.512 2.559-0.017-2.011 0.253-6.449 1.535-4.094 1.002-1.424 0.429-4.387-0.512-1.535v-3.07c0.73 0.123 0.863 0.843 1.535 1.023 0.408-2.832 1.022-5.459 1.535-8.187-0.881-0.202-1.312 0.759-1.535 0 3.12-14.97 4.16-30.4 6.66-44.987zm-20.98 149.93c-0.438-3.35 1.801-6.712 0.512-9.211 0.15 2.82-2.38 8.03-0.51 9.21zm16.38-108.48c-0.598-3.759 2.648-6.439 0.512-8.699-0.04 2.71-1.98 6.2-0.51 8.7zm-206.73-66.009c2.29 1.218 2.67-1.938 5.117-2.047-0.439-1.948-2.005-2.77-4.094-3.07-0.541 1.432-2.428 3.339-1.023 5.117zm81.871 33.259c-0.794 4.58-2.277 9.716-1.535 12.792 0.805 3.334 5.249 5.431 6.652 8.699 2.938-19.918 6.492-39.22 10.234-58.334-2.937-0.645-6.338-0.826-9.21-1.535-1.25 10.463-4.13 26.879-6.13 38.379zm28.66-36.329c-3.377 18.161-7.596 43.216-10.746 62.939-0.49 3.068-1.357 6.475-1.023 8.187 0.512 2.625 3.301 3.874 5.117 6.141 1.854 2.313 2.382 5.616 5.117 6.14 3.593-28.489 10.345-56.496 12.793-84.431-3.75 0.344-7.67 0.526-11.26 1.022zm-12.28 0.512c-2.683 18.126-6.484 39.568-9.722 58.846 4.273 1.697 4.642 7.297 8.699 9.21 2.814-23.965 7.748-45.811 11.257-69.08-2.71 1.054-6.87-0.277-10.24 1.023zm-85.458 3.07c-1.863-1.007-4.649-3.343-7.164-2.047 1.698 3.248 3.031 6.862 7.164 7.676-0.263-2.38 0.622-2.691 0-5.629zm-10.746 8.187c0.856 0.679 1.715 1.356 3.582 1.023 0.053-1.703-1.137-4.48 2.559-4.605-0.435-2.295-1.724-3.735-3.582-4.605-1.715 1.867-2.621 4.543-2.559 8.187zm1.024-8.187c-1.774-0.21-2.603 3.158-1.535 4.094 0.246-1.63 1.611-2.142 1.535-4.094zm34.795 2.047c0.029 0.312 0.076 0.605 0.512 0.512 0.423-2.535 1.792 1.188 2.558-0.512-0.91-0.455-1.3-1.429-3.07-1.023v1.023zm-44.518 7.675c-0.195-2.875-2.735-3.406-2.047-7.164h-1.535c-1.82 2.675-0.967 8.832 3.582 7.164zm-1.023-4.605c-0.176 2.149 2.487 3.28 4.094 2.047-0.336-1.882-1.887-2.548-3.07-3.582-0.047 0.807-1.306 0.4-1.024 1.535zm47.076 0.512c-0.07-0.953-0.336-1.71-1.023-2.047 0.116 0.907-0.516 2.563 1.023 2.047zm-8.187 2.047c1.306 4.139-0.888-3.383 0 0zm-23.026 0c-0.514 0.68-0.484 1.904-1.535 2.046-2.36-0.028-5.003 0.227-6.652-0.512-1.461 3.334-2.592 5.352-2.559 9.211 0.314 0.709 1.97 0.077 2.047 1.023-0.321 1.043-2.585 0.144-2.047 2.046 1.424 1.476 5.495 0.305 6.652 2.047 0.115 0.968-0.577 1.129-0.512 2.047 1.267 0.283 4.778 0.565 5.117-1.535-0.293-1.242-3.311 0.24-3.07-1.535 1.578-0.81 5.187 0.412 5.117-2.046-1.401-2.352-8.259 0.754-7.164-4.094 1.648 0.611 3.606 2.923 5.629 1.535 0.105-2.152-1.945-2.149-2.047-4.094 2.035-1.011 3.308-0.335 4.094-3.07 0.527 1.731 4.185 2.345 5.628 1.535-1.327-3.107-5.201-3.667-8.698-4.604zm-12.793 4.093h2.046c0.722-0.978-0.141-3.647-2.046-3.582-0.73 0.683-0.73 2.899 0 3.582zm219.01 1.024c1.545 0.789 1.347-2.648 0.512-2.559-0.42 0.594-0.67 1.372-0.51 2.559zm-8.19 5.117c1.258-0.059 2.459-4.639 0.512-4.605-0.01 1.683-0.86 2.547-0.51 4.605zm-183.7-0.512c-1.899-0.66-1.9-3.217-4.605-3.07 0.638 1.597 3.634 3.506 4.605 3.07zm191.89-2.559c-1.59 5.45 1.09 3.565 0 0zm-11.77 27.628c1.501-0.36 1.507-1.718 2.559 0-0.72-2.118 1.459-3.953 0-5.117-0.683 0.853 0.186 3.256-1.535 3.07 0.473-4.137 2.083-9.63 2.559-14.328 0.157-1.555 0.739-4.804-0.512-5.628-1.07 7.919-2.41 14.876-3.07 22.006zm10.75-17.905c0.083-0.356-0.179-2.978-0.512-1.535-0.45 1.948 0.27 2.562 0.51 1.535zm0 5.625c0.076-1.27 0.096-2.483-1.023-2.559-0.08 1.273-0.1 2.489 1.02 2.559zm-1.54 4.1c-0.718-1.791 1.436-3.276 0-4.094-0.54 0.52-1.05 3.65 0 4.09zm-9.72 1.53c1.26-3.18-1.6-1.68 0 0zm7.68 9.72c0.132-3.17 2.887-8.39 1.023-10.234 0.24 2.81-1.89 7.19-1.02 10.23zm-5.63 2.05c-0.178-1.412 1.469-3.594 0-4.605 0.18 1.42-1.47 3.6 0 4.61zm-2.05 0.51c1.266-1.638-0.577-3.576 0-0.512-0.11-0.6-0.45 1.1 0 0.51zm-1.02 5.63c-0.002-1.566 2.051-3.709 0.512-5.117 0.38 1.95-2.1 3.67-0.51 5.12zm7.67-0.51c-0.715-1.47 1.395-2.599 0-3.07-0.4 0.35-1.14 2.85 0 3.07zm-8.7 2.56v1.023c1.259 0.795 1.505-1.738 0.512-1.535-0.02 0.32-0.07 0.61-0.51 0.52zm2.05-0.51c-1.27 3.37 1.71 2.32 0 0zm-2.05 5.11c0.149-0.314 1.272-1.97 0-2.047-0.14 0.32-1.27 1.98 0 2.05zm-2.04 23.03c1.868-7.343 2.96-15.461 4.094-23.538-0.113-0.399-0.429-0.595-1.023-0.512-0.53 8.86-3.19 15.81-3.07 24.05zm1.53-19.96c0.149-0.314 1.272-1.97 0-2.047-0.15 0.32-1.27 1.98 0 2.05zm-2.04 4.61c-0.08-0.602 0.088-1.453-0.512-1.535-1.201 2.017 0.963 1.565 1.023 3.582-0.446 1.118-1.565 4.194-0.512 5.117 0.961-2.969 1.889-8.678 1.535-11.258-0.83 1.05-0.4 3.36-1.53 4.1zm26.6 3.07c0.699-1.007 0.488-2.923 1.023-4.094-1.207-0.158-0.952-1.777-2.559-1.535-1.27 1.91 0.11 4.81 1.54 5.63zm-17.91-3.07c0.459-0.081 0.262-2.83-0.512-1.023-0.13 0.3 0.21 1.07 0.51 1.02zm18.94 3.58c0.797 0.738 1.01 2.061 3.07 1.535 0.71-1.526 0.604-3.132-1.023-3.582-0.47 0.9-1.89 0.84-2.05 2.04zm-223.62 5.12c-0.252 1.607 1.764 1.352 0.512 2.559-1.606 0.252-1.352-1.764-2.559-0.512-0.115 0.968 0.577 1.129 0.512 2.047 1.872-0.111 1.963-0.703 3.582 0 0.777-1.611 2.279-2.497 2.559-4.605-0.919-1.53-4.537-2.53-4.606 0.5zm194.45 2.04c1.425 0.82 1.415-2.21 0.512-2.047 0.04 0.9-0.11 1.6-0.51 2.05zm37.87 7.68c-0.104-2.797-2.42-3.38-4.094-4.605 0.68-2.488 2.993-0.162 3.582-2.559-2.724-3.579-7.093-0.1-11.258 0.512-0.492 2.198 2.514 0.897 2.559 2.559-3.871-0.013-7.496 0.434-8.188 1.535 0.137 1.411 3.67 3.825 4.605 6.141 1.065-1.152 2.973-1.463 4.094-2.559 0.13-1.835-1.537-1.875-1.535-3.582 1.201-0.163 1.146-1.584 2.047-2.047-0.366 1.39 2.413-0.366 2.047 1.023-0.946 1.101-3.016 1.078-2.559 3.582 3.88-0.53 6.41 0.14 8.7 0.01zm-184.73-1.02c0.724-2.688 3.795-3.027 7.164-3.07-0.545-5.17-11.509-0.93-7.164 3.07zm-48.1-1.54c0.105 4.939 2.307 6.505 5.117 7.676-0.106-1.471 0.13-2.6 1.023-3.07 0.062 1.302 0.745 1.984 2.047 2.047 0.15-1.044 1.384-1.004 1.535-2.047-1.171-1.218-1.864-2.912-4.094-3.07-0.18 1.696-1.533 2.22-2.559 3.07-0.405-2.793 0.47-4.306 2.559-4.605-0.226-1.479-1.079-2.333-2.559-2.559-0.198 1.68-2.163 1.59-3.069 2.56zm242.55 0.51c1.523 1.993 4.591 0.435 7.164 0.512 0.44-3.18-7.2-3.8-7.16-0.51zm-95.69-1.02c-0.312 2.529 2.076 2.358 4.094 2.559 0.43-3.21-2.13-2.97-4.09-2.56zm49.64 4.09c-0.424-1.336 1.548-2.808 0-3.582-0.48 0.44-1.1 3.26 0 3.58zm-146.35 0.52c2.255 0.773 4.073 4.278 7.164 2.559-1.008-3.257-2.729-5.8-6.652-6.141-0.706 0.65-0.507 2.22-0.512 3.58zm-10.235 1.02c1.318 2.053 5.337 3.11 7.676 2.559-0.411-1.775 0.762-1.967 0.512-3.582-2.028-2.25-7.591-3.04-8.188 1.02zm111.04-2.05c0.729 0.122 0.862 0.843 1.535 1.023 0.161-0.692 0.728-0.978 0.512-2.047-1.17-0.14-1.92 0.13-2.05 1.03zm4.61 0.51c1.388 0.659 2.842 1.252 5.117 1.023 1.05-3.5-4.9-3.18-5.12-1.02zm83.92 0c-0.566 0.968-0.652 2.417-1.022 3.582 1.749-0.8 2.382-1.193 4.604-0.512 0.663-3.173 3.363-1.131 6.141-2.047v-2.047c-4.11-1.13-5.9 0.67-9.72 1.03zm-28.15-0.51c0.26 2.47 1.647 3.811 4.605 3.582 0.219-0.977 1.462-0.926 1.023-2.559-0.39-1.7-4.11-2.03-5.62-1.02zm24.57 0.51c-2.524 2.851-9.062-1.084-11.258 1.535 2.651 1.271 4.631 3.216 7.164 4.605 1.704-0.514 3.515-0.92 5.117-1.535 0.37-1.22 0.74-4.12-1.02-4.6zm-207.75 4.61c-0.364-1.276 2.252-2.103 0.512-3.07 0.395 1.31-2.003 2.35-0.512 3.07zm215.93-2.05c-0.367 1.585 0.993 5.348 3.582 5.629 1.15-2.37-0.43-7.63-3.58-5.63zm-32.75 1.03c-0.039 1.916 2.008 1.745 3.582 2.047-0.27-1.97-1.99-2.79-3.58-2.05zm7.17-0.52h-1.535c-0.046 0.807-1.305 0.4-1.023 1.535 2.561 4.944 6.26 8.75 11.258 11.257 0.42-5.59-6.99-7.65-8.71-12.79zm2.56 3.07c2.334-0.191 5.971 2.279 7.164 0-1.08-1.94-7.55-5.45-7.16 0zm-232.32 0.52c1.691 1.72 1.794 5.028 4.605 5.628 0.117-2.738-1.56-2.546-0.512-5.116-0.685-0.91-2.961-1.59-4.093-0.51zm46.565 2.56c1.77 0.824 5.375 1.894 5.628-1.023-0.634-2.59-5.39-1.27-5.628 1.02zm19.445 0c2.647 0.363 7.51 2.127 8.699-0.512-0.596-0.087-0.556-0.81-0.512-1.535-3.004-0.52-7.37-0.98-8.187 2.04zm86.985 3.06c2.316 0.441 3.188-0.564 3.582-2.046-0.836-1.724-1.984-3.133-4.094-3.582-1.28 1.66 0.37 3.8 0.51 5.63zm4.61 0.52c2.491-0.615 1.387 2.366 4.094 1.535 0.171-2.558 1.26-4.198 1.023-7.163-1.743 0.887-3.002-0.394-5.629 0 0.44 2.55 1.2 2.81 0.52 5.62zm84.94-4.1c2.457-0.069 4.387 0.389 5.117 2.046h-2.047c0.626 3.458 1.104 4.12-0.512 6.652 0.976 0.219 0.926 1.462 2.559 1.023 0.354-2.205 1.975-3.143 2.558-5.117-0.709-0.825-1.449-1.62-2.046-2.559h1.535c-0.59-3.67-5.05-4.72-7.16-2.04zm-77.78 1.54c-2.191 3.809-1.784 9.17-2.559 12.28-1.744 7.006-2.355 13.642-3.07 20.979 4.751 2.754 6.062 8.947 10.745 11.77 1.73-12.598 3.655-25 5.629-37.354-1.325-0.55-1.902-1.85-3.582-2.047-0.873 2.245 1.208 5.485 0.512 9.211-4.408 1.014-1.143 8.171-5.629 8.699-2.201 0.259-3.244-1.093-3.581-2.559-0.719-3.118 2.354-4.135 4.093-6.141-0.248-2.311-1.635-3.482-2.046-5.629 0.83-2.751 4.061-3.103 5.116-5.629-1.76-2.08-2.61-3.84-5.63-3.58zm-142.76 3.07c1.857 0.467 5.928 1.435 6.652 0-1.434-1.295-3.55-1.908-5.629-2.559-0.217 0.98-1.461 0.93-1.023 2.56zm42.983 0c2.191-0.191 3.589-0.608 5.117-0.512 5.445 0.345 6.013 5.034 10.234 6.652 0.129-1.747 1.294-2.459 1.023-4.605-3.631-3.2-11.768-5.86-16.374-1.53zm139.7-0.51c1.425 0.82 1.415-2.21 0.512-2.047 0.03 0.89-0.12 1.59-0.51 2.05zm-185.75 5.11c1.752 1.119 5.085 2.907 7.675 1.535-1.01-2.967-3.643-6.279-7.164-5.117 0.96-0.976-0.304-0.926 0-2.559-1.895 0.323-2.854 1.582-2.559 4.094 1.607 0.852 2.091-1.902 2.559-0.512-1.109-0.07-0.231 1.83-0.511 2.57zm133.55 1.03c1.81 0.275 2.636-0.434 3.07-1.535-0.792-0.743-1.074-1.996-1.023-3.582-3.73-0.62-3.27 3.36-2.05 5.12zm-86.475-3.58c1.104 3.821 7.478 6.199 10.234 2.559-0.292-3.49-7.395-4.97-10.234-2.56zm92.615 0.51c-0.631-0.733-1.76-0.969-3.07-1.023-0.44 2.06 2.98 3.95 3.07 1.02zm64.99 3.07c1.019 0.479 2.437 1.666 3.582 0.512-0.203-1.844-0.833-3.26-2.559-3.582-0.45 0.91-1.43 1.3-1.02 3.07zm-56.29 1.02c1.371 0.847 0.778 3.657 2.559 4.094 3.66-1.69-0.11-8.6-2.56-4.09zm7.16 18.42c-0.967 6.79-2.943 13.45-3.07 17.91-0.078 2.75 3.64 5.227 5.117 7.164 1.476 1.933 2.15 5.114 4.605 5.116 1.421-14.102 5.57-29.907 7.164-45.541-5.306 0.188-8.257-1.978-11.258-4.094-1.03 6.09-1.54 12.34-2.56 19.44zm-115.13-15.86c0.596 0.086 0.556 0.809 0.512 1.535 3.211-0.402 4.76 2.146 7.164 1.023 0.272-1.434 0.751-2.66 1.023-4.094-2.21-2.4-8.087-1.9-8.699 1.53zm-48.612 3.07c2.296 0.42 2.285-1.468 3.582-2.047 0.841 1.888 1.012 4.446 3.07 5.117 2.01-0.637 0.858-4.707 0-5.629-2.717 0.841-2.506-1.246-3.07-2.559h-2.047c-0.766 1.45-1.067 3.37-1.535 5.12zm45.541 1.02c3.25 0.844 5.092 3.095 8.187 4.094-0.405-1.77 0.569-2.16 1.023-3.07-1.941-1.47-6.001-0.821-7.164-3.07-0.462 0.91-1.882 0.85-2.046 2.05zm22.003 5.12c-0.899-3.194-3.191-4.996-6.14-6.141-0.786 2.79 3.002 8.78 6.14 6.14zm-10.234 1.53c1.805-1.604 1.288-7.076-2.047-6.652 0.09 2.81-0.746 6.55 2.047 6.65zm96.709-2.04c2.418 0.201 3.688-0.747 3.581-3.07-1.93-1.43-4.33 0.21-3.58 3.07zm-108.99-1.54c0.585 3.392 4.401 5.521 7.675 4.605-0.188-3.64-4.408-5.7-7.675-4.6zm204.17 0c-5.477-2.861-10.956 3.349-6.141 6.141 1.182-0.695 2.282-1.472 4.094-1.535 3.326 1.108 3.041 5.828 6.652 6.651 0.08-5.35-2.98-7.58-4.6-11.25zm-209.29 4.61c1.818-0.059 2.059-1.693 2.047-3.582-1.106-0.429-1.745-1.325-3.582-1.023-0.892 1.79-0.111 3.91 1.535 4.6zm28.143 3.58c1.836 0.302 2.476-0.594 3.582-1.022-0.342-2.217-1.774-3.344-4.094-3.582-1.506 1.01-0.485 3.31 0.512 4.6zm159.14 4.09c0.762-2.827-1.221-6.367-4.094-7.163-0.1 3.85 0.58 7.69 4.09 7.16zm20.46-5.62c-4.817-0.194-1.601 6.603 0.512 7.163 0.93-2.1 0.57-5.56-0.51-7.16zm-189.32 11.76c1.314-2.299-0.682-3.531-3.582-3.07-0.291 2.51 1.851 2.59 3.582 3.07zm-58.334 2.05c0.461-4.214-2.788-4.717-6.652-4.605 0.449 3.07 4.468 4.95 6.652 4.61zm108.99 3.07c-0.027 0.88 0.394 1.312 1.023 1.535 0.03-0.88-0.39-1.32-1.02-1.54zm6.65 10.75c6.661 9.372 11.954 20.111 19.956 28.144-0.028 2.36 1.787 3.442 2.559 3.581 1.553 6.168 7.751 9.488 9.211 15.352 4.266 0.318 3.503 8.216 5.117 8.188 0.001-0.514-0.415-0.609-0.512-1.023 1.347 0.529 1.723 2.028 3.07 2.559-0.382-2.007-1.996-2.78-2.559-4.605 2.388 2.388 4.534 5.017 6.14 8.187-1.485-0.391-1.327-2.425-3.581-2.047-1.483 1.865 2.561 2.528 1.022 4.605 2.15 0.765 5.861 4.617 6.652 6.652 0.12 0.308-0.635 0.896-0.512 1.023 1.056 1.1 2.906 3.107 4.605 1.023-0.817-0.718-1.308-1.763-1.535-3.07 2.415 1.619-0.915-1.941 1.535-1.535 0.547-1.911-1.271-1.458-1.023-3.07 0.654 0.028 0.709 0.656 1.535 0.512 0.249-1.955-1.81-1.602-2.559-2.559 1.105-1.139-2.094-2.315-1.535-4.605-2.836-1.087-3.348-4.498-5.629-6.14-1.658-2.962-2.806-4.91-4.604-7.164-1.795-2.247-3.043-4.218-4.605-6.141-3.382-4.16-6.466-8.889-9.211-12.792-6.817-9.695-12.151-20.259-20.979-28.144-1.758-1.57-3.129-3.718-4.094-5.629 1.047-0.258 2.369 2.544 1.535 1.023-2.146-4.096-5.773-6.707-7.164-10.234 0.331 2.037-1.354 2.058-1.023 4.094 1.515 1.293 4.861 4.789 3.07 6.141 0.96 0.575 1.087 1.983 2.047 2.559-0.08-1.434 1.447-1.67 2.047-1.023-0.046 0.807-1.305 0.4-1.023 1.535 1.201 0.746 1.146 1.273 2.047 0 0.52 2.311-0.29 2.064 2.047 2.559-2.568 0.846 1.458 2.138-0.512 3.582 0.04-0.84-1.58-2.46-1.58-1.53zm2.56 6.14c2.08 3.723 4.616 9.707 7.675 10.746-2.43-3.72-4.58-7.71-7.68-10.75zm10.75 16.37c-0.353 1.376 1.059 0.988 1.535 1.535 0.1-1.12-0.41-1.63-1.53-1.54zm19.44 26.1v1.023h1.023v-1.023h-1.02zm-122.29-64.48c0.96 1.951 0.745 7.769 3.07 6.652-1.594-1.64-1.344-5.13-3.07-6.65zm20.98 1.03c-0.562 1.998 3.048 2.051 3.07 0.512-1.331-0.65-1.544-1.12-3.07-0.51zm44.522 10.74c-0.059-3.693-0.846-6.659-0.512-10.746-0.113-0.398-0.429-0.595-1.023-0.512-0.18 3.21-0.42 8.72 1.53 11.26zm-98.763-5.11c2.675 0.787 3.553 1.531 6.652 1.023-0.86-2.907 2.945-1.148 2.559-3.582-1.076-1.123-2.275-0.105-3.07 0.512-1.31-1.249-2.786-2.331-4.605-3.07 0.143 2.26-1.837 1.72-1.536 5.12zm10.234-4.1c-0.486 3.557 3.944 2.196 6.141 3.07-0.682-2.19-3.659-4.33-6.141-3.07zm-16.374 0.51c-0.717 1.292 2.375 4.571 4.605 3.07v-2.047c-0.863-0.97-3.136-2.23-4.605-1.02zm103.36 8.7c-0.86-2.381 0.492-6.974-1.535-8.188-0.14 3.39 0.22 6.27 1.54 8.19zm-32.749-4.09c0.161-0.692 0.729-0.978 0.512-2.047-0.692-0.161-0.977-0.729-2.047-0.512-0.1 1.47-0.063 2.79 1.535 2.56zm-55.263-1.02c0.83 2.683 5.568 3.846 8.188 3.07 0.705-4.22-5.456-3.96-8.188-3.07zm11.257 0c1.491 1.277-2.49 4.86 2.559 5.117 1.327-0.656-0.394-3.061 0.512-3.07 2.129 1.623 1.242 6.263 3.582 7.676 2.138 0.261 3.467-0.286 4.605-1.023-0.455-5.91-4.943-10.37-11.258-8.71zm181.14 2.04c-0.665-1.271 1.501-2.124 0-2.559-0.3 0.32-1.2 2.43 0 2.56zm-185.24 2.05c1.496 2.597 3.658 4.528 3.07 9.21 1.498 0.46 1.572 0.46 3.07 0-0.33-1.246-1.033-2.632 1.023-2.558-0.245 1.609 0.729 2 1.023 3.069 1.261 0.067 2.465 0.078 3.07-0.512-1.193-2.219-1.459-5.363-4.605-5.628-0.28 0.743 0.598 2.645-0.512 2.559 0.354-3.766-3.48-3.343-3.582-6.652-1.445-0.42-1.324 0.72-2.557 0.51zm81.868 3.58c-0.845-0.008-0.287-1.42-1.023-1.535-1.24 0.56 0.8 2.65 1.02 1.53zm3.07 11.26c-1.357 0.163 0.479-2.866-1.535-2.047 0.144 1.055-1.062 2.747-1.535 4.605 3.432-0.32 4.979-2.526 4.605-6.652-1.771 0.066-1.16-2.251-2.558-2.559-1.01 3.27 2.24 4.92 1.03 6.66zm118.72-4.09c0.881 0.028 1.312-0.394 1.535-1.023-0.88-0.04-1.31 0.39-1.53 1.02zm-121.27 1.02c1.492 0.753 1.492-2.287 0-1.535v1.54zm118.71 0.51v-1.535h-1.535c-0.1 1.11 0.41 1.62 1.53 1.53zm1.53 4.09c1.396 0.373 1.03-1.017 2.047-1.023 1.405 2.264 3.794 2.759 6.141 2.047 0.115-0.968-0.576-1.129-0.512-2.047-5.001 1.166-1.43-3.063-5.117-3.07-1.254 0.682 0.923 1.545-0.512 2.047-0.604-0.248-1.16-0.546-1.535-1.023 0.9-0.123 1.167-0.88 1.023-2.047h-2.047c1.58 2.24-0.76 2.57 0.51 5.11zm-4.6-2.56c0.755-0.707 0.265-2.434-1.535-2.047-0.14 1.35 0.19 2.21 1.54 2.05zm11.77 1.03c0.267-0.757 0.758-1.289 1.023-2.047-1.205 0.012-1.507-0.881-3.07-0.512-0.13 1.67 0.61 2.46 2.05 2.56zm-14.33 0.51c0.075-1.27 0.095-2.483-1.023-2.559-1.26 1.03-1 2.38 1.02 2.56zm15.35-1.02c-0.249 2.615 4.729 1.808 3.582-1.023h-1.535c0.24 2.1-1.29-0.41-2.05 1.02zm-14.84 1.53c-0.878 0.765-0.144 1.884-1.023 2.047-0.278 0.052-0.926-0.599-1.023-0.512-0.811 0.721 0.284 1.314-0.512 1.535 0.113-0.031-0.502-1.022-0.512-1.023-1.13-0.073-2.297 1.781-3.07 0.512-0.28 0.743 0.598 2.645-0.512 2.559 0.143-1.166-0.123-1.924-1.023-2.047-0.709 0.314-0.077 1.97-1.023 2.047 0.079-1.444-1.446-1.282-2.047-2.047 0.976 1.413 0.493 4.282 2.047 5.117 0.884-0.311-0.039-2.428 1.023-2.559-0.136 2.844 1.985-1.068 2.047 0.512v4.605c1.501-0.909 1.732-0.698 3.07-1.023v-2.047c-1.925 0.69-2.701-2.361-1.535-3.07 2.728 1.237 7.98-1.815 10.233-1.023-1.849-0.484-0.713 2.016-1.022 3.07 2.116 0.41 1.553-1.858 3.581-1.535-0.597 2.812 2.079-0.15 2.559 2.047 1.856-1.596 3.139-1.285 6.141-0.512-0.772-2.127-2.437-3.362-4.605-4.094-0.423 1.446 0.722 1.326 0.512 2.559-3.334 0.053-2.668-2.842-6.141-1.535-0.749-1.639-1.933-2.843-1.535-5.629-2.243-0.222-1.68 1.568-3.581 0.512 0.38 2.19-1.62 1.13-2.07 1.51zm-2.04 0c-0.804-0.22-0.438-1.609-2.047-1.023-0.54 1.29 1.72 2.27 2.05 1.02zm21.49 2.05c-0.114-0.968 0.576-1.129 0.512-2.047h-2.047c-0.14 1.34 0.19 2.2 1.54 2.05zm-117.69 1.02c0.418-1.953-1.089-1.981-2.046-2.559 0.04 1.5 0.18 2.89 2.05 2.56zm1.02-0.51c2.244-0.581 1.681 0.003 3.582 0.512-0.17-2.861-2.951-2.668-4.605-2.047 0.73 0.14 0.59 1.13 1.03 1.54zm4.09 0h1.535c0.087-1.28-0.786-1.602-1.535-2.047v2.05zm86.48-0.51h1.535c0.065-0.919-0.509-1.197-1.535-1.023v1.02zm24.56 8.19c1.349 0.154 1.68-0.709 1.535-2.047-1.35-0.16-1.68 0.71-1.54 2.05zm5.12-4.1c-3.48 0.447-3.989-4.316-7.676-5.117 0.394 2.821 4.18 2.708 2.559 6.141 2.19 0.62 4.81 2.91 5.12-1.02zm-1.54-2.56c0.108-0.574 0.567-0.797 1.023-1.023-0.273 3.196 2.04 1.785 2.559 2.047 0.306 1.33-0.206 1.841-1.535 1.535-0.077 1.271 0.265 2.123 1.023 2.559 0.086-0.597 0.809-0.556 1.535-0.512 0.91-1.639 0.992-2.582 0.512-4.605-2.197-0.703-3.064-2.734-6.141-2.559-0.07 1.27 0.28 2.12 1.03 2.55zm-213.89 3.59c-0.271-3.481-2.239-5.267-5.628-5.629-0.922 2.65 1.988 9 5.628 5.63zm101.32-3.59h2.047c0.237-1.602-0.445-2.284-2.047-2.047-0.05 1.4 0.85 1.04 0 2.05zm4.09 1.03c1.066-1.019 0.017-2.186-1.023-2.559-0.08 1.27-0.1 2.48 1.02 2.56zm-14.32 0.51c0.979 1.75 0.834 4.624 3.07 5.117 0.853-1.017-0.046-0.651 0-2.047 0.654 0.028 0.709 0.655 1.535 0.512 0.024-1.565 0.824-1.301 2.047-2.559-0.001 0.514 0.415 0.609 0.512 1.023-1.009 0.403-1.839 1.79-1.023 2.559 2.32 0.443 1.197-2.556 3.07-2.559-0.593 0.757-0.593 1.289 0 2.047 1.51-0.693 3.168-0.641 4.094 0.512 1.034-2.106 0.526-5.134-1.535-5.629-0.217 1.147-1.098 1.631-1.535 2.559-0.259-2.389-0.968-1.009-1.535 0-0.174-1.702-1.938-1.814-2.559-3.07-1.727-0.013-2.277 2.688-4.093 1.023-0.703 1.166 1.319 1.924 0 2.047-0.43-0.74-0.75-1.62-2.03-1.53zm90.06 7.16c0.892-0.039 1.592 0.114 2.047 0.512 0.394-0.672 2.331-3.955 0-4.094-1.39-0.366 0.366 2.413-1.023 2.047-0.885-1.742 0.802-4.16-1.023-5.629-1.45 2.07 0.53 4.36-0.01 7.16zm14.32-5.63c0.058 0.624 0.152 1.212 1.023 1.023 0.163-1.187-0.083-1.965-0.512-2.559-1.633-0.304-1.583 0.96-2.559 0 0.29 1.7 0.44 2.24 2.05 1.54zm-89.54 2.56c2.684 0.157 1.036-3.499-0.512-3.582-0.26 1.62 0.92 1.81 0.51 3.58zm73.68 0c-0.56-1.306 1.748-2.633-0.512-2.559 0.28 0.75-0.6 2.65 0.51 2.56zm28.66-1.02c-0.594-0.43-1.372-0.675-2.559-0.512-0.5 1.88 2.51 2.03 2.56 0.51zm-22.52 2.56c1.109 0.086 0.231-1.815 0.512-2.559h-1.535c0.22 0.97-0.7 3.08 1.02 2.56zm27.12 1.02c1.599 0.234 1.636-1.094 1.535-2.559-1.54-0.03-2.6 1.51-1.54 2.56zm4.1 0.51v-2.559h-1.535c-0.57 1.42-0.8 2.87 1.54 2.56zm-144.82-0.51c0.074-1.439-1.253-1.477-2.559-1.535-0.07 1.44 1.26 1.48 2.56 1.54zm106.44 3.58c-0.327-1.909 2.414-3.685 0-4.605-0.21 1.02-1.27 3.79 0 4.6zm-114.11 0c0.907-0.117 2.562 0.516 2.046-1.023-0.95 0.07-1.71 0.34-2.042 1.02zm-17.91 3.07c0.604 0.074 1.16 0.912 1.535 0-0.604-0.07-1.16-0.91-1.535 0zm3.582 1.54c-1.819-0.795-0.309 1.738-1.535 1.535 0.127-1.039-1.872-2.482-2.559-1.023 1.187 0.689 2.298 1.454 3.07 2.559 1.134-2.387 2.049-2.068 2.559-4.605-1.764-0.965-3.945-1.513-5.629-2.558 0.401 2.32 3.209 2.24 4.094 4.09zm12.281-1.03c2.021-0.025 3.044-1.049 3.07-3.069-2.429 1.135-2.865 1.774-5.629 0.512 0.366 2.48 2.373 0.13 2.56 2.56zm-2.558-0.51c1.229 2.145-0.686 0.914-1.535 2.047 2.046 1.379 2.316 0.354 4.605 0 0.176-1.88-1.864-1.55-3.07-2.05zm-7.164 1.03c1.294 0.539 2.268-1.726 1.023-2.046-0.006 1.02-1.396 0.65-1.023 2.05zm122.81 0.51c0.396-0.35 1.333-3.048-0.512-2.558 0.28 0.74-0.6 2.65 0.51 2.56zm-118.21-1.03c-0.604-0.073-1.16-0.911-1.535 0 0.605 0.08 1.16 0.92 1.535 0zm66.516 2.56c-1.255-0.792-1.655-2.438-3.07-3.07 0.24 1.5 2.43 3.69 3.07 3.07zm-71.121 0.52c-1.302-0.264-1.984-0.872-2.047 1.023 1.897-0.362 2.196 0.875 4.093 0.512 0.22-1.979 0.561-1.82-0.512-3.07 0.603-0.08 1.453 0.088 1.535-0.512-1.396-1.25-2.039 1.36-3.069 2.05zm180.63 0c1.201 0.163 1.921 0.809 3.582 0.512 1.94-2.86-3.94-4.48-3.58-0.51zm-58.33 0.51c0.083-0.356-0.179-2.978-0.512-1.535-0.46 1.94 0.27 2.56 0.51 1.53zm-99.79 1.02c-0.123-0.899-0.88-1.166-2.047-1.023-0.546 0.478-0.159 1.888-1.535 1.535-0.211 2.088 0.524 3.229 2.559 3.07 0.039-0.891-0.114-1.591-0.512-2.047 1.633 0.438 1.583-0.805 2.559-1.023 0.74 1.77-0.571 2.412 0.512 3.582 1.477-1.082 0.649-4.468 2.047-5.629-0.124-0.899-0.88-1.166-2.047-1.023 0.36 1.72-1.04 1.68-1.53 2.56zm3.07 1.53c1.986 0.088 4.316-2.135 3.07-3.582-0.7 1.51-2.36 2.08-3.07 3.58zm148.91-2.04c0.319 1.558 1.137 2.616 3.07 2.559 0.43-0.594 0.675-1.372 0.512-2.559-0.68-0.73-2.9-0.73-3.58 0zm-175 5.12c0.175-0.437 0.058-2.521 1.023-4.094-1.262-0.067-2.466-0.077-3.07 0.512 0.751 4.078-2.858 5.566 0 8.699 0.843-0.795-0.175-1.994-0.512-3.07 1.179-0.93 2.15-1.03 2.559-2.05zm77.263 2.04c0.216-1.128-1.532-2.822-2.047-1.535 0.99 0.22 0.41 1.99 2.05 1.54zm79.83 3.58c1.016 0.349 1.171 1.559 2.047 2.047 2.392-0.016 3.238-3.663 2.047-5.629-2.38 0.19-3.38 1.75-4.1 3.58zm38.38 2.05c1.562-2.197-0.812-4.093-3.07-4.094 0.39 2 0.56 4.21 3.07 4.09zm-114.11 0.51c-0.531-1.857-1.6-3.177-3.07-4.094 0.68 1.71 1.3 3.47 3.07 4.09zm109.5 1.03c0.108-0.574 0.567-0.797 1.023-1.023-0.149-2.239-0.896-3.881-3.582-3.582-1.19 1.82-0.57 5.47 2.56 4.6zm-197 2.55c1.566-0.311 2.666-1.087 4.094-1.535 0.742-1.612 0.499-5.27-1.535-3.582 0.397 0.94-2.603 2.85-2.559 5.12zm130.99 5.12c-2.125 0.092-0.714 3.721-2.047 4.604v-3.07c-2.226-0.349-0.82 2.933-2.047 3.582v-2.047c-1.451-0.087-0.998 1.73-3.069 1.023 0.513 1.609-0.594 4.154 1.023 5.629-1.167-0.702-1.924 1.319-2.047 0-0.317-1.389 0.649-4.061-0.512-4.605-0.884 0.311 0.039 2.428-1.023 2.559-0.196-2.033-3.271 1.61-3.582 1.535-1.303-0.315-0.235 0.427-1.535 1.023 0.093-0.043-0.525-0.689-1.023-0.512-1.523 0.546-3.33 2.386-5.629 2.559 1.369 3.261-0.177 6.361 0 9.211 3.981 2.334 10.809 0.334 12.281-3.07 0.676 0.006 0.467 0.896 1.023 1.023 0.819-1.909 3.125-2.332 4.604-3.582 0.008-1.356-0.283-3.013 1.023-3.07 0.489 0.953-1.532 1.71 0 2.047 1.842-1.179 0.401-2.599 2.047-3.582 0.115 0.397 0.015 1.01 0.512 1.023 0.769-0.767 1.531-1.539 2.047-2.559-2.131-1.13 0.221-6.12 0.512-8.188 0.378 2.425-0.575 3.519-0.512 5.629 2.645 0.598 0.536-3.558 2.559-3.582-0.163 0.627 0.082 3.161 0.512 1.535 0.285-1.421-0.05-3.461 2.047-3.07 0.632-1.489-0.7-4.26 1.023-5.628 0.28 0.743-0.598 2.645 0.512 2.559-0.578-2.645 2.338-4.459 1.535-5.629-0.337 1.532-1.094-0.489-2.047 0-0.087 0.766 0.183 1.888-0.512 2.047-2.082-2.001-2.09 3.215-4.094 1.535-0.751 0.912 0.321 2.004-1.023 3.07v-2.047c-2.801 0.098-1.091 4.708-2.559 6.14-0.44-1.94 0.85-3.25 0.01-4.08zm51.17-1.02c1.187 0.163 1.965-0.083 2.559-0.512-0.288-1.247-0.438-2.633-2.047-2.559-0.58 0.6-0.58 1.81-0.51 3.07zm-164.25 3.07c1.492 0.753 1.492-2.287 0-1.534v1.53zm-7.675 5.11c1.612-0.247 1.159 1.571 3.07 1.023 0.226-1.968 0.438-0.951 2.047-1.535-0.015-2.031-1.992-2.102-3.582-2.559-0.455 1.1-1.558 1.53-1.535 3.08zm95.689 11.78c0.654 0.028 0.709 0.656 1.535 0.512 0.027-0.881-0.394-1.312-1.023-1.535 0 0.5-0.41 0.6-0.51 1.02zm70.1-110.53c1.553-2.054-0.856-3.682-1.535-5.117h-2.559c-0.94 2.47 1.62 4.51 4.09 5.12zm2.56-53.22c0.096 1.439 0.89 2.18 2.558 2.046 0.007-1.017 1.396-0.65 1.023-2.046-0.68-0.73-2.9-0.73-3.58 0zm1.54 7.68c0.985-2.058 0.322-4.931-2.047-5.117-1.44 2.07-0.04 4.94 2.05 5.12zm-179.1 138.16c-1.093-1.121-4.648 1.595-3.07 3.069 0.439-1.61 2.956-1.14 3.07-3.07zm-4.605 10.23c1.299 0.918 2.85 1.585 4.605 2.047 0.378-2.28-3.115-3.34-4.605-2.05zm0.511-2.05c-1.034-1.188-4.515-2.392-5.628-0.512 1.416 0.221 0.026 1.609-1.023 1.023-0.796 1.819 1.738 0.309 1.535 1.535-1.663 0.043-3.148 0.264-4.094 1.023 3.624 1.302 7.022-0.159 8.187-2.559 2.831 0.069 4.343 1.457 6.652 2.047 0.185-2.74-3.612-3.65-5.629-2.56zm0.512-2.05c-0.604-0.831-3.239-1.86-3.582 0 0.433 0.48 3.262 1.1 3.582 0zm-5.628 8.19c-0.072-2.316-2.718-2.058-5.117-2.047 0.808 1.58 3.006 1.78 5.117 2.05zm-6.141 1.54c-0.967 0.227-3.084-0.696-2.559 1.023 3.015 0.299 6.089 1.12 7.164-1.535-0.546-1.353-4.976-1.477-6.141-0.512 0.606 0.24 1.161 0.54 1.536 1.02zm-6.652 7.16c0.477 0.546 1.887 0.159 1.535 1.535-1.06-0.305-3.361 0.632-3.582-0.512 0.624-0.059 1.211-0.153 1.023-1.023-1.894-0.359-1.276 1.794-2.047 2.559 2.582-0.365 3.735 0.698 5.628 1.023 0.323-1.643-0.118-2.408 2.047-1.023-0.005-1.359 0.193-2.923-0.512-3.582-1.545 0.16-3.978-0.57-4.092 1.02zm-9.211 10.75c2.707-0.813 5.774 1.656 6.652-0.512-1.257-1.69-5.714-1.14-6.652 0.51zm-1.535 2.04c2.959-0.4 4.375 0.742 7.164 0.512 0.343-2.38-6.805-2.17-7.164-0.51zm69.079-74.19c0.889 1.898 0.304 5.302 3.07 5.117 0.181-2.91-1.079-4.38-2.047-6.141h-2.047c-0.54 0.9 0.95 0.84 1.03 1.02z" i:knockout="Off"></path> <path d="m109.96 177.56c-1.41-0.637-1.48-2.613-2.559-3.582 0.57-0.53 2.18 2.23 2.56 3.58z" i:knockout="Off"></path> <path d="m66.979 77.779c1.345-1.64 1.415 2.303 2.559 2.558-1.079 1.373-1.149-2.57-2.559-2.558z" i:knockout="Off"></path> <path d="m65.956 78.29c1.521 2.231 3.22 4.285 4.094 7.164-2.042-1.711-2.963-4.543-4.094-7.164z" i:knockout="Off"></path> <path d="m67.491 84.942c2.024 2.24 3.362 5.166 5.117 7.675-1.932 0.297-3.78-5.463-5.117-7.675z" i:knockout="Off"></path> <path d="m68.002 89.548c2.283 2.663 3.577 6.316 5.629 9.21-1.198 0.663-1.743-3.698-3.582-4.094-0.161-2.226-1.538-3.237-2.047-5.116z" i:knockout="Off"></path> <path d="m74.654 105.41c-2.887-3.595-4.764-8.199-6.652-12.793 2.349 4.133 4.581 8.383 6.652 12.793z" i:knockout="Off"></path> <path d="m78.236 127.92c-0.703-1.64 1.68 3.92 0 0z" i:knockout="Off"></path> <path d="m22.461 127.92c2.291 0.11-1.94 3.72 0 0z" i:knockout="Off"></path> <path d="m79.26 130.48c0.592-1.05 2.039 1.332 2.047 2.559-0.96-0.57-1.087-1.98-2.047-2.56z" i:knockout="Off"></path> <path d="m86.936 138.67c0.281-1.06 2.162 5.44 0 0z" i:knockout="Off"></path> <path d="m38.835 152.49c0.175 2.052 4.436 4.427 4.094 8.699-2.241 0.193-2.631-1.463-4.605-1.535 0.077-0.946 1.733-0.314 2.047-1.023-0.188-1.519-0.887-2.524-2.047-3.07-1.396-0.373-1.03 1.017-2.047 1.023-0.086 1.28 0.786 1.602 1.535 2.047-0.716 1.333-2.431-0.592-2.559-1.535 0.058-1.818 1.893-1.86 1.535-4.094-0.232-1.005-3.59-0.92-2.559 1.023-0.833-1.896-1.702-3.756-1.535-6.652 0.899 0.466 0.936 1.793 1.535 2.559-0.873-8.69 5.803-13.218 9.723-5.117-0.077 0.946-1.733 0.314-2.047 1.023 0.567 2.844 2.125 4.697 1.535 8.699-2.428 0.2-2.502-1.94-4.605-2.05zm3.582 0c-0.158-3.367-3.75-3.61-1.535-6.652-2.225-0.402-3.169-0.189-4.605-2.047-0.677 1.944-1.269 2.837-0.512 5.117 3.484-0.3 3.286 5.42 6.652 3.58zm-5.117-8.7c1.126 0.31 3.813 1.286 4.094-0.512-1.187-1.63-3.513-1.99-4.094 0.51z" i:knockout="Off"></path> <path d="m92.052 150.44c0.287-1.482 0.798 0.785 1.535 0.512-0.5 1.7-1.011-0.57-1.535-0.51z" i:knockout="Off"></path> <path d="m94.099 150.44c0.389 0.805 1.624 0.765 1.535 2.047-0.749-0.45-1.622-0.77-1.535-2.05z" i:knockout="Off"></path> <path d="m97.169 158.12c-0.768-1.08 2.616 3.66 0 0z" i:knockout="Off"></path> <path d="m140.66 223.61c1.805 1.607 3.171 3.651 4.093 6.141-1.7-1.7-3.07-3.74-4.09-6.14z" i:knockout="Off"></path> <path d="m145.27 230.78c0.47-0.75 3.21 4.98 0 0z" i:knockout="Off"></path> <path d="m107.4 248.69c2.47 1.28 0.61 3.14 0 0z" i:knockout="Off"></path> <path d="m97.681 256.87c0.542-0.999 2.682 0.689 3.07 1.535-0.51 0.98-2.064-1.3-3.069-1.53z" i:knockout="Off"></path> <path d="m94.611 260.97c0.872-1.488 2.567 0.455 3.07 1.023-0.674 1.29-1.68-1.34-3.07-1.02z" i:knockout="Off"></path> <path d="m168.81 262.5c1.545-0.842 2.439 3.345 4.094 4.094-1.54 0.85-2.44-3.34-4.09-4.09z" i:knockout="Off"></path> <path d="m175.46 271.2c0.46-0.74 3.04 5.16 0 0z" i:knockout="Off"></path> <path d="m180.58 278.37c2.46 1.28 0.6 3.14 0 0z" i:knockout="Off"></path> <path d="m82.842 282.97c-1.144-0.96 3.051 2.57 0 0z" i:knockout="Off"></path> <path d="m184.67 287.06c-2.46-1.28-0.61-3.14 0 0z" i:knockout="Off"></path> <path d="m77.725 315.72c-0.286-0.736-0.798-1.248-1.535-1.535 0.52-0.977 2.366 1.005 3.07 1.535h-1.535z" i:knockout="Off"></path> <path d="m66.467 313.67c-1.905-0.149 1.506-1.272 1.023 0 1.203 0.85-0.186-0.04-1.023 0z" i:knockout="Off"></path> </g> </g> </g> </switch> <metadata></metadata></svg> 