<?xml version="1.0" encoding="UTF-8" standalone="no"?> <!-- Generator: Adobe Illustrator 13.0.2, SVG Export Plug-In . SVG Version: 6.00 Build 14948) --> <svg xmlns:rdf="http://www.w3.org/1999/02/22-rdf-syntax-ns#" xmlns="http://www.w3.org/2000/svg" xmlns:cc="http://web.resource.org/cc/" xmlns:xlink="http://www.w3.org/1999/xlink" xmlns:dc="http://purl.org/dc/elements/1.1/" xmlns:svg="http://www.w3.org/2000/svg" xmlns:inkscape="http://www.inkscape.org/namespaces/inkscape" xmlns:sodipodi="http://sodipodi.sourceforge.net/DTD/sodipodi-0.dtd" xmlns:ns1="http://sozi.baierouge.fr" id="narcissus_xA0_Image_1_" style="enable-background:new 0 0 388.65 551.577" xml:space="preserve" viewBox="0 0 388.65 551.577" y="0px" x="0px"> <g> <path style="clip-rule:evenodd;fill-rule:evenodd" d="m222 42.057c1.467 0.303 2.944 1.389 2.88 2.64-0.115 2.252-3.328 2.292-3.84 0.24-0.29-1.15 0.4-1.48 0.96-2.88zm1.2 3.84c1.32-0.871 0.411-2.474-0.721-2.88-1.18 0.748-0.69 2.775 0.72 2.88z"></path> <path style="clip-rule:evenodd;fill-rule:evenodd" d="m226.56 44.217c0.572 0.434 0.056 1.799-0.72 1.68-0.13-0.929 0.61-0.988 0.72-1.68z"></path> <path style="clip-rule:evenodd;fill-rule:evenodd" d="m228.48 44.937c0.161 1.121-0.54 1.379-0.96 1.92-0.5-0.511 0.17-1.897 0.96-1.92z"></path> <path style="clip-rule:evenodd;fill-rule:evenodd" d="m234.96 46.137c-0.929 0.936-2.417 2.236-3.84 1.92 0.7-1.22 2.28-1.559 3.84-1.92z"></path> <path style="clip-rule:evenodd;fill-rule:evenodd" d="m219.6 46.377c1.219 0.301 2.198 0.842 3.36 1.2-0.8 1.012-3.06-0.163-3.36-1.2z"></path> <path style="clip-rule:evenodd;fill-rule:evenodd" d="m229.44 46.617c-0.106 0.934-1.097 0.982-1.68 1.44v2.16c-1.391 1.398-5.137 0.827-4.32-2.16 0.961-1.159 3.029-1.558 4.08-0.24 0.9-0.145 0.98-1.103 1.92-1.2zm-5.04 2.64c0.556 0.718 1.599 1.263 2.4 0.48 0.6-2.362-2.67-2.918-2.4-0.48z"></path> <path style="clip-rule:evenodd;fill-rule:evenodd" d="m235.92 47.817c-0.279 1.241-2.296 0.745-3.36 1.2-0.171 3.591-3.021 5.187-4.56 1.68 0.348-1.252 1.423-1.776 3.12-1.68 1.36-0.517 3.33-1.579 4.8-1.2zm-6.72 3.36c0.421 0.587 1.447 0.567 2.159 0.24 0.022-0.896 0.27-0.684 0-1.44-0.96-0.459-2.5-0.338-2.16 1.2z"></path> <path style="clip-rule:evenodd;fill-rule:evenodd" d="m219.12 48.297c1.058 0.062 1.856 0.384 3.12 0.24v1.68c-0.558 0.192-1.363 0.769-1.921 0.24-0.214-0.775 0.783-0.337 0.96-0.72-0.31-0.89-2.11-0.286-2.16-1.44z"></path> <path style="clip-rule:evenodd;fill-rule:evenodd" d="m224.4 51.897c0.214-0.106 0.43-0.211 0.48-0.48 1.033 0.701-0.012 2.019 0.24 3.36-0.475-0.166-0.64-0.64-0.721-1.2-0.965 0.075-0.95 1.129-2.159 0.96-4.05-0.948 1.17-6.363 2.16-2.64zm-2.88 0.24c-0.073 1.193 0.329 1.911 1.681 1.68 0.95-1.752-0.43-3.126-1.68-1.68z"></path> <path style="clip-rule:evenodd;fill-rule:evenodd" d="m226.08 51.657c0.869 0.331 0.627 1.773 0.72 2.88-1.05-0.079-1.01-2.229-0.72-2.88z"></path> <path style="clip-rule:evenodd;fill-rule:evenodd" d="m187.68 80.217c-0.791 1.129-1.794 2.045-3.36 2.4 0.8-1.119 1.83-2.007 3.36-2.4z"></path> <path style="clip-rule:evenodd;fill-rule:evenodd" d="m208.8 82.137c0.206 0.766-0.378 0.742-0.48 1.2-0.55-0.189-0.23-1.486 0.48-1.2z"></path> <path style="clip-rule:evenodd;fill-rule:evenodd" d="m177.84 87.417c-1.165 0.995-2.344 1.976-3.84 2.64-0.06-1.171 2.44-2.929 3.84-2.64z"></path> <path style="clip-rule:evenodd;fill-rule:evenodd" d="m167.04 97.257c-0.109 0.926-1.081 0.831-1.68 1.2-2.006 1.238-4.014 2.796-6.24 3.84-0.271 1.25-1.287 1.753-1.68 2.88-0.041-4.442 5.831-5.049 8.16-7.92 0.48-0.003 0.96-0.003 1.44-0.003z"></path> <path style="clip-rule:evenodd;fill-rule:evenodd" d="m155.76 109.26c1.18 1.418-0.813 3.177-1.2 4.56-0.65-1.62 1.03-2.97 1.2-4.56z"></path> <path style="clip-rule:evenodd;fill-rule:evenodd" d="m153.36 116.7c0.279-0.039 0.427 0.053 0.48 0.24-0.896 5.824-1.014 12.426-1.68 18.48-0.97-5.81 0.4-13.12 1.2-18.72z"></path> <path style="clip-rule:evenodd;fill-rule:evenodd" d="m341.28 149.1c-2.979 1.58-5.405 3.714-8.399 5.28 2.075-2.484 5.307-3.813 7.92-5.76 0.41-0.09 0.45 0.18 0.48 0.48z"></path> <path style="clip-rule:evenodd;fill-rule:evenodd" d="m150 151.02h0.72c0.068 0.627-0.087 1.032-0.72 0.96v-0.96z"></path> <path style="clip-rule:evenodd;fill-rule:evenodd" d="m152.64 153.66c1.336 1.742 0.491 6.151 0.72 9.84 0.197 3.168 0.872 7.748 0.48 11.28-0.653-0.643-0.647-1.791-0.72-2.64-0.466-5.468-0.233-12.062-0.72-17.76-0.07-0.39 0.23-0.42 0.24-0.72z"></path> <path style="clip-rule:evenodd;fill-rule:evenodd" d="m148.08 154.38c0.279-0.039 0.427 0.053 0.48 0.24 0.653 10.863 2.441 23.7 3.12 35.28-0.93-0.549-0.833-1.999-0.96-2.88-0.49-3.409-0.61-6.95-0.96-10.56-0.543-5.618-0.935-10.892-1.44-17.04-0.121-1.475-0.672-2.757-0.48-4.32-0.07-0.39 0.23-0.42 0.24-0.72z"></path> <path style="clip-rule:evenodd;fill-rule:evenodd" d="m150 154.38h0.72c0.512 5.408 0.662 11.178 0.96 16.8-1.041-0.552-0.613-1.869-0.72-2.88-0.417-3.943-0.479-8.929-0.96-13.2v-0.72z"></path> <path style="clip-rule:evenodd;fill-rule:evenodd" d="m324 156.78c-0.552 1.481-2.359 1.556-3.601 2.16-2.354 1.146-4.692 2.495-7.439 3.6-2.532 1.018-5.063 1.978-8.16 2.88 0.974-1.314 2.801-1.631 4.32-2.16 4.409-1.536 9.501-3.739 13.439-5.76 0.172-0.088 0.413-0.461 0.72-0.72h0.72z"></path> <path style="clip-rule:evenodd;fill-rule:evenodd" d="m299.52 163.74c-1.178 1.554-3.231 2.363-5.04 3.12-1.844 0.772-3.873 1.399-5.76 2.16-3.758 1.516-7.485 3.364-11.28 4.56 6.463-4.018 15.086-5.875 21.36-10.08 0.39-0.07 0.41 0.22 0.72 0.24z"></path> <path style="clip-rule:evenodd;fill-rule:evenodd" d="m321.36 172.14c-0.964 0.647-2.391 0.71-3.6 0.72-2.421 0.019-5.404-0.525-7.92-0.72-2.787-0.216-4.508-0.769-6.24-1.92 1.375-1.176 2.401 0.797 4.08 1.2 1.049 0.252 2.824 0.354 4.32 0.48 3.03 0.25 6.47 0.04 9.36 0.24z"></path> <path style="clip-rule:evenodd;fill-rule:evenodd" d="m151.68 172.86c0.279-0.039 0.427 0.053 0.48 0.24 0.584 4.109 0.958 8.695 1.2 12.48-0.895-0.783-1.033-2.945-1.2-4.32-0.301-2.482-0.238-5.385-0.72-7.68-0.07-0.39 0.23-0.42 0.24-0.72z"></path> <path style="clip-rule:evenodd;fill-rule:evenodd" d="m153.84 176.46c0.596 0.071 0.881 2.221 0.96 3.12 0.481 5.521 0.926 12.167 0.96 17.52-0.753-1.379-0.582-3.228-0.72-4.8-0.409-4.645-0.881-10.066-1.2-15.12v-0.72z"></path> <path style="clip-rule:evenodd;fill-rule:evenodd" d="m152.88 187.5c0.388-0.068 0.413 0.227 0.72 0.24 0.207 10.915 2.177 21.342 1.92 31.92-0.692-0.401-0.63-1.978-0.72-2.88-0.237-2.391-0.109-5.426-0.24-8.4-0.293-6.669-1.876-13.371-1.68-20.16v-0.72z"></path> <path style="clip-rule:evenodd;fill-rule:evenodd" d="m242.16 187.74c-1.467 0.614-3.018 1.143-4.801 1.44 1.38-0.58 2.84-2.24 4.8-1.44z"></path> <path style="clip-rule:evenodd;fill-rule:evenodd" d="m244.32 190.38c-1.187 1.773-3.375 2.544-4.8 4.08-0.291-1.035 1.11-1.507 1.92-2.16 0.83-0.67 1.72-1.88 2.88-1.92z"></path> <path style="clip-rule:evenodd;fill-rule:evenodd" d="m151.2 190.62c0.204-0.044 0.227 0.093 0.24 0.24 1.208 6.711 1.354 14.485 2.16 21.6-1.161-0.656-1.02-2.977-1.2-4.8-0.164-1.654-0.367-3.518-0.48-5.28-0.27-4.2-0.75-8.45-0.72-11.76z"></path> <path style="clip-rule:evenodd;fill-rule:evenodd" d="m244.08 191.82c0.278-0.039 0.427 0.053 0.479 0.24-2.36 3.8-6.082 6.238-11.04 7.44 3.99-2.09 8.32-3.84 10.56-7.68z"></path> <path style="clip-rule:evenodd;fill-rule:evenodd" d="m260.16 192.06c-0.676 0.444-1.497 0.743-2.4 0.96 0.34-0.78 1.16-1.08 2.4-0.96z"></path> <path style="clip-rule:evenodd;fill-rule:evenodd" d="m155.52 197.58c1.187 1.509 0.629 5.854 0.72 7.68-0.98-1.68-0.78-5.76-0.72-7.68z"></path> <path style="clip-rule:evenodd;fill-rule:evenodd" d="m231.36 204.3c-0.309 0.412-0.496 0.944-1.199 0.96-0.04-0.76 0.62-0.83 1.2-0.96z"></path> <path style="clip-rule:evenodd;fill-rule:evenodd" d="m153.12 213.42c0.204-0.044 0.227 0.094 0.24 0.24 0.204-0.044 0.226 0.093 0.24 0.24 1.955 14.303 2.003 29.006 4.08 43.68 1.058 7.473 1.278 15.23 1.92 22.8 0.635 7.48 1.28 14.891 2.16 22.319 0.89 7.512 1.758 15.055 2.16 22.561 0.401 7.496 1.416 14.884 2.16 22.319 1.479 14.782 2.398 29.507 2.88 44.4-1.341-0.599-0.655-2.385-0.72-3.36-0.469-7.04-0.954-15.104-1.44-22.319-0.847-12.574-2.962-26.845-3.84-40.561-0.41-6.402-0.762-12.787-1.44-19.2-3.135-29.667-5.704-61.714-8.64-92.399-0.07-0.39 0.23-0.42 0.24-0.72z"></path> <path style="clip-rule:evenodd;fill-rule:evenodd" d="m210.96 242.22c0.755-0.275 0.583 0.377 0.96 0.48-0.029 0.611-0.35 0.931-0.96 0.96v-1.44z"></path> <path style="clip-rule:evenodd;fill-rule:evenodd" d="m157.44 242.7c0.279-0.039 0.427 0.053 0.48 0.24 2.586 19.493 3.573 40.587 6.24 60-1.3-0.562-0.801-2.351-0.96-3.36-2.757-17.564-3.494-37.333-5.76-56.16v-0.72z"></path> <path style="clip-rule:evenodd;fill-rule:evenodd" d="m163.92 304.14c0.261 0.06 0.163 0.477 0.48 0.479 0.735 7.067 1.535 15.21 1.68 22.561-1.131-1.495-0.791-3.613-0.96-6.24-0.36-5.66-1.06-11.7-1.2-16.8z"></path> <path style="clip-rule:evenodd;fill-rule:evenodd" d="m187.2 330.3c0.213 0.106 0.429 0.21 0.479 0.479 1.048 7.992 2.727 15.354 3.6 23.521-1.383-0.859-1.088-3.364-1.439-5.521-0.592-3.625-1.553-7.283-2.16-11.52-0.34-2.38-0.86-5.04-0.48-6.96z"></path> <path style="clip-rule:evenodd;fill-rule:evenodd" d="m234.96 124.38c-8.153 1.877-14.387 7.172-19.681 12.72-5.358 5.615-9.93 11.702-13.68 18.72-1.912 3.58-3.996 6.972-5.76 10.56-1.815 3.693-2.926 7.616-4.561 11.52-2.41 5.757-4.398 11.937-6 18.24-1.584 6.239-3.602 12.38-5.279 18.96-2.168 8.501-3.707 17.667-5.28 27.12-0.767 4.605-1.722 9.202-2.16 13.92-0.882 9.512-2.883 19.407-3.12 29.28-0.124 5.163-0.42 10.252-0.72 15.359-0.283 4.824-1.25 9.683-1.2 14.4 0.042 3.937 1.015 8.021 1.2 12.24 0.544 12.365 0.969 25.89 1.68 38.159 0.84-21.66 1.497-44.236 3.12-65.52 0.654-8.578 1.063-17.188 2.16-25.44 1.133-8.525 1.986-16.964 3.12-25.2 0.82-5.961 2.039-11.961 3.36-17.76 0.424-1.862 0.425-3.86 1.44-5.52 0.774-6.73 2.297-13.266 4.08-19.68 1.755-6.309 3.092-12.695 5.04-18.72 2.814-8.704 6.227-17.437 10.32-25.2 1.39-2.636 2.396-5.628 3.84-7.92 0.353-0.56 1.016-0.875 1.439-1.44 0.41-0.545 0.554-1.36 0.96-1.92 0.4-0.551 1.058-0.874 1.44-1.44 1.813-2.686 3.199-6.367 6.24-8.16-6.613 8.632-12.283 18.253-17.04 28.8-1.19 2.639-1.956 5.569-3.12 8.4-1.148 2.793-2.288 5.483-3.12 8.4-1.632 5.722-3.26 11.567-4.8 17.52-4.663 18.023-8.433 36.983-10.8 57.84-0.389 3.425-0.75 6.907-1.2 10.32-1.225 9.302-2.238 19.895-2.88 30.48-0.197 3.254-0.254 6.358-0.48 9.119-0.548 6.688-0.274 13.607-0.72 20.4-0.725 11.066-1.2 21.864-1.2 33.6 0 6.773-0.5 13.537-0.48 20.4 0.036 12.302 0.634 24.561 1.2 36.72 0.573 12.307 0.458 24.6 1.68 36.48 0.576 5.604 1.746 11.039 2.64 16.56 0.918 5.672 1.157 11.429 1.92 17.04 0.796 5.854 1.655 11.449 1.92 17.28 0.134 2.961 0.49 5.893 0.72 8.88 0.219 2.841 0.075 5.752 0.24 8.64 0.083 1.467 0.599 2.986 0.72 4.561 0.381 4.943 0.145 10.269-0.24 14.64-1.563-1.56-0.915-3.888-0.96-5.76-0.148-6.178-0.327-12.368-0.72-18.48-0.524-8.135-1.406-16.25-2.16-24.239-0.739-7.835-2.064-15.517-3.12-23.28-1.042-7.668-1.958-15.43-3.6-22.8-2.46-11.047-3.799-22.041-6.48-33.12-0.879-3.631-1.383-7.399-2.16-11.04-3.107-14.568-6.752-28.812-9.84-42.96-1.6-7.329-3.056-14.56-4.8-21.601-1.779-7.183-3.158-14.3-5.28-21.119-1.045-3.359-2.119-6.721-3.12-10.08-3.029-10.164-6.891-19.436-10.56-29.04-1.242-3.252-2.431-6.312-3.84-9.36-1.392-3.012-2.812-5.908-4.32-8.88-2.989-5.891-6.076-11.63-8.88-17.52-2.801-5.884-6.581-11.126-9.6-16.8-0.781-1.467-1.48-2.979-2.4-4.32-2.543-3.705-5.197-7.687-8.16-11.28 2.146 3.984 4.862 7.591 7.2 11.52 2.294 3.855 4.255 8.678 6 13.2 3.514 9.107 7.198 18.424 10.32 28.08 2.327 7.196 4.464 14.463 6.48 22.32 3.111 12.123 6.884 25.046 10.08 37.68 5.057 19.993 11.263 40.129 15.84 60.96 1.146 5.218 2.18 10.496 3.36 15.84 1.17 5.301 2.474 10.649 3.12 16.08 0.995 8.37 2.698 16.77 4.08 24.72 0.452 2.601 1.25 5.108 1.68 7.681 0.625 3.741 0.949 7.5 1.68 11.28 0.716 3.701 1.31 7.532 1.68 11.279 2.197 22.236 6.824 45.31 8.16 68.16-1.074-0.65-0.6-2.146-0.72-3.12-2.303-18.653-5.017-38.165-7.44-56.88-1.307-10.094-2.685-20.066-4.32-30-1.597-9.699-4.328-19.278-5.28-28.8-0.962-9.621-3.349-19.246-5.52-28.8-2.126-9.357-3.925-18.797-6.48-27.601-1.318-4.543-2.448-9.152-3.6-13.68-0.599-2.355-1.068-4.637-1.68-6.96-1.096-4.161-2.577-8.446-3.84-13.2-1.742-6.56-3.373-13.501-5.28-20.16 1.062 9.842 3.749 19.405 5.52 29.28 0.887 4.944 1.648 9.879 2.64 14.88 0.946 4.773 2.333 9.543 3.12 14.4 2.802 17.3 5.99 35.026 9.36 52.319 0.617 3.164 1.134 5.7 1.44 9.36 0.294 3.508 1.431 8.562 1.92 12.72 0.572 4.859 1.55 9.563 2.4 14.4 1.696 9.657 3.198 19.5 4.32 29.28 0.559 4.87 1.476 9.732 2.16 14.64 1.393 9.996 2.239 19.951 3.36 30.24 0.401 3.683 1.08 7.089 1.2 11.279 0.026 0.907 0.719 2.412-0.48 3.12-1.691-0.488-1.11-2.498-1.2-3.6-0.774-9.428-2.08-19.954-3.12-29.76-0.584-5.513-1.28-11.05-2.16-16.561-0.883-5.53-1.252-11.088-2.16-16.56-0.909-5.475-1.645-11.075-2.4-16.561-2.197-15.957-5.33-32.056-8.16-48-1.904-10.728-3.651-21.462-5.52-32.159-1.83-10.472-4.342-20.81-6.24-31.2-1.933-10.586-3.852-21.248-6-31.681-2.17-10.535-3.653-21.012-6.24-31.199-0.559-2.2-1.416-4.291-1.92-6.48-0.507-2.201-1.087-4.372-1.68-6.479-3.573-12.701-8.05-25.007-12.48-36.96-2.993-8.077-6.601-15.605-11.04-22.08-2.255-3.29-4.615-6.394-6.96-9.6-2.241-3.063-4.943-5.859-7.44-8.88-2.5-3.024-4.984-5.912-7.92-8.64-2.806-2.607-5.934-4.965-8.88-7.68-2.945-2.714-6.106-4.833-9.6-6.96-10.094-6.144-22.145-10.215-33.12-16.08-5.126-2.739-10.886-5.638-14.88-9.84-2.925-3.078-4.606-5.576-5.28-11.04 3.079-1.693 6.144 0.011 8.64 1.2 2.498 1.189 4.9 2.743 7.2 3.84 5.07 2.417 10.069 4.846 15.6 6.72 2.838 0.961 5.52 2.03 8.4 2.88 8.451 2.495 16.331 5.483 23.28 9.84 4.473 2.805 9.077 5.762 12.96 9.36 1.931 1.789 3.856 3.532 5.76 5.28 1.898 1.743 3.471 3.79 5.28 5.76 5.251 5.72 10.086 11.938 14.64 18.72 1.478 2.2 3.214 4.47 4.32 6.72 1.196 2.433 2.029 4.827 3.36 7.2 3.71 6.617 5.901 14.521 8.88 22.32 1.958 5.127 3.576 10.375 5.04 15.84 1.081 4.035 2.31 7.918 3.36 12.48 0.311 1.349 0.329 2.975 0.72 4.32 0.285 0.979 1.035 1.885 1.44 2.88 0.451 1.107 0.555 2.292 0.96 3.36 0.771 2.033 1.844 4.013 2.64 6 1.676 4.183 2.922 8.583 4.32 12.96 0.676 2.118 1.675 4.073 2.4 6.239 2.077 6.209 4.599 12.868 6.24 19.681 4.504 18.691 8.366 37.328 13.2 55.92-0.889-15.103-1.891-30.932-2.88-47.04-0.94-15.32-2.175-30.863-3.12-46.08-0.335-5.4-0.59-10.903-0.72-16.32-0.126-5.254-0.766-10.386-1.2-15.6-0.894-10.74-0.93-21.457-1.68-32.16-1.504-21.45-1.893-42.867-3.36-63.36-0.283-3.954-1.244-7.704-0.96-11.52 0.105-1.411 0.597-2.646 0.72-4.08 0.88-10.231-0.272-21.675 0.48-32.4 0.359-5.121 1.805-8.031 3.6-12.48 1.101-2.729 1.983-5.66 3.36-7.68 1.731-2.54 4.896-5.026 7.68-7.2 2.655-2.073 5.404-4.423 7.68-6.96 4.846-5.401 7.479-11.896 13.44-16.08 1.882-1.321 6.39-3.667 8.64-3.36 1.447 0.197 1.486 0.165 1.921 1.68 1.586-1.374 3.544-2.375 4.56-4.32-6.406-0.625-10.063-4.998-14.64-8.64-1.147-0.913-2.451-2.103-3.6-2.4-4.494-1.163-10.91-1.133-12.96-4.56-0.763-1.275-0.251-2.851-0.72-4.08-0.496-1.301-0.996-1.078-1.92-2.16 0.596-1.468 1.557-2.725 2.4-4.08 2.156-3.468 5.444-6.485 10.32-7.68 3.537-0.867 8.091-0.306 12.24-1.44-0.844-3.894-5.19-13.282-2.16-18.24 0.729-1.192 1.569-1.8 3.36-1.92 0.669-4.058 3.146-2.991 7.199-2.16 4.556 0.934 9.817 2.348 13.2 4.32 2.629 1.532 5.271 4.299 7.44 6.48 2.481 2.495 4.794 4.869 6.479 7.2 1.387 0.068 2.604-1.734 4.801-2.4 1.344-0.407 3.425-0.177 5.76-0.48 2.843-0.369 6.271-2.385 9.359-1.2 3.24 1.243 3.172 4.759 1.92 8.88 1.126 1.937 3.869 1.7 5.521 2.88 0.787 0.563 3.074 3.953 3.36 5.28 0.303 1.409-0.104 3.387-0.24 5.28-0.292 4.069-0.925 7-4.32 8.88 2.398 1.201 5.563 2.002 7.68 4.08 1.581 1.551 3.354 5.146 5.04 7.44 0.785 1.068 2.452 2.87 3.12 4.08 0.591 1.071 1.068 2.901 1.681 4.32 0.702 1.627 1.514 3.202 1.68 4.32 0.294 1.976-0.386 3.853-0.24 5.52 0.207 2.361 2.197 3.405 1.681 5.76-5.295 2.166-10.974-0.848-14.881-2.4 3.103 8.296 2.155 18.611-1.199 25.68-0.635 1.338-1.458 2.631-2.4 4.08-1.541 2.37-2.804 4.81-4.8 6.72-1.21 1.157-2.885 1.938-4.32 2.88-0.815 0.535-1.18 1.128-2.16 1.44-0.827 0.263-1.919 0.342-2.88 0.24-1.052-0.641-0.067-1.917 0-2.88 0.36-5.159-1.367-9.121-2.64-13.68-0.94-3.37-1.733-6.861-2.88-9.6-0.968-2.31-2.432-4.542-3.601-6.72-1.238-2.308-2.69-4.42-3.84-6.48-0.318 3.154 1.227 8.298 0 11.521-1.447 3.801-8.778 7.404-12.479 9.6-2.263 1.342-4.099 2.617-7.2 3.84-3.431 1.353-9.16 4.073-9.84-0.96-4.283-0.575-4.266-7.655-3.841-13.44 0.273-3.708 1.164-7.178 1.2-9.84-1.283 0.003-2.103 1.181-3.12 1.92-2.078 1.51-4.196 2.933-6.479 4.56-2.323 1.655-4.461 2.669-5.28 5.76-2.833 1.014-5.396 3.039-7.92 4.8-2.513 1.754-5.519 3.313-6.96 5.76-1.146 1.945-1.632 5.127-2.4 7.68-0.39 1.295-0.739 2.635-1.2 3.84-0.475 1.243-1.159 2.31-1.44 3.36-1.223 4.576-1.188 10.41-1.44 15.84-0.134 2.893 0.035 5.843 0 8.64-0.035 2.747 0.365 5.183 0.48 7.68 0.154 3.326-0.48 6.706-0.48 10.08 0 22.94 3.072 45.471 4.08 68.4 1.176 26.744 4.352 52.676 6.48 76.32 0.793-2.798 0.832-5.761 0.96-8.64 0.127-2.859 0.442-5.85 0.48-8.641 0.021-1.503-0.326-2.845-0.24-4.32 0.553-9.488 2.198-18.439 3.12-28.08 0.379-3.971 1.373-7.363 1.2-11.76-0.349-8.873-1.783-18.357-2.64-27.84-1.678-18.568-3.015-38.178-0.72-56.88 0.758-6.18 2.708-12.708 5.28-17.52 2.655-4.968 4.859-7.26 9.6-10.8 4.043-3.019 7.646-4.716 12.24-7.2 2.751-1.487 5.873-2.483 9.6-3.36 1.776-0.418 3.637-1.065 5.28-1.2 1.705-0.14 3.454 0.223 5.28 0.24 4.137 0.038 8.089 0.393 12 1.44 1.979 0.53 4.08 1.758 6.239 1.68 1.061-0.039 2.394-0.896 3.84-1.44 3.809-1.43 8.417-2.192 12.24-3.6 5.383-1.981 10.648-3.717 15.36-5.52 5.159-1.975 10.569-3.812 16.56-4.56 3.024-0.377 6.26-0.685 9.601-0.96 3.062-0.253 6.406-0.841 9.6-0.72 2.801 0.106 6.076 0.841 8.88 1.44 2.773 0.593 5.689 1.006 8.16 1.92 1.702 0.63 6.253 2.924 6 4.8-0.262 1.942-5.689 2.818-9.36 3.12-4.312 0.354-9.014-0.407-11.76-0.72-12.528-1.427-23.085-1.652-34.08 0.48-1.696 0.329-3.302 0.884-5.04 1.2-5.323 0.967-9.533 1.767-14.88 3.84-1.229 0.476-2.849 1-4.32 1.92-0.933 0.583-3.533 2.208-3.6 2.4-0.504 1.453 4.774 3.051 3.36 6-0.504 0.991-2.109 1.058-3.36 1.2-1.203 0.137-2.727 0.258-4.08 0.24-1.271-0.018-2.656-0.638-3.6-0.48-0.928 0.155-2.961 2.311-4.32 3.84-1.443 1.624-2.9 3.073-3.84 4.08-2.969 3.183-4.695 6.325-6.72 9.36-2.227 3.338-4.745 6.189-6.48 9.6-2.265 4.452-4.336 8.697-6 13.92-3.415 10.719-7.5 21.618-10.32 33.84-0.48 2.084-1.096 4.258-1.68 6.24-0.632 2.146-1.971 4.071-2.16 5.76-0.165 1.484 0.394 2.871 0.24 4.56-0.183 2.016-0.942 4.197-1.44 6.24-0.509 2.091-0.785 4.219-1.199 6.24-1.671 8.151-2.698 17.138-1.92 27.6 0.141 1.899 0.516 3.842 0.72 5.76 0.546 5.123 1.394 11.315 1.68 17.28 0.379 7.896 0.809 15.842 1.44 23.76 0.326 4.087 1.262 8.072 1.68 12.24 0.857 8.539 1.407 17.126 2.16 25.68 0.37 4.204 0.61 8.579 1.2 12.72 1.205 8.461 1.989 16.834 2.64 25.2 0.65 8.354 2.737 16.417 3.36 24.48 0.88-17.767 1.543-35.059 2.399-53.04 0.559-11.727 1.064-23.315 1.44-35.28 0.179-5.711-0.069-11.419 0.24-17.04 0.987-17.933 1.543-35.604 1.68-53.04 0.035-4.457-0.888-9.193-0.48-13.44 0.272-2.842 1.282-5.907 1.681-9.12 1.125-9.078 1.859-20.265 5.279-27.12 1.338-2.68 3.925-5.908 6-8.16 5.854-6.351 12.566-9.88 21.601-13.2 0.9-0.331 1.694-0.719 2.64-0.96 2.479-0.631 3.625-1.017 5.76-2.16 10.68-5.715 21.568-10.537 32.881-16.08 4.153-2.036 8.919-3.659 11.279-6.48 1.149-1.373 1.834-3.312 2.88-5.04 0.992-1.638 1.943-3.419 3.12-4.8 1.674-1.963 4.364-3.821 6.48-6.24 4.195-4.796 8.305-7.232 13.439-11.76 0.786-0.693 2.293-1.586 3.36-2.88 1.117-1.354 1.668-3.208 2.88-3.36 0.858-0.108 2.33 0.659 2.88 1.2 1.39 1.365 1.163 3.648 0.96 6 0.932 1.279 2.253-2.773 4.32-1.44 1.84 4.061 1.844 10.749-0.48 14.16 2.188 1.717 7.877 2.915 8.4 6.48 0.451 3.071-1.992 5.049-2.4 8.4 7.532 0.429 13.198 2.568 12.961 11.04-9.437-0.182-17.144 2.27-25.2 4.8-4.19 1.315-7.075 2.358-12.48 1.92-2.113-0.171-4.562-0.035-6.72-0.48-1.896-0.392-4.224-1.437-6.24-2.4-2.897-1.385-5.959 0.207-9.6 1.44-4.639 1.571-7.529 2.452-10.32 5.76-0.491 0.583-0.664 1.325-1.2 1.92-2.995 3.327-7.028 6.431-11.52 8.4-2.463 1.08-5.414 2.23-8.16 3.36-3.83 1.575-7.347 3.5-11.04 4.56-3.943 1.131-7.831 2.444-11.52 4.08-1.685 0.747-3.165 1.905-4.801 2.88-3.566 2.125-5.552 2.549-7.68 6.48-1.682 3.106-2.315 5.611-3.6 9.84-0.604 1.985-1.647 4.02-2.16 6-0.47 1.81-0.635 4.115-1.2 6.24-0.538 2.023-1.343 4.064-1.44 5.76-0.079 1.4 0.327 2.747 0.24 4.08-0.212 3.249-1.443 6.643-2.16 9.36-0.163 0.619-0.057 1.358-0.239 1.92-0.339 1.037-1.181 1.81-1.44 2.88-0.795 3.275 0.242 6.581 0 10.56 0.484-1.002 0.178-2.65 0.24-4.08 0.054-1.256-0.075-2.888 0.72-3.36 0.8 3.104 0.568 6.417 0.48 9.601-0.263 9.416-0.764 19.015-1.2 28.56-0.296 6.453-0.417 13.021-0.721 19.44-0.729 15.447-0.568 30.383-1.199 45.359-0.322 7.628-0.002 15.28-0.48 22.8 0.941-0.807 0.682-2.496 0.96-4.079 1.63-9.257 3.181-20.376 4.8-30.24 1.862-11.336 4.405-22.38 7.2-32.88 1.403-5.272 2.604-10.581 4.561-15.601 4.6-11.805 10.741-22.512 18.239-31.92 2.743-3.44 4.928-5.6 8.641-8.16 3.886-2.679 8.761-5.444 13.68-7.2 6.905-2.464 15.165-3.457 24.24-3.36 9.102 0.097 17.437-1.11 24.479-2.64 7.688-1.67 14.302-5.184 22.08-5.52 2.987-0.129 5.788 1.01 8.88 1.68 4.826 1.046 10.39 2.377 15.36 3.36 2.814 0.557 5.111 0.505 7.44 1.68 3.218 1.623 4.502 5.727 7.199 9.84 2.716 4.141 6.087 5.875 7.2 9.84 0.614 2.186-2.033 5.919-3.359 8.16-1.354 2.284-3.355 4.249-4.561 6.239-0.873 1.443-2.016 4.502-2.88 5.521-0.959 1.129-4.431 3.952-6 3.6-1.543-0.347-2.389-4.307-2.16-6.72 0.167-1.757 1.301-3.661 1.92-5.521 0.599-1.795 1.083-3.697 1.681-5.52 1.106-3.382 2.798-7.32 3.119-10.8-1.712-1.071-3.854-1.153-5.76-1.44-2.045-0.309-4.027-0.747-6-1.2-4.057-0.932-8.065-1.308-12.24-2.16-7.483-1.527-14.402-4.986-23.279-5.52-8.173-0.492-18.023 1.325-26.4 2.64-2.926 0.459-5.965 0.466-8.399 1.2-3.772 1.137-8.455 4.518-12.961 6.96-2.179 1.183-4.544 2.16-6.479 3.36-1.021 0.633-1.875 1.567-2.88 2.16-1.537 0.906-2.867 1.539-4.08 2.64-4.09 3.71-6.732 10.117-9.6 16.32-2.764 5.976-5.225 12.372-7.681 18-2.62 6.005-5.252 12.119-6.96 18.72-1.769 6.837-3.39 13.782-4.8 20.88-0.691 3.479-1.953 6.803-2.64 10.32-0.685 3.503-1.657 6.837-2.4 10.32-1.521 7.132-2.772 14.539-3.6 22.079-0.801 7.286-2.388 14.652-3.601 22.08-0.609 3.736-1.007 7.497-1.68 11.28-1.046 5.877-1.881 11.931-2.4 18-0.362 4.233-1.42 8.538-1.92 12.96-0.249 2.208-0.056 4.479-0.24 6.72-0.147 1.805-0.558 3.708-0.72 5.521-1.122 12.529-3.001 25.508-4.08 38.16-0.61 7.165-1.072 14.178-1.68 21.12-0.478 5.451-0.497 10.812-0.24 16.56 0.07 1.577 0.667 3.641-0.479 5.04-1.073-0.451-0.612-2.517-0.721-4.08-0.788-11.377 0.721-22.979 1.44-33.6 0.211-3.109 0.745-6.246 0.96-9.36 0.229-3.314 0.097-6.587 0.479-9.84 0.723-6.135 1.864-12.147 2.4-18.24 1.099-12.483 2.447-24.915 4.08-37.2 1.588-11.944 3.87-23.707 5.76-35.279 1.984-12.149 3.165-24.076 5.76-35.521 2.554-11.261 5.026-22.349 7.681-33.6 2.598-11.016 6.692-20.31 11.04-30.24 2.913-6.654 5.741-14.847 9.6-21.36 0.582-0.982 1.536-1.907 2.16-2.88 0.716-1.116 1.216-2.361 1.92-3.12 2.167-2.335 6.15-4.131 9.36-6 9.337-5.436 19.09-12.368 30.96-14.64-5.774-0.228-11.263 1.473-16.561 2.88-7.005 1.861-13.786 3.609-19.439 6.72-3.738 2.058-7.509 4.514-10.32 7.681-1.811 2.039-3.822 4.218-5.52 6.479-0.85 1.132-1.79 2.199-2.641 3.36-2.151 2.938-3.466 6.823-5.279 10.56-4.106 8.455-7.725 18.056-10.32 28.32-1.935 7.649-3.164 15.593-5.04 23.76-1.207 5.254-2.417 10.68-3.36 16.08-0.953 5.457-1.277 11.018-2.16 16.561-3.589 22.542-5.839 44.837-9.359 67.92-1.749 11.467-2.928 22.933-4.32 34.319-0.713 5.832-0.955 11.789-1.68 17.761-0.707 5.821-0.899 11.929-0.96 17.76-0.064 6.157-0.027 12.295 0.479 18.24 0.488 5.72 0.81 11.281 0.96 16.8-1.135-0.543-0.834-2.133-0.96-3.12-0.979-7.71-1.058-17.505-1.439-25.92-0.215-4.72-0.906-9.508-1.2-14.16-0.32-5.059-0.394-10.012-0.72-14.88-0.247-3.676-1.093-7.325-1.44-11.04-0.716-7.647-1.565-15.156-2.4-22.561-1.616-14.347-3.229-30.253-4.8-45.119-1.2-11.36-3.121-21.604-4.8-32.641-0.556-3.653-0.844-7.417-1.44-11.04-2.812-17.075-7.228-35.38-8.879-53.04-0.897 2.058-0.405 4.315-0.48 6.48-0.221 6.381-0.202 12.728 0.48 19.2 0.846 8.038 2.151 16.033 2.879 24 1.107 12.091 2.781 23.996 4.08 36.479 0.421 4.038 1.094 7.99 1.44 12 0.498 5.768 0.662 11.552 1.2 17.28 0.257 2.734 0.648 5.418 0.96 8.16 1.18 10.396 1.391 22.056 2.399 33.84 0.122 1.415 0.076 2.832 0.24 4.32 0.142 1.277 0.6 2.544 0.72 3.84 0.178 1.903-0.129 3.908 0 5.76 0.38 5.412 0.83 10.737 1.2 16.08 0.924 13.327 0.941 26.523 1.44 39.84 0.093 2.495 0.794 5.205-0.24 7.68-0.863-1.848-0.646-3.989-0.72-6-0.59-15.902-0.968-31.158-2.16-46.8-1.338-17.549-1.785-35.192-3.36-52.32-0.39-4.243-0.92-8.514-1.439-12.72-0.547-4.421-0.548-8.811-0.96-13.2-0.807-8.58-1.866-17.116-2.641-25.68-0.77-8.517-2.183-16.903-2.88-25.44-0.695-8.51-1.978-17.01-2.88-25.439-0.877 1.752-0.48 4.195-0.48 6.72 0 6.941 0.027 14.019-0.24 21.12-0.332 8.826 0.24 17.83 0.24 26.88 0 18.387 0.035 36.842-0.24 54.72-0.25 16.238 1.292 32.308 1.68 48.48 0.288 12.006 1.68 23.782 1.68 36.48 0 2.062 0.158 4.185 0.24 6.239 0.07 1.748 0.517 3.997-0.72 5.521-0.668-0.986-0.657-2.518-0.72-3.601-0.508-8.7-0.566-18.554-1.2-27.6-0.376-5.366-0.225-10.728-0.48-16.08-0.246-5.151-0.83-10.189-1.2-15.36-0.395-5.506-0.134-11.113-0.24-16.8-0.097-5.219-0.48-10.562-0.48-15.84 0-10.761 0.456-21.725 0.24-32.64-0.432-21.84-0.759-44.037 0.24-65.521 0.255-5.478-0.646-10.894-0.24-16.319 0.404-5.406 0.485-10.744 0.72-16.08 0.465-10.583 1.314-21.136 1.92-31.44 0.602-10.244 1.675-20.56 2.879-30.48 0.917-7.549 1.682-15.098 3.12-22.32 0.485-2.436 0.728-4.842 1.2-7.2 0.532-2.652 1.794-5.067 1.92-7.68 0.063-1.305-0.352-2.563-0.24-3.84 0.201-2.297 1.51-4.999 2.4-7.68 2.514-7.566 4.396-16.186 6.72-23.52 1.641-5.175 3.291-10.269 5.04-15.12 1.818-5.043 4.024-9.545 6.24-13.92 2.177-4.297 5.282-8.068 7.92-12.24 2.578-4.077 5.904-7.824 9.12-11.04 6.881-6.881 14.219-13.129 22.32-17.76-10.68 2.31-18.638 7.161-25.44 13.44-3.099 2.859-5.774 5.923-8.64 8.88 1.827-3.372 4.451-5.948 7.439-8.16 2.58-3.91 7.04-5.92 10.56-8.88zm-18.24-88.803c-0.823-2.52-2.912-4.159-4.32-6.24-0.71-1.05-1.206-2.303-1.92-3.36-0.731-1.083-1.4-2.368-2.16-3.36-2.841-3.714-7.394-5.816-9.6-10.08 3.935 2.721 7.605 6.084 10.56 10.08 2.321 3.138 4.194 6.72 6.48 9.6 0.74 0.932 1.689 2.348 3.12 1.92-0.689-2.3-2.22-4.039-3.36-6-1.177-2.024-2.026-4.272-3.12-6.48 2.296 3.001 3.979 7.172 6.24 10.08 0.649 0.835 1.535 2.591 2.88 2.16 1.098-1.663 0.236-3.811 0.24-5.76 0.005-2.835 0.755-5.593 0.96-8.16-3.422-4.065-6.499-7.769-10.32-11.04-5.209-4.459-12.744-6.228-20.64-7.68-1.145 0.695-1.099 2.581-2.4 3.12-0.586 0.454-2.071 0.008-2.399 0.72 0.575 8.225 3.66 13.939 7.92 18.48 5.02 1.041 8.944 2.545 12.24 5.04 1.717 1.3 2.726 2.946 4.08 4.56 1.295 1.543 2.542 3.454 4.56 4.32-0.594-1.869-1.758-3.397-2.88-4.8-1.114-1.393-2.478-2.646-3.36-4.32 2.55 2.252 3.92 5.681 7.2 7.2zm-27.12-12.48c0.918 0.202 1.927 0.313 3.12 0.24-0.796-2.253-2.782-3.768-3.84-6-1.113-2.349-1.342-4.992-2.64-7.44 0.38 5.135 1.25 9.794 3.36 13.2zm39.12 10.8c2.487 0.288 3.493-2.709 5.04-4.32 1.675-1.744 3.646-3.307 5.76-3.84-3.394 2.446-6.202 5.478-8.399 9.12 0.766 0.834 0.571 2.628 1.439 3.36 2.522-0.119 3.766-3.594 6-4.8 0.724-1.232 1.605-3.466 3.12-3.12-1.703 3.577-4.823 5.736-7.2 8.64 0.692 1.308 2.176 1.825 2.641 3.36-0.176 2.359-0.178 3.324 1.199 4.32 3.998-0.238 7.981-0.597 10.801-1.92 3.866-1.815 3.504-6.316 3.84-12-0.966-1.514-1.679-3.281-2.641-4.8-1.653 0.012-2.975-1.701-3.84-2.16-1.315-0.697-2.057-0.007-2.64-1.2-0.982-2.012 1.812-5.319 0.479-7.44-1.725-2.748-7.893-0.288-10.079 0-3.066 0.403-5.636 0.103-7.681 1.44-3.709 2.425-4.29 8.167-3.12 14.4 1.354 0.167 2.314 0.726 3.601 0.96 0.979-2.861 2.461-6.498 4.8-7.2-1.28 2.016-3.25 4.569-3.12 7.2zm-27.84 8.4c3.219 0.665 6.278 1.614 9.6 1.92 0.847 0.078 2.586 0.843 3.12-0.48 0.021-1.621-2.238-1.67-3.359-1.92-4.36-0.971-9.034-1.786-12-3.84 4.799 1.681 9.85 3.11 15.6 3.84 2.748-2.891-0.268-3.778-2.16-6-1.36-1.598-2.166-3.197-2.88-4.32-4.21-4.524-11.929-7.388-21.36-6.96-3.078 0.14-6.525 0.194-9.36 0.72-6.966 1.292-11.312 5.419-13.44 10.8 1.728 1.072 0.889 4.711 2.16 6.24 1.148-0.231 2.83 0.7 4.8 0.72 0.931 0.01 1.931-0.549 2.88-0.48 3.897 0.282 4.684 2.914 6.96 5.04 1.164 1.087 3.344 2.379 5.28 3.84 4.16 3.141 7.496 6.569 15.12 5.52 1.757-0.242 4.455-1.106 6.72-1.92 1.286-0.462 5.466-1.773 5.76-3.12 0.301-1.373-1.22-1.959-1.439-3.36-5.296-0.667-10.787 0.344-14.88-1.44 3.412 0.415 5.863 0.48 9.84 0.48 1.82 0 4.708 0.53 5.04-0.96 0.534-2.402-5.183-1.958-6.24-2.16-1.418-0.271-3.292-1.031-5.28-1.44-1.832-0.377-3.487-1.026-5.279-1.44-1-0.231-1.995-0.029-2.88-0.24-2.185-0.521-4.027-1.599-5.521-1.92-2.14-0.459-4.936 0.067-5.52-1.2 6.66 1.05 12.44 2.783 18.72 4.08zm21.12-7.68c-0.863 0.896-0.711 2.809-1.681 3.6-0.722-0.661 0.241-1.666 0.24-2.4-3.534-1.554-4.036 3.701-5.04 6.24 0.188 1.012 1.626 0.774 1.681 1.92 0.394 1.616-1.951 3.194-0.48 5.28 0.688 0.672 2.251 0.469 2.64 1.44-0.227 1.552-0.384 3.091 0.24 4.32 2.458 0.182 3.237 2.043 5.04 2.88 0.45-0.75 0.171-2.229 0.72-2.88 0.984 0.272 0.058 1.063 0.24 1.92 1.143 0.937 1.223 2.938 3.36 2.88 0.623-0.88-1.171-2.435-0.24-3.6 0.692 2.027 1.471 3.969 4.32 3.84 0.985-0.295 0.953-1.607 1.2-2.64 1.637-0.232 3.645-2.009 2.159-3.84-1.389-0.111-3.31 1.116-3.84-0.24 2.325 0.165 3.566-0.753 4.561-1.92v-4.08c-0.194-0.846-1.465-0.615-1.44-1.68 0.146-0.974 0.736-1.503 0.48-2.88-1.352-0.968-1.613-3.027-4.08-2.88-0.106 2.214-1.516 3.125-3.12 3.84 0.34-1.739 2.124-2.036 2.399-3.84-2.139 0.181-1.385 3.254-3.6 3.36 0.834-1.886 1.891-3.549 3.12-5.04-0.135-2.105-1.163-3.318-3.601-3.12-0.932 0.988-0.979 2.86-1.92 3.84-0.77-1.342 0.471-2.504 0.48-3.84-0.94-1.001-2.36-1.034-3.84-0.48zm-50.4 9.84c1.867 0.613 3.878 1.082 6.24 1.2 0.22-1.886-4.54-2.511-6.24-1.2zm43.2 3.84c0.127-1.553 0.689-2.67 1.2-3.84-0.325-0.076-0.459-0.342-0.96-0.24-0.28 0.985-1.43 3.163-0.24 4.08zm22.32 8.88c-0.189 0.53-0.84 0.601-1.2 0.96 0.472 3.631 2.635 5.203 5.04 6.96 1.309 0.956 2.633 1.924 3.84 2.88 2.469 1.954 5.81 3.186 7.68 5.76 0.657 0.905 0.738 2.102 1.44 2.88 0.837 0.928 3.216 1.788 4.8 2.4 2.299 0.888 5.603 2.587 8.4 1.68-2.681-1.107-4.653-3.312-6.721-4.8-1.004-0.723-2.798-1.196-2.399-2.64 4.405 1.515 6.044 5.796 10.8 6.96-0.084-1.059-0.749-2.112-0.96-3.12-0.505-2.414 0.149-4.866-0.48-7.68-0.782-3.498-4.287-8.746-7.439-13.44-1.475-2.195-2.78-4.963-4.561-6.24-4.045-2.903-11.37-3.164-16.8-1.68 0.184 2.023-0.456 3.224-0.72 4.8 2.245 2.395 5.726 3.555 7.92 6-2.35-1.177-5.087-3.36-7.44-3.6 0.034 1.692 1.759 2.799 2.881 3.6 4.023 2.872 7.949 5.407 12 7.92 0.436 1.168 2.553 1.921 2.64 2.64-6.42-3.897-12.09-8.554-18.72-12.24zm-19.68-4.08c1.4-1.387-0.825-3.329-1.92-2.88 0.76 0.842 0.65 2.549 1.92 2.88zm-8.64 3.12c-2.402 0.869-5.292 1.191-6.48 1.92-2.054 1.259-2.602 3.955-3.84 6 1.239 1.839-0.22 3.615-0.479 5.28-0.77 4.931 0.768 9.457 0.96 13.92 0.161 3.749-0.604 7.256-1.44 10.32-0.659 2.419-2.021 4.625-2.399 7.2-0.117 0.791 0.526 1.644-0.24 2.16 0.417 0.543 1.697 0.223 1.92 0.96-0.077 0.957-0.014 1.773 0.479 2.16 5.103 0.119 8.304-4.763 12.721-7.68 3.839-2.535 8.889-4.018 11.76-7.44 0.776-0.926 1.025-2.156 1.92-2.88-0.066-5.713-0.811-11.198-0.24-16.56 0.375-3.514 2.027-6.919 1.2-10.32-0.847-0.033-1.073-0.687-1.92-0.72-2.192 2.608-3.212 6.388-5.04 9.36-0.025-3.478 2.706-6.245 3.36-9.84-1.531 1.075-2.475 3.084-3.36 4.8-1.927 3.731-3.604 7.635-5.52 11.28-0.945 1.797-1.785 3.669-3.12 4.8 2.473-8.327 7.55-14.05 10.319-22.08-1.899 0.737-2.76 3.093-3.84 4.8-1.192 1.887-2.093 3.983-3.359 5.04 0.372-2.09 1.965-4.064 3.119-6 0.973-1.63 3.607-4.396 1.681-5.76-2.44 0.292-4.179 4.606-6.72 4.8 0.834-1.018 2.958-2.975 4.079-4.08 1.229-1.21 2.777-2.484 1.44-4.08-2.68 0.204-4.18 1.63-6.96 2.637zm14.88 3.12c-0.98-2.459-4.24-2.639-5.76-4.56 0.74 2.705 3.16 3.721 5.76 4.56zm-24.96-0.72c-2.928 2.156-6.186 5.031-9.84 7.92-2.47 1.952-5.028 3.708-7.2 5.52-0.793 0.662-1.774 1.313-2.4 1.92-1.865 1.809-2.701 5.754-3.6 8.64-0.802 2.573-2.187 5.122-2.4 7.92-0.833 0.847-1.597 1.763-2.16 2.88 3.809-0.395 5.53-2.616 7.92-4.32 4.766-3.396 9.081-6.703 13.92-9.84 0.204-0.994 0.769-2.088 0.24-3.12 1.414-2.806 1.795-6.371 2.88-9.6 0.787-2.347 2.146-4.542 3.12-6.24 0.212-0.371 1.191-1.242 0.479-1.68-0.23 0.117-0.75-0.153-0.96 0zm26.4 1.44c0.354 0.125 0.604 0.355 0.96 0.48 0.516-0.512 0.089-1.307-0.48-1.44-0.12 0.355-0.36 0.605-0.48 0.96zm4.32 1.44c-1.203-0.004-2.215 0.185-3.12 0.48-0.801 4.899-2.214 10.845-1.199 15.6 0.621 2.915 2.336 5.985 3.84 8.64 1.482 2.617 3.397 5.186 4.56 8.16 1.116 2.855 1.865 6.3 2.88 9.6 1.461 4.746 2.754 8.982 2.4 14.88 4.464 0.267 5.38-4.124 5.52-7.68 0.357-9.098-2.819-15.311-7.439-18.96-0.31-0.245-0.454-0.729-0.72-0.96-3.874-3.372-9.015-7.552-10.32-12.96-0.387-1.603-0.358-2.599 0-3.36 1.209 1.76 0.893 3.804 1.68 5.52 0.698 1.521 2.101 3.346 3.36 4.8 2.149 2.481 4.177 4.517 6.72 6 1.611 2.778 4.637 4.659 6 7.92 1.495 3.577 1.405 8.023 1.68 13.2 1.45-0.201 1.756-1.944 2.4-2.88 2.242-3.256 4.778-6.12 6.24-9.84 0.557-0.323 1.078-0.682 1.439-1.2 2.533-10.541-0.274-22.051-6.96-26.88-0.771-0.21-0.497 0.623-0.96 0.72-2.448-2.751-5.256-5.144-8.399-7.2-0.288 2.051 1.806 2.989 1.439 4.32-2.061-2.739-3.292-6.308-5.279-9.12-0.912 0.368-2.136 0.425-2.641 1.2 0.187 4.74 2.301 10.682 4.32 13.92-0.241 4.107 2.686 8.335 2.399 12.48-1.534-5.218-2.946-10.849-4.56-15.36-0.444-1.243-1.083-2.425-1.44-3.6-0.858-2.83-0.949-5.69-2.64-7.44 0.372 3.388 1.375 6.146 1.92 9.36-1.7-2.462-1.43-6.897-3.12-9.363zm-44.4 1.92c-1.578 1.869-3.5 3.521-4.56 6-0.317 0.74-1.237 2.022-0.48 2.64 1.801-1.388 3.749-3.044 5.76-4.56 1.883-1.419 4.936-2.523 4.8-5.28-2.12 0.116-3.56 0.923-5.52 1.2zm-14.64 16.32c-1.751 1.897-3.845 3.618-5.52 5.28-0.572 0.567-0.996 1.952-2.16 1.68 0.174 0.841 0.03 1.395-0.24 2.16-0.61 1.727-1.958 3.619-3.12 5.28-1.142 1.633-2.837 3.065-3.84 4.8-1.079 1.866-1.844 4.509-2.88 6.96-0.941 2.228-2.556 4.62-3.12 6.72-0.843 3.144-0.444 7.306-0.72 10.32-0.088 0.967-0.044 2.282-0.72 3.12-0.148-2.401 0.113-4.561 0.24-6.72 0.131-2.227-0.172-4.546 0.24-6.48 0.357-1.673 1.425-3.643 2.16-5.28 1.5-3.343 2.858-7.34 4.8-10.08 2.22-3.132 5.333-5.961 6.72-9.84-1.917 1.32-4.081 2.612-5.76 4.32-3.021 3.074-4.345 6.619-6.24 11.28-1.935 4.758-2.863 8.073-3.12 13.92-0.261 5.933-0.348 12.023 0.24 17.52 0.43-2.702-0.29-6.837 0.96-7.92 0.124 8.594-0.878 16.57-0.96 25.2-0.579 0.174-0.979-1.554-1.2-0.24-0.124 9.3 1.28 17.76 2.4 26.64 0.875 6.943 1.324 14.058 1.92 21.12 0.254 3.012 1.011 6.082 1.2 9.12 0.452 7.274 0.621 14.675 1.68 21.84 0.138 0.935 0.605 1.912 0.72 2.88 0.345 2.908 0.221 5.893 0.48 8.88 0.247 2.841 0.737 5.771 0.96 8.64 0.358 4.598 0.33 9.302 0.72 13.92 0.444 5.262 1.384 11.76 1.68 16.8 0.133 2.263 0.059 4.488 0.24 6.721 0.824 10.175 2.444 20.09 2.88 30 0.162 3.688 0.245 6.207 0.479 9.6 0.297 4.291 0.87 8.733 1.2 13.2 0.698 9.438 1.912 18.558 2.64 27.6 0.184 2.283 0.219 4.69 0.48 6.96 0.265 2.311 0.969 4.572 0.96 6.721-0.003 0.639-0.282 1.086-0.24 1.68 0.745 10.533 1.657 21.104 2.16 31.2 0.549 11.018 0.118 23.331 3.12 31.68-0.271-15.156-1.272-30.145-1.92-44.88-0.094-2.13 0.143-4.352 0-6.48-0.074-1.105-0.444-2.232-0.48-3.359-0.051-1.596 0.339-3.193 0.24-4.8-0.663-10.752-1.195-21.515-1.2-32.4-0.107-0.546-1.033 0.918-1.2-0.24-0.107-9.607-1.518-18.31-1.44-26.88 1.038 0.561 0.333 1.795 0.48 2.88 0.149 1.098 0.606 2.252 0.72 3.36 0.122 1.182-0.337 2.577 0.479 3.359-0.544-9.977-0.731-19.959-1.68-29.76-0.954-9.855-2.58-19.518-3.12-29.28-0.264-4.77-0.601-8.188-0.96-12.479-0.253-3.021-0.461-6.095-0.72-9.12-0.432-5.045-0.564-10.887-1.44-15.36-0.046-0.235 0.205-1.738-0.72-1.44-1.432-0.929-0.091 2.07-1.68 1.68-0.595-5.101-0.979-10.793-1.44-15.6-0.166-1.726-0.595-3.756 0.24-5.28 0.35 4.093 1.033 8.698 1.44 12.96 0.171 1.793-0.362 3.812 0.72 5.28-0.1-9.73-1.91-19.851-1.68-29.76 0.673 0.879 0.642 2.243 0.72 3.36 0.095 1.365 0.131 2.718 0.24 4.08 0.451 5.65 0.391 11.984 1.68 17.04-0.665-14.953-1.716-31.551-2.88-47.04-0.337-4.495-0.765-8.993-0.96-13.44-0.55-12.522-0.24-22.022-0.24-33.12 0-3.015-0.087-6.078 0-8.88 0.122-3.922 0.085-8.712 1.2-12.72 0.678-2.439 1.987-5.113 2.88-7.68 0.931-2.677 1.611-6.272 2.64-7.92 1.135-1.818 3.985-3.126 6-4.56 2.179-1.55 4.4-2.933 6.24-4.56-1.422 0.334-2.911 0.586-4.08 1.2-1.002 0.526-1.605 1.799-2.64 1.44 1.092-1.968 2.975-3.371 4.08-5.52 1.216-2.365 2.011-5.894 2.88-8.64 0.275-0.871 0.878-1.739 1.2-2.64 0.694-1.945 0.976-4.113 1.68-6 0.767-2.055 2.345-3.932 2.64-5.76-0.014-0.146-0.036-0.284-0.24-0.24-3.68 3.505-5.67 8.262-9.12 11.997zm22.32 17.04c0.081 1.832-0.181 4.392 1.44 5.28 0.094-3.74 1.414-5.964 2.159-8.64 1.996-7.162 0.612-16.912 0.24-24-1.91 7.718-4.28 17.252-3.84 27.357zm24-0.72c-4.651 2.574-9.524 4.783-12.96 8.64 4.32-1.642 7.855-3.882 11.28-6.24 3.354-2.31 6.801-3.786 8.16-7.44 0.368-0.058 0.035-0.396-0.24-0.48-1.65 2.345-3.84 4.19-6.24 5.517zm32.64 12.723c-0.915 1.517-1.886 3.103-2.159 4.56 2.034-2.445 4.303-4.657 5.279-8.16-0.054-0.187-0.006-0.474-0.239-0.48-0.97 1.19-2 2.61-2.88 4.08zm65.28 1.2c-5.527-1.654-12.336-3.014-19.439-2.16-9.662 1.161-20.204 1.792-26.641 5.52-2.706 0.556-5.532 1.284-7.2 2.88 5.016-1.112 10.425-2.659 15.841-3.6 5.005-0.87 9.59-0.897 15.119-0.72 3.064 0.098 6.345 0.031 9.12 0.48 1.351 0.219 2.537 0.953 3.84 1.2 4.251 0.806 7.738 0.545 11.04 1.92-5.637 0.342-11.167-2.114-17.04-2.64-9.704-0.869-18.899-0.415-27.359 1.44-5.447 1.194-11.16 2.917-15.84 4.32-1.298 0.389-2.84 0.668-3.84 1.68 10.345-2.387 21.34-4.784 33.359-5.52 2.726-0.167 5.803-0.207 8.641 0 9.917 0.722 20.335 3.24 29.039-0.24-1.07-2.82-5.22-3.54-8.64-4.56zm-109.2 12c-1.826 0.515-3.91 0.837-5.04 1.44-1.148 0.613-2.403 2.033-3.359 2.88-1.218 1.08-2.356 2.129-3.12 3.36 2.636-1.155 5.109-1.354 8.399-1.92 1.364-0.234 2.702-0.694 4.08-0.72 1.272-0.024 2.73 0.474 4.08 0.48 1.504 0.007 2.98-0.378 4.561-0.24 3 0.262 5.626 1.912 7.439 1.68 0.886-0.113 1.53-0.953 2.4-1.44 1.937-1.083 3.569-1.618 5.28-2.4 0.787-0.36 1.997-0.765 2.399-1.68-7.78-2.66-18.83-3.78-27.12-1.44zm122.16 2.4c-1.832 2.766-3.836 4.618-6.24 6.48-2.812 2.179-5.367 3.897-7.92 6.24-1.563 1.436-3.198 3-4.8 4.56-1.518 1.478-3.303 2.968-4.8 4.56-2.974 3.163-4.125 6.708-6.48 11.04-0.884 1.626-3.574 2.846-6 4.08-6.084 3.096-12.891 6.304-18.479 8.88-4.172 1.923-8.173 4.059-12 6-4.324 2.194-8.496 4.029-12.24 6-2.384 1.255-4.78 3.279-6.96 4.08-1.263 0.464-2.437 0.56-3.6 0.96-2.381 0.819-4.424 2.162-6.24 3.36-1.853 1.221-3.872 2.448-5.04 4.08-0.729 1.018-0.719 2.295-1.44 3.36-1.007 1.487-2.988 2.382-4.08 3.84-3.992 5.333-8.125 15.952-5.279 23.76 1.158-1.076 2.957-4.056 3.12-5.76 0.293-3.075 0.484-5.564 1.439-8.4 0.87-2.582 1.851-4.877 3.12-6.96 1.479-0.681 2.183-2.138 3.36-3.12 4.328 1.605 6.373-0.058 9.6-1.68 3.937-1.979 7.674-3.305 9.12-6.96 12.795-6.302 26.961-11.183 40.32-17.04 2.134-0.936 4.609-1.67 6.96-2.64 3.001-1.239 5.443-2.964 8.64-3.12 3.382 2.235 7.149 4.414 12.72 4.56 5.652 0.148 9.499-0.638 13.681-1.92 3.749-1.149 7.915-1.993 10.8-3.36-4.813 1.028-10.098 2.862-15.12 2.88 2.805-1.383 5.796-1.15 8.88-1.92 0.765-0.191 1.402-0.744 2.16-0.96 2.827-0.807 5.648-1.748 8.4-1.68 0.625 0.015 1.331 0.436 1.92 0.48 2.529 0.189 5.049-1.076 7.92-0.48-0.048-2.66-1.438-5.925-2.88-6.72-3.208-1.767-6.874-1.937-10.801-1.44-8.093 1.024-14.91 1.489-21.359 4.8-3.729 1.915-6.891 3.696-11.76 4.08-1.596 0.126-3.47 0.628-4.32-0.48 0.084-0.796 1.383-0.376 2.16-0.48 0.055-0.425-0.242-1.202 0.479-0.96 6.815-0.837 11.704-4.703 17.76-5.52 0.772-0.267-0.16-1.064 0.721-1.44 1.504-0.632 3.048-1.35 4.56-2.16 1.507-0.807 2.899-1.982 4.32-2.16-2.403 2.077-5.528 3.432-8.4 5.04 4.687-0.281 10.6-1.396 15.84-1.92 0.734-1.321 1.095-2.617 1.681-4.32 0.486-1.415 1.705-3.318 1.439-4.8-0.363-2.027-5.708-4.682-7.439-5.04-2.542-0.525-7.773-0.204-9.84 0.72-1.959 0.875-3.349 4.642-5.04 6.48-2.28 2.477-6.14 4.282-9.12 6-1.14 0.657-2.139 1.608-3.12 2.16-0.931 0.523-1.902 0.712-2.641 1.2-1.239 0.819-2.705 3.322-4.56 2.64 1.85-2.958 5.415-4.229 8.16-5.76 2.892-1.612 6.186-3.128 8.64-5.28 1.917-1.681 3.488-3.957 4.8-6 3.504-5.456 8.165-11.99 7.921-20.4-0.96-0.4-0.98-1.74-2.64-1.44zm-131.28 0.72c-1.723 0.567-2.95 1.486-4.079 2.16-1.879 1.12-3.458 1.88-5.04 2.88-2.212 1.398-4.474 2.734-6.24 4.32-3.56 3.194-5.855 7.899-7.92 12.96-2.031 4.978-3.031 11.068-3.84 17.04-1.326 9.79-1.122 24.44-0.24 34.08 0.144 1.58 0.133 3.033 0.24 4.56 0.358 5.13 1.366 10.192 1.68 14.88 0.568 8.48 1.102 16.444 2.4 23.76 0.561-2.558 1.203-5.059 1.68-7.68 0.468-2.572 1.1-5.522 1.2-8.16 0.145-3.832-0.535-7.947-0.96-12-0.428-4.081-0.959-8.293-1.2-12.48-0.474-8.241-1.832-16.495-0.72-24.96 0.198 16.122 2.014 30.625 3.36 45.6 1.043-0.536 0.718-1.896 0.96-2.88 0.769-3.122 1.297-6.419 2.16-9.36 0.524-1.785 1.549-3.229 1.68-5.04 0.246-3.412-0.563-6.986-0.72-10.56-0.162-3.68-0.098-7.485-0.24-11.04-0.618-15.454 0.447-29.039 4.56-40.08 2.104-5.648 4.682-10.835 8.16-14.64 1.08-1.182 2.683-1.641 3.6-3.36 0.133 0 0.272-0.194 0-0.24-0.05 0.18-0.2 0.28-0.48 0.24zm9.36 2.88c-5.327 0.224-10.946 1.268-13.439 3.6-0.913 0.853-1.742 2.598-2.641 4.08-3.176 5.241-4.919 10.306-6.479 17.76-2.407 11.493-2.511 26.777-1.68 40.32 0.155 2.533-0.003 5.234 0.96 7.44 1.708-5.392 3.319-10.766 4.8-15.84 0.519-1.778 1.022-3.625 1.68-5.28 3.937-9.904 8.316-19.409 13.439-27.84 4.355-7.166 9.693-13.878 15.601-19.2 1.107-0.998 2.772-1.962 3.359-3.6-4.48-1.37-10.2-1.67-15.6-1.44zm35.28 0c-1.474-0.166-2.242 1.085-2.88 1.68-1.14 1.062-3.011 2.047-3.36 3.12 2.633 1.024 6.982 0.668 9.6-0.24-0.48-2.16-1.7-4.38-3.36-4.56zm89.76 4.32c-0.11 0.85-0.534 1.386-0.479 2.4-0.803 1.32-1.612 2.816-2.4 4.32-0.781 1.49-1.854 3.073-1.92 4.32 2.586-0.214 4.938-0.662 7.92-0.48 2.385-2.771 2.767-9.363 0.96-13.2-1.76 0.48-2.43 2.05-4.08 2.64zm-328.32 12.72c1.585 2.187 4.949 4.137 7.92 6.24 7.726 5.468 17.377 8.721 26.16 12.72 3.185 1.45 7.085 2.404 10.32 3.84 6.329 2.811 11.672 6.56 17.04 9.84 0.929 0.567 2.549 1.024 2.64 2.4-7.514-4.604-15.066-9.932-23.76-12.96-6.098-2.125-11.631-4.984-17.28-7.2-8.915-3.497-16.468-8.356-23.52-13.44 0.347 2.945 2.535 5.098 4.56 7.2 4.111 4.268 8.678 6.772 14.16 9.6 3.979 2.052 7.795 4.072 12 5.76 4.224 1.695 7.725 3.768 11.52 5.52 2.738 1.264 5.27 2.178 7.68 3.6 11.842 6.984 21.678 16.089 30.24 26.4 0.746 0.294 1.786 0.294 2.4 0.72 3.669 4.318 7.292 8.734 10.56 13.2 1.121 1.531 2.514 3.006 3.6 4.56 2.182 3.121 3.849 6.6 6 9.84 2.148 3.234 4.163 6.604 6 10.08-4.229-13.308-10.853-24.798-18-35.28-7.218-10.586-17.069-18.635-25.44-27.36 3.632 2.425 6.757 5.557 9.84 8.64 3.086 3.086 6.326 6.057 9.12 9.36 8.361 9.886 15.808 21.673 21.36 34.08 1.937 4.328 3.357 8.806 5.04 13.44 3.167 8.72 8.651 16.379 12.24 24.72-0.599-5.698-2.986-10.879-4.56-16.08-3.271-10.81-5.924-21.401-10.56-30.72-2.618-5.262-5.629-11.553-8.64-16.08-4.04-6.075-8.655-11.477-13.2-16.8-5.23-6.126-11.055-12.176-17.52-16.56-8.538-5.789-17.86-10.766-28.32-14.16-2.152-0.699-4.45-1.249-6.72-1.92-4.157-1.229-8.36-2.638-12.48-4.56-2.417-1.876-5.718-2.878-8.88-4.56-3.624-1.928-7.457-4.177-11.76-4.8-0.455 0.54 0.085 0.5 0.24 0.72zm304.32 21.84c3.562-0.119 6.121-1.239 8.16-2.88-2.71 0.97-5.27 2.08-8.16 2.88zm-42.96 19.68c8.056-1.065 14.513-3.728 19.68-7.68 0.035-0.284 0.428-0.544 0-0.72-6.15 3.21-13.99 4.72-19.68 8.4zm-24-0.96c0.775 0.164 1.593-0.544 2.4-0.96 0.644-0.332 2.488-0.599 1.439-1.2-0.85 1.15-3.34 0.66-3.84 2.16zm37.2-1.44c0.661 0.632 1.32-0.09 1.439-0.72-0.85-0.13-1.24 0.2-1.44 0.72zm-50.16 24c-0.923 1.898-2.21 3.697-3.12 5.76-1.673 3.792-2.543 8.413-4.32 12-0.571 1.155-1.656 2.139-2.159 3.36-1.137 2.758-0.626 6.296-0.96 10.08-0.258 2.912-0.837 5.842 0 8.4 1.54-4.642 1.182-10.088 2.159-15.12 0.502-2.582 1.289-5.432 2.4-7.44 0.368-0.666 1.102-0.982 1.44-1.68 0.86-1.779 1.085-3.98 1.68-6 0.593-2.016 1.597-3.883 1.92-6 8.514-13.006 29.485-13.554 42.72-21.84-2.873 0.248-5.47 2.048-7.92 1.92 1.245-0.275 1.992-1.048 3.601-0.96 2.002-1.609 5.263-1.819 7.68-3.12 0.774-0.417 1.442-1.197 2.16-1.68 0.716-0.482 2.132-0.619 1.92-1.68-0.642 0.318-1.192 0.728-1.92 0.96-7.842 1.373-15.382 3.283-21.84 6-3.299 1.387-7.817 3.081-7.44 6.48-1.502 0.418-2.707 1.133-3.6 2.16-3.37 1.351-6.737 2.704-9.601 4.56-0.007-0.755 2.367-1.323 1.2-1.68-2.897 1.102-4.771 2.972-6.48 5.04-2.631 3.183-4.229 6.692-5.76 11.04-1.102 3.131-2.401 6.039-3.12 8.88 4.415-6.625 4.847-17.233 11.521-21.6-0.55 0.88-1.27 1.6-2.16 2.16zm-76.8 11.28c0.885 10.1 1.137 20.26 1.68 30.48 0.546 10.28 1.144 20.626 1.92 30.96 1.53 20.371 2.471 40.652 4.32 61.2 0.47 5.22 0.491 10.646 0.72 15.84 0.234 5.318 0.635 10.453 0.96 15.6 0.333 5.26 0.502 10.386 0.96 15.36 0.437 4.748 1.203 9.295 2.16 13.92 1.925 9.302 3.684 18.456 5.76 27.36-1.079-20.605-2.226-41.102-4.08-61.44-0.915-10.03-2.247-19.989-2.88-30-0.964-15.248-1.84-30.564-3.6-45.359-0.606-5.097-0.603-10.269-1.2-15.36-1.175-10.019-1.429-20.065-2.64-30-0.589-4.838-0.837-9.811-1.2-14.64-0.38-5.054-0.844-10.104-1.44-15.12-1.192-10.021-1.075-20.256-2.88-30.24-0.054-0.186-0.006-0.474-0.24-0.48 0.89 9.66 0.75 21.3 1.68 31.92zm78.96-28.08c1.076-1.246 3.997-1.92 4.08-3.36-1.12 1.19-4.09 1.83-4.08 3.36zm-11.76 14.88c1.254-2.552 3.205-4.463 4.56-6.72 1.124-0.396 1.698-1.342 2.64-1.92-0.035-3.101 3.363-5.141 3.841-6-2.559 1.981-5.35 4.425-7.681 7.2-2.883 3.432-5.436 7.623-6.24 12.72-0.136 0.862-1.178 2.223 0 2.88 1.21-2.74 1.66-5.68 2.88-8.16zm3.36 8.88c1.721-1.5 1.942-3.987 3.12-5.76 1.604-2.414 3.976-4.063 5.521-6.24-6.17 0.71-7.22 6.54-8.64 12zm-131.76-2.64c0.683 0.858 1.185 2.308 2.16 2.16-1.623-1.338-2.086-3.834-4.08-4.8 0.192 1.04 1.251 1.8 1.92 2.64zm123.6 10.32c-0.206 2.116-0.213 4.156-0.479 6.24-0.509 3.978-1.861 7.835-2.16 11.52-0.321 3.972 0.079 8.265 0 12.48-0.083 4.426-0.196 9.006-0.24 13.439-0.087 8.779-0.334 17.653-0.479 26.4-0.146 8.72-0.833 17.517-0.96 26.4-0.261 18.155-1.368 35.444-1.92 53.04-0.138 4.373-0.232 8.833-0.48 13.199-0.505 8.886-0.753 17.728-1.2 27.12-0.437 9.176-0.877 18.022-1.2 26.641-0.179 4.78-0.545 9.559-0.239 13.92 0.276 3.943 1.104 7.841 1.68 11.76 0.596 4.059 0.776 8.229 1.2 12.24 0.888 8.399 1.452 16.6 2.399 24.72 0.688-13.729 0.719-27.504 1.2-41.28 0.165-4.728 0.5-9.428 0.721-14.16 0.431-9.275 0.188-18.718 0.72-28.079 1.264-22.222 2.04-46.472 2.16-69.841 0.122-23.849 0.875-47.721 1.439-71.279 0.392-16.353-0.751-33.72 1.681-47.76 0.843-0.41-0.56-0.526-0.721-0.72-0.899-3.82-1.615-7.824-1.92-12.24-0.014-0.146-0.036-0.284-0.24-0.24-0.29 2.35-0.74 4.24-0.96 6.48zm6.72 10.32c-0.143 1.653 0.242-0.007 0.239 0 0.361-0.91 1.021-3.398 0.721-4.08-0.58 1.37-0.85 2.8-0.96 4.08zm147.84 18c-2.581-0.456-5.317-0.929-7.681-1.44-5.447-1.178-10.284-3.003-15.119-3.36-6.833-0.504-13.322 2.762-20.16 4.56-9.067 2.385-17.335 3.277-23.76 6.72 10.432-1.506 21.494-2.634 31.68-4.08 3.773-0.536 7.495-1.229 11.04-0.96 2.953 0.224 6.154 0.183 9.12 0.72 2.527 0.458 5.259 1.795 7.92 2.16 6.03 0.828 12.059 0.561 17.76 2.16-1.26-5.13-5.47-5.54-10.8-6.48zm-150.96 2.88c0.375-0.803 0.158-1.945-0.24-2.64 0.15 0.8-0.31 2.23 0.24 2.64zm165.12 8.64c-0.925-1.332-1.658-3.209-3.12-4.08-2.794-1.665-7.706-0.927-12.24-1.44-1.396-0.158-2.785-0.818-4.32-0.96-0.683-0.063-1.452 0.109-2.16 0-3.021-0.468-6.003-2.1-8.64-2.4-1.435-0.163-3.345 0.077-5.04 0-5.703-0.259-10.567-0.783-15.12 0.96 5.151 0.475 9.501 1.779 13.681 3.12 1.046 0.336 2.035 1.083 3.119 1.44 5.097 1.675 11.029 1.547 16.561 2.88 2.659 0.641 5.257 1.215 7.92 1.68 2.799 0.489 5.827 0.764 8.4 1.44 1.385 0.364 2.476 1.499 4.08 1.199-0.89-1.18-2.04-2.28-3.12-3.84zm-90-8.16c-4.728 0.424-9.486 0.23-13.92 1.2-2.038 0.445-4.27 1.379-6.24 2.16-4.564 1.808-8.86 4.582-12.48 6.96-2.289 1.505-3.924 2.812-5.52 4.8-0.575 0.717-1.323 1.443-1.92 2.16-3.715 4.464-6.826 9.413-9.84 14.4-4.188 6.931-7.902 14.17-10.08 22.08-1.139 4.132-2.404 8.271-3.601 12.479-1.198 4.217-2.088 8.566-3.12 12.96-1.018 4.337-2.152 8.749-2.88 13.2-2.346 14.367-3.713 27.683-6.24 41.521-0.412 2.258-1.155 4.237-1.439 6.479-0.307 2.413-0.625 4.889-0.72 7.44-0.956 25.514-2.545 52.165-2.4 76.56 1.372-12.965 2.629-26.511 4.56-38.88 0.65-4.163 1.538-8.292 2.16-12.48 2.516-16.934 4.554-34.113 7.2-51.119 0.653-4.198 0.781-8.363 1.44-12.48 0.657-4.108 1.53-8.182 2.399-12.24 3.521-16.425 5.759-32.681 11.28-47.04 2.015-5.238 4.506-10.446 6.72-15.12 0.818-1.726 1.315-3.638 2.16-5.279 2.272-4.413 5.453-7.301 8.64-10.8 1.959-2.151 3.339-4.349 5.04-5.761 1.898-1.575 4.474-2.849 6.96-4.319 2.431-1.438 5.142-3.009 7.681-3.84 4.362-1.429 9.188-2.464 13.439-3.6 1.427-0.381 3.013-0.688 4.32-1.44-1.32-0.52-2.83-0.07-3.6 0zm-93.6 138.72c1.521 10.459 2.561 21.972 3.84 32.16 0.178 1.411 0.327 3.053 0.96 4.319-0.229-9.577-1.754-18.859-3.119-28.08-0.194-1.31-0.762-2.554-0.96-3.84-0.454-2.938-0.606-5.937-0.961-8.88-0.351-2.919-1.096-5.736-1.439-8.64-0.114-0.964 0.108-1.885 0-2.88-0.596-5.462-2.369-11.044-1.68-16.801 1.082 3.388 1.029 7.027 1.439 10.561 1.249 10.769 2.783 21.661 4.32 32.16 0.457 3.12 1.293 6.396 1.68 9.359 0.121 0.93 0.441 1.673 0.48 1.92 0.193 1.237-0.174 3.133 0.72 3.841-0.661-8.952-2.745-18.053-3.84-26.4-0.414-3.155-0.157-6.387-0.48-9.6-0.125-1.247-0.602-2.556-0.72-3.841-0.828-9.006-2.027-18.011-2.88-27.119-0.689-7.372-1.448-13.89-1.92-20.881-0.458-6.788-1.43-12.415-1.92-18.72-0.315-4.055-0.163-8.217-0.48-12.24-0.267-3.395-0.973-6.687-1.2-10.08-0.185-2.752-0.005-5.622-0.239-8.399-0.179-2.11-0.803-4.093-0.96-6.24-0.412-5.616-0.835-10.072-1.44-15.12-0.67 4.312-1.124 9.518-0.72 13.2 0.391 3.558 0.496 7.353 0.72 11.04 0.304 5.009 0.645 8.461 1.2 12.72 0.39 2.989 0.552 5.988 0.96 8.88 1.054 7.466 2.436 15.658 2.399 22.32-2.074-11.232-3.475-23.344-4.8-35.28-0.583-5.253-0.292-11.649-1.439-15.84-1.039 5.115-0.604 11.57 0 17.28 0.374 3.541 0.877 7.019 1.2 10.56 0.322 3.539 1.184 6.919 1.68 10.32 0.371 2.547 0.178 5.133 0.479 7.68 0.363 3.064 1.176 6.054 1.681 9.12 0.521 3.169 0.79 6.423 1.199 9.601 0.811 6.274 2.558 12.334 2.641 18.479-2.782-13.96-5.407-28.284-6.72-42.96-0.242-2.698-0.805-5.27-1.2-7.92-0.67-4.482-1.021-9.152-1.44-13.44-0.137-1.405 0.143-3.562-0.96-4.079-0.914 13.758 2.889 25.82 3.601 37.92-1.525-3.403-1.789-7.694-2.4-12-0.615-4.334-0.854-8.866-1.92-12.721-0.429 11.628 2.257 22.435 3.84 33.12 1.214 8.195 2.702 15.662 4.08 23.76 0.437 2.569 1.273 5.125 1.68 7.681 0.521 3.267 0.36 6.715 1.681 9.84 0.085-6.845-2.27-14.604-2.881-20.88-0.09-0.924-0.311-2.124 0.24-2.88 1.788 6.748 2.418 14.681 3.36 22.08 0.24 1.886 1.506 4.166 0.24 6-0.426-1.255-0.559-2.802-0.96-4.08 0.618 7.472 1.601 14.713 3.119 20.64-0.415-4.146-1.113-8.659-1.68-12.72-0.176-1.26-0.904-2.638-0.24-3.601 1.41 2.76 1.69 6.37 2.16 9.6zm180.24-126.72c-0.872 3.559-2.326 7.246-3.6 11.28-1.654 5.238-4.694 10.337-2.4 16.08 4.396-1.084 5.881-4.771 7.92-8.16 2.568-4.268 6.25-8.486 7.68-13.439-0.941-2.179-2.112-4.128-5.04-4.32-0.794 4.181-1.817 7.949-3.359 11.28-1.572 3.394-4.107 6.124-5.28 9.6-0.348 1.029 0.154 2.494-1.2 3.12 2.177-9.104 8.02-14.541 9.36-24.479-1.05-0.63-2.33-1.03-4.08-0.96zm-179.04 144.72c-0.389-3.211-0.613-6.587-1.2-9.601-0.24 2.93 0.3 7.02 1.2 9.6zm2.64 31.2c1.146-0.749 0.733-2.351 0.721-3.36-0.113-8.979-2.37-17.723-3.12-26.64-0.054-0.187-0.007-0.474-0.24-0.48 0.22 9.86 2.12 20.11 2.64 30.48z"></path> <path style="clip-rule:evenodd;fill-rule:evenodd" d="m233.04 24.777c0.448 0.234-0.412 1.17-0.721 1.44-0.63-0.416 0.51-1.075 0.72-1.44z"></path> <path style="clip-rule:evenodd;fill-rule:evenodd" d="m332.16 151.5c-1.993 2.007-4.274 3.726-7.2 4.8 0.91-1.701 3.464-2.272 5.04-3.36 0.78-0.54 1.11-1.83 2.16-1.44z"></path> <path style="clip-rule:evenodd;fill-rule:evenodd" d="m300.48 168.54c-5.688 3.052-11.982 4.705-18 7.2-5.872 2.435-11.665 5.203-17.76 7.2 1.794-1.969 4.923-2.407 7.92-3.36 1.292-0.411 2.764-1 3.84-1.68 3.552-2.242 7.963-3.461 12-5.04 2.011-0.786 3.981-1.602 6-2.4 1.92-0.76 3.9-2 6-1.92z"></path> <path style="clip-rule:evenodd;fill-rule:evenodd" d="m262.56 183.66c-1.896 1.869-4.675 2.361-7.2 3.36-2.971 1.175-5.766 3.046-8.88 3.84 1.568-1.583 3.909-2.061 6-2.88 3.34-1.31 6.57-3.09 10.08-4.32z"></path> <path style="clip-rule:evenodd;fill-rule:evenodd" d="m256.8 193.02c1.291 0.186-0.691 0.139-0.48 0.72-3.306 0.454-5.736 1.784-8.88 2.4 2.71-1.45 6.23-2.1 9.36-3.12z"></path> </g> <metadata></metadata></svg> 