<?xml version="1.0" encoding="UTF-8" standalone="no"?> <!-- Generator: Adobe Illustrator 13.0.0, SVG Export Plug-In . SVG Version: 6.00 Build 14576) --> <svg xmlns:rdf="http://www.w3.org/1999/02/22-rdf-syntax-ns#" xmlns="http://www.w3.org/2000/svg" xmlns:cc="http://web.resource.org/cc/" xmlns:xlink="http://www.w3.org/1999/xlink" xmlns:dc="http://purl.org/dc/elements/1.1/" xmlns:svg="http://www.w3.org/2000/svg" xmlns:inkscape="http://www.inkscape.org/namespaces/inkscape" xmlns:sodipodi="http://sodipodi.sourceforge.net/DTD/sodipodi-0.dtd" xmlns:ns1="http://sozi.baierouge.fr" id="Layer_1" xml:space="preserve" viewBox="0 0 166.452 249.111" y="0px" x="0px"> <path d="m165.44 154.84c-0.189 1.01-1.28 1.12-1.92 1.68-0.86-0.75-0.16-1.46 0.24-2.16 0.76-0.04 1.45-0.01 1.68 0.48z" fill="#D2D4D3"></path> <path d="m164.24 166.12c0.9-0.13-0.06 1.36 0 1.92-0.4-0.11-0.4-1.81 0-1.92z" fill="#D2D4D3"></path> <path d="m159.68 134.44c-0.3-6.56 1.06-12.77-3.12-16.08-0.9-0.71-2.12-1.11-2.88-2.16 1.72-1.689 3.16 0.87 5.52 1.2 4.301 13.26 1.49 30.271 2.641 45.36 0.319 4.189 1.26 8.26 1.2 12.479-0.33 22.01 2.3 43.29 1.439 64.8-0.09 2.36 0.13 4.91-0.96 7.2-1.02 0.29-1.29 0.09-2.4 0-1.81-10.27-0.29-21-0.479-30.72-0.2-10.19-0.4-20.83-0.48-31.92-0.06-7.44-0.369-14.41-0.479-23.521-0.05-3.93 0.71-8.689 0.72-12.72 0.01-4.31-0.52-9.67-0.72-13.92z" fill="#D2D4D3"></path> <path d="m156.56 114.04c1.39-0.529 2.91 0.721 3.6 1.681-1.1 0.3-3.77 0.09-3.6-1.68z" fill="#D2D4D3"></path> <path d="m141.44 113.32c-2.6 1.04-5.22 2.44-7.439 0.96 4.26-1.84 12.14-2.17 13.92-6.72 0.22-0.561 0.1-1.45 0.239-2.16 0.58-2.92 1.58-4.71 1.2-8.88-0.14-1.55-0.81-3.06-1.2-4.8-0.33-1.45-0.38-3.13-0.72-4.561-0.92-3.81-2.59-7.59-3.36-11.52-1.3-6.67-2.239-13.061-3.359-18.72 2.28 3.81 2.81 9.199 3.84 14.64 1.24 6.54 3.06 12.27 4.56 19.439 0.48 2.29 1.351 4.49 1.44 6.48 0.11 2.29-0.23 5-0.48 7.2-0.6 5.33-3.77 6.69-8.64 8.64z"></path> <path d="m144.08 75.636c0.771 3.93 2.44 7.71 3.36 11.52 0.34 1.431 0.39 3.11 0.72 4.561 0.391 1.74 1.061 3.25 1.2 4.8 0.38 4.17-0.62 5.96-1.2 8.88-0.14 0.71-0.02 1.6-0.239 2.16-1.78 4.55-9.66 4.88-13.92 6.72 2.22 1.48 4.84 0.08 7.439-0.96 4.87-1.95 8.04-3.31 8.64-8.64 0.25-2.2 0.591-4.91 0.48-7.2-0.09-1.99-0.96-4.19-1.44-6.48-1.5-7.17-3.319-12.899-4.56-19.439-1.03-5.44-1.56-10.83-3.84-14.64 1.12 5.655 2.06 12.045 3.36 18.715zm-116.88 26.884c-2.33 5.04-1.74 8.69 3.6 9.84 5.38 1.16 15.92 1.25 19.68 3.12-3.19-4.76-18.02-2.53-22.08-5.28-3.36-2.279 0.41-6.979 1.2-9.84-1.82-0.3-1.19 1.85-2.4 2.16zm-6.48 8.64c2.81-6.47 6.23-12.33 10.32-17.52 6.17-12.97 10.76-27.771 13.68-42.96 0.98-5.09 3.38-9.931 5.04-14.88 0.83-2.49 1.75-4.891 2.64-7.44 0.82-2.35 2.46-4.42 3.12-6.72 0.33-1.15 0.27-2.48 0.72-3.601 0.59-1.46 1.97-2.279 2.88-3.84 1.72-2.939 2.19-5.91 4.32-7.439 2.09-1.5 6.22-1.88 9.84-2.4 2.97-0.42 6.05-0.57 9.12-0.96 9.631-1.22 17.92-0.979 26.881-0.72 11.5 0.34 17.76 5.21 22.079 13.92 1.84 3.71 2.76 7.67 4.08 11.76 2.601 8.09 5.98 15.811 8.4 23.521 0.75 1.149-1.07 0.529-0.96 1.68 2.529 5.43 3.91 11.95 5.52 18.72 0.49 2.07 1.47 4.01 1.92 6 1.25 5.49 1.53 10.97 3.12 16.561 2.51 8.83 5.63 17.62-2.88 21.84-1.94 0.96-4.67 1.189-7.2 1.92-2.41 0.7-4.74 1.97-6.96 2.399-2.14 0.421-4.5 0.061-6.72 0.24-6.05 0.5-12.33 1.721-18.479 2.4-9.621 1.06-17.881-0.48-28.081 0.96-3.13 0.439-7.25-0.5-11.28-0.96-6.66-0.771-13.35 0.149-19.92-0.96-2.84-0.48-5.7-1.41-8.64-1.92-2.99-0.521-5.69-1.261-8.4-2.16-5.543-1.84-11.723-2.71-14.163-7.44z" fill="#D47B3A"></path> <path d="m29.596 100.36c-0.79 2.86-4.56 7.561-1.2 9.84 4.06 2.75 18.89 0.521 22.08 5.28-3.76-1.87-14.3-1.96-19.68-3.12-5.34-1.149-5.93-4.8-3.6-9.84 1.21-0.31 0.58-2.46 2.4-2.16z"></path> <path d="m21.436 151.72c-0.94-5.48-1.02-12.181-1.2-18.48-0.12-4.2-1.17-8.85 0.48-11.52 0.31-1.03-1.14-0.3-0.96-1.2 0.74-1.42 0.84-3.48 2.16-4.32-1.36 12.34 0.41 23.891 0.24 35.28-0.11 7.33 2.09 14.53 2.64 22.08 0.4 5.49 0.33 11.12 0.72 16.56 0.33 4.681 2.64 10.471 0.72 14.88-0.68-0.199-0.62 0.341-1.2 0.24-1.27-1.37-0.91-3.779-0.96-5.76-0.44-16.38-3.46-31.68-2.64-47.76z" fill="#D2D4D3"></path> <path d="m17.596 141.4c-0.16 1.04 0.43 1.33 0.96 1.68-0.44 0.521-1.29 0.631-1.68 1.2-0.87-0.5 0.45-2.08-0.24-2.399 0.16-0.32 0.51-0.45 0.96-0.48z" fill="#D2D4D3"></path> <path d="m19.756 151.24c-0.33 2.471-2.72 2.88-3.84 4.561-0.54-0.181-0.09-1.351-0.24-1.92 1.67-0.57 2.2-2.28 4.08-2.64z" fill="#D2D4D3"></path> <path d="m10.876 144.52c0.18 1.14-0.27 1.65-0.24 2.64-0.34-0.02-0.68-0.04-0.72 0.24-0.88-0.16-0.65-1.43-0.96-2.16 0.58-0.3 1.17-0.59 1.92-0.72z" fill="#D2D4D3"></path> <path d="m8.716 157.96c0.51 0.529-0.1 1.96-0.24 2.64-0.5-0.14-0.78-0.5-1.2-0.72-0.19-0.83 0.36-0.92 0.24-1.681 0.35-0.13 1.24 0.28 1.2-0.24z" fill="#D2D4D3"></path> <path d="m5.596 209.32c0.95-5.87 0.56-12.12 1.44-18.24 1.6-11.06 1.53-23.13 3.6-35.76 1.79-10.91 2.84-20.95 4.8-30.72 0.78-3.87 1.19-8.57 4.32-11.04 2.01 2.53-0.71 3.67-1.44 5.76-1.15 3.32-1.36 7.92-1.92 12-0.56 4.101-0.69 8.351-0.96 12-1.42 19.2-4.9 38.87-7.92 58.561-0.38 2.51-0.97 5.04-1.4 7.529l-0.52-0.09z" fill="#D2D4D3"></path> <path d="m1.756 233.32c0.32-4.97 1.28-10.25 2.16-16.08 0.42-2.779 1.26-5.34 1.68-7.92l0.52 0.09c-0.23 1.261-0.42 2.511-0.52 3.75-0.81 9.551 0.34 18.101-1.92 26.88-0.21 0.19-0.14 0.66-0.48 0.721h-0.48c-2.55-1.64-1.12-5.02-0.96-7.44z" fill="#D2D4D3"></path> <path d="m165.44 154.84c-0.229-0.49-0.92-0.521-1.68-0.48-0.4 0.7-1.101 1.41-0.24 2.16 0.64-0.56 1.73-0.67 1.92-1.68zm-1.2 13.2c-0.06-0.56 0.9-2.05 0-1.92-0.4 0.11-0.4 1.81 0 1.92zm-7.68-49.68c4.18 3.311 2.82 9.521 3.12 16.08 0.2 4.25 0.729 9.61 0.72 13.92-0.01 4.03-0.77 8.79-0.72 12.72 0.11 9.11 0.42 16.08 0.479 23.521 0.08 11.09 0.28 21.729 0.48 31.92 0.189 9.72-1.33 20.45 0.479 30.72 1.11 0.09 1.381 0.29 2.4 0 1.09-2.29 0.87-4.84 0.96-7.2 0.86-21.51-1.77-42.79-1.439-64.8 0.06-4.22-0.881-8.29-1.2-12.479-1.15-15.09 1.66-32.101-2.641-45.36-2.359-0.33-3.8-2.89-5.52-1.2 0.76 1.05 1.98 1.45 2.88 2.16zm3.6-2.64c-0.689-0.96-2.21-2.21-3.6-1.681-0.17 1.77 2.5 1.98 3.6 1.68zm-139.44-4.56c2.44 4.73 8.62 5.601 14.16 7.44 2.71 0.899 5.41 1.64 8.4 2.16 2.94 0.51 5.8 1.439 8.64 1.92 6.57 1.109 13.26 0.189 19.92 0.96 4.03 0.46 8.15 1.399 11.28 0.96 10.2-1.44 18.459 0.1 28.081-0.96 6.149-0.68 12.43-1.9 18.479-2.4 2.22-0.18 4.58 0.181 6.72-0.24 2.22-0.43 4.55-1.699 6.96-2.399 2.53-0.73 5.26-0.96 7.2-1.92 8.51-4.22 5.39-13.01 2.88-21.84-1.59-5.591-1.87-11.07-3.12-16.561-0.45-1.99-1.43-3.93-1.92-6-1.609-6.77-2.99-13.29-5.52-18.72-0.11-1.15 1.71-0.53 0.96-1.68-2.42-7.71-5.8-15.431-8.4-23.521-1.32-4.09-2.24-8.05-4.08-11.76-4.319-8.71-10.579-13.58-22.079-13.92-8.961-0.26-17.25-0.5-26.881 0.72-3.07 0.39-6.15 0.54-9.12 0.96-3.62 0.521-7.75 0.9-9.84 2.4-2.13 1.529-2.6 4.5-4.32 7.439-0.91 1.561-2.29 2.38-2.88 3.84-0.45 1.12-0.39 2.45-0.72 3.601-0.66 2.3-2.3 4.37-3.12 6.72-0.89 2.55-1.81 4.95-2.64 7.44-1.66 4.949-4.06 9.79-5.04 14.88-2.92 15.189-7.51 29.99-13.68 42.96-4.093 5.188-7.513 11.052-10.323 17.522zm-0.48 22.08c0.18 6.3 0.26 13 1.2 18.48-0.82 16.08 2.2 31.38 2.64 47.76 0.05 1.98-0.31 4.39 0.96 5.76 0.58 0.101 0.52-0.439 1.2-0.24 1.92-4.409-0.39-10.199-0.72-14.88-0.39-5.439-0.32-11.069-0.72-16.56-0.55-7.55-2.75-14.75-2.64-22.08 0.17-11.39-1.6-22.94-0.24-35.28-1.32 0.84-1.42 2.9-2.16 4.32-0.18 0.9 1.27 0.17 0.96 1.2-1.65 2.67-0.6 7.32-0.48 11.52zm-0.96 7.2c-0.42 0.41-0.27 1.48 0.24 1.68-0.14-0.5 0.3-1.58-0.24-1.68zm-1.92-0.48c0.52-0.521 1.11-0.971 1.92-1.2-0.07-3.55 0.03-8.641-0.72-12.24-0.25 4.31-2.02 9.65-1.2 13.44zm1.92 4.08c-0.97 0.551-1.46 1.58-2.88 1.681 0.29 2.41-1.09 5.29-0.24 6.72 1.02-1.22 2.24-2.24 3.6-3.12-0.16-1.81 0.05-3.25-0.48-5.28zm-3.36 11.76c1.12-1.681 3.51-2.09 3.84-4.561-1.88 0.36-2.41 2.07-4.08 2.641 0.15 0.57-0.3 1.74 0.24 1.92zm0.72-13.92c0.69 0.319-0.63 1.899 0.24 2.399 0.39-0.569 1.24-0.68 1.68-1.2-0.53-0.35-1.12-0.64-0.96-1.68-0.45 0.03-0.8 0.16-0.96 0.48zm-7.68 3.36c0.31 0.73 0.08 2 0.96 2.16 0.04-0.28 0.38-0.26 0.72-0.24-0.03-0.989 0.42-1.5 0.24-2.64-0.75 0.13-1.34 0.42-1.92 0.72zm-0.24 12.72c0.04 0.52-0.85 0.109-1.2 0.239 0.12 0.761-0.43 0.851-0.24 1.681 0.42 0.22 0.7 0.58 1.2 0.72 0.14-0.68 0.75-2.11 0.24-2.64zm-6.48 62.64c0.27-1.91 0.41-3.9 0.72-5.76 2.63-15.78 3.75-34.67 5.28-52.801-0.83-0.729-3.12-1.689-1.92-3.84 0.52-0.93 0.94-1.17 2.88-0.96 0.36-2.92 0.82-5.74 1.2-8.64-1.48-0.11-2.87-0.66-3.12-3.12 0.37-1.79 2.53-1.79 4.08-2.4 0.09-4.85 1.01-9.859 1.92-14.64 0.87-4.61 1.57-9.69 3.12-13.2 0.42-0.95 1.22-2.31 2.64-2.399-0.05-1.15-0.96-1.44-0.72-2.88 0.91-3.29 3.88-5.57 5.28-7.921 0.98-1.64 1.39-3.569 2.4-5.279 0.8-1.351 2.27-2.391 3.12-3.84 1.52-2.62 2.58-6.08 4.08-9.36 1.35-2.96 2.21-6.14 3.12-9.36 1.94-6.89 4.85-14.04 6-20.64 0.22-1.26-0.01-2.6 0.24-3.84 0.72-3.53 2.64-7.4 4.08-11.28 1.4-3.79 2.53-7.84 3.84-11.28 0.6-1.58 1.79-3.27 2.4-5.04 0.7-2.029 0.67-4.22 1.44-5.76 0.55-1.08 1.75-1.81 2.4-2.88 0.85-1.4 1.33-3.12 2.16-4.56 0.86-1.5 2.05-2.561 2.64-4.08 1.08-0.12 1.77-0.63 2.4-1.2 3.72-0.61 7.71-1.46 12-1.92 4.25-0.46 8.8-1.46 13.201-1.681 2.969-0.149 6.41 0.221 9.6 0.24 9.47 0.05 19.449-0.729 26.4 4.32 6.859 4.979 9.85 13.53 12.479 22.56 1.3 4.46 3.29 8.641 4.56 12.96 1.261 4.301 2.25 8.681 4.561 12.24-0.18 1.86-0.15 3.63 0.24 5.521 0.5 2.409 2.13 4.739 2.64 7.199 0.4 1.92 0.46 3.95 0.96 6 0.45 1.841 1.17 3.58 1.68 5.521 1.271 4.88 1.551 10.87 2.88 16.32 1.671 6.819 4.681 12.34 2.881 19.199 4.06 2.15 4.27 9.011 4.8 15.841 0.67 8.529 0.74 16.88 0.479 24.479 3.931 0.95 4.271 3.74 0 5.04 0.88 2.12-0.85 3.65 0.24 6 0.47 1.01 2.57 1.19 2.88 2.4 0.42 1.63-1.66 3.42-1.92 4.8-0.21 1.14 0.24 2.38 0.24 3.6 0.01 3.94-0.47 8.4-0.48 12.48-0.01 7.16 1.09 14.76 1.44 22.319 0.46 10.04 1.05 19.67-0.24 28.561 1.12 4.87 1.04 13.51-6 11.04-1.399-24.9-0.189-54.351-1.2-79.92-0.39-9.971 0.53-19.84 0-30.96-0.33-6.99 1.301-19.521-5.52-19.681-1.25-0.029-1.641 1.101-3.12 1.681-1.67 0.649-4.18 0.949-6.48 1.68-4.89 1.55-8.069 1.8-13.439 2.16-2.271 0.149-4.7 0.979-6.96 1.2-6.45 0.63-11.471 1.08-16.801 1.439-3.909 0.26-7.52-0.189-11.52-0.24-3.75-0.05-7.59 0.73-11.28 0.96-4.99 0.311-9.66-1.039-14.64-1.199-3.71-0.12-7.49 0.3-11.04 0-5.35-0.45-10.45-1.811-15.36-2.641-4.87-0.819-9.04-2.949-13.68-3.6-1.7-1.14-3.51-1.45-5.52-2.64-0.85 10.189 0.14 20.01 0.72 30.239 0.17 2.94-0.37 5.79-0.24 8.88 0.19 4.62 1.88 9.98 2.4 15.36 0.56 5.79 0.42 13.38 0.96 19.44 0.48 5.43 2.71 10.81 0.48 15.12-0.99 0.359-2.11 0.609-3.6 0.479-1.23-3.5-0.68-7.43-0.72-11.04-0.12-12.1-3.34-26.39-2.88-41.52-1.81 0.189-2.93 3.149-4.8 4.08-1.88 12.539-3.19 24.619-5.28 36.479-1.08 6.12-2.36 12.23-3.12 18.48-0.34 2.829 0.19 5.869 0 8.88-0.2 3.199-0.8 6.43-0.96 9.6-0.24 4.73 0.72 8.79-2.4 10.8-0.79-0.33-1.92-0.319-2.88-0.479-1.614-6.91 0.686-14.03 1.676-21.12zm0.48 20.16h0.48c0.34-0.061 0.27-0.53 0.48-0.721 2.26-8.779 1.11-17.329 1.92-26.88 0.1-1.239 0.29-2.489 0.52-3.75 0.43-2.489 1.02-5.02 1.4-7.529 3.02-19.69 6.5-39.36 7.92-58.561 0.27-3.649 0.4-7.899 0.96-12 0.56-4.08 0.77-8.68 1.92-12 0.73-2.09 3.45-3.229 1.44-5.76-3.13 2.47-3.54 7.17-4.32 11.04-1.96 9.77-3.01 19.81-4.8 30.72-2.07 12.63-2 24.7-3.6 35.76-0.88 6.12-0.49 12.37-1.44 18.24-0.42 2.58-1.26 5.141-1.68 7.92-0.88 5.83-1.84 11.11-2.16 16.08-0.16 2.42-1.59 5.8 0.96 7.44z"></path> <metadata></metadata></svg> 