<?xml version="1.0" encoding="UTF-8" standalone="no"?> <!-- Created with Inkscape (http://www.inkscape.org/) --> <svg xmlns:inkscape="http://www.inkscape.org/namespaces/inkscape" xmlns:rdf="http://www.w3.org/1999/02/22-rdf-syntax-ns#" xmlns="http://www.w3.org/2000/svg" xmlns:sodipodi="http://sodipodi.sourceforge.net/DTD/sodipodi-0.dtd" xmlns:cc="http://web.resource.org/cc/" xmlns:xlink="http://www.w3.org/1999/xlink" xmlns:dc="http://purl.org/dc/elements/1.1/" xmlns:svg="http://www.w3.org/2000/svg" xmlns:ns1="http://sozi.baierouge.fr" id="svg5103" sodipodi:docname="egg_soft_boiled.svg" viewBox="0 0 215.26 292.51" sodipodi:version="0.32" inkscape:output_extension="org.inkscape.output.svg.inkscape" inkscape:version="0.45.1" sodipodi:docbase="/home/dstulle/usr/artwork"><defs id="defs5105"><radialGradient id="radialGradient5149" gradientUnits="userSpaceOnUse" cy="648.08" cx="352.86" gradientTransform="matrix(1 -2.0432e-7 2.0878e-7 1.0218 -.00016337 -14.135)" r="131" inkscape:collect="always"><stop id="stop8138" style="stop-color:#ffb837" offset="0"></stop><stop id="stop8144" style="stop-color:#f1c90b" offset=".77174"></stop><stop id="stop8140" style="stop-color:#fff200" offset="1"></stop></radialGradient></defs><g id="layer1" inkscape:label="Layer 1" inkscape:groupmode="layer" transform="translate(-23.474 -39.769)"><g id="g8146" transform="matrix(.75102 0 0 .75102 -4.5037 -10.766)"><g id="g9134" transform="matrix(.75 0 0 .75 21.989 44.911)"><path id="path9136" sodipodi:nodetypes="cssss" style="stroke-linejoin:round;fill-rule:evenodd;stroke:#000000;stroke-linecap:round;stroke-width:5;fill:#ffffff" d="m400 349.51c1.12 105.95-68.16 197.14-184.29 197.14-116.12 0-193.62-60.11-192.85-205.72 0.748-145.94 96.77-306.47 184.28-308.57 93.35-2.312 191.19 155.92 192.86 317.15z"></path><path id="path9138" sodipodi:rx="130" sodipodi:ry="132.85713" style="stroke-linejoin:round;fill-rule:evenodd;stroke:#000000;stroke-linecap:round;stroke-width:2;fill:url(#radialGradient5149)" sodipodi:type="arc" d="m482.86 648.08a130 132.86 0 1 1 -260 0 130 132.86 0 1 1 260 0z" transform="translate(-140 -291.43)" sodipodi:cy="648.07648" sodipodi:cx="352.85715"></path></g></g></g><metadata></metadata></svg> 