<?xml version="1.0" encoding="UTF-8" standalone="no"?> <!-- Generator: Adobe Illustrator 13.0.2, SVG Export Plug-In . SVG Version: 6.00 Build 14948) --> <svg xmlns:rdf="http://www.w3.org/1999/02/22-rdf-syntax-ns#" xmlns="http://www.w3.org/2000/svg" xmlns:cc="http://web.resource.org/cc/" xmlns:xlink="http://www.w3.org/1999/xlink" xmlns:dc="http://purl.org/dc/elements/1.1/" xmlns:svg="http://www.w3.org/2000/svg" xmlns:inkscape="http://www.inkscape.org/namespaces/inkscape" xmlns:sodipodi="http://sodipodi.sourceforge.net/DTD/sodipodi-0.dtd" xmlns:ns1="http://sozi.baierouge.fr" id="Layer_1" style="enable-background:new 0 0 174.607 294.168" xml:space="preserve" viewBox="0 0 174.607 294.168" y="0px" x="0px"> <path style="clip-rule:evenodd;fill-rule:evenodd" d="m150.05 8.646c-0.887 2.62-3.724 2.903-5.319 4.911-0.47 0.591-1.298 1.796-1.639 2.456-3.604 6.987-5.074 16.645-7.366 25.784-1.019 4.06-2.839 8.224-4.503 12.278-3.41 8.321-6.385 14.285-14.733 17.6 5.213-5.92 8.412-18.417 9.414-30.287 0.786-9.316-0.69-17.642-4.503-22.919 6.118-6.296 17.711-7.118 27.012-10.231 0.74-0.053 0.87 0.5 1.64 0.408zm-13.1 9.414c1.485-0.028 1.835-4.108 0.41-4.502-0.76 0.878-0.27 2.997-0.41 4.502zm-3.68 3.683c0.889-1.986 0.529-5.884-1.637-6.14 0.35 2.242 0.43 4.758 1.64 6.14zm-4.5 4.502c2.635-1.726 0.062-7.284-2.046-8.185 0.32 3.089 2.04 4.787 2.05 8.185z"></path> <path style="clip-rule:evenodd;fill-rule:evenodd" d="m77.609 18.468c-6.353 13.806-6.562 36.894 0.41 50.341-8.312-4.013-11.556-13.156-15.143-23.329-1.642-4.654-3.429-9.901-4.503-14.733-1.981-8.921-3.647-16.563-10.642-20.464v-0.818c4.28-0.753 12.069 1.807 17.19 2.864 5.446 1.124 10.378 3.134 12.688 6.139zm-18.417 2.047c0.365-1.793 1.174-6.664-0.41-7.776-0.468 1.69-1.1 6.736 0.41 7.776zm4.501 2.456c-0.091 0.695 0.461 1.013 0.41 0-0.261-3.671 1.184-5.637 1.637-8.595h-1.228c-0.39 2.746-1.15 5.126-0.819 8.595zm4.502 4.092c1.248-3.12 2.112-6.621 3.684-9.414-0.09-0.319-0.343-0.476-0.817-0.409-1.546 2.416-3.725 6.368-2.867 9.823z"></path> <path style="clip-rule:evenodd;fill-rule:evenodd" d="m174.61 50.392c-11.584 13.655-21.453 29.024-29.468 46.248 0.201-5.906 2.055-12.506 4.093-18.007 1.126-3.038 1.844-3.908 3.274-6.549 1.84-3.398 3.636-7.721 6.139-11.05 1.91-2.54 7.376-8.495 10.642-9.822 1.59-0.644 3.51-0.731 5.33-0.82z"></path> <path style="clip-rule:evenodd;fill-rule:evenodd" d="m101.35 77.814c-2.802 30.791-1.433 65.907-1.228 96.999 2.099-3.728 0.819-8.764 1.228-12.69 0.884-8.489 4.638-18.069 7.367-25.373 3.011-8.057 6.32-15.954 10.64-22.102 4.549-6.468 9.272-12.784 13.916-18.827 4.683-6.095 8.734-12.636 14.325-17.189-2.647 11.027-8.36 19.45-13.097 29.058-5.219 10.585-9.71 23.523-14.325 35.607-6.976 18.262-13.064 36.174-18.417 56.888-0.258 0.999-0.526 2.744-1.637 3.274 0.04-8.33 0.799-17.42 0.408-24.964-0.044-0.846 0.962-2.139-0.408-2.458-0.167 4.659-1.474 10.146-1.637 15.964-0.158 5.609 0.992 11.518 0 15.961-0.254 1.129-1.231 2.108-2.047 3.273-0.508 0.727-0.845 3.001-2.047 2.046 1.41-29.07 1.637-61.219 1.637-92.086 0-14.577 0.729-29.187-0.817-42.155 0.111-2.338 4.141-0.762 6.141-1.221z"></path> <path style="clip-rule:evenodd;fill-rule:evenodd" d="m143.09 93.366c0.348-0.075 0.386 0.16 0.409 0.41-1.915 22.418-6.924 43.627-13.506 62.619-3.233 9.333-7.223 18.445-11.05 27.012-2.867 6.419-7.132 11.864-11.868 16.78-1.376 1.429-2.939 3.241-4.913 3.684 3.341-14.878 9.024-28.953 13.916-42.562 1.595-4.437 3.783-8.67 5.32-13.1 4.028-11.601 8.108-23.408 12.688-34.378 0.984-2.36 1.612-4.565 2.455-6.958 1.67-4.72 4.55-8.835 6.55-13.504z"></path> <path style="clip-rule:evenodd;fill-rule:evenodd" d="m109.94 199.78c0.348-0.073 0.387 0.16 0.409 0.41-3.082 6.315-3.155 13.966-5.73 20.464-0.824 2.082-2.81 3.727-3.273 6.139-1.048 5.438 0.576 10.382-0.819 16.373-2.961-5.582-6.072-8.77-5.729-17.599 0.198-5.103 2.08-10.275 4.092-13.916 0.644-1.162 1.103-2.578 1.638-3.274 2.5-3.25 7.34-4.97 9.41-8.59z"></path> <path style="clip-rule:evenodd;fill-rule:evenodd" d="m85.384 219.01c3.957 3.038 5.564 10.096 8.188 15.142 0.754 1.455 2.258 2.675 2.864 4.094 0.768 1.802 1.222 4.619 2.047 6.957 2.113 6.006 4.295 13.569 3.273 22.51-1.104 1.352-4.021 0.893-5.73 1.639 0.633 1.552 3.593 0.772 4.911 1.635-0.265 7.515 0.536 16.091-0.409 22.922-2.803-0.127-7.633 0.637-10.641 0-1.153-8.41 2.788-21.779-2.456-27.422-1.312-15.04 0.576-32.29-2.049-47.47zm8.595 50.35c-0.772-0.729-1.651-1.35-3.273-1.229-0.782 1.94 2.949 3.03 3.273 1.23z"></path> <path style="clip-rule:evenodd;fill-rule:evenodd" d="m99.3 0.051c2.433-0.504 3.78 2.835 5.32 4.911 1.52 2.045 3.234 4.341 4.502 5.321 3.714 2.868 8.913 4.347 11.869 9.822 2.884 5.34 3.956 14.22 3.275 23.738-0.568 7.91-2.901 17.407-4.913 21.282-1.315 2.537-5.74 8.103-8.595 9.414-3.95 1.816-10.094 1.784-13.506 1.637-13.938-0.6-20.932-8.608-22.101-22.51-0.899-10.708-1.199-24.182 2.866-31.924 0.618-1.178 1.807-1.96 2.455-2.864 0.819-1.144 1.299-2.467 2.046-3.275 3.865-4.177 8.48-5.271 11.869-8.594 1.799-1.762 2.793-5.168 4.911-6.958zm0.409 16.781c2.224-0.741 1.561-10.851 0-11.051-0.079 5.162 0.441 6.754 0 11.051zm-3.683 1.636c-0.012-3.672-0.501-6.865-2.454-8.595 0.043 1.947 0.768 7.181 2.454 8.595zm8.184 0.41c0.699-3.121 1.835-5.806 2.866-8.595-0.092-0.319-0.344-0.476-0.819-0.41-0.73 2.544-3.89 6.567-2.05 9.005zm-11.868 4.093c0.408-3.06-1.041-7.646-4.092-8.595 1.327 2.903 2.309 6.149 4.092 8.595zm15.958 0.408c1.49-2.738 2.806-5.652 4.501-8.185-0.087-0.459-0.455-0.637-0.817-0.818-1.13 2.654-5.51 6.068-3.68 9.003zm-21.278 2.456c0.976-2.837-1.486-5.543-3.683-6.548 0.858 2.553 2.19 4.631 3.683 6.548zm25.378-0.409c1.715-0.048 4.673-4.207 4.503-6.139-2.12 1.432-3.22 3.871-4.5 6.139zm-29.88 2.866c0.307-2.49-1.672-2.694-3.274-3.275 0.583 1.599 1.675 2.69 3.274 3.275zm35.2 0.408c0.482-1.427 2.924-0.896 2.866-2.865-0.087-0.458-0.455-0.637-0.819-0.818-0.86 0.798-3.25 2.196-2.05 3.683zm-16.78 12.688c0.066-0.285-0.143-2.381-0.409-1.227-0.36 1.557 0.22 2.049 0.41 1.227zm-0.41 15.962c0.319 7.258-0.503 14.445 2.047 17.599-0.08-8.016-1.113-20.214-1.228-30.696-0.087-0.459-0.455-0.637-0.819-0.818-1.022 3.648-0.22 8.939 0 13.915zm-5.322 17.189c1.693-1.393 2.196-4.774 2.455-7.776 0.396-4.606 0.062-10.12 0-13.915 0.565-1.752 0.905-3.733 0.819-6.139-0.542-0.005-0.375-0.718-0.819-0.818-1.047 9.319-1.219 19.517-2.455 28.648z"></path> <path style="clip-rule:evenodd;fill-rule:evenodd" d="m93.572 213.28c-2.523-5.753-3.291-12.064-4.913-18.006-1.176-4.313-3.452-8.407-4.911-12.69-1.509-4.43-2.708-8.646-4.501-12.687-1.822-4.1-3.617-8.177-5.321-12.276-1.592-3.837-2.803-8.414-6.139-11.052 2.473 6.445 5.158 12.82 7.776 19.234 2.603 6.382 5.056 12.617 7.367 19.238 4.537 13 9.726 26.756 9.823 42.563-8.918-15.998-17.843-31.056-27.422-46.247-4.821-7.647-9.089-15.561-12.279-24.557-3.241-9.146-3.838-19.448-6.138-30.696-1.416 2.818 1.051 6.898 0 9.413-6.307-12.515-13.806-24-21.283-35.197-1.308-1.958-3.106-3.472-4.501-5.321 2.428-0.784 4.11 2.705 6.958 2.865 6.638 5.366 11.316 12.695 15.962 20.053-7.772-27.807-47.598-25.763-43.795-63.815-0.075-0.348 0.16-0.385 0.41-0.409 0.365-0.252 0.733-0.495 0.819 0h0.818c8.509 10.391 20.332 16.534 31.105 24.148s19.087 16.315 26.603 28.649c3.469 5.691 6.22 11.9 9.822 18.006 8.295 14.066 15.694 29.214 21.283 47.479 1.086 3.547 2.517 7.527 2.864 10.638 0.53 4.729-0.476 9.437-0.407 13.916 0.069 4.7 0.118 10.74 0 16.77zm-56.89-114.18c5.927 7.122 11.198 14.353 16.37 22.101 5.167 7.739 9.104 16.309 14.325 24.556-0.419-3.327-2.193-6.511-3.684-9.413-1.595-3.104-3.601-6.055-5.321-9.003-4.771-8.183-10.009-16.56-15.553-23.33-3.287-4.016-6.515-8.193-9.822-11.869-8.687-9.67-17.38-19.469-25.784-29.071-0.188-2.78-2.765-3.865-4.092-5.321-0.566-0.62-0.122-2.53-1.229-1.228 10.568 15.131 23.081 28.495 34.79 42.565zm7.367 19.234c0.52 2.754 1.008 5.539 2.455 7.367-0.478-2.8-0.861-5.69-2.455-7.37z"></path> <metadata></metadata></svg> 