<?xml version="1.0" encoding="UTF-8" standalone="no"?> <!-- Generator: Adobe Illustrator 13.0.2, SVG Export Plug-In . SVG Version: 6.00 Build 14948) --> <svg xmlns:rdf="http://www.w3.org/1999/02/22-rdf-syntax-ns#" xmlns="http://www.w3.org/2000/svg" xmlns:cc="http://web.resource.org/cc/" xmlns:xlink="http://www.w3.org/1999/xlink" xmlns:dc="http://purl.org/dc/elements/1.1/" xmlns:svg="http://www.w3.org/2000/svg" xmlns:inkscape="http://www.inkscape.org/namespaces/inkscape" xmlns:sodipodi="http://sodipodi.sourceforge.net/DTD/sodipodi-0.dtd" xmlns:ns1="http://sozi.baierouge.fr" id="trowels_xA0_Image" style="enable-background:new 0 0 368.832 240.043" xml:space="preserve" viewBox="0 0 368.832 240.043" y="0px" x="0px"> <g> <path style="fill:#E7E7E7;clip-rule:evenodd;fill-rule:evenodd" d="m18.74 7.24c7.745-0.057 15.635-0.259 20.901 2.163-4.185 7.708-4.713 29.9-1.441 38.2 1.271 3.223 3.788 5.157 5.766 7.208-3.605 1.461-6.712-1.92-8.649-4.325-7.933 0.418-9.021-3.273-15.136 0-4.48-13.373-3.822-31.338-1.441-43.246z"></path> <path style="clip-rule:evenodd;fill-rule:evenodd" d="m356.77 33.187c-8.671 3.886-25.995 3.038-36.036 2.163 3.313-2.565 8.162-0.565 12.251-0.721 7.52-0.288 15.67-1.496 23.79-1.442z"></path> <path style="clip-rule:evenodd;fill-rule:evenodd" d="m359.66 36.791c-6.152 4.185-16.437 2.148-27.389 2.882-16.723 1.122-34.979 2.421-48.291 0 24.81-1.693 50.47 0.804 75.68-2.882z"></path> <path style="fill:#C8B571;clip-rule:evenodd;fill-rule:evenodd" d="m205.42 46.161c18.251-2.583 36.727-1.955 56.218-1.441 2.312 1.328-4.677 0.633-7.929 0.72-4.297 0.116-9.021-0.533-10.811 0.721-10.75-1.019-24.73 0.658-37.48 0z"></path> <path style="fill:#C8B571;clip-rule:evenodd;fill-rule:evenodd" d="m265.96 44.719c14.053-0.745 32.539-1.238 44.687 1.441-15.94-0.042-34.43 0.398-44.69-1.441z"></path> <path style="fill:#C8B571;clip-rule:evenodd;fill-rule:evenodd" d="m191.72 45.439c1.409 1.458-6.102 0.11-7.208 1.442-7.217-0.111-12.182 0.786-18.739-0.721 8.49-3.001 16.1-0.185 25.95-0.721z"></path> <path style="fill:#E7E7E7;clip-rule:evenodd;fill-rule:evenodd" d="m20.181 60.575c0.613-0.132 0.68 0.281 0.721 0.721 3.564 4.917 7.801 9.438 8.649 18.019 0.793 8.032-0.63 17.308 2.162 24.505-8.459-9.319-13.854-21.704-18.739-34.596 1.728-3.557 6.028-4.542 7.207-8.649z"></path> <path style="fill:#E7E7E7;clip-rule:evenodd;fill-rule:evenodd" d="m39.642 64.9c0.838-0.117 1.283 0.16 1.441 0.721 5.378 21.388 11.24 41.932 16.578 61.263 2.653 9.611 3.148 19.49 5.766 28.831 1.458 5.202 4.192 10.124 5.766 15.136 4.766 15.176 7.893 31.436 13.693 46.849-11.21 8.01-27.057 11.384-39.641 18.019-3.791-10.927-6.09-22.573-8.649-34.596-1.854-8.713-3.34-17.011-5.767-26.668-1.1-4.38-3.409-7.127-2.883-13.695-0.011-2.15-1.874-2.449-2.162-4.324-5.357-29.479-13.161-56.512-19.46-85.048 2.285-3.277 4.956 2.291 4.325-2.883 5.424 8.127 7.618 19.376 13.694 28.11 1.449 2.082 3.821 4.455 5.766 7.208 2.109 2.984 3.539 9.295 8.648 7.928 2.553-2.304 0.17-5.561 0-8.649-0.678-12.379 0.223-28.316 2.885-38.21z"></path> <path style="fill:#E7E7E7;clip-rule:evenodd;fill-rule:evenodd" d="m15.857 7.961c-3.955 11.433-3.069 25.545 0 36.758 2.145 7.835 5.654 11.726 0.721 16.577-0.519 0.51-3.717 3.309-3.604 1.441 6.767-5.878-0.35-11.797-2.163-18.019-0.606-2.079-0.344-5.192-0.721-7.928-0.879-6.386-2.2-15.773 0.721-25.948 2.31-0.332 2.542-2.742 5.046-2.881z"></path> <path style="fill:#C8B571;clip-rule:evenodd;fill-rule:evenodd" d="m361.1 10.843c3.468 9.164 0.521 18.959 0 29.551-9.101 9.215-30.531 4.022-46.129 5.766 11.539-4.077 31.327 0.094 41.804-5.045-6.799 0.495-14.174 0.388-23.785 0.72-7.297 0.252-14.979 2.195-21.622 2.162-3.923-0.02-7.635-1.895-11.532-2.162-8.048-0.552-16.313 0.886-24.506 0.721-36.491-0.736-74.987 1.732-113.88 1.441-1.315 0.56 0.432 0.775 1.441 0.721 0.321 2.206-12.384 0.704-6.487-0.721-5.496-0.856-4.599 1.071-7.208 2.163-26.197 1.303-47.954-3.483-73.517 0-2.342 0.319-4.561 1.792-7.208 2.162-8.039 1.123-18.231-2.199-27.389 0-1.844-12.356-2.199-25.099-0.721-35.317 12.241-1.004 24.905-4.133 36.038-2.163 6.502 1.152 12.004 5.168 18.019 6.487 3.56 0.78 8.435 1.526 12.253 2.162 30.305 5.045 64.366-0.167 90.095-2.883 17.675-1.865 35.506-4.773 53.335-8.648 10.605-2.306 32.021-2.525 46.85-3.604 21.91-1.594 45.6 0.254 64.15 6.487zm-28.11 23.785c-4.089 0.156-8.938-1.844-12.251 0.721 10.041 0.875 27.365 1.723 36.036-2.163-8.13-0.053-16.28 1.155-23.79 1.442zm-49.01 5.045c13.312 2.421 31.568 1.122 48.291 0 10.952-0.734 21.236 1.302 27.389-2.882-25.21 3.686-50.87 1.189-75.68 2.882z"></path> <path style="clip-rule:evenodd;fill-rule:evenodd" d="m367.58 10.123c2.111 10.376 1.149 20.144 0 32.434-3.668 6.879-11.806 7.897-18.74 8.649-19.091 2.073-40.823 1.746-61.984 1.442-75.468-1.086-158.9 0.349-240.73 0.72-0.593 3.731-2.281 6.369-4.325 8.649 3.886 13.229 8.543 26.221 11.532 39.641 1.57 7.05 2.437 13.977 4.325 20.902 1.682 6.168 4.495 12.419 6.486 18.739 4.091 12.98 7.089 26.542 10.812 39.642 1.897 6.68 3.144 13.692 5.045 20.182 1.933 6.596 5.67 12.506 5.766 19.46-14.983 6.64-29.728 13.517-45.408 19.461-2.361-2.711-2.787-6.728-3.604-10.092-2.336-9.633-4.331-20.452-6.486-30.992-3.584-17.522-8.897-35.023-12.974-52.614-5.362-23.14-11.591-49.659-17.299-73.522 0.683-4.123 5.897-3.713 8.649-5.766-1.975-2.868 0.954-5.955 2.883-7.207-0.884-7.524-2.767-14.05-5.766-19.46 0.617-9.968-2.595-27.792 5.766-33.875 3.883-2.825 14.72-3.228 21.623-2.163 4.199 0.648 7.289 3.693 10.812 4.324 3.899 0.699 10.109 0.175 12.974 0 3.904-0.238 7.764-1.608 12.973-1.441 13.65 0.436 26.681 7.473 39.642 9.37 6.978 1.021 14.636 1.694 21.622 2.163 4.647 0.312 9.828 0.251 14.416 0 46.882-2.562 95.438-16.12 145.59-17.298 6.359-0.149 12.656-1.298 18.74-1.441 20.95-0.496 42.05 4.67 57.65 10.089zm-70.63-5.766c-14.828 1.079-36.244 1.298-46.85 3.604-17.829 3.875-35.66 6.783-53.335 8.648-25.729 2.716-59.79 7.929-90.095 2.883-3.818-0.636-8.693-1.382-12.253-2.162-6.014-1.319-11.517-5.335-18.019-6.487-11.133-1.971-23.797 1.158-36.038 2.163-1.478 10.218-1.123 22.96 0.721 35.317 9.157-2.199 19.35 1.123 27.389 0 2.646-0.37 4.866-1.843 7.208-2.162 25.562-3.483 47.32 1.303 73.517 0 2.609-1.092 1.712-3.019 7.208-2.163-5.897 1.425 6.808 2.927 6.487 0.721-1.01 0.054-2.756-0.161-1.441-0.721 38.891 0.291 77.387-2.177 113.88-1.441 8.192 0.165 16.458-1.273 24.506-0.721 3.897 0.268 7.609 2.143 11.532 2.162 6.644 0.033 14.325-1.91 21.622-2.162 9.611-0.332 16.986-0.225 23.785-0.72-10.477 5.139-30.265 0.968-41.804 5.045 15.598-1.744 37.028 3.449 46.129-5.766 0.521-10.592 3.468-20.387 0-29.551-18.54-6.234-42.23-8.082-64.14-6.487zm-276.77 46.128c6.115-3.273 7.203 0.418 15.136 0 1.938 2.405 5.044 5.786 8.649 4.325-1.979-2.051-4.496-3.985-5.766-7.208-3.272-8.3-2.743-30.491 1.441-38.2-5.266-2.421-13.156-2.219-20.901-2.162-2.381 11.908-3.039 29.873 1.441 43.245zm-9.369-39.642c-2.921 10.175-1.6 19.562-0.721 25.948 0.376 2.736 0.115 5.849 0.721 7.928 1.813 6.221 8.93 12.141 2.163 18.019-0.114 1.867 3.085-0.931 3.604-1.441 4.934-4.851 1.424-8.742-0.721-16.577-3.069-11.213-3.955-25.326 0-36.758-2.505 0.138-2.737 2.548-5.046 2.881zm232.08 35.318c1.789-1.254 6.514-0.605 10.811-0.721 3.252-0.087 10.24 0.608 7.929-0.72-19.491-0.513-37.967-1.141-56.218 1.441 12.76 0.658 26.74-1.019 37.48 0zm67.75 0c-12.147-2.679-30.634-2.186-44.687-1.441 10.27 1.838 28.76 1.398 44.69 1.441zm-144.87 0c6.558 1.506 11.522 0.609 18.739 0.721 1.106-1.332 8.617 0.017 7.208-1.442-9.85 0.535-17.46-2.281-25.95 0.721zm-152.8 23.064c4.885 12.893 10.28 25.277 18.739 34.596-2.792-7.197-1.369-16.474-2.162-24.505-0.848-8.581-5.084-13.102-8.649-18.019-0.041-0.44-0.108-0.853-0.721-0.721-1.179 4.107-5.479 5.092-7.207 8.65zm23.784 33.875c0.17 3.088 2.553 6.346 0 8.649-5.11 1.367-6.54-4.944-8.648-7.928-1.945-2.752-4.317-5.125-5.766-7.208-6.077-8.733-8.27-19.982-13.694-28.11 0.631 5.174-2.04-0.394-4.325 2.883 6.3 28.537 14.103 55.57 19.46 85.048 0.288 1.875 2.151 2.174 2.162 4.324-0.526 6.568 1.783 9.315 2.883 13.695 2.427 9.657 3.912 17.955 5.767 26.668 2.559 12.022 4.858 23.669 8.649 34.596 12.584-6.635 28.431-10.009 39.641-18.019-5.801-15.413-8.928-31.673-13.693-46.849-1.574-5.012-4.309-9.934-5.766-15.136-2.618-9.341-3.113-19.22-5.766-28.831-5.338-19.331-11.199-39.875-16.578-61.263-0.159-0.562-0.603-0.838-1.441-0.721-2.663 9.908-3.564 25.845-2.885 38.214z"></path> </g> <metadata></metadata></svg> 