<?xml version="1.0" encoding="UTF-8" standalone="no"?> <!-- Generator: Adobe Illustrator 13.0.0, SVG Export Plug-In . SVG Version: 6.00 Build 14576) --> <svg xmlns:rdf="http://www.w3.org/1999/02/22-rdf-syntax-ns#" xmlns="http://www.w3.org/2000/svg" xmlns:cc="http://web.resource.org/cc/" xmlns:xlink="http://www.w3.org/1999/xlink" xmlns:dc="http://purl.org/dc/elements/1.1/" xmlns:svg="http://www.w3.org/2000/svg" xmlns:inkscape="http://www.inkscape.org/namespaces/inkscape" xmlns:sodipodi="http://sodipodi.sourceforge.net/DTD/sodipodi-0.dtd" xmlns:ns1="http://sozi.baierouge.fr" xml:space="preserve" y="0px" x="0px" viewBox="0 0 597.344 492.1"> <g id="Layer_1"> <path d="m339.55 140.57c1.75-0.763 8.527 1.883 7.541-2.261-0.612-2.572-5.07-2.684-7.244-3.163-5.19-1.144-10.388-3.078-15.823-3.018-0.982 0.011-3.822 0.122-4.337 1.089-0.905 1.703 3.338 3.078 4.485 3.474 5.354 1.851 11.134 2.38 16.433 3.878" fill="#4E4E50"></path> <path d="m420.84 95.012c-0.933-1.725-3.746-3.129-5.456-4.074-1.97-1.088-4.06-2.056-6.037-3.15-1.29-0.713-1.968-1.021-3.434-1.297-1.027-0.194-2.786-0.991-3.651-0.749-1.927 0.541-3.632 3.817-4.855 5.207-1.43 1.622-3.262 2.893-4.666 4.526-1.417 0.404-2.72 1.365-4.195 1.676-1.704 0.359-3.544-0.14-5.276-0.293-1.802-0.161-3.836-0.1-5.576-0.444-1.57-0.311-2.979-1.015-4.522-1.395-2.452-0.604-4.748-1.593-7.235-2.088-2.522-0.502-4.412-1.456-6.641-2.551-1.965-0.966-3.108-2.611-4.665-3.927-0.189-0.16-0.395-0.36-0.605-0.569 1.018-2.234 3.432-3.777-0.274-5.483-0.736-2.234-0.473-4.203-1.98-6.184-0.866-1.139-1.337-1.333-2.558-1.779-1.034-0.379-2.066-1.384-3.167-1.516-3.243-0.386-3.885 2.655-4.79 4.832-0.961 2.311-3.737 3.936-5.163 5.766-1.431 1.837-2.69 3.592-5.124 3.739-2.769 0.167-5.237-0.319-7.993-0.31-5.878 0.021-11.061-1.516-16.585-3.044-1.081-0.299-2.105-0.906-3.163-1.168-1.192-0.295-2.469-0.377-3.586-0.792-2.295-0.853-3.124-3.764-5.167-4.477-0.358 0.457-0.039 0.546 0.312 0.889l-0.452 0.452c0 1.257 0.26 2.842 0 4.07-0.243 1.148-1.053 1.871-1.816 2.713-1.697 1.873-2.66 3.001-2.22 5.846 0.395 2.552-0.333 4.48-0.603 6.968-0.265 2.434 0.124 4.666-0.452 6.93-0.258 1.017-0.55 2.099-0.459 3.143 1.83 0.943 0.495 2.77 0.309 4.279-0.233 1.885 0.787 2.604 1.478 4.184 0.711 1.626-0.123 2.631-0.003 4.375 0.068 1.001 0.592 1.543 0.603 2.571 0.009 0.829-0.427 1.458-0.275 2.377 2.287 0.986 4.054 1.194 6.606 1.082 1.463-0.064 2.21-0.454 3.581 0.038 1.228 0.44 1.751 0.614 3.207 0.225 2.334-0.623 4.323-1.751 6.143-3.316 1.571-1.352 2.457-3.467 4.111-4.755 0.591-0.459 1.342-0.708 1.927-1.111 0.043-0.141 0.013-0.259 0.051-0.401 1.556-0.881 2.773-1.755 4.376-2.408 1.739-0.709 3.703-0.955 5.514-1.419 2.035-0.523 3.342-0.689 5.46-0.302 2.146 0.393 3.763 0.99 5.702 1.868 0.009 0.272 0.177 0.472 0.215 0.712 1.797-1.358 5.455 0.724 7.197 1.556 1.324 0.632 2.234 1.545 3.467 2.34 1.114 0.718 2.209 0.926 3.321 1.504 1.918 0.999 3.463 2.671 4.974 3.957 1.56 1.327 1.733 3.618 3.271 4.87 0.665 0.541 1.615 0.465 2.269 1.197 0.617 0.691 0.473 1.925 1.667 2.103 0.739 0.928 1.694 1.094 2.454 1.871 0.236 0.438 0.484 0.869 0.767 1.269 0.009 0.012 0.017 0.024 0.026 0.036 0.152 0.513 0.179 1.065 0.212 1.739 0.07 1.449 0.001 1.3 1.549 1.985 0.499 0.221 0.923 0.452 1.342 0.701 0.29 0.425 0.591 0.845 0.873 1.275 0.707 1.075 0.852 2.162 1.384 3.169 0.862 1.637 2.396 3.227 3.364 5.117 0.526 1.025 0.909 1.895 1.65 2.823 0.501 0.628 1.989 1.625 2.103 2.423 0.942 0.9 1.689 0.374 2.843 0.478 0.858 0.078 1.558 0.814 2.535 0.577 0.23-0.609 0.604-0.884 1.087-1.297 1.493-1.28 3.01-2.313 4.099-3.919 1.16-1.709 2.181-3.273 3.55-4.752 0.884-0.953 1.653-0.997 2.635-1.643 0.868-0.571 1.19-1.594 2.081-2.231 0.874-0.625 2.075-1.422 3.011-1.85 1.148-0.524 2.021-0.305 2.901-1.273 0.816-0.897 0.879-2.064 1.429-3.09 0.525-0.98 1.323-1.649 1.968-2.559 0.545-0.772 1.556-1.592 2.176-2.495 0.628-0.913 0.729-1.979 1.022-3.053 0.317-1.16 0.977-2.094 1.353-3.157 0.422-1.189 0.244-2.456 0.604-3.625 0.312-1.015 1.104-1.771 1.474-2.597 0.442-0.995 0.568-2.241 0.787-3.283 0.487-2.316 0.919-4.749 1.653-6.938 0.349-1.036 0.354-2.27 0.8-3.271 0.486-1.092 1.076-1.861 1.504-3.022 0.66-1.834 2.56-4.738 1.65-6.418z" fill="#EADACA"></path> <path d="m596.7 475.26l-0.896 0.254c-1.601 2.442-4.224 3.979-7.38 4.929-1.673-2.849-4.396-4.404-7.073-6.376-1.79-1.32-3.789-2.496-5.427-3.907-2.496-2.144-4.685-4.893-6.945-6.945-0.85-0.77-1.7-1.394-2.604-2.171-15.484-13.323-27.758-29.286-39.072-46.886-3.156-4.911-6.691-9.533-9.768-14.543-6.358-10.348-12.571-19.816-20.403-28.436-11.55-12.699-24.492-25.053-34.73-38.638-2.479-3.292-4.033-7.308-6.729-10.418-2.396-0.606-3.138-3.537-4.341-5.211-3.744-5.2-11.856-4.631-19.97-5.426-6.765-0.66-14.036-1.014-21.271-1.085-4.55-0.046-9.461-0.57-13.893-0.435-7.479 0.226-13.114 2.804-19.753 4.124-2.967 0.588-5.933 1.04-8.682 1.737-5.951 1.519-14.001 2.568-17.365 6.295-1.854 2.052-3.374 6.729-2.171 9.984 0.461 1.257 1.691 2.921 2.921 4.142l-1.401 1.067c0.913 3.681-0.715 9.985 1.302 12.155l0.227 1.43c-3.546 0.597-8.492 0.795-13.033 1.175-2.93 0.245-5.996-0.099-7.597-1.302-0.407-3.4 1.104-6.693 0.217-10.419l-0.868-1.52c-0.208-3.057 0.688-6.041 1.303-9.334 1.582-8.483 0.343-18.341 4.341-24.311-2.08 4.521 2.107 6.521 4.559 8.466 6.032-1.158 6.747-10.157 1.736-13.024-1.148 0.806-3.274 0.633-4.342 1.52 3.211-5.037 7.471-9.026 11.722-13.023 7.552-6.25 17.212-10.998 27.133-14.544 1.61-0.578 3.419-1.202 4.993-1.953 1.428-0.688 3.346-1.32 4.124-2.822l1.013 0.263c-0.262 1.031-0.452 2.099-0.579 3.211 0.262 0.1 0.959 0.38 0.995 0.38l1.393 0.271c0.407 0.922 2.352-0.063 3.474 0 3.653 0.207 6.991 2.686 10.853 4.124 3.601 1.339 7.163 3.374 10.636 4.342 3.699 1.03 7.381 1.111 10.637 2.387 3.301 1.294 6.34 2.885 9.984 2.388v-0.65-0.218h-0.65-0.172l2.116-1.058c0.099 0.226 0.253 0.435 0.443 0.624 3.897-7.742 2.568-18.976 2.388-29.955-0.154-9.487-1.529-18.568-4.775-24.745 5.97 2.551 11.313 6.231 17.147 9.117 5.924 2.931 12.056 5.309 17.8 8.682 2.776 1.638 5.896 3.003 8.899 4.342 3.057 1.356 5.978 3.038 8.899 4.341 5.996 2.669 12.345 5.291 17.799 8.683 6.919 4.306 13.105 11.975 17.799 19.536 4.876 7.851 9.461 15.999 13.893 23.442 4.757 7.986 9.189 15.765 12.807 24.528 3.609 8.736 7.562 17.501 10.854 26.481 6.657 18.171 13.448 36.747 18.884 55.786 2.678 9.352 6.033 18.767 9.117 28.217 1.619 4.948 3.184 9.343 5.209 13.459 1.186 2.405 2.162 4.196 2.822 6.511 0.88 3.11 0.51 7.91 1.45 10.97zm-97.18-120.8c0.425 1.021 0.316 2.577 0.868 3.473-0.968-11.296-2.216-21.806-1.954-32.56 0.027-1.076 0.969-2.161-0.434-3.039-1.013 6.521-0.552 19.961 0.651 26.917-0.959 4.277-0.154 10.454-0.218 14.108-0.036 1.918-0.678 4.648 1.086 5.644 0.73-4.57-0.23-10.48-0.01-14.54z" fill="#9ACCDE"></path> <path d="m585.04 478.84c0.741 0.633 1.194 1.411 1.755 2.025-7.914 1.828-18.414 0.661-24.899 0.95-11.604 0.524-23.434 1.818-35.155 1.836-8.791 0.018-17.563-0.552-26.391-0.452-1.293 0.018-2.397-0.027-3.419-0.054 0.208-5.065-1.637-9.361-2.84-13.423-2.08-7.026-4.07-15.122-6.295-21.706-3.266-9.659-5.255-19.499-10.202-26.481 1.592 0 3.283 0.1 3.907-0.868-6.23-1.157-11.115-2.144-15.411-4.558-1.176-0.661-2.568-1.222-3.69-1.954-6.783-4.469-8.339-16.578-17.799-17.583-2.307-0.243-4.342 0.371-5.798 0.589-0.172 0.027-0.334 0.045-0.497 0.063-1.14 0.099-2.297-0.309-3.474-0.218-3.771 0.289-7.37 1.791-10.636 2.171-2.36 0.28-4.188-0.615-6.295 0.217-2.858-1.646-11.07-3.174-11.07-7.163 0-1.267 1.772-2.84 2.605-3.907 1.049-1.347 1.817-2.595 2.604-3.906 4.477-4.739 11.495-5.265 18.667-7.163 3.04-0.806 5.997-2.035 8.899-3.039 3.121-1.086 6.358-1.23 9.117-2.388-6.032-1.71-13.584 2.532-21.056 4.124-6.312 1.348-13.159 3.065-16.713 6.729-2.406 2.486-3.221 5.706-5.861 7.813-1.619-0.742-3.572-0.887-4.992-1.954-4.73-3.572-4.793-9.08-3.039-15.628 0.806-3.021 1.944-4.232 3.257-6.295 0.668-1.059 1.039-2.352 1.519-2.821 0.651-0.624 2.379-1.602 3.039-1.954 8.258-4.404 20.259-6.123 29.086-9.334 2.18-0.795 4.938-1.139 6.078-3.039-12.96 3.003-26.31 6.367-36.9 11.07-5.987 4.55-9.813 13.422-8.9 23.443-6.565 2.713-8.293-3.753-10.201-7.814-1.248-2.649-2.207-5.906-2.604-8.248-1.013-5.924 2.867-7.842 4.992-12.373 1.066-2.271 1.619-4.387 2.821-6.294 1.339-2.117 2.687-3.808 3.69-5.645 14.543-5.499 31.728-8.356 45.8-14.325-3.681-0.915-7.163 0.776-10.636 1.736-3.419 0.94-7.018 2.694-10.202 3.038-6.666 0.715-13.938-2.867-21.271-1.953-1.882 0.235-3.464 0.045-5.21 0.217-1.999 0.189-3.853 1.194-5.86 1.52-3.754 0.615-6.005 1.302-8.683 1.736-7.932 1.275-15.584 0.244-24.095 0.217-0.126-0.769-0.416-1.401-0.776-1.972l0.343-0.198c4.794-0.326 13.793-1.583 14.326-6.946 0.416-4.151-3.799-5.644-7.814-6.512 3.952-1.203 7.335-1.927 11.07-2.822 2.487-0.597 5.191-0.913 7.814-1.519 5.064-1.177 10.293-3.085 15.412-3.69 5.39-0.633 12.101 0.126 16.713 0.217 3.637 0.072 7.362 0.189 10.854 0.217 3.744 0.027 7.19 0.606 10.636 0.868 7.362 0.561 18.694-0.018 18.885 7.381 2.352-0.326 4.16 3.003 5.644 5.209 1.303 1.926 2.207 4.033 3.256 5.644 2.062 3.166 5.083 6.097 7.814 9.117 2.694 2.976 5.173 6.286 7.813 9.334 10.674 12.354 22.558 22.954 31.909 36.249 4.676 6.647 8.728 13.892 13.458 20.838 4.739 6.964 8.945 13.928 13.675 20.404 4.82 6.593 9.993 12.707 15.194 18.884 5.164 6.133 11.232 11.369 17.365 16.715 3.057 2.667 5.607 5.869 8.682 8.465 3.14 2.63 6.9 4.53 9.98 7.14zm-77.92-62.51c0.171-0.045 0.252-0.18 0.216-0.434-1.962-0.263-5.083-2.379-6.729-3.907-0.769-0.715-1.221-2.352-2.604-1.736-0.326 1.42 1.365 2.74 2.388 3.473 1.69 1.22 4.12 2.54 6.72 2.61z" fill="#EADACA"></path> <path d="m496.28 483.14c-2.252-0.018-4.161 0.181-6.838 1.602-3.545 1.881-6.747 4.277-10.617 5.517-2.117 0.678-4.26 1.275-6.422 1.8-52.366 0.009-104.75 0.036-157.13 0.045-14.716-1.338-29.439-2.677-44.155-3.925-27.585-2.714-52.457-4.522-80.042-0.904-3.545 0.397-8.538-1.014-13.575-2.352 0.75-3.329 1.049-6.793 1.637-10.202 0.706-4.062 0.714-8.005 1.085-12.372 0.036-0.435 0.597-0.842 0.651-1.303 0.47-4.098 1.058-9.75 1.085-14.109 0.045-6.566 1.185-12.518 1.52-19.536 0.262-5.499 0.823-11.387 0.434-16.931-0.353-5.02-2.17-10.636-2.604-15.846-0.353-1.193 1.519-0.922 0.868-1.736-1.999-0.624-1.962-0.841-3.907 0-2.912-2.469-7.181-5.083-11.288-5.86-0.651-0.117-2.143-0.733-2.649-0.019l-0.597-0.461c0.217-0.271 0.434-0.543 0.642-0.823-3.563 1.936-6.358 4.64-9.333 7.163-4.776 2.604-10.211 5.707-15.195 7.38 1.32-7.289 5.626-14.39 6.729-21.924-5.119 10.384-7.516 21.472-13.675 30.607-6.105 9.053-10.935 18.631-17.365 27.133 2.026-3.682 2.352-9.479 3.039-14.544 0.461-3.446 1.267-6.829 1.736-10.202 0.732-5.272 0.308-11.739-0.434-16.497-0.298-1.953-0.1-4.087-0.434-5.644-0.163-0.777-0.76-1.374-0.868-2.17-0.633-4.703-2.587-8.592-4.993-12.372-2.089-3.293-4.088-6.45-6.295-9.552-5.028-7.073-10.075-15.194-19.101-17.365 1.031-4.874 1.465-10.237 0.868-13.892 1.149-1.312 2.912-1.628 4.124-2.821 0.706-0.688 0.833-1.683 1.52-2.389 1.338-1.383 3.428-1.845 4.993-3.038 3.373-2.587 5.083-6.729 8.465-9.117 0.669-0.162 0.262 0.751 1.085 0.434 1.646-2.532 2.415-5.354 5.209-6.729 0.715-0.353 1.8-0.208 2.605-0.65 1.501-0.833 3.238-3.926 4.559-5.644 4.712-6.124 9.985-11.306 14.543-16.715 1.438-1.239 3.003-2.351 5.209-2.822 3.156-2.866 4.848-7.28 10.636-6.945 3.582-2.541 5.454-6.611 9.334-8.682 1.999-1.068 4.323-1.385 6.511-2.389 2.153-0.985 4.188-2.993 6.295-4.341 2.315-1.475 4.278-3.202 6.729-4.124 1.067-0.046 1.365 0.66 2.387 0.65 1.944-1.193 3.157-2.948 5.427-2.821 1.854 0.108 3.084 1.989 4.992 1.736 1.23-0.163 2.216-1.664 3.474-2.17 1.465-0.598 2.713-0.516 4.341-1.086 1.104 0.117 1.42 1.972 2.605 1.302 1.013 0.072 3.229-1.628 5.426-1.736 1.031 0.055 0.534 1.646 1.736 1.521 4.803 0.769 8.375-2.353 13.675-1.521 2.623-0.958 4.143-3.689 6.729-4.341 2.433-0.615 4.513 0.416 6.512 0 5.762-1.212 7.082-6.042 11.504-8.249 2.479-1.239 5.599-1.709 8.9-2.387-3.166 9.496-3.111 23.605 1.519 31.691-0.389 4.132 3.048 5.96 4.559 8.465 0.769 1.284 0.958 3.374 2.605 3.474 1.98 0.117 4.64-3.601 6.294-4.993 2.731-2.288 6.467-4.188 10.202-6.295 3.708-2.089 7.769-4.287 11.287-5.427-12.662 1.592-19.463 9.036-27.784 14.978-1.954-2.379-2.895-5.788-5.21-7.814-0.705-0.841-0.434-2.035-0.434-2.604-2.433-4.179-2.261-9.705-3.473-15.194 0.85-5.571-0.018-12.336 2.604-17.365 0.715-1.375 2.36-1.962 2.388-3.69 0.814-0.208 1.673-1.356 2.171-2.17 2.197-3.582 3.907-8.077 6.077-12.156 2.189-4.124 4.088-8.212 7.38-11.07 2.225-1.175 4.097-2.704 6.078-4.124 0.579 1.312 1.691 0.19 2.604 0 2.017 2.614 4.25 5.01 7.163 6.729-1.185 6.666-11.649 11.902-7.597 19.102 2.406 15.854 5.625 27.729 16.497 34.513 12.906 8.059 27.982 15.34 36.25 28.001-0.019 0.562-0.851 0.308-0.868 0.868 1.175-0.416 1.184 0.606 2.387 0.435-2.523 3.6-5.87 6.539-8.031 11.07-2.062 4.323-3.111 9.948-3.473 15.846-0.218 3.545-0.742 8.085-0.868 11.938-0.072 2.098-0.498 4.712 1.085 5.86l0.868 1.52c-1.131 1.067-1.176 4.947-0.434 6.512-1.23 0.932-1.412 3.103-1.086 4.993 3.012 2.487 8.492 1.7 13.24 1.302 4.251-0.353 8.249 0.335 10.42-2.604-0.524 0.127-1.104 0.244-1.728 0.344l-0.227-1.43c0.706-3.662 0.154-6.022-0.434-8.899-0.208-1.021 0.316-2.74-0.868-3.256l1.401-1.067c0.741 0.725 1.492 1.285 2.071 1.502 0.353 0.127 1.908-0.091 3.256 0 2.56 0.172 5.164 0.642 7.814 0.435-6.321 3.509-5.942 13.475-1.085 17.799 3.672 3.265 11.332 5.472 16.279 6.294-0.389 5.535 0.705 10.267 2.822 14.979 2.731 6.059 5.606 11.911 13.023 8.031 1.936 3.418 4.351 6.357 9.334 6.729 1.302 4.812 8.248 8.411 13.458 8.899 0.796 0.072 1.275-0.227 2.171-0.217 1.13 0.018 2.404 0.524 3.689 0.434 4.748-0.325 10.003-2.278 14.95-2.921 2.84-0.371 5.58-0.307 8.059 0.751 3.274 1.401 4.829 5.606 7.163 9.117 4.812 7.253 10.491 11.305 20.62 13.24 0.426 1.898 2.271 2.912 3.257 4.559 2.343 3.889 3.554 9.071 4.992 14.108 3.555 12.409 7.579 24.8 11.288 36.467 0.67 2.09 0.21 5.01 1.96 6.65zm-114.84-46.84c0.289-0.144 0.406-0.461 0.434-0.868-0.552-1.709-1.148-4.667-1.303-6.945-0.497-7.199-0.09-15.005-0.434-22.792-0.145-3.328-0.245-7.127 0.217-10.202 0.263-1.709 1.067-2.975-0.435-3.906-0.605 0.74-0.207 3.102 0 4.341-1.013 6.358-0.271 13.765 0 20.838 0.26 6.95-0.77 13.98 1.52 19.54zm-177.99-123.95c0.145-1.293 0.977-5.607 0.217-3.039-2.297 7.761-1.963 15.683-4.341 23.009-0.57 1.764-1.501 3.653-2.17 5.427-0.751 1.98-1.167 4.061-1.954 5.86-2.605 5.997-6.34 11.152-9.769 16.062-2.659 3.816-5.489 7.624-8.465 10.854-0.904 0.985-2.405 1.936-2.604 3.473 2.74-1.429 4.749-3.997 6.512-6.295 3.907-5.109 7.524-9.532 10.853-15.194 1.592-2.713 3.681-5.48 4.775-8.248 1.04-2.622 1.673-5.616 2.822-8.466 2.86-7.11 3.26-15.82 4.11-23.44zm-28.44-38.85c-0.38 0.019-0.678-0.045-0.869-0.217-2.496 7.579-7.271 14.625-9.55 21.055 3.96-6.47 7.37-13.47 10.42-20.84zm-12.15 24.09c-0.036-0.842 1.167-1.574 0.651-2.171-0.08 0.73-1.15 1.58-0.65 2.17z" fill="#9ACCDE"></path> <path d="m439.4 58.824c0.317 5.327-1.7 11.459-2.821 17.365-1.583 8.357-1.872 15.692-3.474 23.443-2.758-3.771-5.001-7.887-8.465-11.07-1.61-1.483-3.446-2.931-5.209-4.558-1.61-1.483-3.428-3.428-5.211-4.559-1.293-0.823-2.93-1.221-4.341-1.954-1.42-0.741-2.993-1.203-4.341-1.954-0.805-0.452-1.339-1.501-2.171-1.954-0.796-0.434-1.944-0.434-2.822-0.868-1.537-0.76-2.849-2.017-4.341-2.605-1.845-0.723-4.232-1.004-6.512-1.736-2.279-0.733-4.604-1.302-7.063-1.863l0.117-0.524c1.809 0.379 4.025-0.362 5.861-0.217-3.998-0.253-6.919-2.053-10.202-3.256-1.817-0.669-4.215-1.447-6.078-1.519-0.822-0.027-1.809 0.371-2.821 0.434-1.23 0.072-2.578-0.407-3.69-0.217-1.944 0.335-3.048 2.333-4.559 3.039-1.148 0.543-3.364 1.194-5.209 1.737-3.058 0.904-8.792 0.741-12.59-0.651-2.035-0.742-3.717-2.406-5.644-3.473-3.862-2.135-7.651-3.79-12.807-4.992-5.029-1.176-10.854-2.487-16.931-2.388-2.442 0.036-4.767 0.859-7.598 0.217-0.173-0.045-0.218-0.217-0.434-0.217 0.099-0.316 0.189 0.018 0.434 0-0.506-1.601 0.497-3.22 0.65-4.992 0.101-1.122-0.198-2.243 0-3.473 1.448-8.99 6.54-15.348 11.071-21.706 3.165-4.432 7.868-9.099 12.807-11.939 1.764-1.013 3.21-2.297 4.775-3.256 8.076-4.983 17.971-6.729 28.435-7.38 4.803-0.298 8.963 1.058 13.893 1.736 4.079 0.561 8.275 0.407 11.722 1.085 3.246 0.642 6.638 2.062 9.768 3.039 8.221 2.56 14.217 6.277 19.752 11.938 1.583 1.61 2.958 3.292 4.559 4.776 3.727 3.455 7.417 6.792 11.288 10.202 1.039 2.795 2.957 4.712 5.427 6.078 0.823 1.736 1.917 3.455 2.604 5.426 0.633 1.8 1.728 4.079 1.953 5.861 0.154 1.221 0.172 2.451 0.172 3.681-0.02 1.103-0.04 2.197 0.03 3.264zm-5.65-14.977c-1.945-0.262-3.456 1.736-4.125 3.473 2.04-0.498 2.5-2.578 4.13-3.473zm-5.21 9.767c-1.185-0.027-1.619 0.696-2.387 1.085 0.307 2.198-1.005 5.752 0.435 7.163 0.71-3.011 0-6.529 1.96-8.248zm-5.21 23.66c2.578-2.325-0.47-5.644 1.086-8.249-2.7 1.43-0.84 5.066-1.09 8.249zm0 6.295c0.163-1.284 0.778-3.428 0-4.342-1.167 0.651-1.374 3.337-0.434 4.342 0.04-0.262 0.24-0.135 0.43 0zm-81.39-21.489c-0.208-1.23 0.624-2.306 0-3.256h-0.651c-0.226 1.077-0.081 2.523-0.65 3.256 0.62 0.199 0.66 0.199 1.3 0zm-2.83-3.256c0.01-0.28 0.281-0.298 0.218-0.651-0.905-2.55-3.835-2.297-7.381-3.473-2.369-0.787-6.675-1.574-9.116-1.52-2.279 0.045-4.079-0.244-5.86 0 3.599 2.125 8.637 0.859 13.023 1.736 2.795 0.561 5.164 1.945 7.597 2.605 0.39 0.552 0.33 1.556 1.52 1.303z" fill="#EADACA"></path> <path d="m438.74 108.31c0.154 2.306-1.42 8.148-2.387 11.938-1.095 4.269-1.493 8.148-3.039 11.721-0.579 1.33-1.086 2.614-1.574 3.853l-1.438-0.57c0.553-1.185 0.796-2.677 1.059-4.151-0.588 0.018-0.434-0.362-0.868 0l-2.641-0.226c0.253-0.498 0.443-1.059 0.471-1.293 0.198-1.98-0.507-3.555-1.954-4.341-0.145-0.94 0.497-2.668-0.868-2.388-0.189 0.109-0.308 0.29-0.371 0.516l-2.451-0.516c-4.078 0.688-2.939 6.358-4.558 9.551-0.778 1.547-2.532 1.646-2.198 3.319l-0.642 0.118c-0.145-0.814-0.706-1.574-0.634-2.352 0.199-2.098 3.021-4.296 2.605-6.945-0.056 0-0.109 0.009-0.163 0.018l-0.055-0.453c2.307-1.927 2.614-5.553 3.69-9.116 2.895-2.822 2.958-8.475 6.512-10.637 3.971 1.502 5.734-2.161 9.551-2.604 1.02 1.25 1.81 2.47 1.95 4.56zm-2.17 2.61c1.266 0.461 0.227-2.324 0-3.039-3.311-0.94-3.871 2.062-5.427 3.907-1.294 1.528-3.247 2.424-3.474 3.907 1.691 0.615 3.003-1.402 4.125-2.605 1.284-1.383 2.197-3.364 3.907-3.907 0.045 2.515-1.031 5.761-1.737 8.248 2.13-0.91 2.59-3.5 2.6-6.52z" fill="#EADACA"></path> <path d="m436.79 261.78c0.262 6.521 0.145 13.006-0.868 18.017-0.344 1.736-1.394 3.943-0.66 5.454l-2.116 1.058c-3.563 0-6.386-2.152-9.379-3.256-3.139-1.157-6.648-1.148-9.985-2.171-5.996-1.836-11.631-5.517-17.365-7.163-2.776-0.796-5.453-0.614-8.031 0.218l-1.393-0.271c0-0.01-0.1-0.055-0.344-0.163 1.05-3.229 2.424-5.48 3.907-8.249 4.061-7.542 8.764-13.801 12.373-21.923 2.939-6.602 6.122-15.285 4.124-21.923-0.959-3.193-5.97-4.93-6.946-8.249-1.076-3.636 0.679-7 0.434-11.07 15.141 3.455 21.807 15.384 28.653 27.133 6.11 7.03 7.09 19.85 7.6 32.55z" fill="#9ACCDE"></path> <path d="m425.07 91.167c1.547 1.664 7.38 9.315 7.163 11.504-0.153 1.583-1.609 2.379-3.247 2.415l-0.009-0.461c-0.09-3.256-3.437-6.964-6.077-9.333-4.359-3.917-10.573-7.606-16.063-9.334-0.769-0.371-0.344-0.669-0.651-1.302-0.958 0.416-2.216 0.534-3.689 0.434-5.752 3.401-8.999 13.485-18.45 11.721-2.369-0.443-4.92-1.745-7.814-2.17 4.387 0.045 6.828 1.691 10.853 1.302 7.905-0.769 15.303-12.02 11.505-19.969-0.914-1.917-3.455-3.211-6.259-4.179l0.344-0.986c2.062 0.724 3.979 1.501 5.698 2.343 1.14 0.561 2.523 0.985 3.473 1.519 0.958 0.542 1.483 1.493 2.388 1.954 2.785 1.429 6.132 2.306 8.899 4.124 1.755 1.149 3.799 3.392 5.861 5.209 1.96 1.722 4.42 3.422 6.09 5.214zm-17.8-8.249c0.425-0.923 1.745-2.994-0.217-3.256-0.308 1.067-0.426 2.325-0.869 3.256 0.67-0.154 0.42-0.154 1.09 0z" fill="#4E4E50"></path> <path d="m430.31 135.26l1.438 0.57c-1.682 4.278-3.147 7.995-6.457 10.907-1.357 1.194-3.049 2.931-4.342 3.473-3.156 1.33-6.937-0.189-8.899-2.387-0.108-0.833 1.302-0.145 1.302-0.868-0.307-1.972-0.74-3.22-0.434-4.993 0.361-2.098 2.262-3.998 2.388-5.644 0.009-0.163 0-0.317-0.018-0.47l0.642-0.118c0 0.045 0.009 0.1 0.027 0.154 5.183-1.619 3.835-8.863 6.729-13.024l2.451 0.516c-0.189 0.669 0.018 1.736-0.063 2.523 2.389 1.049 1.628 3.654 2.171 5.86 0.208-0.135 0.425-0.488 0.615-0.877l2.641 0.226c-0.805 2.378-2.261 4.106-3.038 6.512 1.45-0.28 2.3-1.18 2.85-2.36zm-2.64 6.7c0.182-0.253 0.29-0.579 0.218-1.085-0.624-0.045-1.185-0.027-1.086 0.651 0.6-0.16 0.44 0.43 0.87 0.43zm-1.51-2.61h-1.303c-1.257 1.637-1.447 4.342-2.821 5.861 2.88 0.39 2.9-3.87 4.12-5.86z" fill="#EADACA"></path> <path d="m404.45 221.62c3.103 5.581-0.443 14.218-2.171 18.233-1.356 3.147-2.55 6.53-4.124 9.333-3.844 6.875-9.568 12.808-11.576 20.884l-1.013-0.263c-2.035-1.266-4.098 0.806-5.861 1.521-6.204 2.505-12.97 4.521-18.45 7.597-3.78 2.126-7.208 4.485-10.419 6.946-3.355 2.568-6.15 5.417-9.333 7.597-0.606-4.251-3.148-6.43-5.645-9.117-1.609-1.727-3.437-3.038-5.209-4.558-3.473-2.984-7.508-6.15-11.288-8.248-7.958-4.423-18.016-9.253-22.791-16.497-4.061-6.168-5.915-14.796-7.38-23.009-0.398-2.234-1.429-5.064-1.085-6.946 0.281-1.556 2.515-3.699 3.69-5.21 2.153-2.786 3.166-5.209 4.558-8.248 3.329 1.981 4.83 4.875 8.249 6.946 2.642 1.601 5.852 1.257 8.683 2.605 1.456 0.688 2.396 2.659 3.907 3.256 1.682 0.253 3.075-0.515 4.342 0 1.781 2.741 7.931 2.152 10.636 3.256 1.482-0.94 2.722-1.89 4.558-1.736 1.691 0.136 3.383 2.55 4.992 1.085-0.071-0.072-0.144-0.144-0.216-0.217l0.216-0.217c8.05 1.085 13.73 0.263 19.97-3.039v-0.651l0.027-0.217c3.355 0.57 5.87-1.872 8.438-2.605 3.266-0.932 5.128-1.438 7.598-3.256 3.4-2.505 7.027-6.259 11.722-7.597 0.325-2.75 2.93-4.857 3.69-7.597 0.279-1.004-0.101-2.252 0.216-3.256 0.533-1.709 2.026-3.41 2.822-4.993 0.896-1.772 1.583-3.645 3.039-4.558-1.375 5.001-0.091 8.836-0.868 13.241-0.199 1.104-0.932 1.981-1.086 3.039-0.307 2.071-0.045 7.181 0.868 9.551 1.07 2.83 4.66 4.05 6.29 6.98zm-23.66 29.09c0.489-2.353-0.65-4.694-1.736-6.295-0.759-1.121-1.854-2.831-3.255-3.039 0.58 3.32 3.83 5.85 4.99 9.33z" fill="#EADACA"></path> <path d="m411.83 335.58c-5.915 1.709-13.241 3.744-17.799 5.427-5.481-1.827-13.721-2.677-20.188-3.039 4.043-0.76 8.004-1.293 11.938-1.954 2.044-0.343 3.744-1.329 5.644-1.736 6.69-1.44 13.45 1.16 20.41 1.3z" fill="#9ACCDE"></path> <path d="m386.22 71.414c6.468 1.592 12.808 2.84 11.938 11.288 0.245 0.045 0.118 0.217 0 0.217-0.533 1.574-1.519 3.563-2.722 5.39l-1.474-0.036c0.026-0.045 0.045-0.099 0.072-0.145-2.035-6.458-9.75-11.894-17.148-13.458-0.362-0.072-0.714-0.145-1.076-0.208l0.172-1.619c1.212 0.118 2.441 0.063 4.16 0.09 2.089 1.239 4.432 2.225 6.945 3.04 0.978 2.152 4.26 3.102 6.079 3.689 0.243-0.045 0.334-0.244 0.434-0.434-4.034-2.053-7.968-5.761-13.024-6.864l0.534-2.225c1.7 0.406 3.42 0.859 5.12 1.275z" fill="#EADACA"></path> <path d="m392.67 70.808l-0.344 0.986c-1.682-0.579-3.454-1.049-5.028-1.465-6.367-1.691-12.834-3.22-19.753-3.039-2.568 0.063-5.155-0.145-7.38 0.434-2.714 0.696-5.092 4.124-5.427 6.729-0.416 3.265 0.605 8.42 1.954 11.07 1.7 3.329 5.688 4.631 8.899 6.512-4.495-1.682-8.204-2.361-9.768-6.512-1.402-3.735-0.859-9.632-3.257-12.155-2.17-2.288-6.475-3.265-9.116-1.737-1.294 0.751-2.099 2.487-2.821 3.69-0.281 0.47-0.751 0.841-1.086 1.302-3.283 4.468-5.798 9.967-14.109 7.814 6.955 0.289 11.631-5.409 13.459-10.636 0.379-1.095 1.139-3.012 1.084-3.907-0.253-4.54-5.715-6.222-9.55-8.031-6.504-3.066-13.241-4.377-21.924-4.341-7.525 0.036-12.861 0.353-13.458 7.38-0.651 7.606 3.266 14.281 9.026 15.927-2.587-0.651-4.694-1.031-6.204-2.469-2.985-2.857-2.424-7.968-4.342-11.938-0.932-0.805-1.917-1.556-2.387-2.822 0.949-1.61 0.316-3.771 1.302-4.992 0.769-0.95 5.408-1.691 6.945-1.954 2.461-0.425 5.201-0.498 7.598-0.651 8.194-0.534 13.35 1.601 19.535 3.039 3.302 0.769 5.771 1.908 8.466 3.256 2.442 1.212 4.676 3.374 7.381 4.341 1.736 0.624 4.386 0.778 6.512 1.085 6.077 0.868 9.36-2.062 14.326-2.604 5.788-0.633 11.016 0.786 16.931 2.17 4.39 1.03 8.7 2.179 12.53 3.518z" fill="#4E4E50"></path> <path d="m379.92 340.14c4.251 0.263 8.312 1.673 11.939 1.954-5.002 5.271-7.063 13.484-11.722 19.101-1.891 0.235-2.912-1.483-4.559-2.17-3.5-1.466-7.66-2.271-10.418-4.342-5.237-3.943-4.723-14.751 2.82-15.628 2.353-0.271 5.146 1.111 7.815 1.302 1.37 0.1 2.73-0.29 4.12-0.21z" fill="#EADACA"></path> <path d="m382.74 65.987l-0.117 0.524c-1.954-0.443-3.998-0.886-6.178-1.392-4.134-0.968-7.732-2.244-12.589-1.303 0.234-1.14 1.591-1.158 2.171-1.954 2.55 1.094 4.358-0.172 6.511 0 0.995 0.082 1.881 0.986 3.039 1.302 0.751 0.208 1.556 0.009 2.171 0.217 1.88 0.634 3.28 2.244 5 2.606z" fill="#907662"></path> <path d="m357.78 320.6c2.298 2.243 7.615 1.393 7.597 5.427-0.009 3.075-4.567 5.083-7.38 6.078-1.936 0.688-4.351 0.099-5.644 1.52l-0.343 0.198c-0.778-1.275-1.855-2.27-2.045-3.889-0.61-5.17 3.4-8.25 7.8-9.34zm-6.51 7.16c-0.742 1.267 0.76 4.966 2.821 4.125-2.07-0.23-1.38-3.24-2.82-4.12z" fill="#EFDFCD"></path> <path d="m346.06 108.97c0.489 1.211 2.334 2.107 1.52 3.907-2.795-0.172-4.604-1.33-4.775-4.124 1.3-0.37 1.66 0.37 3.26 0.21z" fill="#717275"></path> <path d="m138.55 124.81c1.221 9.225 8.873 15.899 7.597 26.481-0.507 4.232-3.229 9.985-5.209 13.023-1.709 3.627-3.518 6.819-5.644 9.985-1.755 2.623-3.59 5.137-5.209 7.814-2.687 4.45-4.893 9.162-7.163 14.109-2.188 4.775-5.011 9.442-7.163 14.326-3.907 8.873-6.855 18.288-9.985 27.784-1.601 4.856-2.605 9.822-4.124 14.761-4.296 13.938-10.935 27.855-13.458 43.195-1.257 7.643-1.52 15.022-1.52 24.094 0 2.723-0.181 5.635 0 8.248 0.28 4.089 1.103 7.978 0.868 12.156-0.19 3.338-0.94 6.358-1.302 9.55-0.959 8.529-4.224 16.227-6.078 24.095-0.579 2.469-1.284 5.037-1.085 7.597 3.455-10.825 6.828-20.603 9.117-32.342 3.717 1.411 7.434 4.061 9.768 6.945 1.646 2.026 3.482 4.053 4.993 6.078 8.772 11.767 17.112 23.913 16.062 43.847-3.355 1.348-6.421 3.129-9.768 4.775-3.211 1.574-6.232 3.78-9.551 5.21-6.756 2.911-13.865 5.453-20.838 8.466-3.473 1.501-7.018 2.604-10.419 4.123-3.482 1.557-7.054 2.939-10.636 4.125-7.823 2.596-16.172 2.895-25.396 3.256-3.717 0.145-6.91-0.054-9.985-1.736-1.049-0.109-0.887 0.994-2.171 0.65-3.274-1.401-5.996-4.188-7.814-7.38-4.222-7.41-8.247-15.47-9.341-26.03-0.886-8.528-1.673-18.098-0.434-25.83 0.334-2.099 1.167-3.735-0.217-5.209 1.646-13.477 3.636-24.854 5.861-36.685 0.524-2.812 0.896-5.499 1.736-8.248 0.914-2.984 1.348-6.223 2.388-8.899 5.526-14.254 11.45-28.489 17.799-42.11 3.78-8.113 8.348-16.207 11.288-24.745 2.831-8.23 7.416-16.506 10.419-24.962 1.384-3.898 2.786-7.136 3.907-10.636 0.353-1.085 0.525-2.216 0.869-3.256 0.379-1.139 1.148-2.107 1.52-3.256 0.624-1.926 0.705-4.477 1.519-6.729 1.375-3.79 2.46-8.854 2.605-12.155 1.085 2.098 1.691 4.676 3.907 5.644-0.145-1.61-1.393-2.822-1.954-4.341-0.967-2.632-1.673-5.454-2.821-8.249-2.171-5.273-4.251-10.672-6.078-16.28-2.053-6.313-2.994-13.231-5.209-19.535-1.683-4.794-3.736-9.605-5.427-14.543-0.57-1.683-1.303-3.392-1.737-4.992-2.532-9.352-5.662-17.998-9.116-26.482-1.836-4.504-5.237-10.908-5.21-15.412 0.009-1.447 0.615-3.726 0.868-6.078 0.245-2.207 0.046-4.676 0.434-6.078 0.914-3.328 4.106-6.159 7.597-4.558 3.03 1.384 3.284 6.729 4.342 11.287 1.492 6.422 5.336 18.695 9.333 22.792 1.112 1.139 3.084 2.27 5.209 2.388-0.298-1.167 0.823-0.914 0.651-1.954-0.669-0.606-0.877-1.185-0.923-1.872-0.063-1.013 0.244-2.271 0.054-4.206-0.777-7.904-4.513-16.451-6.946-26.047-1.203-4.739-2.116-9.469-2.822-14.326-0.742-5.128-3.455-9.271-4.341-13.458-1.709-8.094 0.38-16.434 8.9-15.411 2.758 4.188 5.806 9.605 7.597 15.411 0.868 2.822 1.085 6.313 1.953 9.551 0.805 3.003 2.207 5.734 2.388 8.466 0.507 7.66 2.578 12.481 4.559 18.667 0.606 1.881 1.13 4.052 1.954 5.861 0.742 1.646 1.709 3.672 3.473 4.341-2.18-7.633-5.725-14.697-7.597-22.357-0.651-2.668-0.063-5.562-0.651-8.683-0.588-3.093-1.999-6.159-2.605-9.333-1.564-8.194-4.377-15.529-8.249-21.707-1.483-2.36-3.717-5.264-3.473-8.899 0.208-3.102 4.314-6.466 7.814-6.078 2.387 0.271 5.978 3.862 7.38 6.078 1.356 2.134 2.288 4.721 3.256 7.163 0.977 2.469 2.234 4.676 3.69 6.946 5.662 8.845 9.018 18.739 12.373 29.737 0.705 2.306 1.835 5.02 2.604 7.814 0.778 2.831 1.185 6.304 2.388 8.248 1.04 1.683 3.5 2.216 4.993 3.473 1.139 0.29 2.188-0.651 2.604 0.217 2.008-2.153 2.134-6.639 4.341-9.333-0.443-0.136-1.51 0.352-1.302-0.435 0.009-0.09 0.027-0.171 0.027-0.262 1.51-11.522-1.221-22.149-2.416-32.514-0.976-8.457-3.473-16.605-2.821-24.745 0.977-0.76 1.429-2.044 3.039-2.171 0.561-0.724-0.705-0.94 0.217-1.302 3.953-1.881 7.037-0.778 9.551 1.737 4.414 4.413 5.056 13.376 6.512 20.404 0.959 4.63 1.809 9.36 2.605 14.543 0.76 4.957 1.167 10.148 2.17 14.977 0.986 4.722 2.56 9.171 3.473 13.241 0.425 1.872 0.516 4.332 0.868 6.729 0.353 2.378 0.823 4.866 1.302 7.38 1.185 6.168 0.923 13.647 4.125 16.714 0.624 0.163 0.117 1.456 0.995 1.365-0.272 0.108-0.525 0.235-0.778 0.371-0.66 0.361-1.61 1.32-2.604 1.954-2.134 1.356-4.423 2.894-5.644 4.775-4.441 6.829-0.145 18.206-1.737 26.482 1.61-1.004 1.23-3.41 1.954-5.644-0.09-0.488-1.275 0.117-0.868-0.868 1.049-4.703-0.109-8.665 0.434-13.675 0.443-4.124 3.002-6.909 5.861-8.899 1.972-1.375 4.531-3.392 6.729-3.256 1.095 0.063 1.936 0.814 2.569 1.962l-0.615 0.208c-2.876 1.754-4.342 4.92-7.814 6.078-0.615 3.69-0.896 13.114 4.558 12.807 3.22-0.2 4.8-3.79 6.28-6.31zm6.29 24.31c0-0.651 0.018-1.32-0.651-1.302-3.04 1.085-5.273 2.976-6.946 5.427 2.55-1.36 4.4-3.42 7.6-4.13zm-6.51-19.1c-2.605-0.289-2.668 1.962-3.473 3.473 1.75-0.56 2.22-2.4 3.47-3.47zm-24.75-18.23v-0.434c-0.28-0.009-0.298-0.28-0.651-0.217-3.139 0.425-5.598 2.396-8.465 3.473-2.895 1.094-6.395 1.058-8.249 3.473 5.759-1.87 12.069-3.46 17.369-6.29zm-6.07 80.96c0.407 1.384 4.486 2.026 5.209 0.434-1.77-0.05-3.59-0.93-5.21-0.43zm-0.87-135.88c-1.99 0.596-3.753-0.082-5.209-0.652-1 2.677 5.03 3.346 5.21 0.652zm1.95-19.971c-2.686 1.085-6.458 0.769-8.683 0.217 0.056 3.854 7.203 2.479 8.683-0.217zm-14.758 107.66h-0.651c-1.302 2.976-1.212 7.262-1.302 10.419 1.274-2.82 1.256-7.81 1.953-10.42zm-8.249 47.54c-0.036-0.253 0.036-0.615-0.217-0.651-2.044 1.085-4.36 2.297-6.946 2.604-1.52 0.181-3.745-0.85-4.558 0.869 1.61 0.95 4.223 0.877 5.86 0.435 2.198-0.6 4.016-2.72 5.861-3.26zm-3.907-69.24c1.086-0.398 3.953-0.805 4.993-1.954-1.746 0.78-3.88-0.04-4.993 1.95zm-0.218-66.641c-0.063-0.66 0.245-1.691-0.434-1.736-0.488 0.38-1.112 0.624-1.302 1.303-2.043 1.709-5.426 1.122-7.597 2.388 2.813 1.003 7.317-0.209 9.333-1.955zm-9.55 72.281v-0.651c-3.075 1.917-7.652 2.333-9.768 5.209 3.935-0.84 6.593-2.96 9.768-4.56zm-1.953-94.638c-0.66 0.009-0.208-1.094-0.868-1.085-1.058 1.691-2.813 2.687-4.125 4.124 1.945 0.117 3.781-1.701 4.993-3.039zm-13.024 36.466c-1.465-0.28-3.147-0.316-3.474 1.085 1.041 1.113 3.121-0.108 3.474-1.085zm-7.38-14.326c1.13 1.664 5.833 0.661 5.643-0.868-0.913 0.298-3.4 0.615-4.341-0.434-0.371 0.497-1.546 0.19-1.302 1.302zm-6.295 42.327c-1.402 0.335-3.256 0.217-3.473 1.737 1.474 0.37 2.93-0.529 3.473-1.741zm-2.822-9.985c-1.673 0.443-3.066 0.054-5.209-0.434 0.181 0.615-0.308 0.561-0.217 1.085 1.184 1.574 4.847 1.312 5.426-0.651z" fill="#EADACA"></path> <path d="m136.12 112.01c1.908 3.464 1.854 10.564 0.687 13.449-0.687 1.7-3.4 4.351-5.209 4.125-3.319-0.416-3.148-6.476-3.039-10.202 3.292-1.293 6.005-4.224 6.946-7.164l0.61-0.21zm-6.26 8.89c1.275-0.389 1.845-1.483 2.388-2.604-1.03 0.52-2.89 1.25-2.39 2.6z" fill="#EFDFCD"></path> <path d="m118.58 408.3c0.326 3.075-0.859 8.402-1.52 13.241-0.859 6.321-1.076 12.102-4.341 15.194-4.468 4.241-13.385 5.02-19.752 1.52-2.333-1.284-4.233-3.744-6.295-5.644-2.18-2.008-4.884-3.672-5.644-6.078 4.658-1.736 9.434-4.006 14.109-6.077 1.601-0.715 3.419-1.014 4.993-1.736 2.722-1.258 5.49-3.012 8.248-4.559 3.64-2.03 7.7-3.05 10.2-5.85z" fill="#9ACCDE"></path> <path d="m342.57 301.41c-4.357-2.891-8.901 4.085-6.293 7.947 1.003 1.483 3.289 3.124 5.125 2.641 2.328-0.613 2.965-3.09 3.274-5.162 0.27-1.801 0.366-3.377-1.202-4.521l-0.9-0.91z" fill="#EFEFF0"></path> <path d="m316.04 82.99c-1.42-1.012-3.332-1.222-4.967-1.198-0.52 0.007-1.879-0.534-2.125 0.286-0.182 0.609 0.965 1.134 1.239 1.489 1.184 0.149 5.12 1.852 5.701 0.328l0.16-0.905z" fill="#4E4E50"></path> <path d="m376.48 93.843c-0.352-0.276-0.565-0.282-0.778-0.577-1.342-0.037-3.698-0.621-2.386 1.176 0.973 1.332 2.7 1.417 2.712-0.599h0.46z" fill="#4E4E50"></path> <path d="m383.28 82.378c0.208-1.227 0.158-2.491 0.553-3.367-2.329-1.703-5.055-3.011-8.469-3.63-0.729 0.048-1.379 0.176-1.874 0.403 0.124 0.073 0.271 0.168 0.357 0.405-1.438 1.356-2.261 3.826-1.736 6.078 0.648 2.757 4.639 3.707 7.473 2.833 0.503-0.188 1.018-0.438 1.569-0.761 0.7-0.413 1.51-1.121 2.13-1.961zm-5.53 0.54c-1.845 0.081-2.659-1.917-1.953-4.125 3.88-3.11 5.82 3.953 1.95 4.125z" fill="#B3C172"></path> <path d="m393.96 88.272c-0.082 0.136-0.182 0.253-0.362 0.29-0.978 0.145-1.059-0.615-1.194-1.312l-2.062 0.009v0.651c-3.048 0.461-6.612-1.23-8.466-1.954l-1.158 0.072c0.39 0.317 0.878 0.57 0.507 1.013-6.855-0.208-13.005-2.297-17.364-5.644 0.322-0.013 0.618 0 0.901 0.026 0.042-0.569 0.376-1.228 0.909-1.908-0.166 0.052-0.331 0.104-0.508 0.146 0.929-1.022 2.199-3.135 3.755-3.054 0.906-0.609 1.798-1.074 2.518-1.298-1.358-0.194-3.191 0.927-4.32 0.445 2.361-1.773 5.554-1.827 8.692-1.293l0.172-1.619c-0.624-0.054-1.239-0.163-1.917-0.344 2.387-0.606 4.539-0.569 6.511-0.135l0.534-2.225c-2.569-0.624-5.065-1.158-7.263-1.33-7.706-0.606-16.913-1.284-17.582 6.512-0.244 2.858 0.688 7.76 1.953 9.768 0.76 1.212 3.347 3.039 5.21 4.124 4.351 2.523 9.334 3.184 15.411 4.125 5.228 0.814 9.343 1.483 12.59-0.651 1.393-0.905 2.804-2.56 4.007-4.378l-1.47-0.036zm-21.42-16.424c-1.871 0.959-3.925 1.284-5.86 1.52 1.19-1.946 4.26-1.891 5.86-1.52zm-3.62 4.759c-1.219 0.82-2.44 1.879-3.247 2.909 1.71-0.532 2.879-1.604 4.049-2.676-0.28-0.151-0.54-0.219-0.8-0.233zm3.62-0.635c-2.388 0.823-2.134 6.566-1.52 7.814-2.498-0.375-3.623-2.125-6.261-2.362-0.009 0.113-0.024 0.229-0.008 0.334 0.382 0.307 0.862 0.728 1.456 0.804 0.018 0.084 0.034 0.167 0.051 0.251 1.7 0.568 4.047 1.895 5.827 1.657 0.41-0.779-0.094-1.046-0.309-1.745-0.322-1.045-0.341-1.158-0.11-2.298 0.295-1.445 0.127-2.868 1.199-4.07v-0.904c-0.198-0.356-0.736-0.36-1.433-0.144 0.42 0.062 0.8 0.25 1.1 0.663z" fill="#EADACA"></path> <path d="m326.52 69.243c-0.452-0.407 0.517-0.615 0.652-1.085 0.008-0.021-0.03-0.357-0.053-0.709-0.398-0.606-0.938-1.137-1.521-1.542-1.779-0.414-4.36-0.399-5.59-0.353-0.744 0.03-1.485 0.109-2.207 0.232-0.604 0.348-1.07 0.8-1.43 1.316 0.12-0.015 0.24-0.029 0.381-0.029 0.497 1.148-0.234 1.23-0.434 2.17 0.199 3.274 1.32 6.06 4.341 6.512 3.34 0.497 7.54-2.94 5.86-6.512zm-6.79 1.387c-0.935-1.318 1.131-4 2.886-3.124-0.887 0.904-2.389 1.691-1.737 3.256 0.227 0.543 1.077 1.122 1.737 1.085 2.161-0.108 1.601-3.166 0.868-4.992 0.845 1.287 1.189 2.084 0.954 4.201-2.52 1.081-3.37 1.467-4.71-0.426z" fill="#B3C172"></path> <path d="m331.08 63.382c-1.284-0.542-2.415-1.211-3.69-1.736-5.607-2.279-11.848-2.514-18.016-2.604-2.649-0.036-7.417-0.443-9.551 0.651-3.717 1.899-3.663 8.8-2.171 13.24 1.781 5.301 7.66 6.766 13.893 8.031 7.851 1.601 17.12 3.672 22.14-1.302 1.167-1.157 5.119-7.235 4.993-9.116-0.23-3.773-4.86-6.015-7.59-7.164zm-6.94-0.434c-0.887 1.058-3.211 0.29-4.559 0.651-0.461 0.1-0.416-0.307-0.435-0.651-2.334 0.914-4.721 0.642-6.729 1.52-1.772 0.769-2.867 2.532-4.775 2.822 2.55-4.559 10.59-5.681 16.5-4.342zm5.02 10.851c-0.305 0.147-0.606 0.293-0.918 0.448-0.611 0.304-1.19 0.614-1.774 0.903-1.219 1.178-2.851 1.988-4.291 2.125-1.504 0.143-2.841-0.249-3.956-0.966-0.892-0.079-1.798-0.201-2.794-0.366-0.13-0.021-0.252-0.043-0.376-0.066-2.523 0.293-5.982-1.937-6.104-4.165-0.049-0.011-0.093-0.026-0.148-0.027l0.22-0.513c-0.235 0.107-0.477 0.193-0.733 0.242 1.728-3.437 5.681-6.684 10.42-7.164 7.154-0.732 12.617 2.632 14.761 7.598-1.08 1.097-1.81 1.952-4.31 1.951zm-20.22-2.169c0.001 0.027 0.008 0.055 0.01 0.082 0.598 0.13 0.659 0.921 1.057 1.48 0.482 0.679 0.873 0.84 1.55 1.315 1.193 0.839 2.206 1.137 3.498 1.369 0.211-0.024 0.419-0.061 0.614-0.122-3.03-0.587-4.45-2.785-6.73-4.124z" fill="#EADACA"></path> <path d="m323.38 67.368c-2.038-1.085-5.17 1.752-3.333 3.685 1.823 1.919 5.119-0.853 3.713-2.797l-0.38-0.888z" fill="#505152"></path> <path d="m378.74 79.071c-1.032 0.085-3.976 0.153-2.604 2.148 0.955 1.389 3.219 0.256 3.057-1.244l-0.46-0.904z" fill="#505152"></path> <path d="m330.36 105.45c-0.815 0.375-2.821 1.302-2.833 2.442-0.014 1.351 2.04 1.738 3.136 1.628 1.28-0.129 2.194-0.81 2.419-2.103 0.214-1.236-0.72-3.115-1.967-1.968h-0.76z" fill="#717275"></path> <path d="m428.47 102.91c-0.786-0.09-0.859-0.443-1.228-0.927-0.257-0.338 0.069-0.564-0.1-0.912-0.112-0.232-0.491-0.272-0.617-0.479-0.567-0.938-1.177-1.555-2.073-2.261-1.783-1.402-3.417-1.869-4.673 0.335-2.218 3.893-2.616 7.859-3.202 12.206l-1.056 1.959c0.362 1.06-1.208 3.306-1.629 4.521-0.755 2.18-1.428 4.454-2.019 6.633-0.577 2.126-1.101 4.926-2.408 6.599-1.489 1.906-3.308 3.314-4.044 5.761-0.842 2.797-3.165 3.287-5.853 3.945-0.834 0.954-2.077 1.798-2.923 2.809-0.93 1.112-1.685 2.095-2.563 3.204-1.423 1.794-3.015 3.148-4.14 4.868-0.054-0.01-0.104-0.02-0.16-0.03-0.83 0.963-2.289 1.071-2.626 2.364-0.559 0.218-1.038 0.564-1.478 0.783-0.775 0.386-0.861 0.284-1.662 0.44-1.458 0.285-2.885 0.396-4.35-0.014 0.08-1.467-2.644-3.539-3.522-4.772-1.239-1.738-2.768-3.316-3.283-5.305-0.423-1.634-1.527-4.129-2.898-5.235-0.731-0.591-2.231-0.958-2.648-1.88-0.061-0.134-0.094-0.264-0.107-0.393 0.074-0.283 0.11-0.555 0.111-0.813 0.186-0.603 0.468-1.183-0.022-1.812-0.139-0.178-0.464-0.35-0.872-0.509-0.64-0.826-1.503-1.552-2.188-2.288-0.671-0.72-1.338-1.261-1.926-1.994-0.316-0.396-0.435-0.91-0.863-1.246-0.399-0.314-1.058-0.183-1.51-0.601-0.662-0.61-0.898-1.739-1.513-2.407-0.73-0.793-1.475-1.4-2.177-2.228-0.915-1.078-1.546-1.352-2.688-1.951-0.977-0.513-1.3-1.506-2.057-2.277-1.592-1.618-4.423-1.824-6.38-2.551-2.164-0.804-2.75-3.133-5.574-2.725-0.552 0.08-1.035 0.224-1.465 0.412-0.264-0.243-0.542-0.495-0.671-0.83-1.408 0.037-1.778-0.7-2.988-1.085-1.015-0.323-2.431-0.428-3.472-0.594-2.389-0.382-4.888 0.15-7.117 0.716-1.975 0.5-4.629 1.197-6.301 2.29-1.969 1.286-2.605 3.255-4.358 4.556-1.047 0.778-1.172 1.506-2.008 2.341-0.668 0.669-1.691 0.889-2.488 1.281-2.044 1.004-3.517 2.418-5.508 3.546-0.203 0.115-0.394 0.226-0.573 0.338-0.09-0.006-0.166-0.017-0.261-0.021-0.413-2.031-4.46-1.405-6.203-1.485-2.536-0.116-3.986-0.793-5.619-2.831-2.043-2.551 0.248-3.081 0.611-5.61 0.354-2.47-2.593-3.681-2.077-6.481 0.217-1.175 0.807-2.277 0.645-3.467-0.186-1.358-0.896-2.089-0.384-3.475 0.508-1.376 0.918-1.541 0.64-3-0.214-1.125-0.58-2.243-0.452-3.474 0.245-2.349 1.059-4.487 1.059-7.085 0-1.219-0.142-2.621 0.298-3.576 0.494-1.073 1.767-1.967 2.532-2.906 1.422-1.745 2.725-5.652 0.034-6.783l0.452 1.055c-0.842 0.03-1.4 0.809-1.383 1.632-1.275 0.757-2.229 4.473-2.988 5.905-0.582 1.098-0.701 2.443-1.063 3.618-0.334 1.085-0.967 2.191-1.202 3.312-0.99 4.731-1.093 9.792-2.253 14.476-2.4 9.686-0.15 20.452-2.717 29.993-0.671 2.493-1.301 4.411-2.371 6.644-1.076 2.246-0.788 4.615-1.85 6.934-1.009 2.205-2.177 3.961-2.261 6.474-0.059 1.764-0.582 1.896-1.481 3.316-0.652 1.03-0.685 2.337-0.926 3.467-0.544 2.549-1.138 3.898-0.188 6.364 0.839 2.181-0.101 4.41-1.136 6.485-1.292 2.592-0.445 3.729 0.905 6.139 0.776 1.387 1.238 2.602 1.809 3.625-0.599 1.32-0.728 2.843-0.312 4.493 0.762 0.72 1.598 0.688 2.39 1.225 0.71 0.481 1.203 1.422 1.653 2.118 0.996 1.542 1.939 3.378 3.355 4.635 1.572 1.396 2.938 3.632 4.643 4.401 2.021 0.912 3.063 2.232 4.551 3.89 1.661 1.849 3.302 3.047 5.39 4.141 0.965 0.505 1.739 0.906 2.592 1.432 1.4 0.863 1.805 1.952 2.864 3.056 1.615 1.681 4.928 1.768 7.058 2.752 2.188 1.01 4.019 1.306 5.759 3.094 1.674 1.72 3.858 1.803 6.032 2.408 1.077 0.3 2.062 0.793 3.092 1.133 1.081 0.357 2.359 0.107 3.505 0.409 1.211 0.319 2.182 1.182 3.466 1.367 1.443 0.209 2.055-0.451 3.196-1.034 1.963-1.003 5.228-1.336 6.452 1.026l0.758-0.138c-0.083 0.058-0.165 0.143-0.254 0.27 1.4-0.945 4.471-0.142 6.161-0.316 1.915-0.197 3.973-0.371 5.846-0.863 1.901-0.5 4.115-0.728 6.029-1.365 1.843-0.612 3.141-2.054 5.1-2.437 0.092-0.132 0.156-0.279 0.21-0.432 0.199 0.064 0.392 0.118 0.569 0.155 2.103 0.444 4.661-0.952 6.624-1.658 1.983-0.713 4.638-1.1 5.913-2.989 1.106-0.335 1.999-1.692 2.948-2.47 0.865-0.71 1.877-1.25 2.751-2.07 1.973-1.852 4.181-1.884 5.919-4.04 2.893-3.587 3.308-7.939 4.972-12.062 0.776-1.923 2.245-3.946 3.314-5.766 1.183-2.01 2.221-4.303 3.174-6.323 0.546-1.157 0.285-2.376 0.706-3.479 0.47-1.231 1.411-2.002 1.849-3.308 0.77-2.296 0.926-4.576 1.294-6.968 0.171-1.104 0.272-2.302 0.135-3.463 1.08-1.239 1.535-2.944 1.704-4.944 0.188-2.236 1.604-4.391 2.9-6.176 1.469-2.022 1.605-4 2.194-6.369 0.332-1.332 0.805-2.2 0.784-3.576-0.019-1.248 0.199-2.399 0.444-3.626 0.466-2.331 1.879-4.755 1.783-7.084-0.104-2.512 1.042-4.28 1.732-6.591 0.657-2.201 1.457-4.618 2.4-6.795 0.857-1.979 1.5-4.148 2.504-6.055 1.037-1.971 1.998-3.918 3.165-5.728 1.384-2.148 1.63-3.772 4.68-3.946 0.27-1.06-0.65-1.82-0.25-2.93zm-110.93 30.57c1.063-0.291 2.049-0.665 3.207-1.013 1.126-0.338 2.329-0.382 3.44-0.812 0.816-0.316 1.792-1.339 2.824-1.523 1.997-0.356 4.304 1.681 6.363 2.007 0.586 0.093 1.535-0.456 1.966-0.324 0.36 0.11 0.593 0.791 0.936 1.032 0.894 0.632 1.91 1.084 2.978 1.244 4.65 0.696 9.649 1.135 11.716 5.921 0.859 1.993-0.202 4.77 0.927 6.856-1.343 2.464-1.687 10.475-5.709 10.285-0.52-0.024-0.938-0.2-1.277-0.476 1.011-1.508 2.148-2.948 3.065-4.508 0.281-0.477 1.704-2.634 1.545-3.165-0.383-1.284-2.863-1.241-3.97-1.464-1.106-0.224-2.214-0.258-3.349-0.281-0.418-0.904-1.031-1.655-2.045-2.022-2.188-0.791-4.66-1.058-6.934-1.646-1.061-0.274-2.107-0.288-3.165-0.457-0.79-0.126-2.335-0.733-2.713-0.603l-2.563-0.452c-2.127-0.309-3.06 1.399-3.919 3.015-0.858 1.615-2.155 2.954-2.891 4.497-1.731 0.294-3.341 0.736-5.063-0.017-1.314-0.574-3.573-3.052-2.014-4.514-1.522-2.558 0.679-3.414 1.938-5.426 1.087-1.738 2.147-3.58 2.731-5.364-0.034-0.028-0.071-0.049-0.106-0.075 0.59-0.38 1.45-0.55 2.07-0.72z" fill="#907662"></path> <path d="m340.91 145.1c0.424 1.42 1.431 2.793 1.656 4.371 0.181 1.251 0.263 2.397 0.446 3.618 0.354 2.355 0.775 5.161 4.077 4.832 1.262-0.126 2.374-0.51 3.433-1.104 0.73-0.409 2.07-0.997 2.416-1.764 0.388-0.863 0.255-2.898 0.298-3.806 0.064-1.371-0.026-2.326-0.61-3.551-0.283-0.593-0.801-1.321-0.863-1.993l-10.87-0.61z" fill="#EADACA"></path> <path d="m323.73 141.78c-0.631-0.298-2.046-1.485-2.457-2.069-0.651-0.925-0.517-2-1.496-2.876-0.742-0.664-1.895-1.115-2.839-1.378-1.927-0.539-1.683-0.182-2.584 1.348-0.632 1.073-1.491 1.805-1.93 3.016-0.442 1.223-1.095 1.909-1.54 2.981-0.966 2.325-0.481 4.732 1.243 6.516 4.709 4.875 7.915-3.167 10.698-6.181l0.91-1.36z" fill="#EADACA"></path> <path d="m327.94 135.9c-1.498-0.709-12.667-3.521-12.789-1.081 2 1.18 4.026 1.23 5.599 3.309 0.53 0.701 0.772 1.979 1.463 2.713 0.719 0.764 2.055 1.079 3.02 1.386 2.068 0.658 4.184 1.491 6.326 2.114 2.191 0.637 4.771 0.094 7.093 0.445 2.515 0.38 13.235 2.838 13.559-1.349 0.165-2.14-2.325-4.33-4.221-4.522-2.79-0.282-5.114 0.286-7.813-0.494-2.64-0.762-7.347-0.074-9.371-1.918l-2.87-0.6z" fill="#BB8B83"></path> <path d="m350.71 138.91c0.758-1.499-3.09-3.193-4.195-3.19-0.018-0.084-0.034-0.167-0.05-0.251-1.534-0.696-3.612-1.447-5.402-1.536-2.302-0.115-3.627 0.566-5.099-1.379 0.05-1.455-3.011-0.421-4.069-0.904-1.39-0.634-1.771-1.787-3.644-1.783-1.671 0.003-2.937 0.771-4.339 1.544-1.207 0.666-2.712 1.062-3.937 1.801 0.549 0.717 2.696-0.427 3.602-0.029 1.197 0.526 2.578 0.079 3.938 0.301 1.434 0.234 2.188 1.058 3.6 1.365 1.188 0.259 2.484 0.25 3.768 0.444 2.479 0.376 5.003 1.214 7.538 1.205 2.711-0.01 4.325 3.675 6.783 3.618 0.75-0.017 1.235-0.37 1.96-0.452l-0.46-0.74z" fill="#BB8B83"></path> <g> <g> <path d="m345.28 138.24c-1.658-0.678-2.939-1.658-4.749-2.035-1.732-0.302-3.392-0.679-5.049-1.056-3.543-0.904-7.01-1.13-10.702-1.13" fill="none"></path> <path d="m345.46 138c-1.312-0.657-2.564-1.419-3.94-1.939-1.564-0.59-3.423-0.724-5.058-1.091-3.715-0.835-7.818-1.782-11.641-1.201-0.235 0.036-0.513 0.429-0.148 0.49 3.554 0.6 7.109 0.398 10.664 1.248 1.673 0.399 3.359 0.743 5.051 1.052 1.664 0.303 3.161 1.301 4.719 1.91 0.26 0.1 0.68-0.31 0.36-0.47z"></path> </g> </g> </g> <g id="Layer_3" fill="#60BAD4"> <path opacity=".23" d="m399.4 80.277c-0.67-2.365-3.67-7.122-9.195-8.592-5.526-1.47-17.939-4.058-21.254-3.919-3.313 0.139-8.588 0.554-10.702 2.11-2.114 1.557-2.106 2.913-2.238 4.707-0.13 1.793 0.039 8.444 1.334 9.915 1.294 1.47 4.009 4.564 5.728 5.275 1.718 0.711 11.185 3.437 13.114 3.769 1.932 0.332 10.625 1.856 11.606 1.658 0.982-0.198 6.918-4.342 8.04-5.458 1.12-1.116 3.57-9.465 3.57-9.465z"></path> <path opacity=".23" d="m333.22 63.847c-2.116-1.557-14.019-4.673-14.019-4.673l-13.415-1.206s-6.316 0.058-8.058 2.591c-1.741 2.534-1.536 1.633-1.401 2.952 0.134 1.32-0.259 6.701-0.259 6.701s2.33 5.409 3.634 6.636c1.307 1.228 6.616 4.196 8.115 4.411 1.498 0.215 14.104 2.157 14.104 2.157l5.055 0.087s3.24-0.678 4.352-1.552c1.111-0.873 7.354-7.877 7.771-9.512 0.415-1.635-1.261-6.144-1.261-6.144l-4.6-2.448z"></path> </g> <g id="Layer_2"> <path d="m597.2 466.69c0.308 3.925 0.027 6.521 0 9.768-0.198-0.362-0.361-0.76-0.497-1.194-0.94-3.057-0.569-7.858-1.456-10.962-0.66-2.314-1.637-4.105-2.822-6.511-2.025-4.116-3.59-8.511-5.209-13.459-3.084-9.45-6.439-18.865-9.117-28.217-5.436-19.039-12.227-37.615-18.884-55.786-3.292-8.98-7.244-17.745-10.854-26.481-3.617-8.764-8.05-16.542-12.807-24.528-4.432-7.443-9.017-15.592-13.893-23.442-4.693-7.562-10.88-15.23-17.799-19.536-5.454-3.392-11.803-6.014-17.799-8.683-2.922-1.303-5.843-2.984-8.899-4.341-3.003-1.339-6.123-2.704-8.899-4.342-5.744-3.373-11.876-5.751-17.8-8.682-5.834-2.885-11.178-6.566-17.147-9.117 3.246 6.177 4.621 15.258 4.775 24.745 0.181 10.979 1.51 22.213-2.388 29.955-0.19-0.189-0.345-0.398-0.443-0.624-0.733-1.511 0.316-3.718 0.66-5.454 1.013-5.011 1.13-11.495 0.868-18.017-0.507-12.698-1.492-25.513-7.597-32.559-6.847-11.749-13.513-23.678-28.653-27.133 0.245 4.07-1.51 7.434-0.434 11.07 0.977 3.319 5.987 5.056 6.946 8.249 1.998 6.638-1.185 15.321-4.124 21.923-3.609 8.122-8.312 14.381-12.373 21.923-1.483 2.769-2.857 5.021-3.907 8.249 0.244 0.108 0.344 0.153 0.344 0.163-0.036 0-0.733-0.28-0.995-0.38 0.127-1.112 0.317-2.18 0.579-3.211 2.008-8.076 7.732-14.009 11.576-20.884 1.574-2.803 2.768-6.186 4.124-9.333 1.728-4.016 5.273-12.653 2.171-18.233-1.627-2.93-5.218-4.151-6.295-6.946-0.913-2.37-1.175-7.48-0.868-9.551 0.154-1.058 0.887-1.936 1.086-3.039 0.777-4.404-0.507-8.24 0.868-13.241-1.456 0.913-2.144 2.786-3.039 4.558-0.796 1.583-2.289 3.283-2.822 4.993-0.316 1.004 0.063 2.252-0.216 3.256-0.761 2.74-3.365 4.848-3.69 7.597-4.694 1.338-8.321 5.092-11.722 7.597-2.47 1.818-4.332 2.324-7.598 3.256-2.568 0.733-5.083 3.175-8.438 2.605h-0.027c0.462-0.895 1.728-1.312 2.605-1.736 0.932-0.453 2.008-0.887 3.039-1.303 2.243-0.904 4.784-0.914 6.729-1.954 1.845-0.995 2.984-2.604 4.341-3.907 1.872-0.136 3.4-1.764 4.559-3.256 1.89-0.642 3.608-1.456 5.426-2.17 0.154-1.293 1.357-1.944 1.736-3.256 0.118-0.398-0.208-1.248 0-1.737 0.335-0.787 1.421-1.266 1.737-2.17 0.425-1.212 0-2.705 0.435-3.907 0.333-0.941 1.392-1.402 1.952-2.388 0.878-1.547 1.194-3.6 1.954-4.992 0.733-1.339 2.099-2.234 2.604-3.69 1.031-2.976 0.787-5.59 2.389-8.249 0.37-0.615 1.192-0.977 1.519-1.737 1.104-2.56-0.036-5.734 0.651-8.9 0.244-1.148 1.564-2.08 1.953-3.473 0.77-2.74 0.245-6.186 2.388-7.814 2.841-1.42 3.536-4.911 3.039-9.116 0.407-0.47 0.163-1.447 1.086-0.869-0.036-0.76-1.067-0.524-0.868-1.519 0.65-3.256 1.979-5.834 3.039-8.683 0.18-0.678-0.435-1.158-0.435-1.954 0-1.14 0.832-1.863 1.303-3.039 0.669-1.655 0.669-4.142 2.225-4.323 0.054-0.009 0.107-0.018 0.163-0.018 0.416 2.649-2.406 4.848-2.605 6.945-0.072 0.778 0.489 1.538 0.634 2.352 0.018 0.153 0.026 0.307 0.018 0.47-0.126 1.646-2.026 3.545-2.388 5.644-0.307 1.773 0.127 3.021 0.434 4.993 0 0.723-1.41 0.036-1.302 0.868 1.963 2.198 5.743 3.717 8.899 2.387 1.293-0.542 2.984-2.279 4.342-3.473 3.31-2.913 4.775-6.629 6.457-10.907 0.488-1.239 0.995-2.523 1.574-3.853 1.546-3.573 1.944-7.453 3.039-11.721 0.967-3.79 2.541-9.633 2.387-11.938-0.145-2.089-0.932-3.319-1.953-4.559-3.816 0.443-5.58 4.106-9.551 2.604-3.554 2.162-3.617 7.814-6.512 10.637-1.076 3.563-1.384 7.189-3.69 9.116 0.569-4.694 2.496-9.098 4.775-12.807 1.212-1.972 1.918-6.964 5.427-8.465 0.569 0.172 1.167 0.253 1.745 0.244 1.638-0.036 3.094-0.833 3.247-2.415 0.217-2.188-5.616-9.84-7.163-11.504-1.673-1.791-4.124-3.491-6.077-5.21-2.062-1.818-4.106-4.061-5.861-5.209-2.768-1.818-6.114-2.695-8.899-4.124-0.904-0.461-1.43-1.411-2.388-1.954-0.949-0.534-2.333-0.958-3.473-1.519-1.719-0.842-3.637-1.619-5.698-2.343-3.835-1.339-8.14-2.487-12.535-3.518-5.915-1.384-11.143-2.804-16.931-2.17-4.966 0.542-8.249 3.473-14.326 2.604-2.126-0.308-4.775-0.461-6.512-1.085-2.705-0.968-4.938-3.129-7.381-4.341-2.695-1.348-5.164-2.487-8.466-3.256-6.186-1.438-11.341-3.573-19.535-3.039-2.396 0.154-5.137 0.227-7.598 0.651-1.537 0.262-6.177 1.004-6.945 1.954-0.986 1.221-0.353 3.382-1.302 4.992 0.47 1.266 1.456 2.017 2.387 2.822 1.917 3.97 1.356 9.081 4.342 11.938 1.51 1.438 3.617 1.818 6.204 2.469-5.761-1.646-9.677-8.321-9.026-15.927 0.597-7.027 5.933-7.344 13.458-7.38 8.683-0.036 15.42 1.275 21.924 4.341 3.835 1.809 9.297 3.491 9.55 8.031 0.055 0.895-0.705 2.812-1.084 3.907-1.828 5.228-6.504 10.925-13.459 10.636 8.312 2.152 10.826-3.347 14.109-7.814 0.335-0.461 0.805-0.832 1.086-1.302 0.723-1.203 1.527-2.939 2.821-3.69 2.642-1.528 6.946-0.551 9.116 1.737 2.397 2.523 1.854 8.42 3.257 12.155 1.563 4.151 5.272 4.83 9.768 6.512-3.211-1.881-7.199-3.184-8.899-6.512-1.349-2.65-2.37-7.805-1.954-11.07 0.335-2.605 2.713-6.033 5.427-6.729 2.225-0.579 4.812-0.371 7.38-0.434 6.919-0.181 13.386 1.347 19.753 3.039 1.574 0.416 3.347 0.886 5.028 1.465 2.804 0.968 5.345 2.261 6.259 4.179 3.798 7.949-3.6 19.201-11.505 19.969-4.024 0.389-6.466-1.257-10.853-1.302 2.895 0.425 5.445 1.728 7.814 2.17 9.451 1.764 12.698-8.32 18.45-11.721 1.474 0.1 2.731-0.018 3.689-0.434 0.308 0.633-0.117 0.932 0.651 1.302 5.49 1.728 11.704 5.417 16.063 9.334 2.641 2.37 5.987 6.078 6.077 9.333-4.513-5.345-10.256-11.631-18.016-15.194-1.394-0.642-5.906-3.482-8.031-3.039-2.071 0.435-3.799 4.414-5.21 6.078-1.8 2.125-3.699 2.74-5.21 4.558-3.853 2.442-7.208 0.977-11.504 0.217-1.086-0.19-2.278 0.009-3.473-0.217-2.85-0.551-6.023-1.872-9.334-2.604-5.083-1.13-11.287-2.876-13.458-6.729-1.673-2.985-1.077-10.338-3.473-13.024-1.149-1.284-4.351-2.921-6.729-1.954-1.691 0.688-2.686 4.169-3.906 5.861-0.299 0.416-1.086 0.552-1.521 1.085-2.035 2.497-3.238 6.141-7.38 6.512-5.345 0.479-13.123-0.588-18.885-1.302-2.323-0.29-4.495-1.673-6.295-2.17-3.119-0.859-6.846-0.823-9.116-2.605-1.13-0.886-1.312-2.396-2.822-3.473-0.615 3.437-2.786 5.318-3.907 8.249 1.058-1.104 1.7-3.563 4.341-3.69-1.067 2.333-3.437 3.365-4.341 5.861 0.913 4.106-1.041 8.067-0.651 11.722 0.09 0.832 0.669 1.809 0.651 2.604-0.028 1.475-1.339 3.048-1.086 4.341-0.75 1.167 1.077 0.706 1.086 1.737-1.483 2.686-1.067 6.846 0.868 7.814-0.027 1.827-1.158 3.853-0.868 5.644 0.687 4.179 5.679 4.929 10.202 3.473 1.419 0 0.126 1.411 1.302 1.52 2.496-0.326 4.413-1.23 5.427-3.039 1.791-0.018 2.433-1.194 3.689-1.736-0.045-1.772 1.565-2.261 3.04-3.69 2.016-1.954 3.246-4.07 6.729-3.907-0.543 1.556-2.587 1.61-3.907 2.388-0.787 1.321-2.659 2.035-3.907 3.69-0.543 0.723-0.633 1.682-1.303 2.388-0.696 0.742-1.908 0.877-3.038 1.519-3.021 1.728-5.853 5.761-8.899 1.954-2.479 0.679-5.789 1.221-8.032 0-2.723-1.474-3.401-7.1-1.302-9.985-2.949-1.13-2.867-5.318-1.303-7.597-0.172-0.479-1.348 0.045-1.085-0.868-0.126-2.768 0.624-3.346 1.085-5.426-1.23-4.034 0.706-8.049 0.651-12.59-2.433 3.663-1.909 8.104-2.822 13.024-0.389 2.089-1.447 3.979-1.736 6.077-0.47 3.428-0.19 6.847-0.217 10.637-0.018 3.582-0.932 7.136-0.217 10.419-1.89 1.926-1.366 4.567-1.736 6.946-0.262 1.664-1.067 3.346-1.836 5.101l-0.769-0.326c1.203-2.794 0.642-6.439 1.52-9.333 0.253-0.841 1.112-1.52 1.303-2.388 0.334-1.51-0.1-3.916 0-6.078 0.153-3.437-0.38-6.457-0.217-9.333 0.226-4.061 1.447-7.769 2.17-11.504 0.678-3.518 0.253-6.801 1.302-10.202 0.434-1.411 1.041-2.469 1.302-3.907 0.253-1.375 0.407-2.641 0.869-3.907 0.76-2.08 2.55-3.762 3.473-6.078 0.253-0.633 0.163-1.546 0.434-2.388 0.253-0.778 0.814-1.366 0.868-1.954 0.289-3.229-2.306-6.449-3.907-8.9-1.33-8.483 3.428-8.99 9.333-9.985-0.009-0.117-0.018-0.244-0.026-0.361l0.896-0.073c0.216 0 0.261 0.172 0.434 0.217 2.831 0.642 5.155-0.181 7.598-0.217 6.077-0.099 11.901 1.212 16.931 2.388 5.155 1.203 8.944 2.857 12.807 4.992 1.927 1.067 3.608 2.731 5.644 3.473 3.798 1.393 9.532 1.556 12.59 0.651 1.845-0.543 4.061-1.194 5.209-1.737 1.511-0.705 2.614-2.704 4.559-3.039 1.112-0.19 2.46 0.29 3.69 0.217 1.013-0.063 1.999-0.461 2.821-0.434 1.863 0.072 4.261 0.85 6.078 1.519 3.283 1.203 6.204 3.003 10.202 3.256-1.836-0.145-4.053 0.597-5.861 0.217-1.728-0.362-3.12-1.972-4.992-2.605-0.615-0.208-1.42-0.009-2.171-0.217-1.158-0.316-2.044-1.221-3.039-1.302-2.152-0.172-3.961 1.094-6.511 0-0.58 0.796-1.937 0.814-2.171 1.954 4.856-0.941 8.455 0.334 12.589 1.303 2.18 0.506 4.224 0.949 6.178 1.392 2.46 0.561 4.784 1.13 7.063 1.863 2.279 0.732 4.667 1.013 6.512 1.736 1.492 0.588 2.804 1.845 4.341 2.605 0.878 0.435 2.026 0.435 2.822 0.868 0.832 0.453 1.366 1.501 2.171 1.954 1.348 0.75 2.921 1.212 4.341 1.954 1.411 0.732 3.048 1.13 4.341 1.954 1.783 1.13 3.601 3.075 5.211 4.559 1.763 1.627 3.599 3.075 5.209 4.558 3.464 3.184 5.707 7.299 8.465 11.07 1.602-7.751 1.891-15.086 3.474-23.443 1.121-5.906 3.139-12.038 2.821-17.365-0.062-1.067-0.045-2.161-0.045-3.265l0.913 0.009c2.776 6.439-0.994 14.896-2.388 23.009-0.361 2.125-0.416 4.414-0.65 6.512-0.634 5.535-1.293 12.183-3.039 17.148 3.111-1.14 6.766 1.755 6.512 6.729-0.145 2.875-1.176 6.729-1.954 10.419-0.705 3.364-1.284 7.117-2.17 10.202-0.588 2.035-1.972 3.763-2.605 5.644-0.442 1.321-0.397 2.768-0.868 3.907-2.125 5.119-5.372 7.724-8.682 10.419-1.095 0.896-1.792 2.18-2.605 2.605-3.482 1.827-7.227 0.253-9.551-1.52-0.208 2.243-1.121 5.291-3.689 5.86-1.538 2.523-1.113 5.689-1.954 8.466-0.361 1.194-1.456 1.989-1.736 3.039-0.57 2.107-0.082 4.161-0.435 6.729-0.497 3.672-3.889 6.539-4.123 9.985-0.109 1.673 0.723 3.491 0.65 5.21-0.136 3.292-1.248 6.458-0.65 9.984 15.854 3.392 23.161 15.331 30.388 27.35 5.229 2.984 11.604 6.096 17.148 9.117 2.442 1.339 4.667 2.686 7.163 3.907 2.434 1.194 5.173 1.809 7.814 3.039 2.197 1.022 4.115 2.705 6.295 3.907 2.17 1.194 4.63 2.271 6.945 3.256 4.694 2.008 9.226 4.342 13.893 6.513 9.171 4.269 18.188 9.025 24.745 16.062 6.186 6.638 11.062 16.207 16.279 24.528 2.687 4.286 4.983 8.646 7.598 12.807 3.952 6.285 7.235 12.806 10.419 20.187 1.962 4.54 3.826 9.551 5.644 14.325 2.695 7.056 6.385 14.255 9.116 21.924 3.519 9.877 6.991 20.196 9.985 30.605 1.528 5.328 3.5 10.528 4.992 15.847 2.994 10.636 6.91 20.883 10.202 31.039 0.796 2.442 1.655 4.73 2.604 6.947 1.99 4.53 5.2 9.24 5.69 15.41zm-199.05-383.99c0.869-8.448-5.471-9.696-11.938-11.288-1.691-0.416-3.418-0.868-5.109-1.275-2.569-0.624-5.065-1.158-7.263-1.33-7.706-0.606-16.913-1.284-17.582 6.512-0.244 2.858 0.688 7.76 1.953 9.768 0.76 1.212 3.347 3.039 5.21 4.124 4.351 2.523 9.334 3.184 15.411 4.125 5.228 0.814 9.343 1.483 12.59-0.651 1.393-0.905 2.804-2.56 4.007-4.378 1.203-1.827 2.188-3.816 2.722-5.39 0.12 0 0.25-0.172 0-0.217zm-22.35 11.721c-0.787 0.19-1.448-0.85-1.954-0.217 0.63-0.045 1.43 0.859 1.95 0.217zm-42.11-14.76c1.167-1.157 5.119-7.235 4.993-9.116-0.244-3.772-4.865-6.015-7.598-7.164-1.284-0.542-2.415-1.211-3.69-1.736-5.607-2.279-11.848-2.514-18.016-2.604-2.649-0.036-7.417-0.443-9.551 0.651-3.717 1.899-3.663 8.8-2.171 13.24 1.781 5.301 7.66 6.766 13.893 8.031 7.86 1.601 17.13 3.672 22.15-1.302zm-23.88 2.822c1.609 0.199 3.49 1.275 5.209 0.651-1.81 0-3.67-1.094-5.21-0.651z"></path> <path d="m588.74 481.01v0.868c-0.896-0.09-1.456-0.497-1.936-1.014 0.561-0.126 1.104-0.271 1.628-0.425 0.11 0.19 0.21 0.37 0.31 0.57z"></path> <path d="m588.43 480.44c-0.524 0.154-1.067 0.299-1.628 0.425-0.561-0.614-1.014-1.393-1.755-2.025-3.083-2.614-6.846-4.513-9.985-7.163-3.074-2.596-5.625-5.798-8.682-8.465-6.133-5.346-12.201-10.582-17.365-16.715-5.201-6.177-10.374-12.291-15.194-18.884-4.729-6.477-8.936-13.44-13.675-20.404-4.73-6.946-8.782-14.19-13.458-20.838-9.352-13.295-21.235-23.896-31.909-36.249-2.641-3.048-5.119-6.358-7.813-9.334-2.731-3.021-5.753-5.951-7.814-9.117-1.049-1.61-1.953-3.718-3.256-5.644-1.483-2.206-3.292-5.535-5.644-5.209-0.19-7.398-11.522-6.82-18.885-7.381-3.445-0.262-6.892-0.841-10.636-0.868-3.491-0.027-7.217-0.145-10.854-0.217-4.612-0.091-11.323-0.85-16.713-0.217-5.119 0.605-10.348 2.514-15.412 3.69-2.623 0.605-5.327 0.922-7.814 1.519-3.735 0.896-7.118 1.619-11.07 2.822 4.016 0.868 8.23 2.36 7.814 6.512-0.533 5.363-9.532 6.62-14.326 6.946 1.293-1.421 3.708-0.832 5.644-1.52 2.812-0.995 7.371-3.003 7.38-6.078 0.019-4.034-5.299-3.184-7.597-5.427-4.404 1.086-8.412 4.17-7.814 9.334 0.189 1.619 1.267 2.613 2.045 3.889 0.36 0.57 0.65 1.203 0.776 1.972 8.511 0.027 16.163 1.059 24.095-0.217 2.678-0.435 4.929-1.121 8.683-1.736 2.008-0.325 3.861-1.33 5.86-1.52 1.746-0.172 3.328 0.019 5.21-0.217 7.334-0.914 14.605 2.668 21.271 1.953 3.185-0.344 6.783-2.098 10.202-3.038 3.473-0.96 6.955-2.651 10.636-1.736-14.072 5.969-31.257 8.826-45.8 14.325-1.004 1.837-2.352 3.527-3.69 5.645-1.202 1.907-1.755 4.023-2.821 6.294-2.125 4.531-6.005 6.449-4.992 12.373 0.397 2.342 1.356 5.599 2.604 8.248 1.908 4.062 3.636 10.527 10.201 7.814-0.913-10.021 2.913-18.894 8.9-23.443 10.591-4.703 23.94-8.067 36.9-11.07-1.14 1.9-3.898 2.244-6.078 3.039-8.827 3.211-20.828 4.93-29.086 9.334-0.66 0.353-2.388 1.33-3.039 1.954-0.479 0.47-0.851 1.763-1.519 2.821-1.312 2.062-2.451 3.273-3.257 6.295-1.754 6.548-1.691 12.056 3.039 15.628 1.42 1.067 3.373 1.212 4.992 1.954 2.641-2.107 3.455-5.327 5.861-7.813 3.554-3.664 10.4-5.382 16.713-6.729 7.472-1.592 15.023-5.834 21.056-4.124-2.759 1.157-5.996 1.302-9.117 2.388-2.902 1.004-5.859 2.233-8.899 3.039-7.172 1.898-14.19 2.424-18.667 7.163-0.787 1.312-1.556 2.56-2.604 3.906-0.833 1.067-2.605 2.641-2.605 3.907 0 3.989 8.212 5.517 11.07 7.163 2.107-0.832 3.935 0.063 6.295-0.217 3.266-0.38 6.864-1.882 10.636-2.171 1.177-0.091 2.334 0.316 3.474 0.218 0.163-0.019 0.325-0.036 0.497-0.063l0.127 1.049c-4.947 0.643-10.202 2.596-14.95 2.921-1.285 0.091-2.56-0.416-3.689-0.434-0.896-0.01-1.375 0.289-2.171 0.217-5.21-0.488-12.156-4.088-13.458-8.899-4.983-0.371-7.398-3.311-9.334-6.729-7.417 3.88-10.292-1.973-13.023-8.031-2.117-4.712-3.211-9.443-2.822-14.979-4.947-0.822-12.607-3.029-16.279-6.294-4.857-4.324-5.236-14.29 1.085-17.799-2.65 0.207-5.255-0.263-7.814-0.435-1.348-0.091-2.903 0.127-3.256 0-0.579-0.217-1.33-0.777-2.071-1.502-1.229-1.221-2.46-2.885-2.921-4.142-1.203-3.256 0.316-7.933 2.171-9.984 3.364-3.727 11.414-4.776 17.365-6.295 2.749-0.697 5.715-1.149 8.682-1.737 6.639-1.32 12.273-3.898 19.753-4.124 4.432-0.136 9.343 0.389 13.893 0.435 7.235 0.071 14.507 0.425 21.271 1.085 8.113 0.795 16.226 0.226 19.97 5.426 1.203 1.674 1.945 4.604 4.341 5.211 2.696 3.11 4.251 7.126 6.729 10.418 10.238 13.585 23.181 25.938 34.73 38.638 7.832 8.619 14.045 18.088 20.403 28.436 3.076 5.01 6.611 9.632 9.768 14.543 11.314 17.6 23.588 33.562 39.072 46.886 0.904 0.777 1.755 1.401 2.604 2.171 2.261 2.053 4.449 4.802 6.945 6.945 1.638 1.411 3.637 2.587 5.427 3.907 2.68 1.99 5.41 3.54 7.08 6.39zm-194.4-139.43c4.558-1.683 11.884-3.718 17.799-5.427-6.956-0.145-13.721-2.74-20.404-1.303-1.899 0.407-3.6 1.394-5.644 1.736-3.935 0.661-7.896 1.194-11.938 1.954 6.46 0.36 14.7 1.21 20.18 3.04zm-2.17 1.08c-3.627-0.281-7.688-1.691-11.939-1.954-1.393-0.081-2.749 0.316-4.123 0.217-2.669-0.19-5.463-1.573-7.815-1.302-7.543 0.877-8.058 11.685-2.82 15.628 2.758 2.071 6.918 2.876 10.418 4.342 1.646 0.687 2.668 2.405 4.559 2.17 4.66-5.62 6.72-13.84 11.72-19.11z"></path> <path d="m507.34 415.89c0.036 0.254-0.045 0.389-0.216 0.434-2.605-0.062-5.029-1.383-6.729-2.604-1.022-0.732-2.714-2.053-2.388-3.473 1.384-0.615 1.836 1.021 2.604 1.736 1.65 1.52 4.77 3.64 6.74 3.9z"></path> <path d="m500.39 357.94c-0.552-0.896-0.443-2.451-0.868-3.473-0.218 4.062 0.732 9.967 0 14.543-1.764-0.995-1.122-3.726-1.086-5.644 0.063-3.654-0.741-9.831 0.218-14.108-1.203-6.956-1.664-20.396-0.651-26.917 1.402 0.878 0.461 1.963 0.434 3.039-0.25 10.75 0.99 21.26 1.96 32.56z"></path> <path d="m494.1 469.72c1.203 4.062 3.048 8.357 2.84 13.423-0.227 0-0.442-0.01-0.66-0.01-1.746-1.637-1.284-4.559-1.962-6.684-3.709-11.667-7.733-24.058-11.288-36.467-1.438-5.037-2.649-10.22-4.992-14.108-0.985-1.646-2.831-2.66-3.257-4.559-10.129-1.936-15.809-5.987-20.62-13.24-2.334-3.511-3.889-7.716-7.163-9.117-2.479-1.058-5.219-1.122-8.059-0.751l-0.127-1.049c1.456-0.218 3.491-0.832 5.798-0.589 9.46 1.005 11.016 13.114 17.799 17.583 1.122 0.732 2.515 1.293 3.69 1.954 4.296 2.414 9.181 3.4 15.411 4.558-0.624 0.968-2.315 0.868-3.907 0.868 4.947 6.982 6.937 16.822 10.202 26.481 2.22 6.6 4.22 14.7 6.3 21.72z"></path> <path d="m496.94 483.15c0 0.153-0.009 0.316-0.018 0.47-0.245-0.145-0.452-0.308-0.643-0.479 0.21 0 0.43 0.01 0.66 0.01z"></path> <path d="m438.96 44.498c1.049 2.342 2.08 6.494 1.953 8.899-0.036 0.769 0.037 1.701-0.651 2.171l-0.913-0.009c0-1.229-0.018-2.459-0.172-3.681-0.226-1.782-1.32-4.061-1.953-5.861-0.688-1.972-1.781-3.69-2.604-5.426-2.47-1.366-4.388-3.283-5.427-6.078-3.871-3.41-7.562-6.747-11.288-10.202-1.601-1.483-2.976-3.166-4.559-4.776-5.535-5.661-11.531-9.378-19.752-11.938-3.13-0.977-6.521-2.397-9.768-3.039-3.446-0.679-7.643-0.524-11.722-1.085-4.93-0.678-9.09-2.035-13.893-1.736-10.464 0.651-20.358 2.396-28.435 7.38-1.565 0.959-3.012 2.243-4.775 3.256-4.938 2.84-9.642 7.507-12.807 11.939-4.531 6.358-9.623 12.716-11.071 21.706-0.198 1.23 0.101 2.352 0 3.473-0.153 1.772-1.156 3.392-0.65 4.992-0.244 0.018-0.335-0.316-0.434 0l-0.896 0.073c-1.375-16.135 8.32-28.779 17.826-38.059 2.278-2.225 4.64-4.143 7.597-5.861 2.821-1.637 5.327-3.835 8.248-5.209 6.286-2.958 13.214-4.478 20.621-5.21 1.56-0.154 3.03-0.217 4.46-0.217 4.722 0 8.945 0.732 13.774 1.519 3.664 0.606 7.489 0.579 11.07 1.085 4.332 0.615 8.837 2.424 13.024 3.907 10.555 3.735 17.835 9.65 24.094 17.582 2.56 1.492 4.784 3.319 6.295 5.86 2.496 1.628 4.803 3.446 5.86 6.512 0.832 1.284 2.768 1.737 3.907 3.039 0.552 0.633 0.678 1.746 1.303 2.822 0.49 0.797 1.44 1.466 1.75 2.172z"></path> <path d="m436.57 107.88c0.227 0.715 1.266 3.5 0 3.039-0.019 3.021-0.471 5.607-2.605 6.512 0.706-2.487 1.782-5.733 1.737-8.248-1.71 0.542-2.623 2.523-3.907 3.907-1.122 1.203-2.434 3.22-4.125 2.605 0.227-1.483 2.18-2.379 3.474-3.907 1.57-1.85 2.13-4.85 5.44-3.91z"></path> <path d="m433.97 286.52v0.65c-3.645 0.497-6.684-1.094-9.984-2.388-3.256-1.275-6.938-1.356-10.637-2.387-3.473-0.968-7.035-3.003-10.636-4.342-3.861-1.438-7.199-3.917-10.853-4.124-1.122-0.063-3.066 0.922-3.474 0 2.578-0.832 5.255-1.014 8.031-0.218 5.734 1.646 11.369 5.327 17.365 7.163 3.337 1.022 6.847 1.014 9.985 2.171 2.993 1.104 5.815 3.256 9.379 3.256h0.172 0.65c0.01 0.08 0.01 0.15 0.01 0.22z"></path> <path d="m429.63 47.319c0.669-1.736 2.18-3.735 4.125-3.473-1.64 0.896-2.1 2.976-4.13 3.473z"></path> <path d="m430.5 131.11c0.435-0.362 0.28 0.018 0.868 0-0.263 1.474-0.506 2.966-1.059 4.151-0.551 1.185-1.393 2.08-2.848 2.36 0.78-2.41 2.23-4.14 3.04-6.51z"></path> <path d="m426.16 54.7c0.768-0.389 1.202-1.112 2.387-1.085-1.962 1.718-1.248 5.237-1.952 8.249-1.45-1.412-0.14-4.967-0.44-7.164z"></path> <path d="m426.37 125.24c1.447 0.787 2.152 2.361 1.954 4.341-0.027 0.235-0.218 0.796-0.471 1.293-0.19 0.389-0.407 0.742-0.615 0.877-0.543-2.207 0.218-4.812-2.171-5.86 0.081-0.787-0.126-1.854 0.063-2.523 0.063-0.226 0.182-0.407 0.371-0.516 1.37-0.27 0.73 1.45 0.87 2.39z"></path> <path d="m427.89 140.87c0.072 0.507-0.036 0.832-0.218 1.085-0.434 0-0.279-0.588-0.868-0.434-0.09-0.68 0.47-0.7 1.09-0.66z"></path> <path d="m424.85 139.35h1.303c-1.221 1.99-1.239 6.25-4.124 5.861 1.37-1.51 1.57-4.22 2.82-5.86z"></path> <path d="m424.42 69.026c-1.556 2.604 1.492 5.924-1.086 8.249 0.25-3.184-1.61-6.82 1.09-8.249z"></path> <path d="m423.33 79.228c0.778 0.914 0.163 3.058 0 4.342-0.189-0.136-0.389-0.263-0.434 0-0.94-1.005-0.73-3.691 0.43-4.342z"></path> <path d="m422.68 122.86c-2.894 4.161-1.546 11.405-6.729 13.024-0.019-0.054-0.027-0.109-0.027-0.154-0.334-1.673 1.42-1.772 2.198-3.319 1.62-3.19 0.48-8.87 4.56-9.55z"></path> <path d="m417.47 106.8c0.787 3.147-1.881 8.284-2.388 12.807-0.842-0.091-0.769-0.235-1.303 0.217 0.588 3.518-2.768 6.141-2.388 9.984-1.745 1.655-3.065 3.736-4.775 5.427-0.172 2.578-1.483 4.016-3.039 5.209-2.993-1.212-5.833 2.27-6.945 4.993-0.661 0.154-0.643-0.371-1.303-0.217-0.932 0.298-0.886 1.574-1.954 1.737-1.058 4.44-5.58 5.417-7.597 8.899-0.914 0.262-1.501 0.045-1.953-0.651-1.837 0.678-4.703 1.004-4.993-1.302 0.94-0.036 1.475 0.217 2.171 0.868 1.284-0.045 3.355-1.836 3.907 0 0.643-0.443 1.085-1.085 1.302-1.953 4.93-1.511 5.526-7.354 9.985-9.334 0.435-1.158 1.339-1.845 1.953-2.822 2.271-0.407 3.302-2.052 5.861-2.17 1.736-3.184 2.867-6.973 6.295-8.465-0.172-3.573 1.266-5.535 2.388-7.814-0.326-0.723 0.09-1.365-0.218-1.736 2.57-3.67 2.49-9.96 4.98-13.69z"></path> <path d="m407.05 79.662c1.962 0.262 0.642 2.333 0.217 3.256-0.67-0.154-0.416-0.154-1.086 0 0.45-0.932 0.57-2.189 0.87-3.256z"></path> <path d="m394.03 88.127c-0.027 0.045-0.046 0.1-0.072 0.145-0.082 0.136-0.182 0.253-0.362 0.29-0.978 0.145-1.059-0.615-1.194-1.312-0.036-0.145-0.062-0.289-0.107-0.425-1.81-3.039-4.451-5.246-7.381-7.164 0.199 2.153-0.39 3.519-1.953 3.908 0.605-1.538 0.343-3.392 0.868-4.559-2.759-2.017-6.061-3.491-10.42-3.907-0.425 0.814 0.209 0.47 0.435 1.085-1.438 1.356-2.261 3.826-1.736 6.078 0.769 3.265 6.231 4.007 8.899 2.171 0.868-0.063-0.263 1.022-0.651 1.085 0.037 0.199 0.19 0.362 0.361 0.506 0.39 0.317 0.878 0.57 0.507 1.013-6.855-0.208-13.005-2.297-17.364-5.644 3.318-0.136 4.396 1.972 7.162 2.388-0.614-1.248-0.868-6.991 1.52-7.814-1.239-1.728-3.942 0.416-5.427-0.217 2.361-1.773 5.554-1.827 8.692-1.293 0.362 0.063 0.714 0.136 1.076 0.208 7.38 1.565 15.1 7.001 17.13 13.458z"></path> <path d="m393.6 79.228c-0.1 0.19-0.19 0.389-0.434 0.434-1.819-0.587-5.102-1.537-6.079-3.689-2.514-0.814-4.856-1.8-6.945-3.04-1.719-0.027-2.948 0.028-4.16-0.09-0.624-0.054-1.239-0.163-1.917-0.344 2.387-0.606 4.539-0.569 6.511-0.135 5.06 1.103 8.99 4.811 13.03 6.864z"></path> <path d="m390.34 87.259v0.651c-3.048 0.461-6.612-1.23-8.466-1.954 2.33-0.786 5.89 0.896 8.47 1.303z"></path> <path d="m388.6 180.38c0.38 4.196 1.7 9.994-1.086 12.806-0.615-1.537 0.706-3.184 0.868-5.426 0.2-2.67-1.19-5.51 0.22-7.38z"></path> <path d="m388.39 170.4c0.154 1.094-0.234 3.518-0.868 4.558-0.2-1.64-0.15-3.58 0.87-4.56z"></path> <path d="m379.7 271.33c1.764-0.715 3.826-2.786 5.861-1.521-0.778 1.502-2.696 2.135-4.124 2.822-1.574 0.751-3.383 1.375-4.993 1.953-9.921 3.546-19.581 8.294-27.133 14.544-4.251 3.997-8.511 7.986-11.722 13.023 1.067-0.887 3.193-0.714 4.342-1.52 5.011 2.867 4.296 11.866-1.736 13.024-2.451-1.945-6.639-3.944-4.559-8.466-3.998 5.97-2.759 15.827-4.341 24.311-0.615 3.293-1.511 6.277-1.303 9.334-1.583-1.148-1.157-3.763-1.085-5.86 0.126-3.854 0.65-8.394 0.868-11.938 0.361-5.897 1.41-11.522 3.473-15.846 2.161-4.531 5.508-7.471 8.031-11.07-1.203 0.172-1.212-0.851-2.387-0.435 0.018-0.561 0.85-0.307 0.868-0.868-8.268-12.661-23.344-19.942-36.25-28.001-10.872-6.783-14.091-18.658-16.497-34.513-4.052-7.199 6.412-12.436 7.597-19.102-2.913-1.719-5.146-4.115-7.163-6.729-0.914 0.19-2.026 1.312-2.604 0-1.981 1.42-3.853 2.949-6.078 4.124-3.292 2.858-5.191 6.946-7.38 11.07-2.17 4.079-3.88 8.574-6.077 12.156-0.498 0.814-1.357 1.962-2.171 2.17-0.027 1.728-1.673 2.315-2.388 3.69-2.623 5.029-1.754 11.794-2.604 17.365 1.212 5.489 1.04 11.016 3.473 15.194 0 0.569-0.271 1.764 0.434 2.604 2.315 2.026 3.256 5.436 5.21 7.814 8.32-5.941 15.122-13.386 27.784-14.978-3.519 1.14-7.579 3.338-11.287 5.427-3.735 2.107-7.471 4.007-10.202 6.295-1.655 1.393-4.314 5.11-6.294 4.993-1.646-0.1-1.836-2.189-2.605-3.474-1.511-2.505-4.947-4.333-4.559-8.465-4.63-8.086-4.685-22.195-1.519-31.691-3.301 0.678-6.421 1.148-8.9 2.387-4.422 2.207-5.743 7.037-11.504 8.249-1.999 0.416-4.079-0.615-6.512 0-2.586 0.651-4.106 3.383-6.729 4.341-5.3-0.832-8.873 2.289-13.675 1.521-1.202 0.126-0.705-1.466-1.736-1.521-2.197 0.108-4.414 1.809-5.426 1.736-1.185 0.67-1.501-1.185-2.605-1.302-1.627 0.57-2.876 0.488-4.341 1.086-1.257 0.506-2.243 2.007-3.474 2.17-1.908 0.253-3.138-1.628-4.992-1.736-2.27-0.127-3.482 1.628-5.427 2.821-1.022 0.01-1.32-0.696-2.387-0.65-2.452 0.922-4.414 2.649-6.729 4.124-2.107 1.348-4.142 3.355-6.295 4.341-2.188 1.004-4.513 1.32-6.511 2.389-3.88 2.07-5.752 6.141-9.334 8.682-5.789-0.335-7.48 4.079-10.636 6.945-2.207 0.472-3.771 1.583-5.209 2.822-4.558 5.409-9.831 10.591-14.543 16.715-1.32 1.718-3.057 4.811-4.559 5.644-0.805 0.442-1.89 0.298-2.605 0.65-2.794 1.375-3.563 4.196-5.209 6.729-0.823 0.317-0.416-0.596-1.085-0.434-3.383 2.388-5.092 6.53-8.465 9.117-1.565 1.193-3.654 1.655-4.993 3.038-0.687 0.706-0.814 1.701-1.52 2.389-1.212 1.193-2.975 1.51-4.124 2.821 0.597 3.654 0.163 9.018-0.868 13.892 9.026 2.171 14.073 10.292 19.101 17.365 2.207 3.102 4.206 6.259 6.295 9.552 2.406 3.78 4.36 7.669 4.993 12.372 0.108 0.796 0.706 1.393 0.868 2.17 0.334 1.557 0.136 3.69 0.434 5.644 0.742 4.758 1.167 11.225 0.434 16.497-0.47 3.373-1.275 6.756-1.736 10.202-0.688 5.064-1.013 10.862-3.039 14.544 6.431-8.502 11.26-18.08 17.365-27.133 6.159-9.136 8.556-20.224 13.675-30.607-1.103 7.534-5.409 14.635-6.729 21.924 4.984-1.673 10.419-4.775 15.195-7.38 2.976-2.523 5.77-5.228 9.333-7.163-0.208 0.28-0.425 0.552-0.642 0.823-4.143 5.272-9.135 9.659-15.638 12.635-2.867 1.312-6.069 2.551-9.333 3.474-2.523 6.565-7.181 11.938-11.07 18.016-0.914 1.43-1.456 3.066-2.388 4.559-0.887 1.429-2.071 2.677-3.039 4.124-2.586 3.862-4.124 8.266-8.249 10.419-1.103 0.425-0.931-1.004-1.519-0.435-4.667 2.85-8.574 3.735-14.543 2.388-5.761-1.302-7.524-3.247-11.504-6.729-2.885-2.523-5.201-4.215-6.078-8.031-8.167 2.505-16.433 6.72-25.614 9.333-4.016 1.141-8.583 1.557-13.24 1.954-6.874 0.588-13.883 1.61-19.753-1.302-3.862 1.075-5.752-1.602-7.814-3.039-6.91-9.425-11.423-20.676-13.024-35.164-0.515-4.64-0.054-9.38-0.651-14.11-0.904-7.172 0.597-16.948 1.736-24.527 0.642-4.242 1.004-8.52 1.736-12.589 1.438-7.969 2.487-16.146 4.559-23.444 2.017-7.1 4.703-14.244 7.597-21.055 5.771-13.585 11.504-26.454 17.582-39.506 3.075-6.602 5.662-13.276 8.683-19.752 4.703-10.102 8.194-20.168 11.938-31.04 1.447-4.206 3.292-8.655 4.559-12.59 1.175-3.663 1.221-7.633 2.649-11.242l1.041 0.389c-0.145 3.301-1.23 8.366-2.605 12.155-0.814 2.252-0.895 4.803-1.519 6.729-0.371 1.148-1.14 2.117-1.52 3.256-0.344 1.04-0.516 2.171-0.869 3.256-1.121 3.5-2.523 6.738-3.907 10.636-3.003 8.457-7.588 16.732-10.419 24.962-2.939 8.538-7.507 16.632-11.288 24.745-6.349 13.621-12.273 27.856-17.799 42.11-1.04 2.677-1.474 5.915-2.388 8.899-0.841 2.749-1.212 5.437-1.736 8.248-2.225 11.83-4.215 23.208-5.861 36.685 1.384 1.474 0.552 3.11 0.217 5.209-1.239 7.732-0.452 17.302 0.434 25.83 1.094 10.555 5.119 18.622 9.333 26.048 1.818 3.192 4.541 5.979 7.814 7.38 1.284 0.344 1.122-0.76 2.171-0.65 3.075 1.683 6.268 1.881 9.985 1.736 9.225-0.361 17.573-0.66 25.396-3.256 3.582-1.186 7.153-2.568 10.636-4.125 3.401-1.519 6.946-2.622 10.419-4.123 6.973-3.013 14.083-5.555 20.838-8.466 3.319-1.43 6.34-3.636 9.551-5.21 3.346-1.646 6.412-3.428 9.768-4.775 1.049-19.934-7.29-32.08-16.062-43.847-1.51-2.025-3.347-4.052-4.993-6.078-2.333-2.885-6.05-5.534-9.768-6.945-2.289 11.739-5.662 21.517-9.117 32.342-0.199-2.56 0.506-5.128 1.085-7.597 1.854-7.868 5.119-15.565 6.078-24.095 0.362-3.191 1.112-6.212 1.302-9.55 0.235-4.179-0.588-8.067-0.868-12.156-0.181-2.613 0-5.525 0-8.248 0-9.071 0.262-16.451 1.52-24.094 2.523-15.34 9.162-29.258 13.458-43.195 1.519-4.938 2.523-9.904 4.124-14.761 3.129-9.497 6.078-18.912 9.985-27.784 2.152-4.884 4.975-9.551 7.163-14.326 2.27-4.948 4.477-9.66 7.163-14.109 1.619-2.677 3.455-5.191 5.209-7.814 2.125-3.166 3.934-6.358 5.644-9.985 1.981-3.039 4.703-8.791 5.209-13.023 1.275-10.582-6.376-17.257-7.597-26.481-1.474 2.522-3.057 6.113-6.295 6.294-5.454 0.308-5.173-9.117-4.558-12.807 3.473-1.158 4.938-4.324 7.814-6.078-0.941 2.939-3.654 5.87-6.946 7.164-0.109 3.726-0.28 9.786 3.039 10.202 1.809 0.226 4.522-2.424 5.209-4.125 1.167-2.885 1.221-9.985-0.687-13.449-0.633-1.148-1.475-1.899-2.569-1.962-2.197-0.136-4.757 1.881-6.729 3.256-2.858 1.99-5.417 4.775-5.861 8.899-0.543 5.011 0.615 8.972-0.434 13.675-0.407 0.985 0.778 0.38 0.868 0.868-0.723 2.234-0.344 4.64-1.954 5.644 1.592-8.276-2.704-19.653 1.737-26.482 1.221-1.881 3.509-3.418 5.644-4.775 0.995-0.633 1.944-1.592 2.604-1.954 0.253-0.136 0.506-0.263 0.778-0.371 0.09 0 0.189-0.018 0.307-0.063 0.009-0.018 0.018-0.045 0.018-0.063 1.8-0.669 3.935-0.769 6.06 0.063 4.052 6.304 2.813 14.679 5.209 21.489 1.085 3.093 2.858 5.399 3.907 7.814 1.665 3.826 3.274 10.012 1.954 15.195-0.832 3.265-2.089 7.117-3.69 10.202-0.651 1.257-1.89 2.37-2.605 3.69-2.198 4.034-4.522 7.688-6.946 11.504-3.174 5.001-5.942 10.148-9.117 15.411-1.339 5.572-5.391 10.329-7.597 15.846-0.353 0.887-0.29 1.945-0.651 2.822-1.112 2.713-2.614 5.137-3.69 8.031-3.066 8.248-6.114 17.238-8.249 26.698-1.32 5.834-3.699 11.785-5.861 17.365-1.754 4.522-3.084 8.384-4.558 12.59-2.424 6.919-4.785 16.18-5.861 24.528-1.375 10.735-0.09 19.744 0 29.955 1.113 0.262 2.044-1.394 3.256-1.736 0.353-0.67 0.723-1.312 1.085-1.954 2.958-2.27 5.969-4.73 8.683-7.814 2.569-2.912 5.969-5.219 8.249-8.031 0.832-1.022 1.248-2.496 2.388-3.256 1.004-0.679 2.415-0.67 3.473-1.303 1.673-1.004 3.347-3.717 4.993-5.644 1.691-1.98 3.256-3.988 4.775-5.644 3.473-3.79 6.566-8.275 9.768-11.07 1.175-1.021 2.695-1.89 4.558-2.388 3.527-2.478 4.667-7.344 10.853-7.163 3.12-1.827 4.721-5.317 8.031-7.597 2.279-1.574 5.083-2.226 7.814-3.474 1.7-0.777 3.301-2.479 5.209-3.689 1.248-0.787 2.867-1.475 4.341-2.388 2.379-1.466 3.808-3.365 6.512-1.736 1.673-1.05 3.681-3.111 5.861-3.039 1.691 0.054 2.777 1.917 4.558 1.953 2.144-1.998 8.412-4.929 10.854-1.953 2.207-1.086 6.512-3.437 7.814 0 3.111 0.136 5.499-1.32 8.465-1.736 1.42-0.199 3.121 0.153 4.342-0.218 1.763-0.533 3.057-3.102 5.209-3.907 2.324-0.877 4.196-0.724 6.946-0.217 4.45-0.552 6.304-4.115 9.117-6.512 3.247-2.759 7.217-3.274 12.59-4.342 1.185-0.262 0.407-2.487 2.387-1.953 4.007-6.385 7.245-13.53 11.07-20.187 3.211-5.589 6.928-9.289 12.807-12.373-0.724-2.171-2.216-3.572-4.559-4.124-0.633-1.393-1.944-2.107-1.954-4.124-1.465-0.715-3.347-1.212-4.341-2.822-1.022-1.664-0.073-3.418-0.435-5.644-0.407-2.496-3.021-5.01-3.256-7.163-0.316-2.903 1.682-4.911 2.604-6.512-0.904-1.628-1.637-3.428-1.736-5.861 1.818-1.61 1.691-3.771 2.605-6.729 0.488-1.574 1.827-2.876 2.17-4.341 0.226-0.977-0.181-2.044 0-3.039 0.298-1.61 2.026-3.057 2.605-4.993 0.334-1.112-0.063-2.451 0.217-3.473 0.29-1.058 1.456-1.673 1.954-2.822l0.769 0.326c-0.353 0.814-0.706 1.646-0.986 2.497-0.425 1.293-0.09 2.713-0.434 3.907-0.389 1.366-1.727 2.188-2.17 3.473-0.38 1.095-0.19 2.37-0.434 3.69-0.316 1.709-1.438 2.903-1.954 4.558-0.244 0.787 0.018 1.673-0.217 2.605-0.543 2.107-2.271 3.735-2.388 5.209-0.135 1.728 1.52 3.347 1.52 4.993 0.009 2.36-2.587 3.138-2.388 6.078 0.073 1.104 1.031 2.949 1.737 4.341 0.361 0.724 1.338 1.537 1.52 2.388 0.271 1.284-0.615 3.211-0.217 4.558 0.398 1.33 1.148 1.701 1.954 2.388 1.791 1.538 2.966 2.605 4.124 5.21 0.534 0.714 1.149 0 1.954 0.434 1.185 1.347 2.515 2.55 3.256 4.341 0.407 0.706 1.067-0.099 1.736 0.434 1.782 3.256 4.296 5.4 7.38 7.38 1.257 0.805 2.388 1.203 3.907 2.171 1.275 0.813 2.09 2.035 3.039 2.822 1.05 0.859 2.089 2.062 3.04 2.604 2.368 1.366 5.544 0.95 8.465 2.388 1.555 0.76 2.487 2.894 4.124 3.69 2.541-1.267 4.277 1.203 6.512 1.736 0.842 0.199 1.764-0.362 2.605-0.217 1.618 0.271 2.939 1.438 4.774 1.52 2.632-2.985 7.101-1.999 9.552 0.434 0.072 0.073 0.145 0.145 0.216 0.217-1.609 1.465-3.301-0.949-4.992-1.085-1.836-0.154-3.075 0.796-4.558 1.736-2.705-1.104-8.854-0.515-10.636-3.256-1.267-0.515-2.66 0.253-4.342 0-1.511-0.597-2.451-2.568-3.907-3.256-2.831-1.348-6.041-1.004-8.683-2.605-3.419-2.071-4.92-4.965-8.249-6.946-1.393 3.039-2.405 5.462-4.558 8.248-1.176 1.511-3.41 3.654-3.69 5.21-0.343 1.881 0.688 4.712 1.085 6.946 1.465 8.212 3.319 16.841 7.38 23.009 4.775 7.244 14.833 12.074 22.791 16.497 3.78 2.098 7.815 5.264 11.288 8.248 1.772 1.52 3.6 2.831 5.209 4.558 2.496 2.688 5.038 4.866 5.645 9.117 3.183-2.18 5.978-5.028 9.333-7.597 3.211-2.461 6.639-4.82 10.419-6.946 5.58-3.08 12.35-5.1 18.55-7.6zm-39.28 39.94c4.567 1.257 4.332-7.19 1.302-8.9-4.341-0.805-5.67 4.17-4.341 6.946 0.199-0.452 0.643-0.66 1.303-0.651 0.189 0.833-0.354 1.384 0 1.737 1.176 0.234 1.447-0.435 2.388-0.435 0.22 0.86-0.34 0.95-0.65 1.29zm-223.36 110.27c0.661-4.839 1.845-10.166 1.52-13.241-2.496 2.805-6.557 3.826-10.202 5.861-2.758 1.547-5.526 3.301-8.248 4.559-1.574 0.723-3.392 1.021-4.993 1.736-4.676 2.071-9.451 4.341-14.109 6.077 0.76 2.406 3.464 4.07 5.644 6.078 2.062 1.899 3.961 4.359 6.295 5.644 6.367 3.5 15.285 2.722 19.752-1.52 3.26-3.1 3.48-8.88 4.34-15.2z"></path> <path d="m381.87 435.43c-0.027 0.407-0.145 0.725-0.434 0.868-2.288-5.553-1.258-12.589-1.521-19.535-0.271-7.073-1.013-14.479 0-20.838-0.207-1.239-0.605-3.601 0-4.341 1.502 0.932 0.697 2.197 0.435 3.906-0.462 3.075-0.361 6.874-0.217 10.202 0.344 7.787-0.063 15.593 0.434 22.792 0.16 2.28 0.75 5.24 1.3 6.95z"></path> <path d="m379.05 244.41c1.086 1.601 2.226 3.943 1.736 6.295-1.156-3.482-4.404-6.006-4.991-9.334 1.4 0.21 2.49 1.92 3.25 3.04z"></path> <path d="m379.05 155.2c-0.243 1.493-0.425 3.048-1.519 3.69-0.49-0.61 0.08-3.59 1.52-3.69z"></path> <path d="m375.58 146.95c0.027 3.029 3.618 3.6 3.256 6.295-1.817-1.728-3.789-3.302-4.774-5.861 0.46-0.18 0.73-0.56 1.51-0.43z"></path> <path d="m375.8 78.793c3.88-3.111 5.823 3.953 1.953 4.125-1.85 0.081-2.66-1.918-1.95-4.125zm3.04 1.52c-0.66-0.208-0.679-1.058-1.52-1.085-0.506 0.706-0.597 2.18 0.651 2.388 0.27-0.453 0.59-0.85 0.87-1.303z"></path> <path d="m374.71 146.73h-1.303c-0.018-0.995-0.705-1.32-0.65-2.388 0.307 0.018 0.614 0.036 0.65-0.217 0.86 0.45 0.97 1.64 1.3 2.61z"></path> <path d="m367.77 137.62c2.314 1.239 5.436 2.804 5.209 5.861-2.207-1.773-3.428-4.531-6.729-5.209-0.09-1.176 0.471-1.7 0.652-2.604-0.416-1.818-3.355-2.062-2.822-4.125 2.03 1.11 4.61 3.38 3.69 6.08z"></path> <path d="m366.68 73.367c1.194-1.945 4.26-1.89 5.86-1.52-1.87 0.96-3.92 1.285-5.86 1.52z"></path> <path d="m365.16 79.662c1.084-1.193 2.631-3.88 4.557-2.821-1.29 1.175-2.56 2.36-4.56 2.821z"></path> <path d="m369.5 164.53c-1.674 1.23-4.351-2.125-3.257-3.69 1.36 0.96 1.37 3.27 3.26 3.69z"></path> <path d="m365.81 122.42c-1.764-0.769-2.36-4.585-3.473-6.729 3.04-0.48 2.2 4.74 3.47 6.73z"></path> <path d="m363.21 130.24c0.036 0.253-0.046 0.389-0.218 0.434-2.171 0-1.926-2.415-3.907-2.605-0.605-3.889-5.263-4.856-6.512-7.38 3.338 1.221 5.318 3.798 7.164 6.512 0.958 0.1 1.075-0.299 1.736 0 0 1.6 0.91 2.28 1.74 3.05z"></path> <path d="m361.69 222.92v0.651c-6.239 3.301-11.92 4.124-19.97 3.039 1.375-1.41 3.69-1.022 5.427-1.085 5.273-0.199 9.172-1.04 13.893-2.604 0.1-0.32 0.28 0.08 0.65 0z"></path> <path d="m358.86 152.38h-1.085c-0.615-1.293-0.552-1.927-0.868-3.474 1.18 0.63 1.51 2.1 1.95 3.47z"></path> <path d="m356.7 104.62c0.343 1.836 1.501 4.776 0.217 6.295-0.977-1.881-0.859-4.92-2.822-6.295-0.063-0.497 0.055-0.814 0.435-0.868-0.968-0.805-2.912-1.673-2.822-2.822 1.537 0.126 2.153 1.176 3.256 1.736-0.38 1.12 0.29 2.02 1.72 1.95z"></path> <path d="m356.7 203.82c-0.118 1.103-1.782 0.479-1.52-0.651 0.253 0.036 0.389-0.045 0.434-0.217 0.81-0.16 0.47 0.84 1.09 0.87z"></path> <path d="m355.83 113.96c0.027 3.292-4.559 5.87-6.729 3.039 0.959-1.04 2.243 0.027 3.256-0.218 1.65-0.4 1.75-2.55 3.47-2.82z"></path> <path d="m353.87 87.693c1.348 0.986 1.583 4.178 1.085 6.295-0.44-1.709-1.74-4.486-1.09-6.295z"></path> <path d="m351.92 138.7c1.61 0.199 2.126 2.65 1.954 3.907-0.92-0.08-2.51-2.34-1.95-3.91z"></path> <path d="m354.09 331.89c-2.062 0.841-3.563-2.858-2.821-4.125 1.44 0.88 0.75 3.89 2.82 4.13z"></path> <path d="m354.74 205.34c-1.212 1.249-3.419 1.501-5.86 1.52 1.32-1.14 4.19-0.73 5.86-1.52z"></path> <path d="m353 144.78c-0.263 0.389-1.257 0.045-0.868 1.085-1.772 0.163-4.73 0.66-5.861-0.434 1.04-1.51 4.106 0.262 5.21-0.434 0.325-0.217-0.714-1.746-0.217-2.171 1.55-0.32 0.67 1.8 1.74 1.95z"></path> <path d="m351.28 350.9c0.624-0.1 1.203-0.217 1.728-0.344-2.171 2.939-6.169 2.252-10.42 2.604-4.748 0.398-10.229 1.186-13.24-1.302-0.326-1.891-0.145-4.062 1.086-4.993-0.742-1.564-0.697-5.444 0.434-6.512 0.887 3.726-0.624 7.019-0.217 10.419 1.601 1.203 4.667 1.547 7.597 1.302 4.53-0.38 9.48-0.58 13.03-1.18z"></path> <path d="m351.48 139.79c0.036 0.253-0.046 0.389-0.217 0.434-1.691-0.497-1.059-2.098-2.171-3.039-0.813-0.687-2.217-0.479-3.907-1.085-0.932-0.335-1.609-1.149-2.388-1.303-2.396-0.461-5.101 0.479-6.513-0.868-0.307-0.416-0.569-0.877-0.65-1.52-1.356 0.154-2.876 0.452-4.559-0.217-0.94-0.371-1.312-1.338-2.17-1.519-3.69-0.769-5.698 4.884-9.769 3.039 0.1-0.697 1.113-0.48 1.085-1.303 4.261 1.04 4.677-4.404 9.334-2.822 1.076 0.371 1.438 1.61 2.605 1.954 1.528 0.452 2.306-0.389 4.123-0.434 0.742 1.067 1.267 2.351 2.606 2.822 2.351-1.004 3.481-0.045 6.294 1.085 3.09 1.23 6.05 1.13 6.3 4.77z"></path> <path d="m350.62 340.57c0.588 2.877 1.14 5.237 0.434 8.899-2.017-2.17-0.389-8.475-1.302-12.155 1.18 0.51 0.66 2.23 0.87 3.25z"></path> <path d="m341.5 107.88c4.296-2.37 9.812 3.699 6.511 5.861-1.519 0.995-2.469 0-3.689-0.651-0.724-0.38-1.528-0.244-1.953-0.651-1.05-1-1.29-2.92-0.87-4.56zm6.08 4.99c0.814-1.8-1.03-2.695-1.52-3.907-1.601 0.162-1.962-0.579-3.256-0.217 0.18 2.8 1.98 3.96 4.78 4.13z"></path> <path d="m348.01 101.8c0.036 0.688-0.578 0.724-0.434 1.52-0.796 0.145-1.158-0.145-1.52-0.434-0.03-0.98 1.05-1.72 1.95-1.09z"></path> <path d="m344.97 162.58c-0.615 3.609 1.51 8.312-0.435 11.07-1.311-1.312 0.046-3.862-0.217-6.078-0.21-1.79-1.84-4.46 0.65-4.99z"></path> <path d="m338.9 137.18c2.188 0.434 4.069 2.081 6.945 1.302-1.728 1.52-5.951 0.859-7.38-0.434-3.627 0.506-9.181-0.579-13.458-2.604-1.005 0.533-3.328-0.154-3.039-0.868 3.545-0.868 6.892 1.791 10.853 2.388 1.92 0.29 4.05-0.19 6.09 0.21z"></path> <path d="m343.67 152.6c1.483 1.51-0.19 4.929 1.085 6.729-2.16-0.26-1.73-5.09-1.09-6.73z"></path> <path d="m337.38 143.91c1.945 0.226 4.016 1.275 6.078 0.868-3.103 1.185-6.015 0.226-8.683-0.217 0.31-0.79 1.93-0.73 2.6-0.65z"></path> <path d="m341.94 58.824c0.624 0.95-0.208 2.026 0 3.256-0.634 0.199-0.67 0.199-1.302 0 0.569-0.732 0.425-2.179 0.65-3.256h0.65z"></path> <path d="m342.15 176.91c-0.66 1.022-1.284 1.646-1.519 2.605-0.416-0.091-0.544-0.47-1.086-0.434 0.34-1.27 1.11-2.09 2.61-2.18z"></path> <path d="m340.2 307.14c0.117 0.488 0.334-0.262 0.65 0.218-0.072 1.275-1.998 0.985-2.17 0 0.117-1.05 0.751-1.565 1.302-2.171 0.634-0.054 0.751 0.407 1.086 0.651-0.07 0.66-0.84 0.61-0.87 1.3z"></path> <path d="m339.33 58.173c0.063 0.353-0.208 0.371-0.218 0.651-1.193 0.253-1.131-0.75-1.52-1.302-2.433-0.66-4.802-2.044-7.597-2.605-4.387-0.877-9.425 0.389-13.023-1.736 1.781-0.244 3.581 0.045 5.86 0 2.441-0.054 6.747 0.733 9.116 1.52 3.55 1.174 6.47 0.922 7.38 3.472z"></path> <path d="m333.04 91.167c0.172-1.031 1.013-4.288 2.604-3.907-0.01 1.328-0.82 3.644-2.6 3.907z"></path> <path d="m333.25 105.06c3.789 4.938-5.652 7.172-8.683 3.69 0.226-1.203 1.366-0.253 1.953 0 0.742-1.619 2.487-5.3 4.776-3.256-0.933 0.95-2.597 1.167-2.822 2.822 0.706 1.709 4.16 0.615 4.341-0.868 0.1-0.887-0.805-1.475-0.216-2.171 0.31 0.02 0.62 0.04 0.65-0.21z"></path> <path d="m331.3 122.64v1.085c-0.679-0.045-1.592 0.145-1.954-0.217 0.02-0.9 0.99-0.88 1.95-0.86z"></path> <path d="m331.08 94.422c0.172 0.19 0.235 0.488 0.218 0.868-2.768 1.574-2.786 5.897-5.21 7.814-0.108 0.687 0.669 0.488 0.434 1.302-1.546 0.407-2.55 1.356-2.821 3.039-1.564-0.416-0.904 1.203-2.388 1.302-0.009-2.18 0.949-3.392 2.388-4.125 2.866-2.776 3.726-7.561 6.729-10.202 0.22 0.004 0.43 0.004 0.65 0.004z"></path> <path d="m327.19 66.611c-1.14-1.131-5.472-1.122-7.182-1.058-1.556 0.063-3.102 0.325-4.468 0.804-0.253 0.082-0.497 0.181-0.741 0.281-2.895 1.239-4.188 4.332-6.513 4.775 1.728-3.437 5.681-6.684 10.42-7.164 7.154-0.732 12.617 2.632 14.761 7.598-1.086 1.104-1.81 1.963-4.342 1.954 0.66-0.859 1.953-1.085 3.039-1.52-0.543-2.135-2.071-3.274-3.474-4.558-0.343 0.588-0.208 1.673-0.65 2.17 1.365 3.591-2.714 7.082-5.861 7.38-4.468 0.425-7.516-3.799-7.38-7.598 0.027-0.814-0.027-2.025 1.021-2.451 0.245-0.099 0.552-0.153 0.932-0.153 0.497 1.148-0.234 1.23-0.434 2.17 0.199 3.274 1.32 6.06 4.341 6.512 3.337 0.497 7.534-2.939 5.86-6.512-0.452-0.407 0.517-0.615 0.652-1.085 0.01-0.044-0.19-1.545 0.01-1.545zm0.07 0.045c0.054 0.063 0.099 0.126 0.135 0.199-0.06-0.1-0.11-0.171-0.14-0.199z"></path> <path d="m330.21 142.83v0.651c-2.722-1.303-6.439-0.389-7.813-2.822 2.65 1.08 5.02 1.16 7.81 2.17z"></path> <path d="m324.79 181.68c1.457-0.407 4.089 0.949 5.645 0.434-0.09 1.2-5.43 1.43-5.65-0.43z"></path> <path d="m322.8 66.855c1.933 0.145 1.841 2.42 1.643 4.201-1.4 1.872-5.091 1.21-5.297-1.096-0.114-1.355 1.446-3.296 2.923-2.558-0.746 0.761-2.01 1.424-1.462 2.74 0.19 0.457 0.906 0.944 1.462 0.914 1.82-0.091 1.35-2.663 0.74-4.201z"></path> <path d="m323.05 128.5c0.913 0.244 1.284 1.031 2.171 1.302-2.46 0.506-6.738 1.085-9.116 1.954 1.47-2.39 5.18-1.42 6.95-3.25z"></path> <path d="m323.05 143.7c0.036 0.606-0.533 0.624-1.085 0.651 0.2-0.38 0.41-0.75 1.09-0.65z"></path> <path d="m324.14 62.948c-0.887 1.058-3.211 0.29-4.559 0.651-0.461 0.1-0.416-0.307-0.435-0.651-2.334 0.914-4.721 0.642-6.729 1.52-1.772 0.769-2.867 2.532-4.775 2.822 2.55-4.559 10.59-5.681 16.5-4.342z"></path> <path d="m321.75 138.05c-0.19 0.1-0.39 0.19-0.435 0.434-1.664-1.881-3.636-2.478-6.077-3.256 1.8-1.07 6.29 0.21 6.51 2.83z"></path> <path d="m317.19 106.14c0.072 1.131-2.623 3.5-3.247 3.256 0.118-0.045 0.181-0.136 0.289-0.19-1.429 0.298-2.894 2.215-3.988 3.445 0.87-2.63 4.16-5.82 6.95-6.52z"></path> <path d="m319.14 148.47c-2.206 3.147-3.88 6.829-6.729 9.334-0.235 0.814 0.542 0.615 0.434 1.302-2.795-0.688-0.045-2.822 1.086-4.341 1.55-2.07 2.7-5.7 5.21-6.29z"></path> <path d="m313.28 168.88c0.958-0.371 2.216 0.624 2.17 1.954-1.41 0.04-1.61-1.14-2.17-1.95z"></path> <path d="m315.67 75.755c-2.56 0.805-6.684-1.682-6.729-4.125 2.28 1.339 3.7 3.537 6.73 4.125z"></path> <path d="m312.63 139.79c0.207 0.226 0.434 0.443 0.65 0.651-1.32 1.863-3.03 3.337-4.341 5.209 0.67-1.65 2-4.51 3.69-5.86z"></path> <path d="m301.34 139.35c1.095-2.451 1.827-5.68 4.775-6.078-2.451 3.536-4.042 6.657-5.861 10.636-1.67-1.35 0.46-3.17 1.08-4.56z"></path> <path d="m306.12 151.29c-1.058 2.342-5.183 1.619-5.644 4.558-0.796 0.145-0.832-0.47-1.52-0.434 0.8-2.96 5.01-2.52 7.16-4.13z"></path> <path d="m298.96 144.78c0.062 0.353-0.208 0.371-0.217 0.651-2.451 1.383-2.786 4.884-6.078 5.426 1.44-2.69 3.57-4.68 6.3-6.08z"></path> <path d="m293.31 148.69c-0.696 0.606-0.724 1.881-1.736 2.17 0.79-0.52 0.53-2.08 1.74-2.17z"></path> <path d="m289.84 166.7c1.746 0.66 2.08 3.826 2.388 5.209-2.35-0.19-1.59-3.47-2.39-5.21z"></path> <path d="m288.97 175.39c-1.095 0.859-0.498 3.41-1.303 4.559-0.352-1.719 0.389-3.989 0-5.427 0.93-0.21 0.63 0.81 1.3 0.87z"></path> <path d="m286.8 161.5c0.199 0.787 1.221-0.452 1.302 0.217-0.063 1.031-2.071 1.148-2.604 0.434 0.877-2.532 2.786-4.911 5.427-4.993-1.58 1.24-3.13 2.51-4.13 4.34z"></path> <path d="m203.67 309.31c0.759-2.568-0.073 1.746-0.217 3.039-0.85 7.615-1.248 16.325-4.124 23.442-1.148 2.85-1.782 5.844-2.822 8.466-1.094 2.768-3.184 5.535-4.775 8.248-3.329 5.662-6.946 10.085-10.853 15.194-1.764 2.298-3.772 4.866-6.512 6.295 0.199-1.537 1.7-2.487 2.604-3.473 2.976-3.229 5.807-7.037 8.465-10.854 3.428-4.91 7.164-10.065 9.769-16.062 0.787-1.8 1.203-3.88 1.954-5.86 0.669-1.773 1.601-3.663 2.17-5.427 2.37-7.33 2.04-15.25 4.34-23.02z"></path> <path d="m183.91 410.47c0.389 5.544-0.172 11.432-0.434 16.931-0.334 7.019-1.474 12.97-1.52 19.536-0.027 4.359-0.615 10.012-1.085 14.109-0.054 0.461-0.615 0.868-0.651 1.303-0.371 4.367-0.38 8.311-1.085 12.372-0.588 3.409-0.886 6.873-1.637 10.202-0.208-0.055-0.425-0.108-0.633-0.163-0.633-1.203 0.253-3.139 0.316-4.179 0.769-12.68 1.936-26.762 3.256-40.591 0.913-9.578 2.36-19.092 1.736-28.435-0.38-5.672-2.551-11.27-2.822-16.932-3.989-0.217-6.177-3.689-9.333-4.992-1.863-0.769-4.604-0.254-5.861-1.954 0-0.298 0.063-0.516 0.172-0.669 0.506-0.715 1.999-0.099 2.649 0.019 4.106 0.777 8.375 3.392 11.288 5.86 1.945-0.841 1.909-0.624 3.907 0 0.651 0.814-1.221 0.543-0.868 1.736 0.41 5.19 2.23 10.81 2.58 15.83z"></path> <path d="m177.5 484.92c-0.036 0.144-0.063 0.289-0.1 0.434-0.244-0.162-0.416-0.361-0.533-0.597 0.21 0.06 0.42 0.11 0.63 0.17z"></path> <path d="m174.14 273.28c0.19 0.172 0.488 0.235 0.869 0.217-3.048 7.371-6.467 14.372-10.419 20.838 2.28-6.43 7.06-13.48 9.55-21.06z"></path> <path d="m163.51 295.42c0.515 0.597-0.688 1.329-0.651 2.171-0.5-0.59 0.57-1.44 0.65-2.17z"></path> <path d="m144.19 147.82c0.669-0.018 0.651 0.651 0.651 1.302-3.202 0.706-5.047 2.768-7.597 4.125 1.68-2.44 3.91-4.34 6.95-5.42z"></path> <path d="m134.86 133.49c0.805-1.51 0.868-3.762 3.473-3.473-1.25 1.07-1.72 2.91-3.47 3.47z"></path> <path d="m128.78 102.89c1.61-0.732 2.306 4.269 1.754 5.797-0.108 0.037-0.217 0.082-0.325 0.126-0.878 0.09-0.371-1.203-0.995-1.365-3.202-3.066-2.939-10.546-4.125-16.714-0.479-2.515-0.949-5.002-1.302-7.38-0.353-2.397-0.443-4.857-0.868-6.729-0.914-4.07-2.487-8.52-3.473-13.241-1.004-4.829-1.411-10.021-2.17-14.977-0.796-5.183-1.646-9.913-2.605-14.543-1.456-7.027-2.098-15.991-6.512-20.404-2.514-2.515-5.599-3.618-9.551-1.737-0.922 0.362 0.344 0.579-0.217 1.302-1.609 0.126-2.062 1.411-3.039 2.171-0.651 8.14 1.845 16.289 2.821 24.745 1.194 10.365 3.926 20.992 2.416 32.514l-1.212-0.145c0.063-0.597 0.1-1.121 0.1-1.546 0-10.537-1.99-22.592-3.473-33.428-0.434-3.21-1.031-7.108-1.736-10.853-0.76-4.025-1.854-9.044-0.651-11.938 1.754-4.232 8.429-7.507 12.589-5.209 8.185 4.504 9.695 19.807 11.07 29.086 2.768 11.405 3.482 23.561 6.294 34.079-0.036 0.832 0.751 0.841 0.868 1.52 0.87 10.196 3.48 18.662 4.35 28.857z"></path> <path d="m132.25 118.3c-0.542 1.121-1.112 2.216-2.388 2.604-0.5-1.35 1.36-2.08 2.39-2.6z"></path> <path d="m113.58 111.35v0.434c-5.309 2.831-11.613 4.423-17.365 6.295 1.854-2.415 5.354-2.379 8.249-3.473 2.867-1.076 5.327-3.048 8.465-3.473 0.37-0.07 0.38 0.2 0.66 0.21z"></path> <path d="m112.72 193.19c-0.723 1.592-4.803 0.95-5.209-0.434 1.62-0.51 3.44 0.37 5.21 0.43z"></path> <path d="m101.43 56.219c1.457 0.57 3.22 1.248 5.209 0.652-0.18 2.694-6.21 2.025-5.21-0.652z"></path> <path d="m99.909 37.117c2.225 0.552 5.997 0.869 8.683-0.217-1.48 2.696-8.627 4.071-8.681 0.217z"></path> <path d="m100.56 72.716c-0.208 0.787 0.859 0.299 1.302 0.435-2.207 2.695-2.333 7.181-4.341 9.333-0.416-0.869-1.465 0.072-2.604-0.217-1.493-1.257-3.953-1.791-4.993-3.473-1.203-1.944-1.61-5.417-2.388-8.248-0.769-2.795-1.899-5.508-2.604-7.814-3.355-10.998-6.711-20.892-12.373-29.737-1.456-2.271-2.713-4.477-3.69-6.946-0.968-2.442-1.899-5.029-3.256-7.163-1.402-2.216-4.993-5.806-7.38-6.078-3.5-0.389-7.606 2.976-7.814 6.078-0.244 3.636 1.99 6.539 3.473 8.899 3.871 6.177 6.684 13.512 8.249 21.707 0.606 3.175 2.017 6.24 2.605 9.333 0.588 3.121 0 6.015 0.651 8.683 1.872 7.661 5.417 14.724 7.597 22.357-1.763-0.669-2.731-2.695-3.473-4.341-0.823-1.809-1.348-3.979-1.954-5.861-1.981-6.186-4.052-11.007-4.559-18.667-0.181-2.731-1.583-5.463-2.388-8.466-0.868-3.237-1.085-6.729-1.953-9.551-1.791-5.806-4.839-11.224-7.597-15.411-8.52-1.022-10.609 7.317-8.9 15.411 0.886 4.188 3.6 8.33 4.341 13.458 0.706 4.856 1.619 9.587 2.822 14.326 2.433 9.596 6.168 18.143 6.946 26.047 0.19 1.936-0.117 3.193-0.054 4.206l-1.004 0.108c-1.193-10.537-5.019-19.047-7.624-29.494-0.624-2.505-1.628-4.929-2.171-7.38-0.515-2.333-0.316-4.811-0.651-7.163-1.085-7.57-5.409-13.006-5.209-20.621 0.153-5.788 4.034-11.07 10.419-10.419-2.605-6.033-1.8-11.414 3.69-13.892 4.812-2.171 8.384-0.334 11.722 3.039 2.442 2.469 3.518 6.43 5.209 10.419 1.393 3.274 3.98 6.295 5.861 9.768 2.994 5.535 5.083 10.166 6.946 16.497 0.561 1.899 1.646 3.645 2.17 5.427 0.678 2.279 1.185 5.173 1.736 6.945 0.633 2.026 1.655 4.541 2.388 7.164 0.688 2.469 1.393 5.843 2.388 7.163 0.587 0.769 3.111 2.216 3.69 2.17 1.926-0.153 3.229-5.236 3.59-8.438l1.212 0.145c0.01 0.084-0.01 0.165-0.02 0.256z"></path> <path d="m93.18 144.56h0.651c-0.696 2.604-0.678 7.597-1.954 10.419 0.091-3.15 0.001-7.44 1.303-10.42z"></path> <path d="m85.366 191.45c0.253 0.036 0.181 0.398 0.217 0.651-1.845 0.543-3.663 2.659-5.861 3.256-1.637 0.443-4.25 0.515-5.86-0.435 0.813-1.719 3.039-0.688 4.558-0.869 2.586-0.3 4.902-1.51 6.946-2.6z"></path> <path d="m86.668 120.9c-1.04 1.149-3.907 1.556-4.993 1.954 1.114-1.98 3.248-1.16 4.993-1.95z"></path> <path d="m81.024 54.482c0.679 0.045 0.371 1.076 0.434 1.736-2.017 1.746-6.521 2.958-9.333 1.954 2.171-1.266 5.554-0.679 7.597-2.388 0.19-0.678 0.814-0.922 1.302-1.302z"></path> <path d="m71.908 127.85v0.651c-3.175 1.601-5.833 3.717-9.768 4.558 2.116-2.88 6.693-3.29 9.768-5.21z"></path> <path d="m69.086 32.776c0.66-0.009 0.208 1.094 0.868 1.085-1.212 1.338-3.048 3.156-4.993 3.039 1.312-1.437 3.067-2.432 4.125-4.124z"></path> <path d="m64.311 190.58c0.561 1.52 1.809 2.731 1.954 4.341-2.216-0.968-2.822-3.545-3.907-5.644l-1.041-0.389c0.118-0.307 0.244-0.615 0.389-0.913-5.02-11.08-8.954-24.89-12.807-38.638-1.194-4.26-3.274-8.284-4.559-12.589-2.794-9.406-5.02-17.618-8.248-26.265-1.42-3.798-3.545-7.832-5.209-12.156-1.429-3.726-4.549-9.741-3.907-13.675 0.344-2.08 0.696-4.079 0.868-6.295 0.434-5.562 1.284-13.503 9.333-12.372 6.159 0.868 6.874 14.661 8.466 19.969 0.977 3.256 2.532 6.639 3.907 9.551 1.419 3.003 2.804 6.413 5.86 7.598-0.054-0.669-0.117-1.33-0.19-1.981l1.004-0.108c0.045 0.687 0.253 1.266 0.923 1.872 0.171 1.04-0.95 0.787-0.651 1.954-2.125-0.118-4.097-1.249-5.209-2.388-3.998-4.097-7.841-16.37-9.333-22.792-1.058-4.558-1.312-9.903-4.342-11.287-3.491-1.601-6.683 1.23-7.597 4.558-0.388 1.402-0.189 3.872-0.434 6.078-0.253 2.352-0.859 4.631-0.868 6.078-0.027 4.504 3.374 10.907 5.21 15.412 3.455 8.484 6.584 17.13 9.116 26.482 0.434 1.601 1.167 3.31 1.737 4.992 1.691 4.938 3.744 9.75 5.427 14.543 2.215 6.304 3.156 13.222 5.209 19.535 1.827 5.608 3.907 11.007 6.078 16.28 1.148 2.81 1.853 5.63 2.821 8.26z"></path> <path d="m53.458 71.414c0.326-1.402 2.008-1.366 3.474-1.085-0.354 0.976-2.434 2.197-3.474 1.085z"></path> <path d="m55.194 55.134c0.19 1.529-4.513 2.532-5.643 0.868-0.244-1.112 0.931-0.805 1.302-1.302 0.94 1.049 3.428 0.732 4.341 0.434z"></path> <path d="m39.783 100.07c0.217-1.52 2.07-1.402 3.473-1.737-0.543 1.208-1.999 2.107-3.473 1.737z"></path> <path d="m35.225 87.91c2.143 0.488 3.536 0.877 5.209 0.434-0.579 1.962-4.242 2.225-5.427 0.651-0.09-0.524 0.398-0.47 0.218-1.085z"></path> </g> <metadata></metadata></svg> 