<?xml version="1.0" encoding="UTF-8" standalone="no"?> <!-- Created with Inkscape (http://www.inkscape.org/) --> <svg xmlns:inkscape="http://www.inkscape.org/namespaces/inkscape" xmlns:rdf="http://www.w3.org/1999/02/22-rdf-syntax-ns#" xmlns="http://www.w3.org/2000/svg" xmlns:cc="http://web.resource.org/cc/" xmlns:dc="http://purl.org/dc/elements/1.1/" xmlns:sodipodi="http://sodipodi.sourceforge.net/DTD/sodipodi-0.dtd" xmlns:svg="http://www.w3.org/2000/svg" xmlns:ns1="http://sozi.baierouge.fr" xmlns:xlink="http://www.w3.org/1999/xlink" id="svg2" sodipodi:docname="alice_35.svg" viewBox="0 0 372.2 449.91" sodipodi:version="0.32" inkscape:output_extension="org.inkscape.output.svg.inkscape" inkscape:version="0.45.1" sodipodi:docbase="C:\Downloads\Open Clipart\nayrhcrel"><g id="layer1" inkscape:label="Layer 1" inkscape:groupmode="layer" transform="translate(1369.5 4577)"><path id="path2882" style="fill:#000000" d="m-1292.6-4129.2c12.7-14.2-26.3 6.2-12.9-9.1 16.3-5.5-7.8 6 6.6 2.6 5.6-6.3 8.7 3 16.4-2.9-11.8 8.5 1 6.3 1.9 2.4 5.8 3.3 23.7 2.9 5.3 2.9-20.8 8.3 28.8-0.9 5.4 5-6.5 1.3-23.5-2.9-22.7-0.9zm33.1-1.2c2.5-1.9 11.2 3 0 0zm86-0.1c-13.5-1.3-14.5-4.3-0.9-1.5 6.6 0.3 8.6 4.2 0.9 1.5zm10 0.1c8.4-3.4-1.4 4 0 0zm-85.7-0.7c10.7-0.5 2.9 1 0 0zm136-1.3c-5.4-4.7-26.1 5.1-9-2.1 6-6.2 17.1 5.2 9 2.1zm12 1.3c-6.3-12.8-23.5-1.6-30.5-14.2 10.9 6.6-22.2 5-7.6 10 25.7-5.2-3.3 5.4-13.9 0.6 2.6 3.7 12.9 2.9-0.2 3.1-7.6-0.3-3.7-8.3-10.6-1.1-13.3 0.5-2.2-1.7 4.7-8.9-14.3-7.3 6.2-0.9 4.5 4.3 11.3 2.7 28.9-16.3 9.7-6.8 0.3 2-14.1-4.3-25.6-4 10.3-2.6-17.1-0.9-9.6-6.1-27.4-0.8 20.9-1 9.8-5.7-9-0.6 29-2.1 27.5-6.3 10.4-1.2 19.3-4 24.2-0.6-4.1-0.3-16.8-0.5-7.8 3.3-14.6-2.6-27.9 3.6-41.6 6 11.2 0.5 23.5-0.9 21.2-0.2 1.8 3.2 7.1 1 9.5-2.6-19.2 0 16.2-1.8 22.1-3.7-6 3.8-15 8.2-2.1 12.7 8.1-9.6-3.6 11.8 7 10.7 10.4 0.9 34.9 0.2 12.2-9.3-13.7-0.5-15.8-9.2-15.4-15.6 18.1-12-9.6 15.4 12.2 13 6.1 7.6 28.2 2.7 17.6-7.7-3.5-6.7-31.1-8.5-10.7-7.1 12.4 1.3 16.1 20.2 25.1 3.2 9.9-13.1 0.8 12.3 11.7 13.7 11.9-0.4 16.6 9.4 2.3 1-10.9-1.5-15.5 13 1.1 11.7 11.8-10.1 2.5 6.5-6.4 2-14.1 2.9-28.4-4.9-40 1.2-1.1 1.3 5.7 5.8-0.4 3.4zm-44.3-5.3c-2.2-4-4.4 4.1 0 0zm49-1.6c-5.4-6.6-11.3 7.8 0 0zm27.5 0.1c-2.9-2.4-9.7-13.1-16.1-3.2 2.5 5.5 10.9 2.3 16.1 3.2zm-47.8-10.8c-1.3-2.5 0.5 14.1 0 0zm46.8 3.3c-3.4-1.6 0-14.8-4.6-8 3.5 2.6-2.5 10.8 4.6 8zm-54-2.6c1.6-16.8-30.2-6.7-8.1 0.1 2.8 1.5 6.2 4.3 8.1-0.1zm4.9 0c-3.3-3.9 1 5 0 0zm-31.9-1.7c-8.7-6.1-17.1 4-1.6 1l1.6-1zm-22.6-4.2c-10.6-0.7-0.1 4.3 0 0zm6.6-1.4c-0.7-5.8-10.1 8.9 0 0zm17 2.9c-8.7-4.7-6.5 4.2 0 0zm84.7-1.4c-0.6-14.3-5.3 3.3 0 0zm-93-0.3c-5.8-0.6 1.9 1.8 0 0zm-0.3-1.6c16.3-3.9-17 1.3 0 0zm90.5-1.2c-4.7-5.4 1.1 5.2 0 0zm-29 25.8c9-7 12-1.3 0 0zm41.6 0.3c3.3-3.5 4.5 1.9 0 0zm-258-1.3c4.7-9.5-15.5 6.1-2.9-5 8.7-2.4 10.9-0.1 2.9 5zm-22-1c4.3-7.3 10.2-16.9 8.2-7.8 12-4.7-3.5 17.4-1.8-0.5-2.1 1.3-4.3 9.5-6.4 8.3zm9-5.3c-2.6-3.6-2.5 3.6 0 0zm126.7 4.5c-20.2-5-44.6 7.7-61.1-10.7-15.4-2.8-37-6.2-55.2-7.6-17-7.8-42.7-9.5-52-26.6 2.4-1 26-8.2 7.5-10.6-23.8 2.9 15.9 0.7 13.6-13.7 16.4-16.8-6.9-35.8-9.4-53.9-11-27.5-13.4-58.4-8.7-87.5 8.8-17.7 5.7-36.9 6.6-55.7-1-16.7 23.3-36.5 23.3-9.4 4.9-4.4 26.5-24.1 9.7-35.7-12.4 14.2-45-3.7-37.3-18.4 8.3-2.5 36.8 0.9 12.3 0.3-18.3-5-12.6 9.7-3.1 16.9 0.5-17.6 1.9 12.5 5.7-2.4-0.4 7.7 6.2-4.1 4.4-7 5.6 9.8 7.5-0.1 9.5-1.7 1.6-4.5-8.4-2.7 3.3-3.9-10.7-11.7 14.3-3.7 4.6-19.8 14.8-6.3 32.1-2.6 47.5-3.7 8.8 14.5 27.5 19.3 39.3 26.5 2.2 12.4-6.6 22.2-9.5 31.5-13 0.3-9.3 7.4-9.1 16.1-6.9-0.8 2.2-17.6-10.8-9.1-18.4-0.9-3.2 5.6 2.8 14 9.4 5.7 18.6 19.1 20.8-0.1 15.6-12.7 24.7 18.6 28 20 3.3 12.2 12 33.1 12.2 39.4-5.8-17.4-2.9 8.1-3.5 12.8 3.9 6.8 2.1-13.1 7.8-1.5 8.7 2.9 0.7-1.8 3.1-3.2 14.4 13.3-8.4-13.2 6 1.9 5.4 7.3 5.1-4.7-3.1-6.6-0.4-4.5 15.9 7.4 2.4-2.4 11.3-1.5 8.1 21.7-5.6 14-17.4 1.4-7.2 9.7-5.1 11.4 2-0.8 13.7 5.3 10.6 0.6 4.8-0.9 19.5 3.9 20.4-8.1 7.5 1 9.5-6.8 10.3-0.1 7.1-10.9-20.3-1.6-8.5-15.4-0.7-18 15.8-44.6-2.5-56.9-8.4-5.5 16.1-9.8 3.5-4.7-2.9 3.4 10.3 0.7 4.6 4.9-2.9 2.3 15.4 6.5 12.1 11.6 4 4.4 4.1 21.3 9.6 24.2 1.9 5 1.6 18.5 2.6 4.3 3.8 9.3 8.3 30.5-5.8 30.3-6.1 3.6-5.8-7.4-9.4-1.3 2.3 5.3-13.6 4.2-8.9 8.9-16 6.3-6.3 9.4-2.3 8.5 4.5 0.8 22.4-2.1 33 4.8-6-2.2-0.6-14.3 7.2-14.6 17.9 10.1-23 5.5-2.3 14.5-0.3 14.1 1.9-0.6 2 4.2 0.7 10.9 3.6 5 4.8 0.4 0.2 6.8-0.4 8.9 4.6 12.4 0.1-10.1-1-6.8 5.8-5.8-0.8 4.9 5 6.4 8.1 6.4-11 4.5 6.4 5.2 6.1 11.5 5.2-1.8-0.7 2.7 4.2 3.8 6-1.9 4.4 6.3 12.4 3.5-4.5 3.6-7.9 8.9 1.8 3.3-11.9 7.7 1.5 3.7-10.2 12.3-13 8.4 7.5 24.1 0 5.5 3.7-10.6 2.4 16.3 4.5 6.2-1.2-3.7 14.1 2.3 3.1-7.3-3.9-13.1 10.4 12.9 5.4-2.7 13.9 11.4-4.4-17.9 9 0.6 9.5-2-6.2-21.6-16.1-26.6-5.1-5.8-18.2-25.5-17.3-26.3 5 8.5 12 15.8 5.9 1.7-7.3-9.2-19.5-31.6-33.2-19.9-5.1 6.3-29.5 6.3-29.9 4.4 21.7 7.3 19.7-17.8 33.8-27.1-5.9-12.3-20.2-9.8-22-27.8-4.2-10.2 3.8-1.4-2.3-11.8-4-12.3-7.4-14.8 0.7-7.1-3.1-18.6-33.9-23.1-41-9.4-1.2 8.2-6.2 12.8 1.9 19.2-8 3.5-5.9 23.3 5.3 23.3 12.1-0.8 9.4 0.2 0.9 5.6 7.1 3.9 16.3-1.3 4.9 4.8 7.4 8.6-12.8-4.6-4 10.7 1.2-1.1-14-7.3-13.3-13.9-6.3 11.5-14.5-5.8-16-15.3 17.4-9 7.7-41.9 30.8-44.1 8.4 2.9 28.6 0.7 21.5-3.1-20.3 0.2-5.9-12.4-5-15.1-15.3-5.2-11.8-15.3 3.2-14.7 13.2-1.9 7.9-5.2-0.5-2.9-2.7-5.2-9.8-9.1 4.1-7.1-17.7 2.6 11.4 3.9-3.3-6.4-8.6-5.9-11.4-22.2-22.7-23.9-25.9-0.9-52-1.1-77.8-1.4-11.4-1.8-25.6 0.2-37.3-0.5-20.7-0.8-41.5 0.7-62.2-1.2 20.4-1.8 41-1.6 61.5-2.8 37.5-0.2 75-1.2 112.4 0 9.6 3.9-6.1-5.2 8.9-1.8 10.7 2.6-7.6-14.5 3.7-9.3-6.3-4.4-18-20.9-2.8-9.3-7.6-9.5-25.8-28.2-20.7-35.8 8.7 6.6 9.2 22.5 12.8 20 2.8 11.6 1.2-9.1 4.2 5 4.8 1.5-11.8-19.6-14-27.4-7.2-7.7-8.6-39.6 0.6-13.8 1.4 5.6 20.7 24.4 4.3 9.8-3.4-8.6-5.5-3.4-0.2 4.2 1.4-2.9 0.5 7.5 4.2 1.1 0.5 9.9 7.7 9.4 4.6 2 8.9 6 11.9 17.2 4.5 5.3-4.4 1.6-3.5 7.3 2.3 11.6 6.2-2 5.9 6.7-0.4 1.6-2.3 9.2 7.9 9.7 1.6 0.9 6.9 8.4 2.2 16.7 6.6 17.3 1 0.1 5.9-3.5 1.9-7.7-1.8 8.1-6.4-13.3 2.9-1.3 6 4.3 3 5.8 5.8 14-2.6-7.6-7.3-11.5-4.5-2 8.8 9.1 4.4 4.8 7.7 5.7 4.9 4.4-3.6 11.1 4.5 5-3.3-6.9-1.7-14.4-4.1-7.8-5.8-11.7 13.4 1.1 3.2 1.2 4.9 4.7 0.3 13.6 9.8 12.3 11.4 2.5 9.4 7.1 0.5 2.6-2.5 4.7 14.4 3.4 5 13.5 5-2 0.7 5.9 7.5 4.9-5.4 2.5-0.5 3.2-1.4 9 5.9-0.4-0.4 14.9-6.4 17.5-8.9 7.1 10-4.7 6.4 1.4-3.6 1 0.1 12.8 6.6 10.8 4 0.3-3.3 8.8 0.3 9.2-9.9-2.1 5.1 5.5 1.7 6.6 6.6 15.8 3.7-26.4 7.3-17.3 2.6-1.2 4.9-15.8 3.2-1.7-11.5 13.3-1.6 41.5 13 18.6 5.9-14.2-2.5-21.6-5.1-20.2 0.9-6.4-7.2-8.6-6.5-9.4-9-7.4 9.9-12.9-4.8-10.4-10.9 25-14.2-25.9 5.5-23.8 7-3.2-2.4-15.2 4.4-22.8-1.5-10.3 3.4-19.5 1.2-4.6 1.9 5.2 1.4 10.5 1.8 13.1 7.9-0.9 5.9 13 3.3 1.6-2.9-0.6-5.6 3.2 0.1 3.5-9.8 11.1 19.5 10.4 8.1-1.4-3.5-9.9-4.1-18.5 0.6-4.7 3.5-12.3 3.3-28.4 2.4-46.9 0-8.5-12.1-38.6 1.8-18.8 2.8 13.7 15.2 33.3 12.5 42.9-3.3-21.3-2.1-5.8-5.2-0.8 4.4-2-10-29.7-2.1-16.8 1.3-3.9-5.5-30-9.8-28.7 6.9 14.6 5.3 25.7 8 40.3-2.9 10.9-2.9 28-1.3 33.4-1.5 5.1 4.5 3.9 0.3 8.1 5.5-1-1.8 4 8.9 6.6 7.7-11.2 16.9-30.9 21.4-47 2.2 16.1 10 38.4-1.6 53.6-14.2 11.5 3.3 30.9 3.9 46.5 4.1 10 11.4 26.7 12 7.3 1.2-12.8-8.7 11.7-3.3-3.2 6.2-12.8-2.9-14.1-4.4-7.7 3.8-8.8 0.3-21.2-1-18.8-0.5-9.4-0.9-21.5 2.8-4.7-1.9 9.6 9 30.2 5.4 8.6-1.6-4.2-4.6 4.3-0.9-5.6 9.2 18.3-4 40.3 4.3 59.5-3.9 19.8 12 25.4 23.7 38.1 5 5.1 11.82 9.5 8.91 17.7 0.49 7.9-4.71 15.7-3.71 3.5-9.4-0.4-20-35.5-14.5-9.6-4.6 7.6 3 8.1-1.5 15.7-6.4 8.3-9.9 2.2-2.6-3.2-6.7-6.9-3.9-23.8-9-17.2 0-18.3-5.4 16.8 1.9 3.4-1.9 3.5 0.4 7-0.9 9.8-2.6-6-5.6 31.1-9.8 11.4-2-13.2-7.2 15.9-0.7 0.9-2.2 2.6 6.5 28.8-1.6 17.1 3.1 12.8 22.7-20.9 31.6-5.1-8-4-21.4 1.9-12.6 2.2-3.2 4.2-5.8 3.4-7.1 6.4 13.7 3.8-10.1-0.9 0.8 6.8 7 4.8-9.1 1.8-0.4 6 4 6.2-3.8 6-11.2 4.3 8.2 2.8 14.9 10 25.1 12.7-14-8.9-30.7-6-42.8-16.4-10.1-2.7-13.9-24.4-10.1-7.8-6.6-3.1-4-3.4-8.1-3.1-0.2-4.8-12.1-0.7-1.1 7.5 5.9 12.9 25.3 35.1 3.2 42.9-11.5 8.3-32 3.9-37 20.5 2.8 16.6 33.2 1.5 28.3 23.2-6.5 2.3-24.4 8.5-37.5 1.6-10.2-2.5-25.3-8.2-24.5-6.7-16.1 1.6 11-2.6-3-2.7-9.5 0-18.7 0.9-4-1.7 3.8-3.5-27.9 3.4-8.5-1.4-7.1-2.4 8.7 0.6 1.8-4.4 3.8-2.3-10-2.3-6.1-0.3-14.6-7.7-19.5 10-19.9 22.2 9.9 3.6 27.1 17.7 4.9 13.1-12.1-0.3-37.4-22.4-30.4 2.1-13.2 6.8-23.9-23.2-42.3-18.7-9.5-2.7-9.5-2.1-3-5.3-6.6 0.8-12.3-4.1-25.3-2.8 9.9-4.6-13.5-3.1-4.8-3.8 1.9-6.6-9.4 0.9-1.9 9.7-1.8 8.3 11.9 32.7 6.4 27.4-0.3-8.1-27.1-7-12.3 1.8-12.4-6.4 18.8 20.1 8.4-0.3-3.2-11.9 15.1 11.7 2.6 8.1-15.3 4.7-19.7-19.6-23.2-28.3-6.4-3.5 3.7-33-9-17.3 3 3-12.4 16.6-13.4 20.2 0.2 1.8-14.8 7.5-1.9-2.2 7.9-5.5 13.1-10.6 8.5-17.2-5.4 9.6-8 8.7-11.2 15.1-5.6 3.6-10.3 7-11 16.9-2.5 8.4 12.9 19 18.1 18.3 15.1 7.2 35.4 5.5 52.9 6.9 12.6-1 25.2 11.1 21 4.2 10.6 14.9 26.5 6.9 37.4 3.3-2-1.5-30.3 4-8.4-2.2 18.7-1.3-21.1-5.6-15.7-1.2-3.4 2.8-21.2-11.3-32.9-7.2-4.3-0.9 23.6-3.1 28.7 3.9 14.1-2.2 26.8 1.8 36.4 9.8 17.3 2.2 2.1-0.2-5 2.9 4.1-0.9 22.9 6.5 9.8 3.2zm-152.2-40.5c-3.1-3.1-0.3 3.4 0 0zm6.3-2.6c-1.7-9.8-7.6-10.9-1.3-0.9-9.5-12.7-3.4 9.1-4.5-1.3 2 0.3 7 9 5.8 2.2zm59.9-3.4c7.2 3-6.6-26.4-4.4-38.2 5.2 0.1 9 0.1 2.7-1.8-4.5-2.9-16.9 7.7-14.4 10.2-2.5-10.3 0.9 21.4 6.9 25.3-13.7-2.8 9.7 11.8 9.2 4.5zm-58.7-1.6c-1.8-8.8-5.4 1.4 0 0zm173.7-0.1c-8.5-0.9 1.5 1.6 0 0zm-173.8-5.5c1.3-1.8 9.6-8.1 2.4-9.1-3.8 1.4-3.3 16.7-2.4 9.1zm0.7-3.5c-0.7-4 2.9 4.2 0 0zm166.4 5.3c10.9-7.4-28.2-7.8-9-0.7 3 0.1 6.1 4.2 9 0.7zm-33-5.2c-4.7-18.7-19.8 11.7 0 5.1v-5.1zm26.5-8.2c10.6-12.7-2.2-21.8-7.1-12.2-1.1 8.2-4 30.6 7.1 12.2zm-118.5 4.7c-2.3-5-1.9 6.4 0 0zm108.5-2.2c-1-4.6 2.3-33.7-4.9-19.3-8.2 10.5-15.6 23.1 3.6 23.5l1.3-4.2zm-141.7-0.3c-3.4-11.6-0.5 9-3.6-5.8 1.3-5.6-8.7 8.1 3 7.4l0.6-1.6zm112.2-3.8c-9.5-3.7-3.4-7.4-15.9-2.5 3.5 1.2 21.9 13.3 15.9 2.5zm-110 1.4c2.8-6.2-3.9-11.2-2.8-7.2-1.3-0.9 3.2 14.3 2.8 7.2zm124-0.5c5.9-13.8 11.6-19.5 1.7-21.2-7 1.1-5.2 7.8-7.8 15.1-7.3 6.6-0.1 9.5 6.1 6.1zm101.4-3.5c-0.2 3.1 10.3 5.8 13.2 2.3 2.8-8.9-19.5-0.8-2.9-6.2 6.8 9.4 13.7 4.2 6.1-4.5-2.2-4.9 14.7 16.2 6-0.1-7.2-6.4-20.2 4.8-22.5 3.2 5.5-0.6-2.9-19-5.5-15-3.2 14.8-6.4-7.4 3.8-3.9-13.2 2.4 5.8-20.6-8.9-15.5-14.9 7.1-7.4 15.6-2.7 27.1 0.8 10.1 7.5 9.5 8.5 9.2-10 4.6 4.5 11.6 4.9 3.4zm-15.2-24.8c0.2-11.1 8.7-13.8 2.2-1.5 2.4 5.4-3.4 4.1-2.2 1.5zm-206.3 22.5c-2.8-5.2-1.7 12.3 0 0zm111 1.5c11.7-12.7-7.9-21.2-5.4-14.1-5.5-0.1-20.8 2.8-5.3 3.9 12.6 0.6-21.5 3.9-1.4 2.7 13.5-0.8 10.6 8.9 8.8 10.1 1.7 0.7 2.9-1.3 3.3-2.6zm-23 0.1c-7.7-1.2-9.7 3.5 0 0zm-20.7-2c-5.8-0.6 1.9 1.8 0 0zm28.8 0.3c-7.1-4.1-2.1 2 0 0zm-38.2-1.2c7.8-6.7-13.1 2.6 0 0zm46.2-0.5c-2-2.2-2.2 3.3 0 0zm2.5 0.1c-3.1-3.1-0.3 3.4 0 0zm-97.5-2.5c-3.4-3.4-3.6 3.3 0 0zm76.5 0.5c-0.1-3.8-6.6 4.2 0 0zm119.7-1.2c-7.6-14.7-10.9-28.5 7-36.8 9.9-7.9 1.1-16.6-3.9-10.5-13.6-8.4-27.8-19.4-33.9-33.2-14.5-13-2.6 1.3-5.2 3.9 7 7.1 14.8 12.1 12.9 22.7 15.4-7.6-7.5 8.1 6.7 3.5 10.3-3.7-11.7-22.4 3.4-6.6 8.5 6.5-16 12.8 0.2 13.1 7.9-1.5-0.1-15 6.3-2.8-10.1 16.7-12.3-5-21.5-7.3-1.1 10.4 8.4 3.3-1.1 12.2 3.8 3.5 6.7-3.5 4 4.5 1.8 2.2 3.9 2.5 11.9 0.4-11.2 2.3-9.6 10.2-8.4 10.5-19.7 5.4 15.4-1.1 4.9 3.5 9.2 0.1-17.2 6.1 0.3 2.9 10.3 0.8-1.5 1.1-2.1 3.6-19-0.8-1.6 1.7 7.3 2-10.5-0.8-9.1 5.6-2 5.2-6.4 3.7 5.7 3.5 5.3 9.1 0.6-0.6 11.4 3.9 7.9 0.1zm-20.4-29.5c7.1-1.1-0.7 1.8 0 0zm8-1c10.4-0.9 4.2 1.4 0 0zm-7-2c7.1-1.1-0.7 1.8 0 0zm7.9-1c14.1-0.5-2.5 1.3 0 0zm9.6 0.1c4.9-1.7 0.7 2 0 0zm-6.9-4.7c15.1-0.6 9.4 2.8 0 0zm-13.1-4.1c2.7-3.8 2.2 4.4 0 0zm-131.3 41.8c-3.4-2.3-4.4 3.8 0 0zm54.3 0.9c-7.2-1.1 0.6 1.8 0 0zm79.9 0c-5.8-0.6 1.9 1.8 0 0zm-168.4-4.1c-5.3-9.3 14.9 4.3 19.1-9.5 9.7-15.3-7.3 7.1-1.4-5.8-3-9.2-13.5 1.5-5.9 2.8-6.3 10.8-3.9 6.9-4.5-1.7 0.3 8.6-5.9 12.1-10.2 7.7 5.5 7.6-8.3 13.3 2.9 6.5zm10.3-8.6c0.4-4.4 0.9 3.7 0 0zm3-1.1c2.3-17.2 1.7 6.8 0 0.7v-0.7zm58.4 11.5c0.4-6.8-7.4 4.8 0 0zm143.5-1.6c-5.8-2-3.3 3.3 0 0zm-186.2-0.1c-9.9-1.3 0.3 1.7 0 0zm33.4 0c-5.8-0.6 1.9 1.8 0 0zm5.3-0.3c-3.1-3.1-0.3 3.4 0 0zm6.7-0.7c-5.8-0.6 1.9 1.8 0 0zm-97.1-1.7c-6.7-6.8-0.4 3.8 0 0zm47.1 0.7c-5.8-0.6 1.9 1.8 0 0zm28.8-0.3c-2.6-3.6-2.5 3.6 0 0zm11.2 0.3c-5.8-0.6 1.9 1.8 0 0zm-70.6-3c-1.9 0.7 1.4 4.6 0 0zm38.7 2c-7.2-1.1 0.6 1.8 0 0zm92.9-2c-5.8-0.6 1.9 1.8 0 0zm16.4-0.8c1.3-3.7-11.9 5.2 0 0zm-150-0.3c4-10.2 17.4 6.8 8.9-5.7-1.5-2.8-15.5 8.4-8.9 5.7zm8.9-3.2c0.6-2.5 4.4 3.8 0 0zm27.7 2.3c-5.8-0.6 1.9 1.8 0 0zm119.5 0c-8.5-0.9 1.5 1.6 0 0zm7.5 0c-5.8-0.6 1.9 1.8 0 0zm-16.7-1.3c9.2-6.5-13.1 1.8 0 0zm-111.3-0.7c0.9-6.8-3.6 1.8 0 0zm4.8-0.4c14.5-4.9-9.2 1.9 0 0zm62.5 0.1c-6 2.3 13-11.1-0.7-8.8-10.5-0.7 12.4 2.6-2.3 2.5-23.3-1.3 8.2 8.5 3 6.3zm-3-5c0.2-3.6 3 3.2 0 0zm54.1 4.3c-3-4.8-10.5 1.1 0 0zm7.9-0.3c-2.8-3.2-6.1 3.8 0 0zm5.5 0c-7.8-3.6 3.1 3.3 0 0zm-165.5-2.1c7.7-4 16.3-0.6 4-7.9-9.7-7.5 1.4-1.6 6.1-1.8-17.9-13.5 15.4 12 7.6-5.8-1.7-0.4-9.8-17.4-13.4-15.6 8.9 17.5-6.8-3.4-5.2-5.5-0.5 8.3-6.3-8.6-1.1 6.4 2.4 9 13.3 16.5 3.8 4.7-4.6-16.6 7.5 15.8 16 14.2-4.7 4.6-24.4-20.4-17.1-4.6-4.8-5.5-13-21.1-7.4-7.5-6.9 1 9.6 14 10.7 19.6-4.1-3.2-8.1 11.1-4 3.8zm9.7-18.9c-5.2-9.5 8 9.2 0 0zm77 19.3c-5.8-0.6 1.9 1.8 0 0zm33.3-0.3c-3.1-3.1-0.3 3.4 0 0zm34.7 0.3c-5.8-0.6 1.9 1.8 0 0zm-6.7-1.2c-2.4-5.4-10.1 3.1 0 0zm-100.5-0.5c-4.9-4.3-2 2.2 0 0zm40.5-0.5c-4.3-0.4-12-3.6-2.9-4-16-4.9-9.6 3.2 1.4 4.7l1.5-0.7zm66 0c2.8-5.3-10.5 3.7 0 0zm-158-1.7c-8.8-4.9 3.9 6.1 0 0zm43.5 0c10.5-3.9 11.7-21.6 21.6-28.7-2-4.9 7.5-34-0.7-9.3-5.3 13.4-19.1 32.5-20.9 38zm127 0.6c0-4.3-9.4 3.8 0 0zm-7.5-1c3.5-5.5-13.1 0.3 0.3 0.9l-0.3-0.9zm-3.2-1.6c4.9-1.7 0.7 2 0 0zm53.9 1.9c-5.8-0.6 1.9 1.8 0 0zm-208.7-1.3c-11.5-8.8-11.1 1 0 0zm28 0c-3.1-3.1-0.3 3.4 0 0zm65.1-0.1c-9.8-7.6-8.2 4.2 0 0zm46.4 0c1.2-0.7 24-4.5 21.3-4.4-3.5 0.3 15.3-3.1 4.5-11.2-4-8.8-6.5-20.3-18.3-11.7-9.5 0.7 9.8 3.3-4.7 1.9-9.5-0.6-35.1-8-35.8 1 19 2-15.8 1.4 1.2 6.5 5.7 3.4-11.7-0.2-2.9 3.6-13-0.1 17 6.2 22.4 4.6 14.6 4.7-17.2-1.4-23-1-15.8 4.3 13.3 11.8 19.9 6 8.8 2.4-10.6-0.5 5.3 3.4 1.5 2.6 19.4 2.8 10.1 1.3zm5.1-1.2c3.9-6.1 6.7 2.7 0 0zm-6.1-6.3c9-2.2 13.5 2.2 0 0zm11.6-1.3c7.1-6.2 12.5 1.2 0 0zm-49.3-0.7c4.9-1.7 0.7 2 0 0zm60.7-1.9c10.9-4.9-5.5 4.8 0 0zm-27.5-2.6c-8.1-1.2-35.1-2.7-12.3-2.9 12.8 3.1 30.8 0.3 40-1.6-8.4 3.4-18.7 5.9-27.7 4.5zm10.1-4.8c1.1-5.2 11.8 4.2 0 0zm-5.1-3.1c4.6-3.6 0.1 3.4 0 0zm-17.5-1c-17.5-0.8 10.3-1.5 14.5 0.6-4.9 0.2-9.7-0.3-14.5-0.6zm27.1-0.4c30.4-8.4-8 5 0 0zm-40.3-2.3c7.1-1.1-0.7 1.8 0 0zm-95 24.4c-6.2-4.8-7.6 2.4 0 0zm156.7 0.3c0.2-4.8-8.6 5.1 0 0zm42.7-1.7c14.3-1.9 6.4-18.2 1.6-9.9-11-0.8-0.5 3.8-7.8 5.1-4.4 10.4-2.4 7 6.2 4.8zm-143.4 1c-9.9-1.3 0.3 1.7 0 0zm-91.5-2.1c-3.2-8.8-2.1 8 0 0zm53.7 0.3c1.9-4.3 2-10.5 2.8-8.8 3.2 6-7.5 15.5 3.8 5.8 2.3-2.9-3.5-4 0.4-11 3.1 16.1 7-6.9 4.2-8.1 13.6 5.4 21.2-23 9.1-27.6 14.7 15.7 22.4-19.3 13.7-23.2 4.7-5.3 5.8 4.9 9 4.3 6.2-10.2-4.5 1.6 0-11.4 2.9-6.9 1.5-19.5-1.2-19.9 13.4-4.2-1.5-27.5-2.3-26.3 15.1 0.4-3.5-26.5-5.8-25 5.1-11.6-18.4-17.1-16.8-16.8 4.5-10.8-29.4-23.9-13.8-9.2 15.2 7.4-12.9-1.7-8.3-9.1-11.4-6.7 2.9 8.6-8.1 3.4 8 11.4-3.6-2.5-8.7 3-13.4 4.9-1.7 2.9-2.9 4.2-10.1 0.3-16.7 6.7-7.4 8.7 10.2 11.8 21.5-3.6 34.5-0.6 4.6 3.5-32.1-0.9-21.7 15.6 9.4 16.2-0.7 21.6-5.2 23 14.5-3-18.8 9.4-2.9 19.8-2.9 15 6.5 24.5 21.5 28.5 5.9 5.8 21.4 14.2 10.6 10.1 13.2 17.3 28-0.7 26.1-16.6 0.7 6.4 1.9 20.4-3.4 19.2 2.7 9 7.5 13.8-1.2 3.5 2.8 10.5 2.9 2.6-2.7 2.2 0.4 18.5-3.9-2.5-15.5-4.1-14.6-16-43.3-16.2-38.4-43.8-7-9.9 12.8-32-1.1-20.7 10.9-6.4 10.3-20 1.1-11.7 8.7-6.8 5.9-8.4-0.9-2.6 13.1-5.3 10.4-16.6-3.6-21.1-8.3 3.9 15.7 3 0.2 10.6-7.8 7.1 10.6 0.6-4.4 5.9-3.1 5.5-21.2 8.9-4.3 7.8 14.3-15.8 9.8 21.7-4.3 9.6-10.2 1.5-10.9 2.4-4 3.9-13.6 9.8 32.5 7.4 6.7 7.5-19.6-4.8-7.8 10-4 6.3-13.5 1.7-4.7 5.9-9.3 6.7-5.3 7.6 19.9-2.8 3.8 8.1-4.1 9.5-4.5 15.1 5.7 4.1 3.3-10.8 0.7 7.8-3.6 15.7 8.5-10.9-2.7 14.6 6.6 0.9-2.8 5.1-6.8 19.7 0.4 6.7-2.7 9.4 4.7 4.3 7.1 0.5-5.4 17.1 21.2-28.7 8-4.5-8.9 4.3-11.5 39-4.3 19.3 2 5.3 10 3.1 3.1 10.6 5.6 6.5 6 0.6 1.1 7.8 2 7.3 10.4 21.3 17.3 28.7 4.9 0.9 14.2-10.2 1.3-2.7-0.8-4 1.6-5.7-3.3-4.3 7.2-8.7 8.5-12.3 4.7-2.7 3.3 0.4-2.2 7.9 4 0.9-3.5 9.7 15.8-20.7 3.7-1.3-3.1 9.3 12.5-15.8 4.1-0.3-9.5 13.2 8-5.6-1.4 6.4-7.8 2.5-11.6 20.9-3.8 6.7 15.2-10-10.9 15.1 4 7.4zm4.2-12.5c0.7-5.8 0.7 5.8 0 0zm-18.2-10c6.6-9.3-2.7 7.3 0 0zm6 1c3-2.2 4.5 3.5 0 0zm-9-0.9c2.9-5.8 2.2 2.7 0 0zm-4.9-2.3c5-10.5 2.9 0 4.9-1 0.4 2-8.8 4.4-4.9 1zm38.4 1.2c-2.8-14.7 4.2-3.6 0 0zm-4.5-2.9c1.9-10.7 2.4 7.8 0 0zm-2.8 0.4c7.6-17.6 3.8-4.9 0 0zm-19.6-1.8c3.7-5-1.3 4.6 0 0zm-15.5-2.7c0-3.8 8.3-0.7 0 0zm4.6-0.9c5.6-8.9-0.7 6.4 0 0zm20.6-2.2c-2.3-0.3-2.6-3.7-6.8 0.7 3.9-7.5 28-9.8 8.9 0.5l-2 0.9-0.1-2.1zm22.8-0.3c0.4-4.4 0.9 3.7 0 0zm-43.7-3c17.8-10.4-13.2 10.4 0 0zm41.8 1.4c0.7-5.8 0.7 5.8 0 0zm-4.6-4.3c3.7-5-1.3 4.6 0 0zm-37.1-1.2c11.3-7.9-2.3 3.3 0 0zm23.2-1.8c-2-4.1-1-2.2-6.5-3.7 8.4-3.3 17.6-7.8 20.7-0.7-2.4 6.4-9.9 2.9-14.2 4.4zm-8.5-0.9c5.7-7.9 1.5 5.6 0 0zm-7.2-1.3c5.5-3.6-2.3 4.6 0 0zm5 0.1c6.8-7.9 1.5 1.1 0 0zm-20.9-2c16.2-8.7 3.1 1.5 0 0zm57.4-5.7c-1.3-5 3.2 3.8 0 0zm-65.4-1.3c0.4-4.4 0.9 3.7 0 0zm67.5-1.3c-0.7-4 2.9 4.2 0 0zm-5.1-3.3c-4.2-10.6 6.5 10.7 0 0zm-61.8-2c0.5-6.4 3.7 6.4 0 0zm16.1-2.9c-8.2-11.3 15.3-4.7 5.3 0.6-0.8-3.3-2.1-8.7-6.7-3.4 1.5-6.1 9 12.3 1.4 2.8zm51.2-0.2c-3.1-8.5 4.8 7.4 0 0zm1.5-2c-1.3-5 3.2 3.8 0 0zm-18.5-0.9c-3.2-3.4 8 3.7 0 0zm-58-7.5c2.9-9.4 2.2 1.2 0 0zm4.1-2.5c-1.5-4.2-3.9-17.5-0.1-14.1 2.5 9.6 1.5-1.9 8.9 0.4-4.9 9.4-8.8 5.6-8.8 13.7zm77.9-4.5c-10.7-8.3 0.9-18.8-8.3-33-11.4-5.5-34.4-9.8-38.9-15.7 10.1 3 22.9 8.4 30.2 9 4 1 13.9 7.5 14.8-6.3-1.9 11.4 0.9 29.6 1.4 36.7-7-17 1.9 11.3 0.8 9.3zm-20-0.8c4-7.4 17.3-22.2 6.1-6.2-2 2.1-3.3 5.1-6.1 6.2zm-4.2-1.7c1.1-3.9-7.2 2.6 2.9-4.2 3.2-5.9-3.1-8.7 5.3-15.6 6.5-5.8-8.6 2.4 1.9-5.1-8.1 0.4 11.6-3.6-0.2 6.1 2.3-0.3 8.3-7.4 0.2 3.2-0.9 2.7 9.5-3.1 0.3 5.4-4.1 5.9-2.8 0.2-8.7 9.7-0.5-0.3-4 2.9-1.7 0.5zm8.3-11.2c2.9-7.1-8.8 11.2 0 0zm4.4-2.6c5.5-8.5-7.5 8.6 0 0zm-4.4-2c-4.2-8.7-1.5 9 0 0zm-70.1 14.3c2.9-9.4 2.2 1.2 0 0zm45.7-0.6c5.9-3.3-2.6 3.4 0 0zm12.3-0.3c6.8-7.9 1.5 1.1 0 0zm-3.7-3.7c8-3.5 5.1-7.1 1.3-5.7 29.3-15.2-17 19.1-1.3 5.7zm9.2-7.9c-0.5-2.5-4.4 3.8 0 0zm-20.5 8.5c8-5.9 9.4-2.7 0 0zm-41.3-1.9c3.6-12.9 7-3.2 0 0zm59.3 1c6.8-7.9 1.5 1.1 0 0zm-20.4-2.5c6.4-9.8 2.5 1.1 0 0zm11.1-1.2c5.9-3.3-2.6 3.4 0 0zm-40.6-1.3c0.4-4.4 0.9 3.7 0 0zm35.9-0.1c8.7-6.4 25.2-10.8 6.1-2.6-2 0.9-3.9 2.1-6.1 2.6zm-38.4-3c3.2-10.9-0.7 8.2 0 0zm38.6-0.1c7.1-5-4.4 4.8 0 0zm5.5-2.9c9-5.9 19.5-7.6 3.9-1-0.6 0.2-7.9 3.9-3.9 1zm-19.7 0.1c8.1-7.6 15.4-6.3 2.5-0.3l-2.5 0.3zm-34.2-1.3c7.1-1.1-0.7 1.8 0 0zm8.2 0.2c2.9-9.4 2.2 1.2 0 0zm26-2c8.6-6.9 8.8-4.9 12.7-8.8 10 3.9-10.4 7.5-12.7 8.8zm14.5-7.3c-3.2 0-2.9 3.8 0 0zm42.1 6.5c3.7-5-1.3 4.6 0 0zm-4-2.3c-2-3.8 7.4-0.4 0 0zm-88.9-1.8c10.3-4.7 9.1 1.2 0 0zm51.3 0.3c10.7-7-2.3 4.1 0 0zm-21-3.9c4.8-7.2-2.4 7.1 0 0zm10 0.1c10.9-6.7-4.9 4.7 0 0zm46.6 0.3c2-1.8 3-8.9 2.7 1.4 0-3.9-1.9 1.6-2.7-1.4zm6.4 0.6c2.4-5.2 1.4 3.5 0 0zm-40-0.4c5.5-4.9 5.2-0.9 0 0zm4 0c6.8-7.9 1.5 1.1 0 0zm-24-1.1c2.5-3.9 2.8 2.1 0 0zm-3.6-5.3c8.6-12.9-2.6 8 0 0zm8.2-0.7c9.9-12.8-7.8 11.5-0.1 0.1l0.1-0.1zm53.1 2.1c-0.5-9.4 2.8 5.4 0 0zm-95.1-2.5c12.5-0.8 16.4 2.2 0 0zm28 0.1c1.3-3.2 2.8 2.5 0 0zm11.9-2.2c7.9-12.3-4.4 10.6 0 0zm-6-1.4c6.7-8.8-3.5 7 0 0zm-5.1 0.6c7.8-3.7 0.6 2.3 0 0zm10.6-4.6c6.8-7.9 1.5 1.1 0 0zm-15-1c6.8-7.9 1.5 1.1 0 0zm-17.3-1.3c14.1-0.5-2.5 1.3 0 0zm81 0c3.2-14.7-21.6-2.7-15.7-16.9 11.8-1.7 17.3 8.5 15.7 16.9zm-5-9.8c3.2-6.8-5 2.3 0 0zm-3.6-1.3c3.3-4.6-5.5 5.3 0 0zm11.9 8.9c-3.9-15.7 4.4 6.1 0 0zm5.2-3.1c0.6-6.8 0.6 6.8 0 0zm-69.9-2.6c5.8-6-6.1-0.7 5-5.9 3 3.3-13.6 12.7-5 5.9zm38.2-1.5c-0.6-6.6 3.2 3.6 0 0zm2.9-1.1c1.1-5.3 2.8 6.1 0 0zm21.3-1.7c-0.4-5.4 2.5 4.6 0 0zm4.6-4.4c-2.5-9.2 5.1 11 0 0zm-33.1 0.9c-3.9-8.5 8.9-1.3 0 0zm20.3-2.6c0.2-3.6 3 3.2 0 0zm-15-1c4-0.7 0.4-8.3 3.1 0.5-0.9 0.7-2.5 0.6-3.1-0.5zm-40.5-2.4c15.3-13-8.4 9 0 0zm47.2 1.7c0.1-4.1-7.3-7.3 1.7-2.3 1.2-6.8 7.3 3-1.7 2.3zm-10.2-1.3c1.6-3.1 2.2 3.4 0 0zm16-4.9c-18.6-20.8 16 15.5 0 0zm-50.5-1.1c11.3-10.8-8.9 10.6 0 0zm53.5 0.2c-8.8-8.1-10-10.3-0.7-2.4-10.1-15.9 12.9 11.1 0.7 2.4zm-10.5-3.3c-7.7-13.6 5.9 4.5 2.4 2.9l-2.4-2.9zm-43.2-7.6c9.8-1.3-0.4 1.7 0 0zm30.6-4.8c-22.9-19.9 23.2 13.1 0 0zm5.1 1.5c-3.7-3.5-2.7 2 0 0zm6.6 1.5c9.1-5.2-4.8 4.8 0 0zm-47.6-2c5.1-4.5 12.9 2.5 0 0zm15-0.3c10.2-5 1.7 1.8 0 0zm-3.5-2.4c15.5-8.5 0.1 2.5 0 0zm26.5-4.8c-3.2-3.4 8 3.7 0 0zm59 179c0.8-4.7 3.6-12-4.9-7-9.3-2.8-25.5-7.6-15.3-2.3 9 5.1 23.7 3.4 7.5 9.2 5.6-4.5 11.8 2.2 12.7 0.1zm7 0c-12.5-2.8 4.2 3.8 0 0zm-52.4-1.5c7-5.5-5.5 0.9 0 0zm8.4 0.5c-12.2-2.8 3.6 3.2 0 0zm9 0.6c-2.7-3-5.4 1.8 0 0zm4.3-0.3c-7.2-1.1 0.6 1.8 0 0zm5.2-3.2c-1.2-2.2-13.6-1.2-2.7 2.3l2.7-2.3zm6.5 0.4c-4.2-3.3-5.4 3.2 0 0zm-91.1-0.3c8.8-2.1-6.1-3.5 0 0zm71.5-0.3c-6.5-4.2-10.1 2.8 0 0zm-33.8-3.6c-1.9 0.7 1.4 4.6 0 0zm27.1 0.7c4.5-5.8-13.4 6.6 0 0zm-84.6-1.3c-3-1.6 2.7 4.5 0 0zm3 0c-3-1.6 2.7 4.5 0 0zm77.9 0.2c-2-2.2-2.2 3.3 0 0zm10 0.1c-7.2-3.8 1.7 4.5 0 0zm5.5 0c-0.1-3.8-6.6 4.2 0 0zm25.1-3.2c3.1-12 11.4-18.5-1.9-16.3-11-4.8-20.2-1.7-3.3 3.6 14.9 4.9-24.4-4.8-6.1 5.7-24.1-3.3 9.3 15.7 11.3 7zm-26.6 0.6c-5.8-2-3.3 3.3 0 0zm138.6 0.1c2.1-8.5-2.5 4.3 0 0zm-225.6-0.6c-2-2.2-2.2 3.3 0 0zm75 0c-2-2.2-2.2 3.3 0 0zm4.2 0.4c-5.8-0.6 1.9 1.8 0 0zm4.1-2.4c-7.2-1.4-2.8 3.6 0 0zm-95.3-1.2c5.5 2.3-6.3-1.6 0 0zm8.3 0.6c-2.8-7.3-2.3 2.7 0 0zm94 0c-7.2-1.1 0.6 1.8 0 0zm150.9-1.2c3.4-8.5-17 7.5 0 0zm-222.6-3c-6.1-16.6-7.8-2.5 1.2 3.5l-1.2-3.5zm62.5 2.1c-5.4 0.4-0.9 2.8 0 0zm4.7 0.6c10.7 1.3-0.1-13.6-1.1-3.9 12.2-4.5-1.9 2.1-1.4 2.5-0.8 2 1.6 4.1 2.5 1.4zm-6.4-3.9c8-9.6-9.4 9.5 0 0zm148.3 3.4c3.1-6.3-3.3-0.3 0 0zm-223.7-0.7c-6.8-7.9-1.5 1.1 0 0zm239.2-2.6c6.7-6.1 5-8.8 2.7-13.7-9.8-8.8-0.3-1.9-9.4 0.5 16.4-3.3-2.6 3.8-1.8 3 10.3-3.7-0.3 6.1 4.5 6-4.2 2-0.3 2.7-2.3 4.9l2.4-0.1 3.9-0.6zm-0.9-5.6c4.9-1.7 0.7 2 0 0zm-1.3-2.4c15-2.9-7.6 3 0 0zm-11.3 5.3c-7.6-4.3 3.5 6 0 0zm-45.8-1.9c-4.9-3.2 2.1 5.7 0 0zm-178.4-4.3c-4.2-0.8 4.8 7.3 0 0zm17.9 0.3c-3.3-3.9 1 5 0 0zm61-2.6c-2.6-6.1-4.7 6.2-0.6 0.8 0.6 1.8 4.4 6.8 0.6-0.8zm92.1-0.2c13.1-0.9 13.1-9.9 5-17-3.5 5.9-4.1-9-8.9-8.9-2.1-0.9-8.6-10.6-9.6-8.7 4.5-2.2-11.2-4.7 0.6 3.7 10.2 19-11.6-13.3-10.4 6.6-3.6 13.4-6.3 10.9-2.4-1.5 0.2-7.1 2.9-0.4 4-11.4 15.1-6.2-11-10.8-5.6-6.1-2.2-7.5-24.1-6.1-9.5-7.6 8.7 3.4 21.4 1.7 5.5-0.4-11.8-3.9-20.7-7.6-21.8 8.7-5.5 12.4-28.6 38.9-3.1 40.7 16.7 5.1 39.6 8.9 56.2 1.9zm-18.4 0c16-3.7 11.8 1.1 0 0zm-22.8-1.3c9.8-1.3-0.4 1.7 0 0zm17 0c-11.3-4.8 14.5 1.9 0 0zm-25-1.5c-6.4-2.6-15.4-4.8-3.6-3.2 0.7-1 8.7 7.3 3.6 3.2zm16 0.5c9.8-1.3-0.4 1.7 0 0zm26.7 0.2c2.5-3.9 2.8 2.1 0 0zm-41.1-3.3c-3.4-4.3 7.8 5.7 0 0zm7.1-0.2c-9.4-7.4-11.5-10.2-1.4-2 1.6-0.3 10.4 8 1.4 2zm39.3 0.3c4.5-10.2-6 5.4 0.9-5.9 5.4-4.2 0.4 11.6-0.9 5.9zm-19.9-2c-4.6-7.3-2.7-6.4 1.3-16.9-1.6 8.1 3.5 18.2-1.3 16.9zm24.1 0.7c6.6-3.4 7.1 1.9 0 0zm-46.1-4.9c-13-10.9-1.5-3.1 4.9 2.9l-1.8-0.9-3.1-2zm49.6 0.7c-2.3-5.8 4.7 6 0 0zm-72-0.2c4-8.6 10.9-16.6 2.7-2.5-0.2 0.6-2 5.6-2.7 2.5zm47.1-1c0.4-4.4 0.9 3.7 0 0zm12.9-1.8c5.7-15.5 2.2 0.9 0 0zm-0.9-3.3c0.5-7.5 3.8-1.1 0 0zm-42.6-2.5c-7.1-15.6 4.4 2.6 0 0zm7.5-5.7c20.2-15.9-2.6 6.9 0 0zm-16.9-0.7c0.4-4.4 0.9 3.7 0 0zm9-2.1c-8.5-12.2 1-12.6 11.1-8-13.8 0.6-9.8 3.4-6.3 9.2-3.8 1.4 2.1 5.5-4.8-1.2zm-7.1-4.5c2.4-5.2 1.4 3.5 0 0zm32.2-2.5c0.4-6.3 0.7 5.8 0 0zm-9.9-3c-10.9-6.5 14.2 3.6 0 0zm-12-1.2c9.8-1.3-0.4 1.7 0 0zm-0.9-3.8c9.8-5-4.8 4.1 0 0zm10.1 0.4c10.1-1.1-7.4 2.8 0 0zm-11.5-3.4c2.5-10.8 2.5 2.9 0 0zm-1-4.5c2.4-5.2 1.4 3.5 0 0zm2.6-2.6c-0.4-6.6 6.9 5.1 0 0zm-127.7 54.7c-0.4-3.4-6.5 2.7 0 0zm7.7-1.6c-7.1-4.2 2 5.3 0 0zm5.9-6.5c-6-1.2-0.4 13 0 0zm70.2 2.3c-6.9-2.5 4.2 7.1 0 0zm-74.2 0.6c-3.3-2.7-0.3 4.7 0 0zm-8.9-1.6c-1.9 0.7 1.4 4.6 0 0zm7-1.6c1.2-8.1-5.3-14.8-2.7-1.8 3 1.8-1.3 8.4 2.7 1.8zm81.2-2.7c12.2-6.6-3.8-7.5 3-15.6 9.5 7.2-1.9-4.9 7.8-1.4 6.4-9 20.2-19.1 7-4.3-6.4 7.1-11.8 23.5-2.4 6.9 0.1 5.1 3.2 1.5 4-0.8-3.4-3.3 4.8-2.1 0.9-6 11.6-2.7 15.9-24.4 4.3-21.4 9.8 0.6-23.3 24.9-5.9 9.3-7.2 5.6-9.1 6.5-8.9 0.2-5.6 15.6 16.6-2.6 4.4 9-4.9 2-8.2-4.2-3.8 5.4-3.4 0.9-4.5-9.7-8-0.8-5.4-7.3 0.9 23.1-5.8 10.7 6.6 7.9-1.5 14.9-2.4 7.3-0.4 5.4 4 9.7 5.8 1.5zm3.2-16.6c2.5-7.1 4.2-2 0 0zm19-6.8c4.2-8.9 11.8-15.5 2-2 0.4-2-1.9 4-2 2zm4-10.6c6.6-9.3-2.7 7.3 0 0zm-104.6 36.5c0.1-7.5-3.3 5.4 0 0zm5.3-3.8c-1.3-2.5 0.5 14.1 0 0zm-13.7 2.3c-2-5.2-2.8 3.5 0 0zm12-1.6c-4.6-3.9-3.2-3.3-3.9-10.4-5.1 2.7 0.7 15.1 3.9 10.4zm224 1.2c-3.3-3.5-4.4 1.9 0 0zm-146-2.1c-1.3-4.6-1.9 4.9 0 0zm-6.3-2.9c-4.5-6.6 2.1 8.7 0 0zm177.3-0.6c-2.4-5.1-3.3 4.5-4.1-7.4-7.4 11.2 1.8-8.7-5.3 2.3 5.7-15.8-11.4 6.5 5 6.5 1.6 3.3 6.1 1.3 4.4-1.4zm-5.3-3.1c2.9-5.6-0.6 6.4 0 0zm-69.7 1.6c-8.7-12.5 6.9 13.8 0 0zm-187.7 1.5c-6.2-8.2 1.9 7.7 0 0zm15.4-1.3c-1.8-0.6 1.1 7 0 0zm-2.3-1.2c-4-3.7 0.9 6.4 0 0zm-9.1-2.1c3.9-14.9-4.8 10.9 0 0zm284.1 2.1c3.5-12.1-5.7-12.3-0.6-5-1.1 1.3 0.7 10 0.6 5zm14.8-1c8.1 0.1-12.5 0.2 0 0zm-309.2-0.5c-2.3-4-1.7 3.6 0 0zm102-0.4c-7.5-9.4-3.9 2.5 0 0zm-94.2-5.6c-3.5 1.6-0.5 10.1 0 0zm6.9 0.7c2.8-17.7-3-2.6-1.9 5.3l0.9-1.6 1-3.7zm7 1c-1.3-2.5 0.5 14.1 0 0zm211.3 2.9c-6.9-14-6.6-2.6 0 0zm-39.3-9.4c-0.4-11.3 5.3-22.5-10.6-15.7-10.3 2.8-28.3-2.8-10.3 5.7 8.8 7.6 8.4 4.8 0.8-1.6 10.4 4.5 13.6 21.3 20.4 18.5l-0.1-3.1-0.2-3.8zm-7.4-5.8c4.9-1.7 0.7 2 0 0zm-0.6-6.1c14.1-0.5-2.5 1.3 0 0zm-20.3-2.5c-4.5-6.5 7.6 6.8 0 0zm144 20.8c-5.9-6.7 1.5 7.2 0 0zm-50.9-1.6c4.6-10-14.1-5.7-3.8-2.7 1.3 3.1 0.6 0.1 1.6 5.5l2.2-2.8zm-41 1c-3.1-3.1-0.3 3.4 0 0zm9.8-3.3c-1.1-10.5-3.9 13.2 0 0zm71.9 1.1c-3.9-2.8 2.4 6.2 0 0zm-7.2 0.1c-2-2.2-2.2 3.3 0 0zm20.5-0.8c-8.4-5.9 2.3 5.3 0 0zm-301.1-0.5c2.7-9.3-1.1-2.1-4.7-3.8 4.2 10.1-0.8-5 5 5l-0.3-1.2zm290.1-2.2c-5.6-14.4 3.1 12.9 0 0zm-89 1.6c-3.1-3.1-0.3 3.4 0 0zm-10.2-3.2c-3.4-0.7 1.6 5.3 0 0zm-2.3-1.4c-2.2-4-1.1 4.9 0 0zm13-0.9c3.4-10.5-12.9-10.9-8-6.8 2.5-3.6-1 6.9 3 1.3-1-3.9 7.1 13.4 5 5.5zm83.3 1c-0.9-4-2.8 4.4 0 0zm-121.9-4.6c-10.3-8.9 8.2 12.7 0 0zm111.1 4c1.7-5-5.3 4.3 0 0zm-186.5-2c-2.1-4-2.3 5.7 0 0zm157.5 1.1c-7.8-4.5-8.4 4.3 0 0zm3.5 0c-2.3-4-1.7 3.6 0 0zm-98-0.4c-3.3-3.5-4.4 1.9 0 0zm109 0c-4.9-4.3-2 2.2 0 0zm26.6-3.3c-1.9 0.7 1.4 4.6 0 0zm-195.6-2c-1.8-7.1-1.7 9 0 0zm96.6 1c-1.9 0.7 1.4 4.6 0 0zm59 1.5c-7.8-13.6-15.4 5.1 0 0zm6.7-0.9c-3.2-5.6 1 6.8 0 0zm-66.3-3.2c-3.2-0.7-1.5 7 0 0zm87.3 1.6c-2.6-3.9-1.2 4.5 0 0zm-283.8-0.3c8.1-3.2-0.7-2.1 2-9-0.9 2.7-10.2 13.5-2 9zm201.9-3.9c-5.5-2.8-1.2 8.1 0 0zm56.6 2.9c16-5-25.9-5.1-5-0.5 0 1.1 7.6 2.6 5 0.5zm-5-2c-1.6-4.4 7.1 3.3 0 0zm15.8 0.5c-2.3 0.6-1.9 5.4 0 0zm4.2 1.5c-3.7-4.1-3.7 4.1 0 0zm-294.5-1c-3.1-3.1-0.3 3.4 0 0zm18.5-0.1c-4.8-2.8-4.2 3 0 0zm302.6-2.6c-3.5-0.9 1.6 5.8 0 0zm-190.5-1c10.3-9.7-12.9 9.5 0 0zm-111.1 0.1c-2.8-4.2-3.1 5.2 0 0zm272.5 0.6c-3.1-3.1-0.3 3.4 0 0zm-22-1c-9.3-3.2 4 3.1 0 0zm-145.7-3.4c6.6-8.4 25.7-1.3 10.9-13.6-13.6-7.9 0.1-30.9-8.3-44.9-9.6 3.8-3.6 14.2-4.2 21.7 2.6 12.4-5.4 31.6-1.2 39.2l2.8-2.4zm4.8 1c13.3-12.8-15.1 8.8 0 0zm171.6-1.4c16.5-6.9 26.2-25.8 28.1-42.6 5.7-8.7-1.3-25.2-0.7-36.5-3.4-19.5-3.4-1-4.4-3.8-2.7-6-0.6-13.6-4.9-12.5 1.3 5.9-10.8-26.4-9.5-23.8 7.8 8.8-5.5-14.3-4.1-17.7 2.6-4.9-13.8-8.2-2.7-9.4-5.4-12.5 6.7-0.7 9.6-12.8 6.8-11.5 3.1-23.6 2-37.4-4.6-8.2-0.9 21.5-6.6 11-7.5 9.6-7.4 24.6-9 27.3-1.7 5.8-1.5 14.1-6.9-1.5-7.6-5.3 7.8 14.4-3.6 2.4-4.6-10.5-12.2 7.7-1.1 3-14.4-1.8 3.3 15.5-10 3.5-8-10.7-19.5-16.8-25.5-9.6-5.4 5.4-1.3 27.1 0.8 8 7.9-25.4 13.7 18.1 33.6 16.6 8.8 7.9 14.5 10.3 3.5-0.5-1-5.6 20.9 13.9 8-1.9 1.7-4.1 12.6 21.2-0.6 5-1.3-0.7 6 16.6 2.3 5 4.8 6.1 6.5 22.7 0.4 8.9-4.3-5.6-13.3-19.5-10.2-6.4-9.6-2.5 9.3 19.1-1 6.6-7.1-13.3-7.7 6.8-0.9 7.8 0 9.9-2.9 15.9-6.8 2.9-8.7-7 0.2 13.8-1.7 15.4 6.3-20.8-2 18.4 3.4 1.8 9.3-1.6-1.8 11 3.1 16.4-1.8-11.5-11.1 2-2.2 1.3 2.5 3.3 7.5 12.4 0.1 9.2 1.9 12.5-3.4 11-4 2-0.7 8.7-1.5-9.7-7.1 2.6 10-5.9 1.4-22.7-1.2-15.3-1.9-7-5-25.6-7.9-9.9 1.7 4 7.5 16.4 5.7 15.5-11.1-3.7-5.9-34.8-11.8-15.1 0 3.5-2.5 12.5 6.6 7.6-5.9 7.3 0.2 3.1-0.4 10.6 9.4-5.8-4.1 9.2-5.8-2.1-15.6-4.8 4.9 21.4-6.4 8.7-4.4 2.2-11.4 9.9-5.4 8.3-10.1 6.2 0 2.3-0.8 8.8 4.9-6.2-7.5 25.4 0.6 5.7 10.9-16.5 3 13.7 6.2 15.7-0.6 1.5 10.6 10.5-1 6.7 4 4.7 14.2 17.7 15.3 14.7-1-3-4.3-6.9-12.3-13.4 9 7.3 2.3-23 0.1-13.3-7.8-12.2 20.7-19.7-1.4-21.8-2.1-2.5-2.8-9.5 8.1 0 1.7 1.4-8.3-16.5 2.2-4.3 2.5 11.4 13.1-13 20.4 2.5 7.6 12.8 35.8 23.6 28.5 40.2 3.8-7.1-15.2-4.8-16.3-17.2-6.9-8.5-20.3-16.2-11.6-5.1 6.6-1.1-2 14.1 5 6.5 9.8 5.4 6.8 28.9 0.8 23.9 1-5.2-11.3-15.6-10.1-26.5-7.9-3 1.6 25.3-8.1 10.4-1.4-15.4-8.3 13.7 0.9 6.5 3.8 4.9-4.4-2 1.2 7.9 7.1-0.6-3.5 4.8 9.4 3.9 3.2 4.6 13.4 0.7 18.1-0.4zm-21.2-1.2c7.8-3.6-3.1 3.3 0 0zm-24-19.9c-3.7-4.8 0.6-2.5 0 0zm62.4-5c9-7.2-5.3 6.9 0 0zm-0.7-6.2c8.6-6.5-6.1 6.2-0.6 0.7l0.6-0.7zm-3.5-1.9c0.7-5.8 0.7 5.8 0 0zm10.1-2c0.5-8.8 0.5 8.8 0 0zm-18.6 0c1.4-8.2 0.9-13.5 2.6-2.2 14.1-21.8-3.5 11.3-2.6 2.2zm-3.7-1.5c-5-7.2 4.4-19.8 0-4.5 1.5 1 0.4 12.8 0 4.5zm-5.9-4.8c-5.5-17.6 5.7-6.6 2.4-3.3-5.6-14 2.7 14.9-2.4 3.3zm20.9 3.2c2.3-10.2 5.7-9.8 0 0zm4.5-4.1c-0.4-9.1 2.9-10.5 4.6-9.8 0.2 2-8.7 17.9-4.6 9.8zm-31.4-5.3c-2.4-10.2-2.2 7.4-4.1-6.8 2.3-23.2 7.8 21.9 4.1 6.8zm37.5 3.2c3.7-5-1.3 4.6 0 0zm-7.6-4.8c-4.3-0.3 2.1-7.8 0.2 1.5l-0.2-1.5zm9.2-0.4c0.4-6.3 0.7 5.8 0 0zm-13.9 0.2c-6.2-9.1 5.1 4.5 0 0zm-9.9-4.3c-9.3-9.1 5.5 6.2 6.5-1.4 0.4 3.9-4.6 7.1-6.5 1.4zm-39.4-4.3c1.9-10.7 2.4 7.8 0 0zm23 1.9c2.4-5.2 1.4 3.5 0 0zm4-2.3c-7.4-12.9 9.5 11 3.1-4.3-5.3-17.1 3.5-2.7 6.4 3-5.4-7.4-3.3 11.8-9.5 1.3zm34 1.1c2.8-11.6 1.2 7.7 0 0zm-71.4-3.3c-5.3-7.2 8.1 1.5 2.5 3.5l-2.5-3.5zm8.6 1c0.4-6.3 0.7 5.8 0 0zm53.8 1c-2.6-5.1 5.9 3.8 0 0zm5.2-2c0.4-6.3 0.7 5.8 0 0zm-53.2-1.6c-3.1-8.5 4.8 7.4 0 0zm39.1-1.2c-6.2 0.8-2.6-4-9.1-10.1 9.5 1.1 5.5 4.3 13.4 13.4l-1.6-1-2.7-2.3zm6.7-0.4c2.2-6-0.2 6.7 0 0zm-25.7-0.8c-1.2-9.7-1-14.6 2.7-2.8-2.1-1-1.8 1.8-2.7 2.8zm31-2.6c-13.8-0.6-15.2-29.4-8.5-7.2 4.9 8.7-2.7-26.8 2.9-4.4 5.7 19.9-3.6-28.1 2-4.1-2.3 9.8 11.7 25 6 6.7-9.1-16.9 13.4 22.4-2.4 9zm-45.9-2c-2.8-10.6 5 6.3 0 0zm25.2-7.9c-8-4.6 6.2 1-3.1-7.7-0.4 3.9-10.9 6.5-6-5.8 3.5 14.5-1.1-14.9 6.1 0 4.3-5.7 3.5 14.7 9.2 14.1-7.9-6.4-0.8 3.1-6.2-0.6zm-3.9-10c0.7-9.9-5 6.8 0 0zm9.4-2.7c-6.6-6.7 7.9 7.6 4.9-4.8-0.2 3.3 0.2 10.9-4.9 4.8zm-15.7-3.3c0.7-5.8 0.7 5.8 0 0zm12.1-2.1c5.7-9.3-8.1-10.1-9-4.1 0.4-11.7 14.1 0.4 13.8-8.5 2.2 2.8-5.5 17.4-4.8 12.6zm7.7-1.4c2.5-0.7 1.9-17.5 2.7-1 1 2.6-2.1 2.3-2.7 1zm-21.9-2.9c0.4-4.4 0.9 3.7 0 0zm2.8-6.4c-3.3-4.6 5.6 5.3 0 0zm6.7-2.9c3.8-8.8 1.7 2.2 0 0zm-15.7-30.8c-3.5-3.2-5.8-11.4 0 0zm3.3-9.2c3.4-6.4 2.6 4.3 0 0zm-17.2-4.9c-10.6-12.5 10.8 8.8 0 0zm37.7-1.1c-2.8-9.5 9.3-14.6 2.8-6.8-1.2 2.6 5.9 1.1 3.7 2.2-2 1-4.2 6.7-6.5 4.6zm5.8-8.3c4.6-3.6 0.1 3.4 0 0zm-5.5-2.1c0.8-6.8 5.9-18.6 2.8-5 6.2-8.5 0.1 7.8-2.8 5zm-305.9 163.8c-3-1.6 2.7 4.5 0 0zm270.6 0.8c2.9-7-6.1 3.6 0 0zm58.3-2.7c-5.3-3.7-3.5-19.5-4.2-3.9 2.2 3.2 0.7 12.3 4.2 3.9zm-180.4 0.5c-1.9 0.7 1.4 4.6 0 0zm-128.6 0.7c13-12.9-4.5-7-2-3.2-4.1 1.2 0.9 6.3 2 3.2zm299.2-4.2c-3.8 2.7 2.1 7.8 0 0zm-128.1 0.1c10.5-13.1-13.1 12.1 0 0zm45.9 2.1c-12-4.4 2.7 3.3 0 0zm-93.9-4.7c-3.6-3.9 2.7 11.4 0 0zm151.9 1.9c-5.8-17.4-3 6.3 0 0zm-279.6-3.3c-4.6-3.9 0.8 11.5 0 0zm132.2 2.4c-1.9 0.7 1.4 4.6 0 0zm118.9 0c-3.6-4.1-7.6-12.7-4.5-0.2 1-0.1 4 1.8 4.5 0.2zm63.1-1.3c2.2-9.9-1.8-27.7-1.1-7-3.8 1.9 2.2 17.5 1.1 7zm-10-1.7c-1.9 0.7 1.4 4.6 0 0zm3.2-2c-1.8-10.4-1 12.6 0 0zm-323.2 0c-1.9 0.7 1.4 4.6 0 0zm191.4 1.7c-2.6-3.6-2.5 3.6 0 0zm-45.5-4.8c-4.8-1.9 1.9 9.8 0 0zm-142.5 2.8c-2.6-3.6-2.5 3.6 0 0zm15-1.6c-6.7-6.6-2.4 7.6 0 0zm215.6-1.1c-1.9 0.7 1.4 4.6 0 0zm3 0c-1.9 0.7 1.4 4.6 0 0zm11.9 1.7c-3.1-3.1-0.3 3.4 0 0zm40.2-5.6c-2.3-6.6-4.3 16.5 0 0zm3.8 5c1.3-9.5-11.2 4.8 0 0zm70.05-4.1c-5.15-7.2 1.66 11.8 0 0zm-143.05 1.7c4.7-4-12.3 1.7-2.4 1.9l2.4-1.9zm31.5 1.2c-3.8-20.3-8-6.2 0 0zm-10.5-1.2c-3.1-3.1-0.3 3.4 0 0zm3-1.1c-5.2-19.8-3.9 0.9 0 0zm67.5-1c-11.8-7.6 7.1 8.2 0 0zm16.7-0.2c-1.8-0.6 1.1 7 0 0zm-307.9 0.5c-2-6.2-7.3 7.8 0 0zm114.4-3.6c-3.9-14.5-1.9 7.3 1.2 3.4l-1.2-3.4zm14.4 2.7c-1.9 0.7 1.4 4.6 0 0zm88.7 0.6c-6.1-2.1 3.1 4.6 0 0zm28.5 0c-0.9-10.1-8.8 3.2 0 0zm59.2 0c-2.3-2.2-2.2 5.1 0 0zm-178.3-2.5c-1.8-10.4-1.3 12.5 0 0zm51.6 0.3c4.5 3.6-0.5-28-4-8 6.4-12.3-3.5 14.6 4 8zm-1.3-12.7c2.4-5.2 1.4 3.5 0 0zm18 12.6c3.5-11.2-8.9 8.6 0 0zm29.6-0.8c-5.6-5.8 4.3 9 0 0zm61.6-0.3c-1.6-8.3-3.1 9.2 0 0zm54.8-1.5c0.4-11.9-9 11.9-0.5-0.6l0.5 0.6zm-344.9 2.6c0.5-3.6-12.2 2 0 0zm4.9-0.6c-2.2-4-4.4 4.1 0 0zm118.3-3.7c-2.6-4.6-0.1 8.5 0 0zm4.3 1c-1.9 0.7 1.4 4.6 0 0zm67.4 0.7c-3.3-2.7-3 5.3 0 0zm9.4-0.5c-5.9-5.5-0.5 6.2 0 0zm39.6-0.3c0.2-7.8-2.5 6.4 0 0zm7 0.3c-4.9-8.6-3 7.2 0 0zm77.2-0.6c-4.2-10.8-2.4 10.3 0 0zm-42.4-4.9c-9.3-5.2-30.8-34.9-24.8-11.4 0.6 5.2 7.7 1.2 3.2-5.4 4.6 6.5 9.9 10.2 13.5 14.8 2.8-2.3 6.9 7.2 9.5 7l0.1-2.3-1.5-2.7zm54.5 5c-0.4-8.6-5 6.6 0 0zm-131.4 0.2c-1-8.9-3.8 2.6 0 0zm61.2-2.4c1.4-9.5-8.9 9.2 0 0zm-138.1-1.9c-2.6-6.2-2.8 8.3 0 0zm53.9-1.9c-0.5-7.8-4.2 12.8 0 0zm8.1 2.5c-1.1-7.8-1.7 8.1 0 0zm-203.4-1.2c-1.9 0.7 1.4 4.6 0 0zm198.6-10.8c-2.1-10.2 4.3-20.4 1.4-3.7 4.9 19.1-1-12.3 3-17.8-0.6-13.4-12.8-23.7-5.9-11.6 0.7 6.1-0.9 9 1.7 15.6 4.4-14.4-0.6 11.2-6 5 5.1 2.5 5.1 40.2 6.4 17.3l-0.3-2.5-0.3-2.3zm8.6 10.9c-4.9-5.7 1.9 7.8 0 0zm57.2-2.6c7.8-12.5 1.9-15.3-0.6-4.2-4 0.3-6.3 16.1 0.6 4.2zm83.3 1.9c-4-2.5-1.3 6.5 0 0zm-214.6-3.5c-1.6 0.2 1 10.2 0 0zm203.3 3.2c-4.1-4.9-3.6 6.8 0 0zm-94.9-3.4c2.1-13.5-5.4 13.4 0 0zm12.3 3.4c-3.3-3.9 1 5 0 0zm-82.2-1.6c-3.9-2.8 2.4 6.2 0 0zm37.8 1.2c-2-5.2-2.8 3.5 0 0zm125.5-3.8c-3.8-14.4-6 10 0 0zm10 2c-2.2-4.7-3 5.4 0 0zm-134.1-1.7c-4.7-5.4 1.1 5.2 0 0zm136.7-0.4c-6.7-5.6-9 2.5-1.8-0.3l2.4 2.1-0.6-1.8zm-205.8-1.8c5.9-9.8-6.2-3.1 0.1 1.3l-0.1-1.3zm32.7-0.4c-1.4-13.1-7.6 6.1 0 0zm32.1-1.8c-0.7-7.9-3.1-15.7-1.9-2.2-1.8 1.4 4.6 8.8 1.9 2.2zm133.9-0.6c-2.9 0.7-1.5 6.6 0 0zm-330-0.6c-2.3-2.2-2.2 5.1 0 0zm182.8-4.5c-3.4-21.9-0.7 19.9 0 0zm-1.6-4.4c0.7-5.8 0.7 5.8 0 0zm145.6 6.3c-8-7.9 2.3 10 0 0zm-208.2 1c-1.9 0.7 1.4 4.6 0 0zm82.6-0.3c0.2-8.3-2.8 9.9 0 0zm25.8 1.4c-2.8-1.9-2 3.6 0 0zm96-0.5c-2.7-4.9-2.3 6.6 0 0zm-200.1-5.2c-1.6-14.6-0.3 18.5 0 0zm25.8 3.2c0.6-4.3-1.4-9.4-1.7-12.9-8.8 4.5-1.3 10.5 1.7 14.4v-1.5zm-4.3-8.3c3.1-9.7 5.3 2.9 0 0zm-17.8 7.7c-1.9 0.7 1.4 4.6 0 0zm3.4-0.3c5.3-5.8-5.7-9.4 0.5-14.4-2.2-5.6-7.1 6.2-4-5-1.9-8.2-13.2-16-5.5-16.2-4.8-11.6-13.6-9.7-7.4-1.1-2.8 2.4-14.3-3.6-8.8 6.5-11.7-3.3-4.6 4.6-1.2 13.6 10.6 10.2-12.2-23.2 7.3-10 6.4 7 1.6-17.1 4.5-1-0.9 8.1 3.4 18.8 3.4 4.9 7.6 0-1 11.1 5.9 9.9 1.5 0.3 5 21 5.3 12.8zm-0.8-6c0.7-5.8 0.7 5.8 0 0zm-11.8-19.6c-0.7-11.5 5.7 7.7 0 0zm-8.6-5.4c-3.4-9.3 6.3 6.9 0 0zm87.9 27.7c-1.4 0.4 0.8 11 0 0zm-192.7 2.8c5-9-10 8.3 0 0zm148.9-0.8c-0.8-5.4-2.2 8.2 0 0zm-34.3-0.4c-1.9 0.7 1.4 4.6 0 0zm202.4 1.7c-2.3-4-1.7 3.6 0 0zm-64-3.1c-2-2.2-2.2 3.3 0 0zm63.5 0.1c-4-2.3-2.1 3.7 0 0zm2.5-2c-9.6-3.8 3 3.3 0 0zm-126.9-4.3c-3-1.6 2.7 4.5 0 0zm-174.7-1c7-11.6-12.3 7 0 0zm-1.9-1.4c7.2-8.3-2.6 6.4 0 0zm99.1 1c-1.9 0.7 1.4 4.6 0 0zm62.4 0.7c2.5-7.1-4.7 7.2 0 0zm-168.2-1.6c4-8.5-11.3-1.9-3.7 0-6.2-2.6-3.4 7.2 3.7 0zm26.6-2.6c-3.5-1.7-2.3 3.1 0 0zm165.2-1.5c-1.9 0.7 1.4 4.6 0 0zm-182-1.5c-0.8-12-8.4 4.7 0 0zm179.4-1.9c-2-2.2-2.2 3.3 0 0zm2.6-2.6c-1.9 0.7 1.4 4.6 0 0zm-191.1-0.3c-2.9-3.4-7.3 3.4 0 0zm98.5 0.2c-2.2-8-4.3 2.7 0 0zm37.5-1.3c-3.3-2.7-0.3 4.7 0 0zm-112.7-1.4c-2.3 0.6-1.9 5.4 0 0zm155.6 0.9c-3.3-3.9 1 5 0 0zm-186.4-1.5c-2.3-2.2-2.2 5.1 0 0zm101.7-1.2c-1.8-0.6 1.1 7 0 0zm133.3 0.7c-2.8-14.6-7.8 5.5 0 0zm-223.3-0.1c-7.3-4.6-7 5.7 0 0zm87.9-1c-3.5-0.9 1.6 5.8 0 0zm79.1-1.6c-1.3-2.5 0.5 14.1 0 0zm80.6 2.3c-0.2-8-2.7 7.3 0 0zm-55.7-2.7c-1.9 0.7 1.4 4.6 0 0zm-203.2 0.1c0.1-4.2-3 5 0 0zm10-0.6c9.2 0.9-1.9-3.6-1.5 0.8l1.3-0.3 0.2-0.5zm188.3-3.4c-0.4-10.9-2.5 13.2 0 0zm-5.1-3.3c-2.2-11.4-3.3-7.1 4.1-17.7-4.9 12.5 6.7-7.2 1.3 6.2 11.1-12.7-11.2-7.1-5.9-4.5 7.1-4.5-9.1 13.9-3.3-1.6-8.7 6.3-5.5-1.3 3.2-3.3-11.2-1.7-13.3 8-5.8 11.3 2.7 1.5 10.4 27 6.4 9.6zm-179.6 2.3c7.1-3 11.3-2.3-1.6-3.6 5.1-4.6-6.6 4.3 0 2.2-4.3 3.7 0.2 4.2 1.6 1.4zm5 0.6c1.6-4.2-8.5 3.6 0 0zm239-5.2c-7.5-12.2-4.2 14.6 0 0zm-258.6 0.6c0.1-4.2-3 5 0 0zm251 0.7c-0.2-13.1-6.9-1 0 0zm-147.4-1.9c-3.1-8.8-9.8 5.1 0 0zm91.6-2.9c-1.9 0.7 1.4 4.6 0 0zm5.1-1.5c-4.8-7.3-1.7 11.8 0 0zm62.2-1.3c-4.6 2.2-1.9 8.6 0 0zm-247.9 3c2.6-5-5.6 5.3 0 0zm239-2c-2.9 0.7-1.5 6.6 0 0zm-254-1c-14.6-0.1 0.6 6.9 0 0zm104.7-0.8c-1.3-2.5 0.5 14.1 0 0zm135.9 0.6c-1.9 0.7 1.4 4.6 0 0zm-140.5 0.3c-2.5-9.8-0.3 5 0 0zm108.6-0.2c-4.5-4.7-4.8 4.7 0 0zm47.7-1c-3.3-3.9 1 5 0 0zm-258.9-3.4c-0.1 6.3 10.9-1.1-3.1 0.4-3 4.3 1.4 0.5 3.1-0.4zm218.5 1.9c-2-2.2-2.2 3.3 0 0zm-7.5-2.8c-4.4-7.1-1.3 8.5 0 0zm-207-2.1c0.1-3.6-4.6 3.7 0 0zm21.4-0.4c26.3-11.4-12.5 1.1 0 0zm-22.8-1.7c2.7-6.5-10.1 6.8 0 0zm80.8-1.2c-1.1-8.3-1.3 10.6 0 0zm136.6 1.5c-3.2 0-2.9 3.8 0 0zm-222.5-0.8c-2.8-1.9-2 3.6 0 0zm214-1.5c-3.7-1.9-5.2 6.4 0 0zm-186.6-0.4c4.9-5.5-9.5 5.5 0 0zm30.6 0c-5.5-3.6 2.3 4.6 0 0zm-52.7-0.5c1.1-6-11.1 4.5 0 0zm214.8-0.8c3.3-4.6-5.5 5.3 0 0zm-180.3-0.1c-1.7-3.7-22.9-4.4-4.1 0.3l1.8 0.5 2.3-0.8zm156.8-1.9c-9.9 1.3 3.8 1.6 0 0zm-150.2-0.7c-1.3-6.6 3.7-3.6-8.1-6.3-8.1 2.3 13.5 3.5 3.2 6.9 1.1 1.7 4.1 0.3 4.9-0.6zm145.6 0.3c13.9-5.7-13 0.7 3.9-4.3 8.9-1.1 6.6-24.7 1.2-7.9-5.2 8.7 9.8-7.2 0.5 4.6 0.1 1.4-14.1 2.4-13.1 4.9 6 2.6-8.8 3.4 6.1 3.3l1.4-0.6zm-188-0.8c-0.7-4.9-8.7 5.7 0 0zm200.4-0.2c-3.5-1.7-2.3 3.1 0 0zm-164.4-0.8c1-3.2-16.9-1.7-2 0.9l2-0.9zm23 0c-5.7-10.5-26.3-21.2-30.5-10.1 10.2 1.3 21.4 10.6 30.5 10.1zm-20.5-8c-9.3-6 13.9 6.2 0 0zm6-1.1c-10-6.1 14.1 6.3 0 0zm-8-2.9c-4.4-3.2 9.6 3.3 0 0zm32.5 9.8c9 2.2 0.5-6 6-6.1 17.6 3.4 8-14 0.6-15.7 10.8 11 11.6 0.6 12.1-3.5 0.5 9.6 1.2 20 8.4 6.5 9.8-8.2-4.1-29.7-3.3-8.2-4.2-6.3-17-10-1.7-8.3 3.9-2.9-26.6-19.6-15.2-3 8.2 14.3 1.2 15.6-2.9 10-0.6 4.7-10.1-9.4-2.3-3.9 0.2 6.5 6.7-15.4-5.3-6.2 5 15.9-18.2-27.9-7.8-14.7 3.8 2.6 13.6 19.2 11.5 5.8-4.6-4.9-7.7-8.8-3.1-7.1-8.3-15.7-27.6 2.4-40.5-5.9-23-0.3 10.8 36.7 19 25.9-10.4-0.6-6.5-12.2-18.3-20.2 5.8 8.7 15.3 7.6 3.9 0.6-3.5-9.6 12.3 6.4 12.9 12.4 8.3 10.6 12.6-10 5.3-6.4 7.6 10.9-23.1-18.5-1.6-4.3 17.2 7.4 2.4 27 9.3 37-1.1 8.5 4.4 16.3 9.7 14 0.4 7.6 0.6 0.8 3.3 1.3zm-12-7.3c3.1-6.1 1.9 4.6 0 0zm11 0.6c2.9-5.8 2.2 2.7 0 0zm15.6-14c-5.9-7.7 7.2 7.1 0 0zm-15.3-0.8c5.4-3.6 6.2-0.6 0 0zm-2.3-0.7c6.8-7.9 1.5 1.1 0 0zm-2-2.6c2.4-5.2 1.4 3.5 0 0zm30-8.9c2.9-5.8 2.2 2.7 0 0zm-36-9.6c2.6-9.3 0.6 8.8 0 0zm142.6 42.5c8.8 2.8-7.2-2.8-3.3 1l3.3-1zm9.4 1c-2.6-3.6-2.5 3.6 0 0zm-23-2.5c-19.5-2.3-14.2 4.4 0 0zm31.4-0.6c-0.2-2.6-11.5 5.3 0 0zm-189.2 0.4c-5.8-0.6 1.9 1.8 0 0zm48.8-2.4c-2.3-2.2-2.2 5.1 0 0zm13.5-0.5c5.6-12-11.6 7.6 0 0zm118.6-0.4c-0.9-6.9-6.1 5.5 0 0zm-26 0.1c14.9-3.9 2.2-5.8-3.7 1.9l1-0.1 2.7-1.8zm5.4 0.9c-4.2-4.3-8.5 4.3 0 0zm13.5 0.2c-4.8-12.5-3.4 2.1 0 0zm11.4-2c-4.1-0.5-1.3-0.4 0 0zm40.2-1.9c-1.9 0.7 1.4 4.6 0 0zm-203.1-4.4c0.4-13.7-3.8-22.1-13.6-7.4-11.6 7.5 17.4 7.7 14.5 11.4l-0.9-4zm-9.8-3.6c14.1-0.5-2.5 1.3 0 0zm-0.9-2c7.1-1.1-0.7 1.8 0 0zm163.6 8.3c-8.2-9.3 0.3 6.6 0 0zm8.4-0.7c-2.6-4.5-6.4 4.9 0 0zm-156.8 0.1c-2.3-4-1.7 3.6 0 0zm38-0.6c-3.7 1.2-1 0.1 0 0zm91.7 0.2c9.6-8.2-14.4 5.5 0 0zm7.6-0.3c-7.2-1.1 0.6 1.8 0 0zm-10.3-1.3c-5.5-3.4-11.3 3.2 0 0zm27.1-0.5c7.6-5.8-9.5 4.2 0 0zm48.9 0.7c-0.7-9.8-31.9-24.5-13.6-10.6 5.2 6 7.4 8.2 13.6 10.6zm-65-1.2c1.6-4.2-8.5 3.6 0 0zm-6.5-2.1c-5.7-2.2-22.7 0.7-6.2 0.8l4.2-0.2 2-0.6zm4.5-0.5c-3.4-2.3-4.4 3.8 0 0zm4-1.3c2.9-7.5-14.4 1.5-4.2-4.7-21.1 5.1-1.3 3.5 2 5.9-2.6 1.4 3.1 0.1 2.2-1.2zm14.4 0.2c0.8-4.1-4.8 5.6 0 0zm58.6-0.7c-2.6-9.5-29.3-20.6-25.7-17.6 8.6 3.6 34.5 26.1 12.9 10.1-7.8-5.5 10.6 13.7 12.8 7.5zm-5.5-5.6c0.6-2.5 4.4 3.8 0 0zm-84.2 5.3c-7.2-1.1 0.6 1.8 0 0zm-183.2-3.6c-3-1.6 2.7 4.5 0 0zm187.4 1.3c0.2-4.8-8.6 5.1 0 0zm24-2c6.7-10.5-12.5 8.7 0 0zm-127.5-3.3c-4.7-15.9-3.6 7.2 0 0zm-52.5-3.5c5.5-8.3-15.6-29.4-15.9-10.3 5.8-6.5 2.5 7.7 9.7 5-4.3 8.3 5.6 1.3 2.3 6.7 3.1-1.2-2.5 5.8 3.9-1.4zm24.9 0.2c-3.3-3.9 1 5 0 0zm136.4-0.3c17.8-1.4-18 0.8 0 0zm11.7-1.1c-3.1-3.1-0.3 3.4 0 0zm-146.5-6.1c-4 1.4-5.1 9.7 0 0zm46.4 2.7c-5.2-6.2 1.5 7.3 0 0zm184.1 0.5c-5.4-3.9 1.8 4.5 0 0zm-90-0.9c-3.2 0-2.9 3.8 0 0zm-144.5-0.8c-2.8-1.9-2 3.6 0 0zm139.6 0.1c1.5-9.6-6.5 1.2 0 0zm13.4-0.1c-2.8-1.9-2 3.6 0 0zm33-4.7c-1.4-5.1-2.3 6.7 0 0zm-36-0.5c-2.2-7.6-2.1 3.7 0 0zm-162.6-3.5c-0.3-13.2-3.2 9.9 0 0zm153 1.5c-5.1-3-10.6 2.2 0 0zm0.6-4.2c-2.3-4-1.7 3.6 0 0zm6.5-1.1c1.5-4.7-4.9 4.1 0 0zm-162.5-5.2c-8.9-7.7-0.7 5.7 0 0zm150 0.1c-10 1.8-8.1-14.9-11.7-9.7 5.6 5.3-2.4 11.2 11.7 9.7zm71 0.3c6.2-1.7 19.2 1.1 4.3-4.7-11-3.1-27.9 1.6-8.6 5.3 1.4 0.3 3.4 0.7 4.3-0.6zm-3.1-3.4c5.7-2 6.1 1.7 0 0zm-58.5 1.1c-3.5-1.7-2.3 3.1 0 0zm3.3-2.1c-1.8-0.6 1.1 7 0 0zm4 0c-1.8-0.6 1.1 7 0 0zm-12.2 1.2c-6.8-2.4-4.5 3.1 0 0zm-5.5-2.9c-2.3-4-1.7 3.6 0 0zm-4-1.5c-7.5-5.8 3.4 5.6 0 0zm29.4 0.6c-3.1-6.9-5.4 3.8 0 0zm-13.4-1.1c-2-5.2-2.8 3.5 0 0zm3.5 0.1c-0.3-4.7-3.8 3.3 0 0zm-29.5-1.5c-4.8-6.7-2.2 2 0 0zm13.5-0.6c-5.3-3.7 1.1 3.4 0 0zm-13-2.9c-5.4-3.9 1.8 4.5 0 0zm24.9-0.3c-2.8-15.5-2.9 5.5 0 0zm47.3-0.3c-4.6-3.3 2.3 5.5 0 0zm-80.2 0.5c-13.6-2.5-7.9 0.7 0 0zm-35.5-1.1c-2-2.2-2.2 3.3 0 0zm22.2 0.4c-5.8-0.6 1.9 1.8 0 0zm17.8-0.3c-2.3-4-1.7 3.6 0 0zm15-0.5c-6.8-5.3 2.3 5 0 0zm-149-0.6c-5-3.9-5 3.6 0 0zm140.5-0.7c-14.4-5.3-3.7 3.5 0 0zm4.5 0.4c-6.8-7.9-1.5 1.1 0 0zm65-2.2c-2.8-1.9-2 3.6 0 0zm-69-3.5c-7.3-8.6 1.7 5.1 0 0zm11.4-0.7c-1.3-3.2-2.8 2.5 0 0zm73.3-3.5c-1.8-0.6 1.1 7 0 0zm-74.2 0.3c-3.1-3.1-0.3 3.4 0 0zm-8.5-0.4c-6.8-7.9-1.5 1.1 0 0zm8-4.1c-5.7-4.1 3.4 6.5 0 0zm-9 0.1c-6.8-7.9-1.5 1.1 0 0zm2.5-1.5c-5.4-3.9 1.8 4.5 0 0zm2.6-0.8c-3.6-4.6 2.7 7.4 0 0zm-12.2-9.9c1.2-9.4-4.5-11.5-0.5 1.1-1.5 3.6 2.8-0.6 0.5-1.1zm4.1-1.4c-2.3-4-1.7 3.6 0 0zm-5-11c-8.3-10.3-1.1 4.3 0 0zm100.7-3.8c-1.6-0.2 0.9 9.1 0 0zm-114.5 0c-2-11.7-1.3 4.9 0 0zm7.2-1.6c9.4 1.5-4.8-9.8 0.1 1.3l-0.1-1.3zm-11.2-3.8c-3.9-2.8 2.4 6.2 0 0zm9-0.7c0.3-3.1-9.5-5.7 0 0zm-9.2-3.1c-7.2-9.1 2.7 6.9 0 0zm112-2.5c-2.3-5.6-1.2 5.1 0 0zm-266 412c3.2-7 12.4-11.9 4.9-10.2 11.2-10.1 6.3 5.2 0 7.9 0.3-1.8-4 4.9-4.9 2.3zm5-4.6c-2-2.2-2.2 3.3 0 0zm159.3 3.5c4.9-1.7 0.7 2 0 0zm-4.5-2.1c10.6 0.1-0.1 0.6 0 0zm11.4-1.4c-8.3-8.3 8.7 0.6 6.8 1.1 8.6 1.6-7 0.6-6.8-1.1zm-61.2 0.1c6.2-3.5 8.7 1.8 0 0zm-82-1.8c-13.6-6.1 16.2 0.4 0 0zm1.2-1.9c-5.8-0.6 1.9 1.8 0 0zm129-0.1c7-3.5 12.8-2.4 1.8 0.3 0.2 2.1-2.6 1.7-1.8-0.3zm15.1-1.8c4.9-1.7 0.7 2 0 0zm-59.5-2.1c11.4-0.4-1.1 1.2 0 0zm49.8-2.2c-14-8.9 17.8 3.3 0 0zm-69.6-1.1c-2.9-3.6 5.6 3.3 0 0zm57.8-2.7c11.4-0.4-1.1 1.2 0 0zm-94.8-1.9c-17.3 0.9-56.6-6.2-45.4-28.2 8.1-2.6 25.4 1.4 6.3 0.3 6.2 1.3-8.3 2.7 4.1 2 10.5-1.4-8.9 4 6.2 2.4 11.9 0.4-12.7 2.3 2.3 2 11-0.4-7.5 4.1 6.2 2.4 6.9 4.7 24.7 17.9 5.4 12.2-7.8 0-37.5-11.7-24-15.2-2.1-5.5-15.2 4.9-2.9 10.8 15.7 12.6 40.2 6.5 56.2 12.7-4.8-0.5-9.6-0.9-14.4-1.4zm-23.7-11.1c-7.2-1.1 0.6 1.8 0 0zm-7.8-6.3c-11.9-3.5 4.6 3.3 0 0zm120.9 17.2c3.8-7.6 4.8 7.5 0 0zm-0.8-4.2c0.9-11.2 6.9 4 7.2 1.3-1.3-0.6-7.9 1.8-7.2-1.3zm17.3 0.3c9.3-6.5 9 4 0.8 0.2l-2.5 1.1 1.7-1.3zm-28.9-1.2c-14-8.5 19.9 3.7 0 0zm-11-1c-6.7-6.5 13.2 3.8 0 0zm193-2.2c-10-8.8-8.5-9.2 4-8.6 12.9-0.9 14.8 2.4 0.7 1-10.2-2.2-8.9 5.6-0.2 4.4-8.7-2.1 1.6 11.2-4.5 3.2zm-175.5 1.1c-9.9-3 11.6 1.7 0 0zm20.5 0c7.3-3.8-1.7 4.5 0 0zm-48-0.9c10.5-5.2 4.4 4 0 0zm14-0.1c1.6-3.1 2.2 3.4 0 0zm43.7-1.2c-9.3-0.6-22.1-1.6-5-2.1 13.1-1.9 25.2 3.5 5 2.1zm14.2-0.1c13.3-3.6 14.6 2.7 0 0zm24.4 0.7c4.9-1.7 0.7 2 0 0zm-99-2.1c9.8-1.3-0.4 1.7 0 0zm15.5 0c12.7-0.8 2.8 1.3 0 0zm17.2-0.3c7.8-3.6-3.1 3.3 0 0zm-26-0.4c5-4.3 2.1 2.2 0 0zm65.8-0.7c9.7-5.4 22.4 2.1 7-0.9 1.2 2.1-4.6 2-7 0.9zm142 0.4c7.1-1.1-0.7 1.8 0 0zm-225.5-0.9c4.9-1.7 0.7 2 0 0zm49.7-0.4c15.2-2.5 13.2 0.9-0.4 0.2l0.4-0.2zm-43.7-0.7c10.7-0.5 2.9 1 0 0zm98-0.4c9.3-1.7-0.7 3.7 0 0zm-33.6-0.6c14.1-0.5-2.5 1.3 0 0zm8.1 0c7.1-1.1-0.7 1.8 0 0zm107.7 0c12.6-5.6 13.6-7.3 0.2-6.2-23.7-1.6 16.4-1.5 21.9 0.7 16.5-0.7-17.7 2.4-22.1 5.5zm-185.7-1c10.6 0.1-0.1 0.6 0 0zm46 0c7.1-1.1-0.7 1.8 0 0zm35.7-0.3c4.8-4.4 6.4 4.2 0 0zm26.5 0.4c9.1-2.3-33.4-6-14.9-6.4 1.1 6.4 31.5 0.1 14.9 6.4zm-55.7-1.1c10.7-0.5 2.9 1 0 0zm-12.8-1.3c10.1-2.9 6 1.5 0 0zm32.5 0c-18.9-0.9 11.7-1.3 5.4 0.5l-2.5-0.3-2.9-0.2zm94.5 0c3.9-7.3 6.3 3.1 0 0zm-148.8-0.7c14.1-0.5-2.5 1.3 0 0zm37.6-1.3c-5-0.6-4.8-2.9-15.2-3.4 4.2-6.6 24.5 8.3 15.2 3.4zm120.1 0.9c12.4-1.3 7.5 3.2 0 0zm-148.9-1c10.7-1.6 30.9-0.2 8.5 0.3-1.8-0.2-7.6 0.7-8.5-0.3zm207 0.1c-4.6-3.3 7.4 2.7 0 0zm-223.2-0.6c4.9-1.7 0.7 2 0 0zm150.5-0.3c-11-0.2-17.1-1.7-2.7-3.8-13.1-3.9-34.2 2.2-44.3-2.5 13.1-16.1-30.3-0.5-27.6-6.3 10.9-1.3 38.5-7.4 32.3 5.8 9.9 2 41.9-1.7 39.9 4.2-13.3 1.6 34 3.1 7.4 2.8l-2.4-0.1-2.6-0.1zm-145-0.8c7.1-1.1-0.7 1.8 0 0zm209 0c7.1-1.1-0.7 1.8 0 0zm-203.1-1c14.1-0.5-2.5 1.3 0 0zm172-1.7c5.5-2.4 28.1 1.5 9.5 0.9-2.6-0.7-7.2 0.8-9.5-0.9zm29.3 0.3c-6.5 0.3-40.3-6.6-21.9-7.3-17.2 4.4-29.7-3-47.6 0.7 12.6-5.5 28.1-3 33.8-0.8 4.8-1.9 26.6-5 17.2-1.7 11.3-0.5 7.8 1.2 5.2 2 12.8-0.3-5.3 2.1 0.8 3.9 8-0.3 17.8-2.7 31-0.2-7.8 1.2-16.2-0.2-6 4.2-4.2-0.1-8.3-0.5-12.5-0.8zm3.3-1.6c-10.6 0.1 0 0.6 0 0zm-22-4c-7.2-1.1 0.6 1.8 0 0zm-198 5.1c4.9-1.7 0.7 2 0 0zm186.7-1.4c7.8-3.6-3.1 3.3 0 0zm-8.2-0.7c7.1-1.1-0.7 1.8 0 0zm15.5 0.1c4.9-1.7 0.7 2 0 0zm-195.9-1.5c18.6-0.6 10.2 2.4 0 0zm-89.1-2.5c4.9-1.7 0.7 2 0 0zm85.5-1.1c10.4-0.9 4.2 1.4 0 0zm-117-1c10.4-0.9 4.2 1.4 0 0zm-5.4-6c-1.1-4.7 20.8 0.4 5.1-0.1l-4.4 0.2-0.7-0.1zm1.2-3.2c1.2-4.5 22-2.7 5.4-1.5-9.1 0.2 6.2 3.7-5.4 1.5zm8.2-0.8c7.1-1.1-0.7 1.8 0 0zm-8.3-3.3c11.3-3 2.4 1.6 0 0zm9.3-1.7c11.4-0.4-1.1 1.2 0 0zm88.9 0c14.1-0.5-2.5 1.3 0 0zm-8-2c14.1-0.5-2.5 1.3 0 0zm-82.4-1c10.8-0.8 2.3 1.4 0 0zm304.5 0c7.1-1.1-0.7 1.8 0 0zm8.2-0.3c10.9-5.2-16.4-0.9 1.7-4.1 8.3-1.2 27.3-6.9 29.4-2.4-9.9-4.3-38.5 9.3-12.6 5.9 8.7-1.9 39.36-1.8 14.8 1.1-11 0.1-22.4 1.3-33.3-0.5zm38.2-0.7c-5.8-0.6 1.9 1.8 0 0zm-147.6-0.2c11.3-4.7 5.7 0.7 0 0zm90.9-0.1c7.2-3.3 9.1 1.7 0 0zm37.3-3.7c11.4-0.4-1.1 1.2 0 0zm-144.5-0.9c4.9-1.7 0.7 2 0 0zm4-1c4.9-1.7 0.7 2 0 0zm109.3-0.4c10.9-3.6 31-0.4 8.7-0.5-1.2-1.5-10 3.4-8.7 0.5zm-115.3-0.6c4.9-1.7 0.7 2 0 0zm6.7-1.4c16.1-2.7 4 1.1 0 0zm94.1 0.6c10.5-4.1 3.5 1.6 0 0zm8.5-0.5c-1.4-5.9 11.5 0.8 0 0zm-109.3-0.7c4.9-1.7 0.7 2 0 0zm118.2-0.4c-3.2-3.9 14.5 0.7 0 0zm-17-1.3c-1.2-3.3-12.9 0.7-3.1-2.4-21.6 1 0.1-7.5 4.6-2.5-18.2 0 15.9 2.3 4.4 3.8-1.8-0.9-6.9 3.9-5.9 1.1zm30 0.4c0.3-0.7-26.6-6.7-5.2-3.5 6.2-0.1 17.5 6.2 3.6 4l1.6-0.5zm14-1.1c2.7-1.2-14.9-1.7-1.4-1.8 17.1 0.7 10.2 2 1.4 1.8zm11.8 0.4c4.9-1.7 0.7 2 0 0zm-76.5-3.1c7.1-1.1-0.7 1.8 0 0zm29.7-0.3c12.9-3.6-3.2 3 0 0zm27.2-0.7c14.1-0.5-2.5 1.3 0 0zm19.1 0c7.1-1.1-0.7 1.8 0 0zm-48.8-0.8c1.8-3.3 4.9 2.2 0 0zm20.3-0.2c9.8-1.3-0.4 1.7 0 0zm18.4 0c14.1-0.5-2.5 1.3 0 0zm-67.9-1c11.4-0.4-1.1 1.2 0 0zm7.5-0.9c4.9-1.7 0.7 2 0 0zm9.5-0.1c7.1-1.1-0.7 1.8 0 0zm4.7-0.7c-11.5-5.2 18.8 3.4 0 0zm-9.7-0.3c7.1-1.1-0.7 1.8 0 0zm34.9-1c12.7-0.8 3.4 1.3 0 0zm-50.2-1.3c10.1-2.9 6 1.5 0 0zm12.8 0.4c4.9-1.7 0.7 2 0 0zm3.9-1.6c3.4-5.1 1 4.6 0 0zm8.9 0.8c6.5-5.6 5.3 1.7 0 0zm7.9-1c5.8-2.7 8.5 2.2 0 0zm9.8-0.3c7.1-1.1-0.7 1.8 0 0zm21.2-0.3c0.9 0.2 0.5-9-5.7-2.9 2.5 1.9-13.1-3.6-7.7-4.7-21.5 1.5 18.6-2.4 4.1-15.7-8.1-8.2-9-6.1 2-4.1 1.9-7.3 31.3 3.5 17.3-4.5-2-10.7 36.17 4.7 11.9 2.2-7.8 2.3 14.82 2.1 7.6 6.7 6.87 9-20.5-14.9-18.9 5.1 0.3 8.6 9.8 14.5-3 6.2-0.9-1.3-14.2-12.9-12-2.5 13.1-0.1-15.2 2.4 1.6 8 9.9-4.1 31.9 9.3 11.9 1.7-15.3 4.4 16.2 6.1-5.3 5l-3.8-0.5zm-6.7-6.7c-7.2-1.1 0.6 1.8 0 0zm13.7-15.2c7.6-14.5-21-2.3-2.4 2l2.4-2zm22-9.5c-5.9-6.4-23.7 0.7-7.5-0.6-0.2-3 6.8 5.9 7.5 0.6zm-44.2 30.7c11.4-0.4-1.1 1.2 0 0zm-25-1c7.1-1.1-0.7 1.8 0 0zm7.6-1.9c2.7-5.2 11.9-2.2 4.4 0.3 11.5 0.2-5.2 4.3-4.4-0.3zm59.7 1c-16.2-1.2-1.6-5.9 3.7 1.4l-3.7-1.4zm-49.7-0.6c8.8-3 14.6 4.3 0 0zm-27.1-0.4c4.9-1.7 0.7 2 0 0zm-4.8-1.3c-2.7-3.3 14.7-0.2 17.5 0.5-1.5-1.2-24.5 0.4-17.5-0.5zm27.3-3.5c-8.8-5.9 19-10.1 10.1-6.2-13.1-6.7-2.1 9.3-10.1 6.2zm32.1-0.7c-8-6.2 12 7.1 0 0zm-10.4-0.5c-5-5.1 16.1 4 0 0zm-37-19.5c-1.3-5 3.2 3.8 0 0zm21.8-1.5c4.9-1.7 0.7 2 0 0zm7.5-0.1c7.1-1.1-0.7 1.8 0 0zm-1.4-2.9c-0.5-3.6 13.3 3.3 0 0zm15.6 0.7c-7.7-3.7 14.5 2.3 0 0zm-24.5-3.2c-10.9-0.2 8.8-3.2 11.8-1-15.2-7.7 19.6 3.4 0 1.5-3.9 0.1-7.9-0.1-11.8-0.5zm21.3-4c-16.6-11.4 19.6 7.9 0 0zm15.5 2.5c4.9-1.7 0.7 2 0 0zm-6.3-1.5c-0.3-2.2 9.5 3.2 0 0zm-34.9-6.5c-14.6-9 17.9 7.4 0 0zm13.7 1.9c11.4-0.4-1.1 1.2 0 0zm-6-1c7.1-1.1-0.7 1.8 0 0zm26.5-3.9c4.9-1.7 0.7 2 0 0zm-71.3-4.9c5.5-3.6-2.3 4.6 0 0zm73-9.5c2.9-3.4 4.5 1.9 0 0zm-93.9-1.4c0.4-4.4 0.9 3.7 0 0zm83-8.1c2.2-7.9 7.2-8.5 0 0zm2.5-0.8c3.7-5-1.3 4.6 0 0zm-91.2-3.2c4.9-13.6-1.2 9.6 0 0zm87.7 0.5c2.3-8.9 4-5 0.1 0.3l-0.1-0.3zm5.5-1.3c3.7-5-1.3 4.6 0 0zm-0.6-4.2c2.9-9.4 2.2 1.2 0 0zm-166.7-11.9c-9.1-7.5 37 3 13.4-0.3 5.5-4.5-11.1 4.1-13.4 0.3zm4.9-0.3c-5.8-0.6 1.9 1.8 0 0zm34.6-1c7.1-1.1-0.7 1.8 0 0zm6.3-0.7c11.6-4 4.9 1.6 0 0zm-27-2c0.4-4.4 0.9 3.7 0 0zm2.6-3.7c2.9-5.6-0.6 6.4 0 0zm2.7 0.8c2.7-2.6 7.5 0.7 0 0zm-3.8-5.3c-2.6-7.3 3.7 4.7 0 0zm-22.6-6.9c6.5-8.9 5.1-2 0 0zm67.7-5.2c14.1-0.5-2.5 1.3 0 0zm-52.6-19.7c-10.8-22.6 13.1 2.6 0 0zm7.9-17.1c-9.2-15.7 24.1 7.1 1.8 3l-0.9-1.1-0.9-1.9zm-37.2-13.2c7.1-1.1-0.7 1.8 0 0zm4.3-0.7c10.5-4.1 3.5 1.6 0 0zm8.2-1.2c4.9-1.7 0.7 2 0 0zm22.7-3c-11.8 2.8-1.7-10.7-0.7-5.8-0.1-3.1 8.9 11.2 0.7 5.8zm-28 0.2c11.2-3 7.5 1.6 0 0zm-12.7-1.3c9.8-1.3-0.4 1.7 0 0zm43.8-1.7c-0.9-8.6 11.4 2.1 0 0zm12.7-0.3c7.1-1.1-0.7 1.8 0 0zm-50.4-4.2c7.9-2 5.7 3 0 0zm5.8-1.3c-11.6-1.8-18.9-0.8-3.4-1.9 3.9-1.1 10.6 5.7 3.4 1.9zm-9.1-4.8c6.5-1.8 10.6 3.1 0 0zm-14.1-1c8.4-3.4-1.4 4 0 0zm8.5-1c-0.1-3.6 4.6 3.7 0 0zm116.2-1.7c14.1-0.5-2.5 1.3 0 0zm9.1 0c11.4-0.4-1.1 1.2 0 0zm-119.8-1.3c8.4-3.4-1.4 4 0 0zm26.5 0.5c11.3-2.7 13.1 1.4 0 0zm-15.4-0.9c9.7-3.5 7.8 2 0 0zm30.4-0.6c-0.2-4.8 8.6 5.1 0 0zm74.2-1.7c14.1-0.5-2.5 1.3 0 0zm-110.7-2.3c9.6-5 5.9 1 0 0zm14.3 0.3c9.8-1.3-0.4 1.7 0 0zm17 0.1c4.9-1.7 0.7 2 0 0zm66.7-2.4c2.5-7.3 0.6 6.7 0 0zm12 1c-2.5-2.6 17.8 1.4 3.4 0.6l-3.4-0.6zm-119.5-1c9.3-3.2-4 3.1 0 0zm21.3-0.7c7.1-1.1-0.7 1.8 0 0zm13.5-0.6c14.1-1.1-1 3.1 0 0zm14.4-0.4c14.1-0.5-2.5 1.3 0 0zm-46-1c14.1-0.5-2.5 1.3 0 0zm13.6-1c9.8-1.3-0.4 1.7 0 0zm16.5-1.1c15.2-0.6 14.3 1.1 0 0zm-29.5-1.9c17-0.7 5.9 1.2 0 0zm14.8-0.7c11.8-2.6 16.6 0.9 0 0zm28.2-1.3c9.8-1.3-0.4 1.7 0 0zm61.4-0.7c-9.3-4.7 5.1-1 0 0zm-97.7-1.9c10.3-1.8 41.7 0.1 15.3 0.4-4.3-0.1-28.7 1.3-22.3 0.4 2.3-0.3 4.7-0.5 7-0.8zm89.6-0.7c3.8-16.9 5.8 3.2 0 0zm-55.8-0.7c11.4-0.4-1.1 1.2 0 0zm66.2 0.1c2-2.8 4.4 1.4 0 0zm68.6-1.7c3.7-5-1.3 4.6 0 0zm-168.8-0.4c7.1-1.1-0.7 1.8 0 0zm166.7-12.1c-4.7-19.2 4.8-4 0.8 7.3-1.2-2.3-0.5-4.9-0.8-7.3zm-78.7 7.2c-3.3-5.3 4.6-5.7 0 0zm-225.6-6.9c0.4-6.3 0.7 5.8 0 0zm146.1-3.2c9.8-1.3-0.4 1.7 0 0zm8 0c10.8-0.8 2.3 1.4 0 0zm16 0c10.8-0.8 2.3 1.4 0 0zm-35.6-1c14.1-0.5-2.5 1.3 0 0zm9-1c12.7-0.8 3.4 1.3 0 0zm13.1 0c11.4-0.4-1.1 1.2 0 0zm12.4-0.1c10.5-0.6 20.6 0.7 4.6 0.4-1 0-8.6 0-4.6-0.4zm-13.1-1.7c17.2-2.4 15.2 2 0 0zm24.2-1.2c10.8-0.8 2.3 1.4 0 0zm-72-5.9c4.9-1.7 0.7 2 0 0zm34.2-0.4c-8.3-0.2-16.7-0.4-25-0.6 18.3 0.2 36.8-0.9 55 0.6-9.1 1.6-20.2-0.3-30 0zm-42.7-2.7c11.4-0.4-1.1 1.2 0 0zm22.9-1c14.1-0.5-2.5 1.3 0 0zm13.1 0c14.3-0.6 7.7 1 0 0zm22.5-1.1c11.1-0.6 20.5 0.7 4.1 0.4-1 0-8.3 0-4.1-0.4zm-36-2c9.6-0.8 15.2 1.2 0 0zm28-0.9c10.8-0.8 2.3 1.4 0 0zm12.5 0c10.6 0.1-0.1 0.6 0 0zm63.4-2.3c0.6-6.8 0.6 6.8 0 0zm-130.5 1.3c14.1-0.5-2.5 1.3 0 0zm13.6-1c9.8-1.3-0.4 1.7 0 0zm11.5 0c7.1-1.1-0.7 1.8 0 0zm8.3 0.3c7.6-1.2 38.9-1.2 14.9 0.2-5 0-10 0.5-14.9-0.2zm105.9-1.6c-8.6-10.1-18.3-23.9-31.6-35.7-10.2-6.1-21.9-18-5.7-6.8 9.2 8.9 18 20 28.5 26.7 8.8-1.4 31.8-0.2 9.2 2.6-14.8-0.4 0.7 5.4 1.2 15.2l-1.6-2zm-68.7 0.3c14.3-0.4 6.8 0.8 0 0zm-10.6-4c14.1-0.5-2.5 1.3 0 0zm11.6 0c10.8-0.8 2.3 1.4 0 0zm-43-2.1c10.4-0.5 36.1 0.4 10.7 0.4-1.6-0.1-17.7 0-10.7-0.4zm-29.5-0.9c10.4-0.9 4.2 1.4 0 0zm66.9 0c12.7-0.8 3.4 1.3 0 0zm72.6 0c10.8-0.8 2.3 1.4 0 0zm-199-0.9c4.9-1.7 0.7 2 0 0zm86.9-0.2c10.5-0.6 20.6 0.7 4.6 0.4-1 0-8.6 0-4.6-0.4zm156.1-3.2c0.5-8.8 0.5 8.8 0 0zm-228 2.3c10.8-0.8 2.3 1.4 0 0zm21.5 0c7.1-1.1-0.7 1.8 0 0zm165-1c10.4-0.9 4.2 1.4 0 0zm2.5-3c9.8-1.3-0.4 1.7 0 0zm37.3-4.9c-1.5-6.9 3.9 4.6 0 0zm-202.3-0.1c9.8-1.3-0.4 1.7 0 0zm12.2-0.2c8.6-2.8 24.5 1.6 6.4 0.7l-2.7-0.1-3.7-0.6zm42.3 0.2c14.3-0.6 7.7 1 0 0zm-75-1c14.3-0.6 7.7 1 0 0zm52.5 0c9.8-1.3-0.4 1.7 0 0zm40 0c14.3-0.4 6.8 0.8 0 0zm17.5 0c12.7-0.8 2.8 1.3 0 0zm-36-1c11.4-0.4-1.1 1.2 0 0zm84.7-0.3c0.2-3.6 3 3.2 0 0zm-159.2-0.8c9.3-0.5 28 0.5 8.2 0.4 0.2-0.2-13.2 0.3-8.2-0.4zm38 0.1c17-0.7 5.9 1.2 0 0zm56.4 0c14.1-0.5-2.5 1.3 0 0zm6 0c14.1-0.5-2.5 1.3 0 0zm9.1 0c12.7-0.8 2.8 1.3 0 0zm64-0.1c15.2-0.6 14.3 1.1 0 0zm51.5-4.7c0.5-12.4 0.7 11.4 0 0zm9.9 3c0.4-6.3 0.7 5.8 0 0zm-167.4 0.8c10.4-0.9 4.2 1.4 0 0zm163.4-2.3c0.6-6.8 0.6 6.8 0 0zm-246.4 1.3c14.3-0.6 7.7 1 0 0zm15.7-0.4c8.2-1.6 31.9-0.7 11 0.2-2.4-0.2-11.3 1-11-0.2zm81.8 0.4c14.3-0.4 6.8 0.8 0 0zm24.5 0c14.3-0.6 7.7 1 0 0zm-75.5-1.1c9.2-0.5 29.1 0.5 8.7 0.4-2.1 0-16.9-0.2-8.7-0.4zm29.3-0.4c9-3.8 9.3 4.4 0 0zm107.2 0.5c7.1-1.1-0.7 1.8 0 0zm6.2-0.3c6.9-2 18.1 2.7 2.6 0.6l-2.6-0.6zm-102.7-0.7c10.7-0.5 2.9 1 0 0zm120.5 0c7.1-1.1-0.7 1.8 0 0zm-26.6-0.8c6.5-2.5 24.1-9.5 8-1.6-2.2-0.3-6.1 2.6-8 1.6zm56.2-8.6c0.8-22 2.1 18.8 0 0zm-212.1 6.4c9.8-1.3-0.4 1.7 0 0zm9.9 0c21.9-0.2 4.2 0.7 0 0zm23.1 0c10.8-0.8 2.3 1.4 0 0zm169.4-1.4c5.9-3.3-2.6 3.4 0 0zm23.3-1.3c-6.8-14.4 4.1-0.3 0 0zm-223.2-0.3c11.4-0.4-1.1 1.2 0 0zm19.4 0c21.9-0.2 4.2 0.7 0 0zm134.8 0.6c11.1-9.6 12.4-33.3 2.4-34.1 19.9 3.2 4.3 26.1-2.4 34.1zm62-1.4c1.3-4.7 2.1 3.8 0 0zm-256.7-0.2c10.8-0.8 2.3 1.4 0 0zm20.7-1.3c11.3-0.6 33.7-1.5 37.7-0.5-9.1 0.3-38.3 1.5-37.7 0.5zm192.2-0.6c11.2-6.5-7.9-36.5 4.4-15.1 3.5 3.8-4.8 22-4.4 15.1zm-219.6-1.3c12.7-0.9 20.4 1.4 4 0.7l-2.5-0.1-1.5-0.6zm27.7-0.9c10.9-0.6 17.4 0.8 1.7 0.4 1 0.3-6-0.3-1.7-0.4zm22.5-0.9c13.4-0.7 8.3 1.1-1 0.1l1-0.1zm186.5-1.1c-7.6-17.3 6.1 4.1 0 0zm-124.3-0.2c-3.2-3.4 8 3.7 0 0zm8.5 0c0.2-3.6 3 3.2 0 0zm-93.2-0.8c11.1-0.6 20.5 0.7 4.1 0.4-1 0-8.3 0-4.1-0.4zm97.5-0.8c16.5-7.4 1.1 2.3 0 0zm-114.5 0c4.9-1.7 0.7 2 0 0zm110.4-1.8c-5.1-1-12.5-0.3-6.9-7-1.1 9 24.5 4.4 6.9 7zm17.3-1.6c-2.9-3.6 5.6 3.3 0 0zm4.7-1.1c5.9-3.3-2.6 3.4 0 0zm-119.6-1.3c8.6-1.1 48-1.4 20.1 0-6.7 0.1-13.4 0.6-20.1 0zm111.2-0.3c10.7-0.5 2.9 1 0 0zm-66.6-2c14.1-0.5-2.5 1.3 0 0zm59.1-1c12.7-0.8 2.8 1.3 0 0zm-98.3-0.8c9-1.2 44.5-0.9 17.2 0.2-5.7 0-11.5 0.5-17.2-0.2zm44.8-0.2c-3.7-4.7 8.1-0.9 0 0zm94.3-0.8c-6.1-5.7 8.1 5.4 0 0zm-57.5-2.5c-3-5.3 13.7 7.1 0 0zm18.6 1.3c14.1-0.5-2.5 1.3 0 0zm48.9-1.6c-2.4-7.5 7.9-5.5 10.1-7.8-2.8-1.6-12.5 14.7-10.1 7.8zm-157.9 0.6c12.7-0.8 3.4 1.3 0 0zm29.6-0.9c4.9-1.7 0.7 2 0 0zm8.5-0.1c13.4-0.7 8.3 1.1-1 0.1l1-0.1zm65 0c7.1-1.1-0.7 1.8 0 0zm-45.1-1c14.1-0.5-2.5 1.3 0 0zm55 0c14.1-0.5-2.5 1.3 0 0zm-100-1c12.7-0.8 3.4 1.3 0 0zm15.6-0.1c9.6-0.8 15.2 1.2 0 0zm48.7-0.3c6.7-1.7 15 3.2 0 0zm-31.2-0.6c14.3-0.6 7.7 1 0 0zm16.7-0.3c4.8-4.2 5.4 3.3 0 0zm40.3 0.3c11.4-0.4-1.1 1.2 0 0zm-77-2c10.4-0.9 4.2 1.4 0 0zm56.4 0c21.9-0.2 4.2 0.7 0 0zm-42.9-1c10.7-0.5 2.9 1 0 0zm13 0c10.7-0.5 2.9 1 0 0zm11.5 0c10.6 0.1-0.1 0.6 0 0zm38 0c10.6 0.1-0.1 0.6 0 0zm-22.1-1c12.7-0.8 3.4 1.3 0 0zm-66.9-1c11.4-0.4-1.1 1.2 0 0zm16-1c10.4-0.9 4.2 1.4 0 0zm11.6-0.4c8.5-1.8 25.9 0.3 6.4 0.4l-2.6-0.1-3.8-0.3zm133-0.9c15.1-5-6.1 5 0 0zm-107.1 0.2c9.6-0.8 15.2 1.2 0 0zm-61.3-1.2c5-1.5 45.6-0.8 19.3 0.5-6.4 0.3-12.9 0.4-19.3-0.5zm78.7 0.3c14.1-0.5-2.5 1.3 0 0zm8 0c14.1-0.5-2.5 1.3 0 0zm-45.9-2c10.4-0.9 4.2 1.4 0 0zm12.5 0c14.3-0.4 6.8 0.8 0 0zm35.2-0.3c9.3-3.2-4 3.1 0 0zm-74.2-0.6c4.9-1.7 0.7 2 0 0zm60.2-0.4c-2.4-2.6 15.6 2.9 0 0zm-51.5-1c9.7-0.8 42.3-1.5 37.8-0.4-12.6 0.3-25.2 1.3-37.8 0.4zm55.3-0.6c4.9-1.7 0.7 2 0 0zm-10.2-0.8c11.4-2.8 10.8 0.8 0 0zm-11-3c-13 0.7-12.2-3.3-5.1-2.6 1.6 2.6 22.9-10.7 6.6 0.5 7.4-2 2.4 3.8 14-1.5 23.3-7.9-17.3 6.6-3.5 3.6 7.8-1.8 26-8.6 8.2-1.2-6.5 2.9-13.4 2.2-20.2 1.2zm26.4-0.6c13.7-5.8-9.1 5.9 0 0zm5.5 1c7.8-3.6-3.1 3.3 0 0zm7.1 0.7c12.3-10.3 0.4 1.7 0 0zm131-2.5c-2.4-7.3 5 8.9 0 0zm-191.9-0.9c-1.5-0.3 21.6-5.1 6.8-5.3 20.4-6.5 2.5 8.5-6.8 5.3zm59.2 0.2c9.8-5-4.8 4.1 0 0zm90.4-0.2c7.1-1.1-0.7 1.8 0 0zm-94.8-0.7c5-4.3 2.1 2.2 0 0zm-60.4-1.5c9.4-5.1 15.6-1.6 1.3 0.8l-0.8-0.2-0.5-0.6zm26.1-1.2c8.2-5.8-7.1 7.1 0 0zm11.1 0.9c11.9-5.4 14.4-0.3 0 0zm116.5 0.6c4.9-1.7 0.7 2 0 0zm5.7-0.4c-8.4-3 10.5 1.6 0 0zm-9.7-0.6c4.9-1.7 0.7 2 0 0zm14.2-0.4c-0.1-3.6 4.6 3.7 0 0zm-16.5-1.3c-16.3-1 5.5-3.6 5-1.1 12.9-0.3 1.9 2.4-3.6 1.7l-1.4-0.6zm-30.2-0.4c7.1-1.1-0.7 1.8 0 0zm5-1c7.1-1.1-0.7 1.8 0 0zm-12.1-1c14.1-0.5-2.5 1.3 0 0zm17.1 0c7.1-1.1-0.7 1.8 0 0zm-7-1c7.1-1.1-0.7 1.8 0 0zm12.5 0.1c4.9-1.7 0.7 2 0 0zm9.5-0.1c7.1-1.1-0.7 1.8 0 0zm-32.8-1.5c11.4-3.6 17.1 0.4 0 0zm15.1 0.8c11.6-4 4.9 1.6 0 0zm12.7-0.3c7.1-1.1-0.7 1.8 0 0zm-4-1.5c5.8-2.9 0.1 2.8 0 0zm-30.5-1.4c9.5-3.1 7.4 1.2 0 0zm11-2c4.9-1.7 0.7 2 0 0z"></path></g><metadata></metadata></svg> 