<?xml version="1.0" encoding="UTF-8" standalone="no"?> <!-- Created with Inkscape (http://www.inkscape.org/) --> <svg xmlns:inkscape="http://www.inkscape.org/namespaces/inkscape" xmlns:rdf="http://www.w3.org/1999/02/22-rdf-syntax-ns#" xmlns="http://www.w3.org/2000/svg" xmlns:cc="http://web.resource.org/cc/" xmlns:dc="http://purl.org/dc/elements/1.1/" xmlns:sodipodi="http://sodipodi.sourceforge.net/DTD/sodipodi-0.dtd" xmlns:svg="http://www.w3.org/2000/svg" xmlns:ns1="http://sozi.baierouge.fr" xmlns:xlink="http://www.w3.org/1999/xlink" id="svg2061" sodipodi:modified="true" sodipodi:docname="drunken_duck_dog_eye.svg" viewBox="0 0 613.2 514.16" sodipodi:version="0.32" inkscape:output_extension="org.inkscape.output.svg.inkscape" inkscape:version="0.45" sodipodi:docbase="/home/evans/Desktop"><g id="layer1" inkscape:label="Ebene 1" inkscape:groupmode="layer" transform="translate(-72.839 -625.17)"><path id="path2158" style="fill:#000000" d="m555.05 1138.5c-0.34-2.8 18.68 2.9 0 0zm-27.25-3.7c-7.62-5.3 13.3 3.2 0 0zm11.75-6.8c-27.8-8.1 30.1 2.9 0 0zm33.21-1c-10.68-10.2 35.39-1.2 6.33-0.3 3.76 5.5-5.59 1.4-6.33 0.3zm-17.68-1.1c-25.69-4.5 8.47-5.8 11.15 2.3-3.79-0.4-7.45-1.5-11.15-2.3zm-18.53-5.4c-4.63-3.4 14.63 3.3 0 0zm-18-1c-3.09-3.6 9.72 3.6 0 0zm35.5-0.1c-26.4-0.6 33.35-1.4 0.45-3.9-14.55-2.7-26.91-12.5-4.39-4.1 13.17 7.6 30.49 2.9 7.66-0.8-18.9-7.4-46.22-17.8-58.01-29.2 22.21 5.3 8.56-6.9-1.14-14.3 13.5 1.8-0.15-6.8 18.58-0.5 25.93 6.5 50.72 17.5 77.8 18.5 12.37 8.6-8.33 13 11.79 18.4 0.45 7.5-33 4.2-8.57 11.6-18.17 0.8-27.27 4.8-44.17 4.3zm25.73-5.6c7.1-5.4-20.4 2.5 0 0zm-5.42-16.8c-10.73-0.2-44.18-10.8-42.76-5 13.73 3.9 28.56 6 42.76 5zm-23.81-11c-10.77-9-46.06-17.1-15.17-4.6 4.72 1.3 10.45 5.2 15.17 4.6zm-17.45 28.4c-25.49-9.9 31.94 4.1 0 0zm-14.55-2.9c-1.97-3.9 8.66 3.5 0 0zm-6.86-4.2c-6.77-4.8 23.89 2.5 0 0zm9.89-7.6c-18.27-8 13.03 2.2 0 0zm67.97-16.9c-25.09-2-46.52-10.1-66.06-23.4-20-13.8 28.62 2.9 39.56-2.3 19.05 1.7 17.87-4.3 0.01-2.9-15.99-1.6-40.43-3.5-48.75-15.2 15.28 2 17.79 4.8 22.52 7.4 24.53 1.7 50.56 2.6 73.13 12.3-1.97 10.1-50.1-0.7-17.51 6.4 19 2.1 20.52 5.3 10.27 13.8 4.19 5.7-10.04 4.7-13.17 3.9zm-25.5-15.9c-8.73-4.3-50.46-12.9-20.2-3.2 6.55 1.6 13.31 4.5 20.2 3.2zm43-13.4c-3.65-3.6 10.7 3.1 0 0zm-4.81-5c-17.49-5.6-32.97-13.4-36.12-18.1 13.41 7.9 64.74 5.5 39.24 18.7l-3.12-0.6zm3.31-9c-2.46-3.6-1.21 3.6 0 0zm-18.5-1c-3.59-3.8-1.24 3.9 0 0zm-16.71 8.4c-29.78-5.1 9.61-4.3 14.03-0.1-4.14 2.6-9.73 1.9-14.03 0.1zm20.71 0.6c6.32-1 0.11-0.9 0 0zm-36.3-7c-17.38-7.1 19.61 4 0 0zm17.3 0.3c-20.06-3.9-7.78-7.4 4.38 0.4l-4.38-0.4zm-39.68-3c5.59-0.9-1.72 1.7 0 0zm-15.82-3.1c-2.03-5.3 27.13 7.1 3.14 2.1l-3.14-2.1zm65.75-1.9c5.51-1.6 1 1.8 0 0zm-6.93-1c5.59-0.9-1.72 1.7 0 0zm31.18 0c-22.94-6.1-1-7.9 4.73 0.5l-4.73-0.5zm-55.18-3c5.59-0.9-1.72 1.7 0 0zm-233.79-6.4c-11.46-11.3-29.44-30.38-40.67-17.1-14.94-30.17-27.48 36.8-35.81 1.3 0.71-18.13-19.64-27.47-25.14-8.29-23.27-9.01-8.41-29.4-9.73-39.03-8.6-15.55-18.04 1.07-15.89 14.2-23.56-8.6 4.06 41.22-22.64 34.92-16.39 12.9-25.44-24.6-43.89-3.9-17.49-15.44-45.511-30.11-50.971-53.54 9.568-21.78 28.621-33.1 23.953-61.65 3.108-15.63 20.348-37.02 32.958-40.12 13.64 1.45 15.53-22.21 32.54-15.07 15.1-2.95 26.73 1.34 24.76-14.49 16-6.06 14.86-38.08 20.74-40.15 5.38-0.09-3.01-34.32 13.47-39.63-4.07 19.87 18.72 39.15 20.43 13.65-0.43 0.4 8.15 6.08 13.97 2.23 10.86-0.91 17.69-34.57 32.8-39.18 15.28 1.85 21.5-4.96 11.51-10.43 8.74-14.37 29.71-16.37 44.64-16.53 2.06-18.58 23.47-1.04 32.03-15.8 20.83-1.26 35.49-4.43 57.71 0.37 13.52-1.87 55.43-5.17 53.74 6.06 17.05 7.64 36.6 9.68 43.62 16.82 11.89 4.74 39.94 19.02 16.59 13.85 11.47 4.67 19.21 9.63 4.04 4.72 22.65 11.21 33.06 21.14 51.37 37.87 9.22 8.45 15.56 21.23 31.27 28 11.86 9.07 10.22 2.12 12.29-2.98 9.13 3.78 13.55-5.16 11.6 3.73 17.86 2.81 22.84 20.92-0.43 17.59-15.62-5.11-34.75 7.01-9.76 0.38-4.58 8.92 34.56-1.54 9.01 7.82-14.59 4.3-36.08 13.86-41.67 25.07 19.01-8.09 3.8 6.46-6.23 10.85-12.06 5.99-17.24 18.99-1.1 6.06 7.77 0.51 35.26-0.86 41.38-11.35-12.45 2.84-30.37 7.16-8.56-1.2 1.86-8.39-11-11.65 8.45-12.77 7.84 6.19 56.15-3.11 26.62 9.79-7.5 3.81-22.07 14.15-21.9 19.65 27.49 2.66-19.98 17.76-30.63 15.39-11.59 3.25-41.52 2.88-42.14 12.12 24.21-6.21 52.4-9.48 76.14-1.19-2.2 6.65-1.98 20.4-20.11 16.31-19.01 17.31-52.56 4.88-70.48 11.47 16.22-0.69 43.17 10.53 51.94 10.77-14.24-7.87-46.67-12.47-13.44-9.66 11.72-1.23 49.57 15.71 15.89 13.01-10.76-6.08-39.8-6.11-12.44-0.3 18.27-1.43 22.2 14.6 1.4 8.45-9.08-5.12-42.17-12.03-15.01-2.96 21.51 7.28 10.11 6.27-4.28 2.1 19.44 9.88-31.48-5.78-42.4-2.16-12.83-1.83-23.78 4.07-3.48 3.54 10.86 0.68 21.72 2.11 23.91-0.98 19.98 1.87 25.78 8.1 18.89 10.56 7.76-0.3 26.24-0.13 7.27 2.98 18.65 6.27-24.21 3.03-30.6-1.48-12.39-5.53-24.32-2.28-4.56 1.8 8.66 2.46 57.81 14.99 27.5 13.43 18.09 6.09-27.33 3.91-25-5.84-30.79 0.51 19.62 9.14 24.07 18.1-15.92 3.45-48.16-26.34-51.99-18.2-6.53-7.08-32.43-14.06-7.07-7.9 10.83 4.86 53.45 6.53 20.39-1.06-23.13-4.84-43.52-9.07-65.78-3.23-23.3-9.88-23.11 12 2.77 10.88 18.67 8.35 31.46-5.52 48.58 5.2 8.71 6.3 34.58 16.25 8.56 10.94-21.99-7.06 15.76 12.67-11.69 2.42 1.84 4.9 16.93 12.55-2.8 6.28-15.55-2.24-41.79-24.85-42.46-8.22 19.94 23.37-22.15-11.42-33.23-9.94-10.19-3.68-41.96-17.31-14.97-1.91-4.95 11.11 10.69 25.89-9.88 12.16-2.96 2.57-23.37 5.63-2.69 15.42-20.27-1.58-29.75-25.08-49.71-31.59-9.35-4.23-43.99-11.03-30.83 7.34 3.56 10.52 19.16 17.17 14.13 4.84 11.95-11.8 37.13 18.89 39.79 25.08-7.34-3.08-36.41-31.82-17.4-8.94 21.47 15.98-13.14-0.95-6.9 4.08 10.12 18.47-16.49-11.32-16.35-6.7-14.35-12.24 4.68 23.26 5.75 6.35 9.11 9.91 18.74 35.62 24.26 22.12 7.17 19.5-25.28-1.5-34.45-10.52-0.15 15.12-40.21-21.56-19.69-22.42 4.14-12.32 16.88 7.47 4.05-12.58-8.18-14.82-13.84-11.17-11.71-3.05-12.86-27.95-26.2 7.11-7.21 16.97-6.98 4.44-4.34 22.93-16.36 7.13-12.41-9.35 15.94 25.37 15.72 34.87 5.46 4.1 7.81 19.1-0.37 7zm69.97-15.4c-2.33-3.4-2.88 1.9 0 0zm-18-30.02c-8.74-8.16-2.38 4.04 0 0zm157-10.3c-4.68-8.57-12.54 1.98 0 0zm-95.63-4.17c-22.84-16.48 4.25 10.5 0 0zm84.51-1.78c-12.72-10.03 0.75 9.65 0 0zm19.58-1.51c-18.19-14.06-19.25 2.82 0 0zm-41.96-2.74c-3.59-3.81-1.24 3.94 0 0zm-86.5-0.89c-12.13-16.21-13.91 0.36 0 0zm22.48-1.31c-13.87-13.43-3.38 5.08 0 0zm36.66-2.74c-7.48-9.51-60.58-23.32-30.88-3.21 11.51-3.03 18.46 6.83 33.88 7.47l-3-4.26zm-209.31 0.04c-3.59-22.85-9.65 8.15 0 0zm316.62-0.52c-7.43-4.14 4.11 5.15 0 0zm18.05-7.58c-11.54-4.89-45.27-11.78-14.59-2.68 3.7 0.03 12.27 5.39 14.59 2.68zm-432.75-2.95c16.44-20.05-18.93-4.53 0 0zm241.5 0.23c-4.32-7.58-0.67 3.9 0 0zm-57.52-4.89c-3.68-1.13-1.83 1.74 0 0zm51.52-0.06c-5.5-1.62-1 1.76 0 0zm-55.25-1.33c-2.55-3.59-2.55 3.58 0 0zm100.5 0c-1.21-3.66-2.46 3.56 0 0zm58.88-3.47c-16.96-11-16.64 6.09 0 0zm-51.88-1.53c-3.27-3.37-8.2 4.15 0 0zm29.39-0.63c4.46-3.73 9.41-15.59-1.43-4.05-4.25 1.2-5.12 6.88 1.43 4.05zm-116.89-2.37c-2.55-3.59-2.55 3.58 0 0zm221 0c-5.31-4.65-1.51 4.3 0 0zm-19-1c-2.46-3.57-1.21 3.65 0 0zm4.38-4.59c-12.68-6.01 17.42 1.52 23.57-0.49-9.65-2.63-43.92-17.81-44.59-10.66 12.54 0.38 38.06 9.38 10.41 5.09-11.53 1.8-50.66 4.38-17.86 6.96 13.34 2.2 20.75-2.98 32.22 0.85l-3.75-1.75zm37.12 2.59c-10.85-4.17-1.48 4.18 0 0zm-272.69-3.53c-2.83 1.93-1.19 4.35 0 0zm-3.31-0.47c-5.84-4.78-1.27 4.07 0 0zm6.32-3.62c-11.03-4.34 5.55 5.28 0 0zm124.44-4.55c20.47-7.01-28.83 1.91-36.76-0.97-38.98-0.38 24.81 7.33 36.76 0.97zm-56.26-0.83c-9.28-5.37-0.32 4.27 0 0zm-230.88-6.99c20.6-1.58 29.91-40.06 10.48-43.17-6.33 9.96-12.3 21.78-6.1 29.34-1.22 2.46-19 22.32-4.38 13.83zm404.38-1.09c11.28-4.74-42.75 2.26-13.78 1.44 4.57-0.67 9.16-1.21 13.78-1.44zm9 0.08c-7.2-4.14 0.46 4.11 0 0zm-248.25-1.67c-5.5-1.62-1 1.76 0 0zm-6.25-1.83c-11.47-4.27 4.69 4.81 0 0zm247.5-0.5c-12.18-3.7 38.05-5.75 39.4-11.87-36.06-1.27 41.91-6.52 10.46-7.29-15.43-2.72-67.76 8.75-60.61 11.98 10.66-3.01 51.65-6.04 19.02 1.84-10.42-0.1-49.46 5.63-18.27 5.69 1.54-0.48 12.59 1.68 10-0.35zm-62.5-1.03c-6.19-12.12-10.52 3 0 0zm107.5-2.12c30.42-2.99-7.81-6.03-8.39 1.1 2.83 0.12 5.66-0.39 8.39-1.1zm-165.75-7.44c-4.68-1.04-0.69 5.94 0 0zm7.95-0.41c13.68-12.07 0.15-14.28-2.02 3l2.02-3zm-297.54-1.25c-7.12-1.48 0.86 4.69 0 0zm287.34 0.25c-1.21-3.66-2.46 3.56 0 0zm-284-2.99c-0.54-2.5-4.37 3.8 0 0zm285.5-1.93c3.68-10.93-5.05 3.4 0 0zm34.13-2.35c-3.08-2.44 2.98 5.37 0 0zm-328.35-3.29c21.75-35.08-20.36-2.43 0 0zm94.66-3.52c-10.87-9.4 7.26 13.15 0 0zm229.07 2.33c13.15 8.09-2.01-14.68-1.96-15.68 2.19 4.23-5.92 22.59 1.96 15.68zm-21.15 0.25c2.44-10.88-6.96 4.11 0 0zm-6.36-3.62c-11.21-12.95-4 8.99 0 0zm16.69 0.93c-1.72-1.72 0.86 5.59 0 0zm-15.02-3.06c-1.75 1 1.62 5.5 0 0zm99.31-5.75c17.51-15.55 34.39-37.24 36.81-62 2.43-15.87-19.74-46.83-30.65-40.66 1.3 37.06-1.08 75.32-15.42 109.89 3.16-2.29 5.69-5.5 9.26-7.23zm-118.48 6c-1.21-3.66-2.46 3.56 0 0zm164.91-5c12.44-6.17 20.66 2.5 36.45-9.12 7.78-8.58-33.72-2.48-41.33 5.45-17.74 12.28-1.54 8.36 4.88 3.67zm-161.72 1.81c-1.72-1.72 0.86 5.59 0 0zm33.82-3.31c-0.93-8.27-6.22 14.59 0 0zm-4.51-0.94c-2.69-7.65-2.46 5.78 0 0zm19-0.5c-3.56-10.35-3.1 7.28 0 0zm-30-1.56c-8.88-11.39-0.82 6.99 0 0zm-93-2.5c1-4.02-8.33 3.58 0 0zm114-1.94c-2.64-9.15-2.55 7.53 0 0zm-32.65-8.61c-3.21-3.93 1.09 4.96 0 0zm-3.18-1.11c-0.96-15.61 33.64-21.28 20.33-7.52 7.54 2.07 26.12-1.28 18.17-8.07 12.23-3.13 11.96 14.77 26.5 6.63 18.24-1.1 15.16-22.96 18.86-33.37-4.85-15.03 0.09-32.41 2.1-49.03-10.6-9.31-19.41-20.5-29.57-34-11.76-24.96-35.75-1.41-36.54 0.82 1.2 14.31-5.83-2.75-0.81-5.29-16.01 2.64 13.45 25.9 8.53 14.32 3.27 13.41-3.67 12.16 1.79 21.73-6.44 11.13 6.91 21.41 0.03 26.68-0.93 16.63-19.99 32.06-25.06 10.76 0.6-17.15-30.05-13.52-34.51-35.45-7.87-9.5-3.87-19.81-8.83-1.31-4.68-3.77 0.64-16.81-9.16-8.74-5.37-0.98-27.11-9.85-29.07-5.79 3.54 12.43-0.71 18.55-5.57 30.83-3.35-14.51-19.53-14.27-21.95-26.77-6.24 6.14-12.47 15.59-6.62 18.41-7.66-3.39-0.31 20.43-15.23 11.87 0.91 15.8-9.7-14.33-11.09 6.95-0.84 16.24-6.95 37 6.93 49.09 14.36-3.86 46.1 19.65 32.69-5.67-22.66-2.89-3.19-1.34 5.94-2.66-13.28-19.56 12.61-17.83 12.65-20.05-7.49-22.09 24.23-41.04 26.32-10.1 23.85-6.93 3.27 41.84 32.6 28.72 38.91-1.32-35.5-0.29-9.57 10.94 19.26-11.2 29.96-4.08 27.75 17.73l2.39-1.66zm1.67-13.08c-9.91-6.52 7.92-0.71 0 0zm9.75-6.01c3.61-19.74 21.85 3.93-0.2 3.2l0.2-3.2zm-11.2-0.29c-10.32-8.1 9.57 1.5 0 0zm42.69-4.55c0.65-3.85 1.02 4.56 0 0zm-15.87-2.88c16.34-15.31 11.28 7.88 0 0zm54.8-11.51c-3.81-7.36 6.32 3.66 0 0zm-64.34-1.45c4.92-6.07 8.38 5.93 0 0zm-144.67-22.57c7.33-4.2-2.48 3.94 0 0zm6.85-5.6c9.35-3.41-4.91 4.76 0 0zm41.65-14.41c3.19-12.79 3.41 5.72 0 0zm43.33-6.49c-1.95-18.28 3.99 9.55 0 0zm-10.76-7.75c2.01-14.34 4 6.22 0 0zm89.43-6.75c1.21-3.66 2.47 3.56 0 0zm-5.04-7.07c-1.22-5.01 3.26 3.81 0 0zm-5.58-3.68c-3.25-4.6 5.58 5.26 0 0zm-23.32 105.97c-2.81 7.19 1.86 14.6 0 0zm52.44 4.43c-5.55 2.36-3.26 6.48 0 0zm-11 0.89c-2.87-7.36-8.73 6 0 0zm24-2.94c-3.9-3.26-4 1.78 0 0zm-59-4.1c-2.48-5.27-2.48 5.27 0 0zm-80.18-18.5c0.2-6.82-12.51 10.04 0 0zm-9.39-8.34c-9.29-9.57 1.72 12.13 0 0zm-2.82-6.39c-4.89-0.03 2.72 5.17 0 0zm164.38-5.21c-3.09-1.29-1.76 8.28 0 0zm-63.58-11.51c-3.2-15.32-9.59 12.83 0 0zm-5.41 1.45c2.56-3.59 2.56 3.58 0 0zm75.44-3.69c-3.32-18.97-5.61 8.23 0 0zm-69.44-7.75c-2.33-3.44-2.88 1.9 0 0zm-13.89-3.85c-10.02-2.37 1.53 7.18 0 0zm12.39-24.72c-4.4-1.99-1.46 8.47 0 0zm-122.5-2.11c-2.05-5.79-2.35 8.77 0 0zm52-7.47c-3.23-5.08-3.84 5.85 0 0zm-8.27-3.02c-3.68-1.13-1.83 1.74 0 0zm2.96-1.58c-1.72-1.72 0.86 5.59 0 0zm68.3-5.84c-6.12-6.19 3.68 10.09 0 0zm108.01 1.59c-2.33-3.44-2.88 1.9 0 0zm-215.21-4.31c-5.49-11.56-1.36 5.4 0 0zm102.73-2.18c-7.27-13.16 2.41 12.84 0 0zm-72.2-3.54c-11.81-15.01 9.87 17.93 0 0zm-25.82 3.47c-9.24-2.69 5.12 3.42 0 0zm38.5 0.06c-1.73-14.09-14.75-5.49 0 0zm-5-5.12c2.88-1.91 2.34 3.43 0 0zm28 5.12c-6.92-7.93-5.9 2.55 0 0zm-53.5-1.06c-9.51-4.38-0.73 3.79 0 0zm70.19-2.19c-1.72-1.72 0.86 5.59 0 0zm-26.66-4.26c-9.29-15.63 5.82 17.11 0 0zm34.05-0.87c-3.79 2.66 3.69 10.28 0 0zm4.31 3.57c-5.63-14.03 0.93 10.48 0 0zm-59.62-0.25c-9-8.49 3.12 8.07 0 0zm15.25 0.02c-10.41-10.86 2.11 7.72 0 0zm21.34 0.48c-2.37-5.25-0.86 5.28 0 0zm-10.42-7.43c-7.37-10.76 1.3 4.98-3.44 3.92 3.91 6.84 7.59 1.55 3.44-3.92zm16.06 7.03c-3.94-5.6-3.94 3.84 0 0zm-61.5-2.1c-9.08-7.39 5.02 7.01 0 0zm34.52-3.98c-6.9-6.37 3.73 9.35 0 0zm-18.02 1.54c-2.33-3.44-2.88 1.9 0 0zm4-1.5c-4.61-7.98-2.75 5.16 0 0zm31.12-2.35c-3.74-1.4 2.88 6.99 0 0zm48.38 2.29c-1.21-3.66-2.46 3.56 0 0zm-6.89-2.73c-4.89-0.03 2.72 5.17 0 0zm11.39-1.77c-4.94-5.28-3.36 4.21 0 0zm69 0.5c-2.46-3.57-1.21 3.65 0 0zm-54.19-2.08c-4.26-4.05-2.59 4.35 0 0zm46.69-0.92c-9.07-6.71 4.66 7.07 0 0zm-5-2c-1.21-3.66-2.46 3.56 0 0zm-15.94-9.77c-5.87 2.48-3.33 4.33 0 0zm-53.56-7.73c-19.09-4.62 8.19 4.28 0 0zm-14-2.5c-18.42-2.92-10.14 1.37 0 0zm-13.75-0.67c-5.5-1.62-1 1.76 0 0zm50.75-3.33c-7.96-7.32 2.44 7.74 0 0zm67.19 346.82c-9.81-9.6 22.89 7.5 0 0zm14.81 1.2c-8.18-3.2 13.99 2.8 0 0zm-204.03-2.4c-11.12-6.9-25.95-13.2-16.6-21.1 2.46 1 35.83 23.2 16.6 21.1zm215.5-2.1c-14.98-2.5-24.4-11-2.7-3.4 6.53 1.2 15.98 6.3 2.7 3.4zm10.35 0.8c5.59-0.9-1.72 1.7 0 0zm-35.79-7.3c-4.1-5.1 7.36 4 0 0zm24.97 0c-8.18-3.2 13.99 2.8 0 0zm-108.34-24.62c-12.95-13.36 19.26 11.52 0 0zm86.99-16.44c-18.44-9.09 23.89 7.12 0 0zm13.72 0.12c-26.56-11.38 24.82 6.99 0 0zm6.14-2.07c0.54-2.5 4.36 3.8 0 0zm-4.51-2.01c-2.48-3.94 7.33 4.19 0 0zm-5-2c-2.54-4.03 7.34 3.22 0 0zm-60.5-25c6.32-1 0.11-0.83 0 0zm124-35c11.58-3.9 6.35 3.97 0 0zm20.71-143.61c-13.52-8.08-21.03-15.18-1.87-5.53 8.08 4.06 12.62 7.09 1.87 5.53zm-412.4-19.15c-3.84-9.77 12.81-32.48 6.01-11.02-6.29-0.15 0.15 25.43-6.01 11.02zm387.89-11.94c-2.87-6.39-9.82-8.34 1.25-2.3-2.44 0.41 4.39 5.03-1.25 2.3zm-366.7-2.14c1.7-11.1 5.66 1.87 0 0zm318.25-4.38c-8.2-5.59 14.57 4.32 0 0zm47.3-0.7c-11.92-2.66-17.11-4.13-4.05-2.83-21.38-9.2 10.36-2.56 4.05 2.83zm-21.55-8.05c4.01-1.78 3.91 3.26 0 0zm-27.18-7.72c5.59-0.86-1.72 1.72 0 0zm27.75-0.21c-4.82-4.84 9.08 3.32 0 0zm-326.96-5.1c4.21-16.42 0.47 8.86 0 0zm7.19 2.46c-1.22-9.5 7.03-1.17 0 0zm263.64-8.93c-4.68-5.03 11.36 5.52 0 0zm-6.44-1.53c1.74-4.45 5.13 4.67 0 0zm-6.95-3.44c3.03-3.24 12.91 4.42 0 0zm-7.05 0.04c3.91-3.26 4.01 1.78 0 0zm64.19-2.11c-27.27-13.02 24.27 7.67 0 0zm-76.19-5.21c-11.5-4.74 12.66 1.74 0 0zm-7.56-2.75c-4.1-4.78 7.28 4.8 0 0zm72.06-1.6c-14.2-4.96-44.47-15.47-19.5-15.63 7.51 4.97 32.33 9.79 20.18 14.42 10.56 3.4 14.7 7.21-0.68 1.21zm7.5-2.93c-2.48-3.94 7.33 4.19 0 0zm-9.56-9.97c-11.39-1.36-35.2-14.17-39.75-9.98 25.43 12.08-46.7-7.74-10.1-5.67 17.3 0.13 46.01 8.53 53.1 16.59l-3.25-0.94zm-28.94-11.03c-5.29-3.66 1.12 3.44 0 0zm16.77 1.3c8.22-1.24-1.16 1.72 0 0zm-63.27-9.3c-12.74-2.68-20.59-7.4-2.5-3.4 10.11-1 18.31 9.93 2.5 3.4zm16.25-1.69c7.75-1.56 1.49 1.61 0 0zm20.25-3.28c-18.99-6.77 29.49 5.15 0 0zm-34.5-6.9c-6.84-8.21 21.38 1.84 0 0zm-9.25-3.8c5.51-1.62 1 1.76 0 0zm-23.01-5.08c8.11-5.66 7.79 6.66 0 0zm52.26-0.25c-6.27-3.32 11.17 2.3 0 0zm-39-3.4c1.59-3.01 10.59 2.6 0 0z"></path></g><metadata></metadata></svg> 