<?xml version="1.0" encoding="UTF-8" standalone="no"?> <!-- Generator: Adobe Illustrator 13.0.2, SVG Export Plug-In . SVG Version: 6.00 Build 14948) --> <svg xmlns:rdf="http://www.w3.org/1999/02/22-rdf-syntax-ns#" xmlns="http://www.w3.org/2000/svg" xmlns:cc="http://web.resource.org/cc/" xmlns:xlink="http://www.w3.org/1999/xlink" xmlns:dc="http://purl.org/dc/elements/1.1/" xmlns:svg="http://www.w3.org/2000/svg" xmlns:inkscape="http://www.inkscape.org/namespaces/inkscape" xmlns:sodipodi="http://sodipodi.sourceforge.net/DTD/sodipodi-0.dtd" xmlns:ns1="http://sozi.baierouge.fr" id="squash_xA0_Image_1_" style="enable-background:new 0 0 404.918 193.331" xml:space="preserve" viewBox="0 0 404.918 193.331" y="0px" x="0px"> <g> <path style="fill:#F6B319;clip-rule:evenodd;fill-rule:evenodd" d="m227.19 4.572c-4.224 0.44-9.736-3.158-15.568-3.243 0.887-2.245 5.44-1.056 7.784-0.649 2.92 0.506 7.45 1.716 7.79 3.892z"></path> <path style="fill:#F6B319;clip-rule:evenodd;fill-rule:evenodd" d="m231.08 3.923h1.297v1.297h-1.297v-1.297z"></path> <path style="fill:#F6B319;clip-rule:evenodd;fill-rule:evenodd" d="m235.62 4.572h1.298v1.297h-1.298v-1.297z"></path> <path style="fill:#F6B319;clip-rule:evenodd;fill-rule:evenodd" d="m250.54 7.167c-0.946 1.526-4.242-0.031-5.188-0.649 0.54-3.19 3.81 0.52 5.19 0.649z"></path> <path style="fill:#F6B319;clip-rule:evenodd;fill-rule:evenodd" d="m238.86 6.518c0.316-0.896 5.848-1.574 5.189 0.649-1.87-0.078-4.24 0.354-5.19-0.649z"></path> <path style="fill:#F6B319;clip-rule:evenodd;fill-rule:evenodd" d="m251.19 8.463c0.852 0.662 2.391 0.636 3.243 1.297-0.24 2.167-3.45 0.729-3.24-1.297z"></path> <path style="fill:#F6B319;clip-rule:evenodd;fill-rule:evenodd" d="m229.13 10.41c0.224-0.783 1.727-0.525 1.946 0 0.59 1.402-2.38 1.503-1.95 0z"></path> <path style="fill:#F6B319;clip-rule:evenodd;fill-rule:evenodd" d="m238.22 9.761c3.78 0.257 3.473 2.902 6.486 2.595 0.451 2.613-3.227 1.097-3.892 2.595-1.71-0.895-2.82-2.382-2.6-5.19z"></path> <path style="fill:#F6B319;clip-rule:evenodd;fill-rule:evenodd" d="m246.65 12.355c1.13 0.586 2.499 1.451 1.297 2.595-0.852-0.229-1.02-1.142-1.945-1.297 0.12-0.526 0.65-0.647 0.65-1.298z"></path> <path style="fill:#F6B319;clip-rule:evenodd;fill-rule:evenodd" d="m185.03 13.653c-0.783 3.974-5.043 4.47-6.486 7.784h-3.244c-0.021-1.967 2.276-1.616 3.892-1.946 0.028-1.109-0.482-1.68-1.297-1.946 0.767-1.179 3.382-0.51 4.541-1.297-0.421-0.66-1.491-0.671-1.297-1.946 1.99 0.47 1.91-1.12 3.9-0.649z"></path> <path style="fill:#F6B319;clip-rule:evenodd;fill-rule:evenodd" d="m210.32 13.653c2.04-0.743 1.576 1.019 2.595 1.297-0.41 1.578-3.28 0.343-2.6-1.297z"></path> <path style="fill:#F6B319;clip-rule:evenodd;fill-rule:evenodd" d="m205.78 15.599c1.415-0.118 2.064 0.531 1.946 1.946h-1.946v-1.946z"></path> <path style="fill:#F6B319;clip-rule:evenodd;fill-rule:evenodd" d="m230.43 16.248c0.2-0.88 1.624-0.538 2.595-0.649-0.18 1.504-1.73 1.491-2.59 0.649z"></path> <path style="fill:#F6B319;clip-rule:evenodd;fill-rule:evenodd" d="m283.62 24.68c-0.489-2.928 4.334-2.43 3.244 0.649-1.83 0.536-1.68-0.915-3.24-0.649z"></path> <path style="fill:#F6B319;clip-rule:evenodd;fill-rule:evenodd" d="m284.27 26.626c-2.11-0.052-3.495-0.83-3.893-2.595 2.04 0.115 3.87 0.456 3.89 2.595z"></path> <path style="fill:#F6B319;clip-rule:evenodd;fill-rule:evenodd" d="m266.11 25.329c3.944 0.596 5.267 3.814 8.432 5.189-2.82 0.859-7.02-2.479-8.43-5.189z"></path> <path style="fill:#F6B319;clip-rule:evenodd;fill-rule:evenodd" d="m294 27.274c3.252-0.226 3.184 2.871 5.838 3.243 2.335 0.173 3.126-1.198 5.189-1.297 5.016 2.956 9.32-0.398 14.27 3.243-2.587 3.087-6.573-2.82-10.378 0.649-2.558 0.179-1.983-2.773-4.541-2.595-2.022 2.441-4.105 1.114-7.135 1.946-0.97-1.835-2.86-2.763-3.24-5.189z"></path> <path style="fill:#F6B319;clip-rule:evenodd;fill-rule:evenodd" d="m170.11 30.518c0.767 0.747 2.293 0.734 3.892 0.649-0.454 1.997-0.454 1.247 0 3.243-1.208 0.089-2.168 0.427-2.595 1.297-0.867-0.647-1.274-1.753-2.595-1.946-0.09-1.614 1.03-2.008 1.31-3.243z"></path> <path style="fill:#F6B319;clip-rule:evenodd;fill-rule:evenodd" d="m321.24 31.815c3.347-0.319 5.389 0.666 5.189 3.892-2.12-0.91-3.93-2.122-5.19-3.892z"></path> <path style="fill:#F6B319;clip-rule:evenodd;fill-rule:evenodd" d="m329.03 32.463c1.857-0.127 3.54-0.081 3.243 1.946-1.71-0.016-4.07 0.606-3.24-1.946z"></path> <path style="fill:#F6B319;clip-rule:evenodd;fill-rule:evenodd" d="m334.86 33.112c4.211 3.5 9.011 2.505 15.567 3.243 0.883 1.495 1.137 3.62 3.892 3.243 0.26 1.841-7.725-0.079-5.838 2.595-2.623 0.028-1.844-3.345-3.243-4.541 0.398 0.189 2.497 1.613 2.595 0-3.221-0.952-7.19-0.442-9.729 0.648-2.456-1.56-2.688-1.765-6.487-1.297 0-2.374 3.81-0.95 3.24-3.891z"></path> <path style="fill:#F6B319;clip-rule:evenodd;fill-rule:evenodd" d="m303.73 42.842c-0.704 0.161-0.439 1.29-1.297 1.297 0.899 2.992 2.194 5.589 6.486 5.189-4.967 4.219-6.435-5.446-9.729-7.135 0.351-2.285 3.674 1.807 3.243-1.946 2.106 0.487 2.719 2.47 4.54 3.243 1.323-0.407 0.183-3.277 2.595-2.595 0.469 1.982-0.663 2.364-0.648 3.892 1.047 0.899 2.054 1.838 3.243 2.594 1.805-1.225-1.654-2.619-0.648-5.189h2.595c-0.058-5.14-12.209-1.618-9.081-7.784 2.044-0.099 1.262 2.63 2.594 3.243 0.799-0.283 1.333-0.83 1.298-1.946 0.975 0.971 2.731 1.16 3.243 2.594 1.903-0.551-0.844-1.632 0-3.243 1.353-0.153 1.483 2.248 2.595 2.595 0.212 0.066 3.005-1.408 5.189-0.648 2.048 0.711 1.706 3.977 4.54 3.243-2.938 2.047-6.674-0.658-8.433-1.946-0.521 0.343-1.053 0.677-1.945 0.649 1.432 0.946 2.654 2.102 3.892 3.243-0.427 1.943-1.387-0.62-2.595 0-1.347 0.167-0.177 2.85-1.297 3.243 0.16 0.705 1.289 0.44 1.297 1.297 1.942-0.427-0.62-1.387 0-2.595 1.898-0.333 3.188 3.229 4.541 1.297 1.078 6.185-11.283 4.839-12.325-0.648-3.2-0.147-5.21 1.476-3.89-1.944z"></path> <path style="fill:#F6B319;clip-rule:evenodd;fill-rule:evenodd" d="m161.67 38.301c-0.427 0.871-1.386 1.208-2.594 1.297-0.3-2.019 1.63-2.318 2.59-1.297z"></path> <path style="fill:#F6B319;clip-rule:evenodd;fill-rule:evenodd" d="m340.7 38.95c1.892-0.954 1.892 2.899 0 1.946v-1.946z"></path> <path style="fill:#F6B319;clip-rule:evenodd;fill-rule:evenodd" d="m355.62 38.95c3.878 1.312 8.106 2.273 9.082 6.486-2.779-0.764-2.646 0.048-5.189 0.649-0.47-3.203-3.39-3.963-3.89-7.135z"></path> <path style="fill:#F6B319;clip-rule:evenodd;fill-rule:evenodd" d="m336.81 42.193c1.131 0.586 2.499 1.451 1.298 2.595-1.14-0.156-1.48-1.116-1.3-2.595z"></path> <path style="fill:#F6B319;clip-rule:evenodd;fill-rule:evenodd" d="m354.32 42.193c-0.096 1.418-1.635 1.393-3.243 1.297-0.67-2.179 2.02-1.009 3.24-1.297z"></path> <path style="fill:#F6B319;clip-rule:evenodd;fill-rule:evenodd" d="m340.05 44.788c2.458-3.636 6.733 2.633 5.189 3.243-1.01 0.401-3.11-3-5.19-3.243z"></path> <path style="fill:#F6B319;clip-rule:evenodd;fill-rule:evenodd" d="m348.48 44.788h2.595c2.34 2.837-3.5 3.886-2.6 0z"></path> <path style="fill:#F6B319;clip-rule:evenodd;fill-rule:evenodd" d="m369.89 46.085c3.744-1.912 7.778 3.895 5.838 7.784-5.036-2.284-10.446-0.288-14.919-3.243-0.963 0.283 0.256 0.83 0 1.946-2.998 0.404-2.718-2.472-3.892-3.892 2.744-2.017 5.923 3.871 8.433 0 2.312 0.716 2.969 3.085 6.486 2.595-0.793-0.937-2.476-0.984-3.243-1.946 0.512-2.277 2.269-0.75 3.243 0-0.08-1.658-1.19-2.271-1.95-3.244z"></path> <path style="fill:#F6B319;clip-rule:evenodd;fill-rule:evenodd" d="m319.94 48.68c2.226 0.585 4.19 1.431 5.837 2.595-1.145 3.042-8 2.521-7.783-1.297 2.512-0.565 1.06 2.832 3.892 1.946 0.49-2.217-2.63-0.825-1.95-3.244z"></path> <path style="fill:#F6B319;clip-rule:evenodd;fill-rule:evenodd" d="m313.46 51.274c0.798 0.283 1.333 0.83 1.298 1.946-1.048 0.183-1.117-0.613-1.946-0.648 0.12-0.526 0.65-0.647 0.65-1.298z"></path> <path style="fill:#F6B319;clip-rule:evenodd;fill-rule:evenodd" d="m372.48 53.22c1.709-0.195 2.129 0.898 1.946 2.595-1.75-0.044-3.12-1.483-1.95-2.595z"></path> <path style="fill:#F6B319;clip-rule:evenodd;fill-rule:evenodd" d="m159.08 53.869c0.195 1.709-0.898 2.129-2.595 1.946-0.19-1.709 0.9-2.129 2.6-1.946z"></path> <path style="fill:#F6B319;clip-rule:evenodd;fill-rule:evenodd" d="m315.4 53.869c1.655 2.021 6.129 1.222 7.784 3.243-2.021 1.672-6.099 1.342-9.081 1.297 1.091 3.591 7.593-2.078 7.135 3.243-2.542-0.918-6.92 0.001-8.433-1.946-0.79-3.886 4.81-2.373 2.59-5.837z"></path> <path style="fill:#F6B319;clip-rule:evenodd;fill-rule:evenodd" d="m381.57 55.167c2.903-0.309 3.246 1.943 3.243 4.541-1.927 0.882-2.628-0.184-3.892 1.946-2.367 0.421-3.455-0.437-4.541-1.297-1.942 0.427 0.621 1.387 0 2.595-3.033 0.354-4.661-3.137-3.243-5.189 2.105 2.297 3.245 0.02 6.486 2.595 1.14-1.227 2.13-2.622 1.94-5.191z"></path> <path style="fill:#F6B319;clip-rule:evenodd;fill-rule:evenodd" d="m331.62 61.653h5.838c-0.438 1.507-2.155 1.736-2.594 3.243-0.178 3.853 5.568 1.783 7.783 3.243-3.402 4.9-13.242 2.352-12.973-3.892 0.549-1.901 2.088 0.388 3.243 0-1.254-2.854-5.969-2.248-5.838-6.487 2.22-1.585 3.72 2.034 4.54 3.893z"></path> <path style="fill:#F6B319;clip-rule:evenodd;fill-rule:evenodd" d="m337.46 59.058c1.048-0.183 1.117 0.613 1.946 0.649 0.25 1.259-2.96 0.947-1.95-0.649z"></path> <path style="fill:#F6B319;clip-rule:evenodd;fill-rule:evenodd" d="m369.24 61.653c-2.069 0.556-2.006-1.021-3.243-1.297 0.24-2.167 3.45-0.728 3.24 1.297z"></path> <path style="fill:#F6B319;clip-rule:evenodd;fill-rule:evenodd" d="m152.59 59.707c4.246 3.13-0.341 10.895-3.243 12.973 0.992-2.063 0.228-2.854 0-5.189 3.93-0.49 4.17-3.988 3.24-7.784z"></path> <path style="fill:#F6B319;clip-rule:evenodd;fill-rule:evenodd" d="m323.84 59.707c2.109 0.052 3.494 0.83 3.892 2.594-1.65 1.459-3.96-0.359-3.89-2.594z"></path> <path style="fill:#F6B319;clip-rule:evenodd;fill-rule:evenodd" d="m395.19 102.52c-2.659-0.065-5.317-0.128-7.136 0.648-0.266-1.562 1.185-1.41 0.649-3.243 4.926 3.273 7.159-1.849 10.378-3.892-3.072-1.632-4.642 6.847-9.729 3.244 1.966-1.062 5.444-0.61 5.838-3.244-1.559-1.568-1.718 1.575-4.541 0.648v-2.594c3.663 0.204 6.748-0.171 9.081-1.297-0.197-3.008 0.007-5.615 1.298-7.135-0.123-0.525-0.651-0.646-0.649-1.297-2.223 1.684-5.135 4.611-4.54 7.135-4.402 0.387-1.181-3.273-2.595-5.189 2.15 1.116 2.814-0.39 3.892-1.946-0.69-1.544-4.96 4.048-5.188-0.648 1.94 1.617 4.37-0.432 4.54-2.595-2.3-0.727-2.359-3.695-3.243-5.838 1.77-0.472 1.306 1.289 2.595 1.297-1.578-2.53-1.859-6.357-6.486-5.838 0.382-2.328-0.754-3.138-1.298-4.541-1.103-0.238-1.224 0.506-1.297 1.297-1.396-0.55-2.294-1.598-1.946-3.892 1.048-0.183 1.117 0.613 1.946 0.649 0.483-1.997-1.78-1.247-1.298-3.243 5.293-1.3 3.293 10.038 9.73 9.729 2.555 3.066 3.911 7.332 4.54 12.324 1.352 0.812 2.735 1.589 3.892 2.595 0.914 5.886-2.625 7.321-3.243 11.676-2.59 0.864-4.77 2.136-5.18 5.188z"></path> <path style="fill:#F6B319;clip-rule:evenodd;fill-rule:evenodd" d="m351.73 62.301c2.117-0.171 1.375 2.517 3.243 2.595-1.17 1.747-3.85-0.423-3.24-2.595z"></path> <path style="fill:#F6B319;clip-rule:evenodd;fill-rule:evenodd" d="m373.13 64.248c1.91-1.656 4.303 1.724 5.189 3.243-3.34 0.537-3.09-2.53-5.19-3.243z"></path> <path style="fill:#F6B319;clip-rule:evenodd;fill-rule:evenodd" d="m362.11 69.437c-1.292 2.523-6.086-0.76-5.838-3.892 0.754 0.105 1.153-0.144 1.297-0.649 0.92 2.104 2.07 3.986 4.54 4.541z"></path> <path style="fill:#F6B319;clip-rule:evenodd;fill-rule:evenodd" d="m325.78 66.842c3.938 2.238 5.262 6.312 11.676 4.541-3.77 4.061-11.7-0.64-11.68-4.541z"></path> <path style="fill:#F6B319;clip-rule:evenodd;fill-rule:evenodd" d="m386.11 69.437c-0.258-1.259 2.954-0.948 1.945 0.649h-1.297c0.12-0.552-0.26-0.613-0.65-0.649z"></path> <path style="fill:#F6B319;clip-rule:evenodd;fill-rule:evenodd" d="m212.92 71.382c-2.426-1.289-4.843 1.422-5.189-1.946 2.3 0.076 5.22-0.468 5.19 1.946z"></path> <path style="fill:#F6B319;clip-rule:evenodd;fill-rule:evenodd" d="m214.22 69.437c3.644 2.566-1.974 5.346-5.838 4.541-1.635 1.029-6.783 2.817-6.486-1.297 1.365 0.204 3.872 1.845 3.243-1.297 1.83 2.079 9.58 2.237 9.09-1.947z"></path> <path style="fill:#F6B319;clip-rule:evenodd;fill-rule:evenodd" d="m349.78 71.382h1.298v1.297h-1.298v-1.297z"></path> <path style="fill:#F6B319;clip-rule:evenodd;fill-rule:evenodd" d="m384.16 73.329c1.636 0.958 2.681 2.508 3.243 4.541-3.41 0.908-3.95-3.358-3.24-4.541z"></path> <path style="fill:#F6B319;clip-rule:evenodd;fill-rule:evenodd" d="m387.4 74.626c-0.257-1.259 2.954-0.948 1.946 0.648h-1.298c0.12-0.551-0.25-0.611-0.65-0.648z"></path> <path style="fill:#F6B319;clip-rule:evenodd;fill-rule:evenodd" d="m203.84 77.22c-0.679 1.484-0.412 3.913-1.298 5.189-2.56-0.802-2.47-5.692 1.3-5.189z"></path> <path style="fill:#F6B319;clip-rule:evenodd;fill-rule:evenodd" d="m196.7 79.167h-1.946c-0.95-1.893 2.91-1.893 1.95 0z"></path> <path style="fill:#F6B319;clip-rule:evenodd;fill-rule:evenodd" d="m193.46 79.167c0.455 2.246-2.274 2.326-3.243 1.297 0.09-1.419 1.63-1.393 3.24-1.297z"></path> <path style="fill:#F6B319;clip-rule:evenodd;fill-rule:evenodd" d="m384.81 79.167c1.302-0.221 2.029 0.132 1.946 1.297h-1.946v-1.297z"></path> <path style="fill:#F6B319;clip-rule:evenodd;fill-rule:evenodd" d="m197.35 79.815c2.387 0.32-1.235 6.279 4.541 4.541 0.278 1.792-2.418 0.609-2.595 1.946 0.597 1.133 2.028 1.432 3.893 1.297-2.125 4.208-12.802 2.079-11.027-3.892 2.207 0.171 1.835 2.921 3.243 3.892 1.997 0.483 1.247-1.78 3.243-1.297-2.11-0.385-2.66-4.647-1.29-6.487z"></path> <path style="fill:#F6B319;clip-rule:evenodd;fill-rule:evenodd" d="m179.84 80.464c1.058 2.212 1.07 1.667 2.595 0 1.989 0.637-0.745 1.73-0.648 2.594 0.799 0.93 2.23 1.229 3.892 1.297 0.037 2.415-2.886 1.871-5.189 1.946-1.39-1.519-2.91-4.202-0.65-5.837z"></path> <path style="fill:#F6B319;clip-rule:evenodd;fill-rule:evenodd" d="m383.51 81.761c1.302-0.221 2.029 0.133 1.945 1.297h-1.945c-0.01-0.432-0.01-0.865-0.01-1.297z"></path> <path style="fill:#F6B319;clip-rule:evenodd;fill-rule:evenodd" d="m207.73 84.355c-1.504 0.207-2.49-0.104-3.243-0.648 0.11-1.993 3.49-1.361 3.24 0.648z"></path> <path style="fill:#F6B319;clip-rule:evenodd;fill-rule:evenodd" d="m386.76 85.004c2.04 0.555 2.689 2.499 3.243 4.541-2.182 2.359-6.799 2.282-6.486 7.135h-3.243c-0.149-2.77 1.372-3.183 0.648-5.837 3.683 0.655 4.852-1.203 6.486-2.595-0.597-1.768-2.027 0.906-3.892 0 0.44-1.71 2.95-1.372 3.24-3.244z"></path> <path style="fill:#F6B319;clip-rule:evenodd;fill-rule:evenodd" d="m174.65 85.653c1.892-0.954 1.892 2.899 0 1.946v-1.946z"></path> <path style="fill:#F6B319;clip-rule:evenodd;fill-rule:evenodd" d="m371.84 86.301c0.32 2.037-2.236 1.714-0.648 3.244 2.036 0.32 1.713-2.236 3.243-0.649-2.036 4.58-6.144 0.093-5.838-2.595 0.86-0.832 2.39-0.832 3.25 0z"></path> <path style="fill:#F6B319;clip-rule:evenodd;fill-rule:evenodd" d="m216.81 86.301c2.482-0.32 2.071 2.253 5.189 1.297-0.125 3.719-5.969 1.155-7.784 0.649-1.04-2.552 2.8-0.225 2.59-1.946z"></path> <path style="fill:#F6B319;clip-rule:evenodd;fill-rule:evenodd" d="m290.11 88.248c0.604 0.692 2.393 0.202 1.945 1.946-1.42 0.117-2.07-0.531-1.95-1.946z"></path> <path style="fill:#F6B319;clip-rule:evenodd;fill-rule:evenodd" d="m188.92 88.896c1.599-0.085 3.125-0.098 3.892 0.649-0.03 1.951-4.61 1.884-3.89-0.649z"></path> <path style="fill:#F6B319;clip-rule:evenodd;fill-rule:evenodd" d="m374.43 90.842c1.791 0.207 1.123 2.007 0 2.594 0.013 1.933 3.06 0.832 3.892 1.946v3.243h-3.243c-0.435-2.809-1.666-4.82-3.892-5.837 0.29-2.566 2.79 0.782 3.24-1.946z"></path> <path style="fill:#F6B319;clip-rule:evenodd;fill-rule:evenodd" d="m240.16 94.085c-0.062 2.111-2.621 3.674-3.892 2.594 1.37-0.789 1.88-2.44 3.89-2.594z"></path> <path style="fill:#F6B319;clip-rule:evenodd;fill-rule:evenodd" d="m218.76 96.68c0.852 0.229 1.02 1.142 1.945 1.297-0.283 0.798-0.83 1.332-1.945 1.298 0.119-0.552-0.253-0.612-0.649-0.649 0.34-0.522 0.67-1.053 0.65-1.946z"></path> <path style="fill:#F6B319;clip-rule:evenodd;fill-rule:evenodd" d="m355.62 98.625h2.595c0.689 2.42-2.433 1.027-1.945 3.243-1.42 0.11-0.3-2.301-0.66-3.245z"></path> <path style="fill:#F6B319;clip-rule:evenodd;fill-rule:evenodd" d="m192.16 104.46c1.85-2.332 4.645 2.201 2.594 3.893-1.97-0.18-0.89-3.43-2.59-3.89z"></path> <path style="fill:#F6B319;clip-rule:evenodd;fill-rule:evenodd" d="m343.94 105.11h1.297v1.298h-1.297v-1.3z"></path> <path style="fill:#F6B319;clip-rule:evenodd;fill-rule:evenodd" d="m170.11 108.36c-1.356 0.274-1.718-0.445-2.595-0.649 0.11-1.88 3.08-1.57 2.59 0.65z"></path> <path style="fill:#F6B319;clip-rule:evenodd;fill-rule:evenodd" d="m71.512 108.36c-4.221 7.021-16.614 5.872-22.703 11.026-10.986 0.968-23.057 4.554-32.433 3.243 6.915-3.847 22.475-0.086 27.243-5.838 7.561-0.907 14.91-2.687 20.757-5.188 2.568-1.1 4.366-3.93 7.136-3.24z"></path> <path style="fill:#F6B319;clip-rule:evenodd;fill-rule:evenodd" d="m239.51 107.71c2.271 1.292-1.904 1.481-1.946 2.595-2.3-1.33 1.59-1.8 1.95-2.59z"></path> <path style="fill:#F6B319;clip-rule:evenodd;fill-rule:evenodd" d="m38.431 108.36c-0.314 3.175-5.209 2.124-8.433 2.594-3.369 0.492-9.003 2.922-9.729-0.648 4.686-0.46 11.895-1.23 18.162-1.94z"></path> <path style="fill:#F6B319;clip-rule:evenodd;fill-rule:evenodd" d="m49.458 114.19c1.908-3.169 8.388-4.878 11.027-5.189-1.632 3.78-5.778 5.04-11.027 5.19z"></path> <path style="fill:#F6B319;clip-rule:evenodd;fill-rule:evenodd" d="m174 109c-0.181 1.504-1.733 1.491-2.595 0.648 0.57-1.88 0.98-0.73 2.6-0.65z"></path> <path style="fill:#F6B319;clip-rule:evenodd;fill-rule:evenodd" d="m165.57 110.95c0.854-1.228 5.191-0.477 5.189 1.298-2.54 0.37-3.77-0.56-5.19-1.3z"></path> <path style="fill:#F6B319;clip-rule:evenodd;fill-rule:evenodd" d="m44.269 111.6c-1.777 2.035-7.064 3.123-11.027 3.892-6.187 1.2-12.552 1.891-17.513 1.297 0.357-3.689 4.201-1.713 6.486-1.945 6.877-0.7 15.762-1.9 22.054-3.24z"></path> <path style="fill:#F6B319;clip-rule:evenodd;fill-rule:evenodd" d="m368.59 112.25c-0.257-1.259 2.954-0.948 1.946 0.648h-1.298c0.12-0.56-0.25-0.62-0.65-0.65z"></path> <path style="fill:#F6B319;clip-rule:evenodd;fill-rule:evenodd" d="m100.05 113.54c1.709-0.195 2.129 0.898 1.946 2.595-3.274-0.271-8.58 4.531-9.081-0.648 2.677 1.32 6.049 0.21 7.131-1.95z"></path> <path style="fill:#F6B319;clip-rule:evenodd;fill-rule:evenodd" d="m46.863 114.19c-0.547 2.233-3.949 2.674-6.486 3.243-3.612 0.81-8.584 1.53-12.324 1.945-3.524 0.392-7.377 0.881-9.73-0.648 9.137-1.89 19.957-2.09 28.54-4.54z"></path> <path style="fill:#F6B319;clip-rule:evenodd;fill-rule:evenodd" d="m300.48 116.14c2.512 1.812 6.42 2.229 7.135 5.838-1.94-2.38-6.71-1.94-7.14-5.84z"></path> <path style="fill:#F6B319;clip-rule:evenodd;fill-rule:evenodd" d="m382.22 119.38c0.967-2.137 1.831 1.104 2.595 1.298-1.12 2.28-1.32-1.63-2.6-1.3z"></path> <path style="fill:#F6B319;clip-rule:evenodd;fill-rule:evenodd" d="m94.215 123.92c2.432 0.512 0.041 2.269 1.297 3.243 3.719 0.389 4.78 0.522 7.784-0.648-1.446 8.973-13.25 0.021-17.514 5.188-1.384 0.304-1.235-0.927-1.297-1.945-3.144-0.116-5.199 0.855-7.784 1.297 0.135-4.304 4.248-0.598 4.541-4.54 1.998 2.026 4.775 1.025 7.135 0 1.436 0.934-0.816 1.582 0.649 1.945 2.969-0.27 3.427-3.05 5.185-4.54z"></path> <path style="fill:#F6B319;clip-rule:evenodd;fill-rule:evenodd" d="m76.053 125.87c-0.447 3.72-7.667 5.17-10.378 2.595 4.165-0.44 6.601-0.76 10.378-2.59z"></path> <path style="fill:#F6B319;clip-rule:evenodd;fill-rule:evenodd" d="m55.945 126.52h1.297v1.297h-1.297v-1.3z"></path> <path style="fill:#F6B319;clip-rule:evenodd;fill-rule:evenodd" d="m114.97 127.17h1.297c0.303 1.384-0.927 1.235-1.946 1.297 0.13-0.53 0.65-0.65 0.65-1.3z"></path> <path style="fill:#F6B319;clip-rule:evenodd;fill-rule:evenodd" d="m11.188 127.82c-0.124 3.553-3.617 3.734-6.487 4.541 1.332-2.35 3.893-3.46 6.487-4.54z"></path> <path style="fill:#F6B319;clip-rule:evenodd;fill-rule:evenodd" d="m146.76 127.82v1.298h-1.297v-1.298h1.3z"></path> <path style="fill:#F6B319;clip-rule:evenodd;fill-rule:evenodd" d="m68.917 131.71c-0.938 1.088-3.861 1.9-5.189 0.649 0.052-1.98 4.241-1.52 5.189-0.65z"></path> <path style="fill:#F6B319;clip-rule:evenodd;fill-rule:evenodd" d="m75.404 131.06c0.14 1.353-3.915 3.507-3.892 0.648 1.528 0.01 1.91-1.12 3.892-0.65z"></path> <path style="fill:#F6B319;clip-rule:evenodd;fill-rule:evenodd" d="m125.35 131.71c2.115-0.169 3.122 0.771 3.243 2.595-1.58-0.36-3.33-0.55-3.24-2.59z"></path> <path style="fill:#F6B319;clip-rule:evenodd;fill-rule:evenodd" d="m88.377 132.36h2.595c0.757 2.25-3.624 3.01-2.595 0z"></path> <path style="fill:#F6B319;clip-rule:evenodd;fill-rule:evenodd" d="m61.134 133c1.141 0.156 1.479 1.116 1.297 2.595-2.02 0.3-2.319-1.63-1.297-2.6z"></path> <path style="fill:#F6B319;clip-rule:evenodd;fill-rule:evenodd" d="m386.76 135.6h-1.298v-1.298h1.298v1.3z"></path> <path style="fill:#F6B319;clip-rule:evenodd;fill-rule:evenodd" d="m71.512 136.25c-0.283 0.798-0.83 1.332-1.946 1.297-0.303-1.39 0.927-1.24 1.946-1.3z"></path> <path style="fill:#F6B319;clip-rule:evenodd;fill-rule:evenodd" d="m47.512 142.08c1.516 0.214 2.68 0.779 3.892 1.297-0.692 2.62-3.883 0.6-3.892-1.3z"></path> <path style="fill:#F6B319;clip-rule:evenodd;fill-rule:evenodd" d="m183.73 149.87c-0.672-1.051 11.721 0.147 5.838 0.649-1.29 0.11-5.37 0.09-5.84-0.65z"></path> <path style="fill:#F6B319;clip-rule:evenodd;fill-rule:evenodd" d="m78.647 150.52c-0.096 1.418-1.634 1.393-3.243 1.297-0.666-2.18 2.017-1.02 3.243-1.3z"></path> <path style="fill:#F6B319;clip-rule:evenodd;fill-rule:evenodd" d="m28.701 162.19c2.993 0.977-1.331 4.893-2.594 5.838-1.439-2.07 2.257-3.49 2.594-5.84z"></path> <path style="fill:#F6B319;clip-rule:evenodd;fill-rule:evenodd" d="m32.593 166.08c-0.283 0.798-0.83 1.332-1.946 1.297-0.303-1.38 0.927-1.23 1.946-1.3z"></path> <path style="fill:#F6B319;clip-rule:evenodd;fill-rule:evenodd" d="m26.107 169.33c-1.967 2.4-2.185-1.97 0 0z"></path> <path style="fill:#F6B319;clip-rule:evenodd;fill-rule:evenodd" d="m22.863 171.92c3.798 0.87-2.348 3.07 0 0z"></path> <path style="fill:#F6B319;clip-rule:evenodd;fill-rule:evenodd" d="m21.566 175.82c0.949 0.564 2.056 0.972 1.946 2.595-1.709 0.18-2.129-0.91-1.946-2.6z"></path> <path style="fill:#F6B319;clip-rule:evenodd;fill-rule:evenodd" d="m25.458 179.06c1.259-0.257 0.948 2.955-0.648 1.946v-1.298c0.551 0.12 0.611-0.26 0.648-0.65z"></path> <path style="fill:#F6B319;clip-rule:evenodd;fill-rule:evenodd" d="m26.755 185.54h1.297v1.298h-1.297v-1.3z"></path> <path style="fill:#F6B319;clip-rule:evenodd;fill-rule:evenodd" d="m152.59 31.167c0.442-2.369 2.458-3.163 3.243-5.189-3.077 0.483-4.796 3.958-3.892 6.486 6.026-0.034 6.56-8.999 12.324-7.135 2.563-4.355 6.487-7.351 12.324-8.433-1.431 3.975-8.312 2.499-7.784 8.433-5.973 2.31-11.337 6.222-14.919 9.081 2.405 1.18 7.849-0.961 7.135-3.243 2.217 0.271 3.696-0.196 3.243-2.595 1.027-0.054 2.474 0.312 2.595-0.649 1.309 2.842-4.712 3.922-5.838 6.487-5.351 0.271-7.012 4.231-10.378 6.486 0.514 2.243-0.721 2.738-1.297 3.892-0.76-0.105-0.547-1.183-0.648-1.946-4.108 3.243-6.141 8.562-7.784 14.271-2.809-0.431-4.017 0.739-5.189 1.946 0.201 0.88 1.624 0.538 2.595 0.649-3.029 1.708-1.215 3.712-2.595 5.838 0.818-1.26-2.726-0.582-1.946 1.297-0.447-0.359-0.993-2.508 0-3.892-1.357 0.589-1.978 1.914-1.946 3.892 0.972 1.406 3.246 1.511 3.244 3.892-0.08 1.65-0.944 2.516-2.595 2.595 0.176 2.202-0.502 5.259 0.648 6.486 1.765-0.397 2.542-1.782 2.595-3.892 0.88 0.201 0.538 1.624 0.648 2.594 1.331-2.221 1.585-2.145 3.892-2.594 0.225-0.81 0.546-2.659 1.297-4.541-0.156-1.141-1.116-1.479-2.595-1.297 1.928-4.466 3.515-7.654 3.243-12.973 1.457 0.272 0.018 3.442 1.297 3.892 0.434-3.435 1.389-0.814 2.595-1.297 4.472-1.792-0.018-7.556 3.243-11.027 2.719 1.515 2.005 0.498 5.189 0-0.557 2.253-3.369 2.252-4.54 3.892 0.481 4.143-2.465 8.762-5.189 11.676 0.283 0.962 0.83-0.256 1.946 0 0.146 2.825-4.685 3.113-2.594 5.838 1.036-0.91 1.657-2.235 1.946-3.892 0.806 1.735-2.253 10.338 1.297 9.73 1.761 0.59-0.661 2.272-0.649 3.243 3.161-1.38 4.634-4.447 9.081-4.541 2.348-2.693 0.186-4.489 0-7.784 1.982 0.469 2.364-0.663 3.892-0.648-0.887-0.83-0.887-3.062 0-3.892-0.783-0.946-2.835-0.624-1.946-3.243 1.936 0.774 2.205 0.179 3.892-0.648 0.104-2.482 0.387-5.144-1.946-5.189 1.062-1.859 2.544 0.696 3.892 0.649 0.919-0.033 1.424-1.29 1.297-1.297 1.266 0.076 2.857 2.881 4.541 0.648-1.234-1.36-1.767-3.422-4.541-3.243 0.273-1.24 0.235-2.792 1.946-2.595-1.623-2.202-2.495 1.778-5.189 0.649 0.972 1.406 3.246 1.511 3.243 3.892-3.397-1.143-5.109-3.973-7.784-5.838 0.581-1.149 2.633-0.827 1.946-3.244 1.922 0.456 1.028 3.729 3.243 3.892 2.475 0.097 3.124-1.633 5.189-1.946-0.09-1.855-2.706-1.187-4.541-1.297-0.093-2.607 1.664-1.716 3.243-1.297 1.661-0.717 1.274-3.483 1.297-5.838 2.751-0.027 0.803 4.641 0.649 5.838 1.166 1.333 2.68-2.472 2.594-4.541 0.973 1.33 2.068 4.482 0 5.189 3.257-0.167 3.299-2.549 2.595-5.189 2.51 1.263 5.26-0.08 6.486-1.946-0.343-0.522-0.676-1.053-0.648-1.946-1.899-0.169-1.993 1.467-3.892 1.297 2.741-4.514 5.641-2.479 12.325-2.595 1.646-2.03 4.146-3.206 5.189-5.837 1.414 2.694 4.035 4.182 7.135 5.189-0.566-3.542-6.297-1.919-5.838-6.486 2.768 0.259 2.358 3.696 5.838 3.243 1.886-0.564 0.729-0.971 0.649-2.595 5.591 0.4 9.485 0.962 11.676 5.838 1.067-0.088 1.067-4.453 0-4.541 0.512-2.938 3.944 2.25 5.188-1.297-2.169 0.154-4.873-2.83-7.783-0.648-4.721-1.204-13.227-2.252-17.514 0.648-5.337-1.851-7.009 3.757-12.973 3.243 0.905-2.439 4.914-0.72 1.946-3.892 2.408-0.403 6.676 1.054 7.135-1.297-0.272-1.457-3.442-0.018-3.892-1.297 0.08-1.65 0.944-2.516 2.595-2.595 2.216-0.486 0.824 2.636 3.243 1.946 0.963-0.283-0.256-0.83 0-1.946 1.657 0.073 2.271 1.189 3.243 1.946 1.604-0.774 2.536-2.221 3.244-3.892 3.817 1.789 7.867 1.529 12.324 3.243 1.912-0.683 2.255-2.934 3.244-4.541 1.527-0.015 1.909 1.117 3.892 0.648-1.533 1.062-4.725 0.465-3.892 3.892 1.8-0.146 1.835-2.057 3.243-2.595 2.884 0.576 2.597 4.322 4.54 5.838 1.903-0.551-0.844-1.632 0-3.243 1.364 0.582 2.884 1.008 3.892 1.946-0.831-2.417 0.882-1.011 3.893-2.594v3.243c2.211-1.194 1.921-1.485 1.945 1.946 1.385 0.303 1.236-0.927 1.298-1.946 2.16 1.083 3.072 3.415 4.54 5.189 1.463-0.483 0.254-3.638 0.649-5.189-1.161-3.525-4.307-1.45-7.136-3.243-1.98-1.255-2.508-4.508-4.54-5.189-0.044-0.015-4.172 1.999-6.487 1.297-0.227-0.069-0.607-3.324-3.243-1.946-0.472-1.77 1.289-1.306 1.298-2.595 2.936 2.786 6.576 1.822 9.081-0.648 0.018 0.63 0.794 0.503 1.297 0.648 0.083 1.164-0.794 1.368-0.648 2.595 0.66-0.421 0.671-1.492 1.946-1.297 0.831 1.763 2.026 3.163 2.595 5.189 1.81-1.478 3.204 0.654 5.188-0.648-0.938 2.023-0.105 4.408 3.243 3.892 0.112-1.625-1.452-1.575-1.945-2.595 1.264-1.638 3.604 1.109 3.892 2.595 1.406 0.109 0.294-2.301 0.648-3.244 1.14 0.59 1.187 2.273 1.946 3.244 0.821-1.667 2.192-1.308 1.946 1.297 1.141-0.156 1.479-1.116 1.297-2.594 2.314 0.55 0.078 1.597 0.648 3.892 2.034-0.128 0.081-4.243 2.595-3.892-0.525 3.169-0.881 5.035 0 7.135 1.636-0.439 1.148-2.155 0.648-2.594 1.329-1.909 3.007 1.267 3.243 2.594 1.251-0.065-1.007-2.417 0.649-3.243 1.54 0.406-0.101 3.993 1.297 4.541 5.392-1.63 7.811 0.51 10.379 3.243 2.751-0.858-0.577-3.256-0.649-5.189 1.936 0.01 2.206 1.687 3.893 1.946-1.824 4.07 0.685 7.419 4.54 9.081 0.761-0.104 0.547-1.183 0.648-1.946 1.323 0.191 1.272 1.755 2.595 1.946 2.212-0.732 1.542-0.767 1.298-3.243 1.751 0.194 1.163 2.729 2.595 3.243-0.62 1.759-5.369-0.611-5.189 1.946 1.109 0.999 2.36-0.227 4.54 0.648 4.387-2.555-2.53-9.007-0.648-12.973 1.635 1.393 4.67 1.384 5.189 3.892 0.88-0.201 0.538-1.624 0.648-2.595 1.623 0.539 2.548 1.777 4.541 1.946 0.704-0.161 0.439-1.29 1.297-1.297 0.562-2.94-3.239-1.517-3.243-3.892 3.423-0.612 3.645 1.978 5.189 3.243-0.699 2.328-2.191 3.863-5.838 3.243 2.574 2.033 7.229 0.139 9.081 3.892 0.659-0.421 0.671-1.491 1.945-1.297 0.264 1.25 2.515 0.513 1.946 2.595-4.685-0.848-9.891 0.685-14.271-1.297-1.167 3.344 8.144 1.791 7.784 6.486 0.88-0.201 0.538-1.624 0.648-2.594 4.471 3.097 7.394 7.742 10.379 12.324 3.492-0.154 6.07-1.311 7.783 1.297-1.137 1.918-3.456-0.375-5.189 0-0.878 0.635-0.84 2.187-1.945 2.594-3.91-0.63-5.188-3.893-9.081-4.54-0.084 2.894 3.301 2.32 4.54 3.892-3.121-0.38-6.958-0.772-11.026 0.648-1.215-1.812-3.363-2.691-3.893-5.189 1.769 1.259 2.447 3.606 5.189 3.892 1.983-1.201-2.858-0.972-1.946-3.243 1.4 1.843 4.495 1.992 6.487 3.243-1.299-3.026-5.176-3.474-5.838-7.135-1.142 0.156-1.479 1.116-1.298 2.595-4.737-1.75-9.352-3.621-12.973-6.487-2.074 1.7 2.48 2.233 1.945 4.541-1.494-0.883-3.619-1.137-3.243-3.892-2.857-2.548-8.24-2.571-8.432-7.784-9.297 1.992-10.216-6.096-18.812-6.487-0.94-1.222-0.953-3.371-2.595-3.892-2.229 0.148-2.826 1.93-3.243 3.892 2.452 0.792 2.043 4.444 4.541 5.189 0.76-0.105 0.547-1.183 0.648-1.946 0.767 0.747 2.293 0.734 3.892 0.649-0.16 0.704-1.289 0.44-1.297 1.297 1.399 2.182 2.979-0.852 4.54-0.649-3.664 5.619 4.609 4.913 7.136 5.838-0.476 1.155-1.18 0.094-1.946 0 0.023 2.139 1.845 2.479 3.892 2.595 1.195-1.764 0.078 1.728-1.945 0.648 0.012 1.885 3.666 1.534 4.54 0.649 0.536-1.833-0.914-1.681-0.648-3.244-1.833-0.536-1.681 0.915-3.243 0.649-0.614-2.344 2.555-0.905 3.892-1.297 1.127 2.766 3.209 4.575 4.541 7.135 1.672-0.156-0.891-1.116 0-2.595 1.331 1.264 2.13 3.059 3.243 4.541 2.291 0.303 6.249-1.06 5.838 1.946-2.755-1.747-0.476 0.826-2.595 1.297 0.16 0.705 1.29 0.44 1.297 1.297 2.433 0.054 2.381-2.376 4.541-2.594 0.28 1.746 2.435 3.326 0.648 5.189 1.048 0.183 1.117-0.613 1.946-0.649 0.48-2.675-3.347-4.394-1.946-5.837 3.579-0.421 3.889 7.69 9.729 7.135-0.556 2.07 1.021 2.006 1.298 3.244 1.619-0.449-1.204-1.73-0.648-3.244 2.578 1.314 5.027 2.756 7.783 3.892-0.107-2.703-3.358-2.263-4.54-3.892 0.188-0.971 3.43 0.4 3.892 1.297 1.496 0.199 0.721-1.874 1.946-1.946 2.257 0.771 4.866 1.188 5.188 3.892 2.099-1.082 1.385-0.949 4.541-0.649 0.221 1.302-0.133 2.03-1.297 1.946-0.319 3.142 2.928 2.325 4.54 3.244 0.823 0.469 2.473 3.899 5.838 2.594-0.178 2.501-4.799 3-5.838 2.595 0.259 2.465 2.982 2.461 1.298 5.189 2.33 2.675 5.305 0.716 7.783 3.243-1.802 3.437-4.164-1.22-7.783 0-1.885-4.963-7.958-1.888-11.027-5.189 0.454-1.997 0.454-1.247 0-3.243 2.637-0.258 1.996 2.761 3.892 3.243 0.443-2.822-1.167-3.59-2.595-4.541 1.091-1.67 3.723 0.551 4.541 1.297 0.238 1.104-0.506 1.224-1.298 1.297 0.705 1.89 2.649 2.54 4.541 3.243 1.198-1.271-1.611-3.248-1.298-4.541 0.002-0.006 1.29-0.025 1.298 0-1.175-3.708-4.326-5.143-7.784-7.784-0.525 0.123-0.646 0.651-1.297 0.648 0.421 0.66 1.491 0.671 1.297 1.946-1.982-0.469-2.363 0.663-3.892 0.648-2.663-1.445-5.552-2.664-9.081-3.243-1.449 1.848 3.315 4.475 5.838 2.595 1.567 3.115 3.697 1.818 5.189 5.189-0.793 1.964-2.477-0.458-3.244-0.648-1.498 2.663 2.899 4.235 4.541 5.838-3.815 3.116 2.162 7.036 6.486 7.784-0.935-2.309-4.628-1.858-4.54-5.189 3.885 0.506 6.05 3.727 10.378 1.946-0.657 3.667-5.012 3.637-8.433 4.541 0.922 1.91 3.842 2.209 5.838 1.297 0.582 1.364 1.009 2.884 1.946 3.892 2.354-0.589 0.395-1.915 0.648-3.892 1.333 0.181 1.295 1.733 1.946 2.595 0.948-2.311 3.989-1.102 4.54 0.649 0.881-0.201 0.538-1.624 0.648-2.595 2.007 2.75 1.806 7.708 6.487 7.784-1.1-1.279-3.27-1.488-2.595-4.541 2.025 1.067 3.254 3.931 6.486 1.946 0.027 2.406-2.433 2.324-3.243 3.892 0.229 2.15 1.942 2.814 3.243 3.892 2.082 0.568 1.345-1.683 2.595-1.946 2.755-0.376 3.009 1.748 3.892 3.243 1.788-5.041-5.096-7.004-6.486-11.027 2.397 0.827 4.572 3.54 4.541 0 2.123 1.335 3.562 3.356 5.188 5.189 1.903-0.551-0.844-1.632 0-3.243 2.12 1.956 3.105 5.625 7.136 3.892-0.5 1.878-1.604 3.153-4.541 2.594 0.81 2.733 2.659-0.062 4.541 0-0.029 1.109 0.481 1.681 1.297 1.946-5.609 2.835-8.962-3.321-11.676-7.135-0.245 3.93 3.223 9.745 9.729 9.082 0.68 2.132 1.429 4.192 4.541 3.892-0.097 3.771 2.939 4.412 5.838 5.189-0.311 2.04 0.924 2.535 1.297 3.892 1.611 0.098 2.692-0.335 3.243-1.297 1.731 0.111 3.664 5.826 1.298 5.838 0.59 1.774 2.272-1.151 3.243 0.648 1.672-0.156-0.891-1.116 0-2.595 1.085 2.732 4.07 3.106 6.486 1.297 1.317 1.278 0.452 4.737 2.595 5.189-1.259 1.634-3.93-0.783-5.189-1.297-1.612 1.631-1.586 4.9-5.188 4.54 0.104 0.76 1.182 0.547 1.945 0.648-3.486 4.417-7.579-2.867-11.027-0.648-0.305 0.767 0.144 2.77-3.243 1.946 1.337 3.759 3.668 2.938 7.784 3.243 1.361-0.182-0.94-1.732 0.648-2.595h-1.945c2.306-2.264 3.798 1.791 5.838 1.946 0.901-1.998 4.437-2.668 5.837-0.649 0.199 1.496-1.874 0.721-1.945 1.946 0.476 0.605 1.18 0.982 1.945 1.297 0.111-3.222 3.33 0.024 5.189-1.945-2.819 0.272-5.189-2.744-7.135-5.189 3.238 0.39 5.158-0.141 7.783 2.595 2.25 0.521 2.493-0.966 4.541-0.648-0.279-1.019-2.04-0.555-1.298-2.595-2.105 1.063-4.113 0.351-3.892-2.595 3.334 0.278 5.621-1.995 6.486-5.838-0.363-1.704-8.021-3.867-7.783 0-1.658-1.152-2.835-2.787-5.189-3.243-0.376-2.105 0.441-3.018 0.648-4.541-0.951-1.427-5.007 0.25-3.892-3.243 1.01 0.937 1.279 2.612 3.892 1.946-0.911-2.728-6.642-3.49-8.433-3.243 0.105 0.76 1.183 0.547 1.946 0.648-1.058 2.888-4.696 0.333-6.486 0-1.466 0.363 0.786 1.012-0.648 1.946-3.161-0.299-3.676-3.243-5.189-5.189 0.691-1.474 1.968 1.863 3.892 1.297-0.278-1.018-2.04-0.554-1.297-2.594 1.674 1.445 4.555 1.009 7.135 0.648-0.767-1.179-3.382-0.51-4.54-1.298 0.081-1.433 2.751-0.275 3.892-0.648 0.536-1.833-0.914-1.681-0.648-3.243 3.012 0.634 0.88-3.876 3.892-3.243 0.455 1.923-1.355 6.112 1.946 5.189-1.313 3.753 3.212 5.948 5.838 7.783 1.251-0.262 0.056-2.97 2.594-1.945 2.736-0.11-0.011 0.996 0 1.945 0.755-0.105 1.154 0.144 1.298 0.649 1.882-0.497 3.73-1.026 4.54-2.595 0.473-1.771-1.288-1.306-1.297-2.595-1.235 0.278-1.63 1.397-3.243 1.297 0.101-1.83-1.834-1.625-2.595-2.595 3.595-0.513 4.422-3.794 7.135-5.189 0.564 2.51-1.584 2.308-1.945 3.892 0.991 3.117 3.755 4.461 6.486 5.838 1.259 0.257 0.947-2.954-0.648-1.946 1.696-2.276 2.278 1.995 4.54 1.298 0.649-0.512-0.241-2.269 1.298-3.243 1.613 0.098 0.189 2.196 0 2.594 2.557-0.076 1.983-2.819 4.54-1.297-1.722-2.872 2.154-2.078 0.648-6.486 3.089-0.155 1.775-4.712 4.541-5.189-2.758 5.728 0.618 14.314-3.892 18.811-1.091 5.723-0.024 10.999-0.649 15.568-0.93 6.798-5.868 11.385-7.783 17.514h-5.838c0.891 1.271 3.975 0.35 5.189 1.297-0.279 3.613-5.168 2.616-8.433 3.243-4.09 1.723-8.756 4.251-13.622 3.892-1.872-0.138-4.585-2.286-7.135-0.648-0.486 0.312-0.888 1.789-1.298 1.946-5.223 1.996-13.349 1.991-19.459 1.945-4.728-0.035-9.889-0.344-13.622-2.594-2.512-0.35-2.671 1.652-4.54 1.945-5.886-2.356-9.086-1.209-16.217-0.648-0.116-1.829-3.082-0.809-2.594-3.243-16.122 4.179-37.368 8.992-51.893 1.297-5.225 1.522-12.559 4.289-17.514 0.649-13.705 2.248-29.909-0.548-42.162 5.188-6.447-0.059-13.648-5.214-18.811-0.648-3.684-2.031-8.962 1.557-11.676-1.297-4.082 1.366-8.95 2.642-12.324 0-4.793 1.685-13.463 3.459-16.865-0.649-4.508 2.4-8.619 3.254-14.919 2.595-2.863 2.054-6.204 1.892-9.73 1.946-4.978 0.078-7.785 4.588-15.567 3.243-13.056 7.053-33.423 6.794-46.054 14.271-0.303 1.384 0.927 1.235 1.946 1.297-0.611 3.713-5.858 2.79-8.432 4.541v2.595c-8.081 2.298-13.516 7.24-24 7.135-0.072-1.226-2.145-0.45-1.946-1.946-2.802 1.18-6.51-0.308-9.081-1.297 0.577-4.86 0.432-6.438-3.243-6.486 2.07-3.372-2.461-7.923 1.946-11.676-0.264-1.25-2.515-0.513-1.946-2.595 1.831 0.101 1.626-1.834 2.595-2.595-1.238-2.02-2.817 1.014-4.541 0.648 0.161-5.46 8.875-2.368 10.378-6.486-2.371-1.692-4.77 2.128-7.784 1.946 0.029-3.863 5.735-2.049 7.135-4.541-2.224-0.04-5.367-2.098-7.784-1.945 3.825-2.812 9.051-4.521 13.622-6.487 4.854-2.088 9.71-3.524 13.622-6.486-4.874-1.103-8.843 3.518-13.622 5.189-2.879 1.007-6.599 2.223-10.378 2.595 3.138-4.646 7.882-7.686 13.622-9.729-6.985-2.77-11.255 3.452-19.459 4.54-0.828-2.558 1.775-1.685 2.595-2.595-0.098-1.199-2.196-0.397-2.595-1.297v-3.892c6.892-3.055 13.212-6.681 19.459-10.379-0.967-1.627-5.611 0.422-5.189-2.595 3.562-0.198 11.029 2.708 12.324-1.297 6.902 0.199 12.302-1.104 18.162-1.946 0.798-0.283 1.332-0.83 1.297-1.945 10.631-1.909 21.334-3.747 26.595-11.027 1.164 0.082 1.368-0.794 2.595-0.648 1.008-2.307-2.203-0.392-1.946-1.946 0.005-4.319 3.633-5.016 5.838-7.135 1.266-4.488 4.845-7.58 7.135-11.676 2.125-3.802 2.561-9.081 6.486-11.675-2.321 8.706-8.383 13.67-11.027 22.054 3.733-3.186 4.716-9.122 9.081-11.676-2.553 8.042-7.979 13.21-12.324 19.46 5.449-3.203 10.535-12.382 14.919-18.811 1.82 2.499-1.61 5.287-3.243 6.486-1.38 4.242-3.882 7.362-7.135 9.73-1.326 3.863-4.45 5.929-6.487 9.081 10.786-5.863 15.46-17.837 22.703-27.243 1.241 2.48-1.602 5.422-3.243 7.784-1.577 2.268-3.07 5.141-4.541 7.135-0.143 0.194-1.172-0.202-1.297 0-0.276 0.446 0.316 1.533 0 1.945-1.587 2.069-4.723 3.164-5.189 5.838 6.338-3.175 9.039-9.988 14.271-14.27 0.029 1.975-1.37 2.522-1.946 3.892 6.699-5.409 8.799-15.418 15.568-20.757-2.82 8.64-9.132 13.787-12.973 21.405 3.042-1.291 6.348-7.917 9.081-11.676 1.787 2.678-1.861 5.471-3.243 7.135 2.535 2.442-0.098 4.826-1.946 6.487 0.678 0.6 4.339-3.286 4.541 1.297-3.093-0.498-4.273 0.916-5.189 2.595 5.486 2.664 5.722-5.513 12.973-3.243 1.612-1.198 3.661-1.961 4.541-3.892 4.958-0.153 6.856-0.797 10.378-1.297-2.464-2.188-4.805-6.846-3.243-11.027-0.488-2.107-2.346-2.843-3.892-3.892-3.029-7.161-2.777-14.007 0.649-20.757 1.939-3.821 2.522-3.145 3.243-7.784 0.329-2.122 4.534-6.956 6.486-7.135 1.54-2.352 2.833-4.951 5.189-6.487 0.69-7.959 7.196-10.102 11.027-14.919 1.599 0.086 3.125 0.099 3.892-0.648 5.773-5.687 9.893-13.026 20.757-13.622 3.364-3 6.097-3.222 11.676-3.243 0.605-0.476 0.983-1.18 1.297-1.946 2.71-0.332 4.395 0.362 5.838 1.297-0.081 1.433-2.751 0.275-3.892 0.649 0.589 1.79 3.712 1.044 3.892 3.243-0.525-0.124-0.646-0.651-1.297-0.649-0.76 0.105-0.547 1.183-0.648 1.946-3.835-1.036-6.654-0.563-9.081 1.297 0.741-1.902 0.382-2.409-1.297-3.244-0.266 6.161-11.768 6.281-14.919 11.676-0.972-1.816-1.951-1.066-3.243 0-0.802 2.099 2.099 0.496 1.297 2.595-2.954 0.29-4.819 1.667-7.135 2.595-2.56 1.23-1.64 5.819-5.27 5.871zm135.57 9.081c-3.861-1.111-3.719-6.228-5.838-9.081-3.66 3.74 3.11 9.773 5.84 9.081zm7.78 9.729c-0.815-0.266-1.326-0.836-1.298-1.946 1.553 0.825 2.389 2.368 5.189 1.946 0.202-3.115-4.963-5.223-5.838-3.243-2.156-2.384-4.838-4.243-9.081-4.541 0.13 2.465 2.728 2.461 2.595 5.189-1.144 0.186-2.009-3.054-2.595-1.297 3.2 2.07 8.5 2.635 11.04 3.892zm61.63 79.783c-6.235 0.679-15.075-0.66-16.216-7.136-5.174 0.084-7.446-6.284-12.324-2.594-3.441-3.292-6.912-2.573-9.73-6.487-0.145 0.504-0.018 1.28-0.648 1.298-0.2-1.529-2.253-1.207-1.945-3.243 0.766 0.093 1.47 1.154 1.945 0-2.279-0.197-7.463-4.342-9.729-1.946 2.138 0.241 3.241 1.516 4.54 2.595-0.266 0.815-0.836 1.325-1.945 1.297 1.041 3.067 2.994 5.223 6.486 5.838 0.486-2.216-2.636-0.824-1.946-3.243 1.063 1.532 4.46 0.729 5.838 1.946-2.565 2.548-4.498 1.757-8.433 2.595-0.117-3.343-5.66-1.259-5.838-4.541 1.227-0.146 1.432 0.731 2.595 0.648-1.445-3.094-4.787-4.294-8.433-5.188v2.595c1.606 1.149 3.858-0.924 4.541 1.945-5.921 0.939-7.783-5.61-11.676-4.54 3.475 3.444 5.084 8.753 10.379 10.378-0.138 0.728-0.721 1.01-1.298 1.298-1.657 0.699-2.271-2.793-3.243-0.649 1.37 1.657 4.246 1.809 4.541 4.541-0.723-1.513-2.758-1.033-3.893-1.946-3.115-2.506-2.904-7.032-5.838-9.729-0.656 7.945 9.2 9.924 5.189 15.567 1.208-0.62 2.168 1.942 2.595 0-1.53-0.178 0.06-2.416 0.648-2.595 0.815 1.168 3.5 3.802 5.189 1.946-0.56-0.8-4.176-1.795-2.595-2.595 1.008 0.938 2.527 1.364 3.892 1.946-0.763-2.912-4.209-3.143-5.188-5.838 2.557 1.119 3.231 4.119 7.135 3.892-0.031 1.391 1.51 4.461 2.595 2.595-0.786 0.198-2.236-1.874-0.648-1.946 1.485 3.92 6.133 4.678 8.432 7.784-3.399-0.925-6.022-2.626-9.081-3.892 0.845 4.776 7.403 3.84 9.73 7.135 1.188-2.966 3.438 2.13 1.297-2.595 0.935-0.347 1.583 2.528 1.946 0.648-1.186-1.626-1.598-4.023-3.243-5.188-3.362 1.795-10.276-4.495-7.136-7.136 0.799 3.094 3.969 3.815 7.136 4.541-0.811-3.298-6.172-2.045-6.486-5.838-2.551 0.044-2.972 2.218-3.893 3.892-0.565-2.268-6.699-2.352-5.189-4.54 1.028 0.745 3.471 3.39 5.189 1.297-0.934-0.425-4.113-1.858-2.595-2.595 1.496 0.667 2.092 2.232 4.541 1.946 0.568-2.082-1.683-1.345-1.946-2.595 2.047-0.317 2.291 1.169 4.541 0.648-0.499 5.472 6.31 3.636 8.432 6.486-0.59 5.437 7.294 4.822 9.73 5.189-0.111 0.971 0.231 2.394-0.648 2.595-2.021-0.006-4.228-1.534-5.838 0 1.164 2.295 1.75 5.169 5.838 4.54 1.079-2.037-2.413-2.65-0.649-3.243 1.949 1.437 6 1.165 3.243 3.893 1.227-0.146 1.432 0.73 2.595 0.648 2.013-4.963-2.696-8.443-3.892-12.324-8.914 2.933-8.884-6.48-11.676-5.838 1.2 0.22-1.766 1.618-2.595 1.945-0.035-0.829-0.831-0.897-0.648-1.945 4.051 0.987-0.473-2.964 1.297-3.243 2.4 0.411 3.862 1.76 7.136 1.297-0.536 1.834 0.914 1.681 0.648 3.243 3.719 2.06 4.484-0.121 9.081 0 0.826 3.868 3.405 5.778 7.784 4.541-0.266 1.562 1.185 1.409 0.648 3.243-0.651-0.002-0.771 0.525-1.298 0.648-1.17-0.817-4.684-2.625-4.54 0.648 2.822-0.011 3.616 2.006 7.135 1.298 0.355-0.942-0.758-3.353 0.648-3.243h4.541c-0.743 2.04 1.019 1.576 1.297 2.594 2.041 0.312 2.536-0.924 3.893-1.297 0.02-1.95-1.65-2.22-1.91-3.91zm-20.11-3.24c-0.953 1.892 2.9 1.892 1.946 0h-1.95zm29.84 5.19v1.946h1.946v-1.297c-0.84-0.04-0.91-0.84-1.95-0.65zm18.81-7.79c3.278-0.075 2.539-3.885 5.188-1.298-0.082-2.08-1.429-2.895-1.945-4.54-0.7 2.34-1.81 4.26-3.25 5.84zm-293.84-20.75c1.609-0.374 5.248-2.054 3.243-3.892-1.16 1.212-2.316 2.442-3.243 3.892zm94.051-94.058c0.01-1.071 1.799-0.363 1.946-1.297-1.32-0.556-3.57 1.021-1.95 1.297zm-17.51 6.487c2.419-0.392 4.67-0.951 5.838-2.595-2.41 0.408-5.17 0.452-5.84 2.595zm22.05 9.081c1.479 0.181 2.438-0.156 2.594-1.297-1.14 0.147-3.24-0.654-2.59 1.297zm53.19-0.649c-1.833 0.536-1.681-0.915-3.243-0.649-0.62 2.385 3.19 2.579 3.24 0.649zm-5.19 5.838c0.636-0.878 2.187-0.84 2.595-1.946-0.062-2.533-2.621-2.567-3.892-3.892-1.3 1.616-0.37 5.166 1.29 5.838zm-20.75-1.297h-1.945c-0.22 2.202 1.797 5.504 3.243 3.892-2.32-0.855-0.2-2.13-1.29-3.892zm1.29 2.595c2.099 0.801 0.496-2.099 2.595-1.297-0.079-1.651-0.944-2.516-2.595-2.595-0.58 1.898-0.58 1.993 0 3.892zm3.9 0c3.118-2.6 3.081 4.457 5.838 1.946-1.614-0.98-2.965-2.224-3.243-4.541 2.249 0.994 2.351 4.135 5.838 3.892-0.921-3.836-4.32-5.193-9.081-5.189-0.1 1.599-0.11 3.125 0.64 3.892zm-12.98-1.298c-1.235-0.278-1.63-1.397-3.243-1.297-0.99 2.807 2.96 3.5 3.24 1.297zm-65.51 2.594c0.29-1.872 2.791-1.533 3.243-3.243-1.69 0.078-4.95 1.912-3.24 3.243zm56.43-2.594c2.47 1.794 2.85-2.379 0 0zm-59.02 10.379c0.681-2.995 2.788-4.563 4.541-6.487 0.826 0.884 3.178 1.002 3.244-0.648-3.902 1.728-1.048-0.941-1.946-1.946-2.97 1.575-6.96 5.561-5.83 9.081zm96-8.433c-0.31 2.717-6.445-0.392-6.486 2.595 6.891-2.134 4.889 4.625 9.081 5.189 0.179-1.902-2.599-2.409 0-3.243 0.392 2.015 3.668 4.511 5.189 3.243-0.949-0.564-2.056-0.971-1.946-2.594 1.289 0.008 0.825 1.77 2.595 1.297-0.148-2.485-1.931-2.873-3.892-1.946-1.2-1.825-2.14-3.906-4.53-4.541zm-14.28 2.595c1.308-2.463-2.948-2.572-3.243-1.297 2.45-0.94 1.25 1.782 3.24 1.297zm-30.48 0c1.208-0.089 2.168-0.427 2.595-1.297-1.16 0.147-3.26-0.655-2.6 1.297zm66.16-0.649c-0.689 3.746 5.773 0.964 3.893 0-1.04 2.087-2.42-2.282-3.89 0zm29.19 1.946c-1.507-0.267-2.741-4.12-4.54-1.946 1.51 0.266 2.74 4.119 4.54 1.946zm-145.95 5.189c-0.536 1.833 0.914 1.681 0.648 3.243 3.461-0.074 3.995-2.47 3.243-5.189 0.92-2.323 4.73-1.756 5.189-4.541-5.48-0.289-4.89 5.483-9.08 6.487zm50.6-3.243h1.297c0.726-0.934 0.7-1.583-0.648-1.946-0.04 0.829-0.83 0.898-0.65 1.946zm-11.03 0c0.826 0.884 3.177 1.002 3.243-0.648-0.82-0.885-3.17-1.003-3.24 0.648zm55.14 5.189c-1.345-1.898-1.586-4.9-3.892-5.837 0.2 3.036 0.44 6.037 3.89 5.837zm0-3.892c-0.314-0.767-0.691-1.471-1.297-1.946-0.1 0.868 1.02 3.576 1.3 1.946zm-67.46 46.054c-1.806 1.527-4.859-1.553-5.838 1.297 1.208 0.621 2.168-1.942 2.595 0-2.543 2.647-6.166 4.213-7.135 8.433 3.821-0.019 3.615-6.97 7.784-4.541 0.16-2.452 2.05-3.15 2.61-5.189zm-3.89 20.756c-3.241-0.115 2.048 2.19-1.297 2.595-3.973-2.088-8.741-6.819-11.675-7.784 5.778 5.249 10.107 11.946 18.162 14.919 0.806-4.383 4.117-1.219 6.486-0.648 1.292 0.136 2.771-2.75 3.243-1.298-0.418 1.58-1.31 3.337 1.297 3.243-0.906-2.503 0.551-3.335 0.649-5.188 0.771 1.823 6.141-0.952 5.838 1.945-1.227-1.286-3.065-0.314-4.541 0 0.428 6.329 5.395 1.538 9.081 3.243 1.081-1.288-0.059-0.824 0-2.594 2.582 0.419 2.608-1.717 5.189-1.298-0.372 1.822-4.728 3.013-2.595 5.189 1.883-2.335 2.316 4.72 5.838 1.946-1.959-0.194-1.209-2.729 0-3.244 0.771 1.824 6.141-0.951 5.838 1.946 2.938-0.089 4.22-1.834 6.486-2.595 0.586 2.15-3.604 2.814-1.945 3.893 0.817-0.747 3.449-2.969 4.54-1.298-1.485 2.246-6.78 2.475-8.433 2.595 0.351 1.028-4.414 2.482-5.188 4.54 1.826 0.58 6.759 1.42 8.432 0-2.107-0.055-3.989-0.334-5.188-1.297 2.839-1.145 11.408 2.101 11.675-3.243 0.931 0.8 1.229 2.23 1.298 3.892 1.442-0.503 3.518-0.374 3.892-1.945-3.058-1.05-5.397-2.819-5.838-6.487 1.065-1.312 2.169-2.587 4.541-2.594-1.096 2.618-0.638 2.782-1.946 5.188 1.019 0.279 0.555 2.04 2.595 1.298 2.289-0.191-2.289-1.756 0-1.946 2 1.928 6.814 1.373 9.729 0.648-0.059-2.423-0.727-1.849 0-3.892-5.171 0.749-4.071-4.085-4.54-6.486 1.744-2.147 7.55-0.234 8.433-3.243-1.66 0.854-4.075 0.573-2.595-1.298-5.919-0.596-8.311 10.784-13.622 4.541 1.676 0.633 5.136 1.373 5.189-1.298-3.591-0.085-7.151-0.2-7.784-3.243 3.576 1.647 7.105-0.662 10.379-1.297-0.389-1.686 0.26-2.334 1.945-1.946 0.165-1.924-2.564-3.2 0-3.892 0.621 1.325 1.325 2.566 1.946 3.892 3.752 0.687 5.074-0.229 7.784 1.298 0.137-0.729 0.72-1.01 1.297-1.298 0.683-2.412-2.188-1.271-2.595-2.595 1.344-0.386 4.262 0.802 4.541-0.648-1.348-0.167-0.178-2.85-1.298-3.243 3.077-0.815 4.734-3.05 7.136-4.541-3.312 0.568-6.725 1.155-9.081-0.648-0.938 1.007-0.865 3.027-1.946 3.892-2.349-1.544-4.032 2.186-7.135 1.946-0.036-0.829-0.832-0.898-0.649-1.946 4.309 0.2 6.183-2.034 8.433-3.892-0.971-0.111-2.394 0.231-2.595-0.649 0.504-0.145 1.279-0.018 1.298-0.648-2.226 0.495-6.308 4.082-9.729 3.243-1.384-0.339-3.479-1.54-2.595-3.243 1.618-0.462 2.665 2.855 3.892 0.648-1.641 0.683-2.875-2.188-1.297-2.595 1.956 0.638 2.568 2.621 4.54 3.244 2.408-0.824 1.929-2.603 2.595-3.892 1.52 1.291 4.127 1.494 7.135 1.297-2.011 2.417 1.775 0.592 1.946 0.648-0.16-0.053 0.965 3.926 2.595 1.297-0.784-0.137-0.399-0.72 0-1.297-2.558 0.828-1.685-1.775-2.595-2.594-5.475-0.89-11.124 1.806-11.676-3.244 1.442 0.936 3.128 1.629 5.838 1.297 0.313-2.043-1.991-1.468-1.297-3.892-2.309 0.146-3.888-0.438-4.541-1.946 2.084 1.265 4.002 1.248 5.838-0.648-1.897-2.539-4.215-0.052-7.135 0-0.927 2.823 2.217 2.982 0.648 4.541-3.919-0.724-1.915-3.921-4.541-5.189 0.06-1.022 1.654-0.508 1.298-1.946-0.363-0.934-1.012-1.583-1.946-1.946 0.801 4.043-2.098 4.389-1.297 8.433 1.342 1.252 4.864 0.324 4.54 3.243-3.549-0.09-7.305-2.827-6.486-5.189-2.772 1.702-1.755-0.871-3.892-1.297-0.102 2.264 1.573 2.751 1.945 4.541-5.077 0.211-7.36-0.811-11.676 0-0.092-2.07-2.398-1.926-2.594-3.892h3.243c-0.182 1.479 0.156 2.438 1.297 2.595 1.585-1.659 0.401-6.086 3.892-5.838-0.859 1.085-1.718 2.173-1.297 4.541 1.422 1.074 3.839 3.046 5.189 0.648-1.489-0.889-2.086-2.671-3.243-3.892 3.763 0.93 3.342-2.709 3.892-3.244 2.343 0.251 1.63 3.56 5.189 2.595 0.313-2.908-2.293-2.896-2.595-5.189-1.898-0.334-3.188 3.229-4.541 1.297-0.198-1.496 1.874-0.72 1.946-1.946-3.095-0.086-0.862-1.471-1.298-3.892 1.021-1.141 3.475-0.851 4.541-1.946-4.879-2.915-12.789-3.288-17.514 0 1.246-1.161 4.173-4.005 3.243-5.189-0.908 1.902-6.227-0.605-7.135 1.297 1.881 1.445 4.387-1.497 4.54 1.946-1.402 1.462-2.212-0.537-4.54 0-0.029 2.133-2.773 1.552-2.595 3.892 5.442-0.515 20.219-7.398 15.567 2.594-1.551-0.395-4.706 0.814-5.189-0.648 0.346-2.218 3.126-0.993 4.541-0.649-3.722-4.195-7.461 2.356-9.729 3.892-3.157 0.519-6.216 1.136-8.433 2.595 0.819 0.91 3.422 0.037 2.595 2.595-0.83-0.036-0.898-0.832-1.946-0.649-0.084 3.846-10.163 5.002-11.027 1.946-0.207 0.751-2.008 3.056-2.595 1.297 1.006-1.156 1.784-2.541 2.595-3.892 3.328 1.645 10.543 4.466 8.432-1.946 1.624 0.11 2.031-0.996 2.595-1.946-5.246 2.399-9.418 2.528-15.567 0.648-0.274 2.105-2.697 2.061-3.243 3.892 1.155 0.388 2.694-1.901 3.243 0-1.208 0.089-2.168 0.427-2.595 1.297 2.373 0.427 2.488-1.403 4.541-1.297-1.668 1.477-1.311 2.513-1.946 3.892v-1.297c-5.259 0.07-8.34-2.039-9.081-6.487 1.606-2.501 3.75-4.465 7.135-5.189 2.163-4.972 6.828-7.442 13.622-7.784 1.237 0.276 1.173 1.853 3.243 1.297 0.146-1.227-0.731-1.431-0.649-2.595 1.646-1.594 6.033-1.69 8.433-0.649-0.196-2.65 0.897 0.11 2.594-0.648 1.074-4.039 26.624-7.557 24-2.595 2.328 0.382 3.139-0.754 4.541-1.297-0.151-7.417-11.062-4.074-12.973-9.73-4.468-0.29-11.002 1.488-10.379-3.892-3.277 1.274-5.896 2.713-8.433 0-1.438 1.156-2.635 2.555-5.837 1.946-1.55 2.088-4.979 5.153-8.433 3.243-1.477 3.957-5.664 3.571-8.433 5.189-3.187 1.863-3.791 8.016-8.432 8.433 0.414 4.306-2.081 5.703-3.892 7.784 1.121 2.771 0.124 7.66 3.243 8.433-0.518 1.212-1.083 2.375-1.297 3.892 3.28 0.648 5.438 2.75 7.784 2.595-2.826 1.312-12.115-0.559-11.676 4.541 1.227-0.719 2.274-1.618 3.892-1.946 2.001 4.343 7.269-2.858 8.433 0.648-2.763 0.773-4.676 1.79-4.541 3.892-1.071-0.01-0.363-1.799-1.297-1.946-1.583 0.626-5.174 5.274-1.946 6.486 1.316-0.414 0.427-3.032 1.946-3.243 0.288 1.226-0.882 3.909 1.297 3.243 2.553 1.039 0.226-2.801 1.946-2.595 1.211 1.154-0.527 1.648 0 3.892-1.786 0.376-2.709 1.615-4.541 1.946-0.079-1.65-0.944-2.515-2.594-2.595-0.977 1.537-0.194 3.186-2.595 1.946-0.316 3.496 2.294 0.039 3.243 1.946-2.957 0.767-1.726 5.375-1.297 6.487 1.141 0.373 3.811-0.784 3.892 0.648-3.086 2.104-6.013-0.665-7.784-1.946-0.856 1.624 2.564 2.03 0.648 2.595-1.754 0.189-3.708-2.71-5.189-0.648 2.23 1.06 6.04 0.49 7.17 2.61zm-18.82-11.675c1.601-0.863 3.388-0.437 5.189 0.648 1.289-2.038-1.117-4.007 1.297-5.189-3.857-1.549-6.115-4.695-7.784-8.433-2.451-0.001-4.901 0.082-7.135-1.297 0.621 2.351-2.8 0.66-3.243 1.946 0.855 2.34-3.057 9.61 1.297 9.73-1.415-0.835 0.061-4.212 1.297-4.541-0.617 3.713 0.693-1.718 1.946-1.946h5.189c-0.604 2.712-0.434 2.568 1.297 3.892-2.637-0.61-1.996 3.765-3.892 1.946-0.232 3.433 2.096 6.313 3.243 7.135 0.746 0.534 1.843 0.145 2.595 0.648 2.623 1.76 2.93 4.727 5.189 7.136 6.207 6.618 15.07 12.048 22.054 16.864-3.49-4.765-9.296-7.088-13.622-11.026-4.045-3.684-7.403-8.212-11.027-12.324 0.115-2.278-2.191-2.134-2.594-3.893-2.423-0.058-1.849-0.727-3.892 0 0.266-1.562-1.185-1.41-0.648-3.243 0.45-0.508 3.619-1.443 3.892 0-0.53 0.081-1.98 2.154-0.67 1.955zm101.19-54.486c0.676 2.135 2.011 3.61 3.892 4.541 1.138-1.611 0.233-5.515-1.946-5.838-0.16 0.911-1.41 0.739-1.94 1.297zm25.95 0.649c-1.922-0.061-4.116-3.186-5.838-1.297 1.67 0.59 4.26 4.618 5.84 1.297zm-95.35 1.296c1.292 0.819 4.668-0.614 5.189-2.594-1.97 0.627-3.46 1.735-5.19 2.594zm51.89 0h1.297c1.009-1.596-2.203-1.907-1.945-0.648 0.39 0.037 0.76 0.097 0.64 0.648zm45.4 1.298c0.942-0.354 3.353 0.758 3.243-0.648-0.82-0.884-3.17-1.003-3.24 0.648zm17.52 1.297c-0.615-0.541-2.095-3.426-3.243-1.297 0.97 0.181 2.73 2.789 3.24 1.297zm-54.49 0.649h1.297c0.396-0.037 0.768-0.097 0.648-0.649-0.535-0.466-4.195-2.034-2.595-0.648 0.51 0.143 0.76 0.543 0.65 1.297zm3.89-0.649c1.291 0.433 2.771 2.237 3.243 0-0.505-0.143-0.754-0.543-0.648-1.297-1.47-0.181-2.43 0.156-2.59 1.297zm-107.02 4.541c1.946-1.298 3.728-2.758 5.189-4.541-3.01 0.233-4.28 2.21-5.19 4.541zm118.05-3.892c0.654 0.007 0.815 1.137 0 1.297-1.604-2.111-3.066-0.354-5.189-1.946 1.025 2.218 2.62 3.866 3.892 5.838 1.747-1.687-0.793-1.956-0.648-3.892 1.289 0.008 0.825 1.77 2.595 1.297 0.146-0.503 0.018-1.279 0.648-1.297 0.728-0.066 1.01 0.943 1.298 0-0.62-0.338-2.16-2.91-2.6-1.297zm-75.89 1.946c0.195-1.709-0.898-2.129-2.595-1.946-0.19 1.711 1.36 1.673 2.6 1.946zm-40.22 2.595c0.52 3.331-0.695 4.926-1.297 7.135 3.498-1.483 5.884-7.509 5.838-10.378-1.26 1.33-3.06 2.129-4.54 3.243zm104.44-1.947c-0.109-0.755-1.025-0.704-1.946-0.648-0.223 2.385 2.363 1.961 3.892 2.595v-3.243c-1.27-0.195-1.28 0.875-1.94 1.296zm27.89 3.892c-0.287-2.308-2.349-2.841-3.243-4.541 0.29 3.036-0.16 3.925 3.24 4.541zm-101.19-1.297c0.587-1.143 2.388-1.072 2.595-2.595-1.92-0.549-4.22 1.757-2.6 2.595zm70.7-1.297c-0.857-0.007-0.593-1.137-1.298-1.297-0.036 0.396-0.097 0.768-0.648 0.649 0.146 0.503 0.019 1.279 0.648 1.297 0.037-0.396 0.098-0.768 0.649-0.649 0 0.36 0.53 0.736 0.65 0zm24 3.892c-1.003 0.943-0.571 3.321-0.648 5.189 3.193-0.87 3.767 2.251 8.432 0.649-0.609-5.444-6.657-5.451-7.135-11.027-1.528-0.014-1.909 1.118-3.892 0.649-1.78 6.35 1.35 0.392 3.25 4.54zm-92.11-1.946c-0.273 2.712 1.943-0.3 2.595-0.649-1.22-0.145-1.42 0.731-2.59 0.649zm-38.92 0.648c-2.049 0.113-1.759 2.566-1.946 4.541-1.52 1.742-5.764 4.159-4.541 6.486 0.896-1.086 2.996-4.306 3.892-3.243-0.439 1.507-2.155 1.736-2.594 3.243 2.507-0.087 2.558-2.63 4.541-3.243-2.22-2.773 0.07-4.487 0.65-7.784zm-0.65 4.541c1.711 0.197 1.673-1.354 1.946-2.595-1.71-0.197-1.67 1.355-1.95 2.595zm138.17-3.243c0.942-0.355 3.353 0.758 3.243-0.648-0.97-1.029-2.65-0.479-3.24 0.648zm-18.81 4.54c1.857-0.127 3.54-0.081 3.243 1.946-1.696-0.183-2.79 0.237-2.595 1.946 5.827-0.714 2.78 3.475 5.838 5.189 0.078-2.77-0.798-3.184-1.946-5.838 1.116-0.256 1.663 0.963 1.946 0-2.359-1.928-3.804-3.775-2.595-7.784-2.107 0.749-3.99-1.981-5.189 0 1.339 1.04 4.157 0.6 4.541 2.595-0.82 0.904-3.17 0.282-3.23 1.946zm5.19-0.649c2.384 1.034 3.031-4.936 0.648-4.54 0.31 2.047-1.17 2.291-0.65 4.54zm49.29-2.594c-3.047 1.063-3.618-3.684-5.838-1.297 1.57 0.69 4.68 4.205 5.84 1.297zm-100.54 3.243c3.059 2.254 3.645-2.574 5.838-3.243-2.2 0.827-4.12 1.937-5.84 3.243zm12.33-1.945c1.955-1.665 4.004 2.752 4.541-1.297-1.48 0.471-5.06-1.169-4.54 1.297zm5.19 0c0.853 0.661 2.392 0.636 3.243 1.297 0.2-2.026-3-3.464-3.24-1.297zm52.54 3.243c-0.438-1.724-1.021-3.303-1.946-4.541-0.38 2.338-0.88 4.133 1.95 4.541zm-64.87-0.649h3.243c0.056 4.579 4.441 1.316 5.189-0.648-3.028 0.434-4.146-1.043-5.838-1.946 0.36 0.002 0.736-0.525 0-0.649-1.57 1.23-0.42 2.013-2.59 3.243zm24.65-1.298h1.298v-1.297h-1.298v1.297zm-70.05 4.541c1.206-1.173 1.481-3.275 1.946-5.189-2.51-0.519-2.6 4.705-1.95 5.189zm116.11-1.946c0.093-2.039-1.664-2.229-3.243-2.595-0.1 2.04 1.66 2.229 3.24 2.595zm-121.95 15.568c2.047 0.317 2.291-1.169 4.541-0.649 0.868-2.465-0.29-3.596 0.648-6.486-4.527-1.25 1.563-5.926-2.594-6.486 1.072-0.83 3.971-3.145 1.297-3.892-2.33 4.44-5.3 11.49-3.9 17.513zm36.97-16.216c1.116 0.035 1.663-0.5 1.946-1.297-1.12-0.035-1.67 0.499-1.95 1.297zm27.24 0.648c3.294-2.163 3.621 2.968 5.838 1.297-2.051-0.805-0.122-1.886-1.945-3.243-1.62 0.33-3.92-0.021-3.9 1.946zm9.74-0.648c-0.45-0.508-3.619-1.444-3.893 0 1.13-0.18 3.23 1.826 3.89 0zm8.43 0.648c1.56 3.336 1.67-2.233 0 0zm22.05 1.297c-1.289-0.008-0.825-1.77-2.595-1.297-0.11 1.875 2.2 3.574 2.6 1.297zm25.3 0c-1.049-1.113-2.713-1.611-5.188-1.297 0.45 1.671 4.39 3.92 5.19 1.297zm16.22 1.298c0.304-2.033-1.631-1.829-2.595-2.595-0.3 2.031 0.56 2.896 2.6 2.595zm-118.06-1.298c-0.454 1.997-0.454 1.247 0 3.243 2.41 0.248 1.696-2.628 4.541-1.946-0.35-2.797-2.42-1.403-4.54-1.297zm7.78 0.649c1.019-0.062 2.249 0.086 1.946-1.297h-1.297c0.01 0.65-0.52 0.772-0.65 1.297zm27.25-0.649c0.769 2.771 6.918 4.569 8.433 2.595-2.832 0.198-2.884-1.919-5.189-0.649 0.362-1.322 1.952-1.271 0.648-2.594-1.6-0.086-3.13-0.098-3.89 0.648zm-2.6 1.298h1.298c1.008-1.596-2.203-1.907-1.946-0.648 0.4 0.036 0.77 0.096 0.65 0.648zm78.49 0.648c-1.144 0.186-2.008-3.054-2.594-1.297 0.61 0.339 2.15 2.911 2.59 1.297zm-66.16 0.649c1.153 0.576 1.648 1.811 3.893 1.297-1.051 1.524 1.126 4.155 3.892 3.892-0.049-1.13 0.145-2.017 0.648-2.594-4.7 0.981-4.31-6.353-8.43-2.595zm41.51-0.649c-1.215-0.144-4.299-1.672-5.189 0 1.655 0.54 1.977 5.765 4.541 3.244-1.281-0.449-1.729-1.73-1.946-3.244 1.21-0.62 2.17 1.943 2.6 0zm18.81 1.298v-1.946c-0.763 0.102-1.841-0.111-1.945 0.648 0.92 0.156 1.09 1.069 1.94 1.298zm-18.16 1.297c0.894-0.028 1.425 0.306 1.946 0.649 0.545-0.753 0.855-1.739 0.648-3.244-1.66 0.08-2.52 0.945-2.6 2.595zm9.08-1.946v1.946c3.621-2.685 5.948 1.598 7.784-0.648-0.4-2.456-5.77-2.506-7.78-1.298zm20.76 1.298c0.378-2.323-1.92-1.972-3.892-1.946-0.16 2.181 2.41 3.351 3.89 1.946zm-120.65 5.189c-2.796 0.85-0.804-3.088-3.243-2.595v3.244c2.879 0.148 8.709 3.202 9.729-0.649-2.569 0.634-4.713 0.354-5.838-1.946-0.954-2.047 2.978-3.869 0-3.892-2.59 1.14-0.2 5.47-0.65 5.838zm5.84-0.649c3.627 1.21 6.102-1.344 8.433-3.243-4.09-0.199-6.04 1.746-8.43 3.243zm0.65-3.243c2.052 0.891 2.168 0.141 4.541 0 0.25-3.278-4.22-1.694-4.54 0zm24-1.946c-4.16-0.749-1.43 1.981 0 0zm-28.55 3.892c2.18 0.072 3.431 1.297 4.541-0.649-2.612 0.666-2.882-1.01-3.892-1.946-0.2 0.877-0.92 1.239-0.65 2.595zm44.76 1.297c-2.966 0.792-3.601-2.695-5.838-0.649-0.23 3.457 5.72 3.335 5.84 0.649zm-4.54-3.892c-2.474 0.337-4.19 1.431-5.838 2.595 2.832-0.886 1.38 2.512 3.892 1.946-0.1-2.264 1.58-2.751 1.95-4.541zm4.54 3.243c1.144-0.586 2.008-1.451 2.595-2.594-3.677 0.315-2.067 2.096-5.189-0.649-1.67 1.751 0.69 3.13 2.6 3.243zm-27.24-0.648c-2.453 0.939-1.245-1.782-3.244-1.297-0.964 0.766-2.898 0.562-2.595 2.595h6.487c0.481-1.626 0.082-2.052 1.945-3.243-2.56-0.027-3.77-0.379-2.61 1.945zm57.08 1.946c-0.476-2.357-4.654-4.397-6.487-3.243 2.03 1.217 3.26 3.232 6.49 3.243zm-27.24-1.946c0.861 0.842 2.413 0.855 2.594-0.649-0.86-0.842-2.41-0.855-2.59 0.649zm38.91 0.648c1.752 0.194 1.164 2.729 2.595 3.243-1.012-3.606 3.164-2.025 2.595-5.189-2.57 0.773-3.53-0.22-5.2 1.946zm19.46 0c1.141 0.632 3.891 2.97 5.189 1.297-1.333-0.181-1.295-1.732-1.946-2.595-1.15 0.36-2.69 0.334-3.24 1.298zm5.84 0c2.069-0.556 2.006 1.021 3.243 1.297 0.11-1.624-0.996-2.03-1.946-2.595 0 0.858-1.13 0.594-1.29 1.298zm-168.65 1.298c0.177-0.883-0.402-2.532-0.648-1.297-0.17 0.882 0.41 2.531 0.65 1.297zm155.68 1.945c-0.008 0.857-1.138 0.593-1.298 1.297 3.201 0.907 2.784 5.432 5.838 6.487 0.318-2.092-3.027-3.833-1.297-5.189 0.938 3.171 3.495 4.721 5.188 7.135-1.62 0.838 0.687 3.145 2.595 2.595-1.948-4.754-5.382-8.023-9.081-11.027-0.193-1.275 0.876-1.286 1.298-1.946-2.577-1.316-3.989-1.098-6.486-3.243-0.12 2.496 1.82 2.936 3.24 3.891zm-159.57 4.541c0.757-3.162 3.614-2.129 4.541-3.892-2.652 0.878-1.977-4.885-3.892-2.595 1.47 0.882-2.54 5.183-0.65 6.487zm53.84-3.892c0.544-0.753 0.855-1.739 0.648-3.243-2.39-0.624-2.58 3.187-0.65 3.243zm14.92-1.946c1.02-0.062 2.25 0.087 1.946-1.297h-1.297c0 0.65-0.53 0.772-0.65 1.297zm40.86 0.649c0.455-1.611-2.773-2.747-3.243-1.297 1.24 0.276 1.17 1.853 3.24 1.297zm1.95-0.649h1.945c0.084-1.165-0.644-1.518-1.945-1.297-0.01 0.432-0.01 0.865-0.01 1.297zm55.13-0.648c4.24 4.615-0.21-1.397 0 0zm-10.37 4.54c0.104-2.049 0.022-3.915-1.298-4.541 0.11 1.835-0.56 4.451 1.3 4.541zm10.37 3.243c5.598 0.457 3.924 8.184 9.081 9.081 0.62-1.208-1.942-2.167 0-2.594 1.412 1.849 5.016 4.907 7.135 3.892-1.314-0.249-4.521-1.897-3.243-2.594 1.79 1.021 3.812 1.81 5.838 2.594-1.558-3.532-6.951-6.779-10.378-4.541-1.237-2.223-4.235-2.684-4.541-5.838 0.072-1.225 2.145-0.45 1.946-1.946-0.871-0.427-1.208-1.386-1.297-2.595-4.61 0.907-3.41 2.241-4.55 4.541zm11.68 0c-0.871-0.427-1.208-1.386-1.298-2.594-4.495 1.252-2.688-3.799-5.837-3.892-0.331 3.076 3.444 7.256 5.837 9.73 0.15-2.528-1.394-3.363-1.945-5.189 1.35 0.001 2.43 3.533 3.24 1.945zm-9.73-4.54c-1.982-0.612-2.033-3.156-4.541-3.243-0.57 2.763 3.5 4.241 4.54 3.243zm-120.65-0.649c0.97-0.11 2.394 0.231 2.594-0.649-0.857-0.007-0.593-1.137-1.297-1.297-0.05 1.023-1.65 0.508-1.29 1.946zm93.41 5.189c1.829 0.42 0.913-4.702 3.892-2.594 1.529-1.882 1.058-3.117-0.648-4.541-1.264 1.205-0.445 2.621 0.648 3.243h-2.595c0.17 1.9-1.46 1.993-1.29 3.892zm33.73-4.54c-0.314-0.766-0.691-1.47-1.298-1.946-0.1 0.867 1.02 3.576 1.3 1.946zm-68.76 0c1.558 1.623 1.718 0.616 4.54 0.649 0.07-1.975-4.33-2.789-4.54-0.649zm6.49 1.297c1.344-0.386 4.261 0.802 4.541-0.648-0.95-1.401-4.16-1.78-4.54 0.648zm7.13-2.595c-1.608-0.095-3.147-0.121-3.243 1.297 1.61 0.098 2.69-0.334 3.24-1.297zm32.43 7.785c1.12 0.394-0.05 3.077 1.298 3.243 0.95-3.249-1.017-5.935-3.243-7.784-1.637 0.854 1.7 2.129 1.297 3.892-1.94-1.086-3.085-2.969-4.541-4.541-0.35 3.563 3.23 7.993 5.18 5.19zm-133.62-1.947c1.896 0.172 2.491-2.517 0.649-2.594 0.15 1.226-0.73 1.431-0.65 2.594zm11.03 5.19c2.521-0.506 4.939-1.115 6.487-2.595-0.183 1.696 0.237 2.79 1.946 2.595-0.743-2.041 1.019-1.576 1.297-2.595-0.538-1.408-2.449-1.443-2.595-3.243 0.503-0.146 1.28-0.018 1.297-0.648-3.85 1.239-10.16 1.616-8.44 6.486zm88.22-5.838c-1.155 0.388-2.694-1.901-3.243 0 0.39 0.373 3.07 1.518 3.24 0zm-89.52 1.946c1.623 0.11 2.03-0.997 2.594-1.946-1.62-0.11-2.02 0.996-2.59 1.946zm-5.19 2.594c2.423 0.693 1.849-1.611 3.892-1.297-0.036 0.829-0.832 0.898-0.649 1.946 1.711 0.198 1.673-1.354 1.946-2.594-2.041 0.743-1.576-1.019-2.595-1.297-0.43 1.506-2.15 1.735-2.59 3.242zm19.46-2.594c-0.013 0.001-0.115-1.072-0.648-0.648 1.54 3.135 6.41 0.309 0.65 0.648zm71.35 2.594c3.116 0.305 5.368-0.254 5.838-2.595-2.87-0.058-4.68 0.941-5.84 2.595zm42.82-0.648c0.855 1.955 1.618 4.002 3.892 4.541 0.821-1.978-2.218-3.303-0.648-3.892 0.745 1.152 2.238 2.96 3.892 1.297 0.707 1.671 1.64 3.117 3.243 3.892 0.67-4.007-5.62-8.779-10.37-5.838zm-149.2 1.297c-0.977 1.759-2.798-1.032-3.892-1.297-1.26 2.865 6.05 3.524 3.89 1.297zm142.71 2.594c-1.479 0.891-2.438-1.672-2.595 0 1.144 0.586 2.008 1.451 2.595 2.595-1.227 0.146-1.432-0.731-2.595-0.649 1.124 1.709 2.677 6.375 4.54 5.189-1.045 0.278-2.177-2.418-0.648-2.595 0.649 0.864 1.069 1.958 1.946 2.595 1.434-3.007 2.072 0.223 3.892 0.648-0.018-0.004 0.803-1.445 1.297-1.297 1.851 0.555-0.874 1.627-0.648 1.946 1.915 1.637 5.84-5.004 2.595-6.487 0.55 4.299-1.756-0.99-2.595 1.297 0.949 0.564 2.057 0.971 1.946 2.595-2.728 0.004-2.725-2.72-5.189-1.297-0.562-2.465-2.931-3.123-2.595-6.486-1.35-0.38-2.096-1.363-3.243-1.946-0.568 2.082 1.683 1.345 1.946 2.594-3.56-0.612-2.32-0.291-0.66 1.298zm-117.41 2.595c1.479 0.181 2.438-0.156 2.594-1.297-0.96-1.022-2.89-0.723-2.59 1.297zm1.3-3.243c-0.943 0.354-3.353-0.758-3.244 0.648 1.51 0.198 2.79 1.385 3.24-0.648zm-30.49 3.892c1.677 0.583 3.182-3.665 0.649-3.243 0.27 1.562-1.18 1.41-0.65 3.243zm3.25 0.649c1.628-0.192 3.588-2.876 1.297-3.243-0.28 1.234-1.4 1.629-1.3 3.243zm161.51-1.298c1.613-0.071 2.008-1.215 3.243 0v-1.946c-2.069-0.385-2.007 1.217-3.243 0v1.946zm11.68 3.243c-0.368-2.224-3.386-4.15-4.541-1.946 0.443 1.286 3.864-0.405 3.243 1.946-1.608 0.842-3.147-1.447-3.243 0 1.77 1.267 2.76 1.267 4.54 0zm-30.49 1.298c-1.264-0.93-2.21-5.531-4.54-3.243 2.13 0.066 3.07 4.667 4.54 3.243zm14.27-3.243c1.021 2.488 3.476 5.049 5.838 2.595-2.42 3.572 0.729 4.766 2.595 7.783 1.835-1.369 4.417 2.045 5.838 3.243-0.926 0.155-1.094 1.068-1.946 1.298-0.826-0.903-3.177-0.282-3.243-1.946-3.364 0.724-6.392 3.068-9.081 0-0.114 3.142 2.449 3.604 4.541 4.541 0.898-0.398 0.098-2.497 1.297-2.595-0.16 5.928 0.877-2.008 2.595 0.648-3.669 1.833 2.7 3.982 2.595 6.486 1.226-0.287 3.909 0.883 3.243-1.297-1.154-1.225-4.277-0.479-3.892-3.243 3.331 1.286 3.086 0.841 5.838 0.648 1.097 3.011 2.671 5.545 5.838 6.486-4.273-5.241-6.112-12.915-10.379-18.162-1.099 1.473-4.331-0.383-5.189-1.297-0.146-1.227 0.731-1.431 0.649-2.594-2.266-0.113-3.265-1.493-3.893-3.244-1.84-0.54-1.69 0.91-3.25 0.645zm-3.89 15.572c-0.103 2.128 2.648 3.112 3.892 1.946 0.836 3.056 3.96 3.824 5.189 6.486 0.2-2.362-0.104-4.222-0.648-5.838-2.083-0.568-1.345 1.683-2.595 1.946 0.469-1.982-0.663-2.364-0.648-3.893-2.41 0.44-2.79-1.12-5.19-0.66zm52.54 14.26c-3.481-10.03-15.076-10.394-22.702-14.919-3.6 1.425-4.965-0.398-8.433-0.648 0.378 2.433 1.307 4.314 3.243 5.188 0.842-1.608-1.447-3.147 0-3.243 1.192 1.619 1.789 3.833 4.541 3.893 0.102-0.764-0.112-1.842 0.648-1.946 1.98 1.911 5.94 1.844 6.486 5.189 1.697-0.681 2.208-1.772 3.892 0-1.796 1.785 0.583 2.709 0.648 4.54 1.275 0.194 1.287-0.876 1.946-1.297 2.69 3.745 4.715 0.487 7.784 3.243-0.081-1.624-1.238-2.03 0.648-2.595-0.19 1.49 0.15 2.45 1.29 2.6zm-29.19-27.238c2.653 1.159 2.192-4.448 0.648-1.946 1.88 0.363-1 1.012-0.65 1.946zm-145.95 4.54c0.544 0.753 0.855 1.739 0.648 3.243 2.868-0.707 1.719-5.919 1.946-7.783 0.18 2.557-2.78 1.984-2.6 4.54zm185.52 11.028c-0.959-1.636-2.509-2.681-4.541-3.243-0.11 0.971 0.232 2.394-0.648 2.595-0.766-0.964-0.562-2.898-2.595-2.595-0.627 1.751-1.626 3.13-3.892 3.243 0.254 3.422 2.278 5.073 5.838 5.189 0.854-2.011-1.923-3.599 0-4.541 3.318-0.075 0.899 5.587 4.54 5.189 0.243-1.808-2.47-3.947-0.648-5.189-0.097 3.772 4.294 3.058 4.541 6.486-3.787-0.543-2.107 4.379-6.486 3.243 0.048-1.129-0.146-2.017-0.649-2.594-1.816 0.345-3.372 0.952-5.188 1.297-0.264 2.457 2.265 5.476 3.243 4.541-1.209-0.515-1.959-3.05 0-3.244 0.303 2.94 1.731 4.756 4.54 5.189 0.102-0.764-0.111-1.841 0.648-1.945 0.191 0.576 1.756 2.84 1.946 1.297-2.07-2.154 2.663-0.887 3.243 0-0.055-2.324-1.009-3.748-1.297-5.838 0.763 0.102 1.841-0.111 1.945 0.648-2.248-0.633-0.548 3.877 1.298 3.243 0.856-1.623-2.564-2.03-0.648-2.595 1.425 0.737 2.154 2.17 3.892 2.595 0.71-3.329-4.533-4.082-3.243-5.838 2.477 1 4.316 6.041 7.135 4.541-5.78-2.47-5-11.46-12.98-11.69zm14.92 11.03c0.387-3.414-3.046-3.008-5.189-3.893 0.55 2.46 2.54 3.51 5.19 3.89zm-21.41-17.517c-3.447-1.184-4.236 4.464-10.379 2.595-2.656-2.973-4.417-10.276-8.433-9.73 0.325 0.832 2.433 3.088 1.298 3.243-2.031-0.347-2.338-2.419-2.595-4.541-2.945 2.411-6.173 0.489-9.081-0.648-2.668 3.134-6.999-2.111-8.433 1.946 2.016 0.795 2.606 3.016 5.838 2.594 0.899-0.398 0.098-2.497 1.298-2.594 1.398 1.958 0.547 1.958 1.945 0 0.465 1.914 0.741 4.016 1.946 5.189 2.642-1.157 4.081 2.252 7.135 2.595 0.111 0.879-3.754 0.841-1.297 1.946 0.098-1.614 2.196-0.19 2.595 0 0.287-1.485 2.628-4.232 3.892-2.595-0.319 1.707-3.576 2.185-1.946 3.892 2.404-0.919 6.027 0.307 5.838 3.892 2.032 0.131 2.191 2.134 4.541 1.946-0.46-3.541 0.072-4.314 0-6.486 1.008 0.783 2.527 2.072 3.892 0.648-0.57-2.52 1.58-2.31 1.94-3.897zm-184.87-7.784c2.47 1.794 2.86-2.379 0 0zm90.82 3.243c0.396 0.037 0.769 0.097 0.648 0.649h1.298c1-1.596-2.21-1.907-1.95-0.649zm1.29-2.594c-2.115-0.169-3.122 0.77-3.243 2.594 1.9-0.044 2.41-1.482 3.24-2.594zm3.89 3.892c1.227 0.146 1.431-0.731 2.595-0.648 0.183-1.696-0.237-2.79-1.946-2.595 0.32 2.036-2.23 1.713-0.65 3.243zm25.3-1.298c1.563-0.265 1.41 1.185 3.244 0.649-0.273-1.241-0.235-2.792-1.946-2.595 0.2 1.276-0.87 1.287-1.29 1.946zm-140.75 3.243c0.505 0.144 0.754 0.544 0.648 1.298 2.884-0.54 1.616-4.232 4.541-3.244-0.089-1.208-0.427-2.167-1.297-2.594-0.01 2.805-3.06 2.562-3.89 4.54zm120.65-3.891c-0.829-0.036-0.898-0.832-1.946-0.648-1.01 1.596 2.2 1.907 1.95 0.648zm12.97 2.595c2.47-0.71 4.049 1.716 4.541-0.649-2.97 1.023-1.2-2.692-3.244-2.594-0.28 1.236-1.86 1.173-1.3 3.243zm-172.54 9.081c0.893-1.486 3.233-1.523 3.892-3.243h-1.946c0.54 1.89-3.863 2.1-1.943 3.24zm7.133-10.379c-2.898 2.723-6.425 4.819-8.433 8.432 4.153-1.46 6.193-5.044 8.433-8.429zm140.76 5.189c-2.043 0.728-1.469 0.059-3.892 0-0.798 2.96 4.385-0.061 4.54 1.946-1.081 0.865-4.128-0.236-3.892 1.945 4.454 0.562 7.011-0.772 7.135-4.54-1.657-0.699-2.271 2.793-3.243 0.648 0.486-1.226 1.937-0.45 0.648-1.945-2.08 0.278-3.19 0.895-1.31 1.935zm2.59-1.945c2.4 0.454 1.617-2.274 2.595-3.244-2.194 2.38-6.394-1.238-7.136 2.594 2.8-0.673 2.52-0.37 4.55 0.65zm84.33 1.295c-1.571-0.591-1.718-2.607-1.946-4.541-4.12-0.264 0.4 6.661 1.95 4.541zm-26.6-1.945h1.297c0.036-0.829 0.832-0.898 0.649-1.946h-1.946v1.946zm8.44 3.245c-1.455-1.592-3.165-6.321-5.838-4.54 1.36 1.878 3.45 5.76 5.84 4.54zm-156.33-3.893c-0.666 2.18 2.018 1.01 3.243 1.298 0.46-2.246-2.27-2.327-3.24-1.298zm-12.32 3.893c-0.238-1.924-1.125-3.199-2.595-3.892 0.56 1.591 0.58 3.742 2.59 3.892zm-24.65-0.65c1.683-0.695 4.345-0.412 5.189-1.945-1.87-1.538-4.51 0.294-5.19 1.945zm245.19-0.65h1.298v-1.297h-1.298v1.297zm-286.7 0c-4.299 4.56 1.402-0.21 0 0zm76.535 1.3h1.297v-1.297h-1.297v1.3zm3.9-0.65c-2.19-1.97-1.97 2.4 0 0zm116.75 3.24c-0.01-1.72 0.36-3.819-1.297-3.892-0.13 1.87 0.17 3.3 1.3 3.89zm-155.02-2.59c-1.159 0.003-3.774-1.746-4.541 0 2.37-0.55 3.47 2.99 4.54 0zm6.48 1.3c-0.036 0.829-0.832 0.898-0.648 1.945h1.946c0.256-3.367-4.805-5.448-5.838-1.945 0.768 0.19 2.45 2.612 3.243 0.648-1.06 0.473-2.821-1.289-1.297-1.297 0.13 0.95 1.58 0.58 2.6 0.64zm125.84 0.65c-0.057-1.128 3.948 1.322 3.892-1.297-0.96-0.338-1.635-0.96-2.595-1.298 0.88 1.83-3.43 1.63-1.29 2.6zm66.16 0c-2.317 0.544-3.561-3.301-4.541-1.946 0.77 1.01 3.02 3.84 4.54 1.95zm-186.81 0c0.01-1.071 1.799-0.363 1.946-1.297-1.227 0.146-1.431-0.731-2.595-0.649 0.1 0.76-0.12 1.84 0.64 1.95zm-24.65 0.64c3.99-0.76 1.63-3.12 0 0zm241.95-0.64c-4.15-0.75-1.42 1.98 0 0zm-64.22 4.54c-0.026-2.354-2.672-2.085-3.244-3.893 0.35 2.02 1.55 3.21 3.24 3.89zm-162.81-0.65c0.081-1.433 2.751-0.275 3.892-0.648-0.705-2.492-5.765-2.306-7.135-0.648 0.942 0.354 3.353-0.758 3.243 0.648-0.35 0-0.72 0.52 0.01 0.65zm105.73 3.24c5.337 1.976 11.457 3.131 14.919-0.648-2.049-0.894-3.914 1.605-4.54 0 2.307-2.556 6.745 1.05 8.433-1.945-0.792-0.074-1.536-0.194-1.298-1.298-4.101 1.803-6.513-0.438-9.081-1.946-1.5 3.25-5.87 3.64-8.43 5.84zm166.06-2.59c2.691 1.34 3.799-4.168 2.595-2.595-0.21 1.53-3.08 0.39-2.6 2.6zm-297.73-0.65c2.74-0.016 4.189 1.256 6.486 0 0.097 0.864-2.637 1.958-0.648 2.595 1.686-1.652 4.014-0.746 7.784-1.297-0.359-1.155-0.333-2.694-1.297-3.243-0.988 1.017-4.626 3.104-5.189 0.648 0.794 0.207 4.006-0.104 1.946-0.648-3.56 0.11-7.542-0.2-9.073 1.95zm291.89 2.59c0.318 2.913-0.329 4.86-0.648 7.136 2.419-0.689 1.026 2.433 3.243 1.945 0.804-2.792-2.075-5.234 1.297-5.188-0.16-5.029-3.8-6.579-7.783-7.784-0.26 2.85 3.49 1.69 3.89 3.89zm-295.14-3.24c-2.398 0.649-6.88 2.607-5.838 4.541 2.223-1.116 5.424 0.664 7.784-1.298-0.187 3.557-7.572 7.079-9.081 3.243 0.767 0.094 1.47 1.155 1.946 0-4.984-3.334-7.544 5.452-15.567 3.243-1.55 2.126-4.162 3.19-5.838 5.189-6.639 1.571-16.554 2.335-20.757 9.081 2.265-0.169 7.026-4.295 7.784 0-2.234 0.063-4.836 2.115-8.433 2.595 0.059-1.022 1.655-0.508 1.297-1.946-3.174 0.088-7.214 2.708-5.838 5.189-0.101-1.83 1.834-1.626 2.595-2.595-2.229 2.62 2.917 0.17 2.595 1.298-1.955 0.857-7.192 2.341-6.486 5.188 1.545-1.049 3.49-1.698 4.541-3.243 5.405 4.796 7.917-6.47 12.973-1.945-0.753 0.544-1.739 0.855-3.243 0.648-1.464 3.795-3.764 4.478-7.784 4.54-0.848-0.911-3.434-2.331-3.892 0 3.299 1.838-5.12 2.469-4.541 5.838 3.008 0.414 4.013-1.176 5.189-2.594 4.168 0.289 5 1.369 7.135 2.594-0.362 1.323-1.952 1.272-0.649 2.595 6.528-0.889 9.02-1.306 14.919 0.648-1.009-1.801-2.269-3.353-3.892-4.54-0.717 1.661-3.483 1.273-5.837 1.297-0.088-3.371-4.076-2.843-4.541-5.838 3.447 0.91 4.513-1.757 9.729-1.945-0.792-0.073-1.536-0.194-1.297-1.298 2.077 1.753 4.303-0.5 7.135 0-0.019 3.46 0.459 0.644 1.297 0.649 0.529 0.003 2.336 0.82 3.243 0.648 2.672-0.509 4.34-4.751 6.486-3.243-2.4 3.797-9.357 5.697-12.324 3.892-1.614 1.861-7.128 3.229-5.838 5.838 1.149-0.797 2.628-1.264 3.243-2.595 1.235 1.216 1.63 0.071 3.244 0-0.207 1.504 0.104 2.49 0.648 3.243 1.14-0.373 3.811 0.784 3.892-0.648-1.578-0.998 2.827-1.445 2.594-3.243 2.71 0.155-0.736 2.412 1.297 3.243 1.316-3.657 8.059-1.888 11.027-3.892 0.473 1.77-1.289 1.306-1.297 2.595 3.627 1.08 7.501 1.767 11.676 0.648v-2.595c-2.898 0.931-4.536-0.361-8.433 0 0.291-2.519-1.625-4.069 1.297-4.541-0.128 1.857-0.081 3.54 1.946 3.243 1.82 0.278-1.626-2.418 0.648-2.594 5.267 0.207 8.714-0.175 11.027-3.893-0.22 0.354-1.273-1.111-1.297-1.297-0.296-2.296 1.713-3.797 3.243-3.892-0.008 1.288-1.77 0.824-1.297 2.594 1.107 1.128 5.699 0.837 2.595-0.648 3.331-0.52 4.926 0.695 7.135 1.298 1.59-1.222 2.938-2.685 5.189-3.243 0.001 2.833-2.22 3.83-0.648 6.486 4.944-1.889 4.085 3.53 9.729 2.595-0.123-2.688-4.653-0.969-4.541-3.893 2.616 0.063 5.191 2.607 7.784 0.648 0.003-1.158-1.747-3.773 0-4.54 0.113 2.72 4.278 4.774 5.838 3.892-1.339-0.39-2.456-1.003-1.946-3.243 2.605 1.515 8.1 3.56 11.676 1.946-1.416-0.747-4.196-0.129-4.541-1.946 0.045-1.938 5.567-1.734 6.486-0.648-0.01 1.071-1.799 0.363-1.946 1.297 5.428-0.771 6.011 0.117 11.676 0.649v-2.595c-3.357-0.804-8.465 1.479-9.081-0.648 1.609 0.095 3.147 0.12 3.243-1.298-1.762 0.607-5.667 0.839-5.838-1.946 1.609 0.096 3.148 0.121 3.243-1.297-2.677 1.522-4.857 0.029-7.135-0.648-0.472 1.77 1.289 1.306 1.297 2.595-2.392 0.92-11.277 3.273-12.324-0.649 3.337-0.554 6.394-1.39 9.729-1.945v-2.595c-3.381 0-8.157 2.81-10.378 0-0.69-3.523 6.196-2.856 5.838-3.892h-7.135c-0.047 3.27-1.369 4.334 0 6.486-3.331-1.363-3.943 0.953-7.135 1.297-6.626-4.521-14.685 4.785-20.108-0.648v-3.243c2.052 0.106 2.168-1.724 4.541-1.297 0.266 1.562-1.185 1.409-0.648 3.243 1.155-0.388 2.694 1.9 3.243 0-0.792-0.074-1.536-0.194-1.297-1.298 3.806 0.974 7.368-1.685 8.433-1.297 0.002 0.65-0.525 0.771-0.649 1.297 3.512-1.392 5.069 1.898 7.784 0.648 0.194-1.274-0.876-1.286-1.297-1.945 2.75 0.154 5.138-0.052 5.838-1.946-2.734-1.001-9.46 2.652-10.378-2.595 1.724-0.365 3.303 2.668 4.541 0.648-3.429-7.261-16.812 4.508-16.865-4.54-2.56-1.457-5.023 1.023-7.135-0.648 0.27-1.461 3.557 0.097 3.243-1.946-1.405-0.55-3.736 0.48-4.541-1.946-1.843 1.81-1.443 1.07-1.925-0.64zm-6.487 40.22c3.93-0.179 7.533-0.684 9.73-2.595-3.093 1.02-7.265 0.95-9.73 2.6zm160.86-38.92c1.608 0.095 3.147 0.12 3.243-1.298-1.15 0.36-2.69 0.33-3.24 1.3zm-134.27 0c-2.499 1.825-4.598 4.051-9.081 3.892-0.456 1.611 2.773 2.747 3.243 1.297-1.604-0.961 2.909-0.581 3.892-1.297 1.163-0.848-0.318-2.811 1.946-2.595 1.217 1.237-0.385 1.174 0 3.243 1.972-0.406 5.587 0.83 6.486-0.648-1.975-0.188-4.427 0.104-4.541-1.946 3.232-1.524 9.599 0.086 11.676-2.595-5.1 0.62-8.24 1.72-13.63 0.66zm71.35 21.4c-14.102-4.277-23.165-13.593-33.081-22.055 0.194 1.275-0.876 1.287-1.297 1.946 7.564 7.787 17.119 13.584 25.946 20.108-4.103-1.33-10.459-8.483-13.622-4.541 6.14 2.726 10.578 7.152 18.811 7.784-0.118 1.415 0.531 2.063 1.946 1.945 1.096-4.812 4.424-4.115 6.486-7.135-3.854 0.216-9.674-4.445-13.622-3.892 2.71 2.05 6.97 2.55 8.42 5.85zm101.84-17.51c-1.762-0.833-1.867-3.322-3.892-3.892-0.11 2.3 2.87 4.87 3.89 3.89zm96.65-1.3c0.155-0.926 1.068-1.094 1.298-1.945-2.227-1.133-6.115 0.843-9.081-0.648-0.884 0.826-1.002 3.177 0.648 3.243 0.894-1.655 6.583-0.906 7.135-1.946-0.66 0.02-0.83 1.15-0.01 1.31zm-256.87 0.65c0.261-1.847 3.806 1.671 4.541-0.649-2.11-1.95-5.11-1.75-4.54 0.65zm19.46-1.3c-0.101 1.831 1.833 1.626 2.595 2.595 0.155-0.926 1.068-1.094 1.297-1.946-1.37-1.14-1.92-1.46-3.9-0.65zm131.68 4.54c0.09-2.072 2.894-1.431 3.892-2.595-1.761 0.464 0.464-3.059-1.297-2.595-2.73 0.68-2.87 3.48-2.59 5.2zm106.38-1.94c1.925-0.237 3.2-1.124 3.893-2.595-1.39-1.2-4.41-0.1-3.89 2.6zm-140.76 0c1.233 2.868 5.965 0.581 7.784 0-0.19-4.39-6.78-2.24-7.78 0zm25.95 0c1.657-0.072 2.271-1.189 3.243-1.946-1.65 0.07-3.34 0.12-3.24 1.95zm-147.25 1.29c2.999-0.029 6.416 0.361 7.784-1.298-2.02-0.66-6.21-0.37-7.78 1.3zm3.25-2.59c-1.141 0.373-3.811-0.784-3.892 0.648 1 1.07 3.02 0.27 3.89-0.65zm252.32 0.65c-0.04 2.635 1.958 3.231 3.893 3.892 0.925-0.865 0.925-3.675 0-4.54-1.98-0.47-1.9 1.12-3.89 0.65zm-240.65 1.29c1.59 1.266 5.451 0.648 6.486-0.648-1.61-1.27-4.95-0.14-6.49 0.65zm101.19 3.25c2.062 0.992 2.854 0.228 5.188 0 1.039-2.553-2.801-0.226-2.594-1.945 0.824-0.899 3.17-1.838 0.648-2.595-1.16 1.45-3 2.2-3.25 4.55zm-101.84-3.89h-3.243c-0.78 3.69 3.36 2.51 3.24 0zm247.14 1.29c-0.195 1.709 0.898 2.128 2.595 1.945-1.113-2.114 3.107-3.122 0-3.243 0.66 1.95-1.44 1.14-2.59 1.29zm-88.87 6.49c-2.29-2.304-1.996-4.989-3.244-7.136-1.82 0.773-4.135 1.054-3.892 3.893 3.164-1.201 0.799 0.584 1.946 1.945 3.66-0.71 3.72 1.73 5.18 1.3zm50.6-5.19v-1.946h-1.945c-0.12 1.42 0.52 2.07 1.94 1.95zm-282.16 1.95c-2.28 0.932-5.997 0.606-7.135 3.243 5.019-1.9 11.753-2.085 14.271-6.486-2.525 0.42-4.491 2.17-7.136 3.25zm333.4-3.25c-1.16 6.5 2.99 1.34 0 0zm-274.38 1.95c3.291 0.048 6.64 0.154 8.432-1.297-3.33-0.09-6.39 0.1-8.43 1.3zm13.63 0c1.473-0.473 5.061 1.169 4.541-1.297-1.84 0.11-4.45-0.56-4.54 1.3zm46.7 3.24c-3.018 2.24-7.006-1.515-9.081 0 2.327 0.292 4.207 4.409 6.486 2.595-1.667-0.886 3.211-0.619 3.892-1.297v-3.243c-5.902 0.929-6.875-3.071-12.324-2.595 1.72 3.46 7.59 2.79 11.02 4.54zm-41.51-1.94h3.243c-0.028-0.894 0.306-1.425 0.649-1.946-1.66 0.29-2.99 0.91-3.89 1.95zm93.4-1.3c-0.9 0.829-0.396 3.062-1.297 3.893 2.509 0.347 3.166-1.158 5.838-0.649 0.004-2.86-2.605 0.597-3.243-1.945 1.415 0.117 2.063-0.531 1.945-1.946-1.83-0.53-1.68 0.91-3.24 0.65zm158.27 3.24c0.177-1.337 2.873-0.154 2.595-1.945-1.289-0.009-0.824-1.771-2.595-1.298-0.36 0.39-1.51 3.08 0.01 3.24zm-235.46 0.65c-0.072-1.657-1.189-2.271-1.946-3.244 0.198 2.027-1.874-1.648-1.946 0.649 1.77 0.4 1.62 2.71 3.9 2.59zm115.46 1.3c2.865 0.054 3.176-2.446 4.541-3.892-2.011 0.854-3.599-1.923-4.541 0 3.92 0.49-0.11 1.79 0 3.89zm-20.76-1.3c1.6 0.085 3.125 0.098 3.893-0.649-0.102-0.763 0.111-1.841-0.649-1.945-0.15 1.79-3.65 0.23-3.24 2.59zm-112.21-1.95c-5.08 0.35-2.83 2.6 0 0zm9.08 0c-2.184 0.41-6.025-0.836-7.135 0.648 1.3 0.83 6.8 1.52 7.14-0.65zm46.05 3.9c0.029-1.975-1.37-2.522-1.946-3.892-3.32-0.51-4.712 0.909-7.784 0.648 0.957 3.886 5.921 0.933 8.432 0.648-0.18 1.47 0.16 2.43 1.3 2.59zm48-2.6c1.226-0.287 3.909 0.883 3.243-1.297h-3.243v1.3zm120 1.3c0.155-0.926 1.068-1.095 1.298-1.946h-1.946c0.11 0.77-0.11 1.85 0.65 1.95zm-5.83-0.65c2.18 1.97 1.96-2.4 0 0zm-306.82 3.25c0.734-1.428 4.279-0.045 4.541-1.946-0.926-0.155-1.094-1.068-1.946-1.297 0.18 1.75-4.822 1.6-2.595 3.25zm190.71 0c-0.792 0.073-1.536 0.193-1.298 1.297 1.624 0.11 2.03-0.996 2.595-1.946-2.354 0.625-0.545-2.914-2.595-2.594-0.462 1.7-3.703 0.621-3.892 2.594 3.287-0.488-1.394 2.479 0.648 2.595 1.829-0.549 2.53-2.227 3.892-3.243 0.01 0.65 0.53 0.77 0.66 1.3zm149.83 0c1.898 0.583 1.992 0.583 3.892 0 0.485-2.432-0.731-3.161-2.595-3.243 0.1 1.6-1.02 2-1.3 3.24zm-245.18-2.6c-1.344 0.386-4.261-0.802-4.541 0.648 1.34-0.39 4.26 0.8 4.54-0.65zm82.37 2.6c1.834-0.536 1.681 0.914 3.243 0.648 1.07-4.12-3.39-3.8-3.24-0.65zm15.57-2.6c-0.52 3.93 2.98 0.43 0 0zm-55.13 1.94c-1.007-0.148-3.027-2.493-3.892-0.648 0.68 0.47 2.98 2.54 3.89 0.65zm168.65 2.6c0.009 0.034-2.134 0.121-0.648 0.648 0.607 0.216 1.889-1.109 3.243 0 0.689-2.419-2.433-1.026-1.945-3.243 1.227 1.287 3.064 0.315 4.54 0 0.661 0.853 0.636 2.392 1.298 3.243 1.975-2.654 7.409 4.118 9.081-1.945-5.069-1.644-13.778-4.711-18.812-0.648-0.073-0.792-0.193-1.536-1.297-1.298 0.62 1.208-1.943 2.168 0 2.595 1.72 0.49 4.11-1.13 4.55 0.66zm-312.65-1.3c1.864 0.134 3.295-0.165 3.892-1.298-1.661 0.07-3.092 0.37-3.892 1.3zm302.27 0.65c1.696 0.183 2.79-0.237 2.595-1.946-1.63-0.1-2.04 1-2.6 1.95zm-164.76 0h1.297v-1.297h-1.297v1.3zm5.84 1.3c3.067 0.257 5.413-0.208 7.784-0.648-0.59-4.05-5.41 0.46-7.78 0.65zm-151.79 0c3.2-0.043 6.583 0.097 7.784-1.945-3.264-0.02-6.166 0.32-7.784 1.95zm157.63 1.95c3.2 0.389 3.936-1.686 7.135-1.297 0.146-1.227-0.731-1.432-0.648-2.595-3.09 0.38-5.13 1.8-6.49 3.9zm97.94-2.6c-2.18 0.821-3.431-2.54-4.54-0.648 1.37 0.7 4.02 4.77 4.54 0.65zm-51.89 1.3c2.758-1.135 8.274 0.49 9.729-1.946-3.76 0.13-8.46-0.67-9.73 1.95zm107.67-0.65c-1.227-0.719-3.064-0.827-4.54-1.297-1.32 2.9 4.1 2.32 4.54 1.3zm-120.64-0.65c-1.141 0.373-3.812-0.784-3.893 0.648 1.13-0.37 3.81 0.78 3.89-0.65zm2.59 1.3h1.945c0.084-1.165-0.644-1.519-1.945-1.298-0.01 0.43-0.01 0.86-0.01 1.3zm160.22-1.3c-2 3.89 2.4 3.18 0 0zm-370.38 1.95c0.104 2.793 3.654 0.832 5.838 0.648 2.855-0.239 6.854 0.674 7.135-1.946-4.511 0.39-8.658 2.62-12.973 1.3zm20.757 0.65c-0.292-1.806 3.535 0.509 3.243-1.297-1.06-0.84-5.01-0.15-3.243 1.3zm180.32 0h1.297v-1.297h-1.297v1.3zm40.87 3.24c2.867 1.244 5.654-1.163 5.838-4.54h-1.945c0.1 2.92-2.53 3.1-3.9 4.54zm-57.09-2.6c-0.037 0.396-0.097 0.769-0.648 0.649-1.141 0.373-3.812-0.784-3.892 0.648 3.717 1.3 7.854 0.409 11.026-0.648 0.32 2.036-2.235 1.713-0.648 3.243 4.661 0.501 5.591-1.396 7.135-2.595-4.055 0.661-1.961-1.067-3.892-1.946-3.04 2.657-10.923-1.831-11.026 0 0.77 0.11 1.85-0.11 1.95 0.65zm19.46 0c0.01-1.071 1.799-0.362 1.945-1.297-1.32-0.55-4.03 0.57-1.95 1.3zm-194.59 3.25c3.127 0.295 6.698-2.354 5.838-3.892-2.202 1.04-5.344 1.14-5.838 3.89zm218.59-1.3c2.137-0.025 4.589 0.266 4.54-1.946-1.87-0.83-3.98-0.22-4.54 1.95zm-56.43-0.65c0.838 1.517-2.82 4.077-3.243 6.486 2.276-0.11 2.75-2.646 1.946 0.648 3.215-0.027 2.77-3.716 4.541-5.189 1.316-1.469 7.136 1.208 5.838 0-0.262-1.251-2.971-0.056-1.946-2.594-1.936 0.01-2.205 1.686-3.892 1.945 0.002-0.65-0.525-0.771-0.649-1.297 1.02-0.062 2.25 0.087 1.946-1.298-1.91 1.25-3.2 0.64-4.55 1.3zm52.54 0c0.931 0.989 3.382 0.632 3.243-1.298-1.6-0.09-3.14-0.12-3.24 1.3zm92.76-0.65c-0.197 1.71 1.354 1.673 2.595 1.945-0.05-1.75-1.49-3.12-2.6-1.95zm-331.46 9.73c5.915-1.221 9.644-4.627 14.271-7.136 2.188-0.769 8.575 1.462 9.081-2.594-11.627-0.6-16.94 5.12-23.352 9.73zm387.89-6.48c0.132-0.826 1.886-3.178 0.649-3.243 0.01 0.96-2.41 2.64-0.65 3.24zm-72.65-1.3c-1.625 0.858-1.574-3.021-2.595-0.648 0.87-0.1 1.96 2.64 2.6 0.65zm-86.27 3.89c4.232 0.99 2.71-3.775 7.136-2.594 0.434-2.812-3.011-1.747-5.189-1.946 2.9 2.97-1.01 2.13-1.95 4.54zm90.81-2.59c-1.07-0.01-0.362-1.8-1.297-1.946-0.55 1.32 1.03 3.57 1.3 1.95zm-301.62 6.48c4.32-2.6 9.975-3.863 12.973-7.784-5.064 1.85-9.337 4.5-12.973 7.78zm359.35-5.19c-0.473 1.77 1.289 1.306 1.297 2.595 1.978 0.031 3.303-0.589 3.893-1.946-1.514-0.19-1.514-1.755 0-1.945 0.114 2.047 0.455 3.868 2.594 3.892 1.506-1.495-1.2-2.092-0.648-4.541 0.504-0.145 1.279-0.018 1.298-0.648-3.26 0.43-5.17 2.2-8.43 2.61zm-128.43 1.3c1.479 0.182 2.438-0.156 2.595-1.297-1.321-0.192-1.729-1.299-2.595-1.946-1.22 1.24 0.38 1.18 0 3.25zm-104.43 0v-1.945c-2.321 0.489-4.121 1.501-4.541 3.892 2.039 1.849 2.737-1.576 5.189-1.297 3.259-0.017 4.74 1.746 7.784 1.945-0.493-2.328-6.297-2.179-1.946-3.892-2.393 0.41-4.956-2.346-6.486-0.648 0.86 0.01 0.83 1.8 0.01 1.95zm37.62 0.65c-0.844-1.611 1.903-2.692 0-3.243-0.37 0.39-1.52 3.07 0 3.24zm-179.03 5.19c5.501-2.065 11.062-4.073 14.919-7.783-6.669 0.89-10.846 4.28-14.919 7.78zm19.459-7.79c-0.55-0.551-1.85 0.471-1.946 0.648-0.612 1.14 2.394-0.2 1.946-0.65zm135.57 0.65c4.24 1.9 3.99-2.42 0 0zm31.13 1.95c0.942-0.355 3.353 0.758 3.243-0.649-1.892 0.163-2.238-1.221-3.243-1.945v2.6zm5.84-1.95c-1.137 0.179-3.236-1.826-3.892 0 1.14-0.18 3.24 1.83 3.89 0zm5.19 1.3c2.043-0.727 1.468-0.059 3.892 0-0.194-1.274 0.876-1.286 1.297-1.945-3.18 0.14-4.78 0.43-5.19 1.95zm19.46 0c-2.158-0.446-1.045 1.342-0.648 1.946h1.297c-0.472-1.77 1.289-1.306 1.298-2.595-2.182 1.224-2.126-2.937-3.243-0.648 0.72 0.14 1 0.72 1.29 1.3zm20.76 3.24c1.791 0.626 5.878-1.257 7.135-3.244-2.998 0.379-5.608-3.006-7.783-1.297 1.275 1.104 4.011 0.745 5.189 1.946-0.58 2.76-4.1-0.79-4.54 2.59zm5.83 1.3c3.433-1.757 8.006-2.372 9.081-6.486-3.3 1.88-6.66 3.71-9.08 6.49zm90.82-1.95c0.473-2.805-4.248-2.562-2.594-4.54h-1.298c-0.396 0.036-0.768 0.097-0.648 0.648 1.36 1.45 1.92 3.7 4.54 3.89zm-206.27-1.94c2.61-0.417 6.897 0.843 8.432-0.649-3.58-0.42-6.46-2.1-8.43 0.65zm254.27 1.94c2.492 0.72 4.082-2.778 2.595-3.892-0.43 1.74-1.87 2.47-2.6 3.89zm-282.17-0.64c1.021-0.964 0.723-2.898-1.297-2.595-0.17 1.48 0.16 2.44 1.3 2.6zm4.54 1.29c-0.013-1.934 0.061-3.953-1.946-3.893-0.34 2.3 0.56 3.34 1.95 3.89zm241.3-1.29c0.094-2.039-1.663-2.229-3.243-2.595-0.09 2.04 1.66 2.23 3.24 2.6zm-331.46-0.65c0.767-0.314 1.47-0.691 1.946-1.298-0.867-0.1-3.576 1.02-1.946 1.3zm82.378-1.3h-2.595c-1.03 3.02 3.35 2.25 2.59 0zm111.57 1.3c0.658-2.223-4.872-1.545-5.188-0.648 1.55 0.39 2.96 0.93 5.19 0.65zm24 1.94c2.048 0.317 2.291-1.169 4.541-0.649 0.273-1.429-1.943-3.577-2.595-1.945 2.28 1.29-1.9 1.48-1.94 2.59zm63.57-3.24c-0.971 0.111-2.395-0.231-2.595 0.649 0.85 0.84 2.4 0.85 2.59-0.65zm66.16 1.3c0.658-2.223-4.873-1.545-5.189-0.648 1.55 0.39 2.96 0.93 5.19 0.65zm0.65 3.24c2.845-0.736 2.131 0.004 4.54 0.648 0.315-0.767 0.692-1.471 1.298-1.945 3.462 5.706 9.214-0.874 11.676 1.297 1.813-1.803-1.477-1.816-2.595-2.595-1.99 4.156-7.719 0.926-8.433-1.946-0.79 4.22-5.75 0.27-6.49 4.54zm-334.71-3.24c-0.049 1.13 0.145 2.018 0.648 2.595 1.651-0.079 2.516-0.944 2.595-2.595-1.235-1.21-1.629-0.06-3.243 0.01zm347.03 0c-0.394-0.374-3.077-1.519-3.243 0 0.39 0.37 3.08 1.52 3.24 0zm-78.48 1.29c-0.645 3.023 2.665 2.092 3.892 3.243 0.35-1.758 0.52-1.614 1.298-3.892-0.877-0.204-1.239-0.923-2.595-0.648 1.3 2.79-0.68 1.76-2.6 1.3zm-176.44 0.65c1.208-0.09 2.167-0.427 2.594-1.298-1.14 0.15-3.24-0.65-2.59 1.3zm5.19-0.65c2.47 1.8 2.85-2.37 0 0zm20.76 0.65c-1.735-0.644-3.42-1.337-5.838-1.298-0.38 2.37 4.73 2.57 5.84 1.3zm53.83 0c1.456 1.379 4.274 0.462 4.541-1.298-1.89 0.92-3.18-0.74-4.54 1.3zm137.52-0.65c0.468 3.216 3.292 1.129 5.838 1.298 1.515 1.463 6.609 2.266 7.136-0.648-1.237-0.277-1.174-1.854-3.243-1.298-0.569 2.082 1.682 1.345 1.945 2.595-3.63-1.92-7.71-1.68-11.68-1.94zm-240 1.3c1.049 1.113 2.713 1.611 5.189 1.297-0.13-1.99-4.5-3.81-5.19-1.3zm55.78 1.95c1.828-1.198 6.069 0.016 7.784-1.297-0.98-3.82-6.82-0.77-7.78 1.3zm201.08-1.95c1.039-1.807-2.801-1.794-2.595-0.648 0.89 0.21 1.25 0.93 2.6 0.65zm-344.43 5.84c4.364-2.122 9.264-3.709 12.973-6.486-5.5 0.56-11.152 4.41-12.973 6.49zm134.27-3.24c2.465-0.868 3.596 0.29 6.486-0.649v-2.594c-2.56 2.12-4.66 0.76-6.49 3.24zm-129.73-2.6c-3.981 0.77-1.626 3.12 0 0zm193.95 1.95c0.462 0.821 6.942-0.026 4.541-1.945-0.95 1.01-3.94-0.68-4.54 1.95zm20.11 0c2.325 1.344 6.975 0.297 7.784-1.945-3.42-0.18-6.22 0.27-7.78 1.95zm107.67-1.95c-4.85-0.77-2.09 1.99 0 0zm-244.54 3.89c0.729-1.723 4.164 2.668 5.838 0-1.019-0.062-2.249 0.087-1.946-1.297 0.45 0.508 3.619 1.443 3.892 0-1.624-0.539-2.547-1.777-4.541-1.946-0.58 1.2-5.402 1.46-3.24 3.25zm22.06-1.94c0.971-0.11 2.394 0.232 2.595-0.648-0.87-0.84-2.42-0.86-2.6 0.65zm6.48 0c0.203 2.176 2.939 1.818 5.189 1.946-0.2-2.18-2.94-1.82-5.19-1.95zm4.54-0.65c-0.767-0.094-1.471-1.154-1.946 0 0.77 0.09 1.48 1.15 1.95 0zm9.73 0.65c1-1.958-3.356-1.706-3.243-0.648 0.75 0.54 1.74 0.86 3.24 0.65zm203.03 0c3.081 2.185 7.175 5.078 10.379 5.189-2.39-2.38-6.55-6.41-10.38-5.19zm3.89 4.54c0.768 0.19 2.45 2.612 3.243 0.648-0.97 0.01-2.65-2.41-3.24-0.65zm21.41 0c-0.211 1.519-2.83 0.63-3.243 1.946 3.055 0.961 6.417-1.819 7.135-5.189-3.35 1.225-4.45 0.705-7.783 1.946-3.873-4.33-12.639-0.196-16.865-4.541 1.245 2.662 5.013 4.734 7.784 3.892 1.1 1.062 1.61 2.714 3.892 2.595 0.699-1.657-2.793-2.271-0.648-3.243 3.74 0.95 6.98 2.27 9.72 2.59zm-314.6-3.25c1.609 0.096 3.148 0.121 3.244-1.298-0.97-1.02-3.699-0.94-3.244 1.3zm134.92-0.64h-1.297c-0.266 1.562 1.185 1.409 0.648 3.243 0.971-0.11 2.394 0.231 2.595-0.648-4.179 0.046 0.733-1.043 0.648-2.595-0.784-0.138-0.399-0.72 0-1.298-0.942 0.355-3.353-0.758-3.243 0.648 0.4 0.03 0.77 0.09 0.65 0.65zm132.97 3.89c-0.822-2.421-2.473-4.014-4.54-5.189-1.16 2.15 1.85 4.83 4.54 5.19zm38.92-4.54c-1.137 0.18-3.236-1.826-3.892 0 1.66-0.71 3.09 1.97 3.89 0zm-230.92 3.24c0.113 2.265 1.493 3.264 3.243 3.892 1.597-0.768-1.329-2.45 0.649-3.243 1.528-0.015 1.91 1.117 3.892 0.648-0.53-3.11-6.13-2.87-7.78-1.3zm9.09-1.95c-3.094 1.111-4.703-2.599-6.486-0.648 0.49 1.36 7.47 2.03 6.49 0.65zm60.32 1.3c0.146-1.227-0.73-1.431-0.648-2.595h-2.595c-0.42 2.37 1.34 2.56 3.24 2.6zm127.14-0.65c0.479-1.438-2.391-2.673-2.595-1.297 0.96 0.34 1.64 0.97 2.6 1.3zm-160.22 0c1.766 0.664 6.105 0.613 4.541-1.297-0.09 1.86-4.45-0.55-4.54 1.3zm63.57 0c-2.367 0.689-6.832-1.424-9.082 1.298 0.654-1.951-1.444-1.15-2.594-1.298-0.335 2.909-3.51 2.978-5.189 4.541h3.892c-0.183-1.696 0.237-2.79 1.946-2.595 2.054 5.442 7.788 0.92 11.027-0.648-0.19 0.397-1.614 2.496 0 2.594 2.321-1.513 2.026-6.687-1.298-4.54 0.36-0.32 1.44 0.61 1.29 0.65zm147.89-0.65c-3.1-1.8-1.57 2.13 0 0zm-42.16 6.49c-0.503-0.146-1.279-0.018-1.298-0.648 1.984-0.471 1.908 1.119 3.893 0.648 1.602-4.215 5.727 1.486 9.081-1.297-5.474-0.066-3.676-3.72-7.136-5.189-0.373 1.141 0.784 3.811-0.648 3.892-5.25 0.709-6.338-2.743-11.027-2.595 1.113 2.248 2.629 2.158 0.649 4.541 2.44-3.36 4.55 2.08 6.5 0.65zm-210.17-4.54h1.297c1.008-1.597-2.203-1.908-1.946-0.649 0.4 0.04 0.77 0.1 0.65 0.65zm53.19-1.3c-0.52 3.93 2.98 0.44 0 0zm147.25 0.65c-2.63-2.28-1.53 2.09 0 0zm-204.98 1.3c0.862 0.842 2.414 0.854 2.595-0.648-1.62-0.08-2.02-1.24-2.59 0.65zm19.46 0c0.605 0.692 2.393 0.201 1.946 1.945-2.184 0.411-6.025-0.835-7.135 0.649 1.583 1.108 4.631-0.651 7.784 0-0.036 0.829-0.832 0.897-0.649 1.945 2.297 0.283 3.691 0.999 5.189-0.648-1.899 0.169-1.993-1.467-3.892-1.297 1.43-1.06-2.21-5.93-3.24-2.59zm6.49 3.24c3.434 0.378 0.413-2.668 1.946-3.243 2.716-0.554 3.531 0.793 4.541 1.945 6.521 0.035 13.334 0.361 17.514-1.945-2.037-1.679-4.498 1.077-5.838-1.298-1.328 4.836-9.431 2.294-12.325 0-2.201 2.237-6.38-1.534-8.432 0.649 2.94 0.77 2.92 1.42 2.59 3.89zm-119.35-1.94c1.528-0.015 1.91 1.117 3.892 0.648-0.049-1.13 0.145-2.017 0.649-2.594-2.243-0.09-3.057 1.26-4.541 1.94zm48.649-0.65c2.28 0.948 5.527 4.909 7.784 1.946-1.106-0.267 0.137-0.837 0-1.946-3.567 0.75-5.721-3.04-7.784 0zm38.924 0c1.116 0.035 1.663-0.499 1.946-1.297-1.13-0.03-1.67 0.5-1.95 1.3zm-100.55-0.65c-3.681-0.28-0.95 2.46 0 0zm87.566 1.3c1.864 0.135 3.295-0.164 3.892-1.297-1.33 0.39-4.5-1.05-3.89 1.3zm78.49 0h3.892c0.35-2.6-3.76-0.97-3.89 0zm53.84 1.3c1.61 0.097 2.692-0.336 3.243-1.298-0.375-0.569-3.497-2.056-1.946-0.648 2 0.65-1.4 1.07-1.29 1.95zm111.56-1.3c1.558-1.558-2.128-1.68-1.945-0.648 0-0.05 2.2 0.4 1.95 0.65zm-262.7 6.48c-0.199-1.495 1.874-0.721 1.946-1.945-3.591-1.599-7.792-2.586-11.027-4.541 0.771 5.96-8.555 1.824-7.784 7.784 2.177 1.397 6.768 3.094 9.081 0.648-0.767-0.314-1.471-0.691-1.946-1.297 3.291 0.788 3.789-3.521 5.838-1.946 0.034 1.189-3.324 2.196-1.297 3.243 0.873-2.638 1.658-0.139 3.243 0 0.373-1.141-0.784-3.811 0.648-3.892 0.792 0.073 1.536 0.193 1.297 1.297-0.359 0-0.735 0.53 0.001 0.65zm236.76-5.18c3.491 0.413 6.859 4.365 9.729 3.243-1.833-1.411-3.902-2.584-5.189-4.541 0.43 4.78-3.09-1.61-4.54 1.3zm-223.79 2.59c-0.117-2.114 1.524-3.121-1.297-3.243-0.99 0.93-0.632 3.38 1.297 3.24zm13.626-3.25c-0.971 0.111-2.394-0.231-2.595 0.649 0.85 0.85 2.4 0.86 2.59-0.65zm2.59 4.55c2.83-1.278 6.038-2.179 8.433-3.892-1.707-0.672-3.98-0.776-6.486-0.649-1.039 2.553 2.801 0.227 2.595 1.946-2.14 0.23-3.24 1.51-4.54 2.59zm66.81-3.89c-0.601 2.018-5.799 2.816-7.784 1.297 1.344-0.386 4.261 0.802 4.541-0.648-4.435-2.006-4.893 1.296-10.378 0.648 1.9 3.877 6.028 1.057 9.081 1.297 1.29 0.103 2.659 1.086 3.892 1.298 4.084 0.7 8.454 0.291 12.324 0.648 0.863 0.08 0.578 1.126 1.297 1.298 2.441 0.581 5.94-0.556 7.784-1.298-4.536-0.381-9.303-2.372-11.027-1.946 0.153-1.792 3.659-0.231 3.243-2.594-2.9-1.04-9.03 1.78-12.96-0.01zm31.14 0c-2.19-1.98-1.97 2.39 0 0zm-59.68 2.59c-0.01 1.071-1.799 0.363-1.946 1.298 2.533 0.183 7.56 2.898 8.432 0.648-2.335-0.498-6.332-2.72-7.135-2.595 0.4 0.04 0.77 0.1 0.65 0.65zm11.03-0.65c-0.372 1.353-4.196 0.812-3.892-0.648 2.575-0.452 7.185 1.131 7.784-1.297-3.885 1.119-7.672-0.428-11.027 1.945 0.62 2.59 8.46 2.35 7.14 0zm31.13 0.65c3.975 0.083 7.75-0.033 10.379-1.297-1.65-1.78-9.11-1.28-10.38 1.3zm-85.62 1.3c2.874-0.153 5.359-0.695 5.838-3.243-2.107 0.055-3.99 0.334-5.189 1.297 1.02 0.062 2.249-0.087 1.946 1.298-0.97 0.1-2.4-0.24-2.6 0.64zm250.38-2.6c5.08 2.96-0.58-1.63 0 0zm-340.54 2.6c3.057 0.246 4.068-1.554 5.838-2.595-2.665 0.14-4.248 1.37-5.838 2.59zm13.622 0c1.504-0.207 2.49 0.104 3.243 0.648-0.913-1.857 2.013-3.54-0.648-3.243 0.682 2.4-2.189 1.26-2.595 2.59zm10.378 1.29c1.479 0.182 2.438-0.156 2.594-1.297-0.503-0.146-1.279-0.018-1.297-0.648 0.815-0.267 1.326-0.837 1.297-1.946h-3.243c-0.47 2 1.119 1.92 0.649 3.9zm169.95-3.89c-2.184 0.411-6.024-0.836-7.135 0.648 1.3 0.82 6.8 1.52 7.14-0.65zm4.54 1.95c1.696 0.183 2.79-0.237 2.595-1.946-2.09-0.56-2.04 1-2.6 1.95zm118.05-0.65c-0.398-0.189-2.497-1.613-2.595 0 0.39 0.19 2.49 1.61 2.59 0zm-296.43 1.3c0.767-0.314 1.471-0.691 1.946-1.298-0.867-0.1-3.576 1.02-1.946 1.3zm15.568 1.29c0.97-0.759 2.653-0.806 3.243-1.945-1.709-0.35-4.318 1.65-3.243 1.94zm7.784-1.94c-1.141 0.373-3.811-0.784-3.892 0.648 0.69 0.75 2.987 0.23 3.892-0.65zm44.111 0.65c-1.208 0.62-2.168-1.942-2.594 0 0.39 0.19 2.49 1.61 2.59 0zm97.29 0c2.105 1.852 9.061 2.041 10.379-0.648-3.41 2.32-6.73-0.23-10.38 0.65zm134.27 1.29c1.852 1.527 4.294-0.509 5.838-1.297-1.6-1.27-5.66-0.86-5.84 1.3zm-166.05 1.3c-2.481-0.546-4.332-1.723-6.486-2.595 0.54 2.08 4.25 4.37 6.49 2.6zm0.65-2.59c-4.85-0.78-2.09 1.98 0 0zm175.13 1.94c2.479-0.881 6.398 1.126 7.784-1.946-3.31-0.48-7.83 1.22-7.78 1.95zm-286.05 4.54c-0.728-0.137-1.01-0.72-1.297-1.297 2.328 0.382 3.138-0.754 4.541-1.298-0.073-1.657-1.189-2.271-1.946-3.243-2.864 1.46-9.194-0.546-8.432 4.541 2.336 0.39 1.912-1.98 3.892-1.946-0.028 0.893 0.306 1.424 0.649 1.946h-3.244c-0.776 2.76 4.911 2.39 5.837 1.3zm-24.649 7.14c2.867-1.453 1.129-4.613 1.297-7.783-1.999-0.886-7.302-2.62-3.243-3.892-2.27 0.91-4.152-1.819-5.189 0 3.708 0.722-1.331 0.911-0.648 2.594 2.196 0.183 3.725 1.032 6.486 0.649-0.839 2.57 3.8 4 1.297 8.43zm73.299-12.33c-4.16-0.74-1.43 1.98 0 0zm-66.164 3.9c1.683-0.695 4.344-0.413 5.189-1.946-1.123-0.8-5.353-0.55-5.189 1.95zm52.541-1.3c-0.372 1.574-4.196-0.304-3.892 1.946 3.097 0.05 7.056-2.432 7.135-3.243-0.953 1.935-6.386-1.286-5.189 0.648 0.763 0.09 1.841-0.12 1.946 0.64zm-7.135 1.3h2.595v-1.946h-1.946c0.027 0.89-0.306 1.42-0.649 1.95zm-36.325 0.64c1.039-1.807-2.801-1.794-2.595-0.648 0.878 0.21 1.24 0.93 2.595 0.65zm10.379 0.65c2.809-0.335 4.017 0.193 5.189-0.648-1.626-1.39-4.272-1.64-5.189 0.65zm-32.433-0.65c-7.029 0.106-8.913 5.357-9.73 11.676-4.578 4.01-4.592 10.838-3.892 18.811 2.558 0.901 4.421 2.498 7.784 2.595 3-1.644 2.444-3.393 4.541-5.189-1.133-0.597-1.432-2.027-1.297-3.892 1.571-2.105 1.41-5.941 1.946-9.081 1.406-1.272 5.073-2.726 3.243-5.189-3.972 0.795-4.041 8.92-8.433 7.136 1.449-4.174 6.154-5.09 7.784-9.082-0.763-0.102-1.841 0.112-1.946-0.648 2.554-0.969-0.121-0.764 0-2.595 0.877 0.204 1.239 0.924 2.595 0.649 0.312-3.146-4.026-2.024-4.541-2.595 0.879-0.64 0.841-2.19 1.946-2.6zm4.541 3.25c-1.15-0.006-1.879-3.641-3.243-1.297 0.654 0.5 2.411 3.11 3.243 1.3zm11.027-1.95h-3.243c-0.999 3.23 3.734 1.96 3.243 0zm27.892 5.84c5.014-0.175 7.959-2.419 9.729-5.838-1.934 0.229-3.949 0.375-4.54 1.946 1.208 0.62 2.167-1.942 2.594 0-1.414 2.201-6.878 1.192-6.486 1.946 3.275 0.28-1.332 0.9-1.297 1.94zm-9.73-4.54c-5.151 0.34 3.176-0.21 0 0zm-51.243 0c-0.942 0.354-3.353-0.758-3.243 0.648 0.97 1.03 2.653 0.47 3.243-0.65zm51.243 1.3c-1.551 0.199-4.897-1.189-5.189 1.298-0.304 1.465 3.52-1.493 3.892 0.648-1.733 0.429-4.053 0.271-5.189 1.297 2.719 3.12 4.559-1.373 9.081-1.297 2.069 0.034 8.654 0.917 3.892-1.298 1.513-0.217 2.794-0.664 3.243-1.945-2.962 0.02-6.518 0.88-9.73 1.3zm-5.838-0.65c-0.943 0.354-3.353-0.758-3.244 0.648 0.944-0.36 3.354 0.75 3.244-0.65zm-10.378 1.29c-2.047 0.317-2.291-1.169-4.541-0.648 0.317 2.1 4.006 2.2 4.541 0.65zm15.567 7.14c3.898-0.644 8.052-1.029 9.081-4.541-3.227 1.31-6.464 2.62-9.081 4.54zm-23.351-1.95h1.297v-1.297h-1.297v1.3zm18.811 0.65c-0.829-0.035-0.898-0.831-1.946-0.648-1.009 1.6 2.203 1.91 1.946 0.65zm-10.379 0c-4.154-0.75-1.424 1.98 0 0zm-19.459 16.22c2.207-0.82 4.585-1.469 7.135-1.946 0.57-2.084-2.138-0.889-1.946-2.595 2.534-0.422 2.748-3.881 5.837-1.945 1.262-1.884 2.142-1.683 1.297-4.541 2.05 0.104 3.915 0.023 4.541-1.297-4.506-0.251-6.8-2.714-11.027-3.243-3.032 4.09-5.123 9.14-5.837 15.56zm27.892-13.62c1.864 0.135 3.295-0.164 3.892-1.297-1.864-0.14-3.295 0.16-3.892 1.3zm-3.243 1.94c-3.292 1.129-1.509-2.815-3.892-2.595 0.318 3.006-2.813-1.234-4.541 0.648 1.744-0.446 1.253 1.341 1.946 1.946 2.27-1.66 5.79 1.86 6.487 0zm-40.865 7.14c1.832 0.619 3.204-4.219 0.649-3.892 0.47 1.98-1.12 1.91-0.649 3.89z"></path> <path style="fill:#F6B319;clip-rule:evenodd;fill-rule:evenodd" d="m379.62 66.193c2.06-1.734 4.737 0.066 4.541 2.595 0.486 2.216-2.636 0.824-1.946 3.243-2.27 0.107-4.151-0.172-5.188-1.297 0.091-2.973 2.909 0.419 4.54 0 1.36-0.981-2.48-2.224-1.94-4.541z"></path> <path style="fill:#F6B319;clip-rule:evenodd;fill-rule:evenodd" d="m354.32 76.572c-2.688 0.124-2.196 3.426-4.541 3.892-3.986-2.067-10.335-1.772-10.378-7.784 3.587-1.779 5.315 5.222 9.081 5.189 1.496-0.013 1.903-1.245 3.892-1.946-0.018-0.631-0.794-0.503-1.297-0.649 0.834-2.031 1.341-0.334 3.243-1.297 0.01 0.865 0.01 1.73 0.01 2.595 1.337-0.393 4.506 1.047 3.892-1.297 1.396 0.55 2.295 1.598 1.946 3.892 1.186 0.987 3.846 2.449 1.946 4.541-1.766-0.397-2.543-1.782-2.595-3.892-2.18-1.656-4.58 0.394-5.2-3.244z"></path> <path style="fill:#F6B319;clip-rule:evenodd;fill-rule:evenodd" d="m189.57 93.437c-1.628 3.287-8.93 2.575-11.027 0-0.963-1.182 1.499-3.165-1.297-2.594 1.715-3.685 3.183-3.79 7.784-3.244-5.99 3.058 1.21 6.683 4.55 5.838zm-7.79-5.189c-3.84 6.517 1.51 1.453 0 0z"></path> <path style="fill:#F6B319;clip-rule:evenodd;fill-rule:evenodd" d="m177.24 101.87h3.243c-1.342 6.1 2.39 7.124 7.135 7.136-1.862-0.595-0.595-2.854 0-4.541 1.538 0.359 2.691 2.508 1.297 3.893 1.898 0.169 1.993-1.467 3.892-1.298-1.104 1.274-1.515 3.242-3.243 3.892-3.937-1.399-14.832 1.206-13.622-5.838 2.031-0.301 2.896 0.564 2.595 2.595 2-0.864-1.209-2.884 0.648-3.892-2.872-0.805-5.942-1.409-7.784-3.243-0.303-4.411 2.48-5.735 5.189-7.135 0.95 3.076 0.36 6.575 0.64 8.435zm-1.3-2.595c2.06-3.577-2.28-2.393 0 0z"></path> <path style="fill:#F6B319;clip-rule:evenodd;fill-rule:evenodd" d="m354.97 88.248c2.214 0.381 1.601 3.588 3.243 4.541 2.976-1.974 2.926 3.432 6.487 1.297-0.898 1.481-1.479 3.277-4.541 2.594-0.183 1.048 0.613 1.117 0.648 1.946 2.453 0.939 1.245-1.782 3.243-1.297-3.84 5.451-12.02-3.542-9.08-9.081z"></path> <path style="fill:#F6B319;clip-rule:evenodd;fill-rule:evenodd" d="m209.02 108.36c-1.899 1.343-3.962 2.524-7.783 1.945-0.451-2.713-4.126-4.902-1.297-7.135-0.595 2.785 2.408 4.043 5.189 5.189 2.674 0.511 1.219-3.106 3.892-2.595 0.76 0.96 0.76 1.64 0 2.6 4.061 0.601 6.14-0.78 9.081-1.298 0.453 4.77-7.484 7.802-9.729 3.892 1.817 0.746 3.372 0.746 5.189 0-1.12-1.25-4.5-0.25-4.54-2.59z"></path> <path style="fill:#F6B319;clip-rule:evenodd;fill-rule:evenodd" d="m210.97 2.625c-0.686 2.558-3.461 3.025-5.838 3.892-2.082 0.569-1.345-1.682-2.595-1.946-1.208 0.089-2.168 0.427-2.594 1.297-0.292 1.806 3.536-0.509 3.244 1.297-1.604 3.44-5.929-0.754-8.433-0.649 3.82-2.186 10.82-7.537 16.21-3.891z"></path> <path style="fill:#F6B319;clip-rule:evenodd;fill-rule:evenodd" d="m273.24 24.031c-0.401 2.148 4.853 4.215 4.54 8.432-2.873-0.37-2.048-4.438-3.892-5.837-3.353 0.297-5.517-2.1-8.433-3.892 1.485-5.058-5.452-4.309-7.783-3.243-0.313 2.043 1.99 1.469 1.297 3.892 1.555 0.257-0.359-2.954 1.946-1.946-0.671 4.267 3.846-0.686 3.243 3.243-2.43-1.395-1.961 1.244-5.189 0.649-0.938-1.008-1.364-2.528-1.945-3.892h-3.893c-0.918-1.893-2.432-3.189-2.595-5.838 3.309-0.713 1.985 3.204 3.243 4.541 1.52-0.211 0.63-2.83 1.946-3.243 3.107 0.122-1.113 1.128 0 3.243 1.165-2.623 4.254-3.377 6.486-3.243-0.181-1.333-1.732-1.294-2.595-1.946 5.671-2.848 8.398 2.836 11.027 5.189 5.111-2.272 10.306 3.797 7.784 7.135-1.43-1.4-3.41-2.233-5.21-3.244zm-1.3 0c0.997-2.355-2.377-3.593-3.243-1.946 1.15 0.583 1.9 1.566 3.24 1.946z"></path> <path style="fill:#F6B319;clip-rule:evenodd;fill-rule:evenodd" d="m354.32 59.707c-5.033-0.805-8.183-3.493-13.621-3.892 0.482-1.463 3.638-0.253 5.188-0.648-3.278-4.826-10.48-0.701-12.324-7.135 2.283-1.071 2.798 4.624 3.892 0.648 2.147 4.299 8.098 0.9 9.73 5.838 1.833 0.536 1.68-0.914 3.243-0.648 0.76 1.618 1.878 2.878 3.243 3.892 2.274-0.176-1.172-2.872 0.648-2.594 1.896-0.076 2.671 3.792 0.648 3.892 0.654 1.292 1.121 2.771 2.595 3.243 1.272-0.663-1.893-6.252 2.595-5.189-0.545 0.753-0.855 1.739-0.648 3.243 0.87-0.427 1.208-1.386 1.297-2.595 1.596 4.675 5.793 6.748 10.379 8.433 0.046 2.732-2.397-1.441-5.189 0 0.668 2.665-0.707 4.013 1.946 5.189 2.276-0.178-1.628-2.416 0.648-2.594 2.439-0.494 0.447 3.444 3.243 2.594 0.313 2.043-1.991 1.469-1.297 3.892 0.589 2.354 1.914 0.395 3.892 0.649 0.222 2.908 1.94 2.896 0 5.189 0.775 2.036 3.695 1.926 3.892 4.541-3.449-0.639-6.927-3.304-5.838-6.486-4.064 0.425-7.889-2.244-6.486-5.189 1.667 0.063 0.928 2.532 2.595 2.595 1.406 0.109 0.294-2.301 0.648-3.243-3.229 0.633-3.863-1.326-5.838-1.946 0.054-1.027-0.312-2.474 0.648-2.594-4.07-2.188-8.15-4.377-9.72-9.085zm6.49 5.189c1.109 1.946 2.361 0.721 4.541 0.649 1.03-2.385-4.93-3.032-4.54-0.649z"></path> <path style="fill:#F6B319;clip-rule:evenodd;fill-rule:evenodd" d="m325.78 72.68c2.455-0.076 0.965 3.793 3.244 3.892 0.76-0.104 0.547-1.183 0.648-1.946 0.934 0.363 1.583 1.012 1.945 1.946 0.862-0.651 2.414-0.613 2.595-1.946-0.56 2.291 2.779 11.293 8.433 9.081-2.253-1.207-5.28-1.639-5.189-5.189 2.062 1.397 3.418 3.501 6.487 3.892 0.556 2.069-1.021 2.006-1.298 3.243 1.856 1.558 6.442 2.649 7.784 6.486-2.822 0.444-3.591-1.167-4.541-2.594-5.29 1.605-8.346-6.781-13.621-5.189-0.539-1.624-1.777-2.547-1.946-4.541-2.952 0.859-6.312-1.924-7.135-5.189 1.83 0.663 2.77 0.737 2.6-1.946zm7.79 9.73c-0.314-0.767-0.691-1.471-1.297-1.946-0.1 0.867 1.02 3.576 1.3 1.946z"></path> <path style="fill:#F6B319;clip-rule:evenodd;fill-rule:evenodd" d="m83.188 83.707c3.414-2.424 2.647-9.029 7.135-10.378-2.919 10.054-8.299 17.647-13.622 25.297-1.355 0.275-1.717-0.444-2.594-0.648-2.091 5.044-5.102 9.169-11.027 10.379-1.037-5.243 5.684-6.911 7.135-11.676-0.452-1.234-2.953 0.877-3.243 1.946-0.359-3.896 4.115-7.152 1.946-13.621 6.998-0.448-0.668 8.046 3.892 8.432-1.085 6.05-5.269 9.001-8.433 12.973 4.202-2.068 8.307-4.233 8.433-10.378 2.892 2.97 4.077-1.408 5.838-3.243 0.238-1.104-0.506-1.224-1.297-1.297 0.573-2.952 3.205-5.02 4.541-7.784 1.736-3.591 1.813-8.609 5.189-11.027-0.266 4.707-3.031 6.915-3.893 11.026z"></path> <path style="fill:#F6B319;clip-rule:evenodd;fill-rule:evenodd" d="m201.89 94.085c2.864-0.094-0.062 1.588 0.648 3.243 0.355 2.023 3.762 0.995 5.189 1.946 0.875-1.504 2.738-2.019 3.243-3.893 2.495 0.65 1.206 2.618 1.946 3.893 3.791-0.13 5.043 1.839 10.378 0.648-0.498 5.874-7.959 3.049-11.026 1.297-3.802 2.465-7.405 1.434-11.027-0.648-0.01-3.34-0.84-4.147 0.65-6.485z"></path> </g> <metadata></metadata></svg> 