<?xml version="1.0" encoding="UTF-8" standalone="no"?> <!-- Created with Inkscape (http://www.inkscape.org/) --> <svg xmlns:inkscape="http://www.inkscape.org/namespaces/inkscape" xmlns:rdf="http://www.w3.org/1999/02/22-rdf-syntax-ns#" xmlns="http://www.w3.org/2000/svg" xmlns:cc="http://web.resource.org/cc/" xmlns:dc="http://purl.org/dc/elements/1.1/" xmlns:sodipodi="http://sodipodi.sourceforge.net/DTD/sodipodi-0.dtd" xmlns:svg="http://www.w3.org/2000/svg" xmlns:ns1="http://sozi.baierouge.fr" xmlns:xlink="http://www.w3.org/1999/xlink" id="svg2" sodipodi:docname="boy.svg" inkscape:export-ydpi="72" inkscape:export-filename="F:\Drawings\open clipart\from site\Andre_saetherskar_colour_flowers.png" viewBox="0 0 421 882.09" sodipodi:version="0.32" inkscape:export-xdpi="72" inkscape:output_extension="org.inkscape.output.svg.inkscape" inkscape:version="0.45.1" sodipodi:docbase="F:\Drawings\open clipart\from site"><g id="layer1" inkscape:label="Layer 1" inkscape:groupmode="layer" transform="translate(1427.3 -319.75)"><g id="g3086" transform="translate(-752.27 -145.14)"><path id="path3102" style="fill:#fefefe" d="m-675.02 905.89v-441h210.5 210.5v441 441.01h-210.5-210.5v-441.01z"></path><path id="path3100" style="fill:#cfcfcf" d="m-549.37 1345.1c-9.25-10.3 20.15-100.8 85.95-264.6 11.25-28 20.31-51 20.15-51.2-0.17-0.2-5.02 5.6-10.78 12.9-56.17 70.6-122.15 150-156.9 188.7-28.05 31.2-48.5 51.1-56.75 55.1-3.95 1.9-4.43 1.9-5.91 0.4-3.04-3-0.24-16.6 6.41-31.1 21.45-46.9 80.2-139.1 155.95-244.8 6.26-8.7 11.79-16.82 12.28-17.99 1.5-3.55 69.09-245.8 68.7-246.2-0.21-0.21-6.65 8.93-14.32 20.31-28.75 42.66-67.8 96.18-93.83 128.63-22.11 27.55-35.42 42.57-55.55 62.67-19.59 19.57-27.41 25.97-31.69 25.97-3.07 0-4.72-3.31-3.88-7.78 4.26-22.72 59.5-121.81 149.88-268.87 4.79-7.79 9.33-14.4 10.09-14.69s18.33 1.28 39.05 3.49c20.71 2.21 37.88 3.8 38.15 3.53s-0.44-8.29-1.58-17.83c-3.33-28-4.22-42.76-4.24-70.35-0.04-44.55 4.62-72.08 15.82-93.6 4.22-8.11 12.04-17.05 17.93-20.5 2.43-1.43 4.42-2.94 4.42-3.37 0-0.44-3.92-4.11-8.69-8.16-14.53-12.32-15.68-13.46-14.87-14.78 0.42-0.67 1.27-1.03 1.91-0.78 2.8 1.07 21.84 16.05 24.27 19.08 2.53 3.18 2.88 3.31 6.28 2.36 5.7-1.58 20.57-0.23 29.4 2.69 24.55 8.1 39.71 23.04 45.31 44.63 2.39 9.2 2.16 26.71-0.51 39.31-7.58 35.74-33.99 85.61-64.22 121.24-3.78 4.47-6.88 8.84-6.88 9.71 0 3.73 19.6 11.91 44.89 18.75 7.97 2.15 14.84 4.25 15.26 4.68 0.8 0.79 4.69 32.26 9.83 79.49 13 119.28 17.66 201.66 12.2 215.76-2.65 6.9-6.62 6.2-12.32-2.2-17.3-25.5-32.51-80.44-40.78-147.31-3.95-31.98-8.06-80.09-8.08-94.58 0-3.62-0.34-6.92-0.74-7.32-0.41-0.41-11.87 54.9-25.47 122.9l-24.72 123.61-6.66 15.2c-38.63 88.2-84.31 185.7-111.11 237.2-25.33 48.7-36.86 66.6-45.07 70-4.6 2-6.58 1.9-8.58-0.3zm9.71-4.8c8.35-8.1 20.96-29.2 42.86-71.8 27.44-53.3 67.58-139.1 106.22-227l8.74-19.9 26.31-132.26c14.47-72.75 26.62-133.24 26.99-134.42 0.41-1.28 1.35-2.01 2.35-1.82 1.8 0.34 1.65-1.25 4.12 43.79 2.08 37.76 7.24 85.6 12.63 116.89 7.35 42.69 16.11 73.24 28 97.62 6.28 12.9 9.85 17.8 11.34 15.5 3.14-4.8 2.48-53.56-1.39-101.51-4.23-52.4-16.6-171.31-19.35-185.98l-0.74-3.99-11.86-3.19c-15.18-4.08-31.26-9.64-38.58-13.33-5.74-2.91-11-7.94-11-10.55 0-0.76 2.52-4.21 5.61-7.67 6.14-6.87 20.39-25.45 20.39-26.58 0-0.39-6.5-0.71-14.43-0.71-16.78 0-17.02-0.1-24.78-10.42-5.92-7.86-20.79-31.61-20.79-33.18 0-2.08 10.83-13.59 14.37-15.27 6-2.85 10.77-2.16 16.51 2.37 7.28 5.76 9.04 5.45 17.12-3 4.88-5.11 7.38-7 9.25-7 6.7 0 14.48 19.02 10.68 26.12-0.76 1.42-0.72 3.01 0.16 5.66 0.66 2.02 1.48 7.29 1.81 11.7l0.6 8.02 5.15-8.5c5.75-9.49 15.86-29.33 19.62-38.5 9.35-22.83 13.06-39.86 12.53-57.64-0.22-7.39-0.84-13.2-1.51-14-0.62-0.75-9.04-4.28-18.7-7.86-13.33-4.93-17.58-6.91-17.59-8.2-0.01-2.15 5.07-3.32 14-3.24 5.73 0.06 8.81 0.91 15.25 4.22 2.43 1.25-0.08-2.59-5.42-8.29-9.82-10.5-23.94-17.71-40.27-20.55-28.5-4.96-47.46 14.15-56.05 56.52-4.25 20.91-5.78 63.04-3.46 95.35 1.01 14.18 4.35 45.36 5.55 51.86 0.45 2.44 0.17 3.37-1.26 4.1-1.24 0.63-13.53-0.32-37.34-2.88-19.53-2.1-37.09-3.84-39.03-3.85-3.5-0.04-3.6 0.08-14.43 17.71-55.26 89.98-102.92 171.82-125.64 215.76-13.77 26.63-22.3 47.51-19.99 48.94 1.12 0.69 5.26-2.38 16.09-11.95 38.95-34.44 112.43-128.36 174.32-222.83 9.12-13.92 11.69-16.48 12.48-12.41 0.23 1.16-57.18 208.08-71.45 257.55-1.11 3.83-5.33 10.6-15.25 24.5-84.57 118.3-143.94 213.2-159.49 254.9-5.42 14.5-4.76 16.6 3.49 10.6 23.64-17.1 109.74-116.7 211.76-245.1 9.51-11.9 17.72-21.7 18.25-21.7 2.79 0 1.02 5.7-10.42 33.8-64.03 156.8-101.59 264.3-101.68 290.8-0.02 7.7 1.67 8.3 7.35 2.8zm192.29-731.37c-4.4-4.87-7.13-13.4-6.22-19.45 1.19-7.91 6.05-16.23 14.55-24.88 6.17-6.27 8.26-7.86 9.18-6.95 0.91 0.92-0.13 6.85-4.56 25.97-6.02 25.95-6.99 29.27-8.47 29.27-0.49 0-2.51-1.78-4.48-3.96zm38.35-43.62c-10.85-3.46-12.7-10.41-4.07-15.26 7.88-4.43 21.94-3.66 28.12 1.54 10.19 8.57-7.9 18.89-24.05 13.72zm-60.16-8.9c-6.68-2.46-8.84-4.43-8.84-8.07 0-5.97 7.54-9.45 20.52-9.45 12.09 0 21.48 4.05 21.48 9.27 0 2.9-5.37 7.34-10.42 8.61-5.97 1.5-18.2 1.3-22.74-0.36zm-13.84-22.93c0-1.72 7.6-7.39 14.7-10.96 2.87-1.44 8.27-3.14 12-3.78 5.8-0.98 7.65-0.9 12.61 0.55 10.13 2.96 8.09 4.29-15.82 10.3-11.55 2.9-21.56 5.28-22.24 5.29-0.69 0-1.25-0.63-1.25-1.4zm88-28.04c0-0.87 5.09-3.91 12.75-7.6 16.8-8.09 24.99-11.19 26.85-10.15 1.26 0.7 1.21 1.04-0.32 2.36-0.98 0.84-3.58 2.23-5.78 3.08s-9.94 4.3-17.2 7.65c-13.72 6.36-16.3 7.09-16.3 4.66zm-38-18.71c0-4.08 9.38-18.29 13.49-20.42 4.03-2.09 3.21 0.25-4.18 11.98-6.51 10.31-9.31 12.86-9.31 8.44z"></path><path id="path3098" style="fill:#f69a9a" d="m-548.99 1345c-7.32-13.7 22.73-105.2 87.49-266.3 11.3-28.1 20.42-51.8 20.26-52.6-0.15-0.8-5.22 4.8-11.25 12.4-57.02 72-130.19 159.8-166.65 199.9-23.76 26.1-44.29 45.3-51.26 47.8-2.54 1-4.62-1-4.62-4.2 0-8.2 14.15-39.5 31.32-69.4 25.23-43.9 71.97-115.1 119-181.3 8.57-12 18.15-25.6 21.28-30.1l5.7-8.23 34.83-124.29c19.16-68.36 34.84-124.88 34.85-125.6s-0.42-1.04-0.94-0.71c-0.53 0.32-8.41 11.61-17.51 25.08-42.02 62.17-86.72 121.69-121 161.1-23.31 26.79-52.46 54.34-57.51 54.34-0.98 0-2.34-0.67-3.02-1.5-5.15-6.2 23.98-63.76 82.42-162.85 31.35-53.16 72.69-120.96 75.47-123.78 1.48-1.51 4.48-1.33 39.82 2.45 21.02 2.24 38.53 3.77 38.9 3.39 0.38-0.37-0.3-9.35-1.5-19.94-3.31-29.08-4.07-41.91-4.09-68.91-0.04-36.42 2.94-60.13 10.15-80.8 5.35-15.35 14.88-28.54 24.27-33.6 1.96-1.05 3.56-2.45 3.56-3.09 0-1.08-9.58-9.98-19.47-18.09-6.28-5.16-3.32-4.93 4.15 0.32 10.57 7.43 16.41 12.51 17.41 15.15 0.81 2.14 1.28 2.31 4.16 1.58 1.78-0.46 7.52-0.78 12.75-0.73 14.52 0.16 29.02 5.48 42.68 15.67 9.43 7.04 18.14 20.9 20.23 32.21 1.55 8.4 1.34 24.78-0.45 35.14-3.23 18.69-15.89 49.95-29.98 74-11.31 19.3-32.36 48.62-39.33 54.79-2.61 2.3-2.78 5.73-0.4 7.82 5.09 4.49 21.87 10.93 45.18 17.33 6.84 1.87 12.78 3.76 13.21 4.19 1.91 1.91 14.72 121.41 20.5 191.25 3.17 38.28 4.03 96.71 1.51 102.71-2.77 6.5-6.3 4.7-13-6.6-19.1-32.35-33.75-94.38-41.69-176.57-2.12-21.94-4.44-55.48-4.47-64.54-0.02-7.02-1.07-11.32-2.27-9.36-0.29 0.48-11.86 57.56-25.72 126.86l-25.19 126.01-15.54 35c-60.38 136.1-111.5 240.2-134.26 273.4-8.96 13.1-17.14 18.5-19.98 13.2zm8.8-2.7c17.86-15.3 69.74-118.2 144.75-287.2l14.33-32.3 26.04-130.69c14.32-71.9 26.37-132.29 26.79-134.22 1.52-7.02 2.76-3.41 3.44 10 4.99 98.77 14.42 165.22 30.41 214.21 7.39 22.6 19.47 46.8 23.4 46.8 2.64 0 3.16-2.2 3.95-16.5 1.7-30.85-3.47-103.44-14.51-204.01-4.94-44.96-8.27-72.42-8.91-73.46-0.3-0.49-2.01-1.18-3.79-1.55s-7.96-2.01-13.73-3.66c-28.39-8.08-44-15.7-44-21.45 0-0.65 2.74-4.21 6.1-7.92 6.18-6.81 20.89-26.03 20.9-27.28 0-0.37-6.87-0.68-15.25-0.68-14.41 0-15.44-0.13-18.55-2.35-2.78-1.98-19.41-25.78-25.73-36.83l-1.82-3.18 4.33-5.62c5.26-6.81 11.16-10.52 16.74-10.52 3.26 0 5.01 0.79 8.9 4 7.07 5.85 9.03 5.52 17.81-3 4.28-4.16 8.07-7 9.32-7 2.72 0 5.65 3.79 8.2 10.62 2.35 6.27 2.57 11.81 0.62 15.33-1.16 2.1-1.14 2.79 0.19 4.81 1.02 1.57 1.71 5.71 2.02 12.31 0.41 8.34 0.71 9.77 1.87 8.8 2.09-1.73 14.96-24.84 21.07-37.81 6.67-14.18 13.65-34.68 15.82-46.5 1.15-6.23 1.54-12.81 1.3-21.72-0.3-11.21-0.59-13.02-2.34-14.71-1.1-1.05-9.43-4.62-18.5-7.93-9.78-3.56-16.5-6.54-16.5-7.31 0-1.87 6.97-3.12 14.31-2.58 4.81 0.36 7.51 1.22 11.38 3.62 2.78 1.73 5.3 2.91 5.6 2.61 0.99-0.99-7.07-11.62-12.2-16.11-6.13-5.36-15.37-10.33-26.09-14.04-6.79-2.34-9.68-2.77-19-2.82-10.18-0.05-11.46 0.17-17 2.86-19.23 9.35-30.56 33.91-35.1 76.07-2.98 27.75-1.07 84.16 4.03 119 0.75 5.1 0.94 9.41 0.45 9.94-0.54 0.58-15.4-0.58-39.12-3.07-21.44-2.25-38.99-3.66-39.91-3.21-2.21 1.07-43.75 68.93-80.41 131.34-50.88 86.62-82.17 148.18-77.63 152.72 1.74 1.73 4.97-0.4 17.02-11.25 40.26-36.24 100.27-111.99 163.99-206.97 11.26-16.77 20.85-30.65 21.32-30.83 0.47-0.19 0.86 0.32 0.86 1.12 0 1.34-70.86 254.8-72.93 260.86-0.49 1.46-5.58 9.06-11.29 16.96-36.04 49.8-88.76 127.9-113.96 168.9-27.99 45.5-42.7 73.4-50.26 95.4-2.93 8.5-2.57 10.3 1.82 9.2 14.49-3.6 95.74-96.1 209.21-238.1 10.99-13.8 21-26.5 22.26-28.3 2.32-3.3 4.15-4.2 4.15-2 0 0.6-4.93 13.1-10.94 27.7-16.19 39.4-33.37 82.7-48.69 122.9-40.58 106.4-57.71 163.1-53.74 177.9 0.83 3.1 2.33 2.9 7.2-1.3zm193.25-734.13c-9.77-11.84-7.25-26.4 7.25-41.93 7.02-7.51 10.33-9.31 9.4-5.1-0.27 1.24-3.02 12.88-6.11 25.88-3.1 12.99-5.62 23.91-5.62 24.25 0 1.62-2.15 0.27-4.92-3.1zm37.42-43.78c-3.87-1.37-8.5-5.53-8.5-7.63 0-2.04 5.75-6.71 9.57-7.77 5.52-1.53 12.43-1.36 17.5 0.43 5.66 2 7.93 4.15 7.93 7.56 0 6.84-15.7 11.23-26.5 7.41zm-60-8.96c-5.32-1.94-8.7-5.83-7.62-8.75 3.22-8.72 32.15-9.68 39.11-1.29 2.11 2.54 0.13 6.49-4.49 8.91-5.17 2.7-20.9 3.36-27 1.13zm-9.94-24.61c4.78-5.01 18.1-11.06 25.57-11.62 6.56-0.5 13.88 1.17 14.58 3.33 0.24 0.72-7.18 2.99-20.45 6.25-11.45 2.81-21.23 5.11-21.73 5.11s0.41-1.38 2.03-3.07zm86.44-25.9c0-1.53 30.58-15.63 36.19-16.67 5.31-1 2.28 1.05-7.57 5.09-4.89 2.01-11.07 4.75-13.73 6.11-7.49 3.79-14.89 6.51-14.89 5.47zm-39-18.6c0-3.75 13.19-22.57 14.74-21.02 0.54 0.54-12.43 21.28-13.86 22.16-0.49 0.3-0.88-0.21-0.88-1.14z"></path><path id="path3096" style="fill:#b4b2b2" d="m-548.99 1345c-7.32-13.7 22.73-105.2 87.49-266.3 11.3-28.1 20.42-51.8 20.26-52.6-0.15-0.8-5.22 4.8-11.25 12.4-57.02 72-130.19 159.8-166.65 199.9-23.76 26.1-44.29 45.3-51.26 47.8-2.54 1-4.62-1-4.62-4.2 0-8.2 14.15-39.5 31.32-69.4 25.23-43.9 71.97-115.1 119-181.3 8.57-12 18.15-25.6 21.28-30.1l5.7-8.23 34.83-124.29c19.16-68.36 34.84-124.88 34.85-125.6s-0.42-1.04-0.94-0.71c-0.53 0.32-8.41 11.61-17.51 25.08-42.02 62.17-86.72 121.69-121 161.1-23.31 26.79-52.46 54.34-57.51 54.34-0.98 0-2.34-0.67-3.02-1.5-5.15-6.2 23.98-63.76 82.42-162.85 31.35-53.16 72.69-120.96 75.47-123.78 1.48-1.51 4.48-1.33 39.82 2.45 21.02 2.24 38.53 3.77 38.9 3.39 0.38-0.37-0.3-9.35-1.5-19.94-3.31-29.08-4.07-41.91-4.09-68.91-0.04-36.42 2.94-60.13 10.15-80.8 5.35-15.35 14.88-28.54 24.27-33.6 1.96-1.05 3.56-2.45 3.56-3.09 0-1.08-9.58-9.98-19.47-18.09-6.28-5.16-3.32-4.93 4.15 0.32 10.57 7.43 16.41 12.51 17.41 15.15 0.81 2.14 1.28 2.31 4.16 1.58 1.78-0.46 7.52-0.78 12.75-0.73 14.52 0.16 29.02 5.48 42.68 15.67 9.43 7.04 18.14 20.9 20.23 32.21 1.55 8.4 1.34 24.78-0.45 35.14-3.23 18.69-15.89 49.95-29.98 74-11.31 19.3-32.36 48.62-39.33 54.79-2.61 2.3-2.78 5.73-0.4 7.82 5.09 4.49 21.87 10.93 45.18 17.33 6.84 1.87 12.78 3.76 13.21 4.19 1.91 1.91 14.72 121.41 20.5 191.25 3.17 38.28 4.03 96.71 1.51 102.71-2.77 6.5-6.3 4.7-13-6.6-19.1-32.35-33.75-94.38-41.69-176.57-2.12-21.94-4.44-55.48-4.47-64.54-0.02-7.02-1.07-11.32-2.27-9.36-0.29 0.48-11.86 57.56-25.72 126.86l-25.19 126.01-15.54 35c-60.38 136.1-111.5 240.2-134.26 273.4-8.96 13.1-17.14 18.5-19.98 13.2zm8.8-2.7c17.86-15.3 69.74-118.2 144.75-287.2l14.33-32.3 26.04-130.69c14.32-71.9 26.37-132.29 26.79-134.22 1.52-7.02 2.76-3.41 3.44 10 4.99 98.77 14.42 165.22 30.41 214.21 7.39 22.6 19.47 46.8 23.4 46.8 2.64 0 3.16-2.2 3.95-16.5 1.7-30.85-3.47-103.44-14.51-204.01-4.94-44.96-8.27-72.42-8.91-73.46-0.3-0.49-2.01-1.18-3.79-1.55s-7.96-2.01-13.73-3.66c-28.39-8.08-44-15.7-44-21.45 0-0.65 2.74-4.21 6.1-7.92 6.18-6.81 20.89-26.03 20.9-27.28 0-0.37-6.87-0.68-15.25-0.68-14.41 0-15.44-0.13-18.55-2.35-2.78-1.98-19.41-25.78-25.73-36.83l-1.82-3.18 4.33-5.62c5.26-6.81 11.16-10.52 16.74-10.52 3.26 0 5.01 0.79 8.9 4 7.07 5.85 9.03 5.52 17.81-3 4.28-4.16 8.07-7 9.32-7 2.72 0 5.65 3.79 8.2 10.62 2.35 6.27 2.57 11.81 0.62 15.33-1.16 2.1-1.14 2.79 0.19 4.81 1.02 1.57 1.71 5.71 2.02 12.31 0.41 8.34 0.71 9.77 1.87 8.8 2.09-1.73 14.96-24.84 21.07-37.81 6.67-14.18 13.65-34.68 15.82-46.5 1.15-6.23 1.54-12.81 1.3-21.72-0.3-11.21-0.59-13.02-2.34-14.71-1.1-1.05-9.43-4.62-18.5-7.93-9.78-3.56-16.5-6.54-16.5-7.31 0-1.87 6.97-3.12 14.31-2.58 4.81 0.36 7.51 1.22 11.38 3.62 2.78 1.73 5.3 2.91 5.6 2.61 0.99-0.99-7.07-11.62-12.2-16.11-6.13-5.36-15.37-10.33-26.09-14.04-6.79-2.34-9.68-2.77-19-2.82-10.18-0.05-11.46 0.17-17 2.86-19.23 9.35-30.56 33.91-35.1 76.07-2.98 27.75-1.07 84.16 4.03 119 0.75 5.1 0.94 9.41 0.45 9.94-0.54 0.58-15.4-0.58-39.12-3.07-21.44-2.25-38.99-3.66-39.91-3.21-2.21 1.07-43.75 68.93-80.41 131.34-50.88 86.62-82.17 148.18-77.63 152.72 1.74 1.73 4.97-0.4 17.02-11.25 40.26-36.24 100.27-111.99 163.99-206.97 11.26-16.77 20.85-30.65 21.32-30.83 0.47-0.19 0.86 0.32 0.86 1.12 0 1.34-70.86 254.8-72.93 260.86-0.49 1.46-5.58 9.06-11.29 16.96-36.04 49.8-88.76 127.9-113.96 168.9-27.99 45.5-42.7 73.4-50.26 95.4-2.93 8.5-2.57 10.3 1.82 9.2 14.49-3.6 95.74-96.1 209.21-238.1 10.99-13.8 21-26.5 22.26-28.3 2.32-3.3 4.15-4.2 4.15-2 0 0.6-4.93 13.1-10.94 27.7-16.19 39.4-33.37 82.7-48.69 122.9-40.58 106.4-57.71 163.1-53.74 177.9 0.83 3.1 2.33 2.9 7.2-1.3zm193.25-734.13c-9.77-11.84-7.25-26.4 7.25-41.93 7.02-7.51 10.33-9.31 9.4-5.1-0.27 1.24-3.02 12.88-6.11 25.88-3.1 12.99-5.62 23.91-5.62 24.25 0 1.62-2.15 0.27-4.92-3.1zm37.42-43.78c-3.87-1.37-8.5-5.53-8.5-7.63 0-2.04 5.75-6.71 9.57-7.77 5.52-1.53 12.43-1.36 17.5 0.43 5.66 2 7.93 4.15 7.93 7.56 0 6.84-15.7 11.23-26.5 7.41zm-60-8.96c-5.32-1.94-8.7-5.83-7.62-8.75 3.22-8.72 32.15-9.68 39.11-1.29 2.11 2.54 0.13 6.49-4.49 8.91-5.17 2.7-20.9 3.36-27 1.13zm-9.94-24.61c4.78-5.01 18.1-11.06 25.57-11.62 6.56-0.5 13.88 1.17 14.58 3.33 0.24 0.72-7.18 2.99-20.45 6.25-11.45 2.81-21.23 5.11-21.73 5.11s0.41-1.38 2.03-3.07zm54.33 137.32c4.82-3.58 6.21-12.22 4-24.92-0.92-5.28-1.43-6.33-3.09-6.33-1.83 0-1.78-0.24 0.71-3.2 3.13-3.72 3.04-6.74-0.48-16.05-3.43-9.06-4.8-9.16-13.33-0.89-9.9 9.59-12.46 9.97-20.47 3.01-6.49-5.64-11.02-5.08-18.84 2.32-5.83 5.51-6.45 7.13-3.47 9 1.66 1.04 1.72 1.35 0.44 2.28-1.24 0.92-0.22 3.06 6.45 13.49 8.98 14.06 16.14 22.67 19.44 23.4 1.23 0.28 7.6 0.35 14.14 0.16 9.83-0.28 12.35-0.68 14.5-2.27zm32.11-163.22c0-1.53 30.58-15.63 36.19-16.67 5.31-1 2.28 1.05-7.57 5.09-4.89 2.01-11.07 4.75-13.73 6.11-7.49 3.79-14.89 6.51-14.89 5.47zm-39-18.6c0-3.75 13.19-22.57 14.74-21.02 0.54 0.54-12.43 21.28-13.86 22.16-0.49 0.3-0.88-0.21-0.88-1.14z"></path><path id="path3094" style="fill:#947676" d="m-547.37 1346.1c-0.25-0.4 0.83-0.8 2.41-0.8 1.58-0.1 2.64 0.3 2.35 0.7-0.66 1.1-4.13 1.2-4.76 0.1zm-126.99-60.9c-0.89-0.9-0.72-5.3 0.29-7.8 0.55-1.4 0.77-0.3 0.68 3.2-0.08 2.9-0.17 5.3-0.22 5.3-0.04 0-0.38-0.3-0.75-0.7zm235.34-264.2c0-1.9 1.93-5.1 3.03-5.1 1.66 0 1.06 2.6-1.03 4.5-1.26 1.1-2 1.3-2 0.6zm111.18-260.11c0.18-2.58 0.74-4.29 1.32-4 1.23 0.62 0.79 6.11-0.6 7.49-0.71 0.69-0.93-0.42-0.72-3.49zm-99.18-23.42c0-2.52 1.18-4.58 2.63-4.58 1.19 0 1.17 0.47-0.13 3-1.7 3.27-2.5 3.79-2.5 1.58zm69.93-67.84c-1.84-1.25-5.21-4.73-7.48-7.75-4.78-6.35-20.45-30.76-20.45-31.85 0-1.47 10.28-12.23 13.05-13.67 5.54-2.86 10.44-1.79 16.73 3.68 2.26 1.96 4.37 2.85 6.78 2.85 3.02 0 4.38-0.94 10.14-7 3.66-3.85 7.46-7 8.44-7s2.67 0.96 3.77 2.14c2.43 2.61 6.09 13.07 6.09 17.42 0 3.16-3.23 8.44-5.17 8.44-0.56 0 0.2-1.44 1.68-3.2 3.13-3.72 3.04-6.74-0.48-16.05-3.43-9.06-4.8-9.16-13.33-0.89-9.9 9.59-12.46 9.97-20.47 3.01-6.49-5.64-11.02-5.08-18.84 2.32-5.83 5.51-6.45 7.13-3.47 9 1.66 1.03 1.72 1.35 0.45 2.28-1.23 0.9-0.21 3.06 6.33 13.38 4.29 6.77 10.1 14.86 12.92 17.98l5.13 5.67 13.58-0.02c15.57-0.03 18.08-1.02 20.51-8.07 1.36-3.95 1.09-17.65-0.43-21.91-0.57-1.6-0.45-1.76 0.58-0.81 0.84 0.78 1.5 5.43 1.9 13.49 0.56 11.38 0.46 12.45-1.39 14.45-2.82 3.03-9.63 4.37-22.3 4.37-9.68 0-11.29-0.25-14.27-2.26zm9.68-63.49c-5.56-8.65-5.84-16.83-0.92-26.87 2.93-5.98 15.57-20.39 16.83-19.17 1.2 1.17-10.7 49.79-12.2 49.79-0.71 0-2.38-1.69-3.71-3.75zm36.64-43.16c-5.39-2.52-7.35-6.22-4.79-9.05 3.19-3.53 9.82-5.36 17.45-4.81 8.82 0.63 13.46 3.12 13.89 7.45 0.26 2.63-0.25 3.43-3.4 5.38-5.31 3.28-17.22 3.81-23.15 1.03zm-52.97-7.12c-5.66-0.81-10.93-3.42-12.68-6.28-0.91-1.49-0.56-2.29 2.04-4.64 6.26-5.64 24.02-6.34 32.71-1.28 10.59 6.17-4.79 14.68-22.07 12.2zm82.41-18.6c-0.35-0.35-7.72-3.23-16.38-6.41-8.66-3.17-15.91-6.23-16.1-6.8-0.51-1.55 6.11-2.49 13.41-1.9 4.92 0.39 7.4 1.19 10.53 3.38 2.25 1.57 5.35 3.67 6.89 4.66 3.12 2 5.76 7.7 3.57 7.7-0.71 0-1.57-0.28-1.92-0.63zm-97.69-5.23c0-1.53 4.64-4.84 11.63-8.28 4.56-2.25 8.25-3.26 13.11-3.6 6.91-0.48 13.76 0.65 13.76 2.28 0 0.5-7.65 2.77-17 5.04s-18.02 4.45-19.25 4.84c-1.31 0.42-2.25 0.3-2.25-0.28zm13-46.25c-4.53-4.2-5.6-5.58-3.5-4.55 3.64 1.81 11.5 8.46 11.5 9.74 0 1.79-1.57 0.77-8-5.19zm36-2.3c-0.01-1.03 5.97-10.59 6.62-10.59 0.55 0-1.96 4.66-4.57 8.5-1.12 1.65-2.04 2.59-2.05 2.09zm11-17.03c0-0.24 0.45-0.72 1-1.06s1-0.14 1 0.44-0.45 1.06-1 1.06-1-0.2-1-0.44z"></path><path id="path3092" style="fill:#3e3ef7" d="m-547.37 1346.1c-0.25-0.4 0.89-0.8 2.53-0.8 1.98-0.1 2.53 0.2 1.65 0.7-1.67 1.1-3.57 1.1-4.18 0.1zm-127.5-64.2c0-1.4 0.23-1.9 0.51-1.3 0.27 0.7 0.27 1.9 0 2.5-0.28 0.7-0.51 0.2-0.51-1.2zm0.92-4.4c-0.04-1.1 0.2-1.7 0.53-1.3 0.33 0.3 0.37 1.2 0.08 1.9-0.32 0.8-0.56 0.5-0.61-0.6zm327.64-670.86c-3.96-5.37-5.03-9.25-4.47-16.17 0.35-4.36 1.41-8.03 3.38-11.69 3.04-5.65 14.76-18.82 15.82-17.77 0.81 0.8-10.58 48.88-11.58 48.88-0.42 0-1.84-1.46-3.15-3.25zm40.29-42.83c-9.32-1.86-12.37-7.41-6.32-11.48 8.01-5.4 26.83-2.73 28.15 3.99 1.05 5.31-11.41 9.58-21.83 7.49zm-62.88-9.84c-8.41-2.91-9.45-6.93-2.68-10.44 8.95-4.63 28.42-2.78 32.28 3.07 1.35 2.03 1.25 2.41-1.15 4.64-5.16 4.78-18.74 6.08-28.45 2.73zm86.88-18.08c-0.83-0.51-7.92-3.27-15.75-6.12-7.84-2.86-14.25-5.58-14.25-6.04s3.45-0.84 7.68-0.84c5.72 0 8.72 0.52 11.75 2.03 5.08 2.54 12.94 9.37 12.44 10.82-0.24 0.71-0.9 0.76-1.87 0.15zm-93.5-6.64c5.4-4.28 14.9-7.71 22.54-8.16 4.24-0.24 8.49 0 9.45 0.54 1.33 0.75-2.26 1.95-15.27 5.12-9.35 2.28-17.39 4.13-17.87 4.11-0.47-0.02 0.05-0.74 1.15-1.61z"></path><path id="path3090" style="fill:#634c4c" d="m-547.37 1346.1c-0.25-0.4 0.89-0.8 2.53-0.8 1.98-0.1 2.53 0.2 1.65 0.7-1.67 1.1-3.57 1.1-4.18 0.1zm-127.5-64.2c0-1.4 0.23-1.9 0.51-1.3 0.27 0.7 0.27 1.9 0 2.5-0.28 0.7-0.51 0.2-0.51-1.2zm0.92-4.4c-0.04-1.1 0.2-1.7 0.53-1.3 0.33 0.3 0.37 1.2 0.08 1.9-0.32 0.8-0.56 0.5-0.61-0.6zm327.8-670.36c-1.25-1.58-1.21-1.62 0.38-0.38 0.96 0.76 1.75 1.55 1.75 1.75 0 0.83-0.83 0.3-2.13-1.37zm-2.42-3.32c-0.36-0.58-0.44-1.28-0.18-1.54s0.74 0.22 1.07 1.07c0.68 1.76 0.1 2.07-0.89 0.47zm-2.3-6.93c0-1.37 0.23-1.94 0.51-1.25 0.27 0.69 0.27 1.81 0 2.5-0.28 0.69-0.51 0.13-0.51-1.25zm-0.08-8.42c-0.04-1.05 0.2-1.64 0.53-1.31s0.37 1.2 0.08 1.92c-0.32 0.8-0.56 0.56-0.61-0.61zm0.96-4.08c0-0.55 0.43-1.67 0.97-2.5 0.53-0.82 0.96-1.05 0.96-0.5s-0.43 1.68-0.96 2.5c-0.54 0.83-0.97 1.05-0.97 0.5zm2.97-6.5c0.58-1.1 1.29-2 1.57-2 0.27 0 0.01 0.9-0.57 2-0.59 1.1-1.3 2-1.58 2-0.27 0-0.01-0.9 0.58-2zm3.75-5.5c1.15-1.65 4.24-5.02 6.89-7.5 4.27-4 4.14-3.78-1.11 2-7.9 8.7-8.19 8.98-5.78 5.5zm37.25-8.58c-9.32-1.86-12.37-7.41-6.32-11.48 8.01-5.4 26.83-2.73 28.15 3.99 1.05 5.31-11.41 9.58-21.83 7.49zm-62.88-9.84c-8.41-2.91-9.45-6.93-2.68-10.44 8.95-4.63 28.42-2.78 32.28 3.07 1.35 2.03 1.25 2.41-1.15 4.64-5.16 4.78-18.74 6.08-28.45 2.73zm86.88-18.08c-0.83-0.51-7.92-3.27-15.75-6.12-7.84-2.86-14.25-5.58-14.25-6.04s3.45-0.84 7.68-0.84c5.72 0 8.72 0.52 11.75 2.03 5.08 2.54 12.94 9.37 12.44 10.82-0.24 0.71-0.9 0.76-1.87 0.15zm-93.5-6.64c5.4-4.28 14.9-7.71 22.54-8.16 4.24-0.24 8.49 0 9.45 0.54 1.33 0.75-2.26 1.95-15.27 5.12-9.35 2.28-17.39 4.13-17.87 4.11-0.47-0.02 0.05-0.74 1.15-1.61z"></path><path id="path3088" style="fill:#2c2c94" d="m-346.15 607.14c-1.25-1.58-1.21-1.62 0.38-0.38 0.96 0.76 1.75 1.55 1.75 1.75 0 0.83-0.83 0.3-2.13-1.37zm-2.42-3.32c-0.36-0.58-0.44-1.28-0.18-1.54s0.74 0.22 1.07 1.07c0.68 1.76 0.1 2.07-0.89 0.47zm-2.3-6.93c0-1.37 0.23-1.94 0.51-1.25 0.27 0.69 0.27 1.81 0 2.5-0.28 0.69-0.51 0.13-0.51-1.25zm-0.08-8.42c-0.04-1.05 0.2-1.64 0.53-1.31s0.37 1.2 0.08 1.92c-0.32 0.8-0.56 0.56-0.61-0.61zm0.96-4.08c0-0.55 0.43-1.67 0.97-2.5 0.53-0.82 0.96-1.05 0.96-0.5s-0.43 1.68-0.96 2.5c-0.54 0.83-0.97 1.05-0.97 0.5zm2.97-6.5c0.58-1.1 1.29-2 1.57-2 0.27 0 0.01 0.9-0.57 2-0.59 1.1-1.3 2-1.58 2-0.27 0-0.01-0.9 0.58-2zm3.75-5.5c1.15-1.65 4.24-5.02 6.89-7.5 4.27-4 4.14-3.78-1.11 2-7.9 8.7-8.19 8.98-5.78 5.5zm37.25-8.58c-9.32-1.86-12.37-7.41-6.32-11.48 8.01-5.4 26.83-2.73 28.15 3.99 1.05 5.31-11.41 9.58-21.83 7.49zm-62.88-9.84c-8.41-2.91-9.45-6.93-2.68-10.44 8.95-4.63 28.42-2.78 32.28 3.07 1.35 2.03 1.25 2.41-1.15 4.64-5.16 4.78-18.74 6.08-28.45 2.73z"></path></g></g><metadata></metadata></svg> 