<?xml version="1.0" encoding="UTF-8" standalone="no"?> <!-- Created with Inkscape (http://www.inkscape.org/) --> <svg xmlns:inkscape="http://www.inkscape.org/namespaces/inkscape" xmlns:rdf="http://www.w3.org/1999/02/22-rdf-syntax-ns#" xmlns="http://www.w3.org/2000/svg" xmlns:cc="http://web.resource.org/cc/" xmlns:dc="http://purl.org/dc/elements/1.1/" xmlns:sodipodi="http://sodipodi.sourceforge.net/DTD/sodipodi-0.dtd" xmlns:svg="http://www.w3.org/2000/svg" xmlns:ns1="http://sozi.baierouge.fr" xmlns:xlink="http://www.w3.org/1999/xlink" id="svg2" sodipodi:docname="lord_snowman.svg" inkscape:export-filename="C:\Documents and Settings\m-hiroki\デスクトップ\snowman.png" viewBox="0 0 643.5 1049.6" sodipodi:version="0.32" inkscape:export-xdpi="31.63541" inkscape:output_extension="org.inkscape.output.svg.inkscape" inkscape:export-ydpi="31.63541" inkscape:version="0.45.1" sodipodi:docbase="/Users/johnolsen/Desktop"><g id="layer1" inkscape:label="Layer 1" inkscape:groupmode="layer" transform="translate(-28.473 -14.719)"><g id="g2099" inkscape:export-ydpi="31.63541" inkscape:export-xdpi="31.63541"><g id="g1884" transform="translate(-2.8571 31.429)"><path id="path1874" sodipodi:rx="195.71428" sodipodi:ry="187.14285" style="stroke:#ffffff;fill:#000000" sodipodi:type="arc" d="m315.89 505a195.71 187.14 0 1 1 25.4 3.77" sodipodi:open="true" transform="matrix(1.1748 0 0 1.1293 -54.093 -68.838)" sodipodi:cy="322.36218" sodipodi:cx="358.57144" sodipodi:end="7.9424064" sodipodi:start="1.7906242"></path><path id="path1880" sodipodi:rx="152.85715" sodipodi:ry="147.14285" style="stroke:#ffffff;fill:#ffffff" sodipodi:type="arc" d="m330.95 448.82a152.86 147.14 0 1 1 19.84 2.97" sodipodi:open="true" transform="matrix(1.4844 0 0 1.4062 -173.62 -135.4)" sodipodi:cy="305.21933" sodipodi:cx="364.28571" sodipodi:end="7.9424064" sodipodi:start="1.7906242"></path><path id="path1900" sodipodi:rx="30" sodipodi:ry="70" style="stroke:#ffffff;fill:#000000" sodipodi:type="arc" d="m260.6 327.82a30 70 0 1 1 3.89 1.41" sodipodi:open="true" transform="matrix(.67016 0 0 .94026 280.97 -8.781)" sodipodi:cy="259.50504" sodipodi:cx="267.14285" sodipodi:end="7.9424064" sodipodi:start="1.7906242"></path></g><g id="g1890" transform="translate(5.7143 28.571)"><path id="path1876" sodipodi:rx="232.85715" sodipodi:ry="240" style="stroke:#ffffff;fill:#000000" sodipodi:type="arc" d="m319.22 980.87a232.86 240 0 1 1 30.22 4.84" sodipodi:open="true" transform="matrix(1.2389 0 0 1.1068 -81.233 -56.861)" sodipodi:cy="746.64789" sodipodi:cx="370" sodipodi:end="7.9424064" sodipodi:start="1.7906242"></path><path id="path1888" sodipodi:rx="210" sodipodi:ry="194.28572" style="stroke:#ffffff;fill:#ffffff" sodipodi:type="arc" d="m347.06 964.83a210 194.29 0 1 1 27.25 3.92" sodipodi:open="true" transform="matrix(1.3461 0 0 1.3373 -151.67 -270.05)" sodipodi:cy="775.2193" sodipodi:cx="392.85715" sodipodi:end="7.9424064" sodipodi:start="1.7906242"></path></g><path id="path1896" sodipodi:rx="30" sodipodi:ry="70" style="stroke:#ffffff;fill:#000000" sodipodi:type="arc" d="m260.6 327.82a30 70 0 1 1 3.89 1.41" sodipodi:open="true" transform="matrix(.67016 0 0 .94026 89.542 28.36)" sodipodi:cy="259.50504" sodipodi:cx="267.14285" sodipodi:end="7.9424064" sodipodi:start="1.7906242"></path><g id="g1908" style="fill:#ff0000" transform="translate(722.86 -117.14)"><path id="path1902" style="fill-rule:evenodd;fill-opacity:.75;stroke:#000000;stroke-width:1px;fill:#ff0000" d="m-357.14 452.36l-145.72 34.29 145.72 14.28v-48.57z"></path><path id="path1904" style="fill-rule:evenodd;fill-opacity:.75;stroke:#000000;stroke-width:1px;fill:#ff0000" d="m-445.71 469.51v20"></path><path id="path1906" style="fill-rule:evenodd;stroke:#000000;stroke-width:1px;fill:#ff0000" d="m-405.71 463.79l2.85 31.43"></path></g><path id="path1967" sodipodi:rx="87.14286" sodipodi:ry="115.71429" style="stroke:#ffffff;fill:#ffffff" sodipodi:type="arc" d="m396.71 166.72a87.143 115.71 0 1 1 11.31 2.33" sodipodi:open="true" transform="matrix(1.3283 0 0 .61775 -205.07 87.703)" sodipodi:cy="53.790752" sodipodi:cx="415.71429" sodipodi:end="7.9424064" sodipodi:start="1.7906242"></path><path id="path1913" style="fill-rule:evenodd;fill-opacity:.75;stroke:#000000;stroke-width:1px;fill:#000080" d="m231.43 189.51l51.43-174.29 140-0.001 48.57 168.57-240 5.72z"></path><path id="path1973" style="stroke:#000000;stroke-width:1px;fill:none" d="m334.29 132.36c8.78 13.39 30.39 11.43 51.42 11.43 10.37 0 25.17 5.72 40 5.72h54.29c20.19 0 8.85-22.31 5.71-28.58-3.38-6.77-32.74-2.85-40-2.85h-5.71"></path><path id="path1998" sodipodi:rx="32.857143" sodipodi:ry="28.571428" style="stroke:#ffffff;fill:#000000" sodipodi:type="arc" d="m351.41 745.96a32.857 28.571 0 1 1 4.26 0.58" sodipodi:open="true" transform="translate(20,-60)" sodipodi:cy="718.07648" sodipodi:cx="358.57144" sodipodi:end="7.9424064" sodipodi:start="1.7906242"></path><path id="path2002" sodipodi:rx="32.857143" sodipodi:ry="28.571428" style="stroke:#ffffff;fill:#000000" sodipodi:type="arc" d="m351.41 745.96a32.857 28.571 0 1 1 4.26 0.58" sodipodi:open="true" transform="translate(24.286 74.286)" sodipodi:cy="718.07648" sodipodi:cx="358.57144" sodipodi:end="7.9424064" sodipodi:start="1.7906242"></path><path id="path2004" sodipodi:rx="32.857143" sodipodi:ry="28.571428" style="stroke:#ffffff;fill:#000000" sodipodi:type="arc" d="m351.41 745.96a32.857 28.571 0 1 1 4.26 0.58" sodipodi:open="true" transform="translate(25.023 212.82)" sodipodi:cy="718.07648" sodipodi:cx="358.57144" sodipodi:end="7.9424064" sodipodi:start="1.7906242"></path><path id="text2006" style="fill:#000000" d="m504.28 527.26v98.44h42.75v-98.44h11.25v98.44h42.75v-98.44h11.25v98.44h12.37v30.94h-11.25v-20.25h-60.19-60.18v-109.13h11.25"></path><path id="text2016" style="fill:#000000" d="m352 504.35l-51.75-93.93 10.69-6.19 12.94 23.06h56.24l12.94-23.06 10.69 6.19-51.75 93.93m-22.5-65.25l22.5 39.94 22.5-39.94h-45"></path><path id="text2022" style="fill:#000000" d="m39.723 527.39v98.44h42.75v-98.44h11.25v98.44h42.747v-98.44h11.25v98.44h12.38v30.94h-11.25v-20.25h-60.189-60.188v-109.13h11.25"></path></g></g><metadata></metadata></svg> 