<?xml version="1.0" encoding="UTF-8" standalone="no"?> <!-- Created with Inkscape (http://www.inkscape.org/) --> <svg xmlns:inkscape="http://www.inkscape.org/namespaces/inkscape" xmlns:rdf="http://www.w3.org/1999/02/22-rdf-syntax-ns#" xmlns="http://www.w3.org/2000/svg" xmlns:sodipodi="http://sodipodi.sourceforge.net/DTD/sodipodi-0.dtd" xmlns:cc="http://web.resource.org/cc/" xmlns:xlink="http://www.w3.org/1999/xlink" xmlns:dc="http://purl.org/dc/elements/1.1/" xmlns:svg="http://www.w3.org/2000/svg" xmlns:ns1="http://sozi.baierouge.fr" id="svg2" sodipodi:docname="Machovka_Candle.svg" sodipodi:modified="true" viewBox="0 0 443.8 636.47" sodipodi:version="0.32" inkscape:output_extension="org.inkscape.output.svg.inkscape" inkscape:version="0.44+devel" inkscape:label="Pozadí" sodipodi:docbase="C:\Documents and Settings\Molumen\Desktop"><defs id="defs3"><radialGradient id="radialGradient2179" gradientUnits="userSpaceOnUse" cy="186.44" cx="352.82" gradientTransform="matrix(.91885 0 0 1.8783 257.28 -164.7)" r="49.686" inkscape:collect="always"><stop id="stop3974" style="stop-color:#f2f2f2" offset="0"></stop><stop id="stop3976" style="stop-color:#f2f2f2;stop-opacity:0" offset="1"></stop></radialGradient></defs><g id="layer1" inkscape:label="Vrstva 1" inkscape:groupmode="layer" transform="translate(-476.74 -66.341)"><path id="rect1882" style="fill-opacity:.41969;fill:#999999" d="m898.59 258.78c-2.76-0.57-7.15 2.58-13.75 11.07-7.92 10.18-16.98 11.2-26.4 14.88-16.79 6.56-32.74 24.39-32.55 33.12l-0.34-0.19-14.42 37.46-0.38 5.81-35.31-25.78-214.67 270.2 98.11 71.64 214.67-270.2-35.48-25.9 40.36-13.6 15.02-41.91c5.34-11.14 5.66-24.95 7.45-37 2.34-15.69 2.62-28.57-2.31-29.6z"></path><path id="path1891" style="fill:#362c1d" sodipodi:type="star" d="m-160.06 826.28l-40.28-35.91-53.28 8.64 21.71-49.42-24.68-47.99 53.71 5.37 38.02-38.3 11.48 52.74 48.18 24.32-46.61 27.22-8.25 53.33z" sodipodi:r1="82.901932" inkscape:flatsided="false" transform="matrix(.29832 .13606 -.14720 .26924 759.19 361.49)" sodipodi:arg2="1.8544675" sodipodi:arg1="1.226149" inkscape:randomized="0" sodipodi:cy="748.25751" sodipodi:cx="-188.06471" inkscape:rounded="0" sodipodi:r2="43.863979" sodipodi:sides="5"></path><path id="path1897" style="fill:#362c1d" sodipodi:type="star" d="m-160.06 826.28l-40.28-35.91-53.28 8.64 21.71-49.42-24.68-47.99 53.71 5.37 38.02-38.3 11.48 52.74 48.18 24.32-46.61 27.22-8.25 53.33z" sodipodi:r1="82.901932" inkscape:flatsided="false" transform="matrix(.29832 .13606 -.14720 .26924 786.09 461.52)" sodipodi:arg2="1.8544675" sodipodi:arg1="1.226149" inkscape:randomized="0" sodipodi:cy="748.25751" sodipodi:cx="-188.06471" inkscape:rounded="0" sodipodi:r2="43.863979" sodipodi:sides="5"></path><path id="path1871" sodipodi:rx="13.004476" sodipodi:ry="1.0003443" style="fill-rule:evenodd;stroke:#000000;stroke-width:1px;fill:#ff0000" sodipodi:type="arc" d="m326.11 555.19a13.004 1.0003 0 0 1 -12.96 1l-0.04-1z" transform="matrix(.65252 0 0 .59598 359.04 64.408)" sodipodi:cy="555.1911" sodipodi:cx="313.10776" sodipodi:end="1.5678378" sodipodi:start="0"></path><rect id="rect1875" style="fill:#0000ff" height="420.91" width="152.74" y="255.19" x="499.99"></rect><path id="path1879" style="fill:#ffff00" d="m581.6 278.81c-20.43-22.45-32.38-51.59-38.15-81.12 0.36-8.64-7.78-14.22-7.62-22.95-0.57-16.41 10.47-29.88 17.52-43.79 3.44-7.13 8.04-14.75 6.52-22.95-1.03-7.31 3.23-17.155 12.02-15.689 12.64 2.135 22.99 13.299 25.64 25.629 1.54 7.4 5.85 13.97 8.91 20.85 9.44 19.43 20.89 39.39 20.68 61.64-0.06 10.99-4.79 21.39-11.62 29.81-10.89 16.47-23.98 31.44-33.9 48.57z"></path><path id="path1890" sodipodi:nodetypes="csssssssssssssssssssssssc" style="fill-rule:evenodd;stroke:#000000;stroke-width:.62361px;fill:#ffffff" d="m497.67 256.28c1.74 8.33-1.31 16.18-1.31 23.85 0 6.83-1.3 14.33-1.3 21.46 0 13.63 6.8 17.47 14.36 5.96 8.75-13.32 11.48-19.57 20.88-2.38 4.89 8.93 1.13 25.58 3.92 35.77 3.26 11.92 2.55 25.2 5.22 37.07 1.96 8.69 2.3 18.59 6.53 23.84 9.12 11.34 13.45-16.2 14.36-20.37 1.97-9.01 1.31-18.95 1.31-28.61 0-8.92-1.64-17.92-3.92-26.24-2.17-7.93 1.75-12.39 10.12-14.31 2.1-0.48 11.06 13.06 13.38 15.51 7.71 8.15 7.33 3.1 14.36 14.42 5.35 8.63 2.61 19.19 5.22 28.5 4.59 16.38 11.46 1.98 14.36-5.96 2.67-7.32 2.97-13.07 1.22-19.08-2.37-8.09-8.14-16.94-10.36-25.04-2.05-7.49 0.28-13.24 5.23-15.5 6.3-2.88 12.14-2.9 19.58 1.32 5.84 3.33 11.54 7.21 18.27 1.06 3.4-3.1 5.55-13.72 5.55-17.88 0-7.12-1.63-15.59-1.63-22.66 0-9.58 7.58-15.8-3.26-15.8-16.54 0-44.82 1.2-61.36 1.2"></path><path id="path1892" sodipodi:nodetypes="cssssssc" style="fill-rule:evenodd;stroke:#000000;stroke-width:.62361px;fill:#ffffff" d="m499.38 308.25c-2.19 0 0.66-18.36 0.66-21.92v-21.6c0-7.65 5.24-11.63 11.75-13.12 6.49-1.48 15.53 0 22.19 0 8.82 0 20.44 1.13 30.68 2.68 2.61 0.4 14.36-0.99 16.97-0.59 10.14 1.54 14.56 2.38 25.13 2.38"></path><path id="path1902" style="fill:#ffff00" sodipodi:type="star" sodipodi:sides="5" sodipodi:r1="82.901932" sodipodi:r2="43.863979" sodipodi:arg1="1.226149" sodipodi:arg2="1.8544675" transform="matrix(.33345 0 0 .30095 598.33 342.82)" inkscape:randomized="0" sodipodi:cy="748.25751" sodipodi:cx="-188.06471" inkscape:rounded="0" inkscape:flatsided="false" d="m-160.06 826.28l-40.28-35.91-53.28 8.64 21.71-49.42-24.68-47.99 53.71 5.37 38.02-38.3 11.48 52.74 48.18 24.32-46.61 27.22-8.25 53.33z"></path><path id="path1904" style="fill:#ffff00" sodipodi:type="star" sodipodi:sides="5" sodipodi:r1="82.901932" sodipodi:r2="43.863979" sodipodi:arg1="1.226149" sodipodi:arg2="1.8544675" transform="matrix(.33345 0 0 .30095 602.13 221.02)" inkscape:randomized="0" sodipodi:cy="748.25751" sodipodi:cx="-188.06471" inkscape:rounded="0" inkscape:flatsided="false" d="m-160.06 826.28l-40.28-35.91-53.28 8.64 21.71-49.42-24.68-47.99 53.71 5.37 38.02-38.3 11.48 52.74 48.18 24.32-46.61 27.22-8.25 53.33z"></path><path id="path1906" style="fill:#ffff00" sodipodi:type="star" sodipodi:sides="5" sodipodi:r1="82.901932" sodipodi:r2="43.863979" sodipodi:arg1="1.226149" sodipodi:arg2="1.8544675" transform="matrix(.33345 0 0 .30095 685.68 272.29)" inkscape:randomized="0" sodipodi:cy="748.25751" sodipodi:cx="-188.06471" inkscape:rounded="0" inkscape:flatsided="false" d="m-160.06 826.28l-40.28-35.91-53.28 8.64 21.71-49.42-24.68-47.99 53.71 5.37 38.02-38.3 11.48 52.74 48.18 24.32-46.61 27.22-8.25 53.33z"></path><path id="path1908" style="fill:#ffff00" sodipodi:type="star" sodipodi:sides="5" sodipodi:r1="82.901932" sodipodi:r2="43.863979" sodipodi:arg1="1.226149" sodipodi:arg2="1.8544675" transform="matrix(.33345 0 0 .30095 671.32 421.34)" inkscape:randomized="0" sodipodi:cy="748.25751" sodipodi:cx="-188.06471" inkscape:rounded="0" inkscape:flatsided="false" d="m-160.06 826.28l-40.28-35.91-53.28 8.64 21.71-49.42-24.68-47.99 53.71 5.37 38.02-38.3 11.48 52.74 48.18 24.32-46.61 27.22-8.25 53.33z"></path><path id="path3075" style="opacity:.71963;fill:url(#radialGradient2179)" d="m581.6 278.81c-20.43-22.45-32.38-51.59-38.15-81.12 0.36-8.64-7.78-14.22-7.62-22.95-0.57-16.41 10.47-29.88 17.52-43.79 3.44-7.13 8.04-14.75 6.52-22.95-1.03-7.31 3.23-17.155 12.02-15.689 12.64 2.135 22.99 13.299 25.64 25.629 1.54 7.4 5.85 13.97 8.91 20.85 9.44 19.43 20.89 39.39 20.68 61.64-0.06 10.99-4.79 21.39-11.62 29.81-10.89 16.47-23.98 31.44-33.9 48.57z"></path></g><metadata></metadata></svg> 