<?xml version="1.0" encoding="UTF-8" standalone="no"?> <!-- Created with Inkscape (http://www.inkscape.org/) --> <svg xmlns:inkscape="http://www.inkscape.org/namespaces/inkscape" xmlns:rdf="http://www.w3.org/1999/02/22-rdf-syntax-ns#" xmlns="http://www.w3.org/2000/svg" xmlns:cc="http://web.resource.org/cc/" xmlns:dc="http://purl.org/dc/elements/1.1/" xmlns:sodipodi="http://sodipodi.sourceforge.net/DTD/sodipodi-0.dtd" xmlns:svg="http://www.w3.org/2000/svg" xmlns:ns1="http://sozi.baierouge.fr" xmlns:xlink="http://www.w3.org/1999/xlink" id="svg2" sodipodi:docname="syr_1.svg" inkscape:version="0.44.1" viewBox="0 0 597.04 587.04" sodipodi:version="0.32" inkscape:label="Pozadí" sodipodi:docbase="D:\_petr_\School\INKSCAPE\svg\05.Ovoce, zelenina, jidlo\jidlo"><g id="layer1" inkscape:label="Vrstva 1" inkscape:groupmode="layer" transform="translate(-71.085 -282.41)"><g id="g10113" inkscape:export-ydpi="90" inkscape:export-xdpi="90" inkscape:export-filename="/media/KINGSTON/inkscape/8.b/Petra Thurlova/svg 3/Prace svg/jidlo/syr.png" transform="translate(-28.552 177.43)"><path id="path9202" sodipodi:nodetypes="csssssssssssc" style="stroke:black;stroke-width:1.009;fill:#edd60d" d="m399.37 159.71c25.13-7.58 66.11 21.9 103.91 56.75 37.81 34.84 72.44 75.04 84.9 88.92 12.45 13.87 48.8 52.76 78.87 93.55 30.07 40.78 35.37 105.89 22.69 127.34-12.67 21.44-59.58 26.73-128.08 50.98-68.51 24.25-140.12 45.03-165.25 52.6-25.13 7.58-97.28 29.45-166.27 45.96-68.98 16.5-109.73 21.53-122.18 7.66-12.455-13.88-12.577-64.45 18.64-123.03 31.23-58.58 68.73-119.05 81.41-140.5 12.67-21.45 47.95-82.72 86.34-140.52 38.39-57.81 79.89-112.14 105.02-119.71z"></path><path id="path7418" style="stroke:black;stroke-width:0.8;fill:#edd60d" sodipodi:type="star" d="m163.16 401.77c-35.61 4.28-134.43-132.31-155.94-161.01-21.504-28.7-124.83-161.92-110.73-194.89 14.104-32.976 181.81-50.265 217.41-54.538 35.61-4.273 202.64-27.152 224.15 1.5495 21.5 28.702-47.38 182.58-61.48 215.55-14.1 32.98-77.8 189.07-113.41 193.34z" sodipodi:r1="256.76166" inkscape:flatsided="false" transform="matrix(-1.2904 .28272 .16156 -1.1751 540.9 532.67)" sodipodi:arg2="2.498565" sodipodi:arg1="1.4513674" inkscape:randomized="0" sodipodi:cy="146.84123" sodipodi:cx="132.565" inkscape:rounded="0.16" sodipodi:r2="156.62459" sodipodi:sides="3"></path><path id="path9208" sodipodi:rx="91.775772" sodipodi:ry="61.183849" style="stroke:black;stroke-width:0.8;fill:#e1d357" sodipodi:type="arc" d="m-393.62 383.42a91.776 61.184 0 1 1 -183.55 0 91.776 61.184 0 1 1 183.55 0z" transform="translate(834.14 114.21)" sodipodi:cy="383.41879" sodipodi:cx="-485.39185"></path><path id="path10097" sodipodi:rx="37.730038" sodipodi:ry="81.578461" style="stroke:black;stroke-width:0.8;fill:#e1d357" sodipodi:type="arc" d="m-301.84 242.7a37.73 81.578 0 1 1 -75.46 0 37.73 81.578 0 1 1 75.46 0z" transform="translate(750.52 -34.671)" sodipodi:cy="242.69592" sodipodi:cx="-339.57034"></path><path id="path10099" sodipodi:rx="119.3085" sodipodi:ry="21.414347" style="stroke:black;stroke-width:0.8;fill:#e1d357" sodipodi:type="arc" d="m-173.35 333.45a119.31 21.414 0 1 1 -238.62 0 119.31 21.414 0 1 1 238.62 0z" transform="matrix(.93917 -.34345 .34345 .93917 671.22 148.19)" sodipodi:cy="333.45197" sodipodi:cx="-292.66275"></path><path id="path10101" sodipodi:rx="27.532732" sodipodi:ry="29.572193" style="stroke:black;stroke-width:0.8;fill:#e1d357" sodipodi:type="arc" d="m-426.25 317.14a27.533 29.572 0 1 1 -55.06 0 27.533 29.572 0 1 1 55.06 0z" transform="translate(589.4 289.6)" sodipodi:cy="317.13629" sodipodi:cx="-453.78021"></path><path id="path10103" sodipodi:rx="80.558731" sodipodi:ry="60.164116" style="stroke:black;stroke-width:0.8;fill:#e1d357" sodipodi:type="arc" d="m-275.33 231.48a80.559 60.164 0 1 1 -161.11 0 80.559 60.164 0 1 1 161.11 0z" transform="matrix(.54678 0 0 .46094 699.36 206.36)" sodipodi:cy="231.4789" sodipodi:cx="-355.88605"></path><path id="path10107" sodipodi:rx="67.302231" sodipodi:ry="35.690578" style="stroke:black;stroke-width:0.8;fill:#e1d357" sodipodi:type="arc" d="m-416.05 404.83a67.302 35.691 0 1 1 -134.6 0 67.302 35.691 0 1 1 134.6 0z" transform="translate(1021.8 14.276)" sodipodi:cy="404.83313" sodipodi:cx="-483.35239"></path><path id="path10109" sodipodi:rx="58.124657" sodipodi:ry="98.913887" style="stroke:black;stroke-width:0.8;fill:#e1d357" sodipodi:type="arc" d="m-32.631 439.5a58.125 98.914 0 1 1 -116.25 0 58.125 98.914 0 1 1 116.25 0z" transform="matrix(.63452 0 0 .51719 353.31 111.24)" sodipodi:cy="439.50397" sodipodi:cx="-90.756042"></path><path id="path10111" sodipodi:rx="142.76231" sodipodi:ry="41.808964" style="stroke:black;stroke-width:0.8;fill:#e1d357" sodipodi:type="arc" d="m-61.184 827a142.76 41.809 0 1 1 -285.53 0 142.76 41.809 0 1 1 285.53 0z" transform="matrix(.014834 -.43680 .54313 .011930 -241.18 443.55)" sodipodi:cy="827.00165" sodipodi:cx="-203.94617"></path></g></g><metadata></metadata></svg> 