<?xml version="1.0" encoding="UTF-8" standalone="no"?> <!-- Created with Inkscape (http://www.inkscape.org/) --> <svg xmlns:inkscape="http://www.inkscape.org/namespaces/inkscape" xmlns:rdf="http://www.w3.org/1999/02/22-rdf-syntax-ns#" xmlns="http://www.w3.org/2000/svg" xmlns:cc="http://creativecommons.org/ns#" xmlns:dc="http://purl.org/dc/elements/1.1/" xmlns:sodipodi="http://sodipodi.sourceforge.net/DTD/sodipodi-0.dtd" id="svg2" sodipodi:docname="_svgclean2.svg" viewBox="0 0 972.38 1042.3" sodipodi:version="0.32" inkscape:version="0.48.3.1 r9886"><g id="layer1" inkscape:label="Ebene 1" inkscape:groupmode="layer" transform="translate(242.89 -2.6307)"><path id="path5610" style="fill:#000000" inkscape:connector-curvature="0" d="m521.14 266.74c-2.51-1.7-2.55-1.79-2.96-8.34-0.39-6.02-0.78-7.38-4.38-15.09-3.56-7.62-3.99-9.09-4.27-14.48-0.4-8.02 1.25-14.33 8-30.57 7.65-18.37 7.67-22.88 0.2-40.74-3.23-7.72-3.45-8.69-3.48-14.9-0.03-6.18 0.16-7.07 2.83-12.91 3.48-7.59 4.35-13.68 2.17-15.26-4.2-3.05-10.68-10.31-11.79-13.22-0.68-1.78-1.4-3.236-1.6-3.236s-3.56 1.398-7.46 3.106c-6.52 2.85-7.71 3.13-14.6 3.39-4.12 0.15-9.38-0.12-11.68-0.6l-4.19-0.87 0.49-2.7c1.33-7.184 4.51-11.406 15.11-20.038 11.79-9.601 14.03-12.54 14.07-18.413 0.03-5.092 3.17-12.877 6.07-15.034 1.89-1.407 2.29-1.444 5.53-0.519 6.71 1.918 7.96 1.838 13.68-0.878 5.19-2.465 5.48-2.745 8.15-7.826 2.7-5.147 2.84-5.27 5.62-5.27 2.19 0 4.12 0.851 8.36 3.688 8.17 5.461 9.32 5.364 30.39-2.542 4.41-1.656 9.41-2.962 12.44-3.249l5.07-0.479 2.04-5.533c1.13-3.043 2.95-7.662 4.05-10.265s2.23-6.254 2.51-8.1141c0.45-3.0422 0.68-3.3611 2.31-3.1747 4.29 0.4915 11.07 7.6308 15.39 16.204 2.62 5.192 3.44 16.267 2.41 32.504-1.22 19.163-1.1 25.092 0.77 37.583 1.14 7.611 1.63 14.306 1.63 22.306 0 10.98-0.09 11.71-2.39 18.39l-2.4 6.96 1.14 7.14c2.54 16.03 0.39 31.49-6.32 45.44-1.2 2.49-2.66 6.8-3.24 9.59-1.66 7.87-2.82 22.46-2.43 30.52 0.31 6.31 0.67 7.97 2.69 12.06 1.28 2.6 3.66 6.06 5.28 7.68 3.37 3.38 4.55 8.08 2.98 11.88-1.13 2.71-2.31 3.02-11.58 3.03-9.94 0.01-10.31-0.29-12.16-9.99-0.77-4.03-1.71-11.65-2.08-16.92-0.38-5.28-1.36-12.08-2.19-15.13l-1.5-5.53 1.5-9.33c1.62-10.17 1.73-20.29 0.18-16.8-1.41 3.17-3.19 17.23-3.2 25.23 0 8.8-1.94 38.01-2.95 44.37-0.38 2.4-1.02 4.69-1.41 5.09-1.24 1.24-23.54 1.31-26.48 0.08-2.51-1.05-2.53-1.1-2.17-4.88 0.32-3.35 0.77-4.2 3.6-6.86 1.78-1.66 4.06-3.6 5.07-4.3l1.85-1.28 0.16-16.03c0.14-14.11 1.06-24.9 2.91-34.16 0.51-2.56-0.21-2.96-10.55-5.77-4.41-1.2-8.51-2.36-9.12-2.58-0.77-0.27-1.63 0.68-2.8 3.09-0.93 1.91-4.16 6.58-7.19 10.38-7.15 8.98-12.17 17.1-13.33 21.55-1.39 5.38-0.41 7.78 5.24 12.76 4.07 3.6 4.96 4.84 5.98 8.33 1.08 3.72 1.08 4.34 0.04 6.78-0.63 1.48-1.53 4.68-1.99 7.12-1.06 5.57-2.28 7.5-5.1 8.05-1.24 0.23-3.17 0.61-4.31 0.82-1.43 0.28-2.85-0.13-4.61-1.31zm4.3-3.32c-2.15-2.22-2.6-3.17-2.28-4.8 0.55-2.76 1.44-2.55 2.01 0.48 0.53 2.81 3.31 5.1 5.76 4.73 2.11-0.31 3.5-4.39 4.71-13.88 0.42-3.29 0.39-3.35-4.62-8.48-2.78-2.85-5.69-5.52-6.47-5.95-1.04-0.57-1.54-1.91-1.88-4.97-0.25-2.31-0.25-4.45 0.01-4.75 0.26-0.31 0.92-1.72 1.47-3.14s1.77-3.84 2.73-5.38c0.95-1.53 1.5-3.19 1.21-3.68-0.28-0.5-0.25-0.66 0.08-0.37 0.52 0.47 3.34-2.37 3.34-3.37 0-0.22 0.84-1.31 1.87-2.42s1.69-2.47 1.48-3.03c-0.21-0.55-0.1-0.83 0.25-0.61s1.58-1.01 2.72-2.73c1.15-1.72 2.48-3.46 2.97-3.88 0.48-0.42 1.92-2.7 3.2-5.06l2.32-4.29-3.09-4.01c-1.7-2.21-4.07-4.83-5.25-5.83-1.19-1-1.9-1.81-1.58-1.81s-1.04-1.65-3.03-3.67c-3.03-3.07-3.8-3.52-4.77-2.77-0.99 0.78-1.02 0.74-0.23-0.27 0.75-0.97 0.68-1.4-0.43-2.4-0.74-0.67-1.62-0.97-1.96-0.67-0.34 0.31-0.39 0.17-0.12-0.31 0.28-0.49-0.53-1.67-1.91-2.74-2.6-2.04-3.42-1.54-1.93 1.17 1.03 1.88 1.24 2.53 1.85 5.75 0.24 1.22 0.64 2.22 0.9 2.22 0.89 0-0.48 14.4-1.69 17.67-0.66 1.81-1.03 3.73-0.82 4.28s0.1 0.82-0.23 0.62c-0.74-0.46-3.24 4.58-2.7 5.45 0.21 0.34 0.12 0.73-0.21 0.87-2.42 1.01-9.01 21.28-9.01 27.72 0 2.94 2.62 9.04 3.88 9.04 0.44 0 0.6 0.19 0.37 0.43-0.24 0.24 0.37 1.61 1.35 3.06 1.76 2.59 3.99 8.9 3.99 11.28 0 1.74 0.82 2.31 1.96 1.36 1.4-1.15 1.33 0.85-0.09 2.73-1.48 1.96-1.4 5.93 0.16 7.64 0.77 0.83 2.33 1.44 3.84 1.47l2.55 0.06-2.68-2.76zm-2.79-0.19c-0.66-0.43-0.75-0.72-0.22-0.72 0.48-0.01 1.08 0.32 1.33 0.72 0.57 0.92 0.31 0.92-1.11 0zm16.65-79.88c0.28-0.73 0.69-1.14 0.92-0.91 0.22 0.23 0 0.82-0.51 1.32-0.73 0.72-0.81 0.64-0.41-0.41zm-5.87-8.77c0.22-0.35 0.7-0.44 1.08-0.21 0.96 0.6 0.85 0.83-0.39 0.83-0.59 0-0.9-0.28-0.69-0.62zm29.8 87.21c0-3.31 1.19-6.41 2.68-6.98 0.55-0.21 1-0.09 1 0.27s-0.38 0.78-0.84 0.94c-0.47 0.15-0.88 1.75-0.93 3.56-0.05 2.45 0.21 3.29 1.04 3.3 0.6 0.01 1.53 0.29 2.05 0.62 0.52 0.32 2.22 0.38 3.78 0.11 2.82-0.47 2.83-0.48 2.5-3.56-0.24-2.17 0.03-3.53 0.88-4.56 1.17-1.42 1.2-1.37 0.85 1.23-0.47 3.47 0.19 6.32 1.13 4.91 0.42-0.62 0.48-0.25 0.18 1.05-0.43 1.85-0.28 2.03 1.64 2.02 1.83-0.01 5.4-1.43 3.68-1.46-0.36 0-0.26-0.47 0.21-1.04 1.13-1.36 1.53-8.91 1.83-34.01 0.26-22.78-0.17-19.56 7.16-52.93 2.03-9.24 3.46-17.17 3.17-17.64s-0.2-0.64 0.22-0.38c1.66 1.02 1.04-7.97-0.9-13.12-1.05-2.77-1.79-5.74-1.66-6.59 0.38-2.37 2.98 3.11 4.87 10.26 1.73 6.56 1.69 6.95-2.31 21.86-2.25 8.38-3.23 15.85-1.79 13.63 0.5-0.77 2-2.52 3.34-3.89s2.23-2.82 1.97-3.23c-0.25-0.41-0.04-0.66 0.46-0.54 1.51 0.33 5.13-7.56 5.61-12.24 0.24-2.34 0.67-3.9 0.94-3.45 1.31 2.11-1.76 14.13-4 15.69-0.48 0.34-0.5 0.56-0.04 0.57 0.41 0.02 0.05 0.6-0.79 1.3-0.84 0.71-2.64 2.73-4 4.51-2.4 3.11-2.51 3.54-3.1 12.31-0.33 5-1.05 11.43-1.59 14.3-1.05 5.56-0.69 10 1.31 16.16 0.61 1.88 1.31 7.72 1.56 12.98 0.24 5.26 0.59 9.79 0.77 10.08s0.46 2.23 0.64 4.3c0.46 5.52 2.46 9.2 5.17 9.51 2.81 0.32 4.09-1.41 4.09-5.51 0-1.73 0.37-3.37 0.83-3.65 0.59-0.36 0.74 0.97 0.53 4.65l-0.29 5.17 2.75-1.43c2.67-1.4 3.63-3.07 4.56-7.97 0.2-1.01 0.25-0.18 0.12 1.85s-0.35 4.35-0.49 5.16c-0.2 1.14 0.19 1.53 1.72 1.71 1.76 0.2 2.05-0.08 2.48-2.4 0.74-3.93 0.02-5.66-4.83-11.59-6.28-7.69-7.69-12.49-7.63-26.08 0.06-12.94 2.55-26.06 6.63-34.96 1.04-2.27 3.06-7.62 4.5-11.88 2.28-6.78 2.61-8.71 2.68-15.49 0.09-8.13-0.54-15.91-1.78-21.89-0.4-1.96-0.88-4.52-1.07-5.7-0.83-5.25-4.4-13.32-5.57-12.6-0.38 0.24-0.5-0.08-0.26-0.71s0.16-1.15-0.19-1.16-1.86-1.13-3.36-2.48c-2.31-2.08-3.48-2.54-7.66-2.96-2.7-0.28-5.08-0.35-5.26-0.16-0.65 0.64 4.41 5.58 5.24 5.11 0.45-0.26 0.58-0.21 0.3 0.11-0.72 0.79 5.14 9.27 6.26 9.05 0.49-0.09 0.76 0.32 0.58 0.93-0.17 0.61-0.27 2.11-0.21 3.32 0.09 2.13 0.05 2.16-1.01 0.74-0.61-0.81-1.3-2.22-1.53-3.13-0.22-0.92-0.71-1.66-1.07-1.66s-0.66-0.55-0.66-1.21c0-1.72-9.34-10.66-13.67-13.08-2.01-1.13-5.41-2.64-7.54-3.36-4.81-1.62-8.04-4.5-11.57-10.317-1.5-2.472-2.85-4.495-3-4.495s-0.27 0.581-0.26 1.291c0 0.71-0.83 4.113-1.86 7.561-3.34 11.2-3.97 19.03-2.14 26.56 0.39 1.59 0.3 1.71-0.68 0.91-1.67-1.38-3.08-9.07-2.49-13.57 0.28-2.11 1.51-7.84 2.73-12.74 2.13-8.565 2.2-9.322 1.73-19.816-0.27-6-0.72-11.794-1.01-12.875-0.52-1.918-0.56-1.886-1.91 1.321-0.75 1.807-1.43 3.451-1.49 3.654-0.07 0.203-0.31 0.867-0.55 1.475-0.23 0.609-0.63 4.353-0.87 8.321-0.25 3.968-1.15 9.943-2 13.278-0.85 3.332-1.59 6.782-1.64 7.662s-0.23 1.47-0.39 1.31c-0.48-0.49-5.21 10.92-4.8 11.59 0.21 0.34 0.09 0.62-0.26 0.62-1.69 0-6.08 12.99-6.08 17.96 0 4.18 2.24 16.71 2.99 16.71 0.27 0 0.34 0.81 0.15 1.79-1 5.23 6.59 16.94 10.38 16.03 0.33-0.08 0.4 0.19 0.14 0.61-0.26 0.41 0.05 0.75 0.68 0.75 1.16 0 1.53 0.86 0.71 1.68-1.04 1.03-8.21-3.52-11.93-7.58-2.15-2.34-8.61-11.75-9.24-13.46-0.26-0.71-0.83-1.29-1.28-1.29-0.44 0-0.61-0.3-0.39-0.67 0.23-0.37-0.74-3.09-2.16-6.05-1.41-2.96-2.95-7.3-3.41-9.66-0.47-2.35-1.05-4.28-1.3-4.28-0.26 0-0.51-0.83-0.57-1.84-0.06-1.02-0.36-2.43-0.66-3.14-0.31-0.71-0.66-1.77-0.78-2.36-0.43-2.17-2.73-6.62-3.25-6.3-0.3 0.19-0.74 1.31-0.98 2.5-0.23 1.18-1.81 5.39-3.5 9.35-2.79 6.54-3.04 7.62-2.71 11.79 0.64 7.92 3.12 12.04 13.2 21.89 4.89 4.78 9.24 8.47 9.67 8.2 0.48-0.29 0.56-0.12 0.22 0.43s0.15 1.71 1.21 2.88c0.98 1.09 3.23 3.9 5 6.26 3.83 5.09 5.29 5.93 13.81 7.92 3.58 0.83 7.24 1.99 8.13 2.58 2.05 1.34 2.69 1.36 2.19 0.05-0.21-0.55-0.08-1.32 0.29-1.69 1.72-1.71-1.48-31.11-3.55-32.65-0.31-0.23-0.62-0.75-0.69-1.15-0.07-0.41-0.36-1.32-0.63-2.03-0.79-2.02 0.87-1.52 2.43 0.74 1.59 2.28 2.48 4.28 2.89 6.45 1.34 7.2 1.82 11.95 2.19 22.13 0.38 10.12 0.21 13.11-1.16 20.96-2.34 13.42-4.2 43.17-2.64 42.29 0.41-0.23 0.47-0.12 0.12 0.26-0.33 0.37-0.83 0.67-1.1 0.68-1.1 0.02-4.47 3.58-4.04 4.27 0.27 0.44 0.08 0.51-0.47 0.17-0.58-0.36-1.71 0.3-3.06 1.78-1.68 1.83-2.15 3.04-2.15 5.55 0 3.4 0.51 3.92 3.88 4.02 1.88 0.05 2.03-0.15 2.03-2.86zm-26.88-91.45c-0.69-0.76-0.94-1.57-0.56-1.81 0.37-0.23 1.25 0.2 1.94 0.96 0.68 0.76 0.94 1.58 0.56 1.81-0.38 0.24-1.25-0.2-1.94-0.96zm1.79 0.41c0-0.16-0.58-0.74-1.29-1.3-1.17-0.91-1.19-0.89-0.27 0.28 0.96 1.23 1.56 1.62 1.56 1.02zm-7.01-5.64c-0.26-0.41-0.81-0.54-1.22-0.28-0.47 0.29-0.44-0.14 0.07-1.09 0.46-0.86 1.01-1.57 1.23-1.57 0.21 0 0.17 0.35-0.09 0.77s-0.08 1.25 0.41 1.85c0.49 0.59 0.71 1.07 0.48 1.07s-0.63-0.34-0.88-0.75zm13.31-4.58c-1.71-5.69-3.52-19.84-3.14-24.55 0.25-3.11 1.8-8.05 5.21-16.68 9.92-25.014 11.7-36.281 7.55-47.77-1.35-3.738-1.35-3.78-0.57-3.78 0.32 0 1.36 1.577 2.29 3.504l1.7 3.504 2.27-4.426c2.6-5.069 3.12-11.069 1.26-14.722-1.52-3.005-6.5-6.326-10.24-6.826l-3.11-0.417 1.64 2.767c1.59 2.705 1.6 2.879 0.46 7.663-1.22 5.123-0.99 8.616 0.68 10.283 1.56 1.562 1.15 6.772-0.88 11.132-2.02 4.326-6.94 11.433-7.53 10.852-0.2-0.199 0.38-1.392 1.27-2.652 2.16-3.035 2.77-7.486 1.2-8.789-2.92-2.427-9.25 1.479-11.29 6.977-5.49 14.75-6.13 16.85-6.1 20.05 0.01 1.94 0.5 4.35 1.08 5.36 1.25 2.19 1.39 3.22 0.35 2.58-1.57-0.98-3.67-6.35-3.66-9.37 0.01-7.005 5.53-21.749 9.69-25.939l2.84-2.853 5.5 0.516c5.4 0.506 5.51 0.481 5.95-1.273 0.76-3.029-0.62-6.706-2.94-7.83-2.69-1.303-8.06-0.199-14.38 2.958-5.98 2.991-7.66 5.199-7.2 9.491 0.29 2.7 0.2 3.062-0.48 1.939-4.94-8.146-6.46-10.044-8.37-10.488-3.15-0.732-5.38-2.392-5.38-4.008 0-1.678-0.27-1.757-2.32-0.662-2.05 1.097-3.58 5.096-3.58 9.363 0 2.682 0.54 4.418 2.18 6.996 2.23 3.525 7.97 8.316 10.92 9.112 0.91 0.247 1.66 0.751 1.66 1.12 0 1.384-7.05-1.222-9.78-3.617-1.21-1.064-1.29-0.825-1.29 4.031 0 7.474 1.77 10.414 10.01 16.674 10.09 7.66 9.56 6.82 12.5 19.71 3.66 16.02 5.08 19.9 10.11 27.41 2.43 3.63 4.54 6.49 4.68 6.34 0.15-0.14-0.19-1.8-0.76-3.68zm62.91-52.4c-0.24-2.84-2.05-7.7-6.83-18.254-8.43-18.655-9.99-22.871-10.51-28.475l-0.43-4.632-4.5 3.053c-4.7 3.195-14.86 7.163-18.37 7.18-1.24 0.006-2.24 0.504-2.53 1.254-0.75 1.951 1.06 14.312 2.97 20.277 1.85 5.776 7.32 14.337 10.69 16.737 2.93 2.08 8.8 3.62 18.84 4.93 4.91 0.64 9.08 1.31 9.25 1.49 1.16 1.16 1.7-0.18 1.42-3.56zm-113.45-27.53c2.07-0.279 4.44-0.052 6.33 0.607l3.04 1.052-0.25-3.013c-1.21-14.914-0.66-22.061 1.86-24.339 1.2-1.09 1.83-1.083 7.83 0.083 5.16 1.004 6.59 1.073 6.83 0.332 0.41-1.22 7.27-4.238 11.1-4.886 3.23-0.546 3.13-0.329 3.99-8.505 0.17-1.645 0.58-1.868 3.71-2.069 2.47-0.158 3.87 0.124 4.69 0.947 0.97 0.97 1.38 1.009 2.39 0.226 1.06-0.835 1.09-0.801 0.25 0.277-1.11 1.42 0.2 2.781 1.46 1.519 1.15-1.145-0.44-3.455-4.04-5.884-3.87-2.615-5.83-3.183-7.25-2.106-1.72 1.31-4.48 6.253-3.96 7.095 0.26 0.423 0.08 0.678-0.41 0.567-0.49-0.112-1.06 0.265-1.26 0.837-0.27 0.73-0.01 0.897 0.86 0.561 0.78-0.299 1.07-0.186 0.77 0.302-0.27 0.429-0.96 0.596-1.54 0.372-0.59-0.224-1.63-0.108-2.33 0.258-9.19 4.845-12.13 5.391-17.94 3.339-4.21-1.486-6.05-0.537-8.59 4.433-1.42 2.776-1.98 5.198-2.23 9.612-0.36 6.461-1.53 8.764-6.74 13.366-2.4 2.108-2.52 2.418-1.52 3.689 1 1.278 0.99 1.308-0.2 0.375-1.03-0.809-1.51-0.829-2.39-0.101-0.6 0.501-0.92 1.202-0.7 1.557s-0.03 0.482-0.56 0.282-2.12 0.646-3.54 1.879l-2.58 2.242 4.81-2.23c2.64-1.227 6.3-2.431 8.11-2.676zm1.43-3.139c0.49-0.948 1.09-1.521 1.34-1.274 0.24 0.248-0.15 1.023-0.89 1.723-1.27 1.218-1.29 1.198-0.45-0.449zm3.18-5.593c0.09-0.778 0.67-1.55 1.28-1.716 0.71-0.194 0.81-0.084 0.29 0.308-0.45 0.335-1.02 1.107-1.28 1.716-0.32 0.777-0.41 0.686-0.29-0.308zm1.28-9.738c0-0.405 0.48-1.382 1.08-2.169 0.59-0.788 1.08-1.1 1.08-0.694 0 0.405-0.49 1.382-1.08 2.169-0.6 0.788-1.08 1.1-1.08 0.694zm26.55-12.676c0-0.464-0.57-0.652-1.29-0.422-1.08 0.347-1.11 0.288-0.19-0.361 1.15-0.815 2.92 0.18 1.99 1.117-0.28 0.277-0.51 0.127-0.51-0.334zm4.43-3.018c0-0.362 0.54-0.868 1.21-1.123 1.01-0.389 1.06-0.281 0.28 0.659-1.06 1.28-1.49 1.413-1.49 0.464zm6.82-8.193c0.35-1.27 3.51-1.982 3.51-0.789 0 0.434 0.55 0.789 1.23 0.789 0.67 0 1 0.222 0.73 0.493s-1.34 0.037-2.38-0.519c-1.62-0.867-2-0.859-2.64 0.06-0.64 0.927-0.7 0.923-0.45-0.034zm-1.66-1.765c0-0.16 0.52-0.488 1.15-0.73 0.65-0.251 0.95-0.128 0.69 0.29-0.43 0.701-1.84 1.037-1.84 0.44zm-5.16 33.367c2.23-1.038 5.8-2.329 7.93-2.869 2.2-0.558 3.87-1.397 3.87-1.948 0-1.166-0.29-1.178-4.06-0.167-4.97 1.336-12.91 5.255-12.91 6.379 0 0.582 0.25 0.931 0.56 0.776 0.3-0.156 2.38-1.133 4.61-2.171zm-8.94-0.6c8.67-1.714 11.81-5.116 5.5-5.961-1.68-0.225-4.42-1.024-6.09-1.775-2.44-1.104-3.38-1.205-4.87-0.529-3.38 1.544-6.3 8.614-3.55 8.614 0.47 0 1.1 0.243 1.4 0.54s1.24 0.395 2.09 0.218 3.34-0.675 5.52-1.107zm-16.14-3.708c0-0.812-0.33-1.476-0.74-1.476s-0.74 0.664-0.74 1.476c0 0.811 0.33 1.475 0.74 1.475s0.74-0.664 0.74-1.475zm6.16-3.294c1.66-1.264 0.99-2.608-1.31-2.608-1.41 0-1.64 0.309-1.34 1.845 0.4 2.105 0.74 2.204 2.65 0.763zm30.41-0.76c8.96-4.237 9.17-11.476 0.33-11.414-3.6 0.025-5.92 1.27-5.92 3.173 0 0.655-0.71 2.658-1.58 4.451-2.82 5.799-0.11 7.233 7.17 3.79zm23.19-16.97c0.79-1.623 2.32-4.036 3.4-5.363l1.97-2.413-3.98 1.852c-2.19 1.019-4.56 1.856-5.27 1.86s-1.29 0.262-1.29 0.575c0 0.312-2.49 0.441-5.54 0.288-3.88-0.197-5.53-0.023-5.53 0.582 0 0.474 0.3 0.676 0.67 0.449 0.37-0.228 0.48 0.303 0.25 1.178-0.27 1.02-0.13 1.417 0.37 1.106 0.49-0.299 0.65 0.039 0.43 0.888-0.28 1.04 0.14 1.476 1.73 1.803 2.91 0.602 8.26 4.24 8.86 6.03 0.39 1.176 0.71 0.712 1.5-2.196 0.54-2.028 1.64-5.016 2.43-6.639zm-3.45-2.069c0-0.553 0.45-1.004 1-1.004 1.12 0 0.93 1.365-0.25 1.757-0.41 0.138-0.75-0.201-0.75-0.753zm-16.13 3.95c0.49-0.79-1.86-2.25-3.62-2.25-0.66 0-1.15 0.629-1.15 1.476 0 1.141 0.49 1.475 2.17 1.475 1.19 0 2.36-0.315 2.6-0.701zm3.02-2.766c-0.35-0.893-0.68-0.991-1.3-0.376-0.61 0.615-0.56 1.146 0.19 2.048 1.14 1.379 1.86 0.293 1.11-1.672z"></path><path id="path1933" style="fill:#000000" inkscape:connector-curvature="0" d="m278.01 264.16c-1.87-1.39-2.01-1.87-2.01-6.79 0-5.93-1.11-9.67-5.86-19.69l-3.08-6.52 0.43-6.6c0.49-7.68 2.06-13.47 6.34-23.48 6.29-14.71 7.28-17.81 7.28-22.91 0-5.99-1.99-13.9-5.34-21.23-5.07-11.1-5.18-16.91-0.52-27.88 1.54-3.63 3.02-8.08 3.28-9.88l0.46-3.29-5.8-5.27c-4.04-3.67-6.31-6.38-7.46-8.93-0.91-2.01-2-3.655-2.43-3.655-0.43 0.001-2.75 0.932-5.16 2.065-8.77 4.15-11.56 4.74-19.99 4.23-4.24-0.26-8.56-0.66-9.59-0.89-1.83-0.41-1.87-0.55-1.31-4.076 0.92-5.815 4.33-10.231 14.1-18.248 11.35-9.313 14.22-12.854 14.23-17.548 0.01-3.969 2.35-11.509 4.49-14.526 1.89-2.653 3.99-3.108 7.96-1.726 4.7 1.638 7.74 1.344 13.08-1.269 4.17-2.044 5-2.81 6.92-6.414 1.2-2.251 2.67-4.663 3.25-5.36 1.74-2.069 5.84-0.999 12.02 3.133 5.08 3.4 5.73 3.643 8.96 3.317 4.5-0.456 6.64-1.114 18.05-5.559 7.2-2.803 10.72-3.772 14.64-4.03l5.15-0.34 0.87-3.227c0.47-1.775 2.02-5.663 3.43-8.641s3.1-7.555 3.74-10.172c0.75-3.0445 1.55-4.7571 2.2-4.7571 3.67 0 10.61 6.9681 14.35 14.41 3.54 7.025 4.61 16.808 3.45 31.76-1.19 15.492-1 27.99 0.6 39.529 2.97 21.324 2.56 32.084-1.62 42.544-1.52 3.8-1.56 4.35-0.64 8.44 0.56 2.51 1 9.02 1.03 15.31 0.04 9.56-0.19 11.82-1.84 18.03-1.05 3.91-3.04 9.65-4.44 12.76-1.39 3.11-3.04 7.63-3.65 10.03-1.71 6.71-2.83 19.68-2.53 29.26 0.25 7.88 0.48 9.08 2.56 13.5 1.26 2.67 3.68 6.2 5.38 7.85 2.93 2.85 3.09 3.22 3.17 7.42 0.11 6.39-1.09 7.21-10.54 7.21-8 0-10.44-0.75-11.54-3.55-1.24-3.19-2.31-10.18-3-19.77-0.37-5.01-1.4-12.35-2.29-16.31-1.52-6.78-1.56-7.61-0.64-14.22 1.35-9.69 1.81-20.5 0.87-20.5-1.7 0-4.49 20.9-4.49 33.6 0 17.93-2.07 39.81-3.95 41.68-0.64 0.64-4.38 0.89-13.01 0.87-10.78-0.03-12.28-0.18-13.61-1.39-3.24-2.93-1.38-8.22 4.52-12.88 2.1-1.65 4.13-3.7 4.51-4.56 0.4-0.87 0.63-7.85 0.53-15.86-0.14-11.43 0.12-16.23 1.3-23.83 0.82-5.23 1.48-9.99 1.48-10.57 0-0.66-1.81-1.6-4.92-2.55-9.54-2.91-15.64-4.6-15.84-4.37-0.11 0.12-0.9 1.61-1.75 3.3-0.86 1.7-4.68 7.11-8.5 12.03-7.06 9.1-11.57 16.87-12.42 21.41-0.68 3.61 0.79 6.46 5.34 10.37 4.28 3.68 6.75 7.64 6.75 10.82 0 2.41-2.77 14.55-3.83 16.8-1.54 3.26-9.58 4.23-13.12 1.59zm7.47 0.07c0.68-0.02 0.2-0.78-1.27-2.01-1.44-1.21-2.55-2.96-2.85-4.47-0.35-1.79-0.25-2.34 0.36-1.96 0.47 0.28 0.84 0.95 0.84 1.47 0 2.03 3 4.79 5.2 4.79 1.76 0 2.36-0.44 3.17-2.39 1.7-4.06 3.18-13.3 2.37-14.83-1.09-2.09-9.48-10.48-10.48-10.48-1.38 0-2.64-4.89-2.13-8.29 0.71-4.7 4.53-11.6 12.19-21.99 7.26-9.85 10.82-15.47 10.82-17.09 0-2.12-22.25-26.23-24.23-26.25-0.95-0.01-0.61 1.87 0.98 5.46 2.16 4.88 2.63 13.28 1.08 19.31-0.67 2.61-3.35 9.75-5.96 15.87-8.4 19.72-9.46 27.88-4.58 35.3 3.86 5.86 5.74 10.22 6.25 14.48l0.45 3.85 1.35-1.66c1.74-2.14 1.7-1.41-0.12 2.14-0.79 1.57-1.38 3.72-1.29 4.79 0.2 2.4 3.24 4.94 5.27 4.39 0.82-0.22 1.98-0.41 2.58-0.43zm35.55-5.12c-0.06-2.66 0.28-4.02 1.22-4.92 1.24-1.19 1.27-1.17 0.49 0.34-0.44 0.88-0.81 2.75-0.81 4.15 0 2.47 0.11 2.57 3.27 3.05 1.8 0.27 4.1 0.28 5.1 0.03 1.65-0.42 1.83-0.83 1.83-4.05 0-1.97 0.31-3.78 0.69-4.01 0.41-0.25 0.52 0.61 0.27 2.13-0.61 3.74 0.93 6.96 3.33 6.94 2.79-0.01 3.76-0.89 4.5-4.07 0.36-1.56 0.85-13.67 1.09-26.9 0.5-27.12 0.4-26.36 7.33-57.83 5.11-23.18 5.1-23.05 1.97-31.38-0.95-2.56-1.61-5.02-1.46-5.47 0.44-1.28 3.08 4.52 4.52 9.92 1.57 5.91 1.29 8.94-1.79 19.88-1.25 4.41-2.44 9.99-2.65 12.4l-0.39 4.37 3.7-4.01c2.04-2.2 4.85-6.27 6.25-9.03 1.39-2.76 2.53-4.39 2.53-3.61 0 2.09-2.12 5.86-6.81 12.1l-4.21 5.59-0.33 7.48c-0.18 4.11-0.84 10.69-1.47 14.61-1.09 6.88-1.07 7.34 0.42 13.14 0.85 3.31 1.86 10.27 2.23 15.49 1.19 16.51 2.91 24.42 5.34 24.42 0.59 0 1.55 0.18 2.13 0.4 1.72 0.67 3.43-1.72 3.43-4.79 0-1.55 0.37-3.04 0.81-3.32 0.59-0.36 0.67 0.76 0.3 3.97-0.32 2.7-0.25 4.47 0.17 4.47 0.38 0 1.81-0.75 3.17-1.67 1.78-1.19 2.74-2.58 3.39-4.92l0.91-3.25-0.32 2.91c-0.19 1.6-0.54 3.61-0.8 4.46-0.36 1.22-0.1 1.61 1.27 1.87 2.97 0.57 3.49-0.04 3.49-4.04 0-4.13-0.78-5.69-5.17-10.31-5.74-6.03-7.61-13.78-7-29 0.48-12.15 2.71-22.87 6.59-31.69 6.41-14.59 7.99-24.1 6.4-38.66-1.88-17.22-4.44-25.13-9.88-30.47-3.96-3.88-6.03-4.65-12.63-4.67h-3.1l4.76 5.65c4.58 5.45 6.99 9.47 7.97 13.3 0.26 1-0.77-0.47-2.3-3.27-4.94-9.08-14.07-16.41-24.15-19.39-3.46-1.02-7.6-5.24-10.5-10.691-0.91-1.704-1.85-3.098-2.09-3.098s-1.55 4.182-2.92 9.299c-2.13 7.99-2.47 10.43-2.45 17.48 0.02 6.92-0.12 7.94-0.88 6.56-1.54-2.76-1.14-12.54 0.83-20.71 3.39-13.974 3.59-19.005 1.37-34.433l-0.36-2.487-1.88 3.157c-1.58 2.642-2.03 4.72-2.79 12.761-1.03 11.017-2.62 17.392-6.88 27.692-9.77 23.57-9.44 21.48-6.24 39 1.72 9.42 2.39 11.55 4.68 14.93 1.79 2.63 5.31 5.6 7.61 6.42 0.48 0.18 0.7 0.51 0.48 0.75-0.74 0.82-7.62-2.96-9.89-5.43-8.13-8.83-15.15-22.07-18.14-34.23-2.14-8.68-4.91-15.97-6.07-15.97-0.37 0-0.87 0.98-1.11 2.17-0.24 1.2-1.79 5.36-3.45 9.25-2.75 6.46-2.99 7.51-2.75 12.22 0.41 7.99 2.7 11.88 12.78 21.71 4.64 4.53 10.72 11.18 13.52 14.79s5.96 7.12 7.04 7.8c1.07 0.69 4.82 1.92 8.34 2.74 3.53 0.82 7.35 1.98 8.51 2.58 3.92 2.02 3.9 2.07 3.43-10.75-0.45-12.13-2.14-21.43-4.55-25.11-0.94-1.43-0.95-1.68-0.06-1.68 1.67 0 4.1 5.96 5.27 12.91 1.54 9.15 1.56 30.19 0.03 38.11-1.6 8.38-2.66 20.5-2.66 30.49 0 8.96-0.44 10.43-3.94 13.25-4.41 3.57-6.15 5.87-6.64 8.79-0.63 3.74 0.43 5.06 4.06 5.06h2.79l-0.09-3.67zm41.16-96.2c0-1.4 0.15-1.97 0.34-1.27 0.18 0.7 0.18 1.85 0 2.55-0.19 0.7-0.34 0.13-0.34-1.28zm-59.94-2.73c-1.91-6.14-3.89-20.95-3.38-25.28 0.24-2.03 2.74-9.51 5.56-16.62 7.12-17.94 9.04-25.274 9-34.46-0.03-5.722-0.37-8.119-1.6-11.144-1.85-4.554-1.91-4.992-0.51-3.831 0.58 0.482 1.43 1.998 1.88 3.369 0.45 1.372 1.1 2.494 1.44 2.494 0.92 0 4.36-7.379 4.85-10.408 0.65-4.005-0.31-7.576-2.81-10.418-2.52-2.879-5.22-4.211-10.06-4.962l-3.28-0.509 2.01 1.879c1.1 1.033 1.96 2.439 1.92 3.125-0.08 1.131-0.12 1.135-0.41 0.034-0.37-1.396-4.46-3.527-6.76-3.527-2.39 0-5.87 2.07-5.87 3.493 0 0.697-0.66 2.491-1.46 3.988-1.87 3.482-1.89 6.086-0.07 6.562 2.61 0.684 9.02-2.12 11.91-5.213 3.02-3.246 3.12-3.101 1.89 2.873-0.79 3.81-0.73 4.387 0.8 7.316 1.21 2.316 1.55 3.94 1.28 5.978-0.44 3.246-3.46 9.535-6.06 12.606-1.53 1.8-1.68 1.859-0.96 0.385 2.69-5.532 2.07-8.831-1.66-8.824-1.31 0.003-3.36 0.641-4.54 1.419-2.17 1.434-5.5 6.194-5.5 7.887 0 0.509-1.19 3.954-2.65 7.654-3.05 7.764-3.52 12.944-1.48 16.274l1.3 2.12-1.84-2.01c-3.64-3.99-3.18-10.76 1.57-22.767 4.42-11.161 5.7-12.287 14.03-12.357l5.47-0.047 0.22-3.09c0.18-2.538-0.12-3.433-1.7-5.015-1.73-1.729-2.3-1.88-5.61-1.489-4.36 0.517-12.51 4.16-15.33 6.858-1.61 1.542-2 2.564-2 5.242l-0.01 3.326-1.44-2.916c-2.16-4.362-5.74-8.374-7.54-8.454-0.87-0.039 1.48-0.704 5.22-1.479 7.31-1.516 10.33-2.973 10.33-4.993 0-0.986-0.84-1.372-3.7-1.711-2.03-0.24-4.81-1.125-6.17-1.965-2.86-1.768-4.15-1.365-7.19 2.239-1.94 2.313-2.62 6.522-1.05 6.522 0.47 0 0.64 0.21 0.39 0.468-0.75 0.745-2.69-1.24-2.69-2.744 0-3.611-4.49 0.27-5.8 5.016-1.76 6.372 2.42 13.745 10.52 18.545 3.58 2.122 3.6 2.161 1.12 1.726-1.4-0.245-3.74-1.239-5.21-2.209-3.05-2.022-3.55-1.809-3.55 1.517 0 7.597 3.13 13.167 10.09 17.937 1.87 1.28 4.93 3.76 6.82 5.52 3.32 3.1 3.47 3.43 5.36 11.69 4.49 19.71 5.87 23.35 12 31.65 2 2.71 3.76 4.92 3.92 4.92s-0.29-1.88-1.01-4.19zm75.96-34.81c1.39-5.36 1.02-20.56-0.88-35.718-1.31-10.486-1.54-15.025-1.17-22.599 1.69-34.508 1.4-40.165-2.43-48.275-2.09-4.411-6.44-9.1394-10.38-11.289-2.9-1.5822-3.51-1.1734-3.51 2.3539 0 2.0301-1.15 5.0411-4.01 10.524-2.21 4.223-4.01 8.324-4.01 9.111 0 1.046 0.81 1.675 2.99 2.33l3 0.897-0.33 3.437c-0.34 3.49-4.32 12.767-7.26 16.886-1.31 1.85-1.58 3.129-1.46 7.049 0.23 7.652 2.31 13.684 10.69 31.033 4.3 8.9 5.62 12.84 6.57 19.58 0.24 1.75 1.35 3.93 2.95 5.8 2.5 2.91 4.28 7.43 5.21 13.17l0.45 2.82 1.32-1.73c0.72-0.95 1.74-3.37 2.26-5.38zm-13.56-16.48c-0.68-4.22-2.48-8.87-8.34-21.561-6.36-13.745-8.84-20.539-9.47-25.892l-0.49-4.158-5.06 3.259c-5.02 3.233-14.78 6.88-18.41 6.88h-1.9l0.44 6.014c0.42 5.882 1.97 13.816 3.48 17.845 1.66 4.434 8 13.073 10.7 14.583 3.6 2.01 9.84 3.52 18.73 4.53 3.99 0.45 7.41 0.97 7.6 1.15 0.18 0.19 0.98 0.35 1.77 0.35 1.26 0 1.37-0.35 0.95-3zm-120.29-25.498c2.75-1.352 4.76-1.759 8.68-1.759 2.81 0 5.76 0.242 6.56 0.539 1.43 0.527 1.45 0.281 1.22-11.453l-0.25-11.991 1.85-1.851c2.12-2.115 3.49-2.232 9.51-0.815l4.31 1.013 3.4-2.338c1.87-1.286 5.26-2.755 7.53-3.264 4.49-1.004 4.37-0.827 5.24-7.565 0.42-3.253 0.58-3.462 2.62-3.462 2.81 0 6.49 1.582 8.25 3.548 1.47 1.652 1.11 3.001-0.47 1.764-0.51-0.4-1.67-0.909-2.57-1.129-1.36-0.333-1.64-0.1-1.64 1.352 0 1.513 0.35 1.754 2.51 1.754 1.38 0 2.69-0.297 2.92-0.66 0.22-0.363 1.07-0.487 1.88-0.275 1.34 0.35 1.4 0.201 0.7-1.637-1.46-3.849-3.07-5.907-6.08-7.778-6.16-3.831-7.06-3.598-10.64 2.748-1.99 3.518-2.85 4.259-8.04 6.866-6.29 3.162-8.83 3.523-12.88 1.83-4.9-2.046-7.22-1.004-9.99 4.486-1.05 2.074-2.92 11.441-2.61 13.077 0.56 2.969-3.31 7.273-16.27 18.082-4.71 3.931-8.56 7.288-8.56 7.459s2.08-1.285 4.62-3.235c2.55-1.951 6.24-4.338 8.2-5.306zm51.1-15.626c4.2-1.212 5.1-1.72 4.57-2.57-0.56-0.9-1.56-0.75-6.69 1.008-7.19 2.461-10.85 4.553-10.33 5.911 0.29 0.751 1.17 0.536 3.79-0.93 1.88-1.05 5.78-2.588 8.66-3.419zm-31.85-1.763c0-0.778-0.33-1.618-0.73-1.866-0.41-0.255-0.73 0.357-0.73 1.415 0 1.026 0.33 1.866 0.73 1.866s0.73-0.637 0.73-1.415zm6.85-3.604c1.19-1.313 1.14-1.41-1.1-2.19-1.29-0.449-2.42-0.733-2.52-0.631s-0.01 1.088 0.2 2.19c0.45 2.339 1.67 2.564 3.42 0.631zm50-10.411c0.02-2.081 2.61-7.379 5.37-10.996 1.46-1.904 2.36-3.462 2.01-3.462s-2.56 0.882-4.91 1.961c-3.21 1.469-5.8 2.041-10.31 2.279-5.13 0.271-5.99 0.496-5.71 1.502 0.18 0.651 0.52 1.871 0.76 2.712 0.28 0.985 1.46 1.836 3.32 2.392 1.58 0.474 4.12 2.083 5.63 3.574 2.7 2.65 3.82 2.661 3.84 0.038z"></path><g id="g7811"><g id="g7807" transform="translate(-11.571,5.1425)"><path id="path5560" inkscape:connector-curvature="0" sodipodi:nodetypes="cssssccsscccc" style="stroke:#000000;stroke-width:.16304;fill:#000000" d="m674.62 844.72c2.56 0.99 10.68-2.28 19.08-7.69 5.82-3.75 8.27-4.9 12.2-5.75 17.94-3.85 20.99-5.28 26.05-12.15 2.76-3.74 6.13-10.72 8.06-16.67 1.42-4.38 1.33-5.16-0.54-4.53-8.12 14.53-14.83 21.86-22.15 22.68-27.08 8.69-30.19 4.63-32.48 4.26-0.86-0.14-2.36 2.62-3.67 5.22-2.04 4.04-4.8 7.38-8.02 9.72l-1.58 1.15 0.65 1.54c0.36 0.85 1.44 1.85 2.4 2.22z"></path><path id="path6834" inkscape:connector-curvature="0" sodipodi:nodetypes="cssssccsscccc" style="stroke:#000000;stroke-width:.14740;fill:#c26c3e" d="m679.87 842.1c2.31 0.89 9.98-4.1 17.58-8.99 5.25-3.38 8.65-3.36 12.21-4.12 16.21-3.49 16.72-4.13 21.3-10.34 2.48-3.38 6.29-9.38 8.03-14.76 1.28-3.95 1.2-4.66-0.49-4.09-7.34 13.14-13.19 20.19-19.8 20.93-24.49 7.85-27.73 6.23-29.81 5.89-0.77-0.12-1.91-0.09-3.09 2.25-1.85 3.66-4.34 6.68-7.25 8.79l-1.44 1.04 0.59 1.39c0.33 0.77 1.3 1.67 2.17 2.01z"></path></g><g id="g5569" transform="matrix(.27433 0 0 .27433 440.17 692.56)"><path id="path5543" inkscape:connector-curvature="0" sodipodi:nodetypes="cscccsssscccssssssssssssssssccssssssssssssssssssssssssssssssssssssssssc" style="stroke:#000000;fill:#000000" d="m392.68 1276.1c-9.65-7.2-10.37-9.6-10.37-35.1 0-30.6-5.74-49.9-30.28-101.7l-15.96-33.7 2.21-34.2c2.57-39.6 10.66-69.6 32.78-121.31 32.53-76.05 37.63-92.1 37.63-118.43 0-30.97-10.28-71.87-27.58-109.75-26.23-57.41-26.78-87.4-2.69-144.13 7.98-18.77 15.6-41.77 16.93-51.09l2.42-16.96-30-27.27c-20.91-18.99-32.6-33-38.55-46.16-4.7-10.39-10.36-18.89-12.58-18.89s-14.21 4.82-26.65 10.7c-45.36 21.45-59.8 24.5-103.36 21.85-21.91-1.34-44.22-3.41-49.58-4.62-9.42-2.12-9.65-2.83-6.77-21.06 4.75-30.06 22.39-52.89 72.89-94.33 58.66-48.14 73.51-66.45 73.58-90.71 0.06-20.51 12.11-59.49 23.22-75.09 9.76-13.71 20.6-16.06 41.12-8.92 24.32 8.47 40.03 6.95 67.6-6.56 21.57-10.56 25.85-14.52 35.8-33.15 6.22-11.64 13.78-24.109 16.8-27.714 8.97-10.691 30.16-5.163 62.1 16.194 26.28 17.58 29.67 18.83 46.32 17.15 23.28-2.36 34.34-5.76 93.34-28.735 37.21-14.491 55.39-19.499 75.65-20.835l26.66-1.757c15.12-4.06 5.96 11.611 4.51 23.34-1.45 11.727-7.34 38.557-12.17 47.707-9.66 18.31-21.43 34.28-38.27 46.32s-38.75 14.41-54.35 25.58c-15.59 11.18-28.45 29.01-34.37 44.72-11.83 31.42-15.22 103 15.04 146.6 55.29 79.64 80.05 58.93 163.37 77.28 42.55 9.38 60.45 28.83 83.55 89.19 7.57 19.76 4.28 46.16 9.01 67.29 2.91 13 5.17 46.63 5.32 79.13 0.23 49.43-0.96 61.14-9.51 93.24-5.38 20.19-15.69 49.87-22.91 65.94-7.22 16.08-15.72 39.41-18.88 51.85-8.83 34.68-14.63 101.69-13.08 151.29 1.28 40.7 2.45 46.9 13.24 69.7 6.51 13.8 19.02 32.1 27.8 40.6 15.16 14.7 15.98 16.7 16.37 38.4 0.6 33-5.63 37.3-54.46 37.3-41.38 0-53.96-3.9-59.64-18.4-6.44-16.5-11.94-52.6-15.55-102.2-1.89-25.9-7.2-63.9-11.81-84.3-7.88-35.1-8.08-39.4-3.31-73.51 6.98-50.09 9.36-105.99 4.51-105.99-8.78 0-23.24 108.06-23.24 173.7 0 92.7-10.71 205.8-20.41 215.5-3.29 3.3-22.62 4.5-67.23 4.4-55.72-0.1-63.47-0.9-70.39-7.1-16.74-15.2-7.13-42.5 23.4-66.6 10.83-8.6 21.33-19.2 23.32-23.6 2.03-4.5 3.23-40.6 2.72-82-0.73-59.1 0.63-83.9 6.74-123.15 4.2-27.06 7.64-51.64 7.64-54.62 0-3.43-9.39-8.3-25.43-13.2-49.31-15.05-80.89-23.77-81.9-22.61-0.56 0.64-4.63 8.33-9.05 17.09s-24.18 36.74-43.92 62.18c-36.5 47.01-59.82 87.21-64.22 110.61-3.5 18.7 4.07 33.4 27.62 53.7 22.12 19 34.87 39.4 34.87 55.9 0 12.5-14.29 75.2-19.78 86.8-7.95 16.9-49.5 21.9-67.83 8.2z"></path><path id="path5541" style="stroke:#000000;fill:#000000" inkscape:connector-curvature="0" d="m431.3 1276.5c3.51-0.1 1.02-4-6.56-10.4-7.43-6.2-13.2-15.3-14.72-23.1-1.8-9.2-1.29-12.1 1.85-10.1 2.4 1.5 4.36 4.9 4.36 7.6 0 10.5 15.46 24.8 26.84 24.8 9.13 0 12.19-2.3 16.39-12.4 8.78-21 16.43-68.8 12.28-76.7-5.66-10.8-49.04-54.1-54.17-54.1-7.16 0-13.67-25.3-11.03-42.9 3.65-24.3 23.41-60 63.02-113.68 37.54-50.92 55.95-79.96 55.95-88.31 0-10.98-115.05-135.59-125.3-135.7-4.87-0.05-3.11 9.66 5.1 28.23 11.15 25.21 13.58 68.63 5.58 99.82-3.45 13.45-17.31 50.36-30.81 82.01-43.45 101.93-48.92 144.13-23.68 182.43 19.95 30.3 29.68 52.9 32.29 74.9l2.36 19.9 6.93-8.6c9-11.1 8.8-7.3-0.57 11.1-4.13 8.1-7.13 19.2-6.68 24.7 1.03 12.5 16.74 25.6 27.24 22.7 4.22-1.1 10.22-2.1 13.33-2.2z"></path><path id="path5539" style="stroke:#000000;fill:#000000" inkscape:connector-curvature="0" d="m615.09 1250c-0.32-13.7 1.42-20.7 6.3-25.4 6.41-6.1 6.53-6 2.53 1.8-2.31 4.5-4.21 14.2-4.21 21.4 0 12.8 0.58 13.3 16.91 15.8 9.3 1.4 21.17 1.4 26.38 0.1 8.51-2.1 9.47-4.2 9.47-20.9 0-10.2 1.59-19.5 3.54-20.7 2.11-1.3 2.68 3.2 1.41 11-3.15 19.3 4.8 35.9 17.17 35.9 14.47-0.1 19.47-4.6 23.27-21.1 1.87-8.1 4.42-70.6 5.66-139 2.56-140.22 2.06-136.31 37.89-298.94 26.39-119.84 26.35-119.16 10.21-162.23-4.96-13.23-8.37-25.94-7.57-28.27 2.26-6.63 15.92 23.38 23.34 51.28 8.11 30.53 6.7 46.21-9.26 102.77-6.43 22.8-12.6 51.62-13.7 64.06l-2 22.61 19.15-20.73c10.54-11.4 25.06-32.4 32.28-46.66 7.21-14.27 13.11-22.69 13.11-18.7 0 10.85-10.96 30.32-35.22 62.55l-21.78 28.93-1.7 38.66c-0.94 21.26-4.34 55.25-7.57 75.52-5.65 35.55-5.57 37.95 2.15 67.95 4.41 17.1 9.6 53.1 11.53 80 6.13 85.4 15.07 126.3 27.59 126.3 3.05 0 8 0.9 11.02 2.1 8.92 3.4 17.75-8.9 17.75-24.8 0-8 1.88-15.7 4.19-17.2 3.01-1.8 3.44 3.9 1.52 20.5-1.63 14-1.27 23.1 0.9 23.1 1.97 0 9.34-3.8 16.38-8.6 9.18-6.1 14.14-13.3 17.53-25.4l4.72-16.8-1.7 15c-0.94 8.3-2.78 18.7-4.09 23.1-1.89 6.3-0.53 8.3 6.54 9.7 15.35 2.9 18.07-0.2 18.07-20.9 0-21.4-4.04-29.4-26.76-53.3-29.67-31.2-39.34-71.2-36.2-149.9 2.51-62.87 14.03-118.28 34.07-163.85 33.17-75.45 41.31-124.61 33.11-199.87-9.7-89.01-22.96-129.86-51.1-157.48-20.45-20.08-31.15-24.03-65.24-24.12l-16.03-0.04 24.56 29.2c23.7 28.18 36.17 48.97 41.24 68.77 1.33 5.18-4.02-2.41-11.89-16.88-25.55-46.94-72.77-84.87-124.83-100.25-17.91-5.29-39.32-27.08-54.3-55.27-4.68-8.8-9.54-16.01-10.79-16.01-1.26 0-8.04 21.62-15.08 48.04-11.02 41.34-12.79 53.96-12.69 90.41 0.1 35.75-0.62 41.04-4.58 33.91-7.93-14.29-5.88-64.85 4.34-107.06 17.51-72.25 18.54-98.26 7.06-178.01l-1.85-12.86-9.73 16.32c-8.15 13.66-10.49 24.4-14.4 65.96-5.35 56.96-13.56 89.93-35.61 143.15-50.48 121.82-48.76 111.06-32.23 201.6 8.89 48.72 12.34 59.73 24.22 77.2 9.22 13.57 27.42 28.94 39.3 33.19 2.49 0.9 3.61 2.64 2.48 3.87-3.82 4.2-39.36-15.32-51.11-28.07-42.05-45.63-78.34-114.1-93.79-176.94-11.03-44.87-25.36-82.59-31.37-82.59-1.93 0-4.52 5.06-5.75 11.25-1.24 6.19-9.25 27.69-17.81 47.8-14.21 33.4-15.44 38.83-14.2 63.17 2.09 41.32 13.92 61.42 66.04 112.25 23.97 23.37 55.42 57.76 69.89 76.41s30.83 36.81 36.37 40.35 24.96 9.9 43.16 14.15c18.2 4.24 37.99 10.25 43.98 13.35 20.23 10.46 20.16 10.69 17.7-55.6-2.33-62.68-11.03-110.74-23.49-129.76-4.87-7.43-4.92-8.73-0.31-8.73 8.62 0 21.2 30.84 27.22 66.73 7.95 47.33 8.05 156.08 0.19 197.05-8.31 43.26-13.8 105.96-13.8 157.56 0 46.3-2.26 53.9-20.32 68.5-22.82 18.5-31.8 30.3-34.35 45.4-3.28 19.4 2.2 26.2 21 26.2h14.4l-0.43-19z"></path><path id="path5537" style="stroke:#000000;fill:#000000" inkscape:connector-curvature="0" d="m827.84 752.78c0-7.25 0.78-10.22 1.73-6.59 0.94 3.63 0.94 9.56 0 13.19-0.95 3.62-1.73 0.66-1.73-6.6z"></path><path id="path5535" style="stroke:#000000;fill:#000000" inkscape:connector-curvature="0" d="m517.98 738.65c-9.88-31.74-20.11-108.3-17.47-130.65 1.24-10.53 14.19-49.2 28.77-85.95 36.79-92.71 46.69-130.64 46.49-178.12-0.13-29.58-1.91-41.97-8.26-57.61-9.56-23.54-9.86-25.8-2.63-19.8 3 2.49 7.38 10.33 9.71 17.42 2.34 7.08 5.7 12.88 7.46 12.88 4.75 0 22.53-38.14 25.07-53.8 3.36-20.7-1.62-39.16-14.52-53.85-13.06-14.88-27.02-21.77-52.02-25.65l-16.96-2.63 10.37 9.71c5.7 5.34 10.16 12.61 9.92 16.16-0.4 5.85-0.59 5.86-2.1 0.17-1.91-7.21-23.03-18.23-34.96-18.23-12.36 0-30.33 10.7-30.33 18.06 0 3.6-3.39 12.88-7.54 20.61-9.64 18-9.79 31.46-0.37 33.92 13.52 3.54 46.64-10.96 61.56-26.94 15.65-16.78 16.14-16.03 9.76 14.85-4.06 19.69-3.74 22.68 4.15 37.81 6.24 11.97 8.04 20.37 6.63 30.91-2.25 16.78-17.89 49.29-31.35 65.16-7.89 9.31-8.65 9.61-4.94 1.99 13.91-28.59 10.71-45.65-8.57-45.61-6.81 0.01-17.36 3.31-23.46 7.33-11.25 7.42-28.42 32.02-28.46 40.77-0.01 2.64-6.17 20.44-13.68 39.57-15.77 40.13-18.2 66.89-7.64 84.12l6.71 10.94-9.5-10.37c-18.86-20.63-16.45-55.6 8.11-117.69 22.83-57.69 29.44-63.51 72.5-63.88l28.27-0.24 1.15-15.97c0.95-13.12-0.61-17.75-8.79-25.92-8.94-8.94-11.89-9.72-28.99-7.7-22.55 2.67-64.65 21.5-79.25 35.45-8.34 7.97-10.36 13.25-10.36 27.1l-0.01 17.19-7.46-15.07c-11.16-22.55-29.65-43.29-38.97-43.7-4.51-0.2 7.62-3.65 26.96-7.65 37.82-7.84 53.39-15.37 53.39-25.81 0-5.1-4.3-7.09-19.1-8.84-10.5-1.25-24.85-5.82-31.88-10.16-14.79-9.14-21.49-7.06-37.16 11.57-10.06 11.96-13.57 33.71-5.43 33.71 2.41 0 3.3 1.09 1.97 2.43-3.85 3.85-13.91-6.41-13.91-14.19 0-18.67-23.16 1.39-29.93 25.93-9.1 32.94 12.51 71.05 54.35 95.87 18.49 10.96 18.62 11.16 5.79 8.92-7.22-1.27-19.33-6.41-26.91-11.42-15.79-10.46-18.37-9.35-18.37 7.84 0 39.28 16.19 68.06 52.15 92.72 9.66 6.62 25.52 19.45 35.25 28.52 17.18 16.02 17.97 17.74 27.71 60.45 23.24 101.85 30.38 120.67 62.04 163.6 10.32 13.99 19.44 25.44 20.27 25.44s-1.53-9.75-5.23-21.67z"></path><path id="path5529" style="stroke:#000000;fill:#000000" inkscape:connector-curvature="0" d="m218.76 341.72c14.2-6.99 24.59-9.1 44.85-9.1 14.51 0 29.77 1.26 33.92 2.79 7.37 2.72 7.51 1.45 6.27-59.2l-1.26-61.99 9.57-9.57c10.93-10.93 18.01-11.53 49.14-4.21l22.27 5.24 17.58-12.09c9.66-6.65 27.19-14.24 38.95-16.87 23.19-5.19 22.56-4.28 27.07-39.1 2.19-16.82 3-17.9 13.52-17.9 14.57 0 33.59 8.18 42.65 18.34 7.6 8.54 5.77 15.51-2.4 9.12-2.64-2.07-8.62-4.7-13.28-5.84-7.02-1.72-8.48-0.52-8.48 6.99 0 7.82 1.78 9.07 12.97 9.07 7.13 0 13.91-1.54 15.07-3.42 1.16-1.87 5.54-2.51 9.73-1.42 6.92 1.81 7.25 1.04 3.64-8.46-7.57-19.9-15.88-30.54-31.44-40.21-31.84-19.796-36.5-18.593-55.01 14.21-10.27 18.19-14.75 22.02-41.56 35.49-32.51 16.35-45.64 18.22-66.6 9.46-25.31-10.57-37.31-5.19-51.64 23.19-5.41 10.72-15.06 59.14-13.47 67.6 2.89 15.34-17.13 37.59-84.09 93.47-24.35 20.32-44.28 37.67-44.28 38.55 0 0.89 10.76-6.64 23.92-16.72 13.15-10.08 32.22-22.42 42.39-27.42z"></path><path id="path5527" style="stroke:#000000;fill:#000000" inkscape:connector-curvature="0" d="m482.87 260.94c21.71-6.26 26.4-8.89 23.67-13.28-2.9-4.66-8.07-3.88-34.61 5.2-37.18 12.73-56.07 23.54-53.38 30.56 1.49 3.89 6.03 2.77 19.59-4.8 9.71-5.43 29.84-13.38 44.73-17.68z"></path><path id="path5525" style="stroke:#000000;fill:#000000" inkscape:connector-curvature="0" d="m318.25 251.83c0-4.03-1.69-8.36-3.76-9.65-2.14-1.32-3.77 1.85-3.77 7.32 0 5.3 1.69 9.64 3.77 9.64 2.07 0 3.76-3.29 3.76-7.31z"></path><path id="path5523" style="stroke:#000000;fill:#000000" inkscape:connector-curvature="0" d="m353.66 233.2c6.14-6.79 5.89-7.29-5.68-11.32-6.66-2.32-12.53-3.79-13.05-3.26-0.51 0.52-0.04 5.62 1.05 11.32 2.33 12.09 8.63 13.25 17.68 3.26z"></path><path id="path5519" style="stroke:#000000;fill:#000000" inkscape:connector-curvature="0" d="m612.12 179.38c0.1-10.76 13.48-38.14 27.77-56.84 7.53-9.84 12.21-17.9 10.4-17.9s-13.24 4.57-25.41 10.14c-16.57 7.59-29.96 10.55-53.31 11.78-26.5 1.4-30.94 2.57-29.51 7.77 0.93 3.36 2.71 9.67 3.95 14.02 1.45 5.09 7.54 9.48 17.14 12.36 8.18 2.45 21.29 10.77 29.13 18.47 13.93 13.71 19.72 13.76 19.84 0.2z"></path></g><path id="path5547" style="stroke:#000000;stroke-width:.27433;fill:#c26c3e" inkscape:connector-curvature="0" d="m558.87 1041.9c0.96 0 0.28-1.1-1.8-2.8-2.04-1.7-3.62-4.2-4.04-6.4-0.49-2.5-0.35-3.3 0.51-2.7 0.66 0.4 1.2 1.3 1.2 2.1 0 2.8 4.24 6.8 7.36 6.8 2.5 0 3.34-0.7 4.5-3.4 2.41-5.8 4.5-18.9 3.37-21.1-1.56-2.9-13.46-14.83-14.87-14.83-1.96 0-3.75-6.93-3.02-11.75 1-6.68 6.42-16.46 17.29-31.2 10.3-13.96 15.34-21.93 15.34-24.22 0-3.02-31.56-37.2-34.37-37.23-1.33-0.01-0.85 2.65 1.4 7.75 3.06 6.91 3.73 18.82 1.53 27.38-0.95 3.69-4.75 13.81-8.45 22.5-11.92 27.96-13.42 39.54-6.5 50.1 5.48 8.3 8.15 14.5 8.86 20.5l0.65 5.5 1.9-2.4c2.47-3 2.41-2-0.16 3-1.13 2.3-1.95 5.3-1.83 6.8 0.28 3.4 4.59 7 7.47 6.3 1.16-0.4 2.81-0.6 3.66-0.7z"></path><path id="path5549" style="stroke:#000000;stroke-width:.27433;fill:#000000" inkscape:connector-curvature="0" d="m634.89 896.69v43.5c-1.31-6.27-2.96-13.76-5.11-23.51-1.92-8.71-3.32-15.08-4.27-19.99h9.38zm-12.3 0c0.62 2.77 1.48 6.01 2.6 9.99 1.77 6.26 3.45 14.16 3.76 17.57l0.54 6.21-5.25-5.69c-2.89-3.13-6.87-8.89-8.85-12.81-1.98-3.91-3.6-6.22-3.6-5.12 0 2.97 3.01 8.32 9.66 17.16l5.98 7.94 0.47 10.6c0.26 5.84 1.19 15.15 2.07 20.72 1.56 9.75 1.53 10.41-0.59 18.63-1.2 4.69-2.63 14.57-3.16 21.91-1.68 23.5-4.13 34.7-7.57 34.7-0.84 0-2.19 0.2-3.02 0.6-2.45 0.9-4.87-2.5-4.87-6.8 0-2.2-0.52-4.4-1.15-4.7-0.83-0.6-0.94 1-0.42 5.6 0.45 3.8 0.35 6.3-0.24 6.3-0.54 0-2.56-1-4.5-2.3-2.51-1.7-3.88-3.7-4.81-7l-1.29-4.6 0.46 4.1c0.26 2.3 0.76 5.1 1.13 6.3 0.51 1.8 0.14 2.3-1.8 2.7-4.21 0.8-4.95-0.1-4.95-5.8 0-5.8 1.11-8 7.34-14.6 8.14-8.5 10.79-19.52 9.92-41.11-0.68-17.23-3.84-32.43-9.34-44.93-5.98-13.61-9-24.11-9.72-35.57h31.2z"></path><path id="path5551" style="stroke:#000000;stroke-width:.27433;fill:#ffffff" inkscape:connector-curvature="0" d="m570.13 734.45c0-1.99 0.22-2.81 0.48-1.81 0.26 0.99 0.26 2.62 0 3.62-0.26 0.99-0.48 0.18-0.48-1.81z"></path><path id="path5553" style="stroke:#000000;stroke-width:.27433;fill:#fbc46b" inkscape:connector-curvature="0" d="m582.82 894.98c-2.71-8.71-5.52-29.71-4.8-35.84 0.34-2.89 3.9-13.5 7.9-23.58 10.09-25.44 12.8-35.84 12.75-48.87-0.04-8.11-0.52-11.51-2.27-15.8-2.62-6.46-2.7-7.08-0.72-5.43 0.83 0.68 2.03 2.83 2.67 4.78 0.64 1.94 1.56 3.53 2.04 3.53 1.31 0 6.18-10.46 6.88-14.76 0.92-5.68-0.44-10.74-3.98-14.77-3.59-4.08-7.42-5.97-14.27-7.04l-4.66-0.72 2.85 2.66c1.56 1.47 2.79 3.46 2.72 4.44-0.11 1.6-0.16 1.61-0.58 0.04-0.52-1.98-6.31-5-9.59-5-3.39 0-8.32 2.94-8.32 4.96 0 0.98-0.93 3.53-2.07 5.65-2.64 4.94-2.68 8.63-0.1 9.31 3.71 0.97 12.8-3.01 16.89-7.4 4.29-4.6 4.43-4.39 2.68 4.08-1.12 5.4-1.03 6.22 1.14 10.37 1.71 3.29 2.2 5.59 1.81 8.48-0.61 4.6-4.9 13.52-8.6 17.88-2.16 2.55-2.37 2.63-1.35 0.54 3.82-7.84 2.94-12.52-2.35-12.51-1.87 0-4.76 0.91-6.44 2.01-3.08 2.04-7.8 8.79-7.81 11.19 0 0.72-1.69 5.6-3.75 10.85-4.32 11.01-4.99 18.35-2.09 23.08l1.84 3-2.61-2.85c-5.17-5.65-4.51-15.25 2.23-32.28 6.26-15.83 8.07-17.42 19.89-17.52l7.75-0.07 0.32-4.38c0.26-3.6-0.17-4.87-2.42-7.11-2.45-2.46-3.26-2.67-7.95-2.12-6.18 0.74-17.73 5.9-21.74 9.73-2.29 2.19-2.84 3.63-2.84 7.43v4.72l-2.05-4.14c-3.06-6.18-8.14-11.87-10.69-11.98-1.24-0.06 2.09-1 7.39-2.1 10.38-2.15 14.65-4.22 14.65-7.08 0-1.4-1.18-1.95-5.24-2.43-2.88-0.34-6.82-1.59-8.74-2.78-4.06-2.51-5.9-1.94-10.2 3.17-2.76 3.28-3.72 9.25-1.49 9.25 0.66 0 0.91 0.3 0.54 0.66-1.05 1.06-3.81-1.76-3.81-3.89 0-5.12-6.36 0.38-8.22 7.11-2.49 9.04 3.44 19.5 14.91 26.3 5.08 3.01 5.11 3.07 1.59 2.45-1.98-0.35-5.3-1.76-7.38-3.13-4.33-2.87-5.04-2.57-5.04 2.15 0 10.78 4.44 18.67 14.31 25.43 2.65 1.82 7 5.34 9.67 7.83 4.71 4.39 4.93 4.87 7.6 16.58 6.38 27.95 8.33 33.11 17.02 44.89 2.83 3.83 5.33 6.97 5.56 6.97s-0.42-2.67-1.43-5.94z"></path><path id="path5559" inkscape:connector-curvature="0" sodipodi:nodetypes="ccsssssssssscssccccccssss" style="stroke:#000000;stroke-width:.27433;fill:#cda55e" d="m583.38 730.14c2.48 2.78 1.88 3.48 3.78 3.97 1.9 0.5 1.99 0.29 1-2.32-2.07-5.46-4.36-8.37-8.62-11.03-8.74-5.43-10.02-5.1-15.1 3.9-2.81 4.99-4.04 6.04-11.4 9.74-8.91 4.48-12.52 4.99-18.27 2.59-6.94-2.9-10.23-1.42-14.16 6.36-1.49 2.94-4.14 16.23-3.7 18.55 0.79 4.21-4.7 10.31-23.07 25.64-6.68 5.57-12.14 10.33-12.14 10.58 0 0.24 2.95-1.83 6.56-4.59 3.6-2.77 8.84-6.15 11.63-7.52 3.89-1.92 6.74-2.5 12.3-2.5 3.98 0 8.17 0.34 9.31 0.76 2.02 0.75 2.06 0.4 1.72-16.24l-0.35-17 2.62-2.63c3-2.99 4.95-3.16 13.49-1.15l6.11 1.44 4.82-3.32c2.65-1.82 7.46-3.91 10.68-4.63 6.37-1.42 6.19-1.17 7.43-10.73 0.6-4.61 0.82-4.91 3.71-4.91 4 0 9.16 2.25 11.65 5.04z"></path><path id="path5561" style="stroke:#000000;stroke-width:.27433;fill:#ffffff" inkscape:connector-curvature="0" d="m573.46 763.29c5.96-1.72 7.24-2.44 6.49-3.64-0.79-1.28-2.21-1.07-9.49 1.43-10.2 3.49-15.38 6.45-14.65 8.38 0.41 1.06 1.66 0.76 5.38-1.32 2.66-1.49 8.18-3.67 12.27-4.85z"></path><path id="path5563" style="stroke:#000000;stroke-width:.27433;fill:#ffffff" inkscape:connector-curvature="0" d="m528.3 759.15c0-1.11-0.47-2.3-1.03-2.65-0.59-0.36-1.04 0.51-1.04 2.01 0 1.45 0.47 2.64 1.04 2.64 0.56 0 1.03-0.9 1.03-2z"></path><path id="path5565" style="stroke:#000000;stroke-width:.27433;fill:#ffffff" inkscape:connector-curvature="0" d="m538.01 754.03c1.69-1.86 1.62-1.99-1.56-3.1-1.82-0.64-3.43-1.04-3.57-0.9-0.15 0.15-0.02 1.55 0.28 3.11 0.64 3.32 2.37 3.64 4.85 0.89z"></path><path id="path5567" style="stroke:#000000;stroke-width:.27433;fill:#cda25e" inkscape:connector-curvature="0" d="m607.8 742.58c0.03-2.95 3.7-10.46 7.62-15.59 2.07-2.7 3.35-4.91 2.86-4.91-0.5 0-3.64 1.25-6.98 2.78-4.54 2.09-8.21 2.9-14.62 3.23-7.27 0.39-8.49 0.71-8.1 2.13 0.26 0.93 0.75 2.66 1.09 3.85 0.39 1.4 2.07 2.6 4.7 3.39 2.24 0.67 5.84 2.96 7.99 5.07 3.82 3.76 5.41 3.77 5.44 0.05z"></path><path id="path5583" style="stroke:#000000;stroke-width:.27433;fill:#c26c3e" inkscape:connector-curvature="0" d="m609.25 1035.8c-0.09-3.8 0.39-5.7 1.73-7 1.76-1.7 1.79-1.6 0.69 0.5-0.63 1.2-1.15 3.9-1.15 5.9 0 3.5 0.16 3.6 4.64 4.3 2.55 0.4 5.81 0.4 7.23 0 2.34-0.5 2.6-1.1 2.6-5.7 0-2.8 0.44-5.4 0.97-5.7 0.58-0.3 0.74 0.9 0.39 3-0.86 5.3 1.32 9.9 4.71 9.9 3.97 0 5.34-1.3 6.39-5.8 0.51-2.2 1.21-19.4 1.55-38.14 0.7-38.46 0.56-37.39 10.39-82 7.24-32.88 7.23-32.69 2.8-44.51-1.36-3.62-2.29-7.11-2.08-7.75 0.63-1.82 4.37 6.41 6.41 14.06 2.22 8.38 1.84 12.68-2.54 28.2-1.77 6.25-3.46 14.16-3.76 17.57l-0.55 6.21 5.26-5.69c2.89-3.13 6.87-8.89 8.85-12.8 1.98-3.92 3.6-6.23 3.6-5.13 0 2.97-3.01 8.32-9.67 17.16l-5.97 7.93-0.47 10.61c-0.25 5.83-1.19 15.16-2.07 20.72-1.55 9.75-1.53 10.41 0.59 18.63 1.21 4.69 2.63 14.57 3.16 21.93 1.68 23.4 4.13 34.7 7.57 34.7 0.84 0 2.19 0.2 3.02 0.5 2.45 1 4.87-2.4 4.87-6.8 0-2.2 0.52-4.3 1.15-4.7 0.83-0.5 0.94 1.1 0.42 5.7-0.45 3.8-0.35 6.3 0.24 6.3 0.54 0 2.57-1.1 4.5-2.4 2.52-1.7 3.88-3.6 4.81-6.9l1.29-4.7-0.46 4.2c-0.26 2.3-0.77 5.1-1.13 6.3-0.52 1.7-0.14 2.3 1.8 2.7 4.21 0.8 4.95-0.1 4.95-5.8 0-5.8-1.1-8-7.34-14.6-8.14-8.6-10.79-19.53-9.93-41.12 0.69-17.24 3.85-32.44 9.35-44.94 9.1-20.7 11.33-34.19 9.08-54.83-2.66-24.42-6.29-35.63-14.02-43.21-5.61-5.5-8.54-6.59-17.89-6.61l-4.4-0.01 6.74 8.01c6.5 7.73 9.92 13.43 11.31 18.86 0.37 1.43-1.1-0.66-3.26-4.63-7.01-12.87-19.97-23.28-34.25-27.5-4.91-1.45-10.78-7.43-14.89-15.16-1.29-2.42-2.62-4.39-2.96-4.39-0.35 0-2.21 5.93-4.14 13.18-3.02 11.34-3.51 14.8-3.48 24.8 0.02 9.81-0.17 11.26-1.26 9.3-2.17-3.92-1.61-17.79 1.19-29.37 4.81-19.82 5.09-26.96 1.94-48.83l-0.51-3.53-2.67 4.48c-2.23 3.74-2.87 6.69-3.95 18.09-1.47 15.63-3.72 24.67-9.77 39.27-13.84 33.42-13.37 30.47-8.84 55.31 2.44 13.36 3.39 16.38 6.64 21.17 2.53 3.73 7.53 7.94 10.79 9.11 0.68 0.25 0.99 0.72 0.68 1.06-1.05 1.15-10.8-4.2-14.02-7.7-11.54-12.52-21.49-31.3-25.73-48.54-3.03-12.31-6.96-22.66-8.61-22.66-0.53 0-1.24 1.39-1.58 3.09s-2.53 7.6-4.88 13.11c-3.9 9.17-4.24 10.66-3.9 17.33 0.58 11.34 3.82 16.85 18.12 30.8 6.58 6.41 15.2 15.84 19.17 20.96s8.46 10.1 9.98 11.07 6.85 2.71 11.84 3.88c4.99 1.16 10.42 2.81 12.07 3.66 5.54 2.87 5.52 2.93 4.85-15.25-0.64-17.19-3.02-30.38-6.44-35.6-1.34-2.04-1.35-2.39-0.09-2.39 2.37 0 5.82 8.46 7.47 18.3 2.18 12.99 2.21 42.82 0.05 54.06-2.28 11.87-3.78 29.07-3.78 43.27-0.01 12.7-0.62 14.8-5.58 18.8-6.26 5-8.72 8.3-9.42 12.4-0.9 5.3 0.6 7.2 5.76 7.2h3.95l-0.12-5.2z"></path><path id="path5597" inkscape:connector-curvature="0" sodipodi:nodetypes="csssss" style="stroke:#000000;stroke-width:.27433;fill:#fffffd" d="m582.5 733.43c0.32-0.52-0.7-0.64-1.43-1.21-0.72-0.57-2.65-1.95-3.93-2.26-1.93-0.47-2.33-0.14-2.33 1.92 0 2.14 0.49 2.49 3.56 2.49 1.95 0 3.82-0.43 4.13-0.94z"></path></g><g id="g6527" transform="matrix(.13953 0 0 .13953 197.7 775.26)"><path id="path6529" inkscape:connector-curvature="0" sodipodi:nodetypes="cscccsssscccssssssssssssssssccssssssssssssssssssssssssssssssssssssssssc" style="stroke:#000000;fill:#000000" d="m392.68 1276.1c-9.65-7.2-10.37-9.6-10.37-35.1 0-30.6-5.74-49.9-30.28-101.7l-15.96-33.7 2.21-34.2c2.57-39.6 10.66-69.6 32.78-121.31 32.53-76.05 37.63-92.1 37.63-118.43 0-30.97-10.28-71.87-27.58-109.75-26.23-57.41-26.78-87.4-2.69-144.13 7.98-18.77 15.6-41.77 16.93-51.09l2.42-16.96-30-27.27c-20.91-18.99-32.6-33-38.55-46.16-4.7-10.39-10.36-18.89-12.58-18.89s-14.21 4.82-26.65 10.7c-45.36 21.45-59.8 24.5-103.36 21.85-21.91-1.34-44.22-3.41-49.58-4.62-9.42-2.12-9.65-2.83-6.77-21.06 4.75-30.06 22.39-52.89 72.89-94.33 58.66-48.14 73.51-66.45 73.58-90.71 0.06-20.51 12.11-59.49 23.22-75.09 9.76-13.71 20.6-16.06 41.12-8.92 24.32 8.47 40.03 6.95 67.6-6.56 21.57-10.56 25.85-14.52 35.8-33.15 6.22-11.64 13.78-24.109 16.8-27.714 8.97-10.691 30.16-5.163 62.1 16.194 26.28 17.58 29.67 18.83 46.32 17.15 23.28-2.36 34.34-5.76 93.34-28.735 37.21-14.491 55.39-19.499 75.65-20.835l26.66-1.757c15.12-4.06 5.96 11.611 4.51 23.34-1.45 11.727-7.34 38.557-12.17 47.707-9.66 18.31-21.43 34.28-38.27 46.32s-38.75 14.41-54.35 25.58c-15.59 11.18-28.45 29.01-34.37 44.72-11.83 31.42-15.22 103 15.04 146.6 55.29 79.64 79.74 60.42 163.37 77.28 68.63 13.85 64.67 24.85 83.55 89.19 5.96 20.3 4.28 46.16 9.01 67.29 2.91 13 5.17 46.63 5.32 79.13 0.23 49.43-0.96 61.14-9.51 93.24-5.38 20.19-15.69 49.87-22.91 65.94-7.22 16.08-15.72 39.41-18.88 51.85-8.83 34.68-14.63 101.69-13.08 151.29 1.28 40.7 2.45 46.9 13.24 69.7 6.51 13.8 19.02 32.1 27.8 40.6 15.16 14.7 15.98 16.7 16.37 38.4 0.6 33-5.63 37.3-54.46 37.3-41.38 0-53.96-3.9-59.64-18.4-6.44-16.5-11.94-52.6-15.55-102.2-1.89-25.9-7.2-63.9-11.81-84.3-7.88-35.1-8.08-39.4-3.31-73.51 6.98-50.09 9.36-105.99 4.51-105.99-8.78 0-23.24 108.06-23.24 173.7 0 92.7-10.71 205.8-20.41 215.5-3.29 3.3-22.62 4.5-67.23 4.4-55.72-0.1-63.47-0.9-70.39-7.1-16.74-15.2-7.13-42.5 23.4-66.6 10.83-8.6 21.33-19.2 23.32-23.6 2.03-4.5 3.23-40.6 2.72-82-0.73-59.1 0.63-83.9 6.74-123.15 4.2-27.06 7.64-51.64 7.64-54.62 0-3.43-9.39-8.3-25.43-13.2-49.31-15.05-80.89-23.77-81.9-22.61-0.56 0.64-4.63 8.33-9.05 17.09s-24.18 36.74-43.92 62.18c-36.5 47.01-59.82 87.21-64.22 110.61-3.5 18.7 4.07 33.4 27.62 53.7 22.12 19 34.87 39.4 34.87 55.9 0 12.5-14.29 75.2-19.78 86.8-7.95 16.9-49.5 21.9-67.83 8.2z"></path><path id="path6531" style="stroke:#000000;fill:#000000" inkscape:connector-curvature="0" d="m431.3 1276.5c3.51-0.1 1.02-4-6.56-10.4-7.43-6.2-13.2-15.3-14.72-23.1-1.8-9.2-1.29-12.1 1.85-10.1 2.4 1.5 4.36 4.9 4.36 7.6 0 10.5 15.46 24.8 26.84 24.8 9.13 0 12.19-2.3 16.39-12.4 8.78-21 16.43-68.8 12.28-76.7-5.66-10.8-49.04-54.1-54.17-54.1-7.16 0-13.67-25.3-11.03-42.9 3.65-24.3 23.41-60 63.02-113.68 37.54-50.92 55.95-79.96 55.95-88.31 0-10.98-115.05-135.59-125.3-135.7-4.87-0.05-3.11 9.66 5.1 28.23 11.15 25.21 13.58 68.63 5.58 99.82-3.45 13.45-17.31 50.36-30.81 82.01-43.45 101.93-48.92 144.13-23.68 182.43 19.95 30.3 29.68 52.9 32.29 74.9l2.36 19.9 6.93-8.6c9-11.1 8.8-7.3-0.57 11.1-4.13 8.1-7.13 19.2-6.68 24.7 1.03 12.5 16.74 25.6 27.24 22.7 4.22-1.1 10.22-2.1 13.33-2.2z"></path><path id="path6533" style="stroke:#000000;fill:#000000" inkscape:connector-curvature="0" d="m615.09 1250c-0.32-13.7 1.42-20.7 6.3-25.4 6.41-6.1 6.53-6 2.53 1.8-2.31 4.5-4.21 14.2-4.21 21.4 0 12.8 0.58 13.3 16.91 15.8 9.3 1.4 21.17 1.4 26.38 0.1 8.51-2.1 9.47-4.2 9.47-20.9 0-10.2 1.59-19.5 3.54-20.7 2.11-1.3 2.68 3.2 1.41 11-3.15 19.3 4.8 35.9 17.17 35.9 14.47-0.1 19.47-4.6 23.27-21.1 1.87-8.1 4.42-70.6 5.66-139 2.56-140.22 2.06-136.31 37.89-298.94 26.39-119.84 26.35-119.16 10.21-162.23-4.96-13.23-8.37-25.94-7.57-28.27 2.26-6.63 15.92 23.38 23.34 51.28 8.11 30.53 6.7 46.21-9.26 102.77-6.43 22.8-12.6 51.62-13.7 64.06l-2 22.61 19.15-20.73c10.54-11.4 25.06-32.4 32.28-46.66 7.21-14.27 13.11-22.69 13.11-18.7 0 10.85-10.96 30.32-35.22 62.55l-21.78 28.93-1.7 38.66c-0.94 21.26-4.34 55.25-7.57 75.52-5.65 35.55-5.57 37.95 2.15 67.95 4.41 17.1 9.6 53.1 11.53 80 6.13 85.4 15.07 126.3 27.59 126.3 3.05 0 8 0.9 11.02 2.1 8.92 3.4 17.75-8.9 17.75-24.8 0-8 1.88-15.7 4.19-17.2 3.01-1.8 3.44 3.9 1.52 20.5-1.63 14-1.27 23.1 0.9 23.1 1.97 0 9.34-3.8 16.38-8.6 9.18-6.1 14.14-13.3 17.53-25.4l4.72-16.8-1.7 15c-0.94 8.3-2.78 18.7-4.09 23.1-1.89 6.3-0.53 8.3 6.54 9.7 15.35 2.9 18.07-0.2 18.07-20.9 0-21.4-4.04-29.4-26.76-53.3-29.67-31.2-39.34-71.2-36.2-149.9 2.51-62.87 14.03-118.28 34.07-163.85 33.17-75.45 41.31-124.61 33.11-199.87-9.7-89.01-22.96-129.86-51.1-157.48-20.45-20.08-31.15-24.03-65.24-24.12l-16.03-0.04 24.56 29.2c23.7 28.18 36.17 48.97 41.24 68.77 1.33 5.18-4.02-2.41-11.89-16.88-25.55-46.94-72.77-84.87-124.83-100.25-17.91-5.29-39.32-27.08-54.3-55.27-4.68-8.8-9.54-16.01-10.79-16.01-1.26 0-8.04 21.62-15.08 48.04-11.02 41.34-12.79 53.96-12.69 90.41 0.1 35.75-0.62 41.04-4.58 33.91-7.93-14.29-5.88-64.85 4.34-107.06 17.51-72.25 18.54-98.26 7.06-178.01l-1.85-12.86-9.73 16.32c-8.15 13.66-10.49 24.4-14.4 65.96-5.35 56.96-13.56 89.93-35.61 143.15-50.48 121.82-48.76 111.06-32.23 201.6 8.89 48.72 12.34 59.73 24.22 77.2 9.22 13.57 27.42 28.94 39.3 33.19 2.49 0.9 3.61 2.64 2.48 3.87-3.82 4.2-39.36-15.32-51.11-28.07-42.05-45.63-78.34-114.1-93.79-176.94-11.03-44.87-25.36-82.59-31.37-82.59-1.93 0-4.52 5.06-5.75 11.25-1.24 6.19-9.25 27.69-17.81 47.8-14.21 33.4-15.44 38.83-14.2 63.17 2.09 41.32 13.92 61.42 66.04 112.25 23.97 23.37 55.42 57.76 69.89 76.41s30.83 36.81 36.37 40.35 24.96 9.9 43.16 14.15c18.2 4.24 37.99 10.25 43.98 13.35 20.23 10.46 20.16 10.69 17.7-55.6-2.33-62.68-11.03-110.74-23.49-129.76-4.87-7.43-4.92-8.73-0.31-8.73 8.62 0 21.2 30.84 27.22 66.73 7.95 47.33 8.05 156.08 0.19 197.05-8.31 43.26-13.8 105.96-13.8 157.56 0 46.3-2.26 53.9-20.32 68.5-22.82 18.5-31.8 30.3-34.35 45.4-3.28 19.4 2.2 26.2 21 26.2h14.4l-0.43-19z"></path><path id="path6535" style="stroke:#000000;fill:#000000" inkscape:connector-curvature="0" d="m827.84 752.78c0-7.25 0.78-10.22 1.73-6.59 0.94 3.63 0.94 9.56 0 13.19-0.95 3.62-1.73 0.66-1.73-6.6z"></path><path id="path6537" style="stroke:#000000;fill:#000000" inkscape:connector-curvature="0" d="m517.98 738.65c-9.88-31.74-20.11-108.3-17.47-130.65 1.24-10.53 14.19-49.2 28.77-85.95 36.79-92.71 46.69-130.64 46.49-178.12-0.13-29.58-1.91-41.97-8.26-57.61-9.56-23.54-9.86-25.8-2.63-19.8 3 2.49 7.38 10.33 9.71 17.42 2.34 7.08 5.7 12.88 7.46 12.88 4.75 0 22.53-38.14 25.07-53.8 3.36-20.7-1.62-39.16-14.52-53.85-13.06-14.88-27.02-21.77-52.02-25.65l-16.96-2.63 10.37 9.71c5.7 5.34 10.16 12.61 9.92 16.16-0.4 5.85-0.59 5.86-2.1 0.17-1.91-7.21-23.03-18.23-34.96-18.23-12.36 0-30.33 10.7-30.33 18.06 0 3.6-3.39 12.88-7.54 20.61-9.64 18-9.79 31.46-0.37 33.92 13.52 3.54 46.64-10.96 61.56-26.94 15.65-16.78 16.14-16.03 9.76 14.85-4.06 19.69-3.74 22.68 4.15 37.81 6.24 11.97 8.04 20.37 6.63 30.91-2.25 16.78-17.89 49.29-31.35 65.16-7.89 9.31-8.65 9.61-4.94 1.99 13.91-28.59 10.71-45.65-8.57-45.61-6.81 0.01-17.36 3.31-23.46 7.33-11.25 7.42-28.42 32.02-28.46 40.77-0.01 2.64-6.17 20.44-13.68 39.57-15.77 40.13-18.2 66.89-7.64 84.12l6.71 10.94-9.5-10.37c-18.86-20.63-16.45-55.6 8.11-117.69 22.83-57.69 29.44-63.51 72.5-63.88l28.27-0.24 1.15-15.97c0.95-13.12-0.61-17.75-8.79-25.92-8.94-8.94-11.89-9.72-28.99-7.7-22.55 2.67-64.65 21.5-79.25 35.45-8.34 7.97-10.36 13.25-10.36 27.1l-0.01 17.19-7.46-15.07c-11.16-22.55-29.65-43.29-38.97-43.7-4.51-0.2 7.62-3.65 26.96-7.65 37.82-7.84 53.39-15.37 53.39-25.81 0-5.1-4.3-7.09-19.1-8.84-10.5-1.25-24.85-5.82-31.88-10.16-14.79-9.14-21.49-7.06-37.16 11.57-10.06 11.96-13.57 33.71-5.43 33.71 2.41 0 3.3 1.09 1.97 2.43-3.85 3.85-13.91-6.41-13.91-14.19 0-18.67-23.16 1.39-29.93 25.93-9.1 32.94 12.51 71.05 54.35 95.87 18.49 10.96 18.62 11.16 5.79 8.92-7.22-1.27-19.33-6.41-26.91-11.42-15.79-10.46-18.37-9.35-18.37 7.84 0 39.28 16.19 68.06 52.15 92.72 9.66 6.62 25.52 19.45 35.25 28.52 17.18 16.02 17.97 17.74 27.71 60.45 23.24 101.85 30.38 120.67 62.04 163.6 10.32 13.99 19.44 25.44 20.27 25.44s-1.53-9.75-5.23-21.67z"></path><path id="path6539" style="stroke:#000000;fill:#000000" inkscape:connector-curvature="0" d="m218.76 341.72c14.2-6.99 24.59-9.1 44.85-9.1 14.51 0 29.77 1.26 33.92 2.79 7.37 2.72 7.51 1.45 6.27-59.2l-1.26-61.99 9.57-9.57c10.93-10.93 18.01-11.53 49.14-4.21l22.27 5.24 17.58-12.09c9.66-6.65 27.19-14.24 38.95-16.87 23.19-5.19 22.56-4.28 27.07-39.1 2.19-16.82 3-17.9 13.52-17.9 14.57 0 33.59 8.18 42.65 18.34 7.6 8.54 5.77 15.51-2.4 9.12-2.64-2.07-8.62-4.7-13.28-5.84-7.02-1.72-8.48-0.52-8.48 6.99 0 7.82 1.78 9.07 12.97 9.07 7.13 0 13.91-1.54 15.07-3.42 1.16-1.87 5.54-2.51 9.73-1.42 6.92 1.81 7.25 1.04 3.64-8.46-7.57-19.9-15.88-30.54-31.44-40.21-31.84-19.796-36.5-18.593-55.01 14.21-10.27 18.19-14.75 22.02-41.56 35.49-32.51 16.35-45.64 18.22-66.6 9.46-25.31-10.57-37.31-5.19-51.64 23.19-5.41 10.72-15.06 59.14-13.47 67.6 2.89 15.34-17.13 37.59-84.09 93.47-24.35 20.32-44.28 37.67-44.28 38.55 0 0.89 10.76-6.64 23.92-16.72 13.15-10.08 32.22-22.42 42.39-27.42z"></path><path id="path6541" style="stroke:#000000;fill:#000000" inkscape:connector-curvature="0" d="m482.87 260.94c21.71-6.26 26.4-8.89 23.67-13.28-2.9-4.66-8.07-3.88-34.61 5.2-37.18 12.73-56.07 23.54-53.38 30.56 1.49 3.89 6.03 2.77 19.59-4.8 9.71-5.43 29.84-13.38 44.73-17.68z"></path><path id="path6543" style="stroke:#000000;fill:#000000" inkscape:connector-curvature="0" d="m318.25 251.83c0-4.03-1.69-8.36-3.76-9.65-2.14-1.32-3.77 1.85-3.77 7.32 0 5.3 1.69 9.64 3.77 9.64 2.07 0 3.76-3.29 3.76-7.31z"></path><path id="path6545" style="stroke:#000000;fill:#000000" inkscape:connector-curvature="0" d="m353.66 233.2c6.14-6.79 5.89-7.29-5.68-11.32-6.66-2.32-12.53-3.79-13.05-3.26-0.51 0.52-0.04 5.62 1.05 11.32 2.33 12.09 8.63 13.25 17.68 3.26z"></path><path id="path6547" style="stroke:#000000;fill:#000000" inkscape:connector-curvature="0" d="m612.12 179.38c0.1-10.76 13.48-38.14 27.77-56.84 7.53-9.84 12.21-17.9 10.4-17.9s-13.24 4.57-25.41 10.14c-16.57 7.59-29.96 10.55-53.31 11.78-26.5 1.4-30.94 2.57-29.51 7.77 0.93 3.36 2.71 9.67 3.95 14.02 1.45 5.09 7.54 9.48 17.14 12.36 8.18 2.45 21.29 10.77 29.13 18.47 13.93 13.71 19.72 13.76 19.84 0.2z"></path></g><path id="path6553" style="stroke:#000000;stroke-width:.16918;fill:#000000" inkscape:connector-curvature="0" d="m361.97 866.16v26.83c-0.8-3.87-1.82-8.49-3.15-14.5-1.18-5.37-2.04-9.3-2.63-12.33h5.78zm-7.58 0c0.39 1.71 0.91 3.7 1.6 6.16 1.09 3.86 2.13 8.73 2.32 10.83l0.34 3.83-3.24-3.5c-1.79-1.93-4.24-5.49-5.46-7.9-1.22-2.42-2.22-3.84-2.22-3.16 0 1.83 1.86 5.13 5.96 10.58l3.68 4.9 0.29 6.54c0.16 3.59 0.74 9.34 1.28 12.77 0.96 6.01 0.95 6.42-0.36 11.49-0.75 2.89-1.62 8.98-1.95 13.54-1.04 14.44-2.55 21.36-4.67 21.36-0.52 0-1.35 0.16-1.86 0.36-1.51 0.57-3-1.51-3-4.19 0-1.36-0.33-2.67-0.72-2.91-0.51-0.31-0.58 0.67-0.25 3.47 0.27 2.37 0.21 3.91-0.15 3.91-0.34 0-1.58-0.66-2.77-1.46-1.56-1.04-2.4-2.25-2.97-4.3l-0.8-2.85 0.29 2.55c0.15 1.4 0.47 3.16 0.69 3.9 0.32 1.07 0.09 1.41-1.11 1.64-2.59 0.5-3.05-0.03-3.05-3.53 0-3.62 0.68-4.98 4.52-9.02 5.02-5.28 6.66-12.05 6.13-25.36-0.43-10.63-2.38-20.01-5.77-27.72-3.69-8.39-5.55-14.86-5.99-21.93h19.24z"></path><path id="path6569" inkscape:connector-curvature="0" sodipodi:nodetypes="cssssccsscccc" style="stroke:#000000;stroke-width:.10054;fill:#000000" d="m334.41 836.39c1.58 0.61 6.59-1.41 11.77-4.74 3.58-2.31 5.1-3.02 7.52-3.55 11.06-2.37 12.94-3.25 16.07-7.49 1.69-2.31 3.78-6.61 4.97-10.28 0.87-2.7 0.81-3.19-0.34-2.79-5.01 8.96-9.15 13.48-13.66 13.98-16.7 5.36-18.62 2.86-20.03 2.63-0.53-0.09-1.45 1.62-2.26 3.22-1.26 2.49-2.96 4.55-4.94 5.99l-0.98 0.71 0.4 0.95c0.22 0.52 0.89 1.14 1.48 1.37z"></path><g id="g6613" transform="matrix(.19531 0 0 .19531 -290.45 -693.76)"><path id="path5612" style="fill:#000000" inkscape:connector-curvature="0" d="m1881.1 4921.7c-9.5-7.1-10.3-9.8-10.3-33.1 0-30.7-4.6-46.7-28.2-97.9l-18.1-39.3 2.2-36.1c2.6-41.4 8.6-62.7 36.4-128.5 28.9-68.4 34-85.1 34-111 0-28.1-7.4-57.7-25-100-29.3-70.4-30.2-94.2-6-151.2 8.3-19.5 16.3-42.5 17.7-51.2 2.3-13.8 1.5-17-6.5-24.5-46.5-43.9-55.8-54.4-61.5-69.3-3.5-9.1-7.7-16.6-9.4-16.6s-18.9 7.2-38.2 16c-34.9 15.9-35.1 15.9-80.2 16-24.9 0-51.3-1.3-58.8-2.8l-13.5-2.9 2.9-18.6c5.3-33.3 19.4-51.9 72.8-95.8 21.3-17.6 46.4-40.5 55.9-50.9 16.1-18 17.2-20.6 18.7-44.6 2-31.2 16-67.1 30.4-77.8 9.6-7.1 11.7-7.3 28.2-2.5 34 9.7 42.7 9.2 70.8-4.3 24-11.6 27.2-14.6 38.1-35.2 6.6-12.4 14-24.8 16.6-27.7 8.4-9.2 32.2-2.5 61.9 17.6 37.8 25.5 36.9 25.6 162.1-19.5 26.1-9.4 44.1-13.6 58.6-13.6l21-0.1 4.8-18.6c2.6-10.2 10.6-30.8 17.7-45.6 7.1-14.9 15.7-37.9 19-51.2 3.9-15.4 8-24 11.4-24 18.8 0 56.7 37.8 75.7 75.6 17.3 34.2 22.2 83.5 16.4 164.5-6 85.3-5.2 139.4 3.1 201.2 15.1 112.3 13.8 160.5-5.9 215.2l-9.5 26.3 5.9 40.8c12.7 86.7 4 143.4-36.8 239.5-15.7 37.1-22.5 85.2-22.8 161.7l-0.3 67.9 11.9 25.1c6.5 13.8 19 32 27.8 40.5 15.2 14.7 16 16.7 16.4 38.4 0.6 33.5-5.3 37.3-57.5 37.2-54.1-0.1-55.6-1.3-64.6-53-3.7-21.6-7.8-57.4-9.1-79.6-1.3-22.1-5.9-53.5-10.1-69.7-9.2-34.9-9.4-49.2-1.4-95.9 3.3-19.4 5.4-47.1 4.8-61.6-1.1-24-1.6-25.5-5.7-16.3-8.2 18.4-17 90.8-18.4 150.1-2.5 110.4-12.5 223.4-20.5 231.4-4.6 4.7-111 6-128.9 1.6-15.9-3.9-20.4-13.4-16.4-34.9 2.4-12.3 15.6-27.1 40.8-45.5 14.6-10.6 17.8-33 15.5-107.4-1.6-51.1-0.6-71.5 5.9-114.4 4.3-28.7 7.9-53.4 7.9-55s-16.6-7.5-36.8-13.2-44-12.9-53-16c-8.9-3.1-16.7-5.1-17.4-4.3-0.6 0.7-5 8.9-9.7 18.1-4.6 9.3-23.4 36-41.7 59.3-54.1 69.3-74.1 111.8-63.9 136.4 2.7 6.5 14.6 20.2 26.6 30.6 35.6 30.9 39.4 46.8 24.7 105.5-3.3 13.4-6.9 28.2-7.9 32.9-4.3 19.2-50.3 27-70.6 11.8z"></path><path id="path5614" style="fill:#c36e3c" inkscape:connector-curvature="0" d="m1917.7 4922.1c3.4 0 0.4-5-7.8-12.7-10-9.4-13.5-15.8-13.5-24.7 0-7.1 1.6-11.1 3.8-9.7 2 1.3 3.7 5.4 3.7 9.1 0 12 14.7 26.7 26.5 26.7 13.2 0 14.2-1.6 22.9-35.3 12.2-46.6 11-51.8-18.3-80.8-14-13.9-28.8-27.1-32.9-29.4-6.4-3.5-7.6-8.1-7.6-28.2 0-31 12.8-58.6 52.4-112.7 37.6-51.3 60.9-86.5 64.1-96.7 1.9-6.2-2-13.5-17.3-32-27.7-33.4-104-110.8-106.7-108.1-1.2 1.2 2.1 15 7.4 30.7 17.6 52.5 12.7 89.5-22.9 171-28.6 65.7-38.8 97.7-41.4 130.1-2.1 25.7-1.5 28.9 9.4 49.1 6.4 12 16.7 31.2 22.9 42.8s12.3 29.4 13.7 39.6c2.5 18.8 6.3 23.3 10.6 12.3 1.3-3.4 3.3-5.3 4.4-4.2 1.2 1.2-0.4 6.9-3.4 12.8-3.1 5.9-6.4 17.2-7.5 25.2-1.7 13-0.8 15.1 10 21.6 6.5 4 14.1 6.4 16.9 5.4 2.7-1 7.5-1.9 10.6-1.9z"></path><path id="path5616" style="fill:#c36e3c" inkscape:connector-curvature="0" d="m2099.9 4906.5c-1.4-12 5.8-36.7 10.8-36.7 1.9 0 1.8 4.2-0.3 9.7-2 5.3-3.7 14.4-3.7 20.3 0 9.7 1.5 10.8 16.6 13.1 9.1 1.4 21 1.4 26.4 0 8.7-2.2 9.6-3.9 8.1-16.2-1-8.2 0.6-17.5 4-23.1 5.5-9.3 5.6-9.2 3.3 4.9-1.2 7.9-0.3 20.2 2 27.4 3.6 10.7 6.1 12.9 15 12.9 24.5 0 25.5-6.1 28-173.3 1.7-104.3 2.7-119.5 11.6-163.9 12-60.2 33.8-159.9 43.2-197.9 7.9-31.5 6.4-49.3-7.2-88.2-9.1-26.2-9.6-31.1-2.5-25.2 7.4 6.2 25.8 66.1 25.6 83.4-0.2 8-5.3 32.9-11.5 55.3-12.4 44.8-20.9 88.7-18.6 95.8 1.8 5.3 40-40.9 50.4-60.8 3.7-7.2 9.1-22.5 11.8-33.9l4.9-20.7-1.6 21.2c-1.9 25.4-7.6 37.4-36.1 75.3l-21.5 28.7-2.6 44c-1.4 24.2-4.8 56.3-7.7 71.2-5.6 29.4-4.4 52.5 4 76.1 3 8.3 7 37.1 9.1 64.1 5.3 71.2 10.2 106.2 17.2 120.8 5.4 11.4 7.8 12.9 20.3 12.9 16.1 0 18.9-3.9 18.9-26.4 0-8 1.9-15.8 4.3-17.3 3.3-2 3.8 3.8 2.1 22.2l-2.3 24.8 11.3-4c13.3-4.6 22.3-17 26.5-36.3 2.8-13.1 2.9-12.9 1.5 3.1-0.8 9.3-2.7 20.9-4.1 25.7-2.5 8.1-1.7 8.7 10.1 7.6 10.9-1.1 12.9-2.8 14-12.2 2.4-21.1-3.2-35.6-21.6-55.8-10-10.9-20.8-25.1-24-31.4-11.8-23-18.5-59.5-18.7-101.6-0.2-69.7 11.5-128.6 38.3-191.7 28.5-67.2 32.3-84.5 31.8-145.5-0.8-94.3-19.2-172.3-47.2-200.3-21.9-21.9-30.6-26-60.3-28.5l-27.6-2.3 18.3 20.3c23.5 26.2 38.1 47.5 46 67.2 9.9 24.8 3.9 21.9-9-4.3-21.1-42.8-59.4-75.8-110.8-95.5-33.5-12.8-40.8-18.8-62.6-52.3l-17.1-26.2-13.2 47c-11.8 42.1-13.1 51.7-13.2 94 0 44.8-0.3 46.4-5.5 33.9-8.4-20.1-6.6-63.8 4.5-109.3 13.7-55.7 17-81.6 13.5-105.5-1.7-11.4-3.2-30.9-3.4-43.3s-1.4-26.7-2.7-31.7c-2.2-8.2-3.4-7.2-13 11.3-6.8 13.2-10.6 26.4-10.7 37.4-0.6 56.8-16.1 120.5-46 188.4-36.7 83.5-39.6 101.9-26 165.8 4.2 19.7 7.7 40.2 7.7 45.5 0.1 17 22.2 55.8 38.4 67.6 8.2 5.9 16.9 11.5 19.4 12.3 2.4 0.9 3.3 2.9 1.8 4.5-5.1 5.5-37-14-55-33.8-40.8-44.6-73.5-108.1-91.3-177.2-13.2-51.1-24.3-78.9-30-75.4-2.1 1.3-3.9 5.3-3.9 8.8s-7.7 24.1-16.9 45.9c-19 44.4-21.3 65-10.6 96.4 9.7 28.6 15.7 36.5 70.1 91.5 27.9 28.3 58.6 62.3 68.4 75.7 21.7 29.8 30.6 35.4 71.7 45.2 17.8 4.2 37.6 10.4 44.1 13.7 9.7 5 12.3 5.2 15 1 3.3-5 1.3-92.7-2.8-121.9-3.1-21.7-16.2-65.2-20.5-67.9-5.5-3.4-4.3-9.4 1.4-7.2 9.8 3.8 21.1 30.7 27.1 64.1 7 39.6 10.4 141.6 5.6 171.2-1.8 11.4-6 37.7-9.3 58.4-3.2 20.7-7 68.2-8.3 105.5-1.5 45.2-4 71.2-7.4 77.9-2.8 5.6-12.6 15.5-21.8 22.1-17.2 12.4-23.8 23.5-25.5 43.2-1.4 16.5 3.1 21.3 18.9 20 12.6-1.1 13.7-2.1 12.6-11.6z"></path><path id="path5618" style="fill:#fac36e" inkscape:connector-curvature="0" d="m2002.4 4382.4c-9.6-36.4-18-102-16-124.4 1.2-13.7 8.5-37.7 19.7-64.7 54.6-132.5 67.5-201.9 47.7-257.4-4.4-12.3-7.3-23.1-6.4-24 2.2-2.2 17.1 22.5 17.1 28.4 0.1 17.6 24-23.5 28.5-48.9 7.4-41.9-18.5-71.5-69.9-79.8-13.1-2.1-13.1-2.1-4.9 4.4 14 11.1 16.7 24.5 10.5 51.5-5.9 25.4-4.3 44.4 4.3 51.6 12.4 10.3 2.9 47.3-21.9 85.4-17 26.1-22.2 29.2-10.6 6.4 13.3-26.1 9.4-43.2-9.8-43.2-18 0-41.2 21.5-48.2 44.7-3 9.6-10.6 31.5-17 48.8-13 34.8-14.8 58.7-5.8 77.2l5.8 12-9.4-10.4c-19.5-21.3-17.1-54.3 8.7-120.2 10.1-25.7 19.4-43.3 27-50.5 11-10.5 13-11 41.4-10.1 29.1 0.9 29.8 0.7 32.2-8.8 6.7-26.8-12.3-45.8-41.5-41.4-19.9 3-56.6 20.1-73.2 34.2-11.3 9.5-12.5 12.3-11.3 27 0.7 8.9 0.3 16.3-0.9 16.3s-5.1-6.3-8.8-14c-10.8-22.6-28.4-42.5-37.5-42.5-11.5 0-25.1-10.3-25.1-19.1 0-8.4-1.4-8.8-11.5-3.4-18.6 10-24.8 52.2-11.4 78.2 8.6 16.8 22.3 30 47.2 45.6 14.5 9.1 16.8 11.7 10.2 11.7-9.3 0-28.9-9-39.2-18-6.2-5.4-6.6-4.1-6.6 22.4 0 38.3 10.1 53.9 58.6 90.2 42.4 31.7 42.9 32.5 58.4 102.9 13.9 62.4 17.7 75.9 27.2 94.6 8.7 17.4 44.7 70.5 46.5 68.7 0.7-0.7-1.2-10.3-4.1-21.4z"></path><path id="path5620" style="fill:#804212" inkscape:connector-curvature="0" d="m2383.5 4228.7c14.2-35.6 15.4-86.7 4-178.9-11.5-93.4-12.5-146.9-4-212.1 1.6-12.3 1-15.6-2.5-13.6-3.7 2-3.7 1.5 0-2.4 7.8-8.4 5.4-83.5-4.2-133.6-0.8-4.2-1.8-8-2.4-8.5-0.9-0.9-2.2-5.4-3.3-11.3-0.3-1.6-2.3-0.3-4.5 2.8-3.2 4.5-3.5 4.1-1.8-2.2 1.4-5-0.7-11.6-5.7-17.9-4.3-5.5-6.6-10-5-10 1.5 0-1.1-4.2-5.9-9.3-4.9-5.1-10.5-8.3-12.6-7s-2.7 0.5-1.3-1.7-2.6-7.7-8.8-12.1c-6.3-4.5-11.4-6.9-11.4-5.4s-3.1-0.1-7-3.7c-6.7-6-7.2-5.9-9.4 2.3-1.3 4.7-2.3 12.4-2.4 17 0 4.6-5.9 20.5-13.1 35.3-7.2 14.9-12.1 28.9-10.7 31.2 1.3 2.3 1 3-0.7 1.5s-5.3 0.2-8 3.8c-6.1 8-6.5 12.1-1.2 12.1 2.2 0 2.9-1.7 1.7-3.7-1.3-2.1-0.6-3.8 1.6-3.8 6.8 0 4.5 6.3-4.4 12.2-7.4 4.9-7.8 6.4-3.2 12 2.9 3.4 7.4 5.5 9.9 4.5 5.1-2 21.6 11.7 19.2 15.8-0.9 1.4-2.7 11.1-4.1 21.4s-5.2 21.7-8.4 25.3c-3.3 3.6-5.9 10.8-5.9 16s-1.5 8.6-3.3 7.4c-1.8-1.1-3.3 0-3.3 2.4s-5.3 11-11.7 19.2c-11.3 14.1-11.7 15.9-9.8 42 1 14.9 2.6 29.7 3.5 32.8 1 3.1 3.1 12.4 4.8 20.7 2.6 12.7 3.5 13.9 6.3 7.5 2.6-6 2.9-5.4 1.8 3.1-1.2 8.5-0.3 10.2 4.6 8.3s5.2-1.4 1.4 2.4c-5.6 5.6-6.3 12.2-1 8.9 2.2-1.3 2.8 0.2 1.5 3.6-1.2 3.2-0.7 5.8 1.1 5.8 1.9 0 3.7 3.7 4 8.1 0.4 4.5 2.6 10 5 12.3 3.3 3.1 3.8 1.8 1.9-5.3-2.1-7.9-1.8-8.4 1.7-2.8 2.3 3.6 3.1 8.3 1.8 10.4-1.3 2-0.9 5.8 0.7 8.4 3 4.7 3.6 6.7 4.5 14.4 0.3 2.2 2 3 3.9 1.9 1.8-1.2 4.3 0.5 5.6 3.7 1.2 3.3 0.6 4.8-1.5 3.5-5.6-3.4-4.5 4.2 1.3 9 2.8 2.3 6.5 2.9 8.2 1.4 1.6-1.5 1.8-0.7 0.3 2-1.5 2.6 1.6 13.9 6.9 25.2 5.3 11.2 9.7 23 9.7 26.3 0 3.2 1.8 5.9 4 5.9 2.4 0 3 3.2 1.5 8-1.4 4.4-1.1 7.1 0.7 6s3.7 8.3 4.3 20.9c0.8 18.7 2.7 24.6 10.7 32.6 5.4 5.3 11.6 9.7 13.8 9.7s4.6 2.6 5.5 5.7c1.4 5 1.1 5-2.5 0-5.1-7.2-5.3-2.1-0.3 6.6 9.1 15.8 15.3 37.3 15.2 52.7-0.1 13.2 6 10 12.7-6.7z"></path><path id="path5622" style="stroke:#000000;fill:#ffffff" inkscape:connector-curvature="0" d="m2324.3 4130.5c0-17.3-14.5-58.7-40.2-114.9-41.5-90.8-50.2-114.3-52.9-142.8l-2.2-23.3-16.5 11.3c-25.6 17.7-61 32.8-88.9 38l-25.4 4.8v15.6c0 21.5 10.2 79 17.7 99.5 9.1 24.8 38.8 69.5 52.6 79 17 11.6 40.4 17.9 92.9 24.8 25.2 3.2 46.5 6.7 47.4 7.6 1.9 1.9 15.5 2.3 15.5 0.4z"></path><path id="path5624" style="fill:#cda55e" inkscape:connector-curvature="0" d="m1711.4 3983.4c25.2-10.8 45.3-12.8 65.6-6.7 17.7 5.3 17.8 5.3 15.6-3.3-1.2-4.7-2.4-31.9-2.6-60.4-0.5-46.1 0.3-52.9 6.9-61.8 9-12.2 24.8-14.2 53.1-6.7l20.1 5.2 18.5-12.4c10.2-6.8 27.8-14.4 39.1-16.7 19.5-4.1 20.7-5 22.6-17.3 6.7-42.7 5-39.3 19.4-39.3 16.6 0 31.7 7.8 44.4 22.8 14.6 17.3 19 12.1 8.2-9.6-9.5-18.9-31.6-36.4-52.6-41.7-9.7-2.4-12.1 0-32.3 32.9-9.1 14.8-15.6 19.8-40 31.5-31.3 14.8-39.3 15.4-74.6 5.3l-18.3-5.3-10.8 12.9c-13.8 16.5-21.5 40.6-23.3 72.5-1.8 31.1-7.6 39.5-55.9 80.8-54.5 46.6-61.3 53.2-38.9 37.6 10.4-7.3 26.5-16.4 35.8-20.3z"></path><path id="path5626" style="stroke:#000000;fill:#ffffff" inkscape:connector-curvature="0" d="m1919.2 3929.4c7.4-5.2 57.9-23.6 70.5-25.8 4.7-0.8 5.5-2.6 3.1-6.5-3-4.8-6.4-4.6-25.4 1.4-29.6 9.3-66 27.9-63.3 32.4 3.1 4.9 6.4 4.6 15.1-1.5z"></path><path id="path5628" style="fill:#fbc36e" inkscape:connector-curvature="0" d="m1896.8 3920.8c37.6-10.6 42.9-25.4 10.7-29.6-10-1.4-23.8-5.9-30.6-10-14.7-9-21.8-6.5-36.4 12.7-10.3 13.4-12.2 24.7-5.4 31.5 5.1 5.1 35.7 2.8 61.7-4.6z"></path><path id="path5630" style="stroke:#000000;fill:#ffffff" inkscape:connector-curvature="0" d="m1804.2 3888.7c0-4.2-1.7-7.6-3.8-7.6-2 0-3.7 3.4-3.7 7.6 0 4.1 1.7 7.5 3.7 7.5 2.1 0 3.8-3.4 3.8-7.5z"></path><path id="path5632" style="stroke:#000000;fill:#ffffff" inkscape:connector-curvature="0" d="m1839.6 3870.3c5.8-6.5 5.9-7.3 0.3-9.4-13.6-5.2-19.7-2.8-17.8 7 2.2 11.2 8.7 12.1 17.5 2.4z"></path><path id="path5634" style="fill:#fbc36e" inkscape:connector-curvature="0" d="m1999.4 3888.6c30.3-14.3 44.3-39.9 29.1-53.2-15.8-13.8-57.5-7.5-57.5 8.7 0 3.9-3.6 14.5-8.1 23.7-4.4 9.1-7 19.4-5.7 22.7 3.2 8.5 21.8 7.7 42.2-1.9z"></path><path id="path5636" style="fill:#cda55f" inkscape:connector-curvature="0" d="m2103.9 3820.9c0.2-12 14.1-39.5 29.2-58 10-12.2 11.8-16.1 6.5-13.8-36.7 15.1-58.9 20.8-82.1 20.9-27.7 0-26.2-1.5-19.9 20.8 1.4 4.9 8.8 10 20.7 14.2 10.7 3.8 23 11.8 29.2 19 10.9 12.7 16.1 11.7 16.4-3.1z"></path><path id="path5638" style="stroke:#000000;fill:#ffffff" inkscape:connector-curvature="0" d="m2011.5 3791.1c0-4.6-8-10.3-17.9-12.7-7.1-1.7-8.5-0.5-8.5 7 0 7.8 1.8 9 13.2 9 7.2 0 13.2-1.4 13.2-3.3z"></path><path id="path6611" style="stroke:#000000;fill:#ffffff" inkscape:connector-curvature="0" d="m1958.2 3796.7c0-4.2 1.7-7.6 3.7-7.6 2.1 0 3.8 3.4 3.8 7.6 0 4.1-1.7 7.5-3.8 7.5-2 0-3.7-3.4-3.7-7.5z"></path></g><g id="g6796"><path id="path6648" style="fill:#000000" inkscape:connector-curvature="0" d="m128.78 629.39c-1.33-0.99-1.45-1.37-1.45-4.65 0-4.3-0.64-6.54-3.95-13.72l-2.53-5.49 0.31-5.07c0.36-5.8 1.2-8.78 5.1-18 4.05-9.59 4.77-11.93 4.77-15.55 0-3.95-1.04-8.09-3.51-14.03-4.11-9.86-4.24-13.19-0.84-21.19 1.16-2.72 2.28-5.95 2.48-7.17 0.32-1.93 0.2-2.38-0.91-3.43-6.52-6.15-7.83-7.62-8.63-9.72-0.48-1.27-1.08-2.31-1.31-2.31-0.24 0-2.65 1-5.35 2.23-4.89 2.23-4.92 2.24-11.24 2.25-3.486 0-7.192-0.18-8.237-0.4l-1.9-0.41 0.41-2.59c0.739-4.68 2.716-7.28 10.197-13.44 2.99-2.45 6.51-5.66 7.83-7.13 2.26-2.52 2.42-2.88 2.63-6.25 0.28-4.37 2.25-9.4 4.26-10.89 1.35-1 1.64-1.03 3.96-0.36 4.76 1.37 5.97 1.29 9.91-0.6 3.37-1.63 3.82-2.04 5.35-4.93 0.92-1.74 1.96-3.49 2.32-3.88 1.17-1.3 4.51-0.35 8.68 2.46 5.29 3.58 5.17 3.59 22.71-2.73 3.66-1.32 6.18-1.91 8.22-1.91l2.93-0.01 0.67-2.6c0.37-1.44 1.49-4.32 2.49-6.41 1-2.08 2.2-5.3 2.66-7.16 0.55-2.17 1.12-3.36 1.6-3.36 2.63 0 7.94 5.29 10.61 10.59 2.42 4.79 3.11 11.7 2.3 23.05-0.85 11.95-0.73 19.53 0.43 28.2 2.12 15.74 1.93 22.49-0.83 30.15l-1.33 3.69 0.83 5.72c1.78 12.15 0.56 20.1-5.16 33.56-2.2 5.19-3.16 11.94-3.2 22.66l-0.04 9.51 1.66 3.51c0.92 1.94 2.68 4.5 3.91 5.69 2.12 2.06 2.24 2.33 2.29 5.37 0.09 4.7-0.74 5.23-8.05 5.22-7.59-0.02-7.8-0.19-9.05-7.42-0.52-3.03-1.1-8.05-1.29-11.16-0.18-3.11-0.81-7.5-1.41-9.77-1.28-4.9-1.31-6.9-0.2-13.44 0.46-2.71 0.77-6.6 0.68-8.63-0.15-3.36-0.22-3.57-0.8-2.28-1.14 2.58-2.39 12.72-2.58 21.03-0.35 15.47-1.75 31.3-2.87 32.43-0.64 0.65-15.56 0.83-18.06 0.22-2.24-0.54-2.86-1.88-2.3-4.89 0.33-1.73 2.18-3.8 5.72-6.38 2.04-1.49 2.49-4.63 2.16-15.05-0.22-7.16-0.07-10.01 0.83-16.02 0.61-4.03 1.11-7.5 1.11-7.72s-2.32-1.05-5.15-1.85-6.17-1.81-7.43-2.24c-1.25-0.44-2.35-0.71-2.44-0.61-0.09 0.11-0.7 1.25-1.36 2.55-0.65 1.29-3.28 5.03-5.84 8.31-7.59 9.71-10.39 15.67-8.96 19.1 0.37 0.92 2.05 2.85 3.72 4.3 5 4.33 5.53 6.55 3.48 14.78-0.47 1.88-0.98 3.96-1.12 4.61-0.6 2.69-7.05 3.78-9.89 1.66z"></path><path id="path6650" style="fill:#000000" inkscape:connector-curvature="0" d="m111.77 629.45c0.47 0 0.04-0.69-1.1-1.78-1.4-1.31-1.89-2.21-1.89-3.46 0-0.99 0.22-1.55 0.53-1.36 0.29 0.18 0.53 0.76 0.53 1.28 0 1.67 2.05 3.74 3.7 3.74 1.85 0 1.99-0.22 3.22-4.95 1.7-6.54 1.54-7.26-2.57-11.32-1.96-1.94-4.04-3.8-4.62-4.12-0.88-0.49-1.05-1.13-1.05-3.96 0-4.34 1.79-8.2 7.34-15.78 5.27-7.2 8.53-12.13 8.98-13.55 0.27-0.88-0.28-1.9-2.43-4.49-3.87-4.68-14.57-15.52-14.94-15.15-0.17 0.17 0.29 2.1 1.03 4.3 2.47 7.37 1.78 12.54-3.2 23.96-4.02 9.22-5.451 13.7-5.815 18.23-0.288 3.6-0.201 4.06 1.325 6.89 0.9 1.67 2.34 4.37 3.21 6 0.86 1.62 1.72 4.12 1.91 5.54 0.35 2.65 0.89 3.27 1.49 1.72 0.18-0.47 0.46-0.73 0.62-0.57s-0.06 0.96-0.48 1.79c-0.43 0.82-0.9 2.41-1.04 3.52-0.25 1.82-0.11 2.12 1.39 3.04 0.91 0.56 1.98 0.89 2.37 0.75 0.38-0.15 1.05-0.27 1.49-0.27z"></path><path id="path6652" style="fill:#000000" inkscape:connector-curvature="0" d="m244.16 623.97c-0.2-1.69 0.82-5.14 1.52-5.14 0.27 0 0.25 0.58-0.04 1.35-0.28 0.75-0.52 2.03-0.52 2.85 0 1.35 0.21 1.52 2.32 1.84 1.28 0.19 2.94 0.19 3.7 0 1.23-0.31 1.35-0.55 1.14-2.27-0.14-1.15 0.09-2.45 0.56-3.24 0.77-1.3 0.78-1.29 0.47 0.69-0.18 1.11-0.06 2.83 0.27 3.83 0.5 1.5 0.86 1.81 2.11 1.81 3.42 0 3.56-0.86 3.92-24.29 0.23-14.61 0.38-16.74 1.62-22.97 1.68-8.43 4.73-22.39 6.06-27.72 1.1-4.42 0.9-6.91-1.01-12.36-1.28-3.67-1.35-4.36-0.35-3.53 1.04 0.87 3.61 9.25 3.58 11.68-0.02 1.12-0.74 4.61-1.61 7.75-1.74 6.27-2.93 12.43-2.6 13.43 0.25 0.74 5.6-5.74 7.06-8.52 0.53-1.02 1.27-3.16 1.65-4.75l0.68-2.91-0.22 2.98c-0.26 3.55-1.06 5.24-5.05 10.55l-3.02 4.02-0.36 6.17c-0.19 3.39-0.68 7.88-1.08 9.97-0.78 4.12-0.61 7.36 0.57 10.67 0.41 1.16 0.98 5.2 1.26 8.98 0.74 9.98 1.44 14.88 2.41 16.93 0.76 1.59 1.1 1.81 2.86 1.81 2.25 0 2.63-0.55 2.63-3.71 0-1.12 0.28-2.21 0.62-2.41 0.45-0.28 0.52 0.53 0.28 3.1l-0.32 3.48 1.59-0.56c1.86-0.64 3.13-2.39 3.71-5.09 0.4-1.83 0.41-1.8 0.21 0.44-0.11 1.31-0.38 2.93-0.58 3.6-0.34 1.14-0.23 1.22 1.42 1.06 1.53-0.15 1.81-0.39 1.96-1.71 0.34-2.96-0.45-4.99-3.02-7.82-1.4-1.53-2.92-3.51-3.37-4.4-1.65-3.21-2.59-8.33-2.61-14.23-0.04-9.77 1.61-18.03 5.36-26.86 4-9.42 4.53-11.86 4.46-20.4-0.11-13.21-2.69-24.14-6.62-28.07-3.07-3.07-4.28-3.64-8.44-3.99l-3.88-0.33 2.57 2.85c3.29 3.67 5.33 6.65 6.44 9.42 1.39 3.47 0.55 3.06-1.26-0.61-2.95-6-8.31-10.62-15.53-13.37-4.69-1.8-5.71-2.65-8.77-7.33l-2.4-3.68-1.84 6.58c-1.65 5.91-1.84 7.26-1.85 13.18 0 6.28-0.04 6.51-0.77 4.75-1.19-2.82-0.93-8.94 0.63-15.31 1.92-7.8 2.38-11.44 1.89-14.79-0.23-1.59-0.45-4.33-0.47-6.07-0.03-1.74-0.2-3.74-0.39-4.43-0.31-1.16-0.47-1.02-1.81 1.58-0.96 1.84-1.49 3.7-1.5 5.24-0.09 7.95-2.27 16.88-6.45 26.39-5.14 11.71-5.55 14.28-3.64 23.24 0.59 2.76 1.07 5.63 1.08 6.38 0.01 2.37 3.11 7.82 5.38 9.47 1.15 0.83 2.37 1.61 2.71 1.73 0.35 0.12 0.46 0.4 0.26 0.62-0.72 0.78-5.18-1.96-7.72-4.73-5.71-6.25-10.29-15.15-12.79-24.83-1.85-7.16-3.4-11.06-4.19-10.57-0.3 0.19-0.55 0.74-0.55 1.23-0.01 0.49-1.08 3.39-2.38 6.43-2.66 6.23-2.98 9.11-1.48 13.51 1.36 4.01 2.2 5.12 9.82 12.83 3.91 3.96 8.22 8.73 9.59 10.61 3.04 4.17 4.28 4.96 10.05 6.33 2.49 0.59 5.27 1.45 6.17 1.92 1.36 0.7 1.73 0.73 2.11 0.14 0.47-0.7 0.18-12.99-0.4-17.08-0.42-3.04-2.26-9.14-2.86-9.52-0.78-0.47-0.62-1.31 0.19-1 1.37 0.52 2.96 4.3 3.79 8.97 0.99 5.56 1.46 19.85 0.8 23.99-0.26 1.6-0.85 5.28-1.31 8.19-0.46 2.9-0.98 9.56-1.16 14.78-0.22 6.34-0.57 9.98-1.04 10.92-0.4 0.78-1.77 2.18-3.06 3.1-2.41 1.73-3.33 3.29-3.57 6.05-0.2 2.32 0.43 2.99 2.65 2.8 1.77-0.15 1.92-0.28 1.76-1.62z"></path><path id="path6654" style="fill:#000000" inkscape:connector-curvature="0" d="m78.821 561.65c-1.346-5.1-2.531-14.3-2.247-17.43 0.174-1.92 1.197-5.29 2.756-9.07 7.656-18.57 9.46-28.3 6.685-36.07-0.614-1.73-1.014-3.24-0.888-3.36 0.31-0.31 2.394 3.15 2.396 3.98 0.008 2.46 3.361-3.3 3.993-6.87 1.04-5.86-2.6-10.01-9.799-11.17-1.836-0.3-1.84-0.3-0.688 0.62 1.967 1.56 2.349 3.42 1.472 7.21-0.826 3.56-0.605 6.23 0.599 7.23 1.742 1.44 0.414 6.63-3.062 11.97-2.382 3.65-3.115 4.1-1.482 0.89 1.861-3.65 1.311-6.05-1.383-6.05-2.52 0-5.768 3.01-6.755 6.26-0.409 1.35-1.479 4.43-2.379 6.84-1.816 4.88-2.069 8.24-0.816 10.82l0.82 1.69-1.324-1.46c-2.725-2.99-2.39-7.61 1.223-16.85 1.41-3.6 2.725-6.06 3.783-7.07 1.544-1.48 1.818-1.55 5.797-1.42 4.086 0.12 4.184 0.09 4.516-1.23 0.943-3.76-1.725-6.42-5.82-5.8-2.776 0.41-7.922 2.82-10.258 4.79-1.578 1.33-1.743 1.73-1.58 3.78 0.1 1.26 0.046 2.29-0.12 2.29s-0.723-0.89-1.237-1.96c-1.51-3.17-3.975-5.96-5.26-5.96-1.612 0-3.506-1.45-3.506-2.67 0-1.18-0.204-1.24-1.613-0.49-2.611 1.4-3.477 7.32-1.603 10.97 1.212 2.35 3.121 4.2 6.62 6.39 2.032 1.27 2.349 1.64 1.426 1.64-1.307 0-4.051-1.26-5.49-2.52-0.87-0.77-0.924-0.58-0.924 3.13 0 5.37 1.415 7.55 8.21 12.64 5.935 4.44 6.005 4.56 8.186 14.42 1.936 8.74 2.479 10.64 3.799 13.25 1.233 2.44 6.276 9.88 6.528 9.63 0.093-0.09-0.166-1.44-0.575-2.99z"></path><path id="path6656" style="fill:#000000" inkscape:connector-curvature="0" d="m232.14 499.47c1.99-4.99 2.15-12.15 0.56-25.06-1.61-13.09-1.75-20.59-0.56-29.73 0.23-1.72 0.14-2.18-0.36-1.9s-0.5 0.21 0.01-0.35c1.09-1.17 0.76-11.7-0.59-18.72-0.11-0.58-0.26-1.11-0.33-1.18-0.13-0.13-0.32-0.77-0.47-1.59-0.04-0.22-0.33-0.04-0.63 0.4-0.44 0.63-0.49 0.57-0.25-0.31 0.2-0.7-0.1-1.63-0.79-2.51-0.61-0.77-0.93-1.41-0.71-1.41 0.21 0-0.16-0.58-0.83-1.3-0.68-0.72-1.47-1.16-1.76-0.97-0.29 0.18-0.38 0.07-0.18-0.24 0.19-0.32-0.37-1.08-1.24-1.71-0.88-0.62-1.59-0.96-1.59-0.75s-0.45-0.02-0.99-0.51c-0.94-0.85-1.01-0.83-1.31 0.31-0.18 0.67-0.33 1.74-0.33 2.39-0.01 0.64-0.84 2.87-1.85 4.95s-1.69 4.04-1.5 4.37 0.15 0.42-0.09 0.2c-0.24-0.21-0.74 0.03-1.12 0.53-0.86 1.12-0.91 1.71-0.17 1.71 0.3 0 0.41-0.24 0.23-0.53s-0.08-0.53 0.23-0.53c0.95 0 0.62 0.89-0.62 1.72-1.03 0.68-1.09 0.89-0.44 1.67 0.4 0.49 1.03 0.78 1.38 0.64 0.72-0.28 3.03 1.63 2.69 2.21-0.12 0.2-0.38 1.55-0.58 3-0.19 1.45-0.72 3.04-1.17 3.55-0.46 0.5-0.83 1.51-0.83 2.24s-0.21 1.2-0.46 1.04c-0.26-0.16-0.46-0.01-0.46 0.33s-0.74 1.55-1.65 2.69c-1.57 1.98-1.63 2.23-1.37 5.88 0.15 2.1 0.38 4.17 0.5 4.61 0.13 0.43 0.43 1.73 0.66 2.89 0.37 1.78 0.5 1.95 0.89 1.06 0.36-0.85 0.41-0.76 0.25 0.43-0.17 1.2-0.04 1.42 0.65 1.16s0.73-0.19 0.2 0.34c-0.79 0.79-0.89 1.71-0.14 1.25 0.3-0.19 0.39 0.03 0.21 0.5-0.18 0.45-0.11 0.82 0.15 0.82s0.52 0.51 0.56 1.13c0.05 0.62 0.36 1.4 0.7 1.72 0.46 0.43 0.53 0.25 0.27-0.74-0.29-1.11-0.26-1.17 0.23-0.39 0.32 0.51 0.44 1.16 0.26 1.45s-0.14 0.82 0.09 1.18c0.42 0.66 0.51 0.95 0.64 2.01 0.03 0.31 0.28 0.43 0.54 0.27s0.61 0.08 0.78 0.52c0.18 0.47 0.09 0.68-0.21 0.5-0.78-0.49-0.62 0.58 0.19 1.25 0.39 0.33 0.9 0.41 1.14 0.2 0.24-0.22 0.26-0.09 0.05 0.27-0.21 0.37 0.23 1.96 0.97 3.54 0.75 1.57 1.36 3.23 1.36 3.69 0 0.45 0.25 0.82 0.56 0.82 0.33 0 0.42 0.46 0.21 1.12-0.2 0.62-0.16 1 0.09 0.85s0.52 1.16 0.6 2.92c0.12 2.63 0.39 3.45 1.51 4.57 0.76 0.75 1.62 1.37 1.93 1.37 0.3 0 0.65 0.35 0.77 0.79 0.19 0.7 0.15 0.7-0.34 0-0.72-1.01-0.75-0.29-0.05 0.93 1.27 2.21 2.14 5.23 2.13 7.39-0.01 1.85 0.84 1.4 1.78-0.95z"></path><path id="path6658" style="fill:#000000" inkscape:connector-curvature="0" d="m197.43 437.25c0-2.43-2.03-8.23-5.63-16.11-5.82-12.73-7.04-16.01-7.41-20l-0.31-3.28-2.31 1.59c-3.6 2.48-8.55 4.59-12.46 5.33l-3.56 0.67v2.18c0 3.02 1.43 11.07 2.48 13.94 1.28 3.49 5.45 9.74 7.37 11.07 2.38 1.64 5.67 2.52 13.02 3.48 3.53 0.46 6.52 0.94 6.64 1.07 0.26 0.26 2.17 0.31 2.17 0.06z"></path><path id="path6660" style="fill:#000000" inkscape:connector-curvature="0" d="m105.18 498.08c3.53-1.51 6.35-1.8 9.19-0.94 2.49 0.75 2.49 0.75 2.19-0.45-0.16-0.67-0.33-4.48-0.37-8.47-0.06-6.46 0.05-7.42 0.97-8.66 1.27-1.71 3.49-1.99 7.44-0.95l2.82 0.74 2.59-1.74c1.43-0.96 3.89-2.02 5.48-2.35 2.74-0.56 2.91-0.69 3.18-2.41 0.93-5.99 0.69-5.51 2.7-5.51 2.34 0 4.46 1.08 6.23 3.19 2.04 2.43 2.67 1.7 1.14-1.35-1.32-2.64-4.41-5.1-7.37-5.84-1.35-0.34-1.68 0-4.52 4.62-1.28 2.07-2.18 2.77-5.61 4.4-4.38 2.08-5.5 2.16-10.44 0.74l-2.57-0.73-1.51 1.81c-1.93 2.31-3.02 5.69-3.27 10.16-0.25 4.35-1.07 5.53-7.84 11.32-7.633 6.53-8.59 7.45-5.45 5.27 1.47-1.02 3.73-2.3 5.02-2.85z"></path><path id="path6662" style="fill:#000000" inkscape:connector-curvature="0" d="m115.73 460.63c1.03-0.72 8.1-3.31 9.87-3.61 0.65-0.11 0.77-0.37 0.43-0.92-0.41-0.67-0.89-0.64-3.55 0.19-4.15 1.31-9.26 3.93-8.87 4.55 0.43 0.69 0.89 0.65 2.12-0.21z"></path><path id="path6664" style="fill:#000000" inkscape:connector-curvature="0" d="m113.07 458.98c5.26-1.49 6.01-3.55 1.5-4.15-1.4-0.19-3.34-0.82-4.29-1.4-2.06-1.26-3.06-0.91-5.11 1.78-1.43 1.88-1.7 3.46-0.75 4.41 0.72 0.72 5 0.4 8.65-0.64z"></path><path id="path6666" style="fill:#000000" inkscape:connector-curvature="0" d="m99.607 456.6c0-0.58-0.238-1.05-0.528-1.05-0.291 0-0.528 0.47-0.528 1.05s0.237 1.06 0.528 1.06c0.29 0 0.528-0.48 0.528-1.06z"></path><path id="path6668" style="fill:#000000" inkscape:connector-curvature="0" d="m104.56 454.03c0.83-0.91 0.83-1.02 0.04-1.32-1.89-0.73-2.75-0.39-2.48 0.99 0.3 1.57 1.21 1.69 2.44 0.33z"></path><path id="path6670" style="fill:#000000" inkscape:connector-curvature="0" d="m125.75 453.9c4.26-2 6.22-5.58 4.09-7.45-2.21-1.94-8.05-1.05-8.05 1.22 0 0.54-0.52 2.03-1.14 3.32-0.62 1.28-0.99 2.71-0.81 3.18 0.46 1.19 3.06 1.07 5.91-0.27z"></path><path id="path6672" style="fill:#000000" inkscape:connector-curvature="0" d="m140.8 446.3c0.03-1.67 1.98-5.54 4.09-8.12 1.41-1.71 1.66-2.26 0.91-1.94-5.14 2.12-8.25 2.91-11.51 2.92-3.87 0.02-3.67-0.2-2.78 2.93 0.19 0.68 1.23 1.39 2.9 1.98 1.5 0.53 3.23 1.66 4.09 2.67 1.53 1.78 2.26 1.64 2.3-0.44z"></path><path id="path6674" style="fill:#000000" inkscape:connector-curvature="0" d="m128.65 442.94c0-0.66-1.11-1.45-2.51-1.79-0.98-0.24-1.19-0.07-1.19 0.98 0 1.1 0.25 1.27 1.85 1.27 1.02 0 1.85-0.21 1.85-0.46z"></path></g><g id="g6701" transform="matrix(.14906 0 0 .14906 156.8 -108.16)"><path id="path6703" style="fill:#000000" inkscape:connector-curvature="0" d="m1881.1 4921.7c-9.5-7.1-10.3-9.8-10.3-33.1 0-30.7-4.6-46.7-28.2-97.9l-18.1-39.3 2.2-36.1c2.6-41.4 8.6-62.7 36.4-128.5 28.9-68.4 34-85.1 34-111 0-28.1-7.4-57.7-25-100-29.3-70.4-30.2-94.2-6-151.2 8.3-19.5 16.3-42.5 17.7-51.2 2.3-13.8 1.5-17-6.5-24.5-46.5-43.9-55.8-54.4-61.5-69.3-3.5-9.1-7.7-16.6-9.4-16.6s-18.9 7.2-38.2 16c-34.9 15.9-35.1 15.9-80.2 16-24.9 0-51.3-1.3-58.8-2.8l-13.5-2.9 2.9-18.6c5.3-33.3 19.4-51.9 72.8-95.8 21.3-17.6 46.4-40.5 55.9-50.9 16.1-18 17.2-20.6 18.7-44.6 2-31.2 16-67.1 30.4-77.8 9.6-7.1 11.7-7.3 28.2-2.5 34 9.7 42.7 9.2 70.8-4.3 24-11.6 27.2-14.6 38.1-35.2 6.6-12.4 14-24.8 16.6-27.7 8.4-9.2 32.2-2.5 61.9 17.6 37.8 25.5 36.9 25.6 162.1-19.5 26.1-9.4 44.1-13.6 58.6-13.6l21-0.1 4.8-18.6c2.6-10.2 10.6-30.8 17.7-45.6 7.1-14.9 15.7-37.9 19-51.2 3.9-15.4 8-24 11.4-24 18.8 0 56.7 37.8 75.7 75.6 17.3 34.2 22.2 83.5 16.4 164.5-6 85.3-5.2 139.4 3.1 201.2 15.1 112.3 13.8 160.5-5.9 215.2l-9.5 26.3 5.9 40.8c12.7 86.7 4 143.4-36.8 239.5-15.7 37.1-22.5 85.2-22.8 161.7l-0.3 67.9 11.9 25.1c6.5 13.8 19 32 27.8 40.5 15.2 14.7 16 16.7 16.4 38.4 0.6 33.5-5.3 37.3-57.5 37.2-54.1-0.1-55.6-1.3-64.6-53-3.7-21.6-7.8-57.4-9.1-79.6-1.3-22.1-5.9-53.5-10.1-69.7-9.2-34.9-9.4-49.2-1.4-95.9 3.3-19.4 5.4-47.1 4.8-61.6-1.1-24-1.6-25.5-5.7-16.3-8.2 18.4-17 90.8-18.4 150.1-2.5 110.4-12.5 223.4-20.5 231.4-4.6 4.7-111 6-128.9 1.6-15.9-3.9-20.4-13.4-16.4-34.9 2.4-12.3 15.6-27.1 40.8-45.5 14.6-10.6 17.8-33 15.5-107.4-1.6-51.1-0.6-71.5 5.9-114.4 4.3-28.7 7.9-53.4 7.9-55s-16.6-7.5-36.8-13.2-44-12.9-53-16c-8.9-3.1-16.7-5.1-17.4-4.3-0.6 0.7-5 8.9-9.7 18.1-4.6 9.3-23.4 36-41.7 59.3-54.1 69.3-74.1 111.8-63.9 136.4 2.7 6.5 14.6 20.2 26.6 30.6 35.6 30.9 39.4 46.8 24.7 105.5-3.3 13.4-6.9 28.2-7.9 32.9-4.3 19.2-50.3 27-70.6 11.8z"></path><path id="path6705" style="fill:#c36e3c" inkscape:connector-curvature="0" d="m1917.7 4922.1c3.4 0 0.4-5-7.8-12.7-10-9.4-13.5-15.8-13.5-24.7 0-7.1 1.6-11.1 3.8-9.7 2 1.3 3.7 5.4 3.7 9.1 0 12 14.7 26.7 26.5 26.7 13.2 0 14.2-1.6 22.9-35.3 12.2-46.6 11-51.8-18.3-80.8-14-13.9-28.8-27.1-32.9-29.4-6.4-3.5-7.6-8.1-7.6-28.2 0-31 12.8-58.6 52.4-112.7 37.6-51.3 60.9-86.5 64.1-96.7 1.9-6.2-2-13.5-17.3-32-27.7-33.4-104-110.8-106.7-108.1-1.2 1.2 2.1 15 7.4 30.7 17.6 52.5 12.7 89.5-22.9 171-28.6 65.7-38.8 97.7-41.4 130.1-2.1 25.7-1.5 28.9 9.4 49.1 6.4 12 16.7 31.2 22.9 42.8s12.3 29.4 13.7 39.6c2.5 18.8 6.3 23.3 10.6 12.3 1.3-3.4 3.3-5.3 4.4-4.2 1.2 1.2-0.4 6.9-3.4 12.8-3.1 5.9-6.4 17.2-7.5 25.2-1.7 13-0.8 15.1 10 21.6 6.5 4 14.1 6.4 16.9 5.4 2.7-1 7.5-1.9 10.6-1.9z"></path><path id="path6707" style="fill:#c36e3c" inkscape:connector-curvature="0" d="m2099.9 4906.5c-1.4-12 5.8-36.7 10.8-36.7 1.9 0 1.8 4.2-0.3 9.7-2 5.3-3.7 14.4-3.7 20.3 0 9.7 1.5 10.8 16.6 13.1 9.1 1.4 21 1.4 26.4 0 8.7-2.2 9.6-3.9 8.1-16.2-1-8.2 0.6-17.5 4-23.1 5.5-9.3 5.6-9.2 3.3 4.9-1.2 7.9-0.3 20.2 2 27.4 3.6 10.7 6.1 12.9 15 12.9 24.5 0 25.5-6.1 28-173.3 1.7-104.3 2.7-119.5 11.6-163.9 12-60.2 33.8-159.9 43.2-197.9 7.9-31.5 6.4-49.3-7.2-88.2-9.1-26.2-9.6-31.1-2.5-25.2 7.4 6.2 25.8 66.1 25.6 83.4-0.2 8-5.3 32.9-11.5 55.3-12.4 44.8-20.9 88.7-18.6 95.8 1.8 5.3 40-40.9 50.4-60.8 3.7-7.2 9.1-22.5 11.8-33.9l4.9-20.7-1.6 21.2c-1.9 25.4-7.6 37.4-36.1 75.3l-21.5 28.7-2.6 44c-1.4 24.2-4.8 56.3-7.7 71.2-5.6 29.4-4.4 52.5 4 76.1 3 8.3 7 37.1 9.1 64.1 5.3 71.2 10.2 106.2 17.2 120.8 5.4 11.4 7.8 12.9 20.3 12.9 16.1 0 18.9-3.9 18.9-26.4 0-8 1.9-15.8 4.3-17.3 3.3-2 3.8 3.8 2.1 22.2l-2.3 24.8 11.3-4c13.3-4.6 22.3-17 26.5-36.3 2.8-13.1 2.9-12.9 1.5 3.1-0.8 9.3-2.7 20.9-4.1 25.7-2.5 8.1-1.7 8.7 10.1 7.6 10.9-1.1 12.9-2.8 14-12.2 2.4-21.1-3.2-35.6-21.6-55.8-10-10.9-20.8-25.1-24-31.4-11.8-23-18.5-59.5-18.7-101.6-0.2-69.7 11.5-128.6 38.3-191.7 28.5-67.2 32.3-84.5 31.8-145.5-0.8-94.3-19.2-172.3-47.2-200.3-21.9-21.9-30.6-26-60.3-28.5l-27.6-2.3 18.3 20.3c23.5 26.2 38.1 47.5 46 67.2 9.9 24.8 3.9 21.9-9-4.3-21.1-42.8-59.4-75.8-110.8-95.5-33.5-12.8-40.8-18.8-62.6-52.3l-17.1-26.2-13.2 47c-11.8 42.1-13.1 51.7-13.2 94 0 44.8-0.3 46.4-5.5 33.9-8.4-20.1-6.6-63.8 4.5-109.3 13.7-55.7 17-81.6 13.5-105.5-1.7-11.4-3.2-30.9-3.4-43.3s-1.4-26.7-2.7-31.7c-2.2-8.2-3.4-7.2-13 11.3-6.8 13.2-10.6 26.4-10.7 37.4-0.6 56.8-16.1 120.5-46 188.4-36.7 83.5-39.6 101.9-26 165.8 4.2 19.7 7.7 40.2 7.7 45.5 0.1 17 22.2 55.8 38.4 67.6 8.2 5.9 16.9 11.5 19.4 12.3 2.4 0.9 3.3 2.9 1.8 4.5-5.1 5.5-37-14-55-33.8-40.8-44.6-73.5-108.1-91.3-177.2-13.2-51.1-24.3-78.9-30-75.4-2.1 1.3-3.9 5.3-3.9 8.8s-7.7 24.1-16.9 45.9c-19 44.4-21.3 65-10.6 96.4 9.7 28.6 15.7 36.5 70.1 91.5 27.9 28.3 58.6 62.3 68.4 75.7 21.7 29.8 30.6 35.4 71.7 45.2 17.8 4.2 37.6 10.4 44.1 13.7 9.7 5 12.3 5.2 15 1 3.3-5 1.3-92.7-2.8-121.9-3.1-21.7-16.2-65.2-20.5-67.9-5.5-3.4-4.3-9.4 1.4-7.2 9.8 3.8 21.1 30.7 27.1 64.1 7 39.6 10.4 141.6 5.6 171.2-1.8 11.4-6 37.7-9.3 58.4-3.2 20.7-7 68.2-8.3 105.5-1.5 45.2-4 71.2-7.4 77.9-2.8 5.6-12.6 15.5-21.8 22.1-17.2 12.4-23.8 23.5-25.5 43.2-1.4 16.5 3.1 21.3 18.9 20 12.6-1.1 13.7-2.1 12.6-11.6z"></path><path id="path6709" style="fill:#fac36e" inkscape:connector-curvature="0" d="m2002.4 4382.4c-9.6-36.4-18-102-16-124.4 1.2-13.7 8.5-37.7 19.7-64.7 54.6-132.5 67.5-201.9 47.7-257.4-4.4-12.3-7.3-23.1-6.4-24 2.2-2.2 17.1 22.5 17.1 28.4 0.1 17.6 24-23.5 28.5-48.9 7.4-41.9-18.5-71.5-69.9-79.8-13.1-2.1-13.1-2.1-4.9 4.4 14 11.1 16.7 24.5 10.5 51.5-5.9 25.4-4.3 44.4 4.3 51.6 12.4 10.3 2.9 47.3-21.9 85.4-17 26.1-22.2 29.2-10.6 6.4 13.3-26.1 9.4-43.2-9.8-43.2-18 0-41.2 21.5-48.2 44.7-3 9.6-10.6 31.5-17 48.8-13 34.8-14.8 58.7-5.8 77.2l5.8 12-9.4-10.4c-19.5-21.3-17.1-54.3 8.7-120.2 10.1-25.7 19.4-43.3 27-50.5 11-10.5 13-11 41.4-10.1 29.1 0.9 29.8 0.7 32.2-8.8 6.7-26.8-12.3-45.8-41.5-41.4-19.9 3-56.6 20.1-73.2 34.2-11.3 9.5-12.5 12.3-11.3 27 0.7 8.9 0.3 16.3-0.9 16.3s-5.1-6.3-8.8-14c-10.8-22.6-28.4-42.5-37.5-42.5-11.5 0-25.1-10.3-25.1-19.1 0-8.4-1.4-8.8-11.5-3.4-18.6 10-24.8 52.2-11.4 78.2 8.6 16.8 22.3 30 47.2 45.6 14.5 9.1 16.8 11.7 10.2 11.7-9.3 0-28.9-9-39.2-18-6.2-5.4-6.6-4.1-6.6 22.4 0 38.3 10.1 53.9 58.6 90.2 42.4 31.7 42.9 32.5 58.4 102.9 13.9 62.4 17.7 75.9 27.2 94.6 8.7 17.4 44.7 70.5 46.5 68.7 0.7-0.7-1.2-10.3-4.1-21.4z"></path><path id="path6711" style="fill:#804212" inkscape:connector-curvature="0" d="m2383.5 4228.7c14.2-35.6 15.4-86.7 4-178.9-11.5-93.4-12.5-146.9-4-212.1 1.6-12.3 1-15.6-2.5-13.6-3.7 2-3.7 1.5 0-2.4 7.8-8.4 5.4-83.5-4.2-133.6-0.8-4.2-1.8-8-2.4-8.5-0.9-0.9-2.2-5.4-3.3-11.3-0.3-1.6-2.3-0.3-4.5 2.8-3.2 4.5-3.5 4.1-1.8-2.2 1.4-5-0.7-11.6-5.7-17.9-4.3-5.5-6.6-10-5-10 1.5 0-1.1-4.2-5.9-9.3-4.9-5.1-10.5-8.3-12.6-7s-2.7 0.5-1.3-1.7-2.6-7.7-8.8-12.1c-6.3-4.5-11.4-6.9-11.4-5.4s-3.1-0.1-7-3.7c-6.7-6-7.2-5.9-9.4 2.3-1.3 4.7-2.3 12.4-2.4 17 0 4.6-5.9 20.5-13.1 35.3-7.2 14.9-12.1 28.9-10.7 31.2 1.3 2.3 1 3-0.7 1.5s-5.3 0.2-8 3.8c-6.1 8-6.5 12.1-1.2 12.1 2.2 0 2.9-1.7 1.7-3.7-1.3-2.1-0.6-3.8 1.6-3.8 6.8 0 4.5 6.3-4.4 12.2-7.4 4.9-7.8 6.4-3.2 12 2.9 3.4 7.4 5.5 9.9 4.5 5.1-2 21.6 11.7 19.2 15.8-0.9 1.4-2.7 11.1-4.1 21.4s-5.2 21.7-8.4 25.3c-3.3 3.6-5.9 10.8-5.9 16s-1.5 8.6-3.3 7.4c-1.8-1.1-3.3 0-3.3 2.4s-5.3 11-11.7 19.2c-11.3 14.1-11.7 15.9-9.8 42 1 14.9 2.6 29.7 3.5 32.8 1 3.1 3.1 12.4 4.8 20.7 2.6 12.7 3.5 13.9 6.3 7.5 2.6-6 2.9-5.4 1.8 3.1-1.2 8.5-0.3 10.2 4.6 8.3s5.2-1.4 1.4 2.4c-5.6 5.6-6.3 12.2-1 8.9 2.2-1.3 2.8 0.2 1.5 3.6-1.2 3.2-0.7 5.8 1.1 5.8 1.9 0 3.7 3.7 4 8.1 0.4 4.5 2.6 10 5 12.3 3.3 3.1 3.8 1.8 1.9-5.3-2.1-7.9-1.8-8.4 1.7-2.8 2.3 3.6 3.1 8.3 1.8 10.4-1.3 2-0.9 5.8 0.7 8.4 3 4.7 3.6 6.7 4.5 14.4 0.3 2.2 2 3 3.9 1.9 1.8-1.2 4.3 0.5 5.6 3.7 1.2 3.3 0.6 4.8-1.5 3.5-5.6-3.4-4.5 4.2 1.3 9 2.8 2.3 6.5 2.9 8.2 1.4 1.6-1.5 1.8-0.7 0.3 2-1.5 2.6 1.6 13.9 6.9 25.2 5.3 11.2 9.7 23 9.7 26.3 0 3.2 1.8 5.9 4 5.9 2.4 0 3 3.2 1.5 8-1.4 4.4-1.1 7.1 0.7 6s3.7 8.3 4.3 20.9c0.8 18.7 2.7 24.6 10.7 32.6 5.4 5.3 11.6 9.7 13.8 9.7s4.6 2.6 5.5 5.7c1.4 5 1.1 5-2.5 0-5.1-7.2-5.3-2.1-0.3 6.6 9.1 15.8 15.3 37.3 15.2 52.7-0.1 13.2 6 10 12.7-6.7z"></path><path id="path6713" style="stroke:#000000;fill:#ffffff" inkscape:connector-curvature="0" d="m2324.3 4130.5c0-17.3-14.5-58.7-40.2-114.9-41.5-90.8-50.2-114.3-52.9-142.8l-2.2-23.3-16.5 11.3c-25.6 17.7-61 32.8-88.9 38l-25.4 4.8v15.6c0 21.5 10.2 79 17.7 99.5 9.1 24.8 38.8 69.5 52.6 79 17 11.6 40.4 17.9 92.9 24.8 25.2 3.2 46.5 6.7 47.4 7.6 1.9 1.9 15.5 2.3 15.5 0.4z"></path><path id="path6715" style="fill:#cda55e" inkscape:connector-curvature="0" d="m1711.4 3983.4c25.2-10.8 45.3-12.8 65.6-6.7 17.7 5.3 17.8 5.3 15.6-3.3-1.2-4.7-2.4-31.9-2.6-60.4-0.5-46.1 0.3-52.9 6.9-61.8 9-12.2 24.8-14.2 53.1-6.7l20.1 5.2 18.5-12.4c10.2-6.8 27.8-14.4 39.1-16.7 19.5-4.1 20.7-5 22.6-17.3 6.7-42.7 5-39.3 19.4-39.3 16.6 0 31.7 7.8 44.4 22.8 14.6 17.3 19 12.1 8.2-9.6-9.5-18.9-31.6-36.4-52.6-41.7-9.7-2.4-12.1 0-32.3 32.9-9.1 14.8-15.6 19.8-40 31.5-31.3 14.8-39.3 15.4-74.6 5.3l-18.3-5.3-10.8 12.9c-13.8 16.5-21.5 40.6-23.3 72.5-1.8 31.1-7.6 39.5-55.9 80.8-54.5 46.6-61.3 53.2-38.9 37.6 10.4-7.3 26.5-16.4 35.8-20.3z"></path><path id="path6717" style="stroke:#000000;fill:#ffffff" inkscape:connector-curvature="0" d="m1919.2 3929.4c7.4-5.2 57.9-23.6 70.5-25.8 4.7-0.8 5.5-2.6 3.1-6.5-3-4.8-6.4-4.6-25.4 1.4-29.6 9.3-66 27.9-63.3 32.4 3.1 4.9 6.4 4.6 15.1-1.5z"></path><path id="path6719" style="fill:#fbc36e" inkscape:connector-curvature="0" d="m1896.8 3920.8c37.6-10.6 42.9-25.4 10.7-29.6-10-1.4-23.8-5.9-30.6-10-14.7-9-21.8-6.5-36.4 12.7-10.3 13.4-12.2 24.7-5.4 31.5 5.1 5.1 35.7 2.8 61.7-4.6z"></path><path id="path6721" style="stroke:#000000;fill:#ffffff" inkscape:connector-curvature="0" d="m1804.2 3888.7c0-4.2-1.7-7.6-3.8-7.6-2 0-3.7 3.4-3.7 7.6 0 4.1 1.7 7.5 3.7 7.5 2.1 0 3.8-3.4 3.8-7.5z"></path><path id="path6723" style="stroke:#000000;fill:#ffffff" inkscape:connector-curvature="0" d="m1839.6 3870.3c5.8-6.5 5.9-7.3 0.3-9.4-13.6-5.2-19.7-2.8-17.8 7 2.2 11.2 8.7 12.1 17.5 2.4z"></path><path id="path6725" style="fill:#fbc36e" inkscape:connector-curvature="0" d="m1999.4 3888.6c30.3-14.3 44.3-39.9 29.1-53.2-15.8-13.8-57.5-7.5-57.5 8.7 0 3.9-3.6 14.5-8.1 23.7-4.4 9.1-7 19.4-5.7 22.7 3.2 8.5 21.8 7.7 42.2-1.9z"></path><path id="path6727" style="fill:#cda55f" inkscape:connector-curvature="0" d="m2103.9 3820.9c0.2-12 14.1-39.5 29.2-58 10-12.2 11.8-16.1 6.5-13.8-36.7 15.1-58.9 20.8-82.1 20.9-27.7 0-26.2-1.5-19.9 20.8 1.4 4.9 8.8 10 20.7 14.2 10.7 3.8 23 11.8 29.2 19 10.9 12.7 16.1 11.7 16.4-3.1z"></path><path id="path6729" style="stroke:#000000;fill:#ffffff" inkscape:connector-curvature="0" d="m2011.5 3791.1c0-4.6-8-10.3-17.9-12.7-7.1-1.7-8.5-0.5-8.5 7 0 7.8 1.8 9 13.2 9 7.2 0 13.2-1.4 13.2-3.3z"></path><path id="path6731" style="stroke:#000000;fill:#ffffff" inkscape:connector-curvature="0" d="m1958.2 3796.7c0-4.2 1.7-7.6 3.7-7.6 2.1 0 3.8 3.4 3.8 7.6 0 4.1-1.7 7.5-3.8 7.5-2 0-3.7-3.4-3.7-7.5z"></path></g><text id="text6733" style="font-size:14.723px;text-anchor:middle;text-align:center;font-family:Bitstream Vera Sans;line-height:100%;fill:#000000" sodipodi:linespacing="100%" y="286.50208" x="115.24054" xml:space="preserve"> <tspan id="tspan6735" sodipodi:role="line" x="117.58415" y="286.50208">Original pic was a small .gif </tspan> <tspan id="tspan6830" sodipodi:role="line" x="117.58415" y="286.50208">from the url below. but not </tspan> <tspan id="tspan6832" sodipodi:role="line" x="117.58415" y="286.50208">god to resizing. </tspan> </text><text id="text6741" style="font-size:15.65px;text-anchor:middle;text-align:center;font-family:Bitstream Vera Sans;line-height:100%;fill:#000000" sodipodi:linespacing="100%" y="282.82156" x="467.17136" xml:space="preserve"> <tspan id="tspan6743" sodipodi:role="line" x="469.66254" y="282.82156">two different brightness level in bitmap vektorisation </tspan> </text><text id="text6745" style="font-size:13.14px;text-anchor:middle;text-align:center;font-family:Bitstream Vera Sans;line-height:100%;fill:#000000" sodipodi:linespacing="100%" y="646.27478" x="155.33031" xml:space="preserve"> <tspan id="tspan6747" sodipodi:role="line" x="157.42192" y="646.27478">the outline have to "destroy" (shift+strg+k)</tspan> </text><text id="text6749" style="font-size:13.14px;text-anchor:middle;text-align:center;font-family:Bitstream Vera Sans;line-height:100%;fill:#000000" sodipodi:linespacing="100%" y="646.83228" x="474.93753" xml:space="preserve"> <tspan id="tspan6751" sodipodi:role="line" x="477.02914" y="646.83228">after coloring u get this, but i don't like the tail</tspan> </text><path id="path6792" style="fill:#000000" inkscape:connector-curvature="0" d="m160.96 836.64c2-4.99 2.16-12.15 0.57-25.06-1.61-13.1-1.75-20.59-0.56-29.73 0.22-1.72 0.14-2.19-0.36-1.91-0.51 0.29-0.5 0.21 0.01-0.34 1.08-1.17 0.75-11.7-0.59-18.72-0.11-0.58-0.26-1.11-0.33-1.19-0.13-0.12-0.32-0.76-0.47-1.58-0.05-0.22-0.33-0.04-0.63 0.4-0.45 0.63-0.5 0.57-0.25-0.32 0.19-0.69-0.1-1.62-0.8-2.51-0.6-0.77-0.92-1.4-0.71-1.4 0.22 0-0.15-0.59-0.83-1.3-0.67-0.72-1.46-1.16-1.75-0.98-0.3 0.18-0.38 0.08-0.18-0.24 0.19-0.31-0.37-1.08-1.24-1.7-0.88-0.62-1.59-0.96-1.59-0.75s-0.45-0.02-0.99-0.51c-0.94-0.85-1.01-0.83-1.32 0.31-0.17 0.67-0.32 1.74-0.33 2.39 0 0.64-0.83 2.87-1.84 4.95-1.01 2.07-1.69 4.04-1.5 4.37 0.18 0.32 0.14 0.42-0.09 0.2-0.24-0.21-0.74 0.03-1.13 0.53-0.85 1.12-0.91 1.71-0.17 1.71 0.31 0 0.42-0.24 0.24-0.53s-0.08-0.53 0.23-0.53c0.94 0 0.62 0.89-0.62 1.71-1.04 0.69-1.09 0.9-0.44 1.68 0.4 0.49 1.03 0.77 1.38 0.64 0.72-0.28 3.03 1.63 2.68 2.21-0.12 0.2-0.37 1.55-0.57 3-0.19 1.45-0.72 3.04-1.18 3.54-0.45 0.51-0.82 1.51-0.82 2.25 0 0.73-0.21 1.19-0.46 1.04-0.26-0.16-0.47-0.01-0.47 0.33s-0.73 1.54-1.64 2.68c-1.57 1.99-1.63 2.23-1.37 5.89 0.15 2.1 0.37 4.17 0.5 4.6 0.13 0.44 0.43 1.74 0.66 2.9 0.37 1.78 0.5 1.94 0.89 1.06 0.36-0.85 0.41-0.77 0.25 0.43-0.17 1.19-0.04 1.42 0.65 1.16s0.72-0.2 0.2 0.34c-0.79 0.79-0.89 1.71-0.14 1.25 0.3-0.19 0.39 0.02 0.21 0.49-0.18 0.45-0.11 0.82 0.15 0.82s0.51 0.51 0.56 1.14c0.05 0.62 0.36 1.39 0.7 1.71 0.46 0.44 0.53 0.26 0.27-0.73-0.3-1.11-0.26-1.17 0.23-0.4 0.32 0.51 0.44 1.17 0.26 1.46-0.18 0.28-0.14 0.82 0.09 1.18 0.42 0.66 0.51 0.94 0.64 2.01 0.03 0.31 0.27 0.43 0.53 0.27s0.62 0.07 0.79 0.52c0.18 0.47 0.09 0.68-0.21 0.5-0.78-0.49-0.63 0.58 0.19 1.25 0.39 0.32 0.9 0.41 1.14 0.2 0.24-0.22 0.26-0.09 0.05 0.27-0.21 0.37 0.22 1.96 0.97 3.53 0.74 1.58 1.35 3.24 1.35 3.69 0 0.46 0.26 0.83 0.57 0.83 0.33 0 0.42 0.46 0.21 1.12-0.2 0.62-0.16 1 0.09 0.85s0.52 1.16 0.6 2.92c0.12 2.63 0.39 3.45 1.51 4.57 0.75 0.75 1.62 1.36 1.93 1.36 0.3 0 0.65 0.36 0.77 0.8 0.19 0.7 0.15 0.7-0.35 0-0.71-1.01-0.75-0.29-0.05 0.93 1.28 2.21 2.15 5.23 2.14 7.38-0.01 1.86 0.83 1.4 1.77-0.94z"></path><path id="path6794" style="fill:#000000" inkscape:connector-curvature="0" d="m50.714 954.67c-1.334-0.99-1.452-1.37-1.452-4.65 0-4.3-0.644-6.53-3.952-13.72l-2.529-5.49 0.31-5.07c0.356-5.8 1.199-8.78 5.097-18 4.052-9.59 4.77-11.93 4.77-15.55 0-3.95-1.036-8.09-3.506-14.02-4.108-9.87-4.239-13.2-0.836-21.2 1.158-2.72 2.272-5.94 2.475-7.17 0.321-1.93 0.202-2.38-0.911-3.43-6.522-6.15-7.824-7.62-8.626-9.72-0.486-1.27-1.079-2.31-1.317-2.31s-2.641 1-5.341 2.23c-4.895 2.23-4.925 2.24-11.245 2.25-3.485 0-7.192-0.18-8.237-0.4l-1.9-0.4 0.411-2.6c0.739-4.68 2.716-7.28 10.201-13.44 2.985-2.45 6.508-5.66 7.829-7.13 2.261-2.52 2.414-2.88 2.629-6.25 0.279-4.37 2.244-9.4 4.255-10.89 1.353-1 1.639-1.03 3.961-0.36 4.76 1.37 5.972 1.29 9.912-0.6 3.369-1.62 3.819-2.04 5.347-4.93 0.918-1.74 1.962-3.48 2.321-3.88 1.176-1.3 4.516-0.35 8.678 2.46 5.296 3.58 5.174 3.59 22.713-2.73 3.659-1.32 6.182-1.91 8.217-1.91h2.932l0.67-2.61c0.37-1.44 1.49-4.32 2.49-6.4 1-2.09 2.2-5.31 2.66-7.16 0.55-2.18 1.12-3.37 1.6-3.37 2.63 0 7.94 5.3 10.61 10.59 2.42 4.79 3.11 11.71 2.3 23.05-0.85 11.95-0.73 19.54 0.43 28.2 2.12 15.74 1.93 22.49-0.83 30.16l-1.33 3.68 0.83 5.72c1.78 12.15 0.56 20.1-5.16 33.56-2.2 5.19-3.16 11.94-3.2 22.66l-0.04 9.51 1.67 3.51c0.91 1.94 2.67 4.5 3.9 5.69 2.12 2.06 2.24 2.33 2.29 5.37 0.09 4.7-0.74 5.23-8.05 5.22-7.59-0.02-7.8-0.19-9.05-7.42-0.52-3.03-1.1-8.05-1.28-11.16-0.19-3.11-0.82-7.5-1.42-9.77-1.28-4.9-1.31-6.9-0.2-13.44 0.46-2.71 0.77-6.6 0.68-8.63-0.15-3.36-0.22-3.57-0.8-2.28-1.14 2.58-2.385 12.72-2.574 21.03-0.353 15.47-1.754 31.31-2.87 32.43-0.645 0.65-15.567 0.83-18.067 0.22-2.234-0.54-2.858-1.87-2.293-4.89 0.325-1.73 2.178-3.8 5.714-6.38 2.04-1.49 2.492-4.63 2.166-15.05-0.225-7.16-0.077-10.01 0.83-16.02 0.606-4.02 1.102-7.5 1.102-7.72s-2.317-1.05-5.148-1.85c-2.832-0.79-6.173-1.8-7.425-2.24s-2.352-0.71-2.444-0.61c-0.092 0.11-0.702 1.25-1.355 2.55-0.654 1.29-3.285 5.04-5.847 8.31-7.589 9.71-10.385 15.67-8.962 19.11 0.377 0.91 2.055 2.84 3.728 4.29 4.999 4.33 5.523 6.56 3.473 14.78-0.471 1.89-0.974 3.96-1.119 4.61-0.602 2.7-7.047 3.78-9.885 1.66z"></path><text id="text6812" style="font-size:13.14px;text-anchor:middle;text-align:center;font-family:Bitstream Vera Sans;line-height:100%;fill:#000000" sodipodi:linespacing="100%" y="989.0412" x="178.35075" xml:space="preserve"> <tspan id="tspan6814" sodipodi:role="line" x="180.44235" y="989.0412">from the bottom silhouette i removed dots and</tspan> <tspan id="tspan6818" sodipodi:role="line" x="180.44235" y="989.0412"> build a new tail</tspan> <tspan id="tspan6816" sodipodi:role="line" x="180.44235" y="989.0412">cut off the right posterior leg, flip that horizontal </tspan> </text><path id="path6820" style="stroke:#000000;stroke-width:.16918;fill:#000000" inkscape:connector-curvature="0" d="m133.51 866.14v26.82c0.81-3.87 1.83-8.49 3.15-14.5 1.19-5.37 2.05-9.3 2.64-12.32h-5.79zm7.58 0c-0.38 1.7-0.9 3.7-1.6 6.16-1.09 3.85-2.13 8.72-2.31 10.83l-0.34 3.83 3.24-3.51c1.78-1.93 4.24-5.48 5.46-7.9 1.22-2.41 2.22-3.83 2.22-3.16 0 1.84-1.86 5.13-5.96 10.59l-3.69 4.89-0.29 6.54c-0.16 3.6-0.73 9.34-1.28 12.77-0.95 6.02-0.94 6.43 0.37 11.5 0.74 2.89 1.62 8.98 1.95 13.54 1.03 14.44 2.55 21.36 4.67 21.36 0.51 0 1.35 0.15 1.86 0.35 1.51 0.58 3-1.5 3-4.19 0-1.35 0.32-2.66 0.71-2.9 0.51-0.32 0.58 0.66 0.26 3.47-0.28 2.36-0.22 3.91 0.15 3.91 0.33 0 1.58-0.66 2.77-1.46 1.55-1.05 2.39-2.26 2.97-4.3l0.8-2.85-0.29 2.55c-0.16 1.4-0.47 3.16-0.69 3.9-0.32 1.07-0.09 1.41 1.1 1.64 2.6 0.49 3.06-0.04 3.06-3.54 0-3.61-0.68-4.97-4.53-9.01-5.02-5.28-6.65-12.06-6.12-25.37 0.42-10.63 2.37-20 5.76-27.71 3.69-8.4 5.55-14.87 6-21.93h-19.25z"></path><text id="text6826" style="font-size:11.901px;text-anchor:middle;text-align:center;font-family:Bitstream Vera Sans;line-height:100%;fill:#000000" sodipodi:linespacing="100%" y="332.52362" x="347.77133" xml:space="preserve"> <tspan id="tspan6828" sodipodi:role="line" x="349.66571" y="332.52362">http://www.barrysclipart.com/barrysclipart.com/showphoto.php?photo=20775&amp;papass=&amp;sort=1&amp;thecat=500</tspan> </text></g><metadata id="metadata118"></metadata></svg> 