<?xml version="1.0" encoding="UTF-8" standalone="no"?> <!-- Created with Inkscape (http://www.inkscape.org/) --> <svg xmlns:inkscape="http://www.inkscape.org/namespaces/inkscape" xmlns:rdf="http://www.w3.org/1999/02/22-rdf-syntax-ns#" xmlns="http://www.w3.org/2000/svg" xmlns:cc="http://web.resource.org/cc/" xmlns:dc="http://purl.org/dc/elements/1.1/" xmlns:sodipodi="http://sodipodi.sourceforge.net/DTD/sodipodi-0.dtd" xmlns:svg="http://www.w3.org/2000/svg" xmlns:ns1="http://sozi.baierouge.fr" xmlns:xlink="http://www.w3.org/1999/xlink" id="svg5167" sodipodi:docname="kocka_2.svg" viewBox="0 0 661.06 617.17" sodipodi:version="0.32" inkscape:version="0.44.1" sodipodi:docbase="D:\_petr_\School\INKSCAPE\svg\06.Zvirata"><g id="g1922" inkscape:export-ydpi="90" inkscape:export-xdpi="90" inkscape:export-filename="/media/KINGSTON/inkscape/9.c/Michaela Beránková/zvirata/kocka.png" transform="translate(-47.335 -109.34)"><g id="g1902" transform="translate(-7.0345 -28.138)"><path id="path5176" style="fill-rule:evenodd;stroke:black;stroke-width:2.6087px;fill:#703727" d="m95.571 369.96c-11.337-72.87 29.699-139.13 43.159-208.58 31.12-61.815 68.82 20.19 93 44.57 28.31 33.59 66.36 34.32 108.74 31.67 50.14 0.6 99.33-11.97 148.56-20.2 39.74-16.18 76.48-42.44 117.94-52.65 58.41 20.4 0.09 92.4 3.6 136.39-3.06 41.4-26.08 76.72-30.58 117.65-6.11 54.64 3.13 111.4-20.31 163.24-26.67 43.72-86.42 58.82-111.72 106.07-22.85 28.72-46.46 72.67-90.2 64.15-41.92-11.01-67.45-51-99.88-77.11-36.53-33.04-74.94-64.77-100.64-107.48-33.01-44.47-39.94-101.54-53.77-153.77-2.43-14.69-5.091-29.33-7.899-43.95z"></path><path id="path5178" sodipodi:nodetypes="cssccccssscccsccssscccs" style="fill-rule:evenodd;stroke:black;stroke-width:2.6087px;fill:#20cfd2" d="m230.5 353.2c2.13-5.43 2.35-5.43 7.68-8.88 5.34-3.45 7.26-2.71 13.67-4.93 6.4-2.21 11.95-3.94 11.95-3.94h16.23l13.66-0.99h11.96s7.26 0.99 11.95 1.98c4.7 0.98 4.49-0.99 6.84 1.97 2.34 2.96 1.92 3.69 2.56 9.86 0.64 6.16 0 14.78 0 14.78l-1.71 25.64-8.54 15.77s-6.83 10.85-10.25 11.83c-3.41 0.99-10.25 5.92-10.25 5.92h-11.1s-8.32 0-13.66-1.97c-5.34-1.98-2.99-2.47-7.69-5.92-4.69-3.45-5.33-2.96-11.1-7.89-5.76-4.93-11.95-11.83-11.95-11.83l-7.69-15.77-3.42-12.82s-1.28-7.39 0.86-12.81z"></path><path id="path5180" sodipodi:rx="7.5620947" sodipodi:ry="7.9138198" style="stroke-linejoin:round;color:black;stroke:#535861;stroke-width:7.7;fill:#557c39" sodipodi:type="arc" d="m221.24 240.05a7.5621 7.9138 0 1 1 -15.13 0 7.5621 7.9138 0 1 1 15.13 0z" transform="matrix(2.428 0 0 2.803 -228.09 -296.5)" sodipodi:cy="240.05254" sodipodi:cx="213.67314"></path><path id="path5186" sodipodi:nodetypes="csssscccsssssssss" style="fill-rule:evenodd;stroke:black;stroke-width:2.6087px;fill:#20cfd2" d="m455.95 350.24c-13.21 1.96-10.04 11.09-11.1 19.72-1.07 8.62 0 7.64 0 14.78 0 7.15-0.86 5.92 0 13.81 0.85 7.88 0.85 12.57 3.41 17.74 2.56 5.18 6.83 2.96 6.83 2.96l11.11 5.92 17.93 5.91s12.17 1.97 19.64 1.97 5.12 1.23 10.25-1.97c5.12-3.2 5.34-2.71 8.54-7.89 3.2-5.17 5.76-3.69 7.68-9.86 1.93-6.16 0.43-9.11 0-14.78-0.42-5.67-3.2-9.12-5.97-15.78-2.78-6.65 0.85-2.22-5.13-10.84-5.98-8.63-11.95-17.75-17.93-18.73-5.98-0.99-43.53-3.22-45.26-2.96z"></path><path id="use5182" sodipodi:rx="7.5620947" sodipodi:ry="7.9138198" style="stroke-linejoin:round;color:black;stroke:#535861;stroke-width:7.7;fill:#557c39" sodipodi:type="arc" d="m221.24 240.05a7.5621 7.9138 0 1 1 -15.13 0 7.5621 7.9138 0 1 1 15.13 0z" transform="matrix(2.428 0 0 2.803 -35.941 -283.69)" sodipodi:cy="240.05254" sodipodi:cx="213.67314"></path><path id="path5195" sodipodi:nodetypes="cccscccccccsccccssssssscsssccsssscsssss" style="fill-rule:evenodd;stroke:black;stroke-width:2.6087px;fill:#1f0000" d="m303.09 626.29c-0.64 6.4 15.37 20.7 15.37 20.7l11.1 9.86s5.55 8.87 12.81 12.82c7.26 3.94 16.23 2.95 16.23 2.95l18.78 0.99 17.08-5.92 11.1-8.87 9.4-10.84 8.54-12.82 4.27-16.76s5.97-5.92 3.41-9.86-12.81-8.87-12.81-8.87l-16.22-9.86-7.69-12.82-1.71-18.73s-4.69-12.32 0.86-20.7 11.1-6.41 21.35-12.82 11.95-4.68 19.64-12.82c7.68-8.13 9.18-9.12 11.1-19.71 1.92-10.6 1.71-16.52-3.42-22.68-5.12-6.16-13.66-0.99-17.07-1.97-3.42-0.99-24.77 0-29.04-0.99-4.27-0.98-14.52-0.98-14.52-0.98s-9.18 0.49-17.93 0c-8.75-0.5-11.53-2.71-17.93 1.97-6.41 4.68-11.96 9.86-7.69 16.76s13.66 13.8 13.66 13.8l13.67 10.85s7.26 8.13 11.1 12.81c3.84 4.69 2.56 2.71 4.27 5.92 1.71 3.2 1.07 3.2 2.56 6.9s2.35 1.72 3.42 7.89c1.06 6.16 0.85 16.76 0.85 16.76s4.7 10.84 0 19.71c-4.7 8.88-14.52 11.83-18.79 15.78-4.27 3.94-20.49 12.81-23.91 13.8-3.41 0.99-12.59 4.44-23.06 8.87-10.46 4.44-18.14 2.47-18.78 8.88z"></path><g id="g1889"><path id="path1883" style="stroke:black;stroke-width:1px;fill:none" d="m54.869 474.18l256.06 46.32"></path><path id="path1885" style="stroke:black;stroke-width:1px;fill:none" d="m56.276 544.47c241.98-15.48 244.8-14.07 244.8-14.07"></path><path id="path1887" style="stroke:black;stroke-width:1px;fill:none" d="m97.076 627.48l208.22-74.57"></path></g><g id="g1894" transform="matrix(-1 0 0 1 769.79 0)"><path id="path1896" style="stroke:black;stroke-width:1px;fill:none" d="m54.869 474.18l256.06 46.32"></path><path id="path1898" style="stroke:black;stroke-width:1px;fill:none" d="m56.276 544.47c241.98-15.48 244.8-14.07 244.8-14.07"></path><path id="path1900" style="stroke:black;stroke-width:1px;fill:none" d="m97.076 627.48l208.22-74.57"></path></g></g><path id="path1918" style="opacity:.99533;color:black;fill:#500" sodipodi:type="star" d="m2.8138 212.44c-6.9693 4.56-60.124-30.4-67.555-34.15-7.431-3.76-67.089-25.85-67.559-34.16-0.46-8.31 56.393-36.87 63.362-41.43 6.969-4.553 55.926-45.179 63.357-41.422 7.4313 3.757 3.7358 67.272 4.1975 75.582 0.46173 8.31 11.167 71.03 4.1973 75.58z" sodipodi:r1="87.409225" inkscape:flatsided="false" transform="matrix(.52931 -.43449 .41153 .55884 134.83 90.757)" sodipodi:arg2="2.0389196" sodipodi:arg1="0.99172206" inkscape:randomized="0" sodipodi:cy="139.28323" sodipodi:cx="-45.020844" inkscape:rounded="0.11" sodipodi:r2="43.704613" sodipodi:sides="3"></path><path id="path1920" style="opacity:.99533;color:black;fill:#500" sodipodi:type="star" sodipodi:sides="3" sodipodi:r1="87.409225" sodipodi:r2="43.704613" sodipodi:arg1="0.99172206" sodipodi:arg2="2.0389196" transform="matrix(.67568 .11139 -.14873 .67789 623.34 112.96)" inkscape:randomized="0" sodipodi:cy="139.28323" sodipodi:cx="-45.020844" inkscape:rounded="0.11" inkscape:flatsided="false" d="m2.8138 212.44c-6.9693 4.56-60.124-30.4-67.555-34.15-7.431-3.76-67.089-25.85-67.559-34.16-0.46-8.31 56.393-36.87 63.362-41.43 6.969-4.553 55.926-45.179 63.357-41.422 7.4313 3.757 3.7358 67.272 4.1975 75.582 0.46173 8.31 11.167 71.03 4.1973 75.58z"></path></g><metadata></metadata></svg> 