<?xml version="1.0" encoding="UTF-8" standalone="no"?> <!-- Created with Inkscape (http://www.inkscape.org/) --> <svg xmlns:inkscape="http://www.inkscape.org/namespaces/inkscape" xmlns:rdf="http://www.w3.org/1999/02/22-rdf-syntax-ns#" xmlns="http://www.w3.org/2000/svg" xmlns:sodipodi="http://sodipodi.sourceforge.net/DTD/sodipodi-0.dtd" xmlns:cc="http://web.resource.org/cc/" xmlns:xlink="http://www.w3.org/1999/xlink" xmlns:dc="http://purl.org/dc/elements/1.1/" xmlns:svg="http://www.w3.org/2000/svg" xmlns:ns1="http://sozi.baierouge.fr" id="svg2" sodipodi:docname="tulipan.svg" viewBox="0 0 329.15 798.3" sodipodi:version="0.32" inkscape:version="0.44.1" inkscape:label="Pozadí" sodipodi:docbase="D:\_petr_\School\INKSCAPE\svg\07.Rostliny"><defs id="defs3073"><linearGradient id="linearGradient4047" inkscape:collect="always"><stop id="stop4049" style="stop-color:red" offset="0"></stop><stop id="stop4051" style="stop-color:red;stop-opacity:0" offset="1"></stop></linearGradient><linearGradient id="linearGradient4960" y2="796.98" xlink:href="#linearGradient4047" gradientUnits="userSpaceOnUse" x2="660" gradientTransform="translate(-70 -108.57)" y1="400.93" x1="534.29" inkscape:collect="always"></linearGradient><linearGradient id="linearGradient4975" y2="796.98" xlink:href="#linearGradient4047" gradientUnits="userSpaceOnUse" x2="660" gradientTransform="translate(-85.714 -124.29)" y1="400.93" x1="534.29" inkscape:collect="always"></linearGradient><linearGradient id="linearGradient4999" y2="726.65" gradientUnits="userSpaceOnUse" x2="908.57" gradientTransform="translate(12.122 -.63134)" y1="886.65" x1="74.286" inkscape:collect="always"><stop id="stop4995" style="stop-color:lime" offset="0"></stop><stop id="stop4997" style="stop-color:lime;stop-opacity:0" offset="1"></stop></linearGradient></defs><g id="layer1" inkscape:label="Vrstva 1" inkscape:groupmode="layer" transform="translate(-209.85 -196.24)"><g id="g5886" inkscape:export-ydpi="90" inkscape:export-xdpi="90" inkscape:export-filename="/media/KINGSTON/inkscape/8.b/Bauerova Marketa/inkscape ja/tulipan.png"><path id="path4055" sodipodi:nodetypes="cssssc" style="stroke:black;stroke-opacity:.0054054;fill:yellow" transform="matrix(1.2993 0 0 2.1603 1093.3 -481.59)" d="m-469.56 485.22c-8.76 4.23-18.93 9.62-44.95 13.37-7.49 1.08-15.9-0.39-24.61 0.03-36.81 1.77-66.95-1.99-68.46-13.4-1.15-8.65 30.92-15.71 69.01-15.71s69.01 7.04 69.01 15.71z"></path><path id="path4991" sodipodi:nodetypes="csscsssccsssccccccccsccccccsccccccsccccccsscccccccsscccsscsscc" style="stroke:#3f6028;stroke-opacity:.97838;fill:url(#linearGradient4999)" d="m378.21 619.19c-0.02 9.01 0.84 44.32 0.81 39.77 0-1.16 0.52-5.14 0.27-12.51-0.29-8.31-1.56-20.03-1.69-38.91 0.5 1.29-0.62 1.85 0.17-1.01 0.7-2.54-2.1-7.68-1.69-8.89 0.93-2.69 10.27-2.78 17.53-2.84 11.33-0.08 20.64-6.51 22.56 7.34 0.52 5.49 0.39 11.01 0.47 16.51 0 5.75-0.01 11.51-0.02 17.27-0.01 5.72-0.01 11.44-0.01 17.16v17.14 17.14c0.63 6.14-0.85 12.02-1.73 18-1.29 4.87-4.13 9.02-6.51 13.38-1.6 4.18-0.64 9.55-3.52 12.73-3.95 3.36-8.11 6.44-9.7 10.89-0.78 5.87-1.39 10.38-1.46 16.29 0.01 5.77 0.03 11.53 0.05 17.29 0.01 5.71 0.01 11.43 0.01 17.14v17.14 17.14c0.03 6-0.02 11.99-0.05 17.99 0.01 6.77 0 13.53-0.02 20.3 0.03 6.26 0.05 12.53 0.06 18.79-0.04 6.44-0.04 12.88-0.03 19.32 0.03 5.97 0.03 11.93 0.04 17.89v17.15 17.14c-0.58 5.14 0.41 10.28 0.85 15.24 0.36 0.07 0.71 0.14 1.06 0.21l-35.78 22.64c-0.74-0.74-1.48-1.49-2.22-2.23-0.72-5.46-2.4-10.96-1.46-16.73v-17.13c0-5.72 0-11.44 0.01-17.16 0.01-5.98 0.01-11.95 0.03-17.92 0.01-6.44 0.02-12.87-0.03-19.3 0.02-6.28 0.04-12.56 0.06-18.85-0.02-6.76-0.02-13.52-0.01-20.28-0.04-5.98-0.08-11.96-0.06-17.93v-17.15c0-5.71 0.01-11.42 0-17.14 0-5.71 0-11.42-0.01-17.13l-0.03-17.31c0.04-6.08-0.03-12.17 0.5-18.23 0.78-5.19 0.73-10.2 4.67-14.14 2.86-2.96 5.39-6.47 8.53-9.26 2.35-4.23 4.93-8.32 6.8-12.8 1.32-5.54 3.3-10.94 2.4-16.84v-17.15-17.14c0-5.72 0-11.44 0.01-17.17 0.01-5.75 0.02-11.5 0.02-17.25-0.06-5.33-1.98-34.05-2.43-39.36 2.3-1.5 8.47-1.68 19.45-3.53 4.85-0.82 11.9-1.9 17-0.4 2 0.58 1.85 0.33 1.8 2.98-0.98-0.94-1.52-1.94-2.94-2.53-3.2-1.32-7.2-1.13-9.95-0.91-4.41 0.35-35.4 2.66-24.89 5.52l1.08 19.63z"></path><g id="g4984"><path id="path4035" sodipodi:nodetypes="csssssc" style="stroke:#080509;stroke-width:.94351;fill:url(#linearGradient4960)" d="m481.46 355.56c0 80.06 8.34 153.28-73.29 179.72-15.07 4.89-21.57 12.57-33.89 3.36-81.63-61.03-73.63-80.11-92.88-185.63-17.47-95.77-34.47-111.88 81.45-150.02 18.12-5.96 20.52-9.45 36.81-2.22 89.74 39.82 98.94 48.98 81.8 154.79z"></path><path id="path4039" style="stroke:#080509;stroke-width:.94351;fill:url(#linearGradient4975)" d="m422.88 434.64c0 80.06 35.49 160.16-46.13 161.23-15.08 0.2-48.72 1.57-61.04-11.47-81.63-86.4-73.63-103-92.88-214.5-17.47-101.2-34.48-122.6 81.45-124.7 18.12-0.33 20.52-3.07 36.81 9.22 89.74 67.73 98.94 79.74 81.79 180.22z" inkscape:transform-center-x="82.857143" inkscape:transform-center-y="22.857143" sodipodi:nodetypes="csssssc"></path><path id="path3138" sodipodi:nodetypes="csssssc" style="stroke:#080509;stroke-width:.75303;fill:url(#linearGradient4975)" d="m534.12 365.55c0 80.11 2.46 180.51-49.51 206.97-9.59 4.88-50.87 25.42-65.86 24.78-80.11-3.43-12.59-111.58-24.84-217.15-11.13-95.83-9.1-129.09 64.71-167.26 11.53-5.96 13.06-9.45 23.43-2.22 57.13 39.85 62.99 49.01 52.07 154.88z"></path><path id="path4037" sodipodi:nodetypes="cssssssc" style="stroke:#080509;stroke-width:.94351;fill:url(#linearGradient4975)" d="m497.17 396.98c0 80.07 25.49 169-56.14 195.45-4.52 1.46-12.51 0.39-21.81 0.93-21.72 1.25-50.6 1.72-59.22-4.72-81.63-61.03-43.63-88.68-62.88-194.2-17.47-95.77-34.48-111.88 81.45-150.02 18.11-5.97 20.51-9.45 36.8-2.22 89.75 39.82 98.95 48.98 81.8 154.78z"></path></g></g></g><metadata></metadata></svg> 