<?xml version="1.0" encoding="UTF-8" standalone="no"?> <!-- Created with Inkscape (http://www.inkscape.org/) --> <svg xmlns:inkscape="http://www.inkscape.org/namespaces/inkscape" xmlns:rdf="http://www.w3.org/1999/02/22-rdf-syntax-ns#" xmlns="http://www.w3.org/2000/svg" xmlns:sodipodi="http://sodipodi.sourceforge.net/DTD/sodipodi-0.dtd" xmlns:cc="http://web.resource.org/cc/" xmlns:xlink="http://www.w3.org/1999/xlink" xmlns:dc="http://purl.org/dc/elements/1.1/" xmlns:svg="http://www.w3.org/2000/svg" xmlns:ns1="http://sozi.baierouge.fr" id="svg2" sodipodi:docname="sychravo.svg" inkscape:export-ydpi="90" inkscape:export-filename="J:\Obrázky\Sychravo.png" viewBox="0 0 1124.2 753.23" sodipodi:version="0.32" inkscape:export-xdpi="90" inkscape:version="0.44.1" inkscape:label="Pozadí" sodipodi:docbase="D:\_petr_\School\INKSCAPE\svg\04.Rocni obdobi a prirodni deje"><defs id="defs18183"><linearGradient id="linearGradient20881" inkscape:collect="always"><stop id="stop20883" style="stop-color:#333" offset="0"></stop><stop id="stop20885" style="stop-color:#222;stop-opacity:0" offset="1"></stop></linearGradient><radialGradient id="radialGradient20887" xlink:href="#linearGradient20881" gradientUnits="userSpaceOnUse" cy="149.13" cx="175.43" gradientTransform="matrix(1 -7.2537e-7 8.6771e-7 .94611 -31.896 4.8975)" r="65.54" inkscape:collect="always"></radialGradient></defs><g id="layer1" inkscape:label="Vrstva 1" inkscape:groupmode="layer" transform="translate(31.896 3.1396)"><g id="g1948" inkscape:export-ydpi="90" inkscape:export-xdpi="90" inkscape:export-filename="/home/lamatin/Desktop/sychravo.png"><rect id="rect19103" style="fill:#2c3d54" height="620.08" width="1065.9" y="-3.1396" x="-5.4944"></rect><path id="path21884" sodipodi:nodetypes="cssc" style="fill-rule:evenodd;fill:#00005b" d="m167.25 398.01s31.84 54.03 47.15 69.54c15.32 15.51 17.65 13.65 5.62-4.07-12.03-17.73-52.77-65.47-52.77-65.47z"></path><path id="path20973" sodipodi:nodetypes="cssc" style="fill-rule:evenodd;fill:#00005b" d="m155.47 226.12s31.84 54.02 47.16 69.54c15.32 15.51 17.65 13.65 5.62-4.08-12.04-17.73-52.78-65.46-52.78-65.46z"></path><path id="path18191" sodipodi:nodetypes="cscscccc" style="fill-rule:evenodd;stroke:black;stroke-width:.81795px;fill:#2c542c" d="m-11.076 556.98c-0.157 0.07 146.64-92.04 265.35-92.41 103.6-0.32 184.99 49.74 241.79 99.77-0.26-1.23 71.18-47.4 192.33-54.09 236.9-13.08 397.21 126.54 397.21 126.54l6.3 112.36-1123.4 0.53 20.424-192.7z"></path><path id="path19099" sodipodi:nodetypes="cc" style="fill-rule:evenodd;stroke:black;stroke-width:.81795px;fill:#2c542c" d="m493.27 561.9c50.23 42.07 82.96 77.21 113.07 139.01"></path><path id="path19994" sodipodi:rx="65.53997" sodipodi:ry="62.007874" style="fill:url(#radialGradient20887)" sodipodi:type="arc" d="m240.97 149.13a65.54 62.008 0 1 1 -131.08 0 65.54 62.008 0 1 1 131.08 0z" sodipodi:cy="149.13286" sodipodi:cx="175.42734"></path><path id="path20889" sodipodi:rx="65.53997" sodipodi:ry="62.007874" style="fill:url(#radialGradient20887)" sodipodi:type="arc" d="m240.97 149.13a65.54 62.008 0 1 1 -131.08 0 65.54 62.008 0 1 1 131.08 0z" transform="translate(27.472 -29.827)" sodipodi:cy="149.13286" sodipodi:cx="175.42734"></path><path id="path20893" sodipodi:rx="65.53997" sodipodi:ry="62.007874" style="fill:url(#radialGradient20887)" sodipodi:type="arc" d="m240.97 149.13a65.54 62.008 0 1 1 -131.08 0 65.54 62.008 0 1 1 131.08 0z" transform="translate(46.31 22.762)" sodipodi:cy="149.13286" sodipodi:cx="175.42734"></path><path id="path20897" sodipodi:rx="65.53997" sodipodi:ry="62.007874" style="fill:url(#radialGradient20887)" sodipodi:type="arc" d="m240.97 149.13a65.54 62.008 0 1 1 -131.08 0 65.54 62.008 0 1 1 131.08 0z" transform="translate(72.997 -44.74)" sodipodi:cy="149.13286" sodipodi:cx="175.42734"></path><path id="path20901" sodipodi:rx="65.53997" sodipodi:ry="62.007874" style="fill:url(#radialGradient20887)" sodipodi:type="arc" d="m240.97 149.13a65.54 62.008 0 1 1 -131.08 0 65.54 62.008 0 1 1 131.08 0z" transform="translate(117.74 18.053)" sodipodi:cy="149.13286" sodipodi:cx="175.42734"></path><path id="path20905" sodipodi:rx="65.53997" sodipodi:ry="62.007874" style="fill:url(#radialGradient20887)" sodipodi:type="arc" d="m240.97 149.13a65.54 62.008 0 1 1 -131.08 0 65.54 62.008 0 1 1 131.08 0z" transform="translate(142.85 -54.944)" sodipodi:cy="149.13286" sodipodi:cx="175.42734"></path><path id="path20909" sodipodi:rx="65.53997" sodipodi:ry="62.007874" style="fill:url(#radialGradient20887)" sodipodi:type="arc" d="m240.97 149.13a65.54 62.008 0 1 1 -131.08 0 65.54 62.008 0 1 1 131.08 0z" transform="translate(175.82 63.578)" sodipodi:cy="149.13286" sodipodi:cx="175.42734"></path><path id="path20913" sodipodi:rx="65.53997" sodipodi:ry="62.007874" style="fill:url(#radialGradient20887)" sodipodi:type="arc" d="m240.97 149.13a65.54 62.008 0 1 1 -131.08 0 65.54 62.008 0 1 1 131.08 0z" transform="translate(189.95 -17.268)" sodipodi:cy="149.13286" sodipodi:cx="175.42734"></path><path id="path20917" sodipodi:rx="65.53997" sodipodi:ry="62.007874" style="fill:url(#radialGradient20887)" sodipodi:type="arc" d="m240.97 149.13a65.54 62.008 0 1 1 -131.08 0 65.54 62.008 0 1 1 131.08 0z" transform="translate(-18.053 60.438)" sodipodi:cy="149.13286" sodipodi:cx="175.42734"></path><path id="path20921" sodipodi:rx="65.53997" sodipodi:ry="62.007874" style="fill:url(#radialGradient20887)" sodipodi:type="arc" d="m240.97 149.13a65.54 62.008 0 1 1 -131.08 0 65.54 62.008 0 1 1 131.08 0z" transform="translate(-86.34 14.128)" sodipodi:cy="149.13286" sodipodi:cx="175.42734"></path><path id="path20925" sodipodi:rx="65.53997" sodipodi:ry="62.007874" style="fill:url(#radialGradient20887)" sodipodi:type="arc" d="m240.97 149.13a65.54 62.008 0 1 1 -131.08 0 65.54 62.008 0 1 1 131.08 0z" transform="translate(-48.664 -62.008)" sodipodi:cy="149.13286" sodipodi:cx="175.42734"></path><path id="path20929" sodipodi:rx="65.53997" sodipodi:ry="62.007874" style="fill:url(#radialGradient20887)" sodipodi:type="arc" d="m240.97 149.13a65.54 62.008 0 1 1 -131.08 0 65.54 62.008 0 1 1 131.08 0z" transform="translate(485.07 136.57)" sodipodi:cy="149.13286" sodipodi:cx="175.42734"></path><path id="path20933" sodipodi:rx="65.53997" sodipodi:ry="62.007874" style="fill:url(#radialGradient20887)" sodipodi:type="arc" d="m240.97 149.13a65.54 62.008 0 1 1 -131.08 0 65.54 62.008 0 1 1 131.08 0z" transform="translate(556.5 117.74)" sodipodi:cy="149.13286" sodipodi:cx="175.42734"></path><path id="path20937" sodipodi:rx="65.53997" sodipodi:ry="62.007874" style="fill:url(#radialGradient20887)" sodipodi:type="arc" d="m240.97 149.13a65.54 62.008 0 1 1 -131.08 0 65.54 62.008 0 1 1 131.08 0z" transform="translate(611.44 149.13)" sodipodi:cy="149.13286" sodipodi:cx="175.42734"></path><path id="path20941" sodipodi:rx="65.53997" sodipodi:ry="62.007874" style="fill:url(#radialGradient20887)" sodipodi:type="arc" d="m240.97 149.13a65.54 62.008 0 1 1 -131.08 0 65.54 62.008 0 1 1 131.08 0z" transform="translate(614.58 92.619)" sodipodi:cy="149.13286" sodipodi:cx="175.42734"></path><path id="path20945" sodipodi:rx="65.53997" sodipodi:ry="62.007874" style="fill:url(#radialGradient20887)" sodipodi:type="arc" d="m240.97 149.13a65.54 62.008 0 1 1 -131.08 0 65.54 62.008 0 1 1 131.08 0z" transform="translate(532.17 47.095)" sodipodi:cy="149.13286" sodipodi:cx="175.42734"></path><path id="path20949" sodipodi:rx="65.53997" sodipodi:ry="62.007874" style="fill:url(#radialGradient20887)" sodipodi:type="arc" d="m240.97 149.13a65.54 62.008 0 1 1 -131.08 0 65.54 62.008 0 1 1 131.08 0z" transform="translate(587.11 7.0642)" sodipodi:cy="149.13286" sodipodi:cx="175.42734"></path><path id="path20953" sodipodi:rx="65.53997" sodipodi:ry="62.007874" style="fill:url(#radialGradient20887)" sodipodi:type="arc" d="m240.97 149.13a65.54 62.008 0 1 1 -131.08 0 65.54 62.008 0 1 1 131.08 0z" transform="translate(697.78 162.48)" sodipodi:cy="149.13286" sodipodi:cx="175.42734"></path><path id="path20957" sodipodi:rx="65.53997" sodipodi:ry="62.007874" style="fill:url(#radialGradient20887)" sodipodi:type="arc" d="m240.97 149.13a65.54 62.008 0 1 1 -131.08 0 65.54 62.008 0 1 1 131.08 0z" transform="translate(678.16 131.86)" sodipodi:cy="149.13286" sodipodi:cx="175.42734"></path><path id="path20961" sodipodi:rx="65.53997" sodipodi:ry="62.007874" style="fill:url(#radialGradient20887)" sodipodi:type="arc" d="m240.97 149.13a65.54 62.008 0 1 1 -131.08 0 65.54 62.008 0 1 1 131.08 0z" transform="translate(782.56 156.98)" sodipodi:cy="149.13286" sodipodi:cx="175.42734"></path><path id="path20965" sodipodi:rx="65.53997" sodipodi:ry="62.007874" style="fill:url(#radialGradient20887)" sodipodi:type="arc" d="m240.97 149.13a65.54 62.008 0 1 1 -131.08 0 65.54 62.008 0 1 1 131.08 0z" transform="translate(729.97 91.05)" sodipodi:cy="149.13286" sodipodi:cx="175.42734"></path><path id="path20969" sodipodi:rx="65.53997" sodipodi:ry="62.007874" style="fill:url(#radialGradient20887)" sodipodi:type="arc" d="m240.97 149.13a65.54 62.008 0 1 1 -131.08 0 65.54 62.008 0 1 1 131.08 0z" transform="translate(535.31 -29.827)" sodipodi:cy="149.13286" sodipodi:cx="175.42734"></path><path id="path21860" sodipodi:nodetypes="cssc" style="fill-rule:evenodd;fill:#00005b" d="m231.61 253.59s31.84 54.03 47.16 69.54c15.31 15.51 17.65 13.65 5.61-4.08-12.03-17.72-52.77-65.46-52.77-65.46z"></path><path id="path21862" sodipodi:nodetypes="cssc" style="fill-rule:evenodd;fill:#00005b" d="m354.06 295.19s31.84 54.03 47.15 69.54c15.32 15.51 17.65 13.65 5.62-4.08-12.03-17.72-52.77-65.46-52.77-65.46z"></path><path id="path21864" sodipodi:nodetypes="cssc" style="fill-rule:evenodd;fill:#00005b" d="m346.21 343.85s31.84 54.03 47.15 69.54c15.32 15.51 17.65 13.66 5.62-4.07s-52.77-65.47-52.77-65.47z"></path><path id="path21866" sodipodi:nodetypes="cssc" style="fill-rule:evenodd;fill:#00005b" d="m255.94 323.44s31.84 54.03 47.16 69.55c15.31 15.51 17.65 13.65 5.62-4.08-12.04-17.73-52.78-65.47-52.78-65.47z"></path><path id="path21868" sodipodi:nodetypes="cssc" style="fill-rule:evenodd;fill:#00005b" d="m226.12 361.9s31.84 54.03 47.15 69.55c15.32 15.51 17.65 13.65 5.62-4.08-12.04-17.73-52.77-65.47-52.77-65.47z"></path><path id="path21870" sodipodi:nodetypes="cssc" style="fill-rule:evenodd;fill:#00005b" d="m198.64 303.04s31.84 54.03 47.16 69.54 17.65 13.65 5.62-4.08c-12.04-17.72-52.78-65.46-52.78-65.46z"></path><path id="path21872" sodipodi:nodetypes="cssc" style="fill-rule:evenodd;fill:#00005b" d="m261.44 250.45s31.84 54.03 47.15 69.54c15.32 15.51 17.65 13.65 5.62-4.08-12.03-17.72-52.77-65.46-52.77-65.46z"></path><path id="path21874" sodipodi:nodetypes="cssc" style="fill-rule:evenodd;fill:#00005b" d="m339.93 394.87s31.84 54.03 47.15 69.54c15.32 15.51 17.65 13.65 5.62-4.07-12.03-17.73-52.77-65.47-52.77-65.47z"></path><path id="path21876" sodipodi:nodetypes="cssc" style="fill-rule:evenodd;fill:#00005b" d="m426.27 345.42s31.84 54.03 47.15 69.54c15.32 15.51 17.66 13.65 5.62-4.07-12.03-17.73-52.77-65.47-52.77-65.47z"></path><path id="path21878" sodipodi:nodetypes="cssc" style="fill-rule:evenodd;fill:#00005b" d="m452.95 423.13s31.84 54.03 47.16 69.54 17.65 13.65 5.62-4.08c-12.04-17.72-52.78-65.46-52.78-65.46z"></path><path id="path21880" sodipodi:nodetypes="cssc" style="fill-rule:evenodd;fill:#00005b" d="m409.78 448.24s31.84 54.03 47.16 69.55c15.32 15.51 17.65 13.65 5.62-4.08-12.04-17.73-52.78-65.47-52.78-65.47z"></path><path id="path21882" sodipodi:nodetypes="cssc" style="fill-rule:evenodd;fill:#00005b" d="m218.27 401.93s31.84 54.03 47.15 69.55c15.32 15.51 17.65 13.65 5.62-4.08s-52.77-65.47-52.77-65.47z"></path><path id="path21886" sodipodi:nodetypes="cssc" style="fill-rule:evenodd;fill:#00005b" d="m138.99 323.44s31.84 54.03 47.16 69.55c15.31 15.51 17.65 13.65 5.61-4.08-12.03-17.73-52.77-65.47-52.77-65.47z"></path><path id="path21888" sodipodi:nodetypes="cssc" style="fill-rule:evenodd;fill:#00005b" d="m130.36 259.08s31.84 54.03 47.15 69.54c15.32 15.51 17.65 13.65 5.62-4.07-12.03-17.73-52.77-65.47-52.77-65.47z"></path><path id="path21890" sodipodi:nodetypes="cssc" style="fill-rule:evenodd;fill:#00005b" d="m291.26 409s31.84 54.03 47.16 69.54 17.65 13.65 5.62-4.07c-12.04-17.73-52.78-65.47-52.78-65.47z"></path><path id="path21892" sodipodi:nodetypes="cssc" style="fill-rule:evenodd;fill:#00005b" d="m439.61 245.74s31.84 54.03 47.16 69.54c15.31 15.51 17.65 13.65 5.61-4.08-12.03-17.72-52.77-65.46-52.77-65.46z"></path><path id="path21894" sodipodi:nodetypes="cssc" style="fill-rule:evenodd;fill:#00005b" d="m445.1 310.1s31.85 54.03 47.16 69.54c15.32 15.51 17.65 13.65 5.62-4.07-12.04-17.73-52.78-65.47-52.78-65.47z"></path><path id="path21896" sodipodi:nodetypes="cssc" style="fill-rule:evenodd;fill:#00005b" d="m396.44 272.42s31.84 54.03 47.16 69.55c15.31 15.51 17.65 13.65 5.61-4.08-12.03-17.73-52.77-65.47-52.77-65.47z"></path><path id="path21898" sodipodi:nodetypes="cssc" style="fill-rule:evenodd;fill:#00005b" d="m503.19 355.63s31.84 54.02 47.15 69.54c15.32 15.51 17.66 13.65 5.62-4.08-12.03-17.73-52.77-65.46-52.77-65.46z"></path><path id="path21900" sodipodi:nodetypes="cssc" style="fill-rule:evenodd;fill:#00005b" d="m504.76 426.27s31.84 54.03 47.15 69.54c15.32 15.51 17.66 13.65 5.62-4.08-12.03-17.72-52.77-65.46-52.77-65.46z"></path><path id="path21902" sodipodi:nodetypes="cssc" style="fill-rule:evenodd;fill:#00005b" d="m472.58 481.21s31.84 54.03 47.15 69.54c15.32 15.51 17.65 13.65 5.62-4.07-12.03-17.73-52.77-65.47-52.77-65.47z"></path><path id="path21904" sodipodi:nodetypes="cssc" style="fill-rule:evenodd;fill:#00005b" d="m298.33 318.73s31.84 54.03 47.15 69.55c15.32 15.51 17.65 13.65 5.62-4.08s-52.77-65.47-52.77-65.47z"></path><path id="path21906" style="stroke:white;stroke-width:2.5;fill:none" d="m823.37 343.79l-18.05 56.51 23.54 54.16-22.76 69.86"></path><path id="path22793" style="stroke:white;stroke-width:2.5;fill:none" d="m815.79 366.53l18.34 56.42 50.75 30.22 22.31 70"></path><path id="path22795" sodipodi:nodetypes="cccc" style="stroke:white;stroke-width:2.5;fill:none" d="m807.09 407.07l-41.63 92.92-33.1-36.64-34.68 88.35"></path><path id="path22797" style="stroke:white;stroke-width:1.284;fill:none" d="m863.55 439.74l-16.38 27.58 1.3 34.98-20.44 34"></path><path id="path22799" style="stroke:white;stroke-width:1.2873;fill:none" d="m853.85 456.22l16.46 27.59-1.31 34.97 20.54 34"></path></g></g><metadata></metadata></svg> 