<?xml version="1.0" encoding="UTF-8" standalone="no"?> <!-- Created with Inkscape (http://www.inkscape.org/) --> <svg xmlns:inkscape="http://www.inkscape.org/namespaces/inkscape" xmlns:rdf="http://www.w3.org/1999/02/22-rdf-syntax-ns#" xmlns="http://www.w3.org/2000/svg" xmlns:sodipodi="http://sodipodi.sourceforge.net/DTD/sodipodi-0.dtd" xmlns:cc="http://web.resource.org/cc/" xmlns:xlink="http://www.w3.org/1999/xlink" xmlns:dc="http://purl.org/dc/elements/1.1/" xmlns:svg="http://www.w3.org/2000/svg" xmlns:ns1="http://sozi.baierouge.fr" id="svg2" inkscape:export-ydpi="90" inkscape:export-filename="/media/KINGSTON/inkscape/9.c/Tomas Krauskopf/vyrobky inscapeu/domy,nabytek/dum.png" viewBox="0 0 674.12 481.99" sodipodi:version="0.32" inkscape:export-xdpi="90" inkscape:version="0.44.1" sodipodi:docname="Machovka_house.svg" sodipodi:docbase="C:\Documents and Settings\ryan\Desktop\New Folder (4)"><defs id="defs3"><linearGradient id="linearGradient1365" y2="505.89" gradientUnits="userSpaceOnUse" x2="544.29" gradientTransform="matrix(1.3133 0 0 .76147 -177.79 -42.426)" y1="524.54" x1="506.36" inkscape:collect="always"><stop id="stop23139" style="stop-color:#000000" offset="0"></stop><stop id="stop23141" style="stop-color:#000000;stop-opacity:0" offset="1"></stop></linearGradient><linearGradient id="linearGradient1375" y2="535.46" gradientUnits="userSpaceOnUse" x2="325.71" gradientTransform="matrix(1.1785 0 0 .84853 -174.93 -44.569)" y1="524.07" x1="302.97" inkscape:collect="always"><stop id="stop17039" style="stop-color:#85d7d8" offset="0"></stop><stop id="stop17041" style="stop-color:#85d7d8;stop-opacity:0" offset="1"></stop></linearGradient><linearGradient id="linearGradient1397" y2="540.1" gradientUnits="userSpaceOnUse" x2="458.94" gradientTransform="matrix(1.1809 0 0 .84684 -177.79 -42.426)" y1="519.59" x1="415.42" inkscape:collect="always"><stop id="stop15511" style="stop-color:#85d7d8" offset="0"></stop><stop id="stop15513" style="stop-color:#85d7d8;stop-opacity:0" offset="1"></stop></linearGradient><linearGradient id="linearGradient1402" y2="195.41" gradientUnits="userSpaceOnUse" x2="721.09" gradientTransform="matrix(.55544 0 0 1.8004 -177.79 -42.426)" y1="180.58" x1="687.66" inkscape:collect="always"><stop id="stop13227" style="stop-color:#73bdbd" offset="0"></stop><stop id="stop13229" style="stop-color:#73bdbd;stop-opacity:0" offset="1"></stop></linearGradient><linearGradient id="linearGradient1406" y2="144.1" gradientUnits="userSpaceOnUse" x2="624.58" gradientTransform="matrix(1.0132 0 0 .98693 -286.88 155.56)" y1="127.91" x1="593.42" inkscape:collect="always"><stop id="stop10149" style="stop-color:#80c7c8" offset="0"></stop><stop id="stop10151" style="stop-color:#80c7c8;stop-opacity:0" offset="1"></stop></linearGradient><linearGradient id="linearGradient2183" y2="397.98" gradientUnits="userSpaceOnUse" x2="248.25" gradientTransform="scale(1.6158 .61890)" y1="397.98" x1="76.33" inkscape:collect="always"><stop id="stop2179" style="stop-color:#e7e4b3" offset="0"></stop><stop id="stop2181" style="stop-color:#e7e4b3;stop-opacity:0" offset="1"></stop></linearGradient></defs><g id="layer1" inkscape:label="Layer 1" inkscape:groupmode="layer" transform="translate(-27.427 -142.73)"><g id="g1508"><path id="path7044" sodipodi:nodetypes="ccccccc" style="fill-rule:evenodd;stroke:black;stroke-width:1px;fill:#f9fed2" d="m393.96 492.74l6.06-200.01-106.95-99-84.98 8.08-82.83 90.92-6.06 185.87 274.76 14.14z"></path><path id="path18567" sodipodi:nodetypes="cccccc" style="fill-rule:evenodd;stroke:black;stroke-width:1px;fill:#e4eff1" d="m349.51 175.55l20.21 14.14h10.1l-2.02-44.44h-26.27l-2.02 30.3z"></path><path id="path7046" sodipodi:nodetypes="cccccccccccccccc" style="fill-rule:evenodd;stroke:black;stroke-width:1px;fill:#e39355" d="m290.92 143.23l-114.56 61.44 116.84-11.16 126.91 116.09 121.34 27.57-61.62-82.82-43.44-34.34-143.78-76.31 26 46.94-0.94 0.09-26.75-47.5zm-80.94 58.84l-31.72 3.44-85.339 91.25 22.839 7.25 94.22-101.94z"></path><path id="path7052" sodipodi:nodetypes="cccccccc" style="fill-rule:evenodd;stroke:black;stroke-width:1px;fill:#fefeda" d="m393.96 492.23l6.57-200.01 17.67 17.17 81.83 19.7-15.16 16.17 10.1 6.06v125.26l-101.01 15.65z"></path><path id="path7054" sodipodi:nodetypes="ccccc" style="stroke:black;stroke-width:1px;fill:none" d="m497 354.35l149.5 3.03 2.02 129.3-153.55-11.11 2.03-121.22z"></path><path id="path7058" sodipodi:nodetypes="ccccccccc" style="fill-rule:evenodd;stroke:black;stroke-width:1px;fill:#e89a5c" d="m495.98 355.36l-9.09-10.1 12.13-18.19 40.4 10.1-58.59-80.81 167.69 1.01 29.29 19.2-17.17 80.81-164.66-2.02z"></path><path id="path7060" sodipodi:nodetypes="ccccccc" style="fill-rule:evenodd;stroke:black;stroke-width:1px;fill:#fefeda" d="m648.52 486.68l34.34-12.13-2.02-111.11-8.08-64.65-12.12 56.57-12.12 1.01v130.31z"></path><path id="path7062" sodipodi:nodetypes="cccccc" style="fill-rule:evenodd;stroke:black;stroke-width:1px;fill:#bb8044" d="m679.83 272.52l13.13 13.14 8.09 71.72-22.23-2.02-6.06-52.53 7.07-30.31z"></path><path id="path7064" sodipodi:nodetypes="cccc" style="fill-rule:evenodd;stroke:black;stroke-width:1px;fill:#e89a5c" d="m648.76 256.07l31.85 17.07-2.68 3.94-29.17-21.01z"></path><path id="path8615" sodipodi:nodetypes="ccccc" style="fill-rule:evenodd;stroke:black;stroke-width:.91370px;fill:#e9eded" d="m257.11 338.74l95.98 1.91 2.67-88.38-96.19-2.92-2.46 89.39z"></path><path id="path7069" sodipodi:nodetypes="ccccc" style="fill-rule:evenodd;stroke:black;stroke-width:1px;fill:url(#linearGradient1406)" d="m265.67 332.63l78.79 2.02 2.02-75.76-78.28-2.53-2.53 76.27z"></path><path id="path11707" sodipodi:nodetypes="ccccc" style="fill-rule:evenodd;stroke:black;stroke-width:1px;fill:#e7f2f1" d="m184.35 367.98l47.99 1.52v-123.24l-47.99-1.51v123.23z"></path><path id="path7071" sodipodi:nodetypes="ccccc" style="fill-rule:evenodd;stroke:black;stroke-width:1.0054px;fill:url(#linearGradient1402)" d="m222.23 356.36l1.01-99.49-30.3-1.01 0.5 102.52 28.79-2.02z"></path><path id="path7073" sodipodi:nodetypes="ccccc" style="fill-rule:evenodd;stroke:black;stroke-width:.98030px;fill:#a27c26" d="m219.86 379.98l-3.22 102.68-70.34-3.08 3.8-101.54 69.76 1.94z"></path><path id="path13991" sodipodi:nodetypes="ccccc" style="fill-rule:evenodd;stroke:black;stroke-width:1px;fill:#e4eeef" d="m254.56 455.19l119.2 7.24v-94.95l-116.81-4.41-2.39 92.12z"></path><path id="path7075" sodipodi:nodetypes="ccccc" style="fill-rule:evenodd;stroke:black;stroke-width:1px;fill:url(#linearGradient1397)" d="m266.09 376.74l96.85 3.57v68.57l-98.28-6.65 1.43-65.49z"></path><path id="path7077" sodipodi:nodetypes="ccccc" style="fill-rule:evenodd;stroke:black;stroke-width:.93534px;fill:#edf3f1" d="m463.55 480.65l-1.35-90.46 14.68 6.08 0.95 82.51-14.28 1.87z"></path><path id="path7079" sodipodi:nodetypes="ccccc" style="fill-rule:evenodd;stroke:black;stroke-width:1px;fill:#b9af88" d="m27.927 552.79l468.57-77.14 155.71 10-515.71 138.57-108.57-71.43z"></path><path id="path7085" style="stroke:black;stroke-width:1px;fill:none" d="m639.36 332.79l8.57-37.14h-22.86l-12.86 35.71 27.15 1.43z"></path><path id="path10157" sodipodi:nodetypes="ccccccc" style="fill-rule:evenodd;stroke:black;stroke-width:1px;fill:#e1e14f" d="m105.06 373.54l116.67 2.02 10.61-4.04 0.5-16.67-14.65 2.53h-113.13v16.16z"></path><path id="path10917" sodipodi:nodetypes="ccccccc" style="stroke:black;stroke-width:.99696px;fill:none" d="m105.57 358.4l0.51-37.74 109.27 1.98 18.79-4.25-0.31 36.53-12.86 2.98-115.4 0.5z"></path><path id="path10919" style="stroke:black;stroke-width:1px;fill:none" d="m105.56 338.18l114.15 1.52"></path><path id="path10921" sodipodi:nodetypes="cc" style="stroke:black;stroke-width:1px;fill:none" d="m104.79 348.5l113.91 1.3"></path><path id="path10923" style="stroke:black;stroke-width:1px;fill:none" d="m106.57 328.08l113.14 1.52"></path><path id="path10925" style="stroke:black;stroke-width:1px;fill:none" d="m219.71 329.6l14.65-3.03"></path><path id="path10927" sodipodi:nodetypes="cc" style="stroke:black;stroke-width:1px;fill:none" d="m219.71 339.7l14.14-4.04"></path><path id="path10929" sodipodi:nodetypes="cc" style="stroke:black;stroke-width:1px;fill:none" d="m218.7 349.55l15.82-5.68"></path><path id="path10931" style="stroke:black;stroke-width:1px;fill:none" d="m130.43 321.01l-1.07 36.07"></path><path id="path10933" style="stroke:black;stroke-width:1px;fill:none" d="m160.78 321.01l-0.71 35.71"></path><path id="path10935" style="stroke:black;stroke-width:1px;fill:none" d="m192.93 321.72l-0.36 35"></path><path id="path10937" style="stroke:black;stroke-width:1px;fill:none" d="m106.14 320.29l17.86-6.07"></path><path id="path10939" style="stroke:black;stroke-width:1px;fill:none" d="m106.5 328.51l17.5-5.36"></path><path id="path10941" style="stroke:black;stroke-width:1px;fill:none" d="m106.5 338.15l17.14-4.64"></path><path id="path10943" style="stroke:black;stroke-width:1px;fill:none" d="m104.71 348.86l18.57-5.35"></path><path id="path10945" style="stroke:black;stroke-width:1px;fill:none" d="m105.07 356.72l18.21-5"></path><rect id="rect15517" style="fill:url(#linearGradient1375)" rx="0" ry="7.3162" height="36.365" width="50.508" y="391.6" x="158.42"></rect><rect id="rect15519" style="fill:#0f1919" rx="3.0305" ry="3.0305" height="6.0609" width="14.142" y="444.25" x="197.99"></rect><path id="path18563" style="stroke:black;stroke-width:1px;fill:none" d="m98.995 298.79l86.875-92.94"></path><path id="path18565" sodipodi:nodetypes="ccccc" style="fill-rule:evenodd;stroke:black;stroke-width:1px;fill:#bb8044" d="m92.429 296.26l84.851-91.42 32.83-3.03-92.93 103.04-24.751-8.59z"></path><path id="path19327" sodipodi:nodetypes="ccccc" style="fill-rule:evenodd;stroke:black;stroke-width:1px;fill:#8ed5de" d="m661.65 386.67l1.01 29.3 6.06-8.09v-28.28l-7.07 7.07z"></path><path id="path23145" sodipodi:nodetypes="ccccc" style="fill-rule:evenodd;stroke:black;stroke-width:1px;fill:#fefeda" d="m495.57 476.58l151.52 10.1v-129.3l-151.52-1.01v120.21z"></path><path id="path23909" sodipodi:nodetypes="ccccccc" style="fill-rule:evenodd;fill:url(#linearGradient2183)" d="m123.83 299.01l86.28-87.09 88.9-6.07 101.6 87.94-107.07-100.18-83.43 8.2-86.28 97.2z"></path><path id="path20087" sodipodi:nodetypes="ccccccccccccc" style="fill-rule:evenodd;fill:#b9b065;fill-opacity:.33548" d="m402.21 295.65l97.15 145.71 27.14-67.14h115.71l25.72 50 11.43-72.86-5.72-53.57-12.86 57.15-162.85-0.72-11.43-8.57 10-17.14-75.72-17.15-18.57-15.71z"></path><path id="path22377" sodipodi:nodetypes="cccccc" style="fill-rule:evenodd;fill-opacity:.61935;stroke:url(#linearGradient1365);stroke-width:1px;fill:black" d="m496.5 357.08l-10-11.43 12.86-17.14 37.14 8.57-8.57 18.74-31.43 1.26z"></path><path id="path23147" style="fill-rule:evenodd;stroke:black;stroke-width:1px;fill:#edf3f1" d="m530.78 478.51l104.29 8.57v-92.86l-104.29-4.28v88.57z"></path><rect id="rect23149" style="fill:#121614" rx="3.0305" ry="3.0305" height="17.173" width="5.0508" y="429.1" x="542.45"></rect></g></g><metadata></metadata></svg> 