<?xml version="1.0" encoding="UTF-8" standalone="no"?> <!-- Created with Inkscape (http://www.inkscape.org/) --> <svg xmlns:inkscape="http://www.inkscape.org/namespaces/inkscape" xmlns:rdf="http://www.w3.org/1999/02/22-rdf-syntax-ns#" xmlns="http://www.w3.org/2000/svg" xmlns:sodipodi="http://sodipodi.sourceforge.net/DTD/sodipodi-0.dtd" xmlns:cc="http://web.resource.org/cc/" xmlns:xlink="http://www.w3.org/1999/xlink" xmlns:dc="http://purl.org/dc/elements/1.1/" xmlns:svg="http://www.w3.org/2000/svg" xmlns:ns1="http://sozi.baierouge.fr" id="svg2" sodipodi:docname="parek s chlebem a kecup.svg" viewBox="0 0 566.53 702.71" sodipodi:version="0.32" inkscape:version="0.44.1" inkscape:label="Pozadí" sodipodi:docbase="D:\_petr_\School\INKSCAPE\svg\05.Ovoce, zelenina, jidlo\jidlo"><defs id="defs3"><linearGradient id="linearGradient5535" inkscape:collect="always"><stop id="stop5537" style="stop-color:#ccc" offset="0"></stop><stop id="stop5539" style="stop-color:#ccc;stop-opacity:0" offset="1"></stop></linearGradient><radialGradient id="radialGradient3747" gradientUnits="userSpaceOnUse" cy="509.15" cx="169.03" gradientTransform="matrix(0.965 -.26223 .68488 2.5203 -267.91 -589.77)" r="136.98" inkscape:collect="always"><stop id="stop3741" style="stop-color:#ccc" offset="0"></stop><stop id="stop3743" style="stop-color:#ccc;stop-opacity:0" offset="1"></stop></radialGradient><radialGradient id="radialGradient4642" gradientUnits="userSpaceOnUse" cy="627.76" cx="442.67" gradientTransform="matrix(1 0 0 1.0981 74.88 90.841)" r="104.92" inkscape:collect="always"><stop id="stop4638" style="stop-color:#ccc" offset="0"></stop><stop id="stop4640" style="stop-color:#ccc;stop-opacity:0" offset="1"></stop></radialGradient><radialGradient id="radialGradient5541" xlink:href="#linearGradient5535" gradientUnits="userSpaceOnUse" cy="333.83" cx="487.43" gradientTransform="matrix(1 0 0 1.2128 74.88 92.105)" r="140.72" inkscape:collect="always"></radialGradient><radialGradient id="radialGradient1893" xlink:href="#linearGradient5535" gradientUnits="userSpaceOnUse" cy="333.83" cx="487.43" gradientTransform="matrix(1 0 0 1.2128 149.76 255.26)" r="140.72" inkscape:collect="always"></radialGradient><radialGradient id="radialGradient1895" xlink:href="#linearGradient5535" gradientUnits="userSpaceOnUse" cy="123.64" cx="339.14" gradientTransform="matrix(1 0 0 1.2128 149.76 255.26)" r="140.72" inkscape:collect="always"></radialGradient></defs><g id="layer1" inkscape:label="Vrstva 1" inkscape:groupmode="layer" transform="translate(-74.88 -163.16)"><g id="g5543" inkscape:export-ydpi="90" inkscape:export-xdpi="90" inkscape:export-filename="/media/KINGSTON/inkscape/8.b/Petra Thurlova/svg 3/Prace svg/jidlo/parek s chlebem a kecupem.png"><path id="path1871" sodipodi:nodetypes="csssssssc" style="fill:#db6a1c" d="m250.94 514.63c29.62 90.73 81.55 223.36 94.78 285.12 13.23 61.75-19.26 58.83-28.71 62.28-9.45 3.44-31.42 16.87-57.05-40.37-25.62-57.24-60.52-186.76-90.14-277.49-29.63-90.72-77.556-222.73-90.786-284.49-13.229-61.75 8.532-67.97 17.983-71.41 9.453-3.44 33.123-19.57 58.743 37.67 25.63 57.24 65.55 197.97 95.18 288.69z"></path><path id="path3650" style="fill-rule:evenodd;fill:#f70808" d="m467.04 675.06c13.66-45.53 73.12-68.23 112.69-41.5 32.39 24.14-0.76 64.58 17.61 94.33 16.74 28.08 40.3 53.04 44.07 87.21-1.4 46.47-65.73 40.87-97.02 29.61-37.98-9.51-89.34-7.98-107.57-50.7-14.62-31.04 5.24-63.9 11.67-93.82 3.12-10.51 20.06-13.98 18.55-25.13z"></path><g id="g2848"><path id="path4537" sodipodi:nodetypes="csssc" style="fill:#a9441a" d="m628.15 403.62c0 118.07-42.82 97.88-152.21 97.88-109.38 0-129.23 10.52-129.23-107.54 0-118.07 25.59-230.8 134.98-230.8 109.38 0 146.46 122.4 146.46 240.46z"></path><path id="path5425" sodipodi:nodetypes="csssssssc" style="fill:#e7a366" d="m612.32 417.83c0 50.75 4.4 71.79-16.86 80.14s-68.17 4.01-115.86 4.01-87.87 7.37-104.12-3.06-8.56-38.65-8.56-89.4c0-50.74 5.57-100.35 23.08-137.26 17.5-36.92 46.92-61.15 94.61-61.15s79.62 26.31 99.62 65.3c20.01 38.99 28.09 90.68 28.09 141.42z"></path></g><path id="path2852" sodipodi:nodetypes="csssssssc" style="opacity:.39252;fill:url(#radialGradient3747)" d="m250.94 514.63c29.62 90.73 81.55 223.36 94.78 285.12 13.23 61.75-19.26 58.83-28.71 62.28-9.45 3.44-31.42 16.87-57.05-40.37-25.62-57.24-60.52-186.76-90.14-277.49-29.63-90.72-77.556-222.73-90.786-284.49-13.229-61.75 8.532-67.97 17.983-71.41 9.453-3.44 33.123-19.57 58.743 37.67 25.63 57.24 65.55 197.97 95.18 288.69z"></path><path id="path3749" style="opacity:.5;fill-rule:evenodd;fill:url(#radialGradient4642)" d="m467.04 675.06c13.66-45.53 73.12-68.23 112.69-41.5 32.39 24.14-0.76 64.58 17.61 94.33 16.74 28.08 40.3 53.04 44.07 87.21-1.4 46.47-65.73 40.87-97.02 29.61-37.98-9.51-89.34-7.98-107.57-50.7-14.62-31.04 5.24-63.9 11.67-93.82 3.12-10.51 20.06-13.98 18.55-25.13z"></path><g id="g4644" style="opacity:.48598;fill:url(#radialGradient5541)"><path id="path4646" sodipodi:nodetypes="csssc" style="fill:url(#radialGradient1893)" d="m628.15 403.62c0 118.07-42.82 97.88-152.21 97.88-109.38 0-129.23 10.52-129.23-107.54 0-118.07 25.59-230.8 134.98-230.8 109.38 0 146.46 122.4 146.46 240.46z"></path><path id="path4648" sodipodi:nodetypes="csssssssc" style="fill:url(#radialGradient1895)" d="m612.32 417.83c0 50.75 4.4 71.79-16.86 80.14s-68.17 4.01-115.86 4.01-87.87 7.37-104.12-3.06-8.56-38.65-8.56-89.4c0-50.74 5.57-100.35 23.08-137.26 17.5-36.92 46.92-61.15 94.61-61.15s79.62 26.31 99.62 65.3c20.01 38.99 28.09 90.68 28.09 141.42z"></path></g></g></g><metadata></metadata></svg> 