<?xml version="1.0" encoding="UTF-8" standalone="no"?> <!-- Generator: Adobe Illustrator 12.0.1, SVG Export Plug-In . SVG Version: 6.00 Build 51448) --> <svg xmlns:rdf="http://www.w3.org/1999/02/22-rdf-syntax-ns#" xmlns="http://www.w3.org/2000/svg" xmlns:cc="http://web.resource.org/cc/" xmlns:xlink="http://www.w3.org/1999/xlink" xmlns:dc="http://purl.org/dc/elements/1.1/" xmlns:svg="http://www.w3.org/2000/svg" xmlns:inkscape="http://www.inkscape.org/namespaces/inkscape" xmlns:sodipodi="http://sodipodi.sourceforge.net/DTD/sodipodi-0.dtd" xmlns:ns1="http://sozi.baierouge.fr" id="Layer_1" xml:space="preserve" overflow="visible" viewBox="0 0 208.094 564.781"> <g clip-rule="evenodd" fill-rule="evenodd"> <path d="m208.09 190.66v18.998c-4.161 10.718-11.404 22.399-18.997 32.996-4.246 5.925-10.747 10.964-11.999 15.998-2.177 8.752 0.513 19.445 2 29.996 4.251 30.15 1.725 63.985 3 92.988 1.386 31.531 4.991 62.994 2.999 93.988-5.003-1.437-12.479 0.802-21.997 0 0.176 22.346 3.711 43.271 3 68.992h-11.999c-1.422 3.594 4.933 11.892 1 17.997-10.75 1.654-28.246 1.654-38.995 0-1.53-5.456 0.783-11.446 2-16.998-4.204 0.205-8.359 0.36-8.999-2.999 1.109-14.895-0.213-32.791-1-50.994-0.234-5.411 1.781-11.83-2-15.998-0.431 2.236-4.928 0.405-6.999 1-2.859 5.41-2.858 13.123-3 19.998-0.318 15.473 1.15 33.195 1 48.993-4.694 1.207-5.881 0.553-11.998 1 1.438 4.48 5.173 11.145 2 16.998-10.223 1.977-28.244 0.811-36.995 1-1.764-4.495-1.347-12.593 1-15.998-4.653 0.32-8.986 0.321-9.999-3-1.099-25.696 1.206-44.746 1-67.991-5.077 0.52-11.733 0.769-16.998-1-1.05-37.325 2.485-86.521 5-122.98 1.894-27.471 1.796-57.315 3-85.989-12.13-14.23-30.952-27.71-32.991-52.02-0.75-8.932 2.19-19.407 4-28.996 1.672-8.86 4.436-17.237 6.999-24.997 4.908-14.856 6.983-37.68 17.998-45.994 3.541-2.672 8.562-3.225 12.999-5 4.572-1.829 8.042-4.403 11.999-5.999 8.199-3.307 17.931-4.435 23.997-11.999-0.064-4.905-6.586-8.017-8.999-13.999-0.925-2.293-0.026-6.279-1-8.999-1.669-4.664-8.37-14.641-8.999-20.998-0.155-1.571 0.898-4.973 1-7.999 0.621-18.506 5.292-25.186 17.998-32.996 10.012-6.155 20.042-10.86 33.995-5 3.718 1.562 8.738 5.9 13.999 8.999 5.866 3.455 10.196 4.994 11.998 9.999 1.644 4.564 0.357 11.146 1 16.998 0.665 6.059 2.438 10.632 2 14.998-0.406 4.044-3.375 8.177-5 12.999-1.637 4.858-1.451 10.472-2.999 13.998-2.157 4.913-8.323 7.485-7.999 12.999 14.145 4.7 34.509 11.352 51.993 15.998 15.64 21.69 21.13 53.53 30.99 81zm-74.99-146.99c-0.61-0.057-1.184-0.15-1-1-0.212-1.122-1.109-1.557-2-2-0.095 1.571 0.134 3.467-2 3-0.132-2.465-0.151-4.818 1-6-7.386-2.946-9.004-11.66-10.998-19.998-11.479 8.187-28.753 10.576-47.994 10.999-0.56 1.44-1.56 2.44-3 3 0.018 4.54-4.167 15.133 3 14.999 1.423-4.48-2.697-8.558 0-10.999 1.598 2.734 2.059 6.607 2 10.999 3.8-2.367 5.474-5.749 10.999-6 3.63-0.165 10.101 3.2 11.999 6 2.902-1.296 7.096-1.296 9.998 0 3.131-6.178 14.988-10.413 20.998-5-3.091 0.771-10.387-2.701-8.999 0 7.36-1.641 11.44 7.057 16 2zm-26.99 3c-3.281 15.881 24.495 16.102 19.998-1-5.83-2.361-13.81-1.314-20 1zm-31 0.999c-0.59 4.257 0.719 6.613 1 9.999 7.854 5.631 23.32 0.495 16.998-10.999-4.994-2.314-13.698-0.619-17.998 1zm32 22.997c6.543 1.79 10.598 6.067 12.998 11.999 7.359-8.306 11.508-19.822 12.999-33.996-6.743 1.032-5.566 10.121-11.999 11.999-2.918 0.852-5.952-0.585-10.998 0-2.234-3.765-6.735-5.264-6.999-10.999h-6c0.528 4.194-1.746 5.585-1.999 8.999-3.932 3.612-18.684 5.312-20.998-1-1.317-2.683 0.113-8.113-5-6.999 4.423 11.575 3.568 28.428 14.998 32.996-0.666-7.665 4.564-9.434 8.999-11.999-2.8 0.088-2.8-6.087 0-5.999-0.89 2.984 1.02 8.185 2.999 4.999-3.508 1.053-0.828-3.372 0-3.999 1.865 5.181 8.891 1.361 10.999 2v1.999zm-28 26.997c8.232 4.766 13.757 12.24 22.998 15.998 3.638-2.896 8.594-5.702 12.998-8.999 3.846-2.879 11.098-6.33 8.999-11.999-6.875 0.119-9.275 8.445-15.998 9.999-12.019 2.778-19.776-4.425-26.997-9.999 0.741 3.085-2.748 1.928-2.003 5.006zm65.99 8.003c-0.637-2.182 2.834-3.181-1-3-1.875 0.24 0.567 1.646-1 2-3.675-1.99-8.51-2.822-11.998-5-0.096-1.571 0.134-3.467-2-3 0.739 22.809-8.653 43.952-31.996 45.994-15.068-6.595-20.982-22.345-20.997-43.995-3.007 0.179-7.049 1.688-9.999 3-11.211 4.984-21.988 11.417-33.996 13.998 9.924 27.453 14.606 55.399 15.998 89.989 0.253 3.586-3.002 3.663-3 6.999 11.369 13.961 27.409 23.252 39.995 35.996 14.646 0.923 21.422-1.744 36.995-1 6.071-16.259 24.854-19.807 29.996-36.995 3.517 2.786 3.662-4.48 6.999-5-1.196-5.818-3.63-15.68-0.999-21.997 0.361 7.304-0.584 15.915 2.999 19.997 0.783-27.474 4.028-58.662 10.999-84.989-2.841-3.492-11.558-1.108-12.999-5.999 5.066 0.934 9.197 2.802 13.999 4-0.5-1.956 2.179-6.38 0-4-7.94 0.26-17.69-6.3-28-7zm-34.99 4c-6.87 5.486-5.555 4.461-2 8.999 3.833 4.893 3.871 10.564 7.999 12.999 6.553-7.451 12.368-20.955 9.999-33.996-4.36 5.546-11.01 8.006-16 11.996zm-20.001 23.99c0.208-9.457 5.037-14.294 9.999-18.998-8.394-3.938-14.233-10.43-21.997-14.998 1.573 13.758 1.85 28.818 11.996 33.998zm67.991-26.99c-1.468-0.675-8.588-3.158-3-1 2.07 0.79 7.84 3.23 3 1zm13 4c-2.854-0.203-6.618-4.636-8.999-2 2.71 0.13 10.38 4.25 9 2zm11 134.98c-2.846 6.164-11.484 11.832-11.999 16.998 3.3-5.71 11.44-11.88 12-17zm-21 25c6.729-7.023 13.897-17.83 20.998-26.997 3.477-4.489 6.8-9.107 9.998-13.998 3.313-5.066 8.183-10.275 9.999-13.999 12.097-24.797-9.233-47.413-11.999-71.991 1.557 0.08 0.693-2.907 0-1-4.176-3.82-7.217-22.416-14.998-27.997-6.317 26.345-11.572 53.752-11.998 85.989 4.64 0.659 7.299-3.292 11.998-3 7.993 0.497 15.697 9.195 8.999 14.998-5.817-5.312-8.783-12.018-16.998-10.999-5.133 0.637-10.164 8.214-14.998 13.998-5.153 6.167-10.406 12.285-12.998 15.998-5.684 3.315-10.796 7.202-12.998 13.999 7.238 11.426 13.811 23.518 16.997 38.995 5.98-2.97 12.39-8.14 18-13.99zm26-136.99c1.86 9.82 5.33 5.61 0 0zm-79.99-12c-0.55-9.891-16.69-2.931-6.999 6.999 4.84-0.58 7.2-3.29 7-7zm-87.992 124.99c-1.329 0.146-3.721-3.363-4-1 11.319 12.962 24.464 27.078 36.995 37.995 4.387 3.821 9.085 8.899 14.998 8.999-7.1-3.906-15.982-11.338-18.998-15.998 7.475 3.856 11.402 11.262 19.998 13.998 2.285-16.713 4.921-33.074 10.999-45.994-3.756-2.467-5.935-3.89-9.999-4-9.025-7.64-17.513-15.816-25.997-23.997-2.785-1.485 2.113-4.467-2-4-7.245 3.753-8.105 13.892-16.998 15.998-0.116-12.781 11.345-13.985 18.998-18.998 5.375-33.362-3.122-66.606-12.999-90.989-9.263 6.786-11.836 25.214-15.998 37.995-3.322 10.2-5.793 20.762-7.999 31.996-3.204 16.321-6.4 32.339 2 42.995 3.334 4.23 6.497 6.807 7.999 11.999 10.367 9.963 19.959 20.702 29.996 30.996-10.495-7.85-19.785-16.89-26.995-28.01zm75.99-107.99c1.194-4.78 5.95-12-1-13.998-1.176 4.31-6.184 12.78 1 14zm18.992-4c-1.619-3.713-2.158-8.507-5.999-9.999-3.87 3.67 0.28 13.18 6 10zm-16.993 5c5.047 0.713 7.3-1.366 10.999-2-0.72-10.76-11.408-8.32-11.003 2zm-50.993 62.99c0.272-1.361-0.619-3.903-1-2-0.272 1.37 0.619 3.91 1 2zm137.99 8c2.672-2.79-0.937-4.939-1-7.999-2.594 0.182-6.696-3.196-7.999-1 4.72 1.28 6.04 5.96 9 9zm-158.98 16c4.164-1.193 8.095-7.871 7.999-9.999-2.992 3.01-7.236 4.77-7.999 10zm167.98 5c1.958-2.08 6.708-6.573 4.999-8.999-1.35 2.32-7.34 12.61-5 9zm-178.98 10c-1.388-1.452-6.088-8.541-5-6 1.18 1.88 3.111 8.15 5 6zm106.98 36.99c2.993-2.013 11.479-11.868 10.999-18.998-0.34-5.033-5.471-6.014-5.999-10.999-7.395 2.248-15.416-1.635-22.997 1 0.771 5.228 9.07 2.928 11.998 5.999 0.322 14.654-5.674 22.99-11.998 30.997 10.302-0.03 9.904-10.76 15.998-14.999-0.343 5.346-7.437 9.199-6 12.999 4.965-2.701 7.289-8.042 9.999-12.999 1.15 4.15-2.1 3.9-2 7zm54 15c-4.352-7.559-0.287-24.558-2.999-30.997-7.406 5.296-3.792 11.186-3 22.998 0.512 7.637-0.322 16.592 0 21.997 0.244 4.092 3.611 8.91 0 10.998-1.302-17.564-1.558-30.049-2.999-46.994-13.389 3.889-11.874 16.182-10.999 34.996 0.454 9.764 2.594 19.989 0 27.996 0.255-17.919-1.192-34.136-2-50.993-4.594 1.072-5.876 5.456-10.998 5.999-6.738-3.261-9.864-10.133-11.999-17.998-3.905 2.908-5.223 7.034-8.999 9.999-4.489 3.525-9.945 4.782-15.998 6.999-9.023-3.437-18.473-4.343-24.997-11.998-1.256 8.076-4.198 14.466-7.999 19.997-18.549-2.448-23.974-18.021-36.995-25.997-0.962 70.81-7.865 143.13-8.999 204.97 24.165-0.563 48.748 2.144 72.991 0 7.91-0.699 15.979-3.438 23.997-2.999 11.66 0.639 23.379 6.032 34.996 2-0.409-2.004-2.477-7.416 0-8.999 2.269 1.063 0.38 6.285 0.999 8.999 3.969-2.364 13.835 1.169 14.998-4 0.692 8.529 8.834-3.68 9.999 2 1.085-2.75 0.216-14.823-1-14.998-1.046 3.619 2.269 11.6-1.999 11.998 0.835-34.165-3.854-68.136-3-98.987 2.599 6.067-0.437 17.768 2 23.997 2.133 15.702 0.171-10.921 0-13.998-0.517-9.305 0.972-14.038-2-11.999 0.44-25.438 0.046-50.039-3-71.991 0.014-2.806 2.729 2.381 2-1.999-1.126-2.874-0.202-7.797-2-9.999-1.22 3.62 2 7.89 0 8.99zm-79.992-11c-4.456-1.896-10.823-7.15-8.999-11.999 2.703 6.962 8.416 10.915 14.998 13.999-4.753-8.935-15.313-16.892-10.999-28.997 1.62-3.379 8.829-1.169 9.999-5-6.782-0.55-15.839 1.174-20.998-1-1.695 5.971-4.097 11.234-4.999 17.998 3.581 4.417 7.581 8.417 11.999 11.999 0.745-3.078-2.745-1.921-2-5 3.994 1.7 5.795 10.84 10.996 8zm7.002-29.99c-0.79 4.21-8.053 1.946-10.999 4-2.21 14.542 7.215 17.449 10.999 25.997 8.553-4.112 10.187-15.143 11.998-25.997-4.46-0.88-8.87-1.81-12-4zm72.99 18c-0.368-2.688 0.917-12.171-1-9.999 0.37 2.69-0.92 12.17 1 10zm-33 15.99c-2.417-8.583-4.496-17.502-9.999-22.998-2.38 9.75 3.66 18.76 10 23zm25-20.99c-5.08 5.58 3.98-4.39 0 0zm-96.989 23.99c3.187 0.854 3.795-0.871 4.999-2 1.236-3.235-3.235-0.764-2-3.999 5.532 0.866 3.217-6.115 5-8.999-1.286-1.714-2.068-3.932-5-4-1.754 7.62-0.874 13.17-2.999 19zm105.99-7c-1.521-1.211-0.246-10.329-2-7.999 0.82 2.51-1.95 8.62 2 8zm-105.99 10h3c0.129-1.796-0.993-2.34-3-2v2zm107.99 12c-0.119-1.662 0.546-9.056-1-5.999 0.12 1.66-0.55 9.06 1 6zm3 43c-0.884-13.448 0.161-28.825-3-39.995 0.93 8.92 0.9 32.88 3 40zm0 12.99c-0.352-8.079-1.009 3.546-1 3-0.1 6.14 1.1-0.73 1-3zm1 43c0.224-1.7-1.127-2.475-1 0 0.568 16.062-0.846 36.927 1.999 48.993 0.31 1.311-0.067 3.893 1 2-2.32-16.74-1.24-34.88-2-50.99zm-20 91.99c0.49-8.489-0.558-15.44-4.999-18.998-3.936-1.602-0.349 4.318-3 4-1.067-0.933-0.311-3.688-3-3-15.936 0.977-29.175-4.572-40.994-2-0.546 24.528 2.043 53.822 1.999 67.992 20.38-0.677 33.319 1.781 51.994-2-4.629 0.213 0.982-3.565-2-4.999 3.323 0.022 0.863-3.548 1-6 0.162-2.912 1.141-6.295 1-9.998-0.056-1.461-1.812-2.487-2-4-0.451-3.638 1.385-8.529 1-11.998-0.542-4.886-4.704-9.261-2-12.999 0.17 1.5-0.36 3.7 1 4.01zm-73.991-16c-6.399-4.521-14.825 0.396-21.997 0-7.357-0.405-14.419-4.153-21.998-2-0.893 22.353-2.762 45.924-1 67.991 10.508 1.261 27.434-0.601 41.995-0.999 0.547-1.453-1.168-5.168 1-5v5c3.816 0.892 6.382-1.633 7.999 0 1.062-14.789 0.698-28.138-1-45.995 0.054 1.871-0.77 2.117-2 1 1.132-5.091 1.286-8.539 4-9.998-0.325-2.408 0.853-11.429-1-8.999-0.575 1.758 1.208 5.874-1 5.999-1.449-3.532 2.648-9.634-1-8.999-3.145-1.15-2.429 1.57-3.999 2z"></path> <path fill="#F1E5C8" d="m126.1 45.674c4.497 17.102-23.279 16.881-19.998 1 6.2-2.314 14.18-3.361 20-1zm-16.99 5.999c2.21 2.099 12.45 4.063 12.998-1-3.28-3.366-11.09-3.862-13 1z"></path> <path fill="#F1E5C8" d="m93.108 46.674c6.322 11.494-9.145 16.629-16.998 10.999-0.281-3.386-1.59-5.742-1-9.999 4.3-1.62 13.004-3.315 17.998-1zm-15.998 4.999c2.022 5.67 10.182 3.59 14.998 2-0.412-6.148-11.787-4.274-14.998-2z"></path> <path d="m92.108 53.673c-4.816 1.59-12.976 3.67-14.998-2 3.211-2.274 14.586-4.148 14.998 2zm-7.999 0h2c1.554-2.46-3.396-2.94-3-1 0.611 0.056 1.184 0.149 1 1z"></path> <path fill="#FFFFFF" d="m83.109 52.673c-0.396-1.94 4.554-1.46 3 1h-2c0.184-0.851-0.389-0.944-1-1z"></path> <path d="m106.11 64.671c3.21-0.876 2.073 2.593 4 3-1.5 3.004-4.49-0.736-4-3z"></path> <path d="m96.107 79.669c4.863 0.613 5.137 0.613 9.999 0-0.52-4.388-8.449-1.019-10.003 0zm-3.999 2c4.04 3.173 16.267 3.116 17.998-2-4.77 4.74-13.091 1.153-18.002 2zm13.002 10.999c7.092 2.101 10.297-8.111 6-10.999-2.28 3.386-7.49 3.844-6 10.999zm-15.001-2c3.149-0.483 2.263 3.069 5.999 2 2.694-4.489-2.058-8.939-5.999-9.999v7.999z"></path> <path fill="#FFFFFF" d="m106.11 79.669c-4.862 0.613-5.136 0.613-9.999 0 1.55-1.019 9.479-4.388 9.999 0z"></path> <path fill="#F1E5C8" d="m111.11 81.669c4.297 2.887 1.092 13.099-6 10.999-1.49-7.155 3.72-7.613 6-10.999z"></path> <path fill="#F1E5C8" d="m90.109 82.669c3.941 1.06 8.693 5.509 5.999 9.999-3.735 1.069-2.85-2.483-5.999-2v-7.999z"></path> <path fill="#F1E5C8" d="m81.11 92.668c7.22 5.573 14.978 12.777 26.997 9.999 6.723-1.554 9.123-9.88 15.998-9.999 2.099 5.668-5.153 9.119-8.999 11.999-4.404 3.297-9.36 6.103-12.998 8.999-9.24-3.758-14.765-11.232-22.998-15.998-0.747-3.083 2.742-1.926 1.998-5.004z"></path> <path fill="#FFFFFF" d="m126.1 97.667c2.369 13.041-3.446 26.545-9.999 33.996-4.128-2.434-4.166-8.105-7.999-12.999-3.555-4.537-4.87-3.513 2-8.999 5-3.98 11.65-6.44 16-11.993z"></path> <path fill="#FFFFFF" d="m78.11 99.667c7.764 4.568 13.604 11.06 21.997 14.998-4.962 4.703-9.791 9.541-9.999 18.998-10.148-5.18-10.425-20.24-12.001-33.993z"></path> <path d="m140.1 107.67c4.811-2.448 9.462 3.848 14.998 4-4.35 1.99-11.06-2.25-15-4z"></path> <path fill="#8F0000" d="m100.11 128.66c-9.691-9.93 6.449-16.89 6.999-6.999 0.2 3.71-2.16 6.42-7 7z"></path> <path fill="#FFFFFF" d="m94.108 124.66c6.95 1.999 2.194 9.218 1 13.998-7.184-1.22-2.176-9.69-1-14z"></path> <path fill="#FFFFFF" d="m108.11 124.66c3.841 1.491 4.38 6.286 5.999 9.999-5.73 3.18-9.88-6.33-6-10z"></path> <path fill="#8F0000" d="m108.11 137.66c-3.699 0.634-5.952 2.713-10.999 2-0.409-10.32 10.279-12.76 10.999-2z"></path> <path d="m158.1 179.66c-3.28-2.42 2.78-4.78 0 0z"></path> <path d="m150.1 189.66c1.377-3.183 0.989 3.533 0.999 5-1.38 3.18-0.99-3.54-1-5z"></path> <path fill="#5F6062" d="m45.114 200.65c0.381-1.903 1.272 0.639 1 2-0.381 1.91-1.272-0.63-1-2z"></path> <path fill="#5F6062" d="m175.1 201.65c1.303-2.196 5.405 1.182 7.999 1 0.063 3.06 3.672 5.209 1 7.999-2.96-3.04-4.28-7.72-9-9z"></path> <path d="m75.11 244.65c-1.313-0.354-1.572-1.76-3-2 0.408-2.49 3.877-0.06 3 2z"></path> <path fill="#F1E5C8" d="m123.1 271.65c-2.71 4.956-5.034 10.297-9.999 12.999-1.437-3.8 5.657-7.653 6-12.999-6.094 4.239-5.696 14.968-15.998 14.999 6.324-8.007 12.32-16.342 11.998-30.997-2.928-3.071-11.228-0.771-11.998-5.999 7.581-2.635 15.603 1.248 22.997-1 0.528 4.984 5.659 5.965 5.999 10.999 0.48 7.129-8.006 16.984-10.999 18.998-0.1-3.11 3.15-2.86 2-7z"></path> <path fill="#5F6062" d="m114.1 256.65c-1.812 10.854-3.445 21.884-11.998 25.997-3.784-8.547-13.209-11.455-10.999-25.997 2.946-2.053 10.209 0.21 10.999-4 3.14 2.19 7.55 3.12 12 4z"></path> <path fill="#5F6062" d="m174.1 260.65c1.917-2.173 0.632 7.311 1 9.999-1.92 2.17-0.63-7.31-1-10z"></path> <path fill="#5F6062" d="m132.1 263.65c5.503 5.496 7.582 14.415 9.999 22.998-6.34-4.25-12.38-13.26-10-23z"></path> <path fill="#5F6062" d="m73.111 270.65c2.932 0.068 3.713 2.286 5 4-1.782 2.884 0.532 9.865-5 8.999-1.236 3.235 3.235 0.764 2 3.999-1.204 1.129-1.812 2.854-4.999 2 2.124-5.84 1.244-11.39 2.999-19z"></path> <path fill="#5F6062" d="m174.1 274.64c1.754-2.33 0.479 6.788 2 7.999-3.95 0.62-1.18-5.49-2-8z"></path> <path fill="#5F6062" d="m70.111 290.64c2.006-0.34 3.128 0.204 3 2h-3v-2z"></path> <path fill="#5F6062" d="m177.1 298.64c1.546-3.057 0.881 4.337 1 5.999-1.55 3.06-0.88-4.34-1-6z"></path> <path fill="#5F6062" d="m178.1 307.64c3.161 11.17 2.116 26.547 3 39.995-2.1-7.12-2.07-31.08-3-40z"></path> <path d="m171.1 385.63c-4.85-16.717 2.131-43.714-2-62.992 3.826-1.187 1.685 8.069 2 12.998 1 15.6-0.61 34.44 0 49.99z"></path> <path d="m155.1 336.64c2.257 5.705 0.831 12.689 2 23.997-4.54-3.48-0.77-16.55-2-24z"></path> <path d="m156.1 364.63c0.65-2.819 1.16 2.303 1 2.999-0.46 2.01-1.88 0.81-1-3z"></path> <path d="m156.1 373.63c1.773-2.667 0.729 5.858 1 7.999-1.77 2.67-0.73-5.86-1-8z"></path> <path d="m155.1 384.63c3.222-0.648 3.222 10.647 0 9.999 1.06-4.07-0.28-4.74 0-10z"></path> <path d="m170.1 388.63c2.842 5.315 1.521 23.754 3 35.995-2.97-7.88-2.45-22.94-3-35.99z"></path> <path d="m156.1 395.63c1.354 6.638 2.099 14.956 1 18.997-1.17-5.42-2.7-13.81-1-19z"></path> <path d="m157.1 420.63c1.434 1.233 1.894 3.438 1.999 6-3.61 0.94-1.4-3.94-2-6z"></path> <path d="m172.1 426.63c1.726 0.307 0.839 11.801 1.999 15.998-4.42-1.59-0.85-11.15-2-16z"></path> <path d="m157.1 430.62c4.038 5.58-0.351 24.306 1 32.996-2.6-10.51-0.34-20.13-1-33z"></path> <path d="m172.1 446.62c3.612-1.947 1.878 6.067 1.999 9.999 0.151 4.869-0.12 9.963 0 12.998-5.29-4.23 0.52-18.36-2-23z"></path> <path d="m87.109 481.62c1.151-3.235 1.132 2.685 1 3.999-1.151 3.23-1.132-2.69-1-4z"></path> <path d="m87.109 487.62c1.781 0.732 0.145 1.818 0 2.999-1.78-0.74-0.144-1.82 0-3z"></path> <path d="m86.109 497.62c0.65-2.819 1.16 2.303 1 2.999-0.463 2-1.878 0.8-1-3z"></path> <path d="m85.109 506.62c1.163-0.162 1.779 0.221 2 1-1.043 8.398-1.128 18.191-1 29.996-2.308-3.024-0.353-10.312-1-14.998v-16z"></path> <path d="m163.1 518.62c-0.547 1.453 1.168 5.168-1 4.999 0.55-1.46-1.17-5.17 1-5z"></path> <path fill="#F1E5C8" d="m117.1 41.674c-1.388-2.701 5.908 0.771 8.999 0-6.01-5.413-17.867-1.178-20.998 5-2.902-1.296-7.096-1.296-9.998 0-1.898-2.8-8.369-6.165-11.999-6-5.524 0.251-7.198 3.633-10.999 6 0.059-4.392-0.402-8.264-2-10.999-2.697 2.44 1.423 6.519 0 10.999-7.167 0.135-2.982-10.458-3-14.999 1.44-0.56 2.44-1.56 3-3 19.241-0.423 36.516-2.812 47.994-10.999 1.994 8.337 3.612 17.052 10.998 19.998-1.151 1.182-1.132 3.534-1 6 2.134 0.467 1.905-1.429 2-3 0.891 0.443 1.788 0.878 2 2-0.184 0.85 0.39 0.943 1 1-4.56 5.057-8.64-3.641-16-2z"></path> <path fill="#F1E5C8" d="m107.11 68.671c-2.108-0.638-9.134 3.181-10.999-2-0.828 0.627-3.508 5.052 0 3.999-1.979 3.186-3.889-2.015-2.999-4.999-2.8-0.088-2.8 6.087 0 5.999-4.435 2.564-9.665 4.334-8.999 11.999-11.43-4.568-10.575-21.421-14.998-32.996 5.113-1.114 3.682 4.316 5 6.999 2.314 6.312 17.066 4.612 20.998 1 0.253-3.414 2.527-4.805 1.999-8.999h6c0.264 5.735 4.765 7.233 6.999 10.999 5.046-0.585 8.08 0.852 10.998 0 6.433-1.877 5.256-10.966 11.999-11.999-1.491 14.174-5.64 25.69-12.999 33.996-2.4-5.932-6.455-10.209-12.998-11.999v-1.999zm3-1c-1.927-0.406-0.79-3.876-4-3-0.49 2.264 2.5 6.004 4 3z"></path> <path fill="#FEDBBC" d="m110.11 79.669c-1.731 5.116-13.958 5.173-17.998 2 4.907-0.847 13.228 2.74 17.998-2z"></path> <path fill="#5F6062" d="m173.1 112.67c2.179-2.381-0.5 2.044 0 4-4.802-1.198-8.933-3.066-13.999-4 1.441 4.891 10.158 2.507 12.999 5.999-6.971 26.328-10.216 57.515-10.999 84.989-3.583-4.083-2.638-12.693-2.999-19.997-2.631 6.317-0.197 16.179 0.999 21.997-3.337 0.519-3.482 7.786-6.999 5-5.142 17.188-23.925 20.736-29.996 36.995-15.573-0.744-22.349 1.923-36.995 1-12.586-12.744-28.626-22.034-39.995-35.996-0.003-3.336 3.252-3.413 3-6.999-1.392-34.589-6.074-62.536-15.998-89.989 12.008-2.581 22.785-9.014 33.996-13.998 2.95-1.312 6.991-2.821 9.999-3 0.015 21.649 5.929 37.399 20.997 43.995 23.343-2.042 32.735-23.185 31.996-45.994 2.134-0.467 1.904 1.428 2 3 3.488 2.178 8.323 3.009 11.998 5 1.567-0.354-0.875-1.76 1-2 3.834-0.181 0.363 0.818 1 3 10.31 0.7 20.06 7.26 28 7zm-18-1c-5.536-0.152-10.188-6.447-14.998-4 3.94 1.75 10.65 5.99 15 4zm3 67.99c2.78-4.78-3.28-2.42 0 0zm-7 15c-0.01-1.466 0.378-8.182-0.999-5 0.01 1.46-0.38 8.18 1 5z"></path> <path fill="#5F6062" d="m155.1 105.67c-5.588-2.159 1.532 0.325 3 1 4.84 2.23-0.93-0.21-3-1z"></path> <path fill="#5F6062" d="m162.1 108.67c2.381-2.637 6.146 1.796 8.999 2 1.38 2.25-6.29-1.87-9-2z"></path> <path fill="#5F6062" d="m170.1 262.65c0.515-5.166 9.153-10.833 11.999-16.998-0.56 5.12-8.7 11.29-12 17z"></path> <path fill="#5F6062" d="m143.1 284.64c-3.187-15.477-9.759-27.569-16.997-38.995 2.202-6.796 7.314-10.683 12.998-13.999 2.592-3.713 7.845-9.831 12.998-15.998 4.834-5.784 9.865-13.361 14.998-13.998 8.215-1.02 11.181 5.686 16.998 10.999 6.698-5.803-1.006-14.501-8.999-14.998-4.699-0.292-7.358 3.659-11.998 3 0.426-32.237 5.681-59.644 11.998-85.989 7.781 5.581 10.822 24.177 14.998 27.997 0.693-1.907 1.557 1.08 0 1 2.766 24.578 24.096 47.194 11.999 71.991-1.816 3.724-6.686 8.932-9.999 13.999-3.198 4.891-6.521 9.509-9.998 13.998-7.101 9.167-14.269 19.974-20.998 26.997-5.61 5.86-12.02 11.03-18 14zm32-39.99c-1.869 2.568-4.633 6.218-3.999 8.999 4.625-8.041 11.749-13.581 15.998-21.998-4.05 2.92-8.63 8.37-12 13zm-32 34.99c10.232-6.099 17.7-14.963 24.997-23.997-8.67 7.67-17.08 15.6-25 24z"></path> <path fill="#5F6062" d="m187.1 133.66c5.33 5.61 1.86 9.82 0 0z"></path> <path fill="#5F6062" d="m46.114 274.64c-10.037-10.294-19.629-21.033-29.996-30.996-1.502-5.191-4.665-7.769-7.999-11.999-8.4-10.656-5.204-26.674-2-42.995 2.206-11.234 4.677-21.796 7.999-31.996 4.162-12.781 6.735-31.209 15.998-37.995 9.876 24.382 18.374 57.627 12.999 90.989-7.653 5.012-19.114 6.216-18.998 18.998 8.893-2.106 9.753-12.245 16.998-15.998 4.113-0.468-0.785 2.514 2 4 8.484 8.181 16.972 16.357 25.997 23.997 4.063 0.109 6.243 1.532 9.999 4-6.077 12.92-8.714 29.281-10.999 45.994-8.596-2.736-12.522-10.142-19.998-13.998 3.015 4.66 11.897 12.092 18.998 15.998-5.913-0.1-10.611-5.178-14.998-8.999-12.531-10.917-25.676-25.033-36.995-37.995 0.279-2.363 2.67 1.146 4 1 7.209 11.15 16.499 20.19 26.995 28.02zm25.997-31.99c1.427 0.24 1.687 1.646 3 2 0.876-2.06-2.593-4.49-3-2z"></path> <path fill="#5F6062" d="m33.116 216.65c0.096 2.128-3.835 8.806-7.999 9.999 0.763-5.23 5.007-6.99 7.999-10z"></path> <path fill="#5F6062" d="m198.1 222.65c1.709 2.426-3.041 6.919-4.999 8.999-2.34 3.61 3.65-6.68 5-9z"></path> <path d="m187.1 231.65c-4.249 8.417-11.373 13.957-15.998 21.998-0.634-2.781 2.13-6.431 3.999-8.999 3.37-4.63 7.95-10.08 12-13z"></path> <path fill="#5F6062" d="m9.119 235.65c-1.088-2.542 3.611 4.547 5 6-1.89 2.15-3.821-4.12-5-6z"></path> <path fill="#5F6062" d="m175.1 284.64c1.798 2.202 0.874 7.125 2 9.999 0.729 4.38-1.986-0.807-2 1.999 3.046 21.952 3.44 46.554 3 71.991 2.972-2.039 1.483 2.694 2 11.999 0.171 3.077 2.133 29.7 0 13.998-2.437-6.229 0.599-17.93-2-23.997-0.854 30.852 3.835 64.822 3 98.987 4.268-0.398 0.953-8.379 1.999-11.998 1.216 0.175 2.085 12.248 1 14.998-1.165-5.68-9.307 6.529-9.999-2-1.163 5.169-11.029 1.636-14.998 4-0.619-2.714 1.27-7.936-0.999-8.999-2.477 1.583-0.409 6.995 0 8.999-11.617 4.032-23.336-1.361-34.996-2-8.019-0.439-16.087 2.3-23.997 2.999-24.243 2.144-48.826-0.563-72.991 0 1.134-61.847 8.037-134.16 8.999-204.97 13.021 7.976 18.446 23.548 36.995 25.997 3.801-5.531 6.743-11.921 7.999-19.997 6.523 7.655 15.973 8.562 24.997 11.998 6.053-2.217 11.509-3.474 15.998-6.999 3.776-2.964 5.094-7.09 8.999-9.999 2.135 7.865 5.261 14.737 11.999 17.998 5.122-0.543 6.404-4.927 10.998-5.999 0.808 16.857 2.255 33.074 2 50.993 2.594-8.007 0.454-18.232 0-27.996-0.875-18.813-2.39-31.107 10.999-34.996 1.441 16.945 1.697 29.429 2.999 46.994 3.611-2.088 0.244-6.906 0-10.998-0.322-5.405 0.512-14.36 0-21.997-0.792-11.812-4.406-17.701 3-22.998 2.712 6.439-1.353 23.438 2.999 30.997 2-1.09-1.22-5.36 0-8.99zm-4 51c-0.315-4.929 1.826-14.185-2-12.998 4.131 19.278-2.85 46.275 2 62.992-0.61-15.55 1-34.39 0-49.99zm-14 24.99c-1.169-11.308 0.257-18.292-2-23.997 1.23 7.46-2.54 20.53 2 24zm0 7c0.16-0.696-0.35-5.818-1-2.999-0.88 3.81 0.54 5.01 1 3zm0 14c-0.271-2.141 0.773-10.666-1-7.999 0.27 2.14-0.77 10.67 1 8zm-2 13c3.222 0.648 3.222-10.647 0-9.999-0.28 5.26 1.06 5.93 0 10zm18 30c-1.479-12.241-0.158-30.68-3-35.995 0.55 13.04 0.03 28.1 3 35.99zm-16-10c1.099-4.041 0.354-12.359-1-18.997-1.7 5.19-0.17 13.58 1 19zm2 12c-0.105-2.562-0.565-4.767-1.999-6 0.6 2.06-1.61 6.94 2 6zm15 15.99c-1.16-4.197-0.273-15.691-1.999-15.998 1.15 4.86-2.42 14.42 2 16zm-16 21c-1.351-8.69 3.038-27.416-1-32.996 0.66 12.87-1.6 22.49 1 33zm16 6c-0.12-3.035 0.151-8.129 0-12.998-0.121-3.932 1.613-11.946-1.999-9.999 2.52 4.64-3.29 18.77 2 23z"></path> <path fill="#F1E5C8" d="m84.109 274.64c-0.745 3.078 2.745 1.922 2 5-4.418-3.582-8.417-7.581-11.999-11.999 0.902-6.763 3.304-12.027 4.999-17.998 5.158 2.174 14.215 0.449 20.998 1-1.17 3.83-8.379 1.62-9.999 5-4.314 12.105 6.246 20.062 10.999 28.997-6.582-3.084-12.295-7.036-14.998-13.999-1.824 4.848 4.543 10.103 8.999 11.999-5.204 2.84-7.005-6.3-11.002-8z"></path> <path d="m168.1 255.65c-7.297 9.034-14.765 17.898-24.997 23.997 7.92-8.41 16.33-16.34 25-24z"></path> <path fill="#5F6062" d="m167.1 265.65c3.98-4.39-5.08 5.58 0 0z"></path> <path fill="#5F6062" d="m180.1 363.63c-0.009 0.546 0.648-11.079 1-3 0.1 2.27-1.1 9.14-1 3z"></path> <path fill="#5F6062" d="m184.1 454.62c-1.067 1.893-0.69-0.689-1-2-2.845-12.066-1.431-32.931-1.999-48.993-0.127-2.475 1.224-1.7 1 0 0.76 16.11-0.32 34.25 2 50.99z"></path> <path fill="#5F6062" d="m161.1 491.62c-2.704 3.738 1.458 8.113 2 12.999 0.385 3.469-1.451 8.36-1 11.998 0.188 1.513 1.944 2.539 2 4 0.141 3.703-0.838 7.086-1 9.998-0.137 2.452 2.323 6.022-1 6 2.982 1.434-2.629 5.212 2 4.999-18.675 3.781-31.614 1.323-51.994 2 0.044-14.17-2.545-43.464-1.999-67.992 11.819-2.572 25.059 2.977 40.994 2 2.689-0.688 1.933 2.067 3 3 2.651 0.318-0.936-5.602 3-4 4.441 3.558 5.489 10.509 4.999 18.998-1.36-0.32-0.83-2.52-1-4.01zm1 31.99c2.168 0.169 0.453-3.546 1-4.999-2.17-0.16-0.45 3.55-1 5z"></path> <path d="m122.1 50.673c-0.548 5.062-10.788 3.098-12.998 1 1.92-4.862 9.73-4.366 13-1z"></path> <path fill="#5F6062" d="m92.108 477.62c3.648-0.635-0.449 5.467 1 8.999 2.208-0.125 0.425-4.241 1-5.999 1.853-2.43 0.675 6.591 1 8.999-2.714 1.459-2.868 4.907-4 9.998 1.23 1.117 2.054 0.871 2-1 1.698 17.857 2.062 31.206 1 45.995-1.617-1.633-4.183 0.892-7.999 0v-5c-2.168-0.168-0.453 3.547-1 5-14.561 0.398-31.487 2.26-41.995 0.999-1.762-22.067 0.107-45.639 1-67.991 7.579-2.153 14.641 1.595 21.998 2 7.172 0.396 15.598-4.521 21.997 0 1.57-0.44 0.854-3.16 3.999-2.01zm-3.999 8c0.132-1.314 0.151-7.234-1-3.999-0.132 1.31-0.151 7.23 1 4zm-1 5c0.145-1.181 1.781-2.267 0-2.999-0.144 1.18-1.78 2.26 0 3zm0 10c0.161-0.696-0.349-5.818-1-2.999-0.878 3.8 0.537 5 1 3zm-2 21.99c0.647 4.686-1.308 11.974 1 14.998-0.129-11.805-0.044-21.598 1-29.996-0.221-0.779-0.837-1.162-2-1v16z"></path> </g> <path clip-rule="evenodd" d="m115.32 51.95h2c1.555-2.46-3.396-2.94-3-1 0.61 0.057 1.19 0.15 1 1z" fill-rule="evenodd"></path> <path fill="#FFFFFF" clip-rule="evenodd" d="m114.32 50.95c-0.396-1.94 4.555-1.46 3 1h-2c0.19-0.85-0.39-0.943-1-1z" fill-rule="evenodd"></path> <metadata></metadata></svg> 