<?xml version="1.0" encoding="UTF-8" standalone="no"?> <svg xmlns:rdf="http://www.w3.org/1999/02/22-rdf-syntax-ns#" xmlns="http://www.w3.org/2000/svg" xmlns:cc="http://web.resource.org/cc/" xmlns:dc="http://purl.org/dc/elements/1.1/" xmlns:svg="http://www.w3.org/2000/svg" xmlns:inkscape="http://www.inkscape.org/namespaces/inkscape" xmlns:sodipodi="http://sodipodi.sourceforge.net/DTD/sodipodi-0.dtd" xmlns:ns1="http://sozi.baierouge.fr" xmlns:xlink="http://www.w3.org/1999/xlink" viewBox="0 0 221 219"><path d="m129 219h2 2 3 2 2 2l3-1h2 2 3 2 2 2 3l2-1h2 3 2l2-1h2 3l2-1h2l2-1 2-1h3l2-1 2-1h2l2-1 2-1 2-1 1-1 1-3v-2l1-3 1-2 1-2 1-2 2-2 1-1 2-2 2-2 1-2 2-1 1-2 2-2 1-2 1-2v-1-1-1l-2-2-2-1-3-2-2-1-3-1-2-1-3-1h-3l-3-1h-3l-3-1h-3-2l-3-1h-3l-3-1-1-17v-1h1v-1h1 1v-1l-1-8v-2l1-1v-1-2-2-1-2-1-2-1-2-2-1-2-1-2h1 1 1 1 1 1v-1l1-1 1-1v-1-2-1-1-1l-1-1-1-1h-1l-1-1v-1l-1-1v-1l-1-2 1-1v-2-2l1-2v-2l1-2v-1l1-2 1-2v-2-1l1-2v-2-2l-1-2v-1l-1-1v-1l-1-1-1-1-1-1h-1-1l-1-1h-2l-1 1h-2-1-1l-2 1h-1l-2 1h-1l-1 1-1 1-1 1h-1l-1 1-1 1-1 1v1l-1 1v1 1 1l-1 1v1l-2-1h-1l-1-1h-2-1-2l-1-1h-1-2-1-2-1-2-1-2-1l-1-1-1-2v-2l-1-1v-2-2-2l1-2 2-1 3-1 2-1 2-2 1-2 2-3 1-2 1-3v-3-3l-1-3-1-2-1-3-2-2-1-2-2-2-2-2-1-2-2-2-1-2-1-3-1-2-1-3v-3h-1-1v3 2 3l-1 2-1 2-1 2-1 2-2 1-1 2-1 2-2 2-1 2-1 1-1 2-1 3-1 2v1 2 1 2 1l1 1v2l1 1v1l1 1 1 1v1l1 1 1 1 1 1 1 1 1 1h1l1 1h1 1l1 1h1l1 1 1 12h-1v1h-1l-1 1h-1l-1-1h-1-1l-1-1h-1-1v-1h-1v-1h-1-1l-9 1-8-5-1 1h-1l-1 1h-1l-1 1h-1l-1 1-1 1-1 1-1 1-1 1-1 3-1 3v2l-1 3v3 3l1 3v2 3 3l-1 2v3l-1 2-1 3-1 2-2 2-1 1v1 2 1 1 1l1 1 1 1 1 1 1 1-1 1h-1v1 1l-1 1v1 1l-1 1v1 1 2 1l1 1v1l1 1v1l9 1v1h1v12l-14 1v-2l-1-2-1-3v-2l-1-2-1-2-2-2-1-1-1-2-2-2-1-1-2-2-1-1-2-1-2-2-2-1h-2l-1-1-2-1h-2-1l-2-1h-2-1-2-2-2-1-2-2-1-2-1-2-2l-1 1h-1-2l-1 1-2 1h-1l-1 1h-1l-2 1-1 1h-1l-1 1-1 1-1 1-2 2-1 1-1 2-1 2-1 2-1 2v2l-1 2v2l-1 2v2 3 2 2l1 2 1 3 1 2 1 2 2 1 1 2 2 1 2 2 2 1 2 1 2 1 3 1 2 1h2l3 1 2 1 3 1h2l3 1 2 1 3 1h2l2 1 3 1 2 1 2 1 2 2 2 1 1 2 2 1 1 2 2 2 1 2v1 1h1v1 1 1h1v1l2 1h2l2 1h2l1 1h2l2 1h2l2 1h2l2 1h2 2l2 1h2l2 1h2 2 2l2 1h2 2 2l2 1h2 2 2 2l2 1h2 2 2z"></path><ellipse style="fill:#b28400" cx="137" rx="30" cy="215" ry="1"></ellipse><ellipse style="fill:#b68900" cx="136" rx="41" cy="214" ry="1"></ellipse><ellipse style="fill:#ba8e00" cx="135" rx="49" cy="212" ry="1"></ellipse><ellipse style="fill:#be9400" cx="134" rx="55" cy="211" ry="2"></ellipse><ellipse style="fill:#c29900" cx="134" rx="60" cy="209" ry="1"></ellipse><ellipse style="fill:#c69f00" cx="133" rx="63" cy="207" ry="1"></ellipse><ellipse style="fill:#caa400" cx="133" rx="65" cy="206" ry="2"></ellipse><ellipse style="fill:#ceaa00" cx="133" rx="65" cy="204" ry="2"></ellipse><path style="fill:#d2af00" d="m200 201v1h-1v1 1h-1-130v-1-1-1h-1 133z"></path><path style="fill:#d6b500" d="m201 199v1h-1v1 1h-1-131v-1h-1v-1-1h134z"></path><path style="fill:#daba00" d="m201 197v1 1 1h-1v1h-133v-1-1-1l-1-1h135z"></path><path style="fill:#dec000" d="m202 196v1l-1 1v1h-134v-1l-1-1v-1h136z"></path><path style="fill:#e2c500" d="m203 194v1h-1v1 1h-1-135v-1-1h-1v-1h138z"></path><ellipse style="fill:#e6cb00" cx="134" rx="70" cy="194" ry="2"></ellipse><path style="fill:#ead000" d="m205 191h-1v1 1l-1 1h-138v-1l-1-1v-1h141z"></path><ellipse style="fill:#eed600" cx="134" rx="71" cy="190" ry="1"></ellipse><ellipse style="fill:#f2db00" cx="135" rx="73" cy="189" ry="2"></ellipse><ellipse style="fill:#f6e100" cx="189" rx="20" cy="187" ry="2"></ellipse><ellipse style="fill:#f6e100" cx="80" rx="19" cy="187" ry="2"></ellipse><ellipse style="fill:#fae600" cx="200" rx="8" cy="186" ry="1"></ellipse><ellipse style="fill:#fae600" cx="70" rx="10" cy="186" ry="1"></ellipse><path style="fill:#feec00" d="m209 185h-1-1-1 3z"></path><path style="fill:#feec00" d="m66 185h-1-1-1-1-1-1 1 5z"></path><path style="fill:#feec00" d="m62 195v-1l-1-2-1-1v-2l-1-1-1-2-2-1-1-1-2-1-3-1h-2l-2-1-3-1-2-1-3-1h-2l-3-1-2-1h-3l-2-1-3-1h-2l-3-1-2-1-2-1-2-1-1-2-1-1-2-2-1-2v-1l-1-2v-2l-1-1v-2-2-1-2-1l1-2v-2-1l1-2v-1l1-1 1-2 1-1v-1h1l1-1 1-1h1v-1h1l2-1 2-1h2 2 2 2 2 2 2l2 1h2l2 1 2 1 2 1 2 1 1 1 2 1 1 1 1 1 2 1v2l1 1v2l1 2-1 2v2l-1 2-1 2-1 2-2 1-2 1-2 1h-1-1-1l-1-1h-1l-1-1h-1l-1-1-3-9v2l-1 1v1 2l1 1v2l1 1v1l1 2h1l1 1 2 1h1 2l1-1h2 1v-1h1l1-1h1v-1-1l3-1 1-2 1-1v-2l1-2v-2-2l-1-2v-1l-1-3-1-2-2-2-2-2-1-1-3-1-2-1-3-1h-1l-2-1h-2-2-2-2l-2-1h-2-1-2l-2 1h-2l-1 1h-2l-1 1-2 1-1 1-1 2-1 1-1 2-1 1-1 2v2l-1 1v2l-1 2v2 2 2 1 2l1 2v2l1 2 1 2 2 2 1 1 1 1 2 1 2 1 2 1 1 1 2 1 2 1 3 1h2l2 1 2 1 2 1h3l2 1 2 1h3l2 1 2 1 2 1 2 1 2 1 2 1 2 1 2 1 1 2 2 2 1 1z"></path><ellipse style="fill:#feec00" cx="132" rx="87" cy="171" ry="15"></ellipse><ellipse style="fill:#ff8d97" cx="173" rx="3" cy="151" ry="25"></ellipse><ellipse style="fill:#ff8d97" cx="171" rx="1" cy="113" ry="10"></ellipse><path style="fill:#ff8d97" d="m170 95v-1-1 2z"></path><ellipse style="fill:#ff8691" cx="169" rx="4" cy="135" ry="42"></ellipse><ellipse style="fill:#ff7f8a" cx="165" rx="4" cy="135" ry="42"></ellipse><ellipse style="fill:#ff7783" cx="161" rx="4" cy="144" ry="34"></ellipse><ellipse style="fill:#ff707d" cx="157" rx="4" cy="142" ry="35"></ellipse><ellipse style="fill:#ff6876" cx="153" rx="4" cy="141" ry="37"></ellipse><ellipse style="fill:#ff616f" cx="148" rx="4" cy="141" ry="37"></ellipse><ellipse style="fill:#ff5a68" cx="144" rx="4" cy="141" ry="37"></ellipse><circle style="fill:#ff5262" cx="140" r="4" cy="172"></circle><ellipse style="fill:#ff5262" cx="142" rx="1" cy="136" ry="28"></ellipse><circle style="fill:#ff4b5b" cx="136" r="4" cy="173"></circle><ellipse style="fill:#ff4b5b" cx="133" rx="1" cy="124" ry="25"></ellipse><ellipse style="fill:#ff4354" cx="131" rx="4" cy="136" ry="42"></ellipse><ellipse style="fill:#ff3c4d" cx="127" rx="4" cy="150" ry="28"></ellipse><ellipse style="fill:#ff3c4d" cx="131" rx="1" cy="104" ry="10"></ellipse><ellipse style="fill:#ff3447" cx="123" rx="4" cy="148" ry="29"></ellipse><ellipse style="fill:#ff2d40" cx="119" rx="4" cy="148" ry="29"></ellipse><path style="fill:#ff2639" d="m119 123v1l-1 1v1 1 1 1h1v1-7z"></path><ellipse style="fill:#ff2639" cx="115" rx="4" cy="160" ry="17"></ellipse><ellipse style="fill:#ff1e32" cx="110" rx="4" cy="146" ry="31"></ellipse><ellipse style="fill:#ff1e32" cx="108" rx="2" cy="99" ry="12"></ellipse><ellipse style="fill:#ff172c" cx="106" rx="4" cy="128" ry="48"></ellipse><ellipse style="fill:#ff0f25" cx="102" rx="4" cy="128" ry="49"></ellipse><ellipse style="fill:#ff081e" cx="99" rx="3" cy="98" ry="19"></ellipse><ellipse style="fill:#ff081e" cx="98" rx="3" cy="154" ry="22"></ellipse><ellipse style="fill:#ff0017" cx="97" rx="1" cy="89" ry="7"></ellipse><path style="fill:#ff0017" d="m98 108v1-1z"></path><path style="fill:#ff0017" d="m98 138h-1v1h-1l-1 1 1 18-1 4 2 14h1v-38z"></path><ellipse style="fill:#b28400" cx="193" rx="14" cy="172" ry="5"></ellipse><path style="fill:#b28400" d="m43 176v-7l-2-1h-1-1l-1-1h-2-1l-1-1h-1l-1-1h-2l-1-1h-1l-1-1h-1l-1-1-1-1-4-5v-2l-1-1v-1-2-1-2-1l1-1v-2l1-1v-1l1-2v-1l1-1 1-1 1-1-1-1h-2-1l-2 1h-1l-1 1h-2l-1 1-1 1-1 1v2l-1 1-1 1v2 1l-1 2v1 2 1 2 1 1 2 1l1 2 1 1v2l1 1 1 1 1 1 2 1 1 1 2 1h1l2 1h1l2 1h2l1 1h2 2l1 1h2 2l1 1h2l1 1h2z"></path><path style="fill:#b28400" d="m91 176h3l-1-13h-3-2-2-2-2-3-2-2-2l-3 1h-2l-2 1h-2l-2 1-2 1-3 1v1 1l2 1 2 1 1 1 2 1 3 1h2 2 2 2l3 1h2 2 2 3 2 2z"></path><circle style="fill:#ffa6ae" cx="138" r="4" cy="168"></circle><circle style="fill:#ff9ea7" cx="138" r="4" cy="164"></circle><ellipse style="fill:#ff959f" cx="137" rx="3" cy="159" ry="5"></ellipse><ellipse style="fill:#ff8c97" cx="137" rx="3" cy="154" ry="5"></ellipse><ellipse style="fill:#ff848f" cx="137" rx="3" cy="149" ry="5"></ellipse><ellipse style="fill:#ff7b87" cx="137" rx="2" cy="144" ry="5"></ellipse><ellipse style="fill:#ff727f" cx="137" rx="1" cy="139" ry="5"></ellipse><ellipse style="fill:#ff6977" cx="138" rx="2" cy="134" ry="5"></ellipse><ellipse style="fill:#ff616f" cx="138" rx="1" cy="129" ry="5"></ellipse><ellipse style="fill:#ff5867" cx="138" rx="1" cy="124" ry="5"></ellipse><path style="fill:#ff5867" d="m158 119v1 1h1v1h1v-1l1-1v-1h-3z"></path><ellipse style="fill:#ff4f5f" cx="138" rx="1" cy="119" ry="5"></ellipse><ellipse style="fill:#ff4f5f" cx="159" rx="2" cy="118" ry="4"></ellipse><ellipse style="fill:#ff4657" cx="138" rx="2" cy="114" ry="5"></ellipse><ellipse style="fill:#ff4657" cx="159" rx="2" cy="114" ry="5"></ellipse><circle style="fill:#ff3e4f" cx="139" r="4" cy="109"></circle><path style="fill:#ff3e4f" d="m155 104v2h1 1v1h1v1l1 1-1 1v1l-1 1v1 1h4v-1-1l1-1v-1-1h1v-1l1-1h1v-1-1-1h-10z"></path><ellipse style="fill:#ff3547" cx="142" rx="7" cy="104" ry="4"></ellipse><ellipse style="fill:#ff3547" cx="159" rx="6" cy="104" ry="4"></ellipse><ellipse style="fill:#ff2c3f" cx="149" rx="15" cy="99" ry="4"></ellipse><ellipse style="fill:#ff2337" cx="149" rx="16" cy="95" ry="5"></ellipse><ellipse style="fill:#ff1b2f" cx="150" rx="17" cy="90" ry="5"></ellipse><ellipse style="fill:#ff1227" cx="150" rx="16" cy="85" ry="5"></ellipse><ellipse style="fill:#ff091f" cx="151" rx="15" cy="80" ry="4"></ellipse><ellipse style="fill:#ff0017" cx="144" rx="7" cy="78" ry="2"></ellipse><path style="fill:#fff" d="m31 161l-1-1v-2l-1-1v-2-2-1l1-2v-2-1l1-1h1l1-1h1l1-1h1l1-1h1 1l2-1h1 1l1-1h1l1-1h-1l-1-1-1-1h-1l-1-1h-1l-1-1h-1-1l-1-1h-1-1l-1-1h-2-1l-1 1v1l-1 1-1 1-1 1-1 1-1 1v1l-1 2v1 1l-1 2v1 2 1l1 1 1 2v1l1 1 1 1 1 1 2 1 1 1 1 1v-1z"></path><path style="fill:#feec00" d="m55 159l19-4v-2-2-1-2-1l-1-1v-2l-1-1-1-1-1-2v-1l-1-1-1-1-1-1-2-1-1-1-2-2-2-1-2-2-2-1h-2l-3-1-2-1h-2l-3-1h-3-2-3-2-3l-2 1h-2 1l2 1h2 2 1 2l2 1h2l2 1h1l2 1 1 1 2 1 1 1 2 1 1 1v1l1 1v1h1v1l1 1v1l1 1v1l1 2v1 1 1 1 1 1l-1 2v1 1l-1 1v1l-1 1v1z"></path><circle style="fill:#b28400" cx="43" r="7" cy="151"></circle><circle style="fill:#ffa6ae" cx="115" r="4" cy="141"></circle><circle style="fill:#ff9ea7" cx="114" r="4" cy="138"></circle><circle style="fill:#ff959f" cx="114" r="4" cy="134"></circle><circle style="fill:#ff8c97" cx="114" r="4" cy="130"></circle><circle style="fill:#ff848f" cx="113" r="3" cy="127"></circle><path style="fill:#ff848f" d="m127 124v1h1v1h1 1v-1-1h-3z"></path><circle style="fill:#ff7b87" cx="114" r="4" cy="123"></circle><circle style="fill:#ff7b87" cx="128" r="2" cy="123"></circle><ellipse style="fill:#ff727f" cx="115" rx="5" cy="120" ry="3"></ellipse><circle style="fill:#ff727f" cx="127" r="2" cy="120"></circle><ellipse style="fill:#ff6977" cx="115" rx="5" cy="116" ry="3"></ellipse><circle style="fill:#ff6977" cx="126" r="2" cy="116"></circle><ellipse style="fill:#ff616f" cx="115" rx="6" cy="113" ry="4"></ellipse><ellipse style="fill:#ff616f" cx="126" rx="2" cy="113" ry="4"></ellipse><ellipse style="fill:#ff5867" cx="115" rx="6" cy="109" ry="3"></ellipse><circle style="fill:#ff5867" cx="125" r="2" cy="109"></circle><ellipse style="fill:#ff4f5f" cx="115" rx="5" cy="105" ry="3"></ellipse><circle style="fill:#ff4f5f" cx="125" r="2" cy="105"></circle><circle style="fill:#ff4657" cx="115" r="4" cy="102"></circle><circle style="fill:#ff4657" cx="124" r="2" cy="102"></circle><ellipse style="fill:#ff3e4f" cx="119" rx="7" cy="98" ry="3"></ellipse><ellipse style="fill:#ff3547" cx="120" rx="7" cy="95" ry="4"></ellipse><ellipse style="fill:#ff2c3f" cx="119" rx="8" cy="91" ry="3"></ellipse><ellipse style="fill:#ff2337" cx="117" rx="9" cy="87" ry="3"></ellipse><ellipse style="fill:#ff1b2f" cx="116" rx="10" cy="84" ry="4"></ellipse><ellipse style="fill:#ff1227" cx="116" rx="11" cy="80" ry="3"></ellipse><path style="fill:#ff091f" d="m125 80h1 1-2z"></path><ellipse style="fill:#ff091f" cx="113" rx="8" cy="78" ry="2"></ellipse><path style="fill:#ff0017" d="m109 77h1l1-1h1 1l1 1h1-6z"></path><ellipse style="fill:#ffa6ae" cx="90" rx="8" cy="135" ry="3"></ellipse><ellipse style="fill:#ff9ea7" cx="91" rx="9" cy="132" ry="4"></ellipse><ellipse style="fill:#ff959f" cx="91" rx="9" cy="128" ry="4"></ellipse><ellipse style="fill:#ff8c97" cx="92" rx="8" cy="124" ry="4"></ellipse><ellipse style="fill:#ff848f" cx="91" rx="9" cy="120" ry="4"></ellipse><ellipse style="fill:#ff7b87" cx="91" rx="9" cy="116" ry="3"></ellipse><ellipse style="fill:#ff727f" cx="90" rx="8" cy="112" ry="3"></ellipse><ellipse style="fill:#ff6977" cx="90" rx="7" cy="109" ry="4"></ellipse><circle style="fill:#ff616f" cx="91" r="5" cy="105"></circle><circle style="fill:#ff5867" cx="92" r="4" cy="101"></circle><circle style="fill:#ff4f5f" cx="92" r="3" cy="97"></circle><circle style="fill:#ff4657" cx="92" r="3" cy="93"></circle><circle style="fill:#ff3e4f" cx="91" r="2" cy="89"></circle><path style="fill:#ff3e4f" d="m131 86v1 1l1-1 1-1h-2z"></path><circle style="fill:#ff3547" cx="91" r="3" cy="86"></circle><ellipse style="fill:#ff3547" cx="131" rx="1" cy="85" ry="3"></ellipse><circle style="fill:#ff2c3f" cx="92" r="4" cy="82"></circle><ellipse style="fill:#ff2c3f" cx="131" rx="2" cy="82" ry="4"></ellipse><path style="fill:#ff2c3f" d="m153 78h1v1h1l4-1h-6z"></path><ellipse style="fill:#ff2337" cx="98" rx="10" cy="78" ry="4"></ellipse><ellipse style="fill:#ff2337" cx="127" rx="11" cy="78" ry="4"></ellipse><ellipse style="fill:#ff2337" cx="155" rx="7" cy="76" ry="2"></ellipse><ellipse style="fill:#ff1b2f" cx="126" rx="37" cy="74" ry="4"></ellipse><ellipse style="fill:#ff1227" cx="124" rx="35" cy="70" ry="3"></ellipse><path style="fill:#ff091f" d="m140 70h1 1 1 1 1 1 1-7z"></path><ellipse style="fill:#ff091f" cx="106" rx="14" cy="67" ry="2"></ellipse><path style="fill:#ff0017" d="m105 67l-1-1-1-1h-1-1-1-1l-1 1h-1l-1 1h9z"></path><circle style="fill:#ffa6ae" cx="175" r="2" cy="134"></circle><circle style="fill:#ff9ea7" cx="175" r="3" cy="130"></circle><circle style="fill:#ff959f" cx="175" r="3" cy="126"></circle><circle style="fill:#ff8c97" cx="175" r="3" cy="122"></circle><ellipse style="fill:#ff848f" cx="175" rx="2" cy="118" ry="4"></ellipse><ellipse style="fill:#ff7b87" cx="175" rx="2" cy="114" ry="4"></ellipse><ellipse style="fill:#ff727f" cx="176" rx="2" cy="109" ry="4"></ellipse><ellipse style="fill:#ff6977" cx="178" rx="6" cy="105" ry="4"></ellipse><ellipse style="fill:#ff616f" cx="178" rx="6" cy="101" ry="4"></ellipse><ellipse style="fill:#ff5867" cx="179" rx="7" cy="97" ry="4"></ellipse><ellipse style="fill:#ff4f5f" cx="177" rx="7" cy="92" ry="4"></ellipse><ellipse style="fill:#ff4657" cx="175" rx="6" cy="88" ry="4"></ellipse><path style="fill:#ff3e4f" d="m180 88v-1-1-1-1l1-1v-1l1-1v-1h-14l2 8h10z"></path><ellipse style="fill:#ff3547" cx="175" rx="7" cy="80" ry="4"></ellipse><ellipse style="fill:#ff2c3f" cx="176" rx="8" cy="76" ry="4"></ellipse><path style="fill:#ff2c3f" d="m161 72v1h1l1 1h1 1l1 1h1l6-3h1-13z"></path><ellipse style="fill:#ff2337" cx="178" rx="6" cy="71" ry="4"></ellipse><ellipse style="fill:#ff2337" cx="168" rx="7" cy="71" ry="4"></ellipse><ellipse style="fill:#ff1b2f" cx="173" rx="12" cy="67" ry="4"></ellipse><ellipse style="fill:#ff1227" cx="173" rx="11" cy="63" ry="4"></ellipse><ellipse style="fill:#ff091f" cx="174" rx="10" cy="60" ry="2"></ellipse><path style="fill:#ff0017" d="m172 59l1-1h2 1 2 1 1 2l1 1h-11z"></path><ellipse style="fill:#f60" cx="126" rx="4" cy="51" ry="2"></ellipse><path style="fill:#f60" d="m136 49v1-1h1-1z"></path><ellipse style="fill:#ff6e00" cx="125" rx="5" cy="49" ry="2"></ellipse><path style="fill:#ff6e00" d="m136 47v3l1-1h1v-1h1v-1h1-4z"></path><ellipse style="fill:#ff7500" cx="124" rx="6" cy="47" ry="2"></ellipse><path style="fill:#ff7500" d="m131 45l1 2v-1l1-1h-2z"></path><path style="fill:#ff7500" d="m136 49l1-4h5l-1 1-1 1h-1v1h-1l-1 1h-1z"></path><ellipse style="fill:#ff7d00" cx="123" rx="6" cy="45" ry="2"></ellipse><path style="fill:#ff7d00" d="m130 43l2 4v-1l1-1v-1h1v-1h-4z"></path><path style="fill:#ff7d00" d="m136 47l1-4h6l-1 1v1l-1 1-1 1h-4z"></path><ellipse style="fill:#ff8700" cx="122" rx="6" cy="42" ry="2"></ellipse><path style="fill:#ff8700" d="m131 45l-2-5h6v1 1h-1v1 1h-1v1h-2z"></path><path style="fill:#ff8700" d="m137 45v-5h7v1l-1 1v1l-1 1v1h-5z"></path><ellipse style="fill:#ff8f00" cx="121" rx="6" cy="40" ry="2"></ellipse><path style="fill:#ff8f00" d="m130 43l-2-5h7v1 1 1 1h-1v1h-4z"></path><path style="fill:#ff8f00" d="m137 43v-5h7v1 1 1l-1 1v1h-6z"></path><ellipse style="fill:#ff9600" cx="125" rx="10" cy="38" ry="2"></ellipse><path style="fill:#ff9600" d="m137 40l1-4h6v1 1 1 1h-7z"></path><ellipse style="fill:#ff9e00" cx="125" rx="10" cy="36" ry="2"></ellipse><path style="fill:#ff9e00" d="m137 34h1v1l-1 3h7v-1-1-1-1h-7z"></path><ellipse style="fill:#ffa600" cx="129" rx="14" cy="34" ry="2"></ellipse><ellipse style="fill:#ffad00" cx="129" rx="14" cy="31" ry="2"></ellipse><ellipse style="fill:#ffb500" cx="130" rx="14" cy="29" ry="2"></ellipse><ellipse style="fill:#ffbf00" cx="129" rx="13" cy="27" ry="2"></ellipse><ellipse style="fill:#ffc700" cx="129" rx="12" cy="25" ry="2"></ellipse><ellipse style="fill:#ffcf00" cx="130" rx="10" cy="23" ry="2"></ellipse><ellipse style="fill:#ffd600" cx="131" rx="9" cy="20" ry="2"></ellipse><ellipse style="fill:#ffde00" cx="130" rx="7" cy="18" ry="2"></ellipse><ellipse style="fill:#ffe500" cx="131" rx="6" cy="16" ry="2"></ellipse><ellipse style="fill:#ffed00" cx="130" rx="4" cy="14" ry="2"></ellipse><path style="fill:#fff500" d="m133 14l-1-1v-1h-1l-1-1v-1l-1 1v1l-1 1v1h5z"></path><path style="fill:#ff0" d="m131 12l-1-1v-1l-1 1v1h2z"></path><metadata></metadata></svg> 