<?xml version="1.0" encoding="UTF-8" standalone="no"?> <!-- Created with Inkscape (http://www.inkscape.org/) --> <svg xmlns:inkscape="http://www.inkscape.org/namespaces/inkscape" xmlns:rdf="http://www.w3.org/1999/02/22-rdf-syntax-ns#" xmlns="http://www.w3.org/2000/svg" xmlns:sodipodi="http://sodipodi.sourceforge.net/DTD/sodipodi-0.dtd" xmlns:cc="http://web.resource.org/cc/" xmlns:xlink="http://www.w3.org/1999/xlink" xmlns:dc="http://purl.org/dc/elements/1.1/" xmlns:svg="http://www.w3.org/2000/svg" xmlns:ns1="http://sozi.baierouge.fr" id="svg2" sodipodi:docname="da5id1_Mouse.svg" sodipodi:modified="true" viewBox="0 0 582.39 587.87" sodipodi:version="0.32" inkscape:output_extension="org.inkscape.output.svg.inkscape" inkscape:version="0.45pre1" sodipodi:docbase="C:\Documents and Settings\Molumen\Desktop"><defs id="defs4"><linearGradient id="linearGradient3126" y2="174.07" gradientUnits="userSpaceOnUse" x2="175.87" y1="182.35" x1="185" inkscape:collect="always"><stop id="stop3016" style="stop-color:black" offset="0"></stop><stop id="stop3018" style="stop-color:#cbcbcb" offset="1"></stop></linearGradient><linearGradient id="linearGradient3128" y2="117.28" gradientUnits="userSpaceOnUse" x2="159.17" y1="133.34" x1="152.12" inkscape:collect="always"><stop id="stop3077" style="stop-color:#848484" offset="0"></stop><stop id="stop3079" style="stop-color:#cbcbcb" offset="1"></stop></linearGradient></defs><g id="g3189" transform="matrix(4.501 0 0 4.501 -438.32 -526.3)"><path id="path2986" style="stroke:#000000;stroke-width:.64488;fill:none" d="m104.93 159.43c-2.47 1.29-7.225-0.7-7.225-0.7"></path><path id="path2984" style="stroke:#000000;stroke-width:.64488;fill:none" d="m106.13 157.85c-6.421-1.56-8-8.1-8-8.1"></path><path id="path2988" style="stroke:#000000;stroke-width:.64488;fill:none" d="m107.49 161.48c-5.3-0.45-7.08 4.04-7.08 4.04"></path><path id="path2963" style="stroke:#000000;stroke-width:.70866;fill:#cbcbcb" d="m187.55 177.77c-5.29 2.18-12.63 3.94-17.25 1.28 0 0-5.6 12.24-8.86 15.24-3.47 3.21-6.9 5.5-6.9 5.5l-12.23-0.39s0.42 2.41-3.72 3.56c-3.36-2.92-2.6-6.2 1-10.71 2.58-3.23 15.85-1.91 15.85-1.91l3.41-7.13c-2.3-2.36-3.92-2.31-7.55-4.89l-2.5 8.04s-11.21 3.59-15.94 8.32c-4.72 4.72-9.44 0-9.44 0l9.44-9.45 9.45-4.72 2.93-8.48s-4.61-6.08-12.43-8.68-18.84-1.74-18.84-1.74-7.08 1.19-9.45 0c-2.36-1.18 0.9-5.48 0.9-5.48s9.03-4.59 13.75-9.31 13.69-13.54 13.69-13.54-5.92-5.31-1.2-10.03 6.87-3.83 9.57-1.38c3.72 3.38-1.42 9.12-0.04 10.14 1.91-1.52 1.9 3.13 4.26-4.94 2.36-8.09 10.82-12.5 15.75-7.96 4.72 4.34-1.26 13.39-1.26 13.39s19.84-10.04 34.32-8.67c14.49 1.37 17.72 4.72 23.62 14.17 5.9 9.44-0.59 25.46-0.59 25.46s11.05 5.96 8.83 16.15c-2.21 10.19-11.32 18.15-18.43 21.56-7.12 3.42-28.65 10.34-33.55 11.24-5.07 0.94-19.97 5.87-25.88 12.96-5.9 7.08 0.63 13.01 4.67 16.4s3.29 5.41 3.29 5.41-9.44-0.07-12.98-3.29c-4.95-4.48-8.56-13.28-4.08-21.45 4.49-8.17 15.36-15.25 27.11-16.32 11.93-1.09 41.31-14.21 46.98-19.63 5.68-5.42-2.38-14.33-2.38-14.33l-8.09 2.16s1.6 8.65 0.7 9.75-7.68 7.46-7.68 7.46l-15.71 3.15-6.48 1.6s0.76-5.69 5.42-8.89c4.67-3.21 13.37-1.73 13.37-1.73l-4.58-8.08c-7.08-11.29-7.55-20.99 5.97-27.67"></path><path id="path2965" d="m168.4 53.597c0 5.619-4.05 10.174-9.06 10.174s-9.06-4.555-9.06-10.174c0-5.62 4.05-10.175 9.06-10.175s9.06 4.555 9.06 10.175z" style="fill:#000000" transform="matrix(.33324 0 0 .27535 85.632 129.89)"></path><path id="path2967" d="m168.4 53.597c0 5.619-4.05 10.174-9.06 10.174s-9.06-4.555-9.06-10.174c0-5.62 4.05-10.175 9.06-10.175s9.06 4.555 9.06 10.175z" style="fill:#f6f6f6" transform="matrix(.080123 -.10310 .048214 .047797 121.93 157.66)"></path><path id="path2974" style="stroke:#000000;stroke-width:.70866;fill:none" d="m130.91 163.18c8.48-1.53 9.76-7.09 9.76-7.09"></path><path id="path2978" style="stroke:#000000;stroke-width:.64488;fill:none" d="m106.11 159.64c7.09-10.63 7.09-14.18 7.09-14.18"></path><path id="path2980" style="stroke:#000000;stroke-width:.64488;fill:none" d="m108.09 160.53c3.9-2.08 8.37-2.57 12.59-1.42"></path><path id="path2982" style="stroke:#000000;stroke-width:.64488;fill:none" d="m108.75 158.63c3.08-1.29 7.73-5.26 11.39-6.34"></path><path id="path2990" style="fill-rule:evenodd;stroke:#000000;stroke-width:1px;fill:#000000" d="m105.24 156.44c-3.31 2.55-0.97 6.22 2.58 5.47l-2.58-5.47z"></path><path id="path3012" style="fill-rule:evenodd;fill:url(#linearGradient3126)" d="m175.85 173.99l7.52-5.35s2.95 7.14 3.96 8.86c-3.25 1.23-4.96 1.76-8.12 2.24-3.19 0.48-6.58 0.48-9.05-1.23-2.6-1.8 5.69-4.52 5.69-4.52z"></path><path id="path3065" style="fill-rule:evenodd;fill:url(#linearGradient3128)" d="m145.27 131.74s0.64-3.66 2.93-7.09c2.32-3.46 3.72-5.52 6.97-6.2 3.26-0.67 4.73 0.98 5.93 3.14s0.45 3.34-0.51 6.19c-0.97 2.85-3.22 5.56-3.22 5.56"></path></g><metadata></metadata></svg> 