<?xml version="1.0" encoding="UTF-8" standalone="no"?> <!-- Created with Inkscape (http://www.inkscape.org/) --> <svg xmlns:inkscape="http://www.inkscape.org/namespaces/inkscape" xmlns:rdf="http://www.w3.org/1999/02/22-rdf-syntax-ns#" xmlns="http://www.w3.org/2000/svg" xmlns:sodipodi="http://sodipodi.sourceforge.net/DTD/sodipodi-0.dtd" xmlns:cc="http://creativecommons.org/ns#" xmlns:xlink="http://www.w3.org/1999/xlink" xmlns:dc="http://purl.org/dc/elements/1.1/" xmlns:svg="http://www.w3.org/2000/svg" xmlns:ns1="http://sozi.baierouge.fr" id="svg2" sodipodi:docname="Machovka_Scissors_1_ok.svg" viewBox="0 0 727.98 733.61" sodipodi:version="0.32" inkscape:output_extension="org.inkscape.output.svg.inkscape" inkscape:version="0.46" inkscape:label="Pozadí" sodipodi:docbase="/media/KINGSTON/inkscape/9.c/Tomas Krauskopf/vyrobky inscapeu/nastroje"><defs id="defs3"><linearGradient id="linearGradient2827" y2="420.17" gradientUnits="userSpaceOnUse" x2="916.48" y1="420.17" x1="874.41" inkscape:collect="always"><stop id="stop2804" style="stop-color:rgb(141, 124, 116)" offset="0"></stop><stop id="stop2806" style="stop-color:rgb(141, 124, 116);stop-opacity:0" offset="1"></stop></linearGradient></defs><g id="layer1" inkscape:label="Vrstva 1" inkscape:groupmode="layer" transform="translate(-9.3403 -130.67)"><g id="g2816" inkscape:export-ydpi="90" inkscape:export-xdpi="90" inkscape:export-filename="/media/KINGSTON/inkscape/9.c/Tomas Krauskopf/vyrobky inscapeu/nastroje/nuzky.png" transform="translate(-528.57 -88.571)"><path id="path1899" sodipodi:nodetypes="cccccccccccccccccccccccccccc" style="fill-rule:evenodd;stroke:#000000;stroke-width:1px;fill:#3b4544" d="m985.91 610.93l17.19-3.03 16.1 4.04 4.1 15.15-3 17.17-15.2 39.4-7.07 37.37-4.04 49.5 2.02 37.38 5.09 35.35 1 30.31-14.17 36.36-28.29 25.25-31.31 15.16-35.36 2.02-31.31-10.1-30.3-31.32-14.15-37.37v-33.34l-5.05-12.12-21.99-15.93 13.43-14.97 25.74-2.44 24.24-11.11 38.38-26.26 34.35-35.36 29.29-44.44 30.31-66.67z"></path><path id="path1901" style="fill-rule:evenodd;stroke:#000000;stroke-width:1px;fill:#3b4544" d="m975.81 582.64l1.01 15.15-20.21 20.21-54.54 46.46-27.28 33.34-33.33 41.41-24.25 40.41-28.28 31.32-27.27 27.27-24.25 20.2-37.37 13.13-46.47 15.16-48.49 5.05h-46.47l-19.19-10.1-1.01-7.07 35.36-3.04 41.41-12.12 16.17-25.25-6.07-29.3v-32.32l8.09-36.37 40.4-33.33 43.44-15.15 72.73-8.08 53.54-26.27 54.55-43.43 45.45-41.42 16.16 2.02 16.17 12.12z"></path><path id="path1903" style="fill-rule:evenodd;stroke:#000000;stroke-width:1px;fill:#ffffff" d="m908.13 783.66l16.66-1.01 20.71 7.58 14.14 14.64 11.62 19.2 4.55 20.2-0.51 30.31-9.09 20.2-13.13 16.16-18.18 13.13-18.19 6.57-22.22 1.51-19.19-9.09-19.7-18.69-11.11-26.26-1.01-26.26 8.08-26.77 15.15-22.23 21.72-14.64 19.7-4.55z"></path><path id="path1905" style="fill-rule:evenodd;stroke:#000000;stroke-width:1px;fill:#ffffff" d="m774.79 766.99l0.5 10.61-4.54 12.12-8.08 11.62-14.65 14.65-19.7 11.61-19.7 5.56-21.21-1.01-15.15-5.05-18.19-18.18-7.07-19.2 2.02-22.73 6.57-14.14 14.65-17.68 26.26-15.15 24.24-5.55 27.28 4.54 18.18 16.67 9.6 18.18-1.01 13.13z"></path><path id="path1907" style="fill-rule:evenodd;stroke:#000000;stroke-width:1px;fill:#cfd4d8" d="m954.68 569.59l5.18 0.72 15.89 12.32 0.36 5.18 25.49-14.65 91.8-71.07 25.9-39.1 16.3-25.54 24.3-35.54 21.9-36.25 25-38.57 27-43.57 6.1-9.46 25.5-44.29-5.2-6.43-4.5-1.6-211.4 265.35-51.05 37.5-38.57 45z"></path><path id="path1909" sodipodi:nodetypes="cccccccccccccccccccc" style="fill-rule:evenodd;stroke:#000000;stroke-width:1px;fill:#e1e1e1" d="m998.79 608.4l-0.76-87.38 11.37-8.84 5-18.68 93.5-106.07 104.5-124.75 34.4-42.94 10.6 1.27 2.3 1.76-6.9 11.62-44.9 70.21-54.3 87.12-17.4 28.79-45 71.47 1.8 9.85-7.6 16.41-30 26.27-36.2 67.17-15.6-4.54-4.81 1.26z"></path><g id="g2810" transform="translate(156.79 80)"><path id="path1913" style="fill-rule:evenodd;stroke:#000000;stroke-width:1px;fill:#ffffff" d="m894.64 400.58l8.57 1.43 8.93 4.64 3.93 5.71v6.07l-0.71 7.86-2.5 4.64-10 6.43-5.72 2.15-8.21-1.08-8.57-5.71-4.65-7.86-0.71-7.85 6.43-8.93 8.57-5.72 4.64-1.78z"></path><path id="path1911" style="fill-rule:evenodd;stroke:#000000;stroke-width:1px;fill:url(#linearGradient2827)" d="m894.56 400.7l8.57 1.43 8.93 4.64 3.92 5.72v6.07l-0.71 7.86-2.5 4.64-10 6.43-5.71 2.14-8.22-1.07-8.57-5.71-4.64-7.86-0.72-7.86 6.43-8.93 8.57-5.71 4.65-1.79z"></path></g></g></g><metadata></metadata></svg> 