<?xml version="1.0" encoding="UTF-8" standalone="no"?> <!-- Created with Inkscape (http://www.inkscape.org/) --> <svg xmlns:dc="http://purl.org/dc/elements/1.1/" xmlns:inkscape="http://www.inkscape.org/namespaces/inkscape" xmlns:xlink="http://www.w3.org/1999/xlink" xmlns:sodipodi="http://sodipodi.sourceforge.net/DTD/sodipodi-0.dtd" xmlns:cc="http://web.resource.org/cc/" xmlns:rdf="http://www.w3.org/1999/02/22-rdf-syntax-ns#" xmlns="http://www.w3.org/2000/svg" xmlns:svg="http://www.w3.org/2000/svg" xmlns:ns1="http://sozi.baierouge.fr" id="svg2" sodipodi:modified="true" sodipodi:docbase="C:\Documents and Settings\Molumen\Desktop" inkscape:export-ydpi="90" viewBox="0 0 669.09 515" inkscape:export-xdpi="90" inkscape:output_extension="org.inkscape.output.svg.inkscape" sodipodi:docname="Machovka_camcorder.svg" inkscape:export-filename="F:\Obrázky\DV 3500.png" inkscape:version="0.44+devel" sodipodi:version="0.32" inkscape:label="Pozadí"><defs id="defs25779"><linearGradient id="linearGradient32052" inkscape:collect="always"><stop id="stop32054" style="stop-color:white" offset="0"></stop><stop id="stop32056" style="stop-color:white;stop-opacity:0" offset="1"></stop></linearGradient><linearGradient id="linearGradient27599" inkscape:collect="always"><stop id="stop27601" style="stop-color:#a29b9b" offset="0"></stop><stop id="stop27603" style="stop-color:#a29b9b;stop-opacity:0" offset="1"></stop></linearGradient><linearGradient id="linearGradient2215" y2="438.21" xlink:href="#linearGradient32052" gradientUnits="userSpaceOnUse" x2="239.22" gradientTransform="matrix(1.0024 0 0 .70242 54.432 -178.55)" y1="495.38" x1="240.06" inkscape:collect="always"></linearGradient><linearGradient id="linearGradient2237" y2="438.21" xlink:href="#linearGradient32052" gradientUnits="userSpaceOnUse" x2="239.22" gradientTransform="matrix(2.9237 0 0 2.9237 -277.28 -1058.4)" y1="495.38" x1="240.06" inkscape:collect="always"></linearGradient><linearGradient id="linearGradient2243" y2="461.09" xlink:href="#linearGradient27599" gradientUnits="userSpaceOnUse" x2="217.58" gradientTransform="matrix(2.9256 0 0 -3.0055 -274.47 1729.1)" y1="417.26" x1="216.19" inkscape:collect="always"></linearGradient><linearGradient id="linearGradient2247" y2="426" xlink:href="#linearGradient27599" gradientUnits="userSpaceOnUse" x2="216.19" gradientTransform="matrix(2.9237 0 0 2.9237 -277.28 -1176.4)" y1="402.68" x1="215.91" inkscape:collect="always"></linearGradient><linearGradient id="linearGradient2250" y2="426.55" gradientUnits="userSpaceOnUse" x2="112.95" gradientTransform="matrix(2.9237 0 0 2.9237 -277.28 -1176.4)" y1="409.34" x1="114.62" inkscape:collect="always"><stop id="stop26707" style="stop-color:black" offset="0"></stop><stop id="stop26709" style="stop-color:black;stop-opacity:0" offset="1"></stop></linearGradient><linearGradient id="linearGradient2253" y2="426" xlink:href="#linearGradient27599" gradientUnits="userSpaceOnUse" x2="216.19" gradientTransform="matrix(2.9237 0 0 2.9237 -277.28 -1176.4)" y1="462.35" x1="216.19" inkscape:collect="always"></linearGradient><linearGradient id="linearGradient2259" y2="434.88" gradientUnits="userSpaceOnUse" x2="112.95" gradientTransform="matrix(2.9237 0 0 2.9237 -277.28 -1176.4)" y1="446.25" x1="112.95" inkscape:collect="always"><stop id="stop26692" style="stop-color:#797979" offset="0"></stop><stop id="stop26694" style="stop-color:#797979;stop-opacity:0" offset="1"></stop></linearGradient></defs><g id="layer1" inkscape:label="Vrstva 1" inkscape:groupmode="layer"><path id="path25795" sodipodi:nodetypes="ccccccc" style="fill-rule:evenodd;stroke:#000000;stroke-width:2.9237px;fill:url(#linearGradient2259)" d="m78.104 45.498l-58.419 3.246c-6.513 4.586-10.317 9.514-11.36 17.85-1.7267 43.446-2.0308 87.466 1.623 133.07 1.622 5.95 6.679 9.41 9.737 12.98l58.419 3.25v-170.39z"></path><path id="path25797" style="stroke:#000000;stroke-width:2.9237px;fill:none" d="m10.354 110.41h36.106"></path><path id="path25799" style="stroke:#000000;stroke-width:2.9237px;fill:none" d="m11.571 126.23h36.106"></path><path id="path25801" style="stroke:#000000;stroke-width:2.9237px;fill:none" d="m11.165 140.84h36.106"></path><path id="path25803" sodipodi:nodetypes="ccccccc" style="fill-rule:evenodd;stroke:#000000;stroke-width:2.9237px;fill:url(#linearGradient2253)" d="m77.292 185.06l586.63 1.62-4.87-163.9-14.6-13.794-547.68 2.434-18.666 12.171-0.812 161.47z"></path><path id="path26703" sodipodi:nodetypes="ccccccc" style="fill-rule:evenodd;stroke:#000000;stroke-width:2.9237px;fill:url(#linearGradient2250)" d="m78.104 45.498l-58.419 3.246c-6.513 4.586-10.317 9.514-11.36 17.85-1.7267 43.446-2.0308 87.466 1.623 133.07 1.622 5.95 6.679 9.41 9.737 12.98l58.419 3.25v-170.39z"></path><path id="path27607" sodipodi:nodetypes="ccccccc" style="fill-rule:evenodd;stroke:#000000;stroke-width:2.9237px;fill:url(#linearGradient2247)" d="m77.292 185.06l586.63 1.62-4.87-163.9-14.6-13.794-547.68 2.434-18.666 12.171-0.812 161.47z"></path><path id="path27612" sodipodi:nodetypes="ccccc" style="fill-rule:evenodd;stroke:#000000;stroke-width:2.9237px;fill:#b3abab" d="m78.915 185.87l1.623 142.8 583.52-1.62-0.95-140.37-584.2-0.81z"></path><path id="path29385" sodipodi:nodetypes="ccccccc" style="fill-rule:evenodd;stroke:#000000;stroke-width:2.9653px;fill:url(#linearGradient2243)" d="m80.342 329.47l584.73-2.81-2.58 169.63-14.62 14.18-548.04-2.5-18.676-12.51-0.812-165.99z"></path><path id="path29389" style="fill-rule:evenodd;fill:#000000;fill-opacity:.29730" d="m78.104 24.402l18.662-12.171 3.244 495.75-18.661-12.17-3.245-471.41z"></path><path id="path30276" style="fill-rule:evenodd;fill:#000000;fill-opacity:.29730" d="m659.21 19.58l-19.55-12.053 4.83 503.85 19.15-12.68-4.43-479.12z"></path><rect id="rect30278" style="stroke-linejoin:round;stroke:#000000;stroke-linecap:round;stroke-width:2.5;fill:#9d9d9d" rx="38.946" ry="38.946" height="339.97" width="405.69" y="89.312" x="192.51"></rect><path id="path31165" sodipodi:nodetypes="ccccc" style="fill-rule:evenodd;fill:url(#linearGradient2237)" d="m203.87 353.36l-0.81-121.71 378.1-0.81 0.81 116.03c-144.44 55.38-197.6-94.07-378.1 6.49z"></path><path id="path32061" style="fill-rule:evenodd;fill:#73e973" d="m210.36 34.95l-1.62 35.701h17.03v-36.512l-15.41 0.811z"></path><rect id="rect32948" style="fill:#1a1a1a" rx="9.3309" ry="9.3309" height="57.608" width="135.5" y="130.26" x="216.04"></rect><path id="text32950" style="fill:#ffffff" transform="scale(.83560 1.1967)" d="m285.2 121.84v3.85c-1.23-1.14-2.54-2-3.94-2.57-1.39-0.57-2.88-0.85-4.45-0.85-3.09 0-5.45 0.95-7.1 2.84-1.64 1.89-2.46 4.62-2.46 8.19s0.82 6.29 2.46 8.18c1.65 1.89 4.01 2.84 7.1 2.84 1.57 0 3.06-0.29 4.45-0.85 1.4-0.57 2.71-1.43 3.94-2.58v3.83c-1.28 0.87-2.63 1.52-4.06 1.95-1.44 0.44-2.95 0.65-4.54 0.65-4.1 0-7.32-1.25-9.68-3.75-2.35-2.51-3.53-5.93-3.53-10.27s1.18-7.77 3.53-10.28c2.36-2.5 5.58-3.76 9.68-3.76 1.62 0 3.14 0.22 4.57 0.65s2.78 1.07 4.03 1.93zm14.73 1.52l-4.96 13.46h9.94l-4.98-13.46zm-2.06-3.61h4.14l10.31 27.05h-3.8l-2.47-6.94h-12.19l-2.46 6.94h-3.86l10.33-27.05zm18.38 0h5.46l6.9 18.41 6.94-18.41h5.45v27.05h-3.57v-23.75l-6.97 18.55h-3.68l-6.98-18.55v23.75h-3.55v-27.05zm32.03 0h17.1v3.08h-13.44v8.01h12.88v3.08h-12.88v9.8h13.77v3.08h-17.43v-27.05zm36.31 14.37c0.78 0.26 1.54 0.83 2.29 1.7 0.74 0.87 1.49 2.07 2.23 3.59l3.72 7.39h-3.93l-3.46-6.94c-0.9-1.81-1.76-3.01-2.6-3.6-0.84-0.6-1.99-0.89-3.44-0.89h-3.98v11.43h-3.66v-27.05h8.26c3.09 0 5.4 0.65 6.92 1.94s2.28 3.24 2.28 5.85c0 1.71-0.39 3.12-1.18 4.24s-1.94 1.9-3.45 2.34zm-9.17-11.36v9.6h4.6c1.76 0 3.1-0.41 4-1.22 0.9-0.82 1.34-2.02 1.34-3.6s-0.44-2.77-1.34-3.58c-0.9-0.8-2.24-1.2-4-1.2h-4.6zm31.18 0.6l-4.97 13.46h9.95l-4.98-13.46zm-2.07-3.61h4.15l10.31 27.05h-3.81l-2.46-6.94h-12.19l-2.47 6.94h-3.85l10.32-27.05z"></path><path id="path32954" style="fill-rule:evenodd;stroke:#1a1a1a;stroke-width:.73091;fill:#4d4d4d" d="m218.68 146.28l131.24 0.21"></path><path id="path34728" style="fill-rule:evenodd;stroke:#1a1a1a;stroke-width:.73091;fill:#4d4d4d" d="m219.11 148.22l131.24 0.2"></path><path id="path34730" style="fill-rule:evenodd;stroke:#1a1a1a;stroke-width:.73091;fill:#4d4d4d" d="m219.18 150.37l131.24 0.2"></path><path id="path34732" style="fill-rule:evenodd;stroke:#1a1a1a;stroke-width:.73091;fill:#4d4d4d" d="m219.39 152.38l131.24 0.2"></path><path id="path34734" style="fill-rule:evenodd;stroke:#1a1a1a;stroke-width:.73091;fill:#4d4d4d" d="m219.39 154.53l131.24 0.2"></path><path id="path34736" style="fill-rule:evenodd;stroke:#1a1a1a;stroke-width:.73091;fill:#4d4d4d" d="m219.39 156.47l131.24 0.2"></path><path id="path34738" style="fill-rule:evenodd;stroke:#1a1a1a;stroke-width:.73091;fill:#4d4d4d" d="m219.82 158.55l131.24 0.2"></path><path id="path34740" style="fill-rule:evenodd;stroke:#1a1a1a;stroke-width:.73091;fill:#4d4d4d" d="m219.97 160.77l131.24 0.2"></path><path id="path34742" style="fill-rule:evenodd;stroke:#1a1a1a;stroke-width:.73091;fill:#4d4d4d" d="m219.82 162.99l131.24 0.21"></path><path id="path34744" style="fill-rule:evenodd;stroke:#1a1a1a;stroke-width:.73091;fill:#4d4d4d" d="m219.97 165l131.24 0.2"></path><path id="path34746" style="fill-rule:evenodd;stroke:#1a1a1a;stroke-width:.73091;fill:#4d4d4d" d="m220.04 166.94l131.24 0.2"></path><path id="path34748" style="fill-rule:evenodd;stroke:#1a1a1a;stroke-width:.73091;fill:#4d4d4d" d="m220.11 168.95l131.24 0.2"></path><path id="path34750" style="fill-rule:evenodd;stroke:#1a1a1a;stroke-width:.73091;fill:#4d4d4d" d="m219.89 170.67l131.24 0.2"></path><path id="path34752" style="fill-rule:evenodd;stroke:#1a1a1a;stroke-width:.73091;fill:#4d4d4d" d="m220.04 172.39l131.24 0.2"></path><path id="path34754" sodipodi:nodetypes="cccccc" style="fill-rule:evenodd;stroke:#1a1a1a;stroke-width:.73091;fill:#4d4d4d" d="m220.04 174.04l41.23 0.06 14.46 0.02 14.5 0.03 43.43 0.06 17.62 0.03"></path><path id="path34779" sodipodi:nodetypes="ccccsc" style="fill-rule:evenodd;fill:url(#linearGradient2215)" d="m219.4 160.64l-0.28-29.24 129.64-0.2 0.28 27.88c-18.79 5.05-37.07 3.01-50.94-0.14-22.7-5.15-40.29-13.3-78.7 1.7z"></path></g><metadata></metadata></svg> 