<?xml version="1.0" encoding="UTF-8" standalone="no"?> <!-- Created with Inkscape (http://www.inkscape.org/) --> <svg xmlns:inkscape="http://www.inkscape.org/namespaces/inkscape" xmlns:rdf="http://www.w3.org/1999/02/22-rdf-syntax-ns#" xmlns="http://www.w3.org/2000/svg" xmlns:sodipodi="http://sodipodi.sourceforge.net/DTD/sodipodi-0.dtd" xmlns:cc="http://web.resource.org/cc/" xmlns:xlink="http://www.w3.org/1999/xlink" xmlns:dc="http://purl.org/dc/elements/1.1/" xmlns:svg="http://www.w3.org/2000/svg" xmlns:ns1="http://sozi.baierouge.fr" id="svg2" sodipodi:docname="spachtle.svg" viewBox="0 0 562.53 804.04" sodipodi:version="0.32" inkscape:version="0.44.1" inkscape:label="Pozadí" sodipodi:docbase="C:\Documents and Settings\Im\Plocha\11.Naradi a nastroje"><defs id="defs3"><radialGradient id="radialGradient2860" gradientUnits="userSpaceOnUse" cy="416.76" cx="291.96" gradientTransform="matrix(1 0 0 1.4467 0 -186.19)" r="182.51" inkscape:collect="always"><stop id="stop2845" style="stop-color:#e6e6e6" offset="0"></stop><stop id="stop2847" style="stop-color:#e6e6e6;stop-opacity:0" offset="1"></stop></radialGradient><linearGradient id="linearGradient2862" y2="713.55" gradientUnits="userSpaceOnUse" x2="362.66" y1="713.55" x1="225.47" inkscape:collect="always"><stop id="stop2825" style="stop-color:#ead3b9" offset="0"></stop><stop id="stop2827" style="stop-color:#ead3b9;stop-opacity:0" offset="1"></stop></linearGradient></defs><g id="layer1" inkscape:label="Vrstva 1" inkscape:groupmode="layer" transform="translate(-90.566 -99.245)"><g id="g2853" inkscape:export-ydpi="90" inkscape:export-xdpi="90" inkscape:export-filename="/media/KINGSTON/inkscape/8.b/Petra Thurlova/svg 3/Prace svg/naradi/spachtle.png" transform="matrix(-.88251 -.47029 .47029 -.88251 435.74 1091.2)"><rect id="rect1873" style="stroke:black;fill:#a4712a" rx="0.15" ry="0" height="0" width="12.237" y="181.51" x="-173.35"></rect><path id="rect2801" sodipodi:nodetypes="csccssscccc" style="stroke:black;stroke-width:.91172;fill:#ac9393" d="m290.87 156.92c16.91 0 186.74-8.46 183.09 0l-130.76 303.73 8.2 217.94s-21.39 1.76-32.42 1.76 4.68-3.65-12.22-3.65c-16.91 0-23.06-1.83-34.1-1.83-11.03 0-21.48-3.66-21.48-3.66l-5.47-211.51c-18.72-86.65-108.46-218.17-135.8-304.82 0 0 164.06 2.04 180.96 2.04z"></path><path id="path2831" sodipodi:nodetypes="csccssscccc" style="fill:url(#radialGradient2860)" d="m290.87 156.92c16.91 0 186.74-8.46 183.09 0l-130.76 303.73 8.2 217.94s-21.39 1.76-32.42 1.76 4.68-3.65-12.22-3.65c-16.91 0-23.06-1.83-34.1-1.83-11.03 0-21.48-3.66-21.48-3.66l-5.47-211.51c-18.72-86.65-108.46-218.17-135.8-304.82 0 0 164.06 2.04 180.96 2.04z"></path><path id="path1909" sodipodi:nodetypes="csssssssc" style="stroke:black;stroke-width:1.0087;fill:#cb7c24" d="m357.24 697.25c0 64.82 8.2 123.54-6.86 166.05s-35.86 68.81-58.82 68.81-43.76-26.3-58.82-68.81-0.29-101.23-0.29-166.05-14.77-148.66 0.29-191.17 35.86-43.69 58.82-43.69 48.14-2.69 63.2 39.82c15.05 42.51 2.48 130.22 2.48 195.04z"></path><path id="path1934" sodipodi:nodetypes="csssssssc" style="opacity:.37383;fill:url(#linearGradient2862)" d="m357.22 713.57c0 69.32 8.2 132.11-6.86 177.57-15.05 45.46-35.85 73.58-58.8 73.58-22.96 0-43.75-28.12-58.81-73.58-15.05-45.46-0.29-108.25-0.29-177.57s-14.76-158.98 0.29-204.44c15.06-45.46 35.85-46.72 58.81-46.72 22.95 0 48.13-2.87 63.18 42.58 15.06 45.46 2.48 139.26 2.48 208.58z"></path></g></g><metadata></metadata></svg> 