<?xml version="1.0" encoding="UTF-8" standalone="no"?> <!-- Created with Inkscape (http://www.inkscape.org/) --> <svg xmlns:inkscape="http://www.inkscape.org/namespaces/inkscape" xmlns:rdf="http://www.w3.org/1999/02/22-rdf-syntax-ns#" xmlns="http://www.w3.org/2000/svg" xmlns:cc="http://web.resource.org/cc/" xmlns:dc="http://purl.org/dc/elements/1.1/" xmlns:sodipodi="http://sodipodi.sourceforge.net/DTD/sodipodi-0.dtd" xmlns:svg="http://www.w3.org/2000/svg" xmlns:ns1="http://sozi.baierouge.fr" xmlns:xlink="http://www.w3.org/1999/xlink" id="svg2" sodipodi:docname="zima_1.svg" inkscape:version="0.44.1" inkscape:export-filename="/home/md5/Documents/9.c/Kryštof Jetmar/inscape/Přírodní děje/zima.png" viewBox="0 0 751.54 1058.7" sodipodi:version="0.32" inkscape:export-xdpi="90" inkscape:export-ydpi="90" inkscape:label="Pozadí" sodipodi:docbase="D:\_petr_\School\INKSCAPE\svg\04.Rocni obdobi a prirodni deje"><g id="layer1" inkscape:label="Vrstva 1" inkscape:groupmode="layer" transform="translate(3.65 -1.8622)"><g id="g1906" inkscape:export-ydpi="90" inkscape:export-xdpi="90" inkscape:export-filename="/home/lamatin/Desktop/zima.png"><path id="path4858" style="fill-rule:evenodd;stroke:black;stroke-width:1px;fill:#aabdd6" d="m1.9185 2.3622l-2 1052 746.58 4-1.99-1056-742.59-0.0378z"></path><g id="g20218" style="stroke:black;stroke-width:3.3"><path id="path14954" sodipodi:nodetypes="ccccccc" style="fill-rule:evenodd;stroke:black;stroke-width:3.3;fill:#938763" d="m395.5 905.26l117-318 47.2 233.02 6.4-31.4 89.4 269.42-262.8-3.2 2.8-149.84z"></path><path id="path14077" sodipodi:nodetypes="ccccccc" style="fill-rule:evenodd;stroke:black;stroke-width:3.3;fill:#938763" d="m191.5 906.86l61.4-146.24 18.1 44.67 31.92-101.62 162.48 352.23h-268.95l-4.95-149.04z"></path><path id="path13200" sodipodi:nodetypes="ccccccc" style="fill-rule:evenodd;stroke:black;stroke-width:3.3;fill:#938763" d="m0 905.36l117-318 32 137 20-49 91.99 381.04-262.99 2 2-153.04z"></path><path id="path13202" style="fill-rule:evenodd;stroke:black;stroke-width:3.3;fill:#fbfbfb" d="m73.467 705.88l8.935 44.48 14.598-43.49 17 66.49 6-55.57 25 78.57 18-59 30 44-24-104-20 47-32-137-43.533 118.52z"></path><path id="path14079" style="fill-rule:evenodd;stroke:black;stroke-width:3.3;fill:#efe7e7" d="m230 818.36l7 32.46 11-31.46 13 47 7-40 8 31.41 9-47.41 10 35.5 7-45.5 8 36.57 5-31.57 16.59 45.46 13.9-54.46-42.49-90.48-32 101.48-18-46-23 57z"></path><path id="path14958" style="fill-rule:evenodd;stroke:black;stroke-width:3.3;fill:#f8f5f5" d="m481 673.91c0 4.45 6 33.45 6 33.45l9-29 6 39 4-35 8 24 4.47-32.45 8.53 33.45 7-14-22-107-31 87.55z"></path><path id="path15833" style="fill-rule:evenodd;stroke:black;stroke-width:3.3;fill:#f8f0f0" d="m574.47 816.36l-4 17.57-3.47-9.57-3 8-5-13 7-30 8.47 27z"></path><path id="path16708" sodipodi:nodetypes="ccccccc" style="fill-rule:evenodd;stroke:black;stroke-width:3.3;fill:#938763" d="m746.24 945.59l-90.71-292.19-30.78 137-19.24-49-80.59 315.5 221.26 2 0.06-113.31z"></path><path id="path16710" style="fill-rule:evenodd;stroke:black;stroke-width:3.3;fill:#fcf6f6" d="m594 791.36l8 25 8.57-30 12.9 28 11.53-42 5 18 5-22 20 42-2-30 18 28 9-48-34-107-31.53 138-18.47-51-12 51z"></path></g><g id="g20212" transform="translate(184.65 -110.96)"><path id="path17585" sodipodi:rx="93.322685" sodipodi:ry="92.329887" style="fill-rule:evenodd;stroke:#010000;stroke-width:5;fill:#e4f704" sodipodi:type="arc" d="m-323.65 274.56" sodipodi:open="true" transform="translate(615.51 -1.8552)" sodipodi:cy="274.01129" sodipodi:cx="-230.32832" sodipodi:end="9.4188154" sodipodi:start="3.1356433"></path><path id="path18460" sodipodi:rx="12.906328" sodipodi:ry="13.650925" style="fill-rule:evenodd;stroke:#010000;stroke-width:5;fill:#090908" sodipodi:type="arc" d="m342.02 245.55" sodipodi:open="true" transform="translate(.48229 -3.2572)" sodipodi:cy="245.46844" sodipodi:cx="354.92404" sodipodi:end="9.4188154" sodipodi:start="3.1356433"></path><path id="path19335" sodipodi:rx="12.906328" sodipodi:ry="13.650925" style="fill-rule:evenodd;stroke:#010000;stroke-width:5;fill:#090908" sodipodi:type="arc" d="m342.02 245.55" sodipodi:open="true" transform="translate(62.482 -3.2572)" sodipodi:cy="245.46844" sodipodi:cx="354.92404" sodipodi:end="9.4188154" sodipodi:start="3.1356433"></path><path id="path19337" sodipodi:nodetypes="cc" style="stroke:black;stroke-width:5.3;fill:none" d="m345.65 294.01c26.08 42.43 55.3 44.11 88 0.51"></path></g></g></g><metadata></metadata></svg> 