<?xml version="1.0" encoding="UTF-8" standalone="no"?> <!-- Created with Inkscape (http://www.inkscape.org/) --> <svg xmlns:inkscape="http://www.inkscape.org/namespaces/inkscape" xmlns:rdf="http://www.w3.org/1999/02/22-rdf-syntax-ns#" xmlns="http://www.w3.org/2000/svg" xmlns:cc="http://web.resource.org/cc/" xmlns:dc="http://purl.org/dc/elements/1.1/" xmlns:sodipodi="http://sodipodi.sourceforge.net/DTD/sodipodi-0.dtd" xmlns:svg="http://www.w3.org/2000/svg" xmlns:ns1="http://sozi.baierouge.fr" xmlns:xlink="http://www.w3.org/1999/xlink" id="svg2095" inkscape:version="0.44.1" viewBox="0 0 440 502.86" sodipodi:version="0.32" sodipodi:docname="lopata.svg" sodipodi:docbase="C:\Documents and Settings\Im\Plocha\11.Naradi a nastroje"><g id="layer1" inkscape:label="Layer 1" inkscape:groupmode="layer" transform="translate(-196.43 -263.08)"><g id="g4568"><path id="path4562" style="fill:#fdfdfd" d="m196.43 514.5v-251.42h220 220v251.42 251.43h-220-220v-251.43z"></path><path id="path4560" style="fill:#a89055" d="m269.89 649.28c-23.35-6.27-31.78-9.67-35.39-14.25-6.61-8.41-13.12-63.76-8.54-72.62 2.8-5.39 75.5-56.48 103.82-72.96l9.28-5.39 17.02 13.53c19.22 15.26 26.75 16.76 39.73 7.88 4.54-3.1 19.73-13.66 33.76-23.46 14.04-9.8 39.42-26.91 56.42-38.01 41.2-26.94 75.84-51.76 85.37-61.2 12.15-12.02 30.1-8.67 30.1 5.62 0 6.29-2.26 8.29-32.8 28.98-10.98 7.44-39.86 28.92-64.18 47.72-24.31 18.81-53.2 40.08-64.18 47.28-10.98 7.19-21.57 14.73-23.53 16.74-6.56 6.76-3.99 16.15 7.85 28.61 6.27 6.62 11.31 13.4 11.2 15.07-0.18 2.65-70.54 55.51-102.86 77.28-14.76 9.94-23.42 9.83-63.07-0.82z"></path><path id="path4558" style="fill:#2a292b" d="m274.62 651.72c-17.49-4.61-33.76-10.06-36.15-12.1-5.92-5.07-8.93-18.41-11.23-49.69-1.49-20.24-1.03-27.33 1.96-30.39 4.96-5.08 75.17-53.74 95.66-66.3l15.51-9.5 17.28 14.12c24.58 20.1 25.84 19.87 70.45-12.9 9.88-7.26 19.09-13.2 20.46-13.2 3.71 0 14.45 15.47 12.99 18.72-0.69 1.55-11.07 9.4-23.06 17.45-32.53 21.84-34.11 29.41-11.18 53.51l9.96 10.48-36.08 27.23c-19.84 14.98-43.34 32.99-52.22 40.02-20.49 16.22-29.14 21.19-36.59 21.05-3.28-0.06-20.27-3.89-37.76-8.5z"></path><path id="path4556" style="fill:#121114" d="m273 647.71c-38.98-10.06-38.84-9.88-40.68-51.18-1.4-31.45-1.1-34.28 3.85-35.91 3.19-1.05 5.84-0.56 6.53 1.2 1.56 4.03 7.99 3.75 12.14-0.54 1.87-1.93 6-2.93 9.16-2.22 3.17 0.71 5.76 0.09 5.76-1.37 0-4.25-6.08-6.29-9.64-3.24-4 3.43-17.8 3.76-15.35 0.37 3.79-5.27 60.93-42.74 63.27-41.5 1.37 0.73 1.72 6.93 0.77 13.77-2.01 14.58 2.22 17.74 15.69 11.7 11.97-5.37 33.26-21.6 33.26-25.35 0-1.75-2.64-5.23-5.86-7.74-3.23-2.5-5.87-5.63-5.87-6.96s5.13 1.55 11.4 6.41 15.51 9.6 20.54 10.55c5.02 0.95 9.13 2.26 9.13 2.93 0 3.94-25.55 26.18-47.74 41.55-24.94 17.28-30.51 24.86-19.6 26.66 6.26 1.03 28.62-15.98 29.74-22.64 1.16-6.87 55.65-45.12 59.53-41.79 2.72 2.33-2.15 11.81-5.5 10.7-1.93-0.63-6.75 1.85-10.71 5.52l-7.19 6.67 7.33-1.91c4.04-1.06 8.99-2.45 11-3.1 2.02-0.65 3.67-0.04 3.67 1.35s4.6 8.39 10.23 15.56c12.25 15.61 12.95 14.39-24.31 42.79-13.61 10.37-35.16 27.06-47.89 37.09-27.26 21.47-29.42 21.79-72.66 10.63zm31.35-100.22c0.84-2.15-1.25-2.53-7.17-1.31-10.6 2.18-10.92 2.46-8.68 7.47 1.66 3.71 2.58 3.76 8.27 0.53 3.52-2.01 6.94-5.02 7.58-6.69z"></path></g></g><metadata></metadata></svg> 