<?xml version="1.0" encoding="UTF-8" standalone="no"?> <!-- Created with Inkscape (http://www.inkscape.org/) --> <svg xmlns:inkscape="http://www.inkscape.org/namespaces/inkscape" xmlns:rdf="http://www.w3.org/1999/02/22-rdf-syntax-ns#" xmlns="http://www.w3.org/2000/svg" xmlns:sodipodi="http://sodipodi.sourceforge.net/DTD/sodipodi-0.dtd" xmlns:cc="http://web.resource.org/cc/" xmlns:xlink="http://www.w3.org/1999/xlink" xmlns:dc="http://purl.org/dc/elements/1.1/" xmlns:svg="http://www.w3.org/2000/svg" xmlns:ns1="http://sozi.baierouge.fr" id="svg2" sodipodi:docname="redkvicka.svg" viewBox="0 0 371.33 604.47" sodipodi:version="0.32" inkscape:version="0.44.1" inkscape:label="Pozadí" sodipodi:docbase="D:\_petr_\School\INKSCAPE\svg\05.Ovoce, zelenina, jidlo"><defs id="defs3"><linearGradient id="linearGradient1922" y2="565.68" gradientUnits="userSpaceOnUse" x2="361.62" gradientTransform="matrix(.16796 .98579 -.98579 .16796 937.57 446.54)" y1="686.22" x1="36.962" inkscape:collect="always"><stop id="stop8117" style="stop-color:#e90c38" offset="0"></stop><stop id="stop8119" style="stop-color:#e90c38;stop-opacity:0" offset="1"></stop></linearGradient></defs><g id="layer1" inkscape:label="Vrstva 1" inkscape:groupmode="layer" transform="translate(-177.57 -197.71)"><g id="g1924"><path id="path6340" sodipodi:nodetypes="csssc" style="fill:url(#linearGradient1922)" d="m353.62 802.18c-114.84-15.6-148.16-38.48-147.77-114.47 0.53-106.14 31.88-152.24 101.52-156.95 100.68-6.8 135.01 39.56 147.78 114.47 12.76 74.92-35.81 127.13-101.53 156.95z"></path><g id="g3660" transform="translate(40.789 -53.026)"><path id="path3656" style="stroke:black;stroke-width:.44208;fill:#49a96a" d="m251.51 251.79c1.02-0.12-11.77-0.99 7.94-0.81 52.61 0.5 0.6 39.85 4.97 51.65 4.36 11.8 13.47 5.18 23.63-8.37 10.16-13.54 19.52-29.46 20.68-27.15s-4.11 16.79-10.3 31.64c-6.18 14.85-13.27 30.07-15.75 33.85-2.47 3.79-4.8 9.13-5.93 17.23-1.13 8.11-1.06 18.96 1.27 33.76 0.68 4.33 4.12 2.97 8.96-1.15s11.07-11 17.35-17.71c6.28-6.72 12.59-13.27 17.6-16.73 5-3.45 8.68-3.82 9.69 1.84s0.45 10.88-0.91 15.95-3.52 9.98-5.72 15.01-4.43 10.17-5.93 15.69c-1.5 5.53-2.27 11.45-1.54 18.02s3.99 9.12 8.49 9.6 10.23-1.11 15.91-2.8c5.67-1.69 11.29-3.48 15.55-3.42 4.26 0.07 7.17 1.99 7.43 7.73 0.25 5.74-4.02 13.74-10.58 22.79-6.55 9.04-15.4 19.14-24.31 29.06-8.91 9.93-17.87 19.68-24.65 28.05-6.79 8.37-11.39 15.36-11.59 19.74-0.2 4.39-0.25 8.35-0.26 11.97-0.01 3.63 0.03 6.93 0.01 9.99s-0.09 5.89-0.32 8.58c-0.22 2.69-0.59 5.24-1.22 7.75-0.62 2.51-0.55 6.1-0.17 10.07 0.39 3.98 1.09 8.34 1.74 12.41 0.66 4.06 1.26 7.83 1.44 10.61 0.18 2.77-0.05 4.56-1.08 4.68-1.03 0.11-1.82-0.41-2.5-1.4s-1.25-2.45-1.84-4.21c-0.59-1.77-1.19-3.83-1.93-6.04-0.75-2.2-1.64-4.54-2.8-6.85-1.16-2.32-1.95-5.55-2.57-9.37-0.61-3.82-1.04-8.22-1.47-12.87-0.44-4.64-0.87-9.52-1.48-14.3s-1.4-9.46-2.55-13.7c-1.16-4.23-6.85-12.31-14.8-22.41-7.95-10.09-18.16-22.2-28.35-34.48-10.19-12.29-20.36-24.75-28.24-35.55-7.88-10.81-13.46-19.95-14.47-25.61-1.01-5.65 3.15-5.1 9.91-1.5s16.13 10.25 25.53 16.78c9.4 6.54 18.83 12.96 25.74 16.1 6.9 3.14 11.27 3.01 10.54-3.57-0.73-6.57-4.86-13.57-10.66-20.73-5.79-7.16-13.26-14.49-20.66-21.7-7.41-7.22-14.75-14.34-20.31-21.08-5.56-6.75-9.33-13.12-9.59-18.86s2.79-7.43 7.52-7 11.14 2.96 17.6 5.67 12.98 5.59 17.94 6.69c4.95 1.1 8.34 0.44 8.53-3.95 0.2-4.39-13.99-14.71-28.63-27.4-14.65-12.7-29.75-27.77-31.38-41.65-1.62-13.88 10.4-11.65 22.99-6.58 12.58 5.07 25.73 12.98 26.36 10.47 0.62-2.51-4.63-15.5-9.83-28.21-5.21-12.71 3.93-13.69 4.76-15.07 0.83-1.37-8.12 4.89 1.89 0.67 10.01-4.21 11.32-1.71 12.35-1.82z" sodipodi:nodetypes="csssssssssssssssssssssssssssssssssssssssssssssssssssssssssssssssc" inkscape:transform-center-y="241.10526" inkscape:transform-center-x="440.78815"></path><path id="path1875" sodipodi:nodetypes="csssssssssssssssssssssssssssssssssssssssssssssssssssssssssssssssc" style="stroke:black;stroke-width:.44208;fill:#49a96a" inkscape:transform-center-x="487.43132" d="m415.87 276.73c0.96 0.39-9.91-6.41 7.39 3.04 46.17 25.23-18.24 35.43-19.95 47.89-1.71 12.47 9.44 10.92 24.78 3.76 15.35-7.16 31.11-16.79 31.04-14.21-0.07 2.59-11.54 12.88-23.99 23.06s-25.88 20.26-29.84 22.44c-3.97 2.17-8.54 5.79-13.35 12.4-4.82 6.62-9.86 16.22-14.79 30.38-1.43 4.14 2.24 4.56 8.45 3.2 6.2-1.35 14.95-4.48 23.65-7.45s17.36-5.77 23.4-6.46 9.46 0.72 7.69 6.19c-1.78 5.46-4.73 9.81-8.32 13.64s-7.81 7.14-12.12 10.54-8.7 6.88-12.63 11.05-7.39 9.02-9.84 15.17c-2.46 6.14-0.78 9.92 2.96 12.46 3.74 2.55 9.55 3.85 15.35 5.03 5.8 1.19 11.6 2.25 15.33 4.31 3.73 2.07 5.39 5.13 2.91 10.32-2.48 5.18-10.01 10.23-20.06 15.12s-22.61 9.62-35.14 14.18-25.03 8.94-34.96 13.12c-9.93 4.19-17.28 8.18-19.52 11.96-2.24 3.77-4.15 7.24-5.87 10.44-1.72 3.19-3.24 6.11-4.7 8.81-1.46 2.69-2.85 5.15-4.32 7.42-1.46 2.26-2.99 4.34-4.72 6.26-1.74 1.92-3.37 5.11-4.9 8.8-1.54 3.69-2.97 7.87-4.31 11.76-1.34 3.9-2.58 7.5-3.73 10.04s-2.2 4-3.16 3.62-1.42-1.22-1.55-2.41c-0.13-1.2 0.05-2.75 0.37-4.58 0.31-1.84 0.75-3.94 1.13-6.24 0.38-2.29 0.7-4.78 0.77-7.36 0.07-2.59 0.89-5.82 2.15-9.48 1.25-3.65 2.95-7.74 4.75-12.04 1.81-4.3 3.73-8.8 5.44-13.31 1.72-4.5 3.22-9 4.2-13.28s-0.23-14.09-2.49-26.74c-2.25-12.65-5.56-28.14-8.76-43.78-3.2-15.63-6.3-31.42-8.16-44.66s-2.47-23.94-0.7-29.4c1.77-5.47 5.18-3.02 9.45 3.34s9.4 16.64 14.61 26.83 10.51 20.3 15.12 26.32c4.61 6.03 8.52 7.97 10.98 1.83 2.45-6.15 2.11-14.26 0.37-23.31s-4.88-19.03-8.01-28.88c-3.13-9.86-6.26-19.6-7.98-28.16-1.73-8.57-2.05-15.97 0.43-21.16 2.48-5.18 5.96-5.23 9.93-2.63 3.97 2.61 8.42 7.87 12.85 13.3s8.82 11.04 12.67 14.35 7.15 4.31 9.39 0.54c2.24-3.78-5.41-19.57-12.35-37.66-6.93-18.1-13.15-38.51-8.05-51.52s14.66-5.38 23.37 5.02c8.72 10.41 16.59 23.58 18.32 21.66s3.22-15.86 4.62-29.52 9.92-10.22 11.3-11.04c1.38-0.83-9.47 0.48 1.35 1.48 10.82 0.99 10.79 3.82 11.75 4.2z"></path><path id="path3654" style="stroke:black;stroke-width:.41994;fill:#49a96a" d="m479.1 319.92c-0.74-0.59 9.58 4.76-5.77-4.51-40.98-24.73-19.37 34.46-28.35 42.66-8.98 8.21-12.89-1.92-14.33-18.6-1.45-16.67-1.14-35.03-3.14-33.57-1.99 1.46-4.78 16.61-7.03 32.52-2.26 15.91-3.99 32.57-3.87 37.05 0.12 4.49-0.61 10.26-3.58 17.87-2.97 7.6-8.18 17.03-17 28.82-2.58 3.45-4.6 0.62-6.39-5.28-1.79-5.91-3.36-14.9-5.03-23.75-1.68-8.86-3.46-17.6-5.7-23.01-2.23-5.4-4.91-7.48-8.38-3.04-3.46 4.45-5.51 9.28-6.86 14.35s-2.01 10.39-2.69 15.82c-0.68 5.44-1.39 10.99-2.85 16.53s-3.67 11.06-7.36 16.45c-3.68 5.38-7.42 6.04-11.13 4.3-3.71-1.73-7.4-5.86-10.99-10.05s-7.09-8.44-10.42-10.42-6.5-1.7-9.42 3.18-3.41 13.9-2.62 24.93c0.78 11.03 2.85 24.07 5.04 36.98 2.18 12.92 4.5 25.71 5.78 36.26 1.28 10.54 1.53 18.84-0.4 22.76-1.93 3.91-3.76 7.39-5.48 10.56-1.71 3.16-3.3 6.02-4.74 8.7s-2.72 5.18-3.83 7.63c-1.1 2.45-2.02 4.86-2.73 7.35-0.71 2.48-2.46 5.58-4.64 8.86-2.19 3.29-4.8 6.76-7.24 9.99-2.43 3.23-4.69 6.22-6.15 8.56s-2.12 4.01-1.38 4.6 1.6 0.52 2.6-0.02 2.13-1.54 3.42-2.8c1.29-1.25 2.74-2.77 4.36-4.33 1.63-1.57 3.43-3.18 5.42-4.65 2-1.46 4.15-3.9 6.44-6.94 2.28-3.03 4.71-6.66 7.24-10.5 2.54-3.85 5.19-7.9 7.93-11.77 2.74-3.88 5.57-7.58 8.48-10.72 2.9-3.14 11.14-7.47 22.09-12.47 10.94-5 24.59-10.67 38.31-16.5 13.72-5.84 27.51-11.84 38.74-17.49s19.89-10.95 23.36-15.4c3.46-4.45-0.02-5.96-6.97-6.05-6.94-0.1-17.35 1.22-27.73 2.42-10.38 1.19-20.73 2.28-27.56 1.71-6.84-0.56-10.16-2.77-6.48-8.15 3.69-5.38 10.21-9.51 18.09-12.98 7.89-3.47 17.14-6.29 26.3-9.04s18.23-5.44 25.73-8.66c7.51-3.22 13.45-6.97 16.37-11.86 2.93-4.88 1.37-7.81-2.5-9.7-3.86-1.89-10.03-2.74-16.32-3.47s-12.7-1.35-17.06-2.75c-4.36-1.41-6.67-3.62-4.74-7.53 1.93-3.92 17.82-6.13 35.18-10.19 17.36-4.07 36.21-9.98 44.05-21.31 7.85-11.32-2.52-15.13-14.67-16.73-12.15-1.61-26.09-1-25.38-3.48 0.71-2.49 10.94-11.31 21-19.9 10.06-8.6 3.44-13.82 3.45-15.42 0.02-1.6 3.98 8.15-1.77-0.32-5.76-8.47-7.96-6.91-8.7-7.5z" inkscape:transform-center-x="-244.97273" inkscape:transform-center-y="417.12597" sodipodi:nodetypes="csssssssssssssssssssssssssssssssssssssssssssssssssssssssssssssssc"></path><path id="path3658" style="stroke:black;stroke-width:.46594;fill:#49a96a" d="m189.91 262.34c-1.11 0.24 11.74-4.94-8.54 1.95-54.12 18.37 15.51 37.75 15.78 50.35 0.27 12.61-11.81 9.47-27.79 0.16-15.97-9.3-32.08-21.12-32.34-18.55-0.27 2.58 11.04 14.43 23.44 26.32 12.39 11.89 25.88 23.81 29.96 26.54 4.09 2.72 8.66 6.97 13.1 14.22s8.76 17.5 12.35 32.24c1.05 4.32-3.05 4.2-9.71 1.97-6.66-2.24-15.89-6.6-25.09-10.79-9.2-4.2-18.37-8.22-24.94-9.77-6.56-1.56-10.51-0.65-9.27 5.03 1.25 5.67 3.94 10.41 7.4 14.72s7.68 8.21 11.98 12.2c4.31 3.98 8.69 8.07 12.48 12.77s6.98 10.01 8.88 16.45c1.91 6.44-0.43 9.95-4.88 11.94-4.45 1.98-11.02 2.44-17.56 2.78s-13.07 0.56-17.44 2.07c-4.38 1.51-6.6 4.31-4.54 9.8 2.06 5.5 9.7 11.59 20.14 17.88 10.43 6.3 23.65 12.8 36.87 19.12 13.21 6.32 26.41 12.46 36.8 18.04 10.4 5.58 17.98 10.6 19.96 14.66 1.97 4.07 3.63 7.78 5.11 11.2 1.48 3.41 2.77 6.53 4.03 9.41s2.48 5.52 3.8 7.98 2.74 4.73 4.4 6.89c1.66 2.15 3.04 5.55 4.25 9.43 1.22 3.88 2.26 8.23 3.23 12.28 0.97 4.06 1.87 7.81 2.8 10.49 0.94 2.68 1.91 4.29 3.02 4.05 1.11-0.25 1.71-1.01 2.01-2.17 0.31-1.17 0.3-2.74 0.19-4.6-0.1-1.86-0.32-4.01-0.44-6.34s-0.15-4.84 0.11-7.42c0.26-2.57-0.23-5.89-1.14-9.7s-2.24-8.1-3.68-12.62c-1.43-4.53-2.96-9.27-4.27-13.99-1.3-4.71-2.38-9.39-2.9-13.77-0.52-4.39 2.08-13.94 6.2-26.16 4.13-12.22 9.77-27.1 15.32-42.14 5.55-15.05 11.01-30.25 14.77-43.12 3.77-12.86 5.83-23.38 4.58-29.05-1.24-5.68-5.31-3.74-10.84 1.95-5.52 5.7-12.5 15.15-19.57 24.51-7.06 9.35-14.2 18.61-20.06 23.92-5.85 5.32-10.42 6.68-12.33 0.23-1.9-6.44-0.47-14.44 2.61-23.16 3.09-8.72 7.83-18.17 12.56-27.49 4.72-9.32 9.43-18.53 12.44-26.77 3.01-8.25 4.32-15.54 2.27-21.04-2.06-5.5-5.89-6.05-10.6-4.04s-10.3 6.59-15.88 11.34-11.15 9.68-15.81 12.41c-4.67 2.72-8.44 3.24-10.42-0.82-1.97-4.07 8.5-18.62 18.48-35.57 9.99-16.95 19.48-36.29 15.54-49.92-3.94-13.64-15.45-7.45-26.39 1.61-10.95 9.07-21.32 21-22.98 18.84-1.66-2.15-1.5-16.18-1.27-29.93s-9.61-11.56-11.02-12.58c-1.41-1.01 10.37 1.84-1.68 1.28-12.04-0.57-12.38 2.24-13.48 2.48z" inkscape:transform-center-x="-547.29671" inkscape:transform-center-y="73.881588" sodipodi:nodetypes="csssssssssssssssssssssssssssssssssssssssssssssssssssssssssssssssc"></path></g></g></g><metadata></metadata></svg> 