<?xml version="1.0" encoding="UTF-8" standalone="no"?> <svg xmlns:rdf="http://www.w3.org/1999/02/22-rdf-syntax-ns#" xmlns="http://www.w3.org/2000/svg" xmlns:cc="http://web.resource.org/cc/" xmlns:dc="http://purl.org/dc/elements/1.1/" xmlns:svg="http://www.w3.org/2000/svg" xmlns:inkscape="http://www.inkscape.org/namespaces/inkscape" xmlns:sodipodi="http://sodipodi.sourceforge.net/DTD/sodipodi-0.dtd" xmlns:ns1="http://sozi.baierouge.fr" xmlns:xlink="http://www.w3.org/1999/xlink" viewBox="0 0 478.07 611.34"><g><path style="fill:#ec2a32;fill-rule:evenodd" d="m0 0.0040283h478.07v521.73c-0.23 34.3-22 52.92-69.73 52.61l-100.53 0.2c-36.1 0.18-59.26 12.07-68.21 36.8-11.71-24.54-34.96-36.8-69.74-36.8l-99.817 0.08c-41.277-0.03-69.742-12.64-70.027-52.9l-0.000402-521.72"></path><path style="fill:#ffc905;fill-rule:evenodd" d="m206.4 292.05c-9.4 0-17.06-7.66-17.06-17.06 0-2.51 0.55-4.9 1.53-7.05l-85.79 0.36-64.088-138.06-11.625-22.38-7.265 3.16 11.14 26.52 1.453 5.1 64.293 136.86 81.262-0.96c1.75 12.85 12.82 22.82 26.14 22.82 13.53 0 24.75-10.29 26.21-23.44l124.97-1.48 92.05-139.64 7.01-10.98-6.65-5.11-17.88 24.11-81.13 122.46-129.11 0.53c1.02 2.18 1.59 4.61 1.59 7.17 0 9.4-7.66 17.06-17.06 17.06"></path><path style="fill:#b57969;fill-rule:evenodd" d="m432.12 144.82l-81.14 122.46-129.1 0.53c1.01 2.18 1.58 4.61 1.58 7.17 0 9.4-7.66 17.06-17.06 17.06-9.39 0-17.06-7.66-17.06-17.06 0-2.51 0.55-4.89 1.53-7.04l-85.79 0.35-64.084-138.06 62.124 115.8h254.19l74.81-101.22"></path><path style="fill:#a07164;fill-rule:evenodd" d="m180.26 278.55c1.74 12.85 12.81 22.82 26.13 22.82 13.54 0 24.75-10.29 26.22-23.44l124.96-1.48 92.05-139.64c-9.62 19.47-18.08 58.26-26.4 99.25-10.85 61.14-40.5 98.6-84.3 118.22-17.76 8.47-38.19 11.15-59.82 11.19h-122.08c-63.391 0.75-95.52-39.59-104.64-110.2l-17.685-112.63 64.293 136.86 81.262-0.96"></path><path style="fill:#a47564;fill-rule:evenodd" d="m180.13 278.78c1.74 12.81 12.87 22.73 26.16 22.73 13.89 0 25.08-10.24 26.55-23.35 41.66-0.48 83.34-0.97 125.01-1.46 30.11-45.76 60.23-91.51 90.34-137.26-9.3 19.18-17.5 56.79-25.57 96.47-10.82 60.89-40.4 98.19-84.1 117.74-17.72 8.44-38.1 11.1-59.69 11.15h-121.8c-63.245 0.75-95.3-39.44-104.4-109.75-5.794-36.85-11.587-73.7-17.38-110.55 21.148 45.08 42.3 90.16 63.449 135.24 27.141-0.32 54.291-0.64 81.431-0.96"></path><path style="fill:#a97864;fill-rule:evenodd" d="m180 279.02c1.74 12.75 12.92 22.63 26.19 22.63 14.25 0 25.41-10.2 26.87-23.25 41.69-0.49 83.38-0.97 125.07-1.47 29.55-44.95 59.09-89.91 88.63-134.87-8.98 18.91-16.92 55.32-24.73 93.69-10.8 60.64-40.31 97.8-83.91 117.27-17.68 8.4-38.02 11.06-59.56 11.1h-121.52c-63.103 0.74-95.087-39.28-104.17-109.31-5.691-36.15-11.382-72.31-17.073-108.46 20.867 44.54 41.734 89.08 62.601 133.61 27.202-0.31 54.402-0.63 81.602-0.94"></path><path style="fill:#ac7a64;fill-rule:evenodd" d="m179.88 279.25c1.73 12.7 12.98 22.55 26.21 22.55 14.61 0 25.75-10.16 27.21-23.16 41.7-0.48 83.41-0.97 125.11-1.45 28.98-44.16 57.96-88.33 86.94-132.49-8.67 18.63-16.35 53.84-23.91 90.91-10.78 60.39-40.22 97.4-83.72 116.79-17.64 8.36-37.93 11.01-59.42 11.05h-121.25c-62.957 0.74-94.867-39.11-103.93-108.86-5.589-35.46-11.179-70.92-16.764-106.38 20.585 43.99 41.171 87.99 61.757 131.99 27.257-0.31 54.507-0.63 81.767-0.94"></path><path style="fill:#b07d63;fill-rule:evenodd" d="m179.75 279.49c1.73 12.65 13.03 22.45 26.24 22.45 14.97 0 26.08-10.12 27.53-23.06 41.73-0.48 83.45-0.97 125.18-1.45 28.4-43.37 56.81-86.73 85.22-130.1-8.35 18.35-15.76 52.36-23.07 88.13-10.75 60.15-40.13 97-83.53 116.31-17.6 8.33-37.84 10.97-59.28 11.01h-120.98c-62.814 0.74-94.65-38.96-103.69-108.41-5.488-34.77-10.976-69.54-16.46-104.31 20.304 43.46 40.605 86.92 60.91 130.38 27.31-0.32 54.62-0.63 81.94-0.95"></path><path style="fill:#b58162;fill-rule:evenodd" d="m179.62 279.73c1.73 12.59 13.09 22.36 26.26 22.36 15.33 0 26.42-10.08 27.87-22.97 41.74-0.48 83.48-0.97 125.22-1.45 27.84-42.57 55.68-85.14 83.52-127.72-8.03 18.08-15.19 50.89-22.23 85.35-10.73 59.9-40.04 96.61-83.34 115.84-17.56 8.3-37.76 10.92-59.16 10.96h-120.69c-62.672 0.74-94.438-38.8-103.46-107.97-5.384-34.07-10.767-68.15-16.153-102.22 20.019 42.92 40.043 85.84 60.062 128.75 27.371-0.31 54.741-0.62 82.101-0.94"></path><path style="fill:#b88561;fill-rule:evenodd" d="m179.5 279.96c1.72 12.55 13.14 22.27 26.28 22.27 15.68 0 26.75-10.03 28.19-22.87 41.76-0.48 83.52-0.96 125.28-1.43 27.27-41.78 54.54-83.56 81.81-125.34-7.72 17.8-14.61 49.41-21.4 82.58-10.71 59.65-39.95 96.2-83.15 115.35-17.52 8.26-37.67 10.88-59.02 10.92h-120.42c-62.524 0.73-94.219-38.64-103.22-107.52-5.28-33.38-10.561-66.76-15.846-100.14 19.738 42.38 39.476 84.75 59.218 127.13 27.428-0.31 54.848-0.63 82.278-0.93"></path><path style="fill:#be8861;fill-rule:evenodd" d="m179.38 280.2c1.71 12.49 13.19 22.18 26.3 22.18 16.05 0 27.08-10 28.53-22.78 41.77-0.48 83.55-0.96 125.33-1.44 26.69-40.98 53.4-81.96 80.1-122.94-7.4 17.52-14.03 47.93-20.57 79.79-10.68 59.41-39.86 95.81-82.96 114.88-17.48 8.23-37.58 10.83-58.88 10.87h-120.14c-62.383 0.73-94.004-38.48-102.98-107.08-5.185-32.68-10.364-65.37-15.544-98.06 19.457 41.84 38.914 83.68 58.371 125.52 27.483-0.31 54.963-0.62 82.443-0.93"></path><path style="fill:#c28c5f;fill-rule:evenodd" d="m179.25 280.44c1.71 12.44 13.24 22.08 26.33 22.08 16.4 0 27.41-9.95 28.85-22.68 41.8-0.48 83.59-0.95 125.38-1.43 26.13-40.19 52.27-80.37 78.4-120.56-7.09 17.24-13.45 46.45-19.74 77.01-10.65 59.16-39.76 95.4-82.76 114.39-17.45 8.2-37.5 10.79-58.75 10.83h-119.87c-62.231 0.72-93.778-38.32-102.74-106.63-5.073-31.99-10.155-63.99-15.233-95.98 19.172 41.3 38.347 82.6 57.523 123.89 27.54-0.31 55.07-0.61 82.61-0.92"></path><path style="fill:#c6915c;fill-rule:evenodd" d="m179.12 280.67c1.72 12.39 13.3 21.99 26.36 21.99 16.76 0 27.75-9.91 29.18-22.59 41.81-0.47 83.62-0.94 125.44-1.42 25.56-39.39 51.13-78.78 76.69-118.18-6.77 16.97-12.87 44.98-18.9 74.24-10.64 58.91-39.68 95.01-82.58 113.91-17.4 8.17-37.41 10.75-58.61 10.79h-119.59c-62.095 0.72-93.567-38.16-102.51-106.19-4.975-31.29-9.952-62.6-14.928-93.89l56.679 122.27c27.589-0.31 55.189-0.62 82.779-0.93"></path><path style="fill:#ca945a;fill-rule:evenodd" d="m179 280.91c1.7 12.33 13.35 21.89 26.37 21.89 17.13 0 28.08-9.86 29.52-22.49 41.82-0.47 83.65-0.94 125.48-1.41 25-38.6 49.99-77.2 74.99-115.8-6.45 16.69-12.3 43.5-18.07 71.46-10.61 58.66-39.58 94.61-82.39 113.44-17.36 8.12-37.32 10.69-58.47 10.73h-119.32c-61.946 0.72-93.349-37.99-102.27-105.74-4.872-30.6-9.743-61.21-14.621-91.81 18.609 40.21 37.222 80.43 55.831 120.64 27.65-0.3 55.3-0.61 82.95-0.92"></path><path style="fill:#d09a57;fill-rule:evenodd" d="m178.87 281.14c1.7 12.29 13.41 21.81 26.4 21.81 17.48 0 28.42-9.83 29.85-22.4 41.84-0.47 83.69-0.94 125.53-1.41 24.43-37.8 48.85-75.6 73.28-113.41-6.13 16.41-11.72 42.02-17.23 68.68-10.59 58.41-39.49 94.21-82.2 112.96-17.32 8.09-37.24 10.65-58.34 10.69h-119.04c-61.808 0.72-93.14-37.83-102.04-105.3-4.768-29.9-9.541-59.82-14.314-89.73 18.327 39.68 36.655 79.35 54.984 119.02 27.7-0.3 55.41-0.61 83.11-0.91"></path><path style="fill:#d49d53;fill-rule:evenodd" d="m178.75 281.38c1.69 12.23 13.46 21.72 26.42 21.72 17.84 0 28.75-9.79 30.17-22.31 41.86-0.47 83.73-0.93 125.59-1.4 23.86-37.01 47.72-74.01 71.58-111.02-5.82 16.13-11.14 40.54-16.41 65.89-10.56 58.17-39.39 93.81-82 112.48-17.28 8.06-37.16 10.61-58.21 10.65h-118.76c-61.662 0.71-92.919-37.67-101.8-104.85-4.666-29.22-9.338-58.43-14.01-87.65 18.047 39.13 36.094 78.27 54.141 117.4 27.759-0.3 55.519-0.61 83.279-0.91"></path><path style="fill:#daa14e;fill-rule:evenodd" d="m178.62 281.62c1.69 12.18 13.52 21.62 26.45 21.62 18.19 0 29.08-9.74 30.5-22.21 41.88-0.46 83.77-0.93 125.64-1.4 23.29-36.21 46.58-72.42 69.87-108.63-5.5 15.85-10.56 39.06-15.57 63.11-10.54 57.93-39.31 93.41-81.81 112.01-17.24 8.02-37.07 10.56-58.07 10.6h-118.49c-61.519 0.71-92.703-37.51-101.56-104.4-4.565-28.52-9.135-57.05-13.705-85.57 17.765 38.59 35.527 77.19 53.293 115.78 27.812-0.3 55.632-0.6 83.452-0.91"></path><path style="fill:#dda74a;fill-rule:evenodd" d="m178.49 281.85c1.69 12.13 13.57 21.53 26.47 21.53 18.56 0 29.42-9.7 30.84-22.11 41.89-0.46 83.79-0.93 125.69-1.39 22.72-35.42 45.44-70.84 68.16-106.26-5.19 15.58-9.98 37.6-14.74 60.34-10.51 57.68-39.21 93.02-81.62 111.53-17.2 7.99-36.98 10.51-57.93 10.55h-118.21c-61.377 0.71-92.486-37.35-101.33-103.95-4.461-27.83-8.93-55.66-13.395-83.49 17.481 38.06 34.965 76.11 52.446 114.16 27.869-0.3 55.749-0.6 83.619-0.9"></path><path style="fill:#dfa845;fill-rule:evenodd" d="m178.37 282.09c1.68 12.07 13.62 21.44 26.49 21.44 18.92 0 29.75-9.66 31.17-22.02 41.91-0.46 83.83-0.93 125.74-1.39 22.15-34.62 44.3-69.24 66.46-103.87-4.87 15.3-9.41 36.12-13.91 57.56-10.48 57.43-39.12 92.62-81.43 111.05-17.16 7.96-36.89 10.47-57.8 10.51h-117.93c-61.231 0.7-92.27-37.19-101.09-103.51-4.359-27.14-8.723-54.27-13.09-81.41 17.199 37.51 34.399 75.03 51.602 112.54 27.928-0.3 55.858-0.6 83.788-0.9"></path><path style="fill:#e3ae3f;fill-rule:evenodd" d="m178.24 282.33c1.68 12.02 13.68 21.34 26.52 21.34 19.28 0 30.08-9.62 31.49-21.92 41.94-0.46 83.87-0.92 125.8-1.38 21.59-33.83 43.17-67.66 64.75-101.49-4.55 15.02-8.82 34.64-13.07 54.78-10.46 57.18-39.03 92.22-81.24 110.57-17.11 7.92-36.8 10.42-57.66 10.46h-117.65c-61.094 0.7-92.059-37.03-100.85-103.06-4.264-26.44-8.526-52.88-12.791-79.33 16.918 36.98 33.836 73.95 50.754 110.92 27.987-0.29 55.967-0.6 83.957-0.89"></path><path style="fill:#e9b437;fill-rule:evenodd" d="m178.12 282.56c1.67 11.98 13.73 21.26 26.54 21.26 19.63 0 30.41-9.58 31.82-21.83 41.95-0.46 83.9-0.92 125.86-1.38 21.01-33.03 42.02-66.06 63.04-99.09-4.24 14.73-8.25 33.16-12.24 52-10.44 56.92-38.94 91.81-81.05 110.08-17.08 7.9-36.72 10.39-57.53 10.42h-117.38c-60.946 0.7-91.837-36.87-100.61-102.61-4.164-25.75-8.324-51.5-12.484-77.25 16.636 36.43 33.273 72.87 49.906 109.3 28.038-0.3 56.078-0.59 84.128-0.89"></path><path style="fill:#eeb82d;fill-rule:evenodd" d="m177.99 282.8c1.67 11.92 13.78 21.16 26.56 21.16 20 0 30.75-9.53 32.16-21.73 41.97-0.46 83.93-0.91 125.9-1.37 20.45-32.24 40.89-64.48 61.34-96.72-3.92 14.46-7.67 31.69-11.41 49.22-10.41 56.69-38.84 91.42-80.86 109.61-17.04 7.86-36.63 10.34-57.39 10.38h-117.1c-60.804 0.69-91.624-36.71-100.38-102.17-4.057-25.06-8.115-50.11-12.174-75.16 16.352 35.89 32.707 71.78 49.063 107.67 28.101-0.3 56.191-0.59 84.291-0.89"></path><path style="fill:#f1be27;fill-rule:evenodd" d="m177.86 283.04c1.67 11.86 13.84 21.06 26.59 21.06 20.35 0 31.08-9.49 32.49-21.64 41.98-0.45 83.97-0.91 125.95-1.36 19.88-31.44 39.76-62.89 59.63-94.33-3.6 14.18-7.09 30.21-10.57 46.44-10.39 56.44-38.75 91.02-80.67 109.13-17 7.82-36.55 10.3-57.25 10.33h-116.83c-60.657 0.7-91.404-36.55-100.14-101.72-3.951-24.36-7.912-48.72-11.869-73.08 16.07 35.35 32.145 70.7 48.215 106.05 28.154-0.29 56.304-0.59 84.454-0.88"></path><path style="fill:#f8c318;fill-rule:evenodd" d="m177.74 283.27c1.66 11.82 13.89 20.98 26.61 20.98 20.71 0 31.41-9.45 32.81-21.54 42.01-0.45 84.01-0.91 126.01-1.36 19.31-30.64 38.61-61.3 57.92-91.94-3.28 13.9-6.51 28.73-9.74 43.66-10.36 56.18-38.66 90.61-80.47 108.65-16.96 7.79-36.47 10.25-57.12 10.28h-116.56c-60.513 0.7-91.185-36.39-99.9-101.27-3.851-23.67-7.707-47.34-11.562-71 15.789 34.81 31.578 69.62 47.371 104.43 28.211-0.29 56.421-0.59 84.621-0.88"></path><path style="fill:#ffc905;fill-rule:evenodd" d="m177.61 283.51c1.66 11.76 13.95 20.88 26.64 20.88 21.07 0 31.75-9.41 33.14-21.45l126.07-1.35 56.21-89.56-8.91 40.88c-10.34 55.95-38.57 90.22-80.28 108.18-16.92 7.75-36.38 10.2-56.99 10.24h-116.28c-60.367 0.69-90.968-36.23-99.66-100.83l-11.257-68.92 46.523 102.81 84.794-0.88"></path><path style="fill:#ffc905;fill-rule:evenodd" d="m328.64 116.6l-158.63 194.27c-29.18 34.69-37.57 30.2-60.37 49.17l-55.679 66.02 36.89 29.64 52.989-66.36c19.68-29.64 9.17-33.34 40.92-71.74l153.78-192.44 10.85 9.41 8.95-10.66-32.08-25.875-8.42 9.205 10.79 9.35"></path><path style="fill:#a07164;fill-rule:evenodd" d="m170 310.87c-10.86 13.31-21.92 28.68-33.16 46.06-3.37 4.66-6.64 13.45-10.11 17.93l-44.086 55.07 46.956-53.73c6.45-7.16 10.69-9.19 16.86-15.66 8.44-7.65 16.86-15.24 25.3-25.91 3.33-4.85 7.54-10.43 13-17.03l153.77-192.44 10.86 9.41 4.68-5.48-15.18-12.99-168.68 209.89c-9 12.08-20.05 25.44-36.77 42.32 13.26-21.61 28.45-43.22 42.68-64.83l-6.13 7.38"></path><path style="fill:#a07164;fill-rule:evenodd" d="m317.84 107.24l10.85 9.4 3.51-4.4-10.73-8.97-3.63 3.97"></path><path style="fill:#a07164;fill-rule:evenodd" d="m49.457 174.2h-8.477l-0.402-2.55h7.668l1.211 2.55zm15.562 33.11h-18.402l-0.406-2.55h17.66l1.152 2.55h-0.004zm15.164 32.1h-28.562l-0.391-2.54h27.742l1.211 2.54zm13.406 28.53h-37.687l0.465 2.55h38.312l-1.09-2.55zm331.35-93.74h12.05l0.66-2.55h-10.96l-1.75 2.55zm-21.76 33.11h26.03l0.56-2.55h-24.88l-1.71 2.55zm-21.19 32.1h40.65l0.45-2.54h-39.44l-1.67 2.54h0.01zm-20.51 31.09h52.79l0.93-2.55h-52.07l-1.65 2.55zm-137.34 30.06h176.05l-1.55 2.54h-182.38c3.13-0.64 5.45-1.49 7.88-2.54zm-78.81 35.16c1.01-0.8 2.05-1.65 3.11-2.55h-65.698l2.105 2.55h60.473 0.01zm27.46-2.55c-0.61 0.87-1.19 1.72-1.75 2.55h198.54l3.08-2.55h-199.87zm5.63-32.61l-0.43 0.53-1.64 2.01h-110.66l-0.952-2.55h113.69"></path></g><metadata></metadata></svg> 