<?xml version="1.0" encoding="UTF-8" standalone="no"?> <svg xmlns:inkscape="http://www.inkscape.org/namespaces/inkscape" xmlns:rdf="http://www.w3.org/1999/02/22-rdf-syntax-ns#" xmlns="http://www.w3.org/2000/svg" xmlns:cc="http://creativecommons.org/ns#" xmlns:dc="http://purl.org/dc/elements/1.1/" xmlns:sodipodi="http://sodipodi.sourceforge.net/DTD/sodipodi-0.dtd" xmlns:svg="http://www.w3.org/2000/svg" xmlns:ns1="http://sozi.baierouge.fr" xmlns:xlink="http://www.w3.org/1999/xlink" id="svg2" sodipodi:docname="chevre_yves_guillou_01.svg" viewBox="0 0 1304 1264" sodipodi:version="0.32" inkscape:output_extension="org.inkscape.output.svg.inkscape" inkscape:version="0.45+devel" sodipodi:docbase="/mnt/donnees/donnees-02/09-Mes_images/Travaux/Travaux_vectoriel/signes zodiac chinois"><path id="selection_to_path" inkscape:export-ydpi="122.72953" style="stroke:#000000;stroke-width:1.3354;fill:#000000" inkscape:export-xdpi="122.72953" d="m1075.3-135.41c-44.6 2.5-83.15 28.9-115.69 57.378-27.32 16.731-60.51 8.046-89.42 0.969-20.68-3.678-45.48-0.767-59.8 16.051-10.62 19.002 17.12 24.703 24.97 37.315 11.14 21.931-19.97 47.135-40.06 34.167-17.39-8.886-7.63-36.408-26.19-43.595-22.35-6.765-40.07 12.333-57.92 22.42-34.32 20.826-71.17 39.952-96.54 72.075-25.71 26.977-57.52 50.07-72.99 85.08-7.34 32.71 15.36 63.7 41.29 81.13 20.27 15.09 42.02 29.22 67.34 33.86 40.38 8.9 82.38 5.56 122.21-4.51 40.75-9.8 88.32-9.76 122.34 18.03 40.24 34.08 49.79 94.41 31.57 142.38-13.5 41.28-42.22 82.03-85.82 94.31-44.59 12.07-92.02-8.38-122.84-40.75-56.27-58.54-89.03-136.77-152.52-188.78-62.09-51.37-152.03-57.41-225.71-29.76-104.56 39.73-196.84 118.64-240.89 222.75-29.131 72.72-15.731 163.84 41.67 219.22 61.82 61.08 162.98 73.91 240.07 35.52 47.5-19.84 103.68-6.92 143.11 24.49 31.37 24.65 61.03 52.83 98.7 67.8 34.93 14.99 72.83 20.55 109.98 27.19 93.11 14.33 192.85 5.44 275.94-41.64 67-37.74 120.1-99.66 145.7-172.34 33.5-86.36 44.9-184.84 14.2-273.73-28-80.21-91.2-146.85-168.87-180.87-14.49-13.45-6.48-35.82 4.77-48.61 14.3-15.25 12.2-39.361 28.5-53.244 19.3-12.908 43-18.641 66-20.401 30.4-3.513 62.4 20.812 62.7 52.405 3 37.47-32.3 74.61-70.5 69.1-14-4.91-29.2-24.39-44.5-12.53-11.9 13.83 1.8 30.83 13.6 39.14 23.8 20.1 46.6 43.19 77.1 53.04 46 16.43 98.8-2.63 131.1-37.43 26.7-28.6 39.1-68.85 35.2-107.58-1.1-63.651-20.5-131.35-70-174.34-31.9-28.571-69.3-50.5-108.3-67.74-15.9-5.5-32.7-8.6-49.5-7.97zm-934.77 393.49c-29.46 2.76-51.796 24.58-73.922 41.97-37.922 36.93-65.618 87.75-65.94 141.56 0.3911 21.12 5.1935 41.94 12.158 61.82-4.5285 21.59 30.748 39.78 41.869 18.17 16.6-28.69 5.589-64.72 22.091-93.57 16.097-38.54 47.064-68.29 79.644-93.24 16.29-15.82 27.87-43.2 13.91-63.99-6.96-8.93-18.7-13.22-29.81-12.72zm-69.57 396.25c-22.703 1.22-28.777 30.67-16.253 46.33 31.121 82.88 102.95 146.33 184.91 176.92 25.03 9.64 52.11 5.26 78.16 8.3 23.53 2.39 47.16 1.41 70.71 1.82 38.28 2.45 75.61 24.41 93.49 58.74 3.99 17.01 9.78 33.77 23.55 45.74 11.91 8.52 31.87 9.82 36.61 28.12 6.46 14.4 2.13 31.8 12.53 44.8 8.74 14.5 25.97 22.1 42.54 19.7 27.03-0.8 54.06-0.3 81.07 0.3 24.7-0.5 50.28 0.5 74.14-6.1 19.72-13.1 16.54-44.3-0.27-58.5-29.19-29.94-69.55-50.38-88.36-89.44-23.65-42.6-71.97-60.44-105.15-93.89-31.4-28.64-70.31-48.29-110.54-61.33-50.92-16.21-106.05-18.69-158.15-6.75-43.35 6.2-90.14-2.56-124.58-30.77-32.02-22.9-56.65-54-83.894-82.03-3.224-1.63-6.92-2.31-10.516-1.96zm1078.4 54.88c-21.1 0.5-27.9 23.61-38.3 37.88-47.8 64.75-122.26 106.86-200.4 123.25-5.41 19.62 8.66 38.42 4.45 58.09 3.14 70.58-35.39 141.67-97.78 175.47-15.06 8.7-31.34 15.3-48.27 19.3-8.1 17.6-21.29 39.9-43.6 38.5-22.49-1-50.6-2.4-65.2 18.3-19.74 27.4-17.07 65.1-39.26 91.1-19.18 32.8-44.19 65.1-46.2 104.5 4.96 20.4 32.14 29.8 49.41 18.8 61.18-17.1 101.23-72 159.29-95.4 45.21-22.6 68.04-70.6 105.16-102.8 52.89-49.5 106.26-100 144.4-162.3 39.6-57.94 76.2-117.94 110.3-179.28 20-38.54 30.5-83.37 24.3-126.71-0.7-9.39-8.2-19.22-18.3-18.7zm-898.95 235.71c-14.73 0.88-32.85 20.74-19.27 33.53 17.28 11.81 38.59 17.38 54.08 32.15 17.02 15.8 33.17 38.1 28.71 62.6-0.63 14-8.03 33.7 8.19 41.9 17.19 6.7 35.58 15.4 38.48 35.8 7.65 19.5 23.82 36.6 45.21 40 21.6 3.5 42.08 10.9 63.28 15.6 28.25 5.8 56.77 13.5 85.79 12.4 20.53-5.2 26.08-34.3 10.86-48.1-52.54-69.4-115.83-129.7-180.24-187.81-34.15-23.61-75.58-37.64-117.31-36.2-5.73-1.89-11.83-1.7-17.78-1.87z"></path><metadata></metadata></svg> 