<?xml version="1.0" encoding="UTF-8" standalone="no"?> <!-- Created with Inkscape (http://www.inkscape.org/) --> <svg xmlns:inkscape="http://www.inkscape.org/namespaces/inkscape" xmlns:rdf="http://www.w3.org/1999/02/22-rdf-syntax-ns#" xmlns="http://www.w3.org/2000/svg" xmlns:cc="http://web.resource.org/cc/" xmlns:dc="http://purl.org/dc/elements/1.1/" xmlns:sodipodi="http://sodipodi.sourceforge.net/DTD/sodipodi-0.dtd" xmlns:svg="http://www.w3.org/2000/svg" xmlns:ns1="http://sozi.baierouge.fr" xmlns:xlink="http://www.w3.org/1999/xlink" id="svg3499" sodipodi:docname="merry_mutant_alone.svg" inkscape:export-filename="/home/aija/projects/inkscape/merry_mutant-shirt.png" viewBox="0 0 920.91 1203.9" sodipodi:version="0.32" inkscape:export-xdpi="300.01001" inkscape:output_extension="org.inkscape.output.svg.inkscape" inkscape:export-ydpi="300.01001" inkscape:version="0.45.1" sodipodi:docbase="/home/aija/projects/inkscape"><g id="layer1" inkscape:label="Layer 1" inkscape:groupmode="layer" transform="translate(-541.11 -198.81)"><path id="path9422" sodipodi:nodetypes="cssssssssc" style="stroke:#008000;stroke-width:18.277;fill:none" d="m1314.1 439.49c-2.3-2.52-4.9 2.79-5.3 5.21-1.6 10.55 7.6 16.26 14.1 15.47 15.6-1.93 23.5-25.8 21.2-44.02-4.3-34.21-43.5-65.26-66.9-56.08-38.2 15-77.5 88.7-67.1 135.42 15.5 69.83 109.2 98.7 159 73.29 70-35.69 99.4-146.85 75.7-234.16-31.9-117.24-158.8-151.92-244.2-102.76-110.7 63.75-179.2 182.84-137 322.47"></path><path id="path8413" sodipodi:nodetypes="cssssssssc" style="stroke:#008000;stroke-width:18.432;fill:none" d="m691.57 437.21c2.27-2.52 4.97 2.79 5.34 5.21 1.62 10.55-7.7 16.26-14.31 15.46-15.91-1.93-23.89-25.78-21.57-44 4.35-34.19 44.24-65.23 68.05-56.05 38.9 14.99 78.82 88.66 68.25 135.36-15.8 69.8-111.12 98.65-161.8 73.26-71.21-35.67-101.12-146.79-76.95-234.07 32.46-117.19 161.53-151.86 248.4-102.72 112.64 63.73 182.34 182.77 139.39 322.34"></path><path id="path3507" sodipodi:rx="421.42856" sodipodi:ry="421.42856" style="fill-rule:evenodd;stroke:#004200;stroke-width:25;fill:#00ff00" sodipodi:type="arc" d="m922.86 544.29a421.43 421.43 0 1 1 -842.86 0 421.43 421.43 0 1 1 842.86 0z" transform="translate(502.36 424.45)" sodipodi:cy="544.28571" sodipodi:cx="501.42856"></path><path id="path4478" sodipodi:rx="408.57144" sodipodi:ry="408.57144" style="stroke:#008000;stroke-width:18.638;fill:none" sodipodi:type="arc" d="m1068.6 597.14a408.57 408.57 0 1 1 -817.17 0 408.57 408.57 0 1 1 817.17 0z" transform="matrix(.99340 0 0 .98990 346.72 374.77)" sodipodi:cy="597.14288" sodipodi:cx="660"></path><path id="path5473" sodipodi:rx="152.85715" sodipodi:ry="80" style="fill-rule:evenodd;stroke:#000000;stroke-width:12.063;fill:#007200" sodipodi:type="arc" d="m660 471.43a152.86 80 0 1 1 -305.71 0 152.86 80 0 1 1 305.71 0z" transform="translate(496.65 289.65)" sodipodi:cy="471.42856" sodipodi:cx="507.14285"></path><path id="path6444" sodipodi:rx="32.857143" sodipodi:ry="75.714287" style="fill-rule:evenodd;stroke:#000000;stroke-width:12.063;fill:#ffff00" sodipodi:type="arc" d="m534.29 301.43a32.857 75.714 0 1 1 -65.72 0 32.857 75.714 0 1 1 65.72 0z" transform="translate(502.36 461.59)" sodipodi:cy="301.42856" sodipodi:cx="501.42856"></path><path id="path7415" style="fill-rule:evenodd;stroke:#000000;stroke-width:17.05;fill:#ffff00" d="m708.34 983.42c21.88 168.98 145.25 298.48 294.06 298.48 148.8 0 272.1-129.5 294-298.48h-32.9c-10.1 118.48-123.2 211.98-261.1 211.98-137.92 0-251.06-93.5-261.23-211.98h-32.83z"></path></g><metadata></metadata></svg> 