<?xml version="1.0" encoding="UTF-8" standalone="no"?> <!-- Created with Inkscape (http://www.inkscape.org/) --> <svg xmlns:inkscape="http://www.inkscape.org/namespaces/inkscape" xmlns:rdf="http://www.w3.org/1999/02/22-rdf-syntax-ns#" xmlns="http://www.w3.org/2000/svg" xmlns:sodipodi="http://sodipodi.sourceforge.net/DTD/sodipodi-0.dtd" xmlns:cc="http://web.resource.org/cc/" xmlns:xlink="http://www.w3.org/1999/xlink" xmlns:dc="http://purl.org/dc/elements/1.1/" xmlns:svg="http://www.w3.org/2000/svg" xmlns:ns1="http://sozi.baierouge.fr" id="svg2" sodipodi:docname="airfield.svg" inkscape:export-filename="/home/jens/Desktop/Kennedy/drawing.png" viewBox="0 0 557 7.0539" sodipodi:version="0.32" inkscape:export-xdpi="2659.0452" inkscape:output_extension="org.inkscape.output.svg.inkscape" inkscape:export-ydpi="2659.0452" inkscape:version="0.45.1" sodipodi:docbase="/home/jens/src/OpenFC/media/Kennedy"><defs id="defs4"><mask id="mask3356" maskUnits="userSpaceOnUse"><g id="g3358"><g id="g3360" transform="translate(.017199)"><rect id="rect3362" style="fill:#ffffff" transform="matrix(1 0 0.723 .69085 0 0)" height="5.0638" width=".40451" y="332.27" x="-129.04"></rect><rect id="rect3364" style="fill:#ffffff" transform="matrix(1 0 .71741 -.69665 0 0)" height="5.1033" width=".40451" y="-339.62" x="354.84"></rect></g><g id="g3366" transform="translate(-2.3251 -.000016058)"><rect id="rect3368" style="fill:#ffffff" transform="matrix(1 0 0.723 .69085 0 0)" height="5.0638" width=".40451" y="332.27" x="-129.04"></rect><rect id="rect3370" style="fill:#ffffff" transform="matrix(1 0 .71741 -.69665 0 0)" height="5.1033" width=".40451" y="-339.62" x="354.84"></rect></g><g id="g3372" transform="translate(-4.6674 -.000018443)"><rect id="rect3374" style="fill:#ffffff" transform="matrix(1 0 0.723 .69085 0 0)" height="5.0638" width=".40451" y="332.27" x="-129.04"></rect><rect id="rect3376" style="fill:#ffffff" transform="matrix(1 0 .71741 -.69665 0 0)" height="5.1033" width=".40451" y="-339.62" x="354.84"></rect></g><g id="g3378" transform="translate(2.3595 -.000018443)"><rect id="rect3380" style="fill:#ffffff" transform="matrix(1 0 0.723 .69085 0 0)" height="5.0638" width=".40451" y="332.27" x="-129.04"></rect><rect id="rect3382" style="fill:#ffffff" transform="matrix(1 0 .71741 -.69665 0 0)" height="5.1033" width=".40451" y="-339.62" x="354.84"></rect></g><g id="g3384" transform="translate(-7.0097 -.000018443)"><rect id="rect3386" style="fill:#ffffff" transform="matrix(1 0 0.723 .69085 0 0)" height="5.0638" width=".40451" y="332.27" x="-129.04"></rect><rect id="rect3388" style="fill:#ffffff" transform="matrix(1 0 .71741 -.69665 0 0)" height="5.1033" width=".40451" y="-339.62" x="354.84"></rect></g></g></mask><mask id="mask4094" maskUnits="userSpaceOnUse"><g id="g4096" transform="scale(-1,1)"><g id="g4098" transform="matrix(-1 0 0 1 766.52 -.000016058)"><rect id="rect4100" style="fill:#ffffff" transform="matrix(1 0 0.723 .69085 0 0)" height="5.0638" width=".40451" y="332.27" x="-129.04"></rect><rect id="rect4102" style="fill:#ffffff" transform="matrix(1 0 .71741 -.69665 0 0)" height="5.1033" width=".40451" y="-339.62" x="354.84"></rect></g><g id="g4104" transform="matrix(-1 0 0 1 770.77 -.000018443)"><rect id="rect4106" style="fill:#ffffff" transform="matrix(1 0 0.723 .69085 0 0)" height="5.0638" width=".40451" y="332.27" x="-129.04"></rect><rect id="rect4108" style="fill:#ffffff" transform="matrix(1 0 .71741 -.69665 0 0)" height="5.1033" width=".40451" y="-339.62" x="354.84"></rect></g><g id="g4110" transform="matrix(-1 0 0 1 762.27 -.25002)"><rect id="rect4112" style="fill:#ffffff" transform="matrix(1 0 0.723 .69085 0 0)" height="5.0638" width=".40451" y="332.27" x="-129.04"></rect><rect id="rect4114" style="fill:#ffffff" transform="matrix(1 0 .71741 -.69665 0 0)" height="5.1033" width=".40451" y="-339.62" x="354.84"></rect></g><g id="g4116" transform="matrix(-1 0 0 1 775.02 -.000018443)"><rect id="rect4118" style="fill:#ffffff" transform="matrix(1 0 0.723 .69085 0 0)" height="5.0638" width=".40451" y="332.27" x="-129.04"></rect><rect id="rect4120" style="fill:#ffffff" transform="matrix(1 0 .71741 -.69665 0 0)" height="5.1033" width=".40451" y="-339.62" x="354.84"></rect></g></g></mask></defs><g id="layer2" inkscape:label="Realstuff" inkscape:groupmode="layer" transform="translate(-106.42 -229.55)"><rect id="rect3193" style="fill:#1a1a1a" height="7.0536" width="556.96" y="229.55" x="106.42"></rect><rect id="rect3318" style="fill:#ffffff" mask="url(#mask3356)" height="7.0539" width="10.214" y="229.55" x="106.52"></rect><g id="g3791"><rect id="rect3197" style="fill:#ffffff" height=".25254" width="6.9764" y="229.81" x="117.84"></rect><rect id="rect3203" style="fill:#ffffff" height=".25254" width="6.9764" y="230.34" x="117.84"></rect><rect id="rect3205" style="fill:#ffffff" height=".25254" width="6.9764" y="230.87" x="117.84"></rect><rect id="rect3207" style="fill:#ffffff" height=".25254" width="6.9764" y="231.4" x="117.84"></rect><rect id="rect3209" style="fill:#ffffff" height=".25254" width="6.9764" y="231.93" x="117.84"></rect><rect id="rect3211" style="fill:#ffffff" height=".25254" width="6.9764" y="232.46" x="117.84"></rect><rect id="rect3225" style="fill:#ffffff" height=".25254" width="6.9764" y="233.44" x="117.84"></rect><rect id="rect3227" style="fill:#ffffff" height=".25254" width="6.9764" y="233.97" x="117.84"></rect><rect id="rect3229" style="fill:#ffffff" height=".25254" width="6.9764" y="234.5" x="117.84"></rect><rect id="rect3231" style="fill:#ffffff" height=".25254" width="6.9764" y="235.03" x="117.84"></rect><rect id="rect3233" style="fill:#ffffff" height=".25254" width="6.9764" y="235.56" x="117.84"></rect><rect id="rect3235" style="fill:#ffffff" height=".25254" width="6.9764" y="236.09" x="117.84"></rect></g><rect id="rect3253" style="fill:#ffffff" height="7.0536" width=".56821" y="229.55" x="116.48"></rect><g id="g3496"><g id="g3476" transform="translate(0 .021656)"><rect id="rect3446" style="fill:#ffffff" height=".25254" width="2.6951" y="232.53" x="126.68"></rect><rect id="rect3463" style="fill:#ffffff" height="1.0338" width=".50762" y="232.53" x="126.68"></rect></g><g id="g3471" transform="translate(0 .40447)"><rect id="rect3465" style="fill:#ffffff" height=".29941" width="3.0076" y="232.83" x="130.36"></rect><rect id="rect3467" style="fill:#ffffff" height="1.19" width=".52324" y="232.18" x="131"></rect><rect id="rect3469" style="fill:#ffffff" transform="matrix(.93997 .34127 0 1 0 0)" height=".29941" width="2.5182" y="184.41" x="139.36"></rect></g></g><rect id="rect3552" style="fill:#ffffff" height=".25254" width="4.6341" y="230.1" x="140.09"></rect><rect id="rect3554" style="fill:#ffffff" height=".25254" width="4.6341" y="230.63" x="140.09"></rect><rect id="rect3556" style="fill:#ffffff" height=".25254" width="4.6341" y="231.16" x="140.09"></rect><rect id="rect3565" style="fill:#ffffff" height=".25254" width="4.6341" y="234.74" x="140.09"></rect><rect id="rect3567" style="fill:#ffffff" height=".25254" width="4.6341" y="235.27" x="140.09"></rect><rect id="rect3569" style="fill:#ffffff" height=".25254" width="4.6341" y="235.8" x="140.09"></rect><g id="g4128"><g id="g3743" style="fill:#4d4d4d"><rect id="rect3599" style="fill:#4d4d4d" height="1.37" width="6.9827" y="230" x="163.52"></rect><use id="use3605" style="fill:#4d4d4d" xlink:href="#rect3599" transform="translate(-.00044788 4.7725)" height="1052.3622" width="744.09448" y="0" x="0"></use></g><g id="g3609"><rect id="rect3581" style="fill:#ffffff" height="1.37" width="6.9827" y="230" x="164.58"></rect><use id="use3585" xlink:href="#rect3581" transform="translate(0 4.773)" height="1052.3622" width="744.09448" y="0" x="0"></use></g></g><g id="g3641" transform="translate(0 .19644)"><g id="g3631"><rect id="rect3627" style="fill:#ffffff" height=".25254" width="3.5292" y="230.39" x="187.78"></rect><rect id="rect3629" style="fill:#ffffff" height=".25254" width="3.5292" y="230.87" x="187.78"></rect></g><g id="g3635" transform="translate(0 4.2426)"><rect id="rect3637" style="fill:#ffffff" height=".25254" width="3.5292" y="230.39" x="187.78"></rect><rect id="rect3639" style="fill:#ffffff" height=".25254" width="3.5292" y="230.87" x="187.78"></rect></g></g><g id="g3649" transform="translate(23.688 .19644)"><g id="g3651"><rect id="rect3653" style="fill:#ffffff" height=".25254" width="3.5292" y="230.39" x="187.78"></rect><rect id="rect3655" style="fill:#ffffff" height=".25254" width="3.5292" y="230.87" x="187.78"></rect></g><g id="g3657" transform="translate(0 4.2426)"><rect id="rect3659" style="fill:#ffffff" height=".25254" width="3.5292" y="230.39" x="187.78"></rect><rect id="rect3661" style="fill:#ffffff" height=".25254" width="3.5292" y="230.87" x="187.78"></rect></g></g><g id="g3687" transform="translate(0 .13258)"><rect id="rect3667" style="fill:#ffffff" height=".25254" width="3.5292" y="230.89" x="234.71"></rect><rect id="rect3685" style="fill:#ffffff" height=".25254" width="3.5292" y="234.74" x="234.71"></rect></g><g id="g3691" transform="translate(23.379 .13258)"><rect id="rect3693" style="fill:#ffffff" height=".25254" width="3.5292" y="230.89" x="234.71"></rect><rect id="rect3695" style="fill:#ffffff" height=".25254" width="3.5292" y="234.74" x="234.71"></rect></g><g id="g3697" transform="translate(145.8 .13258)"><rect id="rect3699" style="fill:#ffffff" height=".25254" width="3.5292" y="230.89" x="234.71"></rect><rect id="rect3701" style="fill:#ffffff" height=".25254" width="3.5292" y="234.74" x="234.71"></rect></g><g id="g3703" transform="translate(169.26 .13258)"><rect id="rect3705" style="fill:#ffffff" height=".25254" width="3.5292" y="230.89" x="234.71"></rect><rect id="rect3707" style="fill:#ffffff" height=".25254" width="3.5292" y="234.74" x="234.71"></rect></g><g id="g3715" transform="translate(238.69 .19644)"><g id="g3717"><rect id="rect3719" style="fill:#ffffff" height=".25254" width="3.5292" y="230.39" x="187.78"></rect><rect id="rect3721" style="fill:#ffffff" height=".25254" width="3.5292" y="230.87" x="187.78"></rect></g><g id="g3723" transform="translate(0 4.2426)"><rect id="rect3725" style="fill:#ffffff" height=".25254" width="3.5292" y="230.39" x="187.78"></rect><rect id="rect3727" style="fill:#ffffff" height=".25254" width="3.5292" y="230.87" x="187.78"></rect></g></g><g id="g3729" transform="translate(262.11 .19644)"><g id="g3731"><rect id="rect3733" style="fill:#ffffff" height=".25254" width="3.5292" y="230.39" x="187.78"></rect><rect id="rect3735" style="fill:#ffffff" height=".25254" width="3.5292" y="230.87" x="187.78"></rect></g><g id="g3737" transform="translate(0 4.2426)"><rect id="rect3739" style="fill:#ffffff" height=".25254" width="3.5292" y="230.39" x="187.78"></rect><rect id="rect3741" style="fill:#ffffff" height=".25254" width="3.5292" y="230.87" x="187.78"></rect></g></g><g id="g4146"><use id="use3761" xlink:href="#rect3599" transform="translate(306 4.7725)" height="1052.3622" width="744.09448" y="0" x="0"></use><use id="use4144" xlink:href="#rect3599" transform="translate(306)" height="1052.3622" width="744.09448" y="0" x="0"></use><g id="g3763" transform="translate(306)"><rect id="rect3765" style="fill:#ffffff" height="1.37" width="6.9827" y="230" x="164.58"></rect><use id="use3767" xlink:href="#rect3581" transform="translate(0 4.773)" height="1052.3622" width="744.09448" y="0" x="0"></use></g></g><g id="g3781" transform="matrix(.73026 0 0 1 394.55 0)"><rect id="rect3769" style="fill:#ffffff" height=".25254" width="4.6341" y="230.1" x="140.09"></rect><rect id="rect3771" style="fill:#ffffff" height=".25254" width="4.6341" y="230.63" x="140.09"></rect><rect id="rect3773" style="fill:#ffffff" height=".25254" width="4.6341" y="231.16" x="140.09"></rect><rect id="rect3775" style="fill:#ffffff" height=".25254" width="4.6341" y="234.74" x="140.09"></rect><rect id="rect3777" style="fill:#ffffff" height=".25254" width="4.6341" y="235.27" x="140.09"></rect><rect id="rect3779" style="fill:#ffffff" height=".25254" width="4.6341" y="235.8" x="140.09"></rect></g><rect id="rect3789" style="fill:#ffffff" height=".25254" width="5.8045" y="232.95" x="134.9"></rect><g id="g3850"><rect id="rect3807" style="fill:#ffffff" height=".25254" width="6.9764" y="229.81" x="513.53"></rect><rect id="rect3809" style="fill:#ffffff" height=".25254" width="6.9764" y="230.34" x="513.53"></rect><rect id="rect3811" style="fill:#ffffff" height=".25254" width="6.9764" y="230.87" x="513.53"></rect><rect id="rect3813" style="fill:#ffffff" height=".25254" width="6.9764" y="231.4" x="513.53"></rect><rect id="rect3815" style="fill:#ffffff" height=".25254" width="6.9764" y="231.93" x="513.53"></rect><rect id="rect3817" style="fill:#ffffff" height=".25254" width="6.9764" y="232.46" x="513.53"></rect><rect id="rect3819" style="fill:#ffffff" height=".25254" width="6.9764" y="233.44" x="513.53"></rect><rect id="rect3821" style="fill:#ffffff" height=".25254" width="6.9764" y="233.97" x="513.53"></rect><rect id="rect3823" style="fill:#ffffff" height=".25254" width="6.9764" y="234.5" x="513.53"></rect><rect id="rect3825" style="fill:#ffffff" height=".25254" width="6.9764" y="235.03" x="513.53"></rect><rect id="rect3827" style="fill:#ffffff" height=".25254" width="6.9764" y="235.56" x="513.53"></rect><rect id="rect3829" style="fill:#ffffff" height=".25254" width="6.9764" y="236.09" x="513.53"></rect></g><rect id="rect3831" style="fill:#ffffff" height="7.0536" width=".38071" y="229.55" x="309.55"></rect><rect id="rect3833" style="fill:#ffffff" height="7.0536" width=".56821" y="229.55" x="521.33"></rect><g id="g3866" transform="translate(-.095320 3.1318)"><rect id="rect3835" style="fill:#ffffff" transform="matrix(0.986 .16675 0 1 0 0)" height=".25254" width="1.9209" y="144.28" x="529.74"></rect><rect id="rect3864" style="fill:#ffffff" transform="matrix(0.986 -.16675 0 1 0 0)" height=".25254" width="1.9209" y="320.95" x="529.74"></rect></g><g id="g3870" transform="translate(-.095320 -2.4619)"><rect id="rect3872" style="fill:#ffffff" transform="matrix(0.986 .16675 0 1 0 0)" height=".25254" width="1.9209" y="144.28" x="529.74"></rect><rect id="rect3874" style="fill:#ffffff" transform="matrix(0.986 -.16675 0 1 0 0)" height=".25254" width="1.9209" y="320.95" x="529.74"></rect></g><g id="g3876" transform="translate(-.095320 -.59738)"><rect id="rect3878" style="fill:#ffffff" transform="matrix(0.986 .16675 0 1 0 0)" height=".25254" width="1.9209" y="144.28" x="529.74"></rect><rect id="rect3880" style="fill:#ffffff" transform="matrix(0.986 -.16675 0 1 0 0)" height=".25254" width="1.9209" y="320.95" x="529.74"></rect></g><g id="g3882" transform="translate(-.095320 1.2672)"><rect id="rect3884" style="fill:#ffffff" transform="matrix(0.986 .16675 0 1 0 0)" height=".25254" width="1.9209" y="144.28" x="529.74"></rect><rect id="rect3886" style="fill:#ffffff" transform="matrix(0.986 -.16675 0 1 0 0)" height=".25254" width="1.9209" y="320.95" x="529.74"></rect></g><g id="g3926" transform="translate(.000026671)"><rect id="rect3902" style="fill:#ffffff" height=".25254" width="3.6326" y="232.95" x="527.12"></rect><g id="g3918" transform="translate(2.9516 .33492)"><rect id="rect3920" style="fill:#ffffff" transform="matrix(0.986 .16675 0 1 0 0)" height=".25254" width="1.9209" y="144.28" x="529.74"></rect><rect id="rect3922" style="fill:#ffffff" transform="matrix(0.986 -.16675 0 1 0 0)" height=".25254" width="1.9209" y="320.95" x="529.74"></rect></g><rect id="rect3924" style="fill:#ffffff" transform="rotate(90)" height=".25254" width=".66387" y="-527.17" x="232.73"></rect></g><g id="g3933" transform="translate(9.3259)"><rect id="rect3935" style="fill:#ffffff" height=".25254" width="3.6326" y="232.95" x="527.12"></rect><g id="g3937" transform="translate(2.9516 .33492)"><rect id="rect3939" style="fill:#ffffff" transform="matrix(0.986 .16675 0 1 0 0)" height=".25254" width="1.9209" y="144.28" x="529.74"></rect><rect id="rect3941" style="fill:#ffffff" transform="matrix(0.986 -.16675 0 1 0 0)" height=".25254" width="1.9209" y="320.95" x="529.74"></rect></g><rect id="rect3943" style="fill:#ffffff" transform="rotate(90)" height=".25254" width=".66387" y="-527.17" x="232.73"></rect></g><g id="g3945" transform="translate(18.652)"><rect id="rect3947" style="fill:#ffffff" height=".25254" width="3.6326" y="232.95" x="527.12"></rect><g id="g3949" transform="translate(2.9516 .33492)"><rect id="rect3951" style="fill:#ffffff" transform="matrix(0.986 .16675 0 1 0 0)" height=".25254" width="1.9209" y="144.28" x="529.74"></rect><rect id="rect3953" style="fill:#ffffff" transform="matrix(0.986 -.16675 0 1 0 0)" height=".25254" width="1.9209" y="320.95" x="529.74"></rect></g><rect id="rect3955" style="fill:#ffffff" transform="rotate(90)" height=".25254" width=".66387" y="-527.17" x="232.73"></rect></g><g id="g3957" transform="translate(27.978)"><rect id="rect3959" style="fill:#ffffff" height=".25254" width="3.6326" y="232.95" x="527.12"></rect><g id="g3961" transform="translate(2.9516 .33492)"><rect id="rect3963" style="fill:#ffffff" transform="matrix(0.986 .16675 0 1 0 0)" height=".25254" width="1.9209" y="144.28" x="529.74"></rect><rect id="rect3965" style="fill:#ffffff" transform="matrix(0.986 -.16675 0 1 0 0)" height=".25254" width="1.9209" y="320.95" x="529.74"></rect></g><rect id="rect3967" style="fill:#ffffff" transform="rotate(90)" height=".25254" width=".66387" y="-527.17" x="232.73"></rect></g><g id="g3969" transform="translate(37.304)"><rect id="rect3971" style="fill:#ffffff" height=".25254" width="3.6326" y="232.95" x="527.12"></rect><g id="g3973" transform="translate(2.9516 .33492)"><rect id="rect3975" style="fill:#ffffff" transform="matrix(0.986 .16675 0 1 0 0)" height=".25254" width="1.9209" y="144.28" x="529.74"></rect><rect id="rect3977" style="fill:#ffffff" transform="matrix(0.986 -.16675 0 1 0 0)" height=".25254" width="1.9209" y="320.95" x="529.74"></rect></g><rect id="rect3979" style="fill:#ffffff" transform="rotate(90)" height=".25254" width=".66387" y="-527.17" x="232.73"></rect></g><g id="g3981" transform="translate(46.629)"><rect id="rect3983" style="fill:#ffffff" height=".25254" width="3.6326" y="232.95" x="527.12"></rect><g id="g3985" transform="translate(2.9516 .33492)"><rect id="rect3987" style="fill:#ffffff" transform="matrix(0.986 .16675 0 1 0 0)" height=".25254" width="1.9209" y="144.28" x="529.74"></rect><rect id="rect3989" style="fill:#ffffff" transform="matrix(0.986 -.16675 0 1 0 0)" height=".25254" width="1.9209" y="320.95" x="529.74"></rect></g><rect id="rect3991" style="fill:#ffffff" transform="rotate(90)" height=".25254" width=".66387" y="-527.17" x="232.73"></rect></g><g id="g3993" transform="translate(55.955)"><rect id="rect3995" style="fill:#ffffff" height=".25254" width="3.6326" y="232.95" x="527.12"></rect><g id="g3997" transform="translate(2.9516 .33492)"><rect id="rect3999" style="fill:#ffffff" transform="matrix(0.986 .16675 0 1 0 0)" height=".25254" width="1.9209" y="144.28" x="529.74"></rect><rect id="rect4001" style="fill:#ffffff" transform="matrix(0.986 -.16675 0 1 0 0)" height=".25254" width="1.9209" y="320.95" x="529.74"></rect></g><rect id="rect4003" style="fill:#ffffff" transform="rotate(90)" height=".25254" width=".66387" y="-527.17" x="232.73"></rect></g><g id="g4005" transform="translate(65.281)"><rect id="rect4007" style="fill:#ffffff" height=".25254" width="3.6326" y="232.95" x="527.12"></rect><g id="g4009" transform="translate(2.9516 .33492)"><rect id="rect4011" style="fill:#ffffff" transform="matrix(0.986 .16675 0 1 0 0)" height=".25254" width="1.9209" y="144.28" x="529.74"></rect><rect id="rect4013" style="fill:#ffffff" transform="matrix(0.986 -.16675 0 1 0 0)" height=".25254" width="1.9209" y="320.95" x="529.74"></rect></g><rect id="rect4015" style="fill:#ffffff" transform="rotate(90)" height=".25254" width=".66387" y="-527.17" x="232.73"></rect></g><g id="g4017" transform="translate(65.281)"><rect id="rect4019" style="fill:#ffffff" height=".25254" width="3.6326" y="232.95" x="527.12"></rect><g id="g4021" transform="translate(2.9516 .33492)"><rect id="rect4023" style="fill:#ffffff" transform="matrix(0.986 .16675 0 1 0 0)" height=".25254" width="1.9209" y="144.28" x="529.74"></rect><rect id="rect4025" style="fill:#ffffff" transform="matrix(0.986 -.16675 0 1 0 0)" height=".25254" width="1.9209" y="320.95" x="529.74"></rect></g><rect id="rect4027" style="fill:#ffffff" transform="rotate(90)" height=".25254" width=".66387" y="-527.17" x="232.73"></rect></g><rect id="rect4029" style="fill:#ffffff" mask="url(#mask4094)" transform="scale(-1,1)" height="7.0539" width="15.621" y="229.55" x="-663.43"></rect><rect id="rect4031" style="fill:#ffffff" transform="scale(-1,1)" height="7.0536" width="5.5682" y="229.55" x="-648.21"></rect><rect id="rect4171" style="fill:#ffffff" transform="scale(-1,1)" height="7.0536" width=".31821" y="229.55" x="-596.46"></rect><g id="g4173" transform="translate(79.031)"><rect id="rect4175" style="fill:#ffffff" height=".25254" width="3.6326" y="232.95" x="527.12"></rect><g id="g4177" transform="translate(2.9516 .33492)"><rect id="rect4179" style="fill:#ffffff" transform="matrix(0.986 .16675 0 1 0 0)" height=".25254" width="1.9209" y="144.28" x="529.74"></rect><rect id="rect4181" style="fill:#ffffff" transform="matrix(0.986 -.16675 0 1 0 0)" height=".25254" width="1.9209" y="320.95" x="529.74"></rect></g><rect id="rect4183" style="fill:#ffffff" transform="rotate(90)" height=".25254" width=".66387" y="-527.17" x="232.73"></rect></g><g id="g4185" transform="translate(88.385)"><rect id="rect4187" style="fill:#ffffff" height=".25254" width="3.6326" y="232.95" x="527.12"></rect><g id="g4189" transform="translate(2.9516 .33492)"><rect id="rect4191" style="fill:#ffffff" transform="matrix(0.986 .16675 0 1 0 0)" height=".25254" width="1.9209" y="144.28" x="529.74"></rect><rect id="rect4193" style="fill:#ffffff" transform="matrix(0.986 -.16675 0 1 0 0)" height=".25254" width="1.9209" y="320.95" x="529.74"></rect></g><rect id="rect4195" style="fill:#ffffff" transform="rotate(90)" height=".25254" width=".66387" y="-527.17" x="232.73"></rect></g><g id="g4197" transform="translate(97.739)"><rect id="rect4199" style="fill:#ffffff" height=".25254" width="3.6326" y="232.95" x="527.12"></rect><g id="g4201" transform="translate(2.9516 .33492)"><rect id="rect4203" style="fill:#ffffff" transform="matrix(0.986 .16675 0 1 0 0)" height=".25254" width="1.9209" y="144.28" x="529.74"></rect><rect id="rect4205" style="fill:#ffffff" transform="matrix(0.986 -.16675 0 1 0 0)" height=".25254" width="1.9209" y="320.95" x="529.74"></rect></g><rect id="rect4207" style="fill:#ffffff" transform="rotate(90)" height=".25254" width=".66387" y="-527.17" x="232.73"></rect></g><g id="g4209" transform="translate(107.09)"><rect id="rect4211" style="fill:#ffffff" height=".25254" width="3.6326" y="232.95" x="527.12"></rect><g id="g4213" transform="translate(2.9516 .33492)"><rect id="rect4215" style="fill:#ffffff" transform="matrix(0.986 .16675 0 1 0 0)" height=".25254" width="1.9209" y="144.28" x="529.74"></rect><rect id="rect4217" style="fill:#ffffff" transform="matrix(0.986 -.16675 0 1 0 0)" height=".25254" width="1.9209" y="320.95" x="529.74"></rect></g><rect id="rect4219" style="fill:#ffffff" transform="rotate(90)" height=".25254" width=".66387" y="-527.17" x="232.73"></rect></g><rect id="rect4221" style="fill:#ffffff" height=".15928" width="556.96" y="229.55" x="106.42"></rect><use id="use4223" xlink:href="#rect4221" transform="translate(0 6.8943)" height="1052.3622" width="744.09448" y="0" x="0"></use><rect id="rect4225" style="fill:#ffffff" height=".25254" width="5.8045" y="232.95" x="144.36"></rect><rect id="rect4227" style="fill:#ffffff" height=".25254" width="5.8045" y="232.95" x="153.82"></rect><rect id="rect4229" style="fill:#ffffff" height=".25254" width="5.8045" y="232.95" x="162.97"></rect><rect id="rect4231" style="fill:#ffffff" height=".25254" width="5.8045" y="232.95" x="172.25"></rect><rect id="rect4233" style="fill:#ffffff" height=".25254" width="5.8045" y="232.95" x="181.66"></rect><rect id="rect4235" style="fill:#ffffff" height=".25254" width="5.8045" y="232.95" x="190.81"></rect><rect id="rect4237" style="fill:#ffffff" height=".25254" width="5.8045" y="232.95" x="200.31"></rect><rect id="rect4239" style="fill:#ffffff" height=".25254" width="5.8045" y="232.95" x="210.48"></rect><rect id="rect4241" style="fill:#ffffff" height=".25254" width="5.8045" y="232.95" x="219.81"></rect><rect id="rect4243" style="fill:#ffffff" height=".25254" width="5.8045" y="232.95" x="229.14"></rect><rect id="rect4245" style="fill:#ffffff" height=".25254" width="5.8045" y="232.95" x="238.48"></rect><rect id="rect4247" style="fill:#ffffff" height=".25254" width="5.8045" y="232.95" x="247.81"></rect><rect id="rect4249" style="fill:#ffffff" height=".25254" width="5.8045" y="232.95" x="257.14"></rect><rect id="rect4251" style="fill:#ffffff" height=".25254" width="5.8045" y="232.95" x="266.48"></rect><rect id="rect4253" style="fill:#ffffff" height=".25254" width="5.8045" y="232.95" x="275.81"></rect><rect id="rect4255" style="fill:#ffffff" height=".25254" width="5.8045" y="232.95" x="285.15"></rect><rect id="rect4257" style="fill:#e6e6e6" height=".25254" width="5.8045" y="232.95" x="294.48"></rect><rect id="rect4259" style="fill:#ffffff" height=".25254" width="5.8045" y="232.95" x="303.81"></rect><rect id="rect4261" style="fill:#ffffff" height=".25254" width="5.8045" y="232.95" x="313.15"></rect><rect id="rect4263" style="fill:#ffffff" height=".25254" width="5.8045" y="232.95" x="322.48"></rect><rect id="rect4265" style="fill:#ffffff" height=".25254" width="5.8045" y="232.95" x="331.81"></rect><rect id="rect4267" style="fill:#ffffff" height=".25254" width="5.8045" y="232.95" x="341.15"></rect><rect id="rect4269" style="fill:#ffffff" height=".25254" width="5.8045" y="232.95" x="350.48"></rect><rect id="rect4271" style="fill:#ffffff" height=".25254" width="5.8045" y="232.95" x="359.82"></rect><rect id="rect4273" style="fill:#ffffff" height=".25254" width="5.8045" y="232.95" x="369.15"></rect><rect id="rect4275" style="fill:#ffffff" height=".25254" width="5.8045" y="232.95" x="378.48"></rect><rect id="rect4277" style="fill:#ffffff" height=".25254" width="5.8045" y="232.95" x="387.82"></rect><rect id="rect4279" style="fill:#ffffff" height=".25254" width="5.8045" y="232.95" x="397.15"></rect><rect id="rect4281" style="fill:#ffffff" height=".25254" width="5.8045" y="232.95" x="406.49"></rect><rect id="rect4283" style="fill:#ffffff" height=".25254" width="5.8045" y="232.95" x="415.82"></rect><rect id="rect4285" style="fill:#ffffff" height=".25254" width="5.8045" y="232.95" x="425.15"></rect><rect id="rect4287" style="fill:#ffffff" height=".25254" width="5.8045" y="232.95" x="434.49"></rect><rect id="rect4289" style="fill:#ffffff" height=".25254" width="5.8045" y="232.95" x="443.82"></rect><rect id="rect4291" style="fill:#ffffff" height=".25254" width="5.8045" y="232.95" x="453.15"></rect><rect id="rect4293" style="fill:#ffffff" height=".25254" width="5.8045" y="232.95" x="462.49"></rect><rect id="rect4295" style="fill:#ffffff" height=".25254" width="5.8045" y="232.95" x="471.82"></rect><rect id="rect4297" style="fill:#ffffff" height=".25254" width="5.8045" y="232.95" x="481.16"></rect><rect id="rect4299" style="fill:#ffffff" height=".25254" width="5.8045" y="232.95" x="490.49"></rect><rect id="rect4301" style="fill:#ffffff" height=".25254" width="3.5232" y="232.95" x="499.68"></rect><rect id="rect4303" style="fill:#ffffff" height=".25254" width=".83574" y="232.95" x="504.93"></rect><rect id="rect4305" style="fill:#ffffff" transform="rotate(90)" height=".41827" width=".90203" y="-505.35" x="232.26"></rect><rect id="rect4307" style="fill:#ffffff" height=".25254" width=".83574" y="232.22" x="504.93"></rect><rect id="rect4309" style="fill:#ffffff" transform="matrix(.87213 .48928 0 1 0 0)" height=".25254" width="1.4904" y="-51.526" x="579.92"></rect><rect id="rect4313" style="fill:#ffffff" height=".25254" width=".75092" y="232.95" x="507.06"></rect><rect id="rect4315" style="fill:#ffffff" transform="rotate(90)" height=".41827" width=".90203" y="-507.81" x="232.26"></rect><g id="g4325" transform="translate(0 -1.6131)"><rect id="rect4327" style="fill:#ffffff" height=".25254" width=".83574" y="232.95" x="504.93"></rect><rect id="rect4329" style="fill:#ffffff" transform="rotate(90)" height=".41827" width=".90203" y="-505.35" x="232.26"></rect><rect id="rect4331" style="fill:#ffffff" height=".25254" width=".83574" y="232.22" x="504.93"></rect><rect id="rect4333" style="fill:#ffffff" transform="matrix(.87213 .48928 0 1 0 0)" height=".25254" width="1.4904" y="-51.526" x="579.92"></rect><rect id="rect4335" style="fill:#ffffff" height=".25254" width=".75092" y="232.95" x="507.06"></rect><rect id="rect4337" style="fill:#ffffff" transform="rotate(90)" height=".41827" width=".90203" y="-507.81" x="232.26"></rect></g><rect id="rect4339" style="fill:#ffffff" height=".25254" width="2.8824" y="232.2" x="508.71"></rect><rect id="rect4341" style="fill:#ffffff" height=".25254" width="1.6008" y="231.44" x="508.71"></rect><rect id="rect4349" style="fill:#ffffff" transform="rotate(90)" height=".41827" width=".90203" y="-509.13" x="231.48"></rect><rect id="rect4351" style="fill:#ffffff" transform="rotate(90)" height=".41827" width=".90203" y="-510.32" x="231.48"></rect><rect id="rect4353" style="fill:#ffffff" transform="matrix(.98997 -.14131 0 1 0 0)" height=".25254" width="1.3268" y="304.47" x="515.46"></rect></g><metadata></metadata></svg> 