<?xml version="1.0" encoding="UTF-8" standalone="no"?> <!-- Generator: Adobe Illustrator 13.0.2, SVG Export Plug-In . SVG Version: 6.00 Build 14948) --> <svg xmlns:rdf="http://www.w3.org/1999/02/22-rdf-syntax-ns#" xmlns="http://www.w3.org/2000/svg" xmlns:cc="http://web.resource.org/cc/" xmlns:xlink="http://www.w3.org/1999/xlink" xmlns:dc="http://purl.org/dc/elements/1.1/" xmlns:svg="http://www.w3.org/2000/svg" xmlns:inkscape="http://www.inkscape.org/namespaces/inkscape" xmlns:sodipodi="http://sodipodi.sourceforge.net/DTD/sodipodi-0.dtd" xmlns:ns1="http://sozi.baierouge.fr" id="old_witch_xA0_Image_1_" style="enable-background:new 0 0 152.052 335.921" xml:space="preserve" viewBox="0 0 152.052 335.921" y="0px" x="0px"> <g> <path style="clip-rule:evenodd;fill-rule:evenodd" d="m74.16 46.187c4.728-0.485 7.939 1.715 6.96 6.48-0.407 1.981-2.047 4.231-4.32 4.56-3.679 0.532-9.687-3.379-7.2-7.92 0.972-1.775 2.866-2.946 4.56-3.12zm-4.08 5.76c0.331 2.458 4.134 4.212 6.96 3.6 1.742-0.378 3.632-2.675 3.359-4.8-0.289-2.259-2.837-3.704-6.24-3.12-2.314 0.397-4.438 1.649-4.079 4.32z"></path> <path style="clip-rule:evenodd;fill-rule:evenodd" d="m110.64 57.467c0.502-0.102 0.636 0.165 0.96 0.24-0.04 0.696-1.14 0.578-0.96-0.24z"></path> <path style="clip-rule:evenodd;fill-rule:evenodd" d="m84.24 78.587c0.073 1.513-1.688 1.191-1.68 2.64-0.895-0.625-1.646-1.393-2.88-1.68v-0.72c1.367-0.338 2.803 0.076 4.56-0.24z"></path> <path style="clip-rule:evenodd;fill-rule:evenodd" d="m78.48 84.827c-1.334 0.426-1.782 1.737-2.88 2.4-2.156 0.285-4.694-1.128-3.12-2.4 1.135-0.095 1.095 0.985 2.4 0.72 1.053-0.355 2.794-3.04 3.6-0.72z"></path> <path style="clip-rule:evenodd;fill-rule:evenodd" d="m78.96 91.307c-0.905 0.607-1.625-0.676-2.4-0.96h-5.76c-0.803 0.237-1.118 0.962-1.92 1.2-0.579-0.302-0.849-0.911-1.68-0.96 1.298-1.028 3.43-1.102 5.76-1.2 2.325-0.098 5.637-0.869 6 1.92z"></path> <path style="clip-rule:evenodd;fill-rule:evenodd" d="m76.081 91.787c0.072 1.229-3.944 2.155-3.601 0 1.049-0.686 2.239 0.232 3.601 0z"></path> <path style="clip-rule:evenodd;fill-rule:evenodd" d="m31.2 106.19h0.72c0.363 2.857 5.662 3.222 6.96 5.28 1.488 2.359-0.183 5.556 0.48 9.6 0.446 0.833 2.497 0.062 2.16 1.68-1.808 1.937-3.772-0.334-4.08-1.68-0.194-0.848 0.214-1.635 0.24-2.64 0.054-2.098-0.126-4.073-0.24-5.52-1.866-2.31-6.974-2.62-6.24-6.72z"></path> <path style="clip-rule:evenodd;fill-rule:evenodd" d="m73.2 135.23c1.012 0.348 1.52 1.201 1.92 2.16-1.305 1.43-3.183-0.94-1.92-2.16z"></path> <path style="clip-rule:evenodd;fill-rule:evenodd" d="m78.48 138.83c1.204-0.004 2.215 0.185 3.12 0.48 0.1 1.219-0.939 1.3-1.92 1.44-0.333-0.71-1.383-0.7-1.2-1.92z"></path> <path style="clip-rule:evenodd;fill-rule:evenodd" d="m84 140.03c1.202 0.547 1.972 0.834 3.6 0.48-0.042 2.72-4.702 2.05-3.6-0.48z"></path> <path style="clip-rule:evenodd;fill-rule:evenodd" d="m126.48 168.11c1.04 0.1-0.25 1.39 0 0z"></path> <path style="clip-rule:evenodd;fill-rule:evenodd" d="m54.96 180.11c0.387-0.067 0.413 0.228 0.72 0.24 1.804 7.335 2.839 15.515 2.64 23.28-1.839 1.601-4.488 2.392-7.44 2.88 0.235-2.965 4.641-1.759 6-3.601-0.611-2.375-0.618-5.19-0.96-7.439-0.505-3.315-0.462-8.573-0.96-11.76-0.246-1.58-1.068-2.53 0-3.6z"></path> <path style="clip-rule:evenodd;fill-rule:evenodd" d="m83.041 256.67c0.42 0.219 0.833 0.446 0.72 1.199-0.676 0.03-0.693-0.59-0.72-1.2z"></path> <path style="clip-rule:evenodd;fill-rule:evenodd" d="m93.121 54.106c9.112-0.439 19.509-1.062 24.239 4.56 0.511 4.529-1.459 6.604-3.84 8.64-2.307 1.972-2.959 2.201-6.96 2.64-0.852 0.093-1.541 0.541-2.399 0.72-2.507 0.524-5.358 0.771-8.16 1.2-4.334 0.665-8.118 0.859-13.2 1.2 0.353 2.84 3.753 4.449 4.56 6.96 0.479 1.485 0.622 3.927 0.48 5.76-0.068 0.887-0.617 1.829-0.72 2.88-0.08 0.818 0.175 1.884 0 2.64-0.386 1.667-1.859 2.604-2.4 4.32-1.42 1.11-3.295 1.342-4.8 2.16-1.427 0.776-2.466 2.328-4.32 2.4 1.203 3.757 3.172 6.749 6.24 8.64 0.486 0.719-0.189 1.796 0.24 2.16 0.806 0.246 0.373-0.747 0.479-1.2 1.065 0.854 2.683 1.157 3.84 1.92 2.469-4.332 3.174-10.426 5.04-15.36-2.326-0.175-5.1 1.249-6.479 0.48 0.598-2.283 3.722-2.039 6.479-2.16 2.597-2.543 2.951-6.446 5.28-9.12 1.549-1.778 3.859-2.734 5.04-4.8-0.369-3.711-2.469-5.691-3.6-8.64 1.017-0.61 1.557 0.704 2.159 1.44 1.444 1.764 2.659 4.276 2.88 7.68 1.305 0.855 2.793 1.527 4.801 1.68 1.424 1.512 3.522 2.537 4.56 4.56 0.612 1.194 1.002 3.185 1.68 4.56 0.517 1.047 0.994 1.449 0.96 3.12 1.884 0.948 2.347 3.031 3.841 4.8 1.032 1.223 3.87 5.99 4.319 7.92 0.33 1.418-0.16 3.062 0.48 4.56 1.292 1.284 3.028 1.745 4.08 3.36 0.654 1.005 0.447 2.991 2.16 3.12 0.043 0.678-0.902 0.559-0.24 1.2 0.942 1.254 1.359 2.939 2.4 4.08 1.014 1.112 2.747 1.587 3.6 2.88-0.78 1.697 0.146 3.626 0 5.52-0.058 0.748-0.539 1.234-0.72 1.92-0.289 1.095-0.156 2.434-0.48 3.6-0.597 2.147-1.854 3.833-2.399 6.24-0.439 1.938-0.11 3.391-0.24 5.28-0.137 1.977-0.72 4.006-0.96 6-0.291 2.409-0.053 5.337-0.721 7.44-0.626 1.971-0.428 4.339-0.96 7.2-0.108 0.584-0.603 1.142-0.72 1.68-0.176 0.811-0.127 1.739-0.24 2.64-0.526 4.204-0.771 9.919-1.2 14.88-0.135 1.57-0.685 3.186-0.72 4.8-0.099 4.521 1.496 8.927 1.92 13.44 0.178 1.889-0.076 3.885 0 6 0.137 3.755 0.312 8.948 0 13.92-0.179 2.86 0.049 6.452 0.24 10.8 0.212 4.815 0.979 9.737 0.96 14.399-0.008 2.058-0.479 4.179-0.479 6.24 0 3.57 0.531 7.377 0.239 10.8-0.359 4.218 0.563 9.173 0 13.2-0.57 4.08-0.287 9.562-1.439 13.92 1.198 1.042 2.308 2.173 3.84 2.88 0.788 0.535 1.059-0.499 1.68 0 0.988-0.113-0.23 0.646 0.721 0.721 2.979 0.126 4.059 1.231 7.199 0.72 0.598 0.283 1.364 0.396 1.681 0.96 0.776 0.297 0.183-0.776 0.96-0.479 1.001 1.357 3.929 1.067 5.76 2.399 2.31 1.681 3.028 5.718 1.439 8.4-2.626-0.077-5.508-0.526-8.159-1.2-1.267 0.669-1.869 1.313-3.601 0.72-5.352 1.929-8.909 5.65-14.399 7.44-2.488-0.793-5.126-1.435-7.681-2.16 0.984 2.035 2.339 4.59 1.44 6.72-0.384 0.911-2.961 2.952-4.8 2.4-0.109-0.033-0.488-0.677-0.721-0.72-1.789-0.333-3.901 0.404-5.04-0.721-0.733-0.174-0.705 0.414-1.439 0.24-2.667-1.253-5.6-2.24-7.92-3.84-1.817-1.543-3.363-3.356-4.32-5.76-4.202 2.095-8.138-1.587-12.72-0.48 0.285 3.023-0.33 7.013 0 10.32 0.111 1.114 0.857 1.943 0.96 2.88 0.369 3.374-0.725 5.494-2.64 7.439-2.961 0.481-2.616-2.345-4.561-2.88-0.515-5.444-1.378-11.237-1.44-17.76-2.603 0.293-4.526 3.303-6.72 4.8-2.361 0.455-3.559 0.713-6 1.2-0.611-0.509-1.838-0.402-2.64-0.72-1.629 0.898-3.267 2.811-5.76 3.6-1.521 0.481-3.659 0.354-5.76 0.48-1.587 0.095-3.173 0.629-4.32 0.479-1.53-0.199-2.977-1.098-4.08-1.92-1.276 1.266-2.001 1.231-4.08 1.44-0.818 0.082-1.55 0.466-2.16 0.479-0.393 0.01-0.67-0.445-1.2-0.479-0.977-0.064-2.56-0.18-3.84-0.24-2.16-0.102-5.021-0.278-6.96 0.24-1.753 0.469-2.838 2.052-4.8 2.399-1.155-0.659-2.221-1.713-2.4-3.12-0.104-0.816 0.478-1.587 0.48-2.399 0.002-0.998-0.707-2.331-0.96-3.36-0.296-1.201-0.906-2.101-1.2-3.359-1.486-0.705-2.627-2.585-4.08-4.08-0.453-0.467-1.067-1.189-1.68-1.681-0.112-0.09-0.604-0.124-0.72-0.239-0.761-0.755-0.873-1.838-1.92-1.921-0.255-1.185-0.677-1.205-1.44-2.159-0.001-3.218-1.426-5.426-1.92-8.641 1.167-1.293 2.12-2.552 3.6-3.84 0.645-0.561 1.348-1.307 1.92-1.68 0.548-0.357 1.343-0.369 1.92-0.72 2.67-1.623 4.872-4.437 8.16-5.28 2.305-2.415 4.781-4.659 6.72-7.44-0.012-2.228-0.059-4.421-0.72-6 0.565-3.527-0.059-10.398-0.24-13.92-0.077-1.501 0.378-2.909-0.48-3.84 0.85-1.187 0.122-2.948 0.24-4.56 0.131-1.791 0.936-4.669 0.24-6.96 0.234-0.246 0.474-0.486 0.72-0.721-0.507-0.748-0.088-1.032-0.48-1.68 0.965-3.074 1.411-6.461 1.2-9.84 1.048-0.887 0.955-2.429 1.2-3.601 0.441-2.109 1.208-4.03 1.2-6.72-0.005-1.893 0.311-5.06 0-6.72-0.032-0.172-0.49-0.158-0.48-0.48 0.013-0.441 0.033-0.619-0.24-1.439-0.099-0.297 0.144-0.924-0.24-1.681-0.09-0.177-0.712-0.454-0.72-0.479-0.307-0.942-0.172-2.27-0.72-3.36-0.505-1.005-1.337-1.911-1.92-2.88-1.268-2.106-2.454-4.323-3.36-6.96-0.411-1.196-1.076-2.739-1.2-3.84-0.227-2.019 0.667-4.238 0.48-6.24-0.198-2.119-1.396-4.036-1.92-6-0.339-1.27-0.41-2.789-0.72-4.08-0.528-2.195-1.219-4.042-0.96-5.76-0.755-1.083-0.437-2.396-0.72-3.6-0.241-1.024-0.958-2.083-1.2-3.12-0.365-1.559-0.293-3.414-0.72-5.04-0.066-0.252-0.716-0.457-0.72-0.48-0.043-0.238 0.573-0.187 0.48-0.48-0.446-1.402-1.505-3.8-0.48-6 0.397-0.854 2.882-2.83 3.84-4.08 0.452-0.59 0.564-1.195 0.96-1.68 0.564-0.692 1.443-1.03 1.92-1.68 0.678-0.923 1.149-2.083 1.44-3.36h0.96c0.948-2.444 3.457-4.562 5.04-6.96 0.529-0.8 1.195-2.044 1.2-2.64 0.008-0.978-1.177-1.951-1.44-3.36-0.211-1.131 0.15-2.298 0-3.36-0.087-0.619-0.595-1.2-0.72-1.92-0.189-1.089 0.259-2.352-0.72-2.88 0.139-2.977-0.622-5.709 0-9.12 0.539-0.661 1.199-1.201 1.44-2.16 3.532-1.908 5.996-4.884 7.92-8.4 0.099-2.044 0.788-4.436 2.4-5.52 1.028-0.691 2.506-0.673 3.6-1.2 4.535-2.182 7.587-6.42 11.76-8.64 0.836-3.786-0.528-7.802 0-11.28-2.187-1.055-5.476-1.02-8.4-1.92-0.55-0.169-1.035-0.453-1.68-0.72-1.351-0.559-3.627-1.329-4.56-2.16-1.21-1.079-1.808-2.996-1.2-5.76 0.527-0.302 0.874-0.945 1.44-1.44 0.864-0.756 2.591-1.053 4.32-1.68 4.467-1.619 12.12-4.114 18-4.08 1.902-3.796 3.08-7.754 4.32-12.24 1.658-5.997 3.447-11.406 5.28-17.52 1.324-4.418 2.565-8.935 3.84-13.44 0.754-2.663 2.258-5.249 2.16-8.16 1.122-2.087 3.974-4.925 6-1.92 0.445 0.66 0.519 1.983 0.96 3.36 0.668 2.085 1.458 4.324 1.92 6.96 0.414 2.368 0.365 4.764 0.96 6.96 0.138 0.511 0.562 0.925 0.72 1.44 0.211 0.687 0.067 1.522 0.24 2.16 0.938 3.468 2.434 6.82 3.36 10.32 0.331 1.252 0.384 2.588 0.72 3.84 1.208 4.502 3.311 7.789 3.84 12.96 0.773 1.306 1.203 2.955 1.442 4.796zm-11.281-34.079c-1.098-4.166-1.502-8.423-2.4-12-0.617-2.46-0.944-6.952-3.359-6.48-0.93 1.387-1.395 3.184-1.92 5.04-0.753 2.663-1.215 4.922-1.92 7.68-0.275 1.077-0.625 2.081-0.96 3.12-1.917 5.94-4.022 12.454-6 18.24 5.706 2.944 14.411 0.871 21.12 0.48-1.138-5.173-3.253-11.118-4.561-16.08zm-18.72 23.28c0.527 2.471 3.682 1.854 5.76 0.72 0.147-0.771-0.864-0.329-0.24-0.96 1.586 1.043 2.943-1.697 3.12-3.6-2.109-1.091-4.992-1.409-7.44-2.16 0.328 2.367-1.541 4.402-1.2 6zm18.24-5.04c-2.951 0.547-5.853 0.379-8.64 0.72 0.36 5.687-5.599 8.651-10.32 6.24-0.621 2.979-1.803 5.397-2.64 8.16 2.922-1.123 7.218 0.114 7.92 3.36 0.771 3.566-1.326 5.762-2.64 6.96 5.374 1.461 10.286 0.571 16.8 0.24-0.786-2.979 0.83-5.321 1.92-6.72 2.759-3.543 6.612-1.733 9.6 0.96-0.899-3.42-2.411-6.229-3.12-9.84-4.174 2.443-9.064-1.024-8.159-5.76 1.137-0.863 1.927-2.073 3.119-2.88 0.576-0.464 1.938-0.142 2.16-0.96-0.716-2.665-3.749-0.897-6-0.48zm8.16 8.879c-0.115-2.764-0.937-4.823-1.92-6.72-7.171 0.139-3.987 10.31 1.92 6.72zm-30 7.921c-1.325 1.555-1.047 4.712-2.4 6.24 2.104 0.203 3.727 2.061 5.76 1.92 3.073-0.212 4.268-3.645 3.12-7.2-1.566-1.631-3.95-1.926-6.48-0.96zm-18.96 13.44c4.228 0.541 8.378 2.213 12.96 2.88 4.653 0.677 9.873 0.312 15.12 0.48 4.509 0.145 9.136 0.348 13.44 0 2.705-0.219 5.636-0.292 8.399-0.48 6.085-0.415 11.915-2.212 17.521-2.88 3.07-1.778 8.683-4.129 7.439-8.4-0.432-1.484-3.532-3.351-5.52-3.84-1.086-0.267-2.5-0.076-3.84-0.24-1.688-0.207-4.262-0.904-6.24-0.96-1.995-0.057-4.003 0.479-5.76 0.48 0.115 2.684 1.392 4.208 1.439 6.96-1.79 0.218-3.725 1.83-6 2.4-0.518 0.129-1.245-0.095-1.92 0-1.14 0.16-2.063 0.754-2.88 0.72-1.067-0.044-1.291-0.485-1.92-0.48-0.296 0.134 0.179 0.929-0.96 0.72-7.462 0.911-15.91 0.725-21.36-1.2-1.885-0.666-5.159-1.768-5.28-3.84 1.25 0.075 1.962-3.361 1.68-4.8-1.292-0.662-2.488 0.44-3.84 0.72-0.955 0.198-2.021-0.03-3.12 0.24-0.787 0.193-1.877 0.906-2.88 1.2-0.604 0.177-1.254 0.073-1.92 0.24-1.485 0.373-3.341 1.339-5.04 1.92-3.428 1.171-5.221 1.547-4.56 5.28 1.274 1.366 3.835 1.446 5.041 2.88zm44.4-11.28c-1.354 0.865-2.858 4.962-2.16 6 2.964 0.633 8.135-0.221 9.84-2.4-0.448-2.725-4.741-5.478-7.68-3.6zm-34.08 15.84c-0.389 4.182 0.811 9.234 0.24 12.96 1.279 1.335 0.679 3.584 0.72 5.76 1.051 1.189 3.271 1.208 3.36 3.36-5.735 0.381-4.313-5.995-5.52-9.6-1.935 0.012-3.631 2.269-4.8 3.84-3.229 2.051-5.648 4.912-10.08 5.76-0.81 1.387-1.422 3.011-1.44 4.56-2.147 3.453-4.701 6.5-8.16 8.64-0.747 1.733-1.164 3.796-1.44 6 0.263 0.538 0.397 1.203 0.72 1.68-1.025 1.875 0.787 3.656 0.48 6.24 1.271 2.168 2.433 4.446 2.64 7.68-1.841 1.938-3.339 4.676-4.8 6.72-2.187 3.061-4.463 6.142-6.48 8.88-0.582 0.789-0.883 1.708-1.44 2.4-0.254 0.315-0.894 0.389-1.2 0.72-0.791 0.855-2.249 2.432-2.4 3.36-0.285 1.752 1.064 4.038 1.44 5.76 1 4.581 1.619 10.963 3.6 15.12-1.068 4.79 2.708 9.072 2.64 14.16-0.021 1.563-0.681 3.076-0.48 4.561 0.299 2.214 1.886 4.142 2.16 6.239 0.859 0.678 1.38 1.756 1.92 2.641 1.759 2.882 3.686 5.556 4.08 9.6 1.503 2.354 2.545 6.288 3.12 9.84 0.229 1.417 0.682 3.368 0 4.561-2.833-0.848-1.159-6.201-3.12-7.92 0.312 3.081-0.466 4.972-0.72 7.2-0.427 3.744-1.865 8.503-0.96 11.76-0.942 0.092-0.378 1.208-0.48 1.68-0.387 1.797-0.333 3.333-0.48 5.28-0.203 2.683-0.696 5.566-0.72 8.399-0.013 1.518 0.414 3.032 0.48 4.561 0.174 4.037-0.509 8.236 0.72 12-0.709 3.291 0.014 6.272-0.24 9.12-0.129 1.45-0.776 2.448-0.48 3.84 0.486 2.286 1.818 4.662 1.2 7.2-2.926-0.514-1.818-5.062-2.64-7.681-2.484 2.224-6.302 5.617-9.36 7.44-1.615 0.963-2.528 2.234-3.84 3.12-0.682 0.46-1.649 0.519-2.4 0.96-1.243 0.73-3.983 4.091-4.08 4.8 0.019-0.137 0.437 0.562 0.48 0.72 0.395 1.425 0.017 2.363 0.72 3.12v2.16c2.044 3.716 5.264 6.256 8.16 9.12 1.862 4.139 5.228 7.937 4.56 13.2 3.768-2.262 7.545-3.082 12.48-1.92 0.232-0.489 0.922-0.519 1.68-0.48 1.952 1.007 3.988-0.089 6.24 0.48 1.908-1.372 3.396-3.164 5.04-4.801-0.293-1.093 0.659-0.941 0.48-1.92 2.637-2.245 3.686-5.944 5.28-9.359 0.697-1.494 1.651-2.837 2.16-4.08 0.472-1.153 0.243-3.888 2.4-3.36 0.468 1.119-1.279 2.825 0 4.08 0.779 0.177 1.084-0.457 1.44-0.96 0.728-1.031 1.385-3.726 1.92-5.52 0.804-2.699 1.619-5.514 2.16-8.16 0.372-0.428 0.66-0.94 0.96-1.44-0.256-1.936 0.852-3.044 1.2-4.08 0.55-1.636 0.495-3.563 0.96-5.279 0.22-0.812 0.706-1.546 0.96-2.4 0.434-1.461 0.698-2.451 1.2-3.6 1.667-3.818 2.943-7.79 3.6-12.24 0.12-0.813 0.626-1.628 0.72-2.4 0.167-1.386-0.057-2.216 0.24-3.6 0.531-2.479 0.145-4.221 0-6.72-0.156-2.705 0.504-5.658 0.72-8.641 0.22-3.045-0.376-6.189-0.24-9.12 0.064-1.371 0.551-2.91 0.48-4.319-0.016-0.324-0.446-0.939-0.48-1.2-0.173-1.344 0.179-2.737 0.24-4.08 0.183-4.021-0.356-8.314-0.24-12.48 0.228-8.173-0.127-17.29 0.48-25.68 0.125-1.733-0.068-2.771-0.24-4.08-0.553-4.216 0.085-9.421-0.24-13.68-0.458-5.997 0.218-11.223 0.24-16.56-3.178 0.126-7.039 1.735-8.88-0.72-0.304-3.013-1.01-5.365-0.96-8.16-2.67 1.01-4.821 2.539-7.44 3.6 0.127 1.08 1.299 1.831 1.68 2.88 1.162 3.2 1.093 8.109 1.92 13.2 0.12 0.736 0.553 1.354 0.72 2.16 0.42 2.031 0.35 4.311 0.72 6.24 0.341 1.779 1.167 3.249 1.2 4.8 0.042 1.973 0.241 3.764 0.24 5.76-1.737 0.502-1.502 2.978-3.6 3.119-1.269-2.101 1.317-2.441 1.68-4.319 0.159-0.822-0.394-2.617-0.48-4.08-0.208-3.556-1.256-6.319-0.96-8.88-1.075-2.687-1.408-6.494-1.92-9.12-0.261-1.335-0.051-2.729-0.24-4.08-0.772-5.525-5.083-9.187-6-15.12-1.394 1.042-3.091 0.385-4.8 1.2-0.771 1.75-2.462 2.066-3.36 3.6-0.744 1.27-0.868 3.393-1.68 5.04-0.292 0.593-0.974 0.887-1.2 1.44-1.162 2.842-0.243 6.511-3.12 6.96-1.255-0.666-2.654-1.187-2.88-2.88 0.164-0.716 0.956-0.804 1.92-0.72 0.986-0.061-0.049 2.753 0.96 1.92 1.2-0.398 0.764-1.36 0.72-2.64 1.045-3.594 2.697-6.583 3.84-10.08 0.906-0.614 1.691-1.349 2.16-2.4 1.255-0.402 0.995-1.374 2.16-2.16h2.88c0.744-0.457 0.938-1.463 1.92-1.68 5.809-0.069 8.972-4.504 13.68-5.76 3.999-1.066 8.464 1.049 13.92 0.24-0.605-3.19-0.323-6.67-0.72-9.84-0.444-3.551-2.386-6.811-2.64-10.56-2.742 1.738-3.842 5.118-6.96 6.48-1.908-0.427-1.889-1.736-2.4-3.36-0.192-0.612-0.613-1.39-0.72-1.92-0.531-2.645 0.308-5.568 0-8.16-0.411-3.452-2.665-6.063-6-6.48 0.312-0.319 0.316-0.893-0.24-0.96 0.206 0.836-0.377 0.832-0.48 0.24-0.416-1.714 2.338-1.169 3.36-0.72 1.606 0.706 2.881 3.564 3.84 4.32 0.337 1.457 1.056 3.03 1.2 5.04 0.254 3.553-0.503 7.881 1.68 9.6 1.712 0.162 2.689-3.399 4.32-3.36 1.274-3.045 4.035-4.605 5.52-7.44-1.863 0.442-3.163-1.16-5.76-0.72-0.571-0.333-1.213-0.902-1.92-1.2-1.547-0.653-3.692-0.408-4.32-1.92 0.021-0.779 1.431-0.169 1.2-1.2-0.251-5.001-1.634-9.372 0-13.2 0.367-0.859 1.202-1.184 1.68-1.92 0.604-0.932 1.045-1.949 1.68-2.88 0.66-0.968 1.355-1.825 1.68-2.88-4.755-0.301-11.226 0.117-16.32-0.96v0.717zm20.16 0.48c-0.086 1.085 1.597 1.421 0.48 2.16-1.183-0.657-2.251-1.428-3.12-2.4-0.416 2.064-2.137 2.823-2.64 4.8 1.558-0.037 3.1-0.06 3.36 1.2-0.349 0.371-1.229 0.211-1.92 0.24-0.229 0.447 0.719 0.802 0 0.96-0.951-0.009-1.148-0.772-1.68-1.2-4.545 2.611-1.991 10.205-2.16 15.84 1.173 0.255 1.916 1.071 3.12 1.44 1.232 0.377 2.5 0.014 3.84 0.24 1.626 0.274 3.213 1.317 4.8 1.68 2.034 0.465 2.428-1.149 3.84-1.92 1.196-0.654 2.729-0.671 3.6-1.2 1.308-0.794 2.802-2.856 3.12-4.08 0.154-0.595-0.043-1.544 0-2.16 0.253-3.625 1.138-6.354 0.24-8.88-0.441-1.243-1.549-1.606-2.16-2.4-0.188-0.243-0.085-0.745-0.24-0.96-0.947-1.319-1.652-2.773-2.16-3.84-0.117 0.682-0.751 0.849-1.439 0.96-0.386 0.734-0.578 1.662-1.681 1.68 0.037-0.597-0.377-0.743-0.479-1.2 0.149-0.731 1.291-0.469 1.439-1.2-2.983-0.46-5.655 0.146-8.16 0.24zm49.2 161.28c-0.664 0.029-0.824 0.458-0.48-0.24 2.49-0.155 5.321 1.046 7.439 1.439-1.07-4.421 0.176-10.888-0.239-16.319-0.042-0.547 0.064-1.22-0.48-1.681 0.838-2.129 0.096-5.114 0-7.68-0.044-1.18 0.161-2.387 0-3.6-0.2-1.512-0.333-3.48-1.439-4.32-0.338 0.868-0.376 2.593-0.721 4.08-0.288 1.244-0.842 3.814-2.159 3.12 1.958-8.134 2.271-17.887 3.6-26.16 0.752-4.684 0.604-9.48 1.439-14.16 0.266-1.483 0.851-2.688 0.961-4.08 0.487-6.163 1.229-10.572 1.199-16.32-0.599 1.698-2.503 2.162-3.6 3.36-0.655 0.716-0.57 2.177-1.92 2.16-0.216-0.424-0.579-0.701-0.72-1.2 0.984-1.126 1.771-2.663 3.12-3.84 0.46-0.402 1.227-0.44 1.68-0.96 1.009-1.157 1.863-3.74 2.64-6.24 0.761-2.448 1.811-5.07 2.16-6.96 0.244-1.323 0.674-2.794 0.72-3.84 0.05-1.125-0.704-2.05-0.24-3.12-1.534-0.945-2.709-2.25-3.84-3.6 0.057-1.475-1.371-2.401-1.92-3.6-0.727-1.587-0.756-3.312-1.68-4.56-1.472-1.987-3.541-2.016-6.24-3.36-0.312-1.047-1.195-1.524-1.439-2.64 0.565-0.074 0.446-0.833 1.199-0.72 0.753 0.607 0.821 1.899 2.16 1.92 0.381-3.651-1.714-6.069-2.88-8.88-0.284-0.356-0.906-0.374-1.2-0.72 0.481-1.366-1.818-2.018-1.68-3.84-1.372-0.627-1.802-2.199-2.88-3.12-0.564-2.829-2.354-5.327-2.88-7.44-1.299-0.563-1.825-2.143-3.12-2.88-0.711-0.404-1.888-0.315-2.64-0.72-0.94-0.506-1.039-1.236-1.921-1.68-0.981 1.738-2.73 2.38-4.079 3.84-2.557 2.766-3.138 7.095-5.761 9.6-0.907 2.585-0.924 5.426-1.68 8.16-0.23 0.833-0.949 1.564-1.2 2.4-0.545 1.816-0.252 4.11-1.92 5.28 0.14 1.6-0.299 2.26-1.2 2.4-0.965 0.15-1.339-1.292-2.399-1.92-1.298-0.768-3.479-1.006-4.561-1.44-0.374 8.812 0.422 16.702 0.48 23.28 1.808-0.064 2.613-1.455 4.08-2.16 2.27-1.092 6.812-2.297 9.12-2.4 0.029-0.001 0.64-0.464 0.72-0.48 2.886-0.569 5.496 0.601 8.16 0 0.339 0.669 1.122 0.706 1.68 0.96 0.501 0.229 1.101 0.725 1.68 0.96 0.953 0.386 2.3 0.178 3.12 0.96 0.494 0.471 0.631 1.492 0.96 2.4 0.957 2.634 1.369 5.554 2.4 8.16-1.958 0.94-0.34 2.973 0 5.28 0.229 1.556 0.044 3.157 0.24 4.32 0.448 2.667 1.183 5.489 1.439 8.4 0.267 3.008 0.234 6.027 0.48 8.16 0.716 6.218 0.812 11.456 1.68 16.56 1.135 6.673 1.354 13.743 1.92 19.2 0.202 1.946 0.335 2.601-1.2 3.36-1.56-1.841-0.891-4.306-0.96-6.48-0.058-1.846-0.611-3.602-0.72-5.52-0.045-0.801 0.28-1.82 0.24-2.641-0.098-1.96-0.566-4.283-0.96-6.479-0.354-1.971-0.779-4.064-0.96-6.24-0.194-2.332-0.584-4.715-0.721-6.96-0.267-4.398-0.199-7.904-0.479-11.76-0.141-1.928-0.747-3.663-0.96-5.52-0.063-0.549 0.333-1.174 0.24-1.68-0.108-0.584-0.611-1.058-0.721-1.68-0.375-2.148-0.122-4.558-0.479-6.72-0.159-0.961-0.602-1.763-0.721-2.64-0.346-2.558 0.093-5.018-0.72-7.44-0.738 0.701-1.891 0.989-3.12 1.2-0.863 0.736-1.312 1.889-2.64 2.16 0.077 1.114 1.146 1.571 1.44 2.64 0.757 2.76-0.407 6.004-3.36 6.48-2.573 0.414-4.124-1.604-6.48-0.72 1.505 1.274 1.278 2.629 1.44 5.04 0.132 1.96 0.523 4.338 0.479 6.24-0.086 3.798-0.992 7.736-0.96 11.28 0.098 0.462 0.931 0.189 0.721 0.96-0.936 1.333 0.221 2.706 0.479 3.84 0.114 0.497-0.078 1.175 0 1.68 0.407 2.614 1.472 5.32 1.681 7.92 0.269 3.353-0.345 6.962-0.24 10.8 0.062 2.279 0.111 4.515 0 6.96-0.205 4.514-1.695 9.921 1.2 13.2 2.081-1.553 4.57 0.045 6.479 0.72 0.271 2.45 1.927 3.665 2.64 5.52 0.221 0.573 0.278 1.503 0.48 2.16 0.55 1.789 1.492 3.47 0.479 4.801-1.105-1.055-2.025-2.295-2.88-3.601 0.214-0.427 0.671-0.609 0.48-1.439-1.726-2.675-2.444-6.356-6-7.2-1.208 0.959-2.559-0.143-4.08-0.24-0.651-2.309-0.413-4.527-0.96-6.72 1.149-2.652 0.243-6.567 0.479-9.36 0.062-0.728 0.457-1.464 0.48-2.16 0.112-3.392-0.168-7.072-0.24-10.56-0.041-1.979-0.244-3.682-0.479-5.28-0.107-0.726-0.122-1.493-0.24-2.16-0.477-2.692-1.453-5.201-1.68-7.2-0.072-0.635 0.272-1.288 0.239-1.92-0.029-0.567-0.412-1.103-0.479-1.68-0.601-5.12 1.696-9.974 0.72-15.84 0.211-0.771-0.791-0.329-0.72-0.96 0.98-0.82 0.633-2.391 0.479-3.84-1.428 0.492-3.521 0.319-4.56 1.2-1.123-1.166-2.515 0.236-3.84 0-0.952-0.169-1.265-0.521-2.16-1.2-0.2 0.68-1.475 0.286-1.92 0.72 1.102 4.892-0.025 11.024 0.72 15.12-1.21 7.215-0.354 15.796-0.479 22.08-0.028 1.41-0.538 2.932-0.48 4.319 0.12 2.877 1.207 3.973 2.16 5.761 0.812 1.524 1.964 3.332 2.16 4.56 0.532 3.338-2.4 4.218-3.36 5.76-0.146 1.935 0.474 4.634-0.72 5.521 0.694 5.416 0.255 11.308 0.479 17.28 0.263 6.942 1.136 13.967 0.721 20.64-0.1 1.601-0.414 2.549-0.48 3.6-0.064 1.026 0.395 2.224 0 3.36 0.47 1.995 2.381 2.509 2.88 4.08 0.256 0.807-0.122 1.968 0 3.12 0.264 2.478 1.458 5.281 1.681 7.439 0.477 4.632 1.981 8.717 2.399 12.96 0.068 0.688-0.17 1.721 0 2.4 0.358 1.435 1.961 3.485 3.12 4.8 1.816 2.061 4.671 3.671 5.521 5.76 0.248 0.611 0.446 2.259 0.72 3.601 0.62 3.045 0.414 5.112 1.2 7.2-0.518 0.202-0.388 1.053-0.721 1.439 0.581 1.5 0.759 3.401 1.44 4.8 2.755-0.312 5.444 0.831 7.2 1.44-0.242-0.003-0.302-0.421 0-0.48 0.208 0.592 0.559 1.041 1.439 0.96 1.624-0.436 2.288-1.666 3.84-1.92 1.067-0.174 2.313 0.463 3.841 0.721 1.511 0.255 2.669 0.13 4.079 0.72 0.896 0.408 0.381-0.142 1.2-0.24 0.579 0.382 1.275 0.646 1.92 0.96 0.891-0.417 1.392-1.001 2.641-0.479 0.574-1.002 0.789-0.915 2.16-0.96 0.332-0.147 0.036-0.924 0.479-0.96 2.179-0.373 4.175-2.422 6.48-3.601 0.913-0.467 1.945-0.454 2.64-1.2 4.82-0.792 7.761-0.628 11.52 0 0.432-0.447-0.627-1.44-0.72-2.159-1.224-0.051-1.597-0.734-2.399-1.681-2.668-0.027-4.477-2.007-6.96-1.439-0.242-0.639-1.177-0.584-1.44-1.2-2.644 0.727-6.009-1.127-8.64-1.92-0.894-0.946-2.084-1.597-2.881-2.641 0.22 1.138-0.224 2.123-0.239 3.12-0.029 1.856 0.988 3.712-0.48 4.561-1.849-1.797-1.052-6.447 0-8.641-0.532-4.528 1.315-9.105 0.48-14.159 1.479-4.518-0.134-10.877 0.239-15.36 0.033-0.393 0.473-0.782 0.48-1.2 0.009-0.449-0.432-0.608-0.48-1.2-0.041-0.503-0.023-3.767 0-3.84 0.053-0.155 0.495-0.184 0.48-0.479 0.003 0.068-0.432-0.323-0.48-0.721-0.498-4.112 0.281-8.611-0.72-12.72 0.098-0.462 0.931-0.189 0.72-0.96-0.24-2.853 0.453-5.214-0.479-7.2-0.61 1.756-2.26 1.873-4.08 1.92-1.301-2.731-3.653-1.888-5.52-3.84-0.27-3.402 1.231-6.852-0.24-9.6-0.421-0.786-1.207-1.104-1.681-1.681-1.328-1.615-0.979-2.19-1.439-4.56-0.086-0.443-0.446-0.827-0.48-1.2-0.141-1.553 0.267-3.131 0.24-4.56-0.045-2.422-0.897-6.88 1.44-7.681 0.377 1.467-0.375 2.509 0.479 3.601-0.905 3.561-0.391 7.491 0.24 12 0.896 1.624 2.701 2.235 3.12 4.32 0.603 2.997-1.407 6.641 0.24 9.119 0.31-1.13 0.94-1.94 1.2-3.12zm-59.52-135.36c0.043-0.523-0.196-0.764-0.72-0.72-0.043 0.523 0.197 0.763 0.72 0.72zm0 1.683c-0.253 1.39 1.04 0.1 0 0zm17.28 26.64c-0.104-5.19 0.181-9.981 0-14.88-0.138-3.716-1.098-4.593-2.4-6.96-0.78-1.418-1.36-2.553-1.68-4.08-0.307-0.013-0.333-0.308-0.72-0.24-0.46 0.968-1.307 1.407-1.68 2.4-1.073 2.855 0.559 5.651 1.44 7.68 1.607 3.699 1.322 9.358 1.44 12.72 0.775 0.664 0.989 1.891 1.44 2.88 0.946 0.574 0.446 2.594 1.92 2.64 0.98-0.42 0.253-1.5 0.24-2.16zm-5.28 0.24c-4.929 0.351-9.885-1.299-14.16-0.24-1.258 0.312-2.749 1.401-4.08 2.16-2.405 1.372-4.482 2.613-6.96 3.6 0.905 2.215 1.415 4.825 2.4 6.96 3.272-0.887 5.486-2.834 8.64-3.84 0.082-0.881-1.377-0.222-0.96-1.44 3.33-1.396 4.938 1.652 8.4 3.12 2.867 1.216 6.151 1.249 8.88 1.68-0.354-3.154 2.199-3.4 3.84-4.56-0.338-1.102-1.113-1.767-1.68-2.64 0.023-1.064-0.284-1.795-1.2-1.92 0.365 1.646-0.511 2.246 0.479 3.6-0.278 0.201-0.643 0.316-1.2 0.24-0.301-0.819-0.921-1.319-1.2-2.16 0.499-0.941 0.97-1.91 1.92-2.4-0.644-1.12-2.111-1.41-3.119-2.16zm4.8 3.36c0.611-0.029 0.931-0.35 0.96-0.96-0.753 0.267-0.634 0.112-1.2-0.24-0.198 0.67 0.339 0.62 0.24 1.2zm11.28 16.56c0.03-0.53 1.018-0.102 1.439-0.24-0.273-2.316 0.013-4.34 0.24-6.72 1.827-0.974 3.907-1.693 5.04-3.36 2.182-0.415 5.587-0.426 7.2 0.48 1.141-2.07 2.053-3.772 5.28-2.64 0.055-1.095-0.404-1.676-0.721-2.4-1.933-0.708-3.68-1.6-5.52-2.4-2.106 0.964-4.323-0.213-6.72 0-0.367 0.033-0.9 0.422-1.2 0.48-2.837 0.551-5.6 1.086-7.92 2.16-3.675 0.565-5.906 2.574-8.641 4.08-0.195 1.084-0.693 1.866-0.96 2.88 1.251 1.41 1.255 5.277 3.12 5.28 0.012-1.298-1.521-2.311-0.72-3.6 1.943 1.017 2.105 3.814 3.12 5.76 1.009-0.353 1.008-0.466 1.92 0 0.172-1.648-2.115-3.002-0.72-4.32 2.075 0.967 1.742 6.071 4.8 4.56-0.211-1.356-1.921-3.795-0.48-4.56 1.2 0.8 1.624 3.83 1.441 4.56zm-27.6-10.56c-0.25-0.234-1.859 0.209-2.4 0.48 1.68-0.16 0.473 2.567 1.2 3.36 0.472 1.128 0.316 2.884 0.72 4.08 5.131 2.22 13.814-3.663 14.88 2.88 0.192 1.183-0.342 1.773-0.48 3.12-0.182 1.774-0.138 4.004 0 6 0.999 14.399 0.7 32.872 1.68 46.8-0.499 0.658-0.837 1.306-0.96 2.16-0.558 3.861 1.207 9.341 0.96 13.2-0.04 0.625-0.024 1.595-0.72 1.92 2.162 5.47 0 14.507 0.96 22.08 0.116 0.922 0.115 1.451 0.72 2.16-0.75-0.11-0.768 0.513-0.72 1.2 0.907 1.98-0.281 5.042 0.479 7.439 0.13 0.85-0.85 0.59-0.72 1.44 0.758 2.374-0.08 4.711 0 6.96 0.054 1.515 0.644 2.856 0.72 4.319 0.099 1.882-0.284 3.834-0.24 5.761 0.025 1.063 0.475 2.312 0.48 3.359 0.019 3.103-0.659 5.515-0.72 8.16-0.059 2.501 0.047 4.546 0 6.72-0.028 1.262 0.462 2.519 0.479 3.84 0.012 0.895-0.435 1.857-0.479 2.881-0.042 0.956 0.323 1.981 0.239 2.88-0.094 1.007-0.65 1.889-0.72 2.88-0.053 0.746 0.253 1.675 0.24 2.399-0.082 4.653-1.566 9.409-1.2 14.4 0.066 0.903 0.593 1.938 0.72 2.88 0.531 3.929-0.408 9.217 2.88 11.04 4.271-3.051-0.743-10.012 1.44-15.12-1.757-1.403-0.977-3.123-0.96-5.52 0.025-3.672-0.435-9.602 0-13.44 0.118-1.041 0.621-1.913 0.72-2.88 0.056-0.536-0.251-1.114-0.239-1.68 0.018-0.915 0.42-1.965 0.479-2.88 0.371-5.667 0.399-10.488 0.72-14.88-0.376-0.731 1.466-0.408 0.48-0.961-0.537-4.18 0.249-8.959 0-13.92-0.195-3.873-2.021-10.533-0.24-13.68-0.306-9.807-0.888-20.143-0.96-31.2-0.016-2.369 0.117-4.868 0-7.2-0.185-3.664-0.831-7.291-0.72-10.8 0.033-1.047 0.434-2.07 0.479-3.12 0.067-1.524-0.214-3.029-0.239-4.56-0.072-4.31 0.414-8.876 0.479-13.44 0.099-6.873-0.319-14.077 0-21.12 0.059-1.279 0.307-2.549 0.24-3.84-0.102-1.959-0.923-3.794-0.96-5.76-3.168-0.432-3.198-4.002-4.56-6.24-4.741-0.93-10.692-1.68-14.157-4.56zm30.48 4.56c-0.067 0.812-0.382 1.378-0.24 2.4 2.976 0.584 8.757 4.469 10.8 1.68 1.391-1.898-0.443-4.91-1.199-6.96-4.686-1.06-6.174 1.8-9.36 2.88zm-21.6 4.8c0.872 2.173-0.454 3.974-0.72 6.24-0.4 3.404 0.352 7.433 0.48 10.56 0.2 4.906-0.124 8.67 0.24 12.72 0.231 2.57 0.83 4.454-0.24 6.24 0.608 3.166 0.207 6.429 0.24 9.84 0.08 8.26-0.357 17.071 0.48 24.479-0.865 1.978-0.702 5.101 0 7.2-0.611 0.853-0.612 1.19-0.72 1.92-0.676 4.57-0.025 9.296 0 13.44 0.039 6.462 0.258 13.029-0.72 18.72-0.455 2.645-1.37 5.246-2.16 7.681-0.574 1.767-1.036 3.898-1.68 5.52-0.253 0.638-0.807 1.099-0.96 1.68-0.087 0.331 0.138 1.252 0 1.681-0.415 1.282-1.479 2.326-1.92 3.6-0.584 1.687-0.854 3.515-1.2 5.04-0.348 1.535-0.664 3.17-0.72 4.8-0.899 0.283-0.719 1.454-0.96 2.16-0.773 2.266-1.713 4.774-1.92 7.68-1.248 1.232-1.878 3.082-2.16 5.28-1.039 0.081-0.839 1.401-1.92 1.44-0.787 0.553-1.643-0.485-2.88-0.24-1.252 2.428-2.663 4.697-3.6 7.439 3.589-1.181 6.064 1.808 9.12 2.641 1.757 2.301 2.582 4.829 6 4.8 4.564-0.039 8.921-4.702 12.48-5.76-0.081-3.113 1.78-6.533-0.48-7.92 0.548-0.332 1.498-0.263 1.44-1.2 0.133-5.335 0.796-9.262-0.24-13.68 0.671-1.625 0.463-3.72 0.48-5.761 0.018-2.154 0.442-4.234 0.479-6.479 0.064-3.802-0.926-7.751-0.239-11.521-0.799-0.32-1.668-0.572-1.44-1.92-0.179-0.979 1.555-0.046 1.2-1.2 0.063-3.141-0.338-6.301-0.48-9.6-0.108-2.492 0.55-4.434 0.72-6.24 0.183-1.949-0.443-4.458-0.48-6.96-0.039-2.607 0.152-6.011 0-9.359-0.171-3.768-0.058-7.966-0.72-10.32 0.739-3.064-0.137-6.354-0.24-9.6-0.143-4.51 0.012-10.108 0.24-13.681 0.241-3.776-0.208-7.337-0.24-11.04-0.112-12.661-0.917-27.664-0.96-39.12-0.273-1.006-1.866-0.694-2.64-1.2-0.023-0.377 0.032-0.832-0.48-0.72-0.146 0.013-0.284 0.036-0.24 0.24 0.368 0.05 0.035 0.39-0.24 0.48zm21.84 0.96c0.782 0.062 1.155-0.285 1.2-0.96-0.188-0.053-0.279-0.201-0.24-0.48h-1.2c-0.174 0.73 0.245 0.87 0.24 1.44zm-22.8 30h0.48v-0.48h-0.48v0.48zm12.48 26.88c-0.425 0.055-1.202-0.242-0.96 0.479 4.254 0.677 4.198-5.9 1.2-7.439-0.526 2.4 0.009 4.39-0.24 6.96zm1.92 0.72c0.004-0.396 0.666-0.135 0.72-0.48-0.265-0.58-1.244 0.37-0.72 0.48zm37.92 32.16c0.312-0.319 0.148-0.725-0.24-0.96-0.31 0.32-0.15 0.72 0.24 0.96zm0.72 0.48c-1.54-0.28-0.53 0.73 0 0zm4.8 1.68c0.265-0.844-0.307-2.068-0.72-1.44 0.58 0.13-0.11 1.55 0.72 1.44zm-29.52 70.8c-0.253-2.121 0.346-4.294 0-6.48-0.102-0.642-0.719-1.341-0.96-2.159-0.267-0.909-0.182-2.016-0.479-2.641-0.606-1.271-2.389-1.99-2.4-3.6-1.788-1.294-3.965-3.237-5.04-5.521-0.665-1.412-0.593-3.21-0.96-5.04-0.493-2.459-0.9-5.064-1.439-7.68-0.233-1.131-0.774-2.056-0.961-3.12-0.733-4.191-0.936-8.122-1.68-12-0.661-0.581-1.271 0.344-0.72 0 1.362 12.756-0.548 24.582-1.68 36.96-0.197 2.147 0.109 4.552 0 6.96-0.131 2.871-0.861 5.924 0.239 8.4 3.211-1.437 6.605-0.586 9.84 0.479 1.563-0.825 4.861-0.964 6.961-0.479 0.103-1.43-0.551-2.66-0.721-4.08zm-42 6c-0.518-0.432-1.435-0.316-2.16-0.72-0.283-0.158-0.454-0.781-0.72-0.96-1.846-1.242-3.662-1.764-6.24-1.681-1.762 3.279-3.61 6.471-6 9.12 5.512 1.456 13.738 1.006 17.04-2.399-0.417-0.96-0.94-2.55-1.92-3.36zm45.6 4.32c3.513 2.271 7.767 2.421 12.479 3.119 0.699 0.104 1.464 0.639 2.16 0.48 3.879-0.878 1.032-6.887-1.68-7.2-2.291-0.265-2.804 1.422-5.04 1.68-2.491-1.191-5.614-2.562-8.4-1.68-0.893-0.679-2.598-1.651-3.84-1.2 0.825 1.44 3.259 4.11 4.32 4.8z"></path> <path style="clip-rule:evenodd;fill-rule:evenodd" d="m100.08 228.83c1.598 0.241 3.033 0.646 4.319 1.199 1.558-1.732 4.077-0.227 6.24-0.72 1.965 1.234 5.424 0.977 5.04 4.56-0.49 0.23-0.949 0.491-1.44 0.721-1.077-0.202-1.429-1.132-2.399-1.44-0.801-0.001-0.819 0.781-1.68 0.72-1.393-0.194-1.859-0.945-3.36-0.479-0.348 0.292-0.321 0.958-0.96 0.96-1.437 0.156-1.526-1.034-2.4-1.44-0.849 0.793-1.926 2.082-3.359 0.96 0-1.35-0.388-3.38 0-5.04zm8.16 3.12h-0.479c-0.076-0.557 0.038-0.921 0.24-1.199-0.77-0.066-1.537 1.153-1.44 1.68 0.4-0.76 1.38-0.04 1.68-0.48zm1.92 0.48c0.214-0.774-0.783-0.337-0.961-0.72-0.07 0.63 0.33 0.78 0.96 0.72z"></path> <path style="clip-rule:evenodd;fill-rule:evenodd" d="m119.76 119.15c-2.458 0.561-3.126-1.922-5.28-1.92-1.425 0.001-2.312 1.52-3.84 2.4-2.989 1.721-6.397 2.327-9.36 0.48-0.03-0.43 0.294-0.506 0.24-0.96 0.842-0.722 1.357 0.42 2.16 0.48 1.991-0.483 4.065-0.532 5.76-1.44 1.616-0.866 2.54-2.577 4.08-3.36 1.538 0.222 2.976 0.544 3.601 1.68 1.3 0.45 2.96 0.56 2.64 2.64z"></path> <path style="clip-rule:evenodd;fill-rule:evenodd" d="m119.04 122.51c-3.309 0.268-3.448-2.632-5.04-4.08 1.163-1.965 1.998 0.203 3.12 1.44 0.86 0.94 2.43 1.6 1.92 2.64z"></path> <path style="clip-rule:evenodd;fill-rule:evenodd" d="m37.68 175.55c-0.07 2.409-1.652 3.308-1.68 5.76-0.41-0.011-0.622 0.179-0.72 0.48-1.618-1.503-3.635-2.605-6-3.36v-1.44c1.842-0.519 3.456 1.153 5.28 1.44 1.62-0.38 0.765-3.24 3.12-2.88z"></path> </g> <metadata></metadata></svg> 