<?xml version="1.0" encoding="UTF-8" standalone="no"?> <!-- Created with Inkscape (http://www.inkscape.org/) --> <svg xmlns:inkscape="http://www.inkscape.org/namespaces/inkscape" xmlns:rdf="http://www.w3.org/1999/02/22-rdf-syntax-ns#" xmlns="http://www.w3.org/2000/svg" xmlns:sodipodi="http://sodipodi.sourceforge.net/DTD/sodipodi-0.dtd" xmlns:cc="http://creativecommons.org/ns#" xmlns:xlink="http://www.w3.org/1999/xlink" xmlns:dc="http://purl.org/dc/elements/1.1/" xmlns:svg="http://www.w3.org/2000/svg" xmlns:ns1="http://sozi.baierouge.fr" id="svg2" sodipodi:docname="pixabella_Geisha_girl_anime.svg" inkscape:export-filename="/Users/ceejay/Documents/Websites/Pixabella/Artwork Showcase/Open Clip Art/Geisha Girl/pixabella_Geisha_girl_anime.png" viewBox="0 0 298.2 320.41" sodipodi:version="0.32" inkscape:export-xdpi="90" inkscape:output_extension="org.inkscape.output.svg.inkscape" inkscape:export-ydpi="90" inkscape:version="0.45+devel" sodipodi:docbase="/Users/ceejay/Documents/Websites/Pixabella/Banners"><defs id="defs4"><linearGradient id="linearGradient6914"><stop id="stop6916" style="stop-color:#0d9600" offset="0"></stop><stop id="stop9551" style="stop-color:#319e27;stop-opacity:.98039" offset=".5"></stop><stop id="stop6918" style="stop-color:#2fff1d;stop-opacity:.96078" offset="1"></stop></linearGradient><linearGradient id="linearGradient4556"><stop id="stop4558" style="stop-color:#c9d1c5" offset="0"></stop><stop id="stop6121" style="stop-color:#0dff29;stop-opacity:.98039" offset=".5"></stop><stop id="stop4560" style="stop-color:#57ff6e;stop-opacity:.96078" offset="1"></stop></linearGradient><filter id="filter4909" height="2.1294" width="1.8673" y="-.56472" x="-.43363" inkscape:collect="always"><feGaussianBlur id="feGaussianBlur4911" stdDeviation="3.6135444" inkscape:collect="always"></feGaussianBlur></filter><filter id="filter6426" height="1.2477" width="1.1428" y="-.12383" x="-.071389" inkscape:collect="always"><feGaussianBlur id="feGaussianBlur6428" stdDeviation="0.90236737" inkscape:collect="always"></feGaussianBlur></filter><linearGradient id="linearGradient8390" y2="48.62" xlink:href="#linearGradient4556" gradientUnits="userSpaceOnUse" x2="113.24" gradientTransform="matrix(1 0 0 1.0808 -1.1824 -4.8298)" y1="66.429" x1="111.34" inkscape:collect="always"></linearGradient><radialGradient id="radialGradient3813" xlink:href="#linearGradient6914" gradientUnits="userSpaceOnUse" cy="69.677" cx="63.649" gradientTransform="matrix(2.7608 -7.5715 3.6159 1.1816 -270.59 614.12)" r="10.04" inkscape:collect="always"></radialGradient><filter id="filter7578" height="1.8163" width="1.5623" y="-.40813" x="-.28116" inkscape:collect="always"><feGaussianBlur id="feGaussianBlur7580" stdDeviation="1.8638191" inkscape:collect="always"></feGaussianBlur></filter><filter id="filter7765" height="1.4578" width="3.289" y="-.22890" x="-1.1445" inkscape:collect="always"><feGaussianBlur id="feGaussianBlur7767" stdDeviation="0.84301018" inkscape:collect="always"></feGaussianBlur></filter><filter id="filter8082" height="1.7763" width="1.1481" y="-.38816" x="-.074035" inkscape:collect="always"><feGaussianBlur id="feGaussianBlur8084" stdDeviation="1.5631777" inkscape:collect="always"></feGaussianBlur></filter><radialGradient id="radialGradient2538" xlink:href="#linearGradient6914" gradientUnits="userSpaceOnUse" cy="69.677" cx="63.649" gradientTransform="matrix(-2.7608 -7.6403 -3.6159 1.1924 667.05 617.99)" r="10.04" inkscape:collect="always"></radialGradient></defs><g id="layer4" inkscape:label="face skintone" inkscape:groupmode="layer" transform="translate(-48.458 -16.155)"><path id="path3247" sodipodi:nodetypes="cssszzzzzzscccccsss" style="fill-rule:evenodd;stroke:#f5dac7;stroke-width:1px;fill:#f5e8de" d="m84.683 187.81c2.295 7.67 3.915 14.96 5.105 22.68 0.594 3.86 0.974 7.75 1.062 11.71 0.087 3.96-0.117 7.98-0.691 12.1-1.87 13.42 4.88 44.82 24.161 60.21 19.28 15.39 37.38 21.75 43.88 27.76s18.94 11.43 23.68 12.78c4.73 1.35 26.5 1.37 30.51-0.03 4.02-1.4 16.68-8.4 21.44-12.91 4.77-4.51 29.8-14.86 41.51-21.97s31.2-22.38 35.31-65.76c3.2-33.83 19.12-59.38 15.25-52.78l1.58 2.8c-14.66-43.24-26.41-39.05-32.43-47.16 0 0-23.96-11.07-42.91-6.86-28.46-3.74-36-8.31-65.02-6.45 0 0-35.6 4.95-53.32 5.18-58.598 0.75-39.248 16.78-40.798 21.17-7.453 21.11-13.918 18.81-8.319 37.53z"></path></g><g id="layer9" inkscape:label="eye whites" inkscape:groupmode="layer" transform="translate(-48.458 -16.155)"><path id="path4398" sodipodi:nodetypes="ccc" style="fill-rule:evenodd;stroke:#edcbb3;stroke-width:0.9;fill:#ffffff" d="m175.02 224.02s-14.36-52.04-67.82-32.23c0 0 10.43 42.25 67.82 32.23z"></path><path id="path2483" sodipodi:nodetypes="ccc" style="fill-rule:evenodd;stroke:#edcbb3;stroke-width:0.9;fill:#ffffff" d="m221.44 224.02s11.52-57.12 67.82-32.23c0 0-10.43 42.25-67.82 32.23z"></path></g><g id="layer8" inkscape:label="eyeshadow" inkscape:groupmode="layer" transform="translate(-48.458 -16.155)"><path id="path5792" sodipodi:nodetypes="cscsc" style="opacity:.66667;fill-rule:evenodd;filter:url(#filter6426);stroke:#4c2c10;stroke-width:.26283;fill:url(#linearGradient8390)" transform="matrix(-2.5355 -.40913 -.52591 1.9705 452.28 115)" d="m94.06 73.656s4.395-7.46 9-12.811c8.46-9.834 16.23-2.156 20.74 4.035 0 0-12.15-6.436-17.37-3.137-12.116 7.663-8.312 6.412-12.37 11.913z"></path><path id="path2481" d="m94.06 73.656s4.395-7.46 9-12.811c8.46-9.834 16.23-2.156 20.74 4.035 0 0-12.15-6.436-17.37-3.137-12.116 7.663-8.312 6.412-12.37 11.913z" sodipodi:nodetypes="cscsc" style="opacity:.66667;fill-rule:evenodd;filter:url(#filter6426);stroke:#4c2c10;stroke-width:.26283;fill:url(#linearGradient8390)" transform="matrix(2.5355 -.40913 .52591 1.9705 -55.816 115)"></path></g><g id="layer12" inkscape:label="eye green" inkscape:groupmode="layer" transform="translate(-48.458 -16.155)"><path id="path4402" sodipodi:nodetypes="csccc" style="fill-rule:evenodd;stroke:#112111;stroke-width:1px;fill:url(#radialGradient3813)" d="m167.12 207.83s-14.52 18.4-31.25 12.78c-23.91-8.03-19.17-30.88-19.17-30.88l1.17-0.4s37.17-8.13 49.25 18.5z"></path><path id="path2485" sodipodi:nodetypes="csccc" style="fill-rule:evenodd;stroke:#112111;stroke-width:1px;fill:url(#radialGradient2538)" d="m229.34 208s14.52 18.57 31.25 12.9c23.91-8.1 19.17-31.44 19.17-31.44l-1.17-0.12s-37.17-8.21-49.25 18.66z"></path></g><g id="layer7" inkscape:label="eye lines" inkscape:groupmode="layer" transform="translate(-48.458 -16.155)"><path id="path4242" style="stroke:#000000;stroke-width:1px;fill:none" d="m48.958 154.76z"></path><g id="g5824" transform="matrix(1.8923 -.47006 .55089 1.593 -30.177 111)"><path id="path6150" sodipodi:nodetypes="ccc" style="fill-rule:evenodd;stroke:#000000;stroke-width:.33163;fill:#000000" d="m80.857 94.198s2.658-33.175-26.259-28.177c0 0 24.486 1.179 26.259 28.177z"></path><path id="path6152" sodipodi:nodetypes="ccc" style="fill-rule:evenodd;stroke:#000000;stroke-width:.44217;fill:#000000" d="m47.708 60.426s1.27 8.867 8.727 5.371c0 0-7.285 2.712-8.727-5.371z"></path><path id="path6154" sodipodi:nodetypes="ccc" style="fill-rule:evenodd;stroke:#000000;stroke-width:.44217;fill:#000000" d="m50.842 61.944s0.454 6.726 6.784 3.688c0 0-6.138 2.429-6.784-3.688z"></path><path id="path6156" sodipodi:nodetypes="ccc" style="fill-rule:evenodd;stroke:#000000;stroke-width:.44217;fill:#000000" d="m53.541 62.162s-1.048 4.857 4.892 3.87c0 0-5.65 0.591-4.892-3.87z"></path></g><g id="g2487" transform="matrix(-1.8879 -.48734 -.56542 1.5879 427.48 112.5)"><path id="path2489" sodipodi:nodetypes="ccc" style="fill-rule:evenodd;stroke:#000000;stroke-width:.33163;fill:#000000" d="m80.857 94.198s3.386-33.272-26.259-28.177c0 0 24.918 0.992 26.259 28.177z"></path><path id="path2491" sodipodi:nodetypes="ccc" style="fill-rule:evenodd;stroke:#000000;stroke-width:.44217;fill:#000000" d="m47.708 60.426s1.27 8.867 8.727 5.371c0 0-7.285 2.712-8.727-5.371z"></path><path id="path2493" sodipodi:nodetypes="ccc" style="fill-rule:evenodd;stroke:#000000;stroke-width:.44217;fill:#000000" d="m50.842 61.944s0.454 6.726 6.784 3.688c0 0-6.138 2.429-6.784-3.688z"></path><path id="path2495" sodipodi:nodetypes="ccc" style="fill-rule:evenodd;stroke:#000000;stroke-width:.44217;fill:#000000" d="m53.541 62.162s-1.048 4.857 4.892 3.87c0 0-5.65 0.591-4.892-3.87z"></path></g></g><g id="layer11" inkscape:label="eye black" inkscape:groupmode="layer" transform="translate(-48.458 -16.155)"><path id="path4404" sodipodi:nodetypes="csscsc" style="fill-rule:evenodd;stroke:#000000;stroke-width:1px;fill:#000000" d="m163.84 203.04s-6.06 6.95-12.01 9.43c-5.88 2.46-12.49 2.63-17.6 0.38-19.75-8.67-11.01-23.57-11.01-23.57s-0.9-0.03 1.55-0.19c10.59-0.71 20.05-1.99 39.07 13.95z"></path><path id="path2497" sodipodi:nodetypes="csscsc" style="fill-rule:evenodd;stroke:#000000;stroke-width:1px;fill:#000000" d="m232.62 203.04s6.06 6.95 12.01 9.43c5.89 2.46 12.49 2.63 17.6 0.38 19.75-8.67 11.01-23.57 11.01-23.57s0.91-0.03-1.55-0.19c-10.59-0.71-20.05-1.99-39.07 13.95z"></path></g><g id="layer10" inkscape:label="eye glare spots" inkscape:groupmode="layer" transform="translate(-48.458 -16.155)"><path id="path6098" sodipodi:rx="2.4107144" sodipodi:ry="2.4107144" style="fill:#ffffff" sodipodi:type="arc" d="m118.04 66.875a2.4107 2.4107 0 1 1 -4.83 0 2.4107 2.4107 0 1 1 4.83 0z" transform="matrix(1.617 -.26923 .33235 1.4362 -77.678 129.86)" sodipodi:cy="66.875" sodipodi:cx="115.625"></path><path id="path2499" sodipodi:rx="2.4107144" sodipodi:ry="2.4107144" style="fill:#ffffff" sodipodi:type="arc" d="m118.04 66.875a2.4107 2.4107 0 1 1 -4.83 0 2.4107 2.4107 0 1 1 4.83 0z" transform="matrix(-1.617 -.26923 -.33235 1.4362 476.14 127.86)" sodipodi:cy="66.875" sodipodi:cx="115.625"></path></g><g id="layer17" inkscape:label="eyebrows" inkscape:groupmode="layer" transform="translate(-48.458 -16.155)"><path id="path6943" sodipodi:nodetypes="ccc" style="fill-rule:evenodd;stroke:#090000;stroke-width:0.6;fill:#191919" d="m180.39 194.27s-23.4-54.33-76.93-23.38c0 0 55.04-24.75 76.93 23.38z"></path><path id="path7358" sodipodi:nodetypes="ccc" style="fill-rule:evenodd;stroke:#090000;stroke-width:0.6;fill:#191919" d="m212.68 195.43s23.4-54.34 76.93-23.38c0 0-55.04-24.75-76.93 23.38z"></path></g><g id="layer14" inkscape:label="nose" inkscape:groupmode="layer" transform="translate(-48.458 -16.155)"><path id="path4444" sodipodi:nodetypes="cc" style="stroke:#edcbb3;stroke-width:1.3;fill:none" d="m209.52 264.84s-9.99 15.41-25.67 0.5"></path></g><g id="layer15" inkscape:label="mouth" inkscape:groupmode="layer" transform="translate(-48.458 -16.155)"><path id="path7849" sodipodi:nodetypes="cssczzzszzzzs" style="stroke:#710e27;stroke-width:1.1;fill:#800000" d="m212.7 303.56c-6.09 11.02-13.15 9.07-17.27 9.37-1.55 0.11-10.66 2.06-16.82-9.37-1.99-3.71-10.88-9.71-9.92-9.6s2.11 0.3 3.72 0.37c1.61 0.06 3.14 0.09 5.72-0.18s6.04-2.12 8.86-2.4c2.83-0.28 5.73 3.06 8.61 3.12 5.77 0.12 4.64-3.28 8.34-3.12s6.89 2.41 8.73 2.4c1.84-0.02 3.96 0.23 5.64 0.18 1.68-0.06 2.8-0.05 4.33-0.37 1.52-0.32-7.38 4.95-9.94 9.6z"></path><path id="path7396" sodipodi:rx="7.9549513" sodipodi:ry="5.4800777" style="opacity:.20635;filter:url(#filter7578);fill:#ff80b2" sodipodi:type="arc" d="m46.669 296.79a7.955 5.4801 0 1 1 -15.91 0 7.955 5.4801 0 1 1 15.91 0z" transform="matrix(1.8222 0 0 .85174 124.18 53.856)" sodipodi:cy="296.79022" sodipodi:cx="38.714096"></path><rect id="rect7582" style="opacity:.46154;filter:url(#filter7765);fill:#890410" height="8.8388" width="1.7678" y="303.18" x="194.52"></rect><path id="path7769" sodipodi:nodetypes="ccssc" style="opacity:.43787;stroke-opacity:0;fill:none" d="m166.44 292.93l14.5 7.07s7.42-1.42 14.14 1.41c4.43 1.87 10.6-3.18 14.49-1.77 3.89 1.42 13.79-6.71 13.79-6.71"></path><path id="path7777" sodipodi:rx="7.9549513" sodipodi:ry="5.4800777" style="opacity:.20635;filter:url(#filter7578);fill:#ff80b2" sodipodi:type="arc" d="m46.669 296.79a7.955 5.4801 0 1 1 -15.91 0 7.955 5.4801 0 1 1 15.91 0z" transform="matrix(.84859 .12439 -.097299 .66375 184.35 95.011)" sodipodi:cy="296.79022" sodipodi:cx="38.714096"></path><path id="path7779" sodipodi:rx="7.9549513" sodipodi:ry="5.4800777" style="opacity:.20635;filter:url(#filter7578);fill:#ff80b2" sodipodi:type="arc" d="m46.669 296.79a7.955 5.4801 0 1 1 -15.91 0 7.955 5.4801 0 1 1 15.91 0z" transform="matrix(1.0467 .12817 -.070448 .57531 184.57 121.22)" sodipodi:cy="296.79022" sodipodi:cx="38.714096"></path><path id="path7784" sodipodi:nodetypes="cccccz" style="filter:url(#filter8082);stroke:#b61454;stroke-width:0.7;fill:none" d="m178.88 299.46c6.16 6 15.14 3.13 18.01 3.07 5.44-0.16 9.36 2.37 16.27-4.23 5.94-5.68 3.68-1.62 6.51-3.54m-40.79 4.7c-4.37-3.13-1.5 0.06-9.18-5.16"></path></g><g id="layer13" inkscape:label="blush" inkscape:groupmode="layer" transform="translate(-48.458 -16.155)"><path id="path4913" sodipodi:rx="10" sodipodi:ry="7.6785712" style="opacity:.528;filter:url(#filter4909);fill:#fb96be" sodipodi:type="arc" d="m191.07 76.964a10 7.6786 0 1 1 -20 0 10 7.6786 0 1 1 20 0z" transform="matrix(1.7258 0 0 2.2945 -191.34 93.329)" sodipodi:cy="76.964287" sodipodi:cx="181.07143"></path><path id="path9438" sodipodi:rx="10" sodipodi:ry="7.6785712" style="opacity:.528;filter:url(#filter4909);fill:#fb96be" sodipodi:type="arc" d="m191.07 76.964a10 7.6786 0 1 1 -20 0 10 7.6786 0 1 1 20 0z" transform="matrix(1.4125 .99153 -1.3182 1.878 120.01 -49.519)" sodipodi:cy="76.964287" sodipodi:cx="181.07143"></path></g><g id="layer2" inkscape:label="hair" inkscape:groupmode="layer" transform="translate(-48.458 -16.155)"><path id="path8408" style="stroke:#262323;stroke-linecap:square;stroke-width:3.1;fill:#000000" d="m237.8 18.149c-15.65-1.742-30.38 1.746-41.36 8.736-6.64-3.196-14.18-5.404-22.27-6.304-30.4-3.383-57.27 12.932-60.03 36.403s19.63 45.236 50.02 48.616c15.66 1.74 30.38-1.74 41.36-8.736 6.64 3.196 14.17 5.436 22.27 6.336 30.39 3.38 57.27-12.93 60.03-36.401s-19.63-45.268-50.02-48.65z"></path><g id="g8617"><g id="g8597" transform="translate(-.0000036690)"><path id="path12543" sodipodi:rx="26.516504" sodipodi:ry="26.516504" style="stroke-linejoin:round;fill-rule:evenodd;stroke:#7f1e17;stroke-linecap:round;stroke-width:8.5001;fill:#bc0e0e" sodipodi:type="arc" d="m489.32 257.57a26.517 26.517 0 1 1 -53.04 0 26.517 26.517 0 1 1 53.04 0z" transform="matrix(.47058 0 0 .47058 -80.906 -65.023)" sodipodi:cy="257.57416" sodipodi:cx="462.80139"></path><path id="path13499" sodipodi:rx="50" sodipodi:ry="38" style="fill-rule:evenodd;fill:#fa4040" sodipodi:type="arc" d="m198 186.36a50 38 0 1 1 -0.01 -0.88" sodipodi:open="true" transform="matrix(.15413 0 0 .20280 114.07 15.772)" sodipodi:cy="186.36218" sodipodi:cx="148" sodipodi:end="6.2600116" sodipodi:start="0"></path></g><g id="g8601" transform="translate(-.0000056417)"><path id="path9178" sodipodi:rx="26.516504" sodipodi:ry="26.516504" style="stroke-linejoin:round;fill-rule:evenodd;stroke:#7f1e17;stroke-linecap:round;stroke-width:8.5001;fill:#bc0e0e" sodipodi:type="arc" d="m489.32 257.57a26.517 26.517 0 1 1 -53.04 0 26.517 26.517 0 1 1 53.04 0z" transform="matrix(.47058 0 0 .47058 -30.96 -77.897)" sodipodi:cy="257.57416" sodipodi:cx="462.80139"></path><path id="path9180" sodipodi:rx="50" sodipodi:ry="38" style="fill-rule:evenodd;fill:#fa4040" sodipodi:type="arc" d="m198 186.36a50 38 0 1 1 -0.01 -0.88" sodipodi:open="true" transform="matrix(.15413 0 0 .20280 164.02 2.8987)" sodipodi:cy="186.36218" sodipodi:cx="148" sodipodi:end="6.2600116" sodipodi:start="0"></path></g><g id="g8593" transform="translate(-.0000096553)"><path id="path9184" sodipodi:rx="26.516504" sodipodi:ry="26.516504" style="stroke-linejoin:round;fill-rule:evenodd;stroke:#7f1e17;stroke-linecap:round;stroke-width:8.5001;fill:#bc0e0e" sodipodi:type="arc" d="m489.32 257.57a26.517 26.517 0 1 1 -53.04 0 26.517 26.517 0 1 1 53.04 0z" transform="matrix(.47058 0 0 .47058 -55.933 -75.897)" sodipodi:cy="257.57416" sodipodi:cx="462.80139"></path><path id="path9186" sodipodi:rx="50" sodipodi:ry="38" style="fill-rule:evenodd;fill:#fa4040" sodipodi:type="arc" d="m198 186.36a50 38 0 1 1 -0.01 -0.88" sodipodi:open="true" transform="matrix(.15413 0 0 .20280 139.04 4.8987)" sodipodi:cy="186.36218" sodipodi:cx="148" sodipodi:end="6.2600116" sodipodi:start="0"></path></g><g id="g8605" transform="translate(-.000021128)"><path id="path9190" sodipodi:rx="26.516504" sodipodi:ry="26.516504" style="stroke-linejoin:round;fill-rule:evenodd;stroke:#7f1e17;stroke-linecap:round;stroke-width:8.5001;fill:#bc0e0e" sodipodi:type="arc" d="m489.32 257.57a26.517 26.517 0 1 1 -53.04 0 26.517 26.517 0 1 1 53.04 0z" transform="matrix(.47058 0 0 .47058 -5.987 -77.897)" sodipodi:cy="257.57416" sodipodi:cx="462.80139"></path><path id="path9192" sodipodi:rx="50" sodipodi:ry="38" style="fill-rule:evenodd;fill:#fa4040" sodipodi:type="arc" d="m198 186.36a50 38 0 1 1 -0.01 -0.88" sodipodi:open="true" transform="matrix(.15413 0 0 .20280 188.99 2.8987)" sodipodi:cy="186.36218" sodipodi:cx="148" sodipodi:end="6.2600116" sodipodi:start="0"></path></g><g id="g8609" transform="translate(-.000017614)"><path id="path9196" sodipodi:rx="26.516504" sodipodi:ry="26.516504" style="stroke-linejoin:round;fill-rule:evenodd;stroke:#7f1e17;stroke-linecap:round;stroke-width:8.5001;fill:#bc0e0e" sodipodi:type="arc" d="m489.32 257.57a26.517 26.517 0 1 1 -53.04 0 26.517 26.517 0 1 1 53.04 0z" transform="matrix(.47058 0 0 .47058 18.986 -75.897)" sodipodi:cy="257.57416" sodipodi:cx="462.80139"></path><path id="path9198" sodipodi:rx="50" sodipodi:ry="38" style="fill-rule:evenodd;fill:#fa4040" sodipodi:type="arc" d="m198 186.36a50 38 0 1 1 -0.01 -0.88" sodipodi:open="true" transform="matrix(.15413 0 0 .20280 213.96 4.8987)" sodipodi:cy="186.36218" sodipodi:cx="148" sodipodi:end="6.2600116" sodipodi:start="0"></path></g><g id="g8613" transform="translate(-.000014601)"><path id="path9202" sodipodi:rx="26.516504" sodipodi:ry="26.516504" style="stroke-linejoin:round;fill-rule:evenodd;stroke:#7f1e17;stroke-linecap:round;stroke-width:8.5001;fill:#bc0e0e" sodipodi:type="arc" d="m489.32 257.57a26.517 26.517 0 1 1 -53.04 0 26.517 26.517 0 1 1 53.04 0z" transform="matrix(.47058 0 0 .47058 43.959 -65.023)" sodipodi:cy="257.57416" sodipodi:cx="462.80139"></path><path id="path9204" sodipodi:rx="50" sodipodi:ry="38" style="fill-rule:evenodd;fill:#fa4040" sodipodi:type="arc" d="m198 186.36a50 38 0 1 1 -0.01 -0.88" sodipodi:open="true" transform="matrix(.15413 0 0 .20280 238.93 15.772)" sodipodi:cy="186.36218" sodipodi:cx="148" sodipodi:end="6.2600116" sodipodi:start="0"></path></g></g><path id="path8244" sodipodi:nodetypes="csscsss" style="stroke:#262323;stroke-linecap:square;stroke-width:3.1;fill:#000000" d="m88.316 198.18c2.78-12.91-2.094-29.02 14.624-47.83 16.72-18.82 38.75-16.59 33.33-22.65-13.6-15.22-8.22-49.039-2.66-66.327-35.702 6.7-50.144 14.537-62.456 27.188-17.545 18.029-19.666 48.579-16.605 63.589 6.985 34.25 32.009 54.2 33.767 46.03z"></path><path id="path8239" sodipodi:nodetypes="cssssss" style="stroke:#262323;stroke-linecap:square;stroke-width:3.1;fill:#000000" d="m260.61 131.85c-15.79 9.29-37.6 15.04-61.69 15.04-24.08 0-45.89-5.75-61.68-15.04s-15.79-63.276 0-72.566c15.79-9.289 37.6-15.037 61.68-15.037 24.09 0 45.9 5.748 61.69 15.037 15.79 9.29 15.79 63.276 0 72.566z"></path><path id="path9440" sodipodi:nodetypes="csscsss" style="stroke:#262323;stroke-linecap:square;stroke-width:3.1;fill:#000000" d="m310.17 200.18c-2.78-12.91 2.1-29.02-14.62-47.83-16.72-18.82-38.75-16.59-33.33-22.65 13.6-15.22 8.22-49.039 2.66-66.327 35.7 6.7 50.14 14.537 62.45 27.188 17.55 18.029 19.67 48.579 16.61 63.589-6.99 34.25-32.01 54.2-33.77 46.03z"></path></g><g id="layer5" inkscape:label="ears" inkscape:groupmode="layer" transform="translate(-48.458 -16.155)"><path id="path9436" style="stroke-linejoin:round;fill-rule:evenodd;stroke:#f5dac7;stroke-linecap:round;stroke-width:1.3;fill:#f5e8de" d="m91.885 197.78c-1.037-1.37-1.922-1.69-3.81-3.13-3.777-2.88-9.071-4.61-15.143 0.03-10.521 8.03-7.197 22.6 0.852 33.12 6.242 8.15 12.65 15.16 17.498 20.12" inkscape:transform-center-x="0.77765034" inkscape:transform-center-y="5.8633691" sodipodi:nodetypes="cssss"></path><path id="path13249" style="stroke-linejoin:round;fill-rule:evenodd;stroke:#f5dac7;stroke-linecap:round;stroke-width:1.3;fill:#f5e8de" d="m308.11 201.58s8.68-16.17 20.35-6.9c10.11 8.03 7.82 22.7 0.08 33.22-6 8.15-15.58 15.61-20.24 20.58" sodipodi:nodetypes="csss" inkscape:transform-center-y="5.8633691" inkscape:transform-center-x="-0.74725269"></path></g><metadata></metadata></svg> 