<?xml version="1.0" encoding="UTF-8" standalone="no"?> <!-- Created with Inkscape (http://www.inkscape.org/) --> <svg xmlns:rdf="http://www.w3.org/1999/02/22-rdf-syntax-ns#" xmlns="http://www.w3.org/2000/svg" xmlns:cc="http://web.resource.org/cc/" xmlns:dc="http://purl.org/dc/elements/1.1/" xmlns:svg="http://www.w3.org/2000/svg" xmlns:inkscape="http://www.inkscape.org/namespaces/inkscape" xmlns:sodipodi="http://sodipodi.sourceforge.net/DTD/sodipodi-0.dtd" xmlns:ns1="http://sozi.baierouge.fr" xmlns:xlink="http://www.w3.org/1999/xlink" id="svg2780" viewBox="0 0 250 291.62" inkscape:version="0.91 r13725"><g id="layer1" transform="translate(-127.85 -824.57)"><path id="path3282" style="fill-rule:evenodd;stroke:#000000;stroke-width:2;fill:#ffffff" d="m129.67 825.57l4.49 188.63c3.21 134.7 234.77 134.7 237.98 0l4.49-188.63h-246.96z"></path><path id="path26724" style="fill-rule:evenodd;fill:#000000" d="m-71.268 41.937l-8.765-26.939-27.717 5.878 18.951-21.06-18.951-21.061 27.717 5.878 8.765-26.939 8.766 26.939 27.713-5.878-18.948 21.061 18.948 21.06-27.713-5.878-8.766 26.939z" transform="translate(250.77 913.48)"></path><path id="path27695" style="fill-rule:evenodd;fill:#000000" d="m-71.268 41.937l-8.765-26.939-27.717 5.878 18.951-21.06-18.951-21.061 27.717 5.878 8.765-26.939 8.766 26.939 27.713-5.878-18.948 21.061 18.948 21.06-27.713-5.878-8.766 26.939z" transform="translate(398.07 913.48)"></path><path id="path29736" style="fill-rule:evenodd;fill:#000000" d="m125.31 0.03125c-9.39 107.13-39.12 168.79-114.15 218.03 30.713 95.44 197.56 95.44 228.28 0-75.04-49.24-104.73-110.9-114.13-218.03z" transform="translate(127.85 825.53)"></path><path id="path27703" style="fill-rule:evenodd;fill:#ffffff" d="m-71.268 41.937l-8.765-26.939-27.717 5.878 18.951-21.06-18.951-21.061 27.717 5.878 8.765-26.939 8.766 26.939 27.713-5.878-18.948 21.061 18.948 21.06-27.713-5.878-8.766 26.939z" transform="translate(324.12 1031.8)"></path></g><metadata></metadata></svg> 