<?xml version="1.0" encoding="UTF-8" standalone="no"?> <!-- Created with Inkscape (http://www.inkscape.org/) --> <svg xmlns:rdf="http://www.w3.org/1999/02/22-rdf-syntax-ns#" xmlns="http://www.w3.org/2000/svg" xmlns:cc="http://web.resource.org/cc/" xmlns:xlink="http://www.w3.org/1999/xlink" xmlns:dc="http://purl.org/dc/elements/1.1/" xmlns:svg="http://www.w3.org/2000/svg" xmlns:inkscape="http://www.inkscape.org/namespaces/inkscape" xmlns:sodipodi="http://sodipodi.sourceforge.net/DTD/sodipodi-0.dtd" xmlns:ns1="http://sozi.baierouge.fr" id="svg2780" viewBox="0 0 217.29 254.52" inkscape:version="0.91 r13725"><g id="layer1" transform="translate(-15.189 -811.98)"><path id="path3282" style="fill-rule:evenodd;stroke:#000000;stroke-width:2;fill:#2369c1" d="m16.189 812.98l3.914 164.43c2.796 117.49 204.66 117.49 207.46 0l3.91-164.43h-215.28z"></path><use id="use5304" xlink:href="#g5298" transform="matrix(-1 0 0 1 247.66 0)" height="248.03149" width="248.03149" y="0" x="0"></use><g id="g5298" transform="translate(-294.22 14.096)"><rect id="rect3336" style="fill-rule:evenodd;color:#000000;stroke:#000000;stroke-width:1px;fill:#ffffff" transform="rotate(-35.311)" height="149.01" width="14.204" y="881.12" x="-193.31"></rect><rect id="rect3338" style="fill-rule:evenodd;color:#000000;stroke:#000000;stroke-width:1px;fill:#ffffff" transform="rotate(-35.311)" rx="4.1739" ry="4.1739" height="8.3478" width="18.814" y="872.77" x="-195.61"></rect><path id="path3340" style="fill-rule:evenodd;stroke:#000000;stroke-width:1px;fill:#ffffff" d="m394.15 890.88l-5.18 3.66-9.17-12.94-5.89 4.18 9.16 12.94-23.29 16.5-16.6-23.44 9.49-6.72 8.15 11.5 5.03-3.56-8.15-11.51 8.77-6.21-3.26-4.6-8.77 6.21-8.14-11.5-5.04 3.56 8.15 11.51-9.49 6.72-16.6-23.44 23.29-16.5 9.17 12.94 5.89-4.17-9.16-12.94 5.17-3.67 36.47 51.48z"></path><path id="path2256" style="fill-rule:evenodd;color:#000000;stroke:#000000;stroke-width:1px;fill:#ffffff" d="m487.76 1010.8c8.54-6.1 11.76-23.84 4.75-34.13 13.21-19.6-12.58-52.63-37.73-29.2-0.56-1.69-0.69-2.79-1.09-3.98-0.4-1.16-1.97-2.38-3.68-1.07-4.52 3.49-9.09 7.37-14.18 10.05-1.92 1.01-1.18 3.06-0.21 3.82 0.98 0.78 1.97 1.27 3.39 2.35-30.45 15.95-7.85 51.26 15.02 45.26 7.39 10.1 25.2 12.9 33.73 6.9zm-28.28-21.47c0.99 0.46-1.05 3.73 3.23 9.76 4.27 6.01 12.75 7.41 18.93 3.01 6.17-4.37 7.71-12.81 3.43-18.85-4.27-6.04-7.85-4.95-7.98-6.3-0.12-1.34 3.6-0.94 6.69-7.66s0.02-14.74-6.86-17.9c-6.87-3.16-14.96-0.27-18.05 6.45s-0.18 9.53-1.28 10.31c-1.34 0.95-2.79-2.89-10.16-2.21-7.36 0.69-12.77 7.36-12.07 14.89s7.25 13.09 14.61 12.41c7.37-0.69 8.52-4.36 9.51-3.91z"></path></g></g><metadata></metadata></svg> 