<?xml version="1.0" encoding="UTF-8" standalone="no"?> <!-- Generator: Adobe Illustrator 13.0.2, SVG Export Plug-In . SVG Version: 6.00 Build 14948) --> <svg xmlns:rdf="http://www.w3.org/1999/02/22-rdf-syntax-ns#" xmlns="http://www.w3.org/2000/svg" xmlns:cc="http://web.resource.org/cc/" xmlns:xlink="http://www.w3.org/1999/xlink" xmlns:dc="http://purl.org/dc/elements/1.1/" xmlns:svg="http://www.w3.org/2000/svg" xmlns:inkscape="http://www.inkscape.org/namespaces/inkscape" xmlns:sodipodi="http://sodipodi.sourceforge.net/DTD/sodipodi-0.dtd" xmlns:ns1="http://sozi.baierouge.fr" id="Layer_1" style="enable-background:new 0 0 112.559 183.359" xml:space="preserve" viewBox="0 0 112.559 183.359" y="0px" x="0px"> <path d="m70.192 15.757c0.184-0.909 0.607 0.305 0.479 0.955-0.182 0.91-0.608-0.304-0.479-0.955z"></path> <path d="m59.688 15.757c-1.049 1.459-3.059-0.55 0 0z"></path> <path d="m27.695 16.712c-1.448 1.766-1.609-1.45 0 0z"></path> <path d="m27.695 31.993c2.146-1.185 0.539 2.839 0.955 5.252-2.177 0.178 1.196-3.737-1.433-3.82-0.255-0.688 1.861-1.165 0.478-1.432z"></path> <path d="m106.48 42.975c-0.249 0.707-0.707 1.203-0.955 1.91-1-0.15-0.1-2.263 0.96-1.91z"></path> <path d="m46.317 90.725c0.602 0.118 0.482 0.949 0 0.955 0.306 4.359-1.303 0.509 0-0.955z"></path> <path d="m72.581 27.695c-1.584 1.31 2.61 0.858 2.387 2.389 0.135-1.617 1.583-1.919 2.865-2.389-0.209-0.708-0.611 0.188-1.434 0 1.917-1.281 1.281-5.2-0.478-6.685-1.247 0.821 0.674 2.473 0 4.298-1.982-1.231 0.951-4.981-2.865-4.774-0.411-1.977-1.281-3.494-1.432-5.73 1.395 0.992 1.408 3.367 1.91 5.253 1.494-1.002 1.533-0.695 3.818-0.478 0.233-1.508-0.859-1.688-0.478-3.344 1.347 0.505 0.596 1.893 2.388 0.955-0.761-1.148-1.303-2.517-2.865-2.864 1.354-0.683 0.342-3.236 0.479-4.298 0.026-0.207 0.92-1.105 0.955-0.954-0.701-2.984-3.613-2.628-5.251-5.253 5.303-1.94 6.088 4.287 8.117 7.163 1.391-0.669-0.848-1.645-0.479-2.864 8.491-2.95 15.173 3.831 16.712 10.981 0.902-0.053 0.332-1.579 1.435-1.433 7.055 1.857 11.981 5.844 10.981 15.757 0.33 1.898 2.101 2.357 2.864 3.82 1.181 3.796-0.991 7.514-1.434 11.46-0.295 2.631 0.714 5.165 0 8.117-0.809 3.354-3.538 5.917-4.774 8.595 0.502 5.458-2.128 10.997-5.252 14.325-0.133 2.46-0.094 4.771-1.434 7.161-0.211 0.378-1.255 0.592-1.433 0.955-1.312 2.693-1.118 5.504-4.297 6.208-0.16 5.729-2.754 9.024-4.775 12.894-0.415 1.848 1.166 1.698 1.434 2.865-0.438 6.916 0.639 15.511-0.479 23.875-1.296 0.137-2.25 0.612-2.865 1.432 2.23 2.386 4.23 5.002 3.344 10.506 2.968 2.907 5.181 8.414 2.863 13.847 4.764 5.165 1.642 15.676-2.863 18.622-2.278 0.193-1.969-2.485-4.298-0.955 0.555-1.992-0.057-2.34-0.955-3.818 2.338-1.544-0.308-2.905 1.433-4.774-2.263 0.123-1.479 3.295-4.298 2.864-2.824 3.701-3.961 9.091-7.639 11.938-1.611-3.107-5.387-5.705-3.82-10.505-2.359-3.249-6.377-7.26-4.775-12.893-4.403-4.147-3.983-11.826-4.297-19.101 1.593 2.004 1.652-0.551 3.342-0.954-2.561 5.028-3.461 14.341 1.434 17.668 0.178-3.24-0.423-4.722 0-7.163 0.706-0.249 1.204-0.706 1.91-0.955 0.611-4.641 3.255-7.249 5.253-10.505 0.771-0.136 0.82 0.45 1.432 0.478 1.002-2.183 2.771-3.596 4.775-4.774-5.711-2.733-13.534 2.923-19.101 1.909-2.531 5.28 0.69 12.764-0.955 18.146-1.729 0.457-0.485-2.062-1.434-2.388-1.662 0.246-0.95 2.868-3.342 2.388-0.365-4.817 0.078-11.897 0-17.19-5.974-1.301-14.668-4.055-19.101-3.818 0.405 1.026 1.176 1.688 2.865 1.432-4.691 4.541-12.231 6.232-11.46 16.235 2.595 0.206 3.008-1.768 3.82-3.344 5.376-2.205 9.596-8.114 14.324-8.116 0.561 0.075 0.403 0.869 0.479 1.432 1.846 0.247 1.883-2.75 3.343-1.432-0.795 0.637-0.16 2.705-0.955 3.342-0.812 0.176-0.9-0.372-0.955-0.955-2.223 1.758-4.969 2.99-7.163 4.774-4.384-0.924-12.457 5.588-15.279 10.027-0.662 1.042-2.151 3.421-0.955 5.253 1.761-0.349-0.204-1.437 0.955-2.388 6.032-1.447 9.021-5.94 14.802-7.64 0.078-0.557-0.105-0.851-0.479-0.955 1.595-0.515 2.884-3.21 4.299-2.389 0.757-2.243 3.118-3.308 2.864-5.252 1.895 0.281 3.408-1.341 4.298-3.343 0.661 0.606 1.353 2.333 1.909 0.478 1.454 2.269-0.753 4.964-1.433 6.686 5.406 4.069 0.553 11.714-3.342 14.325 2.86 6.483-1.373 12.522-6.208 14.325 0.635-2.704-2.466-1.674-2.389-3.82-0.612-0.154-2.444-0.324-2.864-1.91-0.909 0.205-1.2 1.028-2.389 0.955-0.113-1.318-1.774-1.089-2.387-1.909-3.925 1.486-7.085 3.737-9.55 6.686-1.502 0.229-1.867-0.682-2.865-0.955 1.299-2.012 0.136-8.991 3.342-10.506-1.596-5.002 1.393-9.386 3.82-11.938-2.242-6.512 3.057-9.263 1.91-16.235 0.177-1.572 1.116-2.386 1.91-3.343-0.436-0.838-1.673-0.873-2.389-1.432 1.232-10.404-1.438-19.802 0.479-27.219-1.689-2.289-3.947-4.012-4.297-7.64-4.861-3.098-8.062-7.855-9.073-14.803-2.763-3.362-6.218-4.597-7.64-8.118-0.218-0.538 0.852-0.27 0.955-0.477 0.204-0.412-1.459-1.696-1.434-1.434-0.15-1.531 1.092-3.699 0.479-5.729-2.525-2.409-5.285-4.583-5.73-9.073-0.271-1.095-0.748 0.563-1.436-0.493 1.991-1.176 1.018-4.35 1.433-6.686 0.76-4.28 2.9-7.885 4.775-10.505-1.822-11.449 5.355-17.824 13.37-21.01 1.864-0.583 1.441-2.492 2.387-3.82 1.789-2.513 5.095-4.013 6.208-7.162 2.731 1.021 5.035-2.544 8.595-0.955 3.465-3.855 9.55-5.093 16.235-5.729-1.247 1.839 3.461 1.117 3.82 2.864 3.211-0.769 7.219-0.738 8.117-3.82 2.151 1.19 6.324 0.36 7.642 2.387-0.253 0.384-0.498 0.775-0.479 1.433-4.479-1.416-9.391-0.99-12.414 1.434 1.988 3.264 5.555 4.951 6.207 9.55 1.049 1.252 1.586-1.48 2.865 0-0.732 3.233 2.006 4.063 0.955 6.208-0.902-0.053-0.332-1.579-1.433-1.432 0.434 1.595-0.176 2.335 0.953 3.819 0.64-0.773-0.036-2.793 1.435-0.955 1.412-0.836-0.276-2.544 0-3.819 2.029 0.517 0.588 4.505 2.387 5.252 1.792-0.375-1.256-2.956 0.955-2.389-0.147 1.899 1.104 2.399 0.955 4.299-0.974-0.142-0.936-1.292-1.91-1.434-0.229 1.661-0.089 2.954 1.91 2.388-0.205 0.75-1.502 0.407-0.955 1.909-0.817 0.021-1.237-0.355-1.432-0.955zm-8.596-2.387c0.482-1.345 2.028 0.132 2.865 0-0.471-2.114-0.074-1.25 0.479-2.865-3.446-9.754-7.762-21.304-22.92-18.145-1.934 0.403-4.199 1.985-5.73 3.82 1.148 0.603 2.888 0.613 3.82 1.432 0.23-0.564 0.509-1.083 0.955-1.432 0.785 1.441 3.525 0.93 4.774 1.909-0.953 0.898-0.753 1.734-2.388 0.955 0.104 1.511 3.1 2.6 3.343 2.389-0.536-0.102-0.744-0.53-0.955-0.955 1.424-0.437 3.091-0.896 3.82 0.478 0.081 0.646-2.428 0.954-0.955 1.433-0.08-1.035 1.694-0.217 2.388-0.479-0.106 0.903 0.538 1.054 0.479 1.91-0.683-0.114-0.806-0.786-1.434-0.955 0.069 1.546 1.965 3.734 2.865 2.865-0.662-0.043-0.502-1.218 0.479-0.955 0.296-1.756-2.997-2.378-1.91-3.342 1.941 0.932 4.348 3.916 4.297 5.252-0.749-0.206-0.407-1.502-1.909-0.955 0.428 1.801 1.319 3.137 2.864 3.819 1.147-0.79 0.396-3.14 0.955-3.342 1.513 2.053 3.839 5.077 3.818 7.163zm-11.46-4.298c-0.195-3.146-3.341-3.344-4.774-5.252v-1.433c-7.431-7.538-22.367-5.235-24.831 3.82 2.397 0.296 6.293-1.094 8.595 1.434 1.171-0.637-0.861-1.441 0.479-1.91 1.353 0.498 1.989 0.498 3.342 0 0.123 2.753 4.018 3.157 6.208 2.388 0.348 1.303-0.949 0.961-0.955 1.91 2.92-1.105 4.014 0.744 6.208 0v2.388c1.803 0.211 2.242-0.941 3.343-1.433 0.046 1.227 1.864 0.683 1.91 1.91-0.55 0.563-0.541 1.688-0.479 2.864 2.011 0.736 0.076-2.471 1.434-2.387 1.163 0.48-0.937 2.111 1.433 1.91-0.145-1.114-1.02-2.057 0.479-2.387 0.453 0.865 1.174 2.212 2.387 0.955-1.452-1.738-3.217-3.156-4.779-4.777zm29.128-6.208c-0.143 3.485 0.846 5.84 0.478 9.55-0.255 2.763 0.854 1.655 0.479-0.478 1.029-0.403-0.18-3.044 0.955-3.342 1.183 7.98-4.058 19.47 3.343 22.441 0.248-3.89 2.911-5.365 4.298-8.118-2.055-2.173 2.846-9.469-1.434-11.46h0.955c-0.907-2.594-3.895-3.107-3.343-7.163-0.948-0.795-0.606 0.043-1.909 0 0.346-1.46-0.824-1.403-0.479-2.864-1.559 1.284-1.379-1.312-2.388 0 1.033 1.361 0.522 3.018-0.955 1.434zm9.55 0.479c1.215 0.246 1.852 0.813 1.908-0.955-1.214-0.247-1.851-0.815-1.908 0.955zm-22.92 3.819c0.603-0.561 0.382-1.983-0.955-1.91-0.134 1.088 0.114 1.795 0.955 1.91zm-37.245 6.208v0.955c1.175 0.743 1.403-1.622 0.478-1.432-0.028 0.29-0.072 0.564-0.478 0.477zm2.864-2.388c-1.633-1.55-5.593-0.773-7.64-1.91 0.898-1.521 2.21 0.333 2.865-1.432-9.41-1.312-22.932 5.688-21.487 18.145 0.03-2.2 2.369-3.578 4.297-4.774 4.364-2.709 9.292-5.166 13.37-5.253 0.359-1.71 2.115-2.022 2.865-3.342 2.028 0.313 0.35 1.368 1.91 1.91 0.157-2.232 3.16-1.617 3.82-3.344zm28.65 9.073c-3.136 2.21-8.354 0.297-11.46-0.479-2.325 1.995-5.811-0.104-9.55 0.479-2.704 2.707-4.497 6.326-8.596 7.64-0.343 2.891-1.149 8.455-2.864 11.46 2.973 2.007 3.446 8.905 2.864 12.893 4.228 1.504 6.324 5.137 6.686 10.506 4.139 1.591 6.411 5.05 7.163 10.027 4.972 0.6 5.625 5.518 8.595 8.118 0.08 1.52 1.119 3.515 0 4.774 3.904 0.233 3.193 5.084 5.729 6.686h0.955c0.887-2.615 3.063-3.938 3.819-6.686-2.559-7.247 3.086-11.392 6.207-15.758-0.381-0.892-0.797-1.749-0.955-2.864 1.976-4.87 5.209-8.48 9.551-10.982-0.181-5.911 2.617-8.843 4.775-12.415 0.285-0.851-1.4-1.982 0-2.388 1.231 0.041 0.502 2.044 2.387 1.433 1.485-4.562 5.232-6.864 8.597-9.55 1.019-4.133 2.481-4.865 5.252-7.162 0.066-2.805-1.114-3.97-0.479-6.208-0.842-1.453-1.479 1.303-1.91 0 0.632-0.521 1.642-3.084 0.479-3.819-0.231 0.563-0.509 1.082-0.955 1.433 0.143-0.938-0.646-0.947-0.955-1.433 1.584-0.11 2.062-2.763 0.479-3.343 2.514 0.218 0.835-3.239 0-0.955v-3.342c-2.894 1.224-1.078 3.618-1.435 5.73-1.615 9.615-10.594 14.667-11.459 25.785-2.303-1.511-0.18-5.567 0-7.641-2.393-2.224-4.088-5.145-5.253-8.595-3.962 0.459-5.042-1.961-7.64-2.865-3.753 1.468-6.786 0.011-10.028-1.433 0.967-1.107-0.194-1.099-0.954-0.479-1.475 0.477 1.37 0.449 0.953 1.43zm-2.387-7.64c2.395 1.314 1.483-4.014 0.479-1.91 1.409 0.415-1.109 0.714-0.479 1.91zm-17.19-0.478h0.955c0.026-0.61 0.612-0.661 0.479-1.434h-1.434v1.434zm1.433 0.955h0.954v-0.955h-0.954v0.955zm55.872 0h0.955v-0.955h-0.955v0.955zm-65.423 1.91c0.055-0.583 0.144-1.131 0.955-0.955 0.145-1.259-0.661-1.567-1.91-1.434 0.709 1.401-0.54 1.775 0.955 2.389zm3.343-1.432h0.954c0.743-1.175-1.621-1.404-1.432-0.478 0.292 0.027 0.566 0.071 0.478 0.478zm63.51 0.477h0.955v-0.955h-0.955c0.01 0.318 0.01 0.637 0.01 0.955zm-53.96 1.432h0.955c0.025-0.61 0.611-0.661 0.478-1.432h-1.433v1.432zm18.145 0.478c-0.842-0.432-0.789-1.758-1.91-1.909-0.125 0.742-1.047 0.331-1.433 0-0.253 2.711 2.443 2.559 3.343 1.909zm33.902-0.955c0.77 1.304 1.603-0.699 0.478-0.955 0 0.479-0.392 0.568-0.483 0.955zm-39.154 0.477h0.955c0.742-1.175-1.623-1.404-1.434-0.478 0.292 0.028 0.567 0.073 0.479 0.478zm42.497 0c0.479-0.001 0.567 0.387 0.955 0.478-0.046-0.75 0.063-1.654-0.955-1.433v0.955zm-24.83 1.433c1.628 0.359 1.862-1.823 0.479-1.909 0.034 0.832-0.109 1.484-0.479 1.909zm3.343-1.433v0.955c1.176 0.743 1.404-1.622 0.478-1.433-0.028 0.292-0.072 0.566-0.478 0.478zm-32.948 1.91c-0.604 0.56-0.384 1.983 0.955 1.91-0.192-1.714 2.982-3.488 0-3.82 0.628 1.222 0.423 3-0.955 1.91zm8.117-1.91c-0.422-0.367-1.362 0.293-1.432 0.478-0.675 1.8 2.376 0.343 1.432-0.478zm43.928 3.343c1.756 0.761 2.231-3.633 0.478-3.343 0.23 1.508-0.86 1.687-0.48 3.343zm-84.993 12.893c1.755 0.459 1.897-2.347 0.478-2.389-0.401 0.555-0.63 1.281-0.478 2.389zm2.388-1.433c0.026-0.609 0.612-0.661 0.479-1.433-0.822-0.025-1.225 0.368-1.434 0.955 0.479-0.001 0.568 0.387 0.955 0.478zm5.252 0c2.486-0.132 0.261-3.763 2.865-1.433-0.197-1.502-1.857-2.935 0.477-3.342-0.881 2.275 1.627 0.359 1.91 2.387 0.184-1.725 0.186-1.727 1.91-1.91-3.04-3.81 2.059-6.549-1.433-9.55v1.91c-3.707 0.494-5.397 1.925-8.596 1.91-0.021 0.656 0.226 1.048 0.478 1.432-0.903-0.107-1.053 0.539-1.91 0.478-0.973-0.142-1.271-0.956-1.91-1.432-6.628 2.657-13.591 10.823-14.323 20.055-0.308 3.875 0.303 9.61 4.298 11.46 0.638-1.882-1.504-8.243 1.91-7.64-0.247-3.59 1.436-5.25 1.909-8.118 0.683 0.187 0.806 0.573 1.434 0 0.304-4.631 4.324-5.544 4.774-10.027 1.761-0.012 3.188-2.832 4.297-1.91-0.086 1.346-2.27 0.595-1.909 2.387 2.058-1.203 0.591 0.9 2.387 0.955-0.937-2.304 2.185-3.278 0.478-6.208 1.398 0.125 1.468-1.08 2.865-0.955 0.07 1.184 0.089 2.317-0.955 2.387-0.045-0.75 0.064-1.655-0.955-1.433 0.892 2.67-0.969 4.513-1.433 7.163-1.051-0.995-2.236 0.568-1.91 2.388 2.325-0.732 1.433 1.75 2.387 2.387 0.043-0.661 1.219-0.501 0.955 0.479 1.533 0.419 0.99-1.238 1.91-1.432 0.009 1.423-0.044 2.908 1.432 2.864 0.049-1.479-0.583-2.28-0.954-3.342 1.522 0.283 1.477-0.896 2.387 0 0.106-0.903-0.538-1.054-0.479-1.91-2.367-0.617-2.346 1.155-4.297 0.955 0.001-0.479-0.387-0.567-0.478-0.955 0.45-2.267 0.822-7.122 3.343-5.729-2.807 0.762-1.382 3.282-2.864 5.729zm-3.342 5.73c0.954-1.781 0.574-1.944 1.432-3.82-6.066 1.812-12.005 10.062-12.892 19.101-0.661 6.727 0.995 14.059 4.775 16.234 0.08-0.557 0.755-0.519 1.432-0.478-1.971-5.92 1.949-12.046 1.433-17.19 2.622 0.234 0.939-3.836 2.865-4.298 0.792 1.096-1.729 3.85 0.479 4.775 2.102-3.012 1.673-4.464 0.955-6.686 0.084 1.38-1.613 2.631-1.91 0.955 2.062-1.232 2.046-3.417 0.955-5.729 1.746 2.141 1.807-0.713 1.909-1.433 0.115 0.681 0.787 0.805 0.955 1.433-0.147 1.19-2.64 2.118-0.478 2.864-0.417-1.53 0.735-1.493 1.433-1.91-2.284-2.302 2.28-4.191-0.955-6.208-0.852 0.899-1.292 2.21-2.387 2.865-1.195-0.608-1.495 0.243-1.91-0.478 0.165-1.269 1.253-1.612 2.389-1.91 0.069 0.639-1.944 1.444-0.48 1.913zm82.605-17.667h0.955c-0.002-0.479 0.387-0.568 0.478-0.955-0.61-0.026-0.661-0.612-1.433-0.479-0.01 0.478-0.01 0.956-0.01 1.434zm-21.007 0c-1.185 3.148 1.594 2.166 0 0zm11.937 1.432v-0.955c-0.881-1.586-2.328 1.433 0 0.955zm8.59 0.955c1.329 0.765 1.32-2.062 0.479-1.91-0.15 0.646-0.68 0.912-0.48 1.91zm-67.323 0c1.304-0.348 0.961 0.949 1.91 0.955-0.261-0.694 0.559-2.468-0.478-2.387-0.052 0.901-1.578 0.331-1.432 1.432zm25.308-0.955c-1.93-1.68-1.126 1.536 0 0zm-22.442 0.955h0.955v-0.955h-0.955v0.955zm-5.73 2.387c1.527 0.097 2.063-0.8 2.387-1.909-1.557-0.125-2.298 0.566-2.387 1.909zm72.577 8.118c-0.812-2.007-4.055 2.451-5.73 3.82-6.264 5.116-17.923 11.69-16.235 20.055 1.742-1.005 1.08-3.092 3.343-1.433-0.071-1.187 0.246-1.981 0.954-2.389 4.604-0.462 6.933-3.792 9.552-6.208-0.129 0.119 0.586 0.759 0.955 0.479 0.299-2.566 2.975-2.754 3.342-5.252 1.256-1.241 0.376 0.771 1.91 0.478-1.236-2.655 2.096-3.623 3.819-4.774 0.035-0.832-0.106-1.485-0.479-1.91 1.868-0.59 0.989-2.516 2.389-4.297-3.014-0.166 2.06-3.654-0.955-3.82-0.76 1.946-1.46 3.956-2.87 5.251zm-86.903-3.343h0.955v-0.955h-0.955v0.955zm10.505 2.388h0.955v-0.955h-0.955v0.955zm-13.847 2.865v1.433c1.691 0.354 3.212-1.545 1.432-1.909-0.08 0.555-0.755 0.517-1.432 0.476zm11.938 5.73c0.01-1.125-0.823-1.406-0.478-2.865-1.382 0.211-2.178 1.007-2.389 2.387 1.195 0.631 1.495-1.888 1.91-0.477-1.12 0.006 0.176 1.303 0.957 0.955zm0-1.91h0.955v-0.955h-0.955v0.955zm0 3.82c0.027-0.291 0.071-0.564 0.478-0.478-0.055-0.583-0.144-1.13-0.955-0.955 0.074 0.562-0.083 1.356 0.477 1.433zm-3.343 0c-1.729 2.256 2.795 0.635 0 0zm6.207 8.595c-1.011-1.377-1.023-3.751-1.91-5.252 0.451-0.822 1.765-0.782 1.433-2.389h-2.864c-0.22 3.164 0.557 6.344-1.91 9.072 0.194-0.957 1.183-3.542 0-4.297-0.045 0.75 0.063 1.656-0.955 1.433 1.3 2.789-1.715 2.277-1.434 5.252-7.565 5.713-6.646 25.269 1.434 29.604 0.495-2.517-1.066-6.812-0.955-10.504 1.79-1.554 1.135-3.932 2.865-6.208-0.714-1.526-1.03-4.066-0.479-6.208 0.081-0.313 1.295-0.253 1.434-0.479 0.322-0.526-0.523-1.159-0.479-1.433 0.304-1.845 2.285-0.537 2.387-1.432-1.789-1.18 0.646-1.221 0.955-1.434 1.571-1.08-1.349-3.932 0-5.252-1.939-0.449-1.654 2.585-0.955 3.342-1.12-1.164-1.068 0.533-1.909 0.955 0.557-1.285-0.767-2.713 0-3.343 1.44-1.185 0.297 0.493 0-0.955-0.072-0.348 0.301-2.409 1.432-2.865-0.095 1.533 0.801 2.07 1.91 2.393zm71.153-3.82h0.955v-0.955h-0.955v0.955zm4.29 1.91c1.358-0.393 2.424-1.078 2.864-2.388-1.7-1.658-4.56 0.634-2.86 2.388zm-9.07 1.91c-4.812 3.642-12.383 5.569-17.19 9.55-2.359 1.954-5.524 5.192-4.773 9.073 4.129-3.033 9.006-5.319 14.323-7.163 0.021-0.657-0.225-1.049-0.478-1.434 2.286-0.103 3.472-3.311 5.729-1.91-0.575-2.428 3.128-6.549 5.73-5.729-1.577 1.409-2.414 3.267-1.91 4.775 0.008-0.789 1.324-0.269 1.435-0.955-1.432-0.314 0.455-1.021 0-1.91 0.634 0.62 1.774 0.629 1.908-0.479-0.439-0.796-0.707-4 1.434-1.91-0.627-1.48 0.129-1.361 0-3.342-2.326 0.214-2.978 2.109-6.2 1.434zm9.07 0.478c0.024-0.822-0.367-1.224-0.955-1.433-0.03 0.821 0.36 1.224 0.95 1.433zm-72.1 7.162c1.393 0.702 1.393-2.135 0-1.433v1.433zm0.955 21.488c1.393 0.702 1.393-2.136 0-1.434v1.434zm-0.478-7.641c0.385 1.612-2.605-2.207-0.477-2.387 0.902 0.053 0.331 1.579 1.432 1.432 0.275-0.999 1.185-1.362 0.955-2.864-1.696-0.743-0.288 1.622-1.433 1.433-1.301-1.649 1.634-2.254 1.91-3.82-1.271-1.313-1.673 0.352-2.865 0.479 0.318-0.951 1.647-2.04 0-2.388-0.066 0.89-0.314 1.596-0.955 1.909-0.012-1.949 0.213-3.321 1.91-2.388 0.33-2.007-0.384-3.524 1.433-2.387-0.283-0.989 0.59-3.138-0.478-3.342 0.232 3.37-3.198-1.084-3.82 1.432 1.033 0.84 1.517 3.711-0.955 3.343 0.076 1.509 0.018 2.882-0.955 3.342-0.609-0.025-0.661-0.611-1.433-0.478 0.124 2.645 0.352 4.657-2.387 3.343 0.24 1.191 1.27 1.595 1.433 2.865-3.354 7.309-3.125 22.14 6.685 21.965-0.841-1.887-2.672-6.16-0.477-8.117-1.896-2.449 0.257-5.5 0.955-8.118-0.821-0.188-1.224 0.709-1.432 0 0.718-3.054 1.102-4.637 0.954-5.258zm61.12-10.982c-0.479 0.001-0.567-0.388-0.955-0.479 0.048 0.75-0.062 1.656 0.955 1.434v-0.955zm-1.909 2.387c-0.979 0.062-2.881 1.633-3.82 1.91 0.104-0.03 0.304-0.963 0.478-0.955-3.895-0.176-11.795 5.007-16.713 9.073-3.418 2.827-5.846 7.282-5.729 11.459 5.687-3.679 10.478-6.219 15.279-10.027 0.055 0.583 0.144 1.13 0.955 0.955 0.164-2.7 3.865-1.865 3.819-4.775 1.146-0.188-0.265 2.176 1.433 1.434-0.446-1.886-0.444-2.841 1.91-2.865-0.417-2.243 2.916-5.205 5.73-4.298 0.621-1.885-1.752-1.155-0.479-2.387 0.896 1.829 1.797 0.133 2.865-0.479 0.305 1.042-1.354 1.52 0.479 1.433 1.198-1.348 1.782-3.31 2.387-5.253-0.851 0.265-1.982 0.246-2.387 0.955 0.556 0.081 0.518 0.756 0.477 1.434-1.647-2.104-1.597 1.044-4.297 0.478-0.653 1.895-1.92 3.173-3.82 3.82-0.058-0.624 2.066-1.95 1.435-1.912zm9.552-1.909h0.955v-0.955h-0.955c0.01 0.318 0.01 0.636 0.01 0.955zm-67.808 2.864h0.955v-0.955h-0.955v0.955zm63.509 1.91c-0.504 2.772 2.068 0.2 0 0zm-1.434 3.343c0.025-0.822-0.367-1.224-0.955-1.433-0.025 0.822 0.368 1.225 0.955 1.433zm-61.12 1.432c-0.073 1.349 1.351 1.197 1.91 1.91-0.837-1.626 0.154-1.778 1.434-2.388-0.082-0.714 0.17-1.762-0.479-1.91-0.049 2.037-1.285 3.17-2.865 2.388zm7.641 5.254c-1.533 0.419-0.99-1.238-1.91-1.433-0.596 1.445 1.588 2.475 1.91 1.433zm0-1.433c-1.67-1.3-1.939-3.174-1.434-5.252-2.155 0.231-1.717 3.058-1.91 5.252-0.706-0.553-1.202-0.553-1.909 0-0.683 6.607-4.819 11.333-3.344 18.623 2.327-0.22 5.594 0.5 7.163-0.478 0.355-1.946-1.539-1.646-0.955-3.82h1.434c-2.029-2.423 0.864-3.321 0.478-6.685-1.681-1.504-2.538-3.829-2.388-7.163 1.166-1.002 1.017-0.684 2.865-0.479zm45.839-1.911h0.955v-0.955h-0.955v0.955zm7.64 3.344c-1.447-1.325 1.012-2.781 1.435-3.82-1.289-0.94-2.551 1.339-3.345 2.388-0.934-0.893-0.146-1.749 0-2.865-2-0.567-0.852 2.014-1.908 2.389-0.075-0.562 0.082-1.355-0.479-1.434-0.218 3.603-2.464 5.177-3.82 7.641 0.232 0.563 0.511 1.082 0.955 1.433 0.244-1.096 0.945-4.087 3.344-2.865v-2.388c1.317-0.324 1.089-0.086 1.908-1.432 0.047 0.656 1.864 1.86 1.91 0.953zm-62.075-2.866c0.636 0.62 1.777 0.629 1.91-0.479-0.634-0.619-1.776-0.628-1.91 0.479zm53.48 1.91h0.955v-0.955h-0.955v0.955zm7.64 3.342c0.48-1.594-0.662-1.566-1.91-1.434-0.143 1.26 0.662 1.569 1.91 1.434zm-9.549-0.955c-4.354 1.6-7 2.898-10.506 4.774-5.307 2.841-11.381 6.156-11.46 11.938 4.183-3.291 9.124-3.189 13.848-6.208 0.61 0.026 0.661 0.612 1.434 0.478 2.817-3.549 7.188-5.545 9.071-10.026-0.909-0.207-1.199-1.03-2.387-0.957zm-43.453 15.283c0.698 0.417 1.85 0.379 1.434 1.908-1.456 0.188-2.432-1.255-2.865 0.479 1.471 0.916 2.397 2.376 4.774 2.387 1.17-0.635-0.524-1.775 0.479-1.91 1.64 0.431 2.075 2.064 4.298 1.91 0.974-2.397-3.275-3.299-5.729-3.818 2.116-2.688 6.427 1.124 8.116-1.434-0.812-1.416-3.715-0.742-3.819-2.865 0.832-0.44 2.562 0.017 2.387-1.433-0.129-0.984-2.114-0.114-1.91-1.433 0.429-2.018 0.958-2.873 2.387-2.865-1.446 0.016-0.462-2.402-1.909-2.387-0.232 0.563-0.51 1.082-0.955 1.432 0.143-0.938-0.646-0.946-0.955-1.432 1.479-0.771 1.854-0.414 2.865-0.955-1.127-0.147-0.889-1.658-2.388-1.434-0.075 0.562 0.082 1.355-0.478 1.434-0.212-0.903 0.648-2.878-0.955-2.389-2.279 4.246-3.517 9.534-4.777 14.802zm10.505-10.985c0.134-1.089-0.114-1.795-0.955-1.91-0.133 1.088 0.115 1.795 0.955 1.91zm31.515 5.253c2.549 0.826 2.288-0.486 2.388-3.344-0.61-0.025-0.661-0.611-1.433-0.478-0.424 1.168-1.113 2.072-0.955 3.822zm3.342-1.91v0.955c1.175 0.742 1.404-1.623 0.478-1.434-0.027 0.293-0.071 0.567-0.478 0.479zm-4.774 3.819c0.427-0.379 2.113-2.925 0-2.864 0.517 1.223-1.451 2.275 0 2.864zm3.342-0.477h1.433c0.062-0.856-0.474-1.116-1.433-0.954v0.954zm-2.866 2.39c0.088-1.042-0.392-1.52-1.433-1.434-0.327 1.28 0.988 0.92 1.433 1.43zm0.956 0.95c1.375-2.17-1.086-2.726 0 0zm-7.64-1.43c-2.406 3.322-9.521 1.938-10.026 7.162h4.298c0.719-0.713 0.143-2.722 1.91-2.387 0.143-0.939-0.646-0.947-0.955-1.433 1.805-0.691 0.916 1.312 2.387 0.953v-1.908c2.445-0.739 5.432-0.938 6.687-2.865-1.556 0.06-2.958 1.69-4.301 0.49zm-22.92 2.39c1.655 0.062 2.772-0.411 2.389-2.389-1.471-0.354-0.918 1.312-2.389 0.955 0.001-0.266-0.387-0.542-0.478 0 0.557 0.08 0.519 0.76 0.478 1.44zm26.263 0.95h0.955v-1.91h-0.955v1.91zm2.865 0.96c-0.976-1.133 0.989-2.223-0.955-2.387 0.211 0.9-0.651 2.88 0.955 2.39zm-50.615 0c-0.025 1.459 1.72 1.146 1.432 2.865 0.984-0.289 3.317 0.771 2.865-0.955-1.53-0.44-2.694-3.05-4.297-1.91zm9.072 2.39c-0.501-2.205-2.305-3.107-5.252-2.865 0.816 2.65 2.995 2.58 5.252 2.86zm13.37-2.87c0.295 2.105 3.538 3.766 5.729 2.387-1.167-1.54-2.574-2.84-5.729-2.39zm9.55 3.34c1.496-2.689-1.541-3.477-4.297-3.342 0.138 2.41 1.77 3.32 4.297 3.34zm-10.027-2.86c-1.538 0.105-2.021-0.844-3.82-0.477 0.577 1.811 2.516 4.267 4.775 2.865-0.013 2.558 1.262 3.831 3.819 3.818-0.618-3.05-3.683-3.64-4.774-6.21zm-25.786 2.39c1.456-0.188 2.431 1.255 2.865-0.479-1.275 0.002-1.038-1.509-2.389-1.432-0.148 0.64-0.678 0.91-0.476 1.91zm44.885 0h0.955v-1.91h-0.955v1.91zm8.596 0h0.955v-1.91h-0.955v1.91zm1.431-0.48c0.682 0.115 0.806 0.787 1.434 0.955-0.074-1.188 0.75-1.478 0.955-2.387-1.221 0.05-1.672 0.87-2.389 1.43zm-19.577 1.91c-0.21 1.978 3.405 3.529 4.298 1.434-1.142-0.77-2.249-1.57-4.298-1.43zm9.074 0.95c0.528 1.539 2.627 1.511 4.773 1.433-1.529-2.041-0.364-2.844 0-5.253-1.502-0.229-1.865 0.682-2.863 0.955 0.059 1.195 0.909 1.495-0.479 1.91-3 0.527-3.662-0.219-6.685-0.477-0.956 2.07 4.466 4.87 5.254 1.43zm7.162-2.38c1.393 0.701 1.393-2.135 0-1.435v1.44zm-16.713 3.82c-0.092-2.613-2.287-3.123-4.774-3.343 0.573 2.12 2.645 2.76 4.774 3.34zm-28.173-0.48c0.646 0.15 0.912 0.68 1.91 0.478 0.36-1.63-1.824-1.87-1.91-0.48zm-1.91-2.39c-0.334 1.469-0.334 0.917 0 2.387 0.832 0.036 1.485-0.106 1.91-0.478 0.222-1.5-0.415-2.13-1.91-1.91zm17.191 2.87c0.074-2.62-1.97-3.123-4.775-2.863 0.252 2.28 2.205 2.88 4.775 2.86zm-12.893-2.39c0.264 1.965 1.946 2.51 4.297 2.388 0.075-0.562-0.082-1.354 0.478-1.433 0.481 1.111 1.645 1.54 3.342 1.433-0.697-4.67-5.624-1.76-8.117-2.39zm17.668 2.39c-0.306-2.24-2.014-3.081-4.775-2.863 0.549 1.99 1.859 3.22 4.775 2.86zm21.964-1.91c0.709 1.171 4.136 3.185 5.252 0.954-0.934-0.94-4.025-3.3-5.252-0.95zm5.252-0.96c-0.09 2.16 1.417 2.721 3.344 2.863 0.261-0.693-0.559-2.468 0.478-2.388 0.046 0.75-0.063 1.656 0.954 1.434 1.521-3.08-2.884-0.82-4.776-1.9zm-53.479 1.91c0.405 0.71 1.538 0.69 2.389 0.954 0.069-1.185 0.089-2.316-0.955-2.388 0.188 1.15-2.176-0.26-1.434 1.44zm0.955 2.39c-0.106 0.901 0.538 1.054 0.479 1.91 1.188-0.054 1.478-0.896 2.388 0-0.082-0.716 0.17-1.763-0.478-1.91-0.714 1.575-0.562-1.599-1.91-0.955-0.108 0.36-0.015 0.93-0.479 0.95zm12.415 1.91c0.334-2.334-3.611-4.087-4.774-1.91 1.807 0.42 1.978 2.48 4.774 1.91zm-8.595-2.39c0.76 1.169 2.896 3.446 4.775 1.91-0.765-1.34-3.299-2.79-4.775-1.91zm8.595 0.48c1.075 1.152 2.124 2.333 4.775 1.91 0.543-2.54-3.748-3.95-4.775-1.91zm5.252-0.48c0.139 1.79 3.131 3.211 4.775 1.91-1.517-0.87-2.515-3.17-4.775-1.91zm6.208 7.64c1.159 0.752 2.039 1.78 4.298 1.434-0.263-2.3-2.751-2.72-4.298-1.43zm9.55-1.43c0.103-0.536 0.53-0.744 0.955-0.955 0.535 0.865 3.495 1.742 3.82 0-0.445-1.465-2.516-1.305-3.343-2.388 0.609-0.026 0.661-0.612 1.433-0.478-0.179-2.321-2.847-3.224-4.774-2.389 0.017 1.895 1.844 1.979 2.864 2.865-0.467 0.488-0.942 0.966-1.433 1.433-1.621-1.536-1.88-5.589-5.73-4.298 0.653 1.734 2.415 2.36 3.821 3.344-1.089-0.135-1.795 0.114-1.91 0.954 1.748 0.32 2.123 2.017 3.819 2.388-0.631 0.006-0.437 0.838-0.954 0.955-2.088-0.777-3.223-2.509-4.299-4.297-2.818 0.36-3.865 0.36-6.686 0 0.49 1.578 1.323 2.814 3.344 2.864 1.101 0.146 0.529-1.38 1.433-1.434 1.461 3.611 7.812 6.863 10.982 3.344-0.752-0.96-2.662-0.8-3.342-1.87zm3.343 0.95c0.264 1.964 1.946 2.509 4.298 2.388 0.285-2.39-2.608-3.48-4.298-2.39zm11.937 2.39c-0.642-3.493-5.382-2.633-7.64-2.388 1.392 3.99 4.212 0.82 7.64 2.39zm-21.965-7.16c0.129-2.059-3.109-3.233-4.775-1.91 0.84 1.39 2.202 2.25 4.775 1.91zm13.847-2.39c0.302 1.809 3.06 3.035 4.3 2.389-0.355-1.88-2.184-2.28-4.3-2.39zm8.596 2.39c-0.222-2.167-2.121-2.654-4.775-2.389 0.679 2.38 2.17 2.97 4.775 2.39zm-12.893-2.39c0.265 1.964 1.779 2.678 4.297 2.389v-1.434c-1.062-0.69-2.302-1.2-4.297-0.96zm13.37 0.95c1.034 0.684 2.604 2.411 3.819 1.434 0.645-2.3-3.257-3.27-3.819-1.43zm4.775-0.95c-0.383 2.89 2.189 0.32 0 0zm-44.885 4.77c1.19 0.816 2.344 1.666 3.82 0.955-0.18-1.729-1.425-2.396-2.865-2.864-0.006 0.94-1.303 0.6-0.955 1.9zm-5.73 3.35c2.094-0.503 1.568 1.614 3.343 1.433 0.382-2.445-2.348-5.067-4.774-6.207 0.105 2.5 2.621 2.14 1.431 4.78zm1.432-4.3c-0.106 0.902 0.538 1.054 0.479 1.909 1.492 0.219 1.525-1.021 1.433-2.387-0.833-0.03-1.487 0.11-1.912 0.48zm12.415 1.43c-1.013-0.759-2.913-3.106-4.774-1.433 1.352 0.82 3.049 3.82 4.774 1.43zm3.343 0.48c-0.302-1.769-1.477-2.662-3.82-2.387 0.356 1.62 2.094 3.65 3.82 2.39zm20.532 0.48c0.39-2.457-1.217-2.921-3.342-2.864 0.041 2.02 1.127 3 3.342 2.86zm3.82-2.87c0.366 2.181 2.803 2.291 4.775 2.864 0.066-2.6-2.107-2.98-4.775-2.86zm8.117 2.87c1.581-2.174-1.162-3.416-3.819-2.864 0.577 1.64 1.871 2.58 3.819 2.86zm-11.459-2.87c-0.416 1.848 1.166 1.697 1.432 2.864 1.15 0.195 1.038-0.873 2.388-0.479-0.388-1.67-1.745-2.38-3.82-2.38zm12.415 0.48c0.165 1.268 1.254 1.611 2.388 1.909 1.136-1.02-0.995-3.42-2.388-1.91zm-54.913 0.48c-0.427 1.541 1.558 0.672 1.91 1.433v-1.909c-0.902-0.11-1.053 0.54-1.91 0.48zm9.55 1.91c0.135-1.249-0.174-2.055-1.432-1.91-0.135 1.25 0.174 2.05 1.432 1.91zm48.705-0.96c0.847-0.108 2.392 0.48 1.91-0.955h-1.91v0.96zm-47.272 4.3c0.008-0.788 1.325-0.269 1.434-0.955-1.21-0.858-2.166-1.974-4.297-1.91 0.364 1.55 1.319 2.5 2.863 2.87zm-2.387 0.48c0.366 3.133-1.628-0.962-2.865 0.955 0.317 2.999 6.036 1.843 7.163 0.955-0.859-1.22-1.884-2.27-4.298-1.92zm8.594 2.38c0.376-1.968-2.285-0.896-1.909-2.864 0.75-0.046 1.654 0.063 1.432-0.955-0.596-1.633-2.229-2.228-4.775-1.91 1.394 2.73-0.396 6.7 5.252 5.73zm7.641-2.86c-0.105-1.775-3.108-4.214-4.297-1.91 1.396 0.67 1.648 2.49 4.297 1.91zm-7.641-2.86c-1.061 1.324 2.23 3.715 3.82 2.389 0.067-2.14-2.303-1.84-3.82-2.39zm39.156 1.43c-0.524-0.057-1.318-0.908-1.91-0.955-1.793-0.145-3.729-0.004-5.253 0 0.491 1.736 2.321 2.135 4.298 2.388 0.074-0.562-0.082-1.355 0.478-1.433 1.127 0.146 0.889 1.658 2.389 1.433 0.508-0.925 2.199-0.666 2.864-1.433-0.27-1.84-1.717 0.11-2.866-0.01zm-55.868 0.95c0.931-0.668 2.252-0.476 3.342 0.478 0.07-1.185 0.09-2.316-0.954-2.388-0.086 0.11-3.65 0.76-2.388 1.91zm20.533 3.34c-0.122-1.629-1.021-2.479-2.865-2.388-0.874 1.12 0.826 2.72 2.865 2.39zm2.864-1.9c0.174 3.095 2.854 0.713 4.774 1.91-0.182-2.21-2.991-2.7-4.774-1.91zm8.118 3.34c0.205-0.909 1.028-1.2 0.955-2.389-1.195-0.396-1.875-1.309-3.343-1.433-0.126 2.19 1.724 2.41 2.388 3.82zm4.297-2.39c-0.693-0.31-1.414-2.628-2.865-0.955 0.3 1.609 1.622 2.198 3.343 2.389-0.087-1.831 0.392-0.173 1.434-0.479 0.738-2.03-1.332-0.7-1.912-0.96zm8.595 0.95c-0.107-0.901 0.539-1.054 0.479-1.91-0.556-0.399-1.281-0.63-2.39-0.478-0.123 1.57 0.568 2.31 1.911 2.39zm6.686-0.47c-0.9-1.169-2.347-1.792-4.299-1.91-0.111 2.46 3.768 4.26 4.299 1.91zm-50.615 0.95c0.185-2.359 2.088-0.028 2.865 0v-2.389c-1.567 0.241-2.105 0.435-3.343 0-0.651 0.61-0.737 2.35 0.478 2.39zm41.542 2.39c0.831 0.035 1.483-0.107 1.91-0.478-1.83-1.665-2.009-5.555-6.208-3.82 0.831 2.04 4.327 1.41 4.298 4.3zm15.757-2.39c-1.546-4.562-3.255-0.279-6.686-2.389 1.207 3.93 4.163 0.4 6.686 2.39zm-34.857-0.95c-0.948-0.007-0.606-1.303-1.909-0.955-0.086 1.37 1.612 2.62 1.909 0.95zm-14.802 3.34c0.15-0.646 0.68-0.912 0.479-1.91h-1.91c-0.137 1.25 0.172 2.06 1.431 1.91zm7.639-1.43c-0.194 1.149 0.873 1.038 0.479 2.388 3.349 0.52 1.492-4.16-0.479-2.39zm21.011 0c-0.177 2.434 3.519 2.434 3.343 0-1.088-0.23-2.44-0.95-3.343 0zm-32.948 0.95h0.955v-0.955h-0.955v0.95zm11.937 1.43c-0.48-0.951-0.824-2.04-1.909-2.388-0.277 1.214-1.912 2.329-0.955 3.343 1.78 0.508 0.756-1.791 2.387-1.433-0.021 0.52 0.225 1.22 0.477 0.48zm-2.864-2.38h-0.955c0.001 0.479-0.387 0.567-0.479 0.955 0.61 0.025 0.661 0.611 1.434 0.478v-1.44zm6.685 0.95c0.671 0.124 0.544 1.047 0.955 1.433 1.573-0.742 2.386-0.43 3.342-0.955-0.833-0.72-3.54-2.57-4.297-0.47zm25.784 0c1.426-0.106 1.623 1.763 2.865 0.478 0.526-1.87-2.843-1.91-2.865-0.48zm6.207 0.96c0.752-0.711 0.533-2.135-0.954-1.91 0.066 0.89 0.314 1.59 0.954 1.91zm5.253-1.43c-0.161-0.387-1.268-0.576-1.433 0-0.316 1.1 1.867 1.03 1.433 0zm-21.01 0.47c-1.352 0.081-3.276-0.411-3.343 0.955 0.758 0.71 3.792 0.99 3.343-0.95zm-11.459-0.47c-0.232 3.09 5.307 0.654 2.388 3.342 1.588-0.953 2.095 1.384 3.343 1.435 1.548 0.062 3.494-1.297 2.864-2.865-3.943-0.6-4.276-1.82-8.595-1.92zm-22.92 3.82c-0.271-1.164-0.409-2.457-1.91-2.388-0.2 1.63 0.143 2.72 1.91 2.39zm0.477-1.92c-0.144 1.258 0.661 1.566 1.91 1.432 0.362-1.67-1.25-2.13-1.91-1.43zm2.865 2.39c1.452 0.021 3.143 0.278 2.865-1.432-0.055-1.221-1.6-0.948-2.865-0.955v2.39zm31.515 0.48c2.564-0.814 1.671 1.83 3.82 1.432-2.213-2.154 1.534-1.664 1.91-3.82-1.958 0.05-3.914 0.096-5.253-0.477 0.347 1.46-0.823 1.41-0.477 2.87zm-27.218-1.43c0.211 1.381 1.007 2.179 2.388 2.39 0.081-0.558 0.755-0.521 1.434-0.479 0.45-2.3-2.495-2.89-3.822-1.91zm7.163 0.48c1.531 0.538 2.987 1.149 2.388 3.818 3.635 0.938 4.904-0.853 6.686-2.863-0.249-0.707-0.707-1.204-0.955-1.91-3.077-0.06-6.085-0.05-8.119 0.95zm29.605 0.47c0.838 0.756 2.544 0.641 3.82 0.955-0.235-1.88-3.198-3.27-3.82-0.95zm6.684 1.91c0.274-0.998 1.185-1.362 0.955-2.865-1.15 0.196-1.037-0.871-2.388-0.477-0.106 1.7 0.324 2.86 1.433 3.34zm-35.334 0.48c-0.217-2.013-2.167-2.291-3.342-3.345-0.549 0.93 1.255 5.05 3.342 3.34zm41.065-1.43c-0.055-1.694-1.58-1.921-3.342-1.91-0.153 2.34 2.301 3.42 3.342 1.91zm-24.83 0c1.394 0.702 1.394-2.135 0-1.432v1.43zm8.117-0.96c-0.407 1.808 2.14 1.69 2.865 0.955 0.41-1.8-2.137-1.68-2.865-0.95zm-11.459 4.78c1.66-1.158 1.95-0.848 3.819-1.434-0.366-1.248-2.12-3.576-3.819-1.908 2.621 0.87-1.596 2.1 0 3.34zm-29.605 3.34c0.746-1.096 1.325-4.056 2.865-2.865-0.576-2.009 0.771-2.094 0.954-3.343-3.577-2.14-6.106 3.87-3.819 6.21zm23.397-4.3h1.434v-1.432h-1.434v1.43zm2.388 2.39c1.5 0.228 1.95-0.596 2.387-1.433-1.241-0.191-1.439-1.425-2.864-1.434-0.064 1.17-0.073 2.3 0.477 2.86zm27.216 0.96c0.802-0.754 1.382-2.191-0.478-2.388 0.263 0.69-0.557 2.47 0.478 2.39zm1.434 4.29c1.031-2.731 1.71-3.924 2.387-6.208-2.684 0.817-3.612 3.391-5.252 5.253-1.614-1.377-3.894 0.902-2.388 2.388 0.114-0.52 0.786-1.146 0.955-0.478-1.138 0.999-2.104 0.837-3.343 0.478-6.656 4.463-14.81 18.727-5.73 26.263 1.363-4.489 0.952-9.601 4.298-12.892-0.275-4.258 2.062-5.896 4.299-7.642 0.108-2.899 1.352-6.18 3.819-5.252-0.67-1.48-0.141-4.184 0.955-3.344-0.627 0.01-0.609 1.32 0 1.43zm-3.82-4.29c0.75-0.046 1.654 0.063 1.432-0.955h-0.955c0.001 0.48-0.387 0.57-0.477 0.96zm-25.308 3.34c2.377 0.917 2.376-2.998 1.432-3.819-0.698 1.05-1.45 2.05-1.432 3.82zm0 3.82c1.591-0.319 2.593-1.229 2.388-3.344-1.801 0.1-2.577 1.24-2.388 3.34zm-7.64 0v1.432h1.433c-0.511-1.782 1.187-1.36 0.955-2.864-2.786-0.69 0.517 1.99-2.388 1.43zm7.64 3.34c1.938 0.188 2.761-0.74 2.388-2.864-2.179-0.43-1.932 1.56-2.388 2.86zm-9.073-0.96c0.479-0.002 0.568 0.388 0.955 0.479-0.001-0.479 0.388-0.568 0.479-0.955-0.479 0.001-0.568-0.387-0.955-0.479 0 0.49-0.388 0.58-0.479 0.96zm37.723 0.48c1.393 0.702 1.393-2.134 0-1.434v1.43zm-39.155 0.96h0.955v-0.955h-0.955v0.96zm6.207-0.96c-5.196 4.792-12.815 8.216-19.577 11.46-2.909 1.396-7.005 1.964-7.163 6.207-0.646 0.149-0.912 0.68-1.91 0.479 1.439 2.286-2.164 5.384 0 6.686 3.012-4.47 8.068-6.895 13.849-8.595-0.07-1.186-0.089-2.317 0.955-2.389 0.304 1.042-1.354 1.52 0.478 1.434v-1.91c3.055-0.664 3.984-2.767 6.208-2.389-0.114-2.182 2.454-1.695 0.479-3.343 1.69 0.259 1.174-1.689 2.864-1.432-0.417 1.53 0.735 1.493 1.434 1.91 0.763-1.614-2.027-2.038-0.479-2.865-0.743 1.175 1.622 1.404 1.434 0.477-2.562-2.04 1.246-3.54 1.428-5.74zm30.082 3.34h0.955c0.321-1.155 3.043-2.647 0.955-3.343-0.044 1.71-1.778 1.72-1.91 3.34zm10.506-1.9c0.354-1.059-1.76-1.967-1.91-0.955 0.949 0.01 0.607 1.3 1.91 0.96zm-36.29 2.38c1.868 0.761 3.624-2.626 1.432-2.865-0.191 1.24-1.425 1.44-1.432 2.86zm29.605 8.6c1.813 0.062 2.254-1.248 2.388-2.865-1.642 0.1-2.082 1.41-2.388 2.86zm-5.73 10.98c-0.798-1.646 0.675-2.879 1.909-3.819-0.208-2.914 1.943-3.47 2.865-5.252-1.318-1.197 0.831-2.963 1.434-3.82 0.021-0.657-0.226-1.049-0.479-1.432 1.335-1.851 2.803-3.564 2.864-6.687-1.877-0.598-3.729 2.517-4.297 4.775-3.285 1.17-5.328 4.104-7.163 6.685-3.552 4.995-7.283 15.13-0.955 18.622 0.038-3.193 3.114-4.082 1.434-7.64 0.846-0.41 0.609-1.93 2.388-1.42zm-38.678-20.06c-1.729 2.26 2.796 0.64 0 0zm37.723 1.44c1.394 0.703 1.394-2.134 0-1.432v1.43zm-28.172 0.48h0.955v-0.955h-0.955v0.96zm37.722 1.91c0.75-0.046 1.656 0.062 1.434-0.955h-0.955c0 0.47-0.388 0.56-0.479 0.95zm-46.318 6.68c1.393 0.702 1.393-2.135 0-1.433v1.43zm50.138 4.77c0.249-1.248-2.771-1.625-0.955-2.864 0.752 0.043 0.373 1.218 1.434 0.954-0.081-0.714 0.171-1.762-0.479-1.909-0.51 1.231-0.332-2.16-2.388-0.955 0.769 1.63 0.017 4.77 2.388 4.78zm-49.182 0.48c-1.357 0.083 0.577-3.125-1.434-2.389 0.34 1.412 0.131 3.371 1.434 3.82 0.855-2.232 1.408-1.539 3.342-0.955v-1.91c-1.24 0.35-2.804 0.38-3.342 1.43zm49.182 3.82c0.07-1.186 0.089-2.317-0.955-2.388 0.264 0.85 0.245 1.99 0.955 2.39z"></path> <path d="m84.04 17.19v-2.864c1.036-0.08 0.217 1.693 0.479 2.388 0.755 1.257 0.351 1.662-0.479 0.476z"></path> <path d="m38.2 88.337c-1.179-1.256 1.378-2.766 0 0z"></path> <path d="m47.75 97.888c1.174-1.001-0.354 1.706 0 2.864-1.345-0.48 0.132-2.026 0-2.862z"></path> <metadata></metadata></svg> 