<?xml version="1.0" encoding="UTF-8" standalone="no"?> <!-- Created with Inkscape (http://www.inkscape.org/) --> <svg xmlns:inkscape="http://www.inkscape.org/namespaces/inkscape" xmlns:rdf="http://www.w3.org/1999/02/22-rdf-syntax-ns#" xmlns="http://www.w3.org/2000/svg" xmlns:sodipodi="http://sodipodi.sourceforge.net/DTD/sodipodi-0.dtd" xmlns:cc="http://web.resource.org/cc/" xmlns:xlink="http://www.w3.org/1999/xlink" xmlns:dc="http://purl.org/dc/elements/1.1/" xmlns:svg="http://www.w3.org/2000/svg" xmlns:ns1="http://sozi.baierouge.fr" id="svg2" sodipodi:docname="Barb'sFish.svg" sodipodi:modified="true" viewBox="0 0 603.2 246.87" sodipodi:version="0.32" inkscape:output_extension="org.inkscape.output.svg.inkscape" inkscape:version="0.45" sodipodi:docbase="C:\Program Files\Inkscape\Rita'sGraphics"><defs id="defs4"><linearGradient id="linearGradient12826" y2="265.5" gradientUnits="userSpaceOnUse" x2="451.06" gradientTransform="matrix(.99783 .065807 -.065807 .99783 243.38 -755.82)" y1="265.5" x1="-213.36" inkscape:collect="always"><stop id="stop12822" style="stop-color:#2358e6" offset="0"></stop><stop id="stop12824" style="stop-color:#2358e6;stop-opacity:0" offset="1"></stop></linearGradient><linearGradient id="linearGradient16444" y2="148.49" gradientUnits="userSpaceOnUse" x2="322.94" y1="148.49" x1="-131.66" inkscape:collect="always"><stop id="stop11009" style="stop-color:#1fd7c3" offset="0"></stop><stop id="stop11011" style="stop-color:#1fd7c3;stop-opacity:0" offset="1"></stop></linearGradient><linearGradient id="linearGradient16446" y2="65.889" gradientUnits="userSpaceOnUse" x2="158.62" y1="65.889" x1="68.275" inkscape:collect="always"><stop id="stop10086" style="stop-color:#d9c216" offset="0"></stop><stop id="stop10088" style="stop-color:#d9c216;stop-opacity:0" offset="1"></stop></linearGradient><radialGradient id="radialGradient16448" gradientUnits="userSpaceOnUse" cy="61.202" cx="118.93" gradientTransform="matrix(1 0 0 .84698 0 9.3653)" r="23.145" inkscape:collect="always"><stop id="stop10985" style="stop-color:#1b97ce" offset="0"></stop><stop id="stop10987" style="stop-color:#1b97ce;stop-opacity:0" offset="1"></stop></radialGradient><linearGradient id="linearGradient16450" y2="272.17" gradientUnits="userSpaceOnUse" x2="456.57" gradientTransform="matrix(.99968 .025421 -.025421 .99968 1249.7 -148.61)" y1="272.17" x1="-215.97" inkscape:collect="always"><stop id="stop11927" style="stop-color:#244fcf" offset="0"></stop><stop id="stop11929" style="stop-color:#244fcf;stop-opacity:0" offset="1"></stop></linearGradient><linearGradient id="linearGradient16452" y2="260.26" gradientUnits="userSpaceOnUse" x2="827.03" y1="260.26" x1="750.93" inkscape:collect="always"><stop id="stop14610" style="stop-color:#19b1c1" offset="0"></stop><stop id="stop14612" style="stop-color:#19b1c1;stop-opacity:0" offset="1"></stop></linearGradient><linearGradient id="linearGradient16454" y2="260.26" gradientUnits="userSpaceOnUse" x2="827.03" y1="260.26" x1="750.93" inkscape:collect="always"><stop id="stop14602" style="stop-color:#18d3e3" offset="0"></stop><stop id="stop14604" style="stop-color:#18d3e3;stop-opacity:0" offset="1"></stop></linearGradient><linearGradient id="linearGradient16456" y2="239.34" gradientUnits="userSpaceOnUse" x2="1229.8" y1="239.34" x1="1046.2" inkscape:collect="always"><stop id="stop15505" style="stop-color:#1abdd8" offset="0"></stop><stop id="stop15507" style="stop-color:#1abdd8;stop-opacity:0" offset="1"></stop></linearGradient><linearGradient id="linearGradient16458" y2="239.34" gradientUnits="userSpaceOnUse" x2="1229.8" y1="239.34" x1="1046.2" inkscape:collect="always"><stop id="stop15513" style="stop-color:#21c8d6" offset="0"></stop><stop id="stop15515" style="stop-color:#21c8d6;stop-opacity:0" offset="1"></stop></linearGradient><linearGradient id="linearGradient16460" y2="296.13" gradientUnits="userSpaceOnUse" x2="1656.8" y1="296.13" x1="1161.4" inkscape:collect="always"><stop id="stop16416" style="stop-color:#1babbe" offset="0"></stop><stop id="stop16418" style="stop-color:#1babbe;stop-opacity:0" offset="1"></stop></linearGradient><linearGradient id="linearGradient16462" y2="296.13" gradientUnits="userSpaceOnUse" x2="1656.8" y1="296.13" x1="1161.4" inkscape:collect="always"><stop id="stop16424" style="stop-color:#28a1bd" offset="0"></stop><stop id="stop16426" style="stop-color:#28a1bd;stop-opacity:0" offset="1"></stop></linearGradient><radialGradient id="radialGradient17357" gradientUnits="userSpaceOnUse" cy="-460.44" cx="23.082" gradientTransform="matrix(1 0 0 1.1419 0 65.348)" r="69.296" inkscape:collect="always"><stop id="stop17353" style="stop-color:#1d83e5" offset="0"></stop><stop id="stop17355" style="stop-color:#1d83e5;stop-opacity:0" offset="1"></stop></radialGradient><radialGradient id="radialGradient17365" gradientUnits="userSpaceOnUse" cy="-460.44" cx="23.082" gradientTransform="matrix(1 0 0 1.1419 0 65.348)" r="69.296" inkscape:collect="always"><stop id="stop17361" style="stop-color:black" offset="0"></stop><stop id="stop17363" style="stop-color:black;stop-opacity:0" offset="1"></stop></radialGradient><radialGradient id="radialGradient19187" gradientUnits="userSpaceOnUse" cy="-466.21" cx="-80.85" gradientTransform="matrix(1 0 0 .84754 0 -71.077)" r="10.703" inkscape:collect="always"><stop id="stop19183" style="stop-color:#fafafa" offset="0"></stop><stop id="stop19185" style="stop-color:#fafafa;stop-opacity:0" offset="1"></stop></radialGradient><linearGradient id="linearGradient19195" y2="-466.21" gradientUnits="userSpaceOnUse" x2="-70.147" y1="-466.21" x1="-91.553" inkscape:collect="always"><stop id="stop19191" style="stop-color:#f5e9e9" offset="0"></stop><stop id="stop19193" style="stop-color:#f5e9e9;stop-opacity:0" offset="1"></stop></linearGradient><linearGradient id="linearGradient20098" y2="-340" gradientUnits="userSpaceOnUse" x2="-82.77" y1="-340" x1="-265.83" inkscape:collect="always"><stop id="stop20094" style="stop-color:#26d7cf" offset="0"></stop><stop id="stop20096" style="stop-color:#26d7cf;stop-opacity:0" offset="1"></stop></linearGradient><linearGradient id="linearGradient20991" y2="-340" gradientUnits="userSpaceOnUse" x2="-82.77" y1="-340" x1="-265.83" inkscape:collect="always"><stop id="stop20987" style="stop-color:#2eaba7" offset="0"></stop><stop id="stop20989" style="stop-color:#2eaba7;stop-opacity:0" offset="1"></stop></linearGradient><radialGradient id="radialGradient21886" gradientUnits="userSpaceOnUse" cy="-463.81" cx="-83.126" gradientTransform="matrix(1 0 0 1.2693 0 124.9)" r="13.626" inkscape:collect="always"><stop id="stop21882" style="stop-color:#f7f7f7" offset="0"></stop><stop id="stop21884" style="stop-color:#f7f7f7;stop-opacity:0" offset="1"></stop></radialGradient><linearGradient id="linearGradient21894" y2="-463.81" gradientUnits="userSpaceOnUse" x2="-69.5" y1="-463.81" x1="-96.752" inkscape:collect="always"><stop id="stop21890" style="stop-color:#f9f9f9" offset="0"></stop><stop id="stop21892" style="stop-color:#f9f9f9;stop-opacity:0" offset="1"></stop></linearGradient><linearGradient id="linearGradient22799" y2="-461.83" gradientUnits="userSpaceOnUse" x2="-31.875" y1="-461.83" x1="-113.18" inkscape:collect="always"><stop id="stop22795" style="stop-color:#dfac1a" offset="0"></stop><stop id="stop22797" style="stop-color:#dfac1a;stop-opacity:0" offset="1"></stop></linearGradient><linearGradient id="linearGradient22807" y2="-461.83" gradientUnits="userSpaceOnUse" x2="-31.875" y1="-461.83" x1="-113.18" inkscape:collect="always"><stop id="stop22803" style="stop-color:#e4bc1a" offset="0"></stop><stop id="stop22805" style="stop-color:#e4bc1a;stop-opacity:0" offset="1"></stop></linearGradient><linearGradient id="linearGradient23720" y2="-477.42" gradientUnits="userSpaceOnUse" x2="-21.816" y1="-477.42" x1="-89.071" inkscape:collect="always"><stop id="stop23716" style="stop-color:#deb61b" offset="0"></stop><stop id="stop23718" style="stop-color:#deb61b;stop-opacity:0" offset="1"></stop></linearGradient><linearGradient id="linearGradient23728" y2="-477.42" gradientUnits="userSpaceOnUse" x2="-21.816" y1="-477.42" x1="-89.071" inkscape:collect="always"><stop id="stop23724" style="stop-color:#cfae1d" offset="0"></stop><stop id="stop23726" style="stop-color:#cfae1d;stop-opacity:0" offset="1"></stop></linearGradient><radialGradient id="radialGradient24657" gradientUnits="userSpaceOnUse" cy="-398.59" cx="557.26" gradientTransform="matrix(.93412 -.35695 .20272 .53052 103.23 11.782)" r="32.079" inkscape:collect="always"><stop id="stop24651" style="stop-color:#302e8a" offset="0"></stop><stop id="stop24653" style="stop-color:#302e8a;stop-opacity:0" offset="1"></stop></radialGradient><radialGradient id="radialGradient24667" gradientUnits="userSpaceOnUse" cy="-398.59" cx="557.26" gradientTransform="matrix(.93412 -.35695 .20272 .53052 103.23 11.782)" r="32.079" inkscape:collect="always"><stop id="stop24661" style="stop-color:#323478" offset="0"></stop><stop id="stop24663" style="stop-color:#323478;stop-opacity:0" offset="1"></stop></radialGradient></defs><g id="layer1" inkscape:label="Layer 1" inkscape:groupmode="layer" transform="translate(-417.89 -179.57)"><path id="path10094" style="color:#000000;stroke:#000000;stroke-width:1px;fill:none" d="m-451.43 478.08c-1.85 0.46 0-3.81 0 0z"></path><path id="path18294" style="color:#000000;stroke:#000000;stroke-width:1px;fill:none" d="m-771.43-544.78c-0.95 0 1.91 0 0 0z"></path><g id="g24669" transform="matrix(.59889 0 0 .59889 619.31 541.16)"><g id="g23730"><g id="g17387"><path id="path11933" style="opacity:.19209;fill-rule:evenodd;color:#000000;stroke:url(#linearGradient12826);stroke-width:1.6698px;fill:#2059f0" d="m84.161-599.32c17.819-5.23 55.799-0.36 83.239-3.1 39.47-3.93 95.33 15.73 129.83 28.61 42.49 15.86 82.03 39.13 121.87 62.44 33.03 19.34 56.46 52.35 90.32 63.22 17.77 5.71 28.71 13.35 47.71 14.61 15.28 1 30.32-26.5 36.85-37.66 10.3-17.61 22.2-32.89 37.41-46.21 31.25-27.39 20.17 3.46 10.08 20.71-8.77 14.98-1.9 34.77 16.95 46.93 8.84 5.7-6.15 23.64 0.78 31.55 2.34 2.66-11.37 15.43 9.15 34.96 8.42 8.01-17.33 37.91-21.83 27.19-8.25-19.63-6.73-42.43-25.13-53.19-13.92-8.15-12.2-29.61-33.65-10.81-17.94 15.72-46.36 2.47-68.04-10.22-14.53-8.5-28.3-10.64-44.49-20.11-29.3-17.15-51.13-37.6-85.75-45.74-29.9-7.04 13.58 36.11 16.57 52.63 5.43 29.97-15.92 24.86-20.14 1.53-5.82-32.15-52.87-66.68-55.89-20.86-0.31 4.75-0.63 9.5-0.94 14.25-0.66 9.99-49.66-70.95-52.32-75.03-8.01-12.29-2.27 10.97-26.79 15.41-15.51 2.81-8.52-30.87-17.13-44.08-45.56-69.89 15.58 47.18-35.15 12-22.11-15.33-62.75-58.72-53.8-9.27 7.48 41.3 36.89 48.51 33.9 93.86-2.66 40.39-13.58-25.72-20.17-41.42-21.95-52.21-24.53-32.71-23 1.35 1.63 36.36-38.196-23.75-43.923-28.67-29.759-25.54-4.08 29.88 2.693 45.99 8.35 19.87 19.11 22.08 11.25 46.56-15.797 49.16-18.051 13.14-16.357-12.53 1.603-24.32-12.178-37.42-19.047-58.53-5.981-18.37-7.452-33.37-10.871-52.25-3.512-19.4-69.417-24.63-24.342-21.65 17.022 1.12 36.615-14.67 50.158-22.47z"></path><g id="g17371" inkscape:export-ydpi="90" inkscape:export-xdpi="90"><g id="g16430" transform="translate(-1065.7 -602.86)"><g id="g11015" transform="translate(882.86 71.429)"><path id="path5637" style="opacity:.41243;fill-rule:evenodd;color:#000000;stroke:#187272;stroke-width:14.14;fill:#78cbc7" d="m-88.571 140.93c-10.504 7.81-40.619 17.77-57.139 34.29-8.91 8.9 71.688-3.64 34.28 5.71-26.51 6.63 15.479 28.1 20.001 37.15 6.631 13.26 41.743 11.77 54.286 14.28 28.869 5.78 64.805 27.65 91.429 42.86 8.144 4.65 17.143 7.62 25.714 11.43 45.95 20.42 86.63 30.94 134.29 42.85 36.12 9.04 66.29-1.71 97.14-17.14 29.02-14.51 50.49-40.93 80-11.43 27.81 27.82 67.86 0 97.14 0 16.35 0 51.41-35.98 62.86-42.85 28.77-17.27 47.68-39.56 77.14-54.29 46.73-23.36 34.11-29.15 2.86-5.71-19.14 14.35-43.09 20.11-60 28.57-20.26 10.13-49.08 17.27-71.43 22.85-32.2 8.05 51.28-25.62 80-42.85 27.96-16.78 51.86-25.89 80-37.15 33.32-13.32 39.98-18.38 71.43 8.58 31.09 26.64 6.45 46.96 57.14 34.28 50.5-12.62 14.06 38.04 34.29-42.86 4.5-18-28.57-41.05-28.57-65.71 0-24.502 16.47-47.005 25.71-68.571 5.66-13.199-29.16-47.664-45.71-54.285-12.53-5.012-14.4 45.991-20 60-9.96 24.89-10.54 44.063-40 51.428-50.44 12.608-79.07-17.149-125.72-37.143-22.88-9.807-79.51-44.739-91.43-68.571-21.58-43.163-122.25-38.737-157.14-45.714-34.74-6.948-77.07-5.727-111.43 0-32.4 5.4-54.67 20.194-82.86 34.285-29.51 14.755-52.663 28.072-79.996 48.572-21.291 15.969-53.953 17.475-34.285 37.143 2.615 2.615-53.464 40.076-62.858 45.716-31.104 18.66-47.369 29.4-80.001 45.71"></path><path id="path6524" style="color:#000000;stroke:#000000;stroke-width:1.6698px;fill:none" d="m177.14 163.79c15.98 11.13 60.95-5.33 91.43-11.43 17.17-3.43 34.75-15.83 51.43-20 6.73-1.68 13.33-3.81 20-5.71 35.73-10.21-5.85 15.82-11.43 20-20.11 15.08-34.45 22.27-54.28 37.14-15.53 11.64-50.94 18.45-68.58 22.86-3.33 0.83-5.71 3.81-8.57 5.71"></path><path id="path6526" style="color:#000000;stroke:#000000;stroke-width:1.6698px;fill:none" d="m-71.429 206.65c-19.751 4.94 40.249-6.49 60-11.43 22.25-5.56 46.592-0.22 68.572-5.71 14.311-3.58 20.651-1.76 34.286-8.58"></path><path id="path6530" style="color:#000000;stroke:#000000;stroke-width:1.6698px;fill:none" d="m-125.71 180.93c3.47-0.87 42.125 9.47 57.139 5.72 37.803-9.45-20.148 8.64-31.429 14.28-14.01 7.01-15.92-3.67-25.71-20z"></path><path id="path6532" style="opacity:.60452;fill-rule:evenodd;color:#000000;stroke:url(#linearGradient16444);stroke-dasharray:1.6697678, 13.35814238;stroke-width:1.6698;fill:#abe2e0" d="m-128.57 183.79c10.47-5.71 20.95-11.43 31.427-17.14 27.302-14.89 55.828-34 71.429-60 14.68-24.47 0.567-29.96 45.714-42.859 39.976-11.422 65.208 36.359 122.86 17.143 17.63-5.879 77.57-32.644 40-51.429-1.85-0.923 30.98-32.505 20 11.429-8.38 33.5 57.73 21.178 71.43 48.571 0.74 1.493 33.47 10.945 34.28 11.425 53.21 31.93-61.32 60.6-97.14 65.72-55.59 7.94-45.72 52 5.71 31.43 36.1-14.44 124.29-15.15 48.57 0-65.05 13.01 91.69-34.07 20 17.14-36.85 26.33-80.35 2.5-57.14 25.71 12.65 12.66-56.57 6.86-48.57 22.86 6.1 12.2-40-5.06-40 8.57 0 4.67-45.714-25.71-45.714 5.72 0 8.54-124.85-29.68-137.14-34.29-68.056-25.52 22.119-22.62-82.856-34.29-4.84-0.53 91.069-20 34.281-20-66.771 0-33.401-7.58-14.281-17.14"></path><path id="path7419" style="opacity:.76836;color:#000000;stroke:url(#linearGradient16446);stroke-width:10.531;fill:none" d="m71.429 66.648c8.242-15.562 27.811-20.524 48.571-25.714 8.52-2.13 17.14 3.809 25.71 5.714 25.94 5.763-7.27 38.247-14.28 40-26.06 6.515-53.847 10.771-60.001-20z"></path><path id="path10096" style="fill-rule:evenodd;color:#000000;stroke:#000000;stroke-width:1.6698px;fill:url(#radialGradient16448)" d="m100 75.219c-12.941 3.236 11.15-26.747 22.86-31.428 21.16-8.466 20.04 16.991 17.14 28.571-3.56 14.238-33.33 5.524-40 2.857z"></path></g><path id="path11030" sodipodi:nodetypes="csssssssssssssssssssssssssc" style="opacity:.12429;fill-rule:evenodd;color:#000000;stroke:url(#linearGradient16450);stroke-dasharray:1.6697678, 10.01860679;stroke-width:1.6698;fill:#2252eb" d="m1567.7 157.65c9.3-4.01 44.9-35.96 55.9-61.455 11.8-27.546 47.1-28.869 60-1.331 8.1 17.346 5 54.586 12.4 74.626 5.8 15.66-6.8 42.56-7.2 59.83-1.1 43.71-18.9 2.67-25.4-14.93-9.1-24.68-43.9-16.16-59.4-24.38-27.8-14.81-15.9-15.5-37.3 4.77-5.6 5.41 2.6-21.26-5.1-22.99-25.8-5.85-50-14.53-67.7-33.16-35-36.84-34.6-19.03-46 7.4-16.3 38.11-67.9-11.07-83.3 17.89-17.2 32.31-30.1 59.25-72.9 58.16-22.6-0.57-6.4-45.16-1.5-54.34 6.7-12.49-26.8-21.3-39.6-15.29-43.1 20.18-51.7 3.53-56.6-24.31-0.4-2.44-37.5-2.76-47.4-46.931-0.8-3.833-1.7-7.665-2.5-11.498-4.4-19.66-53.3-39.322-70.3-44.659-46.6-14.594-65.3 24.957-11.5-0.29 3.9-1.808 7.7-3.615 11.6-5.422 24-11.262 49.7-13.026 77.5-12.32 66.6 1.6949 118.1 9.448 173.2 44.417 9 5.709 18.8 10.005 28.2 15.008 40.1 21.351 80.8 19.825 119 40.185 26.9 14.28 76 30.08 95.9 51.02 9.6 10.11-49.2 6.92 0 0z"></path><path id="path13713" style="fill-rule:evenodd;color:#000000;stroke:url(#linearGradient16454);stroke-width:1.6698px;fill:url(#linearGradient16452)" d="m751.43 246.65c14.43 8.2 49.34 5.71 74.28 5.71 6.71 0-29.67 18.13-37.14 20-23.54 5.89-37.14-5.9-37.14-25.71z"></path><path id="path14616" style="fill-rule:evenodd;color:#000000;stroke:url(#linearGradient16458);stroke-width:1.6698px;fill:url(#linearGradient16456)" d="m1077.1 255.22c4.7-0.89 41.1-2.91 60-14.29 14.7-8.81 31-15.49 45.8-22.85 27-13.53 28.2-18.72 42.8-11.43 17.3 8.62-33.1 19.86-48.6 31.43-19 14.27-30.7 21-54.2 25.71-14.5 2.9-28.6 7.84-42.9 11.43-6.5 1.63 0.6-14.23-2.9-20-0.2-0.37 39 15.58 0 0-8.8-3.54-19 0-28.5 0-9.6 0 19.2-1.87 28.5 0z"></path><path id="path15519" style="opacity:.35028;fill-rule:evenodd;color:#000000;stroke:url(#linearGradient16462);stroke-width:1.6698px;fill:url(#linearGradient16460)" d="m1162.9 389.51c8.6-11.9 24.9-37.29 40-48.58 26.2-19.72 63.5 1.07 91.4 5.72 4.8 0.8 9.5 1.9 14.3 2.86 22.6 4.52 48.3-14.01 60-25.72 14.7-14.71 37.3-20.06 60-25.71 19.8-4.96 49.3-36.08 68.5-45.72 18.4-9.18 39.3-13.91 57.2-22.85 24.5-12.26 62.3 7.98 82.8 2.85 3.5-0.87-2.2-18.97 17.2-22.85 10.6-2.13-23.8 0.89-31.4 8.57-34 33.94-41.6-36.59-48.6-8.57-3.1 12.22-57.3 25.13-65.7 31.42-23.4 17.55-49.4 13.63-74.3 28.58-24.8 14.9-46.7 26.21-74.3 40-3.8 1.9-7.6 3.8-11.4 5.71-23.7 11.83-63.1 4.43-88.6-2.86-29-8.3 1.5-20.75-45.7 2.86-15.7 7.84-22.5 18.98-28.6 34.29-8 20.06-28.5 11.75-22.8 40z"></path></g><path id="path16464" style="opacity:.25424;fill-rule:evenodd;color:#000000;stroke:url(#radialGradient17365);stroke-width:1.6698px;fill:url(#radialGradient17357)" d="m-37.143-524.78c10.925 9.47 33.488 13.77 54.286 8.57 63.913-15.98-8.2937 42.72-25.714 51.43-5.501 2.75 40.55-16.02 65.714 2.86 21.162 15.87 30.205 32.66 34.286 57.14 4.201 25.21-22.001 19.26-40 22.86-10.838 2.16 0.698-25.78-2.858-40-4.349-17.4-27.985-27.71-42.857-31.43-3.8092-0.95-7.6188-1.91-11.428-2.86-19.305-4.83-36.768-0.37-17.143-20 21.398-21.4-11.083-43.23-22.857-62.86"></path></g></g><path id="path17407" style="stroke-opacity:.94631;fill-rule:evenodd;color:#000000;stroke:url(#linearGradient19195);stroke-width:1.6698px;fill:url(#radialGradient19187)" d="m-82.857-457.64l7.143-2.85c10.565-4.23 2.609-14.29-5.715-14.29-11.563 0-13.506 14.12-1.428 17.14z"></path><path id="path19197" style="opacity:.69492;fill-rule:evenodd;color:#000000;stroke:url(#linearGradient20098);stroke-width:1.6698px;fill:url(#linearGradient20991)" d="m-261.43-330.49c5.6 0.93 18.76 2.85 28.57 2.85 5.53 0 16.76-5.97 21.43-7.14 9.16-2.29 15.86-7.14 27.14-7.14 19.12 0 33.92-2.86 51.43-2.86 11.86 0 31.7-6.97 42.86-11.43 16.299-6.52-1.403 5.7-7.143 10-7.877 5.91-20.037 9.44-29.997 11.43-16.55 3.31-24.24 2.86-41.43 0-16.57-2.76-34.1 1.35-48.57 7.14-13.02 5.21-32.77 5.72-47.15 5.72-3.01 0 1.31-5.99 2.86-8.57z"></path><path id="path20993" style="fill-rule:evenodd;color:#000000;stroke:url(#linearGradient21894);stroke-width:1.6698px;fill:url(#radialGradient21886)" d="m-80-476.21c4.733 4.05 10 11.58 10 22.86 0 17.5-22.796-6.59-24.286-8.57-6.584-8.79 4.704-27.07 14.286-14.29z"></path><path id="path21898" style="opacity:.54802;fill-rule:evenodd;color:#000000;stroke:url(#linearGradient22807);stroke-width:1.6698px;fill:url(#linearGradient22799)" d="m-64.286-450.49c-4.932-6.58-16.311-2.3-24.285-4.29-15.749-3.94-15.709-12.15-2.858-18.57 9.036-4.52 20.392-8.62 25.715-15.72 0.956-1.27-35.496 1.63-38.576 2.86-10.8 4.32-9.33 21.32-5.71 28.57 4.38 8.76 16.197 19.41 24.286 21.43 15.217 3.81 23.523 1.81 35.714-4.28 13.001-6.51 29.922-14.29 4.286-14.29-6.003 0-12.282 3.24-18.572 4.29z"></path><path id="path22827" style="opacity:.61582;fill-rule:evenodd;color:#000000;stroke:url(#linearGradient23728);stroke-width:1.6698px;fill:url(#linearGradient23720)" d="m-60-444.78c30.756-10.38 47.599-30.19 31.429-57.14-12.087-20.15-60 1.59-60 17.14 0 1.81 37.547-5.31 41.428-1.43 5.699 5.7 3.237 19.91 1.429 27.14-1.23 4.92-11.511 9.66-14.286 14.29z"></path></g><path id="path23754" style="opacity:.64972;fill-rule:evenodd;color:#000000;stroke:url(#radialGradient24667);stroke-width:1.6698px;fill:url(#radialGradient24657)" d="m523.26-377.81c8.68-5.57 21.27-20.35 28.9-32.45 9.51-15.1 14.84-24.51 17.54-2.11 3.95 32.74-2.54 4.66-27.56 31.94-8.73 9.52-25.47-4.99-30.84-12.68-2.42-3.46 22.38 1.32 26.25 0.67"></path></g></g><metadata></metadata></svg> 