<?xml version="1.0" encoding="UTF-8" standalone="no"?> <!-- Generator: Adobe Illustrator 13.0.2, SVG Export Plug-In . SVG Version: 6.00 Build 14948) --> <svg xmlns:rdf="http://www.w3.org/1999/02/22-rdf-syntax-ns#" xmlns="http://www.w3.org/2000/svg" xmlns:cc="http://web.resource.org/cc/" xmlns:xlink="http://www.w3.org/1999/xlink" xmlns:dc="http://purl.org/dc/elements/1.1/" xmlns:svg="http://www.w3.org/2000/svg" xmlns:inkscape="http://www.inkscape.org/namespaces/inkscape" xmlns:sodipodi="http://sodipodi.sourceforge.net/DTD/sodipodi-0.dtd" xmlns:ns1="http://sozi.baierouge.fr" id="love_xA0_Image_1_" style="enable-background:new 0 0 231.784 332.648" xml:space="preserve" viewBox="0 0 231.784 332.648" y="0px" x="0px"> <g> <path style="clip-rule:evenodd;fill-rule:evenodd" d="m126.63 36c1.152-0.2 3.374 6.988 3.601 8.16-2.12-1.051-3.79-6.03-3.6-8.16"></path> <path style="clip-rule:evenodd;fill-rule:evenodd" d="m117.27 56.16c-1.097-0.028-3.732 2.575-2.884-0.465 0.809-2.904-1.808 0.035-2.636-0.735 0.77-2.976 5.24-1.182 5.52 1.2"></path> <path style="clip-rule:evenodd;fill-rule:evenodd" d="m102.87 61.68c1.848 0.423 4.244 0.822 5.28 2.64-0.88 1.027-2.005-0.72-3.12-0.48-0.086 0.924 1.365 0.26 0.96 1.44-1.725 0.402-3.21-1.392-1.44-1.2-0.15-1.048-0.944-1.363-1.92-1.2-0.08-0.437 0-0.837 0.24-1.2"></path> <path style="clip-rule:evenodd;fill-rule:evenodd" d="m136.95 68.16c0.995 2.125 1.239 5 1.68 7.68-1.67-1.302-1.78-5.397-1.68-7.68z"></path> <path style="clip-rule:evenodd;fill-rule:evenodd" d="m123.75 69.36c1.465 0.395 1.738 4.539 2.1 5.821 0.218 0.777 0.42 2.528 1.004 3.136 0.455 0.474 1.099 0.511 0.977 1.363-2.96 0.494-5.16-9.84-4.08-10.32"></path> <path style="clip-rule:evenodd;fill-rule:evenodd" d="m130.47 82.08c-0.841 1.229-2.772-0.305-2.159-1.2 0.88-0.58 2.02 0.28 2.16 1.2z"></path> <path style="clip-rule:evenodd;fill-rule:evenodd" d="m26.313 235.44c-2.016-5.597-2.891-11.518-3.58-17.401-0.664-5.662-2.59-12.671-0.685-18.25 1.568-4.593-0.392-9.199 1.065-13.78 1.096-3.445 2.658-9.743 7.04-10.568 0.179 2.014-1.913 2.892-2.88 4.319-1.798 2.656-2.858 5.938-2.875 9.146-0.014 2.803 0.487 5.596 0.208 8.399-0.299 2.999-1.755 5.806-1.653 8.855 0.357 10.625 2.762 21.488 5.28 31.68 0.662 2.675 1.993 5.134 3.086 7.645 0.837 1.926 1.508 5.06 2.99 6.531 1.827 1.814 2.782 4.237 4.082 6.42 1.489 2.499 3.724 4.311 5.999 6.065 4.693 3.62 7.917 7.985 11.92 12.267 1.333 1.426 3.173 2.819 5.158 3.246 0.946 0.203 3.71 1.441 3.485 2.946-10.672-2.05-13.802-12.081-22.32-17.52-4.447-2.847-7.031-7.707-9.68-12.139-2.895-4.842-5.489-10.757-6.16-16.422-0.68 0.366-3.826 7.002-5.226 4.052-0.247-0.52-2.125-1.402-2.644-2.103-1.162-1.567-2.686-3.114-3.48-4.853-2.285-5.005-3.606-10.093-5.211-15.337-1.181-3.86-0.849-8.524-3.176-11.893-0.783-1.133-0.468-2.986-0.703-4.325-0.48-2.734-1.172-5.423-1.915-8.096-1.625-5.848-3.518-11.703-3.958-17.794-0.084-1.163-0.781-4.778 0.393-5.652-0.961-0.759-1.253-1.886-0.24-2.88-0.145-1.615-0.214-3.236-0.218-4.856-0.016-6.265 0.964-12.462 1.945-18.632 0.272-1.71 0.213-5.461 1.576-6.088 1.85-0.85 0.776 3.378 0.652 4.674-0.483 5.064-1.802 10.156-1.897 15.22-0.104 5.574 0.025 11.186 0.154 16.759 0.064 2.764 0.427 5.396 0.912 8.111 0.42 2.357 1.557 4.496 1.896 6.827 0.317 2.178 0.659 3.956 1.514 6.005 1.156 2.773 0.608 5.848 1.386 8.7 0.758 2.783 1.993 5.042 2.376 7.974 0.353 2.704 1.157 5.043 2.035 7.602 1.736 5.061 2.401 9.878 5.234 14.563 0.755 1.249 2.683 4.632 4.515 4.422 1.791-0.22 2.081-3.12 3.6-3.85"></path> <path style="clip-rule:evenodd;fill-rule:evenodd" d="m27.273 153.36c1.549 0 4.029 5.636 4.952 7.098 1.744 2.764 3.23 5.54 4.518 8.542 2.748 6.405 6.795 12.176 7.98 19.169 0.964 5.685 1.478 11.295 1.989 17.031 0.283 3.161 0.684 6.274 1.04 9.429 0.237 2.1 0.966 6.677-0.327 8.572-2.201 3.226-0.734-3.691-0.701-4.349 0.16-3.167-0.166-6.347-0.52-9.49-0.358-3.181-0.864-6.267-1.488-9.404-0.742-3.727-0.405-7.581-1.123-11.318-1.383-7.197-5.666-14.656-8.741-21.29-0.999-2.153-2.53-4.254-3.739-6.31-1.279-2.17-4.443-5.08-3.84-7.68"></path> <path style="clip-rule:evenodd;fill-rule:evenodd" d="m87.753 176.16c2.326 0 1.191 12.416 1.258 14.506 0.179 5.591 0.62 11.17 1.126 16.739 0.45 4.952 0.97 9.9 1.312 14.861 0.305 4.438 1.917 8.646 2.065 13.174-1.721-0.666-1.664-2.821-1.92-4.32-0.425-2.49-1.029-4.999-1.44-7.44-0.875-5.161-0.823-10.647-1.298-15.87-0.509-5.593-1.007-11.189-1.292-16.799-0.253-4.95 0.347-10 0.189-14.85"></path> <path style="clip-rule:evenodd;fill-rule:evenodd" d="m77.913 188.16c1.093 0.244 0.985 2.573 0 2.88 0.153 2.354 0.238 4.713 0.343 7.07 0.247 5.515 0.583 10.957 0.657 16.475 0.033 2.476 0.791 4.544 1.16 6.936 0.463 3 0.464 6.05 0.925 9.05 0.893 5.815 2.398 11.578 3.52 17.356 2.055 10.594 3.423 21.279 7.965 31.201 1.859 4.06 3.89 8.303 6.261 12.09 0.833 1.33 1.921 2.397 3.346 3.08 1.205 0.577 4.165 0.228 4.624 1.862-8.439 3.715-14.727-13.017-16.602-18.477-1.724-5.021-3.241-9.918-4.546-15.002-1.271-4.95-1.92-10.09-2.854-15.112-1.796-9.654-3.839-19.39-4.797-29.169-0.328-3.37-2.16-30.24 0.002-30.24"></path> <path style="clip-rule:evenodd;fill-rule:evenodd" d="m151.83 200.64c0.832-0.145 2.029 8.861 2.366 10.223 1.046 4.234 2.067 8.519 3.45 12.655 3.017 9.03 4.575 18.536 6.903 27.763-2.692-1.819-3.24-7.91-3.84-10.8-1.014-4.893-2.257-9.822-3.634-14.625-2.32-8.1-4.98-16.89-5.25-25.22"></path> <path style="clip-rule:evenodd;fill-rule:evenodd" d="m133.83 226.8c1.608 0 5.263 16.018 6.054 18.478 2.262 7.031 3.271 14.365 5.467 21.362 1.742 5.56 3.525 11.393 7.181 16.039 1.909 2.428 3.712 3.282 6.376 4.582 1.037 0.506 2.211 0.69 3.221 1.222 0.592 0.312 1.063 2.396 0.289 2.286-0.522-0.074-0.637-1.087-1.227-1.089-1.624-0.302-3.199-0.839-4.654-1.623-2.65-1.426-4.758-3.602-6.646-5.907-3.847-4.698-5.445-12.292-6.749-18.084-1.381-6.135-3.654-12.177-4.535-18.378-0.9-6.38-4.77-12.35-4.77-18.89"></path> <path style="clip-rule:evenodd;fill-rule:evenodd" d="m95.913 244.8c1.609 0 2.806 10.609 3.381 12.591 1.362 4.689 3.132 9.245 4.93 13.78 1.412 3.562 3.567 8.246 8.015 7.994 2.376-0.135 8.338 3.8 7.193 6.675-1.66 0.141-2.074-1.61-2.879-2.64-0.772-0.987-1.632-1.889-2.64-2.64-1.103 0.332-2.268 0.431-3.387 0.118-4.4-1.229-6.108-5.003-7.744-8.872-3.441-8.15-7.248-18.15-6.867-27.01"></path> <path style="clip-rule:evenodd;fill-rule:evenodd" d="m159.99 280.56c3.598 0.665 7.319-0.264 10.964 0.291 3.673 0.559 7.067 0.288 10.604 0.481 3.078 0.167 5.361 2.764 7.255 4.911 0.981 1.112 1.958 2.241 3.098 3.196 1.196 1.002 2.923 1.425 3.36 3.12-7.317-0.651-8.418-10.518-16.401-10.316-3.082 0.078-6.662 1.169-9.519-0.484-1.52 0.37-9.35 1.36-9.35-1.2"></path> <path style="clip-rule:evenodd;fill-rule:evenodd" d="m213.03 307.92c-1.664-0.027-3.066-1.484-3.931-2.754-0.994-1.461-2.335-2.104-3.692-3.26-1.267-1.08-7.778-5.803-7.737-7.187 2.347-1.541 7.505 5.436 9.031 6.569 0.93 0.69 6.96 5.99 6.33 6.63"></path> <path style="clip-rule:evenodd;fill-rule:evenodd" d="m213.75 312c-0.451 0.866-3.781 0.768-4.675 0.904-2.57 0.393-4.012-1.812-6.365-2.104 0-2.528 3.544 0.33 4.294 0.705 2.14 1.08 4.87-1.48 6.74 0.5"></path> <path style="clip-rule:evenodd;fill-rule:evenodd" d="m71.193 90c0.937-1.287 1.468-2.831 1.984-4.319 0.621-1.79 1.533-3.549 2.096-5.281 1.119-3.432 1.232-7.814 4.08-10.56 1.253-4.097 3.14-7.999 5.706-11.437 1.273-1.706 2.831-3.041 3.691-4.977 0.895-2.016 2.146-3.835 3.455-5.6 1.03-1.391 2.091-2.761 3.025-4.219 1.039-1.623 0.401-3.489 1.262-5.301 0.645-1.358 1.897-2.745 3.545-2.623 0.703 0.077 1.329 0.342 1.876 0.796 0.609-0.599 0.922-1.467 1.697-1.903 2.971-1.669 3.663-5.564 7.912-5.622 2.736-0.037 8.679 0.688 8.151 4.404 2.452-0.764 2.856-2.066 5.722-0.668 1.124 0.549 3.54 1.573 3.959 2.912 0.452 1.442 3.23 1.051 4.435 2.785 1.262 1.816-0.109 5.6 1.143 6.595 2.069 1.645 3.243 4.341 4.782 6.737 1.528 2.378 3.568 4.751 4.394 7.469 1.691 5.567 3.552 10.353 5.731 15.731 1.915 4.723 2.619 9.679 4.875 14.36 2.354 4.888 4.564 10.101 4.688 15.667 0.062 2.785 0.983 5.608 1.54 8.324 0.374 1.822 1.353 3.369 1.484 5.077 0.433 5.585 1.873 11.025 2.22 16.612 0.691 11.144 3.683 21.3 5.5 32.308 0.958 5.802 0.805 11.72 1.253 17.573 0.187 2.443 0.63 4.822 0.988 7.242 0.394 2.653 1.862 6.342 1.48 8.959-0.341 2.335 0.272 4.475 0.759 6.76 0.558 2.621 0.546 5.899 1.791 8.299 1.148 2.215 0.976 4.957 1.577 7.34 0.902 3.573 2.062 7.076 2.942 10.655 0.71 2.886 0.697 5.721 1.874 8.468 0.971 2.266 0.688 4.869 1.881 7.04 2.925 5.319 5.934 9.857 10.599 13.851 2.77 2.372 5.776 4.459 8.899 6.338 1.524 0.918 2.278 2.343 3.617 3.516 1.419 1.244 2.712 1.729 3.553 3.413 1.595 3.195 4.359 6.018 6.475 8.879 2.213 2.815 4.33 5.736 6.929 8.218 2.182 2.084 2.428 5.403 2.137 8.262-0.186 1.819 0.838 2.362 2.097 3.358 1.177 0.931 1.311 2.322 2.319 3.353 1.848 1.884-2.281 3.182-3.331 4.05-1.925 1.591-6.092 0.327-8.23 0.12 2.502 2.854 3.859 4.826 4.05 8.575 0.197 3.881-1.244 6.344-4.91 7.797-3.38 1.339-7.014 2.104-10.659 1.868-3.627-0.234-7.902-0.378-11.322-1.556-2.124-0.731-4.992-0.765-7.267-1.138-3.936-0.646-7.592-0.942-11.563-0.351-3.92 0.584-7.751 1.634-11.66 2.28-0.958 0.159-4.586 0.005-5.097 0.895-0.491 0.855-2.166 0.022-3.32 0.247-6.601 1.283-12.845 1.305-19.567 0.634-3.244-0.324-6.739-0.613-9.884-1.492-1.551-0.433-2.71-1.521-4.395-1.549-1.546-0.024-2.614-0.241-3.987-0.979-2.271-1.221-4.752-1.609-6.943-3.19-2.942-2.122-4.788-1.667-8.16-0.576-3.12 1.009-6.655 1.896-9.898 0.843-1.322-0.431-2.153-1.705-3.172-2.572-1.212-1.03-2.675-0.812-4.005-1.575 0.022-0.91 1.172-0.773 1.2-1.68-0.909-1.428-2.208-2.527-3.303-3.801-2.176-2.531-5.257-0.046-8.093 0.075-2.598 0.111-18.879 2.132-18.338-1.413 0.35-2.291 2.92-2.73 4.778-3.188 2.739-0.675 4.419-2.2 6.716-3.674-0.415-1.532-0.861-3.057-1.385-4.556-0.653-1.867-0.483-3.699-0.917-5.64-0.41-1.831-1.016-3.614-1.35-5.463-0.242-1.342 0.303-2.72-0.214-3.974-2.165-5.254-2.236-11.331-2.615-16.849-0.168-2.475-0.274-5.065-0.292-7.67-0.009-1.397 0.576-1.367 0.587-2.661 0.014-1.545-0.218-3.12 0.075-4.651 1.244-6.497-0.926-13.188-1.126-19.71-0.232-7.548 2.416-14.865 1.956-22.428-1.252-0.048-2.312 1.884-3.187 2.584-1.498 1.198-3.178 2.173-4.987 2.816-2.852 1.015-3.863 1.391-4.425-1.764-0.409-2.295-0.561-4.627-0.666-6.952-0.19-4.211-0.961-9.855-0.017-13.783 0.473-1.968 0.083-4.26 0.366-6.293 0.374-2.683 1.298-5.493 1.225-8.212-0.114-4.206 0.368-8.519 0.38-12.833 0.014-5.215 0.551-10.603 0.99-15.804 0.764-9.027 1.894-18.121 4.08-27.36-2.506 0.588-5.043 4.922-7.174 6.474-3.356 2.442-7.019 4.384-11.306 4.326-4.372-0.06-8.44-1.937-12.735-2.505-2.918-0.386-5.205-5.204-5.505-8.055-2.902 0.911-2.382 8.618-1.733 10.716 0.705 2.28 1.062 4.86 1.974 7.044 0.915 2.192 2.996 4.083 3.36 6.48-3.771 0.564-6.057-9.95-6.528-12.295-0.53-2.643-0.898-5.379-0.581-8.073 0.149-1.271 0.462-2.525 0.99-3.694 0.882-1.953 0.779-1.103 2.279-1.138-0.521-0.978-0.779-2.006-0.72-3.12-1.242-0.01-2.613 0.9-3.84 0.48-0.656-0.911-0.676-1.763 0.27-2.424 0.694-0.486 1.755-0.822 2.13-1.656-0.268-1.488-1.098-3.034-0.48-4.56-3.998-0.265-7.362 1.64-9.375 5.122-1.139 1.969-2.012 3.017-2.557 5.301-0.579 2.426-0.115 6.104-1.168 8.188-0.401 0.794-0.231 4.924-1.771 3.546-1.209-1.082-0.631-3.178-0.357-4.523 0.507-2.494 0.221-9.849 2.989-11.154-0.753-1.089-1.583-0.853-0.978-2.562 0.457-1.288 1.666-3.373 2.842-3.975 1.509-0.772 2.727-2.16 3.994-2.508 0.579-0.251 1.08-0.614 1.5-1.088 1.061-0.983 2.135-0.723 3.514-0.849 4.334-0.396 8.605-1.277 12.936-1.708 2.456-0.244 4.924-0.345 7.392-0.271 0.389 0.079 0.614-0.069 0.677-0.443 0.271-0.622 1.428 0.463 1.929 0.572 3.36 0.729 8.011-0.565 11.352-1.092 3.996-0.63 8.497-1.526 12.151-3.324 2.337-1.15 2.344-2.103 1.374-4.45-0.874-2.111-2.087-4.074-3.114-6.111-1.708-3.39-3.815-6.244-5.29-9.714-0.502-1.181-1.712-1.642-2.617-2.445-1.694-1.502-0.728-3.442-1.385-5.32-1.464-4.186-0.355-8.052-0.727-12.49-0.191-2.281-1.721-3.484-2.643-5.428-0.912-1.922-1.583-3.949-2.352-5.93-1.449-3.733-3.088-7.767-5.433-11.007-1.106-1.529-0.831-3.734-1.662-5.476-0.873-1.829-2.132-3.527-2.623-5.518-0.951-3.865-3.392-6.959-4.819-10.642-0.335-0.855-0.608-1.729-0.819-2.623-1.267-0.6-2.455-1.349-3.583-2.178-1.835-1.348-3.511-2.893-5.297-4.303-0.93-1.708-1.525-3.807-1.186-5.758 0.321-1.846 2.46-3.609 4.066-1.682 0.238-0.438 0.355-0.907 0.352-1.408 0.207-1.038 1.362-0.332 1.787-1.027 1.84 0.708 3.315 2.106 4.297 3.798 0.936 1.611 1.439 3.447 1.625 5.292 0.096 0.954-0.305 2.005-0.163 2.91 0.209 1.323 1.07 2.036 1.088 3.476 0.056 4.4 3.579 9.752 5.163 13.827 1.958 5.037 4.289 9.823 6.589 14.706 2.397 5.087 5.024 10.076 7.362 15.188 1.686 3.688 4.583 5.892 7.481 8.403 3.541 3.069 2.541 6.521 3.035 10.911 0.523 4.625 4.065 7.402 5.763 11.489m-41.04-83.76c-1.038 0.135-1.214 1.425-2.156-0.245-0.511-0.904-2.859-4.036-2.858-0.95 0.001 3.411 3.995 8.094 7.654 8.394 0.284-3.431 0.416-9.569-3.6-11.04-0.64 1.374 0.683 2.586 0.96 3.841m80.157 24.24c-1.322 1.185-4.2 2.245-4.32 4.32 1.248-0.32 2.496 0.36 3.604 0.806 1.979 0.794 1.789-0.641 2.846-1.915 1.853-2.235 3.417 1.814 4.423 1.583 1.877-0.432 4.639 1.533 3.438 3.677-0.723 1.291-0.562 1.137 0.663 1.604 1.085 0.413 2.25 1.655 3.505 1.446-0.435-2.133-1.177-4.18-2.065-6.163-1.178-2.625-0.775-1.937-2.82-1.124-0.892 0.38-1.26 0.046-1.104-1.003-0.144-1.661-0.299-1.674-1.861-2.339-1.98-0.844-4.18-1.033-6.31-0.892m13.92 5.76c0.072 2.389 0.571 6.179 2.615 7.464 2.099 1.319 7.734 4.004 6.744 7.176 1.812-0.136 1.566-2.404 1.25-3.628-0.167-0.643-0.394-1.336-0.77-1.892-0.599 0.066-1.792 1.081-2.16 0 2.31-1.072 1.346-5.126 0.24-6.72-2.045-0.948-3.769-0.792-4.58-3.1-0.548-1.559-3.572-1.838-5.26-2.66 0.19 1.4 1.12 2.301 1.93 3.36m-9.6-1.68c-3.121-0.348-3.246 4.19-3.082 6.242 0.088 1.095 0.03 3.582 1.441 3.22 1.783-0.457 3.484-1.573 4.73-2.912 2-2.149 0.81-6.99-1.496-3.893-0.205 0.276-2.244 3.051-2.291 1.383-0.03-1.482 2.06-2.492 0.7-4.04m-11.76 3.36c1.511-0.085 2.956 0.199 4.373 0.702 1.827 0.648 3.918 1.736 3.067-1.421-2.08-0.574-6.75-2.792-7.44 0.719m-2.4-0.72c-2.8-0.382-3 3.066-3.019 5.028-0.03 3.225 0.527 5.704-1.859 8.284-3.438 3.717-3.63 6.186-3.91 11.139-0.111 1.97 0.892 3.917 0.868 6.029-1.623 1.518-3.11 3.655-2.64 6 3.338-1.494 7.615-1.354 11.04-0.24-0.098-1.257 0.222-2.39 0.48-3.6-0.119-0.562-0.938-0.159-0.72-0.96 0.179-3.244-1.581-6.154-1.68-9.36-0.068-2.188 1.427-12.174 4.08-12.48 0.588 0.974-0.435 1.166-0.72 1.92 0.031 1.39-0.558 2.685-0.48 4.08-1.982 2.29-1.651 5.771-1.207 8.536 0.421 2.626 0.549 6.21 2.644 7.667 1.365 0.949 5.172-0.361 5.523 1.797-1.487 1.01-3.794-0.021-5.292-0.467-2.134-0.637-1.403 2.218-1.119 3.516 0.2 0.912 0.658 2.508-0.549 2.951-0.91-0.313-0.745-1.711-0.72-2.4-1.122 0.368-2.288-0.584-3.36-0.72-4.155-0.524-7.088 0.759-10.313 2.785-1.527 0.959-1.05 1.262-0.247 2.735 1.163 2.132 0.95 4.392 1.2 6.72 1.685-2.208 3.522-4.344 5.812-5.948 0.952-0.667 6.468-4.259 7.148-2.692-8.565 3.643-14.352 10.961-17.76 19.44 3.173-2.024 6.657-3.502 10.08-5.04 2.979-1.337 6.481-2.643 9.67-3.543 1.799-0.508 3.962-0.209 5.131-1.644 0.907-1.114 2.022-2.042 3.249-2.785 3.149-1.908 6.897-2.661 10.51-3.067-3.095-2.344-4.676-6.812-4.895-10.556-0.12-2.056 0.175-4.162 1.208-5.972 0.49-0.859 1.15-1.674 2.007-2.191-0.369-1.209-0.039-2.456 0.463-3.565 0.593-1.307-2.177-6.162-3.553-7.402-1.065-0.96-2.685-1.453-3.802-0.471-2.146 1.886-2.099-2.967-1.747-4.163-0.787-0.198-4.088 2.917-4.56 3.6 0.219 1.77 1.285 2.427 0.394 4.138-0.832 1.596-1.952 3.029-2.554 4.742 0.822 0.478 2.529-0.466 3.042 0.629 0.825 1.764-1.713 0.211-2.276 0.871-1.025 1.2-2.414-1.786-1.576-2.945 1.107-1.532 2.539-3.002 2.491-5.035-0.812 0.019-0.736 0.886-1.339 1.181-1.729 0.849-0.515-1.687-0.581-2.141-3.029-0.129-0.792-1.225 1.2-0.96-0.065-2.237-0.595-2.696-2.309-3.451-1.058-0.466 0.557-1.161 1.013-1.075 1.015 0.193 1.912 1.374 2.016 2.366 3.438-1.539 4.363-2.95 3.501-6.56-0.432-1.811-3.384-1.917-5.289-2.372-0.911-0.226-1.835-0.368-2.772-0.428-0.62-0.596-0.87-1.781-1.9-1.921m17.04 6c5.612 0.773 9.269 6.529 14.64 7.68 0.108-2.89-3.752-4.742-5.812-6.011-1.89-1.164-7.86-5.696-8.83-1.669m-4.32 2.16c0.021 1.14-0.88 3.202 0.24 4.08 1.891-1.038 4.024-0.484 5.562 0.899 1.523 1.371 0.909 2.521 1.882 4.046 0.783 1.229 2.087 2.243 2.533 3.669 0.514 1.643-1.94 2.746-1.341 3.549 0.921 1.236 0.295 3.167 0.699 4.682 0.12 0.45 0.983 3.99-0.65 2.446-1.296-1.226-0.796-3.791-1.005-5.372-4.844 3.638-1.648 12.234 1.315 15.913 3.809 4.728 10.604 5.132 13.084 11.448 0.318-2.515-1.187-4.992-1.811-7.36-0.682-2.586-1.283-5.197-1.915-7.796-1.327-5.458-2.858-10.849-3.576-16.4-0.362-2.806-1.931-4.706-2.626-7.316-0.663-2.49 1.032-2.038-1.339-3.577-3.23-2.109-7.1-5.867-11.04-2.911m-20.157 3.6c-4.873 6.632-9.218 13.383-12.621 20.917-1.796 3.977-3.412 8.038-4.744 12.195-0.67 2.093-4.639 8.504-2.555 10.329 3.817-3.466 5.742-8.971 9.173-12.863 1.601-1.816 3.394-2.845 5.262-4.274 2.052-1.57 0.214-4.036 1.935-6.031 1.913-2.219 1.642-3.403 0.887-6.151-0.625-2.274-0.359-5.141 0.215-7.407 0.978-3.864 6.749-6.633 5.328-11.034-1.048 1.38-1.854 2.922-2.88 4.319m41.037 3.6c0.536 0.327 0.862 0.801 0.977 1.423 0.39 1.397 1.029 1.323 2.19 2.128 1.52 1.053 2.601 2.498 2.833 4.369 0.251 2.02-0.731 2.838 0.929 4.552 1.911 1.973 1.442 4.288 1.348 6.836-0.138 3.705 1.135 8.871 2.505 12.303 0.856 2.147 1.995 4.255 2.419 6.548 0.455 2.464 0.101 5.203 1.439 7.44-0.075-5.492-2.284-10.805-1.92-16.32 2.033 2.489 1.769 6.43 2.201 9.431 0.196 1.368 0.47 2.792 1.159 4.01-0.246 1.088-0.176 2.639 0.35 3.638 0.382 0.725 0.045 1.907 0.369 3.042 0.604 2.111 0.415 4.525 0.676 6.7 0.543 4.546 0.675 9.782 2.026 14.159 1.273 4.124 0.614 8.086 1.139 12.302 0.528 4.23 0.922 8.44 1.727 12.633 1.854 9.664 3.876 19.192 4.175 29.034 0.504 16.609 4.398 33.38 6.818 49.533 1.326 8.816 1.224 17.442 3.515 26.108 0.828 3.134 0.083 10.104 3.381 11.469 2.158 0.894 4.436 1.489 6.545 2.503 1.497 0.719 2.687 2.385 4.56 1.68-0.989-1.585-1.659-3.35-2.243-5.115-0.304-0.932-0.596-1.866-0.876-2.805-0.406-0.71-0.958 0.057-1.44-0.48 0.485-1.819 0.264-2.311-0.462-4.356-0.467-1.315-2.368-4.469-0.979-5.724 2.395 6.725 4.612 13.572 7.921 19.921 3.377-0.126 6.649 0.783 9.719 2.127 3.274 1.435 5.064 2.461 6.781 5.612 0.717 1.315 0.632 2.304 2.125 2.933 1.369 0.576 2.985 0.761 3.935 2.048 1.711 2.318 2.155 6.063 2.863 8.782 0.831 3.195 1.864 5.877 5.05 7.251 2.935 1.265 5.123 3.785 8.167 4.847-0.04-2.492-0.635-4.893-1.663-7.156-1.081-2.378-3.043-3.859-4.709-5.841-3.905-4.643-6.784-10.473-11.316-14.512-4.115-3.668-8.148-6.691-12.619-9.889-5.062-3.622-8.981-9.223-11.662-14.729-2.264-4.651-3.449-9.915-4.385-14.999-1.182-6.428-3.542-12.648-4.576-19.068-2.029-12.598-4.53-25.004-5.589-37.777-0.466-5.621-0.349-10.933-1.637-16.5-1.35-5.833-3.04-11.7-3.774-17.652-0.739-5.995-0.912-12.045-1.705-18.034-0.725-5.482-2.284-10.783-3.693-16.125-1.524-5.779-1.61-11.863-3.646-17.523-1.031-2.868-2.674-5.472-3.665-8.354-0.421-1.225-1.051-2.364-1.44-3.6-0.538-1.702-0.276-3.522-1.064-5.165-1.806-3.766-4.481-9.013-4.931-13.182-0.282-2.61-1.822-5.13-3.188-7.313-0.425-0.678-3.994-6.847-4.496-6.739 0.12 1.862-1.48 2.192-2.19 3.596m-5.04 4.8c0.853 3.002 1.022 6.273 1.572 9.368 0.726 4.09 2.24 7.855 2.778 11.967 0.502 3.835 2.561 7.472 3.104 11.36 0.265 1.886 0.371 3.821 1.076 5.612 0.656 1.667 1.982 3.786 1.068 5.613-0.33-1.264-1.502-8.406-2.88-8.64 0.206 4.97 3.138 9.426 2.874 14.471-0.11 2.13-0.939 4.605 0.487 6.367 1.428 1.762 2.995 3.436 4.121 5.419 2.48 4.37 1.527 9.016 0.426 13.634-0.627 2.627-2.579 10.896 1.692 11.949-3.179-5.428 0.623-10.651 2.326-15.815 0.926-2.803 0.878-5.76 0.654-8.67-0.146-1.908-1.795-5.414-0.101-6.955 1.621 3.183 1.663 8.662 1.358 12.189-0.195 2.264-0.937 4.375-1.932 6.403-1.379 2.81-1.762 4.042-0.425 7.045 1.378 3.092 4.663 5.785 5.215 8.771 0.69 3.744 0.886 7.684 0.236 11.448-0.53 3.068-1.745 6.351-4.453 8.143-2.427 1.464-7.195 2.085-5.761 6 0.562 1.534 2.097 2.528 3.091 3.758 1.43 1.766 1.696 4.423 1.453 6.612-0.184 1.646-1.09 2.245-1.824 3.576-0.489 0.886-0.347 1.925-0.079 2.854 0.383 0.692 0.974-0.209 1.41-0.177 0.211 0.015 0.093 2.571-1.867 1.371-1.305-0.799-1.971-2.012-1.993-3.535-0.025-1.718 1.239-2.994 1.25-4.619 0.011-1.638-1.51-2.489-2.64-3.359 0.589 2.928 0.487 5.937 0.96 8.88 0.456 2.847 1.513 5.591 2.008 8.455 1.138 6.581 2.895 13.063 3.817 19.68 0.861 6.177 1.006 12.487 2.083 18.673 1.157 6.644 2.957 13.235 3.852 19.912 1.28-0.744 1.33 1.01 2.16 1.44 2.123 0.491 4.153 1.303 6.239 1.92 1.694 0.501 3.44 0.83 5.103 1.438 1.464 0.535 2.72 2.253 4.258 2.402-1.279-3.464-1.157-7.225-1.92-10.8-0.806-3.781-1.853-7.25-2.295-11.137-0.93-8.174-1.636-16.139-3.15-24.224-1.332-7.114-2.177-14.525-2.863-21.719-0.79-8.275-1.889-16.532-2.935-24.779-0.947-7.466-2.125-14.683-3.396-22.062-0.646-3.749-1.664-7.223-1.757-11.065-0.111-4.642-0.174-9.091-1.103-13.665-0.862-4.251-1.587-8.444-1.967-12.771-0.172-1.946-0.04-9.815-2.073-9.823-0.843-0.003-2.343-9.358-2.624-10.383-1.196-4.345-2.905-8.525-4.157-12.853-0.031 1.808-0.864 3.469-1.369 5.168-0.443 1.495 0.087 2.636-0.311 4.134-0.514 1.933-0.479 2.887 0.349 4.712 0.766 1.688 0.01 3.303 0.884 5.115 0.714 1.482 1.498 2.965 2.312 4.395 0.372 0.669 0.79 1.307 1.255 1.915 0.294 1.273-0.569 1.208 0.336 2.396 0.76 0.996 4.531 6.366 2.305 7.444-1.199-0.778-0.76-2.221-1.2-3.36-0.794-2.048-2.222-3.834-3.068-5.889-0.729-1.771-1.553-3.456-2.42-5.162-1.145-2.25-1.112-3.866-1.472-6.229-0.253-1.656-1.226-2.647-0.794-4.419 0.573-2.349 0.96-4.75 1.441-7.12 0.369-1.814 0.717-3.635 1-5.464 0.133-0.857-0.304-3.755 0.272-4.356-0.459-0.549-0.398 0.277-0.733 0.159-0.45-0.159-0.436-0.876-0.177-1.129 0.226-0.22-1.199-2.569-1.375-3.148-0.576-1.895-3.56-6.521-2.515-8.362 1.053 1.64 1.238 3.699 2.399 5.28 0.504-1.918 0.16-4.156-1.222-5.644-0.829-0.893-2.047-0.566-2.858-1.316-0.721-0.668-0.577-1.684-1.199-2.4 0.256 3.708 2.578 7.047 2.399 10.8-1.64-1.794-2.813-6.614-3.079-8.999-0.103-0.854-0.036-1.694 0.199-2.521-0.688-0.059-1.329-0.265-1.923-0.616-1.59-0.889-2.837-2.314-4.558-2.984-0.27 2.943 1.85 5.197 2.61 7.9m-75.837 1.44c-0.296-0.584-0.202-1.558-0.96-1.68 0.296 0.584 0.203 1.558 0.96 1.68zm1.2 2.4c-0.028-0.612-0.045-1.235-0.72-1.2 0.028 0.612 0.045 1.235 0.72 1.2zm0 2.88c0.4 2.203-0.133 4.4-0.101 6.608 0.034 2.302 1.195 4.382 1.572 6.637 0.458 2.732 1.736 3.387 3.219 5.525 1.238 1.785 2.12 3.786 3.093 5.719 2.132 4.239 4.63 8.238 6.484 12.615 0.829 1.958 2.028 3.562 3.157 5.341 1.196 1.885 2.721 3.231 3.926 5.084 1.211 1.862 5.454 4.778 7.917 3.64 4.252-1.965 8.811-1.486 13.215-3.021 4.099-1.428 7.781-2.12 11.568-4.429 3.735-2.277 7.939-4.111 11.514-6.587 1.556-1.077 2.803-2.508 3.555-4.252-0.457-1.797 0.142-4.179-1.678-4.738-5.161-1.586-9.978 0.374-14.602 2.587-4.486 2.147-9.093 4.078-13.758 5.799-3.35 1.236-6.957 5.776-10.439 2.471-1.139-1.081-2.526-1.177-3.683-2.039-1.217-0.906-2.257-2.493-3.316-3.59-3.245-3.362-6.051-7.284-8.443-11.29-2.383-3.987-3.457-6.964-4.001-11.608-0.195-1.661 0.532-3.869-0.869-5.125-1.029-0.922-3.456-3.551-4.73-3.666 0.389 1.423 2.786 4.729 1.92 6.24-2.868-1.076-5.821-4.32-5.04-7.68 1.653 1.072 0.695 4.273 2.88 4.8 0.095-1.728-1.548-5.76-3.6-5.76-0.055 0.305 0.025 0.545 0.252 0.729m85.917 3.36c0.274 0.792 0.132 2.033 0.96 2.4 0.054-2.294-0.261-4.22-1.92-4.8 0.19 0.768 0.67 1.56 0.96 2.4m-57.597 28.56c0.585-1.377 0.96-2.832 1.591-4.193 0.673-1.454 2.14-2.258 2.485-3.836 0.402-1.842 0.445-12.045-2.761-8.246-2.846 3.374-5.724 6.754-7.9 10.615-0.451 0.799-0.869 1.616-1.254 2.449-0.868 1.883-0.075 1.46 1.14 2.745 1.277 1.351 2.305 2.952 3.82 4.066 0.679-1.384 1.457-2.846 2.879-3.6m41.517-13.44c-3.704-0.194-7.525 0.439-10.801 2.238-1.582 0.869-3.02 2.01-4.167 3.406-1.204 1.464-3.942 1.116-5.817 1.7-3.761 1.171-7.449 2.722-11.042 4.324-2.168 0.967-4.432 1.79-6.421 3.109-1.538 1.021-3.853 1.658-4.952 3.224 1.562 0.311 2.137 1.773 3.473 2.41 2.158 1.028 4.129-0.921 5.708-2.073 4.318-3.149 10.024-3.962 14.707-6.403 4.791-2.499 9.911-4.405 15.4-4.137 1.806 0.088 1.67 1.119 3.192 1.324 0.541-0.833 1.004-1.713 1.519-2.562 1.054-1.74 2.401-3.25 4.481-3.678-1.56-1.301-3.71-1.576-5.27-2.884m4.32 4.08c-1.744 2.551-3.857 4.812-4.56 7.92 3.151-0.214 6.983 0.482 9.84-1.2-0.247-4.355-2.074-1.93-5.04-1.44-0.71-1.667 3.46-5.315-0.24-5.28m2.64 2.64h2.16c-0.283-1.149-1.05-1.997-2.16-2.4v2.4m-6 6.72c-1.729 4.294-2.277 8.97-2.606 13.553-0.176 2.452-0.281 4.908-0.414 7.362-0.115 2.13-0.989 6.218-0.021 7.483-0.148-0.195-0.562 2.702-0.573 2.41 0.083 2-0.412 3.923-0.465 5.912-0.128 4.804 0.179 9.613 0.624 14.394 0.939 10.083 2.557 20.102 3.14 30.217 0.567 9.854 1.104 19.819 1.42 29.68 0.149 4.685 0.444 9.631 1.057 14.27 0.274 2.083 1.29 9.767 3.359 10.8-0.189-5.765 1.438-11.417 1.772-17.155 0.4-6.834 0.681-13.675 1.061-20.51 0.385-6.907 0.198-13.947 1.086-20.811 0.873-6.742 1.521-13.057 1.562-19.86 0.036-6.282 1.25-12.413 1.043-18.735-0.21-6.414-0.261-12.573-0.05-18.983 0.089-2.731-0.517-5.436-0.548-8.18-0.032-2.845 0.094-5.784-0.624-8.563-0.168-0.648-1.041-4.614-1.701-4.722-2.84 1.227-6.13 1.021-9.13 1.445m-18.96 14.4c-0.418 2.626-0.422 5.283-0.72 7.92-0.201 1.784 0.189 3.691-0.144 5.347-0.423 2.104-0.382 4.511-0.336 6.653 0 0.168 0.571 0.382 0.573 1.084 0.005 1.316-0.438 2.644-0.333 3.956 0.716 9.303 3.188 19.566 3.966 29.198 0.951 11.752 2.217 23.969 4.631 35.506 0.525 2.51 0.675 4.955 1.559 7.386 1.093 3.004 2.653 5.807 3.771 8.794 0.928 2.482 2.437 4.821 3.5 7.293 0.928 2.153 3.52 5.978 5.613 7.104-1.801-5.363-2.531-10.726-2.922-16.347-0.411-5.922 0.061-12.294-1.13-18.108-1.158-5.658-0.671-11.427-0.984-17.188-0.354-6.496-1.19-12.959-1.574-19.443-0.576-9.729-2.141-19.062-1.749-28.945 0.206-5.203 0.59-10.39 0.714-15.597 0.064-2.681 0.133-5.37 0.464-8.034 0.088-0.71 1.37-6.653 1.182-6.658-4.38 4.71-10.83 6.62-16.08 10.09m-32.877 0.72c-1.73-2.561-3.576-5.062-4.8-7.92-1.104 0-1.687 1.468-2.855 2.002-1.391 0.635-2.897 1.071-4.361 1.501-6.75 1.981-13.719 2.727-20.57 2.631-6.331-0.089-12.495 0.964-18.764 1.335-2.677 0.158-5.33 0.099-7.198 2.18-2.145 2.39-5.438 2.886-6.492 6.431 1.97-1.07 3.122-3.101 4.785-4.534 2.323-2.002 5.092-1.68 7.941-1.977 2.143-0.223 5.206 2 3.165 4.268-1.035 1.15-3.84 2.548-4.13 4.163 2.11-0.937 4.169-1.993 6.143-3.19 1.151-0.698 2.273-1.445 3.357-2.243 1.367-1.007 1.687-0.433 3.178-0.914 4.967-1.603 10.017-0.557 14.971 0.577 4.604 1.054 10.417 0.583 15.112 0.314 2.561-0.147 5.495-0.331 7.837-1.483 1.074-0.528 2.04-1.268 3.162-1.7 0.531 0.145 0.181 0.764 0.96 0.48 0.2-1.2-0.684-1.35-1.441-1.92m31.197 30c-0.758-4.76-1.107-9.577-1.056-14.396 0.027-2.49 0.156-4.978 0.368-7.459 0.083-0.98 1.067-8.231 0.448-8.145-4.776 1.508-9.12 3.564-14.2 3.878-2.345 0.146-4.202 0.587-6.27 1.682-1.053 0.558-2.114 0.83-3.29 0.44-0.482 0.032-0.628-0.919-1.045-0.886-0.37 0.03 1.11 4.266 1.234 4.656 0.471 1.476 2.16 3.815 0.745 4.844-0.761 0.553-0.82 3.773-1.014 4.663-0.193 0.931-0.454 1.841-0.784 2.732-0.868 2.265 0.063 0.723 0.384 2.71-1.662 3.098 1.664 6.535 0 9.36 1.141 0.381 1.313 1.69 1.062 2.7-0.397 1.594-1.772 1.487-0.585 2.968 0.988 1.232 0.086 1.756 1.406 2.65 1.606 1.087-0.658 2.712 0.456 3.924 1.131 1.231 1.139 1.854 2.735 1.604 1.959-0.308 4.082 0.137 5.286-1.709 0.792-1.214 1.8-2.044 3.32-2.056-0.171-1.969 1.429-2.418 2.61-3.39 1.276-1.051 2.244-1.469 2.479-3.041 0.383-2.56 1.574-1.638 3.311-1.97-0.32-2.56 1.22-3.74 2.4-5.74m-28.797-27.36c-2.472 3.105-3.428 7.524-5.093 11.089-1.694 3.628-3.098 7.789-3.944 11.706-1.881 8.711-2.365 17.629-4.232 26.358-1.999 9.344-2.772 18.919-3.353 28.44-0.274 4.499 0.508 9.536-0.702 13.903-1.163 4.196-2.866 8.469-2.596 12.903 3.803-0.776 6.889-3.006 9.2-6.072 2.381-3.158 1.29-10.688 1.339-14.554 0.124-9.779 4.033-18.841 4.924-28.47 0.906-9.786 2.07-19.95 5.179-29.29 1.527-4.59 2.27-9.393 3.468-14.07 0.551-2.148-0.312-3.881-0.934-5.96-0.355-1.19-0.645-2.398-0.773-3.636-0.245-2.35-0.894-1.05-2.483-2.35m-55.44 0.48c0.142 1.013 0.984 1.767 0.96 2.88 3.018-0.43 1.646-4.1-0.96-2.88m49.2 1.92c-7.547 2.361-15.975 1.548-23.709 0.432-3.957-0.571-8.023-1.187-12.021-0.673-4.259 0.548-7.017 4.538-11.31 5.521 1.205 3.768 1.802 8.413 4.8 11.28 5.039 0.781 9.933 2.71 15.1 2.451 4.858-0.244 9.632-3.582 12.98-7.011 1.402-1.437 2.531-3.286 4.138-3.902 1.045-0.401 2.176-3.262 1.382-4.258 1.47 0.629 0.972-2.602 2.64-2.4-0.404 3.719-2.531 6.951-3.36 10.56-1.078 4.689-1.945 9.5-2.308 14.302-0.637 8.413-1.363 16.917-1.909 25.284-0.267 4.087 0.142 8.167-0.226 12.257-0.393 4.361-0.979 8.701-1.375 13.062-0.762 8.394-1.016 16.982 0.298 25.335-0.226-4.374 1.415-8.408 2.371-12.595 1.12-4.907 0.751-9.934 0.737-14.918-0.024-9.36 1.47-18.788 3.318-27.939 0.835-4.134 2.224-8.354 2.281-12.599 0.057-4.196 1.033-9.08 1.937-13.278 0.875-4.067 2.163-8.034 3.704-11.895 0.818-2.049 1.706-4.069 2.634-6.07 0.25-0.538 2.157-4.906 1.978-4.867-1.214 0.9-2.658 1.5-4.08 1.94m68.877 0c0.15 5.285 0.526 10.57 0.494 15.859-0.022 3.611-0.2 7.22-0.242 10.831-0.039 3.437-0.767 6.966-0.404 10.39 0.686 6.463 1.523 12.972 2.337 19.428 0.448 3.556 0.876 4.822 3.137 7.375 2.148 2.424 0.188 5.018-0.28 7.637 1.654-1.551 2.185-4.027 2.185-6.207 0-2.968-1.544-3.936-3.201-6.153-3.878-5.191 0.36-7.114 4.547-9.056 4.528-2.101 5.257-10.2 4.766-14.547-0.634-5.601-5.092-9.197-6.376-14.436-1.558 5.124 6.818 11.514 1.68 15.36-0.95-1.024-0.552-2.663-0.591-3.903-0.067-2.098-1.903-2.784-3.009-4.257-2.284-3.042-2.237-7.249-1.342-10.751 0.968-3.784 1.964-7.669 0.958-11.565-0.401-1.556-1.159-2.958-2.079-4.265-0.42-0.59-2.59-3.99-2.59-1.74m-61.197 25.44c1.503 0.335 2.048-2.571 0.72-2.88-0.215 0.98-0.189 2.21-0.72 2.88zm-0.96 3.12c-0.148 3.835-3.113 8.234-1.2 12 0.137-2.045 1.03-3.762 2.057-5.485 0.977-1.639 2.906-2.572 2.983-4.595-0.891-0.963-1.527 1.225-2.4 0.24 0.029-1.649 2.555-2.905 0.96-4.56-0.832 0.77-1.475 1.73-2.4 2.4m27.117 0c-0.422 1.84 0.623 3.489 0.48 5.28-1.492 0.021-4.291-4.685-3.533 0.224 0.479 3.097 2.792 5.431 5.933 5.776 0.141-1.416-0.889-13.344-1.92-13.2 0.07 0.8-0.79 1.19-0.96 1.92m-24.957 6.72c-2.052 2.344-2.257 5.927-2.4 8.88 2.862-0.898 4.782-2.947 5.04-6-1.187 0.061-1.23 2.192-2.64 1.2 0.459-1.4 2.915-4.24 0-4.08m21.12 0.24c-0.802-0.035-0.989-0.24-1.689 0.551-0.649 0.732 1.17 1.555 1.58 2.285 1.216 2.167 1.205 5.096 0.829 7.484 1.737-1.623 3.923-2.793 5.28-4.8-3.22-0.3-5.06-2.6-5.997-5.52m-1.44 12c1.612-2.121 1.854-5.903 0.582-8.225-0.541-0.988-2.776-2.931-3.534-1.153-0.717 1.682 1.335 3.002 1.032 4.578-1.363 0.641-1.553-1.605-2.326-2.188-1.319-0.995-2.619 1.697-2.605 2.689 0.044 3.22 3.924 5.85 6.851 4.29m7.677-6c-0.293 2.635-5.137 5.172-7.077 6.479-3.359 2.261-7.016 4.375-10.923 5.521-7.177 2.105-12.649-5.683-13.92-11.76-1.188 1.6-0.567 5.418-0.666 7.326-0.147 2.854-0.376 5.722-1.014 8.514-1.5 6.568-3.851 13.273-4.101 20.055-0.42 11.424-0.853 23.043-1.899 34.426-0.552 5.988-0.514 11.042 0.24 17.04 0.632 5.03 0.38 10.025-0.139 15.043-0.5 4.833-1.147 10.369 0.317 15.095 0.387 1.247-0.248 1.992-0.073 3.31 0.177 1.336 0.762 2.582 1.189 3.846 1.042 3.085 0.515 6.44 1.585 9.507 2.169-2.947 3.563 0.782 5.52 0.48 1.061 2.626 1.204 3.424-0.317 6.072-0.896 1.561-3.891 4.065-3.047 5.611 0.735 1.347 0.827 3.396 3.124 3.196-0.439-1.969-0.336-4.238 0.387-6.128 0.362-0.945 0.958-1.901 1.924-2.323 1.864-0.813 1.809 0.671 2.489 1.971 3.06-1.466 2.724 3.542 2.073 4.919-0.582 1.23-1.448 2.28-2.073 3.481 1.127 0.599 2.007 1.4 3.36 1.439-0.657-3.085 2.613-11.896 5.28-5.76 0.042-0.748 1.793-0.051 1.987 0.207 0.601 0.798 0.339 1.995 0.219 2.893-0.603 4.51 1.596 0.249 3.247-0.167 1.695-0.427 1.859 1.124 2.227 2.348 2.022-0.277 3.026 0.701 2.699 2.987-0.217 1.521-1.135 2.874-2.065 4.049-0.439 0.545-0.891 1.079-1.354 1.604 0.812 0.737 1.47 1.938 0.48 2.88-2.958-1.355-3.364 0.279-0.578 1.658 1.072 0.531 3.325 1.606 3.312-0.216-0.01-1.374-0.392-2.876-1.055-4.082 2.094-0.407 2.423-3.575 4.328-4.401 2.692-1.168 2.85 3.432 5.271 2.001-0.974 0.771 0.425 1.661 0.24 2.641-0.452 1.503-1.843 2.396-2.4 3.84 1.442-0.396 2.798-0.83 4.32-0.72-0.741-2.295-0.834-5.352 0.38-7.511 1.376-2.447 4.005-1.771 4.66 0.79 1.49-0.238 2.005-1.294 3.095 0.361 0.763 1.158 1.081 3.024-0.215 3.959 0.197 0.961 2.048 1.193 1.2 2.4-1.973-0.367-3.893-1.359-5.76 0 1.705 2.567 6.863 3.769 9.6 4.56-1.176-1.965-1.354-4.794-0.738-6.965 0.691-2.434 4.022-4.016 5.298-0.955 1.406-0.128 1.537-1.405 2.938-0.066 0.949 0.906 1.184 2.199 0.896 3.455-0.613 2.68-3.328 3.868-5.033 5.731 3.541 0.704 7.048 1.562 10.56 2.399-1.489-2.649-3.241-5.558-3.052-8.721 0.186-3.104 4.312-5.322 5.932-1.839 0.942-3.181 3.778 1.447 3.52 3.237-0.403 2.79-2.372 5.529-4.479 7.322 3.368 0.014 6.707 0.529 10.08 0.48-1.145-2.908-4.83-4.367-4.8-7.92 0.021-2.491 3.913-5.781 5.04-2.16 1.027-0.201 0.918-1.574 2.16-1.44 1.41 0.736 2.361 1.979 2.39 3.601 0.053 2.939-1.976 5.366-3.11 7.92 3.393 0.184 6.689-0.866 10.08-0.72-1.023-2.81-4.522-3.421-4.408-6.955 0.106-3.299 3.169-4.849 5.544-2.665 1.196 1.1 1.531-0.447 2.56-0.965 1.546-0.778 2.674 1.452 2.8 2.702 0.264 2.611-1.499 5.48-3.375 7.162 3.952-0.521 7.889-1.203 11.76-2.16-2.218-0.448-3.719-2.768-3.967-4.897-0.118-1.014 2.433-6.015 3.429-4.163 0.423 0.786 3.937-2.648 5.49 0.433 0.948 1.881-0.192 7.534-2.792 7.908 0.088-2.126 1.693-3.836 1.761-5.962 0.104-3.269-3.075-2.379-2.96 0.202-1.469-0.213-3.958-2.526-4.08 0.96-0.079 2.222 2.502 3.666 4.119 4.647 2.255 1.369 5.351-0.121 8.094-0.021 3.146 0.116 6.245 0.737 9.387 0.893-2.641-1.409-5.914-2.314-7.722-4.878-1.04-1.476-1.784-3.391 0.103-4.487 0.629-0.354 1.305-0.545 2.026-0.572 1.436-0.051 1.209-0.364 2.407-1.055 5.729-3.305 7.038 8.606 5.346 11.713 3.277 0.233 6.539 1.46 9.84 0.72-3.1-0.458-6.366-3.682-6.847-6.759-0.464-2.971 3.765-6.559 5.887-3.321 1.314-3.156 4.605 0.538 5.233 2.106 1.057 2.637 0.811 5.841-0.193 8.454 3.022 0.226 8.829-0.338 11.284-2.424 0.147-0.125-6.146-2.788-6.848-3.194-2.191-1.269-4.425-4.526-1.089-6.109 1.8-0.854 3.602 1.529 4.38-0.154 0.456-0.986 1.324-1.3 2.262-0.729 1.909 1.164 3.594 4.364 3.211 6.61 0.075-0.548 0.396-0.788 0.96-0.721-0.457-1.431-0.611-2.353-0.935-3.857-0.275-1.281-1.073-2.342-1.901-3.319-0.971-1.145-1.418-2.039-2.842-2.539-1.351-0.475-2.706-1.135-3.639-2.26-1.008-1.217-0.83-3.612 0.48-1.643 0.708 1.063 1.516 2.058 2.836 2.339 3.883 0.827 8.242 0.975 12-0.48-0.284-1.729 0.677-1.945-0.685-3.722-0.937-1.223-2.174-2.159-3.435-3.021-2.778-1.9-5.832-3.372-8.602-5.257-2.584-1.76-3.849-4.511-4.785-7.391-0.49-1.507-0.927-3.03-1.49-4.512-0.438-1.153-2.268-3.266-0.966-3.739 0.642-0.234-2.937-1.71-3.559-1.639-2.116-1.527-3.194-4.043-4.088-6.403-0.75-1.984-4.122-2.357-6.143-3.237-2.263-0.984-4.549-1.715-7.049-1.639 0.354 2.67 2.09 4.833 2.64 7.439-1.617-0.111-1.519-2.773-2.263-3.857-1.369-1.993-1.914-4.127-4.267-4.813-3.65-1.065-7.501-4.476-11.471-4.529 0.918 2.671 1.099 5.688 2.677 8.099 1.11 1.694 2.892 3.359 2.604 5.582-1.288-0.447-1.738-1.831-2.132-2.99-0.443-1.307-1.473-2.071-1.948-3.25-0.856-2.118-1.076-7.036-2.666-8.387-4.899-4.162-12.178-3.586-17.254-7.453 0.476 2.711 1.561 5.321 2.38 7.938 0.746 2.379 0.805 5.672 2.212 7.75 1.529 2.257 2.679 0.387 4.426 0.867 2.384 0.655-1.542 1.672-2.063 1.721-1.927 0.179-3.067-0.299-4.021-1.979-1.431-2.519-1.558-5.613-2.214-8.378-0.771-3.243-1.688-6.45-2.502-9.683-1.728-6.863-2.852-14.019-4.053-20.987-0.387-2.239-0.029-4.683-1.605-6.53 0.708-1.686 0.34-4.377 0.158-6.513-0.496-5.831-2.071-11.656-3.038-17.247-1.219-7-2.541-13.942-3.512-20.991-0.509-3.69-0.979-7.386-1.404-11.087-0.245-2.132-0.475-4.265-0.688-6.4-0.123-1.24 0.305-3.721-0.637-4.722-1.171 13.216-2.001 26.396-3.12 39.6-0.554 6.54-0.21 12.933-1.214 19.461-0.536 3.48-1.463 6.824-1.189 10.372 0.15 1.961 1.223 6.089-0.956 7.367-4.957-5.81-9.893-11.894-13.023-18.923-1.323-2.972-2.544-6.065-3.671-9.117-1.369-3.708-1.762-7.075-2.657-10.88-0.905-3.85-1.631-7.564-1.834-11.521-0.194-3.778-1.129-7.245-1.507-10.978-0.23-2.2-0.27-17.78-2.76-17.78m-24.957 0.48c-1.082 1.815-3.282 2.452-4.56 4.08 1.159 2.217 3.332 3.545 5.04 5.28-2.089-2.437-1.565-6.679 0.24-9.12-0.223-0.13-0.464-0.21-0.72-0.24m0 4.8c-0.054 4.612 4.96 6.604 6.492 1.761 0.417-1.32 0.497-3.175-0.716-4.125-3.204-2.51-1.843 2.795-2.896 3.804-1.533-0.624-0.408-3.253-0.528-4.416-0.254-2.47-2.342 2.12-2.352 2.98m7.2-3.12c-0.473 1.439 1.092 2.956 0.445 4.796-0.617 1.754-2.052 3.085-3.565 4.084 3.98-0.066 6.859-2.253 10.32-3.84-1.686-0.218-3.197-1.017-4.147-2.452-0.362-0.56-0.645-1.157-0.848-1.792-0.588-1.78-0.708-0.7-2.205-0.8m-17.28 141.84c1.693-0.619 3.57-4.552 3.825-6.271 0.54-3.628-2.3 0.64-3.105 0.511-0.146-1.394 1.116-2.202 0.96-3.6-4.427-0.47-2.014 7.17-1.68 9.36m6.96 7.2c2.6-0.078 3.331-4.883 2.88-6.72-0.772-0.033-2.614 3.616-2.571 1.188 0.016-0.896 0.342-4.547-1.448-2.451-1.376 1.61-2.314 8.08 1.139 7.98m6 1.92c0.721 0.743 0.541 2.271 1.68 2.641 1.455-0.878 2.716-2.183 3.331-3.787 0.281-0.73 1.159-3.899-0.489-3.411-0.993 0.294-0.726 1.834-1.882 1.918-0.302-0.773 0.372-6.828-1.915-3.001-0.976 1.63-0.42 3.85-0.725 5.64m-4.8-0.48c-1.626-0.107-3.005-0.815-4.467-1.453-2.443-1.065-3.387-0.038-5.386 1.446-1.047 0.778-1.944 1.67-3.261 1.957-1.46 0.317-3.251 0.216-4.165 1.649 6.726 2.104 14.479 1.357 21.12-0.72-0.485-1.83-2.962-1.43-3.841-2.89m13.92-0.72c-1.876 1.798-1.095 5.619-1.2 7.921 2.052-0.528 2.588 0.775 4.098-1.113 1.125-1.407 1.746-3.098 1.182-4.887-0.731-0.072-2.073 3.188-2.349 1.207-0.185-1.34 0.624-3.9-1.731-3.13m-6.24 4.8c1.277 1.668 2.61 3.297 4.08 4.8 0.408-2.543-1.037-5.582 0.48-7.92-2.215-1.21-3.385 1.9-4.56 3.12m23.517 7.68c1.953-0.344 4.901-1.113 6.023-2.93 0.601-0.974 0.032-1.93-0.743-2.59-1.332-0.116-1.093 1.409-2.16 1.68-0.833-0.767-0.855-5.884-2.889-2.525-1.06 1.75-0.85 4.49-0.23 6.36m-9.84-4.56c1.169 0.388 3.588 1.693 2.952-0.626-0.4-1.48-2.33-0.66-2.95 0.63m89.52 0.48c-0.618 0.843 0.661 1.083 0.719 1.806 0.11 1.367-2.729-0.767-3.304-0.882-1.883-0.38-2.059 1.289-1.365 2.594 0.771 1.451 2.402 2.116 3.71 2.963 1.081 0.7 2.122 1.576 3.459 1.692 1.866 0.162 1.48-2.247 1.386-3.695-0.17-2.54-1.45-5.95-4.61-4.48m27.6 2.64c-1.762 0.751-2.544-3.182-4.62-1.923-3.316 2.01 2.467 4.589 3.81 5.236 1.211 0.582 3.593 2.143 3.984 0.287 0.282-1.336 0.136-2.788-0.396-4.045-0.466-1.104-1.312-2.161-2.539-2.436-1.13 0.85 0.5 1.94-0.23 2.88m-117.12 2.88c-0.261 0.166-0.341 0.406-0.24 0.72 1.067-0.169 2.091-0.087 3.12-0.48 0.217-1.278-0.652-0.533 0.478-1.521 1.428-1.249 0.583-0.92 0.962-2.559 1.058 0.146 1.844-0.773 0.96-1.68-1.439-0.336-1.019 1.348-2.16 1.44-1.335-0.593-3.031-2.451-3.629-0.462-0.425 1.42-1.233 3.63 0.509 4.54m21.6-0.24c0.603 1.535 1.634 2.532 1.44 4.319 1.369 0.146 4.146-2.451 4.662-3.448 0.604-1.166 1.208-2.13 1.098-3.512-0.805-0.051-0.716-1.877-1.849-0.527-2.048 2.44-1.353 1.32-2.106-0.941-0.414-1.24-2.136-0.022-2.482 0.62-0.56 1.05-0.55 2.34-0.76 3.49m83.52-1.2c-1.278 0.161-1.845-1.65-2.679-2.296-2.239-1.734-3.378 1.064-3.082 3.016 0.569 3.751 5.464 4.328 7.681 6.721 1.448-2.498 1.29-6.344 0.166-8.929-0.31-0.713-1.343-2.351-2.258-1.125-0.57 0.78 0.55 1.81 0.17 2.62m-69.12 6.48c0.426 0.604-0.079 2.063 0.96 2.159-0.523-1.966 2.563-4.54 3.31-5.898 1.127-2.049 0.322-5.557-1.765-2.684-1.527 2.104-1.38-1.899-1.785-2.458-1.192 0.03-2.288 0.543-2.671 1.739-0.72 2.22 0.54 5.4 1.94 7.14m9.84-7.92c-4.072 2.208 0.122 7.317 2.64 8.881 0.908-1.391 1.797-2.85 2.188-4.483 0.185-0.769 0.124-5.823-1.569-3.538-0.321 0.433-0.728 3.14-1.572 1.854-0.56-0.85-0.3-2.63-1.69-2.71m10.56 2.16c-0.833 3.207 3.146 4.534 3.84 7.2 2.104-1.986 4.376-4.515 4.09-7.636-0.358-3.905-2.639 0.966-3.369 1.396-0.878-0.572-1.011-1.782-1.44-2.64-1.27-0.17-2.76 0.31-3.12 1.68"></path> </g> <metadata></metadata></svg> 