<?xml version="1.0" encoding="UTF-8" standalone="no"?> <!-- Created with Inkscape (http://www.inkscape.org/) --> <svg xmlns:inkscape="http://www.inkscape.org/namespaces/inkscape" xmlns:rdf="http://www.w3.org/1999/02/22-rdf-syntax-ns#" xmlns="http://www.w3.org/2000/svg" xmlns:cc="http://creativecommons.org/ns#" xmlns:dc="http://purl.org/dc/elements/1.1/" xmlns:sodipodi="http://sodipodi.sourceforge.net/DTD/sodipodi-0.dtd" xmlns:svg="http://www.w3.org/2000/svg" xmlns:ns1="http://sozi.baierouge.fr" xmlns:xlink="http://www.w3.org/1999/xlink" id="svg2" sodipodi:docname="yves_guillou_L-system_2.svg" inkscape:export-filename="/home/yves/Bureau/yves_guillou_L-system_2.png" viewBox="0 0 462.33 513" sodipodi:version="0.32" inkscape:export-xdpi="48.23" inkscape:output_extension="org.inkscape.output.svg.inkscape" inkscape:export-ydpi="48.23" inkscape:version="0.45+devel"><path id="text3877" style="fill:#000000" d="m1.9688 209.25l9.8962-25.76h3.674l10.547 25.76h-3.885l-3.006-7.8h-10.775l-2.8302 7.8h-3.621m7.4355-10.58h8.7367l-2.69-7.13c-0.82-2.17-1.43-3.95-1.828-5.35-0.328 1.65-0.791 3.3-1.389 4.92l-2.8297 7.56m16.928 10.58l6.82-9.7-6.31-8.96h3.955l2.865 4.37c0.539 0.84 0.973 1.53 1.301 2.1 0.516-0.78 0.99-1.46 1.424-2.06l3.146-4.41h3.779l-6.451 8.79 6.944 9.87h-3.885l-3.832-5.8-1.02-1.56-4.904 7.36h-3.832m19.846-22.13v-3.63h3.164v3.63h-3.164m0 22.13v-18.66h3.164v18.66h-3.164m6.82-9.33c0-3.46 0.961-6.02 2.883-7.68 1.605-1.38 3.562-2.08 5.871-2.08 2.566 0 4.664 0.85 6.293 2.54 1.629 1.67 2.443 3.99 2.443 6.96 0 2.4-0.363 4.29-1.09 5.67-0.714 1.38-1.763 2.44-3.146 3.2-1.371 0.77-2.871 1.15-4.5 1.15-2.613 0-4.729-0.84-6.346-2.52-1.605-1.67-2.408-4.09-2.408-7.24m3.252 0c0 2.39 0.521 4.18 1.564 5.38 1.043 1.18 2.356 1.78 3.938 1.78 1.57 0 2.877-0.6 3.92-1.8 1.043-1.19 1.564-3.02 1.564-5.46 0-2.31-0.527-4.06-1.582-5.24-1.043-1.2-2.343-1.8-3.902-1.8-1.582 0-2.895 0.6-3.938 1.78s-1.564 2.97-1.564 5.36m17.965 9.33v-18.66h2.83v2.62c0.586-0.92 1.365-1.65 2.338-2.2 0.972-0.56 2.08-0.85 3.322-0.85 1.383 0 2.514 0.29 3.393 0.87 0.89 0.57 1.517 1.37 1.881 2.4 1.476-2.18 3.398-3.27 5.765-3.27 1.852 0 3.276 0.52 4.272 1.55 0.996 1.02 1.494 2.6 1.494 4.73v12.81h-3.147v-11.76c0-1.26-0.105-2.17-0.316-2.72-0.199-0.56-0.569-1.01-1.108-1.35s-1.171-0.51-1.898-0.51c-1.313 0-2.402 0.44-3.27 1.32-0.867 0.86-1.3 2.26-1.3 4.18v10.84h-3.164v-12.12c0-1.41-0.258-2.47-0.774-3.17-0.515-0.7-1.359-1.05-2.531-1.05-0.891 0-1.717 0.23-2.479 0.7-0.75 0.47-1.294 1.15-1.634 2.06-0.34 0.9-0.51 2.2-0.51 3.9v9.68h-3.164m40.955-15.06v-3.6h3.61v3.6h-3.61m0 15.06v-3.6h3.61v3.6h-3.61m19.67 0v-25.76h17.39v3.04h-13.98v7.98h12.1v3.04h-12.1v11.7h-3.41"></path><path id="text3596" style="fill:#000000" d="m24.294 114.25v-25.769h3.41v22.729h12.692v3.04h-16.102m19.793-22.13v-3.639h3.164v3.639h-3.164m0 22.13v-18.667h3.164v18.667h-3.164m7.998 0v-18.667h2.848v2.654c1.371-2.051 3.352-3.076 5.941-3.076 1.125 0 2.157 0.205 3.094 0.615 0.949 0.398 1.658 0.926 2.127 1.582s0.797 1.436 0.984 2.338c0.118 0.584 0.176 1.614 0.176 3.074v11.48h-3.164v-11.35c0-1.29-0.123-2.25-0.369-2.89-0.246-0.642-0.685-1.152-1.318-1.527-0.621-0.387-1.354-0.58-2.198-0.58-1.347 0-2.513 0.428-3.498 1.283-0.972 0.854-1.459 2.474-1.459 4.874v10.19h-3.164m32.151 0v-2.35c-1.184 1.85-2.924 2.77-5.221 2.77-1.488 0-2.859-0.41-4.113-1.23-1.242-0.82-2.209-1.96-2.901-3.43-0.679-1.47-1.019-3.17-1.019-5.08 0-1.86 0.31-3.55 0.931-5.058 0.622-1.524 1.553-2.69 2.795-3.498 1.243-0.809 2.631-1.213 4.166-1.213 1.125 0 2.127 0.24 3.006 0.72 0.879 0.469 1.594 1.084 2.145 1.846v-9.246h3.146v25.769h-2.935m-10.002-9.32c0 2.39 0.504 4.18 1.511 5.37 1.008 1.18 2.198 1.77 3.569 1.77 1.383 0 2.555-0.56 3.515-1.69 0.973-1.13 1.459-2.86 1.459-5.18 0-2.56-0.492-4.43-1.476-5.627-0.984-1.195-2.197-1.793-3.639-1.793-1.406 0-2.584 0.574-3.533 1.723-0.937 1.147-1.406 2.957-1.406 5.427m30.706 3.31l3.27 0.4c-0.51 1.91-1.47 3.4-2.86 4.45-1.4 1.06-3.18 1.58-5.35 1.58-2.727 0-4.895-0.84-6.501-2.51-1.593-1.69-2.39-4.05-2.39-7.09 0-3.14 0.808-5.573 2.426-7.308 1.617-1.734 3.714-2.601 6.293-2.601 2.492 0 4.532 0.849 6.112 2.549 1.59 1.699 2.38 4.09 2.38 7.17 0 0.19-0.01 0.47-0.02 0.85h-13.922c0.117 2.05 0.698 3.62 1.741 4.71s2.343 1.63 3.901 1.63c1.16 0 2.15-0.3 2.97-0.91s1.47-1.59 1.95-2.92m-10.386-5.12h10.426c-0.14-1.57-0.54-2.74-1.2-3.53-1.01-1.218-2.31-1.828-3.917-1.828-1.453 0-2.678 0.487-3.674 1.459-0.985 0.969-1.529 2.269-1.635 3.899m17.646 11.13v-18.667h2.85v2.654c1.37-2.051 3.35-3.076 5.94-3.076 1.13 0 2.16 0.205 3.1 0.615 0.94 0.398 1.65 0.926 2.12 1.582s0.8 1.436 0.99 2.338c0.11 0.584 0.17 1.614 0.17 3.074v11.48h-3.16v-11.35c0-1.29-0.12-2.25-0.37-2.89-0.25-0.642-0.69-1.152-1.32-1.527-0.62-0.387-1.35-0.58-2.2-0.58-1.34 0-2.51 0.428-3.49 1.283-0.98 0.854-1.46 2.474-1.46 4.874v10.19h-3.17m20.04 0v-18.667h2.83v2.619c0.59-0.914 1.37-1.647 2.34-2.197 0.97-0.563 2.08-0.844 3.32-0.844 1.38 0 2.52 0.287 3.39 0.861 0.9 0.574 1.52 1.377 1.89 2.408 1.47-2.179 3.39-3.269 5.76-3.269 1.85 0 3.28 0.515 4.27 1.547 1 1.019 1.5 2.595 1.5 4.732v12.81h-3.15v-11.76c0-1.26-0.11-2.17-0.32-2.724-0.2-0.562-0.56-1.013-1.1-1.353s-1.18-0.51-1.9-0.51c-1.31 0-2.4 0.439-3.27 1.318-0.87 0.869-1.3 2.259-1.3 4.179v10.85h-3.17v-12.13c0-1.4-0.25-2.459-0.77-3.162s-1.36-1.055-2.53-1.055c-0.89 0-1.72 0.234-2.48 0.703-0.75 0.469-1.29 1.154-1.63 2.054-0.34 0.91-0.51 2.21-0.51 3.91v9.68h-3.17m42.28-2.3c-1.17 0.99-2.31 1.7-3.4 2.11-1.07 0.41-2.23 0.61-3.48 0.61-2.05 0-3.62-0.5-4.72-1.49-1.11-1.01-1.66-2.29-1.66-3.85 0-0.92 0.21-1.75 0.62-2.5 0.42-0.76 0.97-1.37 1.63-1.83 0.68-0.45 1.44-0.8 2.29-1.03 0.62-0.17 1.56-0.32 2.81-0.48 2.56-0.3 4.44-0.67 5.64-1.09 0.02-0.43 0.02-0.71 0.02-0.82 0-1.29-0.3-2.2-0.9-2.728-0.8-0.715-2.01-1.072-3.6-1.072-1.49 0-2.59 0.264-3.3 0.791-0.71 0.516-1.23 1.439-1.57 2.759l-3.09-0.42c0.28-1.325 0.74-2.392 1.39-3.2 0.64-0.821 1.57-1.448 2.79-1.881 1.22-0.446 2.63-0.668 4.24-0.668 1.59 0 2.89 0.187 3.88 0.562 1 0.375 1.73 0.85 2.2 1.424 0.47 0.563 0.8 1.277 0.98 2.145 0.11 0.539 0.16 1.508 0.16 2.918v4.22c0 2.94 0.07 4.8 0.2 5.59 0.14 0.77 0.41 1.52 0.8 2.23h-3.3c-0.33-0.66-0.54-1.42-0.63-2.3m-0.27-7.07c-1.15 0.47-2.87 0.87-5.16 1.2-1.31 0.18-2.23 0.4-2.76 0.63-0.54 0.23-0.96 0.58-1.25 1.04-0.3 0.44-0.44 0.94-0.44 1.49 0 0.84 0.31 1.55 0.95 2.11s1.58 0.84 2.81 0.84c1.22 0 2.3-0.26 3.25-0.79 0.95-0.54 1.65-1.27 2.09-2.19 0.34-0.72 0.51-1.77 0.51-3.17v-1.16m7.98 16.56l-0.35-2.97c0.69 0.19 1.3 0.28 1.81 0.28 0.71 0 1.27-0.12 1.69-0.35 0.42-0.24 0.77-0.56 1.04-0.99 0.2-0.31 0.52-1.1 0.96-2.35 0.06-0.18 0.16-0.43 0.29-0.77l-7.09-18.707h3.41l3.89 10.807c0.5 1.37 0.95 2.82 1.35 4.33 0.36-1.46 0.8-2.87 1.3-4.26l3.99-10.877h3.16l-7.1 18.987c-0.76 2.05-1.35 3.46-1.77 4.23-0.56 1.05-1.21 1.81-1.94 2.29-0.72 0.49-1.59 0.74-2.6 0.74-0.61 0-1.29-0.13-2.04-0.39m30.92-13.2l3.27 0.4c-0.51 1.91-1.47 3.4-2.86 4.45-1.4 1.06-3.18 1.58-5.35 1.58-2.73 0-4.89-0.84-6.5-2.51-1.59-1.69-2.39-4.05-2.39-7.09 0-3.14 0.81-5.573 2.43-7.308 1.61-1.734 3.71-2.601 6.29-2.601 2.49 0 4.53 0.849 6.12 2.549 1.58 1.699 2.37 4.09 2.37 7.17 0 0.19-0.01 0.47-0.02 0.85h-13.92c0.12 2.05 0.7 3.62 1.74 4.71s2.34 1.63 3.9 1.63c1.16 0 2.15-0.3 2.97-0.91s1.47-1.59 1.95-2.92m-10.38-5.12h10.42c-0.14-1.57-0.54-2.74-1.2-3.53-1-1.218-2.31-1.828-3.92-1.828-1.45 0-2.67 0.487-3.67 1.459-0.98 0.969-1.53 2.269-1.63 3.899m17.61 11.13v-18.667h2.85v2.83c0.72-1.324 1.39-2.198 2-2.619 0.62-0.422 1.3-0.633 2.04-0.633 1.07 0 2.15 0.34 3.25 1.019l-1.09 2.936c-0.77-0.457-1.55-0.686-2.32-0.686-0.69 0-1.31 0.211-1.86 0.633-0.55 0.41-0.95 0.987-1.18 1.727-0.35 1.12-0.53 2.35-0.53 3.69v9.77h-3.16m-152.98 36.72l3.217-0.28c0.152 1.29 0.504 2.35 1.054 3.18 0.563 0.82 1.43 1.49 2.602 2.01 1.172 0.5 2.49 0.75 3.955 0.75 1.301 0 2.449-0.19 3.445-0.58s1.735-0.91 2.215-1.58c0.492-0.68 0.738-1.42 0.738-2.22s-0.234-1.51-0.703-2.1c-0.468-0.61-1.242-1.12-2.32-1.53-0.691-0.27-2.221-0.69-4.588-1.25-2.367-0.58-4.025-1.12-4.974-1.62-1.231-0.64-2.151-1.44-2.76-2.39-0.598-0.96-0.897-2.03-0.897-3.22 0-1.3 0.369-2.51 1.108-3.64 0.738-1.13 1.816-1.99 3.234-2.58s2.994-0.88 4.729-0.88c1.91 0 3.591 0.31 5.044 0.93 1.465 0.61 2.59 1.52 3.375 2.71 0.786 1.2 1.208 2.55 1.266 4.06l-3.269 0.25c-0.176-1.63-0.774-2.86-1.793-3.69-1.008-0.84-2.502-1.25-4.483-1.25-2.062 0-3.568 0.38-4.517 1.14-0.938 0.75-1.407 1.66-1.407 2.72 0 0.93 0.334 1.69 1.002 2.29 0.657 0.6 2.368 1.21 5.133 1.85 2.777 0.62 4.682 1.16 5.713 1.63 1.5 0.69 2.607 1.57 3.322 2.64 0.715 1.05 1.073 2.27 1.073 3.65 0 1.37-0.393 2.67-1.178 3.89-0.785 1.21-1.916 2.15-3.393 2.83-1.465 0.67-3.117 1-4.957 1-2.332 0-4.289-0.34-5.871-1.02-1.57-0.68-2.807-1.7-3.709-3.06-0.89-1.37-1.359-2.92-1.406-4.64m24.662 15.47l-0.352-2.97c0.692 0.19 1.295 0.28 1.811 0.28 0.703 0 1.266-0.12 1.687-0.35 0.422-0.24 0.768-0.56 1.038-0.99 0.199-0.31 0.521-1.1 0.966-2.35 0.059-0.18 0.153-0.43 0.282-0.77l-7.084-18.71h3.41l3.885 10.81c0.503 1.37 0.955 2.82 1.353 4.33 0.363-1.46 0.797-2.87 1.296-4.26l4-10.88h3.16l-7.1 18.99c-0.764 2.05-1.356 3.46-1.778 4.23-0.562 1.05-1.207 1.81-1.933 2.29-0.727 0.49-1.594 0.74-2.602 0.74-0.609 0-1.289-0.13-2.039-0.39m16.872-12.76l3.13-0.49c0.18 1.25 0.66 2.21 1.46 2.88 0.81 0.67 1.93 1 3.38 1s2.53-0.29 3.23-0.88c0.7-0.6 1.05-1.29 1.05-2.09 0-0.71-0.31-1.28-0.93-1.69-0.43-0.28-1.51-0.64-3.23-1.07-2.32-0.59-3.93-1.09-4.84-1.51-0.89-0.43-1.57-1.03-2.03-1.78-0.46-0.76-0.69-1.6-0.69-2.51 0-0.83 0.19-1.6 0.56-2.3 0.39-0.72 0.91-1.31 1.57-1.78 0.49-0.36 1.16-0.67 2-0.91 0.86-0.26 1.77-0.39 2.74-0.39 1.47 0 2.75 0.21 3.85 0.63 1.12 0.43 1.94 1 2.46 1.73 0.53 0.71 0.89 1.67 1.09 2.88l-3.09 0.42c-0.14-0.96-0.55-1.71-1.23-2.25-0.67-0.54-1.62-0.81-2.85-0.81-1.45 0-2.49 0.24-3.11 0.72s-0.93 1.05-0.93 1.69c0 0.41 0.13 0.78 0.39 1.11 0.25 0.34 0.66 0.62 1.21 0.84 0.31 0.12 1.25 0.39 2.79 0.81 2.24 0.6 3.8 1.09 4.68 1.48 0.89 0.37 1.59 0.92 2.09 1.65s0.76 1.63 0.76 2.71c0 1.05-0.31 2.05-0.93 2.98-0.61 0.93-1.5 1.65-2.66 2.17-1.16 0.5-2.47 0.75-3.94 0.75-2.42 0-4.27-0.5-5.55-1.51-1.27-1.01-2.08-2.5-2.43-4.48m26.18 2.74l0.45 2.8c-0.89 0.18-1.68 0.28-2.39 0.28-1.15 0-2.04-0.18-2.67-0.55-0.63-0.36-1.08-0.84-1.33-1.42-0.26-0.6-0.39-1.85-0.39-3.75v-10.74h-2.32v-2.46h2.32v-4.62l3.15-1.9v6.52h3.18v2.46h-3.18v10.92c0 0.9 0.05 1.48 0.15 1.74 0.12 0.26 0.3 0.46 0.55 0.62 0.26 0.15 0.62 0.22 1.09 0.22 0.35 0 0.81-0.04 1.39-0.12m15.85-3.18l3.27 0.4c-0.51 1.91-1.47 3.4-2.86 4.45-1.4 1.06-3.18 1.58-5.35 1.58-2.73 0-4.9-0.84-6.5-2.51-1.59-1.69-2.39-4.05-2.39-7.09 0-3.14 0.81-5.57 2.42-7.31 1.62-1.73 3.72-2.6 6.3-2.6 2.49 0 4.53 0.85 6.11 2.55 1.59 1.7 2.38 4.09 2.38 7.17 0 0.19-0.01 0.47-0.02 0.85h-13.92c0.12 2.05 0.7 3.62 1.74 4.71s2.34 1.63 3.9 1.63c1.16 0 2.15-0.3 2.97-0.91s1.47-1.59 1.95-2.92m-10.39-5.12h10.43c-0.14-1.57-0.54-2.74-1.2-3.53-1.01-1.22-2.31-1.83-3.92-1.83-1.45 0-2.68 0.49-3.67 1.46s-1.53 2.27-1.64 3.9m17.65 11.13v-18.67h2.83v2.62c0.59-0.91 1.37-1.64 2.34-2.2s2.08-0.84 3.32-0.84c1.39 0 2.52 0.29 3.39 0.86 0.9 0.58 1.52 1.38 1.89 2.41 1.47-2.18 3.39-3.27 5.76-3.27 1.85 0 3.28 0.52 4.27 1.55 1 1.02 1.5 2.59 1.5 4.73v12.81h-3.15v-11.76c0-1.26-0.1-2.17-0.32-2.72-0.2-0.57-0.56-1.02-1.1-1.36s-1.18-0.51-1.9-0.51c-1.31 0-2.4 0.44-3.27 1.32-0.87 0.87-1.3 2.26-1.3 4.18v10.85h-3.17v-12.13c0-1.4-0.25-2.46-0.77-3.16-0.52-0.71-1.36-1.06-2.53-1.06-0.89 0-1.72 0.24-2.48 0.71-0.75 0.46-1.29 1.15-1.63 2.05-0.34 0.91-0.51 2.21-0.51 3.91v9.68h-3.17"></path><path id="text3734" style="fill:#000000" d="m4.5488 247.32v-25.77h11.426c2.296 0 4.043 0.24 5.238 0.71 1.195 0.45 2.15 1.27 2.865 2.44s1.072 2.47 1.072 3.88c0 1.83-0.591 3.37-1.775 4.63-1.184 1.25-3.012 2.05-5.484 2.39 0.902 0.43 1.587 0.86 2.056 1.28 0.996 0.92 1.94 2.06 2.83 3.43l4.483 7.01h-4.289l-3.41-5.36c-0.997-1.55-1.817-2.73-2.461-3.55-0.645-0.82-1.225-1.39-1.741-1.72-0.504-0.33-1.019-0.56-1.547-0.69-0.386-0.08-1.019-0.12-1.898-0.12h-3.955v11.44h-3.4102m3.4102-14.39h7.33c1.559 0 2.777-0.16 3.656-0.48 0.879-0.33 1.547-0.84 2.004-1.55s0.686-1.48 0.686-2.32c0-1.21-0.446-2.22-1.336-3-0.879-0.79-2.274-1.18-4.184-1.18h-8.156v8.53m34.383 14.39v-2.74c-1.453 2.11-3.428 3.16-5.924 3.16-1.102 0-2.133-0.21-3.094-0.63-0.949-0.42-1.658-0.95-2.127-1.58-0.457-0.65-0.779-1.43-0.967-2.36-0.128-0.62-0.193-1.6-0.193-2.95v-11.57h3.164v10.36c0 1.65 0.065 2.76 0.194 3.34 0.199 0.83 0.621 1.49 1.265 1.97 0.645 0.47 1.442 0.7 2.391 0.7s1.84-0.24 2.672-0.72c0.832-0.49 1.418-1.16 1.757-1.99 0.352-0.84 0.528-2.06 0.528-3.65v-10.01h3.164v18.67h-2.83m7.734 0v-25.77h3.164v25.77h-3.164m20.865-6.01l3.27 0.41c-0.516 1.91-1.471 3.39-2.865 4.44-1.395 1.06-3.176 1.58-5.344 1.58-2.731 0-4.898-0.83-6.504-2.51-1.594-1.69-2.391-4.05-2.391-7.08 0-3.14 0.809-5.58 2.426-7.32 1.617-1.73 3.715-2.6 6.293-2.6 2.496 0 4.535 0.85 6.117 2.55s2.373 4.09 2.373 7.17c0 0.19-0.005 0.47-0.017 0.85h-13.922c0.117 2.05 0.697 3.62 1.74 4.71s2.344 1.63 3.903 1.63c1.16 0 2.15-0.3 2.97-0.91 0.821-0.61 1.471-1.58 1.951-2.92m-10.388-5.11h10.424c-0.141-1.57-0.54-2.75-1.196-3.54-1.008-1.22-2.314-1.83-3.92-1.83-1.453 0-2.677 0.49-3.673 1.46-0.985 0.98-1.53 2.28-1.635 3.91m18.527-3.94v-3.61h3.604v3.61h-3.604m0 15.06v-3.6h3.604v3.6h-3.604m19.67 0v-25.77h17.38v3.04h-13.97v7.98h12.09v3.05h-12.09v11.7h-3.41m38.07-15.15h-17.01v-2.95h17.01v2.95m0 7.82h-17.01v-2.95h17.01v2.95m4.96 7.33v-25.77h17.39v3.04h-13.98v7.98h12.1v3.05h-12.1v11.7h-3.41m28.07-4.16v-7.07h-7.01v-2.95h7.01v-7.02h2.99v7.02h7.02v2.95h-7.02v7.07h-2.99m14.96 4.16v-25.77h17.39v3.04h-13.98v7.98h12.1v3.05h-12.1v11.7h-3.41m20.2-7.73v-3.18h9.72v3.18h-9.72m13.83 7.73v-25.77h17.39v3.04h-13.98v7.98h12.1v3.05h-12.1v11.7h-3.41m20.2-7.73v-3.18h9.72v3.18h-9.72m13.84 7.73v-25.77h17.38v3.04h-13.97v7.98h12.09v3.05h-12.09v11.7h-3.41m28.07-4.16v-7.07h-7.02v-2.95h7.02v-7.02h2.99v7.02h7.01v2.95h-7.01v7.07h-2.99m14.96 4.16v-25.77h17.38v3.04h-13.97v7.98h12.09v3.05h-12.09v11.7h-3.41"></path><path id="text3738" style="fill:#000000" d="m4.6367 348.52v-25.77h3.4102v22.73h12.691v3.04h-16.101m32.554-6.01l3.27 0.41c-0.516 1.91-1.471 3.39-2.865 4.44-1.395 1.06-3.176 1.59-5.344 1.59-2.731 0-4.898-0.84-6.504-2.52-1.594-1.69-2.391-4.05-2.391-7.08 0-3.14 0.809-5.58 2.426-7.31 1.617-1.74 3.715-2.61 6.293-2.61 2.496 0 4.535 0.85 6.117 2.55s2.373 4.09 2.373 7.17c0 0.19-0.005 0.47-0.017 0.85h-13.922c0.117 2.05 0.697 3.62 1.74 4.71s2.344 1.63 3.903 1.63c1.16 0 2.15-0.3 2.97-0.91 0.821-0.61 1.471-1.58 1.951-2.92m-10.388-5.11h10.424c-0.141-1.57-0.54-2.75-1.196-3.54-1.008-1.21-2.314-1.82-3.92-1.82-1.453 0-2.677 0.48-3.673 1.45-0.985 0.98-1.53 2.28-1.635 3.91m18.404 11.12v-16.2h-2.795v-2.46h2.795v-1.99c0-1.25 0.111-2.19 0.334-2.8 0.305-0.82 0.838-1.48 1.6-1.98 0.773-0.52 1.851-0.77 3.234-0.77 0.891 0 1.875 0.1 2.953 0.31l-0.474 2.76c-0.657-0.12-1.278-0.17-1.864-0.17-0.961 0-1.64 0.2-2.039 0.61-0.398 0.41-0.597 1.18-0.597 2.3v1.73h3.638v2.46h-3.638v16.2h-3.147m16.137-2.83l0.457 2.8c-0.891 0.19-1.688 0.28-2.391 0.28-1.148 0-2.039-0.18-2.672-0.54-0.633-0.37-1.078-0.84-1.336-1.43-0.257-0.6-0.386-1.84-0.386-3.74v-10.74h-2.321v-2.46h2.321v-4.63l3.146-1.9v6.53h3.182v2.46h-3.182v10.91c0 0.91 0.053 1.49 0.158 1.74 0.117 0.26 0.299 0.47 0.545 0.62 0.258 0.15 0.621 0.23 1.09 0.23 0.352 0 0.815-0.04 1.389-0.13m13.517 2.83v-25.77h11.426c2.297 0 4.043 0.24 5.238 0.71 1.196 0.45 2.151 1.27 2.866 2.44 0.714 1.17 1.072 2.47 1.072 3.89 0 1.82-0.592 3.36-1.775 4.62-1.184 1.25-3.012 2.05-5.485 2.39 0.902 0.43 1.588 0.86 2.057 1.28 0.996 0.92 1.939 2.06 2.83 3.43l4.482 7.01h-4.289l-3.41-5.36c-0.996-1.54-1.816-2.73-2.461-3.55-0.644-0.82-1.225-1.39-1.74-1.72-0.504-0.33-1.02-0.56-1.547-0.69-0.387-0.08-1.02-0.12-1.898-0.12h-3.956v11.44h-3.41m3.41-14.39h7.331c1.558 0 2.777-0.16 3.656-0.48 0.879-0.33 1.547-0.84 2.004-1.54 0.457-0.72 0.685-1.49 0.685-2.32 0-1.22-0.445-2.22-1.336-3.01-0.879-0.79-2.273-1.18-4.183-1.18h-8.157v8.53m23.029-0.67v-3.6h3.6v3.6h-3.6m0 15.06v-3.6h3.6v3.6h-3.6m34.63-19.45l-3.15 0.24c-0.28-1.24-0.68-2.14-1.19-2.71-0.86-0.9-1.91-1.35-3.17-1.35-1.01 0-1.89 0.28-2.65 0.84-1 0.73-1.78 1.79-2.36 3.19-0.57 1.39-0.87 3.38-0.89 5.95 0.76-1.16 1.69-2.02 2.79-2.58s2.26-0.84 3.46-0.84c2.11 0 3.91 0.78 5.38 2.34 1.49 1.54 2.23 3.55 2.23 6.01 0 1.61-0.35 3.12-1.05 4.51-0.69 1.39-1.65 2.45-2.87 3.19-1.21 0.73-2.6 1.1-4.14 1.1-2.64 0-4.79-0.96-6.45-2.9-1.67-1.94-2.5-5.14-2.5-9.59 0-4.99 0.92-8.61 2.76-10.87 1.6-1.97 3.77-2.95 6.49-2.95 2.02 0 3.68 0.57 4.97 1.7 1.3 1.14 2.08 2.71 2.34 4.72m-12.92 11.1c0 1.09 0.23 2.14 0.68 3.13 0.47 1 1.12 1.76 1.95 2.29 0.84 0.51 1.71 0.77 2.62 0.77 1.34 0 2.49-0.54 3.45-1.62 0.96-1.07 1.44-2.54 1.44-4.39 0-1.78-0.47-3.18-1.42-4.2-0.95-1.03-2.15-1.55-3.59-1.55-1.43 0-2.64 0.52-3.64 1.55-0.99 1.02-1.49 2.36-1.49 4.02m16.54-4.35c0-3.05 0.31-5.5 0.93-7.35 0.63-1.87 1.56-3.3 2.8-4.31s2.8-1.51 4.67-1.51c1.38 0 2.6 0.28 3.64 0.84 1.04 0.55 1.9 1.36 2.58 2.41 0.68 1.04 1.22 2.32 1.6 3.83 0.39 1.5 0.58 3.53 0.58 6.09 0 3.02-0.31 5.46-0.93 7.33-0.62 1.85-1.55 3.28-2.79 4.3-1.23 1.01-2.79 1.51-4.68 1.51-2.48 0-4.43-0.89-5.85-2.67-1.7-2.14-2.55-5.64-2.55-10.47m3.25 0c0 4.23 0.49 7.04 1.48 8.45 0.99 1.39 2.22 2.09 3.67 2.09s2.67-0.7 3.66-2.11c0.99-1.4 1.49-4.22 1.49-8.43 0-4.25-0.5-7.07-1.49-8.46s-2.22-2.09-3.69-2.09c-1.46 0-2.62 0.61-3.48 1.84-1.09 1.57-1.64 4.47-1.64 8.71"></path><path id="text3742" style="fill:#000000" d="m4.5488 382.58v-25.76h11.426c2.296 0 4.043 0.23 5.238 0.7 1.195 0.46 2.15 1.27 2.865 2.44s1.072 2.47 1.072 3.89c0 1.82-0.591 3.37-1.775 4.62s-3.012 2.05-5.484 2.39c0.902 0.43 1.587 0.86 2.056 1.28 0.996 0.92 1.94 2.06 2.83 3.43l4.483 7.01h-4.289l-3.41-5.36c-0.997-1.54-1.817-2.73-2.461-3.55-0.645-0.82-1.225-1.39-1.741-1.72-0.504-0.33-1.019-0.56-1.547-0.69-0.386-0.08-1.019-0.12-1.898-0.12h-3.955v11.44h-3.4102m3.4102-14.39h7.33c1.559 0 2.777-0.16 3.656-0.48s1.547-0.84 2.004-1.54c0.457-0.72 0.686-1.49 0.686-2.32 0-1.22-0.446-2.22-1.336-3.01-0.879-0.78-2.274-1.18-4.184-1.18h-8.156v8.53m22.166-7.74v-3.63h3.164v3.63h-3.164m0 22.13v-18.66h3.164v18.66h-3.164m7.418 1.55l3.076 0.46c0.129 0.95 0.486 1.64 1.072 2.07 0.786 0.59 1.858 0.88 3.217 0.88 1.465 0 2.596-0.29 3.393-0.88 0.797-0.58 1.336-1.4 1.617-2.46 0.164-0.64 0.24-2 0.228-4.06-1.382 1.63-3.105 2.44-5.167 2.44-2.567 0-4.553-0.92-5.959-2.77-1.407-1.85-2.11-4.07-2.11-6.66 0-1.79 0.322-3.43 0.967-4.93 0.644-1.51 1.576-2.67 2.795-3.49 1.23-0.83 2.672-1.24 4.324-1.24 2.203 0 4.02 0.9 5.449 2.68v-2.25h2.918v16.13c0 2.91-0.299 4.97-0.896 6.17-0.586 1.22-1.524 2.18-2.813 2.89-1.277 0.7-2.853 1.05-4.728 1.05-2.227 0-4.026-0.5-5.397-1.51-1.371-1-2.033-2.5-1.986-4.52m2.619-11.21c0 2.45 0.486 4.23 1.459 5.36 0.973 1.12 2.191 1.69 3.656 1.69 1.453 0 2.672-0.56 3.657-1.67 0.984-1.13 1.476-2.89 1.476-5.28 0-2.28-0.51-4.01-1.529-5.17-1.008-1.16-2.227-1.74-3.656-1.74-1.407 0-2.602 0.58-3.586 1.73-0.985 1.13-1.477 2.83-1.477 5.08m18 9.66v-25.76h3.164v9.24c1.477-1.71 3.34-2.57 5.59-2.57 1.383 0 2.584 0.28 3.604 0.83 1.019 0.54 1.746 1.29 2.179 2.25 0.446 0.96 0.668 2.36 0.668 4.18v11.83h-3.164v-11.83c0-1.58-0.346-2.73-1.037-3.44-0.68-0.73-1.646-1.09-2.9-1.09-0.938 0-1.823 0.25-2.655 0.74-0.82 0.48-1.406 1.13-1.757 1.97-0.352 0.83-0.528 1.98-0.528 3.44v10.21h-3.164m26.947-2.83l0.457 2.8c-0.89 0.19-1.687 0.28-2.39 0.28-1.149 0-2.039-0.18-2.672-0.54-0.633-0.37-1.078-0.84-1.336-1.43-0.258-0.6-0.387-1.84-0.387-3.74v-10.74h-2.32v-2.46h2.32v-4.63l3.147-1.89v6.52h3.181v2.46h-3.181v10.91c0 0.91 0.052 1.49 0.158 1.74 0.117 0.26 0.299 0.47 0.545 0.62 0.258 0.15 0.621 0.23 1.09 0.23 0.351 0 0.814-0.04 1.388-0.13m13.518 2.83v-25.76h11.423c2.3 0 4.05 0.23 5.24 0.7 1.2 0.46 2.15 1.27 2.87 2.44 0.71 1.17 1.07 2.47 1.07 3.89 0 1.82-0.59 3.37-1.78 4.62-1.18 1.25-3.01 2.05-5.48 2.39 0.9 0.43 1.59 0.86 2.06 1.28 0.99 0.92 1.93 2.06 2.83 3.43l4.48 7.01h-4.29l-3.41-5.36c-1-1.54-1.82-2.73-2.46-3.55-0.65-0.82-1.23-1.39-1.74-1.72s-1.02-0.56-1.55-0.69c-0.39-0.08-1.02-0.12-1.9-0.12h-3.95v11.44h-3.413m3.413-14.39h7.33c1.56 0 2.77-0.16 3.65-0.48s1.55-0.84 2.01-1.54c0.45-0.72 0.68-1.49 0.68-2.32 0-1.22-0.44-2.22-1.33-3.01-0.88-0.78-2.28-1.18-4.19-1.18h-8.15v8.53m23.02-0.67v-3.6h3.61v3.6h-3.61m0 15.06v-3.6h3.61v3.6h-3.61m34.63-19.45l-3.14 0.24c-0.28-1.24-0.68-2.14-1.2-2.71-0.85-0.9-1.91-1.35-3.16-1.35-1.01 0-1.9 0.28-2.66 0.84-0.99 0.73-1.78 1.79-2.35 3.19-0.58 1.39-0.88 3.38-0.9 5.96 0.76-1.16 1.69-2.03 2.8-2.59 1.1-0.56 2.25-0.84 3.46-0.84 2.11 0 3.9 0.78 5.38 2.34 1.49 1.54 2.23 3.55 2.23 6.01 0 1.61-0.35 3.12-1.05 4.52-0.7 1.38-1.65 2.44-2.87 3.18-1.22 0.73-2.6 1.1-4.15 1.1-2.63 0-4.79-0.96-6.45-2.9s-2.5-5.14-2.5-9.59c0-4.98 0.92-8.61 2.76-10.87 1.61-1.97 3.77-2.95 6.49-2.95 2.03 0 3.69 0.57 4.98 1.7 1.3 1.14 2.08 2.71 2.33 4.72m-12.92 11.11c0 1.08 0.23 2.13 0.69 3.12 0.47 1 1.12 1.76 1.95 2.29 0.83 0.51 1.71 0.77 2.62 0.77 1.34 0 2.48-0.54 3.44-1.61 0.97-1.08 1.45-2.55 1.45-4.4 0-1.78-0.48-3.18-1.43-4.2-0.95-1.03-2.14-1.55-3.58-1.55-1.43 0-2.65 0.52-3.64 1.55-1 1.02-1.5 2.36-1.5 4.03m16.54-4.36c0-3.05 0.31-5.5 0.94-7.35 0.63-1.87 1.56-3.3 2.79-4.31 1.24-1.01 2.8-1.51 4.68-1.51 1.38 0 2.59 0.28 3.64 0.84 1.04 0.55 1.9 1.36 2.58 2.41 0.68 1.04 1.21 2.32 1.6 3.83 0.39 1.5 0.58 3.53 0.58 6.09 0 3.02-0.31 5.46-0.93 7.33-0.62 1.85-1.56 3.28-2.8 4.3-1.23 1.01-2.79 1.51-4.67 1.51-2.49 0-4.44-0.89-5.86-2.67-1.7-2.14-2.55-5.63-2.55-10.47m3.26 0c0 4.23 0.49 7.04 1.47 8.45 1 1.4 2.22 2.09 3.68 2.09 1.45 0 2.67-0.7 3.65-2.11 1-1.4 1.5-4.22 1.5-8.43 0-4.25-0.5-7.06-1.5-8.46-0.98-1.39-2.21-2.09-3.69-2.09-1.45 0-2.61 0.61-3.48 1.84-1.09 1.57-1.63 4.48-1.63 8.71"></path><path id="text3445" style="fill:#000000" d="m4.6367 307.45v-25.77h3.4102v22.73h12.691v3.04h-16.101m32.554-6.01l3.27 0.4c-0.516 1.91-1.471 3.4-2.865 4.45-1.395 1.06-3.176 1.58-5.344 1.58-2.731 0-4.898-0.84-6.504-2.51-1.594-1.69-2.391-4.05-2.391-7.08 0-3.15 0.809-5.58 2.426-7.32 1.617-1.73 3.715-2.6 6.293-2.6 2.496 0 4.535 0.85 6.117 2.55s2.373 4.09 2.373 7.17c0 0.19-0.005 0.47-0.017 0.85h-13.922c0.117 2.05 0.697 3.62 1.74 4.71s2.344 1.63 3.903 1.63c1.16 0 2.15-0.3 2.97-0.91 0.821-0.61 1.471-1.58 1.951-2.92m-10.388-5.12h10.424c-0.141-1.57-0.54-2.74-1.196-3.53-1.008-1.22-2.314-1.83-3.92-1.83-1.453 0-2.677 0.49-3.673 1.46-0.985 0.97-1.53 2.28-1.635 3.9m22.834 11.13l-7.102-18.67h3.34l4.008 11.18c0.433 1.21 0.832 2.46 1.195 3.76 0.281-0.98 0.674-2.16 1.178-3.55l4.148-11.39h3.252l-7.066 18.67h-2.953m25.664-6.01l3.269 0.4c-0.515 1.91-1.47 3.4-2.865 4.45-1.394 1.06-3.176 1.58-5.344 1.58-2.73 0-4.898-0.84-6.504-2.51-1.593-1.69-2.39-4.05-2.39-7.08 0-3.15 0.808-5.58 2.426-7.32 1.617-1.73 3.714-2.6 6.293-2.6 2.496 0 4.535 0.85 6.117 2.55s2.373 4.09 2.373 7.17c0 0.19-0.006 0.47-0.018 0.85h-13.922c0.118 2.05 0.698 3.62 1.741 4.71s2.343 1.63 3.902 1.63c1.16 0 2.15-0.3 2.971-0.91 0.82-0.61 1.47-1.58 1.951-2.92m-10.389-5.12h10.424c-0.141-1.57-0.539-2.74-1.195-3.53-1.008-1.22-2.315-1.83-3.92-1.83-1.453 0-2.678 0.49-3.674 1.46-0.985 0.97-1.529 2.28-1.635 3.9m17.578 11.13v-25.77h3.164v25.77h-3.164m27.33 0v-6.17h-11.175v-2.9l11.755-16.7h2.59v16.7h3.48v2.9h-3.48v6.17h-3.17m0-9.07v-11.62l-8.06 11.62h8.06"></path><path id="path19990" style="stroke:#000000;stroke-width:1px;fill:none" d="m314.61 512.5v-2l1.73-1v-2l-1.73-1v-2l1.73-1 1.73 1 1.74-1v-2l1.73-1v-2l1.73-1v-2l-1.73-1v-2l-1.73-1v-2l-1.74-1-1.73 1-1.73-1v-2l1.73-1v-2l-1.73-1v-2l1.73-1 1.73 1 1.74-1v-2l1.73-1 1.73 1v2l1.73 1 1.73-1 1.74 1 1.73-1 1.73 1 1.73-1v-2l1.74-1v-2l1.73-1v-2l-1.73-1v-2l1.73-1 1.73 1 1.73-1v-2l1.73-1v-2l1.74-1v-2l-1.74-1v-2l1.74-1 1.73 1 1.73-1v-2l1.73-1v-2l1.73-1v-2l-1.73-1v-2l-1.73-1v-2l-1.73-1-1.73 1-1.74-1v-2l1.74-1v-2l-1.74-1v-2l-1.73-1v-2l-1.73-1-1.73 1-1.73-1v-2l1.73-1v-2l-1.73-1v-2l-1.74-1v-2l-1.73-1-1.73 1-1.73-1-1.74 1-1.73-1-1.73 1v2l-1.73 1-1.73-1v-2l-1.74-1-1.73 1-1.73-1v-2l1.73-1v-2l-1.73-1v-2l1.73-1 1.73 1 1.74-1v-2l1.73-1v-2l1.73-1v-2l-1.73-1v-2l-1.73-1v-2l-1.74-1-1.73 1-1.73-1v-2l1.73-1v-2l-1.73-1v-2l1.73-1 1.73 1 1.74-1v-2l1.73-1 1.73 1v2l1.73 1 1.73-1 1.74 1 1.73-1 1.73 1 1.73-1v-2l1.74-1v-2l1.73-1v-2l-1.73-1v-2l1.73-1 1.73 1 1.73-1v-2l1.73-1 1.74 1v2l1.73 1 1.73-1 1.73 1v2l-1.73 1v2l1.73 1v2l1.73 1v2l1.74 1 1.73-1 1.73 1 1.73-1 1.73 1 1.74-1v-2l1.73-1 1.73 1v2l1.73 1 1.73-1 1.74 1 1.73-1 1.73 1 1.73-1v-2l1.73-1 1.74 1v2l1.73 1 1.73-1 1.73 1 1.73-1 1.74 1 1.73-1v-2l1.73-1v-2l1.73-1v-2l-1.73-1v-2l1.73-1 1.73 1 1.74-1v-2l1.73-1v-2l1.73-1v-2l-1.73-1v-2l1.73-1 1.73 1 1.74-1v-2l1.73-1v-2l1.73-1v-2l-1.73-1v-2l-1.73-1v-2l-1.74-1-1.73 1-1.73-1v-2l1.73-1v-2l-1.73-1v-2l1.73-1 1.73 1 1.74-1v-2l1.73-1 1.73 1v2l1.73 1 1.73-1 1.74 1 1.73-1 1.73 1 1.73-1v-2l1.73-1v-2l1.74-1v-2l-1.74-1v-2l1.74-1 1.73 1 1.73-1v-2l1.73-1v-2l1.73-1v-2l-1.73-1v-2l1.73-1 1.74 1 1.73-1v-2l1.73-1v-2l1.73-1v-2l-1.73-1v-2l-1.73-1v-2l-1.73-1-1.74 1-1.73-1v-2l1.73-1v-2l-1.73-1v-2l1.73-1 1.74 1 1.73-1v-2l1.73-1 1.73 1v2l1.73 1 1.74-1 1.73 1 1.73-1 1.73 1 1.73-1v-2l1.74-1v-2l1.73-1v-2l-1.73-1v-2l1.73-1 1.73 1 1.73-1v-2l1.73-1v-2l1.74-1v-2l-1.74-1v-2l1.74-1 1.73 1 1.73-1v-2l1.73-1v-2l1.73-1v-2l-1.73-1v-2l-1.73-1v-2l-1.73-1-1.73 1-1.74-1v-2l1.74-1v-2l-1.74-1v-2l-1.73-1v-2l-1.73-1-1.73 1-1.73-1v-2l1.73-1v-2l-1.73-1v-2l-1.74-1v-2l-1.73-1-1.73 1-1.73-1-1.73 1-1.74-1-1.73 1v2l-1.73 1-1.73-1v-2l-1.73-1-1.74 1-1.73-1v-2l1.73-1v-2l-1.73-1v-2l1.73-1 1.74 1 1.73-1v-2l1.73-1v-2l1.73-1v-2l-1.73-1v-2l-1.73-1v-2l-1.73-1-1.74 1-1.73-1v-2l1.73-1v-2l-1.73-1v-2l-1.73-1v-2l-1.73-1-1.73 1-1.74-1v-2l1.74-1v-2l-1.74-1v-2l-1.73-1v-2l-1.73-1-1.73 1-1.73-1-1.74 1-1.73-1-1.73 1v2l-1.73 1-1.73-1v-2l-1.74-1-1.73 1-1.73-1v-2l1.73-1v-2l-1.73-1v-2l1.73-1 1.73 1 1.74-1v-2l1.73-1v-2l1.73-1v-2l-1.73-1v-2l-1.73-1v-2l-1.74-1-1.73 1-1.73-1v-2l1.73-1v-2l-1.73-1v-2l-1.73-1v-2l-1.74-1-1.73 1-1.73-1v-2l1.73-1v-2l-1.73-1v-2l-1.73-1v-2l-1.73-1-1.74 1-1.73-1-1.73 1-1.73-1-1.73 1v2l-1.74 1-1.73-1v-2l-1.73-1-1.73 1-1.73-1-1.74 1-1.73-1-1.73 1v2l-1.73 1-1.73-1v-2l-1.74-1-1.73 1-1.73-1-1.73 1-1.73-1-1.74 1v2l-1.73 1v2l-1.73 1v2l1.73 1v2l-1.73 1-1.73-1-1.73 1v2l-1.74 1-1.73-1v-2l-1.73-1-1.73 1-1.73-1v-2l1.73-1v-2l-1.73-1v-2l-1.74-1v-2l-1.73-1-1.73 1-1.73-1-1.74 1-1.73-1-1.73 1v2l-1.73 1-1.73-1v-2l-1.74-1-1.73 1-1.73-1v-2l1.73-1v-2l-1.73-1v-2l1.73-1 1.73 1 1.74-1v-2l1.73-1v-2l1.73-1v-2l-1.73-1v-2l-1.73-1v-2l-1.74-1-1.73 1-1.73-1v-2l1.73-1v-2l-1.73-1v-2l1.73-1 1.73 1 1.74-1v-2l1.73-1 1.73 1v2l1.73 1 1.73-1 1.74 1 1.73-1 1.73 1 1.73-1v-2l1.74-1v-2l1.73-1v-2l-1.73-1v-2l1.73-1 1.73 1 1.73-1v-2l1.73-1v-2l1.74-1v-2l-1.74-1v-2l1.74-1 1.73 1 1.73-1v-2l1.73-1v-2l1.73-1v-2l-1.73-1v-2l-1.73-1v-2l-1.73-1-1.73 1-1.74-1v-2l1.74-1v-2l-1.74-1v-2l-1.73-1v-2l-1.73-1-1.73 1-1.73-1v-2l1.73-1v-2l-1.73-1v-2l-1.74-1v-2l-1.73-1-1.73 1-1.73-1-1.74 1-1.73-1-1.73 1v2l-1.73 1-1.73-1v-2l-1.74-1-1.73 1-1.73-1v-2l1.73-1v-2l-1.73-1v-2l1.73-1 1.73 1 1.74-1v-2l1.73-1v-2l1.73-1v-2l-1.73-1v-2l-1.73-1v-2l-1.74-1-1.73 1-1.73-1v-2l1.73-1v-2l-1.73-1v-2"></path><metadata></metadata></svg> 