<?xml version="1.0" encoding="UTF-8" standalone="no"?> <!-- Generator: Adobe Illustrator 13.0.2, SVG Export Plug-In . SVG Version: 6.00 Build 14948) --> <svg xmlns:rdf="http://www.w3.org/1999/02/22-rdf-syntax-ns#" xmlns="http://www.w3.org/2000/svg" xmlns:cc="http://web.resource.org/cc/" xmlns:xlink="http://www.w3.org/1999/xlink" xmlns:dc="http://purl.org/dc/elements/1.1/" xmlns:svg="http://www.w3.org/2000/svg" xmlns:inkscape="http://www.inkscape.org/namespaces/inkscape" xmlns:sodipodi="http://sodipodi.sourceforge.net/DTD/sodipodi-0.dtd" xmlns:ns1="http://sozi.baierouge.fr" id="dutch_girl_xA0_Image_1_" style="enable-background:new 0 0 167.117 374.64" xml:space="preserve" viewBox="0 0 167.117 374.64" y="0px" x="0px"> <g> <path style="clip-rule:evenodd;fill-rule:evenodd" d="m86.4 0.24c-0.123 1.396 0.271 3.31-0.239 4.32-1.082-0.415-1.159-2.244-0.48-3.12-4.404 0.119-6.844 4.165-9.6 6.72-0.094 1.506-1.018 2.183-1.2 3.6-3.056 3.191-6.826 3.755-9.12 7.2-2.411 3.621-1.858 8.91-1.68 15.12 0.037 1.283 0.786 2.895-0.48 3.84-0.739-0.194-0.648-1.352-0.72-1.92-0.174-1.382 0.051-2.657 0-4.08-0.075-2.08-0.454-4.184-0.24-6.24 0.337-3.243 1.807-5.807 2.64-8.16 3.08-1.96 5.929-4.151 8.64-6.48 1.965-5.554 5.925-9.115 11.519-11.04 0.214 0.187 0.542 0.258 0.96 0.24z"></path> <path style="clip-rule:evenodd;fill-rule:evenodd" d="m85.68 15.12v1.2c-0.478-0.322-1.143-0.458-1.68-0.72 0.034-0.686 1.001-0.439 1.68-0.48z"></path> <path style="clip-rule:evenodd;fill-rule:evenodd" d="m86.64 58.8c0.776-0.296 0.184 0.777 0.96 0.48-0.156 0.892-1.427 0.812-2.16 0.479 0.058-0.661 0.893-0.547 1.2-0.959z"></path> <path style="clip-rule:evenodd;fill-rule:evenodd" d="m83.76 59.28c0.369 1.173-1.193 1.136-1.68 0.72 0.049-0.959 1.089-0.925 1.68-0.72z"></path> <path style="clip-rule:evenodd;fill-rule:evenodd" d="m82.081 64.08c1.197-0.158 1.359 0.72 2.16 0.96 0.507-0.213 0.709-0.73 1.439-0.72 0.038 0.998-1.072 0.848-0.96 1.92-1.345-0.255-2.827-0.373-2.639-2.16z"></path> <path style="clip-rule:evenodd;fill-rule:evenodd" d="m90.241 65.04c-0.147 0.333-0.925 0.036-0.96 0.48-0.199-0.521-0.906-0.534-0.961-1.2 0.897-0.183 1.792-0.382 1.921 0.72z"></path> <path style="clip-rule:evenodd;fill-rule:evenodd" d="m105.36 81.6c-1.892 0.292-2.152-1.047-3.359-1.44-0.502 0.572 0.538 1.058 0.72 1.68 0.957 7.531 1.071 13.937-1.2 21.6-1.361 4.593-2.581 8.055-4.8 11.52-1.403 2.192-2.331 3.739-4.8 4.56-1.017-0.583-1.372-1.828-1.44-3.36-0.948-1.573-1.094-2.647-1.439-4.56-0.648-0.596-0.616-1.448-0.96-2.16-2.339-4.835-5.252-9.565-8.16-13.92-1.508-2.258-2.931-4.469-4.56-6.48-1.579-1.949-3.493-3.464-5.04-5.28 3.07 0.13 3.338 3.062 5.76 3.84 0.517 1.243 1.389 2.131 2.4 2.88 0.813 2.343 2.45 4.339 3.839 6.48 0.974 1.499 1.907 3.042 2.881 4.56 1.002 1.564 1.77 3.014 2.64 4.8 1.716 3.523 3.751 6.998 4.56 12 5.949-6.362 8.85-16.697 9.841-26.64-0.579-3.199 0.088-7.969-1.44-11.76-0.344-0.697-1.484-0.595-1.92-1.2-0.587-1.975-1.672-4.726-1.68-6.48 0.489-0.482 0.471 0.106 0.96 0.24 0.271 1.728 0.88 3.12 1.199 4.8 1.013 0.772 2.253 1.222 3.36 1.92 0.93 0.586 2.32 1.22 2.64 2.4z"></path> <path style="clip-rule:evenodd;fill-rule:evenodd" d="m134.88 163.92c-1.119 0.131-0.085-0.879 0-1.2 0.233-0.882 0.296-2.304 1.439-3.12 0.986-5.909 0.799-10.667 0.48-17.04-0.065-1.318-0.513-2.777-0.48-4.08 0.041-1.599 0.834-3.214 0.961-4.8 0.067-0.852-0.281-1.811-0.24-2.64 0.033-0.676 0.468-1.312 0.479-1.92 0.028-1.446-0.064-3.143-0.239-4.56-0.287-2.326-1.414-4.312-1.921-6.48-0.632-2.704-0.129-5.873-2.159-8.16-0.768 0.351-0.83 1.263-1.2 1.92-0.307 0.543-1.145 1.019-0.96 1.92-0.959 0.293-1.365 1.466-1.92 2.16-1.481 1.854-3.42 3.066-5.04 5.04-0.21 0.255-0.203 0.522-0.48 0.72-0.889 0.635-1.729 1.661-2.64 2.64-0.697 0.751-1.441 1.415-2.16 2.16-0.67 0.695-1.021 1.749-1.68 2.4-0.505 0.5-1.356 0.721-1.92 1.2-1.8 1.528-3.376 3.589-5.521 5.04-1.587-0.11-3.497 1.62-4.56 0.48-0.151-1.046 2.627-1.294 3.84-1.92 0.915-0.473 1.547-1.195 2.399-1.92 3.748-3.187 7.532-6.768 11.04-10.56 2.038-2.202 3.89-3.726 5.761-6 1.304-1.584 2.485-3.715 3.84-5.52 0.015-1.604 1.051-3.016 0.96-4.56-0.073-1.232-0.917-2.357-1.68-3.84-0.65-1.262-1.154-2.716-1.681-3.6-1.281-2.155-4.075-4.775-6.96-6.72-1.379-0.93-3.08-1.547-4.56-2.4-1.581-0.911-2.69-2.326-3.84-2.88-2.713-1.308-6.222-1.097-8.16-2.64-0.127-0.193-0.251-0.39-0.24-0.72 0.194-0.045 0.239-0.241 0.479-0.24 3.507 1.449 7.954 2.108 11.04 4.32 2.118 1.518 4.016 2.983 6.721 3.84 2.731 2.469 5.364 4.728 7.439 8.64 1.59 2.997 3.316 5.334 1.92 9.6 2.03 1.969 2.53 5.271 3.12 8.4 1.017 5.386 2.979 10.265 1.92 17.04-0.153 0.982-0.594 1.721-0.72 2.64-0.414 3.021 0.165 6.225 0.24 9.6 0.145 6.534 1.086 11.469-1.681 15.84-0.48 0.64 0.17 2.41-1.44 1.92z"></path> <path style="clip-rule:evenodd;fill-rule:evenodd" d="m65.76 104.4c1.711 0.926 1.923 2.887 2.88 4.32 1.076 1.611 2.961 2.905 4.56 4.56 1.478 1.53 2.648 3.577 4.08 4.8 1.985 1.695 4.897 2.391 6.48 4.56-3.293-0.467-4.945-2.575-7.44-3.84-3.344-4.82-9.131-8.46-10.56-14.4z"></path> <path style="clip-rule:evenodd;fill-rule:evenodd" d="m43.68 108.24c0.039-0.281 0.438-0.203 0.72-0.24 2.344 2.021 5.573 3.121 8.64 4.32 3.124 1.222 5.717 2.96 8.16 4.8 0.789 1.524 3.212 2.448 2.88 4.32-1.234-0.046-1.374-1.187-1.68-2.16-0.472-0.558-1.113-0.72-1.68-1.2-1.637-1.386-3.6-2.936-6-4.08-2.58-1.23-5.177-2.131-7.2-3.12-1.753-0.86-2.739-1.16-3.84-2.64z"></path> <path style="clip-rule:evenodd;fill-rule:evenodd" d="m122.16 109.68c-0.846 1.657-2.323 1.459-3.601 2.4-3.502 2.58-4.886 7.315-7.92 11.04-1.232 1.514-3.093 3.286-4.8 4.8-2.075 1.84-4.187 4.274-6.96 4.08 0.032-1.328 1.668-1.052 2.4-1.68 2.06-1.379 3.395-3.484 5.76-4.56 3.351-3.122 5.365-7.672 8.399-11.52 1.46-1.85 3.37-4.45 6.72-4.56z"></path> <path style="clip-rule:evenodd;fill-rule:evenodd" d="m61.92 124.56h0.72c0.441 3.239 2.795 4.565 4.32 6.72 0.988 0.371 1.839 0.88 2.4 1.68 1.133-0.095 2.1 0.901 3.12 1.44 0.877 0.463 2.819 0.513 2.16 1.92-1.478-0.368-2.888-1.23-4.32-1.92-3.919-1.89-7.779-4.36-8.4-9.84z"></path> <path style="clip-rule:evenodd;fill-rule:evenodd" d="m67.92 139.68c0.911-0.997 1.951-0.326 3.12-0.72 2.091-0.706 3.705-2.748 5.52-3.12 1.881-0.385 3.883 0.165 5.76 0 2.984-0.261 5.828-1.107 8.881-0.96 6.506 0.313 12.915 2.285 19.68 1.92 1.214 1.01 3.5 3.02 2.16 5.04-1.015-0.905-1.821-2.019-2.4-3.36-4.238 0.077-8.981-1.68-13.439-1.92-2.005-0.108-4.761 0.172-6.721-0.72-2.212 0.498-4.152 0.764-6.239 0.96-2.672 0.252-5.434-0.479-7.92 0.48-0.863 0.333-1.381 0.976-2.16 1.44-1.795 1.068-3.843 1.738-5.52 2.64 0.039 0.279-0.053 0.427-0.24 0.48-0.644 1.044 0.14 3.366-0.24 4.08-2.172-0.847-0.841-4.126-1.68-6.48-0.172-0.481-1.305-1.413-1.44-1.92-0.253-0.948-2.158-2.692-2.4-3.6-0.374-1.4-2.224-3.333-3.36-4.32-1.207-1.049-2.323-2.122-3.6-3.36-0.233-0.007-0.186-0.294-0.24-0.48 0.213-0.186 0.542-0.258 0.96-0.24 0.327 1.033 2.034 0.686 1.92 2.16 4.38 2.82 7.001 7.4 9.599 12z"></path> <path style="clip-rule:evenodd;fill-rule:evenodd" d="m65.521 146.16c0.295 0.104 0.493 0.307 0.48 0.72-0.52 2.816-0.83 9.263-0.72 13.44 0.042 1.601 0.268 3.336 0.48 4.56 0.221 1.27 1.289 2.188 0.48 3.12-2.368-2.505-1.744-6.827-1.68-11.76 0.052-4.11-0.707-7.8 0.96-10.08z"></path> <path style="clip-rule:evenodd;fill-rule:evenodd" d="m137.28 161.52h0.72c-0.831 6.266 0.797 12.767 0 18-0.528 3.467-1.002 4.687-2.641 6.96-0.561 0.778-1.116 2.391-2.399 2.16-0.037-2.438 2.015-2.841 2.88-4.56 1.151-2.287 1.468-5.724 1.44-8.4-0.027-2.629-1.07-5.267-0.961-7.92 0.09-2.07 0.5-4.49 0.96-6.24z"></path> <path style="clip-rule:evenodd;fill-rule:evenodd" d="m100.08 168.24c-6.264-1.893-13.31 0.784-19.2-0.72 1.1-1.217 4.134-0.413 6.72-0.72 1.674-0.199 4.471-0.317 6-0.72 2.119 0.91 5.579-0.31 6.48 2.16z"></path> <path style="clip-rule:evenodd;fill-rule:evenodd" d="m106.56 169.44c-1.28 0.336-2.458-1.221-3.12 0-0.443-0.525-1.706-1.481-1.199-2.16 1.54-0.3 4.23 0.22 4.32 2.16z"></path> <path style="clip-rule:evenodd;fill-rule:evenodd" d="m130.8 171.6c0.431-0.031 0.506 0.293 0.96 0.24 0.817 3.441 0.314 9.284-5.04 8.64-0.138-0.502-0.595-0.685-0.479-1.44 4.85 0.01 4.09-4.04 4.56-7.44z"></path> <path style="clip-rule:evenodd;fill-rule:evenodd" d="m42.24 180.96h0.72c1.018 5.425 2.502 11.501 1.92 18-0.213 2.379-1.016 4.81-1.2 7.2-0.271 3.514 0.02 7.197 0 10.8-0.02 3.777 0.163 7.585 0 11.28-0.074 1.69-0.65 3.371-0.72 5.04-0.197 4.692 0.511 9.321-0.24 13.68-0.181 1.05-0.736 2.033-0.96 3.12-0.195 0.948-0.394 2.206-0.48 3.12-0.409 4.316-0.697 8.72-0.96 12.96-0.078 1.253 0.171 2.626 0 3.84-0.317 2.247-1.746 4.377-2.16 6.72-0.446 2.526-0.247 5.273-0.24 7.92 0.02 7.778-2.515 15.558-2.4 22.561-0.864 0.898-1.038 2.502-1.68 4.08-0.417 1.025-1.677 2.595-1.44 3.6 0.35 1.479 4.746 2.132 6 2.88 1.308 0.78 2.378 2.167 3.6 3.12 2.95 2.301 5.674 3.299 10.56 4.561 2.44 0.63 5.362 1.367 7.2 1.439 1.951 0.076 3.946-0.537 6-0.72 4.207-0.375 8.482-0.175 11.76 0.479 2.345-0.827 4.864-0.106 7.44-0.239 3.222-0.167 6.409-1.155 9.6-1.681 3.515-0.578 7.058-0.432 10.561-0.72 5.824-0.479 11.131-0.807 17.04-0.24 3.065 0.294 6.868 2.187 10.8 0.721 0.943-0.305 0.714 0.565 0.72 1.199 1.635-0.053 1.551-1.675 3.12-1.199 0.412-1.895 1.575-3.334 1.68-5.28 0.038-0.708-0.313-1.411-0.239-2.16 0.102-1.033 0.77-2.105 0.96-3.12 0.613-3.287 0.47-6.544 0.72-10.08 0.547-7.742 1.339-15.725-0.48-23.76 0.437-4.297 0.494-11.205-0.479-15.84-0.366-1.742-1.224-3.566-1.44-5.521-0.423-3.818-0.33-7.584-1.439-10.319-0.024-0.061 0.006-0.175 0-0.24-0.258-2.898 0.333-5.857 0-8.64-0.109-0.913-0.661-1.755-0.721-2.641-0.118-1.765 0.946-2.715-0.239-4.32 0.473-5.68 1.768-10.934 2.16-16.319 0.209-2.874-0.75-5.461-1.2-8.16-0.175-1.046-0.221-2.106-0.48-3.12-0.222-0.868-0.82-1.755-0.96-2.64-0.15-0.951 0.125-2.093 0-3.12-0.18-1.486-1.553-3.056-0.479-4.32 1.922-0.053 1.323 2.294 1.439 3.12 0.404 2.856 0.825 4.716 1.44 7.44 0.251 1.112 0.747 2.242 0.96 3.359 0.116 0.614-0.086 1.266 0 1.92 0.164 1.244 0.896 2.551 0.96 4.32 0.244 6.739-3.093 14.795-2.4 21.84 0.126 1.28 0.814 2.596 0.96 3.84 0.302 2.584-0.197 5.205 0 7.681 0.157 1.976 0.945 3.806 1.2 5.76 0.356 2.731 0.356 4.897 0.96 7.439 0.629 2.65 1.278 5.201 1.44 8.881 0.085 1.942-0.034 4.011 0 6 0.03 1.833-0.213 3.777 0 5.52 0.104 0.86 0.612 1.741 0.72 2.64 0.187 1.567-0.098 3.16 0 4.801 0.07 1.183 0.443 2.439 0.479 3.6 0.073 2.277-0.054 4.86-0.96 6.96 0.569 2.288 0.087 5.812-0.239 9.12-0.315 3.192-0.684 6.549-1.681 8.88 0.716 2.575-0.538 4.558-1.68 6-0.809 0.79 0.893 1.526 0 2.4-1.663 1.229-4.116 1.768-6.24 1.68-2.56-0.105-4.468-1.984-7.68-2.4-0.449-0.058-0.943 0.343-1.44 0.24-0.429-0.089-0.618-0.455-0.96-0.479-2.516-0.186-4.518 0.951-6.479-0.721-1.357 0.64-2.851 0.102-4.32 0.24-0.629 0.06-1.261 0.44-1.92 0.48-2.563 0.152-5.11 0.012-7.92 0.239-3.685 0.299-7.416 0.652-11.04 1.2-1.947 0.295-3.659 1.388-6 0.96-0.31-0.057-0.685-0.479-0.72-0.479-0.983-0.039-2.873 0.812-4.32 0.72-3.102-1.231-5.893-0.694-8.64-0.48-1.336 0.104-2.873-0.06-4.32 0-1.628 0.068-3.199 0.714-4.8 0.721-1.131 0.005-2.831-0.539-4.32-0.721-2.604-0.316-4.913-1.084-7.68-1.92-2.987-0.901-4.973-1.746-7.2-3.359-1.605-1.163-2.851-3.178-4.8-4.08-1.862-0.862-4.42-0.655-5.52-2.641-0.437-2.722 1.987-4.916 2.64-7.68 0.51-2.16 0.588-4.824 0.96-7.2 0.464-2.965 1.124-5.981 0.72-8.16 1.172-5.535-0.269-11.291 1.2-16.8 0.516-1.933 1.679-3.485 1.92-5.52 0.514-4.336 0.311-9.008 0.72-12.96 0.128-1.235 0.124-2.383 0.24-3.601 0.253-2.65 0.66-5.437 1.68-7.92-0.261-5.576 0.716-12.578 0.96-19.2 0.024-0.651 0.272-1.499 0.24-2.159-0.03-0.609-0.48-1.076-0.48-1.681 0-1.189 0.228-2.421 0.24-3.6 0.014-1.331 0.015-2.558 0-3.84-0.061-5.374-0.08-8.976 0.72-13.44 0.429-2.392 0.834-4.686 0.72-7.2-0.032-0.713-0.441-1.443-0.48-2.159-0.035-0.642 0.287-1.251 0.24-1.921-0.205-2.921-1.053-5.977-1.44-8.879v-0.72z"></path> <path style="clip-rule:evenodd;fill-rule:evenodd" d="m39.6 187.2c0.279-0.039 0.427 0.053 0.48 0.24-1.862 2.938-4.481 5.119-5.521 8.88-2.293 2.667-3.829 6.091-4.8 10.08-0.771-0.211-0.498 0.622-0.96 0.72-0.412 1.748-0.189 4.131-1.92 4.56-0.863-1.382 1.494-3.791 1.44-6.239 0.563-0.077 0.537-0.743 0.96-0.96 0.215-2.745 1.851-4.069 2.4-6.48 2.844-3.4 4.261-8.22 7.921-10.8z"></path> <path style="clip-rule:evenodd;fill-rule:evenodd" d="m135.84 188.4c-0.479 3.442-1.918 5.921-3.84 7.92-0.352 1.931-1.769 3.494-3.12 4.8-0.609 0.589-1.195 1.961-2.16 1.2-0.115-1.476 1.068-1.652 1.92-2.16 2.069-4.011 4.909-7.251 6.48-11.76h0.72z"></path> <path style="clip-rule:evenodd;fill-rule:evenodd" d="m40.32 216c0.233 0.007 0.186 0.294 0.24 0.48-0.197 2.718-2.449 4.04-3.84 6.239-0.966 1.529-1.868 3.314-2.64 5.04-0.812 1.813-1.013 3.959-1.92 5.761-0.913 1.812-2.609 3.176-3.36 5.039-0.349 0.867-0.185 2.011-0.48 2.881-0.431 1.271-1.46 2.343-1.92 3.6-0.972 2.658-2.091 6.864-2.4 8.88-0.234 1.528-1.033 2.05-1.44 3.36-0.506 1.627-0.208 3.384-0.479 5.04-0.424 2.579-1.649 5.103-2.16 7.68-0.283 1.428-0.223 3.027-0.48 4.56-0.466 2.775-0.964 5.645-1.44 8.641-0.187 1.175-0.082 2.415-0.24 3.6-0.303 2.275-0.977 5.002-1.2 7.92-0.21 2.761-0.08 5.578-0.24 8.4-0.432 7.623-0.099 15.249 0 23.04-1.781-0.284-1.099-3.111-1.2-5.04-0.266-5.082-0.83-11.182-0.24-16.8 0.373-3.552 0.479-9.602 0.96-12.96 0.44-3.082 0.961-6.714 1.44-10.32 0.31-2.331 0.966-4.702 1.2-6.96 0.103-0.991-0.131-1.946 0-2.88 0.303-2.158 1.122-4.569 1.68-6.96 0.548-2.349 0.63-4.987 1.2-7.2 0.599-2.325 1.784-5.086 2.64-7.44 0.159-0.438 0.04-1.023 0.24-1.439 0.162-0.338 0.594-0.349 0.72-0.72 0.344-1.019 0.375-1.91 0.72-2.881 0.303-0.852 0.789-1.451 1.2-2.399 0.797-1.839 0.885-3.776 1.68-5.28 0.983-1.857 2.511-3.511 3.36-5.52 0.532-1.26 0.544-2.644 1.2-3.84 0.42-0.767 1.095-1.938 1.68-3.12 1.397-2.825 3.636-5.108 5.04-7.92 0.059-0.26 0.476-0.16 0.479-0.48z"></path> <path style="clip-rule:evenodd;fill-rule:evenodd" d="m141.6 231.36c0.312 0.434-0.215 1.212 0.24 1.92 1.478 1.99 2.714 4.225 3.36 6.96 0.267 1.128 0.184 2.231 0.479 3.359 1.007 3.844 2.82 7.653 3.12 11.761 1.074 1.438 0.879 3.673 1.2 6 0.275 1.993 1.207 4.029 1.439 6.239 0.22 2.081 0.607 4.546-0.72 5.521-1.247-1.742-0.146-5.093-1.2-7.2-0.39-0.78-0.131-0.423-0.239-1.92-0.105-1.438-0.339-2.776-0.48-3.84-0.01-0.077-0.479-0.693-0.48-0.72-0.1-2.25-1.344-5.674-1.92-8.4-0.544-2.575-1.675-6.624-2.399-9.84-0.501-2.225-1.104-4.019-2.16-5.76-0.745-1.229-1.25-2.207-1.92-3.601 0.106-0.214 0.211-0.429 0.479-0.479 0.46-0.45 0.43 0.14 1.2 0z"></path> <path style="clip-rule:evenodd;fill-rule:evenodd" d="m20.64 281.76c0.193 0.127 0.39 0.251 0.72 0.24 0.072 0.633-0.333 0.788-0.96 0.72-0.101-0.5 0.165-0.64 0.24-0.96z"></path> <path style="clip-rule:evenodd;fill-rule:evenodd" d="m40.32 347.04h0.72c-0.051 2.901 0.348 6.648 1.68 8.88 4.455-0.886 12.135-1.576 15.84 0.72 2.145-1.295 1.686-5.194 3.84-6.479 0.307 2.376-1.758 4.271-2.16 6.72-0.245 1.045 0.497 1.104 0.72 1.68-1.182 2.283 0.88 4.426 0.72 6.48-1.594-0.898-2.099-2.688-1.92-4.56-0.576-1.024-1.389-1.812-1.92-2.881-4.378-2.178-10.35-0.876-15.84-0.479-1.152-2.62-2.537-6.25-1.68-10.08z"></path> <path style="clip-rule:evenodd;fill-rule:evenodd" d="m93.121 347.28c0.006-0.233 0.293-0.187 0.479-0.24 2.384 2.119 5.905 4.305 5.28 8.64 1.68 1.601 3.063 3.497 5.52 4.32 0.245 1.035 1.047 1.514 1.681 2.16 1.764-0.476 3.907-0.573 6.239-0.48 1.705 1.976 4.535 2.825 4.08 6.96-0.401 0.424-0.804-0.213-1.68 0 0.96-1.75-1.082-4.243-2.16-4.319 0.678-1.079-0.523-1.069-0.72-1.92-2.3 1.404-5.764 0.438-7.68 1.92-0.065-0.495-1.063-0.058-0.96-0.721-0.407-1.127 1.127-0.312 0.72-1.439-0.11-0.717-0.702-0.877-1.2-1.2-0.702-0.456-1.695-0.658-2.16-1.2-0.913-1.065-1.506-2.316-2.88-2.88-3.464 2.616-7.634 4.525-9.36 8.88-0.778-0.139-1.116 0.164-1.68 0.24 0.348-0.907-0.659-0.461-0.479-1.2 3.574-3.466 6.445-7.634 12-9.12-0.453-4.03-3.413-5.55-5.04-8.4z"></path> <path style="clip-rule:evenodd;fill-rule:evenodd" d="m41.041 356.64c-0.182 1.419-0.628 2.572-1.68 3.12-0.129 1.871-1.348 2.652-2.64 3.36-0.032-2.373 2.728-3.977 3.36-6.48h0.96z"></path> <path style="clip-rule:evenodd;fill-rule:evenodd" d="m75.36 357.6c2.158 0.488 3.83 2.663 6 3.841 0.602 3.158 2.809 4.711 4.08 7.199 2.322 0.489 3.077 1.073 5.521 1.44-0.094-1.667-3.029-0.49-3.36-1.92 1.959-1.135 4.556 0.968 6.72 1.2 0.214-0.106 0.43-0.211 0.48-0.48 6.45 2.575 13.878 1.439 19.92 1.92 0.64 1.96-2.453 1.94-3.12 3.36-1.039 0.08-2.514-0.274-2.88 0.479-1.843-0.877-5.165-0.274-6.96-1.199-2.494 0.78-5.629-0.895-7.2-1.92 1.734-0.334 4.486 0.708 6 0.72-0.477-0.875-1.858-0.949-2.88-1.2-1.39-0.342-2.522-0.639-4.32-0.72-0.82-0.14-1.117-0.803-2.159-0.721-0.064 1.265 1.417 0.983 2.399 1.2-0.61 2.253-2.36 0.701-3.84 0.24-1.862-0.581-4.732-0.664-6-1.92-0.553-0.548-1.228-2.578-1.92-3.36-0.493-0.557-1.218-0.474-1.44-1.2-0.954-0.073-0.083 1.678-1.44 1.2-0.07-1.522-0.042-2.312 0.24-3.6-1.083-1.157-1.898-2.582-3.84-2.88v-1.68zm30.48 14.64c0.156 0.391 1.644 0.902 2.4 0.96 0.993 0.075 2.36 0.191 2.64-0.72-1.84-0.11-3.69-0.2-5.04-0.24z"></path> <path style="clip-rule:evenodd;fill-rule:evenodd" d="m36.24 364.56c0.874 0.167 0.501 1.58 1.68 1.44 0.819 1.591 1.999 3.653 2.64 4.8 0.186 0.332 0.433 1.013 1.2 0.96 0.036 0.32-0.976 0.725-0.24 0.96-1.984 0.78-1.458-3.019-3.12-3.359-0.372-1.868-1.995-2.485-2.64-4.08-0.132-0.53 0.459-0.34 0.48-0.72z"></path> <path style="clip-rule:evenodd;fill-rule:evenodd" d="m72.48 366c0.204-0.044 0.226 0.094 0.24 0.24 0.827-0.413 1.812 0.168 2.88 0.24 1.852 0.124 4.956-0.435 5.04 1.68-2.777-0.59-5.176-0.214-7.92-0.96 0.098-0.58-0.438-0.52-0.24-1.2z"></path> <path style="clip-rule:evenodd;fill-rule:evenodd" d="m60.96 367.92c0.417 1.325-1.373 1.901-2.16 2.88-0.769 0.955-1.046 2.647-2.4 2.88-1.103-2.433 3.106-4.037 4.08-6 0.279-0.04 0.427 0.05 0.48 0.24z"></path> <path style="clip-rule:evenodd;fill-rule:evenodd" d="m55.44 370.8c-0.472 0.273-1.024-0.027-1.2 0.96-0.808 0.152-2.229-0.309-2.64 0.24 0.192 1.169 2.77-0.05 3.36 0.72-0.021 0.341-0.04 0.68 0.24 0.721-0.967 1.635-2.885 0.357-4.32 0.239-2.682-0.221-5.399 0.532-7.68 0.24 0.733-1.348 2.852-1.309 4.32-1.92-1.542-0.538-4.292 0.132-5.04-1.2-0.011-0.41 0.178-0.621 0.48-0.72 2.293 0.467 6-0.626 9.84-0.24 0.979 0.1 2.323-0.2 2.64 0.96z"></path> <path style="clip-rule:evenodd;fill-rule:evenodd" d="m58.32 69.6c-0.502 1.498-1.46 2.54-2.4 3.6-0.548 2.555-1.388 3.274-1.68 5.28 1.483-0.597 2.347-1.813 3.36-2.88 1.409 0.315 2.03-1.248 3.12-1.92 0.661-0.408 1.657-0.508 2.64-0.96 4.103-1.888 6.518-4.079 11.04-1.68-1.074 0.708 1.644 2.82 0 3.6-0.643 0.161-0.694-1.313-0.72-3.12-6.178-1.711-10.71 3.632-15.6 5.52-0.761 0.839-1.832 1.369-2.4 2.4-1.337-0.238-2.291 0.587-2.88-0.24 0.196-2.012 0.782-2.155 0.72-4.32 2.361-2.766 3.471-6.057 6.48-8.16 0.628-0.44 1.498-0.55 2.16-0.96 1.47-0.912 2.622-2.181 3.84-3.36 0.741-0.059 1.356-0.243 1.92-0.48 2.875-3.144 5.931-7.09 7.92-11.52 0.284-0.632 0.193-1.443 0.48-2.16 0.517-1.291 1.598-2.501 1.92-3.6 0.406-1.386 0.435-2.795 0.96-4.08 0.59-1.444 0.841-4.202 1.44-6.24 0.336-1.142 1.261-2.199 1.44-3.36 0.058-0.376-0.306-0.442-0.24-0.72 0.039-0.167 0.434-0.185 0.479-0.48 0.324-2.077 0.295-4.355 0.961-6.72 0.072-0.258 0.501-0.185 0.479-0.72-0.011-0.268-0.195-1.37 0.96-1.44 1.281 1.452 0.848 3.333 1.2 5.04 0.537 2.601 1.66 5.738 2.88 8.4 0.873 1.906 2.169 3.435 2.88 5.28 0.172 0.445 0.067 0.994 0.24 1.44 1.891 4.876 4.172 8.312 8.88 10.56 0.628 0.299 1.21 0.788 1.68 0.96 0.952 0.348 1.963 0.173 2.88 0.48 4.729 1.582 6.475 5.45 9.12 9.6 2.176 3.412 4.688 7.056 9.12 7.92 2.421 1.898 4.88-0.776 6-2.4-0.548-1.019-0.202-1.516-0.24-3.12-1.394-3.322-2.7-6.442-4.8-9.12-1.19-1.518-1.974-2.736-3.359-4.08-1.604-1.555-3.892-3.117-5.761-4.8-1.863-1.679-3.411-2.719-4.8-4.8-0.85-1.273-1.852-2.478-2.88-3.6-1.755-1.917-3.513-3.313-5.04-5.76-2.945-4.717-6.436-9.12-10.8-12.72-0.522-0.431-1.897-0.746-1.68-1.92 5.151 1.968 7.525 6.714 11.279 10.08 0.533 1.041 1.065 2.202 1.681 3.12 0.646 0.965 1.424 1.834 2.159 2.64 1.002-0.775 0.147-3.324 0-4.32-0.181-1.224 0.089-2.433-0.239-3.6-0.163-0.58-0.707-1.07-0.96-1.68-0.892-2.146-1.668-4.67-3.12-6.24-0.771-0.833-2.723-1.199-3.36-2.64-1.04-0.091-1.723-0.93-2.64-1.44-0.871-0.485-1.996-0.593-2.641-1.2-0.484-0.456-0.611-1.405-0.96-1.92-1.437-2.125-3.639-3.856-4.8-6 2.318 0.266 3.646 1.377 5.04 2.88 0.728 0.784 0.679 0.82 1.2 1.92 0.025 0.053 0.477 0.219 0.479 0.24 0.065 0.421-0.461 0.734-0.239 1.2 0.768 1.617 3.214 2.202 5.04 3.36 3.354 2.126 4.919 3.537 6.72 7.2 1.645 3.346 3.459 9.282 1.92 13.92 0.329 0.871 1.216 1.185 1.92 1.68 0.74 1.082 1.403 2.107 2.16 3.12 0.735 0.984 1.333 2.198 2.16 3.12 0.799 0.89 2.003 1.211 2.88 1.92 1.067 0.862 2.029 2.163 3.12 3.12 1.177 1.032 2.661 1.701 3.6 2.64 1.522 1.522 2.199 3.876 4.32 4.8 0.278 1.295 0.961 2.188 1.439 3.84 0.501 1.727 1.578 2.219 2.16 4.32 0.913 3.297-0.739 5.021-2.64 7.68-4.397 2.015-8.613-0.503-11.76-1.92-5.383 1.292-11.829-0.049-13.681-3.84 1.032-0.63 0.806 0.787 2.16 0.48-0.32 0.987 2.234 1.802 2.641 1.92 2.574 0.748 6.773 0.778 9.84 0.48-0.673-2.449-3.433-3.814-3.84-5.76-0.334-0.728-1.132-1.1-1.681-1.92-0.401-0.6-0.571-1.625-0.96-2.16-0.374-0.515-1.602-0.76-1.2-1.68-0.665-0.225-1.254-1.771-1.92-1.2-0.581-2.257-3.887-2.067-6.239-3.12-1.482-0.664-2.103-1.896-3.36-2.4-0.56 0.218-0.461 0.762-0.72 1.2-0.266 0.447-0.739 0.76-0.96 1.44-1.373-1.317-3.704 1.829-5.04-0.48-0.126-1.359 1.298 0.075 1.92-0.72 0.149-1.27-1.597-0.643-1.681-1.68 1.084-0.437 1.829-1.211 3.36-1.2-0.009-1.351-1.331-1.388-1.44-2.64-1.301 0.219-2.635 0.405-3.84 0.72-0.296-1.259 1.785-1.857 3.36-1.44-0.18-0.78-0.435-1.485-0.72-2.16-5.028 0.068-6.331-3.589-7.681-7.2-1.418 0.85-0.799 2.917-1.199 4.32-0.438 1.528-1.621 2.678-1.681 4.08-0.569 0.391-1.388 0.532-2.16 0.72 0.164 0.956 1.556 0.684 2.16 1.2-0.8 1.495-2.428 0.199-3.12-0.48-0.664 0.936-1.121 2.079-1.44 3.36 0.807 0.787 2.467-0.601 3.36 0.24-0.106 1.174-0.643 1.917-1.2 2.64-0.036 0.756 1.339 0.102 0.96 1.2-2.047 1.008-2.902-1.139-4.56-0.72-1.75 0.442-1.733 3.343-2.88 5.04-1.478 1.082-2.468 2.652-3.6 4.08 0.538 1.82 2.314 2.894 3.36 4.32 0.349 0.476 0.325 0.998 0.72 1.44 0.947 1.061 2.319 2.21 3.84 2.64 0.948 2.412 3.848 2.872 5.76 4.32 4.002 0.295 7.294-0.783 10.08-2.64 0.387-0.258 0.868-0.265 1.2-0.48 4.754-3.087 8.939-8.366 10.08-13.44 0.263-1.169-0.438-2.538 0.96-3.36 1.404 0.418-0.084 2.009 0 2.4 0.019 0.986 0.256 1.021 0.479 2.16-0.388 0.068-0.413-0.227-0.72-0.24 0.204 1.298-0.474 1.632-0.96 2.88-0.043 0.111 0.073 0.828 0 0.96-0.247 0.444-1.782 1.268-0.72 1.68-1.068 0.222-2.857 3.084-4.08 4.32-2.645 2.672-6.975 5.115-11.04 6.72-4.183 1.651-9.075-1.338-11.28-3.12-0.933-0.754-1.478-1.361-2.4-2.16-0.989-0.856-1.253-1.316-2.4-2.64-0.912-1.052-1.693-1.469-2.4-2.64-0.313-0.52-0.899-1.967-1.68-2.16-1.501-0.37-2.686 0.971-3.84 1.92-2.044 1.681-3.788 2.884-5.76 4.32zm24-35.52c-0.605 2.555-1.568 5.956-2.64 8.16 2.706-1.294 2.655-5.345 4.561-7.44 0.023-0.744-0.294-1.146-0.48-1.68 0.458-0.103 0.435-0.686 1.2-0.48-0.03 0.99 0.417 1.503 0.24 2.64 1.853 2.532 1.643 5.989 5.52 6.72 0.05-3.921-2.665-5.584-3.84-8.16-0.082-0.179 0.15-0.721 0-1.2-0.325-1.036-0.587-1.384-0.96-1.92-0.962-1.38-0.561-2.822-1.44-4.8 0.327-0.306 0.371-1.176-0.239-1.2 0.303 0.764-0.508 1.363-0.721 2.4-0.136 0.663 0.138 1.442 0 2.16-0.232 1.222-1.302 2.907-0.239 2.4-0.657 0.805-0.741 1.473-0.962 2.4z"></path> <path style="clip-rule:evenodd;fill-rule:evenodd" d="m79.2 65.04c0.573-0.423 1.82 0.347 2.64-0.24-0.328 0.307-0.328 1.133 0 1.44 0.034-0.218-2.86 0.507-2.64-1.2z"></path> <path style="clip-rule:evenodd;fill-rule:evenodd" d="m82.081 16.32c-0.69 0.783-1.664 0.993-2.4 1.68-2.699 2.518-3.792 8.202-5.28 11.76-0.709 1.697-1.792 3.691-3.12 5.521-0.897 1.234-2.565 3.456-4.08 4.32-1.647 0.94-3.983 0.808-5.52 1.92-1.634 1.182-2.309 3.392-3.36 5.28-1.084 1.947-2.403 3.643-2.88 5.52-1.618 1.414-2.996 3.251-4.08 5.28-1.055 1.975-1.771 4.246-3.36 5.76-1.245 4.955-4.188 9.754-2.16 15.36 1.515 1.398 4.06 1.671 5.76 1.68-1.922 1.653-5.086 0.104-6.48-0.96-0.856-1.887-1.542-3.837-1.2-6.96 0.213-1.939 1.086-3.382 1.68-5.04 1.039-2.899 1.841-5.044 3.36-7.44 2.091-3.297 3.555-6.768 5.76-8.64 1.06-2.94 3.158-4.842 3.84-8.16 1.249-1.072 2.327-2.313 3.6-3.36 3.073-0.167 5.092-1.271 6.72-3.12 3.046-3.459 4.82-8.421 6.72-13.2 0.65-1.636 1.21-3.503 1.92-4.56 1.007-1.5 2.637-2.837 4.56-2.641z"></path> <path style="clip-rule:evenodd;fill-rule:evenodd" d="m73.92 75.36c0.213 0.187 0.542 0.258 0.96 0.24-0.119 2.164-1.278 3.272-2.4 4.8-0.81 1.103-0.997 2.052-2.16 2.64-2.494 1.261-5.652 1.161-8.4 2.16-2.674 0.973-5.905 3.487-8.4 5.28-2.333 1.677-4.148 2.373-5.52 5.28-2.053 1.467-5.158 3.201-5.76 6-0.107 0.498 0.219 1.057 0.24 1.92 0.012 0.482-0.298 0.965-0.24 1.2 0.253 1.019 1.501 1.651 1.2 2.88-0.873-0.407-0.705-1.854-1.68-2.16-1.351 1.598-1.823 4.514-0.48 6.48-1.25 2.9-1.945 6.331-2.16 11.52-0.099 2.382 0.234 4.843 0.24 7.44 0.009 3.677-0.384 7.685-0.48 11.52-0.097 3.895 0.542 7.562-0.48 10.8 0.916 6.521-0.581 11.338 0 18.96 2.838 3.242 6.455 5.705 8.88 9.36 1.83 0.09 4.1-1.726 5.04 0.24-0.18 1.02-1.767 0.633-2.88 0.72 0.935 5.129 3.853 9.534 6 14.16 5.091-2.029 8.447-5.792 11.04-10.32-0.056-2.234 0.52-3.169 0.72-5.52 1.058-1.662 3.501-1.939 4.8-3.36 0.315-1.516-1.159-1.242-1.44-2.16-0.496-4.274-3.709-9.045-4.08-13.44 1.313 0.819 0.826 2.482 2.16 2.88 0.065 0.995-0.315 0.936 0 1.68 1.414 2.221 1.466 4.318 2.64 6.72 2.022-0.91 1.972-4.446 5.04-3.6-1.403 1.796-3.164 3.236-4.08 5.52 0.782 2.261 2.957 3.86 3.84 6.24 0.261 0.704 0.185 1.613 0.479 2.4 1.448 3.868 4.011 7.508 6.24 10.8 0.88 1.3 2.121 2.422 2.64 3.601 0.27 0.611-0.586 1.263 0.48 1.2-5.448 2.792-9.529 6.95-11.76 12.96 1.448 0.247 1.822-0.579 2.16-1.44 2 1.841 3.107 4.573 5.76 5.76 0.545 1.455 1.492 2.508 2.64 3.36 4.493 0.652 5.631-2.049 6.72-4.8-0.822-0.285-3.297 0.886-4.319-0.24 1.075-2.854 3.022-6.083 2.399-9.84-1.393-0.174-2.812-0.171-3.6-1.44 0.495-0.827 2.314-0.284 2.88 0.24 1.823-0.285 3.391-0.682 5.04-1.44 1.898-0.873 3.657-1.257 3.84-3.84-1.403-0.832-2.397 0.576-3.12 1.2-2.612 0.68-5.356-0.518-7.68-0.24 1.643-1.098 3.825-0.228 5.76-0.479 1.789-0.233 3.094-1.611 4.8-1.44 1.202-0.242 0.845 1.075 1.681 1.2 0.926-0.034 1.108-0.811 2.16-0.72 0.333-0.707 0.565-1.515 0.72-2.4 1.971-2.703 4.562-7.48 5.52-11.52 0.063-0.268-0.368-1.336 0.48-1.2 1.042 0.812 0.328 2.818 0 3.84-1.014 3.157-3.419 6.491-4.8 9.6 2.514 2.537 5.618 4.383 8.159 7.2 0.408 0.452 0.487 1.144 0.96 1.681 0.374 0.425 1.159 0.551 1.44 0.96 0.827 1.201 0.638 2.843 1.92 3.84 1.995-0.694 3.138-2.52 4.561-3.84 1.455-1.353 2.85-2.744 4.319-4.08-0.346-4.774-2.391-7.849-4.08-11.28-1.748-1.445-2.696-3.737-4.319-5.28-0.455-0.432-1.186-0.479-1.681-0.96-0.884-0.858-1.708-2.501-3.6-2.64 0.135 1.467 1.325 2.446 2.16 3.6 2.197 3.037 4.502 6.74 5.279 10.8-2.021 0.512-1.71-2.513-2.159-3.6-0.586-1.414-1.921-3.501-3.12-5.28-1.154-1.712-2.253-3.883-3.36-5.04-0.937-0.979-2.462-1.344-3.12-2.4-0.107-2.825 0.34-5.339 0.721-7.68 0.106-0.661-0.095-1.391 0-1.92 0.141-0.794 0.633-1.239 0.72-1.92 0.24-1.885-0.37-3.963 0.96-5.28-0.128-2.233 0.001-4.398 0.479-6.96 0.262-1.398 1.106-2.608 1.681-4.32 0.215-0.642 0.232-1.399 0.479-2.16 0.726-2.228 1.503-4.658 2.4-6.96 0.565-1.452 1.558-2.721 2.16-4.08 0.628-1.419 0.309-3.59 2.64-3.6-1.437 4.164-4.111 7.088-4.56 12.24-0.885 0.738-2.4 3.059-1.44 4.08-1.073 0.965-1.354 2.702-1.92 4.8-0.563 2.093-0.298 3.342-0.48 5.28-0.099 1.051-0.811 2.044-0.96 3.12-0.122 0.884 0.115 1.875 0 2.88-0.194 1.713-1.013 3.407-1.199 5.04-0.068 0.596 0.305 1.136 0.239 1.68-0.032 0.274-0.625 0.588-0.72 0.96 0.046-0.181-0.338 3.174-0.24 3.6 0.188 0.817 0.834 1.487 1.681 1.92 3.105-1.724 5.477 1.767 7.439 3.84 1.629 1.721 3.293 3.366 4.561 4.56 0.392 1.175 0.805 2.18 1.92 3.121 0.098 1.061 0.575 2.028 0.96 2.88 0.376 0.833 0.805 1.766 1.439 2.399-0.266 1.688 0.706 3.23-0.239 5.04-0.312 0.598-1.348 1.328-2.16 2.16-1.301 1.333-2.633 2.633-4.08 4.08-1.358 1.358-2.35 3.061-4.561 3.36 0.233-1.228-0.554-2.56-1.199-3.601-0.923 0.357-0.849 1.712-0.961 2.88-1.699 1.181-1.898 3.861-4.079 4.561 0.034 1.203-1.009 1.862-1.681 2.88-0.577 0.874-0.928 2.156-1.68 2.88-1.016 0.977-3.833 2.168-5.76 2.4-0.748 0.09-1.459-0.136-2.16 0-1.059 0.204-2.043 0.97-2.88 0.96-0.968-0.012-1.344-0.85-2.16-0.96-0.835-0.113-2.197 0.98-3.84 0.479-0.371-0.59-0.964-0.956-1.44-1.439 0.15-0.891 0.675-1.405 0.96-2.16-1.094-0.347-2.663-0.217-3.84-0.48-2.102-3.019-4.917-5.322-7.44-7.92-0.998 0.478-1.969 0.996-3.12 0.72-0.852-0.204-1.12-1.25-1.92-2.159-0.623-0.709-1.766-1.312-2.64-2.16-0.756-0.735-1.39-1.633-2.16-2.4-2.954-2.941-5.875-4.93-7.92-8.64 1-0.356 1.745 1.395 2.88 1.68 0.58 2.005 2.158 2.71 3.84 4.08 2.511 2.045 4.789 4.866 7.44 6.96 1.743-1.617 2.761-3.959 4.08-6 1.519-1.645 3.242-2.965 5.52-4.56 0.474-0.331 1.903-1.335 1.921-1.44 0.046-0.284-2.012-3.017-2.4-3.6-0.905-1.357-1.959-2.271-2.64-3.36-1.372-2.197-1.533-4.366-3.12-6-0.47-3.051-1.595-5.445-2.88-7.68-1.513 1.288-3.954 1.646-5.04 3.36 0.24 3.741-1.036 6.047-3.12 8.879-1.36 1.85-3.091 3.958-4.32 5.04-0.82 0.723-3.361 2.308-4.08 2.4-0.536 0.069-1.565-0.544-2.16-0.24-2.074-4.806-4.631-9.128-6-14.64-3.124-0.076-3.316-3.084-5.52-4.08-2.527 1.298-3.967 3.806-5.52 6-1.544 2.181-3.548 4.147-4.56 6.72-4.161 2.825-3.95 8.645-7.92 11.761-0.709 3.13-2.998 4.682-3.36 8.159-1.977 1.738-3.046 5.521-4.32 8.641-0.301 0.737-1.021 1.329-1.2 1.92-0.49 1.614-0.41 3.259-1.92 4.08-0.596 1.994-1.464 3.873-2.4 6-1.528 3.475-3.341 9.664-4.08 14.399-0.41 2.627-0.405 4.976-1.2 7.44-0.583 1.809-1.369 4.046-1.92 6.24-0.201 0.8-0.248 1.629-0.479 2.399-0.825 2.738-2.78 6.548-1.92 10.08-0.284 0.676-0.548 1.372-0.96 1.92 0.733 5.125-0.782 10.203 0.48 14.88-1.056 5.967-0.211 13.253 0.24 19.2 0.179 2.354 0.536 5.323 1.92 6.72-0.065 1.147-0.748 1.602 0 2.4 4.892 1.275 9.108 3.195 10.32 8.16 0.264 1.079-0.055 2.542 0.72 3.36 0.93 0.98 3.388 1.924 5.28 2.399 2.738 0.688 5.483 0.629 8.64 0 0.891-0.178 1.692-0.758 2.64-0.96 3.571-0.761 7.188-0.681 9.36-2.64 2.997 0.156 6.283-0.29 8.88 0.239 1.099 0.225 1.821 0.954 2.88 1.2 1.771 0.412 3.704 0.246 5.28 0.721 1.631 0.49 3.102 1.597 4.8 1.92 0.66 0.125 1.492-0.079 2.16 0 0.854 0.1 1.624 0.619 2.4 0.72 1.533 0.198 3.18-0.352 4.8-0.24 1.391 0.096 2.5 0.979 4.32 0.48 4.028 3.456 10.435 2.375 16.32 3.12 1.837 0.232 3.697 1.02 5.521 1.199 1.219 0.121 2.571-0.381 3.6 0.24 2.604-0.842 5.122-0.912 7.44-2.16 2.175-1.171 3.415-2.864 6.239-3.6 3.012-0.785 4.231-3.603 8.4-2.64 2.839 0.655 6.426 2.146 9.36 2.64 0.734 0.123 2.099-0.355 2.64 0.24 0.649 0.714 0.09 0.074 0.96 0 0.419-0.036 0.634 0.485 0.72 0.479 1.293-0.083 2.366-0.884 3.601-0.479 1.431-0.97 2.876-1.924 4.319-2.88 1.209-3.824 1.908-8.344 2.4-12.961 0.441-4.141 1.336-8.328 1.92-12.239 0.283-1.897 0.019-3.918 0.24-5.761 0.432-3.582 0.742-7.376 0.72-11.52-0.015-2.808-0.779-5.678-0.72-8.4 0.022-1.036 0.255-3.054 1.2-3.84 0.783 1.559 0.188 3.354 0.239 5.04 0.034 1.113 0.386 2.021 0.48 3.12 0.356 4.158-0.218 9.145-0.48 13.68-0.109 1.896 0.219 3.899 0 5.521-0.097 0.717-0.612 1.482-0.72 2.16-0.437 2.745-0.56 5.289-0.96 8.64-0.323 2.709-0.715 6.77-1.44 10.08 1.92 2.014 5.682 3.261 8.641 1.92 0.852-0.386 2.142-1.047 2.64-1.439 3.743-2.951 4.671-9.656 6.24-13.921-0.624-4.313-0.608-13.037-0.96-18.479-0.048-0.737-0.411-1.482-0.48-2.16-0.109-1.086 0.297-2.115 0.24-3.12-0.062-1.126-0.374-2.39-0.479-3.6-0.078-0.889 0.054-1.71-0.24-3.12-0.039-0.188-0.473-0.642-0.48-0.72-0.196-2.01 0.121-3.857-0.239-5.761-0.244-1.287-0.819-2.763-1.2-4.08-0.395-1.363-0.778-2.797-1.681-3.84-0.481-2.562-0.682-4.936-1.199-7.68-0.259-1.368-0.933-2.894-0.96-4.08-0.043-1.807-0.24-3.725-0.721-5.76-0.862-3.658-1.269-6.756-2.399-10.32-0.616-1.939-0.814-3.545-1.681-6-0.43-1.22-1.012-2.654-1.92-3.6 0.74-0.684-0.573-1.644 0-2.16-0.953-2.003-1.594-4.039-2.399-6.24-0.712-1.942-1.645-3.938-2.4-6-2.092-5.704-2.535-12.363-6.479-16.08 0.035-1.122-0.584-1.983-0.96-2.88-0.363-0.865-0.569-1.808-0.96-2.64-0.735-1.564-2.547-2.938-2.16-4.8 1.543 0.407 1.733 2.162 2.399 3.36 0.649 1.166 1.638 2.323 2.16 3.601 0.527 1.288 0.725 2.684 1.44 3.84 0.729 1.179 1.374 1.852 1.92 3.12 2.038 4.738 3.206 10.109 5.28 15.12 0.959 2.316 2.282 4.815 2.88 7.199 0.205 0.818 0 1.626 0.239 2.4 0.439 1.417 1.244 2.768 1.681 4.08 0.497 1.496 0.946 2.938 1.439 4.32 1.09 3.053 1.645 5.817 2.16 9.359 0.245 1.685 0.804 3.427 1.2 4.8 0.552 1.914 0.388 4.105 0.72 6.24 0.863 5.548 2.281 11.288 4.561 15.84 0.903 4.562 1.375 9.771 1.92 14.88 0.108 1.015-0.296 2.079-0.24 3.12 0.45 8.511 2.324 16.586 0.479 24.721-0.472 2.081-1.562 5.156-2.64 7.68-0.349 0.816-0.588 1.884-0.96 2.399-0.234 0.326-0.907 0.41-1.2 0.721-0.874 0.927-1.719 2.144-3.12 2.88-0.322 0.17-1.105-0.024-1.68 0.24-0.611 0.281-0.383 0.664-0.96 0.72-2.677 0.259-4.703-1.436-6.96-2.16-1.463 0.837-0.923 2.354-1.44 3.6-1.202 2.895-4.052 4.077-6.479 5.761-2.233-1.012-3.662 0.187-5.76 0-2.173-0.194-5.541-1.646-8.16-2.16-0.968-0.19-2.146-0.262-2.88-0.48-0.876-0.261-1.389-0.96-2.4-0.96-1.692 0-4.169 1.697-6.479 2.88-0.986 0.505-1.921 1.074-2.881 1.681-2.566 1.621-5.743 3.532-10.079 3.84-2.655 0.188-6.454-0.585-9.36-1.2-1.536 0.784-0.44 4.199-1.68 5.28 0.204 1.476 1.281 2.078 1.199 3.84-4.547 1.692-9.431 3.049-11.76 6.96 1.394 1.747 3.135 3.573 4.561 5.76 0.761 1.168 1.825 2.696 1.439 4.08-2.007-0.953-1.758-4.161-4.08-4.8 0.611-1.042-1.008-1.631-1.2-2.64-1.953 0.44-4.888-0.914-5.04 0-1.062 0.037 0.113-0.679-0.48-0.96-0.992-0.288-1.569-0.991-2.64-1.2-1.006 0.181 0.326-0.917-0.72-0.96-2.993 1.355-1.191 3.897-0.96 6.96 0.425 0.32 1.015-0.019 1.44 0.72-0.068 1.473 0.151 5.039-1.92 5.28 1.04-4.577-2.582-7.929-0.96-12.96 2.904-2.296 5.234-5.166 6.24-9.36 0.714 3.516-1.195 6.484-3.12 8.16 1.172 1.388 2.492 2.628 4.8 2.88 2.138-2.058 3.757-4.33 6.479-6 1.443-0.885 3.563-1.751 5.761-2.4-0.27-2.309-0.165-5.795 0.96-8.159-3.63-1.79-9.317-0.869-12.96-2.16-1.091 0.377 0.588 2.832-0.72 3.359-1.247-0.106-0.605-3.193-0.72-4.319-2.889-1.522-6.417-0.331-9.36-0.721-2.246-0.297-4.26-1.186-6.48-1.439-3.656 2.491-1.295 8.365-0.96 12.479 0.416 1.185 2.624 0.577 2.4 2.4-2.083 0.178-3.087-1.01-6.24-1.2-1.07-0.064-2.209-0.466-3.12-0.479-1.543-0.024-3.252 0.519-4.8 0.479-0.81-0.021-1.737-0.282-2.4-0.24-1.099 0.071-1.886 0.924-2.88 0.48-0.113-1.109 1.31-1.764 1.92-2.88 1.974-3.61 2.978-10.291 0.72-14.64-1.282 0.285-2.576-0.01-3.84 0.239-1.707 0.337-3.228 1.497-4.8 1.92-2.604 0.7-5.367 0.261-7.44 1.92-2.325-0.618-4.737 0.749-6.96 0.48-0.684-0.083-1.29-0.716-2.16-0.96-2.281-0.641-4.064-0.584-5.52-1.92-1.291-3.113-1.752-7.235-4.56-9.36-1.708-1.293-3.763-1.942-6.96-2.399-0.569-1.197-0.208-1.981-1.44-2.641-1.851-10.03-1.88-21.51-1.919-33.12-0.024-7.269 0.707-14.884 3.12-20.64 0.054-0.542-0.072-1.17 0-1.68 0.312-2.2 1.596-4.668 2.16-6.96 0.205-0.831 0.031-1.674 0.24-2.4 0.148-0.515 0.604-0.922 0.72-1.44 0.228-1.022 0.077-2.09 0.24-3.119 0.356-2.246 1.123-4.587 1.68-6.96 0.774-3.295 1.436-6.237 2.64-8.881 0.285-0.625 0.45-1.349 0.72-1.92 1.134-2.393 2.99-4.427 3.84-6.96 0.527-1.571 0.417-3.098 1.68-4.08 1.918-5.624 4.455-11.146 7.44-16.08 0.55-0.908 1.337-1.689 1.92-2.64 1.254-2.044 1.715-4.524 2.88-6.479 0.46-0.773 1.418-1.506 2.16-2.4 1.398-1.687 2.536-3.271 3.84-5.28 1.617-2.49 3.74-4.262 5.52-6.72 0.815 0.015 1.318-0.281 1.68-0.72-0.593-2.281-4.482-3.048-5.52-5.76-0.654-1.708 0.565-7.458 0.48-12-0.083-4.372-0.619-11.148 0-16.32 0.724-6.054-0.391-16.22 0.72-23.04 0.48-2.945 1.221-5.632 1.68-8.16-1.51-3.036-0.647-6.1 0.48-8.88 0.616-1.519 0.964-2.244 1.68-3.6 1.167-2.211 3.363-4.716 5.52-5.52 1.004-2.291 2.574-3.098 4.56-4.56 0.744-0.548 1.277-1.485 1.92-1.92 0.525-0.355 1.269-0.357 1.92-0.72 1.355-0.754 3.168-2.393 4.8-3.12 2.508-1.117 5.478-0.98 8.16-2.16 2.501-1.1 4.118-3.882 4.8-6.48-0.067-0.388 0.227-0.413 0.24-0.72zm36.72 130.08c-1.58-3.301-4.975-4.785-7.439-7.2h-0.721c-1.443 1.996-4.582 2.297-6 4.319-2.268 0.212-3.266 1.694-5.52 1.921-0.162 3.723-0.949 7.038-2.4 10.079 1.959 0.056 2.573-1.157 3.12-2.399 0.397-0.902-0.094-3.023 1.68-2.88 0.555 6.766-3.134 9.004-5.52 14.16 2.946 1.531 5.134-0.853 5.76-3.601 1.195 0.361 1.794-1.491 2.4-0.24-0.839 1.722-2.568 2.552-3.12 4.561 4.405 1.588 3.848-5.278 6.72-4.8-0.279 1.479-1.543 1.977-1.439 3.84 2.954 0.691 2.75-3.793 5.04-4.561 0.915 1.432-1.314 2.29-0.721 3.36 3.205-1.275 3.55-5.411 6.24-7.2 0.556-2.484 2.433-3.647 2.88-6.24 0.57-0.149 1.117-0.322 1.2-0.96-0.43-1.01-1.55-1.33-2.16-2.16zm-64.8 139.68c3.761 0.695 8.019-0.677 12.48 0.479-0.601-4.015-0.966-9.812-0.48-13.439-3.791-0.21-6.98-2.299-10.8-1.68 1.986 4.35 0.512 10.68-1.2 14.64z"></path> </g> <metadata></metadata></svg> 